<svg width="56" height="56" viewBox="0 0 56 56" fill="none" xmlns="http://www.w3.org/2000/svg">
<g clip-path="url(#clip0_519_645)">
<path d="M42.875 0H13.125C5.87626 0 0 5.87626 0 13.125V42.875C0 50.1237 5.87626 56 13.125 56H42.875C50.1237 56 56 50.1237 56 42.875V13.125C56 5.87626 50.1237 0 42.875 0Z" fill="white"/>
<path d="M18.5378 24.4915C18.5378 25.0239 18.5954 25.4555 18.6961 25.7723C18.8112 26.0888 18.9552 26.4342 19.1567 26.8085C19.2286 26.9235 19.2574 27.0386 19.2574 27.1394C19.2574 27.2834 19.171 27.4273 18.984 27.571L18.0773 28.1757C17.9478 28.2618 17.8183 28.3052 17.7031 28.3052C17.5592 28.3052 17.4153 28.2332 17.2714 28.1037C17.0699 27.8878 16.8972 27.6574 16.7533 27.4273C16.6094 27.1825 16.4655 26.9091 16.3071 26.5781C15.1846 27.9022 13.7742 28.5642 12.0761 28.5642C10.8672 28.5642 9.90296 28.2188 9.19778 27.5279C8.49259 26.8371 8.13281 25.9162 8.13281 24.7649C8.13281 23.5414 8.56454 22.5485 9.44242 21.8002C10.3203 21.0518 11.486 20.6776 12.9683 20.6776C13.4576 20.6776 13.9613 20.7208 14.4938 20.7928C15.0263 20.8647 15.5732 20.9799 16.1488 21.1094V20.0588C16.1488 18.9651 15.9186 18.2023 15.4724 17.7562C15.0119 17.31 14.2348 17.0942 13.1266 17.0942C12.6229 17.0942 12.1048 17.1517 11.5723 17.2813C11.0399 17.4108 10.5218 17.5691 10.0181 17.7706C9.78781 17.8713 9.61513 17.9289 9.51437 17.9576C9.41364 17.9864 9.34169 18.0008 9.28412 18.0008C9.08265 18.0008 8.98189 17.8569 8.98189 17.5547V16.8495C8.98189 16.6192 9.01068 16.4465 9.08265 16.3458C9.15459 16.2451 9.28412 16.1443 9.48561 16.0436C9.9893 15.7845 10.5937 15.5687 11.2989 15.396C12.0041 15.2089 12.7525 15.1225 13.544 15.1225C15.2566 15.1225 16.5086 15.5111 17.3145 16.2882C18.1061 17.0654 18.509 18.2455 18.509 19.8285V24.4915H18.5378ZM12.6949 26.679C13.1698 26.679 13.6591 26.5926 14.1772 26.4198C14.6953 26.2472 15.1558 25.9304 15.5444 25.4988C15.7747 25.2254 15.9474 24.9231 16.0337 24.5777C16.1201 24.2323 16.1776 23.8149 16.1776 23.3258V22.7211C15.7603 22.6205 15.3141 22.5341 14.8536 22.4766C14.3931 22.419 13.9469 22.3902 13.5008 22.3902C12.5366 22.3902 11.8314 22.5774 11.3565 22.9659C10.8816 23.3544 10.6513 23.9013 10.6513 24.621C10.6513 25.2973 10.824 25.8009 11.1838 26.1463C11.5292 26.5062 12.0329 26.679 12.6949 26.679ZM24.2512 28.2332C23.9922 28.2332 23.8194 28.1899 23.7043 28.0893C23.5892 28.0028 23.4884 27.8014 23.4022 27.5279L20.0201 16.4034C19.9338 16.1156 19.8906 15.9285 19.8906 15.8277C19.8906 15.5974 20.0058 15.4679 20.236 15.4679H21.6464C21.9197 15.4679 22.107 15.5111 22.2076 15.6118C22.3227 15.6982 22.4091 15.8997 22.4955 16.1731L24.9131 25.7003L27.1584 16.1731C27.2303 15.8853 27.3165 15.6982 27.4318 15.6118C27.5469 15.5255 27.7483 15.4679 28.0073 15.4679H29.1586C29.4321 15.4679 29.6193 15.5111 29.7344 15.6118C29.8494 15.6982 29.9503 15.8997 30.0078 16.1731L32.2817 25.8153L34.7713 16.1731C34.8577 15.8853 34.9586 15.6982 35.0592 15.6118C35.1742 15.5255 35.3615 15.4679 35.6205 15.4679H36.9588C37.1892 15.4679 37.3187 15.5831 37.3187 15.8277C37.3187 15.8997 37.3042 15.9716 37.2898 16.058C37.2756 16.1443 37.2467 16.2594 37.1892 16.4178L33.7209 27.5424C33.6345 27.8302 33.5336 28.0173 33.4186 28.1037C33.3035 28.1899 33.1162 28.2476 32.8717 28.2476H31.634C31.3606 28.2476 31.1735 28.2043 31.0585 28.1037C30.9432 28.0028 30.8426 27.8158 30.785 27.5279L28.5542 18.2455L26.3381 27.5135C26.2661 27.8014 26.1797 27.9884 26.0646 28.0893C25.9493 28.1899 25.7479 28.2332 25.4889 28.2332H24.2512ZM42.7443 28.6217C41.996 28.6217 41.2476 28.5353 40.5279 28.3627C39.8085 28.1899 39.2472 28.0028 38.8729 27.7869C38.6427 27.6574 38.4844 27.5135 38.4268 27.384C38.3693 27.2545 38.3404 27.1106 38.3404 26.9811V26.2472C38.3404 25.9448 38.4555 25.8009 38.6714 25.8009C38.7578 25.8009 38.8442 25.8153 38.9304 25.8442C39.0168 25.8729 39.1463 25.9304 39.2903 25.9882C39.7796 26.2038 40.312 26.3767 40.8733 26.4917C41.4491 26.607 42.0102 26.6645 42.5859 26.6645C43.4927 26.6645 44.1977 26.5062 44.687 26.1896C45.1764 25.8729 45.4354 25.4124 45.4354 24.8224C45.4354 24.4195 45.3059 24.0883 45.0469 23.8149C44.7879 23.5414 44.2985 23.2969 43.5933 23.0665L41.5066 22.419C40.456 22.0881 39.6788 21.5987 39.2038 20.9511C38.7289 20.3179 38.4844 19.6127 38.4844 18.8643C38.4844 18.2599 38.6139 17.7274 38.8729 17.2669C39.1319 16.8063 39.4773 16.4034 39.9091 16.0868C40.3409 15.7558 40.8302 15.5111 41.4058 15.3384C41.9815 15.1657 42.5859 15.0938 43.2192 15.0938C43.5358 15.0938 43.8667 15.1081 44.1835 15.1513C44.5144 15.1945 44.8165 15.2521 45.1188 15.3096C45.4067 15.3816 45.6802 15.4535 45.9392 15.5399C46.1982 15.6262 46.3996 15.7126 46.5436 15.7989C46.745 15.9141 46.889 16.0292 46.9754 16.1587C47.0616 16.2738 47.1049 16.4321 47.1049 16.6336V17.31C47.1049 17.6123 46.9898 17.7706 46.7739 17.7706C46.6586 17.7706 46.4716 17.713 46.227 17.5979C45.4067 17.2237 44.4856 17.0366 43.4638 17.0366C42.6435 17.0366 41.996 17.1661 41.5497 17.4396C41.1037 17.713 40.8733 18.1304 40.8733 18.7204C40.8733 19.1234 41.0173 19.4688 41.3052 19.7422C41.5928 20.0156 42.1255 20.2891 42.8883 20.5337L44.9318 21.1813C45.9678 21.5123 46.7164 21.9728 47.1624 22.563C47.6084 23.1529 47.8243 23.8293 47.8243 24.5777C47.8243 25.1965 47.6948 25.7578 47.4503 26.2472C47.1913 26.7365 46.8459 27.1681 46.3996 27.5135C45.9536 27.8733 45.4209 28.1323 44.8023 28.3196C44.1546 28.5211 43.4782 28.6217 42.7443 28.6217Z" fill="#252F3E"/>
<path fill-rule="evenodd" clip-rule="evenodd" d="M45.4643 35.6162C40.7295 39.1133 33.8505 40.9699 27.9355 40.9699C19.646 40.9699 12.1769 37.9043 6.53544 32.8098C6.08932 32.4069 6.49228 31.86 7.02476 32.1765C13.1267 35.7168 20.6535 37.8612 28.4392 37.8612C33.6921 37.8612 39.4632 36.7675 44.7735 34.5224C45.565 34.1626 46.2413 35.0404 45.4643 35.6162Z" fill="#FF9900"/>
<path fill-rule="evenodd" clip-rule="evenodd" d="M47.4351 33.3711C46.8307 32.5938 43.4343 32.9968 41.8943 33.1838C41.4339 33.2416 41.3619 32.8384 41.7793 32.5363C44.4848 30.6367 48.9318 31.1836 49.45 31.8166C49.968 32.4643 49.306 36.9113 46.7731 39.0413C46.3844 39.3722 46.0104 39.1994 46.1829 38.7678C46.7587 37.3431 48.0395 34.1336 47.4351 33.3711Z" fill="#FF9900"/>
</g>
<defs>
<clipPath id="clip0_519_645">
<rect width="56" height="56" fill="white"/>
</clipPath>
</defs>
</svg>
