<svg width="56" height="56" viewBox="0 0 56 56" fill="none" xmlns="http://www.w3.org/2000/svg">
<g clip-path="url(#clip0_519_651)">
<path d="M49.875 0H6.125C2.74226 0 0 2.74226 0 6.125V49.875C0 53.2577 2.74226 56 6.125 56H49.875C53.2577 56 56 53.2577 56 49.875V6.125C56 2.74226 53.2577 0 49.875 0Z" fill="white"/>
<path d="M40.7698 20.6056V35.0927C40.7698 40.0843 40.4046 42.4784 39.309 44.5482C38.2943 46.537 36.9549 47.7947 34.1956 49.1746L28.3925 46.415C31.152 45.1165 32.4911 43.9806 33.3432 42.235C34.2362 40.4495 34.5205 38.3798 34.5205 32.9421V20.6056H40.7698ZM30.8279 10.9546V39.8817C27.622 40.4904 25.2682 40.7338 22.7118 40.7338C15.0824 40.7338 11.1055 37.2847 11.1055 30.6697C11.1055 24.2985 15.3261 20.1595 21.8594 20.1595C22.8739 20.1595 23.6448 20.2404 24.5784 20.4839V10.9546H30.8279ZM22.4683 25.1912C19.303 25.1912 17.4767 27.1392 17.4767 30.5477C17.4767 33.8756 19.2218 35.7017 22.4278 35.7017C23.1173 35.7017 23.6857 35.6611 24.5784 35.5396V25.5155C23.848 25.2723 23.2393 25.1912 22.4683 25.1912ZM40.7698 10.9878V17.3997H34.5205V10.9878H40.7698Z" fill="#092E20"/>
</g>
<defs>
<clipPath id="clip0_519_651">
<rect width="56" height="56" fill="white"/>
</clipPath>
</defs>
</svg>
