<svg width="56" height="56" viewBox="0 0 56 56" fill="none" xmlns="http://www.w3.org/2000/svg">
<g clip-path="url(#clip0_519_662)">
<path d="M42.875 0H13.125C5.87626 0 0 5.87626 0 13.125V42.875C0 50.1237 5.87626 56 13.125 56H42.875C50.1237 56 56 50.1237 56 42.875V13.125C56 5.87626 50.1237 0 42.875 0Z" fill="white"/>
<path fill-rule="evenodd" clip-rule="evenodd" d="M47.2163 17.1311C47.2303 17.1844 47.2378 17.2393 47.2378 17.2945V25.8694C47.2378 25.9794 47.2091 26.0875 47.1548 26.1826C47.1004 26.278 47.0221 26.357 46.928 26.4117L39.8304 30.5552V38.7682C39.8304 38.9917 39.7134 39.198 39.5222 39.3107L24.7067 47.959C24.6728 47.9784 24.6358 47.9909 24.5989 48.0042C24.5849 48.0091 24.572 48.0176 24.5573 48.0215C24.4536 48.0491 24.3449 48.0491 24.2412 48.0215C24.2244 48.0167 24.2088 48.0073 24.1927 48.0012C24.1588 47.9887 24.1233 47.9778 24.0909 47.959L9.27859 39.3107C9.18448 39.2558 9.1063 39.1768 9.0519 39.0817C8.99749 38.9865 8.96882 38.8782 8.96875 38.7682V13.0438C8.96875 12.9875 8.97645 12.9328 8.99032 12.8797C8.99496 12.8617 9.00574 12.8453 9.01191 12.8273C9.02346 12.7945 9.03427 12.7609 9.05122 12.7304C9.06277 12.7101 9.07972 12.6937 9.09361 12.6749C9.11133 12.6499 9.12752 12.6241 9.14832 12.6022C9.16604 12.5842 9.18916 12.571 9.20922 12.5554C9.23156 12.5366 9.25159 12.5163 9.27703 12.5014H9.2778L16.6844 8.17727C16.7781 8.12256 16.8845 8.09375 16.9927 8.09375C17.1008 8.09375 17.2072 8.12256 17.3009 8.17727L24.7076 12.5014H24.7091C24.7336 12.517 24.7546 12.5366 24.7769 12.5546C24.7968 12.5702 24.8192 12.5843 24.8369 12.6014C24.8585 12.6241 24.8741 12.6499 24.8924 12.6749C24.9056 12.6937 24.9233 12.7101 24.934 12.7304C24.9517 12.7617 24.9618 12.7945 24.9743 12.8273C24.9804 12.8453 24.9911 12.8617 24.9957 12.8805C25.0099 12.9337 25.0171 12.9886 25.0173 13.0438V29.111L31.1892 25.5076V17.2937C31.1892 17.239 31.1968 17.1835 31.2108 17.1311C31.2163 17.1124 31.2261 17.096 31.2325 17.078C31.2447 17.0452 31.2554 17.0116 31.2725 16.9811C31.2841 16.9608 31.3009 16.9444 31.3141 16.9256C31.3327 16.9006 31.348 16.8748 31.3696 16.8529C31.3873 16.8349 31.4097 16.8217 31.4298 16.806C31.4527 16.7873 31.4729 16.7669 31.4976 16.7521H31.4985L38.9058 12.428C38.9994 12.3732 39.1057 12.3443 39.214 12.3443C39.3223 12.3443 39.4286 12.3732 39.5222 12.428L46.9289 16.7521C46.9551 16.7677 46.975 16.7873 46.9982 16.8052C47.0175 16.8209 47.0398 16.8349 47.0575 16.8521C47.0792 16.8748 47.0945 16.9006 47.1131 16.9256C47.1268 16.9444 47.1439 16.9608 47.1546 16.9811C47.1723 17.0116 47.1824 17.0452 47.1947 17.078C47.2017 17.096 47.2117 17.1124 47.2163 17.1311ZM46.0031 25.5076V18.3769L43.4112 19.8899L39.8304 21.9804V29.111L46.0038 25.5076H46.0031ZM38.5965 38.4064V31.2712L35.0744 33.311L25.0165 39.1318V46.3341L38.5965 38.4064ZM10.2034 14.1262V38.4064L23.7818 46.3334V39.1324L16.6882 35.0615L16.6859 35.0599L16.6828 35.0584C16.6589 35.0444 16.6389 35.0241 16.6165 35.0068C16.5973 34.9913 16.5749 34.9788 16.558 34.9615L16.5564 34.9593C16.5364 34.9396 16.5225 34.9156 16.5056 34.8935C16.4901 34.8725 16.4717 34.8545 16.4593 34.8327L16.4584 34.8302C16.4446 34.8068 16.4361 34.7786 16.4261 34.7522C16.416 34.7288 16.4029 34.7069 16.3968 34.6817V34.6808C16.3891 34.6513 16.3875 34.62 16.3845 34.5894C16.3814 34.566 16.3752 34.5426 16.3752 34.5192V34.5177V17.7298L12.7953 15.6384L10.2034 14.127V14.1262ZM16.9934 9.44177L10.8223 13.0438L16.9919 16.6458L23.1621 13.043L16.9919 9.44177H16.9934ZM20.2027 31.9213L23.7827 29.8316V14.1262L21.1907 15.6392L17.61 17.7298V33.4353L20.2027 31.9213ZM39.214 13.6925L33.0435 17.2945L39.214 20.8965L45.3834 17.2937L39.214 13.6925ZM38.5965 21.9804L35.0158 19.8899L32.424 18.3769V25.5076L36.0038 27.5973L38.5965 29.111V21.9804ZM24.3985 38.0494L33.4488 32.8099L37.973 30.1919L31.8073 26.5921L24.7083 30.7366L18.2381 34.5137L24.3985 38.0494Z" fill="#FF2D20"/>
</g>
<defs>
<clipPath id="clip0_519_662">
<rect width="56" height="56" fill="white"/>
</clipPath>
</defs>
</svg>
