<svg width="56" height="56" viewBox="0 0 56 56" fill="none" xmlns="http://www.w3.org/2000/svg">
<g clip-path="url(#clip0_519_640)">
<path d="M42.875 0H13.125C5.87626 0 0 5.87626 0 13.125V42.875C0 50.1237 5.87626 56 13.125 56H42.875C50.1237 56 56 50.1237 56 42.875V13.125C56 5.87626 50.1237 0 42.875 0Z" fill="white"/>
<path d="M37.4441 23.5355C35.1391 13.3677 30.3354 10.6609 29.1099 8.74751C28.6046 7.9046 28.1569 7.02842 27.7701 6.125C27.7054 7.02826 27.5864 7.59734 26.8185 8.28231C25.277 9.65681 18.7298 14.9921 18.1787 26.5449C17.6654 37.3166 26.0975 43.9585 27.2114 44.6451C28.068 45.0667 29.1113 44.6541 29.6203 44.2671C33.6849 41.4776 39.2385 34.0406 37.4485 23.5355" fill="#10AA50"/>
<path d="M28.1181 38.9092C27.9059 41.5753 27.7538 43.1245 27.2148 44.6481C27.2148 44.6481 27.5686 47.1862 27.8171 49.8749H28.6962C28.906 47.9816 29.226 46.1021 29.6552 44.246C28.5171 43.686 28.1618 41.2487 28.1181 38.9092Z" fill="#B8C4C2"/>
<path d="M29.6561 44.2478C28.5059 43.7165 28.1732 41.2278 28.122 38.9095C28.4063 35.085 28.4893 31.2484 28.3705 27.4152C28.3101 25.404 28.3989 8.78683 27.875 6.354C28.2335 7.17799 28.6463 7.97715 29.1112 8.74619C30.3366 10.6611 35.1419 13.3679 37.4453 23.5357C39.2397 34.0228 33.7163 41.4402 29.6561 44.2478Z" fill="#12924F"/>
</g>
<defs>
<clipPath id="clip0_519_640">
<rect width="56" height="56" fill="white"/>
</clipPath>
</defs>
</svg>
