<svg width="56" height="56" viewBox="0 0 56 56" fill="none" xmlns="http://www.w3.org/2000/svg">
<g clip-path="url(#clip0_519_655)">
<path d="M42.875 0H13.125C5.87626 0 0 5.87626 0 13.125V42.875C0 50.1237 5.87626 56 13.125 56H42.875C50.1237 56 56 50.1237 56 42.875V13.125C56 5.87626 50.1237 0 42.875 0Z" fill="white"/>
<path d="M26.2233 6.80671C27.2993 6.1908 28.7007 6.18806 29.7756 6.80671C35.1835 9.86245 40.5932 12.9135 46.0003 15.9711C47.0175 16.544 47.6976 17.6758 47.6873 18.8477V37.2326C47.6949 38.453 46.9475 39.6119 45.8745 40.1717C40.4843 43.2108 35.0967 46.2534 29.7073 49.2925C28.6094 49.9203 27.1799 49.8719 26.1159 49.1925C24.5 48.2558 22.8813 47.3235 21.2651 46.3877C20.9349 46.1908 20.5626 46.0342 20.3294 45.7139C20.5355 45.4361 20.9041 45.4016 21.2036 45.2802C21.8781 45.0656 22.4978 44.7212 23.1173 44.3872C23.2741 44.28 23.4653 44.3212 23.6156 44.417C24.9974 45.2093 26.3673 46.0248 27.7537 46.8094C28.0494 46.9803 28.3489 46.7534 28.6018 46.6126C33.8912 43.6229 39.1871 40.6448 44.4758 37.6543C44.6718 37.56 44.7801 37.352 44.7641 37.1374C44.7678 31.0726 44.765 25.0068 44.7661 18.942C44.7884 18.6984 44.6475 18.4745 44.4273 18.3748C39.0558 15.3497 33.6868 12.3201 28.3163 9.29429C28.1258 9.16328 27.8744 9.16295 27.6837 9.29331C22.3129 12.3201 16.9452 15.3526 11.5746 18.3774C11.3551 18.4773 11.2079 18.6975 11.234 18.942C11.2349 25.0068 11.234 31.0726 11.234 37.1383C11.2149 37.3529 11.3315 37.5565 11.5261 37.6488C12.9592 38.4615 14.3943 39.2685 15.8284 40.0785C16.6363 40.5132 17.6283 40.7717 18.5184 40.4386C19.3039 40.1568 19.8545 39.3551 19.8395 38.5212C19.8469 32.4918 19.8358 26.4615 19.8451 20.433C19.8255 20.1653 20.0793 19.9441 20.3396 19.9694C21.0283 19.9647 21.7177 19.9601 22.4063 19.9712C22.6938 19.9647 22.8915 20.2529 22.8561 20.5226C22.8533 26.5902 22.8635 32.6578 22.8515 38.7253C22.8533 40.3425 22.1889 42.1022 20.6932 42.8934C18.8505 43.8478 16.5729 43.6454 14.7525 42.7302C13.1765 41.9436 11.6726 41.0152 10.1246 40.1726C9.04884 39.6158 8.30506 38.4523 8.31263 37.2328V18.8477C8.30135 17.6516 9.00867 16.4992 10.0573 15.9347C15.4467 12.8933 20.8351 9.84946 26.2233 6.80671Z" fill="#81CD39"/>
<path d="M30.9239 19.5419C33.2743 19.3905 35.7906 19.4523 37.9057 20.6101C39.5435 21.4976 40.4513 23.3599 40.4802 25.1793C40.4345 25.4245 40.1779 25.5599 39.9436 25.543C39.2617 25.5422 38.5795 25.5524 37.8976 25.5384C37.6082 25.5496 37.4402 25.2829 37.4039 25.0272C37.2079 24.1566 36.733 23.2945 35.9138 22.8745C34.656 22.2449 33.1978 22.2767 31.826 22.2898C30.825 22.3427 29.7483 22.4296 28.9 23.0182C28.2488 23.4643 28.051 24.3646 28.2833 25.0898C28.5025 25.6104 29.1034 25.7784 29.5952 25.9333C32.428 26.6742 35.4297 26.6003 38.208 27.5752C39.3587 27.9727 40.4839 28.7455 40.8777 29.95C41.3928 31.5644 41.1671 33.4937 40.0184 34.7896C39.087 35.856 37.7305 36.4366 36.3775 36.7518C34.5777 37.1532 32.7097 37.1635 30.8819 36.9852C29.1632 36.7892 27.3744 36.3377 26.0477 35.1667C24.9131 34.1815 24.359 32.6463 24.4139 31.1649C24.427 30.9147 24.6762 30.7401 24.9159 30.7607C25.6026 30.7552 26.2894 30.7532 26.9761 30.7618C27.2504 30.7421 27.4538 30.9792 27.4678 31.2378C27.5945 32.067 27.9062 32.9377 28.6294 33.4292C30.0252 34.3298 31.7768 34.2681 33.375 34.2933C34.6988 34.2346 36.1852 34.2169 37.2659 33.3417C37.8359 32.8425 38.0048 32.0073 37.8508 31.2889C37.6839 30.6824 37.0493 30.3997 36.5044 30.2149C33.7081 29.3305 30.6727 29.6514 27.9036 28.651C26.7792 28.2538 25.692 27.5026 25.2602 26.3476C24.6576 24.7129 24.9336 22.6908 26.2026 21.4387C27.4398 20.1931 29.2257 19.7135 30.9239 19.5419Z" fill="#81CD39"/>
</g>
<defs>
<clipPath id="clip0_519_655">
<rect width="56" height="56" fill="white"/>
</clipPath>
</defs>
</svg>
