<svg xmlns="http://www.w3.org/2000/svg" width="500" height="489" fill="none"><path fill="#0E53BE" d="M388.451 129.885a31.2 31.2 0 0 1 7.627-3.312l1.572-7.553 12.764-.222 1.836 7.49a31.2 31.2 0 0 1 7.754 3.049l6.445-4.22 9.189 8.872-3.998 6.593a31 31 0 0 1 3.312 7.628l7.554 1.571.221 12.765-7.49 1.836a31.4 31.4 0 0 1-3.049 7.743l4.22 6.456-8.872 9.178-6.593-3.998a31.3 31.3 0 0 1-7.627 3.323l-1.572 7.553-12.765.222-1.836-7.49a31.4 31.4 0 0 1-7.743-3.049l-6.456 4.22-9.189-8.872 3.999-6.594a31.3 31.3 0 0 1-3.313-7.627l-7.553-1.582-.211-12.754 7.49-1.846a31.7 31.7 0 0 1 3.049-7.744l-4.22-6.445 8.872-9.189 6.593 3.998zm6.804 17.006a13.716 13.716 0 0 0 2.424 21.075 13.72 13.72 0 0 0 15.246-.266 13.712 13.712 0 0 0-8.061-24.977 13.7 13.7 0 0 0-9.609 4.168"/><path fill="#E0E0E0" d="M395.255 146.891a10.3 10.3 0 0 1 2.553-2.237 13.57 13.57 0 0 1 8.925-2.109c2.163.214 4.246.937 6.076 2.109a14 14 0 0 1 4.906 5.539 13 13 0 0 1 1.255 3.84c.247 1.394.271 2.818.074 4.22a13.997 13.997 0 0 1-11.604 11.973 13.5 13.5 0 0 1-4.22.074 12.9 12.9 0 0 1-3.84-1.065 14.04 14.04 0 0 1-5.707-4.706 13.86 13.86 0 0 1-.57-15.001 10.4 10.4 0 0 1 2.11-2.626 32 32 0 0 0-1.888 2.785 13.7 13.7 0 0 0-1.509 8.766 13.39 13.39 0 0 0 7.817 10.127 13.45 13.45 0 0 0 7.68.939 13.3 13.3 0 0 0 7.319-3.869 13.3 13.3 0 0 0 3.61-7.45 13.56 13.56 0 0 0-1.213-7.638 13.4 13.4 0 0 0-10.402-7.458 13.6 13.6 0 0 0-8.703 1.825c-1.804 1.097-2.606 2.036-2.669 1.962"/><path fill="#E0E0E0" d="M388.451 129.885a3 3 0 0 1-.433-.221l-1.298-.728-4.937-2.954h.159l-8.809 9.231v-.243l4.22 6.425.073.116-.063.126a31 31 0 0 0-2.996 7.691v.158h-.148l-7.49 1.857.211-.275q.127 6.035.254 12.765l-.243-.295 7.553 1.551h.201l.052.189a30.7 30.7 0 0 0 3.292 7.543l.105.18-.105.179-3.988 6.667-.053-.432 9.189 8.861h-.454l6.446-4.22.19-.116.2.106a30.8 30.8 0 0 0 7.649 3.006h.221l.063.222c.57 2.352 1.203 4.905 1.836 7.49l-.38-.285 12.765-.232-.38.306 1.572-7.553v-.232l.232-.064a30.5 30.5 0 0 0 7.522-3.27l.2-.127.211.127 6.594 3.998-.486.063 8.862-9.188v.485l-4.22-6.456-.137-.19.116-.2a31 31 0 0 0 3.017-7.649l.053-.232.221-.052 7.501-1.825-.285.369a5065 5065 0 0 1-.211-12.765l.285.348-7.553-1.582h-.211l-.053-.211a31.3 31.3 0 0 0-3.27-7.554l-.106-.168.106-.18 4.008-6.593v.411l-9.167-8.882h.38l-6.467 4.219-.137.095-.148-.084a31.3 31.3 0 0 0-7.669-3.038h-.158v-.148c-.665-2.732-1.256-5.18-1.815-7.5l.232.179-12.765.169.169-.148c-.654 3.017-1.181 5.486-1.624 7.543v.084h-.074a33.7 33.7 0 0 0-5.845 2.247l-1.371.718a3 3 0 0 1-.454.232l.422-.285c.296-.18.739-.454 1.351-.781a30.6 30.6 0 0 1 5.823-2.373l-.085.094c.412-2.057.908-4.536 1.52-7.563v-.138h.137l12.764-.274h.18l.053.179c.569 2.321 1.181 4.769 1.856 7.491l-.19-.19a32 32 0 0 1 7.828 3.048h-.295l6.435-4.219.2-.127.18.169 9.199 8.84.189.18-.137.232-3.914 6.519v-.348a31.8 31.8 0 0 1 3.324 7.733l-.264-.243 7.553 1.561.285.053v.296q.126 6.213.243 12.764v.296l-.285.074-7.501 1.835.285-.274a32 32 0 0 1-3.08 7.838v-.401l4.219 6.456.169.254-.221.221-8.862 9.189-.211.232-.274-.169-6.593-3.998h.4a32 32 0 0 1-7.722 3.354l.275-.306-1.572 7.554-.064.306h-.316l-12.765.221h-.306l-.074-.295c-.633-2.585-1.255-5.148-1.825-7.501l.275.285a32 32 0 0 1-7.839-3.091h.391l-6.456 4.22-.243.158-.211-.2c-3.165-3.091-6.33-6.098-9.178-8.883l-.2-.19.147-.242 4.009-6.583v.348a31.8 31.8 0 0 1-3.344-7.722l.253.232-7.553-1.593h-.243v-.243l-.2-12.764v-.222l.211-.053 7.5-1.814-.19.19a32 32 0 0 1 3.102-7.796v.232l-4.22-6.467-.084-.127.116-.116 8.914-9.135.074-.074.084.052 4.853 3.028 1.255.791z"/><path fill="#F5F5F5" d="M60.239 205.778a31.3 31.3 0 0 1 7.627-3.313l1.572-7.553 12.764-.232 1.836 7.5a31 31 0 0 1 7.743 3.049l6.457-4.22 9.188 8.862-4.009 6.593a31 31 0 0 1 3.323 7.627l7.554 1.572.221 12.765-7.49 1.835a31.4 31.4 0 0 1-3.049 7.744l4.22 6.456-8.872 9.178-6.593-3.998a31.3 31.3 0 0 1-7.627 3.323l-1.562 7.542-12.764.222-1.836-7.49a31.6 31.6 0 0 1-7.754-3.049l-6.446 4.22-9.188-8.872 3.998-6.593a31.2 31.2 0 0 1-3.312-7.638l-7.554-1.572-.221-12.765 7.511-1.825a31.7 31.7 0 0 1 3.049-7.743l-4.22-6.446 8.872-9.188 6.593 3.998zm6.836 17.005a13.71 13.71 0 0 0-2.733 15.001 13.714 13.714 0 1 0 2.733-15.001"/><path fill="#F5F5F5" d="M67.074 222.783a10.3 10.3 0 0 1 2.543-2.236 13.6 13.6 0 0 1 8.935-2.11c2.163.214 4.246.937 6.076 2.11a14 14 0 0 1 4.906 5.538 13.9 13.9 0 0 1 1.329 8.06 14 14 0 0 1-11.604 11.973 13.2 13.2 0 0 1-4.22.064 12.9 12.9 0 0 1-3.882-1.055 14 14 0 0 1-5.707-4.716 13.85 13.85 0 0 1-.57-14.991 10.4 10.4 0 0 1 2.11-2.626 33 33 0 0 0-1.888 2.774 13.7 13.7 0 0 0-1.51 8.767 13.4 13.4 0 0 0 2.427 5.696 13.53 13.53 0 0 0 5.465 4.431 13.46 13.46 0 0 0 7.68.939 13.294 13.294 0 0 0 10.908-11.32c.19-1.324.168-2.67-.064-3.987-.191-1.269-.58-2.5-1.15-3.65a13.4 13.4 0 0 0-4.62-5.275 13.24 13.24 0 0 0-5.781-2.11 13.62 13.62 0 0 0-8.703 1.825c-1.846 1.097-2.68 1.973-2.68 1.899"/><path fill="#F5F5F5" d="M60.238 205.777a3 3 0 0 1-.432-.221l-1.256-.728-4.979-2.89h.159l-8.81 9.167v-.253l4.22 6.435.074.116-.063.126a31 31 0 0 0-2.996 7.691v.148h-.148l-7.48 1.888.212-.274q.127 6.034.253 12.764l-.243-.295 7.554 1.519h.19l.063.19a30.7 30.7 0 0 0 3.291 7.543l.106.179-.106.18c-1.234 2.046-2.605 4.293-3.987 6.593l-.064-.433 9.2 8.862h-.454l6.445-4.22.19-.126.2.116a31.3 31.3 0 0 0 7.649 3.006l.222.053v.221c.58 2.342 1.213 4.906 1.846 7.49l-.38-.284 12.765-.232-.38.305 1.572-7.553v-.232l.221-.063a30.8 30.8 0 0 0 7.532-3.271l.201-.116.2.116 6.604 4.009-.485.053 8.861-9.178v.485l-4.219-6.456-.127-.19.116-.211a30.9 30.9 0 0 0 3.017-7.638v-.232l.222-.052 7.5-1.825-.284.369q-.117-6.53-.211-12.765l.284.348-7.553-1.582h-.211v-.211a31.3 31.3 0 0 0-3.27-7.554l-.106-.179.106-.169 4.009-6.593v.411l-9.168-8.893h.38l-6.467 4.22-.137.095-.158-.084a30.9 30.9 0 0 0-7.575-3.039h-.158v-.147a3493 3493 0 0 1-1.814-7.501l.232.179-12.765.159.169-.138c-.654 3.018-1.182 5.486-1.625 7.543v.074h-.063a32.7 32.7 0 0 0-5.845 2.247l-1.37.718a3 3 0 0 1-.455.232l.422-.285c.296-.18.739-.454 1.35-.781a30.7 30.7 0 0 1 5.824-2.374l-.084.095c.411-2.057.907-4.536 1.519-7.563v-.138h.137l12.765-.284h.179v.179c.57 2.321 1.181 4.768 1.857 7.49l-.19-.19c2.73.661 5.36 1.687 7.817 3.049h-.285l6.435-4.22.2-.127.18.159c2.901 2.806 5.96 5.739 9.199 8.851l.19.179-.137.222c-1.298 2.109-2.617 4.346-3.988 6.603v-.348a31.8 31.8 0 0 1 3.365 7.712l-.264-.253 7.554 1.572.285.052v.296q.126 6.213.242 12.754v.306l-.285.063-7.384 1.815.285-.275a32 32 0 0 1-3.081 7.839v-.401l4.22 6.456.169.253-.222.222-8.861 9.188-.222.222-.263-.159-6.647-4.019h.401a31.5 31.5 0 0 1-7.722 3.355l.275-.296-1.54 7.575-.064.306h-.316l-12.765.211h-.306l-.074-.296a4903 4903 0 0 1-1.825-7.5l.274.285a32.4 32.4 0 0 1-7.838-3.091h.39l-6.456 4.219-.242.159-.211-.201-9.178-8.882-.2-.19.147-.243 4.009-6.593v.358a32 32 0 0 1-3.323-7.711l.253.221-7.638-1.582h-.243v-.243q-.116-6.72-.2-12.764v-.222l.21-.053 7.502-1.814-.19.179a31.8 31.8 0 0 1 3.101-7.785v.232l-4.22-6.467-.084-.137.116-.106 8.914-9.135.074-.074.085.053 4.852 3.027 1.256.791zM412.197 60.144a23 23 0 0 1 5.528-2.406l1.14-5.475 9.251-.158 1.33 5.433a22.6 22.6 0 0 1 5.612 2.205l4.673-3.07 6.657 6.435-2.891 4.768a22.5 22.5 0 0 1 2.395 5.539l5.475 1.139.169 9.252-5.433 1.329a22.8 22.8 0 0 1-2.205 5.612l3.06 4.674-6.436 6.656-4.778-2.9a23 23 0 0 1-5.528 2.404l-1.14 5.476-9.251.158-1.33-5.433a22.6 22.6 0 0 1-5.612-2.205l-4.673 3.07-6.657-6.435 2.891-4.78a22.2 22.2 0 0 1-2.385-5.538l-5.475-1.139-.168-9.252 5.432-1.329a22.6 22.6 0 0 1 2.205-5.612l-3.059-4.673 6.425-6.657 4.778 2.9zm4.927 12.321a9.926 9.926 0 0 0 12.843 15.014 9.93 9.93 0 0 0 4.015-10.272 9.92 9.92 0 0 0-6.081-7.115 9.93 9.93 0 0 0-10.777 2.373"/><path fill="#F5F5F5" d="M417.124 72.465a7.8 7.8 0 0 1 1.856-1.624 10.01 10.01 0 0 1 10.866 0 10.25 10.25 0 0 1 3.566 4.008 10.33 10.33 0 0 1 .96 5.845 10.17 10.17 0 0 1-8.387 8.682 9.6 9.6 0 0 1-3.049 0 9.3 9.3 0 0 1-2.816-.802 10.23 10.23 0 0 1-4.136-3.418 10.1 10.1 0 0 1-1.719-4.336 9.93 9.93 0 0 1 1.308-6.53 7.7 7.7 0 0 1 1.551-1.899c.063 0-.591.654-1.361 2.015a9.87 9.87 0 0 0-1.055 6.33 9.77 9.77 0 0 0 5.665 7.384c.85.384 1.754.633 2.68.739a8.9 8.9 0 0 0 2.89-.063 9.59 9.59 0 0 0 7.912-8.197 9.8 9.8 0 0 0-.875-5.539 9.73 9.73 0 0 0-7.533-5.401 9.86 9.86 0 0 0-6.329 1.319c-1.361.865-1.941 1.54-1.994 1.487"/><path fill="#F5F5F5" d="M412.197 60.144a1.4 1.4 0 0 1-.306-.159l-.918-.538-3.608-2.11h.116l-6.382 6.7v-.18l3.091 4.663.053.084-.053.085a23 23 0 0 0-2.173 5.57v.116h-.116l-5.423 1.35.148-.2c.063 2.911.127 6.002.19 9.251l-.179-.221 5.475 1.128h.137v.138a22.4 22.4 0 0 0 2.384 5.464l.084.127-.084.137-2.891 4.779v-.317l6.668 6.414h-.327c1.455-.96 3.048-2.015 4.673-3.07l.137-.095.137.085a22.5 22.5 0 0 0 5.549 2.173h.158v.158c.422 1.699.876 3.555 1.34 5.433l-.285-.211 9.252-.169-.274.222c.359-1.73.749-3.587 1.139-5.475v-.169h.158a22.3 22.3 0 0 0 5.465-2.374l.148-.084.147.084 4.779 2.902h-.348l6.425-6.657v.348l-2.996-4.631-.085-.137.074-.148a21.8 21.8 0 0 0 2.121-5.538v-.17h.168l5.433-1.318-.211.264c-.052-3.165-.105-6.245-.158-9.252l.211.253-5.443-1.181h-.148v-.148a22.4 22.4 0 0 0-2.363-5.465l-.085-.137.085-.126 2.901-4.769v.296l-6.646-6.446h.274l-4.684 3.049-.105.063-.106-.053a22.4 22.4 0 0 0-5.559-2.204h-.106v-.106c-.475-1.972-.907-3.755-1.308-5.433l.158.127-9.241.116.116-.095c-.464 2.184-.854 3.966-1.171 5.464h-.053a23.3 23.3 0 0 0-4.219 1.636l-1.055.517a1.6 1.6 0 0 1-.327.168q.143-.12.306-.21c.211-.127.538-.328.981-.56a22 22 0 0 1 4.219-1.72l-.063.064c.295-1.487.665-3.291 1.055-5.475v-.106h.106l9.251-.2h.127v.127c.411 1.677.854 3.45 1.34 5.422l-.127-.137a22.9 22.9 0 0 1 5.665 2.215h-.211l4.663-3.08.148-.095.126.126 6.667 6.404.138.137-.106.158-2.753 4.821v-.263a23.8 23.8 0 0 1 2.437 5.59l-.201-.179 5.496 1.13h.211v.2c.053 3.017.116 6.097.169 9.251v.222h-.211l-5.433 1.33.201-.201a22.8 22.8 0 0 1-2.226 5.686v-.295l3.059 4.673.127.19-.159.158-6.424 6.657-.158.168-.19-.116-4.779-2.9h.285a23 23 0 0 1-5.591 2.436l.2-.221-1.139 5.475-.053.221h-.222l-9.251.159h-.222l-.053-.222c-.453-1.867-.907-3.724-1.329-5.422l.201.2a22.8 22.8 0 0 1-5.676-2.247h.338l-4.684 3.059-.169.116-.158-.147-6.647-6.435-.147-.148.105-.169 2.912-4.779v.264a23.2 23.2 0 0 1-2.426-5.602l.179.17-5.475-1.15h-.169v-.17c0-3.249-.095-6.33-.137-9.251v-.106h.158l5.433-1.319-.137.138a22.4 22.4 0 0 1 2.247-5.644v.169c-1.055-1.688-2.11-3.27-3.049-4.684l-.053-.106.074-.074 6.467-6.625h.105c1.53.95 2.712 1.678 3.524 2.194l.907.57q.125.085.243.18"/><path fill="#E0E0E0" d="M122.913 34.087a23 23 0 0 1 5.538-2.406l1.14-5.475 9.241-.158 1.34 5.433a22.5 22.5 0 0 1 5.612 2.205l4.631-3.07 6.657 6.424-2.901 4.78a23 23 0 0 1 2.405 5.538l5.475 1.139.158 9.252-5.433 1.329a23 23 0 0 1-2.141 5.612l3.059 4.674-6.424 6.656-4.779-2.9a23 23 0 0 1-5.57 2.404L139.781 81l-9.252.158-1.329-5.433a22.6 22.6 0 0 1-5.612-2.205l-4.673 3.06-6.657-6.425 2.901-4.779a22.7 22.7 0 0 1-2.405-5.528l-5.475-1.14-.116-9.251 5.422-1.33a22.6 22.6 0 0 1 2.215-5.611l-3.07-4.674 6.425-6.656 4.779 2.9zm4.937 12.321a9.927 9.927 0 1 0 14.031-.253 9.93 9.93 0 0 0-7.068-2.782 9.92 9.92 0 0 0-6.963 3.035"/><path fill="#E0E0E0" d="M127.85 46.408a7.6 7.6 0 0 1 1.846-1.656 10.03 10.03 0 0 1 10.876 0 10.14 10.14 0 0 1 3.555 4.009 10.12 10.12 0 0 1-7.426 14.58c-1.99.336-4.035.075-5.876-.75a10.1 10.1 0 0 1-4.125-3.418 10.02 10.02 0 0 1-.422-10.866 7.3 7.3 0 0 1 1.561-1.899q-.732.972-1.361 2.015a9.88 9.88 0 0 0-1.055 6.33 9.56 9.56 0 0 0 1.699 4.125 9.8 9.8 0 0 0 3.966 3.164 9 9 0 0 0 2.669.739 8.9 8.9 0 0 0 2.891-.063 9.66 9.66 0 0 0 5.274-2.796 9.8 9.8 0 0 0 2.617-5.401 9.5 9.5 0 0 0 0-2.89 9 9 0 0 0-.844-2.649 9.72 9.72 0 0 0-7.575-5.285 9.88 9.88 0 0 0-6.329 1.319q-1.009.645-1.941 1.392"/><path fill="#0E53BE" d="m122.912 34.087-.306-.17-.918-.527-3.597-2.11h.106l-6.33 6.7v-.18c.928 1.414 1.973 2.975 3.08 4.663l.053.074v.095a22 22 0 0 0-2.173 5.57v.116h-.106l-5.559 1.34.158-.201c0 2.912.116 6.003.179 9.252l-.179-.222 5.475 1.129h.148v.137a22.8 22.8 0 0 0 2.395 5.465l.073.126-.073.127-2.891 4.79v-.317l6.667 6.456h-.348l4.674-3.06.137-.094.147.084a22.7 22.7 0 0 0 5.592 2.131h.168v.158c.422 1.699.876 3.556 1.34 5.433l-.274-.21 9.241-.17-.264.222 1.14-5.475v-.169h.168a22.4 22.4 0 0 0 5.454-2.373l.148-.085.148.085 4.779 2.9h-.348l6.424-6.656v.348l-3.059-4.673-.095-.137.084-.148a22.5 22.5 0 0 0 2.184-5.549v-.158h.158l5.433-1.319-.211.264c-.053-3.165-.095-6.245-.148-9.252l.211.253-5.475-1.15h-.158v-.147a22.2 22.2 0 0 0-2.363-5.465l-.074-.137.074-.127 2.901-4.768v.295l-6.646-6.445h.274l-4.684 3.049-.105.063h-.106a22.2 22.2 0 0 0-5.559-2.205h-.106v-.106c-.474-1.983-.907-3.755-1.308-5.433l.169.127-9.252.116.116-.095c-.464 2.184-.844 3.967-1.171 5.465h-.052c-1.457.407-2.87.955-4.22 1.635l-.992.517-.337.169a2 2 0 0 1 .316-.211c.211-.127.528-.327.971-.56a22 22 0 0 1 4.219-1.719l-.063.063c.306-1.498.665-3.291 1.055-5.475v-.105h.095l9.252-.2h.137v.126c.411 1.677.854 3.45 1.35 5.422l-.137-.137a22.7 22.7 0 0 1 5.665 2.215h-.211l4.663-3.08.148-.095.126.127 6.667 6.403.138.137-.095.159-2.891 4.789v-.274a23 23 0 0 1 2.437 5.59l-.19-.178 5.475 1.128h.201v.211c.063 3.007.116 6.098.179 9.252v.222h-.211l-5.433 1.34.211-.201a23.4 23.4 0 0 1-2.141 5.739V64.5l3.069 4.674.116.19-.147.158-6.425 6.688-.158.169-.2-.116-4.779-2.901h.295a23 23 0 0 1-5.602 2.437l.201-.222-1.14 5.475v.222h-.232l-9.241.169h-.243l-.052-.222a920 920 0 0 1-1.329-5.422l.2.2a22.8 22.8 0 0 1-5.676-2.247h.275l-4.674 3.06-.179.115-.148-.137-6.656-6.435-.138-.147.106-.17c1.002-1.666 2.004-3.29 2.901-4.778v.253a22.5 22.5 0 0 1-2.416-5.591l.169.169-5.465-1.15h-.179v-.18c0-3.238-.095-6.33-.148-9.24v-.17h.159l5.401-1.434-.137.137a22.7 22.7 0 0 1 2.247-5.644v.232c-1.055-1.688-2.11-3.27-3.038-4.684l-.064-.105.074-.074 6.467-6.625h.063l3.513 2.194.907.57q.192.06.359.169"/><path fill="#E0E0E0" d="m367.605 62.897-1.002-4.083a17.7 17.7 0 0 1-4.22-1.656l-3.534 2.31-5.053-4.874 2.184-3.597a17 17 0 0 1-1.804-4.156l-4.136-.865-.116-7.005 4.083-1.055c.369-1.472.926-2.89 1.656-4.22l-2.31-3.534 4.884-5.074 3.598 2.173a17.5 17.5 0 0 1 4.156-1.804l.865-4.135 7.015-.127 1.003 4.083c1.473.368 2.892.928 4.219 1.667l3.534-2.321 5.148 4.916-2.236 3.608a17.2 17.2 0 0 1 1.804 4.22l4.135.854.127 7.015-4.083 1.055a17.3 17.3 0 0 1-1.667 4.22l2.321 3.534-4.873 5.043-3.598-2.184a17 17 0 0 1-4.167 1.804l-.854 4.146zm-5.222-5.823a16.9 16.9 0 0 0 4.22 1.656l1.002 4.083 6.952-.117.855-4.135a17.5 17.5 0 0 0 4.219-1.814l3.587 2.173 4.832-4.99-2.311-3.534a16.6 16.6 0 0 0 1.667-4.22l4.083-1.055-.127-6.952-4.061-.802a17 17 0 0 0-1.815-4.22l2.173-3.586-5-4.853-3.523 2.321a17 17 0 0 0-4.22-1.667l-.992-4.082-6.952.126-.854 4.125a16.6 16.6 0 0 0-4.167 1.815l-3.714-2.195-4.831 5 2.31 3.524a16.6 16.6 0 0 0-1.656 4.22l-4.083 1.055.116 6.941 4.135.855c.42 1.48 1.03 2.898 1.815 4.22l-2.173 3.597 5 4.82zm8.598-7.733a7.49 7.49 0 0 1-7.522-7.385 7.4 7.4 0 0 1 2.11-5.359 7.524 7.524 0 0 1 10.12-.645 7.52 7.52 0 0 1 1.566 10.019 7.52 7.52 0 0 1-6.274 3.37m0-14.98a7.45 7.45 0 0 0-5.38 2.279 7.48 7.48 0 0 0 .19 10.549 7.46 7.46 0 0 0 6.741 1.937 7.469 7.469 0 0 0-1.551-14.776z"/><path fill="#EBEBEB" d="M365.622 36.618a5.5 5.5 0 0 1 1.392-1.223 7.47 7.47 0 0 1 4.895-1.16 7.62 7.62 0 0 1 6.013 4.219c.33.665.558 1.377.675 2.11a7 7 0 0 1 0 2.3 7.65 7.65 0 0 1-6.329 6.561 7.57 7.57 0 0 1-4.431-.57 7.67 7.67 0 0 1-3.165-2.584 7.58 7.58 0 0 1-.316-8.207 5.5 5.5 0 0 1 1.266-1.446q-.57.73-1.055 1.52a7.38 7.38 0 0 0 .453 7.922 7.4 7.4 0 0 0 2.996 2.426 6.8 6.8 0 0 0 2.015.56c.728.11 1.467.11 2.195 0a7.27 7.27 0 0 0 5.981-6.203 6.99 6.99 0 0 0-.633-4.178 7.43 7.43 0 0 0-2.532-2.912 7.4 7.4 0 0 0-3.165-1.17 7.46 7.46 0 0 0-4.768.991q-.77.484-1.487 1.044"/><path fill="#EBEBEB" d="m361.856 27.303-.232-.116-.686-.4-2.701-1.615h.085l-4.832 5.064v-.137c.696 1.055 1.488 2.247 2.321 3.523v.127a17.3 17.3 0 0 0-1.646 4.22v.084h-.084l-4.093 1.055.116-.158q.063 3.312.137 6.994l-.137-.169 4.135.855h.106v.105a17.2 17.2 0 0 0 1.783 4.125l.063.095-.063.127-2.11 3.576v-.232l5.032 4.852h-.243l3.524-2.31.105-.074.106.064a17 17 0 0 0 4.219 1.645h.116v.116l1.055 4.104-.211-.158 6.984-.127-.2.169c.274-1.308.559-2.711.854-4.135v-.127h.127a17.2 17.2 0 0 0 4.124-1.793l.116-.074.106.074 3.608 2.183h-.264l4.853-5.021v.264l-2.363-3.534-.074-.106.063-.116a16.7 16.7 0 0 0 1.646-4.22v-.116h.127l4.103-1.055-.158.2c0-2.383-.074-4.715-.116-6.983l.158.19-4.135-.865h-.116v-.106a16.5 16.5 0 0 0-1.783-4.135l-.063-.095.063-.105 2.194-3.598v.222l-5.011-4.874h.201l-3.534 2.31-.085.053-.074-.053a17.5 17.5 0 0 0-4.219-1.666h-.085v-.074l-.991-4.115.126.106-6.994.084.095-.074c-.359 1.646-.644 3.007-.886 4.136a18 18 0 0 0-3.165 1.223l-.749.39-.253.127.232-.158.738-.422a16.3 16.3 0 0 1 3.165-1.297h-.053c.233-1.13.507-2.49.834-4.146v-.074h.074l6.983-.148h.106v.106l1.055 4.093-.106-.106c1.495.37 2.935.934 4.283 1.678h-.158l3.524-2.321.105-.074.095.095 4.948 4.958.105.106-.074.116-2.141 3.618v-.19a17.2 17.2 0 0 1 1.835 4.22l-.137-.137L391.5 38h.147v.159q.064 3.396.127 6.983v.17h-.158l-4.104 1.001.158-.147a17.6 17.6 0 0 1-1.688 4.293v-.221l2.321 3.534.095.137-.127.126-4.852 5.032-.116.117-.148-.085-3.608-2.194h.222a17.9 17.9 0 0 1-4.22 1.835l.148-.168c-.296 1.424-.591 2.837-.855 4.135v.169h-.169l-6.983.126h-.169v-.158c-.348-1.424-.686-2.827-1.002-4.104l.147.148a17.2 17.2 0 0 1-4.283-1.688h.211l-3.534 2.31-.137.085-.116-.106-5.021-4.863-.106-.105.074-.127c.77-1.255 1.519-2.49 2.194-3.608v.296a17 17 0 0 1-1.93-4.22l.137.126-4.136-.865h-.137v-.21c0-2.448-.073-4.79-.105-6.984v-.127h.116l4.104-.992-.106.106a17.6 17.6 0 0 1 1.699-4.22v.127l-2.3-3.545v-.074l.063-.063 4.884-5.074 2.669 1.656.676.433z"/><path fill="#E0E0E0" d="m42.2 188.983-1.055-4.083a17.3 17.3 0 0 1-4.22-1.666l-3.534 2.32-5.043-4.873 2.184-3.598a16.8 16.8 0 0 1-1.804-4.156l-4.146-.855-.074-7.057 4.083-1.002c.37-1.472.926-2.89 1.656-4.22l-2.31-3.534 4.874-5.043 3.67 2.194a17.6 17.6 0 0 1 4.157-1.803l.865-4.146 7.005-.116 1.055 4.082c1.472.369 2.89.926 4.22 1.656l3.534-2.31 5.042 4.874-2.173 3.597a17.5 17.5 0 0 1 1.804 4.157l4.136.865.126 7.015-4.082 1.055a17.3 17.3 0 0 1-1.667 4.22l2.32 3.534-4.958 4.969-3.618-2.11a17.2 17.2 0 0 1-4.157 1.804l-.854 4.135zm-5.275-5.823a16.9 16.9 0 0 0 4.22 1.666l1.055 4.083 6.952-.116.854-4.135a17 17 0 0 0 4.167-1.804l3.587 2.173 4.832-5-2.31-3.524a16.5 16.5 0 0 0 1.666-4.22l4.083-.991-.01-6.995-4.126-.854a17 17 0 0 0-1.804-4.22l2.173-3.597-5-4.821-3.523 2.31a16.5 16.5 0 0 0-4.22-1.667l-.992-4.082-6.952.116-.875 4.114c-1.48.416-2.9 1.026-4.22 1.814l-3.597-2.173-4.843 5.001 2.29 3.502a16.5 16.5 0 0 0-1.667 4.22l-4.104 1.055.116 6.952 4.135.854a17.5 17.5 0 0 0 1.815 4.167l-2.173 3.587 5 4.832zm8.598-7.733A7.514 7.514 0 0 1 38 168.042a7.38 7.38 0 0 1 2.11-5.359 7.521 7.521 0 1 1 5.412 12.744m0-14.991h-.138a7.637 7.637 0 1 0 .138 0"/><path fill="#EBEBEB" d="M40.185 162.704a5.6 5.6 0 0 1 1.392-1.234 7.48 7.48 0 0 1 4.895-1.15 7.6 7.6 0 0 1 3.323 1.182 7.8 7.8 0 0 1 2.69 3.027c.33.666.558 1.377.675 2.11a7 7 0 0 1 0 2.311 7.65 7.65 0 0 1-6.33 6.561c-1.5.246-3.04.048-4.43-.569a7.6 7.6 0 0 1-3.165-2.585 7.58 7.58 0 0 1-.316-8.207c.31-.542.71-1.027 1.181-1.435q-.574.727-1.055 1.519a7.4 7.4 0 0 0-.552 5.929 7.38 7.38 0 0 0 4.002 4.409 6.8 6.8 0 0 0 2.015.57c.73.098 1.47.081 2.194-.053a7.25 7.25 0 0 0 5.982-6.192 7.057 7.057 0 0 0-.633-4.188 7.38 7.38 0 0 0-5.697-4.083 7.53 7.53 0 0 0-4.768 1.002q-.733.498-1.403 1.076"/><path fill="#EBEBEB" d="M36.482 153.41a1 1 0 0 1-.233-.126l-.685-.39-2.754-1.593h.085l-4.853 5v-.127c.696 1.055 1.487 2.247 2.32 3.513v.137a17.3 17.3 0 0 0-1.645 4.22v.085h-.084l-4.093 1.055.116-.148q.063 3.301.137 6.984l-.137-.159 4.135.855h.105v.105a16.9 16.9 0 0 0 1.804 4.125l.064.095-.064.106-2.183 3.607v-.232l5.032 4.842h-.243l3.524-2.32.105-.064.106.064a17 17 0 0 0 4.22 1.635h.115v.126l1.055 4.104-.21-.158 6.983-.127-.2.169c.274-1.308.559-2.722.854-4.135v-.127h.127a17.5 17.5 0 0 0 4.124-1.783l.116-.063.106.063 3.608 2.195h-.264l4.853-5.022v.264l-2.3-3.566-.074-.105.064-.116a16.7 16.7 0 0 0 1.645-4.22v-.116h.127l4.104-1.002-.159.2c0-2.384-.073-4.716-.116-6.994l.159.19-4.136-.865h-.116v-.116a17 17 0 0 0-1.783-4.136l-.063-.095.063-.095 2.195-3.629v.222l-5.011-4.863h.2l-3.534 2.31h-.158a17 17 0 0 0-4.22-1.667h-.084v-.084l-.992-4.104.127.095-6.995.095.095-.074c-.358 1.646-.643 2.996-.886 4.125a17.4 17.4 0 0 0-3.165 1.234l-.749.39a1 1 0 0 1-.285.211l.233-.158.738-.422a16.3 16.3 0 0 1 3.165-1.297l-.053.052c.232-1.139.506-2.489.834-4.145v-.074h.073l6.984-.159h.105v.095l1.055 4.104-.105-.105c1.496.365 2.937.929 4.283 1.677h-.158l3.523-2.321.106-.074.095.095 5.053 4.842.105.095-.073.127-2.184 3.608v-.19a17.3 17.3 0 0 1 1.835 4.22l-.137-.138 4.136.855h.147v.158q.063 3.397.127 6.984v.169h-.158l-4.104 1.055.158-.148a17.7 17.7 0 0 1-1.688 4.294v-.222c.77 1.16 1.54 2.342 2.321 3.534l.095.137-.127.127-4.852 5.021-.116.127-.148-.085-3.608-2.194h.274a17 17 0 0 1-4.22 1.836l.148-.158c-.295 1.424-.59 2.827-.854 4.135v.169h-.169l-6.984.126h-.168v-.169c-.349-1.413-.686-2.816-1.055-4.103l.147.158a17.3 17.3 0 0 1-4.283-1.698h.211l-3.534 2.31-.137.084-.116-.105-5.116-4.8-.106-.106.074-.137 2.194-3.608v.201a17 17 0 0 1-1.825-4.22l.137.127-4.135-.876h-.137v-.137c0-2.448-.074-4.79-.106-6.984v-.126h.116l4.104-.992-.105.105a17.4 17.4 0 0 1 1.656-4.346v.137l-2.3-3.544v-.138l4.884-5 2.67 1.656.675.433q.208.04.4.126"/><path fill="#E0E0E0" d="M354.292 391.657a33.9 33.9 0 0 0-14.463-4.979c-2.363-.243-4.948-.169-6.847 1.255a1.406 1.406 0 0 0-.696 1.256c.111.356.347.659.664.854a20.7 20.7 0 0 0 21.342 1.614M353.922 391.246a70.7 70.7 0 0 1-9.346-8.218 23.66 23.66 0 0 1-5.855-10.834 4.34 4.34 0 0 1 .464-3.619c7.448 5.813 13.303 13.335 14.769 22.671"/><path fill="#E0E0E0" d="M354.218 391.605a34 34 0 0 1 .169-12.269 16.58 16.58 0 0 1 6.54-10.128c1.287 3.017.728 6.478-.179 9.621a46.7 46.7 0 0 1-6.477 13.641M361.518 404.686c-4.431.538-8.292 2.869-11.604 5.865a22.04 22.04 0 0 0-6.636 11.394c4.347-.264 8.039-3.334 10.708-6.773s4.536-7.205 7.469-10.423M363.1 406.775a28.61 28.61 0 0 1 3.302-27.06c2.532 8.978 1.604 19.126-3.302 27.06M372.753 418.263a20.735 20.735 0 0 0-19.791 11.383c-.242.495-.453 1.118-.126 1.55a1.46 1.46 0 0 0 1.308.391c3.903-.253 7.384-2.595 10.212-5.275s5.327-5.749 8.439-8.06M372.437 417.64a36.9 36.9 0 0 1-.359-20.581c.718-2.648 1.941-5.444 4.389-6.689a.86.86 0 0 1 .675-.116c.195.11.345.286.422.496a12.4 12.4 0 0 1 1.055 5.908 36 36 0 0 1-.929 5.971c-.77 3.65-1.181 7.585-3.164 10.728q-.706 1.144-1.266 2.364c-.38.801-.391 1.054-.739 1.719M397.977 421.438c-1.889-7.194.116-15.919 4.652-21.816.327-.432.77-.897 1.319-.854.833.084 1.055 1.192 1.055 2.036a39.36 39.36 0 0 1-6.984 20.634M400.276 423.01a31.74 31.74 0 0 0 26.047-5.275 21.1 21.1 0 0 0-14.105-1.73c-4.705 1.055-9.009 3.165-11.942 7.026M402.218 418.2c4.894-7.986 14.283-13.187 23.641-13.662-1.055 3.798-4.22 6.752-7.733 8.545a42.8 42.8 0 0 1-11.362 3.334c-1.508.295-3.576.622-4.557 1.804M398.462 394.991a68.7 68.7 0 0 0 3.027-13.862 23.1 23.1 0 0 0-2.763-13.714c-4.568 8.851-5.032 19.189-.401 28.009M413.864 387.195c5.349-9.726 16.257-17.491 27.302-18.577-4.22 10.602-15.877 18.799-27.302 18.577M410.499 389.094c7.975 1.213 14.769 6.33 22.228 9.399a9.9 9.9 0 0 0 5.021.96 3.92 3.92 0 0 0 3.661-2.616 3.92 3.92 0 0 0-1.203-4.336 10.7 10.7 0 0 0-3.65-2.215c-8.113-3.386-16.826-3.471-25.371-1.414"/><path fill="#E0E0E0" d="M405.878 394.685c1.804.517 2.426 1.456 3.85 2.68a41.6 41.6 0 0 0 16.879 8.65c.644.158 1.488.232 1.804-.359.317-.59-.073-1.118-.432-1.571a23.2 23.2 0 0 0-10.18-6.91c-3.882-1.446-7.258-3.165-11.9-2.817M400.667 360.895a31.892 31.892 0 0 0 24.464 8.324 1.64 1.64 0 0 0 1.055-.401c.612-.665-.127-1.698-.844-2.258-7.184-5.612-15.898-7.933-24.728-5.665"/><path fill="#E0E0E0" d="M406.849 358.638a34.09 34.09 0 0 1 30.508-5.032 24.2 24.2 0 0 1-14.537 6.382 45.8 45.8 0 0 1-15.971-1.35M404.39 343.109c-.706-7.173-.242-12.838-.749-20.044 0-.58-.158-1.276-.696-1.476-.749-.296-1.382.632-1.624 1.392a22.96 22.96 0 0 0 3.059 19.97"/><path fill="#E0E0E0" d="M403.874 343.911a42.3 42.3 0 0 0 11.889-11.604c2.353-3.165 4.325-7.058 3.798-11.003a11.36 11.36 0 0 0-8.577 4.219 24.1 24.1 0 0 0-4.378 8.788c-.949 3.165-1.614 6.404-2.732 9.494M415.552 340.662a96 96 0 0 0 29.264-17.248c-3.502-1.414-7.501-.57-10.993.843a34.62 34.62 0 0 0-18.419 16.331M407.154 347.835a59.4 59.4 0 0 0 16.246.074c5.275-.875 10.244-2.964 15.17-5.032a1.8 1.8 0 0 0 1.055-.791 1.22 1.22 0 0 0-.369-1.298 3.2 3.2 0 0 0-1.298-.601c-5.348-1.498-11.129-.802-16.393.981a75.8 75.8 0 0 0-14.39 6.667M376.319 361.149c-3.682-7.438-3.44-16.12-.264-23.789 2.247 3.418 2.521 7.764 2.11 11.826-.412 4.061-1.646 8.249-1.73 12.332M361.603 353.722a33.19 33.19 0 0 0-24.654 10.496c4.65.56 9.361-.312 13.503-2.5a67.6 67.6 0 0 0 11.604-7.743M351.707 350.409c-4.505-.358-8.83-.917-13.155.412a15.75 15.75 0 0 0-5.947 3.153 15.75 15.75 0 0 0-4.085 5.35 23.7 23.7 0 0 0 12.332-2.311 70.4 70.4 0 0 0 10.855-6.582M366.361 350.568c-4.051-2.659-8.208-5.359-12.923-6.457-4.716-1.097-10.181-.284-13.461 3.26 3.808 2.247 8.439 2.511 12.87 2.511s9.842-.063 14.02 1.414"/><path fill="#E0E0E0" d="M366.381 350.779c-6.92-6.794-9.547-18.989-6.762-28.304a43.1 43.1 0 0 1 6.762 28.304M385.413 331.515c1.308-2.985 2.226-6.213 3.418-9.315a26.6 26.6 0 0 1 4.842-8.576 12.76 12.76 0 0 1 8.566-4.452 34.48 34.48 0 0 1-16.637 22.386M381.974 335.535c-2.163-2.975-4.663-7.016-7.585-9.231-2.923-2.215-6.752-3.566-10.318-2.711a24.03 24.03 0 0 0 17.934 11.942M382.659 331.769a52 52 0 0 1-3.418-11.056 17.3 17.3 0 0 1 1.73-11.246c3.809 7.184 5.032 14.885 1.878 22.386M385.455 309.467c2.109-7.121 8.671-12.364 15.708-14.769a5.76 5.76 0 0 1 2.753-.411 2.37 2.37 0 0 1 2.025 1.688c.264 1.213-.738 2.299-1.677 3.101a53.5 53.5 0 0 1-18.809 10.391M385.529 303.644c.274-4.589.559-9.252 2.046-13.598 1.488-4.346 4.378-8.44 8.566-10.339.707 4.642-1.339 9.252-3.808 13.24s-5.433 7.764-6.92 12.206M385.412 306.798c-1.772-5.179-1.962-11.773-5.064-16.299-2.173-3.164-5.654-5.274-7.521-8.65a13.15 13.15 0 0 0 .432 9.821 28.3 28.3 0 0 0 5.749 8.229c2.3 2.458 4.273 4.304 6.404 6.899"/><path fill="#E0E0E0" d="M385.455 459.606c-.148 0-.264-34.613-.275-77.306-.01-42.693.095-77.306.233-77.306.137 0 .263 34.602.274 77.306.01 42.704-.095 77.306-.232 77.306"/><path fill="#E0E0E0" d="M415.7 355.958a8 8 0 0 1-1.309.486l-3.576 1.202c-3.017 1.055-7.173 2.522-11.667 4.368s-8.672 3.439-11.056 5.549a8 8 0 0 0-2.226 2.943c-.348.812-.401 1.308-.454 1.298a1.2 1.2 0 0 1 0-.359q.066-.542.254-1.055a7.8 7.8 0 0 1 2.162-3.165 19.4 19.4 0 0 1 4.8-2.975c1.92-.897 4.051-1.835 6.33-2.764 4.515-1.846 8.692-3.291 11.752-4.22a66 66 0 0 1 3.629-1.054 6.5 6.5 0 0 1 1.361-.254"/><path fill="#E0E0E0" d="M425.616 331.568a2.4 2.4 0 0 1-.37.391l-1.055 1.054-4.145 3.767-13.799 12.29c-5.391 4.789-10.043 9.378-13.271 12.828a170 170 0 0 0-3.756 4.146l-1.002 1.139a2 2 0 0 1-.38.38q.13-.234.296-.443c.211-.275.517-.686.939-1.203.823-1.055 2.057-2.5 3.639-4.22a174 174 0 0 1 13.197-12.965 1661 1661 0 0 1 13.905-12.174l4.219-3.65 1.171-.971q.184-.21.412-.369"/><path fill="#E0E0E0" d="M400.372 353.933c-.137-.064.991-2.659 2.11-5.95s1.666-6.055 1.804-6.034a20.2 20.2 0 0 1-1.33 6.192 43 43 0 0 1-1.677 4.22 6.5 6.5 0 0 1-.907 1.572M385.486 374.884a6 6 0 0 1-.875-.992l-2.11-2.732c-1.783-2.31-4.22-5.496-7.026-8.988s-5.275-6.615-7.152-8.883a224 224 0 0 1-2.174-2.69 5.7 5.7 0 0 1-.749-1.055q.49.407.897.897c.549.601 1.34 1.487 2.3 2.595a249 249 0 0 1 7.279 8.798c2.774 3.524 5.19 6.72 6.91 9.083.854 1.182 1.54 2.11 2.004 2.828q.398.539.696 1.139"/><path fill="#E0E0E0" d="M378.85 366.371a12.2 12.2 0 0 1-2.785-5.201 15 15 0 0 1-.622-5.275h.222a1.9 1.9 0 0 1-.211.612v-.644h.221c.107 1.726.404 3.435.886 5.096a40 40 0 0 0 2.289 5.412M370.285 355.6a8.5 8.5 0 0 0-1.941-1.129 12.9 12.9 0 0 0-5.38-.433 33 33 0 0 0-5.423.876c-.73.237-1.478.417-2.236.538a8 8 0 0 1 2.11-.876 24.4 24.4 0 0 1 5.475-1.055 11.7 11.7 0 0 1 5.559.602 3.4 3.4 0 0 1 1.836 1.477M368.259 352.983c0 .085-1.129-.453-2.975-1.054a29.8 29.8 0 0 0-14.98-1.14c-1.909.338-3.07.696-3.101.612q.372-.223.791-.338a18 18 0 0 1 2.247-.622 26.44 26.44 0 0 1 15.159 1.15q1.087.415 2.11.97c.27.101.523.243.749.422M385.413 341.949a64 64 0 0 1-2.163-7.533 63 63 0 0 1-1.688-7.648 61 61 0 0 1 2.173 7.532 62 62 0 0 1 1.678 7.649"/><path fill="#E0E0E0" d="M385.55 341.949a36 36 0 0 0-2.395-4.505 20 20 0 0 0-3.545-3.65c.509.119.98.362 1.372.707a10.8 10.8 0 0 1 2.574 2.648 9.9 9.9 0 0 1 1.994 4.8M385.455 441.155c-.064 0-.159-.833-.549-2.3a34 34 0 0 0-2.31-5.992 83.2 83.2 0 0 0-12.28-17.29c-2.743-3.165-5.401-6.087-7.648-8.914a61 61 0 0 1-5.475-7.891 38 38 0 0 1-2.764-5.855c-.253-.728-.443-1.287-.549-1.678a2.5 2.5 0 0 1-.137-.601s.296.791.865 2.205a42.5 42.5 0 0 0 2.891 5.749 66 66 0 0 0 5.528 7.786c2.257 2.795 4.926 5.728 7.669 8.872 5.538 6.224 9.885 12.49 12.216 17.459a30.5 30.5 0 0 1 2.184 6.098c.158.759.264 1.339.306 1.74q.044.304.053.612M412.788 410.288s-.517.295-1.435.801a30.5 30.5 0 0 0-3.713 2.458 42 42 0 0 0-4.884 4.442c-1.709 1.814-3.482 3.913-5.275 6.171-3.608 4.515-6.973 8.513-8.988 11.699a41 41 0 0 0-2.258 3.851q-.341.75-.78 1.445s0-.148.126-.401c.127-.253.253-.654.485-1.129a38 38 0 0 1 2.11-3.956 126 126 0 0 1 8.893-11.825c1.804-2.258 3.587-4.357 5.328-6.172a40 40 0 0 1 5-4.409 26.6 26.6 0 0 1 3.84-2.353c.475-.232.865-.38 1.118-.496s.422-.148.433-.126"/><path fill="#E0E0E0" d="M413.315 420.309a21 21 0 0 1-3.027.444 38.6 38.6 0 0 0-7.174 1.413 21.4 21.4 0 0 0-6.435 3.376c-1.477 1.139-2.184 2.11-2.247 2.036s.116-.274.443-.696a11 11 0 0 1 1.583-1.614 19.3 19.3 0 0 1 6.498-3.577 32.6 32.6 0 0 1 7.3-1.297 16.6 16.6 0 0 1 3.059-.085"/><path fill="#E0E0E0" d="M395.318 426.46c-.158-.085 1.203-2.173 2.258-4.969s1.224-5.275 1.403-5.275c.09.538.09 1.087 0 1.625a18 18 0 0 1-.886 3.829 18.2 18.2 0 0 1-1.762 3.503 4.9 4.9 0 0 1-1.013 1.287M421.639 383.387a3 3 0 0 1-.485.253l-1.424.643c-.623.275-1.382.612-2.237 1.055-.854.443-1.846.897-2.89 1.53l-1.657.939c-.569.327-1.139.717-1.74 1.055-1.213.738-2.437 1.646-3.735 2.574a64.1 64.1 0 0 0-14.421 14.959c-.886 1.329-1.751 2.584-2.458 3.819-.348.622-.728 1.202-1.055 1.783l-.886 1.688c-.58 1.054-1.002 2.109-1.413 2.943a28 28 0 0 0-.982 2.257l-.59 1.425q-.09.259-.232.495.03-.273.137-.527l.517-1.477c.221-.644.506-1.424.907-2.31s.781-1.91 1.361-2.996l.854-1.699c.306-.601.665-1.181 1.055-1.814.686-1.256 1.54-2.522 2.427-3.872a61.8 61.8 0 0 1 14.505-15.012c1.319-.928 2.553-1.835 3.787-2.563.612-.369 1.192-.749 1.772-1.055l1.678-.918c1.055-.612 2.11-1.055 2.943-1.456q1.113-.555 2.279-.991l1.456-.559q.252-.12.527-.169"/><path fill="#E0E0E0" d="M400.002 397.892a3.48 3.48 0 0 1 1.193-1.772 7.48 7.48 0 0 1 4.789-1.846 13.1 13.1 0 0 1 5.043.991 6.9 6.9 0 0 1 1.909.929 13 13 0 0 1-2.026-.602 15.4 15.4 0 0 0-4.905-.812 7.74 7.74 0 0 0-4.578 1.604q-.767.701-1.425 1.508M396.774 401.226a18.4 18.4 0 0 0 1.361-4.431 18.6 18.6 0 0 0-.306-4.621c.288.377.48.819.559 1.287a9.3 9.3 0 0 1 .243 3.397 9.1 9.1 0 0 1-1.055 3.239c-.38.77-.76 1.16-.802 1.129"/><path fill="#0E53BE" d="M361.539 446.113c.749 13.229 4.737 26.68 10.866 40.288h26.669c5.844-13.471 9.557-26.901 10.212-40.288z"/><path fill="#FAFAFA" d="M404.96 467.518c0 .137-8.777.253-19.601.253s-19.611-.116-19.611-.253 8.777-.243 19.611-.243 19.601.106 19.601.243M404.37 472.318c0 .137-8.229.243-18.377.243s-18.388-.106-18.388-.243 8.228-.253 18.388-.253c10.159 0 18.377.105 18.377.253M372.837 454.806a74.5 74.5 0 0 1 0 12.279 74.7 74.7 0 0 1 0-12.279"/><path fill="#FAFAFA" d="M387.121 454.806a80 80 0 0 1 0 12.712 80 80 0 0 1 0-12.712M400.53 454.69a83.4 83.4 0 0 1 0 12.976 87 87 0 0 1 0-12.976"/><path fill="#FAFAFA" d="M408.442 454.806c0 .137-10.297.243-22.998.243s-22.998-.106-22.998-.243 10.296-.253 22.998-.253c12.701 0 22.998.105 22.998.253"/><path fill="#E0E0E0" d="M189.447 132.66a76.5 76.5 0 0 1 16.816-11.604l.179-18.989 30.657-6.646 8.017 17.195a76.7 76.7 0 0 1 20.128 3.64l13.535-13.282 26.373 16.984-6.487 17.818a76.5 76.5 0 0 1 11.604 16.816l18.989.179 6.646 30.657-17.185 8.017a76.7 76.7 0 0 1-3.671 20.097l13.271 13.535-16.974 26.373-17.818-6.488a77 77 0 0 1-16.816 11.605l-.179 18.988-30.667 6.668-8.007-17.185a77 77 0 0 1-20.128-3.64l-13.514 13.282-26.373-16.985 6.488-17.807a77 77 0 0 1-11.605-16.816l-18.989-.179-6.646-30.667 17.196-8.018a76.6 76.6 0 0 1 3.587-20.138l-13.24-13.514 16.985-26.374zm17.122 34.665a41.55 41.55 0 0 0 .788 46.166 41.55 41.55 0 0 0 42.954 16.938 41.555 41.555 0 0 0 13.688-75.552 41.56 41.56 0 0 0-31.323-5.696 41.56 41.56 0 0 0-26.16 18.144z"/><path fill="#263238" d="m206.516 167.325.369-.559c.274-.38.644-.928 1.139-1.625l.834-1.192c.337-.432.738-.854 1.15-1.34l1.35-1.55q.797-.862 1.677-1.635a39.3 39.3 0 0 1 9.843-6.9 41.5 41.5 0 0 1 15.307-4.283l2.247-.158h2.3c.78 0 1.561 0 2.352.106l2.384.284 1.214.159 1.202.263 2.437.549c.823.211 1.614.517 2.437.77q1.246.368 2.437.886a38 38 0 0 1 4.779 2.332c.77.453 1.582.875 2.342 1.382l2.257 1.603c.37.285.77.527 1.129.833l1.055.929c.696.633 1.435 1.234 2.11 1.909a43 43 0 0 1 3.808 4.378 45 45 0 0 1 3.302 4.969c.475.876.886 1.804 1.351 2.711.211.464.464.907.643 1.393l.538 1.434a46.4 46.4 0 0 1 1.815 5.961c.415 2.089.69 4.203.822 6.329l.116 1.604v3.228q-.002.816-.116 1.625c-.137 1.055-.274 2.109-.4 3.249l-.728 3.217a41.4 41.4 0 0 1-14.284 22.154l-2.638 1.994-2.858 1.751-.697.422-.738.359-1.456.707-1.456.706-1.498.559a47 47 0 0 1-6.076 1.847 48 48 0 0 1-6.172.822l-1.54.106h-1.529c-1.055 0-2.026 0-3.028-.106a44.5 44.5 0 0 1-5.876-.938 45 45 0 0 1-5.57-1.657c-.897-.348-1.751-.77-2.616-1.15l-1.287-.569c-.422-.201-.813-.464-1.224-.686l-2.384-1.361c-.781-.485-1.488-1.055-2.226-1.572a38 38 0 0 1-4.104-3.376 21 21 0 0 1-1.814-1.856c-.57-.644-1.182-1.234-1.709-1.899l-1.509-1.994-.738-.981-.644-1.055c-.422-.686-.833-1.371-1.255-2.047-.422-.675-.707-1.413-1.055-2.109a35 35 0 0 1-.992-2.11c-.306-.728-.517-1.414-.781-2.11a41.5 41.5 0 0 1-2.436-15.708 39.5 39.5 0 0 1 2.204-11.815c.285-.771.465-1.541.792-2.205l.854-1.868c.274-.58.496-1.118.749-1.592.253-.475.517-.887.739-1.266l1.054-1.699c.233-.38.359-.569.359-.569s-.095.21-.306.601c-.211.39-.548.981-.96 1.73l-.717 1.266c-.243.475-.454 1.055-.718 1.603l-.822 1.868a23 23 0 0 0-.77 2.204 39.8 39.8 0 0 0-2.11 11.752 41.2 41.2 0 0 0 2.5 15.561l.781 2.11c.305.685.654 1.36.991 2.109.338.749.633 1.414 1.055 2.11.422.697.823 1.351 1.245 2.026l.633 1.055.738.97c.496.654 1.055 1.308 1.498 1.973s1.129 1.234 1.699 1.867q.841.968 1.793 1.825a38 38 0 0 0 4.072 3.334c.728.517 1.435 1.055 2.205 1.551l2.374 1.361c.401.221.791.474 1.213.675l1.287.39c.854.369 1.698.791 2.574 1.129 1.799.657 3.639 1.2 5.507 1.624a42 42 0 0 0 5.812.918c.992.085 1.994.064 2.996.106h1.509l1.519-.106a46.5 46.5 0 0 0 6.087-.812 46 46 0 0 0 5.992-1.836l1.488-.559 1.434-.686 1.446-.706.717-.348.686-.412 2.753-1.698 2.595-1.963a40.8 40.8 0 0 0 14.105-21.9c.242-1.055.474-2.11.717-3.165s.264-2.11.39-3.165q.122-.791.116-1.593v-3.196l-.116-1.582a47 47 0 0 0-.812-6.214 46 46 0 0 0-1.783-5.876l-.527-1.424c-.169-.475-.422-.918-.633-1.372-.454-.896-.855-1.814-1.329-2.679a43 43 0 0 0-3.25-4.906 44 44 0 0 0-3.755-4.346c-.675-.665-1.403-1.255-2.11-1.878l-1.055-.928c-.359-.295-.749-.549-1.118-.823-.739-.538-1.488-1.055-2.216-1.603-.728-.549-1.561-.908-2.321-1.361a36 36 0 0 0-4.726-2.321 21 21 0 0 0-2.405-.886c-.812-.253-1.593-.559-2.405-.77l-2.405-.538-1.192-.275-1.203-.158-2.363-.295c-.77-.116-1.561-.074-2.321-.116s-1.53-.053-2.279 0l-2.226.147a41.4 41.4 0 0 0-15.201 4.167 39.4 39.4 0 0 0-9.832 6.784q-.885.758-1.688 1.603l-1.361 1.53c-.422.474-.833.896-1.16 1.318l-.865 1.171-1.171 1.593a6 6 0 0 1-.359.475"/><path fill="#263238" d="m189.447 132.66-1.139-.401-3.397-1.213-13.398-4.79h.106l-16.943 26.374v-.169l13.293 13.514.063.063v.095a77.2 77.2 0 0 0-3.608 20.044v.116h-.095l-17.185 8.028.106-.222c2.109 9.653 4.325 19.907 6.667 30.667l-.211-.179 18.989.169h.137l.063.126a76.9 76.9 0 0 0 11.604 16.763l.095.106v.137l-6.477 17.807-.095-.284 26.374 16.973h-.317l13.524-13.281.116-.116h.148a77 77 0 0 0 20.044 3.629h.158l.063.147c2.511 5.391 5.275 11.257 8.018 17.196l-.295-.158 30.656-6.646-.211.263c0-5.981.116-12.448.179-18.989v-.158l.148-.074a77.1 77.1 0 0 0 16.742-11.604l.127-.105h.158l17.807 6.487-.316.106 16.984-26.374v.338l-13.271-13.535-.116-.116v-.158a76.3 76.3 0 0 0 3.639-20.044v-.158l.148-.074 17.196-8.007-.148.295q-3.397-15.708-6.636-30.667l.243.201-18.989-.19h-.158l-.063-.137a76.5 76.5 0 0 0-11.605-16.763l-.095-.106v-.137l6.488-17.807.095.264-26.373-16.995h.263l-13.545 13.271-.084.084h-.116a76.6 76.6 0 0 0-20.044-3.65h-.106v-.095l-7.933-17.048.18.085-30.678 6.604.095-.116c-.084 7.595-.148 13.809-.211 18.988v.053a78 78 0 0 0-12.976 8.313c-1.329 1.055-2.289 1.888-2.932 2.437-.644.549-.95.823-.95.823s1.182-1.182 3.83-3.323a75.8 75.8 0 0 1 12.944-8.44v.085c0-5.159.095-11.373.147-18.989v-.095h.095l30.657-6.688h.126v.116c2.49 5.274 5.117 10.929 8.039 17.174l-.158-.095a77 77 0 0 1 20.181 3.629h-.201l13.472-13.261.116-.116.147.085 26.374 16.974.158.095-.063.179c-2.11 5.781-4.22 11.699-6.478 17.807l-.052-.242a77.3 77.3 0 0 1 11.699 16.879l-.222-.137 18.989.179h.201v.2q3.25 14.949 6.656 30.657v.211l-.189.084-17.185 8.018.147-.232a77 77 0 0 1-3.65 20.202l-.063-.275 13.282 13.535.147.148-.116.19-16.984 26.373-.116.18-.201-.074-17.818-6.488.285-.053a77.2 77.2 0 0 1-16.879 11.678l.148-.242c-.063 6.509-.127 12.975-.179 18.989v.21l-.222.053-30.656 6.636-.211.053-.095-.201-8.007-17.185.221.148a77 77 0 0 1-20.191-3.661l.263-.063-13.461 13.271-.147.137-.169-.105-26.373-16.995-.169-.106.063-.19c2.268-6.192 4.484-12.29 6.498-17.807v.243a77.3 77.3 0 0 1-11.667-16.879l.2.116-18.989-.19h-.168v-.169c-2.321-10.76-4.537-21.014-6.625-30.667v-.148l.137-.074 17.195-7.996-.095.158a77.2 77.2 0 0 1 3.65-20.096v.158l-13.26-13.545-.085-.074.064-.095 17.026-26.374v-.063h.064l13.239 4.874 3.397 1.255z"/><path fill="#455A64" d="m330.197 292.303-61.081 39.033h200.237v-39.033z"/><path fill="#455A64" d="M443.138 268.198v87.233l56.861-43.622z"/><path fill="#fff" d="M368.786 310.069h1.646v5.802h3.629v1.34h-5.275zM379.694 315.67h-3.312l-.633 1.519h-1.688l3.165-7.12h1.635l3.165 7.12h-1.73zm-.527-1.255-1.129-2.764-1.129 2.722zM382.574 314.056v-3.987h1.646v3.924c0 1.361.591 1.92 1.593 1.92s1.582-.559 1.582-1.92v-3.924h1.635v3.987a3.23 3.23 0 0 1-3.228 3.228 3.227 3.227 0 0 1-3.228-3.228M397.185 310.069v7.12h-1.35l-3.555-4.325v4.325h-1.625v-7.12h1.34l3.534 4.325v-4.325zM398.419 313.634a3.928 3.928 0 0 1 4.85-3.569c.746.182 1.422.58 1.944 1.143l-1.055.981a2.3 2.3 0 0 0-.802-.62 2.3 2.3 0 0 0-.991-.213 2.28 2.28 0 0 0 0 4.557 2.28 2.28 0 0 0 1.793-.844l1.055.97a3.912 3.912 0 0 1-6.013-.287 3.9 3.9 0 0 1-.781-2.118M412.851 310.069v7.12h-1.645v-2.911h-3.239v2.911h-1.646v-7.12h1.646v2.806h3.239v-2.806z"/><path fill="#8A8A8A" d="M83.69 194.88c6.266 79.468 72.938 142.205 154.021 142.205v-39.032a115.57 115.57 0 0 1-115.474-115.431s1.741-20.15 2.954-26.216l-38.431-7.215c-1.403 6.888-3.63 38.684-3.07 45.689"/><path fill="#263238" d="m133.272 261.953-.665 2.31v.063l.907 1.119 1.54-1.256 1.055 1.266-5.506 4.515-1.952-2.384c-1.203-1.477-1.192-3.017 0-4.03a2.325 2.325 0 0 1 2.669-.295l.759-2.68zm-3.492 4.853.854 1.055 1.92-1.572-.854-1.055c-.633-.781-1.319-.876-1.92-.391-.602.486-.633 1.182 0 1.963M127.205 256.056l1.055-.791 3.271 4.43-5.718 4.22-3.165-4.325 1.055-.791 2.215 3.017 1.245-.918-1.962-2.658 1.055-.76 1.962 2.658 1.319-.981zM117.859 252.575l7.628-1.404.907 1.351-4.22 6.509-.992-1.477 3.018-4.631-5.444 1.002zM117.479 251.952l-.875-1.403 6.044-3.766.876 1.392zM117.87 241.287l1.15-.665 2.763 4.768-6.181 3.577-2.701-4.653 1.15-.664 1.878 3.238 1.339-.78-1.666-2.859 1.118-.644 1.656 2.859 1.424-.823zM107.162 233.322l7.385-1.15.812 1.572-3.587 3.587 5.032-.749.791 1.561-5.274 5.275-.77-1.519 3.724-3.703-5.222.77-.686-1.351 3.745-3.745-5.275.813z"/><path fill="#455A64" d="m149.159 146.743-76.725-21.046 24.822 59.889z"/><path fill="#455A64" d="M129.601 145.256a115.64 115.64 0 0 1 108.373-75.755V30.468c-66.788 0-123.807 42.598-145.317 102.055z"/><path fill="#fff" d="m134.981 92.055 2.669-1.825c1.93-1.318 4.04-1.055 5.275.728 1.234 1.783.685 3.84-1.235 5.148l-2.669 1.825zm5.855 2.986a2.216 2.216 0 1 0-2.49-3.65l-1.245.854 2.49 3.64zM149.739 88.996l.749 1.055-4.557 3.101-3.956-5.833 4.441-3.039.749 1.055-3.091 2.11.865 1.277 2.68-1.773.717 1.055-2.721 1.868.928 1.36zM154.107 82.118c.897 1.319.475 2.806-1.055 3.871l-1.182.813 1.055 1.624-1.35.929-4.019-5.887 2.542-1.74c1.572-1.108 3.112-.929 4.009.39m-1.372.95c-.443-.655-1.118-.74-1.951-.18l-1.055.76 1.392 2.046 1.055-.76c.834-.57.992-1.234.559-1.867M153.579 79.333l1.361-.929 3.26 4.769 2.943-2.015.76 1.055-4.315 2.943zM160.225 79.132a3.91 3.91 0 0 1-.269-4.38 3.9 3.9 0 0 1 3.973-1.863 3.9 3.9 0 0 1 3.194 3.01 3.9 3.9 0 0 1-1.623 4.077 3.69 3.69 0 0 1-5.275-.844m5.064-3.46a2.223 2.223 0 0 0-3.412-.217 2.227 2.227 0 0 0 2.853 3.382 2.174 2.174 0 0 0 .559-3.165M170.848 73.14l1.414 2.11-1.361.928-1.424-2.11-4.863-2.225 1.445-.981 3.344 1.519-.211-3.692 1.34-.908z"/><path fill="#E0E0E0" d="m260.001 98.121-50.827-55.605 64.858-36.733z"/><path fill="#E0E0E0" d="M330.133 106.677a115.46 115.46 0 0 0-86.947-39.497V28.147A154.54 154.54 0 0 1 359.524 80.98z"/><path fill="#263238" d="m286.206 54.246-2.11-.812.474-1.255 5.803 2.215-.486 1.255-2.11-.812-2.109 5.39-1.53-.59zM294.245 62.074l-.464 1.245-5.17-1.983 2.553-6.646 5.022 1.93-.475 1.234-3.492-1.34-.559 1.446 3.091 1.181-.454 1.192-3.091-1.181-.59 1.54zM294.729 62.929l.96-.96a4.23 4.23 0 0 0 1.931 1.53c.918.347 1.403.189 1.561-.222.475-1.245-3.724-1.868-2.774-4.336.432-1.129 1.709-1.72 3.597-1.055a4.84 4.84 0 0 1 2.11 1.477l-.918.991a4.1 4.1 0 0 0-1.645-1.234c-.908-.348-1.393-.137-1.551.274-.475 1.235 3.713 1.868 2.785 4.305-.433 1.055-1.709 1.709-3.619.98a5 5 0 0 1-2.437-1.75M304.435 61.198l-2.11-.812.475-1.255 5.792 2.215-.475 1.256-2.11-.813-2.11 5.39-1.572-.58z"/><path fill="#B0B0B0" d="m380.169 253.788-35.34-16.573c7.194-15.35 13.798-37.482 13.798-54.593a114.34 114.34 0 0 0-12.374-52.083c-1.424-2.816-6.593-12.174-8.018-14.526l33.4-20.213c2.046 3.397 7.701 13.715 9.431 17.101a152.86 152.86 0 0 1 16.594 69.721c0 22.881-7.838 50.584-17.491 71.166"/><path fill="#B0B0B0" d="m324.489 133.82 66.472-43.737-61.366-20.899z"/><path fill="#263238" d="m374.367 141.047.875 3.112c.633 2.247-.285 4.219-2.352 4.747-2.068.527-3.861-.57-4.494-2.806l-.876-3.165zm-4.695 4.599a2.207 2.207 0 0 0 .979 1.56 2.216 2.216 0 0 0 3.241-2.752l-.412-1.456-4.219 1.203zM372.204 156.069l-1.287.285-1.213-5.37 6.931-1.572 1.192 5.275-1.287.295-.823-3.65-1.508.348.728 3.165-1.256.285-.728-3.228-1.603.369zM379.336 162.958l-7.543-1.783-.285-1.593 6.467-4.22.306 1.751-4.621 3.017 5.391 1.277zM374.451 170.015l-1.319.179-.738-5.464 7.058-.95.717 5.275-1.308.169-.507-3.703-1.529.211.443 3.27-1.266.169-.443-3.27-1.635.221zM380.39 170.754l.159 1.645-5.75.538.327 3.555-1.329.127-.496-5.19zM377.352 176.714a3.904 3.904 0 1 1-3.481 4.072 3.67 3.67 0 0 1 3.481-4.072m.306 6.108a2.2 2.2 0 0 0 1.201-.46 2.22 2.22 0 0 0 .789-2.333 2.22 2.22 0 0 0-1.844-1.632 2.228 2.228 0 0 0-2.53 2.315 2.188 2.188 0 0 0 2.384 2.11M378.766 191.989c-1.593 0-2.585-1.181-2.585-3.08v-1.435h-1.962v-1.645h7.111v3.08c.01 1.878-.939 3.07-2.564 3.08m0-1.666c.781 0 1.234-.517 1.234-1.519v-1.34h-2.468v1.35c-.011 1.002.453 1.519 1.223 1.519z"/><path fill="#B0B0B0" d="M243.186 337.086H118.629v-39.033h124.557a114.69 114.69 0 0 0 91.779-45.362l31.005 23.715a153.474 153.474 0 0 1-122.784 60.68"/><path fill="#B0B0B0" d="m315.227 242.901 66.229 44.085-4.747-64.646z"/><path fill="#000" d="m381.446 286.986-4.747-64.646-61.482 20.561 17.934 11.973a114.6 114.6 0 0 1-90.029 43.179H118.629v39.032h124.557a153.41 153.41 0 0 0 122.626-60.511z" opacity=".3"/><path fill="#263238" d="M314.298 295.257c.95 1.266.591 2.775-.917 3.914l-1.15.865 1.181 1.561-1.318.992-4.283-5.707 2.458-1.857c1.55-1.118 3.069-1.044 4.029.232m-1.339 1.055c-.465-.622-1.15-.686-1.952-.084l-1.055.812 1.488 1.973 1.054-.802c.802-.665.939-1.329.465-1.952zM313.676 292.493l1.319-.991 3.471 4.61 2.848-2.11.812 1.055-4.167 3.165zM325.745 290.404l-2.637 1.994.411 1.593-1.35 1.055-1.752-7.595 1.298-.981 6.836 3.776-1.382 1.055zm-1.171-.685-2.542-1.498.738 2.859zM330.07 280.14l4.283 5.686-1.055.823-5.443-1.319 2.606 3.45-1.298.981-4.283-5.686 1.055-.823 5.422 1.319-2.595-3.45z"/><path fill="#E0E0E0" d="M108.259 273.948v87.243l56.133-43.622z"/><path fill="#E0E0E0" d="M118.64 298.053H2.111v39.033H118.64z"/><path fill="#263238" d="M52.052 316.25c0 1.583-1.192 2.575-3.102 2.575h-1.434v1.962H45.87v-7.121h3.08c1.91 0 3.102.992 3.102 2.584m-1.677 0c0-.78-.507-1.244-1.509-1.244h-1.35v2.479h1.35c1.002 0 1.509-.464 1.509-1.235M53.212 313.666h1.646v5.781h3.576v1.34H53.16zM64.11 319.268h-3.313l-.622 1.519h-1.698l3.164-7.121h1.636l3.164 7.121h-1.698zm-.517-1.287-1.129-2.733-1.14 2.733zM73.742 313.666v7.121h-1.393l-3.555-4.326v4.326H67.21v-7.121h1.361l3.534 4.325v-4.325z"/><path fill="#0E53BE" d="m229.271 456.525-2.996 31.839-17.217-1.277 2.943-31.912z"/><path fill="#263238" d="M217.93 486.538c-.137 0 .485-6.994 1.414-15.581s1.772-15.539 1.92-15.518-.486 6.984-1.403 15.571c-.918 8.587-1.836 15.539-1.931 15.528"/><path fill="#263238" d="m226.475 486.169-17.206-1.329-.211 2.247 17.217 1.277zM209.997 476.886c.143-.252.328-.477.549-.665a12 12 0 0 1 1.698-1.487 11.8 11.8 0 0 1 2.954-1.593 9.2 9.2 0 0 1 4.093-.528 9.12 9.12 0 0 1 6.414 3.566 7.9 7.9 0 0 1 1.055 1.994c.114.252.178.525.19.802a17.6 17.6 0 0 0-1.561-2.564 9.15 9.15 0 0 0-6.172-3.281 10.54 10.54 0 0 0-6.783 1.91c-1.572 1.044-2.363 1.92-2.437 1.846"/><path fill="#000" d="m211.168 464.258-.327 3.513 17.259 1.203.253-2.638z" opacity=".3"/><path fill="#0E53BE" d="m298.485 454.3 2.068 31.911-17.206 1.467-2.131-31.975z"/><path fill="#263238" d="M291.976 485.716c-.148 0-.622-6.984-1.055-15.603s-.696-15.624-.559-15.634c.137-.011.633 6.973 1.055 15.602s.707 15.635.559 15.635"/><path fill="#263238" d="m300.405 484.017-17.206 1.403.148 2.258 17.206-1.467zM282.671 477.455s.106-.284.391-.727c.424-.622.908-1.202 1.445-1.731a11.6 11.6 0 0 1 2.669-2.036 9.18 9.18 0 0 1 10.845 1.34 8.2 8.2 0 0 1 1.382 1.794c.149.232.257.489.316.759a18 18 0 0 0-1.951-2.289 9.24 9.24 0 0 0-6.615-2.258 10.56 10.56 0 0 0-6.393 2.954c-1.371 1.266-2.015 2.247-2.089 2.194"/><path fill="#000" d="m281.817 464.807.243 3.513 17.227-1.541-.169-2.647z" opacity=".3"/><path fill="#FFBE9D" d="m249.768 172.157-23.694 3.534-1.118-20.276s-1.709-.074-3.165-8.725-4.314-23.314-4.314-23.314a32.53 32.53 0 0 1 31.975-1.276l1.487.77z"/><path fill="#FFBE9D" d="M249.8 133.989c.147-.084 5.886-2.753 6.646 3.165s-5.581 5.538-5.612 5.359c-.032-.179-1.034-8.524-1.034-8.524M220.768 137.428c-.169 0-5.865-.58-4.715 5.275 1.149 5.855 7.057 3.492 7.036 3.312-.021-.179-2.321-8.587-2.321-8.587"/><path fill="#263238" d="M251.688 133.008c-.116 5.116.485 7.701.179 11.151-.495 5.464-2.542 9.927-7.015 13.345s-11.108 4.441-15.898 1.55c-3.323-2.004-5.844-4.462-6.878-8.123s-2.542-10.19-3.165-13.946c-1.16-6.783-2.669-13.113-2.669-13.113l19.453-6.741 12.459 4.631zM235.199 162.135a9.33 9.33 0 0 0 6.752-1.836c-.085-.147-1.488.549-3.334 1.055s-3.418.623-3.418.781"/><path fill="#263238" d="M252.089 141.606c-.243-5.18-.802-11.067-.844-16.563 0-2.11.253-5.085-.264-7.089a16.6 16.6 0 0 0-2.278-5.749 8.907 8.907 0 0 0-6.826-3.545 9.13 9.13 0 0 0-7.11 3.165 6.9 6.9 0 0 0-7.3-1.519 6.61 6.61 0 0 0-4.125 6.087 4.85 4.85 0 0 0-5.549.316 4.484 4.484 0 0 0-1.192 5.275 4.48 4.48 0 0 0-2.891 2.943 4.22 4.22 0 0 0 .992 3.977c1.15 1.235 2.943 1.72 4.22 2.87a4.86 4.86 0 0 1 1.171 5.274"/><path fill="#455A64" d="M221.295 127.723c.068.192.176.369.317.517.375.447.843.807 1.371 1.055a4.38 4.38 0 0 0 2.733.379 4.6 4.6 0 0 0 1.685-.687 4.6 4.6 0 0 0 1.29-1.285h-.444a4.14 4.14 0 0 0 3.165 2.532 5.04 5.04 0 0 0 4.431-1.288 6.62 6.62 0 0 0 2.015-3.618l-.475.127a5.8 5.8 0 0 0 4.927 1.666 5.37 5.37 0 0 0 3.565-2.109 5.1 5.1 0 0 0 1.055-2.49 2.1 2.1 0 0 0 0-.96s0 .338-.147.928a5.5 5.5 0 0 1-1.108 2.321 5.11 5.11 0 0 1-3.355 1.867 5.33 5.33 0 0 1-4.452-1.571l-.369-.391-.105.528a6.27 6.27 0 0 1-1.868 3.323 4.45 4.45 0 0 1-3.924 1.15 3.64 3.64 0 0 1-2.806-2.11l-.169-.486-.274.444a4.22 4.22 0 0 1-2.637 1.835 4.16 4.16 0 0 1-2.522-.253 5.8 5.8 0 0 1-1.899-1.424M220.958 125.36a5.1 5.1 0 0 1 .506-2.29 3.68 3.68 0 0 1 1.878-1.709 3.93 3.93 0 0 1 3.165.064l.548.263-.147-.569a4.4 4.4 0 0 1-.074-1.741 4.77 4.77 0 0 1 2.015-3.165 4.94 4.94 0 0 1 3.08-.77 6.9 6.9 0 0 1 2.838.992s-.169-.253-.612-.57a4.8 4.8 0 0 0-2.183-.812 5.28 5.28 0 0 0-3.408.738 5.155 5.155 0 0 0-2.289 3.513 4.6 4.6 0 0 0 .095 1.952l.39-.317a4.43 4.43 0 0 0-3.587 0 3.96 3.96 0 0 0-2.078 1.984 3.8 3.8 0 0 0-.337 1.804c.073.422.168.643.2.633M233.754 123.471c.074 0-.073-.337-.116-.823a3.76 3.76 0 0 1 .338-1.846c.306-.675.686-1.382.907-1.761a.59.59 0 0 1 .623-.222s0-.137-.18-.221a.7.7 0 0 0-.395-.018.7.7 0 0 0-.343.197 4.5 4.5 0 0 0-.58.791 6.3 6.3 0 0 0-.549 1.055 3.16 3.16 0 0 0-.221 2.11c.168.548.516.781.516.738M244.42 114.093c.063 0-.064-.464-.549-1.055a3.2 3.2 0 0 0-1.055-.781 2.55 2.55 0 0 0-1.677.011 3.94 3.94 0 0 0-2.194 1.867c-.359.612-.507 1.055-.443 1.055.063 0 .348-.316.78-.854a4.2 4.2 0 0 1 2.015-1.551 2.4 2.4 0 0 1 1.229-.003 2.4 2.4 0 0 1 1.071.604c.496.401.707.749.823.707M245.359 139.696a9.7 9.7 0 0 0 1.498-4.125 9.3 9.3 0 0 0 .052-4.356c-.168 0-.179 1.941-.611 4.219-.433 2.279-1.076 4.262-.939 4.262M242.922 141.595a7.2 7.2 0 0 0 1.055-2.933c.31-.999.397-2.054.253-3.091a11.1 11.1 0 0 0-.802 2.986 10.6 10.6 0 0 0-.506 3.038M226.117 144.728a9.2 9.2 0 0 0 1.529 5.096 9.6 9.6 0 0 0 3.756 3.861 33 33 0 0 1-3.26-4.136 32 32 0 0 1-2.025-4.821M222.719 140.836a9.02 9.02 0 0 0 3.165 8.682 25.5 25.5 0 0 1-2.236-4.104 26 26 0 0 1-.929-4.578"/><path fill="#fff" d="m225.041 171.587.211-5.085 24.769-5.232.876 4.188z"/><path fill="#FFBE9D" d="M147.492 233.1s-1.224.633-.38 1.53 12.122 10.898 13.651 11.879a32 32 0 0 0 6.077 2.162l2.975-.548 1.698-7.153 2.11-3.46-.538-.791 1.973-7.67s-1.709-.696-2.501.538c-1.107 1.741-2.637 4.568-2.637 4.568s-3.101.464-4.22-.875c-1.118-1.34-7.69-12.427-8.439-12.66-.749-.232-2.005 0-1.361 1.804s4.842 8.05 4.684 8.44-.802.812-1.055.506-7.005-9.146-8.07-9.304c-1.066-.159-1.941.759-.908 2.458 1.034 1.698 6.499 7.933 6.246 8.334-.254.401-.971-.085-.971-.085s-6.235-6.509-7.11-6.393c-.876.116-1.129 1.055-.633 1.91.496.854 6.804 6.92 6.92 7.384.074.317-.19 1.572-.707 1.14s-6.308-4.125-6.804-3.714"/><path fill="#263238" d="m211.179 297.937-1.308 85.112-2.891 88.351 23.979 1.656 8.07-90.049 9.21-63.919 2.025-.126 18.134 66.535 11.299 85.449c1.403-.39 22.628-2.109 22.628-2.109l-14.769-172.873-2.458-14.379-63.127 1.403z"/><path fill="#0E53BE" d="m282.155 252.058-1.825-49.224-3.038-33.99h-20.698l-5.275-5.158-26.553 5.158-2.458 7.385s-21.32 6.783-22.501 8.851c0 0 7.479 29.538 11.003 46.058a4892 4892 0 0 0 4.958 22.987l-6.731 54.446c-.274 0 41.016-1.815 41.016-1.815l39.877-4.315z"/><path fill="#FFBE9D" d="M303.718 153.41s-6.077.475-6.435.475c-.359 0-6.562.58-6.562.58a3.16 3.16 0 0 1 1.72-2.109c1.445-.644 4.219-1.646 4.473-2.11.253-.465.917-1.224.348-2.015s-11.056-11.436-11.415-12.005c-.358-.57-.939-1.657 0-1.868s2.11.791 2.88 1.435 4.864 4.093 5.275 3.882.074-.58.074-.58-6.931-7.131-7.005-7.385-.886-2.32 1.055-1.972c.949.158 8.144 7.521 8.439 7.226.296-.295-6.044-8.44-5.464-9.051s1.224-1.298 2.373 0c1.15 1.297 6.098 7.901 6.467 7.975a.6.6 0 0 0 .644-.791c-.137-.496-3.081-5.623-3.081-6.203s.57-.718 1.15-.791 6.752 8.861 6.752 8.861 4.768 7.669 5.275 8.556a29.6 29.6 0 0 1 1.371 3.882z"/><path fill="#0E53BE" d="m302.199 153.759 4.135 15.971-9.495 3.545-20.402-4.431v30.161l2.891 7.838s42.725-20.603 45.562-22.839c5.275-4.22-3.112-18.842-3.112-18.842l-7.754-16.689zM199.796 185.111l-4.779 9.569-12.068 39.961-13.483 3.597-2.531 12.322s21.098 4.947 25.002 3.249c6.635-2.88 17.723-30.393 17.723-30.393l-1.498-23.514z"/><path fill="#263238" d="M319.732 176.26a38.6 38.6 0 0 0-6.33-4.346 38 38 0 0 0-7.226-2.5 7 7 0 0 1 2.268.211c1.808.361 3.558.968 5.201 1.804a20.5 20.5 0 0 1 4.536 3.165 6.6 6.6 0 0 1 1.551 1.666"/><path fill="#263238" d="M315.712 169.646a29 29 0 0 0-5.158-.401 29.7 29.7 0 0 0-5.054 1.055 10.91 10.91 0 0 1 10.212-.644zM256.594 168.844a6.7 6.7 0 0 1-1.161.802c-.379.253-.854.538-1.424.844-.569.306-1.213.664-1.951 1.055a49 49 0 0 1-5.275 2.184 66 66 0 0 1-6.699 1.835 71 71 0 0 1-12.585 1.614c-1.625.063-2.933.063-3.84 0a7.7 7.7 0 0 1-1.414-.105c.466-.087.94-.126 1.414-.116.896 0 2.205-.095 3.819-.201a84 84 0 0 0 12.48-1.762 76 76 0 0 0 6.688-1.835c2.025-.654 3.808-1.382 5.274-2.11.739-.316 1.393-.644 1.963-.928.569-.285 1.055-.528 1.466-.76a7 7 0 0 1 1.245-.517M262.85 254.199a7.3 7.3 0 0 1-1.519.39c-.992.222-2.427.475-4.22.718a69.35 69.35 0 0 1-28.019-2.11c-1.741-.506-3.165-.971-4.062-1.34a9 9 0 0 1-1.445-.612 7.3 7.3 0 0 1 1.509.412c.96.306 2.363.707 4.103 1.171a76.9 76.9 0 0 0 27.861 2.11c1.793-.19 3.239-.38 4.22-.538a9.7 9.7 0 0 1 1.572-.201M182.2 238.291c-.148 0 1.339-5.56 3.312-12.322s3.682-12.206 3.829-12.163-1.329 5.549-3.301 12.321c-1.973 6.773-3.693 12.206-3.84 12.164M246.941 270.15c.158 0 .433 6.139.623 13.714.189 7.574.21 13.714.063 13.714-.148 0-.433-6.129-.612-13.714s-.222-13.704-.074-13.714"/><path fill="#455A64" d="M262.069 316.82c0 .148-5.338 1.256-11.984 2.479s-12.047 2.11-12.079 1.931c-.032-.18 5.338-1.256 11.984-2.479s12.047-2.079 12.079-1.931M286.416 381.393a48 48 0 0 0-6.909.886 51 51 0 0 0-6.53 2.384 6 6 0 0 1 1.719-1.15 20.6 20.6 0 0 1 4.684-1.761 20.4 20.4 0 0 1 4.969-.591 5.9 5.9 0 0 1 2.067.232M228.659 385.497c0 .158-1.983-.243-4.409-.127-2.427.116-4.336.665-4.378.506a11.6 11.6 0 0 1 8.787-.379"/><path fill="#263238" d="M215.757 254.157a2.5 2.5 0 0 1-.169-.538c-.105-.422-.242-.939-.39-1.572-.338-1.445-.802-3.407-1.35-5.792-1.119-4.968-2.627-11.699-4.294-19.136s-3.165-14.178-4.272-19.147a997 997 0 0 1-1.298-5.802l-.338-1.583a2 2 0 0 1-.084-.559q.131.256.19.538c.116.412.264.928.432 1.551.37 1.361.876 3.334 1.467 5.77 1.202 4.874 2.764 11.605 4.431 19.105 1.666 7.501 3.164 14.263 4.145 19.179.486 2.405.887 4.378 1.171 5.823.116.644.222 1.171.296 1.593q.074.28.063.57M279.306 185.892q.04.15.053.306l.074.886c.074.77.169 1.92.253 3.407.211 2.954.443 7.248.707 12.544.527 10.549 1.15 25.234 1.751 41.406.095 2.606.19 5.18.285 7.606 2.11 14.231 4.061 26.827 5.433 35.868.654 4.494 1.192 8.123 1.561 10.665.169 1.224.295 2.184.39 2.88 0 .306.074.549.095.749a.6.6 0 0 1 0 .253.9.9 0 0 1-.063-.242c0-.201-.084-.443-.137-.749-.116-.686-.285-1.646-.496-2.859-.411-2.542-.992-6.161-1.72-10.644-1.424-9.073-3.386-21.658-5.612-35.868-.084-2.437-.179-5.001-.285-7.606-1.244-32.007-2.173-55.606-2.289-58.602"/><path fill="#000" d="M253.851 170.701c-9.979 4.03-19.832 6.509-30.593 6.519a8.67 8.67 0 0 0 5.581 2.458 22.3 22.3 0 0 0 6.266-.538 93.6 93.6 0 0 0 15.234-4.283c1.761-.633 3.745-2.458 3.512-4.156M204.153 201.748c.169 3.84-.264 8.439.548 12.226a22.8 22.8 0 0 0 4.79 10.328c-1.846-7.237-3.418-15.17-5.338-22.554M235.104 259.674l-.327-.052c3.228 3.671 8.588 4.05 13.482 4.082s10.191-.274 13.472-3.903a66.2 66.2 0 0 1-26.627-.127" opacity=".3"/><path fill="#B0B0B0" d="M56.937 421.09c1.276 3.967 5.97 6.72 9.853 5.275 2.205-.834 3.798-2.754 5.159-4.674a21.5 21.5 0 0 1 4.536-5.348 6.67 6.67 0 0 1 4.631-1.308l-17.839-6.71c-7.638 4.6-7.617 8.82-6.34 12.765"/><path fill="#0E53BE" d="M56.937 421.09c1.276 3.967 5.97 6.72 9.853 5.275 2.205-.834 3.798-2.754 5.159-4.674a21.5 21.5 0 0 1 4.536-5.348 6.67 6.67 0 0 1 4.631-1.308l-17.839-6.71c-7.638 4.6-7.617 8.82-6.34 12.765"/><path fill="#000" d="M56.937 421.09c1.276 3.967 5.97 6.72 9.853 5.275 2.204-.834 3.797-2.754 5.158-4.674a21.5 21.5 0 0 1 4.537-5.348 6.66 6.66 0 0 1 4.63-1.308l-17.838-6.71c-7.638 4.6-7.617 8.82-6.34 12.765" opacity=".3"/><path fill="#0E53BE" d="M145.752 425.806a15.075 15.075 0 0 0-24.696 5.928l1.783 6.91a8.435 8.435 0 0 1 4.388-5.601c2.331-1.055 5.043-.433 7.385.432s4.747 2.036 7.3 2.194c2.553.159 5.412-1.055 6.171-3.481s-.612-4.726-2.331-6.382"/><path fill="#000" d="M145.752 425.806a15.07 15.07 0 0 0-13.97-3.795 15.07 15.07 0 0 0-10.726 9.723l1.783 6.91a8.44 8.44 0 0 1 4.389-5.601c2.331-1.055 5.042-.433 7.384.432s4.747 2.036 7.3 2.194c2.553.159 5.412-1.055 6.172-3.481s-.612-4.726-2.332-6.382" opacity=".3"/><path fill="#0E53BE" d="M102.689 448.856c-3.734-3.545-3.545-9.716-1.688-14.516s5.929-8.439 10.465-10.908a33.154 33.154 0 0 1 28.874-.939 13.72 13.72 0 0 0-11.077 6.509c-2.047 3.397-2.5 7.522-4.22 11.109a17.49 17.49 0 0 1-9.451 8.83 17.49 17.49 0 0 1-12.935-.085M100.896 427.557c-4.135-4.874-4.684-12.659-4.072-19.063s2.11-12.765 1.055-19.084c-.59-3.734-2.047-7.31-2.532-11.066-.485-3.755.2-7.996 3.165-10.423 3.344-2.785 8.608-2.11 12.09.496s5.496 6.72 6.962 10.813c3.239 8.999 4.431 18.989 1.773 28.156-2.659 9.168-8.904 17.396-18.05 20.171"/><path fill="#263238" d="M98.913 467.571a3 3 0 0 1 0-.559v-1.615c0-1.403.19-3.418.506-5.907a80 80 0 0 1 1.583-8.651 39.6 39.6 0 0 1 3.956-10.011 41.4 41.4 0 0 1 6.445-8.619 41 41 0 0 1 6.762-5.623c1.055-.717 2.026-1.255 2.891-1.761.865-.507 1.646-.844 2.279-1.15l1.487-.623a3 3 0 0 1 .528-.19l-.507.254-1.456.685c-.611.317-1.371.718-2.236 1.192a26 26 0 0 0-2.848 1.794 42.1 42.1 0 0 0-13.05 14.21c-3.798 6.646-4.842 13.63-5.591 18.524a82 82 0 0 0-.612 5.887c0 .675-.074 1.203-.095 1.604q.003.281-.042.559"/><path fill="#0E53BE" d="M57.58 413.378c1.994-2.763 6.931-3.565 10.054-2.183 3.122 1.382 5.4 4.114 7.448 6.836 2.046 2.722 4.03 5.612 6.857 7.511s6.793 2.585 9.61.675a8.27 8.27 0 0 0 3.27-5.654c.245-2.232.09-4.489-.453-6.668-.675-3.164-1.773-6.551-4.336-8.587-2.859-2.278-6.836-2.384-10.476-2.257-4.2-.035-8.378.607-12.374 1.899-3.924 1.455-7.933 4.589-9.6 8.439"/><path fill="#263238" d="M92.562 461.452v-.665q0-.696-.063-1.899c0-1.677-.117-4.05-.2-6.973a407 407 0 0 0-.423-10.338c-.21-3.882-.506-8.165-1.055-12.659a41 41 0 0 0-1.266-6.404 33 33 0 0 0-2.437-5.559 32 32 0 0 0-2.953-4.642 31 31 0 0 0-3.229-3.545 23.8 23.8 0 0 0-5.717-3.903c-.38-.169-.707-.337-.992-.453l-.749-.285-.464-.19-.148-.074h.159l.474.148.76.263c.295.106.633.275 1.055.433a23 23 0 0 1 5.823 3.84 30 30 0 0 1 3.291 3.544 31.6 31.6 0 0 1 3.007 4.674 32.6 32.6 0 0 1 2.342 5.654 40.4 40.4 0 0 1 1.287 6.457c.59 4.462.876 8.745 1.055 12.659.18 3.914.285 7.384.348 10.349s.084 5.338.095 6.983v2.395q.008.095 0 .19M95.315 464.902a21.3 21.3 0 0 1-.844-3.281 34.3 34.3 0 0 1-.348-9.22 61.2 61.2 0 0 1 2.912-13.388c1.572-4.916 3.703-10.169 5.517-15.824a72 72 0 0 0 2.194-8.376c.5-2.64.852-5.306 1.055-7.986.352-4.562.433-9.142.243-13.714-.137-3.893-.338-7.036-.464-9.209-.064-1.055-.116-1.92-.148-2.511v-.876.222c0 .169 0 .38.063.654 0 .591.127 1.424.211 2.5.169 2.173.412 5.275.581 9.21.222 4.57.166 9.15-.169 13.714a74 74 0 0 1-1.055 8.028 70 70 0 0 1-2.194 8.439c-1.826 5.665-3.967 10.919-5.55 15.824a62 62 0 0 0-2.964 13.303 35.3 35.3 0 0 0 .243 9.178c.18 1.055.359 1.899.506 2.448q.096.4.158.633c.043.158.053.232.053.232"/><path fill="#455A64" d="M114.262 468.362H78.373l-.823-6.91h36.712z"/><path fill="#455A64" d="m82.223 467.571 4.484 20.719h19.505l4.199-20.719z"/><path fill="#455A64" d="M114.262 468.362c0 .095-7.891.148-17.628.116s-17.617-.127-17.617-.222 7.89-.147 17.617-.116c9.727.032 17.628.127 17.628.222"/><path fill="#263238" d="M108.101 478.584c-.977-.73-2.04-1.34-3.165-1.814a11.5 11.5 0 0 0-3.839-.77 13.4 13.4 0 0 0-4.727.875c-1.635.549-3.164 1.192-4.652 1.551a11.2 11.2 0 0 1-4.02.116 8.6 8.6 0 0 1-2.584-.812 7 7 0 0 1-.622-.401c-.137-.106-.2-.158-.19-.169s.306.179.875.443c.811.36 1.672.595 2.553.696a11.2 11.2 0 0 0 3.914-.179c1.445-.369 2.965-1.055 4.62-1.572a13.2 13.2 0 0 1 4.843-.854c1.35.036 2.681.326 3.924.854a10.2 10.2 0 0 1 2.902 1.846c.116.116.179.18.168.19"/><path fill="#fff" d="M107.827 479.966a16 16 0 0 0-3.038-1.783 10.2 10.2 0 0 0-3.703-.759c-1.56.002-3.106.281-4.568.823-1.582.527-3.07 1.139-4.484 1.519a11.5 11.5 0 0 1-3.86.432 6.5 6.5 0 0 1-2.533-.675 5 5 0 0 1-.611-.38c-.127-.105-.19-.158-.18-.169.01-.01.296.169.844.422.788.34 1.632.53 2.49.56 1.274.04 2.546-.127 3.766-.496 1.382-.391 2.859-1.055 4.452-1.54a13 13 0 0 1 4.694-.813c2.196.068 4.312.841 6.035 2.205.242.201.411.359.527.475q.093.08.169.179"/><path fill="#fff" d="M108.46 477.213a17.2 17.2 0 0 0-3.25-1.91 12 12 0 0 0-3.935-.949 12.9 12.9 0 0 0-4.884.854 43 43 0 0 1-4.81 1.572 12.2 12.2 0 0 1-4.157 0 9.4 9.4 0 0 1-2.669-.844 4.4 4.4 0 0 1-.643-.401c-.138-.105-.211-.158-.2-.168s.316.179.906.453c.847.355 1.738.597 2.648.718 1.345.2 2.714.175 4.051-.074a48 48 0 0 0 4.769-1.583 12.8 12.8 0 0 1 5-.854 12.2 12.2 0 0 1 6.414 2.479c.264.211.454.38.58.496q.104.094.18.211"/><path fill="#263238" d="M114.547 468.383c0 .095-8.07.179-18.03.179-9.958 0-18.038-.084-18.038-.179s8.08-.169 18.039-.169 18.029.074 18.029.169M465.029 488.131c0 .159-96.474.285-215.439.285s-215.47-.126-215.47-.285 96.452-.306 215.459-.306 215.45.159 215.45.306"/><path fill="#fff" d="m206.569 156.459-11.604-2.595a27.828 27.828 0 0 1-44.748-32.719 27.83 27.83 0 0 1 49.875 24.195z"/><path fill="#263238" d="m206.569 156.459-6.33-11.182a.11.11 0 0 0-.147 0l.19.095a27.7 27.7 0 0 0 1.487-14.368 23.8 23.8 0 0 0-1.055-4.22c-.264-.718-.506-1.445-.791-2.173l-1.055-2.11a27.92 27.92 0 0 0-15.75-13.398 27.75 27.75 0 0 0-11.604-1.371 28.3 28.3 0 0 0-11.71 3.914 27.4 27.4 0 0 0-9.189 9.019 27.86 27.86 0 0 0-4.22 12.459 28.4 28.4 0 0 0 1.804 12.459 27.2 27.2 0 0 0 6.562 9.937 28.14 28.14 0 0 0 19.348 7.87 29.9 29.9 0 0 0 8.977-1.487 27.6 27.6 0 0 0 11.953-7.976h-.095l11.604 2.501-11.604-2.701a.12.12 0 0 0-.106 0 27.4 27.4 0 0 1-11.889 7.838 29.6 29.6 0 0 1-8.883 1.435 27.9 27.9 0 0 1-19.083-7.817 27.1 27.1 0 0 1-6.446-9.811 27.9 27.9 0 0 1-1.762-12.28 27.37 27.37 0 0 1 4.125-12.258 26.9 26.9 0 0 1 9.041-8.893 28 28 0 0 1 11.573-3.798c3.869-.38 7.775.069 11.456 1.319a27.8 27.8 0 0 1 15.539 13.134c.338.717.676 1.424 1.055 2.11.38.685.528 1.434.791 2.109a25 25 0 0 1 1.055 4.22c.79 4.788.306 9.7-1.403 14.242a.1.1 0 0 0-.007.041.1.1 0 0 0 .01.041.1.1 0 0 0 .061.055q.025.02.058.02a.1.1 0 0 0 .058-.02h-.19z"/><path fill="#B0B0B0" d="m158.875 136.078 3.978-3.977 7.68 6.825 15.075-14.505 3.692 3.977-19.337 18.198z"/></svg>