<svg width="1045" height="293" viewBox="0 0 1045 293" fill="none" xmlns="http://www.w3.org/2000/svg">
<path d="M147.32 24.8819C145.431 21.6212 142.109 19.9756 138.818 19.9756C135.527 19.9756 132.205 21.6212 130.316 24.8819C112.02 56.5978 93.8294 88.1455 75.6808 119.619C58.4307 149.535 41.219 179.384 23.9929 209.248C20.0922 216.013 19.5742 224.211 22.5606 231.433C28.9296 246.883 38.1936 260.81 50.6269 272.908C67.1741 253.648 87.3782 242.129 112.031 237.497V192.884C112.031 190.354 109.99 188.313 107.46 188.313H97.7698C95.4233 188.313 93.9301 185.783 95.1186 183.741C99.1803 176.714 103.231 169.703 107.302 162.658L107.364 162.549C116.741 146.319 126.226 129.904 136.197 112.677C137.355 110.635 140.281 110.635 141.469 112.677C151.441 129.904 160.925 146.319 170.302 162.549L170.365 162.658C174.435 169.703 178.486 176.714 182.548 183.741C183.706 185.783 182.243 188.313 179.897 188.313H170.206C167.677 188.313 165.635 190.354 165.635 192.884V237.497C190.258 242.129 210.462 253.648 227.009 272.908C239.442 260.81 248.706 246.883 255.075 231.433C258.062 224.211 257.544 216.013 253.643 209.248L253.545 209.078C218.258 147.882 182.972 86.6862 147.32 24.8819Z" fill="#0E53BE"/>
<path d="M121.526 202.848C125.573 202.848 128.855 199.567 128.855 195.52C128.855 191.472 125.573 188.191 121.526 188.191C117.478 188.191 114.197 191.472 114.197 195.52C114.197 199.567 117.478 202.848 121.526 202.848Z" fill="#0E53BE"/>
<path d="M138.896 202.848C142.943 202.848 146.225 199.567 146.225 195.52C146.225 191.472 142.943 188.191 138.896 188.191C134.848 188.191 131.567 191.472 131.567 195.52C131.567 199.567 134.848 202.848 138.896 202.848Z" fill="#0E53BE"/>
<path d="M156.266 202.848C160.313 202.848 163.595 199.567 163.595 195.52C163.595 191.472 160.313 188.191 156.266 188.191C152.218 188.191 148.937 191.472 148.937 195.52C148.937 199.567 152.218 202.848 156.266 202.848Z" fill="#0E53BE"/>
<path d="M136.332 234.611C139.64 234.553 142.948 234.611 146.194 234.815V207.88C146.194 206.422 144.896 205.256 143.319 205.256H134.137C132.56 205.256 131.262 206.422 131.262 207.88V234.786C132.931 234.699 134.632 234.641 136.332 234.611Z" fill="#0E53BE"/>
<path d="M163.229 236.644C158.375 235.722 153.428 235.089 148.327 234.772V207.876C148.327 206.437 149.626 205.256 151.202 205.256H160.384C161.961 205.256 163.259 206.437 163.259 207.876L163.229 236.644Z" fill="#0E53BE"/>
<path d="M128.824 234.772C123.98 235.089 119.226 235.722 114.562 236.644L114.501 207.876C114.501 206.437 115.735 205.256 117.27 205.256H126.056C127.59 205.256 128.824 206.437 128.824 207.876V234.772Z" fill="#0E53BE"/>
<path d="M343.641 85.2959H367.71L355.676 55.9844L343.641 85.2959ZM346.382 39.1839C347.255 37.1186 348.368 35.2519 349.718 33.5838C351.068 31.9156 353.054 31.0816 355.676 31.0816C357.026 31.0816 358.178 31.3199 359.131 31.7965C360.084 32.2731 360.918 32.9086 361.633 33.7029C362.348 34.4178 362.944 35.2519 363.42 36.2051C363.976 37.1583 364.493 38.1513 364.969 39.1839L397.975 115.441H379.983L373.668 99.9516H337.684L331.368 115.441H313.376L346.382 39.1839ZM388.401 55.8652H404.724L420.81 94.7089L436.776 55.8652H453.1L429.151 109.722C428.356 111.549 427.284 113.138 425.934 114.488C424.583 115.759 422.875 116.395 420.81 116.395C418.745 116.395 417.037 115.759 415.686 114.488C414.336 113.217 413.224 111.629 412.35 109.722L388.401 55.8652ZM458.519 38.2307C458.519 35.6093 459.432 33.3852 461.259 31.5582C463.166 29.6517 465.43 28.6985 468.051 28.6985C470.672 28.6985 472.897 29.6517 474.724 31.5582C476.63 33.3852 477.583 35.6093 477.583 38.2307C477.583 40.8521 476.63 43.1159 474.724 45.0224C472.897 46.8494 470.672 47.7629 468.051 47.7629C465.43 47.7629 463.166 46.8494 461.259 45.0224C459.432 43.1159 458.519 40.8521 458.519 38.2307ZM460.187 55.8652H475.915V115.441H460.187V55.8652ZM499.206 85.7725C499.206 88.235 499.643 90.5783 500.516 92.8025C501.47 95.0266 502.741 97.0125 504.329 98.7601C505.918 100.428 507.745 101.779 509.81 102.811C511.955 103.764 514.219 104.241 516.602 104.241C518.985 104.241 521.209 103.764 523.274 102.811C525.419 101.779 527.246 100.428 528.755 98.7601C530.344 97.0125 531.575 95.0266 532.449 92.8025C533.402 90.5783 533.879 88.235 533.879 85.7725C533.879 83.3894 533.402 81.0858 532.449 78.8616C531.575 76.6375 530.344 74.6913 528.755 73.0232C527.246 71.355 525.419 70.0444 523.274 69.0912C521.209 68.0585 518.985 67.5422 516.602 67.5422C514.219 67.5422 511.955 68.0585 509.81 69.0912C507.745 70.0444 505.918 71.355 504.329 73.0232C502.741 74.6913 501.47 76.6375 500.516 78.8616C499.643 81.0858 499.206 83.3894 499.206 85.7725ZM484.192 85.8916C484.192 81.4433 484.947 77.2729 486.456 73.3806C488.045 69.4883 490.19 66.0726 492.891 63.1335C495.591 60.1944 498.729 57.8908 502.304 56.2227C505.878 54.5546 509.731 53.7205 513.861 53.7205C517.595 53.7205 521.09 54.4354 524.347 55.8652C527.683 57.2156 530.662 59.1221 533.283 61.5846V32.0348H548.892V115.441H533.283V110.199C530.662 112.661 527.683 114.568 524.347 115.918C521.09 117.348 517.595 118.063 513.861 118.063C509.731 118.063 505.878 117.229 502.304 115.561C498.729 113.892 495.591 111.589 492.891 108.65C490.19 105.711 488.045 102.295 486.456 98.4026C484.947 94.5103 484.192 90.34 484.192 85.8916ZM572.413 85.7725C572.413 88.235 572.85 90.5783 573.723 92.8025C574.677 95.0266 575.908 96.9728 577.417 98.6409C579.006 100.309 580.872 101.659 583.017 102.692C585.162 103.645 587.426 104.122 589.809 104.122C592.351 104.122 594.694 103.606 596.839 102.573C598.984 101.54 600.89 100.15 602.558 98.4026L613.52 107.697C610.502 110.953 606.967 113.495 602.916 115.322C598.864 117.149 594.456 118.063 589.69 118.063C585.162 118.063 580.912 117.189 576.94 115.441C573.048 113.773 569.632 111.509 566.693 108.65C563.834 105.711 561.53 102.295 559.783 98.4026C558.114 94.4309 557.28 90.2605 557.28 85.8916C557.28 81.4433 558.114 77.2729 559.783 73.3806C561.53 69.4883 563.873 66.0726 566.813 63.1335C569.752 60.1944 573.167 57.8908 577.06 56.2227C581.031 54.5546 585.281 53.7205 589.809 53.7205C594.575 53.7205 598.984 54.634 603.035 56.461C607.165 58.288 610.74 60.8299 613.759 64.0868L602.677 73.3806C601.009 71.5536 599.103 70.1238 596.958 69.0912C594.813 68.0585 592.47 67.5422 589.928 67.5422C587.545 67.5422 585.281 68.0585 583.136 69.0912C580.992 70.0444 579.125 71.355 577.536 73.0232C575.948 74.6913 574.677 76.6375 573.723 78.8616C572.85 81.0064 572.413 83.31 572.413 85.7725ZM636.364 115.441H620.636V32.0348H636.364V115.441ZM659.084 85.7725C659.084 88.235 659.521 90.5783 660.395 92.8025C661.348 95.0266 662.619 97.0125 664.207 98.7601C665.796 100.428 667.623 101.779 669.688 102.811C671.833 103.764 674.097 104.241 676.48 104.241C678.863 104.241 681.087 103.764 683.153 102.811C685.297 101.779 687.124 100.428 688.634 98.7601C690.222 97.0125 691.454 95.0266 692.327 92.8025C693.281 90.5783 693.757 88.235 693.757 85.7725C693.757 83.3894 693.281 81.0858 692.327 78.8616C691.454 76.6375 690.222 74.6913 688.634 73.0232C687.124 71.355 685.297 70.0444 683.153 69.0912C681.087 68.0585 678.863 67.5422 676.48 67.5422C674.097 67.5422 671.833 68.0585 669.688 69.0912C667.623 70.0444 665.796 71.355 664.207 73.0232C662.619 74.6913 661.348 76.6375 660.395 78.8616C659.521 81.0858 659.084 83.3894 659.084 85.7725ZM644.071 85.8916C644.071 81.4433 644.825 77.2729 646.335 73.3806C647.923 69.4883 650.068 66.0726 652.769 63.1335C655.47 60.1944 658.607 57.8908 662.182 56.2227C665.756 54.5546 669.609 53.7205 673.74 53.7205C677.473 53.7205 680.968 54.4354 684.225 55.8652C687.561 57.2156 690.54 59.1221 693.161 61.5846V55.8652H708.77V115.441H693.161V110.199C690.54 112.661 687.561 114.568 684.225 115.918C680.968 117.348 677.473 118.063 673.74 118.063C669.609 118.063 665.756 117.229 662.182 115.561C658.607 113.892 655.47 111.589 652.769 108.65C650.068 105.711 647.923 102.295 646.335 98.4026C644.825 94.5103 644.071 90.34 644.071 85.8916ZM762.556 82.3171C762.556 78.2659 761.245 74.9693 758.624 72.4274C756.082 69.8061 752.904 68.4954 749.091 68.4954C747.185 68.4954 745.358 68.8528 743.61 69.5678C741.942 70.2827 740.473 71.2756 739.202 72.5466C738.01 73.8175 737.057 75.2871 736.342 76.9552C735.627 78.6233 735.27 80.4106 735.27 82.3171V115.441H719.542V55.8652H735.27V61.2271C737.573 58.9235 740.195 57.1362 743.134 55.8652C746.152 54.5943 749.369 53.9588 752.785 53.9588C756.28 53.9588 759.577 54.634 762.675 55.9844C765.773 57.3348 768.473 59.1618 770.777 61.4654C773.081 63.769 774.908 66.5095 776.258 69.6869C777.609 72.8643 778.284 76.28 778.284 79.934V115.441H762.556V82.3171ZM315.164 151.035H376.289V165.691H353.888V234.441H337.564V165.691H315.164V151.035ZM416.674 199.053C415.562 195.479 413.536 192.5 410.597 190.117C407.658 187.654 404.322 186.423 400.589 186.423C398.682 186.423 396.855 186.741 395.107 187.376C393.36 188.012 391.771 188.925 390.341 190.117C388.912 191.229 387.641 192.54 386.529 194.049C385.496 195.558 384.702 197.226 384.145 199.053H416.674ZM383.907 209.896C385.019 213.709 387.124 216.926 390.222 219.547C393.32 222.089 396.895 223.36 400.946 223.36C403.806 223.36 406.467 222.685 408.929 221.335C411.392 219.905 413.417 218.038 415.006 215.734L428.708 221.335C425.769 226.101 421.877 229.914 417.032 232.773C412.186 235.633 406.784 237.063 400.827 237.063C396.299 237.063 392.049 236.229 388.078 234.561C384.185 232.892 380.77 230.589 377.83 227.65C374.891 224.711 372.548 221.295 370.8 217.403C369.132 213.51 368.298 209.34 368.298 204.892C368.298 200.443 369.132 196.273 370.8 192.381C372.548 188.488 374.891 185.073 377.83 182.134C380.77 179.194 384.185 176.891 388.078 175.223C392.049 173.555 396.299 172.721 400.827 172.721C405.116 172.721 409.128 173.515 412.861 175.104C416.674 176.613 420.01 178.718 422.87 181.419C425.809 184.04 428.152 187.138 429.9 190.713C431.727 194.287 432.799 198.14 433.117 202.27C433.276 204.574 432.64 206.441 431.211 207.87C429.781 209.221 427.716 209.896 425.015 209.896H383.907ZM453.609 204.772C453.609 207.235 454.046 209.578 454.92 211.802C455.873 214.027 457.105 215.973 458.614 217.641C460.203 219.309 462.069 220.659 464.214 221.692C466.359 222.645 468.623 223.122 471.006 223.122C473.548 223.122 475.891 222.606 478.036 221.573C480.18 220.54 482.087 219.15 483.755 217.403L494.717 226.697C491.698 229.953 488.164 232.495 484.112 234.322C480.061 236.149 475.653 237.063 470.887 237.063C466.359 237.063 462.109 236.189 458.137 234.441C454.245 232.773 450.829 230.509 447.89 227.65C445.03 224.711 442.727 221.295 440.979 217.403C439.311 213.431 438.477 209.261 438.477 204.892C438.477 200.443 439.311 196.273 440.979 192.381C442.727 188.488 445.07 185.073 448.009 182.134C450.948 179.194 454.364 176.891 458.256 175.223C462.228 173.555 466.478 172.721 471.006 172.721C475.772 172.721 480.18 173.634 484.232 175.461C488.362 177.288 491.937 179.83 494.955 183.087L483.874 192.381C482.206 190.554 480.3 189.124 478.155 188.091C476.01 187.058 473.667 186.542 471.125 186.542C468.742 186.542 466.478 187.058 464.333 188.091C462.188 189.044 460.322 190.355 458.733 192.023C457.144 193.691 455.873 195.637 454.92 197.862C454.046 200.006 453.609 202.31 453.609 204.772ZM544.847 201.317C544.847 199.331 544.489 197.504 543.774 195.836C543.059 194.088 542.066 192.619 540.795 191.427C539.604 190.156 538.174 189.203 536.506 188.568C534.917 187.853 533.209 187.495 531.382 187.495C529.476 187.495 527.649 187.853 525.901 188.568C524.233 189.283 522.764 190.276 521.493 191.547C520.301 192.818 519.348 194.287 518.633 195.955C517.918 197.623 517.561 199.411 517.561 201.317V234.441H501.833V151.035H517.561V180.227C519.864 177.923 522.486 176.136 525.425 174.865C528.364 173.594 531.541 172.959 534.957 172.959C538.452 172.959 541.749 173.634 544.847 174.984C547.945 176.335 550.645 178.162 552.949 180.465C555.332 182.769 557.199 185.51 558.549 188.687C559.9 191.864 560.575 195.28 560.575 198.934V234.441H544.847V201.317ZM614.313 201.317C614.313 197.266 613.003 193.969 610.381 191.427C607.839 188.806 604.662 187.495 600.849 187.495C598.943 187.495 597.116 187.853 595.368 188.568C593.7 189.283 592.23 190.276 590.959 191.547C589.768 192.818 588.815 194.287 588.1 195.955C587.385 197.623 587.027 199.411 587.027 201.317V234.441H571.299V174.865H587.027V180.227C589.331 177.923 591.952 176.136 594.892 174.865C597.91 173.594 601.127 172.959 604.543 172.959C608.038 172.959 611.335 173.634 614.432 174.984C617.53 176.335 620.231 178.162 622.535 180.465C624.838 182.769 626.665 185.51 628.016 188.687C629.366 191.864 630.041 195.28 630.041 198.934V234.441H614.313V201.317ZM637.787 204.892C637.787 200.443 638.621 196.273 640.289 192.381C642.037 188.488 644.38 185.073 647.319 182.134C650.338 179.194 653.833 176.891 657.805 175.223C661.777 173.555 666.026 172.721 670.554 172.721C675.082 172.721 679.332 173.555 683.303 175.223C687.275 176.891 690.731 179.194 693.67 182.134C696.688 185.073 699.032 188.488 700.7 192.381C702.447 196.273 703.321 200.443 703.321 204.892C703.321 209.34 702.447 213.51 700.7 217.403C699.032 221.295 696.688 224.711 693.67 227.65C690.731 230.589 687.275 232.892 683.303 234.561C679.332 236.229 675.082 237.063 670.554 237.063C666.026 237.063 661.777 236.229 657.805 234.561C653.833 232.892 650.338 230.589 647.319 227.65C644.38 224.711 642.037 221.295 640.289 217.403C638.621 213.51 637.787 209.34 637.787 204.892ZM652.8 204.772C652.8 207.235 653.277 209.578 654.23 211.802C655.184 214.027 656.454 216.013 658.043 217.76C659.632 219.428 661.499 220.779 663.643 221.811C665.868 222.764 668.211 223.241 670.673 223.241C673.056 223.241 675.32 222.764 677.465 221.811C679.61 220.779 681.476 219.428 683.065 217.76C684.733 216.013 686.004 214.027 686.878 211.802C687.831 209.578 688.308 207.235 688.308 204.772C688.308 202.389 687.831 200.086 686.878 197.862C686.004 195.637 684.733 193.691 683.065 192.023C681.476 190.355 679.61 189.044 677.465 188.091C675.32 187.058 673.056 186.542 670.673 186.542C668.211 186.542 665.868 187.058 663.643 188.091C661.499 189.044 659.632 190.355 658.043 192.023C656.454 193.691 655.184 195.637 654.23 197.862C653.277 200.086 652.8 202.389 652.8 204.772ZM726.775 234.441H711.047V151.035H726.775V234.441ZM734.482 204.892C734.482 200.443 735.316 196.273 736.984 192.381C738.732 188.488 741.075 185.073 744.014 182.134C747.033 179.194 750.528 176.891 754.5 175.223C758.472 173.555 762.721 172.721 767.249 172.721C771.777 172.721 776.027 173.555 779.998 175.223C783.97 176.891 787.426 179.194 790.365 182.134C793.383 185.073 795.726 188.488 797.395 192.381C799.142 196.273 800.016 200.443 800.016 204.892C800.016 209.34 799.142 213.51 797.395 217.403C795.726 221.295 793.383 224.711 790.365 227.65C787.426 230.589 783.97 232.892 779.998 234.561C776.027 236.229 771.777 237.063 767.249 237.063C762.721 237.063 758.472 236.229 754.5 234.561C750.528 232.892 747.033 230.589 744.014 227.65C741.075 224.711 738.732 221.295 736.984 217.403C735.316 213.51 734.482 209.34 734.482 204.892ZM749.495 204.772C749.495 207.235 749.972 209.578 750.925 211.802C751.878 214.027 753.149 216.013 754.738 217.76C756.327 219.428 758.193 220.779 760.338 221.811C762.562 222.764 764.906 223.241 767.368 223.241C769.751 223.241 772.015 222.764 774.16 221.811C776.305 220.779 778.171 219.428 779.76 217.76C781.428 216.013 782.699 214.027 783.573 211.802C784.526 209.578 785.003 207.235 785.003 204.772C785.003 202.389 784.526 200.086 783.573 197.862C782.699 195.637 781.428 193.691 779.76 192.023C778.171 190.355 776.305 189.044 774.16 188.091C772.015 187.058 769.751 186.542 767.368 186.542C764.906 186.542 762.562 187.058 760.338 188.091C758.193 189.044 756.327 190.355 754.738 192.023C753.149 193.691 751.878 195.637 750.925 197.862C749.972 200.086 749.495 202.389 749.495 204.772ZM820.94 204.772C820.94 207.235 821.377 209.578 822.251 211.802C823.204 214.027 824.475 215.973 826.064 217.641C827.652 219.309 829.479 220.659 831.545 221.692C833.69 222.645 835.953 223.122 838.336 223.122C840.72 223.122 842.944 222.645 845.009 221.692C847.154 220.659 848.981 219.309 850.49 217.641C852.079 215.973 853.31 214.027 854.184 211.802C855.137 209.578 855.614 207.235 855.614 204.772C855.614 202.31 855.137 200.006 854.184 197.862C853.31 195.637 852.079 193.691 850.49 192.023C848.981 190.355 847.154 189.044 845.009 188.091C842.944 187.058 840.72 186.542 838.336 186.542C835.953 186.542 833.69 187.058 831.545 188.091C829.479 189.044 827.652 190.355 826.064 192.023C824.475 193.691 823.204 195.637 822.251 197.862C821.377 200.006 820.94 202.31 820.94 204.772ZM805.927 204.892C805.927 200.443 806.682 196.273 808.191 192.381C809.78 188.488 811.885 185.073 814.506 182.134C817.207 179.194 820.344 176.891 823.919 175.223C827.494 173.555 831.306 172.721 835.358 172.721C839.171 172.721 842.785 173.475 846.201 174.984C849.616 176.494 852.595 178.559 855.137 181.18V174.865H870.865V233.012C870.865 238.969 869.872 244.013 867.886 248.144C865.9 252.354 863.319 255.809 860.141 258.51C857.043 261.211 853.469 263.157 849.418 264.349C845.446 265.62 841.434 266.255 837.383 266.255C830.949 266.255 825.19 264.944 820.106 262.323C815.102 259.702 810.812 256.445 807.238 252.553L817.723 242.901C820.265 245.284 823.164 247.389 826.421 249.216C829.678 251.043 833.332 251.957 837.383 251.957C839.687 251.957 841.871 251.599 843.937 250.884C846.081 250.17 847.988 249.057 849.656 247.548C851.324 246.039 852.635 244.132 853.588 241.829C854.621 239.525 855.137 236.745 855.137 233.488V228.603C852.595 231.224 849.616 233.25 846.201 234.68C842.785 236.189 839.171 236.944 835.358 236.944C831.306 236.944 827.494 236.11 823.919 234.441C820.344 232.773 817.207 230.47 814.506 227.531C811.885 224.591 809.78 221.176 808.191 217.283C806.682 213.391 805.927 209.261 805.927 204.892ZM880.439 157.231C880.439 154.609 881.353 152.385 883.18 150.558C885.086 148.652 887.35 147.699 889.971 147.699C892.593 147.699 894.817 148.652 896.644 150.558C898.55 152.385 899.504 154.609 899.504 157.231C899.504 159.852 898.55 162.116 896.644 164.022C894.817 165.849 892.593 166.763 889.971 166.763C887.35 166.763 885.086 165.849 883.18 164.022C881.353 162.116 880.439 159.852 880.439 157.231ZM882.107 174.865H897.835V234.441H882.107V174.865ZM954.489 199.053C953.376 195.479 951.351 192.5 948.412 190.117C945.473 187.654 942.136 186.423 938.403 186.423C936.497 186.423 934.67 186.741 932.922 187.376C931.174 188.012 929.586 188.925 928.156 190.117C926.726 191.229 925.455 192.54 924.343 194.049C923.31 195.558 922.516 197.226 921.96 199.053H954.489ZM921.722 209.896C922.834 213.709 924.939 216.926 928.037 219.547C931.135 222.089 934.709 223.36 938.76 223.36C941.62 223.36 944.281 222.685 946.744 221.335C949.206 219.905 951.232 218.038 952.82 215.734L966.523 221.335C963.584 226.101 959.692 229.914 954.846 232.773C950 235.633 944.599 237.063 938.641 237.063C934.114 237.063 929.864 236.229 925.892 234.561C922 232.892 918.584 230.589 915.645 227.65C912.706 224.711 910.362 221.295 908.615 217.403C906.947 213.51 906.113 209.34 906.113 204.892C906.113 200.443 906.947 196.273 908.615 192.381C910.362 188.488 912.706 185.073 915.645 182.134C918.584 179.194 922 176.891 925.892 175.223C929.864 173.555 934.114 172.721 938.641 172.721C942.931 172.721 946.942 173.515 950.676 175.104C954.489 176.613 957.825 178.718 960.684 181.419C963.624 184.04 965.967 187.138 967.714 190.713C969.541 194.287 970.614 198.14 970.932 202.27C971.09 204.574 970.455 206.441 969.025 207.87C967.595 209.221 965.53 209.896 962.829 209.896H921.722ZM976.172 190.951C976.172 187.535 976.887 184.675 978.317 182.372C979.747 179.989 981.574 178.082 983.798 176.653C986.022 175.223 988.485 174.23 991.186 173.674C993.886 173.038 996.468 172.721 998.93 172.721C1003.86 172.721 1008.14 173.753 1011.8 175.818C1015.45 177.804 1018.51 180.307 1020.97 183.325L1009.3 191.07C1008.11 189.64 1006.72 188.449 1005.13 187.495C1003.54 186.463 1001.59 185.946 999.288 185.946C997.62 185.946 995.952 186.304 994.284 187.019C992.695 187.734 991.901 189.005 991.901 190.832C991.901 192.579 992.814 193.969 994.641 195.002C996.547 196.035 999.01 197.107 1002.03 198.219C1004.17 198.934 1006.36 199.768 1008.58 200.721C1010.89 201.675 1012.99 202.906 1014.9 204.415C1016.8 205.924 1018.35 207.791 1019.54 210.015C1020.81 212.16 1021.45 214.861 1021.45 218.118C1021.45 221.613 1020.74 224.552 1019.31 226.935C1017.88 229.318 1016.05 231.264 1013.82 232.773C1011.6 234.203 1009.1 235.236 1006.32 235.871C1003.62 236.507 1001 236.824 998.454 236.824C993.211 236.824 988.644 235.712 984.751 233.488C980.938 231.264 977.523 228.484 974.504 225.148L986.181 216.688C987.452 218.276 989.081 219.825 991.066 221.335C993.132 222.764 995.555 223.479 998.335 223.479C999.129 223.479 999.963 223.4 1000.84 223.241C1001.71 223.082 1002.51 222.804 1003.22 222.407C1003.93 222.01 1004.53 221.494 1005.01 220.858C1005.48 220.143 1005.72 219.269 1005.72 218.237C1005.72 216.41 1004.73 214.9 1002.74 213.709C1000.84 212.517 997.818 211.167 993.688 209.658C991.781 208.943 989.795 208.148 987.73 207.275C985.744 206.321 983.878 205.17 982.13 203.819C980.382 202.389 978.953 200.642 977.841 198.577C976.728 196.511 976.172 193.969 976.172 190.951Z" fill="black"/>
</svg>
