<?xml version="1.0" encoding="UTF-8"?>
<svg width="40px" height="32px" viewBox="0 0 40 32" version="1.1" xmlns="http://www.w3.org/2000/svg" xmlns:xlink="http://www.w3.org/1999/xlink">
    <g id="Page-1" stroke="none" stroke-width="1" fill="#232629" fill-rule="evenodd">
        <g id="Brand-Logo" transform="translate(-387.000000, -5016.000000)" fill="#252B33">
            <g id="ic-technology-aws" transform="translate(387.000000, 5016.000000)">
                <path d="M11.6709183,20.0684662 L8.00789975,21.6419243 L11.4002918,23.0926812 L15.3339369,21.6419243 L11.6709183,20.0684662 Z M6.16377837,22.0352888 L6.0410404,29.1158501 L11.400255,31.4760372 L11.400255,24.1248861 L6.16377837,22.0352888 L6.16377837,22.0352888 Z M17.1780216,22.0352888 L12.3348726,23.8793734 L12.3348726,30.8120829 L17.1780216,28.8452603 L17.1780216,22.0352888 Z M22.9557513,0.00683920357 L19.2675453,1.58033403 L22.685088,3.03105413 L26.6187331,1.58033403 L22.9557513,0.00683920357 L22.9557513,0.00683920357 Z M17.8420126,2.09720868 L17.8420126,9.17776995 L22.4144982,10.5057521 L22.5623868,4.06399449 L17.8420126,2.09720868 L17.8420126,2.09720868 Z M28.0695635,2.49053643 L23.7425171,4.3346578 L23.7425171,11.2925179 L28.0695635,9.3256953 L28.0695635,2.49053643 L28.0695635,2.49053643 Z M5.63510058,9.97236774 L1.97208198,11.5458258 L5.36447403,12.9965827 L9.29811918,11.5458258 L5.63510058,9.97236774 L5.63510058,9.97236774 Z M0.127997371,11.9391903 L0.00525940637,19.0197883 L5.36447403,21.3799754 L5.36447403,14.0287509 L0.127997371,11.9391903 Z M11.1422406,11.9391903 L6.29912841,13.7832749 L6.29912841,20.7159476 L11.1422406,18.749125 L11.1422406,11.9391903 Z M17.4360728,9.71115429 L13.7730542,11.2846123 L17.1654462,12.7353692 L21.0990914,11.2846123 L17.4360728,9.71115429 Z M11.9289328,11.6780136 L11.8061949,18.7585749 L17.1654095,21.118762 L17.1654095,13.7683463 L11.9289328,11.6780136 Z M22.943176,11.6780136 L18.1000639,13.5220982 L18.1000639,20.4547709 L22.943176,18.4879483 L22.943176,11.6780136 Z M34.4821626,0.00683920357 L30.8191808,1.58029726 L34.2115728,3.03101736 L38.1451812,1.58029726 L34.4821626,0.00683920357 Z M28.9750226,1.97366178 L28.8523214,9.05422304 L34.211536,11.4144101 L34.211536,4.06399449 L28.9750226,1.97366178 Z M39.9892658,1.97366178 L35.1461537,3.81774639 L35.1461537,10.7504191 L39.9892658,8.78359649 L39.9892658,1.97366178 Z" id="Shape"></path>
            </g>
        </g>
    </g>
</svg>