<svg width="425" height="403" viewBox="0 0 425 403" fill="none" xmlns="http://www.w3.org/2000/svg">
<g clip-path="url(#clip0_499_3566)">
<path d="M202.514 0.5V86.0048H79.7052L75.2793 1.09275L202.514 0.5Z" fill="#E0E0E0"/>
<path d="M75.2793 1.10254V85.8269H198.088V1.10254H75.2793Z" fill="white"/>
<path d="M198.582 86.3112H74.7852V0.598877H198.582V86.3112ZM75.7731 85.3232H197.594V1.5868H75.7731V85.3232Z" fill="#E0E0E0"/>
<path d="M184.781 11.624H88.5771V75.2957H184.781V11.624Z" fill="white"/>
<path d="M184.781 11.6239H182.943H177.667L157.85 11.6931L88.5765 11.8116L88.8136 11.5745C88.8136 31.0267 88.8136 52.5832 88.8136 75.2363L88.5567 74.9795H184.761L184.563 75.1869C184.563 55.794 184.642 39.9082 184.672 28.8434C184.672 23.3111 184.672 18.9642 184.721 16.0004C184.721 14.5383 184.721 13.4121 184.721 12.6415C184.721 11.8709 184.721 11.4757 184.721 11.4757C184.721 11.4757 184.721 11.8413 184.721 12.5921C184.721 13.3429 184.721 14.4691 184.721 15.9214C184.721 18.8852 184.721 23.1629 184.771 28.6755C184.771 39.7699 184.84 55.7051 184.879 75.1079V75.3055H184.672L88.4678 75.3648H88.2109V75.1079C88.2109 52.4548 88.2109 30.8983 88.2109 11.4461V11.209H88.448L157.869 11.3275L177.628 11.3868H182.864H184.198L184.781 11.6239Z" fill="#E0E0E0"/>
<path d="M75.2793 0.855713C76.0225 1.24842 76.7242 1.71511 77.3737 2.24869C78.6185 3.16745 80.3375 4.45176 82.175 5.93364C84.0125 7.41553 85.6525 8.8085 86.7985 9.88534C87.4611 10.4038 88.0582 11.001 88.5768 11.6636C87.8767 11.22 87.2157 10.7177 86.6009 10.162L81.8984 6.36833C80.13 4.9556 78.5394 3.66141 77.186 2.5747C76.4922 2.06984 75.8531 1.4937 75.2793 0.855713Z" fill="#E0E0E0"/>
<path d="M198.108 1.08276C196.057 3.03362 193.89 4.85805 191.617 6.54598C189.45 8.37231 187.174 10.0648 184.801 11.614C186.853 9.6611 189.02 7.83343 191.291 6.14093C193.46 4.31951 195.736 2.63039 198.108 1.08276Z" fill="#E0E0E0"/>
<path d="M184.277 74.7327C186.716 76.3774 189.055 78.1654 191.282 80.0872C193.619 81.8705 195.853 83.787 197.97 85.827C195.528 84.1867 193.185 82.4019 190.956 80.4824C188.621 78.6961 186.391 76.7763 184.277 74.7327Z" fill="#E0E0E0"/>
<path d="M75.2793 85.817C77.3084 83.8874 79.4529 82.0827 81.7008 80.4131C83.8467 78.6087 86.1 76.936 88.4483 75.4043C86.4217 77.3437 84.2736 79.152 82.0169 80.8181C79.8799 82.6263 77.6294 84.2961 75.2793 85.817Z" fill="#E0E0E0"/>
<path d="M126.325 32.2914V53.6108H151.458V32.2914H126.325Z" fill="#E0E0E0"/>
<path d="M91.5209 103.778V160.682L7.67578 159.882L8.1895 104.39L91.5209 103.778Z" fill="#E0E0E0"/>
<path d="M8.18945 104.39V159.882H88.6262V104.39H8.18945Z" fill="white"/>
<path d="M89.1101 160.366H7.69531V103.886H89.1101V160.366ZM8.68324 159.378H88.1222V104.874H8.68324V159.378Z" fill="#E0E0E0"/>
<path d="M79.9131 111.276H16.9033V152.976H79.9131V111.276Z" fill="white"/>
<path d="M79.9131 111.276H79.597H78.698H75.2304L62.2392 111.335L16.9033 111.454L17.1306 111.217C17.1306 123.961 17.1306 138.078 17.1306 152.917L16.8737 152.65L79.8835 152.709L79.676 152.917C79.676 140.232 79.7551 129.839 79.7847 122.588C79.7847 118.972 79.7847 116.136 79.7847 114.19C79.7847 113.202 79.7847 112.501 79.7847 111.977C79.7847 111.454 79.7847 111.207 79.7847 111.207C79.7847 111.207 79.7847 111.444 79.7847 111.938C79.7847 112.432 79.7847 113.173 79.7847 114.111C79.7847 116.087 79.7847 118.863 79.844 122.459C79.844 129.74 79.9033 140.182 79.9428 152.917V153.114H79.7452L16.9033 153.223L16.6465 152.966C16.6465 138.147 16.6465 124.01 16.6465 111.266V111.029H16.8836L62.3775 111.147L75.3094 111.217H78.7276H79.6069L79.9131 111.276Z" fill="#E0E0E0"/>
<path d="M8.18945 104.232C9.79414 105.196 11.3056 106.307 12.7043 107.551C14.2117 108.666 15.6169 109.912 16.9029 111.276C15.2944 110.309 13.7796 109.195 12.3783 107.947C10.8715 106.839 9.46938 105.595 8.18945 104.232Z" fill="#E0E0E0"/>
<path d="M88.6167 104.38C87.338 105.727 85.9356 106.951 84.4279 108.035C83.0258 109.252 81.5145 110.337 79.9131 111.276C81.1965 109.937 82.5985 108.717 84.1019 107.63C85.5075 106.415 87.0184 105.328 88.6167 104.38Z" fill="#E0E0E0"/>
<path d="M79.5566 152.611C81.2048 153.619 82.7617 154.769 84.2098 156.049C85.7582 157.198 87.2028 158.48 88.527 159.882C86.8799 158.88 85.3259 157.733 83.8837 156.454C82.3293 155.305 80.8812 154.018 79.5566 152.611Z" fill="#E0E0E0"/>
<path d="M8.18945 159.872C9.45677 158.543 10.846 157.336 12.3387 156.266C13.7271 155.058 15.2254 153.983 16.814 153.055C15.5406 154.384 14.1484 155.595 12.6549 156.671C11.2703 157.876 9.77524 158.948 8.18945 159.872Z" fill="#E0E0E0"/>
<path d="M28.5801 125.255V139.214H68.2255V125.255H28.5801Z" fill="#E0E0E0"/>
<path d="M407.044 106.712H344.598L345.477 18.4407L406.373 18.0554L407.044 106.712Z" fill="#E0E0E0"/>
<path d="M401.255 18.4407H340.359V106.712H401.255V18.4407Z" fill="white"/>
<path d="M401.749 107.206H339.865V17.9468H401.749V107.206ZM340.853 106.218H400.761V18.9347H340.853V106.218Z" fill="#E0E0E0"/>
<path d="M393.697 28.0039H347.927V97.1586H393.697V28.0039Z" fill="white"/>
<path d="M393.717 97.1486C393.717 97.1486 393.717 97.0301 393.717 96.8127V95.8248C393.717 94.9455 393.717 93.6711 393.717 92.0213C393.717 88.692 393.717 83.861 393.648 77.7655C393.648 65.5746 393.579 48.3155 393.529 28.0038L393.767 28.2409H348.006L348.263 27.9841C348.263 54.0653 348.263 78.1113 348.203 97.1387L348.006 96.9412L381.289 97.0498H390.506H392.927H393.767C393.767 97.0498 393.51 97.0498 392.966 97.0498H390.585L381.417 97.0992L348.006 97.2079H347.798V97.0004C347.798 77.9829 347.798 53.9368 347.749 27.8457V27.7568H348.006H393.717H393.954V27.9939C393.954 48.3748 393.865 65.6832 393.836 77.9137C393.836 83.9895 393.836 88.7809 393.776 92.1201C393.776 93.7403 393.776 94.9949 393.776 95.8742C393.776 96.2792 393.776 96.5954 393.776 96.8621C393.765 96.9592 393.745 97.0551 393.717 97.1486Z" fill="#E0E0E0"/>
<path d="M401.423 18.4407C400.385 20.2147 399.185 21.8882 397.837 23.4396C396.619 25.1037 395.228 26.6337 393.688 28.0038C394.833 26.3009 396.084 24.6709 397.432 23.1234C398.646 21.4674 399.98 19.9023 401.423 18.4407Z" fill="#E0E0E0"/>
<path d="M401.255 106.712C399.81 105.288 398.488 103.744 397.303 102.098C395.972 100.554 394.773 98.9019 393.717 97.1584C395.159 98.5886 396.48 100.135 397.668 101.782C398.999 103.323 400.198 104.972 401.255 106.712Z" fill="#E0E0E0"/>
<path d="M348.322 96.8027C347.2 98.5947 345.935 100.293 344.538 101.881C343.274 103.58 341.874 105.172 340.35 106.642C341.472 104.85 342.737 103.152 344.133 101.565C345.4 99.8681 346.801 98.2758 348.322 96.8027Z" fill="#E0E0E0"/>
<path d="M340.369 18.4407C341.814 19.8499 343.136 21.3802 344.321 23.0148C345.643 24.554 346.826 26.207 347.858 27.9544C346.412 26.5451 345.09 25.0149 343.906 23.3803C342.584 21.841 341.4 20.1881 340.369 18.4407Z" fill="#E0E0E0"/>
<path d="M379.431 42.0422H364.108V85.5504H379.431V42.0422Z" fill="#E0E0E0"/>
<path d="M424.343 401.548C424.343 401.686 329.69 401.805 212.927 401.805C96.1647 401.805 1.51172 401.686 1.51172 401.548C1.51172 401.41 96.145 401.291 212.927 401.291C329.71 401.291 424.343 401.41 424.343 401.548Z" fill="#263238"/>
<path d="M89.0024 363.611H77.2461V401.548H89.0024V363.611Z" fill="#263238"/>
<path d="M211.317 363.612H199.561V401.548H211.317V363.612Z" fill="#263238"/>
<path d="M137.331 363.612H125.575V401.548H137.331V363.612Z" fill="#263238"/>
<path d="M252.889 363.611H241.133V401.548H252.889V363.611Z" fill="#263238"/>
<path d="M253.165 367.494C257.161 367.528 261.044 366.164 264.141 363.638C267.239 361.113 269.356 357.584 270.128 353.663C272.943 339.368 276.569 319.372 276.678 296.927C276.747 283.155 273.714 265.718 269.406 252.628C263.192 233.502 249.875 216.648 230.532 211.135C205.419 203.973 196.32 206.719 178.508 216.075C159.134 226.231 153.889 245.288 133.725 253.774C114.144 262.004 90.533 259.198 72.6812 270.707C56.9732 280.833 49.3168 300.286 48.6944 318.967C48.2299 328.89 49.1947 338.828 51.5594 348.477C52.7238 353.434 55.5198 357.857 59.4988 361.035C63.4777 364.213 68.4089 365.962 73.5012 366.002L253.165 367.494Z" fill="#455A64"/>
<path d="M102.932 306.055L48.9911 377.383L30.1514 373.214L73.62 296.946L102.932 306.055Z" fill="#FFBE9D"/>
<path d="M49.5938 376.494L32.3347 402.368L0 381.048C2.22283 378.085 23.0384 382.916 23.0384 382.916L33.4215 365.864L49.5938 376.494Z" fill="#0E53BE"/>
<g opacity="0.6">
<path opacity="0.6" d="M33.965 388.102C34.2127 388.401 34.3415 388.781 34.3269 389.169C34.3123 389.557 34.1554 389.927 33.886 390.206C33.5958 390.467 33.2167 390.606 32.8269 390.595C32.4372 390.584 32.0666 390.424 31.7916 390.147C31.5271 389.83 31.3906 389.425 31.4089 389.012C31.4271 388.599 31.5988 388.207 31.8904 387.914C32.221 387.677 32.6305 387.576 33.0336 387.634C33.4366 387.691 33.8021 387.901 34.0539 388.221" fill="white"/>
</g>
<g opacity="0.6">
<path opacity="0.6" d="M32.3347 402.368L33.9747 399.69L2.36114 380.248C2.36114 380.248 0.503841 379.932 0 381.048L32.3347 402.368Z" fill="white"/>
</g>
<path d="M22.6232 382.422C22.5244 382.58 23.2654 383.172 23.7099 384.2C24.1545 385.227 24.1249 386.176 24.3126 386.176C24.5003 386.176 24.8658 385.138 24.3126 383.913C23.7593 382.688 22.6825 382.234 22.6232 382.422Z" fill="#263238"/>
<path d="M18.3057 381.572C18.1674 381.7 18.6811 382.421 18.77 383.439C18.859 384.457 18.5626 385.267 18.77 385.415C18.9775 385.563 19.6197 384.684 19.4813 383.439C19.343 382.194 18.4144 381.434 18.3057 381.572Z" fill="#263238"/>
<path d="M13.7021 384.397C13.8306 384.526 14.5715 383.884 14.69 382.747C14.8086 381.611 14.3443 380.772 14.1961 380.87C14.0479 380.969 14.1961 381.73 14.038 382.649C13.8799 383.567 13.5638 384.239 13.7021 384.397Z" fill="#263238"/>
<path d="M25.4189 378.776C25.4189 378.964 26.2587 379.231 27.1083 379.873C27.9579 380.515 28.4716 381.266 28.6495 381.187C28.8273 381.108 28.521 380.1 27.5035 379.349C26.4859 378.598 25.4288 378.608 25.4189 378.776Z" fill="#263238"/>
<path d="M28.7187 375.447C28.7187 375.516 29.2325 376.02 30.3488 376.514C31.0007 376.793 31.6841 376.992 32.3839 377.106C32.7986 377.177 33.218 377.217 33.6386 377.225C33.8872 377.242 34.1368 377.222 34.3795 377.166C34.5563 377.122 34.7135 377.02 34.8262 376.877C34.9389 376.734 35.0007 376.557 35.0019 376.375C35 376.212 34.9575 376.051 34.8782 375.908C34.7989 375.765 34.6852 375.644 34.5475 375.555C34.3414 375.422 34.1189 375.316 33.8856 375.239C33.4839 375.098 33.0707 374.992 32.6507 374.923C31.944 374.809 31.2235 374.809 30.5168 374.923C29.3016 375.121 28.6595 375.536 28.699 375.605C28.7385 375.674 29.4202 375.457 30.5662 375.377C31.2279 375.345 31.8912 375.392 32.542 375.516C32.9242 375.6 33.3004 375.708 33.6682 375.842C34.0634 375.98 34.3598 376.168 34.3499 376.385C34.34 376.603 34.3499 376.484 34.1918 376.543C34.0114 376.566 33.8289 376.566 33.6485 376.543C33.2553 376.543 32.8625 376.517 32.4729 376.464C31.8017 376.384 31.14 376.238 30.497 376.03C29.9162 375.801 29.3224 375.606 28.7187 375.447Z" fill="#263238"/>
<path d="M28.7783 375.812C28.7783 375.872 29.4995 375.516 30.2306 374.528C30.6732 373.954 31.0079 373.305 31.2185 372.611C31.3456 372.204 31.4252 371.783 31.4556 371.357C31.5113 371.085 31.495 370.804 31.4084 370.54C31.3217 370.277 31.1677 370.041 30.9617 369.855C30.815 369.759 30.6432 369.707 30.4677 369.707C30.2921 369.707 30.1204 369.759 29.9737 369.855C29.7632 369.988 29.5735 370.151 29.4106 370.339C29.1179 370.664 28.8748 371.03 28.6894 371.426C28.3824 372.094 28.2433 372.826 28.2844 373.56C28.3634 374.815 28.8969 375.437 28.9463 375.388C28.8391 374.78 28.7731 374.166 28.7487 373.55C28.774 372.902 28.9427 372.268 29.2427 371.693C29.412 371.357 29.6282 371.048 29.8848 370.774C30.1614 370.468 30.4776 370.28 30.5764 370.398C30.6752 370.517 30.8431 370.942 30.7937 371.297C30.7713 371.684 30.7118 372.068 30.6159 372.443C30.4535 373.082 30.2007 373.694 29.8651 374.261C29.2624 375.249 28.7092 375.733 28.7783 375.812Z" fill="#263238"/>
<path d="M146.243 275.064H97.1528C91.8665 275.064 86.6678 276.414 82.0497 278.987C77.4316 281.559 73.5474 285.269 70.7654 289.764L47.9443 326.643L76.3373 343.823L99.8005 313.06L126.474 310.876L183.833 275.064H146.243Z" fill="#263238"/>
<path d="M120.507 306.055L66.5662 377.383L47.7363 373.214L91.1951 296.946L120.507 306.055Z" fill="#FFBE9D"/>
<path d="M67.1789 376.494L49.9198 402.368L17.5752 381.048C19.8079 378.085 40.6235 382.916 40.6235 382.916L50.9967 365.864L67.1789 376.494Z" fill="#0E53BE"/>
<g opacity="0.6">
<path opacity="0.6" d="M51.5402 388.102C51.7899 388.4 51.9201 388.781 51.9055 389.169C51.8909 389.558 51.7326 389.928 51.4612 390.206C51.171 390.467 50.7919 390.606 50.4021 390.595C50.0124 390.584 49.6418 390.424 49.3668 390.147C49.1022 389.83 48.9658 389.425 48.984 389.012C49.0023 388.599 49.174 388.207 49.4656 387.914C49.7962 387.677 50.2057 387.576 50.6088 387.634C51.0118 387.691 51.3773 387.901 51.6291 388.221" fill="white"/>
</g>
<g opacity="0.6">
<path opacity="0.6" d="M49.9197 402.368L51.5597 399.69L19.9461 380.248C19.9461 380.248 18.0888 379.932 17.585 381.048L49.9197 402.368Z" fill="white"/>
</g>
<path d="M40.1983 382.422C40.0995 382.58 40.8503 383.172 41.285 384.2C41.7197 385.227 41.7098 386.176 41.8975 386.176C42.0852 386.176 42.4409 385.138 41.8975 383.913C41.3542 382.688 40.2675 382.234 40.1983 382.422Z" fill="#263238"/>
<path d="M35.891 381.572C35.7527 381.7 36.2566 382.421 36.3554 383.439C36.4542 384.457 36.138 385.267 36.2961 385.415C36.4542 385.563 37.1457 384.684 37.0074 383.439C36.8691 382.194 35.9898 381.434 35.891 381.572Z" fill="#263238"/>
<path d="M31.2873 384.397C31.4059 384.526 32.1468 383.884 32.2753 382.747C32.4037 381.611 31.9196 380.772 31.7714 380.87C31.6232 380.969 31.7714 381.73 31.6232 382.649C31.4751 383.567 31.149 384.239 31.2873 384.397Z" fill="#263238"/>
<path d="M43.0039 378.776C43.0039 378.964 43.8338 379.231 44.6933 379.873C45.5527 380.515 46.0566 381.266 46.2245 381.187C46.3925 381.108 46.0961 380.1 45.0884 379.349C44.0807 378.598 43.0039 378.608 43.0039 378.776Z" fill="#263238"/>
<path d="M46.2939 375.447C46.2939 375.516 46.8175 376.02 47.924 376.514C48.5759 376.793 49.2593 376.992 49.9591 377.106C50.3738 377.177 50.7932 377.217 51.2138 377.225C51.4623 377.242 51.7121 377.222 51.9547 377.166C52.1324 377.123 52.2905 377.022 52.4035 376.879C52.5164 376.735 52.5776 376.558 52.5771 376.375C52.5722 376.213 52.5294 376.055 52.4522 375.913C52.375 375.77 52.2655 375.648 52.1325 375.555C51.922 375.424 51.6965 375.318 51.4608 375.239C51.0621 375.099 50.6523 374.994 50.2357 374.923C49.5257 374.809 48.802 374.809 48.0919 374.923C46.8867 375.121 46.2346 375.536 46.2742 375.605C46.3137 375.674 47.0052 375.457 48.1413 375.378C48.8031 375.346 49.4663 375.392 50.1172 375.516C50.4964 375.598 50.8695 375.707 51.2335 375.842C51.6287 375.98 51.9251 376.168 51.9152 376.385C51.9053 376.603 51.9152 376.484 51.7571 376.543C51.5767 376.566 51.3942 376.566 51.2138 376.543C50.8206 376.543 50.4279 376.516 50.0382 376.464C49.3667 376.386 48.7048 376.24 48.0623 376.03C47.4849 375.8 46.8944 375.606 46.2939 375.447Z" fill="#263238"/>
<path d="M46.3536 375.812C46.3536 375.871 47.0847 375.516 47.8157 374.528C48.2507 373.949 48.5847 373.301 48.8037 372.611C48.9212 372.201 49.0006 371.781 49.0407 371.357C49.0935 371.085 49.0758 370.804 48.9893 370.542C48.9029 370.279 48.7505 370.042 48.5468 369.855C48.3992 369.761 48.2278 369.711 48.0528 369.711C47.8778 369.711 47.7064 369.761 47.5589 369.855C47.3512 369.988 47.1648 370.151 47.0056 370.339C46.7067 370.659 46.463 371.026 46.2844 371.426C45.9701 372.091 45.8274 372.825 45.8695 373.56C45.9485 374.814 46.482 375.437 46.5314 375.387C46.4303 374.779 46.3643 374.166 46.3338 373.55C46.3642 372.903 46.5326 372.269 46.8278 371.693C47.0007 371.36 47.2166 371.051 47.4699 370.774C47.7466 370.468 48.0627 370.28 48.1714 370.398C48.2681 370.525 48.3374 370.67 48.3748 370.825C48.4122 370.98 48.4169 371.141 48.3887 371.297C48.306 372.351 47.9669 373.369 47.4008 374.261C46.8476 375.249 46.2844 375.733 46.3536 375.812Z" fill="#263238"/>
<path d="M163.818 275.064H113.029C108.262 275.065 103.575 276.283 99.412 278.603C95.2487 280.923 91.7471 284.269 89.2395 288.322L65.5293 326.643L93.9222 343.823L119.282 310.58L144.099 310.876L199.304 276.408L163.818 275.064Z" fill="#263238"/>
<path d="M93.9024 343.823C93.7147 343.741 93.5331 343.645 93.3591 343.537L91.8179 342.638L85.9892 339.19L65.3909 326.841L65.1934 326.722L65.3218 326.525C69.8267 319.234 74.9046 310.649 80.5655 301.698C85.1692 294.427 89.7927 287.63 94.3964 281.742C95.5535 280.285 97.0491 279.132 98.7531 278.383C100.319 277.652 101.954 277.08 103.633 276.674C106.633 275.953 109.686 275.47 112.762 275.232C117.208 274.882 121.67 274.773 126.129 274.906C127.699 274.906 128.924 275.005 129.754 275.054L130.742 275.113H131.058H129.794L126.158 275.064C123.017 275.064 118.442 275.064 112.841 275.558C109.787 275.816 106.757 276.314 103.782 277.05C102.131 277.452 100.526 278.021 98.9902 278.749C97.3548 279.474 95.9205 280.586 94.8113 281.989C90.257 287.917 85.6533 294.664 81.0594 301.935C75.3986 310.876 70.3108 319.441 65.7664 326.722L65.6873 326.406L86.1275 338.953L91.8871 342.509L93.3986 343.497C93.5786 343.586 93.7477 343.695 93.9024 343.823Z" fill="#455A64"/>
<path d="M72.1187 330.457C72.2373 330.536 67.7323 338.577 62.0617 348.417C56.391 358.257 51.6687 366.2 51.5501 366.121C51.4316 366.042 55.9266 358.01 61.6072 348.16C67.2878 338.311 72.0002 330.388 72.1187 330.457Z" fill="#EB996E"/>
<path d="M239.414 214.662C239.485 214.776 239.548 214.895 239.602 215.018L240.115 216.095C240.56 217.083 241.202 218.446 242.032 220.224C242.437 221.123 242.901 222.131 243.405 223.188C243.909 224.245 244.324 225.529 244.838 226.833C245.351 228.137 245.885 229.55 246.458 231.032C247.031 232.514 247.574 234.124 248.108 235.804C248.641 237.483 249.204 239.261 249.797 241.099C250.103 242.018 250.35 242.976 250.597 243.944C250.844 244.912 251.101 245.92 251.358 246.908L252.148 249.98C252.287 250.504 252.415 251.028 252.553 251.561C252.692 252.095 252.771 252.638 252.889 253.181C253.324 255.355 253.772 257.591 254.233 259.889C255.996 269.906 257.049 280.034 257.384 290.199C257.588 300.353 257.189 310.51 256.189 320.617C255.626 325.26 255.201 329.686 254.46 333.796C254.124 335.851 253.848 337.836 253.472 339.723C253.097 341.61 252.761 343.448 252.425 345.187C251.793 348.664 251.022 351.776 250.449 354.513L249.57 358.326C249.254 359.492 248.977 360.559 248.72 361.517C248.207 363.404 247.811 364.876 247.535 365.913L247.209 367.049C247.176 367.181 247.133 367.31 247.08 367.435C247.095 367.301 247.122 367.169 247.159 367.039C247.225 366.75 247.314 366.364 247.426 365.884C247.683 364.896 248.058 363.364 248.523 361.468C248.77 360.48 249.036 359.432 249.333 358.277C249.629 357.121 249.866 355.817 250.173 354.453C250.765 351.707 251.516 348.595 252.148 345.117C252.465 343.379 252.81 341.551 253.136 339.664C253.462 337.777 253.739 335.772 254.055 333.737C254.747 329.637 255.181 325.221 255.735 320.577C256.706 310.489 257.092 300.352 256.89 290.219C256.571 280.093 255.548 270.001 253.828 260.018C253.383 257.726 252.939 255.493 252.514 253.32L252.188 251.709C252.059 251.176 251.921 250.652 251.793 250.138L251.012 247.066C250.765 246.078 250.508 245.09 250.261 244.102C250.014 243.114 249.787 242.126 249.481 241.267L247.831 235.972C247.308 234.282 246.843 232.672 246.221 231.2C245.598 229.728 245.134 228.305 244.64 226.991C244.146 225.677 243.721 224.433 243.247 223.336L241.914 220.323C241.133 218.535 240.521 217.132 240.086 216.154C239.888 215.69 239.74 215.334 239.622 215.067C239.537 214.941 239.467 214.805 239.414 214.662Z" fill="#263238"/>
<path d="M110.361 344.209C110.435 345.241 110.435 346.278 110.361 347.311C110.361 349.227 110.282 351.875 110.361 354.789C110.44 357.704 110.628 360.342 110.786 362.258C110.919 363.283 110.985 364.316 110.984 365.35C110.696 364.351 110.511 363.325 110.43 362.288C109.796 357.318 109.653 352.298 110.006 347.301C110.02 346.261 110.139 345.225 110.361 344.209Z" fill="#263238"/>
<path d="M154.956 227.969L144.899 262.379L107.684 266.37V272.979L162.375 273.74L169.824 228.928L154.956 227.969Z" fill="#FFBE9D"/>
<path d="M226.482 205.405C222.086 195.319 209.687 191.861 203.048 191.841C193.831 191.841 194.661 191.258 185.602 192.888H184.406C156.873 191.772 153.702 229.6 153.702 229.6L166.258 230.587L162.939 256.649L153.326 275.093L206.21 275.005L209.174 231.941L232.686 231.269C232.686 231.269 230.542 214.731 226.482 205.405Z" fill="#0E53BE"/>
<path d="M167.779 213.585C167.917 213.585 166.989 222.783 165.705 234.095C164.42 245.406 163.254 254.565 163.116 254.555C162.978 254.545 163.907 245.347 165.191 234.035C166.475 222.724 167.641 213.566 167.779 213.585Z" fill="#263238"/>
<path d="M205.784 191.752C205.83 191.903 205.853 192.059 205.853 192.217C205.853 192.533 205.913 192.987 205.923 193.57C205.957 195.244 205.72 196.912 205.221 198.51C204.586 200.927 203.337 203.139 201.595 204.931C200.548 205.989 199.284 206.808 197.891 207.332C196.39 207.845 194.814 208.105 193.228 208.102C191.656 208.146 190.084 208.034 188.535 207.766C187.062 207.523 185.667 206.934 184.465 206.047C182.513 204.456 181.156 202.253 180.612 199.794C180.19 198.183 180.01 196.518 180.078 194.854C180.078 194.271 180.148 193.817 180.177 193.511C180.183 193.353 180.209 193.197 180.256 193.046C180.256 193.046 180.256 193.698 180.256 194.864C180.27 196.504 180.499 198.135 180.938 199.715C181.508 202.071 182.842 204.173 184.732 205.692C185.88 206.521 187.206 207.069 188.604 207.292C190.122 207.539 191.66 207.645 193.198 207.608C194.726 207.613 196.245 207.366 197.693 206.877C199.023 206.384 200.232 205.613 201.24 204.615C202.95 202.889 204.194 200.758 204.856 198.421C205.373 196.864 205.656 195.239 205.695 193.6C205.755 192.384 205.745 191.752 205.784 191.752Z" fill="#263238"/>
<g opacity="0.2">
<path opacity="0.2" d="M208.205 213.585C205.943 224.364 203.008 235.448 200.746 246.187C200.272 248.479 199.758 250.85 198.355 252.727C197.433 253.864 196.351 254.862 195.145 255.691C190.699 259.02 186.006 262.152 180.79 264.049C188.335 263.414 195.81 262.115 203.127 260.166C203.738 260.13 204.337 259.973 204.887 259.704C205.438 259.436 205.93 259.062 206.336 258.603C206.742 258.144 207.053 257.61 207.252 257.03C207.45 256.451 207.532 255.838 207.494 255.226C209.114 241.395 208.649 227.456 208.205 213.546" fill="black"/>
</g>
<path d="M135.128 261.559L151.528 259.583L163.077 267.16L207.266 256.57L208.551 231.921L228.388 231.427L227.924 260.364C227.877 262.577 227.392 264.759 226.498 266.784C225.605 268.81 224.319 270.639 222.716 272.165C221.113 273.692 219.224 274.887 217.157 275.681C215.091 276.475 212.888 276.853 210.675 276.793L145.956 275.005L143.209 269.492L129.329 269.087L135.128 261.559Z" fill="#FFBE9D"/>
<path d="M207.266 256.57C206.994 256.68 206.713 256.766 206.427 256.827L204.026 257.449L195.135 259.662L165.833 266.755L163.106 267.417H162.997L162.909 267.358L151.37 259.761H151.528L135.118 261.658L135.227 261.598L130.929 267.16L129.764 268.603C129.636 268.776 129.494 268.938 129.339 269.087C129.439 268.898 129.558 268.719 129.695 268.553L130.791 267.052L135.01 261.46V261.411H135.079L151.468 259.366H151.547H151.626L163.185 266.933H162.988L165.714 266.281L195.046 259.366L203.937 257.321L206.367 256.787C206.662 256.695 206.962 256.622 207.266 256.57Z" fill="#EB996E"/>
<path d="M144.642 266.261C142.531 266.516 140.404 266.601 138.28 266.518H137.114L137.272 266.459C135.994 267.641 134.612 268.706 133.143 269.64C134.305 268.343 135.577 267.15 136.946 266.074L137.015 266.014H138.28C140.404 265.922 142.532 266.005 144.642 266.261Z" fill="#EB996E"/>
<path d="M214.982 260.699C214.201 259.334 213.095 258.181 211.764 257.342C210.432 256.503 208.915 256.004 207.346 255.888C207.801 255.722 208.293 255.684 208.768 255.78C209.931 255.89 211.051 256.272 212.038 256.896C213.028 257.521 213.859 258.367 214.469 259.366C214.903 260.136 215.042 260.68 214.982 260.699Z" fill="#EB996E"/>
<path d="M233.09 231.427C232.505 231.519 231.914 231.565 231.322 231.566L226.491 231.743C222.421 231.872 216.78 232.01 210.556 232.139H208.58H208.333V231.892C208.106 226.112 208.205 220.975 208.333 217.28C208.392 215.433 208.462 213.951 208.531 212.923C208.537 212.394 208.583 211.865 208.669 211.343C208.732 211.87 208.749 212.403 208.718 212.933C208.718 214.04 208.718 215.502 208.718 217.29C208.718 220.975 208.659 226.112 208.886 231.862L208.629 231.625H210.605C216.829 231.506 222.46 231.417 226.55 231.388H231.381C231.951 231.36 232.522 231.373 233.09 231.427Z" fill="#263238"/>
<path d="M251.703 297.351C249.801 295.908 248.005 294.33 246.329 292.629C244.54 291.048 242.863 289.345 241.311 287.531C243.215 288.972 245.011 290.55 246.685 292.254C248.477 293.831 250.154 295.535 251.703 297.351Z" fill="#FAFAFA"/>
<path d="M239.038 347.844C238.401 348.345 237.712 348.775 236.983 349.129C235.699 349.879 233.92 350.907 231.974 352.092C230.028 353.278 228.309 354.394 227.035 355.194C226.384 355.674 225.689 356.09 224.96 356.439C225.519 355.853 226.145 355.335 226.827 354.898C228.032 354.009 229.791 352.843 231.688 351.648C233.585 350.452 235.452 349.474 236.795 348.812C237.503 348.405 238.256 348.08 239.038 347.844Z" fill="#FAFAFA"/>
<path d="M261.988 243.124C260.567 241.591 259.282 239.939 258.145 238.185C256.857 236.547 255.707 234.806 254.707 232.978C257.409 236.154 259.844 239.548 261.988 243.124Z" fill="#FAFAFA"/>
<path d="M266.424 256.056C265.036 259.673 263.334 263.16 261.336 266.479C262.714 262.863 264.407 259.376 266.394 256.056H266.424Z" fill="#FAFAFA"/>
<path d="M270.04 297.46C268.492 294.951 267.09 292.355 265.841 289.685C264.444 287.087 263.194 284.412 262.097 281.673C263.649 284.179 265.051 286.776 266.295 289.448C267.7 292.043 268.95 294.718 270.04 297.46Z" fill="#FAFAFA"/>
<path d="M269.555 315.747C268.384 317.901 267.064 319.971 265.604 321.941C264.267 324.017 262.788 325.997 261.178 327.868C263.701 323.648 266.514 319.608 269.595 315.776L269.555 315.747Z" fill="#FAFAFA"/>
<path d="M263.598 354.315C262.898 355.426 262.062 356.445 261.108 357.348C260.272 358.357 259.309 359.253 258.243 360.016C258.934 358.901 259.771 357.884 260.733 356.992C261.565 355.977 262.528 355.077 263.598 354.315Z" fill="#FAFAFA"/>
<path d="M57.7041 308.199C58.2683 305.505 59.0008 302.849 59.8973 300.246C60.6316 297.59 61.5324 294.984 62.5943 292.441C62.0234 295.145 61.2877 297.81 60.3913 300.424C59.6595 303.069 58.762 305.666 57.7041 308.199Z" fill="#FAFAFA"/>
<path d="M75.8237 282.246C75.8237 282.394 73.5021 282.048 70.6568 282.147C67.8116 282.246 65.5493 282.73 65.5098 282.582C67.1361 281.915 68.8793 281.579 70.6371 281.594C72.3921 281.467 74.1549 281.688 75.8237 282.246Z" fill="#FAFAFA"/>
<path d="M206.259 159.269L203.769 194.558C203.574 197.334 202.334 199.932 200.299 201.829C198.264 203.727 195.586 204.782 192.803 204.783C191.297 204.784 189.807 204.475 188.426 203.876C187.044 203.277 185.8 202.401 184.771 201.301C183.742 200.202 182.95 198.903 182.443 197.484C181.937 196.066 181.727 194.559 181.828 193.056C182.045 189.697 182.242 186.951 182.242 186.951C182.242 186.951 173.707 185.627 173.598 177.072C173.499 169.455 175.574 146.901 176.028 142.129H191.44C193.549 142.253 195.611 142.799 197.505 143.733C199.399 144.668 201.087 145.973 202.468 147.57C203.85 149.168 204.897 151.027 205.548 153.036C206.199 155.046 206.441 157.165 206.259 159.269Z" fill="#FFBE9D"/>
<path d="M182.233 186.813C186.176 186.883 190.052 185.779 193.367 183.641C193.367 183.641 190.729 189.786 182.213 189.026L182.233 186.813Z" fill="#EB996E"/>
<path d="M177.362 162.628C177.36 162.946 177.481 163.251 177.701 163.48C177.92 163.709 178.221 163.843 178.538 163.853C178.693 163.865 178.849 163.847 178.997 163.798C179.145 163.749 179.282 163.671 179.4 163.569C179.517 163.467 179.613 163.343 179.683 163.204C179.752 163.064 179.793 162.912 179.803 162.757C179.805 162.439 179.684 162.132 179.465 161.901C179.245 161.671 178.945 161.535 178.627 161.522C178.471 161.511 178.315 161.531 178.167 161.581C178.019 161.631 177.882 161.71 177.765 161.812C177.647 161.915 177.551 162.04 177.482 162.18C177.413 162.32 177.372 162.473 177.362 162.628Z" fill="#263238"/>
<path d="M176.592 160.949C176.74 161.107 177.669 160.425 178.973 160.425C180.277 160.425 181.255 161.087 181.393 160.929C181.531 160.771 181.304 160.563 180.889 160.257C180.307 159.862 179.617 159.655 178.913 159.664C178.233 159.664 177.569 159.878 177.017 160.277C176.651 160.593 176.513 160.88 176.592 160.949Z" fill="#263238"/>
<path d="M189.711 162.984C189.706 163.302 189.826 163.609 190.047 163.839C190.267 164.068 190.569 164.201 190.887 164.209C191.046 164.228 191.207 164.214 191.36 164.168C191.513 164.122 191.655 164.044 191.777 163.94C191.899 163.836 191.997 163.708 192.067 163.564C192.136 163.419 192.175 163.262 192.181 163.102C192.184 162.784 192.063 162.477 191.843 162.247C191.624 162.016 191.323 161.88 191.005 161.868C190.846 161.85 190.684 161.865 190.531 161.913C190.378 161.96 190.236 162.039 190.115 162.143C189.993 162.248 189.895 162.377 189.825 162.522C189.756 162.666 189.717 162.824 189.711 162.984Z" fill="#263238"/>
<path d="M189.484 161.196C189.642 161.354 190.561 160.672 191.875 160.672C193.189 160.672 194.147 161.334 194.295 161.166C194.443 160.998 194.206 160.81 193.791 160.504C193.211 160.104 192.52 159.897 191.815 159.911C191.134 159.907 190.469 160.122 189.919 160.524C189.553 160.83 189.415 161.127 189.484 161.196Z" fill="#263238"/>
<path d="M184.722 170.927C184.034 170.706 183.32 170.577 182.598 170.541C182.262 170.541 181.946 170.443 181.887 170.206C181.858 169.861 181.937 169.515 182.114 169.218C182.42 168.408 182.756 167.558 183.102 166.669C184.02 164.506 184.763 162.272 185.325 159.99C184.233 162.073 183.311 164.24 182.569 166.471C182.233 167.37 181.917 168.22 181.581 169.04C181.372 169.444 181.309 169.908 181.403 170.354C181.451 170.472 181.526 170.577 181.622 170.661C181.718 170.745 181.833 170.806 181.956 170.838C182.143 170.89 182.335 170.917 182.529 170.917C183.257 171.014 183.994 171.017 184.722 170.927Z" fill="#263238"/>
<path d="M188.584 171.836C188.377 171.836 188.367 173.248 187.152 174.256C185.937 175.264 184.415 175.106 184.405 175.313C184.396 175.521 184.741 175.59 185.393 175.6C186.227 175.617 187.04 175.337 187.685 174.809C188.304 174.299 188.704 173.571 188.802 172.774C188.841 172.181 188.683 171.826 188.584 171.836Z" fill="#263238"/>
<path d="M189.148 156.049C189.277 156.404 190.591 156.236 192.112 156.424C193.633 156.612 194.898 157.027 195.076 156.711C195.175 156.553 194.957 156.217 194.453 155.871C193.782 155.451 193.025 155.187 192.239 155.1C191.452 155.013 190.656 155.104 189.909 155.367C189.375 155.604 189.099 155.881 189.148 156.049Z" fill="#263238"/>
<path d="M177.075 157.175C177.302 157.481 178.201 157.175 179.288 157.175C180.375 157.175 181.264 157.373 181.511 157.066C181.61 156.908 181.511 156.612 181.057 156.325C180.518 155.983 179.887 155.814 179.249 155.841C178.61 155.851 177.992 156.062 177.48 156.444C177.095 156.701 176.967 157.007 177.075 157.175Z" fill="#263238"/>
<path d="M203.384 165.681C203.532 165.622 209.252 163.942 209.064 169.781C208.877 175.619 203.048 174.236 203.048 174.068C203.048 173.9 203.384 165.681 203.384 165.681Z" fill="#FFBE9D"/>
<path d="M204.906 171.905C204.906 171.905 205.005 171.984 205.172 172.063C205.29 172.121 205.417 172.155 205.548 172.164C205.678 172.172 205.809 172.155 205.933 172.112C206.317 171.884 206.633 171.558 206.85 171.167C207.067 170.777 207.177 170.336 207.168 169.889C207.205 169.387 207.124 168.883 206.931 168.417C206.882 168.234 206.789 168.065 206.66 167.925C206.531 167.786 206.369 167.68 206.19 167.617C206.075 167.583 205.952 167.59 205.842 167.637C205.732 167.684 205.642 167.768 205.587 167.874C205.499 168.032 205.587 168.151 205.498 168.16C205.41 168.17 205.38 168.062 205.439 167.825C205.472 167.678 205.556 167.548 205.676 167.459C205.841 167.346 206.042 167.3 206.239 167.331C206.478 167.385 206.699 167.5 206.88 167.665C207.062 167.829 207.199 168.037 207.277 168.269C207.509 168.783 207.611 169.346 207.573 169.909C207.587 170.43 207.446 170.944 207.169 171.386C206.891 171.827 206.488 172.176 206.012 172.389C205.853 172.426 205.688 172.429 205.527 172.396C205.367 172.364 205.216 172.297 205.084 172.201C204.916 172.053 204.886 171.915 204.906 171.905Z" fill="#EB996E"/>
<path d="M206.634 165.483C206.078 165.446 205.523 165.56 205.027 165.814C204.531 166.069 204.113 166.453 203.819 166.926C203.443 167.756 203.354 168.704 202.979 169.534C202.829 169.968 202.539 170.339 202.154 170.59C201.769 170.84 201.312 170.955 200.855 170.917C200.553 170.822 200.281 170.648 200.068 170.414C199.855 170.179 199.707 169.893 199.64 169.583C199.516 168.96 199.516 168.319 199.64 167.696C199.986 164.97 200.559 162.273 200.628 159.526C200.842 156.78 200.244 154.032 198.909 151.623C198.22 150.427 197.222 149.44 196.018 148.765C194.815 148.09 193.451 147.753 192.072 147.79C190.264 147.928 188.595 148.876 186.797 149.133C185.724 149.276 184.632 149.172 183.605 148.83C182.578 148.488 181.642 147.916 180.869 147.157C180.672 146.97 179.763 146.367 179.763 146.367C179.787 145.718 179.999 145.089 180.375 144.559C183.952 141.25 190.393 140.331 195.115 141.516C197.518 142.106 199.763 143.212 201.694 144.758C203.625 146.304 205.197 148.252 206.298 150.467C208.333 154.893 207.731 161.058 206.614 165.533" fill="#263238"/>
<path d="M206.466 164.979C206.782 162.124 208.205 159.516 208.946 156.73C209.687 153.944 209.519 150.556 207.296 148.728C206.535 148.106 205.597 147.74 204.885 147.039C204.236 146.291 203.679 145.469 203.226 144.589C202.395 143.301 201.283 142.218 199.975 141.42C198.666 140.623 197.193 140.132 195.668 139.985C193.564 139.797 191.44 140.291 189.335 140.153C185.996 139.946 182.835 138.177 179.456 138.335C178.903 138.322 178.354 138.425 177.843 138.638C177.333 138.851 176.872 139.168 176.492 139.57C176.32 139.782 176.194 140.027 176.121 140.29C176.049 140.553 176.031 140.828 176.07 141.098C176.109 141.368 176.204 141.628 176.348 141.859C176.492 142.091 176.682 142.29 176.907 142.445C176.754 142.251 176.561 142.093 176.341 141.982C176.12 141.871 175.878 141.809 175.631 141.801C175.385 141.794 175.139 141.841 174.913 141.938C174.686 142.036 174.483 142.182 174.319 142.366C174.017 142.766 173.838 143.246 173.807 143.747C173.775 144.248 173.891 144.746 174.141 145.181C174.658 146.048 175.403 146.755 176.295 147.226C179.161 148.93 182.542 149.554 185.828 148.985L192.131 145.547L199.264 147.118L206.051 151.652L203.048 164.209L206.466 164.979Z" fill="#263238"/>
<path d="M60.8955 234.411L81.5332 275.064H146.736L144.158 269.798L125.269 269.245L109.877 234.964C109.409 233.913 108.645 233.02 107.678 232.396C106.712 231.771 105.584 231.442 104.433 231.447H62.7627C62.4133 231.448 62.0699 231.538 61.7643 231.707C61.4587 231.876 61.2008 232.12 61.0146 232.416C60.8284 232.711 60.7198 233.049 60.699 233.398C60.6782 233.747 60.7458 234.095 60.8955 234.411Z" fill="#E0E0E0"/>
<path d="M91.6 255.068C93.0732 255.068 94.2674 253.874 94.2674 252.401C94.2674 250.928 93.0732 249.733 91.6 249.733C90.1269 249.733 88.9326 250.928 88.9326 252.401C88.9326 253.874 90.1269 255.068 91.6 255.068Z" fill="#263238"/>
<path d="M235.175 233.571C235.017 244.962 228.082 255.454 219.022 262.369C209.963 269.285 198.977 273.128 188.031 276.279C177.085 279.43 165.892 282.029 155.588 286.909C141.332 293.657 128.124 302.913 120.023 316.478C111.922 330.042 109.136 347.844 110.035 363.651L231.154 351.539L237.783 282.641L235.175 233.571Z" fill="#455A64"/>
<path d="M188.032 276.279L187.765 276.358L186.995 276.546C186.313 276.704 185.305 276.902 184.031 277.218C181.452 277.82 177.728 278.759 173.164 280.181C167.871 281.809 162.676 283.738 157.604 285.961C151.37 288.661 145.447 292.03 139.94 296.008C137.17 298.154 134.531 300.463 132.036 302.923C129.68 305.195 127.466 307.61 125.407 310.155C121.886 314.45 118.901 319.158 116.516 324.174C114.937 327.564 113.684 331.097 112.772 334.725C112.406 335.999 112.268 337.027 112.09 337.688C112.021 338.005 111.962 338.252 111.912 338.459C111.863 338.667 111.843 338.726 111.843 338.726C111.832 338.634 111.832 338.541 111.843 338.449C111.843 338.242 111.922 337.985 111.972 337.669C112.11 336.977 112.219 335.95 112.555 334.705C113.375 331.037 114.566 327.462 116.111 324.035C118.47 318.959 121.457 314.2 125.002 309.869C127.067 307.301 129.287 304.863 131.651 302.568C134.173 300.084 136.842 297.755 139.643 295.593C145.182 291.593 151.146 288.216 157.426 285.526C162.537 283.309 167.776 281.399 173.114 279.806C177.669 278.453 181.413 277.563 183.981 277.02C185.276 276.734 186.293 276.575 186.945 276.437L187.726 276.309C187.826 276.283 187.929 276.273 188.032 276.279Z" fill="#263238"/>
<path d="M214.014 334.112C211.305 335.967 208.502 337.682 205.617 339.249C202.817 340.965 199.928 342.532 196.963 343.942C199.669 342.081 202.472 340.367 205.36 338.805C208.163 337.093 211.051 335.527 214.014 334.112Z" fill="#FAFAFA"/>
<path d="M159.362 337.59C158.654 337.04 157.993 336.432 157.387 335.772C156.201 334.616 154.561 333.015 152.734 331.277C150.906 329.538 149.207 327.987 147.991 326.871C147.276 326.304 146.615 325.672 146.016 324.984C146.79 325.445 147.515 325.985 148.179 326.594C149.463 327.641 151.192 329.153 153.04 330.901C154.887 332.65 156.478 334.29 157.594 335.515C158.262 336.135 158.856 336.832 159.362 337.59Z" fill="#FAFAFA"/>
<path d="M184.633 303.793C184.244 306.268 183.686 308.714 182.963 311.113C182.4 313.56 181.674 315.966 180.79 318.315C181.179 315.837 181.737 313.387 182.46 310.985C183.025 308.542 183.752 306.14 184.633 303.793Z" fill="#FAFAFA"/>
<path d="M233.021 312.22C230.34 311.311 227.717 310.239 225.167 309.009C222.541 307.94 219.984 306.71 217.511 305.324C220.206 306.237 222.845 307.309 225.414 308.535C228.021 309.611 230.561 310.841 233.021 312.22Z" fill="#FAFAFA"/>
<path d="M177.362 356.923C176.766 354.864 176.34 352.759 176.088 350.63C175.67 348.526 175.416 346.392 175.327 344.248C175.923 346.307 176.349 348.412 176.602 350.541C177.019 352.646 177.274 354.779 177.362 356.923Z" fill="#FAFAFA"/>
<path d="M135.237 354.127C133.201 352.197 131.284 350.145 129.497 347.983C127.579 345.938 125.794 343.774 124.152 341.502C126.186 343.431 128.1 345.483 129.882 347.647C131.799 349.695 133.587 351.859 135.237 354.127Z" fill="#FAFAFA"/>
<path d="M168.846 292.441C166.866 293.724 164.792 294.856 162.642 295.83C160.574 296.973 158.424 297.964 156.211 298.794C158.192 297.511 160.266 296.379 162.415 295.405C164.484 294.262 166.633 293.271 168.846 292.441Z" fill="#FAFAFA"/>
<path d="M216.879 284.37C214.361 284.618 211.83 284.7 209.301 284.617C206.769 284.7 204.234 284.614 201.714 284.36C204.234 284.1 206.769 284.014 209.301 284.103C211.83 284.014 214.362 284.103 216.879 284.37Z" fill="#FAFAFA"/>
<path d="M236.124 251.028C235.684 253.024 234.983 254.954 234.039 256.767C233.25 258.65 232.22 260.424 230.976 262.043C230.848 261.964 232.162 259.583 233.575 256.55C234.987 253.517 235.975 251.028 236.124 251.028Z" fill="#FAFAFA"/>
<path d="M393.856 340.869H321.639V350.788H393.856V340.869Z" fill="#263238"/>
<path d="M393.975 350.917H321.511V340.751H393.975V350.917ZM321.758 350.67H393.718V340.998H321.758V350.67Z" fill="#263238"/>
<path d="M328.327 347.499L338.73 398.772H377.19L387.237 350.798L328.327 347.499Z" fill="#263238"/>
<path d="M328.327 393.921L333.879 401.548H380.628L387.237 393.921H328.327Z" fill="#455A64"/>
<path d="M355.031 348.99C354.893 348.99 354.705 325.231 354.626 295.939C354.547 266.647 354.626 242.877 354.734 242.877C354.843 242.877 355.06 266.587 355.14 295.939C355.219 325.29 355.189 348.99 355.031 348.99Z" fill="#263238"/>
<path d="M371.113 289.557C371.075 289.748 371.012 289.934 370.926 290.11L370.284 291.651L369.809 292.758C369.661 293.172 369.503 293.627 369.325 294.101C369.147 294.575 368.97 295.089 368.772 295.652C368.574 296.215 368.426 296.798 368.239 297.421C367.392 300.323 366.732 303.276 366.263 306.262C365.675 309.918 365.276 313.601 365.067 317.298C364.805 324.034 364.997 330.78 365.64 337.491C365.868 340.069 366.105 342.154 366.273 343.596C366.352 344.268 366.411 344.821 366.46 345.256C366.486 345.449 366.486 345.645 366.46 345.839C366.396 345.653 366.353 345.461 366.332 345.266C366.253 344.831 366.164 344.278 366.045 343.616C365.818 342.183 365.532 340.109 365.245 337.53C364.492 330.804 364.251 324.031 364.524 317.268C364.707 313.548 365.096 309.841 365.69 306.164C366.199 303.154 366.915 300.183 367.834 297.272C368.031 296.65 368.199 296.057 368.407 295.504L368.999 293.963C369.187 293.489 369.355 293.044 369.523 292.629C369.691 292.214 369.879 291.859 370.037 291.532L370.768 290.031C370.871 289.865 370.987 289.706 371.113 289.557Z" fill="#263238"/>
<path d="M369.276 270.322C369.213 270.59 369.134 270.854 369.039 271.112L368.288 273.315C368.12 273.799 367.943 274.303 367.735 274.906L367.152 276.832C366.737 278.205 366.243 279.796 365.809 281.525C365.581 282.404 365.334 283.313 365.088 284.271L364.406 287.235C363.902 289.3 363.536 291.552 363.072 293.894C362.282 298.616 361.58 303.832 361.096 309.335C360.612 314.838 360.434 320.103 360.365 324.885C360.296 329.666 360.415 333.984 360.612 337.599C360.671 339.417 360.79 341.047 360.889 342.48C360.988 343.912 361.057 345.157 361.146 346.165C361.235 347.172 361.284 347.913 361.324 348.486C361.35 348.759 361.35 349.034 361.324 349.306C361.259 349.044 361.216 348.776 361.195 348.506C361.126 347.923 361.037 347.153 360.918 346.184C360.8 345.216 360.681 343.942 360.573 342.499C360.464 341.057 360.306 339.437 360.217 337.619C359.98 334.003 359.881 329.716 359.861 324.885C359.842 320.054 360.098 314.808 360.553 309.285C361.007 303.763 361.758 298.537 362.578 293.815C363.062 291.463 363.438 289.211 363.961 287.136L364.673 284.172C364.929 283.185 365.186 282.305 365.433 281.426C365.888 279.668 366.421 278.107 366.856 276.743C367.073 276.062 367.281 275.419 367.478 274.837L368.071 273.256L368.911 271.073C369.014 270.814 369.136 270.563 369.276 270.322Z" fill="#263238"/>
<path d="M350.466 353.199C350.45 353.104 350.45 353.007 350.466 352.912C350.466 352.705 350.466 352.438 350.397 352.102C350.348 351.342 350.269 350.294 350.18 348.951C350.012 346.185 349.765 342.243 349.459 337.382C348.826 327.612 347.927 314.117 346.278 299.278C345.438 291.859 344.47 284.805 343.452 278.413C342.919 275.232 342.464 272.189 341.871 269.374C341.279 266.558 340.814 263.91 340.31 261.52C339.807 259.129 339.323 256.975 338.888 255.078C338.453 253.181 338.058 251.551 337.722 250.228C337.386 248.904 337.159 247.896 336.971 247.165C336.899 246.842 336.84 246.576 336.793 246.365C336.782 246.273 336.782 246.18 336.793 246.088C336.836 246.173 336.869 246.263 336.892 246.355C336.952 246.552 337.031 246.819 337.119 247.135C337.327 247.866 337.613 248.884 337.969 250.178C338.325 251.472 338.769 253.142 339.214 255.009C339.658 256.876 340.202 259.05 340.716 261.44C341.229 263.831 341.812 266.459 342.346 269.294C342.879 272.13 343.422 275.153 343.976 278.344C345.013 284.736 346.001 291.789 346.841 299.219C348.49 314.038 349.34 327.582 349.874 337.362C350.14 342.253 350.318 346.204 350.427 348.941C350.476 350.284 350.516 351.332 350.545 352.092C350.545 352.428 350.545 352.705 350.545 352.912C350.53 353.011 350.504 353.107 350.466 353.199Z" fill="#263238"/>
<path d="M354.438 254.298C354.132 250.929 350.724 248.37 347.345 248.37C343.966 248.37 340.815 250.346 338.75 253.043C336.803 255.817 335.398 258.934 334.611 262.231C332.338 270.134 331.094 278.492 332.062 286.682C333.03 294.872 336.359 302.943 342.237 308.722C343.225 309.71 344.431 310.609 345.745 310.333C346.45 310.118 347.087 309.723 347.592 309.187C353.352 303.92 357.919 297.482 360.986 290.305C364.053 283.128 365.549 275.378 365.375 267.575C365.276 264.463 364.871 261.223 363.142 258.625C361.413 256.027 357.402 253.27 354.458 254.317" fill="#0E53BE"/>
<path d="M329.206 227.317C327.612 230.196 326.025 233.07 324.444 235.942C324.335 236.14 324.187 236.367 323.96 236.387C323.733 236.406 323.515 236.169 323.377 235.962L310.791 216.638L313.696 214.998L329.206 227.317Z" fill="#0E53BE"/>
<g opacity="0.2">
<path opacity="0.2" d="M329.206 227.317C327.612 230.196 326.025 233.07 324.444 235.942C324.335 236.14 324.187 236.367 323.96 236.387C323.733 236.406 323.515 236.169 323.377 235.962L310.791 216.638L313.696 214.998L329.206 227.317Z" fill="black"/>
</g>
<path d="M354.734 242.877L311.799 217.537C311.315 217.327 310.933 216.938 310.732 216.45C310.564 215.818 311.038 215.206 311.502 214.731C314.456 211.673 318.034 209.288 321.992 207.738C325.951 206.189 330.198 205.511 334.442 205.751C338.688 206.054 342.796 207.388 346.411 209.636C350.026 211.884 353.039 214.979 355.188 218.653C359.328 226.053 359.466 235.843 354.714 242.877" fill="#0E53BE"/>
<path d="M317.983 209.456C318.166 209.403 318.356 209.377 318.547 209.377C318.922 209.377 319.465 209.298 320.177 209.308C322.163 209.277 324.147 209.432 326.104 209.772C331.175 210.601 335.996 212.555 340.213 215.49C344.431 218.425 347.938 222.267 350.476 226.735C351.959 229.307 353.105 232.059 353.885 234.924C354.419 236.847 354.777 238.815 354.952 240.803C355.031 241.504 355.021 242.057 355.04 242.423C355.062 242.61 355.062 242.799 355.04 242.986C355.04 242.986 354.942 242.215 354.774 240.822C354.527 238.86 354.12 236.92 353.559 235.023C351.758 228.719 348.227 223.046 343.366 218.647C338.504 214.248 332.507 211.3 326.055 210.137C324.099 209.768 322.117 209.557 320.127 209.505C318.764 209.476 317.993 209.535 317.983 209.456Z" fill="#263238"/>
<path d="M348.925 225.391C348.238 225.798 347.509 226.129 346.752 226.379C345.388 226.922 343.472 227.614 341.338 228.296C339.204 228.977 337.238 229.511 335.805 229.857C335.042 230.095 334.252 230.238 333.454 230.281C334.174 229.944 334.925 229.679 335.697 229.491L341.17 227.782L346.623 226.023C347.365 225.73 348.137 225.518 348.925 225.391Z" fill="#263238"/>
<path d="M342.158 207.223C342.76 210.389 342.843 213.633 342.405 216.826C342.194 215.235 342.111 213.629 342.158 212.024C342.033 210.426 342.033 208.821 342.158 207.223Z" fill="#263238"/>
<path d="M311.424 217.063C312.429 216.601 313.474 216.23 314.546 215.956C316.521 215.364 319.209 214.603 322.242 213.872C325.275 213.141 328.031 212.578 330.046 212.222C331.122 211.984 332.216 211.839 333.316 211.787C332.269 212.129 331.2 212.397 330.115 212.588C328.139 213.022 325.383 213.645 322.36 214.366C319.337 215.087 316.61 215.798 314.644 216.342C313.589 216.658 312.513 216.899 311.424 217.063Z" fill="#263238"/>
<path d="M334.936 246.325C331.241 243.529 327.339 242.976 322.706 243.164C318.071 243.469 313.534 244.638 309.329 246.612C302.088 249.783 295.281 254.456 290.954 261.075C286.627 267.694 285.125 276.447 288.366 283.659C288.619 284.41 289.139 285.043 289.828 285.437C290.634 285.665 291.496 285.599 292.258 285.249C300.487 282.562 308.776 279.845 316.353 275.647C323.931 271.448 330.817 265.59 334.877 257.943C335.934 256.141 336.607 254.14 336.853 252.065C336.965 251.029 336.855 249.981 336.529 248.991C336.204 248.001 335.671 247.092 334.966 246.325" fill="#0E53BE"/>
<path d="M335.005 245.456C334.818 245.561 334.619 245.644 334.412 245.703L332.693 246.296L331.439 246.71C330.994 246.869 330.51 247.076 329.987 247.283C328.939 247.698 327.734 248.123 326.46 248.736L324.434 249.654C323.743 249.981 323.041 250.376 322.3 250.761C320.809 251.492 319.337 252.431 317.687 253.379C310.786 257.654 304.649 263.054 299.529 269.354C298.383 270.836 297.257 272.209 296.338 273.602C295.874 274.283 295.35 274.926 294.975 275.578L293.809 277.465C293.038 278.65 292.465 279.796 291.912 280.774C291.645 281.268 291.378 281.762 291.161 282.147C290.944 282.533 290.766 282.977 290.588 283.333C290.262 284.005 289.986 284.548 289.778 284.973C289.696 285.17 289.59 285.355 289.462 285.526C289.526 285.324 289.602 285.126 289.689 284.933L290.41 283.254C290.568 282.878 290.746 282.473 290.944 282.039C291.151 281.604 291.398 281.14 291.655 280.646C292.189 279.658 292.742 278.482 293.493 277.277L294.649 275.36C295.044 274.698 295.528 274.046 295.992 273.384C296.901 271.982 297.968 270.579 299.153 269.087C304.268 262.704 310.457 257.262 317.44 253.004C319.07 252.016 320.591 251.127 322.103 250.405C322.854 250.04 323.565 249.645 324.266 249.328L326.311 248.439C327.606 247.837 328.831 247.451 329.888 247.036C330.411 246.849 330.876 246.661 331.36 246.513L332.634 246.137L334.393 245.634C334.592 245.56 334.797 245.501 335.005 245.456Z" fill="#263238"/>
<path d="M306.158 261.085C303.217 262.201 300.22 263.164 297.178 263.969C294.182 264.936 291.134 265.738 288.05 266.37C290.993 265.246 293.994 264.28 297.04 263.476C300.033 262.51 303.077 261.712 306.158 261.085Z" fill="#263238"/>
<path d="M305.792 280.902C305.637 279.979 305.571 279.043 305.595 278.107C305.545 276.368 305.535 273.977 305.595 271.339C305.654 268.702 305.812 266.311 305.95 264.582C305.979 263.647 306.099 262.718 306.306 261.806C306.385 262.739 306.385 263.678 306.306 264.612C306.247 266.499 306.177 268.81 306.098 271.359C306.019 273.908 305.98 276.21 305.93 278.107C305.962 279.041 305.916 279.976 305.792 280.902Z" fill="#263238"/>
<path d="M322.775 272.248C322.626 272.248 322.182 267.398 321.787 261.381C321.392 255.365 321.145 250.514 321.283 250.514C321.421 250.514 321.886 255.365 322.271 261.381C322.656 267.398 322.913 272.238 322.775 272.248Z" fill="#263238"/>
<path d="M301.634 250.04C302.591 249.926 303.557 249.9 304.519 249.961C306.287 249.961 308.737 250.02 311.434 250.109C314.131 250.198 316.591 250.306 318.349 250.415C319.311 250.425 320.269 250.517 321.214 250.692C320.261 250.806 319.299 250.836 318.34 250.781C316.561 250.781 314.111 250.711 311.424 250.622C308.737 250.534 306.257 250.425 304.509 250.316C303.544 250.32 302.581 250.227 301.634 250.04Z" fill="#263238"/>
<path d="M344.075 311.014C344.041 310.822 344.022 310.627 344.015 310.432C344.015 309.987 344.015 309.444 343.946 308.742C343.877 307.28 343.867 305.156 343.946 302.538C344.025 299.92 344.173 296.788 344.48 293.34C344.786 289.893 345.3 286.099 345.991 282.157C346.683 278.215 347.552 274.491 348.431 271.132C349.311 267.773 350.249 264.799 351.109 262.32C351.968 259.84 352.709 257.854 353.282 256.501C353.549 255.869 353.756 255.355 353.934 254.94C353.995 254.754 354.082 254.578 354.191 254.416C354.161 254.611 354.104 254.8 354.023 254.979C353.885 255.394 353.697 255.967 353.47 256.57C352.956 257.943 352.265 259.949 351.494 262.438C350.723 264.928 349.805 267.911 348.935 271.26C348.066 274.609 347.246 278.314 346.535 282.246C345.823 286.178 345.349 289.942 344.993 293.38C344.638 296.818 344.44 299.93 344.351 302.548C344.262 305.166 344.213 307.28 344.213 308.742C344.213 309.434 344.213 309.987 344.213 310.432C344.196 310.632 344.149 310.828 344.075 311.014Z" fill="#263238"/>
<path d="M346.347 281.722C345.843 282.411 345.267 283.043 344.628 283.609C343.521 284.716 341.941 286.198 340.143 287.778C338.345 289.359 336.665 290.742 335.42 291.681C334.778 292.235 334.079 292.722 333.336 293.133C333.893 292.493 334.515 291.914 335.193 291.404L339.807 287.393L344.381 283.343C344.986 282.744 345.644 282.202 346.347 281.722Z" fill="#263238"/>
<path d="M359.931 292.669C359.276 291.874 358.682 291.032 358.153 290.149L353.905 283.955L349.578 277.82C348.929 277.006 348.348 276.14 347.839 275.232C348.585 275.958 349.263 276.752 349.864 277.603C351.059 279.114 352.65 281.248 354.33 283.659C356.009 286.069 357.451 288.302 358.459 289.952C359.027 290.814 359.519 291.722 359.931 292.669Z" fill="#263238"/>
<path d="M352.817 258.249C352.886 258.368 348.381 261.401 342.731 265.036C337.08 268.672 332.446 271.507 332.367 271.389C332.288 271.27 336.813 268.227 342.454 264.602C348.095 260.976 352.738 258.121 352.817 258.249Z" fill="#263238"/>
<path d="M365.543 271.982C363.151 270.01 360.872 267.906 358.716 265.679C356.441 263.57 354.281 261.341 352.245 259C354.64 260.969 356.919 263.073 359.072 265.303C361.35 267.409 363.51 269.638 365.543 271.982Z" fill="#263238"/>
<path d="M368.743 271.705L372.616 271.389C375.37 271.161 378.042 270.342 380.45 268.988C381.625 268.301 382.842 267.69 384.096 267.16C388.887 265.234 394.232 265.58 399.389 265.323C407.831 264.895 416.101 262.779 423.711 259.099C424.163 258.891 424.537 258.545 424.778 258.111C425.569 256.659 424.097 255.365 422.803 254.584C416.272 250.563 409.624 246.483 402.224 244.488C394.825 242.492 386.417 242.828 380.095 247.175C372.685 252.282 369.978 262.764 368.724 271.675" fill="#0E53BE"/>
<path d="M424.857 257.667L424.205 257.36L422.368 256.372C420.777 255.533 418.485 254.298 415.581 252.915C412.21 251.249 408.695 249.893 405.079 248.864C400.662 247.598 396.038 247.222 391.475 247.758C386.903 248.272 382.585 250.128 379.067 253.092C376.317 255.643 374.118 258.729 372.606 262.162C371.243 265.066 370.403 267.536 369.79 269.225L369.099 271.201C369.034 271.434 368.945 271.659 368.832 271.873C368.863 271.634 368.92 271.399 369 271.171C369.158 270.668 369.356 270.006 369.603 269.196C370.352 266.762 371.243 264.373 372.27 262.043C373.763 258.534 375.97 255.375 378.751 252.766C382.326 249.714 386.734 247.804 391.406 247.283C396.047 246.728 400.753 247.121 405.237 248.439C408.871 249.499 412.397 250.898 415.768 252.618C418.663 254.051 420.925 255.335 422.496 256.234L424.284 257.271C424.489 257.381 424.681 257.514 424.857 257.667Z" fill="#263238"/>
<path d="M415.551 262.666C415.472 262.784 410.404 259.504 404.239 255.345C398.075 251.186 393.125 247.708 393.204 247.59C393.283 247.471 398.351 250.751 404.526 254.91C410.7 259.069 415.63 262.547 415.551 262.666Z" fill="#263238"/>
<path d="M410.691 247.076C408.108 247.883 405.384 248.132 402.698 247.807C404.001 247.551 405.323 247.402 406.65 247.362C407.985 247.146 409.338 247.05 410.691 247.076Z" fill="#263238"/>
<path d="M387.958 243.035C387.562 244.214 387.004 245.331 386.299 246.355C385.739 247.469 385.031 248.503 384.194 249.427C384.581 248.246 385.126 247.123 385.815 246.088C386.389 244.979 387.11 243.952 387.958 243.035Z" fill="#263238"/>
<path d="M392.503 265.649C391.646 265.293 390.828 264.849 390.062 264.325C388.6 263.436 386.624 262.132 384.51 260.601C382.396 259.069 380.559 257.637 379.185 256.55C378.431 256.011 377.727 255.406 377.081 254.742C377.904 255.175 378.685 255.685 379.413 256.264L384.807 260.215C386.921 261.747 388.857 263.09 390.26 264.048C391.05 264.52 391.8 265.056 392.503 265.649Z" fill="#263238"/>
<path d="M374.453 288.174C370.758 287.186 366.352 290.792 365.562 294.536C364.771 298.28 366.214 302.113 367.854 305.571C371.374 313.304 376.599 320.14 383.137 325.567C389.756 330.842 398.045 334.211 406.511 334.171C404.95 326.91 406.926 319.352 406.057 311.953C405.296 305.454 402.351 299.406 397.704 294.798C393.058 290.191 386.985 287.298 380.479 286.593C378.118 286.336 375.391 285.961 374.453 288.144" fill="#0E53BE"/>
<path d="M406.561 334.171C406.378 334.107 406.203 334.024 406.037 333.924C405.525 333.672 405.039 333.371 404.585 333.025C403.033 331.678 401.786 330.014 400.93 328.145C400.347 326.999 399.685 325.754 399.043 324.381C398.401 323.008 397.749 321.536 397.067 319.985C396.348 318.371 395.53 316.804 394.617 315.292C393.617 313.683 392.494 312.153 391.258 310.718C388.729 307.754 386.012 305.176 383.661 302.716C381.531 300.583 379.591 298.269 377.862 295.8C376.703 294.121 375.754 292.306 375.036 290.396C374.838 289.877 374.673 289.346 374.542 288.806C374.477 288.625 374.437 288.435 374.424 288.243C374.473 288.243 374.681 288.993 375.214 290.317C376.007 292.179 377.001 293.948 378.178 295.593C379.933 298.025 381.886 300.308 384.017 302.419C386.378 304.85 389.114 307.418 391.673 310.422C392.925 311.878 394.061 313.431 395.071 315.065C395.986 316.598 396.801 318.189 397.512 319.827C398.203 321.378 398.845 322.86 399.487 324.243C400.13 325.626 400.752 326.87 401.315 328.016C402.123 329.879 403.299 331.559 404.773 332.956C405.83 333.776 406.561 334.122 406.561 334.171Z" fill="#263238"/>
<path d="M387.415 328.135C387.434 327.295 387.55 326.459 387.761 325.646C388.047 324.124 388.522 322.04 389.164 319.718C389.806 317.396 390.487 315.411 391.041 313.968C391.279 313.165 391.61 312.392 392.029 311.667C391.882 312.493 391.657 313.303 391.357 314.087C390.902 315.559 390.28 317.594 389.638 319.866C388.996 322.138 388.472 324.193 388.097 325.685C387.952 326.523 387.724 327.343 387.415 328.135Z" fill="#263238"/>
<path d="M405.83 310.303C404.948 310.181 404.078 309.979 403.232 309.701C401.631 309.286 399.438 308.713 396.988 308.169C394.538 307.626 392.305 307.181 390.695 306.885C389.809 306.774 388.936 306.579 388.087 306.302C388.981 306.29 389.874 306.363 390.754 306.519C392.384 306.737 394.637 307.112 397.107 307.665C399.576 308.219 401.76 308.851 403.331 309.355C404.197 309.576 405.035 309.894 405.83 310.303Z" fill="#263238"/>
<path d="M373.702 315.499C373.737 314.527 373.87 313.561 374.097 312.615C374.423 310.856 374.947 308.426 375.639 305.778C376.33 303.131 377.061 300.76 377.614 299.06C377.874 298.124 378.228 297.217 378.671 296.354C378.509 297.309 378.271 298.251 377.96 299.169C377.466 300.888 376.794 303.269 376.103 305.907C375.411 308.544 374.838 310.955 374.423 312.694C374.255 313.646 374.014 314.584 373.702 315.499Z" fill="#263238"/>
<path d="M397.354 294.793C393.907 294.693 390.468 294.416 387.05 293.963C381.369 293.36 376.775 292.757 376.795 292.619C380.242 292.719 383.681 292.996 387.099 293.449C392.78 294.052 397.364 294.654 397.354 294.793Z" fill="#263238"/>
<path d="M393.975 350.808C393.975 350.946 377.753 351.065 357.748 351.065C337.742 351.065 321.521 350.946 321.521 350.808C321.521 350.67 337.732 350.551 357.748 350.551C377.763 350.551 393.975 350.61 393.975 350.808Z" fill="#455A64"/>
<path d="M382.682 371.633C382.682 371.772 371.756 371.89 358.281 371.89C344.805 371.89 333.869 371.772 333.869 371.633C333.869 371.495 344.796 371.376 358.281 371.376C371.766 371.376 382.682 371.485 382.682 371.633Z" fill="#455A64"/>
<path d="M383.107 374.617C383.107 374.755 372.181 374.874 358.706 374.874C345.23 374.874 334.294 374.755 334.294 374.617C334.294 374.479 345.22 374.36 358.706 374.36C372.191 374.36 383.107 374.518 383.107 374.617Z" fill="#455A64"/>
<path d="M383.107 369.173C383.107 369.312 371.805 369.43 357.866 369.43C343.926 369.43 332.614 369.312 332.614 369.173C332.614 369.035 343.916 368.917 357.866 368.917C371.815 368.917 383.107 369.025 383.107 369.173Z" fill="#455A64"/>
<mask id="mask0_499_3566" style="mask-type:luminance" maskUnits="userSpaceOnUse" x="123" y="101" width="23" height="39">
<path d="M146 101.5H123V139.5H146V101.5Z" fill="white"/>
</mask>
<g mask="url(#mask0_499_3566)">
<path d="M145.524 116.926C145.524 123.255 140.577 128.391 134.472 128.391C128.366 128.391 123.419 123.255 123.419 116.926C123.419 110.596 128.366 105.46 134.472 105.46C140.577 105.46 145.524 110.596 145.524 116.926Z" fill="#D33833"/>
<path d="M123.873 119.765C123.873 119.765 123.071 107.812 133.937 107.468L133.179 106.184L127.287 108.191L125.603 110.153L124.132 113.011L123.294 116.338L123.544 118.563" fill="#EF3D3A"/>
<path d="M126.904 109.104C124.97 111.121 123.766 113.897 123.766 116.971C123.766 120.045 124.97 122.821 126.904 124.838C128.847 126.854 131.512 128.093 134.471 128.093C137.431 128.093 140.096 126.854 142.039 124.838C143.973 122.821 145.176 120.045 145.176 116.971C145.176 113.897 143.973 111.121 142.039 109.104C140.096 107.097 137.431 105.849 134.471 105.849C131.521 105.849 128.847 107.088 126.904 109.104ZM126.414 125.317C124.355 123.183 123.08 120.226 123.08 116.971C123.08 113.716 124.355 110.759 126.414 108.616C128.473 106.482 131.325 105.153 134.471 105.153C137.618 105.153 140.47 106.482 142.529 108.616C144.588 110.75 145.863 113.707 145.863 116.971C145.863 120.226 144.588 123.183 142.529 125.317C140.47 127.46 137.618 128.78 134.471 128.78C131.325 128.78 128.473 127.46 126.414 125.317Z" fill="#231F20"/>
<path d="M139.125 116.989L137.44 117.242L135.167 117.504L133.696 117.541L132.261 117.495L131.165 117.152L130.193 116.085L129.436 113.906L129.266 113.435L128.259 113.092L127.671 112.106L127.252 110.696L127.715 109.457L128.812 109.068L129.694 109.493L130.113 110.434L130.621 110.352L130.791 110.135L130.621 109.15L130.577 107.911L130.826 106.202L130.817 105.225L131.584 103.978L132.93 102.992L135.283 101.97L137.895 102.359L140.168 104.023L141.219 105.732L141.897 106.97L142.066 110.045L141.558 112.694L140.631 115.045L139.758 116.302" fill="#F0D6B7"/>
<path d="M137.698 124.377L131.681 124.63V125.651L132.19 129.241L131.94 129.54L127.733 128.084L127.439 127.568L127.02 122.74L126.03 119.846L125.816 119.159L129.186 116.808L130.238 116.383L131.164 117.541L131.967 118.264L132.894 118.562L133.313 118.689L133.821 120.913L134.204 121.384L135.175 121.04L134.498 122.369L138.153 124.123L137.698 124.377Z" fill="#335061"/>
<path d="M127.715 109.475L128.812 109.086L129.694 109.511L130.113 110.452L130.621 110.37L130.746 109.855L130.496 108.869L130.746 106.518L130.532 105.234L131.289 104.339L132.93 103.019L132.466 102.377L130.149 103.535L129.177 104.303L128.633 105.497L127.795 106.654L127.546 108.019L127.715 109.475Z" fill="#6D6B6D"/>
<path d="M129.444 105.46C129.444 105.46 130.077 103.878 132.6 103.109C135.122 102.341 132.725 102.558 132.725 102.558L129.988 103.625L128.936 104.692L128.473 105.542L129.444 105.46ZM128.179 109.177C128.179 109.177 127.296 106.184 130.666 105.759L130.541 105.243L128.223 105.795L127.546 108.019L127.715 109.475L128.179 109.177Z" fill="#DCD9D8"/>
<path d="M129.524 113.146L130.077 112.604C130.077 112.604 130.327 112.631 130.371 112.929C130.416 113.228 130.54 115.922 132.35 117.369C132.519 117.504 131.004 117.152 131.004 117.152L129.658 115.018M137.27 112.332C137.27 112.332 137.368 111.039 137.716 111.139C138.063 111.238 138.063 111.591 138.063 111.591C138.063 111.591 137.226 112.133 137.27 112.332ZM140.764 107.594C140.764 107.594 140.069 107.739 140.007 108.363C139.944 108.987 140.764 108.489 140.889 108.444M135.675 107.64C135.675 107.64 134.748 107.766 134.748 108.363C134.748 108.96 135.799 108.914 136.093 108.661M129.952 110.415C129.952 110.415 128.357 109.43 128.187 110.37C128.018 111.311 127.644 111.989 128.437 112.974L127.893 112.803L127.385 111.482L127.216 110.198L128.187 109.177L129.284 109.258L129.917 109.773L129.952 110.415ZM130.71 107.721C130.71 107.721 131.423 103.959 135.042 103.236C138.019 102.639 139.588 103.363 140.176 104.05C140.176 104.05 137.52 100.849 134.997 101.825C132.475 102.811 130.621 104.601 130.665 105.75C130.737 107.721 130.71 107.721 130.71 107.721ZM140.47 104.475C140.47 104.475 139.249 104.43 139.204 105.542C139.204 105.542 139.204 105.714 139.285 105.885C139.285 105.885 140.256 104.773 140.844 105.37" fill="#F7E4CD"/>
<path d="M135.131 106.003C135.131 106.003 134.917 104.303 133.491 105.289C132.564 105.931 132.653 106.826 132.814 106.998C132.983 107.169 132.939 107.513 133.063 107.278C133.188 107.043 133.152 106.274 133.616 106.057C134.07 105.84 134.837 105.605 135.131 106.003Z" fill="#F7E4CD"/>
<path d="M131.174 117.541L127.217 119.331C127.217 119.331 128.857 125.95 128.019 128.002L127.431 127.785L127.386 125.262L126.29 120.488L125.826 119.168L129.953 116.347L131.174 117.541ZM131.575 121.203L132.137 121.899V124.458H131.469C131.469 124.458 131.388 122.667 131.388 122.45C131.388 122.233 131.469 121.465 131.469 121.465M131.593 124.847L129.695 124.928L130.238 125.317L131.584 125.534" fill="#49728B"/>
<path d="M138.072 124.422L139.632 124.376L140.015 128.301L138.42 128.518L138.072 124.422Z" fill="#335061"/>
<path d="M138.491 124.422L140.844 124.295C140.844 124.295 141.816 121.818 141.816 121.691C141.816 121.564 142.654 118.101 142.654 118.101L140.755 116.094L140.372 115.75L139.365 116.772V120.742L138.491 124.422Z" fill="#335061"/>
<path d="M139.543 124.123L138.072 124.422L138.286 125.615C138.83 125.868 139.757 125.19 139.757 125.19M139.588 116.645L142.538 118.87L142.618 117.848L140.39 115.759L139.588 116.645Z" fill="#49728B"/>
<path d="M133.054 132.831L132.181 129.241L131.744 126.592L131.673 124.63L135.621 124.413H138.073L137.85 128.897L138.233 132.361L138.189 133.003L134.989 133.256L133.054 132.831Z" fill="white"/>
<path d="M137.529 124.377C137.529 124.377 137.315 128.816 137.948 131.981C137.948 131.981 136.682 132.795 134.837 133.003L138.376 132.876L138.794 132.623L138.286 125.624L138.153 124.123" fill="#DCD9D8"/>
<path d="M140.079 127.966L141.719 127.496L144.829 127.324L145.293 125.868L144.455 123.346L143.483 123.219L142.138 123.644L140.854 124.286L140.168 124.159L139.633 124.376" fill="white"/>
<path d="M140.051 127.107C140.051 127.107 141.147 126.592 141.316 126.637L140.853 124.286L141.397 124.069C141.397 124.069 141.78 126.294 141.78 126.547C141.78 126.547 144.133 126.673 144.347 126.673C144.347 126.673 144.855 125.688 144.73 124.666L145.194 126.031L145.238 126.8L144.561 127.822L143.803 127.993L142.538 127.948L142.119 127.397L140.648 127.614L140.184 127.785" fill="#DCD9D8"/>
<path d="M138.393 124.078L137.466 121.691L136.494 120.28C136.494 120.28 136.708 119.684 137.002 119.684H137.974L138.901 120.027L138.821 121.61L138.393 124.078Z" fill="white"/>
<path d="M138.581 123.264C138.581 123.264 137.404 120.959 137.404 120.615C137.404 120.615 137.618 120.1 137.912 120.226C138.206 120.353 138.839 120.696 138.839 120.696V119.883L137.404 119.584L136.433 119.711L138.073 123.653L138.411 123.698" fill="#DCD9D8"/>
<path d="M133.429 117.631L132.261 117.504L131.165 117.161V117.55L131.7 118.147L133.384 118.915" fill="white"/>
<path d="M131.548 117.758C131.548 117.758 132.85 118.309 133.278 118.183L133.322 118.698L132.146 118.445L131.433 117.929L131.548 117.758Z" fill="#DCD9D8"/>
<path d="M140.078 119.828C139.365 119.81 138.714 119.72 138.153 119.557C138.188 119.322 138.117 119.096 138.18 118.924C138.34 118.807 138.598 118.807 138.839 118.779C138.634 118.68 138.34 118.635 138.108 118.698C138.099 118.535 138.028 118.436 137.983 118.309C138.385 118.165 139.329 117.215 139.864 117.523C140.123 117.676 140.23 118.526 140.247 118.951C140.265 119.295 140.212 119.638 140.078 119.828Z" fill="#D33833"/>
<path d="M140.078 119.828C139.365 119.81 138.714 119.72 138.153 119.557C138.188 119.322 138.117 119.096 138.18 118.924C138.34 118.807 138.598 118.807 138.839 118.779C138.634 118.68 138.34 118.635 138.108 118.698C138.099 118.535 138.028 118.436 137.983 118.309C138.385 118.165 139.329 117.215 139.864 117.523C140.123 117.676 140.23 118.526 140.247 118.951C140.265 119.295 140.212 119.638 140.078 119.828Z" fill="black" stroke="#D33833" stroke-width="11.9904"/>
<path d="M136.665 118.644C136.665 118.698 136.665 118.752 136.656 118.806C136.433 118.951 136.076 118.951 135.827 119.078C136.183 119.096 136.468 119.186 136.718 119.304C136.709 119.439 136.709 119.584 136.7 119.72C136.29 120 135.916 120.425 135.434 120.696C135.203 120.823 134.409 121.148 134.169 121.085C134.035 121.049 134.017 120.877 133.964 120.714C133.848 120.371 133.58 119.81 133.554 119.286C133.527 118.626 133.456 117.513 134.16 117.649C134.73 117.758 135.39 118.02 135.827 118.264C136.103 118.427 136.254 118.608 136.665 118.644Z" fill="#D33833"/>
<path d="M136.665 118.644C136.665 118.698 136.665 118.752 136.656 118.806C136.433 118.951 136.076 118.951 135.827 119.078C136.183 119.096 136.468 119.186 136.718 119.304C136.709 119.439 136.709 119.584 136.7 119.72C136.29 120 135.916 120.425 135.434 120.696C135.203 120.823 134.409 121.148 134.169 121.085C134.035 121.049 134.017 120.877 133.964 120.714C133.848 120.371 133.58 119.81 133.554 119.286C133.527 118.626 133.456 117.513 134.16 117.649C134.73 117.758 135.39 118.02 135.827 118.264C136.103 118.427 136.254 118.608 136.665 118.644Z" fill="black" stroke="#D33833" stroke-width="11.9904"/>
<path d="M137.066 119.431C137.003 119.069 136.932 118.969 136.959 118.653C137.913 118.011 138.082 119.756 137.066 119.431Z" fill="#D33833"/>
<path d="M137.066 119.431C137.003 119.069 136.932 118.969 136.959 118.653C137.913 118.011 138.082 119.756 137.066 119.431Z" fill="black" stroke="#D33833" stroke-width="11.9904"/>
<path d="M138.438 119.72C138.438 119.72 138.144 119.295 138.358 119.168C138.572 119.042 138.777 119.168 138.902 118.951C139.027 118.734 138.902 118.608 138.947 118.354C138.991 118.101 139.196 118.056 139.41 118.011C139.624 117.966 140.212 117.884 140.293 118.092L140.043 117.324L139.535 117.152L137.939 118.092L137.859 118.563V119.503M134.017 121.13C133.964 120.461 133.911 119.801 133.857 119.132C133.768 118.137 134.089 118.309 134.944 118.309C135.078 118.309 135.747 118.463 135.791 118.563C136.023 119.042 135.408 118.933 136.059 119.295C136.602 119.593 137.574 119.114 137.351 118.436C137.226 118.282 136.709 118.391 136.522 118.291L135.533 117.776C135.114 117.559 134.151 117.233 133.706 117.541C132.573 118.318 133.777 120.271 134.178 121.085" fill="#EF3D3A"/>
<path d="M135.131 106.003C133.981 105.732 133.411 106.491 133.063 107.278C132.751 107.206 132.876 106.772 132.956 106.555C133.161 105.985 133.99 105.216 134.668 105.325C134.953 105.361 135.345 105.632 135.131 106.003ZM140.72 107.323H140.773C141.032 107.866 141.255 108.444 141.584 108.933C141.362 109.457 139.927 109.909 139.944 108.987C140.256 108.851 140.791 108.96 141.067 108.779C140.907 108.336 140.684 107.956 140.72 107.323ZM135.711 107.341C135.96 107.802 136.04 108.282 136.388 108.625C136.548 108.779 136.851 108.969 136.7 109.403C136.664 109.502 136.406 109.728 136.254 109.774C135.711 109.936 134.436 109.81 134.864 109.113C135.318 109.132 135.924 109.412 136.263 109.077C136.005 108.661 135.541 107.829 135.711 107.341ZM140.515 111.989C139.695 112.522 138.777 113.11 137.422 112.974C137.137 112.721 137.021 112.151 137.306 111.781C137.449 112.034 137.359 112.504 137.77 112.577C138.536 112.712 139.427 112.097 139.98 111.889C140.319 111.302 139.953 111.094 139.641 110.714C139.008 109.945 138.171 108.987 138.197 107.839C138.456 107.649 138.474 108.128 138.509 108.209C138.839 108.987 139.668 109.991 140.265 110.66C140.417 110.822 140.657 110.985 140.684 111.094C140.764 111.401 140.479 111.781 140.515 111.989ZM129.658 111.428C129.4 111.274 129.337 110.623 129.034 110.605C128.598 110.578 128.678 111.455 128.678 111.971C128.384 111.7 128.33 110.849 128.544 110.416C128.295 110.289 128.187 110.551 128.045 110.642C128.232 109.33 129.943 110.036 129.658 111.428ZM141.032 112.54C140.648 113.282 140.105 114.096 138.982 114.123C138.955 113.888 138.937 113.517 138.982 113.372C139.846 113.282 140.381 112.839 141.032 112.54ZM135.648 113.02C136.361 113.399 137.68 113.445 138.661 113.417C138.714 113.634 138.714 113.906 138.714 114.168C137.458 114.222 135.978 113.906 135.648 113.02ZM135.514 113.725C136.014 114.991 137.716 114.846 139.151 114.81C139.089 114.973 138.955 115.172 138.777 115.235C138.313 115.425 137.047 115.569 136.406 115.226C136.005 115.009 135.737 114.511 135.514 114.222C135.416 114.087 134.882 113.734 135.514 113.725Z" fill="#231F20"/>
<path d="M140.452 120.696C139.873 121.709 139.311 122.749 138.625 123.635C138.91 122.776 139.035 121.329 139.08 120.226C139.686 119.937 140.203 120.29 140.452 120.696Z" fill="#81B0C4"/>
<path d="M143.581 124.331C142.93 124.467 142.476 125.109 141.834 125.064C142.191 124.566 142.797 124.349 143.581 124.331ZM143.866 125.362C143.331 125.416 142.707 125.507 142.173 125.462C142.431 125.064 143.412 125.208 143.866 125.362ZM144.053 126.257C143.456 126.266 142.716 126.257 142.146 126.212C142.485 125.841 143.67 126.076 144.053 126.257Z" fill="#231F20"/>
<path d="M139.329 128.699C139.418 129.458 139.712 130.227 139.677 131.059C139.347 131.167 139.16 131.267 138.714 131.267C138.687 130.561 138.589 129.476 138.616 128.798C138.83 128.816 139.151 128.644 139.329 128.699Z" fill="#DCD9D8"/>
<path d="M138.367 117.486C138.064 117.685 137.814 117.929 137.52 118.146C136.878 118.183 136.531 118.101 136.067 117.731C136.076 117.703 136.121 117.712 136.121 117.676C136.807 117.984 137.681 117.55 138.367 117.486Z" fill="#F0D6B7"/>
<path d="M134.784 122.215C134.971 121.392 135.711 120.958 136.38 120.506C137.066 121.392 137.485 122.532 137.948 123.635C136.852 123.3 135.738 122.767 134.784 122.215Z" fill="#81B0C4"/>
<path d="M138.616 128.807C138.59 129.485 138.679 130.561 138.714 131.275C139.16 131.275 139.347 131.176 139.677 131.067C139.713 130.236 139.419 129.467 139.33 128.707C139.151 128.644 138.83 128.816 138.616 128.807ZM131.735 124.973C132.029 127.695 132.448 129.973 133.224 132.388C134.944 132.921 137.012 132.966 138.536 132.487C138.26 131.131 138.376 129.476 138.215 128.02C138.091 126.926 138.153 125.832 137.984 124.72C136.138 124.331 133.536 124.629 131.735 124.973ZM138.42 124.738C138.402 125.904 138.474 127.062 138.563 128.228C139.009 128.165 139.303 128.12 139.713 128.02C139.579 126.899 139.597 125.624 139.321 124.629C139.009 124.639 138.732 124.629 138.42 124.738ZM140.658 124.548C140.444 124.503 140.203 124.548 140.007 124.548C140.105 125.498 140.328 126.546 140.408 127.55C140.72 127.559 140.889 127.405 141.148 127.36C141.166 126.483 141.077 125.271 140.658 124.548ZM144.054 127.695C144.713 127.532 145.123 126.718 144.936 125.877C144.811 125.317 144.597 124.25 144.357 123.888C144.187 123.626 143.715 123.273 143.332 123.517C142.717 123.915 141.638 124.033 141.192 124.512C141.415 125.271 141.487 126.302 141.576 127.261C142.342 127.306 143.278 127.044 143.92 127.324C143.474 127.469 142.904 127.469 142.52 127.686C142.841 127.839 143.572 127.812 144.054 127.695ZM137.939 123.635C137.476 122.532 137.057 121.392 136.37 120.506C135.702 120.958 134.971 121.392 134.775 122.215C135.737 122.767 136.852 123.3 137.939 123.635ZM139.08 120.226C139.035 121.329 138.911 122.776 138.625 123.635C139.312 122.74 139.873 121.709 140.453 120.696C140.203 120.289 139.686 119.937 139.08 120.226ZM137.788 119.765C137.529 119.738 137.306 120.072 136.967 119.928C136.887 120.018 136.816 120.108 136.736 120.199C137.484 121.121 137.832 122.423 138.411 123.499C138.723 122.459 138.688 121.329 138.759 120.199C138.331 120.217 138.091 119.792 137.788 119.765ZM136.959 118.653C136.932 118.969 137.003 119.069 137.065 119.43C138.082 119.756 137.912 118.011 136.959 118.653ZM135.827 118.273C135.39 118.029 134.73 117.767 134.16 117.658C133.456 117.522 133.527 118.635 133.554 119.295C133.58 119.819 133.848 120.371 133.964 120.723C134.017 120.886 134.035 121.058 134.169 121.094C134.409 121.148 135.212 120.832 135.434 120.705C135.916 120.443 136.29 120.018 136.7 119.729C136.709 119.593 136.709 119.448 136.718 119.313C136.468 119.186 136.192 119.105 135.827 119.087C136.067 118.96 136.433 118.96 136.655 118.815C136.655 118.761 136.655 118.707 136.664 118.653C136.254 118.607 136.103 118.427 135.827 118.273ZM131.637 117.504C131.272 117.884 132.662 118.39 133.099 118.418C133.099 118.183 133.233 117.957 133.206 117.785C132.68 117.694 131.994 117.758 131.637 117.504ZM136.13 117.676C136.13 117.712 136.085 117.703 136.076 117.73C136.549 118.101 136.896 118.182 137.529 118.146C137.814 117.938 138.073 117.685 138.376 117.486C137.681 117.55 136.807 117.984 136.13 117.676ZM140.248 118.942C140.23 118.526 140.123 117.667 139.864 117.513C139.33 117.197 138.385 118.155 137.984 118.3C138.028 118.427 138.099 118.526 138.108 118.689C138.349 118.626 138.634 118.671 138.839 118.77C138.599 118.797 138.34 118.797 138.18 118.915C138.126 119.087 138.197 119.313 138.153 119.548C138.714 119.711 139.365 119.792 140.078 119.819C140.212 119.638 140.265 119.295 140.248 118.942ZM131.022 117.866C130.906 117.785 130.131 116.763 130.024 116.808C128.625 117.369 127.314 118.336 126.147 119.258C127.261 121.691 127.715 124.666 127.796 127.532C129.07 128.138 130.193 129.015 131.931 129.105C131.726 127.668 131.548 126.375 131.432 125.018C130.996 124.828 130.372 125.027 129.962 124.964C129.962 124.467 130.585 124.747 130.639 124.413C130.675 124.159 130.291 124.141 130.416 123.743C130.737 123.861 130.906 124.123 131.245 124.223C131.557 123.535 131.245 122.315 131.29 121.736C131.299 121.628 131.343 121.139 131.584 121.221C131.798 121.293 131.575 122.532 131.593 123.074C131.61 123.581 131.53 124.06 131.735 124.376C133.411 124.141 135.114 123.997 136.932 123.942C136.531 123.771 136.058 123.608 135.541 123.309C135.256 123.147 134.374 122.812 134.293 122.541C134.16 122.107 134.632 121.881 134.712 121.51C133.866 121.98 133.705 121.058 133.5 120.416C133.322 119.828 133.215 119.385 133.17 119.051C132.431 118.671 131.646 118.318 131.022 117.866ZM139.508 116.926C140.675 116.356 140.889 119.069 140.426 119.946C140.497 120.208 140.738 120.307 140.836 120.542C140.185 121.727 139.463 122.83 138.795 123.997C139.285 123.68 139.998 123.942 140.577 123.707C140.791 123.626 140.943 123.129 141.103 122.731C141.549 121.646 142.012 120.271 142.217 119.241C142.262 119.005 142.396 118.49 142.36 118.282C142.307 117.902 141.807 117.622 141.549 117.396C141.077 116.962 140.782 116.591 140.283 116.184C140.096 116.483 139.668 116.681 139.508 116.926ZM128.357 106.428C127.804 107.052 127.92 108.209 127.983 109.041C128.99 108.399 130.318 109.095 130.309 110.18C130.79 110.171 130.487 109.574 130.398 109.186C130.113 107.929 130.88 106.572 130.434 105.424C129.569 105.496 128.865 105.849 128.357 106.428ZM132.332 102.82C131.076 103.182 129.462 104.113 128.945 105.261C129.347 105.198 129.623 104.999 130.015 104.972C130.167 104.963 130.363 105.035 130.532 104.99C130.871 104.9 131.165 104.122 131.423 103.833C131.673 103.552 131.976 103.426 132.181 103.173C132.315 103.109 132.511 103.109 132.52 102.91C132.466 102.847 132.404 102.802 132.332 102.82ZM138.884 103.164C137.574 102.413 135.363 101.853 133.973 102.558C132.849 103.127 131.334 104.068 130.817 105.252C131.299 106.401 130.675 107.449 130.63 108.616C130.612 109.24 130.915 109.773 130.942 110.452C130.773 110.732 130.273 110.759 129.926 110.741C129.81 110.144 129.605 109.475 128.999 109.403C128.143 109.303 127.51 110.027 127.475 110.777C127.43 111.663 128.143 113.128 129.159 113.029C129.551 112.992 129.65 112.595 130.077 112.595C130.309 113.065 129.721 113.209 129.658 113.544C129.641 113.634 129.703 113.969 129.748 114.132C129.935 114.9 130.345 115.904 130.746 116.492C131.263 117.242 132.27 117.351 133.358 117.423C133.554 116.998 134.267 117.034 134.73 117.143C134.169 116.917 133.652 116.374 133.224 115.895C132.734 115.343 132.234 114.756 132.208 114.032C133.144 115.343 133.91 116.492 135.604 117.07C136.887 117.504 138.385 116.871 139.374 116.166C139.784 115.877 140.025 115.407 140.319 114.991C141.406 113.399 141.914 111.139 141.807 108.942C141.763 108.037 141.763 107.133 141.46 106.527C141.148 105.894 140.087 105.316 139.463 105.894C139.347 105.27 139.98 104.891 140.72 105.117C140.194 104.421 139.642 103.598 138.884 103.164ZM141.326 123.608C142.351 123.092 144.259 122.224 144.891 123.608C145.132 124.123 145.408 124.982 145.524 125.516C145.694 126.257 145.337 127.83 144.579 128.074C143.911 128.292 143.136 128.283 142.333 128.12C142.235 128.038 142.137 127.903 142.057 127.758C141.487 127.74 140.943 127.785 140.497 128.029C140.542 128.463 140.256 128.527 139.98 128.617C139.784 129.422 140.381 130.471 140.239 131.194C140.141 131.718 139.508 131.8 139.044 131.89C139.026 132.18 139.062 132.424 139.098 132.668C138.991 133.066 138.518 133.292 138.064 133.346C136.575 133.527 134.32 133.608 132.894 133.084C132.493 132.089 132.181 130.887 131.851 129.756C130.461 129.91 129.329 129.15 128.268 128.644C127.903 128.472 127.394 128.373 127.252 128.075C127.118 127.785 127.172 127.234 127.136 126.718C127.056 125.389 126.976 124.105 126.637 122.749C126.485 122.134 126.209 121.6 126.022 121.013C125.844 120.47 125.54 119.792 125.46 119.249C125.344 118.445 126.093 118.399 126.566 118.047C127.305 117.504 127.885 117.206 128.687 116.718C128.928 116.573 129.641 116.211 129.721 116.039C129.881 115.705 129.445 115.235 129.329 114.973C129.142 114.557 129.043 114.204 129.017 113.797C128.348 113.689 127.831 113.282 127.528 112.83C127.02 112.07 126.664 110.669 127.109 109.611C127.145 109.529 127.314 109.357 127.341 109.231C127.394 108.978 127.243 108.643 127.234 108.372C127.189 106.988 127.466 105.795 128.384 105.379C128.758 103.869 130.095 103.372 131.352 102.621C131.824 102.341 132.341 102.16 132.876 101.961C134.793 101.247 137.743 101.382 139.338 102.603C140.016 103.118 141.094 104.212 141.478 105.008C142.503 107.097 142.422 110.596 141.709 113.146C141.611 113.49 141.478 113.987 141.282 114.403C141.148 114.692 140.729 115.262 140.773 115.515C140.827 115.777 141.736 116.474 141.932 116.663C142.28 117.007 142.948 117.459 143.002 117.893C143.064 118.354 142.806 118.987 142.672 119.43C142.244 120.913 141.816 122.279 141.326 123.608Z" fill="#231F20"/>
<path d="M134.508 113.336C134.561 113.264 134.864 113.146 135.292 113.354C135.292 113.354 134.784 113.435 134.828 114.295L134.615 114.249C134.624 114.258 134.401 113.481 134.508 113.336Z" fill="#F7E4CD"/>
<path d="M138.197 120.678C138.197 120.805 138.09 120.913 137.965 120.913C137.84 120.913 137.733 120.805 137.733 120.678C137.733 120.552 137.84 120.443 137.965 120.443C138.099 120.443 138.197 120.552 138.197 120.678ZM138.429 121.772C138.429 121.899 138.322 122.007 138.197 122.007C138.072 122.007 137.965 121.899 137.965 121.772C137.965 121.646 138.072 121.537 138.197 121.537C138.331 121.537 138.429 121.637 138.429 121.772Z" fill="#1D1919"/>
<path d="M126.29 135.607C126.218 135.616 126.156 135.625 126.103 135.634C126.049 135.643 125.996 135.652 125.924 135.67C125.844 135.688 125.799 135.724 125.782 135.778C125.764 135.833 125.746 135.887 125.746 135.959V138.165C125.746 138.359 125.703 138.551 125.621 138.726C125.541 138.898 125.434 139.033 125.291 139.151C125.149 139.259 124.988 139.35 124.81 139.404C124.632 139.459 124.445 139.495 124.249 139.495C123.901 139.495 123.625 139.413 123.411 139.241C123.197 139.07 123.09 138.844 123.09 138.545C123.09 138.373 123.134 138.229 123.232 138.111C123.33 137.994 123.464 137.939 123.634 137.939C123.794 137.939 123.919 137.985 124.017 138.084C124.115 138.184 124.159 138.301 124.159 138.437C124.159 138.554 124.115 138.672 124.035 138.771C123.954 138.871 123.856 138.97 123.749 139.052V139.088C123.767 139.124 123.803 139.16 123.856 139.187C123.91 139.214 123.972 139.223 124.026 139.223C124.249 139.223 124.427 139.142 124.552 138.979C124.677 138.817 124.739 138.572 124.739 138.247V135.986C124.739 135.923 124.73 135.86 124.712 135.815C124.694 135.769 124.641 135.733 124.561 135.697C124.507 135.67 124.436 135.652 124.356 135.634C124.275 135.616 124.213 135.607 124.159 135.598V135.38H126.263V135.607H126.29ZM129.588 138.717C129.525 138.826 129.445 138.925 129.356 139.024C129.267 139.124 129.16 139.196 129.044 139.269C128.919 139.341 128.794 139.395 128.67 139.431C128.545 139.468 128.393 139.486 128.233 139.486C127.957 139.486 127.725 139.449 127.52 139.368C127.324 139.287 127.154 139.187 127.03 139.052C126.896 138.916 126.807 138.762 126.735 138.581C126.67 138.392 126.637 138.194 126.637 137.994C126.637 137.804 126.673 137.614 126.744 137.442C126.816 137.27 126.914 137.108 127.039 136.972C127.163 136.836 127.324 136.728 127.52 136.646C127.724 136.562 127.942 136.519 128.162 136.52C128.42 136.52 128.634 136.556 128.803 136.619C128.973 136.683 129.106 136.773 129.213 136.882C129.32 136.99 129.392 137.117 129.445 137.261C129.49 137.406 129.516 137.56 129.516 137.722V137.903H127.636C127.636 138.292 127.707 138.581 127.858 138.78C128.001 138.979 128.242 139.079 128.554 139.079C128.732 139.079 128.884 139.033 129.026 138.934C129.169 138.836 129.29 138.71 129.383 138.563L129.588 138.717ZM128.527 137.641C128.527 137.532 128.518 137.415 128.509 137.297C128.5 137.18 128.483 137.08 128.447 137.008C128.411 136.918 128.376 136.854 128.313 136.809C128.26 136.764 128.188 136.746 128.108 136.746C127.966 136.746 127.85 136.818 127.77 136.963C127.68 137.107 127.636 137.343 127.627 137.659L128.527 137.641ZM133.519 139.386H131.843V139.178C131.878 139.178 131.923 139.169 131.968 139.16C132.021 139.151 132.057 139.142 132.084 139.133C132.119 139.115 132.146 139.079 132.164 139.043C132.182 139.006 132.19 138.943 132.19 138.871V137.551C132.19 137.361 132.155 137.216 132.084 137.117C132.012 137.017 131.914 136.972 131.772 136.972C131.7 136.972 131.629 136.981 131.567 137.008C131.504 137.026 131.442 137.062 131.379 137.108C131.326 137.144 131.281 137.18 131.246 137.225C131.21 137.261 131.183 137.298 131.165 137.334V138.844C131.165 138.907 131.174 138.961 131.192 139.006C131.21 139.052 131.246 139.088 131.281 139.106C131.308 139.124 131.344 139.142 131.388 139.151L131.522 139.178V139.386H129.828V139.178C129.873 139.178 129.917 139.169 129.971 139.16C130.016 139.151 130.06 139.142 130.096 139.133C130.158 139.115 130.194 139.079 130.221 139.034C130.238 138.988 130.256 138.934 130.256 138.862V137.216C130.256 137.162 130.238 137.099 130.212 137.044C130.185 136.99 130.14 136.945 130.096 136.909C130.06 136.891 130.024 136.863 129.971 136.854C129.916 136.836 129.859 136.827 129.802 136.827V136.619L131.13 136.547L131.174 136.592V136.999H131.183C131.248 136.945 131.311 136.888 131.37 136.827C131.436 136.77 131.504 136.715 131.575 136.665C131.647 136.619 131.736 136.583 131.843 136.547C131.95 136.511 132.075 136.502 132.199 136.502C132.502 136.502 132.725 136.592 132.877 136.764C133.028 136.936 133.1 137.171 133.1 137.46V138.844C133.1 138.916 133.109 138.97 133.126 139.006C133.144 139.052 133.189 139.079 133.242 139.106C133.269 139.115 133.305 139.133 133.349 139.142C133.394 139.151 133.438 139.16 133.501 139.169V139.386H133.519ZM137.351 139.386H136.041C135.903 139.136 135.754 138.891 135.595 138.654C135.462 138.455 135.337 138.265 135.221 138.102L135.061 138.247V138.862C135.061 138.925 135.07 138.988 135.087 139.024C135.105 139.07 135.141 139.097 135.203 139.124C135.239 139.142 135.275 139.151 135.319 139.16C135.364 139.169 135.408 139.178 135.453 139.178V139.386H133.724V139.178C133.768 139.178 133.813 139.169 133.866 139.16C133.911 139.151 133.955 139.142 133.991 139.133C134.053 139.115 134.089 139.079 134.116 139.033C134.134 138.988 134.151 138.934 134.151 138.862V135.715C134.151 135.652 134.134 135.588 134.107 135.525C134.08 135.462 134.044 135.408 133.991 135.371C133.955 135.353 133.902 135.326 133.831 135.317C133.759 135.299 133.697 135.29 133.634 135.29V135.082L135.016 135.01L135.061 135.055V137.966C135.194 137.84 135.355 137.695 135.524 137.533C135.693 137.37 135.836 137.234 135.934 137.126C135.996 137.062 136.032 137.017 136.032 136.981C136.041 136.945 136.041 136.927 136.041 136.918C136.041 136.882 136.014 136.854 135.952 136.836C135.89 136.818 135.809 136.791 135.685 136.773V136.574H137.093V136.773C136.906 136.827 136.763 136.872 136.665 136.918C136.567 136.963 136.46 137.026 136.344 137.098C136.268 137.151 136.194 137.205 136.121 137.261C136.05 137.315 135.97 137.388 135.872 137.469C136.05 137.74 136.219 137.985 136.371 138.211C136.522 138.437 136.683 138.681 136.852 138.934C136.906 139.024 136.977 139.079 137.066 139.115C137.155 139.142 137.235 139.16 137.325 139.169V139.386H137.351ZM139.134 139.386H137.378V139.178C137.423 139.178 137.476 139.169 137.521 139.16C137.565 139.151 137.61 139.142 137.637 139.133C137.699 139.115 137.735 139.079 137.761 139.033C137.788 138.988 137.797 138.934 137.797 138.862V137.216C137.797 137.153 137.779 137.089 137.752 137.044C137.729 136.995 137.692 136.954 137.646 136.927C137.61 136.909 137.565 136.882 137.494 136.863C137.423 136.845 137.36 136.827 137.307 136.827V136.619L138.67 136.547L138.715 136.592V138.835C138.715 138.898 138.733 138.952 138.76 139.006C138.786 139.052 138.831 139.088 138.875 139.106C138.911 139.124 138.956 139.142 139 139.151C139.045 139.16 139.089 139.169 139.143 139.178V139.386H139.134ZM138.733 135.543C138.733 135.688 138.679 135.805 138.572 135.905C138.465 136.004 138.332 136.059 138.189 136.059C138.038 136.059 137.913 136.004 137.797 135.905C137.69 135.805 137.637 135.679 137.637 135.543C137.637 135.399 137.69 135.281 137.797 135.173C137.904 135.073 138.038 135.019 138.189 135.019C138.341 135.019 138.465 135.073 138.572 135.173C138.679 135.272 138.733 135.399 138.733 135.543ZM143.065 139.386H141.389V139.178C141.425 139.178 141.469 139.169 141.514 139.16C141.567 139.151 141.603 139.142 141.63 139.133C141.665 139.115 141.692 139.079 141.71 139.043C141.728 139.006 141.737 138.943 141.737 138.871V137.551C141.737 137.361 141.701 137.216 141.63 137.117C141.558 137.017 141.46 136.972 141.318 136.972C141.246 136.972 141.175 136.981 141.113 137.008C141.05 137.035 140.988 137.062 140.926 137.108C140.872 137.144 140.828 137.18 140.792 137.225C140.756 137.261 140.729 137.298 140.712 137.334V138.844C140.712 138.907 140.721 138.961 140.738 139.006C140.756 139.052 140.792 139.088 140.828 139.106C140.854 139.124 140.89 139.142 140.934 139.151L141.068 139.178V139.386H139.375V139.178C139.419 139.178 139.464 139.169 139.517 139.16C139.562 139.151 139.606 139.142 139.642 139.133C139.704 139.115 139.74 139.079 139.767 139.034C139.785 138.988 139.803 138.934 139.803 138.862V137.216C139.803 137.162 139.785 137.099 139.758 137.044C139.731 136.99 139.687 136.945 139.642 136.909C139.606 136.891 139.571 136.863 139.517 136.854C139.463 136.836 139.405 136.827 139.348 136.827V136.619L140.676 136.547L140.721 136.592V136.999H140.73C140.795 136.945 140.857 136.888 140.917 136.827C140.982 136.77 141.051 136.715 141.122 136.665C141.193 136.619 141.282 136.583 141.389 136.547C141.496 136.511 141.621 136.502 141.746 136.502C142.049 136.502 142.272 136.592 142.423 136.764C142.575 136.936 142.646 137.171 142.646 137.46V138.844C142.646 138.916 142.655 138.97 142.673 139.006C142.69 139.052 142.735 139.079 142.788 139.106C142.815 139.115 142.851 139.133 142.895 139.142C142.94 139.151 142.985 139.16 143.047 139.169V139.386H143.065ZM144.607 139.486C144.429 139.486 144.25 139.459 144.081 139.404C143.912 139.35 143.778 139.296 143.68 139.232L143.6 139.422H143.386L143.35 138.373H143.555C143.582 138.455 143.626 138.554 143.698 138.663C143.76 138.771 143.84 138.862 143.92 138.952C144.012 139.037 144.114 139.11 144.224 139.169C144.339 139.223 144.455 139.26 144.58 139.26C144.749 139.26 144.874 139.223 144.954 139.16C145.035 139.097 145.079 138.988 145.079 138.853C145.079 138.78 145.061 138.717 145.026 138.663C144.99 138.618 144.937 138.572 144.874 138.536C144.803 138.5 144.723 138.464 144.634 138.437C144.544 138.41 144.438 138.382 144.313 138.337C144.188 138.301 144.081 138.265 143.992 138.22C143.903 138.184 143.805 138.12 143.715 138.039C143.635 137.967 143.564 137.876 143.519 137.777C143.466 137.677 143.448 137.551 143.448 137.406C143.448 137.144 143.555 136.927 143.778 136.764C144.001 136.601 144.286 136.52 144.642 136.52C144.812 136.52 144.963 136.538 145.106 136.574C145.249 136.61 145.364 136.646 145.463 136.692L145.525 136.529H145.739L145.783 137.487H145.587C145.525 137.288 145.409 137.126 145.257 136.981C145.097 136.836 144.928 136.764 144.749 136.764C144.607 136.764 144.491 136.791 144.411 136.854C144.331 136.918 144.286 136.999 144.286 137.108C144.286 137.252 144.348 137.352 144.464 137.415C144.58 137.478 144.749 137.542 144.963 137.596C145.293 137.686 145.534 137.804 145.694 137.948C145.846 138.102 145.926 138.292 145.926 138.518C145.926 138.826 145.81 139.07 145.569 139.233C145.302 139.395 144.99 139.486 144.607 139.486Z" fill="#231F20"/>
</g>
<mask id="mask1_499_3566" style="mask-type:luminance" maskUnits="userSpaceOnUse" x="105" y="163" width="35" height="34">
<path d="M140 163.5H105V196.5H140V163.5Z" fill="white"/>
</mask>
<g mask="url(#mask1_499_3566)">
<path d="M119.341 189.744C119.341 189.744 116.182 192.075 113.963 191.44C113.963 191.44 124.89 202.293 136.243 191.864C136.243 191.864 140.042 187.497 139.871 184.275L138.377 183.851C138.377 183.851 136.286 194.11 125.359 192.839C125.402 192.881 122.627 192.245 119.341 189.744Z" fill="#EBA546"/>
<path d="M116.032 175.286C116.032 175.286 115.69 171.386 117.397 169.86C117.397 169.86 102.373 173.463 105.404 188.556C105.404 188.556 107.196 194.068 110.013 195.594L111.123 194.535C111.123 194.535 103.398 187.412 110.184 178.805C110.141 178.805 112.148 176.77 116.032 175.286Z" fill="#322D6B"/>
<path d="M130.396 179.356C130.396 179.356 134.024 180.882 134.579 183.087C134.579 183.087 138.463 168.248 123.652 163.796C123.652 163.796 117.89 162.778 115.244 164.517L115.671 166.001C115.671 166.001 125.658 162.566 130.098 172.572C130.055 172.572 130.908 175.243 130.396 179.356Z" fill="#7C64A5"/>
<path d="M124.789 173.957C123.509 175.398 121.289 175.526 119.838 174.254C118.387 172.982 118.259 170.777 119.539 169.336C120.82 167.894 123.039 167.767 124.491 169.039C125.942 170.311 126.07 172.515 124.789 173.957Z" fill="#7C64A5"/>
<path d="M115.82 188.365C114.539 189.807 112.32 189.934 110.869 188.662C109.418 187.39 109.289 185.186 110.613 183.744C111.893 182.303 114.113 182.175 115.564 183.49C116.972 184.719 117.1 186.924 115.82 188.365Z" fill="#322D6B"/>
<path d="M132.472 188.796C131.191 190.238 128.972 190.365 127.521 189.093C126.07 187.821 125.942 185.616 127.222 184.175C128.503 182.733 130.722 182.606 132.173 183.878C133.624 185.15 133.752 187.355 132.472 188.796Z" fill="#EBA546"/>
</g>
<path d="M243 168.939V168.91C243 165.926 245.256 163.483 248.489 163.483C250.475 163.483 251.663 164.143 252.64 165.102L251.166 166.796C250.354 166.061 249.527 165.612 248.474 165.612C246.699 165.612 245.421 167.081 245.421 168.88V168.91C245.421 170.709 246.669 172.208 248.474 172.208C249.677 172.208 250.414 171.728 251.241 170.979L252.716 172.463C251.633 173.617 250.43 174.337 248.399 174.337C245.301 174.337 243 171.953 243 168.939ZM255.748 163.663H258.064V167.815H262.335V163.663H264.653V174.156H262.335V169.944H258.064V174.156H255.748V163.663ZM268.379 163.666H276.447V165.752H270.717V167.914H275.759V170.001H270.717V172.24H276.523V174.326H268.379V163.666ZM279.896 163.663H287.912V165.762H282.211V167.995H287.235V170.094H282.211V174.156H279.896V163.663Z" fill="#435363"/>
<path d="M265.776 148.865C261.934 148.865 258.808 145.75 258.808 141.921C258.808 138.091 261.934 134.975 265.776 134.975C268.948 134.975 271.629 137.098 272.47 139.993H275.166C274.268 135.645 270.4 132.366 265.776 132.366C260.491 132.366 256.19 136.652 256.19 141.921C256.19 147.189 260.491 151.475 265.776 151.475C270.4 151.475 274.268 148.196 275.166 143.848H272.47C271.629 146.742 268.948 148.865 265.776 148.865Z" fill="#435363"/>
<path d="M261.079 146.602C262.283 147.802 263.945 148.545 265.777 148.545V145.776C265.269 145.776 264.766 145.676 264.296 145.483C263.827 145.289 263.401 145.004 263.042 144.646L261.079 146.602Z" fill="#435363"/>
<path d="M259.131 141.92C259.131 142.868 259.334 143.769 259.695 144.586L262.236 143.472C262.02 142.983 261.908 142.454 261.909 141.92C261.909 139.791 263.641 138.065 265.776 138.065V135.296C262.112 135.296 259.131 138.268 259.131 141.92Z" fill="#F38B00"/>
<path d="M268.187 135.747L267.179 138.329C267.998 138.647 268.685 139.234 269.125 139.992H272.135C271.541 138.048 270.072 136.481 268.187 135.747Z" fill="#435363"/>
<path d="M267.18 145.511L268.187 148.093C270.073 147.359 271.541 145.791 272.136 143.847H269.126C268.686 144.606 267.999 145.193 267.18 145.511Z" fill="#F38B00"/>
<path d="M253.481 145.626C253.437 145.481 253.396 145.335 253.357 145.188L253.349 145.161C253.314 145.025 253.28 144.888 253.249 144.751C253.216 144.605 253.185 144.458 253.156 144.311C253.146 144.258 253.137 144.204 253.128 144.151C253.111 144.056 253.094 143.962 253.079 143.865C253.067 143.784 253.056 143.702 253.045 143.62C252.968 143.057 252.93 142.488 252.93 141.92H250.305C250.304 142.546 250.344 143.165 250.418 143.776C250.419 143.789 250.421 143.803 250.423 143.816C250.443 143.982 250.466 144.148 250.492 144.313C250.499 144.358 250.507 144.404 250.515 144.449C250.538 144.585 250.561 144.72 250.587 144.854C250.601 144.926 250.616 144.997 250.631 145.068C250.653 145.175 250.676 145.282 250.701 145.388C250.722 145.482 250.746 145.575 250.77 145.668C250.791 145.751 250.811 145.834 250.833 145.918C250.863 146.028 250.895 146.136 250.927 146.246C250.94 146.291 250.952 146.338 250.966 146.383C251.146 146.977 251.362 147.56 251.613 148.128L254.018 147.073C253.81 146.602 253.631 146.119 253.481 145.626Z" fill="#435363"/>
<path d="M265.777 154.726C262.235 154.726 259.024 153.288 256.698 150.969L254.839 152.823C257.639 155.613 261.505 157.341 265.777 157.341C273.667 157.341 280.176 151.455 281.128 143.848H278.48C277.544 149.997 272.204 154.726 265.777 154.726ZM265.777 129.115C268.655 129.115 271.313 130.063 273.458 131.663L275.03 129.562C272.449 127.639 269.247 126.5 265.777 126.5C259.212 126.5 253.603 130.576 251.356 136.327L253.805 137.277C255.674 132.505 260.336 129.115 265.777 129.115Z" fill="#F38B00"/>
<path d="M278.479 139.993H281.128C280.851 137.777 280.092 135.648 278.902 133.755L276.672 135.142C277.601 136.619 278.216 138.27 278.479 139.993Z" fill="#435363"/>
<path d="M275.495 139.993H278.152C277.459 135.551 274.407 131.878 270.317 130.287L269.368 132.72C272.478 133.93 274.831 136.661 275.495 139.993Z" fill="#F38B00"/>
<path d="M265.777 132.045L265.778 129.437H265.777C260.472 129.437 255.927 132.741 254.104 137.394L256.543 138.34C257.986 134.659 261.58 132.045 265.777 132.045Z" fill="#435363"/>
<path d="M255.869 141.92H253.252C253.252 147.166 256.516 151.665 261.126 153.508L262.098 151.087C258.451 149.628 255.869 146.07 255.869 141.92Z" fill="#F38B00"/>
<path d="M265.776 151.795V154.404C272.025 154.404 277.22 149.819 278.153 143.847H275.494C274.592 148.374 270.578 151.795 265.776 151.795Z" fill="#435363"/>
<mask id="mask2_499_3566" style="mask-type:luminance" maskUnits="userSpaceOnUse" x="239" y="27" width="53" height="44">
<path d="M292 27.5H239V70.5H292V27.5Z" fill="white"/>
</mask>
<g mask="url(#mask2_499_3566)">
<path d="M267.958 27.5015L252.33 41.2769L239 65.6079H251.021L267.958 27.5015ZM270.036 30.7241L263.367 49.8323L276.152 66.1645L251.346 70.4977H292L270.036 30.7241Z" fill="#0072C6"/>
</g>
</g>
<defs>
<clipPath id="clip0_499_3566">
<rect width="425" height="402" fill="white" transform="translate(0 0.5)"/>
</clipPath>
</defs>
</svg>
