<svg width="388" height="322" viewBox="0 0 388 322" fill="none" xmlns="http://www.w3.org/2000/svg">
<g clip-path="url(#clip0_1_1079)">
<path d="M56.8222 292.317C132.588 331.879 255.42 331.888 331.186 292.317C406.953 252.746 406.944 188.609 331.186 149.047C255.429 109.485 132.588 109.485 56.8222 149.047C-18.944 188.609 -18.9349 252.765 56.8222 292.317Z" fill="#F0F0F0"/>
<path d="M347.272 214.848C347.272 214.848 348.222 210.075 355.926 206.388C363.422 202.772 367.744 203.613 372.889 201.543C378.034 199.473 374.336 189.747 360.23 194.068C347.308 198.027 345.997 209.208 345.997 209.208L347.272 214.848Z" fill="#0E53BE"/>
<path opacity="0.2" d="M347.272 214.848C347.272 214.848 348.222 210.075 355.926 206.388C363.422 202.772 367.744 203.613 372.889 201.543C378.034 199.473 374.336 189.747 360.23 194.068C347.308 198.027 345.997 209.208 345.997 209.208L347.272 214.848Z" fill="black"/>
<path d="M345.916 213.058C345.865 213.066 345.813 213.066 345.763 213.058C345.701 213.037 345.644 213.003 345.595 212.96C345.546 212.917 345.506 212.864 345.478 212.805C345.449 212.746 345.432 212.683 345.429 212.617C345.425 212.552 345.434 212.487 345.455 212.425C347.264 207.255 351.785 202.483 357.681 199.572C365.24 195.875 370.62 197.051 370.846 197.105C370.973 197.134 371.084 197.212 371.153 197.322C371.223 197.432 371.246 197.565 371.217 197.692C371.188 197.819 371.11 197.93 371 197.999C370.89 198.069 370.756 198.092 370.629 198.063C370.575 198.063 365.339 196.924 358.115 200.458C352.463 203.224 348.077 207.816 346.359 212.751C346.322 212.838 346.261 212.914 346.182 212.968C346.104 213.022 346.012 213.054 345.916 213.058Z" fill="#FAFAFA"/>
<path d="M346.161 208.9C346.161 208.9 347.065 206.189 350.546 200.883C356.55 191.682 366.343 187.659 370.629 182.399C375.241 176.723 367.266 173.216 360.095 175.168C355.99 176.307 352.246 180.049 350.284 182.571C346.127 188.055 343.745 194.677 343.457 201.552L346.161 208.9Z" fill="#0E53BE"/>
<path d="M344.812 209.117C344.682 209.112 344.559 209.057 344.469 208.962C344.38 208.867 344.331 208.741 344.333 208.611C344.752 202.64 346.452 196.829 349.315 191.573C354.741 181.838 362.789 178.377 363.132 178.232C363.247 178.205 363.367 178.22 363.472 178.273C363.576 178.327 363.659 178.415 363.704 178.524C363.75 178.632 363.755 178.753 363.72 178.865C363.685 178.977 363.611 179.073 363.512 179.136C357.848 181.971 353.192 186.476 350.174 192.043C347.384 197.159 345.728 202.816 345.319 208.629C345.318 208.694 345.304 208.759 345.277 208.818C345.251 208.878 345.214 208.932 345.167 208.978C345.12 209.023 345.064 209.059 345.003 209.083C344.943 209.106 344.878 209.118 344.812 209.117Z" fill="#FAFAFA"/>
<path d="M81.8788 217.035C75.3773 212.669 75.0879 200.919 76.0284 193.535C77.5203 181.784 71.5072 179.073 68.4418 184.261C66.9588 186.783 65.0961 192.26 65.3041 198.641C65.6386 208.638 69.97 220.596 80.4591 224.935L81.8788 217.035Z" fill="#0E53BE"/>
<path opacity="0.2" d="M81.8788 217.035C75.3773 212.669 75.0879 200.919 76.0284 193.535C77.5203 181.784 71.5072 179.073 68.4418 184.261C66.9588 186.783 65.0961 192.26 65.3041 198.641C65.6386 208.638 69.97 220.596 80.4591 224.935L81.8788 217.035Z" fill="black"/>
<path d="M80.5408 224.266C80.4345 224.265 80.3318 224.227 80.2515 224.157C69.2469 214.748 67.5198 197.945 70.5761 186.294C70.5909 186.235 70.6173 186.179 70.6538 186.13C70.6902 186.081 70.736 186.039 70.7884 186.008C70.8409 185.977 70.8991 185.956 70.9596 185.947C71.0202 185.938 71.0819 185.941 71.1413 185.956C71.2006 185.97 71.2565 185.997 71.3057 186.033C71.3548 186.07 71.3964 186.115 71.4278 186.168C71.4593 186.22 71.4802 186.278 71.4892 186.339C71.4982 186.399 71.4952 186.461 71.4803 186.52C68.4964 197.9 70.1511 214.314 80.8663 223.47C80.9115 223.508 80.9486 223.555 80.9754 223.608C81.0022 223.661 81.0182 223.718 81.0224 223.777C81.0266 223.836 81.019 223.895 81 223.951C80.9809 224.007 80.9509 224.059 80.9116 224.103C80.8676 224.158 80.8109 224.202 80.7463 224.23C80.6817 224.258 80.6112 224.271 80.5408 224.266Z" fill="#FAFAFA"/>
<path d="M91.6534 238.728C85.9928 242.795 72.9808 246.311 68.749 239.342C64.8156 232.861 67.4469 230.032 59.4625 231.153C51.478 232.274 49.6424 226.074 51.5323 220.831C53.4222 215.589 45.5553 208.005 51.2972 202.094C57.0391 196.183 60.3396 208.475 63.6672 209.804C66.9948 211.133 69.0293 208.267 72.8633 210.355C76.6973 212.443 77.068 220.985 80.8025 221.147C86.9152 221.428 97.2054 221.382 97.983 226.833C98.7607 232.283 91.6534 238.728 91.6534 238.728Z" fill="#0E53BE"/>
<path d="M93.9953 236.341H93.9501C64.3363 233.25 52.8796 207.418 52.1743 203.658C52.1636 203.598 52.1647 203.538 52.1775 203.479C52.1904 203.42 52.2147 203.364 52.2491 203.314C52.2836 203.265 52.3274 203.223 52.3782 203.19C52.4289 203.157 52.4856 203.135 52.545 203.124C52.6044 203.114 52.6653 203.115 52.7242 203.128C52.7832 203.141 52.839 203.165 52.8885 203.199C52.9381 203.234 52.9803 203.278 53.0129 203.328C53.0455 203.379 53.0678 203.436 53.0785 203.495C53.7657 207.192 64.9873 232.419 94.0586 235.447C94.1181 235.452 94.1759 235.47 94.2286 235.498C94.2813 235.526 94.328 235.564 94.3658 235.61C94.4036 235.656 94.4319 235.71 94.449 235.767C94.4662 235.824 94.4718 235.884 94.4655 235.944C94.45 236.056 94.3934 236.159 94.3066 236.232C94.2198 236.306 94.1089 236.345 93.9953 236.341Z" fill="#FAFAFA"/>
<path d="M61.6145 224.772C59.7456 224.772 57.8798 224.621 56.0354 224.32C55.918 224.298 55.8142 224.231 55.7464 224.132C55.6787 224.034 55.6525 223.913 55.6737 223.796C55.6834 223.737 55.7049 223.681 55.7367 223.631C55.7686 223.581 55.8102 223.538 55.8592 223.504C55.9081 223.47 55.9633 223.447 56.0216 223.435C56.0798 223.423 56.1398 223.423 56.1981 223.434C59.5753 223.99 63.0207 223.99 66.3979 223.434C66.5166 223.41 66.6399 223.433 66.7414 223.499C66.8429 223.565 66.9144 223.669 66.9405 223.787C66.9524 223.845 66.9527 223.905 66.9414 223.963C66.9301 224.021 66.9074 224.077 66.8747 224.126C66.8419 224.176 66.7997 224.219 66.7505 224.252C66.7013 224.285 66.646 224.308 66.5878 224.32C64.95 224.641 63.2834 224.793 61.6145 224.772Z" fill="#FAFAFA"/>
<path d="M70.4492 227.474H70.3497C70.2339 227.449 70.1329 227.378 70.0686 227.278C70.0043 227.178 69.9819 227.057 70.0061 226.941C70.9194 222.916 71.1366 218.765 70.6481 214.667C70.6289 214.547 70.6582 214.424 70.7294 214.326C70.8006 214.228 70.908 214.162 71.0279 214.143C71.1478 214.123 71.2704 214.153 71.3688 214.224C71.4671 214.295 71.5332 214.402 71.5524 214.522C72.0764 218.746 71.856 223.029 70.9013 227.176C70.8683 227.268 70.8064 227.347 70.7249 227.401C70.6434 227.454 70.5467 227.48 70.4492 227.474Z" fill="#FAFAFA"/>
<path d="M15.0276 192.106L29.2242 183.917C29.9073 183.574 30.6613 183.395 31.426 183.395C32.1906 183.395 32.9447 183.574 33.6278 183.917L35.4363 184.957C36.079 185.373 36.6139 185.936 36.9974 186.599C37.3809 187.262 37.602 188.006 37.6426 188.771V205.149C37.6005 205.913 37.3788 206.657 36.9955 207.32C36.6122 207.982 36.078 208.545 35.4363 208.963L21.2488 217.152C20.5656 217.496 19.8116 217.674 19.047 217.674C18.2823 217.674 17.5283 217.496 16.8451 217.152L15.0367 216.113C14.3956 215.695 13.8625 215.132 13.4806 214.469C13.0988 213.806 12.879 213.062 12.8394 212.299V195.921C12.8802 195.158 13.0994 194.416 13.4795 193.753C13.8595 193.091 14.3898 192.527 15.0276 192.106Z" fill="#0E53BE"/>
<path opacity="0.5" d="M15.0276 192.106L29.2242 183.917C29.9073 183.574 30.6613 183.395 31.426 183.395C32.1906 183.395 32.9447 183.574 33.6278 183.917L35.4363 184.957C36.079 185.373 36.6139 185.936 36.9974 186.599C37.3809 187.262 37.602 188.006 37.6426 188.771V205.149C37.6005 205.913 37.3788 206.657 36.9955 207.32C36.6122 207.982 36.078 208.545 35.4363 208.963L21.2488 217.152C20.5656 217.496 19.8116 217.674 19.047 217.674C18.2823 217.674 17.5283 217.496 16.8451 217.152L15.0367 216.113C14.3956 215.695 13.8625 215.132 13.4806 214.469C13.0988 213.806 12.879 213.062 12.8394 212.299V195.921C12.8802 195.158 13.0994 194.416 13.4795 193.753C13.8595 193.091 14.3898 192.527 15.0276 192.106Z" fill="#FAFAFA"/>
<path d="M37.6251 188.771C37.6251 187.361 36.6395 186.792 35.4188 187.497L21.2312 195.686C20.5896 196.103 20.0554 196.666 19.6721 197.329C19.2887 197.992 19.067 198.735 19.0249 199.5V215.878C19.0249 217.279 20.0105 217.848 21.2312 217.152L35.4188 208.963C36.0605 208.545 36.5946 207.982 36.9779 207.32C37.3613 206.657 37.583 205.913 37.6251 205.149V188.771Z" fill="#0E53BE"/>
<path d="M12.8306 212.298C12.8674 213.065 13.0858 213.813 13.4678 214.479C13.8498 215.145 14.3845 215.711 15.0279 216.131L16.8363 217.17C17.4568 217.482 18.1362 217.658 18.8299 217.687C19.5235 217.717 20.2155 217.599 20.8602 217.342C19.8203 217.74 19.0517 217.152 19.0517 215.896V199.5C19.0758 198.732 19.3002 197.984 19.7028 197.331L13.4997 193.715C13.1052 194.372 12.8843 195.119 12.8577 195.884L12.8306 212.298Z" fill="#0E53BE"/>
<path opacity="0.1" d="M12.8306 212.298C12.8674 213.065 13.0858 213.813 13.4678 214.479C13.8498 215.145 14.3845 215.711 15.0279 216.131L16.8363 217.17C17.4568 217.482 18.1362 217.658 18.8299 217.687C19.5235 217.717 20.2155 217.599 20.8602 217.342C19.8203 217.74 19.0517 217.152 19.0517 215.896V199.5C19.0758 198.732 19.3002 197.984 19.7028 197.331L13.4997 193.715C13.1052 194.372 12.8843 195.119 12.8577 195.884L12.8306 212.298Z" fill="black"/>
<path d="M22.3163 200.621L34.3879 193.634C34.7044 193.444 34.9666 193.634 34.9666 193.968V202.103C34.9562 202.306 34.8985 202.505 34.798 202.682C34.6975 202.859 34.5571 203.011 34.3879 203.124L22.3163 210.165C21.9907 210.355 21.7285 210.165 21.7285 209.822V201.687C21.7328 201.475 21.7886 201.267 21.891 201.082C21.9933 200.896 22.1393 200.738 22.3163 200.621Z" fill="#FAFAFA"/>
<path d="M21.7285 200.964L28.9353 203.305L34.9666 193.29L29.1342 204.146L21.7285 200.964Z" fill="#E0E0E0"/>
<path d="M15.0279 150.773L29.2244 142.584C29.9063 142.236 30.6608 142.055 31.4262 142.055C32.1917 142.055 32.9462 142.236 33.6281 142.584L35.4365 143.623C36.0764 144.041 36.6082 144.605 36.9885 145.268C37.3688 145.931 37.5869 146.674 37.6248 147.438V163.815C37.5842 164.579 37.363 165.322 36.9795 165.983C36.5959 166.645 36.061 167.206 35.4185 167.621L21.2309 175.81C20.5491 176.157 19.7945 176.338 19.0291 176.338C18.2637 176.338 17.5092 176.157 16.8273 175.81L15.0188 174.779C14.3774 174.356 13.8449 173.788 13.4647 173.12C13.0845 172.453 12.8672 171.705 12.8306 170.938V154.587C12.8724 153.824 13.093 153.081 13.4747 152.418C13.8563 151.756 14.3884 151.192 15.0279 150.773Z" fill="#0E53BE"/>
<path opacity="0.5" d="M15.0279 150.773L29.2244 142.584C29.9063 142.236 30.6608 142.055 31.4262 142.055C32.1917 142.055 32.9462 142.236 33.6281 142.584L35.4365 143.623C36.0764 144.041 36.6082 144.605 36.9885 145.268C37.3688 145.931 37.5869 146.674 37.6248 147.438V163.815C37.5842 164.579 37.363 165.322 36.9795 165.983C36.5959 166.645 36.061 167.206 35.4185 167.621L21.2309 175.81C20.5491 176.157 19.7945 176.338 19.0291 176.338C18.2637 176.338 17.5092 176.157 16.8273 175.81L15.0188 174.779C14.3774 174.356 13.8449 173.788 13.4647 173.12C13.0845 172.453 12.8672 171.705 12.8306 170.938V154.587C12.8724 153.824 13.093 153.081 13.4747 152.418C13.8563 151.756 14.3884 151.192 15.0279 150.773Z" fill="#FAFAFA"/>
<path d="M37.6251 147.438C37.6251 146.028 36.6395 145.458 35.4188 146.163L21.2312 154.352C20.5885 154.769 20.0536 155.332 19.6701 155.995C19.2867 156.657 19.0656 157.402 19.0249 158.166V174.553C19.0249 175.954 20.0105 176.524 21.2312 175.819L35.4188 167.63C36.0613 167.215 36.5962 166.654 36.9798 165.992C37.3633 165.331 37.5845 164.588 37.6251 163.825V147.438Z" fill="#0E53BE"/>
<path d="M12.8306 170.938C12.8724 171.701 13.093 172.444 13.4747 173.107C13.8563 173.769 14.3884 174.333 15.0279 174.752L16.8363 175.783C17.4554 176.098 18.1347 176.277 18.8287 176.308C19.5227 176.339 20.2154 176.222 20.8602 175.963C19.8203 176.352 19.0517 175.773 19.0517 174.517V158.166C19.0758 157.399 19.3002 156.651 19.7028 155.997L13.4997 152.382C13.1052 153.039 12.8843 153.785 12.8577 154.551L12.8306 170.938Z" fill="#0E53BE"/>
<path opacity="0.1" d="M12.8306 170.938C12.8724 171.701 13.093 172.444 13.4747 173.107C13.8563 173.769 14.3884 174.333 15.0279 174.752L16.8363 175.783C17.4554 176.098 18.1347 176.277 18.8287 176.308C19.5227 176.339 20.2154 176.222 20.8602 175.963C19.8203 176.352 19.0517 175.773 19.0517 174.517V158.166C19.0758 157.399 19.3002 156.651 19.7028 155.997L13.4997 152.382C13.1052 153.039 12.8843 153.785 12.8577 154.551L12.8306 170.938Z" fill="black"/>
<path d="M28.1846 167.322L26.7198 167.16C24.7304 166.997 22.3613 166.256 22.3613 163.373C22.4186 162.326 22.7219 161.307 23.2467 160.4C23.7714 159.492 24.5028 158.721 25.3815 158.148C26.6836 157.398 27.7868 157.705 28.2118 158.79C28.6402 157.181 29.6482 155.787 31.042 154.876C32.7149 153.918 34.0622 154.695 34.0622 156.621C34.0622 159.405 31.7112 162.948 29.7309 165.397L28.1846 167.322Z" fill="#FAFAFA"/>
<path d="M15.0276 109.475L29.2242 101.286C29.906 100.939 30.6606 100.758 31.426 100.758C32.1914 100.758 32.9459 100.939 33.6278 101.286L35.4363 102.326C36.0788 102.74 36.6138 103.302 36.9973 103.963C37.3808 104.625 37.602 105.368 37.6426 106.131V122.509C37.6027 123.274 37.3819 124.018 36.9984 124.681C36.6148 125.344 36.0795 125.907 35.4363 126.323L21.2488 134.512C20.5669 134.86 19.8124 135.041 19.047 135.041C18.2815 135.041 17.527 134.86 16.8451 134.512L15.0367 133.482C14.3971 133.062 13.8651 132.499 13.4835 131.836C13.1018 131.174 12.8812 130.431 12.8394 129.667V113.262C12.8843 112.505 13.1055 111.768 13.4854 111.11C13.8653 110.453 14.3933 109.893 15.0276 109.475Z" fill="#0E53BE"/>
<path opacity="0.5" d="M15.0276 109.475L29.2242 101.286C29.906 100.939 30.6606 100.758 31.426 100.758C32.1914 100.758 32.9459 100.939 33.6278 101.286L35.4363 102.326C36.0788 102.74 36.6138 103.302 36.9973 103.963C37.3808 104.625 37.602 105.368 37.6426 106.131V122.509C37.6027 123.274 37.3819 124.018 36.9984 124.681C36.6148 125.344 36.0795 125.907 35.4363 126.323L21.2488 134.512C20.5669 134.86 19.8124 135.041 19.047 135.041C18.2815 135.041 17.527 134.86 16.8451 134.512L15.0367 133.482C14.3971 133.062 13.8651 132.499 13.4835 131.836C13.1018 131.174 12.8812 130.431 12.8394 129.667V113.262C12.8843 112.505 13.1055 111.768 13.4854 111.11C13.8653 110.453 14.3933 109.893 15.0276 109.475Z" fill="#FAFAFA"/>
<path d="M21.2312 134.485C20.0105 135.19 19.0249 134.621 19.0249 133.22V116.842C19.0649 116.077 19.2857 115.333 19.6692 114.669C20.0527 114.006 20.588 113.444 21.2312 113.028L35.4188 104.839C36.6395 104.134 37.6251 104.703 37.6251 106.104V122.482C37.5851 123.247 37.3643 123.991 36.9808 124.654C36.5973 125.317 36.062 125.88 35.4188 126.296" fill="#0E53BE"/>
<path d="M12.8306 129.64C12.8724 130.404 13.093 131.147 13.4747 131.809C13.8563 132.472 14.3884 133.035 15.0279 133.455L16.8363 134.485C17.4554 134.8 18.1347 134.979 18.8287 135.01C19.5227 135.042 20.2154 134.924 20.8602 134.666C19.8203 135.055 19.0517 134.476 19.0517 133.22V116.842C19.0758 116.074 19.3002 115.327 19.7028 114.673L13.4997 111.057C13.1052 111.714 12.8843 112.461 12.8577 113.226L12.8306 129.64Z" fill="#0E53BE"/>
<path opacity="0.1" d="M12.8306 129.64C12.8724 130.404 13.093 131.147 13.4747 131.809C13.8563 132.472 14.3884 133.035 15.0279 133.455L16.8363 134.485C17.4554 134.8 18.1347 134.979 18.8287 135.01C19.5227 135.042 20.2154 134.924 20.8602 134.666C19.8203 135.055 19.0517 134.476 19.0517 133.22V116.842C19.0758 116.074 19.3002 115.327 19.7028 114.673L13.4997 111.057C13.1052 111.714 12.8843 112.461 12.8577 113.226L12.8306 129.64Z" fill="black"/>
<path d="M25.7344 119.418C25.7344 119.418 27.3891 115.603 27.5429 115.052C27.625 114.108 27.625 113.158 27.5429 112.214C27.5429 111.852 29.0529 110.831 29.5412 111.879C30.0109 112.995 30.0999 114.234 29.7944 115.404L33.4747 113.262C34.2523 112.81 34.5688 113.443 34.5778 113.949C34.5526 114.527 34.3435 115.081 33.981 115.531C33.981 115.531 34.7225 115.314 34.7225 116.299C34.7005 116.646 34.6091 116.984 34.4538 117.295C34.2984 117.605 34.0823 117.882 33.8183 118.107C33.8183 118.107 34.0534 118.288 34.0624 119.011C33.9534 119.72 33.5863 120.364 33.0316 120.819C33.1538 121.104 33.2094 121.413 33.1944 121.722C33.1489 122.155 33.0035 122.571 32.7697 122.938C32.5359 123.305 32.22 123.613 31.847 123.838L25.8158 127.372L25.7344 119.418Z" fill="#FAFAFA"/>
<path d="M22.2439 130.499L24.8934 128.954L24.8572 119.734L22.1987 121.28L22.2439 130.499Z" fill="#FAFAFA"/>
<path d="M7.26071 61.0827L29.0167 48.5281C30.0618 47.9978 31.2174 47.7214 32.3895 47.7214C33.5616 47.7214 34.7172 47.9978 35.7623 48.5281L38.475 50.1099C39.4599 50.7493 40.2796 51.6123 40.8674 52.6286C41.4551 53.6449 41.7941 54.7856 41.8569 55.9578V81.0671C41.7893 82.2332 41.4479 83.367 40.8603 84.3767C40.2728 85.3864 39.4557 86.2436 38.475 86.8789L16.7733 99.4606C15.7266 99.991 14.5695 100.267 13.396 100.267C12.2224 100.267 11.0654 99.991 10.0186 99.4606L7.30592 97.8789C6.32373 97.2374 5.50655 96.3736 4.92056 95.3576C4.33458 94.3416 3.99629 93.2019 3.93311 92.0309V66.9217C3.99121 65.7558 4.32264 64.62 4.90066 63.6057C5.47868 62.5915 6.2871 61.7273 7.26071 61.0827Z" fill="#0E53BE"/>
<path opacity="0.1" d="M7.26071 61.0827L29.0167 48.5281C30.0618 47.9978 31.2174 47.7214 32.3895 47.7214C33.5616 47.7214 34.7172 47.9978 35.7623 48.5281L38.475 50.1099C39.4599 50.7493 40.2796 51.6123 40.8674 52.6286C41.4551 53.6449 41.7941 54.7856 41.8569 55.9578V81.0671C41.7893 82.2332 41.4479 83.367 40.8603 84.3767C40.2728 85.3864 39.4557 86.2436 38.475 86.8789L16.7733 99.4606C15.7266 99.991 14.5695 100.267 13.396 100.267C12.2224 100.267 11.0654 99.991 10.0186 99.4606L7.30592 97.8789C6.32373 97.2374 5.50655 96.3736 4.92056 95.3576C4.33458 94.3416 3.99629 93.2019 3.93311 92.0309V66.9217C3.99121 65.7558 4.32264 64.62 4.90066 63.6057C5.47868 62.5915 6.2871 61.7273 7.26071 61.0827Z" fill="black"/>
<path d="M41.893 55.8042C41.893 54.5478 41.2781 51.4205 38.05 53.3999C34.8219 55.3794 18.9615 64.3366 16.7732 65.6382C15.2548 66.4709 14.0558 67.7839 13.3643 69.3711L15.0914 71.1065L41.893 55.8042Z" fill="#0E53BE"/>
<path opacity="0.2" d="M41.893 55.8042C41.893 54.5478 41.2781 51.4205 38.05 53.3999C34.8219 55.3794 18.9615 64.3366 16.7732 65.6382C15.2548 66.4709 14.0558 67.7839 13.3643 69.3711L15.0914 71.1065L41.893 55.8042Z" fill="black"/>
<path d="M16.773 99.4606C14.9012 100.536 13.3911 99.6685 13.3911 97.5173V72.4171C13.4525 71.2434 13.7909 70.1008 14.3787 69.0828C14.9664 68.0649 15.7869 67.2004 16.773 66.5601L38.4747 54.0055C40.3465 52.9299 41.8566 53.8067 41.8566 55.9578V81.0671C41.7889 82.2332 41.4475 83.367 40.86 84.3767C40.2725 85.3864 39.4553 86.2436 38.4747 86.8789" fill="#0E53BE"/>
<path opacity="0.1" d="M16.773 99.4606C14.9012 100.536 13.3911 99.6685 13.3911 97.5173V72.4171C13.4525 71.2434 13.7909 70.1008 14.3787 69.0828C14.9664 68.0649 15.7869 67.2004 16.773 66.5601L38.4747 54.0055C40.3465 52.9299 41.8566 53.8067 41.8566 55.9578V81.0671C41.7889 82.2332 41.4475 83.367 40.86 84.3767C40.2725 85.3864 39.4553 86.2436 38.4747 86.8789" fill="black"/>
<path d="M3.88773 92.0309C3.95092 93.2019 4.28921 94.3416 4.87519 95.3576C5.46117 96.3736 6.27836 97.2374 7.26054 97.8788L9.97326 99.4606C10.9249 99.9399 11.9675 100.212 13.0321 100.259C14.0967 100.305 15.1592 100.126 16.1492 99.7318C14.5578 100.337 13.3461 99.4425 13.3461 97.5173V72.4171C13.3873 71.2416 13.7297 70.0962 14.3407 69.0909L4.83718 63.6045C4.22862 64.6103 3.8892 65.7558 3.85156 66.9307L3.88773 92.0309Z" fill="#0E53BE"/>
<path opacity="0.2" d="M3.88773 92.0309C3.95092 93.2019 4.28921 94.3416 4.87519 95.3576C5.46117 96.3736 6.27836 97.2374 7.26054 97.8788L9.97326 99.4606C10.9249 99.9399 11.9675 100.212 13.0321 100.259C14.0967 100.305 15.1592 100.126 16.1492 99.7318C14.5578 100.337 13.3461 99.4425 13.3461 97.5173V72.4171C13.3873 71.2416 13.7297 70.0962 14.3407 69.0909L4.83718 63.6045C4.22862 64.6103 3.8892 65.7558 3.85156 66.9307L3.88773 92.0309Z" fill="black"/>
<path d="M28.2932 63.6316L31.1144 68.6028L37.4441 66.0178C38.0409 65.7737 38.2851 66.4788 37.851 67.2199L33.2846 74.9931L34.3607 81.6275C34.4601 82.2602 33.8362 83.1369 33.3027 83.1279L27.6241 82.9561L21.9726 89.6447C21.4391 90.2774 20.8152 90.1147 20.9146 89.3645L22.0087 81.4557L17.4876 78.952C17.0535 78.717 17.2977 77.7318 17.8945 77.2889L24.2241 72.5889L27.0454 64.3547C27.2533 63.6045 28.0219 63.1616 28.2932 63.6316Z" fill="#FAFAFA"/>
<path d="M334.162 178.332C323.311 183.493 305.769 183.493 294.936 178.332C284.103 173.171 284.085 164.774 294.936 159.649C305.787 154.524 323.329 154.488 334.162 159.649C344.995 164.81 344.959 173.171 334.162 178.332Z" fill="#E0E0E0"/>
<path d="M87.4849 238.248C87.5815 239.563 87.9863 240.836 88.6665 241.965C89.3467 243.094 90.2832 244.047 91.4002 244.747L201.112 308.017C202.325 308.633 203.666 308.953 205.027 308.953C206.387 308.953 207.729 308.633 208.942 308.017L359.046 221.382C360.229 220.758 361.219 219.823 361.91 218.678C362.601 217.533 362.966 216.221 362.966 214.884C362.966 213.546 362.601 212.234 361.91 211.089C361.219 209.944 360.229 209.009 359.046 208.385L249.344 145.115C248.13 144.499 246.789 144.179 245.428 144.179C244.068 144.179 242.726 144.499 241.513 145.115L91.4093 231.75C90.2905 232.449 89.3523 233.401 88.6704 234.53C87.9886 235.659 87.5825 236.933 87.4849 238.248Z" fill="#37474F"/>
<path d="M132.751 207.888L91.4005 231.75C90.2174 232.374 89.2271 233.309 88.5363 234.454C87.8455 235.599 87.4805 236.911 87.4805 238.248C87.4805 239.586 87.8455 240.898 88.5363 242.043C89.2271 243.188 90.2174 244.123 91.4005 244.747L201.112 308.017C202.318 308.647 203.666 308.958 205.027 308.921V207.888H132.751Z" fill="#263238"/>
<path d="M83.8138 231.885C82.7222 231.147 81.8206 230.161 81.1826 229.008C80.5446 227.855 80.1883 226.568 80.1426 225.251V94.3811C80.2147 93.0227 80.6069 91.7005 81.2873 90.5224C81.9678 89.3444 82.9171 88.3437 84.0579 87.6021L234.162 1.01232C235.295 0.301928 236.6 -0.0864458 237.937 -0.111071C239.274 -0.135697 240.593 0.20436 241.752 0.872553C242.91 1.54075 243.864 2.51182 244.512 3.68145C245.16 4.85107 245.477 6.17503 245.428 7.51107V138.336C245.356 139.694 244.963 141.016 244.283 142.194C243.602 143.372 242.653 144.373 241.513 145.115L91.4094 231.75C90.2434 232.369 88.9478 232.703 87.6278 232.727C86.3079 232.751 85.0011 232.462 83.8138 231.885Z" fill="#455A64"/>
<path d="M98.5076 100.437L81.3271 90.4944C80.6252 91.6599 80.233 92.9853 80.1877 94.3449V225.251C80.1405 226.586 80.4575 227.908 81.1049 229.076C81.7523 230.244 82.7056 231.214 83.8626 231.882C85.0196 232.55 86.3366 232.891 87.6725 232.867C89.0083 232.844 90.3126 232.458 91.4455 231.75L108.563 221.87L98.5076 100.437Z" fill="#263238"/>
<path d="M87.4849 98.6291V229.49C87.4849 231.985 89.2391 232.997 91.4002 231.75L241.504 145.115C242.644 144.372 243.593 143.372 244.274 142.194C244.954 141.016 245.346 139.694 245.419 138.336V7.47492C245.419 4.98026 243.665 3.96794 241.504 5.21527L91.4002 91.8411C90.2602 92.5858 89.3117 93.5884 88.6314 94.7677C87.9512 95.947 87.5584 97.2698 87.4849 98.6291Z" fill="#37474F"/>
<path d="M91.4 236.269L201.111 299.585C202.325 300.2 203.666 300.521 205.027 300.521C206.387 300.521 207.729 300.2 208.942 299.585L359.046 212.95C361.216 211.702 361.216 209.678 359.046 208.43L249.343 145.115C248.13 144.5 246.789 144.179 245.428 144.179C244.068 144.179 242.726 144.5 241.513 145.115L91.409 231.75C89.2389 232.997 89.2389 235.022 91.4 236.269Z" fill="#455A64"/>
<path d="M93.5073 99.1083L239.406 14.9137C240.699 14.1635 241.757 14.7691 241.757 16.2695V129.55C241.712 130.365 241.475 131.158 241.067 131.864C240.658 132.571 240.09 133.171 239.406 133.618L93.5073 217.812C92.2052 218.562 91.1562 217.957 91.1562 216.456V103.149C91.2039 102.338 91.4415 101.55 91.8499 100.848C92.2583 100.146 92.826 99.5504 93.5073 99.1083Z" fill="#FAFAFA"/>
<path d="M104.132 232.88L243.466 152.436C244.073 152.129 244.744 151.969 245.424 151.969C246.104 151.969 246.775 152.129 247.382 152.436L254.516 156.549C254.752 156.629 254.957 156.781 255.103 156.983C255.248 157.186 255.326 157.429 255.326 157.678C255.326 157.928 255.248 158.171 255.103 158.373C254.957 158.576 254.752 158.728 254.516 158.808L115.155 239.243C114.548 239.55 113.877 239.71 113.197 239.71C112.517 239.71 111.846 239.55 111.239 239.243L104.132 235.112C103.905 235.027 103.71 234.874 103.572 234.674C103.434 234.475 103.36 234.238 103.36 233.996C103.36 233.753 103.434 233.517 103.572 233.317C103.71 233.118 103.905 232.965 104.132 232.88Z" fill="#263238"/>
<path d="M122.498 243.482L261.832 163.038C262.439 162.731 263.109 162.571 263.79 162.571C264.47 162.571 265.141 162.731 265.747 163.038L309.585 188.346C309.821 188.427 310.026 188.579 310.171 188.781C310.317 188.984 310.395 189.227 310.395 189.476C310.395 189.726 310.317 189.969 310.171 190.171C310.026 190.374 309.821 190.526 309.585 190.606L170.413 270.923C169.805 271.23 169.133 271.391 168.451 271.391C167.769 271.391 167.097 271.23 166.489 270.923L122.507 245.723C122.272 245.645 122.069 245.495 121.924 245.294C121.779 245.094 121.701 244.853 121.7 244.606C121.699 244.359 121.775 244.117 121.918 243.916C122.061 243.714 122.264 243.562 122.498 243.482Z" fill="#263238"/>
<path d="M247.4 199.247L251.767 196.725C251.948 196.617 251.939 196.436 251.767 196.327L246.721 193.417C246.614 193.361 246.494 193.332 246.373 193.332C246.252 193.332 246.133 193.361 246.025 193.417L241.667 195.939C241.477 196.038 241.486 196.219 241.667 196.336L246.712 199.247C246.819 199.301 246.937 199.329 247.056 199.329C247.175 199.329 247.293 199.301 247.4 199.247ZM238.791 189.241L234.433 191.727C234.243 191.835 234.252 192.016 234.433 192.133L239.478 195.044C239.587 195.097 239.706 195.125 239.827 195.125C239.947 195.125 240.066 195.097 240.175 195.044L244.542 192.522C244.723 192.414 244.714 192.233 244.542 192.124L239.496 189.205C239.384 189.156 239.262 189.133 239.14 189.139C239.017 189.146 238.898 189.181 238.791 189.241ZM224.694 197.376L217.315 201.669C217.126 201.778 217.144 201.958 217.315 202.076L222.361 204.986C222.469 205.04 222.589 205.068 222.709 205.068C222.83 205.068 222.949 205.04 223.057 204.986L230.436 200.729C230.617 200.621 230.608 200.44 230.436 200.331L225.39 197.412C225.285 197.353 225.167 197.319 225.046 197.313C224.926 197.306 224.805 197.328 224.694 197.376ZM232.416 192.92L228.049 195.442C227.868 195.541 227.877 195.722 228.049 195.839L233.094 198.75C233.202 198.805 233.321 198.834 233.443 198.834C233.564 198.834 233.683 198.805 233.791 198.75L238.149 196.228C238.339 196.119 238.33 195.939 238.149 195.83L233.103 192.92C232.997 192.866 232.879 192.838 232.76 192.838C232.64 192.838 232.523 192.866 232.416 192.92ZM215.299 202.799L210.941 205.285C210.751 205.393 210.769 205.574 210.941 205.691L215.986 208.602C216.094 208.657 216.213 208.686 216.334 208.686C216.456 208.686 216.575 208.657 216.683 208.602L221.05 206.089C221.231 205.981 221.222 205.8 221.05 205.691L216.004 202.772C215.893 202.721 215.771 202.697 215.648 202.702C215.526 202.707 215.406 202.74 215.299 202.799ZM208.924 206.478L204.566 208.99C204.376 209.099 204.385 209.28 204.566 209.397L209.611 212.308C209.72 212.361 209.839 212.389 209.959 212.389C210.08 212.389 210.199 212.361 210.308 212.308L214.675 209.786C214.856 209.677 214.847 209.497 214.675 209.388L209.629 206.469C209.519 206.415 209.398 206.388 209.276 206.39C209.153 206.391 209.033 206.421 208.924 206.478ZM228.772 218.318L233.131 215.796C233.311 215.688 233.302 215.507 233.131 215.399L228.058 212.515C227.95 212.46 227.831 212.431 227.71 212.431C227.589 212.431 227.469 212.46 227.362 212.515L223.003 215.037C222.813 215.137 222.831 215.317 223.003 215.435L228.049 218.345C228.162 218.401 228.288 218.428 228.414 218.424C228.54 218.419 228.663 218.383 228.772 218.318ZM222.388 221.997L226.756 219.475C226.937 219.367 226.928 219.195 226.756 219.078L221.683 216.131C221.575 216.075 221.456 216.046 221.335 216.046C221.214 216.046 221.094 216.075 220.987 216.131L216.61 218.671C216.42 218.77 216.438 218.951 216.61 219.068L221.656 221.979C221.766 222.043 221.892 222.079 222.02 222.082C222.148 222.085 222.275 222.056 222.388 221.997ZM216.013 225.676L220.381 223.154C220.562 223.054 220.553 222.874 220.381 222.756L215.335 219.846C215.228 219.79 215.108 219.761 214.987 219.761C214.866 219.761 214.747 219.79 214.639 219.846L210.281 222.349C210.091 222.458 210.1 222.639 210.281 222.747L215.326 225.658C215.431 225.714 215.548 225.746 215.668 225.749C215.787 225.752 215.905 225.727 216.013 225.676ZM209.684 229.354L214.051 226.833C214.232 226.733 214.223 226.552 214.051 226.435L209.006 223.524C208.898 223.469 208.779 223.44 208.657 223.44C208.536 223.44 208.417 223.469 208.309 223.524L203.879 226.073C203.689 226.182 203.698 226.363 203.879 226.471L208.924 229.382C209.036 229.436 209.16 229.462 209.285 229.457C209.409 229.452 209.531 229.417 209.639 229.354H209.684ZM241.025 202.926L245.383 200.404C245.573 200.295 245.564 200.124 245.383 200.006L240.337 197.096C240.23 197.04 240.11 197.011 239.989 197.011C239.868 197.011 239.749 197.04 239.641 197.096L235.283 199.617C235.093 199.726 235.102 199.898 235.283 200.015L240.328 202.926C240.436 202.981 240.555 203.01 240.676 203.01C240.798 203.01 240.917 202.981 241.025 202.926ZM235.147 214.676L244.877 209.054C245.058 208.945 245.049 208.764 244.877 208.656L232.624 201.588C232.517 201.532 232.397 201.503 232.276 201.503C232.155 201.503 232.036 201.532 231.928 201.588L226.9 204.489C226.711 204.598 226.72 204.778 226.9 204.896L233.393 208.638C233.592 208.755 233.601 208.936 233.393 209.036L229.369 211.368C229.188 211.467 229.197 211.648 229.369 211.765L234.415 214.676C234.53 214.73 234.658 214.754 234.785 214.748C234.913 214.742 235.037 214.705 235.147 214.64V214.676ZM202.549 210.156L198.191 212.678C198.001 212.778 198.01 212.958 198.191 213.076L203.236 215.986C203.345 216.04 203.464 216.067 203.585 216.067C203.705 216.067 203.824 216.04 203.933 215.986L208.3 213.465C208.481 213.356 208.472 213.175 208.3 213.067L203.255 210.156C203.146 210.099 203.025 210.07 202.902 210.07C202.779 210.07 202.658 210.099 202.549 210.156ZM196.22 213.835L191.852 216.357C191.671 216.465 191.68 216.637 191.852 216.755L196.898 219.665C197.005 219.721 197.125 219.749 197.246 219.749C197.367 219.749 197.486 219.721 197.594 219.665L201.952 217.143C202.142 217.035 202.133 216.854 201.952 216.746L196.907 213.835C196.795 213.773 196.669 213.741 196.541 213.741C196.413 213.741 196.287 213.773 196.174 213.835H196.22ZM164.354 255.096C164.462 255.152 164.581 255.181 164.702 255.181C164.823 255.181 164.943 255.152 165.05 255.096L169.418 252.575C169.599 252.466 169.59 252.285 169.418 252.177L164.372 249.266C164.265 249.211 164.145 249.182 164.024 249.182C163.903 249.182 163.784 249.211 163.676 249.266L159.318 251.788C159.128 251.897 159.137 252.068 159.318 252.186L164.354 255.096ZM145.175 243.247L140.808 245.768C140.627 245.868 140.636 246.049 140.808 246.166L145.853 249.077C145.962 249.13 146.081 249.158 146.202 249.158C146.322 249.158 146.441 249.13 146.55 249.077L150.908 246.555C151.098 246.446 151.089 246.266 150.908 246.157L145.862 243.247C145.756 243.193 145.638 243.165 145.519 243.165C145.399 243.165 145.282 243.193 145.175 243.247ZM155.438 251.879C155.546 251.934 155.665 251.963 155.787 251.963C155.908 251.963 156.027 251.934 156.135 251.879L160.493 249.357C160.683 249.248 160.665 249.077 160.493 248.959L155.456 246.049C155.349 245.993 155.229 245.964 155.108 245.964C154.987 245.964 154.868 245.993 154.76 246.049L150.393 248.57C150.212 248.679 150.221 248.851 150.393 248.968L155.438 251.879ZM175.576 257.302L179.943 254.78C180.124 254.672 180.115 254.491 179.943 254.382L174.898 251.463C174.789 251.409 174.67 251.382 174.549 251.382C174.429 251.382 174.31 251.409 174.201 251.463L169.843 253.985C169.653 254.084 169.662 254.265 169.843 254.382L174.889 257.293C174.99 257.352 175.105 257.387 175.222 257.395C175.34 257.403 175.458 257.384 175.567 257.338L175.576 257.302ZM168.505 260.962C168.612 261.018 168.732 261.047 168.853 261.047C168.974 261.047 169.093 261.018 169.201 260.962L173.568 258.441C173.749 258.332 173.74 258.151 173.568 258.043L168.523 255.132C168.415 255.077 168.296 255.048 168.175 255.048C168.053 255.048 167.934 255.077 167.826 255.132L163.432 257.708C163.242 257.808 163.251 257.989 163.432 258.106L168.505 260.962ZM151.505 239.631L147.137 242.144C146.957 242.252 146.966 242.433 147.137 242.551L152.183 245.461C152.291 245.515 152.411 245.542 152.531 245.542C152.652 245.542 152.771 245.515 152.879 245.461L157.238 242.939C157.428 242.831 157.419 242.65 157.238 242.542L152.237 239.631C152.124 239.572 151.999 239.541 151.871 239.541C151.744 239.541 151.618 239.572 151.505 239.631ZM183.425 221.193L179.057 223.714C178.876 223.823 178.885 224.004 179.057 224.112L184.103 227.022C184.21 227.078 184.33 227.107 184.451 227.107C184.572 227.107 184.691 227.078 184.799 227.022L189.157 224.501C189.347 224.401 189.329 224.22 189.157 224.103L184.121 221.193C184.013 221.139 183.893 221.111 183.773 221.111C183.652 221.111 183.533 221.139 183.425 221.193ZM157.916 235.916L153.558 238.429C153.368 238.538 153.377 238.718 153.558 238.836L158.603 241.746C158.712 241.8 158.831 241.827 158.951 241.827C159.072 241.827 159.191 241.8 159.299 241.746L163.667 239.234C163.848 239.125 163.839 238.944 163.667 238.827L158.621 235.916C158.512 235.862 158.391 235.833 158.269 235.833C158.146 235.833 158.025 235.862 157.916 235.916ZM189.799 217.514L185.432 220.036C185.251 220.144 185.26 220.316 185.432 220.433L190.478 223.344C190.585 223.399 190.705 223.428 190.826 223.428C190.947 223.428 191.066 223.399 191.174 223.344L195.532 220.822C195.722 220.713 195.713 220.542 195.532 220.424L190.487 217.514C190.38 217.46 190.262 217.432 190.143 217.432C190.024 217.432 189.906 217.46 189.799 217.514ZM177.041 224.871L172.682 227.393C172.492 227.501 172.51 227.682 172.682 227.791L177.728 230.71C177.836 230.764 177.955 230.791 178.076 230.791C178.197 230.791 178.316 230.764 178.424 230.71L182.783 228.197C182.972 228.089 182.954 227.908 182.783 227.791L177.728 224.889C177.622 224.835 177.505 224.804 177.386 224.801C177.267 224.798 177.149 224.822 177.041 224.871ZM170.666 228.559L166.307 231.072C166.117 231.18 166.136 231.361 166.307 231.469L171.398 234.389C171.505 234.442 171.623 234.47 171.742 234.47C171.861 234.47 171.979 234.442 172.085 234.389L176.453 231.876C176.634 231.768 176.625 231.587 176.453 231.469L171.398 228.568C171.287 228.505 171.161 228.471 171.033 228.469C170.905 228.468 170.779 228.499 170.666 228.559ZM164.291 232.238L159.932 234.75C159.743 234.859 159.761 235.04 159.932 235.157L164.978 238.068C165.086 238.121 165.206 238.149 165.326 238.149C165.447 238.149 165.566 238.121 165.674 238.068L170.042 235.555C170.223 235.446 170.214 235.266 170.042 235.148L164.996 232.238C164.887 232.183 164.766 232.154 164.644 232.154C164.521 232.154 164.4 232.183 164.291 232.238ZM196.889 236.712L201.238 234.208C201.428 234.1 201.419 233.919 201.238 233.801L196.192 230.891C196.085 230.835 195.965 230.807 195.844 230.807C195.723 230.807 195.604 230.835 195.496 230.891L191.129 233.404C190.948 233.512 190.957 233.693 191.129 233.81L196.174 236.721C196.286 236.776 196.408 236.804 196.533 236.802C196.657 236.8 196.779 236.77 196.889 236.712ZM252.888 181.106L248.521 183.592C248.34 183.691 248.349 183.872 248.521 183.99L253.566 186.9C253.675 186.954 253.794 186.981 253.915 186.981C254.035 186.981 254.154 186.954 254.263 186.9L258.621 184.378C258.811 184.27 258.802 184.089 258.621 183.981L253.575 181.07C253.466 181.022 253.347 181 253.228 181.006C253.108 181.012 252.992 181.047 252.888 181.106ZM245.166 185.562L240.808 188.111C240.618 188.22 240.627 188.401 240.808 188.518L245.844 191.428C245.952 191.484 246.071 191.513 246.192 191.513C246.313 191.513 246.433 191.484 246.541 191.428L250.908 188.916C251.089 188.807 251.08 188.626 250.908 188.518L245.862 185.599C245.757 185.539 245.639 185.505 245.518 185.499C245.398 185.493 245.277 185.515 245.166 185.562ZM259.263 177.428L254.896 179.977C254.715 180.085 254.724 180.266 254.896 180.383L259.941 183.294C260.05 183.347 260.169 183.375 260.289 183.375C260.41 183.375 260.529 183.347 260.638 183.294L264.996 180.772C265.186 180.663 265.177 180.483 264.996 180.374L259.95 177.455C259.845 177.399 259.729 177.367 259.61 177.362C259.491 177.357 259.372 177.38 259.263 177.428ZM226.258 211.449L230.626 208.9C230.807 208.792 230.798 208.611 230.626 208.502L225.58 205.592C225.473 205.536 225.353 205.507 225.232 205.507C225.111 205.507 224.992 205.536 224.884 205.592L220.517 208.105C220.336 208.213 220.345 208.394 220.517 208.511L225.562 211.422C225.668 211.479 225.786 211.512 225.907 211.517C226.028 211.521 226.148 211.498 226.258 211.449ZM266.343 173.758C266.235 173.705 266.116 173.677 265.995 173.677C265.874 173.677 265.755 173.705 265.647 173.758L261.289 176.271C261.099 176.379 261.108 176.56 261.289 176.677L266.334 179.588C266.442 179.643 266.561 179.672 266.682 179.672C266.804 179.672 266.923 179.643 267.031 179.588L271.398 177.075C271.579 176.967 271.57 176.786 271.398 176.668L266.343 173.758ZM203.264 233.033L207.622 230.52C207.812 230.412 207.803 230.231 207.622 230.114L202.576 227.203C202.468 227.15 202.349 227.122 202.228 227.122C202.108 227.122 201.988 227.15 201.88 227.203L197.495 229.689C197.314 229.797 197.323 229.978 197.495 230.087L202.54 233.006C202.65 233.068 202.773 233.103 202.899 233.108C203.024 233.112 203.15 233.087 203.264 233.033ZM281.453 187.912L285.821 185.391C286.002 185.282 285.992 185.101 285.821 184.993L280.775 182.083C280.667 182.027 280.548 181.998 280.427 181.998C280.306 181.998 280.186 182.027 280.079 182.083L275.711 184.604C275.53 184.704 275.539 184.884 275.711 185.002L280.757 187.912C280.865 187.968 280.984 187.997 281.105 187.997C281.226 187.997 281.346 187.968 281.453 187.912ZM267.89 187.433L272.248 184.912C272.438 184.803 272.429 184.622 272.248 184.514L267.202 181.603C267.095 181.548 266.975 181.519 266.854 181.519C266.733 181.519 266.614 181.548 266.506 181.603L262.139 184.125C261.958 184.225 261.967 184.405 262.139 184.523L267.184 187.433C267.291 187.487 267.408 187.516 267.528 187.516C267.647 187.516 267.765 187.487 267.872 187.433H267.89ZM273.577 177.916C273.469 177.862 273.35 177.835 273.229 177.835C273.108 177.835 272.989 177.862 272.881 177.916L268.523 180.438C268.333 180.537 268.342 180.718 268.523 180.835L273.568 183.746C273.676 183.799 273.796 183.827 273.916 183.827C274.037 183.827 274.156 183.799 274.264 183.746L278.632 181.224C278.813 181.115 278.804 180.935 278.632 180.826L273.577 177.916ZM274.916 177.147L287.141 184.216C287.249 184.269 287.368 184.297 287.489 184.297C287.61 184.297 287.729 184.269 287.837 184.216L292.205 181.694C292.385 181.585 292.376 181.405 292.205 181.296L279.907 174.237C279.799 174.184 279.68 174.156 279.559 174.156C279.438 174.156 279.319 174.184 279.211 174.237L274.852 176.75C274.671 176.849 274.68 177.03 274.879 177.147H274.916ZM260.131 185.282L255.764 187.804C255.583 187.903 255.592 188.084 255.764 188.202L260.809 191.112C260.917 191.168 261.036 191.197 261.158 191.197C261.279 191.197 261.398 191.168 261.506 191.112L265.864 188.59C266.054 188.482 266.045 188.301 265.864 188.193L260.818 185.282C260.709 185.219 260.585 185.185 260.459 185.182C260.333 185.178 260.208 185.207 260.095 185.264L260.131 185.282ZM212.089 212.958L207.722 215.48C207.541 215.589 207.55 215.76 207.722 215.878L212.767 218.788C212.875 218.844 212.994 218.873 213.115 218.873C213.236 218.873 213.356 218.844 213.463 218.788L217.822 216.266C218.012 216.158 218.003 215.986 217.822 215.869L212.776 212.958C212.67 212.904 212.552 212.876 212.433 212.876C212.313 212.876 212.195 212.904 212.089 212.958ZM274.364 191.573C274.472 191.629 274.591 191.658 274.712 191.658C274.833 191.658 274.953 191.629 275.06 191.573L279.419 189.051C279.609 188.943 279.599 188.771 279.419 188.654L274.373 185.743C274.265 185.688 274.146 185.659 274.025 185.659C273.904 185.659 273.784 185.688 273.677 185.743L269.309 188.265C269.128 188.373 269.137 188.545 269.309 188.663L274.364 191.573ZM218.464 209.28L214.096 211.801C213.916 211.901 213.925 212.082 214.096 212.199L219.142 215.11C219.25 215.165 219.369 215.194 219.49 215.194C219.611 215.194 219.731 215.165 219.838 215.11L224.197 212.588C224.387 212.479 224.378 212.299 224.197 212.19L219.151 209.28C219.047 209.229 218.933 209.202 218.817 209.202C218.701 209.202 218.586 209.229 218.482 209.28H218.464ZM170.684 251.381C170.792 251.435 170.911 251.463 171.032 251.463C171.153 251.463 171.272 251.435 171.38 251.381L175.748 248.86C175.928 248.751 175.919 248.57 175.748 248.462L170.702 245.552C170.594 245.496 170.475 245.467 170.354 245.467C170.233 245.467 170.113 245.496 170.006 245.552L165.647 248.073C165.457 248.173 165.466 248.354 165.647 248.471L170.684 251.381ZM161.099 242.343L156.731 244.865C156.551 244.964 156.56 245.145 156.731 245.262L161.777 248.173C161.885 248.226 162.005 248.254 162.125 248.254C162.246 248.254 162.365 248.226 162.473 248.173L166.832 245.651C167.022 245.543 167.013 245.362 166.832 245.253L161.786 242.343C161.675 242.297 161.555 242.278 161.436 242.288C161.317 242.297 161.201 242.335 161.099 242.397V242.343ZM177.728 247.766L182.095 245.244C182.276 245.136 182.267 244.955 182.095 244.847L177.05 241.936C176.942 241.881 176.823 241.852 176.702 241.852C176.58 241.852 176.461 241.881 176.353 241.936L171.995 244.449C171.805 244.557 171.823 244.738 171.995 244.856L177.041 247.766C177.147 247.819 177.265 247.847 177.384 247.847C177.504 247.847 177.621 247.819 177.728 247.766ZM184.112 244.087L188.47 241.566C188.66 241.457 188.642 241.276 188.47 241.159L183.425 238.248C183.316 238.195 183.197 238.167 183.076 238.167C182.956 238.167 182.837 238.195 182.728 238.248L178.37 240.761C178.189 240.87 178.198 241.05 178.37 241.168L183.416 244.078C183.527 244.136 183.651 244.166 183.777 244.166C183.903 244.166 184.027 244.136 184.139 244.078L184.112 244.087ZM190.441 240.4L194.8 237.887C194.99 237.778 194.972 237.598 194.8 237.48L189.763 234.57C189.655 234.516 189.536 234.488 189.415 234.488C189.294 234.488 189.175 234.516 189.067 234.57L184.7 237.082C184.519 237.191 184.528 237.372 184.7 237.489L189.745 240.4C189.863 240.464 189.996 240.497 190.131 240.495C190.265 240.494 190.397 240.458 190.514 240.391L190.441 240.4ZM167.474 238.727L163.106 241.24C162.925 241.349 162.935 241.529 163.106 241.647L168.152 244.557C168.26 244.611 168.379 244.639 168.5 244.639C168.621 244.639 168.74 244.611 168.848 244.557L173.207 242.036C173.397 241.927 173.388 241.746 173.207 241.638L168.17 238.727C168.062 238.674 167.943 238.646 167.822 238.646C167.701 238.646 167.582 238.674 167.474 238.727ZM173.849 235.049L169.481 237.561C169.3 237.67 169.309 237.851 169.481 237.968L174.527 240.879C174.635 240.934 174.754 240.963 174.875 240.963C174.996 240.963 175.115 240.934 175.223 240.879L179.591 238.366C179.771 238.257 179.762 238.077 179.591 237.959L174.545 235.049C174.437 234.994 174.319 234.965 174.198 234.963C174.077 234.961 173.958 234.988 173.849 235.04V235.049ZM199.357 220.325L194.99 222.847C194.8 222.955 194.818 223.136 194.99 223.244L200.035 226.155C200.143 226.21 200.262 226.239 200.384 226.239C200.505 226.239 200.624 226.21 200.732 226.155L205.09 223.633C205.28 223.534 205.262 223.353 205.09 223.235L200.045 220.325C199.939 220.27 199.821 220.241 199.702 220.239C199.583 220.238 199.465 220.264 199.357 220.316V220.325ZM192.973 224.013L188.579 226.516C188.389 226.625 188.407 226.806 188.579 226.914L193.615 229.833C193.724 229.887 193.843 229.915 193.964 229.915C194.084 229.915 194.203 229.887 194.312 229.833L198.679 227.321C198.86 227.212 198.851 227.031 198.679 226.914L193.633 224.004C193.531 223.954 193.418 223.928 193.303 223.928C193.189 223.928 193.076 223.954 192.973 224.004V224.013ZM205.759 216.637L201.392 219.159C201.211 219.267 201.22 219.448 201.392 219.557L206.437 222.467C206.545 222.522 206.665 222.551 206.786 222.551C206.907 222.551 207.026 222.522 207.134 222.467L211.492 219.945C211.682 219.846 211.664 219.665 211.492 219.548L206.456 216.637C206.348 216.582 206.229 216.553 206.107 216.553C205.986 216.553 205.867 216.582 205.759 216.637ZM180.251 231.361L175.892 233.874C175.702 233.982 175.711 234.163 175.892 234.28L180.938 237.191C181.046 237.244 181.165 237.272 181.286 237.272C181.407 237.272 181.526 237.244 181.634 237.191L186.002 234.678C186.183 234.57 186.173 234.389 186.002 234.271L180.956 231.361C180.843 231.302 180.717 231.271 180.59 231.271C180.462 231.271 180.337 231.302 180.224 231.361H180.251ZM186.626 227.682L182.249 230.195C182.059 230.303 182.068 230.484 182.249 230.602L187.295 233.512C187.403 233.566 187.522 233.593 187.643 233.593C187.764 233.593 187.883 233.566 187.991 233.512L192.358 230.999C192.539 230.891 192.53 230.71 192.358 230.593L187.313 227.682C187.203 227.624 187.08 227.593 186.956 227.593C186.831 227.593 186.708 227.624 186.598 227.682H186.626ZM181.969 253.659L186.336 251.137C186.517 251.029 186.508 250.848 186.336 250.74L181.291 247.82C181.182 247.767 181.063 247.739 180.942 247.739C180.822 247.739 180.703 247.767 180.594 247.82L176.236 250.333C176.046 250.441 176.064 250.622 176.236 250.74L181.273 253.65C181.377 253.701 181.49 253.728 181.606 253.729C181.722 253.731 181.836 253.707 181.942 253.659H181.969ZM144.56 249.881L139.515 246.971C139.407 246.915 139.288 246.886 139.167 246.886C139.045 246.886 138.926 246.915 138.818 246.971L134.451 249.492C134.27 249.592 134.279 249.773 134.451 249.89L139.497 252.801C139.604 252.856 139.724 252.885 139.845 252.885C139.966 252.885 140.085 252.856 140.193 252.801L144.551 250.279C144.741 250.17 144.723 249.99 144.533 249.881H144.56ZM154.109 252.683L149.064 249.773C148.956 249.717 148.836 249.688 148.715 249.688C148.594 249.688 148.475 249.717 148.367 249.773L141.658 253.65C141.477 253.759 141.486 253.93 141.658 254.048L146.703 256.958C146.811 257.014 146.93 257.043 147.052 257.043C147.173 257.043 147.292 257.014 147.4 256.958L154.109 253.081C154.299 252.972 154.281 252.801 154.082 252.683H154.109ZM136.82 244.25L131.774 241.34C131.667 241.284 131.547 241.255 131.426 241.255C131.305 241.255 131.186 241.284 131.078 241.34L125.707 244.44C125.517 244.548 125.535 244.729 125.707 244.847L130.753 247.757C130.861 247.81 130.98 247.838 131.101 247.838C131.222 247.838 131.341 247.81 131.449 247.757L136.811 244.657C137.037 244.548 137.037 244.367 136.793 244.25H136.82ZM140.934 241.873C141.042 241.928 141.161 241.957 141.283 241.957C141.404 241.957 141.523 241.928 141.631 241.873L145.989 239.351C146.179 239.243 146.17 239.071 145.989 238.953L140.943 236.043C140.836 235.987 140.716 235.959 140.595 235.959C140.474 235.959 140.355 235.987 140.247 236.043L135.88 238.565C135.699 238.673 135.708 238.845 135.88 238.962L140.934 241.873ZM162.971 255.901L157.925 252.99C157.817 252.935 157.698 252.906 157.577 252.906C157.456 252.906 157.336 252.935 157.229 252.99L148.837 257.835C148.657 257.943 148.666 258.124 148.837 258.233L153.883 261.143C153.991 261.199 154.11 261.228 154.231 261.228C154.352 261.228 154.472 261.199 154.579 261.143L162.971 256.298C163.179 256.163 163.17 255.991 162.971 255.901ZM167.157 261.803L162.112 258.893C162.004 258.837 161.885 258.808 161.764 258.808C161.642 258.808 161.523 258.837 161.415 258.893L156.026 261.948C155.845 262.056 155.854 262.237 156.026 262.345L161.072 265.265C161.18 265.318 161.299 265.346 161.42 265.346C161.541 265.346 161.66 265.318 161.768 265.265L167.139 262.164C167.365 262.065 167.356 261.893 167.157 261.776V261.803ZM188.317 214.54C188.423 214.596 188.54 214.625 188.66 214.625C188.78 214.625 188.898 214.596 189.004 214.54L193.371 212.018C193.552 211.919 193.543 211.738 193.371 211.621L188.326 208.71C188.218 208.655 188.099 208.626 187.977 208.626C187.856 208.626 187.737 208.655 187.629 208.71L183.271 211.232C183.081 211.34 183.099 211.521 183.271 211.63L188.317 214.54ZM175.558 221.907C175.666 221.96 175.785 221.988 175.906 221.988C176.027 221.988 176.146 221.96 176.254 221.907L180.621 219.385C180.802 219.285 180.793 219.105 180.621 218.987L175.576 216.077C175.468 216.023 175.348 215.996 175.228 215.996C175.107 215.996 174.988 216.023 174.88 216.077L170.494 218.562C170.304 218.671 170.313 218.852 170.494 218.96L175.558 221.907ZM147.282 238.221C147.39 238.275 147.51 238.302 147.63 238.302C147.751 238.302 147.87 238.275 147.978 238.221L152.337 235.699C152.527 235.591 152.518 235.41 152.337 235.302L147.273 232.4C147.165 232.345 147.046 232.316 146.925 232.316C146.804 232.316 146.685 232.345 146.577 232.4L142.209 234.922C142.029 235.022 142.038 235.202 142.209 235.32L147.282 238.221ZM181.933 218.219C182.04 218.274 182.16 218.303 182.281 218.303C182.402 218.303 182.521 218.274 182.629 218.219L186.996 215.697C187.177 215.598 187.168 215.417 186.996 215.299L181.951 212.389C181.843 212.333 181.724 212.304 181.603 212.304C181.481 212.304 181.362 212.333 181.254 212.389L176.896 214.911C176.706 215.019 176.724 215.2 176.896 215.308L181.933 218.219ZM169.183 225.585C169.291 225.639 169.41 225.666 169.531 225.666C169.652 225.666 169.771 225.639 169.879 225.585L174.247 223.073C174.427 222.964 174.418 222.783 174.247 222.666L169.174 219.746C169.066 219.691 168.947 219.662 168.826 219.662C168.705 219.662 168.585 219.691 168.478 219.746L164.164 222.241C163.974 222.349 163.983 222.53 164.164 222.648L169.183 225.585ZM170.657 262.228C170.549 262.172 170.43 262.143 170.309 262.143C170.187 262.143 170.068 262.172 169.96 262.228L163.26 266.105C163.079 266.214 163.088 266.395 163.26 266.512L168.324 269.459C168.432 269.512 168.551 269.54 168.672 269.54C168.793 269.54 168.912 269.512 169.02 269.459L175.73 265.59C175.91 265.482 175.901 265.301 175.73 265.183L170.657 262.228ZM160.032 230.819C160.14 230.874 160.259 230.903 160.38 230.903C160.501 230.903 160.621 230.874 160.728 230.819L165.069 228.333C165.249 228.225 165.24 228.044 165.069 227.926L160.023 225.016C159.915 224.962 159.795 224.935 159.675 224.935C159.554 224.935 159.435 224.962 159.327 225.016L154.968 227.529C154.778 227.637 154.787 227.818 154.968 227.935L160.032 230.819ZM153.657 234.497C153.765 234.551 153.884 234.579 154.005 234.579C154.126 234.579 154.245 234.551 154.353 234.497L158.721 231.976C158.902 231.867 158.893 231.686 158.721 231.578L153.675 228.667C153.567 228.612 153.448 228.583 153.327 228.583C153.206 228.583 153.087 228.612 152.979 228.667L148.611 231.18C148.431 231.289 148.44 231.469 148.611 231.587L153.657 234.497ZM288.787 194.077C288.678 194.023 288.559 193.996 288.438 193.996C288.318 193.996 288.199 194.023 288.09 194.077L277.348 200.277C277.167 200.386 277.176 200.566 277.348 200.675L282.394 203.594C282.502 203.648 282.621 203.676 282.742 203.676C282.862 203.676 282.982 203.648 283.09 203.594L293.823 197.394C294.013 197.294 294.004 197.114 293.823 196.996L288.787 194.077ZM274.689 202.211C274.582 202.156 274.462 202.127 274.341 202.127C274.22 202.127 274.101 202.156 273.993 202.211L269.635 204.733C269.445 204.842 269.454 205.022 269.635 205.131L274.68 208.041C274.788 208.097 274.907 208.126 275.029 208.126C275.15 208.126 275.269 208.097 275.377 208.041L279.744 205.52C279.925 205.42 279.916 205.239 279.744 205.122L274.689 202.211ZM188.326 249.971L192.684 247.459C192.865 247.35 192.856 247.169 192.684 247.052L187.611 244.151C187.503 244.097 187.384 244.069 187.263 244.069C187.142 244.069 187.023 244.097 186.915 244.151L182.557 246.663C182.367 246.772 182.385 246.953 182.557 247.07L187.602 249.98C187.714 250.039 187.839 250.069 187.965 250.068C188.091 250.066 188.215 250.033 188.326 249.971ZM261.94 209.569C261.832 209.513 261.713 209.484 261.592 209.484C261.47 209.484 261.351 209.513 261.243 209.569L256.876 212.082C256.695 212.19 256.704 212.371 256.876 212.488L261.922 215.399C262.03 215.452 262.149 215.48 262.27 215.48C262.39 215.48 262.51 215.452 262.618 215.399L266.976 212.886C267.166 212.778 267.157 212.597 266.976 212.479L261.94 209.569ZM295.161 190.398C295.054 190.343 294.934 190.314 294.813 190.314C294.692 190.314 294.573 190.343 294.465 190.398L290.098 192.92C289.917 193.028 289.926 193.209 290.098 193.318L295.143 196.228C295.251 196.283 295.37 196.312 295.491 196.312C295.613 196.312 295.732 196.283 295.84 196.228L300.198 193.706C300.388 193.607 300.379 193.426 300.198 193.308L295.161 190.398ZM306.582 189.63L294.375 182.562C294.267 182.506 294.148 182.477 294.027 182.477C293.906 182.477 293.786 182.506 293.679 182.562L289.32 185.083C289.13 185.183 289.139 185.364 289.32 185.481L301.572 192.549C301.68 192.605 301.8 192.634 301.921 192.634C302.042 192.634 302.161 192.605 302.269 192.549L306.636 190.027C306.79 189.919 306.781 189.747 306.582 189.63ZM238.113 223.362C238.005 223.308 237.886 223.281 237.765 223.281C237.644 223.281 237.525 223.308 237.417 223.362L232.046 226.462C231.865 226.561 231.874 226.742 232.046 226.86L237.091 229.77C237.199 229.826 237.318 229.855 237.439 229.855C237.56 229.855 237.68 229.826 237.787 229.77L243.15 226.67C243.34 226.561 243.33 226.381 243.15 226.263L238.113 223.362ZM254.217 214.07C254.109 214.017 253.99 213.989 253.869 213.989C253.749 213.989 253.63 214.017 253.521 214.07L246.812 217.948C246.631 218.056 246.64 218.237 246.812 218.345L251.876 221.193C251.983 221.248 252.103 221.277 252.224 221.277C252.345 221.277 252.464 221.248 252.572 221.193L259.281 217.315C259.462 217.216 259.453 217.035 259.281 216.917L254.217 214.07ZM223.347 231.885C223.239 231.83 223.12 231.801 222.999 231.801C222.878 231.801 222.758 231.83 222.65 231.885L186.77 252.547C186.58 252.656 186.598 252.837 186.77 252.954L191.816 255.865C191.924 255.918 192.043 255.946 192.164 255.946C192.285 255.946 192.404 255.918 192.512 255.865L228.41 235.148C228.6 235.04 228.591 234.859 228.41 234.741L223.347 231.885ZM185.423 253.768C185.315 253.714 185.196 253.686 185.075 253.686C184.954 253.686 184.835 253.714 184.727 253.768L179.356 256.805C179.175 256.913 179.184 257.085 179.356 257.202L184.401 260.113C184.509 260.168 184.628 260.197 184.749 260.197C184.87 260.197 184.99 260.168 185.097 260.113L190.469 257.013C190.649 256.904 190.64 256.723 190.469 256.615L185.423 253.768ZM230.725 227.628C230.618 227.573 230.498 227.544 230.377 227.544C230.256 227.544 230.137 227.573 230.029 227.628L224.667 230.728C224.477 230.837 224.486 231.018 224.667 231.135L229.713 234.045C229.821 234.099 229.94 234.127 230.061 234.127C230.181 234.127 230.301 234.099 230.409 234.045L235.78 230.945C235.961 230.837 235.952 230.665 235.78 230.547L230.725 227.628ZM178.044 258.034C177.937 257.978 177.817 257.949 177.696 257.949C177.575 257.949 177.456 257.978 177.348 258.034L171.977 261.134C171.787 261.243 171.805 261.423 171.977 261.541L177.023 264.451C177.131 264.505 177.25 264.532 177.371 264.532C177.491 264.532 177.611 264.505 177.719 264.451L183.153 261.324C183.343 261.215 183.334 261.044 183.153 260.926L178.044 258.034ZM245.492 219.105C245.383 219.051 245.264 219.023 245.143 219.023C245.023 219.023 244.904 219.051 244.795 219.105L239.424 222.205C239.243 222.313 239.252 222.494 239.424 222.612L244.47 225.522C244.577 225.578 244.697 225.606 244.818 225.606C244.939 225.606 245.058 225.578 245.166 225.522L250.537 222.431C250.718 222.322 250.709 222.142 250.537 222.024L245.492 219.105ZM268.315 205.935C268.206 205.882 268.087 205.854 267.966 205.854C267.846 205.854 267.727 205.882 267.618 205.935L263.251 208.457C263.07 208.566 263.079 208.746 263.251 208.855L268.297 211.774C268.405 211.828 268.524 211.856 268.645 211.856C268.765 211.856 268.884 211.828 268.993 211.774L273.36 209.262C273.541 209.153 273.532 208.972 273.36 208.855L268.315 205.935ZM282.285 195.794L286.644 193.272C286.833 193.164 286.824 192.992 286.644 192.875L281.58 189.919C281.472 189.864 281.353 189.835 281.232 189.835C281.111 189.835 280.991 189.864 280.883 189.919L276.516 192.441C276.335 192.549 276.344 192.73 276.516 192.838L281.562 195.749C281.673 195.809 281.797 195.841 281.923 195.841C282.05 195.841 282.174 195.809 282.285 195.749V195.794ZM253.774 195.613L258.142 193.092C258.323 192.983 258.314 192.802 258.142 192.694L253.096 189.783C252.989 189.728 252.869 189.699 252.748 189.699C252.627 189.699 252.508 189.728 252.4 189.783L248.042 192.305C247.852 192.405 247.861 192.585 248.042 192.703L253.087 195.613C253.198 195.658 253.317 195.678 253.436 195.67C253.555 195.662 253.671 195.627 253.774 195.568V195.613ZM239.307 220.587L252.056 213.22C252.237 213.121 252.228 212.94 252.056 212.823L247.011 209.912C246.903 209.857 246.784 209.828 246.663 209.828C246.541 209.828 246.422 209.857 246.314 209.912L233.565 217.27C233.375 217.378 233.393 217.559 233.565 217.677L238.61 220.587C238.726 220.638 238.852 220.66 238.978 220.653C239.103 220.645 239.226 220.607 239.334 220.542L239.307 220.587ZM275.187 199.455C275.294 199.51 275.414 199.539 275.535 199.539C275.656 199.539 275.775 199.51 275.883 199.455L280.242 196.942C280.431 196.834 280.413 196.653 280.242 196.535L275.196 193.625C275.088 193.571 274.968 193.544 274.848 193.544C274.727 193.544 274.608 193.571 274.5 193.625L270.132 196.147C269.951 196.255 269.96 196.436 270.132 196.544L275.187 199.455ZM268.676 195.315L273.035 192.793C273.225 192.694 273.216 192.513 273.035 192.396L267.989 189.485C267.881 189.43 267.762 189.401 267.641 189.401C267.52 189.401 267.4 189.43 267.293 189.485L262.925 192.007C262.744 192.115 262.754 192.296 262.925 192.405L267.971 195.315C268.087 195.37 268.215 195.395 268.343 195.387C268.471 195.379 268.595 195.339 268.703 195.27L268.676 195.315ZM232.923 224.239L237.29 221.717C237.471 221.608 237.462 221.428 237.29 221.319L232.244 218.409C232.137 218.353 232.017 218.324 231.896 218.324C231.775 218.324 231.656 218.353 231.548 218.409L227.19 220.93C227 221.03 227.018 221.211 227.19 221.328L232.226 224.239C232.336 224.301 232.459 224.335 232.585 224.34C232.711 224.345 232.836 224.319 232.95 224.266L232.923 224.239ZM261.09 207.562C261.197 207.618 261.317 207.647 261.438 207.647C261.559 207.647 261.678 207.618 261.786 207.562L266.153 205.041C266.334 204.941 266.325 204.76 266.153 204.643L261.108 201.732C261 201.677 260.881 201.648 260.76 201.648C260.639 201.648 260.519 201.677 260.412 201.732L256.053 204.254C255.863 204.363 255.872 204.543 256.053 204.652L261.09 207.562ZM201.048 242.632L205.407 240.119C205.597 240.011 205.578 239.83 205.407 239.713L200.334 236.784C200.226 236.731 200.106 236.703 199.986 236.703C199.865 236.703 199.746 236.731 199.638 236.784L195.27 239.306C195.089 239.414 195.098 239.595 195.27 239.713L200.316 242.623C200.433 242.686 200.564 242.718 200.697 242.716C200.83 242.715 200.96 242.679 201.075 242.614L201.048 242.632ZM207.423 238.953L211.782 236.441C211.971 236.332 211.962 236.151 211.782 236.034L206.736 233.123C206.628 233.07 206.508 233.042 206.388 233.042C206.267 233.042 206.148 233.07 206.04 233.123L201.672 235.645C201.491 235.754 201.5 235.934 201.672 236.043L206.718 238.953C206.832 239.012 206.958 239.042 207.086 239.038C207.214 239.035 207.34 239 207.45 238.935L207.423 238.953ZM194.673 246.311L199.032 243.798C199.222 243.69 199.204 243.509 199.032 243.391L194.004 240.463C193.897 240.407 193.777 240.378 193.656 240.378C193.535 240.378 193.416 240.407 193.308 240.463L188.94 242.976C188.76 243.084 188.769 243.265 188.94 243.382L193.986 246.293C194.097 246.349 194.219 246.378 194.343 246.378C194.467 246.378 194.59 246.349 194.7 246.293L194.673 246.311ZM220.227 231.578L224.595 229.056C224.775 228.948 224.766 228.776 224.595 228.658L219.549 225.748C219.441 225.693 219.322 225.664 219.201 225.664C219.08 225.664 218.96 225.693 218.853 225.748L214.494 228.27C214.304 228.378 214.313 228.55 214.494 228.667L219.54 231.578C219.646 231.632 219.764 231.66 219.884 231.66C220.003 231.66 220.121 231.632 220.227 231.578ZM213.852 235.257L218.22 232.735C218.401 232.635 218.392 232.455 218.22 232.337L213.174 229.427C213.066 229.371 212.947 229.342 212.826 229.342C212.705 229.342 212.585 229.371 212.478 229.427L208.11 231.948C207.929 232.057 207.939 232.238 208.11 232.346L213.156 235.257C213.26 235.308 213.375 235.334 213.491 235.334C213.607 235.334 213.721 235.308 213.825 235.257H213.852ZM226.557 227.881L230.924 225.359C231.105 225.251 231.096 225.079 230.924 224.962L225.879 222.051C225.771 221.996 225.652 221.967 225.53 221.967C225.409 221.967 225.29 221.996 225.182 222.051L220.824 224.573C220.634 224.681 220.652 224.853 220.824 224.971L225.87 227.881C225.976 227.935 226.094 227.963 226.213 227.963C226.333 227.963 226.45 227.935 226.557 227.881ZM255.728 173.442C255.835 173.497 255.955 173.526 256.076 173.526C256.197 173.526 256.316 173.497 256.424 173.442L260.791 170.92C260.972 170.811 260.963 170.64 260.791 170.522L259.444 169.745C259.336 169.689 259.217 169.66 259.096 169.66C258.975 169.66 258.855 169.689 258.748 169.745L254.389 172.258C254.208 172.366 254.217 172.547 254.389 172.664L255.728 173.442ZM224.36 193.688C224.468 193.742 224.587 193.769 224.708 193.769C224.828 193.769 224.947 193.742 225.056 193.688L229.414 191.175C229.604 191.067 229.595 190.886 229.414 190.769L224.369 187.858C224.261 187.803 224.142 187.774 224.02 187.774C223.899 187.774 223.78 187.803 223.672 187.858L219.323 190.389C219.142 190.497 219.151 190.678 219.323 190.796L224.36 193.688ZM237.109 186.322C237.217 186.377 237.336 186.406 237.457 186.406C237.579 186.406 237.698 186.377 237.806 186.322L242.173 183.809C242.354 183.7 242.345 183.52 242.173 183.402L237.127 180.492C237.019 180.438 236.9 180.411 236.779 180.411C236.658 180.411 236.539 180.438 236.431 180.492L232.064 183.013C231.883 183.122 231.892 183.303 232.064 183.411L237.109 186.322ZM216.61 198.198C216.718 198.254 216.837 198.283 216.958 198.283C217.079 198.283 217.199 198.254 217.306 198.198L221.665 195.686C221.855 195.577 221.846 195.396 221.665 195.279L216.61 192.377C216.502 192.324 216.383 192.296 216.262 192.296C216.141 192.296 216.022 192.324 215.914 192.377L211.546 194.89C211.366 194.999 211.375 195.179 211.546 195.297L216.61 198.198ZM230.771 190.064C230.879 190.117 230.998 190.145 231.119 190.145C231.239 190.145 231.359 190.117 231.467 190.064L235.825 187.551C236.015 187.442 236.006 187.262 235.825 187.144L230.78 184.234C230.672 184.178 230.553 184.149 230.431 184.149C230.31 184.149 230.191 184.178 230.083 184.234L225.653 186.71C225.472 186.819 225.481 187 225.653 187.108L230.771 190.064ZM203.842 205.556C203.951 205.609 204.07 205.637 204.19 205.637C204.311 205.637 204.43 205.609 204.539 205.556L208.897 203.034C209.078 202.926 209.069 202.745 208.897 202.636L203.851 199.726C203.744 199.67 203.624 199.641 203.503 199.641C203.382 199.641 203.263 199.67 203.155 199.726L198.797 202.239C198.607 202.347 198.625 202.528 198.797 202.645L203.842 205.556ZM210.217 201.877C210.325 201.933 210.444 201.961 210.565 201.961C210.686 201.961 210.806 201.933 210.913 201.877L215.272 199.364C215.462 199.256 215.444 199.075 215.272 198.958L210.235 196.047C210.127 195.994 210.008 195.966 209.887 195.966C209.766 195.966 209.647 195.994 209.539 196.047L205.172 198.56C204.991 198.668 205 198.849 205.172 198.967L210.217 201.877ZM242.996 180.817C243.104 180.873 243.223 180.902 243.344 180.902C243.465 180.902 243.585 180.873 243.692 180.817L248.051 178.304C248.24 178.196 248.231 178.015 248.051 177.898L246.703 177.12C246.595 177.067 246.476 177.039 246.355 177.039C246.234 177.039 246.115 177.067 246.007 177.12L241.649 179.633C241.459 179.742 241.468 179.922 241.649 180.04L242.996 180.817ZM262.121 169.781C262.228 169.836 262.348 169.865 262.469 169.865C262.59 169.865 262.709 169.836 262.817 169.781L267.184 167.259C267.365 167.151 267.356 166.97 267.184 166.862L265.846 166.084C265.738 166.031 265.619 166.003 265.498 166.003C265.377 166.003 265.258 166.031 265.15 166.084L260.782 168.606C260.601 168.714 260.61 168.895 260.782 169.004L262.121 169.781ZM272.718 175.9C272.826 175.954 272.946 175.981 273.066 175.981C273.187 175.981 273.306 175.954 273.415 175.9L277.782 173.387C277.963 173.279 277.954 173.098 277.782 172.981L272.673 170.079C272.565 170.026 272.446 169.998 272.325 169.998C272.204 169.998 272.085 170.026 271.977 170.079L267.618 172.592C267.428 172.7 267.437 172.881 267.618 172.999L272.718 175.9ZM288.66 192.07L293.018 189.548C293.208 189.44 293.199 189.268 293.018 189.151L287.973 186.24C287.865 186.185 287.746 186.156 287.625 186.156C287.503 186.156 287.384 186.185 287.276 186.24L282.909 188.762C282.728 188.871 282.737 189.042 282.909 189.16L287.955 192.07C288.063 192.127 288.184 192.157 288.307 192.157C288.43 192.157 288.551 192.127 288.66 192.07ZM249.371 177.138C249.478 177.194 249.598 177.223 249.719 177.223C249.84 177.223 249.959 177.194 250.067 177.138L254.434 174.617C254.615 174.517 254.606 174.336 254.434 174.219L253.087 173.442C252.979 173.388 252.86 173.36 252.739 173.36C252.618 173.36 252.499 173.388 252.391 173.442L248.033 175.954C247.843 176.063 247.861 176.244 248.033 176.361L249.371 177.138ZM197.458 209.234C197.567 209.288 197.686 209.316 197.807 209.316C197.927 209.316 198.046 209.288 198.155 209.234L202.522 206.713C202.703 206.604 202.694 206.423 202.522 206.315L197.476 203.405C197.369 203.349 197.249 203.32 197.128 203.32C197.007 203.32 196.888 203.349 196.78 203.405L192.422 205.926C192.232 206.026 192.25 206.207 192.422 206.324L197.458 209.234Z" fill="#E0E0E0"/>
<path d="M223.383 248.851L271.136 221.292L300.524 238.248L252.771 265.807L223.383 248.851Z" fill="#263238"/>
<path d="M127.47 85.4238L269.752 3.30813C272.537 1.69926 274.816 3.01889 274.816 6.22759V116.39C274.768 117.204 274.531 117.996 274.123 118.702C273.714 119.408 273.147 120.009 272.465 120.457L126.566 204.652C125.273 205.393 124.215 204.787 124.215 203.296V91.0548C124.28 89.9273 124.608 88.8307 125.173 87.8528C125.739 86.875 126.525 86.0431 127.47 85.4238Z" fill="#F5F5F5"/>
<path d="M274.816 8.86687V6.22759C274.816 3.01889 272.537 1.7083 269.752 3.30813L127.47 85.4238C126.525 86.0431 125.739 86.875 125.173 87.8528C124.608 88.8307 124.28 89.9273 124.215 91.0548V95.782L274.816 8.86687Z" fill="#263238"/>
<path d="M253.594 14.8776C253.092 15.2127 252.676 15.66 252.377 16.184C252.079 16.7081 251.907 17.2944 251.875 17.8965C251.875 19.0083 252.662 19.4602 253.621 18.8998C254.129 18.5724 254.553 18.1287 254.857 17.6053C255.16 17.082 255.335 16.494 255.366 15.8899C255.339 14.7782 254.588 14.3263 253.594 14.8776Z" fill="#E0E0E0"/>
<path d="M260.511 10.8914C260.002 11.2208 259.579 11.6662 259.275 12.191C258.972 12.7158 258.797 13.305 258.766 13.9103C258.766 15.022 259.544 15.4649 260.511 14.9136C261.024 14.579 261.449 14.1275 261.752 13.5964C262.056 13.0652 262.229 12.4695 262.256 11.8585C262.256 10.7829 261.47 10.331 260.511 10.8914Z" fill="#E0E0E0"/>
<path d="M267.429 6.8966C266.921 7.22708 266.498 7.67271 266.195 8.19727C265.892 8.72184 265.716 9.31053 265.684 9.91548C265.684 11.0272 266.461 11.4792 267.429 10.9188C267.935 10.5892 268.356 10.1449 268.658 9.6218C268.959 9.09875 269.133 8.51184 269.165 7.90891C269.165 6.79717 268.387 6.34524 267.429 6.8966Z" fill="#E0E0E0"/>
<path d="M124.215 95.7819V116.977L274.807 30.0714V8.86682L124.215 95.7819Z" fill="#0E53BE"/>
<path opacity="0.1" d="M124.215 95.7819V116.977L274.807 30.0714V8.86682L124.215 95.7819Z" fill="black"/>
<path d="M134.081 105.933C133.574 106.09 133.036 106.118 132.516 106.014V95.6285C132.512 95.4313 132.556 95.236 132.643 95.0591C132.751 94.8888 132.9 94.7488 133.077 94.6524L133.855 94.2095C134.054 94.092 134.198 94.0558 134.289 94.11C134.379 94.1643 134.424 94.2999 134.424 94.5258V97.9424C134.713 97.4949 135.059 97.0876 135.455 96.7312C135.875 96.3502 136.336 96.0168 136.83 95.737C137.969 95.0772 138.846 94.9235 139.47 95.2941C140.094 95.6647 140.374 96.5053 140.374 97.8068C140.39 99.2675 140.015 100.706 139.289 101.974C138.516 103.28 137.408 104.357 136.079 105.092C135.455 105.463 134.782 105.746 134.081 105.933ZM137.86 101.693C138.286 100.854 138.494 99.9221 138.466 98.9818C138.466 98.078 138.304 97.5357 137.987 97.3097C137.671 97.0837 137.137 97.1741 136.387 97.608C135.851 97.9226 135.386 98.3441 135.021 98.8463C134.646 99.3136 134.436 99.8921 134.424 100.491V104.052C134.663 104.078 134.905 104.047 135.13 103.962C135.443 103.86 135.746 103.727 136.034 103.564C136.808 103.127 137.442 102.478 137.86 101.693Z" fill="#FAFAFA"/>
<path d="M142.01 101.259C141.92 101.196 141.874 101.069 141.874 100.853V90.2231C141.869 90.0247 141.916 89.8283 142.01 89.6537C142.113 89.4794 142.264 89.3383 142.444 89.247L143.249 88.786C143.448 88.6685 143.593 88.6414 143.683 88.6866C143.773 88.7318 143.819 88.8764 143.819 89.1024V99.7318C143.827 99.9236 143.783 100.114 143.692 100.283C143.586 100.46 143.433 100.604 143.249 100.699L142.444 101.16C142.236 101.277 142.091 101.341 142.01 101.259Z" fill="#FAFAFA"/>
<path d="M146.378 97.9514C145.663 97.5627 145.311 96.686 145.311 95.3031C145.307 93.9348 145.676 92.5912 146.378 91.4165C147.116 90.1807 148.167 89.1613 149.425 88.4609C150.736 87.7016 151.758 87.557 152.472 87.9005C153.187 88.2439 153.548 89.1659 153.548 90.5488C153.553 91.9185 153.181 93.2632 152.472 94.4354C151.734 95.6739 150.683 96.6965 149.425 97.4C148.105 98.1593 147.092 98.34 146.378 97.9514ZM151.062 94.0829C151.448 93.3348 151.64 92.5021 151.622 91.6605C151.622 90.7567 151.432 90.1692 151.062 89.907C150.691 89.6449 150.157 89.7263 149.425 90.142C148.735 90.5297 148.168 91.1027 147.788 91.7961C147.397 92.5361 147.201 93.3636 147.219 94.2004C147.219 95.1163 147.408 95.7189 147.788 96.0081C148.168 96.2793 148.692 96.2069 149.425 95.8002C150.12 95.4036 150.688 94.8173 151.062 94.11V94.0829Z" fill="#FAFAFA"/>
<path d="M157.193 95.4385C156.788 95.6032 156.354 95.6802 155.918 95.6645C155.755 95.6645 155.719 95.547 155.8 95.3482L156.234 94.2364C156.268 94.1285 156.331 94.0318 156.415 93.9562C156.465 93.9428 156.518 93.9428 156.569 93.9562C157.345 93.897 158.092 93.6386 158.739 93.206C159.352 92.8721 159.867 92.3827 160.231 91.7869C160.572 91.1166 160.734 90.3692 160.701 89.6177C160.434 90.1133 160.099 90.5696 159.706 90.9735C159.298 91.3842 158.836 91.737 158.332 92.022C157.202 92.6727 156.316 92.8264 155.683 92.4829C155.05 92.1395 154.733 91.3079 154.733 90.0154C154.721 88.5891 155.113 87.1884 155.863 85.9751C156.679 84.6919 157.805 83.635 159.137 82.902C159.74 82.5435 160.392 82.2727 161.072 82.0976C161.57 81.9495 162.096 81.9155 162.609 81.9982V88.0088C162.623 89.3465 162.313 90.6676 161.705 91.8593C161.063 93.0532 160.09 94.0358 158.902 94.6883C158.355 94.9877 157.783 95.2387 157.193 95.4385ZM160.168 88.75C160.513 88.2367 160.698 87.633 160.701 87.0146V83.8963C160.449 83.917 160.202 83.978 159.969 84.077C159.656 84.1993 159.353 84.3474 159.064 84.5199C158.308 84.9215 157.681 85.5298 157.256 86.2739C156.832 87.018 156.628 87.8673 156.668 88.7229C156.668 89.6267 156.84 90.1329 157.193 90.3589C157.545 90.5848 158.097 90.4764 158.802 90.0696C159.356 89.7447 159.824 89.2923 160.168 88.75Z" fill="#FAFAFA"/>
<path d="M149.923 111.518V186.023C149.923 186.52 150.185 186.773 150.501 186.584C150.685 186.43 150.832 186.238 150.932 186.02C151.032 185.803 151.082 185.566 151.08 185.327V110.822C151.08 110.325 150.818 110.081 150.501 110.271C150.317 110.422 150.169 110.612 150.069 110.828C149.969 111.044 149.919 111.28 149.923 111.518Z" fill="#0E53BE"/>
<path d="M105.85 140.424L138.665 121.443C139.75 120.819 140.627 121.325 140.627 122.572V145.648C140.59 146.327 140.393 146.989 140.052 147.578C139.711 148.167 139.236 148.667 138.665 149.037L105.85 167.973C104.774 168.597 103.897 168.091 103.897 166.843V143.822C103.933 143.142 104.128 142.48 104.468 141.89C104.807 141.299 105.281 140.797 105.85 140.424Z" fill="#E0E0E0"/>
<path d="M140.655 122.609C140.655 121.361 139.75 120.855 138.692 121.479L105.877 140.46C105.309 140.833 104.836 141.333 104.497 141.922C104.158 142.511 103.962 143.171 103.924 143.849V145.811L140.655 124.579V122.609Z" fill="#0E53BE"/>
<path d="M107.559 147.899L122.253 139.421V154.262L107.559 162.74V147.899Z" fill="#FAFAFA"/>
<path d="M107.568 160.58L113.075 150.8C113.119 150.701 113.187 150.616 113.274 150.552C113.361 150.488 113.463 150.448 113.57 150.436C113.677 150.424 113.786 150.441 113.885 150.484C113.983 150.527 114.069 150.596 114.133 150.682L116.059 152.797L119.378 145.142C119.577 144.681 119.965 144.636 120.282 145.051L122.289 147.899V154.226L107.595 162.704L107.568 160.58Z" fill="#0E53BE"/>
<path d="M125.934 138.58C125.934 139.285 126.458 139.556 127.109 139.176L135.772 134.178C136.107 133.966 136.389 133.678 136.593 133.337C136.797 132.997 136.918 132.613 136.947 132.217C136.947 131.512 136.423 131.241 135.781 131.62L127.091 136.591C126.754 136.807 126.473 137.1 126.271 137.445C126.07 137.791 125.954 138.18 125.934 138.58Z" fill="#FAFAFA"/>
<path d="M125.934 144.726C125.934 145.431 126.458 145.702 127.109 145.331L135.772 140.324C136.108 140.113 136.39 139.825 136.595 139.484C136.799 139.143 136.92 138.759 136.947 138.363C136.947 137.658 136.423 137.396 135.781 137.766L127.091 142.719C126.753 142.938 126.471 143.234 126.27 143.583C126.069 143.932 125.954 144.324 125.934 144.726Z" fill="#FAFAFA"/>
<path d="M125.934 150.782C125.934 151.496 126.458 151.758 127.109 151.388L135.772 146.38C136.108 146.171 136.39 145.885 136.595 145.545C136.799 145.206 136.92 144.823 136.947 144.428C136.947 143.723 136.423 143.452 135.781 143.822L127.091 148.83C126.758 149.041 126.479 149.328 126.278 149.667C126.077 150.006 125.959 150.388 125.934 150.782Z" fill="#FAFAFA"/>
<path d="M105.85 176.144L138.665 157.208C139.75 156.585 140.627 157.091 140.627 158.338V181.414C140.59 182.093 140.393 182.754 140.052 183.343C139.711 183.932 139.236 184.433 138.665 184.803L105.85 203.784C104.774 204.408 103.897 203.902 103.897 202.654V179.534C103.934 178.855 104.13 178.195 104.47 177.606C104.809 177.018 105.282 176.517 105.85 176.144Z" fill="#E0E0E0"/>
<path d="M140.655 158.338C140.655 157.091 139.75 156.584 138.692 157.208L105.877 176.144C105.309 176.517 104.836 177.017 104.497 177.606C104.158 178.195 103.962 178.855 103.924 179.533V181.504L140.655 160.299V158.338Z" fill="#0E53BE"/>
<path d="M107.559 183.619L122.253 175.141V189.982L107.559 198.461V183.619Z" fill="#FAFAFA"/>
<path d="M107.568 196.309L113.075 186.53C113.119 186.431 113.187 186.345 113.274 186.282C113.361 186.218 113.463 186.178 113.57 186.166C113.677 186.154 113.786 186.171 113.885 186.214C113.983 186.257 114.069 186.325 114.133 186.412L116.059 188.518L119.378 180.863C119.577 180.402 119.965 180.365 120.282 180.772L122.289 183.619V189.946L107.595 198.425L107.568 196.309Z" fill="#0E53BE"/>
<path d="M125.934 174.3C125.934 175.005 126.458 175.276 127.109 174.906L135.772 169.898C136.108 169.689 136.39 169.403 136.595 169.064C136.799 168.724 136.92 168.341 136.947 167.946C136.947 167.232 136.423 166.97 135.781 167.34L127.091 172.348C126.758 172.559 126.479 172.846 126.278 173.185C126.077 173.525 125.959 173.907 125.934 174.3Z" fill="#FAFAFA"/>
<path d="M125.934 180.401C125.934 181.116 126.458 181.378 127.109 181.007L135.772 176C136.108 175.79 136.39 175.504 136.595 175.165C136.799 174.826 136.92 174.443 136.947 174.047C136.947 173.342 136.423 173.071 135.781 173.442L127.091 178.449C126.758 178.66 126.479 178.947 126.278 179.287C126.077 179.626 125.959 180.008 125.934 180.401Z" fill="#FAFAFA"/>
<path d="M125.934 186.511C125.934 187.216 126.458 187.488 127.109 187.108L135.772 182.11C136.107 181.897 136.389 181.609 136.593 181.269C136.797 180.928 136.918 180.544 136.947 180.148C136.947 179.443 136.423 179.172 135.781 179.552L127.091 184.55C126.759 184.764 126.481 185.053 126.28 185.394C126.079 185.734 125.96 186.117 125.934 186.511Z" fill="#FAFAFA"/>
<path d="M162.908 141.282L263.794 83.0648C264.87 82.4412 265.747 82.9473 265.747 84.1947V113.597C265.71 114.276 265.514 114.936 265.174 115.524C264.835 116.113 264.362 116.614 263.794 116.987L162.908 175.204C161.823 175.828 160.946 175.322 160.946 174.074V144.672C160.983 143.992 161.18 143.331 161.521 142.742C161.862 142.153 162.337 141.653 162.908 141.282Z" fill="#E0E0E0"/>
<path d="M265.747 84.1672C265.747 82.9199 264.843 82.4137 263.794 83.0374L162.908 141.282C162.337 141.653 161.862 142.153 161.521 142.742C161.18 143.331 160.983 143.992 160.946 144.672V146.633L265.747 86.1557V84.1672Z" fill="#0E53BE"/>
<path d="M185.866 135.172L165.485 146.922C165.031 147.221 164.653 147.622 164.381 148.093C164.11 148.564 163.952 149.091 163.92 149.634V169.772C163.92 170.766 164.626 171.173 165.485 170.676L185.866 158.926C186.321 158.627 186.699 158.226 186.971 157.756C187.242 157.285 187.4 156.757 187.431 156.214V136.076C187.394 135.082 186.689 134.675 185.866 135.172Z" fill="#FAFAFA"/>
<path d="M171.073 152.861L163.884 168.226V169.817C163.884 170.811 164.59 171.218 165.449 170.721L185.83 158.971C186.285 158.672 186.663 158.272 186.935 157.801C187.206 157.33 187.364 156.802 187.394 156.259V149.245L183.542 142.014C183.072 141.111 182.376 141.156 181.987 142.078L175.92 156.313L172.972 152.644C172.874 152.463 172.724 152.317 172.542 152.222C172.36 152.127 172.153 152.089 171.949 152.112C171.745 152.136 171.553 152.219 171.397 152.353C171.241 152.486 171.128 152.663 171.073 152.861Z" fill="#0E53BE"/>
<path d="M166.244 152.68C167.268 152.012 168.121 151.113 168.732 150.054C169.343 148.996 169.696 147.808 169.762 146.588C169.787 145.943 169.6 145.308 169.228 144.78L165.449 146.959C164.995 147.258 164.617 147.658 164.345 148.129C164.074 148.6 163.916 149.128 163.884 149.67V153.023C164.276 153.161 164.696 153.202 165.107 153.142C165.518 153.082 165.908 152.924 166.244 152.68Z" fill="#0E53BE"/>
<path d="M196.599 130.743L259.589 94.3992C260.493 93.893 261.153 94.2365 261.153 95.1584C261.112 95.6788 260.948 96.1822 260.677 96.628C260.405 97.0739 260.032 97.4497 259.589 97.7254L196.599 134.079C195.695 134.576 195.035 134.232 195.035 133.31C195.077 132.79 195.24 132.287 195.512 131.841C195.783 131.395 196.156 131.019 196.599 130.743Z" fill="#FAFAFA"/>
<path d="M196.599 139.221L259.589 102.877C260.493 102.371 261.153 102.714 261.153 103.636C261.112 104.157 260.948 104.66 260.677 105.106C260.405 105.552 260.032 105.928 259.589 106.203L196.599 142.557C195.695 143.054 195.035 142.71 195.035 141.788C195.077 141.268 195.241 140.765 195.513 140.319C195.784 139.873 196.156 139.497 196.599 139.221Z" fill="#FAFAFA"/>
<path d="M196.599 147.7L259.589 111.355C260.493 110.849 261.153 111.193 261.153 112.115C261.111 112.636 260.947 113.14 260.676 113.588C260.404 114.035 260.032 114.412 259.589 114.691L196.599 151.053C195.695 151.55 195.035 151.207 195.035 150.285C195.075 149.761 195.237 149.255 195.509 148.805C195.78 148.356 196.154 147.978 196.599 147.7Z" fill="#FAFAFA"/>
<path d="M299.657 48.2932L290.415 48.013C289.791 47.4888 280.08 36.534 280.08 36.534C280.08 36.534 276.589 42.0385 276.526 42.391C276.463 42.7435 286.048 52.9842 286.997 54.0146C287.264 54.3608 287.606 54.6411 287.998 54.8339C288.39 55.0267 288.821 55.1268 289.258 55.1264C291.763 55.271 301.14 55.9308 301.14 55.9308L299.657 48.2932Z" fill="#F28F8F"/>
<path d="M312.794 58.9137L298.543 57.8561L299.647 48.2933L314.359 48.6187L312.794 58.9137Z" fill="#0E53BE"/>
<path opacity="0.2" d="M312.794 58.9137L298.543 57.8561L299.647 48.2933L314.359 48.6187L312.794 58.9137Z" fill="black"/>
<path d="M181.273 90.3679L282.159 32.1503C283.235 31.5267 284.112 32.0328 284.112 33.2802V62.6918C284.074 63.37 283.878 64.0298 283.539 64.6185C283.199 65.2071 282.727 65.708 282.159 66.0812L181.273 124.299C180.188 124.922 179.311 124.416 179.311 123.169V93.7574C179.348 93.0779 179.545 92.4167 179.886 91.8277C180.227 91.2387 180.702 90.7385 181.273 90.3679Z" fill="#E0E0E0"/>
<path d="M284.112 33.2802C284.112 32.0328 283.208 31.5267 282.159 32.1503L181.273 90.3679C180.702 90.7385 180.227 91.2387 179.886 91.8277C179.545 92.4167 179.348 93.0779 179.311 93.7574V95.7188L284.112 35.2415V33.2802Z" fill="#0E53BE"/>
<path d="M204.195 84.2668L183.814 96.017C183.358 96.3144 182.979 96.7149 182.708 97.186C182.436 97.6571 182.279 98.1856 182.25 98.7286V118.858C182.25 119.852 182.955 120.259 183.814 119.761L204.195 108.011C204.651 107.714 205.03 107.313 205.302 106.842C205.573 106.371 205.73 105.843 205.76 105.3V85.1707C205.76 84.1674 205.054 83.7697 204.195 84.2668Z" fill="#FAFAFA"/>
<path d="M189.483 101.955L182.25 117.276V118.867C182.25 119.861 182.955 120.268 183.814 119.771L204.195 108.02C204.651 107.723 205.03 107.322 205.302 106.851C205.573 106.38 205.73 105.852 205.76 105.309V98.3581L201.908 91.1272C201.437 90.2233 200.741 90.2776 200.352 91.1905L194.285 105.453L191.337 101.775C191.235 101.611 191.088 101.478 190.915 101.393C190.741 101.307 190.547 101.272 190.354 101.291C190.162 101.31 189.978 101.382 189.824 101.499C189.67 101.617 189.552 101.775 189.483 101.955Z" fill="#0E53BE"/>
<path d="M184.61 101.775C185.633 101.105 186.485 100.203 187.096 99.1436C187.707 98.0838 188.06 96.8952 188.127 95.6737C188.151 95.0291 187.964 94.3943 187.594 93.866L183.814 96.0534C183.358 96.3508 182.979 96.7512 182.708 97.2223C182.436 97.6934 182.279 98.2219 182.25 98.7649V102.109C182.641 102.248 183.06 102.291 183.471 102.232C183.882 102.174 184.273 102.017 184.61 101.775Z" fill="#0E53BE"/>
<path d="M214.965 79.8288L277.954 43.4937C278.859 42.9966 279.519 43.331 279.519 44.2529C279.477 44.7745 279.314 45.2792 279.042 45.7265C278.771 46.1738 278.398 46.5513 277.954 46.8289L214.965 83.1731C214.106 83.6702 213.401 83.3358 213.401 82.4139C213.442 81.8909 213.605 81.3847 213.876 80.9359C214.148 80.487 214.521 80.1079 214.965 79.8288Z" fill="#FAFAFA"/>
<path d="M214.965 88.3073L277.954 51.9631C278.859 51.466 279.519 51.8095 279.519 52.7224C279.477 53.244 279.314 53.7486 279.042 54.1959C278.771 54.6432 278.398 55.0207 277.954 55.2984L214.965 91.6426C214.106 92.1487 213.401 91.8052 213.401 90.8833C213.443 90.3619 213.607 89.8575 213.878 89.4103C214.15 88.9631 214.522 88.5854 214.965 88.3073Z" fill="#FAFAFA"/>
<path d="M214.965 96.8214L277.954 60.4772C278.859 59.9801 279.519 60.3235 279.519 61.2364C279.477 61.758 279.314 62.2627 279.042 62.71C278.771 63.1573 278.398 63.5348 277.954 63.8124L214.965 100.157C214.106 100.663 213.401 100.319 213.401 99.3974C213.443 98.876 213.607 98.3716 213.878 97.9244C214.15 97.4772 214.522 97.0995 214.965 96.8214Z" fill="#FAFAFA"/>
<path d="M330.988 160.02H325.653V167.793H330.988V160.02Z" fill="#FFA8A7"/>
<path d="M312.225 150.381L306.893 150.564L307.16 158.332L312.492 158.149L312.225 150.381Z" fill="#FFA8A7"/>
<path d="M330.644 84.1674C330.644 89.2652 331.304 122.229 331.304 122.229C331.431 123.693 332.805 126.396 332.507 132.036C332.109 139.683 331.44 160.959 331.44 160.959C331.44 160.959 328.944 163.445 325.408 160.959C325.408 160.959 320.571 132.081 319.612 124.507C318.78 117.89 317.361 99.9127 317.361 99.9127L312.46 121.027C312.46 121.027 313.364 125.998 313.527 129.514C313.689 133.03 312.622 153.295 312.622 153.295C311.759 153.837 310.769 154.143 309.75 154.183C308.731 154.223 307.72 153.994 306.817 153.521C306.817 153.521 302.513 123.937 301.925 120.72C301.338 117.502 305.678 84.1674 305.678 84.1674H330.644Z" fill="#455A64"/>
<path d="M322.614 48.8536H322.686C324.971 49.4377 326.995 50.768 328.436 52.6332C329.878 54.4984 330.655 56.7915 330.644 59.1485V84.1673C326.9 88.2347 313.852 90.1328 305.678 84.1673V58.1362C305.678 53.9784 307.984 48.9801 314.367 48.6095L322.614 48.8536Z" fill="#0E53BE"/>
<path d="M324.405 27.5766C324.836 27.5265 325.272 27.5753 325.681 27.7194C326.09 27.8635 326.461 28.0991 326.765 28.4081C327.778 29.4385 327.561 31.3547 326.765 35.7475L323.636 36.109L324.405 27.5766Z" fill="#263238"/>
<path d="M306.194 26.3207C305.52 26.3234 304.852 26.1881 304.232 25.923C303.273 25.3716 303.029 26.4562 303.554 27.4053C303.9 28.0833 304.414 28.6612 305.047 29.0838C305.68 29.5063 306.412 29.7593 307.171 29.8186C307.171 29.683 308.075 27.3782 308.075 27.3782L306.194 26.3207Z" fill="#263238"/>
<path d="M322.941 36.1094C323.411 36.3896 324.071 35.4948 324.641 34.8983C324.866 34.6419 325.154 34.4471 325.475 34.3321C325.797 34.2171 326.143 34.1857 326.48 34.2408C326.817 34.2959 327.134 34.4358 327.403 34.6472C327.671 34.8587 327.881 35.1348 328.013 35.4496C328.963 37.4472 326.811 40.1045 325.545 40.9813C325.19 41.2888 324.747 41.4764 324.279 41.5169C323.812 41.5575 323.343 41.4491 322.941 41.2072L322.615 48.8539C322.056 50.0804 321.2 51.1487 320.125 51.9628C319.05 52.7769 317.79 53.3112 316.457 53.5178C311.936 54.1324 312.895 50.4266 314.368 48.6098V45.835C313.246 46.0737 312.092 46.1316 310.95 46.0067C310.363 45.8531 308.97 44.199 308.066 42.2738C307.053 40.1497 305.353 36.3806 306.863 30.0084C308.482 23.1662 315.833 22.9583 320.219 25.7151C324.604 28.4718 322.941 36.1094 322.941 36.1094Z" fill="#FFA8A7"/>
<path d="M322.941 36.8956C323.176 36.8956 324.062 35.4223 324.641 34.8981C325.445 34.175 324.406 27.5768 324.406 27.5768C324.406 27.5768 325.219 25.0821 323.637 23.419C322.055 21.7559 318.989 22.0452 316.747 21.9638C313.994 21.9805 311.268 21.4329 308.735 20.355C305.561 18.9721 305.317 18.8094 304.928 20.2103C304.539 21.6113 304.377 24.8019 306.285 26.9531L307.858 27.5316C307.858 27.5316 308.717 28.2908 311.683 28.6524C314.422 28.8589 317.174 28.8045 319.902 28.4897C320.761 28.3722 320.951 29.2128 321.413 31.4905C321.819 33.488 322.163 36.8775 322.941 36.8956Z" fill="#263238"/>
<path d="M324.405 28.1281L327.208 26.6277C327.119 26.4384 326.992 26.2692 326.836 26.1304C326.679 25.9916 326.496 25.8861 326.297 25.8201C326.098 25.7542 325.888 25.7293 325.68 25.7469C325.471 25.7646 325.268 25.8243 325.083 25.9227C324.709 26.1328 324.429 26.4791 324.303 26.8897C324.177 27.3003 324.213 27.7438 324.405 28.1281Z" fill="#263238"/>
<path d="M314.377 45.8348C316.294 45.4691 318.173 44.9306 319.993 44.2259C320.843 43.7754 321.542 43.0835 322 42.2374C321.781 43.0861 321.394 43.8822 320.861 44.5784C319.794 45.9342 314.377 46.9375 314.377 46.9375V45.8348Z" fill="#F28F8F"/>
<path d="M315.372 35.0697C315.385 35.2331 315.444 35.3893 315.544 35.5192C315.644 35.649 315.78 35.7468 315.935 35.8005C316.09 35.8543 316.257 35.8616 316.416 35.8217C316.575 35.7817 316.719 35.6962 316.83 35.5756C316.941 35.455 317.014 35.3046 317.041 35.143C317.067 34.9813 317.046 34.8154 316.98 34.6656C316.913 34.5159 316.804 34.3888 316.667 34.3C316.529 34.2112 316.368 34.1646 316.204 34.1659C316.09 34.1693 315.977 34.1956 315.873 34.2432C315.769 34.2907 315.675 34.3586 315.598 34.4428C315.52 34.527 315.461 34.6258 315.422 34.7335C315.383 34.8412 315.366 34.9555 315.372 35.0697Z" fill="#263238"/>
<path d="M316.258 31.9242L318.066 32.9094C318.194 32.665 318.222 32.3807 318.144 32.1161C318.067 31.8516 317.89 31.6273 317.65 31.4904C317.532 31.4209 317.4 31.3769 317.264 31.3612C317.127 31.3456 316.989 31.3586 316.858 31.3994C316.727 31.4403 316.606 31.508 316.502 31.5984C316.399 31.6888 316.316 31.7998 316.258 31.9242Z" fill="#263238"/>
<path d="M315.436 40.719L313.537 41.4331C313.577 41.5614 313.643 41.6801 313.731 41.782C313.819 41.884 313.927 41.967 314.048 42.0262C314.169 42.0853 314.3 42.1193 314.435 42.1261C314.569 42.133 314.703 42.1124 314.83 42.0658C315.085 41.9628 315.291 41.7651 315.403 41.5142C315.516 41.2632 315.528 40.9783 315.436 40.719Z" fill="#F28F8F"/>
<path d="M307.94 32.6476L309.567 31.3912C309.491 31.2818 309.393 31.1889 309.28 31.1184C309.167 31.0478 309.04 31.001 308.908 30.9807C308.777 30.9604 308.642 30.9671 308.513 31.0004C308.383 31.0337 308.262 31.0928 308.157 31.1743C307.939 31.3458 307.796 31.5939 307.755 31.8678C307.715 32.1417 307.781 32.4207 307.94 32.6476Z" fill="#263238"/>
<path d="M308.445 34.835C308.435 34.9501 308.449 35.066 308.486 35.1754C308.524 35.2848 308.583 35.3852 308.662 35.4703C308.74 35.5553 308.835 35.6231 308.941 35.6694C309.047 35.7156 309.161 35.7393 309.277 35.7388C309.458 35.7534 309.64 35.713 309.797 35.6229C309.955 35.5328 310.082 35.3973 310.162 35.2339C310.242 35.0706 310.27 34.887 310.244 34.7072C310.218 34.5274 310.138 34.3596 310.015 34.2259C309.892 34.0922 309.731 33.9986 309.554 33.9575C309.377 33.9163 309.192 33.9295 309.022 33.9953C308.853 34.061 308.707 34.1763 308.604 34.3261C308.501 34.4759 308.446 34.6532 308.445 34.835Z" fill="#263238"/>
<path d="M312.687 34.0484L312.416 39.0558L309.793 38.17L312.687 34.0484Z" fill="#F28F8F"/>
<path d="M325.663 165.153V164.394C325.147 164.611 323.963 169.139 321.847 171.074C320.156 172.61 317.859 174.382 317.28 176.09C316.702 177.798 320.481 178.856 322.055 178.576C323.863 178.25 327.046 176.967 327.842 175.774C328.638 174.581 329.008 172.818 329.65 171.95C330.292 171.083 331.784 170.097 332.137 169.085C332.242 168.14 332.137 167.183 331.83 166.283C331.586 165.379 331.314 164.304 330.989 164.394V164.973C330.231 165.573 329.288 165.893 328.321 165.876C327.553 165.904 325.654 165.75 325.663 165.153Z" fill="#263238"/>
<path d="M307.098 156.702C306.818 156.702 306.591 157.1 305.977 157.769C305.064 158.692 304.004 159.456 302.839 160.028C300.84 161.023 296.952 162.559 295.198 163.355C294.095 163.852 294.149 165.162 295.279 165.931C296.41 166.699 299.159 167.232 302.459 166.491C304.268 166.093 306.582 164.439 308.065 164.53C309.548 164.62 312.306 164.593 313.4 163.843C314.494 163.092 314.051 161.484 313.744 160.11C313.409 158.6 312.921 156.295 312.424 156.404V156.874C311.782 157.841 308.517 158.239 307.107 157.525L307.098 156.702Z" fill="#263238"/>
<path d="M324.215 52.3246L307.721 69.3714C307.721 69.3714 293.254 66.7864 288.316 65.3673C286.761 64.9244 285.676 62.6015 285.332 60.848C285.244 59.935 284.799 59.0937 284.094 58.507C284.094 58.507 284.094 59.7815 283.768 61.8694C283.642 62.7733 282.213 62.8908 280.938 63.171C276.417 64.1471 274.879 63.171 273.008 64.4725C271.561 65.5029 273.378 68.1783 276.679 69.0822C281.318 70.3566 283.913 69.7239 286.698 70.4199C288.877 70.9622 304.557 75.8431 307.541 76.53C309.114 76.8735 310.317 76.765 312.062 75.0748C313.807 73.3846 326.792 62.0321 326.792 62.0321L324.215 52.3246Z" fill="#FFA8A7"/>
<path d="M324.948 51.7368C323.139 51.2758 312.107 64.3908 312.107 64.3908L318.184 69.4886C318.184 69.4886 326.051 64.3366 327.443 62.2577C328.836 60.1788 330.418 53.1016 324.948 51.7368Z" fill="#0E53BE"/>
<path d="M318.582 69.8321C318.582 69.8321 326.883 62.4024 327.272 61.5889C328.022 60.0252 327.814 57.1329 327.814 57.1329C327.814 57.1329 328.719 59.6456 327.814 61.5889C326.91 63.5322 320.58 69.0548 319.577 70.0038L318.555 70.9619L317.569 70.0581L318.157 69.5429L318.582 69.8321Z" fill="#0E53BE"/>
<path opacity="0.2" d="M318.582 69.8321C318.582 69.8321 326.883 62.4024 327.272 61.5889C328.022 60.0252 327.814 57.1329 327.814 57.1329C327.814 57.1329 328.719 59.6456 327.814 61.5889C326.91 63.5322 320.58 69.0548 319.577 70.0038L318.555 70.9619L317.569 70.0581L318.157 69.5429L318.582 69.8321Z" fill="black"/>
<path d="M276.878 33.045C278.686 32.8462 279.889 31.5085 280.296 31.8791C280.461 32.0546 280.557 32.2837 280.567 32.5243C280.577 32.7649 280.5 33.0011 280.35 33.1897C279.515 33.8233 278.604 34.3487 277.637 34.7533C277.411 35.672 277.247 36.6052 277.149 37.5463C276.995 38.9292 277.049 41.695 275.865 42.635C272.329 45.4731 271.425 40.9719 271.561 37.953C271.769 34.202 274.988 33.2529 276.878 33.045Z" fill="#F28F8F"/>
</g>
<defs>
<clipPath id="clip0_1_1079">
<rect width="388" height="322" fill="white"/>
</clipPath>
</defs>
</svg>
