<svg width="512" height="512" viewBox="0 0 512 512" fill="none" xmlns="http://www.w3.org/2000/svg">
<g clip-path="url(#clip0_496_1130)">
<path d="M252.161 296.463C248.692 294.195 244.041 295.167 241.773 298.636C239.504 302.104 240.476 306.755 243.945 309.024C253.356 315.18 259.795 317.036 268.077 317.515V325.371C268.077 329.516 271.437 332.876 275.582 332.876C279.727 332.876 283.087 329.517 283.087 325.371V316.914C299.635 313.62 309.299 299.953 311.446 287.186C314.212 270.732 305.605 256.426 289.521 250.74C287.406 249.992 285.245 249.209 283.087 248.394V213.761C288.451 215.083 291.644 217.792 291.928 218.04C294.977 220.801 299.687 220.593 302.481 217.565C305.291 214.518 305.1 209.77 302.052 206.961C301.633 206.574 294.602 200.237 283.087 198.475V191.461C283.087 187.316 279.727 183.956 275.582 183.956C271.437 183.956 268.077 187.315 268.077 191.461V199.049C267.012 199.286 265.932 199.557 264.827 199.889C254.229 203.081 246.31 212.15 244.16 223.554C242.199 233.958 245.534 243.993 252.866 249.743C256.724 252.769 261.519 255.541 268.077 258.464V302.483C262.472 302.052 258.554 300.644 252.161 296.463ZM262.129 237.932C259.225 235.654 257.991 231.209 258.911 226.334C259.728 222.003 262.562 216.801 268.078 214.635V241.754C265.843 240.531 263.819 239.259 262.129 237.932ZM284.517 264.89C298.055 269.675 297.221 281.26 296.643 284.698C295.523 291.362 290.907 298.423 283.086 301.301V264.378C283.564 264.549 284.028 264.718 284.517 264.89Z" fill="#0E53BE"/>
<path d="M505.981 387.14C496.015 371.708 476.608 365.746 459.719 372.877L439.553 379.537V369.399C439.553 355.164 427.973 343.584 413.739 343.584C410.358 343.584 407.607 340.833 407.607 337.452V200.049C407.607 172.324 393.276 146.888 369.271 132.009L324.561 104.295V79.864C332.186 74.5642 348.271 60.3496 357.467 30.1954C359.506 23.5106 358.293 16.4595 354.14 10.8496C350.001 5.26271 343.641 2.05731 336.687 2.05731H215.798C208.844 2.05731 202.484 5.26271 198.345 10.8496C194.192 16.4595 192.979 23.5106 195.018 30.1954C204.213 60.3496 220.299 74.5642 227.924 79.864V104.295L183.214 132.009C159.209 146.888 144.878 172.324 144.878 200.049V234.129C144.878 238.273 148.237 241.633 152.383 241.633C156.529 241.633 159.888 238.273 159.888 234.129V200.049C159.888 177.555 171.564 156.89 191.122 144.767L237.479 116.031H315.008L361.365 144.767C380.923 156.889 392.599 177.555 392.599 200.049V337.454C392.599 349.112 402.082 358.594 413.74 358.594C419.698 358.594 424.545 363.442 424.545 369.4V384.495L346.723 410.196C346.968 409.167 347.164 408.117 347.306 407.047C348.416 398.722 346.217 390.465 341.117 383.794C336.065 377.189 328.766 372.922 320.542 371.762C320.542 371.762 196.662 347.279 191.035 347.657C176.364 348.597 164.091 357.487 153.261 365.331C151.971 366.267 150.703 367.185 149.457 368.068C142.398 373.077 135.307 376.017 127.942 377.349V369.4C127.942 363.442 132.79 358.594 138.747 358.594C150.405 358.594 159.888 349.112 159.888 337.454V268.761C159.888 264.616 156.529 261.256 152.383 261.256C148.237 261.256 144.878 264.616 144.878 268.761V337.454C144.878 340.835 142.127 343.586 138.745 343.586C124.512 343.586 112.932 355.166 112.932 369.401V378.006C104.848 377.386 96.3045 375.373 87.0305 372.452V366.63C87.0305 353.994 76.751 343.714 64.115 343.714H22.9165C10.2806 343.713 0 353.993 0 366.629V487.027C0 499.663 10.2806 509.943 22.9165 509.943H64.115C76.751 509.943 87.0305 499.663 87.0305 487.027V477.497L140.481 474.376C140.547 474.372 140.614 474.367 140.681 474.361C152.319 473.369 164.264 474.975 175.226 479.014C232.413 500.078 233.126 500.34 233.126 500.34C244.863 504.663 256.196 506.404 267.228 506.404C290.685 506.404 312.763 498.524 334.336 490.824C339.246 489.071 344.321 487.26 349.326 485.573C369.161 478.891 389.278 472.841 408.183 467.216C412.155 466.035 414.418 461.855 413.236 457.883C412.055 453.91 407.879 451.652 403.903 452.83C384.867 458.493 364.603 464.587 344.533 471.348C339.4 473.078 334.261 474.913 329.29 476.686C298.745 487.589 269.895 497.886 238.308 486.252C237.978 486.131 180.412 464.927 180.412 464.927C167.43 460.147 153.284 458.233 139.503 459.396L87.0285 462.46V388.163C109.027 394.663 133.62 397.707 158.14 380.307C159.424 379.396 160.731 378.449 162.061 377.485C171.243 370.834 181.651 363.296 191.992 362.633C196.737 362.317 224.263 367.98 234.626 370.106C237.645 370.725 317.853 386.53 317.853 386.53C318.005 386.559 318.159 386.584 318.311 386.605C322.662 387.184 326.525 389.423 329.191 392.909C331.856 396.396 333.005 400.711 332.425 405.062C331.228 414.041 322.956 420.376 313.969 419.175C313.902 419.166 313.836 419.158 313.768 419.152L247.488 412.122C243.377 411.684 239.671 414.671 239.234 418.793C238.796 422.914 241.783 426.609 245.905 427.047L312.093 434.068C316.623 434.658 321.055 434.237 325.171 432.996C325.589 432.934 464.725 387.031 464.725 387.031C464.938 386.96 465.148 386.88 465.354 386.791C475.556 382.373 487.339 385.944 493.369 395.283C496.867 400.7 497.89 407.373 496.173 413.59C494.496 419.665 490.351 424.772 484.766 427.665C470.991 432.417 456.109 437.178 436.606 443.075C432.639 444.274 430.395 448.462 431.595 452.43C432.576 455.674 435.554 457.764 438.776 457.764C439.495 457.764 440.227 457.66 440.95 457.441C460.872 451.418 476.046 446.559 490.146 441.687C490.444 441.585 490.735 441.462 491.017 441.323C500.634 436.576 507.786 427.923 510.64 417.585C513.498 407.245 511.798 396.149 505.981 387.14ZM309.553 101.022H242.932V83.2049H309.553V101.022ZM315.034 68.1955H237.454C235.614 67.0133 232.042 64.4302 227.919 59.9472C222.367 53.9117 214.641 43.0903 209.374 25.8168C208.736 23.7284 209.114 21.5286 210.407 19.7814C211.686 18.0562 213.65 17.0657 215.798 17.0657H336.687C338.835 17.0657 340.799 18.0552 342.078 19.7814C343.371 21.5286 343.749 23.7294 343.111 25.8168C337.844 43.0903 330.118 53.9107 324.566 59.9472C320.431 64.4422 316.85 67.0284 315.034 68.1955ZM72.0212 487.027C72.0212 491.387 68.4745 494.933 64.115 494.933H22.9165C18.556 494.933 15.0094 491.387 15.0094 487.027V366.629C15.0094 362.269 18.556 358.723 22.9165 358.723H64.115C68.4745 358.723 72.0212 362.269 72.0212 366.629V487.027Z" fill="#0E53BE"/>
</g>
<defs>
<clipPath id="clip0_496_1130">
<rect width="512" height="512" fill="white"/>
</clipPath>
</defs>
</svg>
