<?xml version="1.0" encoding="UTF-8"?>
<svg width="45px" height="60px" viewBox="0 0 45 60" version="1.1" xmlns="http://www.w3.org/2000/svg" xmlns:xlink="http://www.w3.org/1999/xlink">
    <g id="Page-1" stroke="none" stroke-width="1" fill="none" fill-rule="evenodd">
        <g id="Brand-Logo" transform="translate(-769.000000, -5334.000000)" fill="#232629" fill-rule="nonzero">
            <path d="M784.533105,5382.76162 C785.195531,5383.27562 786.064411,5383.70196 787.040972,5383.90583 C788.250316,5384.1583 789.698251,5383.99822 790.818447,5383.01241 C795.448393,5386.32514 795.728365,5390.54443 795.739735,5393.78975 L795.740138,5394 L776.445232,5394 C776.502815,5389.78332 778.36128,5385.4705 784.533105,5382.76162 Z M790.770027,5349.86111 C790.425689,5351.93334 789.877434,5354.0758 789.106077,5356.18542 L789.094607,5356.21564 C789.22616,5356.09152 789.357748,5355.97119 789.488694,5355.85563 L789.467,5355.917 L789.676499,5355.31266 C790.284205,5353.48777 790.729988,5351.64919 791.024985,5349.86138 L793.407175,5349.86108 C791.663383,5351.66717 790.463667,5353.63503 790.231763,5355.25133 L790.328365,5355.17863 L790.521322,5355.04513 C790.83325,5353.48427 792.043912,5351.59188 793.758797,5349.86112 L811.160691,5349.86153 C812.252987,5349.86153 813.138469,5350.74701 813.138469,5351.83931 L813.138469,5392.02222 C813.138469,5393.11452 812.252987,5394 811.160691,5394 L796.398453,5394 C796.435552,5391.96994 796.152885,5384.67439 790.312124,5381.90776 C790.046743,5378.9771 791.925312,5377.63296 795.053328,5377.31758 C793.242019,5376.18951 791.172765,5376.15689 789.031592,5376.33521 C788.584056,5376.37248 788.874213,5375.91201 789.125637,5375.91201 C791.371683,5375.68551 793.542272,5375.78156 795.52458,5376.93093 L795.806474,5377.10237 L795.755812,5377.18161 L795.686116,5377.26856 C796.51309,5377.22265 797.415364,5377.23949 798.378712,5377.31019 C804.526105,5377.76139 812.4589,5376.30607 812.4589,5370.46935 C812.086532,5367.64103 809.48957,5365.37478 805.311706,5362.75573 C805.314361,5362.66069 805.314792,5362.56218 805.313078,5362.46072 L805.305876,5362.39786 C804.585882,5359.04077 802.132979,5354.70201 800.928458,5354.58905 L800.877024,5354.5883 C799.883377,5354.65241 799.243605,5355.00616 798.40448,5355.80661 L798.219283,5355.98673 L798.196373,5356.07329 L798.175512,5356.16377 C797.134961,5355.01017 796.066904,5354.40916 794.956429,5354.2503 C793.668894,5354.06611 792.293271,5354.47619 790.849796,5355.42586 C789.40632,5356.37553 787.829539,5357.94643 786.155381,5359.61087 C786.672787,5358.86777 787.423484,5357.94019 788.235294,5357.0782 L788.541,5356.759 L788.385892,5356.78165 C782.634243,5357.67537 781.636767,5362.77984 782.140004,5364.65795 C783.767821,5370.44071 784.56605,5374.44311 784.674629,5380.83663 L785.019004,5380.8337 C773.788521,5380.8337 772.814984,5391.82872 772.730453,5394 L770.977778,5394 C769.885481,5394 769,5393.11452 769,5392.02222 L769,5351.83931 C769,5350.74701 769.885481,5349.86153 770.977778,5349.86153 L790.770027,5349.86111 Z M784.171616,5381.09747 L784.486268,5381.10016 C784.487791,5381.12637 784.48692,5381.15169 784.487823,5381.17852 C784.539145,5381.57023 781.036656,5381.94722 779.712845,5383.06291 C776.792753,5385.52394 776.048332,5387.17498 775.352663,5387.02159 C774.94912,5386.81844 778.413029,5381.36189 783.861127,5381.10632 L784.171616,5381.09747 Z M799.712267,5364.79925 C799.712267,5367.62603 794.136565,5368.90483 791.689213,5366.66989 C791.308013,5366.28869 790.619508,5363.85089 790.492034,5361.93658 C790.303913,5359.11152 791.101867,5357.10936 793.179556,5356.51722 C795.857035,5355.75413 799.712267,5361.46188 799.712267,5364.79925 Z M793.282662,5356.87899 C791.419927,5357.40987 790.689632,5359.24226 790.867383,5361.91158 C790.989243,5363.74159 791.656903,5366.10558 791.949041,5366.39799 C794.176649,5368.43202 799.336087,5367.24869 799.336087,5364.79925 C799.336087,5361.67337 795.643345,5356.20619 793.282662,5356.87899 Z M800.888037,5355.24141 L800.90898,5355.24537 C801.733602,5355.44744 803.939982,5359.35923 804.633805,5362.3792 L804.660873,5362.50319 L804.661126,5362.47173 C804.682561,5363.74107 804.387456,5364.25102 803.89197,5364.2363 C803.353508,5364.22031 802.528295,5363.67266 801.662702,5362.74434 L801.536823,5362.60716 C799.744763,5360.62281 798.485442,5357.8778 798.802054,5356.34507 L798.807009,5356.32431 L798.785,5356.345 L798.910991,5356.22494 C799.579797,5355.59677 800.072946,5355.32037 800.793468,5355.24919 L800.888037,5355.24141 Z M794.649563,5357.25282 C795.744648,5357.44737 796.408211,5358.86696 796.131672,5360.42357 C795.855133,5361.98018 794.743212,5363.08435 793.648127,5362.8898 C792.553042,5362.69525 791.889479,5361.27566 792.166018,5359.71905 C792.442557,5358.16244 793.554478,5357.05827 794.649563,5357.25282 Z M794.061972,5361.28007 C793.945708,5361.28386 793.838289,5361.34829 793.780197,5361.44908 C793.722106,5361.54986 793.722173,5361.67167 793.780374,5361.76861 C793.83849,5361.8656 793.945925,5361.92301 794.062189,5361.91922 C794.178453,5361.91542 794.285872,5361.85099 794.343964,5361.75021 C794.402055,5361.64943 794.401988,5361.52761 794.343787,5361.43068 C794.285671,5361.33369 794.178236,5361.27627 794.061972,5361.28007 Z M794.088943,5358.18345 C793.839782,5358.26565 793.588563,5358.51865 793.429965,5358.8471 C793.271197,5359.17546 793.2291,5359.5295 793.319538,5359.77579 C793.409977,5360.02208 793.619204,5360.12318 793.868365,5360.04098 C794.117526,5359.95878 794.368746,5359.70579 794.527344,5359.37734 C794.686111,5359.04897 794.728209,5358.69493 794.63777,5358.44864 C794.547331,5358.20235 794.338104,5358.10125 794.088943,5358.18345 Z M787.68406,5334.10526 C787.926991,5334.2456 788.076535,5334.50494 788.076308,5334.7855 C788.07636,5334.85043 788.068391,5334.91422 788.053098,5334.97567 C790.976083,5336.39021 792.203196,5342.7209 791.024985,5349.86138 L790.770027,5349.86111 C791.94232,5342.8062 790.751093,5336.56522 787.953322,5335.20496 C787.887724,5335.31151 787.795765,5335.40121 787.68406,5335.46574 C787.441129,5335.60609 787.14176,5335.60609 786.898829,5335.46574 C786.655898,5335.3254 786.506354,5335.06606 786.506581,5334.7855 C786.506354,5334.50494 786.655898,5334.2456 786.898829,5334.10526 C787.14176,5333.96491 787.441129,5333.96491 787.68406,5334.10526 Z M804.898005,5345.80496 L804.963976,5345.76126 C805.206907,5345.62092 805.506276,5345.62092 805.749207,5345.76126 C805.992138,5345.90161 806.141682,5346.16095 806.141455,5346.4415 C806.141682,5346.72206 805.992138,5346.9814 805.749207,5347.12175 C805.506276,5347.26209 805.206907,5347.26209 804.963976,5347.12175 C804.721045,5346.9814 804.571501,5346.72206 804.571728,5346.4415 C804.571594,5346.27523 804.624063,5346.11641 804.7174,5345.9854 C802.859401,5344.56493 799.683667,5345.29423 796.34932,5347.66406 C795.407417,5348.33351 794.531872,5349.08089 793.758797,5349.86112 L793.407175,5349.86108 C794.232548,5349.00622 795.179812,5348.1876 796.204034,5347.45965 C799.63382,5345.02198 802.935957,5344.27077 804.898005,5345.80496 Z" id="ic-technology-bugzilla"></path>
        </g>
    </g>
</svg>