<svg width="1000" height="746" viewBox="0 0 1000 746" fill="none" xmlns="http://www.w3.org/2000/svg">
<path d="M1000 654.8H0V655.3H1000V654.8Z" fill="#EBEBEB"/>
<path d="M171.16 673.84H104.92V674.34H171.16V673.84Z" fill="#EBEBEB"/>
<path d="M450 674.1H342.28V674.6H450V674.1Z" fill="#EBEBEB"/>
<path d="M249.92 684.16H211.54V684.66H249.92V684.16Z" fill="#EBEBEB"/>
<path d="M892 683.92H853.54V684.42H892V683.92Z" fill="#EBEBEB"/>
<path d="M835.72 683.92H775.14V684.42H835.72V683.92Z" fill="#EBEBEB"/>
<path d="M741.78 680.62H656.66V681.12H741.78V680.62Z" fill="#EBEBEB"/>
<path d="M906.62 565.6H520.42C517.393 565.595 514.491 564.39 512.351 562.249C510.21 560.109 509.005 557.207 509 554.18V11.32C509.032 8.31023 510.248 5.43415 512.386 3.31519C514.523 1.19622 517.41 0.00509658 520.42 0H906.62C909.625 0.010409 912.504 1.2045 914.634 3.32346C916.764 5.44241 917.974 8.3155 918 11.32V554.18C918 557.202 916.802 560.101 914.669 562.241C912.536 564.382 909.642 565.589 906.62 565.6V565.6ZM520.42 0.400002C517.525 0.405288 514.751 1.55748 512.704 3.60423C510.657 5.65099 509.505 8.42546 509.5 11.32V554.18C509.505 557.075 510.657 559.849 512.704 561.896C514.751 563.943 517.525 565.095 520.42 565.1H906.62C909.515 565.095 912.289 563.943 914.336 561.896C916.383 559.849 917.535 557.075 917.54 554.18V11.32C917.535 8.42546 916.383 5.65099 914.336 3.60423C912.289 1.55748 909.515 0.405288 906.62 0.400002H520.42Z" fill="#EBEBEB"/>
<path d="M604.44 654.8H661.08V373H604.44V654.8Z" fill="#E6E6E6"/>
<path d="M615.18 654.8H604.42V624.2H626.46L615.18 654.8Z" fill="#F0F0F0"/>
<path d="M816.12 654.8H872.76V373H816.12V654.8Z" fill="#E6E6E6"/>
<path d="M604.44 636.02H825.52V373H604.44V636.02Z" fill="#F0F0F0"/>
<path d="M612.78 546.62V597.76H711.36V546.62H612.78Z" fill="#E6E6E6"/>
<path d="M718.58 546.62V597.76H817.16V546.62H718.58Z" fill="#E6E6E6"/>
<path d="M758.12 555.18H777.62C781.813 555.183 785.963 554.329 789.815 552.671C793.666 551.014 797.139 548.587 800.02 545.54H735.72C738.601 548.587 742.074 551.014 745.925 552.671C749.777 554.329 753.927 555.183 758.12 555.18V555.18Z" fill="#F0F0F0"/>
<path d="M651.32 555.18H670.82C675.013 555.183 679.163 554.329 683.015 552.671C686.866 551.014 690.339 548.587 693.22 545.54H628.92C631.801 548.587 635.273 551.014 639.125 552.671C642.977 554.329 647.127 555.183 651.32 555.18V555.18Z" fill="#F0F0F0"/>
<path d="M612.76 467.12V518.26H711.34V467.12H612.76Z" fill="#E6E6E6"/>
<path d="M718.58 467.14V518.28H817.16V467.14H718.58Z" fill="#E6E6E6"/>
<path d="M758.12 475.68H777.62C781.812 475.671 785.959 474.808 789.807 473.144C793.654 471.48 797.123 469.049 800 466H735.72C738.6 469.051 742.071 471.484 745.923 473.148C749.774 474.812 753.924 475.674 758.12 475.68V475.68Z" fill="#F0F0F0"/>
<path d="M651.32 475.68H670.82C675.011 475.682 679.159 474.83 683.01 473.176C686.861 471.522 690.335 469.101 693.22 466.06H628.92C631.805 469.101 635.279 471.522 639.13 473.176C642.981 474.83 647.129 475.682 651.32 475.68V475.68Z" fill="#F0F0F0"/>
<path d="M612.78 387.64V438.78H711.36V387.64H612.78Z" fill="#E6E6E6"/>
<path d="M718.58 387.64V438.78H817.16V387.64H718.58Z" fill="#E6E6E6"/>
<path d="M758.12 396.2H777.62C781.813 396.203 785.963 395.349 789.815 393.691C793.666 392.034 797.139 389.607 800.02 386.56H735.72C738.601 389.607 742.074 392.034 745.925 393.691C749.777 395.349 753.927 396.203 758.12 396.2V396.2Z" fill="#F0F0F0"/>
<path d="M651.32 396.2H670.82C675.013 396.203 679.163 395.349 683.015 393.691C686.866 392.034 690.339 389.607 693.22 386.56H628.92C631.801 389.607 635.273 392.034 639.125 393.691C642.977 395.349 647.127 396.203 651.32 396.2V396.2Z" fill="#F0F0F0"/>
<path d="M814.76 654.8H825.52V624.2H803.48L814.76 654.8Z" fill="#F0F0F0"/>
<path d="M824.08 179.54L832.74 203.22H824.08L770.94 179.54H824.08Z" fill="#F5F5F5"/>
<path d="M832.74 179.54V203.22L779.62 179.54H832.74Z" fill="#E6E6E6"/>
<path d="M615.74 179.54L624.4 203.22H615.74L562.62 179.54H615.74Z" fill="#F5F5F5"/>
<path d="M624.4 179.54V203.22L571.28 179.54H624.4Z" fill="#E6E6E6"/>
<path d="M871.74 162.62H813.96V180.64H871.74V162.62Z" fill="#E6E6E6"/>
<path d="M526.7 180.66L813.96 180.66V162.64L526.7 162.64V180.66Z" fill="#F5F5F5"/>
<path d="M755.62 100C755.62 100 756.2 162.64 777.82 162.64C799.44 162.64 800 100 800 100H755.62Z" fill="#F0F0F0"/>
<path d="M621.56 142.2C621.56 142.2 623.08 162.62 681.24 162.62C739.4 162.62 740.92 142.2 740.92 142.2H621.56Z" fill="#F0F0F0"/>
<path d="M448.72 654.8H452.58L463.64 600.3L465.64 590.74L477.64 531.34H524L549.06 654.8H552.94L527.4 529.08C527.316 528.649 527.084 528.262 526.744 527.984C526.405 527.707 525.979 527.557 525.54 527.56H476.1C475.664 527.557 475.24 527.708 474.904 527.986C474.568 528.264 474.34 528.651 474.26 529.08L463.66 581.24L461.66 590.78L448.72 654.8Z" fill="#F0F0F0"/>
<path d="M374.46 654.8H378.32L403.4 531.34H449.64L461.64 590.78L463.64 600.3L474.72 654.8H478.58L465.58 590.8L463.58 581.3L452.98 529.14C452.876 528.719 452.639 528.344 452.304 528.07C451.968 527.796 451.553 527.638 451.12 527.62H401.86C401.421 527.617 400.995 527.767 400.656 528.044C400.316 528.322 400.084 528.709 400 529.14L374.46 654.8Z" fill="#F0F0F0"/>
<path d="M530.92 513.16H396.38C393.295 513.165 390.337 514.393 388.155 516.575C385.973 518.757 384.745 521.714 384.74 524.8V525.2C384.74 526.33 385.189 527.413 385.988 528.212C386.787 529.011 387.87 529.46 389 529.46H538.3C539.43 529.46 540.513 529.011 541.312 528.212C542.111 527.413 542.56 526.33 542.56 525.2V524.8C542.555 521.714 541.327 518.757 539.145 516.575C536.963 514.393 534.005 513.165 530.92 513.16Z" fill="#F0F0F0"/>
<path d="M313.7 654.8H317.56L328.62 600.3L330.62 590.74L342.62 531.34H388.86L414 654.8H417.88L392.34 529.08C392.256 528.649 392.024 528.262 391.684 527.984C391.345 527.707 390.919 527.557 390.48 527.56H341.08C340.644 527.557 340.22 527.708 339.884 527.986C339.548 528.264 339.32 528.651 339.24 529.08L328.64 581.24L326.64 590.78L313.7 654.8Z" fill="#F0F0F0"/>
<path d="M239.44 654.8H243.32L268.38 531.34H314.64L326.64 590.78L328.64 600.3L339.72 654.8H343.58L330.58 590.8L328.58 581.3L318 529.08C317.896 528.659 317.659 528.284 317.324 528.01C316.988 527.736 316.573 527.578 316.14 527.56H266.84C266.401 527.557 265.975 527.707 265.636 527.984C265.296 528.262 265.064 528.649 264.98 529.08L239.44 654.8Z" fill="#F0F0F0"/>
<path d="M396 513.16H261.36C258.274 513.165 255.317 514.393 253.135 516.575C250.953 518.757 249.725 521.714 249.72 524.8V525.2C249.72 526.33 250.169 527.413 250.968 528.212C251.767 529.011 252.85 529.46 253.98 529.46H403.3C403.858 529.46 404.411 529.35 404.927 529.135C405.443 528.921 405.911 528.607 406.305 528.211C406.699 527.815 407.011 527.345 407.223 526.829C407.435 526.312 407.543 525.758 407.54 525.2V524.8C407.535 521.732 406.321 518.789 404.16 516.61C402 514.431 399.068 513.192 396 513.16V513.16Z" fill="#F0F0F0"/>
<path d="M168.66 355.2H361.96L361.96 45.54H168.66L168.66 355.2Z" fill="#E6E6E6"/>
<path d="M156.04 355.2H356.06L356.06 45.54H156.04L156.04 355.2Z" fill="#F0F0F0"/>
<path d="M168.66 378.66H361.96V355.18H168.66V378.66Z" fill="#E6E6E6"/>
<path d="M135 378.66H335.02V355.18H135V378.66Z" fill="#F0F0F0"/>
<path d="M338.36 337.52V63.22L173.7 63.22L173.7 337.52H338.36Z" fill="#FAFAFA"/>
<path d="M339.78 337.5L281.86 63.22H232.86L290.78 337.5H339.78Z" fill="white"/>
<path d="M326.44 304.74C326.774 304.74 327.095 304.607 327.331 304.371C327.567 304.135 327.7 303.814 327.7 303.48V74.72C327.7 74.3858 327.567 74.0653 327.331 73.829C327.095 73.5927 326.774 73.46 326.44 73.46C326.106 73.46 325.785 73.5927 325.549 73.829C325.313 74.0653 325.18 74.3858 325.18 74.72V303.48C325.18 303.814 325.313 304.135 325.549 304.371C325.785 304.607 326.106 304.74 326.44 304.74V304.74Z" fill="#F0F0F0"/>
<path d="M280.26 337.5L222.34 63.22H203.24L261.14 337.5H280.26Z" fill="white"/>
<path d="M175.96 337.52L175.96 63.22H173.72L173.72 337.52H175.96Z" fill="#E6E6E6"/>
<path opacity="0.6" d="M151.84 76.8H345.14L346.78 70.08H153.48L151.84 76.8Z" fill="#F0F0F0"/>
<path opacity="0.6" d="M151.84 92.42H345.14L346.78 85.72H153.48L151.84 92.42Z" fill="#F0F0F0"/>
<path opacity="0.6" d="M151.84 108.06H345.14L346.78 101.34H153.48L151.84 108.06Z" fill="#F0F0F0"/>
<path opacity="0.6" d="M151.84 123.68H345.14L346.78 116.98H153.48L151.84 123.68Z" fill="#F0F0F0"/>
<path opacity="0.6" d="M151.84 139.32H345.14L346.78 132.62H153.48L151.84 139.32Z" fill="#F0F0F0"/>
<path opacity="0.6" d="M151.84 154.96H345.14L346.78 148.24H153.48L151.84 154.96Z" fill="#F0F0F0"/>
<path d="M500 745.12C714.165 745.12 887.78 734.984 887.78 722.48C887.78 709.976 714.165 699.84 500 699.84C285.835 699.84 112.22 709.976 112.22 722.48C112.22 734.984 285.835 745.12 500 745.12Z" fill="#F5F5F5"/>
<path d="M486.24 415.46H364.06C362.337 415.46 360.94 416.857 360.94 418.58V469.54C360.94 471.263 362.337 472.66 364.06 472.66H486.24C487.963 472.66 489.36 471.263 489.36 469.54V418.58C489.36 416.857 487.963 415.46 486.24 415.46Z" fill="#407BFF"/>
<path opacity="0.6" d="M486.24 415.46H364.06C362.337 415.46 360.94 416.857 360.94 418.58V469.54C360.94 471.263 362.337 472.66 364.06 472.66H486.24C487.963 472.66 489.36 471.263 489.36 469.54V418.58C489.36 416.857 487.963 415.46 486.24 415.46Z" fill="white"/>
<path opacity="0.1" d="M486.22 415.46H364C363.172 415.46 362.379 415.789 361.794 416.374C361.209 416.959 360.88 417.753 360.88 418.58V434.92L424.48 447.44C424.869 447.52 425.271 447.52 425.66 447.44L489.28 434.92V418.58C489.28 417.763 488.96 416.978 488.387 416.395C487.815 415.811 487.037 415.476 486.22 415.46V415.46Z" fill="black"/>
<path d="M488.9 394.54H451.58V388.28C451.575 385.693 450.545 383.214 448.716 381.384C446.886 379.555 444.407 378.525 441.82 378.52H408.48C405.893 378.525 403.414 379.555 401.585 381.384C399.755 383.214 398.725 385.693 398.72 388.28V394.54H361.42C360.603 394.54 359.82 394.864 359.242 395.442C358.665 396.02 358.34 396.803 358.34 397.62V428.44C358.344 429.152 358.593 429.84 359.044 430.39C359.496 430.94 360.123 431.318 360.82 431.46L424.56 444C424.951 444.06 425.349 444.06 425.74 444L489.48 431.46C490.179 431.318 490.809 430.941 491.264 430.392C491.719 429.842 491.971 429.153 491.98 428.44V397.62C491.98 396.803 491.656 396.02 491.078 395.442C490.5 394.864 489.717 394.54 488.9 394.54V394.54ZM406.14 388.28C406.145 387.659 406.393 387.065 406.83 386.624C407.267 386.183 407.859 385.93 408.48 385.92H441.82C442.441 385.93 443.033 386.183 443.47 386.624C443.907 387.065 444.155 387.659 444.16 388.28V394.54H406.16L406.14 388.28Z" fill="#407BFF"/>
<path opacity="0.6" d="M488.9 394.54H451.58V388.28C451.575 385.693 450.545 383.214 448.716 381.384C446.886 379.555 444.407 378.525 441.82 378.52H408.48C405.893 378.525 403.414 379.555 401.585 381.384C399.755 383.214 398.725 385.693 398.72 388.28V394.54H361.42C360.603 394.54 359.82 394.864 359.242 395.442C358.665 396.02 358.34 396.803 358.34 397.62V428.44C358.344 429.152 358.593 429.84 359.044 430.39C359.496 430.94 360.123 431.318 360.82 431.46L424.56 444C424.951 444.06 425.349 444.06 425.74 444L489.48 431.46C490.179 431.318 490.809 430.941 491.264 430.392C491.719 429.842 491.971 429.153 491.98 428.44V397.62C491.98 396.803 491.656 396.02 491.078 395.442C490.5 394.864 489.717 394.54 488.9 394.54V394.54ZM406.14 388.28C406.145 387.659 406.393 387.065 406.83 386.624C407.267 386.183 407.859 385.93 408.48 385.92H441.82C442.441 385.93 443.033 386.183 443.47 386.624C443.907 387.065 444.155 387.659 444.16 388.28V394.54H406.16L406.14 388.28Z" fill="white"/>
<path d="M431.74 435.58H418.58C416.945 435.58 415.62 436.905 415.62 438.54V446.86C415.62 448.495 416.945 449.82 418.58 449.82H431.74C433.375 449.82 434.7 448.495 434.7 446.86V438.54C434.7 436.905 433.375 435.58 431.74 435.58Z" fill="#407BFF"/>
<path opacity="0.3" d="M431.74 435.58H418.58C416.945 435.58 415.62 436.905 415.62 438.54V446.86C415.62 448.495 416.945 449.82 418.58 449.82H431.74C433.375 449.82 434.7 448.495 434.7 446.86V438.54C434.7 436.905 433.375 435.58 431.74 435.58Z" fill="white"/>
<path d="M486.24 47.54H364.06C362.337 47.54 360.94 48.9369 360.94 50.66V101.62C360.94 103.343 362.337 104.74 364.06 104.74H486.24C487.963 104.74 489.36 103.343 489.36 101.62V50.66C489.36 48.9369 487.963 47.54 486.24 47.54Z" fill="#407BFF"/>
<path opacity="0.6" d="M486.24 47.54H364.06C362.337 47.54 360.94 48.9369 360.94 50.66V101.62C360.94 103.343 362.337 104.74 364.06 104.74H486.24C487.963 104.74 489.36 103.343 489.36 101.62V50.66C489.36 48.9369 487.963 47.54 486.24 47.54Z" fill="white"/>
<path opacity="0.1" d="M486.22 47.54H364C363.172 47.54 362.379 47.8687 361.794 48.4538C361.209 49.039 360.88 49.8325 360.88 50.66V67L424.48 79.52C424.869 79.5998 425.271 79.5998 425.66 79.52L489.28 67V50.66C489.28 49.8428 488.96 49.0582 488.387 48.4748C487.815 47.8914 487.037 47.5557 486.22 47.54V47.54Z" fill="black"/>
<path d="M488.9 26.62H451.58V20.36C451.575 17.7731 450.545 15.2937 448.716 13.4645C446.886 11.6353 444.407 10.6053 441.82 10.6H408.48C405.893 10.6053 403.414 11.6353 401.585 13.4645C399.755 15.2937 398.725 17.7731 398.72 20.36V26.62H361.42C360.603 26.62 359.82 26.9445 359.242 27.5221C358.665 28.0997 358.34 28.8831 358.34 29.7V60.52C358.34 61.2326 358.588 61.923 359.04 62.4737C359.492 63.0243 360.121 63.4012 360.82 63.54L424.56 76C424.949 76.0798 425.351 76.0798 425.74 76L489.48 63.46C490.171 63.3288 490.798 62.9662 491.256 62.4319C491.714 61.8976 491.976 61.2233 492 60.52V29.7C492 29.2938 491.92 28.8917 491.764 28.5167C491.608 28.1417 491.379 27.8013 491.091 27.515C490.803 27.2288 490.461 27.0023 490.085 26.8487C489.709 26.6951 489.306 26.6174 488.9 26.62V26.62ZM406.14 20.36C406.14 19.7375 406.386 19.1403 406.824 18.6983C407.262 18.2562 407.858 18.0053 408.48 18H441.82C442.439 18.0052 443.031 18.2534 443.469 18.6912C443.907 19.1289 444.155 19.721 444.16 20.34V26.6H406.16L406.14 20.36Z" fill="#407BFF"/>
<path opacity="0.6" d="M488.9 26.62H451.58V20.36C451.575 17.7731 450.545 15.2937 448.716 13.4645C446.886 11.6353 444.407 10.6053 441.82 10.6H408.48C405.893 10.6053 403.414 11.6353 401.585 13.4645C399.755 15.2937 398.725 17.7731 398.72 20.36V26.62H361.42C360.603 26.62 359.82 26.9445 359.242 27.5221C358.665 28.0997 358.34 28.8831 358.34 29.7V60.52C358.34 61.2326 358.588 61.923 359.04 62.4737C359.492 63.0243 360.121 63.4012 360.82 63.54L424.56 76C424.949 76.0798 425.351 76.0798 425.74 76L489.48 63.46C490.171 63.3288 490.798 62.9662 491.256 62.4319C491.714 61.8976 491.976 61.2233 492 60.52V29.7C492 29.2938 491.92 28.8917 491.764 28.5167C491.608 28.1417 491.379 27.8013 491.091 27.515C490.803 27.2288 490.461 27.0023 490.085 26.8487C489.709 26.6951 489.306 26.6174 488.9 26.62V26.62ZM406.14 20.36C406.14 19.7375 406.386 19.1403 406.824 18.6983C407.262 18.2562 407.858 18.0053 408.48 18H441.82C442.439 18.0052 443.031 18.2534 443.469 18.6912C443.907 19.1289 444.155 19.721 444.16 20.34V26.6H406.16L406.14 20.36Z" fill="white"/>
<path d="M431.74 67.68H418.58C416.945 67.68 415.62 69.0052 415.62 70.64V78.96C415.62 80.5948 416.945 81.92 418.58 81.92H431.74C433.375 81.92 434.7 80.5948 434.7 78.96V70.64C434.7 69.0052 433.375 67.68 431.74 67.68Z" fill="#407BFF"/>
<path opacity="0.3" d="M431.74 67.68H418.58C416.945 67.68 415.62 69.0052 415.62 70.64V78.96C415.62 80.5948 416.945 81.92 418.58 81.92H431.74C433.375 81.92 434.7 80.5948 434.7 78.96V70.64C434.7 69.0052 433.375 67.68 431.74 67.68Z" fill="white"/>
<path d="M295.92 415.46H173.74C172.017 415.46 170.62 416.857 170.62 418.58V469.54C170.62 471.263 172.017 472.66 173.74 472.66H295.92C297.643 472.66 299.04 471.263 299.04 469.54V418.58C299.04 416.857 297.643 415.46 295.92 415.46Z" fill="#407BFF"/>
<path opacity="0.6" d="M295.92 415.46H173.74C172.017 415.46 170.62 416.857 170.62 418.58V469.54C170.62 471.263 172.017 472.66 173.74 472.66H295.92C297.643 472.66 299.04 471.263 299.04 469.54V418.58C299.04 416.857 297.643 415.46 295.92 415.46Z" fill="white"/>
<path opacity="0.1" d="M296 415.46H173.74C172.913 415.46 172.119 415.789 171.534 416.374C170.949 416.959 170.62 417.753 170.62 418.58V434.92L234.22 447.44C234.616 447.52 235.024 447.52 235.42 447.44L299.04 434.92V418.58C299.04 417.766 298.723 416.984 298.155 416.402C297.587 415.819 296.814 415.481 296 415.46Z" fill="black"/>
<path d="M298.56 394.54H261.24V388.28C261.235 385.693 260.205 383.214 258.376 381.384C256.546 379.555 254.067 378.525 251.48 378.52H218.16C215.573 378.525 213.094 379.555 211.264 381.384C209.435 383.214 208.405 385.693 208.4 388.28V394.54H171.08C170.263 394.54 169.48 394.864 168.902 395.442C168.325 396.02 168 396.803 168 397.62V428.44C168.004 429.152 168.253 429.84 168.704 430.39C169.156 430.94 169.783 431.318 170.48 431.46L234.22 444C234.618 444.06 235.022 444.06 235.42 444L299.16 431.46C299.857 431.318 300.484 430.94 300.936 430.39C301.387 429.84 301.636 429.152 301.64 428.44V397.62C301.64 396.803 301.315 396.02 300.738 395.442C300.16 394.864 299.377 394.54 298.56 394.54V394.54ZM215.8 388.28C215.81 387.657 216.062 387.063 216.503 386.623C216.943 386.182 217.537 385.93 218.16 385.92H251.48C252.103 385.93 252.697 386.182 253.137 386.623C253.578 387.063 253.83 387.657 253.84 388.28V394.54H215.84L215.8 388.28Z" fill="#407BFF"/>
<path opacity="0.6" d="M298.56 394.54H261.24V388.28C261.235 385.693 260.205 383.214 258.376 381.384C256.546 379.555 254.067 378.525 251.48 378.52H218.16C215.573 378.525 213.094 379.555 211.264 381.384C209.435 383.214 208.405 385.693 208.4 388.28V394.54H171.08C170.263 394.54 169.48 394.864 168.902 395.442C168.325 396.02 168 396.803 168 397.62V428.44C168.004 429.152 168.253 429.84 168.704 430.39C169.156 430.94 169.783 431.318 170.48 431.46L234.22 444C234.618 444.06 235.022 444.06 235.42 444L299.16 431.46C299.857 431.318 300.484 430.94 300.936 430.39C301.387 429.84 301.636 429.152 301.64 428.44V397.62C301.64 396.803 301.315 396.02 300.738 395.442C300.16 394.864 299.377 394.54 298.56 394.54V394.54ZM215.8 388.28C215.81 387.657 216.062 387.063 216.503 386.623C216.943 386.182 217.537 385.93 218.16 385.92H251.48C252.103 385.93 252.697 386.182 253.137 386.623C253.578 387.063 253.83 387.657 253.84 388.28V394.54H215.84L215.8 388.28Z" fill="white"/>
<path d="M241.4 435.58H228.24C226.605 435.58 225.28 436.905 225.28 438.54V446.86C225.28 448.495 226.605 449.82 228.24 449.82H241.4C243.035 449.82 244.36 448.495 244.36 446.86V438.54C244.36 436.905 243.035 435.58 241.4 435.58Z" fill="#407BFF"/>
<path opacity="0.3" d="M241.4 435.58H228.24C226.605 435.58 225.28 436.905 225.28 438.54V446.86C225.28 448.495 226.605 449.82 228.24 449.82H241.4C243.035 449.82 244.36 448.495 244.36 446.86V438.54C244.36 436.905 243.035 435.58 241.4 435.58Z" fill="white"/>
<path d="M295.92 47.54H173.74C172.017 47.54 170.62 48.9369 170.62 50.66V101.62C170.62 103.343 172.017 104.74 173.74 104.74H295.92C297.643 104.74 299.04 103.343 299.04 101.62V50.66C299.04 48.9369 297.643 47.54 295.92 47.54Z" fill="#407BFF"/>
<path opacity="0.6" d="M295.92 47.54H173.74C172.017 47.54 170.62 48.9369 170.62 50.66V101.62C170.62 103.343 172.017 104.74 173.74 104.74H295.92C297.643 104.74 299.04 103.343 299.04 101.62V50.66C299.04 48.9369 297.643 47.54 295.92 47.54Z" fill="white"/>
<path opacity="0.1" d="M296 47.54H173.74C172.913 47.54 172.119 47.8687 171.534 48.4538C170.949 49.039 170.62 49.8325 170.62 50.66V67L234.22 79.52C234.616 79.6003 235.024 79.6003 235.42 79.52L299.04 67V50.66C299.04 49.8462 298.723 49.0645 298.155 48.4817C297.587 47.8988 296.814 47.5609 296 47.54V47.54Z" fill="black"/>
<path d="M298.56 26.6199H261.24V20.3599C261.235 17.773 260.205 15.2936 258.376 13.4644C256.546 11.6352 254.067 10.6052 251.48 10.5999H218.16C215.573 10.6052 213.094 11.6352 211.264 13.4644C209.435 15.2936 208.405 17.773 208.4 20.3599V26.6199H171.08C170.263 26.6199 169.48 26.9444 168.902 27.522C168.325 28.0996 168 28.883 168 29.6999V60.5199C168 61.2325 168.248 61.9229 168.7 62.4736C169.152 63.0243 169.781 63.4011 170.48 63.5399L234.22 75.9999C234.616 76.0802 235.024 76.0802 235.42 75.9999L299.16 63.4599C299.859 63.3211 300.488 62.9443 300.94 62.3936C301.392 61.8429 301.64 61.1525 301.64 60.4399V29.6999C301.64 28.883 301.315 28.0996 300.738 27.522C300.16 26.9444 299.377 26.6199 298.56 26.6199V26.6199ZM215.8 20.3599C215.805 19.7356 216.056 19.1384 216.497 18.6969C216.938 18.2555 217.536 18.0051 218.16 17.9999H251.48C252.101 18.005 252.695 18.2526 253.136 18.6898C253.577 19.1269 253.83 19.7191 253.84 20.3399V26.5999H215.84L215.8 20.3599Z" fill="#407BFF"/>
<path opacity="0.6" d="M298.56 26.6199H261.24V20.3599C261.235 17.773 260.205 15.2936 258.376 13.4644C256.546 11.6352 254.067 10.6052 251.48 10.5999H218.16C215.573 10.6052 213.094 11.6352 211.264 13.4644C209.435 15.2936 208.405 17.773 208.4 20.3599V26.6199H171.08C170.263 26.6199 169.48 26.9444 168.902 27.522C168.325 28.0996 168 28.883 168 29.6999V60.5199C168 61.2325 168.248 61.9229 168.7 62.4736C169.152 63.0243 169.781 63.4011 170.48 63.5399L234.22 75.9999C234.616 76.0802 235.024 76.0802 235.42 75.9999L299.16 63.4599C299.859 63.3211 300.488 62.9443 300.94 62.3936C301.392 61.8429 301.64 61.1525 301.64 60.4399V29.6999C301.64 28.883 301.315 28.0996 300.738 27.522C300.16 26.9444 299.377 26.6199 298.56 26.6199V26.6199ZM215.8 20.3599C215.805 19.7356 216.056 19.1384 216.497 18.6969C216.938 18.2555 217.536 18.0051 218.16 17.9999H251.48C252.101 18.005 252.695 18.2526 253.136 18.6898C253.577 19.1269 253.83 19.7191 253.84 20.3399V26.5999H215.84L215.8 20.3599Z" fill="white"/>
<path d="M241.4 67.68H228.24C226.605 67.68 225.28 69.0052 225.28 70.64V78.96C225.28 80.5948 226.605 81.92 228.24 81.92H241.4C243.035 81.92 244.36 80.5948 244.36 78.96V70.64C244.36 69.0052 243.035 67.68 241.4 67.68Z" fill="#407BFF"/>
<path opacity="0.3" d="M241.4 67.68H228.24C226.605 67.68 225.28 69.0052 225.28 70.64V78.96C225.28 80.5948 226.605 81.92 228.24 81.92H241.4C243.035 81.92 244.36 80.5948 244.36 78.96V70.64C244.36 69.0052 243.035 67.68 241.4 67.68Z" fill="white"/>
<path d="M280 288.7H173.74C172.907 288.7 172.109 288.369 171.52 287.78C170.931 287.191 170.6 286.393 170.6 285.56V234.62C170.603 234.2 170.692 233.785 170.86 233.4C170.941 233.22 171.035 233.047 171.14 232.88C171.251 232.709 171.386 232.554 171.54 232.42C172.123 231.834 172.914 231.503 173.74 231.5H274.32C273.483 238.48 273.209 245.516 273.5 252.54C273.5 253.68 273.5 254.82 273.68 255.94C273.82 258.04 273.98 260.16 274.22 262.26C275.25 271.246 277.186 280.104 280 288.7V288.7Z" fill="#407BFF"/>
<path opacity="0.6" d="M280 288.7H173.74C172.907 288.7 172.109 288.369 171.52 287.78C170.931 287.191 170.6 286.393 170.6 285.56V234.62C170.603 234.2 170.692 233.785 170.86 233.4C170.941 233.22 171.035 233.047 171.14 232.88C171.251 232.709 171.386 232.554 171.54 232.42C172.123 231.834 172.914 231.503 173.74 231.5H274.32C273.483 238.48 273.209 245.516 273.5 252.54C273.5 253.68 273.5 254.82 273.68 255.94C273.82 258.04 273.98 260.16 274.22 262.26C275.25 271.246 277.186 280.104 280 288.7V288.7Z" fill="white"/>
<path opacity="0.1" d="M274.32 231.5C273.483 238.48 273.209 245.516 273.5 252.54C273.5 253.68 273.5 254.82 273.68 255.94L244.36 261.7L235.4 263.46C235.013 263.56 234.607 263.56 234.22 263.46L225.28 261.72L170.62 250.96V234.6C170.626 234.189 170.708 233.782 170.86 233.4C170.941 233.22 171.035 233.047 171.14 232.88C171.251 232.709 171.386 232.554 171.54 232.42C172.123 231.834 172.914 231.503 173.74 231.5H274.32Z" fill="black"/>
<path d="M278.5 210.58H261.26V204.32C261.249 201.731 260.215 199.252 258.383 197.423C256.55 195.595 254.069 194.565 251.48 194.56H218.16C215.571 194.56 213.089 195.588 211.259 197.419C209.428 199.249 208.4 201.731 208.4 204.32V210.58H171.08C170.676 210.58 170.275 210.66 169.901 210.814C169.528 210.969 169.188 211.196 168.902 211.482C168.616 211.768 168.389 212.108 168.234 212.481C168.08 212.855 168 213.256 168 213.66V244.46C168 245.178 168.25 245.873 168.706 246.428C169.162 246.982 169.796 247.361 170.5 247.5H170.62L225.28 258.28L234.22 260.02C234.609 260.1 235.011 260.1 235.4 260.02L244.36 258.26L273.5 252.52C273.209 245.496 273.483 238.46 274.32 231.48C275.151 224.413 276.548 217.423 278.5 210.58V210.58ZM215.8 204.32C215.81 203.699 216.063 203.107 216.504 202.67C216.945 202.233 217.539 201.985 218.16 201.98H251.48C252.099 201.985 252.691 202.233 253.129 202.671C253.567 203.109 253.815 203.701 253.82 204.32V210.58H215.82L215.8 204.32Z" fill="#407BFF"/>
<path opacity="0.6" d="M278.5 210.58H261.26V204.32C261.249 201.731 260.215 199.252 258.383 197.423C256.55 195.595 254.069 194.565 251.48 194.56H218.16C215.571 194.56 213.089 195.588 211.259 197.419C209.428 199.249 208.4 201.731 208.4 204.32V210.58H171.08C170.676 210.58 170.275 210.66 169.901 210.814C169.528 210.969 169.188 211.196 168.902 211.482C168.616 211.768 168.389 212.108 168.234 212.481C168.08 212.855 168 213.256 168 213.66V244.46C168 245.178 168.25 245.873 168.706 246.428C169.162 246.982 169.796 247.361 170.5 247.5H170.62L225.28 258.28L234.22 260.02C234.609 260.1 235.011 260.1 235.4 260.02L244.36 258.26L273.5 252.52C273.209 245.496 273.483 238.46 274.32 231.48C275.151 224.413 276.548 217.423 278.5 210.58V210.58ZM215.8 204.32C215.81 203.699 216.063 203.107 216.504 202.67C216.945 202.233 217.539 201.985 218.16 201.98H251.48C252.099 201.985 252.691 202.233 253.129 202.671C253.567 203.109 253.815 203.701 253.82 204.32V210.58H215.82L215.8 204.32Z" fill="white"/>
<path d="M241.4 251.62H228.24C226.605 251.62 225.28 252.945 225.28 254.58V262.9C225.28 264.535 226.605 265.86 228.24 265.86H241.4C243.035 265.86 244.36 264.535 244.36 262.9V254.58C244.36 252.945 243.035 251.62 241.4 251.62Z" fill="#407BFF"/>
<path opacity="0.3" d="M241.4 251.62H228.24C226.605 251.62 225.28 252.945 225.28 254.58V262.9C225.28 264.535 226.605 265.86 228.24 265.86H241.4C243.035 265.86 244.36 264.535 244.36 262.9V254.58C244.36 252.945 243.035 251.62 241.4 251.62Z" fill="white"/>
<path d="M554.38 472.64H676.56C678.283 472.64 679.68 471.243 679.68 469.52V418.56C679.68 416.837 678.283 415.44 676.56 415.44H554.38C552.657 415.44 551.26 416.837 551.26 418.56V469.52C551.26 471.243 552.657 472.64 554.38 472.64Z" fill="#407BFF"/>
<path opacity="0.6" d="M554.38 472.64H676.56C678.283 472.64 679.68 471.243 679.68 469.52V418.56C679.68 416.837 678.283 415.44 676.56 415.44H554.38C552.657 415.44 551.26 416.837 551.26 418.56V469.52C551.26 471.243 552.657 472.64 554.38 472.64Z" fill="white"/>
<path opacity="0.1" d="M554.4 415.46H676.56C677.387 415.46 678.181 415.789 678.766 416.374C679.351 416.959 679.68 417.753 679.68 418.58V434.92L616 447.44C615.611 447.52 615.209 447.52 614.82 447.44L551.2 434.92V418.58C551.2 418.163 551.283 417.751 551.445 417.367C551.607 416.983 551.844 416.636 552.142 416.345C552.44 416.054 552.794 415.826 553.181 415.674C553.569 415.522 553.984 415.449 554.4 415.46V415.46Z" fill="black"/>
<path d="M551.74 394.54H589.06V388.28C589.065 385.693 590.095 383.214 591.925 381.384C593.754 379.555 596.233 378.525 598.82 378.52H632.16C634.747 378.525 637.226 379.555 639.056 381.384C640.885 383.214 641.915 385.693 641.92 388.28V394.54H679.22C679.625 394.54 680.025 394.62 680.399 394.774C680.772 394.929 681.112 395.156 681.398 395.442C681.684 395.728 681.911 396.068 682.066 396.441C682.22 396.815 682.3 397.216 682.3 397.62V428.44C682.296 429.152 682.047 429.84 681.596 430.39C681.144 430.94 680.517 431.318 679.82 431.46L616 444C615.602 444.06 615.198 444.06 614.8 444L551.06 431.46C550.363 431.318 549.736 430.94 549.284 430.39C548.833 429.84 548.584 429.152 548.58 428.44V397.62C548.58 397.209 548.662 396.802 548.822 396.423C548.982 396.044 549.216 395.7 549.51 395.413C549.805 395.126 550.154 394.901 550.537 394.751C550.92 394.601 551.329 394.529 551.74 394.54V394.54ZM634.5 388.28C634.495 387.659 634.247 387.065 633.81 386.624C633.373 386.183 632.781 385.93 632.16 385.92H598.82C598.197 385.93 597.603 386.182 597.163 386.623C596.722 387.063 596.47 387.657 596.46 388.28V394.54H634.46L634.5 388.28Z" fill="#407BFF"/>
<path opacity="0.6" d="M551.74 394.54H589.06V388.28C589.065 385.693 590.095 383.214 591.925 381.384C593.754 379.555 596.233 378.525 598.82 378.52H632.16C634.747 378.525 637.226 379.555 639.056 381.384C640.885 383.214 641.915 385.693 641.92 388.28V394.54H679.22C679.625 394.54 680.025 394.62 680.399 394.774C680.772 394.929 681.112 395.156 681.398 395.442C681.684 395.728 681.911 396.068 682.066 396.441C682.22 396.815 682.3 397.216 682.3 397.62V428.44C682.296 429.152 682.047 429.84 681.596 430.39C681.144 430.94 680.517 431.318 679.82 431.46L616 444C615.602 444.06 615.198 444.06 614.8 444L551.06 431.46C550.363 431.318 549.736 430.94 549.284 430.39C548.833 429.84 548.584 429.152 548.58 428.44V397.62C548.58 397.209 548.662 396.802 548.822 396.423C548.982 396.044 549.216 395.7 549.51 395.413C549.805 395.126 550.154 394.901 550.537 394.751C550.92 394.601 551.329 394.529 551.74 394.54V394.54ZM634.5 388.28C634.495 387.659 634.247 387.065 633.81 386.624C633.373 386.183 632.781 385.93 632.16 385.92H598.82C598.197 385.93 597.603 386.182 597.163 386.623C596.722 387.063 596.47 387.657 596.46 388.28V394.54H634.46L634.5 388.28Z" fill="white"/>
<path d="M608.9 449.82H622.06C623.695 449.82 625.02 448.495 625.02 446.86V438.54C625.02 436.905 623.695 435.58 622.06 435.58H608.9C607.265 435.58 605.94 436.905 605.94 438.54V446.86C605.94 448.495 607.265 449.82 608.9 449.82Z" fill="#407BFF"/>
<path opacity="0.3" d="M608.9 449.82H622.06C623.695 449.82 625.02 448.495 625.02 446.86V438.54C625.02 436.905 623.695 435.58 622.06 435.58H608.9C607.265 435.58 605.94 436.905 605.94 438.54V446.86C605.94 448.495 607.265 449.82 608.9 449.82Z" fill="white"/>
<path d="M554.38 104.72L676.56 104.72C678.283 104.72 679.68 103.323 679.68 101.6V50.64C679.68 48.9169 678.283 47.52 676.56 47.52L554.38 47.52C552.657 47.52 551.26 48.9169 551.26 50.64V101.6C551.26 103.323 552.657 104.72 554.38 104.72Z" fill="#407BFF"/>
<path opacity="0.6" d="M554.38 104.72L676.56 104.72C678.283 104.72 679.68 103.323 679.68 101.6V50.64C679.68 48.9169 678.283 47.52 676.56 47.52L554.38 47.52C552.657 47.52 551.26 48.9169 551.26 50.64V101.6C551.26 103.323 552.657 104.72 554.38 104.72Z" fill="white"/>
<path opacity="0.1" d="M554.4 47.54H676.56C677.387 47.54 678.181 47.8687 678.766 48.4538C679.351 49.039 679.68 49.8325 679.68 50.66V67L616 79.52C615.611 79.5998 615.209 79.5998 614.82 79.52L551.28 67V50.66C551.28 49.8325 551.609 49.039 552.194 48.4538C552.779 47.8687 553.573 47.54 554.4 47.54V47.54Z" fill="black"/>
<path d="M551.74 26.62H589.06V20.36C589.065 17.7731 590.095 15.2937 591.925 13.4645C593.754 11.6353 596.233 10.6053 598.82 10.6H632.16C633.448 10.5921 634.724 10.8386 635.917 11.3253C637.109 11.812 638.193 12.5293 639.107 13.4362C640.022 14.343 640.748 15.4214 641.244 16.6096C641.741 17.7978 641.997 19.0723 642 20.36V26.62H679.3C680.117 26.62 680.9 26.9445 681.478 27.5221C682.056 28.0997 682.38 28.8831 682.38 29.7V60.52C682.38 61.2326 682.133 61.923 681.68 62.4737C681.228 63.0243 680.599 63.4012 679.9 63.54L616 76C615.604 76.0803 615.196 76.0803 614.8 76L551.06 63.46C550.361 63.3212 549.732 62.9443 549.28 62.3937C548.828 61.843 548.58 61.1526 548.58 60.44V29.7C548.58 29.2887 548.662 28.8816 548.822 28.5026C548.982 28.1236 549.216 27.7804 549.51 27.4933C549.805 27.2063 550.154 26.9811 550.537 26.8311C550.92 26.6811 551.329 26.6093 551.74 26.62ZM634.5 20.36C634.5 19.7375 634.254 19.1403 633.816 18.6983C633.378 18.2563 632.782 18.0053 632.16 18H598.82C598.199 18.0051 597.605 18.2527 597.164 18.6899C596.723 19.127 596.47 19.7192 596.46 20.34V26.6H634.46L634.5 20.36Z" fill="#407BFF"/>
<path opacity="0.6" d="M551.74 26.62H589.06V20.36C589.065 17.7731 590.095 15.2937 591.925 13.4645C593.754 11.6353 596.233 10.6053 598.82 10.6H632.16C633.448 10.5921 634.724 10.8386 635.917 11.3253C637.109 11.812 638.193 12.5293 639.107 13.4362C640.022 14.343 640.748 15.4214 641.244 16.6096C641.741 17.7978 641.997 19.0723 642 20.36V26.62H679.3C680.117 26.62 680.9 26.9445 681.478 27.5221C682.056 28.0997 682.38 28.8831 682.38 29.7V60.52C682.38 61.2326 682.133 61.923 681.68 62.4737C681.228 63.0243 680.599 63.4012 679.9 63.54L616 76C615.604 76.0803 615.196 76.0803 614.8 76L551.06 63.46C550.361 63.3212 549.732 62.9443 549.28 62.3937C548.828 61.843 548.58 61.1526 548.58 60.44V29.7C548.58 29.2887 548.662 28.8816 548.822 28.5026C548.982 28.1236 549.216 27.7804 549.51 27.4933C549.805 27.2063 550.154 26.9811 550.537 26.8311C550.92 26.6811 551.329 26.6093 551.74 26.62ZM634.5 20.36C634.5 19.7375 634.254 19.1403 633.816 18.6983C633.378 18.2563 632.782 18.0053 632.16 18H598.82C598.199 18.0051 597.605 18.2527 597.164 18.6899C596.723 19.127 596.47 19.7192 596.46 20.34V26.6H634.46L634.5 20.36Z" fill="white"/>
<path d="M608.9 81.9H622.06C623.695 81.9 625.02 80.5748 625.02 78.94V70.62C625.02 68.9852 623.695 67.66 622.06 67.66H608.9C607.265 67.66 605.94 68.9852 605.94 70.62V78.94C605.94 80.5748 607.265 81.9 608.9 81.9Z" fill="#407BFF"/>
<path opacity="0.3" d="M608.9 81.9H622.06C623.695 81.9 625.02 80.5748 625.02 78.94V70.62C625.02 68.9852 623.695 67.66 622.06 67.66H608.9C607.265 67.66 605.94 68.9852 605.94 70.62V78.94C605.94 80.5748 607.265 81.9 608.9 81.9Z" fill="white"/>
<path d="M570.38 288.7H676.58C677.409 288.695 678.203 288.362 678.787 287.773C679.372 287.185 679.7 286.389 679.7 285.56V234.62C679.697 234.2 679.608 233.785 679.44 233.4C679.367 233.217 679.273 233.042 679.16 232.88C679.049 232.709 678.914 232.554 678.76 232.42C678.473 232.128 678.13 231.896 677.753 231.738C677.375 231.581 676.969 231.499 676.56 231.5H576C576.837 238.48 577.111 245.516 576.82 252.54C576.82 253.68 576.82 254.82 576.64 255.94C576.52 258.04 576.34 260.16 576.1 262.26C575.09 271.244 573.174 280.102 570.38 288.7V288.7Z" fill="#407BFF"/>
<path opacity="0.6" d="M570.38 288.7H676.58C677.409 288.695 678.203 288.362 678.787 287.773C679.372 287.185 679.7 286.389 679.7 285.56V234.62C679.697 234.2 679.608 233.785 679.44 233.4C679.367 233.217 679.273 233.042 679.16 232.88C679.049 232.709 678.914 232.554 678.76 232.42C678.473 232.128 678.13 231.896 677.753 231.738C677.375 231.581 676.969 231.499 676.56 231.5H576C576.837 238.48 577.111 245.516 576.82 252.54C576.82 253.68 576.82 254.82 576.64 255.94C576.52 258.04 576.34 260.16 576.1 262.26C575.09 271.244 573.174 280.102 570.38 288.7V288.7Z" fill="white"/>
<path opacity="0.1" d="M576 231.5C576.837 238.48 577.111 245.516 576.82 252.54C576.82 253.68 576.82 254.82 576.64 255.94L606 261.7L614.96 263.46C615.347 263.56 615.753 263.56 616.14 263.46L625.08 261.72L679.74 250.96V234.6C679.734 234.189 679.652 233.782 679.5 233.4C679.427 233.217 679.333 233.042 679.22 232.88C679.109 232.709 678.974 232.554 678.82 232.42C678.533 232.128 678.19 231.896 677.813 231.738C677.435 231.581 677.029 231.499 676.62 231.5H576Z" fill="black"/>
<path d="M571.8 210.58H589.06V204.32C589.065 201.733 590.095 199.254 591.924 197.424C593.754 195.595 596.233 194.565 598.82 194.56H632.14C634.73 194.56 637.215 195.588 639.048 197.417C640.882 199.247 641.915 201.73 641.92 204.32V210.58H679.22C680.037 210.58 680.82 210.905 681.398 211.482C681.976 212.06 682.3 212.843 682.3 213.66V244.46C682.301 245.175 682.054 245.868 681.602 246.422C681.15 246.976 680.521 247.357 679.82 247.5H679.68L625.02 258.28L616 260C615.611 260.08 615.209 260.08 614.82 260L605.86 258.24L576.72 252.5C577.287 238.324 575.6 224.147 571.72 210.5L571.8 210.58ZM634.5 204.32C634.49 203.699 634.237 203.107 633.796 202.67C633.355 202.233 632.761 201.985 632.14 201.98H598.82C598.201 201.985 597.609 202.233 597.171 202.671C596.733 203.109 596.485 203.701 596.48 204.32V210.58H634.48L634.5 204.32Z" fill="#407BFF"/>
<path opacity="0.6" d="M571.8 210.58H589.06V204.32C589.065 201.733 590.095 199.254 591.924 197.424C593.754 195.595 596.233 194.565 598.82 194.56H632.14C634.73 194.56 637.215 195.588 639.048 197.417C640.882 199.247 641.915 201.73 641.92 204.32V210.58H679.22C680.037 210.58 680.82 210.905 681.398 211.482C681.976 212.06 682.3 212.843 682.3 213.66V244.46C682.301 245.175 682.054 245.868 681.602 246.422C681.15 246.976 680.521 247.357 679.82 247.5H679.68L625.02 258.28L616 260C615.611 260.08 615.209 260.08 614.82 260L605.86 258.24L576.72 252.5C577.287 238.324 575.6 224.147 571.72 210.5L571.8 210.58ZM634.5 204.32C634.49 203.699 634.237 203.107 633.796 202.67C633.355 202.233 632.761 201.985 632.14 201.98H598.82C598.201 201.985 597.609 202.233 597.171 202.671C596.733 203.109 596.485 203.701 596.48 204.32V210.58H634.48L634.5 204.32Z" fill="white"/>
<path d="M608.9 265.88H622.06C623.695 265.88 625.02 264.555 625.02 262.92V254.6C625.02 252.965 623.695 251.64 622.06 251.64H608.9C607.265 251.64 605.94 252.965 605.94 254.6V262.92C605.94 264.555 607.265 265.88 608.9 265.88Z" fill="#407BFF"/>
<path opacity="0.3" d="M608.9 265.88H622.06C623.695 265.88 625.02 264.555 625.02 262.92V254.6C625.02 252.965 623.695 251.64 622.06 251.64H608.9C607.265 251.64 605.94 252.965 605.94 254.6V262.92C605.94 264.555 607.265 265.88 608.9 265.88Z" fill="white"/>
<path d="M519.4 219.08H343.84C341.366 219.08 339.36 221.086 339.36 223.56V296.78C339.36 299.254 341.366 301.26 343.84 301.26H519.4C521.874 301.26 523.88 299.254 523.88 296.78V223.56C523.88 221.086 521.874 219.08 519.4 219.08Z" fill="#407BFF"/>
<path d="M455.56 206H407.66C404.028 205.995 400.547 204.55 397.978 201.982C395.41 199.413 393.965 195.932 393.96 192.3V180C393.965 176.368 395.41 172.887 397.978 170.318C400.547 167.75 404.028 166.305 407.66 166.3H455.56C459.193 166.3 462.678 167.743 465.247 170.313C467.817 172.882 469.26 176.367 469.26 180V192.24C469.268 194.044 468.919 195.832 468.234 197.501C467.549 199.17 466.542 200.688 465.269 201.966C463.996 203.245 462.483 204.259 460.817 204.951C459.151 205.644 457.364 206 455.56 206V206ZM407.66 176.36C406.696 176.37 405.774 176.756 405.09 177.436C404.407 178.116 404.016 179.036 404 180V192.24C404 193.221 404.39 194.162 405.084 194.856C405.778 195.55 406.719 195.94 407.7 195.94H455.6C456.581 195.94 457.522 195.55 458.216 194.856C458.91 194.162 459.3 193.221 459.3 192.24V180C459.3 179.019 458.91 178.078 458.216 177.384C457.522 176.69 456.581 176.3 455.6 176.3L407.66 176.36Z" fill="#407BFF"/>
<path opacity="0.2" d="M519.38 219.08H343.86C343.27 219.077 342.685 219.191 342.139 219.415C341.593 219.639 341.097 219.969 340.679 220.385C340.261 220.801 339.929 221.296 339.703 221.841C339.476 222.386 339.36 222.97 339.36 223.56V247.06L430.76 265.06C431.32 265.182 431.9 265.182 432.46 265.06L523.88 247.06V223.56C523.88 222.97 523.763 222.386 523.537 221.841C523.311 221.296 522.979 220.801 522.561 220.385C522.143 219.969 521.646 219.639 521.1 219.415C520.555 219.191 519.97 219.077 519.38 219.08V219.08Z" fill="black"/>
<path d="M524 242L432.42 260C431.851 260.1 431.269 260.1 430.7 260L339.12 242C338.114 241.801 337.208 241.261 336.555 240.469C335.902 239.678 335.544 238.686 335.54 237.66V193.46C335.54 192.88 335.654 192.305 335.876 191.769C336.099 191.232 336.424 190.745 336.835 190.335C337.245 189.924 337.732 189.599 338.269 189.376C338.805 189.154 339.38 189.04 339.96 189.04H523.2C523.78 189.04 524.355 189.154 524.892 189.376C525.428 189.599 525.915 189.924 526.325 190.335C526.736 190.745 527.061 191.232 527.284 191.769C527.506 192.305 527.62 192.88 527.62 193.46V237.74C527.6 238.758 527.229 239.739 526.569 240.515C525.909 241.291 525.002 241.816 524 242Z" fill="#407BFF"/>
<path d="M441.1 248.02H422.16C419.818 248.02 417.92 249.918 417.92 252.26V264.24C417.92 266.582 419.818 268.48 422.16 268.48H441.1C443.442 268.48 445.34 266.582 445.34 264.24V252.26C445.34 249.918 443.442 248.02 441.1 248.02Z" fill="#407BFF"/>
<path opacity="0.4" d="M441.1 248.02H422.16C419.818 248.02 417.92 249.918 417.92 252.26V264.24C417.92 266.582 419.818 268.48 422.16 268.48H441.1C443.442 268.48 445.34 266.582 445.34 264.24V252.26C445.34 249.918 443.442 248.02 441.1 248.02Z" fill="black"/>
<path d="M761.8 264.42C764.1 269.16 765.8 273.64 767.8 278.32C769.8 283 771.26 287.66 772.82 292.44C775.983 302.132 778.318 312.074 779.8 322.16C780 323.42 780.1 324.78 780.24 326.16L780.44 328.16C780.44 328.52 780.44 328.78 780.44 329.2V330.5C780.507 333.533 780.246 336.564 779.66 339.54C778.668 344.713 777.257 349.796 775.44 354.74C772.025 364.138 767.768 373.208 762.72 381.84L752.56 377.54C754.82 368.42 757.1 359.12 758.82 350.14C759.661 345.837 760.255 341.49 760.6 337.12C760.718 335.333 760.678 333.54 760.48 331.76L760.26 330.5L759.98 328.9C759.76 327.84 759.62 326.78 759.36 325.7C757.366 316.872 754.787 308.186 751.64 299.7C750.12 295.36 748.44 291.04 746.76 286.7C745.08 282.36 743.22 278 741.5 274L761.8 264.42Z" fill="#7F3E3B"/>
<path d="M753 374.88L745.2 382.48L762.22 390.48C762.22 390.48 766.34 383.28 763.5 376.76L753 374.88Z" fill="#7F3E3B"/>
<path d="M738.92 393.82L753.28 399.7L762.22 390.4L745.2 382.48L738.92 393.82Z" fill="#7F3E3B"/>
<path opacity="0.2" d="M447.62 385.62C475.921 382.45 502.647 370.96 524.418 352.603C546.189 334.245 562.029 309.845 569.934 282.486C577.838 255.127 577.454 226.039 568.828 198.899C560.203 171.759 543.724 147.786 521.474 130.01C499.225 112.235 472.205 101.456 443.83 99.0357C415.455 96.6155 387 102.663 362.062 116.414C337.124 130.164 316.823 151 303.725 176.287C290.628 201.575 285.323 230.178 288.48 258.48C290.577 277.279 296.358 295.481 305.491 312.045C314.625 328.61 326.932 343.212 341.71 355.019C356.489 366.826 373.449 375.605 391.621 380.856C409.793 386.107 428.822 387.725 447.62 385.62V385.62Z" fill="#407BFF"/>
<path opacity="0.1" d="M342.84 129.08L561.84 304C562.78 302 563.66 300 564.52 298C570.009 284.941 573.514 271.135 574.92 257.04V257.04L385.76 106C370.237 111.177 355.718 118.984 342.84 129.08V129.08Z" fill="white"/>
<path opacity="0.1" d="M292.32 205.74L498.2 370.24C517.762 360.037 534.719 345.476 547.76 327.68L322.92 148C308.43 164.647 297.961 184.403 292.32 205.74V205.74Z" fill="white"/>
<path d="M786.34 404.24C786.077 400.6 784.886 397.089 782.88 394.04C781.423 391.798 779.383 389.993 776.98 388.82L763.32 382.12C754.24 377.62 745.1 373.24 735.96 368.86C726.82 364.48 717.62 360.18 708.46 355.84C699.3 351.5 690.06 347.28 680.8 343.14C662.32 334.767 643.72 326.62 625 318.7C615.64 314.7 606.26 310.86 596.8 307.1C594.038 306.012 591.793 303.916 590.519 301.234C589.245 298.553 589.038 295.488 589.94 292.66C602.603 252.736 599.719 209.503 581.867 171.615C564.014 133.726 532.51 103.979 493.66 88.327C454.811 72.6753 411.484 72.2745 372.351 87.2047C333.219 102.135 301.17 131.294 282.619 168.846C264.069 206.398 260.386 249.57 272.308 289.721C284.23 329.872 310.877 364.039 346.915 385.382C382.952 406.725 425.722 413.669 466.661 404.823C507.6 395.978 543.688 371.997 567.7 337.68C569.4 335.241 571.963 333.539 574.871 332.919C577.778 332.299 580.813 332.807 583.36 334.34C592.107 339.54 600.893 344.653 609.72 349.68C627.36 359.733 645.133 369.533 663.04 379.08C671.98 383.92 681.04 388.58 689.94 393.32C698.84 398.06 707.94 402.68 717 407.32C726.06 411.96 735 416.5 744.18 420.98L757.8 427.74C760.193 428.943 762.87 429.469 765.54 429.26C769.175 429.002 772.681 427.811 775.72 425.8C779.344 423.574 782.264 420.369 784.143 416.554C786.023 412.738 786.784 408.47 786.34 404.24V404.24ZM373.6 360C350.35 348.527 331.025 330.418 318.068 307.961C305.111 285.505 299.104 259.711 300.807 233.84C302.51 207.97 311.847 183.186 327.637 162.622C343.426 142.059 364.959 126.639 389.513 118.314C414.066 109.989 440.537 109.132 465.577 115.851C490.617 122.571 513.103 136.565 530.19 156.064C547.276 175.563 558.197 199.692 561.57 225.398C564.943 251.104 560.617 277.233 549.14 300.48C541.523 315.915 530.94 329.698 517.995 341.043C505.051 352.387 489.999 361.071 473.698 366.598C457.397 372.125 440.168 374.387 422.993 373.255C405.818 372.123 389.034 367.619 373.6 360V360Z" fill="#407BFF"/>
<path d="M686.38 202.6C686.38 203.78 685.76 204.74 684.98 204.74C684.2 204.74 683.58 203.78 683.58 202.6C683.58 201.42 684.2 200.44 684.98 200.44C685.76 200.44 686.38 201.4 686.38 202.6Z" fill="#263238"/>
<path d="M685.86 204.74C684.454 208.363 682.557 211.775 680.22 214.88C681.029 215.459 681.955 215.854 682.933 216.037C683.91 216.22 684.916 216.187 685.88 215.94L685.86 204.74Z" fill="#630F0F"/>
<path d="M690.58 196C690.725 195.996 690.866 195.947 690.982 195.859C691.098 195.772 691.184 195.651 691.228 195.512C691.272 195.374 691.271 195.225 691.227 195.087C691.183 194.948 691.096 194.827 690.98 194.74C690.096 194.078 689.068 193.634 687.98 193.447C686.892 193.259 685.775 193.332 684.72 193.66C684.626 193.686 684.538 193.731 684.462 193.793C684.386 193.855 684.324 193.932 684.28 194.019C684.235 194.106 684.21 194.202 684.205 194.3C684.2 194.398 684.216 194.495 684.251 194.587C684.286 194.678 684.34 194.761 684.409 194.83C684.478 194.899 684.561 194.953 684.653 194.989C684.744 195.024 684.842 195.039 684.939 195.034C685.037 195.03 685.133 195.004 685.22 194.96V194.96C686.059 194.71 686.946 194.662 687.808 194.818C688.669 194.974 689.482 195.331 690.18 195.86C690.293 195.952 690.434 196.002 690.58 196V196Z" fill="#263238"/>
<path d="M726.84 211.52C724.72 222.28 722.62 241.98 730.14 249.14C730.14 249.14 727.2 260.04 707.24 260.04C685.24 260.04 696.74 249.14 696.74 249.14C708.74 246.28 708.42 237.38 706.32 229.14L726.84 211.52Z" fill="#7F3E3B"/>
<path d="M734 242.4C735.66 242.94 733.5 252.82 733.5 252.82C733.5 252.82 730.76 259.72 696.72 257.32C694.1 257.12 695.1 247.64 697.6 246.26C705.66 241.86 728.64 240.64 734 242.4Z" fill="#263238"/>
<path d="M803.14 655.62C804.98 655.44 807.66 652.06 808.42 650.82C808.454 650.766 808.472 650.704 808.472 650.64C808.472 650.576 808.454 650.514 808.42 650.46C808.387 650.401 808.337 650.354 808.276 650.325C808.215 650.296 808.146 650.287 808.08 650.3C807.88 650.3 803.04 651.22 801.86 653.1C801.735 653.297 801.653 653.518 801.619 653.749C801.585 653.98 801.599 654.215 801.66 654.44C801.92 655.32 802.42 655.56 802.82 655.62H803.14ZM807.36 651.16C806.06 652.96 803.92 655.06 802.9 654.92C802.8 654.92 802.5 654.92 802.32 654.24C802.281 654.109 802.271 653.971 802.292 653.836C802.313 653.702 802.363 653.573 802.44 653.46C803.819 652.227 805.53 651.427 807.36 651.16Z" fill="#407BFF"/>
<path d="M807.16 651.16C807.518 651.13 807.872 651.069 808.22 650.98C808.279 650.961 808.332 650.927 808.374 650.882C808.416 650.836 808.446 650.78 808.46 650.72C808.472 650.658 808.467 650.594 808.446 650.534C808.425 650.474 808.388 650.421 808.34 650.38C808.22 650.26 804.98 647.5 802.78 647.72C802.515 647.737 802.257 647.81 802.023 647.934C801.789 648.059 801.583 648.231 801.42 648.44C801.232 648.621 801.114 648.864 801.089 649.124C801.063 649.384 801.131 649.645 801.28 649.86C802 651 805.16 651.36 807.16 651.16ZM807.32 650.46C805.32 650.7 802.4 650.3 801.84 649.48C801.84 649.48 801.68 649.22 801.96 648.86C802.073 648.728 802.21 648.619 802.364 648.54C802.519 648.462 802.687 648.414 802.86 648.4V648.4C804.518 648.629 806.071 649.346 807.32 650.46V650.46Z" fill="#407BFF"/>
<path d="M665.64 708.22C667.155 708.214 668.667 708.081 670.16 707.82C670.227 707.802 670.288 707.766 670.337 707.717C670.386 707.668 670.422 707.607 670.44 707.54C670.452 707.469 670.441 707.395 670.409 707.33C670.377 707.266 670.325 707.213 670.26 707.18C670.04 707.04 664.92 704.12 662.46 704.78C662 704.897 661.604 705.192 661.36 705.6C661.203 705.822 661.119 706.088 661.119 706.36C661.119 706.632 661.203 706.898 661.36 707.12C662 708 663.76 708.22 665.64 708.22ZM669.04 707.3C666.3 707.68 662.58 707.66 661.9 706.72C661.8 706.6 661.72 706.38 661.9 705.94C661.973 705.817 662.072 705.71 662.189 705.627C662.306 705.545 662.439 705.488 662.58 705.46C664.16 705.04 667.24 706.38 669.04 707.3V707.3Z" fill="#407BFF"/>
<path d="M670 707.82C670.072 707.841 670.148 707.841 670.22 707.82C670.266 707.781 670.303 707.732 670.327 707.676C670.351 707.621 670.362 707.56 670.36 707.5C670.36 707.34 669.94 703.38 668.08 701.84C667.804 701.61 667.485 701.439 667.141 701.336C666.798 701.232 666.437 701.2 666.08 701.24C665.12 701.34 664.86 701.82 664.78 702.22C664.52 703.88 668.04 707.06 669.8 707.86L670 707.82ZM666.42 701.82C666.867 701.833 667.296 701.995 667.64 702.28C668.75 703.549 669.448 705.125 669.64 706.8C667.82 705.72 665.44 703.22 665.64 702.22C665.64 702.22 665.64 701.9 666.32 701.84L666.42 701.82Z" fill="#407BFF"/>
<path d="M686.24 707.48H671.56L670.08 673.44H684.78L686.24 707.48Z" fill="#7F3E3B"/>
<path d="M821.26 640.06L809.8 649.24L780.64 629L792.12 619.82L821.26 640.06Z" fill="#7F3E3B"/>
<path d="M807.7 648.66L819.42 637.04C819.63 636.838 819.902 636.712 820.192 636.683C820.483 636.654 820.774 636.723 821.02 636.88L832.28 644.12C832.553 644.297 832.782 644.533 832.95 644.811C833.118 645.09 833.221 645.403 833.25 645.727C833.279 646.051 833.233 646.377 833.117 646.681C833.001 646.984 832.818 647.258 832.58 647.48C828.42 651.48 826.2 653.2 821.04 658.3C817.88 661.46 810.14 670.86 805.76 675.2C801.38 679.54 796.5 675.78 797.92 673.6C804.22 663.88 806.36 655.86 806.64 650.98C806.7 650.104 807.077 649.279 807.7 648.66V648.66Z" fill="#263238"/>
<path d="M671.64 705.78H687.64C687.93 705.778 688.212 705.877 688.438 706.059C688.664 706.241 688.82 706.496 688.88 706.78L691.78 719.84C691.853 720.154 691.854 720.48 691.782 720.794C691.71 721.108 691.567 721.402 691.364 721.652C691.162 721.903 690.905 722.104 690.613 722.241C690.321 722.377 690.002 722.445 689.68 722.44C683.88 722.44 675.52 722.02 668.24 722.02C659.74 722.02 652.4 722.48 642.42 722.48C636.42 722.48 634.72 716.38 637.24 715.82C648.74 713.32 658.12 713.04 668.04 706.92C669.11 706.212 670.357 705.817 671.64 705.78V705.78Z" fill="#263238"/>
<path d="M759.1 253.54C771.84 259.54 777.1 300.66 777.1 300.66L747.8 312.16C743.252 301.026 739.568 289.559 736.78 277.86C732.68 259.3 746 247.3 759.1 253.54Z" fill="#407BFF"/>
<path opacity="0.3" d="M759.1 253.54C771.84 259.54 777.1 300.66 777.1 300.66L747.8 312.16C743.252 301.026 739.568 289.559 736.78 277.86C732.68 259.3 746 247.3 759.1 253.54Z" fill="white"/>
<path opacity="0.2" d="M740.12 265.6C739.121 265.115 738.076 264.733 737 264.46C735.831 268.845 735.79 273.455 736.88 277.86C739.656 289.56 743.334 301.028 747.88 312.16L757.54 308.38C755.76 297.64 750.3 270.48 740.12 265.6Z" fill="black"/>
<path d="M674.14 253.22C674.14 253.22 658.5 270.88 673.26 380.22H751.86C752.4 368.22 744.82 309.3 756.46 252.46C747.767 250.788 738.976 249.679 730.14 249.14C719.016 248.5 707.864 248.5 696.74 249.14C689.112 249.909 681.555 251.273 674.14 253.22Z" fill="#407BFF"/>
<path opacity="0.3" d="M674.14 253.22C674.14 253.22 658.5 270.88 673.26 380.22H751.86C752.4 368.22 744.82 309.3 756.46 252.46C747.767 250.788 738.976 249.679 730.14 249.14C719.016 248.5 707.864 248.5 696.74 249.14C689.112 249.909 681.555 251.273 674.14 253.22Z" fill="white"/>
<path opacity="0.2" d="M690 276.66C686.44 265.98 677.88 262.56 669.16 268.9C667.4 279.26 666.16 295.96 667.58 322.44L682.92 322.3C682.92 322.3 695.26 292.56 690 276.66Z" fill="black"/>
<path d="M687.12 272.28C686.48 277.64 685.6 282.5 684.62 287.56C683.64 292.62 682.5 297.56 681.2 302.54C678.633 312.718 675.139 322.64 670.76 332.18C669.62 334.64 668.3 337.06 666.9 339.48C666.18 340.7 665.46 341.92 664.64 343.12C663.577 344.788 662.321 346.325 660.9 347.7C658.14 350.259 654.868 352.202 651.3 353.4C648.403 354.415 645.406 355.119 642.36 355.5C636.924 356.174 631.43 356.241 625.98 355.7C623.313 355.487 620.713 355.147 618.18 354.68C615.58 354.22 613.12 353.74 610.44 353.04L611.74 342.08C620.868 341.697 629.931 340.356 638.78 338.08C640.58 337.547 642.327 336.851 644 336C645.098 335.496 646.059 334.735 646.8 333.78C646.64 333.92 648.1 331.5 648.96 329.78C649.82 328.06 650.78 325.78 651.6 323.78C653.28 319.66 654.72 315.3 656.04 310.84C657.36 306.38 658.52 301.84 659.6 297.24C660.68 292.64 661.6 288 662.6 283.24C663.6 278.48 664.32 273.76 665.04 269.34L687.12 272.28Z" fill="#7F3E3B"/>
<path d="M693.78 264C697.92 277.42 681.12 317.42 681.12 317.42L645.74 308.52C647.906 295.877 651.551 283.532 656.6 271.74C668 246.78 688.8 247.82 693.78 264Z" fill="#407BFF"/>
<path opacity="0.3" d="M693.78 264C697.92 277.42 681.12 317.42 681.12 317.42L645.74 308.52C647.906 295.877 651.551 283.532 656.6 271.74C668 246.78 688.8 247.82 693.78 264Z" fill="white"/>
<path d="M612.24 342.14L595.6 341.72L603.6 359.02C603.6 359.02 610.36 359.92 615.92 350.78L621.78 343.8L615.04 342.44C614.117 342.26 613.18 342.16 612.24 342.14Z" fill="#7F3E3B"/>
<path d="M585.1 344.94L594.64 359.28L603.62 359.02L595.6 341.72L585.1 344.94Z" fill="#7F3E3B"/>
<path opacity="0.2" d="M670.1 673.46L670.84 691H685.54L684.78 673.46H670.1Z" fill="black"/>
<path opacity="0.2" d="M792.12 619.82L780.64 629L795.68 639.44L807.16 630.26L792.12 619.82Z" fill="black"/>
<path d="M726 200C725.12 214.56 725.36 223.12 718 230.6C706.96 241.84 688.98 235.2 685.5 220.6C682.36 207.52 684.34 185.92 698.58 180.1C701.72 178.801 705.141 178.329 708.515 178.728C711.89 179.127 715.106 180.385 717.856 182.381C720.606 184.377 722.798 187.044 724.224 190.129C725.65 193.213 726.261 196.612 726 200V200Z" fill="#7F3E3B"/>
<path d="M737.76 186.48C737.76 186.48 745.42 188.76 743.02 197.5C739.4 210.78 730.88 226.06 719.88 227.02C706.18 228.24 700 214.1 698.2 199.48C690 193.86 683.92 188.6 685.88 182.76C688.88 173.76 699.76 166 717.08 168C734.4 170 743.02 181.2 737.76 186.48Z" fill="#263238"/>
<path d="M706.54 202.48C706.274 206.091 704.826 209.514 702.42 212.22C699.22 215.74 695.86 213.54 695.3 209.26C694.8 205.38 695.84 198.88 699.76 196.94C703.68 195 706.8 198.12 706.54 202.48Z" fill="#7F3E3B"/>
<path d="M701.14 380.22C701.14 380.22 696.18 479.26 705.84 521.22C721.14 587.66 788.4 640.9 788.4 640.9L810 623.6C810 623.6 754.66 582.42 749.68 527.1C745.22 477.42 751.82 420.36 751.82 380.22H701.14Z" fill="#407BFF"/>
<path opacity="0.2" d="M701.14 380.22C701.14 380.22 696.18 479.26 705.84 521.22C721.14 587.66 788.4 640.9 788.4 640.9L810 623.6C810 623.6 754.66 582.42 749.68 527.1C745.22 477.42 751.82 420.36 751.82 380.22H701.14Z" fill="black"/>
<path opacity="0.2" d="M708.52 409.56C706.52 405.7 702.62 417.2 699.9 431.96C699.9 452.32 700.26 475.48 702.04 495.1C715.62 470 712.74 417.56 708.52 409.56Z" fill="black"/>
<path d="M778.6 636.64L786.8 643L811.74 622.78L804.26 616L778.6 636.64Z" fill="#2C6BDB"/>
<path opacity="0.4" d="M778.6 636.64L786.8 643L811.74 622.78L804.26 616L778.6 636.64Z" fill="#FAFAFA"/>
<path d="M673.26 380.22C673.26 380.22 651.14 474.02 649.58 518.82C647.84 569.08 665.36 687.6 665.36 687.6H690.26C690.26 687.6 693.32 568.16 694.44 522.38C695.64 472.48 724.92 380.22 724.92 380.22H673.26Z" fill="#407BFF"/>
<path opacity="0.2" d="M673.26 380.22C673.26 380.22 651.14 474.02 649.58 518.82C647.84 569.08 665.36 687.6 665.36 687.6H690.26C690.26 687.6 693.32 568.16 694.44 522.38C695.64 472.48 724.92 380.22 724.92 380.22H673.26Z" fill="black"/>
<path d="M660.58 677.68C660.46 677.68 661.98 688.02 661.98 688.02H692.26L693.08 678.8L660.58 677.68Z" fill="#2C6BDB"/>
<path opacity="0.4" d="M660.58 677.68C660.46 677.68 661.98 688.02 661.98 688.02H692.26L693.08 678.8L660.58 677.68Z" fill="#FAFAFA"/>
</svg>
