<?xml version="1.0"?>
<svg xmlns="http://www.w3.org/2000/svg" xmlns:xlink="http://www.w3.org/1999/xlink" xmlns:svgjs="http://svgjs.com/svgjs" version="1.1" width="512" height="512" x="0" y="0" viewBox="0 0 512 512" style="enable-background:new 0 0 512 512" xml:space="preserve" class=""><g><path xmlns="http://www.w3.org/2000/svg" d="m274.835938 120.644531c0 10.425781-8.449219 18.878907-18.875 18.878907-10.425782 0-18.878907-8.453126-18.878907-18.878907s8.453125-18.878906 18.878907-18.878906c10.425781 0 18.875 8.453125 18.875 18.878906zm0 0" fill="#007afe" data-original="#000000" style="" class=""/><path xmlns="http://www.w3.org/2000/svg" d="m282.460938 93.234375 25.5-15.816406c-11.257813-18.144531-30.695313-28.980469-52-28.980469-21.304688 0-40.746094 10.835938-52.003907 28.980469l25.5 15.816406c5.742188-9.261719 15.652344-14.792969 26.503907-14.792969 10.847656 0 20.757812 5.53125 26.5 14.792969zm0 0" fill="#007afe" data-original="#000000" style="" class=""/><path xmlns="http://www.w3.org/2000/svg" d="m255.960938 30.003906c28.722656 0 54.941406 14.625 70.136718 39.121094l25.5-15.816406c-20.710937-33.378906-56.460937-53.308594-95.636718-53.308594-39.179688 0-74.929688 19.929688-95.640626 53.308594l25.5 15.816406c15.195313-24.496094 41.417969-39.121094 70.140626-39.121094zm0 0" fill="#007afe" data-original="#000000" style="" class=""/><path xmlns="http://www.w3.org/2000/svg" d="m457.699219 357.699219c10.257812-12.277344 16.441406-28.066407 16.441406-45.28125 0-39.003907-31.734375-70.738281-70.738281-70.738281-34.105469 0-62.648438 24.257812-69.285156 56.429687-7.082032-5.675781-15.128907-10.1875-23.859376-13.246094 10.257813-12.277343 16.441407-28.070312 16.441407-45.28125 0-39.007812-31.734375-70.742187-70.738281-70.742187-39.007813 0-70.742188 31.734375-70.742188 70.742187 0 17.210938 6.1875 33.003907 16.441406 45.28125-8.699218 3.046875-16.722656 7.539063-23.789062 13.191407-6.65625-32.144532-35.183594-56.375-69.273438-56.375-39.003906 0-70.738281 31.734374-70.738281 70.738281 0 17.214843 6.183594 33.003906 16.441406 45.28125-31.582031 11.066406-54.300781 41.15625-54.300781 76.46875v77.726562h512v-77.726562c0-35.3125-22.71875-65.402344-54.300781-76.46875zm-54.296875-86.015625c22.460937 0 40.734375 18.273437 40.734375 40.734375 0 22.460937-18.273438 40.734375-40.734375 40.734375-22.464844 0-40.738282-18.273438-40.738282-40.734375 0-22.460938 18.273438-40.734375 40.738282-40.734375zm-147.445313-72.839844c22.464844 0 40.738281 18.277344 40.738281 40.738281 0 22.460938-18.273437 40.734375-40.738281 40.734375-22.460937 0-40.734375-18.273437-40.734375-40.734375 0-22.460937 18.273438-40.738281 40.734375-40.738281zm-147.359375 72.839844c22.460938 0 40.738282 18.273437 40.738282 40.734375 0 22.460937-18.277344 40.734375-40.738282 40.734375-22.460937 0-40.734375-18.273438-40.734375-40.734375 0-22.460938 18.273438-40.734375 40.734375-40.734375zm-78.59375 210.207031v-47.722656c0-28.125 22.882813-51.007813 51.007813-51.007813h55.171875c3.839844 0 7.578125.429688 11.175781 1.238282v97.492187zm304.546875 0h-157.1875v-120.5625c0-28.125 22.882813-51.007813 51.007813-51.007813h55.171875c28.125 0 51.007812 22.882813 51.007812 51.007813zm147.445313 0h-117.4375v-97.453125c3.625-.820312 7.386718-1.277344 11.257812-1.277344h55.171875c28.125 0 51.007813 22.882813 51.007813 51.007813zm0 0" fill="#007afe" data-original="#000000" style="" class=""/></g></svg>
