<svg width="425" height="317" viewBox="0 0 425 317" fill="none" xmlns="http://www.w3.org/2000/svg">
<path d="M425 278.29H0V278.503H425V278.29Z" fill="#E0E0E0"/>
<path d="M82.263 283.424H73.355V283.637H82.263V283.424Z" fill="#E0E0E0"/>
<path d="M384.132 289H350.2V289.213H384.132V289Z" fill="#E0E0E0"/>
<path d="M358.836 283.526H332.775V283.739H358.836V283.526Z" fill="#E0E0E0"/>
<path d="M282.77 288.371H240.423V288.584H282.77V288.371Z" fill="#E0E0E0"/>
<path d="M166.124 287.028H121.55V287.24H166.124V287.028Z" fill="#E0E0E0"/>
<path d="M334.815 289H323.527V289.213H334.815V289Z" fill="#E0E0E0"/>
<path d="M69.1902 286.926H55.1907V287.138H69.1902V286.926Z" fill="#E0E0E0"/>
<path d="M201.45 240.38H37.3235C36.0378 240.378 34.8054 239.865 33.8971 238.955C32.9887 238.045 32.4785 236.812 32.4785 235.527V4.811C32.4897 3.53262 33.0048 2.31028 33.912 1.40949C34.8192 0.508689 36.0451 0.00218993 37.3235 0H201.45C202.737 0 203.972 0.51135 204.882 1.42156C205.792 2.33177 206.304 3.56627 206.304 4.8535V235.527C206.304 236.814 205.792 238.048 204.882 238.958C203.972 239.869 202.737 240.38 201.45 240.38ZM37.3235 0.170001C36.0941 0.172252 34.9158 0.662205 34.0473 1.53232C33.1788 2.40243 32.691 3.5816 32.691 4.811V235.527C32.691 236.756 33.1788 237.935 34.0473 238.805C34.9158 239.675 36.0941 240.165 37.3235 240.167H201.45C202.68 240.165 203.859 239.676 204.729 238.806C205.599 237.936 206.089 236.757 206.091 235.527V4.811C206.089 3.58082 205.599 2.40167 204.729 1.5318C203.859 0.661929 202.68 0.172248 201.45 0.170001H37.3235Z" fill="#E0E0E0"/>
<path d="M385.313 240.38H221.178C219.892 240.378 218.659 239.866 217.749 238.956C216.839 238.046 216.327 236.813 216.325 235.527V4.811C216.338 3.53185 216.855 2.30952 217.764 1.40895C218.672 0.508392 219.899 0.00216605 221.178 0H385.313C386.59 0.00442382 387.814 0.511912 388.719 1.41247C389.625 2.31303 390.139 3.53409 390.15 4.811V235.527C390.15 236.811 389.641 238.043 388.734 238.952C387.828 239.862 386.598 240.376 385.313 240.38ZM221.178 0.170001C219.948 0.172248 218.769 0.661929 217.899 1.5318C217.029 2.40167 216.54 3.58082 216.537 4.811V235.527C216.54 236.757 217.029 237.936 217.899 238.806C218.769 239.676 219.948 240.165 221.178 240.167H385.313C386.544 240.165 387.723 239.676 388.593 238.806C389.463 237.936 389.952 236.757 389.954 235.527V4.811C389.952 3.58082 389.463 2.40167 388.593 1.5318C387.723 0.661929 386.544 0.172248 385.313 0.170001H221.178Z" fill="#E0E0E0"/>
<path d="M58.718 197.803L186.813 197.803L186.813 20.621L58.718 20.621L58.718 197.803Z" fill="#E0E0E0"/>
<path d="M55.8703 197.803L183.965 197.803L183.965 20.621L55.8703 20.621L55.8703 197.803Z" fill="#F0F0F0"/>
<path d="M178.857 192.636V25.789L60.9789 25.789L60.9789 192.636H178.857Z" fill="#FAFAFA"/>
<path d="M106.36 192.644L106.36 25.7975H98.6594L98.6594 192.644H106.36Z" fill="#E0E0E0"/>
<path d="M146.872 192.644V25.7975H139.171V192.644H146.872Z" fill="#E0E0E0"/>
<path d="M103.649 195.917L103.649 21.947H95.9479L95.9479 195.917H103.649Z" fill="#F0F0F0"/>
<path d="M144.168 195.925V21.9555H136.467V195.925H144.168Z" fill="#F0F0F0"/>
<path d="M63.1294 192.635L63.1294 25.789H60.9789L60.9789 192.635H63.1294Z" fill="#E0E0E0"/>
<path d="M53.7287 13.9825H190.757C190.932 13.9825 191.099 14.0512 191.223 14.1737C191.347 14.2962 191.418 14.4627 191.42 14.637C191.42 14.8129 191.35 14.9815 191.226 15.1058C191.102 15.2302 190.933 15.3 190.757 15.3H53.7287C53.5528 15.3 53.3842 15.2302 53.2599 15.1058C53.1355 14.9815 53.0657 14.8129 53.0657 14.637C53.0679 14.4627 53.1387 14.2962 53.2628 14.1737C53.3869 14.0512 53.5543 13.9825 53.7287 13.9825Z" fill="#E0E0E0"/>
<path d="M49.7761 14.637C49.7745 15.29 49.9667 15.9288 50.3284 16.4724C50.6901 17.0161 51.2051 17.4401 51.8081 17.6908C52.4111 17.9415 53.0749 18.0075 53.7154 17.8805C54.356 17.7535 54.9444 17.4393 55.4062 16.9775C55.8679 16.5158 56.1822 15.9273 56.3092 15.2868C56.4361 14.6463 56.3701 13.9824 56.1195 13.3795C55.8688 12.7765 55.4448 12.2615 54.9011 11.8998C54.3574 11.538 53.7186 11.3458 53.0656 11.3475C52.1939 11.3497 51.3585 11.697 50.7421 12.3134C50.1257 12.9299 49.7784 13.7652 49.7761 14.637Z" fill="#E0E0E0"/>
<path d="M185.198 18.326C185.313 18.3318 185.428 18.314 185.536 18.2739C185.644 18.2338 185.743 18.1721 185.827 18.0926C185.91 18.0131 185.976 17.9174 186.022 17.8114C186.067 17.7054 186.09 17.5913 186.09 17.476V15.5295C186.09 15.4142 186.067 15.3001 186.022 15.1941C185.976 15.0881 185.91 14.9924 185.827 14.9129C185.743 14.8334 185.644 14.7717 185.536 14.7316C185.428 14.6915 185.313 14.6737 185.198 14.6795C184.972 14.6795 184.756 14.7691 184.597 14.9285C184.437 15.0879 184.348 15.3041 184.348 15.5295V17.442C184.343 17.5565 184.362 17.6707 184.403 17.7777C184.443 17.8848 184.505 17.9826 184.584 18.0651C184.664 18.1477 184.759 18.2134 184.865 18.2582C184.97 18.303 185.083 18.3261 185.198 18.326Z" fill="#E0E0E0"/>
<path d="M63.665 18.326C63.8904 18.326 64.1066 18.2364 64.266 18.077C64.4254 17.9176 64.515 17.7014 64.515 17.476V15.5295C64.515 15.3041 64.4254 15.0879 64.266 14.9285C64.1066 14.7691 63.8904 14.6795 63.665 14.6795C63.5498 14.6737 63.4347 14.6915 63.3266 14.7316C63.2185 14.7717 63.1197 14.8334 63.0362 14.9129C62.9528 14.9924 62.8863 15.0881 62.841 15.1941C62.7956 15.3001 62.7723 15.4142 62.7725 15.5295V17.442C62.7676 17.5601 62.7874 17.678 62.8306 17.788C62.8739 17.898 62.9396 17.9978 63.0236 18.081C63.1076 18.1642 63.208 18.229 63.3184 18.2711C63.4289 18.3133 63.5469 18.332 63.665 18.326Z" fill="#E0E0E0"/>
<path opacity="0.4" d="M53.9411 100.487L181.943 100.487V14.637L53.9411 14.637V100.487Z" fill="#E0E0E0"/>
<path d="M171.309 14.637C171.307 15.2896 171.499 15.9281 171.861 16.4716C172.222 17.0151 172.737 17.4391 173.339 17.69C173.942 17.9409 174.605 18.0075 175.245 17.8812C175.886 17.7549 176.474 17.4414 176.936 16.9806C177.398 16.5197 177.713 15.932 177.841 15.292C177.969 14.6521 177.904 13.9885 177.655 13.3854C177.405 12.7823 176.983 12.2667 176.44 11.9039C175.898 11.5411 175.26 11.3475 174.607 11.3475C173.734 11.3475 172.896 11.6938 172.278 12.3105C171.66 12.9271 171.311 13.7638 171.309 14.637Z" fill="#E0E0E0"/>
<path d="M268.32 131.036C268.32 131.036 279.438 111.877 264.019 96.628C264.019 96.628 259.998 99.2545 260.058 102.782C260.117 106.309 264.367 107.193 263.458 110.143C262.548 113.092 258.536 115.965 261.171 118.405C263.806 120.844 260.746 122.995 260.925 125.979C261.103 128.962 268.32 131.036 268.32 131.036Z" fill="#E0E0E0"/>
<path d="M266.577 134.172C266.577 134.172 262.072 112.48 281.511 102.875C281.511 102.875 284.503 106.632 283.339 109.956C282.174 113.279 277.856 112.795 277.788 115.906C277.72 119.017 280.627 122.995 277.363 124.474C274.099 125.953 276.309 128.97 275.204 131.741C274.099 134.512 266.577 134.172 266.577 134.172Z" fill="#E6E6E6"/>
<path d="M280.747 122.34C280.747 122.34 280.475 148.597 269.986 148.597C259.497 148.597 259.25 122.34 259.25 122.34H280.747Z" fill="#F0F0F0"/>
<path d="M343.817 138.72C343.817 138.72 343.23 148.597 320.816 148.597C298.401 148.597 297.815 138.72 297.815 138.72H343.817Z" fill="#E6E6E6"/>
<path d="M115.098 248.574H126.93C128.404 248.574 129.599 247.379 129.599 245.905V226.338C129.599 224.864 128.404 223.669 126.93 223.669H115.098C113.624 223.669 112.429 224.864 112.429 226.338V245.905C112.429 247.379 113.624 248.574 115.098 248.574Z" fill="#F0F0F0"/>
<path d="M83.7249 248.565H91.6894C92.6799 248.565 93.4829 247.763 93.4829 246.772V233.597C93.4829 232.606 92.6799 231.803 91.6894 231.803H83.7249C82.7344 231.803 81.9314 232.606 81.9314 233.597V246.772C81.9314 247.763 82.7344 248.565 83.7249 248.565Z" fill="#E6E6E6"/>
<path d="M82.5349 232.067H92.8794C93.2127 232.067 93.4829 231.797 93.4829 231.463V230.784C93.4829 230.45 93.2127 230.18 92.8794 230.18H82.5349C82.2016 230.18 81.9314 230.45 81.9314 230.784V231.463C81.9314 231.797 82.2016 232.067 82.5349 232.067Z" fill="#F0F0F0"/>
<path d="M156.987 234.711C156.987 234.711 156.562 248.566 140.335 248.566C124.109 248.566 123.684 234.711 123.684 234.711H156.987Z" fill="#E6E6E6"/>
<path d="M197.345 248.565H172.788V253.411H197.345V248.565Z" fill="#E0E0E0"/>
<path d="M50.7026 253.419L172.788 253.419V248.574L50.7026 248.574V253.419Z" fill="#F0F0F0"/>
<path d="M197.345 261.494H172.788V266.339H197.345V261.494Z" fill="#E0E0E0"/>
<path d="M50.7026 266.339H172.788V261.494H50.7026V266.339Z" fill="#F0F0F0"/>
<path d="M188.496 278.29H193.026V253.411H188.496V278.29Z" fill="#E0E0E0"/>
<path d="M168.258 278.29H172.788V253.411H168.258V278.29Z" fill="#F0F0F0"/>
<path d="M66.4104 278.29H70.9409V253.411H66.4104V278.29Z" fill="#E0E0E0"/>
<path d="M50.711 278.29H55.2415V253.411H50.711V278.29Z" fill="#F0F0F0"/>
<path d="M343.817 271.906H367.039V154.751H343.817V271.906Z" fill="#E6E6E6"/>
<path d="M248.064 278.29H362.576V271.907H248.064V278.29Z" fill="#E6E6E6"/>
<path d="M343.817 154.76H243.61V271.915H343.817V154.76Z" fill="#F0F0F0"/>
<path d="M334.687 199.826H252.739V226.831H334.687V199.826Z" fill="#E6E6E6"/>
<path d="M334.687 232.858H252.739V259.862H334.687V232.858Z" fill="#E6E6E6"/>
<path d="M284.512 203.448H302.914C303.513 203.445 304.087 203.206 304.511 202.783C304.934 202.359 305.173 201.785 305.175 201.187C305.175 200.586 304.938 200.01 304.514 199.585C304.09 199.159 303.515 198.919 302.914 198.917H284.512C283.912 198.919 283.336 199.159 282.913 199.585C282.489 200.01 282.251 200.586 282.251 201.187C282.253 201.785 282.492 202.359 282.916 202.783C283.339 203.206 283.913 203.445 284.512 203.448Z" fill="#F0F0F0"/>
<path d="M334.687 166.804H252.739V193.809H334.687V166.804Z" fill="#E6E6E6"/>
<path d="M284.512 170.425H302.914C303.515 170.423 304.09 170.183 304.514 169.757C304.938 169.332 305.175 168.756 305.175 168.156C305.173 167.557 304.934 166.983 304.511 166.559C304.087 166.136 303.513 165.897 302.914 165.895H284.512C283.913 165.897 283.339 166.136 282.916 166.559C282.492 166.983 282.253 167.557 282.251 168.156C282.251 168.756 282.489 169.332 282.913 169.757C283.336 170.183 283.912 170.423 284.512 170.425Z" fill="#F0F0F0"/>
<path d="M284.512 236.478H302.914C303.515 236.476 304.09 236.236 304.514 235.811C304.938 235.385 305.175 234.809 305.175 234.209C305.173 233.61 304.934 233.036 304.511 232.613C304.087 232.189 303.513 231.95 302.914 231.948H284.512C283.913 231.95 283.339 232.189 282.916 232.613C282.492 233.036 282.253 233.61 282.251 234.209C282.251 234.809 282.489 235.385 282.913 235.811C283.336 236.236 283.912 236.476 284.512 236.478Z" fill="#F0F0F0"/>
<path d="M240.516 154.751H343.816V148.588H240.516V154.751Z" fill="#E6E6E6"/>
<path d="M370.285 148.597H343.816V154.76H370.285V148.597Z" fill="#E0E0E0"/>
<path d="M306.969 92.021H354.306V38.318L306.969 38.318V92.021Z" fill="#E6E6E6"/>
<path d="M301.665 92.021H352.181V38.318L301.665 38.318V92.021Z" fill="#F0F0F0"/>
<path d="M347.956 87.788V42.551H305.906V87.788H347.956Z" fill="#FAFAFA"/>
<path d="M337.765 76.823V53.516H316.098V76.823H337.765Z" fill="#F0F0F0"/>
<path d="M255.408 62.305L290.929 62.305V22.4655L255.408 22.4655V62.305Z" fill="#E6E6E6"/>
<path d="M251.472 62.305L288.949 62.305V22.4655L251.472 22.4655V62.305Z" fill="#F0F0F0"/>
<path d="M285.804 59.16V25.602L254.609 25.602V59.16H285.804Z" fill="#FAFAFA"/>
<path d="M270.206 33.9065L278.74 48.6795H261.681L270.206 33.9065Z" fill="#F0F0F0"/>
<path d="M212.5 316.676C303.52 316.676 377.307 312.368 377.307 307.054C377.307 301.74 303.52 297.432 212.5 297.432C121.48 297.432 47.6936 301.74 47.6936 307.054C47.6936 312.368 121.48 316.676 212.5 316.676Z" fill="#F5F5F5"/>
<path d="M332.767 92.8965H261.996C259.244 92.8965 256.605 93.9871 254.657 95.9292C252.708 97.8714 251.609 100.507 251.6 103.258V141.559C251.609 144.306 252.705 146.937 254.648 148.879C256.591 150.82 259.223 151.914 261.97 151.92H269.136L266.373 163.2C270.419 162.831 274.347 161.642 277.919 159.706C281.49 157.77 284.63 155.126 287.147 151.938H332.767C335.513 151.931 338.146 150.837 340.089 148.896C342.032 146.954 343.128 144.323 343.137 141.576V103.258C343.128 100.511 342.032 97.8797 340.089 95.9382C338.146 93.9968 335.513 92.9032 332.767 92.8965Z" fill="#407BFF"/>
<path opacity="0.3" d="M332.767 92.8965H261.996C259.244 92.8965 256.605 93.9871 254.657 95.9292C252.708 97.8714 251.609 100.507 251.6 103.258V141.559C251.609 144.306 252.705 146.937 254.648 148.879C256.591 150.82 259.223 151.914 261.97 151.92H269.136L266.373 163.2C270.419 162.831 274.347 161.642 277.919 159.706C281.49 157.77 284.63 155.126 287.147 151.938H332.767C335.513 151.931 338.146 150.837 340.089 148.896C342.032 146.954 343.128 144.323 343.137 141.576V103.258C343.128 100.511 342.032 97.8797 340.089 95.9382C338.146 93.9968 335.513 92.9032 332.767 92.8965Z" fill="black"/>
<path d="M324.428 131.163C329.263 131.163 333.183 127.244 333.183 122.408C333.183 117.573 329.263 113.654 324.428 113.654C319.593 113.654 315.673 117.573 315.673 122.408C315.673 127.244 319.593 131.163 324.428 131.163Z" fill="#407BFF"/>
<path d="M297.381 131.163C302.216 131.163 306.136 127.244 306.136 122.408C306.136 117.573 302.216 113.654 297.381 113.654C292.546 113.654 288.626 117.573 288.626 122.408C288.626 127.244 292.546 131.163 297.381 131.163Z" fill="#407BFF"/>
<path d="M270.342 131.163C275.178 131.163 279.097 127.244 279.097 122.408C279.097 117.573 275.178 113.654 270.342 113.654C265.507 113.654 261.587 117.573 261.587 122.408C261.587 127.244 265.507 131.163 270.342 131.163Z" fill="#407BFF"/>
<g opacity="0.1">
<path opacity="0.1" d="M324.428 131.163C329.263 131.163 333.183 127.244 333.183 122.408C333.183 117.573 329.263 113.654 324.428 113.654C319.593 113.654 315.673 117.573 315.673 122.408C315.673 127.244 319.593 131.163 324.428 131.163Z" fill="#FAFAFA"/>
<path opacity="0.1" d="M297.381 131.163C302.216 131.163 306.136 127.244 306.136 122.408C306.136 117.573 302.216 113.654 297.381 113.654C292.546 113.654 288.626 117.573 288.626 122.408C288.626 127.244 292.546 131.163 297.381 131.163Z" fill="#FAFAFA"/>
<path opacity="0.1" d="M270.342 131.163C275.178 131.163 279.097 127.244 279.097 122.408C279.097 117.573 275.178 113.654 270.342 113.654C265.507 113.654 261.587 117.573 261.587 122.408C261.587 127.244 265.507 131.163 270.342 131.163Z" fill="#FAFAFA"/>
</g>
<path d="M159.23 37.9015H230.01C232.757 37.9105 235.39 39.0059 237.333 40.9487C239.276 42.8915 240.371 45.524 240.38 48.2715V86.564C240.362 89.3056 239.263 91.9294 237.321 93.8649C235.379 95.8003 232.752 96.8911 230.01 96.9H222.844L225.632 108.154C221.586 107.786 217.657 106.599 214.084 104.664C210.511 102.729 207.369 100.088 204.85 96.9H159.23C156.484 96.891 153.852 95.7953 151.911 93.8523C149.969 91.9092 148.876 89.2768 148.869 86.53V48.28C148.873 45.5318 149.966 42.8971 151.908 40.9522C153.849 39.0073 156.482 37.9105 159.23 37.9015Z" fill="#407BFF"/>
<path opacity="0.1" d="M159.23 37.9015H230.01C232.757 37.9105 235.39 39.0059 237.333 40.9487C239.276 42.8915 240.371 45.524 240.38 48.2715V86.564C240.362 89.3056 239.263 91.9294 237.321 93.8649C235.379 95.8003 232.752 96.8911 230.01 96.9H222.844L225.632 108.154C221.586 107.786 217.657 106.599 214.084 104.664C210.511 102.729 207.369 100.088 204.85 96.9H159.23C156.484 96.891 153.852 95.7953 151.911 93.8523C149.969 91.9092 148.876 89.2768 148.869 86.53V48.28C148.873 45.5318 149.966 42.8971 151.908 40.9522C153.849 39.0073 156.482 37.9105 159.23 37.9015Z" fill="#FAFAFA"/>
<path d="M227.842 51.238H161.398V57.528H227.842V51.238Z" fill="#407BFF"/>
<path d="M212.644 64.2685H161.398V70.5585H212.644V64.2685Z" fill="#407BFF"/>
<path d="M219.334 77.3075H161.398V83.5975H219.334V77.3075Z" fill="#407BFF"/>
<g opacity="0.3">
<path opacity="0.3" d="M227.842 51.238H161.398V57.528H227.842V51.238Z" fill="black"/>
<path opacity="0.3" d="M212.644 64.2685H161.398V70.5585H212.644V64.2685Z" fill="black"/>
<path opacity="0.3" d="M219.334 77.3075H161.398V83.5975H219.334V77.3075Z" fill="black"/>
</g>
<path d="M253.342 217.863C252.875 217.863 252.399 217.863 251.914 217.906C241.816 218.628 233.648 227.179 233.002 237.702C232.859 240.026 233.079 242.358 233.656 244.613C235.885 253.664 236.959 262.96 236.852 272.28V299.48C236.834 300.404 237.181 301.297 237.818 301.965C238.454 302.634 239.329 303.024 240.252 303.05H307.7V217.863H253.342Z" fill="#407BFF"/>
<path opacity="0.3" d="M253.342 217.863C252.875 217.863 252.399 217.863 251.914 217.906C241.816 218.628 233.648 227.179 233.002 237.702C232.859 240.026 233.079 242.358 233.656 244.613C235.885 253.664 236.959 262.96 236.852 272.28V299.48C236.834 300.404 237.181 301.297 237.818 301.965C238.454 302.634 239.329 303.024 240.252 303.05H307.7V217.863H253.342Z" fill="black"/>
<path d="M328.1 239.097C328.1 226.882 318.197 217.064 306.289 217.914C296.191 218.637 288.022 227.188 287.376 237.711C287.233 240.035 287.454 242.366 288.031 244.622C290.259 253.672 291.333 262.969 291.227 272.289V299.489C291.209 300.412 291.555 301.305 292.192 301.974C292.829 302.642 293.704 303.032 294.627 303.059H320.764C321.688 303.035 322.564 302.645 323.201 301.976C323.839 301.307 324.185 300.413 324.164 299.489V270.691C324.108 261.958 325.188 253.254 327.377 244.8C327.864 242.938 328.107 241.021 328.1 239.097Z" fill="#407BFF"/>
<path d="M279.633 251.311H193.647V303.008H279.633V251.311Z" fill="#407BFF"/>
<path opacity="0.3" d="M279.633 251.311H193.647V303.008H279.633V251.311Z" fill="black"/>
<path d="M148.002 189.388H242.947C247.122 189.388 251.126 191.047 254.078 193.999C257.03 196.951 258.689 200.955 258.689 205.13V262.999H132.251V205.13C132.251 203.063 132.659 201.015 133.451 199.104C134.242 197.194 135.403 195.458 136.865 193.996C138.328 192.534 140.064 191.375 141.975 190.584C143.886 189.794 145.934 189.387 148.002 189.388Z" fill="#407BFF"/>
<path opacity="0.4" d="M148.002 189.388H242.947C247.122 189.388 251.126 191.047 254.078 193.999C257.03 196.951 258.689 200.955 258.689 205.13V262.999H132.251V205.13C132.251 203.063 132.659 201.015 133.451 199.104C134.242 197.194 135.403 195.458 136.865 193.996C138.328 192.534 140.064 191.375 141.975 190.584C143.886 189.794 145.934 189.387 148.002 189.388Z" fill="black"/>
<path d="M166.668 189.388H247.826C251.8 189.388 255.612 190.967 258.422 193.778C261.233 196.588 262.811 200.4 262.811 204.374V263.024H151.682V204.374C151.682 202.406 152.07 200.457 152.823 198.639C153.576 196.821 154.68 195.169 156.072 193.778C157.463 192.386 159.115 191.282 160.933 190.529C162.751 189.776 164.7 189.388 166.668 189.388Z" fill="#407BFF"/>
<path d="M198.56 245.93H278.52C279.75 245.93 280.931 246.419 281.801 247.29C282.672 248.16 283.16 249.341 283.16 250.572V263.007C283.16 264.238 282.672 265.418 281.801 266.289C280.931 267.159 279.75 267.648 278.52 267.648H198.56C198.193 267.648 197.84 267.502 197.58 267.242C197.32 266.982 197.174 266.63 197.174 266.263V247.35C197.17 247.165 197.202 246.981 197.27 246.809C197.338 246.637 197.439 246.481 197.568 246.348C197.697 246.216 197.851 246.111 198.022 246.039C198.192 245.967 198.375 245.93 198.56 245.93Z" fill="#407BFF"/>
<path opacity="0.4" d="M198.56 245.93H278.52C279.75 245.93 280.931 246.419 281.801 247.29C282.672 248.16 283.16 249.341 283.16 250.572V263.007C283.16 264.238 282.672 265.418 281.801 266.289C280.931 267.159 279.75 267.648 278.52 267.648H198.56C198.193 267.648 197.84 267.502 197.58 267.242C197.32 266.982 197.174 266.63 197.174 266.263V247.35C197.17 247.165 197.202 246.981 197.27 246.809C197.338 246.637 197.439 246.481 197.568 246.348C197.697 246.216 197.851 246.111 198.022 246.039C198.192 245.967 198.375 245.93 198.56 245.93Z" fill="black"/>
<path d="M123.904 303.016H308.754V303.067C308.754 303.744 308.485 304.392 308.007 304.871C307.529 305.349 306.88 305.617 306.204 305.617H126.437C125.761 305.617 125.113 305.349 124.634 304.871C124.156 304.392 123.887 303.744 123.887 303.067V303.016H123.904Z" fill="#407BFF"/>
<path opacity="0.4" d="M123.904 303.016H308.754V303.067C308.754 303.744 308.485 304.392 308.007 304.871C307.529 305.349 306.88 305.617 306.204 305.617H126.437C125.761 305.617 125.113 305.349 124.634 304.871C124.156 304.392 123.887 303.744 123.887 303.067V303.016H123.904Z" fill="black"/>
<path d="M234.362 180.829L234.702 182.214L235.093 183.719C235.365 184.722 235.654 185.734 235.943 186.737C236.546 188.76 237.201 190.783 237.881 192.797C238.561 194.812 239.266 196.835 240.031 198.832C240.414 199.835 240.788 200.838 241.179 201.833L241.646 203.031C241.74 203.238 241.863 203.43 242.012 203.601C243.145 204.749 244.526 205.621 246.049 206.151C247.919 206.892 249.843 207.489 251.804 207.936C253.827 208.403 255.909 208.785 258.017 209.117C260.125 209.448 262.267 209.712 264.358 209.967L264.435 214.26C259.884 214.715 255.297 214.695 250.75 214.2C248.367 213.96 246.011 213.502 243.712 212.832C242.467 212.46 241.256 211.985 240.091 211.412C238.75 210.761 237.522 209.9 236.453 208.862C235.834 208.248 235.297 207.557 234.855 206.805C234.736 206.609 234.634 206.397 234.523 206.185L234.319 205.76L233.945 205.003C233.452 203.991 232.959 202.971 232.5 201.943C231.574 199.886 230.681 197.82 229.874 195.704C229.066 193.587 228.293 191.454 227.604 189.27C227.273 188.173 226.958 187.076 226.661 185.954L226.227 184.254C226.091 183.659 225.981 183.15 225.845 182.436L234.362 180.829Z" fill="#B55B52"/>
<path d="M231.65 171.793C235.05 172.643 237.464 186.745 237.464 186.745L228.038 193.154C228.038 193.154 218.994 178.95 221.629 175.193C224.4 171.275 226.652 170.527 231.65 171.793Z" fill="#407BFF"/>
<path opacity="0.5" d="M231.65 171.793C235.05 172.643 237.464 186.745 237.464 186.745L228.038 193.154C228.038 193.154 218.994 178.95 221.629 175.193C224.4 171.275 226.652 170.527 231.65 171.793Z" fill="#FAFAFA"/>
<path d="M231.956 176.911L224.638 178.611L223.932 185.767C225.174 188.298 226.544 190.763 228.038 193.154L233.75 189.27C233.512 185.98 232.9 179.138 231.956 176.911Z" fill="#407BFF"/>
<path opacity="0.3" d="M231.956 176.911L224.638 178.611L223.932 185.767C225.174 188.298 226.544 190.763 228.038 193.154L233.75 189.27C233.512 185.98 232.9 179.138 231.956 176.911Z" fill="#FAFAFA"/>
<path d="M263.151 209.89L269.042 203.94L269.815 212.347C269.815 212.347 265.395 215.33 262.344 213.724L263.151 209.89Z" fill="#B55B52"/>
<path d="M275.961 203.031L276.225 210.103L269.815 212.33L269.042 203.924L275.961 203.031Z" fill="#B55B52"/>
<path d="M231.651 171.793C231.651 171.793 235.603 173.187 227.681 221.892H193.97C194.54 208.173 194.557 199.707 188.02 171.555C192.728 170.581 197.501 169.951 202.3 169.668C207.393 169.303 212.507 169.303 217.6 169.668C224.196 170.272 231.651 171.793 231.651 171.793Z" fill="#407BFF"/>
<path opacity="0.5" d="M231.651 171.793C231.651 171.793 235.603 173.187 227.681 221.892H193.97C194.54 208.173 194.557 199.707 188.02 171.555C192.728 170.581 197.501 169.951 202.3 169.668C207.393 169.303 212.507 169.303 217.6 169.668C224.196 170.272 231.651 171.793 231.651 171.793Z" fill="#FAFAFA"/>
<path d="M221.527 170.11C220.235 169.94 218.909 169.787 217.617 169.668C212.524 169.303 207.41 169.303 202.317 169.668C201.136 169.728 199.963 169.813 198.832 169.923L199.079 170.697C199.215 171.13 202.589 181.398 214.753 186.847L217.082 187.892L218.731 185.937C220.606 183.811 221.859 181.209 222.353 178.417C222.846 175.625 222.56 172.751 221.527 170.11Z" fill="#407BFF"/>
<path opacity="0.3" d="M221.527 170.11C220.235 169.94 218.909 169.787 217.617 169.668C212.524 169.303 207.41 169.303 202.317 169.668C201.136 169.728 199.963 169.813 198.832 169.923L199.079 170.697C199.215 171.13 202.589 181.398 214.753 186.847L217.082 187.892L218.731 185.937C220.606 183.811 221.859 181.209 222.353 178.417C222.846 175.625 222.56 172.751 221.527 170.11Z" fill="black"/>
<path d="M195.925 184.628L191.573 188.326C192.508 193.256 193.128 197.362 193.528 201.008C194.344 197.345 196.409 187.425 195.925 184.628Z" fill="#407BFF"/>
<path opacity="0.3" d="M195.925 184.628L191.573 188.326C192.508 193.256 193.128 197.362 193.528 201.008C194.344 197.345 196.409 187.425 195.925 184.628Z" fill="#FAFAFA"/>
<path d="M208.42 127.5C199.495 124.704 194.523 134.3 195.381 146.302C196.002 154.904 194.267 158.653 189.125 158.398C191.53 164.05 221.85 172.55 230.622 162.444C228.157 161.109 226.924 155.167 228.726 149.846C232.806 137.844 229.024 119.723 208.42 127.5Z" fill="#263238"/>
<path d="M203.83 152.43C204.79 157.36 205.759 166.379 202.308 169.668C202.308 169.668 205.224 178.857 216.129 183.745C217.774 181.825 218.796 179.45 219.059 176.936C219.321 174.421 218.813 171.887 217.6 169.668C212.109 168.359 212.253 164.279 213.205 160.454L203.83 152.43Z" fill="#B55B52"/>
<path d="M207.655 155.703L213.222 160.454C212.986 161.343 212.827 162.25 212.746 163.166C210.647 162.868 207.765 160.565 207.544 158.363C207.42 157.477 207.458 156.576 207.655 155.703Z" fill="#9E4541"/>
<path d="M204.289 138.652C202.359 146.659 201.373 150.008 204.102 155.261C208.207 163.158 218.467 163.761 222.751 156.511C226.61 149.966 229.117 137.972 222.385 132.481C220.906 131.263 219.141 130.444 217.256 130.101C215.371 129.758 213.43 129.902 211.617 130.521C209.803 131.139 208.178 132.211 206.896 133.634C205.613 135.057 204.716 136.784 204.289 138.652Z" fill="#B55B52"/>
<path d="M202.869 143.352C202.869 143.352 219.444 138.193 211.862 129.48C202.937 131.682 202.869 134.3 202.869 134.3V143.352Z" fill="#263238"/>
<path d="M212.916 134.445C219.155 135.091 225.36 138.763 227.366 142.095C228.522 136.425 224.459 129.345 219.937 128.35C215.415 127.356 209.95 129.481 209.95 129.481L212.916 134.445Z" fill="#263238"/>
<path d="M200.166 143.964C200.139 145.551 200.716 147.089 201.781 148.265C203.209 149.812 204.943 148.801 205.402 146.889C205.81 145.189 205.564 142.273 203.702 141.44C201.841 140.607 200.217 142.026 200.166 143.964Z" fill="#B55B52"/>
<path d="M270.223 228.489C251.404 228.225 239.071 241.145 239.071 241.145C240.873 246.373 242.012 250.3 242.012 250.3C252.322 248.472 264.035 247.665 273.691 245.344C282.412 243.245 283.415 232.722 282.523 228.344C281.63 223.967 276.683 222.955 271.838 221.544C266.305 219.955 255.739 219.912 248.166 219.963C240.176 220.006 229.678 220.762 224.238 221.91C224.238 221.91 212.687 221.544 204.136 221.757C199.138 221.043 202.079 228.302 209.967 234.447C214.056 237.566 218.736 239.821 223.723 241.076C228.71 242.331 233.899 242.56 238.977 241.749H239.037" fill="#263238"/>
<path d="M240.839 249.05L238.442 240.04C238.405 239.883 238.312 239.745 238.181 239.653C238.049 239.56 237.888 239.52 237.728 239.539L230.324 240.389C230.134 240.415 229.952 240.482 229.791 240.585C229.629 240.689 229.492 240.826 229.388 240.987C229.285 241.149 229.218 241.331 229.191 241.521C229.165 241.711 229.181 241.905 229.236 242.089C230.129 245.217 230.715 246.679 231.786 250.64C232.432 253.079 233.486 258.188 234.413 261.554C235.339 264.92 238.663 264.214 238.62 262.735C238.297 256.088 239.47 253.122 240.72 250.529C240.933 250.066 240.975 249.542 240.839 249.05Z" fill="#263238"/>
<path d="M241.833 254.363C241.637 254.361 241.444 254.302 241.281 254.192C240.286 253.546 239.997 251.175 239.912 249.824C239.91 249.795 239.916 249.766 239.931 249.741C239.946 249.717 239.968 249.697 239.994 249.686C240.021 249.674 240.05 249.672 240.078 249.678C240.106 249.685 240.132 249.7 240.15 249.722C240.431 250.028 242.896 252.765 242.632 253.87C242.608 253.966 242.56 254.054 242.491 254.125C242.423 254.197 242.336 254.249 242.241 254.277C242.113 254.334 241.974 254.363 241.833 254.363ZM240.218 250.214C240.388 252.178 240.83 253.563 241.434 253.954C241.538 254.024 241.658 254.067 241.782 254.078C241.907 254.09 242.033 254.071 242.148 254.023C242.2 254.008 242.247 253.979 242.284 253.941C242.321 253.902 242.348 253.854 242.36 253.802C242.539 253.079 241.06 251.183 240.218 250.214Z" fill="#407BFF"/>
<path d="M240.864 250.648L237.753 238.977L241.85 237.286L247.622 249.815L240.864 250.648Z" fill="#407BFF"/>
<path opacity="0.6" d="M240.864 250.648L237.753 238.977L241.85 237.286L247.622 249.815L240.864 250.648Z" fill="#FAFAFA"/>
<path d="M243.321 251.829C242.326 251.829 240.541 250.631 239.921 249.9C239.91 249.879 239.905 249.856 239.905 249.832C239.905 249.808 239.91 249.785 239.921 249.764C239.93 249.742 239.944 249.722 239.961 249.706C239.979 249.69 240 249.678 240.023 249.671C240.116 249.671 242.301 249.271 243.423 250.045C243.58 250.149 243.714 250.286 243.815 250.445C243.916 250.605 243.982 250.784 244.009 250.971C244.094 251.473 243.882 251.685 243.695 251.762C243.579 251.818 243.45 251.841 243.321 251.829ZM240.329 249.9C241.179 250.75 242.981 251.753 243.55 251.507C243.601 251.507 243.763 251.404 243.703 251.005C243.682 250.855 243.628 250.711 243.546 250.584C243.463 250.456 243.355 250.348 243.227 250.265C242.437 249.713 240.924 249.832 240.329 249.9Z" fill="#407BFF"/>
<path d="M200.421 222.343C189.958 221 174.479 220.482 173.595 231.387C172.711 242.293 180.234 253.487 200.693 254.09C221.153 254.694 225.573 249.551 226.304 245.165C227.239 239.623 228.854 238.212 223.966 235.705C219.079 233.197 218.178 224.612 200.421 222.343Z" fill="#263238"/>
<path d="M222.555 250.912L220.15 241.902C220.104 241.747 220.116 241.581 220.185 241.435C220.254 241.289 220.375 241.173 220.524 241.111L227.383 238.187C227.558 238.12 227.745 238.09 227.932 238.1C228.119 238.11 228.301 238.159 228.468 238.244C228.635 238.329 228.782 238.448 228.899 238.593C229.017 238.739 229.103 238.907 229.151 239.088C229.933 242.25 230.154 243.814 231.208 247.775C231.854 250.215 233.452 255.187 234.353 258.553C235.254 261.919 231.965 262.99 231.293 261.664C228.267 255.714 225.743 253.759 223.397 252.118C222.984 251.827 222.687 251.4 222.555 250.912Z" fill="#263238"/>
<path d="M223.822 256.165C223.744 256.166 223.666 256.151 223.595 256.12C223.523 256.089 223.458 256.044 223.406 255.986C222.624 255.136 223.406 251.566 223.491 251.158C223.496 251.129 223.51 251.103 223.532 251.083C223.553 251.063 223.58 251.051 223.61 251.048C223.637 251.043 223.666 251.049 223.691 251.063C223.715 251.076 223.735 251.098 223.746 251.124C224.349 252.34 225.276 254.524 224.732 255.595C224.656 255.746 224.544 255.877 224.407 255.974C224.269 256.072 224.109 256.135 223.941 256.156L223.822 256.165ZM223.678 251.617C223.431 252.884 223.091 255.255 223.601 255.791C223.638 255.831 223.685 255.862 223.737 255.878C223.789 255.894 223.845 255.897 223.899 255.884C224.023 255.868 224.142 255.822 224.244 255.749C224.346 255.676 224.429 255.58 224.485 255.468C224.936 254.592 224.128 252.603 223.678 251.6V251.617Z" fill="#407BFF"/>
<path d="M221.408 254.677C221.204 254.677 220.958 254.575 220.796 254.141C220.729 253.965 220.698 253.777 220.706 253.589C220.713 253.401 220.758 253.216 220.839 253.045C221.4 251.838 223.491 251.081 223.576 251.056C223.596 251.043 223.62 251.036 223.644 251.036C223.668 251.036 223.691 251.043 223.712 251.056C223.732 251.069 223.748 251.089 223.757 251.112C223.766 251.134 223.768 251.16 223.763 251.184C223.584 252.238 222.386 254.583 221.459 254.651L221.408 254.677ZM223.431 251.413C222.879 251.643 221.502 252.263 221.094 253.164C221.036 253.298 221.006 253.443 221.006 253.589C221.006 253.735 221.036 253.88 221.094 254.014C221.23 254.388 221.417 254.371 221.468 254.363C222.054 254.337 223.134 252.578 223.431 251.413Z" fill="#407BFF"/>
<path d="M222.938 250.801L220.983 239.87L216.206 239.691L216.571 253.606L222.938 250.801Z" fill="#407BFF"/>
<path opacity="0.6" d="M222.938 250.801L220.983 239.87L216.206 239.691L216.571 253.606L222.938 250.801Z" fill="#FAFAFA"/>
<path d="M215.534 144.5C215.339 145.138 215.534 145.758 215.942 145.894C216.35 146.03 216.86 145.605 217.056 144.968C217.251 144.33 217.056 143.701 216.648 143.574C216.24 143.446 215.738 143.871 215.534 144.5Z" fill="#263238"/>
<path d="M222.768 146.727C222.573 147.373 222.768 147.993 223.176 148.121C223.584 148.248 224.094 147.832 224.29 147.195C224.485 146.557 224.29 145.928 223.882 145.801C223.474 145.673 222.972 146.09 222.768 146.727Z" fill="#263238"/>
<path d="M223.686 145.783H225.386C225.386 145.783 224.205 146.769 223.686 145.783Z" fill="#263238"/>
<path d="M220.524 147.245C220.645 148.88 220.991 150.491 221.553 152.031C221.154 152.163 220.732 152.206 220.315 152.158C219.898 152.109 219.496 151.97 219.139 151.751L220.524 147.245Z" fill="#A02724"/>
<path d="M215.56 153.153C215.552 153.157 215.543 153.159 215.534 153.159C215.525 153.159 215.517 153.157 215.509 153.153C214.218 152.459 213.246 151.292 212.797 149.898C212.792 149.882 212.79 149.865 212.792 149.849C212.793 149.833 212.798 149.817 212.806 149.802C212.814 149.788 212.825 149.775 212.838 149.765C212.851 149.756 212.866 149.748 212.882 149.744C212.914 149.736 212.947 149.741 212.976 149.757C213.004 149.772 213.025 149.798 213.035 149.83C213.47 151.145 214.379 152.251 215.585 152.932C215.609 152.946 215.628 152.967 215.639 152.993C215.65 153.018 215.652 153.047 215.645 153.073C215.639 153.1 215.623 153.124 215.602 153.142C215.58 153.159 215.553 153.169 215.526 153.17L215.56 153.153Z" fill="#263238"/>
<path d="M215.177 140.25C215.123 140.249 215.07 140.231 215.027 140.198C214.984 140.164 214.953 140.118 214.937 140.066C214.922 140.014 214.924 139.958 214.943 139.907C214.962 139.856 214.996 139.813 215.041 139.782C215.531 139.442 216.095 139.224 216.687 139.146C217.278 139.067 217.88 139.131 218.441 139.332C218.502 139.36 218.549 139.41 218.574 139.471C218.6 139.533 218.601 139.601 218.577 139.663C218.564 139.694 218.546 139.722 218.522 139.745C218.498 139.768 218.47 139.786 218.439 139.798C218.408 139.81 218.375 139.815 218.342 139.814C218.308 139.813 218.276 139.805 218.246 139.791C217.756 139.623 217.234 139.574 216.721 139.646C216.209 139.719 215.721 139.911 215.296 140.207C215.261 140.231 215.22 140.246 215.177 140.25Z" fill="#263238"/>
<path d="M227.349 144.551C227.304 144.551 227.259 144.538 227.22 144.514C227.18 144.49 227.149 144.456 227.128 144.415C226.895 143.953 226.557 143.553 226.14 143.246C225.724 142.939 225.241 142.734 224.731 142.647C224.698 142.645 224.666 142.636 224.636 142.621C224.606 142.606 224.58 142.585 224.559 142.56C224.537 142.535 224.521 142.505 224.511 142.473C224.502 142.441 224.498 142.408 224.502 142.375C224.51 142.31 224.543 142.251 224.594 142.21C224.644 142.169 224.709 142.149 224.774 142.154C225.37 142.241 225.935 142.472 226.422 142.826C226.909 143.179 227.303 143.646 227.57 144.185C227.601 144.244 227.607 144.313 227.588 144.376C227.569 144.44 227.526 144.493 227.468 144.525C227.431 144.542 227.39 144.551 227.349 144.551Z" fill="#263238"/>
<path d="M216.452 143.557H218.152C218.152 143.557 216.971 144.551 216.452 143.557Z" fill="#263238"/>
<path d="M193.468 219.912L193.196 222.93C193.077 223.168 193.358 223.405 193.749 223.405H227.851C228.148 223.405 228.403 223.253 228.42 223.066L228.726 220.048C228.726 219.836 228.488 219.657 228.148 219.657H194.012C193.907 219.648 193.802 219.667 193.706 219.712C193.611 219.757 193.529 219.826 193.468 219.912Z" fill="#407BFF"/>
<path opacity="0.3" d="M193.468 219.912L193.196 222.93C193.077 223.168 193.358 223.405 193.749 223.405H227.851C228.148 223.405 228.403 223.253 228.42 223.066L228.726 220.048C228.726 219.836 228.488 219.657 228.148 219.657H194.012C193.907 219.648 193.802 219.667 193.706 219.712C193.611 219.757 193.529 219.826 193.468 219.912Z" fill="black"/>
<path d="M198.05 223.728H197.141C196.954 223.728 196.818 223.635 196.826 223.524L197.26 219.598C197.26 219.487 197.43 219.393 197.608 219.393H198.526C198.705 219.393 198.849 219.487 198.832 219.598L198.407 223.524C198.39 223.635 198.237 223.728 198.05 223.728Z" fill="#263238"/>
<path d="M225.25 223.728H224.4C224.213 223.728 224.077 223.635 224.094 223.524L224.519 219.598C224.519 219.487 224.689 219.393 224.876 219.393H225.785C225.972 219.393 226.108 219.487 226.091 219.598L225.666 223.524C225.624 223.635 225.462 223.728 225.25 223.728Z" fill="#263238"/>
<path d="M211.65 223.728H210.732C210.553 223.728 210.409 223.635 210.426 223.524L210.851 219.598C210.851 219.487 211.029 219.393 211.208 219.393H212.126C212.304 219.393 212.44 219.487 212.432 219.598L211.998 223.524C212.007 223.635 211.845 223.728 211.65 223.728Z" fill="#263238"/>
<path d="M288.082 198.594H228.922L220.345 233.529H279.505L288.082 198.594Z" fill="#FAFAFA"/>
<path d="M258.111 227.018L221.927 235.459L198.705 228.948L198.943 227.018H258.111Z" fill="#FAFAFA"/>
<path d="M193.035 183.6C192.321 185.912 191.556 188.318 190.876 190.698C190.196 193.078 189.474 195.449 188.853 197.829C188.233 200.209 187.638 202.581 187.153 204.91C186.932 206.066 186.728 207.222 186.592 208.31C186.486 209.076 186.435 209.848 186.439 210.622C186.637 211.246 186.981 211.814 187.442 212.279C188.13 213.03 188.897 213.705 189.729 214.293C191.609 215.652 193.599 216.852 195.679 217.88C200.1 220.049 204.64 221.965 209.279 223.618L208.25 227.783C203.087 226.935 198.018 225.595 193.112 223.779C190.541 222.841 188.062 221.665 185.708 220.269C184.415 219.481 183.204 218.564 182.096 217.532C180.694 216.261 179.634 214.66 179.01 212.874C178.831 212.321 178.709 211.752 178.645 211.174V210.732V210.409V209.823C178.645 209.058 178.645 208.326 178.645 207.612C178.721 206.184 178.874 204.833 179.07 203.507C179.452 200.838 179.92 198.271 180.557 195.738C181.195 193.205 181.781 190.697 182.487 188.215C183.192 185.733 183.94 183.294 184.807 180.812L193.035 183.6Z" fill="#B55B52"/>
<path d="M187.994 171.555C184.594 172.584 179.494 185.836 179.494 185.836L192.593 195.186C192.593 195.186 198.483 183.855 197.064 179.486C195.542 174.956 191.853 170.382 187.994 171.555Z" fill="#407BFF"/>
<path opacity="0.5" d="M187.994 171.555C184.594 172.584 179.494 185.836 179.494 185.836L192.593 195.186C192.593 195.186 198.483 183.855 197.064 179.486C195.542 174.956 191.853 170.382 187.994 171.555Z" fill="#FAFAFA"/>
<path d="M207.63 223.882L215.501 221.892L211.752 229.449C211.752 229.449 206.431 229.678 204.672 226.712L207.63 223.882Z" fill="#B55B52"/>
<path d="M221.867 224.765L218.382 230.928L211.752 229.449L215.501 221.892L221.867 224.765Z" fill="#B55B52"/>
<path d="M289.901 198.594H230.741L222.164 233.529H281.324L289.901 198.594Z" fill="#407BFF"/>
<path d="M281.324 233.529L281.086 235.459H221.926L222.164 233.529H281.324Z" fill="#407BFF"/>
<path d="M326.918 275.885H326.068V286.076H326.918V275.885Z" fill="#407BFF"/>
<path opacity="0.3" d="M326.918 275.885H326.068V286.076H326.918V275.885Z" fill="black"/>
<path d="M326.918 289.995H326.068V293.615H326.918V289.995Z" fill="#407BFF"/>
<path opacity="0.3" d="M326.918 289.995H326.068V293.615H326.918V289.995Z" fill="black"/>
<path d="M124.95 217.863C124.474 217.863 123.998 217.863 123.513 217.906C113.415 218.628 105.247 227.179 104.609 237.702C104.458 240.026 104.679 242.359 105.264 244.613C107.488 253.664 108.562 262.96 108.46 272.28V299.48C108.439 300.404 108.786 301.298 109.423 301.968C110.06 302.637 110.936 303.026 111.86 303.05H194.65V217.863H124.95Z" fill="#407BFF"/>
<path opacity="0.3" d="M124.95 217.863C124.474 217.863 123.998 217.863 123.513 217.906C113.415 218.628 105.247 227.179 104.609 237.702C104.458 240.026 104.679 242.359 105.264 244.613C107.488 253.664 108.562 262.96 108.46 272.28V299.48C108.439 300.404 108.786 301.298 109.423 301.968C110.06 302.637 110.936 303.026 111.86 303.05H194.65V217.863H124.95Z" fill="black"/>
<path d="M215.05 239.097C215.05 226.882 205.139 217.064 193.23 217.914C183.132 218.637 174.964 227.188 174.326 237.711C174.175 240.035 174.396 242.368 174.981 244.622C177.205 253.673 178.279 262.969 178.177 272.289V299.489C178.156 300.413 178.503 301.307 179.14 301.976C179.777 302.645 180.653 303.035 181.577 303.059H207.714C208.637 303.032 209.512 302.642 210.149 301.974C210.786 301.305 211.133 300.412 211.114 299.489V270.691C211.038 261.96 212.098 253.257 214.268 244.8C214.779 242.942 215.041 241.024 215.05 239.097Z" fill="#407BFF"/>
</svg>
