<?xml version="1.0" encoding="UTF-8"?>
<svg width="42px" height="48px" viewBox="0 0 42 48" version="1.1" xmlns="http://www.w3.org/2000/svg" xmlns:xlink="http://www.w3.org/1999/xlink">
    <g id="Page-1" stroke="none" stroke-width="1" fill="none" fill-rule="evenodd">
        <g id="Brand-Logo" transform="translate(-499.000000, -5340.000000)" fill="#232629" fill-rule="nonzero">
            <path d="M520.11334,5340 C522.406509,5340 524.614962,5340.36775 526.681083,5341.05053 C527.064338,5341.16283 527.438453,5341.3174 527.809141,5341.45451 C527.945272,5341.50838 528.077322,5341.55963 528.212147,5341.61611 C528.636699,5341.78553 529.054395,5341.98108 529.461156,5342.18185 C529.860407,5342.37886 530.24807,5342.60281 530.629694,5342.82822 C537.294229,5346.76786 541.245615,5354.88103 540.743204,5362.82836 C539.908301,5376.03158 528.719944,5386.08976 516.084096,5388 L516.084096,5388 L516.084096,5381.9394 C506.364777,5380.03488 499,5371.47447 499,5361.17178 C499,5349.47007 508.443956,5340 520.11334,5340 Z M517.543014,5366.12292 C515.734138,5366.51157 514.199973,5367.66949 513.42481,5369.48327 C513.166423,5370.00151 513.020988,5370.62503 513.020988,5371.14328 C512.891876,5373.34569 515.887571,5374.52794 517.179672,5372.84361 C517.567171,5372.32536 517.809399,5371.82344 518.067787,5371.3052 C518.843112,5369.62103 518.576563,5367.67765 517.543014,5366.12292 Z M522.347584,5366.24436 C521.313871,5367.66949 521.047485,5369.61287 521.822648,5371.4268 C522.081035,5371.94488 522.323263,5372.45513 522.710926,5372.84361 C524.132139,5374.39834 527.119672,5373.24841 526.990723,5371.3052 C526.990723,5370.78696 526.845289,5370.12295 526.586901,5369.60471 C525.811575,5367.79093 524.156459,5366.63301 522.347584,5366.24436 Z M511.002204,5362.15521 C510.292169,5362.16893 509.581154,5362.30914 508.902785,5362.60066 C508.256735,5362.8597 507.756119,5363.14322 507.368456,5363.53187 C505.688856,5364.95683 506.819526,5367.66966 509.145013,5367.53989 C509.791063,5367.53989 510.445112,5367.39429 510.961887,5367.13509 C512.770762,5366.35781 514.054538,5364.81124 514.312925,5363.1269 C513.334291,5362.47291 512.179054,5362.13385 511.002204,5362.15521 Z M528.646003,5362.03377 C527.462611,5362.01109 526.263876,5362.35778 525.294964,5363.00546 C525.682463,5364.68979 526.998721,5366.23637 528.807597,5367.01365 C529.453484,5367.27269 529.978257,5367.41845 530.624307,5367.41845 C532.949957,5367.54805 534.088462,5364.66547 532.27975,5363.36995 C531.762812,5362.98114 531.262196,5362.73826 530.745421,5362.47922 C530.067215,5362.1877 529.356038,5362.04749 528.646003,5362.03377 Z M508.741354,5354.17948 C506.703962,5354.28427 505.793974,5356.8515 507.489734,5358.18767 C508.006509,5358.57615 508.507124,5358.85967 509.024062,5359.11888 C510.832611,5359.89616 512.924032,5359.62896 514.47452,5358.59247 C514.086857,5356.9083 512.770762,5355.36173 510.961887,5354.58428 C510.315836,5354.32524 509.791063,5354.17948 509.145176,5354.17948 C508.999742,5354.16316 508.877158,5354.17246 508.741354,5354.17948 Z M522.468535,5348.63256 C522.080872,5349.15096 521.838644,5349.65289 521.580256,5350.17113 C520.804931,5351.9849 521.063481,5353.92828 522.226307,5355.35357 C524.035019,5354.96476 525.569184,5353.80684 526.34451,5351.99306 C526.602897,5351.47482 526.748169,5350.81081 526.748169,5350.29257 C526.828966,5348.91608 525.6934,5347.94701 524.487156,5347.82295 C523.763573,5347.74852 523.001469,5348.00103 522.468535,5348.63256 Z M515.079927,5347.94456 C513.900289,5348.05702 512.778597,5348.9972 512.778597,5350.29257 C512.778597,5350.81081 512.923868,5351.47482 513.182419,5351.99306 C513.957582,5353.80684 515.612861,5354.96476 517.421736,5355.35341 C518.455286,5353.92844 518.721672,5351.9849 517.946509,5350.17113 C517.688122,5349.65289 517.445894,5349.1428 517.058231,5348.75416 C516.525297,5348.12247 515.78784,5347.87682 515.079927,5347.94456 Z" id="ic-technology-cucumber"></path>
        </g>
    </g>
</svg>