<svg width="512" height="512" viewBox="0 0 512 512" fill="none" xmlns="http://www.w3.org/2000/svg">
<path d="M358.797 236.615H178.237V129.491C178.237 92.0599 208.252 61.3163 245.146 60.9586C263.258 60.8097 280.412 67.7367 293.34 80.5403C306.271 93.347 313.393 110.392 313.393 128.534V166.811C313.393 179.754 323.922 190.282 336.864 190.282H350.876C363.818 190.282 374.347 179.753 374.347 166.811V128.534C374.347 104.864 367.854 81.7235 355.571 61.6161C353.413 58.0827 348.799 56.9695 345.267 59.1279C341.736 61.2854 340.622 65.898 342.779 69.4304C353.625 87.1835 359.358 107.621 359.358 128.533V166.81C359.358 171.488 355.553 175.292 350.876 175.292H336.864C332.186 175.292 328.382 171.487 328.382 166.81V128.533C328.382 106.36 319.683 85.5327 303.887 69.8891C288.289 54.4423 267.699 45.9665 245.823 45.9665C245.551 45.9665 245.274 45.9675 245.001 45.9705C199.923 46.4082 163.248 83.8749 163.248 129.491V236.615H132.832C132.643 236.615 132.459 236.628 132.271 236.629V128.533C132.271 65.925 183.207 14.9891 245.815 14.9891C274.929 14.9891 302.615 25.9981 323.773 45.9875C326.78 48.8294 331.523 48.6955 334.368 45.6867C337.21 42.6779 337.075 37.9344 334.067 35.0914C310.114 12.4629 278.772 0 245.815 0C174.942 0 117.282 57.66 117.282 128.533V238.469C88.1068 245.491 66.3577 271.791 66.3577 303.089V383.381C66.3577 387.52 69.7122 390.875 73.8522 390.875C77.9922 390.875 81.3467 387.52 81.3467 383.381V303.089C81.3467 274.7 104.443 251.603 132.832 251.603H358.797C387.186 251.603 410.282 274.7 410.282 303.089V445.524C410.282 473.914 387.186 497.01 358.797 497.01H132.832C104.443 497.01 81.3467 473.914 81.3467 445.524V415.32C81.3467 411.181 77.9922 407.826 73.8522 407.826C69.7122 407.826 66.3577 411.181 66.3577 415.32V445.524C66.3577 482.179 96.1779 511.999 132.832 511.999H358.797C395.452 511.999 425.271 482.179 425.271 445.524V303.09C425.272 266.435 395.452 236.615 358.797 236.615Z" fill="#0E53BE"/>
<path d="M385.802 333.871C389.942 333.871 393.296 330.515 393.296 326.376V303.09C393.296 284.067 377.821 268.591 358.798 268.591H320.887C316.747 268.591 313.393 271.947 313.393 276.086C313.393 280.225 316.747 283.58 320.887 283.58H358.798C369.556 283.58 378.307 292.332 378.307 303.09V326.376C378.307 330.515 381.662 333.871 385.802 333.871Z" fill="#0E53BE"/>
<path d="M105.828 333.871C109.968 333.871 113.322 330.515 113.322 326.376V303.09C113.322 292.332 122.075 283.58 132.832 283.58H170.743C174.883 283.58 178.237 280.225 178.237 276.086C178.237 271.947 174.883 268.591 170.743 268.591H132.832C113.809 268.591 98.3334 284.067 98.3334 303.09V326.376C98.3334 330.515 101.688 333.871 105.828 333.871Z" fill="#0E53BE"/>
<path d="M98.3334 445.524C98.3334 464.548 113.809 480.023 132.832 480.023H170.743C174.883 480.023 178.237 476.668 178.237 472.529C178.237 468.39 174.883 465.034 170.743 465.034H132.832C122.074 465.034 113.322 456.283 113.322 445.524V422.238C113.322 418.099 109.968 414.744 105.828 414.744C101.688 414.744 98.3334 418.099 98.3334 422.238V445.524Z" fill="#0E53BE"/>
<path d="M320.887 480.023H358.798C377.821 480.023 393.296 464.548 393.296 445.524V422.238C393.296 418.099 389.942 414.744 385.802 414.744C381.662 414.744 378.307 418.099 378.307 422.238V445.524C378.307 456.283 369.555 465.034 358.798 465.034H320.887C316.747 465.034 313.393 468.39 313.393 472.529C313.393 476.668 316.747 480.023 320.887 480.023Z" fill="#0E53BE"/>
<path d="M243.476 324.135C249.576 323.711 255.618 324.986 260.948 327.835C264.596 329.788 269.139 328.409 271.09 324.758C273.041 321.108 271.663 316.567 268.013 314.616C260.192 310.435 251.353 308.559 242.425 309.182C218.751 310.844 199.96 329.982 198.719 353.699C197.904 369.284 204.813 384.24 217.201 393.707C217.794 394.161 218.076 394.932 217.919 395.671L211.028 428.001C210.033 432.667 211.183 437.469 214.185 441.178C217.186 444.886 221.644 447.013 226.414 447.013H265.214C269.984 447.013 274.442 444.887 277.443 441.178C280.445 437.469 281.595 432.667 280.6 428.001L273.711 395.679C273.551 394.927 273.883 394.126 274.581 393.589C286.27 384.58 292.975 370.961 292.975 356.224C292.975 352.345 292.491 348.458 291.536 344.67C290.523 340.655 286.452 338.223 282.436 339.235C278.423 340.247 275.99 344.32 277.002 348.334C277.656 350.925 277.986 353.58 277.986 356.224C277.986 366.275 273.411 375.567 265.434 381.716C260.124 385.808 257.677 392.355 259.052 398.803L265.941 431.127C265.96 431.213 266.014 431.474 265.792 431.748C265.569 432.024 265.303 432.024 265.215 432.024H226.415C226.327 432.024 226.061 432.024 225.837 431.748C225.615 431.474 225.67 431.213 225.689 431.126L232.58 398.794C233.936 392.42 231.473 385.749 226.303 381.798C217.846 375.337 213.131 365.125 213.687 354.484C214.534 338.315 227.34 325.267 243.476 324.135Z" fill="#0E53BE"/>
<path d="M415.077 157.683C416.994 157.683 418.913 156.952 420.377 155.488L436.162 139.702C439.089 136.775 439.089 132.03 436.162 129.104C433.234 126.176 428.49 126.177 425.563 129.104L409.777 144.889C406.851 147.816 406.851 152.562 409.777 155.488C411.24 156.952 413.159 157.683 415.077 157.683Z" fill="#0E53BE"/>
<path d="M420.376 208.033C417.448 205.107 412.703 205.106 409.776 208.033C406.85 210.96 406.85 215.705 409.776 218.632L425.562 234.417C427.026 235.881 428.943 236.613 430.862 236.613C432.78 236.613 434.698 235.881 436.162 234.417C439.089 231.49 439.089 226.746 436.162 223.819L420.376 208.033Z" fill="#0E53BE"/>
<path d="M438.148 174.266H417.779C413.639 174.266 410.284 177.622 410.284 181.761C410.284 185.9 413.639 189.255 417.779 189.255H438.148C442.288 189.255 445.642 185.9 445.642 181.761C445.642 177.622 442.287 174.266 438.148 174.266Z" fill="#0E53BE"/>
</svg>
