<svg xmlns="http://www.w3.org/2000/svg" width="425" height="416" fill="none"><g clip-path="url(#a)"><path fill="#E0E0E0" d="M202.515 13.5v85.505H79.705L75.28 14.093z"/><path fill="#fff" d="M75.28 14.103v84.724h122.809V14.103z"/><path fill="#E0E0E0" d="M198.582 99.311H74.786V13.6h123.796zm-122.808-.988h121.82V14.587H75.774z"/><path fill="#fff" d="M184.781 24.624H88.577v63.672h96.204z"/><path fill="#E0E0E0" d="M184.781 24.624h-7.113l-19.817.07-69.274.118.237-.237v63.662l-.256-.257h96.204l-.198.207c0-19.393.079-35.279.109-46.343 0-5.533 0-9.88.049-12.844v-4.524 4.446c0 2.963 0 7.241.05 12.754 0 11.094.069 27.03.108 46.432v.198h-.207l-96.204.059h-.257V24.209h.237l69.421.119 19.759.059h6.57z"/><path fill="#E0E0E0" d="M75.28 13.856c.743.392 1.445.859 2.094 1.393 1.245.918 2.964 2.203 4.802 3.685s3.477 2.874 4.623 3.951c.663.519 1.26 1.116 1.778 1.778q-1.051-.666-1.976-1.501L81.9 19.368c-1.769-1.412-3.36-2.707-4.713-3.793a12.3 12.3 0 0 1-1.906-1.72M198.109 14.083a70 70 0 0 1-6.491 5.463 70 70 0 0 1-6.817 5.068 71 71 0 0 1 6.491-5.473 71 71 0 0 1 6.817-5.058M184.277 87.733a74 74 0 0 1 7.005 5.354 77 77 0 0 1 6.688 5.74 74 74 0 0 1-7.014-5.345 76 76 0 0 1-6.679-5.75M75.28 98.817a69 69 0 0 1 6.421-5.404 69 69 0 0 1 6.748-5.009 66 66 0 0 1-6.432 5.414 66 66 0 0 1-6.737 5M126.326 45.291v21.32h25.133V45.29zM91.521 116.778v56.904l-83.845-.8.514-55.492z"/><path fill="#fff" d="M8.19 117.39v55.492h80.437V117.39z"/><path fill="#E0E0E0" d="M89.11 173.366H7.697v-56.48H89.11zm-80.426-.988h79.439v-54.504H8.683z"/><path fill="#fff" d="M79.913 124.276h-63.01v41.7h63.01z"/><path fill="#E0E0E0" d="M79.913 124.276H75.23l-12.99.059-45.337.119.228-.237v41.7l-.257-.267 63.01.059-.208.208c0-12.685.08-23.078.109-30.329v-11.381 2.904c0 1.976 0 4.752.059 8.348 0 7.281.06 17.724.099 30.458v.197h-.198l-62.842.109-.256-.257v-41.937h.237l45.494.118 12.931.07h4.298z"/><path fill="#E0E0E0" d="M8.19 117.232a30 30 0 0 1 4.515 3.319 31.6 31.6 0 0 1 4.198 3.725 30 30 0 0 1-4.524-3.329 30.6 30.6 0 0 1-4.19-3.715M88.617 117.38a29.7 29.7 0 0 1-4.19 3.656 30 30 0 0 1-4.514 3.24 31 31 0 0 1 4.189-3.646 31.4 31.4 0 0 1 4.515-3.25M79.558 165.611a33 33 0 0 1 4.653 3.438 33 33 0 0 1 4.317 3.833 32.3 32.3 0 0 1-4.643-3.428 32.4 32.4 0 0 1-4.327-3.843M8.19 172.872a29.4 29.4 0 0 1 4.15-3.606 29.5 29.5 0 0 1 4.474-3.211 30 30 0 0 1-4.159 3.616 29 29 0 0 1-4.465 3.201M28.58 138.255v13.959h39.646v-13.959zM407.044 119.712h-62.446l.879-88.271 60.896-.386z"/><path fill="#fff" d="M401.255 31.44h-60.896v88.272h60.896z"/><path fill="#E0E0E0" d="M401.749 120.206h-61.883v-89.26h61.883zm-60.895-.988h59.907V31.935h-59.907z"/><path fill="#fff" d="M393.697 41.004h-45.77v69.154h45.77z"/><path fill="#E0E0E0" d="M393.717 110.149v-5.128c0-3.329 0-8.16-.069-14.255 0-12.191-.069-29.45-.119-49.762l.238.237h-45.761l.257-.257c0 26.081 0 50.127-.06 69.155l-.197-.198 33.283.109h12.478-3.182l-9.168.049-33.411.109h-.208V110c0-19.017 0-43.063-.049-69.154v-.09h46.205v.238c0 20.38-.089 37.69-.118 49.92 0 6.076 0 10.867-.06 14.206v4.742a1.7 1.7 0 0 1-.059.287"/><path fill="#E0E0E0" d="M401.423 31.44a33 33 0 0 1-3.586 5 29 29 0 0 1-4.149 4.564 49 49 0 0 1 3.744-4.88 42 42 0 0 1 3.991-4.683M401.255 119.712a36 36 0 0 1-3.952-4.614 36.7 36.7 0 0 1-3.586-4.94 37 37 0 0 1 3.952 4.624 36.7 36.7 0 0 1 3.586 4.93M348.322 109.803a39 39 0 0 1-3.784 5.078 39 39 0 0 1-4.188 4.762 39 39 0 0 1 3.783-5.078 39.7 39.7 0 0 1 4.189-4.762M340.37 31.44a35.4 35.4 0 0 1 3.951 4.575 34.5 34.5 0 0 1 3.537 4.94 35.5 35.5 0 0 1-3.952-4.575 34.5 34.5 0 0 1-3.536-4.94M379.432 55.042h-15.323V98.55h15.323z"/><path fill="#263238" d="M424.343 414.548c0 .138-94.653.257-211.416.257s-211.416-.119-211.416-.257c0-.139 94.634-.257 211.416-.257s211.416.118 211.416.257"/><path fill="#263238" d="M89.002 376.611H77.246v37.937h11.756zM211.317 376.611h-11.756v37.937h11.756zM137.331 376.611h-11.756v37.937h11.756zM252.889 376.611h-11.757v37.937h11.757z"/><path fill="#455A64" d="M253.166 380.494a17.14 17.14 0 0 0 16.962-13.831c2.816-14.295 6.441-34.291 6.55-56.736.069-13.772-2.964-31.209-7.271-44.299-6.214-19.126-19.531-35.98-38.875-41.493-25.113-7.162-34.212-4.416-52.024 4.94-19.373 10.156-24.619 29.213-44.782 37.699-19.581 8.229-43.192 5.424-61.044 16.933-15.708 10.126-23.365 29.579-23.987 48.26-.465 9.923.5 19.861 2.865 29.509a22.72 22.72 0 0 0 21.942 17.526z"/><path fill="#FFBE9D" d="m102.932 319.055-53.94 71.328-18.84-4.169 43.468-76.268z"/><path fill="#0E53BE" d="m49.594 389.494-17.26 25.874L0 394.048c2.223-2.963 23.038 1.867 23.038 1.867l10.384-17.051z"/><path fill="#fff" d="M33.965 401.102a1.58 1.58 0 0 1-.079 2.104 1.52 1.52 0 0 1-2.094-.059 1.66 1.66 0 0 1 .098-2.233 1.58 1.58 0 0 1 2.164.307M32.335 415.368l1.64-2.678L2.36 393.248s-1.857-.316-2.361.8z" opacity=".6"/><path fill="#263238" d="M22.623 395.422c-.099.158.642.75 1.087 1.778.444 1.027.415 1.976.603 1.976.187 0 .553-1.038 0-2.263-.554-1.225-1.63-1.679-1.69-1.491M18.306 394.572c-.138.128.376.85.464 1.867.09 1.018-.207 1.828 0 1.976.208.148.85-.731.712-1.976-.139-1.245-1.067-2.005-1.176-1.867M13.703 397.397c.128.129.869-.513.988-1.649.118-1.137-.346-1.976-.494-1.878s0 .86-.158 1.779c-.159.919-.475 1.59-.336 1.748M25.42 391.776c0 .188.84.455 1.689 1.097s1.363 1.393 1.54 1.314c.179-.079-.128-1.087-1.145-1.838-1.018-.751-2.075-.741-2.085-.573M28.72 388.447c0 .069.513.573 1.63 1.067a8.8 8.8 0 0 0 2.034.592 8.4 8.4 0 0 0 1.255.119q.375.025.741-.059a.82.82 0 0 0 .622-.791.99.99 0 0 0-.454-.82 3 3 0 0 0-.662-.316 7.3 7.3 0 0 0-1.235-.316 6.7 6.7 0 0 0-2.134 0c-1.215.198-1.857.613-1.817.682.039.069.72-.148 1.867-.227a8.4 8.4 0 0 1 1.975.138q.575.126 1.127.326c.395.138.691.326.681.543s0 .099-.158.158q-.272.035-.543 0-.59 0-1.176-.079a10.4 10.4 0 0 1-1.976-.434 16 16 0 0 0-1.778-.583"/><path fill="#263238" d="M28.778 388.812c0 .06.722-.296 1.453-1.284a6 6 0 0 0 1.225-3.171 1.59 1.59 0 0 0-.494-1.502.9.9 0 0 0-.988 0q-.317.2-.563.484a4.4 4.4 0 0 0-.722 1.087 4.5 4.5 0 0 0-.405 2.134c.08 1.255.613 1.877.662 1.828a14 14 0 0 1-.197-1.838 4.4 4.4 0 0 1 .494-1.857q.255-.506.642-.919c.276-.306.593-.494.691-.376.1.119.267.544.218.9q-.034.58-.178 1.145a7 7 0 0 1-.75 1.818c-.604.988-1.157 1.472-1.088 1.551M146.242 288.064h-49.09a31.03 31.03 0 0 0-26.387 14.7l-22.821 36.879 28.393 17.18L99.8 326.059l26.674-2.183 57.359-35.812z"/><path fill="#FFBE9D" d="m120.507 319.055-53.94 71.328-18.83-4.169 43.458-76.268z"/><path fill="#0E53BE" d="m67.179 389.494-17.26 25.874-32.344-21.32c2.233-2.963 23.049 1.867 23.049 1.867l10.373-17.051z"/><path fill="#fff" d="M51.54 401.102a1.57 1.57 0 0 1-.079 2.104 1.52 1.52 0 0 1-2.094-.059 1.66 1.66 0 0 1 .099-2.233 1.58 1.58 0 0 1 2.163.307M49.92 415.368l1.64-2.678-31.613-19.442s-1.858-.316-2.362.8z" opacity=".6"/><path fill="#263238" d="M40.199 395.422c-.099.158.652.75 1.087 1.778.434 1.027.424 1.976.612 1.976s.543-1.038 0-2.263-1.63-1.679-1.7-1.491M35.892 394.572c-.139.128.365.85.464 1.867.099 1.018-.218 1.828-.06 1.976.159.148.85-.731.712-1.976s-1.018-2.005-1.117-1.867M31.288 397.397c.118.129.86-.513.988-1.649s-.356-1.976-.504-1.878 0 .86-.148 1.779-.474 1.59-.336 1.748M43.004 391.776c0 .188.83.455 1.69 1.097s1.363 1.393 1.531 1.314-.128-1.087-1.136-1.838-2.085-.741-2.085-.573M46.294 388.447c0 .069.524.573 1.63 1.067a8.8 8.8 0 0 0 2.036.592 8.4 8.4 0 0 0 1.254.119q.375.025.741-.059a.812.812 0 0 0 .622-.791 1.03 1.03 0 0 0-.444-.82 3.2 3.2 0 0 0-.672-.316 7.5 7.5 0 0 0-1.225-.316 6.8 6.8 0 0 0-2.144 0c-1.205.198-1.857.613-1.817.682s.73-.148 1.867-.227a8.4 8.4 0 0 1 1.976.138q.57.124 1.116.326c.395.138.692.326.682.543s0 .099-.158.158q-.271.035-.544 0-.59 0-1.175-.079a10 10 0 0 1-1.976-.434 16 16 0 0 0-1.769-.583"/><path fill="#263238" d="M46.353 388.812c0 .06.731-.296 1.462-1.284a6.4 6.4 0 0 0 .988-1.917q.177-.616.237-1.254a1.62 1.62 0 0 0-.494-1.502.92.92 0 0 0-.988 0 2.5 2.5 0 0 0-.553.484 4 4 0 0 0-.721 1.087 4.4 4.4 0 0 0-.415 2.134c.08 1.255.612 1.877.662 1.828a16 16 0 0 1-.198-1.838c.03-.647.2-1.28.494-1.857.173-.333.39-.642.642-.919.277-.306.593-.494.702-.376a1.15 1.15 0 0 1 .217.9 6.5 6.5 0 0 1-.988 2.963c-.553.988-1.116 1.472-1.047 1.551M163.818 288.064h-50.789a27.97 27.97 0 0 0-23.79 13.258l-23.71 38.321 28.393 17.18 25.36-33.243 24.817.296 55.205-34.469z"/><path fill="#455A64" d="M93.902 356.823a4 4 0 0 1-.543-.286l-1.542-.899-5.828-3.448-20.598-12.349-.198-.119.128-.197c4.505-7.291 9.583-15.876 15.244-24.827 4.604-7.271 9.227-14.068 13.83-19.956a11.44 11.44 0 0 1 4.358-3.359 26 26 0 0 1 4.88-1.709c3-.721 6.052-1.204 9.128-1.442 4.447-.35 8.909-.459 13.367-.326 1.571 0 2.796.099 3.626.148l.988.059h.316-1.265l-3.635-.049c-3.142 0-7.716 0-13.318.494a58 58 0 0 0-9.059 1.492 25 25 0 0 0-4.791 1.699 11 11 0 0 0-4.18 3.24c-4.553 5.928-9.157 12.675-13.751 19.946-5.66 8.941-10.749 17.506-15.293 24.787l-.08-.316 20.441 12.547 5.76 3.556 1.511.988q.271.134.504.326"/><path fill="#EB996E" d="M72.119 343.457c.118.079-4.387 8.12-10.057 17.96S51.669 379.2 51.55 379.121s4.377-8.111 10.057-17.961S72 343.388 72.12 343.457"/><path fill="#263238" d="M239.414 227.662q.106.171.187.356l.514 1.077c.445.988 1.087 2.351 1.917 4.129.405.899.869 1.907 1.373 2.964s.919 2.341 1.432 3.645c.514 1.304 1.047 2.717 1.62 4.199a83 83 0 0 1 1.65 4.772c.534 1.679 1.097 3.457 1.69 5.295.306.919.553 1.877.8 2.845s.504 1.976.761 2.964l.79 3.072c.138.524.267 1.048.405 1.581.138.534.217 1.077.336 1.62l1.343 6.708a216 216 0 0 1 3.152 30.31 257 257 0 0 1-1.195 30.418c-.564 4.643-.988 9.069-1.729 13.179-.336 2.055-.613 4.041-.988 5.927-.376 1.887-.712 3.725-1.047 5.464-.633 3.477-1.403 6.589-1.976 9.326l-.88 3.813c-.316 1.166-.592 2.233-.849 3.191a913 913 0 0 0-1.186 4.396l-.326 1.136a3 3 0 0 1-.128.386q.022-.201.079-.395.099-.435.267-1.156c.257-.988.632-2.52 1.096-4.416a586 586 0 0 1 .81-3.191c.297-1.156.534-2.46.84-3.824.593-2.746 1.344-5.858 1.976-9.335.316-1.739.662-3.567.988-5.454s.602-3.892.919-5.927c.691-4.1 1.126-8.516 1.679-13.16a262 262 0 0 0 1.156-30.358 218 218 0 0 0-3.063-30.201c-.444-2.292-.889-4.525-1.314-6.698l-.326-1.611c-.128-.533-.266-1.057-.395-1.57l-.78-3.073c-.247-.988-.504-1.976-.751-2.964s-.474-1.976-.78-2.835l-1.65-5.295c-.524-1.69-.988-3.3-1.611-4.772-.622-1.472-1.086-2.895-1.58-4.209s-.919-2.558-1.393-3.655l-1.334-3.013a726 726 0 0 0-1.828-4.169c-.197-.464-.345-.82-.464-1.087a2 2 0 0 1-.207-.405M110.361 357.209a22 22 0 0 1 0 3.102c0 1.916-.079 4.564 0 7.478.079 2.915.267 5.552.425 7.469q.198 1.54.197 3.092a15.4 15.4 0 0 1-.553-3.062 76 76 0 0 1-.425-14.987c.014-1.04.133-2.076.356-3.092"/><path fill="#FFBE9D" d="m154.956 240.97-10.057 34.409-37.215 3.991v6.609l54.691.761 7.449-44.812z"/><path fill="#0E53BE" d="M226.481 218.405c-4.396-10.086-16.794-13.544-23.433-13.564-9.217 0-8.388-.583-17.447 1.047h-1.195c-27.534-1.116-30.705 36.712-30.705 36.712l12.557.988-3.32 26.061-9.612 18.444 52.883-.088 2.964-43.064 23.513-.672s-2.144-16.538-6.205-25.864"/><path fill="#263238" d="M167.779 226.585c.138 0-.79 9.198-2.074 20.51-1.285 11.311-2.451 20.469-2.589 20.46s.791-9.208 2.075-20.52 2.45-20.469 2.588-20.45M205.785 204.752q.069.227.069.465c0 .316.059.77.069 1.353a15.5 15.5 0 0 1-.701 4.94 14.5 14.5 0 0 1-3.626 6.421 10.3 10.3 0 0 1-3.705 2.401 14.3 14.3 0 0 1-4.663.77 23.6 23.6 0 0 1-4.692-.336 9.44 9.44 0 0 1-4.071-1.719 11.2 11.2 0 0 1-3.853-6.253 16.8 16.8 0 0 1-.533-4.94c0-.583.069-1.037.099-1.343a1.8 1.8 0 0 1 .079-.465v1.818c.013 1.64.243 3.271.681 4.851a11 11 0 0 0 3.794 5.977 9.05 9.05 0 0 0 3.873 1.6c1.518.248 3.056.353 4.594.316a13.9 13.9 0 0 0 4.495-.731 10 10 0 0 0 3.546-2.262 14.36 14.36 0 0 0 3.616-6.194c.517-1.557.8-3.182.84-4.821.059-1.216.049-1.848.089-1.848"/><path fill="#000" d="M208.205 226.585c-2.262 10.779-5.197 21.863-7.459 32.602-.474 2.292-.988 4.663-2.391 6.54a15.3 15.3 0 0 1-3.21 2.964c-4.446 3.329-9.139 6.461-14.355 8.357a128.7 128.7 0 0 0 22.337-3.882 4.65 4.65 0 0 0 3.209-1.563 4.66 4.66 0 0 0 1.158-3.377c1.62-13.831 1.155-27.77.711-41.68" opacity=".2"/><path fill="#FFBE9D" d="m135.128 274.559 16.4-1.976 11.549 7.577 44.189-10.59 1.285-24.649 19.837-.494-.464 28.937a16.8 16.8 0 0 1-1.426 6.42 16.787 16.787 0 0 1-15.823 10.009l-64.719-1.788-2.747-5.513-13.88-.405z"/><path fill="#EB996E" d="M207.266 269.57q-.409.165-.839.257l-2.401.622-8.891 2.213-29.302 7.093-2.727.662h-.109l-.088-.059-11.539-7.597h.158l-16.41 1.897.109-.06-4.298 5.562-1.165 1.443q-.192.26-.425.484.15-.284.356-.534l1.096-1.501 4.219-5.592v-.049h.069l16.389-2.045h.158l11.559 7.567h-.197l2.726-.652 29.332-6.915 8.891-2.045 2.43-.534q.443-.139.899-.217"/><path fill="#EB996E" d="M144.642 279.261c-2.111.255-4.238.34-6.362.257h-1.166l.158-.059a29 29 0 0 1-4.129 3.181 30 30 0 0 1 3.803-3.566l.069-.06h1.265a39 39 0 0 1 6.362.247M214.982 273.699a9.62 9.62 0 0 0-7.637-4.811 2.63 2.63 0 0 1 1.423-.108 7.4 7.4 0 0 1 3.27 1.116 7.6 7.6 0 0 1 2.43 2.47c.435.77.573 1.314.514 1.333"/><path fill="#263238" d="M233.09 244.427q-.879.138-1.768.139l-4.831.177c-4.07.129-9.711.267-15.935.396h-2.223v-.247c-.227-5.78-.128-10.917 0-14.612.059-1.847.129-3.329.198-4.357q.009-.795.138-1.58c.063.527.08 1.06.049 1.59v4.357c0 3.685-.059 8.822.168 14.572l-.257-.237h1.976c6.224-.119 11.855-.208 15.945-.237h4.831a12 12 0 0 1 1.709.039"/><path fill="#FAFAFA" d="M251.703 310.351a50 50 0 0 1-5.374-4.722 51 51 0 0 1-5.018-5.098 49 49 0 0 1 5.374 4.723 50 50 0 0 1 5.018 5.097M239.038 360.844c-.637.501-1.326.931-2.055 1.284-1.284.751-3.063 1.779-5.009 2.964s-3.665 2.302-4.939 3.102c-.651.48-1.346.896-2.075 1.245a10.2 10.2 0 0 1 1.867-1.541c1.205-.889 2.964-2.055 4.861-3.25a57 57 0 0 1 5.107-2.836 10.7 10.7 0 0 1 2.243-.968M261.988 256.124a36.4 36.4 0 0 1-3.844-4.939 38 38 0 0 1-3.437-5.207 76 76 0 0 1 7.281 10.146M266.423 269.056a66 66 0 0 1-5.088 10.423 66 66 0 0 1 5.059-10.423zM270.039 310.46a77 77 0 0 1-4.199-7.775 79 79 0 0 1-3.744-8.012 75 75 0 0 1 4.199 7.775 75 75 0 0 1 3.744 8.012M269.555 328.747a52.6 52.6 0 0 1-3.951 6.194 53.5 53.5 0 0 1-4.426 5.927c2.523-4.22 5.336-8.26 8.417-12.092zM263.598 367.315a15.7 15.7 0 0 1-2.49 3.033 15.2 15.2 0 0 1-2.865 2.667 14.7 14.7 0 0 1 2.49-3.023 14.8 14.8 0 0 1 2.865-2.677M57.705 321.199a66 66 0 0 1 2.193-7.953 66 66 0 0 1 2.697-7.805 68 68 0 0 1-2.203 7.983 65.5 65.5 0 0 1-2.687 7.775M75.823 295.246c0 .148-2.321-.198-5.167-.099s-5.107.583-5.147.435a13.2 13.2 0 0 1 5.128-.988 13.3 13.3 0 0 1 5.186.652"/><path fill="#FFBE9D" d="m206.259 172.269-2.49 35.289a10.995 10.995 0 0 1-15.343 9.318 10.99 10.99 0 0 1-5.983-6.392 11 11 0 0 1-.615-4.428c.217-3.359.414-6.105.414-6.105s-8.535-1.324-8.644-9.879c-.099-7.617 1.976-30.172 2.43-34.943h15.412a15.8 15.8 0 0 1 11.028 5.441 15.8 15.8 0 0 1 3.791 11.699"/><path fill="#EB996E" d="M182.232 199.813a19.9 19.9 0 0 0 11.134-3.172s-2.638 6.145-11.154 5.385z"/><path fill="#263238" d="M177.362 175.628a1.217 1.217 0 0 0 1.175 1.225q.236.017.46-.055a1.18 1.18 0 0 0 .805-1.041 1.223 1.223 0 0 0-1.176-1.235 1.18 1.18 0 0 0-1.144.658q-.104.212-.12.448M176.591 173.949c.149.158 1.077-.524 2.381-.524s2.282.662 2.421.504-.089-.366-.504-.672a3.44 3.44 0 0 0-1.976-.593c-.681 0-1.345.215-1.897.613-.365.316-.504.603-.425.672M189.711 175.984a1.205 1.205 0 0 0 1.176 1.225 1.16 1.16 0 0 0 .89-.269 1.16 1.16 0 0 0 .404-.838 1.22 1.22 0 0 0-.338-.855 1.22 1.22 0 0 0-.838-.379 1.15 1.15 0 0 0-.89.275 1.17 1.17 0 0 0-.404.841M189.484 174.196c.158.158 1.077-.524 2.391-.524s2.272.662 2.42.494-.089-.356-.504-.662a3.36 3.36 0 0 0-1.976-.593 3.2 3.2 0 0 0-1.896.613c-.366.306-.504.603-.435.672M184.722 183.927a8.3 8.3 0 0 0-2.124-.386c-.336 0-.652-.098-.711-.335a1.66 1.66 0 0 1 .227-.988c.306-.81.642-1.66.988-2.549a44 44 0 0 0 2.223-6.679 43.6 43.6 0 0 0-2.756 6.481c-.336.899-.652 1.749-.988 2.569a1.97 1.97 0 0 0-.178 1.314.82.82 0 0 0 .553.484q.281.078.573.079c.728.097 1.465.1 2.193.01M188.585 184.836c-.208 0-.217 1.412-1.433 2.42s-2.736.85-2.746 1.057c-.01.208.336.277.988.287a3.5 3.5 0 0 0 2.292-.791 3.13 3.13 0 0 0 1.116-2.035c.04-.593-.118-.948-.217-.938M189.148 169.049c.129.355 1.443.187 2.964.375s2.786.603 2.964.287c.099-.159-.119-.494-.623-.84a5.27 5.27 0 0 0-4.544-.504c-.534.237-.81.514-.761.682M177.075 170.175c.227.306 1.126 0 2.213 0s1.976.197 2.223-.109c.099-.158 0-.454-.454-.741a3.13 3.13 0 0 0-1.808-.484 3.04 3.04 0 0 0-1.769.603c-.385.257-.513.563-.405.731"/><path fill="#FFBE9D" d="M203.384 178.681c.148-.059 5.868-1.739 5.68 4.1-.187 5.838-6.016 4.455-6.016 4.287s.336-8.387.336-8.387"/><path fill="#EB996E" d="M204.905 184.905s.099.079.267.158a1 1 0 0 0 .761.049 2.53 2.53 0 0 0 1.235-2.223 3.24 3.24 0 0 0-.238-1.472 1.17 1.17 0 0 0-.74-.8.514.514 0 0 0-.603.257c-.089.158 0 .277-.089.287s-.119-.099-.059-.336a.62.62 0 0 1 .237-.366.78.78 0 0 1 .563-.128 1.423 1.423 0 0 1 1.037.938 3.44 3.44 0 0 1 .297 1.64 2.64 2.64 0 0 1-1.561 2.48 1.13 1.13 0 0 1-.929-.188c-.168-.148-.197-.286-.178-.296"/><path fill="#263238" d="M206.634 178.483a3.08 3.08 0 0 0-2.815 1.443c-.376.83-.465 1.778-.84 2.608a2.066 2.066 0 0 1-2.124 1.383 1.8 1.8 0 0 1-1.215-1.334 4.8 4.8 0 0 1 0-1.887c.346-2.726.919-5.423.988-8.17a14.05 14.05 0 0 0-1.719-7.903 7.66 7.66 0 0 0-6.837-3.833c-1.808.138-3.477 1.086-5.275 1.343a7.13 7.13 0 0 1-5.928-1.976c-.197-.187-1.106-.79-1.106-.79a3.34 3.34 0 0 1 .612-1.808c3.577-3.309 10.018-4.228 14.74-3.043a17.02 17.02 0 0 1 11.183 8.951c2.035 4.426 1.433 10.59.316 15.066"/><path fill="#263238" d="M206.466 177.979c.317-2.855 1.739-5.463 2.48-8.249s.573-6.174-1.65-8.002c-.76-.622-1.699-.988-2.41-1.689a12.4 12.4 0 0 1-1.66-2.45 10.154 10.154 0 0 0-7.558-4.604c-2.104-.188-4.228.306-6.332.168-3.339-.208-6.501-1.976-9.879-1.818a3.95 3.95 0 0 0-2.964 1.235 1.97 1.97 0 0 0-.422 1.528 1.97 1.97 0 0 0 .837 1.347 1.69 1.69 0 0 0-1.276-.644 1.705 1.705 0 0 0-1.313.565 2.56 2.56 0 0 0-.177 2.815 5.5 5.5 0 0 0 2.153 2.045 14 14 0 0 0 9.534 1.759l6.303-3.438 7.132 1.571 6.787 4.534-3.003 12.557z"/><path fill="#E0E0E0" d="m60.896 247.411 20.637 40.653h65.203l-2.578-5.266-18.889-.553-15.392-34.281a5.92 5.92 0 0 0-5.444-3.517h-41.67a2.076 2.076 0 0 0-1.867 2.964"/><path fill="#263238" d="M91.6 268.068a2.667 2.667 0 1 0 .001-5.334 2.667 2.667 0 0 0 0 5.334"/><path fill="#455A64" d="M235.175 246.571c-.158 11.391-7.093 21.883-16.153 28.798s-20.045 10.759-30.991 13.91-22.139 5.75-32.443 10.63c-14.256 6.748-27.464 16.004-35.565 29.569s-10.887 31.366-9.988 47.173l121.119-12.112 6.629-68.898z"/><path fill="#263238" d="m188.031 289.279-.266.079-.771.188c-.682.158-1.689.355-2.964.672a154 154 0 0 0-10.867 2.963 145 145 0 0 0-15.56 5.78 94 94 0 0 0-17.664 10.047 88 88 0 0 0-7.903 6.915 80 80 0 0 0-6.629 7.232 68.5 68.5 0 0 0-8.891 14.019 59 59 0 0 0-3.745 10.551c-.365 1.274-.503 2.301-.681 2.963-.069.316-.129.563-.178.771a4 4 0 0 1-.069.267 1.2 1.2 0 0 1 0-.277c0-.207.079-.464.128-.78.139-.692.247-1.719.583-2.964a55.3 55.3 0 0 1 3.557-10.67 66.9 66.9 0 0 1 8.891-14.167 80 80 0 0 1 6.649-7.3 88 88 0 0 1 7.992-6.975 92.7 92.7 0 0 1 17.783-10.067 140 140 0 0 1 15.688-5.72 141 141 0 0 1 10.867-2.786c1.294-.287 2.312-.445 2.964-.583l.78-.128a1 1 0 0 1 .306-.03"/><path fill="#FAFAFA" d="M214.014 347.112a96 96 0 0 1-8.397 5.137 93 93 0 0 1-8.655 4.693 92 92 0 0 1 8.398-5.137 96 96 0 0 1 8.654-4.693M159.362 350.59a16 16 0 0 1-1.976-1.818c-1.185-1.156-2.825-2.757-4.653-4.495-1.828-1.739-3.527-3.29-4.742-4.406a15 15 0 0 1-1.976-1.887 13.2 13.2 0 0 1 2.164 1.61c1.284 1.047 3.013 2.559 4.86 4.307a91 91 0 0 1 4.555 4.614c.668.62 1.261 1.317 1.768 2.075M184.633 316.793a55 55 0 0 1-1.67 7.32 56 56 0 0 1-2.173 7.202 55 55 0 0 1 1.67-7.33 57 57 0 0 1 2.173-7.192M233.022 325.22a69 69 0 0 1-7.854-3.211 69 69 0 0 1-7.657-3.685 72 72 0 0 1 7.904 3.211 71 71 0 0 1 7.607 3.685M177.362 369.923a39 39 0 0 1-1.275-6.293 41.6 41.6 0 0 1-.76-6.382 39 39 0 0 1 1.274 6.293c.418 2.105.672 4.238.761 6.382M135.237 367.127a69 69 0 0 1-5.74-6.144 66 66 0 0 1-5.345-6.481 68 68 0 0 1 5.73 6.145 68 68 0 0 1 5.355 6.48M168.846 305.441a47.4 47.4 0 0 1-6.204 3.389 48.5 48.5 0 0 1-6.432 2.964 47.4 47.4 0 0 1 6.205-3.389 49 49 0 0 1 6.431-2.964M216.879 297.37c-2.518.248-5.049.33-7.577.247a57 57 0 0 1-7.588-.257 55 55 0 0 1 7.588-.257c2.529-.089 5.061 0 7.577.267M236.124 264.028a23.3 23.3 0 0 1-2.085 5.739 23.7 23.7 0 0 1-3.063 5.276c-.128-.079 1.186-2.46 2.599-5.493 1.412-3.033 2.4-5.522 2.549-5.522"/><path fill="#263238" d="M393.856 353.869h-72.217v9.919h72.217z"/><path fill="#263238" d="M393.974 363.917H321.51v-10.166h72.464zm-72.217-.247h71.961v-9.672h-71.961z"/><path fill="#263238" d="m328.327 360.498 10.403 51.274h38.46l10.047-47.974z"/><path fill="#455A64" d="m328.327 406.921 5.552 7.627h46.749l6.609-7.627z"/><path fill="#263238" d="M355.03 361.99c-.138 0-.326-23.759-.405-53.051s0-53.062.109-53.062.326 23.71.405 53.062.049 53.051-.109 53.051M371.114 302.557a2.3 2.3 0 0 1-.188.553l-.642 1.541-.474 1.107c-.148.414-.306.869-.484 1.343s-.356.988-.553 1.551-.346 1.146-.534 1.769a71 71 0 0 0-1.976 8.841 108 108 0 0 0-1.195 11.036 150 150 0 0 0 .573 20.193c.227 2.578.464 4.663.632 6.105.079.672.138 1.225.188 1.66q.039.29 0 .583a2.7 2.7 0 0 1-.129-.573c-.079-.435-.168-.988-.286-1.65a136 136 0 0 1-.8-6.086 133.4 133.4 0 0 1-.721-20.262c.182-3.72.572-7.427 1.165-11.104a66 66 0 0 1 2.144-8.892c.198-.622.366-1.215.573-1.768l.593-1.541c.188-.474.355-.919.523-1.334s.356-.77.514-1.096l.731-1.502a4 4 0 0 1 .346-.474"/><path fill="#263238" d="M369.276 283.322a7 7 0 0 1-.237.79l-.751 2.203c-.168.484-.345.988-.553 1.591l-.583 1.926c-.415 1.373-.909 2.964-1.343 4.693-.228.879-.475 1.788-.721 2.746l-.682 2.964c-.504 2.065-.87 4.317-1.334 6.659a200 200 0 0 0-1.976 15.441c-.484 5.503-.662 10.768-.731 15.55-.069 4.781.05 9.099.247 12.714.059 1.818.178 3.448.277 4.881.099 1.432.168 2.677.257 3.685.089 1.007.138 1.748.178 2.321a4.3 4.3 0 0 1 0 .82 5 5 0 0 1-.129-.8c-.069-.583-.158-1.353-.277-2.322a84 84 0 0 1-.345-3.684c-.109-1.443-.267-3.063-.356-4.881-.237-3.616-.336-7.903-.356-12.734s.237-10.077.692-15.599 1.205-10.749 2.025-15.471c.484-2.352.86-4.604 1.383-6.679l.712-2.964c.256-.987.513-1.867.76-2.746.455-1.758.988-3.319 1.423-4.683.217-.681.425-1.324.622-1.906l.593-1.581.84-2.183q.155-.389.365-.751M350.466 366.199a.9.9 0 0 1 0-.287c0-.207 0-.474-.069-.81-.049-.761-.128-1.808-.217-3.151-.168-2.767-.415-6.708-.721-11.569-.633-9.77-1.532-23.266-3.181-38.104a470 470 0 0 0-2.826-20.865c-.533-3.181-.988-6.224-1.581-9.04-.592-2.815-1.057-5.463-1.561-7.854-.503-2.39-.987-4.544-1.422-6.441s-.83-3.527-1.166-4.851-.563-2.331-.751-3.062l-.178-.8a1.2 1.2 0 0 1 0-.277q.065.128.099.267c.06.197.139.464.227.78.208.731.494 1.749.85 3.043s.8 2.964 1.245 4.831c.444 1.867.988 4.041 1.502 6.431.513 2.391 1.096 5.019 1.63 7.854a666 666 0 0 1 1.63 9.05 440 440 0 0 1 2.865 20.875c1.649 14.818 2.499 28.363 3.033 38.143.266 4.891.444 8.842.553 11.579q.074 2.013.118 3.151v.82a1.3 1.3 0 0 1-.079.287"/><path fill="#0E53BE" d="M354.438 267.298c-.306-3.369-3.715-5.928-7.094-5.928-3.378 0-6.53 1.976-8.594 4.673a26.8 26.8 0 0 0-4.14 9.188c-2.272 7.903-3.517 16.261-2.549 24.451s4.298 16.261 10.176 22.04c.988.988 2.193 1.887 3.507 1.611a4.24 4.24 0 0 0 1.847-1.146 54.73 54.73 0 0 0 17.783-41.612c-.099-3.112-.504-6.352-2.233-8.95-1.728-2.598-5.739-5.355-8.683-4.308M329.206 240.317a4045 4045 0 0 0-4.761 8.625c-.109.198-.257.425-.484.445-.228.019-.445-.218-.583-.425l-12.586-19.324 2.904-1.64z"/><path fill="#000" d="M329.206 240.317a4045 4045 0 0 0-4.761 8.625c-.109.198-.257.425-.484.445-.228.019-.445-.218-.583-.425l-12.586-19.324 2.904-1.64z" opacity=".2"/><path fill="#0E53BE" d="m354.734 255.877-42.935-25.34a2.03 2.03 0 0 1-1.067-1.087c-.168-.632.307-1.244.771-1.719a29.57 29.57 0 0 1 22.939-8.98 26.2 26.2 0 0 1 20.747 12.902c4.139 7.4 4.278 17.19-.474 24.224"/><path fill="#263238" d="M317.983 222.456q.276-.08.564-.079c.375 0 .918-.079 1.63-.069a31.7 31.7 0 0 1 5.927.464 34.42 34.42 0 0 1 24.372 16.963 34.6 34.6 0 0 1 3.409 8.189 32.7 32.7 0 0 1 1.067 5.879c.079.701.069 1.254.088 1.62a2.4 2.4 0 0 1 0 .563s-.098-.771-.266-2.164a36.6 36.6 0 0 0-1.215-5.799 35.076 35.076 0 0 0-27.504-24.886 37 37 0 0 0-5.928-.632c-1.363-.029-2.134.03-2.144-.049"/><path fill="#263238" d="M348.925 238.391c-.686.406-1.415.738-2.173.988a86 86 0 0 1-5.414 1.917 82 82 0 0 1-5.532 1.56 9.6 9.6 0 0 1-2.351.425 12 12 0 0 1 2.242-.79l5.473-1.709 5.454-1.759a11 11 0 0 1 2.301-.632M342.158 220.223c.602 3.166.685 6.41.247 9.603a30 30 0 0 1-.247-4.802 31 31 0 0 1 0-4.801M311.424 230.063a18.4 18.4 0 0 1 3.122-1.107 147 147 0 0 1 7.696-2.084 134 134 0 0 1 7.804-1.65 19.3 19.3 0 0 1 3.27-.435q-1.572.514-3.201.801a456 456 0 0 0-7.755 1.778c-3.023.721-5.75 1.432-7.716 1.976a23 23 0 0 1-3.22.721"/><path fill="#0E53BE" d="M334.936 259.325c-3.695-2.796-7.597-3.349-12.23-3.161a37.3 37.3 0 0 0-13.377 3.448c-7.241 3.171-14.048 7.844-18.375 14.463s-5.829 15.372-2.588 22.584a3.24 3.24 0 0 0 1.462 1.778 3.53 3.53 0 0 0 2.43-.188c8.229-2.687 16.518-5.404 24.095-9.602 7.578-4.199 14.464-10.057 18.524-17.704a15.1 15.1 0 0 0 1.976-5.878 7.31 7.31 0 0 0-1.887-5.74"/><path fill="#263238" d="M335.005 258.456a2.8 2.8 0 0 1-.593.247l-1.719.592-1.254.415c-.445.158-.929.366-1.452.573-1.048.415-2.253.84-3.527 1.453l-2.026.918c-.691.326-1.393.722-2.134 1.107-1.491.731-2.963 1.669-4.613 2.618a72.8 72.8 0 0 0-18.158 15.975c-1.146 1.482-2.272 2.855-3.191 4.248-.464.681-.988 1.324-1.363 1.976l-1.166 1.886c-.771 1.186-1.344 2.332-1.897 3.31-.267.494-.534.988-.751 1.373-.217.386-.395.83-.573 1.186-.326.672-.602 1.215-.81 1.64a2.6 2.6 0 0 1-.316.553q.096-.303.227-.593l.721-1.679q.237-.564.534-1.215c.207-.435.454-.899.711-1.393.534-.988 1.087-2.164 1.838-3.369l1.156-1.917c.395-.662.879-1.314 1.343-1.976.909-1.402 1.976-2.805 3.161-4.297a70.4 70.4 0 0 1 18.287-16.084c1.63-.987 3.151-1.877 4.663-2.598.751-.365 1.462-.76 2.163-1.077l2.045-.889c1.295-.602 2.52-.988 3.577-1.403.523-.187.988-.375 1.472-.523l1.274-.376 1.759-.503a4 4 0 0 1 .612-.178M306.158 274.085a91 91 0 0 1-8.98 2.884 86 86 0 0 1-9.129 2.401 89 89 0 0 1 8.99-2.895 85 85 0 0 1 9.119-2.39"/><path fill="#263238" d="M305.792 293.902a14.6 14.6 0 0 1-.197-2.795c-.05-1.739-.06-4.13 0-6.768.059-2.637.217-5.028.355-6.757.029-.935.149-1.864.356-2.776a16.6 16.6 0 0 1 0 2.806l-.208 6.747c-.079 2.549-.118 4.851-.168 6.748a17 17 0 0 1-.138 2.795M322.775 285.248c-.148 0-.593-4.85-.988-10.867-.395-6.016-.642-10.867-.504-10.867.139 0 .603 4.851.988 10.867.386 6.017.642 10.857.504 10.867M301.633 263.04c.958-.113 1.923-.14 2.885-.079 1.768 0 4.218.059 6.915.148s5.157.197 6.916.306c.961.01 1.92.102 2.865.277-.954.114-1.916.144-2.875.089-1.778 0-4.228-.07-6.915-.158a257 257 0 0 1-6.916-.307 14.5 14.5 0 0 1-2.875-.276M344.075 324.014a4 4 0 0 1-.06-.582c0-.445 0-.988-.069-1.69-.069-1.462-.079-3.586 0-6.204s.227-5.75.534-9.198c.306-3.447.82-7.241 1.511-11.183.692-3.942 1.561-7.666 2.44-11.025.88-3.359 1.818-6.333 2.678-8.812.859-2.48 1.6-4.466 2.173-5.819.267-.633.474-1.146.652-1.561q.093-.28.257-.524-.046.293-.168.563c-.138.415-.326.988-.553 1.591a111 111 0 0 0-1.976 5.868c-.771 2.49-1.689 5.473-2.559 8.822a151 151 0 0 0-2.4 10.986c-.712 3.932-1.186 7.696-1.542 11.134-.355 3.438-.553 6.55-.642 9.168s-.138 4.732-.138 6.194v1.69q-.026.302-.138.582"/><path fill="#263238" d="M346.346 294.722a12 12 0 0 1-1.719 1.887c-1.106 1.107-2.687 2.589-4.485 4.169-1.798 1.581-3.477 2.964-4.722 3.903a12.4 12.4 0 0 1-2.085 1.452c.557-.64 1.18-1.219 1.858-1.729l4.613-4.011 4.574-4.05a14 14 0 0 1 1.966-1.621M359.931 305.669a21 21 0 0 1-1.779-2.52l-4.248-6.194-4.327-6.135a19.3 19.3 0 0 1-1.739-2.588c.747.726 1.425 1.52 2.026 2.371a129 129 0 0 1 4.465 6.056c1.68 2.41 3.122 4.643 4.13 6.293.567.862 1.06 1.771 1.472 2.717M352.818 271.249c.069.119-4.436 3.152-10.087 6.787-5.651 3.636-10.284 6.471-10.363 6.353s4.445-3.162 10.086-6.787 10.285-6.481 10.364-6.353M365.542 284.982a83 83 0 0 1-6.826-6.303 86 86 0 0 1-6.471-6.679 81 81 0 0 1 6.826 6.303 84 84 0 0 1 6.471 6.679"/><path fill="#0E53BE" d="m368.743 284.705 3.873-.316a19.2 19.2 0 0 0 7.834-2.401 32 32 0 0 1 3.645-1.828c4.792-1.926 10.136-1.58 15.293-1.837a63.2 63.2 0 0 0 24.323-6.224 2.35 2.35 0 0 0 1.067-.988c.79-1.452-.682-2.746-1.976-3.527-6.53-4.021-13.179-8.101-20.578-10.096-7.4-1.996-15.807-1.66-22.13 2.687-7.409 5.107-10.116 15.589-11.371 24.5"/><path fill="#263238" d="m424.857 270.666-.652-.306-1.837-.988c-1.591-.839-3.883-2.074-6.787-3.457a62 62 0 0 0-10.502-4.051 34.7 34.7 0 0 0-13.604-1.106 23.3 23.3 0 0 0-12.408 5.334 27.5 27.5 0 0 0-6.461 9.07c-1.363 2.904-2.203 5.374-2.816 7.063l-.691 1.976a3.4 3.4 0 0 1-.267.672q.047-.36.168-.702c.158-.503.356-1.165.603-1.975a66 66 0 0 1 2.667-7.153 27.5 27.5 0 0 1 6.481-9.277 23.5 23.5 0 0 1 12.655-5.483 34.5 34.5 0 0 1 13.831 1.156 60.4 60.4 0 0 1 10.531 4.179 122 122 0 0 1 6.728 3.616l1.788 1.037q.308.166.573.395"/><path fill="#263238" d="M415.551 275.665c-.079.119-5.147-3.161-11.312-7.32s-11.114-7.637-11.035-7.755 5.147 3.161 11.322 7.32 11.104 7.637 11.025 7.755M410.691 260.076a19.1 19.1 0 0 1-7.993.731 24.3 24.3 0 0 1 3.952-.445 22.6 22.6 0 0 1 4.041-.286M387.958 256.035a13.4 13.4 0 0 1-1.66 3.32 13.8 13.8 0 0 1-2.104 3.072 13.8 13.8 0 0 1 1.62-3.339 14 14 0 0 1 2.144-3.053M392.503 278.649a13.5 13.5 0 0 1-2.441-1.324c-1.462-.889-3.438-2.193-5.552-3.724a158 158 0 0 1-5.325-4.051 15.6 15.6 0 0 1-2.104-1.808c.823.433 1.604.943 2.332 1.522l5.394 3.951a241 241 0 0 0 5.453 3.833q1.187.71 2.243 1.601"/><path fill="#0E53BE" d="M374.453 301.174c-3.695-.988-8.101 2.618-8.891 6.362-.791 3.744.652 7.577 2.292 11.035a56.3 56.3 0 0 0 15.283 19.996c6.619 5.275 14.908 8.644 23.374 8.604-1.561-7.261.415-14.819-.454-22.218a28.89 28.89 0 0 0-25.578-25.36c-2.361-.257-5.088-.632-6.026 1.551"/><path fill="#263238" d="M406.561 347.171a2.7 2.7 0 0 1-.524-.247 8.7 8.7 0 0 1-1.452-.899 14.4 14.4 0 0 1-3.656-4.88c-.583-1.146-1.244-2.391-1.887-3.764a207 207 0 0 1-1.975-4.396 43 43 0 0 0-2.45-4.693 37 37 0 0 0-3.359-4.574c-2.53-2.964-5.246-5.542-7.598-8.002a52 52 0 0 1-5.799-6.916 25 25 0 0 1-2.825-5.404 13 13 0 0 1-.494-1.59 2 2 0 0 1-.119-.563c.05 0 .257.751.791 2.074a27.7 27.7 0 0 0 2.963 5.276 54.6 54.6 0 0 0 5.839 6.826c2.361 2.431 5.098 4.999 7.656 8.003a37 37 0 0 1 3.399 4.643 42 42 0 0 1 2.44 4.762c.692 1.551 1.334 3.033 1.976 4.416s1.265 2.628 1.828 3.774a15.1 15.1 0 0 0 3.457 4.939c1.057.82 1.789 1.166 1.789 1.215"/><path fill="#263238" d="M387.415 341.135c.018-.84.134-1.676.345-2.489a76 76 0 0 1 1.403-5.928 64 64 0 0 1 1.877-5.75c.238-.803.57-1.576.988-2.302a13 13 0 0 1-.672 2.421 256 256 0 0 0-1.719 5.779 208 208 0 0 0-1.541 5.819 12.7 12.7 0 0 1-.681 2.45M405.83 323.303a15 15 0 0 1-2.599-.603c-1.6-.414-3.793-.987-6.243-1.531s-4.683-.988-6.293-1.284a14 14 0 0 1-2.609-.583 14 14 0 0 1 2.668.217 76 76 0 0 1 6.352 1.146 73 73 0 0 1 6.224 1.69c.866.221 1.705.539 2.5.948M373.702 328.5c.035-.973.168-1.939.395-2.885.326-1.759.85-4.189 1.542-6.837a120 120 0 0 1 1.975-6.718c.26-.935.614-1.842 1.057-2.706-.162.955-.4 1.897-.711 2.815a297 297 0 0 0-1.857 6.738c-.692 2.638-1.265 5.048-1.68 6.787q-.253 1.43-.721 2.806M397.353 307.793c-3.446-.1-6.886-.377-10.304-.83-5.68-.603-10.274-1.205-10.255-1.344 3.447.1 6.886.377 10.305.83 5.68.603 10.264 1.205 10.254 1.344"/><path fill="#455A64" d="M393.974 363.808c0 .138-16.221.257-36.227.257s-36.227-.119-36.227-.257 16.212-.257 36.227-.257c20.016 0 36.227.059 36.227.257M382.682 384.633c0 .139-10.926.257-24.401.257-13.476 0-24.412-.118-24.412-.257 0-.138 10.927-.256 24.412-.256s24.401.108 24.401.256M383.107 387.617c0 .138-10.926.257-24.401.257-13.476 0-24.412-.119-24.412-.257s10.926-.257 24.412-.257 24.401.158 24.401.257M383.108 382.173c0 .139-11.302.257-25.242.257s-25.251-.118-25.251-.257c0-.138 11.302-.256 25.251-.256s25.242.108 25.242.256"/><mask id="b" width="47" height="47" x="103" y="161" maskUnits="userSpaceOnUse" style="mask-type:luminance"><path fill="#fff" d="m149.699 177.374-31.109-16.039-15.288 29.653 31.108 16.039z"/></mask><g mask="url(#b)"><path fill="url(#c)" d="M123.847 177.785c-.642 3.979-3.353 10.272-.096 11.951q.373.192.787.315c-2.605-2.217.143-8.407-.059-12.45q-.318.085-.632.184"/><path fill="url(#d)" d="M124.479 177.601c.202 4.043-2.545 10.233.059 12.45q.383.115.797.172c-1.986-2.672.288-8.887-.315-12.754a16 16 0 0 0-.541.132"/><path fill="#14559A" d="M128.036 177.092a4.5 4.5 0 0 0-.788-.315c-.723-.215-1.539-.277-2.435-.195q.136.417.207.887c.98-.215 1.879-.285 2.688-.187q.444.053.874.181a2.6 2.6 0 0 0-.546-.371"/><path fill="url(#e)" d="M128.027 190.092q.6-.12 1.187-.295c.616-3.973 3.388-10.344.108-12.035a4.3 4.3 0 0 0-.741-.299c2.605 2.283-.364 8.979-.554 12.629"/><path fill="#3092C4" d="M128.581 177.463a2.6 2.6 0 0 0-.545-.371l1.287.669a4.3 4.3 0 0 0-.741-.298"/><path fill="#1969BC" d="M127.599 190.783a6 6 0 0 1-.164-.591 7.6 7.6 0 0 1-2.101.031 2.9 2.9 0 0 0 1.003.847c.613.316 1.135.493 1.65.508a3.2 3.2 0 0 1-.388-.795"/><path fill="url(#f)" d="M127.708 177.282c1.954 2.779-1.081 9.236-.272 12.911q.297-.042.591-.101c.19-3.65 3.159-10.347.555-12.629a5 5 0 0 0-.874-.181"/><path fill="url(#g)" d="M125.019 177.469c.603 3.867-1.671 10.082.315 12.754a7.6 7.6 0 0 0 2.101-.031c-.808-3.674 2.227-10.131.273-12.91-.81-.098-1.709-.028-2.689.187"/><path fill="url(#h)" d="M122.577 177.026c-.697.561-1.518 1.347-2.558 2.39 1.363-.705 2.645-1.258 3.828-1.631q.096-.583.12-1.09-.704.128-1.39.331"/><path fill="#2B74B1" d="M124.361 176.633q-.198.028-.393.063a10 10 0 0 1-.121 1.088q.314-.098.632-.183a6.5 6.5 0 0 0-.118-.968"/><path fill="#125A9E" d="M124.813 176.582q-.227.02-.452.051.093.459.118.968.269-.072.541-.132a5.7 5.7 0 0 0-.207-.887"/><path fill="url(#i)" d="M143.666 184.822c-4.522 5.056-10.099 8.114-13.359 7.929l-.004-.002-.175-.013q-.013 0-.021-.002l-.049-.006q-.012 0-.022-.002-.04-.006-.078-.01l-.033-.005-.038-.006-.037-.005q-.018-.003-.034-.005l-.065-.012c-.008-.005-.018-.004-.027-.006q-.021-.004-.044-.01-.015 0-.029-.006l-.048-.011-.056-.014q.149.162.345.262c2.512 1.295 7.367-1.902 15.42-7.229l-1.646-.848z"/><path fill="url(#j)" d="M121.981 174.27q.005 0 .006-.002.005.004.009 0l.003.001.048.006q.005.004.01 0 .006.001.013.001l.052.007.002.001q.058.01.114.016.008.001.017.004l.047.009q.012 0 .022.003l.048.009c.006.004.014.002.018.004q.08.017.157.036.01.003.021.005l.045.013c.007-.001.014.003.022.004q.023.005.045.014l.009.004.093.028.016.009q.022.006.043.013.012.004.024.008.019.007.04.013a.04.04 0 0 0 .022.007q.047.017.095.038a3 3 0 0 0-.26-.151c-2.83-1.459-9.436 1.781-14.698 7.675l.339.175a114 114 0 0 0 2.993-2.053c3.713-4.182 7.911-6.175 10.585-5.898"/><path fill="#0D82CA" d="M122.576 177.026q.687-.203 1.391-.331.015-.281-.001-.562c-.42.181-.871.473-1.39.893M123.786 175.251c.105.25.161.549.18.882q.117-.05.231-.088a3.2 3.2 0 0 0-.437-.831q.01.016.023.03z"/><path fill="url(#k)" d="M111.395 180.168c5.144-3.642 7.989-6.159 10.586-5.898-2.674-.276-6.873 1.716-10.585 5.898"/><path fill="#127BCA" d="M124.196 176.045a3 3 0 0 0-.23.088q.016.281.001.563.197-.035.393-.063a4 4 0 0 0-.164-.588"/><path fill="url(#l)" d="M111.114 183.59c-.018-.004-.034-.013-.05-.019l-.009-.004q-.021-.008-.042-.017l-.006-.003q-.05-.02-.098-.043l-.01-.005c2.649 1.274 4.517.581 6.087-1.01 1.192-1.205 2.186-2.226 3.034-3.075-1.888.976-3.933 2.245-6.098 3.731-1.043.716-2.067.713-2.807.443"/><path fill="url(#m)" d="M111.114 183.589c.741.269 1.764.274 2.808-.443 2.164-1.486 4.21-2.755 6.097-3.731 1.041-1.043 1.861-1.829 2.558-2.39-3.247.95-7.211 3.27-11.462 6.563"/><path fill="#05A1E6" d="M111.395 180.168c-.92.652-1.914 1.339-2.993 2.052l.985.508a27 27 0 0 1 2.008-2.56"/><path fill="url(#n)" d="M122.926 174.485c-.008-.004-.016-.003-.023-.007q-.02-.004-.039-.013-.011-.007-.024-.008-.022-.006-.043-.013-.009-.005-.019-.005l-.091-.028-.009-.005-.045-.013q-.013-.001-.024-.005-.022-.005-.044-.013-.011 0-.021-.005l-.156-.036q-.008-.002-.019-.003l-.048-.009q-.012 0-.021-.004l-.048-.009q-.009-.003-.017-.004-.056-.006-.113-.016l-.052-.007q-.011 0-.022-.002l-.049-.006q-.01 0-.016-.001c-2.597-.26-5.442 2.256-10.586 5.898a27 27 0 0 0-2.009 2.56l.139.071c.389.201.501.253.948.484l.434.224q.049.02.098.042l.006.003c.014.007.029.01.042.017l.01.005q.022.01.049.018c4.251-3.292 8.215-5.612 11.463-6.563.519-.419.969-.712 1.389-.892a2.7 2.7 0 0 0-.18-.883s-.005-.002-.003-.006l-.024-.031-.022-.031-.022-.03q-.016-.016-.028-.033l-.021-.026-.045-.053-.019-.022-.034-.039q-.009-.01-.019-.019l-.049-.051-.005-.002q-.028-.029-.058-.055-.006-.009-.013-.013l-.049-.046c-.005-.002-.008-.009-.012-.011a3 3 0 0 0-.127-.105q-.006-.006-.013-.012l-.057-.042a.02.02 0 0 0-.01-.01l-.069-.048-.013-.006c-.018-.015-.036-.024-.053-.036q-.05-.019-.095-.038"/><path fill="url(#o)" d="M136.089 185.005c-1.316 1.335-2.394 2.439-3.301 3.339 2.329-1.173 4.886-2.839 7.567-4.902-1.732-.3-3.079.362-4.266 1.563"/><path fill="url(#p)" d="M130.566 192.759q-.131 0-.259-.008c3.26.185 8.837-2.873 13.359-7.929l-.307-.158c-6.678 4.418-9.94 7.999-12.793 8.095"/><path fill="#079AE1" d="M129.105 191.345c.94-.406 2.026-1.36 3.684-3.001-1.264.634-2.458 1.124-3.571 1.452q-.001.005-.007.004c-.088.571-.132 1.093-.107 1.544"/><path fill="#1969BC" d="M129.105 191.345c-.32.138-.621.214-.922.23a3 3 0 0 1-.197.003 2.5 2.5 0 0 0 .804.751l.008.005q.03.014.061.036l.216.111a.05.05 0 0 0 .026.009q.024.013.05.021l.023.012q.027.01.055.021l.004.002q.009.001.018.004.03.01.059.02l.017.009.067.021.01.005q.069.021.137.038c-.277-.302-.411-.744-.441-1.292"/><path fill="#1E5CB3" d="M123.751 189.736q.373.192.787.315.383.115.797.172a2.85 2.85 0 0 0 1.003.847z"/><path fill="#1E5CB3" d="M126.338 191.07c.612.316 1.135.493 1.649.508a2.5 2.5 0 0 0 .803.751l.008.004q.031.015.061.037l.075.039-2.598-1.34z"/><path fill="#1D60B5" d="m128.935 192.409.142.073a.05.05 0 0 0 .026.009.3.3 0 0 0 .05.021l.024.012q.025.011.054.021l.004.002q.008.003.018.004l.059.02q.008.005.019.005l.067.022.01.005q.069.021.137.038.15.162.345.262l-.957-.489z"/><path fill="#175FAB" d="m129.213 189.801.002-.004q-.586.175-1.186.295a11 11 0 0 1-.592.1q.067.307.163.591c.098.289.224.555.388.795q.098.002.196-.003c.301-.016.603-.091.923-.23-.024-.451.019-.973.107-1.544"/><path fill="url(#q)" d="m142.388 184.164-1.543-.796q-.127-.06-.25-.114-.12.091-.24.185c-2.681 2.062-5.238 3.729-7.567 4.901-1.657 1.641-2.744 2.595-3.683 3.001.03.548.164.991.44 1.292q.017.003.03.008l.006.003c.006.003.014.002.021.006l.048.011q.014.002.029.006l.043.01q.015.001.028.005.033.007.065.012l.033.005q.02.004.038.005.02.004.038.007l.032.004.079.011c.006.003.015 0 .022.002l.049.005q.01 0 .02.003.086.008.175.013l.005.002q.129.008.259.008c2.853-.096 6.115-3.677 12.793-8.095l-.971-.501.002.001z"/><path fill="#7DCBEC" d="M123.021 174.523q.008.004.014.012.02.01.038.026l.013.007.069.047a.02.02 0 0 1 .01.01l.057.043c.004.002.008.009.013.012q.066.051.127.105c.004.002.007.009.011.011l.049.046q.007.006.013.013a1 1 0 0 1 .062.061l.049.051a.1.1 0 0 0 .019.019l.033.04c.008.004.013.014.02.021l.045.053.022.026.026.032.023.03.023.032q.273.374.437.831.175-.061.355-.095a3 3 0 0 0-1.317-1.328q-.104-.053-.214-.099"/><path fill="#5EC5ED" d="M124.196 176.045q.103.288.164.588.227-.032.453-.051a4 4 0 0 0-.261-.632 2.3 2.3 0 0 0-.356.095"/><path fill="url(#r)" d="M123.02 174.523a3 3 0 0 1 1.532 1.427c.683-.133 1.338.036 2.152.456l-3.944-2.034q.136.071.26.151"/><path fill="url(#s)" d="M126.704 176.406c-.814-.42-1.469-.589-2.152-.456q.157.305.261.632c.896-.082 1.712-.021 2.436.195q.407.12.786.315z"/><path fill="url(#t)" d="M132.788 188.345c.907-.9 1.985-2.005 3.302-3.339 1.188-1.202 2.533-1.865 4.265-1.564q.12-.091.24-.184c-2.504-1.107-4.277-.457-5.792 1.079-2.647 2.68-4.32 4.439-5.584 5.459 1.112-.328 2.306-.818 3.569-1.451"/><path fill="#000" d="m134.327 194.112-.275-.142-.442.856-.112-.058.441-.856-.276-.143.052-.102.664.343-.052.101zm.686 1.436-.112-.057.332-.643q.04-.076.105-.182a1 1 0 0 1-.078.079l-.705.567-.055-.028.049-.899a1 1 0 0 1 .022-.114l-.004-.002a3 3 0 0 1-.091.19l-.331.642-.108-.055.494-.958.148.076-.051.82a1 1 0 0 1-.016.137l.005.002q.07-.063.107-.094l.642-.511.142.073-.494.958z"/></g><mask id="u" width="64" height="41" x="328" y="156" maskUnits="userSpaceOnUse" style="mask-type:luminance"><path fill="#fff" d="M391.492 156.5H328v40h63.492z"/></mask><g mask="url(#u)"><path fill="#621EE5" d="M331.225 176.867a1.8 1.8 0 0 0-.577-.404 1.7 1.7 0 0 0-.688-.142 1.7 1.7 0 0 0-.688.137 1.8 1.8 0 0 0-.577.404 1.7 1.7 0 0 0-.385.582 1.9 1.9 0 0 0-.131.688c-.005.238.04.471.131.689s.223.415.39.582a1.681 1.681 0 0 0 1.265.531c.236.001.469-.045.687-.136.217-.092.414-.226.578-.395.172-.162.304-.36.395-.577.091-.218.136-.451.136-.688a1.753 1.753 0 0 0-.536-1.271m21.177-4.108a25 25 0 0 0 .162 3.4h-.061q-.214-.417-.936-1.548L340.03 156.5h-3.502v23.12h2.692v-16.714a24 24 0 0 0-.127-3.173h.102c.192.506.44.992.733 1.448l11.851 18.439h3.315V156.5h-2.692zm20.944 4.321h-9.513v-8.01h8.324v-2.439h-8.324v-7.682h8.931V156.5h-11.689v23.12h12.256zm2.06-20.58v2.449h6.628v20.671h2.693v-20.671h6.704V156.5zm-26.384 28.869a5.1 5.1 0 0 0-1.782 1.199 5.7 5.7 0 0 0-1.184 1.913 5.8 5.8 0 0 0-.349 2.221 5.42 5.42 0 0 0 1.366 3.805 4.72 4.72 0 0 0 3.634 1.458 6.2 6.2 0 0 0 2.935-.623l.01-1.179a5.2 5.2 0 0 1-2.768.709 3.579 3.579 0 0 1-2.793-1.154 4.4 4.4 0 0 1-1.063-3.107 4.62 4.62 0 0 1 1.138-3.274 3.9 3.9 0 0 1 1.346-.961 3.9 3.9 0 0 1 1.625-.309 5 5 0 0 1 2.53.632v-1.27a6.2 6.2 0 0 0-2.53-.445 5.5 5.5 0 0 0-2.115.385m12.615 3.623a3.4 3.4 0 0 0-2.642-1.053 3.7 3.7 0 0 0-1.523.248 3.9 3.9 0 0 0-1.3.83 4.1 4.1 0 0 0-1.048 2.996 3.97 3.97 0 0 0 .997 2.828 3.488 3.488 0 0 0 2.692 1.129 3.6 3.6 0 0 0 1.498-.278 3.5 3.5 0 0 0 1.25-.876 4.08 4.08 0 0 0 1.022-2.915 4.2 4.2 0 0 0-.946-2.909m-.926 5.197a2.24 2.24 0 0 1-1.807.764 2.4 2.4 0 0 1-1.012-.182 2.3 2.3 0 0 1-.835-.603 3.1 3.1 0 0 1-.683-2.13 3.3 3.3 0 0 1 .683-2.206c.228-.263.511-.471.83-.613a2.3 2.3 0 0 1 1.012-.187c.344-.02.683.046.997.182.314.137.592.345.815.608.46.636.683 1.412.632 2.196a3.3 3.3 0 0 1-.632 2.171m5.865-5.693c-.38.339-.658.779-.795 1.27v-1.589h-1.265v7.611h1.265v-3.882a3.4 3.4 0 0 1 .516-2.003 1.55 1.55 0 0 1 1.265-.734c.324-.025.648.061.921.243v-1.255a2 2 0 0 0-.718-.101 1.78 1.78 0 0 0-1.189.44m9.31 3.142a4.03 4.03 0 0 0-.809-2.687 2.9 2.9 0 0 0-1.043-.749 2.8 2.8 0 0 0-1.26-.217 3.229 3.229 0 0 0-2.53 1.118 4.16 4.16 0 0 0-.997 2.889 4.24 4.24 0 0 0 .921 2.915c.319.349.714.623 1.149.805s.911.258 1.381.238a4.4 4.4 0 0 0 2.642-.724v-1.144a3.8 3.8 0 0 1-2.353.85 2.3 2.3 0 0 1-.972-.151 2.4 2.4 0 0 1-.825-.537 2.82 2.82 0 0 1-.642-1.953h5.348zm-5.348-.354a2.8 2.8 0 0 1 .744-1.609 1.94 1.94 0 0 1 1.457-.623 1.72 1.72 0 0 1 1.391.582c.355.471.532 1.048.506 1.635z"/></g><mask id="v" width="41" height="41" x="217" y="44" maskUnits="userSpaceOnUse" style="mask-type:luminance"><path fill="#fff" d="m243.164 44.407-25.546 13.785 14.247 26.401 25.546-13.785z"/></mask><g mask="url(#v)"><path fill="#EBEBEB" stroke="#fff" stroke-width="3" d="m244.074 48.141-6.908.789-4.705 15.005-8.423-1.323-1.654 2.367 6.43 11.92 2.871-.086 3.515-7.76 15.144 4.282 4.452-5.33z"/><path fill="#fff" d="m240.891 57.185-3.385 7.303 7.982 1.211zm-13.833 9.672 2.756 5.1 1.449-4.098z"/></g><mask id="w" width="27" height="31" x="253" y="157" maskUnits="userSpaceOnUse" style="mask-type:luminance"><path fill="#fff" d="M279.664 157.5H253v30h26.664z"/></mask><g mask="url(#w)"><path fill="#0E53BE" d="M279.545 166.381q0-.75-.323-1.32-.317-.56-.956-.931c-3.518-2.029-7.04-4.052-10.558-6.083-.948-.547-1.867-.527-2.809.028-1.4.826-8.412 4.843-10.501 6.054-.861.498-1.279 1.26-1.279 2.251-.002 4.08 0 8.16-.002 12.24q0 .734.309 1.294.317.577.971.957c2.089 1.211 9.102 5.227 10.502 6.054.942.555 1.861.575 2.81.027 3.517-2.031 7.039-4.053 10.558-6.082q.653-.38.971-.957.309-.56.309-1.294s0-8.158-.002-12.238"/><path fill="#0E53BE" d="m266.373 172.46-12.947 7.454q.318.577.971.957c2.089 1.211 9.102 5.227 10.502 6.054.942.555 1.861.575 2.81.027 3.517-2.031 7.039-4.053 10.558-6.082q.653-.38.971-.957z"/><path fill="#409DFF" d="M279.546 166.381q0-.75-.323-1.32l-12.85 7.399 12.865 7.453q.309-.56.309-1.294z"/><path fill="#fff" d="M273.995 169.674v1.393h1.393v-1.393h.697v1.393h1.393v.697h-1.393v1.393h1.393v.696h-1.393v1.394h-.697v-1.394h-1.393v1.394h-.697v-1.394h-1.393v-.696h1.393v-1.393h-1.393v-.697h1.393v-1.393zm1.393 2.089h-1.393v1.394h1.393z"/><path fill="#fff" d="M266.401 162.676a9.82 9.82 0 0 1 8.506 4.907l-.016-.028-4.276 2.462a4.89 4.89 0 0 0-4.159-2.409h-.055a4.892 4.892 0 1 0 4.262 7.291l-.02.035 4.269 2.474a9.82 9.82 0 0 1-8.402 4.915l-.109.001a9.82 9.82 0 0 1-9.824-9.824c0-5.426 4.398-9.824 9.824-9.824"/></g><mask id="x" width="40" height="40" x="278" y="0" maskUnits="userSpaceOnUse" style="mask-type:luminance"><path fill="#fff" d="M317.412 12.352 289.853.5l-11.852 27.56 27.559 11.852z"/></mask><g mask="url(#x)"><path fill="#E0E0E0" d="m313.081 22.423-2.834-1.219-3.736 8.687-1.636-.704 3.735-8.687-2.827-1.215.613-1.424 7.297 3.138zm-11.604 5.303-5.536-2.38 4.348-10.112 5.317 2.287-.613 1.424-3.68-1.583-1.232 2.864 3.391 1.458-.609 1.417-3.391-1.458-1.286 2.99 3.9 1.677zm-7.703-3.313-1.789-.769-1.514-9.458a3.6 3.6 0 0 1-.045-.713l-.041-.018q-.085.35-.543 1.414l-2.85 6.628-1.581-.68 4.348-10.111 1.905.82 1.432 9.215q.094.574.104.78l.028.011q.103-.432.516-1.39l2.803-6.518 1.576.677zm-9.652-5.093a1 1 0 0 1-.582.547 1.129 1.129 0 0 1-1.41-.607 1.02 1.02 0 0 1-.002-.8c.109-.251.318-.448.582-.546s.56-.089.824.025q.198.085.351.236.151.151.235.345.082.195.083.402a1 1 0 0 1-.081.398"/></g><path fill="#0C0E0F" fill-rule="evenodd" d="M290.964 100.1c-.275 0-.503.184-.503.458 0 .32.228.503.503.503.274 0 .503-.183.503-.503 0-.274-.229-.458-.503-.458m0 .046a.4.4 0 0 1 .291.12.4.4 0 0 1 .12.292c0 .274-.183.457-.411.457-.275 0-.458-.183-.458-.457.001-.229.183-.412.458-.412m.228.732-.137-.274q.137-.069.137-.138c0-.091-.091-.182-.228-.182h-.229v.594h.092v-.228h.137l.137.228zm-.365-.32v-.183h.137a.2.2 0 0 1 .137.046q0 .137-.137.137z" clip-rule="evenodd"/><path fill="#A1C677" fill-rule="evenodd" d="M270.198 122.056h7.547v-.138h-7.547z" clip-rule="evenodd"/><path fill="#A4C67F" fill-rule="evenodd" d="M270.198 121.918h7.547v-.137h-7.547z" clip-rule="evenodd"/><path fill="#A9C983" fill-rule="evenodd" d="M270.198 121.781h7.547v-.183h-7.547z" clip-rule="evenodd"/><path fill="#AECC8B" fill-rule="evenodd" d="M270.198 121.598h7.547v-.137h-7.547z" clip-rule="evenodd"/><path fill="#B1CF92" fill-rule="evenodd" d="M270.198 121.461h7.547v-.138h-7.547z" clip-rule="evenodd"/><path fill="#B6D296" fill-rule="evenodd" d="M270.198 121.323h7.547v-.137h-7.547z" clip-rule="evenodd"/><path fill="#B9D29B" fill-rule="evenodd" d="M270.198 121.186h7.547v-.183h-7.547z" clip-rule="evenodd"/><path fill="#BDD4A0" fill-rule="evenodd" d="M270.198 121.003h7.547v-.137h-7.547z" clip-rule="evenodd"/><path fill="#C4D9A8" fill-rule="evenodd" d="M270.198 120.866h7.547v-.137h-7.547z" clip-rule="evenodd"/><path fill="#C5DAAD" fill-rule="evenodd" d="M270.198 120.728h7.547v-.136h-7.547z" clip-rule="evenodd"/><path fill="#C8DAB2" fill-rule="evenodd" d="M270.198 120.592h7.547v-.183h-7.547z" clip-rule="evenodd"/><path fill="#CEDEB9" fill-rule="evenodd" d="M270.198 120.408h7.547v-.136h-7.547z" clip-rule="evenodd"/><path fill="#D2E0BE" fill-rule="evenodd" d="M270.198 120.272h7.547v-.138h-7.547z" clip-rule="evenodd"/><path fill="#D6E2C4" fill-rule="evenodd" d="M270.198 120.134h7.547v-.137h-7.547z" clip-rule="evenodd"/><path fill="#DAE7CB" fill-rule="evenodd" d="M270.198 119.997h7.547v-.137h-7.547z" clip-rule="evenodd"/><path fill="#DCE8D0" fill-rule="evenodd" d="M270.198 119.86h7.547v-.183h-7.547z" clip-rule="evenodd"/><path fill="#E2EBD6" fill-rule="evenodd" d="M270.198 119.677h7.547v-.137h-7.547z" clip-rule="evenodd"/><path fill="#E5EBDC" fill-rule="evenodd" d="M270.198 119.54h7.547v-.138h-7.547z" clip-rule="evenodd"/><path fill="#ECEEE0" fill-rule="evenodd" d="M270.198 119.402h7.547v-.137h-7.547z" clip-rule="evenodd"/><path fill="#F0F1E8" fill-rule="evenodd" d="M270.198 119.265h7.547v-.183h-7.547z" clip-rule="evenodd"/><path fill="#F2F2EE" fill-rule="evenodd" d="M270.198 119.082h7.547v-.137h-7.547z" clip-rule="evenodd"/><path fill="#F7F8F6" fill-rule="evenodd" d="M270.198 118.945h7.547v-.137h-7.547z" clip-rule="evenodd"/><path fill="#fff" fill-rule="evenodd" d="M270.198 118.808h7.547v-.137h-7.547z" clip-rule="evenodd"/><path fill="#F3D23D" fill-rule="evenodd" d="M277.791 121.872h.137v-6.906h-.137zm.137 0h.138v-6.906h-.138z" clip-rule="evenodd"/><path fill="#F3D43F" fill-rule="evenodd" d="M278.065 121.872h.137v-6.906h-.137z" clip-rule="evenodd"/><path fill="#F3D244" fill-rule="evenodd" d="M278.202 121.872h.183v-6.906h-.183z" clip-rule="evenodd"/><path fill="#F3D44A" fill-rule="evenodd" d="M278.385 121.872h.137v-6.906h-.137z" clip-rule="evenodd"/><path fill="#F3D44E" fill-rule="evenodd" d="M278.522 121.872h.138v-6.906h-.138z" clip-rule="evenodd"/><path fill="#F3D552" fill-rule="evenodd" d="M278.66 121.872h.137v-6.906h-.137z" clip-rule="evenodd"/><path fill="#F2D359" fill-rule="evenodd" d="M278.797 121.872h.183v-6.906h-.183z" clip-rule="evenodd"/><path fill="#F1D65C" fill-rule="evenodd" d="M278.98 121.872h.137v-6.906h-.137z" clip-rule="evenodd"/><path fill="#F4D760" fill-rule="evenodd" d="M279.118 121.872h.137v-6.906h-.137z" clip-rule="evenodd"/><path fill="#F2DA67" fill-rule="evenodd" d="M279.255 121.872h.137v-6.906h-.137z" clip-rule="evenodd"/><path fill="#F2DA6B" fill-rule="evenodd" d="M279.392 121.872h.137v-6.906h-.137z" clip-rule="evenodd"/><path fill="#F5DB6F" fill-rule="evenodd" d="M279.529 121.872h.183v-6.906h-.183z" clip-rule="evenodd"/><path fill="#F6DD72" fill-rule="evenodd" d="M279.712 121.872h.137v-6.906h-.137z" clip-rule="evenodd"/><path fill="#F5DC77" fill-rule="evenodd" d="M279.849 121.872h.137v-6.906h-.137z" clip-rule="evenodd"/><path fill="#F5DC7B" fill-rule="evenodd" d="M279.986 121.872h.138v-6.906h-.138z" clip-rule="evenodd"/><path fill="#F5DC7F" fill-rule="evenodd" d="M280.124 121.872h.183v-6.906h-.183z" clip-rule="evenodd"/><path fill="#F5DC80" fill-rule="evenodd" d="M280.307 121.872h.137v-6.906h-.137z" clip-rule="evenodd"/><path fill="#F5DD84" fill-rule="evenodd" d="M280.444 121.872h.137v-6.906h-.137z" clip-rule="evenodd"/><path fill="#F5DF88" fill-rule="evenodd" d="M280.581 121.872h.137v-6.906h-.137z" clip-rule="evenodd"/><path fill="#F5DF8B" fill-rule="evenodd" d="M280.718 121.872h.183v-6.906h-.183z" clip-rule="evenodd"/><path fill="#F5DF8D" fill-rule="evenodd" d="M280.901 121.872h.138v-6.906h-.138z" clip-rule="evenodd"/><path fill="#F4E08E" fill-rule="evenodd" d="M281.039 121.872h.137v-6.906h-.137z" clip-rule="evenodd"/><path fill="#F6E193" fill-rule="evenodd" d="M281.176 121.872h.137v-6.906h-.137z" clip-rule="evenodd"/><path fill="#F4E297" fill-rule="evenodd" d="M281.313 121.872h.137v-6.906h-.137z" clip-rule="evenodd"/><path fill="#F7E69B" fill-rule="evenodd" d="M281.45 121.872h.183v-6.906h-.183z" clip-rule="evenodd"/><path fill="#F7E69D" fill-rule="evenodd" d="M281.633 121.872h.137v-6.906h-.137z" clip-rule="evenodd"/><path fill="#F7E6A0" fill-rule="evenodd" d="M281.77 121.872h.137v-6.906h-.137z" clip-rule="evenodd"/><path fill="#F7E6A4" fill-rule="evenodd" d="M281.907 121.872h.138v-6.906h-.138z" clip-rule="evenodd"/><path fill="#F7E7A8" fill-rule="evenodd" d="M282.045 121.872h.183v-6.906h-.183z" clip-rule="evenodd"/><path fill="#F7E7AB" fill-rule="evenodd" d="M282.228 121.872h.137v-6.906h-.137z" clip-rule="evenodd"/><path fill="#F7E7AD" fill-rule="evenodd" d="M282.365 121.872h.137v-6.906h-.137z" clip-rule="evenodd"/><path fill="#FAE9B1" fill-rule="evenodd" d="M282.502 121.872h.137v-6.906h-.137z" clip-rule="evenodd"/><path fill="#F7E7B4" fill-rule="evenodd" d="M282.64 121.872h.137v-6.906h-.137z" clip-rule="evenodd"/><path fill="#F7E8B6" fill-rule="evenodd" d="M282.777 121.872h.183v-6.906h-.183z" clip-rule="evenodd"/><path fill="#F7E8B8" fill-rule="evenodd" d="M282.959 121.872h.137v-6.906h-.137z" clip-rule="evenodd"/><path fill="#F7E8BC" fill-rule="evenodd" d="M283.096 121.872h.138v-6.906h-.138z" clip-rule="evenodd"/><path fill="#F7E8BF" fill-rule="evenodd" d="M283.234 121.872h.137v-6.906h-.137z" clip-rule="evenodd"/><path fill="#F7EAC4" fill-rule="evenodd" d="M283.371 121.872h.183v-6.906h-.183z" clip-rule="evenodd"/><path fill="#F7EBC5" fill-rule="evenodd" d="M283.554 121.872h.137v-6.906h-.137z" clip-rule="evenodd"/><path fill="#F7EBC7" fill-rule="evenodd" d="M283.691 121.872h.137v-6.906h-.137z" clip-rule="evenodd"/><path fill="#F8EDCC" fill-rule="evenodd" d="M283.829 121.872h.137v-6.906h-.137z" clip-rule="evenodd"/><path fill="#FBEFD0" fill-rule="evenodd" d="M283.966 121.872h.137v-6.906h-.137z" clip-rule="evenodd"/><path fill="#F8EFD2" fill-rule="evenodd" d="M284.103 121.872h.183v-6.906h-.183z" clip-rule="evenodd"/><path fill="#F8F0D6" fill-rule="evenodd" d="M284.286 121.872h.138v-6.906h-.138z" clip-rule="evenodd"/><path fill="#F8F0D9" fill-rule="evenodd" d="M284.423 121.872h.137v-6.906h-.137z" clip-rule="evenodd"/><path fill="#F8F0DB" fill-rule="evenodd" d="M284.56 121.872h.137v-6.906h-.137z" clip-rule="evenodd"/><path fill="#F8F0DF" fill-rule="evenodd" d="M284.697 121.872h.183v-6.906h-.183z" clip-rule="evenodd"/><path fill="#F9F3E4" fill-rule="evenodd" d="M284.88 121.872h.138v-6.906h-.138z" clip-rule="evenodd"/><path fill="#F9F3E6" fill-rule="evenodd" d="M285.018 121.872h.137v-6.906h-.137z" clip-rule="evenodd"/><path fill="#F9F3E9" fill-rule="evenodd" d="M285.155 121.872h.137v-6.906h-.137z" clip-rule="evenodd"/><path fill="#F9F6EB" fill-rule="evenodd" d="M285.292 121.872h.183v-6.906h-.183z" clip-rule="evenodd"/><path fill="#F9F6EE" fill-rule="evenodd" d="M285.475 121.872h.138v-6.906h-.138z" clip-rule="evenodd"/><path fill="#F9F6F0" fill-rule="evenodd" d="M285.612 121.872h.138v-6.906h-.138z" clip-rule="evenodd"/><path fill="#FAF9F4" fill-rule="evenodd" d="M285.75 121.872h.137v-6.906h-.137z" clip-rule="evenodd"/><path fill="#FFFFFB" fill-rule="evenodd" d="M285.887 121.872h.137v-6.906h-.137z" clip-rule="evenodd"/><path fill="#fff" fill-rule="evenodd" d="M286.024 121.872h.183v-6.906h-.183z" clip-rule="evenodd"/><path fill="#769FD2" fill-rule="evenodd" d="M264.023 109.66h6.587v-.183h-6.45z" clip-rule="evenodd"/><path fill="#76A1D3" fill-rule="evenodd" d="M263.886 109.797h6.724v-.137h-6.586z" clip-rule="evenodd"/><path fill="#7AA2D3" fill-rule="evenodd" d="M263.749 109.934h6.861v-.137h-6.724z" clip-rule="evenodd"/><path fill="#7CA3D3" fill-rule="evenodd" d="M263.612 110.072h6.998v-.138h-6.861z" clip-rule="evenodd"/><path fill="#80A4D1" fill-rule="evenodd" d="M263.475 110.255h7.135v-.183h-6.998zM263.337 110.392h7.273v-.137h-7.135z" clip-rule="evenodd"/><path fill="#80A3D0" fill-rule="evenodd" d="M263.2 110.529h7.41v-.137h-7.273z" clip-rule="evenodd"/><path fill="#84A6D1" fill-rule="evenodd" d="M263.063 110.666h7.547v-.137h-7.41zm-.137.183h7.684v-.183h-7.547z" clip-rule="evenodd"/><path fill="#88A9D2" fill-rule="evenodd" d="M262.789 110.987h7.821v-.138h-7.684z" clip-rule="evenodd"/><path fill="#8AABD5" fill-rule="evenodd" d="M262.651 111.123h7.959v-.136h-7.821z" clip-rule="evenodd"/><path fill="#8CACD5" fill-rule="evenodd" d="M262.514 111.261h8.096v-.138h-7.959z" clip-rule="evenodd"/><path fill="#8DAED9" fill-rule="evenodd" d="M262.422 111.398h8.188v-.137h-8.096z" clip-rule="evenodd"/><path fill="#8FAFD9" fill-rule="evenodd" d="M262.285 111.581h8.325v-.183h-8.188z" clip-rule="evenodd"/><path fill="#91AFD7" fill-rule="evenodd" d="M262.148 111.718h8.462v-.137h-8.325z" clip-rule="evenodd"/><path fill="#93B0D9" fill-rule="evenodd" d="M262.011 111.855h8.599v-.137h-8.462z" clip-rule="evenodd"/><path fill="#96B4D9" fill-rule="evenodd" d="M261.874 111.993h8.736v-.138h-8.599z" clip-rule="evenodd"/><path fill="#9AB5DA" fill-rule="evenodd" d="M261.736 112.176h8.874v-.183h-8.736z" clip-rule="evenodd"/><path fill="#9BB6DA" fill-rule="evenodd" d="M261.599 112.313h9.011v-.137h-8.874z" clip-rule="evenodd"/><path fill="#9DB6DA" fill-rule="evenodd" d="M261.462 112.45h9.148v-.137h-9.011z" clip-rule="evenodd"/><path fill="#9FB7DA" fill-rule="evenodd" d="M261.325 112.587h9.285v-.137h-9.148z" clip-rule="evenodd"/><path fill="#A2BBDD" fill-rule="evenodd" d="M261.233 112.77h9.377v-.183h-9.285l-.092.137z" clip-rule="evenodd"/><path fill="#A3BADC" fill-rule="evenodd" d="M261.233 112.907h9.377v-.137h-9.377z" clip-rule="evenodd"/><path fill="#A4BDDE" fill-rule="evenodd" d="M261.233 113.045h9.377v-.138h-9.377z" clip-rule="evenodd"/><path fill="#A8BDDD" fill-rule="evenodd" d="M261.233 113.182h9.377v-.137h-9.377z" clip-rule="evenodd"/><path fill="#A8BFDE" fill-rule="evenodd" d="M261.233 113.319h9.377v-.137h-9.377z" clip-rule="evenodd"/><path fill="#AAC0DE" fill-rule="evenodd" d="M261.233 113.502h9.377v-.183h-9.377z" clip-rule="evenodd"/><path fill="#AEC3E2" fill-rule="evenodd" d="M261.233 113.639h9.377v-.137h-9.377zm0 .138h9.377v-.138h-9.377z" clip-rule="evenodd"/><path fill="#B1C5E3" fill-rule="evenodd" d="M261.233 113.914h9.377v-.137h-9.377z" clip-rule="evenodd"/><path fill="#B3C6E4" fill-rule="evenodd" d="M261.233 114.097h9.377v-.183h-9.377z" clip-rule="evenodd"/><path fill="#B5C9E5" fill-rule="evenodd" d="M261.233 114.234h9.377v-.137h-9.377z" clip-rule="evenodd"/><path fill="#B7C9E5" fill-rule="evenodd" d="M261.233 114.371h9.377v-.137h-9.377z" clip-rule="evenodd"/><path fill="#B9C9E4" fill-rule="evenodd" d="M261.233 114.508h9.377v-.137h-9.377z" clip-rule="evenodd"/><path fill="#BBCBE3" fill-rule="evenodd" d="M261.233 114.691h9.377v-.183h-9.377z" clip-rule="evenodd"/><path fill="#BDCCE3" fill-rule="evenodd" d="M261.233 114.828h9.377v-.182h-9.377z" clip-rule="evenodd"/><path fill="#C0CEE5" fill-rule="evenodd" d="M261.233 114.966h9.377v-.138h-9.377z" clip-rule="evenodd"/><path fill="#C4D0E5" fill-rule="evenodd" d="M261.233 115.103h9.377v-.137h-9.377zm0 .137h9.377v-.137h-9.377z" clip-rule="evenodd"/><path fill="#C6D3E6" fill-rule="evenodd" d="M261.233 115.423h9.377v-.183h-9.377z" clip-rule="evenodd"/><path fill="#C9D5E8" fill-rule="evenodd" d="M261.233 115.561h9.377v-.138h-9.377zm0 .136h9.377v-.136h-9.377z" clip-rule="evenodd"/><path fill="#CCD8E9" fill-rule="evenodd" d="M261.233 115.835h9.377v-.137h-9.377z" clip-rule="evenodd"/><path fill="#CDD7EB" fill-rule="evenodd" d="M261.233 116.018h9.377v-.183h-9.377z" clip-rule="evenodd"/><path fill="#D0DCED" fill-rule="evenodd" d="M261.233 116.155h9.377v-.138h-9.377z" clip-rule="evenodd"/><path fill="#D2DDED" fill-rule="evenodd" d="M261.233 116.292h9.377v-.137h-9.377z" clip-rule="evenodd"/><path fill="#D4DEEE" fill-rule="evenodd" d="M261.233 116.429h9.377v-.137h-9.377z" clip-rule="evenodd"/><path fill="#D6DFF1" fill-rule="evenodd" d="M261.233 116.567h9.377v-.138h-9.377z" clip-rule="evenodd"/><path fill="#D7E0EF" fill-rule="evenodd" d="M261.233 116.75h9.377v-.183h-9.377z" clip-rule="evenodd"/><path fill="#DBE2ED" fill-rule="evenodd" d="M261.233 116.887h9.377v-.137h-9.377z" clip-rule="evenodd"/><path fill="#DEE3ED" fill-rule="evenodd" d="M261.233 117.024h9.377v-.137h-9.377z" clip-rule="evenodd"/><path fill="#E0E6EF" fill-rule="evenodd" d="M261.233 117.161h9.377v-.137h-9.377z" clip-rule="evenodd"/><path fill="#E2E7EF" fill-rule="evenodd" d="M261.233 117.345h9.377v-.184h-9.377zm0 .136h9.377v-.136h-9.377z" clip-rule="evenodd"/><path fill="#E5E8EF" fill-rule="evenodd" d="M261.233 117.619h9.377v-.138h-9.377z" clip-rule="evenodd"/><path fill="#E7EBF0" fill-rule="evenodd" d="M261.233 117.756h9.377v-.138h-9.377z" clip-rule="evenodd"/><path fill="#EAECF1" fill-rule="evenodd" d="M261.233 117.939h9.377v-.183h-9.377z" clip-rule="evenodd"/><path fill="#ECEFF2" fill-rule="evenodd" d="M261.233 118.076h9.377v-.137h-9.377zm0 .137h9.377v-.137h-9.377z" clip-rule="evenodd"/><path fill="#F2F3F4" fill-rule="evenodd" d="M261.233 118.351h9.377v-.138h-9.377zm0 .137h9.377v-.137h-9.377z" clip-rule="evenodd"/><path fill="#F4F4F7" fill-rule="evenodd" d="M261.233 118.671h9.377v-.183h-9.377z" clip-rule="evenodd"/><path fill="#F7F8F8" fill-rule="evenodd" d="M261.233 118.808h9.377v-.137h-9.377z" clip-rule="evenodd"/><path fill="#FBFDFF" fill-rule="evenodd" d="M261.233 118.945h9.377v-.137h-9.377z" clip-rule="evenodd"/><path fill="#fff" fill-rule="evenodd" d="M261.233 119.082h9.377v-.137h-9.377z" clip-rule="evenodd"/><path fill="#DA884E" fill-rule="evenodd" d="M286.527 109.66h6.907v-.183h-6.907z" clip-rule="evenodd"/><path fill="#DB8A51" fill-rule="evenodd" d="M286.527 109.797h6.907v-.137h-6.907z" clip-rule="evenodd"/><path fill="#DA8F56" fill-rule="evenodd" d="M286.527 109.934h6.907v-.137h-6.907z" clip-rule="evenodd"/><path fill="#DB925D" fill-rule="evenodd" d="M286.527 110.072h6.907v-.138h-6.907z" clip-rule="evenodd"/><path fill="#DB9461" fill-rule="evenodd" d="M286.527 110.255h6.907v-.183h-6.907z" clip-rule="evenodd"/><path fill="#DC9865" fill-rule="evenodd" d="M286.527 110.392h6.907v-.137h-6.907z" clip-rule="evenodd"/><path fill="#DF9B68" fill-rule="evenodd" d="M286.527 110.529h6.907v-.137h-6.907z" clip-rule="evenodd"/><path fill="#E39D6D" fill-rule="evenodd" d="M286.527 110.666h6.907v-.137h-6.907z" clip-rule="evenodd"/><path fill="#E09F73" fill-rule="evenodd" d="M286.527 110.849h6.907v-.183h-6.907z" clip-rule="evenodd"/><path fill="#E2A475" fill-rule="evenodd" d="M286.527 110.987h6.907v-.138h-6.907z" clip-rule="evenodd"/><path fill="#E0A779" fill-rule="evenodd" d="M286.527 111.123h6.907v-.136h-6.907z" clip-rule="evenodd"/><path fill="#E1A97B" fill-rule="evenodd" d="M286.527 111.261h6.907v-.138h-6.907z" clip-rule="evenodd"/><path fill="#E1AB80" fill-rule="evenodd" d="M286.527 111.398h6.907v-.137h-6.907z" clip-rule="evenodd"/><path fill="#E3AF86" fill-rule="evenodd" d="M286.527 111.581h6.907v-.183h-6.907z" clip-rule="evenodd"/><path fill="#E3B188" fill-rule="evenodd" d="M286.527 111.718h6.907v-.137h-6.907z" clip-rule="evenodd"/><path fill="#E6B48D" fill-rule="evenodd" d="M286.527 111.855h6.907v-.137h-6.907z" clip-rule="evenodd"/><path fill="#E7B892" fill-rule="evenodd" d="M286.527 111.993h6.907v-.138h-6.907z" clip-rule="evenodd"/><path fill="#E9BE96" fill-rule="evenodd" d="M286.527 112.176h6.907v-.183h-6.907z" clip-rule="evenodd"/><path fill="#E7C09B" fill-rule="evenodd" d="M286.527 112.313h6.907v-.137h-6.907z" clip-rule="evenodd"/><path fill="#E8C29E" fill-rule="evenodd" d="M286.527 112.45h6.907v-.137h-6.907z" clip-rule="evenodd"/><path fill="#E8C4A2" fill-rule="evenodd" d="M286.527 112.587h6.907v-.137h-6.907z" clip-rule="evenodd"/><path fill="#EAC8A8" fill-rule="evenodd" d="M286.527 112.77h6.907v-.183h-6.907z" clip-rule="evenodd"/><path fill="#EBCCAD" fill-rule="evenodd" d="M286.527 112.907h6.907v-.137h-6.907z" clip-rule="evenodd"/><path fill="#EBCEB0" fill-rule="evenodd" d="M286.527 113.045h6.907v-.138h-6.907z" clip-rule="evenodd"/><path fill="#ECD0B4" fill-rule="evenodd" d="M286.527 113.182h6.907v-.137h-6.907z" clip-rule="evenodd"/><path fill="#EFD3B7" fill-rule="evenodd" d="M286.527 113.319h6.907v-.137h-6.907z" clip-rule="evenodd"/><path fill="#F3D7BD" fill-rule="evenodd" d="M286.527 113.502h6.907v-.183h-6.907z" clip-rule="evenodd"/><path fill="#F4D9C1" fill-rule="evenodd" d="M286.527 113.639h6.907v-.137h-6.907z" clip-rule="evenodd"/><path fill="#F2DCC6" fill-rule="evenodd" d="M286.527 113.777h6.907v-.138h-6.907z" clip-rule="evenodd"/><path fill="#F0DFCB" fill-rule="evenodd" d="M286.527 113.914h6.907v-.137h-6.907z" clip-rule="evenodd"/><path fill="#F1E1CE" fill-rule="evenodd" d="M286.527 114.097h6.907v-.183h-6.907z" clip-rule="evenodd"/><path fill="#F2E5D6" fill-rule="evenodd" d="M286.527 114.234h6.907v-.137h-6.907z" clip-rule="evenodd"/><path fill="#F3E7DA" fill-rule="evenodd" d="M286.527 114.371h6.907v-.137h-6.907z" clip-rule="evenodd"/><path fill="#F3E9DF" fill-rule="evenodd" d="M286.527 114.508h6.907v-.137h-6.907z" clip-rule="evenodd"/><path fill="#F4EEE3" fill-rule="evenodd" d="M286.527 114.691h6.907v-.183h-6.907z" clip-rule="evenodd"/><path fill="#F4EEE7" fill-rule="evenodd" d="M286.527 114.828h6.907v-.182h-6.907z" clip-rule="evenodd"/><path fill="#F5F0EA" fill-rule="evenodd" d="M286.527 114.966h6.907v-.138h-6.907z" clip-rule="evenodd"/><path fill="#F9F6F0" fill-rule="evenodd" d="M286.527 115.103h6.907v-.137h-6.907z" clip-rule="evenodd"/><path fill="#F9F6F4" fill-rule="evenodd" d="M286.527 115.24h6.907v-.137h-6.907z" clip-rule="evenodd"/><path fill="#fff" fill-rule="evenodd" d="M286.527 115.423h6.907v-.183h-6.907z" clip-rule="evenodd"/><path fill="#0C0E0F" fill-rule="evenodd" d="M286.527 118.899c-.915 2.059-2.15 2.973-4.117 2.973-1.601 0-3.155-.914-3.841-2.287-.458-.96-.641-1.783-.641-3.521h11.023c0-2.013-.229-3.248-.823-4.528-1.052-2.333-3.156-3.66-5.763-3.66-4.163 0-7.044 3.248-7.044 8.051 0 4.711 2.79 7.867 6.952 7.867 3.064 0 5.443-1.647 6.404-4.437zm-8.461-4.619c.136-1.464.411-2.196 1.051-3.019.869-1.007 1.967-1.601 3.293-1.601 2.425 0 3.888 1.738 3.98 4.62zm21.817 7.501c-.823.137-1.281.183-1.83.183-1.6 0-2.424-.778-2.424-2.379v-15.322l-2.333.091v14.865c0 3.065 1.464 4.62 4.346 4.62.686 0 1.189-.046 2.241-.183zM253 121.323a2.36 2.36 0 0 1 2.378-2.378 2.36 2.36 0 0 1 2.379 2.378 2.36 2.36 0 0 1-2.379 2.379 2.36 2.36 0 0 1-2.378-2.379m18.753 2.47v-9.376c0-2.15-.183-3.293-.503-4.025-.823-1.692-2.47-2.744-4.436-2.744-2.059 0-3.293.777-4.849 3.201v-2.79h-2.15v15.734h2.333v-8.919c0-2.973 1.784-5.214 4.254-5.214 2.012 0 3.11 1.327 3.11 3.796v10.337z" clip-rule="evenodd"/><path fill="#0C0E0F" fill-rule="evenodd" d="M282.319 107.876h17.061v1.784h-17.061zm-10.794 14.134h10.886v1.738h-10.886zm-12.213-17.015v-6.358h-1.189l-1.875 5.077-1.921-5.077h-1.144v6.358h.641v-5.58l2.104 5.58h.548l2.059-5.58v5.58zm1.555 0h.732v-4.711h-.732zm0-5.58h.778v-.778h-.778zm4.986 3.933c-.137.778-.549 1.189-1.144 1.189-.777 0-1.235-.732-1.235-1.921 0-1.143.503-1.875 1.281-1.875.595 0 1.006.412 1.098 1.189l.686-.137c-.183-1.052-.823-1.647-1.784-1.647-1.235 0-2.058 1.006-2.058 2.47 0 1.51.778 2.47 2.012 2.47.504 0 .915-.137 1.281-.503.275-.275.412-.549.549-1.144zm2.424 1.647v-2.516c.046-.96.732-1.692 1.601-1.601v-.732h-.274c-.321 0-.686.183-.915.412-.137.229-.229.366-.458.823v-1.097h-.64v4.711zm4.071-4.849q-1.029 0-1.647.823c-.32.412-.503.961-.503 1.647s.137 1.235.458 1.692c.366.549.869.778 1.601.778 1.28 0 2.149-1.006 2.149-2.424 0-1.464-.823-2.516-2.058-2.516m-.046.595c.366 0 .732.228.961.503.229.32.366.778.366 1.372 0 1.189-.503 1.921-1.327 1.921-.823 0-1.326-.732-1.326-1.921 0-.549.137-1.052.32-1.326.229-.321.64-.549 1.006-.549m2.607 3.019c.092.411.229.64.504.823.365.366.914.503 1.6.503 1.144 0 1.921-.549 1.921-1.418 0-.777-.457-1.235-1.418-1.372l-.914-.183c-.549-.092-.778-.32-.778-.64 0-.458.412-.732 1.052-.732.549 0 .961.228 1.189.778l.687-.183c-.275-.778-.915-1.19-1.876-1.19-1.098 0-1.784.549-1.784 1.373 0 .686.458 1.189 1.281 1.326l1.006.183c.503.092.778.366.778.732 0 .457-.458.777-1.098.777-.457 0-.869-.137-1.143-.365-.138-.138-.229-.275-.321-.549zm6.907-3.614c-.686 0-1.235.275-1.692.823-.32.412-.503.961-.503 1.647s.183 1.235.457 1.692c.412.549.915.778 1.601.778 1.281 0 2.15-1.006 2.15-2.424 0-1.464-.778-2.516-2.013-2.516m-.092.595c.412 0 .778.228 1.007.503.229.32.32.778.32 1.372 0 1.189-.503 1.921-1.327 1.921-.823 0-1.28-.732-1.28-1.921 0-.549.091-1.052.32-1.326.183-.321.595-.549.96-.549m5.215-.457h-1.144c0-.503 0-.55.092-.732.092-.32.412-.458.869-.458.183 0 .275 0 .458.046v-.594c-.32-.046-.503-.046-.686-.046-.595 0-1.098.274-1.281.732-.092.274-.092.457-.137 1.052h-.824v.594h.824v4.117h.686v-4.117h1.143zm3.339 4.208c-.229.045-.412.045-.549.045-.503 0-.778-.228-.778-.732v-2.927h1.053v-.594h-1.053v-1.235l-.686.045-.045 1.189h-.824v.595h.824v2.836c0 .915.457 1.418 1.371 1.418.183 0 .367-.046.687-.046zm9.926 4.345v-.869h.274v-.092h-.686v.092h.274v.869zm1.326 0v-.961h-.229l-.274.778-.275-.778h-.183v.961h.138v-.824l.32.824h.045l.321-.824v.824z" clip-rule="evenodd"/></g><defs><linearGradient id="c" x1="127.82" x2="120.22" y1="176.882" y2="191.622" gradientUnits="userSpaceOnUse"><stop stop-color="#0994DC"/><stop offset=".35" stop-color="#66CEF5"/><stop offset=".846" stop-color="#127BCA"/><stop offset="1" stop-color="#127BCA"/></linearGradient><linearGradient id="d" x1="128.574" x2="120.781" y1="176.798" y2="191.914" gradientUnits="userSpaceOnUse"><stop stop-color="#0E76BC"/><stop offset=".36" stop-color="#36AEE8"/><stop offset=".846" stop-color="#00ADEF"/><stop offset="1" stop-color="#00ADEF"/></linearGradient><linearGradient id="e" x1="125.505" x2="131.706" y1="190.211" y2="178.183" gradientUnits="userSpaceOnUse"><stop stop-color="#1C63B7"/><stop offset=".5" stop-color="#33BDF2"/><stop offset="1" stop-color="#33BDF2" stop-opacity=".42"/></linearGradient><linearGradient id="f" x1="131.612" x2="123.52" y1="176.425" y2="192.12" gradientUnits="userSpaceOnUse"><stop stop-color="#166AB8"/><stop offset=".4" stop-color="#36AEE8"/><stop offset=".846" stop-color="#0798DD"/><stop offset="1" stop-color="#0798DD"/></linearGradient><linearGradient id="g" x1="130.332" x2="121.727" y1="175.87" y2="192.559" gradientUnits="userSpaceOnUse"><stop stop-color="#124379"/><stop offset=".39" stop-color="#1487CB"/><stop offset=".78" stop-color="#165197"/><stop offset="1" stop-color="#165197"/></linearGradient><linearGradient id="h" x1="120.987" x2="123.347" y1="177.537" y2="178.754" gradientUnits="userSpaceOnUse"><stop stop-color="#33BDF2" stop-opacity=".698"/><stop offset="1" stop-color="#1DACD8"/></linearGradient><linearGradient id="i" x1="134.651" x2="140.692" y1="194.545" y2="182.828" gradientUnits="userSpaceOnUse"><stop stop-color="#136AB4"/><stop offset=".6" stop-color="#59CAF5" stop-opacity=".549"/><stop offset="1" stop-color="#59CAF5" stop-opacity=".235"/></linearGradient><linearGradient id="j" x1="111.17" x2="119.922" y1="176.02" y2="180.532" gradientUnits="userSpaceOnUse"><stop stop-color="#05A1E6" stop-opacity=".247"/><stop offset="1" stop-color="#05A1E6"/></linearGradient><linearGradient id="k" x1="113.251" x2="119.436" y1="183.885" y2="171.888" gradientUnits="userSpaceOnUse"><stop stop-color="#318ED5"/><stop offset="1" stop-color="#38A7E4"/></linearGradient><linearGradient id="l" x1="113.985" x2="119.997" y1="184.317" y2="172.655" gradientUnits="userSpaceOnUse"><stop stop-color="#05A1E6"/><stop offset="1" stop-color="#05A1E6" stop-opacity=".549"/></linearGradient><linearGradient id="m" x1="114.305" x2="119.385" y1="185.235" y2="175.38" gradientUnits="userSpaceOnUse"><stop stop-color="#1959A6"/><stop offset=".5" stop-color="#05A1E6"/><stop offset=".918" stop-color="#7EC5EA"/><stop offset="1" stop-color="#7EC5EA"/></linearGradient><linearGradient id="n" x1="115.007" x2="116.93" y1="184.8" y2="172.87" gradientUnits="userSpaceOnUse"><stop stop-color="#165096"/><stop offset="1" stop-color="#0D82CA"/></linearGradient><linearGradient id="o" x1="135.603" x2="138.482" y1="187.77" y2="182.186" gradientUnits="userSpaceOnUse"><stop stop-color="#05A1E6"/><stop offset=".874" stop-color="#0495D6"/><stop offset="1" stop-color="#0495D6"/></linearGradient><linearGradient id="p" x1="141.373" x2="130.211" y1="183.023" y2="191.895" gradientUnits="userSpaceOnUse"><stop stop-color="#38A7E4" stop-opacity=".329"/><stop offset=".962" stop-color="#0E88D3"/><stop offset="1" stop-color="#0E88D3"/></linearGradient><linearGradient id="q" x1="139.108" x2="132.827" y1="182.427" y2="194.609" gradientUnits="userSpaceOnUse"><stop stop-color="#168CD4"/><stop offset=".5" stop-color="#1C87CC"/><stop offset="1" stop-color="#154B8D"/></linearGradient><linearGradient id="r" x1="123.699" x2="123.093" y1="174.166" y2="175.471" gradientUnits="userSpaceOnUse"><stop stop-color="#97D6EE"/><stop offset=".703" stop-color="#55C1EA"/><stop offset="1" stop-color="#55C1EA"/></linearGradient><linearGradient id="s" x1="124.601" x2="125.537" y1="176.4" y2="175.169" gradientUnits="userSpaceOnUse"><stop stop-color="#7ACCEC"/><stop offset="1" stop-color="#3FB7ED"/></linearGradient><linearGradient id="t" x1="137.112" x2="130.969" y1="182.251" y2="194.166" gradientUnits="userSpaceOnUse"><stop stop-color="#1DA7E7"/><stop offset="1" stop-color="#37ABE7" stop-opacity="0"/></linearGradient><clipPath id="a"><path fill="#fff" d="M0 .5h425v415H0z"/></clipPath></defs></svg>