<?xml version="1.0" encoding="UTF-8"?>
<svg width="29px" height="32px" viewBox="0 0 29 32" version="1.1" xmlns="http://www.w3.org/2000/svg" xmlns:xlink="http://www.w3.org/1999/xlink">
    <g id="Page-1" stroke="none" stroke-width="1" fill="#232629">
        <g id="Brand-Logo" transform="translate(-1049.000000, -5016.000000)" fill="#252B33" fill-rule="nonzero">
            <g id="ic-technology-dynamodb" transform="translate(1049.000000, 5016.000000)">
                <path d="M24.68,24.312 L24.9414113,24.425551 L25,24.383 L25,28.6745627 L24.8919938,28.8239694 L19.4024448,32 L19.0048733,32 L19.003,26.05 L24.68,24.312 Z M4,24.589 L9.40319652,26.1739234 L9.996,26.173 L9.99507696,32 L9.59709413,32 L4,29.222 L4,24.589 Z M18,26.173 L18,32 L11,32 L11,26.173 L18,26.173 Z M28.386,21.995 L28.3860633,24.9208568 L26.0625653,28.8148481 L26.0625653,23.9469709 L26.0817481,23.9412049 L27.037,22.946 L28.386,21.995 Z M3,3 L3,7.74634281 L9.54679687,5.82650904 L18.4532031,5.82650904 L24.7217031,7.74634281 L24.8156562,7.71618156 L27.8991562,9.89546695 L28,10.0898394 L27.026125,10.1951336 L27.026125,10.9734884 L24.7217031,9.76282231 L18.4532031,8.3271901 L9.54679687,8.3271901 L3,9.76282231 L3,14.4978141 L9.54679687,14.2500378 L18.4532031,14.2500378 L24.7217031,14.4978141 L24.7665469,14.4757607 L27.7883594,14.7542388 L28,14.8006158 L27.026125,14.8144532 L27.026125,16.1989518 L28,16.2127892 L27.7933906,16.31257 L24.8644375,16.5618597 L24.7217031,16.4969968 L18.4532031,16.7499622 L9.54679687,16.7499622 L9.54679687,16.7439083 L3,16.5 L3,21.2389074 L9.54679687,22.6739991 L18.4532031,22.6722694 L24.7401875,21.2449612 L24.8156562,21.0892903 L26.8984844,19.9795941 L27.026125,20.029971 L27.026125,20.8174066 L28,20.9235656 L27.8666719,21.137505 L24.82375,23.2846833 L24.7401875,23.2484682 L18.4532031,25.1739234 L9.54679687,25.1739234 L3,23.2540896 L3,28 L-1.70530257e-13,24.2035744 L-1.70530257e-13,20.888972 L0.040796875,20.9192414 L0.973875,20.8174066 L0.973875,20.0138634 L-1.70530257e-13,19.4962574 L-1.70530257e-13,16.1963573 L0.15553125,16.2110596 L0.973875,16.1989518 L0.973875,14.8144532 L0.025375,14.8006158 L-1.70530257e-13,14.8032103 L-1.70530257e-13,11.5046074 L0.973875,10.9894879 L0.973875,10.1951336 L0.025375,10.0928664 L-1.70530257e-13,10.111028 L-1.70530257e-13,6.7958851 L3,3 Z M4,17.538 L8.546,17.707 L8.54679687,17.7499622 L9.997,17.749 L9.997,21.672 L9.65,21.673 L4,20.434 L4,17.538 Z M18,17.749 L18,21.671 L11,21.672 L11,17.749 L18,17.749 Z M24.524,17.506 L24.6887411,17.5804292 L25,17.553 L25,19.857 L24.0579363,20.3599162 L24.049,20.376 L19.003,21.521 L19.002,17.727 L24.524,17.506 Z M28.386,17.136 L28.386,19.958 L28.026,19.92 L28.026125,19.3495807 L26.8359404,18.8798419 L26.062,19.291 L26.062,17.463 L28.0620861,17.2933162 L28.386,17.136 Z M26.062,11.597 L28.026125,12.628461 L28.026,11.603 L28.3860633,11.8794566 L28.386,13.861 L28.0024112,13.7774165 L27.8801265,13.7584583 L26.062,13.591 L26.062,11.597 Z M19.001,9.477 L24.369,10.708 L25,11.039 L25,13.493 L24.5779209,13.4541403 L24.508,13.488 L19.002,13.27 L19.001,9.477 Z M9.999,9.326 L9.998,13.25 L9.54679687,13.2500378 L4,13.459 L4,10.567 L9.651,9.327 L9.999,9.326 Z M18,9.326 L18,13.25 L11,13.25 L11,9.326 L18,9.326 Z M26.0625653,3.17236434 L28.3860633,7.06668828 L28.386,9.015 L26.062,7.372 L26.0625653,3.17236434 Z M19.4024448,0 L24.8919938,3.17336855 L25,3.32355174 L25,6.622 L24.9852234,6.61148132 L24.714,6.698 L19.001,4.948 L19,0 L19.4024448,0 Z M10,0 L9.999,4.826 L9.40319652,4.82650904 L4,6.41 L4,2.774 L9.59709413,0 L10,0 Z M18,0 L18,4.826 L11,4.826 L11,0 L18,0 Z" id="Combined-Shape"></path>
            </g>
        </g>
    </g>
</svg>