<svg xmlns="http://www.w3.org/2000/svg" viewBox="0 0 565.16 400"><defs><style>.cls-1{fill:#b8c2e3;}.cls-2{fill:#b3c770;}.cls-3{fill:#7c924c;}.cls-4{fill:#536e59;}.cls-5{fill:#2c363e;}.cls-6{fill:#1f223f;}.cls-7{fill:#e2e5f4;}.cls-8{fill:#bbc3e1;}.cls-9{fill:#fcfbff;}.cls-10{fill:#b14c88;}.cls-11{fill:#89376c;}.cls-12{fill:#e4cfcd;}.cls-13{fill:#1f213c;}.cls-14{fill:#0b001c;}.cls-15{fill:#e1bf2f;}.cls-16{fill:#c68820;}.cls-17{fill:#f8f8f8;}.cls-18{fill:#e1be2f;}.cls-19{fill:#252046;}.cls-20{opacity:0.55;}.cls-21{fill:#eee5f5;}</style></defs><g id="OBJECTS"><path class="cls-1" d="M384.22,336.13c-35.39,0-65.1,3.54-73.43,8.32-10.6-.57-22.06-.88-34-.88-14.13,0-27.55.44-39.71,1.22-11.54-4-38.41-6.73-69.73-6.73-41.84,0-75.76,4.95-75.76,11.06s33.92,11.05,75.76,11.05c4,0,8-.05,11.85-.13,6.9,7,47.95,12.31,97.59,12.31,54,0,97.88-6.34,98.6-14.19q4.35.07,8.84.07c41.84,0,75.77-5,75.77-11.05S426.06,336.13,384.22,336.13Z"/><path class="cls-2" d="M209.06,134.33c16.27,34.15,23.26,86.44,23.26,86.44s-36.22-38.37-52.49-72.52c-8.44-17.71-6.24-29.94,1.84-33.78S200.6,116.56,209.06,134.33Z"/><path class="cls-3" d="M232.32,221.94a1.18,1.18,0,0,1-1.06-.67L193.73,142.5a1.17,1.17,0,0,1,2.11-1l37.53,78.78a1.17,1.17,0,0,1-.55,1.56A1.25,1.25,0,0,1,232.32,221.94Z"/><path class="cls-4" d="M201.14,189.5c17.49,22.76,31,60.46,31,60.46s-33-22.73-50.43-45.5c-9.07-11.81-9.37-21.23-4-25.36S192.05,177.65,201.14,189.5Z"/><path class="cls-5" d="M232.09,251.13a1.16,1.16,0,0,1-.93-.45l-40.33-52.52a1.17,1.17,0,1,1,1.86-1.42L233,249.25a1.17,1.17,0,0,1-.93,1.88Z"/><rect class="cls-6" x="216.85" y="48.45" width="142.79" height="301.13" rx="15.93"/><rect class="cls-7" x="223.05" y="82.01" width="130.4" height="229.02"/><path class="cls-7" d="M306.67,67.34H281.94a1.17,1.17,0,0,1,0-2.34h24.73a1.17,1.17,0,1,1,0,2.34Z"/><circle class="cls-7" cx="271.46" cy="66.17" r="1.64"/><circle class="cls-7" cx="288.25" cy="329.1" r="11.46" transform="translate(-148.28 300.21) rotate(-45)"/><path class="cls-8" d="M288.25,341.5a12.4,12.4,0,1,1,12.39-12.4A12.42,12.42,0,0,1,288.25,341.5Zm0-22.93a10.53,10.53,0,1,0,10.52,10.53A10.54,10.54,0,0,0,288.25,318.57Z"/><rect class="cls-1" x="236.8" y="143.51" width="102.89" height="27.99" rx="2.33"/><rect class="cls-1" x="236.8" y="180.86" width="102.89" height="27.99" rx="2.33"/><rect class="cls-1" x="236.8" y="218.21" width="102.89" height="27.99" rx="2.33"/><rect class="cls-1" x="236.8" y="255.57" width="102.89" height="27.99" rx="2.33"/><polygon class="cls-9" points="276.13 102.81 300.39 102.81 297.71 82.01 278.83 82.01 276.13 102.81"/><polygon class="cls-10" points="252.06 102.81 276.13 102.81 278.83 82.01 260.09 82.01 252.06 102.81"/><polygon class="cls-9" points="227.89 102.81 252.06 102.81 260.09 82.01 241.29 82.01 227.89 102.81"/><polygon class="cls-10" points="241.29 82.01 227.89 102.81 203.72 102.81 222.78 82.01 241.29 82.01"/><polygon class="cls-10" points="324.48 102.81 300.4 102.81 297.7 82.01 316.44 82.01 324.48 102.81"/><polygon class="cls-9" points="348.65 102.81 324.48 102.81 316.44 82.01 335.25 82.01 348.65 102.81"/><polygon class="cls-10" points="335.25 82.01 348.65 102.81 372.81 102.81 353.75 82.01 335.25 82.01"/><path class="cls-11" d="M203.72,102.81v11.9a12.09,12.09,0,1,0,24.17,0v-11.9Z"/><path class="cls-11" d="M252.06,102.81v11.9a12.08,12.08,0,1,0,24.16,0v-11.9Z"/><path class="cls-11" d="M300.31,102.81v11.9a12.09,12.09,0,1,0,24.17,0v-11.9Z"/><path class="cls-11" d="M348.65,102.81v11.9a12.08,12.08,0,1,0,24.16,0v-11.9Z"/><path class="cls-12" d="M227.89,102.81v11.9a12.09,12.09,0,1,0,24.17,0v-11.9Z"/><path class="cls-12" d="M276.18,102.81v11.9a12.09,12.09,0,1,0,24.17,0v-11.9Z"/><path class="cls-12" d="M324.48,102.81v11.9a12.09,12.09,0,1,0,24.17,0v-11.9Z"/><path class="cls-13" d="M415.11,279.26a1.17,1.17,0,0,1-1.17-1.17c0-12.31-10-39.39-20.67-39.39s-20.67,27.08-20.67,39.39a1.17,1.17,0,0,1-2.34,0c0-6.53,2.67-16.93,6.5-25.29,2.81-6.14,8.7-16.44,16.51-16.44s13.7,10.3,16.51,16.44c3.83,8.36,6.5,18.76,6.5,25.29A1.17,1.17,0,0,1,415.11,279.26Z"/><path class="cls-10" d="M429.86,349H346a5.42,5.42,0,0,1-5.42-5.42V262.92h89.24Z"/><path class="cls-11" d="M366.34,277.15a2.94,2.94,0,1,1-2.94-2.94A2.94,2.94,0,0,1,366.34,277.15Z"/><path class="cls-11" d="M410,277.15a2.94,2.94,0,1,1-2.94-2.94A2.94,2.94,0,0,1,410,277.15Z"/><path class="cls-14" d="M407.08,278.32a1.17,1.17,0,0,1-1.17-1.17c0-12.3-10-39.39-20.67-39.39s-20.67,27.09-20.67,39.39a1.17,1.17,0,0,1-2.34,0c0-6.52,2.67-16.93,6.5-25.29,2.81-6.14,8.7-16.44,16.51-16.44s13.7,10.3,16.51,16.44c3.83,8.36,6.5,18.77,6.5,25.29A1.17,1.17,0,0,1,407.08,278.32Z"/><polygon class="cls-11" points="434.1 343.8 429.86 348.97 429.86 262.92 433.93 266.93 434.1 343.8"/><path class="cls-13" d="M191.47,256.11a1.17,1.17,0,0,1-1.17-1.17c0-12.31-10-39.39-20.67-39.39S149,242.63,149,254.94a1.17,1.17,0,0,1-2.34,0c0-6.53,2.68-16.93,6.5-25.29,2.82-6.14,8.7-16.44,16.51-16.44s13.7,10.3,16.51,16.44c3.83,8.36,6.5,18.76,6.5,25.29A1.17,1.17,0,0,1,191.47,256.11Z"/><path class="cls-15" d="M206.22,349.22H122.4a5.41,5.41,0,0,1-5.41-5.41v-104h89.23Z"/><path class="cls-16" d="M142.7,254a2.94,2.94,0,1,1-2.94-2.93A2.93,2.93,0,0,1,142.7,254Z"/><path class="cls-16" d="M186.38,254a2.94,2.94,0,1,1-2.94-2.93A2.94,2.94,0,0,1,186.38,254Z"/><path class="cls-14" d="M183.44,255.17a1.17,1.17,0,0,1-1.17-1.17c0-12.3-10-39.39-20.67-39.39S140.93,241.7,140.93,254a1.17,1.17,0,1,1-2.34,0c0-6.52,2.68-16.92,6.5-25.29,2.82-6.14,8.7-16.44,16.51-16.44s13.7,10.3,16.51,16.44c3.83,8.37,6.5,18.77,6.5,25.29A1.17,1.17,0,0,1,183.44,255.17Z"/><polygon class="cls-16" points="210.46 344.05 206.22 349.22 206.22 239.77 210.29 243.78 210.46 344.05"/><path class="cls-13" d="M215.74,309.18a1.17,1.17,0,0,1-1.17-1.17c0-8-6.38-25.51-13.19-25.51-3,0-6.28,3.53-9.09,9.68-2.42,5.28-4.1,11.79-4.1,15.83a1.17,1.17,0,0,1-2.34,0c0-8.31,6.55-27.85,15.53-27.85S216.91,299.7,216.91,308A1.17,1.17,0,0,1,215.74,309.18Z"/><path class="cls-2" d="M225.44,354.62H171.07a4.31,4.31,0,0,1-4.31-4.31V298h58.68Z"/><path class="cls-3" d="M183.67,307.39a1.94,1.94,0,1,1-1.94-1.93A1.94,1.94,0,0,1,183.67,307.39Z"/><path class="cls-3" d="M212.39,307.39a1.93,1.93,0,1,1-1.93-1.93A1.93,1.93,0,0,1,212.39,307.39Z"/><path class="cls-14" d="M210.46,308.56a1.17,1.17,0,0,1-1.17-1.17c0-8-6.38-25.5-13.19-25.5-3,0-6.28,3.53-9.09,9.68-2.42,5.27-4.11,11.78-4.11,15.82a1.17,1.17,0,0,1-2.34,0c0-8.3,6.56-27.84,15.54-27.84s15.53,19.54,15.53,27.84A1.17,1.17,0,0,1,210.46,308.56Z"/><polygon class="cls-3" points="228.23 351.22 225.44 354.63 225.44 298.03 228.12 300.67 228.23 351.22"/><path class="cls-4" d="M123.42,289.73c6.36,21,7.45,49.36,7.61,61.54a1.8,1.8,0,0,1-3.3,1c-6.63-10.22-21.46-34.4-27.83-55.41-4.32-14.25-1.27-23.17,5.22-25.14S119.08,275.44,123.42,289.73Z"/><path class="cls-5" d="M128,348.37a1.16,1.16,0,0,1-1.11-.83l-16.17-53.33a1.17,1.17,0,1,1,2.24-.68l16.17,53.33a1.18,1.18,0,0,1-.79,1.46A1.27,1.27,0,0,1,128,348.37Z"/><path class="cls-4" d="M139.27,308.59c-4.85,14.68-6.11,34.62-6.44,43.19a1.26,1.26,0,0,0,2.3.76C140,345.46,150.85,328.7,155.7,314c3.29-10,1.3-16.29-3.23-17.79S142.57,298.6,139.27,308.59Z"/><path class="cls-5" d="M135,350.13a1.19,1.19,0,0,1-.37-.06,1.16,1.16,0,0,1-.74-1.47l12.31-37.27a1.17,1.17,0,1,1,2.22.74l-12.31,37.26A1.17,1.17,0,0,1,135,350.13Z"/><path class="cls-4" d="M330.55,289.73c6.36,21,7.45,49.36,7.61,61.54a1.8,1.8,0,0,1-3.3,1c-6.62-10.22-21.46-34.4-27.83-55.41-4.32-14.25-1.27-23.17,5.22-25.14S326.21,275.44,330.55,289.73Z"/><path class="cls-5" d="M335.12,348.37a1.16,1.16,0,0,1-1.11-.83l-16.17-53.33a1.17,1.17,0,1,1,2.24-.68l16.17,53.33a1.18,1.18,0,0,1-.79,1.46A1.27,1.27,0,0,1,335.12,348.37Z"/><path class="cls-4" d="M368.37,312.31c-9.15,12.45-16.52,31-19.48,39.07a1.26,1.26,0,0,0,1.95,1.44c6.8-5.23,22.32-17.81,31.47-30.27,6.21-8.44,6.28-15.08,2.43-17.91S374.6,303.83,368.37,312.31Z"/><path class="cls-5" d="M351.85,350.56a1.16,1.16,0,0,1-.94-1.86l23.24-31.62a1.17,1.17,0,0,1,1.89,1.38L352.8,350.09A1.18,1.18,0,0,1,351.85,350.56Z"/><path class="cls-2" d="M371.85,273.92c-4.44,28.86-19.54,63.56-26.19,77.87a2.23,2.23,0,0,1-4.23-.65c-2.05-15.65-6-53.28-1.58-82.14,3-19.4,11.68-28.27,20.52-26.91S374.85,254.47,371.85,273.92Z"/><path class="cls-3" d="M344.21,348.32H344a1.17,1.17,0,0,1-1-1.33l11.53-74.92a1.17,1.17,0,1,1,2.31.35l-11.53,74.92A1.16,1.16,0,0,1,344.21,348.32Z"/><ellipse class="cls-10" cx="125.94" cy="179.23" rx="16.76" ry="18.64"/><path class="cls-17" d="M128.51,177.57c-.82,0-1.08.28-1.08.62,0,1.46,4.48-.16,4.48,3.43,0,2-2,4.22-6.31,4.22-4.71,0-6-1.66-6-3.14a2.4,2.4,0,0,1,1.28-2.21,5.57,5.57,0,0,0,3,1c.66,0,.92-.24.92-.58,0-1.19-4,0-4-3.57,0-2.63,2-4.69,6.28-4.69,3.76,0,5.63,1,5.63,3.33a2.49,2.49,0,0,1-1.33,2.32A6.58,6.58,0,0,0,128.51,177.57Zm-5.31,9.32a4.77,4.77,0,0,1,2.26-.52c.9,0,1.67.24,1.67,1s-.36,1.1-.36,2.16a3,3,0,0,1-1.87.5c-1.52,0-1.86-.48-1.86-1.22C123,188.23,123.2,187.59,123.2,186.89Zm5.87-15.21a7.72,7.72,0,0,1-2.42.44c-1,0-1.73-.28-1.73-1.08,0-.38.1-.78.1-1.34a4.87,4.87,0,0,0-.08-.85,3.87,3.87,0,0,1,2.63-.76c1.38,0,2.16.54,2.16,1.24a2.13,2.13,0,0,1-.12.61Z"/><ellipse class="cls-15" cx="186.23" cy="67.81" rx="16.76" ry="18.64"/><path class="cls-17" d="M196.8,65.33a.88.88,0,0,1-.61-.23,15.42,15.42,0,0,0-19.92-.22.94.94,0,1,1-1.2-1.44,17.27,17.27,0,0,1,22.35.25.93.93,0,0,1,.09,1.32A1,1,0,0,1,196.8,65.33Z"/><path class="cls-17" d="M194.16,67.63a.94.94,0,0,1-.53-.16,13.49,13.49,0,0,0-15.07,0,.94.94,0,1,1-1.05-1.55,15.38,15.38,0,0,1,17.17,0,.93.93,0,0,1,.25,1.3A.92.92,0,0,1,194.16,67.63Z"/><path class="cls-17" d="M191.85,70.29a1,1,0,0,1-.43-.11A11.64,11.64,0,0,0,181.09,70a.93.93,0,1,1-.81-1.68A13.26,13.26,0,0,1,186.1,67a13.55,13.55,0,0,1,6.18,1.5.93.93,0,0,1,.4,1.26A.94.94,0,0,1,191.85,70.29Z"/><path class="cls-17" d="M186.27,76.58A2.59,2.59,0,1,1,188.86,74,2.6,2.6,0,0,1,186.27,76.58Zm0-3.31A.72.72,0,1,0,187,74,.72.72,0,0,0,186.27,73.27Z"/><ellipse class="cls-10" cx="410.02" cy="101.77" rx="16.76" ry="18.64"/><path class="cls-17" d="M421.15,95.42v-.07a.17.17,0,0,0,0-.07s0,0,0-.07,0,0,0-.06l0-.07,0,0,0-.06a.1.1,0,0,0,0,0l-.05,0-.05,0-.06,0-.05,0-.07,0H403.43l-.57-2,0,0,0-.07,0-.06a.1.1,0,0,0,0,0,.21.21,0,0,0,0-.06l-.05,0s0,0,0,0l-.05,0-.06,0-.06,0-.07,0-.06,0h-3.94a.7.7,0,1,0,0,1.4h3.29l3.07,10.76a2.06,2.06,0,0,0,.87,3.87l.15,0H418a.71.71,0,0,0,0-1.41H405.74a.68.68,0,0,1,0-1.36h11.94a.58.58,0,0,0,.19,0h0a.56.56,0,0,0,.17-.09l0,0a.53.53,0,0,0,.13-.13l0,0a.61.61,0,0,0,.09-.18s0,0,0,0l2.78-9.34v0a2538684499580.65,2538684499580.65,0,0,1,0-.14Zm-5.58.67h3.94L419,97.82h-3.63Zm-.36,3.13h3.37l-.52,1.73H415Zm-10.88-1.4-.49-1.73h3.77l.2,1.73Zm.89,3.13-.49-1.73H408l.2,1.73Zm.88,3.08-.48-1.67h2.71l.19,1.67Zm7.14,0h-3.31l-.19-1.67h3.7Zm.36-3.08h-4l-.2-1.73h4.42Zm.36-3.13h-4.74l-.2-1.73h5.13Zm.89,4.54h2.8l-.5,1.67h-2.49Z"/><path class="cls-17" d="M407.93,112.54a2.07,2.07,0,1,1,2.07-2.06A2.07,2.07,0,0,1,407.93,112.54Zm0-2.72a.66.66,0,1,0,0,1.31.66.66,0,1,0,0-1.31Z"/><path class="cls-17" d="M414.81,112.54a2.07,2.07,0,1,1,2.06-2.06A2.07,2.07,0,0,1,414.81,112.54Zm0-2.72a.66.66,0,1,0,.66.66A.65.65,0,0,0,414.81,109.82Z"/><rect class="cls-18" x="323.23" y="131.96" width="129.63" height="82.53" rx="4.25"/><rect class="cls-19" x="323.23" y="140.78" width="129.63" height="19.49"/><rect class="cls-7" x="328.88" y="163.48" width="118.68" height="13.52"/><rect class="cls-7" x="333.73" y="182.47" width="108.97" height="2.08"/><rect class="cls-7" x="333.73" y="186.03" width="108.97" height="2.08"/><rect class="cls-7" x="333.73" y="189.59" width="71.02" height="2.08"/><rect class="cls-7" x="333.73" y="196.71" width="108.97" height="2.08"/><rect class="cls-7" x="333.73" y="200.27" width="108.97" height="2.08"/><rect class="cls-7" x="333.73" y="203.83" width="32.63" height="2.08"/><rect class="cls-6" x="323.23" y="140.78" width="129.63" height="19.49"/><g class="cls-20"><polygon class="cls-21" points="434.54 131.96 323.23 206.46 323.23 202.35 428.41 131.96 434.54 131.96"/></g><g class="cls-20"><polygon class="cls-21" points="452.84 155.72 365.02 214.49 358.89 214.49 452.87 151.6 452.84 155.72"/></g><g class="cls-20"><polygon class="cls-21" points="415.45 131.96 323.23 193.68 323.23 185.39 403.06 131.96 415.45 131.96"/></g></g></svg>