<svg width="32" height="32" viewBox="0 0 32 32" fill="none" xmlns="http://www.w3.org/2000/svg">
<path d="M16.8208 4.18065C16.6371 3.86361 16.3141 3.70361 15.9941 3.70361C15.6741 3.70361 15.3512 3.86361 15.1675 4.18065C13.3897 7.26509 11.6208 10.3318 9.85486 13.3925C8.17783 16.3021 6.50375 19.2029 4.82968 22.1066C4.45042 22.7644 4.40005 23.5614 4.69042 24.2636C5.30968 25.7658 6.21042 27.1199 7.41931 28.2962C9.0282 26.4236 10.9926 25.3036 13.3897 24.8532V20.5155C13.3897 20.2695 13.1912 20.071 12.9452 20.071H12.003C11.7749 20.071 11.6297 19.8251 11.7452 19.6266C12.1393 18.9421 12.5334 18.2607 12.9304 17.5762L12.9363 17.5644C13.8489 15.9851 14.7704 14.391 15.7393 12.714C15.8519 12.5155 16.1363 12.5155 16.2519 12.714C17.2208 14.3881 18.1423 15.9851 19.0549 17.5644L19.0608 17.5762C19.4578 18.2607 19.8519 18.9421 20.246 19.6266C20.3586 19.8251 20.2163 20.071 19.9882 20.071H19.046C18.8 20.071 18.6015 20.2695 18.6015 20.5155V24.8532C20.9956 25.3036 22.96 26.4236 24.5689 28.2962C25.7778 27.1199 26.6786 25.7658 27.2978 24.2636C27.5882 23.5614 27.5378 22.7644 27.1586 22.1066L27.1497 22.0888C23.7186 16.1392 20.2875 10.1895 16.8208 4.18065Z" fill="#0E53BE"/>
<path d="M15.9941 21.4668C16.3881 21.4668 16.7052 21.1557 16.7052 20.7705C16.7052 20.3853 16.3852 20.0742 15.9941 20.0742C15.603 20.0742 15.283 20.3853 15.283 20.7705C15.283 21.1557 15.6 21.4668 15.9941 21.4668Z" fill="#0E53BE"/>
<path d="M15.766 24.5721C16.083 24.5662 16.3971 24.5721 16.7082 24.5928V21.9736C16.7082 21.8313 16.5837 21.7188 16.4326 21.7188H15.5556C15.4045 21.7188 15.28 21.8313 15.28 21.9736V24.5899C15.44 24.581 15.603 24.575 15.766 24.5721Z" fill="#0E53BE"/>
<path d="M17.6534 21.4697C18.0416 21.4697 18.3586 21.1586 18.3586 20.7734C18.3586 20.3883 18.0445 20.0771 17.6534 20.0771C17.2653 20.0771 16.9482 20.3883 16.9482 20.7734C16.9482 21.1586 17.2653 21.4697 17.6534 21.4697Z" fill="#0E53BE"/>
<path d="M18.3556 24.7615C17.8964 24.6727 17.4312 24.6104 16.9482 24.5808V21.9853C16.9482 21.846 17.0697 21.7334 17.2208 21.7334H18.089C18.2371 21.7334 18.3616 21.846 18.3616 21.9853L18.3556 24.7615Z" fill="#0E53BE"/>
<path d="M14.3348 21.4668C14.723 21.4668 15.04 21.1557 15.04 20.7705C15.04 20.3853 14.7259 20.0742 14.3348 20.0742C13.9467 20.0742 13.6296 20.3853 13.6296 20.7705C13.6326 21.1557 13.9467 21.4668 14.3348 21.4668Z" fill="#0E53BE"/>
<path d="M15.04 24.5809C14.5629 24.6106 14.0978 24.6728 13.6385 24.7617L13.6326 21.9765C13.6326 21.8372 13.754 21.7217 13.9052 21.7217H14.7674C14.9185 21.7217 15.04 21.8372 15.04 21.9765V24.5809Z" fill="#0E53BE"/>
</svg>
