<svg width="3000" height="2000" viewBox="0 0 3000 2000" fill="none" xmlns="http://www.w3.org/2000/svg">
<path d="M2498.24 260.816H2271.24V688.78H2498.24V260.816Z" fill="#E6E6E6"/>
<path d="M2487.11 260.816H2220.45V688.78H2487.11V260.816Z" fill="#F0F0F0"/>
<path d="M2446.45 298.828H2260.98V650.764H2446.45V298.828Z" fill="white"/>
<path d="M2392.08 403.792H2319.97V540.58H2392.08V403.792Z" fill="#EBEBEB"/>
<path d="M722.048 260.816H495.04V688.78H722.048V260.816Z" fill="#E6E6E6"/>
<path d="M710.912 260.816H444.252V688.78H710.912V260.816Z" fill="#F0F0F0"/>
<path d="M670.252 298.828H484.78V650.764H670.252V298.828Z" fill="white"/>
<path d="M615.884 403.792H543.776V540.58H615.884V403.792Z" fill="#EBEBEB"/>
<path d="M2694.94 1289.35H1971.95C1959.02 1289.35 1948.5 1278.83 1948.5 1265.9V212.808C1948.5 199.88 1959.02 189.36 1971.95 189.36H2694.94C2707.86 189.36 2718.38 199.876 2718.38 212.808V1265.9C2718.38 1278.83 2707.86 1289.35 2694.94 1289.35ZM1971.95 190.36C1959.57 190.36 1949.5 200.428 1949.5 212.808V1265.9C1949.5 1278.28 1959.58 1288.35 1971.95 1288.35H2694.94C2707.32 1288.35 2717.38 1278.28 2717.38 1265.9V212.808C2717.38 200.432 2707.31 190.36 2694.94 190.36H1971.95Z" fill="#E0E0E0"/>
<path d="M1861.22 1289.35H1138.24C1125.31 1289.35 1114.79 1278.83 1114.79 1265.9V212.808C1114.79 199.88 1125.31 189.36 1138.24 189.36H1861.23C1874.16 189.36 1884.68 199.876 1884.68 212.808V1265.9C1884.67 1278.83 1874.15 1289.35 1861.22 1289.35ZM1138.24 190.36C1125.86 190.36 1115.79 200.428 1115.79 212.808V1265.9C1115.79 1278.28 1125.86 1288.35 1138.24 1288.35H1861.23C1873.61 1288.35 1883.68 1278.28 1883.68 1265.9V212.808C1883.68 200.432 1873.6 190.36 1861.23 190.36H1138.24Z" fill="#E0E0E0"/>
<path d="M1028.05 1289.35H305.064C292.136 1289.35 281.616 1278.83 281.616 1265.9V212.808C281.616 199.88 292.132 189.36 305.064 189.36H1028.05C1040.98 189.36 1051.5 199.876 1051.5 212.808V1265.9C1051.5 1278.83 1040.98 1289.35 1028.05 1289.35ZM305.064 190.36C292.688 190.36 282.616 200.428 282.616 212.808V1265.9C282.616 1278.28 292.688 1288.35 305.064 1288.35H1028.05C1040.43 1288.35 1050.5 1278.28 1050.5 1265.9V212.808C1050.5 200.432 1040.42 190.36 1028.05 190.36H305.064Z" fill="#E0E0E0"/>
<path d="M3000 1533.63H0V1534.11H3000V1533.63Z" fill="#E0E0E0"/>
<path d="M2837.42 1651.13H2614.5V1652.82H2837.42V1651.13Z" fill="#EBEBEB"/>
<path d="M2038.68 1669.4H1980.18V1671.08H2038.68V1669.4Z" fill="#EBEBEB"/>
<path d="M453.276 1599.94H162.58V1601.63H453.276V1599.94Z" fill="#EBEBEB"/>
<path d="M555.82 1599.94H513.196V1601.63H555.82V1599.94Z" fill="#EBEBEB"/>
<path d="M1324.8 1628.36H694.344V1630.04H1324.8V1628.36Z" fill="#EBEBEB"/>
<path d="M953.92 444.94C943.892 460.208 937.148 476.98 933.556 494.284L906.004 496.88L906 550.24L933.556 552.836C937.144 570.132 943.892 586.904 953.92 602.18L936.32 623.436L974.052 661.168L995.308 643.572C1010.58 653.6 1027.35 660.344 1044.65 663.932L1047.24 691.488L1100.6 691.484L1103.2 663.932C1120.5 660.34 1137.27 653.596 1152.54 643.568L1173.8 661.164L1211.53 623.432L1193.93 602.176C1203.96 586.904 1210.7 570.132 1214.29 552.836L1241.84 550.24L1241.85 496.88L1214.3 494.284C1210.7 476.988 1203.96 460.216 1193.93 444.948L1211.53 423.692L1173.8 385.96L1152.54 403.556C1137.27 393.528 1120.5 386.78 1103.2 383.192L1100.6 355.636L1047.24 355.64L1044.65 383.196C1027.36 386.788 1010.58 393.528 995.312 403.556L974.052 385.956L936.32 423.688L953.92 444.94ZM1125.01 472.48C1153.22 500.688 1153.22 546.428 1125.01 574.64C1096.8 602.852 1051.06 602.848 1022.85 574.64C994.636 546.428 994.64 500.692 1022.85 472.48C1051.06 444.272 1096.79 444.272 1125.01 472.48Z" fill="#EBEBEB"/>
<path d="M1058.04 1088.61C1053.03 1096.24 1049.66 1104.62 1047.86 1113.27L1034.09 1114.57V1141.24L1047.86 1142.53C1049.66 1151.18 1053.03 1159.56 1058.04 1167.19L1049.24 1177.82L1068.1 1196.68L1078.73 1187.88C1086.36 1192.89 1094.74 1196.26 1103.39 1198.06L1104.68 1211.83H1131.35L1132.65 1198.06C1141.29 1196.26 1149.68 1192.89 1157.31 1187.88L1167.93 1196.68L1186.79 1177.82L1178 1167.2C1183.01 1159.56 1186.38 1151.18 1188.17 1142.54L1201.94 1141.24V1114.57L1188.17 1113.28C1186.37 1104.63 1183 1096.25 1177.99 1088.62L1186.79 1077.99L1167.93 1059.14L1157.3 1067.93C1149.67 1062.92 1141.29 1059.55 1132.64 1057.76L1131.35 1043.98H1104.68L1103.38 1057.76C1094.74 1059.55 1086.36 1062.92 1078.72 1067.93L1068.1 1059.14L1049.24 1078L1058.04 1088.61ZM1143.55 1102.38C1157.64 1116.48 1157.65 1139.34 1143.55 1153.43C1129.45 1167.53 1106.59 1167.53 1092.49 1153.43C1078.39 1139.33 1078.39 1116.48 1092.49 1102.38C1106.59 1088.28 1129.45 1088.28 1143.55 1102.38Z" fill="#EBEBEB"/>
<path d="M297.836 810.248C289.92 822.3 284.596 835.54 281.76 849.196L260.008 851.244V893.368L281.76 895.416C284.592 909.072 289.92 922.308 297.832 934.368L283.94 951.148L313.728 980.932L330.508 967.04C342.564 974.956 355.804 980.28 369.456 983.112L371.504 1004.86L413.628 1004.86L415.676 983.112C429.332 980.276 442.572 974.952 454.628 967.036L471.408 980.928L501.196 951.144L487.304 934.364C495.216 922.308 500.54 909.068 503.376 895.416L525.124 893.368L525.128 851.244L503.376 849.192C500.54 835.54 495.216 822.3 487.3 810.244L501.192 793.464L471.408 763.68L454.628 777.572C442.572 769.656 429.332 764.332 415.68 761.496L413.632 739.744H371.508L369.46 761.496C355.804 764.332 342.568 769.652 330.512 777.568L313.732 763.676L283.944 793.464L297.836 810.248ZM432.892 831.984C455.156 854.252 455.16 890.36 432.892 912.628C410.62 934.9 374.516 934.896 352.248 912.628C329.98 890.36 329.98 854.256 352.248 831.984C374.516 809.72 410.62 809.716 432.892 831.984Z" fill="#EBEBEB"/>
<path d="M2587.56 724.176C2583.85 729.816 2581.36 736.016 2580.03 742.404L2569.85 743.364V763.08L2580.03 764.04C2581.36 770.432 2583.85 776.628 2587.56 782.272L2581.05 790.124L2594.99 804.064L2602.84 797.564C2608.49 801.268 2614.68 803.76 2621.07 805.084L2622.03 815.264H2641.75L2642.71 805.084C2649.1 803.756 2655.3 801.264 2660.94 797.56L2668.79 804.06L2682.73 790.12L2676.23 782.268C2679.94 776.624 2682.43 770.428 2683.76 764.036L2693.94 763.076V743.36L2683.76 742.4C2682.43 736.008 2679.94 729.812 2676.23 724.172L2682.73 716.316L2668.79 702.376L2660.94 708.88C2655.3 705.176 2649.1 702.684 2642.71 701.356L2641.75 691.176H2622.04L2621.08 701.356C2614.68 702.684 2608.49 705.172 2602.85 708.88L2594.99 702.376L2581.05 716.316L2587.56 724.176ZM2650.77 734.348C2661.19 744.772 2661.19 761.668 2650.77 772.092C2640.34 782.516 2623.44 782.516 2613.02 772.092C2602.6 761.668 2602.6 744.772 2613.02 734.348C2623.44 723.928 2640.34 723.928 2650.77 734.348Z" fill="#EBEBEB"/>
<path d="M1835.76 477.6C1832.06 483.24 1829.56 489.44 1828.24 495.828L1818.06 496.788V516.504L1828.24 517.464C1829.56 523.856 1832.06 530.052 1835.76 535.696L1829.26 543.548L1843.2 557.488L1851.05 550.984C1856.69 554.688 1862.89 557.18 1869.28 558.508L1870.24 568.688H1889.95L1890.91 558.508C1897.3 557.18 1903.5 554.688 1909.14 550.984L1917 557.488L1930.94 543.548L1924.44 535.696C1928.14 530.052 1930.63 523.856 1931.96 517.468L1942.14 516.508V496.792L1931.96 495.832C1930.63 489.44 1928.14 483.244 1924.44 477.604L1930.94 469.748L1917 455.808L1909.14 462.312C1903.5 458.608 1897.3 456.116 1890.92 454.788L1889.96 444.608H1870.24L1869.28 454.788C1862.89 456.116 1856.69 458.604 1851.05 462.312L1843.2 455.808L1829.26 469.748L1835.76 477.6ZM1898.97 487.776C1909.39 498.2 1909.39 515.096 1898.97 525.52C1888.54 535.944 1871.64 535.944 1861.22 525.52C1850.8 515.096 1850.8 498.2 1861.22 487.776C1871.65 477.352 1888.55 477.352 1898.97 487.776Z" fill="#F5F5F5"/>
<path d="M516.304 1043.45C512.6 1049.09 510.108 1055.29 508.78 1061.68L498.6 1062.64V1082.36L508.78 1083.32C510.108 1089.71 512.6 1095.91 516.304 1101.55L509.8 1109.4L523.74 1123.34L531.592 1116.84C537.236 1120.54 543.432 1123.04 549.82 1124.36L550.78 1134.54H570.496L571.456 1124.36C577.848 1123.04 584.044 1120.54 589.688 1116.84L597.54 1123.34L611.48 1109.4L604.976 1101.55C608.68 1095.9 611.172 1089.71 612.5 1083.32L622.68 1082.36V1062.64L612.5 1061.68C611.172 1055.29 608.68 1049.1 604.976 1043.46L611.48 1035.6L597.54 1021.66L589.688 1028.16C584.044 1024.46 577.848 1021.96 571.46 1020.64L570.5 1010.46H550.784L549.824 1020.64C543.432 1021.96 537.236 1024.45 531.596 1028.16L523.74 1021.66L509.8 1035.6L516.304 1043.45ZM579.516 1053.63C589.936 1064.05 589.94 1080.95 579.516 1091.37C569.092 1101.8 552.192 1101.8 541.772 1091.37C531.348 1080.95 531.348 1064.05 541.772 1053.63C552.192 1043.21 569.092 1043.2 579.516 1053.63Z" fill="#F5F5F5"/>
<path d="M2299.98 803.692C2293.61 813.388 2289.33 824.036 2287.05 835.024L2269.56 836.672V870.556L2287.06 872.204C2289.34 883.188 2293.62 893.836 2299.98 903.536L2288.81 917.032L2312.77 940.992L2326.26 929.816C2335.96 936.184 2346.61 940.464 2357.6 942.744L2359.24 960.24L2393.13 960.236L2394.78 942.744C2405.76 940.464 2416.41 936.18 2426.11 929.816L2439.6 940.992L2463.56 917.032L2452.39 903.536C2458.75 893.84 2463.04 883.188 2465.32 872.204L2482.81 870.556L2482.81 836.672L2465.32 835.024C2463.04 824.04 2458.75 813.392 2452.38 803.696L2463.56 790.2L2439.6 766.24L2426.1 777.416C2416.4 771.048 2405.76 766.764 2394.77 764.484L2393.12 746.988H2359.24L2357.59 764.484C2346.61 766.764 2335.96 771.044 2326.26 777.412L2312.77 766.236L2288.81 790.196L2299.98 803.692ZM2408.62 821.18C2426.52 839.092 2426.53 868.136 2408.62 886.048C2390.7 903.96 2361.66 903.96 2343.75 886.048C2325.84 868.136 2325.84 839.096 2343.75 821.18C2361.66 803.268 2390.7 803.268 2408.62 821.18Z" fill="#EBEBEB"/>
<path d="M1626.56 993.668C1620.15 1003.44 1615.83 1014.17 1613.53 1025.24L1595.9 1026.9V1061.05L1613.54 1062.71C1615.83 1073.78 1620.15 1084.51 1626.57 1094.29L1615.3 1107.89L1639.45 1132.04L1653.05 1120.78C1662.82 1127.19 1673.56 1131.51 1684.63 1133.8L1686.29 1151.44L1720.44 1151.44L1722.1 1133.8C1733.17 1131.5 1743.9 1127.19 1753.67 1120.77L1767.28 1132.03L1791.42 1107.89L1780.16 1094.28C1786.58 1084.51 1790.9 1073.78 1793.19 1062.71L1810.82 1061.05L1810.83 1026.9L1793.2 1025.24C1790.9 1014.17 1786.58 1003.44 1780.16 993.664L1791.42 980.06L1767.28 955.916L1753.68 967.176C1743.9 960.76 1733.17 956.44 1722.1 954.144L1720.44 936.512H1686.29L1684.63 954.144C1673.56 956.444 1662.83 960.756 1653.06 967.176L1639.45 955.912L1615.31 980.06L1626.56 993.668ZM1736.05 1011.29C1754.1 1029.34 1754.1 1058.61 1736.05 1076.66C1718 1094.72 1688.72 1094.72 1670.67 1076.66C1652.62 1058.61 1652.62 1029.34 1670.67 1011.29C1688.73 993.24 1718 993.236 1736.05 1011.29Z" fill="#EBEBEB"/>
<path d="M1726.64 1315.53C1715.88 1331.92 1708.64 1349.94 1704.78 1368.52L1675.18 1371.3L1675.18 1428.61L1704.78 1431.4C1708.63 1449.97 1715.87 1467.98 1726.64 1484.38L1707.74 1507.21L1748.26 1547.73L1771.09 1528.83C1787.49 1539.6 1805.5 1546.84 1824.08 1550.7L1826.87 1580.29L1884.17 1580.28L1886.96 1550.7C1905.54 1546.84 1923.55 1539.6 1939.95 1528.83L1962.78 1547.73L2003.3 1507.21L1984.4 1484.38C1995.17 1467.98 2002.41 1449.97 2006.27 1431.39L2035.86 1428.6L2035.86 1371.3L2006.27 1368.51C2002.42 1349.94 1995.17 1331.93 1984.4 1315.53L2003.3 1292.7L1962.78 1252.18L1939.96 1271.08C1923.55 1260.31 1905.54 1253.06 1886.97 1249.21L1884.18 1219.62L1826.88 1219.62L1824.09 1249.22C1805.51 1253.07 1787.5 1260.31 1771.1 1271.08L1748.27 1252.18L1707.75 1292.71L1726.64 1315.53ZM1910.38 1345.1C1940.67 1375.4 1940.67 1424.52 1910.38 1454.81C1880.08 1485.1 1830.96 1485.1 1800.66 1454.81C1770.37 1424.51 1770.37 1375.4 1800.66 1345.1C1830.96 1314.81 1880.08 1314.81 1910.38 1345.1Z" fill="#EBEBEB"/>
<path d="M2802.05 1793.58C2802.05 1807.12 2237.01 1818.1 1540 1818.1C842.988 1818.1 277.948 1807.12 277.948 1793.58C277.948 1780.03 842.988 1769.05 1540 1769.05C2237.01 1769.05 2802.05 1780.03 2802.05 1793.58Z" fill="#F5F5F5"/>
<path d="M468.32 1096.62C395.376 1181.95 374.072 1308.25 414.992 1412.78C460.456 1372.2 492.472 1310.35 494.496 1256.25C496.524 1202.15 482.364 1148.9 468.32 1096.62Z" fill="#0E53BE"/>
<path d="M455.592 1422.64C430.84 1460.56 418.996 1506.74 422.432 1551.9C461.864 1538.17 496.628 1493.62 517.468 1457.44C538.308 1421.26 549.96 1380.62 560.564 1340.24C517.848 1355.28 480.344 1384.71 455.592 1422.64Z" fill="#0E53BE"/>
<path d="M446.496 1245.63C417.192 1350.94 402.264 1460.17 402.352 1569.49C402.376 1600.59 403.636 1631.68 406.068 1662.68C406.22 1664.59 409.22 1664.61 409.068 1662.68C400.524 1553.65 406.864 1443.54 428.036 1336.24C433.996 1306.04 441.14 1276.08 449.392 1246.43C449.908 1244.56 447.016 1243.77 446.496 1245.63Z" fill="#263238"/>
<path d="M406.888 1587.57C436.824 1516.3 476.184 1449.54 521.676 1387.14C522.816 1385.58 520.212 1384.08 519.084 1385.62C483.472 1434.48 451.472 1485.97 424.992 1540.35C417.556 1555.62 410.572 1571.11 403.996 1586.77C403.248 1588.55 406.152 1589.33 406.888 1587.57Z" fill="#263238"/>
<path d="M364.432 1481.73C385.072 1513.35 394.948 1551.86 392.084 1589.51C359.204 1578.06 330.216 1540.92 312.84 1510.76C295.46 1480.59 285.744 1446.7 276.904 1413.03C312.52 1425.56 343.792 1450.11 364.432 1481.73Z" fill="#0E53BE"/>
<path d="M405.996 1614.46C381.44 1556.04 348.988 1501.89 311.704 1450.74C310.576 1449.2 307.972 1450.7 309.112 1452.26C346.228 1503.17 378.656 1557.1 403.104 1615.26C403.84 1617.02 406.748 1616.24 405.996 1614.46Z" fill="#263238"/>
<path d="M407.152 1633.87C453.552 1586.13 500.932 1539.36 547.332 1491.62C548.68 1490.24 546.56 1488.11 545.212 1489.5C498.812 1537.24 451.432 1584.01 405.032 1631.75C403.684 1633.13 405.8 1635.26 407.152 1633.87Z" fill="#263238"/>
<path d="M549.076 1469.69C508.82 1508.51 472.14 1551.04 439.66 1596.57H447.024C477.664 1595.14 507.408 1580.02 526.632 1556.12C545.856 1532.22 554.24 1499.92 549.076 1469.69Z" fill="#0E53BE"/>
<path d="M358.512 1377.1C375.796 1405.37 392.084 1434.23 407.34 1463.64C408.228 1465.36 410.82 1463.84 409.932 1462.13C394.676 1432.72 378.388 1403.85 361.104 1375.58C360.096 1373.94 357.5 1375.44 358.512 1377.1Z" fill="#263238"/>
<path d="M316.828 1234.38C310.236 1264.03 303.696 1302.58 303.632 1333.46C303.564 1364.34 312.984 1394.46 330.532 1415.15C348.08 1435.84 383.496 1444.9 397.772 1433.06L316.828 1234.38Z" fill="#0E53BE"/>
<path d="M491.78 1647.65H315.924V1680.24H491.78V1647.65Z" fill="#263238"/>
<path d="M463.3 1796.35H354.1L334.256 1672.78H478.976L463.3 1796.35Z" fill="#263238"/>
<path opacity="0.2" d="M335.552 1680.85H477.952L476.18 1694.84H337.8L335.552 1680.85Z" fill="black"/>
<path d="M2540.7 943.316C2585.13 917.912 2641.74 933.332 2667.14 977.76C2692.54 1022.19 2677.12 1078.8 2632.69 1104.2C2598.4 1123.81 2556.89 1119 2528.04 1095.39L2500.54 1099.71L2507.08 1071.04C2506.82 1070.6 2506.51 1070.2 2506.26 1069.74C2480.85 1025.33 2496.28 968.72 2540.7 943.316Z" fill="#0E53BE"/>
<path d="M2557.16 922.776C2527.58 928.472 2501.54 950.032 2490.42 978.032" stroke="#407BFF" stroke-width="0.5" stroke-miterlimit="10" stroke-linecap="round" stroke-linejoin="round"/>
<path d="M2485.78 991.056C2483.78 995.188 2482.64 999.74 2482.45 1004.33" stroke="#407BFF" stroke-width="0.5" stroke-miterlimit="10" stroke-linecap="round" stroke-linejoin="round"/>
<path d="M2575.83 1058.78L2536.72 1023.08L2549.18 1009.44L2575.4 1033.37L2618.98 990.816L2631.89 1004.04L2575.83 1058.78Z" fill="white"/>
<path d="M1586.31 351.632C1632.98 324.512 1692.8 340.36 1719.92 387.036C1747.04 433.708 1731.2 493.532 1684.52 520.652C1648.49 541.588 1604.68 536.828 1574.07 512.132L1545.1 516.896L1551.79 486.608C1551.51 486.14 1551.18 485.72 1550.9 485.248C1523.78 438.576 1539.64 378.752 1586.31 351.632Z" fill="#0E53BE"/>
<path d="M1720.09 364.536C1701.11 339.052 1668.68 324.212 1636.99 326.5" stroke="#407BFF" stroke-width="0.5" stroke-miterlimit="10" stroke-linecap="round" stroke-linejoin="round"/>
<path d="M1622.49 328.064C1617.64 328.052 1612.8 329.056 1608.35 330.992" stroke="#407BFF" stroke-width="0.5" stroke-miterlimit="10" stroke-linecap="round" stroke-linejoin="round"/>
<path d="M1677.8 422.092H1586.5V444.916H1677.8V422.092Z" fill="white"/>
<path d="M1669.36 457.34V411.224L1691.84 434.284L1669.36 457.34Z" fill="white"/>
<path d="M2184.31 932.188C2184.31 932.188 2181.88 974.08 2161.42 1047.5C2148.59 1092.87 2133.01 1137.42 2114.78 1180.9C2104.58 1205.46 2092.86 1231.53 2079.42 1258.96C2073.37 1271.43 2066.9 1284.12 2060.09 1297.13C2052.26 1519.33 1927.56 1745.2 1927.56 1745.2C1920.65 1748.76 1896.52 1744.88 1896.68 1737.86C1915.14 1708.54 1951.48 1423.83 1974.9 1288.76C1976.36 1270.4 1978.47 1250.97 1981.06 1230.4C1987.91 1175.88 1998.06 1116.6 2008.05 1064.46C2023.54 982.292 2038.28 917.888 2038.28 917.888L2079.36 921.884L2184.31 932.188Z" fill="#EEC1BB"/>
<path d="M1926.21 1793.14H1919.19L1917.2 1784.28L1893.44 1795.08H1833.25C1833.25 1795.08 1823.7 1785.47 1852.31 1777.86C1853.7 1777.46 1855.06 1776.94 1856.36 1776.3C1871.63 1769.12 1893.34 1744.93 1893.34 1744.93H1926.32C1927.34 1746.46 1928.24 1748.07 1929.02 1749.74C1932.64 1756.86 1938.84 1772.3 1926.21 1793.14Z" fill="#263238"/>
<path d="M1929.02 1749.62C1924.7 1744.76 1904.89 1766.09 1890.37 1773.38C1877.41 1779.8 1862.84 1782.66 1856.36 1776.13C1871.63 1768.95 1898.84 1735.35 1898.84 1735.35L1922.16 1737.69C1922.16 1737.69 1927.51 1746.5 1929.02 1749.62Z" fill="#EEC1BB"/>
<path d="M2233.33 1239.79C2230.02 1263.69 2225.76 1289.26 2220.54 1316.5C2265.08 1465.12 2173.46 1755.18 2173.46 1755.18C2157.97 1758.26 2144.25 1756.26 2137.29 1751.03C2154.57 1663.63 2142.15 1436.4 2128.71 1300.63C2127.52 1288.32 2126.01 1274.77 2124.39 1260.3C2121.64 1235.8 2118.34 1208.8 2114.83 1180.89C2108.89 1134.2 2102.25 1085.07 2096.26 1041.5C2088.92 988.868 2082.55 944.332 2079.26 921.928C2077.9 912.104 2077.1 906.544 2077.1 906.544L2205.69 920.472C2205.69 920.472 2238.4 957.128 2243.48 1071.63C2245.16 1127.88 2241.76 1184.16 2233.33 1239.79Z" fill="#EEC1BB"/>
<path d="M2176.65 1793.14H2169.47L2167.47 1784.28L2143.77 1795.08H2083.63C2083.63 1795.08 2074.08 1785.47 2102.74 1777.86C2104.14 1777.46 2105.49 1776.94 2106.79 1776.3C2122.01 1769.12 2143.77 1744.93 2143.77 1744.93H2176.75C2177.74 1746.48 2178.65 1748.08 2179.45 1749.74C2183.07 1756.86 2189.12 1772.3 2176.65 1793.14Z" fill="#263238"/>
<path d="M2179.46 1749.62C2175.08 1744.76 2155.27 1766.09 2140.75 1773.38C2127.79 1779.8 2113.22 1782.66 2106.79 1776.13C2122.02 1768.95 2146.04 1737.69 2146.04 1737.69H2172.55C2172.55 1737.69 2177.89 1746.5 2179.46 1749.62Z" fill="#EEC1BB"/>
<path d="M2267.1 609.288C2260.5 603.584 2249.83 605.772 2240.75 604.704C2226.96 603.084 2215.86 593.124 2209.92 581.828C2203.99 570.528 2202.26 557.884 2200.15 545.536C2198.04 533.188 2195.31 520.54 2187.74 510.06C2180.17 499.58 2161.94 486.588 2148.7 494.536L2130.96 522.02C2141.61 554.22 2150.26 586.956 2156.88 620.016C2159.83 634.78 2162.76 650.396 2173.48 661.896C2183.98 673.16 2200.6 678.652 2216.91 679.704C2225.18 680.236 2233.73 679.708 2241.28 676.64C2248.84 673.572 2255.27 667.648 2256.95 660.352C2258.62 653.056 2254.6 644.632 2246.92 641.84C2254.34 638.708 2262.05 635.36 2267 629.484C2271.94 623.608 2273.01 614.396 2267.1 609.288Z" fill="#263238"/>
<path d="M2013.05 472.504C1992.78 492.12 1990.22 515.468 1993.44 531.448C2000.25 552.58 2010.55 566.54 2020.23 586.524L2054.56 449.328C2041.64 454.432 2035.1 452.78 2013.05 472.504Z" fill="#263238"/>
<path d="M2074.2 448.524C2113.78 449.328 2153.51 482.42 2156.62 514.528C2159.73 546.64 2128.15 588.072 2122.22 590.616L2103.48 597.508C2103.48 597.508 2124.16 549.7 2115.58 536.928C2107 524.156 2100.77 524.016 2100.77 524.016L2074.2 448.524Z" fill="#263238"/>
<path d="M2040.6 456.136C2061.18 441.576 2085.5 449.9 2099.94 456.136C2116.19 465.52 2127.66 481.404 2131.45 499.792C2134.6 517.052 2138.41 537.976 2129.58 548.88C2124.67 555.16 2117.34 559.08 2109.4 559.692L2009.68 496.468C2016.39 480.612 2027.03 466.732 2040.6 456.136Z" fill="#263238"/>
<path d="M2080.82 689.928C2088.61 695.504 2094.2 692.152 2102.3 686.972C2151.01 658.728 2131 636.372 2131 636.372C2119 626.572 2116.04 612.772 2115.78 590.956C2115.74 590.328 2115.66 589.7 2115.52 589.084C2114.98 586.268 2113.57 583.688 2111.5 581.704C2105.98 576.128 2096.98 576.076 2091.41 581.592L2091.39 581.608L2069.27 592.528C2069.27 592.86 2069.26 593.192 2069.26 593.568C2071.3 605.152 2073.27 614.076 2074.47 621.156C2074.46 622.028 2074.78 622.908 2074.88 623.74C2074.87 624.612 2075.1 625.528 2075.26 626.364C2076.46 636.148 2062.67 653.344 2056.61 657.936C2052.99 660.984 2054.39 671.156 2080.82 689.928Z" fill="#EEC1BB"/>
<path opacity="0.2" d="M2069.32 592.192C2069.37 592.552 2069.36 592.916 2069.3 593.272C2071.34 604.856 2073.31 613.78 2074.52 620.86C2074.72 621.708 2074.86 622.572 2074.93 623.444C2075.04 624.356 2075.1 625.272 2075.09 626.188C2091.94 618.136 2105.92 605.108 2115.15 588.864C2114.62 586.084 2113.3 583.524 2111.33 581.488C2105.87 575.86 2096.88 575.704 2091.23 581.144L2069.32 592.192Z" fill="black"/>
<path d="M2118.8 507.096C2125.18 547.168 2128.75 563.928 2113.74 589.052C2091.12 626.796 2041.72 626.824 2023.59 589.664C2007.55 556.156 1999.64 496.412 2033.93 471.244C2068.21 446.08 2112.38 466.984 2118.8 507.096Z" fill="#EEC1BB"/>
<path d="M2142.7 538.056C2140.23 547.408 2134.04 554.536 2127.57 558.156C2117.84 563.6 2107.9 548.28 2108.63 536.852C2109.29 526.568 2117.86 517.556 2128.58 516.86C2139.13 516.172 2145.52 527.368 2142.7 538.056Z" fill="#EEC1BB"/>
<path opacity="0.2" d="M2120.07 541.932C2119.3 538.128 2120.11 534.036 2122.26 530.804C2124.4 527.572 2127.86 525.24 2131.66 524.468" stroke="black" stroke-width="0.5" stroke-miterlimit="10" stroke-linecap="round" stroke-linejoin="round"/>
<path d="M2069.94 533.748C2070.87 537.972 2069.54 542.012 2066.96 542.768C2064.38 543.524 2061.53 540.712 2060.6 536.488C2059.66 532.264 2060.99 528.224 2063.57 527.468C2066.15 526.712 2069 529.52 2069.94 533.748Z" fill="#263238"/>
<path d="M2031.01 544.164C2031.91 548.26 2030.56 552.192 2027.98 552.948C2025.41 553.7 2022.6 550.992 2021.7 546.896C2020.8 542.8 2022.16 538.868 2024.73 538.112C2027.3 537.36 2030.11 540.068 2031.01 544.164Z" fill="#263238"/>
<path d="M2074.23 516.984C2073.74 517.176 2073.19 517.168 2072.7 516.916C2065.1 512.936 2058.8 516.764 2058.73 516.808C2057.79 517.376 2056.61 517.084 2056.1 516.112C2055.59 515.14 2055.94 513.88 2056.88 513.292C2057.21 513.092 2065.12 508.276 2074.56 513.22C2075.5 513.712 2075.84 514.94 2075.34 515.964C2075.08 516.448 2074.68 516.804 2074.23 516.984Z" fill="#263238"/>
<path d="M2012.57 527.92C2012.14 527.896 2011.73 527.688 2011.44 527.304C2010.84 526.508 2010.97 525.256 2011.73 524.504C2019.37 516.996 2027.1 519.036 2027.42 519.132C2028.34 519.388 2028.84 520.456 2028.53 521.52C2028.22 522.58 2027.22 523.232 2026.3 522.98C2026 522.896 2019.98 521.412 2013.91 527.384C2013.51 527.768 2013.03 527.948 2012.57 527.92Z" fill="#263238"/>
<path d="M2041.07 539.376C2041.07 539.376 2038.9 555.812 2034.43 566.896C2033.65 568.832 2035.04 570.976 2037.12 571.16C2042.48 571.632 2047.74 568.468 2047.74 568.468L2041.07 539.376Z" fill="#D4827D"/>
<path d="M2065.1 527.236L2055.47 527.552C2055.47 527.552 2062.25 532.96 2065.1 527.236Z" fill="#263238"/>
<path d="M2025.68 537.956L2016.05 538.268C2016.05 538.268 2022.83 543.676 2025.68 537.956Z" fill="#263238"/>
<path d="M2106.75 519.34C2106.75 519.34 2079.2 497.444 2074.44 475.292C2074.44 475.292 1989.57 472.052 2009.92 541.088C2009.92 541.088 1981.2 483.416 2046.03 461.336C2110.87 439.256 2140.48 523.792 2115.8 559.632C2115.62 559.34 2123.83 533.092 2106.75 519.34Z" fill="#263238"/>
<path d="M2017.32 475.572C2010.08 485.588 2006.22 497.648 2006.3 510.004C2007.88 518.688 2020.84 522.812 2020.84 522.812L2031.83 501.248L2034.86 517.88C2058.03 510.98 2069.42 495.936 2074.21 476.344L2056.74 455.208C2056.73 455.204 2023.92 467.344 2017.32 475.572Z" fill="#263238"/>
<path d="M2064.29 575.644C2066.94 576.072 2069.78 575.176 2071.71 573.296C2073.64 571.416 2074.6 568.6 2074.24 565.932" stroke="#263238" stroke-width="0.5" stroke-miterlimit="10" stroke-linecap="round" stroke-linejoin="round"/>
<path opacity="0.2" d="M2143.36 562.66C2143.36 562.66 2173.27 525.556 2149.85 493.936C2149.85 493.936 2167.11 505.808 2163.83 526.3C2161.26 542.388 2154.24 555.428 2143.36 562.66Z" fill="black"/>
<path opacity="0.2" d="M2233.33 1239.79C2198.15 1251.67 2161.48 1258.58 2124.39 1260.31C2121.64 1235.8 2118.34 1208.81 2114.84 1180.9C2104.63 1205.46 2092.92 1231.53 2079.48 1258.96C2045.17 1255.84 2011.78 1246.17 1981.12 1230.46C1987.97 1175.93 1998.12 1116.66 2008.11 1064.51C2021.74 1056.51 2036.47 1050.56 2051.84 1046.86C2066.44 1043.34 2081.4 1041.53 2096.43 1041.46C2118.31 1041.36 2140.15 1043.36 2161.64 1047.45C2189.56 1052.67 2216.86 1060.78 2243.1 1071.63C2244.9 1127.86 2241.64 1184.14 2233.33 1239.79Z" fill="black"/>
<path d="M2035.8 906.544H2206.56L2211.2 928.568C2211.2 928.568 2273.93 1015.38 2242.13 1231.86C2242.13 1231.86 2104.74 1247.73 1975.34 1219.98C1975.34 1219.98 2004.38 997.564 2034.72 924.952L2035.8 906.544Z" fill="#263238"/>
<path d="M2197.93 839.416L2210.07 930.22L2022.88 922.676C2022.39 903.168 2039.79 851.4 2037.78 837.244C2032.1 819.756 2003.34 793.364 1995.68 772.236C1987.52 742.896 2004.38 662.224 2009.87 659.664C2016.54 656.564 2024.84 656.844 2029.95 654.596C2049.82 649.92 2095.02 633.776 2115.28 631.256C2119.2 630.888 2123.09 630.18 2126.96 629.732C2126.96 629.732 2203.55 626.044 2206.94 657.208C2207.28 658.94 2188.69 740.684 2197.93 839.416Z" fill="#0E53BE"/>
<path opacity="0.2" d="M2196.46 820.148L2194.93 795.28L2166.56 718.02L2188.79 808.98L2118.34 833.66L2196.46 820.148Z" fill="black"/>
<path opacity="0.2" d="M2114.93 901.192C2117.43 900.864 2139.66 876.72 2139.66 876.72L2203.24 879.128L2200.17 856.136C2202.06 854.648 2125.88 858.12 2125.88 858.12L2114.93 881.852L2114.93 901.192Z" fill="black"/>
<path d="M2178.03 636.976C2181.3 637.384 2194.62 629.844 2218.65 660.712C2242.68 691.58 2269.63 809.256 2271.15 826.424C2273.08 848.228 2258.55 858.976 2244.06 861.368C2200.59 868.544 2120.35 869.992 2120.35 869.992V833.032L2200.41 814.908C2200.41 814.908 2154.98 705.54 2162.15 677.36C2169.32 649.188 2178.03 636.976 2178.03 636.976Z" fill="#0E53BE"/>
<path d="M2142.02 629.628C2136.24 661.048 2112.74 685.712 2081.8 693.68C2070.95 696.288 2058.82 690.284 2050.24 683.176C2041.54 675.92 2035.76 665.776 2033.93 654.6C2071.62 639.744 2105.74 627.004 2142.02 629.628Z" fill="#EEC1BB"/>
<path opacity="0.2" d="M2200.4 814.912C2200.4 814.912 2213.42 814.176 2218.94 821.268C2218.94 821.268 2215.61 807.672 2198.62 810.528L2200.4 814.912Z" fill="black"/>
<path d="M2094.49 1052.08V639.928H1682.93V804.6C1690.39 807.432 1714.76 809.3 1722.17 806.54C1735.16 801.7 1726.68 786.732 1739.23 780.828C1757.73 772.116 1780.78 784.396 1790.48 802.4C1798.01 816.368 1799.42 823.684 1798.73 835.752C1799.42 847.82 1798.01 855.136 1790.48 869.104C1780.78 887.112 1757.73 899.388 1739.23 890.676C1726.69 884.772 1736.88 870.176 1723.9 865.336C1716.48 862.576 1690.39 864.068 1682.93 866.904V1052.08H1866.97C1867.19 1056.1 1866.73 1060.12 1865.31 1063.93C1860.47 1076.92 1846.66 1084.65 1840.76 1097.19C1832.05 1115.7 1844.33 1138.75 1862.33 1148.45C1876.3 1155.97 1883.62 1157.38 1895.68 1156.69C1907.75 1157.38 1915.07 1155.97 1929.04 1148.45C1947.04 1138.75 1959.32 1115.7 1950.61 1097.19C1944.7 1084.65 1930.9 1076.92 1926.06 1063.93C1924.64 1060.12 1924.18 1056.1 1924.4 1052.08L2094.49 1052.08Z" fill="#0E53BE"/>
<path d="M2114.93 1052.08V639.928H1703.36V804.6C1710.82 807.432 1718.99 808.14 1726.4 805.38C1739.39 800.54 1747.12 786.732 1759.66 780.828C1778.16 772.116 1801.22 784.396 1810.92 802.4C1818.44 816.368 1819.85 823.684 1819.16 835.752C1819.85 847.82 1818.44 855.136 1810.92 869.104C1801.22 887.112 1778.16 899.388 1759.66 890.676C1747.12 884.772 1739.39 870.964 1726.4 866.124C1718.99 863.364 1710.82 864.068 1703.36 866.904V1052.08H1887.4C1887.62 1056.1 1887.16 1060.12 1885.74 1063.93C1880.9 1076.92 1867.1 1084.65 1861.19 1097.19C1852.48 1115.7 1864.76 1138.75 1882.77 1148.45C1896.74 1155.97 1904.05 1157.38 1916.12 1156.69C1928.19 1157.38 1935.5 1155.97 1949.47 1148.45C1967.48 1138.75 1979.76 1115.7 1971.04 1097.19C1965.14 1084.65 1951.33 1076.92 1946.49 1063.93C1945.07 1060.12 1944.61 1056.1 1944.83 1052.08L2114.93 1052.08Z" fill="#0E53BE"/>
<g opacity="0.3">
<path d="M2114.93 1052.08V639.928H1703.36V804.6C1710.82 807.432 1718.99 808.14 1726.4 805.38C1739.39 800.54 1747.12 786.732 1759.66 780.828C1778.16 772.116 1801.22 784.396 1810.92 802.4C1818.44 816.368 1819.85 823.684 1819.16 835.752C1819.85 847.82 1818.44 855.136 1810.92 869.104C1801.22 887.112 1778.16 899.388 1759.66 890.676C1747.12 884.772 1739.39 870.964 1726.4 866.124C1718.99 863.364 1710.82 864.068 1703.36 866.904V1052.08H1887.4C1887.62 1056.1 1887.16 1060.12 1885.74 1063.93C1880.9 1076.92 1867.1 1084.65 1861.19 1097.19C1852.48 1115.7 1864.76 1138.75 1882.77 1148.45C1896.74 1155.97 1904.05 1157.38 1916.12 1156.69C1928.19 1157.38 1935.5 1155.97 1949.47 1148.45C1967.48 1138.75 1979.76 1115.7 1971.04 1097.19C1965.14 1084.65 1951.33 1076.92 1946.49 1063.93C1945.07 1060.12 1944.61 1056.1 1944.83 1052.08L2114.93 1052.08Z" fill="white"/>
</g>
<path d="M2114.93 840.26C2114.93 840.26 2087.3 847.164 2084.28 853.664C2081.25 860.164 2091.47 859.668 2091.47 859.668C2091.47 859.668 2080.26 860.908 2080.14 865.736C2080 871.536 2090.71 870.964 2090.71 870.964C2090.71 870.964 2081.6 872.352 2081.78 876.656C2081.97 881.12 2094.1 881.336 2094.1 881.336C2094.1 881.336 2087.87 883.528 2089.69 886.448C2091.51 889.368 2117.24 890.324 2124.82 885.508C2132.4 880.692 2132.43 847.624 2130.95 840.408C2129.47 833.192 2124 829.3 2114.94 818.34V840.26H2114.93Z" fill="#EEC1BB"/>
<path opacity="0.2" d="M2091.5 860.208C2091.51 860.208 2091.53 860.204 2091.54 860.204L2110.99 857.108C2111.25 857.064 2111.43 856.792 2111.39 856.496C2111.35 856.2 2111.09 855.988 2110.84 856.032L2091.4 859.128C2091.14 859.172 2090.96 859.444 2091 859.74C2091.03 860.02 2091.25 860.22 2091.5 860.208Z" fill="black"/>
<path opacity="0.2" d="M2091.29 871.48H2091.3L2110.21 869.992C2110.48 869.972 2110.67 869.712 2110.65 869.416C2110.63 869.116 2110.44 868.94 2110.13 868.912L2091.22 870.4C2090.96 870.42 2090.76 870.68 2090.78 870.976C2090.8 871.272 2091.03 871.496 2091.29 871.48Z" fill="black"/>
<path opacity="0.2" d="M2094.77 881.848L2108.85 881.144C2109.12 881.132 2109.32 880.876 2109.3 880.58C2109.29 880.28 2109.06 880.048 2108.8 880.06L2094.72 880.764C2094.45 880.776 2094.25 881.032 2094.27 881.328C2094.28 881.628 2094.5 881.86 2094.77 881.848Z" fill="black"/>
<path d="M1799.02 829.352C1799.02 829.352 1828.61 837.624 1831.63 844.12C1834.66 850.62 1824.44 850.124 1824.44 850.124C1824.44 850.124 1835.65 851.364 1835.76 856.192C1835.9 861.992 1825.2 861.42 1825.2 861.42C1825.2 861.42 1834.31 862.804 1834.13 867.112C1833.94 871.576 1821.81 871.792 1821.81 871.792C1821.81 871.792 1828.04 873.98 1826.22 876.904C1824.4 879.824 1798.66 880.78 1791.09 875.964C1783.51 871.148 1783.48 838.08 1784.96 830.864C1786.43 823.648 1787.04 824.84 1796.1 813.88L1797.75 820.016C1798.2 821.684 1798.5 823.388 1798.65 825.108L1799.02 829.352Z" fill="#EEC1BB"/>
<path opacity="0.2" d="M1824.41 850.664C1824.4 850.664 1824.38 850.66 1824.36 850.66L1804.92 847.564C1804.66 847.52 1804.48 847.248 1804.52 846.952C1804.56 846.656 1804.82 846.444 1805.06 846.488L1824.51 849.584C1824.77 849.628 1824.95 849.9 1824.91 850.196C1824.87 850.48 1824.65 850.676 1824.41 850.664Z" fill="black"/>
<path opacity="0.2" d="M1824.62 861.94H1824.61L1805.7 860.452C1805.43 860.432 1805.24 860.172 1805.26 859.876C1805.28 859.576 1805.47 859.396 1805.78 859.372L1824.69 860.86C1824.95 860.88 1825.15 861.14 1825.12 861.44C1825.1 861.728 1824.88 861.952 1824.62 861.94Z" fill="black"/>
<path opacity="0.2" d="M1821.14 872.304L1807.06 871.6C1806.79 871.588 1806.59 871.332 1806.6 871.036C1806.62 870.736 1806.84 870.504 1807.11 870.516L1821.19 871.22C1821.46 871.232 1821.66 871.488 1821.64 871.788C1821.63 872.084 1821.4 872.32 1821.14 872.304Z" fill="black"/>
<path d="M1192.72 1747.03L1233.57 1751.03L1263.76 1647.61L1201.62 1640.85L1192.72 1747.03Z" fill="#EEC1BB"/>
<path d="M1239.49 1732.99H1224.9C1221.6 1732.99 1218.55 1734.66 1216.6 1737.32C1208.19 1748.81 1201.87 1744.47 1192.73 1733.67C1186.91 1732.99 1185.35 1739.67 1184.87 1741.46L1173.97 1781.12C1173.02 1784.43 1174.94 1787.88 1178.25 1788.83C1178.84 1789 1179.45 1789.08 1180.06 1789.07C1197.77 1789.07 1206.15 1789.07 1228.19 1789.07H1295.6C1313.98 1789.07 1317.79 1770.55 1310.22 1768.84C1276.18 1761.31 1252.08 1751.3 1241.56 1741.4C1239.6 1739.66 1241.61 1738.36 1239.49 1732.99Z" fill="#263238"/>
<path d="M1271.13 1744.27C1272.67 1743.16 1273.58 1741.4 1273.61 1739.51C1273.74 1738.49 1273.28 1737.5 1272.42 1736.94C1267.85 1733.7 1249.62 1742.22 1247.57 1743.22C1247.34 1743.3 1247.16 1743.48 1247.08 1743.71C1246.93 1744.13 1247.15 1744.59 1247.57 1744.74C1252.05 1745.8 1256.63 1746.4 1261.23 1746.5C1264.68 1746.84 1268.16 1746.05 1271.13 1744.27ZM1271.28 1738.32C1271.65 1738.54 1271.84 1738.98 1271.75 1739.41C1271.68 1740.78 1271.02 1742.04 1269.94 1742.89C1265.8 1745.98 1255.8 1744.65 1250.42 1743.65C1257.99 1740.32 1268.75 1736.56 1271.28 1738.32Z" fill="#0E53BE"/>
<path d="M1248.19 1744.94C1253.66 1742.65 1265.14 1733.65 1264.52 1728.89C1264.42 1727.89 1263.71 1726.7 1261.23 1726.37C1251.24 1725.22 1246.95 1743.18 1246.95 1743.94C1246.85 1744.24 1246.94 1744.58 1247.19 1744.79C1247.37 1744.85 1247.57 1744.85 1247.76 1744.79L1248.19 1744.94ZM1260.9 1727.84C1262.75 1728.04 1262.75 1728.7 1262.75 1728.94C1263.28 1731.84 1254.94 1739.32 1248.99 1742.46C1250.23 1738.27 1253.9 1727.8 1260.23 1727.8L1260.9 1727.84Z" fill="#0E53BE"/>
<path d="M1249.61 1744.25C1244.59 1744.94 1239.93 1747.94 1237.23 1752.23" stroke="#407BFF" stroke-width="0.5" stroke-miterlimit="10" stroke-linecap="round" stroke-linejoin="round"/>
<path d="M1258.68 1751.07C1253.65 1751.75 1248.99 1754.76 1246.29 1759.04" stroke="#407BFF" stroke-width="0.5" stroke-miterlimit="10" stroke-linecap="round" stroke-linejoin="round"/>
<path d="M1269.95 1756.81C1264.93 1757.49 1260.27 1760.5 1257.57 1764.78" stroke="#407BFF" stroke-width="0.5" stroke-miterlimit="10" stroke-linecap="round" stroke-linejoin="round"/>
<path opacity="0.3" d="M1247.8 1702.27L1244.1 1714.95L1196.03 1707.57L1196.9 1697.17L1247.8 1702.27Z" fill="black"/>
<path d="M1430.5 1747.03L1471.35 1751.03L1501.54 1647.61L1439.4 1640.85L1430.5 1747.03Z" fill="#EEC1BB"/>
<path d="M1477.26 1732.99H1462.68C1459.38 1732.99 1456.33 1734.66 1454.38 1737.32C1445.97 1748.81 1439.65 1744.47 1430.5 1733.67C1424.68 1732.99 1423.12 1739.67 1422.64 1741.46L1411.74 1781.12C1410.79 1784.43 1412.71 1787.88 1416.02 1788.83C1416.61 1789 1417.22 1789.08 1417.83 1789.07C1435.54 1789.07 1443.92 1789.07 1465.96 1789.07H1533.38C1551.75 1789.07 1555.56 1770.55 1547.99 1768.84C1513.95 1761.31 1489.85 1751.3 1479.33 1741.4C1477.38 1739.66 1479.38 1738.36 1477.26 1732.99Z" fill="#263238"/>
<path d="M1508.91 1744.27C1510.45 1743.16 1511.36 1741.4 1511.39 1739.51C1511.52 1738.49 1511.06 1737.5 1510.2 1736.94C1505.62 1733.7 1487.39 1742.22 1485.34 1743.22C1485.12 1743.3 1484.94 1743.48 1484.86 1743.71C1484.7 1744.13 1484.92 1744.59 1485.34 1744.74C1489.82 1745.8 1494.4 1746.4 1499.01 1746.5C1502.46 1746.84 1505.93 1746.05 1508.91 1744.27ZM1509.05 1738.32C1509.42 1738.54 1509.61 1738.98 1509.53 1739.41C1509.45 1740.78 1508.79 1742.04 1507.72 1742.89C1503.58 1745.98 1493.58 1744.65 1488.2 1743.65C1495.77 1740.32 1506.53 1736.56 1509.05 1738.32Z" fill="#0E53BE"/>
<path d="M1485.96 1744.94C1491.44 1742.65 1502.91 1733.65 1502.29 1728.89C1502.2 1727.89 1501.48 1726.7 1499.01 1726.37C1489.01 1725.22 1484.72 1743.18 1484.72 1743.94C1484.62 1744.24 1484.72 1744.58 1484.96 1744.79C1485.15 1744.85 1485.35 1744.85 1485.54 1744.79L1485.96 1744.94ZM1498.68 1727.84C1500.53 1728.04 1500.53 1728.7 1500.53 1728.94C1501.06 1731.84 1492.72 1739.32 1486.77 1742.46C1488.01 1738.27 1491.68 1727.8 1498.01 1727.8L1498.68 1727.84Z" fill="#0E53BE"/>
<path d="M1487.39 1744.25C1482.36 1744.94 1477.7 1747.94 1475 1752.23" stroke="#407BFF" stroke-width="0.5" stroke-miterlimit="10" stroke-linecap="round" stroke-linejoin="round"/>
<path d="M1496.45 1751.07C1491.43 1751.75 1486.77 1754.76 1484.07 1759.04" stroke="#407BFF" stroke-width="0.5" stroke-miterlimit="10" stroke-linecap="round" stroke-linejoin="round"/>
<path d="M1507.73 1756.81C1502.7 1757.49 1498.04 1760.5 1495.34 1764.78" stroke="#407BFF" stroke-width="0.5" stroke-miterlimit="10" stroke-linecap="round" stroke-linejoin="round"/>
<path opacity="0.3" d="M1485.58 1702.27L1481.88 1714.95L1433.81 1707.57L1434.68 1697.17L1485.58 1702.27Z" fill="black"/>
<path d="M1517.81 967.696C1517.81 967.696 1551.66 1117.2 1567.8 1247.43C1572.72 1287.12 1573.66 1340.2 1564.97 1379.27L1499.71 1703.68L1417.6 1695.46C1430.5 1555.55 1448.48 1382.98 1453.64 1309.57C1435.57 1223.53 1397.08 1119.38 1359.24 1015.81L1517.81 967.696Z" fill="#0E53BE"/>
<g opacity="0.2">
<path d="M1517.81 967.696C1517.81 967.696 1551.66 1117.2 1567.8 1247.43C1572.72 1287.12 1573.66 1340.2 1564.97 1379.27L1499.71 1703.68L1417.6 1695.46C1430.5 1555.55 1448.48 1382.98 1453.64 1309.57C1435.57 1223.53 1397.08 1119.38 1359.24 1015.81L1517.81 967.696Z" fill="black"/>
</g>
<path d="M1247.98 1335.69C1249.84 1327.6 1252.81 1311.16 1256.45 1289.49C1256.34 1289.46 1256.22 1289.44 1256.11 1289.41C1258.78 1260.74 1263.71 1127.78 1272.78 1042.97C1279.75 988.952 1293.56 952.396 1307.46 934.496C1308.17 933.576 1308.83 932.74 1309.43 931.996C1311.74 929.112 1313.14 927.528 1313.14 927.528C1315.78 928.188 1318.41 928.804 1321.02 929.376C1322 929.592 1322.98 929.8 1323.94 930.004C1422.1 950.528 1508.47 924.728 1508.47 924.728C1517.5 947.044 1524.25 994.624 1530.84 1043.96C1520.58 1055.23 1475.52 1069.85 1423.83 1079.54L1409.09 1146.2C1401.34 1187.53 1391.38 1228.07 1382.92 1264.58L1374.08 1304.56C1373.54 1307.18 1373.01 1309.78 1372.51 1312.33C1368.03 1335.32 1261.3 1705.63 1261.3 1705.63L1191.77 1701.56C1191.78 1701.56 1222.84 1445.26 1247.98 1335.69Z" fill="#0E53BE"/>
<path opacity="0.2" d="M1247.98 1335.69C1249.84 1327.6 1252.81 1311.16 1256.45 1289.49C1256.34 1289.46 1256.22 1289.44 1256.11 1289.41C1258.78 1260.74 1263.71 1127.78 1272.78 1042.97C1279.75 988.952 1293.56 952.396 1307.46 934.496C1308.17 933.576 1308.83 932.74 1309.43 931.996C1311.74 929.112 1313.14 927.528 1313.14 927.528C1315.78 928.188 1318.41 928.804 1321.02 929.376C1322 929.592 1322.98 929.8 1323.94 930.004C1422.1 950.528 1508.47 924.728 1508.47 924.728C1517.5 947.044 1524.25 994.624 1530.84 1043.96C1520.58 1055.23 1475.52 1069.85 1423.83 1079.54L1409.09 1146.2C1401.34 1187.53 1391.38 1228.07 1382.92 1264.58L1374.08 1304.56C1373.54 1307.18 1373.01 1309.78 1372.51 1312.33C1368.03 1335.32 1261.3 1705.63 1261.3 1705.63L1191.77 1701.56C1191.78 1701.56 1222.84 1445.26 1247.98 1335.69Z" fill="black"/>
<path opacity="0.2" d="M1408.15 1152.36C1407.88 1153.72 1439.99 1036.99 1439.99 1036.99C1439.99 1036.99 1467.03 1141.21 1425.89 1206.39L1408.15 1152.36Z" fill="black"/>
<path d="M1339.05 625.712C1339.05 625.712 1355.38 638.268 1376.4 656.388C1380.78 660.164 1385.61 663.428 1390.71 666.14C1404.49 673.456 1417.05 677.644 1420.45 671C1421.21 669.54 1421.79 667.956 1422.22 666.3C1425.11 655.176 1423.92 639.54 1414.93 632.384C1404.8 624.316 1399.91 617.412 1401.74 606.488C1402.7 600.296 1404.94 593.904 1407.56 587.692L1399.58 578.364L1357.86 536.256C1358.9 564.372 1361.03 610.448 1339.05 625.712Z" fill="#EEC1BB"/>
<path opacity="0.2" d="M1401.4 608.884C1389.92 602.072 1377.33 590.256 1378.84 576.756C1379.51 571.072 1380.74 565.684 1382.1 562.232L1405.41 593.092C1403.49 598.068 1402.8 601.356 1401.4 608.884Z" fill="black"/>
<path d="M1346.04 491.08C1349.97 533.948 1350.72 552.128 1372.85 574.608C1406.12 608.42 1457.32 597.044 1466.13 554.552C1474.06 516.304 1466.31 452.624 1424.22 434.608C1382.76 416.86 1342.12 448.212 1346.04 491.08Z" fill="#EEC1BB"/>
<path d="M1399.44 504.6C1399.66 508.612 1402.13 511.916 1404.95 511.972C1407.77 512.032 1409.87 508.828 1409.65 504.812C1409.42 500.8 1406.96 497.496 1404.14 497.44C1401.32 497.38 1399.22 500.584 1399.44 504.6Z" fill="#263238"/>
<path d="M1443.87 503.992C1444.09 507.88 1446.56 511.08 1449.36 511.14C1452.18 511.2 1454.27 508.096 1454.05 504.204C1453.82 500.316 1451.36 497.116 1448.55 497.056C1445.74 496.996 1443.64 500.1 1443.87 503.992Z" fill="#263238"/>
<path d="M1392.62 489.24C1393.17 489.3 1393.72 489.144 1394.15 488.752C1400.75 482.636 1408.19 484.784 1408.28 484.808C1409.38 485.128 1410.49 484.504 1410.74 483.38C1410.99 482.256 1410.29 481.076 1409.18 480.74C1408.79 480.624 1399.46 477.92 1391.26 485.512C1390.44 486.268 1390.43 487.608 1391.22 488.504C1391.61 488.932 1392.11 489.184 1392.62 489.24Z" fill="#263238"/>
<path d="M1457.58 487.104C1458.09 487.228 1458.63 487.164 1459.09 486.876C1460.03 486.288 1460.28 484.988 1459.64 483.976C1453.22 473.828 1443.68 473.212 1443.27 473.192C1442.13 473.132 1441.22 474.028 1441.24 475.2C1441.26 476.368 1442.2 477.364 1443.34 477.428C1443.72 477.448 1451.12 478.036 1456.22 486.104C1456.54 486.632 1457.05 486.976 1457.58 487.104Z" fill="#263238"/>
<path d="M1364.31 517.976C1364.31 517.976 1377.54 497.98 1372.08 459.044C1371.17 452.516 1375.3 446.336 1381.77 445.08C1400.27 441.488 1425 418.156 1455.16 464.496C1455.16 464.496 1440.78 408.992 1356.54 431.352C1281.57 451.252 1332.9 514.792 1340.63 521.324C1348.36 527.86 1364.31 517.976 1364.31 517.976Z" fill="#263238"/>
<path d="M1333.07 526.02C1338.14 534.812 1346.36 540.332 1353.91 542.224C1365.26 545.068 1371.12 526.824 1367.24 515.456C1363.75 505.224 1352.6 498.448 1341.56 500.68C1330.68 502.88 1327.28 515.968 1333.07 526.02Z" fill="#EEC1BB"/>
<path d="M1433.06 545.872C1429.57 551.244 1425.38 561.652 1425.38 561.652C1424.36 561.44 1423.35 561.232 1422.36 560.968C1408.71 557.772 1403.43 551.784 1401.72 546.108C1400.8 543 1400.98 539.96 1401.44 537.556C1401.95 534.768 1402.95 532.896 1402.95 532.896C1409.17 538.912 1421.67 542.868 1428.43 544.704C1431.25 545.508 1433.06 545.872 1433.06 545.872Z" fill="#263238"/>
<path d="M1428.42 544.712L1426.04 549.308C1413.19 546.268 1404.56 542.404 1401.44 537.564C1401.95 534.776 1402.94 532.904 1402.94 532.904C1409.17 538.916 1421.66 542.876 1428.42 544.712Z" fill="white"/>
<path d="M1422.35 560.972C1408.7 557.776 1403.43 551.788 1401.72 546.112C1406.32 547.38 1411.74 549.42 1416.17 552.664C1419.56 555.128 1421.36 558.128 1422.35 560.972Z" fill="#DC5753"/>
<path d="M1432.34 502.82C1432.34 502.82 1439.05 518.868 1446.62 528.872C1447.94 530.62 1447.12 533.172 1445.06 533.928C1439.77 535.876 1433.58 534.112 1433.58 534.112L1432.34 502.82Z" fill="#D4827D"/>
<path d="M1403.28 497.344L1413.12 495.02C1413.12 495.02 1407.74 502.356 1403.28 497.344Z" fill="#263238"/>
<path d="M1447.54 497.16L1457.38 494.836C1457.38 494.836 1452 502.172 1447.54 497.16Z" fill="#263238"/>
<path d="M1462.67 482.628C1462.67 482.628 1488.63 451.912 1471.31 426.596C1464.8 417.08 1452.84 415.664 1442.3 411.016C1417.96 400.292 1398.23 398.124 1367.16 428.572C1334.84 460.248 1329 470.916 1364.65 509.94C1364.65 509.94 1360.8 504.836 1373.98 493.228C1387.16 481.616 1401.7 471.288 1394.64 460.028C1394.64 460.028 1405.6 464.256 1406.38 474.68L1425.66 469.416C1425.66 469.416 1424.82 461.964 1419.72 454.512C1419.72 454.512 1429.71 460.396 1432.95 469.024L1449.62 472.164C1449.62 472.164 1447.18 456.868 1442.47 451.376C1442.46 451.368 1457.74 467.072 1462.67 482.628Z" fill="#263238"/>
<path opacity="0.2" d="M1358.54 524.76C1358.19 520.716 1356.31 516.82 1353.37 514.024C1350.42 511.228 1346.44 509.548 1342.38 509.4" stroke="black" stroke-width="0.5" stroke-miterlimit="10" stroke-linecap="round" stroke-linejoin="round"/>
<path d="M1562.36 880.5C1559.95 878.64 1557.66 876.584 1555.52 874.348C1553.7 872.44 1552.43 869.98 1552.87 869.98C1552.77 869.708 1552.66 869.44 1552.54 869.18L1551.76 867.396L1549.89 862.596C1548.62 859.152 1547.4 855.396 1546.19 851.584C1543.65 844.016 1541.28 836.14 1538.96 828.204C1534.27 812.268 1529.8 796.148 1525.28 779.968L1516.98 746.044C1515.77 740.548 1513.91 732.54 1511.44 723.404L1511.43 723.376C1504.68 698.46 1493.4 665.224 1478.64 652.008C1455.74 634.488 1441.13 656.1 1431.7 678.572C1422.66 700.14 1444.99 759.076 1444.99 759.076L1472.19 757.108C1475.63 769.648 1479.24 782.124 1482.79 794.856C1487.43 811.468 1492.94 827.772 1498.46 844.076C1501.28 852.26 1504.2 860.444 1507.4 868.688C1509.28 872.872 1510.99 876.992 1512.92 881.364C1513.86 883.516 1514.91 885.796 1516.07 888.072L1518.11 891.888C1518.96 893.48 1519.92 895.004 1520.98 896.44C1525.01 901.628 1529.97 905.82 1535.54 908.744C1539.84 911.148 1544.35 913.028 1549.01 914.344C1557.49 916.796 1566.24 917.856 1575 917.484L1579.91 893.736C1574.06 889.36 1567.6 884.808 1562.36 880.5Z" fill="#263238"/>
<path opacity="0.5" d="M1562.36 880.5C1559.95 878.64 1557.66 876.584 1555.52 874.348C1553.7 872.44 1552.43 869.98 1552.87 869.98C1552.77 869.708 1552.66 869.44 1552.54 869.18L1551.76 867.396L1549.89 862.596C1548.62 859.152 1547.4 855.396 1546.19 851.584C1543.65 844.016 1541.28 836.14 1538.96 828.204C1534.27 812.268 1529.8 796.148 1525.28 779.968L1516.98 746.044C1515.77 740.548 1513.91 732.54 1511.44 723.404L1511.43 723.376C1504.68 698.46 1493.4 665.224 1478.64 652.008C1455.74 634.488 1441.13 656.1 1431.7 678.572C1422.66 700.14 1444.99 759.076 1444.99 759.076L1472.19 757.108C1475.63 769.648 1479.24 782.124 1482.79 794.856C1487.43 811.468 1492.94 827.772 1498.46 844.076C1501.28 852.26 1504.2 860.444 1507.4 868.688C1509.28 872.872 1510.99 876.992 1512.92 881.364C1513.86 883.516 1514.91 885.796 1516.07 888.072L1518.11 891.888C1518.96 893.48 1519.92 895.004 1520.98 896.44C1525.01 901.628 1529.97 905.82 1535.54 908.744C1539.84 911.148 1544.35 913.028 1549.01 914.344C1557.49 916.796 1566.24 917.856 1575 917.484L1579.91 893.736C1574.06 889.36 1567.6 884.808 1562.36 880.5Z" fill="white"/>
<g opacity="0.3">
<path d="M1483.67 690.288C1488.27 698.136 1489.84 702.608 1492.72 711.652C1495.6 720.696 1498.86 769.54 1482.38 783.98V750.116C1482.98 729.364 1483.07 711.036 1483.67 690.288Z" fill="black"/>
</g>
<path d="M1280.83 752.064L1255.29 664.992C1271.45 640.884 1351.38 622.356 1351.38 622.356L1392.34 636.732L1404.04 625.236C1404.04 625.236 1424.28 629.752 1441.6 635.404C1464.74 642.948 1477.25 649.016 1482.76 661.852C1482.76 661.852 1492.41 690.292 1486.61 748.896C1485.01 765.012 1486.82 848.792 1491.32 876.472L1518.58 962.744C1422.36 1037.68 1287.68 967.704 1287.68 967.704C1292 954.472 1306.41 913.848 1308.37 900.916C1306.96 884.42 1308.92 858.98 1301.93 830.096C1300.58 824.512 1283.17 757.48 1280.83 752.064Z" fill="#263238"/>
<path opacity="0.5" d="M1280.83 752.064L1255.29 664.992C1271.45 640.884 1351.38 622.356 1351.38 622.356L1392.34 636.732L1404.04 625.236C1404.04 625.236 1424.28 629.752 1441.6 635.404C1464.74 642.948 1477.25 649.016 1482.76 661.852C1482.76 661.852 1492.41 690.292 1486.61 748.896C1485.01 765.012 1486.82 848.792 1491.32 876.472L1518.58 962.744C1422.36 1037.68 1287.68 967.704 1287.68 967.704C1292 954.472 1306.41 913.848 1308.37 900.916C1306.96 884.42 1308.92 858.98 1301.93 830.096C1300.58 824.512 1283.17 757.48 1280.83 752.064Z" fill="white"/>
<path d="M1573.14 845.836C1576.14 809.6 1604.08 780.404 1640.14 775.816L1632.76 788.12L1646.85 779.752L1582.24 860.784L1573.14 845.836Z" fill="#0E53BE"/>
<path opacity="0.8" d="M1573.14 845.836C1576.14 809.6 1604.08 780.404 1640.14 775.816L1632.76 788.12L1646.85 779.752L1582.24 860.784L1573.14 845.836Z" fill="white"/>
<path d="M1471.93 779.324L1494.14 778.648L1600.46 814.704L1503.56 962.74L1408.19 938.928C1402.75 937.424 1399.57 931.796 1401.07 926.36C1401.3 925.552 1401.62 924.772 1402.04 924.04L1440.55 854.392C1441.32 853.016 1441.32 851.34 1440.55 849.96L1435.32 840.668C1434.22 838.764 1434.22 836.42 1435.32 834.516L1461.16 786.096C1463.35 782.14 1467.42 779.584 1471.93 779.324Z" fill="#0E53BE"/>
<path d="M1600.46 814.704L1661 775.816L1561.45 923.728L1503.55 962.736L1600.46 814.704Z" fill="#0E53BE"/>
<path opacity="0.2" d="M1600.46 814.704L1661 775.816L1561.45 923.728L1503.55 962.736L1600.46 814.704Z" fill="black"/>
<path d="M1588.57 883.492C1588.57 883.492 1565.04 877.324 1559.87 881.36C1554.7 885.396 1561.78 889.228 1561.78 889.228C1561.78 889.228 1553.68 885.584 1551.26 889.468C1548.36 894.128 1555.8 898.108 1555.8 898.108C1555.8 898.108 1549.03 895.456 1547.07 899.036C1545.04 902.748 1553.04 907.956 1553.04 907.956C1553.04 907.956 1547.82 907.152 1547.62 910.284C1547.42 913.416 1564.17 924.872 1571.58 924.096C1578.98 923.32 1595 896.416 1597.51 889.932C1600.01 883.444 1599.76 878.392 1595 873.88L1588.57 883.492Z" fill="#EEC1BB"/>
<path opacity="0.2" d="M1561.54 889.68C1561.55 889.688 1561.56 889.692 1561.57 889.696L1576.07 895.244C1576.27 895.316 1576.52 895.168 1576.64 894.912C1576.75 894.652 1576.68 894.376 1576.5 894.308L1561.99 888.76C1561.8 888.688 1561.54 888.836 1561.43 889.092C1561.32 889.336 1561.37 889.592 1561.54 889.68Z" fill="black"/>
<path opacity="0.2" d="M1555.94 898.772L1555.95 898.776L1569.32 905.412C1569.5 905.504 1569.76 905.376 1569.89 905.124C1570.02 904.872 1569.98 904.648 1569.79 904.5L1556.42 897.864C1556.23 897.772 1555.98 897.9 1555.85 898.152C1555.72 898.4 1555.76 898.676 1555.94 898.772Z" fill="black"/>
<path opacity="0.2" d="M1553.25 908.652L1563.01 913.924C1563.19 914.024 1563.45 913.9 1563.58 913.652C1563.72 913.404 1563.68 913.12 1563.5 913.02L1553.74 907.748C1553.55 907.648 1553.3 907.772 1553.16 908.02C1553.02 908.272 1553.06 908.556 1553.25 908.652Z" fill="black"/>
<path d="M1419.13 628.92L1401.38 611.724L1392.34 636.732L1352.89 605.292L1332.89 627.232L1382.43 661.756L1392.34 639.832L1419.13 659.932V628.92Z" fill="#263238"/>
<path opacity="0.3" d="M1419.13 628.92C1420.39 630.856 1419.13 659.932 1419.13 659.932L1392.34 639.832L1382.43 661.756L1334.82 628.92L1383.55 671.38L1392.34 645.6L1422.22 671.38L1419.13 628.92Z" fill="black"/>
<path opacity="0.3" d="M1444.48 763.776L1308.02 895.264V869.28C1308.02 869.28 1430.86 756.752 1432.34 756.592C1433.83 756.428 1444.48 763.776 1444.48 763.776Z" fill="black"/>
<path opacity="0.3" d="M1316.31 774.18L1301.53 713.216L1298.6 783.98L1316.31 774.18Z" fill="black"/>
<path d="M1340.8 541.104C1340.8 545.632 1344.47 549.304 1349 549.304C1353.53 549.304 1357.2 545.632 1357.2 541.104C1357.2 536.576 1353.53 532.904 1349 532.904C1344.47 532.9 1340.8 536.572 1340.8 541.104Z" fill="#0E53BE"/>
<path d="M1255.29 664.988C1255.29 664.988 1236.84 682.952 1230.63 744.236C1226.17 788.224 1214.9 883.08 1249.08 895.26C1283.27 907.44 1432.34 764.912 1432.34 764.912L1408.14 723.368L1298.6 783.972C1298.6 783.972 1309.77 683.5 1290.46 674.32C1271.16 665.14 1255.29 664.988 1255.29 664.988Z" fill="#263238"/>
<path opacity="0.5" d="M1255.29 664.988C1255.29 664.988 1236.84 682.952 1230.63 744.236C1226.17 788.224 1214.9 883.08 1249.08 895.26C1283.27 907.44 1432.34 764.912 1432.34 764.912L1408.14 723.368L1298.6 783.972C1298.6 783.972 1309.77 683.5 1290.46 674.32C1271.16 665.14 1255.29 664.988 1255.29 664.988Z" fill="white"/>
<path d="M1417.5 720.292C1417.5 720.292 1431.88 691.492 1438.71 690.224C1445.54 688.956 1451.04 691.232 1451.04 691.232C1451.04 691.232 1497.51 663.852 1500.61 671.056C1502.28 674.956 1491.96 683.548 1469.8 696.188C1469.8 696.188 1482.56 700.884 1477.42 708.36C1477.42 708.36 1486.81 712.668 1481.8 722C1481.8 722 1486.11 730.244 1480.69 735.508C1475.27 740.772 1449.74 755.304 1434.95 757.472C1420.16 759.64 1411.54 730.904 1411.54 730.904L1417.5 720.292Z" fill="#EEC1BB"/>
<path d="M1574.51 1543.16C1587.05 1549.07 1594.78 1562.88 1607.77 1567.72C1615.06 1570.44 1623.1 1569.8 1630.47 1567.07V1381.76H1453.1C1452.88 1377.74 1453.34 1373.72 1454.76 1369.91C1459.6 1356.92 1473.41 1349.19 1479.32 1336.65C1488.03 1318.14 1475.75 1295.09 1457.74 1285.39C1443.78 1277.87 1436.46 1276.46 1424.39 1277.15C1412.32 1276.46 1405.01 1277.87 1391.04 1285.39C1373.03 1295.09 1360.75 1318.14 1369.47 1336.65C1375.37 1349.19 1389.18 1356.92 1394.02 1369.91C1395.44 1373.72 1395.9 1377.74 1395.68 1381.76H1218.32V1793.91H1630.47V1629.1C1623.1 1626.38 1615.07 1625.74 1607.77 1628.46C1594.78 1633.3 1587 1647 1574.51 1653.01C1557.85 1661.02 1533.03 1649.41 1523.25 1631.44C1515.67 1617.5 1514.32 1610.15 1515.01 1598.08C1514.32 1586.02 1515.73 1578.7 1523.25 1564.73C1532.95 1546.73 1556 1534.45 1574.51 1543.16Z" fill="#B0B0B0"/>
<path opacity="0.4" d="M1574.51 1543.16C1587.05 1549.07 1594.78 1562.88 1607.77 1567.72C1615.06 1570.44 1623.1 1569.8 1630.47 1567.07V1381.76H1453.1C1452.88 1377.74 1453.34 1373.72 1454.76 1369.91C1459.6 1356.92 1473.41 1349.19 1479.32 1336.65C1488.03 1318.14 1475.75 1295.09 1457.74 1285.39C1443.78 1277.87 1436.46 1276.46 1424.39 1277.15C1412.32 1276.46 1405.01 1277.87 1391.04 1285.39C1373.03 1295.09 1360.75 1318.14 1369.47 1336.65C1375.37 1349.19 1389.18 1356.92 1394.02 1369.91C1395.44 1373.72 1395.9 1377.74 1395.68 1381.76H1218.32V1793.91H1630.47V1629.1C1623.1 1626.38 1615.07 1625.74 1607.77 1628.46C1594.78 1633.3 1587 1647 1574.51 1653.01C1557.85 1661.02 1533.03 1649.41 1523.25 1631.44C1515.67 1617.5 1514.32 1610.15 1515.01 1598.08C1514.32 1586.02 1515.73 1578.7 1523.25 1564.73C1532.95 1546.73 1556 1534.45 1574.51 1543.16Z" fill="black"/>
<path d="M1594.72 1543.16C1607.26 1549.07 1614.99 1562.88 1627.98 1567.72C1635.27 1570.44 1643.3 1569.8 1650.68 1567.07V1381.76H1473.31C1473.09 1377.74 1473.55 1373.72 1474.97 1369.91C1479.81 1356.92 1493.62 1349.19 1499.52 1336.65C1508.24 1318.14 1495.96 1295.09 1477.95 1285.39C1463.98 1277.87 1456.67 1276.46 1444.6 1277.15C1432.53 1276.46 1425.22 1277.87 1411.25 1285.39C1393.24 1295.09 1380.96 1318.14 1389.68 1336.65C1395.58 1349.19 1409.39 1356.92 1414.23 1369.91C1415.65 1373.72 1416.11 1377.74 1415.89 1381.76H1238.53V1793.91H1650.68V1629.1C1643.31 1626.38 1635.27 1625.74 1627.98 1628.46C1614.99 1633.3 1607.2 1647 1594.72 1653.01C1578.06 1661.02 1553.24 1649.41 1543.46 1631.44C1535.88 1617.5 1534.52 1610.15 1535.22 1598.08C1534.52 1586.02 1535.94 1578.7 1543.46 1564.73C1553.16 1546.73 1576.21 1534.45 1594.72 1543.16Z" fill="#B0B0B0"/>
<path opacity="0.4" d="M1582.24 1655.88C1582.24 1655.88 1596.51 1681.45 1621.02 1679.32C1645.54 1677.19 1650.67 1666.53 1650.67 1666.53L1650.33 1631.36L1595.64 1652.3C1591.87 1655.4 1587.36 1656.46 1582.24 1655.88Z" fill="black"/>
<path d="M2089.77 1438.32L2230.65 1384.19L2311.97 1305.35C2314.22 1302.74 2337.81 1262.07 2337.81 1262.07L2377.72 1347.57C2377.72 1347.57 2278.48 1447.3 2242.13 1458.91C2212.75 1468.29 2108.74 1493.78 2108.74 1493.78L2089.77 1438.32Z" fill="#0E53BE"/>
<path opacity="0.4" d="M2176.13 1476.87C2176.13 1476.87 2193.11 1410.29 2231.08 1396.44C2269.05 1382.59 2318.13 1404.31 2316.72 1405.24C2315.32 1406.18 2274.2 1444.46 2272.8 1444.93C2271.75 1445.28 2219.49 1463.7 2192.44 1472.64L2176.13 1476.87Z" fill="black"/>
<path d="M1920.36 1383.88C1920.14 1387.9 1920.6 1391.92 1922.02 1395.74C1926.86 1408.72 1940.67 1416.46 1946.57 1429C1955.28 1447.5 1943 1470.55 1925 1480.25C1911.03 1487.78 1903.72 1489.19 1891.65 1488.5C1879.58 1489.19 1872.26 1487.77 1858.3 1480.25C1840.29 1470.55 1828.01 1447.5 1836.72 1429C1842.63 1416.46 1856.44 1408.72 1861.28 1395.74C1862.7 1391.92 1863.16 1387.9 1862.94 1383.88H1679.23V1569.06C1671.77 1571.9 1663.6 1572.6 1656.19 1569.84C1643.2 1565 1635.47 1551.19 1622.93 1545.29C1604.43 1536.58 1581.38 1548.86 1571.68 1566.86C1564.15 1580.83 1562.74 1588.14 1563.43 1600.21C1562.74 1612.28 1564.16 1619.6 1571.68 1633.56C1581.38 1651.57 1604.43 1663.85 1622.93 1655.14C1635.47 1649.23 1643.2 1635.42 1656.19 1630.58C1663.6 1627.82 1671.77 1628.53 1679.23 1631.36V1796.04L2089.96 1797.87V1385.72L1920.36 1383.88Z" fill="#263238"/>
<g opacity="0.4">
<path d="M1920.36 1383.88C1920.14 1387.9 1920.6 1391.92 1922.02 1395.74C1926.86 1408.72 1940.67 1416.46 1946.57 1429C1955.28 1447.5 1943 1470.55 1925 1480.25C1911.03 1487.78 1903.72 1489.19 1891.65 1488.5C1879.58 1489.19 1872.26 1487.77 1858.3 1480.25C1840.29 1470.55 1828.01 1447.5 1836.72 1429C1842.63 1416.46 1856.44 1408.72 1861.28 1395.74C1862.7 1391.92 1863.16 1387.9 1862.94 1383.88H1679.23V1569.06C1671.77 1571.9 1663.6 1572.6 1656.19 1569.84C1643.2 1565 1635.47 1551.19 1622.93 1545.29C1604.43 1536.58 1581.38 1548.86 1571.68 1566.86C1564.15 1580.83 1562.74 1588.14 1563.43 1600.21C1562.74 1612.28 1564.16 1619.6 1571.68 1633.56C1581.38 1651.57 1604.43 1663.85 1622.93 1655.14C1635.47 1649.23 1643.2 1635.42 1656.19 1630.58C1663.6 1627.82 1671.77 1628.53 1679.23 1631.36V1796.04L2089.96 1797.87V1385.72L1920.36 1383.88Z" fill="black"/>
</g>
<path d="M1938.54 1383.88C1938.32 1387.9 1938.78 1391.92 1940.2 1395.74C1945.04 1408.72 1958.85 1416.46 1964.75 1429C1973.46 1447.5 1961.18 1470.55 1943.18 1480.25C1929.21 1487.78 1921.9 1489.19 1909.83 1488.5C1897.76 1489.19 1890.44 1487.77 1876.48 1480.25C1858.47 1470.55 1846.19 1447.5 1854.9 1429C1860.81 1416.46 1874.62 1408.72 1879.46 1395.74C1880.88 1391.92 1881.34 1387.9 1881.12 1383.88H1697.41V1569.06C1689.95 1571.9 1681.78 1572.6 1674.37 1569.84C1661.38 1565 1653.65 1551.19 1641.11 1545.29C1622.61 1536.58 1599.56 1548.86 1589.86 1566.86C1582.33 1580.83 1580.92 1588.14 1581.61 1600.21C1580.92 1612.28 1582.34 1619.6 1589.86 1633.56C1599.56 1651.57 1622.61 1663.85 1641.11 1655.14C1653.65 1649.23 1661.38 1635.42 1674.37 1630.58C1681.78 1627.82 1689.95 1628.53 1697.41 1631.36V1796.04L2108.14 1797.87V1385.72L1938.54 1383.88Z" fill="#263238"/>
<path d="M2227.84 1661.71L2292.44 1657.8C2282.11 1714.72 2271.48 1751.64 2276 1780.86L2249.96 1798.26L2225.85 1774.55C2225.85 1774.55 2221.4 1728.03 2227.84 1661.71Z" fill="#E9B376"/>
<path d="M2221.97 1734.62L2245.45 1734.89C2256.8 1754.56 2264.66 1749.93 2276.7 1736.05C2283.52 1735.34 2285.26 1743.17 2285.79 1745.28L2298 1791.85C2299.07 1795.74 2296.78 1799.75 2292.89 1800.82C2292.2 1801 2291.48 1801.09 2290.76 1801.07C2270.03 1800.83 2260.22 1800.71 2234.42 1800.41L2155.52 1799.48C2134 1799.23 2129.8 1777.5 2138.68 1775.6C2178.63 1767.26 2206.98 1755.87 2219.44 1744.42C2221.74 1742.42 2219.42 1740.87 2221.97 1734.62Z" fill="#0E53BE"/>
<path d="M2209.97 1747.65C2215.84 1748.52 2221.25 1752.1 2224.36 1757.16" stroke="#263238" stroke-width="0.5" stroke-miterlimit="10" stroke-linecap="round" stroke-linejoin="round"/>
<path d="M2199.26 1755.51C2205.14 1756.38 2210.55 1759.96 2213.65 1765.02" stroke="#263238" stroke-width="0.5" stroke-miterlimit="10" stroke-linecap="round" stroke-linejoin="round"/>
<path d="M2185.98 1762.07C2191.86 1762.94 2197.27 1766.52 2200.37 1771.58" stroke="#263238" stroke-width="0.5" stroke-miterlimit="10" stroke-linecap="round" stroke-linejoin="round"/>
<path opacity="0.7" d="M2292.89 1800.82C2292.2 1801 2291.48 1801.09 2290.76 1801.07C2270.04 1800.83 2260.22 1800.71 2234.42 1800.41L2155.52 1799.48C2143.88 1799.35 2137.34 1792.92 2135.17 1786.75C2138.45 1786.82 2295.24 1789.87 2297.31 1789.2L2298.14 1792.67C2298.7 1796.29 2296.5 1799.83 2292.89 1800.82Z" fill="white"/>
<path d="M2475.24 1490.38C2475.24 1490.38 2298.81 1399.26 2264.46 1396.67C2230.11 1394.07 2197.28 1412.68 2190.71 1483.81C2184.14 1554.94 2197.28 1737.88 2197.28 1737.88L2292.45 1739.51L2304.24 1527.58C2304.24 1527.58 2451.64 1635.24 2456.02 1634.15C2460.39 1633.06 2517.93 1630.45 2517.93 1630.45L2475.24 1490.38Z" fill="#263238"/>
<path opacity="0.3" d="M2475.24 1490.38C2475.24 1490.38 2298.81 1399.26 2264.46 1396.67C2230.11 1394.07 2197.28 1412.68 2190.71 1483.81C2184.14 1554.94 2197.28 1737.88 2197.28 1737.88L2292.45 1739.51L2304.24 1527.58C2304.24 1527.58 2451.64 1635.24 2456.02 1634.15C2460.39 1633.06 2517.93 1630.45 2517.93 1630.45L2475.24 1490.38Z" fill="white"/>
<path opacity="0.4" d="M2298.83 1626.69C2298.83 1626.69 2221.08 1653.92 2220.25 1718.05C2219.42 1782.17 2288 1769.97 2288 1769.97L2298.83 1626.69Z" fill="black"/>
<path d="M2542.78 1793.76L2525.28 1730.17C2586.42 1723.55 2627.27 1738.61 2655.7 1725.19L2681.29 1746.5L2664.38 1778.22C2664.38 1778.22 2619.32 1793.53 2542.78 1793.76Z" fill="#E9B376"/>
<path d="M2624.84 1794.21L2618.04 1770.2C2634.68 1752.69 2627.58 1746.07 2609.81 1737.98C2607.03 1731.24 2614.49 1727.11 2616.48 1725.94L2660.27 1699.44C2663.92 1697.19 2668.7 1698.31 2670.96 1701.96C2671.36 1702.61 2671.66 1703.31 2671.86 1704.05C2677.86 1725.26 2680.7 1735.29 2688.16 1761.69L2711 1842.42C2717.22 1864.42 2696.34 1875.26 2691.72 1866.77C2671.18 1828.56 2651.02 1803.08 2635.6 1793.84C2632.86 1792.1 2631.99 1794.93 2624.84 1794.21Z" fill="#0E53BE"/>
<path d="M2641.75 1802.52C2640.87 1796.28 2642.88 1789.68 2647.1 1784.99" stroke="#263238" stroke-width="0.5" stroke-miterlimit="10" stroke-linecap="round" stroke-linejoin="round"/>
<path d="M2652.99 1811.07C2652.11 1804.82 2654.12 1798.22 2658.34 1793.53" stroke="#263238" stroke-width="0.5" stroke-miterlimit="10" stroke-linecap="round" stroke-linejoin="round"/>
<path d="M2663.68 1822.63C2662.8 1816.38 2664.81 1809.78 2669.03 1805.09" stroke="#263238" stroke-width="0.5" stroke-miterlimit="10" stroke-linecap="round" stroke-linejoin="round"/>
<path opacity="0.7" d="M2670.96 1701.96C2671.36 1702.61 2671.66 1703.31 2671.86 1704.05C2677.86 1725.26 2680.7 1735.29 2688.17 1761.69L2711 1842.42C2714.37 1854.32 2709.79 1862.92 2704.16 1867C2703.24 1863.64 2659.09 1702.86 2657.78 1700.95L2661.07 1699.06C2664.59 1697.4 2668.86 1698.57 2670.96 1701.96Z" fill="white"/>
<path d="M2668.6 1525.11L2676.26 1563.56C2676.26 1563.56 2695.9 1639.84 2668.38 1678.16C2642.08 1714.76 2603.28 1721.29 2603.28 1721.29L2611.26 1794.85L2603.28 1799.82C2603.28 1799.82 2552.53 1799.82 2448.64 1795.08C2349.96 1790.57 2265.12 1785.86 2247.62 1755.21C2230.1 1724.57 2226.06 1709.69 2254.7 1673.14C2280.57 1640.1 2477.6 1591.44 2484.46 1589.47L2481.7 1572.68L2478.51 1560.79L2668.6 1525.11Z" fill="#263238"/>
<path opacity="0.3" d="M2668.6 1525.11L2676.26 1563.56C2676.26 1563.56 2695.9 1639.84 2668.38 1678.16C2642.08 1714.76 2603.28 1721.29 2603.28 1721.29L2611.26 1794.85L2603.28 1799.82C2603.28 1799.82 2552.53 1799.82 2448.64 1795.08C2349.96 1790.57 2265.12 1785.86 2247.62 1755.21C2230.1 1724.57 2226.06 1709.69 2254.7 1673.14C2280.57 1640.1 2477.6 1591.44 2484.46 1589.47L2481.7 1572.68L2478.51 1560.79L2668.6 1525.11Z" fill="white"/>
<path opacity="0.4" d="M2603.28 1721.29C2597.23 1722.87 2383.2 1715.96 2383.2 1715.96C2383.2 1715.96 2446.46 1726.81 2493.24 1730.76C2540.02 1734.7 2603.28 1721.29 2603.28 1721.29Z" fill="black"/>
<path opacity="0.4" d="M2484.46 1589.47L2607.7 1567.98C2607.7 1567.98 2518.86 1566.53 2484.46 1589.47Z" fill="black"/>
<path d="M2170.27 1502.2C2170.27 1502.2 2159.99 1486.38 2144.69 1483.31C2129.39 1480.25 2117.98 1473.73 2106.45 1472.24C2094.92 1470.75 2105.38 1482.45 2112.21 1487.54C2119.03 1492.64 2126.72 1498.49 2122.06 1503C2117.4 1507.5 2063.36 1521.21 2057.62 1528.2C2051.87 1535.18 2061.31 1535.7 2061.31 1535.7C2061.31 1535.7 2048.27 1539.38 2048.32 1544.94C2048.34 1546.38 2050.71 1549.72 2056.92 1548.98C2070.87 1547.3 2099.98 1542.26 2099.98 1542.26C2098.3 1542.52 2062.82 1551.3 2057.68 1553.3C2050.96 1555.93 2049.12 1560.6 2050.78 1564.44C2053.12 1569.92 2097.49 1560.53 2099.63 1561.44C2099.63 1561.44 2073.91 1566 2071.45 1573.28C2068.99 1580.56 2085.34 1578.58 2099.42 1574.09C2112.33 1569.98 2138.74 1565.3 2151.45 1559.84C2167.12 1553.12 2176.14 1545.09 2176.48 1529.11C2176.82 1513.12 2170.27 1502.2 2170.27 1502.2Z" fill="#E9B376"/>
<path d="M2153.36 1501.86L2192.83 1486.08L2206.46 1528.76L2160.18 1545.27L2153.36 1501.86Z" fill="#E9B376"/>
<path d="M2439.63 1206.61C2439.63 1206.61 2428.92 1182.41 2431.19 1134.49C2431.18 1134.44 2428.56 1133.96 2428.55 1133.91C2428.84 1127.22 2429.36 1120.97 2429.96 1115.52C2429.97 1115.36 2429.95 1115.32 2429.95 1115.32L2377.72 1167.86C2382.59 1181.84 2384.07 1210.76 2383.8 1223.19C2383.8 1223.19 2381.13 1246.22 2409.52 1240.41C2430.26 1236.16 2439.63 1206.61 2439.63 1206.61Z" fill="#E9B376"/>
<path opacity="0.2" d="M2381.49 1188.26L2414.86 1171.86C2414.29 1183.6 2407.69 1198.93 2383.4 1205.86C2383.4 1205.86 2382.9 1193 2381.49 1188.26Z" fill="black"/>
<path d="M2423.3 1085.42C2428.47 1125.27 2432.18 1147.64 2416.11 1171.51C2391.94 1207.41 2341 1198.97 2323.98 1161.36C2308.67 1127.5 2302.8 1068.03 2338.48 1045.29C2373.63 1022.88 2418.14 1045.58 2423.3 1085.42Z" fill="#E9B376"/>
<path d="M2407.96 1029.37C2389.51 1007.77 2355.16 1026.68 2342.1 1040.7C2340.15 1042.79 2375.48 1052.77 2373.39 1052.44L2384.55 1061.69C2385.99 1061.06 2388.96 1074.76 2391.48 1086.62C2393.8 1097.52 2399 1107.55 2406.6 1115.7C2412.96 1122.52 2421.49 1130.7 2431.06 1137.34C2443.52 1127.98 2439.72 1103.9 2441.31 1088.81C2443.69 1066.34 2443.16 1024.26 2407.96 1029.37Z" fill="#263238"/>
<path d="M2445.18 1115.26C2443.98 1126 2437.9 1135.16 2430.84 1140.54C2420.21 1148.64 2413.35 1136.64 2412.08 1124.01C2410.93 1112.65 2411.57 1098.42 2424.27 1095.28C2436.79 1092.18 2446.54 1102.97 2445.18 1115.26Z" fill="#E9B376"/>
<path d="M2369.12 1107.65C2369.9 1111.68 2368.38 1115.34 2365.74 1115.82C2363.1 1116.3 2360.33 1113.42 2359.55 1109.39C2358.78 1105.36 2360.29 1101.7 2362.93 1101.22C2365.57 1100.74 2368.34 1103.62 2369.12 1107.65Z" fill="#263238"/>
<path d="M2329.75 1116.04C2330.52 1120.08 2329.01 1123.73 2326.37 1124.21C2323.72 1124.69 2320.95 1121.82 2320.18 1117.79C2319.4 1113.76 2320.91 1110.1 2323.56 1109.62C2326.2 1109.14 2328.97 1112.01 2329.75 1116.04Z" fill="#263238"/>
<path d="M2342.18 1111.33C2342.18 1111.33 2333.27 1133.81 2330.76 1142.75C2337.34 1146.74 2346.55 1142.54 2346.55 1142.54L2342.18 1111.33Z" fill="#D58745"/>
<path d="M2375.32 1086.76C2374.76 1087.12 2374.02 1087.18 2373.37 1086.86C2365.71 1082.94 2359.51 1086.35 2359.44 1086.38C2358.52 1086.9 2357.34 1086.58 2356.81 1085.67C2356.28 1084.75 2356.61 1083.58 2357.52 1083.06C2357.85 1082.88 2365.62 1078.61 2375.12 1083.47C2376.07 1083.95 2376.45 1085.1 2375.96 1086.04C2375.81 1086.34 2375.58 1086.58 2375.32 1086.76Z" fill="#263238"/>
<path d="M2362.23 1152.84C2368.78 1151.64 2373.22 1147.4 2377.35 1141.56" stroke="#263238" stroke-width="0.75" stroke-miterlimit="10" stroke-linecap="round" stroke-linejoin="round"/>
<path opacity="0.2" d="M2434.08 1106.1C2432.04 1104.05 2428.64 1103.81 2426.02 1105.02C2423.4 1106.23 2421.49 1108.64 2420.25 1111.24C2418.76 1114.38 2418.1 1117.9 2418.38 1121.36" stroke="black" stroke-width="0.5" stroke-miterlimit="10" stroke-linecap="round" stroke-linejoin="round"/>
<path d="M2309.03 1102.39C2308.67 1102.38 2308.3 1102.27 2307.98 1102.04C2307.1 1101.44 2306.88 1100.24 2307.48 1099.37C2313.48 1090.64 2322.31 1090.9 2322.7 1090.85C2323.76 1090.89 2324.6 1091.78 2324.58 1092.84C2324.56 1093.89 2323.68 1094.72 2322.63 1094.7C2322.26 1094.67 2315.46 1094.56 2310.64 1101.57C2310.27 1102.12 2309.66 1102.41 2309.03 1102.39Z" fill="#263238"/>
<path d="M2407.96 1029.37C2407.96 1029.37 2383.42 999.056 2341 1009.06C2306.87 1017.1 2289.07 1042.07 2288.4 1065.95C2288.12 1076.22 2290.4 1083.85 2293.09 1089.22C2295.12 1093.28 2300.96 1092.67 2302.26 1088.32C2302.63 1087.09 2303.08 1085.88 2303.6 1084.69C2303.73 1084.96 2303.88 1085.22 2304.04 1085.48C2306.52 1089.65 2313.14 1088.12 2313.24 1083.26C2313.27 1081.73 2313.44 1080.2 2313.76 1078.69C2313.78 1078.72 2313.8 1078.76 2313.83 1078.8C2316.1 1082.45 2321.8 1081.34 2322.71 1077.14C2326.72 1058.57 2349.35 1044.62 2369.8 1052.92L2384.55 1061.68C2401.46 1051.81 2407.96 1029.37 2407.96 1029.37Z" fill="#263238"/>
<path opacity="0.4" d="M2471.63 1561.91L2469.3 1577.52L2400.49 1598.24L2416.35 1608.4L2484.46 1589.47L2487.26 1559.15L2471.63 1561.91Z" fill="black"/>
<path d="M2523.05 1211.51C2492.15 1191.7 2437.69 1201.12 2437.69 1201.12L2337.81 1262.07L2406.11 1422.62C2406.11 1422.62 2434.61 1490.9 2449.99 1536.37C2453.8 1547.64 2461.08 1563.35 2472.88 1561.81L2662.6 1527.51C2671.87 1525.84 2677.72 1516.59 2675.21 1507.51C2656.9 1441.35 2550.72 1229.26 2523.05 1211.51Z" fill="#0E53BE"/>
<path opacity="0.4" d="M2540.88 1300.81C2540.88 1300.81 2510.48 1358.04 2457.1 1407.94C2435.54 1428.09 2420.57 1457.15 2420.57 1457.15L2407.19 1422.96L2540.88 1300.81Z" fill="black"/>
<path d="M2446.83 1256.7L2317.5 1417.98L2165.66 1486.91L2180.8 1549.76C2180.8 1549.76 2303.91 1516.54 2353.39 1485.71C2402.87 1454.87 2484.45 1368.64 2484.45 1368.64C2484.45 1368.64 2555.6 1311.55 2552.2 1265.36C2548.81 1219.16 2481.09 1208.37 2446.83 1256.7Z" fill="#0E53BE"/>
<path d="M2376.62 1238.38C2376.62 1238.38 2381.43 1213.75 2383.76 1214.74C2386.08 1215.73 2409.2 1229.61 2409.2 1229.61L2435.06 1190.88L2450.58 1201.14L2414.86 1275.2L2376.62 1238.38Z" fill="#0E53BE"/>
<path opacity="0.4" d="M2365.27 1341.74L2335.44 1300.81L2359.54 1364.91L2371.27 1352.43L2453.62 1248.33L2365.27 1341.74Z" fill="black"/>
<path opacity="0.4" d="M2376.62 1238.38C2377.93 1238.85 2399.34 1253.29 2398.18 1253.52C2397 1253.76 2407.19 1236.25 2407.19 1236.25L2429.89 1244.89L2448.53 1199.78L2430.18 1251.74L2408.68 1241.34L2398.18 1260.38L2376.62 1238.38Z" fill="black"/>
<path d="M902.888 931.792C903.108 927.772 902.648 923.752 901.228 919.94C896.388 906.952 882.58 899.22 876.676 886.68C867.964 868.176 880.244 845.124 898.248 835.424C912.216 827.9 919.532 826.488 931.6 827.18C943.668 826.488 950.984 827.904 964.952 835.424C982.956 845.124 995.236 868.176 986.524 886.68C980.62 899.22 966.812 906.952 961.972 919.94C960.552 923.752 960.092 927.772 960.312 931.792H1144.02V746.616C1151.48 743.78 1159.64 743.076 1167.06 745.836C1180.04 750.676 1187.78 764.484 1200.32 770.388C1218.82 779.1 1241.87 766.82 1251.57 748.816C1259.1 734.848 1260.51 727.532 1259.82 715.464C1260.51 703.396 1259.1 696.08 1251.57 682.112C1241.87 664.104 1218.82 651.828 1200.32 660.54C1187.78 666.444 1180.04 680.252 1167.06 685.092C1159.65 687.852 1151.48 687.148 1144.02 684.312V519.64L733.292 517.804V929.952L902.888 931.792Z" fill="#263238"/>
<g opacity="0.4">
<path d="M902.888 931.792C903.108 927.772 902.648 923.752 901.228 919.94C896.388 906.952 882.58 899.22 876.676 886.68C867.964 868.176 880.244 845.124 898.248 835.424C912.216 827.9 919.532 826.488 931.6 827.18C943.668 826.488 950.984 827.904 964.952 835.424C982.956 845.124 995.236 868.176 986.524 886.68C980.62 899.22 966.812 906.952 961.972 919.94C960.552 923.752 960.092 927.772 960.312 931.792H1144.02V746.616C1151.48 743.78 1159.64 743.076 1167.06 745.836C1180.04 750.676 1187.78 764.484 1200.32 770.388C1218.82 779.1 1241.87 766.82 1251.57 748.816C1259.1 734.848 1260.51 727.532 1259.82 715.464C1260.51 703.396 1259.1 696.08 1251.57 682.112C1241.87 664.104 1218.82 651.828 1200.32 660.54C1187.78 666.444 1180.04 680.252 1167.06 685.092C1159.65 687.852 1151.48 687.148 1144.02 684.312V519.64L733.292 517.804V929.952L902.888 931.792Z" fill="black"/>
</g>
<path d="M915.34 931.792C915.56 927.772 915.1 923.752 913.68 919.94C908.84 906.952 895.032 899.22 889.128 886.68C880.416 868.176 892.696 845.124 910.7 835.424C924.668 827.9 931.984 826.488 944.052 827.18C956.12 826.488 963.436 827.904 977.404 835.424C995.412 845.124 1007.69 868.176 998.976 886.68C993.072 899.22 979.264 906.952 974.424 919.94C973.004 923.752 972.544 927.772 972.764 931.792H1156.47V746.616C1163.93 743.78 1172.1 743.076 1179.51 745.836C1192.5 750.676 1200.23 764.484 1212.77 770.388C1231.27 779.1 1254.32 766.82 1264.02 748.816C1271.55 734.848 1272.96 727.532 1272.27 715.464C1272.96 703.396 1271.54 696.08 1264.02 682.112C1254.32 664.104 1231.27 651.828 1212.77 660.54C1200.23 666.444 1192.5 680.252 1179.51 685.092C1172.1 687.852 1163.93 687.148 1156.47 684.312V519.64L745.744 517.804V929.952L915.34 931.792Z" fill="#263238"/>
<path d="M642.26 711.184C642.26 711.184 612.268 817.44 631.452 835.936C650.636 854.432 717.772 842.1 714.348 840.732C710.924 839.36 731.476 711.576 732.844 716.208C734.212 720.844 642.26 711.184 642.26 711.184Z" fill="#B97964"/>
<path d="M679.572 1670.59L679.48 1762.77L722.28 1766.1L737.324 1679.5C717.748 1665.36 698.484 1661.99 679.572 1670.59Z" fill="#B97964"/>
<path d="M679.096 1753.15C674.884 1765.32 674.608 1815.09 674.608 1815.09L765.332 1815.2C770.724 1797.2 762.38 1784.91 751.8 1783.28C747.252 1782.59 741.904 1777.53 738.004 1773.11C737.976 1772.54 732.428 1744.89 729 1743.57C729 1743.57 726.636 1740.69 724.624 1743.56C722.612 1746.43 720.864 1755.78 720.864 1755.78C706.708 1736.74 692.828 1739.28 679.096 1753.15Z" fill="#263238"/>
<path d="M677.996 1767.6C688.248 1763.51 699.248 1765.07 708.184 1771.87C709.748 1773.06 711.232 1770.28 709.68 1769.1C700.16 1761.85 688.124 1760.15 677.208 1764.51C675.432 1765.22 676.2 1768.32 677.996 1767.6Z" fill="white"/>
<path d="M765.064 1807.92C765.06 1807.92 765.06 1807.92 765.064 1807.92L675.672 1807.82C674.852 1807.82 674.192 1807.1 674.192 1806.21C674.192 1805.32 674.856 1804.6 675.676 1804.6L765.068 1804.71C765.888 1804.71 766.548 1805.43 766.548 1806.32C766.544 1807.2 765.88 1807.92 765.064 1807.92Z" fill="white"/>
<path d="M864.22 1658.57L864.116 1762.61L905.3 1766L925.56 1668.62C909.024 1655.32 889.824 1648.8 864.22 1658.57Z" fill="#B97964"/>
<path d="M862.252 1753.37C858.04 1765.53 857.764 1815.31 857.764 1815.31L961.992 1815.43C967.384 1797.43 956.12 1786.76 945.54 1785.13C940.992 1784.44 925.06 1777.74 921.16 1773.33C921.132 1772.76 915.588 1745.11 912.16 1743.78C912.16 1743.78 909.796 1740.91 907.784 1743.78C905.772 1746.65 904.024 1755.99 904.024 1755.99C889.864 1736.95 875.984 1739.5 862.252 1753.37Z" fill="#263238"/>
<path d="M861.152 1767.82C871.404 1763.73 882.404 1765.28 891.34 1772.08C892.904 1773.27 894.388 1770.49 892.836 1769.31C883.316 1762.06 871.28 1760.36 860.364 1764.72C858.588 1765.43 859.356 1768.54 861.152 1767.82Z" fill="white"/>
<path d="M962 1808.15L858.824 1808.03C858.004 1808.03 857.344 1807.31 857.344 1806.42C857.344 1805.54 858.008 1804.82 858.828 1804.82L962.004 1804.94C962.824 1804.94 963.484 1805.66 963.484 1806.55C963.484 1807.43 962.82 1808.15 962 1808.15Z" fill="white"/>
<path d="M661.824 1716.02L753.032 1720.88C773.496 1654.56 793.72 1416.78 795.812 1345.39C798.308 1260.09 828.852 1046.01 801.848 1001.46C774.844 956.916 652.692 992.396 652.692 992.396C652.692 992.396 667.912 1253.06 661.828 1336.2C656.552 1408.24 648.392 1620.04 661.824 1716.02Z" fill="#263238"/>
<path d="M762.876 1696.85L756.948 1727.32L658.108 1724.11L654.484 1694.85L762.876 1696.85Z" fill="#0E53BE"/>
<path d="M843.98 1716.02L934.4 1720.88C945.408 1647.46 989.632 1380.11 986 1328.9C981.564 1266.34 929.192 995.564 909.72 974.688C890.248 953.812 747.668 1007.93 747.668 1007.93C747.668 1007.93 806.264 1240.78 852.468 1341.48C862.064 1362.4 836.556 1626.73 843.98 1716.02Z" fill="#263238"/>
<path d="M944.74 1699.13L940.128 1727.32L839.64 1720.88L837.62 1691.36L944.74 1699.13Z" fill="#0E53BE"/>
<path opacity="0.3" d="M804.712 1213.21L778.16 1124.47L731.052 1109.09L767.88 1137.64L797.5 1299.4L804.712 1213.21Z" fill="black"/>
<path d="M855.52 427.22C855.52 431.048 857.2 433.936 859.616 434.34C862.036 434.744 864.252 431.52 864.452 427.624C864.652 423.728 862.84 420.908 860.42 420.504C858.004 420.1 855.988 423.524 855.52 427.22Z" fill="#263238"/>
<path d="M857.064 426.684C858.408 439.024 861.46 451.12 866.132 462.62C860.076 464.844 853.348 464.304 847.728 461.144L857.064 426.684Z" fill="#A24E3F"/>
<path d="M848.6 414.928C848.104 414.976 847.608 414.86 847.188 414.592C846.316 413.732 846.308 412.328 847.164 411.456C847.172 411.448 847.18 411.44 847.188 411.432C851.668 405.852 858.584 402.796 865.728 403.236C866.912 403.344 867.784 404.384 867.68 405.568C867.68 405.576 867.68 405.58 867.68 405.588C867.476 406.78 866.4 407.62 865.196 407.536C859.536 407.28 854.1 409.784 850.62 414.252C850.108 414.82 849.344 415.076 848.6 414.928Z" fill="#263238"/>
<path d="M857.132 478.064C856.632 480.108 856.008 482.124 855.276 484.096C851.168 495.368 843.692 505.16 833.824 512.184C831.344 513.972 828.724 515.568 825.984 516.948C804.492 528.252 777.98 524.104 761.112 506.808C739.404 485.26 739.968 460.368 737.496 418.236C736.844 409.18 738.344 400.104 741.88 391.72C754.316 362.296 788.66 348.352 818.588 360.58C818.596 360.584 818.604 360.588 818.612 360.588C860.484 377.424 866.26 440.088 857.132 478.064Z" fill="#B97964"/>
<path opacity="0.2" d="M833.672 512.184C831.192 513.972 828.572 515.568 825.832 516.948C811.292 524.572 794.02 525.316 778.856 518.976C780.796 513.912 783.376 509.108 786.54 504.68C802.656 502.692 819.016 505.3 833.672 512.184Z" fill="black"/>
<path d="M747.4 566.84C768.544 585.7 820.264 578.756 820.264 578.756C820.264 578.756 852.544 570.036 845.736 560.148C826.76 557.056 817.528 548.336 813.712 537.128C811.652 530.208 811.004 522.952 811.804 515.784C812.108 511.784 812.644 507.808 813.404 503.868L749.46 457.324C757.816 488.052 768.08 544.58 747.4 566.84Z" fill="#B97964"/>
<path d="M833.672 439.736L842.904 443.132L838.316 424.576C838.316 424.576 851.828 404.296 838.316 386.704C838.316 386.704 875.652 375.552 854.56 356.284C846.72 349.084 836.976 356.284 811.192 345.28C797.216 339.248 753.488 338.792 751.324 356.284C751.324 356.284 719.816 356.284 716.416 409.012C714.4 440.288 726.624 470.824 749.78 492.364C749.78 492.364 787.836 501.184 806.504 486.18C825.164 471.168 833.672 439.736 833.672 439.736Z" fill="#263238"/>
<path d="M809.332 442.724C810.96 450.752 816.192 457.628 823.564 461.432C832.28 465.084 838.052 453.016 836.764 440.34C835.576 429.084 829.648 413.264 820.312 415.396C810.984 417.528 806.288 431.368 809.332 442.724Z" fill="#B97964"/>
<path d="M682.38 556.704C682.38 556.704 667.524 561.22 660.132 563.928C644.724 569.572 634.556 586.724 628.98 603.564C615.356 644.712 593.34 742.132 593.34 742.132L673.232 758.924L715.852 667.14L682.38 556.704Z" fill="#0E53BE"/>
<path opacity="0.5" d="M682.38 556.704C682.38 556.704 661 560.684 649.744 569.98C641.18 577.056 634.356 587.32 628.98 603.564C615.356 644.712 593.34 742.132 593.34 742.132L673.232 758.924L715.852 667.14L682.38 556.704Z" fill="white"/>
<path d="M875.868 561.428C852.304 558.892 779.82 542.516 682.38 556.704L659.58 916.988C659.58 916.988 656.652 972.108 648.02 1019.41C747.044 1061.93 864.188 1049.77 930.428 1014.02C929.66 1015.53 927.492 976.212 924.096 918.624C918.108 817.144 908.312 658.916 895.672 567.308C895.324 565.048 878.216 561.68 875.868 561.428Z" fill="#0E53BE"/>
<g opacity="0.5">
<path d="M875.868 561.428C852.304 558.892 779.82 542.516 682.38 556.704L659.58 916.988C659.58 916.988 656.652 972.108 648.02 1019.41C747.044 1061.93 864.188 1049.77 930.428 1014.02C929.66 1015.53 927.492 976.212 924.096 918.624C918.108 817.144 908.312 658.916 895.672 567.308C895.324 565.048 878.216 561.68 875.868 561.428Z" fill="white"/>
</g>
<path d="M746.328 552.956C749.144 544.58 753.064 538.688 758.088 535.28L812.352 539.464L837.792 556.236L746.328 552.956Z" fill="#0E53BE"/>
<path opacity="0.5" d="M746.328 552.956C749.144 544.58 753.064 538.688 758.088 535.28L812.352 539.464L837.792 556.236L746.328 552.956Z" fill="white"/>
<path opacity="0.2" d="M873.344 673.564C882.032 714.144 894.528 793.692 918.104 821.416L912.5 740.908L873.344 673.564Z" fill="black"/>
<path opacity="0.2" d="M668.152 757.804L670.252 653.752L648.412 752.856L668.152 757.804Z" fill="black"/>
<path d="M914.944 705.66C911.9 706.832 970.66 839.04 994.584 840.22C1018.51 841.4 1130.83 790.288 1130.83 790.288L1105.63 760.208L1020.73 765.076L977.432 672.9L914.944 705.66Z" fill="#B97964"/>
<path d="M885.396 565.96C854.92 586.088 839.816 631.66 921.516 772.364L1009.74 718.484C991.896 685.556 972.988 661.616 951.972 613.924C909.616 552.944 885.396 565.96 885.396 565.96Z" fill="#0E53BE"/>
<path opacity="0.5" d="M885.396 565.96C854.92 586.088 839.816 631.66 921.516 772.364L1009.74 718.484C991.896 685.556 972.988 661.616 951.972 613.924C909.616 552.944 885.396 565.96 885.396 565.96Z" fill="white"/>
<path d="M1170.4 759.316C1170.4 751.6 1168.02 743.212 1163.87 742.956C1159.72 742.7 1137.53 742.932 1137.53 742.932C1137.53 736.704 1149.21 729.892 1145.4 725.64C1140.44 720.092 1111.68 743.796 1109.87 748.636C1106.31 758.132 1104.53 760.504 1104.53 760.504L1119.73 795.388C1119.73 795.388 1147.85 813.916 1154.38 807.388C1160.91 800.86 1160.32 793.884 1160.32 793.884C1160.32 793.884 1166.84 784.836 1166.25 778.904C1165.65 772.964 1170.4 767.032 1170.4 759.316Z" fill="#B97964"/>
</svg>
