<svg width="420" height="400" viewBox="0 0 420 400" fill="none" xmlns="http://www.w3.org/2000/svg">
<path d="M175.307 397.774C71.1065 381.978 -13.5732 283.335 1.81268 173.686C14.9367 80.1791 96.8072 7.40179 194.986 0.535197C202.088 0.0303005 209.291 -0.113957 216.537 0.0880021C271.31 1.67482 319.974 23.6162 355.961 56.8096C391.789 89.8442 415.055 134.03 419.29 180.394C430.599 303.733 304.905 417.436 175.307 397.774Z" fill="#F4F7FA"/>
<path d="M31.1992 342.379C17.6718 342.047 7.09766 331.069 7.09766 317.394V34.3345C7.09766 20.356 18.3345 9.39256 32.1789 9.91188L383.863 22.9671C383.993 22.9671 384.094 22.9815 384.223 22.9815C396.094 23.6451 405.703 34.6374 405.703 47.4618V305.031C405.703 317.798 396.166 328.545 384.382 328.992L32.7407 342.379C32.2077 342.394 31.7179 342.394 31.1992 342.379Z" fill="#142149"/>
<path d="M36.1841 342.509C22.6711 342.177 12.1113 331.214 12.1113 317.538V34.6084C12.1113 20.63 23.3338 9.68095 37.1637 10.1859L388.517 23.2266C388.646 23.2266 388.747 23.241 388.877 23.241C400.748 23.9046 410.342 34.8825 410.342 47.7069V305.161C410.342 317.913 400.805 328.66 389.035 329.107L37.7112 342.494C37.1925 342.509 36.7027 342.523 36.1841 342.509Z" fill="#0E53BE"/>
<path d="M388.616 322.472L37.2485 335.629C27.2794 336.004 19.1543 327.983 19.1543 317.726V34.9841C19.1543 24.7275 27.2794 16.7068 37.2485 17.0675L388.616 29.8774C396.986 30.1804 403.757 38.0135 403.757 47.3613V304.988C403.757 314.336 397 322.169 388.616 322.472Z" fill="#F4F7FA"/>
<path d="M123.269 271.722L67.5168 273.006C66.8541 273.021 66.3066 272.473 66.3066 271.78V258.061C66.3066 257.369 66.8541 256.806 67.5168 256.792L123.269 255.724C123.917 255.71 124.45 256.258 124.45 256.936V270.467C124.45 271.145 123.931 271.708 123.269 271.722Z" fill="#E8E9ED"/>
<path d="M283.812 297.298L67.5168 303.848C66.8541 303.862 66.3066 303.328 66.3066 302.636V288.917C66.3066 288.225 66.8541 287.648 67.5168 287.633L283.812 281.906C284.417 281.892 284.906 282.411 284.906 283.06V296.087C284.906 296.736 284.417 297.269 283.812 297.298Z" fill="#E8E9ED"/>
<path d="M64.1028 89.3255C61.0486 91.1864 58.0954 95.3266 58.7581 99.9428C59.4351 104.617 63.5265 107.632 66.7535 108.641C71.2915 110.055 72.7897 107.083 77.6734 107.588C85.0638 108.353 90.8119 116.114 93.2177 121.812C95.5803 127.424 93.7363 128.765 95.2634 135.199C97.9429 146.523 106.241 153.52 114.15 160.17C120.734 165.724 130.775 172.446 132.59 170.47C133.238 169.763 132.648 168.133 132.302 167.152C130.904 163.257 127.735 162.348 123.399 158.684C120.316 156.073 116.426 152.798 117.046 150.202C117.665 147.648 122.592 146.09 126.266 147.244C129.939 148.398 131.913 152.12 132.864 153.909C133.67 155.438 133.541 157.429 134.29 157.53C134.808 157.602 135.385 156.794 135.644 156.102C136.321 154.327 135.14 152.596 134.708 151.211C133.728 148.023 136.062 144.604 138.381 141.2C142.271 135.516 144.547 135.488 150.554 128.895C154.574 124.481 156.576 122.216 156.807 118.985C157.181 113.431 152.643 109.233 151.894 108.526C148.221 105.122 141.997 102.756 139.361 105.122C136.984 107.242 139.49 111.411 136.696 114.498C134.736 116.662 131.322 117.066 128.671 116.186C124.911 114.945 122.75 111.209 122.534 107.848C122.491 107.184 122.289 104.126 124.263 102.034C124.825 101.443 126.194 100.26 130.775 100.13C137.229 99.9572 138.568 102.164 142.415 101.342C145.628 100.65 149.488 98.0674 149.445 95.4708C149.388 92.427 144.014 92.0087 137.848 85.0267C135.442 82.3002 133.497 80.0354 133.642 77.107C133.858 72.9957 138.136 69.8365 138.986 69.2162C142.314 66.7638 145.267 64.7731 145.267 64.7731C146.103 64.2105 147.299 63.4171 147.169 62.6237C147.083 62.1044 146.434 61.7293 145.267 61.3687C141.608 60.2146 138.799 60.7916 138.799 60.7916C134.434 61.686 133.051 63.8643 127.721 66.7206C125.56 67.8746 121.929 69.8365 116.959 70.8751C111.298 72.0725 109.353 70.9473 106.529 73.039C103.821 75.073 104.671 76.8329 101.876 80.0065C98.9514 83.3244 95.3786 84.3775 89.8178 86.022C87.6857 86.6568 83.3783 87.782 77.4861 88.2147C69.0873 88.8783 67.3153 87.3636 64.1028 89.3255Z" fill="#0E53BE"/>
<path d="M156.445 64.2966C150.524 65.7824 145.381 67.0807 144.315 70.7881C143.753 72.7211 144.272 75.3899 145.842 76.8324C148.94 79.7031 153.622 75.3899 157.022 77.8855C158.837 79.2271 158.145 80.9437 160.234 90.5224C161.617 96.9129 162.755 99.9856 164.945 102.77C166.184 104.342 167.913 106.564 169.641 106.232C172.206 105.756 171.226 100.375 175.274 96.5811C176.686 95.254 176.945 95.7877 183.688 92.5708C187.62 90.6955 189.594 89.7434 190.026 88.9355C192.245 84.7954 186.353 79.5733 188.73 74.6398C189.176 73.7165 189.234 74.207 192.259 70.3698C195.731 65.9699 195.688 65.2631 195.601 64.9169C195.212 63.4455 192.634 63.2724 185.935 62.277C174.813 60.6325 173.906 59.94 170.592 60.6757C168.403 61.1662 167.812 61.6855 163.072 62.8684C159.341 63.8061 158.938 63.6763 156.445 64.2966Z" fill="#0E53BE"/>
<path d="M141.465 170.498C138.194 172.994 137.532 177.35 137.272 179.125C136.624 183.496 137.849 186.352 140.125 193.55C142.905 202.292 144.288 206.663 144.504 209.145C144.821 212.996 144.159 213.66 141.465 228.807C139.462 240.073 139.246 243.001 141.09 245.036C143.784 248.036 149.604 247.661 149.835 246.882C149.95 246.507 148.697 246.19 147.746 244.92C145.642 242.093 147.155 237.361 147.558 236.12C149.143 231.201 152.154 229.095 157.023 224.205C162.771 218.435 166.517 214.684 169.269 209.13C170.637 206.375 173.547 200.287 172.654 192.396C172.467 190.81 171.718 185.443 167.958 180.077C163.074 173.109 156.49 170.917 154.574 170.311C150.8 169.128 145.47 167.44 141.465 170.498Z" fill="#0E53BE"/>
<path d="M197.26 143.061C195.142 147.288 192.794 151.962 191.872 156.289C191.051 160.155 190.259 168.926 194.465 172.331C198.269 175.403 202.662 171.263 207.964 174.696C210.672 176.456 211.868 179.053 213.309 182.183C216.406 188.92 214.922 192.627 216.248 201.268C216.867 205.322 218.841 218.218 223.768 219.098C227.873 219.82 232.339 211.9 233.074 210.573C235.048 207.053 235.811 203.403 237.266 196.248C239.211 186.597 238.491 185.241 240.536 182.529C243.173 179.038 246.357 178.649 247.062 175.288C247.581 172.821 246.357 170.599 245.607 169.229C242.885 164.166 239.096 164.714 236.531 159.824C235.062 157.011 234.659 153.678 235.264 153.361C235.797 153.072 237.281 155.121 237.986 156.116C240.191 159.16 239.917 160.271 241.257 161.8C243.965 164.916 248.517 164.411 248.863 164.368C250.952 164.108 254.727 162.853 255.188 160.285C255.548 158.309 253.819 156.188 251.759 153.635C250.088 151.572 248.849 150.692 249.05 150.303C249.252 149.913 250.736 150.432 254.64 151.889C258.876 153.476 260.993 154.27 261.296 154.457C262.722 155.337 263.932 156.534 267.937 163.617C271.985 170.801 273.455 174.408 274.377 174.105C274.838 173.961 274.751 172.965 275.097 169.647C275.601 164.671 275.875 162.146 277.056 160.343C278.05 158.828 280.197 156.765 282.401 157.068C283.726 157.241 285.311 159.463 288.437 163.863C291.52 168.205 292.557 169.676 294.632 170.83C295.727 171.436 297.686 172.518 299.227 171.609C300.942 170.599 301.518 167.484 300.812 165.248C299.948 162.536 297.571 162.261 297.643 160.617C297.743 158.251 302.67 156.722 303.103 156.592C306.286 155.64 307.093 156.736 308.721 155.655C311.141 154.053 312.135 149.769 311.53 146.437C310.911 143.018 308.779 141.734 309.427 140.262C309.974 139.022 311.66 139.469 315.031 138.575C317.538 137.911 321.226 136.93 323.242 133.857C324.438 132.025 324.654 130.049 324.986 126.976C325.043 126.471 325.274 124.106 324.986 120.845C324.582 116.33 323.689 116.013 324.121 114.7C325.058 111.829 329.596 112.695 338.182 110.127C343.094 108.656 346.638 106.882 346.984 107.603C347.416 108.512 341.682 110.978 341.293 115.71C341.005 119.288 343.887 122.952 345.097 122.634C346.091 122.36 345.37 119.533 347.171 115.421C347.834 113.907 348.828 111.613 350.96 110.142C353.51 108.382 355.008 109.651 357.313 107.776C359.143 106.276 358.682 105.049 360.223 103.463C363.709 99.8562 369.573 102.525 369.947 101.169C370.293 99.9139 365.77 95.9036 359.877 94.9082C354.634 94.0283 353.827 96.4662 347.863 96.3796C344.477 96.3364 340.371 94.7784 332.131 91.6769C327.478 89.917 325.043 88.7341 320.822 88.3734C317.883 88.1282 317.782 88.5898 314.7 88.2436C311.199 87.8397 306.863 87.3492 303.463 84.1467C300.798 81.6367 301.604 80.1797 299.415 78.6506C295.856 76.1838 290.987 78.0591 286.852 79.7036C282.458 81.4635 279.332 83.6562 274.031 87.3636C267.865 91.6769 265.805 93.8407 262.391 93.3358C259.841 92.9608 259.322 91.5038 256.455 91.4605C254.136 91.4317 253.416 92.3693 248.69 94.4322C244.124 96.4229 241.804 97.4183 239.816 96.9999C236.733 96.3508 236.618 94.0427 233.276 92.5713C229.703 90.9989 226.303 92.052 222.14 93.3358C216.997 94.9227 211.926 96.4951 209.462 101.169C206.855 106.131 209.275 110.574 206.322 112.753C203.873 114.57 201.366 112.132 199.119 114.022C196.396 116.301 197.203 122.173 197.635 125.274C198.47 131.376 200.559 132.891 199.853 137.161C199.536 139.051 198.974 139.628 197.26 143.061Z" fill="#0E53BE"/>
<path d="M247.061 194.229C245.793 194.099 243.647 199.595 244.165 204.803C244.194 205.106 244.612 209.145 245.793 209.289C246.888 209.419 248.026 206.101 248.141 205.755C248.329 205.192 248.905 203.331 248.689 200.288C248.631 199.422 248.257 194.359 247.061 194.229Z" fill="#0E53BE"/>
<path d="M292.684 181.447C292.598 181.693 292.958 182.096 293.952 182.962C296.603 185.256 297.914 186.395 300.103 187.218C301.991 187.924 306.673 189.208 307.667 187.391C308.315 186.222 307.393 183.871 305.909 182.774C304.339 181.606 303.158 182.616 299.398 182.399C295.508 182.183 292.915 180.87 292.684 181.447Z" fill="#0E53BE"/>
<path d="M305.924 171.423C305.146 171.553 305.348 173.226 303.806 176.818C303.086 178.492 302.697 178.939 302.928 179.516C303.417 180.785 306.385 181.391 307.855 179.891C309.223 178.492 308.604 175.967 308.388 175.087C307.955 173.399 306.832 171.264 305.924 171.423Z" fill="#0E53BE"/>
<path d="M321.671 185.428C322.262 186.351 323.241 187.505 325.676 188.674C326.526 189.078 332.792 192.093 334.363 189.785C335.011 188.847 334.694 187.289 334.19 186.337C333.412 184.88 332 184.534 329.681 183.856C322.766 181.865 321.195 180.898 320.634 181.764C320 182.759 321.354 184.923 321.671 185.428Z" fill="#0E53BE"/>
<path d="M309.96 164.685C309.139 164.959 309.182 169.099 310.666 172.373C311.43 174.076 312.827 176.11 313.475 175.836C314.167 175.547 313.821 172.619 313.303 170.642C312.525 167.714 310.767 164.425 309.96 164.685Z" fill="#0E53BE"/>
<path d="M316.615 145.311C316.63 144.344 318.819 144.59 321.686 142.657C323.674 141.315 326.584 138.517 328.126 134.665C328.443 133.886 328.76 132.905 328.99 132.948C329.336 133.02 329.379 135.444 328.99 137.536C328.256 141.402 325.893 144.864 322.896 146.494C321.715 147.129 320.836 147.273 320.102 147.244C318.474 147.186 316.601 146.205 316.615 145.311Z" fill="#0E53BE"/>
<path d="M310.664 201.614C306.832 205.264 304.728 204.615 304.166 206.663C303.518 208.986 306.154 210.024 306.63 214.727C306.918 217.655 306.111 219.3 306.803 219.733C307.854 220.382 309.583 216.501 313.646 215.044C313.963 214.929 318.212 213.486 321.684 215.737C323.701 217.05 323.442 218.305 326.741 221.435C328.844 223.44 329.939 224.45 331.264 224.248C333.44 223.916 334.664 220.541 335.428 218.463C336.047 216.747 337.488 212.808 336.465 208.134C336.019 206.115 335.702 206.591 329.694 197.286C328.038 194.719 327.375 193.608 325.862 192.901C322.794 191.473 319.437 193.218 318.89 193.507C317.679 194.142 316.628 195.209 314.524 197.373C312.018 199.912 312.176 200.172 310.664 201.614Z" fill="#0E53BE"/>
<path d="M121.371 163.833C122.939 163.833 124.209 162.561 124.209 160.992C124.209 159.422 122.939 158.15 121.371 158.15C119.804 158.15 118.533 159.422 118.533 160.992C118.533 162.561 119.804 163.833 121.371 163.833Z" fill="#142149"/>
<path d="M150.645 178.75C152.212 178.75 153.483 177.478 153.483 175.908C153.483 174.339 152.212 173.066 150.645 173.066C149.077 173.066 147.807 174.339 147.807 175.908C147.807 177.478 149.077 178.75 150.645 178.75Z" fill="#142149"/>
<path d="M163.422 195.268C164.989 195.268 166.26 193.996 166.26 192.427C166.26 190.857 164.989 189.585 163.422 189.585C161.855 189.585 160.584 190.857 160.584 192.427C160.584 193.996 161.855 195.268 163.422 195.268Z" fill="#142149"/>
<path d="M133.619 136.656C135.187 136.656 136.457 135.384 136.457 133.814C136.457 132.245 135.187 130.973 133.619 130.973C132.052 130.973 130.781 132.245 130.781 133.814C130.781 135.384 132.052 136.656 133.619 136.656Z" fill="#142149"/>
<path d="M195.737 170.556C195.074 170.556 194.498 170.051 194.412 169.373C194.325 168.637 194.844 167.973 195.579 167.887C197.451 167.67 198.633 167.44 198.633 167.44C199.353 167.295 200.059 167.771 200.189 168.493C200.333 169.214 199.857 169.906 199.137 170.051C199.079 170.065 197.869 170.296 195.881 170.527C195.838 170.556 195.795 170.556 195.737 170.556Z" fill="#9399AB"/>
<path d="M188.233 171.003C186.734 171.003 185.279 170.945 183.882 170.829C183.147 170.772 182.6 170.123 182.657 169.401C182.715 168.666 183.363 168.117 184.098 168.175C185.423 168.276 186.806 168.334 188.233 168.334C188.78 168.334 189.313 168.319 189.832 168.305C190.595 168.276 191.171 168.868 191.2 169.603C191.215 170.339 190.638 170.945 189.904 170.974C189.371 171.003 188.809 171.003 188.233 171.003ZM178.177 169.964C178.076 169.964 177.975 169.95 177.875 169.935C175.714 169.43 173.754 168.723 172.04 167.872C171.377 167.54 171.118 166.747 171.449 166.083C171.781 165.42 172.587 165.16 173.236 165.492C174.763 166.257 176.52 166.877 178.48 167.338C179.2 167.512 179.632 168.218 179.474 168.94C179.33 169.546 178.782 169.964 178.177 169.964ZM167.92 164.525C167.56 164.525 167.2 164.381 166.94 164.093C166.249 163.343 165.644 162.535 165.111 161.669C164.621 160.861 164.059 160.025 163.44 159.188C162.993 158.597 163.123 157.76 163.713 157.327C164.304 156.88 165.139 157.01 165.572 157.601C166.249 158.496 166.854 159.404 167.387 160.299C167.819 161.006 168.323 161.684 168.885 162.29C169.389 162.823 169.346 163.674 168.813 164.179C168.568 164.41 168.251 164.525 167.92 164.525ZM160.674 155.279C160.328 155.279 159.982 155.149 159.723 154.875C158.455 153.576 157.043 152.249 155.502 150.951C154.94 150.475 154.868 149.638 155.358 149.076C155.833 148.513 156.669 148.455 157.23 148.931C158.83 150.287 160.313 151.672 161.624 153.028C162.143 153.548 162.129 154.399 161.596 154.918C161.336 155.149 161.005 155.279 160.674 155.279ZM151.742 147.604C151.468 147.604 151.194 147.518 150.949 147.345C149.437 146.219 147.823 145.109 146.181 144.027C145.561 143.623 145.389 142.8 145.792 142.18C146.195 141.56 147.016 141.387 147.636 141.791C149.336 142.901 150.978 144.056 152.534 145.195C153.125 145.628 153.254 146.465 152.808 147.056C152.548 147.417 152.145 147.604 151.742 147.604Z" fill="#9399AB"/>
<path d="M141.901 141.142C141.67 141.142 141.44 141.085 141.238 140.955C139.567 139.974 138.515 139.44 138.501 139.426C137.852 139.094 137.593 138.286 137.939 137.622C138.27 136.973 139.077 136.714 139.725 137.06C139.768 137.089 140.834 137.637 142.563 138.647C143.197 139.022 143.413 139.83 143.039 140.464C142.808 140.897 142.362 141.142 141.901 141.142Z" fill="#9399AB"/>
<path d="M165.659 161.367C165.457 161.367 165.256 161.324 165.068 161.223C165.054 161.223 164.06 160.732 162.259 160.126C161.568 159.895 161.193 159.131 161.423 158.439C161.654 157.746 162.418 157.371 163.109 157.602C165.083 158.265 166.192 158.814 166.25 158.842C166.912 159.174 167.172 159.968 166.855 160.631C166.61 161.093 166.149 161.367 165.659 161.367Z" fill="#9399AB"/>
<path d="M135.246 159.117C134.641 159.117 134.093 158.698 133.949 158.093C133.776 157.371 134.223 156.664 134.943 156.491C137.263 155.943 139.625 155.554 141.974 155.323C142.694 155.251 143.357 155.784 143.429 156.52C143.501 157.256 142.968 157.905 142.233 157.977C140 158.194 137.753 158.569 135.548 159.088C135.448 159.102 135.347 159.117 135.246 159.117ZM155.948 158.496C155.876 158.496 155.789 158.496 155.717 158.482C153.513 158.093 151.251 157.862 148.989 157.775C148.255 157.746 147.678 157.126 147.707 156.39C147.736 155.655 148.355 155.078 149.09 155.106C151.467 155.193 153.859 155.438 156.178 155.857C156.898 155.986 157.388 156.679 157.259 157.4C157.143 158.035 156.581 158.496 155.948 158.496Z" fill="#9399AB"/>
<path d="M125.636 162.319C125.117 162.319 124.628 162.016 124.412 161.511C124.123 160.833 124.426 160.054 125.103 159.751C126.111 159.318 127.12 158.9 128.128 158.525C128.82 158.265 129.583 158.626 129.843 159.318C130.102 160.011 129.742 160.775 129.05 161.035C128.085 161.396 127.12 161.785 126.155 162.203C125.982 162.29 125.809 162.319 125.636 162.319Z" fill="#9399AB"/>
<path d="M204.671 176.168C204.21 176.168 203.777 175.937 203.518 175.519C203.144 174.884 203.36 174.062 203.993 173.701C205.593 172.749 206.486 172.042 206.5 172.042C207.076 171.58 207.912 171.681 208.373 172.258C208.834 172.835 208.733 173.672 208.171 174.134C208.128 174.163 207.148 174.956 205.362 176.009C205.132 176.11 204.901 176.168 204.671 176.168Z" fill="#9399AB"/>
<path d="M184.531 181.664C182.529 181.664 180.483 181.506 178.48 181.203C177.76 181.087 177.256 180.409 177.357 179.688C177.472 178.967 178.149 178.289 178.869 178.39C181.03 178.722 183.235 178.635 185.367 178.635C185.381 178.635 185.381 178.635 185.395 178.635C186.116 178.635 186.706 179.385 186.721 180.106C186.735 180.842 186.159 181.534 185.424 181.563C185.136 181.578 184.834 181.664 184.531 181.664ZM192.109 180.929C191.489 180.929 190.927 180.496 190.798 179.861C190.654 179.14 191.129 178.433 191.849 178.303C193.967 177.885 196.07 177.279 198.116 176.514C198.808 176.255 199.571 176.601 199.831 177.293C200.09 177.986 199.744 178.75 199.053 179.01C196.877 179.832 194.615 180.481 192.354 180.929C192.282 180.914 192.195 180.929 192.109 180.929ZM172.055 180.02C171.983 180.02 171.897 180.02 171.825 180.005C169.433 179.573 167.2 179.198 165.198 178.88C164.478 178.765 163.973 178.087 164.089 177.351C164.204 176.63 164.881 176.125 165.616 176.24C167.633 176.558 169.88 176.947 172.286 177.38C173.006 177.51 173.496 178.202 173.366 178.923C173.237 179.573 172.675 180.02 172.055 180.02Z" fill="#9399AB"/>
<path d="M158.702 177.943C158.644 177.943 158.601 177.654 158.543 177.64C156.31 177.38 155.532 177.092 155.532 177.092H155.518C154.797 177.092 154.192 176.789 154.178 176.068C154.164 175.332 154.74 174.87 155.475 174.856C155.561 174.856 156.411 174.914 158.831 175.202C159.566 175.289 160.085 175.981 159.998 176.717C159.955 177.409 159.379 177.943 158.702 177.943Z" fill="#9399AB"/>
<path d="M172.065 194.69C171.95 194.69 171.849 194.676 171.734 194.647C169.775 194.142 168.594 193.695 168.536 193.68C167.844 193.421 167.499 192.656 167.758 191.964C168.017 191.271 168.781 190.925 169.472 191.185C169.487 191.185 170.582 191.603 172.397 192.065C173.103 192.252 173.535 192.974 173.348 193.68C173.189 194.286 172.656 194.69 172.065 194.69Z" fill="#9399AB"/>
<path d="M182.815 196.103C181.389 196.103 179.905 196.017 178.407 195.858C177.672 195.786 177.153 195.122 177.225 194.387C177.297 193.651 177.96 193.132 178.695 193.204C180.885 193.434 183.046 193.492 185.062 193.362C185.783 193.319 186.431 193.867 186.474 194.603C186.517 195.339 185.97 195.973 185.235 196.017C184.457 196.074 183.636 196.103 182.815 196.103ZM191.646 194.877C191.07 194.877 190.551 194.502 190.378 193.925C190.162 193.218 190.566 192.482 191.271 192.266C193.317 191.646 195.219 190.766 196.904 189.655C197.524 189.251 198.345 189.424 198.748 190.03C199.152 190.65 198.979 191.473 198.374 191.876C196.472 193.131 194.354 194.112 192.064 194.805C191.905 194.848 191.776 194.877 191.646 194.877ZM202.638 187.808C202.278 187.808 201.932 187.664 201.658 187.39C201.154 186.856 201.183 186.005 201.73 185.5C203.517 183.841 205.202 182.341 206.729 181.057C207.291 180.581 208.127 180.653 208.602 181.23C209.078 181.793 209.006 182.63 208.429 183.106C206.931 184.361 205.289 185.818 203.546 187.448C203.286 187.693 202.955 187.808 202.638 187.808Z" fill="#9399AB"/>
<path d="M212.85 179.428C212.418 179.428 211.986 179.212 211.727 178.808C211.338 178.187 211.51 177.365 212.13 176.961C214.248 175.605 215.242 175.374 215.645 175.36L215.76 178.029C215.76 178.029 215.789 178.029 215.876 178.014C215.861 178.014 215.213 178.159 213.556 179.212C213.34 179.356 213.095 179.428 212.85 179.428Z" fill="#9399AB"/>
<path d="M204.393 170.757C205.96 170.757 207.231 169.485 207.231 167.916C207.231 166.346 205.96 165.074 204.393 165.074C202.825 165.074 201.555 166.346 201.555 167.916C201.555 169.485 202.825 170.757 204.393 170.757Z" fill="#142149"/>
<path d="M211.322 173.96C212.89 173.96 214.16 172.688 214.16 171.118C214.16 169.549 212.89 168.276 211.322 168.276C209.755 168.276 208.484 169.549 208.484 171.118C208.484 172.688 209.755 173.96 211.322 173.96Z" fill="#142149"/>
<path d="M218.236 179.816C219.804 179.816 221.074 178.544 221.074 176.975C221.074 175.405 219.804 174.133 218.236 174.133C216.669 174.133 215.398 175.405 215.398 176.975C215.398 178.544 216.669 179.816 218.236 179.816Z" fill="#142149"/>
<path d="M371.147 290.471C371.147 314.894 339.252 373.534 326.027 393.975C323.78 397.452 314.531 396.803 312.284 393.326C299.059 372.885 263 314.894 263 290.471C263 260.567 287.217 236.318 317.081 236.318C346.945 236.332 371.147 260.567 371.147 290.471Z" fill="#142149"/>
<path d="M377.026 290.471C377.026 314.894 340.967 372.885 327.742 393.326C325.495 396.803 320.424 396.803 318.176 393.326C304.951 372.885 268.893 314.894 268.893 290.471C268.893 260.567 293.109 236.318 322.974 236.318C352.838 236.318 377.026 260.567 377.026 290.471Z" fill="url(#paint0_radial_290_623)"/>
<path opacity="0.7" d="M343.997 306.568C355.626 294.923 355.626 276.044 343.997 264.399C332.369 252.755 313.515 252.755 301.886 264.399C290.257 276.044 290.257 294.923 301.886 306.568C313.515 318.212 332.369 318.212 343.997 306.568Z" fill="white"/>
<path opacity="0.7" d="M322.943 313.523C338.41 313.523 350.949 300.967 350.949 285.479C350.949 269.991 338.41 257.436 322.943 257.436C307.476 257.436 294.938 269.991 294.938 285.479C294.938 300.967 307.476 313.523 322.943 313.523Z" fill="white"/>
<defs>
<radialGradient id="paint0_radial_290_623" cx="0" cy="0" r="1" gradientUnits="userSpaceOnUse" gradientTransform="translate(322.903 316.126) scale(47.8902 229.039)">
<stop stop-color="#1A5590"/>
<stop offset="0.295" stop-color="#189CF8"/>
<stop offset="0.63" stop-color="#189CF8"/>
<stop offset="1" stop-color="#1962AB"/>
</radialGradient>
</defs>
</svg>
