<svg id="Layer_1" data-name="Layer 1" xmlns="http://www.w3.org/2000/svg" viewBox="0 0 405 405"><defs><style>.cls-1{fill:#efc94c;}.cls-2{fill:#ef9230;}.cls-3{fill:#ebebeb;}.cls-4{fill:#345277;}.cls-5{fill:#29415e;}.cls-6{fill:#ccf4ff;}.cls-7{fill:#546e7d;}.cls-8{fill:#9cdbed;}.cls-9{fill:#4b6270;}.cls-10{fill:#fcfcfc;}.cls-11{fill:#34495e;}.cls-12{fill:#263545;}.cls-13{fill:#df4949;}.cls-14{fill:#fff;}.cls-15{fill:#bababa;}.cls-16{fill:#37b357;}.cls-17{fill:#32a14e;}.cls-18{fill:#416694;}.cls-19{fill:#a4e7fa;}.cls-20{fill:#c9c9c9;}.cls-21{fill:#ffffa6;}.cls-22{fill:#e3b82b;}.cls-23{fill:#1a2530;}.cls-24{fill:#2d4255;}.cls-25{fill:#f2385a;}.cls-26{fill:#273e59;}.cls-27{fill:#c44040;}.cls-28{fill:#cc4343;}.cls-29{fill:#3b5770;}.cls-30{fill:#deb221;}.cls-31{fill:#d6e3e8;}.cls-32{fill:#e8f7fc;}.cls-33{fill:#c4c4c4;}.cls-34{fill:#39d0ff;}</style></defs><g id="Background_1" data-name="Background 1"><circle class="cls-1" cx="91.9" cy="61.48" r="18.19"/><path class="cls-2" d="M88.78,80.3a.63.63,0,0,1-.63-.63V65.56a2.1,2.1,0,0,0-4.2,0,.64.64,0,0,1-.64.63.63.63,0,0,1-.63-.63,3.37,3.37,0,1,1,6.73,0V79.67A.63.63,0,0,1,88.78,80.3Z"/><path class="cls-2" d="M95.51,80.3a.63.63,0,0,1-.63-.63V65.56a3.37,3.37,0,0,1,6.74,0,.64.64,0,0,1-.71.56.66.66,0,0,1-.57-.56,2.1,2.1,0,1,0-4.19-.28V79.67a.63.63,0,0,1-.63.63Z"/><path class="cls-2" d="M92.14,78.3a.64.64,0,0,1-.63-.64V54.19a.65.65,0,0,1,1.28,0V77.66a.64.64,0,0,1-.64.64Z"/><path class="cls-3" d="M94.34,92.39H90a2.76,2.76,0,0,1-2.76-2.76V86.7H97.1v2.93A2.76,2.76,0,0,1,94.34,92.39Z"/><path class="cls-4" d="M96.63,90.64H87.28A5.6,5.6,0,0,1,81.69,85V76.53h20.53V85a5.6,5.6,0,0,1-5.59,5.6Z"/><path class="cls-5" d="M102.32,79.67H81.6a1,1,0,0,1-1-1v0h0a1,1,0,0,1,1-1h20.72a1,1,0,0,1,1,1h0a1,1,0,0,1-1,1Z"/><path class="cls-5" d="M102.32,82.94H81.6a1,1,0,0,1-1-1h0a1,1,0,0,1,1-1h20.72a1,1,0,0,1,1,1h0A1,1,0,0,1,102.32,82.94Z"/><path class="cls-5" d="M102.32,86.23H81.6a1,1,0,0,1-1-1h0a1,1,0,0,1,1-1h20.72a1,1,0,0,1,1,1h0A1,1,0,0,1,102.32,86.23Z"/><path class="cls-6" d="M314.84,229.84l.82-13.14,17.6,7.56a10.37,10.37,0,0,0-4.79-8.85l-12.3-7.86.23-3.5a12.46,12.46,0,0,0-3.29-9.15,1.27,1.27,0,0,0-1.79-.08l-.08.08h0a12.46,12.46,0,0,0-3.06,8.67l.18,3.84-12.43,7.73a10.39,10.39,0,0,0-4.95,8.77l17.7-7.28.62,13.15L304.85,233a3,3,0,0,0-.89,2.15v4l7.46-5.19.16,1.86a.64.64,0,0,0,.64.58.63.63,0,0,0,.64-.58l.16-1.73,7.19,5.2v-4a3,3,0,0,0-.89-2.15Z"/><path class="cls-7" d="M298.1,212.94v-1.09a1.62,1.62,0,1,0-3.24,0V215c.22-.15.43-.3.67-.44Z"/><path class="cls-7" d="M302.73,209.71a1.64,1.64,0,0,0-1.74-1.5,1.62,1.62,0,0,0-1.49,1.5v2.37l3.23-2Z"/><path class="cls-7" d="M329.37,215.14v-3.29a1.62,1.62,0,1,0-3.24-.24v1.46l2.73,1.78Z"/><path class="cls-7" d="M324.74,209.71a1.62,1.62,0,0,0-3.24,0v.38l3.24,2.07Z"/><path class="cls-8" d="M312.75,235.8l.16-1.73,7.2,5.2v-4a3,3,0,0,0-.89-2.15l-4.46-3.32.83-13.14,17.6,7.56a10.36,10.36,0,0,0-4.8-8.85l-12.29-7.86.23-3.5A12.46,12.46,0,0,0,313,194.9a1.25,1.25,0,0,0-1-.39v41.84a.62.62,0,0,0,.71-.54Z"/><rect class="cls-3" x="232.96" y="311.6" width="11.07" height="1.72" transform="matrix(0.19, -0.98, 0.98, 0.19, -114, 486.4)"/><rect class="cls-3" x="244.8" y="305.73" width="1.72" height="13.41" transform="translate(-136.59 203.59) rotate(-35.93)"/><rect class="cls-3" x="241.28" y="307.02" width="0.85" height="10.86"/><path class="cls-7" d="M241.62,297.65,227.6,287a1.51,1.51,0,0,0-2.28-2,1.5,1.5,0,0,0,1.87,2.35l10.07,14.45Z"/><path class="cls-9" d="M227.58,287a1.51,1.51,0,0,0-2.28-2l14.12,14.7,2.2-2.06Z"/><path class="cls-10" d="M245.4,305.93a13.62,13.62,0,0,0,.39-19.25h0l-19.64,18.85A13.62,13.62,0,0,0,245.4,305.93Z"/><path class="cls-10" d="M254,318.74H231.56a.89.89,0,0,1-.89-.89h0a.89.89,0,0,1,.89-.89H254a.89.89,0,0,1,.89.89h0A.89.89,0,0,1,254,318.74Z"/><path class="cls-11" d="M307.68,33.62c0,5.85-7.3,19.21-11.75,26.93A4,4,0,0,1,290.48,62a3.92,3.92,0,0,1-1.43-1.43c-4.45-7.71-11.76-21.11-11.76-26.93a15.2,15.2,0,0,1,30.4,0Z"/><path class="cls-12" d="M295.93,60.55c4.45-7.72,11.75-21.08,11.75-26.93a15.2,15.2,0,0,0-15.2-15.19h0v44.1A3.94,3.94,0,0,0,295.93,60.55Z"/><circle class="cls-1" cx="292.48" cy="32.69" r="9.75"/><path class="cls-13" d="M297.36,32.69a4.88,4.88,0,1,1-4.88-4.88,4.88,4.88,0,0,1,4.88,4.88Z"/><path class="cls-14" d="M207.19,97h28.2a1.28,1.28,0,0,0,1.28-1.28h0V64.45l-8.51-8.65h-21a1.29,1.29,0,0,0-1.29,1.29V95.72A1.29,1.29,0,0,0,207.19,97Z"/><polygon class="cls-15" points="236.64 64.45 228.13 64.45 228.13 55.8 236.64 64.45"/><path class="cls-15" d="M209.29,74.9h24a.54.54,0,0,0,.54-.54h0a.54.54,0,0,0-.54-.54h-24a.55.55,0,0,0-.55.54h0a.55.55,0,0,0,.55.54Z"/><path class="cls-15" d="M209.29,77.9h24a.55.55,0,0,0,.54-.55h0a.54.54,0,0,0-.54-.54h-24a.55.55,0,0,0-.55.54h0a.55.55,0,0,0,.55.55Z"/><path class="cls-15" d="M209.29,80.89h24a.55.55,0,0,0,.54-.55h0a.54.54,0,0,0-.54-.54h-24a.55.55,0,0,0-.55.54h0a.55.55,0,0,0,.55.55Z"/><path class="cls-15" d="M209.29,83.88h24a.54.54,0,0,0,.54-.54h0a.55.55,0,0,0-.54-.55h-24a.55.55,0,0,0-.55.55h0a.55.55,0,0,0,.55.54Z"/><path class="cls-15" d="M209.29,86.88h24a.54.54,0,0,0,.54-.54h0a.55.55,0,0,0-.54-.55h-24a.55.55,0,0,0-.55.55h0a.55.55,0,0,0,.54.55Z"/><path class="cls-15" d="M209.29,89.87h24a.54.54,0,0,0,.54-.54h0a.55.55,0,0,0-.54-.55h-24a.55.55,0,0,0-.55.55h0a.55.55,0,0,0,.54.55Z"/><polygon class="cls-16" points="223.41 61.88 215.46 72.4 207.52 61.88 211.49 61.88 211.49 55.8 219.44 55.8 219.44 61.88 223.41 61.88"/><polygon class="cls-17" points="219.44 61.88 223.41 61.88 215.46 72.4 215.46 55.8 219.44 55.8 219.44 61.88"/><path class="cls-5" d="M105.76,132.74H86.58l2.48-9.51a4.21,4.21,0,0,1,4.08-3.16h6a4.21,4.21,0,0,1,4.08,3.16Z"/><path class="cls-4" d="M103.28,123.23a4.21,4.21,0,0,0-4.1-3.16H96.05v12.67h9.71Z"/><path class="cls-5" d="M105.46,165.1H86.28l2.48,9.51a4.22,4.22,0,0,0,4.09,3.16h6a4.22,4.22,0,0,0,4.09-3.16Z"/><path class="cls-4" d="M103,174.61l2.48-9.51H96.05v12.67h2.84A4.22,4.22,0,0,0,103,174.61Z"/><rect class="cls-18" x="81.64" y="132.45" width="28.76" height="32.93" rx="3.96"/><rect class="cls-6" x="84.36" y="135.18" width="23.31" height="27.48" rx="1.24"/><path class="cls-10" d="M85.6,162.66h20.84a1.23,1.23,0,0,0,1.23-1.22V149H84.36v12.47A1.24,1.24,0,0,0,85.6,162.66Z"/><path class="cls-8" d="M102.25,146.7A.74.74,0,0,0,103,146h0a1.88,1.88,0,0,0-1.35-1.78,1.62,1.62,0,1,0-2.9-1.44,2.48,2.48,0,0,0-.89-.18,2.67,2.67,0,0,0-5.26.07,1.93,1.93,0,0,0,0,.34,2.61,2.61,0,0,0-1.36,2.29,2.93,2.93,0,0,0,.17.89.78.78,0,0,0,.72.49Z"/><path class="cls-19" d="M104.75,143.63a.75.75,0,0,0,.77-.74h0a1.9,1.9,0,0,0-1.37-1.78,1.54,1.54,0,0,0,0-1,1.6,1.6,0,0,0-2-1.14,1.55,1.55,0,0,0-1,.72,2.52,2.52,0,0,0-.89-.18,2.68,2.68,0,0,0-5.26.07V140a2.67,2.67,0,0,0-1.34,2.29,2.43,2.43,0,0,0,.17.89.77.77,0,0,0,.71.48Z"/><path class="cls-20" d="M89.7,157.17v-1.46H87.21v-.5l2.39-3.42h.78v3.33h.79v.56h-.75v1.46Zm0-2v-2.61h0c-.16.31-.3.54-.45.78l-1.31,1.78h0Z"/><path class="cls-20" d="M91.62,155.82a1.51,1.51,0,0,1,1.06-1.43h0a1.32,1.32,0,0,1-.89-1.2,1.5,1.5,0,0,1,1.56-1.44h.09A1.38,1.38,0,0,1,95,153a.49.49,0,0,1,0,.12,1.36,1.36,0,0,1-.89,1.25h0a1.47,1.47,0,0,1,1.09,1.38,1.65,1.65,0,0,1-1.74,1.56h0C92.3,157.26,91.62,156.6,91.62,155.82Zm2.88,0c0-.65-.46-1-1.18-1.17a1.16,1.16,0,0,0-1,1.1,1,1,0,0,0,.93,1h.14a1,1,0,0,0,1.06-.84c0-.05,0-.1,0-.14Zm-2-2.67c0,.53.4.83,1,1a1,1,0,0,0,.82-1,.83.83,0,0,0-.78-.89h-.11a.89.89,0,0,0-.94.83Z"/><path class="cls-20" d="M97.62,152.54a1.16,1.16,0,1,1,1.16-1.16,1.16,1.16,0,0,1-1.16,1.16Zm0-1.86a.7.7,0,1,0,.7.7A.7.7,0,0,0,97.62,150.68Z"/><path class="cls-13" d="M367.28,148.26H341.22a6.46,6.46,0,0,0-6.44,6.46v9.74a6.44,6.44,0,0,0,6.44,6.44h15.09L356.1,177l9.68-6.14h1.5a6.46,6.46,0,0,0,6.46-6.44v-9.74A6.48,6.48,0,0,0,367.28,148.26Z"/><path class="cls-21" d="M345.61,158.67a1.78,1.78,0,1,1-1.78-1.78A1.78,1.78,0,0,1,345.61,158.67Z"/><path class="cls-21" d="M352.56,158.67a1.78,1.78,0,1,1-1.78-1.78A1.78,1.78,0,0,1,352.56,158.67Z"/><path class="cls-21" d="M359.5,158.67a1.78,1.78,0,1,1-1.78-1.78A1.78,1.78,0,0,1,359.5,158.67Z"/><path class="cls-21" d="M366.44,158.67a1.78,1.78,0,1,1-1.78-1.78A1.78,1.78,0,0,1,366.44,158.67Z"/><path class="cls-11" d="M185.94,348.45V373a1.79,1.79,0,0,0,1.78,1.79H218a1.78,1.78,0,0,0,1.82-1.74V348.45a1.77,1.77,0,0,0-1.78-1.78H187.76a1.78,1.78,0,0,0-1.82,1.74Zm4.81,22h-2.67v-2.67h2.67Zm0-5.56h-2.67v-2.67h2.67Zm0-5.57h-2.67v-2.67h2.67Zm0-5.56h-2.67v-2.67h2.67Zm26.95,16.69H215v-2.67h2.67Zm0-5.56H215v-2.67h2.67Zm0-5.57H215v-2.67h2.67Zm0-5.56H215v-2.67h2.67Z"/><path class="cls-1" d="M209.05,362.1l-10.43,7.22a1.7,1.7,0,0,1-2.36-.4,1.76,1.76,0,0,1-.31-1V353.5a1.7,1.7,0,0,1,1.68-1.71,1.67,1.67,0,0,1,1,.32l10.43,7.21a1.7,1.7,0,0,1,.42,2.37A1.49,1.49,0,0,1,209.05,362.1Z"/><path class="cls-22" d="M209.05,359.32l-3.86-2.67a1.62,1.62,0,0,1-.67.93L196,363.53V368a1.69,1.69,0,0,0,1.68,1.7,1.76,1.76,0,0,0,1-.31l10.43-7.21a1.7,1.7,0,0,0,.47-2.36A1.6,1.6,0,0,0,209.05,359.32Z"/><path class="cls-1" d="M273.54,339.71h-5.06v-1.3a.76.76,0,0,1,.77-.76h3.56a.76.76,0,0,1,.75.76Z"/><rect class="cls-14" x="265.62" y="339.06" width="38.74" height="24.36" rx="2.07"/><path class="cls-7" d="M302.29,339.06h-8v-.63a2.07,2.07,0,0,0-2.07-2.07h-14.4a2.06,2.06,0,0,0-2.08,2.06h0v.63h-8a2.08,2.08,0,0,0-2.07,2.08V348h9.88a10,10,0,0,1,19,0h9.88v-6.88a2.07,2.07,0,0,0-2.07-2.08Z"/><circle class="cls-23" cx="285" cy="351.26" r="8.92"/><circle class="cls-24" cx="284.99" cy="351.22" r="7.66"/><path class="cls-14" d="M290,352h0a.75.75,0,0,1-.75-.76h0a5.69,5.69,0,0,0-.08-.83.76.76,0,0,1,.62-.89.75.75,0,0,1,.89.59v0a6.72,6.72,0,0,1,.1,1.1.77.77,0,0,1-.75.77Z"/><path class="cls-14" d="M288.87,348.69a.8.8,0,0,1-.61-.3,4.84,4.84,0,0,0-3.84-1.93.76.76,0,0,1,0-1.51h0a6.31,6.31,0,0,1,5.05,2.53.76.76,0,0,1-.15,1.06A.74.74,0,0,1,288.87,348.69Z"/><path class="cls-25" d="M294.79,357.52a1.07,1.07,0,1,1-1.07-1.07,1.07,1.07,0,0,1,1.07,1.07Z"/><path class="cls-10" d="M319,136.32a3.56,3.56,0,0,0,3.56-3.47h0a8.83,8.83,0,0,0-6.37-8.47,7.43,7.43,0,0,0,.21-4.45,7.54,7.54,0,0,0-13.76-2,12.31,12.31,0,0,0-4.23-.89,12.3,12.3,0,0,0-24.6.34,11.66,11.66,0,0,0,.11,1.55,12.29,12.29,0,0,0-6.33,10.75,11.83,11.83,0,0,0,.81,4.36,3.54,3.54,0,0,0,3.33,2.27Z"/><path class="cls-3" d="M316.17,124.33a7.54,7.54,0,0,0-13.56-6.43,12.5,12.5,0,0,0-4.23-.89,12.3,12.3,0,0,0-24.09-3.17,12.32,12.32,0,0,1,15.31,8.32,12,12,0,0,1,.5,3.14,12.44,12.44,0,0,1,4.22.89,7.55,7.55,0,0,1,13.77,2,7.43,7.43,0,0,1-.21,4.45,8.89,8.89,0,0,1,5,3.7H319a3.55,3.55,0,0,0,3.56-3.46h0A8.84,8.84,0,0,0,316.17,124.33Z"/><polygon class="cls-16" points="301.13 128.09 288.96 111.97 276.8 128.09 282.88 128.09 282.88 136.31 295.05 136.31 295.05 128.09 301.13 128.09"/><polygon class="cls-17" points="295.05 128.09 301.13 128.09 288.96 111.97 288.96 136.31 295.05 136.31 295.05 128.09"/><path class="cls-26" d="M59,193.36H44.16V187A2.06,2.06,0,0,1,46.22,185H57A2.06,2.06,0,0,1,59,187h0Zm-13-1.83H57.2V187a.22.22,0,0,0-.22-.22H46.22A.22.22,0,0,0,46,187Z"/><rect class="cls-4" x="32.84" y="190.54" width="37.51" height="26.3" rx="1.94"/><rect class="cls-13" x="46.2" y="184.51" width="10.8" height="2.77" rx="0.77"/><path class="cls-27" d="M46.2,186.5a.76.76,0,0,0,.77.77h9.26a.77.77,0,0,0,.77-.76h0v-.61H46.2Z"/><circle class="cls-10" cx="51.59" cy="203.69" r="9.77"/><polygon class="cls-13" points="58.85 201.41 53.7 201.41 53.7 196.26 49.55 196.26 49.55 201.41 44.4 201.41 44.4 205.55 49.55 205.55 49.55 210.71 53.7 210.71 53.7 205.55 58.85 205.55 58.85 201.41"/><path class="cls-10" d="M85.29,239.58a3,3,0,0,1-3-3,2.93,2.93,0,0,1,1.16-2.36,29.63,29.63,0,0,1,36.4,0,3,3,0,1,1-3.58,4.77l-.08-.07a23.74,23.74,0,0,0-29.08,0A3,3,0,0,1,85.29,239.58Z"/><path class="cls-10" d="M111.94,247.44a3,3,0,0,1-1.79-.63,13.77,13.77,0,0,0-16.91,0,3,3,0,1,1-3.67-4.71,19.74,19.74,0,0,1,24.23,0,3,3,0,0,1-1.84,5.34Z"/><path class="cls-10" d="M105.85,255.3a3,3,0,0,1-1.83-.63,4,4,0,0,0-4.73,0A3,3,0,1,1,95.62,250a9.79,9.79,0,0,1,12,0,3,3,0,0,1-1.78,5.34Z"/><path class="cls-10" d="M105.85,261.3a3.78,3.78,0,1,1-3.79-3.78h0A3.78,3.78,0,0,1,105.85,261.3Z"/><path class="cls-3" d="M119.86,234.24A29.43,29.43,0,0,0,102.05,228v6a23.49,23.49,0,0,1,14.13,5,3,3,0,1,0,3.74-4.64l-.08-.06Z"/><path class="cls-3" d="M111.94,247.44a3,3,0,0,0,1.83-5.34,19.54,19.54,0,0,0-11.7-4.1v6a13.68,13.68,0,0,1,8,2.87A2.92,2.92,0,0,0,111.94,247.44Z"/><path class="cls-3" d="M105.85,255.3a3,3,0,0,0,1.79-5.34,9.73,9.73,0,0,0-5.61-2.05v6a3.89,3.89,0,0,1,2,.76A2.94,2.94,0,0,0,105.85,255.3Z"/><path class="cls-3" d="M105.85,261.3a3.77,3.77,0,0,0-3.77-3.78h0v7.56A3.78,3.78,0,0,0,105.85,261.3Z"/><rect class="cls-13" x="66.95" y="306.58" width="47.66" height="11.49" rx="5.48"/><path class="cls-28" d="M72.47,318.07h36.65a5.49,5.49,0,0,0,5.49-5.47v-.27H67v.27a5.47,5.47,0,0,0,5.48,5.47Z"/><path class="cls-14" d="M75,312.13H73.53v1.34h1.61v.4H73.05v-3.69h2v.4H73.53v1.16H75Z"/><path class="cls-14" d="M76.85,312.2v.37H75.5v-.37Z"/><path class="cls-14" d="M80.09,313.75a2.17,2.17,0,0,1-1,.17,1.73,1.73,0,0,1-1.84-1.61,2.35,2.35,0,0,1,0-.26A1.84,1.84,0,0,1,79,310.11h.19a2.1,2.1,0,0,1,.89.16l-.12.39a1.9,1.9,0,0,0-.75-.15,1.38,1.38,0,0,0-1.44,1.3,1.77,1.77,0,0,0,0,.23A1.35,1.35,0,0,0,79,313.52h.24a1.71,1.71,0,0,0,.77-.15Z"/><path class="cls-14" d="M83.73,312a1.77,1.77,0,0,1-1.6,1.94H82a1.7,1.7,0,0,1-1.67-1.72.81.81,0,0,1,0-.16A1.77,1.77,0,0,1,82,310.12h.11a1.68,1.68,0,0,1,1.67,1.69A1.09,1.09,0,0,1,83.73,312Zm-2.86.06c0,.8.42,1.5,1.17,1.5s1.18-.69,1.18-1.53-.38-1.51-1.17-1.51S80.87,311.23,80.87,312Z"/><path class="cls-14" d="M87.47,312.25c0-.52-.06-1.14-.06-1.6h0c-.13.43-.29.89-.47,1.4l-.65,1.78h-.38l-.59-1.78c-.18-.52-.32-1-.43-1.44h0a13.58,13.58,0,0,1-.07,1.64l-.1,1.58h-.46l.26-3.69h.61l.63,1.78c.15.45.28.89.38,1.25h0c.09-.38.23-.79.39-1.25l.66-1.78h.61l.22,3.69H87.6Z"/><path class="cls-14" d="M91.88,312.25c0-.52-.06-1.14-.06-1.6h0c-.14.43-.29.89-.48,1.4l-.65,1.78h-.36l-.6-1.78c-.18-.52-.32-1-.43-1.44h0a13.58,13.58,0,0,1-.07,1.64l-.09,1.58h-.47l.26-3.69h.62l.63,1.78c.15.45.27.89.37,1.25h0c.1-.38.23-.79.39-1.25l.66-1.78h.62l.23,3.69H92Z"/><path class="cls-14" d="M95.08,312.13H93.64v1.34h1.6v.4H93.17v-3.69h2v.4H93.64v1.16h1.44Z"/><path class="cls-14" d="M95.87,310.22a5.26,5.26,0,0,1,.89-.07,1.49,1.49,0,0,1,1.06.3.88.88,0,0,1,.29.7,1,1,0,0,1-.69,1h0a.9.9,0,0,1,.54.75,7.21,7.21,0,0,0,.28,1h-.49a5.33,5.33,0,0,1-.25-.89c-.1-.51-.31-.7-.73-.72h-.46v1.6h-.47Zm.47,1.69h.49c.51,0,.83-.28.83-.7s-.34-.69-.89-.7a1.93,1.93,0,0,0-.47.05Z"/><path class="cls-14" d="M101.41,313.75a2.19,2.19,0,0,1-1,.17,1.71,1.71,0,0,1-1.78-1.66v-.21a1.86,1.86,0,0,1,1.74-1.94h.15a2.26,2.26,0,0,1,.89.16l-.12.39a1.88,1.88,0,0,0-.74-.15,1.38,1.38,0,0,0-1.45,1.29,1.92,1.92,0,0,0,0,.24,1.34,1.34,0,0,0,1.18,1.48h.24a1.73,1.73,0,0,0,.78-.15Z"/><path class="cls-14" d="M103.92,312.13h-1.43v1.34h1.6v.4H102v-3.69h2v.4h-1.51v1.16h1.43Z"/><path class="cls-6" d="M102.3,324a1.85,1.85,0,0,0-1.94,1.76v-.43a1.88,1.88,0,0,0-1.78-1.9,1.86,1.86,0,0,0-1.94,1.78v-.5a1.85,1.85,0,0,0-1.85-1.85h0A1.84,1.84,0,0,0,93,324.74v-9a1.9,1.9,0,0,0-1.78-1.9,1.86,1.86,0,0,0-1.94,1.78s0,.05,0,.07v11a1.84,1.84,0,0,0-1.84-1.85h-.1a1.9,1.9,0,0,0-1.78,1.91v8.09a3.94,3.94,0,0,0,1,2.6l2.4,4.14v3.85H101.2v-3.85h0a7.81,7.81,0,0,0,2.87-6v-9.65A1.89,1.89,0,0,0,102.3,324Z"/><rect class="cls-24" x="88.92" y="341.62" width="12.28" height="3.85"/><rect class="cls-29" x="94.81" y="341.62" width="6.39" height="3.85"/><path class="cls-13" d="M168.49,84.55C160.05,81.31,154.37,89,154.37,89s-5.71-7.77-14.16-4.49c-9.79,3.79-3.21,25.52,14.16,30C171.71,110.07,178.27,88.34,168.49,84.55Z"/><path class="cls-28" d="M154.37,89s5.72-7.77,14.16-4.49c9.79,3.79,3.21,25.52-14.16,30"/><path class="cls-11" d="M180.19,298.93h-4.45a1.17,1.17,0,0,1-.83-2l3.16-3.17a1.16,1.16,0,0,0,0-1.64l0,0-5-5a1.14,1.14,0,0,0-1.63,0l0,0-3.17,3.16a1.17,1.17,0,0,1-1.65,0,1.19,1.19,0,0,1-.35-.84V285a1.17,1.17,0,0,0-1.16-1.17h-7.13a1.17,1.17,0,0,0-1.17,1.17h0v4.45a1.16,1.16,0,0,1-2,.83l-3.17-3.16a1.16,1.16,0,0,0-1.64,0l0,0-5,5a1.17,1.17,0,0,0,0,1.66l3.17,3.17a1.16,1.16,0,0,1,0,1.65,1.17,1.17,0,0,1-.83.34h-4.45a1.18,1.18,0,0,0-1.18,1.17v7.12a1.18,1.18,0,0,0,1.18,1.17h4.45a1.16,1.16,0,0,1,1.17,1.16,1.17,1.17,0,0,1-.34.83l-3.17,3.17a1.17,1.17,0,0,0,0,1.66l5,5a1.19,1.19,0,0,0,1.66,0l3.17-3.16a1.17,1.17,0,0,1,2,.81v4.46a1.17,1.17,0,0,0,1.17,1.17h7.13a1.17,1.17,0,0,0,1.16-1.17v-4.46a1.17,1.17,0,0,1,1.17-1.16,1.18,1.18,0,0,1,.83.35l3.17,3.16a1.18,1.18,0,0,0,1.65,0l5-5a1.16,1.16,0,0,0,0-1.64l0,0-3.22-3.18a1.17,1.17,0,0,1,0-1.65,1.2,1.2,0,0,1,.84-.34h4.45a1.17,1.17,0,0,0,1.17-1.17v-7.12A1.16,1.16,0,0,0,180.19,298.93Zm-17.55,13.43a8.78,8.78,0,1,1,7.55-7.56,8.78,8.78,0,0,1-7.55,7.56Z"/><path class="cls-11" d="M162.43,307.76a4.22,4.22,0,1,1,3.14-3.14A4.21,4.21,0,0,1,162.43,307.76Z"/><path class="cls-12" d="M161.5,290.77a12.89,12.89,0,1,0,12.88,12.9v0a12.88,12.88,0,0,0-12.88-12.88Zm8.67,14a8.82,8.82,0,1,1,0-2.15A9.1,9.1,0,0,1,170.17,304.77Z"/><rect class="cls-1" x="305.22" y="280.46" width="43.3" height="25.44" rx="2.58"/><path class="cls-30" d="M307.8,305.9h38.14a2.53,2.53,0,0,0,1.85-.79l-18.28-12.52a4.66,4.66,0,0,0-5.27,0l-18.3,12.52A2.57,2.57,0,0,0,307.8,305.9Z"/><path class="cls-22" d="M307.8,280.46h38.14a2.53,2.53,0,0,1,1.85.79l-18.28,12.52a4.69,4.69,0,0,1-5.27,0l-18.3-12.52A2.57,2.57,0,0,1,307.8,280.46Z"/><path class="cls-31" d="M256,240.67H153a2.15,2.15,0,0,1-2.33-1.91H258.35A2.16,2.16,0,0,1,256,240.67Z"/><path class="cls-10" d="M243.82,205.82V157a.61.61,0,0,0-.61-.6H165.76a.6.6,0,0,0-.6.6v48.78Z"/><rect class="cls-9" x="169.85" y="161.12" width="69.29" height="40.73"/><polygon class="cls-7" points="169.85 161.12 239.14 201.86 239.14 161.12 169.85 161.12"/><path class="cls-32" d="M257.34,239.49H151.64c-.82,0-1.22-.54-.89-1.19l14.43-32.48h78.66l14.43,32.48C258.54,239,258.15,239.49,257.34,239.49Z"/><polygon class="cls-33" points="246.13 222.56 162.86 222.56 169.07 207.66 239.9 207.66 246.13 222.56"/><path class="cls-33" d="M215.57,236.59H193.4c-1.55,0-2.67-1-2.53-2.2l.89-7.72c.12-1,1.35-1.84,2.75-1.84h19.88a2.6,2.6,0,0,1,2.74,1.84l.94,7.72C218.26,235.6,217.13,236.59,215.57,236.59Z"/><polygon class="cls-15" points="246.13 222.56 242.62 214.17 166.36 214.17 162.86 222.56 246.13 222.56"/><path class="cls-10" d="M179.43,168.45v9h-1.16v-9Z"/><path class="cls-10" d="M181.46,177.46v-9h1.26L185.6,173a27.67,27.67,0,0,1,1.61,2.92h0c-.11-1.2-.14-2.29-.14-3.69v-3.76h1.13v9H187l-2.85-4.55a28.54,28.54,0,0,1-1.68-3h0c.06,1.14.09,2.22.09,3.72v3.84Z"/><path class="cls-10" d="M191.93,169.45h-2.74v-1h6.65v1H193.1v8h-1.17Z"/><path class="cls-10" d="M201.5,173.23H198v3.23h3.89v1h-5v-9h4.85v1H198v2.84h3.49Z"/><path class="cls-10" d="M203.4,168.56a12.83,12.83,0,0,1,2.23-.19,3.72,3.72,0,0,1,2.6.74,2.23,2.23,0,0,1,.7,1.7,2.36,2.36,0,0,1-1.69,2.3h0a2.23,2.23,0,0,1,1.32,1.78,15.08,15.08,0,0,0,.69,2.47h-1.19a12.52,12.52,0,0,1-.61-2.15c-.26-1.25-.74-1.71-1.78-1.78h-1.09v4h-1.16Zm1.16,4.1h1.19c1.24,0,2-.69,2-1.71s-.83-1.67-2.06-1.68a4.93,4.93,0,0,0-1.15.11Z"/><path class="cls-10" d="M210.58,177.46v-9h1.26l2.88,4.54a25.13,25.13,0,0,1,1.61,2.92h0c-.11-1.2-.14-2.29-.14-3.69v-3.76h1.1v9h-1.18l-2.84-4.55a30.54,30.54,0,0,1-1.69-3h0c.07,1.14.09,2.22.09,3.72v3.84Z"/><path class="cls-10" d="M224,173.23H220.5v3.23h3.89v1h-5v-9h4.86v1h-3.7v2.84H224Z"/><path class="cls-10" d="M227.82,169.45h-2.73v-1h6.65v1H229v8h-1.18Z"/><path class="cls-10" d="M183,188.84c0,3.1-1.88,4.74-4.18,4.74s-4-1.85-4-4.56c0-2.86,1.78-4.72,4.17-4.72S183,186.18,183,188.84Zm-7,.15c0,1.92,1,3.63,2.86,3.63s2.88-1.69,2.88-3.73c0-1.78-.93-3.65-2.87-3.65S176,187,176,189Z"/><path class="cls-10" d="M184.48,184.44h4.84v1h-3.68v3H189v1h-3.4v4.06h-1.16Z"/><path class="cls-10" d="M195,185.48h-2.73v-1h6.66v1h-2.74v8H195Z"/><path class="cls-10" d="M201,184.44v3.76h4.34v-3.76h1.17v9h-1.17v-4.22H201v4.22h-1.16v-9Z"/><path class="cls-10" d="M209.73,184.44v9h-1.17v-9Z"/><path class="cls-10" d="M211.75,193.43v-9H213L215.9,189a25.13,25.13,0,0,1,1.61,2.92h0c-.1-1.2-.13-2.29-.13-3.69v-3.76h1.09v9H217.3l-2.85-4.55a28.4,28.4,0,0,1-1.68-3h-.05c.07,1.13.1,2.21.1,3.71v3.83Z"/><path class="cls-10" d="M227.38,193a8.15,8.15,0,0,1-2.76.49,4.2,4.2,0,0,1-4.6-3.78,4.7,4.7,0,0,1,0-.75,4.51,4.51,0,0,1,4.86-4.64,5.53,5.53,0,0,1,2.24.41l-.28,1a4.65,4.65,0,0,0-2-.4,3.38,3.38,0,0,0-3.62,3.1,4.51,4.51,0,0,0,0,.52,3.29,3.29,0,0,0,3.47,3.62,3.76,3.76,0,0,0,1.55-.24v-2.67h-1.83v-.93h3Z"/><path class="cls-10" d="M229,192a4.23,4.23,0,0,0,2.08.58c1.19,0,1.88-.63,1.88-1.53s-.48-1.32-1.69-1.78c-1.47-.53-2.38-1.29-2.38-2.55a2.68,2.68,0,0,1,2.91-2.44,4.17,4.17,0,0,1,2,.44l-.32.95a3.64,3.64,0,0,0-1.71-.43c-1.22,0-1.69.73-1.69,1.35,0,.83.55,1.25,1.78,1.72,1.52.59,2.29,1.33,2.29,2.67s-1,2.59-3.15,2.59a4.65,4.65,0,0,1-2.28-.57Z"/><path class="cls-34" d="M221.28,109.26A33.23,33.23,0,1,1,254.5,76,33.23,33.23,0,0,1,221.28,109.26Zm0-65.56A32.34,32.34,0,1,0,253.61,76,32.34,32.34,0,0,0,221.28,43.7Z"/><path class="cls-34" d="M91.9,98.27a30.44,30.44,0,1,1,30.42-30.44h0A30.45,30.45,0,0,1,91.9,98.27Zm0-60a29.55,29.55,0,1,0,29.53,29.55h0A29.58,29.58,0,0,0,91.9,38.3Z"/><path class="cls-34" d="M285,379.55a29.62,29.62,0,1,1,29.63-29.66A29.62,29.62,0,0,1,285,379.55Zm0-58.34a28.73,28.73,0,1,0,28.74,28.72v0A28.75,28.75,0,0,0,285,321.16Z"/><path class="cls-34" d="M294.26,158.68a35.61,35.61,0,1,1,35.61-35.61A35.61,35.61,0,0,1,294.26,158.68Zm0-70.33A34.72,34.72,0,1,0,329,123.07a34.72,34.72,0,0,0-34.72-34.72Z"/><path class="cls-34" d="M51.59,229.65a29,29,0,1,1,29-29h0A29,29,0,0,1,51.59,229.65Zm0-57.07a28.09,28.09,0,1,0,28.09,28.09,28.09,28.09,0,0,0-28.09-28.09Z"/><path class="cls-34" d="M101.66,276.52a30,30,0,1,1,30-30h0A30,30,0,0,1,101.66,276.52Zm0-59.07a29.09,29.09,0,1,0,29.1,29.09,29.08,29.08,0,0,0-29.1-29.09Z"/><path class="cls-34" d="M90.77,355.24a31.59,31.59,0,1,1,31.55-31.62v0A31.61,31.61,0,0,1,90.77,355.24Zm0-62.27a30.7,30.7,0,1,0,30.66,30.73v-.05A30.71,30.71,0,0,0,90.77,293Z"/><path class="cls-34" d="M96,182.06a33.15,33.15,0,1,1,33.14-33.15h0A33.18,33.18,0,0,1,96,182.06Zm0-65.4a32.26,32.26,0,1,0,32.25,32.25h0A32.29,32.29,0,0,0,96,116.66Z"/><path class="cls-34" d="M202.88,389.76a29.06,29.06,0,1,1,29.05-29.06v0A29.08,29.08,0,0,1,202.88,389.76Zm0-57.21A28.17,28.17,0,1,0,231,360.72h0A28.2,28.2,0,0,0,202.88,332.55Z"/><path class="cls-34" d="M239.84,328.26a26.61,26.61,0,1,1,26.6-26.6A26.6,26.6,0,0,1,239.84,328.26Zm0-52.32a25.72,25.72,0,1,0,25.71,25.72A25.72,25.72,0,0,0,239.84,275.94Z"/><path class="cls-34" d="M312.11,244.87a27.15,27.15,0,1,1,27.15-27.15h0A27.16,27.16,0,0,1,312.11,244.87Zm0-53.41a26.26,26.26,0,1,0,26.26,26.26h0a26.27,26.27,0,0,0-26.26-26.25Z"/><path class="cls-34" d="M354.26,190.49a27.83,27.83,0,1,1,27.82-27.84h0A27.87,27.87,0,0,1,354.26,190.49Zm0-54.77a26.94,26.94,0,1,0,26.93,26.95h0A27,27,0,0,0,354.26,135.72Z"/><path class="cls-34" d="M154.37,123.07a26.32,26.32,0,1,1,26.31-26.33h0A26.34,26.34,0,0,1,154.37,123.07Zm0-51.74a25.43,25.43,0,1,0,25.42,25.44v0A25.44,25.44,0,0,0,154.37,71.33Z"/><path class="cls-34" d="M291.6,68.2a27.72,27.72,0,1,1,27.71-27.73h0A27.74,27.74,0,0,1,291.6,68.2Zm0-54.55A26.84,26.84,0,1,0,318.42,40.5v0A26.85,26.85,0,0,0,291.6,13.65Z"/><path class="cls-34" d="M161.5,331.31a27.66,27.66,0,1,1,27.59-27.72v.07A27.68,27.68,0,0,1,161.5,331.31Zm0-54.42a26.77,26.77,0,1,0,26.7,26.83v-.06A26.79,26.79,0,0,0,161.5,276.89Z"/><path class="cls-34" d="M326.87,322.58a29.45,29.45,0,1,1,29.43-29.45v.07A29.46,29.46,0,0,1,326.87,322.58Zm0-58a28.56,28.56,0,1,0,28.54,28.61,28.56,28.56,0,0,0-28.54-28.61Z"/><path class="cls-34" d="M204.49,275A76.48,76.48,0,1,1,281,198.55,76.48,76.48,0,0,1,204.49,275Zm0-152.06a75.59,75.59,0,1,0,75.58,75.58A75.58,75.58,0,0,0,204.49,123Z"/><path class="cls-34" d="M41.14,174.57a.38.38,0,0,1-.15,0,.46.46,0,0,1-.27-.58l31.5-83.33a.44.44,0,0,1,.86.22.32.32,0,0,1,0,.09L41.56,174.28A.44.44,0,0,1,41.14,174.57Z"/><path class="cls-34" d="M119.37,56.24a.44.44,0,0,1-.45-.42h0a.45.45,0,0,1,.44-.46h0l76.56-.59h0a.45.45,0,0,1,.45.44.45.45,0,0,1-.45.45l-76.56.59Z"/><path class="cls-34" d="M134.25,169.84h-.16l-10-4.05a.43.43,0,0,1-.32-.54.44.44,0,0,1,.54-.32l.1,0,10,4a.45.45,0,1,1-.17.89Z"/><path class="cls-34" d="M117.35,124.59a.48.48,0,0,1-.38-.2.45.45,0,0,1,.14-.62L134,112.68a.45.45,0,0,1,.62.12.46.46,0,0,1-.13.63L117.6,124.52A.55.55,0,0,1,117.35,124.59Z"/><path class="cls-34" d="M96,116.66a.43.43,0,0,1-.43-.35L91.46,97.93a.46.46,0,1,1,.89-.2l4.12,18.38a.45.45,0,0,1-.33.54H96Z"/><path class="cls-34" d="M132.12,84a.48.48,0,0,1-.17,0l-12.22-4.91a.46.46,0,0,1-.25-.58.45.45,0,0,1,.58-.25l12.22,4.92a.45.45,0,0,1,.25.58h0A.46.46,0,0,1,132.12,84Z"/><path class="cls-34" d="M80.12,201.12a.45.45,0,1,1,0-.89l48.34-2.12a.45.45,0,0,1,.46.43h0a.44.44,0,0,1-.42.46h0l-48.33,2.12Z"/><path class="cls-34" d="M63.32,175.1a.4.4,0,0,1-.35-.17.44.44,0,0,1,.07-.62l7-5.51a.44.44,0,0,1,.61.12.43.43,0,0,1-.07.58L63.57,175A.38.38,0,0,1,63.32,175.1Z"/><path class="cls-34" d="M80.12,226.78a.45.45,0,0,1-.26-.09l-8-5.85a.45.45,0,0,1-.1-.63.44.44,0,0,1,.62-.09l8,5.84a.46.46,0,0,1,.1.63A.44.44,0,0,1,80.12,226.78Z"/><path class="cls-34" d="M142.08,285a.53.53,0,0,1-.29-.1l-20.16-16.53a.45.45,0,0,1-.06-.63.43.43,0,0,1,.62-.06h0l20.16,16.53a.46.46,0,0,1,.07.63A.48.48,0,0,1,142.08,285Z"/><path class="cls-34" d="M90.77,293h-.13a.45.45,0,0,1-.29-.56l5.27-17a.47.47,0,0,1,.89.27l-5.34,17A.48.48,0,0,1,90.77,293Z"/><path class="cls-34" d="M129.26,236.45a.42.42,0,0,1-.39-.24.44.44,0,0,1,.19-.6h0l7.13-3.56a.44.44,0,0,1,.61.15.45.45,0,0,1-.15.61l-.06,0-7.13,3.6A.44.44,0,0,1,129.26,236.45Z"/><path class="cls-34" d="M121,316.67a.47.47,0,0,1-.51-.39.46.46,0,0,1,.39-.51l14.62-3.88a.47.47,0,0,1,.56.34.46.46,0,0,1-.34.55l-14.61,3.89Z"/><path class="cls-34" d="M174.85,355.24h-.12l-57.41-15.09a.46.46,0,0,1-.33-.56.46.46,0,0,1,.55-.33L175,354.35a.45.45,0,0,1-.12.89Z"/><path class="cls-34" d="M174.7,280.32a.34.34,0,0,1-.22-.07.43.43,0,0,1-.17-.59h0l5.5-9.26a.44.44,0,0,1,.76.45l-5.5,9.26A.43.43,0,0,1,174.7,280.32Z"/><path class="cls-34" d="M188.68,304.1a.45.45,0,1,1,0-.89l25-2a.44.44,0,0,1,.48.41h0a.46.46,0,0,1-.41.48l-25,2Z"/><path class="cls-34" d="M239.84,275.94a.42.42,0,0,1-.32-.13l-6.39-6.65a.44.44,0,0,1,0-.63h0a.43.43,0,0,1,.61,0h0l6.39,6.63a.44.44,0,0,1,0,.63h0A.44.44,0,0,1,239.84,275.94Z"/><path class="cls-34" d="M217.39,336.5a.5.5,0,0,1-.27-.08.46.46,0,0,1-.1-.62l8.77-12.13a.45.45,0,1,1,.72.53h0l-8.77,12.11A.42.42,0,0,1,217.39,336.5Z"/><path class="cls-34" d="M268.48,326.28a.42.42,0,0,1-.28-.1l-8.85-7.12a.44.44,0,0,1-.07-.62.47.47,0,0,1,.64-.07l8.84,7.12a.44.44,0,0,1-.28.78Z"/><path class="cls-34" d="M231.48,361.16a.43.43,0,0,1-.47-.42.45.45,0,0,1,.42-.47l25.33-3.2a.45.45,0,0,1,.49.4.43.43,0,0,1-.39.49l-25.34,3.2Z"/><path class="cls-34" d="M305.22,329.32a.43.43,0,0,1-.27-.1.45.45,0,0,1-.08-.63l8-10.13a.44.44,0,0,1,.62-.07.43.43,0,0,1,.08.61v0l-8,10.13A.43.43,0,0,1,305.22,329.32Z"/><path class="cls-34" d="M297.88,293.63h-.07l-36-5.66a.46.46,0,0,1-.38-.51.45.45,0,0,1,.51-.37l36,5.65a.45.45,0,0,1,.41.48.45.45,0,0,1-.48.41Z"/><path class="cls-34" d="M285.85,213.37a.48.48,0,0,1-.24-.07l-6.05-4a.46.46,0,0,1-.18-.6.45.45,0,0,1,.6-.19l.07,0,6.05,4a.45.45,0,0,1-.25.82Z"/><path class="cls-34" d="M319.71,265.53a.44.44,0,0,1-.42-.3l-7.6-20.64A.46.46,0,0,1,312,244a.45.45,0,0,1,.57.27l7.59,20.64a.46.46,0,0,1-.26.58Z"/><path class="cls-34" d="M327.74,196.53a.42.42,0,0,1-.31-.13.45.45,0,0,1,0-.63h0L338.51,185a.43.43,0,0,1,.63,0h0a.45.45,0,0,1,0,.63l-11.07,10.82A.45.45,0,0,1,327.74,196.53Z"/><path class="cls-34" d="M178.64,88.36a.44.44,0,0,1-.41-.3.45.45,0,0,1,.26-.57l10.8-4a.44.44,0,0,1,.6.19.45.45,0,0,1-.19.6l-.1,0-10.8,4A.41.41,0,0,1,178.64,88.36Z"/><path class="cls-34" d="M264.06,105.51a.48.48,0,0,1-.29-.1L249.29,92.89a.45.45,0,1,1,.58-.68l14.48,12.46a.45.45,0,0,1,0,.63.46.46,0,0,1-.34.16Z"/><path class="cls-34" d="M215.46,123.76h-.16a.45.45,0,0,1-.25-.58h0l5.81-14.49a.45.45,0,0,1,.58-.25h0a.45.45,0,0,1,.25.58h0l-5.81,14.49A.44.44,0,0,1,215.46,123.76Z"/><path class="cls-34" d="M329.42,151.8a.44.44,0,0,1-.27-.09l-7.92-6.06a.43.43,0,0,1-.08-.62.45.45,0,0,1,.62-.09l7.92,6.06a.45.45,0,0,1,.08.63A.46.46,0,0,1,329.42,151.8Z"/><path class="cls-34" d="M301.11,89a.44.44,0,0,1-.44-.35l-4.2-21.37a.43.43,0,0,1,.32-.51h0a.44.44,0,0,1,.52.34h0l4.2,21.37a.44.44,0,0,1-.34.52h-.09Z"/><path class="cls-34" d="M247.06,56.24a.43.43,0,0,1-.44-.35.45.45,0,0,1,.35-.53h0l19.74-4a.45.45,0,0,1,.18.89l-19.74,4Z"/><path class="cls-34" d="M70.89,300.14a.43.43,0,0,1-.43-.33l-19.3-70.49a.45.45,0,0,1,.33-.56.46.46,0,0,1,.56.33h0l19.26,70.49a.44.44,0,0,1-.3.55h-.12Z"/><path class="cls-34" d="M255.86,280.9a.43.43,0,0,1-.29-.74h0l37.9-42.51a.44.44,0,0,1,.62,0,.43.43,0,0,1,0,.62h0l-37.94,42.45A.39.39,0,0,1,255.86,280.9Z"/><path class="cls-34" d="M343.84,270.12h-.09a.43.43,0,0,1-.35-.49v0l15.66-79.68a.45.45,0,0,1,.53-.36.44.44,0,0,1,.36.53l-15.66,79.64A.44.44,0,0,1,343.84,270.12Z"/><path class="cls-34" d="M277.89,179.14a.45.45,0,0,1-.09-.89h0l49.85-9.13a.45.45,0,0,1,.53.35h0a.44.44,0,0,1-.36.51h0L278,179.13Z"/><path class="cls-34" d="M174.35,129.18A.44.44,0,0,1,174,129l-6.18-10.14a.44.44,0,0,1,.15-.61h0a.43.43,0,0,1,.6.14h0l6.17,10.13a.45.45,0,0,1-.17.62.65.65,0,0,1-.21.06Z"/><path class="cls-34" d="M190.88,335.19a.43.43,0,0,1-.32-.12l-11.1-10.94a.45.45,0,0,1,0-.63h0a.45.45,0,0,1,.63,0h0l11.11,10.94a.44.44,0,0,1,0,.62h0A.48.48,0,0,1,190.88,335.19Z"/></g></svg>