<svg xmlns="http://www.w3.org/2000/svg" viewBox="0 0 400 400"><defs><style>.cls-1{fill:#ccc;}.cls-2{fill:#a6a6a6;}.cls-3{fill:#dbdbdb;}.cls-4{fill:#f8f1f0;}.cls-5{fill:#ff7643;}.cls-6{fill:#d7542d;}.cls-7{fill:#f0f0f0;}.cls-8{fill:#ffbb42;}.cls-9{fill:#3c4a4d;}.cls-10,.cls-12{fill:#fff;}.cls-10,.cls-29,.cls-31{opacity:0.2;}.cls-11{fill:#ffd159;}.cls-12,.cls-25,.cls-27{opacity:0.3;}.cls-13{fill:#a6a6a8;}.cls-14{fill:#cfcfd1;}.cls-15,.cls-31{fill:#00d3e8;}.cls-16{fill:#f2f2f2;}.cls-17{fill:#b1bdbf;}.cls-18{fill:#254048;}.cls-19{fill:#007c88;}.cls-20{fill:#00bec8;}.cls-21{fill:#cdf4f4;}.cls-22{fill:#758789;}.cls-23{fill:#96dc73;}.cls-24{fill:#e0e2e6;}.cls-26{fill:#54666f;}.cls-28{fill:#ffb736;}.cls-30{opacity:0.5;}</style></defs><g id="Internet_of_things" data-name="Internet of things"><circle class="cls-1" cx="195.92" cy="196.85" r="152.58" transform="translate(-81.81 196.19) rotate(-45)"/><path class="cls-2" d="M193.4,360.91c-1.39,0-2.78-.06-4.16-.11l.12-3.1c1.36.05,2.72.09,4.09.11Zm6.25,0-.08-3.1c1.37,0,2.73-.08,4.09-.15l.15,3.11C202.43,360.81,201,360.86,199.65,360.89ZM183,360.43c-1.38-.11-2.77-.23-4.14-.37l.31-3.09c1.36.14,2.71.26,4.07.37Zm27-.1-.26-3.09c1.36-.12,2.71-.25,4.06-.4l.34,3.09C212.81,360.08,211.43,360.22,210,360.33Zm-37.38-1c-1.38-.2-2.75-.41-4.12-.64l.52-3.07c1.34.23,2.68.44,4,.63Zm47.72-.18-.46-3.07c1.35-.2,2.69-.42,4-.66l.54,3.06C223.12,358.69,221.75,358.92,220.38,359.12Zm-58-1.61c-1.36-.29-2.71-.59-4.06-.9l.7-3c1.33.31,2.66.61,4,.88Zm68.22-.25-.65-3c1.33-.29,2.66-.59,4-.91l.73,3C233.33,356.65,232,357,230.62,357.26Zm-78.34-2.19c-1.34-.37-2.67-.76-4-1.16l.9-3c1.3.39,2.61.77,3.92,1.13Zm88.44-.33-.84-3c1.31-.37,2.61-.76,3.91-1.16l.92,3C243.39,354,242.06,354.36,240.72,354.74ZM142.32,352c-1.32-.46-2.63-.93-3.93-1.42l1.09-2.9c1.27.47,2.56.93,3.85,1.38Zm108.32-.39-1-2.93c1.28-.46,2.56-.93,3.83-1.41l1.11,2.9C253.26,350.64,252,351.12,250.64,351.59Zm-118.08-3.34c-1.28-.53-2.56-1.09-3.82-1.66l1.27-2.83c1.24.56,2.49,1.1,3.76,1.63Zm127.76-.44L259.11,345c1.24-.53,2.49-1.08,3.72-1.64l1.29,2.82C262.86,346.71,261.6,347.27,260.32,347.81Zm-137.24-3.89c-1.25-.62-2.49-1.26-3.72-1.91l1.45-2.74c1.21.63,2.42,1.26,3.64,1.86Zm146.66-.49-1.4-2.77c1.21-.62,2.42-1.24,3.61-1.89l1.47,2.74C272.2,342.16,271,342.8,269.74,343.43ZM113.89,339c-1.21-.7-2.4-1.41-3.59-2.14l1.62-2.65c1.17.72,2.34,1.41,3.52,2.1Zm165-.53-1.57-2.68c1.17-.69,2.34-1.39,3.49-2.11l1.64,2.64C281.24,337,280.06,337.76,278.86,338.46Zm-173.83-5c-1.15-.77-2.3-1.56-3.44-2.35l1.79-2.54c1.12.78,2.24,1.55,3.38,2.31Zm182.62-.57-1.73-2.57c1.12-.76,2.24-1.54,3.35-2.33l1.8,2.53Q289.38,331.76,287.65,332.91Zm-191.1-5.48c-1.11-.84-2.2-1.69-3.28-2.56l1.94-2.43c1.06.86,2.14,1.7,3.22,2.52Zm199.53-.61-1.9-2.46c1.08-.83,2.15-1.67,3.2-2.53l2,2.41C298.27,325.12,297.18,326,296.08,326.82Zm-207.61-6c-1-.91-2.09-1.83-3.11-2.77l2.09-2.29c1,.92,2,1.82,3.06,2.71Zm215.64-.65-2.05-2.33c1-.9,2-1.81,3-2.73l2.11,2.28C306.19,318.37,305.16,319.3,304.11,320.21ZM80.82,313.8c-1-1-2-2-2.93-3l2.24-2.16c.94,1,1.9,1.95,2.87,2.9Zm230.89-.7-2.19-2.2c1-1,1.92-1.93,2.86-2.91l2.25,2.14C313.67,311.13,312.7,312.12,311.71,313.1ZM73.64,306.26c-.93-1-1.84-2.07-2.74-3.13l2.37-2c.88,1,1.78,2.06,2.68,3.07Zm245.21-.73-2.32-2.06q1.35-1.53,2.67-3.09l2.37,2C320.68,303.44,319.77,304.49,318.85,305.53ZM67,298.3c-.86-1.09-1.7-2.19-2.53-3.3l2.48-1.86q1.23,1.64,2.49,3.24Zm258.55-.78-2.45-1.91c.84-1.08,1.66-2.16,2.47-3.26l2.5,1.84C327.19,295.31,326.36,296.42,325.5,297.52ZM60.78,289.93c-.79-1.14-1.56-2.29-2.32-3.45l2.6-1.7c.74,1.14,1.5,2.27,2.27,3.39Zm270.86-.84-2.57-1.74c.77-1.13,1.52-2.27,2.26-3.41l2.61,1.68C333.19,286.79,332.42,288,331.64,289.09Zm-276.5-7.9c-.71-1.18-1.41-2.38-2.09-3.59l2.7-1.53c.67,1.18,1.36,2.36,2.06,3.53Zm282.09-.89-2.68-1.58c.7-1.18,1.38-2.36,2-3.55l2.72,1.51C338.63,277.9,337.93,279.1,337.23,280.3ZM50.08,272.12c-.63-1.23-1.25-2.47-1.86-3.71l2.8-1.36c.59,1.22,1.2,2.44,1.82,3.64Zm292.17-1-2.77-1.41c.62-1.21,1.22-2.44,1.81-3.67l2.8,1.34C343.5,268.67,342.88,269.92,342.25,271.16ZM45.61,262.75c-.56-1.27-1.1-2.54-1.62-3.82l2.87-1.18q.78,1.89,1.59,3.75Zm301.07-1-2.85-1.22c.54-1.26,1.06-2.52,1.57-3.79l2.89,1.16C347.77,259.15,347.23,260.44,346.68,261.71ZM41.73,253.1c-.47-1.3-.93-2.61-1.37-3.93l2.94-1c.44,1.29.89,2.58,1.35,3.86ZM350.5,252l-2.92-1c.46-1.29.9-2.58,1.33-3.88l2.95,1C351.42,249.37,351,250.69,350.5,252Zm-312-8.79c-.39-1.33-.77-2.66-1.12-4l3-.8c.35,1.32.72,2.63,1.1,3.94Zm315.21-1.14-3-.85c.38-1.31.74-2.62,1.08-3.94l3,.77C354.44,239.4,354.07,240.74,353.69,242.07ZM35.87,233.14c-.31-1.36-.6-2.71-.87-4.08l3-.6c.27,1.33.55,2.67.85,4ZM356.23,232l-3-.66c.29-1.33.56-2.67.82-4l3.05.59Q356.68,229.94,356.23,232ZM33.9,222.91c-.22-1.36-.42-2.74-.61-4.12l3.08-.41c.18,1.35.38,2.7.59,4Zm324.23-1.17-3.08-.47c.21-1.34.4-2.69.57-4l3.08.39C358.53,219,358.33,220.37,358.13,221.74ZM32.58,212.59c-.13-1.38-.24-2.77-.34-4.15l3.1-.22c.09,1.36.21,2.72.33,4.07Zm326.78-1.18-3.09-.28c.12-1.35.22-2.71.31-4.07l3.1.19C359.59,208.64,359.49,210,359.36,211.41ZM31.92,202.2c0-1.38-.07-2.77-.08-4.16L35,198c0,1.36,0,2.72.08,4.08ZM360,201l-3.11-.08c0-1.36.06-2.72.06-4.09v-.29H360v.29C360,198.24,360,199.63,360,201ZM35,191.89l-3.11-.1c.05-1.39.11-2.77.18-4.16l3.1.18C35.12,189.16,35.06,190.52,35,191.89Zm321.75-1.45c0-1.36-.12-2.73-.21-4.08l3.1-.2c.09,1.38.16,2.77.21,4.16ZM35.65,181.69l-3.09-.29c.13-1.38.27-2.76.44-4.14l3.08.37C35.92,179,35.77,180.33,35.65,181.69Zm320.4-1.44c-.14-1.36-.29-2.71-.47-4.06l3.08-.39q.27,2.05.48,4.14ZM36.92,171.56l-3.07-.48c.22-1.38.45-2.74.7-4.11l3.06.56C37.36,168.87,37.13,170.21,36.92,171.56Zm317.77-1.43c-.23-1.34-.47-2.69-.73-4l3.05-.59c.27,1.36.51,2.73.74,4.1Zm-315.86-8.6-3-.68q.45-2,1-4l3,.75C39.44,158.87,39.13,160.2,38.83,161.53Zm313.86-1.41c-.31-1.33-.64-2.65-1-4l3-.78c.35,1.34.68,2.69,1,4ZM41.38,151.64l-3-.87c.39-1.34.79-2.66,1.22-4l3,.94C42.16,149,41.76,150.33,41.38,151.64Zm308.67-1.39c-.4-1.3-.81-2.6-1.23-3.89l2.95-1c.43,1.32.85,2.64,1.25,4ZM44.56,141.92l-2.92-1.06c.48-1.31,1-2.62,1.48-3.91L46,138.08C45.51,139.35,45,140.63,44.56,141.92Zm302.23-1.35c-.48-1.27-1-2.54-1.48-3.81l2.88-1.15c.52,1.28,1,2.58,1.5,3.88ZM48.36,132.41l-2.84-1.24c.55-1.28,1.13-2.55,1.72-3.81l2.81,1.32C49.47,129.91,48.91,131.16,48.36,132.41Zm294.56-1.27c-.56-1.24-1.13-2.47-1.71-3.7l2.8-1.34c.59,1.25,1.18,2.51,1.74,3.77Zm-290.16-8L50,121.75c.64-1.24,1.29-2.47,2-3.69l2.72,1.49C54,120.75,53.38,122,52.76,123.17ZM338.46,122c-.63-1.2-1.28-2.4-1.94-3.58l2.71-1.52c.67,1.21,1.33,2.43,2,3.65ZM57.73,114.23l-2.66-1.6c.72-1.19,1.45-2.37,2.19-3.55l2.62,1.67C59.15,111.9,58.44,113.06,57.73,114.23Zm275.7-1.11c-.71-1.17-1.43-2.32-2.17-3.46l2.61-1.68c.75,1.16,1.49,2.33,2.21,3.52ZM63.27,105.63l-2.56-1.76c.79-1.15,1.59-2.28,2.41-3.4l2.51,1.82C64.83,103.39,64,104.51,63.27,105.63Zm264.57-1c-.78-1.11-1.57-2.22-2.38-3.31l2.5-1.85c.82,1.12,1.63,2.24,2.43,3.38ZM69.33,97.4l-2.44-1.92c.86-1.09,1.73-2.17,2.62-3.24l2.39,2C71,95.27,70.17,96.33,69.33,97.4Zm252.4-1c-.85-1.07-1.71-2.12-2.59-3.16l2.38-2c.89,1.06,1.77,2.13,2.63,3.22ZM75.9,89.57,73.58,87.5c.93-1,1.87-2.06,2.82-3.07l2.26,2.13C77.73,87.55,76.8,88.56,75.9,89.57Zm239.21-.92c-.92-1-1.85-2-2.79-3l2.25-2.15c1,1,1.9,2,2.84,3ZM82.94,82.18,80.76,80c1-1,2-1.94,3-2.89l2.12,2.27C84.9,80.28,83.91,81.22,82.94,82.18ZM308,81.31c-1-1-2-1.89-3-2.81l2.1-2.28c1,.94,2,1.89,3,2.86ZM90.44,75.25l-2-2.35c1-.91,2.11-1.81,3.18-2.69l2,2.4Q92,73.9,90.44,75.25Zm210-.82c-1-.89-2.08-1.76-3.14-2.62l2-2.41c1.08.88,2.15,1.77,3.2,2.67ZM98.35,68.8l-1.88-2.47c1.1-.84,2.21-1.67,3.34-2.48l1.82,2.52C100.53,67.16,99.43,68,98.35,68.8ZM292.48,68c-1.09-.82-2.19-1.62-3.3-2.42L291,63.1q1.69,1.2,3.36,2.46ZM106.66,62.87l-1.73-2.58c1.15-.77,2.32-1.53,3.49-2.27l1.66,2.63C108.93,61.37,107.79,62.12,106.66,62.87Zm177.45-.71c-1.14-.74-2.29-1.48-3.44-2.2l1.63-2.64c1.18.74,2.35,1.48,3.52,2.25Zm-168.8-4.68-1.56-2.69q1.8-1,3.63-2l1.48,2.73C117.67,56.13,116.49,56.8,115.31,57.48Zm160.08-.65c-1.19-.68-2.38-1.34-3.58-2l1.46-2.74c1.23.66,2.45,1.33,3.65,2Zm-151.1-4.18-1.39-2.78c1.24-.62,2.49-1.21,3.74-1.8L128,50.88C126.72,51.46,125.5,52.05,124.29,52.65Zm142-.6c-1.23-.59-2.46-1.18-3.7-1.74l1.28-2.83c1.27.58,2.53,1.17,3.78,1.78Zm-132.8-3.64-1.2-2.87c1.27-.53,2.56-1,3.85-1.56l1.13,2.9Q135.42,47.61,133.54,48.41ZM257,47.87c-1.26-.52-2.53-1-3.81-1.51l1.1-2.9c1.31.49,2.6,1,3.89,1.53ZM143.06,44.75l-1-2.93c1.3-.46,2.62-.89,3.95-1.32l.94,3C145.64,43.88,144.35,44.31,143.06,44.75Zm104.35-.47c-1.3-.43-2.6-.85-3.91-1.26l.92-3c1.33.41,2.66.84,4,1.28Zm-94.6-2.57-.83-3c1.34-.37,2.68-.73,4-1.06l.75,3C155.44,41,154.12,41.35,152.81,41.71Zm84.8-.38c-1.31-.35-2.63-.69-4-1l.72-3c1.35.33,2.7.67,4,1Zm-74.87-2-.64-3c1.36-.28,2.72-.55,4.09-.8l.56,3C165.4,38.76,164.07,39,162.74,39.3Zm64.93-.3q-2-.39-4-.75l.54-3c1.36.23,2.73.49,4.09.76Zm-54.88-1.48-.44-3.07c1.37-.2,2.75-.38,4.13-.54l.36,3.08C175.49,37.15,174.14,37.33,172.79,37.52Zm44.81-.2c-1.35-.18-2.7-.34-4.06-.49l.34-3.09c1.38.15,2.76.32,4.13.5Zm-34.66-.93-.24-3.09c1.38-.11,2.76-.21,4.15-.28l.17,3.1Q185,36.22,182.94,36.39Zm24.5-.11q-2-.14-4.08-.24l.14-3.1c1.39.07,2.78.15,4.16.24Zm-14.29-.38-.06-3.11,2.83,0h1.34l0,3.11h-1.31C195,35.87,194.07,35.88,193.15,35.9Z"/><path class="cls-3" d="M252.58,135a15.13,15.13,0,0,0,.35-3.29,15.36,15.36,0,0,0-.35-3.3L259,122l-2.51-4.35-8.77,2.32A16.31,16.31,0,0,0,245,118a16.1,16.1,0,0,0-3-1.35l-2.39-8.76h-5l-2.38,8.76a16.1,16.1,0,0,0-3,1.35,15.43,15.43,0,0,0-2.67,1.94l-8.78-2.32L215.23,122l6.39,6.43a16,16,0,0,0-.34,3.3,15.77,15.77,0,0,0,.34,3.29l-6.39,6.45,2.51,4.35,8.78-2.33a15.68,15.68,0,0,0,5.7,3.3l2.38,8.75h5l2.39-8.75a16.1,16.1,0,0,0,3-1.35,17,17,0,0,0,2.68-1.95l8.77,2.33,2.51-4.35Zm-10.22,5.83a10.53,10.53,0,1,1,5.27-9.12A10.55,10.55,0,0,1,242.36,140.8Z"/><path class="cls-3" d="M265.16,278.74a31.71,31.71,0,0,0,8.61-2.66,27.77,27.77,0,0,0,0-4.65,31.6,31.6,0,0,0-8.61-2.67,23.44,23.44,0,0,0-1-3.2,22.86,22.86,0,0,0-1.53-3,31.56,31.56,0,0,0,4.2-8,27.55,27.55,0,0,0-3.29-3.28,31.35,31.35,0,0,0-8,4.2,24.25,24.25,0,0,0-3-1.54,23.86,23.86,0,0,0-3.2-1,31.85,31.85,0,0,0-2.67-8.61,28.87,28.87,0,0,0-4.65,0,32.13,32.13,0,0,0-2.67,8.62,25.38,25.38,0,0,0-3.2,1,23.6,23.6,0,0,0-3,1.54,31.67,31.67,0,0,0-8-4.2,28.4,28.4,0,0,0-3.29,3.29,31.52,31.52,0,0,0,4.2,8,22.86,22.86,0,0,0-1.53,3,22.1,22.1,0,0,0-1,3.2,31.88,31.88,0,0,0-8.62,2.66,28.88,28.88,0,0,0,0,4.65,31.6,31.6,0,0,0,8.61,2.67,21.41,21.41,0,0,0,2.57,6.2,31.41,31.41,0,0,0-4.2,8,28.4,28.4,0,0,0,3.29,3.29,31.37,31.37,0,0,0,8-4.21,23.6,23.6,0,0,0,3,1.54,23.86,23.86,0,0,0,3.2,1,31.82,31.82,0,0,0,2.66,8.61,27.89,27.89,0,0,0,4.66,0,32.23,32.23,0,0,0,2.68-8.61,24.68,24.68,0,0,0,3.19-1,24.18,24.18,0,0,0,3-1.53,31.64,31.64,0,0,0,8,4.19,26.22,26.22,0,0,0,3.29-3.29,31.84,31.84,0,0,0-4.2-8,22.86,22.86,0,0,0,1.53-3A21.71,21.71,0,0,0,265.16,278.74Zm-15.5,7.83a13.88,13.88,0,1,1,7.51-7.51A13.89,13.89,0,0,1,249.66,286.57Z"/><path class="cls-3" d="M322.11,195.65h-.73v-5.8a10.84,10.84,0,0,0-21.68,0v5.8h-.53a2.57,2.57,0,0,0-2.57,2.58v18.23a2.57,2.57,0,0,0,2.57,2.58h22.94a2.59,2.59,0,0,0,2.59-2.58V198.23A2.59,2.59,0,0,0,322.11,195.65Zm-18.55-5.8a7,7,0,0,1,13.94,0v5.8H303.56ZM313.09,214h-4.9l.9-5.18a2.52,2.52,0,0,1,1.55-4.5,2.51,2.51,0,0,1,1.55,4.5Z"/><path class="cls-3" d="M151.62,124.11c10.11,0,16.53,6.82,16.53,16.63,0,8.64-5.6,13-10.35,13-2.75,0-4.88-1.25-5.3-3.67h-.11a7.88,7.88,0,0,1-5.84,3.29c-3.52,0-6.09-2.66-6.09-7.06,0-5.51,3.91-11.55,9.52-11.55a4,4,0,0,1,3.77,2.37h.1l.63-2H158l-2.07,10.2c-.83,3.28,0,4.88,2.41,4.88,3,0,6.14-3.58,6.14-9.33,0-7.35-4.16-13.34-13.29-13.34-8.46,0-16.68,7.2-16.68,18.27,0,9.52,6.39,14.45,14.26,14.45a16.36,16.36,0,0,0,7.59-2l1.3,3.09a18.43,18.43,0,0,1-9.33,2.42c-9.56,0-17.68-6-17.68-17.79C130.65,132.82,140.26,124.11,151.62,124.11Zm-3.91,25.66c1.15,0,2.37-.72,3.82-2.51l1.25-7.1a3,3,0,0,0-2.65-1.7c-3.34,0-5.37,4.31-5.37,7.54C144.76,148.61,145.92,149.77,147.71,149.77Z"/><path class="cls-3" d="M155.26,271.05H83.49V175.86h71.77Zm-68.88-2.9h66V178.76h-66Z"/><rect class="cls-3" x="92.72" y="184.81" width="14.35" height="1.72"/><rect class="cls-3" x="92.72" y="188.24" width="14.35" height="1.72"/><rect class="cls-3" x="92.72" y="201.98" width="53.28" height="1.72"/><rect class="cls-3" x="92.72" y="207.14" width="53.28" height="1.72"/><rect class="cls-3" x="92.72" y="212.29" width="10.16" height="1.72"/><rect class="cls-3" x="92.72" y="217.44" width="53.28" height="1.72"/><rect class="cls-3" x="92.72" y="222.59" width="53.28" height="1.72"/><rect class="cls-3" x="92.72" y="227.75" width="38.65" height="1.72"/><rect class="cls-3" x="92.72" y="232.9" width="53.28" height="1.72"/><rect class="cls-3" x="92.72" y="238.05" width="53.28" height="1.72"/><rect class="cls-3" x="92.72" y="243.2" width="53.28" height="1.72"/><rect class="cls-3" x="92.72" y="248.36" width="20.32" height="1.72"/><rect class="cls-3" x="92.72" y="196.83" width="53.28" height="1.72"/><rect class="cls-3" x="133.08" y="256.95" width="12.92" height="1.72"/><rect class="cls-3" x="133.08" y="260.38" width="12.92" height="1.72"/><polygon class="cls-2" points="209.78 296.74 200.92 291.63 200.92 294.53 186.47 294.53 186.47 298.96 200.92 298.96 200.92 301.86 209.78 296.74"/><polygon class="cls-2" points="178.72 284.46 187.58 279.35 187.58 282.25 202.03 282.25 202.03 286.68 187.58 286.68 187.58 289.57 178.72 284.46"/><path class="cls-4" d="M195.92,338.16h-1.5l0-3.11h1.47l2.62,0,.06,3.1C197.71,338.15,196.81,338.16,195.92,338.16Zm-7.76-.21c-1.39-.08-2.78-.17-4.16-.29l.25-3.09c1.36.11,2.72.2,4.08.28Zm16.7-.07-.2-3.1c1.37-.09,2.73-.19,4.08-.32l.28,3.1C207.64,337.69,206.25,337.79,204.86,337.88ZM177.77,337c-1.39-.17-2.77-.37-4.14-.59l.49-3.07c1.34.22,2.69.41,4,.58Zm37.47-.15-.42-3.08c1.36-.18,2.7-.39,4-.61l.52,3.06Q217.33,336.56,215.24,336.85Zm-47.77-1.56q-2.06-.42-4.08-.9l.71-3c1.32.31,2.65.61,4,.88Zm58.06-.24-.65-3c1.34-.28,2.66-.59,4-.91l.74,3C228.25,334.45,226.89,334.76,225.53,335.05Zm-68.21-2.23c-1.34-.38-2.67-.78-4-1.2l.94-3c1.29.41,2.6.8,3.91,1.17Zm78.33-.33-.87-3q2-.57,3.9-1.2l1,2.95Q237.66,331.91,235.65,332.49Zm-88.27-2.89c-1.32-.48-2.62-1-3.92-1.5l1.16-2.88c1.26.5,2.54,1,3.82,1.46Zm98.18-.41-1.09-2.91c1.27-.47,2.54-1,3.8-1.49l1.18,2.88C248.16,328.19,246.86,328.7,245.56,329.19Zm-107.87-3.55c-1.28-.58-2.54-1.17-3.79-1.78l1.36-2.79c1.23.59,2.46,1.18,3.71,1.74Zm117.49-.47-1.31-2.82c1.24-.57,2.46-1.16,3.67-1.76l1.39,2.77C257.69,324,256.44,324.59,255.18,325.17ZM128.33,321c-1.23-.67-2.44-1.35-3.65-2.06l1.57-2.68c1.18.69,2.36,1.36,3.56,2Zm136.13-.52-1.5-2.72c1.19-.66,2.36-1.33,3.53-2l1.59,2.67C266.88,319.08,265.68,319.78,264.46,320.45Zm-145.12-4.82c-1.17-.76-2.33-1.53-3.48-2.32l1.76-2.56c1.13.77,2.26,1.53,3.41,2.27Zm154-.58-1.7-2.59c1.14-.75,2.26-1.51,3.38-2.29l1.77,2.54Q275.14,313.91,273.38,315.05Zm-162.6-5.41c-1.11-.84-2.21-1.7-3.3-2.57l2-2.42c1.06.85,2.13,1.69,3.22,2.51Zm171.1-.63L280,306.55c1.08-.83,2.15-1.68,3.2-2.54l2,2.41C284.08,307.3,283,308.17,281.88,309Zm-179.2-6c-1-.92-2.08-1.86-3.09-2.81l2.12-2.27c1,.93,2,1.84,3,2.74Zm187.24-.68L287.85,300c1-.91,2-1.83,3-2.76l2.14,2.26C292,300.49,291,301.43,289.92,302.36ZM95.1,295.86c-1-1-1.93-2-2.88-3l2.27-2.11c.93,1,1.87,2,2.83,2.95Zm202.35-.73L295.22,293c.95-1,1.88-2,2.8-3l2.29,2.1C299.37,293.12,298.42,294.13,297.45,295.13Zm-209.39-7c-.9-1.06-1.78-2.13-2.65-3.22L87.84,283c.85,1.06,1.71,2.12,2.59,3.15Zm216.37-.78-2.38-2c.87-1.05,1.73-2.11,2.57-3.18l2.45,1.92C306.2,285.22,305.33,286.3,304.43,287.37ZM81.62,280c-.82-1.12-1.62-2.26-2.41-3.41l2.56-1.75c.77,1.12,1.56,2.23,2.36,3.33Zm229.21-.84-2.52-1.81c.79-1.11,1.57-2.23,2.33-3.36l2.58,1.74C312.44,276.83,311.64,278,310.83,279.11Zm-235-7.81c-.73-1.18-1.44-2.37-2.14-3.57l2.68-1.56c.68,1.17,1.38,2.34,2.1,3.49Zm240.81-.9L314,268.78c.71-1.17,1.41-2.34,2.08-3.52l2.7,1.53C318,268,317.33,269.21,316.6,270.4Zm-246-8.15c-.65-1.23-1.27-2.47-1.88-3.72l2.79-1.36c.6,1.23,1.21,2.44,1.84,3.64Zm251.09-1L319,259.86c.62-1.21,1.22-2.44,1.81-3.67l2.8,1.33C323,258.79,322.35,260,321.72,261.28ZM66.14,252.85c-.55-1.28-1.08-2.56-1.59-3.85l2.88-1.14c.51,1.26,1,2.51,1.56,3.76Zm260-1-2.87-1.21c.54-1.26,1.05-2.52,1.54-3.8l2.9,1.13C327.21,249.22,326.69,250.51,326.15,251.8ZM62.36,243.13c-.45-1.32-.89-2.64-1.3-4l3-.93c.41,1.3.83,2.6,1.28,3.88ZM329.86,242l-2.95-1c.44-1.29.86-2.6,1.25-3.91l3,.91C330.73,239.36,330.3,240.69,329.86,242ZM59.32,233.14c-.36-1.34-.69-2.69-1-4l3-.71c.31,1.33.64,2.65,1,4ZM332.82,232l-3-.77c.33-1.31.65-2.64.95-4l3,.68C333.49,229.28,333.17,230.64,332.82,232ZM57,223c-.26-1.37-.49-2.74-.71-4.12l3.07-.48c.21,1.35.44,2.69.69,4Zm278-1.18-3-.54c.24-1.34.45-2.68.65-4l3.08.46C335.5,219,335.28,220.41,335,221.78ZM55.48,212.63c-.15-1.38-.28-2.77-.4-4.16l3.1-.25c.11,1.36.24,2.72.39,4.07Zm281-1.19-3.09-.32c.14-1.35.26-2.7.36-4.06l3.1.22C336.75,208.67,336.63,210.06,336.48,211.44ZM54.71,202.22c-.05-1.38-.08-2.78-.09-4.17l3.1,0c0,1.37.05,2.73.1,4.08ZM337.17,201l-3.11-.09c0-1.36.06-2.72.06-4.09v-.33h3.11v.33C337.23,198.25,337.21,199.64,337.17,201ZM57.81,191.9l-3.11-.11q.07-2.1.21-4.17l3.1.19C57.92,189.17,57.85,190.53,57.81,191.9ZM334,190.4q-.09-2.06-.24-4.08l3.09-.24c.11,1.39.19,2.78.26,4.17ZM58.54,181.71l-3.09-.33c.15-1.39.32-2.77.51-4.15l3.08.43C58.86,179,58.69,180.35,58.54,181.71Zm274.59-1.49c-.16-1.36-.34-2.71-.55-4.05l3.08-.46c.2,1.37.39,2.75.55,4.14ZM60,171.61,57,171c.26-1.37.53-2.73.82-4.09l3,.65C60.53,168.93,60.27,170.27,60,171.61Zm271.52-1.48c-.26-1.33-.54-2.67-.84-4l3-.69c.31,1.36.6,2.72.87,4.09Zm-269.3-8.49-3-.79c.35-1.34.73-2.69,1.12-4l3,.88C63,159,62.59,160.32,62.24,161.64Zm267-1.45c-.36-1.31-.74-2.62-1.14-3.92l3-.91c.4,1.33.79,2.67,1.16,4Zm-264-8.32-2.94-1c.46-1.32.93-2.63,1.43-3.94l2.9,1.1C66.11,149.29,65.65,150.58,65.2,151.87Zm260.94-1.41c-.46-1.29-.93-2.56-1.43-3.83l2.9-1.13c.5,1.3,1,2.6,1.46,3.91ZM68.89,142.33,66,141.1c.55-1.28,1.12-2.56,1.71-3.82l2.81,1.31C70,139.82,69.43,141.07,68.89,142.33ZM322.37,141c-.55-1.24-1.12-2.48-1.71-3.7l2.8-1.34c.6,1.25,1.18,2.51,1.75,3.78ZM73.28,133.08l-2.76-1.43c.65-1.24,1.31-2.47,2-3.68l2.71,1.51C74.56,130.67,73.91,131.87,73.28,133.08Zm244.62-1.25c-.64-1.2-1.3-2.39-2-3.57l2.69-1.54c.69,1.2,1.37,2.42,2,3.65ZM78.34,124.2l-2.64-1.64c.73-1.19,1.48-2.36,2.25-3.52l2.59,1.71C79.79,121.89,79.06,123,78.34,124.2ZM312.77,123c-.73-1.15-1.47-2.28-2.23-3.41l2.57-1.74c.78,1.15,1.54,2.32,2.28,3.49ZM84,115.71l-2.51-1.83c.82-1.12,1.66-2.24,2.51-3.34l2.46,1.9C85.65,113.52,84.84,114.61,84,115.71Zm223-1.1c-.81-1.09-1.64-2.17-2.48-3.24l2.44-1.92c.86,1.09,1.71,2.19,2.54,3.31ZM90.34,107.67l-2.37-2c.9-1.06,1.81-2.11,2.74-3.15L93,104.59C92.11,105.6,91.22,106.63,90.34,107.67Zm210.28-1c-.89-1-1.79-2-2.71-3l2.29-2.09c.94,1,1.87,2.06,2.78,3.12Zm-203.4-6.52L95,97.94q1.45-1.48,3-2.94l2.15,2.24C99.14,98.19,98.17,99.15,97.22,100.12Zm196.46-1c-1-1-1.94-1.91-2.93-2.84l2.13-2.26q1.51,1.43,3,2.91Zm-189-6.07-2.06-2.33c1.05-.92,2.1-1.82,3.18-2.71l2,2.39C106.68,91.31,105.65,92.2,104.63,93.09Zm181.57-.88c-1-.89-2.08-1.77-3.13-2.63l2-2.4c1.08.87,2.14,1.77,3.2,2.68ZM112.53,86.64l-1.88-2.48c1.11-.84,2.23-1.66,3.36-2.47l1.81,2.53C114.71,85,113.61,85.81,112.53,86.64Zm165.7-.82c-1.1-.81-2.2-1.61-3.32-2.39l1.77-2.54c1.15.79,2.28,1.61,3.4,2.44Zm-157.35-5-1.69-2.61c1.17-.75,2.35-1.49,3.53-2.21l1.61,2.65C123.17,79.32,122,80,120.88,80.78ZM269.8,80c-1.15-.73-2.31-1.44-3.49-2.13l1.59-2.68c1.2.72,2.39,1.45,3.56,2.19ZM129.63,75.55l-1.49-2.72c1.22-.67,2.45-1.31,3.69-2l1.41,2.77C132,74.27,130.82,74.9,129.63,75.55ZM261,74.89c-1.21-.65-2.42-1.27-3.64-1.88l1.38-2.78c1.25.62,2.49,1.26,3.72,1.91ZM138.74,71l-1.28-2.82c1.26-.58,2.53-1.13,3.81-1.67l1.21,2.86C141.22,69.89,140,70.43,138.74,71Zm113-.59c-1.24-.55-2.5-1.08-3.77-1.6l1.18-2.87c1.29.52,2.57,1.07,3.85,1.63ZM148.16,67.12l-1.07-2.91c1.3-.48,2.62-.94,3.94-1.39l1,2.95C150.72,66.2,149.44,66.65,148.16,67.12Zm94.11-.51c-1.29-.46-2.58-.89-3.88-1.31l1-3c1.33.43,2.65.88,4,1.35ZM157.87,64,157,61c1.34-.38,2.68-.75,4-1.09l.76,3C160.49,63.23,159.17,63.58,157.87,64Zm74.64-.4c-1.31-.36-2.63-.7-3.95-1l.73-3c1.36.33,2.7.67,4.05,1Zm-64.73-2-.63-3.05c1.36-.28,2.73-.54,4.1-.78l.54,3.06C170.45,61,169.11,61.24,167.78,61.52Zm54.79-.3c-1.33-.26-2.67-.5-4-.73l.51-3.06c1.37.23,2.75.47,4.11.74Zm-44.72-1.4-.4-3.08c1.37-.18,2.76-.34,4.15-.48l.3,3.09C180.55,59.49,179.19,59.64,177.85,59.82Zm34.64-.19c-1.35-.16-2.71-.3-4.07-.42l.28-3.1c1.39.13,2.78.27,4.15.44ZM188,58.87l-.17-3.1c1.39-.08,2.78-.13,4.17-.17l.09,3.1C190.73,58.74,189.37,58.8,188,58.87Zm14.3-.08q-2-.09-4.08-.12l.05-3.11c1.39,0,2.78.07,4.17.13Z"/><rect class="cls-4" x="194.37" y="44.27" width="3.11" height="2.07"/><path class="cls-4" d="M197.47,313.73h-3.1v-4.12h3.1Zm0-10.29h-3.1v-4.11h3.1Zm0-10.28h-3.1v-4.11h3.1Zm0-10.28h-3.1v-4.12h3.1Zm0-10.29h-3.1v-4.11h3.1Zm0-10.28h-3.1v-4.12h3.1Zm0-10.29h-3.1v-4.11h3.1Zm0-10.28h-3.1v-4.11h3.1Zm0-10.29h-3.1v-4.11h3.1Zm0-10.28h-3.1v-4.11h3.1Zm0-10.28h-3.1v-4.12h3.1Zm0-10.29h-3.1v-4.11h3.1Zm0-10.28h-3.1V186.2h3.1Zm0-10.29h-3.1v-4.11h3.1Zm0-10.28h-3.1v-4.11h3.1Zm0-10.28h-3.1v-4.12h3.1Zm0-10.29h-3.1v-4.11h3.1Zm0-10.28h-3.1v-4.12h3.1Zm0-10.29h-3.1V124.5h3.1Zm0-10.28h-3.1v-4.12h3.1Zm0-10.28h-3.1v-4.12h3.1Zm0-10.29h-3.1V93.65h3.1Zm0-10.28h-3.1V83.36h3.1Zm0-10.29h-3.1V73.08h3.1Zm0-10.28h-3.1V62.79h3.1Zm0-10.29h-3.1V52.51h3.1Z"/><polygon class="cls-4" points="197.47 323.52 193.85 323.52 193.85 320.41 194.37 320.41 194.37 319.9 197.47 319.9 197.47 323.52"/><path class="cls-4" d="M187.47,323.52h-4.26v-3.11h4.26Zm-10.64,0h-4.25v-3.11h4.25Z"/><rect class="cls-4" x="164.12" y="320.41" width="2.07" height="3.11"/><rect class="cls-4" x="222.54" y="96.19" width="2.07" height="3.11"/><path class="cls-4" d="M267.48,99.3h-4.29V96.19h4.29Zm-10.71,0h-4.29V96.19h4.29Zm-10.72,0h-4.29V96.19h4.29Zm-10.72,0h-4.28V96.19h4.28Z"/><polygon class="cls-4" points="277.54 99.81 274.43 99.81 274.43 99.3 273.91 99.3 273.91 96.19 277.54 96.19 277.54 99.81"/><path class="cls-4" d="M277.53,183.32h-3.1v-4.18h3.1Zm0-10.44h-3.1V168.7h3.1Zm0-10.44h-3.1v-4.17h3.1Zm0-10.44h-3.1v-4.17h3.1Zm0-10.44h-3.1v-4.17h3.1Zm0-10.43h-3.1V127h3.1Zm0-10.44h-3.1v-4.18h3.1Zm0-10.44h-3.1v-4.17h3.1Z"/><polygon class="cls-4" points="278.05 193.2 274.43 193.2 274.43 189.58 277.54 189.58 277.54 190.1 278.05 190.1 278.05 193.2"/><path class="cls-4" d="M340.21,193.2h-4.14v-3.1h4.14Zm-10.35,0h-4.15v-3.1h4.15Zm-10.37,0h-4.14v-3.1h4.14Zm-10.36,0H305v-3.1h4.14Zm-10.36,0h-4.14v-3.1h4.14Zm-10.36,0h-4.14v-3.1h4.14Z"/><rect class="cls-4" x="346.43" y="190.1" width="2.07" height="3.11"/><rect class="cls-4" x="91.09" y="122.93" width="3.11" height="2.07"/><path class="cls-4" d="M94.19,204.13h-3.1v-4h3.1Zm0-9.89h-3.1v-4h3.1Zm0-9.89h-3.1v-4h3.1Zm0-9.89h-3.1v-4h3.1Zm0-9.89h-3.1v-4h3.1Zm0-9.89h-3.1v-4h3.1Zm0-9.89h-3.1v-4h3.1Zm0-9.89h-3.1v-4h3.1Z"/><polygon class="cls-4" points="94.71 213.68 91.09 213.68 91.09 210.06 94.19 210.06 94.19 210.58 94.71 210.58 94.71 213.68"/><path class="cls-4" d="M123.27,213.68h-3.81v-3.1h3.81Zm-9.52,0h-3.81v-3.1h3.81Zm-9.52,0h-3.81v-3.1h3.81Z"/><rect class="cls-4" x="128.98" y="210.58" width="2.07" height="3.11"/><rect class="cls-5" x="245.91" y="131.68" width="61.09" height="35.49" rx="1.7"/><path class="cls-6" d="M284.08,162.33A12.91,12.91,0,1,1,297,149.42,12.91,12.91,0,0,1,284.08,162.33Zm0-24.88a12,12,0,1,0,12,12A12,12,0,0,0,284.08,137.45Z"/><path class="cls-6" d="M284.08,143.51a25,25,0,0,1-4.84-.47,24.6,24.6,0,0,1-4.66-1.43l.37-.87a23.23,23.23,0,0,0,4.48,1.38,23.68,23.68,0,0,0,4.63.45,24.09,24.09,0,0,0,4.67-.46,24.37,24.37,0,0,0,4.47-1.38l.08,0h.1v.47l.18.43a24.19,24.19,0,0,1-9.48,1.92Z"/><path class="cls-6" d="M293.39,157.94h-.1l-.09,0a22.62,22.62,0,0,0-4.46-1.38,24.15,24.15,0,0,0-4.66-.47,23.13,23.13,0,0,0-4.65.46,23.42,23.42,0,0,0-4.48,1.37l-.36-.86a22.84,22.84,0,0,1,4.66-1.43,24.07,24.07,0,0,1,4.81-.48,24.43,24.43,0,0,1,4.86.49,23.85,23.85,0,0,1,4.65,1.43l-.18.43Z"/><path class="cls-6" d="M284.08,162.33c-3.19,0-6.69-6.76-6.69-12.91,0-5.67,3.76-12.91,6.69-12.91v.94c-2.22,0-5.75,6.53-5.75,12,0,5.93,3.35,12,5.75,12Z"/><path class="cls-6" d="M284.08,162.33v-.94c2.4,0,5.75-6,5.75-12,0-5.44-3.53-12-5.75-12v-.94c2.94,0,6.69,7.24,6.69,12.91C290.77,155.57,287.27,162.33,284.08,162.33Z"/><rect class="cls-6" x="283.61" y="136.98" width="0.94" height="24.87"/><rect class="cls-6" x="271.64" y="148.95" width="24.88" height="0.94"/><path class="cls-6" d="M284.36,134.67a14.83,14.83,0,0,1,13.36,8,14.66,14.66,0,0,1,1.59,5.26,15.19,15.19,0,0,1-12,16.47l-.22-1.08A14.14,14.14,0,0,0,292,161.5a14.47,14.47,0,0,0,3.89-3.51,14.29,14.29,0,0,0,2.38-4.7,14.59,14.59,0,0,0-13.88-18.62Z"/><path class="cls-6" d="M287.82,163.78l.91,1.17,0,0-2.14-.58-2.19-.22,2.08-.72,1.95-1.05.05,0Z"/><path class="cls-6" d="M284.36,164.18a14.91,14.91,0,0,1-15-13.3,15.18,15.18,0,0,1,12-16.47l.21,1.07a14.18,14.18,0,0,0-8.77,5.38,14.53,14.53,0,0,0-1.5,15.1,14.75,14.75,0,0,0,7.72,7.17A14.92,14.92,0,0,0,284.36,164.18Z"/><path class="cls-6" d="M280.89,135.07,280,133.9l0,0,2.14.58,2.2.22-2.09.72-1.95,1h-.05Z"/><rect class="cls-7" x="250" y="156.07" width="1.94" height="3.41"/><rect class="cls-7" x="252.91" y="156.07" width="1.94" height="3.41"/><rect class="cls-7" x="255.82" y="156.07" width="1.94" height="3.41"/><rect class="cls-7" x="258.73" y="156.07" width="1.94" height="3.41"/><rect class="cls-7" x="264.07" y="156.07" width="1.94" height="3.41"/><rect class="cls-7" x="266.99" y="156.07" width="1.94" height="3.41"/><rect class="cls-7" x="269.9" y="156.07" width="1.94" height="3.41"/><rect class="cls-7" x="272.81" y="156.07" width="1.94" height="3.41"/><rect class="cls-7" x="278.16" y="156.07" width="1.94" height="3.41"/><rect class="cls-7" x="281.07" y="156.07" width="1.94" height="3.41"/><rect class="cls-7" x="283.98" y="156.07" width="1.94" height="3.41"/><rect class="cls-7" x="286.89" y="156.07" width="1.94" height="3.41"/><rect class="cls-7" x="292.24" y="156.07" width="1.94" height="3.41"/><rect class="cls-7" x="295.15" y="156.07" width="1.95" height="3.41"/><rect class="cls-7" x="298.06" y="156.07" width="1.94" height="3.41"/><rect class="cls-7" x="300.97" y="156.07" width="1.94" height="3.41"/><rect class="cls-8" x="252.67" y="137.36" width="9.59" height="9.58" rx="1.06"/><rect class="cls-9" x="257.21" y="137.36" width="0.51" height="9.58"/><rect class="cls-9" x="252.67" y="140.25" width="9.59" height="0.51"/><rect class="cls-9" x="252.67" y="143.72" width="4.79" height="0.51"/><rect class="cls-7" x="293.21" y="136.43" width="11.39" height="6.47"/><path class="cls-10" d="M294.27,131.68l-48.35,34a1.34,1.34,0,0,1,0-.2V133.38a1.68,1.68,0,0,1,1.7-1.7Z"/><path class="cls-11" d="M209,96.25A13.09,13.09,0,0,0,198.45,83.4a13.23,13.23,0,0,0-2.53-.24,13.09,13.09,0,0,0-10.78,20.51s.86,1.08,1.21,1.5c3.54,4.2,3.27,8,4.11,12.23h10.92c.84-4.24.57-8,4.09-12.23.36-.42,1.22-1.5,1.22-1.5A13,13,0,0,0,209,96.81C209,96.62,209,96.43,209,96.25Z"/><path class="cls-12" d="M190.63,103.66c-.24-.51-.83-1.81-.81-1.8a13.94,13.94,0,0,1-.43-8,13.73,13.73,0,0,1,8.26-9.59c-.33,0-.66,0-1,0a12.33,12.33,0,0,0-10.15,19.31s.82,1,1.15,1.41c3.15,3.76,3.65,7,4.37,10.83C192.31,111.58,192.78,108.21,190.63,103.66Z"/><polygon class="cls-9" points="198.36 127.32 193.47 127.32 191.12 125.36 200.71 125.36 198.36 127.32"/><polygon class="cls-13" points="200.71 118.68 191.12 118.68 190.46 117.41 201.38 117.41 200.71 118.68"/><rect class="cls-14" x="191.12" y="118.68" width="9.58" height="6.68"/><path class="cls-13" d="M190.86,120.43c1.43-.35,3.54-.58,5-.79s3.58-.35,5-.38a.34.34,0,0,1,.34.34.35.35,0,0,1-.25.33c-1.43.36-3.54.59-5,.79s-3.57.34-5,.38a.34.34,0,0,1-.09-.67Z"/><path class="cls-13" d="M190.86,122.27c1.43-.35,3.54-.59,5-.79a50.24,50.24,0,0,1,5-.38.34.34,0,0,1,.34.33.34.34,0,0,1-.25.33,49.81,49.81,0,0,1-5,.8c-1.45.18-3.57.34-5,.37a.32.32,0,0,1-.34-.32A.33.33,0,0,1,190.86,122.27Z"/><path class="cls-13" d="M190.86,124.11c1.43-.35,3.54-.59,5-.8a50.22,50.22,0,0,1,5-.37.34.34,0,0,1,.34.33.34.34,0,0,1-.25.33,49.81,49.81,0,0,1-5,.8c-1.45.18-3.57.33-5,.37a.34.34,0,0,1-.09-.66Z"/><path class="cls-11" d="M195.92,80.48a1.67,1.67,0,0,1-1.67-1.68v-6a1.67,1.67,0,0,1,3.34,0v6A1.68,1.68,0,0,1,195.92,80.48Z"/><path class="cls-11" d="M182.53,86a1.62,1.62,0,0,1-1.18-.49l-4.26-4.25a1.68,1.68,0,0,1,0-2.37,1.69,1.69,0,0,1,1.18-.48,1.66,1.66,0,0,1,1.18.48l4.26,4.26a1.68,1.68,0,0,1,.49,1.18A1.67,1.67,0,0,1,182.53,86Z"/><path class="cls-11" d="M171,99.42a1.68,1.68,0,0,1,0-3.35h6a1.68,1.68,0,0,1,0,3.35Z"/><path class="cls-11" d="M178.27,117.06a1.66,1.66,0,0,1-1.18-.49,1.62,1.62,0,0,1-.49-1.18,1.64,1.64,0,0,1,.49-1.18l4.26-4.25a1.63,1.63,0,0,1,1.18-.5,1.69,1.69,0,0,1,1.67,1.68,1.7,1.7,0,0,1-.49,1.18l-4.26,4.25A1.62,1.62,0,0,1,178.27,117.06Z"/><path class="cls-11" d="M213.57,117.06a1.66,1.66,0,0,1-1.19-.49l-4.25-4.25a1.71,1.71,0,0,1-.49-1.19,1.69,1.69,0,0,1,1.67-1.67,1.63,1.63,0,0,1,1.18.5l4.26,4.25a1.67,1.67,0,0,1,.48,1.18,1.66,1.66,0,0,1-1.66,1.67Z"/><path class="cls-11" d="M214.86,99.42a1.68,1.68,0,0,1,0-3.35h6a1.68,1.68,0,0,1,0,3.35Z"/><path class="cls-11" d="M215.23,80.1a1.66,1.66,0,0,0-.49-1.19,1.6,1.6,0,0,0-1.18-.48,1.65,1.65,0,0,0-1.18.48l-4.25,4.26a1.62,1.62,0,0,0-.49,1.17,1.67,1.67,0,0,0,2.85,1.19l4.25-4.25A1.64,1.64,0,0,0,215.23,80.1Z"/><path class="cls-9" d="M265.1,159.76v83.42H126.74V159.76a5.81,5.81,0,0,1,5.79-5.83H259.31A5.81,5.81,0,0,1,265.1,159.76Z"/><rect class="cls-15" x="132.53" y="159.74" width="126.78" height="77.64"/><polygon class="cls-16" points="272.82 252.19 119.02 252.19 126.74 243.18 265.1 243.18 272.82 252.19"/><polygon class="cls-17" points="215.55 247.68 195.92 247.68 176.29 247.68 170.5 250.9 195.92 250.9 221.34 250.9 215.55 247.68"/><path class="cls-18" d="M272.82,252.19c0,3.39-4.31,3.55-9.65,3.55H128.67c-5.34,0-9.65-.16-9.65-3.55Z"/><path class="cls-19" d="M195.93,229.29a30.73,30.73,0,1,1,30.71-30.73A30.76,30.76,0,0,1,195.93,229.29Zm0-59.22a28.5,28.5,0,1,0,28.48,28.49A28.54,28.54,0,0,0,195.93,170.07Z"/><path class="cls-19" d="M195.93,184.51a58.38,58.38,0,0,1-11.52-1.13,57.11,57.11,0,0,1-11.09-3.4l.87-2.06a55.82,55.82,0,0,0,21.68,4.36A57.6,57.6,0,0,0,207,181.16a54.37,54.37,0,0,0,10.63-3.29l.21-.08h.24v1.12l.43,1a58.55,58.55,0,0,1-22.57,4.57Z"/><path class="cls-19" d="M218.09,218.85h-.24l-.21-.08a56.09,56.09,0,0,0-21.7-4.39,56.34,56.34,0,0,0-11.08,1.09,55,55,0,0,0-10.66,3.27l-.86-2.07a58.87,58.87,0,0,1,22.55-4.54,59.69,59.69,0,0,1,11.55,1.17,57.36,57.36,0,0,1,11.08,3.41l-.43,1Z"/><path class="cls-19" d="M195.93,229.29c-7.6,0-15.93-16.08-15.93-30.73,0-13.49,8.93-30.72,15.93-30.72v2.23c-5.28,0-13.69,15.56-13.69,28.49,0,14.14,8,28.5,13.69,28.5Z"/><path class="cls-19" d="M195.93,229.29v-2.23c5.72,0,13.68-14.36,13.68-28.5,0-12.93-8.41-28.49-13.68-28.49v-2.23c7,0,15.92,17.23,15.92,30.72C211.85,213.21,203.51,229.29,195.93,229.29Z"/><rect class="cls-19" x="194.81" y="168.96" width="2.23" height="59.21"/><rect class="cls-19" x="166.31" y="197.44" width="59.22" height="2.25"/><path class="cls-12" d="M212.77,153.93l-48.59,89.25H126.74V159.76a5.81,5.81,0,0,1,5.79-5.83Z"/><path class="cls-20" d="M94.14,199.57a12.56,12.56,0,1,0,12.57,12.54A12.56,12.56,0,0,0,94.14,199.57Zm0,23.68a11.12,11.12,0,1,1,11.13-11.14A11.13,11.13,0,0,1,94.14,223.25Z"/><path class="cls-21" d="M94.14,201a11.12,11.12,0,1,0,11.13,11.09A11.11,11.11,0,0,0,94.14,201ZM90.27,218.2V206.06l10.51,6.05Z"/><polygon class="cls-20" points="100.78 212.11 90.27 218.2 90.27 206.06 100.78 212.11"/><path class="cls-2" d="M167,329.67a43.19,43.19,0,1,1-43.19-43.18A43.19,43.19,0,0,1,167,329.67Z"/><path class="cls-18" d="M110.65,300.4h26.4a3.74,3.74,0,0,1,3.74,3.74v51.07a3.73,3.73,0,0,1-3.73,3.73H110.65a3.74,3.74,0,0,1-3.74-3.74V304.14A3.74,3.74,0,0,1,110.65,300.4Z"/><rect class="cls-15" x="110.28" y="304.38" width="27.15" height="45.22"/><rect class="cls-7" x="110.28" y="304.38" width="27.15" height="45.22"/><rect class="cls-22" x="120.89" y="319.28" width="14.99" height="1.17"/><rect class="cls-22" x="120.89" y="322.91" width="14.99" height="1.17"/><rect class="cls-22" x="120.89" y="330.45" width="14.99" height="1.17"/><rect class="cls-22" x="120.89" y="334.08" width="14.99" height="1.17"/><rect class="cls-22" x="120.89" y="341.62" width="14.99" height="1.16"/><rect class="cls-22" x="120.89" y="345.25" width="14.99" height="1.16"/><rect class="cls-23" x="110.28" y="316.1" width="9.34" height="11.17"/><rect class="cls-5" x="110.28" y="327.26" width="9.34" height="11.17"/><rect class="cls-15" x="110.28" y="338.43" width="9.34" height="11.17"/><rect class="cls-11" x="110.28" y="304.38" width="27.15" height="11.61"/><rect class="cls-24" x="110.28" y="326.94" width="27.15" height="0.66"/><rect class="cls-24" x="110.28" y="338.1" width="27.15" height="0.66"/><polygon class="cls-25" points="111.03 305.13 111.03 349.6 110.28 349.6 110.28 304.38 137.43 304.38 137.43 305.13 111.03 305.13"/><path class="cls-26" d="M125.91,356.45H121.8a1.9,1.9,0,1,1,0-3.74h4.11a1.9,1.9,0,1,1,0,3.74Z"/><g class="cls-27"><path d="M121.8,353.09h4.11a2.12,2.12,0,0,1,2.22,1.68,1.11,1.11,0,0,0,0-.19,2.08,2.08,0,0,0-2.24-1.87H121.8a2.08,2.08,0,0,0-2.24,1.87,1.11,1.11,0,0,0,0,.19A2.13,2.13,0,0,1,121.8,353.09Z"/></g><path class="cls-12" d="M110.65,300.4a3.73,3.73,0,0,0-3.73,3.74v51.07a2.85,2.85,0,0,0,0,.41l25.15-55.22Z"/><path class="cls-2" d="M128.37,81.13A43.83,43.83,0,1,1,84.54,37.3,43.82,43.82,0,0,1,128.37,81.13Z"/><polygon class="cls-28" points="53.71 99.94 84.54 81.13 53.71 62.32 53.71 99.94"/><polygon class="cls-28" points="115.37 99.94 84.54 81.13 115.37 62.32 115.37 99.94"/><polygon class="cls-29" points="53.71 99.94 84.54 77.85 115.37 99.94 53.71 99.94"/><polygon class="cls-11" points="53.71 99.94 84.54 78.28 115.37 99.94 53.71 99.94"/><polygon class="cls-29" points="53.71 62.32 84.54 85.47 115.37 62.32 53.71 62.32"/><polygon class="cls-11" points="53.71 62.32 84.54 83.98 115.37 62.32 53.71 62.32"/><path class="cls-2" d="M369.76,271.05a43.83,43.83,0,1,1-43.82-43.83A43.82,43.82,0,0,1,369.76,271.05Z"/><rect class="cls-26" x="295.18" y="282.01" width="34.82" height="4.45" transform="translate(-109.43 304.29) rotate(-45)"/><path class="cls-30" d="M323.33,270.36,321.67,272a17.15,17.15,0,0,0,1.61,1.83,14.73,14.73,0,0,0,1.51,1.35l1.69-1.69Z"/><path class="cls-31" d="M347.79,272.07a16.08,16.08,0,0,1-24.92-20,16.33,16.33,0,0,1,2.18-2.7,16.08,16.08,0,0,1,22.74,22.74Z"/><path class="cls-10" d="M348.7,261.84A15.15,15.15,0,0,1,322.87,252a16.33,16.33,0,0,1,2.18-2.7,16.07,16.07,0,0,1,27,7.5A15.11,15.11,0,0,1,348.7,261.84Z"/><path class="cls-29" d="M325.4,252.06a15.7,15.7,0,0,1,26.66,9.6A15.71,15.71,0,0,0,325.39,249a15.52,15.52,0,0,0-4.48,12.57A15.51,15.51,0,0,1,325.4,252.06Z"/><path class="cls-26" d="M324.06,273.06a17.48,17.48,0,1,1,24.72,0A17.51,17.51,0,0,1,324.06,273.06Zm22.75-22.74a14.69,14.69,0,1,0,0,20.77A14.71,14.71,0,0,0,346.81,250.32Z"/><path class="cls-10" d="M324.06,249.13a17.46,17.46,0,0,1,29.81,12,17.46,17.46,0,1,0-34.9,0A17.47,17.47,0,0,1,324.06,249.13Z"/><path class="cls-29" d="M326,271.88a14.67,14.67,0,0,0,25.05-10.78,14.67,14.67,0,0,1-29.33,0A14.69,14.69,0,0,0,326,271.88Z"/><path class="cls-5" d="M302.25,298.53l-3.94-3.94a1.12,1.12,0,0,1,0-1.57l17.82-17.83a1.13,1.13,0,0,1,1.58,0l3.94,3.94a1.13,1.13,0,0,1,0,1.58l-17.82,17.82A1.11,1.11,0,0,1,302.25,298.53Z"/><path class="cls-12" d="M301,294.87l17-17a1.59,1.59,0,0,1,.21-.15l-.74-.74a1,1,0,0,0-1.4,0l-15.93,15.93a1,1,0,0,0,0,1.41l.74.73A1,1,0,0,1,301,294.87Z"/><path class="cls-10" d="M339.09,258.09a4.14,4.14,0,1,1,0-5.85A4.15,4.15,0,0,1,339.09,258.09Z"/></g></svg>