<svg xmlns="http://www.w3.org/2000/svg" width="425" height="403" fill="none"><g clip-path="url(#a)"><path fill="#E0E0E0" d="M202.514.5v85.505H79.705L75.28 1.093z"/><path fill="#fff" d="M75.28 1.103v84.724h122.808V1.103z"/><path fill="#E0E0E0" d="M198.582 86.311H74.785V.6h123.797zm-122.809-.988h121.821V1.587H75.774z"/><path fill="#fff" d="M184.781 11.624H88.577v63.672h96.204z"/><path fill="#E0E0E0" d="M184.781 11.624h-7.114l-19.817.07-69.273.118.237-.237v63.661l-.257-.256h96.204l-.198.207c0-19.393.079-35.279.109-46.343 0-5.533 0-9.88.049-12.844v-4.524 4.446c0 2.963 0 7.241.05 12.754 0 11.094.069 27.03.108 46.432v.198h-.207l-96.204.059h-.257V11.209h.237l69.421.119 19.759.059h6.57z"/><path fill="#E0E0E0" d="M75.28.856c.742.392 1.444.859 2.094 1.393 1.245.918 2.964 2.203 4.801 3.685 1.838 1.481 3.478 2.874 4.624 3.951.662.519 1.26 1.116 1.778 1.779q-1.052-.667-1.976-1.502l-4.703-3.794c-1.768-1.412-3.359-2.707-4.712-3.793a12.3 12.3 0 0 1-1.907-1.72M198.108 1.083a70 70 0 0 1-6.491 5.463 70 70 0 0 1-6.816 5.068 71 71 0 0 1 6.49-5.473 71 71 0 0 1 6.817-5.058M184.277 74.733a74 74 0 0 1 7.005 5.354 77 77 0 0 1 6.688 5.74 74 74 0 0 1-7.014-5.345 76 76 0 0 1-6.679-5.75M75.28 85.817a69 69 0 0 1 6.42-5.404 69 69 0 0 1 6.748-5.009 66 66 0 0 1-6.431 5.414 66 66 0 0 1-6.738 5M126.325 32.291v21.32h25.133V32.29zM91.52 103.778v56.904l-83.844-.8.514-55.492z"/><path fill="#fff" d="M8.19 104.39v55.492h80.436V104.39z"/><path fill="#E0E0E0" d="M89.11 160.366H7.695v-56.48H89.11zm-80.427-.988h79.44v-54.504H8.682z"/><path fill="#fff" d="M79.913 111.276h-63.01v41.7h63.01z"/><path fill="#E0E0E0" d="M79.913 111.276H75.23l-12.99.059-45.337.119.228-.237v41.7l-.257-.267 63.01.059-.208.208c0-12.685.08-23.078.109-30.329v-11.381 2.904c0 1.976 0 4.752.059 8.348 0 7.281.06 17.724.099 30.458v.197h-.198l-62.842.109-.256-.257v-41.937h.237l45.494.118 12.931.07h4.298z"/><path fill="#E0E0E0" d="M8.19 104.232a30 30 0 0 1 4.514 3.319 31.6 31.6 0 0 1 4.199 3.725 30 30 0 0 1-4.525-3.329 30.7 30.7 0 0 1-4.189-3.715M88.617 104.38a29.7 29.7 0 0 1-4.19 3.656 30 30 0 0 1-4.514 3.24 31 31 0 0 1 4.189-3.646 31.4 31.4 0 0 1 4.515-3.25M79.557 152.611a33 33 0 0 1 4.653 3.438 33 33 0 0 1 4.317 3.833 32.3 32.3 0 0 1-4.643-3.428 32.3 32.3 0 0 1-4.327-3.843M8.19 159.872a29.4 29.4 0 0 1 4.149-3.606 29.5 29.5 0 0 1 4.475-3.211 30 30 0 0 1-4.16 3.616 29 29 0 0 1-4.465 3.201M28.58 125.255v13.959h39.646v-13.959zM407.044 106.712h-62.446l.879-88.271 60.896-.386z"/><path fill="#fff" d="M401.255 18.44h-60.896v88.272h60.896z"/><path fill="#E0E0E0" d="M401.749 107.206h-61.884v-89.26h61.884zm-60.896-.988h59.908V18.935h-59.908z"/><path fill="#fff" d="M393.697 28.004h-45.77v69.155h45.77z"/><path fill="#E0E0E0" d="M393.717 97.149V92.02c0-3.329 0-8.16-.069-14.255 0-12.191-.069-29.45-.119-49.762l.238.237h-45.761l.257-.257c0 26.081 0 50.127-.06 69.155l-.197-.198 33.283.109h12.478-3.182l-9.168.05-33.411.108h-.208V97c0-19.017 0-43.063-.049-69.154v-.09h46.205v.238c0 20.38-.089 37.69-.118 49.92 0 6.075 0 10.867-.06 14.206v4.742a1.7 1.7 0 0 1-.059.287"/><path fill="#E0E0E0" d="M401.423 18.44a33 33 0 0 1-3.586 5 29 29 0 0 1-4.149 4.564 49 49 0 0 1 3.744-4.88 42 42 0 0 1 3.991-4.683M401.255 106.712a36 36 0 0 1-3.952-4.614 36.6 36.6 0 0 1-3.586-4.94 37 37 0 0 1 3.951 4.624 36.7 36.7 0 0 1 3.587 4.93M348.322 96.803a39 39 0 0 1-3.784 5.078 39 39 0 0 1-4.188 4.762 39 39 0 0 1 3.783-5.078 39.7 39.7 0 0 1 4.189-4.762M340.369 18.44a35.5 35.5 0 0 1 3.952 4.575 34.5 34.5 0 0 1 3.537 4.94 35.3 35.3 0 0 1-3.952-4.575 34.5 34.5 0 0 1-3.537-4.94M379.431 42.042h-15.323V85.55h15.323z"/><path fill="#263238" d="M424.343 401.548c0 .138-94.653.257-211.416.257s-211.415-.119-211.415-.257c0-.139 94.633-.257 211.415-.257 116.783 0 211.416.118 211.416.257"/><path fill="#263238" d="M89.002 363.611H77.246v37.937h11.756zM211.317 363.611h-11.756v37.937h11.756zM137.331 363.611h-11.756v37.937h11.756zM252.889 363.611h-11.756v37.937h11.756z"/><path fill="#455A64" d="M253.165 367.494a17.14 17.14 0 0 0 16.963-13.831c2.815-14.295 6.441-34.291 6.55-56.736.069-13.772-2.964-31.209-7.272-44.299-6.214-19.126-19.531-35.98-38.874-41.493-25.113-7.162-34.212-4.416-52.024 4.94-19.374 10.156-24.619 29.213-44.783 37.699-19.581 8.23-43.192 5.424-61.044 16.933-15.708 10.126-23.364 29.579-23.987 48.26a103.6 103.6 0 0 0 2.865 29.51 22.72 22.72 0 0 0 21.942 17.525z"/><path fill="#FFBE9D" d="m102.932 306.055-53.94 71.328-18.84-4.169 43.468-76.268z"/><path fill="#0E53BE" d="m49.594 376.494-17.26 25.874L0 381.048c2.223-2.963 23.038 1.868 23.038 1.868l10.384-17.052z"/><path fill="#fff" d="M33.965 388.102a1.58 1.58 0 0 1-.079 2.104 1.52 1.52 0 0 1-2.094-.059 1.66 1.66 0 0 1 .098-2.233 1.58 1.58 0 0 1 2.164.307M32.335 402.368l1.64-2.678L2.36 380.248s-1.857-.316-2.361.8z" opacity=".6"/><path fill="#263238" d="M22.623 382.422c-.099.158.642.75 1.087 1.778.444 1.027.415 1.976.603 1.976.187 0 .553-1.038 0-2.263-.554-1.225-1.63-1.679-1.69-1.491M18.306 381.572c-.139.128.375.85.464 1.867.089 1.018-.207 1.828 0 1.976s.85-.731.711-1.976c-.138-1.245-1.067-2.005-1.175-1.867M13.702 384.397c.129.129.87-.513.988-1.649.119-1.137-.346-1.976-.494-1.877s0 .859-.158 1.778-.474 1.59-.336 1.748M25.419 378.776c0 .188.84.455 1.69 1.097.849.642 1.363 1.393 1.54 1.314s-.128-1.087-1.146-1.838-2.074-.741-2.084-.573M28.719 375.447c0 .069.514.573 1.63 1.067a8.8 8.8 0 0 0 2.035.592 8.4 8.4 0 0 0 1.255.119c.248.017.498-.003.74-.059a.82.82 0 0 0 .623-.791.99.99 0 0 0-.455-.82 3 3 0 0 0-.661-.316 7.3 7.3 0 0 0-1.235-.316 6.7 6.7 0 0 0-2.134 0c-1.215.198-1.857.613-1.818.682.04.069.721-.148 1.867-.227a8.4 8.4 0 0 1 1.976.138q.573.126 1.126.326c.395.138.692.326.682.543s0 .099-.158.158q-.271.035-.544 0-.59 0-1.175-.079a10.4 10.4 0 0 1-1.976-.434 16 16 0 0 0-1.778-.583"/><path fill="#263238" d="M28.778 375.812c0 .06.722-.296 1.453-1.284a6 6 0 0 0 1.225-3.171 1.59 1.59 0 0 0-.494-1.502.9.9 0 0 0-.988 0q-.317.2-.563.484a4.4 4.4 0 0 0-.722 1.087 4.5 4.5 0 0 0-.405 2.134c.08 1.255.613 1.877.662 1.828a14 14 0 0 1-.197-1.838 4.4 4.4 0 0 1 .494-1.857q.255-.506.642-.919c.276-.306.593-.494.691-.376.1.119.267.544.218.899a6 6 0 0 1-.178 1.146 7 7 0 0 1-.75 1.818c-.604.988-1.157 1.472-1.088 1.551M146.243 275.064h-49.09a31.03 31.03 0 0 0-26.388 14.7l-22.82 36.879 28.392 17.18L99.8 313.059l26.674-2.183 57.359-35.812z"/><path fill="#FFBE9D" d="m120.507 306.055-53.94 71.328-18.83-4.169 43.458-76.268z"/><path fill="#0E53BE" d="m67.179 376.494-17.26 25.874-32.344-21.32c2.233-2.963 23.049 1.868 23.049 1.868l10.373-17.052z"/><path fill="#fff" d="M51.54 388.102a1.57 1.57 0 0 1-.079 2.104 1.52 1.52 0 0 1-2.094-.059 1.66 1.66 0 0 1 .099-2.233 1.58 1.58 0 0 1 2.163.307M49.92 402.368l1.64-2.678-31.614-19.442s-1.857-.316-2.361.8z" opacity=".6"/><path fill="#263238" d="M40.198 382.422c-.099.158.652.75 1.087 1.778.435 1.027.425 1.976.613 1.976.187 0 .543-1.038 0-2.263-.544-1.225-1.63-1.679-1.7-1.491M35.891 381.572c-.138.128.366.85.464 1.867.1 1.018-.217 1.828-.059 1.976s.85-.731.711-1.976c-.138-1.245-1.017-2.005-1.116-1.867M31.287 384.397c.119.129.86-.513.988-1.649.129-1.137-.355-1.976-.504-1.877-.148.098 0 .859-.148 1.778s-.474 1.59-.336 1.748M43.004 378.776c0 .188.83.455 1.69 1.097.859.642 1.363 1.393 1.53 1.314.169-.079-.128-1.087-1.136-1.838-1.007-.751-2.084-.741-2.084-.573M46.294 375.447c0 .069.524.573 1.63 1.067a8.8 8.8 0 0 0 2.035.593q.623.105 1.255.118c.248.017.498-.003.74-.059a.812.812 0 0 0 .622-.791 1.03 1.03 0 0 0-.444-.82 3.2 3.2 0 0 0-.671-.316 7.5 7.5 0 0 0-1.225-.316 6.8 6.8 0 0 0-2.144 0c-1.205.198-1.857.613-1.818.682.04.069.731-.148 1.867-.227a8.4 8.4 0 0 1 1.976.138q.57.124 1.117.326c.395.138.691.326.681.543s0 .099-.158.158q-.272.035-.543 0-.59 0-1.176-.079a10 10 0 0 1-1.976-.434 16 16 0 0 0-1.768-.583"/><path fill="#263238" d="M46.354 375.812c0 .06.73-.296 1.462-1.284a6.4 6.4 0 0 0 .988-1.917q.176-.616.237-1.254a1.62 1.62 0 0 0-.494-1.502.92.92 0 0 0-.988 0 2.5 2.5 0 0 0-.553.484c-.3.32-.543.687-.722 1.087a4.4 4.4 0 0 0-.414 2.134c.079 1.255.612 1.877.661 1.828a16 16 0 0 1-.197-1.838c.03-.647.199-1.28.494-1.857q.261-.501.642-.919c.277-.306.593-.494.701-.376a1.15 1.15 0 0 1 .218.9 6.5 6.5 0 0 1-.988 2.963c-.553.988-1.117 1.472-1.047 1.551M163.818 275.064h-50.789a27.97 27.97 0 0 0-23.79 13.258l-23.71 38.321 28.393 17.18 25.36-33.243 24.817.296 55.205-34.469z"/><path fill="#455A64" d="M93.902 343.823a4 4 0 0 1-.543-.286l-1.541-.899-5.829-3.448-20.598-12.349-.198-.119.129-.197c4.505-7.291 9.583-15.876 15.243-24.827 4.604-7.271 9.228-14.068 13.831-19.956a11.44 11.44 0 0 1 4.357-3.359 26 26 0 0 1 4.88-1.709c3-.721 6.053-1.204 9.129-1.442a123 123 0 0 1 13.367-.326c1.57 0 2.795.099 3.625.148l.988.059h.316-1.264l-3.636-.049c-3.141 0-7.716 0-13.317.494a58 58 0 0 0-9.059 1.492 25 25 0 0 0-4.792 1.699 11 11 0 0 0-4.179 3.24c-4.554 5.928-9.158 12.675-13.752 19.946-5.66 8.941-10.748 17.506-15.293 24.787l-.079-.316 20.44 12.547 5.76 3.556 1.512.988q.271.134.503.326"/><path fill="#EB996E" d="M72.119 330.457c.118.079-4.387 8.12-10.057 17.96S51.669 366.2 51.55 366.121s4.377-8.111 10.057-17.961S72 330.388 72.12 330.457"/><path fill="#263238" d="M239.414 214.662q.107.171.188.356l.513 1.077c.445.988 1.087 2.351 1.917 4.129.405.899.869 1.907 1.373 2.964s.919 2.341 1.433 3.645c.513 1.304 1.047 2.717 1.62 4.199s1.116 3.092 1.65 4.772c.533 1.679 1.096 3.458 1.689 5.295.306.919.553 1.877.8 2.845s.504 1.976.761 2.964l.79 3.072c.139.524.267 1.048.405 1.581.139.534.218 1.077.336 1.62l1.344 6.708a216 216 0 0 1 3.151 30.31 257 257 0 0 1-1.195 30.418c-.563 4.643-.988 9.069-1.729 13.179-.336 2.055-.612 4.041-.988 5.927-.375 1.887-.711 3.725-1.047 5.464-.632 3.477-1.403 6.589-1.976 9.326l-.879 3.813c-.316 1.166-.593 2.233-.85 3.191a890 890 0 0 0-1.185 4.396l-.326 1.136a2.6 2.6 0 0 1-.129.386q.023-.201.079-.395l.267-1.156c.257-.988.632-2.519 1.097-4.416.247-.988.513-2.035.81-3.191.296-1.156.533-2.46.84-3.824.592-2.746 1.343-5.858 1.975-9.335.317-1.739.662-3.567.988-5.454s.603-3.892.919-5.927c.692-4.1 1.126-8.516 1.68-13.159a262 262 0 0 0 1.155-30.359 218 218 0 0 0-3.062-30.201c-.445-2.292-.889-4.525-1.314-6.698l-.326-1.611c-.129-.533-.267-1.057-.395-1.57l-.781-3.073c-.247-.988-.504-1.976-.751-2.964s-.474-1.976-.78-2.835l-1.65-5.295c-.523-1.69-.988-3.3-1.61-4.772s-1.087-2.895-1.581-4.208-.919-2.559-1.393-3.656l-1.333-3.013c-.781-1.788-1.393-3.191-1.828-4.169-.198-.464-.346-.82-.464-1.087a2 2 0 0 1-.208-.405M110.361 344.209a22 22 0 0 1 0 3.102c0 1.916-.079 4.564 0 7.478.079 2.915.267 5.552.425 7.469q.2 1.54.198 3.092a15.4 15.4 0 0 1-.554-3.062 76 76 0 0 1-.424-14.987 15.5 15.5 0 0 1 .355-3.092"/><path fill="#FFBE9D" d="m154.956 227.97-10.057 34.409-37.215 3.991v6.609l54.691.761 7.449-44.812z"/><path fill="#0E53BE" d="M226.482 205.405c-4.396-10.086-16.795-13.544-23.434-13.564-9.217 0-8.387-.583-17.446 1.047h-1.196c-27.533-1.116-30.704 36.712-30.704 36.712l12.556.988-3.319 26.061-9.613 18.444 52.884-.088 2.964-43.064 23.512-.672s-2.144-16.538-6.204-25.864"/><path fill="#263238" d="M167.779 213.585c.138 0-.79 9.198-2.074 20.51-1.285 11.311-2.451 20.469-2.589 20.46s.791-9.208 2.075-20.52 2.45-20.469 2.588-20.45M205.784 191.752q.069.227.069.465c0 .316.06.77.07 1.353a15.5 15.5 0 0 1-.702 4.94 14.5 14.5 0 0 1-3.626 6.421 10.3 10.3 0 0 1-3.704 2.401 14.3 14.3 0 0 1-4.663.77 23.7 23.7 0 0 1-4.693-.336 9.44 9.44 0 0 1-4.07-1.719 11.18 11.18 0 0 1-3.853-6.253 16.8 16.8 0 0 1-.534-4.94c0-.583.07-1.037.099-1.343a1.8 1.8 0 0 1 .079-.465v1.818c.014 1.64.243 3.271.682 4.851a10.98 10.98 0 0 0 3.794 5.977 9.05 9.05 0 0 0 3.872 1.6c1.518.248 3.056.353 4.594.316a13.9 13.9 0 0 0 4.495-.731 10 10 0 0 0 3.547-2.262 14.36 14.36 0 0 0 3.616-6.194c.517-1.557.8-3.182.839-4.821.06-1.216.05-1.848.089-1.848"/><path fill="#000" d="M208.205 213.585c-2.262 10.779-5.197 21.863-7.459 32.602-.474 2.292-.988 4.663-2.391 6.54a15.3 15.3 0 0 1-3.21 2.964c-4.446 3.329-9.139 6.461-14.355 8.358a129 129 0 0 0 22.337-3.883 4.65 4.65 0 0 0 3.209-1.563 4.66 4.66 0 0 0 1.158-3.377c1.62-13.831 1.155-27.77.711-41.68" opacity=".2"/><path fill="#FFBE9D" d="m135.128 261.559 16.4-1.976 11.549 7.577 44.189-10.59 1.285-24.649 19.837-.494-.464 28.937a16.8 16.8 0 0 1-1.426 6.42 16.787 16.787 0 0 1-15.823 10.009l-64.719-1.788-2.747-5.513-13.88-.405z"/><path fill="#EB996E" d="M207.266 256.57q-.409.165-.839.257l-2.401.622-8.891 2.213-29.302 7.093-2.727.662h-.109l-.088-.059-11.539-7.597h.158l-16.41 1.897.109-.06-4.298 5.562-1.165 1.443q-.192.26-.425.484.15-.284.356-.534l1.096-1.501 4.219-5.592v-.049h.069l16.389-2.045h.158l11.559 7.567h-.197l2.726-.652 29.332-6.915 8.891-2.045 2.43-.534a7 7 0 0 1 .899-.217"/><path fill="#EB996E" d="M144.642 266.261c-2.111.255-4.238.34-6.362.257h-1.166l.158-.059a29 29 0 0 1-4.129 3.181 30 30 0 0 1 3.803-3.566l.069-.06h1.265a39 39 0 0 1 6.362.247M214.982 260.699a9.61 9.61 0 0 0-7.636-4.811 2.63 2.63 0 0 1 1.422-.108 7.4 7.4 0 0 1 3.27 1.116 7.6 7.6 0 0 1 2.431 2.47c.434.77.573 1.314.513 1.333"/><path fill="#263238" d="M233.09 231.427q-.879.138-1.768.139l-4.831.177c-4.07.129-9.711.267-15.935.396h-2.223v-.247c-.227-5.78-.128-10.917 0-14.612.059-1.847.129-3.329.198-4.357q.009-.795.138-1.58c.063.527.08 1.06.049 1.59v4.357c0 3.685-.059 8.822.168 14.572l-.257-.237h1.976c6.224-.119 11.855-.208 15.945-.237h4.831a12 12 0 0 1 1.709.039"/><path fill="#FAFAFA" d="M251.703 297.351a50 50 0 0 1-5.374-4.722 51 51 0 0 1-5.018-5.098 49 49 0 0 1 5.374 4.723 50 50 0 0 1 5.018 5.097M239.038 347.844c-.637.501-1.326.931-2.055 1.285-1.284.75-3.063 1.778-5.009 2.963s-3.665 2.302-4.939 3.102c-.651.48-1.346.896-2.075 1.245a10.2 10.2 0 0 1 1.867-1.541c1.205-.889 2.964-2.055 4.861-3.25a57 57 0 0 1 5.107-2.836 10.7 10.7 0 0 1 2.243-.968M261.988 243.124a36.3 36.3 0 0 1-3.843-4.939 37.7 37.7 0 0 1-3.438-5.207 76 76 0 0 1 7.281 10.146M266.424 256.056a66 66 0 0 1-5.088 10.423 66 66 0 0 1 5.058-10.423zM270.04 297.46a77 77 0 0 1-4.199-7.775 79 79 0 0 1-3.744-8.012 75 75 0 0 1 4.198 7.775 75 75 0 0 1 3.745 8.012M269.555 315.747a52.6 52.6 0 0 1-3.951 6.194 53.5 53.5 0 0 1-4.426 5.927c2.523-4.22 5.336-8.26 8.417-12.092zM263.598 354.315a15.7 15.7 0 0 1-2.49 3.033 15.2 15.2 0 0 1-2.865 2.667 14.7 14.7 0 0 1 2.49-3.023 14.8 14.8 0 0 1 2.865-2.677M57.704 308.199a66 66 0 0 1 2.193-7.953 66 66 0 0 1 2.697-7.805 68 68 0 0 1-2.203 7.983 65.5 65.5 0 0 1-2.687 7.775M75.824 282.246c0 .148-2.322-.198-5.167-.099s-5.108.583-5.147.435a13.2 13.2 0 0 1 5.127-.988 13.3 13.3 0 0 1 5.187.652"/><path fill="#FFBE9D" d="m206.259 159.269-2.49 35.289a10.995 10.995 0 0 1-15.343 9.318 10.99 10.99 0 0 1-5.983-6.392 11 11 0 0 1-.615-4.428c.217-3.359.414-6.105.414-6.105s-8.535-1.324-8.644-9.879c-.099-7.617 1.976-30.172 2.43-34.943h15.412a15.8 15.8 0 0 1 11.028 5.441 15.8 15.8 0 0 1 3.791 11.699"/><path fill="#EB996E" d="M182.233 186.813a19.9 19.9 0 0 0 11.134-3.172s-2.638 6.145-11.154 5.385z"/><path fill="#263238" d="M177.362 162.628a1.22 1.22 0 0 0 1.176 1.225 1.187 1.187 0 0 0 1.145-.65c.069-.139.11-.291.12-.446a1.229 1.229 0 0 0-1.176-1.235 1.18 1.18 0 0 0-.862.29 1.18 1.18 0 0 0-.403.816M176.592 160.949c.148.158 1.077-.524 2.381-.524s2.282.662 2.42.504-.089-.366-.504-.672a3.44 3.44 0 0 0-1.976-.593c-.68 0-1.344.215-1.896.613-.366.316-.504.603-.425.672M189.711 162.984a1.205 1.205 0 0 0 1.176 1.225 1.16 1.16 0 0 0 .89-.269 1.16 1.16 0 0 0 .404-.838 1.22 1.22 0 0 0-.338-.855 1.22 1.22 0 0 0-.838-.379 1.15 1.15 0 0 0-.89.275 1.17 1.17 0 0 0-.404.841M189.484 161.196c.158.158 1.077-.524 2.391-.524s2.272.662 2.42.494-.089-.356-.504-.662a3.36 3.36 0 0 0-1.976-.593 3.2 3.2 0 0 0-1.896.613c-.366.306-.504.603-.435.672M184.722 170.927a8.3 8.3 0 0 0-2.124-.386c-.336 0-.652-.098-.711-.335a1.66 1.66 0 0 1 .227-.988c.306-.81.642-1.66.988-2.549a44 44 0 0 0 2.223-6.679 43.6 43.6 0 0 0-2.756 6.481c-.336.899-.652 1.749-.988 2.569a1.97 1.97 0 0 0-.178 1.314.82.82 0 0 0 .553.484q.281.078.573.079c.728.097 1.465.1 2.193.01M188.584 171.836c-.207 0-.217 1.412-1.432 2.42s-2.737.85-2.747 1.057c-.009.208.336.277.988.287a3.5 3.5 0 0 0 2.292-.791 3.13 3.13 0 0 0 1.117-2.035c.039-.593-.119-.948-.218-.938M189.148 156.049c.129.355 1.443.187 2.964.375s2.786.603 2.964.287c.099-.158-.119-.494-.623-.84a5.27 5.27 0 0 0-4.544-.504c-.534.237-.81.514-.761.682M177.075 157.175c.227.306 1.126 0 2.213 0s1.976.197 2.223-.109c.099-.158 0-.454-.454-.741a3.13 3.13 0 0 0-1.808-.484 3.04 3.04 0 0 0-1.769.603c-.385.257-.513.563-.405.731"/><path fill="#FFBE9D" d="M203.384 165.681c.148-.059 5.868-1.739 5.68 4.1-.187 5.838-6.016 4.455-6.016 4.287s.336-8.387.336-8.387"/><path fill="#EB996E" d="M204.906 171.905s.099.079.266.158q.178.087.376.101a1 1 0 0 0 .385-.052 2.524 2.524 0 0 0 1.235-2.223 3.2 3.2 0 0 0-.237-1.472 1.18 1.18 0 0 0-.741-.8.514.514 0 0 0-.603.257c-.088.158 0 .277-.089.287-.088.009-.118-.099-.059-.336a.63.63 0 0 1 .237-.366.78.78 0 0 1 .563-.128c.239.054.46.169.641.334.182.164.319.372.397.604.232.514.334 1.078.296 1.64a2.65 2.65 0 0 1-.404 1.477c-.278.441-.681.79-1.157 1.003a1.13 1.13 0 0 1-.928-.188c-.168-.148-.198-.286-.178-.296"/><path fill="#263238" d="M206.634 165.483a3.08 3.08 0 0 0-2.815 1.443c-.376.83-.465 1.778-.84 2.608a2.066 2.066 0 0 1-2.124 1.383 1.8 1.8 0 0 1-1.215-1.334 4.8 4.8 0 0 1 0-1.887c.346-2.726.919-5.423.988-8.17a14.05 14.05 0 0 0-1.719-7.903 7.66 7.66 0 0 0-6.837-3.833c-1.808.138-3.477 1.086-5.275 1.343a7.13 7.13 0 0 1-5.928-1.976c-.197-.187-1.106-.79-1.106-.79a3.34 3.34 0 0 1 .612-1.808c3.577-3.309 10.018-4.228 14.74-3.043a17.02 17.02 0 0 1 11.183 8.951c2.035 4.426 1.433 10.59.316 15.066"/><path fill="#263238" d="M206.466 164.979c.316-2.855 1.739-5.463 2.48-8.249s.573-6.174-1.65-8.002c-.761-.622-1.699-.988-2.411-1.689a12.4 12.4 0 0 1-1.659-2.45 10.158 10.158 0 0 0-7.558-4.604c-2.104-.188-4.228.306-6.333.168-3.339-.207-6.5-1.976-9.879-1.818a3.95 3.95 0 0 0-2.964 1.235 1.99 1.99 0 0 0-.422 1.528 1.97 1.97 0 0 0 .837 1.347 1.69 1.69 0 0 0-2.588-.079 2.56 2.56 0 0 0-.178 2.815 5.5 5.5 0 0 0 2.154 2.045 14 14 0 0 0 9.533 1.759l6.303-3.438 7.133 1.571 6.787 4.534-3.003 12.557z"/><path fill="#E0E0E0" d="m60.896 234.411 20.637 40.653h65.203l-2.578-5.266-18.889-.553-15.392-34.281a5.92 5.92 0 0 0-5.444-3.517h-41.67a2.076 2.076 0 0 0-1.867 2.964"/><path fill="#263238" d="M91.6 255.068a2.667 2.667 0 1 0 0-5.334 2.667 2.667 0 0 0 0 5.334"/><path fill="#455A64" d="M235.175 233.571c-.158 11.391-7.093 21.883-16.153 28.798-9.059 6.916-20.045 10.759-30.991 13.91s-22.139 5.75-32.443 10.63c-14.256 6.748-27.464 16.004-35.565 29.569s-10.887 31.366-9.988 47.173l121.119-12.112 6.629-68.898z"/><path fill="#263238" d="m188.032 276.279-.267.079-.77.188c-.682.158-1.69.355-2.964.672a154 154 0 0 0-10.867 2.963 145 145 0 0 0-15.56 5.78 94 94 0 0 0-17.664 10.047 88 88 0 0 0-7.904 6.915 80 80 0 0 0-6.629 7.232 68.5 68.5 0 0 0-8.891 14.019 59 59 0 0 0-3.744 10.551c-.366 1.274-.504 2.301-.682 2.963a36 36 0 0 1-.178.771 4 4 0 0 1-.069.267 1.2 1.2 0 0 1 0-.277c0-.207.079-.464.129-.78.138-.692.247-1.719.583-2.964a55.3 55.3 0 0 1 3.556-10.67 66.9 66.9 0 0 1 8.891-14.167 81 81 0 0 1 6.649-7.3 88 88 0 0 1 7.992-6.975 92.7 92.7 0 0 1 17.783-10.067 140 140 0 0 1 15.688-5.72 141 141 0 0 1 10.867-2.786c1.295-.287 2.312-.445 2.964-.583l.781-.128a1 1 0 0 1 .306-.03"/><path fill="#FAFAFA" d="M214.014 334.112a96 96 0 0 1-8.397 5.137 93 93 0 0 1-8.654 4.693 92 92 0 0 1 8.397-5.137 96 96 0 0 1 8.654-4.693M159.362 337.59a16 16 0 0 1-1.975-1.818c-1.186-1.156-2.826-2.757-4.653-4.495-1.828-1.739-3.527-3.29-4.743-4.406a15 15 0 0 1-1.975-1.887 13 13 0 0 1 2.163 1.61c1.284 1.047 3.013 2.559 4.861 4.307a91 91 0 0 1 4.554 4.614 11.7 11.7 0 0 1 1.768 2.075M184.633 303.793a55 55 0 0 1-1.67 7.32 56 56 0 0 1-2.173 7.202 55 55 0 0 1 1.67-7.33 57 57 0 0 1 2.173-7.192M233.021 312.22a69 69 0 0 1-7.854-3.211 68 68 0 0 1-7.656-3.685 72 72 0 0 1 7.903 3.211 71 71 0 0 1 7.607 3.685M177.362 356.923a39 39 0 0 1-1.274-6.293 41.6 41.6 0 0 1-.761-6.382 39.3 39.3 0 0 1 1.275 6.293c.417 2.105.672 4.238.76 6.382M135.237 354.127a69 69 0 0 1-5.74-6.144 66 66 0 0 1-5.345-6.481 68 68 0 0 1 5.73 6.145 68 68 0 0 1 5.355 6.48M168.846 292.441a47 47 0 0 1-6.204 3.389 48.5 48.5 0 0 1-6.431 2.964 47.4 47.4 0 0 1 6.204-3.389 49 49 0 0 1 6.431-2.964M216.879 284.37c-2.518.248-5.049.33-7.578.247a57 57 0 0 1-7.587-.257c2.52-.26 5.055-.346 7.587-.257 2.529-.089 5.061 0 7.578.267M236.124 251.028a23.3 23.3 0 0 1-2.085 5.74 23.7 23.7 0 0 1-3.063 5.275c-.128-.079 1.186-2.46 2.599-5.493 1.412-3.033 2.4-5.522 2.549-5.522"/><path fill="#263238" d="M393.856 340.869h-72.217v9.919h72.217z"/><path fill="#263238" d="M393.975 350.917h-72.464v-10.166h72.464zm-72.217-.247h71.96v-9.672h-71.96z"/><path fill="#263238" d="m328.327 347.498 10.403 51.274h38.46l10.047-47.974z"/><path fill="#455A64" d="m328.327 393.921 5.552 7.627h46.749l6.609-7.627z"/><path fill="#263238" d="M355.031 348.99c-.138 0-.326-23.759-.405-53.051s0-53.062.108-53.062c.109 0 .326 23.71.406 53.062.079 29.351.049 53.051-.109 53.051M371.113 289.557a2.3 2.3 0 0 1-.187.553l-.642 1.541-.475 1.107c-.148.414-.306.869-.484 1.343s-.355.988-.553 1.551-.346 1.146-.533 1.769a71 71 0 0 0-1.976 8.841 108 108 0 0 0-1.196 11.036 150 150 0 0 0 .573 20.193c.228 2.578.465 4.663.633 6.105.079.672.138 1.225.187 1.66q.039.29 0 .583a2.6 2.6 0 0 1-.128-.573c-.079-.435-.168-.988-.287-1.65a137 137 0 0 1-.8-6.086 134 134 0 0 1-.721-20.262c.183-3.72.572-7.427 1.166-11.104a66 66 0 0 1 2.144-8.892c.197-.622.365-1.215.573-1.768l.592-1.541c.188-.474.356-.919.524-1.334s.356-.77.514-1.096l.731-1.502q.155-.25.345-.474"/><path fill="#263238" d="M369.276 270.322a7 7 0 0 1-.237.79l-.751 2.203c-.168.484-.345.988-.553 1.591l-.583 1.926c-.415 1.373-.909 2.964-1.343 4.693-.228.879-.475 1.788-.721 2.746l-.682 2.964c-.504 2.065-.87 4.317-1.334 6.659a200 200 0 0 0-1.976 15.441c-.484 5.503-.662 10.768-.731 15.55-.069 4.781.05 9.099.247 12.714.059 1.818.178 3.448.277 4.881.099 1.432.168 2.677.257 3.685.089 1.007.138 1.748.178 2.321a4.3 4.3 0 0 1 0 .82 5 5 0 0 1-.129-.8c-.069-.583-.158-1.353-.277-2.322a84 84 0 0 1-.345-3.684c-.109-1.443-.267-3.063-.356-4.881-.237-3.616-.336-7.903-.356-12.734s.237-10.077.692-15.599 1.205-10.749 2.025-15.471c.484-2.352.86-4.604 1.383-6.679l.712-2.964c.256-.987.513-1.867.76-2.746.455-1.758.988-3.319 1.423-4.683.217-.681.425-1.323.622-1.906l.593-1.581.84-2.183q.155-.389.365-.751M350.466 353.199a.9.9 0 0 1 0-.287c0-.207 0-.474-.069-.81-.049-.761-.128-1.808-.217-3.151-.168-2.767-.415-6.708-.721-11.569-.633-9.77-1.532-23.266-3.181-38.104a470 470 0 0 0-2.826-20.865c-.533-3.181-.988-6.224-1.581-9.04-.592-2.815-1.057-5.463-1.561-7.854-.503-2.39-.987-4.544-1.422-6.441s-.83-3.527-1.166-4.851-.563-2.331-.751-3.062l-.178-.8a1.2 1.2 0 0 1 0-.277q.065.128.099.267c.06.197.139.464.227.78.208.731.494 1.749.85 3.043s.8 2.964 1.245 4.831c.444 1.867.988 4.041 1.502 6.431.513 2.391 1.096 5.019 1.63 7.854a666 666 0 0 1 1.63 9.05 440 440 0 0 1 2.865 20.875c1.649 14.818 2.499 28.363 3.033 38.143.266 4.891.444 8.842.553 11.579q.074 2.013.118 3.151v.82a1.2 1.2 0 0 1-.079.287"/><path fill="#0E53BE" d="M354.438 254.298c-.306-3.369-3.714-5.928-7.093-5.928s-6.53 1.976-8.595 4.673a26.8 26.8 0 0 0-4.139 9.188c-2.273 7.903-3.517 16.261-2.549 24.451s4.297 16.261 10.175 22.04c.988.988 2.194 1.887 3.508 1.611a4.24 4.24 0 0 0 1.847-1.146 54.73 54.73 0 0 0 17.783-41.612c-.099-3.112-.504-6.352-2.233-8.95s-5.74-5.355-8.684-4.308M329.206 227.317a4306 4306 0 0 0-4.762 8.625c-.109.198-.257.425-.484.445-.227.019-.445-.218-.583-.425l-12.586-19.324 2.905-1.64z"/><path fill="#000" d="M329.206 227.317a4306 4306 0 0 0-4.762 8.625c-.109.198-.257.425-.484.445-.227.019-.445-.218-.583-.425l-12.586-19.324 2.905-1.64z" opacity=".2"/><path fill="#0E53BE" d="m354.734 242.877-42.935-25.34a2.02 2.02 0 0 1-1.067-1.087c-.168-.632.306-1.244.77-1.719a29.6 29.6 0 0 1 10.49-6.993 29.6 29.6 0 0 1 12.45-1.987 26.2 26.2 0 0 1 20.746 12.902c4.14 7.4 4.278 17.19-.474 24.224"/><path fill="#263238" d="M317.983 209.456q.276-.08.564-.079c.375 0 .918-.079 1.63-.069a31.7 31.7 0 0 1 5.927.464 34.42 34.42 0 0 1 24.372 16.963 34.6 34.6 0 0 1 3.409 8.19 32.7 32.7 0 0 1 1.067 5.878c.079.701.069 1.254.088 1.62a2.4 2.4 0 0 1 0 .563s-.098-.771-.266-2.164a36.6 36.6 0 0 0-1.215-5.799 35.076 35.076 0 0 0-27.504-24.886 37.3 37.3 0 0 0-5.928-.632c-1.363-.029-2.134.03-2.144-.049"/><path fill="#263238" d="M348.925 225.391a11 11 0 0 1-2.173.988 86 86 0 0 1-5.414 1.917 82 82 0 0 1-5.533 1.56 9.6 9.6 0 0 1-2.351.425c.72-.337 1.471-.602 2.243-.79l5.473-1.709 5.453-1.759a11 11 0 0 1 2.302-.632M342.158 207.223c.602 3.166.685 6.41.247 9.603a30 30 0 0 1-.247-4.802 31 31 0 0 1 0-4.801M311.424 217.063a18.4 18.4 0 0 1 3.122-1.107 147 147 0 0 1 7.696-2.084 134 134 0 0 1 7.804-1.65 19.4 19.4 0 0 1 3.27-.435q-1.572.514-3.201.801a456 456 0 0 0-7.755 1.778c-3.023.721-5.75 1.432-7.716 1.976a23 23 0 0 1-3.22.721"/><path fill="#0E53BE" d="M334.936 246.325c-3.695-2.796-7.597-3.349-12.23-3.161a37.3 37.3 0 0 0-13.377 3.448c-7.241 3.171-14.048 7.844-18.375 14.463s-5.829 15.372-2.588 22.584a3.24 3.24 0 0 0 1.462 1.778 3.53 3.53 0 0 0 2.43-.188c8.229-2.687 16.518-5.404 24.095-9.602 7.578-4.199 14.464-10.057 18.524-17.704a15.1 15.1 0 0 0 1.976-5.878 7.31 7.31 0 0 0-1.887-5.74"/><path fill="#263238" d="M335.005 245.456a2.8 2.8 0 0 1-.593.247l-1.719.592-1.254.415c-.445.158-.929.366-1.452.573-1.048.415-2.253.84-3.527 1.453l-2.026.918c-.691.326-1.393.722-2.134 1.107-1.491.731-2.963 1.67-4.613 2.618a72.8 72.8 0 0 0-18.158 15.975c-1.146 1.482-2.272 2.855-3.191 4.248-.464.681-.988 1.324-1.363 1.976l-1.166 1.887c-.771 1.185-1.344 2.331-1.897 3.309-.267.494-.534.988-.751 1.373-.217.386-.395.83-.573 1.186-.326.672-.602 1.215-.81 1.64a2.6 2.6 0 0 1-.316.553q.096-.303.227-.593l.721-1.679q.237-.564.534-1.215c.207-.435.454-.899.711-1.393.534-.988 1.087-2.164 1.838-3.369l1.156-1.917c.395-.662.879-1.314 1.343-1.976.909-1.402 1.976-2.805 3.161-4.297a70.4 70.4 0 0 1 18.287-16.083c1.63-.988 3.151-1.878 4.663-2.599.751-.365 1.462-.76 2.163-1.077l2.045-.889c1.295-.602 2.52-.988 3.577-1.403.523-.187.988-.375 1.472-.523l1.274-.376 1.759-.503q.3-.11.612-.178M306.158 261.085a91 91 0 0 1-8.98 2.884 86 86 0 0 1-9.128 2.401 89 89 0 0 1 8.99-2.894 85 85 0 0 1 9.118-2.391"/><path fill="#263238" d="M305.792 280.902a14.6 14.6 0 0 1-.197-2.795c-.05-1.739-.06-4.13 0-6.768.059-2.637.217-5.028.355-6.757.029-.935.149-1.864.356-2.776a16.6 16.6 0 0 1 0 2.806l-.208 6.747c-.079 2.549-.118 4.851-.168 6.748a17 17 0 0 1-.138 2.795M322.775 272.248c-.149 0-.593-4.85-.988-10.867-.395-6.016-.642-10.867-.504-10.867s.603 4.851.988 10.867.642 10.857.504 10.867M301.634 250.04c.957-.113 1.923-.14 2.885-.079 1.768 0 4.218.059 6.915.148s5.157.197 6.915.306c.962.01 1.92.102 2.865.277-.953.114-1.915.144-2.874.089-1.779 0-4.229-.07-6.916-.158a257 257 0 0 1-6.915-.307 14.5 14.5 0 0 1-2.875-.276M344.075 311.014a4 4 0 0 1-.06-.582c0-.445 0-.988-.069-1.69-.069-1.462-.079-3.586 0-6.204s.227-5.75.534-9.198c.306-3.447.82-7.241 1.511-11.183.692-3.942 1.561-7.666 2.44-11.025.88-3.359 1.818-6.333 2.678-8.812.859-2.48 1.6-4.466 2.173-5.819.267-.633.474-1.146.652-1.561q.093-.28.257-.524-.046.293-.168.563c-.138.415-.326.988-.553 1.591a111 111 0 0 0-1.976 5.868c-.771 2.49-1.689 5.473-2.559 8.822a151 151 0 0 0-2.4 10.986c-.712 3.932-1.186 7.696-1.542 11.134-.355 3.438-.553 6.55-.642 9.168s-.138 4.732-.138 6.194v1.69q-.026.302-.138.582"/><path fill="#263238" d="M346.347 281.722a12 12 0 0 1-1.719 1.887 100 100 0 0 1-4.485 4.169c-1.798 1.581-3.478 2.964-4.723 3.903a12.3 12.3 0 0 1-2.084 1.452 12 12 0 0 1 1.857-1.729l4.614-4.011 4.574-4.05a14 14 0 0 1 1.966-1.621M359.931 292.669a21 21 0 0 1-1.778-2.52l-4.248-6.194-4.327-6.135a19 19 0 0 1-1.739-2.588c.746.726 1.424 1.52 2.025 2.371a130 130 0 0 1 4.466 6.056 130 130 0 0 1 4.129 6.293c.568.862 1.06 1.771 1.472 2.717M352.817 258.249c.069.119-4.436 3.152-10.086 6.787-5.651 3.636-10.285 6.471-10.364 6.353s4.446-3.162 10.087-6.787 10.284-6.481 10.363-6.353M365.543 271.982a83 83 0 0 1-6.827-6.303 87 87 0 0 1-6.471-6.679 81 81 0 0 1 6.827 6.303 85 85 0 0 1 6.471 6.679"/><path fill="#0E53BE" d="m368.743 271.705 3.873-.316a19.2 19.2 0 0 0 7.834-2.401 32 32 0 0 1 3.646-1.828c4.791-1.926 10.136-1.58 15.293-1.837a63.2 63.2 0 0 0 24.322-6.224 2.34 2.34 0 0 0 1.067-.988c.791-1.452-.681-2.746-1.975-3.527-6.531-4.021-13.179-8.101-20.579-10.096-7.399-1.996-15.807-1.66-22.129 2.687-7.41 5.107-10.117 15.589-11.371 24.5"/><path fill="#263238" d="m424.857 257.667-.652-.307-1.837-.988c-1.591-.839-3.883-2.074-6.787-3.457a62 62 0 0 0-10.502-4.051 34.7 34.7 0 0 0-13.604-1.106 23.3 23.3 0 0 0-12.408 5.334 27.5 27.5 0 0 0-6.461 9.07c-1.363 2.904-2.203 5.374-2.816 7.063l-.691 1.976a3.4 3.4 0 0 1-.267.672q.047-.36.168-.702c.158-.503.356-1.165.603-1.975a66 66 0 0 1 2.667-7.153 27.5 27.5 0 0 1 6.481-9.277 23.5 23.5 0 0 1 12.655-5.483 34.5 34.5 0 0 1 13.831 1.156 60.4 60.4 0 0 1 10.531 4.179 122 122 0 0 1 6.728 3.616l1.788 1.037q.308.166.573.396"/><path fill="#263238" d="M415.551 262.665c-.079.119-5.147-3.161-11.312-7.32s-11.114-7.637-11.035-7.755 5.147 3.161 11.322 7.32 11.104 7.637 11.025 7.755M410.691 247.076a19.1 19.1 0 0 1-7.993.731 24.3 24.3 0 0 1 3.952-.445 22.6 22.6 0 0 1 4.041-.286M387.958 243.035a13.4 13.4 0 0 1-1.659 3.32 13.8 13.8 0 0 1-2.105 3.072 13.8 13.8 0 0 1 1.621-3.339 14 14 0 0 1 2.143-3.053M392.503 265.649a13.5 13.5 0 0 1-2.441-1.324c-1.462-.889-3.438-2.193-5.552-3.724a158 158 0 0 1-5.325-4.051 15.6 15.6 0 0 1-2.104-1.808c.823.433 1.604.943 2.332 1.522l5.394 3.951a241 241 0 0 0 5.453 3.833q1.187.71 2.243 1.601"/><path fill="#0E53BE" d="M374.453 288.174c-3.695-.988-8.101 2.618-8.891 6.362-.791 3.744.652 7.577 2.292 11.035a56.3 56.3 0 0 0 15.283 19.996c6.619 5.275 14.908 8.644 23.374 8.604-1.561-7.261.415-14.819-.454-22.218a28.89 28.89 0 0 0-25.578-25.36c-2.361-.257-5.088-.632-6.026 1.551"/><path fill="#263238" d="M406.561 334.171a2.8 2.8 0 0 1-.524-.247 8.8 8.8 0 0 1-1.452-.899 14.4 14.4 0 0 1-3.655-4.88c-.583-1.146-1.245-2.391-1.887-3.764a212 212 0 0 1-1.976-4.396 43 43 0 0 0-2.45-4.693 37 37 0 0 0-3.359-4.574c-2.529-2.964-5.246-5.542-7.597-8.002a52 52 0 0 1-5.799-6.916 25 25 0 0 1-2.826-5.404 13 13 0 0 1-.494-1.59 2 2 0 0 1-.118-.563c.049 0 .257.751.79 2.074a27.8 27.8 0 0 0 2.964 5.276 54.5 54.5 0 0 0 5.839 6.826c2.361 2.431 5.097 4.999 7.656 8.003a37 37 0 0 1 3.398 4.643 42 42 0 0 1 2.441 4.762c.691 1.551 1.333 3.033 1.975 4.416s1.265 2.628 1.828 3.774a15.1 15.1 0 0 0 3.458 4.939c1.057.82 1.788 1.166 1.788 1.215"/><path fill="#263238" d="M387.415 328.135c.019-.84.135-1.676.346-2.489.286-1.522.761-3.606 1.403-5.928a64 64 0 0 1 1.877-5.75c.238-.803.569-1.576.988-2.302a13.3 13.3 0 0 1-.672 2.421 246 246 0 0 0-1.719 5.779 205 205 0 0 0-1.541 5.819 12.7 12.7 0 0 1-.682 2.45M405.83 310.303a14.8 14.8 0 0 1-2.598-.603c-1.601-.414-3.794-.987-6.244-1.531s-4.683-.988-6.293-1.284a14 14 0 0 1-2.608-.583c.894-.012 1.787.061 2.667.217 1.63.218 3.883.593 6.353 1.146a73 73 0 0 1 6.224 1.69c.866.221 1.704.539 2.499.948M373.702 315.5c.035-.973.168-1.939.395-2.885.326-1.759.85-4.189 1.542-6.837a120 120 0 0 1 1.975-6.717c.26-.936.614-1.843 1.057-2.707-.162.955-.4 1.897-.711 2.815a297 297 0 0 0-1.857 6.738c-.692 2.638-1.265 5.048-1.68 6.787q-.253 1.43-.721 2.806M397.354 294.793c-3.447-.1-6.886-.377-10.304-.83-5.681-.603-10.275-1.205-10.255-1.344 3.447.1 6.886.377 10.304.83 5.681.603 10.265 1.205 10.255 1.344"/><path fill="#455A64" d="M393.975 350.808c0 .138-16.222.257-36.227.257-20.006 0-36.227-.119-36.227-.257s16.211-.257 36.227-.257 36.227.059 36.227.257M382.682 371.633c0 .139-10.926.257-24.401.257-13.476 0-24.412-.118-24.412-.257 0-.138 10.927-.256 24.412-.256s24.401.108 24.401.256M383.107 374.617c0 .138-10.926.257-24.401.257-13.476 0-24.412-.119-24.412-.257s10.926-.257 24.412-.257 24.401.158 24.401.257M383.107 369.173c0 .139-11.302.257-25.241.257s-25.252-.118-25.252-.257c0-.138 11.302-.256 25.252-.256s25.241.108 25.241.256"/><path fill="#5382A1" d="M267.476 62.975s-2.474 1.42 1.761 1.9c5.131.577 7.753.495 13.407-.561 0 0 1.487.92 3.563 1.716-12.675 5.36-28.687-.31-18.731-3.055m-1.549-6.995s-2.775 2.027 1.463 2.46c5.481.558 9.81.603 17.299-.82 0 0 1.036 1.036 2.665 1.603-15.325 4.422-32.394.349-21.427-3.243"/><path fill="#E76F00" d="M278.985 44.116c3.123 3.547-.821 6.74-.821 6.74s7.93-4.04 4.288-9.098c-3.401-4.716-6.01-7.06 8.112-15.141 0 0-22.166 5.462-11.579 17.498"/><path fill="#5382A1" d="M295.749 68.148s1.831 1.489-2.017 2.64c-7.316 2.187-30.451 2.848-36.878.088-2.31-.992 2.022-2.368 3.385-2.657 1.421-.304 2.233-.247 2.233-.247-2.569-1.786-16.606 3.506-7.13 5.022 25.844 4.135 47.11-1.862 40.407-4.846m-27.083-19.415s-11.768 2.758-4.167 3.76c3.209.423 9.606.328 15.566-.165 4.87-.405 9.76-1.267 9.76-1.267s-1.717.725-2.96 1.562c-11.95 3.102-35.035 1.659-28.389-1.513 5.62-2.68 10.19-2.377 10.19-2.377m21.11 11.643c12.148-6.229 6.532-12.214 2.611-11.407-.961.197-1.389.368-1.389.368s.357-.552 1.038-.79c7.756-2.69 13.72 7.935-2.504 12.143 0 0 .188-.166.244-.314"/><path fill="#E76F00" d="M282.453 13.569s6.727 6.64-6.381 16.85c-10.512 8.192-2.397 12.862-.005 18.198-6.136-5.463-10.639-10.271-7.618-14.746 4.434-6.57 16.718-9.755 14.004-20.302"/><path fill="#5382A1" d="M269.86 77.253c11.661.737 29.566-.409 29.991-5.852 0 0-.816 2.064-9.637 3.702-9.953 1.848-22.228 1.633-29.508.448 0 0 1.49 1.217 9.154 1.702"/><path fill="#2C2255" d="M347.248 162.354h-4.585q.91 3.11 3.383 5.572 3.943 3.925 9.487 3.924 1.108 0 2.15-.159 4.177-.626 7.311-3.765 2.489-2.462 3.406-5.572zm-2.528-6.198h-2.395q-.135.798-.175 1.606h26.766a14 14 0 0 0-.176-1.606m-26.59 3.099q.042.822.175 1.607h26.416q.135-.799.176-1.607m-.516-4.592q-.917-3.118-3.407-5.598-3.125-3.11-7.29-3.737a14.6 14.6 0 0 0-2.171-.162q-5.545 0-9.487 3.899-2.474 2.48-3.384 5.598"/><path fill="#F7941E" d="M341.355 158.509c0-7.039 5.31-12.887 12.218-13.915a13 13 0 0 0-.516-.013c-7.752 0-14.037 6.236-14.037 13.928s6.284 13.928 14.037 13.928q.26-.001.518-.013c-6.91-1.028-12.22-6.876-12.22-13.915"/><path fill="url(#b)" d="M364.642 157.762a9 9 0 0 0-.277-1.607h-17.663a9 9 0 0 0-.277 1.607z"/><path fill="url(#c)" d="M364.642 159.255h-18.217a9 9 0 0 0 .277 1.607h17.663q.21-.792.277-1.607"/><path fill="url(#d)" d="M355.534 167.609a9.14 9.14 0 0 0 8.286-5.255h-16.572a9.14 9.14 0 0 0 8.286 5.255"/><path fill="#fff" d="M345.075 159.255h23.823q.019-.357.019-.717 0-.391-.024-.776H342.15q-.023.385-.024.776 0 .36.02.717zm2.119-4.592h-4.532c-.149.486-.245.984-.337 1.492h26.331a13 13 0 0 0-.361-1.492m-1.361 6.198h-24.61c.09.508.192 1.006.339 1.493h25.72q.22-.736.354-1.493z"/><path fill="#2684FF" d="M134.82 167.249h-15.049a6.794 6.794 0 0 0 6.794 6.794h2.772v2.676a6.793 6.793 0 0 0 6.789 6.789v-14.953c0-.721-.585-1.306-1.306-1.306"/><path fill="url(#e)" d="M127.374 174.748h-15.049a6.793 6.793 0 0 0 6.789 6.788h2.772v2.686a6.793 6.793 0 0 0 6.793 6.784v-14.953c0-.721-.584-1.305-1.305-1.305"/><path fill="url(#f)" d="M119.924 182.241h-15.049a6.794 6.794 0 0 0 6.793 6.794h2.781v2.676a6.793 6.793 0 0 0 6.78 6.789v-14.953c0-.721-.584-1.306-1.305-1.306"/><mask id="g" width="35" height="58" x="256" y="119" maskUnits="userSpaceOnUse" style="mask-type:luminance"><path fill="#fff" d="M290.881 119.5H256v57h34.881z"/></mask><g mask="url(#g)"><path fill="#D33833" d="M290.159 142.639c0 9.494-7.502 17.198-16.762 17.198-9.259 0-16.761-7.704-16.761-17.198s7.502-17.198 16.761-17.198 16.762 7.703 16.762 17.198"/><path fill="#EF3D3A" d="M257.325 146.897s-1.217-17.93 15.261-18.445l-1.149-1.926-8.935 3.011-2.555 2.943-2.23 4.286-1.271 4.991.379 3.337"/><path fill="#231F20" d="M261.92 130.907a16.9 16.9 0 0 0-4.758 11.8c0 4.611 1.825 8.775 4.758 11.799 2.947 3.025 6.989 4.883 11.477 4.883 4.487 0 8.529-1.858 11.476-4.883a16.9 16.9 0 0 0 4.758-11.799c0-4.612-1.825-8.776-4.758-11.8-2.947-3.011-6.989-4.883-11.476-4.883-4.475 0-8.53 1.858-11.477 4.883m-.743 24.318c-3.123-3.201-5.056-7.636-5.056-12.518s1.933-9.318 5.056-12.533c3.122-3.201 7.448-5.194 12.22-5.194 4.771 0 9.097 1.993 12.22 5.194 3.122 3.201 5.055 7.636 5.055 12.533 0 4.882-1.933 9.317-5.055 12.518-3.123 3.215-7.449 5.195-12.22 5.195s-9.098-1.98-12.22-5.195"/><path fill="#F0D6B7" d="m280.454 142.734-2.555.379-3.447.394-2.23.054-2.177-.068-1.662-.515-1.474-1.601-1.149-3.268-.257-.706-1.527-.515-.893-1.478-.635-2.116.703-1.858 1.663-.584 1.338.638.635 1.41.771-.122.257-.325-.257-1.479-.068-1.858.379-2.563-.014-1.465 1.163-1.872 2.041-1.478 3.569-1.533 3.96.583 3.447 2.496 1.595 2.564 1.028 1.858.257 4.611-.771 3.974-1.406 3.527-1.324 1.885"/><path fill="#335061" d="m278.29 153.815-9.124.379v1.533l.771 5.385-.379.447-6.38-2.183-.446-.774-.636-7.242-1.5-4.34-.325-1.031 5.11-3.527 1.595-.637 1.406 1.736 1.217 1.085 1.406.448.635.19.77 3.336.582.705 1.473-.515-1.027 1.994 5.542 2.631z"/><path fill="#6D6B6D" d="m263.15 131.463 1.663-.584 1.338.638.636 1.411.77-.123.189-.773-.378-1.478.378-3.526-.324-1.926 1.149-1.343 2.487-1.98-.703-.963-3.514 1.736-1.474 1.153-.824 1.79-1.271 1.736-.378 2.048z"/><path fill="#DCD9D8" d="M265.773 125.441s.959-2.374 4.785-3.527.189-.827.189-.827l-4.15 1.6-1.595 1.601-.703 1.275zm-1.92 5.574s-1.338-4.489 3.772-5.127l-.19-.773-3.514.828-1.027 3.336.256 2.184z"/><path fill="#F7E4CD" d="m265.895 136.969.838-.814s.378.041.446.489c.067.447.257 4.489 3.001 6.659.256.204-2.042-.325-2.042-.325l-2.041-3.201m11.544-4.028s.149-1.94.676-1.791.527.678.527.678-1.27.814-1.203 1.113m5.299-7.107s-1.054.217-1.149 1.152c-.094.936 1.149.19 1.338.123m-7.907-1.208s-1.406.19-1.406 1.085c0 .896 1.595.828 2.041.448m-9.314 2.631s-2.419-1.478-2.676-.068c-.257 1.411-.825 2.428.378 3.907l-.824-.258-.771-1.98-.256-1.926 1.473-1.533 1.663.122.959.773zm1.149-4.042s1.082-5.642 6.57-6.727c4.515-.895 6.894.19 7.786 1.221 0 0-4.028-4.802-7.854-3.337-3.825 1.479-6.637 4.164-6.569 5.887.108 2.956.067 2.956.067 2.956m14.802-4.869s-1.852-.068-1.919 1.601c0 0 0 .257.121.515 0 0 1.474-1.668 2.366-.773"/><path fill="#F7E4CD" d="M274.397 126.254s-.324-2.549-2.487-1.071c-1.406.963-1.27 2.306-1.027 2.563.257.258.189.773.378.421.19-.353.136-1.506.839-1.831.689-.326 1.851-.678 2.297-.082"/><path fill="#49728B" d="m268.396 143.561-6.002 2.685s2.487 9.928 1.216 13.007l-.892-.325-.067-3.784-1.663-7.162-.703-1.98 6.259-4.232zm.608 5.493.852 1.044v3.839h-1.014s-.122-2.686-.122-3.011.122-1.479.122-1.479m.189 5.073-2.879.122.825.583 2.041.326"/><path fill="#335061" d="m278.859 153.882 2.365-.067.581 5.886-2.419.326z"/><path fill="#335061" d="m279.493 153.882 3.569-.19s1.473-3.716 1.473-3.906 1.271-5.384 1.271-5.384l-2.879-3.011-.582-.515-1.527 1.532v5.954z"/><path fill="#49728B" d="m281.089 153.435-2.231.447.325 1.791c.824.38 2.23-.638 2.23-.638m-.257-12.817 4.475 3.337.121-1.533-3.379-3.133z"/><path fill="#fff" d="m271.248 166.496-1.325-5.384-.662-3.974-.109-2.944 5.989-.325h3.717l-.338 6.727.581 5.195-.067.963-4.853.38z"/><path fill="#DCD9D8" d="M278.034 153.815s-.325 6.659.635 11.406c0 0-1.92 1.221-4.718 1.533l5.367-.19.635-.38-.77-10.498-.203-2.251"/><path fill="#fff" d="m281.901 159.199 2.487-.705 4.718-.258.702-2.183-1.27-3.785-1.474-.189-2.041.637-1.946.963-1.041-.19-.811.326"/><path fill="#DCD9D8" d="M281.858 157.911s1.663-.773 1.92-.706l-.703-3.526.825-.326s.581 3.337.581 3.717c0 0 3.568.19 3.893.19 0 0 .77-1.479.581-3.011l.703 2.048.068 1.153-1.028 1.532-1.149.258-1.919-.068-.636-.827-2.23.325-.703.258"/><path fill="#fff" d="m279.344 153.367-1.406-3.581-1.473-2.116s.324-.895.77-.895h1.474l1.406.516-.122 2.373z"/><path fill="#DCD9D8" d="M279.629 152.146s-1.785-3.458-1.785-3.974c0 0 .325-.773.771-.583s1.406.706 1.406.706v-1.221l-2.177-.448-1.473.19 2.487 5.914.514.067"/><path fill="#fff" d="m271.816 143.697-1.77-.19-1.663-.516v.584l.811.895 2.555 1.153"/><path fill="#DCD9D8" d="M268.964 143.886s1.973.828 2.622.638l.068.773-1.785-.38-1.081-.773z"/><path fill="#D33833" d="M281.899 146.992c-1.081-.027-2.068-.162-2.919-.406.054-.353-.054-.692.04-.95.243-.176.635-.176 1-.217-.31-.149-.757-.217-1.108-.122-.014-.244-.122-.393-.189-.583.608-.217 2.041-1.641 2.852-1.18.392.23.554 1.505.581 2.143.027.515-.054 1.031-.257 1.315"/><path fill="#000" stroke="#D33833" stroke-width="11.99" d="M281.899 146.992c-1.081-.027-2.068-.162-2.919-.406.054-.353-.054-.692.04-.95.243-.176.635-.176 1-.217-.31-.149-.757-.217-1.108-.122-.014-.244-.122-.393-.189-.583.608-.217 2.041-1.641 2.852-1.18.392.23.554 1.505.581 2.143.027.515-.054 1.031-.257 1.315Z"/><path fill="#D33833" d="M276.723 145.216c0 .081 0 .162-.014.244-.338.217-.878.217-1.257.407.541.027.973.162 1.352.339-.014.203-.014.42-.027.624-.622.42-1.19 1.058-1.92 1.464-.351.19-1.554.679-1.919.584-.203-.055-.23-.312-.311-.556-.176-.516-.581-1.357-.622-2.143-.04-.99-.148-2.659.919-2.455.865.162 1.866.556 2.528.922.419.244.649.515 1.271.57"/><path fill="#000" stroke="#D33833" stroke-width="11.99" d="M276.723 145.216c0 .081 0 .162-.014.244-.338.217-.878.217-1.257.407.541.027.973.162 1.352.339-.014.203-.014.42-.027.624-.622.42-1.19 1.058-1.92 1.464-.351.19-1.554.679-1.919.584-.203-.055-.23-.312-.311-.556-.176-.516-.581-1.357-.622-2.143-.04-.99-.148-2.659.919-2.455.865.162 1.866.556 2.528.922.419.244.649.515 1.271.57Z"/><path fill="#D33833" d="M277.331 146.396c-.094-.543-.203-.692-.162-1.167 1.446-.963 1.703 1.655.162 1.167"/><path fill="#000" stroke="#D33833" stroke-width="11.99" d="M277.331 146.396c-.094-.543-.203-.692-.162-1.167 1.446-.963 1.703 1.655.162 1.167Z"/><path fill="#EF3D3A" d="M279.413 146.83s-.446-.638-.122-.828c.325-.19.636 0 .825-.325.189-.326 0-.516.067-.895.068-.38.379-.448.703-.516.325-.068 1.217-.19 1.339.122l-.379-1.153-.77-.257-2.42 1.41-.122.706v1.41m-5.826 2.442-.243-2.998c-.135-1.492.351-1.234 1.649-1.234.203 0 1.217.23 1.284.38.352.718-.581.556.406 1.098.824.448 2.298-.271 1.96-1.288-.19-.231-.973-.068-1.257-.217l-1.501-.773c-.635-.326-2.095-.814-2.771-.353-1.717 1.166.108 4.096.716 5.317"/><path fill="#231F20" d="M274.398 126.254c-1.744-.406-2.609.733-3.136 1.913-.473-.109-.284-.76-.162-1.085.31-.855 1.568-2.008 2.595-1.845.432.054 1.027.461.703 1.017m8.475 1.981h.082c.392.813.729 1.682 1.23 2.414-.338.787-2.515 1.465-2.488.081.473-.203 1.285-.04 1.704-.312-.244-.664-.582-1.234-.528-2.183m-7.596.027c.378.692.5 1.41 1.027 1.926.243.23.703.515.473 1.166-.054.149-.446.488-.676.556-.824.244-2.758.055-2.109-.99.69.027 1.609.448 2.123-.054-.392-.624-1.095-1.872-.838-2.604m7.286 6.971c-1.244.8-2.637 1.682-4.691 1.479-.433-.38-.608-1.235-.176-1.791.216.38.081 1.085.703 1.194 1.163.203 2.514-.719 3.352-1.031.514-.882-.04-1.193-.513-1.763-.96-1.153-2.231-2.591-2.19-4.313.392-.285.419.434.473.556.5 1.166 1.757 2.672 2.663 3.675.23.245.595.489.635.652.122.461-.311 1.03-.256 1.342m-16.465-.841c-.392-.23-.487-1.207-.946-1.234-.663-.041-.541 1.275-.541 2.048-.446-.407-.527-1.682-.203-2.333-.378-.19-.54.204-.757.339.284-1.966 2.88-.908 2.447 1.18m17.249 1.668c-.582 1.113-1.406 2.333-3.11 2.374-.04-.353-.067-.909 0-1.126 1.312-.135 2.123-.8 3.11-1.248m-8.165.719c1.081.57 3.082.638 4.569.597.081.326.081.733.081 1.126-1.906.081-4.15-.393-4.65-1.723m-.203 1.058c.757 1.899 3.339 1.682 5.515 1.628-.094.244-.297.542-.567.637-.703.285-2.623.502-3.596-.013-.608-.326-1.014-1.072-1.352-1.506-.149-.203-.96-.732 0-.746"/><path fill="#81B0C4" d="M282.467 148.294c-.878 1.519-1.73 3.079-2.771 4.408.433-1.288.622-3.458.69-5.113.919-.434 1.703.094 2.081.705"/><path fill="#231F20" d="M287.212 153.747c-.987.203-1.676 1.166-2.65 1.098.541-.746 1.46-1.071 2.65-1.098m.432 1.546c-.811.081-1.757.217-2.568.149.392-.597 1.879-.38 2.568-.149m.284 1.343c-.905.013-2.027 0-2.892-.068.513-.556 2.311-.203 2.892.068"/><path fill="#DCD9D8" d="M280.764 160.298c.135 1.139.581 2.292.527 3.54-.5.162-.784.312-1.46.312-.04-1.058-.189-2.686-.148-3.703.324.027.811-.231 1.081-.149"/><path fill="#F0D6B7" d="M279.305 143.48c-.46.298-.838.664-1.284.99-.974.054-1.501-.068-2.204-.624.014-.041.081-.027.081-.082 1.041.462 2.366-.189 3.407-.284"/><path fill="#81B0C4" d="M273.871 150.573c.284-1.234 1.406-1.885 2.42-2.563 1.041 1.329 1.676 3.038 2.379 4.692-1.663-.501-3.353-1.302-4.799-2.129"/><path fill="#231F20" d="M279.683 160.461c-.04 1.017.095 2.631.149 3.702.676 0 .96-.149 1.46-.312.054-1.248-.392-2.4-.527-3.54-.271-.095-.758.163-1.082.15m-10.436-5.751c.447 4.082 1.082 7.5 2.258 11.122 2.609.8 5.745.868 8.056.149-.419-2.035-.243-4.517-.486-6.7-.19-1.642-.095-3.283-.352-4.951-2.798-.583-6.745-.136-9.476.38m10.139-.353c-.027 1.75.081 3.486.216 5.235a17 17 0 0 0 1.744-.311c-.203-1.682-.176-3.595-.595-5.087-.473.014-.892 0-1.365.163m3.393-.285c-.325-.067-.69 0-.987 0 .148 1.424.486 2.998.608 4.503.473.014.73-.217 1.122-.285.027-1.315-.108-3.133-.743-4.218m5.15 4.72c1-.244 1.622-1.465 1.338-2.726-.189-.841-.514-2.441-.879-2.984-.256-.393-.973-.922-1.554-.556-.933.597-2.568.773-3.244 1.492.338 1.139.446 2.686.581 4.123 1.162.068 2.582-.325 3.555.095-.676.217-1.541.217-2.122.543.486.23 1.595.19 2.325.013m-9.273-6.09c-.703-1.654-1.338-3.363-2.379-4.692-1.014.678-2.123 1.329-2.42 2.563 1.46.827 3.15 1.628 4.799 2.129m1.73-5.113c-.068 1.655-.257 3.825-.689 5.113 1.04-1.342 1.892-2.889 2.771-4.408-.379-.61-1.163-1.139-2.082-.705m-1.96-.691c-.392-.041-.73.461-1.244.244-.121.135-.23.271-.351.406 1.135 1.384 1.663 3.337 2.541 4.951.473-1.56.419-3.255.527-4.951-.648.028-1.013-.609-1.473-.65m-1.257-1.669c-.041.475.067.624.162 1.167 1.541.488 1.284-2.13-.162-1.167m-1.717-.569c-.662-.367-1.663-.76-2.528-.923-1.068-.203-.96 1.465-.919 2.455.041.787.446 1.614.622 2.143.081.244.108.502.311.556.365.082 1.581-.393 1.919-.583.73-.393 1.298-1.031 1.92-1.465.013-.203.013-.42.027-.624a3.25 3.25 0 0 0-1.352-.339c.365-.19.919-.19 1.257-.407 0-.081 0-.162.014-.244-.622-.068-.852-.339-1.271-.569m-6.353-1.153c-.554.569 1.554 1.329 2.217 1.37 0-.353.202-.692.162-.95-.798-.135-1.838-.041-2.379-.42m6.813.257c0 .055-.068.041-.081.082.716.556 1.243.678 2.203.624.433-.312.825-.692 1.284-.991-1.054.095-2.379.747-3.406.285m6.245 1.899c-.027-.624-.19-1.912-.581-2.143-.811-.475-2.244.963-2.853 1.18.068.19.176.339.19.583a1.72 1.72 0 0 1 1.108.122c-.365.041-.757.041-1 .218-.081.257.027.596-.041.949.852.244 1.839.366 2.92.407.203-.271.284-.787.257-1.316m-13.991-1.614c-.176-.122-1.352-1.655-1.514-1.587-2.122.841-4.109 2.293-5.88 3.676 1.69 3.648 2.379 8.111 2.501 12.41 1.933.909 3.636 2.224 6.272 2.36-.311-2.156-.581-4.096-.757-6.13-.662-.285-1.609.013-2.23-.082 0-.746.946-.325 1.027-.827.054-.38-.527-.407-.338-1.004.487.177.743.57 1.257.719.473-1.031 0-2.862.068-3.73.013-.162.081-.895.446-.773.324.109-.014 1.967.013 2.78.027.76-.094 1.479.216 1.954a72 72 0 0 1 7.881-.651c-.608-.258-1.324-.502-2.109-.95-.432-.244-1.77-.746-1.892-1.153-.203-.651.514-.99.635-1.546-1.284.705-1.527-.678-1.838-1.641-.27-.882-.433-1.546-.5-2.048-1.122-.57-2.312-1.099-3.258-1.777m12.869-1.41c1.771-.855 2.095 3.214 1.392 4.53.108.393.473.542.622.895-.987 1.777-2.082 3.431-3.096 5.181.744-.475 1.825-.081 2.704-.434.324-.122.554-.868.798-1.465.675-1.627 1.378-3.689 1.689-5.235.068-.353.271-1.126.216-1.438-.081-.57-.838-.99-1.23-1.329-.716-.651-1.162-1.207-1.919-1.818-.284.448-.933.746-1.176 1.113m-16.911-15.747c-.838.936-.662 2.672-.567 3.92 1.527-.963 3.541.081 3.528 1.709.73-.014.27-.909.135-1.492-.433-1.886.73-3.92.054-5.643-1.311.109-2.379.638-3.15 1.506m6.029-5.412c-1.906.543-4.352 1.94-5.136 3.662.608-.095 1.027-.393 1.622-.434.229-.013.527.095.784.027.513-.135.959-1.302 1.351-1.736.379-.42.838-.61 1.149-.99.203-.095.5-.095.514-.393-.081-.095-.176-.163-.284-.136m9.936.516c-1.987-1.126-5.34-1.967-7.449-.909-1.703.854-4.001 2.265-4.785 4.042.73 1.722-.216 3.295-.284 5.045-.027.936.433 1.736.473 2.754-.256.42-1.013.461-1.541.434-.175-.896-.486-1.899-1.405-2.008-1.298-.149-2.258.936-2.312 2.062-.067 1.329 1.014 3.526 2.555 3.377.595-.054.743-.651 1.392-.651.352.705-.54.922-.635 1.424-.027.136.067.637.135.882.284 1.152.906 2.658 1.514 3.54.784 1.125 2.312 1.288 3.961 1.397.297-.638 1.378-.584 2.081-.421-.851-.339-1.635-1.153-2.284-1.872-.744-.827-1.5-1.708-1.541-2.794 1.419 1.967 2.582 3.69 5.15 4.558 1.947.651 4.218-.299 5.718-1.357.622-.434.987-1.139 1.433-1.763 1.649-2.387 2.42-5.778 2.257-9.074-.067-1.356-.067-2.712-.527-3.621-.473-.949-2.081-1.817-3.028-.949-.175-.936.784-1.506 1.906-1.167-.797-1.044-1.635-2.278-2.784-2.929m3.703 30.666c1.555-.773 4.448-2.075 5.407 0 .366.773.784 2.061.96 2.862.257 1.112-.284 3.472-1.433 3.838-1.013.325-2.189.312-3.406.068-.149-.122-.297-.326-.419-.543-.865-.027-1.69.041-2.366.407.068.651-.365.746-.784.882-.297 1.207.609 2.78.392 3.865-.148.787-1.108.909-1.811 1.044-.027.435.027.801.081 1.167-.162.597-.879.936-1.568 1.017-2.257.271-5.677.394-7.84-.393-.609-1.492-1.082-3.296-1.582-4.991-2.109.23-3.825-.909-5.434-1.669-.554-.257-1.325-.406-1.541-.854-.203-.434-.122-1.261-.176-2.035-.121-1.993-.243-3.919-.757-5.954-.229-.922-.648-1.722-.932-2.604-.271-.814-.73-1.831-.852-2.645-.176-1.207.96-1.275 1.676-1.804 1.122-.813 2.001-1.261 3.217-1.993.366-.217 1.447-.76 1.568-1.018.244-.501-.418-1.207-.594-1.6-.284-.624-.433-1.153-.473-1.763a3.4 3.4 0 0 1-2.258-1.451c-.77-1.14-1.311-3.242-.635-4.829.054-.122.311-.38.351-.57.081-.379-.148-.881-.162-1.288-.067-2.075.352-3.866 1.744-4.49.568-2.264 2.595-3.01 4.501-4.136.717-.421 1.501-.692 2.312-.99 2.906-1.072 7.38-.868 9.8.963 1.027.773 2.663 2.414 3.244 3.607 1.555 3.134 1.433 8.382.352 12.207-.149.516-.352 1.262-.649 1.886-.203.434-.838 1.288-.771 1.668.082.393 1.46 1.437 1.758 1.722.527.516 1.541 1.194 1.622 1.845.094.692-.298 1.641-.5 2.306-.649 2.224-1.298 4.272-2.042 6.266"/><path fill="#F7E4CD" d="M273.451 137.254c.081-.108.541-.285 1.19.027 0 0-.771.122-.703 1.411l-.324-.068c.013.014-.325-1.153-.163-1.37"/><path fill="#1D1919" d="M279.048 148.267c0 .19-.162.353-.352.353a.36.36 0 0 1-.351-.353c0-.19.162-.352.351-.352a.35.35 0 0 1 .352.352m.351 1.641c0 .19-.162.353-.351.353a.36.36 0 0 1-.352-.353c0-.19.162-.352.352-.352a.34.34 0 0 1 .351.352"/><path fill="#231F20" d="M260.989 170.66a7 7 0 0 0-.284.041 3 3 0 0 0-.271.054c-.121.027-.189.081-.216.163a.8.8 0 0 0-.054.271v3.309c0 .291-.065.579-.189.841a1.8 1.8 0 0 1-.5.638 2.4 2.4 0 0 1-.73.379 3 3 0 0 1-.852.136c-.527 0-.946-.122-1.271-.38-.324-.257-.486-.596-.486-1.044 0-.258.067-.475.216-.651s.352-.258.608-.258c.244 0 .433.068.582.217a.72.72 0 0 1 .216.529.8.8 0 0 1-.189.502 2.6 2.6 0 0 1-.433.421v.054a.36.36 0 0 0 .162.149.6.6 0 0 0 .257.054c.338 0 .608-.122.798-.366q.284-.366.284-1.099v-3.39a.7.7 0 0 0-.041-.258c-.027-.068-.108-.122-.23-.176a1.4 1.4 0 0 0-.311-.095c-.121-.027-.216-.041-.297-.055v-.325h3.19v.339zm5.001 4.666a2.8 2.8 0 0 1-.351.461 2.1 2.1 0 0 1-.474.366q-.284.163-.567.244c-.19.054-.419.082-.663.082-.419 0-.77-.055-1.081-.177-.297-.122-.554-.271-.743-.474a2 2 0 0 1-.447-.706 2.7 2.7 0 0 1-.148-.881c0-.285.054-.57.162-.828.108-.257.257-.502.446-.705q.284-.305.73-.488a2.5 2.5 0 0 1 .973-.19c.392 0 .717.054.974.149.256.095.459.231.621.393.163.163.271.353.352.57.067.217.108.448.108.692v.271h-2.852c0 .583.108 1.017.338 1.316.216.298.581.447 1.054.447.27 0 .5-.068.717-.217.215-.146.399-.336.54-.556zm-1.608-1.614c0-.163-.014-.339-.027-.516a1.2 1.2 0 0 0-.095-.434c-.054-.135-.108-.23-.203-.298a.47.47 0 0 0-.311-.095c-.216 0-.392.108-.513.325-.136.217-.203.57-.217 1.045zm7.569 2.617h-2.541v-.312c.054 0 .122-.013.189-.027.081-.013.135-.027.176-.04a.3.3 0 0 0 .122-.136.6.6 0 0 0 .04-.258v-1.98q0-.427-.162-.651c-.108-.149-.257-.217-.473-.217a.8.8 0 0 0-.311.054 1 1 0 0 0-.284.15.9.9 0 0 0-.203.176.6.6 0 0 0-.121.163v2.265a.7.7 0 0 0 .04.244.3.3 0 0 0 .135.149.5.5 0 0 0 .163.068l.202.041v.312h-2.568v-.312c.068 0 .135-.014.216-.028.068-.013.136-.027.19-.04a.31.31 0 0 0 .189-.149.7.7 0 0 0 .054-.258v-2.469a.6.6 0 0 0-.243-.461c-.054-.027-.109-.068-.19-.081a.8.8 0 0 0-.256-.041v-.312l2.014-.108.067.067v.611h.014q.147-.122.284-.258.149-.13.311-.244a1.72 1.72 0 0 1 .946-.244c.459 0 .797.135 1.027.393s.338.611.338 1.045v2.075q0 .162.041.244c.027.068.094.108.175.149.041.014.095.041.163.054.067.014.135.027.229.041v.325zm5.813 0h-1.987q-.315-.563-.676-1.098c-.203-.299-.392-.583-.568-.828l-.243.217v.923c0 .095.014.19.04.244.027.068.082.108.176.149a.7.7 0 0 0 .176.054c.068.014.135.027.203.027v.312h-2.623v-.312c.068 0 .135-.013.217-.027.067-.013.135-.027.189-.04a.31.31 0 0 0 .189-.15.7.7 0 0 0 .054-.257v-4.72a.7.7 0 0 0-.067-.285.5.5 0 0 0-.176-.231.7.7 0 0 0-.244-.081 1.2 1.2 0 0 0-.297-.041v-.312l2.095-.108.068.068v4.367c.203-.19.446-.407.703-.651s.473-.448.622-.61c.094-.095.148-.163.148-.217.014-.055.014-.082.014-.095 0-.055-.041-.095-.135-.122-.095-.028-.217-.068-.406-.095v-.299h2.136v.299a5 5 0 0 0-.649.217 5 5 0 0 0-.486.271 7 7 0 0 0-.338.244c-.109.081-.23.19-.379.312.27.407.527.773.757 1.112s.473.706.73 1.085a.63.63 0 0 0 .324.271c.136.041.257.068.392.082v.325zm2.703 0h-2.662v-.312c.067 0 .148-.013.216-.027.067-.013.135-.027.175-.04a.31.31 0 0 0 .19-.15.5.5 0 0 0 .054-.257v-2.469a.5.5 0 0 0-.068-.257.4.4 0 0 0-.162-.177c-.054-.027-.122-.068-.23-.095s-.203-.054-.284-.054v-.312l2.069-.108.067.067v3.364a.56.56 0 0 0 .068.258.37.37 0 0 0 .175.149.8.8 0 0 0 .19.068c.067.014.135.027.216.041v.312h-.014zm-.608-5.764a.7.7 0 0 1-.243.543.85.85 0 0 1-.581.23.9.9 0 0 1-.595-.23.73.73 0 0 1-.244-.543c0-.217.082-.393.244-.556a.86.86 0 0 1 .595-.231c.229 0 .419.082.581.231a.73.73 0 0 1 .243.556m6.57 5.764h-2.542v-.312c.055 0 .122-.013.19-.027.081-.013.135-.027.175-.04a.3.3 0 0 0 .122-.136.6.6 0 0 0 .041-.258v-1.98q0-.427-.163-.651c-.108-.149-.256-.217-.473-.217a.8.8 0 0 0-.311.054c-.094.041-.189.082-.284.15a.9.9 0 0 0-.202.176.6.6 0 0 0-.122.163v2.265q0 .142.041.244a.3.3 0 0 0 .135.149c.04.027.094.054.162.068l.203.041v.312h-2.569v-.312c.068 0 .136-.014.217-.028.067-.013.135-.027.189-.04a.3.3 0 0 0 .189-.149.7.7 0 0 0 .054-.258v-2.469a.6.6 0 0 0-.067-.257.6.6 0 0 0-.176-.204c-.054-.027-.108-.068-.189-.081a.8.8 0 0 0-.257-.041v-.312l2.014-.108.068.067v.611h.013q.149-.122.284-.258.15-.13.311-.244a1.724 1.724 0 0 1 .946-.244c.46 0 .798.135 1.027.393.23.258.338.611.338 1.045v2.075q0 .162.041.244c.027.068.095.108.176.149.04.014.094.041.162.054.067.014.135.027.23.041v.325zm2.338.15c-.27 0-.54-.041-.797-.123a2.6 2.6 0 0 1-.608-.257l-.122.285h-.325l-.054-1.574h.311c.041.122.108.272.216.434.095.163.217.299.338.434q.21.19.46.326c.176.081.351.136.541.136.257 0 .446-.055.568-.15s.189-.257.189-.461a.5.5 0 0 0-.081-.285.9.9 0 0 0-.23-.19 2.3 2.3 0 0 0-.365-.149c-.135-.04-.298-.081-.487-.149a3 3 0 0 1-.486-.176 1.5 1.5 0 0 1-.42-.272 1.2 1.2 0 0 1-.297-.393c-.081-.149-.108-.339-.108-.556 0-.393.162-.719.5-.963s.771-.366 1.311-.366a3.21 3.21 0 0 1 1.244.258l.095-.245h.324l.068 1.438h-.298a1.77 1.77 0 0 0-.5-.759q-.365-.326-.77-.326c-.217 0-.392.041-.514.136a.46.46 0 0 0-.189.379c0 .218.094.367.27.462s.433.19.757.271c.5.136.865.312 1.108.529.23.23.352.515.352.854 0 .461-.176.828-.541 1.072-.405.244-.879.38-1.46.38"/></g><path fill="url(#h)" d="M152.713 105.636c-.1.236-.179.749-.215 1.435l.772.374a9.6 9.6 0 0 1 .055-1.374l.006-.05q-.003.025-.006.05c-.016.138-.049.572-.004 1.356.32-.261.779-.702 1.143-1.08-.384-.785-.862-.922-.862-.922s-.683-.275-.889.211"/><path fill="#BE202E" d="m155.389 111.564-.112.115q.03-.029.058-.059a1 1 0 0 0 .054-.056"/><path fill="#BE202E" d="m155.389 111.564-.112.115q.03-.029.058-.059a1 1 0 0 0 .054-.056" opacity=".35"/><path fill="#BE202E" d="M155.106 110.948q-.003.003 0 0l.018-.016q.037-.036.069-.074-.041.044-.087.09"/><path fill="#BE202E" d="M155.106 110.948q-.003.003 0 0l.018-.016q.037-.036.069-.074-.041.044-.087.09" opacity=".35"/><path fill="url(#i)" d="M153.471 109.723a39 39 0 0 1-.097-.758q-.044-.385-.071-.761l-.003-.043a16 16 0 0 1-.034-.717l-.77-.371-.007.145q-.013.278-.015.587-.002.348.004.728a27 27 0 0 0 .071 1.37l.002.024 1.03.522q-.053-.366-.11-.726"/><path fill="url(#j)" d="M154.994 115.817q.083.29.177.592.002.004.003.008.01.043.026.084c.041.136.081.257.166.532.166-.034.374.041.591.142a.84.84 0 0 0-.562-.306c.631-.421 1.046-.963.988-1.61q-.01-.086-.026-.176c-.01.248-.112.427-.414.623.285-.502.363-.843.33-1.283a5 5 0 0 0-.041-.335c-.091.656-.443 1.08-.958 1.331l-.312.288q.015.055.032.11"/><path fill="url(#k)" d="m154.592 114.938-.197-.744q-.094-.36-.183-.727-.089-.37-.175-.74a52.835 52.835 0 0 1-.37-1.784l-.082-.467-.005-.025-1.025-.523q.004.023.004.049.03.349.068.705a24 24 0 0 0 .19 1.34l.023.123a14 14 0 0 0 .478 1.893q.06.173.122.344.147.399.323.777l1.035.525c-.055-.191-.106-.384-.162-.58z"/><path fill="url(#l)" d="M153.778 115.193q.213.46.477.88l.018.029c-.286-.115-.793-.062-.79-.061.524.182.983.404 1.272.741-.115.127-.33.223-.601.302.375.04.583-.025.66-.058-.196.163-.305.461-.402.782.221-.36.439-.598.652-.69a75 75 0 0 0 1.1 3.321.31.31 0 0 0 .048-.293 72 72 0 0 1-1.132-3.498l-.048-.163-.014-.045-.176-.613-.04-.143-.002-.002-1.035-.524z"/><path fill="url(#m)" d="M153.703 110.471c.005.035.012.066.018.101q.029.153.059.311l.068.35.036.182.12.566q.076.356.168.738.085.364.181.749.092.365.194.752.092.342.192.704c.002.012.008.024.01.036l.213.747.312-.288-.024.012c.371-.351.689-1.052.761-1.684.034-.292.03-.602-.01-.94a6 6 0 0 0-.15-.803 10 10 0 0 0-.23-.788 1.6 1.6 0 0 1-.238.344l-.054.06-.058.058c.273-.425.306-.881.225-1.355-.05.14-.148.349-.309.536q-.033.037-.07.073-.008.008-.02.018a2 2 0 0 0 .201-.44q.014-.045.024-.092.016-.071.025-.142l.011-.093a1.4 1.4 0 0 0-.002-.223q-.002-.037-.006-.07-.008-.052-.017-.099a5 5 0 0 0-.121-.528q-.009-.027-.016-.054-.024-.074-.046-.132-.032-.084-.056-.131a.3.3 0 0 1-.023.062 2 2 0 0 1-.351.505q-.004.002-.005.007-.02.02-.043.044l.006-.01-.984.901q.01.011.009.016"/><path fill="url(#n)" d="M153.321 107.427q.018.323.056.727 0 .022.004.042.033.35.088.762.046.354.108.759.055.35.123.739l.984-.901c.206-.372.25-.603.248-.891a7.837 7.837 0 0 0-.101-1.019 7 7 0 0 0-.146-.696 4 4 0 0 0-.113-.353 4 4 0 0 0-.109-.245c-.363.374-.822.815-1.142 1.076"/><path fill="#BE202E" d="M155.338 111.621q-.027.029-.059.06.027-.03.059-.06"/><path fill="#BE202E" d="M155.338 111.621q-.027.029-.059.06.027-.03.059-.06" opacity=".35"/><path fill="url(#o)" d="m155.335 111.621-.058.058q.026-.029.058-.058"/><path fill="#BE202E" d="m155.104 110.95.02-.018z"/><path fill="#BE202E" d="m155.104 110.95.02-.018z" opacity=".35"/><path fill="url(#p)" d="m155.103 110.949.02-.018c-.007.005-.011.012-.02.018"/><path fill="#000" d="M122.631 101.926h3.602q.376 0 .531.155.132.11.155.331.021.2.066.398.044.354.088.73.067.354.111.73.243 1.392.398 2.829.177 1.438.42 2.853.089.442.132.906.045.465.133.907l.044.221a.28.28 0 0 0 .111.176q.043.023.066.045.044.021.11-.022.177-.044.288-.266.11-.22.221-.398.265-.508.508-.995.243-.509.531-1.017l1.414-2.697q.729-1.371 1.437-2.741.177-.354.354-.686.198-.353.375-.707.089-.177.199-.354a.8.8 0 0 1 .31-.287.6.6 0 0 1 .353-.111h3.802q.22 0 .309.088.222.133.133.509l-.133.73-.663 3.316-1.657 8.224-.376 1.924q-.044.243-.111.486a.6.6 0 0 1-.221.332.74.74 0 0 1-.353.133h-2.1a3 3 0 0 0-.287-.067q-.111-.021-.177-.154a.44.44 0 0 1-.044-.288q.043-.177.088-.376l.221-1.127 1.149-5.682q.045-.31.089-.575.066-.287.11-.575l.089-.354a1.8 1.8 0 0 0 .044-.376 1.2 1.2 0 0 1 0-.331q.043-.177-.066-.221-.067-.023-.111.022l-.066.066a1 1 0 0 0-.199.221l-.133.221q-.198.332-.398.686-.176.353-.398.707l-.132.265a1.1 1.1 0 0 1-.133.266q-.177.287-.331.575a6 6 0 0 1-.31.574.5.5 0 0 0-.066.155.6.6 0 0 1-.066.133q-.133.2-.243.42-.088.221-.244.442a4 4 0 0 0-.243.42 3 3 0 0 1-.221.442q-.397.642-.729 1.305-.332.641-.685 1.282a.35.35 0 0 0-.089.133q0 .066-.066.132a6 6 0 0 0-.287.509 4 4 0 0 1-.266.486 5 5 0 0 1-.176.288 1 1 0 0 1-.199.221.7.7 0 0 1-.243.11q-.111 0-.288.045h-.508q-.155 0-.376.022h-.42q-.198 0-.376-.022-.176-.023-.243-.089a.5.5 0 0 1-.199-.243 2 2 0 0 0-.088-.354 6 6 0 0 1-.066-.53 3.4 3.4 0 0 0-.089-.553l-.022-.199a3.3 3.3 0 0 1-.088-.553 3.4 3.4 0 0 0-.089-.575v-.11a.4.4 0 0 0-.022-.133 2 2 0 0 1-.088-.42 5 5 0 0 0-.067-.442v-.111a.24.24 0 0 0-.022-.11 5 5 0 0 1-.066-.442q0-.221-.066-.443a15 15 0 0 1-.155-.928 10 10 0 0 0-.133-.951q-.088-.552-.154-1.127a5.5 5.5 0 0 0-.199-1.106 2 2 0 0 0-.133-.508.3.3 0 0 0-.088-.067q-.022-.043-.089 0a.34.34 0 0 0-.176.221 1.2 1.2 0 0 1-.089.31.9.9 0 0 0-.11.332q-.022.154-.045.331a6 6 0 0 1-.11.487q-.044.243-.111.486l-1.171 5.881-.221 1.083-.089.354a.47.47 0 0 1-.132.288q-.11.154-.376.199a1.2 1.2 0 0 1-.331.044 3 3 0 0 0-.354-.022h-1.591a.5.5 0 0 1-.31-.133q-.11-.11-.088-.332l.088-.486.376-1.946 1.658-8.224.618-3.096a8 8 0 0 0 .045-.309 15 15 0 0 1 .176-.708q.067-.176.111-.265a.74.74 0 0 1 .398-.221q.066-.022.088 0 .045 0 .111-.022m26.418 14.879q0 .244-.044.487a.42.42 0 0 1-.288.331.8.8 0 0 1-.331.067h-1.945a.44.44 0 0 1-.265-.111.42.42 0 0 1-.177-.243.6.6 0 0 0-.155-.287.3.3 0 0 0-.11-.067q-.045-.044-.155-.022-.133.044-.243.111a1.6 1.6 0 0 1-.221.11 2 2 0 0 1-.288.155 4.75 4.75 0 0 1-.928.354q-.332.067-.663.154-.177.045-.332.045l-.287.044h-.133a.4.4 0 0 1-.132.022h-.243q-.244.045-.442 0h-.199a1.1 1.1 0 0 0-.31-.044.55.55 0 0 1-.265-.022l-.398-.089a.9.9 0 0 1-.353-.11 2.9 2.9 0 0 1-.973-.619q-.375-.399-.508-1.039a2 2 0 0 1-.067-.332q0-.177-.022-.376a.6.6 0 0 1 0-.221.6.6 0 0 0 .044-.221q0-.067.023-.265.044-.222.088-.31.089-.221.11-.376l.222-.486q.132-.266.287-.464.486-.642 1.039-.973.552-.332 1.37-.575.31-.11.619-.155.31-.044.641-.11a1.5 1.5 0 0 1 .376-.045q.22-.022.42-.066a.7.7 0 0 1 .309-.022q.154 0 .354-.044a1.1 1.1 0 0 1 .309-.045q.155 0 .332-.044.486-.11.884-.177.42-.088.795-.398.222-.199.354-.442a.4.4 0 0 0 .022-.11q0-.044.022-.089.045-.043.044-.132a.7.7 0 0 1 .045-.133v-.33199999999999996q-.089-.663-.752-.906a1.7 1.7 0 0 0-.464-.089 2.4 2.4 0 0 0-.553-.022 4 4 0 0 0-.574.045 3 3 0 0 0-.464.11q-.155.045-.288.133a1.917 1.917 0 0 0-.552.398 1.2 1.2 0 0 0-.221.287 5 5 0 0 0-.265.42.56.56 0 0 1-.376.265 1.5 1.5 0 0 1-.376.045h-1.238q-.11 0-.243.022a.6.6 0 0 1-.177-.022h-.199a.24.24 0 0 0-.11-.022.15.15 0 0 1-.111-.045q-.155-.044-.176-.287a.6.6 0 0 1 .044-.221q.044-.11.088-.199.111-.244.221-.442a5 5 0 0 1 .265-.398l.177-.221.177-.221q.22-.244.531-.465a.4.4 0 0 0 .154-.11 5 5 0 0 0 .221-.155q.111-.066.243-.133.42-.243.862-.376.464-.155.929-.287.287-.067.574-.088.288-.023.597-.089a.8.8 0 0 1 .265 0q.177.023.244-.022.906-.022 1.701.066.819.089 1.437.332.641.243 1.039.663.42.399.552 1.039.067.376 0 .863a13 13 0 0 1-.176.995l-.995 4.93q-.066.42-.155.862a2.9 2.9 0 0 0-.066.774.6.6 0 0 1-.022.155zm-2.564-3.404a1.2 1.2 0 0 0 .066-.244q.022-.154.022-.265 0-.132.023-.243a.17.17 0 0 0-.067-.177q-.089-.088-.309-.088a2 2 0 0 0-.155.044 1 1 0 0 0-.177.022 2 2 0 0 1-.331.066 4 4 0 0 0-.376.067.7.7 0 0 1-.199.022 5 5 0 0 1-.597.088 2.7 2.7 0 0 0-.574.111l-.354.088a1.2 1.2 0 0 0-.309.089 2.6 2.6 0 0 0-.907.596q-.398.398-.464 1.106-.022.376.133.619.088.243.376.398.287.132.64.199.354.066.752.044.42-.044.796-.155a2.4 2.4 0 0 0 1.016-.552q.42-.399.708-.973.066-.155.11-.31a1.7 1.7 0 0 1 .133-.353zM174.682 111.875q0 .177-.088.398-.089.22-.221.287a.8.8 0 0 1-.332.133q-.22.023-.486.044h-.508a5 5 0 0 0-.443-.022h-5.702a.7.7 0 0 0-.243.044q-.2.088-.265.177-.045.045-.133.177a.43.43 0 0 0-.066.221.9.9 0 0 1 0 .266q0 .11.022.243.066.53.243.884a2 2 0 0 0 .575.597 1 1 0 0 0 .331.155q.2.022.376.088.176.045.464.067.31.021.553-.023h.199q.22-.043.419-.088l.398-.133q.244-.11.553-.287t.486-.354q.133-.155.287-.287a.94.94 0 0 1 .332-.221 1.2 1.2 0 0 1 .575-.089h.906a.5.5 0 0 1 .265.022h.221q.2.045.287.111.067.044.045.199a.5.5 0 0 1-.067.265 4 4 0 0 1-.375.553 6 6 0 0 1-.398.486 5.8 5.8 0 0 1-1.326 1.172q-.708.442-1.702.752a2.2 2.2 0 0 1-.509.11 4 4 0 0 0-.53.089.44.44 0 0 1-.199 0 .7.7 0 0 0-.177.022h-.243a.55.55 0 0 1-.265.022q-.133 0-.243-.022a1 1 0 0 0-.31 0 .65.65 0 0 1-.287-.022.6.6 0 0 0-.243-.044.5.5 0 0 1-.221-.045 6 6 0 0 1-.487-.11 1.2 1.2 0 0 1-.397-.155 9 9 0 0 0-.42-.155 2 2 0 0 1-.354-.199 5 5 0 0 1-1.061-1.017 4.2 4.2 0 0 1-.707-1.857 2.2 2.2 0 0 0-.066-.53v-.155a.8.8 0 0 0 .022-.177 4 4 0 0 1 0-.575l.088-.619q.022-.111.022-.243.023-.134.066-.243l.067-.266.177-.53q.155-.376.287-.73.133-.354.331-.663 1.415-2.3 3.891-3.25.332-.133.663-.177.331-.066.707-.155.177-.022.331-.022.156 0 .332-.022 1.127-.022 1.879.265a4.4 4.4 0 0 1 1.304.708q.177.132.331.309.177.155.288.332a.36.36 0 0 0 .154.177q.133.243.221.508.111.243.243.509.067.198.089.42.044.199.088.442.045.288.045.597l.044.619q0 .177-.067.398a1.1 1.1 0 0 0-.022.376zm-3.072-1.304q.199-.222.132-.531l-.066-.486q-.198-.597-.641-.907-.442-.331-1.348-.354a.18.18 0 0 1-.155.022.3.3 0 0 0-.155 0q-.132.045-.265.067a.7.7 0 0 0-.243.044 3.1 3.1 0 0 0-1.68 1.216q-.066.088-.154.243a1 1 0 0 0-.133.288.9.9 0 0 0-.044.265q0 .132.11.221.155.111.464.111h3.692q.352-.022.486-.199m12.603-4.577q1.326-.044 2.122.376.817.42 1.149 1.238.11.243.133.531.044.265.066.552.022.177 0 .332a1.1 1.1 0 0 0 0 .309q-.044.133-.022.177-.022.31-.088.642-.066.331-.133.641l-.376 1.967-.729 3.582q-.089.42-.177.818-.088.376-.42.487a1 1 0 0 1-.309.044h-1.547q-.266 0-.464-.022a.42.42 0 0 1-.288-.199q-.066-.133-.044-.332.044-.22.088-.464l.31-1.548.663-3.294q.155-.819.221-1.504.088-.707-.155-1.193-.22-.443-.773-.62a.7.7 0 0 0-.244-.044.6.6 0 0 1-.221-.044.9.9 0 0 0-.287 0q-.155 0-.243.022a1 1 0 0 1-.177.022.4.4 0 0 0-.132.022 3.1 3.1 0 0 0-.885.354q-.817.509-1.149 1.481-.309.974-.552 2.189l-.553 2.764-.265 1.348-.089.398a1 1 0 0 1-.132.332.6.6 0 0 1-.42.288 3.5 3.5 0 0 1-.597.044h-1.105q-.243 0-.486-.022-.243-.023-.31-.155-.132-.199-.044-.575t.155-.707l.596-3.007.973-4.864.243-1.128q.044-.243.089-.442a.6.6 0 0 1 .198-.332q.044-.066.155-.088.111-.045.221-.066h.111q.11-.023.221-.023h1.171q.177 0 .332.023a1 1 0 0 1 .309.044q.133.066.155.199a1 1 0 0 1 .044.309.5.5 0 0 1-.022.155.2.2 0 0 0 0 .133q.022.11.044.132.044.022.111.067a.54.54 0 0 0 .42-.155q.199-.2.397-.31.686-.441 1.459-.707.222-.066.42-.089.222-.021.486-.066a.43.43 0 0 1 .199 0 .5.5 0 0 0 .177-.022M189.686 105.977q.022.016.022.075a.3.3 0 0 1-.022.106l-.004.035a.3.3 0 0 1-.04.067.13.13 0 0 1-.057.035.5.5 0 0 1-.111.009l-.119-.005h-.066a.07.07 0 0 1-.04.005.05.05 0 0 0-.036.004q-.048.018-.084.084a.2.2 0 0 0-.017.053l-.009.062-.212 1.044a.2.2 0 0 0-.005.04.1.1 0 0 1-.009.035l-.008.035-.009.027q0 .013-.014.022a.1.1 0 0 1-.057.049.2.2 0 0 1-.053.008h-.199q-.075 0-.102-.035-.012-.026-.008-.062l.017-.079.208-1.044.009-.044a.06.06 0 0 0 .004-.04l.009-.062q.004-.071-.044-.088a.22.22 0 0 0-.12-.018q-.075.004-.132.004a.2.2 0 0 0-.044.005.1.1 0 0 1-.031-.005q-.018-.009-.031-.004l-.027-.004a.07.07 0 0 1-.04-.071q.004-.05.018-.115l.009-.049a.3.3 0 0 1 .022-.044.07.07 0 0 1 .035-.031.3.3 0 0 1 .045-.022q.013-.005.017 0l.022-.005h1.181q.039 0 .075.005.035 0 .057.018m2.352.008a.1.1 0 0 1 .009.071l-.013.089-.288 1.437a1 1 0 0 1-.022.088.15.15 0 0 1-.031.062q-.03.036-.097.035h-.124a.4.4 0 0 0-.057.005.1.1 0 0 1-.044-.009q-.04-.013-.049-.04a.4.4 0 0 1-.004-.066l.013-.075q0-.013.004-.031l.009-.04.115-.562.018-.106a.4.4 0 0 0 .013-.097l-.004-.035a.03.03 0 0 0-.014-.027q-.004-.004-.013-.004l-.031.017a1 1 0 0 0-.08.12 7.425 7.425 0 0 0-.229.407q-.075.137-.155.269a3 3 0 0 0-.075.142.3.3 0 0 1-.093.11.14.14 0 0 1-.062.022h-.141l-.04-.013a.1.1 0 0 1-.031-.022.1.1 0 0 1-.018-.035l-.009-.045a.4.4 0 0 1-.017-.079 1 1 0 0 0-.014-.089 4 4 0 0 1-.044-.26 4 4 0 0 0-.044-.266l-.027-.15a.25.25 0 0 0-.048-.128q-.01 0-.013.004h-.009a.1.1 0 0 0-.031.04.1.1 0 0 0-.018.044.1.1 0 0 1-.009.04l-.013.075a.2.2 0 0 0-.018.066l-.106.513-.026.142a.3.3 0 0 1-.04.115l-.027.022a.1.1 0 0 1-.022.013.2.2 0 0 1-.053.013h-.177q-.057 0-.088-.026-.022-.018-.022-.058.004-.04.013-.088l.292-1.459.018-.075a.2.2 0 0 1 .031-.062q.022-.031.07-.04.013-.005.018 0l.022-.005h.385q.043 0 .066.023.036.025.04.084a1 1 0 0 0 .022.106l.044.252.044.252q.018.066.027.137l.026.137a.3.3 0 0 1 .014.057.05.05 0 0 0 .035.036q.022.009.04-.009a.422.422 0 0 0 .101-.133l.062-.11q.093-.146.173-.297.084-.155.176-.3.036-.062.071-.128a.2.2 0 0 1 .106-.098.2.2 0 0 1 .062-.009h.318a.2.2 0 0 1 .049 0h.022a.2.2 0 0 0 .036.014q.021.005.026.017"/><path fill="url(#q)" d="M162.796 105.829c-.268.111-.739.462-1.313.986l.324.914a11 11 0 0 1 1.18-1.098c-.014.013-.03.022-.044.035-.122.099-.493.423-1.08 1.089.464.044 1.185.054 1.778.039.314-.937.038-1.427.038-1.427s-.331-.765-.883-.538"/><path fill="#BE202E" d="M160.243 112.727q-.091.004-.181.003.047.003.093-.001.045.001.088-.002"/><path fill="#BE202E" d="M160.243 112.727q-.091.004-.181.003.047.003.093-.001.045.001.088-.002" opacity=".35"/><path fill="#BE202E" d="M160.503 112.007q-.004-.001 0 0 .014 0 .027.001.06 0 .115-.004-.068.002-.142.003"/><path fill="#BE202E" d="M160.503 112.007q-.004-.001 0 0 .014 0 .027.001.06 0 .115-.004-.068.002-.142.003" opacity=".35"/><path fill="url(#r)" d="M160.16 109.723q.263-.353.524-.687a18 18 0 0 1 .58-.707q.27-.315.541-.604l-.325-.911q-.058.055-.121.111-.23.214-.478.461-.279.278-.575.59-.273.29-.554.605-.237.27-.476.554l-.018.021.414 1.239q.247-.338.488-.672"/><path fill="url(#s)" d="M156.545 115.839q-.162.3-.327.617c0 .003-.004.005-.004.008q-.026.045-.046.09c-.075.141-.139.27-.289.56.161.104.269.33.364.584a.96.96 0 0 0-.21-.694c.842.163 1.607.056 2.074-.511q.061-.077.119-.162c-.205.192-.43.255-.828.172.628-.177.962-.389 1.285-.77q.114-.136.233-.302c-.594.455-1.215.517-1.829.31l-.48-.016z"/><path fill="url(#t)" d="m156.921 114.811.431-.755q.211-.363.431-.731.221-.367.446-.735.23-.375.469-.743c.156-.244.317-.487.475-.728l.176-.259q.15-.22.305-.441l.015-.024-.409-1.236q-.016.022-.036.043-.254.304-.505.621a26 26 0 0 0-.912 1.231l-.08.117a17 17 0 0 0-1.118 1.904q-.09.187-.175.373-.198.439-.357.883l.417 1.245c.107-.197.219-.393.33-.596z"/><path fill="url(#u)" d="M156.062 114.371a9 9 0 0 0-.315 1.087l-.009.037c-.138-.32-.589-.68-.587-.676.278.562.47 1.106.436 1.607-.194.011-.443-.083-.724-.235.269.331.489.444.577.478-.287-.024-.612.129-.944.311.463-.115.828-.134 1.072-.038a86 86 0 0 0-1.752 3.547.35.35 0 0 0 .272-.197c.105-.23.816-1.745 1.866-3.716q.046-.082.091-.169l.025-.048.345-.633.081-.146.001-.003-.417-1.246a.2.2 0 0 0-.018.04"/><path fill="url(#v)" d="m159.752 110.509-.065.095q-.1.146-.2.297-.108.165-.223.336l-.115.175q-.173.267-.354.551a50.876 50.876 0 0 0-.899 1.475q-.217.366-.441.759-.2.35-.406.72-.01.018-.02.036l-.422.772.48.016q-.012-.004-.028-.01c.576.013 1.389-.3 1.95-.751.258-.208.502-.46.738-.764q.264-.338.517-.766.223-.373.441-.817a1.8 1.8 0 0 1-.465.088l-.091.004c-.03.002-.06 0-.093.002.558-.125.946-.467 1.258-.913a1.9 1.9 0 0 1-.675.186 1 1 0 0 1-.115.004l-.029-.001c.193-.05.361-.112.511-.195a2.02 2.02 0 0 0 .226-.15l.081-.066q.094-.08.176-.181a1 1 0 0 0 .051-.061q.035-.049.065-.093a5 5 0 0 0 .322-.522c.009-.02.021-.036.029-.056q.04-.079.069-.143.041-.093.058-.15a.3.3 0 0 1-.067.032 2.3 2.3 0 0 1-.763.131q.007-.002.013-.004l-1.508-.057q0 .018-.006.021"/><path fill="url(#w)" d="M161.863 107.755q-.242.276-.532.629-.017.019-.03.038-.251.308-.535.683c-.163.216-.335.445-.516.697q-.233.325-.488.693l1.508.057c.461-.137.681-.287.907-.521q.09-.095.183-.204c.187-.215.375-.454.545-.696.166-.234.317-.466.435-.677q.115-.203.19-.374.061-.146.107-.284c-.589.013-1.31.003-1.774-.041"/><path fill="#BE202E" d="M160.155 112.732q-.044.001-.093.001.044-.003.093-.001"/><path fill="#BE202E" d="M160.155 112.732q-.044.001-.093.001.044-.003.093-.001" opacity=".35"/><path fill="url(#x)" d="M160.153 112.732q-.044.001-.093.001.046-.003.093-.001"/><path fill="#BE202E" d="M160.5 112.006q.013.001.03.002-.013-.001-.03-.002"/><path fill="#BE202E" d="M160.5 112.006q.013.001.03.002-.013-.001-.03-.002" opacity=".35"/><path fill="url(#y)" d="M160.5 112.006q.012.001.03.002-.013-.001-.03-.002"/></g><defs><linearGradient id="b" x1="355.533" x2="355.533" y1="173.661" y2="153.592" gradientUnits="userSpaceOnUse"><stop offset=".303" stop-color="#473788"/><stop offset=".872" stop-color="#2C2255"/></linearGradient><linearGradient id="c" x1="355.533" x2="355.533" y1="173.662" y2="153.592" gradientUnits="userSpaceOnUse"><stop offset=".303" stop-color="#473788"/><stop offset=".872" stop-color="#2C2255"/></linearGradient><linearGradient id="d" x1="355.534" x2="355.534" y1="173.661" y2="153.593" gradientUnits="userSpaceOnUse"><stop offset=".303" stop-color="#473788"/><stop offset=".863" stop-color="#2C2255"/></linearGradient><linearGradient id="e" x1="128.357" x2="121.995" y1="174.774" y2="181.413" gradientUnits="userSpaceOnUse"><stop offset=".18" stop-color="#0052CC"/><stop offset="1" stop-color="#2684FF"/></linearGradient><linearGradient id="f" x1="121.338" x2="113.978" y1="182.315" y2="189.557" gradientUnits="userSpaceOnUse"><stop offset=".18" stop-color="#0052CC"/><stop offset="1" stop-color="#2684FF"/></linearGradient><linearGradient id="h" x1="152.831" x2="154.718" y1="106.943" y2="104.545" gradientUnits="userSpaceOnUse"><stop stop-color="#F69923"/><stop offset=".312" stop-color="#F79A23"/><stop offset=".838" stop-color="#E97826"/></linearGradient><linearGradient id="i" x1="155.45" x2="152.682" y1="121.39" y2="107.512" gradientUnits="userSpaceOnUse"><stop offset=".323" stop-color="#9E2064"/><stop offset=".63" stop-color="#C92037"/><stop offset=".751" stop-color="#CD2335"/><stop offset="1" stop-color="#E97826"/></linearGradient><linearGradient id="j" x1="156.508" x2="154.858" y1="119.437" y2="111.167" gradientUnits="userSpaceOnUse"><stop stop-color="#282662"/><stop offset=".095" stop-color="#662E8D"/><stop offset=".788" stop-color="#9F2064"/><stop offset=".949" stop-color="#CD2032"/></linearGradient><linearGradient id="k" x1="155.165" x2="152.398" y1="120.636" y2="106.758" gradientUnits="userSpaceOnUse"><stop offset=".323" stop-color="#9E2064"/><stop offset=".63" stop-color="#C92037"/><stop offset=".751" stop-color="#CD2335"/><stop offset="1" stop-color="#E97826"/></linearGradient><linearGradient id="l" x1="155.151" x2="153.697" y1="119.587" y2="112.293" gradientUnits="userSpaceOnUse"><stop stop-color="#282662"/><stop offset=".095" stop-color="#662E8D"/><stop offset=".788" stop-color="#9F2064"/><stop offset=".949" stop-color="#CD2032"/></linearGradient><linearGradient id="m" x1="156.602" x2="153.834" y1="120.35" y2="106.472" gradientUnits="userSpaceOnUse"><stop offset=".323" stop-color="#9E2064"/><stop offset=".63" stop-color="#C92037"/><stop offset=".751" stop-color="#CD2335"/><stop offset="1" stop-color="#E97826"/></linearGradient><linearGradient id="n" x1="156.701" x2="153.933" y1="121.225" y2="107.347" gradientUnits="userSpaceOnUse"><stop offset=".323" stop-color="#9E2064"/><stop offset=".63" stop-color="#C92037"/><stop offset=".751" stop-color="#CD2335"/><stop offset="1" stop-color="#E97826"/></linearGradient><linearGradient id="o" x1="157.028" x2="154.261" y1="120.265" y2="106.387" gradientUnits="userSpaceOnUse"><stop offset=".323" stop-color="#9E2064"/><stop offset=".63" stop-color="#C92037"/><stop offset=".751" stop-color="#CD2335"/><stop offset="1" stop-color="#E97826"/></linearGradient><linearGradient id="p" x1="156.979" x2="154.213" y1="120.273" y2="106.397" gradientUnits="userSpaceOnUse"><stop offset=".323" stop-color="#9E2064"/><stop offset=".63" stop-color="#C92037"/><stop offset=".751" stop-color="#CD2335"/><stop offset="1" stop-color="#E97826"/></linearGradient><linearGradient id="q" x1="161.853" x2="165.276" y1="106.976" y2="106.544" gradientUnits="userSpaceOnUse"><stop stop-color="#F69923"/><stop offset=".312" stop-color="#F79A23"/><stop offset=".838" stop-color="#E97826"/></linearGradient><linearGradient id="r" x1="152.486" x2="161.286" y1="120.688" y2="107.319" gradientUnits="userSpaceOnUse"><stop offset=".323" stop-color="#9E2064"/><stop offset=".63" stop-color="#C92037"/><stop offset=".751" stop-color="#CD2335"/><stop offset="1" stop-color="#E97826"/></linearGradient><linearGradient id="s" x1="154.889" x2="160.133" y1="119.956" y2="111.99" gradientUnits="userSpaceOnUse"><stop stop-color="#282662"/><stop offset=".095" stop-color="#662E8D"/><stop offset=".788" stop-color="#9F2064"/><stop offset=".949" stop-color="#CD2032"/></linearGradient><linearGradient id="t" x1="152.856" x2="161.655" y1="119.855" y2="106.486" gradientUnits="userSpaceOnUse"><stop offset=".323" stop-color="#9E2064"/><stop offset=".63" stop-color="#C92037"/><stop offset=".751" stop-color="#CD2335"/><stop offset="1" stop-color="#E97826"/></linearGradient><linearGradient id="u" x1="153.678" x2="158.302" y1="118.999" y2="111.973" gradientUnits="userSpaceOnUse"><stop stop-color="#282662"/><stop offset=".095" stop-color="#662E8D"/><stop offset=".788" stop-color="#9F2064"/><stop offset=".949" stop-color="#CD2032"/></linearGradient><linearGradient id="v" x1="154.24" x2="163.039" y1="120.766" y2="107.397" gradientUnits="userSpaceOnUse"><stop offset=".323" stop-color="#9E2064"/><stop offset=".63" stop-color="#C92037"/><stop offset=".751" stop-color="#CD2335"/><stop offset="1" stop-color="#E97826"/></linearGradient><linearGradient id="w" x1="153.625" x2="162.424" y1="121.55" y2="108.181" gradientUnits="userSpaceOnUse"><stop offset=".323" stop-color="#9E2064"/><stop offset=".63" stop-color="#C92037"/><stop offset=".751" stop-color="#CD2335"/><stop offset="1" stop-color="#E97826"/></linearGradient><linearGradient id="x" x1="154.651" x2="163.447" y1="121.034" y2="107.666" gradientUnits="userSpaceOnUse"><stop offset=".323" stop-color="#9E2064"/><stop offset=".63" stop-color="#C92037"/><stop offset=".751" stop-color="#CD2335"/><stop offset="1" stop-color="#E97826"/></linearGradient><linearGradient id="y" x1="154.519" x2="163.467" y1="121.151" y2="107.581" gradientUnits="userSpaceOnUse"><stop offset=".323" stop-color="#9E2064"/><stop offset=".63" stop-color="#C92037"/><stop offset=".751" stop-color="#CD2335"/><stop offset="1" stop-color="#E97826"/></linearGradient><clipPath id="a"><path fill="#fff" d="M0 .5h425v402H0z"/></clipPath></defs></svg>