<svg id="LOGO_Alpha_Arrow" data-name="LOGO Alpha Arrow" xmlns="http://www.w3.org/2000/svg" viewBox="0 0 939.49 232.09"><defs><style>.cls-1{fill:#ffffff;}.cls-2{fill:#ffffff;}</style></defs><path class="cls-1" d="M177.83,102.62l27.83,91.54,27.83-91.54h41.86L229.81,231H181.28L135.74,102.62Z"/><path class="cls-1" d="M280.41,102.62h39.33V231H280.41Z"/><path class="cls-1" d="M385.51,100.78c17,0,31.74,7.82,39.56,19.55V60.76H464.4V231H425.07v-18.4c-7.13,11.73-20.69,20.24-39.56,20.24-31.5,0-56.57-25.76-56.57-66.24S354,100.78,385.51,100.78ZM397,135.05c-14.71,0-28.05,11-28.05,31.51s13.34,32,28.05,32c15,0,28.06-11.27,28.06-31.74S412,135.05,397,135.05Z"/><path class="cls-1" d="M538,100.78c32.2,0,55,17.71,61.64,48.3H557.78c-3.22-9-9.66-14.72-20.47-14.72-14,0-23.69,11-23.69,32.43s9.66,32.43,23.69,32.43c10.81,0,17-5.29,20.47-14.72h41.86C593,214.17,570.2,232.8,538,232.8c-37.72,0-64.4-25.3-64.4-66C473.6,126.31,500.28,100.78,538,100.78Z"/><path class="cls-1" d="M609.07,60.76H648.4V231H609.07Z"/><path class="cls-1" d="M714.18,100.78c19.09,0,32.66,8.74,39.56,20V102.62h39.33V231H753.74V212.79c-7.13,11.27-20.7,20-39.79,20-31.28,0-56.35-25.76-56.35-66.24S682.67,100.78,714.18,100.78Zm11.5,34.27c-14.72,0-28.06,11-28.06,31.51s13.34,32,28.06,32c15,0,28.06-11.27,28.06-31.74S740.63,135.05,725.68,135.05Z"/><path class="cls-1" d="M898.64,161.27c0-17.48-9.66-27.14-24.61-27.14s-24.61,9.66-24.61,27.14V231H810.09V102.62h39.33v17c7.82-10.81,21.62-18.4,38.87-18.4,29.67,0,49.45,20.24,49.45,54.74v75h-39.1Z"/><path class="cls-1" d="M278.91,69c0-12,9.43-21.39,23.46-21.39,13.8,0,23.23,9.43,23.23,21.39,0,11.73-9.43,21.16-23.23,21.16C288.34,90.2,278.91,80.77,278.91,69Z"/><path class="cls-1" d="M163,229.62,104.89,68.94,95.87,44a1,1,0,0,0-.94-.66H69.16a1,1,0,0,0-.94.66L1.06,229.62A1,1,0,0,0,2,231H41.72a1,1,0,0,0,.33-.06l40-14,39.53,14a1,1,0,0,0,.33.06h40.18A1,1,0,0,0,163,229.62Zm-60.25-51-20.07-7a2,2,0,0,0-1.33,0l-20.07,7A1,1,0,0,1,60,177.38l21.07-58.23a1,1,0,0,1,1.88,0l5.43,15,15.64,43.22A1,1,0,0,1,102.78,178.66Z"/><path class="cls-2" d="M47.49,91.58,58.58,61a18.7,18.7,0,0,1-2.18-9.34c0-11.1,8.58-23.84,25.5-23.84s25.82,12.74,25.82,23.84c0,3.73-.65,6.85-2.21,9.34l1,3.26,10.11,27.37c11.5-8.78,17.69-22.31,17.69-39.43,0-29.84-20.2-50.95-52.22-50.95-32.21,0-52.22,21.11-52.22,50.95C29.84,69.13,36.18,82.8,47.49,91.58Z"/></svg>