<?xml version="1.0" encoding="UTF-8"?>
<svg width="64px" height="48px" viewBox="0 0 64 48" version="1.1" xmlns="http://www.w3.org/2000/svg" xmlns:xlink="http://www.w3.org/1999/xlink">
    <g id="Page-1" stroke="none" stroke-width="1" fill="none" fill-rule="evenodd">
        <g id="Brand-Logo" transform="translate(-850.000000, -5340.000000)" fill="#232629" fill-rule="nonzero">
            <path d="M908.251149,5340.00028 C902.811442,5339.97047 895.58009,5342.35309 889.634,5348.43451 L891.219716,5348.43451 C898.783338,5340.44628 908.099924,5339.81006 914.019727,5341.26884 C912.590427,5340.47103 910.582803,5340.01304 908.251149,5340.00028 Z M891.219716,5348.43451 C888.296769,5351.52155 885.631106,5355.70394 883.531149,5361.29159 C884.640191,5361.62766 885.508211,5362.23499 885.939712,5363.01442 C886.677181,5363.53058 887.317052,5364.34549 887.371142,5365.3887 C887.411498,5366.16695 887.27857,5366.79415 887.036854,5367.29154 C887.033154,5367.43918 886.977636,5367.6048 886.848288,5367.80583 C886.32679,5368.6163 885.743777,5369.40591 885.108284,5370.15438 L886.205434,5374.5515 L893.482574,5361.89158 C893.874078,5360.66937 894.349063,5359.80442 894.802577,5359.71445 C894.860487,5359.70295 894.908484,5359.7094 894.96543,5359.72302 C901.631386,5365.05664 892.714153,5380.91768 890.542567,5383.66289 L891.039716,5380.55147 L890.568288,5379.12004 L891.374003,5378.09149 L890.953995,5377.22578 L892.008284,5376.24864 L891.091142,5374.50008 L892.582572,5373.25722 L891.682578,5371.79151 L892.745433,5370.3601 L893.362574,5367.07726 L893.165426,5366.74298 C891.243156,5371.35513 889.029572,5376.43284 887.165428,5377.32007 C886.612818,5377.68705 886.382675,5377.12692 885.819712,5376.71149 C884.537888,5375.95952 884.691825,5373.67499 883.779716,5372.17723 L883.534651,5371.7985 C883.040979,5372.29614 883.31486,5372.04032 882.785419,5372.49437 C881.873509,5373.27646 881.998151,5373.02848 881.045423,5372.69152 C880.870933,5372.6298 880.722771,5372.57209 880.556856,5372.51151 L881.33685,5374.52579 L882.459713,5376.55721 L882.682566,5376.90863 C882.21598,5377.78532 882.004914,5379.46389 881.268284,5379.54005 C879.478353,5380.03243 874.810027,5376.67479 870.691137,5374.0715 L870.682571,5374.2515 L872.619707,5376.32577 L874.093997,5376.69436 L874.04257,5378.45149 L875.748279,5378.34862 L875.80828,5380.34575 L877.06829,5380.3629 L877.136848,5381.33146 L878.216851,5381.55432 L878.482564,5382.97718 L880.239716,5385.02572 C877.33063,5384.43257 863.349387,5378.46609 866.165421,5369.71724 C866.241923,5369.61682 866.351874,5369.56489 866.473996,5369.53725 C867.133806,5369.38789 868.397956,5370.25849 869.628282,5371.60296 L880.076855,5375.85436 L878.799713,5371.82581 C876.413648,5370.81154 875.267824,5369.91368 874.925417,5368.86011 C874.459732,5368.43078 874.107675,5367.79848 873.956849,5366.8887 C873.695354,5365.3112 875.009296,5363.94427 876.031133,5363.52014 C876.097984,5363.40704 876.171207,5363.29452 876.253994,5363.18585 C872.869988,5360.44425 864.489302,5355.31037 858.271133,5352.95164 C857.98875,5353.71004 857.833993,5354.52673 857.833993,5355.3859 L857.833993,5381.04004 C857.833993,5384.8934 860.940625,5388 864.793992,5388 L895.488291,5388 C899.341667,5388 902.448291,5384.8934 902.448291,5381.04004 L902.448291,5355.3859 C902.448291,5351.53255 899.341667,5348.43451 895.488291,5348.43451 L891.219716,5348.43451 Z M858.271133,5352.95164 C858.433515,5352.51551 858.637514,5352.09802 858.879708,5351.70878 C848.23445,5348.15008 846.973442,5354.57988 856.111136,5363.43443 C846.889228,5351.18404 851.169336,5350.25772 858.271133,5352.95164 Z M858.879708,5351.70878 C863.386745,5353.21547 869.570475,5356.51283 877.368283,5362.17443 C878.221309,5361.60349 879.330015,5361.19027 880.573995,5361.05159 C881.015251,5361.00239 881.451833,5360.98782 881.868285,5361.00873 C883.828095,5355.71053 886.560219,5351.57826 889.634,5348.43451 L864.793992,5348.43451 C862.293846,5348.43451 860.105256,5349.73908 858.879708,5351.70878 Z" id="ic-technology-mantis"></path>
        </g>
    </g>
</svg>