<?xml version="1.0" encoding="UTF-8"?>
<svg width="39px" height="52px" viewBox="0 0 39 52" version="1.1" xmlns="http://www.w3.org/2000/svg" xmlns:xlink="http://www.w3.org/1999/xlink">
    <g id="Page-1" stroke="none" stroke-width="1" fill="none" fill-rule="evenodd">
        <g id="Brand-Logo" transform="translate(-403.000000, -5338.000000)" fill="#232629" fill-rule="nonzero">
            <path d="M406.717141,5338.20196 L406.994018,5338.29979 C407.325557,5338.42836 408.723143,5339.09036 409.865996,5341.45417 C409.401024,5341.93218 408.890608,5342.44015 408.37624,5342.93549 C408.890594,5342.44437 409.400123,5341.93974 409.864004,5341.46675 C409.989653,5341.7316 410.113311,5342.00903 410.232984,5342.31161 C410.364551,5342.6612 410.493442,5343.06837 410.614366,5343.52586 C410.80534,5344.23294 410.971102,5345.05851 411.105735,5345.91782 C411.248961,5346.80428 411.348481,5347.72249 411.398378,5348.58772 C411.417438,5348.87437 411.431206,5349.15373 411.43439,5349.41852 C411.438611,5350.28216 411.318224,5350.99774 410.811806,5352.01616 L410.594428,5352.4284 L410.673036,5352.35337 L410.673036,5352.35337 L410.679332,5352.33906 L410.975778,5352.00868 C411.357507,5351.55469 411.725294,5351.01681 411.904491,5350.6017 L411.951378,5350.4939 L411.983369,5350.38858 L412.106122,5350.65966 L412.106122,5350.65966 L412.250657,5351.05135 L412.250657,5351.05135 L412.38467,5351.47707 L412.38467,5351.47707 L412.522779,5351.98884 L412.522779,5351.98884 C412.586209,5352.23954 412.64845,5352.51584 412.707344,5352.8193 L412.849011,5353.63269 L412.849011,5353.63269 L412.861614,5353.75152 L412.861614,5353.75152 L412.868755,5353.87432 C412.891799,5354.13582 412.88969,5354.39332 412.869712,5354.64156 L412.83249,5354.95796 L412.83249,5354.95796 L412.792075,5355.20296 L412.792075,5355.20296 L412.742228,5355.44646 C412.719008,5355.55237 412.695788,5355.65827 412.659991,5355.76219 C412.547607,5356.13599 412.38868,5356.50604 412.183761,5356.88603 L411.963532,5357.26984 L412.031082,5357.20963 C412.115193,5357.12626 412.199304,5357.04289 412.270839,5356.95753 C412.829855,5356.31767 413.168466,5355.60422 413.341473,5355.12238 C413.585043,5356.58812 413.512813,5358.00383 412.806297,5359.33319 L412.546863,5359.77306 L412.746214,5359.57258 L412.932989,5359.3701 L412.932989,5359.3701 C413.277401,5358.98632 413.55893,5358.59257 413.757715,5358.19217 C414.071038,5359.14425 414.327454,5360.04863 414.534246,5360.90004 C414.771426,5361.88517 414.943105,5362.79548 415.038017,5363.66139 C415.169857,5364.82322 415.175306,5365.88769 415.055673,5366.88722 C414.854963,5368.56309 414.151501,5370.37851 413.252419,5371.66936 L413.532268,5372.00023 L413.532268,5372.00023 C413.919204,5371.7217 414.264941,5371.39939 414.565148,5371.03288 C414.759877,5370.36055 414.979066,5369.69328 415.218789,5369.02911 L415.274131,5368.90344 C415.517217,5368.216 415.781959,5367.54199 416.067585,5366.87115 L416.51206,5365.86731 L417.117917,5364.58924 L417.117917,5364.58924 C417.368496,5364.09162 417.642267,5363.57692 417.929161,5363.0436 C418.371098,5362.23509 418.860946,5361.38234 419.407246,5360.49696 C419.726685,5359.97545 420.071214,5359.43943 420.433961,5358.89397 L421.267997,5357.66843 C421.738899,5357.00852 422.208274,5356.35868 422.687718,5355.71036 C423.257495,5354.94184 423.834288,5354.19498 424.419622,5353.45972 C424.99336,5352.733 425.584182,5352.02947 426.163408,5351.33449 L426.229744,5351.26214 L426.229744,5351.26214 L426.284617,5351.19102 L426.311268,5351.1406 L426.311268,5351.1406 L426.342549,5351.10414 C426.894001,5350.45645 427.4424,5349.82889 427.989271,5349.2114 C428.633491,5348.49537 429.274657,5347.79948 429.899646,5347.14234 L431.236626,5345.77257 C431.454618,5345.5527 431.670439,5345.33708 431.884463,5345.12576 L432.998795,5344.05185 L432.998795,5344.05185 L433.952265,5343.17328 L433.952265,5343.17328 L435.052995,5346.30675 C434.636335,5346.74485 434.222115,5347.19705 433.807351,5347.6629 L433.072423,5348.49907 L433.072423,5348.49907 C432.435218,5349.23677 431.805027,5349.99613 431.180324,5350.78722 C430.58034,5351.55116 429.977301,5352.33524 429.371208,5353.13946 L427.68354,5355.43801 L426.864435,5352.96266 L427.673471,5355.43648 L427.619452,5355.52099 L427.089228,5356.27491 L427.089228,5356.27491 L426.258659,5357.47255 L426.258659,5357.47255 L425.958315,5357.91627 C425.411108,5358.73972 424.852306,5359.57171 424.313641,5360.40675 C423.76338,5361.25033 423.223188,5362.09545 422.691537,5362.95215 C422.17301,5363.79025 421.654483,5364.62835 421.146024,5365.46797 C420.637566,5366.3076 420.140704,5367.13868 419.65391,5367.97129 L418.159647,5370.55669 C418.047028,5370.75591 417.935935,5370.94507 417.824843,5371.13423 L416.687545,5373.16209 L416.689483,5373.18694 L414.81217,5376.60008 L414.81217,5376.60008 L414.05876,5378.00612 L414.05876,5378.00612 C414.24472,5378.11163 414.413982,5378.24277 414.568535,5378.39123 L415.544476,5376.52573 L415.544476,5376.52573 L415.620513,5376.37246 L416.288268,5375.11922 L416.288268,5375.11922 L417.096147,5373.62973 L418.598666,5370.92198 L420.002595,5368.45679 L420.002595,5368.45679 C420.520216,5367.55676 421.031728,5366.69699 421.530118,5365.85584 L422.571428,5364.13146 L422.571428,5364.13146 L423.081739,5363.29975 C423.614916,5362.43297 424.131917,5361.60494 424.644335,5360.80712 L426.068018,5358.61917 L426.068018,5358.61917 L427.970035,5355.80721 L427.97458,5355.76026 L428.007473,5355.76103 L429.136172,5354.16396 L429.136172,5354.16396 L429.679953,5353.41289 C430.305277,5352.54979 430.898247,5351.76418 431.463443,5351.02587 L432.415417,5349.80029 C432.722847,5349.41172 433.02093,5349.04234 433.311307,5348.68981 L433.358496,5348.62487 L433.358496,5348.62487 L434.374581,5347.41802 L434.374581,5347.41802 L435.253751,5346.4093 L435.648692,5345.96917 C437.445106,5343.98718 438.586257,5343.00468 438.980156,5342.68948 L438.20412,5343.32545 C437.424999,5343.985 436.637499,5344.71449 435.849462,5345.50619 L435.061536,5346.31835 L433.962333,5343.1748 C435.943761,5341.38433 437.567192,5340.18848 438.489329,5339.81332 C440.053377,5339.17681 441.092505,5340.84982 441.410549,5341.46012 L441.573948,5341.8056 C441.773663,5342.28894 442.267016,5343.90502 441.357717,5346.57283 L440.309433,5346.58618 L439.231101,5346.58389 L439.357141,5346.58813 L440.700464,5346.58906 C440.919578,5346.58738 441.135299,5346.5848 441.346121,5346.58137 C441.236841,5346.89441 441.115965,5347.21599 440.971897,5347.55466 C440.800056,5347.94061 440.580304,5348.3708 440.314169,5348.83516 C439.906113,5349.55611 439.383625,5350.3524 438.809266,5351.15113 C438.220257,5351.97854 437.570835,5352.79678 436.923561,5353.53295 C436.711159,5353.77885 436.500284,5354.01468 436.292463,5354.23037 C435.598848,5354.94005 434.923106,5355.42457 433.669037,5355.84669 L433.217206,5355.98764 L433.347767,5355.98806 L433.347767,5355.98806 L433.865344,5355.95111 C434.399744,5355.90137 434.96962,5355.80132 435.418916,5355.66509 L435.854234,5355.50683 L435.963667,5355.44746 L435.914476,5355.59069 L435.761905,5355.96278 L435.761905,5355.96278 L435.421898,5356.64255 L435.126462,5357.16426 L435.126462,5357.16426 C434.978339,5357.41648 434.808922,5357.68835 434.615228,5357.97943 L434.083014,5358.74679 L434.083014,5358.74679 L433.906927,5358.95699 L433.906927,5358.95699 C433.717717,5359.1858 433.511424,5359.39143 433.298116,5359.57539 L433.016759,5359.80053 L433.016759,5359.80053 L432.789571,5359.96564 L432.789571,5359.96564 L432.555976,5360.12206 C432.453139,5360.18886 432.350303,5360.25567 432.238925,5360.31088 C431.851464,5360.5225 431.42951,5360.69413 430.962637,5360.83722 L430.480403,5360.97122 L430.582619,5360.97642 C430.716568,5360.97613 430.850517,5360.97585 430.975924,5360.96397 C431.934327,5360.89301 432.773765,5360.58771 433.295868,5360.33728 C432.317606,5361.72461 431.120506,5362.81486 429.470094,5363.31708 L428.961136,5363.44981 L429.592134,5363.43221 L429.592134,5363.43221 C430.174314,5363.3969 430.713785,5363.30361 431.191938,5363.13922 C430.687725,5364.1546 430.175592,5365.08637 429.665606,5365.93606 C429.073828,5366.91756 428.48878,5367.78677 427.877199,5368.55925 C427.060232,5369.59929 426.218881,5370.46053 425.328427,5371.17012 C423.395246,5372.7104 420.597721,5373.76938 418.617784,5373.7163 L418.715418,5373.75171 C420.820663,5374.47272 422.952588,5374.27074 425.001108,5372.71705 C424.727052,5373.0978 424.459104,5373.43828 424.195737,5373.74855 C423.192686,5374.92209 422.161035,5375.62406 420.389165,5376.18958 L419.77015,5376.37349 L420.204633,5376.45156 C421.308501,5376.61061 421.989751,5376.37822 422.618255,5375.796 C422.485497,5375.99217 422.344198,5376.17675 422.204426,5376.35126 C420.591871,5378.29039 417.963182,5378.64364 415.073139,5378.07142 C415.635988,5378.77481 415.859216,5379.6121 415.782811,5380.45545 C415.51306,5379.72176 415.211166,5379.05601 414.793339,5378.64745 C414.504076,5378.51184 414.197896,5378.38084 413.905189,5378.28658 L412.848174,5380.30273 L412.848174,5380.30273 L413.634899,5382.82341 C414.690897,5386.15046 415.471838,5388.38814 415.642278,5388.86453 C415.741407,5389.21542 415.712778,5389.55898 415.470345,5389.86867 C414.389349,5386.76589 413.389833,5383.77527 412.507972,5380.94658 L411.550604,5382.81092 C409.741588,5386.36256 408.581779,5388.80668 408.33925,5389.32826 C408.140256,5389.68949 407.84425,5389.94331 407.403033,5390 C409.052826,5386.52803 410.677465,5383.22191 412.265399,5380.1578 L411.748199,5378.44974 L411.748199,5378.44974 C411.015903,5378.7592 410.26152,5379.5744 409.498994,5380.8073 C409.834481,5379.70659 410.215607,5378.68401 410.890429,5378.12695 L410.646484,5378.21317 C410.280295,5378.32031 409.623552,5378.42909 408.623724,5378.31585 C409.555255,5378.05085 410.296827,5377.72352 410.694222,5377.29012 C409.705119,5376.12787 408.131964,5375.35658 406.33698,5374.72419 L406.816195,5374.69218 C407.401395,5374.66931 408.393769,5374.68038 409.047676,5374.94725 L408.98616,5374.84726 C408.585308,5374.20363 408.213594,5373.53882 407.8667,5372.85598 L407.339226,5371.75901 L407.339226,5371.75901 L407.32065,5371.7054 C407.047239,5371.1216 406.795233,5370.53306 406.558335,5369.93353 L406.214589,5369.02582 C406.076421,5368.63651 405.932961,5368.23992 405.802078,5367.84532 C405.650709,5367.37656 405.503324,5366.88266 405.352638,5366.36889 C405.128602,5365.58566 404.90724,5364.74484 404.701131,5363.84842 C404.578255,5363.32187 404.462157,5362.77061 404.351658,5362.20209 L404.115359,5360.91293 L404.115359,5360.91293 L403.792661,5358.79908 L403.792661,5358.79908 C403.673905,5357.96162 403.573018,5357.13344 403.484708,5356.30725 L403.364726,5355.09088 L403.364726,5355.09088 L403.247299,5353.71978 L403.234745,5353.67311 L403.234745,5353.67311 L403.231787,5353.63074 C403.176539,5352.8807 403.131876,5352.14522 403.092505,5351.41702 L403.028971,5349.74101 C403.02106,5349.46687 403.01457,5349.19583 403.009622,5348.9286 C402.999447,5348.05677 402.995873,5347.22467 403.006184,5346.42699 L403.019486,5345.73101 L403.019486,5345.73101 L403.094765,5343.91416 L403.094765,5343.91416 L405.733459,5345.2023 L405.772183,5346.41788 L405.772183,5346.41788 L405.84872,5347.81188 L405.84872,5347.81188 C405.905901,5348.67182 405.980952,5349.54103 406.079163,5350.4268 C406.176066,5351.28014 406.283554,5352.14805 406.401627,5353.03052 L406.767171,5355.52503 L404.733481,5354.48449 L406.759887,5355.53032 L407.134114,5357.69021 L407.134114,5357.69021 L407.220694,5358.15595 C407.387764,5359.01395 407.552843,5359.88454 407.73249,5360.74453 C407.910146,5361.6171 408.095085,5362.48438 408.292602,5363.35366 L408.882534,5365.8966 L408.882534,5365.8966 C409.084034,5366.74072 409.287526,5367.57226 409.498302,5368.39851 L410.311704,5371.52476 L410.311704,5371.52476 L410.855778,5373.50813 L410.872108,5373.52156 L411.408495,5375.44038 L411.408495,5375.44038 L411.728543,5375.59577 C411.835009,5375.6455 411.939761,5375.69195 412.042654,5375.73486 L411.420188,5373.60192 L411.408864,5373.57676 L410.666818,5370.91061 L410.666818,5370.91061 L410.019237,5368.48746 L410.019237,5368.48746 L409.365113,5365.90212 L409.365113,5365.90212 L408.949434,5364.17034 L408.949434,5364.17034 L408.754012,5363.33005 C408.551203,5362.45349 408.36228,5361.61136 408.189233,5360.79109 L407.66816,5358.22038 L407.66816,5358.22038 L407.176744,5355.57943 L407.150446,5355.54706 L407.172088,5355.52992 L406.890138,5353.82204 L406.890138,5353.82204 L406.765724,5353.01084 C406.623182,5352.07936 406.50841,5351.21675 406.405531,5350.40114 C406.325071,5349.76958 406.256069,5349.17421 406.197545,5348.60914 L406.101678,5347.63922 L406.101678,5347.63922 L405.996722,5346.32291 L405.996722,5346.32291 L405.923475,5345.14216 L405.897127,5344.58383 C405.831408,5343.01274 405.858057,5341.9034 405.89836,5341.21056 L405.958136,5340.48714 L405.864778,5341.36928 C405.784133,5342.26819 405.741641,5343.2163 405.737452,5344.2039 L405.746035,5345.2043 L403.10205,5343.90886 C403.236895,5341.55162 403.515768,5339.79089 403.863031,5338.98212 C404.449612,5337.6156 406.131612,5338.01448 406.717141,5338.20196 L406.717141,5338.20196 Z M412.045677,5377.63291 L412.605752,5379.50526 L412.605752,5379.50526 L413.317954,5378.1527 L413.317954,5378.1527 C413.12889,5378.12761 412.951756,5378.12955 412.786319,5378.16294 L412.630796,5377.65398 L412.630796,5377.65398 C412.450471,5377.63759 412.253727,5377.62989 412.045677,5377.63291 Z" id="ic-technology-maven"></path>
        </g>
    </g>
</svg>