<svg width="200" height="200" viewBox="0 0 200 200" fill="none" xmlns="http://www.w3.org/2000/svg">
<g clip-path="url(#clip0_496_1135)">
<path d="M153.393 178.896H112.508C111.971 178.898 111.439 178.792 110.944 178.583C110.45 178.375 110.002 178.069 109.629 177.683C109.255 177.298 108.963 176.84 108.771 176.339C108.579 175.838 108.49 175.303 108.509 174.766C108.727 168.362 108.466 162.059 108.219 155.959C107.244 132.165 106.321 109.694 134.79 94.166C144.444 88.8954 148.522 82.3089 152.833 75.3444C154.545 72.4766 156.406 69.7005 158.409 67.0278C159.695 65.4491 161.314 64.1743 163.15 63.2946C164.987 62.4148 166.995 61.9519 169.031 61.9389C169.031 60.863 169.031 59.8379 169.031 58.8638C168.951 51.4122 168.9 46.5051 169.256 39.2934C169.619 31.7837 176.359 24.6229 183.396 24.2594C187.576 24.0559 192.468 26.5058 193.573 34.0519C193.842 35.7312 194.199 37.8394 194.606 40.253C197.31 56.1448 201.825 82.7524 199.222 96.4851C195.769 114.958 184.828 126.604 174.25 137.872C168.434 144.095 162.379 150.522 157.406 158.228V174.905C157.405 175.43 157.301 175.951 157.098 176.436C156.896 176.921 156.6 177.362 156.227 177.732C155.855 178.103 155.412 178.397 154.926 178.596C154.44 178.796 153.919 178.898 153.393 178.896ZM116.572 170.899H149.395V157.05C149.396 156.3 149.605 155.566 149.998 154.927C155.494 146.145 162.059 139.159 168.405 132.391C178.649 121.486 188.317 111.177 191.342 94.9948C193.683 82.6361 189.161 55.9413 186.703 41.5834C186.289 39.1407 185.926 37.0034 185.657 35.2732C185.184 32.169 184.108 32.2271 183.752 32.2417C181.353 32.3653 177.384 35.8184 177.209 39.6787C176.867 46.6359 176.918 51.4631 176.998 58.7692C176.998 60.2232 176.998 61.7862 177.042 63.4801C180.799 65.0294 183.818 67.9623 185.475 71.6732C186.696 74.6465 187.874 80.775 181.978 88.3938L165.258 110.087C159.594 117.429 154.905 123.507 152.266 126.938C151.62 127.78 150.667 128.331 149.615 128.469C148.563 128.607 147.499 128.322 146.658 127.676C145.816 127.03 145.266 126.077 145.127 125.025C144.989 123.973 145.274 122.909 145.92 122.068C148.559 118.629 153.255 112.551 158.918 105.194C164.007 98.6515 169.823 91.0981 175.639 83.5084C177.442 81.1676 179.332 77.7362 178.074 74.6974C177.093 72.3129 174.243 70.4155 170.979 69.9793C168.274 69.6231 165.941 70.3428 164.741 71.9058C162.908 74.3562 161.209 76.9044 159.652 79.5391C155.196 86.7362 150.144 94.8857 138.628 101.181C114.536 114.267 115.278 132.522 116.223 155.589C116.412 160.583 116.622 165.665 116.586 170.899H116.572ZM87.4922 178.896H46.585C45.5245 178.896 44.5075 178.474 43.7577 177.725C43.0078 176.975 42.5866 175.958 42.5866 174.897V158.22C37.614 150.529 31.5801 144.102 25.7351 137.865C15.1575 126.597 4.22374 114.95 0.770575 96.4633C-1.78113 83.0504 2.60984 56.9154 5.22697 41.3071C5.70678 38.4428 6.12116 35.9784 6.41922 34.0373C7.61147 26.4912 12.5041 24.0122 16.7206 24.274C23.6996 24.6447 30.4096 31.8128 30.7731 39.2789C31.1075 46.0907 31.0785 50.9978 31.0348 57.8024C31.0348 59.1037 31.0348 60.4777 31.0348 61.9462C35.1132 62.0843 39.0316 63.6546 41.6779 67.035C43.633 69.6844 45.4528 72.4311 47.1302 75.2645C51.4921 82.2726 55.5559 88.8954 65.2175 94.2023C93.6716 109.694 92.7483 132.165 91.7742 155.996C91.527 162.095 91.2653 168.398 91.4834 174.803C91.5009 175.339 91.4105 175.873 91.2174 176.373C91.0243 176.873 90.7326 177.33 90.3596 177.715C89.9865 178.1 89.5398 178.407 89.0459 178.616C88.5521 178.825 88.0212 178.932 87.485 178.932L87.4922 178.896ZM50.5906 170.899H83.4139C83.4139 165.665 83.5811 160.583 83.7846 155.632C84.7297 132.565 85.4785 114.34 61.3863 101.225C49.8637 94.893 44.7966 86.6854 40.3039 79.4737C38.7653 76.8824 37.0959 74.3711 35.3022 71.9494C33.8483 70.1102 31.1221 69.6304 28.4686 70.1247C28.1111 70.2704 27.7337 70.361 27.349 70.3937C26.155 70.7373 25.0339 71.2966 24.0413 72.0439C19.6285 75.4826 21.7658 80.2007 24.3466 83.5521C30.7295 91.7888 37.0761 99.9891 42.3903 106.888C47.5664 113.598 51.6593 118.905 54.1238 122.068C54.7764 122.904 55.0699 123.966 54.9397 125.019C54.8095 126.073 54.2663 127.031 53.4295 127.683C52.5927 128.336 51.5309 128.63 50.4778 128.499C49.4246 128.369 48.4662 127.826 47.8136 126.989C45.3346 123.805 41.2707 118.491 36.051 111.774C30.7222 104.86 24.4193 96.6595 18.0219 88.4228C10.2359 78.3251 13.769 69.8703 19.1632 65.6974C20.3458 64.7921 21.6379 64.0398 23.009 63.4583C23.009 61.3864 23.009 59.5035 23.009 57.7515C23.009 51.0778 23.0744 46.2652 22.7545 39.6714C22.5655 35.8184 18.618 32.4016 16.2117 32.2417C15.8554 32.2417 14.7577 32.1617 14.2706 35.2659C13.9726 37.236 13.5436 39.7296 13.0638 42.623C10.7011 56.7192 6.29564 82.9559 8.57836 94.9657C11.6317 111.192 21.3296 121.493 31.5728 132.405C37.9194 139.166 44.4767 146.152 49.9727 154.942C50.3712 155.578 50.5828 156.314 50.5834 157.064V170.877L50.5906 170.899ZM100.025 103.224C99.3543 103.223 98.6942 103.053 98.1062 102.73C56.9299 80.2225 52.6625 58.1804 53.7966 47.043C54.3685 41.3978 56.5942 36.0471 60.1947 31.6616C63.7951 27.2762 68.61 24.0512 74.0358 22.3911C78.4745 20.9421 83.2175 20.6934 87.7833 21.6701C92.3492 22.6469 96.5753 24.8144 100.033 27.9525C103.476 24.8207 107.686 22.6553 112.237 21.676C116.787 20.6968 121.516 20.9384 125.942 22.3765C131.376 24.0308 136.2 27.2529 139.81 31.6385C143.42 36.0241 145.654 41.378 146.232 47.0285C147.359 58.1659 143.106 80.2152 101.952 102.73C101.367 103.064 100.706 103.244 100.033 103.253L100.025 103.224ZM82.2434 29.1011C80.2707 29.1102 78.3105 29.4141 76.4276 30.0026C72.5018 31.1974 69.0164 33.5253 66.409 36.6941C63.8015 39.8628 62.1882 43.7312 61.7716 47.8136C60.2377 63.0366 74.1303 80.0262 100.062 94.6167C125.928 80.0262 139.842 63.0366 138.301 47.8064C137.873 43.7226 136.248 39.8563 133.63 36.6927C131.012 33.5292 127.518 31.2093 123.587 30.0244C115.997 27.6835 108.32 30.0244 103.093 36.2546C102.721 36.7067 102.254 37.0712 101.725 37.3225C101.196 37.5738 100.618 37.7056 100.033 37.7086C99.4474 37.7041 98.8701 37.5716 98.3414 37.3205C97.8127 37.0693 97.3453 36.7055 96.9721 36.2546C95.2 34.046 92.9594 32.2585 90.4123 31.0214C87.8651 29.7843 85.075 29.1284 82.2434 29.1011Z" fill="#0E53BE"/>
</g>
<defs>
<clipPath id="clip0_496_1135">
<rect width="200" height="200" fill="white"/>
</clipPath>
</defs>
</svg>
