<svg id="_12" data-name="12" xmlns="http://www.w3.org/2000/svg" viewBox="0 0 275.11 217.05" x="0" y="0" width="200" height="200" fill="#007bfc"><path d="M211,217.05H154.76a5.48,5.48,0,0,1-5.5-5.68c.3-8.81-.06-17.48-.4-25.87-1.34-32.73-2.61-63.64,36.55-85,13.28-7.25,18.89-16.31,24.82-25.89a131.28,131.28,0,0,1,7.67-11.44,19,19,0,0,1,14.61-7c0-1.48,0-2.89,0-4.23-.11-10.25-.18-17,.31-26.92.5-10.33,9.77-20.18,19.45-20.68,5.75-.28,12.48,3.09,14,13.47.37,2.31.86,5.21,1.42,8.53,3.72,21.86,9.93,58.46,6.35,77.35-4.75,25.41-19.8,41.43-34.35,56.93-8,8.56-16.33,17.4-23.17,28v22.94A5.5,5.5,0,0,1,211,217.05Zm-50.65-11h45.15V187a5.59,5.59,0,0,1,.83-2.92c7.56-12.08,16.59-21.69,25.32-31,14.09-15,27.39-29.18,31.55-51.44,3.22-17-3-53.72-6.38-73.47-.57-3.36-1.07-6.3-1.44-8.68-.65-4.27-2.13-4.19-2.62-4.17-3.3.17-8.76,4.92-9,10.23-.47,9.57-.4,16.21-.29,26.26,0,2,0,4.15.06,6.48a21.81,21.81,0,0,1,11.6,11.27c1.68,4.09,3.3,12.52-4.81,23l-23,29.84c-7.79,10.1-14.24,18.46-17.87,23.18a5.5,5.5,0,1,1-8.73-6.7c3.63-4.73,10.09-13.09,17.88-23.21,7-9,15-19.39,23-29.83,2.48-3.22,5.08-7.94,3.35-12.12-1.35-3.28-5.27-5.89-9.76-6.49-3.72-.49-6.93.5-8.58,2.65a116.2,116.2,0,0,0-7,10.5c-6.13,9.9-13.08,21.11-28.92,29.77-33.14,18-32.12,43.11-30.82,74.84C160.13,191.86,160.42,198.85,160.37,206.05Zm-40,11H64.08a5.5,5.5,0,0,1-5.5-5.5V188.61c-6.84-10.58-15.14-19.42-23.18-28-14.55-15.5-29.59-31.52-34.34-56.95-3.51-18.45,2.53-54.4,6.13-75.87.66-3.94,1.23-7.33,1.64-10C10.47,7.41,17.2,4,23,4.36,32.6,4.87,41.83,14.73,42.33,25c.46,9.37.42,16.12.36,25.48,0,1.79,0,3.68,0,5.7,5.61.19,11,2.35,14.64,7A134.22,134.22,0,0,1,64.83,74.5c6,9.64,11.59,18.75,24.88,26.05,39.14,21.31,37.87,52.22,36.53,85-.34,8.39-.7,17.06-.4,25.87a5.5,5.5,0,0,1-5.5,5.68Zm-50.76-11h45.15c0-7.2.23-14.19.51-21,1.3-31.73,2.33-56.8-30.81-74.84-15.85-8.71-22.82-20-29-29.92a122.27,122.27,0,0,0-6.88-10.35c-2-2.53-5.75-3.19-9.4-2.51a5.26,5.26,0,0,1-1.54.37,14,14,0,0,0-4.55,2.27C27,74.8,29.94,81.29,33.49,85.9,42.27,97.23,51,108.51,58.31,118c7.12,9.23,12.75,16.53,16.14,20.88a5.5,5.5,0,0,1-8.68,6.77c-3.41-4.38-9-11.69-16.18-20.93-7.33-9.51-16-20.79-24.8-32.12-10.71-13.89-5.85-25.52,1.57-31.26a24.33,24.33,0,0,1,5.29-3.08c0-2.85,0-5.44,0-7.85,0-9.18.09-15.8-.35-24.87-.26-5.3-5.69-10-9-10.22-.49,0-2-.11-2.67,4.16-.41,2.71-1,6.14-1.66,10.12-3.25,19.39-9.31,55.48-6.17,72C16,123.92,29.34,138.09,43.43,153.1c8.73,9.3,17.75,18.91,25.31,31a5.51,5.51,0,0,1,.84,2.92v19Zm68-93.09a5.49,5.49,0,0,1-2.64-.68C78.31,81.32,72.44,51,74,35.68A39.64,39.64,0,0,1,101.84,1.77,36.4,36.4,0,0,1,137.6,9.42a36.3,36.3,0,0,1,35.64-7.67,39.67,39.67,0,0,1,27.91,33.91c1.55,15.32-4.3,45.65-60.91,76.62A5.49,5.49,0,0,1,137.6,113ZM113.13,11a27.24,27.24,0,0,0-8,1.24,28.65,28.65,0,0,0-20.16,24.5c-2.11,20.94,17,44.31,52.67,64.38,35.58-20.07,54.72-43.44,52.6-64.39A28.67,28.67,0,0,0,170,12.27c-10.44-3.22-21,0-28.19,8.57a5.49,5.49,0,0,1-4.21,2h0a5.52,5.52,0,0,1-4.21-2A26.3,26.3,0,0,0,113.13,11Z"/></svg>