<svg width="512" height="512" viewBox="0 0 512 512" fill="none" xmlns="http://www.w3.org/2000/svg">
<g clip-path="url(#clip0_496_1474)">
<path d="M484.983 207.863C501.359 195.388 512 175.735 512 153.6C512 115.959 481.374 85.3333 443.733 85.3333C406.093 85.3333 375.467 115.959 375.467 153.6C375.467 173.995 384.504 192.282 398.729 204.8H353.399L296.166 147.567C292.83 144.23 287.437 144.23 284.1 147.567L249.967 181.7C246.63 185.037 246.63 190.43 249.967 193.766L326.767 270.566C328.363 272.171 330.53 273.067 332.8 273.067H401.067V332.8H358.4H254.874L297.233 269.269L283.034 259.806L234.368 332.8H213.333V290.133C213.333 285.414 209.519 281.6 204.8 281.6H136.533V247.467C136.533 229.478 125.303 214.127 109.517 207.863C125.892 195.388 136.533 175.735 136.533 153.6C136.533 115.959 105.907 85.3333 68.2667 85.3333C30.6261 85.3333 0 115.959 0 153.6C0 175.735 10.6411 195.388 27.0165 207.863C11.2299 214.127 0 229.478 0 247.467V366.933C0 390.46 19.1403 409.6 42.6667 409.6V512H59.7333V409.6H119.467V503.467C119.467 508.186 123.281 512 128 512H187.733C192.452 512 196.267 508.186 196.267 503.467V375.467C196.267 365.867 193.084 357.001 187.716 349.867H196.267H204.8H247.467V494.933H213.333V512H298.667V494.933H264.533V349.867H324.489C319.07 357.018 315.733 365.824 315.733 375.467V503.467C315.733 508.186 319.548 512 324.267 512H384C388.719 512 392.533 508.186 392.533 503.467V409.6H452.267V512H469.333V409.6C492.86 409.6 512 390.46 512 366.933V247.467C512 229.478 500.77 214.127 484.983 207.863ZM17.0667 153.6C17.0667 125.363 40.0299 102.4 68.2667 102.4C96.5035 102.4 119.467 125.363 119.467 153.6C119.467 181.837 96.5035 204.8 68.2667 204.8C40.0299 204.8 17.0667 181.837 17.0667 153.6ZM196.267 332.8H85.3333V264.533H68.2667V341.333C68.2667 346.052 72.0811 349.867 76.8 349.867H153.6C167.714 349.867 179.2 361.353 179.2 375.467V494.933H136.533V401.067C136.533 396.348 132.719 392.533 128 392.533H42.6667C28.5525 392.533 17.0667 381.047 17.0667 366.933V247.467C17.0667 233.353 28.5525 221.867 42.6667 221.867H93.8667C107.981 221.867 119.467 233.353 119.467 247.467V290.133C119.467 294.852 123.281 298.667 128 298.667H196.267V332.8ZM392.533 153.6C392.533 125.363 415.497 102.4 443.733 102.4C471.97 102.4 494.933 125.363 494.933 153.6C494.933 181.837 471.97 204.8 443.733 204.8C415.497 204.8 392.533 181.837 392.533 153.6ZM494.933 366.933C494.933 381.047 483.447 392.533 469.333 392.533H384C379.281 392.533 375.467 396.348 375.467 401.067V494.933H332.8V375.467C332.8 361.353 344.286 349.867 358.4 349.867H409.6C414.319 349.867 418.133 346.052 418.133 341.333V264.533C418.133 259.814 414.319 256 409.6 256H336.333L268.066 187.733L290.133 165.666L343.834 219.366C345.429 220.971 347.597 221.867 349.867 221.867H469.333C483.447 221.867 494.933 233.353 494.933 247.467V366.933Z" fill="#0E53BE"/>
<path d="M341.333 -1.52588e-05H170.667C156.553 -1.52588e-05 145.067 11.4859 145.067 25.6V93.8667C145.067 107.981 156.553 119.467 170.667 119.467H179.2V170.667C179.2 174.114 181.274 177.237 184.465 178.551C185.523 178.995 186.633 179.2 187.733 179.2C189.952 179.2 192.137 178.33 193.766 176.7L250.999 119.467H341.333C355.447 119.467 366.933 107.981 366.933 93.8667V25.6C366.933 11.4859 355.447 -1.52588e-05 341.333 -1.52588e-05ZM349.867 93.8667C349.867 98.5771 346.044 102.4 341.333 102.4H247.467C245.197 102.4 243.029 103.296 241.434 104.9L196.267 150.067V110.933C196.267 106.214 192.452 102.4 187.733 102.4H170.667C165.956 102.4 162.133 98.5771 162.133 93.8667V25.6C162.133 20.8896 165.956 17.0667 170.667 17.0667H341.333C346.044 17.0667 349.867 20.8896 349.867 25.6V93.8667Z" fill="#0E53BE"/>
<path d="M230.4 34.1333H179.2V51.2H230.4V34.1333Z" fill="#0E53BE"/>
<path d="M332.8 68.2667H179.2V85.3333H332.8V68.2667Z" fill="#0E53BE"/>
<path d="M332.8 34.1333H247.467V51.2H332.8V34.1333Z" fill="#0E53BE"/>
</g>
<defs>
<clipPath id="clip0_496_1474">
<rect width="512" height="512" fill="white"/>
</clipPath>
</defs>
</svg>
