<svg id="Слой_1" data-name="Слой 1" xmlns="http://www.w3.org/2000/svg" viewBox="0 0 3100 2000"><defs><style>.cls-1{fill:#fff;}.cls-2{fill:#e3eaff;}.cls-3{fill:#cfdaff;}.cls-4{fill:#b1c1f2;}.cls-5{fill:#2c2858;}.cls-6{fill:#f37a50;}.cls-7{fill:#de623c;}.cls-8{fill:#f595ad;}.cls-9{fill:#4364cc;}.cls-10{fill:#070635;}.cls-11{fill:#e62552;}.cls-12{fill:#c4204a;}.cls-13{fill:#494c7f;}.cls-14{fill:#16142b;}.cls-15{fill:#191e29;}.cls-16{fill:#0e6a41;}.cls-17{fill:#3c3f73;}.cls-18{fill:#768fdb;}.cls-19{fill:#80bc48;}.cls-20{fill:#3f964f;}.cls-21{fill:#201d40;}.cls-22{fill:#30357f;}.cls-23{fill:#181b47;}.cls-24{fill:#47a859;}.cls-25{fill:#f3906d;}.cls-26{fill:#f0f4ff;}</style></defs><rect class="cls-1" width="3100" height="2000"/><path class="cls-2" d="M179.21,1786.84c-85.8-167.11-208.95-369-76-532.55,51-62.74,171.56-170.84,186.42-250.34,38-203.5-106.53-404.79,101.2-553.93,197-141.47,346.21,32,553.93-149.14,198.49-173,511.05-302.42,825.58-229,159.79,37.29,304.82,277,442.08,277,564.59,0,451.57,433.23,676.44,569.91,271.64,165.12,154.46,607.2,43,864.29C2931.87,1783,179.21,1786.84,179.21,1786.84Z"/><path class="cls-3" d="M940.8,1022.8a2,2,0,0,1-.48,0,2.39,2.39,0,0,1-1.85-2.81c11-53-7.34-93.51-25.1-132.73-9-20-18.4-40.63-23.38-62.27a137.77,137.77,0,0,1,1.77-71q1.31-4.5,2.7-9.27c11.66-39.83,27.62-94.39,18.55-130-10-39.11-13.89-69.44-.65-90.33a2.38,2.38,0,0,1,4,2.55c-12.33,19.44-8.42,48.68,1.24,86.61C927,650.33,910.84,705.61,899,746c-.93,3.17-1.83,6.26-2.69,9.25-14.63,50.53,2.86,89.15,21.37,130,18.08,39.91,36.77,81.18,25.43,135.66A2.37,2.37,0,0,1,940.8,1022.8Z"/><path class="cls-3" d="M912.06,508.38l-8.79,20.22c-.65,1.5.29,3.27,1.73,3.27h14.08c1.44,0,2.38-1.77,1.73-3.27Z"/><ellipse class="cls-3" cx="913.92" cy="411.95" rx="79.07" ry="104.85"/><path class="cls-3" d="M2311.66,979.79a2.81,2.81,0,0,1-.49,0,2.38,2.38,0,0,1-1.84-2.81c11-53-7.34-93.51-25.1-132.73-9.05-20-18.41-40.64-23.39-62.28a137.84,137.84,0,0,1,1.78-71c.86-3,1.77-6.09,2.7-9.27,11.65-39.84,27.62-94.39,18.55-130-10-39.12-13.89-69.45-.65-90.33a2.38,2.38,0,1,1,4,2.55c-12.33,19.44-8.42,48.68,1.24,86.6,9.4,36.89-6.78,92.16-18.59,132.52l-2.7,9.26c-14.63,50.53,2.86,89.14,21.38,130,18.07,39.91,36.76,81.18,25.43,135.65A2.39,2.39,0,0,1,2311.66,979.79Z"/><path class="cls-3" d="M2282.92,465.37l-8.79,20.21c-.66,1.5.28,3.27,1.73,3.27h14.07c1.45,0,2.38-1.76,1.73-3.26Z"/><ellipse class="cls-3" cx="2284.78" cy="368.94" rx="79.07" ry="104.85"/><path class="cls-3" d="M1197.08,1174.2a2,2,0,0,1-.49,0,2.37,2.37,0,0,1-1.84-2.81c11-53-7.35-93.51-25.11-132.73-9.05-20-18.4-40.63-23.38-62.27a138,138,0,0,1,1.77-71c.87-3,1.77-6.09,2.7-9.27,11.66-39.83,27.63-94.39,18.55-130-10-39.11-13.89-69.44-.65-90.33a2.38,2.38,0,0,1,4,2.55c-12.33,19.44-8.42,48.69,1.24,86.61,9.39,36.88-6.78,92.16-18.59,132.52-.93,3.17-1.84,6.26-2.7,9.25-14.63,50.53,2.86,89.15,21.37,130,18.08,39.91,36.77,81.18,25.43,135.66A2.37,2.37,0,0,1,1197.08,1174.2Z"/><path class="cls-3" d="M1168.33,659.78,1159.54,680c-.65,1.5.29,3.27,1.73,3.27h14.08c1.44,0,2.38-1.77,1.73-3.27Z"/><ellipse class="cls-3" cx="1170.19" cy="563.35" rx="79.07" ry="104.85"/><path class="cls-3" d="M1621.41,816.35a2.81,2.81,0,0,1-.49-.05,2.38,2.38,0,0,1-1.84-2.81c11-53-7.35-93.51-25.11-132.73-9-20-18.4-40.63-23.38-62.27a138,138,0,0,1,1.77-71q1.31-4.5,2.7-9.27c11.66-39.83,27.63-94.39,18.55-130-10-39.12-13.89-69.45-.65-90.33a2.38,2.38,0,0,1,4,2.55c-12.33,19.44-8.42,48.68,1.24,86.61,9.4,36.88-6.78,92.16-18.59,132.52-.93,3.17-1.84,6.26-2.7,9.25-14.63,50.53,2.86,89.15,21.38,130,18.07,39.91,36.76,81.18,25.42,135.66A2.37,2.37,0,0,1,1621.41,816.35Z"/><path class="cls-3" d="M1592.67,301.93l-8.8,20.22c-.65,1.49.29,3.26,1.74,3.26h14.07c1.44,0,2.38-1.76,1.73-3.26Z"/><ellipse class="cls-3" cx="1594.53" cy="205.5" rx="79.07" ry="104.85"/><path class="cls-3" d="M2955.55,1538.92a2.63,2.63,0,0,1-.49-.05,2.37,2.37,0,0,1-1.84-2.81c11-53-7.35-93.51-25.11-132.73-9.05-20-18.4-40.63-23.38-62.27a138,138,0,0,1,1.77-71q1.3-4.5,2.7-9.27c11.66-39.83,27.63-94.39,18.55-130-10-39.11-13.89-69.45-.65-90.33a2.38,2.38,0,0,1,4,2.55c-12.33,19.44-8.42,48.68,1.24,86.61,9.39,36.88-6.78,92.16-18.59,132.52-.93,3.17-1.84,6.26-2.7,9.25-14.63,50.53,2.86,89.15,21.37,130,18.08,39.91,36.77,81.18,25.43,135.66A2.37,2.37,0,0,1,2955.55,1538.92Z"/><path class="cls-3" d="M2926.8,1024.5l-8.79,20.22c-.65,1.49.29,3.27,1.73,3.27h14.08c1.44,0,2.38-1.77,1.73-3.27Z"/><ellipse class="cls-3" cx="2928.66" cy="928.07" rx="79.07" ry="104.85"/><path class="cls-3" d="M198.8,1743.64a2.81,2.81,0,0,1-.49-.05,2.38,2.38,0,0,1-1.84-2.81c11-53-7.34-93.51-25.1-132.73-9.05-20-18.41-40.64-23.39-62.28a138,138,0,0,1,1.77-71c.87-3,1.78-6.09,2.71-9.27,11.65-39.84,27.62-94.39,18.54-130-10-39.12-13.88-69.45-.64-90.33a2.38,2.38,0,0,1,4,2.55c-12.33,19.44-8.42,48.68,1.24,86.61,9.4,36.88-6.78,92.15-18.59,132.51l-2.7,9.26c-14.63,50.53,2.86,89.14,21.38,130,18.07,39.91,36.76,81.18,25.43,135.66A2.39,2.39,0,0,1,198.8,1743.64Z"/><path class="cls-3" d="M170.06,1229.22l-8.79,20.21c-.66,1.5.28,3.27,1.73,3.27h14.07c1.45,0,2.38-1.76,1.73-3.26Z"/><ellipse class="cls-3" cx="171.92" cy="1132.79" rx="79.07" ry="104.85"/><ellipse class="cls-4" cx="1541.34" cy="1789.58" rx="1432.77" ry="119.84"/><path class="cls-3" d="M1060.89,1273.39l-25.11-7.33-18.35,18.62a2.89,2.89,0,0,1-4.95-1.94l-.78-26.14-23.39-11.7a2.89,2.89,0,0,1,.32-5.31l24.62-8.82,3.9-25.86a2.89,2.89,0,0,1,5.15-1.34l16,20.69,25.8-4.28a2.89,2.89,0,0,1,2.86,4.48l-14.74,21.61,12,23.22A2.89,2.89,0,0,1,1060.89,1273.39Z"/><path class="cls-3" d="M359.57,591.56l-24.51-9.13-19.65,17.25a2.89,2.89,0,0,1-4.8-2.3l1.11-26.12-22.48-13.37a2.89,2.89,0,0,1,.7-5.27l25.19-7,5.76-25.51a2.9,2.9,0,0,1,5.24-1l14.45,21.79,26.05-2.4a2.89,2.89,0,0,1,2.53,4.68L352.9,563.68l10.34,24A2.9,2.9,0,0,1,359.57,591.56Z"/><path class="cls-3" d="M1787.34,1564.38,1769,1545.71l-25.12,7.28a2.89,2.89,0,0,1-3.37-4.12l12.1-23.18L1738,1504a2.89,2.89,0,0,1,2.87-4.47l25.79,4.34,16-20.65a2.89,2.89,0,0,1,5.15,1.35l3.84,25.87,24.6,8.88a2.89,2.89,0,0,1,.31,5.31l-23.42,11.64-.84,26.14A2.89,2.89,0,0,1,1787.34,1564.38Z"/><path class="cls-3" d="M2661.53,599.81l-18.31-18.67-25.12,7.27a2.89,2.89,0,0,1-3.37-4.11l12.1-23.19-14.69-21.64A2.89,2.89,0,0,1,2615,535l25.79,4.34,16-20.66A2.9,2.9,0,0,1,2662,520l3.84,25.87,24.6,8.88a2.89,2.89,0,0,1,.3,5.31l-23.41,11.65-.85,26.14A2.89,2.89,0,0,1,2661.53,599.81Z"/><path class="cls-3" d="M1891.7,441.13l-25.88-3.73-15.55,21a2.89,2.89,0,0,1-5.17-1.23l-4.46-25.77-24.81-8.29a2.89,2.89,0,0,1-.43-5.3l23.13-12.2.21-26.15a2.89,2.89,0,0,1,4.91-2.05l18.76,18.23,24.94-7.88a2.89,2.89,0,0,1,3.46,4l-11.54,23.47,15.2,21.28A2.9,2.9,0,0,1,1891.7,441.13Z"/><path class="cls-3" d="M1830.75,305.89,1814,303.47,1803.9,317.1a1.87,1.87,0,0,1-3.35-.79l-2.89-16.7-16.08-5.37a1.88,1.88,0,0,1-.28-3.44l15-7.9.14-16.95a1.88,1.88,0,0,1,3.18-1.33l12.16,11.81,16.16-5.1a1.87,1.87,0,0,1,2.24,2.61l-7.48,15.21,9.85,13.79A1.88,1.88,0,0,1,1830.75,305.89Z"/><path class="cls-3" d="M1904,1364.14l-11.15-12.77-16.52,3.76a1.87,1.87,0,0,1-2-2.78l8.7-14.55-8.69-14.55a1.88,1.88,0,0,1,2-2.79l16.52,3.78,11.16-12.76a1.88,1.88,0,0,1,3.28,1.07l1.51,16.88,15.58,6.66a1.88,1.88,0,0,1,0,3.45l-15.59,6.66-1.52,16.87A1.88,1.88,0,0,1,1904,1364.14Z"/><path class="cls-3" d="M2753.1,1474.88l-25.89-3.72-15.54,21a2.89,2.89,0,0,1-5.18-1.22L2702,1465.2l-24.8-8.29a2.89,2.89,0,0,1-.44-5.3l23.14-12.2.21-26.16a2.9,2.9,0,0,1,4.91-2l18.75,18.23,24.94-7.88a2.9,2.9,0,0,1,3.47,4l-11.54,23.47,15.2,21.28A2.89,2.89,0,0,1,2753.1,1474.88Z"/><path class="cls-5" d="M2538.48,916.89c-30.49-10.62-95.28-43.33-64.58-87.45s43.73-25.63,31.93-78.67,25.54-95.29,61.7-85.1,45.67,39.25,89.77,31.39,81.27,33,65,69.06-23.15,53.34-7.38,73,86.06,40.26,57.36,88.09-42.12,45.07-31.7,69.31-12.69,52.23-53.35,48.89-77.6-18.29-93-63.48S2538.48,916.89,2538.48,916.89Z"/><polygon class="cls-6" points="2607.2 1690.07 2609.73 1715.98 2588.05 1722.56 2570.64 1703.97 2567.78 1693.28 2607.2 1690.07"/><path class="cls-6" d="M2538.81,1167.39s-32.53,210.66-23.76,300.94S2568,1693.68,2568,1693.68h39.6s-.67-16.33-2.22-70.16c-2-68.64,0-125-30-160.41,15.53-67,55.25-295.72,55.25-295.72Z"/><path class="cls-6" d="M2579,1203.4s10.52,193.91,42.49,278.8c81.89,55.82,156.34,82.87,205.89,102.36,2.33.92,12.17-35.94,12.17-35.94-55-36-103.32-100.88-159.47-92.53,9.6-62.1,18.9-221.69,18.9-221.69Z"/><path class="cls-7" d="M2622.94,858.73v79.66s-26.56,14.16-49.57,0c3.54-17.7,5.64-74.1,5.64-74.1Z"/><path class="cls-8" d="M2670.45,901.7H2538.28s-23.73,53.29-20.51,98.9,9,169.75,9,169.75,81.06-18.4,132.82-34.37c4.11-93.61,31.91-136.28,30-166.69S2670.45,901.7,2670.45,901.7Z"/><path class="cls-6" d="M2539.35,789c0,44.63,26.92,80.81,60.12,80.81s60.11-36.18,60.11-80.81-26.91-80.82-60.11-80.82S2539.35,744.36,2539.35,789Z"/><path class="cls-5" d="M2663.58,789c-33.18-4.25-64-22.74-81.47-46.64-11.25,27.93-42.76,46.64-42.76,46.64s-23.61-53.43,19.33-82.25C2599.64,679.25,2697.37,698,2663.58,789Z"/><path d="M2624.76,806.24a6.39,6.39,0,1,0-6.39-6.39A6.39,6.39,0,0,0,2624.76,806.24Z"/><path d="M2573.84,806.24a6.39,6.39,0,1,0-6.39-6.39A6.39,6.39,0,0,0,2573.84,806.24Z"/><path class="cls-5" d="M2562.58,794.09a3,3,0,0,0,2.64-1.5c1.58-2.66,3.49-4.26,5.68-4.74,3.79-.84,7.54,1.69,7.58,1.71a3.07,3.07,0,0,0,3.51-5c-.24-.17-5.91-4.07-12.34-2.69-4,.85-7.21,3.42-9.7,7.62a3.07,3.07,0,0,0,1.07,4.21A3.15,3.15,0,0,0,2562.58,794.09Z"/><path class="cls-5" d="M2636.88,794.4a3.06,3.06,0,0,0,2.39-5c-4-5-8.5-7.78-13.27-8.15a15,15,0,0,0-10.56,3.48,3.07,3.07,0,0,0,4.12,4.55,8.84,8.84,0,0,1,6.05-1.9c3,.26,6,2.23,8.87,5.85A3.06,3.06,0,0,0,2636.88,794.4Z"/><path class="cls-7" d="M2593.13,808.24c-8.26,6-10.84,8.4-14,10.39,2.2,7.37,13.77,11,17.06,10.19-8-4-9.19-9.36-9.19-9.36Z"/><path class="cls-6" d="M2650.6,795.23c-6.89,8.72-7.23,19.94-.76,25s17.29,2.17,24.18-6.55,7.23-19.94.77-25S2657.49,786.51,2650.6,795.23Z"/><path class="cls-7" d="M2656.65,814.08a2,2,0,0,0,1.88-2.84c-1.46-3.46-1.49-6.24-.09-8.27,2.15-3.14,7.23-4.1,10.93-4a2,2,0,1,0,.13-4.09c-4.95-.16-11.35,1.26-14.44,5.75-1.53,2.24-2.84,6.17-.3,12.18A2.05,2.05,0,0,0,2656.65,814.08Z"/><path class="cls-1" d="M2615.42,839.73a1.86,1.86,0,0,0-2-2.8,131.83,131.83,0,0,1-34.9,3.11,1.86,1.86,0,0,0-1.44,3.11c3.35,3.77,10.08,9.34,20.06,8.45S2612.79,844,2615.42,839.73Z"/><path class="cls-9" d="M2587.53,1719.69c-5.38-14.14-16.89-15.71-16.89-15.71-22.38,29.84-77.32,11.53-75.5,51.89,83.55-.52,118.28,0,118.28,0-.12-9.27-1.77-31.28-3.69-39.89l-4.36.78Z"/><polygon class="cls-6" points="2835.71 1546.07 2865.24 1561.11 2861.07 1582.7 2837.22 1589.23 2826.01 1584.02 2835.71 1546.07"/><path class="cls-9" d="M2858.36,1581.84c-14.57-1.78-21.14,7.39-21.14,7.39,15.49,32.73-25.11,71.61,10.37,88.33,37.39-72,53.56-101.55,53.56-101.55-8-4.11-27.65-12.65-35.91-14.9l-1.31,4.09Z"/><path class="cls-10" d="M2667.1,1399.48c24.37-4.4,47.74-4.38,61.45-4.08-8.68-29-6.17-208.16-61.15-269.76H2529c-49,84-30.5,208.59-60.77,259.6,11.83,5.72,45,20,88.38,24.41C2604.63,1414.49,2625.93,1406.93,2667.1,1399.48Z"/><path class="cls-11" d="M2624,901l58.52-5.16s7.07,73.43,35,254.88c-39.4,9.77-66.89,10.36-66.89,10.36Z"/><path class="cls-11" d="M2577.17,901.09l-25.89,260s-11.78,4-56-9.17c21.43-108.33,15.62-253.13,35.78-253.86C2550.78,899.56,2577.17,901.09,2577.17,901.09Z"/><path class="cls-11" d="M2521,968.42c-37.38-3.44-111.78-42.29-142-71.81L2415,862.76s96.72,26.2,120.36,38.79C2553.42,916.27,2556.18,961.34,2521,968.42Z"/><path class="cls-7" d="M2330.1,678.46c11.37-14.8,17.77-4.54,23.68-1.49,16.47,8.51,5-30.33,23.18-25-4.83,27.47,6.25,26.81-2.11,53.3l2,11-26.53,19.5-3-12.15C2330.21,716,2311.73,701.65,2330.1,678.46Z"/><path class="cls-6" d="M2326,684.48a27.79,27.79,0,0,1,13-14.62c3.55-1.61,14.31,2.26,16.09,6.38s.52,8.57-2.76,10.22a4.55,4.55,0,0,1-2.8.36c1.48,4.35.2,8.79-2.77,10.22l-1.73.54c.28,3.33-1.05,6.39-3.4,7.38a5.22,5.22,0,0,1-2.79.36c.62,2.84-.28,7-2.63,8-2.28,3.15-6.71,1.62-9.27-1C2321.67,706.93,2319.84,699.62,2326,684.48Z"/><path class="cls-11" d="M2377.94,713.24s32.19,107.43,41.6,148.26c3.74,16.22-27.8,32.59-40.61,35.11-13.84-13.6-40.81-56.74-33-167.25C2355.66,718.23,2377.94,713.24,2377.94,713.24Z"/><path class="cls-11" d="M2688.82,966c37.38-3.44,111.79-42.29,142-71.81l-36.07-33.85S2698,886.51,2674.4,899.1C2656.35,913.82,2653.59,958.89,2688.82,966Z"/><path class="cls-7" d="M2879.68,676c-11.38-14.8-17.78-4.54-23.69-1.49-16.47,8.5-5-30.33-23.18-25,4.83,27.47-6.24,26.81,2.11,53.3l-2,11,26.53,19.5,3-12.15C2879.56,713.5,2898,699.2,2879.68,676Z"/><path class="cls-6" d="M2883.78,682a27.79,27.79,0,0,0-13-14.62c-3.54-1.61-14.31,2.26-16.1,6.38s-.51,8.57,2.77,10.22a4.55,4.55,0,0,0,2.8.36c-1.48,4.35-.2,8.79,2.77,10.22l1.73.54c-.27,3.33,1.05,6.39,3.4,7.38a5.23,5.23,0,0,0,2.79.36c-.62,2.84.28,7,2.63,8,2.28,3.15,6.71,1.63,9.27-1C2888.1,704.49,2889.93,697.17,2883.78,682Z"/><path class="cls-11" d="M2831.83,710.79s-32.19,107.43-41.6,148.26c-3.74,16.22,27.8,32.59,40.61,35.11,13.84-13.6,40.81-56.74,33-167.25C2854.11,715.78,2831.83,710.79,2831.83,710.79Z"/><path class="cls-10" d="M342.6,1729.68c26,35.9,89.93,13.87,87.81,62.43-97.18-.62-137.57,0-137.57,0,.13-11.15,8.05-52.75,10.29-63.11Z"/><path class="cls-10" d="M640.93,1729.68c26,35.9,89.93,13.87,87.81,62.43-97.18-.62-137.57,0-137.57,0,.13-11.15,2.59-43.67,4.83-54Z"/><path class="cls-12" d="M589.4,864.53s79,44,118.13,81.53c-4.75,20.6,13.38,59.15,18.49,72.13-56.23,0-166.1-48.9-166.1-48.9Z"/><path class="cls-5" d="M567.61,1150.44l-131.24,69s107,202,168.58,264.5c10.71,10.89,72.08-6.05,76.49-19.08C697.54,1417.27,567.61,1150.44,567.61,1150.44Z"/><path class="cls-5" d="M578.51,1748l81.47-5.2c-.47-138.73,29.4-195.69,22.84-294.78-12.29-24.61-46.8-39-67-20.81C562.61,1465.85,576.41,1705.37,578.51,1748Z"/><path class="cls-13" d="M535.69,1187.53l-160.81-49.66s-27.12,222.33-20.35,324.48c1,15.23,80.81,27.37,87.22,15.19Z"/><path class="cls-13" d="M294.92,1739.32h70.26c38.88-120.07,76.57-261.78,76.57-261.78,2.76-22.21-12.44-47-28.69-53C310.68,1393.79,301.21,1707.85,294.92,1739.32Z"/><polygon id="v-2" class="cls-7" points="480.07 790.47 480.1 790.47 509.42 790.58 516.06 859.82 481.84 877.89 445.35 860.02 445.35 780.72 480.07 790.47"/><path class="cls-14" d="M486.22,793.86c-25,9.73-47-19.67-47-19.67-16.45,1.48-17.86-14.92-17.86-14.92-8.08-.36-20.14-5.81-20.63-20.92-.41-12.8,11.6-15.31,9.46-29.87-1.72-11.68-17.1-37.42,18.62-49,0,0-4.58-21.36,15.9-32,25.12-13.1,35.88,1.24,48.34,1.09,13.91-.17,38.92-19.48,50.42,9.85,0,0,18.79-4.4,30.89,7,11.28,10.59,10.78,28,6.94,35.33,0,0,16.3,1.23,23.41,14.52,4.77,8.91,4.24,22.16-3.68,30.58A28.46,28.46,0,0,1,590.4,733c-5.86,2.58-2,19.06-6.57,23.62a127.52,127.52,0,0,1-24.62,18.64Z"/><path class="cls-6" d="M434.4,757.89c6.42,48.14,48.36,86.05,86.16,81s57.16-51.14,50.74-99.27-42.28-83.06-80.09-78S428,709.76,434.4,757.89Z"/><path d="M552.22,757.8a6.63,6.63,0,1,0,3.87-8.54A6.63,6.63,0,0,0,552.22,757.8Z"/><path d="M501.1,760.51a7.18,7.18,0,1,0,4.19-9.25A7.17,7.17,0,0,0,501.1,760.51Z"/><path class="cls-7" d="M531.41,759.82c7,9,15.73,20.07,15.73,20.07s-2.54,10.51-15.94,12c5.45-2.9,10.69-7.26,7.65-14.6S531.41,759.82,531.41,759.82Z"/><path class="cls-14" d="M490.69,750.71a3.31,3.31,0,0,1-1.19-5.06c3.1-3.91,11.39-10.18,20.56-5.95a3.31,3.31,0,1,1-2.77,6c-6.79-3.13-12.55,4-12.61,4.06A3.32,3.32,0,0,1,490.69,750.71Z"/><path class="cls-14" d="M551.3,744.56a2.72,2.72,0,0,1-1.25-.71,2.75,2.75,0,0,1,0-3.9c.17-.17,4.17-4.16,9.73-3.8,3.79.25,7.24,2.38,10.25,6.35a2.76,2.76,0,0,1-4.4,3.33c-2-2.63-4.08-4-6.21-4.18a8,8,0,0,0-5.44,2.17A2.79,2.79,0,0,1,551.3,744.56Z"/><path class="cls-14" d="M578.51,690.26,492.12,645,414,713.4l27.42,61.89c-5.27-30.46,15.48-25.45,22.74-36.58,7.35-11.28,8-26.17,33.68-19.64,0,0,15.13-17.23,29-1.84,10.73,11.91,19.94,6.78,29.95,5,11.81-2.08,11.9,9.88,18.89,7.73Z"/><path class="cls-6" d="M444.71,753c8.27,7.87,9.77,19.74,3.33,26.51s-18.36,5.9-26.64-2-9.77-19.73-3.34-26.51S436.43,745.18,444.71,753Z"/><path class="cls-7" d="M437.25,776.33a2.46,2.46,0,0,0,.95-.64c3.89-4.24,4.72-9.36,2.22-13.69a12,12,0,0,0-12.67-5.79,2.5,2.5,0,1,0,1.09,4.87,7.13,7.13,0,0,1,7.26,3.42c1.39,2.41.83,5.19-1.58,7.81a2.5,2.5,0,0,0,2.73,4Z"/><path class="cls-1" d="M504.05,801.41a2.08,2.08,0,0,1,2.17-3.16,147.22,147.22,0,0,0,39.13,3.12,2.09,2.09,0,0,1,1.64,3.47c-3.72,4.25-11.2,10.57-22.38,9.68S507,806.2,504.05,801.41Z"/><g id="v"><path class="cls-11" d="M361.65,1192s55.65,6.79,113.13,7.17c57.49-.43,109.07-14.54,109.07-14.54s7.74-109.78,8.53-150.33c1.12-46.55-3-108.28-3-169.81,0,0-40.78-6.56-63.78-9.4-3.74-.46-7-.82-9.56-1,0,0-13.11,27.49-70.21,0a72,72,0,0,0-10.87,0c-24,1.43-62.63,10.48-62.63,10.48,0,61.36-2.48,121.5-1.65,168.06C368.15,1074.12,361.65,1192,361.65,1192Z"/></g><path class="cls-12" d="M435,854.05h0c4,6.63,9.59,11.64,17.52,15.63,12.55,6.33,29.61,9,40.11,8.2,8.31-.66,17.54-4,23.45-8.73,6.27-5,9-11.33,9.56-14-3.74-.46-7.58-1-10.13-1.26,0,0-12.54,27.71-69.64.22A72,72,0,0,0,435,854.05Z"/><path class="cls-12" d="M700.92,946.06S748.59,890.17,837,853.34c8.45,13.18,24.12,36.6,24.12,36.6S773.81,995.15,726,1018.19C722.23,1020,687.65,994.34,700.92,946.06Z"/><path class="cls-13" d="M897.23,880.77c-5.26-21.68-22-63.39-32.08-83.26-33.1-65-107-140-165.27-179.27-43.65-29.37-102.78-69.62-102.78-69.62-11-23-1.87-30.21-1.87-30.21-25.08,12.3-14.74,21.82-2.18,33.36l-.25.2,21.43,16.87C648,595.61,812.43,732.61,840.32,807c7.84,20.89,26.33,61.77,31.75,83.42,24.5,98-18.69,346.29-18.41,355.64.5,17,9.9,32.58,24.9,25.5,0,0-9.58-2.52-16.64-27,0,0,21.91-117.91,29.18-157.22C909.09,990,909.4,931,897.23,880.77Z"/><polygon class="cls-1" points="596.18 546.49 592.79 551.97 567.77 952.47 856.6 1258.2 870.43 1252.94 861.89 1244.63 852.76 1248.1 572.73 950.59 596.28 554.83 601.04 551.3 596.18 546.49"/><polygon class="cls-5" points="1043.5 758.31 478.37 995.73 476.31 990.79 1041.45 753.38 1043.5 758.31"/><polygon class="cls-15" points="476.31 990.79 459.35 978.97 528.12 950.37 553.62 958.65 476.31 990.79"/><polygon class="cls-15" points="478.37 995.73 474.79 1016.1 543.56 987.5 555.67 963.58 478.37 995.73"/><polygon class="cls-13" points="1055.13 750.58 1007.82 757.89 1018.99 762.72 1021.04 767.65 1019.71 778.5 1055.13 750.58"/><path class="cls-6" d="M875.9,855.51c-1.4,4.7,2.68,11,8.8,13.61.25-.21.46.1.46.1-.48.42-.51.94-.78,1.67-.67,4.06,2.08,9.09,6.4,10.76s8.79.23,9.71-4c.86-3.23-1-7.55-4.13-9.77a6.18,6.18,0,0,0,1.78-3.05c.86-3.23-1-7.55-4.32-10.59l.81-2.2c.92-4.27-2.27-9.91-7.45-12.81a5.47,5.47,0,0,0,1.78-3c.94-4.8-2.24-10.44-7.45-12.82s-10.42-.29-11.6,4.72a11.56,11.56,0,0,0,4.51,11.42,6.45,6.45,0,0,0-2,3.26c-.86,3.24,1,7.56,4.32,10.6Z"/><path class="cls-7" d="M857.18,848c1.71-12.38-5-19.13,4.94-24.38s2.3-11.87-9.31-7.8c-10.64,3.74-9.8,16.45-9.25,27.21-3.9,3.73-4.72,13-4.72,13l20.07,30.47,11.16-4.45S862.75,856.64,857.18,848Z"/><polygon class="cls-5" points="841.76 837.27 857.98 830.46 858.46 836.05 842.5 842.75 841.76 837.27"/><g id="c"><path class="cls-6" d="M540.71,1005.44c-5.61-12.92-10.83-14.23-10.83-32.68,0-8.5,5.06-16.86,9.79-23.49,6.72-9.39,21.73-8.78,26.7-5.78,6.48,3.9,8.63,7,3.17,8.35-5.63,1.36-14.31-1.27-11.2,2.92,1.17,1.59,2.14,4.66,13.42,1.15,12.5-5.27,16.6-27,23-24.71,5,1.76,3.17,16.39-9.9,30.2,3.37-1.79,9.18-2.63,10.14,3.24.44,2.75-2.12,5.39-7.29,8,6.77-1,8.71-1.77,10.31,2.48,1.15,5.11-.41,6.68-3.68,8,3.78-.76,5.44-2.07,6.31,1.76,1.4,6.15-8,11.67-26.72,17.42C568.56,1003.9,540.71,1005.44,540.71,1005.44Z"/><polygon class="cls-6" points="523.27 1020.07 546.11 1001.26 532.51 969.41 506.49 989.93 523.27 1020.07"/><path id="c-2" data-name="c" class="cls-12" d="M353,1026.16c52.46-16.2,160.1-45,160.1-45,13.37,19,19.19,35,19.19,35-51.63,58.21-196.52,107.53-245.06,85.61-41.6-18.78-5.21-204.61,85.08-237.18l2.65.25C401.22,909.14,353,1026.16,353,1026.16Z"/></g><polygon class="cls-16" points="1424.08 876.62 1597.06 790.85 1597.06 861.6 1459.63 962.09 1424.08 876.62"/><path class="cls-17" d="M1299.94,1686.06c27.49,37.92,95,14.65,92.75,65.94-102.65-.66-145.3,0-145.3,0,.13-11.78,2.16-39.74,4.53-50.69Z"/><path class="cls-17" d="M1612.25,1688.75c27.48,37.92,95,14.65,92.74,65.94-102.64-.66-145.3,0-145.3,0,.14-11.78,2.17-39.74,4.53-50.69Z"/><path class="cls-9" d="M1479.16,1121.05,1364.35,1171s83.77,210.85,130.53,272.12c8.13,10.66,71.08-7.52,69.53-20.64C1556.71,1357.6,1479.16,1121.05,1479.16,1121.05Z"/><path class="cls-9" d="M1621.2,1698.11l-57,5.89c-17.25-55.1-114.8-221-60.56-287.32,13.32-13.89,40.46-15.14,53.59-4.06,7.46,5.3,8.5,14.52,11,23.16C1591.6,1519.82,1603,1601.15,1621.2,1698.11Z"/><path class="cls-18" d="M1451.11,1133.47s-60.75-94.3-111-29.92-49.74,257.88-43.09,342.74c1.15,14.78,53.58,31,62.43,23.23C1391.72,1441.22,1451.11,1133.47,1451.11,1133.47Z"/><path class="cls-18" d="M1320.06,1698.11l-68.14,3.2c6.11-49.32,6.4-201.58,56.12-273.83,4.09-5.94,6.07-12.54,9.29-17.77,7-11.13,66.18,8.86,61.88,21C1365.29,1476.14,1359.8,1572.38,1320.06,1698.11Z"/><path class="cls-14" d="M1342.82,679.2c-31.79-33.4-113.24-1.92-107.36,46.77s18.55,78.29-40.85,89.37c-47.31,8.81-81.1,64.55-60.65,128.76,26.17,82.15,72.92,32,72.65,76.83s4.33,88.65,63.48,71.29,97.2-83.3,69.06-147.9,26.59-71.55,28.52-108.54C1370.41,783.19,1342.82,679.2,1342.82,679.2Z"/><path class="cls-7" d="M1396.36,889.35s4,26-11,29.66-48.68-21.33-48.68-21.33c.79-7.43-.49-16.85-2.86-26.81-.66-2.76-1.4-5.55-2.2-8.36-8-27.9-22.14-56.87-22.14-56.87L1372.87,820s7.57,23.24,14.37,43.38c.84,2.49,1.67,4.93,2.47,7.27C1392.46,878.7,1394.89,885.6,1396.36,889.35Z"/><path class="cls-19" d="M1478.4,1063c-5.7-32,16.72-87.88-2.32-117.77-14.3-24.22-36.66-65.61-58.07-65.87-8.69-.1-14.75-4.7-26.06-2.21,0,0,9.43,26.92-4,30.46-25.94,6.81-51.57-23.31-51.57-23.31-14.43,1.17-58.49,24.59-58.53,37.24,7.63,41.83,34.53,89.41,53.74,132.68,6.18,22.68,4.19,42.26,4.21,55.72-1.79,14.34-9.06,43.67-8.57,46.61,0,0,110.2,18.56,166.17-26.69C1493.35,1129.87,1482.26,1084.6,1478.4,1063Z"/><path class="cls-20" d="M1392,877.16s51.72,34.05,67.68,84.93,22.92,175.35,22.92,175.35l17.29-12.15s-5.15-125.63-19-181.62c-41.73-63.69-56.72-67-56.72-67Z"/><path class="cls-6" d="M1304.53,786.19c9.3,46.73,46.59,78.7,83.3,71.39s58.91-51.11,49.61-97.84-46.59-78.7-83.3-71.39S1295.22,739.46,1304.53,786.19Z"/><path d="M1418.85,779.73a6.51,6.51,0,1,0,3.25-8.61A6.49,6.49,0,0,0,1418.85,779.73Z"/><path d="M1370,780.52a7,7,0,1,0,3.53-9.32A7,7,0,0,0,1370,780.52Z"/><path class="cls-7" d="M1408.19,785.52c3.43,3.81,6.41,7.71,9.74,10a2.59,2.59,0,0,1,.71,3.47c-2.94,4.77-11.13,8.48-16.14,10.38a.69.69,0,0,1-.67-1.18c5.14-4.16,7.4-7.29,8.36-9a3.08,3.08,0,0,0,.1-2.79c-.94-2-2.81-6.24-4-9.69A1.16,1.16,0,0,1,1408.19,785.52Z"/><path class="cls-21" d="M1363.75,769.12a3.52,3.52,0,0,1-3.15-6.08c9.25-8,19.08-6.17,19.49-6.09a3.52,3.52,0,0,1-1.36,6.91c-.34-.06-7-1.16-13.52,4.5A3.48,3.48,0,0,1,1363.75,769.12Z"/><path class="cls-21" d="M1434.88,771.85a3.51,3.51,0,0,1-3.88-1.64,9.19,9.19,0,0,0-7.17-4.6,3.53,3.53,0,0,1,.16-7.05,16.34,16.34,0,0,1,13.09,8.1,3.52,3.52,0,0,1-1.26,4.82A3.41,3.41,0,0,1,1434.88,771.85Z"/><path class="cls-1" d="M1376.13,823.9a1.83,1.83,0,0,1,1.86-2.81,129.71,129.71,0,0,0,34.36,2.11,1.83,1.83,0,0,1,1.5,3c-3.19,3.8-9.65,9.45-19.47,8.85S1378.83,828.05,1376.13,823.9Z"/><path class="cls-21" d="M1305.27,799.8c27.72-2.63,50.2-39.81,66.23-57.14,20.64-6.55,39.85-32,42-40.25-7.35-27.59-31.66-39.88-88.22-25.63C1290.43,685.55,1244.82,750.44,1305.27,799.8Z"/><path class="cls-21" d="M1351.27,743.23s57.16-1.76,86.17,16.51c22.25-27.66-2.62-49.71-29.23-59.44C1388.82,706.69,1351.27,743.23,1351.27,743.23Z"/><path class="cls-6" d="M1322,787.16c8.58,7.22,10.74,18.75,4.83,25.77s-17.64,6.85-26.21-.37-10.73-18.75-4.83-25.76S1313.44,779.94,1322,787.16Z"/><path class="cls-7" d="M1316.08,810.41a2.36,2.36,0,0,0,.89-.69c3.57-4.38,4.08-9.44,1.38-13.53a11.82,11.82,0,0,0-12.76-4.94A2.45,2.45,0,0,0,1307,796a7,7,0,0,1,7.31,2.93c1.51,2.28,1.12,5-1.09,7.74a2.45,2.45,0,0,0,2.91,3.78Z"/><path class="cls-20" d="M1290.94,905s31.47-21,45.07-23.08c19.83,27.19,38.09,44.59,52.73,91.52s19.48,117.35,46.92,184.88c-26.59,12.9-94.23,24.6-128.14,10,7.25-32.09,12-85.68.53-130.38S1290.94,905,1290.94,905Z"/><path class="cls-16" d="M1334,871.57l-17.28,17.28,29.57,35.07,26.64,10.9S1353.21,899.07,1334,871.57Z"/><polygon class="cls-16" points="1388.92 868.33 1412.27 875.24 1433.65 897.85 1435.6 918.23 1391.95 877.16 1388.92 868.33"/><path class="cls-10" d="M2316.46,1685.41c-28,38.67-96.83,14.94-94.56,67.23,104.65-.67,148.14,0,148.14,0-.13-12-2.2-40.51-4.62-51.67Z"/><path class="cls-10" d="M2070.39,1685.41c-28,38.67-96.83,14.94-94.56,67.23,104.65-.67,148.14,0,148.14,0-.13-12-2.2-40.51-4.62-51.67Z"/><polygon class="cls-6" points="1954.98 1108.63 1968.83 1104.03 1961.84 1073.02 1939.55 1080.76 1954.98 1108.63"/><path class="cls-22" d="M2142.77,878.35s36.88,94.84-11.39,83.93c-30.68-6.93-156.27-71.66-172.82-94.28-9.49-13,44.07-54,47.86-66.13C2077.22,836.39,2121.83,858.44,2142.77,878.35Z"/><path class="cls-17" d="M2160.59,1154.38l126.11,66.25s-102.87,194.08-162,254.17c-10.3,10.46-69.26-5.81-73.51-18.34C2035.74,1410.79,2160.59,1154.38,2160.59,1154.38Z"/><path class="cls-17" d="M2061.35,1698.56,2124,1711.3c5.62-56.75,25.44-189.73,12.86-249.93h0q-1.23-5.88-2.7-11.3c-4.84-13.16-11.93-23.08-20-29.84-21.33-17.82-49.69-13.87-62.55,9.74-.13.21-.25.43-.37.66q-.24,2.28-.45,4.62a.49.49,0,0,0,0,.12c-.35,4-.62,8-.82,12.2h0v0C2047.59,1495.74,2059.52,1583.49,2061.35,1698.56Z"/><path class="cls-13" d="M2188.41,1184.33l151-36.55s6.37,245.26-12,327.52c-3.21,14.32-56.34,30.52-66.56,22.13C2223.49,1466.83,2188.41,1184.33,2188.41,1184.33Z"/><path class="cls-13" d="M2242.44,1463.57c0,.1,0,.21,0,.32,11.81,44.44,25.7,114.81,62.53,232.83l65,7.38c-3.47-54-13.29-185.8-39.88-243.88a141.54,141.54,0,0,0-9.29-17.31C2293.09,1400,2237.19,1418.64,2242.44,1463.57Z"/><g id="v-2-2" data-name="v"><path id="h-5" class="cls-5" d="M2288.47,857.26,2172,856.57l-44.23,10.57c-12.36,65.63,7.18,315.39,7.18,315.39s33.83,48.52,108.74,39c61.54-22.25,104.43-6.63,104.43-6.63,16.06-75.53,7.91-166.73-1.22-259.81C2341.13,896,2317.3,874,2288.47,857.26Z"/></g><path id="v-2-3" data-name="v-2" class="cls-7" d="M2222.15,800.66h0l-27.85-1.88-11,65.31s-2,15.56,25.88,22c23.93,5.58,41.25-17.09,41.25-17.09l-.91-66.34Z"/><path class="cls-6" d="M2262.65,755.16c-4.38,48-33.08,84.45-70.77,81S2127.18,791,2131.56,743s38.48-84.11,76.18-80.67S2267,707.16,2262.65,755.16Z"/><path class="cls-7" d="M2176.51,758c-6.53,9.27-14.77,20.55-14.77,20.55s3,10.32,16.3,11.2c-5.53-2.65-10.91-6.76-8.19-14.17S2176.51,758,2176.51,758Z"/><path class="cls-23" d="M2282,716.49c2.2-45.65-40.24-58.86-40.24-58.86s9.24-3.68,6.4-17.34a36.58,36.58,0,0,1-22.2,6.1c-52.2-3-84.59,6.88-78.57,27,2.13,7.18-31.44,12.28-14.45,59.78,3-5.81,5-27.26,14.92-32.37s4.62,11.76,27.48,8.23c23.06-3.56,37.75-13.8,55-5.33,13.84,7.74,33,62.42,32.38,66.23C2264.09,761.22,2281,736.55,2282,716.49Z"/><path class="cls-23" d="M2132.26,769.12s5.5,25.75,11.44,32.45c.77-11.21,25.56-5.19,36.24-4.7,19.34.9,38.21-17,45.74,8,32.54,2,31.32-54,31.32-54,6.69,42.6-5.46,99.62-69,101.86C2147.05,854.22,2126.78,808.81,2132.26,769.12Z"/><path class="cls-23" d="M2137,745.56a3.29,3.29,0,0,0,2.88-1.54c1.76-2.81,3.86-4.46,6.22-4.92,4.08-.79,8,2,8.07,2a3.29,3.29,0,0,0,3.9-5.3c-.25-.19-6.22-4.53-13.15-3.22-4.25.8-7.82,3.45-10.61,7.89a3.3,3.3,0,0,0,1,4.54A3.41,3.41,0,0,0,2137,745.56Z"/><path class="cls-23" d="M2215.25,743.44a3.24,3.24,0,0,0,2-.8,3.29,3.29,0,0,0,.33-4.64c-4.53-5.23-9.42-8-14.55-8.18a16.11,16.11,0,0,0-11.18,4.16,3.29,3.29,0,0,0,4.61,4.7,9.45,9.45,0,0,1,6.4-2.28c3.21.16,6.48,2.14,9.74,5.91A3.27,3.27,0,0,0,2215.25,743.44Z"/><path class="cls-6" d="M2257.64,751.12c-7.89,8.14-8.88,20-2.21,26.42s18.45,5.08,26.33-3.06,8.88-20,2.22-26.42S2265.52,743,2257.64,751.12Z"/><path class="cls-7" d="M2266,773.9a2.47,2.47,0,0,1-1-.6c-4-4-5.08-9.08-2.77-13.48a11.92,11.92,0,0,1,12.32-6.27,2.48,2.48,0,1,1-.88,4.88,7.08,7.08,0,0,0-7.06,3.69c-1.28,2.45-.6,5.18,1.9,7.68a2.48,2.48,0,0,1,0,3.5A2.45,2.45,0,0,1,2266,773.9Z"/><path d="M2193.63,758.06a7.2,7.2,0,1,1,10,1.87A7.2,7.2,0,0,1,2193.63,758.06Z"/><path d="M2152.58,759.28a6.61,6.61,0,1,1,1.72-9.19A6.62,6.62,0,0,1,2152.58,759.28Z"/><path class="cls-1" d="M2163.38,809.07a1.83,1.83,0,0,1,1.56-3,129.85,129.85,0,0,0,34.4-1.39,1.83,1.83,0,0,1,1.8,2.84c-2.79,4.1-8.64,10.38-18.47,10.78S2166.49,812.93,2163.38,809.07Z"/><circle class="cls-11" cx="1811.65" cy="901.57" r="254.94" transform="translate(-106.88 1545.09) rotate(-45)"/><circle class="cls-1" cx="1811.65" cy="901.57" r="197.43" transform="translate(755.5 2627.67) rotate(-85)"/><circle class="cls-11" cx="1811.65" cy="901.57" r="147.78" transform="translate(695.48 2589.49) rotate(-82.98)"/><path class="cls-1" d="M1903.76,901.57a92.11,92.11,0,1,1-92.11-92.12A92.11,92.11,0,0,1,1903.76,901.57Z"/><path class="cls-11" d="M1850.6,901.57a39,39,0,1,1-38.95-39A39,39,0,0,1,1850.6,901.57Z"/><path class="cls-16" d="M1270.27,938.6c-2.38,48.72,71.32,155.18,120.82,177.77,27.66-15.16,32.57-64.51,32.57-64.51s-66.79-74.63-77.8-103.53c-4.43-11.64-21.76-46.15-39.9-46.76C1278.39,900.63,1270.87,926.48,1270.27,938.6Z"/><path class="cls-6" d="M1585.31,1062.55s-110.64-4.24-132.35-6.57c-22.73-2.45-34.29,32.89-33,54.75,64.79,3.88,124.72-5.27,177.11-23.18C1594.29,1075.26,1585.31,1062.55,1585.31,1062.55Z"/><path class="cls-6" d="M1592.07,1089.14c-5-6.22-10.52-18.5-12.42-24.35-1.14-3.51,4.89-11.77,8.84-15.85-1.62-10.49-3.81-15.27,1.76-20.11,0,0,8.52,11.94,12.23,14.75,3.13-.21,6.42-1.48,11.6-4.64,11.32-6.9,20.44-20,26-15.35,3.68,3-14,17.19-21.1,22.88,10.43-4.63,20.83-18.93,25.84-15.66,6.06,4-11.67,19.08-19.15,23.17,12.52-2.22,18.76-17.33,22.66-14.74,4.25,3.15-2.89,17.22-16.35,22,12.67-2.24,17.16-13.75,20.25-10.46s-4.7,15.89-21.85,25.37C1618.92,1082.52,1592.07,1089.14,1592.07,1089.14Z"/><path class="cls-24" d="M1416.25,1042.52c1.31-3.77,5.59,4.32,10.16,4.77s8.43-2.47,8.68,2.74,7.78,49.69-16.09,73.24c-6.66.87-30.08.08-40.24-13C1393.24,1100.48,1416.25,1042.52,1416.25,1042.52Z"/><path class="cls-22" d="M2355.59,882.7c12,50.86-64.09,190.36-111.85,223.8-32.1-10.6-41.84-57.46-41.84-57.46s39-104.55,45-137.14c2.41-13.14,14.23-56.43,33.23-60.61C2309,844.94,2352.61,870,2355.59,882.7Z"/><path class="cls-6" d="M2063.4,1055.71c2.89-9,14.33-27.51,9.95-33.33-2.38-3.16-11.4-6-16.07-9.84-3.09-6.48-2.1-10.18-4.08-18.14-1.83-7.34-3.19-9.09-6-8.36l-7,17.9c-2.12,4.48-1.87,7-21.64,1.52-15.12-4.23-28.26-12.83-32.54-5.36-2.81,4.91,19.15,13.24,29.43,16.58-13.5-.78-27.48-12.3-31.67-6.59-5.06,6.9,17.71,14.49,27.69,15.92-14.79,2.75-24.82-9.61-28.07-5.12-3.4,5.26,8.74,16.48,25.66,16.18-15,2.79-23.11-6.68-25.17-1.75-2.14,5.13,20.81,14.44,44,15.56A230.11,230.11,0,0,1,2063.4,1055.71Z"/><path class="cls-22" d="M2065.8,1016.68s122.6,26.45,147.11,29.27c25.66,3,37.66,36.76,30.83,60.55-78.34,12.31-134-18-187.31-50.73C2062.53,1042.92,2065.8,1016.68,2065.8,1016.68Z"/><path class="cls-25" d="M1711.49,678c4.81.86,10.64-3.89,12.48-10.25-.23-.22,0-.46,0-.46.47.43,1,.4,1.75.58,4.09.21,8.76-3.09,9.93-7.55s-.78-8.73-5.11-9.16c-3.3-.49-7.37,1.85-9.21,5.2a6.11,6.11,0,0,0-3.22-1.42c-3.3-.49-7.37,1.84-10,5.48l-2.27-.56c-4.33-.42-9.56,3.37-11.84,8.83a5.39,5.39,0,0,0-3.22-1.42c-4.85-.39-10.08,3.4-11.84,8.83s.88,10.34,6,11a11.56,11.56,0,0,0,10.81-5.76,6.32,6.32,0,0,0,3.45,1.64c3.3.49,7.37-1.85,10-5.48Z"/><path class="cls-25" d="M1894.63,647.38c4.72-1.28,10.94,2.93,13.35,9.1-.22.23.08.46.08.46.44-.48,1-.49,1.69-.74,4.06-.57,9,2.29,10.57,6.63s0,8.77-4.27,9.58c-3.25.78-7.5-1.18-9.63-4.35a6.26,6.26,0,0,1-3.08,1.7c-3.25.78-7.51-1.18-10.46-4.56l-2.21.75c-4.28.81-9.82-2.5-12.58-7.73a5.38,5.38,0,0,1-3.08,1.7c-4.8.83-10.34-2.48-12.59-7.73s0-10.38,5-11.44a11.53,11.53,0,0,1,11.27,4.77,6.31,6.31,0,0,1,3.3-1.94c3.24-.78,7.5,1.18,10.45,4.56Z"/><polygon class="cls-5" points="1814.74 900.62 1450.23 558.77 1453.37 555.45 1817.88 897.3 1814.74 900.62"/><polygon class="cls-20" points="1453.37 555.45 1456.7 538.05 1503.07 581.87 1505.49 604.7 1453.37 555.45"/><polygon class="cls-20" points="1450.23 558.77 1433.05 563.07 1479.41 606.9 1502.34 608.03 1450.23 558.77"/><polygon class="cls-13" points="1824.84 907.02 1807.74 866.04 1802.74 882.98 1799.59 886.31 1782.95 891.41 1824.84 907.02"/><path class="cls-26" d="M1211.36,1350.33a34.07,34.07,0,1,1-34.07-34.07A34.07,34.07,0,0,1,1211.36,1350.33Z"/><path class="cls-26" d="M875.43,1531.11a20.82,20.82,0,1,1-20.82-20.82A20.82,20.82,0,0,1,875.43,1531.11Z"/><path class="cls-26" d="M1769.83,1252.7a20.82,20.82,0,1,1-20.82-20.82A20.82,20.82,0,0,1,1769.83,1252.7Z"/><path class="cls-26" d="M816.54,531.87a20.82,20.82,0,1,1-20.82-20.82A20.82,20.82,0,0,1,816.54,531.87Z"/><path class="cls-26" d="M2793.86,1199.21a20.82,20.82,0,1,1-20.82-20.82A20.82,20.82,0,0,1,2793.86,1199.21Z"/><path class="cls-26" d="M813.58,1422.44a34.06,34.06,0,1,0,34,34.06A34.1,34.1,0,0,0,813.58,1422.44Zm0,52.66a18.6,18.6,0,1,1,18.6-18.6A18.63,18.63,0,0,1,813.58,1475.1Z"/><path class="cls-26" d="M1125.18,267.87a34.06,34.06,0,1,0,34,34.06A34.1,34.1,0,0,0,1125.18,267.87Zm0,52.66a18.6,18.6,0,1,1,18.6-18.6A18.63,18.63,0,0,1,1125.18,320.53Z"/><path class="cls-26" d="M2095.6,489.13a34.06,34.06,0,1,0,34.05,34.06A34.1,34.1,0,0,0,2095.6,489.13Zm0,52.66a18.6,18.6,0,1,1,18.6-18.6A18.63,18.63,0,0,1,2095.6,541.79Z"/><path class="cls-26" d="M1961.8,1465.67a34.06,34.06,0,1,0,34,34.06A34.1,34.1,0,0,0,1961.8,1465.67Zm0,52.66a18.6,18.6,0,1,1,18.6-18.6A18.63,18.63,0,0,1,1961.8,1518.33Z"/></svg>