<svg xmlns="http://www.w3.org/2000/svg" xmlns:xlink="http://www.w3.org/1999/xlink" viewBox="0 0 2798.67 2800"><defs><style>.cls-1{mask:url(#mask);filter:url(#luminosity-noclip-2);}.cls-2{mix-blend-mode:multiply;fill:url(#linear-gradient);}.cls-3{fill:url(#linear-gradient-2);}.cls-4{fill:#bdd0fb;}.cls-10,.cls-5,.cls-7,.cls-8{fill:#fff;}.cls-5{opacity:0.5;}.cls-6{fill:#91b3fa;}.cls-7{opacity:0.6;}.cls-9{opacity:0.9;}.cls-10{fill-rule:evenodd;}.cls-11{fill:url(#linear-gradient-3);}.cls-12{fill:url(#linear-gradient-4);}.cls-13{fill:url(#linear-gradient-5);}.cls-14{fill:url(#linear-gradient-6);}.cls-15{fill:url(#linear-gradient-7);}.cls-16{fill:url(#linear-gradient-8);}.cls-17{fill:url(#linear-gradient-9);}.cls-18{fill:url(#linear-gradient-10);}.cls-19{mask:url(#mask-2);}.cls-20{fill:url(#linear-gradient-11);}.cls-21{fill:url(#linear-gradient-12);}.cls-22{fill:url(#linear-gradient-13);}.cls-23{fill:url(#linear-gradient-14);}.cls-24{fill:url(#linear-gradient-15);}.cls-25{fill:url(#linear-gradient-16);}.cls-26{fill:url(#linear-gradient-17);}.cls-27{fill:url(#linear-gradient-18);}.cls-28{fill:url(#linear-gradient-19);}.cls-29{fill:url(#linear-gradient-20);}.cls-30{fill:url(#linear-gradient-21);}.cls-31{fill:url(#linear-gradient-22);}.cls-32{fill:url(#linear-gradient-23);}.cls-33{fill:url(#linear-gradient-24);}.cls-34{fill:url(#linear-gradient-25);}.cls-35{fill:url(#linear-gradient-26);}.cls-36{fill:url(#linear-gradient-27);}.cls-37{fill:url(#linear-gradient-28);}.cls-38{fill:url(#linear-gradient-29);}.cls-39{fill:url(#linear-gradient-30);}.cls-40{filter:url(#luminosity-noclip);}</style><filter id="luminosity-noclip" x="1081.64" y="-9592" width="312.13" height="32766" filterUnits="userSpaceOnUse" color-interpolation-filters="sRGB"><feFlood flood-color="#fff" result="bg"/><feBlend in="SourceGraphic" in2="bg"/></filter><mask id="mask" x="1081.64" y="-9592" width="312.13" height="32766" maskUnits="userSpaceOnUse"><g class="cls-40"/></mask><linearGradient id="linear-gradient" x1="1081.64" y1="2218.1" x2="1393.77" y2="2218.1" gradientUnits="userSpaceOnUse"><stop offset="0" stop-color="#fff"/><stop offset="1"/></linearGradient><linearGradient id="linear-gradient-2" x1="3093.9" y1="3551.29" x2="654.04" y2="521.13" gradientUnits="userSpaceOnUse"><stop offset="0" stop-color="#dae3fe"/><stop offset="1" stop-color="#e9effd"/></linearGradient><linearGradient id="linear-gradient-3" x1="1207.42" y1="2745.26" x2="1230.82" y2="1896" gradientUnits="userSpaceOnUse"><stop offset="0" stop-color="#4f52ff"/><stop offset="1" stop-color="#4042e2"/></linearGradient><linearGradient id="linear-gradient-4" x1="847.17" y1="1639.34" x2="836.16" y2="1372.36" gradientUnits="userSpaceOnUse"><stop offset="0" stop-color="#09005d"/><stop offset="1" stop-color="#1a0f91"/></linearGradient><linearGradient id="linear-gradient-5" x1="833.23" y1="1238.5" x2="888.28" y2="2003.67" xlink:href="#linear-gradient-4"/><linearGradient id="linear-gradient-6" x1="1591" y1="1608.67" x2="1579.99" y2="1341.68" xlink:href="#linear-gradient-4"/><linearGradient id="linear-gradient-7" x1="1575.06" y1="1185.13" x2="1630.11" y2="1950.3" xlink:href="#linear-gradient-4"/><linearGradient id="linear-gradient-8" x1="1269.51" y1="812.51" x2="1195.19" y2="1357.5" xlink:href="#linear-gradient-3"/><linearGradient id="linear-gradient-9" x1="1291.93" y1="1236.94" x2="1019.43" y2="3780.18" xlink:href="#linear-gradient-3"/><linearGradient id="linear-gradient-10" x1="1032.65" y1="2218.22" x2="1442.76" y2="2218.22" xlink:href="#linear-gradient-4"/><filter id="luminosity-noclip-2" x="1081.64" y="2083.96" width="312.13" height="268.27" filterUnits="userSpaceOnUse" color-interpolation-filters="sRGB"><feFlood flood-color="#fff" result="bg"/><feBlend in="SourceGraphic" in2="bg"/></filter><mask id="mask-2" x="1081.64" y="2083.96" width="312.13" height="268.27" maskUnits="userSpaceOnUse"><g class="cls-1"><path class="cls-2" d="M1331.2,2352.24H1149.61A46.91,46.91,0,0,1,1103,2311l-21-174.74a46.84,46.84,0,0,1,46.65-52.32h218.15a46.86,46.86,0,0,1,46.8,50.91L1378,2309.6A46.91,46.91,0,0,1,1331.2,2352.24Z"/></g></mask><linearGradient id="linear-gradient-11" x1="407.49" y1="3440.51" x2="1325.24" y2="2076.42" xlink:href="#linear-gradient-4"/><linearGradient id="linear-gradient-12" x1="-1139.61" y1="3382.78" x2="-1122.89" y2="3800.72" gradientTransform="matrix(-1, 0, 0, 1, 1053.2, 0)" xlink:href="#linear-gradient-4"/><linearGradient id="linear-gradient-13" x1="-1162.57" y1="2788.34" x2="-1162.57" y2="1855.5" gradientTransform="matrix(-1, 0, 0, 1, 1053.2, 0)" xlink:href="#linear-gradient-4"/><linearGradient id="linear-gradient-14" x1="-1621.92" y1="3402.07" x2="-1605.21" y2="3820.01" gradientTransform="matrix(-1, 0, 0, 1, 1053.2, 0)" xlink:href="#linear-gradient-4"/><linearGradient id="linear-gradient-15" x1="-1648.58" y1="2788.34" x2="-1648.58" y2="1855.49" gradientTransform="matrix(-1, 0, 0, 1, 1053.2, 0)" xlink:href="#linear-gradient-4"/><linearGradient id="linear-gradient-16" x1="-1655.56" y1="2660.08" x2="-1582.81" y2="2660.08" gradientTransform="matrix(-1, 0, 0, 1, 1053.2, 0)" gradientUnits="userSpaceOnUse"><stop offset="0" stop-color="#febbba"/><stop offset="1" stop-color="#ff928e"/></linearGradient><linearGradient id="linear-gradient-17" x1="-1270.13" y1="2655.32" x2="-1209.49" y2="2655.32" xlink:href="#linear-gradient-16"/><linearGradient id="linear-gradient-18" x1="2707.97" y1="1055.88" x2="2415.53" y2="2277.63" xlink:href="#linear-gradient-4"/><linearGradient id="linear-gradient-19" x1="-1119.33" y1="1723.04" x2="-1367.52" y2="2043.91" gradientTransform="matrix(-1, 0, 0, 1, 1053.2, 0)" gradientUnits="userSpaceOnUse"><stop offset="0" stop-color="#cb236d"/><stop offset="1" stop-color="#4c246d"/></linearGradient><linearGradient id="linear-gradient-20" x1="2000.01" y1="5045.84" x2="2351.91" y2="5521.38" gradientTransform="matrix(-0.99, -0.11, -0.11, 0.99, 1445.54, 13.76)" xlink:href="#linear-gradient-4"/><linearGradient id="linear-gradient-21" x1="-866.13" y1="1028.07" x2="-837.77" y2="853.17" gradientTransform="matrix(-0.99, -0.11, -0.11, 0.99, 1445.54, 13.76)" xlink:href="#linear-gradient-16"/><linearGradient id="linear-gradient-22" x1="-772.6" y1="741.43" x2="-965.83" y2="889.28" gradientTransform="matrix(-0.99, -0.11, -0.11, 0.99, 1445.54, 13.76)" xlink:href="#linear-gradient-16"/><linearGradient id="linear-gradient-23" x1="-908.36" y1="624.71" x2="-733.38" y2="850" gradientTransform="matrix(-0.99, -0.11, -0.11, 0.99, 1445.54, 13.76)" xlink:href="#linear-gradient-4"/><linearGradient id="linear-gradient-24" x1="-796.57" y1="710.11" x2="-989.8" y2="857.96" gradientTransform="matrix(-0.99, -0.11, -0.11, 0.99, 1445.54, 13.76)" xlink:href="#linear-gradient-16"/><linearGradient id="linear-gradient-25" x1="4112.77" y1="3909.92" x2="2865.14" y2="5547.83" gradientTransform="translate(-2797.19 4172.36) rotate(-79.31)" gradientUnits="userSpaceOnUse"><stop offset="0" stop-color="#ff928e"/><stop offset="1" stop-color="#fe7062"/></linearGradient><linearGradient id="linear-gradient-26" x1="3748.31" y1="4442.76" x2="2927.17" y2="4483.28" gradientTransform="translate(-2797.19 4172.36) rotate(-79.31)" xlink:href="#linear-gradient-2"/><linearGradient id="linear-gradient-27" x1="2338.27" y1="1549.95" x2="1425.19" y2="2570.03" gradientTransform="matrix(1, 0, 0, 1, 0, 0)" xlink:href="#linear-gradient-25"/><linearGradient id="linear-gradient-28" x1="2045.09" y1="1287.52" x2="1132.01" y2="2307.6" gradientTransform="matrix(1, 0, 0, 1, 0, 0)" xlink:href="#linear-gradient-25"/><linearGradient id="linear-gradient-29" x1="1810.33" y1="5186.68" x2="2162.25" y2="5662.25" gradientTransform="matrix(-0.99, -0.11, -0.11, 0.99, 1445.54, 13.76)" xlink:href="#linear-gradient-4"/><linearGradient id="linear-gradient-30" x1="2581.86" y1="1569.54" x2="3056.64" y2="813.9" gradientTransform="matrix(1, 0, 0, 1, 0, 0)" xlink:href="#linear-gradient-16"/></defs><g id="Illustration"><path class="cls-3" d="M2422.68,2356.3c-56,59-109.07,97-151,127.11-492.48,353.36-1075.21,250.36-1199,225.2-182.89-37.14-536.39-108.94-792-409.5C-106,1844.4-45.76,1128,254.17,655.1,309,568.6,598.82,88.5,1187.83,11.51c356.46-46.6,772,47.38,1072.88,299.48C2892.34,840.17,2847.37,1909.2,2422.68,2356.3Z"/><path class="cls-4" d="M1,805.75c-4.3-8.43,6.83-17.47,16.07-13.12,93.87,44.23,328.63,188,363.42,531.68,43.65,431.15,181.55,558.48,329.48,620.46,0,0-182.56-1.37-328.6-129.07C22.74,1502.16,77.44,955.65,1,805.75Z"/><path class="cls-5" d="M92.51,921.26c21.2,44,41.36,88.36,59.6,133.44q27.75,67.47,50.64,136.55c15,46.1,29,92.49,40.72,139.47,11.95,46.92,21.54,94.38,31,142.07,9.74,47.6,19.25,95.61,34.46,142.58s37,92.56,68,132.79c7.75,10,15.74,19.94,24.36,29.31,8.41,9.53,17.33,18.7,26.45,27.72a524.13,524.13,0,0,0,59.4,50.15c42.61,30.65,91,55.25,142.05,73.56,5.38,1.93,11.82-.45,14.39-5.32s.37-10.17-4.81-12.19l0,0c-12.26-4.77-24.43-9.66-36.28-15-6-2.6-11.8-5.44-17.68-8.17-5.74-2.93-11.63-5.66-17.25-8.76A523,523,0,0,1,397,1735.79a424.26,424.26,0,0,1-38.47-61,466.77,466.77,0,0,1-27.59-66.19c-15.18-45.49-25-92.92-35.17-140.43S274.89,1373,262,1326q-9.56-35.33-20.58-70.23c-3.59-11.65-7.45-23.23-11.28-34.81s-8-23.06-12.13-34.54q-25-68.83-54.91-135.86C142.91,1006,121.34,962,97.81,918.91a2.94,2.94,0,0,0-3.84-1A2.55,2.55,0,0,0,92.51,921.26Z"/><path class="cls-6" d="M429.37,1521.93a20.29,20.29,0,0,1-33.6,2.44c-49.14-62.49-172.1-251.73-111.68-519.43,51-226.06,57.21-353.49,56-411.54-.26-12.27,15.3-17.73,22.8-8C445.57,692.67,686.38,1067.52,429.37,1521.93Z"/><path class="cls-5" d="M410.11,1518.8a5.64,5.64,0,0,1-7.77-3.88c-.79-3.43-78.17-346.87-21.42-664.4a5.62,5.62,0,1,1,11.07,2c-56.33,315.22,20.53,656.49,21.31,659.9A5.62,5.62,0,0,1,410.11,1518.8Z"/><path class="cls-6" d="M2042.27,2429.78H505.75V232c0-77.3,58.71-139.21,129.51-136.56L2086.34,117.1c74,1.1,132.89,68,130.87,148.76l-50.62,2031.9C2164.76,2371.25,2109.64,2429.78,2042.27,2429.78Z"/><path class="cls-7" d="M2014.93,2096.37H529.62V268c0-64.31,56.76-115.81,125.2-113.61l1402.72,18c71.53.92,128.45,56.6,126.51,123.76l-48.94,1690.44C2133.34,2047.67,2080.05,2096.37,2014.93,2096.37Z"/><path class="cls-6" d="M531.64,298.36l1657.41,12.95V231.7c-2.22-33.12-34.83-77.42-85.5-77.42L607.05,135.51c-35.67-.4-77.82,49.58-77.12,87.9Z"/><circle class="cls-7" cx="611.15" cy="214.24" r="23.15" transform="translate(27.51 494.9) rotate(-45)"/><circle class="cls-7" cx="703.76" cy="216.91" r="23.15" transform="translate(52.75 561.16) rotate(-45)"/><circle class="cls-7" cx="792.61" cy="216.91" r="23.15" transform="translate(399.4 938.48) rotate(-76.72)"/><rect class="cls-6" x="621.51" y="382.8" width="604.11" height="380.17" rx="7.59"/><path class="cls-8" d="M1179.56,747.48h-512a27.32,27.32,0,0,1-27.29-27.28V426.27A27.32,27.32,0,0,1,667.55,399h512a27.32,27.32,0,0,1,27.29,27.29V720.2A27.32,27.32,0,0,1,1179.56,747.48Zm-512-345.13a24,24,0,0,0-23.92,23.92V720.2a23.94,23.94,0,0,0,23.92,23.91h512a23.94,23.94,0,0,0,23.92-23.91V426.27a24,24,0,0,0-23.92-23.92Z"/><path class="cls-8" d="M724.51,704.48h303.64a12.22,12.22,0,0,0,10.53-18.42L918.47,481.71a12.22,12.22,0,0,0-21.65,1.12L838.78,610A12.23,12.23,0,0,1,819.4,614l-23.48-21.52a12.21,12.21,0,0,0-18.29,2l-63.15,90.82A12.22,12.22,0,0,0,724.51,704.48Z"/><circle class="cls-8" cx="1024.02" cy="475.54" r="43.65" transform="translate(-104.03 428.08) rotate(-22.5)"/><rect class="cls-6" x="621.51" y="830.22" width="604.11" height="380.17" rx="9.24"/><path class="cls-8" d="M739.07,1151.73h303.64a12.22,12.22,0,0,0,10.53-18.42L933,929a12.22,12.22,0,0,0-21.65,1.13l-58,127.18a12.22,12.22,0,0,1-19.38,3.93l-23.48-21.52a12.22,12.22,0,0,0-18.29,2L729,1132.53A12.22,12.22,0,0,0,739.07,1151.73Z"/><circle class="cls-8" cx="1038.58" cy="922.78" r="43.65" transform="translate(-274.08 467.69) rotate(-22.5)"/><path class="cls-8" d="M1179.13,1197.81h-512a27.32,27.32,0,0,1-27.29-27.29V876.6a27.32,27.32,0,0,1,27.29-27.29h512a27.32,27.32,0,0,1,27.29,27.29v293.92A27.32,27.32,0,0,1,1179.13,1197.81Zm-512-345.13A24,24,0,0,0,643.2,876.6v293.92a24,24,0,0,0,23.92,23.92h512a24,24,0,0,0,23.92-23.92V876.6a24,24,0,0,0-23.92-23.92Z"/><rect class="cls-6" x="1372.17" y="382.8" width="711.14" height="447.53" rx="7.59"/><path class="cls-8" d="M2033.64,811.8h-611.8a27.32,27.32,0,0,1-27.29-27.29V429.44a27.32,27.32,0,0,1,27.29-27.29h611.8a27.32,27.32,0,0,1,27.29,27.29V784.51A27.32,27.32,0,0,1,2033.64,811.8Zm-611.8-406.28a24,24,0,0,0-23.92,23.92V784.51a24,24,0,0,0,23.92,23.92h611.8a24,24,0,0,0,23.92-23.92V429.44a24,24,0,0,0-23.92-23.92Z"/><g class="cls-9"><path class="cls-8" d="M1723.3,731.06a126.27,126.27,0,1,1,126.27-126.27A126.41,126.41,0,0,1,1723.3,731.06Zm0-231.38a105.11,105.11,0,1,0,105.11,105.11A105.23,105.23,0,0,0,1723.3,499.68Z"/><path class="cls-10" d="M1683.74,653.42V562.64a12.52,12.52,0,0,1,18.9-10.77l76.5,45.4a12.51,12.51,0,0,1,0,21.52l-76.5,45.39A12.51,12.51,0,0,1,1683.74,653.42Z"/></g><rect class="cls-6" x="1367.73" y="906.17" width="711.14" height="447.53" rx="7.59"/><path class="cls-8" d="M2029.2,1335.17H1417.4a27.32,27.32,0,0,1-27.29-27.29V952.8a27.32,27.32,0,0,1,27.29-27.28h611.8a27.32,27.32,0,0,1,27.29,27.28v355.08A27.33,27.33,0,0,1,2029.2,1335.17ZM1417.4,928.89a23.94,23.94,0,0,0-23.91,23.91v355.08a23.94,23.94,0,0,0,23.91,23.91h611.8a23.94,23.94,0,0,0,23.91-23.91V952.8a23.94,23.94,0,0,0-23.91-23.91Z"/><g class="cls-9"><path class="cls-8" d="M1718.86,1254.43a126.28,126.28,0,1,1,126.28-126.27A126.41,126.41,0,0,1,1718.86,1254.43Zm0-231.39A105.12,105.12,0,1,0,1824,1128.16,105.23,105.23,0,0,0,1718.86,1023Z"/><path class="cls-10" d="M1679.3,1176.79V1086a12.51,12.51,0,0,1,18.9-10.77l76.5,45.39a12.52,12.52,0,0,1,0,21.53l-76.5,45.39A12.51,12.51,0,0,1,1679.3,1176.79Z"/></g><path class="cls-11" d="M273.25,1968.57l20.12,625.94c3.51,109.15,93.08,196,202.8,196.65L1995.09,2800c73.33.43,135.8-52.85,146.5-125.06,23.44-158.07,53.31-440.9,19.68-706.37Z"/><path class="cls-8" d="M1942,2761.54h0l-10.91-.06a1.82,1.82,0,0,1,0-3.64h0l10.92.06a1.82,1.82,0,0,1,0,3.64Zm25.46-.17a1.82,1.82,0,0,1-.11-3.64c3.57-.22,7.17-.58,10.72-1.07a1.82,1.82,0,0,1,.5,3.6c-3.64.51-7.34.88-11,1.11Zm-61.86,0h0l-10.92-.07a1.82,1.82,0,0,1,0-3.64h0l10.92.07a1.82,1.82,0,0,1,0,3.64Zm-36.39-.22h0l-10.92-.06a1.82,1.82,0,0,1,0-3.64h0l10.92.06a1.82,1.82,0,0,1,0,3.64Zm-36.4-.21h0l-10.92-.07a1.82,1.82,0,0,1-1.81-1.83,2,2,0,0,1,1.83-1.81l10.92.07a1.82,1.82,0,0,1,0,3.64Zm-36.39-.21h0l-10.92-.07a1.82,1.82,0,0,1,0-3.64h0l10.92.07a1.82,1.82,0,0,1,0,3.64Zm-36.4-.22h0l-10.92-.06a1.82,1.82,0,0,1-1.8-1.83,1.89,1.89,0,0,1,1.83-1.81l10.91.06a1.82,1.82,0,0,1,0,3.64Zm-36.39-.22h0l-10.92-.06a1.82,1.82,0,0,1,0-3.64h0l10.92.07a1.82,1.82,0,1,1,0,3.63Zm-36.39-.21h0l-10.92-.06a1.82,1.82,0,0,1,0-3.64h0l10.92.06a1.82,1.82,0,0,1,0,3.64Zm-36.4-.21h0l-10.92-.07a1.82,1.82,0,0,1,0-3.64h0l10.92.07a1.82,1.82,0,0,1,0,3.64Zm-36.39-.22h0l-10.92-.06a1.82,1.82,0,0,1,0-3.64h0l10.92.06a1.82,1.82,0,0,1,0,3.64Zm-36.4-.21h0l-10.92-.07a1.82,1.82,0,0,1,0-3.64h0l10.91.07a1.82,1.82,0,0,1,0,3.64Zm-36.39-.22h0l-10.92-.06a1.82,1.82,0,0,1,0-3.64h0l10.92.06a1.82,1.82,0,0,1,0,3.64Zm-36.39-.21h0l-10.91-.07a1.82,1.82,0,0,1,0-3.64h0l10.92.07a1.82,1.82,0,0,1,0,3.64Zm-36.4-.22h0l-10.92-.06a1.82,1.82,0,0,1,0-3.64h0l10.92.06a1.82,1.82,0,0,1,0,3.64Zm-36.39-.21h0l-10.92-.07a1.82,1.82,0,1,1,0-3.63h0l10.92.06a1.82,1.82,0,0,1,0,3.64Zm-36.4-.22h0l-10.92-.06a1.82,1.82,0,0,1-1.81-1.83,2,2,0,0,1,1.83-1.81l10.92.07a1.82,1.82,0,1,1,0,3.63Zm-36.39-.21h0l-10.92-.06a1.82,1.82,0,0,1,0-3.64h0l10.92.06a1.82,1.82,0,0,1,0,3.64Zm-36.4-.21h0l-10.91-.07a1.81,1.81,0,0,1-1.81-1.83,1.92,1.92,0,0,1,1.83-1.81l10.92.07a1.82,1.82,0,0,1,0,3.64Zm-36.39-.22h0l-10.92-.06a1.82,1.82,0,0,1,0-3.64h0l10.92.06a1.82,1.82,0,0,1,0,3.64Zm-36.39-.21h0l-10.91-.07a1.81,1.81,0,0,1-1.81-1.83,1.87,1.87,0,0,1,1.83-1.81l10.92.07a1.82,1.82,0,0,1,0,3.64Zm-36.4-.22h0l-10.92-.06a1.82,1.82,0,0,1,0-3.64h0l10.92.06a1.82,1.82,0,0,1,0,3.64Zm-36.39-.21h0l-10.92-.07a1.82,1.82,0,0,1,0-3.64h0l10.92.07a1.82,1.82,0,0,1,0,3.64Zm-36.4-.22h0l-10.92-.06a1.82,1.82,0,0,1,0-3.64h0l10.91.06a1.82,1.82,0,0,1,0,3.64Zm-36.39-.21h0l-10.92-.07a1.82,1.82,0,1,1,0-3.63h0l10.92.06a1.82,1.82,0,0,1,0,3.64Zm-36.4-.22h0l-10.92-.06a1.82,1.82,0,0,1,0-3.64h0l10.91.06a1.82,1.82,0,0,1,0,3.64Zm-36.39-.21h0l-10.92-.06a1.82,1.82,0,0,1,0-3.64h0l10.92.06a1.82,1.82,0,0,1,0,3.64Zm-36.39-.21h0l-10.92-.07a1.82,1.82,0,0,1,0-3.64h0l10.92.07a1.82,1.82,0,0,1,0,3.64Zm-36.4-.22h0l-10.92-.06a1.82,1.82,0,0,1,0-3.64h0l10.92.06a1.82,1.82,0,0,1,0,3.64Zm-36.39-.21h0l-10.92-.07a1.82,1.82,0,0,1,0-3.64h0l10.92.07a1.82,1.82,0,0,1,0,3.64Zm-36.4-.22h0l-10.92-.06a1.82,1.82,0,0,1-1.8-1.83,1.94,1.94,0,0,1,1.83-1.81l10.91.06a1.82,1.82,0,0,1,0,3.64Zm-36.39-.21h0l-10.92-.07a1.82,1.82,0,0,1,0-3.64h0l10.92.07a1.82,1.82,0,0,1,0,3.64Zm-36.39-.22h0l-10.91-.06A1.82,1.82,0,0,1,801,2753a1.88,1.88,0,0,1,1.83-1.81l10.92.06a1.82,1.82,0,0,1,0,3.64Zm-36.4-.21h0l-10.92-.07a1.82,1.82,0,1,1,0-3.63h0l10.92.06a1.82,1.82,0,0,1,0,3.64Zm1225.71-.2a1.82,1.82,0,0,1-.58-3.54c3.4-1.13,6.79-2.41,10.09-3.8a1.82,1.82,0,0,1,1.41,3.36c-3.38,1.42-6.86,2.73-10.35,3.89A1.88,1.88,0,0,1,2003.09,2754.48Zm-1262.1,0h0l-10.92-.06a1.81,1.81,0,0,1-1.81-1.83,1.83,1.83,0,0,1,1.83-1.81l10.92.06a1.82,1.82,0,0,1,0,3.64Zm-36.4-.21h0l-10.92-.07a1.82,1.82,0,0,1,0-3.64h0l10.92.07a1.82,1.82,0,0,1,0,3.64ZM668.2,2754h0l-10.92-.07a1.82,1.82,0,0,1,0-3.64h0l10.92.07a1.82,1.82,0,0,1,0,3.64Zm-36.4-.22h0l-10.92-.06a1.82,1.82,0,0,1,0-3.64h0l10.92.06a1.82,1.82,0,0,1,0,3.64Zm-36.39-.21h0l-10.92-.07a1.82,1.82,0,0,1,0-3.64h0l10.92.07a1.82,1.82,0,0,1,0,3.64Zm-36.4-.22h0l-10.91-.06a1.82,1.82,0,0,1,0-3.64h0l10.92.06a1.82,1.82,0,0,1,0,3.64Zm-36.38-.41h-.1c-3.63-.18-7.33-.47-11-.86a1.81,1.81,0,0,1-1.61-2,1.78,1.78,0,0,1,2-1.61c3.58.38,7.2.66,10.78.84a1.82,1.82,0,0,1-.09,3.63Zm-36-5.18a1.54,1.54,0,0,1-.43-.05c-3.55-.85-7.13-1.82-10.63-2.88a1.82,1.82,0,1,1,1.05-3.48c3.44,1,6.95,2,10.43,2.83a1.82,1.82,0,0,1-.42,3.58Zm1549.09-9.12a1.82,1.82,0,0,1-1-3.34c3-2,6-4.08,8.77-6.26a1.84,1.84,0,0,1,2.56.33,1.82,1.82,0,0,1-.33,2.55c-2.89,2.24-5.92,4.4-9,6.42A1.85,1.85,0,0,1,2035.76,2738.68ZM452.3,2736a1.84,1.84,0,0,1-.75-.16c-3.31-1.5-6.64-3.12-9.89-4.81a1.82,1.82,0,0,1,1.68-3.23c3.19,1.67,6.46,3.26,9.71,4.73a1.81,1.81,0,0,1-.75,3.47Zm-31.54-18a1.77,1.77,0,0,1-1.05-.33c-3-2.09-6-4.3-8.83-6.57a1.82,1.82,0,0,1,2.25-2.85c2.82,2.22,5.74,4.39,8.67,6.45a1.81,1.81,0,0,1-1,3.3Zm1642.52-3a1.85,1.85,0,0,1-1.22-.47,1.82,1.82,0,0,1-.13-2.57c2.38-2.65,4.69-5.44,6.87-8.29a1.82,1.82,0,0,1,2.89,2.21c-2.23,2.92-4.61,5.79-7.06,8.51A1.81,1.81,0,0,1,2063.28,2715ZM393.09,2694.5a1.84,1.84,0,0,1-1.3-.55c-2.55-2.62-5.06-5.35-7.46-8.11a1.81,1.81,0,1,1,2.74-2.38c2.36,2.7,4.82,5.38,7.33,7.95a1.82,1.82,0,0,1,0,2.57A1.87,1.87,0,0,1,393.09,2694.5Zm1690.69-9.41a1.81,1.81,0,0,1-1.62-2.64c1.61-3.18,3.12-6.48,4.48-9.78a1.82,1.82,0,1,1,3.37,1.39c-1.4,3.39-3,6.77-4.61,10A1.81,1.81,0,0,1,2083.78,2685.09ZM370.27,2666.22a1.82,1.82,0,0,1-1.52-.82c-2-3.06-4-6.2-5.82-9.36a1.82,1.82,0,0,1,.65-2.49,1.84,1.84,0,0,1,2.49.66c1.8,3.09,3.73,6.18,5.72,9.18a1.82,1.82,0,0,1-1.52,2.83Zm1725.54-15.35a1.55,1.55,0,0,1-.37,0,1.81,1.81,0,0,1-1.41-2.15c.56-2.67,1-5.41,1.46-8.14l.37-2.51a1.82,1.82,0,0,1,3.6.53l-.37,2.52c-.42,2.8-.92,5.61-1.5,8.35A1.82,1.82,0,0,1,2095.81,2650.87ZM353.14,2634.16a1.82,1.82,0,0,1-1.68-1.12c-1.41-3.37-2.74-6.84-4-10.3a1.82,1.82,0,0,1,3.44-1.21c1.2,3.4,2.51,6.8,3.89,10.1a1.83,1.83,0,0,1-1,2.39A1.9,1.9,0,0,1,353.14,2634.16Zm1748.13-19.27a1.1,1.1,0,0,1-.25,0,1.82,1.82,0,0,1-1.55-2q.74-5.33,1.48-10.81a1.82,1.82,0,1,1,3.61.49q-.73,5.49-1.49,10.82A1.81,1.81,0,0,1,2101.27,2614.89ZM342.36,2599.42a1.82,1.82,0,0,1-1.78-1.45c-.75-3.59-1.41-7.24-1.95-10.84a1.82,1.82,0,0,1,3.6-.54c.53,3.53,1.18,7.11,1.91,10.64a1.82,1.82,0,0,1-1.41,2.15A1.55,1.55,0,0,1,342.36,2599.42Zm1763.72-20.61-.23,0a1.83,1.83,0,0,1-1.58-2l1.37-10.83a1.8,1.8,0,0,1,2-1.58,1.82,1.82,0,0,1,1.59,2l-1.37,10.84A1.81,1.81,0,0,1,2106.08,2578.81ZM338.29,2563.32a1.82,1.82,0,0,1-1.81-1.76l-.35-10.92a1.81,1.81,0,0,1,1.76-1.87,1.77,1.77,0,0,1,1.87,1.76l.36,10.91a1.83,1.83,0,0,1-1.76,1.88Zm1772.19-20.65h-.22a1.82,1.82,0,0,1-1.59-2q.61-5.37,1.23-10.84a1.86,1.86,0,0,1,2-1.61,1.83,1.83,0,0,1,1.6,2q-.61,5.49-1.24,10.86A1.81,1.81,0,0,1,2110.48,2542.67ZM337.13,2526.94a1.81,1.81,0,0,1-1.82-1.76l-.35-10.91a1.82,1.82,0,1,1,3.63-.12l.36,10.91a1.82,1.82,0,0,1-1.76,1.88Zm1777.33-20.45h-.19a1.83,1.83,0,0,1-1.63-2q.57-5.4,1.12-10.86a1.82,1.82,0,1,1,3.62.36c-.37,3.65-.74,7.28-1.12,10.87A1.81,1.81,0,0,1,2114.46,2506.49ZM336,2490.57a1.82,1.82,0,0,1-1.82-1.76l-.35-10.92a1.82,1.82,0,1,1,3.63-.11l.36,10.91a1.83,1.83,0,0,1-1.76,1.88ZM2118,2470.26h-.17a1.81,1.81,0,0,1-1.64-2q.49-5.4,1-10.87a1.82,1.82,0,1,1,3.62.33c-.32,3.65-.65,7.27-1,10.88A1.82,1.82,0,0,1,2118,2470.26ZM334.79,2454.19a1.82,1.82,0,0,1-1.82-1.76l-.35-10.91a1.81,1.81,0,0,1,1.76-1.88,1.84,1.84,0,0,1,1.88,1.76l.35,10.91a1.82,1.82,0,0,1-1.76,1.88ZM2121.17,2434H2121a1.82,1.82,0,0,1-1.67-2l.86-10.88a1.8,1.8,0,0,1,2-1.68,1.82,1.82,0,0,1,1.67,2l-.86,10.89A1.82,1.82,0,0,1,2121.17,2434ZM333.62,2417.81a1.81,1.81,0,0,1-1.82-1.76l-.35-10.91a1.82,1.82,0,0,1,3.64-.12l.35,10.92a1.82,1.82,0,0,1-1.76,1.87Zm1790.26-20.12h-.13a1.82,1.82,0,0,1-1.69-1.94l.73-10.89a1.82,1.82,0,1,1,3.63.24l-.73,10.9A1.81,1.81,0,0,1,2123.88,2397.69ZM332.45,2381.44a1.82,1.82,0,0,1-1.82-1.76l-.35-10.92a1.82,1.82,0,0,1,1.76-1.87,1.79,1.79,0,0,1,1.88,1.76l.35,10.91a1.83,1.83,0,0,1-1.76,1.88Zm1793.69-20.08h-.1a1.83,1.83,0,0,1-1.72-1.92c.21-3.62.4-7.25.59-10.89a1.82,1.82,0,1,1,3.64.18c-.19,3.66-.39,7.29-.59,10.92A1.83,1.83,0,0,1,2126.14,2361.36Zm-1794.86-16.3a1.81,1.81,0,0,1-1.82-1.76l-.35-10.91a1.82,1.82,0,0,1,3.64-.12l.35,10.91a1.82,1.82,0,0,1-1.76,1.88Zm1796.66-20h-.08a1.83,1.83,0,0,1-1.74-1.9c.16-3.62.31-7.26.45-10.9a1.82,1.82,0,1,1,3.63.14q-.21,5.47-.44,10.92A1.83,1.83,0,0,1,2127.94,2325ZM330.11,2308.69a1.82,1.82,0,0,1-1.82-1.76l-.35-10.92a1.81,1.81,0,0,1,1.76-1.87,1.85,1.85,0,0,1,1.88,1.76l.35,10.91a1.82,1.82,0,0,1-1.76,1.87Zm1799.15-20.06h-.06a1.83,1.83,0,0,1-1.77-1.87q.17-5.45.3-10.91a1.82,1.82,0,1,1,3.64.09q-.13,5.47-.3,10.92A1.81,1.81,0,0,1,2129.26,2288.63ZM328.94,2272.31a1.82,1.82,0,0,1-1.82-1.76l-.35-10.91a1.82,1.82,0,0,1,1.76-1.88,1.85,1.85,0,0,1,1.88,1.76l.35,10.91a1.82,1.82,0,0,1-1.76,1.88Zm1801.13-20.07h0a1.81,1.81,0,0,1-1.79-1.85q.08-5.44.14-10.91a1.92,1.92,0,0,1,1.84-1.8,1.82,1.82,0,0,1,1.8,1.84q-.06,5.47-.14,10.93A1.83,1.83,0,0,1,2130.07,2252.24Zm-1802.3-16.31a1.81,1.81,0,0,1-1.82-1.76l-.35-10.91a1.83,1.83,0,0,1,1.76-1.88,1.86,1.86,0,0,1,1.88,1.76l.35,10.92a1.82,1.82,0,0,1-1.76,1.87Zm1802.58-20.09a1.82,1.82,0,0,1-1.82-1.82v-.88c0-3.33,0-6.67,0-10a1.83,1.83,0,0,1,1.81-1.83h0a1.82,1.82,0,0,1,1.82,1.82c0,3.35,0,6.69,0,10v.88A1.81,1.81,0,0,1,2130.35,2215.84ZM326.6,2199.56a1.82,1.82,0,0,1-1.82-1.76l-.35-10.92a1.82,1.82,0,0,1,1.76-1.87,1.75,1.75,0,0,1,1.88,1.76l.35,10.91a1.83,1.83,0,0,1-1.76,1.88Zm1803.48-20.1a1.82,1.82,0,0,1-1.82-1.79q-.08-5.45-.19-10.9a1.82,1.82,0,0,1,1.78-1.86,1.88,1.88,0,0,1,1.86,1.78c.07,3.65.14,7.29.19,10.93a1.81,1.81,0,0,1-1.79,1.84ZM325.43,2163.18a1.81,1.81,0,0,1-1.82-1.76l-.35-10.91a1.82,1.82,0,0,1,1.76-1.88,1.84,1.84,0,0,1,1.88,1.76l.35,10.91a1.82,1.82,0,0,1-1.76,1.88Zm1803.8-20.09a1.83,1.83,0,0,1-1.82-1.76c-.11-3.64-.23-7.27-.37-10.91a1.82,1.82,0,0,1,1.75-1.88,1.78,1.78,0,0,1,1.89,1.75c.13,3.64.26,7.28.37,10.92a1.83,1.83,0,0,1-1.76,1.88Zm-1805-16.28a1.82,1.82,0,0,1-1.82-1.76l-.35-10.92a1.82,1.82,0,0,1,1.76-1.87,1.8,1.8,0,0,1,1.88,1.76l.35,10.91a1.82,1.82,0,0,1-1.76,1.87Zm1803.5-20.08a1.83,1.83,0,0,1-1.82-1.73c-.18-3.63-.36-7.26-.56-10.9a1.81,1.81,0,0,1,1.72-1.91,1.83,1.83,0,0,1,1.91,1.72q.3,5.45.57,10.91a1.83,1.83,0,0,1-1.73,1.91Zm-1804.67-16.3a1.82,1.82,0,0,1-1.82-1.76l-.35-10.91a1.82,1.82,0,0,1,3.64-.12l.35,10.91a1.82,1.82,0,0,1-1.76,1.88Zm1802.55-20a1.83,1.83,0,0,1-1.82-1.7c-.24-3.63-.5-7.25-.77-10.88a1.83,1.83,0,0,1,1.68-2,1.79,1.79,0,0,1,1.95,1.68q.41,5.46.77,10.9a1.82,1.82,0,0,1-1.69,1.94ZM321.92,2054.05a1.81,1.81,0,0,1-1.82-1.76l-.35-10.91a1.83,1.83,0,0,1,1.76-1.88,1.8,1.8,0,0,1,1.88,1.76l.35,10.92a1.81,1.81,0,0,1-1.76,1.87Zm1800.89-19.94a1.82,1.82,0,0,1-1.81-1.66c-.31-3.62-.65-7.24-1-10.86a1.8,1.8,0,0,1,1.64-2,1.82,1.82,0,0,1,2,1.64c.34,3.63.67,7.25,1,10.88a1.82,1.82,0,0,1-1.66,2ZM320.75,2017.68a1.81,1.81,0,0,1-1.81-1.76l-.36-10.92a1.83,1.83,0,0,1,1.76-1.88,1.86,1.86,0,0,1,1.88,1.77l.35,10.91a1.83,1.83,0,0,1-1.76,1.88Zm1798.5-19.79a1.82,1.82,0,0,1-1.81-1.62q-.58-5.43-1.22-10.84a1.83,1.83,0,0,1,1.6-2,1.81,1.81,0,0,1,2,1.6q.63,5.43,1.22,10.86a1.82,1.82,0,0,1-1.61,2ZM319.58,1981.3a1.81,1.81,0,0,1-1.82-1.76l-.41-12.79H324a1.82,1.82,0,0,1,0,3.64h-2.85l.29,9a1.82,1.82,0,0,1-1.76,1.88Zm1787.73-10.91h-10.92a1.82,1.82,0,0,1,0-3.64h10.92a1.82,1.82,0,1,1,0,3.64Zm-36.4,0H2060a1.82,1.82,0,0,1,0-3.64h10.92a1.82,1.82,0,1,1,0,3.64Zm-36.39,0H2023.6a1.82,1.82,0,1,1,0-3.64h10.92a1.82,1.82,0,1,1,0,3.64Zm-36.4,0H1987.2a1.82,1.82,0,1,1,0-3.64h10.92a1.82,1.82,0,1,1,0,3.64Zm-36.39,0h-10.92a1.82,1.82,0,1,1,0-3.64h10.92a1.82,1.82,0,0,1,0,3.64Zm-36.4,0h-10.92a1.82,1.82,0,1,1,0-3.64h10.92a1.82,1.82,0,1,1,0,3.64Zm-36.39,0H1878a1.82,1.82,0,1,1,0-3.64h10.92a1.82,1.82,0,1,1,0,3.64Zm-36.4,0h-10.92a1.82,1.82,0,1,1,0-3.64h10.92a1.82,1.82,0,1,1,0,3.64Zm-36.39,0h-10.92a1.82,1.82,0,1,1,0-3.64h10.92a1.82,1.82,0,0,1,0,3.64Zm-36.4,0h-10.92a1.82,1.82,0,1,1,0-3.64h10.92a1.82,1.82,0,0,1,0,3.64Zm-36.39,0h-10.92a1.82,1.82,0,0,1,0-3.64h10.92a1.82,1.82,0,1,1,0,3.64Zm-36.4,0H1696a1.82,1.82,0,1,1,0-3.64H1707a1.82,1.82,0,0,1,0,3.64Zm-36.39,0h-10.92a1.82,1.82,0,0,1,0-3.64h10.92a1.82,1.82,0,1,1,0,3.64Zm-36.4,0h-10.92a1.82,1.82,0,1,1,0-3.64h10.92a1.82,1.82,0,0,1,0,3.64Zm-36.39,0h-10.92a1.82,1.82,0,1,1,0-3.64h10.92a1.82,1.82,0,0,1,0,3.64Zm-36.4,0h-10.92a1.82,1.82,0,1,1,0-3.64h10.92a1.82,1.82,0,0,1,0,3.64Zm-36.39,0h-10.92a1.82,1.82,0,1,1,0-3.64H1525a1.82,1.82,0,0,1,0,3.64Zm-36.4,0h-10.92a1.82,1.82,0,0,1,0-3.64h10.92a1.82,1.82,0,1,1,0,3.64Zm-36.39,0h-10.92a1.82,1.82,0,1,1,0-3.64h10.92a1.82,1.82,0,0,1,0,3.64Zm-36.4,0h-10.92a1.82,1.82,0,0,1,0-3.64h10.92a1.82,1.82,0,0,1,0,3.64Zm-36.39,0h-10.92a1.82,1.82,0,1,1,0-3.64h10.92a1.82,1.82,0,0,1,0,3.64Zm-36.4,0H1332.1a1.82,1.82,0,1,1,0-3.64H1343a1.82,1.82,0,0,1,0,3.64Zm-36.39,0H1295.7a1.82,1.82,0,1,1,0-3.64h10.92a1.82,1.82,0,1,1,0,3.64Zm-36.4,0h-10.91a1.82,1.82,0,1,1,0-3.64h10.91a1.82,1.82,0,0,1,0,3.64Zm-36.39,0h-10.92a1.82,1.82,0,0,1,0-3.64h10.92a1.82,1.82,0,1,1,0,3.64Zm-36.4,0h-10.91a1.82,1.82,0,1,1,0-3.64h10.91a1.82,1.82,0,0,1,0,3.64Zm-36.39,0h-10.92a1.82,1.82,0,1,1,0-3.64H1161a1.82,1.82,0,0,1,0,3.64Zm-36.4,0h-10.91a1.82,1.82,0,1,1,0-3.64h10.91a1.82,1.82,0,0,1,0,3.64Zm-36.39,0h-10.92a1.82,1.82,0,1,1,0-3.64h10.92a1.82,1.82,0,0,1,0,3.64Zm-36.4,0h-10.91a1.82,1.82,0,0,1,0-3.64h10.91a1.82,1.82,0,1,1,0,3.64Zm-36.39,0h-10.92a1.82,1.82,0,1,1,0-3.64h10.92a1.82,1.82,0,0,1,0,3.64Zm-36.4,0H968.15a1.82,1.82,0,1,1,0-3.64h10.91a1.82,1.82,0,1,1,0,3.64Zm-36.39,0H931.75a1.82,1.82,0,1,1,0-3.64h10.92a1.82,1.82,0,0,1,0,3.64Zm-36.39,0H895.36a1.82,1.82,0,1,1,0-3.64h10.92a1.82,1.82,0,0,1,0,3.64Zm-36.4,0H859a1.82,1.82,0,1,1,0-3.64h10.92a1.82,1.82,0,0,1,0,3.64Zm-36.39,0H822.57a1.82,1.82,0,1,1,0-3.64h10.92a1.82,1.82,0,1,1,0,3.64Zm-36.4,0H786.17a1.82,1.82,0,1,1,0-3.64h10.92a1.82,1.82,0,1,1,0,3.64Zm-36.39,0H749.78a1.82,1.82,0,1,1,0-3.64H760.7a1.82,1.82,0,1,1,0,3.64Zm-36.4,0H713.38a1.82,1.82,0,1,1,0-3.64H724.3a1.82,1.82,0,0,1,0,3.64Zm-36.39,0H677a1.82,1.82,0,0,1,0-3.64h10.92a1.82,1.82,0,0,1,0,3.64Zm-36.4,0H640.59a1.82,1.82,0,1,1,0-3.64h10.92a1.82,1.82,0,0,1,0,3.64Zm-36.39,0H604.2a1.82,1.82,0,0,1,0-3.64h10.92a1.82,1.82,0,0,1,0,3.64Zm-36.4,0H567.8a1.82,1.82,0,1,1,0-3.64h10.92a1.82,1.82,0,1,1,0,3.64Zm-36.39,0H531.41a1.82,1.82,0,1,1,0-3.64h10.92a1.82,1.82,0,1,1,0,3.64Zm-36.4,0H495a1.82,1.82,0,1,1,0-3.64h10.92a1.82,1.82,0,0,1,0,3.64Zm-36.39,0H458.62a1.82,1.82,0,1,1,0-3.64h10.92a1.82,1.82,0,0,1,0,3.64Zm-36.4,0H422.22a1.82,1.82,0,0,1,0-3.64h10.92a1.82,1.82,0,0,1,0,3.64Zm-36.39,0H385.83a1.82,1.82,0,1,1,0-3.64h10.92a1.82,1.82,0,0,1,0,3.64Zm-36.4,0H349.43a1.82,1.82,0,1,1,0-3.64h10.92a1.82,1.82,0,0,1,0,3.64Z"/><path class="cls-12" d="M712.53,1514.17l4.51-48.28a37.13,37.13,0,0,1,28.15-21.67c46.7-7.43,162.51-20.5,218.27,21.17l8.33,56.1Z"/><path class="cls-13" d="M858.4,1467.72a67,67,0,0,1-32.31,0,29.19,29.19,0,0,1-22.27-28.27V1288.25h76.93v151A29.3,29.3,0,0,1,858.4,1467.72Z"/><path class="cls-14" d="M1457.62,1514.17l4.51-48.28a37.13,37.13,0,0,1,28.15-21.67c46.7-7.43,162.51-20.5,218.27,21.17l8.33,56.1Z"/><path class="cls-15" d="M1603.49,1467.72a67,67,0,0,1-32.31,0,29.19,29.19,0,0,1-22.27-28.27V1272.32h76.93v167A29.3,29.3,0,0,1,1603.49,1467.72Z"/><path class="cls-16" d="M796,1325.3l827.3-27.39a39.87,39.87,0,0,0,38.1-32.73c4.53-25.9,8.53-64.67,2.57-104.87-6.78-45.7-46.09-79.66-92.49-80.76-154.34-3.67-547.23-3.56-763.77,82.1A75.61,75.61,0,0,0,762,1214.12c-5.53,22.74-9.2,53.1-2,84A35.6,35.6,0,0,0,796,1325.3Z"/><path class="cls-6" d="M781.69,1282.3a3.64,3.64,0,0,1-3.62-3.27c-.13-1.31-3.14-32.41,4.95-62.35a69,69,0,0,1,47-47.74c46.09-13.52,134.15-36.51,206.11-38.53a3.64,3.64,0,0,1,.21,7.28c-71.14,2-158.52,24.81-204.27,38.24a61.63,61.63,0,0,0-42,42.65c-7.74,28.61-4.77,59.41-4.74,59.72a3.63,3.63,0,0,1-3.25,4Z"/><path class="cls-17" d="M328.69,1495.36c267.28-3.42,1423.48-15.56,1759.33,25a68.37,68.37,0,0,1,58.78,53c19.84,89.72,59.77,298.14,55,504.73-.65,28.12-21.26,51.84-49,57.09l-766.64,145H1113.86L297,2117.76a63.88,63.88,0,0,1-51.5-59.3c-5.31-103.94-13.61-347.81,14.5-504.79A70.67,70.67,0,0,1,328.69,1495.36Z"/><path class="cls-8" d="M1379.88,2215.89H1369a1.82,1.82,0,0,1,0-3.64h10.92a1.82,1.82,0,0,1,0,3.64Zm-36.4,0h-10.91a1.82,1.82,0,0,1,0-3.64h10.91a1.82,1.82,0,0,1,0,3.64Zm-36.39,0h-10.92a1.82,1.82,0,1,1,0-3.64h10.92a1.82,1.82,0,1,1,0,3.64Zm-36.4,0h-10.91a1.82,1.82,0,0,1,0-3.64h10.91a1.82,1.82,0,0,1,0,3.64Zm-36.39,0h-10.92a1.82,1.82,0,1,1,0-3.64h10.92a1.82,1.82,0,0,1,0,3.64Zm-36.4,0H1187a1.82,1.82,0,0,1,0-3.64h10.91a1.82,1.82,0,0,1,0,3.64Zm-36.39,0h-10.92a1.82,1.82,0,0,1,0-3.64h10.92a1.82,1.82,0,0,1,0,3.64Zm-36.39,0h-4.76l-11.06-2.16a1.82,1.82,0,0,1-1.43-2.14,1.8,1.8,0,0,1,2.14-1.43l10.71,2.13,4.4,0a1.82,1.82,0,0,1,0,3.64Zm279.79-4.72a1.82,1.82,0,0,1-.33-3.6l10.72-2a1.82,1.82,0,1,1,.68,3.57l-10.73,2A2,2,0,0,1,1404.91,2211.17Zm-320.25-2.38-.35,0-10.71-2.13a1.82,1.82,0,0,1,.71-3.57l10.71,2.13a1.83,1.83,0,0,1,1.43,2.14A1.81,1.81,0,0,1,1084.66,2208.79Zm356-4.38a1.82,1.82,0,0,1-.33-3.61l10.72-2a1.82,1.82,0,1,1,.68,3.58l-10.73,2A2,2,0,0,1,1440.67,2204.41ZM1049,2201.7a1.47,1.47,0,0,1-.36,0l-10.71-2.12a1.83,1.83,0,0,1-1.43-2.14,1.81,1.81,0,0,1,2.14-1.43l10.71,2.12a1.82,1.82,0,0,1-.35,3.61Zm427.46-4.06a1.82,1.82,0,0,1-.33-3.6l10.72-2a1.82,1.82,0,1,1,.68,3.57l-10.73,2A2,2,0,0,1,1476.43,2197.64Zm-463.16-3-.36,0-10.7-2.13a1.82,1.82,0,1,1,.71-3.57l10.71,2.13a1.82,1.82,0,0,1-.36,3.6Zm498.92-3.72a1.82,1.82,0,0,1-.33-3.61l10.73-2a1.82,1.82,0,0,1,.67,3.58l-10.73,2A2,2,0,0,1,1512.19,2190.88Zm-534.61-3.37a1.47,1.47,0,0,1-.36,0l-10.71-2.13a1.82,1.82,0,1,1,.71-3.56l10.71,2.12a1.82,1.82,0,0,1-.35,3.61Zm570.37-3.4a1.82,1.82,0,0,1-.33-3.6l10.73-2a1.82,1.82,0,1,1,.67,3.57l-10.73,2A1.87,1.87,0,0,1,1548,2184.11Zm-606.07-3.7a2.19,2.19,0,0,1-.36,0l-10.71-2.13a1.83,1.83,0,0,1-1.43-2.14,1.8,1.8,0,0,1,2.14-1.43l10.71,2.13a1.82,1.82,0,0,1-.35,3.6Zm641.83-3.06a1.82,1.82,0,0,1-.33-3.61l10.73-2a1.82,1.82,0,0,1,.67,3.58l-10.73,2A1.87,1.87,0,0,1,1583.71,2177.35Zm-677.53-4a1.45,1.45,0,0,1-.35,0l-10.71-2.13a1.82,1.82,0,1,1,.71-3.57l10.71,2.13a1.82,1.82,0,0,1-.36,3.61Zm713.3-2.74a1.82,1.82,0,0,1-.34-3.61l10.73-2a1.82,1.82,0,0,1,.67,3.58l-10.73,2A1.84,1.84,0,0,1,1619.48,2170.58Zm-749-4.36a2.19,2.19,0,0,1-.36,0l-10.71-2.13a1.82,1.82,0,1,1,.71-3.57l10.71,2.13a1.82,1.82,0,0,1-.35,3.6Zm784.75-2.4a1.82,1.82,0,0,1-.34-3.61l10.73-2a1.82,1.82,0,1,1,.67,3.57l-10.72,2A1.37,1.37,0,0,1,1655.24,2163.82Zm-820.45-4.69a1.47,1.47,0,0,1-.36,0L823.72,2157a1.82,1.82,0,1,1,.71-3.57l10.71,2.13a1.82,1.82,0,0,1-.35,3.61Zm856.21-2.08a1.82,1.82,0,0,1-.34-3.61l10.73-2a1.82,1.82,0,0,1,.67,3.58l-10.72,2Zm-891.91-5-.35,0L788,2149.87a1.82,1.82,0,0,1-1.43-2.14,1.8,1.8,0,0,1,2.14-1.43l10.71,2.13a1.82,1.82,0,0,1-.36,3.6Zm927.67-1.74a1.82,1.82,0,0,1-.34-3.61l10.73-2a1.82,1.82,0,0,1,.67,3.57l-10.72,2A2.09,2.09,0,0,1,1726.76,2150.29Zm-963.36-5.36a2.19,2.19,0,0,1-.36,0l-10.71-2.13a1.82,1.82,0,1,1,.71-3.57l10.71,2.13a1.82,1.82,0,0,1-.35,3.6Zm999.12-1.41a1.82,1.82,0,0,1-.34-3.61l10.73-2a1.82,1.82,0,0,1,.68,3.58l-10.73,2ZM727.7,2137.84a1.47,1.47,0,0,1-.36,0l-10.71-2.13a1.82,1.82,0,0,1,.71-3.56l10.71,2.12a1.82,1.82,0,0,1-.35,3.61Zm1070.58-1.09a1.82,1.82,0,0,1-.34-3.6l10.73-2a1.82,1.82,0,1,1,.68,3.57l-10.73,2Zm-1106.28-6-.35,0-10.71-2.13a1.82,1.82,0,1,1,.71-3.57l10.71,2.13a1.82,1.82,0,0,1-.36,3.6Zm1142-.75a1.82,1.82,0,0,1-.34-3.61l10.73-2a1.82,1.82,0,1,1,.68,3.58l-10.73,2Zm-1177.73-6.34a1.47,1.47,0,0,1-.36,0l-10.71-2.13a1.82,1.82,0,1,1,.71-3.56l10.71,2.12a1.82,1.82,0,0,1-.35,3.61Zm1213.49-.43a1.82,1.82,0,0,1-.34-3.6l10.73-2a1.82,1.82,0,1,1,.68,3.57l-10.73,2Zm-1249.19-6.67a2.19,2.19,0,0,1-.36,0l-10.71-2.13a1.82,1.82,0,0,1,.72-3.57L621,2113a1.82,1.82,0,0,1-.35,3.6Zm1284.95-.09a1.82,1.82,0,0,1-.34-3.61l10.73-2a1.82,1.82,0,0,1,.68,3.58l-10.73,2A2,2,0,0,1,1905.56,2116.46Zm35.76-6.77a1.82,1.82,0,0,1-.34-3.6l10.73-2a1.82,1.82,0,1,1,.68,3.57l-10.73,2A2,2,0,0,1,1941.32,2109.69Zm-1356.41-.23a1.45,1.45,0,0,1-.35,0l-10.71-2.13a1.82,1.82,0,1,1,.71-3.57l10.71,2.13a1.82,1.82,0,0,1-.36,3.61Zm1392.17-6.53a1.82,1.82,0,0,1-.34-3.61l10.73-2a1.82,1.82,0,0,1,.68,3.58l-10.73,2A2,2,0,0,1,1977.08,2102.93Zm-1427.86-.57a2.19,2.19,0,0,1-.36,0l-10.71-2.13a1.83,1.83,0,0,1-1.43-2.14,1.8,1.8,0,0,1,2.14-1.43l10.71,2.13a1.82,1.82,0,0,1-.35,3.6Zm1463.62-6.2a1.82,1.82,0,0,1-.34-3.61l10.73-2a1.82,1.82,0,1,1,.68,3.57l-10.73,2A2,2,0,0,1,2012.84,2096.16Zm-1499.32-.89a2.33,2.33,0,0,1-.36,0l-10.7-2.13a1.82,1.82,0,1,1,.71-3.57l10.71,2.13a1.82,1.82,0,0,1-.36,3.61Zm1535.08-5.87a1.82,1.82,0,0,1-.33-3.61l10.72-2a1.82,1.82,0,1,1,.68,3.58l-10.73,2A2,2,0,0,1,2048.6,2089.4Zm-1570.78-1.23a1.45,1.45,0,0,1-.35,0L466.76,2086a1.82,1.82,0,0,1-1.43-2.14,1.8,1.8,0,0,1,2.14-1.43l10.71,2.13a1.82,1.82,0,0,1-.36,3.6Zm1606.54-5.54a1.82,1.82,0,0,1-.33-3.61l10.72-2a1.82,1.82,0,0,1,.68,3.58l-10.73,2A2,2,0,0,1,2084.36,2082.63Zm-1642.23-1.55a2.2,2.2,0,0,1-.36,0l-10.71-2.13a1.82,1.82,0,1,1,.71-3.57l10.71,2.13a1.82,1.82,0,0,1-.35,3.61Zm1678-5.21a1.82,1.82,0,0,1-.33-3.61l10.72-2a1.82,1.82,0,1,1,.68,3.57l-10.73,2A1.32,1.32,0,0,1,2120.12,2075.87ZM406.43,2074a1.53,1.53,0,0,1-.36,0l-10.7-2.13a1.82,1.82,0,1,1,.71-3.56l10.71,2.13a1.82,1.82,0,0,1-.36,3.6Zm-35.69-7.1a2.19,2.19,0,0,1-.36,0l-10.71-2.13a1.82,1.82,0,1,1,.71-3.57l10.71,2.13a1.82,1.82,0,0,1-.35,3.6Zm-35.7-7.09a1.47,1.47,0,0,1-.36,0L324,2057.62a1.82,1.82,0,1,1,.71-3.57l10.71,2.13a1.82,1.82,0,0,1-.35,3.61Zm1801.11-7.24h0a1.81,1.81,0,0,1-1.81-1.83v-10.9a1.82,1.82,0,0,1,1.82-1.83h0a1.81,1.81,0,0,1,1.82,1.82v10.93A1.82,1.82,0,0,1,2136.15,2052.55Zm-1825.38-9.72a1.82,1.82,0,0,1-1.82-1.73q-.26-5.26-.5-10.92a1.82,1.82,0,1,1,3.63-.16c.17,3.76.34,7.4.51,10.9a1.83,1.83,0,0,1-1.74,1.91Zm1825.1-26.67a1.82,1.82,0,0,1-1.82-1.79c-.07-3.63-.16-7.26-.25-10.89a1.82,1.82,0,0,1,1.77-1.87,1.74,1.74,0,0,1,1.87,1.77c.09,3.64.18,7.28.25,10.92a1.83,1.83,0,0,1-1.79,1.86Zm-1826.67-9.7a1.83,1.83,0,0,1-1.82-1.75l-.41-10.92a1.82,1.82,0,0,1,1.76-1.88,1.84,1.84,0,0,1,1.88,1.75l.41,10.91a1.82,1.82,0,0,1-1.75,1.89Zm1825.56-26.66a1.82,1.82,0,0,1-1.82-1.74q-.22-5.44-.48-10.87a1.81,1.81,0,0,1,1.73-1.9,1.79,1.79,0,0,1,1.9,1.73q.27,5.43.49,10.89a1.82,1.82,0,0,1-1.75,1.89ZM308,1970.08a1.82,1.82,0,0,1-1.82-1.77l-.32-10.92a1.82,1.82,0,1,1,3.64-.1l.32,10.91a1.83,1.83,0,0,1-1.77,1.88Zm1824.94-26.6a1.83,1.83,0,0,1-1.82-1.71q-.33-5.46-.7-10.89a1.82,1.82,0,1,1,3.63-.24c.25,3.62.48,7.26.71,10.9a1.82,1.82,0,0,1-1.71,1.93ZM307,1933.69a1.82,1.82,0,0,1-1.82-1.78L305,1921a1.82,1.82,0,0,1,3.64-.07l.22,10.92a1.82,1.82,0,0,1-1.78,1.86Zm1823.3-26.53a1.81,1.81,0,0,1-1.81-1.67q-.45-5.46-.91-10.88a1.82,1.82,0,0,1,3.63-.31q.47,5.43.91,10.89a1.82,1.82,0,0,1-1.67,2ZM306.4,1897.29a1.81,1.81,0,0,1-1.81-1.8l-.12-10.92a1.82,1.82,0,0,1,1.8-1.84h0a1.82,1.82,0,0,1,1.82,1.81l.11,10.91a1.81,1.81,0,0,1-1.79,1.84Zm1820.67-26.4a1.83,1.83,0,0,1-1.81-1.64q-.53-5.45-1.09-10.86a1.82,1.82,0,0,1,3.63-.37q.55,5.42,1.09,10.88a1.82,1.82,0,0,1-1.64,2Zm-1820.92-10a1.82,1.82,0,0,1-1.82-1.82v-10.91a1.81,1.81,0,0,1,1.82-1.82h0a1.81,1.81,0,0,1,1.82,1.81v10.92a1.82,1.82,0,0,1-1.82,1.82Zm1817.08-26.2a1.83,1.83,0,0,1-1.81-1.62q-.61-5.44-1.27-10.83a1.83,1.83,0,0,1,1.59-2,1.8,1.8,0,0,1,2,1.59q.64,5.4,1.27,10.86a1.81,1.81,0,0,1-1.6,2ZM306.28,1824.51h0a1.83,1.83,0,0,1-1.81-1.84q.06-5.45.13-10.91a1.81,1.81,0,0,1,1.81-1.8h0a1.82,1.82,0,0,1,1.79,1.85l-.12,10.9A1.82,1.82,0,0,1,306.28,1824.51Zm1812.52-26A1.83,1.83,0,0,1,2117,1797q-.7-5.45-1.43-10.82a1.82,1.82,0,1,1,3.6-.48q.74,5.37,1.44,10.83a1.82,1.82,0,0,1-1.57,2Zm-1812-10.42h-.05a1.81,1.81,0,0,1-1.77-1.86c.08-3.64.16-7.28.26-10.92a1.75,1.75,0,0,1,1.86-1.77,1.81,1.81,0,0,1,1.77,1.86q-.14,5.46-.25,10.91A1.83,1.83,0,0,1,306.85,1788.13Zm1807-25.65a1.83,1.83,0,0,1-1.8-1.56c-.52-3.63-1.06-7.23-1.59-10.8a1.82,1.82,0,0,1,3.6-.54q.8,5.37,1.6,10.82a1.82,1.82,0,0,1-1.54,2.06ZM307.9,1751.74h-.07a1.82,1.82,0,0,1-1.75-1.88q.19-5.47.42-10.93a1.87,1.87,0,0,1,1.89-1.75,1.81,1.81,0,0,1,1.74,1.9l-.42,10.91A1.81,1.81,0,0,1,307.9,1751.74Zm1800.4-25.25a1.83,1.83,0,0,1-1.8-1.53q-.87-5.46-1.75-10.78a1.82,1.82,0,0,1,3.59-.59q.88,5.33,1.76,10.79a1.83,1.83,0,0,1-1.51,2.09ZM309.51,1715.35h-.1a1.83,1.83,0,0,1-1.72-1.92c.2-3.65.4-7.3.61-10.93a1.82,1.82,0,1,1,3.63.21q-.31,5.44-.6,10.92A1.82,1.82,0,0,1,309.51,1715.35Zm1792.75-24.77a1.82,1.82,0,0,1-1.79-1.51q-1-5.46-1.91-10.75a1.82,1.82,0,1,1,3.58-.64q1,5.29,1.92,10.76a1.83,1.83,0,0,1-1.48,2.11ZM311.79,1679h-.13a1.81,1.81,0,0,1-1.68-2c.27-3.65.54-7.28.83-10.9a1.82,1.82,0,1,1,3.63.29q-.44,5.41-.83,10.88A1.82,1.82,0,0,1,311.79,1679Zm1783.92-24.24a1.83,1.83,0,0,1-1.79-1.48q-1-5.49-2.06-10.72a1.82,1.82,0,1,1,3.57-.7q1,5.25,2.07,10.74a1.82,1.82,0,0,1-1.45,2.13A2,2,0,0,1,2095.71,1654.76Zm-1780.83-12h-.18a1.82,1.82,0,0,1-1.63-2c.35-3.65.73-7.28,1.11-10.88a1.82,1.82,0,0,1,3.62.38c-.38,3.6-.75,7.21-1.11,10.85A1.81,1.81,0,0,1,314.88,1642.72ZM2088.63,1619a1.82,1.82,0,0,1-1.78-1.45q-1.14-5.55-2.23-10.69a1.82,1.82,0,0,1,3.56-.75q1.08,5.13,2.23,10.71A1.82,1.82,0,0,1,2089,1619,2.31,2.31,0,0,1,2088.63,1619ZM319,1606.56l-.24,0a1.82,1.82,0,0,1-1.56-2q.7-5.48,1.47-10.84a1.82,1.82,0,1,1,3.6.51q-.75,5.34-1.47,10.8A1.82,1.82,0,0,1,319,1606.56Zm1758-19.22h-.21c-3.51-.42-7.12-.82-10.84-1.23a1.82,1.82,0,1,1,.4-3.62q5.58.62,10.86,1.23a1.82,1.82,0,0,1-.21,3.63Zm-36.2-3.77h-.17l-10.87-1a1.81,1.81,0,0,1-1.65-2,1.83,1.83,0,0,1,2-1.65l10.89,1a1.82,1.82,0,0,1-.17,3.64Zm-36.27-3.06h-.14l-10.88-.82a1.81,1.81,0,0,1-1.68-1.94,1.83,1.83,0,0,1,1.94-1.68c3.69.26,7.32.54,10.9.81a1.82,1.82,0,0,1-.14,3.63Zm-36.31-2.56h-.12l-10.89-.69a1.82,1.82,0,0,1-1.7-1.93,1.79,1.79,0,0,1,1.93-1.7l10.9.69a1.82,1.82,0,0,1-.12,3.64Zm-36.33-2.21h-.1l-10.9-.6a1.82,1.82,0,1,1,.2-3.63l10.9.6a1.82,1.82,0,0,1-.1,3.64Zm-36.35-1.93h-.09l-10.9-.54a1.82,1.82,0,0,1,.17-3.63l10.91.53a1.82,1.82,0,0,1-.09,3.64Zm-36.35-1.71h-.09l-10.9-.48a1.82,1.82,0,0,1-1.74-1.89,1.85,1.85,0,0,1,1.9-1.74l10.91.47a1.82,1.82,0,0,1-.08,3.64Zm-36.37-1.52h-.07l-10.91-.42a1.82,1.82,0,1,1,.14-3.64l10.91.42a1.82,1.82,0,0,1-.07,3.64Zm-1498.37,0a1.63,1.63,0,0,1-.31,0,1.81,1.81,0,0,1-1.48-2.1l.6-3.44a6.46,6.46,0,0,1,6.29-5.4h.95a1.7,1.7,0,0,1,1.85,1.79,1.83,1.83,0,0,1-1.79,1.85h-.95a2.83,2.83,0,0,0-2.77,2.41l-.6,3.41A1.81,1.81,0,0,1,324.41,1570.56Zm1462-1.34h-.07l-10.9-.38a1.82,1.82,0,1,1,.12-3.63l10.91.38a1.82,1.82,0,0,1-.06,3.63ZM1750,1568H1750l-10.91-.34a1.82,1.82,0,0,1-1.76-1.88,1.84,1.84,0,0,1,1.88-1.76l10.91.35a1.82,1.82,0,0,1,0,3.63Zm-36.39-1.1h-.05l-10.91-.31a1.82,1.82,0,0,1-1.77-1.87,1.78,1.78,0,0,1,1.87-1.77l10.91.31a1.82,1.82,0,0,1,0,3.64Zm-36.38-1h0l-10.91-.28a1.83,1.83,0,0,1-1.78-1.87,1.77,1.77,0,0,1,1.87-1.77l10.92.28a1.82,1.82,0,0,1,0,3.64Zm-36.39-.9h0l-10.91-.26a1.81,1.81,0,0,1-1.78-1.86,1.73,1.73,0,0,1,1.86-1.77l10.91.25a1.82,1.82,0,0,1,0,3.64Zm-36.39-.82h0l-10.92-.22a1.83,1.83,0,0,1-1.78-1.86,1.87,1.87,0,0,1,1.86-1.78l10.91.22a1.82,1.82,0,0,1,0,3.64Zm-36.38-.73h0l-10.92-.21a1.81,1.81,0,0,1-1.78-1.85,1.74,1.74,0,0,1,1.85-1.79l10.92.21a1.82,1.82,0,0,1,0,3.64ZM356,1562.9a1.82,1.82,0,0,1,0-3.64l10.92-.13a1.91,1.91,0,0,1,1.84,1.8,1.81,1.81,0,0,1-1.79,1.84l-10.93.13Zm1175.74-.1h0l-10.91-.19a1.81,1.81,0,0,1-1.79-1.85,1.83,1.83,0,0,1,1.82-1.79h0l10.92.19a1.82,1.82,0,0,1,0,3.64Zm-1139.32-.33a1.82,1.82,0,0,1,0-3.63l10.92-.13a1.75,1.75,0,0,1,1.84,1.8,1.81,1.81,0,0,1-1.8,1.84l-10.92.12Zm1102.93-.27h0l-10.92-.16a1.82,1.82,0,0,1-1.79-1.85,1.72,1.72,0,0,1,1.84-1.79l10.92.16a1.82,1.82,0,0,1,0,3.64Zm-1066.52-.13a1.82,1.82,0,0,1,0-3.63l10.92-.12a1.78,1.78,0,0,1,1.84,1.8,1.82,1.82,0,0,1-1.8,1.84l-10.92.11Zm36.41-.37a1.82,1.82,0,0,1,0-3.64l10.92-.11a1.8,1.8,0,0,1,1.84,1.8,1.83,1.83,0,0,1-1.8,1.84l-10.92.11Zm993.71,0h0l-10.92-.15a1.82,1.82,0,0,1,0-3.64h0l10.92.15a1.82,1.82,0,0,1,0,3.64Zm-957.3-.33a1.82,1.82,0,0,1,0-3.64l10.93-.1a1.82,1.82,0,0,1,0,3.64l-10.92.1Zm920.91-.15h0l-10.92-.13a1.82,1.82,0,0,1-1.8-1.84,1.75,1.75,0,0,1,1.84-1.8l10.92.13a1.82,1.82,0,0,1,0,3.64ZM538,1561a1.82,1.82,0,0,1,0-3.64l10.93-.09h0a1.82,1.82,0,0,1,0,3.63l-10.92.1Zm848.11-.24h0l-10.92-.12a1.82,1.82,0,0,1,0-3.64l10.91.12a1.82,1.82,0,0,1,0,3.64Zm-811.7-.07a1.82,1.82,0,0,1,0-3.64l10.92-.09h0a1.82,1.82,0,0,1,0,3.64l-10.92.09Zm36.4-.28a1.82,1.82,0,0,1,0-3.64l10.92-.09h0a1.82,1.82,0,0,1,0,3.64l-10.92.09Zm738.9,0h0l-10.91-.1a1.82,1.82,0,0,1,0-3.64h0l10.92.1a1.82,1.82,0,0,1,0,3.64Zm-702.49-.24a1.82,1.82,0,0,1,0-3.64l10.92-.07a1.78,1.78,0,0,1,1.83,1.81,1.82,1.82,0,0,1-1.81,1.83l-10.92.07Zm666.1-.08h0l-10.92-.09a1.82,1.82,0,0,1,0-3.64h0l10.92.09a1.82,1.82,0,0,1,0,3.64Zm-629.69-.16a1.82,1.82,0,0,1,0-3.64l10.93-.06h0a1.82,1.82,0,1,1,0,3.63l-10.92.07Zm593.29-.13h0l-10.92-.07a1.83,1.83,0,0,1-1.81-1.83,1.78,1.78,0,0,1,1.84-1.81l10.91.07a1.82,1.82,0,0,1,0,3.64Zm-556.89-.08a1.82,1.82,0,0,1,0-3.64L731,1556h0a1.82,1.82,0,0,1,0,3.64l-10.92.07Zm520.5-.16h0l-10.92-.06a1.82,1.82,0,0,1-1.81-1.83,1.86,1.86,0,0,1,1.83-1.81l10.92.06a1.82,1.82,0,0,1,0,3.64Zm-484.1,0a1.82,1.82,0,0,1,0-3.64l10.92,0h0a1.82,1.82,0,0,1,0,3.64l-10.93,0Zm447.7-.16h0l-10.92,0a1.82,1.82,0,0,1,0-3.64h0l10.92,0a1.82,1.82,0,0,1,0,3.64Zm-411.29,0a1.82,1.82,0,0,1,0-3.64l10.92,0h0a1.82,1.82,0,0,1,0,3.64l-10.92,0Zm36.41-.14a1.82,1.82,0,0,1,0-3.64l10.92,0h0a1.82,1.82,0,1,1,0,3.64l-10.92,0Zm338.49,0h0l-10.92,0a1.82,1.82,0,0,1,0-3.64h0l10.92,0a1.82,1.82,0,1,1,0,3.64Zm-302.09-.11a1.82,1.82,0,0,1,0-3.64l10.93,0h0a1.82,1.82,0,0,1,0,3.64l-10.92,0Zm265.69,0h0l-10.92,0a1.82,1.82,0,1,1,0-3.64h0l10.92,0a1.82,1.82,0,0,1,0,3.64ZM902.09,1559a1.82,1.82,0,1,1,0-3.64l10.92,0h0a1.82,1.82,0,0,1,0,3.64l-10.92,0Zm192.89,0h0l-10.92,0a1.82,1.82,0,1,1,0-3.63h0l10.92,0a1.82,1.82,0,0,1,0,3.64Zm-156.48,0a1.82,1.82,0,1,1,0-3.64h10.92a1.82,1.82,0,1,1,0,3.64Zm120.09,0h0l-10.92,0a1.82,1.82,0,0,1,0-3.64h0l10.92,0a1.82,1.82,0,1,1,0,3.64Zm-83.69,0a1.82,1.82,0,0,1,0-3.64h10.89a1.82,1.82,0,1,1,0,3.64Zm47.29,0h-10.92a1.82,1.82,0,0,1,0-3.64h10.92a1.82,1.82,0,0,1,0,3.64Z"/><path class="cls-18" d="M1360.54,2394.46H1122a61.64,61.64,0,0,1-61.31-54.16l-27.56-229.57c-4.39-36.57,24.3-68.74,61.3-68.74H1381c36.25,0,64.7,30.94,61.5,66.88L1422,2338.44A61.63,61.63,0,0,1,1360.54,2394.46Z"/><g class="cls-19"><path class="cls-20" d="M1331.2,2352.24H1149.61A46.91,46.91,0,0,1,1103,2311l-21-174.74a46.84,46.84,0,0,1,46.65-52.32h218.15a46.86,46.86,0,0,1,46.8,50.91L1378,2309.6A46.91,46.91,0,0,1,1331.2,2352.24Z"/></g><path class="cls-21" d="M2245.47,2785.07c-55.77,2.56-109.74.95-145.78-.9,32.81-23.36,108.41-74.17,171.67-94.4l43.42-2.6s14.72,22.38,20,73.59C2327.55,2769.74,2306.51,2782.26,2245.47,2785.07Z"/><path class="cls-22" d="M2099.24,2784.49l.45-.32c36,1.85,90,3.46,145.78.9,61-2.81,82.08-15.33,89.28-24.31.24,2.36.49,4.7.69,7.18a20.34,20.34,0,0,1-18.69,22c-45.67,3.45-158.9,11.27-213.51,8.41A7.62,7.62,0,0,1,2099.24,2784.49Z"/><path class="cls-23" d="M2644.31,2770.14c4.09-26.18,10.64-64,15.7-73.7,7.93-15.18,35.11,0,35.11,0s19.07,8.9,27.85,23.72c5.6,9.45,21.08,36.34,31.56,54.6a12.24,12.24,0,0,1,1.65,6.5l-108.81,3.81A21.74,21.74,0,0,1,2644.31,2770.14Z"/><path class="cls-24" d="M2756.18,2781.26a12.4,12.4,0,0,1-12.06,12l-77.51,2.14a21.9,21.9,0,0,1-19.24-10.37Z"/><path class="cls-25" d="M2636,2609.43c.94,3.14,15,71.3,21.16,101.21a17.07,17.07,0,0,0,17.57,13.65c4.61-.23,10-.64,15.58-1.37a20.61,20.61,0,0,0,17.94-19.66c1-26.2,1.49-76.51-8.13-96C2686.84,2580.37,2636,2609.43,2636,2609.43Z"/><path class="cls-26" d="M2323.32,2628.94c-6-.19,2.41,31.14-6.72,61.93-2,6.94-7.25,12.39-14.49,12.49-4.69.06-10.25,0-15.9-.49a17.48,17.48,0,0,1-16.11-15.75l-7.42-79.86Z"/><path class="cls-27" d="M2154.65,1780c2.7,13.11,97.69,567.21,103.46,853.93a9.75,9.75,0,0,0,8.39,9.5c12.06,1.68,35.55,3.84,58.32-.38a6.89,6.89,0,0,0,5.67-6.31c3.32-53.43,30-505.19-2.68-717.86,0,0,270.11,568.49,311.05,725.24a8.25,8.25,0,0,0,8.44,6.17c11.56-.61,35.62-2.69,54.72-9.72a14.3,14.3,0,0,0,9-16.81c-22.87-93.81-183.19-740.13-292-882.53Z"/><path class="cls-28" d="M2327.81,1922.45a3.54,3.54,0,0,0,2.53-6l-36.17-37a3.55,3.55,0,1,0-5.07,5l36.17,37A3.56,3.56,0,0,0,2327.81,1922.45Z"/><path class="cls-29" d="M2063.3,1065c80.81-12.15,239.41-29.56,342.86.8l-11.22,319.74-374.81-40.41-31.79-45.19S2003.07,1074,2063.3,1065Z"/><path class="cls-30" d="M2250,893.8s7.49,127.18,6.08,166.73c0,0-104.12,17-128.9-.77L2146.72,909Z"/><path class="cls-31" d="M2148.76,766.42s-41.92,73.59-48.54,113.87S2082,945.93,2128,959.13s88-5.89,113.7-44c0,0,40.2-58.59,35.42-84.87S2148.76,766.42,2148.76,766.42Z"/><path class="cls-32" d="M2228.82,884.43l-5.92-.63s29.79-47.44,9.29-58.54-103.57-37.57-118.66-69.69c-14.54-31,5.26-66.79,30-74.76a3.18,3.18,0,0,1,3.85,1.91l1.56,3.91a3.2,3.2,0,0,0,5.93,0h0a3.19,3.19,0,0,1,5.8-.26c4.64,9.62,18.25,25.91,58.19,37.82,56.66,16.89,92.36,44.4,89,84.46a3.21,3.21,0,0,0,4.65,3.14c4.55-2.14,11.51-2.63,19.81,6,14.44,15.06,4.21,49-33.65,73.72a3.18,3.18,0,0,0-.4,5.12c5.87,4.78,14.22,15.57-11.55,26-26.37,10.64-41,7.6-46.38,5.58a3.21,3.21,0,0,1-2-3.55l6-35.18a3.2,3.2,0,0,0-2.81-3.72Z"/><path class="cls-33" d="M2226.57,891.69s18.13-47.94,38.75-31.73-17.42,54-35.4,53.95Z"/><path class="cls-34" d="M1777.62,1315.11l9.94-39.08a37.36,37.36,0,0,1,43.68-27.39l936.05,191a39.2,39.2,0,0,1,30.53,46.5l-57.07,270.51Z"/><path class="cls-4" d="M1688.87,1789.63l70.4-506a18.1,18.1,0,0,1,21.85-15.18l961.4,213.49a37.85,37.85,0,0,1,28.67,45.45l-80.69,349.76Z"/><path class="cls-35" d="M1714.26,1766.7l27-451.64a19,19,0,0,1,22.93-17.48l971.5,205.58a26.29,26.29,0,0,1,20.53,29.85l-51.74,326.25Z"/><path class="cls-36" d="M1643.89,1873.46l61.16-489.2a42.59,42.59,0,0,1,50.17-36.57l996.21,188a37.24,37.24,0,0,1,29.68,43.49L2697,2025a40.29,40.29,0,0,1-44.92,32.46l-965.75-129A49.33,49.33,0,0,1,1643.89,1873.46Z"/><path class="cls-37" d="M2105.77,1413.85h0a38.26,38.26,0,0,1-44.67,30.49L1839,1402.41a38.24,38.24,0,0,1-30.49-44.67h0a38.24,38.24,0,0,1,44.67-30.49l222.12,41.92A38.25,38.25,0,0,1,2105.77,1413.85Z"/><path class="cls-38" d="M2301.62,1205.2l104.54-139.42s168,178.46,200.22,405l-104.79,51.1C2469.06,1445.58,2409.2,1342.25,2301.62,1205.2Z"/><path class="cls-39" d="M2451.41,1833.26c12.38-20.72,36.57-60.17,48.33-72.48,0,0-10.76-6.79-31.38-4.26s-36.78-7.52-36.16-18.75l98.41-30.19c4.42-9.24,23.89-61.66-29-185.73l104.79-51.1c12.07,84.8,5.15,176.32-36.8,267.75,0,0-32.54,101.07-69.93,123.5C2402.08,1920.53,2446.65,1841.21,2451.41,1833.26Z"/></g></svg>