<svg xmlns="http://www.w3.org/2000/svg" viewBox="0 0 677.88 431.61"><defs><style>.cls-1{fill:#afdef3;}.cls-2{fill:#0093d6;}.cls-3{fill:#354f9e;}.cls-25,.cls-37,.cls-4,.cls-41,.cls-5{fill:none;stroke-miterlimit:10;}.cls-4{stroke:#354f9e;stroke-width:2px;}.cls-5{stroke:#1d1d1b;}.cls-16,.cls-6{fill:#4b4b4a;}.cls-7{fill:#1e1e1e;}.cls-8{fill:#3d3d3d;}.cls-9{fill:#8a8a89;}.cls-10{fill:#232323;}.cls-11{fill:#1d1d1b;}.cls-12{fill:#de2914;}.cls-13{fill:#dcdb00;}.cls-14{fill:#008139;}.cls-15{fill:#424242;}.cls-16{opacity:0.66;}.cls-17{fill:#e76b8e;}.cls-18{fill:#bf5b7e;}.cls-19{fill:#484647;}.cls-20{fill:#3a3a3a;}.cls-21{fill:#353535;}.cls-22{fill:#fab43f;}.cls-23{fill:#f4f4ef;}.cls-24{fill:#fffffb;}.cls-25{stroke:#fdfdfd;}.cls-26{fill:#f6b9be;}.cls-27{fill:#dc9c39;}.cls-28{fill:#c18831;}.cls-29{fill:#fff;}.cls-30{fill:#e1e1e0;}.cls-31,.cls-33,.cls-34{fill:#d5a0a7;}.cls-32{fill:#bb8c95;}.cls-33{opacity:0.25;}.cls-34{opacity:0.44;}.cls-35{fill:#d37179;}.cls-36{fill:#aa3c6b;}.cls-37{stroke:#a37328;}.cls-38{fill:#e44a7f;}.cls-38,.cls-40{opacity:0.63;}.cls-39{fill:#086177;}.cls-40{fill:#e4272f;}.cls-41{stroke:#fffffb;}</style></defs><g id="OBJECTS"><path class="cls-1" d="M164.1,106c3.26-1.08,6.51-2.22,9.67-3.6C187,96.62,196.34,87.91,206.9,78.6c11.49-10.13,22.87-22.73,37.9-27.39,15.33-4.74,31.33,1,46.65-4.53s29.83-13,46.12-15.76a62.26,62.26,0,0,1,45.77,9.84c20.27,13.4,32.14,35.46,50.73,50.7,9.41,7.71,20.3,11.06,32.39,11.06,10.27,0,21.09-2.27,30.71,2.54,11.7,5.85,13.67,16.28,17.39,27.56,4.3,13,15.12,21.8,26.93,27.95,14.45,7.51,31.66,12.66,42.88,25,23.13,25.46,38.23,69.85,27.69,102.3C608.11,300,607.29,312.67,601,324c-5.89,10.58-14.54,19.53-24.27,26.65-39,28.6-84,35.81-131.08,30.6C414,377.73,383,371.28,351,374c-15.48,1.32-30.71,6.75-45.89,10.17a394.13,394.13,0,0,1-48.51,8.15,202,202,0,0,1-74-6.78c-19.14-5.44-38.51-10.54-58.34-12.65C106.63,371,86.75,374,71.6,362.71c-24.84-18.43-36.28-51.16-29.83-81.2C48,252.78,78.3,241.32,89.68,215.42c16.41-37.35,27.16-83.76,50.94-99.61C147.81,111,156,108.65,164.1,106Z"/><path class="cls-2" d="M559.42,270q-131.07,2.59-262,7.63c-43.76,1.75-87.54,3.1-131.33,3.54-41.42.41-82.92-1.22-124.32.41-6.4,30,5,62.68,29.85,81.09,15.15,11.25,35,8.29,52.67,10.17,19.83,2.11,39.2,7.21,58.34,12.65a202,202,0,0,0,74,6.78,394.13,394.13,0,0,0,48.51-8.15c15.18-3.42,30.41-8.85,45.89-10.17,32-2.71,63,3.74,94.63,7.25,47.06,5.21,92-2,131.08-30.6,9.73-7.12,18.38-16.07,24.27-26.65,6.3-11.32,7.12-24,11.07-36.12a72.94,72.94,0,0,0,3.34-19.31C596.74,269,578.08,269.67,559.42,270Z"/><path class="cls-3" d="M428.4,367.24a2.73,2.73,0,0,1-.68.31,4.25,4.25,0,0,1-1.47.17,4.12,4.12,0,0,1-1.44-.36,2.68,2.68,0,0,1-.64-.39,3,3,0,0,1,.68-.3,4.2,4.2,0,0,1,2.91.18A2.68,2.68,0,0,1,428.4,367.24Z"/><path class="cls-3" d="M427.73,363.47a2.7,2.7,0,0,1-.69.31,4,4,0,0,1-1.47.17,4.35,4.35,0,0,1-1.44-.35,2.57,2.57,0,0,1-.63-.4,2.72,2.72,0,0,1,.68-.3,4,4,0,0,1,1.47-.17,4.35,4.35,0,0,1,1.44.35A2.68,2.68,0,0,1,427.73,363.47Z"/><path class="cls-3" d="M421.9,365.4a2.7,2.7,0,0,1-.69.31,4.25,4.25,0,0,1-1.47.17,4.12,4.12,0,0,1-1.44-.36,2.68,2.68,0,0,1-.64-.39,2.92,2.92,0,0,1,.69-.3,4,4,0,0,1,1.47-.17,4.12,4.12,0,0,1,1.44.35A3,3,0,0,1,421.9,365.4Z"/><path class="cls-3" d="M278.41,383.5a2.73,2.73,0,0,1-.68.31,4.26,4.26,0,0,1-1.47.16,3.86,3.86,0,0,1-1.44-.35,2.68,2.68,0,0,1-.64-.39,2.73,2.73,0,0,1,.68-.31,4,4,0,0,1,1.47-.16,3.86,3.86,0,0,1,1.44.35A2.68,2.68,0,0,1,278.41,383.5Z"/><path class="cls-3" d="M277.74,379.73a2.7,2.7,0,0,1-.69.31,4,4,0,0,1-1.47.16,3.91,3.91,0,0,1-1.44-.35,3,3,0,0,1-.64-.39,2.7,2.7,0,0,1,.69-.31,4,4,0,0,1,1.47-.16,3.91,3.91,0,0,1,1.44.35A3,3,0,0,1,277.74,379.73Z"/><path class="cls-3" d="M271.9,381.66a2.52,2.52,0,0,1-.68.31,4.26,4.26,0,0,1-1.47.16,3.91,3.91,0,0,1-1.44-.35,2.68,2.68,0,0,1-.64-.39,2.7,2.7,0,0,1,.69-.31,4,4,0,0,1,1.47-.16,3.81,3.81,0,0,1,1.43.35A2.68,2.68,0,0,1,271.9,381.66Z"/><path class="cls-3" d="M54.29,290.12a3,3,0,0,1-.68.3,4,4,0,0,1-1.47.17,3.86,3.86,0,0,1-1.44-.35,2.68,2.68,0,0,1-.64-.39,2.73,2.73,0,0,1,.68-.31,4,4,0,0,1,1.47-.17,4.12,4.12,0,0,1,1.44.36A2.35,2.35,0,0,1,54.29,290.12Z"/><path class="cls-3" d="M53.61,286.35a2.72,2.72,0,0,1-.68.3,4,4,0,0,1-1.47.17,3.91,3.91,0,0,1-1.44-.35,2.68,2.68,0,0,1-.64-.39,2.7,2.7,0,0,1,.69-.31,4,4,0,0,1,1.47-.17A4.12,4.12,0,0,1,53,286,2.74,2.74,0,0,1,53.61,286.35Z"/><path class="cls-3" d="M47.78,288.28a2.72,2.72,0,0,1-.68.3,4,4,0,0,1-1.47.17,3.91,3.91,0,0,1-1.44-.35,2.68,2.68,0,0,1-.64-.39,2.73,2.73,0,0,1,.68-.31,4.13,4.13,0,0,1,2.91.19A2.35,2.35,0,0,1,47.78,288.28Z"/><path class="cls-3" d="M72.33,335.57a2.92,2.92,0,0,1-.69.3,4,4,0,0,1-1.47.17,3.91,3.91,0,0,1-1.44-.35,2.74,2.74,0,0,1-.63-.39,2.52,2.52,0,0,1,.68-.31,4,4,0,0,1,1.47-.17,4.12,4.12,0,0,1,1.44.36A2.68,2.68,0,0,1,72.33,335.57Z"/><path class="cls-3" d="M71.65,331.8a2.72,2.72,0,0,1-.68.3,4,4,0,0,1-1.47.17,3.91,3.91,0,0,1-1.44-.35,2.68,2.68,0,0,1-.64-.39,2.73,2.73,0,0,1,.68-.31,4.13,4.13,0,0,1,2.91.19A2.68,2.68,0,0,1,71.65,331.8Z"/><path class="cls-3" d="M65.82,333.73a3,3,0,0,1-.68.3,4,4,0,0,1-1.47.17,3.86,3.86,0,0,1-1.44-.35,2.68,2.68,0,0,1-.64-.39,2.73,2.73,0,0,1,.68-.31,4,4,0,0,1,1.47-.17,4.12,4.12,0,0,1,1.44.36A2.68,2.68,0,0,1,65.82,333.73Z"/><path class="cls-3" d="M173.72,298.48a3,3,0,0,1-.68.3,4.08,4.08,0,0,1-1.48.17,3.85,3.85,0,0,1-1.43-.35,2.68,2.68,0,0,1-.64-.39,2.73,2.73,0,0,1,.68-.31,4,4,0,0,1,1.47-.17,4.12,4.12,0,0,1,1.44.36A2.68,2.68,0,0,1,173.72,298.48Z"/><path class="cls-3" d="M173,294.71a2.35,2.35,0,0,1-.68.3,4,4,0,0,1-1.47.17,3.91,3.91,0,0,1-1.44-.35,2.68,2.68,0,0,1-.64-.39,2.7,2.7,0,0,1,.69-.31A3.8,3.8,0,0,1,171,294a3.91,3.91,0,0,1,1.44.35A2.74,2.74,0,0,1,173,294.71Z"/><path class="cls-3" d="M167.21,296.64a3,3,0,0,1-.68.3,4,4,0,0,1-1.47.17,3.91,3.91,0,0,1-1.44-.35,2.68,2.68,0,0,1-.64-.39,2.73,2.73,0,0,1,.68-.31,4.13,4.13,0,0,1,2.91.19A2.68,2.68,0,0,1,167.21,296.64Z"/><path class="cls-3" d="M597.65,300.28a2.73,2.73,0,0,1-.68.31,4,4,0,0,1-1.47.17,4.29,4.29,0,0,1-1.44-.35,2.68,2.68,0,0,1-.64-.39,2.73,2.73,0,0,1,.68-.31,4,4,0,0,1,1.47-.17,4.35,4.35,0,0,1,1.44.35A2.68,2.68,0,0,1,597.65,300.28Z"/><path class="cls-3" d="M597,296.52a2.72,2.72,0,0,1-.68.3,4,4,0,0,1-1.47.17,3.91,3.91,0,0,1-1.44-.35,2.68,2.68,0,0,1-.64-.39,2.7,2.7,0,0,1,.69-.31,4,4,0,0,1,1.47-.17,4.12,4.12,0,0,1,1.44.36A2.39,2.39,0,0,1,597,296.52Z"/><path class="cls-3" d="M591.14,298.44a2.73,2.73,0,0,1-.68.31,4,4,0,0,1-1.47.17,4.35,4.35,0,0,1-1.44-.35,2.68,2.68,0,0,1-.64-.39,2.73,2.73,0,0,1,.68-.31,4.08,4.08,0,0,1,1.48-.17,4.29,4.29,0,0,1,1.43.35A2.68,2.68,0,0,1,591.14,298.44Z"/><path class="cls-4" d="M205.41,304.28a24.15,24.15,0,0,0,3.08-10.19,37.18,37.18,0,0,0-2.79-17.54c-6.79-17-18.68-35.94-20.94-45.85"/><path class="cls-3" d="M151.93,250.23s1.13-4.53,8.77,1.13S209.38,293,209.38,293,155,272,151.93,250.23Z"/><path class="cls-3" d="M208.53,285.88s4.24-18.67,3.11-25.46,0-29.72,3.11-29.43S220.7,282.21,208.53,285.88Z"/><path class="cls-3" d="M202.58,270.32s-.28-17.54-5.65-32.83-7.08-45-2.83-46.4S209.38,258.44,202.58,270.32Z"/><path class="cls-3" d="M198.17,260.67c-11-13.09-29.26-40.15-33.5-45.25-5.66-6.79-8.78-4-8.78-4-3.58,11.82,26.67,37.28,41.81,49.5A4.57,4.57,0,0,1,198.17,260.67Z"/><path class="cls-3" d="M185.61,234.38s-21.23-50.93-9.06-63.39c0,0,4.25,0,5.94,9.91S185.61,234.38,185.61,234.38Z"/><path class="cls-4" d="M410.65,241.67a27.16,27.16,0,0,1,7-7.43,9.85,9.85,0,0,0,2.32-2.56c3.19-4.8,4.9-13.24,4.9-16.54,0-4,4.45-17,4.45-17"/><path class="cls-3" d="M405.11,176.92s.57-5.24,4.75,4.62,9.49,48.67,9.49,48.67S403.21,192.24,405.11,176.92Z"/><path class="cls-3" d="M425.29,211.53s-9.13-36.29-1.48-49.45c0,0,2.75-3.61,2.54,5.94S425.29,211.53,425.29,211.53Z"/><path class="cls-3" d="M428.05,200.92s10.82-34.38,17.83-33.75c0,0,6.36.64-17.83,34.6"/><path class="cls-3" d="M424.87,215.14s25.25-30.77,32.68-28.86c0,0,1.7-.22,1.27,2.54S424.87,215.14,424.87,215.14Z"/><path class="cls-3" d="M421.9,229.36s30.34-26.74,40.32-22.71a1.7,1.7,0,0,1,.42,2.55c-1.06,1.69-21.64,11-24.83,13.16S427.84,229.36,421.9,229.36Z"/><path class="cls-3" d="M412.13,238.49s-24.4-24.41-19.1-37.57c0,0,1.27-2.55,6.58,8.06S412.13,238.49,412.13,238.49Z"/><path class="cls-3" d="M421.05,238.91c.85,0,33.53-13.58,39.68-11.89,0,0,1.91.22,2.13,1.49s-5.95,3.4-17,6.58S421.05,238.91,421.05,238.91Z"/><path class="cls-3" d="M404.49,238.91c0-.64-15.92-20.16-16.76-15.49s16.76,15.49,16.76,15.49"/><path class="cls-3" d="M496.6,266.29a53.2,53.2,0,0,1-8.91-14.65c-3.19-8.27-7.43-23.55-4.25-24.62s5.31,4,6.37,7.86,1.27,14.64,4.46,19.52S496.6,266.29,496.6,266.29Z"/><path class="cls-3" d="M507.21,272.23s-3.18-27.17,4-30.14S507.21,272.23,507.21,272.23Z"/><path class="cls-3" d="M514,276.48s-3-15.71,4.66-18.68S514,276.48,514,276.48"/><path class="cls-3" d="M501.48,268.41s-3.6-7.22-5.3-20.16-1.28-34.6,4-35.87.64,40.54,1.7,45S501.48,268.41,501.48,268.41Z"/><path class="cls-3" d="M166.07,349.39c-7-4.8-9-16-10.82-23.87-3.17-14.14-13.1-26.24-14.91-40.93-.59-4.8-.67-16.7,7.12-13.64,6.87,2.69,7.36,21.59,8.75,27.53C159.85,314,167,333.59,166.07,349.39Z"/><path class="cls-3" d="M171.74,361.72s-13.58.57-25.19-20.65-33.1-62.26-36.5-70.75-5.66-18.39,3.4-14.71,37.92,77.82,41.88,83.19,9.9,23.49,16.69,24.34"/><path class="cls-3" d="M173.33,365.5c-6.73-2-14.62-3.27-20.68-7.32-16.22-10.85-32.56-27-42-44.14-2.36-4.29-3-11.67-.14-15.31,6.36,4.84,10.68,16.76,15.54,23.68C138.17,339.69,154.07,355.51,173.33,365.5Z"/><path class="cls-3" d="M539.9,343.33s6.79-14.43,4.67-30.14-9.34-60.7-1.28-59.42,12.31,79.37-2.54,91.26"/><path class="cls-3" d="M539.05,354.37s14.86-20.38,18.68-35.66,5.09-72.16,11.46-73S581.5,336.11,539.05,354.37Z"/><path class="cls-3" d="M535.65,359.46s36.08-25.47,45.42-46.69c0,0,4.25-8.92,8.07-5.94S563.24,356.91,535.65,359.46Z"/><path class="cls-3" d="M533.53,362s51.36-5.1,51.36-21.23c0,0-1.27-3-8.49.43S538.2,360.31,533.53,362Z"/><path class="cls-5" d="M468.3,268.06C451.89,255.89,414,237.78,414,237.78"/><path class="cls-6" d="M394.16,357.76s30.57-3.68,45,1.13,33.67,24.34,52.07,22.08,61.69-9.63,52.06-52.36-25.46-50.65-45-63.38-64.24-28-75.56-27.74-27.16,0-92.53,15.57S197.49,298.62,183.34,308s-16.69,8.2-19.24,18.67-2.26,30.57,0,32.83,41.6,31.13,49,35.09,20.37,1.13,26.31-4,17-12.17,28.58-15.28,28.3-7.64,48.68-9.34S394.16,357.76,394.16,357.76Z"/><path class="cls-7" d="M468,267.46c-4-2.54-7.88-5.13-11.72-7.82l-.21-.09A116.54,116.54,0,0,1,442.7,252a104.62,104.62,0,0,1-9.95-5.63c-3.7-1.72-7.36-3.51-10.94-5.46-1.05-.41-2.1-.84-3.16-1.23-9.65,2.27-19.38,4.21-29.18,5.7a238.57,238.57,0,0,1-24.32,5.75c-11.76,3.56-23.51,7.16-35.28,10.69,11.52,9.39,22.74,19.14,34.25,28.55,17.24-5,38.13-10.38,57.42-14.14,15.62-3.05,31.37-5.42,47.17-7.46C468.49,268.34,468.24,267.9,468,267.46Z"/><path class="cls-8" d="M416.35,237.67c-11.75.47-31.89,2.47-86.14,15.39-65.37,15.56-132.72,45.56-146.87,54.9s-16.69,8.2-19.24,18.67-2.26,30.57,0,32.83c.58.58,3.65,3,8,6.2a106.45,106.45,0,0,0-1.78-13.18,3.79,3.79,0,0,1-3.52-4.06c0-1.27.1-2.5.23-3.7,0-.17,0-.35,0-.54a35,35,0,0,1,3-14.08,11.29,11.29,0,0,1,3.78-6.54,4,4,0,0,1,4.54-.8,52.33,52.33,0,0,1,10.88-7.64,4,4,0,0,1,1.36-.92q8.93-3.88,18-7.17c3.22-1.41,6.5-2.68,9.81-3.85a3.88,3.88,0,0,1,2.88-3c24.49-7.12,49-14.3,73.46-21.37a4,4,0,0,1,1.08-.7A222.9,222.9,0,0,1,322.86,268q3.9-1.51,7.83-2.93c1.56-1.89,4-2.63,6.42-3l.58-.09a4,4,0,0,1,1.3-.44c.65-.11,1.29-.23,1.93-.36a4.19,4.19,0,0,1,1.6-.77c1.54-.4,3.06-.82,4.58-1.25,2-.69,3.93-1.29,5.92-1.82a40.66,40.66,0,0,1,6.92-2l1.58-.59.25-.11a71.14,71.14,0,0,1,14.42-4c.82-.16,1.65-.34,2.48-.53A2.11,2.11,0,0,1,379,250a34.26,34.26,0,0,1,9.9-2.6,3.92,3.92,0,0,1,.6-.23,45.73,45.73,0,0,1,8.71-2.19,54.92,54.92,0,0,1,6.39-1.2,25.45,25.45,0,0,1,5.9-1,57.28,57.28,0,0,1,6.55-1.56c1-.32,1.94-.62,2.92-.89A37.5,37.5,0,0,1,416.35,237.67Z"/><path class="cls-9" d="M276.56,323.25a351.64,351.64,0,0,1,54-21.34c11.44-4.18,23.05-7.94,34.74-11.4-10.65-9.13-21.28-18.29-32.43-26.79C313.66,270.11,294.64,277.18,275,282c-26.63,9.47-53.58,18-80,28-5.43,2.71-10.74,5.63-15.88,8.85-2.22,1.85-4.64,3.86-6.91,6,13.63,9.19,27.57,17.91,41.26,27a18.12,18.12,0,0,1,2.64-3.06,4,4,0,0,1,1.65-1.47l.54-.26,0,0a4.56,4.56,0,0,1,1.16-.56,220.41,220.41,0,0,1,21.57-9,3.82,3.82,0,0,1,1.61-1.21c10.91-4.68,22-8.82,33.25-12.58A4.39,4.39,0,0,1,276.56,323.25Z"/><path class="cls-8" d="M530.92,338.52c-.19-1.28-.4-2.57-.62-3.87-.28-.8-.56-1.61-.83-2.41-.61-1-1.23-2.06-1.84-3.09-1.41-1.47-2.88-2.89-4.27-4.35a30.28,30.28,0,0,1-4.22-4.84,3.33,3.33,0,0,1-1.56-1l-.05-.05-.57-.34a4.15,4.15,0,0,1-1.17-1.05c-1.92-1.19-4-2.05-5.84-3.41a5.91,5.91,0,0,1-1.28-1.32c-2.45-1.23-4.88-2.46-7.27-3.74a5.92,5.92,0,0,1-1.68,0c-2.63-.45-5.23-1-7.85-1.49a3.47,3.47,0,0,1-.79-.25c-15.84,2.34-31.71,4.52-47.58,6.7a3.08,3.08,0,0,1-.95.34c-3.28.61-6.58,1.17-9.85,1.85a4.25,4.25,0,0,1-1.61.7,140.42,140.42,0,0,1-14.93,2.36,75.35,75.35,0,0,1-14.9,2.51q-16.81,3.42-33.66,6.6c-19.15,4.37-38.33,8.52-57.67,12-3.5.9-7,1.71-10.61,2.3-15.46,4.3-31,8.36-46.26,13.31q-5.2,2.22-10.32,4.69c-5.14,5.2-10.72,10.1-17.4,13a4.66,4.66,0,0,1-.8.54c-2.5,1.33-3.92,3.4-7,3.55-2.59.13-5.13-.76-7.58-1.59a35.91,35.91,0,0,1-4.36-1,3.84,3.84,0,0,1-1.71-.07c-1.29-.34-2.57-.71-3.85-1.1a4.53,4.53,0,0,1-1.41-.39c-.18-.09-.36-.16-.55-.24-.85-.28-1.7-.58-2.54-.9a4.36,4.36,0,0,1-2-.34c-1.92-.83-3.79-1.75-5.67-2.67a3.87,3.87,0,0,1-1.38-.3c-.35-.14-.68-.29-1-.44h0l-.12-.07c-3.81-1.83-6.26-4.58-8.78-7.95A47,47,0,0,1,164,344.4a4.22,4.22,0,0,1-1.66.2c-.06,7.26.58,13.64,1.8,14.86,2.26,2.26,41.6,31.13,49,35.09s20.37,1.13,26.31-4,17-12.17,28.58-15.28,28.3-7.64,48.68-9.34,77.53-8.21,77.53-8.21,30.57-3.68,45,1.13,33.67,24.34,52.07,22.08c8.81-1.09,23.35-3.35,35-10.11a64.78,64.78,0,0,0,4-9C533,353.88,532.17,346.64,530.92,338.52Z"/><path class="cls-10" d="M497.8,376.3c-8.09-.67-15.62-3.46-22.95-6.81-12.92-5.93-25.39-12.59-39.44-15.49-14.7-3-30-1.45-44.8-.61-16.84,1-33.64,2.41-50.38,4.46-8.11,1-16.19,2.27-24.32,3.11-7.73.8-15.51,1.38-23.17,2.75-15.53,2.78-29.1,10.43-43.17,17.18-11.94,5.73-24.68,12.32-38.27,9.94a45.43,45.43,0,0,1-6.61-1.69c3.79,2.6,6.8,4.57,8.37,5.41,7.35,4,20.37,1.13,26.31-4s17-12.17,28.58-15.28,28.3-7.64,48.68-9.34,77.53-8.21,77.53-8.21,30.57-3.68,45,1.13,33.67,24.34,52.07,22.08c7.08-.88,17.85-2.51,27.87-6.62A71.12,71.12,0,0,1,497.8,376.3Z"/><path class="cls-11" d="M517.83,374.74a18.78,18.78,0,0,0,4.62-2.84,21,21,0,0,0,3.72-3.94,23.47,23.47,0,0,0,4.05-10,72.89,72.89,0,0,0,1.3-10.79,33,33,0,0,0-1.38-10.69c-2.11-6.93-7-12.72-12.7-17a79.41,79.41,0,0,0-19-10.24l.08,0a78.08,78.08,0,0,0-19.8-.3c-1.65.16-3.27.48-4.91.72l-4.92.88L459,312.4q-19.65,3.75-39.27,7.65l-78.49,15.63-19.62,3.93-9.8,2c-1.59.3-3.23.71-4.84,1.11l-4.84,1.22c-12.92,3.29-25.8,6.73-38.51,10.69-3.17,1-6.33,2-9.45,3.16a69.5,69.5,0,0,0-9.06,3.82,9,9,0,0,0-1,.6c-.32.2-.65.42-1,.68l-2,1.48-4,3c-2.68,2-5.36,4-8.18,5.85a40.39,40.39,0,0,1-9.08,4.75,12.72,12.72,0,0,1-2.65.55,8.8,8.8,0,0,1-1.35.05c-.44,0-.88,0-1.3-.06-.86-.05-1.71-.14-2.55-.26s-1.68-.24-2.51-.38a86.91,86.91,0,0,1-19.38-5.69,55.67,55.67,0,0,1-8.92-4.89l-2.06-1.54c-.67-.53-1.28-1.15-1.92-1.72a16.9,16.9,0,0,1-1.77-1.91l-.84-1-.74-1c-2-2.7-4-5.3-5.81-8.26a13.85,13.85,0,0,1-1.9-5,18.64,18.64,0,0,1,.14-5.24c.24-1.68.52-3.33.79-5s.54-3.3.94-5a20.21,20.21,0,0,1,1.77-4.91,17.34,17.34,0,0,1,3.14-4.19,45.61,45.61,0,0,1,8.06-6.23l2.14-1.34c.72-.43,1.49-.8,2.24-1.2,1.5-.83,3-1.5,4.57-2.18,3.05-1.42,6.17-2.6,9.25-3.9l9.34-3.63q9.36-3.56,18.78-6.93c12.56-4.52,25.17-8.88,37.8-13.17s25.26-8.55,38.07-12.44c6.43-1.74,12.78-3.76,19.17-5.68l19.16-5.76c12.8-3.79,25.61-7.5,38.5-10.94,6.46-1.68,12.91-3.38,19.44-4.76,3.26-.73,6.56-1.22,9.81-2l9.78-2.12-9.76,2.23c-3.24.8-6.53,1.33-9.78,2.09-6.51,1.45-12.94,3.22-19.37,5-12.85,3.58-25.62,7.43-38.37,11.35l-19.1,5.94c-6.38,2-12.72,4-19.17,5.8-12.69,3.94-25.32,8.32-37.92,12.65s-25.18,8.8-37.7,13.39c-6.25,2.3-12.5,4.6-18.73,7l-9.3,3.64c-3.06,1.29-6.18,2.49-9.18,3.89-1.51.67-3,1.34-4.45,2.13-.72.39-1.46.74-2.16,1.16l-2.1,1.32a44.87,44.87,0,0,0-7.74,6c-4.84,4.45-4.92,11.58-6.1,18a17.18,17.18,0,0,0-.14,4.73,11.9,11.9,0,0,0,1.68,4.3c1.65,2.76,3.75,5.4,5.71,8.08l.75,1,.78.91a15,15,0,0,0,1.63,1.75c.6.54,1.17,1.11,1.8,1.61l2,1.46a53.38,53.38,0,0,0,8.61,4.68,84.78,84.78,0,0,0,18.93,5.53c.81.13,1.63.27,2.44.36s1.62.19,2.43.24a9.55,9.55,0,0,0,1.19.05,6.23,6.23,0,0,0,1.15,0,10,10,0,0,0,2.23-.48,38,38,0,0,0,8.58-4.53c2.75-1.82,5.42-3.79,8.1-5.77l4-3,2-1.49c.32-.25.68-.49,1.07-.74s.76-.47,1.14-.67a69.57,69.57,0,0,1,9.36-3.93c3.16-1.13,6.34-2.17,9.53-3.17,12.77-3.95,25.68-7.37,38.62-10.64l4.86-1.21c1.63-.4,3.22-.81,4.91-1.12l9.82-2L340.92,334l39.27-7.73,39.29-7.59q19.66-3.75,39.33-7.41l9.85-1.78,4.93-.86c1.66-.23,3.32-.55,5-.7a84.38,84.38,0,0,1,10.05-.42,66.53,66.53,0,0,1,10,.89h.09a80.27,80.27,0,0,1,19.1,10.56c5.76,4.43,10.66,10.38,12.73,17.46a33.34,33.34,0,0,1,1.28,10.83A74.17,74.17,0,0,1,530.45,358a23.54,23.54,0,0,1-4.19,10,21.26,21.26,0,0,1-3.78,3.92A18.78,18.78,0,0,1,517.83,374.74Z"/><path class="cls-11" d="M521.79,282.77a78.48,78.48,0,0,0-9.18-6.19,76.65,76.65,0,0,0-9.89-4.94,58.79,58.79,0,0,0-10.51-3.3l-1.34-.3-1.36-.2c-.91-.13-1.81-.27-2.72-.38l-2.74-.15c-.46,0-.91-.07-1.37-.05l-1.37.06c-.91.05-1.82.07-2.73.14l-2.75.3c-1.83.19-3.66.47-5.49.71q-5.47.76-10.95,1.67c-7.29,1.19-14.56,2.49-21.83,3.84l-21.78,4.15-10.88,2.14-5.43,1.1-2.71.56c-.87.22-1.71.45-2.61.71-14.15,4.21-28.25,8.7-42.31,13.23s-28.13,9.1-42,14.07l-5.19,1.91c-1.72.65-3.43,1.34-5.14,2s-3.35,1.44-5,2.19-3.37,1.58-5.07,2.31c-6.78,3-13.65,5.75-20.53,8.47s-13.78,5.38-20.68,8-13.86,5.25-20.64,8a88.82,88.82,0,0,0-9.83,5,19.09,19.09,0,0,0-4.15,3.49,16.65,16.65,0,0,0-2.58,4.77c-1.38,3.42-2.61,6.92-4.19,10.28a28.82,28.82,0,0,1-2.79,4.81,9.89,9.89,0,0,1-1.93,2,4.32,4.32,0,0,1-2.57.93,4.3,4.3,0,0,0,2.52-1,9.44,9.44,0,0,0,1.86-2,27.71,27.71,0,0,0,2.63-4.85c1.5-3.37,2.66-6.88,4-10.34a16.93,16.93,0,0,1,2.58-5,19.87,19.87,0,0,1,4.22-3.71,88.42,88.42,0,0,1,9.83-5.24c3.43-1.53,6.86-2.84,10.29-4.23l10.31-4.11q10.29-4.1,20.56-8.28c6.84-2.81,13.67-5.64,20.41-8.62,1.69-.74,3.35-1.52,5-2.31s3.4-1.55,5.12-2.25,3.44-1.39,5.17-2.05l5.21-1.94c13.93-5,28-9.7,42.05-14.26s28.2-8.91,42.42-13.07c.88-.26,1.82-.51,2.74-.74l2.72-.55,5.45-1.08,10.89-2.1q10.91-2.08,21.84-4c7.29-1.26,14.59-2.47,21.91-3.57q5.48-.84,11-1.54c1.84-.22,3.68-.48,5.52-.64l2.77-.28c.93-.06,1.87-.06,2.81-.09l1.4,0c.47,0,.93.06,1.4.08l2.79.21c.92.13,1.84.3,2.76.44l1.38.23,1.36.34a60.28,60.28,0,0,1,10.55,3.54A80.72,80.72,0,0,1,521.79,282.77Z"/><path class="cls-11" d="M168.63,330A56,56,0,0,0,176,340.88a51.22,51.22,0,0,0,9.63,8.69,44,44,0,0,0,5.56,3.33,50.24,50.24,0,0,0,6,2.61,68.21,68.21,0,0,0,12.77,3.1A42.56,42.56,0,0,1,196.69,357a41.68,41.68,0,0,1-12.18-5.78,46.78,46.78,0,0,1-5.23-4.29,43.73,43.73,0,0,1-4.47-5.06A37.62,37.62,0,0,1,168.63,330Z"/><circle class="cls-12" cx="211.92" cy="341.07" r="3.68"/><circle class="cls-13" cx="198.2" cy="331.87" r="3.68"/><circle class="cls-14" cx="185.46" cy="323.95" r="3.68"/><path class="cls-15" d="M200.6,312.2c2.71,1.32,5.34,2.76,8,4.24s5.18,3,7.73,4.64,5,3.28,7.46,5.06A46.77,46.77,0,0,1,230.6,332c-.6-.46-1.16-1-1.76-1.4s-1.2-.9-1.82-1.31q-1.83-1.31-3.71-2.53c-2.52-1.62-5-3.25-7.56-4.85l-7.59-4.82C205.63,315.48,203.1,313.88,200.6,312.2Z"/><path class="cls-15" d="M224.78,303.63c2.59,1.45,5.12,3,7.64,4.53s5,3.15,7.51,4.76,4.94,3.25,7.38,4.94L251,320.4c1.19.88,2.41,1.73,3.58,2.64-1.3-.72-2.56-1.49-3.85-2.22l-3.8-2.31c-2.52-1.54-5-3.15-7.5-4.76s-4.94-3.25-7.37-4.95S227.14,305.42,224.78,303.63Z"/><path class="cls-15" d="M251.73,294.23c2.5,1.6,4.93,3.3,7.35,5s4.81,3.45,7.19,5.21,4.73,3.56,7.05,5.4l3.48,2.77c1.14.95,2.3,1.87,3.42,2.85-1.26-.8-2.48-1.64-3.71-2.46l-3.65-2.54c-2.42-1.7-4.81-3.46-7.19-5.22s-4.73-3.55-7.05-5.4S254,296.16,251.73,294.23Z"/><path class="cls-15" d="M276.29,284.47c2.38,1.78,4.68,3.64,7,5.51s4.55,3.79,6.8,5.71,4.47,3.89,6.65,5.89l3.27,3c1.07,1,2.16,2,3.2,3.08-1.19-.88-2.34-1.81-3.52-2.71l-3.45-2.8c-2.3-1.86-4.55-3.78-6.8-5.71s-4.47-3.89-6.65-5.89S278.4,286.56,276.29,284.47Z"/><path class="cls-15" d="M299.78,277.33c2.43,1.7,4.8,3.48,7.15,5.28s4.68,3.63,7,5.48,4.59,3.74,6.84,5.67l3.37,2.89c1.1,1,2.22,2,3.3,3-1.22-.84-2.41-1.73-3.61-2.59l-3.54-2.68c-2.37-1.79-4.68-3.64-7-5.49s-4.59-3.74-6.84-5.67S302,279.35,299.78,277.33Z"/><path class="cls-15" d="M323.65,268.05c2.42,1.72,4.78,3.51,7.12,5.32s4.66,3.66,7,5.52,4.57,3.77,6.81,5.71l3.35,2.91c1.09,1,2.21,2,3.29,3-1.22-.85-2.4-1.75-3.6-2.62l-3.53-2.7c-2.35-1.8-4.65-3.66-6.95-5.52s-4.58-3.76-6.81-5.71S325.81,270.09,323.65,268.05Z"/><ellipse class="cls-16" cx="293.34" cy="297.05" rx="32.05" ry="10.21" transform="translate(-27.14 29.51) rotate(-5.5)"/><path class="cls-11" d="M285.84,284.26s.76,8.08-.5,9.34S272,305,270.19,304s6.06-9.34,7.57-13.89a20.87,20.87,0,0,0,1.27-7.57Z"/><path class="cls-11" d="M303.51,284.26s-.76,8.08.5,9.34S317.4,305,319.17,304s-6.06-9.34-7.58-13.89a21,21,0,0,1-1.26-7.57Z"/><path class="cls-17" d="M269.93,216.41s4.82,66.79,3.68,70.18c0,0-.56.85,3.4,1.42s17.26,2,17.54.28-.28-76.41-.28-76.41l7.36-2.82s-2,78.38-1.13,78.38,18.67,3.4,19.24,1.7,4.53-88.86,4.53-88.86Z"/><path class="cls-18" d="M294.32,216.91c0-4.42-.05-7.15-.05-7.15l7.36-2.83s-.07,2.76-.18,7.23c7.45-2.82,14.94-5.51,22.46-8.15.22-4.87.36-7.85.36-7.85l-54.34,16.13s.37,5.09.88,12.52C278.55,223.29,286.4,220,294.32,216.91Z"/><path class="cls-19" d="M356.65,84.78a4.31,4.31,0,0,0-5-1.8c-6.1,1.62-12.22,4.47-18.2,6.59l-45.19,16-48.42,17.17c-9.9,3.51-19.81,7-29.69,10.52-7.48,2.71.24,16.4,2.07,21.54l9.49,26.68,16,44.93c2.24,6.29,10.78,1.63,15,.13l18.17-6.41,50.51-17.81L369,185.56q8.93-3.15,17.85-6.29a2.54,2.54,0,0,0,1.08-.59,2.38,2.38,0,0,0,.49-1.29c.89-5.74-2.91-12.65-4.81-18L374.91,135,358.68,89.25A18.39,18.39,0,0,0,356.65,84.78Z"/><path class="cls-20" d="M383.57,159.39q-4.32-12.21-8.66-24.41L358.68,89.25a18.39,18.39,0,0,0-2-4.47,4.31,4.31,0,0,0-5-1.8c-6.1,1.62-12.22,4.47-18.2,6.59l-45.19,16-48.42,17.17-4.29,1.51c9.41,0,18.65-2.58,27.59-5.52,10.71-3.51,21.27-7.26,32.07-10.51,6.26-1.88,12.42-4.09,18.6-6.2,4.64-1.58,9.37-2.88,13.82-4.94,6.1-2.81,13.53-7.14,20.48-5,8.7,2.68,10.23,14.69,12.75,22,3.47,10.09,8.16,19.61,11.81,29.6,3,8.07,7.2,19.08,4.12,27.65-2.95,8.24-12,13.34-19,17.81-.38.25-.77.48-1.15.72L369,185.56q8.93-3.15,17.85-6.29a2.54,2.54,0,0,0,1.08-.59,2.38,2.38,0,0,0,.49-1.29C389.27,171.65,385.47,164.74,383.57,159.39Z"/><path class="cls-21" d="M256.59,116.81a78.07,78.07,0,0,0-3.67,11.79,15.54,15.54,0,0,0-.44,5.3c.09.66.65,2,.62,2.26a59.91,59.91,0,0,0,6.58.31c1.75-8.71,6.23-16.51,10.21-24.38Z"/><path class="cls-21" d="M241.44,148.57c7.67,3.66,17.93,2,26.22,2.15a103.06,103.06,0,0,0,14.38-.46c2.17-.27,8.09-.75,9-3.32,1-2.82-4.7-1.61-6.25-1.44-3.86.42-7.66,1.44-11.54,1.69-6.26.42-13.16.95-19.32-.51a26.4,26.4,0,0,1-7.83-3.35,3.28,3.28,0,0,1-.72-.46l-.73-.49a32.73,32.73,0,0,0-6.25-3.84C237.47,142.43,237.37,146.62,241.44,148.57Z"/><path class="cls-19" d="M244.61,121.06c-.94,3.2-2.3,6.3-3.54,9.42a22.22,22.22,0,0,1,2.86,1.39A38.53,38.53,0,0,1,246,120.56Z"/><circle class="cls-12" cx="352" cy="166.89" r="10.05"/><circle class="cls-22" cx="364.45" cy="161.66" r="10.05"/><rect class="cls-23" x="237.25" y="157.41" width="19.67" height="14.86" transform="matrix(0.94, -0.33, 0.33, 0.94, -40.36, 90.02)"/><line class="cls-5" x1="303.6" y1="113.62" x2="347.77" y2="97.64"/><line class="cls-5" x1="307.56" y1="124.37" x2="351.73" y2="108.39"/><path class="cls-24" d="M261,158.76a1.44,1.44,0,0,1,1.07.58,2.78,2.78,0,0,1,.56,1.11,3.06,3.06,0,0,1-.36,2.34,6.19,6.19,0,0,1-.37-1.1l-.24-1c-.07-.33-.17-.64-.26-1A7.67,7.67,0,0,0,261,158.76Z"/><path class="cls-24" d="M262.15,157a3.79,3.79,0,0,1,1.49,1,4.85,4.85,0,0,1,1,1.48,3.92,3.92,0,0,1,.31,1.82,3,3,0,0,1-.63,1.68,10.42,10.42,0,0,0-.15-1.65,6.59,6.59,0,0,0-.45-1.45A21.83,21.83,0,0,0,262.15,157Z"/><path class="cls-24" d="M263.85,155.43a4.33,4.33,0,0,1,1.84,1.2,6.15,6.15,0,0,1,1.22,1.88,6.35,6.35,0,0,1,.46,2.18,5.71,5.71,0,0,1-.34,2.17c-.17-.72-.27-1.4-.44-2.06a12.9,12.9,0,0,0-.61-1.91,10.62,10.62,0,0,0-.9-1.78A14.08,14.08,0,0,0,263.85,155.43Z"/><path class="cls-24" d="M266.26,153.94a7.09,7.09,0,0,1,1.85,1.69,8.83,8.83,0,0,1,1.29,2.18,7.71,7.71,0,0,1,.53,2.5,5.64,5.64,0,0,1-.49,2.48,17.75,17.75,0,0,0-.29-2.39,13.24,13.24,0,0,0-.68-2.22A33.08,33.08,0,0,0,266.26,153.94Z"/><path class="cls-25" d="M241.35,184.58l3.4-1s2.4,5.09,2.12,5.66-3.54,1.69-3.54,1.27S241.35,184.58,241.35,184.58Z"/><path class="cls-25" d="M247.3,182.45l3.39-1s2.41,5.1,2.12,5.66-3.53,1.7-3.53,1.28S247.3,182.45,247.3,182.45Z"/><path class="cls-25" d="M253.24,180.33l3.39-1s2.41,5.1,2.13,5.66-3.54,1.7-3.54,1.28S253.24,180.33,253.24,180.33Z"/><path class="cls-25" d="M259,178.21l3.4-1s2.4,5.09,2.12,5.66-3.54,1.7-3.54,1.27S259,178.21,259,178.21Z"/><path class="cls-25" d="M271.77,173.82l3.4-1s2.4,5.1,2.12,5.66-3.54,1.7-3.54,1.28S271.77,173.82,271.77,173.82Z"/><path class="cls-25" d="M277.72,171.7l3.39-1s2.41,5.09,2.12,5.66-3.53,1.7-3.53,1.27S277.72,171.7,277.72,171.7Z"/><path class="cls-25" d="M283.66,169.58l3.39-1s2.41,5.09,2.13,5.66-3.54,1.7-3.54,1.27S283.66,169.58,283.66,169.58Z"/><path class="cls-25" d="M289.46,167.46l3.4-1s2.4,5.09,2.12,5.66-3.54,1.69-3.54,1.27S289.46,167.46,289.46,167.46Z"/><path class="cls-25" d="M303.61,162.65l3.39-1s2.41,5.09,2.13,5.66-3.54,1.69-3.54,1.27S303.61,162.65,303.61,162.65Z"/><path class="cls-25" d="M309.55,160.52l3.4-1s2.4,5.1,2.12,5.66-3.54,1.7-3.54,1.28S309.55,160.52,309.55,160.52Z"/><path class="cls-25" d="M315.49,158.4l3.4-1s2.41,5.09,2.12,5.66-3.53,1.7-3.53,1.27S315.49,158.4,315.49,158.4Z"/><path class="cls-25" d="M321.3,156.28l3.39-1s2.41,5.09,2.12,5.66-3.53,1.7-3.53,1.27S321.3,156.28,321.3,156.28Z"/><path class="cls-25" d="M331.48,152.18l3.4-1s2.4,5.09,2.12,5.66-3.54,1.69-3.54,1.27S331.48,152.18,331.48,152.18Z"/><path class="cls-25" d="M337.43,150.05l3.39-1s2.41,5.1,2.12,5.66-3.53,1.7-3.53,1.28S337.43,150.05,337.43,150.05Z"/><path class="cls-25" d="M343.37,147.93l3.39-1s2.41,5.09,2.13,5.66-3.54,1.7-3.54,1.27S343.37,147.93,343.37,147.93Z"/><path class="cls-25" d="M349.17,145.81l3.39-1s2.41,5.09,2.13,5.66-3.54,1.7-3.54,1.27S349.17,145.81,349.17,145.81Z"/><path class="cls-26" d="M282.74,138s10.89-2.69,11.46-2.41.28.71-4.24,2.83c0,0,.28.85,3.11,0,1.7-.51,6.08-2.24,6.29,1a2.16,2.16,0,0,1-1.75,2.2.63.63,0,0,1,.57.1c.92.74-3.7,2.65-3.9,2.72a29.71,29.71,0,0,1-10.55,2Z"/><path class="cls-22" d="M249.35,110.08c-.29-.42-5.38-5.23,0-13.16s3.11-10.47,4.67-12.73.28-3.4-.57-6.08,2-5,2.83-9.34-2.83-5.52-2.26-9.91,6.65-6.79,6.79-9.34.14-6.79,7.92-10.75,10.61-2.12,12-3.25,5.23-1.84,6.65-.43,2.12,3.4,4,3.26,6.37-.29,8.91,3a18.44,18.44,0,0,0,6,5.23c1.27.71,1,5,3,6.09a14,14,0,0,1,6.37,6.93c2,4.25.7,10.33,2.68,11.89s3.82,3.82,3.26,7.49-2.27,4.82-2.27,4.82Z"/><path class="cls-27" d="M253.45,78.11c.85,2.68,2.12,3.82.57,6.08-.92,1.33-.52,2.77-1.12,5.32.72-1.32,1.59-2.54,2.38-3.85,1.07-1.78,1.5-2.73,1-4.8s-1.14-3.62-1-5.68c.21-2.36,1.56-4.42,1.76-6.79s-1-4.27-1.2-6.5c-.4-4.34,2.35-7.18,5-10.19,3-3.39,2.48-8.12,6.27-11.22,3.53-2.89,8.49-3.35,12.78-4.43a12.25,12.25,0,0,1,8.65.54,14.28,14.28,0,0,0-1.24-1.5c-1.42-1.41-5.24-.7-6.65.43s-4.25-.71-12,3.25S261,47,260.81,49.52s-6.23,5-6.79,9.34,3.11,5.52,2.26,9.91S252.6,75.42,253.45,78.11Z"/><path class="cls-27" d="M250.76,97c.3-1.24.47-2.45.73-3.66a30.4,30.4,0,0,1-2.14,3.63c-2.68,4-2.76,7.13-2.13,9.37C247.86,103.12,250,100,250.76,97Z"/><path class="cls-27" d="M308.81,84.32c-2.1-5.52-.93-11.59-2.89-17.14A25.55,25.55,0,0,0,301,59.25c-2.09-2.35-4.35-2.41-7.07-3.51s-4.91-3.4-7.52-5c-3-1.77-4.15-.81-7,.57a43.38,43.38,0,0,1-7.65,2.52c-1.36.38-2.56.64-3.43,1.69-.72.87-.85,2.35-1.54,3.32-1.67,2.32-5,2.68-5.09,5.74-.11,2.81,1.49,5.95,2.74,8.32,1.35,2.54,2.85,5.15,3.11,8.08s-1.08,5.53-2.44,8.18c-2.42,4.71-2.51,10.38-2,15.7l47-17.7C309.63,86.24,309.18,85.29,308.81,84.32Z"/><path class="cls-28" d="M308.21,54.76l-.15.54a12.85,12.85,0,0,0-.27,1.45,7,7,0,0,0-.08,1,5.38,5.38,0,0,0,.1,1A2.54,2.54,0,0,0,309,60.52c.63.51,1.3,1,1.88,1.52a5.66,5.66,0,0,1,1.3,1.73,5.05,5.05,0,0,1,.41,1.46c0,.36,0,.57,0,.57l-.16-.54a6.32,6.32,0,0,0-.61-1.32,5.72,5.72,0,0,0-1.35-1.47c-.58-.47-1.25-.94-1.91-1.45a3.46,3.46,0,0,1-.9-1,3.39,3.39,0,0,1-.41-1.22,4.5,4.5,0,0,1,0-1.16,6.84,6.84,0,0,1,.19-1,7.9,7.9,0,0,1,.51-1.42C308.1,54.94,308.21,54.76,308.21,54.76Z"/><path class="cls-28" d="M303.4,61.13l1.66,2c.49.61,1.09,1.3,1.72,2,.16.2.32.34.5.58a4.08,4.08,0,0,1,.43.69,7.23,7.23,0,0,1,.54,1.54,18.85,18.85,0,0,1,.4,3.08,23.19,23.19,0,0,0,.21,2.63,2.3,2.3,0,0,0,.18.5c.07.16.14.31.21.44a5.72,5.72,0,0,0,.45.68,3.67,3.67,0,0,0,.49.52,2.77,2.77,0,0,1-.58-.44,4.58,4.58,0,0,1-.55-.63,3.08,3.08,0,0,1-.54-1,16.89,16.89,0,0,1-.43-2.68,26.42,26.42,0,0,0-.46-3,7,7,0,0,0-.47-1.4,3.66,3.66,0,0,0-.36-.62c-.11-.17-.31-.38-.45-.57-.61-.78-1.13-1.54-1.57-2.18C303.9,62.05,303.4,61.13,303.4,61.13Z"/><path class="cls-28" d="M265.76,71.46a3.37,3.37,0,0,0,.2.51c.13.33.36.79.57,1.36a18.35,18.35,0,0,1,.63,2,10.91,10.91,0,0,1,.22,1.19,5.09,5.09,0,0,1,0,1.29,21.85,21.85,0,0,0-.34,2.31c-.06.75-.13,1.45-.14,2s0,1.11,0,1.46l0,.56a9.38,9.38,0,0,1-.36-2,17,17,0,0,1-.07-2.09,15.47,15.47,0,0,1,.27-2.4,4.16,4.16,0,0,0,0-1.12c0-.38-.08-.76-.15-1.12-.14-.73-.28-1.42-.44-2s-.25-1.08-.34-1.43A2.75,2.75,0,0,1,265.76,71.46Z"/><path class="cls-28" d="M261.23,61.55a5.6,5.6,0,0,0-.4.67,8.25,8.25,0,0,0-.74,1.9,6.64,6.64,0,0,0-.2,1.32,7.47,7.47,0,0,0,.08,1.48c.09.5.24,1,.34,1.6s.19,1.13.26,1.71a46.55,46.55,0,0,1,.3,6.29c0,.86-.06,1.58-.1,2.08a4.72,4.72,0,0,1-.1.78s0-.29,0-.79-.09-1.21-.14-2.06-.15-1.84-.23-2.91-.2-2.19-.34-3.32-.34-2.19-.53-3.3a7,7,0,0,1,1.31-4.85A5.26,5.26,0,0,1,261.23,61.55Z"/><path class="cls-28" d="M265.19,52.35a3.31,3.31,0,0,1-.07-.56,5.81,5.81,0,0,1,.11-1.52,5.23,5.23,0,0,1,.33-1,4.17,4.17,0,0,1,.63-1,4.64,4.64,0,0,1,1-.82c.19-.09.38-.21.58-.29l.62-.22c.8-.21,1.57-.44,2.28-.69a7.43,7.43,0,0,0,1.83-.91,3.85,3.85,0,0,0,.58-.55,2.92,2.92,0,0,0,.32-.54,3.89,3.89,0,0,0,.16-.54v.15a2.08,2.08,0,0,1-.05.43,2.58,2.58,0,0,1-.78,1.33,6.79,6.79,0,0,1-1.85,1.15,18.6,18.6,0,0,1-2.32.79l-.55.18c-.18.07-.34.16-.51.24s-.31.21-.47.31-.27.24-.41.36a5.35,5.35,0,0,0-.63.83,4.41,4.41,0,0,0-.39.87,6.53,6.53,0,0,0-.33,1.43C265.2,52.15,265.19,52.35,265.19,52.35Z"/><path class="cls-28" d="M288,40.34a3.31,3.31,0,0,1,.54-.18,5.83,5.83,0,0,1,1.52-.18,5,5,0,0,1,1,.14,4.14,4.14,0,0,1,1.1.42,4.4,4.4,0,0,1,1,.81,4.81,4.81,0,0,1,.4.52l.33.57c.36.74.73,1.45,1.12,2.11a7.47,7.47,0,0,0,1.23,1.62,3.13,3.13,0,0,0,.65.46,2.11,2.11,0,0,0,.59.21,3.17,3.17,0,0,0,.56.07l-.15,0a2,2,0,0,1-.42,0,2.64,2.64,0,0,1-1.46-.52,6.74,6.74,0,0,1-1.47-1.6,18.41,18.41,0,0,1-1.22-2.13l-.28-.51c-.1-.16-.23-.3-.34-.45s-.26-.27-.39-.41a4.87,4.87,0,0,0-.43-.33,4.4,4.4,0,0,0-1.86-.68,7.11,7.11,0,0,0-1.47-.06A4.76,4.76,0,0,0,288,40.34Z"/><path class="cls-29" d="M298.3,75.42s12.88.14,13.87.7,17.26,15,17.26,15l-65.51,23.21-7.21,19.1s28.15,2.12,28.43,2.69-.84,12.59-2.12,12.73-41-1.41-42.3-2.69-3.68-.56-1-10.18,13.58-43.3,18.53-46.41,14-6.37,14-6.37Z"/><path class="cls-30" d="M263.88,114.43l0-.1,39.17-13.88-10.32,3c-7.38,2.15-21.83,9.47-23.75-2.85a.41.41,0,0,0,0-.11s0,.09-.05.12a66.09,66.09,0,0,1-3.35,8.5,3.47,3.47,0,0,1-.55.88c-.38,1.22-.8,2.41-1.29,3.6v0h0c-.07.19-.15.37-.23.55Z"/><path class="cls-30" d="M258,145.91a99.93,99.93,0,0,1-13.72-.45c-2.63-.32-4.95-2.47-4.09-5.38,3.85-13,7.7-26,13.3-38.37,2.26-5,4.39-9.7,8.72-13.26a34.63,34.63,0,0,1,4.12-2.89,62.76,62.76,0,0,0-8,4c-4.95,3.11-15.85,36.78-18.53,46.41s-.29,8.91,1,10.18,41,2.83,42.3,2.69c.32,0,.63-.82.91-2-1.7-.2-3.44-.31-4.95-.48C272,146.26,265,146.23,258,145.91Z"/><path class="cls-31" d="M272.27,83.2a56.27,56.27,0,0,0,.3-6l25.89-5.93s.35,3.73,1.75,4.19C300.21,75.49,290.64,90.83,272.27,83.2Z"/><path class="cls-32" d="M272.53,79.81l.4.15c4.5,2,9.62,1.48,14.2.07a29.2,29.2,0,0,0,7-3,19,19,0,0,0,3.1-2.4,6.47,6.47,0,0,0,1.35-1.47c.27-.58,0-1.2-.08-1.81l-25.89,5.93C272.6,78,272.57,78.9,272.53,79.81Z"/><path class="cls-26" d="M301,51.51s.71-3.4,2.55-2.83,1.7,5.09-1.13,6.65c0,0,3.68,18.81-14.44,24s-23.48-10.9-24.61-15.71c0,0,2.54-.28,4.38-5.37s6.37-5.38,8.63-7.93,4.67-6.79,3.82-10.75c0,0,2.83,4,5.1,3.68s5.09-1,6.08,1.27,3.68,3.26,5.94,4.11A8.79,8.79,0,0,1,301,51.51Z"/><path class="cls-26" d="M303.54,48.68a1.55,1.55,0,0,0-1.79.89,4.14,4.14,0,0,1,1,2.64c0,1,.05,1.91,0,2.86C305.24,53.34,305.29,49.21,303.54,48.68Z"/><path class="cls-33" d="M294.36,75.18a30.11,30.11,0,0,1-9.4,4.88,29.07,29.07,0,0,0,3-.68c14.08-4.07,15-16.34,14.7-21.61C302.17,64.46,300,70.79,294.36,75.18Z"/><path class="cls-34" d="M266.41,62.1a18.65,18.65,0,0,1,3.39-6.16,10.72,10.72,0,0,1,3.56-2.53c2.22-1.44,4.38-2.37,5.84-4.79,1.63-2.68,1.59-4.83,1.7-7.8,0-.1,0-.19,0-.28-.45-.53-.73-.92-.73-.92.85,4-1.55,8.21-3.82,10.75s-6.79,2.83-8.63,7.93-4.38,5.37-4.38,5.37c.06.26.13.56.22.88C264.48,63.72,265.49,62.94,266.41,62.1Z"/><path class="cls-11" d="M292.36,53.2l.25.5c.15.31.39.75.67,1.27a11.84,11.84,0,0,0,1.07,1.66,2.56,2.56,0,0,0,.72.65.58.58,0,0,0,.68,0,1.17,1.17,0,0,0,.3-.76,5.36,5.36,0,0,0,0-1.06,19.16,19.16,0,0,0-.3-2c-.12-.58-.21-1.07-.3-1.41l-.12-.54a12,12,0,0,1,.88,1.81,9.55,9.55,0,0,1,.58,2,4.9,4.9,0,0,1,.08,1.23,1.9,1.9,0,0,1-.63,1.37,1.39,1.39,0,0,1-.36.19l-.43.08a1.61,1.61,0,0,1-.77-.21,2.94,2.94,0,0,1-.93-.93,6,6,0,0,1-.55-1,7.24,7.24,0,0,1-.36-.92,13.62,13.62,0,0,1-.39-1.42C292.38,53.41,292.36,53.2,292.36,53.2Z"/><path class="cls-11" d="M270,60.28l.25.52c.16.33.4.8.69,1.35A16.28,16.28,0,0,0,272,64a3.74,3.74,0,0,0,.73.8c.27.23.52.3.72.19s.32-.33.36-.69a5.14,5.14,0,0,0,0-1.11c-.06-.75-.19-1.47-.3-2.08s-.22-1.13-.3-1.49l-.12-.57a14.15,14.15,0,0,1,.89,1.93,11.31,11.31,0,0,1,.58,2.12,5,5,0,0,1,.05,1.3,2.05,2.05,0,0,1-.2.73,1.21,1.21,0,0,1-.25.37,1.06,1.06,0,0,1-.39.27,1.36,1.36,0,0,1-.89.06,2,2,0,0,1-.68-.39,4.18,4.18,0,0,1-.84-1,10.27,10.27,0,0,1-.89-2A12.27,12.27,0,0,1,270,60.28Z"/><path class="cls-35" d="M283.73,55.33a8.13,8.13,0,0,0,.5,1.08,3.47,3.47,0,0,0,.68.88,1.9,1.9,0,0,0,.47.33,3.42,3.42,0,0,0,.61.23,4,4,0,0,1,.72.35,1.25,1.25,0,0,1,.58.78,1.33,1.33,0,0,1-.12.83,3.47,3.47,0,0,1-.33.55,5.14,5.14,0,0,1-.85.91l.11-.33.31-.81a1.81,1.81,0,0,0,.16-1c0-.09-.13-.16-.29-.26a3.48,3.48,0,0,0-.58-.25,4.72,4.72,0,0,1-.72-.32,2.13,2.13,0,0,1-.62-.53,3,3,0,0,1-.59-1.22A2.88,2.88,0,0,1,283.73,55.33Z"/><path class="cls-36" d="M282.65,65.53l1.21,0c.36,0,.77,0,1.19-.1.22,0,.43-.08.65-.1s.44-.08.66-.15A5.64,5.64,0,0,0,287,65a3.54,3.54,0,0,0,.59-.27,3.72,3.72,0,0,0,.52-.3,3.25,3.25,0,0,0,.45-.32l.38-.3.27-.27.25-.22s0,.11-.11.32a3,3,0,0,1-.43.8,2.28,2.28,0,0,1-.41.48,2.62,2.62,0,0,1-.53.45,4.28,4.28,0,0,1-1.38.65,5.54,5.54,0,0,1-1.49.19,5.36,5.36,0,0,1-1.28-.17A4.11,4.11,0,0,1,282.65,65.53Z"/><path class="cls-37" d="M290,51.75a2.75,2.75,0,0,1,.44-1,3.69,3.69,0,0,1,.73-.84,3.31,3.31,0,0,1,.52-.38,4.2,4.2,0,0,1,.6-.3,3.69,3.69,0,0,1,.65-.18,2.85,2.85,0,0,1,.64-.07,3.86,3.86,0,0,1,.6,0,2.64,2.64,0,0,1,.52.12,2.82,2.82,0,0,1,.71.32,2.08,2.08,0,0,1,.25.15h-.62a2.91,2.91,0,0,0-.41,0,3.83,3.83,0,0,0-.47,0l-.51.06a5.69,5.69,0,0,0-1.05.3,6.08,6.08,0,0,0-1,.49c-.14.1-.3.18-.43.28a4.18,4.18,0,0,0-.38.29C290.36,51.45,290,51.75,290,51.75Z"/><path class="cls-37" d="M268.45,59.84a5.43,5.43,0,0,1,.75-.83,8.62,8.62,0,0,1,2-1.4,6,6,0,0,1,1.27-.45,3,3,0,0,1,1.21,0,1.13,1.13,0,0,1,.48.15.82.82,0,0,1,.31.22l.2.24-.29-.1c-.07,0-.2,0-.31,0a1.85,1.85,0,0,0-.4,0,2.89,2.89,0,0,0-.47.11c-.16,0-.34.12-.52.17-.35.15-.73.31-1.11.5l-1.11.55-1,.49C268.88,59.69,268.45,59.84,268.45,59.84Z"/><path class="cls-38" d="M302.76,53.34l-.5-2.4c.2-.62.5-1.36,1.11-.82.88.78.52,2.38-.25,3.09"/><path class="cls-39" d="M264,114.54s.05-.24.15-.64.25-1,.45-1.67c.4-1.37,1-3.17,1.66-5s1.39-3.53,2-4.82c.29-.65.57-1.18.75-1.56s.31-.58.31-.58-.05.24-.15.64-.25,1-.45,1.67c-.4,1.37-1,3.17-1.66,5s-1.39,3.53-2,4.82c-.3.65-.57,1.18-.75,1.56S264,114.54,264,114.54Z"/><path class="cls-39" d="M312.17,83.77s.46.62,1.05,1.61,1.32,2.34,2,3.72,1.27,2.79,1.67,3.87.61,1.83.61,1.83a19.26,19.26,0,0,1-1.05-1.62c-.6-1-1.32-2.33-2-3.71s-1.26-2.79-1.66-3.88S312.17,83.77,312.17,83.77Z"/><ellipse class="cls-40" cx="273.65" cy="68.68" rx="1.59" ry="0.85" transform="translate(-6.26 104.07) rotate(-21.29)"/><ellipse class="cls-40" cx="297.95" cy="60.11" rx="1.59" ry="0.85" transform="translate(-1.36 113.02) rotate(-21.43)"/><path class="cls-24" d="M141.36,160.28v.7a2.12,2.12,0,0,1-.7,1.53,4.26,4.26,0,0,1-2.07.86h-.32v.5a2.42,2.42,0,0,1,0,.47,1,1,0,0,1-.15.37.42.42,0,0,1-.33.14.36.36,0,0,1-.31-.13.73.73,0,0,1-.15-.32,2.15,2.15,0,0,1-.06-.47c0-.18,0-.37,0-.56a6.42,6.42,0,0,1-2.15-.38l-.67-.31a2.77,2.77,0,0,1-.58-.37.59.59,0,0,1-.21-.41.51.51,0,0,1,.49-.57l.64.21.42.18a2.27,2.27,0,0,1,.28.18,1.51,1.51,0,0,1,.23.21,4.45,4.45,0,0,0,1.57.23c0-.28,0-.57.07-.87a8.13,8.13,0,0,0,0-.84,5.83,5.83,0,0,0-.1-1.14l.05-.41-.67-.17-.48-.16a3,3,0,0,1-.36-.17,3.13,3.13,0,0,1-.34-.21,3.61,3.61,0,0,1-.67-1.57,1.57,1.57,0,0,1,.11-.6,1.77,1.77,0,0,1,.31-.46,2.88,2.88,0,0,1,.44-.4l.54-.39a4.15,4.15,0,0,1,.52-.15l.7-.12a9.15,9.15,0,0,1,.07-1.05c0-.27.17-.41.39-.41a.46.46,0,0,1,.42.16,1.45,1.45,0,0,1,.1.66,2.26,2.26,0,0,1,0,.26c0,.08,0,.17,0,.27h.26a2.2,2.2,0,0,1,.61.1,4.08,4.08,0,0,1,.69.26,3.08,3.08,0,0,1,.57.35c.16.13.23.24.23.35,0,.29-.17.44-.53.44l-.29-.09-.59-.22-.62-.22a1.55,1.55,0,0,0-.37-.1c0,.92,0,1.62,0,2.1v.81a2.07,2.07,0,0,1,.37.11C140.31,159,141.2,159.65,141.36,160.28Zm-4-4.71a2.31,2.31,0,0,0-.63.23,2.12,2.12,0,0,0-.44.3,1.81,1.81,0,0,0-.26.34.68.68,0,0,0-.08.31,1.09,1.09,0,0,0,.32.78,2.34,2.34,0,0,0,1.05.55c0-.13,0-.24,0-.34a1.09,1.09,0,0,1,0-.22,4.43,4.43,0,0,1-.08-1c0-.15,0-.31,0-.46S137.36,155.76,137.37,155.57Zm.91,6.77a6.82,6.82,0,0,0,1-.18,1.52,1.52,0,0,0,.57-.28.91.91,0,0,0,.26-.46,3.55,3.55,0,0,0,.06-.71c0-.58-.61-1-1.82-1.32,0,.15,0,.28,0,.4v.31a2.31,2.31,0,0,1-.06.72,2.11,2.11,0,0,1,0,.26,2.71,2.71,0,0,1,0,.29A8.63,8.63,0,0,1,138.28,162.34Z"/><path class="cls-24" d="M383.5,79.55v.69a2.09,2.09,0,0,1-.7,1.54,4.26,4.26,0,0,1-2.07.86h-.32v.49a2.45,2.45,0,0,1,0,.48.85.85,0,0,1-.15.36.37.37,0,0,1-.33.15.39.39,0,0,1-.31-.13.73.73,0,0,1-.15-.32,3,3,0,0,1-.06-.47v-.56a6.7,6.7,0,0,1-2.16-.38l-.66-.31a2.08,2.08,0,0,1-.58-.38.53.53,0,0,1-.22-.4.51.51,0,0,1,.49-.57l.64.21a2.93,2.93,0,0,1,.42.18,2.27,2.27,0,0,1,.28.18,1.51,1.51,0,0,1,.23.21,4.69,4.69,0,0,0,1.57.23c0-.28.05-.57.07-.87a8.13,8.13,0,0,0,0-.84,6.76,6.76,0,0,0-.09-1.14l0-.41-.67-.18L378.3,78l-.37-.17-.34-.21a3.55,3.55,0,0,1-.66-1.57,1.37,1.37,0,0,1,.11-.6,1.41,1.41,0,0,1,.3-.46,2.88,2.88,0,0,1,.44-.4l.54-.4a4.25,4.25,0,0,1,.52-.14l.7-.13a9,9,0,0,1,.07-1c0-.28.17-.41.39-.41a.46.46,0,0,1,.42.16,1.4,1.4,0,0,1,.1.66,2,2,0,0,1,0,.25v.27h.25a2.26,2.26,0,0,1,.61.11,4.08,4.08,0,0,1,.69.26,2.62,2.62,0,0,1,.57.35.49.49,0,0,1,.24.35c0,.29-.18.44-.54.44l-.29-.1-.59-.21-.62-.22a1.67,1.67,0,0,0-.37-.11c0,.92,0,1.62,0,2.1v.82a2.07,2.07,0,0,1,.37.11C382.45,78.31,383.34,78.91,383.5,79.55Zm-4-4.71a2.44,2.44,0,0,0-.63.22,2.17,2.17,0,0,0-.43.31,1.34,1.34,0,0,0-.27.34.84.84,0,0,0-.08.3,1.14,1.14,0,0,0,.32.79,2.33,2.33,0,0,0,1.06.55c0-.13,0-.24,0-.34a.6.6,0,0,1,.05-.22,3.91,3.91,0,0,1-.08-1v-.46C379.49,75.21,379.5,75,379.51,74.84Zm.92,6.77q.61-.09,1-.18a1.51,1.51,0,0,0,.57-.28.85.85,0,0,0,.26-.46,3.55,3.55,0,0,0,.06-.71c0-.59-.61-1-1.82-1.32,0,.15,0,.28,0,.4v.31a2.22,2.22,0,0,1-.07.72l0,.26v.29C380.47,80.93,380.46,81.25,380.43,81.61Z"/><path class="cls-24" d="M367.18,214.61v.7a2.16,2.16,0,0,1-.7,1.54,4.26,4.26,0,0,1-2.08.85l-.15,0h-.16v.49a3.3,3.3,0,0,1,0,.47,1,1,0,0,1-.15.37.43.43,0,0,1-.34.14.34.34,0,0,1-.3-.13.73.73,0,0,1-.15-.32,2.07,2.07,0,0,1-.06-.47c0-.18,0-.36,0-.55a6.68,6.68,0,0,1-2.15-.38l-.67-.32a2.77,2.77,0,0,1-.58-.37.57.57,0,0,1-.21-.41.52.52,0,0,1,.49-.57l.63.22a3,3,0,0,1,.42.17,1.83,1.83,0,0,1,.29.18l.23.21a4.41,4.41,0,0,0,1.57.24c0-.29,0-.58.07-.87a8.39,8.39,0,0,0,0-.84,5.69,5.69,0,0,0-.1-1.14l.05-.42-.67-.17a4.47,4.47,0,0,1-.48-.16,3,3,0,0,1-.36-.17,2.09,2.09,0,0,1-.34-.21,3.48,3.48,0,0,1-.67-1.57,1.57,1.57,0,0,1,.11-.6,2,2,0,0,1,.3-.46,3.55,3.55,0,0,1,.45-.4l.54-.39a3.81,3.81,0,0,1,.52-.14c.2-.05.43-.09.7-.13a9.32,9.32,0,0,1,.07-1.05c0-.27.16-.41.39-.41a.46.46,0,0,1,.42.17,1.52,1.52,0,0,1,.1.65,2.26,2.26,0,0,1,0,.26c0,.08,0,.17,0,.27h.26a2.2,2.2,0,0,1,.61.1,6.46,6.46,0,0,1,.69.26,3.08,3.08,0,0,1,.57.35c.15.13.23.24.23.35,0,.29-.18.44-.53.44l-.29-.09-.59-.22-.62-.22a1.55,1.55,0,0,0-.37-.1c0,.92,0,1.62,0,2.1v.81a2,2,0,0,1,.37.12C366.13,213.38,367,214,367.18,214.61Zm-4-4.7a2.05,2.05,0,0,0-.62.22,1.9,1.9,0,0,0-.44.31,1.34,1.34,0,0,0-.26.34.64.64,0,0,0-.09.3,1.08,1.08,0,0,0,.33.78,2.34,2.34,0,0,0,1,.55q0-.19,0-.33a2.14,2.14,0,0,1,.05-.23,4.43,4.43,0,0,1-.08-1c0-.15,0-.3,0-.46S363.17,210.1,363.18,209.91Zm.92,6.76a6.41,6.41,0,0,0,1-.18,1.38,1.38,0,0,0,.57-.28.82.82,0,0,0,.27-.46A3.55,3.55,0,0,0,366,215c0-.58-.61-1-1.82-1.32,0,.15,0,.28,0,.4v.32a2.22,2.22,0,0,1-.06.71,2.11,2.11,0,0,1,0,.26,2.71,2.71,0,0,1,0,.29A8.63,8.63,0,0,1,364.1,216.67Z"/><path class="cls-24" d="M78.52,283.61v1.09a3.34,3.34,0,0,1-1.09,2.4,6.71,6.71,0,0,1-3.25,1.34l-.24,0h-.25v.77a4.35,4.35,0,0,1-.06.74,1.23,1.23,0,0,1-.24.57.61.61,0,0,1-.52.22.59.59,0,0,1-.48-.19,1.34,1.34,0,0,1-.24-.51,4.79,4.79,0,0,1-.08-.73c0-.28,0-.57,0-.87a10.62,10.62,0,0,1-3.37-.59l-1-.5a3.41,3.41,0,0,1-.9-.58.87.87,0,0,1-.34-.63.8.8,0,0,1,.77-.89l1,.33a5.57,5.57,0,0,1,.66.27,2.58,2.58,0,0,1,.44.29l.36.32a6.88,6.88,0,0,0,2.45.37c0-.44.07-.9.11-1.36s.06-.9.06-1.31a10.8,10.8,0,0,0-.14-1.78l.07-.65-1.05-.27c-.29-.08-.54-.17-.75-.25a5.85,5.85,0,0,1-.56-.26,3.92,3.92,0,0,1-.54-.33,5.57,5.57,0,0,1-1-2.45,2.22,2.22,0,0,1,.18-.94,2.3,2.3,0,0,1,.47-.72,5.22,5.22,0,0,1,.69-.62c.26-.2.54-.41.84-.62a6,6,0,0,1,.82-.22c.31-.07.68-.13,1.09-.2a13.32,13.32,0,0,1,.11-1.63c.06-.43.26-.65.61-.65a.71.71,0,0,1,.65.26,2.19,2.19,0,0,1,.16,1c0,.13,0,.26,0,.4s0,.27,0,.42h.39a3.42,3.42,0,0,1,1,.16,5.77,5.77,0,0,1,1.07.41,4.29,4.29,0,0,1,.9.54c.24.2.37.38.37.54,0,.47-.28.7-.84.7l-.45-.15-.93-.33-1-.35a2.35,2.35,0,0,0-.59-.16c0,1.43,0,2.53,0,3.28v1.27a2.75,2.75,0,0,1,.57.18Q78.14,282.13,78.52,283.61Zm-6.24-7.35a3.52,3.52,0,0,0-1,.34,3,3,0,0,0-.68.49,2,2,0,0,0-.41.53,1.08,1.08,0,0,0-.13.47,1.69,1.69,0,0,0,.5,1.22,3.63,3.63,0,0,0,1.65.86c0-.2,0-.37,0-.52a1.26,1.26,0,0,1,.07-.35,6.93,6.93,0,0,1-.12-1.51c0-.23,0-.47,0-.72S72.26,276.55,72.28,276.26Zm1.43,10.57a12.12,12.12,0,0,0,1.55-.29,2.11,2.11,0,0,0,.89-.43,1.24,1.24,0,0,0,.41-.72,5,5,0,0,0,.1-1.11c0-.91-1-1.6-2.85-2.06,0,.23,0,.44,0,.62v.5a3.2,3.2,0,0,1-.1,1.11c0,.13,0,.27,0,.41s0,.29,0,.46C73.79,285.76,73.76,286.27,73.71,286.83Z"/><path class="cls-24" d="M518.17,195.66v1.09a3.3,3.3,0,0,1-1.09,2.4,6.67,6.67,0,0,1-3.24,1.34l-.25,0h-.25v.77a4.35,4.35,0,0,1-.06.74,1.34,1.34,0,0,1-.23.57.62.62,0,0,1-.52.22.6.6,0,0,1-.49-.19,1.5,1.5,0,0,1-.23-.51,3.73,3.73,0,0,1-.09-.73c0-.28,0-.57,0-.87a10.68,10.68,0,0,1-3.37-.59l-1-.5a3.41,3.41,0,0,1-.9-.58.89.89,0,0,1-.33-.63.79.79,0,0,1,.76-.89l1,.33a4.44,4.44,0,0,1,.66.27,3.36,3.36,0,0,1,.44.29,3.73,3.73,0,0,1,.36.32,6.88,6.88,0,0,0,2.45.37c0-.44.07-.9.12-1.36s.06-.9.06-1.31a9.77,9.77,0,0,0-.15-1.78l.07-.65-1.05-.27a5.29,5.29,0,0,1-.74-.25,5.09,5.09,0,0,1-.57-.26,4.53,4.53,0,0,1-.53-.33,5.45,5.45,0,0,1-1-2.45,2.23,2.23,0,0,1,.17-.94,2.49,2.49,0,0,1,.47-.72,5.22,5.22,0,0,1,.69-.62l.85-.62a5.82,5.82,0,0,1,.81-.22c.32-.07.68-.13,1.09-.2,0-.66.06-1.2.11-1.63s.26-.65.61-.65a.73.73,0,0,1,.66.26,2.33,2.33,0,0,1,.16,1c0,.13,0,.26,0,.4s0,.27,0,.42h.4a3.41,3.41,0,0,1,1,.16,6.15,6.15,0,0,1,1.08.41,4.2,4.2,0,0,1,.89.54c.25.2.37.38.37.55q0,.69-.84.69l-.45-.15-.92-.33-1-.35a2.44,2.44,0,0,0-.58-.16c0,1.43,0,2.53,0,3.28v1.27a2.75,2.75,0,0,1,.57.18C516.54,193.73,517.92,194.67,518.17,195.66Zm-6.24-7.35a3.64,3.64,0,0,0-1,.34,3.3,3.3,0,0,0-.68.49,1.9,1.9,0,0,0-.4.53,1,1,0,0,0-.14.47,1.7,1.7,0,0,0,.51,1.22,3.54,3.54,0,0,0,1.64.86c0-.2,0-.37.05-.52a1.21,1.21,0,0,1,.08-.35,6.24,6.24,0,0,1-.13-1.51c0-.23,0-.47,0-.72S511.92,188.6,511.93,188.31Zm1.44,10.57a10.85,10.85,0,0,0,1.55-.29,2.24,2.24,0,0,0,.89-.43,1.36,1.36,0,0,0,.41-.72,5.78,5.78,0,0,0,.09-1.11c0-.91-.94-1.6-2.84-2.06,0,.23,0,.44,0,.62v.5a3.2,3.2,0,0,1-.1,1.11c0,.13,0,.27,0,.41s0,.29,0,.46C513.44,197.81,513.42,198.32,513.37,198.88Z"/><circle class="cls-41" cx="225.79" cy="88.93" r="4.81"/><circle class="cls-41" cx="88.54" cy="352.95" r="3.96"/><circle class="cls-41" cx="212.49" cy="196.18" r="2.72"/><circle class="cls-41" cx="483.02" cy="161.2" r="2.72"/><circle class="cls-41" cx="596.32" cy="278.81" r="2.72"/><path class="cls-29" d="M188.72,129.7s5.66-.87,6.09-8.71c0,0,.87,8.28,5.23,8.71,0,0-5.64,5.57-6.53,10.45C193.51,140.15,194.38,132.75,188.72,129.7Z"/><path class="cls-29" d="M180,118.86s4-.61,4.26-6.09c0,0,.61,5.79,3.66,6.09,0,0-3.95,3.9-4.57,7.31C183.32,126.17,183.93,121,180,118.86Z"/><path class="cls-29" d="M477.66,126.22s4-.61,4.27-6.1c0,0,.61,5.79,3.66,6.1,0,0-3.95,3.89-4.57,7.31C481,133.53,481.63,128.35,477.66,126.22Z"/><path class="cls-29" d="M333,55.82s2.72-.42,2.93-4.19c0,0,.42,4,2.52,4.19,0,0-2.72,2.68-3.15,5C335.34,60.85,335.76,57.29,333,55.82Z"/><path class="cls-29" d="M130.42,254.47s2.73-.42,2.94-4.19c0,0,.42,4,2.51,4.19,0,0-2.71,2.68-3.14,5C132.73,259.5,133.15,255.94,130.42,254.47Z"/><path class="cls-29" d="M567.91,195.05s2.73-.42,2.94-4.19c0,0,.42,4,2.51,4.19,0,0-2.71,2.68-3.14,5C570.22,200.08,570.64,196.51,567.91,195.05Z"/><path class="cls-29" d="M245.32,255s2.72-.42,2.93-4.19c0,0,.42,4,2.51,4.19,0,0-2.71,2.68-3.14,5C247.62,260.07,248,256.51,245.32,255Z"/><path class="cls-29" d="M527.16,278.81s2.73-.42,2.94-4.19c0,0,.42,4,2.51,4.19,0,0-2.71,2.68-3.14,5C529.47,283.84,529.89,280.28,527.16,278.81Z"/><path class="cls-29" d="M333.61,239.76s2.72-.42,2.93-4.19c0,0,.42,4,2.51,4.19,0,0-2.71,2.68-3.14,5C335.91,244.79,336.33,241.23,333.61,239.76Z"/><path class="cls-29" d="M104.94,213.75c-1.25.15,30.65,0,30.65,0s-5.87-11.34-8.39-8.82-2.94,6.72-2.94,6.72-4.62-16-5.88-5.88-1.68,4.2-1.68,4.2-.42-10.5-2.94-5.88S108.3,213.33,104.94,213.75Z"/><path class="cls-29" d="M397.32,135.82H451c-.82-.66-1.9-2.42-3.8-9.23s-7.05,2.86-7.05,2.86-3-9.23-8.41-2.64l-1.36,2.64s-1.89-14.06-7.86-10.33-4.07,11.43-4.07,11.43-5.42-12.09-14.37-8.57S397.32,135.82,397.32,135.82Z"/><path class="cls-29" d="M545.66,232.16c9.44,0,18.88.07,28.32.32,4.15.11,8.31.34,12.46.52-.3,0-1.51-1.38-2-1.59a7.25,7.25,0,0,0-3.91-.42,4.68,4.68,0,0,1-1.78.12c-1.38-.34-1.08-2.36-1.17-3.41-.42-5.16-3.34-5.16-6.69-.84,0,0-1.53,2.79-.84-3.62s-3.76-1-5,3.9-1.26-1.26-2.51-3.77-4-4-6.69,2.24S546.22,229.93,545.66,232.16Z"/></g></svg>