<svg width="425" height="402" viewBox="0 0 425 402" fill="none" xmlns="http://www.w3.org/2000/svg">
<path d="M202.514 0V85.5048H79.7052L75.2793 0.592753L202.514 0Z" fill="#E0E0E0"/>
<path d="M75.2793 0.602646V85.327L198.088 85.327V0.602646L75.2793 0.602646Z" fill="white"/>
<path d="M198.582 85.8111H74.7852V0.0987854H198.582V85.8111ZM75.7731 84.8232H197.594V1.08671H75.7731V84.8232Z" fill="#E0E0E0"/>
<path d="M184.781 11.124H88.5771V74.7957H184.781V11.124Z" fill="white"/>
<path d="M184.781 11.124H182.943H177.667L157.85 11.1932L88.5765 11.3117L88.8136 11.0746C88.8136 30.5269 88.8136 52.0834 88.8136 74.7365L88.5567 74.4796H184.761L184.563 74.6871C184.563 55.2941 184.642 39.4083 184.672 28.3435C184.672 22.8112 184.672 18.4643 184.721 15.5005C184.721 14.0384 184.721 12.9122 184.721 12.1416C184.721 11.371 184.721 10.9758 184.721 10.9758C184.721 10.9758 184.721 11.3414 184.721 12.0922C184.721 12.843 184.721 13.9693 184.721 15.4215C184.721 18.3853 184.721 22.663 184.771 28.1756C184.771 39.27 184.84 55.2052 184.879 74.608V74.8056H184.672L88.4678 74.8649H88.2109V74.608C88.2109 51.9549 88.2109 30.3984 88.2109 10.9462V10.7091H88.448L157.869 10.8277L177.628 10.8869H182.864H184.198L184.781 11.124Z" fill="#E0E0E0"/>
<path d="M75.2793 0.355652C76.0225 0.748359 76.7242 1.21505 77.3737 1.74862C78.6185 2.66739 80.3375 3.95169 82.175 5.43358C84.0125 6.91547 85.6525 8.30844 86.7985 9.38528C87.4611 9.90379 88.0582 10.5009 88.5768 11.1635C87.8767 10.72 87.2157 10.2176 86.6009 9.66189L81.8984 5.86827C80.13 4.45553 78.5394 3.16135 77.186 2.07464C76.4922 1.56978 75.8531 0.993639 75.2793 0.355652Z" fill="#E0E0E0"/>
<path d="M198.108 0.582886C196.057 2.53374 193.89 4.35817 191.617 6.0461C189.45 7.87243 187.174 9.56493 184.801 11.1142C186.853 9.16123 189.02 7.33355 191.291 5.64106C193.46 3.81963 195.736 2.13051 198.108 0.582886Z" fill="#E0E0E0"/>
<path d="M197.99 85.327L184.277 74.2326L197.99 85.327Z" fill="white"/>
<path d="M184.277 74.2326C186.716 75.8773 189.055 77.6653 191.282 79.5872C193.619 81.3705 195.853 83.2869 197.97 85.327C195.528 83.6866 193.185 81.9019 190.956 79.9823C188.621 78.1961 186.391 76.2763 184.277 74.2326Z" fill="#E0E0E0"/>
<path d="M75.2793 85.3171C77.3084 83.3874 79.4529 81.5828 81.7008 79.9132C83.8467 78.1088 86.1 76.4361 88.4483 74.9044C86.4217 76.8438 84.2736 78.6521 82.0169 80.3182C79.8799 82.1264 77.6294 83.7961 75.2793 85.3171Z" fill="#E0E0E0"/>
<path d="M126.325 31.7914V53.1108H151.458V31.7914H126.325Z" fill="#E0E0E0"/>
<path d="M91.5209 103.278V160.182L7.67578 159.382L8.1895 103.89L91.5209 103.278Z" fill="#E0E0E0"/>
<path d="M8.18945 103.89L8.18945 159.382H88.6262V103.89H8.18945Z" fill="white"/>
<path d="M89.1101 159.866H7.69531V103.386H89.1101V159.866ZM8.68324 158.878H88.1222V104.374H8.68324V158.878Z" fill="#E0E0E0"/>
<path d="M79.9131 110.776H16.9033V152.476H79.9131V110.776Z" fill="white"/>
<path d="M79.9131 110.776H79.597H78.698H75.2304L62.2392 110.835L16.9033 110.954L17.1306 110.717C17.1306 123.461 17.1306 137.578 17.1306 152.417L16.8737 152.15L79.8835 152.209L79.676 152.417C79.676 139.732 79.7551 129.339 79.7847 122.088C79.7847 118.472 79.7847 115.636 79.7847 113.69C79.7847 112.702 79.7847 112.001 79.7847 111.477C79.7847 110.954 79.7847 110.707 79.7847 110.707C79.7847 110.707 79.7847 110.944 79.7847 111.438C79.7847 111.932 79.7847 112.673 79.7847 113.611C79.7847 115.587 79.7847 118.363 79.844 121.959C79.844 129.24 79.9033 139.683 79.9428 152.417V152.614H79.7452L16.9033 152.723L16.6465 152.466C16.6465 137.647 16.6465 123.51 16.6465 110.766V110.529H16.8836L62.3775 110.647L75.3094 110.717H78.7276H79.6069L79.9131 110.776Z" fill="#E0E0E0"/>
<path d="M8.18945 103.732C9.79414 104.696 11.3056 105.807 12.7043 107.051C14.2117 108.166 15.6169 109.412 16.9029 110.776C15.2944 109.809 13.7796 108.695 12.3783 107.447C10.8715 106.339 9.46938 105.096 8.18945 103.732Z" fill="#E0E0E0"/>
<path d="M88.6167 103.88C87.338 105.227 85.9356 106.451 84.4279 107.536C83.0258 108.752 81.5145 109.837 79.9131 110.776C81.1965 109.437 82.5985 108.217 84.1019 107.13C85.5075 105.915 87.0184 104.828 88.6167 103.88Z" fill="#E0E0E0"/>
<path d="M88.5566 159.382L79.5566 152.111L88.5566 159.382Z" fill="white"/>
<path d="M79.5566 152.111C81.2048 153.119 82.7617 154.269 84.2098 155.549C85.7582 156.698 87.2028 157.98 88.527 159.382C86.8799 158.38 85.3259 157.233 83.8837 155.954C82.3293 154.805 80.8812 153.518 79.5566 152.111Z" fill="#E0E0E0"/>
<path d="M8.18945 159.372C9.45677 158.043 10.846 156.836 12.3387 155.766C13.7271 154.558 15.2254 153.483 16.814 152.555C15.5406 153.885 14.1484 155.095 12.6549 156.171C11.2703 157.376 9.77524 158.448 8.18945 159.372Z" fill="#E0E0E0"/>
<path d="M28.5801 124.755V138.714H68.2255V124.755H28.5801Z" fill="#E0E0E0"/>
<path d="M407.044 106.212H344.598L345.477 17.9407L406.373 17.5554L407.044 106.212Z" fill="#E0E0E0"/>
<path d="M401.255 17.9407H340.359V106.212H401.255V17.9407Z" fill="white"/>
<path d="M401.749 106.706H339.865V17.4467H401.749V106.706ZM340.853 105.718H400.761V18.4347H340.853V105.718Z" fill="#E0E0E0"/>
<path d="M393.697 27.5038H347.927V96.6585H393.697V27.5038Z" fill="white"/>
<path d="M393.717 96.6486C393.717 96.6486 393.717 96.5301 393.717 96.3127V95.3248C393.717 94.4455 393.717 93.1711 393.717 91.5213C393.717 88.192 393.717 83.361 393.648 77.2655C393.648 65.0746 393.579 47.8155 393.529 27.5038L393.767 27.7409H348.006L348.263 27.4841C348.263 53.5653 348.263 77.6113 348.203 96.6387L348.006 96.4412L381.289 96.5498H390.506H392.927H393.767C393.767 96.5498 393.51 96.5498 392.966 96.5498H390.585L381.417 96.5992L348.006 96.7079H347.798V96.5004C347.798 77.4829 347.798 53.4368 347.749 27.3457V27.2568H348.006H393.717H393.954V27.4939C393.954 47.8748 393.865 65.1832 393.836 77.4137C393.836 83.4895 393.836 88.2809 393.776 91.6201C393.776 93.2403 393.776 94.4949 393.776 95.3742C393.776 95.7792 393.776 96.0954 393.776 96.3621C393.765 96.4592 393.745 96.5551 393.717 96.6486Z" fill="#E0E0E0"/>
<path d="M401.423 17.9407C400.385 19.7147 399.185 21.3882 397.837 22.9396C396.619 24.6037 395.228 26.1337 393.688 27.5038C394.833 25.8009 396.084 24.171 397.432 22.6235C398.646 20.9674 399.98 19.4023 401.423 17.9407Z" fill="#E0E0E0"/>
<path d="M401.255 106.212C399.81 104.788 398.488 103.244 397.303 101.598C395.972 100.054 394.773 98.402 393.717 96.6585C395.159 98.0887 396.48 99.635 397.668 101.282C398.999 102.823 400.198 104.472 401.255 106.212Z" fill="#E0E0E0"/>
<path d="M340.369 106.143L348.342 96.2633L340.369 106.143Z" fill="white"/>
<path d="M348.322 96.3028C347.2 98.0948 345.935 99.793 344.538 101.381C343.274 103.08 341.874 104.672 340.35 106.143C341.472 104.351 342.737 102.652 344.133 101.065C345.4 99.3682 346.801 97.7759 348.322 96.3028Z" fill="#E0E0E0"/>
<path d="M340.369 17.9407C341.814 19.3499 343.136 20.8802 344.321 22.5148C345.643 24.0541 346.826 25.707 347.858 27.4544C346.412 26.0452 345.09 24.5149 343.906 22.8803C342.584 21.3411 341.4 19.6881 340.369 17.9407Z" fill="#E0E0E0"/>
<path d="M379.431 41.5422H364.108V85.0504H379.431V41.5422Z" fill="#E0E0E0"/>
<path d="M424.343 401.048C424.343 401.186 329.69 401.305 212.927 401.305C96.1647 401.305 1.51172 401.186 1.51172 401.048C1.51172 400.909 96.145 400.791 212.927 400.791C329.71 400.791 424.343 400.909 424.343 401.048Z" fill="#263238"/>
<path d="M89.0024 363.111H77.2461V401.048H89.0024V363.111Z" fill="#263238"/>
<path d="M211.317 363.111H199.561V401.048H211.317V363.111Z" fill="#263238"/>
<path d="M137.331 363.111H125.575V401.048H137.331V363.111Z" fill="#263238"/>
<path d="M252.889 363.111H241.133V401.048H252.889V363.111Z" fill="#263238"/>
<path d="M253.165 366.994C257.161 367.028 261.044 365.664 264.141 363.138C267.239 360.613 269.356 357.084 270.128 353.163C272.943 338.868 276.569 318.872 276.678 296.427C276.747 282.655 273.714 265.218 269.406 252.128C263.192 233.002 249.875 216.148 230.532 210.635C205.419 203.473 196.32 206.219 178.508 215.575C159.134 225.731 153.889 244.788 133.725 253.274C114.144 261.503 90.533 258.698 72.6812 270.207C56.9732 280.333 49.3168 299.786 48.6944 318.467C48.2299 328.39 49.1947 338.328 51.5594 347.976C52.7238 352.934 55.5198 357.357 59.4988 360.535C63.4777 363.713 68.4089 365.462 73.5012 365.502L253.165 366.994Z" fill="#455A64"/>
<path d="M102.932 305.555L48.9911 376.883L30.1514 372.714L73.62 296.446L102.932 305.555Z" fill="#FFBE9D"/>
<path d="M49.5938 375.994L32.3347 401.868L0 380.548C2.22283 377.585 23.0384 382.415 23.0384 382.415L33.4215 365.364L49.5938 375.994Z" fill="#007BFC"/>
<g opacity="0.6">
<path opacity="0.6" d="M33.965 387.602C34.2127 387.901 34.3415 388.281 34.3269 388.669C34.3123 389.057 34.1554 389.427 33.886 389.706C33.5958 389.967 33.2167 390.106 32.8269 390.095C32.4372 390.084 32.0666 389.923 31.7916 389.647C31.5271 389.329 31.3906 388.925 31.4089 388.512C31.4271 388.099 31.5988 387.707 31.8904 387.414C32.221 387.177 32.6305 387.076 33.0336 387.133C33.4366 387.191 33.8021 387.401 34.0539 387.721" fill="white"/>
</g>
<g opacity="0.6">
<path opacity="0.6" d="M32.3347 401.868L33.9747 399.19L2.36114 379.748C2.36114 379.748 0.503841 379.432 0 380.548L32.3347 401.868Z" fill="white"/>
</g>
<path d="M22.6232 381.922C22.5244 382.08 23.2654 382.672 23.7099 383.7C24.1545 384.727 24.1249 385.676 24.3126 385.676C24.5003 385.676 24.8658 384.638 24.3126 383.413C23.7593 382.188 22.6825 381.734 22.6232 381.922Z" fill="#263238"/>
<path d="M18.3057 381.072C18.1674 381.2 18.6811 381.922 18.77 382.939C18.859 383.957 18.5626 384.767 18.77 384.915C18.9775 385.063 19.6197 384.184 19.4813 382.939C19.343 381.694 18.4144 380.934 18.3057 381.072Z" fill="#263238"/>
<path d="M13.7021 383.897C13.8306 384.026 14.5715 383.384 14.69 382.248C14.8086 381.111 14.3443 380.272 14.1961 380.37C14.0479 380.469 14.1961 381.23 14.038 382.149C13.8799 383.068 13.5638 383.739 13.7021 383.897Z" fill="#263238"/>
<path d="M25.4189 378.276C25.4189 378.464 26.2587 378.731 27.1083 379.373C27.9579 380.015 28.4716 380.766 28.6495 380.687C28.8273 380.608 28.521 379.6 27.5035 378.849C26.4859 378.098 25.4288 378.108 25.4189 378.276Z" fill="#263238"/>
<path d="M28.7187 374.947C28.7187 375.016 29.2325 375.52 30.3488 376.014C31.0007 376.293 31.6841 376.492 32.3839 376.606C32.7986 376.677 33.218 376.717 33.6386 376.725C33.8872 376.742 34.1368 376.722 34.3795 376.666C34.5563 376.622 34.7135 376.52 34.8262 376.377C34.9389 376.234 35.0007 376.058 35.0019 375.875C35 375.712 34.9575 375.551 34.8782 375.408C34.7989 375.265 34.6852 375.144 34.5475 375.055C34.3414 374.922 34.1189 374.816 33.8856 374.739C33.4839 374.598 33.0707 374.492 32.6507 374.423C31.944 374.309 31.2235 374.309 30.5168 374.423C29.3016 374.621 28.6595 375.036 28.699 375.105C28.7385 375.174 29.4202 374.957 30.5662 374.878C31.2279 374.846 31.8912 374.892 32.542 375.016C32.9242 375.1 33.3004 375.209 33.6682 375.342C34.0634 375.48 34.3598 375.668 34.3499 375.885C34.34 376.103 34.3499 375.984 34.1918 376.043C34.0114 376.066 33.8289 376.066 33.6485 376.043C33.2553 376.043 32.8625 376.017 32.4729 375.964C31.8017 375.884 31.14 375.738 30.497 375.53C29.9162 375.301 29.3224 375.106 28.7187 374.947Z" fill="#263238"/>
<path d="M28.7783 375.312C28.7783 375.372 29.4995 375.016 30.2306 374.028C30.6732 373.454 31.0079 372.805 31.2185 372.111C31.3456 371.704 31.4252 371.283 31.4556 370.857C31.5113 370.585 31.495 370.304 31.4084 370.04C31.3217 369.777 31.1677 369.541 30.9617 369.355C30.815 369.259 30.6432 369.207 30.4677 369.207C30.2921 369.207 30.1204 369.259 29.9737 369.355C29.7632 369.488 29.5735 369.651 29.4106 369.839C29.1179 370.164 28.8748 370.53 28.6894 370.926C28.3824 371.594 28.2433 372.326 28.2844 373.06C28.3634 374.315 28.8969 374.937 28.9463 374.888C28.8391 374.28 28.7731 373.666 28.7487 373.05C28.774 372.402 28.9427 371.768 29.2427 371.193C29.412 370.857 29.6282 370.548 29.8848 370.274C30.1614 369.968 30.4776 369.78 30.5764 369.898C30.6752 370.017 30.8431 370.442 30.7937 370.798C30.7713 371.184 30.7118 371.568 30.6159 371.943C30.4535 372.582 30.2007 373.194 29.8651 373.761C29.2624 374.749 28.7092 375.233 28.7783 375.312Z" fill="#263238"/>
<path d="M146.243 274.564H97.1528C91.8665 274.564 86.6678 275.914 82.0497 278.487C77.4316 281.059 73.5474 284.769 70.7654 289.264L47.9443 326.143L76.3373 343.323L99.8005 312.559L126.474 310.376L183.833 274.564H146.243Z" fill="#263238"/>
<path d="M120.507 305.555L66.5662 376.883L47.7363 372.714L91.1951 296.446L120.507 305.555Z" fill="#FFBE9D"/>
<path d="M67.1789 375.994L49.9198 401.868L17.5752 380.548C19.8079 377.585 40.6235 382.415 40.6235 382.415L50.9967 365.364L67.1789 375.994Z" fill="#007BFC"/>
<g opacity="0.6">
<path opacity="0.6" d="M51.5402 387.602C51.7899 387.9 51.9201 388.281 51.9055 388.669C51.8909 389.058 51.7326 389.428 51.4612 389.706C51.171 389.967 50.7919 390.106 50.4021 390.095C50.0124 390.084 49.6418 389.923 49.3668 389.647C49.1022 389.329 48.9658 388.925 48.984 388.512C49.0023 388.099 49.174 387.707 49.4656 387.414C49.7962 387.177 50.2057 387.076 50.6088 387.133C51.0118 387.191 51.3773 387.401 51.6291 387.721" fill="white"/>
</g>
<g opacity="0.6">
<path opacity="0.6" d="M49.9197 401.868L51.5597 399.19L19.9461 379.748C19.9461 379.748 18.0888 379.432 17.585 380.548L49.9197 401.868Z" fill="white"/>
</g>
<path d="M40.1983 381.922C40.0995 382.08 40.8503 382.672 41.285 383.7C41.7197 384.727 41.7098 385.676 41.8975 385.676C42.0852 385.676 42.4409 384.638 41.8975 383.413C41.3542 382.188 40.2675 381.734 40.1983 381.922Z" fill="#263238"/>
<path d="M35.891 381.072C35.7527 381.2 36.2566 381.922 36.3554 382.939C36.4542 383.957 36.138 384.767 36.2961 384.915C36.4542 385.063 37.1457 384.184 37.0074 382.939C36.8691 381.694 35.9898 380.934 35.891 381.072Z" fill="#263238"/>
<path d="M31.2873 383.897C31.4059 384.026 32.1468 383.384 32.2753 382.248C32.4037 381.111 31.9196 380.272 31.7714 380.37C31.6232 380.469 31.7714 381.23 31.6232 382.149C31.4751 383.068 31.149 383.739 31.2873 383.897Z" fill="#263238"/>
<path d="M43.0039 378.276C43.0039 378.464 43.8338 378.731 44.6933 379.373C45.5527 380.015 46.0566 380.766 46.2245 380.687C46.3925 380.608 46.0961 379.6 45.0884 378.849C44.0807 378.098 43.0039 378.108 43.0039 378.276Z" fill="#263238"/>
<path d="M46.2939 374.947C46.2939 375.016 46.8175 375.52 47.924 376.014C48.5759 376.293 49.2593 376.492 49.9591 376.606C50.3738 376.677 50.7932 376.717 51.2138 376.725C51.4623 376.742 51.7121 376.722 51.9547 376.666C52.1324 376.623 52.2905 376.522 52.4035 376.379C52.5164 376.235 52.5776 376.058 52.5771 375.875C52.5722 375.714 52.5294 375.555 52.4522 375.413C52.375 375.27 52.2655 375.148 52.1325 375.055C51.922 374.924 51.6965 374.818 51.4608 374.739C51.0621 374.599 50.6523 374.494 50.2357 374.423C49.5257 374.309 48.802 374.309 48.0919 374.423C46.8867 374.621 46.2346 375.036 46.2742 375.105C46.3137 375.174 47.0052 374.957 48.1413 374.878C48.8031 374.846 49.4663 374.892 50.1172 375.016C50.4964 375.099 50.8695 375.207 51.2335 375.342C51.6287 375.48 51.9251 375.668 51.9152 375.885C51.9053 376.103 51.9152 375.984 51.7571 376.043C51.5767 376.066 51.3942 376.066 51.2138 376.043C50.8206 376.043 50.4279 376.016 50.0382 375.964C49.3667 375.886 48.7048 375.74 48.0623 375.53C47.4849 375.3 46.8944 375.106 46.2939 374.947Z" fill="#263238"/>
<path d="M46.3536 375.312C46.3536 375.372 47.0847 375.016 47.8157 374.028C48.2507 373.449 48.5847 372.801 48.8037 372.111C48.9212 371.701 49.0006 371.281 49.0407 370.857C49.0935 370.585 49.0758 370.305 48.9893 370.042C48.9029 369.779 48.7505 369.542 48.5468 369.355C48.3992 369.261 48.2278 369.211 48.0528 369.211C47.8778 369.211 47.7064 369.261 47.5589 369.355C47.3512 369.488 47.1648 369.651 47.0056 369.839C46.7067 370.159 46.463 370.526 46.2844 370.926C45.9701 371.591 45.8274 372.325 45.8695 373.06C45.9485 374.315 46.482 374.937 46.5314 374.888C46.4303 374.279 46.3643 373.666 46.3338 373.05C46.3642 372.403 46.5326 371.77 46.8278 371.193C47.0007 370.86 47.2166 370.551 47.4699 370.274C47.7466 369.968 48.0627 369.78 48.1714 369.898C48.2681 370.025 48.3374 370.17 48.3748 370.325C48.4122 370.48 48.4169 370.641 48.3887 370.798C48.306 371.851 47.9669 372.869 47.4008 373.761C46.8476 374.749 46.2844 375.233 46.3536 375.312Z" fill="#263238"/>
<path d="M163.818 274.564H113.029C108.262 274.564 103.575 275.783 99.412 278.103C95.2487 280.423 91.7471 283.769 89.2395 287.822L65.5293 326.143L93.9222 343.323L119.282 310.08L144.099 310.376L199.304 275.907L163.818 274.564Z" fill="#263238"/>
<path d="M93.9024 343.323C93.7147 343.241 93.5331 343.145 93.3591 343.037L91.8179 342.138L85.9892 338.69L65.3909 326.341L65.1934 326.222L65.3218 326.025C69.8267 318.734 74.9046 310.149 80.5655 301.198C85.1692 293.927 89.7927 287.13 94.3964 281.242C95.5535 279.785 97.0491 278.632 98.7531 277.883C100.319 277.152 101.954 276.58 103.633 276.174C106.633 275.453 109.686 274.97 112.762 274.732C117.208 274.382 121.67 274.273 126.129 274.406C127.699 274.406 128.924 274.505 129.754 274.554L130.742 274.613H131.058H129.794L126.158 274.564C123.017 274.564 118.442 274.564 112.841 275.058C109.787 275.315 106.757 275.814 103.782 276.55C102.131 276.952 100.526 277.521 98.9902 278.249C97.3548 278.974 95.9205 280.086 94.8113 281.489C90.257 287.417 85.6533 294.164 81.0594 301.435C75.3986 310.376 70.3108 318.941 65.7664 326.222L65.6873 325.906L86.1275 338.453L91.8871 342.009L93.3986 342.997C93.5786 343.086 93.7477 343.195 93.9024 343.323Z" fill="#455A64"/>
<path d="M72.1187 329.957C72.2373 330.036 67.7323 338.077 62.0617 347.917C56.391 357.757 51.6687 365.7 51.5501 365.621C51.4316 365.542 55.9266 357.51 61.6072 347.66C67.2878 337.811 72.0002 329.888 72.1187 329.957Z" fill="#EB996E"/>
<path d="M239.414 214.162C239.485 214.276 239.548 214.395 239.602 214.518L240.115 215.595C240.56 216.583 241.202 217.946 242.032 219.724C242.437 220.623 242.901 221.631 243.405 222.688C243.909 223.745 244.324 225.029 244.838 226.333C245.351 227.637 245.885 229.05 246.458 230.532C247.031 232.014 247.574 233.624 248.108 235.304C248.641 236.983 249.204 238.761 249.797 240.599C250.103 241.518 250.35 242.476 250.597 243.444C250.844 244.412 251.101 245.42 251.358 246.408L252.148 249.48C252.287 250.004 252.415 250.528 252.553 251.061C252.692 251.595 252.771 252.138 252.889 252.681C253.324 254.855 253.772 257.091 254.233 259.389C255.996 269.406 257.049 279.534 257.384 289.699C257.588 299.853 257.189 310.01 256.189 320.117C255.626 324.76 255.201 329.186 254.46 333.296C254.124 335.351 253.848 337.337 253.472 339.223C253.097 341.11 252.761 342.948 252.425 344.687C251.793 348.164 251.022 351.276 250.449 354.013L249.57 357.826C249.254 358.992 248.977 360.059 248.72 361.017C248.207 362.904 247.811 364.376 247.535 365.413L247.209 366.549C247.176 366.681 247.133 366.81 247.08 366.935C247.095 366.801 247.122 366.669 247.159 366.54C247.225 366.25 247.314 365.864 247.426 365.384C247.683 364.396 248.058 362.864 248.523 360.968C248.77 359.98 249.036 358.933 249.333 357.777C249.629 356.621 249.866 355.317 250.173 353.953C250.765 351.207 251.516 348.095 252.148 344.618C252.465 342.879 252.81 341.051 253.136 339.164C253.462 337.277 253.739 335.272 254.055 333.237C254.747 329.137 255.181 324.721 255.735 320.077C256.706 309.989 257.092 299.852 256.89 289.719C256.571 279.593 255.548 269.501 253.828 259.518C253.383 257.226 252.939 254.993 252.514 252.82L252.188 251.209C252.059 250.676 251.921 250.152 251.793 249.639L251.012 246.566C250.765 245.578 250.508 244.59 250.261 243.602C250.014 242.614 249.787 241.626 249.481 240.767L247.831 235.472C247.308 233.782 246.843 232.172 246.221 230.7C245.598 229.228 245.134 227.805 244.64 226.491C244.146 225.178 243.721 223.933 243.247 222.836L241.914 219.823C241.133 218.035 240.521 216.632 240.086 215.654C239.888 215.19 239.74 214.834 239.622 214.567C239.537 214.441 239.467 214.305 239.414 214.162Z" fill="#263238"/>
<path d="M110.361 343.709C110.435 344.741 110.435 345.778 110.361 346.811C110.361 348.727 110.282 351.375 110.361 354.289C110.44 357.204 110.628 359.841 110.786 361.758C110.919 362.783 110.985 363.816 110.984 364.85C110.696 363.851 110.511 362.825 110.43 361.788C109.796 356.818 109.653 351.798 110.006 346.801C110.02 345.761 110.139 344.725 110.361 343.709Z" fill="#263238"/>
<path d="M154.956 227.47L144.899 261.879L107.684 265.87V272.479L162.375 273.24L169.824 228.428L154.956 227.47Z" fill="#FFBE9D"/>
<path d="M226.482 204.905C222.086 194.819 209.687 191.361 203.048 191.341C193.831 191.341 194.661 190.758 185.602 192.388H184.406C156.873 191.272 153.702 229.1 153.702 229.1L166.258 230.088L162.939 256.149L153.326 274.593L206.21 274.505L209.174 231.441L232.686 230.769C232.686 230.769 230.542 214.231 226.482 204.905Z" fill="#007BFC"/>
<path d="M167.779 213.085C167.917 213.085 166.989 222.283 165.705 233.595C164.42 244.906 163.254 254.064 163.116 254.055C162.978 254.045 163.907 244.847 165.191 233.535C166.475 222.224 167.641 213.066 167.779 213.085Z" fill="#263238"/>
<path d="M205.784 191.252C205.83 191.403 205.853 191.559 205.853 191.717C205.853 192.033 205.913 192.487 205.923 193.07C205.957 194.744 205.72 196.412 205.221 198.01C204.586 200.427 203.337 202.639 201.595 204.431C200.548 205.489 199.284 206.308 197.891 206.832C196.39 207.345 194.814 207.605 193.228 207.602C191.656 207.646 190.084 207.534 188.535 207.266C187.062 207.023 185.667 206.434 184.465 205.547C182.513 203.956 181.156 201.753 180.612 199.294C180.19 197.683 180.01 196.018 180.078 194.354C180.078 193.771 180.148 193.317 180.177 193.011C180.183 192.853 180.209 192.697 180.256 192.546C180.256 192.546 180.256 193.198 180.256 194.364C180.27 196.004 180.499 197.635 180.938 199.215C181.508 201.571 182.842 203.673 184.732 205.192C185.88 206.021 187.206 206.569 188.604 206.792C190.122 207.04 191.66 207.145 193.198 207.108C194.726 207.113 196.245 206.866 197.693 206.377C199.023 205.884 200.232 205.113 201.24 204.115C202.95 202.389 204.194 200.258 204.856 197.921C205.373 196.364 205.656 194.739 205.695 193.1C205.755 191.884 205.745 191.252 205.784 191.252Z" fill="#263238"/>
<g opacity="0.2">
<path opacity="0.2" d="M208.205 213.085C205.943 223.864 203.008 234.948 200.746 245.687C200.272 247.979 199.758 250.35 198.355 252.227C197.433 253.364 196.351 254.362 195.145 255.191C190.699 258.52 186.006 261.652 180.79 263.548C188.335 262.914 195.81 261.614 203.127 259.666C203.738 259.629 204.337 259.473 204.887 259.204C205.438 258.936 205.93 258.562 206.336 258.103C206.742 257.644 207.053 257.109 207.252 256.53C207.45 255.951 207.532 255.338 207.494 254.726C209.114 240.895 208.649 226.956 208.205 213.046" fill="black"/>
</g>
<path d="M135.128 261.059L151.528 259.083L163.077 266.66L207.266 256.07L208.551 231.421L228.388 230.927L227.924 259.864C227.877 262.077 227.392 264.259 226.498 266.284C225.605 268.31 224.319 270.139 222.716 271.665C221.113 273.192 219.224 274.387 217.157 275.181C215.091 275.975 212.888 276.353 210.675 276.293L145.956 274.505L143.209 268.992L129.329 268.587L135.128 261.059Z" fill="#FFBE9D"/>
<path d="M207.266 256.07C206.994 256.18 206.713 256.266 206.427 256.327L204.026 256.949L195.135 259.162L165.833 266.255L163.106 266.917H162.997L162.909 266.858L151.37 259.261H151.528L135.118 261.158L135.227 261.098L130.929 266.66L129.764 268.103C129.636 268.276 129.494 268.438 129.339 268.587C129.439 268.398 129.558 268.219 129.695 268.053L130.791 266.552L135.01 260.96V260.911H135.079L151.468 258.866H151.547H151.626L163.185 266.433H162.988L165.714 265.781L195.046 258.866L203.937 256.821L206.367 256.287C206.662 256.195 206.962 256.122 207.266 256.07Z" fill="#EB996E"/>
<path d="M144.642 265.761C142.531 266.016 140.404 266.101 138.28 266.018H137.114L137.272 265.959C135.994 267.141 134.612 268.206 133.143 269.14C134.305 267.843 135.577 266.65 136.946 265.574L137.015 265.514H138.28C140.404 265.422 142.532 265.505 144.642 265.761Z" fill="#EB996E"/>
<path d="M214.982 260.199C214.201 258.834 213.095 257.681 211.764 256.842C210.432 256.003 208.915 255.504 207.346 255.388C207.801 255.222 208.293 255.184 208.768 255.28C209.931 255.39 211.051 255.772 212.038 256.396C213.028 257.021 213.859 257.866 214.469 258.866C214.903 259.636 215.042 260.18 214.982 260.199Z" fill="#EB996E"/>
<path d="M233.09 230.927C232.505 231.019 231.914 231.065 231.322 231.066L226.491 231.243C222.421 231.372 216.78 231.51 210.556 231.639H208.58H208.333V231.392C208.106 225.612 208.205 220.475 208.333 216.78C208.392 214.933 208.462 213.451 208.531 212.423C208.537 211.894 208.583 211.365 208.669 210.843C208.732 211.37 208.749 211.903 208.718 212.433C208.718 213.54 208.718 215.002 208.718 216.79C208.718 220.475 208.659 225.612 208.886 231.362L208.629 231.125H210.605C216.829 231.006 222.46 230.917 226.55 230.888H231.381C231.951 230.86 232.522 230.873 233.09 230.927Z" fill="#263238"/>
<path d="M251.703 296.851C249.801 295.408 248.005 293.83 246.329 292.129C244.54 290.548 242.863 288.845 241.311 287.031C243.215 288.472 245.011 290.05 246.685 291.754C248.477 293.331 250.154 295.035 251.703 296.851Z" fill="#FAFAFA"/>
<path d="M239.038 347.344C238.401 347.845 237.712 348.275 236.983 348.628C235.699 349.379 233.92 350.407 231.974 351.592C230.028 352.778 228.309 353.894 227.035 354.694C226.384 355.174 225.689 355.59 224.96 355.939C225.519 355.353 226.145 354.835 226.827 354.398C228.032 353.509 229.791 352.343 231.688 351.148C233.585 349.952 235.452 348.974 236.795 348.312C237.503 347.904 238.256 347.58 239.038 347.344Z" fill="#FAFAFA"/>
<path d="M261.988 242.624C260.567 241.091 259.282 239.439 258.145 237.685C256.857 236.047 255.707 234.306 254.707 232.478C257.409 235.654 259.844 239.048 261.988 242.624Z" fill="#FAFAFA"/>
<path d="M266.424 255.556C265.036 259.173 263.334 262.66 261.336 265.979C262.714 262.363 264.407 258.876 266.394 255.556H266.424Z" fill="#FAFAFA"/>
<path d="M270.04 296.96C268.492 294.451 267.09 291.855 265.841 289.185C264.444 286.587 263.194 283.912 262.097 281.173C263.649 283.679 265.051 286.276 266.295 288.948C267.7 291.543 268.95 294.218 270.04 296.96Z" fill="#FAFAFA"/>
<path d="M269.555 315.247C268.384 317.401 267.064 319.471 265.604 321.441C264.267 323.517 262.788 325.497 261.178 327.368C263.701 323.148 266.514 319.108 269.595 315.276L269.555 315.247Z" fill="#FAFAFA"/>
<path d="M263.598 353.815C262.898 354.926 262.062 355.945 261.108 356.848C260.272 357.857 259.309 358.753 258.243 359.515C258.934 358.401 259.771 357.384 260.733 356.492C261.565 355.477 262.528 354.577 263.598 353.815Z" fill="#FAFAFA"/>
<path d="M57.7041 307.699C58.2683 305.005 59.0008 302.349 59.8973 299.746C60.6316 297.09 61.5324 294.484 62.5943 291.941C62.0234 294.645 61.2877 297.31 60.3913 299.924C59.6595 302.569 58.762 305.166 57.7041 307.699Z" fill="#FAFAFA"/>
<path d="M75.8237 281.746C75.8237 281.894 73.5021 281.548 70.6568 281.647C67.8116 281.746 65.5493 282.23 65.5098 282.082C67.1361 281.415 68.8793 281.079 70.6371 281.094C72.3921 280.967 74.1549 281.188 75.8237 281.746Z" fill="#FAFAFA"/>
<path d="M206.259 158.769L203.769 194.058C203.574 196.833 202.334 199.432 200.299 201.329C198.264 203.227 195.586 204.282 192.803 204.283C191.297 204.284 189.807 203.975 188.426 203.376C187.044 202.777 185.8 201.901 184.771 200.801C183.742 199.702 182.95 198.403 182.443 196.984C181.937 195.566 181.727 194.059 181.828 192.556C182.045 189.197 182.242 186.451 182.242 186.451C182.242 186.451 173.707 185.127 173.598 176.572C173.499 168.955 175.574 146.4 176.028 141.629H191.44C193.549 141.753 195.611 142.298 197.505 143.233C199.399 144.168 201.087 145.472 202.468 147.07C203.85 148.668 204.897 150.527 205.548 152.536C206.199 154.545 206.441 156.665 206.259 158.769Z" fill="#FFBE9D"/>
<path d="M182.233 186.313C186.176 186.383 190.052 185.279 193.367 183.141C193.367 183.141 190.729 189.286 182.213 188.526L182.233 186.313Z" fill="#EB996E"/>
<path d="M177.362 162.128C177.36 162.445 177.481 162.751 177.701 162.98C177.92 163.209 178.221 163.343 178.538 163.353C178.693 163.365 178.849 163.346 178.997 163.298C179.145 163.249 179.282 163.171 179.4 163.069C179.517 162.967 179.613 162.843 179.683 162.703C179.752 162.564 179.793 162.412 179.803 162.257C179.805 161.938 179.684 161.632 179.465 161.401C179.245 161.171 178.945 161.035 178.627 161.022C178.471 161.011 178.315 161.031 178.167 161.081C178.019 161.131 177.882 161.209 177.765 161.312C177.647 161.415 177.551 161.54 177.482 161.68C177.413 161.82 177.372 161.972 177.362 162.128Z" fill="#263238"/>
<path d="M176.592 160.449C176.74 160.607 177.669 159.925 178.973 159.925C180.277 159.925 181.255 160.587 181.393 160.429C181.531 160.271 181.304 160.063 180.889 159.757C180.307 159.362 179.617 159.155 178.913 159.164C178.233 159.164 177.569 159.379 177.017 159.777C176.651 160.093 176.513 160.38 176.592 160.449Z" fill="#263238"/>
<path d="M189.711 162.484C189.706 162.802 189.826 163.109 190.047 163.339C190.267 163.568 190.569 163.701 190.887 163.709C191.046 163.728 191.207 163.714 191.36 163.668C191.513 163.622 191.655 163.544 191.777 163.44C191.899 163.336 191.997 163.208 192.067 163.064C192.136 162.919 192.175 162.762 192.181 162.602C192.184 162.284 192.063 161.977 191.843 161.747C191.624 161.516 191.323 161.38 191.005 161.368C190.846 161.35 190.684 161.365 190.531 161.413C190.378 161.46 190.236 161.539 190.115 161.643C189.993 161.748 189.895 161.877 189.825 162.022C189.756 162.166 189.717 162.324 189.711 162.484Z" fill="#263238"/>
<path d="M189.484 160.696C189.642 160.854 190.561 160.172 191.875 160.172C193.189 160.172 194.147 160.834 194.295 160.666C194.443 160.498 194.206 160.31 193.791 160.004C193.211 159.604 192.52 159.397 191.815 159.411C191.134 159.407 190.469 159.622 189.919 160.024C189.553 160.33 189.415 160.627 189.484 160.696Z" fill="#263238"/>
<path d="M184.722 170.427C184.034 170.206 183.32 170.077 182.598 170.041C182.262 170.041 181.946 169.943 181.887 169.706C181.858 169.361 181.937 169.015 182.114 168.718C182.42 167.908 182.756 167.058 183.102 166.169C184.02 164.006 184.763 161.772 185.325 159.49C184.233 161.573 183.311 163.74 182.569 165.971C182.233 166.87 181.917 167.72 181.581 168.54C181.372 168.944 181.309 169.408 181.403 169.854C181.451 169.972 181.526 170.077 181.622 170.161C181.718 170.245 181.833 170.306 181.956 170.338C182.143 170.39 182.335 170.417 182.529 170.417C183.257 170.514 183.994 170.517 184.722 170.427Z" fill="#263238"/>
<path d="M188.584 171.336C188.377 171.336 188.367 172.748 187.152 173.756C185.937 174.764 184.415 174.606 184.405 174.813C184.396 175.021 184.741 175.09 185.393 175.1C186.227 175.117 187.04 174.837 187.685 174.309C188.304 173.799 188.704 173.071 188.802 172.274C188.841 171.681 188.683 171.326 188.584 171.336Z" fill="#263238"/>
<path d="M189.148 155.549C189.277 155.904 190.591 155.736 192.112 155.924C193.633 156.112 194.898 156.527 195.076 156.211C195.175 156.052 194.957 155.717 194.453 155.371C193.782 154.951 193.025 154.687 192.239 154.6C191.452 154.513 190.656 154.604 189.909 154.867C189.375 155.104 189.099 155.381 189.148 155.549Z" fill="#263238"/>
<path d="M177.075 156.675C177.302 156.981 178.201 156.675 179.288 156.675C180.375 156.675 181.264 156.872 181.511 156.566C181.61 156.408 181.511 156.112 181.057 155.825C180.518 155.483 179.887 155.314 179.249 155.341C178.61 155.351 177.992 155.562 177.48 155.944C177.095 156.201 176.967 156.507 177.075 156.675Z" fill="#263238"/>
<path d="M203.384 165.181C203.532 165.122 209.252 163.442 209.064 169.281C208.877 175.119 203.048 173.736 203.048 173.568C203.048 173.4 203.384 165.181 203.384 165.181Z" fill="#FFBE9D"/>
<path d="M204.906 171.405C204.906 171.405 205.005 171.484 205.172 171.563C205.29 171.621 205.417 171.655 205.548 171.664C205.678 171.672 205.809 171.655 205.933 171.612C206.317 171.384 206.633 171.058 206.85 170.667C207.067 170.277 207.177 169.836 207.168 169.389C207.205 168.887 207.124 168.383 206.931 167.917C206.882 167.734 206.789 167.565 206.66 167.425C206.531 167.286 206.369 167.18 206.19 167.117C206.075 167.083 205.952 167.09 205.842 167.137C205.732 167.184 205.642 167.268 205.587 167.374C205.499 167.532 205.587 167.651 205.498 167.661C205.41 167.67 205.38 167.562 205.439 167.325C205.472 167.178 205.556 167.048 205.676 166.959C205.841 166.846 206.042 166.8 206.239 166.831C206.478 166.885 206.699 167 206.88 167.165C207.062 167.329 207.199 167.537 207.277 167.769C207.509 168.283 207.611 168.847 207.573 169.409C207.587 169.931 207.446 170.444 207.169 170.886C206.891 171.327 206.488 171.676 206.012 171.889C205.853 171.926 205.688 171.929 205.527 171.896C205.367 171.864 205.216 171.797 205.084 171.701C204.916 171.553 204.886 171.415 204.906 171.405Z" fill="#EB996E"/>
<path d="M206.634 164.983C206.078 164.946 205.523 165.06 205.027 165.314C204.531 165.568 204.113 165.953 203.819 166.426C203.443 167.256 203.354 168.204 202.979 169.034C202.829 169.468 202.539 169.839 202.154 170.09C201.769 170.34 201.312 170.455 200.855 170.417C200.553 170.321 200.281 170.148 200.068 169.914C199.855 169.679 199.707 169.393 199.64 169.083C199.516 168.46 199.516 167.819 199.64 167.196C199.986 164.47 200.559 161.773 200.628 159.026C200.842 156.28 200.244 153.532 198.909 151.123C198.22 149.927 197.222 148.94 196.018 148.265C194.815 147.59 193.451 147.253 192.072 147.29C190.264 147.428 188.595 148.376 186.797 148.633C185.724 148.776 184.632 148.672 183.605 148.33C182.578 147.988 181.642 147.416 180.869 146.657C180.672 146.47 179.763 145.867 179.763 145.867C179.787 145.218 179.999 144.589 180.375 144.059C183.952 140.75 190.393 139.831 195.115 141.016C197.518 141.606 199.763 142.712 201.694 144.258C203.625 145.804 205.197 147.752 206.298 149.967C208.333 154.393 207.731 160.557 206.614 165.033" fill="#263238"/>
<path d="M206.466 164.479C206.782 161.624 208.205 159.016 208.946 156.23C209.687 153.444 209.519 150.056 207.296 148.228C206.535 147.606 205.597 147.24 204.885 146.539C204.236 145.791 203.679 144.969 203.226 144.089C202.395 142.801 201.283 141.718 199.975 140.92C198.666 140.123 197.193 139.632 195.668 139.485C193.564 139.297 191.44 139.791 189.335 139.653C185.996 139.445 182.835 137.677 179.456 137.835C178.903 137.822 178.354 137.925 177.843 138.138C177.333 138.351 176.872 138.668 176.492 139.07C176.32 139.282 176.194 139.527 176.121 139.79C176.049 140.053 176.031 140.328 176.07 140.598C176.109 140.868 176.204 141.128 176.348 141.359C176.492 141.591 176.682 141.79 176.907 141.945C176.754 141.751 176.561 141.593 176.341 141.482C176.12 141.37 175.878 141.309 175.631 141.301C175.385 141.294 175.139 141.341 174.913 141.438C174.686 141.536 174.483 141.682 174.319 141.866C174.017 142.266 173.838 142.746 173.807 143.247C173.775 143.748 173.891 144.246 174.141 144.681C174.658 145.548 175.403 146.255 176.295 146.726C179.161 148.43 182.542 149.054 185.828 148.485L192.131 145.047L199.264 146.618L206.051 151.152L203.048 163.709L206.466 164.479Z" fill="#263238"/>
<path d="M60.8955 233.911L81.5332 274.564H146.736L144.158 269.298L125.269 268.745L109.877 234.464C109.409 233.413 108.645 232.52 107.678 231.896C106.712 231.271 105.584 230.942 104.433 230.947H62.7627C62.4133 230.948 62.0699 231.038 61.7643 231.207C61.4587 231.376 61.2008 231.62 61.0146 231.916C60.8284 232.211 60.7198 232.549 60.699 232.898C60.6782 233.247 60.7458 233.595 60.8955 233.911Z" fill="#E0E0E0"/>
<path d="M91.6 254.568C93.0732 254.568 94.2674 253.374 94.2674 251.901C94.2674 250.428 93.0732 249.233 91.6 249.233C90.1269 249.233 88.9326 250.428 88.9326 251.901C88.9326 253.374 90.1269 254.568 91.6 254.568Z" fill="#263238"/>
<path d="M235.175 233.071C235.017 244.462 228.082 254.954 219.022 261.869C209.963 268.784 198.977 272.628 188.031 275.779C177.085 278.93 165.892 281.529 155.588 286.409C141.332 293.157 128.124 302.413 120.023 315.978C111.922 329.542 109.136 347.344 110.035 363.151L231.154 351.039L237.783 282.141L235.175 233.071Z" fill="#455A64"/>
<path d="M188.032 275.779L187.765 275.858L186.995 276.046C186.313 276.204 185.305 276.401 184.031 276.718C181.452 277.32 177.728 278.259 173.164 279.681C167.871 281.308 162.676 283.238 157.604 285.461C151.37 288.161 145.447 291.53 139.94 295.508C137.17 297.654 134.531 299.963 132.036 302.423C129.68 304.695 127.466 307.11 125.407 309.655C121.886 313.95 118.901 318.657 116.516 323.674C114.937 327.064 113.684 330.597 112.772 334.225C112.406 335.499 112.268 336.526 112.09 337.188C112.021 337.504 111.962 337.751 111.912 337.959C111.863 338.166 111.843 338.226 111.843 338.226C111.832 338.134 111.832 338.041 111.843 337.949C111.843 337.742 111.922 337.485 111.972 337.169C112.11 336.477 112.219 335.45 112.555 334.205C113.375 330.537 114.566 326.962 116.111 323.535C118.47 318.459 121.457 313.7 125.002 309.368C127.067 306.801 129.287 304.363 131.651 302.068C134.173 299.584 136.842 297.255 139.643 295.093C145.182 291.092 151.146 287.716 157.426 285.026C162.537 282.809 167.776 280.899 173.114 279.306C177.669 277.952 181.413 277.063 183.981 276.52C185.276 276.233 186.293 276.075 186.945 275.937L187.726 275.809C187.826 275.783 187.929 275.773 188.032 275.779Z" fill="#263238"/>
<path d="M214.014 333.612C211.305 335.467 208.502 337.182 205.617 338.749C202.817 340.465 199.928 342.032 196.963 343.442C199.669 341.581 202.472 339.867 205.36 338.305C208.163 336.593 211.051 335.027 214.014 333.612Z" fill="#FAFAFA"/>
<path d="M159.362 337.09C158.654 336.54 157.993 335.932 157.387 335.272C156.201 334.116 154.561 332.515 152.734 330.777C150.906 329.038 149.207 327.487 147.991 326.371C147.276 325.804 146.615 325.172 146.016 324.484C146.79 324.945 147.515 325.485 148.179 326.094C149.463 327.141 151.192 328.653 153.04 330.401C154.887 332.15 156.478 333.79 157.594 335.015C158.262 335.635 158.856 336.332 159.362 337.09Z" fill="#FAFAFA"/>
<path d="M184.633 303.293C184.244 305.768 183.686 308.214 182.963 310.613C182.4 313.06 181.674 315.466 180.79 317.815C181.179 315.337 181.737 312.887 182.46 310.485C183.025 308.042 183.752 305.64 184.633 303.293Z" fill="#FAFAFA"/>
<path d="M233.021 311.72C230.34 310.811 227.717 309.739 225.167 308.509C222.541 307.44 219.984 306.21 217.511 304.824C220.206 305.737 222.845 306.809 225.414 308.035C228.021 309.111 230.561 310.341 233.021 311.72Z" fill="#FAFAFA"/>
<path d="M177.362 356.423C176.766 354.364 176.34 352.259 176.088 350.13C175.67 348.026 175.416 345.892 175.327 343.748C175.923 345.807 176.349 347.912 176.602 350.041C177.019 352.146 177.274 354.279 177.362 356.423Z" fill="#FAFAFA"/>
<path d="M135.237 353.627C133.201 351.697 131.284 349.645 129.497 347.483C127.579 345.438 125.794 343.274 124.152 341.002C126.186 342.931 128.1 344.983 129.882 347.147C131.799 349.195 133.587 351.359 135.237 353.627Z" fill="#FAFAFA"/>
<path d="M168.846 291.941C166.866 293.224 164.792 294.356 162.642 295.33C160.574 296.473 158.424 297.464 156.211 298.294C158.192 297.011 160.266 295.879 162.415 294.905C164.484 293.762 166.633 292.772 168.846 291.941Z" fill="#FAFAFA"/>
<path d="M216.879 283.87C214.361 284.118 211.83 284.2 209.301 284.117C206.769 284.2 204.234 284.114 201.714 283.86C204.234 283.6 206.769 283.514 209.301 283.603C211.83 283.514 214.362 283.603 216.879 283.87Z" fill="#FAFAFA"/>
<path d="M236.124 250.528C235.684 252.524 234.983 254.454 234.039 256.267C233.25 258.151 232.22 259.924 230.976 261.543C230.848 261.464 232.162 259.083 233.575 256.05C234.987 253.017 235.975 250.528 236.124 250.528Z" fill="#FAFAFA"/>
<path d="M393.856 340.369H321.639V350.288H393.856V340.369Z" fill="#263238"/>
<path d="M393.975 350.417H321.511V340.251H393.975V350.417ZM321.758 350.17H393.718V340.498H321.758V350.17Z" fill="#263238"/>
<path d="M328.327 346.998L338.73 398.272H377.19L387.237 350.298L328.327 346.998Z" fill="#263238"/>
<path d="M328.327 393.421L333.879 401.048H380.628L387.237 393.421H328.327Z" fill="#455A64"/>
<path d="M355.031 348.49C354.893 348.49 354.705 324.731 354.626 295.439C354.547 266.147 354.626 242.377 354.734 242.377C354.843 242.377 355.06 266.087 355.14 295.439C355.219 324.79 355.189 348.49 355.031 348.49Z" fill="#263238"/>
<path d="M371.113 289.057C371.075 289.248 371.012 289.434 370.926 289.61L370.284 291.151L369.809 292.258C369.661 292.672 369.503 293.127 369.325 293.601C369.147 294.075 368.97 294.589 368.772 295.152C368.574 295.715 368.426 296.298 368.239 296.921C367.392 299.823 366.732 302.776 366.263 305.762C365.675 309.418 365.276 313.101 365.067 316.798C364.805 323.534 364.997 330.28 365.64 336.991C365.868 339.569 366.105 341.654 366.273 343.096C366.352 343.768 366.411 344.321 366.46 344.756C366.486 344.949 366.486 345.145 366.46 345.339C366.396 345.153 366.353 344.961 366.332 344.766C366.253 344.331 366.164 343.778 366.045 343.116C365.818 341.683 365.532 339.609 365.245 337.03C364.492 330.304 364.251 323.531 364.524 316.768C364.707 313.048 365.096 309.341 365.69 305.664C366.199 302.654 366.915 299.683 367.834 296.772C368.031 296.15 368.199 295.557 368.407 295.004L368.999 293.463C369.187 292.989 369.355 292.544 369.523 292.129C369.691 291.714 369.879 291.359 370.037 291.033L370.768 289.531C370.871 289.365 370.987 289.206 371.113 289.057Z" fill="#263238"/>
<path d="M369.276 269.822C369.213 270.09 369.134 270.354 369.039 270.612L368.288 272.815C368.12 273.299 367.943 273.803 367.735 274.406L367.152 276.332C366.737 277.705 366.243 279.296 365.809 281.025C365.581 281.904 365.334 282.813 365.088 283.771L364.406 286.735C363.902 288.8 363.536 291.052 363.072 293.394C362.282 298.116 361.58 303.332 361.096 308.835C360.612 314.338 360.434 319.603 360.365 324.385C360.296 329.166 360.415 333.484 360.612 337.099C360.671 338.917 360.79 340.547 360.889 341.98C360.988 343.412 361.057 344.657 361.146 345.665C361.235 346.672 361.284 347.413 361.324 347.986C361.35 348.259 361.35 348.534 361.324 348.806C361.259 348.544 361.216 348.276 361.195 348.006C361.126 347.423 361.037 346.653 360.918 345.684C360.8 344.716 360.681 343.442 360.573 342C360.464 340.557 360.306 338.937 360.217 337.119C359.98 333.503 359.881 329.216 359.861 324.385C359.842 319.554 360.098 314.308 360.553 308.786C361.007 303.263 361.758 298.037 362.578 293.315C363.062 290.963 363.438 288.711 363.961 286.636L364.673 283.672C364.929 282.685 365.186 281.805 365.433 280.926C365.888 279.168 366.421 277.607 366.856 276.243C367.073 275.562 367.281 274.919 367.478 274.337L368.071 272.756L368.911 270.573C369.014 270.314 369.136 270.063 369.276 269.822Z" fill="#263238"/>
<path d="M350.466 352.699C350.45 352.604 350.45 352.507 350.466 352.412C350.466 352.205 350.466 351.938 350.397 351.602C350.348 350.841 350.269 349.794 350.18 348.451C350.012 345.684 349.765 341.743 349.459 336.882C348.826 327.112 347.927 313.616 346.278 298.778C345.438 291.359 344.47 284.305 343.452 277.913C342.919 274.732 342.464 271.689 341.871 268.873C341.279 266.058 340.814 263.41 340.31 261.019C339.807 258.629 339.323 256.475 338.888 254.578C338.453 252.681 338.058 251.051 337.722 249.727C337.386 248.404 337.159 247.396 336.971 246.665C336.899 246.342 336.84 246.075 336.793 245.865C336.782 245.773 336.782 245.68 336.793 245.588C336.836 245.673 336.869 245.763 336.892 245.855C336.952 246.052 337.031 246.319 337.119 246.635C337.327 247.366 337.613 248.384 337.969 249.678C338.325 250.972 338.769 252.642 339.214 254.509C339.658 256.376 340.202 258.55 340.716 260.94C341.229 263.331 341.812 265.959 342.346 268.794C342.879 271.63 343.422 274.653 343.976 277.844C345.013 284.236 346.001 291.289 346.841 298.719C348.49 313.537 349.34 327.082 349.874 336.862C350.14 341.753 350.318 345.704 350.427 348.441C350.476 349.784 350.516 350.832 350.545 351.592C350.545 351.928 350.545 352.205 350.545 352.412C350.53 352.51 350.504 352.607 350.466 352.699Z" fill="#263238"/>
<path d="M354.438 253.798C354.132 250.429 350.724 247.87 347.345 247.87C343.966 247.87 340.815 249.846 338.75 252.543C336.803 255.317 335.398 258.434 334.611 261.731C332.338 269.634 331.094 277.992 332.062 286.182C333.03 294.372 336.359 302.443 342.237 308.222C343.225 309.21 344.431 310.109 345.745 309.833C346.45 309.618 347.087 309.223 347.592 308.687C353.352 303.42 357.919 296.982 360.986 289.805C364.053 282.628 365.549 274.878 365.375 267.075C365.276 263.963 364.871 260.723 363.142 258.125C361.413 255.527 357.402 252.77 354.458 253.817" fill="#007BFC"/>
<path d="M329.206 226.817C327.612 229.696 326.025 232.57 324.444 235.442C324.335 235.64 324.187 235.867 323.96 235.887C323.733 235.906 323.515 235.669 323.377 235.462L310.791 216.138L313.696 214.498L329.206 226.817Z" fill="#007BFC"/>
<g opacity="0.2">
<path opacity="0.2" d="M329.206 226.817C327.612 229.696 326.025 232.57 324.444 235.442C324.335 235.64 324.187 235.867 323.96 235.887C323.733 235.906 323.515 235.669 323.377 235.462L310.791 216.138L313.696 214.498L329.206 226.817Z" fill="black"/>
</g>
<path d="M354.734 242.377L311.799 217.037C311.315 216.827 310.933 216.438 310.732 215.95C310.564 215.318 311.038 214.706 311.502 214.231C314.456 211.173 318.034 208.788 321.992 207.238C325.951 205.689 330.198 205.011 334.442 205.251C338.688 205.554 342.796 206.888 346.411 209.136C350.026 211.384 353.039 214.479 355.188 218.153C359.328 225.553 359.466 235.343 354.714 242.377" fill="#007BFC"/>
<path d="M317.983 208.956C318.166 208.903 318.356 208.877 318.547 208.877C318.922 208.877 319.465 208.798 320.177 208.808C322.163 208.777 324.147 208.932 326.104 209.272C331.175 210.101 335.996 212.055 340.213 214.99C344.431 217.925 347.938 221.767 350.476 226.235C351.959 228.807 353.105 231.56 353.885 234.424C354.419 236.347 354.777 238.315 354.952 240.303C355.031 241.004 355.021 241.557 355.04 241.923C355.062 242.11 355.062 242.299 355.04 242.486C355.04 242.486 354.942 241.715 354.774 240.322C354.527 238.36 354.12 236.42 353.559 234.523C351.758 228.219 348.227 222.546 343.366 218.147C338.504 213.748 332.507 210.8 326.055 209.637C324.099 209.268 322.117 209.057 320.127 209.005C318.764 208.976 317.993 209.035 317.983 208.956Z" fill="#263238"/>
<path d="M348.925 224.891C348.238 225.297 347.509 225.629 346.752 225.879C345.388 226.422 343.472 227.114 341.338 227.796C339.204 228.477 337.238 229.011 335.805 229.356C335.042 229.595 334.252 229.738 333.454 229.781C334.174 229.444 334.925 229.179 335.697 228.991L341.17 227.282L346.623 225.523C347.365 225.229 348.137 225.017 348.925 224.891Z" fill="#263238"/>
<path d="M342.158 206.723C342.76 209.889 342.843 213.133 342.405 216.326C342.194 214.734 342.111 213.129 342.158 211.524C342.033 209.926 342.033 208.321 342.158 206.723Z" fill="#263238"/>
<path d="M311.424 216.563C312.429 216.101 313.474 215.73 314.546 215.456C316.521 214.864 319.209 214.103 322.242 213.372C325.275 212.641 328.031 212.078 330.046 211.722C331.122 211.484 332.216 211.338 333.316 211.287C332.269 211.629 331.2 211.897 330.115 212.088C328.139 212.522 325.383 213.145 322.36 213.866C319.337 214.587 316.61 215.298 314.644 215.842C313.589 216.158 312.513 216.399 311.424 216.563Z" fill="#263238"/>
<path d="M334.936 245.825C331.241 243.029 327.339 242.476 322.706 242.664C318.071 242.969 313.534 244.139 309.329 246.112C302.088 249.283 295.281 253.956 290.954 260.575C286.627 267.194 285.125 275.947 288.366 283.159C288.619 283.911 289.139 284.543 289.828 284.937C290.634 285.165 291.496 285.099 292.258 284.749C300.487 282.062 308.776 279.345 316.353 275.147C323.931 270.948 330.817 265.09 334.877 257.443C335.934 255.641 336.607 253.64 336.853 251.565C336.965 250.529 336.855 249.481 336.529 248.491C336.204 247.501 335.671 246.592 334.966 245.825" fill="#007BFC"/>
<path d="M335.005 244.956C334.818 245.061 334.619 245.143 334.412 245.203L332.693 245.795L331.439 246.21C330.994 246.368 330.51 246.576 329.987 246.783C328.939 247.198 327.734 247.623 326.46 248.236L324.434 249.154C323.743 249.48 323.041 249.876 322.3 250.261C320.809 250.992 319.337 251.93 317.687 252.879C310.786 257.154 304.649 262.554 299.529 268.854C298.383 270.336 297.257 271.709 296.338 273.102C295.874 273.783 295.35 274.426 294.975 275.078L293.809 276.964C293.038 278.15 292.465 279.296 291.912 280.274C291.645 280.768 291.378 281.262 291.161 281.647C290.944 282.033 290.766 282.477 290.588 282.833C290.262 283.505 289.986 284.048 289.778 284.473C289.696 284.669 289.59 284.855 289.462 285.026C289.526 284.824 289.602 284.626 289.689 284.433L290.41 282.754C290.568 282.378 290.746 281.973 290.944 281.539C291.151 281.104 291.398 280.64 291.655 280.146C292.189 279.158 292.742 277.982 293.493 276.777L294.649 274.86C295.044 274.198 295.528 273.546 295.992 272.884C296.901 271.482 297.968 270.079 299.153 268.587C304.268 262.204 310.457 256.762 317.44 252.503C319.07 251.516 320.591 250.626 322.103 249.905C322.854 249.54 323.565 249.145 324.266 248.828L326.311 247.939C327.606 247.337 328.831 246.951 329.888 246.536C330.411 246.349 330.876 246.161 331.36 246.013L332.634 245.637L334.393 245.134C334.592 245.06 334.797 245 335.005 244.956Z" fill="#263238"/>
<path d="M306.158 260.585C303.217 261.701 300.22 262.664 297.178 263.469C294.182 264.436 291.134 265.238 288.05 265.87C290.993 264.746 293.994 263.78 297.04 262.975C300.033 262.01 303.077 261.212 306.158 260.585Z" fill="#263238"/>
<path d="M305.792 280.402C305.637 279.479 305.571 278.543 305.595 277.607C305.545 275.868 305.535 273.477 305.595 270.839C305.654 268.202 305.812 265.811 305.95 264.082C305.979 263.147 306.099 262.218 306.306 261.306C306.385 262.239 306.385 263.178 306.306 264.112C306.247 265.999 306.177 268.31 306.098 270.859C306.019 273.408 305.98 275.71 305.93 277.607C305.962 278.541 305.916 279.476 305.792 280.402Z" fill="#263238"/>
<path d="M322.775 271.748C322.626 271.748 322.182 266.898 321.787 260.881C321.392 254.865 321.145 250.014 321.283 250.014C321.421 250.014 321.886 254.865 322.271 260.881C322.656 266.898 322.913 271.738 322.775 271.748Z" fill="#263238"/>
<path d="M301.634 249.54C302.591 249.427 303.557 249.4 304.519 249.461C306.287 249.461 308.737 249.52 311.434 249.609C314.131 249.698 316.591 249.806 318.349 249.915C319.311 249.925 320.269 250.017 321.214 250.192C320.261 250.306 319.299 250.336 318.34 250.281C316.561 250.281 314.111 250.211 311.424 250.123C308.737 250.034 306.257 249.925 304.509 249.816C303.544 249.82 302.581 249.727 301.634 249.54Z" fill="#263238"/>
<path d="M344.075 310.514C344.041 310.322 344.022 310.127 344.015 309.932C344.015 309.487 344.015 308.944 343.946 308.242C343.877 306.78 343.867 304.656 343.946 302.038C344.025 299.42 344.173 296.288 344.48 292.84C344.786 289.393 345.3 285.599 345.991 281.657C346.683 277.715 347.552 273.991 348.431 270.632C349.311 267.273 350.249 264.299 351.109 261.82C351.968 259.34 352.709 257.354 353.282 256.001C353.549 255.368 353.756 254.855 353.934 254.44C353.995 254.254 354.082 254.078 354.191 253.916C354.161 254.111 354.104 254.3 354.023 254.479C353.885 254.894 353.697 255.467 353.47 256.07C352.956 257.443 352.265 259.449 351.494 261.938C350.723 264.428 349.805 267.411 348.935 270.76C348.066 274.109 347.246 277.814 346.535 281.746C345.823 285.678 345.349 289.442 344.993 292.88C344.638 296.318 344.44 299.43 344.351 302.048C344.262 304.666 344.213 306.78 344.213 308.242C344.213 308.934 344.213 309.487 344.213 309.932C344.196 310.132 344.149 310.328 344.075 310.514Z" fill="#263238"/>
<path d="M346.347 281.222C345.843 281.911 345.267 282.544 344.628 283.109C343.521 284.216 341.941 285.698 340.143 287.278C338.345 288.859 336.665 290.242 335.42 291.181C334.778 291.735 334.079 292.222 333.336 292.633C333.893 291.993 334.515 291.414 335.193 290.904L339.807 286.893L344.381 282.843C344.986 282.244 345.644 281.702 346.347 281.222Z" fill="#263238"/>
<path d="M359.931 292.169C359.276 291.374 358.682 290.532 358.153 289.649L353.905 283.455L349.578 277.32C348.929 276.506 348.348 275.64 347.839 274.732C348.585 275.458 349.263 276.252 349.864 277.103C351.059 278.614 352.65 280.748 354.33 283.159C356.009 285.569 357.451 287.802 358.459 289.452C359.027 290.314 359.519 291.223 359.931 292.169Z" fill="#263238"/>
<path d="M352.817 257.749C352.886 257.868 348.381 260.901 342.731 264.536C337.08 268.172 332.446 271.007 332.367 270.889C332.288 270.77 336.813 267.727 342.454 264.102C348.095 260.476 352.738 257.621 352.817 257.749Z" fill="#263238"/>
<path d="M365.543 271.482C363.151 269.51 360.872 267.406 358.716 265.179C356.441 263.07 354.281 260.841 352.245 258.5C354.64 260.469 356.919 262.573 359.072 264.803C361.35 266.909 363.51 269.138 365.543 271.482Z" fill="#263238"/>
<path d="M368.743 271.205L372.616 270.889C375.37 270.661 378.042 269.842 380.45 268.488C381.625 267.801 382.842 267.19 384.096 266.66C388.887 264.734 394.232 265.08 399.389 264.823C407.831 264.395 416.101 262.279 423.711 258.599C424.163 258.391 424.537 258.045 424.778 257.611C425.569 256.159 424.097 254.865 422.803 254.084C416.272 250.063 409.624 245.983 402.224 243.988C394.825 241.992 386.417 242.328 380.095 246.675C372.685 251.782 369.978 262.264 368.724 271.175" fill="#007BFC"/>
<path d="M424.857 257.166L424.205 256.86L422.368 255.872C420.777 255.033 418.485 253.798 415.581 252.415C412.21 250.749 408.695 249.393 405.079 248.364C400.662 247.098 396.038 246.722 391.475 247.258C386.903 247.772 382.585 249.628 379.067 252.592C376.317 255.143 374.118 258.229 372.606 261.662C371.243 264.566 370.403 267.036 369.79 268.725L369.099 270.701C369.034 270.934 368.945 271.159 368.832 271.373C368.863 271.134 368.92 270.899 369 270.671C369.158 270.168 369.356 269.506 369.603 268.696C370.352 266.262 371.243 263.873 372.27 261.543C373.763 258.034 375.97 254.875 378.751 252.266C382.326 249.214 386.734 247.304 391.406 246.783C396.047 246.228 400.753 246.621 405.237 247.939C408.871 248.999 412.397 250.398 415.768 252.118C418.663 253.551 420.925 254.835 422.496 255.734L424.284 256.771C424.489 256.881 424.681 257.014 424.857 257.166Z" fill="#263238"/>
<path d="M415.551 262.165C415.472 262.284 410.404 259.004 404.239 254.845C398.075 250.686 393.125 247.208 393.204 247.09C393.283 246.971 398.351 250.251 404.526 254.41C410.7 258.569 415.63 262.047 415.551 262.165Z" fill="#263238"/>
<path d="M410.691 246.576C408.108 247.383 405.384 247.632 402.698 247.307C404.001 247.051 405.323 246.902 406.65 246.862C407.985 246.646 409.338 246.55 410.691 246.576Z" fill="#263238"/>
<path d="M387.958 242.535C387.562 243.714 387.004 244.831 386.299 245.855C385.739 246.969 385.031 248.003 384.194 248.927C384.581 247.746 385.126 246.623 385.815 245.588C386.389 244.479 387.11 243.452 387.958 242.535Z" fill="#263238"/>
<path d="M392.503 265.149C391.646 264.793 390.828 264.349 390.062 263.825C388.6 262.936 386.624 261.632 384.51 260.101C382.396 258.569 380.559 257.137 379.185 256.05C378.431 255.511 377.727 254.906 377.081 254.242C377.904 254.675 378.685 255.185 379.413 255.764L384.807 259.715C386.921 261.247 388.857 262.59 390.26 263.548C391.05 264.02 391.8 264.556 392.503 265.149Z" fill="#263238"/>
<path d="M374.453 287.674C370.758 286.686 366.352 290.292 365.562 294.036C364.771 297.78 366.214 301.613 367.854 305.071C371.374 312.804 376.599 319.64 383.137 325.067C389.756 330.342 398.045 333.711 406.511 333.671C404.95 326.41 406.926 318.852 406.057 311.453C405.296 304.954 402.351 298.906 397.704 294.298C393.058 289.691 386.985 286.798 380.479 286.093C378.118 285.836 375.391 285.461 374.453 287.644" fill="#007BFC"/>
<path d="M406.561 333.671C406.378 333.607 406.203 333.525 406.037 333.424C405.525 333.173 405.039 332.871 404.585 332.525C403.033 331.178 401.786 329.514 400.93 327.645C400.347 326.499 399.685 325.254 399.043 323.881C398.401 322.508 397.749 321.036 397.067 319.485C396.348 317.871 395.53 316.304 394.617 314.792C393.617 313.183 392.494 311.653 391.258 310.218C388.729 307.254 386.012 304.676 383.661 302.216C381.531 300.083 379.591 297.769 377.862 295.3C376.703 293.621 375.754 291.806 375.036 289.896C374.838 289.377 374.673 288.846 374.542 288.306C374.477 288.125 374.437 287.935 374.424 287.743C374.473 287.743 374.681 288.494 375.214 289.817C376.007 291.679 377.001 293.448 378.178 295.093C379.933 297.525 381.886 299.808 384.017 301.919C386.378 304.35 389.114 306.918 391.673 309.922C392.925 311.378 394.061 312.931 395.071 314.565C395.986 316.098 396.801 317.689 397.512 319.327C398.203 320.878 398.845 322.36 399.487 323.743C400.13 325.126 400.752 326.371 401.315 327.517C402.123 329.379 403.299 331.059 404.773 332.456C405.83 333.276 406.561 333.622 406.561 333.671Z" fill="#263238"/>
<path d="M387.415 327.635C387.434 326.795 387.55 325.959 387.761 325.146C388.047 323.624 388.522 321.54 389.164 319.218C389.806 316.896 390.487 314.911 391.041 313.468C391.279 312.665 391.61 311.892 392.029 311.166C391.882 311.993 391.657 312.803 391.357 313.587C390.902 315.059 390.28 317.094 389.638 319.366C388.996 321.638 388.472 323.693 388.097 325.185C387.952 326.023 387.724 326.843 387.415 327.635Z" fill="#263238"/>
<path d="M405.83 309.803C404.948 309.681 404.078 309.479 403.232 309.2C401.631 308.786 399.438 308.213 396.988 307.669C394.538 307.126 392.305 306.681 390.695 306.385C389.809 306.274 388.936 306.079 388.087 305.802C388.981 305.79 389.874 305.863 390.754 306.019C392.384 306.237 394.637 306.612 397.107 307.165C399.576 307.719 401.76 308.351 403.331 308.855C404.197 309.076 405.035 309.394 405.83 309.803Z" fill="#263238"/>
<path d="M373.702 315C373.737 314.027 373.87 313.061 374.097 312.115C374.423 310.356 374.947 307.926 375.639 305.278C376.33 302.631 377.061 300.26 377.614 298.56C377.874 297.625 378.228 296.718 378.671 295.854C378.509 296.809 378.271 297.751 377.96 298.669C377.466 300.388 376.794 302.769 376.103 305.407C375.411 308.045 374.838 310.455 374.423 312.194C374.255 313.146 374.014 314.084 373.702 315Z" fill="#263238"/>
<path d="M397.354 294.293C393.907 294.193 390.468 293.916 387.05 293.463C381.369 292.86 376.775 292.258 376.795 292.119C380.242 292.219 383.681 292.496 387.099 292.949C392.78 293.552 397.364 294.154 397.354 294.293Z" fill="#263238"/>
<path d="M393.975 350.308C393.975 350.446 377.753 350.565 357.748 350.565C337.742 350.565 321.521 350.446 321.521 350.308C321.521 350.17 337.732 350.051 357.748 350.051C377.763 350.051 393.975 350.11 393.975 350.308Z" fill="#455A64"/>
<path d="M382.682 371.133C382.682 371.272 371.756 371.39 358.281 371.39C344.805 371.39 333.869 371.272 333.869 371.133C333.869 370.995 344.796 370.877 358.281 370.877C371.766 370.877 382.682 370.985 382.682 371.133Z" fill="#455A64"/>
<path d="M383.107 374.117C383.107 374.255 372.181 374.374 358.706 374.374C345.23 374.374 334.294 374.255 334.294 374.117C334.294 373.979 345.22 373.86 358.706 373.86C372.191 373.86 383.107 374.018 383.107 374.117Z" fill="#455A64"/>
<path d="M383.107 368.673C383.107 368.812 371.805 368.93 357.866 368.93C343.926 368.93 332.614 368.812 332.614 368.673C332.614 368.535 343.916 368.417 357.866 368.417C371.815 368.417 383.107 368.525 383.107 368.673Z" fill="#455A64"/>
<g clip-path="url(#clip0_1059_491)">
<path d="M288.433 147.829L292.379 154.707L287.396 154.527L288.433 147.829Z" fill="#F4A93F"/>
<path d="M290.326 149.145L293.251 154.707L287.272 154.527L290.326 149.145Z" fill="#F4A83E"/>
<path d="M289.777 150.099L292.336 154.707L287.335 154.657L289.777 150.099Z" fill="#E88634"/>
<path d="M292.46 149.63L293.251 154.707L287.21 154.645L292.46 149.63Z" fill="#F8CA51"/>
<path d="M290.326 156.259L293.317 154.645L287.21 154.588L290.326 156.259Z" fill="#F8CA51"/>
<path d="M272.002 152.352C272.132 156.611 280.363 159.96 290.498 159.96V158.314C282.34 158.274 273.783 155.774 273.646 152.352H272.002Z" fill="#E88634"/>
<path d="M299.649 136.682C295.898 134.666 288.883 140.123 283.815 148.902L285.24 149.725C289.354 142.678 295.796 136.515 298.827 138.107L299.649 136.682Z" fill="#F9CB52"/>
<path d="M272.002 152.353C272.132 148.094 280.363 144.745 290.498 144.745V146.391C282.34 146.431 273.783 148.931 273.646 152.353H272.002Z" fill="#E88634"/>
<path d="M281.258 136.316C277.637 138.558 278.853 147.363 283.92 156.143L285.345 155.32C281.301 148.233 279.187 139.57 282.08 137.741L281.258 136.316Z" fill="#F4A73E"/>
<path d="M281.258 168.479C277.637 166.236 278.853 157.431 283.92 148.652L285.345 149.474C281.301 156.562 279.187 165.225 282.08 167.054L281.258 168.479Z" fill="#F9CB52"/>
<path d="M281.044 136.419C284.796 134.403 291.81 139.859 296.878 148.639L295.453 149.461C291.339 142.414 284.897 136.252 281.866 137.844L281.044 136.419Z" fill="#F4A73E"/>
<path d="M308.996 152.353C308.865 148.094 300.634 144.745 290.5 144.745V146.391C298.657 146.431 307.215 148.931 307.352 152.353H308.996Z" fill="#E88634"/>
<path d="M281.094 168.492C281.116 168.505 281.138 168.519 281.16 168.531C284.889 170.685 291.975 165.211 297.083 156.362L295.667 155.526C291.52 162.635 285 168.85 281.999 167.117C281.968 167.099 281.939 167.081 281.909 167.062L281.094 168.492Z" fill="#F9CB52"/>
<path d="M299.755 168.376C296.002 170.391 288.988 164.935 283.922 156.156L283.868 156.064L285.273 155.208C289.38 162.302 295.875 168.544 298.927 166.955L299.755 168.376Z" fill="#F4A73E"/>
<path d="M308.996 152.147C308.997 152.181 308.998 152.215 308.998 152.25C308.998 156.557 300.716 159.96 290.5 159.96V158.314C298.724 158.274 307.353 155.733 307.353 152.269C307.353 152.228 307.352 152.188 307.35 152.147H308.996Z" fill="#E88634"/>
<path d="M299.542 168.477C303.161 166.234 301.944 157.43 296.878 148.652L296.788 148.496L295.345 149.284L295.354 149.301C299.455 156.406 301.627 165.176 298.735 167.043L299.542 168.477Z" fill="#F4A73E"/>
<path d="M299.64 136.58C303.261 138.822 302.045 147.627 296.978 156.406L295.554 155.584C299.598 148.497 301.712 139.834 298.818 138.004L299.64 136.58Z" fill="#F9CB52"/>
</g>
<g clip-path="url(#clip1_1059_491)">
<path d="M295.462 58.504C295.462 55.8879 292.188 53.4085 287.169 51.871C288.327 46.7514 287.812 42.6782 285.544 41.3742C285.021 41.0683 284.41 40.9234 283.742 40.9234V42.7185C284.112 42.7185 284.41 42.7909 284.659 42.9278C285.753 43.5557 286.228 45.9464 285.858 49.0214C285.769 49.7781 285.624 50.575 285.447 51.388C283.871 51.0017 282.15 50.7038 280.34 50.5106C279.254 49.0214 278.128 47.6691 276.994 46.4858C279.616 44.0467 282.077 42.7104 283.75 42.7104V40.9153C281.538 40.9153 278.643 42.4931 275.715 45.23C272.787 42.5092 269.891 40.9475 267.679 40.9475V42.7426C269.344 42.7426 271.814 44.0708 274.436 46.4938C273.31 47.6771 272.184 49.0214 271.114 50.5106C269.296 50.7038 267.575 51.0017 265.998 51.3961C265.813 50.5911 265.676 49.8103 265.58 49.0617C265.202 45.9867 265.668 43.5959 266.754 42.96C266.996 42.8151 267.309 42.7507 267.679 42.7507V40.9556C267.004 40.9556 266.392 41.1005 265.861 41.4064C263.601 42.7104 263.094 46.7756 264.261 51.8791C259.258 53.4246 256 55.8959 256 58.504C256 61.1202 259.274 63.5995 264.293 65.137C263.135 70.2566 263.649 74.3298 265.918 75.6338C266.44 75.9397 267.052 76.0846 267.727 76.0846C269.939 76.0846 272.835 74.5069 275.763 71.77C278.691 74.4908 281.586 76.0524 283.798 76.0524C284.474 76.0524 285.085 75.9075 285.616 75.6017C287.876 74.2976 288.383 70.2325 287.217 65.1289C292.204 63.5914 295.462 61.1121 295.462 58.504V58.504ZM284.989 53.1348C284.691 54.1733 284.321 55.2439 283.903 56.3145C283.573 55.6705 283.227 55.0265 282.849 54.3826C282.479 53.7386 282.085 53.1107 281.691 52.4989C282.833 52.668 283.935 52.8773 284.989 53.1348ZM281.305 61.7078C280.678 62.7945 280.034 63.8249 279.366 64.7828C278.168 64.8875 276.953 64.9438 275.731 64.9438C274.516 64.9438 273.302 64.8875 272.111 64.7909C271.444 63.8329 270.792 62.8106 270.165 61.732C269.553 60.6774 268.998 59.6068 268.492 58.5282C268.99 57.4495 269.553 56.3708 270.157 55.3163C270.784 54.2296 271.427 53.1992 272.095 52.2413C273.294 52.1367 274.508 52.0803 275.731 52.0803C276.945 52.0803 278.16 52.1367 279.35 52.2333C280.018 53.1912 280.669 54.2135 281.297 55.2922C281.908 56.3467 282.463 57.4173 282.97 58.496C282.463 59.5746 281.908 60.6533 281.305 61.7078ZM283.903 60.6613C284.337 61.74 284.707 62.8187 285.013 63.8651C283.959 64.1227 282.849 64.3401 281.699 64.5091C282.093 63.8893 282.487 63.2534 282.857 62.6013C283.227 61.9574 283.573 61.3053 283.903 60.6613ZM275.747 69.2504C274.999 68.4776 274.251 67.6163 273.511 66.6745C274.235 66.7067 274.975 66.7308 275.723 66.7308C276.479 66.7308 277.227 66.7147 277.959 66.6745C277.235 67.6163 276.487 68.4776 275.747 69.2504ZM269.762 64.5091C268.62 64.3401 267.518 64.1308 266.465 63.8732C266.762 62.8348 267.132 61.7642 267.551 60.6935C267.88 61.3375 268.226 61.9815 268.604 62.6255C268.982 63.2695 269.368 63.8973 269.762 64.5091ZM275.707 47.7576C276.455 48.5304 277.203 49.3917 277.943 50.3335C277.219 50.3013 276.479 50.2772 275.731 50.2772C274.975 50.2772 274.227 50.2933 273.495 50.3335C274.219 49.3917 274.967 48.5304 275.707 47.7576ZM269.754 52.4989C269.36 53.1187 268.966 53.7547 268.596 54.4067C268.226 55.0507 267.88 55.6947 267.551 56.3386C267.116 55.26 266.746 54.1813 266.44 53.1348C267.494 52.8853 268.604 52.668 269.754 52.4989V52.4989ZM262.475 62.5772C259.628 61.3617 257.786 59.7678 257.786 58.504C257.786 57.2402 259.628 55.6383 262.475 54.4308C263.167 54.133 263.923 53.8674 264.703 53.6178C265.162 55.1956 265.765 56.8377 266.513 58.5201C265.773 60.1945 265.178 61.8286 264.727 63.3983C263.931 63.1487 263.175 62.875 262.475 62.5772ZM266.802 74.0803C265.709 73.4524 265.234 71.0616 265.604 67.9866C265.692 67.2299 265.837 66.433 266.014 65.62C267.591 66.0064 269.312 66.3042 271.122 66.4974C272.208 67.9866 273.334 69.339 274.468 70.5223C271.846 72.9613 269.384 74.2976 267.711 74.2976C267.349 74.2895 267.044 74.2171 266.802 74.0803V74.0803ZM285.882 67.9464C286.26 71.0214 285.793 73.4121 284.707 74.0481C284.466 74.1929 284.152 74.2573 283.782 74.2573C282.117 74.2573 279.648 72.9291 277.026 70.5062C278.152 69.3229 279.278 67.9786 280.348 66.4894C282.166 66.2962 283.887 65.9983 285.463 65.6039C285.648 66.4169 285.793 67.1977 285.882 67.9464V67.9464ZM288.978 62.5772C288.287 62.875 287.531 63.1407 286.75 63.3902C286.292 61.8125 285.689 60.1703 284.941 58.4879C285.681 56.8136 286.276 55.1795 286.726 53.6098C287.523 53.8593 288.279 54.133 288.987 54.4308C291.834 55.6464 293.676 57.2402 293.676 58.504C293.668 59.7678 291.826 61.3697 288.978 62.5772V62.5772Z" fill="#61DAFB"/>
<path d="M275.723 62.1827C277.753 62.1827 279.399 60.5357 279.399 58.504C279.399 56.4723 277.753 54.8253 275.723 54.8253C273.693 54.8253 272.047 56.4723 272.047 58.504C272.047 60.5357 273.693 62.1827 275.723 62.1827Z" fill="#61DAFB"/>
</g>
<path d="M137.945 177.237C137.945 175.632 136.065 174.208 133.175 173.339C133.871 170.388 133.567 168.04 132.183 167.245C131.844 167.056 131.461 166.959 131.073 166.966C129.783 166.966 128.151 167.872 126.503 169.44C124.856 167.884 123.229 166.982 121.94 166.982C121.546 166.973 121.157 167.071 120.814 167.266C119.437 168.063 119.152 170.397 119.838 173.335C116.962 174.199 115.092 175.611 115.087 177.209C115.083 178.807 116.969 180.237 119.859 181.104C119.164 184.058 119.465 186.403 120.851 187.198C121.189 187.388 121.571 187.485 121.959 187.477C123.252 187.477 124.883 186.571 126.531 185.003C128.177 186.56 129.803 187.461 131.094 187.461C131.488 187.468 131.877 187.37 132.221 187.177C133.597 186.38 133.88 184.046 133.196 181.12C136.072 180.244 137.942 178.832 137.945 177.237V177.237ZM127.565 169.966C129.463 168.259 130.649 168.075 131.071 168.075C131.267 168.068 131.46 168.115 131.632 168.21C132.295 168.589 132.559 169.929 132.348 171.704C132.294 172.157 132.217 172.608 132.116 173.053C131.156 172.828 130.182 172.667 129.201 172.571C128.617 171.746 127.979 170.962 127.291 170.222C127.377 170.136 127.47 170.05 127.565 169.966V169.966ZM121.82 178.558C122 178.907 122.193 179.256 122.392 179.608C122.591 179.96 122.8 180.316 123.032 180.668C122.404 180.577 121.794 180.463 121.215 180.328C121.377 179.736 121.583 179.154 121.82 178.558V178.558ZM121.178 174.122C121.785 173.981 122.398 173.867 123.015 173.782C122.784 174.127 122.584 174.481 122.376 174.851C122.167 175.222 121.984 175.55 121.806 175.904C121.569 175.298 121.36 174.704 121.178 174.122V174.122ZM122.385 177.23C122.672 176.619 122.988 176.009 123.333 175.399C123.681 174.788 124.054 174.194 124.438 173.626C125.113 173.575 125.808 173.547 126.524 173.549C127.24 173.551 127.915 173.577 128.584 173.631C128.969 174.194 129.338 174.795 129.685 175.389C130.033 175.983 130.353 176.605 130.64 177.213C130.355 177.824 130.037 178.436 129.694 179.042C129.352 179.648 128.974 180.249 128.589 180.817C127.915 180.871 127.219 180.896 126.503 180.896C125.787 180.896 125.113 180.866 124.443 180.813C124.058 180.249 123.688 179.662 123.34 179.054C122.992 178.446 122.684 177.838 122.394 177.23H122.385ZM130 173.789C130.631 173.877 131.24 173.992 131.817 174.127C131.646 174.702 131.442 175.292 131.205 175.886C131.022 175.536 130.832 175.187 130.631 174.835C130.429 174.483 130.216 174.129 130.01 173.789H130ZM130.64 179.594C130.839 179.242 131.029 178.89 131.21 178.539C131.442 179.145 131.674 179.741 131.836 180.323C131.23 180.464 130.617 180.577 130 180.661C130.224 180.316 130.441 179.961 130.649 179.594H130.64ZM126.508 171.014C126.925 171.462 127.335 171.946 127.736 172.466C127.34 172.449 126.934 172.438 126.524 172.438C126.114 172.438 125.695 172.438 125.289 172.466C125.685 171.949 126.091 171.462 126.508 171.014ZM121.368 168.219C121.544 168.125 121.741 168.08 121.94 168.089C122.358 168.106 122.767 168.21 123.143 168.394C123.992 168.796 124.774 169.329 125.46 169.973L125.732 170.222C125.051 170.957 124.42 171.735 123.841 172.552C122.854 172.648 121.875 172.808 120.909 173.032C120.807 172.58 120.723 172.137 120.677 171.711C120.436 169.952 120.714 168.61 121.365 168.228L121.368 168.219ZM120.142 180.03C119.706 179.896 119.278 179.741 118.858 179.564C117.212 178.865 116.193 177.968 116.193 177.202C116.193 176.435 117.217 175.543 118.86 174.856C119.273 174.684 119.693 174.533 120.121 174.404C120.411 175.369 120.764 176.314 121.178 177.232C120.772 178.141 120.426 179.076 120.142 180.03V180.03ZM125.472 184.479C123.574 186.187 122.387 186.368 121.963 186.368C121.768 186.375 121.574 186.328 121.403 186.233C120.74 185.854 120.476 184.514 120.686 182.739C120.74 182.286 120.818 181.837 120.918 181.393C121.879 181.615 122.853 181.775 123.834 181.872C124.417 182.697 125.055 183.482 125.743 184.221L125.472 184.479ZM126.531 183.429C126.114 182.981 125.704 182.497 125.301 181.977C125.699 181.996 126.105 182.005 126.515 182.005C126.925 182.005 127.345 182.005 127.75 181.98C127.364 182.48 126.956 182.963 126.529 183.429H126.531ZM131.671 186.224C131.495 186.321 131.297 186.368 131.097 186.361C130.675 186.361 129.474 186.175 127.583 184.475L127.312 184.225C127.992 183.491 128.623 182.713 129.201 181.896C130.188 181.801 131.168 181.641 132.135 181.416C132.237 181.868 132.318 182.31 132.367 182.737C132.596 184.493 132.329 185.835 131.669 186.215L131.671 186.224ZM134.174 179.599C133.778 179.762 133.358 179.913 132.913 180.048C132.623 179.083 132.269 178.139 131.854 177.22C132.261 176.312 132.609 175.379 132.895 174.425C133.33 174.559 133.759 174.714 134.179 174.891C135.822 175.59 136.844 176.487 136.842 177.253C136.839 178.019 135.817 178.902 134.172 179.59L134.174 179.599ZM126.508 179.361C126.929 179.362 127.34 179.237 127.69 179.002C128.04 178.768 128.313 178.434 128.475 178.043C128.636 177.653 128.679 177.223 128.597 176.808C128.516 176.393 128.313 176.012 128.016 175.712C127.719 175.413 127.34 175.209 126.928 175.126C126.515 175.043 126.087 175.085 125.698 175.246C125.309 175.408 124.977 175.681 124.743 176.033C124.508 176.384 124.383 176.797 124.383 177.22C124.382 177.501 124.437 177.78 124.543 178.039C124.65 178.299 124.806 178.535 125.004 178.734C125.201 178.933 125.435 179.091 125.694 179.198C125.952 179.306 126.228 179.361 126.508 179.361V179.361ZM112.371 164.333V190.11H140.661V164.333H112.371ZM139.555 189.001H113.479V165.445H139.555V189.001ZM119.857 181.104C119.161 184.058 119.463 186.403 120.849 187.198C121.187 187.388 121.569 187.485 121.956 187.477C123.25 187.477 124.881 186.571 126.529 185.003C128.174 186.56 129.801 187.461 131.092 187.461C131.486 187.468 131.875 187.37 132.218 187.177C133.595 186.38 133.878 184.046 133.194 181.12C136.07 180.253 137.94 178.842 137.942 177.246C137.945 175.65 136.063 174.218 133.173 173.349C133.868 170.397 133.565 168.049 132.181 167.255C131.842 167.065 131.459 166.969 131.071 166.975C129.78 166.975 128.149 167.881 126.501 169.449C124.853 167.893 123.226 166.991 121.938 166.991C121.544 166.983 121.155 167.081 120.812 167.276C119.435 168.072 119.15 170.406 119.836 173.344C116.96 174.208 115.09 175.62 115.085 177.218C115.08 178.816 116.969 180.232 119.859 181.104H119.857ZM125.467 184.479C123.569 186.187 122.383 186.368 121.959 186.368C121.763 186.375 121.569 186.328 121.398 186.233C120.735 185.854 120.471 184.514 120.682 182.739C120.736 182.286 120.813 181.837 120.914 181.393C121.874 181.615 122.848 181.775 123.829 181.872C124.413 182.697 125.05 183.482 125.739 184.221L125.467 184.479ZM131.212 175.886C131.029 175.536 130.839 175.187 130.638 174.835C130.436 174.483 130.221 174.136 130.007 173.789C130.638 173.877 131.247 173.992 131.824 174.127C131.655 174.702 131.451 175.292 131.215 175.886H131.212ZM131.843 180.312C131.236 180.453 130.624 180.565 130.007 180.649C130.225 180.305 130.438 179.949 130.647 179.583C130.856 179.216 131.046 178.864 131.217 178.527C131.46 179.145 131.671 179.736 131.838 180.323L131.843 180.312ZM130.635 177.202C130.35 177.812 130.033 178.425 129.69 179.03C129.347 179.636 128.969 180.237 128.584 180.806C127.91 180.859 127.215 180.885 126.499 180.885C125.783 180.885 125.108 180.854 124.438 180.801C124.054 180.237 123.683 179.65 123.335 179.042C122.988 178.434 122.67 177.826 122.38 177.218C122.668 176.608 122.984 175.997 123.328 175.387C123.676 174.777 124.049 174.183 124.434 173.614C125.108 173.563 125.803 173.535 126.52 173.537C127.236 173.54 127.91 173.565 128.58 173.619C128.964 174.183 129.333 174.784 129.681 175.378C130.028 175.972 130.35 176.605 130.638 177.213L130.635 177.202ZM123.032 180.668C122.404 180.577 121.794 180.463 121.215 180.328C121.386 179.755 121.593 179.163 121.829 178.569C122.01 178.919 122.202 179.268 122.401 179.62C122.601 179.972 122.8 180.316 123.032 180.668ZM122.385 174.844C122.184 175.194 121.993 175.543 121.815 175.897C121.572 175.296 121.36 174.704 121.178 174.122C121.785 173.981 122.398 173.867 123.015 173.782C122.8 174.127 122.594 174.483 122.385 174.844V174.844ZM126.529 183.429C126.112 182.981 125.701 182.497 125.298 181.977C125.697 181.996 126.102 182.005 126.513 182.005C126.923 182.005 127.342 182.005 127.748 181.98C127.349 182.497 126.941 182.981 126.529 183.429V183.429ZM131.669 186.224C131.493 186.321 131.295 186.368 131.094 186.361C130.672 186.361 129.472 186.175 127.581 184.475L127.31 184.225C127.989 183.491 128.62 182.713 129.199 181.896C130.186 181.801 131.166 181.641 132.132 181.416C132.234 181.868 132.316 182.31 132.364 182.737C132.596 184.493 132.329 185.835 131.669 186.215V186.224ZM132.893 174.423C133.328 174.556 133.757 174.712 134.177 174.888C135.82 175.587 136.842 176.484 136.839 177.251C136.837 178.017 135.817 178.919 134.172 179.606C133.776 179.769 133.356 179.92 132.911 180.055C132.62 179.09 132.267 178.146 131.852 177.227C132.26 176.313 132.608 175.373 132.893 174.413V174.423ZM127.562 169.975C129.46 168.268 130.647 168.084 131.069 168.084C131.264 168.078 131.458 168.124 131.63 168.219C132.292 168.599 132.557 169.938 132.346 171.713C132.292 172.167 132.214 172.617 132.114 173.062C131.154 172.838 130.18 172.677 129.199 172.58C128.614 171.756 127.976 170.971 127.289 170.232C127.377 170.136 127.47 170.05 127.565 169.966L127.562 169.975ZM126.508 171.014C126.925 171.462 127.335 171.946 127.736 172.466C127.34 172.449 126.934 172.438 126.524 172.438C126.114 172.438 125.695 172.438 125.289 172.466C125.685 171.949 126.091 171.462 126.508 171.014ZM121.368 168.219C121.544 168.125 121.741 168.08 121.94 168.089C122.358 168.106 122.767 168.21 123.143 168.394C123.992 168.796 124.774 169.329 125.46 169.973L125.732 170.222C125.051 170.957 124.42 171.735 123.841 172.552C122.854 172.648 121.875 172.808 120.909 173.032C120.807 172.58 120.723 172.137 120.677 171.711C120.436 169.952 120.714 168.61 121.365 168.228L121.368 168.219ZM118.86 174.856C119.273 174.684 119.693 174.533 120.121 174.404C120.411 175.369 120.764 176.314 121.178 177.232C120.771 178.14 120.423 179.074 120.137 180.027C119.702 179.894 119.273 179.738 118.853 179.562C117.208 178.863 116.188 177.966 116.188 177.199C116.188 176.433 117.217 175.543 118.86 174.856ZM126.508 175.089C126.087 175.088 125.676 175.213 125.326 175.448C124.975 175.683 124.702 176.016 124.541 176.407C124.38 176.797 124.337 177.227 124.419 177.642C124.5 178.057 124.702 178.438 125 178.738C125.297 179.037 125.676 179.241 126.088 179.324C126.501 179.407 126.929 179.365 127.318 179.204C127.707 179.043 128.039 178.769 128.273 178.417C128.507 178.066 128.633 177.653 128.633 177.23C128.635 176.948 128.582 176.668 128.476 176.407C128.37 176.146 128.214 175.909 128.016 175.709C127.819 175.509 127.584 175.35 127.325 175.241C127.066 175.133 126.788 175.077 126.508 175.077V175.089ZM126.508 175.089C126.087 175.088 125.676 175.213 125.326 175.448C124.975 175.683 124.702 176.016 124.541 176.407C124.38 176.797 124.337 177.227 124.419 177.642C124.5 178.057 124.702 178.438 125 178.738C125.297 179.037 125.676 179.241 126.088 179.324C126.501 179.407 126.929 179.365 127.318 179.204C127.707 179.043 128.039 178.769 128.273 178.417C128.507 178.066 128.633 177.653 128.633 177.23C128.635 176.948 128.582 176.668 128.476 176.407C128.37 176.146 128.214 175.909 128.016 175.709C127.819 175.509 127.584 175.35 127.325 175.241C127.066 175.133 126.788 175.077 126.508 175.077V175.089ZM126.508 175.089C126.087 175.088 125.676 175.213 125.326 175.448C124.975 175.683 124.702 176.016 124.541 176.407C124.38 176.797 124.337 177.227 124.419 177.642C124.5 178.057 124.702 178.438 125 178.738C125.297 179.037 125.676 179.241 126.088 179.324C126.501 179.407 126.929 179.365 127.318 179.204C127.707 179.043 128.039 178.769 128.273 178.417C128.507 178.066 128.633 177.653 128.633 177.23C128.635 176.948 128.582 176.668 128.476 176.407C128.37 176.146 128.214 175.909 128.016 175.709C127.819 175.509 127.584 175.35 127.325 175.241C127.066 175.133 126.788 175.077 126.508 175.077V175.089ZM137.945 177.241C137.945 175.636 136.065 174.213 133.175 173.344C133.871 170.392 133.567 168.044 132.183 167.25C131.844 167.061 131.461 166.964 131.073 166.97C129.783 166.97 128.151 167.877 126.503 169.444C124.856 167.888 123.229 166.987 121.94 166.987C121.546 166.978 121.157 167.076 120.814 167.271C119.437 168.068 119.152 170.402 119.838 173.339C116.962 174.204 115.092 175.615 115.087 177.213C115.083 178.811 116.969 180.242 119.859 181.108C119.164 184.062 119.465 186.408 120.851 187.202C121.189 187.393 121.571 187.489 121.959 187.482C123.252 187.482 124.883 186.576 126.531 185.008C128.177 186.564 129.803 187.466 131.094 187.466C131.488 187.473 131.877 187.375 132.221 187.181C133.597 186.385 133.88 184.051 133.196 181.125C136.072 180.244 137.942 178.832 137.945 177.237V177.241ZM127.565 169.966C129.463 168.259 130.649 168.075 131.071 168.075C131.267 168.068 131.46 168.115 131.632 168.21C132.295 168.589 132.559 169.929 132.348 171.704C132.294 172.157 132.217 172.608 132.116 173.053C131.156 172.828 130.182 172.667 129.201 172.571C128.617 171.746 127.979 170.962 127.291 170.222C127.377 170.136 127.47 170.05 127.565 169.966V169.966ZM121.82 178.558C122 178.907 122.193 179.256 122.392 179.608C122.591 179.96 122.8 180.316 123.032 180.668C122.404 180.577 121.794 180.463 121.215 180.328C121.377 179.736 121.583 179.154 121.82 178.558V178.558ZM121.178 174.122C121.785 173.981 122.398 173.867 123.015 173.782C122.784 174.127 122.584 174.481 122.376 174.851C122.167 175.222 121.984 175.55 121.806 175.904C121.569 175.298 121.36 174.704 121.178 174.122V174.122ZM122.385 177.23C122.672 176.619 122.988 176.009 123.333 175.399C123.681 174.788 124.054 174.194 124.438 173.626C125.113 173.575 125.808 173.547 126.524 173.549C127.24 173.551 127.915 173.577 128.584 173.631C128.969 174.194 129.338 174.795 129.685 175.389C130.033 175.983 130.353 176.605 130.64 177.213C130.355 177.824 130.037 178.436 129.694 179.042C129.352 179.648 128.974 180.249 128.589 180.817C127.915 180.871 127.219 180.896 126.503 180.896C125.787 180.896 125.113 180.866 124.443 180.813C124.058 180.249 123.688 179.662 123.34 179.054C122.992 178.446 122.684 177.838 122.394 177.23H122.385ZM130 173.789C130.631 173.877 131.24 173.992 131.817 174.127C131.646 174.702 131.442 175.292 131.205 175.886C131.022 175.536 130.832 175.187 130.631 174.835C130.429 174.483 130.216 174.129 130.01 173.789H130ZM130.64 179.594C130.839 179.242 131.029 178.89 131.21 178.539C131.442 179.145 131.674 179.741 131.836 180.323C131.23 180.464 130.617 180.577 130 180.661C130.224 180.316 130.441 179.961 130.649 179.594H130.64ZM126.508 171.014C126.925 171.462 127.335 171.946 127.736 172.466C127.34 172.449 126.934 172.438 126.524 172.438C126.114 172.438 125.695 172.438 125.289 172.466C125.685 171.949 126.091 171.462 126.508 171.014ZM121.368 168.219C121.544 168.125 121.741 168.08 121.94 168.089C122.358 168.106 122.767 168.21 123.143 168.394C123.992 168.796 124.774 169.329 125.46 169.973L125.732 170.222C125.051 170.957 124.42 171.735 123.841 172.552C122.854 172.648 121.875 172.808 120.909 173.032C120.807 172.58 120.723 172.137 120.677 171.711C120.436 169.952 120.714 168.61 121.365 168.228L121.368 168.219ZM120.142 180.03C119.706 179.896 119.278 179.741 118.858 179.564C117.212 178.865 116.193 177.968 116.193 177.202C116.193 176.435 117.217 175.543 118.86 174.856C119.273 174.684 119.693 174.533 120.121 174.404C120.411 175.369 120.764 176.314 121.178 177.232C120.772 178.141 120.426 179.076 120.142 180.03V180.03ZM125.472 184.479C123.574 186.187 122.387 186.368 121.963 186.368C121.768 186.375 121.574 186.328 121.403 186.233C120.74 185.854 120.476 184.514 120.686 182.739C120.74 182.286 120.818 181.837 120.918 181.393C121.879 181.615 122.853 181.775 123.834 181.872C124.417 182.697 125.055 183.482 125.743 184.221L125.472 184.479ZM126.531 183.429C126.114 182.981 125.704 182.497 125.301 181.977C125.699 181.996 126.105 182.005 126.515 182.005C126.925 182.005 127.345 182.005 127.75 181.98C127.364 182.48 126.956 182.963 126.529 183.429H126.531ZM131.671 186.224C131.495 186.321 131.297 186.368 131.097 186.361C130.675 186.361 129.474 186.175 127.583 184.475L127.312 184.225C127.992 183.491 128.623 182.713 129.201 181.896C130.188 181.801 131.168 181.641 132.135 181.416C132.237 181.868 132.318 182.31 132.367 182.737C132.596 184.493 132.329 185.835 131.669 186.215L131.671 186.224ZM134.174 179.599C133.778 179.762 133.358 179.913 132.913 180.048C132.623 179.083 132.269 178.139 131.854 177.22C132.261 176.312 132.609 175.379 132.895 174.425C133.33 174.559 133.759 174.714 134.179 174.891C135.822 175.59 136.844 176.487 136.842 177.253C136.839 178.019 135.817 178.902 134.172 179.59L134.174 179.599ZM126.508 179.361C126.929 179.362 127.34 179.237 127.69 179.002C128.04 178.768 128.313 178.434 128.475 178.043C128.636 177.653 128.679 177.223 128.597 176.808C128.516 176.393 128.313 176.012 128.016 175.712C127.719 175.413 127.34 175.209 126.928 175.126C126.515 175.043 126.087 175.085 125.698 175.246C125.309 175.408 124.977 175.681 124.743 176.033C124.508 176.384 124.383 176.797 124.383 177.22C124.382 177.501 124.437 177.78 124.543 178.039C124.65 178.299 124.806 178.535 125.004 178.734C125.201 178.933 125.435 179.091 125.694 179.198C125.952 179.306 126.228 179.361 126.508 179.361V179.361ZM110.443 192.057V166.272L109.333 167.39V193.168H137.618L138.726 192.057H110.443Z" fill="#09D3AC"/>
<path d="M133.269 120.262L132.222 98.9115H131.437L132.222 120.262H133.269Z" fill="#B57EE5"/>
<path d="M133.705 120.262L132.658 98.9115L149.76 97.6964V121.043L133.705 120.262Z" fill="#F1618C"/>
<path d="M145.397 100.821L145.616 97.9134L147.666 97.7398V100.821L146.635 99.8931L145.397 100.821Z" fill="white"/>
<path d="M181.524 106.046H178.664V107.631C178.664 109.674 178.644 111.316 178.644 111.316C178.644 112.328 178.222 112.595 177.685 112.595C177.128 112.595 176.84 112.347 176.84 111.277C176.84 109.712 176.955 106.619 176.955 106.619L174.095 106.542C174.095 106.504 173.999 108.91 173.999 111.755C173.999 114.6 175.803 114.81 176.629 114.81C177.416 114.81 178.28 114.504 178.74 114.008C178.74 115.631 178.222 116.166 177.07 116.166C176.341 116.166 175.458 115.803 174.978 115.402V118.018C175.784 118.495 176.686 118.705 177.589 118.705C179.508 118.705 181.39 117.598 181.428 114.409C181.485 110.857 181.505 107.306 181.524 106.046ZM195.969 106.027C193.051 106.027 191.803 108.356 191.803 111.125C191.803 113.473 192.955 115.23 195.7 115.23C198.772 115.23 199.866 112.939 199.866 110.285C199.866 107.821 198.791 106.027 195.969 106.027ZM196.986 110.647C196.986 111.888 196.564 112.843 195.7 112.843C194.971 112.843 194.683 112.003 194.683 111.125C194.683 109.712 195.182 108.623 195.969 108.623C196.775 108.623 196.986 109.674 196.986 110.647Z" fill="#6DABF5"/>
<path d="M153.047 115.249C154.525 115.268 155.946 115.077 155.946 115.077C155.946 112.576 155.946 110.227 155.965 108.452C156.733 108.375 157.366 108.28 157.366 108.28C157.405 107.077 157.309 105.988 157.309 105.988L156.004 106.065C156.042 104.251 156.08 103.315 156.08 103.315L153.009 103.506C153.009 103.506 153.009 104.633 153.028 106.351C152.088 106.466 151.396 106.657 151.396 106.657C151.435 107.669 151.8 108.757 151.8 108.757L153.047 108.7V115.249Z" fill="#F3AD38"/>
<path d="M170.376 107.21C170.376 106.924 170.395 106.619 170.414 106.313L167.746 106.218C167.746 106.218 167.497 110.113 167.516 115.23C168.802 115.325 170.299 115.325 170.299 115.325C170.28 115.325 170.299 113.626 170.376 111.067C170.414 109.578 170.952 109.12 171.758 109.12C172.238 109.12 172.833 109.33 172.833 109.33L173.14 106.676C171.892 106.256 170.741 106.619 170.376 107.21Z" fill="#B57EE6"/>
<path d="M185.799 115.192C185.799 114.772 185.837 114.39 185.837 114.237C186.163 114.714 186.797 115.134 187.584 115.134C189.791 115.134 190.751 112.977 190.809 110.418C190.847 107.993 189.926 105.969 187.891 105.969C187.142 105.969 186.509 106.37 186.163 106.79C186.336 103.945 186.47 102.131 186.47 102.131L183.572 101.921C183.399 103.907 183.13 110.476 183.169 115.268C184.839 115.306 185.799 115.192 185.799 115.192ZM185.971 111.392C185.933 110.877 185.837 108.585 186.95 108.585C187.737 108.585 187.929 109.54 187.891 110.495C187.872 111.526 187.661 112.69 186.854 112.69C186.298 112.69 186.029 112.289 185.971 111.392Z" fill="#F16161"/>
<path d="M218.989 106.657L215.975 106.256C215.975 106.256 214.938 107.802 213.479 109.578C213.71 105.511 213.998 102.781 213.998 102.781L210.869 102.494C210.869 102.494 210.523 109.559 210.446 115.173C211.752 115.325 213.268 115.325 213.268 115.325L213.364 111.965C214.785 113.569 216.378 115.23 216.378 115.23L219.699 114.695C217.779 112.786 216.474 111.449 215.84 110.609C216.57 109.635 217.875 108.089 218.989 106.657Z" fill="#B57EE5"/>
<path d="M162.245 106.027C159.327 106.027 158.079 108.356 158.079 111.125C158.079 113.473 159.231 115.23 161.976 115.23C165.047 115.23 166.141 112.939 166.141 110.285C166.141 107.821 165.066 106.027 162.245 106.027ZM163.262 110.647C163.262 111.888 162.84 112.843 161.976 112.843C161.246 112.843 160.959 112.003 160.959 111.125C160.959 109.712 161.458 108.623 162.245 108.623C163.051 108.623 163.262 109.674 163.262 110.647ZM205.098 106.027C202.181 106.027 200.933 108.356 200.933 111.125C200.933 113.473 202.085 115.23 204.83 115.23C207.901 115.23 208.995 112.939 208.995 110.285C208.995 107.821 207.92 106.027 205.098 106.027ZM206.116 110.647C206.116 111.888 205.693 112.843 204.83 112.843C204.1 112.843 203.812 112.003 203.812 111.125C203.812 109.712 204.311 108.623 205.098 108.623C205.905 108.623 206.116 109.674 206.116 110.647Z" fill="#A2E05E"/>
<path d="M142.661 106.834L146.033 106.75C146.116 103.501 144.42 101.897 141.468 101.897C138.515 101.897 136.86 103.563 136.86 106.063C136.86 110.417 142.515 110.5 142.515 112.874C142.515 113.541 142.2 113.937 141.509 113.937C140.609 113.937 140.253 113.354 140.295 111.729H136.756C136.484 115.749 138.85 116.665 141.551 116.665C144.169 116.665 146.221 115.457 146.221 112.833C146.221 108.167 140.483 108.292 140.483 105.98C140.483 105.042 141.153 104.917 141.551 104.917C141.97 104.917 142.724 105.084 142.661 106.834Z" fill="white"/>
<defs>
<clipPath id="clip0_1059_491">
<rect width="37" height="33" fill="white" transform="translate(272 136)"/>
</clipPath>
<clipPath id="clip1_1059_491">
<rect width="39.4615" height="45" fill="white" transform="translate(256 36)"/>
</clipPath>
</defs>
</svg>
