<?xml version="1.0" encoding="UTF-8"?>
<svg width="52px" height="36px" viewBox="0 0 52 36" version="1.1" xmlns="http://www.w3.org/2000/svg" xmlns:xlink="http://www.w3.org/1999/xlink">
    <g id="Page-1" stroke="none" stroke-width="1" fill="none" fill-rule="evenodd">
        <g id="Brand-Logo" transform="translate(-676.000000, -5346.000000)" fill="#232629" fill-rule="nonzero">
            <path d="M677.611752,5369.38082 L688.09318,5371.79878 L687.286968,5381.474 L676,5381.474 L677.611752,5369.38082 Z M726.388248,5369.38082 L728,5381.474 L716.713704,5381.474 L715.90682,5371.79878 L726.388248,5369.38082 Z M682.04659,5357.28764 L690.511816,5361.72113 L688.09318,5370.18636 L678.01553,5367.76772 L682.04659,5357.28764 Z M721.95341,5357.28764 L725.98447,5367.76772 L715.90682,5370.18636 L713.488856,5361.72113 L721.95341,5357.28764 Z M691.318028,5348.82174 L697.364618,5355.67454 L690.91425,5360.10871 L682.85213,5355.67454 L691.318028,5348.82174 Z M712.682644,5348.82174 L721.147198,5355.67454 L713.085078,5360.10871 L706.636054,5355.67454 L712.682644,5348.82174 Z M705.022958,5346 L710.264008,5347.61242 L705.022958,5354.86833 L699.380146,5354.86833 L693.333558,5347.61242 L699.238387,5346 L705.022958,5346 Z" id="ic-technology-redmine"></path>
        </g>
    </g>
</svg>