<svg width="512" height="512" viewBox="0 0 512 512" fill="none" xmlns="http://www.w3.org/2000/svg">
<path d="M496 424H436C443.424 423.992 450.541 421.039 455.79 415.79C461.039 410.541 463.992 403.424 464 396V388C463.992 380.576 461.039 373.459 455.79 368.21C450.541 362.961 443.424 360.008 436 360H416.55L394.77 259.74C393.658 247.813 388.147 236.727 379.308 228.641C370.47 220.555 358.939 216.049 346.96 216H304V208C303.998 207.062 303.832 206.131 303.51 205.25C311.243 197.124 316.538 186.989 318.79 176H320C326.363 175.992 332.462 173.46 336.961 168.961C341.46 164.462 343.992 158.363 344 152V100C343.976 77.7293 335.118 56.3777 319.37 40.6299C303.622 24.8821 282.271 16.0244 260 16H252C229.729 16.0244 208.378 24.8821 192.63 40.6299C176.882 56.3777 168.024 77.7293 168 100V152C168.008 158.363 170.54 164.462 175.039 168.961C179.538 173.46 185.637 175.992 192 176H193.21C195.462 186.989 200.757 197.124 208.49 205.25C208.168 206.131 208.002 207.062 208 208V216H165.04C153.061 216.049 141.53 220.555 132.692 228.641C123.853 236.727 118.342 247.813 117.23 259.74L98.93 344H92C89.7586 343.998 87.5254 344.27 85.35 344.81L63.16 300.42C62.2105 298.521 60.5456 297.077 58.5314 296.406C56.5173 295.734 54.3189 295.891 52.42 296.84C50.521 297.789 49.0771 299.454 48.4057 301.469C47.7343 303.483 47.8905 305.681 48.84 307.58L71.52 352.93C66.6859 358.103 63.9978 364.92 64 372V396C64.0082 403.424 66.9608 410.541 72.2101 415.79C77.4593 421.039 84.5765 423.992 92 424H16C13.8783 424 11.8434 424.843 10.3431 426.343C8.84285 427.843 8 429.878 8 432V464C8 466.122 8.84285 468.157 10.3431 469.657C11.8434 471.157 13.8783 472 16 472H24V488C24 490.122 24.8429 492.157 26.3431 493.657C27.8434 495.157 29.8783 496 32 496H480C482.122 496 484.157 495.157 485.657 493.657C487.157 492.157 488 490.122 488 488V472H496C498.122 472 500.157 471.157 501.657 469.657C503.157 468.157 504 466.122 504 464V432C504 429.878 503.157 427.843 501.657 426.343C500.157 424.843 498.122 424 496 424ZM412 376H436C439.182 376.003 442.232 377.268 444.482 379.518C446.732 381.768 447.997 384.818 448 388V396C447.997 399.182 446.732 402.232 444.482 404.482C442.232 406.732 439.182 407.997 436 408H412C408.818 407.997 405.768 406.732 403.518 404.482C401.268 402.232 400.003 399.182 400 396V388C400.003 384.818 401.268 381.768 403.518 379.518C405.768 377.268 408.818 376.003 412 376ZM328 152C327.997 154.121 327.153 156.154 325.654 157.654C324.154 159.153 322.121 159.997 320 160V128H328V152ZM192 160C189.879 159.997 187.846 159.153 186.346 157.654C184.847 156.154 184.003 154.121 184 152V128H192V160ZM184 112V100C184.019 81.971 191.189 64.6859 203.938 51.9375C216.686 39.1891 233.971 32.0188 252 32H260C278.029 32.0188 295.314 39.1891 308.062 51.9375C320.811 64.6859 327.981 81.971 328 100V112H320V108C320 106.47 319.94 104.94 319.83 103.45C319.734 102.199 319.345 100.988 318.695 99.9143C318.044 98.8411 317.151 97.9359 316.086 97.272C315.021 96.6081 313.814 96.2041 312.564 96.0926C311.314 95.981 310.056 96.1651 308.89 96.63C270.77 111.81 200.7 112 200 112H184ZM208 164V127.88C226.1 127.43 270.86 125.3 304 115.25V164C303.986 175.665 299.346 186.849 291.098 195.098C282.849 203.346 271.665 207.986 260 208H252C240.335 207.986 229.151 203.346 220.902 195.098C212.654 186.849 208.014 175.665 208 164ZM288 217.04V224C288 237.23 273.65 248 256 248C238.35 248 224 237.23 224 224V217.04C232.622 221.62 242.237 224.01 252 224H260C269.763 224.01 279.378 221.62 288 217.04ZM132.98 262.63C133.058 262.271 133.112 261.907 133.14 261.54C133.791 253.515 137.43 246.027 143.337 240.557C149.244 235.087 156.989 232.033 165.04 232H208.97C213.43 250.24 232.82 264 256 264C279.18 264 298.57 250.24 303.03 232H346.96C355.011 232.033 362.756 235.087 368.663 240.557C374.57 246.027 378.209 253.515 378.86 261.54C378.888 261.907 378.942 262.271 379.02 262.63L400.7 362.39C395.736 364.584 391.516 368.172 388.552 372.718C385.587 377.264 384.006 382.573 384 388V396C384.008 403.424 386.961 410.541 392.21 415.79C397.459 421.039 404.576 423.992 412 424H376V300C375.992 292.576 373.039 285.459 367.79 280.21C362.541 274.961 355.424 272.008 348 272H164C156.576 272.008 149.459 274.961 144.21 280.21C138.961 285.459 136.008 292.576 136 300V424H100C107.424 423.992 114.541 421.039 119.79 415.79C125.039 410.541 127.992 403.424 128 396V372C127.999 367.172 126.748 362.426 124.37 358.224C121.993 354.022 118.568 350.507 114.43 348.02L132.98 262.63ZM360 300V424H152V300C152.003 296.818 153.268 293.768 155.518 291.518C157.768 289.268 160.818 288.003 164 288H348C351.182 288.003 354.232 289.268 356.482 291.518C358.732 293.768 359.997 296.818 360 300ZM80 396V372C80.0026 368.818 81.2678 365.768 83.5176 363.518C85.7675 361.268 88.8182 360.003 92 360H100C103.182 360.003 106.232 361.268 108.482 363.518C110.732 365.768 111.997 368.818 112 372V396C111.997 399.182 110.732 402.232 108.482 404.482C106.232 406.732 103.182 407.997 100 408H92C88.8182 407.997 85.7675 406.732 83.5176 404.482C81.2678 402.232 80.0026 399.182 80 396ZM472 480H40V472H472V480ZM488 456H24V440H488V456Z" fill="#0E53BE"/>
<path d="M256 336C249.671 336 243.484 337.877 238.222 341.393C232.959 344.909 228.858 349.907 226.436 355.754C224.014 361.601 223.38 368.035 224.615 374.243C225.85 380.45 228.897 386.152 233.373 390.627C237.848 395.103 243.55 398.15 249.757 399.385C255.965 400.62 262.399 399.986 268.246 397.564C274.093 395.142 279.091 391.041 282.607 385.778C286.123 380.516 288 374.329 288 368C287.99 359.516 284.616 351.382 278.617 345.383C272.618 339.384 264.484 336.01 256 336ZM256 384C252.836 384 249.742 383.062 247.111 381.304C244.48 379.545 242.429 377.047 241.218 374.123C240.007 371.199 239.69 367.982 240.307 364.879C240.925 361.775 242.449 358.924 244.686 356.686C246.924 354.449 249.775 352.925 252.879 352.307C255.982 351.69 259.199 352.007 262.123 353.218C265.047 354.429 267.545 356.48 269.304 359.111C271.062 361.742 272 364.835 272 368C271.995 372.242 270.308 376.309 267.308 379.308C264.309 382.308 260.242 383.995 256 384Z" fill="#0E53BE"/>
<path d="M232 152C236.418 152 240 148.418 240 144C240 139.582 236.418 136 232 136C227.582 136 224 139.582 224 144C224 148.418 227.582 152 232 152Z" fill="#0E53BE"/>
<path d="M280 152C284.418 152 288 148.418 288 144C288 139.582 284.418 136 280 136C275.582 136 272 139.582 272 144C272 148.418 275.582 152 280 152Z" fill="#0E53BE"/>
<path d="M248 192H264C266.122 192 268.157 191.157 269.657 189.657C271.157 188.157 272 186.122 272 184C272 181.878 271.157 179.843 269.657 178.343C268.157 176.843 266.122 176 264 176H248C245.878 176 243.843 176.843 242.343 178.343C240.843 179.843 240 181.878 240 184C240 186.122 240.843 188.157 242.343 189.657C243.843 191.157 245.878 192 248 192Z" fill="#0E53BE"/>
</svg>
