<svg width="512" height="512" viewBox="0 0 512 512" fill="none" xmlns="http://www.w3.org/2000/svg">
<g clip-path="url(#clip0_496_1184)">
<path d="M472.896 281.597C472.796 281.597 472.694 281.598 472.593 281.6C462.865 281.581 453.49 285.238 446.345 291.84L353.894 377.173C349.172 381.559 342.965 383.998 336.521 384H206.874C197.447 384 189.807 376.359 189.807 366.933C189.807 357.507 197.447 349.867 206.874 349.867H296.593C315.444 349.867 330.726 334.585 330.726 315.733C330.726 296.882 315.444 281.6 296.593 281.6H157.363C136.57 281.594 116.195 287.44 98.5685 298.47L68.2667 317.44V307.2H-1.52588e-05V512H68.2667V494.933H248.175C253.823 494.933 259.462 494.502 265.045 493.645L335.104 482.867C358.437 479.327 380.018 468.391 396.672 451.669L500.659 347.665C507.943 340.425 512.028 330.57 512 320.299C511.889 298.813 494.381 281.486 472.896 281.597ZM51.2 494.933H17.0667V324.267H51.2V494.933ZM488.585 335.616L488.593 335.599L384.606 439.603C370.513 453.751 352.253 463.006 332.51 466.005L262.451 476.783C257.727 477.505 252.955 477.868 248.175 477.867H68.2667V337.527L107.622 312.934C122.535 303.606 139.773 298.661 157.363 298.667H296.593C306.019 298.667 313.66 306.307 313.66 315.733C313.66 325.159 306.019 332.8 296.593 332.8H206.874C188.022 332.8 172.74 348.082 172.74 366.933C172.74 385.785 188.022 401.067 206.874 401.067H336.521C347.25 401.078 357.588 397.037 365.466 389.751L457.924 304.418C462.119 300.607 467.618 298.555 473.284 298.684C485.231 298.679 494.921 308.361 494.925 320.307C494.927 326.049 492.645 331.556 488.585 335.616Z" fill="#0E53BE"/>
<path d="M382.293 88.7466C380.682 86.5984 378.153 85.3333 375.467 85.3333H295.91L263.927 5.36742C262.177 0.991958 257.212 -1.13711 252.835 0.613291C250.667 1.48049 248.948 3.19889 248.081 5.36742L216.09 85.3333H136.533C131.821 85.3333 128 89.1541 128 93.8666C128 96.5525 129.265 99.0816 131.413 100.693L194.62 148.096L162.645 235.989C161.035 240.418 163.319 245.314 167.748 246.925C170.544 247.941 173.667 247.428 175.991 245.572L255.701 181.794L327.125 245.274C330.65 248.403 336.043 248.083 339.172 244.559C341.085 242.405 341.781 239.434 341.026 236.655L316.962 148.42L380.587 100.693C384.357 97.8656 385.121 92.5162 382.293 88.7466ZM302.08 138.24C299.28 140.339 298.046 143.935 298.965 147.311L317.013 213.487L261.675 164.292C258.569 161.528 253.923 161.407 250.675 164.002L189.082 213.274L212.83 147.985C214.113 144.45 212.931 140.493 209.92 138.24L162.133 102.4H221.867C225.359 102.401 228.499 100.275 229.794 97.0325L256 31.505L282.206 97.0325C283.501 100.275 286.642 102.401 290.133 102.4H349.867L302.08 138.24Z" fill="#0E53BE"/>
<path d="M168.17 19.5713L156.103 31.6392L190.237 65.773L202.304 53.7052L168.17 19.5713Z" fill="#0E53BE"/>
<path d="M343.832 19.5612L309.698 53.6951L321.766 65.763L355.9 31.6291L343.832 19.5612Z" fill="#0E53BE"/>
<path d="M162.133 153.6H110.933V170.667H162.133V153.6Z" fill="#0E53BE"/>
<path d="M401.067 153.6H349.867V170.667H401.067V153.6Z" fill="#0E53BE"/>
<path d="M264.533 204.8H247.467V256H264.533V204.8Z" fill="#0E53BE"/>
</g>
<defs>
<clipPath id="clip0_496_1184">
<rect width="512" height="512" fill="white"/>
</clipPath>
</defs>
</svg>
