<svg fill="#232629" xmlns="http://www.w3.org/2000/svg"  viewBox="0 0 30 30" width="30px" height="30px"><path d="M18.04,18.232c-0.619,0-1.051,0.432-1.099,1.104h2.155C19.064,18.643,18.669,18.232,18.04,18.232z"/><path d="M18.5,13.621l-5.061-5.061l2.121-2.121L18.5,9.379L23.879,4H6C4.895,4,4,4.895,4,6v18c0,1.105,0.895,2,2,2h18c1.105,0,2-0.895,2-2V6.121L18.5,13.621z M9.981,23.12c-1.977,0-3.223-0.932-3.256-2.438h1.896c0.049,0.569,0.618,0.932,1.441,0.932c0.742,0,1.251-0.358,1.251-0.872c0-0.433-0.341-0.666-1.235-0.845l-1.029-0.206c-1.43-0.271-2.167-1.051-2.167-2.281c0-1.528,1.224-2.53,3.109-2.53c1.831,0,3.098,0.991,3.131,2.438h-1.836c-0.043-0.553-0.569-0.937-1.268-0.937c-0.699,0-1.159,0.33-1.159,0.85c0,0.428,0.347,0.677,1.17,0.84l1.008,0.195c1.544,0.298,2.237,0.997,2.237,2.237C13.275,22.134,12.029,23.12,9.981,23.12z M20.926,20.419h-3.995v0.096c0.016,0.773,0.459,1.253,1.179,1.253c0.549,0,0.928-0.203,1.056-0.549h1.723c-0.208,1.157-1.296,1.888-2.832,1.888c-1.894,0-2.982-1.12-2.982-3.067c0-1.958,1.115-3.147,2.955-3.147c1.83,0,2.896,1.109,2.896,3.003V20.419z"/></svg>