<svg width="571" height="425" viewBox="0 0 571 425" fill="none" xmlns="http://www.w3.org/2000/svg">
<g clip-path="url(#clip0_498_1841)">
<path d="M570.378 373.483H0V373.769H570.378V373.483Z" fill="#EBEBEB"/>
<path d="M187.757 391.074H149.975V391.359H187.757V391.074Z" fill="#EBEBEB"/>
<path d="M295.273 387.982H285.36V388.268H295.273V387.982Z" fill="#EBEBEB"/>
<path d="M81.7349 383.168H59.8438V383.454H81.7349V383.168Z" fill="#EBEBEB"/>
<path d="M474.304 381.252H444.553V381.537H474.304V381.252Z" fill="#EBEBEB"/>
<path d="M434.389 381.252H407.649V381.537H434.389V381.252Z" fill="#EBEBEB"/>
<path d="M513.237 394.941H406.371V395.226H513.237V394.941Z" fill="#EBEBEB"/>
<path d="M270.359 322.606H50.0907C48.3651 322.603 46.7113 321.915 45.4922 320.694C44.2731 319.473 43.5884 317.818 43.5884 316.092V6.45668C43.6034 4.74101 44.2947 3.10055 45.5122 1.89162C46.7297 0.682695 48.375 0.00293903 50.0907 0H270.359C272.087 0 273.744 0.686265 274.965 1.90782C276.187 3.12938 276.873 4.78617 276.873 6.51372V316.092C276.873 317.82 276.187 319.476 274.965 320.698C273.744 321.92 272.087 322.606 270.359 322.606ZM50.0907 0.228152C48.4408 0.231174 46.8594 0.888723 45.6938 2.05647C44.5282 3.22422 43.8736 4.80674 43.8736 6.45668V316.092C43.8736 317.742 44.5282 319.325 45.6938 320.492C46.8594 321.66 48.4408 322.318 50.0907 322.321H270.359C272.01 322.318 273.593 321.66 274.76 320.493C275.928 319.326 276.585 317.743 276.588 316.092V6.45668C276.585 4.8057 275.928 3.2232 274.76 2.05577C273.593 0.888353 272.01 0.231168 270.359 0.228152H50.0907Z" fill="#EBEBEB"/>
<path d="M517.116 322.606H296.836C295.11 322.603 293.455 321.916 292.234 320.695C291.013 319.474 290.326 317.819 290.323 316.092V6.45668C290.341 4.73997 291.035 3.09952 292.254 1.89091C293.473 0.682296 295.12 0.00290698 296.836 0H517.116C518.83 0.00593706 520.473 0.687019 521.688 1.89563C522.903 3.10423 523.592 4.74298 523.607 6.45668V316.092C523.607 317.816 522.924 319.469 521.708 320.69C520.491 321.911 518.84 322.6 517.116 322.606ZM296.836 0.228152C295.185 0.231168 293.603 0.888353 292.436 2.05577C291.268 3.2232 290.611 4.8057 290.608 6.45668V316.092C290.611 317.743 291.268 319.326 292.436 320.493C293.603 321.66 295.185 322.318 296.836 322.321H517.116C518.767 322.318 520.35 321.66 521.517 320.493C522.685 319.326 523.342 317.743 523.345 316.092V6.45668C523.342 4.8057 522.685 3.2232 521.517 2.05577C520.35 0.888353 518.767 0.231168 517.116 0.228152H296.836Z" fill="#EBEBEB"/>
<path d="M363.445 370.084H390.31V252.541H363.445V370.084Z" fill="#F0F0F0"/>
<path d="M266.88 373.483H385.165V370.084H266.88V373.483Z" fill="#F0F0F0"/>
<path d="M363.445 252.541H261.712V370.084H363.445V252.541Z" fill="#F5F5F5"/>
<path d="M352.881 259.134H272.275V308.689H352.881V259.134Z" fill="#F0F0F0"/>
<path d="M352.881 313.936H272.275V363.49H352.881V313.936Z" fill="#F0F0F0"/>
<path d="M333.477 267.77H291.691C290.384 267.771 289.09 267.514 287.883 267.014C286.676 266.514 285.58 265.78 284.658 264.854C283.735 263.929 283.005 262.83 282.509 261.621C282.013 260.412 281.76 259.117 281.766 257.811H343.367C343.373 259.115 343.122 260.407 342.628 261.613C342.134 262.82 341.406 263.917 340.488 264.842C339.569 265.767 338.477 266.502 337.274 267.004C336.071 267.507 334.78 267.767 333.477 267.77Z" fill="#F5F5F5"/>
<path d="M333.477 322.572H291.691C289.062 322.572 286.541 321.527 284.682 319.668C282.823 317.809 281.778 315.287 281.778 312.658H343.379C343.379 315.286 342.336 317.805 340.48 319.664C338.623 321.523 336.105 322.569 333.477 322.572Z" fill="#F5F5F5"/>
<path d="M473.163 370.084H500.028V252.541H473.163V370.084Z" fill="#F0F0F0"/>
<path d="M376.587 373.483H494.872V370.084H376.587V373.483Z" fill="#F0F0F0"/>
<path d="M473.162 252.541H371.43V370.084H473.162V252.541Z" fill="#F5F5F5"/>
<path d="M462.599 259.134H381.993V308.689H462.599V259.134Z" fill="#F0F0F0"/>
<path d="M462.599 313.936H381.993V363.49H462.599V313.936Z" fill="#F0F0F0"/>
<path d="M443.184 267.77H401.398C398.769 267.77 396.247 266.725 394.388 264.866C392.529 263.007 391.485 260.486 391.485 257.856H453.086C453.086 260.484 452.043 263.003 450.186 264.862C448.33 266.721 445.811 267.767 443.184 267.77Z" fill="#F5F5F5"/>
<path d="M443.184 322.572H401.398C398.769 322.572 396.247 321.527 394.388 319.668C392.529 317.809 391.485 315.287 391.485 312.658H453.086C453.086 315.286 452.043 317.805 450.186 319.664C448.33 321.523 445.811 322.569 443.184 322.572Z" fill="#F5F5F5"/>
<path d="M127.103 94.6143H173.121V41.4208H127.103V94.6143Z" fill="#E6E6E6"/>
<path d="M121.856 94.6143H171.889V41.4208H121.856V94.6143Z" fill="#F5F5F5"/>
<path d="M167.691 90.4277V45.6188H126.042V90.4277H167.691Z" fill="white"/>
<path d="M157.607 79.5677V77.9365C157.604 72.2465 155.342 66.7904 151.318 62.767C147.295 58.7435 141.839 56.4819 136.149 56.4789V58.1101C136.149 63.801 138.41 69.2589 142.434 73.283C146.458 77.307 151.916 79.5677 157.607 79.5677Z" fill="#F5F5F5"/>
<path d="M326.986 195.012H500.039V33.1389H326.986V195.012Z" fill="#E6E6E6"/>
<path d="M321.625 195.012H497.53V33.1389H321.625V195.012Z" fill="#F0F0F0"/>
<path d="M326.986 200.784H500.039V195.012H326.986V200.784Z" fill="#E6E6E6"/>
<path d="M312.681 200.784H488.586V195.012H312.681V200.784Z" fill="#F0F0F0"/>
<path d="M490.012 186.32V41.8315H329.119V186.32H490.012Z" fill="#FAFAFA"/>
<path d="M444.393 186.331L417.596 41.8315H373.449L400.246 186.331H444.393Z" fill="white"/>
<path d="M486.544 137.301C486.696 137.29 486.838 137.219 486.938 137.103C487.039 136.988 487.09 136.838 487.08 136.685V47.4897C487.08 47.3475 487.024 47.2111 486.923 47.1106C486.823 47.01 486.686 46.9535 486.544 46.9535C486.402 46.9535 486.266 47.01 486.165 47.1106C486.064 47.2111 486.008 47.3475 486.008 47.4897V136.685C485.999 136.838 486.049 136.988 486.15 137.103C486.25 137.219 486.392 137.29 486.544 137.301Z" fill="#F0F0F0"/>
<path d="M390.754 186.331L363.969 41.8315H346.755L373.54 186.331H390.754Z" fill="white"/>
<path d="M330.077 186.32V41.8315H329.119V186.32H330.077Z" fill="#E6E6E6"/>
<path opacity="0.4" d="M319.846 52.9539H492.887L493.583 45.2196H320.53L319.846 52.9539Z" fill="#E6E6E6"/>
<path opacity="0.4" d="M319.846 61.8632H492.887L493.583 54.1175H320.53L319.846 61.8632Z" fill="#E6E6E6"/>
<path opacity="0.4" d="M319.846 70.7611H492.887L493.583 63.0268H320.53L319.846 70.7611Z" fill="#E6E6E6"/>
<path opacity="0.4" d="M319.846 79.6704H492.887L493.583 71.9247H320.53L319.846 79.6704Z" fill="#E6E6E6"/>
<path opacity="0.4" d="M319.846 88.5683H492.887L493.583 80.834H320.53L319.846 88.5683Z" fill="#E6E6E6"/>
<path opacity="0.4" d="M319.846 97.4776H492.887L493.583 89.7319H320.53L319.846 97.4776Z" fill="#E6E6E6"/>
<path opacity="0.4" d="M319.846 106.375H492.887L493.583 98.6412H320.53L319.846 106.375Z" fill="#E6E6E6"/>
<path opacity="0.4" d="M319.846 115.285H492.887L493.583 107.539H320.53L319.846 115.285Z" fill="#E6E6E6"/>
<path opacity="0.4" d="M319.846 124.183H492.887L493.583 116.448H320.53L319.846 124.183Z" fill="#E6E6E6"/>
<path d="M94.4773 181.392H130.377V140.199H94.4773V181.392Z" fill="#E6E6E6"/>
<path d="M90.4165 181.392H129.168V140.199H90.4165V181.392Z" fill="#F5F5F5"/>
<path d="M125.928 178.14V143.439H93.6675V178.14H125.928Z" fill="white"/>
<path d="M118.103 161.428V160.162C118.103 159.071 117.887 157.99 117.469 156.981C117.051 155.973 116.438 155.057 115.666 154.286C114.894 153.514 113.977 152.903 112.968 152.486C111.959 152.07 110.878 151.856 109.786 151.857C107.592 151.869 105.491 152.75 103.944 154.306C102.396 155.862 101.527 157.967 101.527 160.162V161.428C101.527 163.631 102.402 165.743 103.96 167.301C105.517 168.858 107.63 169.733 109.832 169.733C112.029 169.724 114.132 168.845 115.682 167.289C117.232 165.732 118.103 163.625 118.103 161.428Z" fill="#F5F5F5"/>
<path d="M184.015 166.63H233.307V109.843H184.015V166.63Z" fill="#E6E6E6"/>
<path d="M178.426 166.63H231.836V109.843H178.426V166.63Z" fill="#F5F5F5"/>
<path d="M227.364 162.17V114.338H182.898V162.17H227.364Z" fill="white"/>
<path d="M206.99 129.373L215.432 143.998C215.62 144.324 215.719 144.694 215.719 145.07C215.719 145.447 215.62 145.817 215.431 146.143C215.243 146.469 214.972 146.74 214.645 146.928C214.319 147.116 213.949 147.215 213.572 147.215H196.689C196.313 147.215 195.942 147.116 195.616 146.928C195.29 146.74 195.019 146.469 194.83 146.143C194.642 145.817 194.543 145.447 194.542 145.07C194.542 144.694 194.641 144.324 194.83 143.998L203.271 129.373C203.462 129.049 203.733 128.78 204.059 128.593C204.386 128.407 204.755 128.308 205.131 128.308C205.507 128.308 205.876 128.407 206.202 128.593C206.528 128.78 206.8 129.049 206.99 129.373Z" fill="#F5F5F5"/>
<path d="M102.691 373.472H129.784V288.052H102.691V373.472Z" fill="#E6E6E6"/>
<path d="M107.836 373.483H102.691V358.848H113.232L107.836 373.483Z" fill="#F0F0F0"/>
<path d="M203.933 373.472H231.026V288.052H203.933V373.472Z" fill="#E6E6E6"/>
<path d="M102.702 364.494H208.428V288.052H102.702V364.494Z" fill="#F0F0F0"/>
<path d="M106.684 292.855V346.208H153.831V292.855H106.684Z" fill="#E6E6E6"/>
<path d="M157.288 292.855V346.208H204.435V292.855H157.288Z" fill="#E6E6E6"/>
<path d="M176.201 296.95H185.521C187.523 296.956 189.505 296.555 191.346 295.77C193.188 294.986 194.851 293.835 196.233 292.387H165.433C166.821 293.843 168.493 294.999 170.345 295.783C172.197 296.568 174.19 296.965 176.201 296.95Z" fill="#F0F0F0"/>
<path d="M125.118 296.95H134.45C136.451 296.956 138.433 296.554 140.274 295.769C142.116 294.985 143.778 293.834 145.161 292.387H114.361C115.749 293.84 117.419 294.995 119.268 295.779C121.118 296.564 123.109 296.962 125.118 296.95Z" fill="#F0F0F0"/>
<path d="M203.283 373.483H208.428V358.848H197.887L203.283 373.483Z" fill="#F0F0F0"/>
<path d="M175.391 276.611C175.389 277.773 175.732 278.91 176.376 279.878C177.02 280.845 177.937 281.6 179.01 282.046C180.083 282.493 181.265 282.611 182.405 282.385C183.546 282.16 184.593 281.601 185.416 280.78C186.239 279.959 186.8 278.912 187.027 277.772C187.255 276.632 187.139 275.45 186.695 274.376C186.25 273.302 185.497 272.384 184.531 271.738C183.565 271.092 182.428 270.747 181.266 270.747C179.711 270.75 178.22 271.368 177.119 272.467C176.018 273.566 175.397 275.055 175.391 276.611Z" fill="#E0E0E0"/>
<path d="M183.924 278.664C187.162 278.664 189.787 276.039 189.787 272.8C189.787 269.562 187.162 266.937 183.924 266.937C180.685 266.937 178.06 269.562 178.06 272.8C178.06 276.039 180.685 278.664 183.924 278.664Z" fill="#E0E0E0"/>
<path d="M146.017 277.557C146.017 278.717 146.36 279.851 147.005 280.815C147.649 281.779 148.565 282.531 149.636 282.974C150.708 283.418 151.887 283.534 153.024 283.308C154.161 283.082 155.206 282.523 156.026 281.703C156.846 280.883 157.405 279.839 157.631 278.701C157.857 277.564 157.741 276.385 157.297 275.313C156.853 274.242 156.102 273.326 155.138 272.682C154.173 272.038 153.04 271.694 151.88 271.694C150.325 271.694 148.834 272.312 147.734 273.411C146.634 274.511 146.017 276.002 146.017 277.557Z" fill="#E0E0E0"/>
<path d="M191.772 280.957C195.748 280.957 198.971 277.734 198.971 273.759C198.971 269.783 195.748 266.56 191.772 266.56C187.797 266.56 184.574 269.783 184.574 273.759C184.574 277.734 187.797 280.957 191.772 280.957Z" fill="#E0E0E0"/>
<path d="M170.314 267.131C170.312 268.555 170.732 269.948 171.522 271.133C172.312 272.318 173.435 273.243 174.75 273.789C176.065 274.336 177.513 274.48 178.91 274.203C180.307 273.927 181.591 273.242 182.598 272.236C183.606 271.23 184.293 269.947 184.572 268.551C184.85 267.154 184.708 265.706 184.164 264.39C183.619 263.074 182.697 261.949 181.513 261.158C180.329 260.366 178.937 259.944 177.513 259.944C175.606 259.947 173.779 260.705 172.43 262.052C171.081 263.398 170.32 265.225 170.314 267.131Z" fill="#E0E0E0"/>
<path d="M158.907 268.967C158.905 270.392 159.325 271.784 160.115 272.97C160.904 274.155 162.028 275.079 163.343 275.626C164.658 276.172 166.106 276.317 167.503 276.04C168.9 275.764 170.183 275.079 171.191 274.073C172.199 273.066 172.886 271.784 173.164 270.387C173.443 268.991 173.301 267.543 172.757 266.227C172.212 264.911 171.29 263.786 170.106 262.995C168.922 262.203 167.53 261.781 166.105 261.781C164.198 261.781 162.369 262.537 161.02 263.885C159.67 265.232 158.91 267.06 158.907 268.967Z" fill="#E0E0E0"/>
<path d="M163.733 274.774C163.733 276.128 164.134 277.451 164.886 278.576C165.639 279.702 166.707 280.579 167.958 281.097C169.209 281.615 170.585 281.751 171.913 281.487C173.24 281.223 174.46 280.571 175.417 279.614C176.374 278.656 177.026 277.437 177.29 276.109C177.555 274.781 177.419 273.405 176.901 272.155C176.383 270.904 175.506 269.835 174.38 269.083C173.254 268.331 171.931 267.929 170.577 267.929C168.762 267.929 167.021 268.65 165.738 269.934C164.454 271.218 163.733 272.959 163.733 274.774Z" fill="#E0E0E0"/>
<path d="M151.823 274.329C151.823 275.791 152.257 277.22 153.069 278.436C153.881 279.651 155.036 280.599 156.387 281.158C157.737 281.718 159.224 281.864 160.657 281.579C162.091 281.294 163.409 280.59 164.442 279.556C165.476 278.522 166.18 277.205 166.465 275.771C166.751 274.337 166.604 272.851 166.045 271.5C165.485 270.149 164.538 268.995 163.322 268.183C162.107 267.37 160.677 266.937 159.215 266.937C157.255 266.937 155.375 267.716 153.988 269.102C152.602 270.488 151.823 272.368 151.823 274.329Z" fill="#E0E0E0"/>
<path d="M203.248 276.611C203.248 276.611 202.45 288.018 171.57 288.018C140.689 288.018 139.879 276.611 139.879 276.611H203.248Z" fill="#F0F0F0"/>
<path d="M285.189 425C407.344 425 506.37 419.218 506.37 412.087C506.37 404.955 407.344 399.173 285.189 399.173C163.034 399.173 64.0078 404.955 64.0078 412.087C64.0078 419.218 163.034 425 285.189 425Z" fill="#F5F5F5"/>
<path d="M351.091 74.0351C350.163 70.9697 348.933 68.0043 347.417 65.1828L349.699 57.7108L334.949 42.9495L327.477 45.231C324.655 43.7158 321.69 42.4853 318.625 41.5577L314.952 34.7132H294.076L290.414 41.5577C287.348 42.4832 284.382 43.7138 281.562 45.231L274.09 42.9495L259.328 57.7108L261.61 65.1828C260.103 68.007 258.877 70.9719 257.948 74.0351L251.046 77.7083V98.5841L257.948 102.246C258.875 105.31 260.101 108.275 261.61 111.098L259.328 118.57L274.09 133.332L281.562 131.05C284.385 132.559 287.35 133.785 290.414 134.712L294.076 141.556H314.952L318.625 134.712C321.688 133.783 324.653 132.557 327.477 131.05L334.949 133.332L349.71 118.57L347.429 111.098C348.946 108.278 350.177 105.312 351.102 102.246L358.004 98.5841V77.7083L351.091 74.0351ZM304.514 117.794C298.647 117.794 292.913 116.055 288.036 112.796C283.158 109.537 279.357 104.905 277.112 99.485C274.867 94.0655 274.279 88.1019 275.424 82.3485C276.568 76.5951 279.393 71.3102 283.541 67.1622C287.689 63.0143 292.974 60.1895 298.727 59.045C304.481 57.9006 310.444 58.488 315.864 60.7329C321.283 62.9777 325.916 66.7793 329.175 71.6568C332.434 76.5343 334.173 82.2687 334.173 88.1348C334.173 96.001 331.048 103.545 325.486 109.107C319.924 114.67 312.38 117.794 304.514 117.794Z" fill="#407BFF"/>
<path opacity="0.2" d="M351.091 74.0351C350.163 70.9697 348.933 68.0043 347.417 65.1828L349.699 57.7108L334.949 42.9495L327.477 45.231C324.655 43.7158 321.69 42.4853 318.625 41.5577L314.952 34.7132H294.076L290.414 41.5577C287.348 42.4832 284.382 43.7138 281.562 45.231L274.09 42.9495L259.328 57.7108L261.61 65.1828C260.103 68.007 258.877 70.9719 257.948 74.0351L251.046 77.7083V98.5841L257.948 102.246C258.875 105.31 260.101 108.275 261.61 111.098L259.328 118.57L274.09 133.332L281.562 131.05C284.385 132.559 287.35 133.785 290.414 134.712L294.076 141.556H314.952L318.625 134.712C321.688 133.783 324.653 132.557 327.477 131.05L334.949 133.332L349.71 118.57L347.429 111.098C348.946 108.278 350.177 105.312 351.102 102.246L358.004 98.5841V77.7083L351.091 74.0351ZM304.514 117.794C298.647 117.794 292.913 116.055 288.036 112.796C283.158 109.537 279.357 104.905 277.112 99.485C274.867 94.0655 274.279 88.1019 275.424 82.3485C276.568 76.5951 279.393 71.3102 283.541 67.1622C287.689 63.0143 292.974 60.1895 298.727 59.045C304.481 57.9006 310.444 58.488 315.864 60.7329C321.283 62.9777 325.916 66.7793 329.175 71.6568C332.434 76.5343 334.173 82.2687 334.173 88.1348C334.173 96.001 331.048 103.545 325.486 109.107C319.924 114.67 312.38 117.794 304.514 117.794Z" fill="#0E53BE"/>
<path d="M304.514 78.3129C302.569 78.3129 300.667 78.8896 299.05 79.9701C297.433 81.0506 296.173 82.5864 295.429 84.3832C294.684 86.18 294.49 88.1571 294.869 90.0646C295.249 91.9721 296.185 93.7242 297.56 95.0994C298.935 96.4746 300.688 97.4112 302.595 97.7906C304.503 98.17 306.48 97.9753 308.277 97.231C310.073 96.4867 311.609 95.2264 312.69 93.6093C313.77 91.9922 314.347 90.0911 314.347 88.1462C314.347 85.5383 313.311 83.0371 311.467 81.193C309.623 79.3489 307.121 78.3129 304.514 78.3129Z" fill="#0E53BE"/>
<path d="M499.651 107.151C498.325 102.769 496.571 98.5276 494.415 94.4888L497.677 83.8113L476.608 62.7416L465.919 66.0155C461.894 63.8343 457.655 62.0757 453.268 60.7681L448.032 50.9119H418.201L412.953 60.7681C408.568 62.0798 404.329 63.8382 400.303 66.0155L389.625 62.7416L368.532 83.8342L371.795 94.5116C369.629 98.5459 367.875 102.788 366.559 107.174L356.691 112.41V142.241L366.548 147.488C367.861 151.871 369.616 156.11 371.784 160.139L368.521 170.805L389.614 191.898L400.291 188.635C404.322 190.806 408.565 192.557 412.953 193.86L418.201 203.728H448.032L453.268 193.871C457.651 192.554 461.89 190.796 465.919 188.624L476.608 191.887L497.7 170.794L494.438 160.116C496.588 156.082 498.335 151.844 499.651 147.466L509.507 142.218V112.387L499.651 107.151ZM433.111 181.38C422.414 181.38 411.958 178.208 403.064 172.266C394.17 166.323 387.238 157.876 383.144 147.994C379.051 138.111 377.98 127.237 380.067 116.746C382.153 106.255 387.304 96.618 394.868 89.0543C402.432 81.4906 412.068 76.3397 422.56 74.2529C433.051 72.1661 443.925 73.2371 453.807 77.3305C463.69 81.424 472.136 88.356 478.079 97.2499C484.022 106.144 487.194 116.6 487.194 127.297C487.194 134.399 485.795 141.432 483.077 147.994C480.359 154.555 476.375 160.517 471.353 165.54C466.331 170.562 460.369 174.545 453.807 177.263C447.246 179.981 440.213 181.38 433.111 181.38Z" fill="#0E53BE"/>
<path d="M433.111 80.7997C423.913 80.802 414.922 83.5316 407.275 88.6434C399.628 93.7552 393.669 101.02 390.151 109.518C386.632 118.017 385.713 127.368 387.509 136.389C389.305 145.41 393.735 153.696 400.24 160.199C406.745 166.702 415.032 171.131 424.053 172.924C433.075 174.718 442.425 173.796 450.923 170.276C459.421 166.755 466.684 160.794 471.794 153.146C476.904 145.498 479.631 136.506 479.631 127.308C479.616 114.976 474.71 103.154 465.988 94.4345C457.267 85.7153 445.443 80.8118 433.111 80.7997ZM433.111 167.623C425.137 167.625 417.342 165.262 410.71 160.834C404.079 156.406 398.91 150.11 395.857 142.744C392.804 135.378 392.004 127.271 393.559 119.45C395.113 111.629 398.951 104.445 404.589 98.8059C410.227 93.1667 417.41 89.326 425.23 87.7695C433.051 86.2131 441.157 87.0107 448.525 90.0617C455.892 93.1127 462.189 98.2798 466.619 104.91C471.049 111.54 473.414 119.334 473.414 127.308C473.402 137.995 469.152 148.24 461.597 155.798C454.041 163.355 443.797 167.608 433.111 167.623Z" fill="#407BFF"/>
<path opacity="0.2" d="M433.111 80.7997C423.913 80.802 414.922 83.5316 407.275 88.6434C399.628 93.7552 393.669 101.02 390.151 109.518C386.632 118.017 385.713 127.368 387.509 136.389C389.305 145.41 393.735 153.696 400.24 160.199C406.745 166.702 415.032 171.131 424.053 172.924C433.075 174.718 442.425 173.796 450.923 170.276C459.421 166.755 466.684 160.794 471.794 153.146C476.904 145.498 479.631 136.506 479.631 127.308C479.616 114.976 474.71 103.154 465.988 94.4345C457.267 85.7153 445.443 80.8118 433.111 80.7997ZM433.111 167.623C425.137 167.625 417.342 165.262 410.71 160.834C404.079 156.406 398.91 150.11 395.857 142.744C392.804 135.378 392.004 127.271 393.559 119.45C395.113 111.629 398.951 104.445 404.589 98.8059C410.227 93.1667 417.41 89.326 425.23 87.7695C433.051 86.2131 441.157 87.0107 448.525 90.0617C455.892 93.1127 462.189 98.2798 466.619 104.91C471.049 111.54 473.414 119.334 473.414 127.308C473.402 137.995 469.152 148.24 461.597 155.798C454.041 163.355 443.797 167.608 433.111 167.623Z" fill="black"/>
<path d="M326.256 206.659C325.953 206.659 325.663 206.539 325.449 206.325C325.235 206.111 325.115 205.821 325.115 205.519V203.237C325.115 202.935 325.235 202.644 325.449 202.43C325.663 202.217 325.953 202.096 326.256 202.096C326.559 202.096 326.849 202.217 327.063 202.43C327.277 202.644 327.397 202.935 327.397 203.237V205.519C327.397 205.821 327.277 206.111 327.063 206.325C326.849 206.539 326.559 206.659 326.256 206.659Z" fill="#407BFF"/>
<path d="M308.495 177.182C307.447 176.509 306.628 175.535 306.145 174.387C306.025 174.109 305.8 173.89 305.519 173.777C305.237 173.665 304.923 173.669 304.645 173.788C304.366 173.908 304.147 174.133 304.035 174.414C303.922 174.696 303.926 175.01 304.046 175.289C304.716 176.847 305.831 178.172 307.251 179.099C307.435 179.217 307.649 179.281 307.867 179.281C308.114 179.283 308.355 179.205 308.554 179.058C308.752 178.911 308.898 178.704 308.969 178.467C309.04 178.231 309.032 177.977 308.946 177.746C308.861 177.514 308.702 177.316 308.495 177.182Z" fill="#407BFF"/>
<path d="M304.513 162.934C304.816 162.934 305.106 162.814 305.32 162.6C305.534 162.386 305.654 162.096 305.654 161.793V157.424C305.654 157.122 305.534 156.832 305.32 156.618C305.106 156.404 304.816 156.284 304.513 156.284C304.211 156.284 303.921 156.404 303.707 156.618C303.493 156.832 303.373 157.122 303.373 157.424V161.793C303.373 162.096 303.493 162.386 303.707 162.6C303.921 162.814 304.211 162.934 304.513 162.934Z" fill="#407BFF"/>
<path d="M316.388 178.186H312.008C311.705 178.186 311.415 178.306 311.201 178.52C310.987 178.734 310.867 179.024 310.867 179.327C310.867 179.629 310.987 179.92 311.201 180.133C311.415 180.347 311.705 180.468 312.008 180.468H316.388C316.691 180.468 316.981 180.347 317.195 180.133C317.409 179.92 317.529 179.629 317.529 179.327C317.529 179.024 317.409 178.734 317.195 178.52C316.981 178.306 316.691 178.186 316.388 178.186Z" fill="#407BFF"/>
<path d="M305.654 170.543V166.174C305.654 165.871 305.534 165.581 305.32 165.367C305.106 165.153 304.816 165.033 304.513 165.033C304.211 165.033 303.921 165.153 303.707 165.367C303.493 165.581 303.373 165.871 303.373 166.174V170.543C303.373 170.846 303.493 171.136 303.707 171.35C303.921 171.564 304.211 171.684 304.513 171.684C304.816 171.684 305.106 171.564 305.32 171.35C305.534 171.136 305.654 170.846 305.654 170.543Z" fill="#407BFF"/>
<path d="M327.329 185.601C327.289 185.302 327.132 185.03 326.893 184.846C326.653 184.663 326.351 184.581 326.051 184.62C325.903 184.645 325.761 184.699 325.633 184.779C325.505 184.859 325.395 184.964 325.308 185.087C325.221 185.21 325.159 185.349 325.126 185.496C325.093 185.643 325.09 185.795 325.116 185.943C325.152 186.208 325.171 186.475 325.173 186.742V190.164C325.173 190.467 325.293 190.757 325.507 190.971C325.721 191.185 326.011 191.305 326.314 191.305C326.616 191.305 326.906 191.185 327.12 190.971C327.334 190.757 327.454 190.467 327.454 190.164V186.742C327.437 186.359 327.396 185.978 327.329 185.601Z" fill="#407BFF"/>
<path d="M326.256 193.347C325.953 193.347 325.663 193.467 325.449 193.681C325.235 193.895 325.115 194.185 325.115 194.487V198.868C325.115 199.171 325.235 199.461 325.449 199.675C325.663 199.889 325.953 200.009 326.256 200.009C326.559 200.009 326.849 199.889 327.063 199.675C327.277 199.461 327.397 199.171 327.397 198.868V194.487C327.397 194.185 327.277 193.895 327.063 193.681C326.849 193.467 326.559 193.347 326.256 193.347Z" fill="#407BFF"/>
<path d="M325.264 181.072C324.147 179.797 322.672 178.887 321.031 178.46C320.886 178.422 320.735 178.414 320.586 178.435C320.438 178.456 320.295 178.506 320.165 178.582C320.036 178.659 319.923 178.76 319.833 178.879C319.743 178.999 319.677 179.136 319.64 179.281C319.602 179.427 319.594 179.578 319.615 179.726C319.636 179.875 319.686 180.018 319.762 180.147C319.838 180.276 319.939 180.389 320.059 180.48C320.179 180.57 320.316 180.635 320.461 180.673C321.66 180.982 322.737 181.646 323.552 182.578C323.659 182.7 323.791 182.797 323.938 182.864C324.086 182.931 324.246 182.966 324.408 182.966C324.627 182.966 324.842 182.902 325.026 182.783C325.21 182.664 325.356 182.495 325.446 182.295C325.536 182.095 325.567 181.873 325.535 181.657C325.502 181.44 325.408 181.237 325.264 181.072Z" fill="#407BFF"/>
<path d="M304.513 154.139C304.211 154.139 303.921 154.019 303.707 153.805C303.493 153.591 303.373 153.301 303.373 152.998V150.717C303.373 150.414 303.493 150.124 303.707 149.91C303.921 149.696 304.211 149.576 304.513 149.576C304.816 149.576 305.106 149.696 305.32 149.91C305.534 150.124 305.654 150.414 305.654 150.717V152.998C305.654 153.301 305.534 153.591 305.32 153.805C305.106 154.019 304.816 154.139 304.513 154.139Z" fill="#407BFF"/>
<path d="M380.294 264.096H116.164V268.329H380.294V264.096Z" fill="#333333"/>
<path d="M380.294 268.329H437.606V264.096H380.294V268.329Z" fill="#333333"/>
<path d="M418.464 272.857H135.305L125.837 268.329H427.932L418.464 272.857Z" fill="#407BFF"/>
<path opacity="0.6" d="M418.464 272.857H135.305L125.837 268.329H427.932L418.464 272.857Z" fill="white"/>
<path d="M143.861 272.857V407.854H147.489L152.052 272.857H143.861Z" fill="#545454"/>
<path d="M186.685 272.857V407.854H190.312L194.875 272.857H186.685Z" fill="#545454"/>
<path d="M418.464 272.857V407.854H414.847L410.273 272.857H418.464Z" fill="#545454"/>
<path d="M375.651 272.857V407.854H372.023L367.46 272.857H375.651Z" fill="#545454"/>
<path d="M289.456 212.854L277.535 261.416L277.204 264.096H359.43L359.772 261.416L371.682 212.854H289.456Z" fill="#407BFF"/>
<path opacity="0.3" d="M289.456 212.854L277.535 261.416L277.204 264.096H359.43L359.772 261.416L371.682 212.854H289.456Z" fill="black"/>
<path d="M369.161 212.854H286.924L275.014 261.416H357.24L369.161 212.854Z" fill="#8A8A8A"/>
<path d="M355.494 259.191L366.331 215.078H288.669L277.843 259.191H355.494Z" fill="white"/>
<path d="M335.816 261.416L335.474 264.096H244.932L245.263 261.416H335.816Z" fill="#407BFF"/>
<path opacity="0.6" d="M335.816 261.416L335.474 264.096H244.932L245.263 261.416H335.816Z" fill="#8A8A8A"/>
<path d="M164.771 255.267C164.714 253.529 164.034 251.87 162.855 250.593C161.676 249.315 160.076 248.505 158.349 248.308V246.996C158.348 246.921 158.331 246.846 158.3 246.776C158.269 246.707 158.225 246.644 158.17 246.592C158.115 246.54 158.05 246.5 157.978 246.473C157.907 246.447 157.832 246.434 157.756 246.438H145.436C145.359 246.434 145.283 246.446 145.211 246.473C145.139 246.499 145.074 246.54 145.017 246.592C144.961 246.644 144.916 246.706 144.884 246.776C144.852 246.845 144.834 246.92 144.831 246.996V264.108H158.349V262.237C160.079 262.043 161.681 261.231 162.861 259.951C164.041 258.67 164.719 257.007 164.771 255.267ZM158.349 260.024V250.521C159.489 250.689 160.531 251.262 161.284 252.134C162.037 253.006 162.451 254.12 162.451 255.273C162.451 256.425 162.037 257.539 161.284 258.411C160.531 259.284 159.489 259.856 158.349 260.024Z" fill="#8A8A8A"/>
<path d="M395.341 264.096H406.794L403.406 239.011H395.341V264.096Z" fill="#263238"/>
<path d="M378.549 264.096H400.246L404.273 234.733H382.587L378.549 264.096Z" fill="#407BFF"/>
<path opacity="0.3" d="M378.549 264.096H400.246L404.273 234.733H382.587L378.549 264.096Z" fill="black"/>
<path d="M375.651 264.096H398.227L402.265 234.733H379.69L375.651 264.096Z" fill="#407BFF"/>
<path opacity="0.4" d="M396.23 261.781L399.63 237.049H381.686L378.286 261.781H396.23Z" fill="white"/>
<path d="M225.345 220.748L224.409 221.752L223.406 222.892C222.733 223.668 222.06 224.455 221.421 225.265C220.143 226.885 218.911 228.539 217.759 230.239C215.466 233.526 213.553 237.062 212.055 240.779C211.357 242.546 210.815 244.371 210.435 246.232C210.253 247.282 210.139 247.738 210.082 248.183C210.018 248.538 210.018 248.901 210.082 249.255C210.273 249.813 210.573 250.327 210.965 250.768C211.356 251.208 211.832 251.567 212.363 251.822C213.133 252.297 213.942 252.705 214.781 253.043C215.223 253.225 215.679 253.396 216.15 253.556C216.584 253.716 217.131 253.875 217.474 254.012V260.298C216.675 260.412 216.093 260.503 215.42 260.549C214.747 260.594 214.097 260.606 213.424 260.549C212.04 260.521 210.664 260.345 209.317 260.024C207.8 259.668 206.346 259.083 205.005 258.29C203.428 257.367 202.073 256.109 201.035 254.605C199.967 253.004 199.259 251.191 198.959 249.289C198.883 248.844 198.833 248.395 198.811 247.943C198.788 247.51 198.788 247.076 198.811 246.643V246.004C198.798 245.833 198.798 245.662 198.811 245.491L198.902 244.487C199.194 241.88 199.744 239.308 200.545 236.81C202.09 232.011 204.265 227.438 207.013 223.212C208.333 221.137 209.769 219.137 211.314 217.223C212.078 216.265 212.865 215.329 213.686 214.405C214.086 213.937 214.508 213.481 214.941 213.025C215.375 212.568 215.774 212.169 216.367 211.599L225.345 220.748Z" fill="#B55B52"/>
<path d="M215.204 253.875L220.52 249.974L223.543 260.902C223.543 260.902 218.831 262.648 215.238 260.298L215.204 253.875Z" fill="#B55B52"/>
<path d="M227.9 247.35L229.976 256.499L223.543 260.902L220.52 249.974L227.9 247.35Z" fill="#B55B52"/>
<path d="M261.518 178.814C261.279 179.487 261.45 180.16 261.895 180.308C262.339 180.456 262.887 180.046 263.115 179.372C263.343 178.699 263.184 178.015 262.75 177.867C262.317 177.718 261.758 178.129 261.518 178.814Z" fill="#263238"/>
<path d="M261.393 180.137C261.481 182.486 261.892 184.812 262.613 187.05C262.039 187.214 261.435 187.253 260.845 187.162C260.254 187.072 259.69 186.854 259.191 186.525L261.393 180.137Z" fill="#A02724"/>
<path d="M260.423 174.228C260.508 174.256 260.6 174.256 260.685 174.228C261.186 174.061 261.719 174.015 262.24 174.094C262.762 174.174 263.257 174.376 263.686 174.684C263.771 174.746 263.878 174.774 263.983 174.761C264.088 174.749 264.185 174.697 264.254 174.617C264.323 174.536 264.359 174.433 264.355 174.327C264.351 174.221 264.308 174.12 264.233 174.045C263.698 173.646 263.074 173.381 262.416 173.272C261.757 173.163 261.081 173.213 260.446 173.418C260.363 173.446 260.29 173.5 260.239 173.572C260.188 173.643 260.161 173.729 260.161 173.817C260.161 173.905 260.188 173.991 260.239 174.062C260.29 174.134 260.363 174.188 260.446 174.216L260.423 174.228Z" fill="#263238"/>
<path d="M236.501 181.3C237.779 187.791 239.045 199.689 234.505 204.024C234.505 204.024 236.284 210.606 248.354 210.606C261.621 210.606 254.696 204.024 254.696 204.024C247.452 202.29 247.635 196.917 248.901 191.875L236.501 181.3Z" fill="#B55B52"/>
<path d="M232.771 206.283C231.813 204.195 230.775 201.811 232.931 201.07C235.315 200.248 248.365 199.404 252.86 200.944C253.454 201.106 254.01 201.384 254.496 201.764C254.981 202.143 255.386 202.615 255.686 203.152C255.987 203.69 256.177 204.282 256.246 204.894C256.315 205.506 256.262 206.125 256.088 206.716L232.771 206.283Z" fill="#263238"/>
<path d="M278.344 217.417C281.139 222.447 284.139 227.626 287.174 232.6C290.208 237.574 293.391 242.525 296.79 247.042C297.635 248.183 298.513 249.267 299.38 250.35C299.813 250.909 300.27 251.366 300.715 251.879L301.376 252.632L301.547 252.826L301.627 252.917L301.707 253.02C302.239 253.534 302.878 253.923 303.578 254.16C304.656 254.536 305.768 254.807 306.897 254.97C312.443 255.53 318.033 255.465 323.564 254.776L325.298 260.822C323.758 261.507 322.32 261.963 320.792 262.534C319.263 263.104 317.757 263.48 316.229 263.868C312.989 264.681 309.667 265.125 306.327 265.192C304.452 265.222 302.58 265.034 300.749 264.633C298.5 264.186 296.38 263.243 294.543 261.872L293.779 261.245L293.596 261.085L293.482 260.971L293.265 260.754L292.376 259.876C291.794 259.294 291.155 258.735 290.63 258.119C289.49 256.921 288.417 255.723 287.425 254.491C283.439 249.675 279.763 244.611 276.416 239.331C274.751 236.73 273.146 234.102 271.602 231.448C270.051 228.767 268.557 226.143 267.108 223.314L278.344 217.417Z" fill="#B55B52"/>
<path d="M218.614 206.032C210.287 207.937 200.75 230.627 200.75 230.627L217.462 242.034C221.619 236.074 225.307 229.8 228.493 223.269C233.433 212.934 227.124 204.081 218.614 206.032Z" fill="#0E53BE"/>
<path opacity="0.2" d="M224.569 220.497L216.675 241.532L217.451 242.08C217.451 242.08 220.873 237.277 224.569 230.798V220.497Z" fill="black"/>
<path d="M268.352 206.477C268.352 206.477 277.797 217.154 268.876 283.204H221.387C221.067 275.915 225.642 240.369 218.615 206.021C223.863 205.01 229.171 204.339 234.505 204.013C241.23 203.619 247.972 203.619 254.697 204.013C259.306 204.477 263.871 205.301 268.352 206.477Z" fill="#0E53BE"/>
<path opacity="0.2" d="M263.07 225.585C264.309 233.081 267.548 240.104 272.447 245.913C272.641 241.658 272.721 237.836 272.709 234.425L263.07 225.585Z" fill="black"/>
<path d="M258.952 213.686C257.811 222.094 274.352 243.563 274.352 243.563L290.996 232.155C290.996 232.155 286.376 220.326 278.607 212.568C269.755 203.671 260.252 204.538 258.952 213.686Z" fill="#0E53BE"/>
<path d="M321.693 254.834L328.469 252.05L335.439 257.32C335.439 257.32 328.789 263.207 322.743 260.914L321.693 254.834Z" fill="#B55B52"/>
<path d="M332.941 251.776L338.052 255.427L335.405 257.32L328.435 252.05L332.941 251.776Z" fill="#B55B52"/>
<path d="M239.456 169.528C237.083 178.015 235.258 182.863 237.973 188.578C242.046 197.191 253.624 196.952 258.507 189.354C262.887 182.51 266.036 169.779 259.054 163.653C257.522 162.291 255.666 161.344 253.664 160.902C251.662 160.459 249.581 160.536 247.617 161.125C245.653 161.714 243.872 162.795 242.444 164.265C241.016 165.736 239.987 167.548 239.456 169.528Z" fill="#B55B52"/>
<path d="M257.526 169.619C254.104 179.361 250.077 190.061 240.243 188.031C233.901 186.719 233.399 176.509 231.117 171.866C229.098 167.794 229.224 159.603 233.399 159.501C231.528 156.786 240.985 146.85 247.442 152.097C249.096 149.816 261.017 143.096 269.846 153.763C278.162 163.847 274.09 172.254 257.526 169.619Z" fill="#263238"/>
<path d="M249.825 175.848C249.597 178.024 250.086 180.215 251.217 182.087C252.734 184.529 254.959 183.593 255.78 181.095C256.51 178.814 256.59 174.878 254.48 173.292C252.369 171.707 250.145 173.224 249.825 175.848Z" fill="#B55B52"/>
<path d="M322.697 401.409C323.838 401.409 324.979 401.25 325.31 400.736C325.404 400.601 325.454 400.439 325.454 400.274C325.454 400.109 325.404 399.948 325.31 399.812C325.158 399.572 324.922 399.397 324.648 399.322C323.165 398.922 320.085 400.691 319.937 400.77C319.898 400.79 319.866 400.822 319.848 400.861C319.829 400.9 319.824 400.945 319.834 400.987C319.841 401.028 319.86 401.066 319.889 401.096C319.917 401.126 319.953 401.148 319.994 401.158C320.886 401.321 321.79 401.405 322.697 401.409ZM324.112 399.687C324.244 399.668 324.379 399.668 324.511 399.687C324.597 399.703 324.679 399.738 324.75 399.789C324.821 399.84 324.879 399.907 324.922 399.983C325.07 400.246 325.024 400.371 324.922 400.44C324.511 401.021 322.264 401.033 320.61 400.793C321.694 400.201 322.884 399.825 324.112 399.687Z" fill="#407BFF"/>
<path d="M320.016 401.158H320.108C321.18 400.679 323.302 398.763 323.131 397.736C323.131 397.496 322.925 397.211 322.355 397.143C322.15 397.125 321.944 397.148 321.748 397.211C321.552 397.273 321.371 397.374 321.214 397.508C320.073 398.432 319.845 400.827 319.834 400.93C319.83 400.967 319.835 401.003 319.849 401.037C319.863 401.071 319.885 401.101 319.914 401.124C319.945 401.142 319.98 401.154 320.016 401.158ZM322.184 397.565H322.309C322.686 397.565 322.709 397.759 322.72 397.804C322.823 398.409 321.374 399.915 320.279 400.565C320.37 399.561 320.768 398.609 321.42 397.839C321.632 397.657 321.904 397.559 322.184 397.565Z" fill="#407BFF"/>
<path d="M309.692 400.953H318.567L320.587 380.385H311.712L309.692 400.953Z" fill="#B55B52"/>
<path d="M319.069 399.926H309.384C309.206 399.927 309.033 399.989 308.894 400.1C308.756 400.212 308.659 400.368 308.62 400.542L306.863 408.391C306.818 408.582 306.817 408.781 306.861 408.972C306.904 409.164 306.991 409.343 307.114 409.496C307.237 409.649 307.394 409.772 307.572 409.855C307.75 409.938 307.944 409.98 308.141 409.976C311.632 409.919 316.685 409.714 321.077 409.714C326.222 409.714 330.659 409.988 336.683 409.988C340.333 409.988 341.348 406.303 339.82 405.972C332.872 404.455 327.203 404.295 321.203 400.588C320.566 400.175 319.828 399.946 319.069 399.926Z" fill="#263238"/>
<path opacity="0.2" d="M320.575 380.396L319.549 390.994H310.662L311.7 380.396H320.575Z" fill="black"/>
<path d="M287.117 401.398C287.493 401.447 287.875 401.421 288.242 401.321C288.608 401.221 288.951 401.05 289.25 400.816C289.355 400.672 289.411 400.498 289.411 400.32C289.411 400.141 289.355 399.968 289.25 399.824C289.182 399.698 289.088 399.589 288.974 399.505C288.859 399.42 288.728 399.361 288.588 399.333C287.288 399.025 284.835 400.702 284.732 400.77C284.7 400.796 284.674 400.829 284.658 400.867C284.642 400.905 284.637 400.946 284.641 400.987C284.649 401.026 284.669 401.063 284.697 401.091C284.726 401.119 284.762 401.139 284.801 401.147C285.562 401.313 286.338 401.397 287.117 401.398ZM288.257 399.709C288.341 399.698 288.425 399.698 288.508 399.709C288.59 399.721 288.668 399.752 288.735 399.8C288.802 399.848 288.858 399.91 288.896 399.983C289.09 400.337 288.976 400.474 288.896 400.531C288.52 401.021 286.706 401.033 285.371 400.816C286.23 400.235 287.209 399.857 288.235 399.709H288.257Z" fill="#407BFF"/>
<path d="M284.858 401.158H284.949C285.873 400.656 287.653 398.717 287.459 397.736C287.43 397.579 287.346 397.437 287.223 397.335C287.1 397.233 286.946 397.177 286.786 397.177C286.627 397.158 286.465 397.172 286.312 397.219C286.158 397.266 286.017 397.345 285.896 397.451C284.869 398.295 284.653 400.873 284.641 400.964C284.641 401.003 284.65 401.041 284.668 401.074C284.686 401.108 284.712 401.137 284.744 401.158C284.781 401.17 284.821 401.17 284.858 401.158ZM286.649 397.565H286.74C287.014 397.565 287.037 397.725 287.048 397.782C287.162 398.363 286.021 399.835 285.109 400.531C285.17 399.518 285.536 398.548 286.158 397.747C286.295 397.63 286.469 397.565 286.649 397.565Z" fill="#407BFF"/>
<path d="M274.683 400.953H283.558L288.018 380.385H279.143L274.683 400.953Z" fill="#B55B52"/>
<path d="M284.186 399.926H274.215C274.038 399.928 273.867 399.989 273.73 400.102C273.593 400.214 273.499 400.369 273.462 400.542L271.706 408.391C271.665 408.583 271.667 408.783 271.714 408.974C271.76 409.166 271.849 409.344 271.974 409.496C272.099 409.649 272.257 409.771 272.435 409.854C272.614 409.937 272.809 409.979 273.006 409.976C276.485 409.919 278.185 409.714 282.566 409.714C285.269 409.714 288.726 409.988 292.456 409.988C296.186 409.988 296.665 406.303 295.137 405.972C288.292 404.478 287.825 402.413 285.634 400.44C285.23 400.097 284.715 399.915 284.186 399.926Z" fill="#263238"/>
<g opacity="0.2">
<path opacity="0.2" d="M279.143 380.396H288.018L285.713 390.994H276.838L279.143 380.396Z" fill="black"/>
</g>
<path d="M268.876 283.215C268.876 283.215 335.382 290.254 334.652 324.18C334.181 345.487 330.084 366.557 322.537 386.488H309.35C309.35 386.488 310.023 364.962 309.578 330.226C309.442 319.811 288.417 316.377 267.872 315.168C259.172 314.621 250.798 311.653 243.695 306.6C236.592 301.547 231.042 294.609 227.672 286.569L226.269 283.215H268.876Z" fill="#545454"/>
<path d="M325.766 382.952C325.834 382.952 324.91 389.192 324.91 389.192H306.658L306.156 383.625L325.766 382.952Z" fill="#407BFF"/>
<path d="M254.639 283.215C254.639 283.215 302.848 299.186 304.068 318.99C306.35 355.425 288.429 386.488 288.429 386.488H275.116C275.116 386.488 280.17 371.088 281.961 338.074C284.242 296.608 206.865 338.006 221.364 283.215H254.639Z" fill="#545454"/>
<path d="M292.455 382.952C292.524 382.952 290.778 389.192 290.778 389.192H272.526L272.857 383.625L292.455 382.952Z" fill="#407BFF"/>
<path d="M289.41 318.145H215.261C215.261 315.901 216.153 313.748 217.74 312.16C219.327 310.573 221.48 309.681 223.725 309.681H280.945C283.19 309.681 285.343 310.573 286.931 312.16C288.518 313.748 289.41 315.901 289.41 318.145Z" fill="#333333"/>
<path d="M218.695 318.134L207.515 411.859H209.911L224.09 318.134H218.695Z" fill="#407BFF"/>
<path opacity="0.4" d="M218.695 318.134L207.515 411.859H209.911L224.09 318.134H218.695Z" fill="#333333"/>
<path d="M233.65 318.134L233.433 411.859H235.817L239.046 318.134H233.65Z" fill="#407BFF"/>
<path opacity="0.4" d="M233.65 318.134L233.433 411.859H235.817L239.046 318.134H233.65Z" fill="#333333"/>
<path d="M285.976 318.134L297.156 411.859H294.76L280.592 318.134H285.976Z" fill="#407BFF"/>
<path opacity="0.4" d="M285.976 318.134L297.156 411.859H294.76L280.592 318.134H285.976Z" fill="#333333"/>
<path d="M271.021 318.134L271.238 411.859H268.853L265.625 318.134H271.021Z" fill="#407BFF"/>
<path opacity="0.4" d="M271.021 318.134L271.238 411.859H268.853L265.625 318.134H271.021Z" fill="#333333"/>
</g>
<defs>
<clipPath id="clip0_498_1841">
<rect width="571" height="425" fill="white"/>
</clipPath>
</defs>
</svg>
