<svg width="512" height="512" viewBox="0 0 512 512" fill="none" xmlns="http://www.w3.org/2000/svg">
<path d="M464 88H440V8H72V88H48C25.944 88 8 105.944 8 128V368C8 390.056 25.944 408 48 408H187.056L171.056 440H160C137.944 440 120 457.944 120 480V504H392V480C392 457.944 374.056 440 352 440H340.944L324.944 408H464C486.056 408 504 390.056 504 368V128C504 105.944 486.056 88 464 88ZM440 312V136H456V344H171.312L160 332.688C156.976 329.664 152.96 328 148.688 328H56V136H72V312H440ZM88 88H424V296H88V88ZM424 24V72H88V24H424ZM376 480V488H136V480C136 466.768 146.768 456 160 456H352C365.232 456 376 466.768 376 480ZM323.056 440H188.944L204.944 408H307.056L323.056 440ZM488 368C488 381.232 477.232 392 464 392H48C34.768 392 24 381.232 24 368V128C24 114.768 34.768 104 48 104H72V120H56C47.176 120 40 127.176 40 136V328C40 336.824 47.176 344 56 344H148.688L160 355.312C163.024 358.336 167.04 360 171.312 360H456C464.824 360 472 352.824 472 344V136C472 127.176 464.824 120 456 120H440V104H464C477.232 104 488 114.768 488 128V368Z" fill="#0E53BE"/>
<path d="M56 360H72V376H56V360Z" fill="#0E53BE"/>
<path d="M88 360H104V376H88V360Z" fill="#0E53BE"/>
<path d="M120 360H136V376H120V360Z" fill="#0E53BE"/>
<path d="M104 40H120V56H104V40Z" fill="#0E53BE"/>
<path d="M136 40H152V56H136V40Z" fill="#0E53BE"/>
<path d="M168 40H184V56H168V40Z" fill="#0E53BE"/>
<path d="M312 104H408V120H312V104Z" fill="#0E53BE"/>
<path d="M392 136H408V152H392V136Z" fill="#0E53BE"/>
<path d="M360 136H376V152H360V136Z" fill="#0E53BE"/>
<path d="M312 136H344V152H312V136Z" fill="#0E53BE"/>
<path d="M312 168H408V184H312V168Z" fill="#0E53BE"/>
<path d="M392 200H408V216H392V200Z" fill="#0E53BE"/>
<path d="M360 200H376V216H360V200Z" fill="#0E53BE"/>
<path d="M312 200H344V216H312V200Z" fill="#0E53BE"/>
<path d="M312 232H408V248H312V232Z" fill="#0E53BE"/>
<path d="M392 264H408V280H392V264Z" fill="#0E53BE"/>
<path d="M360 264H376V280H360V264Z" fill="#0E53BE"/>
<path d="M312 264H344V280H312V264Z" fill="#0E53BE"/>
<path d="M104 184H232V104H104V184ZM120 120H216V168H120V120Z" fill="#0E53BE"/>
<path d="M104 200H120V216H104V200Z" fill="#0E53BE"/>
<path d="M136 200H232V216H136V200Z" fill="#0E53BE"/>
<path d="M104 232H232V248H104V232Z" fill="#0E53BE"/>
<path d="M104 264H232V280H104V264Z" fill="#0E53BE"/>
<path d="M248 280H296V232H248V280ZM264 248H280V264H264V248Z" fill="#0E53BE"/>
<path d="M248 216H296V168H248V216ZM264 184H280V200H264V184Z" fill="#0E53BE"/>
<path d="M248 152H296V104H248V152ZM264 120H280V136H264V120Z" fill="#0E53BE"/>
</svg>
