<svg width="425" height="317" viewBox="0 0 425 317" fill="none" xmlns="http://www.w3.org/2000/svg">
<g clip-path="url(#clip0_498_1993)">
<path d="M425 278.29H0V278.503H425V278.29Z" fill="#EBEBEB"/>
<path d="M382.415 291.966H354.263V292.179H382.415V291.966Z" fill="#EBEBEB"/>
<path d="M281.537 294.279H274.15V294.491H281.537V294.279Z" fill="#EBEBEB"/>
<path d="M353.413 284.078H337.102V284.291H353.413V284.078Z" fill="#EBEBEB"/>
<path d="M81.3023 285.507H44.5908V285.719H81.3023V285.507Z" fill="#EBEBEB"/>
<path d="M94.2565 285.507H88.876V285.719H94.2565V285.507Z" fill="#EBEBEB"/>
<path d="M191.378 289.093H111.75V289.306H191.378V289.093Z" fill="#EBEBEB"/>
<path d="M201.45 240.38H37.3235C36.0378 240.378 34.8054 239.865 33.8971 238.955C32.9887 238.045 32.4785 236.812 32.4785 235.527V4.811C32.4897 3.53262 33.0048 2.31028 33.912 1.40949C34.8192 0.508689 36.0451 0.00218993 37.3235 0H201.45C202.737 0 203.972 0.51135 204.882 1.42156C205.792 2.33177 206.304 3.56627 206.304 4.8535V235.527C206.304 236.814 205.792 238.048 204.882 238.958C203.972 239.869 202.737 240.38 201.45 240.38ZM37.3235 0.170001C36.0941 0.172252 34.9158 0.662205 34.0473 1.53232C33.1788 2.40243 32.691 3.5816 32.691 4.811V235.527C32.691 236.756 33.1788 237.935 34.0473 238.805C34.9158 239.675 36.0941 240.165 37.3235 240.167H201.45C202.68 240.165 203.859 239.676 204.729 238.806C205.599 237.936 206.089 236.757 206.091 235.527V4.811C206.089 3.58082 205.599 2.40167 204.729 1.5318C203.859 0.661929 202.68 0.172248 201.45 0.170001H37.3235Z" fill="#EBEBEB"/>
<path d="M385.314 240.38H221.179C219.892 240.378 218.659 239.866 217.749 238.956C216.84 238.046 216.327 236.813 216.325 235.527V4.811C216.339 3.53185 216.856 2.30952 217.764 1.40895C218.673 0.508392 219.899 0.00216605 221.179 0H385.314C386.591 0.00442382 387.814 0.511912 388.72 1.41247C389.625 2.31303 390.139 3.53409 390.15 4.811V235.527C390.15 236.811 389.641 238.043 388.735 238.952C387.828 239.862 386.598 240.375 385.314 240.38ZM221.179 0.170001C219.949 0.172248 218.769 0.661929 217.899 1.5318C217.03 2.40167 216.54 3.58082 216.538 4.811V235.527C216.54 236.757 217.03 237.936 217.899 238.806C218.769 239.676 219.949 240.165 221.179 240.167H385.314C386.544 240.165 387.723 239.676 388.593 238.806C389.463 237.936 389.952 236.757 389.955 235.527V4.811C389.952 3.58082 389.463 2.40167 388.593 1.5318C387.723 0.661929 386.544 0.172248 385.314 0.170001H221.179Z" fill="#EBEBEB"/>
<path d="M133.042 201.892L121.269 211.735L138.04 236.113L151.436 228.633C158.616 235.53 167.034 241.009 176.247 244.783L174.887 260.024L204 265.387L208.173 250.665C218.112 250.438 227.917 248.333 237.073 244.46L246.916 256.233L271.294 239.462L263.831 226.1C270.729 218.924 276.209 210.509 279.981 201.297L295.213 202.657L300.594 173.562L285.872 169.38C285.639 159.442 283.534 149.637 279.667 140.48L291.439 130.637L274.669 106.267L261.264 113.739C254.086 106.843 245.671 101.364 236.461 97.5885L237.821 82.348L208.726 76.976L204.552 91.6895C194.615 91.9258 184.811 94.0308 175.652 97.8945L165.75 86.071L141.389 102.85L148.86 116.246C141.964 123.427 136.485 131.845 132.71 141.058L117.47 139.698L112.098 168.793L126.811 172.967C127.047 182.915 129.161 192.729 133.042 201.892ZM166.965 163.872C168.405 156.082 172.122 148.894 177.647 143.217C183.172 137.541 190.256 133.63 198.004 131.979C205.752 130.328 213.815 131.012 221.174 133.944C228.533 136.876 234.857 141.924 239.347 148.45C243.837 154.977 246.291 162.688 246.398 170.609C246.506 178.529 244.262 186.304 239.951 192.95C235.639 199.595 229.454 204.813 222.178 207.944C214.901 211.074 206.859 211.976 199.07 210.537C188.624 208.606 179.374 202.604 173.353 193.853C167.332 185.102 165.034 174.317 166.965 163.872Z" fill="#F0F0F0"/>
<path d="M329.273 186.855L338.47 188.555L339.788 183.906C342.932 183.83 346.035 183.164 348.934 181.942L352.045 185.665L359.754 180.362L357.391 176.112C359.571 173.845 361.302 171.186 362.491 168.275L367.311 168.7L369.011 159.511L364.353 158.185C364.283 155.039 363.617 151.936 362.389 149.039L366.112 145.928L360.808 138.227L356.558 140.59C354.288 138.415 351.629 136.685 348.721 135.49L349.146 130.679L339.949 128.979L338.632 133.629C335.487 133.705 332.385 134.371 329.486 135.592L326.4 131.869L318.691 137.173L321.054 141.423C318.873 143.689 317.143 146.349 315.954 149.26L311.134 148.835L309.434 158.024L314.084 159.35C314.157 162.495 314.823 165.597 316.047 168.495L312.324 171.607L317.628 179.308L321.878 176.945C324.148 179.125 326.81 180.855 329.724 182.045L329.273 186.855ZM326.766 156.468C327.219 154.004 328.394 151.73 330.14 149.934C331.887 148.137 334.127 146.899 336.577 146.376C339.027 145.853 341.578 146.069 343.905 146.995C346.233 147.922 348.234 149.518 349.654 151.582C351.075 153.646 351.851 156.085 351.885 158.59C351.919 161.095 351.209 163.554 349.845 165.656C348.482 167.758 346.525 169.408 344.223 170.398C341.922 171.387 339.378 171.672 336.915 171.215C333.615 170.602 330.693 168.705 328.791 165.94C326.888 163.176 326.16 159.769 326.766 156.468Z" fill="#F0F0F0"/>
<path d="M71.1451 213.044L78.1491 214.345L79.1606 210.8C81.554 210.739 83.915 210.232 86.1221 209.304L88.4936 212.135L94.3671 208.097L92.5651 204.85C94.2228 203.129 95.5407 201.11 96.4496 198.9L100.122 199.223L101.414 192.219L97.8691 191.25C97.8164 188.853 97.3087 186.488 96.3731 184.28L99.2121 181.909L95.1661 176.043L91.9446 177.846C90.2216 176.188 88.2035 174.868 85.9946 173.952L86.3261 170.289L79.3136 168.988L78.3106 172.533C75.9145 172.594 73.5507 173.101 71.3406 174.029L68.9776 171.199L63.1041 175.236L64.9061 178.466C63.2476 180.187 61.9296 182.205 61.0216 184.416L57.3496 184.093L56.0576 191.097L59.5766 192.1C59.6294 194.497 60.137 196.862 61.0726 199.07L58.2336 201.45L62.2711 207.315L65.5011 205.522C67.2253 207.176 69.2432 208.493 71.4511 209.406L71.1451 213.044ZM69.2411 189.899C69.5888 188.024 70.4844 186.295 71.8145 184.93C73.1447 183.565 74.8498 182.625 76.7142 182.229C78.5786 181.832 80.5187 181.998 82.2892 182.704C84.0596 183.41 85.581 184.625 86.661 186.196C87.7409 187.766 88.331 189.622 88.3565 191.528C88.3821 193.434 87.842 195.304 86.8045 196.903C85.767 198.502 84.2788 199.758 82.5279 200.511C80.777 201.264 78.842 201.482 76.9676 201.136C74.4535 200.669 72.2275 199.223 70.7787 197.116C69.3299 195.009 68.7769 192.413 69.2411 189.899Z" fill="#F0F0F0"/>
<path d="M196.223 56.95L201.527 57.9275L202.3 55.25C204.116 55.2137 205.907 54.8299 207.579 54.1195L209.372 56.27L213.809 53.21L212.449 50.7705C213.705 49.4611 214.702 47.9271 215.39 46.2485L218.161 46.495L219.139 41.1995L216.461 40.4345C216.417 38.6227 216.033 36.8352 215.331 35.1645L217.473 33.371L214.421 28.934L211.982 30.294C210.672 29.0385 209.138 28.0408 207.46 27.353L207.706 24.582L202.402 23.596L201.646 26.282C199.833 26.3176 198.044 26.7014 196.376 27.4125L194.582 25.262L190.137 28.322L191.505 30.7615C190.247 32.069 189.249 33.6035 188.564 35.2835L185.785 35.037L184.807 40.3325L187.485 41.0975C187.528 42.9095 187.911 44.6973 188.615 46.3675L186.473 48.161L189.533 52.598L191.973 51.238C193.278 52.4947 194.809 53.4926 196.486 54.179L196.223 56.95ZM194.786 39.4315C195.049 38.0134 195.726 36.705 196.732 35.6717C197.738 34.6385 199.028 33.9267 200.439 33.6264C201.849 33.3261 203.317 33.4507 204.657 33.9846C205.997 34.5185 207.148 35.4376 207.966 36.6258C208.783 37.814 209.23 39.2178 209.25 40.6599C209.269 42.1019 208.861 43.5175 208.076 44.7275C207.292 45.9376 206.166 46.8878 204.841 47.4581C203.516 48.0284 202.052 48.1931 200.634 47.9315C198.735 47.5803 197.052 46.4898 195.956 44.8994C194.859 43.3091 194.439 41.3487 194.786 39.4485V39.4315Z" fill="#F0F0F0"/>
<path d="M284.316 99.6115L287.852 100.257L288.354 98.4725C289.564 98.4437 290.758 98.1871 291.873 97.716L293.071 99.1525L296.029 97.1125L295.12 95.4805C295.958 94.6101 296.624 93.5892 297.083 92.4715L298.936 92.633L299.591 89.097L297.797 88.587C297.771 87.3802 297.517 86.1893 297.049 85.0765L298.477 83.878L296.437 80.92L294.814 81.8295C293.939 80.993 292.916 80.3272 291.796 79.866L291.958 78.013L288.422 77.3585L287.92 79.152C286.711 79.1779 285.517 79.4316 284.401 79.9L283.203 78.472L280.245 80.512L281.154 82.1355C280.318 83.0105 279.652 84.0338 279.191 85.153L277.338 84.9915L276.692 88.519L278.477 89.029C278.502 90.2396 278.758 91.4342 279.233 92.548L277.797 93.738L279.837 96.7045L281.469 95.795C282.339 96.6331 283.36 97.2993 284.478 97.7585L284.316 99.6115ZM283.356 87.924C283.53 86.9762 283.982 86.1015 284.653 85.4104C285.325 84.7193 286.186 84.243 287.129 84.0417C288.071 83.8404 289.052 83.9232 289.947 84.2796C290.843 84.6359 291.612 85.2499 292.158 86.0437C292.705 86.8375 293.003 87.7756 293.016 88.7391C293.029 89.7027 292.756 90.6484 292.231 91.4567C291.707 92.265 290.954 92.8994 290.069 93.2798C289.183 93.6602 288.205 93.7693 287.257 93.5935C285.989 93.3581 284.865 92.6288 284.134 91.5658C283.402 90.5029 283.123 89.1931 283.356 87.924Z" fill="#F0F0F0"/>
<path d="M121.338 57.0095L124.874 57.664L125.375 55.879C126.585 55.846 127.778 55.5896 128.894 55.1225L130.093 56.5505L133.051 54.5105L132.141 52.887C132.979 52.0134 133.645 50.9897 134.105 49.8695L135.958 50.0395L136.612 46.5035L134.819 45.9935C134.792 44.784 134.538 43.5903 134.071 42.4745L135.499 41.2845L133.459 38.318L131.827 39.2275C130.958 38.3892 129.936 37.7255 128.818 37.2725L128.979 35.4195L125.443 34.765L124.95 36.55C123.74 36.5788 122.546 36.8354 121.431 37.3065L120.233 35.8785L117.3 37.91L118.21 39.542C117.371 40.4156 116.705 41.4393 116.246 42.5595L114.393 42.3895L113.747 45.9255L115.532 46.4355C115.557 47.6434 115.814 48.8352 116.289 49.946L114.852 51.1445L116.892 54.111L118.524 53.2015C119.395 54.0369 120.416 54.7002 121.533 55.1565L121.338 57.0095ZM120.377 45.3305C120.551 44.3827 121.003 43.508 121.674 42.8169C122.346 42.1258 123.207 41.6495 124.15 41.4482C125.092 41.2469 126.073 41.3297 126.968 41.6861C127.864 42.0424 128.633 42.6564 129.18 43.4502C129.726 44.244 130.024 45.1821 130.037 46.1456C130.05 47.1092 129.777 48.0549 129.252 48.8632C128.728 49.6715 127.975 50.3059 127.09 50.6863C126.204 51.0667 125.226 51.1758 124.279 51C123.01 50.7646 121.886 50.0353 121.155 48.9723C120.424 47.9094 120.144 46.5996 120.377 45.3305Z" fill="#F0F0F0"/>
<path d="M278.477 245.446C278.522 247.557 278.969 249.64 279.794 251.583L277.295 253.674L280.857 258.834L283.696 257.252C285.221 258.706 287.006 259.859 288.957 260.652L288.668 263.883L294.839 265.022L295.689 261.902C297.796 261.848 299.875 261.401 301.818 260.584L303.909 263.075L309.077 259.522L307.53 256.7C308.984 255.176 310.138 253.391 310.93 251.438L314.16 251.727L315.35 245.565L312.23 244.715C312.185 242.604 311.738 240.521 310.913 238.578L313.412 236.496L309.859 231.327L306.977 232.9C305.458 231.444 303.675 230.29 301.724 229.5L302.005 226.261L295.842 225.122L294.992 228.242C292.883 228.296 290.802 228.743 288.855 229.559L286.764 227.069L281.596 230.622L283.186 233.461C281.732 234.985 280.578 236.77 279.786 238.722L276.556 238.434L275.4 244.562L278.477 245.446ZM286.977 243.525C287.28 241.87 288.067 240.342 289.239 239.135C290.411 237.928 291.914 237.095 293.56 236.743C295.205 236.391 296.918 236.535 298.481 237.157C300.044 237.78 301.388 238.852 302.341 240.238C303.295 241.624 303.815 243.262 303.837 244.944C303.859 246.627 303.381 248.278 302.464 249.688C301.547 251.099 300.232 252.205 298.686 252.868C297.139 253.531 295.431 253.72 293.777 253.41C291.568 252.996 289.613 251.722 288.34 249.87C287.068 248.017 286.58 245.736 286.985 243.525H286.977Z" fill="#F0F0F0"/>
<path d="M331.866 208.845L322.371 212.322L331.866 215.772V219.3L318.266 214.14V210.434L331.866 205.275V208.845Z" fill="#E0E0E0"/>
<path d="M342.082 198.288H346.052L336.642 225.156H332.673L342.082 198.288Z" fill="#E0E0E0"/>
<path d="M360.145 210.468V214.2L346.545 219.36V215.798L356.039 212.347L346.545 208.871V205.335L360.145 210.468Z" fill="#E0E0E0"/>
<path d="M95.9141 254.218C97.2741 254.626 97.9031 255.485 97.9031 257.533V262.267C97.8634 262.562 97.8916 262.861 97.9855 263.143C98.0794 263.425 98.2366 263.682 98.445 263.893C98.6534 264.105 98.9075 264.266 99.1878 264.364C99.468 264.463 99.7671 264.496 100.062 264.461H100.598V268.073H98.8976C95.1916 268.073 93.2961 266.178 93.2961 262.769V257.414C93.2961 256.462 92.7946 256.02 91.9956 256.02H91.0181V252.45H91.9956C92.7946 252.45 93.2961 252.008 93.2961 251.056V245.65C93.2961 242.25 95.1916 240.354 98.8976 240.354H100.598V243.95H100.062C99.7671 243.915 99.468 243.948 99.1878 244.046C98.9075 244.144 98.6534 244.306 98.445 244.517C98.2366 244.729 98.0794 244.985 97.9855 245.267C97.8916 245.549 97.8634 245.849 97.9031 246.143V250.877C97.9031 252.943 97.2741 253.801 95.9141 254.218Z" fill="#E0E0E0"/>
<path d="M119.476 252.45V256.062H118.498C118.315 256.046 118.13 256.072 117.958 256.137C117.786 256.203 117.631 256.307 117.505 256.441C117.379 256.575 117.285 256.737 117.23 256.913C117.176 257.088 117.162 257.274 117.189 257.457V262.811C117.189 266.211 115.294 268.115 111.596 268.115H109.896V264.503H110.432C110.727 264.538 111.026 264.505 111.306 264.407C111.586 264.309 111.841 264.147 112.049 263.936C112.257 263.724 112.415 263.467 112.508 263.186C112.602 262.904 112.631 262.604 112.591 262.31V257.55C112.591 255.501 113.211 254.643 114.571 254.235C113.211 253.819 112.591 252.96 112.591 250.911V246.16C112.634 245.863 112.608 245.56 112.514 245.274C112.421 244.989 112.262 244.729 112.052 244.515C111.841 244.301 111.583 244.138 111.299 244.04C111.016 243.942 110.713 243.911 110.415 243.95H109.879V240.337H111.579C115.277 240.337 117.172 242.233 117.172 245.633V250.997C117.145 251.179 117.159 251.365 117.213 251.54C117.268 251.716 117.362 251.878 117.488 252.012C117.614 252.146 117.769 252.25 117.941 252.316C118.113 252.381 118.298 252.407 118.481 252.39L119.476 252.45Z" fill="#E0E0E0"/>
<path d="M83.7163 81.7105C83.7163 75.8795 88.1873 71.7145 94.2053 71.7145C95.7003 71.6479 97.1912 71.919 98.567 72.5076C99.9429 73.0962 101.169 73.9872 102.153 75.1145L99.2798 77.758C98.6905 77.0431 97.9489 76.4691 97.1091 76.0779C96.2693 75.6867 95.3527 75.4882 94.4263 75.497C93.595 75.4662 92.7659 75.6033 91.9888 75.9002C91.2116 76.1971 90.5023 76.6476 89.9033 77.2248C89.3042 77.8021 88.8277 78.4942 88.5022 79.2598C88.1768 80.0254 88.009 80.8488 88.009 81.6808C88.009 82.5127 88.1768 83.336 88.5022 84.1017C88.8277 84.8673 89.3042 85.5594 89.9033 86.1367C90.5023 86.7139 91.2116 87.1644 91.9888 87.4613C92.7659 87.7582 93.595 87.8953 94.4263 87.8645C95.3563 87.8747 96.2765 87.6735 97.1173 87.2759C97.9582 86.8783 98.6976 86.2948 99.2798 85.5695L102.153 88.2215C101.173 89.3639 99.9456 90.2684 98.5642 90.8663C97.1828 91.4642 95.6835 91.7399 94.1798 91.6725C88.1873 91.698 83.7163 87.55 83.7163 81.7105Z" fill="#E0E0E0"/>
<path d="M117.564 83.3935H112.761V88.0855H109.2V83.3935H104.431V79.9935H109.2V75.293H112.761V79.9935H117.564V83.3935Z" fill="#E0E0E0"/>
<path d="M134.3 83.3935H129.498V88.0855H125.936V83.3935H121.159V79.9935H125.936V75.293H129.498V79.9935H134.3V83.3935Z" fill="#E0E0E0"/>
<path d="M154.751 179.036L157.539 175.686C158.72 177.267 160.029 178.075 161.576 178.075C163.599 178.075 164.653 176.86 164.653 174.471V164.135H157.003V160.098H169.643V174.19C169.643 179.562 166.94 182.206 161.814 182.206C160.473 182.256 159.137 181.997 157.912 181.447C156.687 180.897 155.605 180.072 154.751 179.036Z" fill="#E0E0E0"/>
<path d="M172.669 180.276L174.25 176.8C176.007 177.846 178.011 178.404 180.055 178.415C182.291 178.415 183.132 177.828 183.132 176.893C183.132 174.165 173.043 176.953 173.043 170.281C173.043 167.11 175.899 164.875 180.769 164.875C183.001 164.831 185.21 165.333 187.204 166.337L185.589 169.788C184.12 168.955 182.458 168.524 180.769 168.538C178.602 168.538 177.667 169.227 177.667 170.094C177.667 172.95 187.756 170.187 187.756 176.766C187.756 179.877 184.875 182.078 179.868 182.078C177.352 182.121 174.869 181.5 172.669 180.276Z" fill="#E0E0E0"/>
<path d="M212.5 316.676C303.52 316.676 377.306 312.368 377.306 307.054C377.306 301.74 303.52 297.432 212.5 297.432C121.48 297.432 47.6934 301.74 47.6934 307.054C47.6934 312.368 121.48 316.676 212.5 316.676Z" fill="#F5F5F5"/>
<path d="M277.04 32.3085H251.685C250.619 32.3085 249.755 33.1724 249.755 34.238V59.5935C249.755 60.6591 250.619 61.523 251.685 61.523H277.04C278.106 61.523 278.97 60.6591 278.97 59.5935V34.238C278.97 33.1724 278.106 32.3085 277.04 32.3085Z" fill="#0E53BE"/>
<g opacity="0.4">
<path opacity="0.4" d="M277.04 32.3085H251.685C250.619 32.3085 249.755 33.1724 249.755 34.238V59.5935C249.755 60.6591 250.619 61.523 251.685 61.523H277.04C278.106 61.523 278.97 60.6591 278.97 59.5935V34.238C278.97 33.1724 278.106 32.3085 277.04 32.3085Z" fill="#E8E8E8"/>
</g>
<path d="M260.44 45.373L255.34 47.2345L260.44 49.079V51L253.198 48.2375V46.2655L260.44 43.503V45.373Z" fill="#E8E8E8"/>
<path d="M265.897 39.746H268.013L262.981 54.0855H260.865L265.897 39.746Z" fill="#E8E8E8"/>
<path d="M275.527 46.2485V48.2205L268.285 51V49.096L273.385 47.2515L268.285 45.39V43.503L275.527 46.2485Z" fill="#E8E8E8"/>
<path d="M256.19 66.861V73.95H254.55V71.0345H251.32V73.95H249.679V66.8525H251.32V69.7H254.55V66.9035L256.19 66.861Z" fill="#263238"/>
<path d="M259.352 68.1955H257.074V66.861H263.262V68.1955H260.992V73.95H259.352V68.1955Z" fill="#263238"/>
<path d="M270.614 73.95V69.7L268.523 73.2105H267.75L265.667 69.8105V73.95H264.129V66.8525H265.489L268.141 71.264L270.759 66.8525H272.11V73.95H270.614Z" fill="#263238"/>
<path d="M273.844 66.861H275.485V72.6155H279.046V73.95H273.844V66.861Z" fill="#263238"/>
<g opacity="0.6">
<path opacity="0.6" d="M256.19 66.861V73.95H254.55V71.0345H251.32V73.95H249.679V66.8525H251.32V69.7H254.55V66.9035L256.19 66.861Z" fill="#E8E8E8"/>
<path opacity="0.6" d="M259.352 68.1955H257.074V66.861H263.262V68.1955H260.992V73.95H259.352V68.1955Z" fill="#E8E8E8"/>
<path opacity="0.6" d="M270.614 73.95V69.7L268.523 73.2105H267.75L265.667 69.8105V73.95H264.129V66.8525H265.489L268.141 71.264L270.759 66.8525H272.11V73.95H270.614Z" fill="#E8E8E8"/>
<path opacity="0.6" d="M273.844 66.861H275.485V72.6155H279.046V73.95H273.844V66.861Z" fill="#E8E8E8"/>
</g>
<path d="M339.524 47.8805H314.169C313.103 47.8805 312.239 48.7444 312.239 49.81V75.1655C312.239 76.2311 313.103 77.095 314.169 77.095H339.524C340.59 77.095 341.454 76.2311 341.454 75.1655V49.81C341.454 48.7444 340.59 47.8805 339.524 47.8805Z" fill="#0E53BE"/>
<g opacity="0.4">
<path opacity="0.4" d="M339.524 47.8805H314.169C313.103 47.8805 312.239 48.7444 312.239 49.81V75.1655C312.239 76.2311 313.103 77.095 314.169 77.095H339.524C340.59 77.095 341.454 76.2311 341.454 75.1655V49.81C341.454 48.7444 340.59 47.8805 339.524 47.8805Z" fill="#E8E8E8"/>
</g>
<path d="M322.056 62.4835C322.753 62.696 323.076 63.138 323.076 64.1835V66.623C323.057 66.7742 323.073 66.9277 323.122 67.072C323.171 67.2162 323.252 67.3474 323.36 67.4556C323.467 67.5637 323.597 67.646 323.741 67.6961C323.885 67.7463 324.039 67.763 324.19 67.745H324.462V69.6065H323.612C321.708 69.6065 320.739 68.629 320.739 66.878V64.124C320.752 64.0309 320.744 63.936 320.715 63.8464C320.687 63.7568 320.639 63.6747 320.574 63.6062C320.51 63.5377 320.431 63.4845 320.343 63.4506C320.255 63.4166 320.161 63.4028 320.067 63.41H319.566V61.5485H320.067C320.161 61.5558 320.255 61.5419 320.343 61.508C320.431 61.474 320.51 61.4208 320.574 61.3523C320.639 61.2838 320.687 61.2017 320.715 61.1121C320.744 61.0225 320.752 60.9277 320.739 60.8345V58.0805C320.739 56.3295 321.708 55.352 323.612 55.352H324.462V57.2135H324.19C324.039 57.1955 323.885 57.2122 323.741 57.2624C323.597 57.3125 323.467 57.3948 323.36 57.503C323.252 57.6111 323.171 57.7423 323.122 57.8866C323.073 58.0308 323.057 58.1844 323.076 58.3355V60.775C323.076 61.829 322.753 62.271 322.056 62.4835Z" fill="#E8E8E8"/>
<path d="M334.161 61.557V63.4185H333.659C333.565 63.4112 333.471 63.4251 333.384 63.4591C333.296 63.493 333.217 63.5462 333.152 63.6147C333.088 63.6832 333.04 63.7653 333.011 63.8549C332.983 63.9445 332.975 64.0394 332.988 64.1325V66.8865C332.988 68.6375 332.01 69.615 330.115 69.615H329.265V67.7535H329.537C329.688 67.7715 329.841 67.7548 329.985 67.7046C330.129 67.6545 330.26 67.5722 330.367 67.464C330.474 67.3559 330.556 67.2247 330.605 67.0805C330.654 66.9362 330.669 66.7827 330.65 66.6315V64.192C330.65 63.138 330.965 62.696 331.67 62.492C330.965 62.2795 330.65 61.8375 330.65 60.792V58.3525C330.669 58.2013 330.654 58.0478 330.605 57.9035C330.556 57.7593 330.474 57.6281 330.367 57.52C330.26 57.4118 330.129 57.3295 329.985 57.2794C329.841 57.2292 329.688 57.2125 329.537 57.2305H329.265V55.369H330.115C332.01 55.369 332.988 56.3465 332.988 58.0975V60.8515C332.975 60.9446 332.983 61.0395 333.011 61.1291C333.04 61.2187 333.088 61.3008 333.152 61.3693C333.217 61.4378 333.296 61.491 333.384 61.5249C333.471 61.5589 333.565 61.5728 333.659 61.5655L334.161 61.557Z" fill="#E8E8E8"/>
<path d="M317.05 86.088C317.092 85.3178 317.361 84.5773 317.823 83.9596C318.285 83.3418 318.919 82.8746 319.646 82.6165C320.373 82.3585 321.16 82.3212 321.908 82.5093C322.656 82.6975 323.332 83.1027 323.85 83.674L322.796 84.6515C322.581 84.3848 322.309 84.1699 322 84.0228C321.691 83.8756 321.353 83.8 321.011 83.8015C320.701 83.7825 320.39 83.8272 320.097 83.9329C319.805 84.0386 319.537 84.203 319.311 84.416C319.084 84.629 318.904 84.8861 318.781 85.1714C318.657 85.4568 318.594 85.7644 318.594 86.0752C318.594 86.3861 318.657 86.6937 318.781 86.979C318.904 87.2644 319.084 87.5215 319.311 87.7345C319.537 87.9475 319.805 88.1119 320.097 88.2176C320.39 88.3232 320.701 88.368 321.011 88.349C321.353 88.3499 321.691 88.274 322 88.1269C322.309 87.9798 322.581 87.7652 322.796 87.499L323.85 88.468C323.334 89.0429 322.659 89.4517 321.91 89.6426C321.162 89.8335 320.373 89.7979 319.645 89.5403C318.917 89.2826 318.281 88.8146 317.819 88.1955C317.357 87.5763 317.089 86.834 317.05 86.0625V86.088Z" fill="#263238"/>
<path d="M324.292 88.944L324.845 87.703C325.537 88.1754 326.353 88.4326 327.19 88.4425C328.159 88.4425 328.559 88.1195 328.559 87.686C328.559 86.3515 324.428 87.2695 324.428 84.6345C324.428 83.4275 325.406 82.416 327.42 82.416C328.283 82.4015 329.134 82.6187 329.885 83.045L329.384 84.2945C328.785 83.9439 328.105 83.7536 327.412 83.742C326.443 83.742 326.06 84.099 326.06 84.5495C326.06 85.8585 330.191 84.9575 330.191 87.5585C330.191 88.7485 329.205 89.76 327.182 89.76C326.159 89.7842 325.152 89.4999 324.292 88.944Z" fill="#263238"/>
<path d="M330.76 88.944L331.321 87.703C332.011 88.1791 332.829 88.4368 333.667 88.4425C334.636 88.4425 335.036 88.1195 335.036 87.686C335.036 86.3515 330.905 87.2695 330.905 84.6345C330.905 83.4275 331.882 82.416 333.897 82.416C334.76 82.4028 335.611 82.6199 336.362 83.045L335.852 84.2945C335.256 83.9432 334.58 83.7528 333.888 83.742C332.911 83.742 332.537 84.099 332.537 84.5495C332.537 85.8585 336.668 84.9575 336.668 87.5585C336.668 88.7485 335.682 89.76 333.65 89.76C332.627 89.7842 331.62 89.4999 330.76 88.944Z" fill="#263238"/>
<g opacity="0.6">
<path opacity="0.6" d="M317.05 86.088C317.092 85.3178 317.361 84.5773 317.823 83.9596C318.285 83.3418 318.919 82.8746 319.646 82.6165C320.373 82.3585 321.16 82.3212 321.908 82.5093C322.656 82.6975 323.332 83.1027 323.85 83.674L322.796 84.6515C322.581 84.3848 322.309 84.1699 322 84.0228C321.691 83.8756 321.353 83.8 321.011 83.8015C320.701 83.7825 320.39 83.8272 320.097 83.9329C319.805 84.0386 319.537 84.203 319.311 84.416C319.084 84.629 318.904 84.8861 318.781 85.1714C318.657 85.4568 318.594 85.7644 318.594 86.0752C318.594 86.3861 318.657 86.6937 318.781 86.979C318.904 87.2644 319.084 87.5215 319.311 87.7345C319.537 87.9475 319.805 88.1119 320.097 88.2176C320.39 88.3232 320.701 88.368 321.011 88.349C321.353 88.3499 321.691 88.274 322 88.1269C322.309 87.9798 322.581 87.7652 322.796 87.499L323.85 88.468C323.334 89.0429 322.659 89.4517 321.91 89.6426C321.162 89.8335 320.373 89.7979 319.645 89.5403C318.917 89.2826 318.281 88.8146 317.819 88.1955C317.357 87.5763 317.089 86.834 317.05 86.0625V86.088Z" fill="#E8E8E8"/>
<path opacity="0.6" d="M324.292 88.944L324.845 87.703C325.537 88.1753 326.353 88.4326 327.19 88.4425C328.159 88.4425 328.559 88.1195 328.559 87.686C328.559 86.3515 324.428 87.2695 324.428 84.6345C324.428 83.4275 325.406 82.416 327.42 82.416C328.283 82.4015 329.134 82.6187 329.885 83.045L329.384 84.2945C328.785 83.9439 328.105 83.7536 327.412 83.742C326.443 83.742 326.06 84.099 326.06 84.5495C326.06 85.8585 330.191 84.9575 330.191 87.5585C330.191 88.7485 329.205 89.76 327.182 89.76C326.159 89.7842 325.152 89.4999 324.292 88.944Z" fill="#E8E8E8"/>
<path opacity="0.6" d="M330.76 88.944L331.321 87.703C332.011 88.1791 332.829 88.4367 333.667 88.4425C334.636 88.4425 335.036 88.1195 335.036 87.686C335.036 86.3515 330.905 87.2695 330.905 84.6345C330.905 83.4275 331.882 82.416 333.897 82.416C334.76 82.4028 335.611 82.6199 336.362 83.045L335.852 84.2945C335.256 83.9432 334.58 83.7528 333.888 83.742C332.911 83.742 332.537 84.099 332.537 84.5495C332.537 85.8585 336.668 84.9575 336.668 87.5585C336.668 88.7485 335.682 89.76 333.65 89.76C332.627 89.7842 331.62 89.4999 330.76 88.944Z" fill="#E8E8E8"/>
</g>
<path d="M230.401 45.033H126.268V120.411H230.401V45.033Z" fill="black"/>
<path opacity="0.9" d="M230.401 45.033H126.268V120.411H230.401V45.033Z" fill="#E8E8E8"/>
<path opacity="0.1" d="M140.769 45.033H126.268V120.411H140.769V45.033Z" fill="black"/>
<path d="M230.401 45.033H126.268V52.0795H230.401V45.033Z" fill="#0E53BE"/>
<g opacity="0.2">
<path opacity="0.2" d="M168.054 62.713H149.09C148.865 62.713 148.649 62.6234 148.489 62.464C148.33 62.3046 148.24 62.0884 148.24 61.863C148.24 61.6376 148.33 61.4213 148.489 61.2619C148.649 61.1025 148.865 61.013 149.09 61.013H168.054C168.279 61.013 168.495 61.1025 168.655 61.2619C168.814 61.4213 168.904 61.6376 168.904 61.863C168.904 62.0884 168.814 62.3046 168.655 62.464C168.495 62.6234 168.279 62.713 168.054 62.713Z" fill="black"/>
<path opacity="0.2" d="M209.95 62.713H173.102C172.877 62.713 172.661 62.6234 172.501 62.464C172.342 62.3046 172.252 62.0884 172.252 61.863C172.252 61.6376 172.342 61.4213 172.501 61.2619C172.661 61.1025 172.877 61.013 173.102 61.013H209.95C210.175 61.013 210.392 61.1025 210.551 61.2619C210.71 61.4213 210.8 61.6376 210.8 61.863C210.8 62.0884 210.71 62.3046 210.551 62.464C210.392 62.6234 210.175 62.713 209.95 62.713Z" fill="black"/>
<path opacity="0.2" d="M201.178 68.2635H151.64C151.415 68.2635 151.198 68.1739 151.039 68.0145C150.88 67.8551 150.79 67.6389 150.79 67.4135C150.79 67.188 150.88 66.9718 151.039 66.8124C151.198 66.653 151.415 66.5635 151.64 66.5635H201.178C201.403 66.5635 201.62 66.653 201.779 66.8124C201.938 66.9718 202.028 67.188 202.028 67.4135C202.028 67.6389 201.938 67.8551 201.779 68.0145C201.62 68.1739 201.403 68.2635 201.178 68.2635Z" fill="black"/>
<path opacity="0.2" d="M180.999 73.8055H149.09C148.865 73.8055 148.649 73.7159 148.489 73.5565C148.33 73.3971 148.24 73.1809 148.24 72.9555C148.24 72.7301 148.33 72.5138 148.489 72.3544C148.649 72.195 148.865 72.1055 149.09 72.1055H180.999C181.225 72.1055 181.441 72.195 181.6 72.3544C181.76 72.5138 181.849 72.7301 181.849 72.9555C181.849 73.1809 181.76 73.3971 181.6 73.5565C181.441 73.7159 181.225 73.8055 180.999 73.8055Z" fill="black"/>
<path opacity="0.2" d="M209.95 73.8055H187.085C186.859 73.8055 186.643 73.7159 186.484 73.5565C186.324 73.3971 186.235 73.1809 186.235 72.9555C186.235 72.7301 186.324 72.5138 186.484 72.3544C186.643 72.195 186.859 72.1055 187.085 72.1055H209.95C210.175 72.1055 210.391 72.195 210.551 72.3544C210.71 72.5138 210.8 72.7301 210.8 72.9555C210.8 73.1809 210.71 73.3971 210.551 73.5565C210.391 73.7159 210.175 73.8055 209.95 73.8055Z" fill="black"/>
<path opacity="0.2" d="M166.711 79.356H149.09C148.865 79.356 148.649 79.2664 148.489 79.107C148.33 78.9476 148.24 78.7314 148.24 78.506C148.24 78.2805 148.33 78.0643 148.489 77.9049C148.649 77.7455 148.865 77.656 149.09 77.656H166.711C166.936 77.656 167.152 77.7455 167.312 77.9049C167.471 78.0643 167.561 78.2805 167.561 78.506C167.561 78.7314 167.471 78.9476 167.312 79.107C167.152 79.2664 166.936 79.356 166.711 79.356Z" fill="black"/>
<path opacity="0.2" d="M200.167 79.356H172.423C172.197 79.356 171.981 79.2664 171.822 79.107C171.662 78.9476 171.573 78.7314 171.573 78.506C171.573 78.2805 171.662 78.0643 171.822 77.9049C171.981 77.7455 172.197 77.656 172.423 77.656H200.167C200.392 77.656 200.608 77.7455 200.768 77.9049C200.927 78.0643 201.017 78.2805 201.017 78.506C201.017 78.7314 200.927 78.9476 200.768 79.107C200.608 79.2664 200.392 79.356 200.167 79.356Z" fill="black"/>
<path opacity="0.2" d="M175.347 84.9065H151.64C151.415 84.9065 151.198 84.8169 151.039 84.6575C150.88 84.4981 150.79 84.2819 150.79 84.0565C150.79 83.831 150.88 83.6148 151.039 83.4554C151.198 83.296 151.415 83.2065 151.64 83.2065H175.347C175.572 83.2065 175.788 83.296 175.948 83.4554C176.107 83.6148 176.197 83.831 176.197 84.0565C176.197 84.2819 176.107 84.4981 175.948 84.6575C175.788 84.8169 175.572 84.9065 175.347 84.9065Z" fill="black"/>
<path opacity="0.2" d="M178.313 90.457H151.64C151.415 90.457 151.198 90.3674 151.039 90.208C150.88 90.0486 150.79 89.8324 150.79 89.607C150.79 89.3816 150.88 89.1654 151.039 89.0059C151.198 88.8465 151.415 88.757 151.64 88.757H178.313C178.538 88.757 178.755 88.8465 178.914 89.0059C179.073 89.1654 179.163 89.3816 179.163 89.607C179.163 89.8324 179.073 90.0486 178.914 90.208C178.755 90.3674 178.538 90.457 178.313 90.457Z" fill="black"/>
<path opacity="0.2" d="M209.95 90.457H182.75C182.524 90.457 182.308 90.3674 182.149 90.208C181.989 90.0486 181.9 89.8324 181.9 89.607C181.9 89.3816 181.989 89.1654 182.149 89.0059C182.308 88.8465 182.524 88.757 182.75 88.757H209.95C210.175 88.757 210.392 88.8465 210.551 89.0059C210.71 89.1654 210.8 89.3816 210.8 89.607C210.8 89.8324 210.71 90.0486 210.551 90.208C210.392 90.3674 210.175 90.457 209.95 90.457Z" fill="black"/>
<path opacity="0.2" d="M164.356 95.999H149.056C148.831 95.999 148.614 95.9095 148.455 95.7501C148.296 95.5906 148.206 95.3744 148.206 95.149C148.206 94.9236 148.296 94.7074 148.455 94.548C148.614 94.3886 148.831 94.299 149.056 94.299H164.356C164.581 94.299 164.798 94.3886 164.957 94.548C165.117 94.7074 165.206 94.9236 165.206 95.149C165.206 95.3744 165.117 95.5906 164.957 95.7501C164.798 95.9095 164.581 95.999 164.356 95.999Z" fill="black"/>
<path opacity="0.2" d="M209.95 95.999H169.567C169.341 95.999 169.125 95.9095 168.966 95.7501C168.806 95.5906 168.717 95.3744 168.717 95.149C168.717 94.9236 168.806 94.7074 168.966 94.548C169.125 94.3886 169.341 94.299 169.567 94.299H209.95C210.176 94.299 210.392 94.3886 210.551 94.548C210.711 94.7074 210.8 94.9236 210.8 95.149C210.8 95.3744 210.711 95.5906 210.551 95.7501C210.392 95.9095 210.176 95.999 209.95 95.999Z" fill="black"/>
<path opacity="0.2" d="M178.143 101.55H151.64C151.415 101.55 151.198 101.46 151.039 101.301C150.88 101.141 150.79 100.925 150.79 100.7C150.79 100.474 150.88 100.258 151.039 100.098C151.198 99.9391 151.415 99.8495 151.64 99.8495H178.143C178.368 99.8495 178.585 99.9391 178.744 100.098C178.903 100.258 178.993 100.474 178.993 100.7C178.993 100.925 178.903 101.141 178.744 101.301C178.585 101.46 178.368 101.55 178.143 101.55Z" fill="black"/>
<path opacity="0.2" d="M198.994 101.55H181.841C181.615 101.55 181.399 101.46 181.24 101.301C181.08 101.141 180.991 100.925 180.991 100.7C180.991 100.474 181.08 100.258 181.24 100.098C181.399 99.9391 181.615 99.8495 181.841 99.8495H198.994C199.219 99.8495 199.435 99.9391 199.595 100.098C199.754 100.258 199.844 100.474 199.844 100.7C199.844 100.925 199.754 101.141 199.595 101.301C199.435 101.46 199.219 101.55 198.994 101.55Z" fill="black"/>
<path opacity="0.2" d="M182.147 107.1H151.64C151.415 107.1 151.198 107.01 151.039 106.851C150.88 106.692 150.79 106.475 150.79 106.25C150.79 106.025 150.88 105.808 151.039 105.649C151.198 105.49 151.415 105.4 151.64 105.4H182.147C182.372 105.4 182.588 105.49 182.748 105.649C182.907 105.808 182.997 106.025 182.997 106.25C182.997 106.475 182.907 106.692 182.748 106.851C182.588 107.01 182.372 107.1 182.147 107.1Z" fill="black"/>
</g>
<path opacity="0.4" d="M225.922 50.0565C226.725 50.0565 227.375 49.4057 227.375 48.603C227.375 47.8002 226.725 47.1495 225.922 47.1495C225.119 47.1495 224.468 47.8002 224.468 48.603C224.468 49.4057 225.119 50.0565 225.922 50.0565Z" fill="#E8E8E8"/>
<path opacity="0.4" d="M220.813 50.0565C221.616 50.0565 222.266 49.4057 222.266 48.603C222.266 47.8002 221.616 47.1495 220.813 47.1495C220.01 47.1495 219.359 47.8002 219.359 48.603C219.359 49.4057 220.01 50.0565 220.813 50.0565Z" fill="#E8E8E8"/>
<path opacity="0.4" d="M215.713 50.0565C216.516 50.0565 217.167 49.4057 217.167 48.603C217.167 47.8002 216.516 47.1495 215.713 47.1495C214.911 47.1495 214.26 47.8002 214.26 48.603C214.26 49.4057 214.911 50.0565 215.713 50.0565Z" fill="#E8E8E8"/>
<g opacity="0.2">
<path opacity="0.2" d="M133.773 62.713C133.548 62.713 133.332 62.6234 133.172 62.464C133.013 62.3046 132.923 62.0884 132.923 61.863C132.923 61.6376 133.013 61.4213 133.172 61.2619C133.332 61.1025 133.548 61.013 133.773 61.013C133.999 61.013 134.215 61.1025 134.374 61.2619C134.534 61.4213 134.623 61.6376 134.623 61.863C134.623 62.0884 134.534 62.3046 134.374 62.464C134.215 62.6234 133.999 62.713 133.773 62.713Z" fill="black"/>
<path opacity="0.2" d="M133.773 68.2635C133.548 68.2635 133.332 68.1739 133.172 68.0145C133.013 67.8551 132.923 67.6389 132.923 67.4135C132.923 67.188 133.013 66.9718 133.172 66.8124C133.332 66.653 133.548 66.5635 133.773 66.5635C133.999 66.5635 134.215 66.653 134.374 66.8124C134.534 66.9718 134.623 67.188 134.623 67.4135C134.623 67.6389 134.534 67.8551 134.374 68.0145C134.215 68.1739 133.999 68.2635 133.773 68.2635Z" fill="black"/>
<path opacity="0.2" d="M133.773 73.8055C133.548 73.8055 133.332 73.7159 133.172 73.5565C133.013 73.3971 132.923 73.1809 132.923 72.9555C132.923 72.7301 133.013 72.5138 133.172 72.3544C133.332 72.195 133.548 72.1055 133.773 72.1055C133.999 72.1055 134.215 72.195 134.374 72.3544C134.534 72.5138 134.623 72.7301 134.623 72.9555C134.623 73.1809 134.534 73.3971 134.374 73.5565C134.215 73.7159 133.999 73.8055 133.773 73.8055Z" fill="black"/>
<path opacity="0.2" d="M133.773 79.356C133.548 79.356 133.332 79.2664 133.172 79.107C133.013 78.9476 132.923 78.7314 132.923 78.506C132.923 78.2805 133.013 78.0643 133.172 77.9049C133.332 77.7455 133.548 77.656 133.773 77.656C133.999 77.656 134.215 77.7455 134.374 77.9049C134.534 78.0643 134.623 78.2805 134.623 78.506C134.623 78.7314 134.534 78.9476 134.374 79.107C134.215 79.2664 133.999 79.356 133.773 79.356Z" fill="black"/>
<path opacity="0.2" d="M133.773 84.9065C133.548 84.9065 133.332 84.8169 133.172 84.6575C133.013 84.4981 132.923 84.2819 132.923 84.0565C132.923 83.831 133.013 83.6148 133.172 83.4554C133.332 83.296 133.548 83.2065 133.773 83.2065C133.999 83.2065 134.215 83.296 134.374 83.4554C134.534 83.6148 134.623 83.831 134.623 84.0565C134.623 84.2819 134.534 84.4981 134.374 84.6575C134.215 84.8169 133.999 84.9065 133.773 84.9065Z" fill="black"/>
<path opacity="0.2" d="M133.773 90.457C133.548 90.457 133.332 90.3674 133.172 90.208C133.013 90.0486 132.923 89.8324 132.923 89.607C132.923 89.3816 133.013 89.1654 133.172 89.0059C133.332 88.8465 133.548 88.757 133.773 88.757C133.999 88.757 134.215 88.8465 134.374 89.0059C134.534 89.1654 134.623 89.3816 134.623 89.607C134.623 89.8324 134.534 90.0486 134.374 90.208C134.215 90.3674 133.999 90.457 133.773 90.457Z" fill="black"/>
<path opacity="0.2" d="M133.773 95.999C133.548 95.999 133.332 95.9095 133.172 95.7501C133.013 95.5906 132.923 95.3744 132.923 95.149C132.923 94.9236 133.013 94.7074 133.172 94.548C133.332 94.3886 133.548 94.299 133.773 94.299C133.999 94.299 134.215 94.3886 134.374 94.548C134.534 94.7074 134.623 94.9236 134.623 95.149C134.623 95.3744 134.534 95.5906 134.374 95.7501C134.215 95.9095 133.999 95.999 133.773 95.999Z" fill="black"/>
<path opacity="0.2" d="M133.773 101.55C133.548 101.55 133.332 101.46 133.172 101.301C133.013 101.141 132.923 100.925 132.923 100.7C132.923 100.474 133.013 100.258 133.172 100.098C133.332 99.9391 133.548 99.8495 133.773 99.8495C133.999 99.8495 134.215 99.9391 134.374 100.098C134.534 100.258 134.623 100.474 134.623 100.7C134.623 100.925 134.534 101.141 134.374 101.301C134.215 101.46 133.999 101.55 133.773 101.55Z" fill="black"/>
<path opacity="0.2" d="M133.773 107.1C133.548 107.1 133.332 107.01 133.172 106.851C133.013 106.692 132.923 106.475 132.923 106.25C132.923 106.025 133.013 105.808 133.172 105.649C133.332 105.49 133.548 105.4 133.773 105.4C133.999 105.4 134.215 105.49 134.374 105.649C134.534 105.808 134.623 106.025 134.623 106.25C134.623 106.475 134.534 106.692 134.374 106.851C134.215 107.01 133.999 107.1 133.773 107.1Z" fill="black"/>
</g>
<path d="M324.717 106.539H188.267V193.91H324.717V106.539Z" fill="#263238"/>
<path opacity="0.9" d="M324.717 106.539H188.267V193.91H324.717V106.539Z" fill="#E8E8E8"/>
<path opacity="0.1" d="M209.551 106.539H188.267V193.91H209.551V106.539Z" fill="black"/>
<path d="M324.717 106.539H188.267V113.585H324.717V106.539Z" fill="#0E53BE"/>
<path d="M197.905 121.312L195.644 122.162L197.905 123.012V123.862L194.675 122.63V121.78L197.905 120.556V121.312Z" fill="#E8E8E8"/>
<path d="M200.345 118.796H201.289L199.045 125.196H198.101L200.345 118.796Z" fill="#E8E8E8"/>
<path d="M204.646 121.694V122.544L201.416 123.777V122.927L203.677 122.077L201.416 121.227V120.377L204.646 121.694Z" fill="#E8E8E8"/>
<g opacity="0.2">
<path opacity="0.2" d="M204.17 131.027H194.922C194.697 131.027 194.481 130.938 194.321 130.779C194.162 130.619 194.072 130.403 194.072 130.177C194.072 129.952 194.162 129.736 194.321 129.576C194.481 129.417 194.697 129.327 194.922 129.327H204.17C204.396 129.327 204.612 129.417 204.771 129.576C204.931 129.736 205.02 129.952 205.02 130.177C205.02 130.403 204.931 130.619 204.771 130.779C204.612 130.938 204.396 131.027 204.17 131.027Z" fill="black"/>
<path opacity="0.2" d="M204.17 136.569H194.922C194.697 136.569 194.481 136.48 194.321 136.321C194.162 136.161 194.072 135.945 194.072 135.719C194.072 135.494 194.162 135.278 194.321 135.118C194.481 134.959 194.697 134.869 194.922 134.869H204.17C204.396 134.869 204.612 134.959 204.771 135.118C204.931 135.278 205.02 135.494 205.02 135.719C205.02 135.945 204.931 136.161 204.771 136.321C204.612 136.48 204.396 136.569 204.17 136.569Z" fill="black"/>
<path opacity="0.2" d="M204.17 142.12H194.922C194.697 142.12 194.481 142.03 194.321 141.871C194.162 141.712 194.072 141.495 194.072 141.27C194.072 141.045 194.162 140.828 194.321 140.669C194.481 140.51 194.697 140.42 194.922 140.42H204.17C204.396 140.42 204.612 140.51 204.771 140.669C204.931 140.828 205.02 141.045 205.02 141.27C205.02 141.495 204.931 141.712 204.771 141.871C204.612 142.03 204.396 142.12 204.17 142.12Z" fill="black"/>
<path opacity="0.2" d="M204.17 147.67H194.922C194.697 147.67 194.481 147.581 194.321 147.422C194.162 147.262 194.072 147.046 194.072 146.82C194.072 146.595 194.162 146.379 194.321 146.219C194.481 146.06 194.697 145.97 194.922 145.97H204.17C204.396 145.97 204.612 146.06 204.771 146.219C204.931 146.379 205.02 146.595 205.02 146.82C205.02 147.046 204.931 147.262 204.771 147.422C204.612 147.581 204.396 147.67 204.17 147.67Z" fill="black"/>
<path opacity="0.2" d="M204.17 153.221H194.922C194.697 153.221 194.481 153.131 194.321 152.972C194.162 152.813 194.072 152.596 194.072 152.371C194.072 152.146 194.162 151.929 194.321 151.77C194.481 151.611 194.697 151.521 194.922 151.521H204.17C204.396 151.521 204.612 151.611 204.771 151.77C204.931 151.929 205.02 152.146 205.02 152.371C205.02 152.596 204.931 152.813 204.771 152.972C204.612 153.131 204.396 153.221 204.17 153.221Z" fill="black"/>
<path opacity="0.2" d="M204.17 158.763H194.922C194.697 158.763 194.481 158.673 194.321 158.514C194.162 158.355 194.072 158.138 194.072 157.913C194.072 157.688 194.162 157.471 194.321 157.312C194.481 157.153 194.697 157.063 194.922 157.063H204.17C204.396 157.063 204.612 157.153 204.771 157.312C204.931 157.471 205.02 157.688 205.02 157.913C205.02 158.138 204.931 158.355 204.771 158.514C204.612 158.673 204.396 158.763 204.17 158.763Z" fill="black"/>
<path opacity="0.2" d="M204.17 164.313H194.922C194.697 164.313 194.481 164.224 194.321 164.065C194.162 163.905 194.072 163.689 194.072 163.463C194.072 163.238 194.162 163.022 194.321 162.862C194.481 162.703 194.697 162.613 194.922 162.613H204.17C204.396 162.613 204.612 162.703 204.771 162.862C204.931 163.022 205.02 163.238 205.02 163.463C205.02 163.689 204.931 163.905 204.771 164.065C204.612 164.224 204.396 164.313 204.17 164.313Z" fill="black"/>
<path opacity="0.2" d="M204.17 169.864H194.922C194.697 169.864 194.481 169.774 194.321 169.615C194.162 169.456 194.072 169.239 194.072 169.014C194.072 168.789 194.162 168.572 194.321 168.413C194.481 168.254 194.697 168.164 194.922 168.164H204.17C204.396 168.164 204.612 168.254 204.771 168.413C204.931 168.572 205.02 168.789 205.02 169.014C205.02 169.239 204.931 169.456 204.771 169.615C204.612 169.774 204.396 169.864 204.17 169.864Z" fill="black"/>
<path opacity="0.2" d="M204.17 175.414H194.922C194.697 175.414 194.481 175.325 194.321 175.166C194.162 175.006 194.072 174.79 194.072 174.564C194.072 174.339 194.162 174.123 194.321 173.963C194.481 173.804 194.697 173.714 194.922 173.714H204.17C204.396 173.714 204.612 173.804 204.771 173.963C204.931 174.123 205.02 174.339 205.02 174.564C205.02 174.79 204.931 175.006 204.771 175.166C204.612 175.325 204.396 175.414 204.17 175.414Z" fill="black"/>
</g>
<path d="M230.902 131.027H211.939C211.713 131.027 211.497 130.938 211.338 130.779C211.178 130.619 211.089 130.403 211.089 130.177C211.089 129.952 211.178 129.736 211.338 129.576C211.497 129.417 211.713 129.327 211.939 129.327H230.902C231.128 129.327 231.344 129.417 231.503 129.576C231.663 129.736 231.752 129.952 231.752 130.177C231.752 130.403 231.663 130.619 231.503 130.779C231.344 130.938 231.128 131.027 230.902 131.027Z" fill="#0E53BE"/>
<path d="M285.379 131.027H235.952C235.726 131.027 235.51 130.938 235.351 130.779C235.191 130.619 235.102 130.403 235.102 130.177C235.102 129.952 235.191 129.736 235.351 129.576C235.51 129.417 235.726 129.327 235.952 129.327H285.379C285.604 129.327 285.821 129.417 285.98 129.576C286.14 129.736 286.229 129.952 286.229 130.177C286.229 130.403 286.14 130.619 285.98 130.779C285.821 130.938 285.604 131.027 285.379 131.027Z" fill="#263238"/>
<g opacity="0.2">
<path opacity="0.2" d="M307.938 131.027H293.616C293.39 131.027 293.174 130.938 293.015 130.779C292.855 130.619 292.766 130.403 292.766 130.177C292.766 129.952 292.855 129.736 293.015 129.576C293.174 129.417 293.39 129.327 293.616 129.327H307.938C308.164 129.327 308.38 129.417 308.539 129.576C308.699 129.736 308.788 129.952 308.788 130.177C308.788 130.403 308.699 130.619 308.539 130.779C308.38 130.938 308.164 131.027 307.938 131.027Z" fill="#263238"/>
</g>
<g opacity="0.2">
<path opacity="0.2" d="M264.027 136.57H214.489C214.264 136.57 214.048 136.48 213.888 136.321C213.729 136.161 213.639 135.945 213.639 135.72C213.639 135.494 213.729 135.278 213.888 135.118C214.048 134.959 214.264 134.87 214.489 134.87H264.027C264.253 134.87 264.469 134.959 264.628 135.118C264.788 135.278 264.877 135.494 264.877 135.72C264.877 135.945 264.788 136.161 264.628 136.321C264.469 136.48 264.253 136.57 264.027 136.57Z" fill="#263238"/>
</g>
<path d="M314.738 136.57H268.6C268.375 136.57 268.158 136.48 267.999 136.321C267.84 136.161 267.75 135.945 267.75 135.72C267.75 135.494 267.84 135.278 267.999 135.118C268.158 134.959 268.375 134.87 268.6 134.87H314.772C314.997 134.87 315.214 134.959 315.373 135.118C315.532 135.278 315.622 135.494 315.622 135.72C315.622 135.945 315.532 136.161 315.373 136.321C315.214 136.48 314.997 136.57 314.772 136.57H314.738Z" fill="#0E53BE"/>
<path d="M243.848 142.12H214.489C214.264 142.12 214.048 142.03 213.888 141.871C213.729 141.712 213.639 141.495 213.639 141.27C213.639 141.045 213.729 140.828 213.888 140.669C214.048 140.51 214.264 140.42 214.489 140.42H243.848C244.074 140.42 244.29 140.51 244.449 140.669C244.609 140.828 244.698 141.045 244.698 141.27C244.698 141.495 244.609 141.712 244.449 141.871C244.29 142.03 244.074 142.12 243.848 142.12Z" fill="#263238"/>
<path d="M278.8 142.12H249.9C249.674 142.12 249.458 142.03 249.299 141.871C249.139 141.712 249.05 141.495 249.05 141.27C249.05 141.045 249.139 140.828 249.299 140.669C249.458 140.51 249.674 140.42 249.9 140.42H278.8C279.025 140.42 279.241 140.51 279.401 140.669C279.56 140.828 279.65 141.045 279.65 141.27C279.65 141.495 279.56 141.712 279.401 141.871C279.241 142.03 279.025 142.12 278.8 142.12Z" fill="#0E53BE"/>
<path d="M314.738 142.12H283.526C283.301 142.12 283.085 142.03 282.925 141.871C282.766 141.712 282.676 141.495 282.676 141.27C282.676 141.045 282.766 140.828 282.925 140.669C283.085 140.51 283.301 140.42 283.526 140.42H314.738C314.964 140.42 315.18 140.51 315.339 140.669C315.499 140.828 315.588 141.045 315.588 141.27C315.588 141.495 315.499 141.712 315.339 141.871C315.18 142.03 314.964 142.12 314.738 142.12Z" fill="#263238"/>
<path d="M246.568 147.67H228.948C228.722 147.67 228.506 147.581 228.347 147.422C228.187 147.262 228.098 147.046 228.098 146.82C228.098 146.595 228.187 146.379 228.347 146.219C228.506 146.06 228.722 145.97 228.948 145.97H246.568C246.794 145.97 247.01 146.06 247.169 146.219C247.329 146.379 247.418 146.595 247.418 146.82C247.418 147.046 247.329 147.262 247.169 147.422C247.01 147.581 246.794 147.67 246.568 147.67Z" fill="#263238"/>
<path d="M271.524 147.67H252.288C252.063 147.67 251.847 147.581 251.687 147.422C251.528 147.262 251.438 147.046 251.438 146.82C251.438 146.595 251.528 146.379 251.687 146.219C251.847 146.06 252.063 145.97 252.288 145.97H271.524C271.749 145.97 271.966 146.06 272.125 146.219C272.284 146.379 272.374 146.595 272.374 146.82C272.374 147.046 272.284 147.262 272.125 147.422C271.966 147.581 271.749 147.67 271.524 147.67Z" fill="#263238"/>
<g opacity="0.2">
<path opacity="0.2" d="M307.088 147.67H275.893C275.668 147.67 275.451 147.581 275.292 147.422C275.133 147.262 275.043 147.046 275.043 146.82C275.043 146.595 275.133 146.379 275.292 146.219C275.451 146.06 275.668 145.97 275.893 145.97H307.088C307.313 145.97 307.53 146.06 307.689 146.219C307.848 146.379 307.938 146.595 307.938 146.82C307.938 147.046 307.848 147.262 307.689 147.422C307.53 147.581 307.313 147.67 307.088 147.67Z" fill="#263238"/>
</g>
<g opacity="0.2">
<path opacity="0.2" d="M238.196 153.221H214.489C214.264 153.221 214.048 153.131 213.888 152.972C213.729 152.813 213.639 152.596 213.639 152.371C213.639 152.146 213.729 151.929 213.888 151.77C214.048 151.611 214.264 151.521 214.489 151.521H238.196C238.421 151.521 238.637 151.611 238.797 151.77C238.956 151.929 239.046 152.146 239.046 152.371C239.046 152.596 238.956 152.813 238.797 152.972C238.637 153.131 238.421 153.221 238.196 153.221Z" fill="#263238"/>
</g>
<path d="M241.162 158.763H214.489C214.264 158.763 214.048 158.673 213.888 158.514C213.729 158.355 213.639 158.138 213.639 157.913C213.639 157.688 213.729 157.471 213.888 157.312C214.048 157.153 214.264 157.063 214.489 157.063H241.162C241.388 157.063 241.604 157.153 241.763 157.312C241.923 157.471 242.012 157.688 242.012 157.913C242.012 158.138 241.923 158.355 241.763 158.514C241.604 158.673 241.388 158.763 241.162 158.763Z" fill="#0E53BE"/>
<path d="M285.719 158.763H245.531C245.306 158.763 245.09 158.673 244.93 158.514C244.771 158.355 244.681 158.138 244.681 157.913C244.681 157.688 244.771 157.471 244.93 157.312C245.09 157.153 245.306 157.063 245.531 157.063H285.719C285.945 157.063 286.161 157.153 286.32 157.312C286.48 157.471 286.569 157.688 286.569 157.913C286.569 158.138 286.48 158.355 286.32 158.514C286.161 158.673 285.945 158.763 285.719 158.763Z" fill="#263238"/>
<path d="M314.738 158.763H290.59C290.364 158.763 290.148 158.673 289.989 158.514C289.829 158.355 289.74 158.138 289.74 157.913C289.74 157.688 289.829 157.471 289.989 157.312C290.148 157.153 290.364 157.063 290.59 157.063H314.738C314.964 157.063 315.18 157.153 315.339 157.312C315.499 157.471 315.588 157.688 315.588 157.913C315.588 158.138 315.499 158.355 315.339 158.514C315.18 158.673 314.964 158.763 314.738 158.763Z" fill="#263238"/>
<g opacity="0.2">
<path opacity="0.2" d="M238.264 164.313H222.964C222.738 164.313 222.522 164.224 222.363 164.065C222.203 163.905 222.114 163.689 222.114 163.463C222.114 163.238 222.203 163.022 222.363 162.862C222.522 162.703 222.738 162.613 222.964 162.613H238.264C238.489 162.613 238.705 162.703 238.865 162.862C239.024 163.022 239.114 163.238 239.114 163.463C239.114 163.689 239.024 163.905 238.865 164.065C238.705 164.224 238.489 164.313 238.264 164.313Z" fill="#263238"/>
</g>
<g opacity="0.2">
<path opacity="0.2" d="M272.765 164.313H243.474C243.249 164.313 243.032 164.224 242.873 164.065C242.714 163.905 242.624 163.689 242.624 163.463C242.624 163.238 242.714 163.022 242.873 162.862C243.032 162.703 243.249 162.613 243.474 162.613H272.765C272.99 162.613 273.207 162.703 273.366 162.862C273.525 163.022 273.615 163.238 273.615 163.463C273.615 163.689 273.525 163.905 273.366 164.065C273.207 164.224 272.99 164.313 272.765 164.313Z" fill="#263238"/>
</g>
<path d="M307.088 164.313H278.486C278.26 164.313 278.044 164.224 277.885 164.065C277.725 163.905 277.636 163.689 277.636 163.463C277.636 163.238 277.725 163.022 277.885 162.862C278.044 162.703 278.26 162.613 278.486 162.613H307.088C307.314 162.613 307.53 162.703 307.689 162.862C307.849 163.022 307.938 163.238 307.938 163.463C307.938 163.689 307.849 163.905 307.689 164.065C307.53 164.224 307.314 164.313 307.088 164.313Z" fill="#263238"/>
<path d="M249.5 169.864H231.497C231.272 169.864 231.056 169.774 230.896 169.615C230.737 169.456 230.647 169.239 230.647 169.014C230.647 168.789 230.737 168.572 230.896 168.413C231.056 168.254 231.272 168.164 231.497 168.164H249.5C249.726 168.164 249.942 168.254 250.102 168.413C250.261 168.572 250.35 168.789 250.35 169.014C250.35 169.239 250.261 169.456 250.102 169.615C249.942 169.774 249.726 169.864 249.5 169.864Z" fill="#263238"/>
<g opacity="0.2">
<path opacity="0.2" d="M270.343 169.864H253.198C252.973 169.864 252.756 169.774 252.597 169.615C252.438 169.456 252.348 169.239 252.348 169.014C252.348 168.789 252.438 168.572 252.597 168.413C252.756 168.254 252.973 168.164 253.198 168.164H270.343C270.568 168.164 270.784 168.254 270.944 168.413C271.103 168.572 271.193 168.789 271.193 169.014C271.193 169.239 271.103 169.456 270.944 169.615C270.784 169.774 270.568 169.864 270.343 169.864Z" fill="#263238"/>
</g>
<path d="M307.088 169.864H275.723C275.498 169.864 275.281 169.774 275.122 169.615C274.963 169.456 274.873 169.239 274.873 169.014C274.873 168.789 274.963 168.572 275.122 168.413C275.281 168.254 275.498 168.164 275.723 168.164H307.088C307.313 168.164 307.53 168.254 307.689 168.413C307.849 168.572 307.938 168.789 307.938 169.014C307.938 169.239 307.849 169.456 307.689 169.615C307.53 169.774 307.313 169.864 307.088 169.864Z" fill="#0E53BE"/>
<g opacity="0.2">
<path opacity="0.2" d="M253.504 175.414H231.497C231.272 175.414 231.056 175.325 230.896 175.166C230.737 175.006 230.647 174.79 230.647 174.564C230.647 174.339 230.737 174.123 230.896 173.963C231.056 173.804 231.272 173.714 231.497 173.714H253.504C253.729 173.714 253.946 173.804 254.105 173.963C254.264 174.123 254.354 174.339 254.354 174.564C254.354 174.79 254.264 175.006 254.105 175.166C253.946 175.325 253.729 175.414 253.504 175.414Z" fill="#263238"/>
</g>
<path opacity="0.4" d="M318.75 110.117C318.75 110.407 318.836 110.69 318.997 110.931C319.158 111.171 319.387 111.359 319.655 111.469C319.922 111.579 320.217 111.608 320.5 111.551C320.784 111.494 321.045 111.354 321.249 111.148C321.453 110.943 321.592 110.682 321.647 110.397C321.702 110.113 321.672 109.819 321.56 109.552C321.448 109.285 321.26 109.057 321.018 108.898C320.777 108.738 320.493 108.654 320.204 108.655C320.012 108.655 319.822 108.693 319.645 108.767C319.468 108.841 319.308 108.948 319.173 109.084C319.038 109.22 318.931 109.381 318.858 109.559C318.786 109.736 318.749 109.926 318.75 110.117Z" fill="#E8E8E8"/>
<path opacity="0.4" d="M315.138 111.571C315.94 111.571 316.591 110.92 316.591 110.117C316.591 109.315 315.94 108.664 315.138 108.664C314.335 108.664 313.684 109.315 313.684 110.117C313.684 110.92 314.335 111.571 315.138 111.571Z" fill="#E8E8E8"/>
<path opacity="0.4" d="M310.029 111.571C310.832 111.571 311.483 110.92 311.483 110.117C311.483 109.315 310.832 108.664 310.029 108.664C309.226 108.664 308.576 109.315 308.576 110.117C308.576 110.92 309.226 111.571 310.029 111.571Z" fill="#E8E8E8"/>
<path d="M96.2709 111.707H71.8589C70.8715 111.706 69.8935 111.899 68.9808 112.277C68.0682 112.654 67.2389 113.207 66.5402 113.905C65.8416 114.603 65.2874 115.431 64.9092 116.344C64.5311 117.256 64.3364 118.234 64.3364 119.221V140.471C64.3353 141.458 64.5288 142.436 64.906 143.349C65.2831 144.262 65.8364 145.091 66.5342 145.79C67.2321 146.488 68.0608 147.043 68.973 147.421C69.8852 147.799 70.863 147.994 71.8504 147.994H89.1649L94.2649 154.7V147.994H96.2624C98.2575 147.994 100.171 147.201 101.582 145.79C102.992 144.379 103.785 142.466 103.785 140.471V119.221C103.785 117.228 102.993 115.317 101.584 113.908C100.175 112.499 98.2638 111.707 96.2709 111.707Z" fill="#0E53BE"/>
<path opacity="0.7" d="M96.2709 111.707H71.8589C70.8715 111.706 69.8935 111.899 68.9808 112.277C68.0682 112.654 67.2389 113.207 66.5402 113.905C65.8416 114.603 65.2874 115.431 64.9092 116.344C64.5311 117.256 64.3364 118.234 64.3364 119.221V140.471C64.3353 141.458 64.5288 142.436 64.906 143.349C65.2831 144.262 65.8364 145.091 66.5342 145.79C67.2321 146.488 68.0608 147.043 68.973 147.421C69.8852 147.799 70.863 147.994 71.8504 147.994H89.1649L94.2649 154.7V147.994H96.2624C98.2575 147.994 100.171 147.201 101.582 145.79C102.992 144.379 103.785 142.466 103.785 140.471V119.221C103.785 117.228 102.993 115.317 101.584 113.908C100.175 112.499 98.2638 111.707 96.2709 111.707Z" fill="#E8E8E8"/>
<path d="M82.7899 135.15C82.6285 135.149 82.4692 135.114 82.3226 135.047C82.176 134.979 82.0455 134.881 81.9399 134.759L77.1884 129.2C77.0935 129.088 77.0216 128.959 76.9766 128.82C76.9317 128.68 76.9147 128.533 76.9265 128.387C76.9383 128.241 76.9788 128.099 77.0456 127.969C77.1125 127.838 77.2043 127.722 77.3159 127.628C77.4275 127.533 77.5568 127.461 77.6962 127.416C77.8356 127.371 77.9826 127.354 78.1286 127.366C78.2746 127.377 78.4169 127.418 78.5472 127.485C78.6776 127.552 78.7935 127.643 78.8884 127.755L82.7899 132.362L89.2414 124.763C89.4353 124.549 89.7045 124.419 89.9925 124.4C90.2805 124.381 90.5647 124.474 90.7851 124.66C91.0056 124.847 91.1451 125.111 91.1742 125.398C91.2034 125.685 91.1199 125.973 90.9414 126.2L83.6399 134.776C83.5335 134.896 83.4025 134.991 83.2558 135.056C83.1091 135.12 82.9502 135.153 82.7899 135.15Z" fill="#E8E8E8"/>
<path d="M92.6305 138.322C97.364 133.588 97.364 125.913 92.6305 121.18C87.8969 116.446 80.2224 116.446 75.4888 121.18C70.7553 125.913 70.7553 133.588 75.4888 138.322C80.2224 143.055 87.897 143.055 92.6305 138.322Z" fill="#0E53BE"/>
<path d="M174.012 262.208L192.261 261.315L190.485 277.185C190.485 277.185 177.82 279.599 172.167 270.589L174.012 262.208Z" fill="#EBB376"/>
<path d="M204.025 266.849L199.869 278.358L190.485 277.185L192.261 261.315L204.025 266.849Z" fill="#EBB376"/>
<path d="M156.493 287.963C163.442 284.334 169.776 279.633 175.261 274.032L174.012 262.208C156.765 264.758 146.812 268.404 146.812 268.404C146.812 268.404 153.204 245.497 147.356 237.15L131.299 240.057C131.299 240.057 114.24 275.519 125.715 287.963H156.493Z" fill="#0E53BE"/>
<path opacity="0.7" d="M156.468 287.963C163.421 284.335 169.76 279.637 175.253 274.04L174.012 262.199C157.318 264.647 147.45 268.149 146.812 268.379C147.025 267.529 153.068 245.335 147.339 237.141L131.283 240.048C127.982 247.169 125.361 254.586 123.454 262.199C121.159 271.881 120.488 282.31 125.707 287.963H156.468Z" fill="#E8E8E8"/>
<path opacity="0.2" d="M143.267 287.963C148.937 252.042 143.913 242.913 143.913 242.913L123.513 262.183C121.218 271.864 120.547 282.294 125.766 287.946L143.267 287.963Z" fill="black"/>
<path d="M139.723 287.963C143.548 269.807 147.841 241.383 147.373 237.15C146.693 230.996 113.22 204.629 84.167 223.822C78.217 227.741 75.1825 270.011 74.1455 287.963H139.723Z" fill="#0E53BE"/>
<path opacity="0.7" d="M139.723 287.963C143.548 269.807 147.841 241.375 147.373 237.142C146.693 230.996 113.212 204.629 84.1585 223.831C82.008 225.267 80.24 231.753 78.778 240.321C76.84 251.983 75.497 267.47 74.698 279.149C74.477 282.455 74.29 285.447 74.1455 287.963H139.723Z" fill="#E8E8E8"/>
<path d="M125.384 145.818C115.311 141.746 91.562 156.358 89.4795 182.41C87.397 208.463 100.606 201.246 100.606 201.246C100.606 201.246 102.961 211.182 112.583 208.114C112.583 208.114 120.53 217.115 127.925 213.452C127.925 213.452 137.131 223.04 142.069 217.983C142.069 217.983 147.441 224.111 152.346 219.47C157.25 214.829 171.267 167.45 149.277 156.494C127.288 145.537 125.384 145.818 125.384 145.818Z" fill="#263238"/>
<path d="M125.4 252.45L124.431 252.365C125.553 239.819 122.791 234.268 122.731 234.217L123.581 233.767C123.743 233.962 126.548 239.547 125.4 252.45Z" fill="#263238"/>
<path d="M129.956 252.56C123.284 236.844 130.806 233.18 131.112 233.01L131.512 233.86C131.444 233.86 124.576 237.337 130.849 252.127L129.956 252.56Z" fill="#263238"/>
<path d="M123.437 236.759C123.437 236.759 110.559 226.559 90.5674 220.813L84.1499 223.822C84.1499 223.822 73.3889 210.502 91.3239 206.142C109.259 201.781 133.654 213.792 139.774 224.077C145.894 234.362 129.132 237.677 129.132 237.677C129.132 237.677 127.593 235.586 123.437 236.759Z" fill="#0E53BE"/>
<path opacity="0.6" d="M123.437 236.759C123.437 236.759 110.559 226.559 90.5674 220.813L84.1499 223.822C84.1499 223.822 73.3889 210.502 91.3239 206.142C109.259 201.781 133.654 213.792 139.774 224.077C145.894 234.362 129.132 237.677 129.132 237.677C129.132 237.677 127.593 235.586 123.437 236.759Z" fill="#E8E8E8"/>
<path d="M131.206 252.373C131.206 252.542 131.156 252.706 131.063 252.846C130.969 252.986 130.836 253.094 130.681 253.159C130.526 253.223 130.355 253.24 130.19 253.207C130.025 253.174 129.874 253.093 129.755 252.975C129.636 252.856 129.555 252.704 129.522 252.539C129.489 252.374 129.506 252.204 129.571 252.048C129.635 251.893 129.744 251.76 129.884 251.667C130.023 251.573 130.188 251.523 130.356 251.523C130.581 251.523 130.797 251.613 130.957 251.772C131.116 251.932 131.206 252.148 131.206 252.373Z" fill="#E8E8E8"/>
<path d="M125.69 252.373C125.69 252.542 125.64 252.706 125.546 252.846C125.453 252.986 125.32 253.094 125.165 253.159C125.01 253.223 124.839 253.24 124.674 253.207C124.509 253.174 124.358 253.093 124.239 252.975C124.12 252.856 124.039 252.704 124.006 252.539C123.973 252.374 123.99 252.204 124.054 252.048C124.119 251.893 124.228 251.76 124.368 251.667C124.507 251.573 124.672 251.523 124.84 251.523C125.065 251.523 125.281 251.613 125.441 251.772C125.6 251.932 125.69 252.148 125.69 252.373Z" fill="#E8E8E8"/>
<path d="M116.595 188.7C115.813 197.821 113.016 214.056 105.596 217.6C105.596 217.6 113.892 219.3 126.846 235.714C134.215 230.546 131.427 227.018 131.427 227.018C122.808 221.365 125.044 214.395 128.529 208.318L116.595 188.7Z" fill="#EBB376"/>
<path opacity="0.2" d="M121.448 196.698L128.511 208.343C127.668 209.749 126.954 211.229 126.378 212.763C122.978 210.944 119.255 205.181 119.96 201.237C120.18 199.648 120.684 198.11 121.448 196.698Z" fill="black"/>
<path d="M115.6 169.413C113.228 183.744 111.919 189.745 117.232 198.968C125.213 212.848 142.902 213.503 149.404 200.379C155.252 188.564 158.151 167.11 145.945 157.641C133.9 148.308 117.954 155.074 115.6 169.413Z" fill="#EBB376"/>
<path d="M144.951 149.66C154.241 154.811 163.09 170.909 149.872 166.889C147.875 170.756 140.76 167.212 136.621 162.571C135.924 165.792 128.308 169.022 122.698 164.033C125.409 167.943 120.794 177.812 115.991 176.112C111.189 174.412 100.411 172.176 109.956 156.961C119.502 141.746 135.031 144.143 144.951 149.66Z" fill="#263238"/>
<path d="M141.567 182.937C141.567 182.937 142.417 188.624 144.032 191.709C142.222 192.755 139.782 191.361 139.782 191.361L141.567 182.937Z" fill="#D58745"/>
<path d="M132.303 193.91C132.906 194.205 133.535 194.444 134.181 194.624C134.225 194.637 134.271 194.64 134.316 194.634C134.36 194.628 134.404 194.612 134.442 194.588C134.481 194.564 134.514 194.532 134.539 194.494C134.564 194.457 134.581 194.414 134.589 194.37C134.612 194.276 134.598 194.177 134.548 194.094C134.499 194.011 134.419 193.952 134.326 193.927C132.863 193.518 131.511 192.785 130.37 191.783C129.228 190.781 128.326 189.536 127.73 188.139C127.717 188.094 127.695 188.052 127.666 188.015C127.637 187.979 127.601 187.948 127.559 187.926C127.518 187.904 127.473 187.89 127.426 187.886C127.379 187.882 127.332 187.887 127.288 187.901C127.202 187.937 127.133 188.005 127.096 188.091C127.06 188.176 127.058 188.273 127.092 188.36C128.087 190.788 129.942 192.764 132.303 193.91Z" fill="#263238"/>
<path d="M108.366 179.716C109.168 182.695 111.118 185.235 113.789 186.779C117.249 188.675 119.739 185.428 119.484 181.39C119.221 177.744 117.096 172.372 113.305 172.159C109.514 171.947 107.338 175.95 108.366 179.716Z" fill="#EBB376"/>
<path d="M131.325 169.805C131.41 169.844 131.503 169.865 131.597 169.865C131.691 169.865 131.784 169.844 131.869 169.805C132.624 169.386 133.469 169.159 134.332 169.144C135.195 169.129 136.048 169.327 136.816 169.72C136.892 169.768 136.978 169.801 137.068 169.814C137.157 169.828 137.249 169.823 137.336 169.799C137.424 169.774 137.505 169.732 137.575 169.675C137.645 169.617 137.702 169.546 137.743 169.464C137.827 169.293 137.845 169.097 137.793 168.914C137.741 168.73 137.623 168.572 137.462 168.47C136.503 167.945 135.427 167.669 134.334 167.669C133.241 167.669 132.165 167.945 131.206 168.47C131.045 168.566 130.927 168.72 130.877 168.9C130.826 169.081 130.847 169.273 130.934 169.439C131.017 169.603 131.155 169.733 131.325 169.805Z" fill="#263238"/>
<path d="M154.165 175.398C154.241 175.441 154.326 175.469 154.414 175.477C154.502 175.486 154.591 175.476 154.675 175.449C154.763 175.419 154.845 175.372 154.915 175.31C154.985 175.249 155.041 175.174 155.082 175.09C155.122 175.006 155.145 174.914 155.15 174.821C155.154 174.728 155.14 174.635 155.108 174.548C154.798 173.443 154.237 172.425 153.469 171.573C152.701 170.721 151.746 170.057 150.68 169.635C150.592 169.603 150.499 169.592 150.406 169.6C150.314 169.608 150.224 169.636 150.144 169.682C150.063 169.728 149.993 169.791 149.939 169.866C149.885 169.942 149.848 170.028 149.83 170.119C149.785 170.304 149.811 170.498 149.902 170.665C149.994 170.831 150.143 170.958 150.323 171.02C151.163 171.367 151.913 171.903 152.514 172.585C153.115 173.267 153.552 174.078 153.791 174.955C153.821 175.05 153.869 175.138 153.933 175.214C153.997 175.29 154.076 175.352 154.165 175.398Z" fill="#263238"/>
<path d="M135.898 179.18C135.481 180.319 134.529 181.007 133.773 180.727C133.016 180.446 132.744 179.307 133.161 178.177C133.577 177.046 134.529 176.349 135.277 176.63C136.025 176.91 136.306 178.049 135.898 179.18Z" fill="#263238"/>
<path d="M134.946 176.571L137.768 176.511C137.768 176.511 135.779 178.126 134.946 176.571Z" fill="#263238"/>
<path d="M150.17 183.711C149.753 184.841 148.801 185.53 148.053 185.258C147.305 184.986 147.016 183.83 147.433 182.708C147.849 181.586 148.801 180.889 149.558 181.161C150.314 181.433 150.586 182.572 150.17 183.711Z" fill="#263238"/>
<path d="M149.226 181.093L152.04 181.033C152.04 181.033 150.051 182.657 149.226 181.093Z" fill="#263238"/>
<path d="M134.555 187.213C133.677 187.215 132.808 187.033 132.005 186.677C131.155 186.287 130.401 185.717 129.793 185.007C129.185 184.297 128.739 183.463 128.486 182.563C127.938 180.623 128.088 178.553 128.91 176.712C129.731 174.872 131.172 173.378 132.982 172.491C133.821 172.071 134.742 171.843 135.679 171.823C136.616 171.802 137.546 171.99 138.402 172.372C139.258 172.754 140.019 173.321 140.629 174.032C141.24 174.744 141.685 175.582 141.933 176.486C142.498 178.423 142.344 180.5 141.499 182.334C140.702 184.197 139.255 185.707 137.428 186.584C136.528 187 135.547 187.215 134.555 187.213ZM135.889 172.805C135.043 172.828 134.211 173.03 133.45 173.4C131.854 174.19 130.583 175.511 129.857 177.138C129.13 178.764 128.994 180.592 129.472 182.308C129.677 183.08 130.051 183.797 130.569 184.406C131.087 185.014 131.734 185.5 132.463 185.826C133.193 186.152 133.986 186.31 134.785 186.29C135.583 186.27 136.368 186.071 137.079 185.708C138.688 184.938 139.965 183.613 140.675 181.977C141.422 180.354 141.558 178.515 141.057 176.8C140.844 176.032 140.466 175.321 139.949 174.714C139.432 174.108 138.79 173.622 138.065 173.29C137.385 172.97 136.642 172.804 135.889 172.805Z" fill="#263238"/>
<path d="M148.699 191.548C147.821 191.555 146.951 191.372 146.149 191.012C145.299 190.621 144.544 190.051 143.935 189.341C143.326 188.631 142.878 187.798 142.622 186.898C142.078 184.957 142.231 182.887 143.054 181.047C143.877 179.208 145.318 177.714 147.127 176.825C147.964 176.405 148.885 176.175 149.822 176.154C150.759 176.133 151.689 176.32 152.545 176.703C153.401 177.085 154.161 177.653 154.77 178.365C155.38 179.077 155.823 179.916 156.069 180.821C156.641 182.757 156.49 184.835 155.644 186.668C155.07 188.058 154.112 189.255 152.882 190.119C151.652 190.983 150.201 191.479 148.699 191.548ZM150.051 177.098C149.193 177.103 148.346 177.295 147.569 177.659C145.961 178.434 144.685 179.762 143.973 181.398C143.221 183.017 143.085 184.855 143.591 186.566C143.804 187.335 144.182 188.048 144.699 188.656C145.216 189.264 145.858 189.751 146.583 190.086C149.558 191.42 153.247 189.686 154.794 186.235C155.537 184.611 155.673 182.774 155.176 181.059C154.962 180.292 154.583 179.581 154.066 178.974C153.55 178.368 152.907 177.882 152.184 177.548C151.509 177.267 150.783 177.128 150.051 177.14V177.098Z" fill="#263238"/>
<path d="M142.63 182.682C142.611 182.621 142.579 182.566 142.537 182.519C142.494 182.472 142.442 182.435 142.383 182.41C142.01 182.345 141.626 182.402 141.287 182.572L140.862 181.722C141.439 181.426 142.106 181.357 142.732 181.526C142.928 181.595 143.106 181.708 143.253 181.855C143.4 182.002 143.513 182.18 143.582 182.376L142.63 182.682Z" fill="#263238"/>
<path d="M119.384 173.586L119.093 174.517L130.599 178.112L130.89 177.182L119.384 173.586Z" fill="#263238"/>
<path opacity="0.2" d="M116.688 263.041C116.688 263.041 94.3243 280.177 74.6978 279.191C75.4968 267.512 76.8398 251.991 78.7778 240.363C80.7838 238.153 82.1013 236.81 82.1013 236.81L94.0013 245.709L91.1028 249.347C91.1028 249.347 109.114 248.429 115.387 249.347L116.688 263.041Z" fill="black"/>
<path d="M119 249.305L136.901 245.65L137.538 261.613C137.538 261.613 125.392 265.914 118.439 257.864L119 249.305Z" fill="#EBB376"/>
<path d="M149.362 249.356L146.999 261.358L137.538 261.622L136.901 245.659L149.362 249.356Z" fill="#EBB376"/>
<path d="M119 249.305L119.876 261.622L115.422 263.619L113.518 249.305H119Z" fill="#0E53BE"/>
<path opacity="0.6" d="M119 249.305L119.876 261.622L115.422 263.619L113.518 249.305H119Z" fill="#E8E8E8"/>
<path d="M90.5673 220.813C85.7639 221.661 81.4142 224.178 78.2848 227.919C72.8873 234.26 53.8644 253.096 58.0889 268.472C62.3134 283.849 102.994 272.408 115.421 263.619L113.517 249.305L85.3398 251.37L94.0269 245.65C99.9854 229.075 90.5673 220.813 90.5673 220.813Z" fill="#0E53BE"/>
<path opacity="0.7" d="M90.5673 220.813C85.7639 221.661 81.4142 224.178 78.2848 227.919C72.8873 234.26 53.8644 253.096 58.0889 268.472C62.3134 283.849 102.994 272.408 115.421 263.619L113.517 249.305L85.3398 251.37L94.0269 245.65C99.9854 229.075 90.5673 220.813 90.5673 220.813Z" fill="#E8E8E8"/>
<path d="M172.176 262.48L177.302 261.622V275.358L173.239 276.021L172.176 262.48Z" fill="#0E53BE"/>
<path opacity="0.6" d="M172.176 262.48L177.302 261.622V275.358L173.239 276.021L172.176 262.48Z" fill="#E8E8E8"/>
<path d="M161.814 275.222C161.8 274.469 161.837 273.716 161.925 272.969L162.078 271.839L160.981 272.485L160.327 272.876C160.112 272.973 159.89 273.055 159.664 273.122C159.277 273.245 158.861 273.245 158.474 273.122C158.1 272.984 157.77 272.746 157.522 272.434C157.235 272.089 157.008 271.698 156.85 271.278L155.89 268.6L155.21 271.439C155.142 271.72 155.099 272.009 155.048 272.289C154.997 272.57 154.878 272.816 154.802 273.08C154.639 273.503 154.366 273.876 154.011 274.159C153.615 274.363 153.154 274.403 152.728 274.27C152.192 274.129 151.681 273.905 151.215 273.607L149.736 272.68L150.331 274.185C150.588 274.824 150.793 275.484 150.943 276.157C151.017 276.492 151.063 276.833 151.079 277.177C151.116 277.526 151.039 277.878 150.858 278.18C151.156 277.94 151.361 277.603 151.436 277.228C151.533 276.861 151.585 276.484 151.589 276.106C151.606 275.808 151.606 275.51 151.589 275.213C151.836 275.353 152.092 275.478 152.354 275.587C152.74 275.745 153.154 275.821 153.571 275.811C153.988 275.801 154.399 275.704 154.776 275.528C155.495 275.124 156.055 274.489 156.366 273.726V273.615C156.826 274.139 157.442 274.5 158.123 274.645C158.805 274.791 159.515 274.713 160.148 274.423C160.398 274.309 160.639 274.179 160.871 274.032C160.871 274.032 160.871 274.091 160.871 274.125C160.932 274.526 161.014 274.923 161.117 275.315C161.221 275.711 161.363 276.095 161.542 276.463C161.712 276.833 161.965 277.158 162.282 277.415C162.091 277.082 161.967 276.715 161.916 276.335C161.857 275.967 161.823 275.595 161.814 275.222Z" fill="#0E53BE"/>
<path d="M192.219 256.046C191.557 256.11 190.888 256.037 190.255 255.833C189.603 255.639 188.982 255.353 188.411 254.983C187.869 254.581 187.405 254.082 187.042 253.513C186.659 252.947 186.353 252.332 186.133 251.685L185.572 249.985L184.62 251.49C184.213 252.121 183.721 252.693 183.158 253.19C182.701 253.642 182.099 253.919 181.458 253.972H181.254L180.999 253.921C180.82 253.921 180.65 253.835 180.472 253.793C180.117 253.676 179.773 253.528 179.443 253.351C178.778 252.979 178.164 252.521 177.616 251.991L176.137 250.572L176.443 252.518C176.614 253.557 176.679 254.611 176.638 255.663C176.622 256.158 176.521 256.647 176.341 257.108C176.261 257.31 176.115 257.478 175.926 257.587C175.738 257.695 175.519 257.736 175.304 257.703H174.921L175.04 258.017C175.29 258.658 175.545 259.295 175.805 259.93C175.729 259.36 175.635 258.791 175.533 258.23H175.695C175.864 258.218 176.032 258.189 176.196 258.145C176.352 258.064 176.503 257.974 176.647 257.873C176.757 257.754 176.876 257.627 176.978 257.499C177.305 256.982 177.522 256.403 177.616 255.799C177.723 255.238 177.786 254.67 177.803 254.099C178.075 254.324 178.358 254.534 178.653 254.728C179.052 254.974 179.473 255.181 179.911 255.349C180.378 255.543 180.876 255.655 181.381 255.68C182.433 255.665 183.443 255.266 184.22 254.558C184.554 254.278 184.864 253.971 185.147 253.64C185.313 253.933 185.495 254.216 185.691 254.49C186.199 255.192 186.833 255.795 187.561 256.267C188.286 256.707 189.083 257.018 189.915 257.185C190.45 257.288 190.995 257.328 191.539 257.304C191.471 257.474 191.394 257.644 191.335 257.822C191.186 258.312 191.069 258.812 190.986 259.318C190.896 259.826 190.873 260.343 190.918 260.857C190.944 261.368 191.099 261.865 191.369 262.302C191.223 261.837 191.185 261.346 191.258 260.865C191.322 260.388 191.433 259.918 191.59 259.463C191.916 258.574 192.329 257.72 192.822 256.913L193.358 256.003L192.219 256.046Z" fill="#0E53BE"/>
<path d="M362.27 306.281H64.1749C63.174 306.281 62.2141 305.883 61.5063 305.175C60.7986 304.467 60.4009 303.507 60.4009 302.507V293.327H366.044V302.507C366.044 303.507 365.646 304.467 364.939 305.175C364.231 305.883 363.271 306.281 362.27 306.281Z" fill="#0E53BE"/>
<path opacity="0.2" d="M60.3926 299.795H366.044V293.318H60.3926V299.795Z" fill="black"/>
<path d="M53.9919 295.01H372.453C373.421 295.01 374.349 294.626 375.034 293.942C375.72 293.258 376.106 292.331 376.108 291.363C376.108 290.394 375.723 289.464 375.037 288.779C374.352 288.093 373.422 287.708 372.453 287.708H53.9919C53.0225 287.708 52.0929 288.093 51.4074 288.779C50.722 289.464 50.3369 290.394 50.3369 291.363C50.3392 292.331 50.7252 293.258 51.4104 293.942C52.0956 294.626 53.024 295.01 53.9919 295.01Z" fill="#0E53BE"/>
<path d="M350.872 243.1L341.573 285.277C341.403 285.953 341.015 286.553 340.47 286.987C339.925 287.42 339.252 287.661 338.555 287.674H287.759C287.443 287.666 287.133 287.584 286.854 287.436C286.574 287.288 286.333 287.078 286.149 286.821C285.964 286.564 285.842 286.268 285.791 285.956C285.74 285.644 285.762 285.324 285.855 285.022L295.137 243.168C295.328 242.53 295.731 241.977 296.281 241.601C296.83 241.225 297.491 241.049 298.155 241.102H348.951C350.311 241.136 351.169 241.757 350.872 243.1Z" fill="#263238"/>
<path opacity="0.4" d="M350.872 243.1L341.573 285.277C341.403 285.953 341.015 286.553 340.47 286.987C339.924 287.42 339.251 287.661 338.555 287.674H289.485C289.168 287.667 288.857 287.587 288.576 287.439C288.296 287.292 288.053 287.081 287.868 286.824C287.683 286.567 287.559 286.271 287.508 285.958C287.457 285.645 287.479 285.325 287.572 285.022L296.871 243.168C297.057 242.528 297.46 241.972 298.01 241.595C298.56 241.219 299.224 241.044 299.889 241.102H348.951C350.311 241.136 351.169 241.757 350.872 243.1Z" fill="#E8E8E8"/>
<path d="M342.771 286.374L352.019 244.417C352.325 243.04 351.466 242.42 350.098 242.42H301.036C300.372 242.365 299.71 242.541 299.16 242.917C298.611 243.293 298.208 243.847 298.018 244.486L288.626 286.926L342.771 286.374Z" fill="#0E53BE"/>
<path opacity="0.4" d="M352.019 244.409L347.14 266.577L342.763 286.374L313.778 286.671L288.635 286.917L297.985 244.486C298.171 243.847 298.572 243.292 299.121 242.916C299.669 242.539 300.331 242.364 300.994 242.42H350.115C351.475 242.42 352.325 243.049 352.019 244.409Z" fill="#E8E8E8"/>
<path opacity="0.2" d="M347.14 266.577L342.763 286.374L313.778 286.671H289.706L293.641 268.566C293.768 268.005 294.08 267.503 294.527 267.142C294.975 266.781 295.531 266.582 296.106 266.577H347.14Z" fill="black"/>
<path d="M347.973 269.331C347.785 268.692 347.382 268.138 346.832 267.763C346.282 267.388 345.619 267.216 344.955 267.274H295.893C294.533 267.274 293.675 267.886 293.972 269.263L297.695 286.144H289.408C289.201 286.144 289.002 286.226 288.855 286.373C288.708 286.52 288.626 286.719 288.626 286.926C288.626 287.133 288.708 287.332 288.855 287.479C289.002 287.626 289.201 287.708 289.408 287.708H349.843C350.107 287.703 350.366 287.64 350.602 287.522C350.838 287.404 351.045 287.236 351.208 287.028C351.371 286.821 351.485 286.579 351.543 286.322C351.601 286.065 351.601 285.798 351.543 285.54L347.973 269.331Z" fill="#0E53BE"/>
<path opacity="0.4" d="M347.973 269.331C347.785 268.692 347.382 268.138 346.832 267.763C346.282 267.388 345.619 267.216 344.955 267.274H295.893C294.533 267.274 293.675 267.886 293.972 269.263L297.695 286.144H289.408C289.201 286.144 289.002 286.226 288.855 286.373C288.708 286.52 288.626 286.719 288.626 286.926C288.626 287.133 288.708 287.332 288.855 287.479C289.002 287.626 289.201 287.708 289.408 287.708H349.843C350.107 287.703 350.366 287.64 350.602 287.522C350.838 287.404 351.045 287.236 351.208 287.028C351.371 286.821 351.485 286.579 351.543 286.322C351.601 286.065 351.601 285.798 351.543 285.54L347.973 269.331Z" fill="#E8E8E8"/>
<path d="M287.937 279.573H285.09L284.733 281.112H287.504L287.937 279.573Z" fill="black"/>
<path d="M269.943 287.904H261.74C261.677 287.905 261.613 287.893 261.554 287.869C261.494 287.845 261.441 287.809 261.395 287.764C261.35 287.719 261.314 287.665 261.29 287.606C261.267 287.546 261.255 287.483 261.256 287.419C261.256 287.291 261.307 287.167 261.398 287.076C261.489 286.986 261.612 286.935 261.74 286.935H269.943C271.289 286.937 272.618 286.636 273.832 286.055C275.046 285.474 276.113 284.627 276.955 283.577C277.888 282.412 279.072 281.472 280.419 280.827C281.765 280.183 283.24 279.85 284.733 279.854H286.178C286.306 279.856 286.428 279.908 286.518 279.998C286.609 280.089 286.66 280.211 286.662 280.339C286.662 280.467 286.611 280.59 286.521 280.681C286.43 280.772 286.306 280.823 286.178 280.823H284.75C283.404 280.821 282.075 281.121 280.861 281.702C279.647 282.284 278.579 283.131 277.737 284.181C276.802 285.348 275.616 286.289 274.266 286.933C272.916 287.578 271.439 287.91 269.943 287.904Z" fill="black"/>
<path d="M133.263 281.902V285.447C133.263 287.045 135.193 287.708 136.791 287.708H261.384C262.965 287.708 264.843 287.045 264.843 285.447V281.902H133.263Z" fill="#263238"/>
<path opacity="0.4" d="M133.263 281.902V285.447C133.263 287.045 135.193 287.708 136.791 287.708H261.384C262.965 287.708 264.843 287.045 264.843 285.447V281.902H133.263Z" fill="#E8E8E8"/>
<path opacity="0.2" d="M175.712 281.902V285.447C175.712 287.045 177.607 287.708 179.205 287.708H261.383C262.964 287.708 264.843 287.045 264.843 285.447V281.902H175.712Z" fill="black"/>
<path d="M285.693 214.48L270.861 281.758C270.595 282.839 269.979 283.802 269.109 284.497C268.239 285.192 267.163 285.58 266.05 285.6H185.019C182.869 285.6 181.475 283.586 181.976 281.35L196.792 214.583C197.293 212.39 199.435 211.293 201.611 211.293H282.633C284.809 211.301 286.178 212.287 285.693 214.48Z" fill="#263238"/>
<path opacity="0.4" d="M285.694 214.48L270.861 281.758C270.595 282.839 269.979 283.802 269.109 284.497C268.239 285.192 267.164 285.58 266.05 285.6H187.774C185.598 285.6 184.229 283.586 184.714 281.35L199.546 214.583C200.031 212.39 202.19 211.293 204.366 211.293H282.634C284.81 211.301 286.178 212.287 285.694 214.48Z" fill="#E8E8E8"/>
<path opacity="0.2" d="M245.743 248.676C245.743 254.439 239.572 259.123 235.042 259.123C230.511 259.123 227.834 254.439 229.092 248.676C230.35 242.913 234.88 238.434 239.292 238.255C238 244.018 240.762 248.676 245.242 248.676C245.409 248.692 245.577 248.692 245.743 248.676Z" fill="black"/>
</g>
<defs>
<clipPath id="clip0_498_1993">
<rect width="425" height="317" fill="white"/>
</clipPath>
</defs>
</svg>
