<?xml version="1.0" encoding="UTF-8"?>
<svg width="38px" height="12px" viewBox="0 0 38 12" version="1.1" xmlns="http://www.w3.org/2000/svg" xmlns:xlink="http://www.w3.org/1999/xlink">
    <g id="Page-1" stroke="none" stroke-width="1" fill="none" fill-rule="evenodd">
        <g id="Brand-Logo" transform="translate(-1048.000000, -5026.000000)" fill="#232629">
            <g id="ic-technology-wpf" transform="translate(1048.000000, 5026.000000)">
                <path d="M3.11001789,11.875 L7.64758497,3.1915075 L7.92799642,11.875 L10.519678,11.875 L16.5442755,0 L14.063059,0 L9.9588551,8.22177694 L9.66994633,0 L6.89132379,0 L2.61717352,8.31087995 L2.50670841,0 L0,0 L0.467352415,11.875 L3.11001789,11.875 Z M17.657424,11.875 L18.65161,7.34694748 L20.3717935,7.34689929 C21.432787,7.3456143 22.1594819,7.31862945 22.5518784,7.26594475 C23.2429934,7.17414166 23.7924866,7.04048715 24.2003578,6.86498124 C24.608229,6.68947533 24.989192,6.43161664 25.3432469,6.09140518 C25.6973017,5.75119372 25.996124,5.29757844 26.2397138,4.73055935 C26.4833035,4.16354025 26.6050984,3.5803206 26.6050984,2.98090041 C26.6050984,2.33287858 26.4521467,1.7753098 26.1462433,1.30819407 C25.8403399,0.841078331 25.4253876,0.506267053 24.9013864,0.303760232 C24.3773852,0.101253411 23.6650268,0 22.7643113,0 L22.7643113,0 L17.6999106,0 L15.0912343,11.875 L17.657424,11.875 Z M19.9490558,5.37847996 L19.0764758,5.37858117 L19.832737,1.95216576 L21.6681574,1.95216576 C22.5008945,1.95216576 23.0376416,1.99401717 23.2783989,2.07771999 C23.5191562,2.16142281 23.7060972,2.29507731 23.8392218,2.47868349 C23.9723465,2.66228968 24.0389088,2.89719759 24.0389088,3.18340723 C24.0389088,3.6100216 23.9086166,4.00153479 23.6480322,4.35794679 C23.3874478,4.7143588 23.0305605,4.97356753 22.5773703,5.13557299 C22.1241801,5.29757844 21.2206321,5.37858117 19.8667263,5.37858117 L19.9490558,5.37847996 Z M29.2392665,11.875 L30.3439177,6.82042974 L36.3770125,6.82042974 L36.8103757,4.83586289 L30.7772809,4.83586289 L31.4060823,1.98456685 L37.5581395,1.98456685 L38,0 L29.2817531,0 L26.6730769,11.875 L29.2392665,11.875 Z" id="WPF"></path>
            </g>
        </g>
    </g>
</svg>