<svg width="80" height="80" viewBox="0 0 80 80" fill="none" xmlns="http://www.w3.org/2000/svg">
<path fill-rule="evenodd" clip-rule="evenodd" d="M39.4435 10C22.556 10 8.88916 23.6669 8.88916 40.5562C8.88916 57.4437 22.5554 71.1106 39.4429 71.1106C56.3323 71.1106 69.9998 57.4444 69.9998 40.5569C69.9998 23.6675 56.3317 10 39.4435 10ZM28.8885 26.3331C30.6654 26.3331 32.3329 26.555 33.666 27.1119C35.1117 27.6663 36.4448 28.445 37.7773 29.5556L34.6648 33.7769C33.776 33.1106 32.8873 32.6663 32.111 32.3338C31.3323 31.9994 30.3335 31.89 29.4423 31.89C25.6654 31.89 23.776 34.7775 23.776 40.6663C23.776 43.6669 24.2198 45.7787 25.221 46.9994C26.2223 48.3325 27.5554 48.8894 29.4423 48.8894C30.3335 48.8894 31.2223 48.7769 31.9985 48.445C32.7773 48.1106 33.666 47.6662 34.7773 46.9994L37.8873 51.4456C35.3335 53.5538 32.4435 54.5556 29.1104 54.5556C26.4442 54.5556 24.2204 53.9994 22.221 52.8881C20.3335 51.7775 18.776 50.1125 17.7773 48.0006C16.7773 45.8881 16.2223 43.4444 16.2223 40.5569C16.2223 37.7781 16.7767 35.2219 17.7773 33.1106C18.776 30.8888 20.3335 29.2212 22.221 28.0006C24.1104 26.9994 26.3323 26.3331 28.8885 26.3331ZM38.2217 27.3338H45.8879L51.2223 49.4431L56.8885 27.3338H64.3323L55.6667 53.9988C54.556 57.4438 52.8879 60 50.5567 61.8894C48.2223 63.7769 45.1123 64.7781 41.2229 65.1125L40.4442 60C43.0004 59.6656 44.8879 59.1112 46.1104 58.2225C46.5548 57.8881 47.4435 56.8894 47.4435 56.8894L38.2217 27.3338Z" fill="#4A4A4C"/>
<path fill-rule="evenodd" clip-rule="evenodd" d="M39.444 9.44434C22.2565 9.44434 8.33398 23.3668 8.33398 40.5568C8.33398 57.7431 22.2565 71.6662 39.4434 71.6662C56.6327 71.6662 70.5559 57.7437 70.5559 40.5568C70.5559 23.3675 56.6327 9.44434 39.444 9.44434ZM39.444 10.5556C56.0327 10.5556 69.4446 23.9668 69.4446 40.5568C69.4446 57.1443 56.0334 70.5556 39.4434 70.5556C22.8559 70.5556 9.44461 57.1437 9.44461 40.5568C9.44461 23.9662 22.8571 10.5556 39.444 10.5556Z" fill="white"/>
</svg>
