<svg width="32" height="32" viewBox="0 0 32 32" fill="none" xmlns="http://www.w3.org/2000/svg">
<g clip-path="url(#clip0_3642_4114)">
<path d="M0 16C0 7.16333 7.16333 0 16 0C24.8367 0 32 7.16333 32 16C32 24.8367 24.8367 32 16 32C7.16333 32 0 24.8367 0 16Z" fill="#333333"/>
<path d="M12.7996 25.6002C13.6483 25.6002 14.4622 25.2631 15.0624 24.6629C15.6625 24.0628 15.9996 23.2489 15.9996 22.4002V19.2002H12.7996C11.9509 19.2002 11.137 19.5373 10.5369 20.1375C9.93675 20.7376 9.59961 21.5515 9.59961 22.4002C9.59961 23.2489 9.93675 24.0628 10.5369 24.6629C11.137 25.2631 11.9509 25.6002 12.7996 25.6002Z" fill="#0ACF83"/>
<path d="M9.59961 15.9998C9.59961 15.1511 9.93675 14.3372 10.5369 13.7371C11.137 13.1369 11.9509 12.7998 12.7996 12.7998H15.9996V19.1998H12.7996C12.3794 19.1998 11.9633 19.117 11.575 18.9562C11.1868 18.7954 10.834 18.5597 10.5369 18.2625C10.2397 17.9654 10.004 17.6126 9.84319 17.2244C9.68238 16.8361 9.59961 16.42 9.59961 15.9998Z" fill="#A259FF"/>
<path d="M9.59961 9.60039C9.59961 8.7517 9.93675 7.93776 10.5369 7.33765C11.137 6.73753 11.9509 6.40039 12.7996 6.40039H15.9996V12.8004H12.7996C11.9509 12.8004 11.137 12.4632 10.5369 11.8631C9.93675 11.263 9.59961 10.4491 9.59961 9.60039Z" fill="#F24E1E"/>
<path d="M16 6.40039H19.2C20.0487 6.40039 20.8626 6.73753 21.4627 7.33765C22.0629 7.93776 22.4 8.7517 22.4 9.60039C22.4 10.4491 22.0629 11.263 21.4627 11.8631C20.8626 12.4632 20.0487 12.8004 19.2 12.8004H16V6.40039Z" fill="#FF7262"/>
<path d="M22.4 16C22.4 16.8487 22.0629 17.6627 21.4627 18.2628C20.8626 18.8629 20.0487 19.2 19.2 19.2C18.3513 19.2 17.5374 18.8629 16.9373 18.2628C16.3371 17.6627 16 16.8487 16 16C16 15.1514 16.3371 14.3374 16.9373 13.7373C17.5374 13.1372 18.3513 12.8 19.2 12.8C20.0487 12.8 20.8626 13.1372 21.4627 13.7373C22.0629 14.3374 22.4 15.1514 22.4 16Z" fill="#1ABCFE"/>
</g>
<defs>
<clipPath id="clip0_3642_4114">
<rect width="32" height="32" fill="white"/>
</clipPath>
</defs>
</svg>
