<svg width="80" height="80" viewBox="0 0 80 80" fill="none" xmlns="http://www.w3.org/2000/svg">
<path d="M68.3332 8.33337H11.6665L16.6665 65L39.9998 71.6667L63.3332 65L68.3332 8.33337Z" fill="#E65100"/>
<path d="M40 13.3334V66.5L58.6667 61.1667L62.8333 13.3334H40Z" fill="#FF6D00"/>
<path d="M40 41.6666V35H54.3333L53.1667 54.1666L40 58.5V51.5L46.8333 49.1666L47.3333 41.6666H40ZM54.8333 28.3333L55.3333 21.6666H40V28.3333H54.8333Z" fill="white"/>
<path d="M40.0002 51.5V58.5L26.8335 54.1666L26.1668 45H32.8335L33.1668 49.1666L40.0002 51.5ZM31.8335 28.3333H40.0002V21.6666H24.8335L26.0002 41.6666H40.0002V35H32.3335L31.8335 28.3333Z" fill="#EEEEEE"/>
</svg>
