<svg width="32" height="32" viewBox="0 0 32 32" fill="none" xmlns="http://www.w3.org/2000/svg">
<path d="M29.3338 7.4066V24.5933C29.3338 25.4399 28.8071 26.1933 28.0138 26.4733L22.1338 29.2333L22.6671 21.9999V9.99994L22.1338 2.7666L28.0138 5.5266C28.8071 5.8066 29.3338 6.55993 29.3338 7.4066Z" fill="#CE93D8"/>
<path d="M2.94434 22.5432L5.05034 23.8432C5.539 24.1366 6.15967 24.0866 6.59567 23.7199L22.667 10.6252V3.56857C22.667 2.7699 21.679 2.39657 21.1503 2.99523L6.00034 19.9152L2.94434 22.5432Z" fill="#8E24AA"/>
<path d="M2.94434 9.45689L5.05034 8.15689C5.539 7.86356 6.15967 7.91356 6.59567 8.28022L22.667 21.3756V28.4322C22.667 29.2309 21.679 29.6042 21.1503 29.0056L6.00034 12.0849L2.94434 9.45689Z" fill="#AB47BC"/>
<path d="M6.00033 12.0866V19.9133L3.86699 22.4066C3.48033 22.9133 2.66699 22.64 2.66699 22V9.99997C2.66699 9.35997 3.48033 9.08663 3.86699 9.5933L6.00033 12.0866Z" fill="#6A1B9A"/>
</svg>
