<svg width="80" height="80" viewBox="0 0 80 80" fill="none" xmlns="http://www.w3.org/2000/svg">
<path d="M69.6083 63.3333H10.3917C7.39833 63.3333 5 61.05 5 58.08V20.38C5 17.4083 7.39833 15 10.3917 15H69.6067C72.6 15 75 17.4083 75 20.38V58.08C75 61.05 72.6 63.3333 69.6083 63.3333Z" fill="#03A9F4"/>
<path d="M61.4117 38.795C61.5267 36.96 62.0017 36.1066 62.9551 36.1066C63.8684 36.1066 64.3684 36.985 64.4317 38.795H61.4117ZM68.2551 39.8916C68.2551 37.8416 67.8051 36.22 66.9534 35.0833C66.0534 33.9216 64.7101 33.3333 63.0217 33.3333C59.5417 33.3333 57.3617 35.91 57.3617 40.0366C57.3617 42.3433 57.9367 44.0816 59.0917 45.1783C60.1201 46.17 61.5967 46.6666 63.4751 46.6666C65.2201 46.6666 66.8367 46.2483 67.8617 45.575L67.4151 42.7616C66.4034 43.3133 65.2317 43.6133 63.9234 43.6133C63.1401 43.6133 62.5801 43.4416 62.1834 43.1C61.7467 42.735 61.5034 42.1466 61.4167 41.3066H68.1967C68.2401 41.115 68.2551 40.1766 68.2551 39.8916ZM51.7617 42.555C51.3934 43.1833 50.8767 43.5216 50.2784 43.5216C49.8767 43.5216 49.4917 43.4333 49.1634 43.2766V37.08C49.8767 36.345 50.5201 36.2616 50.7334 36.2616C51.7851 36.2616 52.3017 37.3966 52.3017 39.6233C52.3067 40.89 52.1151 41.8766 51.7617 42.555ZM55.1884 34.515C54.4584 33.5633 53.4234 33.0933 52.1134 33.0933C50.9267 33.0933 49.8751 33.5966 48.8901 34.6533L48.6534 33.3466H45.0001V51.6666L49.1351 50.9733L49.1634 46.3083C49.8084 46.51 50.4617 46.6166 51.0484 46.6166C52.0934 46.6166 53.5984 46.355 54.7734 45.0733C55.8851 43.8566 56.4334 41.97 56.4334 39.4716C56.4334 37.2633 56.0251 35.5883 55.1884 34.515ZM39.2117 33.3466H43.3334V46.6666H39.2117V33.3466ZM41.3067 32.055C42.5034 32.055 43.4734 31.065 43.4734 29.8666C43.4734 28.645 42.5001 27.6666 41.3067 27.6666C40.0767 27.6666 39.1017 28.645 39.1017 29.8666C39.1017 31.0666 40.0767 32.055 41.3067 32.055ZM37.4384 33.1666C36.2634 33.1666 35.3067 33.7866 34.9534 34.885L34.7034 33.35H31.0867V46.6666H35.2234V37.9166C35.7434 37.28 36.4717 37.05 37.4934 37.05C37.7051 37.05 37.9201 37.05 38.2234 37.0933V33.27C37.9184 33.2016 37.6667 33.1666 37.4384 33.1666ZM29.4667 36.425L29.9801 33.345H27.3117V29.6033L23.7634 30.1933L23.2484 33.345L22.0001 33.55L21.5384 36.4266H23.2451V42.4633C23.2451 44.0316 23.6417 45.1283 24.4451 45.7933C25.1467 46.3516 26.1301 46.615 27.5167 46.615C28.6067 46.615 29.2551 46.4283 29.6784 46.3083V43.0433C29.4567 43.1116 28.8784 43.235 28.4851 43.235C27.6851 43.235 27.3101 42.8183 27.3101 41.86V36.4183H29.4667V36.425ZM17.5517 38.4166C16.3734 37.975 15.6884 37.6283 15.6884 37.0783C15.6884 36.62 16.0701 36.355 16.7651 36.355C17.9934 36.355 19.2801 36.8233 20.1367 37.2616L20.6367 34.2133C19.9401 33.8766 18.5217 33.3333 16.5667 33.3333C15.1667 33.3333 14.0084 33.7 13.2101 34.3683C12.3234 35.0833 11.8734 36.1066 11.8734 37.345C11.8734 39.59 13.2467 40.5416 15.4834 41.3483C16.9117 41.8616 17.4067 42.2266 17.4067 42.795C17.4067 43.3316 16.9501 43.6516 16.0817 43.6516C15.0417 43.6516 13.3467 43.135 12.2034 42.48L11.7334 45.5683C12.6934 46.105 14.4601 46.6666 16.3134 46.6666C17.7917 46.6666 19.0167 46.3166 19.8167 45.6566C20.7634 44.9366 21.2234 43.8616 21.2234 42.4816C21.2267 40.1766 19.8184 39.2183 17.5517 38.4166Z" fill="white"/>
</svg>
