<svg width="80" height="80" viewBox="0 0 80 80" fill="none" xmlns="http://www.w3.org/2000/svg">
<g clip-path="url(#clip0_3642_4148)">
<path d="M17.3486 12.7631C12.7536 19.3662 13.3255 27.9581 16.8361 34.9756L17.093 35.4744L17.2574 35.7906L17.3599 35.9725L17.543 36.3C17.6518 36.4919 17.7636 36.6825 17.878 36.8744L18.0693 37.1894C18.1961 37.3931 18.3255 37.5956 18.458 37.7975L18.6236 38.0531C18.8068 38.3262 18.9936 38.5981 19.1868 38.8662L19.203 38.8869L19.298 39.015C19.4649 39.245 19.6368 39.4725 19.8111 39.6981L20.0043 39.9437C20.1599 40.1394 20.318 40.3331 20.4786 40.5275L20.6599 40.7437C20.8755 40.9975 21.0961 41.2512 21.3205 41.4987L21.3336 41.5125L21.3593 41.5406C21.5786 41.78 21.803 42.0144 22.0311 42.2487L22.2461 42.4656C22.4224 42.6431 22.6018 42.8175 22.7824 42.9912L23.0018 43.2C23.2436 43.4275 23.4874 43.6512 23.7368 43.8687L23.748 43.8787L23.8761 43.9875C24.0955 44.1781 24.3186 44.3656 24.5436 44.5512L24.8199 44.7719C25.0036 44.9187 25.1893 45.0644 25.3761 45.2069L25.6743 45.4325C25.8805 45.5844 26.0886 45.7337 26.2986 45.8806L26.5255 46.0419L26.5886 46.0869C26.7874 46.2244 26.9918 46.3562 27.1949 46.4881L27.4574 46.6631C27.7699 46.86 28.0868 47.0556 28.4068 47.2444L28.6693 47.3925C28.9049 47.5281 29.1418 47.6619 29.3818 47.7919L29.7761 47.9956L30.2861 48.2606L30.4036 48.3175L30.6124 48.4181C30.8793 48.5456 31.1486 48.6712 31.4205 48.7925L31.5911 48.8687C31.9024 49.005 32.2168 49.1356 32.5336 49.2612L32.7636 49.3512C33.0568 49.465 33.3543 49.5756 33.653 49.6806L33.7649 49.7194C34.0924 49.8344 34.4236 49.94 34.7568 50.0444L34.9961 50.1156C35.3349 50.2181 35.6705 50.3394 36.0199 50.4044C58.2405 54.4562 64.6949 37.0519 64.6949 37.0519C59.2736 44.1144 49.6518 45.9769 40.5349 43.9031C40.1893 43.825 39.8543 43.7169 39.5174 43.6181L39.2636 43.5406C38.9349 43.44 38.608 43.3344 38.2836 43.2219L38.1493 43.1737C37.8586 43.0712 37.5718 42.9637 37.2855 42.8531L37.043 42.7581C36.7299 42.6344 36.418 42.505 36.1105 42.3706L35.9243 42.2875C35.6599 42.1681 35.398 42.0475 35.1374 41.9219L34.9099 41.8125C34.7055 41.7131 34.5036 41.6075 34.3011 41.5031L33.8955 41.29C33.6486 41.1587 33.4068 41.0212 33.1661 40.8812L32.9199 40.7444C32.5993 40.555 32.283 40.36 31.9699 40.1619L31.7136 39.9912C31.4868 39.845 31.2605 39.6956 31.038 39.5419L30.8199 39.3887C30.6049 39.2375 30.3918 39.0831 30.1811 38.9275L29.898 38.7131C29.7043 38.565 29.5118 38.4156 29.3218 38.2625L29.0649 38.0562C28.8224 37.8575 28.583 37.6562 28.3468 37.4506L28.268 37.385C28.0124 37.1606 27.7611 36.93 27.513 36.6987L27.3005 36.4937C27.1168 36.3194 26.9355 36.1431 26.758 35.9619L26.5455 35.7494C26.3193 35.5181 26.0974 35.2837 25.8799 35.0456L25.8468 35.01C25.6168 34.7587 25.3918 34.5019 25.1718 34.2419L24.9949 34.0319C24.8305 33.8344 24.668 33.6331 24.5093 33.4312L24.3311 33.2094C24.1393 32.9612 23.953 32.7137 23.7699 32.4625C18.7086 25.5581 16.8899 16.0356 20.9355 8.21562M31.6111 7.19937C28.2886 11.9806 28.4686 18.3825 31.0611 23.4387C31.4955 24.2862 31.9843 25.1094 32.5305 25.8919C33.028 26.6062 33.5805 27.455 34.2411 28.0281C34.4805 28.2919 34.7311 28.5494 34.9868 28.8019L35.183 28.9962C35.4311 29.2369 35.6836 29.4737 35.9443 29.7037L35.9755 29.7306L35.983 29.7381C36.2718 29.9912 36.5699 30.2344 36.8724 30.4744L37.0743 30.6319C37.378 30.8644 37.6874 31.0931 38.0049 31.3112L38.0318 31.3319L38.4568 31.6112L38.658 31.7444C38.8849 31.89 39.1143 32.0312 39.348 32.1669L39.4455 32.2244C39.6468 32.34 39.8505 32.4537 40.0549 32.565L40.2718 32.6775L40.698 32.8987L40.7624 32.9281C41.0555 33.0719 41.3505 33.2112 41.6524 33.3425L41.8486 33.4237C42.0899 33.5256 42.333 33.6256 42.578 33.7194L42.8905 33.8344C43.113 33.9169 43.3355 33.9925 43.5605 34.0675L43.863 34.1644C44.1824 34.2631 44.4986 34.3887 44.8311 34.4444C61.9874 37.2862 65.948 24.0769 65.948 24.0769C62.378 29.2194 55.4636 31.6725 48.0855 29.7575C47.758 29.6712 47.4343 29.5775 47.1136 29.4769L46.8218 29.3825C46.5936 29.3094 46.3668 29.2306 46.1424 29.1487L45.8355 29.0344C45.5893 28.9394 45.3455 28.8412 45.1036 28.7387L44.9068 28.6556C44.6036 28.5237 44.3055 28.3844 44.0118 28.2394L43.563 28.0112L43.3043 27.8781C43.113 27.7744 42.923 27.6669 42.7361 27.5569L42.6005 27.48C42.368 27.3444 42.1393 27.205 41.913 27.06L41.7055 26.9219L41.2605 26.6269C40.9443 26.4087 40.6361 26.1806 40.333 25.9487L40.1243 25.7837C36.8949 23.2344 34.3349 19.7494 33.118 15.7981C31.8424 11.7 32.1174 7.09999 34.3274 3.36624M43.6068 3.04249C41.648 5.92499 41.4555 9.50561 42.8149 12.6894C44.248 16.0687 47.1849 18.7194 50.613 19.9769L51.0393 20.1237L51.2268 20.1837C51.4286 20.2475 51.6293 20.3212 51.838 20.36C61.3111 22.1906 63.8805 15.4994 64.5643 14.5137C62.3136 17.7544 58.5311 18.5325 53.8899 17.4056C53.5236 17.3169 53.1205 17.1844 52.7674 17.0587C52.3143 16.8969 51.868 16.7131 51.4336 16.505C50.6099 16.1087 49.8243 15.6287 49.0955 15.0787C44.9424 11.9275 42.363 5.91687 45.073 1.02124" fill="#0868AC"/>
<path d="M41.4743 60.1844H38.8331C38.6868 60.1844 38.5412 60.3019 38.51 60.445L37.5725 64.7825L36.635 69.12C36.6043 69.2631 36.4587 69.3806 36.3125 69.3806H34.4431C32.5937 69.3806 32.8075 68.1013 33.1862 66.3488L33.1975 66.2956L33.2387 66.0744L33.2462 66.0331L33.3306 65.5831L33.4212 65.1013L33.5175 64.6106L33.9437 62.5281L34.3706 60.4456C34.4 60.3019 34.3037 60.1838 34.1575 60.1838H31.4468C31.3006 60.1838 31.1556 60.3013 31.1256 60.445L30.5425 63.21L29.96 65.9756L29.9587 65.9794L29.905 66.2369C29.2337 69.3012 29.4112 72.2244 33.06 72.3163L33.1662 72.3181H38.8931C39.0393 72.3181 39.185 72.2006 39.2156 72.0575L40.4506 66.2519L41.6856 60.4456C41.7162 60.3019 41.6212 60.185 41.4743 60.1844ZM13.1893 60.1538H10.2893C10.1425 60.1538 9.9962 60.2713 9.9637 60.4138L9.6887 61.6275L9.4137 62.8413C9.38183 62.9844 9.47495 63.1013 9.62183 63.1013H12.5443C12.6912 63.1013 12.8368 62.9838 12.8681 62.8406L13.1337 61.6275L13.3993 60.4144C13.43 60.2713 13.3362 60.1538 13.1893 60.1538ZM12.3481 63.9313H9.42495C9.2787 63.9313 9.13183 64.0488 9.09933 64.1913L8.6887 66.01L8.2787 67.8281L8.16433 68.3494L7.76995 70.2056L7.3762 72.0625C7.34558 72.2056 7.28245 72.4369 7.23558 72.5756C7.23558 72.5756 6.68933 74.2006 5.7712 74.1819L5.6562 74.1794L4.86183 74.165C4.71558 74.1631 4.56808 74.2775 4.5337 74.4194L4.23058 75.6938L3.92808 76.9675C3.8937 77.11 3.9862 77.2275 4.13183 77.23C4.65245 77.2363 5.8187 77.2494 6.52433 77.2494C8.81745 77.2494 10.0268 75.9788 10.8012 72.3225L11.7081 68.1263L12.5587 64.1906C12.5893 64.0488 12.4943 63.9313 12.3481 63.9313ZM66.1712 62.9475L66.05 62.4469L65.9306 61.9344L65.87 61.6756C65.6325 60.7525 64.9356 60.2206 63.4218 60.2206L61.0656 60.2181L58.8956 60.215H56.4537C56.3075 60.215 56.1625 60.3325 56.1318 60.4756L56.0237 60.9856L55.8962 61.5881L55.8606 61.7575L54.7612 66.9075L53.7175 71.7963C53.6862 71.94 53.6762 72.1163 53.6937 72.1875C53.7112 72.2594 53.9931 72.3181 54.1393 72.3181H56.3418C56.4887 72.3181 56.6743 72.2919 56.7543 72.2594C56.8343 72.2269 56.9525 71.9388 56.9818 71.7956L57.3731 69.8588L57.765 67.9213L57.7656 67.9181L57.8181 67.66L58.2931 65.435L58.7125 63.47C58.7437 63.3269 58.8881 63.21 59.0343 63.2094L65.965 63.2063C66.1118 63.2075 66.2043 63.0906 66.1712 62.9475ZM75.0931 58.4225L74.5593 58.4244H72.3412C72.1943 58.4244 72.0062 58.5238 71.9243 58.645L67.0187 65.8313C66.9362 65.9525 66.8418 65.935 66.8093 65.7925L66.4481 64.2094C66.4156 64.0663 66.2687 63.9494 66.1218 63.9494H62.9687C62.8218 63.9494 62.735 64.0644 62.775 64.205L64.1881 69.1556C64.2281 69.2969 64.2312 69.5281 64.195 69.6706L63.5793 72.0663C63.5425 72.2088 63.6325 72.3244 63.7793 72.3244H66.8962C67.0425 72.3244 67.1925 72.2081 67.2287 72.0663L67.845 69.6706C67.8812 69.5275 67.9831 69.3163 68.0718 69.1988L76.0356 58.6294C76.1243 58.5119 76.0762 58.4163 75.93 58.4175L75.0931 58.4225ZM50.0393 64.6219V64.6194C50.0212 64.7781 49.8743 64.895 49.7275 64.895H45.7293C45.5906 64.895 45.5206 64.8013 45.5412 64.685L45.545 64.6756L45.5424 64.6769L45.5443 64.6638L45.5625 64.5956C45.9443 63.5806 46.7218 62.9144 48.1837 62.9144C49.83 62.9138 50.1512 63.7175 50.0393 64.6219ZM48.8662 60.0069C43.7343 60.0069 42.5181 63.1219 41.8356 66.2663C41.1537 69.4713 41.2118 72.4669 46.5231 72.4669H47.1668L47.3268 72.4663H47.3643L48.0018 72.4644H48.0131C49.4156 72.4588 50.8225 72.4481 51.3918 72.4438C51.5375 72.4413 51.68 72.3244 51.71 72.1813L51.925 71.1306L51.9668 70.9263L52.2231 69.6725C52.2525 69.5294 52.1568 69.4113 52.01 69.4113H47.2356C45.3362 69.4113 44.7725 68.9069 44.9806 67.4231H52.6125L52.6118 67.4238L52.6168 67.4231C52.7381 67.4213 52.8506 67.3375 52.895 67.2262L52.9131 67.16L52.9125 67.1606C54.0456 62.8863 53.7206 60.0075 48.8662 60.0069ZM24.61 64.6056L24.5375 64.8613L23.9612 66.9044L23.385 68.9463C23.3456 69.0881 23.1925 69.2031 23.0456 69.2031H19.9956C17.6818 69.2031 17.1181 67.3931 17.6818 64.7244C18.245 61.9944 19.3493 60.2975 21.6268 60.1256C24.7393 59.8906 25.3618 62.0794 24.61 64.6056ZM26.7025 69.0463C26.7025 69.0463 28.1406 65.5538 28.4668 63.5375C28.9125 60.8381 27.5606 56.9219 22.3393 56.9219C17.1481 56.9219 14.8931 60.66 14.0331 64.7244C13.1731 68.8181 14.3 72.4075 19.4618 72.3781L23.5343 72.3631L27.34 72.3494C27.4862 72.3481 27.6362 72.2319 27.6737 72.0906L28.3368 69.5619C28.3737 69.4194 28.2843 69.3031 28.1375 69.3019L27.5018 69.2981L26.8662 69.2944C26.7418 69.2938 26.6706 69.2125 26.6856 69.1056L26.7025 69.0463ZM52.4025 66.7081C52.4025 66.805 52.3243 66.8838 52.2275 66.8838C52.1312 66.8838 52.0525 66.805 52.0525 66.7081C52.0525 66.6119 52.1306 66.5338 52.2275 66.5338C52.3243 66.5338 52.4025 66.6119 52.4025 66.7081Z" fill="#131B28"/>
</g>
<defs>
<clipPath id="clip0_3642_4148">
<rect width="80" height="80" fill="white"/>
</clipPath>
</defs>
</svg>
