<svg width="80" height="80" viewBox="0 0 80 80" fill="none" xmlns="http://www.w3.org/2000/svg">
<path d="M73.0925 61.1294C68.8032 61.0126 65.5275 61.4119 62.7269 62.5926C61.9313 62.9282 60.6613 62.9376 60.5313 63.9344C60.9688 64.3926 61.0369 65.0776 61.3844 65.6413C62.0532 66.7226 63.1819 68.1738 64.1894 68.9338C65.2907 69.7651 66.425 70.6532 67.605 71.3726C69.7038 72.6519 72.0469 73.3832 74.0675 74.6651C75.2588 75.4213 76.4419 76.3732 77.6038 77.2257C78.1788 77.6476 78.5644 78.3032 79.3113 78.5676V78.4463C78.9188 77.9463 78.8175 77.2601 78.4575 76.7382L76.8719 75.1526C75.3219 73.0951 73.3538 71.2876 71.2619 69.7869C69.5938 68.5894 65.8607 66.9719 65.165 65.0313L65.0432 64.9094C66.2257 64.7757 67.61 64.3482 68.7019 64.0551C70.5357 63.5638 72.1744 63.6907 74.0675 63.2019L76.6282 62.4701V61.9826C75.6713 61.0007 74.9888 59.7007 73.9457 58.8119C71.2144 56.4869 68.2344 54.1638 65.1657 52.2263C63.4632 51.1526 61.36 50.4544 59.5557 49.5438C58.9488 49.2369 57.8825 49.0776 57.4819 48.5676C56.5338 47.3601 56.0182 45.8288 55.2875 44.4219C53.7569 41.4738 52.2538 38.2544 50.8975 35.1526C49.9725 33.0376 49.3682 30.9526 48.2144 29.0551C42.6769 19.9507 36.7169 14.4563 27.4838 9.05506C25.5188 7.90631 23.1532 7.45318 20.6532 6.85943C19.3125 6.77881 17.9707 6.69693 16.6294 6.61506C15.81 6.27381 14.9588 5.27193 14.1907 4.78568C11.1319 2.85318 3.28567 -1.34994 1.02067 4.17631C-0.409959 7.66443 3.15879 11.0669 4.43442 12.8351C5.33067 14.0738 6.47754 15.4644 7.11754 16.8588C7.53879 17.7757 7.61129 18.6951 7.97192 19.6644C8.85754 22.0532 9.62942 24.6519 10.7763 26.8588C11.3557 27.9763 11.9944 29.1526 12.7275 30.1513C13.1763 30.7644 13.9469 31.0344 14.0682 31.9807C13.3157 33.0344 13.2725 34.6707 12.8494 36.0057C10.9432 42.0151 11.6625 49.4851 14.435 53.9326C15.285 55.2988 17.2894 58.2269 20.0444 57.1032C22.4544 56.1219 21.9163 53.0794 22.6057 50.3957C22.7613 49.7876 22.6657 49.3401 22.9713 48.9326V49.0544L25.1669 53.4444C26.7919 56.0613 29.6744 58.7957 32.1182 60.6407C33.385 61.5976 34.3825 63.2513 36.0207 63.8113V63.6888H35.8988C35.5813 63.1944 35.0844 62.9894 34.6794 62.5919C33.725 61.6563 32.6638 60.4932 31.875 59.4213C29.6525 56.4044 27.6888 53.1026 25.8994 49.6657C25.0444 48.0238 24.3013 46.2138 23.5813 44.5432C23.3038 43.8994 23.3075 42.9251 22.7288 42.5919C21.9394 43.8157 20.7775 44.8057 20.1675 46.2507C19.1919 48.5607 19.0663 51.3782 18.7044 54.2994C18.4907 54.3757 18.5857 54.3232 18.46 54.4207C16.7613 54.0113 16.165 52.2632 15.5332 50.7626C13.9369 46.9688 13.64 40.8613 15.045 36.4944C15.4088 35.3638 17.0513 31.8063 16.3863 30.7619C16.0688 29.7207 15.0213 29.1182 14.4357 28.3226C13.71 27.3388 12.9863 26.0438 12.4832 24.9076C11.1769 21.9507 10.5669 18.6301 9.19129 15.6401C8.53317 14.2107 7.42129 12.7638 6.50817 11.4938C5.49754 10.0857 4.36504 9.04881 3.58129 7.34693C3.30254 6.74193 2.92442 5.77318 3.33692 5.15131C3.46817 4.73193 3.65442 4.55693 4.06879 4.42006C4.77629 3.87443 6.74629 4.60131 7.48254 4.90693C9.43817 5.71943 11.0707 6.49318 12.7275 7.59068C13.5219 8.11818 14.3269 9.13756 15.2882 9.42006H16.3857C18.1025 9.81443 20.0257 9.54193 21.63 10.0294C24.465 10.8907 27.0057 12.2313 29.3125 13.6882C36.3413 18.1269 42.0888 24.4444 46.02 31.9813C46.6525 33.1951 46.9263 34.3526 47.4832 35.6401C48.6069 38.2357 50.0225 40.9063 51.1407 43.4451C52.2569 45.9776 53.3444 48.5332 54.9219 50.6407C55.7513 51.7482 58.9538 52.3426 60.41 52.9582C61.43 53.3888 63.1019 53.8388 64.0688 54.4207C65.9144 55.5344 67.7032 56.8601 69.435 58.0801C70.2994 58.6894 72.96 60.0276 73.0925 61.1294ZM18.5807 14.6663C17.6863 14.6494 17.0538 14.7638 16.385 14.9094V15.0313H16.5069C16.9338 15.9076 17.6869 16.4726 18.2138 17.2269C18.62 18.0813 19.0269 18.9344 19.4338 19.7876L19.555 19.6669C20.3107 19.1338 20.6563 18.2832 20.6519 16.9832C20.3494 16.6651 20.305 16.2663 20.0425 15.8863C19.695 15.3794 19.0207 15.0913 18.5807 14.6663Z" fill="#00618A"/>
</svg>
