<svg width="80" height="80" viewBox="0 0 80 80" fill="none" xmlns="http://www.w3.org/2000/svg">
<g clip-path="url(#clip0_3151_149)">
<rect width="80" height="80" fill="#05A1E6"/>
<path d="M32.606 58.1818L37.0909 47.2727H47.1515C51.1515 47.2727 54.4242 44 54.4242 40C54.4242 36 51.1515 32.7273 47.1515 32.7273H14.4242L32.606 14.5455V21.8182H47.1515C57.2121 21.8182 65.3333 29.9394 65.3333 40C65.3333 49.8182 57.5758 57.6969 48 58.0606L62.7879 72.8484C73.2121 65.5757 80 53.5757 80 40C80 17.9394 62.0606 0 40 0C17.9394 0 0 17.9394 0 40C0 62.0606 17.9394 80 40 80C44.3636 80 48.6061 79.2727 52.4849 77.9394L32.606 58.1818Z" fill="white"/>
</g>
<defs>
<clipPath id="clip0_3151_149">
<rect width="80" height="80" fill="white"/>
</clipPath>
</defs>
</svg>
