<svg width="40" height="40" viewBox="0 0 40 40" fill="none" xmlns="http://www.w3.org/2000/svg">
<g clip-path="url(#clip0_516_781)">
<path d="M31.6667 19.1667V30.8333C31.6667 31.2933 31.2933 31.6667 30.8333 31.6667C30.3733 31.6667 30 31.2933 30 30.8333V19.1667C30 18.7067 30.3733 18.3333 30.8333 18.3333C31.2933 18.3333 31.6667 18.7067 31.6667 19.1667ZM39.1667 15C38.7067 15 38.3333 15.3733 38.3333 15.8333V32.5C38.3333 35.7167 35.7167 38.3333 32.5 38.3333H7.5C4.28333 38.3333 1.66667 35.7167 1.66667 32.5V7.5C1.66667 4.28333 4.28333 1.66667 7.5 1.66667H24.1667C24.6267 1.66667 25 1.29333 25 0.833333C25 0.373333 24.6267 0 24.1667 0H7.5C3.365 0 0 3.365 0 7.5V32.5C0 36.635 3.365 40 7.5 40H32.5C36.635 40 40 36.635 40 32.5V15.8333C40 15.3733 39.6267 15 39.1667 15ZM24.705 7.02833L29.4217 5.24333L31.31 0.523333C31.5633 -0.11 32.6033 -0.11 32.8583 0.523333L34.75 5.25L39.4767 7.14167C39.7933 7.26833 40 7.575 40 7.915C40 8.255 39.7917 8.56167 39.4767 8.68833L34.75 10.58L32.8583 15.3067C32.7317 15.6233 32.425 15.83 32.085 15.83C31.745 15.83 31.4383 15.6217 31.3117 15.3067L29.4167 10.57L24.6783 8.57333C24.365 8.44 24.1617 8.13 24.1683 7.79C24.175 7.45 24.3883 7.14667 24.7067 7.02667L24.705 7.02833ZM27.2433 7.85L30.3833 9.17333C30.5883 9.26 30.75 9.425 30.8333 9.63167L32.0833 12.7567L33.3333 9.63167C33.4183 9.42 33.585 9.25167 33.7983 9.16667L36.9233 7.91667L33.7983 6.66667C33.5867 6.58167 33.4183 6.415 33.3333 6.20167L32.0833 3.07667L30.8333 6.20167C30.7467 6.41833 30.5733 6.58833 30.3533 6.67167L27.2433 7.85ZM18.6533 10.4017L24.9617 30.5867C25.1 31.025 24.855 31.4933 24.415 31.63C24.3333 31.6567 24.2483 31.6683 24.1667 31.6683C23.8117 31.6683 23.4833 31.44 23.3717 31.0833L21.4717 25.0017H10.1967L8.29667 31.0833C8.15833 31.5233 7.69 31.7683 7.25333 31.63C6.81333 31.4933 6.56833 31.025 6.70667 30.5867L13.015 10.4017C13.4083 9.14167 14.5167 8.32667 15.835 8.32667C17.155 8.32667 18.26 9.14167 18.6533 10.4017ZM20.95 23.335L17.0633 10.8983C16.855 10.2317 16.2917 9.995 15.8333 9.995C15.375 9.995 14.8117 10.2333 14.6033 10.9L10.7167 23.335H20.95Z" fill="black"/>
</g>
<defs>
<clipPath id="clip0_516_781">
<rect width="40" height="40" fill="white"/>
</clipPath>
</defs>
</svg>
