<svg width="40" height="40" viewBox="0 0 40 40" fill="none" xmlns="http://www.w3.org/2000/svg">
<g clip-path="url(#clip0_516_779)">
<path d="M17.847 18.2583L18.897 21.6667H16.7736L17.847 18.2583ZM37.747 31.015C36.7853 32.5633 34.8086 33.3067 32.192 33.3067C31.4686 33.3067 30.6803 33.2283 29.8653 33.1167C30.027 32.6067 30.1786 32.085 30.3186 31.545C33.3503 31.9333 35.5253 31.4333 36.3303 30.1367C37.8103 27.7517 34.857 22.43 28.247 17.225C28.3003 18.135 28.3486 19.05 28.3486 20.0017C28.3486 31.2167 24.6886 40.0017 20.0153 40.0017C17.9803 40.0017 16.137 38.3317 14.7036 35.5233C15.2353 35.37 15.7786 35.185 16.322 35.0017C17.447 37.1233 18.7586 38.335 20.0153 38.335C22.512 38.335 25.2286 33.6017 26.2536 26.27C25.7186 26.6433 25.1686 27.0117 24.592 27.3717C19.9603 30.25 15.152 32.2517 11.0553 33.01C9.88195 33.2267 8.79862 33.3333 7.81695 33.3333C5.15529 33.3333 3.23695 32.545 2.28695 31.02C2.28695 31.02 2.28529 31.02 2.28362 31.0167C1.00362 28.955 1.80029 25.9117 4.15529 22.6117C4.53029 23.0067 4.92029 23.4 5.32862 23.7917C3.45862 26.4783 2.85862 28.7833 3.69862 30.1367C4.59862 31.5817 7.16362 32.0333 10.7503 31.37C13.0303 30.9483 15.5536 30.105 18.147 28.93C17.247 28.445 16.3436 27.9333 15.4353 27.37C5.50195 21.195 -0.27638 13.1233 2.28362 8.99C2.28362 8.99 2.28362 8.98667 2.28529 8.985C3.51029 7.01 6.39695 6.35833 10.1503 6.875C9.99029 7.38667 9.84195 7.91167 9.70195 8.455C6.67695 8.06833 4.50695 8.56833 3.70195 9.86333C2.22029 12.25 5.17862 17.58 11.8003 22.79C11.7486 21.87 11.667 20.96 11.667 20C11.667 8.78667 15.3436 0.00166667 20.0153 0C22.0486 0 23.8903 1.66667 25.322 4.47C24.7886 4.625 24.2486 4.79667 23.7003 4.985C22.577 2.87333 21.2686 1.66833 20.0153 1.66833C17.517 1.66833 14.7986 6.40667 13.7753 13.745C14.3253 13.3733 14.857 12.9933 15.437 12.6333C25.3753 6.45833 35.177 4.855 37.747 8.98667C39.0286 11.0483 38.2286 14.0933 35.8736 17.3933C35.4986 16.9983 35.1103 16.605 34.702 16.2117C36.572 13.5233 37.172 11.22 36.332 9.86667C34.8953 7.555 29.1303 7.75167 21.8503 11.0717C22.7603 11.555 23.6736 12.06 24.5953 12.6333C34.5386 18.81 40.3153 26.885 37.7486 31.0167L37.747 31.015ZM21.667 25L18.5886 15H17.1253L13.9786 25H15.727L16.252 23.3333H19.412L19.9253 25H21.6686H21.667ZM25.0003 15H23.3336V25H25.0003V15Z" fill="black"/>
</g>
<defs>
<clipPath id="clip0_516_779">
<rect width="40" height="40" fill="white"/>
</clipPath>
</defs>
</svg>
