<svg width="40" height="40" viewBox="0 0 40 40" fill="none" xmlns="http://www.w3.org/2000/svg">
<g clip-path="url(#clip0_516_777)">
<path d="M40 30.8333V34.1667C40 37.3833 37.3833 40 34.1667 40H5.83333C2.61667 40 0 37.3833 0 34.1667V30.8333C0 27.6167 2.61667 25 5.83333 25H9.16667C9.62667 25 10 25.3733 10 25.8333C10 26.2933 9.62667 26.6667 9.16667 26.6667H5.83333C3.535 26.6667 1.66667 28.535 1.66667 30.8333V34.1667C1.66667 36.465 3.535 38.3333 5.83333 38.3333H34.1667C36.465 38.3333 38.3333 36.465 38.3333 34.1667V30.8333C38.3333 28.535 36.465 26.6667 34.1667 26.6667H30.8333C30.3733 26.6667 30 26.2933 30 25.8333C30 25.3733 30.3733 25 30.8333 25H34.1667C37.3833 25 40 27.6167 40 30.8333ZM40 5.83333V7.5C40 10.7167 37.3833 13.3333 34.1667 13.3333H31.6667V15.8333C31.6667 18.13 29.7983 20 27.5 20H20.8333L20.8367 28.59L25.2483 24.1767C25.5733 23.8517 26.1017 23.8517 26.4267 24.1767C26.7517 24.5017 26.7517 25.03 26.4267 25.355L21.6133 30.17C20.7667 31.0533 19.2417 31.0533 18.395 30.17L13.58 25.355C13.255 25.03 13.255 24.5017 13.58 24.1767C13.905 23.8517 14.4333 23.8517 14.7583 24.1767L19.1683 28.5867L19.165 20H12.5C10.2017 20 8.33333 18.13 8.33333 15.8333V13.3333H5.83333C2.61667 13.3333 0 10.7167 0 7.5V5.83333C0 2.61667 2.61667 0 5.83333 0H12.5C15.7167 0 18.3333 2.61667 18.3333 5.83333V7.5C18.3333 10.7167 15.7167 13.3333 12.5 13.3333H10V15.8333C10 17.2117 11.1217 18.3333 12.5 18.3333H27.5C28.8783 18.3333 30 17.2117 30 15.8333V13.3333H27.5C24.2833 13.3333 21.6667 10.7167 21.6667 7.5V5.83333C21.6667 2.61667 24.2833 0 27.5 0H34.1667C37.3833 0 40 2.61667 40 5.83333ZM5.83333 11.6667H12.5C14.7983 11.6667 16.6667 9.79667 16.6667 7.5V5.83333C16.6667 3.53667 14.7983 1.66667 12.5 1.66667H5.83333C3.535 1.66667 1.66667 3.53667 1.66667 5.83333V7.5C1.66667 9.79667 3.535 11.6667 5.83333 11.6667ZM38.3333 5.83333C38.3333 3.53667 36.465 1.66667 34.1667 1.66667H27.5C25.2017 1.66667 23.3333 3.53667 23.3333 5.83333V7.5C23.3333 9.79667 25.2017 11.6667 27.5 11.6667H34.1667C36.465 11.6667 38.3333 9.79667 38.3333 7.5V5.83333Z" fill="black"/>
</g>
<defs>
<clipPath id="clip0_516_777">
<rect width="40" height="40" fill="white"/>
</clipPath>
</defs>
</svg>
