<svg width="40" height="40" viewBox="0 0 40 40" fill="none" xmlns="http://www.w3.org/2000/svg">
<g clip-path="url(#clip0_516_773)">
<path d="M33.3333 26.6667H33.18C33.2733 26.405 33.3333 26.1267 33.3333 25.8333V24.1667C33.3333 22.7883 32.2117 21.6667 30.8333 21.6667H29.1667C27.7883 21.6667 26.6667 22.7883 26.6667 24.1667V25.8333C26.6667 26.1267 26.7267 26.405 26.82 26.6667H23.18C23.2733 26.405 23.3333 26.1267 23.3333 25.8333V24.1667C23.3333 22.7883 22.2117 21.6667 20.8333 21.6667H19.1667C17.7883 21.6667 16.6667 22.7883 16.6667 24.1667V25.8333C16.6667 26.1267 16.7267 26.405 16.82 26.6667H13.18C13.2733 26.405 13.3333 26.1267 13.3333 25.8333V24.1667C13.3333 22.7883 12.2117 21.6667 10.8333 21.6667H9.16667C7.78833 21.6667 6.66667 22.7883 6.66667 24.1667V25.8333C6.66667 26.1267 6.72667 26.405 6.82 26.6667H6.66667C2.99 26.6667 0 29.6567 0 33.3333C0 37.01 2.99 40 6.66667 40H33.3333C37.01 40 40 37.01 40 33.3333C40 29.6567 37.01 26.6667 33.3333 26.6667ZM28.3333 24.1667C28.3333 23.7067 28.7067 23.3333 29.1667 23.3333H30.8333C31.2933 23.3333 31.6667 23.7067 31.6667 24.1667V25.8333C31.6667 26.2933 31.2933 26.6667 30.8333 26.6667H29.1667C28.7067 26.6667 28.3333 26.2933 28.3333 25.8333V24.1667ZM18.3333 24.1667C18.3333 23.7067 18.7067 23.3333 19.1667 23.3333H20.8333C21.2933 23.3333 21.6667 23.7067 21.6667 24.1667V25.8333C21.6667 26.2933 21.2933 26.6667 20.8333 26.6667H19.1667C18.7067 26.6667 18.3333 26.2933 18.3333 25.8333V24.1667ZM8.33333 24.1667C8.33333 23.7067 8.70667 23.3333 9.16667 23.3333H10.8333C11.2933 23.3333 11.6667 23.7067 11.6667 24.1667V25.8333C11.6667 26.2933 11.2933 26.6667 10.8333 26.6667H9.16667C8.70667 26.6667 8.33333 26.2933 8.33333 25.8333V24.1667ZM33.3333 38.3333H6.66667C3.91 38.3333 1.66667 36.09 1.66667 33.3333C1.66667 30.5767 3.91 28.3333 6.66667 28.3333H33.3333C36.09 28.3333 38.3333 30.5767 38.3333 33.3333C38.3333 36.09 36.09 38.3333 33.3333 38.3333ZM0.833333 1.66667H6.66667V2.17667C6.66667 4.72833 8.3 6.96333 10.7317 7.735L23.2833 11.7283C22.3067 12.4917 21.6667 13.6667 21.6667 14.9983V17.4983C21.6667 17.9583 22.04 18.3317 22.5 18.3317C22.96 18.3317 23.3333 17.9583 23.3333 17.4983V14.9983C23.3333 13.62 24.455 12.4983 25.8333 12.4983C27.2117 12.4983 28.3333 13.62 28.3333 14.9983V17.4983C28.3333 17.9583 28.7067 18.3317 29.1667 18.3317C29.6267 18.3317 30 17.9583 30 17.4983V14.9983C30 12.7667 28.2317 10.9533 26.0233 10.8517L13.3333 6.81333V1.66667H39.1667C39.6267 1.66667 40 1.29333 40 0.833333C40 0.373333 39.6267 0 39.1667 0H0.833333C0.373333 0 0 0.373333 0 0.833333C0 1.29333 0.373333 1.66667 0.833333 1.66667ZM8.33333 1.66667H11.6667V6.285L11.2367 6.14833C9.5 5.59667 8.33333 4 8.33333 2.17833V1.66833V1.66667ZM26.6667 33.3333C26.6667 34.2533 25.92 35 25 35C24.08 35 23.3333 34.2533 23.3333 33.3333C23.3333 32.4133 24.08 31.6667 25 31.6667C25.92 31.6667 26.6667 32.4133 26.6667 33.3333ZM16.6667 33.3333C16.6667 34.2533 15.92 35 15 35C14.08 35 13.3333 34.2533 13.3333 33.3333C13.3333 32.4133 14.08 31.6667 15 31.6667C15.92 31.6667 16.6667 32.4133 16.6667 33.3333ZM8.33333 33.3333C8.33333 34.2533 7.58667 35 6.66667 35C5.74667 35 5 34.2533 5 33.3333C5 32.4133 5.74667 31.6667 6.66667 31.6667C7.58667 31.6667 8.33333 32.4133 8.33333 33.3333ZM35 33.3333C35 34.2533 34.2533 35 33.3333 35C32.4133 35 31.6667 34.2533 31.6667 33.3333C31.6667 32.4133 32.4133 31.6667 33.3333 31.6667C34.2533 31.6667 35 32.4133 35 33.3333Z" fill="black"/>
</g>
<defs>
<clipPath id="clip0_516_773">
<rect width="40" height="40" fill="white"/>
</clipPath>
</defs>
</svg>
