<svg width="40" height="40" viewBox="0 0 40 40" fill="none" xmlns="http://www.w3.org/2000/svg">
<g clip-path="url(#clip0_516_771)">
<path d="M36.485 18.4334L37.59 17.3284C38.5333 16.3834 39.055 15.1284 39.055 13.7918C39.055 12.4551 38.535 11.2001 37.59 10.2568L35.9566 8.61844C38.435 6.92011 38.6183 6.76677 38.7016 6.69511C39.4616 6.03677 39.9183 5.12177 39.99 4.12011C40.0616 3.11844 39.7383 2.14677 39.0833 1.39344C38.37 0.558438 37.3933 0.070105 36.335 0.0184384C35.2683 -0.0465616 34.2866 0.346772 33.5466 1.06011C33.465 1.13677 33.4516 1.15177 31.4166 4.08511L29.9066 2.57344C27.955 0.621772 24.7833 0.626772 22.835 2.57344L21.7016 3.70677C21.3516 4.05677 21.1766 4.54177 21.2216 5.03677C21.2666 5.53344 21.53 5.98011 21.9416 6.26177C23.9216 7.61511 24.2416 7.85844 24.2833 7.89344C24.7033 8.25677 24.9566 8.76344 24.9966 9.31677C25.0366 9.87011 24.8566 10.4084 24.5266 10.7901C23.48 11.8584 22.34 11.9518 21.4716 11.1268C21.3816 11.0118 20.5916 9.92844 19.5883 8.55011C19.3016 8.15344 18.8566 7.90511 18.3666 7.86677C17.885 7.82844 17.4033 8.00511 17.06 8.34844L8.28997 17.0451C7.05663 15.1601 6.78497 14.7784 6.66663 14.6384C5.97997 13.8468 4.99663 13.3718 3.96997 13.3351C2.9233 13.2801 1.93163 13.7068 1.16497 14.4734C-0.323366 15.9018 -0.370033 18.2751 1.06163 19.7651C1.12497 19.8318 1.1433 19.8501 3.5933 21.6784L2.60163 22.6651C1.6533 23.6084 1.12997 24.8651 1.1283 26.2034C1.12663 27.5418 1.64663 28.8001 2.5933 29.7451L3.96663 31.1168C4.30497 31.4551 4.77163 31.6318 5.2483 31.6018C5.7283 31.5718 6.1733 31.3368 6.46663 30.9551C7.3483 29.8134 8.04663 28.9118 8.0733 28.8701C8.8783 28.0951 10.3166 28.1701 11.1166 29.0018C11.49 29.4318 11.69 30.0134 11.665 30.5968C11.64 31.1818 11.4 31.7001 10.9966 32.0501C10.8383 32.1851 10.04 32.7768 9.05997 33.5001C8.6683 33.7901 8.42163 34.2334 8.38497 34.7201C8.34997 35.2051 8.52497 35.6784 8.8683 36.0218L10.28 37.4334C12.225 39.3784 15.3933 39.3818 17.3416 37.4434L18.86 35.9401C20.985 38.8801 20.9933 38.8868 21.0683 38.9568C21.7716 39.6334 22.69 40.0018 23.6633 40.0018C23.6883 40.0018 23.7133 40.0018 23.74 40.0018C24.7416 39.9818 25.6733 39.5734 26.3433 38.8734C27.1183 38.1284 27.5283 37.1418 27.5 36.0951C27.4716 35.0384 26.9983 34.0351 26.1933 33.3368C26.065 33.2284 25.6433 32.9184 23.455 31.4034L31.7366 23.1901C33.4866 25.5384 33.5116 25.5634 33.5766 25.6251C35.1316 27.1151 37.265 27.0118 39.0866 25.2968C39.7433 24.5401 40.065 23.5734 39.9933 22.5734C39.9216 21.5751 39.4666 20.6651 38.705 20.0051C38.5883 19.9051 38.24 19.6484 36.4883 18.4368L36.485 18.4334ZM22.2833 30.2151C21.9283 30.5634 21.75 31.0484 21.7933 31.5468C21.8366 32.0451 22.0983 32.4934 22.51 32.7768C24.59 34.2118 25.0366 34.5401 25.11 34.5984C25.5566 34.9851 25.82 35.5451 25.8366 36.1351C25.8466 36.5401 25.7416 37.1368 25.1666 37.6934C24.7816 38.0934 24.2633 38.3201 23.7066 38.3318C23.2 38.3618 22.625 38.1368 22.295 37.8301C22.1933 37.6984 21.305 36.4734 20.2116 34.9601C19.925 34.5634 19.48 34.3134 18.9916 34.2734C18.9466 34.2701 18.9016 34.2684 18.8566 34.2684C18.4183 34.2684 17.9966 34.4401 17.6833 34.7518L16.1683 36.2584C14.87 37.5518 12.7583 37.5501 11.46 36.2518L10.0516 34.8368C11.075 34.0818 11.9066 33.4601 12.0816 33.3118C12.8433 32.6518 13.2866 31.7118 13.3316 30.6651C13.375 29.6601 13.0266 28.6551 12.35 27.8751C10.8783 26.3468 8.39163 26.2501 6.91997 27.6668C6.85997 27.7251 6.84497 27.7384 5.1483 29.9368L3.77497 28.5634C3.14497 27.9334 2.7983 27.0934 2.7983 26.2018C2.7983 25.3101 3.1483 24.4718 3.77997 23.8434L4.77163 22.8568C5.11497 22.5151 5.29163 22.0418 5.2583 21.5584C5.2233 21.0734 4.97997 20.6284 4.59163 20.3401C3.3633 19.4218 2.3133 18.6368 2.26497 18.6051C1.47163 17.7801 1.4983 16.4634 2.33497 15.6601C2.9083 15.0868 3.51497 14.9934 3.9133 14.9984C4.47997 15.0184 5.02497 15.2834 5.39997 15.7168C5.46497 15.7968 5.74663 16.1934 6.89663 17.9534C7.17163 18.3751 7.61497 18.6484 8.11497 18.7018C8.60997 18.7534 9.10497 18.5851 9.46163 18.2334L13.2883 14.4651L17.04 18.2184C14.4233 20.1634 14.4066 20.1801 14.3433 20.2484C13.645 20.9751 13.2883 21.9551 13.3416 23.0068C13.3916 24.0134 13.83 24.9851 14.5766 25.7001C16.1716 27.0818 18.6483 26.9501 19.9933 25.4001C20.06 25.3218 20.2366 25.1101 21.7533 22.9284L25.6866 26.8634L22.285 30.2118L22.2833 30.2151ZM37.8833 24.1384C36.7733 25.1784 35.625 25.2784 34.7933 24.4868C34.6983 24.3701 33.955 23.3751 33.07 22.1884C32.78 21.8001 32.3366 21.5584 31.8533 21.5234C31.3516 21.4818 30.8966 21.6651 30.555 22.0068L26.8683 25.6934L22.93 21.7518C22.5783 21.4018 22.095 21.2284 21.6016 21.2718C21.1083 21.3168 20.6633 21.5751 20.3816 21.9818C19.0566 23.8918 18.7766 24.2584 18.725 24.3184C17.9933 25.1618 16.5616 25.2201 15.6983 24.4718C15.2866 24.0768 15.035 23.5134 15.005 22.9268C14.975 22.3384 15.1666 21.7984 15.475 21.4701C15.6033 21.3668 16.7366 20.5234 18.035 19.5601C18.4233 19.2701 18.6666 18.8268 18.7033 18.3418C18.7383 17.8584 18.5633 17.3851 18.22 17.0434L14.4716 13.2951L18.24 9.53177C20.15 12.1584 20.17 12.1784 20.2433 12.2501C21.8416 13.7818 24.0416 13.6684 25.7533 11.9218C26.41 11.1651 26.7316 10.1984 26.66 9.20011C26.59 8.20177 26.1333 7.29011 25.37 6.62844C25.295 6.56511 25.1216 6.41677 22.8833 4.88511L24.0166 3.75011C25.315 2.45344 27.4316 2.45011 28.7316 3.75011L30.2416 5.26344C30.5916 5.61177 31.0816 5.78011 31.5683 5.74344C32.0633 5.69844 32.5083 5.44011 32.7916 5.03177C33.8183 3.54844 34.685 2.30511 34.7066 2.25677C35.1166 1.86177 35.6733 1.65011 36.2566 1.68011C36.8516 1.71011 37.4066 1.99177 37.8233 2.47844C38.19 2.90011 38.37 3.44177 38.3316 4.00011C38.2916 4.55844 38.0366 5.06844 37.6216 5.42511C37.555 5.48177 37.165 5.77011 35.0166 7.24177C34.6066 7.52344 34.345 7.97177 34.2983 8.46677C34.2533 8.96011 34.4266 9.44511 34.7766 9.79677L36.4133 11.4334C37.0433 12.0634 37.39 12.9001 37.39 13.7901C37.39 14.6801 37.0433 15.5184 36.4133 16.1484L35.3083 17.2534C34.9583 17.6034 34.7833 18.0868 34.8283 18.5818C34.8733 19.0768 35.135 19.5234 35.5433 19.8051C37.1883 20.9418 37.5533 21.2118 37.6183 21.2634C38.0383 21.6268 38.29 22.1318 38.3316 22.6868C38.37 23.2418 38.1916 23.7784 37.885 24.1368L37.8833 24.1384Z" fill="black"/>
</g>
<defs>
<clipPath id="clip0_516_771">
<rect width="40" height="40" fill="white"/>
</clipPath>
</defs>
</svg>
