<svg width="56" height="56" viewBox="0 0 56 56" fill="none" xmlns="http://www.w3.org/2000/svg">
<g clip-path="url(#clip0_584_807)">
<path d="M42.875 0H13.125C5.87626 0 0 5.87626 0 13.125V42.875C0 50.1237 5.87626 56 13.125 56H42.875C50.1237 56 56 50.1237 56 42.875V13.125C56 5.87626 50.1237 0 42.875 0Z" fill="white"/>
<path d="M9.61256 46.8473L27.8064 28.1978C27.9223 28.0833 27.9394 27.9021 27.847 27.7679C26.7407 26.2233 24.6991 25.9554 23.9426 24.9175C21.7015 21.8432 21.1329 20.103 20.1698 20.2108C20.1026 20.2205 20.0408 20.2531 19.9949 20.3031L13.4228 27.0405C9.6416 30.9133 9.09812 39.4496 9 46.5982C8.99935 46.7437 9.08726 46.875 9.22206 46.9298C9.35686 46.9846 9.51145 46.952 9.61256 46.8473Z" fill="#017CEE"/>
<path d="M46.8475 46.3871L28.198 28.192C28.0833 28.0757 27.9018 28.0586 27.7674 28.1513C26.2228 29.2583 25.955 31.2993 24.917 32.0558C21.8427 34.2968 20.1025 34.8655 20.2103 35.8285C20.2201 35.8955 20.2527 35.9571 20.3026 36.0028L27.04 42.575C30.9128 46.3561 39.4491 46.8996 46.5977 46.9977C46.7424 46.9977 46.8729 46.9103 46.9277 46.7763C46.9825 46.6423 46.9508 46.4885 46.8475 46.3871Z" fill="#00AD46"/>
<path d="M27.0402 42.5766C24.9231 40.5111 23.9419 36.4253 27.9994 28C21.4033 30.9479 19.0919 34.8226 20.2286 35.9322L27.0402 42.5766Z" fill="#04D659"/>
<path d="M46.3866 9.15242L28.1934 27.8019C28.0772 27.9163 28.0601 28.0976 28.1527 28.2318C29.2597 29.7764 31.3 30.0443 32.0572 31.0822C34.2982 34.1566 34.8675 35.8967 35.8299 35.7889C35.8972 35.7794 35.959 35.7467 36.0048 35.6966L42.577 28.9592C46.3582 25.0864 46.9016 16.5501 46.9997 9.40157C47 9.25608 46.912 9.12498 46.7772 9.07021C46.6424 9.01544 46.4878 9.04797 46.3866 9.15242Z" fill="#00C7D4"/>
<path d="M42.5807 28.9592C40.5152 31.0763 36.4294 32.0574 28.0034 28C30.9513 34.596 34.826 36.9075 35.9356 35.7708L42.5807 28.9592Z" fill="#11E1EE"/>
<path d="M9.15142 9.61321L27.8009 27.8064C27.9154 27.9223 28.0966 27.9394 28.2308 27.847C29.7754 26.7401 30.0433 24.6991 31.0812 23.9426C34.1556 21.7015 35.8957 21.1329 35.7879 20.1698C35.7781 20.1027 35.7455 20.0409 35.6956 19.9949L28.9582 13.4228C25.0854 9.64161 16.5491 9.09813 9.40057 9.00001C9.25476 8.99908 9.1231 9.0871 9.06821 9.22218C9.01332 9.35727 9.04629 9.51217 9.15142 9.61321Z" fill="#E43921"/>
<path d="M28.9611 13.4229C31.0783 15.4883 32.0594 19.5742 28.002 28.0001C34.598 25.0522 36.9094 21.1769 35.7727 20.0679L28.9611 13.4229Z" fill="#FF7557"/>
<path d="M13.4229 27.0412C15.4883 24.924 19.5742 23.9429 28.0001 28.0003C25.0522 21.4043 21.1775 19.0929 20.0679 20.2295L13.4229 27.0412Z" fill="#0CB6FF"/>
<path d="M28.0027 28.8102C28.4519 28.8102 28.816 28.4461 28.816 27.9969C28.816 27.5477 28.4519 27.1836 28.0027 27.1836C27.5536 27.1836 27.1895 27.5477 27.1895 27.9969C27.1895 28.4461 27.5536 28.8102 28.0027 28.8102Z" fill="#4A4848"/>
</g>
<defs>
<clipPath id="clip0_584_807">
<rect width="56" height="56" fill="white"/>
</clipPath>
</defs>
</svg>
