<svg width="56" height="56" viewBox="0 0 56 56" fill="none" xmlns="http://www.w3.org/2000/svg">
<g clip-path="url(#clip0_584_767)">
<path d="M42.875 0H13.125C5.87626 0 0 5.87626 0 13.125V42.875C0 50.1237 5.87626 56 13.125 56H42.875C50.1237 56 56 50.1237 56 42.875V13.125C56 5.87626 50.1237 0 42.875 0Z" fill="white"/>
<path d="M49.69 28.6395C49.6448 28.5432 49.6245 28.4948 49.6001 28.4486C48.9468 27.2098 48.2952 25.971 47.6351 24.7323C47.569 24.608 47.5774 24.5347 47.6679 24.4276C48.7075 23.2172 49.7336 22.0002 50.7749 20.7949C50.8117 20.7524 50.8444 20.7074 50.8582 20.6315C50.5559 20.71 50.2536 20.7877 49.9496 20.8676C48.6951 21.199 47.4304 21.5288 46.1876 21.8653C46.0709 21.8966 46.018 21.8626 45.9592 21.7659C45.2471 20.579 44.53 19.3887 43.8095 18.2169C43.7727 18.1554 43.7326 18.0959 43.654 18.0445C43.5962 18.3609 43.5378 18.6756 43.481 18.992C43.2812 20.1086 43.0813 21.2184 42.8831 22.3401C42.8615 22.4604 42.8319 22.5811 42.8215 22.7016C42.8116 22.8168 42.752 22.8593 42.6468 22.8925C41.1672 23.3562 39.691 23.8233 38.2131 24.2903C38.1482 24.3106 38.0846 24.3374 38.0149 24.4001C39.2241 24.8789 40.4333 25.3577 41.6593 25.8448C41.6146 25.8801 41.5851 25.9076 41.5523 25.9285C40.7966 26.4157 40.0391 26.9028 39.2851 27.3916C39.1945 27.4506 39.123 27.4589 39.0214 27.4132C38.1178 27.0081 37.2076 26.6097 36.3007 26.2079C35.8942 26.0271 35.5298 25.7877 35.246 25.4395C34.6027 24.6561 34.7304 23.7655 35.5869 23.2131C35.8674 23.0339 36.1865 22.9017 36.5039 22.7979C37.9533 22.3275 39.4093 21.8738 40.8537 21.4185C40.9756 21.3798 41.0317 21.3256 41.0552 21.1942C41.25 20.0759 41.4499 18.951 41.6531 17.8461C41.7613 17.2484 41.8184 16.6374 42.1099 16.0883C42.2216 15.8774 42.3551 15.6715 42.5163 15.4957C43.0941 14.8562 43.8985 14.8328 44.5149 15.4408C44.7215 15.6467 44.8978 15.8878 45.0506 16.1372C45.7224 17.2304 46.3841 18.3302 47.0492 19.4351C47.1273 19.5652 47.1975 19.5913 47.3414 19.5534C48.9621 19.1199 50.5828 18.693 52.2118 18.2661C52.5477 18.1779 52.8853 18.1459 53.2296 18.21C53.9769 18.3493 54.3044 18.9165 54.0508 19.638C53.9361 19.9661 53.7368 20.2423 53.5134 20.5051C52.3815 21.8326 51.2461 23.1669 50.1209 24.4894C50.0284 24.5978 50.0265 24.6752 50.0907 24.7974C50.7692 26.0713 51.441 27.3419 52.1228 28.6309C52.2842 28.9356 52.4083 29.2537 52.4117 29.6036C52.4196 30.4004 51.834 31.0533 51.0396 31.1705C50.5945 31.2352 50.1814 31.1405 49.7632 31.0123C48.7471 30.6992 47.731 30.3912 46.7066 30.0848C46.612 30.0567 46.5759 30.0194 46.559 29.9181C46.4421 29.2033 46.3138 28.4901 46.1895 27.7753C46.1863 27.7557 46.1922 27.7348 46.1955 27.691C47.356 28.0107 48.5132 28.3254 49.7056 28.6552" fill="#E25A1C"/>
<path d="M42.281 26.163L41.9065 29.0152C41.7818 29.9631 41.6571 30.9089 41.532 31.8548L41.5616 31.875C42.8631 30.4387 44.1647 28.9957 45.4915 27.5393L45.5958 28.1386L45.7347 28.9513C45.7812 29.2225 45.8284 29.4937 45.8779 29.7641C45.8983 29.8732 45.8687 29.9398 45.796 30.0168C44.9546 30.894 44.1165 31.7746 43.2768 32.6618C43.24 32.7005 43.2052 32.7403 43.1633 32.7862L43.2141 32.8688C43.2225 32.8821 43.2311 32.8951 43.24 32.9077L44.6851 34.9333L47.573 38.9845C47.5992 39.0212 47.6372 39.05 47.6694 39.0826L47.6693 39.1025L47.1249 39.1014C46.3919 39.0997 45.6594 39.0975 44.9205 39.1007C44.7991 39.1007 44.7307 39.066 44.6635 38.9633C43.5786 37.316 42.4802 35.6654 41.4054 34.0248L41.3558 33.9528C41.333 33.9203 41.3064 33.883 41.2722 33.834L40.8376 37.1301C40.7511 37.7847 40.6649 38.4376 40.5786 39.0905H38.177L38.2179 38.7458C38.2313 38.6322 38.245 38.5196 38.2598 38.4075C38.4348 37.0641 38.6118 35.7301 38.7886 34.3913L38.9651 33.0505C39.1902 31.343 39.4135 29.6355 39.642 27.928C39.6485 27.8776 39.6826 27.8128 39.7239 27.786C40.5502 27.2486 41.3799 26.7163 42.2095 26.1839C42.2214 26.1761 42.2384 26.1754 42.281 26.163ZM38.4272 29.4277L38.4378 29.4433L38.2186 31.099C38.1942 31.2831 38.1699 31.4676 38.1456 31.653L37.338 31.6521C37.1601 31.6521 36.9827 31.6524 36.8054 31.6537C36.4459 31.6564 36.1185 31.8881 36.0093 32.2229C35.9673 32.3536 35.9517 32.4941 35.9332 32.6314L35.2614 37.7204C35.205 38.149 35.1506 38.5776 35.0942 39.0128H32.8605L32.9578 38.2435C32.966 38.1801 32.9741 38.1169 32.9824 38.0536L33.2003 36.3996C33.2731 35.8489 33.346 35.2998 33.4191 34.7557C33.5457 33.8032 33.6592 32.8473 33.8087 31.8931C34.0086 30.6208 35.2782 29.4825 36.563 29.4323C37.1777 29.4055 37.794 29.4277 38.4272 29.4277ZM19.5364 29.8936C20.6582 30.6135 21.2998 31.6681 21.4509 32.9739C21.6592 34.8321 20.9723 36.3722 19.6539 37.6612C18.784 38.4999 17.7393 39.0322 16.5469 39.213C15.3321 39.3954 14.1884 39.2009 13.162 38.5063L13.1041 38.4664C13.0659 38.4396 13.0246 38.4162 12.9591 38.375L12.9437 38.3492L12.7886 39.5074L12.7388 39.8843C12.6509 40.5506 12.5624 41.2185 12.4785 41.8932C12.4687 41.971 12.445 41.9998 12.3611 41.9992C11.701 41.9967 11.041 42.0005 10.3793 41.9992C10.3642 41.9992 10.3491 41.9939 10.3136 41.9836L10.3931 41.3529C10.4065 41.2477 10.4199 41.1426 10.4337 41.0377C10.5793 39.9329 10.7243 38.828 10.8721 37.7231C11.0417 36.4575 11.1744 35.1953 11.391 33.9398C11.7739 31.7133 13.6751 29.8049 15.8919 29.3194C17.1801 29.0415 18.4111 29.1703 19.5364 29.8936ZM8.76249 25.7542C9.79872 25.7916 10.6267 26.2748 11.2649 27.0784C11.3598 27.1972 11.4517 27.3182 11.5441 27.4417L11.8208 27.8134L9.66873 29.4115C9.55335 29.2307 9.4504 29.0499 9.32948 28.8808C9.01878 28.4473 8.6325 28.1242 8.07156 28.0857C7.60468 28.0528 7.20497 28.2059 6.88755 28.5494C6.60372 28.8557 6.56677 29.2926 6.83179 29.6392C7.12402 30.0209 7.44311 30.3824 7.77061 30.7357C7.9256 30.9031 8.0825 31.0686 8.24012 31.2334L8.71386 31.7271C8.95058 31.9743 9.18615 32.2227 9.41647 32.4767C9.90519 33.0124 10.2965 33.6117 10.4174 34.3516C10.5612 35.2221 10.3867 36.0424 9.97405 36.8124C9.2099 38.227 8.00909 39.0557 6.41361 39.3068C5.71159 39.4198 5.01294 39.3977 4.33108 39.1968C3.4225 38.9306 2.78934 38.3363 2.38292 37.506C2.23932 37.2097 2.12932 36.8967 2 36.5786L4.35124 35.3247L4.39453 35.4317C4.40362 35.4537 4.41277 35.4748 4.42278 35.4955C4.44955 35.5487 4.47535 35.6026 4.50082 35.6568L4.57686 35.8195C4.65316 35.9821 4.73214 36.143 4.83089 36.2906C5.32297 37.0189 6.11567 37.2398 6.91341 36.8799C7.11999 36.787 7.31984 36.6573 7.48947 36.5066C8.00674 36.0479 8.10415 35.4084 7.72123 34.8326C7.50122 34.5011 7.22579 34.2031 6.95708 33.9068C6.31553 33.197 5.6471 32.509 5.02571 31.7808C4.59409 31.2819 4.30018 30.7027 4.20613 30.0398C4.10452 29.3099 4.2508 28.6235 4.63103 28.0142C5.57657 26.4891 6.94868 25.704 8.76249 25.7542ZM16.1563 31.4204C14.7271 31.7513 13.6949 32.8622 13.5414 34.3152L13.5363 34.3667C13.4255 35.4548 14.0133 36.5094 15.105 36.8945C15.985 37.2109 16.8348 37.0786 17.6241 36.6082C18.6671 35.9855 19.2314 35.0597 19.3036 33.7456H19.292C19.2552 33.5598 19.229 33.2852 19.1457 33.0291C18.7427 31.792 17.4713 31.1207 16.1563 31.4204ZM29.3754 35.9081L29.3687 35.9219C29.248 36.8409 29.1336 37.7131 29.016 38.5836C29.0095 38.6281 28.9747 38.6882 28.9373 38.7053C27.1403 39.5323 24.789 39.4168 23.3279 37.7528C22.5386 36.8588 22.2077 35.7941 22.2564 34.6223C22.3711 31.8936 24.6412 29.4997 27.3619 29.1649C28.949 28.9707 30.3346 29.3976 31.4094 30.628C32.1417 31.4651 32.4809 32.4695 32.4305 33.5743C32.4005 34.2434 32.3015 34.9082 32.2152 35.5702L32.1921 35.7506C32.0627 36.7785 31.9217 37.8097 31.7856 38.8308L31.7785 38.8748C31.7744 38.8976 31.7698 38.9219 31.7646 38.9499H29.6317L29.6873 38.483C29.6967 38.4058 29.7063 38.3288 29.7164 38.2518C29.8712 37.0649 30.0422 35.8746 30.1782 34.6861C30.2629 33.9461 30.2096 33.2112 29.8692 32.5266C29.5081 31.7984 28.9035 31.4116 28.1058 31.3279C26.4566 31.1538 24.8812 32.2955 24.5453 33.906C24.3136 34.974 24.6792 35.9985 25.5329 36.5677C26.3642 37.1185 27.2459 37.1201 28.1528 36.7636C28.613 36.5828 29.0026 36.2948 29.3754 35.9081Z" fill="#3C3A3E"/>
<path d="M14.8076 26.2283H15.3601L15.2295 25.3947L14.8076 26.2283ZM15.4481 26.7674H14.5288L14.2366 27.3382H13.585L15.0209 24.6598H15.649L16.1377 27.3382H15.5348L15.4481 26.7674ZM18.7375 25.2072H18.41L18.2999 25.8249H18.6274C18.8255 25.8249 18.9817 25.6955 18.9817 25.4516C18.9817 25.2977 18.8925 25.2152 18.7572 25.2077L18.7375 25.2072ZM17.9415 24.6631L18.8047 24.6681C19.2548 24.6681 19.5689 24.936 19.5689 25.3947C19.5689 25.9739 19.1591 26.3623 18.5746 26.3623H18.2035L18.0288 27.3416H17.4679L17.9415 24.6631ZM21.475 26.2283H22.0276L21.8971 25.3947L21.475 26.2283ZM22.1139 26.7674H21.1946L20.9023 27.3382H20.2507L21.6866 24.6598H22.3148L22.8035 27.3382H22.2006L22.1139 26.7674ZM25.6747 27.2485L25.6737 27.2495C25.4839 27.3359 25.2756 27.3874 25.0657 27.3874C24.3553 27.3874 23.9102 26.8568 23.9102 26.1922C23.9102 25.3418 24.6274 24.627 25.4805 24.627C25.6938 24.627 25.887 24.678 26.0448 24.7642L25.9661 25.4054C25.848 25.2753 25.657 25.1844 25.4219 25.1844C24.9332 25.1844 24.4982 25.6247 24.4982 26.1353C24.4982 26.5236 24.7434 26.8283 25.1297 26.8283C25.3665 26.8283 25.5949 26.7374 25.7494 26.6124L25.6747 27.2485ZM29.2022 26.2618H28.0333L27.8435 27.3382H27.2843L27.7579 24.6598H28.3188L28.1307 25.7178H29.2979L29.4877 24.6598H30.0487L29.575 27.3382H29.0141L29.2022 26.2618ZM31.2167 27.3299L31.6895 24.6547H33.1775L33.0829 25.1938H32.1559L32.0613 25.7127H32.9128L32.8182 26.2518H31.9668L31.8722 26.7908H32.7993L32.7047 27.3299H31.2167Z" fill="#3C3A3E"/>
</g>
<defs>
<clipPath id="clip0_584_767">
<rect width="56" height="56" fill="white"/>
</clipPath>
</defs>
</svg>
