<svg width="56" height="56" viewBox="0 0 56 56" fill="none" xmlns="http://www.w3.org/2000/svg">
<g clip-path="url(#clip0_584_699)">
<path d="M42.875 0H13.125C5.87626 0 0 5.87626 0 13.125V42.875C0 50.1237 5.87626 56 13.125 56H42.875C50.1237 56 56 50.1237 56 42.875V13.125C56 5.87626 50.1237 0 42.875 0Z" fill="white"/>
<path d="M32.0235 22.9953H36.5228V27.5948H38.798C39.8617 27.5897 40.9175 27.4126 41.9247 27.0705C42.4149 26.9042 42.9626 26.674 43.4443 26.3842C42.8092 25.5551 42.4852 24.5086 42.3787 23.4749C42.2486 22.0714 42.5321 20.2438 43.4827 19.1451L43.9558 18.5984L44.5207 19.0513C45.9401 20.1916 47.1337 21.7847 47.3447 23.6017C49.053 23.0987 51.0596 23.2181 52.5665 24.0876L53.1846 24.4446L52.8595 25.0798C51.5946 27.5628 48.9304 28.3333 46.327 28.1969C42.4309 37.8998 33.9492 42.4939 23.6655 42.4939C18.352 42.4939 13.4776 40.5075 10.7026 35.7941C10.5396 35.501 10.401 35.1951 10.2529 34.8946C9.31512 32.8198 9.00288 30.5467 9.21388 28.2875L9.27782 27.6076H13.1142V22.9985H17.6135V18.4993H26.6131V14H32.0129V22.9996" fill="#394D54"/>
<mask id="mask0_584_699" style="mask-type:luminance" maskUnits="userSpaceOnUse" x="9" y="14" width="44" height="28">
<path d="M17.956 14.3896V23.4418H13.6267V27.9679H10.0019L9.96136 28.3614C9.73506 30.8272 10.1652 33.1016 11.1545 35.0463L11.4866 35.6425C11.6834 36.0001 11.9196 36.3358 12.1632 36.6635C12.4068 36.9911 12.495 37.1717 12.6493 37.3892C15.264 40.326 19.1623 41.7429 23.6628 41.7429C33.6296 41.7429 42.0884 37.3274 45.8319 27.4082C48.4879 27.6806 51.0357 26.9997 52.1967 24.7333C50.3469 23.6659 47.9702 24.0081 46.6007 24.6965L50.2289 14.3896L36.0603 23.4418H31.5342V14.3896H17.956Z" fill="white"/>
</mask>
<g mask="url(#mask0_584_699)">
<path d="M27.374 14.7461H31.2739V18.646H27.374V14.7461Z" fill="#20C2EF"/>
<path d="M27.853 18.3206V15.0703ZM28.4379 18.3204V15.0703ZM29.0286 18.3204V15.0703ZM29.6196 18.3204V15.0703ZM30.2105 18.3204V15.0703ZM30.795 18.3204V15.0703Z" fill="black"/>
<path d="M27.853 18.3206V15.0703M28.4379 18.3204V15.0703M29.0286 18.3204V15.0703M29.6196 18.3204V15.0703M30.2105 18.3204V15.0703M30.795 18.3204V15.0703" stroke="#394D54" stroke-width="0.39144"/>
<path d="M31.874 18.6475H35.7739V14.7478H31.874V18.6475Z" fill="#00ACD3"/>
<path d="M32.3525 15.071V18.3213ZM32.9374 15.0712V18.3213ZM33.5281 15.0712V18.3213ZM34.1191 15.0712V18.3213ZM34.71 15.0712V18.3213ZM35.2945 15.0712V18.3213Z" fill="black"/>
<path d="M32.3525 15.071V18.3213M32.9374 15.0712V18.3213M33.5281 15.0712V18.3213M34.1191 15.0712V18.3213M34.71 15.0712V18.3213M35.2945 15.0712V18.3213" stroke="#394D54" stroke-width="0.39144"/>
<path d="M9.37549 19.2441H13.2754V23.1438H9.37549V19.2441Z" fill="#00ACD3"/>
<path d="M9.37549 23.7451H13.2754V27.645H9.37549V23.7451Z" fill="#20C2EF"/>
<path d="M9.854 22.8206V19.5703ZM10.4389 22.8204V19.5703ZM11.0296 22.8204V19.5703ZM11.6206 22.8204V19.5703ZM12.2115 22.8204V19.5703ZM12.796 22.8204V19.5703Z" fill="black"/>
<path d="M9.854 22.8206V19.5703M10.4389 22.8204V19.5703M11.0296 22.8204V19.5703M11.6206 22.8204V19.5703M12.2115 22.8204V19.5703M12.796 22.8204V19.5703" stroke="#394D54" stroke-width="0.39144"/>
<path d="M9.854 27.3206V24.0703ZM10.4389 27.3204V24.0703ZM11.0296 27.3204V24.0703ZM11.6206 27.3204V24.0703ZM12.2115 27.3204V24.0703ZM12.796 27.3204V24.0703Z" fill="black"/>
<path d="M9.854 27.3206V24.0703M10.4389 27.3204V24.0703M11.0296 27.3204V24.0703M11.6206 27.3204V24.0703M12.2115 27.3204V24.0703M12.796 27.3204V24.0703" stroke="#394D54" stroke-width="0.39144"/>
<path d="M13.875 27.6475H17.7749V23.7478H13.875V27.6475Z" fill="#00ACD3"/>
<path d="M13.875 23.1455H17.7749V19.2456H13.875V23.1455Z" fill="#20C2EF"/>
<path d="M14.354 24.071V27.3213ZM14.9389 24.0712V27.3213ZM15.5296 24.0712V27.3213ZM16.1206 24.0712V27.3213ZM16.7115 24.0712V27.3213ZM17.296 24.0712V27.3213Z" fill="black"/>
<path d="M14.354 24.071V27.3213M14.9389 24.0712V27.3213M15.5296 24.0712V27.3213M16.1206 24.0712V27.3213M16.7115 24.0712V27.3213M17.296 24.0712V27.3213" stroke="#394D54" stroke-width="0.39144"/>
<path d="M14.354 19.571V22.8213ZM14.9389 19.5712V22.8213ZM15.5296 19.5712V22.8213ZM16.1206 19.5712V22.8213ZM16.7115 19.5712V22.8213ZM17.296 19.5712V22.8213Z" fill="black"/>
<path d="M14.354 19.571V22.8213M14.9389 19.5712V22.8213M15.5296 19.5712V22.8213M16.1206 19.5712V22.8213M16.7115 19.5712V22.8213M17.296 19.5712V22.8213" stroke="#394D54" stroke-width="0.39144"/>
<path d="M18.375 19.2441H22.2749V23.1438H18.375V19.2441Z" fill="#00ACD3"/>
<path d="M18.375 23.7451H22.2749V27.645H18.375V23.7451Z" fill="#20C2EF"/>
<path d="M18.8535 22.8206V19.5703ZM19.4384 22.8204V19.5703ZM20.0291 22.8204V19.5703ZM20.6201 22.8204V19.5703ZM21.211 22.8204V19.5703ZM21.7955 22.8204V19.5703Z" fill="black"/>
<path d="M18.8535 22.8206V19.5703M19.4384 22.8204V19.5703M20.0291 22.8204V19.5703M20.6201 22.8204V19.5703M21.211 22.8204V19.5703M21.7955 22.8204V19.5703" stroke="#394D54" stroke-width="0.39144"/>
<path d="M18.8535 27.3206V24.0703ZM19.4384 27.3204V24.0703ZM20.0291 27.3204V24.0703ZM20.6201 27.3204V24.0703ZM21.211 27.3204V24.0703ZM21.7955 27.3204V24.0703Z" fill="black"/>
<path d="M18.8535 27.3206V24.0703M19.4384 27.3204V24.0703M20.0291 27.3204V24.0703M20.6201 27.3204V24.0703M21.211 27.3204V24.0703M21.7955 27.3204V24.0703" stroke="#394D54" stroke-width="0.39144"/>
<path d="M22.8745 27.6475H26.7744V23.7478H22.8745V27.6475Z" fill="#00ACD3"/>
<path d="M22.8745 23.1455H26.7744V19.2456H22.8745V23.1455Z" fill="#20C2EF"/>
<path d="M23.3535 24.071V27.3213ZM23.9384 24.0712V27.3213ZM24.5291 24.0712V27.3213ZM25.1201 24.0712V27.3213ZM25.711 24.0712V27.3213ZM26.2955 24.0712V27.3213Z" fill="black"/>
<path d="M23.3535 24.071V27.3213M23.9384 24.0712V27.3213M24.5291 24.0712V27.3213M25.1201 24.0712V27.3213M25.711 24.0712V27.3213M26.2955 24.0712V27.3213" stroke="#394D54" stroke-width="0.39144"/>
<path d="M23.3535 19.571V22.8213ZM23.9384 19.5712V22.8213ZM24.5291 19.5712V22.8213ZM25.1201 19.5712V22.8213ZM25.711 19.5712V22.8213ZM26.2955 19.5712V22.8213Z" fill="black"/>
<path d="M23.3535 19.571V22.8213M23.9384 19.5712V22.8213M24.5291 19.5712V22.8213M25.1201 19.5712V22.8213M25.711 19.5712V22.8213M26.2955 19.5712V22.8213" stroke="#394D54" stroke-width="0.39144"/>
<path d="M27.374 19.2441H31.2739V23.1438H27.374V19.2441Z" fill="#00ACD3"/>
<path d="M27.374 23.7451H31.2739V27.645H27.374V23.7451Z" fill="#20C2EF"/>
<path d="M27.853 22.8206V19.5703ZM28.4379 22.8204V19.5703ZM29.0286 22.8204V19.5703ZM29.6196 22.8204V19.5703ZM30.2105 22.8204V19.5703ZM30.795 22.8204V19.5703Z" fill="black"/>
<path d="M27.853 22.8206V19.5703M28.4379 22.8204V19.5703M29.0286 22.8204V19.5703M29.6196 22.8204V19.5703M30.2105 22.8204V19.5703M30.795 22.8204V19.5703" stroke="#394D54" stroke-width="0.39144"/>
<path d="M27.853 27.3206V24.0703ZM28.4379 27.3204V24.0703ZM29.0286 27.3204V24.0703ZM29.6196 27.3204V24.0703ZM30.2105 27.3204V24.0703ZM30.795 27.3204V24.0703Z" fill="black"/>
<path d="M27.853 27.3206V24.0703M28.4379 27.3204V24.0703M29.0286 27.3204V24.0703M29.6196 27.3204V24.0703M30.2105 27.3204V24.0703M30.795 27.3204V24.0703" stroke="#394D54" stroke-width="0.39144"/>
<path d="M31.874 27.6475H35.7739V23.7478H31.874V27.6475Z" fill="#00ACD3"/>
<path d="M31.874 23.1455H35.7739V19.2456H31.874V23.1455Z" fill="#20C2EF"/>
<path d="M32.3525 24.071V27.3213ZM32.9374 24.0712V27.3213ZM33.5281 24.0712V27.3213ZM34.1191 24.0712V27.3213ZM34.71 24.0712V27.3213ZM35.2945 24.0712V27.3213Z" fill="black"/>
<path d="M32.3525 24.071V27.3213M32.9374 24.0712V27.3213M33.5281 24.0712V27.3213M34.1191 24.0712V27.3213M34.71 24.0712V27.3213M35.2945 24.0712V27.3213" stroke="#394D54" stroke-width="0.39144"/>
<path d="M32.3525 19.571V22.8213ZM32.9374 19.5712V22.8213ZM33.5281 19.5712V22.8213ZM34.1191 19.5712V22.8213ZM34.71 19.5712V22.8213ZM35.2945 19.5712V22.8213Z" fill="black"/>
<path d="M32.3525 19.571V22.8213M32.9374 19.5712V22.8213M33.5281 19.5712V22.8213M34.1191 19.5712V22.8213M34.71 19.5712V22.8213M35.2945 19.5712V22.8213" stroke="#394D54" stroke-width="0.39144"/>
<path d="M46.6018 24.6977C46.9035 22.353 45.1488 20.511 44.0605 19.6367C42.8064 21.0866 42.6116 24.8866 44.5791 26.4862C43.481 27.4615 41.1674 28.3455 38.7983 28.3455H9.69071C9.46047 30.8185 9.69071 42.7272 9.69071 42.7272H52.3932L52.199 24.7362C50.3492 23.6689 47.9713 24.0095 46.6018 24.6977Z" fill="#17B5EB"/>
<path d="M9.69092 31.5098V42.7266H52.3935V31.5098" fill="black" fill-opacity="0.17"/>
<path d="M24.89 41.7237C22.2255 40.4593 20.763 38.7404 19.9493 36.8643L11.8555 37.2173L15.988 42.7273L24.89 41.7237Z" fill="#D4EDF1"/>
<path d="M46.7851 24.6109V24.6168C42.6801 29.9103 36.7917 34.5309 30.4703 36.9592C24.8314 39.1254 19.9151 39.1356 16.5231 37.3961C16.1579 37.1898 15.7997 36.9608 15.4408 36.7443C12.954 35.0063 11.5535 32.1316 11.6712 28.3441H9.69092V42.7274H52.3935V23.8359H47.4738L46.7851 24.6109Z" fill="black" fill-opacity="0.085"/>
</g>
<path d="M11.9795 37.0266C14.7673 37.179 17.7416 37.2077 20.3365 36.3936" stroke="#394D54" stroke-width="0.853355" stroke-linecap="round"/>
<path d="M23.1062 35.0441C23.1059 35.3292 22.9925 35.6025 22.7909 35.8041C22.5893 36.0057 22.316 36.1191 22.0309 36.1194C21.7456 36.1194 21.472 36.0061 21.2702 35.8045C21.0684 35.6029 20.9549 35.3294 20.9546 35.0441C20.9546 34.7586 21.068 34.4849 21.2698 34.283C21.4717 34.0812 21.7455 33.9678 22.0309 33.9678C22.3162 33.9681 22.5897 34.0816 22.7913 34.2834C22.9929 34.4852 23.1062 34.7588 23.1062 35.0441Z" fill="#D4EDF1"/>
<path d="M22.3206 34.3268C22.2269 34.3801 22.1629 34.4824 22.1629 34.5996C22.1629 34.7733 22.3036 34.914 22.4773 34.914C22.5966 34.914 22.6904 34.8479 22.7544 34.7499C22.7929 34.8435 22.8128 34.9438 22.813 35.0451C22.813 35.4714 22.4677 35.8156 22.0425 35.8156C21.6173 35.8156 21.272 35.4703 21.272 35.0451C21.272 34.6199 21.6173 34.2746 22.0425 34.2746C22.138 34.2745 22.2316 34.2922 22.3206 34.3268ZM3 31.7372H53.0482C51.958 31.4602 49.6008 31.0978 49.9897 29.6592C48.0076 31.9525 43.2291 31.2577 42.0238 30.1366C40.6811 32.0846 32.8623 31.344 32.3177 29.8169C30.6339 31.7927 25.4175 31.7927 23.7337 29.8169C23.1881 31.3344 15.3703 32.0761 14.0361 30.1366C12.8191 31.2577 8.04063 31.9536 6.05848 29.6592C6.44745 31.0872 4.08912 31.4708 3 31.7372Z" fill="#394D54"/>
</g>
<defs>
<clipPath id="clip0_584_699">
<rect width="56" height="56" fill="white"/>
</clipPath>
</defs>
</svg>
