<svg width="56" height="56" viewBox="0 0 56 56" fill="none" xmlns="http://www.w3.org/2000/svg">
<g clip-path="url(#clip0_583_617)">
<path d="M42.875 0H13.125C5.87626 0 0 5.87626 0 13.125V42.875C0 50.1237 5.87626 56 13.125 56H42.875C50.1237 56 56 50.1237 56 42.875V13.125C56 5.87626 50.1237 0 42.875 0Z" fill="white"/>
<path d="M24.8465 14.5743L17.3463 10.7588L9.11426 14.899L16.818 18.7969L24.8465 14.5743Z" fill="#4DABCF"/>
<path d="M28.2856 16.3223L36.1493 20.322L27.99 24.4509L20.2749 20.5465L28.2856 16.3223Z" fill="#4DABCF"/>
<path d="M38.7877 10.8164L46.8662 14.8985L39.6422 18.5541L31.7607 14.5496L38.7877 10.8164Z" fill="#4DABCF"/>
<path d="M35.3111 9.05815L28.0371 5.38477L20.8438 9.00161L28.3375 12.8107L35.3111 9.05815Z" fill="#4DABCF"/>
<path d="M29.6255 40.6149V50.6157L38.4358 46.1864L38.4261 36.1807L29.6255 40.6149Z" fill="#4DABCF"/>
<path d="M38.4229 32.6897L38.4132 22.7891L29.6255 27.191V37.0949L38.4229 32.6897Z" fill="#4DABCF"/>
<path d="M48.9996 30.833V40.8726L41.4848 44.651L41.48 34.6582L48.9996 30.833Z" fill="#4DABCF"/>
<path d="M49 27.323V17.4854L41.4707 21.2573L41.4772 31.1773L49 27.323Z" fill="#4DABCF"/>
<path d="M26.5138 27.1927L20.5789 24.1864V37.1822C20.5789 37.1822 13.321 21.6196 12.6538 20.2223C12.5121 20.0396 12.3288 19.8934 12.1192 19.7958C10.8139 19.1157 7 17.1611 7 17.1611V40.1157L12.2758 42.9588V30.9597C12.2758 30.9597 19.4562 44.8634 19.5289 45.0136C19.8986 45.8239 20.4309 46.5497 21.0926 47.1459C22.1184 47.8292 26.5155 50.4946 26.5155 50.4946L26.5138 27.1927Z" fill="#4D77CF"/>
</g>
<defs>
<clipPath id="clip0_583_617">
<rect width="56" height="56" fill="white"/>
</clipPath>
</defs>
</svg>
