<svg width="56" height="56" viewBox="0 0 56 56" fill="none" xmlns="http://www.w3.org/2000/svg">
<g clip-path="url(#clip0_584_772)">
<path d="M42.875 0H13.125C5.87626 0 0 5.87626 0 13.125V42.875C0 50.1237 5.87626 56 13.125 56H42.875C50.1237 56 56 50.1237 56 42.875V13.125C56 5.87626 50.1237 0 42.875 0Z" fill="white"/>
<path d="M21.8077 17.9818L18.5947 18.5037L15.6632 19.7891L13.1731 21.3553L10.8035 24.2468L9.46499 25.6646L8.17042 26.1418L7.82818 25.305L8.42676 24.441L8.56117 23.2226L8.96211 23.2388L9.40024 23.6384L9.28207 22.3971L8.79637 22.0713L8.81128 21.5982L7.66093 22.2491L6.61932 23.4781L6.40186 24.5766L6.84754 25.4562L7.26301 26.9505L8.10794 27.3505L8.99684 27.3069L9.83969 26.8173L9.27735 29.6688L9.83969 32.8414L9.22072 34.3064L7.19355 36.4905L7.5539 37.7954L8.51435 39.3074L10.325 40.5816L11.2855 40.7132L12.3533 40.7494L11.687 43.4843L14.137 44.4882L17.1892 44.8899L18.2332 44.2073L18.3137 42.3596L19.4785 40.4319L19.5588 38.9057L22.3701 39.1066L24.9805 38.8657L22.3701 40.4319L22.812 42.3196L24.4584 44.8899L26.065 45.5726L27.3501 45.0505L27.8721 44.0064L30.563 41.9581L31.0851 42.3998L35.3022 42.5605L36.1454 41.8779L36.2256 40.6728L35.9447 40.151L35.7437 36.8978L34.3381 34.0865L34.5792 32.8414L35.4224 33.2833L37.792 35.4921L38.9567 35.5725L40.2418 35.0503L41.5271 34.0865L42.1695 31.998L45.9449 32.239L48.2341 31.3556L50.0815 29.6286L51.4069 27.1385L51.728 24.2068L51.4469 20.7929L50.7241 17.7409L50.0011 16.7771L48.9972 16.4556L47.23 18.3833L45.6236 18.9456L44.2178 16.6163L42.8123 15.3311L42.0491 14.8492L38.9967 12.319L36.5471 10.9936L34.0971 10.793L31.2457 11.2749L28.7557 12.1983L27.0287 13.6041L25.6633 15.2507L24.2578 15.6524L21.8077 17.9818Z" fill="#FFFF00"/>
<path d="M12.4896 25.2296C9.73755 28.4396 10.349 32.3326 11.1116 36.147C10.7046 35.1184 10.2974 34.0898 9.89045 33.0618C9.74038 32.1189 9.59031 31.176 9.44043 30.2331C9.48328 29.2689 9.52594 28.3048 9.56898 27.3408C9.95463 26.4196 10.3403 25.4982 10.7259 24.5769C11.3043 23.7199 11.8829 22.8629 12.4615 22.0057C13.3613 21.2559 14.2614 20.5059 15.1612 19.7561C16.1466 19.3489 17.1323 18.942 18.1179 18.5348C19.2748 18.3849 20.4318 18.235 21.5889 18.085C20.5175 19.3061 19.4462 20.5274 18.375 21.7486C15.7943 22.5856 14.2727 23.1494 12.4896 25.2296Z" fill="#FFFFCC"/>
<path d="M25.4453 15.4502C23.5321 17.3169 22.4869 18.7247 21.2694 20.9103C20.3986 22.4739 19.4215 23.9797 18.5058 25.5213C18.0428 26.3017 17.999 26.956 17.8604 27.8558C17.4106 27.3203 16.9608 26.7846 16.5107 26.249C16.7252 25.6061 16.9392 24.9633 17.1535 24.3206C17.8819 23.0135 18.6106 21.7065 19.339 20.3997C20.8817 18.8784 22.4245 17.3573 23.9671 15.836C24.4597 15.7073 24.9526 15.5789 25.4453 15.4502Z" fill="#FFFFCC"/>
<path d="M34.8941 10.8223C33.3615 11.3967 30.8167 11.586 30.6403 13.3448C30.5145 14.5938 30.7344 15.2215 31.4873 16.5431C29.6277 14.6186 29.1679 14.9164 25.5737 15.5145C26.0881 14.786 26.6023 14.0576 27.1163 13.3291C28.0162 12.7719 28.9162 12.2148 29.8161 11.6578C30.973 11.4006 32.1302 11.1435 33.2871 10.8864C33.8227 10.8651 34.3584 10.8438 34.8941 10.8223Z" fill="#FFFFCC"/>
<path d="M39.1228 34.6115C39.6328 34.9264 39.6219 35.1546 39.5365 35.3704C39.939 35.2093 40.3414 35.0483 40.7437 34.8877C41.0046 34.5375 41.2651 34.1875 41.526 33.8374C41.7194 33.3385 41.9129 32.8399 42.1064 32.341C41.8591 32.1551 41.612 31.9691 41.3646 31.7832C40.2839 31.921 39.2032 32.059 38.1223 32.1972C38.0421 32.4154 37.9615 32.634 37.8809 32.8526C37.9039 33.1629 37.9271 33.4734 37.9499 33.7838C38.0534 33.9678 38.157 34.1517 38.2605 34.3357C38.4215 34.4161 38.5823 34.4967 38.7433 34.5772C38.87 34.5885 38.9963 34.6002 39.1228 34.6115Z" fill="#CCCC00"/>
<path d="M38.821 29.0674C37.1957 29.5365 37.2084 29.6658 36.7285 31.2782C37.362 30.2617 37.8311 29.7486 38.821 29.0674Z" fill="#CCCC00"/>
<path d="M49.6273 17.001C49.3385 17.1344 49.0571 17.1986 48.8766 17.4629C48.4878 18.0318 48.1546 18.5104 47.5116 18.9096C47.1877 19.1108 46.8528 19.2411 46.5095 19.3483C46.2246 19.4368 46.0534 19.3576 45.811 19.532C45.9549 19.5569 46.0987 19.5822 46.2426 19.6073H47.1939C47.5849 19.3659 47.9758 19.1244 48.3668 18.8832C48.5969 18.6416 48.8268 18.4001 49.0567 18.1587C49.2468 17.7728 49.4371 17.3866 49.6273 17.001Z" fill="#CCCC00"/>
<path d="M23.7388 20.6077C23.0994 22.3574 22.5406 23.8571 21.5723 25.4411C22.8132 24.1039 23.5657 22.9673 24.2765 21.4555C24.5527 20.8682 24.6048 20.179 25.374 20.4352C25.4086 21.0219 25.5326 21.608 25.567 22.1943C25.9826 19.2155 27.1545 17.9697 29.8786 16.8135C29.1082 16.9056 28.3379 16.9975 27.5677 17.0895C26.8432 17.2505 26.1189 17.4115 25.3944 17.5723C25.038 18.0897 24.6815 18.6073 24.3253 19.1246C24.1297 19.6189 23.9343 20.1133 23.7388 20.6077Z" fill="#CCCC00"/>
<path d="M29.0162 20.5391C29.6038 23.3039 30.4497 25.9576 30.817 28.7665C31.0556 30.5917 31.0817 31.4685 30.1635 33.0432C29.1598 32.9783 28.5367 33.0913 27.5659 33.4096C23.7014 34.6764 21.4849 36.5392 18.8809 32.7859C19.7122 33.1776 20.5435 33.5693 21.3749 33.9612C21.9674 33.8447 22.5599 33.7284 23.1525 33.6116C24.1988 33.0024 25.2452 32.3929 26.2915 31.7838C27.1077 31.6227 27.9241 31.4617 28.7404 31.3007C29.0048 30.1972 29.2693 29.0933 29.5338 27.9895C29.3382 26.5292 29.1426 25.0691 28.9473 23.6088C28.9244 22.919 28.9014 22.2293 28.8784 21.5393C28.9244 21.2058 28.9705 20.8724 29.0162 20.5391Z" fill="#CCCC00"/>
<path d="M35.6738 37.6476C35.3491 39.8939 36.4213 41.1015 35.9773 41.722C35.8516 41.8975 35.6813 42.2041 35.4912 42.2883C34.8118 42.5882 33.8778 42.232 33.8112 42.4076H31.5692C31.2702 42.2811 30.9714 42.1546 30.6724 42.0282C31.1322 41.4877 31.592 40.9473 32.0521 40.407C32.5004 39.43 32.9489 38.4525 33.3972 37.4751C33.6847 36.4863 33.9722 35.4976 34.2595 34.5088H34.708C35.0299 35.5551 35.3519 36.6013 35.6738 37.6476Z" fill="#CCCC00"/>
<path d="M31.9047 31.1172C32.0869 32.1371 32.4032 32.3795 32.8829 33.3667C32.5635 34.9775 32.0506 36.8929 31.4332 38.3141C31.1729 38.9135 30.9628 39.244 30.5035 39.7072C29.7286 40.4899 28.9452 41.1713 28.0663 41.8498C27.4336 42.3373 26.992 42.0929 26.2115 41.9823C25.8794 42.5841 25.7879 42.9184 25.1768 43.224C24.2372 43.6936 23.3964 42.6815 22.6587 42.0857C23.1912 42.9174 23.7237 43.7489 24.2559 44.5807C24.6239 44.9257 24.9919 45.2702 25.3598 45.6153C25.6701 45.6612 25.9806 45.7074 26.2911 45.7535C26.7049 45.5005 27.1189 45.2474 27.5327 44.9944C27.7513 44.5807 27.9697 44.1667 28.1881 43.7529C28.6481 43.4078 29.1081 43.063 29.5678 42.7179C30.1312 42.2352 30.6947 41.7522 31.258 41.2693C31.6146 40.7634 31.9708 40.2577 32.3274 39.7516C32.6492 39.1538 32.9711 38.5559 33.2929 37.9581C33.7071 36.7164 34.1208 35.4745 34.535 34.233C34.5694 33.7614 34.6037 33.2901 34.6383 32.8186C34.1208 32.5888 33.6036 32.3585 33.086 32.1286C32.7066 31.7724 32.2841 31.4736 31.9047 31.1172Z" fill="#CCCC00"/>
<path d="M19.5306 38.3032C21.2715 38.3032 23.11 38.2066 24.7046 37.4753C25.1557 36.7986 25.6012 36.2457 26.1532 35.6475C25.6509 36.5964 25.4932 37.1329 25.36 38.1998C25.1874 38.4527 25.0151 38.7055 24.8426 38.9586C23.5318 38.993 22.2211 39.0275 20.9103 39.0621C20.4849 39.0158 20.0596 38.97 19.6341 38.9241C19.588 38.8778 19.5422 38.832 19.4961 38.7861C19.5078 38.6251 19.5193 38.4641 19.5306 38.3032Z" fill="#CCCC00"/>
<path d="M19.2896 37.095C19.2447 36.6869 19.1996 36.2786 19.1544 35.8701C18.8571 37.6604 18.9285 38.8604 18.1045 40.4642C17.4891 41.1771 16.7312 41.8259 15.8633 42.1733C15.9367 42.6129 15.9586 42.8879 15.916 43.2102C15.7631 44.3698 13.4435 43.8574 12.4893 43.8112C14.0204 44.2055 15.5511 44.5995 17.082 44.9936C17.427 44.8556 17.7717 44.7178 18.1168 44.5799C18.2319 43.9131 18.3469 43.246 18.4619 42.5793C18.7837 41.9815 19.1057 41.3833 19.4276 40.7858C19.485 40.4175 19.5426 40.05 19.6001 39.6819C19.4965 38.8196 19.3932 37.9573 19.2896 37.095Z" fill="#CCCC00"/>
<path d="M16.7026 26.9893C16.6547 27.8599 16.5984 28.2227 16.9822 28.9915C17.4702 29.9686 18.0695 30.8869 18.5998 31.8527C18.6573 31.2086 18.7147 30.5649 18.7723 29.921C18.0825 28.9436 17.3926 27.9665 16.7026 26.9893Z" fill="#CCCC00"/>
<path d="M9.62178 33.5654C9.47228 33.8831 9.32315 34.201 9.17365 34.5189C9.58459 35.9031 9.95005 36.78 10.7325 37.9892C10.5962 38.479 10.4943 38.6935 10.1807 39.0927C9.4921 38.987 8.88049 38.9563 8.18262 38.9585C8.95298 39.5562 9.72334 40.1544 10.4937 40.7522C10.8729 40.6829 11.2525 40.614 11.632 40.5451C12.0112 40.1657 12.3908 39.7863 12.7702 39.4068C12.2298 38.5674 11.6894 37.7283 11.1491 36.8889C10.6398 35.7812 10.1307 34.6731 9.62178 33.5654Z" fill="#CCCC00"/>
<path d="M49.632 16.5439C50.1013 18.6546 50.7065 20.6024 50.6502 22.7642C50.5813 25.4164 50.0645 28.7666 47.6071 30.3659C44.8551 32.1571 41.6245 31.3099 38.605 30.5424C39.8354 31.0485 41.0658 31.5542 42.2958 32.0601C43.4455 32.1176 44.5953 32.1752 45.7451 32.2324C46.527 32.0027 47.3089 31.7728 48.0905 31.5428C48.6999 31.0368 49.3094 30.5311 49.9188 30.025C50.3786 29.0592 50.8384 28.0935 51.2985 27.1278C51.471 26.0123 51.6433 24.8971 51.8157 23.7819C51.6779 22.6895 51.5397 21.5973 51.4019 20.505C51.149 19.4243 50.8958 18.3435 50.6431 17.2628C50.3061 17.023 49.9692 16.7835 49.632 16.5439Z" fill="#CCCC00"/>
<path d="M8.56327 22.834C7.31401 23.6472 6.82321 24.0042 6.96026 25.5113C7.08465 25.9626 7.20924 26.414 7.33364 26.8653C7.51014 26.9848 7.68645 27.1041 7.86275 27.2234C8.08078 27.2961 8.29862 27.3686 8.51664 27.4413C8.91098 27.348 9.30532 27.2546 9.69946 27.1611C9.90201 26.5333 10.1044 25.9056 10.3065 25.2778C9.74628 25.5528 9.18583 25.8279 8.62556 26.1029H8.23651C8.09135 25.8798 7.946 25.6567 7.80065 25.4335C7.97715 25.174 8.15346 24.9148 8.32995 24.6552C8.42339 24.1624 8.51665 23.6695 8.61008 23.1766C8.72939 23.2129 8.84869 23.2493 8.96799 23.2854C9.11334 23.3997 9.2585 23.514 9.40385 23.6278C9.38309 23.3686 9.36232 23.109 9.34156 22.8497C9.24302 22.6838 9.1443 22.5176 9.04576 22.3517C8.94722 22.2685 8.84869 22.1856 8.75015 22.1025C8.68786 22.3464 8.62556 22.5903 8.56327 22.834Z" fill="#CCCC00"/>
<path d="M36.5928 10.959C37.7016 11.9887 39.0624 12.8837 39.9494 14.142C40.2926 14.629 40.6739 14.8782 39.9436 15.5662C40.7153 15.3458 41.002 15.3697 41.6198 15.4445C42.7436 15.5806 43.7969 17.1781 43.8639 18.3228C43.8507 18.4298 43.5519 18.673 42.683 18.9129C42.6658 18.9463 42.1926 18.8481 42.2043 18.8802C42.2947 19.1271 42.4153 19.1651 42.5995 19.2806C42.6396 19.5555 42.6652 19.9792 42.8525 20.2798C43.3992 20.2699 43.9336 20.3296 44.4689 20.4355C44.649 20.7345 44.622 21.0333 44.6069 21.3323C44.8138 21.298 45.0207 21.2634 45.2278 21.2291C45.1704 20.7575 45.1128 20.2862 45.0554 19.8148C45.2393 19.5043 45.4231 19.1938 45.6072 18.8836C45.3427 18.2854 45.0783 17.6878 44.8138 17.0898C44.3081 16.6069 43.8022 16.124 43.2961 15.6412C43.2476 15.6387 43.1985 15.6363 43.1502 15.6338C42.581 15.2846 42.0123 14.9356 41.4433 14.5863C40.5154 13.8271 39.5876 13.0681 38.6596 12.3089C37.9706 11.8588 37.2818 11.409 36.5928 10.959Z" fill="#CCCC00"/>
<path d="M38.4607 19.458C38.4022 19.5603 38.3139 19.7238 38.2008 19.8371C38.6625 20.2739 38.8904 20.5665 39.0552 21.1843C38.533 21.4435 38.0109 21.7028 37.489 21.9618C37.0471 22.3854 36.6052 22.809 36.1636 23.2324C35.582 22.9194 35.4373 22.6791 35.1558 22.0823C34.8281 22.1691 34.5178 22.2525 34.2471 22.1532C34.4188 22.1546 34.5242 22.1117 34.6958 22.0056C34.9768 21.7136 35.2581 21.4216 35.5392 21.1295C36.0356 20.7535 36.5323 20.3773 37.0287 20.0013C37.3538 19.8954 37.6787 19.7895 38.0037 19.6836C38.1278 19.6326 38.3365 19.5092 38.4607 19.458Z" fill="#CCCC00"/>
<path d="M39.9019 21.0156C38.241 21.91 36.65 22.8095 35.8008 24.508C35.8008 22.3521 37.9656 21.403 39.9019 21.0156Z" fill="#CCCC00"/>
<path d="M35.4705 16.7744C34.2371 17.6154 33.365 19.3126 33.4745 20.9666C33.0728 19.5344 33.2151 18.1811 34.4487 17.192C34.6569 17.0908 34.865 16.9894 35.0732 16.8884C35.2057 16.8505 35.338 16.8125 35.4705 16.7744Z" fill="#CCCC00"/>
<path d="M52.0689 20.6794C51.845 19.269 51.4743 17.8998 50.9597 16.9154C50.8971 16.795 50.8019 16.673 50.6841 16.5566C50.4285 16.3046 50.0501 16.066 49.6591 15.9315C49.2448 15.789 48.808 15.76 48.4612 15.9412C48.3712 15.9884 48.2875 16.0491 48.213 16.1248C47.9883 16.3525 47.799 16.6289 47.6093 16.906C47.3982 17.2144 47.1861 17.5244 46.9322 17.7411C46.6379 17.9927 46.2696 18.1454 45.9223 18.2849C45.7699 17.9166 45.5948 17.5797 45.3967 17.2633C45.1593 16.8846 44.889 16.5301 44.5915 16.1754C44.3483 15.8861 44.1118 15.6686 43.8558 15.4738C43.5993 15.278 43.3367 15.1132 43.0307 14.9218C42.2107 14.4082 41.5125 13.7958 40.8003 13.1708C40.4767 12.8869 40.1498 12.6004 39.83 12.3367C38.1341 10.9383 36.552 10.26 34.8601 10.1536C33.1797 10.0479 31.4053 10.5096 29.3104 11.3915C28.2993 11.817 27.5484 12.3199 26.8943 12.9245C26.2695 13.5027 25.7391 14.1681 25.156 14.9452C24.8166 14.9694 24.5162 15.0196 24.2093 15.1425C23.8712 15.2777 23.5309 15.4966 23.1231 15.8566C22.8337 16.1116 22.5568 16.3685 22.2891 16.6273C22.0385 16.8697 21.7951 17.1164 21.5552 17.3658C19.6479 17.6722 18.094 18.0104 16.7024 18.5496C15.2793 19.1008 14.0247 19.8592 12.7362 21.0018C12.2097 21.4685 11.754 21.9617 11.3552 22.4842C10.9633 22.9975 10.6278 23.5372 10.3336 24.1063C10.0757 24.3915 9.81766 24.6794 9.53809 24.9312C9.26551 25.1766 8.975 25.3833 8.64956 25.5087L8.64975 25.5089C8.46042 25.5817 8.38208 25.6244 8.37359 25.6216C8.36415 25.6163 8.35886 25.5879 8.34546 25.5357C8.81304 25.0894 8.88647 24.434 8.92969 23.7831C8.98576 23.8503 9.03975 23.933 9.09562 24.0193C9.15735 24.1146 9.22059 24.213 9.29647 24.3087L9.61379 24.709L9.72535 24.2096C9.81898 23.7911 9.88901 23.2336 9.7799 22.7504C9.7093 22.4369 9.56376 22.1573 9.31025 21.9593C9.3346 21.8958 9.35744 21.8375 9.38009 21.7799C9.45975 21.5763 9.54168 21.3673 9.61133 21.1698L9.74876 20.7783L9.33951 20.8493C8.79491 20.9439 7.62437 21.5872 6.80021 22.4425C6.49403 22.7602 6.23089 23.1113 6.05816 23.4798C5.87846 23.8632 5.79804 24.2643 5.8677 24.6658C5.92848 25.0167 6.10403 25.3611 6.42305 25.6861C6.48119 25.9204 6.5348 26.1237 6.59219 26.3072C6.65788 26.5159 6.72867 26.7026 6.8172 26.8863C7.05712 27.3852 7.43956 27.6899 7.88203 27.832C8.23786 27.9462 8.63125 27.9519 9.01709 27.8675C8.94178 28.3036 8.89421 28.7594 8.87571 29.2574C8.85136 29.9085 8.87514 30.6277 8.94687 31.4622C8.96254 31.6453 8.98614 31.8469 9.01672 32.0659C9.04314 32.2528 9.07467 32.4362 9.10865 32.6184C9.03654 32.8151 8.96405 33.0122 8.89175 33.2089C8.77944 33.5143 8.66712 33.8201 8.55499 34.1255C8.30789 34.3704 8.0608 34.6152 7.81389 34.8598C7.5834 35.0877 7.35273 35.3163 7.12225 35.5447C7.10318 35.5637 7.02541 35.6383 6.955 35.7063C6.4878 36.1557 6.3953 36.245 6.52801 37.0361C6.60899 37.5209 6.7685 38.0121 7.01748 38.4857C7.24683 38.9225 7.55452 39.3478 7.94942 39.7438C8.4423 40.2378 9.24984 40.8513 10.0953 41.1726C10.5786 41.3563 11.0767 41.4459 11.5441 41.371C11.5203 41.4429 11.4971 41.5146 11.4709 41.5871C11.3973 41.7904 11.3151 41.9939 11.2244 42.1931C10.6509 43.4505 11.2396 44.107 12.1561 44.5249C12.6137 44.7335 13.1577 44.8751 13.6632 45.007C13.7667 45.0336 13.8701 45.0608 14.0004 45.0959C14.5995 45.2579 15.6343 45.5552 16.5795 45.6149C17.6111 45.6802 18.5415 45.4672 18.7909 44.5412C18.8896 44.1742 18.947 43.8929 18.9702 43.6177C18.9918 43.3623 18.9835 43.1041 18.9536 42.7847C19.2477 42.1329 19.3725 41.9496 19.5875 41.6351C19.6296 41.573 19.6806 41.4986 19.6959 41.4752C19.9265 41.1335 20.0345 40.891 20.0738 40.6178C20.1115 40.3543 20.0796 40.0917 20.0319 39.6902C20.0273 39.6521 20.0204 39.5964 20.0105 39.5228C20.6144 39.6002 21.2098 39.6417 21.8018 39.6455C22.1023 39.6474 22.4026 39.6385 22.7029 39.6226C22.6263 39.6621 22.551 39.701 22.4687 39.7433C22.4322 39.7619 22.3947 39.7814 22.3569 39.8008C21.5603 40.2104 21.5271 40.9865 21.7765 41.7848C22.0013 42.5047 22.4639 43.2398 22.7543 43.687C23.3646 44.6274 23.9469 45.4235 24.6529 45.8561C25.3931 46.3097 26.2385 46.3631 27.33 45.7725C27.8852 45.4718 28.0603 45.1654 28.2961 44.7524C28.3682 44.6263 28.4479 44.4889 28.5364 44.3533C28.766 44.2014 29.3368 43.7306 29.8972 43.2672C30.0879 43.1095 30.2785 42.9525 30.4937 42.7773C30.6419 42.8862 30.8209 42.9619 31.037 43.0135C31.3179 43.0807 31.6524 43.1111 32.0531 43.1397C32.3531 43.1618 33.3313 43.1611 33.9633 43.1609C34.1585 43.1609 34.3206 43.1609 34.4178 43.1615C35.0702 43.1654 35.5969 43.1311 35.9948 42.9057C36.419 42.6652 36.6704 42.2393 36.7253 41.4756C36.7493 41.1364 36.7537 40.9272 36.7066 40.7135C36.6627 40.5134 36.5768 40.3322 36.4293 40.0668C36.4205 39.7368 36.4116 39.4067 36.4029 39.0767C36.3937 38.7265 36.384 38.3762 36.3748 38.0262C36.3637 37.6134 36.3182 37.2781 36.2344 36.9482C36.1513 36.6205 36.0327 36.3052 35.874 35.9271C35.7664 35.6713 35.6792 35.4363 35.5939 35.2058L35.3649 35.2897L35.4002 35.2766L35.5939 35.2058V35.2049C35.4574 34.8368 35.3228 34.4785 35.1344 34.0951C35.1467 34.0211 35.1589 33.9417 35.1708 33.8567C35.292 33.9738 35.4134 34.0906 35.5346 34.2073L36.0709 34.7241C36.4799 35.1181 36.8539 35.4764 37.2931 35.7353C37.7473 36.0034 38.2581 36.1589 38.9196 36.1276C39.612 36.0949 40.3529 35.8033 40.963 35.3533C41.5531 34.9176 42.0267 34.3302 42.2243 33.68C42.2815 33.492 42.3387 33.3038 42.3955 33.116C42.441 32.9661 42.4867 32.8159 42.5324 32.6658C43.5034 32.8304 44.5456 32.8834 45.5523 32.7781C46.5237 32.676 47.4622 32.4287 48.2715 31.997C49.4613 31.3622 50.3532 30.427 50.9943 29.3167L50.9946 29.3169C51.711 28.0759 52.1122 26.6137 52.2647 25.109C52.3868 23.9023 52.3202 22.2617 52.0689 20.6794ZM39.4881 30.8213C38.9286 30.6331 38.5396 30.3583 38.0478 30.0485C38.1817 30.6516 38.2426 31.2895 38.0645 31.8917C37.7817 32.847 37.325 34.41 38.6221 34.6984C39.1159 34.8081 39.3398 34.7923 40.0367 34.4327C39.4727 34.5605 39.1882 34.5291 38.8005 34.4572C38.4492 34.3926 38.2628 34.1695 38.1647 33.9064C38.2874 33.9949 38.4877 34.043 38.8297 34.1255C39.7913 34.3573 40.7076 33.8943 40.8869 33.2276C40.9913 32.8379 40.9735 32.6333 41.195 32.1023C41.3939 32.1639 41.5997 32.2197 41.8107 32.2709C41.6916 32.6592 41.5725 33.0479 41.4534 33.4361C41.1444 34.4444 39.9402 35.2572 38.8771 35.2387C37.8942 35.2213 37.2711 34.6058 36.5924 34.0021C36.1251 33.5858 35.6752 33.1881 35.2294 32.794C34.0061 32.4079 33.0257 31.957 31.8904 31.1166C32.6984 32.0659 33.2463 32.5916 34.3731 33.0641C34.2093 34.7356 33.6284 35.9543 33.1331 37.5539C32.9088 38.2771 31.1393 41.1756 30.6489 41.4582C30.2993 41.6596 28.109 43.5043 27.6971 43.7478C27.3902 44.1553 27.1208 44.7184 26.6595 44.9621C25.2537 45.7055 24.3503 44.2822 23.5939 43.0801C23.2494 42.5323 22.2929 40.9549 23.1267 40.513C23.9152 40.0957 24.3567 39.7972 25.1611 39.2691C25.2792 39.4844 25.482 39.6925 25.6141 39.9077C25.585 39.6723 25.5558 39.4371 25.5263 39.2015C25.4735 38.7751 25.4755 38.4289 25.5095 37.9998C25.5424 37.5845 25.5748 37.169 25.6075 36.7535C25.4865 37.1758 25.2447 37.5981 25.1239 38.0202C25.0755 38.1891 25.0355 38.3256 25.0125 38.4521C23.2077 38.8209 21.4159 38.844 19.6105 38.5219C19.4954 37.8535 19.3551 37.1571 19.2375 36.6578C19.2019 37.217 19.2249 38.7628 19.2219 39.6285C19.2196 40.299 19.1915 40.5285 18.8457 41.0992C18.5219 41.633 18.3849 41.7544 17.9315 42.6567C17.9692 43.2262 17.97 43.6024 17.8188 44.1429C17.5671 45.0414 15.0292 44.3452 14.3598 44.1619C13.5352 43.9362 11.8309 43.6009 12.2596 42.5019C12.6367 41.5345 12.8759 40.5146 13.0601 39.1611C11.5496 36.9852 10.145 34.0032 9.87542 31.361C9.66608 29.3097 9.79161 28.047 10.2356 26.7921C10.9389 24.8038 11.9232 23.0828 13.5022 21.6969C15.6321 19.8279 17.6232 19.0774 20.7407 18.6028C19.9909 19.4421 19.2492 20.3295 18.4407 21.281C17.6224 22.2443 17.1362 23.2172 16.6165 24.2709C15.8986 25.7261 15.9141 26.28 16.8657 27.5576C17.6857 28.6586 18.1283 29.1541 18.4864 30.2316C18.1908 30.841 18.0832 31.3561 17.9839 32.1884C18.988 33.2861 19.7342 34.0381 20.7092 34.2697C21.6655 34.497 22.4639 34.453 23.3196 34.0159C25.2198 33.0443 26.9779 31.7897 29.1216 31.738C30.1132 29.3001 30.013 27.2629 29.5369 24.904C29.2116 23.2931 29.0812 21.7679 28.9802 20.1256C28.5781 21.8169 28.5026 23.3042 28.8009 24.989C29.1605 27.0192 29.44 29.2625 28.4398 31.0467C26.5015 31.1951 24.8403 32.3743 23.0935 33.2791C22.3913 33.6428 21.6602 33.6783 20.883 33.465C20.1616 33.2668 19.6747 32.7894 18.8976 31.8932C18.8853 30.9931 19.0884 30.5778 19.5016 29.7627C20.1657 28.4538 20.8985 27.2355 21.7028 25.9477C20.718 27.1364 19.785 28.1295 19.0099 29.3246C18.7135 28.4806 18.2899 28.0519 17.5881 27.1015C16.9027 26.1731 16.8309 25.7667 17.3434 24.6922C17.8588 23.6127 18.2958 22.6638 19.173 21.7167C20.6886 20.0799 22.077 18.2585 23.7344 16.6464C24.6344 15.7713 24.9999 15.8015 26.1934 15.6206C27.2724 15.457 28.3257 15.2507 29.4261 14.9951C28.362 15.0942 27.3334 15.1306 26.2973 15.1563C26.2865 15.1567 26.2759 15.157 26.2652 15.1572C27.2845 13.8555 27.8761 13.13 29.5314 12.4107C33.6073 10.6406 36.197 10.4492 39.3987 13.1404C40.2285 13.8381 40.9532 14.5152 41.7945 15.117C41.4894 15.1431 41.2265 15.1978 40.8788 15.3343C41.302 15.2537 41.7907 15.3335 42.23 15.4139C42.3533 15.494 42.4799 15.5719 42.6096 15.6484C43.2036 15.9984 43.5408 16.1917 43.9425 16.7514C44.367 17.3428 44.721 17.9338 45.0328 18.5852C44.8284 18.5122 44.657 18.4505 44.5043 18.4052C44.3917 18.3534 44.2694 18.3196 44.1397 18.307C43.8828 18.2823 43.6371 18.3455 43.4322 18.4716C43.4239 18.4754 43.4158 18.4792 43.4075 18.4831C43.0789 18.643 42.57 18.8254 42.2294 18.8807C42.4031 18.9407 42.7874 18.9632 42.9686 18.8914C42.9928 18.8818 43.0175 18.8744 43.0428 18.8684C42.9611 19.0075 42.9078 19.1653 42.8912 19.3362C42.8695 19.5625 42.9156 19.7796 43.0128 19.9682C43.0132 19.9687 43.0134 19.9693 43.0137 19.9702C43.0445 20.0425 43.0872 20.1092 43.1342 20.1573C42.9786 20.2147 42.8197 20.2802 42.6558 20.3513C43.4154 20.2356 44.1003 20.2158 44.8416 20.3134C44.8905 20.5471 44.9397 20.7948 44.9854 21.0466C44.8935 21.0538 44.8019 21.0607 44.71 21.0681C44.7028 21.0687 44.6951 21.0694 44.6877 21.0702C44.337 20.7899 43.9463 20.8369 43.4124 20.9588C41.7888 21.329 42.1703 22.24 41.4236 23.6127C42.199 22.6647 42.1415 21.6729 43.4053 21.3735C43.6997 21.3039 43.9002 21.2165 44.0995 21.2465C43.7409 21.4269 43.4305 21.7261 43.3075 22.0735C42.9605 23.053 43.1759 23.8783 42.7948 24.7932C43.2669 23.9753 43.2954 23.1772 43.7175 22.3166C43.8691 22.0076 44.4316 21.5128 44.777 21.5053C44.872 21.503 44.9664 21.5011 45.0613 21.4991C45.1446 22.0435 45.1951 22.5841 45.1629 23.0324C45.104 23.8507 44.8914 25.0653 44.7642 25.53C45.1917 24.9803 45.3866 23.8162 45.5744 22.9965C45.7699 22.1433 45.7205 21.1193 45.5493 20.2026C45.3144 18.9448 46.6098 19.1495 47.3618 18.5567C47.9145 18.1209 48.2953 17.4251 48.8021 16.932C49.3048 16.4433 50.0961 17.1616 50.2939 17.6393C51.1513 19.7137 51.5419 22.9773 51.3156 25.0685C51.0613 27.4148 49.9279 29.9764 47.8585 31.1317C45.2201 32.6043 42.1094 31.7046 39.4881 30.8213ZM35.7394 41.243C35.6533 42.2112 35.3307 42.2752 34.4805 42.2603C34.0943 42.2535 32.5562 42.2465 32.1658 42.2129C31.6145 42.1653 31.3049 42.1161 31.1363 41.9903C32.0027 41.3544 33.4749 38.7284 33.7619 37.8244C34.0654 36.8695 34.3976 36.0359 34.6447 35.1532C34.7584 35.522 34.8482 35.8877 35.0136 36.2796C35.2898 36.9344 35.4247 37.3391 35.4445 38.0415C35.4653 38.7826 35.4863 39.5239 35.5072 40.265C35.7445 40.6805 35.7815 40.7692 35.7394 41.243ZM9.66476 33.9088C10.215 35.812 11.1522 37.6823 12.1914 39.2545C12.1914 39.2636 12.1912 39.2727 12.1912 39.2821C12.1259 39.5524 12.0508 39.8155 11.8928 40.027C11.1502 41.0206 9.26098 39.562 8.71412 39.004C8.11648 38.3936 7.7163 37.671 7.62097 36.9929C7.55169 36.4985 7.61908 36.4864 7.96396 36.1367C8.42889 35.6659 8.89439 35.1949 9.35914 34.7243C9.46089 34.4525 9.56282 34.1805 9.66476 33.9088ZM8.61408 21.9396C8.47307 22.2424 8.37302 22.4718 8.30487 22.7079C8.0087 23.7309 8.4389 24.6439 7.51016 25.3854C7.94659 26.266 7.92658 26.6171 8.94178 26.2103C9.33328 26.0533 9.65626 25.8332 9.94451 25.5728C9.80709 25.9281 9.67967 26.2947 9.55961 26.6732C9.5396 26.7358 9.52054 26.7989 9.50204 26.8614C8.77604 27.1694 7.82125 27.3652 7.4558 26.6022C7.27836 26.2318 7.17812 25.8683 7.04882 25.4003C5.85316 24.1616 7.64041 22.5261 8.61408 21.9396ZM9.20171 23.2518C9.05409 23.1041 8.93592 23.0041 8.74527 23.0258C8.76131 22.9007 8.78264 22.78 8.81285 22.6666C8.82814 22.6083 8.84437 22.5511 8.86174 22.4937C9.10921 22.6379 9.17453 22.8991 9.20171 23.2518ZM45.0519 18.6253C45.097 18.7204 45.1413 18.8172 45.185 18.9152C45.1489 18.9416 45.1145 18.9696 45.0825 18.999C45.0236 18.8612 44.938 18.7363 44.8321 18.6317C44.9035 18.629 44.9766 18.6268 45.0519 18.6253Z" fill="black"/>
<path d="M4.51895 25.439C4.70923 23.2848 5.12811 22.3547 6.65863 20.7334C4.73887 22.0863 4.25977 22.7011 4.51895 25.439Z" fill="black"/>
<path d="M4.02408 23.679C4.2355 22.7095 4.43257 22.3437 5.03021 21.5479C4.06051 22.2253 3.93403 22.5036 4.02408 23.679Z" fill="black"/>
<path d="M26.5462 10.1641C25.3963 10.4412 25.1769 10.6539 24.832 11.7812C25.3823 10.9558 25.6992 10.6871 26.5462 10.1641Z" fill="black"/>
<path d="M28.3605 10C26.0794 10.5591 25.4091 10.9567 24.6514 13.6004C25.6145 11.6642 26.3439 10.9512 28.3605 10Z" fill="black"/>
<path d="M33.2728 19.6369C33.5159 18.5598 33.948 17.5218 35.6208 16.7188C33.4034 17.2741 32.9877 18.2053 33.2728 19.6369Z" fill="black"/>
<path d="M47.3811 19.7111C48.6942 19.243 49.3271 18.1874 49.6416 16.9453C49.1276 17.9864 48.3346 18.857 47.2571 19.3902C46.6789 19.6762 46.3096 19.5765 45.6641 19.5154C46.3206 19.7038 46.7365 19.9409 47.3811 19.7111Z" fill="black"/>
<path d="M38.4364 20.7673C38.2614 20.4006 37.9548 20.1378 37.6 20.0077C37.922 19.8358 38.2384 19.6551 38.4853 19.4307C37.7623 19.7653 36.9206 19.6836 36.3003 20.1027C35.7538 20.4717 34.9997 21.6413 34.4443 22.1372C34.8466 21.9811 35.2341 21.7112 35.5907 21.4265C35.5922 21.6381 35.6387 21.8524 35.7355 22.0555C35.8801 22.3583 36.114 22.5899 36.3909 22.7347C36.191 22.998 36.0251 23.2928 35.9063 23.6198C36.9636 22.3668 38.4966 21.4205 39.9378 21.0157C39.535 21.0101 39.058 21.0854 38.5721 21.2451C38.5544 21.0835 38.5102 20.9221 38.4364 20.7673Z" fill="black"/>
<path d="M36.9148 30.2353C36.8635 30.5598 36.793 30.963 36.7417 31.2877C36.8789 30.9204 37.0443 30.4936 37.204 30.1434C37.3735 29.7728 37.4688 29.7379 37.8282 29.5424C38.0831 29.4036 38.5459 29.213 38.8008 29.0742C38.5386 29.1184 38.0685 29.2149 37.8063 29.259C37.1058 29.3774 37.0233 29.5456 36.9148 30.2353Z" fill="black"/>
<path d="M24.9496 17.709C24.1365 18.5126 23.3471 21.2699 23.0947 22.3731C23.4923 21.4566 24.4867 18.8931 25.2497 18.2409C25.4604 18.0607 25.6076 17.9501 25.7658 17.8696C25.2197 18.7853 25.2597 19.0132 25.4515 20.2402C25.6142 18.9928 26.0455 18.5109 26.7534 17.5803C27.5293 17.3854 28.2554 17.1523 29.0513 16.8418C28.1537 16.9434 27.2574 17.0362 26.3595 17.1212C25.6055 17.1927 25.4841 17.1804 24.9496 17.709Z" fill="black"/>
<path d="M36.0246 22.4026C35.8764 22.0926 36.0089 21.7192 36.3196 21.5714C36.6303 21.4234 37.0045 21.5556 37.1526 21.8657C37.1668 21.8952 37.1779 21.9254 37.1872 21.9556C36.8904 22.1758 36.6184 22.4352 36.3902 22.7357C36.2367 22.674 36.1006 22.5617 36.0246 22.4026Z" fill="#FFFFCC"/>
<path d="M42.9665 19.7165C42.9914 19.4596 43.2103 19.2703 43.4671 19.2952C43.7236 19.3201 43.9133 19.5494 43.8886 19.8062C43.8831 19.8609 43.8684 19.9121 43.8463 19.9593C43.6113 19.9995 43.3763 20.0682 43.1341 20.1573C43.0329 20.0536 42.9523 19.8645 42.9665 19.7165Z" fill="#FFFFCC"/>
</g>
<defs>
<clipPath id="clip0_584_772">
<rect width="56" height="56" fill="white"/>
</clipPath>
</defs>
</svg>
