<svg width="56" height="56" viewBox="0 0 56 56" fill="none" xmlns="http://www.w3.org/2000/svg">
<g clip-path="url(#clip0_583_653)">
<path d="M42.875 0H13.125C5.87626 0 0 5.87626 0 13.125V42.875C0 50.1237 5.87626 56 13.125 56H42.875C50.1237 56 56 50.1237 56 42.875V13.125C56 5.87626 50.1237 0 42.875 0Z" fill="white"/>
<path d="M12.2774 28.6269C12.2774 29.7717 12.1846 30.1365 11.9491 30.4156C11.6851 30.6517 11.3497 30.7805 11 30.7805L11.0928 31.4315C11.6351 31.4387 12.1632 31.2455 12.5771 30.8878C12.7983 30.6159 12.9625 30.3011 13.0624 29.9648C13.1623 29.6286 13.1908 29.278 13.148 28.9274V24.6133H12.2774V28.6269Z" fill="#4E4E4E"/>
<path d="M19.1452 28.1122C19.1452 28.5987 19.1452 29.0351 19.1808 29.4143H18.4101L18.3602 28.6416C18.196 28.9135 17.9677 29.1424 17.6894 29.2998C17.411 29.4572 17.0971 29.5359 16.7831 29.5288C16.0266 29.5288 15.1274 29.121 15.1274 27.4397V24.6565H15.9981V27.2679C15.9981 28.1766 16.2764 28.7775 17.0614 28.7775C17.2255 28.7775 17.3825 28.7489 17.5324 28.6845C17.6822 28.6201 17.8178 28.5343 17.932 28.4198C18.0462 28.3053 18.1389 28.1694 18.196 28.0192C18.2531 27.8689 18.2888 27.7044 18.2888 27.547V24.6279H19.1594V28.0907L19.1452 28.1122Z" fill="#4E4E4E"/>
<path d="M21.3438 26.2018C21.3438 25.5937 21.3438 25.1001 21.3081 24.6493H22.086L22.1216 25.4649C22.295 25.1683 22.5469 24.9256 22.8495 24.7638C23.1493 24.5992 23.4918 24.5205 23.8272 24.5349C24.9833 24.5349 25.8539 25.5079 25.8539 26.9531C25.8539 28.663 24.8049 29.5072 23.6774 29.5072C23.3848 29.5215 23.0993 29.4572 22.8424 29.3284C22.5855 29.1996 22.3643 28.9993 22.2001 28.756V31.3674H21.3438V26.2018ZM22.2001 27.4753C22.2001 27.597 22.2144 27.7115 22.2358 27.8259C22.3072 28.1121 22.4785 28.3697 22.714 28.5557C22.9495 28.7417 23.242 28.8347 23.5346 28.8347C24.4552 28.8347 24.9904 28.0835 24.9904 26.996C24.9904 26.0444 24.4837 25.2288 23.5632 25.2288C23.1992 25.2575 22.8638 25.422 22.6069 25.6796C22.3571 25.9443 22.2073 26.2877 22.193 26.6526V27.4753H22.2001Z" fill="#4E4E4E"/>
<path d="M27.912 24.6507L28.961 27.4624C29.0681 27.7772 29.1894 28.1564 29.2679 28.4354C29.3607 28.1493 29.4534 27.7844 29.5748 27.441L30.5239 24.6507H31.4445L30.1457 28.0419C29.4963 29.6732 29.0966 30.5102 28.4972 31.0254C28.1975 31.3044 27.8264 31.4976 27.4339 31.5834L27.2198 30.8537C27.4981 30.7607 27.755 30.6176 27.9834 30.4315C28.2974 30.174 28.5543 29.8449 28.7184 29.4657C28.7541 29.4013 28.7755 29.3298 28.7898 29.2582C28.7826 29.1795 28.7612 29.1008 28.7327 29.0293L26.9629 24.6436H27.912V24.6507Z" fill="#4E4E4E"/>
<path d="M34.2648 23.1523V24.5189H35.5137V25.1699H34.2648V27.7384C34.2648 28.3251 34.4361 28.6613 34.9142 28.6613C35.0855 28.6613 35.2568 28.647 35.4209 28.6041L35.4566 29.2551C35.2068 29.341 34.9428 29.3839 34.6859 29.3696C34.5146 29.3839 34.3362 29.3553 34.1721 29.2909C34.0079 29.2265 33.8652 29.1335 33.7368 29.0047C33.4727 28.647 33.3514 28.2034 33.4014 27.767V25.1556H32.6592V24.5045H33.4156V23.3455L34.2648 23.1523Z" fill="#4E4E4E"/>
<path d="M37.4706 27.1837C37.4564 27.4054 37.4849 27.6272 37.5634 27.8347C37.6419 28.0422 37.7632 28.2354 37.9202 28.3856C38.0772 28.543 38.2628 28.6646 38.4697 28.7433C38.6767 28.822 38.8979 28.8506 39.1191 28.8363C39.5687 28.8435 40.0111 28.7648 40.4179 28.5859L40.5678 29.237C40.0611 29.4445 39.5187 29.5446 38.9764 29.5303C38.6552 29.5518 38.3413 29.5017 38.0415 29.3944C37.7418 29.2799 37.4706 29.1011 37.2494 28.8793C37.0282 28.6503 36.8569 28.3785 36.7427 28.078C36.6357 27.7775 36.5929 27.4555 36.6214 27.1407C36.6214 25.7027 37.4706 24.5723 38.8622 24.5723C40.425 24.5723 40.8104 25.9388 40.8104 26.8188C40.8175 26.9547 40.8175 27.0906 40.8104 27.2266H37.4492L37.4706 27.1837ZM40.0183 26.5326C40.0468 26.3609 40.0325 26.182 39.9826 26.0103C39.9326 25.8386 39.847 25.6812 39.7328 25.5524C39.6186 25.4165 39.4759 25.3092 39.3189 25.2376C39.1619 25.1661 38.9835 25.1232 38.8123 25.1232C38.4554 25.1518 38.12 25.3092 37.8703 25.5667C37.6205 25.8243 37.4849 26.1677 37.4778 26.5326H40.0183Z" fill="#4E4E4E"/>
<path d="M42.6734 26.128C42.6734 25.5699 42.6734 25.0834 42.6377 24.6399H43.4156V25.5699H43.4512C43.5297 25.2838 43.701 25.0262 43.9365 24.8402C44.172 24.6542 44.4574 24.5468 44.75 24.5254C44.8285 24.5111 44.9142 24.5111 44.9998 24.5254V25.341C44.8999 25.3267 44.8 25.3267 44.7001 25.341C44.4075 25.3553 44.122 25.4698 43.908 25.6773C43.6939 25.8847 43.5583 26.1566 43.5369 26.4499C43.5155 26.5859 43.5012 26.7218 43.5012 26.8578V29.3976H42.6448V26.1351L42.6734 26.128Z" fill="#4E4E4E"/>
<path d="M41.8242 10.0703C41.8528 10.5068 41.7457 10.9432 41.5245 11.3224C41.3033 11.7016 40.975 12.0021 40.5825 12.1952C40.19 12.3884 39.7476 12.4528 39.3122 12.3956C38.8769 12.3312 38.4702 12.1451 38.149 11.8518C37.8208 11.5585 37.5924 11.1721 37.4854 10.75C37.3783 10.3279 37.3997 9.87717 37.5496 9.46221C37.6994 9.04725 37.9635 8.68953 38.3203 8.43197C38.6771 8.17441 39.0982 8.02416 39.5335 8.0027C39.8189 7.98839 40.1044 8.03131 40.3755 8.12432C40.6467 8.21733 40.8965 8.36756 41.1106 8.56073C41.3247 8.75391 41.4959 8.99001 41.6173 9.24757C41.7386 9.50513 41.8099 9.78416 41.8242 10.0703Z" fill="#767677"/>
<path d="M26.8043 37.7996C20.9526 37.7996 15.8073 35.6962 13.1455 32.584C14.1803 35.3814 16.0428 37.7996 18.4834 39.5024C20.924 41.2052 23.8285 42.1209 26.8043 42.1209C29.7801 42.1209 32.6846 41.2052 35.1252 39.5024C37.5658 37.7996 39.4284 35.3814 40.4631 32.584C37.8084 35.6962 32.6846 37.7996 26.8043 37.7996Z" fill="#F37726"/>
<path d="M26.8043 15.6856C32.6561 15.6856 37.8013 17.789 40.4631 20.9012C39.4284 18.1038 37.5658 15.6856 35.1252 13.9828C32.6846 12.28 29.7801 11.3643 26.8043 11.3643C23.8285 11.3643 20.924 12.28 18.4834 13.9828C16.0428 15.6856 14.1803 18.1038 13.1455 20.9012C15.8002 17.7818 20.924 15.6856 26.8043 15.6856Z" fill="#F37726"/>
<path d="M18.7452 44.7047C18.7809 45.2556 18.6525 45.8065 18.3741 46.2859C18.0958 46.7652 17.6819 47.1444 17.1824 47.3876C16.6829 47.6309 16.1262 47.7167 15.5839 47.638C15.0344 47.5593 14.5277 47.3233 14.1138 46.9512C13.707 46.5792 13.4144 46.0998 13.2788 45.5632C13.1433 45.0267 13.1718 44.4615 13.3574 43.9392C13.5429 43.4169 13.8783 42.9662 14.3208 42.6371C14.7632 42.308 15.2984 42.1219 15.8479 42.0933C16.2119 42.0718 16.5687 42.1291 16.9112 42.2436C17.2537 42.358 17.5677 42.5512 17.8318 42.7945C18.103 43.0377 18.3171 43.3311 18.4741 43.6602C18.6382 43.9821 18.731 44.3398 18.7452 44.7047Z" fill="#9E9E9E"/>
<path d="M13.714 15.0165C13.4 15.0236 13.086 14.9378 12.8219 14.7732C12.5579 14.6087 12.3438 14.3583 12.2154 14.0721C12.0869 13.7859 12.0441 13.464 12.094 13.1492C12.144 12.8344 12.2867 12.5482 12.5008 12.3192C12.7149 12.0903 12.9932 11.9257 13.3001 11.8542C13.6069 11.7826 13.9281 11.8041 14.2278 11.9114C14.5204 12.0187 14.7773 12.2191 14.9628 12.4695C15.1484 12.727 15.2554 13.0275 15.2697 13.3495C15.284 13.7788 15.127 14.1937 14.8344 14.5014C14.5418 14.8162 14.135 14.995 13.714 15.0165Z" fill="#616262"/>
</g>
<defs>
<clipPath id="clip0_583_653">
<rect width="56" height="56" fill="white"/>
</clipPath>
</defs>
</svg>
