<svg width="56" height="56" viewBox="0 0 56 56" fill="none" xmlns="http://www.w3.org/2000/svg">
<g clip-path="url(#clip0_583_627)">
<path d="M42.875 0H13.125C5.87626 0 0 5.87626 0 13.125V42.875C0 50.1237 5.87626 56 13.125 56H42.875C50.1237 56 56 50.1237 56 42.875V13.125C56 5.87626 50.1237 0 42.875 0Z" fill="white"/>
<path d="M28 51C21.8568 51 16.0808 48.6076 11.7368 44.2636C7.39274 39.9196 5 34.1436 5 28C5 21.8564 7.39237 16.0808 11.7364 11.7364C16.0804 7.392 21.8564 5 28 5C34.1436 5 39.9196 7.39237 44.2636 11.7364C48.6076 16.0804 51 21.8564 51 28C51 34.1436 48.6076 39.9196 44.2636 44.2636C39.9196 48.6076 34.1436 51 28 51ZM28 5.67516C22.0371 5.67516 16.4306 7.99742 12.2142 12.2138C7.99742 16.4306 5.67516 22.0367 5.67516 28C5.67516 33.9633 7.99742 39.5697 12.2138 43.7862C16.4303 48.0026 22.0367 50.3248 28 50.3248C33.9633 50.3248 39.5697 48.0026 43.7862 43.7862C48.0026 39.5697 50.3248 33.9633 50.3248 28C50.3248 22.0367 48.0026 16.4306 43.7862 12.2138C39.5694 7.99742 33.9633 5.67516 28 5.67516Z" fill="#11557C"/>
<path d="M27.9998 45.9361C18.1098 45.9361 10.0635 37.8901 10.0635 27.9998C10.0635 18.1094 18.1098 10.0635 27.9998 10.0635C37.8898 10.0635 45.9361 18.1098 45.9361 27.9998C45.9361 37.8898 37.8898 45.9361 27.9998 45.9361ZM27.9998 10.3232C18.253 10.3232 10.3232 18.2526 10.3232 27.9998C10.3232 37.7469 18.253 45.6764 27.9998 45.6764C37.7466 45.6764 45.6764 37.7466 45.6764 27.9998C45.6764 18.253 37.7466 10.3232 27.9998 10.3232Z" fill="#11557C"/>
<path d="M28.0001 40.7423C20.9739 40.7423 15.2573 35.0257 15.2573 27.9996C15.2573 20.9734 20.9739 15.2568 28.0001 15.2568C35.0262 15.2568 40.7428 20.9734 40.7428 27.9996C40.7428 35.0257 35.0262 40.7423 28.0001 40.7423ZM28.0001 15.5165C21.1168 15.5165 15.517 21.1163 15.517 27.9996C15.517 34.8829 21.1168 40.4826 28.0001 40.4826C34.8834 40.4826 40.4831 34.8829 40.4831 27.9996C40.4831 21.1163 34.8834 15.5165 28.0001 15.5165Z" fill="#11557C"/>
<path d="M27.9999 35.5486C23.8372 35.5486 20.4507 32.162 20.4507 27.9994C20.4507 23.8368 23.8372 20.4502 27.9999 20.4502C32.1625 20.4502 35.5491 23.8368 35.5491 27.9994C35.5491 32.162 32.1625 35.5486 27.9999 35.5486ZM27.9999 20.7099C23.9804 20.7099 20.7104 23.98 20.7104 27.9994C20.7104 32.0188 23.9804 35.2889 27.9999 35.2889C32.0193 35.2889 35.2894 32.0188 35.2894 27.9994C35.2894 23.98 32.0193 20.7099 27.9999 20.7099Z" fill="#11557C"/>
<path d="M28 30.7267C26.4965 30.7267 25.2734 29.5036 25.2734 28C25.2734 26.4965 26.4965 25.2734 28 25.2734C29.5036 25.2734 30.7267 26.4965 30.7267 28C30.7267 29.5036 29.5036 30.7267 28 30.7267ZM28 25.5331C26.6397 25.5331 25.5331 26.6397 25.5331 28C25.5331 29.3604 26.6397 30.467 28 30.467C29.3604 30.467 30.467 29.3604 30.467 28C30.467 26.6397 29.3604 25.5331 28 25.5331Z" fill="#11557C"/>
<path d="M43.9744 40.1818L28.4372 28.0738L33.0272 28.0742C33.0678 28.0742 33.1068 28.0581 33.1355 28.0293C33.1642 28.0006 33.1804 27.9616 33.1804 27.921C33.1809 27.3764 33.0952 26.8351 32.9266 26.3173V26.3169C32.9139 26.2784 32.8864 26.2464 32.8502 26.2281C32.814 26.2097 32.772 26.2064 32.7333 26.219L28.4286 27.6172L37.5314 16.204C37.5567 16.1721 37.5683 16.1315 37.5638 16.0911C37.5592 16.0507 37.5387 16.0138 37.507 15.9884C36.2552 14.9893 34.8535 14.1942 33.3536 13.6324C33.3348 13.6254 33.3144 13.6221 33.2943 13.6228C33.2742 13.6234 33.2544 13.6281 33.2361 13.6364C33.2178 13.6448 33.2013 13.6566 33.1876 13.6714C33.1739 13.6861 33.1633 13.7033 33.1563 13.7222L28.0269 27.3883L23.6584 8.24745C23.6493 8.20777 23.6249 8.17329 23.5905 8.15159C23.5561 8.12988 23.5144 8.12274 23.4747 8.13171C20.352 8.84536 17.4421 10.2871 14.9825 12.3392L14.9818 12.34C14.9508 12.3661 14.9315 12.4034 14.928 12.4437C14.9245 12.4841 14.9372 12.5241 14.9632 12.5551L27.4177 27.4732L12.1773 20.134C12.1407 20.1164 12.0982 20.1141 12.0599 20.1275C12.0216 20.1409 11.9901 20.169 11.9725 20.2056C10.3484 23.5614 9.8246 27.4287 10.4972 31.0954C10.5047 31.1353 10.5276 31.1706 10.561 31.1937C10.5944 31.2167 10.6356 31.2257 10.6756 31.2185L26.9047 28.273L18.8491 32.1522C18.8126 32.17 18.7842 32.2015 18.7708 32.2399C18.7575 32.2783 18.7599 32.3204 18.7775 32.357C19.0101 32.8396 19.2801 33.3033 19.5851 33.7437C19.6087 33.7768 19.6442 33.7994 19.6842 33.8067C19.7242 33.814 19.7655 33.8054 19.7992 33.7827L27.7531 28.2716L25.0395 40.1607C25.0306 40.2004 25.0377 40.242 25.0593 40.2764C25.0809 40.3109 25.1153 40.3354 25.1548 40.3447C26.0804 40.5562 27.0394 40.6626 27.9965 40.6626C28.7098 40.663 29.4217 40.6033 30.1251 40.4842C30.1652 40.4774 30.201 40.4549 30.2246 40.4217C30.2482 40.3886 30.2576 40.3474 30.2508 40.3072L28.2413 28.4808L40.4302 43.7654C40.4555 43.7971 40.4923 43.8175 40.5326 43.8222C40.573 43.8269 40.6135 43.8154 40.6453 43.7902C41.8934 42.7952 43.0196 41.6564 44.0008 40.3974C44.0132 40.3815 44.0224 40.3633 44.0278 40.3439C44.0333 40.3245 44.0348 40.3042 44.0324 40.2841C44.0299 40.2641 44.0235 40.2448 44.0136 40.2272C44.0036 40.2097 43.9903 40.1942 43.9744 40.1818Z" fill="#11557C"/>
<path d="M28.1294 50.7589H27.8698V28.3135L11.9983 44.1847L11.8146 44.001L11.9066 43.9094L27.6861 28.1299H5.24072V27.8702H27.6861L11.815 11.9988L11.9986 11.8151L27.8698 27.6866V5.24121H28.1294V27.6866L44.0009 11.8155L44.1845 11.9991L44.0925 12.0911L28.3131 27.8702H50.7585V28.1299H28.3131L44.1842 44.0014L44.0005 44.185L43.9089 44.093L28.1294 28.3135V50.7589Z" fill="#11557C"/>
</g>
<defs>
<clipPath id="clip0_583_627">
<rect width="56" height="56" fill="white"/>
</clipPath>
</defs>
</svg>
