<svg width="56" height="56" viewBox="0 0 56 56" fill="none" xmlns="http://www.w3.org/2000/svg">
<g clip-path="url(#clip0_583_635)">
<path d="M42.875 0H13.125C5.87626 0 0 5.87626 0 13.125V42.875C0 50.1237 5.87626 56 13.125 56H42.875C50.1237 56 56 50.1237 56 42.875V13.125C56 5.87626 50.1237 0 42.875 0Z" fill="white"/>
<path d="M42.652 38.1269C49.1249 31.6974 50.2007 22.3421 45.0547 17.2307C39.9096 12.1199 30.492 13.1884 24.0195 19.6175C17.5471 26.0467 19.4194 38.33 21.6172 40.5136C23.3933 42.2778 36.18 44.5559 42.652 38.1269Z" fill="#F89939"/>
<path d="M16.093 28.8358C12.338 25.1058 6.8733 24.4848 3.88714 27.4509C0.90174 30.4167 1.52592 35.8458 5.2817 39.5753C9.03748 43.3065 16.2125 42.2272 17.4868 40.9602C18.5181 39.9375 19.8492 32.5663 16.093 28.8358Z" fill="#3499CD"/>
<path d="M29.0494 36.5515C28.386 37.1581 27.8041 37.6057 27.3039 37.8933C26.8038 38.1819 26.3268 38.326 25.8729 38.326C25.3507 38.326 24.9295 38.1249 24.6102 37.7227C24.2902 37.32 24.1309 36.7801 24.1309 36.1008C24.1309 35.0831 24.3529 33.8612 24.7971 32.4366C25.2405 31.0109 25.7804 29.6972 26.4145 28.4953L28.2738 27.8115C28.3321 27.7921 28.3765 27.7822 28.4059 27.7822C28.5469 27.7822 28.6635 27.8855 28.753 28.0911C28.8434 28.2977 28.8888 28.5752 28.8888 28.9241C28.8888 29.913 28.6597 30.8704 28.2004 31.7963C27.7414 32.7225 27.0243 33.7111 26.0485 34.763C26.0093 35.2672 25.9898 35.6135 25.9898 35.8028C25.9898 36.2248 26.0678 36.5587 26.2239 36.8061C26.3803 37.0538 26.5874 37.1769 26.8462 37.1769C27.1101 37.1769 27.3905 37.0831 27.6883 36.894C27.9854 36.7045 28.4393 36.3123 29.0492 35.7156V36.5515H29.0494ZM26.2461 33.709C26.8657 33.0246 27.3689 32.257 27.7542 31.4079C28.1395 30.5583 28.3319 29.8276 28.3319 29.2154C28.3319 29.0369 28.3054 28.8919 28.2521 28.7829C28.1983 28.6737 28.1295 28.6189 28.0468 28.6189C27.867 28.6189 27.6042 29.0654 27.26 29.9586C26.9158 30.8516 26.5779 32.1019 26.2461 33.709Z" fill="#010101"/>
<path d="M34.5244 36.5501C33.9048 37.1567 33.3486 37.6043 32.8556 37.8919C32.3625 38.1805 31.819 38.3246 31.2233 38.3246C30.5595 38.3246 30.024 38.1137 29.616 37.6924C29.2087 37.27 29.0054 36.7155 29.0054 36.0269C29.0054 34.9995 29.3637 34.0698 30.0819 33.2385C30.7986 32.4068 31.5944 31.9912 32.4678 31.9912C32.9217 31.9912 33.2848 32.108 33.5585 32.3405C33.8318 32.5735 33.9684 32.8785 33.9684 33.2567C33.9684 34.2604 32.8949 35.0743 30.7478 35.6998C30.9427 36.6447 31.4526 37.1178 32.2774 37.1178C32.5997 37.1178 32.9068 37.0318 33.1994 36.8601C33.4927 36.6878 33.934 36.3054 34.5246 35.7144L34.5244 36.5501ZM30.6887 35.2053C31.9376 34.856 32.5626 34.2116 32.5626 33.2711C32.5626 32.8058 32.3915 32.5733 32.0504 32.5733C31.7282 32.5733 31.4211 32.8165 31.1285 33.3042C30.8349 33.7911 30.6887 34.4244 30.6887 35.2053Z" fill="#010101"/>
<path d="M42.3429 36.5507C41.562 37.2874 41.0032 37.7679 40.6669 37.9912C40.3301 38.2141 40.0081 38.3253 39.7004 38.3253C38.9293 38.3253 38.566 37.6493 38.6097 36.2967C38.1218 36.9896 37.6713 37.501 37.2589 37.8314C36.8469 38.1609 36.4213 38.3253 35.9815 38.3253C35.5527 38.3253 35.188 38.1258 34.8874 37.7258C34.5868 37.3258 34.4375 36.8352 34.4375 36.253C34.4375 35.5263 34.6384 34.8329 35.0407 34.1732C35.4437 33.5139 35.9597 32.9812 36.5891 32.574C37.2184 32.1668 37.7753 31.9629 38.2579 31.9629C38.8681 31.9629 39.2952 32.2418 39.5393 32.799L41.0353 31.9777H41.4459L40.7997 34.1079C40.4679 35.1796 40.3015 35.9141 40.3015 36.3115C40.3015 36.7282 40.45 36.9366 40.7479 36.9366C40.9375 36.9366 41.1473 36.8362 41.3769 36.6348C41.6064 36.4333 41.9278 36.1267 42.3426 35.7148V36.5507H42.3429ZM36.9847 36.951C37.4726 36.951 37.9324 36.5379 38.3651 35.7116C38.797 34.8848 39.0128 34.122 39.0128 33.4241C39.0128 33.153 38.9512 32.9406 38.8299 32.7881C38.7074 32.6349 38.544 32.559 38.3395 32.559C37.8512 32.559 37.3883 32.971 36.9524 33.7953C36.5157 34.6196 36.2969 35.3782 36.2969 36.0707C36.2969 36.3329 36.3618 36.545 36.491 36.7075C36.6202 36.87 36.7842 36.951 36.9847 36.951Z" fill="#010101"/>
<path d="M47.8114 36.5517C46.5864 37.7441 45.6419 38.3408 44.9784 38.3408C44.6804 38.3408 44.4289 38.2158 44.2244 37.967C44.0199 37.7171 43.9169 37.4079 43.9169 37.0392C43.9169 36.3557 44.2858 35.4399 45.0225 34.2908C44.6611 34.4752 44.2663 34.6031 43.8366 34.676C43.5194 35.2577 43.0214 35.8832 42.3433 36.5515H42.1753V35.8978C42.5556 35.5052 42.8998 35.0832 43.2073 34.6323C42.787 34.448 42.5776 34.1741 42.5776 33.8111C42.5776 33.4373 42.7053 33.0388 42.9621 32.6141C43.2182 32.1904 43.5706 31.9785 44.0199 31.9785C44.4006 31.9785 44.5906 32.1718 44.5906 32.5598C44.5906 32.8653 44.4809 33.3013 44.2609 33.8688C45.0709 33.7813 45.7786 33.1662 46.384 32.0218L47.0499 31.9926L46.3691 33.854C46.0863 34.6394 45.9032 35.1743 45.8204 35.4576C45.7377 35.7408 45.6958 35.9922 45.6958 36.21C45.6958 36.4138 45.7436 36.5767 45.8384 36.6971C45.9336 36.8192 46.062 36.8792 46.2229 36.8792C46.3983 36.8792 46.5671 36.8195 46.728 36.7015C46.8889 36.5817 47.2501 36.2536 47.8116 35.7156V36.5517H47.8114Z" fill="#010101"/>
<path d="M55 36.5515C53.8728 37.7349 52.9059 38.3261 52.1011 38.3261C51.7741 38.3261 51.5106 38.2122 51.3105 37.9842C51.11 37.7566 51.0101 37.4513 51.0101 37.0684C51.0101 36.5497 51.2251 35.757 51.6547 34.691C51.8838 34.1188 51.9989 33.7547 51.9989 33.6001C51.9989 33.4448 51.9373 33.3672 51.816 33.3672C51.7478 33.3672 51.657 33.4014 51.545 33.4688C51.442 33.5365 51.3225 33.6318 51.1859 33.7528C51.0641 33.864 50.9271 33.9998 50.7759 34.1592C50.6439 34.2961 50.5023 34.451 50.3519 34.6249L49.9413 35.098C49.7611 35.3159 49.6487 35.5459 49.605 35.7885C49.5314 36.2004 49.4829 36.579 49.4582 36.9235C49.4433 37.1798 49.4362 37.5261 49.4362 37.9633L47.8184 38.3407C47.7651 37.6863 47.7378 37.199 47.7378 36.8795C47.7378 36.0991 47.8293 35.3596 48.0126 34.6617C48.1955 33.9631 48.4893 33.1783 48.8946 32.3054L50.6804 31.9639C50.3048 32.9676 50.0585 33.7573 49.9413 34.3339C50.7417 33.4469 51.3762 32.833 51.8466 32.4907C52.3161 32.1488 52.7343 31.9787 53.0997 31.9787C53.348 31.9787 53.5555 32.0717 53.7208 32.2579C53.8869 32.4444 53.9695 32.6784 53.9695 32.9583C53.9695 33.4232 53.7596 34.1892 53.3405 35.2561C53.0523 35.9878 52.9082 36.4626 52.9082 36.6819C52.9082 36.9737 53.028 37.1195 53.2677 37.1195C53.6245 37.1195 54.2024 36.6515 55 35.7159V36.5515Z" fill="#010101"/>
<path d="M33.8857 29.0303L33.4717 29.1475C33.4456 29.0785 33.4072 29.0114 33.3564 28.9463C33.307 28.8799 33.2393 28.8252 33.1533 28.7822C33.0674 28.7393 32.9574 28.7178 32.8232 28.7178C32.6396 28.7178 32.4867 28.7601 32.3643 28.8447C32.2432 28.9281 32.1826 29.0342 32.1826 29.1631C32.1826 29.2777 32.2243 29.3682 32.3076 29.4346C32.391 29.501 32.5212 29.5563 32.6982 29.6006L33.1436 29.71C33.4118 29.7751 33.6117 29.8747 33.7432 30.0088C33.8747 30.1416 33.9404 30.3128 33.9404 30.5225C33.9404 30.6943 33.891 30.848 33.792 30.9834C33.6943 31.1188 33.5576 31.2256 33.3818 31.3037C33.2061 31.3818 33.0016 31.4209 32.7686 31.4209C32.4626 31.4209 32.2093 31.3545 32.0088 31.2217C31.8083 31.0889 31.6813 30.8949 31.6279 30.6396L32.0654 30.5303C32.1071 30.6917 32.1859 30.8128 32.3018 30.8936C32.4189 30.9743 32.5719 31.0146 32.7607 31.0146C32.9756 31.0146 33.1462 30.9691 33.2725 30.8779C33.4001 30.7855 33.4639 30.6748 33.4639 30.5459C33.4639 30.4417 33.4274 30.3545 33.3545 30.2842C33.2816 30.2126 33.1696 30.1592 33.0186 30.124L32.5186 30.0068C32.2438 29.9417 32.042 29.8408 31.9131 29.7041C31.7855 29.5661 31.7217 29.3936 31.7217 29.1865C31.7217 29.0173 31.7692 28.8675 31.8643 28.7373C31.9606 28.6071 32.0915 28.5049 32.2568 28.4307C32.4235 28.3564 32.6123 28.3193 32.8232 28.3193C33.1201 28.3193 33.3532 28.3844 33.5225 28.5146C33.693 28.6449 33.8141 28.8167 33.8857 29.0303ZM35.853 31.4209C35.5718 31.4209 35.3296 31.3545 35.1265 31.2217C34.9233 31.0889 34.7671 30.9059 34.6577 30.6729C34.5483 30.4398 34.4937 30.1735 34.4937 29.874C34.4937 29.5693 34.5496 29.3005 34.6616 29.0674C34.7749 28.833 34.9325 28.6501 35.1343 28.5186C35.3374 28.3857 35.5744 28.3193 35.8452 28.3193C36.0562 28.3193 36.2463 28.3584 36.4155 28.4365C36.5848 28.5146 36.7235 28.624 36.8315 28.7646C36.9396 28.9053 37.0067 29.0693 37.0327 29.2568H36.5718C36.5366 29.1201 36.4585 28.999 36.3374 28.8936C36.2176 28.7868 36.0562 28.7334 35.853 28.7334C35.6733 28.7334 35.5158 28.7803 35.3804 28.874C35.2463 28.9665 35.1414 29.0973 35.0659 29.2666C34.9917 29.4346 34.9546 29.6318 34.9546 29.8584C34.9546 30.0902 34.991 30.292 35.064 30.4639C35.1382 30.6357 35.2424 30.7692 35.3765 30.8643C35.5119 30.9593 35.6707 31.0068 35.853 31.0068C35.9728 31.0068 36.0815 30.986 36.1792 30.9443C36.2769 30.9027 36.3595 30.8428 36.4272 30.7646C36.495 30.6865 36.5431 30.5928 36.5718 30.4834H37.0327C37.0067 30.6605 36.9422 30.82 36.8394 30.9619C36.7378 31.1025 36.603 31.2145 36.4351 31.2979C36.2684 31.3799 36.0744 31.4209 35.853 31.4209ZM37.7065 31.3584V28.3584H38.1675V31.3584H37.7065ZM37.9409 27.8584C37.8511 27.8584 37.7736 27.8278 37.7085 27.7666C37.6447 27.7054 37.6128 27.6318 37.6128 27.5459C37.6128 27.46 37.6447 27.3864 37.7085 27.3252C37.7736 27.264 37.8511 27.2334 37.9409 27.2334C38.0308 27.2334 38.1076 27.264 38.1714 27.3252C38.2365 27.3864 38.269 27.46 38.269 27.5459C38.269 27.6318 38.2365 27.7054 38.1714 27.7666C38.1076 27.8278 38.0308 27.8584 37.9409 27.8584ZM39.4414 30.2646L39.4336 29.6943H39.5273L40.8398 28.3584H41.4102L40.0117 29.7725H39.9727L39.4414 30.2646ZM39.0117 31.3584V27.3584H39.4727V31.3584H39.0117ZM40.918 31.3584L39.7461 29.874L40.0742 29.5537L41.5039 31.3584H40.918ZM42.0034 31.3584V28.3584H42.4644V31.3584H42.0034ZM42.2378 27.8584C42.1479 27.8584 42.0705 27.8278 42.0054 27.7666C41.9416 27.7054 41.9097 27.6318 41.9097 27.5459C41.9097 27.46 41.9416 27.3864 42.0054 27.3252C42.0705 27.264 42.1479 27.2334 42.2378 27.2334C42.3276 27.2334 42.4045 27.264 42.4683 27.3252C42.5334 27.3864 42.5659 27.46 42.5659 27.5459C42.5659 27.6318 42.5334 27.7054 42.4683 27.7666C42.4045 27.8278 42.3276 27.8584 42.2378 27.8584ZM44.6133 28.3584V28.749H43.0586V28.3584H44.6133ZM43.5117 27.6396H43.9727V30.499C43.9727 30.6292 43.9915 30.7269 44.0293 30.792C44.0684 30.8558 44.1178 30.8988 44.1777 30.9209C44.2389 30.9417 44.3034 30.9521 44.3711 30.9521C44.4219 30.9521 44.4635 30.9495 44.4961 30.9443C44.5286 30.9378 44.5547 30.9326 44.5742 30.9287L44.668 31.3428C44.6367 31.3545 44.5931 31.3662 44.5371 31.3779C44.4811 31.391 44.4102 31.3975 44.3242 31.3975C44.194 31.3975 44.0664 31.3695 43.9414 31.3135C43.8177 31.2575 43.7148 31.1722 43.6328 31.0576C43.5521 30.943 43.5117 30.7985 43.5117 30.624V27.6396Z" fill="white"/>
</g>
<defs>
<clipPath id="clip0_583_635">
<rect width="56" height="56" fill="white"/>
</clipPath>
</defs>
</svg>
