<svg width="56" height="57" viewBox="0 0 56 57" fill="none" xmlns="http://www.w3.org/2000/svg">
<path d="M42.875 0H13.125C5.87626 0 0 5.87626 0 13.125V42.875C0 50.1237 5.87626 56 13.125 56H42.875C50.1237 56 56 50.1237 56 42.875V13.125C56 5.87626 50.1237 0 42.875 0Z" fill="white"/>
<path fill-rule="evenodd" clip-rule="evenodd" d="M21.0031 11.8753H35.1995C34.7105 12.2985 28.0716 16.95 28.0017 16.95C27.9843 16.95 21.1742 12.1341 20.9996 11.8788L21.0031 11.8753ZM14.4689 9.80488C14.6575 10.6163 14.8985 11.5256 15.1464 12.33C15.5865 13.7569 15.3315 13.3932 16.5085 14.1731C17.8076 15.0334 19.0229 15.8973 20.3221 16.7611C21.0834 17.2717 27.8411 21.9582 28.0017 21.9582C28.1449 21.9582 39.3798 14.32 40.5323 13.5436C40.5323 12.5993 41.1993 10.917 41.1993 9.87133C41.1993 9.41667 36.6837 8.09817 35.9189 7.94778C34.8537 7.74494 33.9911 7.56307 32.8945 7.37422C32.3567 7.28329 31.8119 7.22383 31.3195 7.15039C31.1693 7.1259 29.6082 7 29.6012 7H27.9319C25.4593 7 22.8121 7.50012 20.7307 7.93379C19.0125 8.29052 15.7716 9.1159 14.4689 9.80488ZM44.7336 18.7581V19.8213L34.7455 26.3823L34.735 25.3646L44.7336 18.7581ZM45.9 13.8968L45.9349 14.946L35.9398 21.5L35.9294 20.4858L45.9 13.8968ZM42.1318 9.73493L41.4053 14.0856L33.2088 19.3562L31.7386 29.1278L41.1783 27.1378L47.283 22.4163L50 9.07044L49.7311 9.04945L42.1318 9.73493ZM11.2665 18.8875L21.258 25.4416L21.3488 26.0291L21.3349 26.4978C21.0695 26.4278 16.8542 23.553 16.271 23.1578C15.7227 22.7941 11.2665 20.0416 11.2665 19.7549V18.8875ZM10.1349 14.0122L20.1091 20.5942L20.1335 21.6224L10.1349 15.0124V14.0122ZM24.3348 29.2362L22.868 19.4856C22.0159 19.0379 20.8774 18.223 20.0287 17.6564C19.1242 17.0549 18.1079 16.3694 17.179 15.8378C16.711 15.5685 16.2186 15.2258 15.7611 14.9215C15.2861 14.6033 14.6959 14.4494 14.5737 13.7744C14.441 13.0609 14.3642 12.5118 14.2524 11.7564C14.1616 11.1619 13.9171 10.4029 13.8682 9.81187L6 9.13689C6.08731 10.1861 6.66354 11.9907 6.85213 13.0924C7.05119 14.2815 7.3236 15.9952 7.6414 17.1109C7.94873 18.1776 8.29447 19.9857 8.46909 21.0909C8.5983 21.9267 8.57386 22.3849 9.1466 22.815C9.61807 23.1648 10.0302 23.4935 10.5086 23.8538C11.4236 24.5462 12.3176 25.2387 13.2117 25.9522C14.5632 27.0259 14.3956 27.1588 16.4072 27.561C17.7203 27.8233 19.0194 28.1345 20.3605 28.4073C21.513 28.6416 23.2836 29.1488 24.3348 29.2362ZM18.9391 32.2474L18.9182 36.112L19.016 47.377L22.0019 49.8671C22.2289 48.8913 24.2684 44.4147 24.2684 44.0615V43.7257H31.7316C31.7316 44.1804 33.7047 49.1816 34.0016 49.8007L34.0435 49.8531L36.984 47.328L37.0679 33.9751V32.2474L31.7316 29.9741V40.3228H24.2684L24.2545 29.9392L18.9391 32.2474ZM25.1799 28.9599L25.1345 39.3191H30.9318L30.9144 28.4983L32.0668 20.29C31.522 20.4159 28.1345 22.892 28.0017 22.892C27.4919 22.892 24.7259 20.4648 24.0345 20.2935L25.1799 28.9599ZM46.2318 24.4973L46.1724 24.4553L41.1015 28.0576L41.1329 29.7713L37.9444 31.8557L37.8501 46.73L37.8676 46.9293L44.992 41.0538L46.2318 24.4973ZM13.9521 43.3725C14.6296 43.988 15.4014 44.5266 16.051 45.1422C16.5434 45.6073 17.5946 46.5026 18.1359 46.8629L18.0521 36.112L18.066 31.7053L14.895 29.6629L14.8671 28.0331C14.8671 27.7953 10.327 24.6407 9.80316 24.3609C9.80316 25.0988 9.86253 25.5535 9.92888 26.169C9.98825 26.6936 9.93936 27.526 10.0267 28.0086C10.2222 29.0788 10.1419 30.5022 10.2711 31.6354C10.4004 32.7266 10.3759 34.1395 10.5505 35.2307C10.6728 36.0211 10.8613 37.8956 10.8718 38.714C10.8753 39.1512 10.8858 40.1549 10.9452 40.5746C11.0255 41.1062 11.476 41.2881 11.8532 41.6063C12.5377 42.1869 13.3025 42.778 13.9521 43.3725ZM22.7108 49.9895L33.3974 50C33.1313 49.0589 32.8047 48.136 32.4196 47.2371C32.2449 46.8699 31.5989 44.5931 31.3334 44.5931L24.8831 44.6001L22.7108 49.9895Z" fill="#010101"/>
</svg>
