<svg width="80" height="80" viewBox="0 0 80 80" fill="none" xmlns="http://www.w3.org/2000/svg">
<path d="M6.24796 2.5C4.19199 2.5 2.50024 4.16241 2.50024 6.24762V42.503C2.50024 44.6028 4.19199 46.2482 6.24796 46.2482H44.1741C46.1055 47.8084 48.5813 48.7482 51.2495 48.7482C57.4965 48.7482 62.4999 43.699 62.4999 37.5005C62.4999 35.4962 61.9763 33.6053 61.0521 31.973L63.3862 29.6391C64.1777 28.8456 63.6054 27.4665 62.4608 27.5028C62.1367 27.5123 61.8492 27.6341 61.6234 27.8666L59.5652 29.9174C57.506 27.6601 54.5357 26.2528 51.2495 26.2528V6.24762C51.2495 4.1917 49.5895 2.5 47.5043 2.5H6.24796ZM6.24796 5.00247H19.996V16.2502C19.9955 17.2165 21.0447 17.818 21.8784 17.3293L26.881 14.4509L31.8812 17.3293C32.7132 17.8095 33.7534 17.2107 33.7562 16.2502V5.00247H47.5043C48.2184 5.00247 48.7494 5.56767 48.7494 6.24762V26.5335C43.7119 27.6856 40.0016 32.1629 40.0016 37.5005C40.0016 39.8104 40.6954 41.9591 41.8962 43.7481H6.24796C5.56309 43.7481 5.00277 43.2171 5.00277 42.503V6.24762C5.00277 5.55789 5.5338 5.00247 6.24796 5.00247ZM22.4961 5.00247H31.2537V14.0895L27.4987 11.9313C27.1132 11.7097 26.6391 11.7097 26.2535 11.9313L22.4961 14.0895V5.00247ZM51.2495 28.7528C53.8617 28.7528 56.1927 29.8917 57.7927 31.6947L51.2495 38.2305L47.1356 34.1142C45.9198 32.9863 44.24 34.6513 45.3631 35.8867L50.3657 40.8868C50.8542 41.3764 51.6473 41.3764 52.1358 40.8868L59.1917 33.8334C59.7053 34.9487 59.9974 36.1875 59.9974 37.5005C59.9974 42.3479 56.0775 46.2482 51.2495 46.2482C46.4021 46.2482 42.5041 42.3234 42.5041 37.5005C42.5041 32.6824 46.4021 28.7528 51.2495 28.7528ZM10.0005 31.2479C9.37458 31.2479 8.74892 31.6651 8.75048 32.5004V38.7505C8.7474 40.4207 11.2536 40.4207 11.2505 38.7505V32.5004C11.2521 31.6653 10.6265 31.2479 10.0005 31.2479ZM15.0007 31.2479C14.3748 31.2479 13.7491 31.6651 13.7507 32.5004V38.7505C13.7475 40.4207 16.2538 40.4207 16.2507 38.7505V32.5004C16.2522 31.6653 15.6267 31.2479 15.0007 31.2479ZM20.0009 31.2479C19.3749 31.2479 18.7493 31.6651 18.7508 32.5004V38.7505C18.7477 40.4207 21.254 40.4207 21.2509 38.7505V32.5004C21.2524 31.6653 20.6268 31.2479 20.0009 31.2479ZM25.4038 68.0891C28.7708 70.3559 32.3151 72.6372 35.4066 74.3832C38.4982 76.1291 41.2535 77.4166 42.9728 77.5009C42.9965 77.5014 43.0154 77.5014 43.0385 77.5009C45.5318 77.5009 48.7607 76.6114 51.6203 75.7577C53.0502 75.3306 54.4 74.9047 55.5048 74.5956C56.6095 74.2866 57.4041 74.1146 57.7924 74.1146H62.5216C62.6378 75.9998 64.1355 77.5009 66.0154 77.5009H72.5488C74.5081 77.5009 75.9297 75.887 76.0646 73.9754L77.4929 53.7042C77.6374 51.6505 75.9363 50.0029 73.9771 50.0029H66.0154C64.0144 50.0029 62.4996 51.6665 62.4996 53.6211V53.7506H57.6631L52.1184 51.3775C51.964 51.3113 51.7958 51.2778 51.6277 51.2773H33.6632C31.1542 51.2773 29.0456 53.0618 28.6508 55.4644L18.3355 49.4878C17.342 48.9117 16.2395 48.6744 15.169 48.7481C14.8124 48.7717 14.4588 48.8313 14.1144 48.9239C12.7371 49.2943 11.504 50.198 10.7403 51.5265C9.20275 54.2014 10.2703 57.4882 12.7167 59.1071C12.7167 59.1071 18.6699 63.5556 25.4038 68.0891ZM15.3349 51.2384C15.923 51.1959 16.5332 51.3231 17.0904 51.6462L29.2466 58.6995C30.1262 60.2175 31.7761 61.2533 33.6633 61.2533H46.0636C47.7307 61.2533 47.7307 58.7508 46.0636 58.7508H33.6633C32.1808 58.7508 31.0704 57.5919 31.0704 56.2703C31.0704 54.9488 32.1808 53.7776 33.6633 53.7776H51.3714L56.9258 56.1483C57.0803 56.2144 57.2461 56.2503 57.4141 56.2508H62.4997V71.6148H57.7925C57.0312 71.6148 55.9965 71.86 54.831 72.1861C53.6655 72.512 52.3179 72.9376 50.91 73.3579C48.1074 74.1945 45.1628 74.9913 43.0752 74.9913C41.9514 74.9284 39.6285 73.8908 36.6443 72.2056C33.6514 70.5153 30.1433 68.2598 26.8076 66.0141C20.1361 61.5227 14.091 57.0222 14.091 57.0222C12.6233 55.9532 12.0713 54.2316 12.9105 52.7716C13.4351 51.859 14.355 51.3108 15.3349 51.2384ZM66.0155 52.5056H73.9772C74.5333 52.5056 75.0422 52.9667 75.0026 53.5285L73.5719 73.7925C73.5176 74.5656 73.036 75.001 72.5489 75.001H66.0155C65.4914 75.001 64.9998 74.5527 64.9998 73.8853V53.6213C64.9998 52.9538 65.4816 52.5056 66.0155 52.5056ZM69.8169 70.001C69.1265 70.0009 68.5668 70.5606 68.5668 71.251C68.5668 71.9413 69.1265 72.501 69.8169 72.501C70.5073 72.5009 71.0669 71.9413 71.0669 71.251C71.0669 70.5606 70.5073 70.001 69.8169 70.001Z" fill="#0057B3"/>
</svg>
