<svg id="Layer_1" data-name="Layer 1" xmlns="http://www.w3.org/2000/svg" viewBox="0 0 1522.58 1356.95"><defs><style>.cls-1{fill:#50bfa5;}.cls-2{fill:#3c8f7c;}.cls-3{fill:#355389;}.cls-4{fill:#466eb6;}.cls-5{fill:#f7cc7f;}.cls-6{fill:#fae0b2;}.cls-7{fill:#96d9c9;}.cls-8{fill:#f48c7f;}.cls-9{fill:#b75742;}.cls-10{fill:#86b1f2;}.cls-11{fill:#f47458;}.cls-12{fill:#184655;}.cls-13{fill:#f7a491;}.cls-14{fill:#13375b;}.cls-15{fill:#fff;}.cls-16{fill:#9bc1f9;}</style></defs><polygon class="cls-1" points="485.01 258.76 470.42 263.24 460.62 240.55 438.46 244.47 428.35 228.68 420.37 233.8 433.89 254.91 454.88 251.2 465.07 274.8 487.04 268.06 485.01 258.76"/><polygon class="cls-1" points="1421.07 1074.85 1406.47 1079.33 1396.67 1056.64 1374.52 1060.56 1364.41 1044.78 1356.42 1049.9 1369.94 1071 1390.93 1067.29 1401.13 1090.89 1423.1 1084.15 1421.07 1074.85"/><path class="cls-1" d="M395.08,1343.49s-77.89-264-84.14-322.24,37.3-40.19,37.3-40.19-36.64-111-10.14-137.3,50.39,22.75,50.39,22.75,8-134.7,36.27-134.75c52.61-.09,51.58,146.91,51.58,146.91s13.43-57.55,41.6-41.77C560.43,860.69,499.5,976,499.5,976s54.14,0,73.15,27.34C606.77,1052.34,395.08,1343.49,395.08,1343.49Z"/><path class="cls-1" d="M420.54,1308.54S196,1271,147.16,1231.21s-.5-57.73-.5-57.73-112.8-57.82-111.49-97.14S92.51,1057,92.51,1057s-95-108.38-72.54-129c41.91-38.34,151.78,74.32,151.78,74.32s-32.62-53.57,1.74-62c51.82-12.79,90.06,119.32,90.06,119.32s-9.72-52.17,26-45.22C353.67,1026.89,420.54,1308.54,420.54,1308.54Z"/><path class="cls-2" d="M289.56,1014.42c-35.82-6.48-26,45.22-26,45.22s-38.24-132.11-90.06-119.32c-34.36,8.48-1.74,62-1.74,62S61.88,889.71,20,928.05l399.81,380.56C412.67,1272.26,349.61,1025.28,289.56,1014.42Z"/><path class="cls-3" d="M484.42,1339.51s-118.25-120.25-177.8-132.78-48.84,29.85-48.84,29.85-118.14-103.32-145.52-78.29,2.23,49.21,2.23,49.21S16.08,1190.06,2,1222.35C-19.66,1272,142.2,1299,142.2,1299s-67.83,4.7-52.1,35.81C113.82,1381.73,484.42,1339.51,484.42,1339.51Z"/><path class="cls-4" d="M2,1222.35c14.09-32.29,112.5-14.85,112.5-14.85s-29.61-24.17-2.23-49.21,141.85,64.24,141.85,64.24-27-51.59,32.56-39.07,197.75,156,197.75,156Z"/><path class="cls-5" d="M672.68,99.26c-39.8,6.55-51.63,58.79-18.54,82.16A30.35,30.35,0,0,1,666,199l6,24.3a13.23,13.23,0,0,0,15,9.88l15.08-2.48a13.25,13.25,0,0,0,11-14.16c-2.09-25.09-4.68-34.19,3.47-45.38C740.42,138.42,712.49,92.71,672.68,99.26Z"/><path class="cls-6" d="M676.74,205.47c-2.59-21.5-6.23-44.19-7.47-50.62-22.81,1.25-14.14-22.79-3.61-13,3,2.79,4.42,6.57,5.35,10.71a58.88,58.88,0,0,0,21.74-6.33c-.36-5.3-.89-9.32.59-12.71,2.24-5.12,8.73-6.52,11.37-1.53a7.94,7.94,0,0,1,.45,6.26c-1.53,4.24-6.14,7-10.15,9.23,1.2,17.09,2.87,34.31,5,51.27l-2.16.27c-2.06-16.69-3.7-33.63-4.9-50.44a61.09,61.09,0,0,1-21.46,6.12c1.56,8.23,5,30.35,7.45,50.53Zm-18.3-55.69c2,2.18,5.42,3.14,10.38,2.92-.86-3.66-2.13-6.94-4.64-9.27C658.52,138.16,655,146.11,658.44,149.78Zm36.89-15.41c-1.24,2.85-.77,6.5-.48,10.7,3.26-1.86,7-4.18,8.27-7.57.86-2.39-.11-5.76-2.53-6.38C700.32,131.06,696.21,132.37,695.33,134.37Z"/><path class="cls-7" d="M665.78,198.39c.05.2.12.4.17.6l6,24.3a13.23,13.23,0,0,0,15,9.88l15.08-2.48a13.25,13.25,0,0,0,11-14.16c-.93-11.16-2-19.16-2.1-25.58Z"/><path class="cls-6" d="M643.18,81.12,631.27,59.39a4.34,4.34,0,0,1,7.62-4.17L650.79,77a4.34,4.34,0,0,1-7.61,4.17Z"/><path class="cls-6" d="M617.16,133.67l-25.95-2.27a4.34,4.34,0,0,1,.76-8.65L617.91,125a4.34,4.34,0,1,1-.75,8.65Z"/><path class="cls-6" d="M591.43,213.21a4.34,4.34,0,0,1,0-6.14,141.77,141.77,0,0,1,20.85-17,4.34,4.34,0,1,1,4.82,7.22,132.58,132.58,0,0,0-19.57,16A4.33,4.33,0,0,1,591.43,213.21Z"/><path class="cls-6" d="M707.28,79.94a4.34,4.34,0,0,1-3.08-5.31,165.75,165.75,0,0,0,5.36-33.71,4.34,4.34,0,0,1,8.66.46,173.27,173.27,0,0,1-5.63,35.49A4.33,4.33,0,0,1,707.28,79.94Z"/><path class="cls-6" d="M734,113.29a4.34,4.34,0,0,1,2.9-5.41l27-8.12a4.34,4.34,0,0,1,2.51,8.31l-27,8.13A4.33,4.33,0,0,1,734,113.29Z"/><path class="cls-6" d="M778.3,185.06a4.29,4.29,0,0,1-1.17-.16,136,136,0,0,1-27-10.83,4.34,4.34,0,1,1,4.07-7.66,128,128,0,0,0,25.29,10.13,4.34,4.34,0,0,1-1.18,8.52Z"/><path class="cls-5" d="M1173.37,377l-13.61-32.18-34.22-7a4.8,4.8,0,0,1-2.18-8.33l26.4-22.88-3.89-34.72a4.8,4.8,0,0,1,7.25-4.65l29.92,18,31.82-14.42a4.8,4.8,0,0,1,6.66,5.46l-7.9,34,23.55,25.8a4.8,4.8,0,0,1-3.13,8l-34.81,3L1182,377.48A4.81,4.81,0,0,1,1173.37,377Z"/><polygon class="cls-8" points="1389.99 266.56 1384.4 289.09 1347.16 284.09 1334.92 316.02 1306.44 316.84 1306.85 331.25 1344.94 330.16 1356.54 299.9 1395.28 305.1 1403.7 271.2 1389.99 266.56"/><path class="cls-9" d="M1058.2,1346.44H403.58c-25,0-45.28-21-45.28-47v-27.92c0-25.94,20.27-47,45.28-47H1058.2c-29.94,34-30.46,85.83-1.2,120.42Z"/><path class="cls-6" d="M1048.09,1238.56H685c-25,0-45.27,21-45.27,47h0c0,25.93,20.27,47,45.27,47h363.13A93.16,93.16,0,0,1,1048.09,1238.56Z"/><path class="cls-10" d="M828.22,1140c.95-1.79-.49-3.86-2.7-3.86H479.14c-27.15,0-49.16,19.81-49.16,44.25h0c0,24.43,22,44.24,49.16,44.24H825.62c2.21,0,3.66-2.08,2.7-3.87h0A84.76,84.76,0,0,1,828.22,1140Z"/><path class="cls-5" d="M826,1144.37H654.37c-31.87,0-57.7,16.6-57.7,37.07s25.83,37.08,57.7,37.08h172.8A84.58,84.58,0,0,1,826,1144.37Z"/><path class="cls-9" d="M781.7,1161.94H759.34c-4.8,0-8.7,1.62-8.7,3.61v.32H781.7Z"/><path class="cls-11" d="M800.77,1171c0-5-5.84-9-13-9H759c5.46,0,9.89,3.07,9.89,6.86l-.13,96.93,15.85-12.46,16.16,12.46Z"/><path class="cls-6" d="M764.54,1132.94H563c-17.87,0-32.36-17.19-32.36-38.41h0c0-21.21,14.49-38.41,32.36-38.41H764.54c-15.41,21.3-16,52.53-1.44,74.64Z"/><path class="cls-4" d="M530.65,1094.53h0c0-21.21,14.83-38.41,33.13-38.41h204.6a1.86,1.86,0,0,0,1.71-2h0a1.86,1.86,0,0,0-1.71-2H443.8c-20.19,0-36.55,19-36.55,42.38h0c0,23.42,16.36,42.39,36.55,42.39H768.38a1.86,1.86,0,0,0,1.71-2h0a1.87,1.87,0,0,0-1.71-2H563.78C545.48,1132.94,530.65,1115.75,530.65,1094.53Z"/><path class="cls-12" d="M729.34,1075H707c-4.81,0-8.71,1.58-8.71,3.54v.32h31.06Z"/><path class="cls-2" d="M748.42,1083.87c0-4.9-5.84-8.87-13-8.87H706.68c5.47,0,9.89,3,9.89,6.73l-.13,95.06,15.85-12.23,16.16,12.23Z"/><path class="cls-12" d="M1085.66,487.82l29.75-7.83-20.16,269-35.7,1.2,18-252.56A10.91,10.91,0,0,1,1085.66,487.82Z"/><path class="cls-5" d="M1097.92,756.64a10,10,0,0,1-2,0c-5.91-.7-10.29-6.58-9.77-13.13l19.8-252.92c.51-6.55,5.72-11.3,11.63-10.59s10.28,6.57,9.77,13.12L1107.51,746C1107.05,751.79,1102.94,756.17,1097.92,756.64Z"/><path class="cls-5" d="M824.08,770.11c0,.18,0,.37,0,.55h0c.93,10.29,8.9,18,17.8,17.19l251.28-22.49c8.9-.79,15.36-9.78,14.43-20.07,0-.44-.1-.87-.16-1.29Z"/><path class="cls-13" d="M999.05,1041.77c-16.45,9.12-66.74-6.88-66.74-8.32-.73,13.74-56.32,148.28-56.32,148.28l0,41.39s114.56,5.46,112.91-4.66-7.81-3.54-30.66-22.66c-2-1.7-34.11-9.14-25.43-28.14C950.33,1129.41,987.48,1065.64,999.05,1041.77Z"/><path class="cls-2" d="M872.27,1224.6l125.39,0c4.53-.46,5.59-4.14,4-6.38-3.29-4.6-27.32-15.47-43.48-22.68-28.14,3.28-77.6-7.54-82.13-14C864.13,1197.57,869.74,1224.08,872.27,1224.6Z"/><path class="cls-3" d="M844.76,945.17c-1.7-5.08,108-51.62,112.87-46.3,8.68,9.4-59.33,185.95-59.33,185.95l78.14,23.87s81.24-204,77.85-241.27S1010.2,787.72,922,814.86,844.76,945.17,844.76,945.17Z"/><path class="cls-13" d="M1071.81,1065c-18.51-3.37-42.51-4.33-61.71-4.66,2.26,17.1,13.25,104.8,11.24,110.18a65.81,65.81,0,0,1-26.2,32s85.15,76.83,90.29,68-3.79-7.68-9.35-37c-.49-2.59-12.81-43.45-13.57-65.49C1061.05,1126,1071.17,1088.31,1071.81,1065Z"/><path class="cls-4" d="M1044.49,778.09c-11.88-6.34-42.72-6.56-76.63-4.37a778.35,778.35,0,0,0-194.25,38.13l-42.09,13.94.14-43.15s-133.87-22.4-138.53,10.79c-7,50,1.69,151.4,46.29,174,138.55,70.32,332.71-112,333.41-88.18.94,32,28,151.28,34.86,203.49,19.21.33,52.21.32,66.52-3C1077,977.54,1078.3,796.13,1044.49,778.09Z"/><path class="cls-2" d="M992.55,1204.34l95.72,76.46c3.79,2.51,6.94.33,7.12-2.41.38-5.65-11.32-29.29-19.25-45.1-23.85-15.3-55.3-55.18-54.74-63C1011.31,1178.8,990.93,1202.33,992.55,1204.34Z"/><path class="cls-14" d="M775.89,361c-3.21-29.39-6.6-58.89-31-80.43-19.72-17.44-44.79-20.39-69.58-11.06-70.24,26.42-34.05,88.8-123.61,151.7-27.83,19.54-58.5,32.91-79.45,59.23C443,517.31,454,561.62,480.76,591.2c127.89,141.54,270.67-49.61,280.92-95.5C769.3,461.57,778,380,775.89,361Z"/><path class="cls-1" d="M749.92,526.33a391.63,391.63,0,0,0-21.21-34.55c-10.83-19.26-38.83-29-38.83-29s-9.36.19-20.11.72a8.68,8.68,0,0,1-2,3.57c-4,3-27.2-.89-42.16,9.27-50.14,43-36.27,251.29-32.33,317.08l152.69,1.45S726.69,653.3,757.72,616.93C779.32,591.6,765.42,554.89,749.92,526.33Z"/><path class="cls-13" d="M681.1,392.31s-8.4,59.94-14.26,74.5,32.23,45.72,63.93,55.18-9.69-32.18-8.37-47.75,7.07-89.3,7.07-89.3Z"/><path class="cls-11" d="M727.87,406.09c.93-12.2,1.6-21.15,1.6-21.15l-48.37,7.37s-1.22,7-2.57,17C698.14,420.68,715.77,417.09,727.87,406.09Z"/><path class="cls-13" d="M696.26,282.82a55,55,0,0,0-30.84,22.26c-11.77,18-19.85,70.86,18.93,95.55s68.93-10.23,69.43-44.3S747,276.81,696.26,282.82Z"/><path class="cls-13" d="M762.66,345.67c-3.31,8.22-9.87,13.33-14.66,11.4s-6-10.16-2.68-18.37,9.87-13.33,14.66-11.4S766,337.45,762.66,345.67Z"/><path class="cls-14" d="M702,281.7s-24.31,54.53-45.67,59.4-21.05,32.3-21.05,32.3.48-63.35,20.5-77.89S702,281.7,702,281.7Z"/><path class="cls-13" d="M664.81,352.43c2.81,8.86.23,17.57-5.75,19.47s-13.12-3.73-15.93-12.59-.24-17.57,5.75-19.47S662,343.58,664.81,352.43Z"/><path class="cls-13" d="M937.92,746.07c-9.16-3.31-22.8-3.72-22.57-4.93.92-4.9,41.39,10.8,35.92,3.66-3-4-33.33-18.06-40.69-15.74-7.15,2.26-54.05,15.42-54.05,15.42l-128.2-30S696,640.91,692.81,577.74c-26.74,3.61-44.95,10.22-68.2,23.13,11.21,60.41,38.46,158.34,68.58,176.71,12.67,7.73,164-9.25,164-9.25S890.5,766,896,763.88c4.14-1.59,14.77-7.58,20.56-9.22,13.16-3.73,36.59,5.63,36.67,3.05C953.23,755.83,947.28,749.46,937.92,746.07Z"/><path class="cls-7" d="M693.6,510.24C692.37,490.8,685,472,664.32,466c-12.82-3.75-27.2-.16-37.44,8.2-12.19,10-15.59,25.92-15.54,41,.13,34.31,2.47,69.89,8.74,103.67,23.25-12.9,50.39-20.65,77.13-24.27C697.2,594.43,695.23,535.93,693.6,510.24Z"/><path class="cls-5" d="M296.41,546.92l-198.74-37a7.35,7.35,0,0,1-5.89-8.57l24.9-133.7a7.35,7.35,0,0,1,8.58-5.89l198.74,37a7.36,7.36,0,0,1,5.88,8.58L305,541A7.35,7.35,0,0,1,296.41,546.92Z"/><path class="cls-5" d="M201.81,394.07l-60.5-11.26a7.36,7.36,0,0,1-5.88-8.58l3.79-20.34a7.34,7.34,0,0,1,8.57-5.88l60.5,11.26a7.36,7.36,0,0,1,5.88,8.58l-3.79,20.34A7.35,7.35,0,0,1,201.81,394.07Z"/><path class="cls-6" d="M305.46,541.8A7.36,7.36,0,0,1,297,547L97,509.79a7.36,7.36,0,0,1-6-7.87l10.47-119.85a7.35,7.35,0,0,1,8.67-6.59l222.23,41.38a7.36,7.36,0,0,1,5.73,9.23Z"/><polygon class="cls-1" points="1217.03 103.89 1183 113.19 1175.67 71.94 1186.81 69.96 1191.97 99.01 1214.05 92.98 1217.03 103.89"/><path class="cls-3" d="M132.78,670.29c8.52-.69,21.61,3.06,27.48,7,.88.83,7.63,3.51,14.64,15.13l-1.58,1.09c-7.4-7.74-12.38-9.48-18.31-11.26-9.77-2.51-19.62-.63-20.42-.19Z"/><path class="cls-11" d="M174.11,693s-51.93,8.66-47.09,49.23,59.63,72.13,108.52,47c65.78-33.75,39.8-119.56-7-126.2S174.11,693,174.11,693Z"/><path class="cls-8" d="M196.14,675.15s13.54-13.91,43.23-1.26,31.83,71.66,5.36,68.23S175,683.66,196.14,675.15Z"/><path class="cls-10" d="M553.37,136.21,339.8,212.4a13.24,13.24,0,0,1-16.92-8L283.46,93.87a13.24,13.24,0,0,1,8-16.91L505.06.77a13.24,13.24,0,0,1,16.91,8L561.39,119.3A13.22,13.22,0,0,1,553.37,136.21Z"/><path class="cls-15" d="M411.81,107.81a42.33,42.33,0,1,1-54.09-25.65A42.32,42.32,0,0,1,411.81,107.81Z"/><path class="cls-10" d="M378,101.88a12.48,12.48,0,1,1-15.95-7.56A12.47,12.47,0,0,1,378,101.88Z"/><path class="cls-10" d="M370.58,124.68h11.49a14.2,14.2,0,0,1,14.2,14.2v5.06a0,0,0,0,1,0,0H356.38a0,0,0,0,1,0,0v-5.07a14.2,14.2,0,0,1,14.2-14.2Z" transform="translate(-23.25 134.24) rotate(-19.63)"/><path class="cls-15" d="M417.07,84.7a5.4,5.4,0,0,1-1.81-10.48l93.36-33.3a5.4,5.4,0,0,1,3.63,10.17l-93.36,33.3A5.4,5.4,0,0,1,417.07,84.7Z"/><path class="cls-15" d="M442.28,108a5.4,5.4,0,0,1-1.82-10.48l72.92-26A5.39,5.39,0,1,1,517,81.65l-72.92,26A5.39,5.39,0,0,1,442.28,108Z"/><path class="cls-11" d="M885.22,969.77H369.51a29,29,0,0,0-29,29v24.39a29,29,0,0,0,29,29H885.22l-.27-.28A59.07,59.07,0,0,1,885.22,969.77Z"/><path class="cls-6" d="M876.09,982H600.4a29,29,0,0,0-29,29h0a29,29,0,0,0,29,29H876.08A59.13,59.13,0,0,1,876.09,982Z"/><path class="cls-6" d="M1307.29,972.15l-39.09-98.08a9.61,9.61,0,0,1,5.37-12.49l140.67-56.07a9.61,9.61,0,0,1,12.49,5.37L1465.82,909a9.6,9.6,0,0,1-5.37,12.49l-140.66,56.07A9.62,9.62,0,0,1,1307.29,972.15Z"/><path class="cls-4" d="M1440,915.44l-35.13-88.13a2.76,2.76,0,0,1,1.54-3.59h0a2.77,2.77,0,0,1,3.59,1.54l35.12,88.13a2.76,2.76,0,0,1-1.54,3.59h0A2.76,2.76,0,0,1,1440,915.44Z"/><path class="cls-4" d="M1423.25,903.83l-28.84-72.36a2.76,2.76,0,0,1,1.54-3.58h0a2.76,2.76,0,0,1,3.59,1.54l28.84,72.36a2.76,2.76,0,0,1-1.54,3.58h0A2.76,2.76,0,0,1,1423.25,903.83Z"/><path class="cls-4" d="M1419.09,923.77,1384,835.64a2.77,2.77,0,0,1,1.54-3.59h0a2.77,2.77,0,0,1,3.59,1.54l35.12,88.13a2.75,2.75,0,0,1-1.54,3.59h0A2.76,2.76,0,0,1,1419.09,923.77Z"/><path class="cls-4" d="M1400.62,907.82l-27.11-68a2.76,2.76,0,0,1,1.54-3.58h0a2.76,2.76,0,0,1,3.59,1.54l27.11,68a2.76,2.76,0,0,1-1.54,3.58h0A2.76,2.76,0,0,1,1400.62,907.82Z"/><path class="cls-3" d="M1439,817.91l-.7-1.78a1.26,1.26,0,0,0-1.59-.74l-13.35,5.33a1.23,1.23,0,0,0-.64,1.62l.71,1.78a1.24,1.24,0,0,0,1.58.74l13.35-5.33A1.23,1.23,0,0,0,1439,817.91Z"/><path class="cls-3" d="M1442.07,825.5l-.71-1.77a1.23,1.23,0,0,0-1.58-.74l-13.35,5.32a1.22,1.22,0,0,0-.64,1.62l.7,1.78a1.25,1.25,0,0,0,1.59.74l13.35-5.32A1.25,1.25,0,0,0,1442.07,825.5Z"/><path class="cls-3" d="M1445.09,833.09l-.7-1.77a1.23,1.23,0,0,0-1.59-.74l-13.35,5.32a1.23,1.23,0,0,0-.64,1.62l.71,1.78a1.24,1.24,0,0,0,1.58.74l13.35-5.32A1.24,1.24,0,0,0,1445.09,833.09Z"/><path class="cls-3" d="M1448.12,840.68l-.71-1.77a1.23,1.23,0,0,0-1.58-.74l-13.35,5.32a1.22,1.22,0,0,0-.64,1.62l.7,1.78a1.25,1.25,0,0,0,1.59.74l13.35-5.32A1.25,1.25,0,0,0,1448.12,840.68Z"/><path class="cls-3" d="M1451.14,848.27l-.7-1.77a1.23,1.23,0,0,0-1.59-.74l-13.35,5.32a1.23,1.23,0,0,0-.64,1.62l.71,1.78a1.24,1.24,0,0,0,1.58.74l13.35-5.32A1.24,1.24,0,0,0,1451.14,848.27Z"/><path class="cls-3" d="M1454.17,855.86l-.71-1.77a1.23,1.23,0,0,0-1.58-.74l-13.35,5.32a1.23,1.23,0,0,0-.64,1.63l.7,1.77a1.25,1.25,0,0,0,1.59.74l13.35-5.32A1.24,1.24,0,0,0,1454.17,855.86Z"/><path class="cls-3" d="M1457.2,863.45l-.71-1.77a1.23,1.23,0,0,0-1.59-.74l-13.35,5.32a1.24,1.24,0,0,0-.64,1.63l.71,1.77a1.23,1.23,0,0,0,1.58.74l13.35-5.32A1.24,1.24,0,0,0,1457.2,863.45Z"/><path class="cls-3" d="M1460.22,871l-.71-1.77a1.23,1.23,0,0,0-1.58-.74l-13.35,5.32a1.24,1.24,0,0,0-.64,1.63l.7,1.77a1.24,1.24,0,0,0,1.59.74l13.35-5.32A1.24,1.24,0,0,0,1460.22,871Z"/><path class="cls-3" d="M1463.25,878.63l-.71-1.77a1.25,1.25,0,0,0-1.59-.74l-13.35,5.32a1.24,1.24,0,0,0-.64,1.63l.71,1.77a1.23,1.23,0,0,0,1.59.74l13.34-5.32A1.24,1.24,0,0,0,1463.25,878.63Z"/><path class="cls-3" d="M1466.27,886.22l-.71-1.77a1.24,1.24,0,0,0-1.58-.74L1450.63,889a1.24,1.24,0,0,0-.64,1.63l.71,1.77a1.23,1.23,0,0,0,1.58.74l13.35-5.32A1.23,1.23,0,0,0,1466.27,886.22Z"/><path class="cls-3" d="M1469.3,893.82l-.71-1.78a1.24,1.24,0,0,0-1.58-.74l-13.36,5.32a1.25,1.25,0,0,0-.64,1.63l.71,1.77a1.23,1.23,0,0,0,1.59.74l13.35-5.32A1.23,1.23,0,0,0,1469.3,893.82Z"/><path class="cls-3" d="M1472.32,901.41l-.7-1.78a1.25,1.25,0,0,0-1.59-.74l-13.35,5.32a1.25,1.25,0,0,0-.64,1.63l.71,1.78a1.23,1.23,0,0,0,1.58.73l13.35-5.32A1.22,1.22,0,0,0,1472.32,901.41Z"/><path class="cls-9" d="M1509.21,893.59l-55.83,79.5a2.1,2.1,0,0,0-.29.58l-5.69,17.47a2.18,2.18,0,0,0,3.39,2.42l15-11.26a2.19,2.19,0,0,0,.47-.49l56-79.7a2.18,2.18,0,0,0-.61-3.1l-9.4-6A2.19,2.19,0,0,0,1509.21,893.59Z"/><path class="cls-5" d="M1466.15,981.9l-.14.19L1451.59,993l-3.93-2.63,5.39-16.56C1457.28,976.08,1462.34,978.45,1466.15,981.9Z"/><path class="cls-4" d="M943.62,33c8,6.41,22,27.05,39.85,41.54,10.43,8.47,18.47,6.32,31.79,7.93,63.19,7.63,46.06,20.55,53.64,21.82-2.15,5-21.84,46.8-25.52,55.26-3.39,7.8-9.26,11.29-17.76,10.12-13.06-1.81-26.25-3.15-39.11-5.94-33-7.16-51.33-23.65-75-43.68-6.27-5.32-7.81-12-4.56-19.46C922.11,65.61,942,36.19,943.62,33Z"/><path class="cls-10" d="M1075.75,154.61c-.29,13.77.77,16.53-5.15,14.45a82.86,82.86,0,0,1-10.37-4.64c-2.37-1.22-2.46-2.83-.53-4.77,2.8-2.82,5.68-5.56,8.49-8.3a12.2,12.2,0,0,1,5.35-14.64c1-.6.28.68,9.08-19.57-29.1-3.59-49.64-6-85.14-10.37a47.84,47.84,0,0,1-25.28-11Q934.18,64,896.15,32.1c-3.44-2.88-3.87-7.11-1.14-10.35,2.08-2.49,4.85-2.61,7.82-2.24,8.11,1,87.55,10.89,95.61,11.83a52.25,52.25,0,0,1,28.13,12.09q37.37,31.31,74.83,62.48c3.43,2.85,4.35,5.48,3.15,8.65-1.32,3.5-4.2,5.16-8.56,4.22-3.15-.68-4.54.27-5.63,3.18-4.89,13.18-8.3,16.09-7.12,20.9C1084.15,146.57,1079.74,153,1075.75,154.61Z"/><path class="cls-4" d="M1207.54,1090.07l14.48,13.8A384.91,384.91,0,0,1,1304.4,1218l2.22,4.7s37.91,3.35,43.21-30.92h0a572.54,572.54,0,0,1-83.24-122.26l-6.86-16Z"/><path class="cls-10" d="M1259.7,1053.47c1.86,2.67-8.31,13-22.71,23s-27.66,16.15-29.52,13.48,8.37-13.1,22.78-23.14S1257.84,1050.8,1259.7,1053.47Z"/><path class="cls-3" d="M1259.76,1053.56l0,0s-28.86,24.43-40.75,26.92l3.67,5a153.69,153.69,0,0,0,14.36-8.94C1251.23,1066.56,1261.32,1056.37,1259.76,1053.56Z"/><path class="cls-9" d="M1298.32,1124.49c0,4.21-1.56,22.38-31.8,30q3,4.07,5.86,8.2c19.14-5.66,27.75-15.48,31.62-23,.61-1.19,1.35-2.78,1.84-4Q1302,1130.14,1298.32,1124.49Z"/><polygon class="cls-9" points="1269.23 1149.09 1224.73 1147.5 1235.27 1156.44 1228.97 1167.88 1271.09 1157.14 1269.23 1149.09"/><polygon class="cls-9" points="1273.29 1159.44 1257.47 1186.98 1268.6 1182.75 1272.88 1191.49 1280.31 1162.53 1273.29 1159.44"/><path class="cls-11" d="M1279.33,1166.9a14.62,14.62,0,1,1,13.11-15.58A14.4,14.4,0,0,1,1279.33,1166.9Z"/><path class="cls-16" d="M1373.79,541.94l-93.72-83.63c-6.09-5.44-3.56-16.62,4.85-21.38l74.79-42.35c4.79-2.71,10.19-2.46,13.66.64l93.72,83.63c6.09,5.43,3.55,16.61-4.85,21.37l-74.8,42.35C1382.65,545.29,1377.26,545,1373.79,541.94Z"/><path class="cls-15" d="M1369.35,475.41l-7.81-64.25a5.76,5.76,0,0,1,4-5.88,3.71,3.71,0,0,1,5.08,3l7.2,59.13,71.06,17.18c2.32.56,3.39,3.06,2.39,5.58s-3.7,4.12-6,3.55Z"/><polygon class="cls-5" points="145.52 181.1 155.21 200.26 177.09 199.55 186.43 221.8 209.51 213.86 221.18 238.56 243.33 233.86 258.45 255.79 250.15 261.51 238.85 245.12 215.47 250.07 204.25 226.33 180.79 234.4 170.49 209.85 149.11 210.54 140.13 192.78 126.19 196.17 123.81 186.38 145.52 181.1"/><polygon class="cls-1" points="1317.58 671.33 1337.47 679.41 1353.51 664.5 1375.17 675.14 1387.35 653.99 1412.37 664.95 1425.99 646.85 1451.79 653.46 1449.29 663.22 1430 658.28 1415.63 677.38 1391.58 666.85 1379.19 688.35 1355.29 676.61 1339.63 691.17 1321.19 683.68 1312.91 695.39 1304.68 689.57 1317.58 671.33"/></svg>