<svg xmlns="http://www.w3.org/2000/svg" xmlns:xlink="http://www.w3.org/1999/xlink" viewBox="0 0 750 500"><defs><style>.cls-1{fill:#f6c8a6;}.cls-2{fill:#3f58a0;}.cls-3{fill:#577bc1;}.cls-4{fill:#7c96d8;}.cls-5{fill:#112544;}.cls-6{fill:#fff;}.cls-7{fill:url(#Degradado_sin_nombre_16);}.cls-8{fill:#ffcc4d;}.cls-9{fill:url(#Degradado_sin_nombre_24);}.cls-10{fill:url(#Degradado_sin_nombre_24-2);}.cls-11{fill:url(#Degradado_sin_nombre_24-3);}.cls-12{fill:url(#Degradado_sin_nombre_24-4);}.cls-13{fill:url(#Degradado_sin_nombre_24-5);}.cls-14{fill:url(#Degradado_sin_nombre_24-6);}.cls-15{fill:url(#Degradado_sin_nombre_24-7);}.cls-16{fill:url(#Degradado_sin_nombre_24-8);}.cls-17{fill:url(#Degradado_sin_nombre_24-9);}.cls-18{fill:url(#Degradado_sin_nombre_24-10);}.cls-19{fill:url(#Degradado_sin_nombre_24-11);}.cls-20{fill:url(#Degradado_sin_nombre_24-12);}.cls-21{fill:url(#Degradado_sin_nombre_23);}.cls-22{fill:url(#Degradado_sin_nombre_23-2);}.cls-23{fill:#eef8ff;}.cls-24{fill:#cfe8ff;}.cls-25,.cls-26,.cls-30,.cls-33,.cls-43{fill:none;}.cls-25,.cls-30{stroke:#1b3260;}.cls-25,.cls-26,.cls-30,.cls-33{stroke-linecap:round;stroke-linejoin:round;}.cls-25{stroke-width:0.88px;}.cls-26{stroke:#cfe8ff;}.cls-26,.cls-30,.cls-33{stroke-width:1.77px;}.cls-27{fill:#2a437f;}.cls-28{fill:#f4b38b;}.cls-29{clip-path:url(#clip-path);}.cls-31{fill:#b7ddf9;}.cls-32{opacity:0.8;}.cls-33{stroke:#fff;}.cls-34{fill:#f95824;}.cls-35{fill:url(#Degradado_sin_nombre_42);}.cls-36{fill:url(#Degradado_sin_nombre_44);}.cls-37{fill:url(#Degradado_sin_nombre_14);}.cls-38{fill:url(#Degradado_sin_nombre_16-2);}.cls-39{fill:url(#Degradado_sin_nombre_11);}.cls-40{fill:url(#Degradado_sin_nombre_14-2);}.cls-41{fill:url(#Degradado_sin_nombre_14-3);}.cls-42{fill:#f1d154;}.cls-44{fill:#5577c1;}.cls-45{fill:url(#Degradado_sin_nombre_41);}.cls-46{fill:#4575bf;}</style><linearGradient id="Degradado_sin_nombre_16" x1="372.13" y1="131.11" x2="316.04" y2="360.19" gradientUnits="userSpaceOnUse"><stop offset="0" stop-color="#fff"/><stop offset="1" stop-color="#e8e7e5"/></linearGradient><linearGradient id="Degradado_sin_nombre_24" x1="217.81" y1="127.96" x2="217.81" y2="251.61" gradientTransform="matrix(1, 0, 0.25, 1, -84.06, 0)" gradientUnits="userSpaceOnUse"><stop offset="0.12" stop-color="#ffcc4d"/><stop offset="0.9" stop-color="#fcab3f"/></linearGradient><linearGradient id="Degradado_sin_nombre_24-2" x1="255.69" y1="215.48" x2="255.69" y2="235.64" gradientTransform="matrix(1, 0, 0.61, 1, -203.84, 0)" xlink:href="#Degradado_sin_nombre_24"/><linearGradient id="Degradado_sin_nombre_24-3" x1="251.82" y1="127.96" x2="251.82" y2="251.61" xlink:href="#Degradado_sin_nombre_24"/><linearGradient id="Degradado_sin_nombre_24-4" x1="289.7" y1="215.48" x2="289.7" y2="235.64" gradientTransform="matrix(1, 0, 0.61, 1, -203.84, 0)" xlink:href="#Degradado_sin_nombre_24"/><linearGradient id="Degradado_sin_nombre_24-5" x1="285.83" y1="127.96" x2="285.83" y2="251.61" gradientTransform="matrix(0.66, 0.75, -0.58, 0.85, 191.16, -182.58)" xlink:href="#Degradado_sin_nombre_24"/><linearGradient id="Degradado_sin_nombre_24-6" x1="323.7" y1="215.48" x2="323.7" y2="235.64" gradientTransform="matrix(1, 0, 0.61, 1, -203.84, 0)" xlink:href="#Degradado_sin_nombre_24"/><linearGradient id="Degradado_sin_nombre_24-7" x1="217.81" y1="168.08" x2="217.81" y2="291.73" gradientTransform="matrix(0.66, 0.75, -0.58, 0.85, 201.65, -125.58)" xlink:href="#Degradado_sin_nombre_24"/><linearGradient id="Degradado_sin_nombre_24-8" x1="241.36" y1="255.6" x2="241.36" y2="275.76" gradientTransform="matrix(1, 0, 0.61, 1, -203.84, 0)" xlink:href="#Degradado_sin_nombre_24"/><linearGradient id="Degradado_sin_nombre_24-9" x1="251.82" y1="168.08" x2="251.82" y2="291.73" gradientTransform="matrix(0.66, 0.75, -0.58, 0.85, 213.17, -151.09)" xlink:href="#Degradado_sin_nombre_24"/><linearGradient id="Degradado_sin_nombre_24-10" x1="275.37" y1="255.6" x2="275.37" y2="275.76" gradientTransform="matrix(1, 0, 0.61, 1, -203.84, 0)" xlink:href="#Degradado_sin_nombre_24"/><linearGradient id="Degradado_sin_nombre_24-11" x1="285.82" y1="168.08" x2="285.82" y2="291.73" xlink:href="#Degradado_sin_nombre_24"/><linearGradient id="Degradado_sin_nombre_24-12" x1="309.38" y1="255.6" x2="309.38" y2="275.76" gradientTransform="matrix(1, 0, 0.61, 1, -203.84, 0)" xlink:href="#Degradado_sin_nombre_24"/><linearGradient id="Degradado_sin_nombre_23" x1="190.98" y1="390.58" x2="261.93" y2="390.58" gradientUnits="userSpaceOnUse"><stop offset="0.1" stop-color="#fcab3f"/><stop offset="0.88" stop-color="#ffcc4d"/></linearGradient><linearGradient id="Degradado_sin_nombre_23-2" x1="256.81" y1="390.58" x2="511.68" y2="390.58" xlink:href="#Degradado_sin_nombre_23"/><clipPath id="clip-path"><path class="cls-1" d="M331.46,51.24c21.1-8.1,44.53,4.52,50.59,26.3a94.42,94.42,0,0,1,3.63,28.32c-.89,25.42-1.38,52.39-25.18,57.36-27.44,5.73-47-31.05-47-31.05s-15.91-.75-16.11-18.73c-.19-17,16.11-6.24,16.11-6.24s-5.85-22.3,3.07-42.82C319.27,58.11,324.8,53.8,331.46,51.24Z"/></clipPath><linearGradient id="Degradado_sin_nombre_42" x1="445.13" y1="482.33" x2="507.83" y2="357.74" gradientUnits="userSpaceOnUse"><stop offset="0.08" stop-color="#b2b2b2"/><stop offset="1" stop-color="#cecece"/></linearGradient><linearGradient id="Degradado_sin_nombre_44" x1="274.67" y1="473.1" x2="285.73" y2="374.35" gradientUnits="userSpaceOnUse"><stop offset="0.08" stop-color="#b2b2b2"/><stop offset="1" stop-color="#e8e7e5"/></linearGradient><linearGradient id="Degradado_sin_nombre_14" x1="242.5" y1="438.51" x2="242.5" y2="388.3" gradientUnits="userSpaceOnUse"><stop offset="0.05" stop-color="#8e8e8e"/><stop offset="1" stop-color="#e8e7e5"/></linearGradient><linearGradient id="Degradado_sin_nombre_16-2" x1="335.39" y1="415.27" x2="342.41" y2="410.5" xlink:href="#Degradado_sin_nombre_16"/><linearGradient id="Degradado_sin_nombre_11" x1="326.11" y1="416.26" x2="339.28" y2="416.26" xlink:href="#Degradado_sin_nombre_16"/><linearGradient id="Degradado_sin_nombre_14-2" x1="263.73" y1="438.51" x2="263.73" y2="388.3" xlink:href="#Degradado_sin_nombre_14"/><linearGradient id="Degradado_sin_nombre_14-3" x1="276.71" y1="438.51" x2="276.71" y2="388.3" xlink:href="#Degradado_sin_nombre_14"/><linearGradient id="Degradado_sin_nombre_41" x1="655.85" y1="323.3" x2="700.63" y2="323.3" gradientUnits="userSpaceOnUse"><stop offset="0" stop-color="#232935"/><stop offset="1" stop-color="#464e5b"/></linearGradient></defs><g id="OBJECTS"><path class="cls-2" d="M536.66,385.44c13.13-10-2.29-16-1.82-36.69s14.59-13.31,10.6-31.36,6.49-25.71,15.74-27.58c10.67-2.16,15.86-27.73,29-23.37,7,2.32,8.2,10.75,5.56,16.2-3.49,7.18-8.67,10.85-3.24,19.22,10.38,16,4.33,20.33-7.8,32.48s6.74,10.74,4.87,30.42-20.13,7.75-14,31.26S570.74,424,570.74,424h-40C514.7,409.79,523.53,395.47,536.66,385.44Z"/><path class="cls-3" d="M547,415.41s21.5-28.31,4.43-55.83,16.33-44,6.58-71.78,25-56.64,8-77.94-47.75,6.3-46.63,48.13-44.06,31.74-42,96.21,10.89,63.31,10.89,63.31Z"/><path class="cls-4" d="M441.47,425.7s-29.59-50.49-3.77-99-.63-67.92,12-97.87,30.86-23.79,37.15-60.88,58.57-23.85,45.34,19,16.87,61.88,2.14,93.91-28.59,48.74-16.62,82.57-20.78,62.29-20.78,62.29Z"/><path class="cls-4" d="M198,425.7s29.37-50.1,3.75-98.21.63-67.39-11.87-97.11S159.23,206.77,153,170s-58.11-23.66-45,18.82-16.74,61.4-2.12,93.18,28.36,48.35,16.49,81.93S143,425.7,143,425.7Z"/><path class="cls-3" d="M97.84,425.7s-23.62-33.27-5-63.38S75,314.21,85.68,283.79s-27.37-62-8.7-85.29,52.24,6.89,51,52.66,48.2,34.74,46,105.28-11.41,69.26-11.41,69.26Z"/><path class="cls-2" d="M118.21,380.65c-14.61-7.71-.39-16.14-4.3-36.48S97.31,333.46,98.25,315s-10.66-24.27-20.09-24.58c-10.88-.36-20.25-24.72-32.46-18.24-6.51,3.46-6.31,12-2.79,16.91,4.63,6.5,10.34,9.26,6.38,18.41-7.58,17.54-.89,20.76,13.08,30.73s-4.86,11.71.25,30.81,21.14,4.31,19,28.51S96.5,425.7,96.5,425.7h28.94C139,409.07,132.82,388.37,118.21,380.65Z"/><path class="cls-5" d="M513.67,400.33a111.61,111.61,0,0,1,3.89-22.51,149.31,149.31,0,0,1,10,16.21c3.11-10.65,8.54-22.2,17.24-34.47a189.41,189.41,0,0,1,8.74,28.1,115.7,115.7,0,0,1,21.26-25.48,172.14,172.14,0,0,1-2.4,39.61,106.83,106.83,0,0,1,21.74-11.94A158.09,158.09,0,0,1,586.88,416a41.43,41.43,0,0,1-5.1,9.68H520.72C515.79,419.13,513,410.57,513.67,400.33Z"/><path class="cls-6" d="M142.74,179.34H461.83a8.36,8.36,0,0,1,8.15,6.53l50.34,225H184.11L134.58,189.53A8.36,8.36,0,0,1,142.74,179.34Z"/><path class="cls-7" d="M146.47,179.34H465.56a8.38,8.38,0,0,1,8.16,6.53l50.34,225H187.84L138.32,189.53A8.36,8.36,0,0,1,146.47,179.34Z"/><polygon class="cls-8" points="148.42 189.46 464.4 189.46 511.68 400.71 195.69 400.71 148.42 189.46"/><path class="cls-9" d="M178.25,213.46c1.32,5.23,6.63,9.47,11.86,9.47s8.4-4.24,7.08-9.47S190.55,204,185.33,204,176.93,208.23,178.25,213.46Z"/><path class="cls-10" d="M186.39,231h11.5a1.17,1.17,0,0,0,1.16-1.55h0a2.13,2.13,0,0,0-1.94-1.54h-11.5a1.16,1.16,0,0,0-1.15,1.54h0A2.12,2.12,0,0,0,186.39,231Z"/><path class="cls-11" d="M212.26,213.46c1.32,5.23,6.63,9.47,11.86,9.47s8.4-4.24,7.07-9.47S224.56,204,219.33,204,210.94,208.23,212.26,213.46Z"/><path class="cls-12" d="M220.4,231h11.5a1.17,1.17,0,0,0,1.15-1.55h0a2.11,2.11,0,0,0-1.93-1.54h-11.5a1.16,1.16,0,0,0-1.15,1.54h0A2.12,2.12,0,0,0,220.4,231Z"/><ellipse class="cls-13" cx="255.73" cy="213.46" rx="8.35" ry="10.74" transform="translate(-73.5 264.13) rotate(-48.6)"/><path class="cls-14" d="M254.41,231h11.5a1.17,1.17,0,0,0,1.15-1.55h0a2.11,2.11,0,0,0-1.93-1.54h-11.5a1.17,1.17,0,0,0-1.16,1.54h0A2.14,2.14,0,0,0,254.41,231Z"/><ellipse class="cls-15" cx="197.86" cy="253.58" rx="8.35" ry="10.74" transform="translate(-123.2 234.31) rotate(-48.6)"/><path class="cls-16" d="M196.53,271.09H208a1.17,1.17,0,0,0,1.16-1.55h0a2.13,2.13,0,0,0-1.94-1.54h-11.5a1.16,1.16,0,0,0-1.15,1.54h0A2.12,2.12,0,0,0,196.53,271.09Z"/><ellipse class="cls-17" cx="231.87" cy="253.58" rx="8.35" ry="10.74" transform="translate(-111.68 259.82) rotate(-48.6)"/><path class="cls-18" d="M230.54,271.09H242a1.17,1.17,0,0,0,1.15-1.55h0a2.11,2.11,0,0,0-1.93-1.54h-11.5a1.16,1.16,0,0,0-1.15,1.54h0A2.12,2.12,0,0,0,230.54,271.09Z"/><path class="cls-19" d="M256.41,253.58c1.32,5.23,6.63,9.47,11.86,9.47s8.39-4.24,7.07-9.47-6.63-9.47-11.86-9.47S255.08,248.35,256.41,253.58Z"/><path class="cls-20" d="M264.55,271.09h11.5a1.17,1.17,0,0,0,1.15-1.55h0a2.11,2.11,0,0,0-1.93-1.54h-11.5a1.17,1.17,0,0,0-1.16,1.54h0A2.14,2.14,0,0,0,264.55,271.09Z"/><polygon class="cls-21" points="190.98 380.45 195.69 400.71 261.93 400.71 256.81 380.45 190.98 380.45"/><polygon class="cls-22" points="507.14 380.45 256.81 380.45 261.93 400.71 511.68 400.71 507.14 380.45"/><path class="cls-1" d="M532.89,229.33c-1.65-3.22-13.35,1.47-17.25,3,3.66-1.65,15-6.42,13.1-9.07s-13.43,2.14-19.87,5.09c-1.34.55-2.79,1.24-4.38,2.08,9.62-8.26,4.95-12-2.92-5.7s-12.17,16.77-12.17,16.77l7.87,15.35s34.73-10.53,34.47-14.1c-.22-3.13-9.86-.18-13,.31,4-1,14.9-4.18,14.57-6.89-.43-3.55-12.74,1-16.55,2.32C521,236.86,534.51,232.49,532.89,229.33Z"/><path class="cls-2" d="M338.54,44.41S284.71,40,270.1,98.15c-8,26.22,14,47-2.8,68s-38.56,23-33.34,54.26c6.26,37.48,115.34,47.7,128.88.49,33.75-8.67,32.89-59,12.53-70.09C351.78,137.93,371.72,73.49,338.54,44.41Z"/><path class="cls-23" d="M367.81,216.81l0-.11c2.91-10.48,17.36-11.56,21.82-1.64,9.61,21.39,28.32,52.69,28.32,52.69l71.59-32.64,15,25.57L417.81,313c-25.09,16.31-44.29-20.92-50.22-41.73a97.4,97.4,0,0,1-3.3-34.44A113.56,113.56,0,0,1,367.81,216.81Z"/><polygon class="cls-24" points="489.57 235.11 504.58 260.68 493.79 267.75 478.02 239.7 489.57 235.11"/><path class="cls-25" d="M364,156.23s12.28,17,12.17,39.7c2.39,9.43,16.28-18.75-6.08-44.11"/><path class="cls-23" d="M350.69,177.89s17.69,5.41,38.59,37c12.32,18.65,8.6,51.77,9,78.92.71,54.85,7.8,106.87,7.8,106.87H380.51s.23-70.91,5.22-118.26S375.16,196.87,350.69,177.89Z"/><line class="cls-26" x1="397.2" y1="239.07" x2="398.41" y2="302.96"/><path class="cls-24" d="M390.55,269.54s21.17-64.92-39.86-97.54c-.57,11.23.12,11.34.12,11.34S383.37,214.74,390.55,269.54Z"/><path class="cls-23" d="M388.82,228.64c-1.12-3.1,1.53,3.25,0,0Z"/><path class="cls-4" d="M385.73,285.4c6.72-17.06,11-37.32-4.31-65.63-15.13-32.11-34-47.66-34-47.66C315.28,172,282.91,182,282.91,182l-4.16,48.6-11.86,138.6H389.18Z"/><polygon class="cls-27" points="389.18 369.15 266.89 369.15 266.09 378.56 389.57 378.56 389.18 369.15"/><polygon class="cls-2" points="266.09 378.56 264.19 400.71 390.48 400.71 389.57 378.56 266.09 378.56"/><path class="cls-3" d="M290.47,177.89s24.7,35.45,54.8,25.05c25.93-9,4.25-30.83,4.25-30.83S323.05,154.91,290.47,177.89Z"/><path class="cls-23" d="M306,176.31s10.3,26.94,15.25,118,2.54,106.37,2.54,106.37H256.54l22.62-217.37S293.45,174.36,306,176.31Z"/><path class="cls-2" d="M314.55,291.19a2.23,2.23,0,1,0,2.23-2.23A2.23,2.23,0,0,0,314.55,291.19Z"/><path class="cls-2" d="M316.78,339.58a2.23,2.23,0,1,0,2.23-2.23A2.23,2.23,0,0,0,316.78,339.58Z"/><path class="cls-2" d="M316.78,363.77a2.23,2.23,0,1,0,2.23-2.23A2.23,2.23,0,0,0,316.78,363.77Z"/><path class="cls-2" d="M316.78,388a2.23,2.23,0,1,0,2.23-2.23A2.23,2.23,0,0,0,316.78,388Z"/><path class="cls-25" d="M343.94,48.78s17.39-1.34,36,11"/><path class="cls-1" d="M313.77,132.46,305.37,180s14.87,16.73,33.84,13.65a13.78,13.78,0,0,0,11.46-13.5c.37-34.45-.12-45-.12-45Z"/><path class="cls-28" d="M350.69,168.18s-23.2,1.58-34.9-32.73c10.91,17.24,35,26.87,35,26.87Z"/><path class="cls-1" d="M331.46,51.24c21.1-8.1,44.53,4.52,50.59,26.3a94.42,94.42,0,0,1,3.63,28.32c-.89,25.42-1.38,52.39-25.18,57.36-27.44,5.73-47-31.05-47-31.05s-15.91-.75-16.11-18.73c-.19-17,16.11-6.24,16.11-6.24s-5.85-22.3,3.07-42.82C319.27,58.11,324.8,53.8,331.46,51.24Z"/><g class="cls-29"><circle class="cls-28" cx="384.35" cy="127.82" r="10.34" transform="translate(27.17 318.83) rotate(-46.53)"/></g><path class="cls-28" d="M363.15,136.69l-.31-21.19S376.66,137.45,363.15,136.69Z"/><circle class="cls-28" cx="341.45" cy="127.82" r="10.34" transform="translate(143.19 433.8) rotate(-77.58)"/><path class="cls-5" d="M372.3,115.5a2.57,2.57,0,1,1,2.57,2.57A2.57,2.57,0,0,1,372.3,115.5Z"/><path class="cls-5" d="M347.45,115.5a2.57,2.57,0,1,1,2.57,2.57A2.57,2.57,0,0,1,347.45,115.5Z"/><path class="cls-2" d="M338.54,44.41s23.19-3.16,45.33,19,15.54,42.46,1.81,42.46c0-16.67-10.81-27.41-28.7-30.8-2.07,22.41-23.85,44.79-43.5,32.14C299.42,78.49,306.34,44.41,338.54,44.41Z"/><path class="cls-30" d="M380.33,110.05c-3.46-2.46-7.11-2.23-10.92,0"/><path class="cls-30" d="M355.48,110.05c-3.45-2.46-7.11-2.23-10.92,0"/><path class="cls-6" d="M354,139.84c.7-1.27,2.46-.71,4,.1a9.48,9.48,0,0,0,5.45,1.11c1.71-.16,3.54,0,3.69,1.45.11,1-.79,1.67-2,2.19A9.11,9.11,0,0,1,355,142.64C354.1,141.69,353.56,140.69,354,139.84Z"/><path class="cls-30" d="M362.84,115.5s13.79,21.62.31,21.19"/><path class="cls-25" d="M342.22,47.2s-55.06-.27-66.23,59c-2.79,24.62,10,46.5,0,63.26s-46,24.43-34.3,53.76"/><path class="cls-25" d="M345.85,50.76s-28.16-1.17-48.48,24.69-10,59.12-9,83.1-25.16,20.52-42,37.38"/><path class="cls-25" d="M355.48,68.24s-6.19,41.63-42.46,38"/><path class="cls-25" d="M353.12,61.68S344,97.23,311.4,106"/><path class="cls-25" d="M350,55.9s-31.47,2.53-46.93,48"/><path class="cls-25" d="M300.07,124.12s13.18,30.9-4.64,51"/><path class="cls-24" d="M321.26,294.34s6.89-90.07-13.72-126.67l-28.38,15.67S312.88,229.8,321.26,294.34Z"/><path class="cls-8" d="M306.46,285.22a8.67,8.67,0,0,1-1-.06,1.46,1.46,0,0,1,.48-2.89,7.74,7.74,0,0,0,6.43-2.76,17.2,17.2,0,0,0,3.78-7.76c-6.6-7.11-12.78-19.89-18.46-38.2-.56-1.84-5.3-18.06-1.17-24.75a6,6,0,0,1,4.18-2.88c10.33-1.77,14.78,21,15.25,23.61,4.14,18,5.27,31.86,3.41,41.31a16.38,16.38,0,0,0,6.64,4.22,7.68,7.68,0,0,0,6.86-.87,1.46,1.46,0,1,1,1.87,2.25,10.59,10.59,0,0,1-9.56,1.42,18.1,18.1,0,0,1-6.62-3.79,18.9,18.9,0,0,1-4.11,7.51A10.91,10.91,0,0,1,306.46,285.22Zm-4.66-76.47a4,4,0,0,0-.6.05,3.05,3.05,0,0,0-2.19,1.54c-2.92,4.72.08,17.74,1.48,22.35,5.77,18.6,11.42,29.33,16.35,35.39,1.06-7.75.44-19.67-3.75-38C312,224.38,307.82,208.75,301.8,208.75Z"/><path class="cls-8" d="M381.93,252.21c-5-7-7.58-20.45-10.28-34.69-3.9-20.61-8.18-43.82-20.91-45.17l0-3c14.89,1.58,19.48,25,23.77,47.67,2.64,13.92,5.13,27.07,9.78,33.53Z"/><path class="cls-8" d="M299.21,208c-.34-1-8.22-24.61-1.1-36.41a14.22,14.22,0,0,1,9.94-6.8l-.51,2.88c-3.43.55-5.23,2.63-6.93,5.43-6.42,10.64,1.3,33.73,1.37,34Z"/><path class="cls-5" d="M302.54,285.05a3.43,3.43,0,1,0,1.82-4.5A3.44,3.44,0,0,0,302.54,285.05Z"/><path class="cls-5" d="M374.56,252.19a8.6,8.6,0,1,0,7.73-9.39A8.6,8.6,0,0,0,374.56,252.19Z"/><path class="cls-31" d="M378.64,251.79a4.5,4.5,0,1,0,4-4.91A4.5,4.5,0,0,0,378.64,251.79Z"/><path class="cls-5" d="M331.15,276.66a3.43,3.43,0,1,0,1.82-4.5A3.42,3.42,0,0,0,331.15,276.66Z"/><path class="cls-25" d="M347.76,53s15.69-3.09,36.11,10.38"/><path class="cls-25" d="M352.15,59.74s23.43-4.84,40.65,14.74"/><path class="cls-2" d="M375.5,338.34l83.32.1a2.65,2.65,0,0,0,2.63-2.26l16.74-112.37a2.66,2.66,0,0,0-2.62-3.05l-83.32-.09a2.67,2.67,0,0,0-2.63,2.26L372.88,335.3A2.65,2.65,0,0,0,375.5,338.34Z"/><path class="cls-1" d="M408.84,297.49c-.8-3.54-13.3-1.9-17.46-1.36,3.95-.69,16.17-2.48,14.95-5.52s-20-.19-26.95,1.06l1.06-7.07c-9.19,4.09-16.77,13.86-16.77,13.86l3.81,16.83s36.25-1.54,36.89-5.06c.57-3.09-9.5-2.63-12.65-2.94,4.15,0,15.48-.33,15.83-3,.47-3.55-12.59-2.19-16.61-1.88C395.45,301.82,409.62,301,408.84,297.49Z"/><path class="cls-5" d="M425.32,224h16.4c.71,0,1.37-.38,1.47-.83l1.13-5c.1-.46-.39-.83-1.09-.83H426.82a1.49,1.49,0,0,0-1.47.83l-1.12,5C424.12,223.6,424.61,224,425.32,224Z"/><path class="cls-25" d="M355,66.39s22,1.37,32.38,17,.8,22.21.8,22.21"/><path class="cls-1" d="M302.15,102.76c-10.36,2.86-16,29.57,12.32,29.7l2.55-21.6S311.31,100.23,302.15,102.76Z"/><path class="cls-28" d="M314.11,119.3s-2.79-11.08-9.82-9,0,15,6.66,15.79C308.79,121.15,314.11,119.3,314.11,119.3Z"/><path class="cls-30" d="M303.09,110.86s7.5-4.28,11,8.44c-4.29,1.14-3.16,6.81-3.16,6.81"/><path class="cls-25" d="M338.54,44.41S354.2,53.74,357,75.06"/><path class="cls-23" d="M279.16,183.34l4.12,119.25,73.16-13.25v30.71l-66,15.75c-29.22,6.54-36-4.46-40.94-22C237.61,272,223.15,202.59,279.16,183.34Z"/><polygon class="cls-24" points="370.22 286.85 370.22 316.55 356.44 320.06 356.44 289.34 370.22 286.85"/><polygon class="cls-24" points="272.6 388.59 296.38 364.81 303.19 371.62 278.22 396.58 272.6 388.59"/><path class="cls-26" d="M281.09,239.25l2.19,63.34,86.94-15.74v29.7s-90.68,25.35-104.8,19.6"/><g class="cls-32"><circle class="cls-23" cx="518.07" cy="217.32" r="24.41" transform="translate(-36.28 126.13) rotate(-13.42)"/><circle class="cls-33" cx="518.07" cy="217.32" r="24.41" transform="translate(-36.28 126.13) rotate(-13.42)"/><path class="cls-34" d="M530.58,214.42H521v-9.61a2.9,2.9,0,0,0-2.9-2.9h0a2.9,2.9,0,0,0-2.9,2.9v9.61h-9.61a2.9,2.9,0,0,0-2.9,2.9h0a2.9,2.9,0,0,0,2.9,2.9h9.61v9.61a2.9,2.9,0,0,0,2.9,2.9h0a2.9,2.9,0,0,0,2.9-2.9v-9.61h9.61a2.9,2.9,0,0,0,2.9-2.9h0A2.9,2.9,0,0,0,530.58,214.42Z"/></g><path class="cls-35" d="M311.61,408.48H645.2a7.51,7.51,0,0,1,7.26,7.73h0A7.51,7.51,0,0,1,645.2,424H311.61a7.52,7.52,0,0,1-7.27-7.74h0A7.51,7.51,0,0,1,311.61,408.48Z"/><path class="cls-36" d="M371.58,408.48a7.73,7.73,0,0,1,7.73,7.73h0a7.74,7.74,0,0,1-7.73,7.74H191c-6.62,0-7.4-3.3-7.4-7.74v-7.73Z"/><path class="cls-5" d="M190.84,396.85a118.11,118.11,0,0,0-4.11-23.78,156.66,156.66,0,0,0-10.51,17.12c-3.29-11.25-9-23.45-18.21-36.42a199.61,199.61,0,0,0-9.24,29.69,122.15,122.15,0,0,0-22.46-26.92,182.67,182.67,0,0,0,2.53,41.85,112.1,112.1,0,0,0-23-12.61,167.55,167.55,0,0,0,7.61,27.64,44,44,0,0,0,5.39,10.23h64.51C188.6,416.71,191.58,407.67,190.84,396.85Z"/><rect class="cls-37" x="233.2" y="413.56" width="18.6" height="5.41"/><path class="cls-38" d="M330.05,419h7.77a2.7,2.7,0,0,0,2.7-2.71h0a2.7,2.7,0,0,0-2.7-2.7h-7.77a2.7,2.7,0,0,0-2.7,2.7h0A2.7,2.7,0,0,0,330.05,419Z"/><path class="cls-39" d="M328.82,419h7.76a2.7,2.7,0,0,0,2.7-2.71h0a2.7,2.7,0,0,0-2.7-2.7h-7.76a2.7,2.7,0,0,0-2.71,2.7h0A2.71,2.71,0,0,0,328.82,419Z"/><path class="cls-40" d="M263.73,418.48h0a2.21,2.21,0,0,0,2.22-2.22h0a2.21,2.21,0,0,0-2.22-2.21h0a2.21,2.21,0,0,0-2.21,2.21h0A2.21,2.21,0,0,0,263.73,418.48Z"/><path class="cls-41" d="M276.71,418.48h0a2.21,2.21,0,0,0,2.22-2.22h0a2.21,2.21,0,0,0-2.22-2.21h0a2.21,2.21,0,0,0-2.21,2.21h0A2.21,2.21,0,0,0,276.71,418.48Z"/><path class="cls-1" d="M637,257a12.89,12.89,0,0,0,2.2-5.25c.35-2.73-1.18-3.3-1.75.13,0-.49-.07-.93-.13-1.33-.23-1.93-.75-5.3-1.64-5.38s-.4,3.27-.26,4.36c-.19-1.13-.76-4.55-1.75-4.48s-.07,3.87.14,5.09c-.24-1.08-.92-4.62-1.81-4.21-.68.31.12,3.31.46,4.4-.34-.8-1-3.48-1.78-3.09s1,6.37,1,6.37l.6,3.72Z"/><path class="cls-28" d="M667.56,216.94s-4.15,7.41,0,7.41"/><path class="cls-23" d="M662.5,447.7l.32-.1h11a14.68,14.68,0,0,1,1,5.95H662.5Z"/><path class="cls-42" d="M674.82,453.55a8.67,8.67,0,0,1-.2,1.34H662.5v-1.34Z"/><path class="cls-42" d="M662.5,453.55v1.34h-9.28a1.93,1.93,0,0,1-.28-1.34Z"/><path class="cls-42" d="M652.94,453.55c.19-1.41,1.87-3.71,9.56-5.85v5.85Z"/><path class="cls-23" d="M694.39,447.7l.33-.1h11a14.77,14.77,0,0,1,1,5.95H694.39Z"/><path class="cls-42" d="M706.71,453.55a8.65,8.65,0,0,1-.19,1.34H694.39v-1.34Z"/><path class="cls-42" d="M694.39,453.55v1.34h-9.27a1.87,1.87,0,0,1-.28-1.34Z"/><path class="cls-42" d="M684.84,453.55c.19-1.41,1.86-3.71,9.55-5.85v5.85Z"/><path class="cls-5" d="M668.45,211.92s-3-.74-1.33-5.06,21.35-12.29,26.07,2.29-3.29,24.1-7.54,24C679.73,232.93,670.18,231.4,668.45,211.92Z"/><path class="cls-1" d="M668.45,211.92s-5.91,21.2,4.4,21.6c1.29,7.67,2.2,10,2.2,10l12.8-.8L686.66,233s-12.61-.46-13.81-8.46c4-1.6,1.4-7.8-1.2-4.4C669.05,217.72,668.45,211.92,668.45,211.92Z"/><path class="cls-43" d="M677.27,353.48H677c0-3.29,0-5.19,0-5.19S677.1,350.19,677.27,353.48Z"/><path class="cls-2" d="M677,435H659.07l-.45-5.2H677C677,431.6,677,433.34,677,435Z"/><path class="cls-2" d="M705.51,435H686c-.34-1.69-.67-3.43-1-5.2h19.7C705,431.65,705.25,433.4,705.51,435Z"/><path class="cls-2" d="M676.93,426.88H658.38c-.13-1.66-.27-3.4-.41-5.21h18.92C676.9,423.43,676.92,425.17,676.93,426.88Z"/><path class="cls-2" d="M677.15,443.19H659.81c-.13-1.43-.3-3.18-.48-5.2h17.73C677.09,439.79,677.12,441.52,677.15,443.19Z"/><path class="cls-2" d="M706.82,443.19h-19q-.62-2.52-1.19-5.2H706C706.29,440,706.58,441.71,706.82,443.19Z"/><path class="cls-2" d="M704.26,426.88H684.5c-.29-1.72-.56-3.45-.83-5.21H703.5C703.75,423.44,704,425.19,704.26,426.88Z"/><path class="cls-2" d="M699.54,369.79H678.25c-.12-1.82-.24-3.56-.35-5.21h21.64C699.53,366.33,699.53,368.06,699.54,369.79Z"/><path class="cls-2" d="M699.61,377.94H678.86c-.14-1.78-.28-3.52-.4-5.2h21.09C699.57,374.51,699.58,376.25,699.61,377.94Z"/><path class="cls-2" d="M699.81,386.1H679.54c-.16-1.77-.31-3.5-.45-5.2h20.57C699.7,382.7,699.75,384.44,699.81,386.1Z"/><path class="cls-2" d="M699.55,361.63H677.72c-.11-1.91-.21-3.65-.3-5.2h22.17C699.57,358.15,699.56,359.89,699.55,361.63Z"/><path class="cls-2" d="M702,410.57H682.13c-.22-1.74-.43-3.47-.63-5.21h19.86C701.56,407.07,701.77,408.81,702,410.57Z"/><path class="cls-2" d="M700.24,394.25H680.3c-.17-1.75-.34-3.48-.5-5.2h20.13C700,390.93,700.12,392.69,700.24,394.25Z"/><path class="cls-2" d="M703.08,418.72H683.23c-.25-1.72-.49-3.46-.72-5.2h19.87C702.61,415.26,702.84,417,703.08,418.72Z"/><path class="cls-2" d="M701,402.41H681.16c-.2-1.74-.38-3.48-.56-5.2h19.9C700.65,398.88,700.83,400.62,701,402.41Z"/><path class="cls-2" d="M676.86,377.94H655.43c-.07-1.73-.13-3.46-.18-5.2h21.63C676.87,374.42,676.86,376.16,676.86,377.94Z"/><path class="cls-2" d="M677,348.29s0,1.9,0,5.19H654.92c0-1.75,0-3.49,0-5.21h44.75c0,1.7-.05,3.44-.07,5.21H677.27C677.1,350.19,677,348.29,677,348.29Z"/><path class="cls-2" d="M655.37,332H700c0,1.56-.08,3.31-.12,5.2H655.16C655.22,335.4,655.29,333.67,655.37,332Z"/><path class="cls-2" d="M676.82,394.25H656.17c-.09-1.71-.18-3.45-.27-5.2h20.93C676.83,390.77,676.83,392.5,676.82,394.25Z"/><path class="cls-2" d="M676.89,369.79H655.17c0-1.74-.09-3.47-.12-5.21h21.87C676.91,366.23,676.9,368,676.89,369.79Z"/><path class="cls-2" d="M676.84,386.1H655.76c-.08-1.73-.15-3.46-.22-5.2h21.31C676.84,382.6,676.84,384.33,676.84,386.1Z"/><path class="cls-2" d="M655.85,324.19h44.4s-.06,1.79-.14,4.82H655.53C655.62,327.37,655.73,325.76,655.85,324.19Z"/><path class="cls-2" d="M707.64,448.09a43,43,0,0,1-18.22,1.13c-.3-1-.59-2-.87-3.08h18.76Z"/><path class="cls-2" d="M655.07,340.12h44.77c0,1.65-.06,3.39-.1,5.2H655C655,343.57,655,341.83,655.07,340.12Z"/><path class="cls-2" d="M676.93,361.63H655c0-1.74,0-3.47,0-5.2h22C677,358,676.94,359.72,676.93,361.63Z"/><path class="cls-2" d="M676.83,402.41H656.64c-.11-1.71-.21-3.44-.31-5.2h20.49C676.82,398.93,676.82,400.67,676.83,402.41Z"/><path class="cls-2" d="M676.88,418.72H657.74c-.12-1.68-.25-3.42-.37-5.2h19.48C676.86,415.26,676.87,417,676.88,418.72Z"/><path class="cls-2" d="M677.25,447.6c-7.22,3.65-17,0-17,0s0-.51-.15-1.46h17.11C677.22,446.64,677.24,447.12,677.25,447.6Z"/><path class="cls-2" d="M676.84,410.57H657.16c-.11-1.7-.23-3.44-.34-5.21h20C676.83,407.1,676.84,408.83,676.84,410.57Z"/><path class="cls-44" d="M702.38,413.52H682.51c-.13-1-.26-2-.38-2.95H702C702.12,411.55,702.24,412.53,702.38,413.52Z"/><path class="cls-44" d="M676.85,413.52H657.37c-.07-1-.14-2-.21-2.95h19.68C676.84,411.55,676.85,412.54,676.85,413.52Z"/><path class="cls-44" d="M676.89,421.67H658c-.08-1-.15-1.94-.23-2.95h19.14C676.88,419.71,676.89,420.7,676.89,421.67Z"/><path class="cls-44" d="M703.5,421.67H683.67c-.15-1-.29-2-.44-2.95h19.85C703.22,419.71,703.36,420.7,703.5,421.67Z"/><path class="cls-44" d="M677,429.83H658.62c-.08-.95-.16-1.94-.24-2.95h18.55C676.94,427.87,677,428.86,677,429.83Z"/><path class="cls-44" d="M704.71,429.83H685c-.17-1-.34-2-.51-2.95h19.76C704.41,427.88,704.56,428.86,704.71,429.83Z"/><path class="cls-44" d="M677.06,438H659.33c-.08-.93-.17-1.92-.26-3H677C677,436,677.05,437,677.06,438Z"/><path class="cls-44" d="M706,438H686.6c-.21-1-.41-2-.61-3h19.52C705.67,436.06,705.83,437.05,706,438Z"/><path class="cls-44" d="M677.21,446.14H660.1c-.07-.73-.17-1.72-.29-2.95h17.34C677.17,444.2,677.19,445.19,677.21,446.14Z"/><path class="cls-44" d="M707.31,446.14H688.55c-.26-1-.51-1.94-.76-2.95h19C707,444.37,707.18,445.36,707.31,446.14Z"/><path class="cls-44" d="M676.88,372.74H655.25c0-1-.06-2-.08-2.95h21.72C676.89,370.75,676.88,371.74,676.88,372.74Z"/><path class="cls-44" d="M699.55,372.74H678.46c-.07-1-.14-2-.21-2.95h21.29C699.54,370.78,699.55,371.76,699.55,372.74Z"/><path class="cls-44" d="M676.85,380.9H655.54c0-1-.08-2-.11-3h21.43C676.85,378.91,676.85,379.9,676.85,380.9Z"/><path class="cls-44" d="M699.66,380.9H679.09c-.08-1-.16-2-.23-3h20.75C699.63,378.94,699.64,379.93,699.66,380.9Z"/><path class="cls-44" d="M676.83,389.05H655.9c0-1-.09-2-.14-2.95h21.08C676.83,387.07,676.83,388.06,676.83,389.05Z"/><path class="cls-44" d="M699.93,389.05H679.8c-.09-1-.18-2-.26-2.95h20.27C699.84,387.12,699.88,388.1,699.93,389.05Z"/><path class="cls-44" d="M676.82,397.21H656.33c-.05-1-.11-2-.16-3h20.65Z"/><path class="cls-44" d="M700.25,394.3c.07.94.16,1.91.25,2.91H680.6l-.3-3h19.94Z"/><path class="cls-44" d="M701.36,405.36H681.5c-.12-1-.23-2-.34-2.95H701C701.13,403.38,701.24,404.37,701.36,405.36Z"/><path class="cls-44" d="M676.83,405.36h-20c-.06-1-.12-2-.18-2.95h20.19Z"/><path class="cls-44" d="M655.53,329h44.58c0,.88-.05,1.87-.08,2.95H655.37C655.42,331,655.47,330,655.53,329Z"/><path class="cls-44" d="M655.16,337.16h44.75c0,.95,0,1.94-.07,3H655.07Z"/><path class="cls-44" d="M655,345.32h44.77c0,1,0,1.95,0,2.95H654.94C654.94,347.28,655,346.3,655,345.32Z"/><path class="cls-44" d="M677,353.48h22.64c0,1,0,2,0,2.95H654.94c0-1,0-2,0-2.95Z"/><path class="cls-44" d="M699.54,364.58H677.9c-.06-1-.12-2-.18-2.95h21.83C699.55,362.62,699.54,363.6,699.54,364.58Z"/><path class="cls-44" d="M676.92,364.58H655.05l-.06-2.95h21.94C676.93,362.58,676.92,363.56,676.92,364.58Z"/><path class="cls-42" d="M631.33,255.83l7.54.15-.78,18.56s19.37-41.1,52.57-32.8c0,0,11.93,3.63,12.45,32.16.41,22.53-1.62,37.7-2.48,46.58-15.88,2.77-36.16.78-44.48-.25l2.5-43.85L643.75,287c-5.11,3-10.06,4.78-13.13.17C626.22,280.56,631.33,255.83,631.33,255.83Z"/><path class="cls-45" d="M656.15,320.23c-.09,1.3-.19,2.61-.3,4,25.43,4.92,44.4,0,44.4,0s.15-1.34.38-3.71C684.75,323.25,664.47,321.26,656.15,320.23Z"/><path class="cls-42" d="M680.63,237.76s22-1,25.4,32.19-.67,42-.67,42l7.78,94.82s-28.66,8.62-63.36,0c0-50.43,3.08-102.43,8.87-130.41S668.38,238.76,680.63,237.76Z"/><path class="cls-46" d="M652.58,366.16l3.49-49.74a4.15,4.15,0,0,1,4.73-3.81h0c9.38,1.25,31.55,3.53,44.56-.64l.4,4.85s-12.64,4.24-45.3-.1l-4.07,49.44Z"/><rect class="cls-42" x="660.27" y="311.97" width="2.65" height="7.05" transform="translate(1323.2 630.99) rotate(180)"/><rect class="cls-42" x="690.3" y="311.97" width="2.66" height="7.05" transform="translate(1383.25 630.99) rotate(180)"/><path class="cls-46" d="M698.27,247.34s-9.57-13.15-34.2-1.85C673.17,235.37,693.53,230.33,698.27,247.34Z"/></g></svg>