<svg id="Layer_1" data-name="Layer 1" xmlns="http://www.w3.org/2000/svg" viewBox="0 0 415 415"><defs><style>.cls-1{fill:#e5e6ed;}.cls-2{fill:#444695;}.cls-3{fill:#0b50b9;}.cls-4{fill:#fff;}.cls-5{fill:#110239;}.cls-6{fill:#fb961e;}.cls-7{fill:#c6c7d7;}.cls-8{fill:#f88667;}.cls-9{fill:#e45940;}.cls-10{fill:#abadc4;}.cls-11{fill:#002987;}.cls-12{fill:#00a1cc;opacity:0.65;isolation:isolate;}.cls-13{fill:#e25b00;}.cls-14{fill:#fff9fd;}</style></defs><g id="Layer_1-2" data-name="Layer 1"><path class="cls-1" d="M407.91,372.54v-331a3.61,3.61,0,0,0-3.61-3.61H313.37c-13.28,8-29.05,33.55-33.33,47.63-7.28,24-23.3,40.68-31.43,45.13-21.26,11.65-45.22,8.84-68.24,14.25-24.94,5.87-48.16,21-59.17,43.34-10.6,21.6-7.52,39.7-13.69,61.93-6.26,22.57-28.72,40.08-50.08,48.26C34.82,307.12,13,313.61,8.83,338.07a85.41,85.41,0,0,0,2.64,38.13H404.29a3.6,3.6,0,0,0,3.62-3.6S407.91,372.56,407.91,372.54Z"/><path class="cls-2" d="M25.55,312.73c-8.46,5.72-14.68,13.38-16.7,25.29a85.61,85.61,0,0,0,2.65,38.14H404.29a3.61,3.61,0,0,0,3.62-3.61h0V312.73Z"/><circle class="cls-3" cx="196.52" cy="189.81" r="65.89"/><circle class="cls-4" cx="196.53" cy="189.82" r="56.2"/><rect class="cls-5" x="195.46" y="143.93" width="2.22" height="47.3" rx="1.1"/><path class="cls-5" d="M197.53,190.73h0a1.11,1.11,0,0,1-1.48.44L169.31,176.8a1.09,1.09,0,0,1-.44-1.48h0a1.1,1.1,0,0,1,1.48-.45l26.74,14.39A1.1,1.1,0,0,1,197.53,190.73Z"/><circle class="cls-6" cx="318.97" cy="154.54" r="37.33"/><circle class="cls-4" cx="318.97" cy="154.54" r="28.3"/><circle class="cls-6" cx="318.96" cy="154.53" r="20.21" transform="translate(70.41 407.2) rotate(-71.32)"/><circle class="cls-4" cx="318.96" cy="154.54" r="13.91"/><path class="cls-6" d="M312.55,154.54a6.43,6.43,0,1,0,6.43-6.42h0a6.41,6.41,0,0,0-6.42,6.41Z"/><path class="cls-7" d="M359.21,235.23c7.37-2.23,14.44-2.45,16.58-11,1.68-6.8-4.65-12.3.49-17.44,3.11-3.08,8.29-5.31,9-10.06.7-4.94-5.78-7.28-5.22-12,.47-3.91,5.78-4.82,3.79-9.58a6.4,6.4,0,0,0-8.15-3.9l-.52.22c-4,1.63-3.85,5.44-6.33,8.37-1.62,1.92-4.4.49-7.11.47s-6.09.61-8.2,2c-6.89,4.65-.1,12.07-.68,18.79-.57,6.51-10,3.69-14,9-4.77,6.19.4,15.41,6.25,19.32C348.89,232,354.22,236.74,359.21,235.23Z"/><path class="cls-4" d="M351.74,234.4h.13a.48.48,0,0,0,.53-.39c0-.17,3.06-17.1,13.76-29.25,6-6.84,6.9-13.29,7.59-18.3.41-2.89.74-5.44,2-6.93a.37.37,0,0,0-.08-.48c-.16-.14-.36-.16-.46,0-1.38,1.59-1.74,4.17-2.15,7.21-.7,5-1.57,11.34-7.53,18-10.92,12.31-14,29.51-14.06,29.68A.44.44,0,0,0,351.74,234.4Z"/><path class="cls-4" d="M365.62,204.37a.37.37,0,0,0,.48-.07.39.39,0,0,0-.1-.53c-2.69-2.11-4.82-6.51-3.54-9.59.15-.35.32-.75.5-1.15.87-1.93,1.93-4.25,1-6.3a5.6,5.6,0,0,0-2.66-2.54.33.33,0,0,0-.46.06l0,.05a.45.45,0,0,0,.25.52,4.52,4.52,0,0,1,2.2,2.07c.79,1.75-.21,3.94-1,5.78-.18.42-.36.81-.52,1.18-1.42,3.49.92,8.24,3.86,10.52Z"/><path class="cls-4" d="M367.65,205.67a5.81,5.81,0,0,0,3.86.81c1.84-.32,3.37-1.83,4.45-4.32.1-.25.22-.53.33-.85.71-1.75,1.75-4.36,3.35-4.81a2,2,0,0,1,1.63.33.28.28,0,0,0,.39-.06l0,0a.42.42,0,0,0-.19-.47h0a2.73,2.73,0,0,0-2.13-.43c-1.84.47-3,3.23-3.7,5.09-.13.31-.24.58-.35.83-1,2.31-2.39,3.68-4,4-1.42.24-3.05-.34-4.81-1.76a.37.37,0,0,0-.52,0h0a.4.4,0,0,0,.1.53A12.12,12.12,0,0,0,367.65,205.67Z"/><path class="cls-4" d="M351.64,226.39a4.26,4.26,0,0,0,1.61.41.46.46,0,0,0,.47-.4.43.43,0,0,0-.4-.45h0c-2.93-.17-5.37-4.59-5.89-7a11,11,0,0,1,.2-3.66c.39-2.4.77-4.82-1.07-6.41a.5.5,0,0,0-.65,0,.4.4,0,0,0,0,.57l0,0c1.47,1.22,1.11,3.47.76,5.65a11.53,11.53,0,0,0-.21,4C347,221.29,348.88,225.12,351.64,226.39Z"/><path class="cls-4" d="M355.31,227.88a5.16,5.16,0,0,0,1.64.43c3.29.34,7.16-1.93,8.92-3.55a13.4,13.4,0,0,0,2.42-3.78c1.18-2.35,2.4-4.74,4.27-4.67a.34.34,0,0,0,.34-.33v0a.41.41,0,0,0-.37-.38c-2.31-.1-3.68,2.61-4.92,5a13,13,0,0,1-2.27,3.57c-1.6,1.42-5.29,3.63-8.29,3.31a3.81,3.81,0,0,1-2.8-1.55.47.47,0,0,0-.62-.1.42.42,0,0,0-.12.58v0A4.63,4.63,0,0,0,355.31,227.88Z"/><path class="cls-3" d="M120.61,313.26c-6.46-4.16-23.12-7.62-21.69-17.34,1.18-8.25,17-11.71,12.63-20-2.58-4.93-5.27-9-3.57-15.9,1.87-7.52,13.87-7.08,16-14.18,1.82-6.09-4.68-12.89,1.12-18.25,5.15-4.76,14.1-.8,16.68,4.21C145,238,139.3,243,140.08,249c.49,3.85,4.21,4.17,6.84,6.21a18.3,18.3,0,0,1,6.17,8.06c2.95,9.08-6.79,13.09-9.92,20.28-2.89,6.64,6.22,7.85,6.65,14.07.47,6.74-7.6,12.72-14,14.45C131.41,313.23,124.61,315.84,120.61,313.26Z"/><path class="cls-4" d="M127.86,314.49h-.12a.32.32,0,0,1-.31-.36.29.29,0,0,1,0-.09c0-.16,5.24-16.2,1-33.33-2.83-11.42-.15-20,2-27,1.33-4.24,2.49-8,1.93-11.18a.52.52,0,0,1,.4-.58.44.44,0,0,1,.55.31.11.11,0,0,1,0,.05c.61,3.46-.58,7.27-1.92,11.62-2.17,6.91-4.82,15.34-2,26.53,4.26,17.34-1,33.58-1.07,33.71A.5.5,0,0,1,127.86,314.49Z"/><path class="cls-4" d="M129.23,280.52a.4.4,0,0,1-.46-.32.48.48,0,0,1,.37-.53c3.86-.84,8.34-4.5,8.84-8.67.05-.49.1-1,.15-1.62.23-2.76.52-6.2,2.65-8a5.59,5.59,0,0,1,4.09-1.19.41.41,0,0,1,.4.43v.06a.55.55,0,0,1-.54.44,4.47,4.47,0,0,0-3.36,1c-1.81,1.53-2.08,4.77-2.3,7.34a13.13,13.13,0,0,1-.17,1.64c-.57,4.71-5.43,8.57-9.63,9.47Z"/><path class="cls-4" d="M126.41,280.86a7,7,0,0,1-4.65-1.19c-1.93-1.43-2.89-4.1-2.89-7.77v-1.25c.11-2.64.29-6.66-1.49-8.38a3,3,0,0,0-2.3-.8.47.47,0,0,1-.48-.44v0a.52.52,0,0,1,.5-.48h0a4,4,0,0,1,3,1.07c2,2,1.84,6.25,1.71,9v1.23c-.06,3.38.81,5.78,2.51,7.09,1.46,1.08,3.54,1.31,6.19.73a.41.41,0,0,1,.52.27v0a.49.49,0,0,1-.39.54A14.2,14.2,0,0,1,126.41,280.86Z"/><path class="cls-4" d="M131.59,307.67a4.91,4.91,0,0,1-1.62-.12.35.35,0,0,1-.25-.43.14.14,0,0,1,0-.07.49.49,0,0,1,.58-.27c2.67.73,6.8-2.36,8.38-4.3a12.12,12.12,0,0,0,1.6-3.32c.86-2.3,1.76-4.71,4-5.42a.4.4,0,0,1,.52.21s0,0,0,.05a.47.47,0,0,1-.34.53c-1.81.56-2.61,2.72-3.4,4.81a13.17,13.17,0,0,1-1.75,3.57C138,304.65,134.58,307.4,131.59,307.67Z"/><path class="cls-4" d="M127.62,307.89a6.28,6.28,0,0,1-1.73-.12c-3.3-.72-6.1-4.15-7.18-6.31a13,13,0,0,1-.76-4.7c-.15-2.89-.31-6-2.45-6.74a.38.38,0,0,1-.26-.48l0-.08a.56.56,0,0,1,.63-.24c2.65,1,2.82,4.46,3,7.47a12.31,12.31,0,0,0,.67,4.42c1,1.92,3.64,5.25,6.64,5.91a4.44,4.44,0,0,0,3.3-.51.46.46,0,0,1,.61.11.41.41,0,0,1-.16.54h0A5.59,5.59,0,0,1,127.62,307.89Z"/><path class="cls-5" d="M348.94,284.62c-2.77-4.13-11.73-10.43-8.43-15.84,2.81-4.59,13.07-2.6,12.62-8.67-.27-3.58-.82-6.68,1.93-10.34,3-4,10-.65,13.11-4.32,2.64-3.14.52-8.84,5.34-10.53,4.28-1.51,8.57,3.14,8.81,6.74.31,4.54-4.34,6-5.42,9.79-.68,2.4,1.43,3.56,2.48,5.45a12,12,0,0,1,1.59,6.35c-.58,6.14-7.38,6-11.08,9.49-3.43,3.2,1.68,6.25.35,10.05-1.45,4.11-7.77,5.6-12,5C355.34,287.37,350.67,287.17,348.94,284.62Z"/><path class="cls-4" d="M352.93,287.2h-.07a.22.22,0,0,1-.11-.28l.05-.07a43.44,43.44,0,0,0,9.12-19.51c1.25-7.5,5-11.9,8.12-15.5,1.87-2.18,3.51-4.08,4-6.15a.33.33,0,0,1,.39-.24.3.3,0,0,1,.25.31.09.09,0,0,0,0,.05c-.52,2.21-2.21,4.16-4.14,6.4-3,3.54-6.74,7.86-8,15.2a44,44,0,0,1-9.27,19.75A.33.33,0,0,1,352.93,287.2Z"/><path class="cls-4" d="M362.43,267.4a.26.26,0,0,1-.19-.31.32.32,0,0,1,.38-.22c2.5.5,6.08-.52,7.44-2.88a9.61,9.61,0,0,0,.5-1c.85-1.57,1.93-3.54,3.63-4.07a3.61,3.61,0,0,1,2.73.34.27.27,0,0,1,.13.35l0,0a.36.36,0,0,1-.43.13,2.87,2.87,0,0,0-2.23-.32c-1.47.45-2.46,2.3-3.25,3.76-.17.34-.35.66-.51,1-1.54,2.64-5.41,3.68-8.14,3.15Z"/><path class="cls-4" d="M360.67,266.87a4.5,4.5,0,0,1-2.45-1.92c-.78-1.34-.68-3.18.29-5.34l.35-.73c.74-1.53,1.88-3.85,1.27-5.35a1.93,1.93,0,0,0-1.16-1.06.3.3,0,0,1-.17-.39h0a.33.33,0,0,1,.42-.15h0a2.53,2.53,0,0,1,1.5,1.4c.7,1.7-.5,4.17-1.29,5.78-.14.26-.25.5-.35.71-.9,2-1,3.67-.33,4.82a4.82,4.82,0,0,0,3.49,2,.28.28,0,0,1,.24.3v0a.31.31,0,0,1-.36.22A7.86,7.86,0,0,1,360.67,266.87Z"/><path class="cls-4" d="M356.89,284.11a2.78,2.78,0,0,1-1-.49.22.22,0,0,1,0-.32l0,0a.33.33,0,0,1,.42,0c1.39,1.12,4.64.34,6.07-.41a7.62,7.62,0,0,0,1.8-1.55c1.1-1.14,2.25-2.35,3.79-2.18a.27.27,0,0,1,.25.28h0a.33.33,0,0,1-.34.23c-1.21-.14-2.25,1-3.25,2a8.35,8.35,0,0,1-1.93,1.67C361.44,284,358.73,284.7,356.89,284.11Z"/><path class="cls-4" d="M354.53,283.22a3.91,3.91,0,0,1-1-.51c-1.77-1.27-2.55-4-2.64-5.58a8.35,8.35,0,0,1,.76-3c.65-1.78,1.34-3.62.26-4.66a.25.25,0,0,1,0-.35l0,0a.33.33,0,0,1,.44,0c1.32,1.26.53,3.36-.16,5.19a8,8,0,0,0-.72,2.79c.08,1.41.81,4.05,2.42,5.21a2.9,2.9,0,0,0,2.1.54.3.3,0,0,1,.33.22.27.27,0,0,1-.25.28h0A3.77,3.77,0,0,1,354.53,283.22Z"/><path class="cls-7" d="M228.07,258.48c6.94-.69,12.47-1.41,13.64-8.48.61-3.66-.66-6.43-4.24-9-2.89-2.1-4.42-2.89-4.67-6.26-.39-5.37,2.89-10.13.32-15.63-2.84-6.14-11.45-4.81-14.53-10.42-2.76-5.08-3.72-11.28-11-12.24-6.07-.82-9.47,5.17-7.52,10,1.11,2.69,3.41,4.81,4.07,7.61s-.76,4.58-2.07,6.74c-2.89,4.82-4.19,10,1.18,14.2,3.21,2.52,5.64,4.69,3.85,8.28-1.92,3.79-2.82,6,1.57,9.63,3.28,2.76,6.59,3.06,10.71,3.85,3.86.74,8.89,2.55,12.8,1.4Z"/><path class="cls-4" d="M226.42,254.45a5,5,0,0,0,1.43-1.83c1.24-2.89-1.16-6.25-3.32-9.32a21,21,0,0,1-2.56-4.23c-1.14-3.25-1.23-6-.27-10.19,1.12-4.95.07-7.2-3.53-11.11-3-3.29-6-6.87-6.52-10.06a.57.57,0,0,0-.64-.39.52.52,0,0,0-.49.51h0c.56,3.39,3.62,7.08,6.74,10.46,3.5,3.77,4.46,5.78,3.4,10.51a17.82,17.82,0,0,0,.31,10.6,20.9,20.9,0,0,0,2.65,4.36c2.1,3,4.42,6.22,3.32,8.77a5.55,5.55,0,0,1-2.79,2.55c-.24.11-.35.34-.23.51a.53.53,0,0,0,.65.07A9.11,9.11,0,0,0,226.42,254.45Z"/><path class="cls-4" d="M220.82,233.59a.37.37,0,0,0-.28-.66c-2.46-.08-4-2.23-5.61-4.55-1.44-2-3-4.2-5.34-5.08a.64.64,0,0,0-.75.21.37.37,0,0,0,.1.51l.13,0c2.09.77,3.53,2.8,4.91,4.75,1.7,2.39,3.41,4.82,6.41,4.91A.62.62,0,0,0,220.82,233.59Z"/><path class="cls-4" d="M221.85,240a.68.68,0,0,0,.12-.12,8.9,8.9,0,0,0,.66-1.56,4.6,4.6,0,0,1,1.34-2.22,13.5,13.5,0,0,1,1.38-1.09,7,7,0,0,0,2.56-2.72,14.8,14.8,0,0,0,1-7.24,12.94,12.94,0,0,0-.29-1.63c-.19-.89-.55-2.58-.3-2.88a.38.38,0,0,0-.06-.53l-.06,0a.59.59,0,0,0-.7.12c-.49.55-.27,1.72.12,3.57a15.5,15.5,0,0,1,.29,1.54,14.79,14.79,0,0,1-.87,6.91,5.84,5.84,0,0,1-2.25,2.37,14,14,0,0,0-1.49,1.18,5.45,5.45,0,0,0-1.57,2.58,8,8,0,0,1-.61,1.41.33.33,0,0,0,.11.45.35.35,0,0,0,.13.05A.72.72,0,0,0,221.85,240Z"/><path class="cls-3" d="M350.28,322.37c-6.58-3.85-11.65-7.05-10.09-15.24.78-4.16,3-6.57,7.31-7.88,3.5-1.07,5.23-1.31,6.63-4.71,2.21-5.38.75-11.38,4.95-15.91,4.63-5,12.38-.66,17-5.13,4.14-4,6.9-9.55,14.16-8.08a7.81,7.81,0,0,1,4.77,12.4c-1.86,2.31-4.82,3.62-6.24,6.24s-.54,5,.17,7.81c1.6,6.27,1.43,12.46-5.46,14.88-4.11,1.44-7.32,2.79-6.6,7.62.77,5.16,1,8.11-4.82,10.4-4.37,1.71-7.91.52-12.41-.47-4.18-.92-9.89-1.1-13.34-4.15Z"/><path class="cls-4" d="M353.36,318.56a6.93,6.93,0,0,1-.75-2.68c-.19-3.71,3.37-6.42,6.58-8.87a20.5,20.5,0,0,0,4-3.53c2.21-3,3.2-5.93,3.64-10.69.49-5.53,2.22-7.43,6.95-10.06,4-2.21,7.94-4.72,9.37-7.71a.62.62,0,0,1,.87,0,.59.59,0,0,1,.2.57c-1.53,3.19-5.64,5.78-9.75,8.06-4.58,2.52-6.15,4.23-6.62,9.51-.37,4.06-1.16,7.51-3.79,11.1a21.63,21.63,0,0,1-4.11,3.65c-3.11,2.35-6.55,5-6.38,8.29a7.16,7.16,0,0,0,1.87,4.08c.19.25.21.56,0,.69a.53.53,0,0,1-.67-.19A12.06,12.06,0,0,1,353.36,318.56Z"/><path class="cls-4" d="M366.13,298.09a.51.51,0,0,1-.07-.32c0-.25.27-.37.55-.27,2.47.89,4.68-.8,7-2.6,2.08-1.59,4.26-3.25,6.92-3.24a.75.75,0,0,1,.69.51.37.37,0,0,1-.25.48.39.39,0,0,1-.15,0c-2.33,0-4.42,1.57-6.41,3.08-2.44,1.86-4.94,3.76-7.94,2.67A.72.72,0,0,1,366.13,298.09Z"/><path class="cls-4" d="M363,304.58a1.27,1.27,0,0,1-.06-.18,11.32,11.32,0,0,1-.14-1.93,5.9,5.9,0,0,0-.57-2.89,14.12,14.12,0,0,0-1-1.69,8.36,8.36,0,0,1-1.57-3.85,17.25,17.25,0,0,1,1.51-7.79,16,16,0,0,1,.81-1.53c.47-.83,1.36-2.39,1.22-2.8a.37.37,0,0,1,.2-.49.19.19,0,0,1,.1,0,.58.58,0,0,1,.62.37c.3.72-.28,1.82-1.26,3.53-.32.57-.62,1.1-.77,1.45a17.07,17.07,0,0,0-1.46,7.45,7.15,7.15,0,0,0,1.4,3.36,18.66,18.66,0,0,1,1.06,1.84,7,7,0,0,1,.69,3.4,9.63,9.63,0,0,0,.13,1.78.34.34,0,0,1-.23.42.37.37,0,0,1-.18,0A.72.72,0,0,1,363,304.58Z"/><path class="cls-5" d="M232.63,246.27c-7.53-1.19-13.41-2.33-14.93-10.53-.78-4.16.4-7.21,4-10,2.89-2.27,4.4-3.12,4.47-6.8.1-5.78-3.44-10.87-1.18-16.62,2.51-6.34,11.3-5.1,14-11,2.41-5.2,2.94-11.4,10.25-12.66a7.81,7.81,0,0,1,8.94,9.82c-.88,2.83-3.14,5.11-3.54,8.08s1.32,4.89,3,7.23c3.77,5.25,5.87,11.08.32,15.83-3.31,2.83-5.78,5.27-3.39,9.5,2.6,4.53,3.92,7.18-.7,11.44-3.45,3.18-7.19,3.36-11.73,4.07-4.23.66-9.64,2.56-13.94,1Z"/><path class="cls-4" d="M234.13,241.61a6.94,6.94,0,0,1-1.68-2.23c-1.52-3.38.81-7.21,2.89-10.66a20.45,20.45,0,0,0,2.42-4.72c1-3.63.84-6.74-.49-11.28-1.55-5.34-.63-7.71,2.82-11.9,2.89-3.51,5.68-7.28,5.94-10.59a.52.52,0,0,1,.62-.42h0a.52.52,0,0,1,.56.51c-.27,3.53-3.15,7.44-6.15,11-3.36,4-4.2,6.19-2.72,11.28,1.13,3.91,1.65,7.42.5,11.7a21.4,21.4,0,0,1-2.51,4.9c-2,3.33-4.3,7-2.89,10a7.17,7.17,0,0,0,3.21,3.14c.27.15.41.43.29.62a.52.52,0,0,1-.7.05A11.44,11.44,0,0,1,234.13,241.61Z"/><path class="cls-4" d="M238.58,217.9a.54.54,0,0,1-.18-.27c-.06-.24.12-.45.42-.45,2.62-.08,4.06-2.44,5.61-5,1.36-2.24,2.79-4.59,5.26-5.54a.74.74,0,0,1,.83.22.38.38,0,0,1,0,.53.51.51,0,0,1-.16.09c-2.19.83-3.54,3.07-4.82,5.2-1.6,2.62-3.24,5.28-6.43,5.36A.68.68,0,0,1,238.58,217.9Z"/><path class="cls-4" d="M238,225.1a.44.44,0,0,1-.12-.15,11.71,11.71,0,0,1-.84-1.75,5.86,5.86,0,0,0-1.59-2.52,16.46,16.46,0,0,0-1.53-1.23,8.08,8.08,0,0,1-2.89-3,17.08,17.08,0,0,1-1.43-7.79,14.17,14.17,0,0,1,.21-1.72c.13-1,.39-2.73.12-3.07a.38.38,0,0,1,0-.54.18.18,0,0,1,.07-.05.61.61,0,0,1,.71.12c.53.57.4,1.8.11,3.76a14.8,14.8,0,0,0-.2,1.63,17,17,0,0,0,1.34,7.46,7.12,7.12,0,0,0,2.54,2.63,17.45,17.45,0,0,1,1.65,1.33,7,7,0,0,1,1.93,2.89,10,10,0,0,0,.76,1.62.35.35,0,0,1-.07.48.34.34,0,0,1-.15.07A.77.77,0,0,1,238,225.1Z"/><path class="cls-7" d="M101.15,325.4c-9.41-.33-17.89,1.63-23.11-7.85-4.1-7.52,1.65-16-6-20.45-4.63-2.68-11.46-3.69-13.73-9.09-2.33-5.64,4.62-10.43,2.49-15.86C59,267.68,52.49,268.3,53.28,262a7.81,7.81,0,0,1,8.4-7.19c.24,0,.49,0,.73.09,5.21.7,6.3,5.22,10.09,7.92,2.53,1.8,5.36-.8,8.56-1.67S88.44,260,91.4,261c9.63,3.33,3.85,14.22,6.68,22,2.71,7.51,12.92,1.23,19.41,6.22,7.57,5.83,4.33,18.3-1.34,24.8C112.34,318.38,107.51,325.61,101.15,325.4Z"/><path class="cls-4" d="M109.71,322.05l-.15.07a.59.59,0,0,1-.74-.29c-.09-.2-9-19.26-25.43-30.26-9.26-6.19-12.32-13.54-14.71-19.26-1.4-3.35-2.59-6.21-4.57-7.55a.44.44,0,0,1,0-.59.38.38,0,0,1,.5-.22l0,0c2.13,1.44,3.36,4.38,4.82,7.84,2.37,5.66,5.4,12.91,14.53,19,16.77,11.13,25.83,30.49,25.93,30.69A.53.53,0,0,1,109.71,322.05Z"/><path class="cls-4" d="M83.88,290.93a.43.43,0,0,1-.59.06.46.46,0,0,1,0-.65c2.51-3.33,3.6-9.2,1.17-12.44q-.43-.57-1-1.2c-1.63-2-3.61-4.42-3.16-7.14a7,7,0,0,1,2.33-3.85.42.42,0,0,1,.59,0l0,0a.54.54,0,0,1-.14.68,5.65,5.65,0,0,0-1.92,3.14c-.38,2.32,1.49,4.61,3,6.47.35.43.68.84,1,1.23,2.79,3.69,1.51,10-1.25,13.65Z"/><path class="cls-4" d="M82,293.15a7,7,0,0,1-4.28,2.17c-2.27.19-4.55-1.11-6.61-3.72-.2-.26-.43-.56-.67-.9C69,288.85,67,286.1,65,286.11a2.58,2.58,0,0,0-1.83.91.32.32,0,0,1-.46.07L62.6,287a.48.48,0,0,1,.07-.6h0a3.29,3.29,0,0,1,2.39-1.18c2.33,0,4.5,2.89,6,4.82l.66.87c1.93,2.41,4,3.62,6,3.43,1.76-.15,3.5-1.35,5.16-3.58a.47.47,0,0,1,.63-.14h0a.49.49,0,0,1,0,.66A14.93,14.93,0,0,1,82,293.15Z"/><path class="cls-4" d="M107.31,312.59a5.54,5.54,0,0,1-1.77,1,.54.54,0,0,1-.69-.32h0a.53.53,0,0,1,.35-.66h0c3.42-1.13,4.91-7.09,4.82-10.11a13.35,13.35,0,0,0-1.39-4.25c-1.21-2.73-2.44-5.51-.74-7.91a.59.59,0,0,1,.78-.2.48.48,0,0,1,.17.66l0,.06c-1.35,1.93-.22,4.43.88,6.91a13.5,13.5,0,0,1,1.48,4.63C111.24,305.08,110.19,310.22,107.31,312.59Z"/><path class="cls-4" d="M103.46,315.49a6.78,6.78,0,0,1-1.81,1c-3.79,1.41-9.08-.09-11.66-1.4a16.26,16.26,0,0,1-4-3.72c-2.14-2.41-4.32-4.81-6.51-4.18a.43.43,0,0,1-.52-.29v0a.5.5,0,0,1,.32-.57c2.7-.83,5.17,1.92,7.4,4.42a15.89,15.89,0,0,0,3.78,3.49c2.35,1.19,7.41,2.63,10.84,1.32a4.67,4.67,0,0,0,2.83-2.7.55.55,0,0,1,.71-.31.48.48,0,0,1,.32.61.08.08,0,0,1,0,.05A5.6,5.6,0,0,1,103.46,315.49Z"/><polygon class="cls-6" points="361.08 193.66 258.64 193.66 258.64 220.29 217.19 220.29 217.19 246.91 175.74 246.91 175.74 273.53 134.29 273.53 134.29 300.15 92.84 300.15 92.84 333.81 361.08 333.81 361.08 193.66"/><path class="cls-8" d="M303.28,137.12s.83,2,.8,1.92a5.55,5.55,0,0,1,1.34-.6,10.67,10.67,0,0,0,1.6-.12,2.73,2.73,0,0,0,1-.47c.15-.1.42-.41.18-.48s-.44.23-.58.29a2.56,2.56,0,0,1-.62.05l.53-.22a6.34,6.34,0,0,0,1.18-.55c.12-.11.1-.37-.23-.31a4,4,0,0,0-.83.27l-.69.26.73-.3c.21-.1.81-.33,1.17-.49s.29-.58,0-.55a7.86,7.86,0,0,0-1.2.51,3.46,3.46,0,0,0-.7.3s.68-.31.8-.39.87-.37,1-.59,0-.33-.27-.29a4,4,0,0,0-1,.33,8.9,8.9,0,0,1-1.5.61c-.21,0-.45,0-.45-.28l-.38-.69s-.25.12-.38.75A2.35,2.35,0,0,1,303.28,137.12Z"/><path class="cls-3" d="M280.56,145.17a3.44,3.44,0,0,1,3-3.32c2.73-.41,7.79-1.19,9.31-1.55,2.13-.49,10.8-3.38,10.8-3.38l1,2.29s-9.43,4.75-11.13,5.11-10.41,3.47-12.11,2.49A1.75,1.75,0,0,1,280.56,145.17Z"/><path class="cls-8" d="M281,134.37l.14.17a10.42,10.42,0,0,0,1.56,1.34c.35.23.88.39,1.18.63l.37.26a29.81,29.81,0,0,0-.53,4.52s-3.11-.22-4.23-1.48A31.77,31.77,0,0,0,281,134.37Z"/><path class="cls-9" d="M282.62,139.55a4.58,4.58,0,0,0-1.41-2.34c-.24-.19-.48-.38-.74-.55a16.08,16.08,0,0,0,.49-2.29l.14.17a10.42,10.42,0,0,0,1.56,1.34c.35.23.88.39,1.18.63l.37.26a29.81,29.81,0,0,0-.53,4.52c-.42,0-.83-.1-1.24-.18A2.27,2.27,0,0,0,282.62,139.55Z"/><path class="cls-5" d="M282.67,189.75s.09,3.1.57,3.52,6.65.61,7.18,0,.21-1.52-1.11-1.93-2.11,0-3-.37-.65-1.77-.65-1.77Z"/><path class="cls-5" d="M267.41,189.65s-.47,3,0,3.46,6.74,1,7.29.38.28-1.5-1-1.93-2.08-.16-3-.5c-.71-.25-.23-1.68-.23-1.68Z"/><path class="cls-7" d="M272,172.3a93.6,93.6,0,0,1,1.29-17.21,7.94,7.94,0,0,1,3.08.6c1.87.85,3.76,1.67,5.65,2.49a123.78,123.78,0,0,0-5.29,15.7c-.5,2.69-6.13,16.44-6.13,16.44l-3.41-.43C267.2,187.67,272,173,272,172.3Z"/><path class="cls-10" d="M279,156.91a28.88,28.88,0,0,0,3,1.24,128.15,128.15,0,0,0-4.86,14c-.49-1.45-2.8-4.93-3.68-8.76a20.18,20.18,0,0,1-.29-7.78h0A14.63,14.63,0,0,1,279,156.91Z"/><path class="cls-7" d="M276.4,156.44c1.33.45,3.75,1.1,5.57,1.74,1.27,3.22,5,10.8,5.22,14.23.22,3.78-1.09,18.1-1.09,18.1h-3.85s-.37-16.14-.91-17.18c-1.8-3.43-3.79-6.13-4.93-8.26a26.87,26.87,0,0,1-2.89-7.54c-.14-.75-.79-3.22.47-4C275,153.84,275.3,156.07,276.4,156.44Z"/><path class="cls-3" d="M283.4,159a15.69,15.69,0,0,1-6.51,1c-2.38-.22-3.63-.26-5-1,0,0,1.49-11.63,3.21-15.31a7.74,7.74,0,0,1,4.56-4.37,9.7,9.7,0,0,0,4.05,1.27s0,7.15-.18,10S283.4,159,283.4,159Z"/><path class="cls-11" d="M283.55,149.5V146h-.43a10.19,10.19,0,0,1-3.12-1.44q-.25-.15-.51-.27c-.21,1.53.49,3.4.78,4.62a26.23,26.23,0,0,1,.56,10.87,17.74,17.74,0,0,0,2.49-.72s0-5.56.11-8.42v-.86A1.11,1.11,0,0,0,283.55,149.5Z"/><path class="cls-8" d="M279.4,131.47s1.32-2.77,3.08-2.66,2.89.41,3.13,1.08a19.5,19.5,0,0,0,1.09,3.26c.44.69,1.43,1.6,1.4,1.92s-1,.43-1.08.55-.61,2.41-1,2.65-3.75-1.08-4.27-2.09S279.2,133.26,279.4,131.47Z"/><path class="cls-5" d="M282.94,131.73a4.61,4.61,0,0,1,.53.15,5.23,5.23,0,0,1,.78.11,3.21,3.21,0,0,0,1.57,0c.77-.25.52-1,.88-1.54.17-.25.53-.25.72-.54a1.79,1.79,0,0,0,.22-1c0-.8-.79-.88-1.41-1s-.76-.58-1.11-1.13c-.86-1.36-2.06.52-3,.41-.49-.06-1-.38-1.47-.11a3.38,3.38,0,0,0-1,1c-.29.38-.57.22-1,.39a2.51,2.51,0,0,0-.86.65,2.66,2.66,0,0,0-.66,2.12c.14.63.64,1,.66,1.62a3.79,3.79,0,0,0,.25,1.63c.36.69,1.18.78,1.73,1.25a2.36,2.36,0,0,0,1.93.61c.08-.48,0-1.31-.41-1.55a3,3,0,0,1-.64-.34.76.76,0,0,1,.72-1.28c.56.08.81,1.6,1.42,1.36s-.1-1-.22-1.23-.26-1.22.06-1.51A.26.26,0,0,1,282.94,131.73Z"/><path class="cls-8" d="M297.7,159a1.69,1.69,0,0,1,.45,0,1.9,1.9,0,0,0,1-.13,4.07,4.07,0,0,1,1.68-.4c.28,0,2,.44,1.56,1.15-.06.08-.26.23-.32.21l-.66-.24a2.53,2.53,0,0,1,.45.19.41.41,0,0,1,.23.16.42.42,0,0,1-.19.51.88.88,0,0,1-.39-.16h0c.12.09.38.15.22.51s-.3.14-.47.11l-.18-.07a2.37,2.37,0,0,1,.35.19c.16.14-.19.61-.5.57s-.66-.3-.76-.27h-.4a2.47,2.47,0,0,1-1.08-.16l-.63-.29a6.26,6.26,0,0,1-1-.64C297.36,159.72,297.78,159.6,297.7,159Z"/><path class="cls-3" d="M297.13,161.2l1.38-2.72s-6.8-4.34-9.29-6.85-5.16-7.61-7.06-7.93-3.8.73-2.7,3.37,6.65,6.12,7.78,7.29S296,160.53,297.13,161.2Z"/><path class="cls-6" d="M293.64,109.18c.82-.22,3.44-1.14,4.74,3.77,1.26,4.67,2.38,10.93,2.38,10.93s-4.29-4.69-7.26-8.51C290.39,111.39,292.88,109.58,293.64,109.18Z"/><path class="cls-5" d="M297.32,113.35l4,5.47a33.44,33.44,0,0,1,3.13,5.24l15.06,31.13-18.3-26.47a34.16,34.16,0,0,1-4.67-9.76l-1.26-4.28A5.81,5.81,0,0,0,297.32,113.35Z"/><path class="cls-6" d="M301.49,124.39s4.39-8.32,2.25-14.44-7.5,4.17-7.5,4.17Z"/><path class="cls-6" d="M301.55,124.34s-9.31-1.32-13-6.63,7.78-3.63,7.78-3.63Z"/><path class="cls-8" d="M305.17,137.22c.12,0,1.52-.39,1.62-.42s-.61-1.18-.61-1.18c0-.29,1.18-.37,1.43-.51.77-.39.46-.87.12-.77a8.91,8.91,0,0,0-1,.33,3.48,3.48,0,0,1-.79.09,5.76,5.76,0,0,0-1,.68,2,2,0,0,0-.38,1C304.6,137,304.91,137.33,305.17,137.22Z"/><path class="cls-5" d="M313.35,299.34l.46,48.59c0,2.51.74,4,4.36,4.45,4.48.57,5.83-.22,6.5-1.45,1.25-2.32,13.48-48.75,15.5-51.9S313.35,299.34,313.35,299.34Z"/><path class="cls-7" d="M358.77,282.61a5.47,5.47,0,0,1,5.37,4.21,26.24,26.24,0,0,1,.62,5.66,14.62,14.62,0,0,1-.87,6.07,5.36,5.36,0,0,1-4.71,3.06c-9.86.35-45.38,1.75-52.78,3.48-8.62,2-37.5,14.85-37.5,14.85L274.4,255s26.53,21.5,43.34,24.85C330.87,282.44,350.67,282.65,358.77,282.61Z"/><path class="cls-3" d="M340.71,302.38c-3.67.18-7.5.37-11.26.58,2.36-7.6,1.43-16.3.24-21.49,3.75.35,7.59.6,11.27.78A39.58,39.58,0,0,1,340.71,302.38Z"/><path class="cls-1" d="M240.72,285.3c-.18,23.48,11,42.6,25,42.72s25.47-18.84,25.65-42.32-11-42.63-25-42.71S240.87,261.82,240.72,285.3Z"/><path class="cls-5" d="M242.61,285.32c-.16,20,9.35,36.23,21.24,36.33s21.67-16,21.82-36-9.35-36.25-21.25-36.34S242.8,265.34,242.61,285.32Z"/><path class="cls-6" d="M268.7,289c-.51-7.12,4.14-13.24,10.4-13.7a10.27,10.27,0,0,1,5.95,1.48,58.69,58.69,0,0,1,.62,8.89,57.68,57.68,0,0,1-2,14.78,10.07,10.07,0,0,1-2.71.62C274.69,301.51,269.21,296.11,268.7,289Z"/><path class="cls-8" d="M306.27,263a3.3,3.3,0,0,0-.28-2.16c.37.05.92.11.89-.1s-.11-.71.1-.67a1.52,1.52,0,0,1,.54.27,2.44,2.44,0,0,0,1.27.31c.15.5.57,1.26.3,1.8-.14.27-.88.15-1.21.27A5.5,5.5,0,0,1,306.27,263Z"/><path class="cls-4" d="M316.66,240.08A16.54,16.54,0,0,1,324,241.9l-2,8.59a9.09,9.09,0,0,0-4.82-1.06Z"/><path class="cls-7" d="M318.73,244.59c0-1.44-.11-2.89-.14-4.3a12.52,12.52,0,0,0-1.93-.21l.58,9.35c.81-1.22,1.19-1,1.35-1.11C318.58,247.09,318.74,245.81,318.73,244.59Z"/><path class="cls-4" d="M299.63,240.52s11.19-4.4,18.53-2.89l.48,10.7s-6.51-1.43-15.52,2.52Z"/><rect class="cls-5" x="303.54" y="239.77" width="0.96" height="26.84" transform="translate(-66.23 113.74) rotate(-19.15)"/><path class="cls-3" d="M308.22,263.07v-3s9,.06,12.84-1,8.87-5.55,10.89-4.81,3.31,2.78.81,4.76-8.48,3.68-11.06,4.07C319.91,263.29,309.64,263.07,308.22,263.07Z"/><path class="cls-11" d="M323.35,261.17c3.2-1.33,6.21-4.21,8.78-6.9,1.93.78,3.07,2.77.63,4.68s-8.48,3.68-11.06,4.07c-.88.14-3.85.15-6.74.13A29.59,29.59,0,0,0,323.35,261.17Z"/><path class="cls-5" d="M323.44,298.18s1.76,2.89,1.5,3.53-6.41,4.24-7.23,4-1-1.26.11-2.24,1.93-1.14,2.62-2,0-2.68,0-2.68Z"/><path class="cls-5" d="M333.75,274a3.84,3.84,0,0,1-2.52.84c-1.3-.17-14,1.14-15.25,2.22s4,22.47,4,22.47l4.4-.74s-1.58-15.65-1.31-15.75,6.9-.09,18.23-.09c2.77,0,5.85-5.78,2.35-9.87Z"/><path class="cls-8" d="M331.79,250.13a5.19,5.19,0,0,0,1.18-.74c.17,1.3.66,3.7,2,5a9.89,9.89,0,0,1-5,.64,16.52,16.52,0,0,0-.2-4.55A4.41,4.41,0,0,0,331.79,250.13Z"/><path class="cls-9" d="M333.12,253.85a3.28,3.28,0,0,0-3.15-2.19,5.11,5.11,0,0,0-.21-1.23,4.41,4.41,0,0,0,2-.3,5.19,5.19,0,0,0,1.18-.74c.17,1.3.66,3.7,2,5a10.12,10.12,0,0,1-1.62.5A4.26,4.26,0,0,0,333.12,253.85Z"/><path class="cls-8" d="M332.57,242.72s-3.25-1-4.27-.38a4.67,4.67,0,0,0-1.65,3.86c.19,1.17-1.17,2.54-1.2,3s1,.59,1.06.72.08,2.28,1.51,2.64c2,.5,4.67-1.09,5.6-2.31S335.62,243.45,332.57,242.72Z"/><path class="cls-5" d="M326.53,242.86a4.58,4.58,0,0,0,.72-.67,3,3,0,0,1,.24-.56c.36-.53.44-.91,1.93-1.38a4.62,4.62,0,0,1,3.92.89,3.91,3.91,0,0,1,1,1.1c.07.12.29.47.24.6s-.55.28-.7.37a7,7,0,0,0-.73.59c-1.48,1.2-3.79,2.49-5.43.83a8,8,0,0,1-.6-.71,4.35,4.35,0,0,0-.46,2.15,2,2,0,0,1-.65-1A2.18,2.18,0,0,1,326.53,242.86Z"/><path class="cls-5" d="M333.38,242.76a2.64,2.64,0,0,1,1.55,0,1.84,1.84,0,0,1,1.45,1.63,7.06,7.06,0,0,1,.15,1.52,5.87,5.87,0,0,1-.37,2.31,5.59,5.59,0,0,1-1.36,2.15c-.58.52-1.7,1.12-2.26.89a4.19,4.19,0,0,1-.47-2.06c.05-.39.25-.39.55-.57.51-.29,1.09-.87.72-1.5-.54-.89-1.54-.48-1.93.75,0,0-.39.7-.62.59S329.6,244.8,333.38,242.76Z"/><path class="cls-9" d="M333,247.21a.82.82,0,0,0-1,.25c-.4.45-.21,1.18.17.91s.23-.51.3-.74A.71.71,0,0,1,333,247.21Z"/><path class="cls-3" d="M345.22,272.79s-4.58,3.55-14.08,1.92a21,21,0,0,0-.77-5.39,50.28,50.28,0,0,1-2-10.59,5.79,5.79,0,0,1,1.65-4.49s1.79,1.66,4.44-.51a11.65,11.65,0,0,1,7.4,6.92A61.62,61.62,0,0,1,345.22,272.79Z"/><path class="cls-11" d="M333.78,258.23c2.46,2.64.09,9.16-3,12.81a15.58,15.58,0,0,0-.39-1.67c-.42-1.41-1-3.52-1.36-5.6a4.94,4.94,0,0,0,2-2.36C332,259.1,332.57,257.51,333.78,258.23Z"/><path class="cls-8" d="M313.91,276.45a2.41,2.41,0,0,1-1.15.6,1.35,1.35,0,0,0-.59.14,2.61,2.61,0,0,1-.66.24,1.33,1.33,0,0,0-.62.3c-.19.22.18.29.42.3s1-.45,1.19-.26-.68.7-.86.8c-.43.23-.75,0-1.18.06-.26,0-.37.08-.19.31s.38.19.59.21a2.61,2.61,0,0,0,1.26-.22,3,3,0,0,1-1.16.32c-.23,0-1.21-.08-1.21.28,0,.73,2.18.27,2.49,0a3.75,3.75,0,0,1-1.14.39c-.23.05-.79.15-.48.46s1.53-.3,2.07-.54a4.2,4.2,0,0,1-1,.59c-.45.24-.11.49.39.32a6.29,6.29,0,0,0,.7-.32,4,4,0,0,0,1.73-1.83c.17-.31.81-.71.75-1C315.13,277,314.33,276.78,313.91,276.45Z"/><path class="cls-3" d="M313.24,276l1.84,2.49s11.77-5.09,12.83-6.44a67.2,67.2,0,0,0,5.06-7.59c1.26-3.06,2.81-6.69,0-7.32-1.53-.35-2.52,0-3.48,2.29a60.71,60.71,0,0,1-5.17,9.42C323.89,269.44,313.24,276,313.24,276Z"/><path class="cls-8" d="M305,260.88c-.16.26.3,1.4.73,1.88a.83.83,0,0,0,1.09.08c.37-.22.81-.3.87-.52.08-.85-.71-.2-1.06-.09,0,0,1-.46,1-.87,0-.77-1.2.12-1.53.27a2.13,2.13,0,0,0,.91-.6.31.31,0,0,0,0-.44h0c-.26-.24-1.26.48-1.26.48.19-.13.91-.4.62-.73s-.48,0-.66,0A1.15,1.15,0,0,0,305,260.88Z"/><path class="cls-8" d="M307.19,260.85l-.32-.1h0c0-.29-1.15-.37-1.4-.49-.73-.39-.43-.86-.1-.75s.75.23,1,.31a3.22,3.22,0,0,0,.76.09,6.29,6.29,0,0,1,1,.66C308.42,260.81,307.59,261,307.19,260.85Z"/><path class="cls-4" d="M224.88,269.52c-.25.67,1.93,2.08,4.91,3.17s5.54,1.43,5.78.76-1.93-2.08-4.91-3.17S225.12,268.86,224.88,269.52Z"/><path class="cls-4" d="M230.28,256.22c-.29.66,1.83,2.2,4.71,3.45s5.46,1.73,5.78,1.09-1.83-2.19-4.72-3.44S230.54,255.59,230.28,256.22Z"/><path class="cls-4" d="M226.28,305c.2.67,2.81.47,5.78-.47s5.27-2.23,5.07-2.89-2.83-.47-5.83.47S226.07,304.34,226.28,305Z"/><path class="cls-4" d="M231.74,319.41c.26.65,2.84.23,5.78-1s5.08-2.66,4.82-3.31-2.89-.23-5.78,1S231.48,318.75,231.74,319.41Z"/><path class="cls-4" d="M223.25,287.44c0,.7,2.61,1.14,5.78,1s5.65-.87,5.61-1.58-2.61-1.14-5.78-1S223.21,286.73,223.25,287.44Z"/><polygon class="cls-5" points="353.86 304.4 353.33 303.07 331.13 302.99 331.64 304.34 353.86 304.4"/><polygon class="cls-5" points="356.69 311.54 356.15 310.18 333.82 310.21 334.33 311.58 356.69 311.54"/><polygon class="cls-5" points="350.36 297.3 349.83 295.97 327.63 295.8 328.13 297.14 350.36 297.3"/><polygon class="cls-5" points="359.57 318.79 359.02 317.41 336.54 317.55 337.06 318.95 359.57 318.79"/><polygon class="cls-5" points="362.49 326.17 361.94 324.76 339.31 325.01 339.84 326.44 362.49 326.17"/><polygon class="cls-5" points="365.48 333.67 364.91 332.24 342.13 332.6 342.67 334.06 365.48 333.67"/><polygon class="cls-5" points="368.5 341.3 367.92 339.85 345 340.34 345.55 341.8 368.5 341.3"/><path class="cls-5" d="M348.75,353.08h.11a1,1,0,0,0,1-.9,1,1,0,0,0-.06-.41L328.3,294a1.07,1.07,0,0,0-1-.66h0a1,1,0,0,0-1,.94,1.15,1.15,0,0,0,0,.26l21.42,57.93A1.05,1.05,0,0,0,348.75,353.08Z"/><path class="cls-5" d="M371.26,353.08h.11a1,1,0,0,0,1-.9,1,1,0,0,0-.06-.41L350.81,294a1,1,0,0,0-1-.66h0a1,1,0,0,0-1,.94,1.15,1.15,0,0,0,0,.26l21.42,57.93A1.05,1.05,0,0,0,371.26,353.08Z"/><path class="cls-3" d="M188.49,222.71s-2.34,8.44-3.49,9.82-4.91,3.42-4.91,3.42l1,1.76s6.83-3.48,8-6.33a21,21,0,0,0,1.39-4.37c.18-1,1-3.64.57-4.68a1.49,1.49,0,0,0-2.53.38Z"/><path class="cls-12" d="M188.49,222.71s-2.34,8.44-3.49,9.82-4.91,3.42-4.91,3.42l1,1.76s6.83-3.48,8-6.33a21,21,0,0,0,1.39-4.37c.18-1,1-3.64.57-4.68a1.49,1.49,0,0,0-2.53.38Z"/><path class="cls-5" d="M165.05,263l-1.72-1.62s-6.9-.52-7.3.09,6.54,3.85,7.42,3.85S164.93,263.66,165.05,263Z"/><path class="cls-8" d="M177.69,239.67s-6.52-1.66-7.06-.59-7.3,22.29-7.3,22.29l1.72,1.6s7.25-17.91,9.36-19.79S178.66,240.41,177.69,239.67Z"/><path class="cls-9" d="M177.69,239.67s-6.52-1.66-7.06-.59-7.3,22.29-7.3,22.29l1.72,1.6s7.25-17.91,9.36-19.79S178.66,240.41,177.69,239.67Z"/><path class="cls-8" d="M181.05,235.75a6.12,6.12,0,0,1-1.36-.54,1.73,1.73,0,0,0-1.14-.32c-.31,0-2.83,1.08-2.15,1.55.21.15.75-.12,1-.19s.61-.25.91-.4c-.26,0-1.62.57-1.48.88.25.56,1.62-.19,1.93-.37-.24,0-1.09.36-1.09.68,0,.48,1,.07,1.22,0a2,2,0,0,1,.47-.23,2.12,2.12,0,0,1,.61.11,3.2,3.2,0,0,0,1.07,0c.2,0,.69,0,.8-.15a.8.8,0,0,0-.13-.76A1.61,1.61,0,0,0,181.05,235.75Z"/><path class="cls-9" d="M181.05,235.75a6.12,6.12,0,0,1-1.36-.54,1.73,1.73,0,0,0-1.14-.32c-.31,0-2.83,1.08-2.15,1.55.21.15.75-.12,1-.19s.61-.25.91-.4c-.26,0-1.62.57-1.48.88.25.56,1.62-.19,1.93-.37-.24,0-1.09.36-1.09.68,0,.48,1,.07,1.22,0a2,2,0,0,1,.47-.23,2.12,2.12,0,0,1,.61.11,3.2,3.2,0,0,0,1.07,0c.2,0,.69,0,.8-.15a.8.8,0,0,0-.13-.76A1.61,1.61,0,0,0,181.05,235.75Z"/><polygon class="cls-5" points="169.75 224.49 168.22 225.11 173.49 237.83 175.04 236.99 169.75 224.49"/><rect class="cls-5" x="174.48" y="236.77" width="10.03" height="1.56"/><path class="cls-5" d="M202.25,229.52c-1.34-.77-1.57-1.62-.82-4.42a5.91,5.91,0,0,0-3.07-6.49c-1.38-.57-2.58-.82-3.42-2.28s.74-4.59-1.93-6.9c-1.92-1.68-4.7-.35-4.7-.35-.6-.32-.84,3.15-.88,5.78,3.36,5.09,2.39,11.83,1.2,17.55a2.91,2.91,0,0,1-.12.39c.26,4.45.48,8.13.48,8.13s8,4.56,13.53.65S204.94,231.05,202.25,229.52Z"/><path class="cls-5" d="M178.56,261.94l-2.05,1.18s-2.5,6.44-2,7,5.64-5.11,5.84-6S179.16,262.24,178.56,261.94Z"/><path class="cls-8" d="M181.16,239.28s-13.15,1-14.37,2.1S176.72,263,176.72,263l1.83-1.05s-2.77-9.72-3.48-12-2.1-5-1.84-5.32,13.48,1.64,13.4-2.1S181.16,239.28,181.16,239.28Z"/><path class="cls-8" d="M187.65,217.11s1.37,3.76.54,6.56l4.6-1.11s-1.93-6.29-2.69-7.37S187.65,217.11,187.65,217.11Z"/><path class="cls-9" d="M189.56,220.49a2.28,2.28,0,0,1,2.36,2.2v.08l.87-.21s-1.93-6.29-2.69-7.37-2.45,1.93-2.45,1.93a15.61,15.61,0,0,1,.77,3.65A2.53,2.53,0,0,1,189.56,220.49Z"/><path class="cls-8" d="M187.18,212.24a7,7,0,0,0-2.22,1.57c-.43.73-.06,1.73-.1,2.38a12.08,12.08,0,0,0-.11,1.8c.09.16.76,0,.87.14s1,.67,1.22,1.28.62.66,1.25.36,3-3.45,3-4.94S188.94,211.61,187.18,212.24Z"/><path class="cls-5" d="M188.69,210.21a12.19,12.19,0,0,0-1,2.33,5.52,5.52,0,0,0,1,2.89c.37.26.06-2.18,1-1.43s-.06,2.15,0,2.44a1.75,1.75,0,0,0,1.47,1.29c1,.09,2.6-4.81,1.53-6A5.51,5.51,0,0,0,188.69,210.21Z"/><path class="cls-5" d="M188.86,209.23a2.67,2.67,0,0,0-3.22.14c-1.63,1.32-1.58,3.32-2.93,3.14,0,0,.89,2.31,2.89,1.76S189.53,210.61,188.86,209.23Z"/><path class="cls-5" d="M194.21,235.24l-6.1-.46s-3.17,3.55-6.31,3.55H171.09a20.25,20.25,0,0,0,3.16,8.42s10.18.32,15.14-.08S199.06,240.78,194.21,235.24Z"/><path class="cls-13" d="M173.92,239c1.55-.15,3.07-.52,4.59-.71h-6.75C172.49,238.66,172.78,239.15,173.92,239Z"/><path class="cls-3" d="M192.2,220.43a24.67,24.67,0,0,1-3.74,1.2s-2,4.36-2.74,5.53,1.93,5.68,2.09,7.62c0,0,1.64,1.56,6.57.6C194.38,235.36,195.67,223.17,192.2,220.43Z"/><path class="cls-12" d="M193,223a2.35,2.35,0,0,0-2.76.87c-.52,1.06,0,2.95,0,4.1a22.27,22.27,0,0,1-.45,4,8.22,8.22,0,0,1-1.61,3c.63.39,2.47,1.15,6.3.41,0,0,.79-7.45-.52-12A7.8,7.8,0,0,1,193,223Z"/><path class="cls-8" d="M182,235.75a5.68,5.68,0,0,1-1.36-.54,1.74,1.74,0,0,0-1.15-.32c-.31,0-2.81,1.08-2.15,1.55.22.15.76-.12,1-.19s.62-.26.92-.4c-.27,0-1.63.57-1.48.88.25.56,1.62-.19,1.92-.37-.25,0-1.1.36-1.1.68,0,.48,1,.07,1.24,0a1.65,1.65,0,0,1,.46-.23,2.12,2.12,0,0,1,.61.11,3.2,3.2,0,0,0,1.07,0c.21,0,.7,0,.79-.15a.75.75,0,0,0-.13-.76A1.47,1.47,0,0,0,182,235.75Z"/><path class="cls-3" d="M181.59,235.69l.54,2s13.19-1.53,13.48-3.85-.53-13.24-3.72-12.11,0,9-.53,9.63S181.59,235.69,181.59,235.69Z"/><path class="cls-3" d="M339.78,162.86A22,22,0,0,0,333,166c-2.89,2.16-5.94,8.84-6.52,13.49s-1.78,8.35,0,10.75,7.54,2.89,12.52,3.37,11.79-.71,13.16-2.43,1.28-14.78-1.31-19.7S343.56,162.76,339.78,162.86Z"/><path class="cls-11" d="M346.39,190.94a8.79,8.79,0,0,1-2.84-1.37,6.6,6.6,0,0,0-5-1.87c-2,0-3.95,0-5.67-1.12a5.2,5.2,0,0,1-2-5.07,8,8,0,0,1,1.46-3.4,4.65,4.65,0,0,0,1-4.45,12.12,12.12,0,0,1,.11-6.38,5.82,5.82,0,0,1,2-2.73A16.11,16.11,0,0,0,333,166c-2.89,2.16-5.93,8.84-6.52,13.49s-1.78,8.35,0,10.75,7.54,2.89,12.52,3.37,11.79-.71,13.17-2.43a5,5,0,0,0,.62-2.15C351.05,190.76,348.82,191.75,346.39,190.94Z"/><path class="cls-3" d="M339.25,163.83s-4.17-1-4.73-4.17,1.09-4.23,2.36-3.51,1.47.34,2.37-.21,2.18.33,2.82,1.26.77-.16,2.3-.28,2.07,1.29,1.26,3.15S344.06,163.91,339.25,163.83Z"/><path class="cls-11" d="M343.76,162.05c-1.08.28-.45-1.1-.62-1.6-.28,0-.38.49-.48.69a1.25,1.25,0,0,1-1.15.73c-.67,0-.76-.74-1.05-1.19-.12-.2-.18-.19-.25,0s0,.54-.24.74c-.43.36-1.14-.05-1.48-.34s-.51-.84-.91-1.15a.57.57,0,0,0-.11.28c-.1.45-.07,1.31-.81,1.16s-1.05-1.16-1.25-1.69a5.79,5.79,0,0,1-.45-1.92A5.69,5.69,0,0,1,335,157a2,2,0,0,1,.16-.64h0c-.6.53-1,1.64-.65,3.37.48,2.69,3.56,3.86,4.47,4.1a1.61,1.61,0,0,0,.49.07c3.8,0,5-1.31,5.71-2.8h0A6.66,6.66,0,0,1,343.76,162.05Z"/><path class="cls-4" d="M341,173.19c2,.2,3.85,1.12,3.85,3.17l-3.41-.07c0-.77-.78-1-1.29-1-.3,0-1.32,0-1.32.59,0,1.4,6.27.06,6.2,4,0,2.37-1.93,3.23-4.2,3.35l.1,2.52h-2.08l.18-2.53C337,183,335,182,335,179.85l3.41.06V180c0,1,1.05,1.14,1.58,1.15s1.53,0,1.54-.69c0-1.45-6.27-.24-6.2-4.07,0-2.21,1.76-3,3.85-3.17l-.09-2.58h2.08Z"/><path class="cls-5" d="M336.23,162.33l-.38,2s1.06,1,4,1a8.76,8.76,0,0,0,4.46-1l-.19-1.8A16.29,16.29,0,0,1,336.23,162.33Z"/><polygon class="cls-14" points="373.11 112.02 370.42 112.02 370.42 109.32 368.9 109.32 368.9 112.02 366.2 112.02 366.2 113.53 368.9 113.53 368.9 116.22 370.42 116.22 370.42 113.53 373.11 113.53 373.11 112.02"/><polygon class="cls-14" points="267.59 139.13 264.89 139.13 264.89 136.43 263.38 136.43 263.38 139.13 260.69 139.13 260.69 140.64 263.38 140.64 263.38 143.34 264.89 143.34 264.89 140.64 267.59 140.64 267.59 139.13"/><polygon class="cls-14" points="392.19 159.04 389.5 159.04 389.5 156.34 387.98 156.34 387.98 159.04 385.28 159.04 385.28 160.56 387.98 160.56 387.98 163.25 389.5 163.25 389.5 160.56 392.19 160.56 392.19 159.04"/><polygon class="cls-14" points="400.08 231.89 397.39 231.89 397.39 229.2 395.88 229.2 395.88 231.89 393.18 231.89 393.18 233.41 395.88 233.41 395.88 236.1 397.39 236.1 397.39 233.41 400.08 233.41 400.08 231.89"/><polygon class="cls-14" points="302.61 94.51 299.91 94.51 299.91 91.81 298.4 91.81 298.4 94.51 295.7 94.51 295.7 96.02 298.4 96.02 298.4 98.72 299.91 98.72 299.91 96.02 302.61 96.02 302.61 94.51"/><polygon class="cls-14" points="126.14 210.79 123.45 210.79 123.45 208.09 121.93 208.09 121.93 210.79 119.24 210.79 119.24 212.3 121.93 212.3 121.93 215 123.45 215 123.45 212.3 126.14 212.3 126.14 210.79"/><path class="cls-4" d="M163.82,296.1c11.31,5.4,8.67,4.51,10.46,5s12.65,1.17,12.65,1.17l1.2,4.64s-13.19-.72-15-1.13-9.36-3.29-9.36-3.29Z"/><path class="cls-1" d="M182,302.57a1.91,1.91,0,0,1-1.77,1,45.31,45.31,0,0,1-5.34-.35,15,15,0,0,1-3-.58,38.78,38.78,0,0,1-5.21-1.93,24.46,24.46,0,0,0-2.89-1v2.76s7.57,2.89,9.36,3.29,15,1.13,15,1.13l-1.17-4.57C185.32,302.47,183.66,302.56,182,302.57Z"/><path class="cls-5" d="M162.24,350.83a9.63,9.63,0,0,0-.48,2.49c0,1.08.06,2.23.4,2.5.67.54,9.06.62,9.74-.16s.22-2-1.55-2.47a24,24,0,0,1-3.37-.72,1.56,1.56,0,0,1-.91-1.8Z"/><path class="cls-5" d="M143.83,349.26a10.53,10.53,0,0,0-1.34,2.14c-.38,1-.72,2.12-.51,2.49.43.75,8.24,3.8,9.15,3.32s1-1.82-.56-2.89a29.2,29.2,0,0,1-2.89-1.88,1.58,1.58,0,0,1-.22-2Z"/><path class="cls-5" d="M162.18,315.17l-11.31,1.26s10.12,16.16,10.89,18.76-.29,16.71-.29,16.71h5.12s1.1-16.67.85-17.92S162.18,315.17,162.18,315.17Z"/><path class="cls-5" d="M161.76,316H148.85s-1.51,3.95-.82,7a67.31,67.31,0,0,1,1.09,10.59c-.07,1.13-6.37,16.21-6.37,16.21l4.7,1.75s6.49-14.37,7.11-16S161.76,316,161.76,316Z"/><path class="cls-8" d="M161.21,289.3a11.65,11.65,0,0,1-3.12-.25,4.32,4.32,0,0,1-1.06-.38c-.11,1.3-.47,4.33-1.54,5.47,0,0,.14,1.52,2.82,1.93s3.24-1.61,3.24-1.61A26.24,26.24,0,0,1,161.21,289.3Z"/><path class="cls-9" d="M155.5,294.2a.21.21,0,0,0,0,.11h0a.25.25,0,0,0,.06.16h0l.12.2h0a2.46,2.46,0,0,0,.43.48h0a2.54,2.54,0,0,0,.34.23h.06a3.17,3.17,0,0,0,.45.23,3.84,3.84,0,0,1,1.08-1.69,4.78,4.78,0,0,1,3.25-1.38,18.34,18.34,0,0,1-.1-3.23,11.65,11.65,0,0,1-3.12-.25,4.32,4.32,0,0,1-1.06-.38c-.11,1.3-.47,4.33-1.54,5.47h0Z"/><path class="cls-8" d="M156.85,281.59s4.49-1.11,5.16,0,.44,2.83.7,3.6,1.32,1.64,1.43,1.93-.78.86-.91,1.09-.69,2.72-1.48,3.24-4.82-1.14-5.78-3.14S155.64,282.18,156.85,281.59Z"/><path class="cls-4" d="M161.55,294s-3.15,1.57-5.72-.32c0,0-4.87.86-5.47,1.1s.81,7.14.24,10.59-2.82,11.94-2.82,11.94,6,4.58,16.2,1.69c0,0,.34-11.85.23-15.13-.16-4.82-.19-7.7-.19-7.7A28.19,28.19,0,0,0,161.55,294Z"/><path class="cls-1" d="M154.09,313.16a13.32,13.32,0,0,1-.44-5.51c.35-2.06-1.12-4.75-1.4-6.84s-.52-3.75-2-5c.09,2.1.78,6.87.33,9.56-.56,3.49-2.82,11.94-2.82,11.94s3.79,2.89,10.49,2.63C155.63,318.36,154.83,316.2,154.09,313.16Z"/><path class="cls-5" d="M158.79,282.22a4.52,4.52,0,0,1-.58,2.27c-.29.52,1,2,.58,2.61-.27.42-.63.29-.9-.57a1.37,1.37,0,0,0-.7-.64c-1.06-.52-1.39,1.12-.44,1.65.66.38.18,2.08.18,2.08-.75.53-3.14-.26-2.79-2,.22-1.11.32-1.53-.07-1.83a1.93,1.93,0,0,1-.66-2.64,2.2,2.2,0,0,1,.33-.41c1.69-1.53.24-2.11,2.13-2.49S159.25,281.07,158.79,282.22Z"/><path class="cls-5" d="M155.53,281.13c.12-.4.88-.9,1.26-1.15a5.37,5.37,0,0,1,1.92-.78,5.14,5.14,0,0,1,2.14,0,17.09,17.09,0,0,0,1.72.53,1.89,1.89,0,0,0,1.55-.23,4.17,4.17,0,0,1,0,1.41,4.65,4.65,0,0,1-.87,1.51,4.59,4.59,0,0,1-5.13,1.14,3.57,3.57,0,0,1-1.93-1.46A4.26,4.26,0,0,0,155.53,281.13Z"/><path class="cls-4" d="M144.12,344.3a5,5,0,0,1-1.15.2h-.5a5,5,0,0,1-2.08-.19,3.51,3.51,0,0,1-2.35-3,5.38,5.38,0,0,1,1.06-4.26,5.79,5.79,0,0,1,1.48-1.31l.16-.11a4.81,4.81,0,0,0,1.41-2.21l0-.14c.14-.35.26-.69.37-1s.16-.5.25-.75c1.22-3.34,4.82-4.73,7.52-5.29l.12.54c-2.62.54-6,1.84-7.12,4.95-.09.24-.17.48-.25.72s-.23.71-.38,1.08l-.05.13a5.22,5.22,0,0,1-1.6,2.45l-.17.12a5.18,5.18,0,0,0-1.34,1.26,4.84,4.84,0,0,0-1,3.85,3,3,0,0,0,2,2.58,4.23,4.23,0,0,0,1.84.14h.51a6.21,6.21,0,0,0,3-1.12,13.33,13.33,0,0,1,1.76-.91,5.42,5.42,0,0,0,3.09-3.1l0-.11a15.15,15.15,0,0,1,3.34-5.28l.25-.23c1.23-1.19,2-1.93,2.19-3.69a4.76,4.76,0,0,0-1.43-4.1,2.37,2.37,0,0,0-2.41-.17l-.21-.51a2.9,2.9,0,0,1,2.95.24c1.32,1,1.79,3.06,1.65,4.58-.17,1.93-1.13,2.89-2.37,4l-.24.24a14.74,14.74,0,0,0-3.21,5.11l-.05.11a6,6,0,0,1-3.39,3.39,10.74,10.74,0,0,0-1.69.86A8.61,8.61,0,0,1,144.12,344.3Z"/><path class="cls-3" d="M194.85,300l-39.66,11.56a5.82,5.82,0,0,0-2.95,2l-5,6.22a5.86,5.86,0,0,0-1,5.29l.72,2.46a5.87,5.87,0,0,0,3.71,3.85l7.52,2.59a5.82,5.82,0,0,0,3.55.09l39.67-11.56a5.85,5.85,0,0,0,4-7.25h0l-3.28-11.27A5.85,5.85,0,0,0,194.85,300Zm-36,25.65a3.62,3.62,0,0,1-6.27-3.45,2.07,2.07,0,0,1,.42-.77,3.61,3.61,0,0,1,6.27,3.45A2.07,2.07,0,0,1,158.87,325.62Z"/><path class="cls-4" d="M165.92,325.69l-1.75-9.64,2.37-.69a6.42,6.42,0,0,1,1-.2,2.82,2.82,0,0,1,.82,0,1.57,1.57,0,0,1,1.22.87,3,3,0,0,1,.21.54,3.43,3.43,0,0,1,.11.46,2,2,0,0,1-1,2.37,1.73,1.73,0,0,1,2,1.43v0a2.32,2.32,0,0,0,.1.42,3.16,3.16,0,0,1-.31,2.33,3.24,3.24,0,0,1-1.93,1.3Zm1.64-1.93.53-.16a1.46,1.46,0,0,0,1-.65,2,2,0,0,0,.07-1.22,2.74,2.74,0,0,0-.09-.39,1.33,1.33,0,0,0-.43-.74,1.24,1.24,0,0,0-1.11-.07l-.48.15Zm-.8-4.4.47-.15a1.37,1.37,0,0,0,1-.6,1.86,1.86,0,0,0,.07-1.14v-.22a.87.87,0,0,0-.46-.62,1.85,1.85,0,0,0-1.14.06l-.28.08Z"/><path class="cls-4" d="M172.54,323.77l-1.76-9.63,2.34-.69a7.7,7.7,0,0,1,1.06-.23,3.32,3.32,0,0,1,.89,0,1.87,1.87,0,0,1,.72.28,1.76,1.76,0,0,1,.52.63,2.25,2.25,0,0,1,.22.56,3.15,3.15,0,0,1,.11.44,3.51,3.51,0,0,1,0,1.58,2.27,2.27,0,0,1-.75,1.15l2.23,4.31-1.86.54-1.92-4-.69.21.79,4.37Zm.86-6.1.46-.13a1.47,1.47,0,0,0,1-.63,1.78,1.78,0,0,0,.1-1.16.55.55,0,0,0-.07-.34,1.27,1.27,0,0,0-.38-.65,1.05,1.05,0,0,0-1-.06l-.57.17Z"/><path class="cls-4" d="M178.65,322l.11-10.21,2-.6,3.59,9.14-1.74.5-.74-2.05-1.51.43v2.27Zm1.7-4,1.14-.34-1.3-3.7Z"/><path class="cls-4" d="M185.31,320l-1.76-9.63,1.31-.39,3.06,4.49-1-5.1,1.56-.45,1.75,9.63-1.24.35-3.14-4.81,1,5.41Z"/><path class="cls-4" d="M191.68,318.19l-1.74-9.63,2.26-.66a5.34,5.34,0,0,1,1.48-.3,1.83,1.83,0,0,1,1,.28,1.79,1.79,0,0,1,.66.78,4.49,4.49,0,0,1,.23.61,6,6,0,0,1,.17.73l.63,3.48a4.9,4.9,0,0,1,0,1.87,2.19,2.19,0,0,1-.75,1.28,4.37,4.37,0,0,1-1.73.88Zm1.64-1.92.4-.12a1.84,1.84,0,0,0,.41-.16,1.67,1.67,0,0,0,.28-.18.51.51,0,0,0,.16-.24,2.68,2.68,0,0,0,.07-.27.91.91,0,0,0,0-.33v-.38a1,1,0,0,0-.08-.44l-.68-3.86a1.93,1.93,0,0,0-.13-.55l-.07-.22a.59.59,0,0,0-.4-.38,1.49,1.49,0,0,0-.78.08l-.4.11Z"/><path class="cls-4" d="M156.23,325.71a2.48,2.48,0,0,1-.36.44,5.39,5.39,0,0,1,.76,3.35,5.18,5.18,0,0,1-.87,2.24,8.22,8.22,0,0,1-1,1.07l.51.24a9.62,9.62,0,0,0,.84-1,6.12,6.12,0,0,0,1-2.53A6,6,0,0,0,156.23,325.71Z"/><path class="cls-8" d="M190.18,301.71a2.54,2.54,0,0,0-2.89-.44c-.68.29-.72,1-.82,2.11a3,3,0,0,0,.1,1.65c.87.63.89-1.81,1-2.43,0,0-.34,2.58.11,2.8.86.4.82-2,.92-2.59a4.07,4.07,0,0,0-.06,1.77c0,.47.36.37.44.32.44-.26.44-2.21.44-2.21,0,.34-.27,1.61.29,1.35.36-.16.38-.72.46-1A1.88,1.88,0,0,0,190.18,301.71Z"/><path class="cls-8" d="M153,313.06c.89,0,1.93.13,2.89.13.42,0,.85-.05,1.26-.08s.79-.11,1,.19-.36.43-.56.47-1,0-1,.43,1,.74,1.43,1,1.43.54.75,1c-.46.26-1.42-.34-1.82-.49a5.78,5.78,0,0,1,1.43.6c.27.14.79.35.79.65s-1,.19-1.22.08a4.58,4.58,0,0,1-1.08-.6c.41.21,1.93.85,1.42,1.37-.3.32-1.47-.57-1.93-.76.25.23,1,.36,1,.86,0,.25-.48.05-.68-.06a9.45,9.45,0,0,0-.86-.54,4.31,4.31,0,0,1-.63-.42,7.63,7.63,0,0,1-1.47-1,17.43,17.43,0,0,0-1.28-1.3C153.22,314.16,152.37,313.52,153,313.06Z"/><path class="cls-4" d="M154.32,312.83l-1.25,2.89s-13-4.21-12.37-7.61c.53-3,8.08-13,9.73-13.37,2.21-.48,3.09,4.82,1.82,6.06-2.68,2.69-6.49,6.48-6.18,7.09S154.32,312.83,154.32,312.83Z"/><path class="cls-6" d="M103.56,240.63a9.59,9.59,0,0,0,0-2.83l-2.18-.35a7.56,7.56,0,0,0-.27-1l1.73-1.41a10.2,10.2,0,0,0-1.43-2.45l-2.07.8a9.51,9.51,0,0,0-.71-.71l.8-2.07A11,11,0,0,0,97,229.21L95.58,231a8.16,8.16,0,0,0-1-.26l-.33-2.19a10.13,10.13,0,0,0-2.84,0l-.34,2.19a7.53,7.53,0,0,0-1,.26l-1.45-1.74a10.55,10.55,0,0,0-2.45,1.43l.79,2.07a9.39,9.39,0,0,0-.7.71l-2.08-.8a10.51,10.51,0,0,0-1.42,2.45l1.73,1.41a7.56,7.56,0,0,0-.27,1l-2.19.35a9.59,9.59,0,0,0,0,2.83l2.19.35a8.62,8.62,0,0,0,.27,1l-1.73,1.4a10.65,10.65,0,0,0,1.42,2.44l2.08-.8c.22.25.46.49.7.72l-.79,2.08a11.38,11.38,0,0,0,2.45,1.45l1.4-1.73a9.65,9.65,0,0,0,1,.26l.34,2.19a11.3,11.3,0,0,0,1.42.1,11.17,11.17,0,0,0,1.42-.1l.34-2.19c.32-.07.64-.16,1-.26l1.4,1.73a11.14,11.14,0,0,0,2.45-1.43l-.8-2.08a9.63,9.63,0,0,0,.72-.71l2.07.8a10.51,10.51,0,0,0,1.42-2.45L101.06,242a8.21,8.21,0,0,0,.27-1Zm-10.72,4.26a5.68,5.68,0,1,1,5.67-5.69h0A5.69,5.69,0,0,1,92.84,244.89Z"/><path class="cls-5" d="M92.84,232.84a6.38,6.38,0,1,0,6.37,6.38h0A6.37,6.37,0,0,0,92.84,232.84Zm0,10.34a4,4,0,1,1,4-4h0a4,4,0,0,1-4,4Z"/><path class="cls-6" d="M384.5,140.5a10.32,10.32,0,0,0,0-2.83l-2.19-.35a7.56,7.56,0,0,0-.27-1l1.74-1.41a10.2,10.2,0,0,0-1.43-2.45l-2.08.8a7.93,7.93,0,0,0-.71-.71l.81-2.08a11.2,11.2,0,0,0-2.46-1.43l-1.39,1.74a6.62,6.62,0,0,0-1-.26l-.33-2.19a9.84,9.84,0,0,0-1.43-.11,9.69,9.69,0,0,0-1.42.1l-.34,2.19a8.16,8.16,0,0,0-1,.26l-1.4-1.74a11.14,11.14,0,0,0-2.45,1.43l.8,2.08a7.93,7.93,0,0,0-.71.71l-2.07-.8a10.2,10.2,0,0,0-1.43,2.45l1.74,1.41a7.56,7.56,0,0,0-.27,1l-2.19.35a9.59,9.59,0,0,0,0,2.83l2.19.34a8.21,8.21,0,0,0,.27,1l-1.74,1.4a10.2,10.2,0,0,0,1.43,2.45l2.07-.8a7.93,7.93,0,0,0,.71.71l-.8,2.08a11.14,11.14,0,0,0,2.45,1.43l1.4-1.73c.32.1.64.19,1,.26l.34,2.18a9.7,9.7,0,0,0,1.42.11,9.84,9.84,0,0,0,1.43-.11l.33-2.18c.33-.07.65-.16,1-.26l1.39,1.73a11.2,11.2,0,0,0,2.46-1.43l-.81-2.08a7.93,7.93,0,0,0,.71-.71l2.08.8a10.2,10.2,0,0,0,1.43-2.45L382,141.8a8.21,8.21,0,0,0,.27-1Zm-10.71,4.24a5.66,5.66,0,1,1,5.67-5.66,5.65,5.65,0,0,1-5.67,5.66Z"/><path class="cls-5" d="M373.79,132.71a6.38,6.38,0,1,0,6.36,6.39V139A6.38,6.38,0,0,0,373.79,132.71Zm0,10.33a4,4,0,1,1,3.95-4,4,4,0,0,1-3.95,4Z"/><path class="cls-3" d="M263.19,124.48a13.85,13.85,0,0,0,.62-1.42,12.14,12.14,0,0,0,.42-1.49l-2.12-1.15a10.4,10.4,0,0,0,.09-1.1l2.29-.8a11.27,11.27,0,0,0-.57-3l-2.42.06a7.1,7.1,0,0,0-.47-1l1.59-1.83a11.86,11.86,0,0,0-2-2.36l-2.07,1.26a9.88,9.88,0,0,0-.91-.64l.45-2.36a12.64,12.64,0,0,0-1.41-.63,12.82,12.82,0,0,0-1.5-.42l-1.14,2.12c-.37,0-.74-.07-1.11-.08l-.8-2.3a12,12,0,0,0-3,.57l.06,2.42a10.66,10.66,0,0,0-1,.47l-1.87-1.62a12.15,12.15,0,0,0-2.36,2l1.26,2.07c-.22.29-.43.59-.62.9l-2.37-.45a12,12,0,0,0-.63,1.42,11,11,0,0,0-.41,1.49l2.12,1.16a10,10,0,0,0-.09,1.09l-2.29.8a11.58,11.58,0,0,0,.56,3l2.43-.06a7,7,0,0,0,.46,1l-1.6,1.87a11.86,11.86,0,0,0,2,2.36l2.09-1.3a9.1,9.1,0,0,0,.9.63l-.45,2.37a10.52,10.52,0,0,0,1.42.62,9.59,9.59,0,0,0,1.48.42l1.16-2.11c.36,0,.73.07,1.1.08l.8,2.29a12,12,0,0,0,3-.56l0-2.39c.33-.14.65-.29,1-.46l1.83,1.58a12.52,12.52,0,0,0,2.37-2l-1.28-2.07a7.78,7.78,0,0,0,.64-.9Zm-12.52.41a6.17,6.17,0,1,1,7.89-3.73h0a6.18,6.18,0,0,1-7.9,3.73h0Z"/><path class="cls-5" d="M255.06,112.56a6.93,6.93,0,1,0,4.19,8.87,6.93,6.93,0,0,0-4.19-8.87Zm-3.8,10.59a4.32,4.32,0,1,1,5.52-2.62h0a4.31,4.31,0,0,1-5.51,2.61Z"/></g></svg>