<svg width="48" height="48" viewBox="0 0 48 48" fill="none" xmlns="http://www.w3.org/2000/svg">
<path d="M19.0564 34.2414C19.0564 34.2414 17.6165 35.1178 20.0586 35.3684C23.0076 35.7442 24.5668 35.6814 27.8224 35.0557C27.8224 35.0557 28.6988 35.6199 29.8886 36.0577C22.5621 39.1882 13.2954 35.8698 19.0564 34.2414ZM18.1172 30.1717C18.1172 30.1717 16.5516 31.3616 18.9936 31.6115C22.1863 31.9244 24.6919 31.9873 29.0123 31.1114C29.0123 31.1114 29.5764 31.7379 30.5151 32.0508C21.687 34.6805 11.7933 32.3008 18.1172 30.1723V30.1717ZM35.3991 37.3098C35.3991 37.3098 36.4633 38.1862 34.2092 38.8754C30.0137 40.1276 16.6145 40.5039 12.8575 38.8754C11.5433 38.3113 14.0474 37.4969 14.861 37.3726C15.6752 37.1848 16.1131 37.1848 16.1131 37.1848C14.6732 36.1828 6.53295 39.251 11.9805 40.1339C26.9454 42.5765 39.2811 39.0697 35.3985 37.3162L35.3991 37.3098ZM19.7451 25.9134C19.7451 25.9134 12.9197 27.5418 17.3024 28.1047C19.1809 28.3546 22.875 28.2926 26.319 28.0419C29.1368 27.7918 31.9609 27.2906 31.9609 27.2906C31.9609 27.2906 30.9587 27.7289 30.2702 28.1669C23.3141 29.9844 9.97701 29.1703 13.7968 27.2917C17.0536 25.7261 19.7451 25.9134 19.7451 25.9134ZM31.9543 32.7386C38.9681 29.1067 35.7113 25.6004 33.4571 26.039C32.8929 26.1641 32.643 26.2891 32.643 26.2891C32.643 26.2891 32.8307 25.9134 33.2693 25.7891C37.7147 24.2234 41.2217 30.4852 31.8294 32.9272C31.8294 32.9272 31.8923 32.8644 31.9543 32.7393V32.7386ZM20.4336 42.6311C27.1961 43.0696 37.5276 42.3809 37.7783 39.1869C37.7783 39.1869 37.2782 40.439 32.2058 41.3784C26.4454 42.4426 19.3065 42.3176 15.1117 41.6283C15.1117 41.6283 15.9881 42.3796 20.4341 42.6303L20.4336 42.6311Z" fill="#4E7896"/>
<path d="M27.6909 5.25C27.6909 5.25 31.5729 9.19478 23.9968 15.1424C17.9229 19.9635 22.6184 22.719 23.9968 25.8489C20.4277 22.6562 17.8614 19.8379 19.6136 17.208C22.187 13.328 29.2616 11.4496 27.6909 5.25ZM25.6874 23.2204C27.503 25.2866 25.1874 27.1652 25.1874 27.1652C25.1874 27.1652 29.8207 24.7866 27.6922 21.8426C25.7508 19.0249 24.2482 17.6472 32.3883 12.9504C32.3883 12.9504 19.5519 16.1432 25.6888 23.2191L25.6874 23.2204Z" fill="#F58219"/>
</svg>
