<svg id="_ëîé_1" data-name="‘ëîé_1" xmlns="http://www.w3.org/2000/svg" viewBox="0 0 3200 2000"><defs><style>.cls-1,.cls-4{fill:#9db0f4;}.cls-1,.cls-3{opacity:0.3;}.cls-2{fill:#2e3552;}.cls-5{fill:#f99746;}.cls-6{fill:#e27c30;}.cls-7{fill:#ffb27d;}.cls-8{fill:#233862;}.cls-9{fill:#ff9e55;}.cls-10{fill:#2a4e96;}.cls-11{fill:#ed975d;}.cls-12{fill:#fff;}.cls-13{fill:#e27830;}.cls-14{opacity:0.8;}.cls-15{opacity:0.4;}.cls-16{fill:#2b478b;}.cls-17{fill:#192e4f;}.cls-18{fill:#2c3a64;}.cls-19{fill:#ed985f;}.cls-20{opacity:0.5;}.cls-21{fill:#f8fcff;opacity:0.95;}.cls-22{fill:#82b378;}.cls-23{fill:#839de5;}</style></defs><path class="cls-1" d="M2996.6,1804.2l-1242.2-.58h-15.24l-108.71,0h-14l-103.73,0H1495l-144.54-.06-25.48,0-117.89,0h-32l-203.18-.1H936.33l-165.89-.08H745.92L385.61,1803S97.09,1409.69,206.47,1004.79c25.41-94,72.26-188.66,149.18-279.15a886.48,886.48,0,0,1,75.67-78.46c500.81-460.62,986.6-266.86,1056-266.86,334.59,0,253.75-211.19,624.26-243.5,783.6-68.34,667,653.49,667,653.52s-11.58,39.7-15.16,54.47q-7.77,32.06-11.78,60.56c-.74,5.16-1.4,10.24-1.94,15.24-4,35.61-3.79,67.2-.14,95.61,12.64,98.66,66.27,159,124.8,215.66,17.84,17.27,36.14,34.18,53.86,51.73,2.18,2.13,4.35,4.3,6.49,6.47q5.56,5.58,11,11.3a490.54,490.54,0,0,1,42,49.65q4.23,5.76,8.22,11.71,4.71,7,9.12,14.33a309.65,309.65,0,0,1,24.43,50.11C3061.26,1510.87,3062,1625.26,2996.6,1804.2Z"/><rect class="cls-2" x="192.96" y="1797.42" width="2911.04" height="8.81" rx="3.52"/><g class="cls-3"><polygon class="cls-4" points="1674.57 1099.88 1720.99 1071.29 1744.77 1102.43 1777.62 1102.14 1776.2 1130.45 1737.98 1131.3 1726.94 1172.07 1758.36 1204.35 1750.44 1226.99 1712.5 1204.91 1682.49 1211.7 1657.01 1165.84 1684.76 1171.51 1703.93 1114.32 1674.57 1099.88"/><path class="cls-4" d="M1767.79,1016.38l-4.43-11-48.56,62.84-2.28,8.31-10.16,37-8.19,29.85h0l-16.39,59.8-1.84,6.7-.3,1.06,7.83,139.68,11-13.12c1.39-1.66,34.48-41.36,60.38-100.81C1789.36,1157.5,1793.82,1081.31,1767.79,1016.38Zm-13.6,183.68c-2.78,8.23-5.79,16.22-9,23.9a463.45,463.45,0,0,1-50.18,90.35l-5.7-101.88.66-2.43,36.18-131.92,1-3.71,32.15-41.6a223.32,223.32,0,0,1,11.54,69.43,259.4,259.4,0,0,1-1.28,28.4A316.51,316.51,0,0,1,1754.19,1200.06Z"/><polygon class="cls-4" points="1193.29 940.49 1171.77 995.98 1657.01 1165.84 1674.57 1099.88 1193.29 940.49"/><rect class="cls-4" x="1302" y="1071.29" width="78.14" height="50.39"/><rect class="cls-4" x="1324.93" y="1040.14" width="25.48" height="31.42"/><polygon class="cls-4" points="1333.12 1125.37 1324.93 1169.42 1207.04 1803.38 1189.43 1803.38 1194.24 1777.53 1316.2 1121.67 1316.73 1118.82 1323.88 1121.67 1324.93 1122.1 1333.12 1125.37"/><polygon class="cls-4" points="1512.69 1803.53 1494.95 1803.52 1355.8 1121.67 1351.62 1101.18 1367.89 1094.05 1373.54 1121.67 1512.69 1803.53"/><polygon class="cls-4" points="1350.41 1097.62 1350.41 1803.46 1324.93 1803.43 1324.93 1097.62 1350.41 1097.62"/></g><g class="cls-3"><polygon class="cls-4" points="1304.44 590.34 1338.54 522.5 1389.5 542 1428.2 517.65 1447.23 552.23 1402.57 581.19 1419.31 637.57 1480.15 652.82 1487.32 685.46 1426.22 687.04 1395.64 717.04 1331.9 681.34 1368.91 667.75 1349.79 585.97 1304.44 590.34"/><path class="cls-4" d="M1499.68,693.74c-9.39-65.52-28.88-123.29-57.55-171.66-23.46-39.56-53.06-72.82-88.31-98.85l-13.3-9.83-10.31,97.9-1.27,12.08,3.37,11.51h0l15.07,51.3,12.17,41.49v0l24.27,82.71,2.73,9.27.43,1.49L1498.42,881l3.47-23.62C1502.33,854.36,1512.49,783.13,1499.68,693.74Zm-14.13,135.7-81.27-116.55-1-3.35v0l-53.65-182.77-1.51-5.12.91-8.61,6.76-64.22a309.85,309.85,0,0,1,62.64,71c.61,1,1.22,1.9,1.82,2.85a358.84,358.84,0,0,1,19.25,34.59c14.93,30.65,25.35,62.54,32.54,93.57,2.74,11.79,5,23.46,6.87,34.89A643.58,643.58,0,0,1,1485.55,829.44Z"/><polygon class="cls-4" points="617.61 753.54 632.7 835.03 1331.9 681.34 1304.44 590.34 617.61 753.54"/><rect class="cls-4" x="904.4" y="804.8" width="108.8" height="70.17"/><rect class="cls-4" x="936.33" y="761.44" width="35.48" height="43.76"/><polygon class="cls-4" points="947.75 878.78 936.33 938.3 770.44 1803.18 745.92 1803.17 923.95 874.98 924.92 869.94 936.33 874.36 937.92 874.98 947.75 878.78"/><polygon class="cls-4" points="1199.68 1803.38 1189.43 1803.38 1174.99 1803.37 979.56 874.98 973.49 846.14 996.15 836.5 1004.24 874.98 1194.24 1777.53 1199.68 1803.38"/><polygon class="cls-4" points="971.81 841.31 971.81 1803.27 936.33 1803.26 936.33 841.31 971.81 841.31"/></g><path class="cls-5" d="M1538.42,1400.83v279.39H732a351.22,351.22,0,0,1-351.46-351.45V1042.32A37.58,37.58,0,0,0,343,1004.79H206.47c25.41-94,72.26-188.66,149.18-279.15A316.79,316.79,0,0,1,660,1042.32v286.45A72.15,72.15,0,0,0,732,1400.83Z"/><rect class="cls-6" x="1515.72" y="1379.55" width="45.41" height="314.01"/><g id="P297LW"><path class="cls-7" d="M1979.24,716.16s-65.44,11.55-88.78,48.82-73.22,173.28-67.93,197.25,67.58,79.1,67.58,79.1Z"/><path class="cls-8" d="M2073.07,606.9s20.73-43.7,4.49-70.58-80.67-28.57-80.67-28.57,5.6,3.08,5.88,5.88-18.48-7.28-31.37,15.4-12.27,43.93,1.43,75.32S2073.07,606.9,2073.07,606.9Z"/><path class="cls-9" d="M2133.22,1021.8c2.57,39.19,4.89,75,5,77.21.17,4.45-22,20-59.14,31.83a289.42,289.42,0,0,1-29.48,7.64,312.93,312.93,0,0,1-64.13,6.37c-7.67,0-15-.42-21.81-1.1-50.65-5-69.53-60.26-70.9-283.67-36.07-6-43.8-23.5-43.8-23.5s25.57-61.68,52.75-92.6c11.78-13.4,28.3-21.59,43.23-26.55a162.39,162.39,0,0,1,23.53-5.85,126.21,126.21,0,0,1,12.81-1.63s42.12-3.74,101.84,1.38c18.72,1.62,55.9,12.21,71.86,24.26,15.17,11.47-6.26,52-19.54,103.17-5.62,21.65,46.49,67.9,47.17,75.8C2182.91,918.43,2130.13,974.29,2133.22,1021.8Z"/><path class="cls-7" d="M2065.61,708.47c.45-20.54.11-45.06-2.67-65.78l-82,13.4s0,25,.36,52.78h-.08s-2.24,25.75,29.48,29.52S2066.46,728.35,2065.61,708.47Z"/><path class="cls-8" d="M1997,1797.36c10.31-6.35,4.25-53.36,4.25-53.36s-48.28-38.33-54.79-8.82-45.57,42.89-67.82,46.58c-15.36,2.55-20.08,11.08-21.54,16.12Z"/><path class="cls-8" d="M2145,1797.36c10.3-6.35,4.25-53.36,4.25-53.36s-48.28-38.33-54.79-8.82-45.57,42.89-67.82,46.58c-15.36,2.55-20.09,11.08-21.54,16.12Z"/><path class="cls-10" d="M2138.18,1099v.07c0,.08,0,.16,0,.26s0,.2-.08.3a2.69,2.69,0,0,1-.13.32,3,3,0,0,1-.18.36,9,9,0,0,1-1.18,1.62c-.22.23-.45.48-.7.73s-.52.52-.81.79c-.58.53-1.25,1.1-2,1.71s-1.87,1.44-3,2.22c-.3.21-.59.42-.9.62h0l-1.12.77c-.38.25-.77.51-1.19.77l-1.25.79-1.32.81-1.37.82-1.44.84h0c-1,.55-2,1.12-3.05,1.7l-3.29,1.73h0c-1.52.77-3.1,1.56-4.75,2.35s-3.38,1.58-5.17,2.38c-.89.39-1.79.79-2.72,1.18l-1.4.6-2.52,1-1.83.74h0l-3,1.18c-1.53.58-3.1,1.17-4.71,1.75l-2.42.86c-2.47.86-5,1.7-7.6,2.53-.81.26-1.64.52-2.48.77h0c-1.1.34-2.2.67-3.33,1s-2.27.66-3.44,1h0l-.06.08c-3.46,40.68-12.84,98.15-21.32,153.61v0c-2.18,14.37-4.3,28.61-6.26,42.38-5.16,36.46-9,69.68-9.44,93.59v.25c-.19,11,9.07,38.34,9.77,44.66.42,3.86.77,8,1,12.24a475.79,475.79,0,0,1-.5,54.46h0c-.09,1.5-.17,3-.27,4.5-1.1,17-2.81,34.95-4.94,52.88-.69,5.92-1.45,11.83-2.23,17.72-10,75-26,145.58-32.72,149.48a.52.52,0,0,1-.13.06c-17.69,10.1-49.73-.09-66-2.46a14.73,14.73,0,0,1-2.38-.57h0c-5.6-1.86-9.74-7-9.44-13,2.14-41.79,2.06-88,.47-135.74q-.29-8.77-.64-17.61c-5.07-126.24-19.91-261.24-31.91-355.06-.45-3.48-.9-6.9-1.33-10.26-2-15.81-3.41-30.56-4.26-43.86-.79-11.67-1.16-22.26-1.33-31.44,0-2.87-.07-5.6-.08-8.18,0-3.72,1.28-16.54,2.76-51.48h0c.24-5.76.49-12.12.74-19.16.3-8.44.6-17.86.88-28.31,0-.35,0-.69,0-1,.17-6.58.36-13.57.52-21,.52-22.41,1-48.8,1.34-79.86,0-4.48.1-9.05.14-13.73.2-20.3.35-42.48.44-66.69q.06-16.15.08-33.56a10.6,10.6,0,0,1,10.57-10.57h153.84a26.65,26.65,0,0,1,26.63,27c-.24,19.18.46,46,4.62,71.55,4.95,30.43,14.81,59.1,33.86,71.17a37.5,37.5,0,0,0,8.85,4.16.9.9,0,0,0,.23.08.1.1,0,0,1,.05,0c.12.26.81,1.79,1.91,4.34,0,0,0,0,0,0q.35,9.48.79,19.3c.06,1.31.11,2.64.18,4,0,.79.08,1.55.11,2.33.06,1.33.13,2.67.19,4,.1,2.2.22,4.42.34,6.67l.3,5.29c.18,3.4.39,6.86.61,10.33l0,.59h0c0,.91.11,1.82.18,2.74.3,4.5.6,9.07.95,13.66.1,1.41.21,2.82.32,4.24,0,.69.1,1.37.15,2,.14,1.8.28,3.61.44,5.42s.31,3.84.49,5.78C2138.9,1087.76,2138,1094.06,2138.18,1099Z"/><path class="cls-8" d="M2042.94,1534.89h0c-.09,1.5-.17,3-.27,4.5-1.1,17-2.81,34.95-4.94,52.88-.69,5.92-1.45,11.83-2.23,17.72-10,75-26,145.58-32.72,149.48a.52.52,0,0,1-.13.06c-17.69,10.1-49.73-.09-66-2.46a14.73,14.73,0,0,1-2.38-.57h0c-5.6-1.86-9.74-7-9.44-13,2.14-41.79,2.06-88,.47-135.74q-.29-8.77-.64-17.61c-5.07-126.24-19.91-261.24-31.91-355.06-.45-3.48,36.21-116.66,77.92-6.78,0,0,0,0,0,0,18.45,47.73,62,170.36,62,195v.25c-.19,11,9.07,38.34,9.77,44.66.42,3.86.77,8,1,12.24A475.79,475.79,0,0,1,2042.94,1534.89Z"/><path class="cls-10" d="M2174.59,1597c-.27,6-.58,12.07-.92,18-4.16,71.87-13.6,136.46-19.24,140.8a27.87,27.87,0,0,1-3.9,2.5c-17.16,9.11-46.74,4-62,3.81a14.36,14.36,0,0,1-8.87-3.23,12.56,12.56,0,0,1-4.65-8.67c-3.16-39-8.74-81.63-15.87-125.6q-1.43-8.74-2.91-17.55c-4.06-23.86-8.53-48-13.28-72.17-21.48-109.11-48.71-217.72-69.2-294.48q-1.63-6.15-3.11-12.08s0,0,0,0a653.17,653.17,0,0,1-15.42-85.93c-.12-1.11-.23-2.15-.33-3.15-.77-7.71-1-12-1-12s30.9-19.86,67.35-38.93c1-.54,2.07-1.07,3.1-1.62,8.22-4.25,16.68-8.42,25.09-12.31,26.57-12.24,52.73-21.5,69.54-20.5,8.3.49,14.33,3.49,17,9.85a20.26,20.26,0,0,1,1.4,5.77c6.76,66.67,28.33,372.63,29.86,378.79C2176,1483.5,2177.06,1541.08,2174.59,1597Z"/><path class="cls-10" d="M2088.62,712.08s-47.6,55.46-50.39,103.84h24.19s6.17-52.6,42-100.52Z"/><path class="cls-10" d="M1968.43,711.58c-32.38,52.29-36.28,104.34-36.28,104.34H1908c1.92-37.41,23.5-77.14,36.94-98.49A162.39,162.39,0,0,1,1968.43,711.58Z"/><path class="cls-11" d="M2064.93,663.88s-20.31,24-42,24.06c-27,.07-41.72-25.93-41.72-25.93Z"/><path class="cls-7" d="M1983.39,664.08c8,6.26,31.32,12.49,38.08,13.22,0,0,34.63-7.73,40.93-11.52,9.75-5.91,9.12-17.88,9.62-34.51.6-19.69,2.59-35.15.39-46.5-2.62-13.58-11.22-21.3-35.32-23.4-44.25-3.84-62.68,7.24-63.45,22.07-.2,4-.39,7.78-.51,11.38C1971.36,641.08,1975,657.48,1983.39,664.08Z"/><path class="cls-8" d="M2073.07,606.9s3.65-39.49-19.6-39.49-54.62,29.69-68.62,10.64-12,26.3-12,26.3l-1.43-60.75,89.63-3.36,18.77,14Z"/><polygon class="cls-8" points="2038.23 1139.19 1901.54 1139.24 1848.92 940.49 1985.62 940.44 2038.23 1139.19"/><path class="cls-7" d="M2196.77,833s20,124.72,16.71,159.68-162.37,86.16-162.37,86.16l-12.88-33.66s102.64-66.69,100.27-77.52-21.64-108.71-21.52-113S2137.15,865.6,2196.77,833Z"/><path class="cls-7" d="M2038.23,1045.13s-38-1.56-57,8.25-34.94,22.95-27.35,31.27,36.47-3.31,48.74,3.22,48.49-9.08,48.49-9.08Z"/><path class="cls-7" d="M2038.23,1045.13s-30.29-13.91-30.29-10.27,2.91,8.71,9.08,12.34S2038.23,1045.13,2038.23,1045.13Z"/><path class="cls-9" d="M2146.67,730.41s15.24,3.76,34.12,45.16,26.88,73.25,26.88,73.25S2192.17,878,2104.41,886c0,0-27.72-78.44,0-114.75S2146.67,730.41,2146.67,730.41Z"/><path class="cls-7" d="M1883.31,1070.37s15,2,23-4.18-22.54-33-32-29.79S1873.63,1063.78,1883.31,1070.37Z"/><path class="cls-4" d="M1979.71,926.74s10.46,1.72,5.91,13.7h-46.68l14.94-13.7Z"/><path class="cls-12" d="M1979.71,926.74s-20.61,0-27.77,16.6c-8.74,20.29-5,77-5,77H1837.26s-17.31-66.63,18.89-93.59Z"/><path class="cls-9" d="M2092.08,578.71l-138.22,1.48s-2-41.68,21.93-68.26q1.64-1.85,3.47-3.57a61.7,61.7,0,0,1,18.88-12.27c27.63-11.53,50.54-.89,64.86,10,1.41,1.07,2.74,2.14,4,3.21a83,83,0,0,1,12.14,12.52S2092.53,540.12,2092.08,578.71Z"/><path class="cls-13" d="M2001.5,579.71l-8.18.09c-1.16-30.46-13.36-63.12-16.61-68.83a31.34,31.34,0,0,1,2.55-2.61C1981.5,512.12,2000.2,545.85,2001.5,579.71Z"/><path class="cls-13" d="M2053.29,579.11l-7.59.08c-.16-2.2.21-52.36,18.92-71.84a25.61,25.61,0,0,1,2.35,1.95C2049.21,526.45,2053.25,578.59,2053.29,579.11Z"/><path class="cls-13" d="M1953.86,580.19s0,13.94,63.89,13.81c71.93-.14,74.33-15.29,74.33-15.29Z"/><g class="cls-14"><path class="cls-12" d="M2174.59,1597c-46.49,11.77-93.53,11.45-118.37,10.1q1.49,8.81,2.91,17.55c1.71.07,3.51.15,5.38.21,26.19.93,67.21.1,109.16-9.82Z"/></g><g class="cls-15"><path class="cls-12" d="M2037.73,1592.28c-.69,5.92-1.45,11.83-2.23,17.72-42.59,4.3-83.09,1.22-110.25-2.26q-.29-8.77-.64-17.61C1951.63,1593.7,1994.14,1597.2,2037.73,1592.28Z"/></g></g><g id="P297LW-2" data-name="P297LW"><path class="cls-7" d="M2433.63,850.78s-16,91.19-33.56,186.47c-19.05,103.55-39.88,211.93-43.81,213.28-7.55,2.61-18.86-12.39-24.05-25-4.17-10.11-12.41-88.31-8.24-142.31,1-13.18,2.24-24,3.66-30.72,7.21-34.18,8.23-154.83,30.76-174S2433.63,850.78,2433.63,850.78Z"/><path class="cls-7" d="M2329.14,1210.27s3.9,14.92-1.77,29.54-6.87,18.78,3.62,27,21.83,19.73,29.69,16.32,3-70.31,3-70.31Z"/><path class="cls-8" d="M2361,1797.88c9.73-5.93,4.2-50.24,4.2-50.24s-45.34-36.27-51.58-8.5-43.07,40.24-64,43.64c-14.48,2.35-19,10.36-20.35,15.1Z"/><path class="cls-8" d="M2562.32,1797.88c9.73-5.93,4.2-50.24,4.2-50.24s-45.35-36.27-51.58-8.5-43.07,40.24-64,43.64c-14.48,2.35-19,10.36-20.35,15.1Z"/><path class="cls-16" d="M2499.32,1283.64c-16.14,68.19-36.46,146-44.41,189.94-.92,5.09-1.67,9.72-2.24,13.81s-.93,7.69-1.09,10.68c-4.22,82.22-69.2,270.2-80.82,274.58-18,6.78-46.32-7.64-61.14-12.36-6.14-2-10.29-8.16-8.91-14.44,32.18-148,52-359.7,56.32-485.85,2.17-63.53,5.06-108.73,5.06-108.73s158.52-42.29,159.46,11.21C2521.91,1183.22,2511.89,1230.49,2499.32,1283.64Z"/><path class="cls-8" d="M2499.32,1283.64c-16.14,68.19-36.46,146-44.41,189.94-.92,5.09-5.78,48.22-6.35,52.32l-27.75-315.28,39.35,3.62Z"/><path class="cls-7" d="M2451.05,772.07l0,7.76s-2.12,24.26,27.76,27.81,52.51-9.46,51.7-28.19c-2.69-14.49-5.65-24.45-5.85-36.44a84.83,84.83,0,0,1,1.06-14.53l-57.89-1.16-17.05,2.79Z"/><path class="cls-11" d="M2450.83,730.11l.22,42a49,49,0,0,0,20.87,4.61c26.61,0,43.8-19.51,52.79-33.67a84.83,84.83,0,0,1,1.06-14.53l-57.89-1.16Z"/><path class="cls-16" d="M2436.92,1180.84l55.92,584.29s41.4,13.44,78.8,3.08c0,0,21.75-319.45,19.7-397.54s17.61-209-4.48-223.38S2436.92,1180.84,2436.92,1180.84Z"/><path class="cls-7" d="M2447.46,750.5s74.14,15,82.75-31.34,24-75.57-23-87.09-59.49,4.43-66.12,19.19S2428.39,745.41,2447.46,750.5Z"/><path class="cls-8" d="M2526.8,729.46s25.78,5.8,28.22-41.12c.94-18.07,5.43-81.5-46.19-79.33s-75.13,32.35-79.83,37.65c-35.23,39.76,50.49,10.17,61.9,19.4s.55,24.45,13.59,29.89,23.36,5.43,21.19,17.39S2526.8,729.46,2526.8,729.46Z"/><path class="cls-9" d="M2422.09,647.58s27.63,9.61,37.31,10.31c2.88.21,45.73,3.15,45.73,3.15l62.59,11s12.21-46.46-18.4-75.65v0c-.77-.73-1.56-1.46-2.38-2.16-8.28-7.14-19.36-13.07-34.13-16.78C2438,558.68,2422.41,644.87,2422.09,647.58Z"/><path class="cls-13" d="M2458.57,656.58l11.82,1.57c9.25-12.22,43.46-54.63,79.54-60.91a8.08,8.08,0,0,0-.61-.81v0c-.62-.75-1.12-1.13-2-2.25l-.36.09C2500.78,605.3,2466.38,645.71,2458.57,656.58Z"/><path class="cls-9" d="M2505.13,661s8,9.11,10.16,17.87,42.75,14,45.55,9.47,6.88-16.3,6.88-16.3Z"/><path class="cls-13" d="M2505.13,661s-74.89,1.4-109.11-16.62a3.2,3.2,0,0,1,.69-5.95c5.14-1.25,13.91-2.65,28.35-3.18C2425.06,635.29,2451.86,657.54,2505.13,661Z"/><path class="cls-9" d="M2663.7,899.59s-28.51-75.36-50.35-91.36c-12.61-9.24-38.27-16.67-57.74-21.31-6.17-1.46-11.7-2.65-16-3.53-5.59-1.13-9.08-1.74-9.18-1.75h0s-.72,2.11-1.87,5.79c-6.47,10-28.49,17.53-47,16.33s-30.47-15.27-30.47-22.88l0,0h0s-1.49.44-4.13,1.26c-3.87,1.23-10.22,3.33-17.94,6.21-23,8.6-45.29,13.4-60.36,37.73-22.32,36-31.55,82.92-31.55,82.92s20.47,17.85,42.45,26.38a8.66,8.66,0,0,0,3.25.19c-1.43,196.89-10.4,227.22-6.16,227.14,0,0,23.71,26.08,85.74,25.37a464.66,464.66,0,0,0,63.06-4.74c49.74-7.38,63.84-17.64,63.64-22.81-.17-4.67-2.72-129.22-3.32-135.89-2.75-30.87-3.71-37.24-1.28-84.14C2630.91,929.07,2663.7,899.59,2663.7,899.59Z"/><path class="cls-16" d="M2362.1,1151.27,2381,915.39a25.29,25.29,0,0,1,26.35-23.24l129,5.05a20.55,20.55,0,0,1,19.74,19.47c1.59,31,7.51,91.16,29.65,107.94l11.69,170.75-144.16,130.51s-16.37-95.65-38.88-122.22C2401.81,1188.78,2362.1,1151.27,2362.1,1151.27Z"/><path class="cls-16" d="M2555.61,786.92l-16.94,118.72-16.18-2.31,17.12-119.94C2543.91,784.27,2549.44,785.46,2555.61,786.92Z"/><path class="cls-16" d="M2447,782.11l-22.3,109.26-1.68,8.22-1.78-.38L2407,896.32l22.05-108C2436.73,785.44,2443.08,783.34,2447,782.11Z"/><path class="cls-7" d="M2673,1043.93s-86.62,49.41-155.61,60.38c0,0-13.7-17.81-9.5-25.52,3.15-5.77,100.64-68.5,101.16-70.45,1.31-4.78-15.17-34.29-24.56-67.87,27.92-7.09,64.3-28.49,75.05-37.33C2671.62,945.25,2688.53,1010.43,2673,1043.93Z"/><path class="cls-7" d="M2503.2,1068.21s-10.38-7.94-18.36-9.12-21.41-6.26-19.23-1.54,16.88,12.17,16.88,12.17Z"/><path class="cls-8" d="M2483.29,1120.67l-40.57,5a9.3,9.3,0,0,1-10-6.54l-27.75-92a9.29,9.29,0,0,1,7.76-11.9l40.57-4.95a9.28,9.28,0,0,1,10,6.54l27.75,92A9.27,9.27,0,0,1,2483.29,1120.67Z"/><path class="cls-17" d="M2468.92,1122.43l-40.57,5a9.27,9.27,0,0,1-10-6.54l-27.76-92a9.28,9.28,0,0,1,7.77-11.89l40.57-5a9.29,9.29,0,0,1,10,6.54l27.76,92A9.29,9.29,0,0,1,2468.92,1122.43Z"/><path class="cls-17" d="M2440.24,1029.67h0a2.81,2.81,0,0,1-2.85-1.84l-27.18-80.75a1.72,1.72,0,0,1,1.44-2.36h0a2.8,2.8,0,0,1,2.85,1.84l27.18,80.75A1.72,1.72,0,0,1,2440.24,1029.67Z"/><path class="cls-7" d="M2523.53,1066.62s-7.22,4.46-12.35,3.11c-4.25-1.11-8-1.52-12.87-4.85-5.18-3.52-16.62,1.13-20,3.38-9.46,6.31-41.4,6.06-41.4,12.36s13.89,24,30.71,29.3,49.76-5.61,49.76-5.61Z"/></g><path class="cls-10" d="M1561.13,1463.25s97.5,19.49,143.09,73.31,24.88,80-7.8,66.89,3.61,13.59,7.8,39.48-15,60.74-52.26,44.4-72.51-55.56-90.83-56.65Z"/><path class="cls-10" d="M1561.13,1412.8s90.62,7.62,97.16,39.22-97.16-11-97.16-11Z"/><path class="cls-10" d="M1730.6,1623.54s46.82,36.5,27,56.68S1730.6,1623.54,1730.6,1623.54Z"/><path class="cls-10" d="M1561.13,1642.93s47.77,21.52,42,44.77-42-22.39-42-22.39Z"/><rect class="cls-6" x="368.41" y="1215.25" width="301.94" height="18.53"/><rect class="cls-6" x="368.41" y="1256.11" width="301.94" height="18.53"/><polygon class="cls-6" points="426.28 1182.29 416.22 1182.29 411.19 1191.01 416.22 1199.72 426.28 1199.72 431.31 1191.01 426.28 1182.29"/><polygon class="cls-6" points="488.38 1182.29 478.32 1182.29 473.29 1191.01 478.32 1199.72 488.38 1199.72 493.41 1191.01 488.38 1182.29"/><polygon class="cls-6" points="550.48 1182.29 540.41 1182.29 535.38 1191.01 540.41 1199.72 550.48 1199.72 555.51 1191.01 550.48 1182.29"/><polygon class="cls-6" points="612.57 1182.29 602.51 1182.29 597.48 1191.01 602.51 1199.72 612.57 1199.72 617.61 1191.01 612.57 1182.29"/><polygon class="cls-6" points="426.28 1283.61 416.22 1283.61 411.19 1292.32 416.22 1301.04 426.28 1301.04 431.31 1292.32 426.28 1283.61"/><polygon class="cls-6" points="488.38 1283.61 478.32 1283.61 473.29 1292.32 478.32 1301.04 488.38 1301.04 493.41 1292.32 488.38 1283.61"/><polygon class="cls-6" points="550.48 1283.61 540.41 1283.61 535.38 1292.32 540.41 1301.04 550.48 1301.04 555.51 1292.32 550.48 1283.61"/><polygon class="cls-6" points="612.57 1283.61 602.51 1283.61 597.48 1292.32 602.51 1301.04 612.57 1301.04 617.61 1292.32 612.57 1283.61"/><rect class="cls-6" x="750.34" y="1531.4" width="279.11" height="18.53" transform="translate(2430.56 650.78) rotate(90)"/><rect class="cls-6" x="709.48" y="1531.4" width="279.11" height="18.53" transform="translate(2389.71 691.63) rotate(90)"/><polygon class="cls-6" points="932.12 1454.61 932.12 1445.31 923.4 1440.65 914.69 1445.31 914.69 1454.61 923.4 1459.26 932.12 1454.61"/><polygon class="cls-6" points="932.12 1512.01 932.12 1502.7 923.4 1498.06 914.69 1502.7 914.69 1512.01 923.4 1516.66 932.12 1512.01"/><polygon class="cls-6" points="932.12 1569.41 932.12 1560.11 923.4 1555.45 914.69 1560.11 914.69 1569.41 923.4 1574.06 932.12 1569.41"/><polygon class="cls-6" points="932.12 1626.81 932.12 1617.51 923.4 1612.86 914.69 1617.51 914.69 1626.81 923.4 1631.46 932.12 1626.81"/><polygon class="cls-6" points="830.8 1454.61 830.8 1445.31 822.09 1440.65 813.37 1445.31 813.37 1454.61 822.09 1459.26 830.8 1454.61"/><polygon class="cls-6" points="830.8 1512.01 830.8 1502.7 822.09 1498.06 813.37 1502.7 813.37 1512.01 822.09 1516.66 830.8 1512.01"/><polygon class="cls-6" points="830.8 1569.41 830.8 1560.11 822.09 1555.45 813.37 1560.11 813.37 1569.41 822.09 1574.06 830.8 1569.41"/><polygon class="cls-6" points="830.8 1626.81 830.8 1617.51 822.09 1612.86 813.37 1617.51 813.37 1626.81 822.09 1631.46 830.8 1626.81"/><polygon class="cls-6" points="1481.93 1453.33 1481.93 1443.27 1473.21 1438.24 1464.5 1443.27 1464.5 1453.33 1473.21 1458.36 1481.93 1453.33"/><polygon class="cls-6" points="1481.93 1515.43 1481.93 1505.37 1473.21 1500.33 1464.5 1505.37 1464.5 1515.43 1473.21 1520.46 1481.93 1515.43"/><polygon class="cls-6" points="1481.93 1577.53 1481.93 1567.46 1473.21 1562.43 1464.5 1567.46 1464.5 1577.53 1473.21 1582.56 1481.93 1577.53"/><polygon class="cls-6" points="1481.93 1639.62 1481.93 1629.56 1473.21 1624.53 1464.5 1629.56 1464.5 1639.62 1473.21 1644.65 1481.93 1639.62"/><path class="cls-7" d="M1089.09,1008.37s25.53,170.42,36.43,186.11,65.36,77.78,65.36,77.78l-28.32,8.57s-82-51.61-90.59-78-31.76-183.45-31.76-183.45Z"/><path class="cls-18" d="M916.57,859.66s4.13,16.05-22.38,22.23S872.41,896.41,872,906.94,810.73,928,852.28,960s100.48-20,100.48-20l-24-80.33Z"/><path class="cls-18" d="M860.51,796.46c-1.13,12.92,10.74,15.27,8.72,25.6-4.69,23.94,14.71,32.28,33.77,30.5,11.22-1,17.86,13.93,17.86,13.93l68.26-117.92S861,791.52,860.51,796.46Z"/><path class="cls-8" d="M1433.18,1797.88H1319.89s-2.72-17.26,3.2-30.36c5.67-12.57,9.29-16,3.13-30.55,7.2,7.41,28.23,12.77,44.61,10.57,2,3.25,13,20.66,19.65,25.48C1397.89,1778.34,1430.9,1776.44,1433.18,1797.88Z"/><path class="cls-8" d="M1233.7,1796.91H1120.41s-2.72-17.27,3.2-30.37c5.67-12.57,16.72-21,20-35.47,7.2,7.41,11.39,17.69,27.77,15.49,2,3.25,13,20.67,19.66,25.48C1198.4,1777.36,1231.42,1775.47,1233.7,1796.91Z"/><path class="cls-8" d="M1231,1655.89c-1.81,4.75-3.57,9.39-5.32,13.91-18.58,48.49-32.57,82.93-32.57,82.93s-16.32,6.47-40.06-3c-16.55-6.57-18.56-23.21-18.56-23.21s.38-27.73,3.44-76.17c.29-4.75.62-9.71,1-14.85,2.39-34.9,6.07-78.66,11.71-129.19,10.39-93.11,32.78-108.67,26.69-115.19-24-25.72-227.83,40.88-303.83-9.48-56.72-37.58-31.3-116.8-31.3-116.8s23.48-51.45,128.11-22c171.34,48.25,319.16,40.24,345.86,121.9C1326.15,1395.54,1270.7,1551.33,1231,1655.89Z"/><path class="cls-10" d="M1376.22,1750.07s-5.7,4.61-18.13,5.76c-59.72,5.55-77.88-6.43-77.88-6.43s-14.76-35.27-32.24-79.44c-1.89-4.78-3.82-9.66-5.75-14.6-22.1-56.43-46.35-122.07-50.22-147.55-7.33-48.39-25.73-71.08-46.38-72.53s-282.23,10.93-306.46-66.73c-18.92-60.67,3.76-119.36,3.76-119.36s10,20.38,79.42,14c75.23-7,280.56-10.51,325,20,37,25.38,82.88,230,108.76,359.76q1.43,7.17,2.78,14C1369.59,1711.73,1376.22,1750.07,1376.22,1750.07Z"/><path class="cls-7" d="M769.23,1372.67s-34.54,9.53-41.9,16.71-17.36,28-10.24,31.07S734,1412,746.94,1407s28.69-1.27,28.69-1.27c8-6,15.22-19.48,15.22-19.48Z"/><path class="cls-9" d="M1103.92,1027.14c-13-54.22-49.94-98.2-72.2-100-6.14-.5-13.35-2.47-21.59-3.53a279.56,279.56,0,0,0-61.61-1.42,275.66,275.66,0,0,0-39.71,6.74c-6.15,1.53-12,3.19-17.39,5-23.76,7.69-36.51,16.82-41,23.25-22.9,32.89-38.68,85.56-38.68,85.56s5.76,21.37,51.2,37.81l-24,245.67s137.21,24.9,223.31-29.22c0,0-6.57-134.83,0-160.38s11.71-83.26,11.71-83.26C1101.07,1045.52,1103.92,1027.14,1103.92,1027.14Z"/><path class="cls-7" d="M1003.23,979.48c-41.26,12.81-91.6-51.13-87.38-52.17,6.46-7.32,8.77-33.43,4-70.93l3.35.23,56.22,4.16s.87,17.45,2.81,33.71c1.29,10.7,3.05,20.89,5.33,25.34.67,1.31,11.92,2.59,11.95,2.61C1000.5,923.47,1021.27,973.88,1003.23,979.48Z"/><path class="cls-19" d="M979.46,860.78s.87,17.43,2.82,33.71c-30.83,2.89-50.49-23.15-59-37.87Z"/><path class="cls-7" d="M991.6,874.94S919.07,885,913.49,839.76s-18.7-74.45,27.37-82.8,57.22,7.81,62.75,22.46S1010.33,871.15,991.6,874.94Z"/><path class="cls-18" d="M998.38,754.51c-12.9-12.24-21-8.21-25.28-3.54-42.4-17-64.05,18.44-64.05,18.44-.89,33.07-22,54.54-22,54.54s14.25,6.57,43.83-5c9-3.54,16.55-11.18,22.65-20.09a170.8,170.8,0,0,1-24.83,39.21c34.42-21.32,42.87-73.85,43.67-79.39,4.92,3.44,20,5,23.71,13.19,5,11.09,7.28,10.9,11.1,39C1007.14,810.81,1017.72,772.88,998.38,754.51Z"/><path class="cls-12" d="M970.26,850.83c.74,0,7.64,6.15,16.75,4.43s9-8.87,9-8.87a41,41,0,0,0-11.69,0C978.88,847.38,970.26,850.83,970.26,850.83Z"/><path class="cls-10" d="M848.74,1181s70.32-39.9,92.61-127.78c0,0,89.42.75,130.31-6.49,0,0,10.63,25.58,11.1,60.51.82,61.86.72,153.11,31.74,191.11,54.25,66.47-282.08,39.28-282.08,39.28Z"/><path class="cls-7" d="M836.45,1022.42s-38.53,155.12-50.33,221.32-16.89,128.93-16.89,128.93l21.62,13.57c-4.68,13.08,40.78-104.54,68.12-194.59,9.73-32,26.87-114.76,26.87-114.76Z"/><path class="cls-9" d="M811.76,1042.71s13.08,37.09,82.07,50.16-41-95.14-41-95.14Z"/><path class="cls-10" d="M961.45,1071.89l-17.38,1.26C940,1017.8,903,953,891.42,933.9c5.43-1.77,11.24-3.43,17.39-5C923.17,953,957.35,1015.65,961.45,1071.89Z"/><path class="cls-10" d="M1078.77,1071.41l-23.69-15c-3.77-51.8-32.74-110.24-44.95-132.84,8.24,1.06,15.55,2.33,21.59,3.53C1046.21,955.67,1075.27,1023.41,1078.77,1071.41Z"/><path class="cls-9" d="M1010.08,773.68s-29.93,10.42-40.42,11.18l-49.55,3.41-67.83,12s-13.24-50.35,19.94-82h0c.83-.79,1.69-1.58,2.58-2.34,9-7.74,21-14.16,37-18.18C992.89,677.35,1009.74,770.74,1010.08,773.68Z"/><path class="cls-13" d="M970.56,783.43l-12.82,1.71c-10-13.25-47.09-59.2-86.18-66a8,8,0,0,1,.66-.88h0c.67-.82,1.22-1.23,2.18-2.45l.4.11C924.82,727.87,962.1,771.66,970.56,783.43Z"/><path class="cls-9" d="M920.11,788.27s-8.74,9.88-11,19.37-46.33,15.19-49.37,10.25-7.45-17.65-7.45-17.65Z"/><path class="cls-13" d="M920.11,788.27s81.14,1.52,118.23-18a3.47,3.47,0,0,0-.76-6.44c-5.57-1.36-15.06-2.88-30.71-3.45C1006.87,760.37,977.82,784.48,920.11,788.27Z"/><path class="cls-12" d="M1358.84,1657c-36.53,11.13-73.38,13.28-96.4,13.28-5.77,0-10.67-.13-14.47-.28-1.89-4.78-3.82-9.66-5.75-14.6,10.64.71,63.54,3.19,113.84-12.43Q1357.49,1650.1,1358.84,1657Z"/><g class="cls-20"><path class="cls-12" d="M1231,1655.89c-1.81,4.75-3.57,9.39-5.32,13.91-35.17-2.66-67.4-12.14-87.75-19.41.29-4.75.62-9.71,1-14.85C1158.81,1642.87,1193.73,1653.69,1231,1655.89Z"/></g><path class="cls-7" d="M790.85,1386.24s-3.78,15.3-8.68,19.3-8.9,13.25-12,13.61-4.68-4-2.18-9.8a159.45,159.45,0,0,1,7.45-14.16Z"/><path class="cls-21" d="M2276.77,401s18.4-34.9,62.41-31c0,0,63.89-58.15,132-7.75,0,0,72.42-12.49,126.06,10.81,35.76,15.54,47.57,31.83,47.57,31.83Z"/><path class="cls-21" d="M2135.52,503.48s12.25-34.89,41.53-31c0,0,42.51-58.15,87.84-7.75,0,0,48.19-12.49,83.88,10.81,23.79,15.54,31.65,31.83,31.65,31.83Z"/><path class="cls-21" d="M1854.44,338.66s14.19-27.43,48.13-24.39c0,0,49.28-45.72,101.82-6.09,0,0,55.85-9.82,97.22,8.5,27.58,12.21,36.69,25,36.69,25Z"/><path class="cls-21" d="M1542.37,598.89s13.22-31.87,44.83-28.33c0,0,45.9-53.12,94.84-7.08,0,0,52-11.41,90.55,9.87,25.68,14.19,34.17,29.08,34.17,29.08Z"/><path class="cls-21" d="M739.36,565.56s13.22-31.87,44.83-28.33c0,0,45.9-53.12,94.84-7.08,0,0,52-11.41,90.55,9.87,25.68,14.19,34.17,29.08,34.17,29.08Z"/><path class="cls-22" d="M485.22,1792.16c-5.87-9.23-23.55-33.18-47.1-30-25.65,3.45,28.34,20.37,44.87,30.08a27.62,27.62,0,0,1-9.15-1.07c-11-3.94-30,3.61-36,6.26H543a16.71,16.71,0,0,0-7.52-9.62c-1.73-1-5.2-1.2-9.69-.86,6.26-7.37,10.6-30.93-6.81-24.87-12.72,4.43-12.69,18.82-11.44,27.34-2.71.42-5.45.85-8.16,1.24-5.24-26.69-23.76-104.92-61.31-107-38.07-2.11,32.28,81.13,55.7,107.76C490.79,1791.76,487.9,1792,485.22,1792.16Z"/><g class="cls-15"><path class="cls-4" d="M3029.57,1427.18H2859.26c-1.5,0-3,0-4.46.13a77.87,77.87,0,0,0-73.32,77.65V1791.7h-50.11V1505a128,128,0,0,1,127.89-127.89h145.88A309.65,309.65,0,0,1,3029.57,1427.18Z"/></g><rect class="cls-4" x="2721.13" y="1782.85" width="71.84" height="14.58"/><path class="cls-4" d="M2987.8,1351a94.22,94.22,0,0,0-73,91.85v347.6H2854v-347.6a154.7,154.7,0,0,1,14.67-65.81,156,156,0,0,1,77.07-75.69A490.54,490.54,0,0,1,2987.8,1351Z"/><rect class="cls-23" x="2841.6" y="1779.75" width="87.08" height="17.67"/><path class="cls-22" d="M2689.43,1797.42h-65.11c-3.48-3,2.42-9.68,8.59-10.13a38,38,0,0,1,9.93,1.18c.9-11.9,6-65.39,25.3-63.25,21.68,2.41,0,23.56-6.13,36.08-4.54,9.28-9.33,22.58-11.52,28.86,1.76.38,3.58.75,5.44,1.1,2.88-8.83,13.57-38.51,27.17-36.78,16,2,9.55,13.93-1.77,21-8.3,5.19-18.5,12.58-23.34,16.14a68.38,68.38,0,0,0,12.73,1C2681.88,1792.37,2687.32,1795.66,2689.43,1797.42Z"/></svg>