<svg version="1.1" xmlns="http://www.w3.org/2000/svg" width="512px" height="512px" transform="rotate(0) scale(1, 1)">
<path d="M0 0 C6.73439617 4.08874053 12.15923982 8.99478604 17.40625 14.8359375 C18.62519529 16.16898165 19.84523879 17.50102247 21.06640625 18.83203125 C21.64277832 19.46222168 22.21915039 20.09241211 22.81298828 20.74169922 C24.76833201 22.85164873 26.78986061 24.88458494 28.84375 26.8984375 C31.27753632 29.29106041 33.55971287 31.74499928 35.78125 34.3359375 C38.52246449 37.52776259 41.41310888 40.50396727 44.40625 43.4609375 C47.33743191 46.35685708 50.17028174 49.26336321 52.84375 52.3984375 C55.70797335 55.75018823 58.76958716 58.86650506 61.90625 61.9609375 C65.64655338 65.65088338 69.1886435 69.43597448 72.59765625 73.43359375 C74.77583492 75.87522384 77.07873008 78.16141782 79.40625 80.4609375 C82.33743191 83.35685708 85.17028174 86.26336321 87.84375 89.3984375 C90.70797355 92.75018846 93.76959093 95.86650167 96.90625 98.9609375 C100.6247099 102.6294097 104.14293192 106.39242976 107.53125 110.3671875 C110.34225311 113.50614097 113.35892797 116.43444431 116.35717773 119.39233398 C119.60625607 122.61460198 122.63068863 125.95434395 125.59765625 129.43359375 C127.77583492 131.87522384 130.07873008 134.16141782 132.40625 136.4609375 C135.33743191 139.35685708 138.17028174 142.26336321 140.84375 145.3984375 C143.70797335 148.75018823 146.76958716 151.86650506 149.90625 154.9609375 C153.64655338 158.65088338 157.1886435 162.43597448 160.59765625 166.43359375 C162.77583492 168.87522384 165.07873008 171.16141782 167.40625 173.4609375 C170.33743191 176.35685708 173.17028174 179.26336321 175.84375 182.3984375 C178.70797335 185.75018823 181.76958716 188.86650506 184.90625 191.9609375 C188.64655338 195.65088338 192.1886435 199.43597448 195.59765625 203.43359375 C197.77583492 205.87522384 200.07873008 208.16141782 202.40625 210.4609375 C221.48504268 229.39497454 221.48504268 229.39497454 221.78735352 243.52514648 C221.75340576 255.68251549 219.47471447 263.26191893 210.828125 272.26171875 C202.95024605 279.41534109 194.04370725 281.81729198 183.53125 281.4609375 C171.17904112 279.9432315 162.89847602 272.82775436 154.59375 264.0859375 C153.70494141 263.1784375 152.81613281 262.2709375 151.90039062 261.3359375 C147.43554482 256.74881243 143.13027507 252.05931787 138.95043945 247.21240234 C136.71118088 244.67256977 134.32912089 242.32679966 131.90625 239.9609375 C128.18504999 236.29527779 124.66940496 232.52925389 121.28125 228.5546875 C118.47024689 225.41573403 115.45357203 222.48743069 112.45532227 219.52954102 C109.20624393 216.30727302 106.18181137 212.96753105 103.21484375 209.48828125 C101.03666508 207.04665116 98.73376992 204.76045718 96.40625 202.4609375 C93.47506809 199.56501792 90.64221826 196.65851179 87.96875 193.5234375 C85.10452665 190.17168677 82.04291284 187.05536994 78.90625 183.9609375 C75.16594662 180.27099162 71.6238565 176.48590052 68.21484375 172.48828125 C66.03666508 170.04665116 63.73376992 167.76045718 61.40625 165.4609375 C58.47506809 162.56501792 55.64221826 159.65851179 52.96875 156.5234375 C50.10452665 153.17168677 47.04291284 150.05536994 43.90625 146.9609375 C40.16594662 143.27099162 36.6238565 139.48590052 33.21484375 135.48828125 C31.03666508 133.04665116 28.73376992 130.76045718 26.40625 128.4609375 C23.47506809 125.56501792 20.64221826 122.65851179 17.96875 119.5234375 C15.10452645 116.17168654 12.04290907 113.05537333 8.90625 109.9609375 C5.1962673 106.30082854 1.68043106 102.55178168 -1.69140625 98.578125 C-4.65381315 95.28115469 -7.83996384 92.20711853 -11.0390625 89.140625 C-12.26026672 87.95020744 -13.43168876 86.70915518 -14.59375 85.4609375 C-14.59375 84.8009375 -14.59375 84.1409375 -14.59375 83.4609375 C-15.25375 83.4609375 -15.91375 83.4609375 -16.59375 83.4609375 C-16.85712158 84.05100586 -17.12049316 84.64107422 -17.3918457 85.24902344 C-18.64576652 87.55666565 -19.94570261 89.02821144 -21.82421875 90.8515625 C-22.45884033 91.47458252 -23.09346191 92.09760254 -23.74731445 92.73950195 C-24.41851318 93.39007568 -25.08971191 94.04064941 -25.78125 94.7109375 C-30.34621643 99.19855893 -34.79501143 103.67888485 -38.92578125 108.57421875 C-41.85122281 111.88332478 -45.05063007 114.92435135 -48.19140625 118.02734375 C-50.23089373 120.09336115 -52.148828 122.19099299 -54.03125 124.3984375 C-57.33721118 128.26711548 -60.92519678 131.82158055 -64.54443359 135.39208984 C-67.79359173 138.61444159 -70.81811334 141.95425566 -73.78515625 145.43359375 C-76.77025116 148.77973686 -80.00257768 151.87687702 -83.19140625 155.02734375 C-85.23089373 157.09336115 -87.148828 159.19099299 -89.03125 161.3984375 C-92.33721118 165.26711548 -95.92519678 168.82158055 -99.54443359 172.39208984 C-102.79359173 175.61444159 -105.81811334 178.95425566 -108.78515625 182.43359375 C-111.76903004 185.77836804 -114.99994732 188.87428907 -118.1875 192.0234375 C-120.24824345 194.11094385 -122.18890626 196.23262973 -124.09375 198.4609375 C-126.78986141 201.61487915 -129.64191975 204.54467147 -132.59375 207.4609375 C-135.52493191 210.35685708 -138.35778174 213.26336321 -141.03125 216.3984375 C-144.33721118 220.26711548 -147.92519678 223.82158055 -151.54443359 227.39208984 C-154.79359173 230.61444159 -157.81811334 233.95425566 -160.78515625 237.43359375 C-163.77025116 240.77973686 -167.00257768 243.87687702 -170.19140625 247.02734375 C-172.23089373 249.09336115 -174.148828 251.19099299 -176.03125 253.3984375 C-180.58009634 258.71442895 -185.61724802 263.55049528 -190.59375 268.4609375 C-191.87378906 269.77964844 -191.87378906 269.77964844 -193.1796875 271.125 C-195.25686341 273.13495339 -197.13727062 274.6577111 -199.59375 276.1484375 C-200.5528125 276.74205078 -200.5528125 276.74205078 -201.53125 277.34765625 C-210.53396321 282.20707531 -220.05841183 282.34683185 -229.7734375 279.53125 C-239.17161636 275.96462811 -246.63833325 269.07038842 -251.03125 260.0234375 C-254.06669377 251.52156684 -254.08466312 240.56576702 -251.15625 232.0234375 C-248.41446856 226.29680888 -243.96167032 221.9779336 -239.59375 217.4609375 C-238.4392868 216.13506928 -237.29280918 214.80218507 -236.15625 213.4609375 C-232.63169708 209.40483947 -228.81694477 205.66941714 -224.99609375 201.89453125 C-222.95660627 199.82851385 -221.038672 197.73088201 -219.15625 195.5234375 C-215.85028882 191.65475952 -212.26230322 188.10029445 -208.64306641 184.52978516 C-205.39390827 181.30743341 -202.36938666 177.96761934 -199.40234375 174.48828125 C-196.41724884 171.14213814 -193.18492232 168.04499798 -189.99609375 164.89453125 C-187.95660627 162.82851385 -186.038672 160.73088201 -184.15625 158.5234375 C-181.29202645 155.17168654 -178.23040907 152.05537333 -175.09375 148.9609375 C-171.97795877 145.88703223 -168.93497762 142.79391605 -166.09375 139.4609375 C-162.8114161 135.61050735 -159.24120151 132.07948171 -155.64282227 128.52954102 C-152.39374393 125.30727302 -149.36931137 121.96753105 -146.40234375 118.48828125 C-143.41724884 115.14213814 -140.18492232 112.04499798 -136.99609375 108.89453125 C-134.95660627 106.82851385 -133.038672 104.73088201 -131.15625 102.5234375 C-127.85028882 98.65475952 -124.26230322 95.10029445 -120.64306641 91.52978516 C-117.39390827 88.30743341 -114.36938666 84.96761934 -111.40234375 81.48828125 C-108.41724884 78.14213814 -105.18492232 75.04499798 -101.99609375 71.89453125 C-99.95660627 69.82851385 -98.038672 67.73088201 -96.15625 65.5234375 C-92.85028882 61.65475952 -89.26230322 58.10029445 -85.64306641 54.52978516 C-82.39390827 51.30743341 -79.36938666 47.96761934 -76.40234375 44.48828125 C-73.41724884 41.14213814 -70.18492232 38.04499798 -66.99609375 34.89453125 C-64.95660627 32.82851385 -63.038672 30.73088201 -61.15625 28.5234375 C-57.85193686 24.65668808 -54.27174181 21.09641045 -50.64306641 17.53857422 C-47.92820739 14.85917916 -45.42857606 12.11250731 -43.03125 9.1484375 C-32.637015 -3.01981357 -14.4743303 -6.31901733 0 0 Z " fill="#ffffff" transform="translate(271.59375,2.5390625)"/>
<path d="M0 0 C2.77925899 2.69168083 5.3948942 5.51548933 8 8.375 C9.3320362 9.82150806 10.66536808 11.26682406 12 12.7109375 C12.65403809 13.41943848 13.30807617 14.12793945 13.98193359 14.85791016 C16.65683584 17.69720272 19.41845225 20.44204554 22.20166016 23.17480469 C24.0114156 25.01158608 25.70129211 26.91414661 27.375 28.875 C30.11621449 32.06682509 33.00685888 35.04302977 36 38 C38.93118191 40.89591958 41.76403174 43.80242571 44.4375 46.9375 C47.30172335 50.28925073 50.36333716 53.40556756 53.5 56.5 C57.24030338 60.18994588 60.7823935 63.97503698 64.19140625 67.97265625 C66.36958492 70.41428634 68.67248008 72.70048032 71 75 C73.93118191 77.89591958 76.76403174 80.80242571 79.4375 83.9375 C82.30172355 87.28925096 85.36334093 90.40556417 88.5 93.5 C92.2184599 97.1684722 95.73668192 100.93149226 99.125 104.90625 C101.93600311 108.04520347 104.95267797 110.97350681 107.95092773 113.93139648 C111.20000607 117.15366448 114.22443863 120.49340645 117.19140625 123.97265625 C119.36958492 126.41428634 121.67248008 128.70048032 124 131 C126.93118191 133.89591958 129.76403174 136.80242571 132.4375 139.9375 C135.30172335 143.28925073 138.36333716 146.40556756 141.5 149.5 C145.24030338 153.18994588 148.7823935 156.97503698 152.19140625 160.97265625 C154.36958492 163.41428634 156.67248008 165.70048032 159 168 C161.93118191 170.89591958 164.76403174 173.80242571 167.4375 176.9375 C170.30172335 180.28925073 173.36333716 183.40556756 176.5 186.5 C180.24237942 190.19199397 183.78765946 193.97769926 187.1953125 197.98046875 C189.34527549 200.38637972 191.62993115 202.6200353 193.9375 204.875 C204.10878603 214.9998418 211.29659228 223.77456254 211.5 238.5 C211.33538149 249.5474638 208.19127511 256.71456793 200.515625 264.796875 C193.64974421 270.80985135 186.04209585 273.20094616 177.0625 273.375 C176.36576172 273.41238281 175.66902344 273.44976563 174.95117188 273.48828125 C165.50041101 273.64167502 157.51132241 269.81103438 150.69921875 263.41796875 C149.01021256 261.69233035 147.33962986 259.94847607 145.6875 258.1875 C144.42583008 256.89102539 144.42583008 256.89102539 143.13867188 255.56835938 C138.80441904 251.0852329 134.638054 246.48422566 130.56176758 241.7668457 C128.31423428 239.22418531 125.92832213 236.87118513 123.5 234.5 C119.7569411 230.81289306 116.21743886 227.02476643 112.80859375 223.02734375 C110.63041508 220.58571366 108.32751992 218.29951968 106 216 C103.06881809 213.10408042 100.23596826 210.19757429 97.5625 207.0625 C94.69827645 203.71074904 91.63665907 200.59443583 88.5 197.5 C84.7815401 193.8315278 81.26331808 190.06850774 77.875 186.09375 C75.06399689 182.95479653 72.04732203 180.02649319 69.04907227 177.06860352 C65.79999393 173.84633552 62.77556137 170.50659355 59.80859375 167.02734375 C57.63041508 164.58571366 55.32751992 162.29951968 53 160 C50.06881809 157.10408042 47.23596826 154.19757429 44.5625 151.0625 C41.69827665 147.71074927 38.63666284 144.59443244 35.5 141.5 C31.75969662 137.81005412 28.2176065 134.02496302 24.80859375 130.02734375 C22.63041508 127.58571366 20.32751992 125.29951968 18 123 C15.06881809 120.10408042 12.23596826 117.19757429 9.5625 114.0625 C6.69827645 110.71074904 3.63665907 107.59443583 0.5 104.5 C-3.21186584 100.83803321 -6.72656649 97.08410799 -10.10546875 93.11328125 C-13.44894234 89.3837571 -17.06480946 85.91868979 -20.64453125 82.41796875 C-23 80 -23 80 -25 77 C-28.28731688 78.09577229 -28.88003756 78.77804601 -31 81.375 C-34.44607782 85.44896488 -38.15123743 89.18368874 -41.94897461 92.92895508 C-45.19819428 96.15251567 -48.22376321 99.49261441 -51.19140625 102.97265625 C-54.17650116 106.31879936 -57.40882768 109.41593952 -60.59765625 112.56640625 C-62.63714373 114.63242365 -64.555078 116.73005549 -66.4375 118.9375 C-69.74346118 122.80617798 -73.33144678 126.36064305 -76.95068359 129.93115234 C-80.19984173 133.15350409 -83.22436334 136.49331816 -86.19140625 139.97265625 C-89.17650116 143.31879936 -92.40882768 146.41593952 -95.59765625 149.56640625 C-97.63714373 151.63242365 -99.555078 153.73005549 -101.4375 155.9375 C-104.74346118 159.80617798 -108.33144678 163.36064305 -111.95068359 166.93115234 C-115.19984173 170.15350409 -118.22436334 173.49331816 -121.19140625 176.97265625 C-124.17650116 180.31879936 -127.40882768 183.41593952 -130.59765625 186.56640625 C-132.63714373 188.63242365 -134.555078 190.73005549 -136.4375 192.9375 C-139.74346118 196.80617798 -143.33144678 200.36064305 -146.95068359 203.93115234 C-150.19984173 207.15350409 -153.22436334 210.49331816 -156.19140625 213.97265625 C-159.17528004 217.31743054 -162.40619732 220.41335157 -165.59375 223.5625 C-167.65449345 225.65000635 -169.59515626 227.77169223 -171.5 230 C-174.91310672 233.99269088 -178.61308153 237.64957939 -182.375 241.3125 C-184.44097155 243.42766135 -186.38430413 245.56359145 -188.31640625 247.796875 C-192.04650448 252.09501362 -195.94297737 256.19769739 -199.9375 260.25 C-200.60201172 260.94351562 -201.26652344 261.63703125 -201.95117188 262.3515625 C-209.77258907 270.27160086 -217.03952874 273.2169043 -228.125 273.3125 C-239.4231067 273.30174786 -246.50082099 270.39426749 -254.796875 262.515625 C-262.69889285 253.49275355 -263.66722978 243.51795788 -263.15283203 232.03222656 C-262.07140827 217.65240013 -247.34483907 206.15273665 -237.671875 196.66796875 C-234.90690997 193.90704606 -232.36857311 191.03247841 -229.83984375 188.05859375 C-227.04302058 184.92923959 -224.03524652 182.01458371 -221.04882812 179.06835938 C-217.79982958 175.84617513 -214.77548608 172.50650526 -211.80859375 169.02734375 C-208.82349884 165.68120064 -205.59117232 162.58406048 -202.40234375 159.43359375 C-200.36285627 157.36757635 -198.444922 155.26994451 -196.5625 153.0625 C-193.25653882 149.19382202 -189.66855322 145.63935695 -186.04931641 142.06884766 C-182.80015827 138.84649591 -179.77563666 135.50668184 -176.80859375 132.02734375 C-173.82349884 128.68120064 -170.59117232 125.58406048 -167.40234375 122.43359375 C-165.36285627 120.36757635 -163.444922 118.26994451 -161.5625 116.0625 C-158.69827645 112.71074904 -155.63665907 109.59443583 -152.5 106.5 C-149.38420877 103.42609473 -146.34122762 100.33297855 -143.5 97 C-140.2176661 93.14956985 -136.64745151 89.61854421 -133.04907227 86.06860352 C-129.79999393 82.84633552 -126.77556137 79.50659355 -123.80859375 76.02734375 C-120.82349884 72.68120064 -117.59117232 69.58406048 -114.40234375 66.43359375 C-112.36285627 64.36757635 -110.444922 62.26994451 -108.5625 60.0625 C-105.25653882 56.19382202 -101.66855322 52.63935695 -98.04931641 49.06884766 C-94.80015827 45.84649591 -91.77563666 42.50668184 -88.80859375 39.02734375 C-85.82349884 35.68120064 -82.59117232 32.58406048 -79.40234375 29.43359375 C-77.36285627 27.36757635 -75.444922 25.26994451 -73.5625 23.0625 C-70.25803496 19.19557282 -66.67477631 15.63885383 -63.05151367 12.07543945 C-60.34924101 9.40199847 -57.8077969 6.66935628 -55.375 3.75 C-48.73896871 -3.96300057 -41.54282025 -8.51860674 -31.6875 -10.75 C-18.89460178 -11.61731513 -9.73478278 -8.12329289 0 0 Z " fill="#ffffff" transform="translate(282,239)"/>
</svg>