<svg id="Layer_1" data-name="Layer 1" xmlns="http://www.w3.org/2000/svg" viewBox="0 0 750 750"><defs><style>.cls-1{fill:#dadaf2;}.cls-2,.cls-21{fill:#aeaecc;}.cls-3{fill:#e9e9fe;}.cls-4{fill:#f7f8ff;}.cls-5{fill:#d7dcff;}.cls-6{fill:#91cdf8;}.cls-7{fill:#2b284f;}.cls-8{fill:#fff;}.cls-9{fill:#484777;}.cls-10,.cls-11,.cls-13,.cls-14,.cls-15,.cls-19,.cls-20,.cls-30{fill:none;}.cls-10{stroke:#d7dcff;}.cls-10,.cls-11,.cls-13,.cls-14,.cls-20{stroke-miterlimit:10;}.cls-11,.cls-13,.cls-14{stroke:#4549c3;}.cls-12{fill:#4549c3;}.cls-13{stroke-dasharray:8.3 8.3;}.cls-14{stroke-dasharray:8.25 8.25;}.cls-15{stroke:#f36290;}.cls-15,.cls-19{stroke-linecap:round;stroke-linejoin:round;}.cls-16{fill:#f36290;}.cls-17{fill:#72c0e3;}.cls-18{fill:#7f85fc;}.cls-19,.cls-20,.cls-30{stroke:#3c46b6;}.cls-21{opacity:0.61;isolation:isolate;}.cls-22{fill:#4fa0ff;}.cls-23{fill:#18156f;}.cls-24{fill:#fe95ac;}.cls-25{fill:#6fbdfd;}.cls-26{fill:#ff7d9f;}.cls-27{fill:#ffb6d6;}.cls-28{fill:#3c88d3;}.cls-29{fill:#e8809c;}.cls-30{stroke-miterlimit:10;}.cls-31{fill:#3c46b6;}.cls-32{fill:#2d3991;}.cls-33{fill:#3341a0;}.cls-34{fill:#b9c2ea;}.cls-35{fill:#e57693;}.cls-36{fill:#d85082;}.cls-37{fill:#9281ff;}.cls-38{fill:#7a6cf1;}.cls-39{fill:#5b65d7;}.cls-40{fill:#3c49aa;}</style></defs><g id="OBJECTS"><polygon class="cls-1" points="426.32 609.96 628.82 558.37 740.48 591.14 549.52 650 426.32 609.96"/><polygon class="cls-2" points="545.04 592.92 635.8 569.81 685.83 584.48 600.25 610.87 545.04 592.92"/><polygon class="cls-3" points="307.73 608.04 510.24 556.44 621.89 589.21 430.93 648.07 307.73 608.04"/><polygon class="cls-1" points="430.23 594.46 521 571.34 571.04 586.02 485.45 612.41 430.23 594.46"/><path class="cls-4" d="M139.88,526.8S75.2,539.51,69.42,477.17s88.94-49.63,57.75-112S25.54,322.4,27.84,221.91,144.5,127.16,163,165.28s83.16,56.6,138.59,30,135.1-79.69,198.63-63.53,83.16,45.05,79.7,92.4S558,323.52,599.56,357s78.54,110.88,0,154.81c0,0-25.4,14.83-41.57,16.08Z"/><rect class="cls-5" x="137.56" y="212.64" width="425.11" height="314.56"/><rect class="cls-6" x="137.56" y="212.64" width="425.11" height="16.77"/><rect class="cls-7" x="137.56" y="229.41" width="15.02" height="297.79"/><rect class="cls-7" x="545.29" y="229.41" width="17.4" height="297.79"/><path class="cls-7" d="M150.56,221a4.09,4.09,0,1,1-4.09-4.09,4.09,4.09,0,0,1,4.09,4.09Z"/><path class="cls-7" d="M163,221a4.09,4.09,0,1,1-4.09-4.09A4.09,4.09,0,0,1,163,221Z"/><path class="cls-7" d="M175.45,221a4.1,4.1,0,1,1-4.11-4.09h0A4.1,4.1,0,0,1,175.45,221Z"/><rect class="cls-8" x="216.51" y="285.43" width="262.57" height="172.48"/><rect class="cls-9" x="152.58" y="229.41" width="392.71" height="14.8"/><path class="cls-7" d="M208,154h11.63S218.16,166,229,168.4l-13.25,34.39-16.46-33.57S209,166.31,208,154Z"/><rect class="cls-7" x="207.98" y="144.99" width="11.63" height="5.5"/><line class="cls-10" x1="215.73" y1="202.79" x2="214.76" y2="168.73"/><circle class="cls-5" cx="214.8" cy="167.34" r="2.17"/><polyline class="cls-11" points="138.12 193.43 215.73 202.81 303.57 171.48"/><circle class="cls-12" cx="137.11" cy="193.43" r="1.45"/><circle class="cls-12" cx="304.38" cy="170.97" r="1.45"/><path class="cls-11" d="M562.68,429s1.73-.34,4.56-1.18"/><path class="cls-13" d="M576.4,424.31c10.08-4.53,23.41-12.92,31.64-27.64,14.63-26.19,11.54-52-7.71-68.35C587,317,581.08,309,579.7,301.72"/><path class="cls-11" d="M579.43,296.85a22,22,0,0,1,.88-4.63"/><path class="cls-11" d="M137.56,305a46,46,0,0,0-4.65-.78"/><path class="cls-14" d="M123.18,303.76c-9.17.17-21.39,2.15-32.58,9.75-21.57,14.63-30,49.28,0,80.84,23.7,24.94,36.37,35.46,42.93,46"/><path class="cls-11" d="M135.84,444.62a36.82,36.82,0,0,1,1.7,4.41"/><path class="cls-15" d="M207.92,566s13-2.07,17.73-13.66S231,537,231,528.08s5-13.86,9.62-15.79"/><path class="cls-16" d="M220.92,559.19s-10.88-7.45-7.46-13.47S225.32,550.28,220.92,559.19Z"/><path class="cls-16" d="M228.48,545.31s5.3-12.08,11.82-9.84S238.06,548,228.48,545.31Z"/><path class="cls-16" d="M230.77,533.2S218,530,219.11,523.13,231.86,523.36,230.77,533.2Z"/><path class="cls-16" d="M239.34,512.82s3.68-12.67,10.46-11.29S249.19,514.29,239.34,512.82Z"/><path class="cls-15" d="M586.81,539.47s13.1-2.11,17.73-13.66,5.39-15.36,5.39-24.26,5-13.85,9.62-15.78"/><path class="cls-16" d="M599.81,532.66s-10.88-7.45-7.45-13.47S604.24,523.74,599.81,532.66Z"/><path class="cls-16" d="M607.42,518.79s5.28-12.08,11.82-9.84S617,521.5,607.42,518.79Z"/><path class="cls-16" d="M609.72,506.73s-12.79-3.24-11.66-10.07S610.8,496.85,609.72,506.73Z"/><path class="cls-16" d="M618.28,486.3S622,473.64,628.74,475,628.13,487.73,618.28,486.3Z"/><ellipse class="cls-17" cx="129.81" cy="566.33" rx="32.72" ry="5.01"/><ellipse class="cls-17" cx="195.25" cy="566.33" rx="32.72" ry="5.01"/><path class="cls-17" d="M226.16,550.92c.63,2.69-13.07,8.27-30.65,12.55s-32.33,5.52-33,2.83,13.07-8.28,30.63-12.55S225.51,548.26,226.16,550.92Z"/><path class="cls-17" d="M221.55,538c1.18,2.5-11.05,10.85-27.35,18.66s-30.47,12.13-31.67,9.63,11.05-10.85,27.35-18.66S220.35,535.56,221.55,538Z"/><path class="cls-17" d="M213.51,525.29c1.74,2.15-8.27,13.08-22.34,24.42s-26.9,18.77-28.64,16.58,8.27-13.09,22.36-24.42S211.77,523.14,213.51,525.29Z"/><path class="cls-17" d="M202.91,514.83c2.18,1.7-5.09,14.62-16.25,28.84s-21.95,24.38-24.13,22.62,5.11-14.62,16.25-28.84S200.74,513.11,202.91,514.83Z"/><path class="cls-17" d="M189.2,506.56c2.53,1.18-1.4,15.42-8.77,31.91s-15.37,29-17.9,27.82,1.41-15.37,8.76-31.91S186.65,505.44,189.2,506.56Z"/><path class="cls-17" d="M174,501.9c2.73.49,2.36,15.37-.81,33.09s-7.95,31.83-10.63,31.34-2.37-15.36.81-33.09S171.29,501.42,174,501.9Z"/><path class="cls-17" d="M157.6,501.06c2.77-.2,6.1,14.24,7.46,32.27s.22,32.8-2.53,33-6.08-14.18-7.46-32.25S154.85,501.29,157.6,501.06Z"/><ellipse class="cls-17" cx="152.67" cy="535.12" rx="5.01" ry="32.72" transform="translate(-154.34 71) rotate(-17.56)"/><path class="cls-17" d="M125.41,512.43c2.27-1.57,12.43,9.23,22.68,24.11s16.72,28.23,14.44,29.79-12.43-9.23-22.68-24.11S123.13,514,125.41,512.43Z"/><path class="cls-17" d="M112.32,524.36c1.77-2.12,14.44,5.56,28.36,17.14s23.64,22.72,21.9,24.82-14.45-5.55-28.36-17.15S110.55,526.48,112.32,524.36Z"/><path class="cls-17" d="M103.17,538.76c1.18-2.51,15.37,1.63,31.79,9.24s28.74,15.83,27.57,18.33-15.36-1.63-31.79-9.25S102,541.27,103.17,538.76Z"/><path class="cls-17" d="M98.61,552.28c.59-2.7,15.36-1.75,33.09,2.14s31.47,9.22,30.88,11.91-15.36,1.75-33.09-2.14S98,555,98.61,552.28Z"/><path class="cls-18" d="M589.94,560.1c0,2.77-14.65,5-32.72,5s-32.72-2.23-32.72-5,14.65-5,32.72-5S589.94,557.34,589.94,560.1Z"/><path class="cls-18" d="M655.4,560.1c0,2.77-14.65,5-32.73,5s-32.73-2.23-32.73-5,14.66-5,32.73-5S655.4,557.34,655.4,560.1Z"/><path class="cls-18" d="M653.57,544.72c.64,2.69-13.07,8.27-30.64,12.56s-32.34,5.51-33,2.82,13.07-8.27,30.64-12.55S652.92,542,653.57,544.72Z"/><path class="cls-18" d="M649,531.81c1.18,2.49-11.05,10.84-27.34,18.66s-30.48,12.13-31.68,9.63,11-10.84,27.35-18.65S647.77,529.32,649,531.81Z"/><ellipse class="cls-18" cx="615.43" cy="539.56" rx="32.72" ry="5.01" transform="translate(-202.31 505.26) rotate(-38.84)"/><ellipse class="cls-18" cx="610.11" cy="534.28" rx="32.72" ry="5.01" transform="translate(-186.76 684.87) rotate(-51.91)"/><path class="cls-18" d="M616.62,500.33c2.53,1.12-1.4,15.42-8.77,31.91s-15.36,29-17.91,27.84,1.41-15.36,8.77-31.91S614.09,499.21,616.62,500.33Z"/><path class="cls-18" d="M601.44,495.66c2.73.49,2.37,15.31-.8,33.09s-7.95,31.83-10.64,31.34-2.36-15.3.82-33.09S598.7,495.18,601.44,495.66Z"/><path class="cls-18" d="M585,494.84c2.76-.2,6.09,14.18,7.45,32.26s.23,32.79-2.53,33-6.08-14.18-7.45-32.26S582.26,495.05,585,494.84Z"/><path class="cls-18" d="M570.2,497.74c2.63-.83,9.19,12.46,14.64,29.69s7.74,31.91,5.1,32.71-9.19-12.46-14.64-29.69S567.56,498.54,570.2,497.74Z"/><ellipse class="cls-18" cx="571.38" cy="533.11" rx="5.01" ry="32.72" transform="translate(-201.59 418.2) rotate(-34.56)"/><path class="cls-18" d="M539.73,518.13c1.77-2.12,14.45,5.55,28.36,17.15S591.73,558,590,560.09s-14.45-5.55-28.36-17.14S538,520.26,539.73,518.13Z"/><path class="cls-18" d="M530.54,532.52c1.18-2.5,15.36,1.65,31.79,9.26s28.74,15.82,27.57,18.32-15.37-1.63-31.79-9.25S529.43,535,530.54,532.52Z"/><path class="cls-18" d="M526,546c.59-2.69,15.37-1.74,33.09,2.14s31.47,9.23,30.88,11.92-15.36,1.74-33-2.13S525.43,548.75,526,546Z"/><path class="cls-18" d="M178,573.77s-18.78-1.93-27.18-10.78-5.43-12.71,0-13.86,9.11,1.18,4.57-7.7-6.25-13.09,0-13.48,9.32,4.62,12,1.55-.39-15.79,9.24-20.41,15.7,3.46,9.58,14.18-2.27,13.48,5,12.33,13,4.62,9.45,8.08-15.57,6.16-11.33,8.47,14.52,2.7,12.46,7.32S181.73,572.19,178,573.77Z"/><path class="cls-19" d="M173.83,534.12s-4,22.45,4.21,39.65"/><path class="cls-1" d="M242.62,418.64s2.36-28.53,12.65-39.16,22.59-3.55,28.24,6,15.29-32,33.82-47.44,30.35,1.8,38.56,23.74,31.72,16.3,43.06-3.72,14.43-33.36,32.39-31.31,15.37,91.89,15.37,91.89Z"/><path class="cls-20" d="M257.74,418.64s2.37-28.53,12.66-39.16,22.58-3.55,28.23,6,15.29-32,33.82-47.44,30.35,1.8,38.55,23.8,31.72,16.3,43.07-3.72,14.42-33.36,32.39-31.32,15.36,91.9,15.36,91.9"/><ellipse class="cls-21" cx="337.94" cy="614.71" rx="69.25" ry="8.22"/><path class="cls-22" d="M310.31,456.73s1.53-5.65,12.54-8.35c8.88-2.17,28.52-6.54,28.52-6.54l29.77-33.91,5.65,4.37s-20,28-23.87,34.65-9,12.84-9.75,16.69S348.8,497,348.8,497s-15.36,4.88-29.77,2.06c0,0-2.82-24.64-3.85-30,0,0-5.65,8.21-8.22,10s-38.24,1-38.24,1-2.05-4.12,0-5.65c0,0,26.18-3.09,29.77-3.86S310.31,456.73,310.31,456.73Z"/><path class="cls-23" d="M331.86,405.91s-13.34-4.1-19,10.64-4.11,23.22-6.93,28.09c0,0,10.53,5.65,27.18,3.08s18.22-5.91,18.22-5.91S352.65,409,331.86,405.91Z"/><path class="cls-24" d="M356,523C354.45,517.3,348.8,497,348.8,497s-15.36,4.88-29.77,2.06c0,0-4.88,31.06-6.16,47s-4.37,24.39-5.65,31.84-1.79,24.38-1.79,24.38,5.39,1.79,8.47,0c0,0,7.19-22.08,8.46-27.73s.26-11.81,2.83-18.22,11.54-32.57,11.54-32.57,11.58,31.57,11.58,37.48,14.18,39.26,14.18,39.26a10,10,0,0,0,7.44-1.28s-3.84-23.09-6.42-35.68S357.53,528.6,356,523Z"/><path class="cls-25" d="M305.43,602.26s-3.95,10.78-1,11.26a61.29,61.29,0,0,0,11.17,0c1.83-.19-1.73-11.26-1.73-11.26C310.82,604.1,305.43,602.26,305.43,602.26Z"/><path class="cls-25" d="M369.82,599.17a10,10,0,0,1-7.43,1.29S359.06,613,362,613.52a61.29,61.29,0,0,0,11.17,0C375.06,613.33,369.82,599.17,369.82,599.17Z"/><path class="cls-26" d="M330.82,522.56c2,.19,4,.33,5.91.32,1,0,1.95,0,2.92-.09s2-.18,3-.23a11.74,11.74,0,0,1-5.91,1.5,13.68,13.68,0,0,1-3.06-.35A9.18,9.18,0,0,1,330.82,522.56Z"/><path class="cls-27" d="M268.72,474.44s-3.33-2.12-5-3.27-4.73-3-5.78-2.6.48,1.58,1.45,2.9l1,1.33a21.16,21.16,0,0,1-4.43-.1c-2.79-.28-5.3-1.05-5.67-.48s.95,1.55,3.17,2.22,2.7,1.35,1.26,1.83-5.69.19-6.08.86.3,1.45,2.9,1.45,3.54.39,3.46.76-3.46,2.7-3.54,3.28,1.72.28,5.29-1.44c0,0,2-.77.86.86s-2,4.24.58,2.36,3.46-3.18,4.42-3.66,6.13-.6,6.13-.6S266.67,476,268.72,474.44Z"/><path class="cls-27" d="M393.6,402.8c3.37-2.09,4.59-3.54,4-3.71s-4.29,1.38-4.67,1.27-.19-1.19,1.19-3.35,1.09-3.18.33-3.21-2.8,3.71-4,4.67-1.51.2-.89-2,.52-3.88-.18-3.86-1.37,2.54-2.62,5.06a22.82,22.82,0,0,1-2.28,3.79L384,399.9c-.61-1.53-.8-3.47-1.69-2.78s-1,4.28-.88,6.27c0,1.33.09,3.55.1,4.84l5,3.84a28.33,28.33,0,0,1,3.6-4.56c.92-.56,2.43-.63,5.45-1.8s.35-1.82-1.64-1.71S393.6,402.8,393.6,402.8Z"/><polygon class="cls-28" points="315.18 469.05 314.19 462.21 313.39 471.56 315.18 469.05"/><path class="cls-29" d="M315.18,561.64c1.66-8.67,4.88-18.67,6.14-34.79.81-10.28,1.62-20.85,2.12-27.18-1.47-.14-2.94-.34-4.41-.63,0,0-4.88,31.06-6.16,47s-4.37,24.39-5.65,31.83-1.79,24.38-1.79,24.38a18,18,0,0,0,4,.76C310.59,593.76,313.83,568.65,315.18,561.64Z"/><path class="cls-29" d="M354.86,568.27c-4.86-16.65-9.39-27.18-11.3-33.09s-6.83-11.44-6.83-11.44,11.58,31.57,11.58,37.48,14.18,39.26,14.18,39.26a9.14,9.14,0,0,0,2.5.22C362.86,594.38,358.45,580.62,354.86,568.27Z"/><rect class="cls-12" x="599.72" y="232.14" width="7.2" height="17.67" transform="translate(18.95 524.82) rotate(-47.68)"/><path class="cls-7" d="M604,246.52l-6.52-5.91L581,258.75l1.57,1.44a4.41,4.41,0,1,0,3.48,5.17,4.27,4.27,0,0,0-.1-2.1l1.59,1.43Z"/><path class="cls-12" d="M603.66,236.46s2.58-9.38,6.82-10.16,7.59,3.81,5.65,6.91-8.35,7-8.35,7Z"/><path class="cls-1" d="M666,305.55v-7.7h-4.47a16.38,16.38,0,0,0-1.94-4.72l3.16-3.15-5.45-5.45-3.1,3.11a16.61,16.61,0,0,0-4.72-2v-4.33h-7.7v4.23a16.5,16.5,0,0,0-4.91,2l-2.95-3L628.52,290l2.89,2.9a16.54,16.54,0,0,0-2.08,5h-4.06v7.69h4.05a16.65,16.65,0,0,0,2.08,5l-2.92,2.88,5.45,5.45,2.93-2.93a16,16,0,0,0,4.93,2v4.2h7.69V317.8a16.69,16.69,0,0,0,4.73-2l3.08,3.08,5.45-5.45-3.13-3.13a16.51,16.51,0,0,0,1.92-4.73Zm-20.41,3.72a7.58,7.58,0,1,1,7.57-7.58h0a7.57,7.57,0,0,1-7.57,7.57Z"/><path class="cls-1" d="M54.17,333.69V326H49.7a16.56,16.56,0,0,0-1.94-4.73l3.16-3.15-5.45-5.44-3.11,3.09a16.27,16.27,0,0,0-4.73-2V309.4h-7.7v4.23a16.74,16.74,0,0,0-4.91,2l-2.94-2.94-5.47,5.46,2.9,2.89a17,17,0,0,0-2.1,5H13.36v7.7h4.05a16.86,16.86,0,0,0,2.08,5l-2.88,2.88L22.06,347,25,344.05a16.85,16.85,0,0,0,4.92,2v4.2h7.71v-4.3a16.69,16.69,0,0,0,4.73-2L45.42,347l5.45-5.45-3.14-3.13a16.54,16.54,0,0,0,1.93-4.73Zm-20.41,3.73a7.58,7.58,0,1,1,7.57-7.58,7.58,7.58,0,0,1-7.57,7.58Z"/><path class="cls-1" d="M280.43,152.38v-6.06h-3.54a13,13,0,0,0-1.53-3.7l2.49-2.48-4.29-4.29-2.44,2.44a13.14,13.14,0,0,0-3.74-1.59v-3.41h-6.05v3.33a12.89,12.89,0,0,0-3.87,1.56l-2.36-2.37-4.28,4.29,2.28,2.28a12.89,12.89,0,0,0-1.64,3.9h-3.2v6.06h3.19a13,13,0,0,0,1.64,3.92l-2.21,2.32,4.31,4.26,2.31-2.37a12.8,12.8,0,0,0,3.85,1.66v3.3h6V162a13.16,13.16,0,0,0,3.76-1.6l2.42,2.42,4.29-4.26-2.47-2.47a13.07,13.07,0,0,0,1.52-3.71Zm-16.06,2.93a5.91,5.91,0,1,1,5.91-5.91A5.91,5.91,0,0,1,264.37,155.31Z"/><circle class="cls-1" cx="269.9" cy="329.5" r="15.89" transform="translate(-153.94 287.36) rotate(-45)"/><circle class="cls-30" cx="278.5" cy="329.5" r="15.89" transform="translate(-151.42 293.44) rotate(-45)"/><path class="cls-31" d="M495.64,568.27s-4-5.35,2.68-12c0,0-3.87-22.68,19.24-25.73,0,0,4.36-15.27,17.46-17s23.55,6.55,26.6,17.9c0,0,10-3.55,19.19,2.61s8.27,18.75,8.27,18.75,10,3.55,6.1,15.53Z"/><path class="cls-32" d="M518.46,550a22.39,22.39,0,0,1,12.08-12.71c-1.25-12.61,3.86-20,8.84-24.05a27.37,27.37,0,0,0-4.34.2c-13.09,1.75-17.45,17-17.45,17-23.12,3-19.24,25.73-19.24,25.73-6.7,6.69-2.68,12-2.68,12h27.78C518.25,563.38,516.06,556.45,518.46,550Z"/><rect class="cls-12" x="31.81" y="477.38" width="15.4" height="120.48" transform="translate(-33.68 3.54) rotate(-3.6)"/><rect class="cls-5" x="27.82" y="470.95" width="15.4" height="6.55" transform="translate(-29.71 3.17) rotate(-3.6)"/><path class="cls-24" d="M33.39,458.73l2.36-.15a6.53,6.53,0,0,1,6.94,6.12h0l.37,5.77h0l-15.34,1h0l-.36-5.77A6.55,6.55,0,0,1,33.39,458.73Z"/><polygon class="cls-33" points="39.91 597.93 32.35 477.7 28.06 477.96 35.64 598.2 51 597.24 51 597.24 39.91 597.93"/><polygon class="cls-34" points="32.35 477.7 31.94 471.17 27.65 471.44 28.06 477.96 43.44 477 43.44 477 32.35 477.7"/><path class="cls-35" d="M31.68,465.47A6.53,6.53,0,0,1,37,458.63a7,7,0,0,0-1.29,0l-2.36.15a6.53,6.53,0,0,0-6.12,6.91v0l.35,5.77L32,471.2Z"/><rect class="cls-16" x="24.23" y="542.64" width="120.48" height="15.4" transform="translate(-470.09 500.71) rotate(-76.16)"/><polygon class="cls-5" points="106.35 493.69 104.32 469.76 91.4 490 106.35 493.69"/><polygon class="cls-36" points="73.81 609.75 77.54 610.67 77.54 610.67 73.81 609.75"/><polygon class="cls-36" points="98.33 491.72 101.65 492.53 91.4 490 62.58 606.99 69.52 608.7 98.33 491.72"/><polygon class="cls-34" points="98.33 491.72 104.32 469.76 91.4 490 98.33 491.72"/><rect class="cls-37" x="51" y="364.94" width="26.99" height="243.89"/><rect class="cls-38" x="51" y="364.94" width="10.38" height="243.89"/><path class="cls-39" d="M28.11,618.66s32.72,9.62,74.29,0l11.17-104.73H16.17Z"/><path class="cls-40" d="M32.22,544a160.72,160.72,0,0,1-9.36-30H16.17L28.11,618.66s32.72,9.62,74.29,0C56.66,607.34,43.93,572,32.22,544Z"/></g></svg>