<svg version="1.1" xmlns="http://www.w3.org/2000/svg" width="512px" height="512px" transform="rotate(0) scale(1, 1)">
<path d="M0 0 C7.77656404 3.77574692 13.42658888 8.37970369 19.45780903 14.52217966 C20.42996201 15.4902737 21.40342884 16.45704982 22.37807465 17.42263412 C25.02668811 20.05410284 27.65645425 22.70370471 30.2832672 25.35691136 C33.12910129 28.22468201 35.99236754 31.07495976 38.85343891 33.92751414 C44.44394526 39.50679254 50.01844241 45.10180393 55.58766646 50.7023176 C62.076571 57.2263948 68.58166165 63.73423322 75.08751719 70.24139952 C86.6930053 81.85025848 98.2843307 93.47315474 109.86746174 105.10431772 C121.10492696 116.38834748 132.35148811 127.66320176 143.60867268 138.92755991 C144.30278075 139.62211352 144.99688883 140.31666713 145.71203048 141.03226782 C147.11036016 142.43148271 148.50869043 143.83069703 149.90702128 145.22991076 C150.5968182 145.92014681 151.28661513 146.61038287 151.99731499 147.32153517 C152.68538571 148.01003786 153.37345642 148.69854055 154.08237777 149.40790695 C164.8175274 160.1504568 175.54501352 170.90065736 186.27143766 181.65191864 C190.15765046 185.54699863 194.04485733 189.44108335 197.93275566 193.33448089 C204.09593719 199.50652601 210.25575432 205.68188825 216.40878267 211.86405671 C219.21988515 214.68837037 222.03250527 217.51112473 224.84943348 220.329629 C227.4273923 222.90916209 230.00067701 225.49326389 232.57028275 228.08111726 C233.94208228 229.46030795 235.31875512 230.83464614 236.69558966 232.20881045 C237.91612065 233.44086487 237.91612065 233.44086487 239.16130883 234.69780928 C239.86450125 235.4034947 240.56769368 236.10918012 241.29219496 236.83624995 C247.25580721 243.61877047 247.50020524 249.70581693 247.43655354 258.46247202 C247.06050354 263.06264532 245.83772098 266.24462151 243.15139729 269.95075327 C242.26387776 271.19212046 242.26387776 271.19212046 241.35842854 272.45856577 C236.98999574 277.39141555 230.72516721 280.305826 224.27249104 281.47028452 C217.14903711 281.74387379 210.22086273 280.41364056 204.67727619 275.69635874 C202.07875484 273.2678264 199.62719184 270.72264136 197.20608479 268.11872202 C195.07574204 265.84447133 192.85151278 263.78723635 190.48091847 261.76567847 C186.07569868 257.93584771 181.94240927 253.87841692 177.82437092 249.74398142 C176.62580409 248.54669622 176.62580409 248.54669622 175.40302378 247.32522345 C172.74450472 244.66834251 170.08955937 242.00791989 167.43460041 239.34748179 C165.52260847 237.43464951 163.60986017 235.52257421 161.69714314 233.61046702 C157.58897542 229.5028219 153.48263259 225.39335987 149.3775478 221.28263384 C143.44238952 215.33932477 137.5044493 209.39880146 131.56584144 203.45893949 C121.92931504 193.82022819 112.29502074 184.17928904 102.66213948 174.53693491 C93.30849823 165.17410501 83.9538001 155.81233316 74.59768635 146.45197397 C74.020311 145.8743359 73.44293564 145.29669782 72.84806406 144.70155556 C69.95133655 141.80352294 67.05458834 138.90551103 64.15782982 136.00750941 C40.1524744 111.99179886 16.15074549 87.97246694 -7.84860271 63.95075327 C-10.92739404 65.32366769 -13.03479082 66.88844738 -15.41068691 69.26953512 C-16.10342984 69.95891265 -16.79617276 70.64829018 -17.5099079 71.35855794 C-18.63985706 72.4982688 -18.63985706 72.4982688 -19.79263347 73.66100413 C-20.59895001 74.46631738 -21.40526655 75.27163064 -22.23601693 76.10134733 C-24.94596378 78.81033898 -27.64868671 81.52642592 -30.3515324 84.24250132 C-32.28886036 86.18314881 -34.22770601 88.12227739 -36.16650432 90.06145579 C-40.34614417 94.24345873 -44.52215779 98.42905462 -48.69579357 102.61704928 C-54.7383774 108.68032182 -60.78696101 114.73758035 -66.837118 120.79329506 C-76.66366946 130.62910584 -86.48611328 140.46900762 -96.30563396 150.31183726 C-96.8934152 150.9010118 -97.48119643 151.49018635 -98.08678922 152.09721468 C-98.67528106 152.68710204 -99.26377289 153.27698941 -99.87009782 153.88475215 C-108.20240061 162.23679798 -116.53565518 170.58789258 -124.87008709 178.93781382 C-125.45593809 179.52475567 -126.0417891 180.11169753 -126.64539316 180.7164255 C-136.42523371 190.51431005 -146.20711984 200.31015073 -155.99005097 210.10494936 C-162.02085368 216.1433302 -168.04957271 222.18377798 -174.07558224 228.22694228 C-178.20888638 232.3718456 -182.34390824 236.51502984 -186.48026314 240.65688869 C-188.86431045 243.04425598 -191.24722076 245.43273023 -193.62846035 247.82289988 C-196.21553143 250.41945706 -198.80570703 253.01287873 -201.39663738 255.6055842 C-202.14101393 256.35423784 -202.88539048 257.10289147 -203.6523239 257.87423158 C-207.69770708 261.91525596 -211.83831848 265.78053439 -216.17601556 269.50689447 C-217.51147173 270.65972537 -218.81154064 271.85350758 -220.09860271 273.06012827 C-226.67604825 279.22648347 -232.81270359 281.7143321 -241.90719646 281.42340952 C-249.2493877 280.24358862 -255.87909419 276.77950872 -260.47360271 270.88825327 C-265.41941348 263.55946095 -265.46886809 256.59445142 -264.84860271 247.95075327 C-262.93150956 238.19100631 -252.1319862 230.0827152 -245.43180889 223.37333018 C-244.50324477 222.43967823 -243.57468064 221.50602629 -242.61797822 220.54408187 C-240.05963445 217.97195157 -237.49823526 215.40288371 -234.93625027 212.83438092 C-232.73459606 210.62631783 -230.53477509 208.41643278 -228.33496384 206.20653383 C-221.09568732 198.9340843 -213.8506389 191.66739983 -206.60395858 184.40232873 C-204.71614974 182.5097174 -202.82843096 180.6170163 -200.94073123 178.72429615 C-189.20120204 166.95380629 -177.45952314 155.18546358 -165.71290344 143.42204958 C-162.99777156 140.70296873 -160.28266677 137.98386084 -157.56759685 135.26471812 C-156.89284292 134.58895582 -156.21808899 133.91319353 -155.52288797 133.21695359 C-144.58686229 122.26391197 -133.66294964 111.29887017 -122.74385468 100.32895295 C-111.51794929 89.05122997 -100.28070486 77.78490408 -89.03248608 66.52943534 C-82.7233457 60.21563999 -76.41930891 53.89692644 -70.12807697 47.56528193 C-64.77238068 42.1752222 -59.40653704 36.79552878 -54.02731446 31.42894356 C-51.28600548 28.69344504 -48.54970044 25.95340533 -45.82645458 23.19991404 C-43.32796585 20.67390468 -40.81572331 18.16243725 -38.2923369 15.66130681 C-36.96232848 14.33600343 -35.64698116 12.99603543 -34.33241391 11.65541452 C-24.98955004 2.45678236 -13.31911551 -4.9059275 0 0 Z " fill="#ffffff" transform="translate(264.8486027121544,116.04924672842026)"/>
</svg>