<svg version="1.1" xmlns="http://www.w3.org/2000/svg" width="512px" height="512px" transform="rotate(0) scale(1, 1)">
<path d="M0 0 C16.83 0 33.66 0 51 0 C55.47055477 11.17638691 55.47055477 11.17638691 56.75390625 15.12890625 C67.40037618 47.19804318 82.03257907 78.95746383 101 107 C101.20044922 106.46745605 101.40089844 105.93491211 101.60742188 105.38623047 C113.15369891 74.96925236 129.86930145 50.26372051 160.01757812 35.88427734 C184.02345154 25.17623874 211.86934773 25.66415819 236.37109375 34.4921875 C247.01279624 38.91382061 256.32575118 44.36082961 265 52 C265.81855469 52.67546875 266.63710938 53.3509375 267.48046875 54.046875 C283.00996505 67.24092767 292.51873046 84.59274078 298 104 C298.35191406 105.23556641 298.35191406 105.23556641 298.7109375 106.49609375 C305.3923557 134.4321684 298.63296061 163.36177855 283.94140625 187.43359375 C268.92574525 210.38413616 246.36663372 224.46237156 220 231 C188.63420266 237.04900175 157.58083649 228.62563873 130 214 C129.94918022 214.6089637 129.89836044 215.2179274 129.84600067 215.84534454 C129.29680306 221.90223402 128.38112517 227.77813341 127.15820312 233.73242188 C126.97434555 234.64750519 126.79048798 235.5625885 126.60105896 236.50540161 C125.99924875 239.49417539 125.39043393 242.48147122 124.78125 245.46875 C124.35874371 247.55709953 123.93658942 249.64552031 123.51477051 251.73400879 C122.63351626 256.091855 121.74894675 260.44901034 120.86181641 264.80566406 C119.72323178 270.39790436 118.59158163 275.99152013 117.46219635 281.58562469 C116.59285341 285.88904915 115.72060927 290.19188129 114.84739685 294.49452209 C114.42881649 296.55812257 114.01097808 298.62187369 113.59388733 300.68577576 C113.01270483 303.5586832 112.42779878 306.43080665 111.84179688 309.30273438 C111.66929916 310.1588028 111.49680145 311.01487122 111.31907654 311.8968811 C110.11442393 317.77115215 110.11442393 317.77115215 109 320 C91.84 320 74.68 320 57 320 C58.12489811 309.87591699 58.12489811 309.87591699 59.22793579 304.83296204 C59.47476608 303.69335022 59.72159637 302.5537384 59.97590637 301.3795929 C60.24505356 300.15902695 60.51420074 298.938461 60.79150391 297.6809082 C61.07940662 296.35937532 61.36687516 295.03774779 61.65394592 293.71603394 C62.26917859 290.88693992 62.88706967 288.05844478 63.50697708 285.23037148 C64.48740909 280.75565984 65.45947149 276.27915545 66.43002319 271.80229187 C69.18974653 259.07809311 71.95872546 246.35592917 74.74023438 233.63647461 C76.27918744 226.59871089 77.81027665 219.55928305 79.33280313 212.5179469 C80.29516679 208.06940749 81.26718766 203.62312576 82.2464335 199.1782738 C82.85320887 196.4130788 83.45077406 193.64595391 84.0457592 190.87820053 C84.45482746 188.98845809 84.87482015 187.10109074 85.29515076 185.21382141 C85.5363414 184.08266907 85.77753204 182.95151672 86.02603149 181.78608704 C86.34624991 180.31861259 86.34624991 180.31861259 86.67293739 178.8214922 C87.27715218 173.60907334 86.25810745 169.80001136 83.26171875 165.55859375 C82.69453125 164.73794434 82.12734375 163.91729492 81.54296875 163.07177734 C80.93066406 162.20246582 80.31835938 161.3331543 79.6875 160.4375 C70.12839312 146.50451166 62.06133704 131.83187534 54 117 C53.98541748 117.79470703 53.97083496 118.58941406 53.95581055 119.40820312 C53.30271204 151.29233386 49.0261963 178.46993769 27 203 C26.38769531 203.69480469 25.77539062 204.38960937 25.14453125 205.10546875 C11.30733114 219.88678486 -7.40797666 228.85688395 -27 233 C-27.88429688 233.19207031 -28.76859375 233.38414062 -29.6796875 233.58203125 C-56.14411457 236.9134356 -82.2167132 231.57134716 -104 216 C-107.51832498 213.16784049 -110.79516849 210.17984257 -114 207 C-114.886875 206.154375 -115.77375 205.30875 -116.6875 204.4375 C-117.8321875 203.2309375 -117.8321875 203.2309375 -119 202 C-119.51820312 201.46503906 -120.03640625 200.93007813 -120.5703125 200.37890625 C-139.77227895 179.67005902 -145.19100902 153.34177799 -145.11352539 126.10498047 C-145.11324272 124.73406476 -145.11340281 123.3631489 -145.1139679 121.99223328 C-145.11425276 118.30078089 -145.10840651 114.60936154 -145.10139394 110.91791677 C-145.09510844 107.04888677 -145.09455251 103.17985586 -145.09336853 99.31082153 C-145.09027046 91.99775008 -145.08207775 84.68469371 -145.07201904 77.37162888 C-145.0608104 69.04023957 -145.05533552 60.7088495 -145.05032361 52.37745452 C-145.03989375 35.25162614 -145.02156737 18.12581853 -145 1 C-128.5 1 -112 1 -95 1 C-94.98541748 5.11758789 -94.97083496 9.23517578 -94.95581055 13.47753906 C-94.90540312 27.10415323 -94.83894553 40.73064986 -94.76428509 54.35715103 C-94.7194221 62.61634287 -94.67998584 70.8754925 -94.65356445 79.13476562 C-94.63050713 86.33805436 -94.59702359 93.54120846 -94.55129844 100.74439025 C-94.52746989 104.55434742 -94.50867353 108.36417212 -94.50238609 112.17420197 C-94.49628785 115.76939234 -94.47612001 119.3642442 -94.44572449 122.95930862 C-94.4329074 124.88926489 -94.43450116 126.81930055 -94.4367218 128.7492981 C-94.28273623 143.21243954 -90.75292044 155.92421551 -80.8125 166.8125 C-70.82066141 175.93451336 -58.2896811 180.76200434 -44.77734375 180.27734375 C-32.49869024 179.05120535 -20.97503022 174.15570368 -12.5234375 164.94140625 C-4.82215138 155.12720317 -0.9213253 144.51645423 -0.84178162 132.03945923 C-0.8319928 130.87005798 -0.82220398 129.70065674 -0.81211853 128.49581909 C-0.80636307 127.22698883 -0.8006076 125.95815857 -0.79467773 124.65087891 C-0.78508925 123.29040231 -0.77507861 121.92992864 -0.76467896 120.56945801 C-0.73772889 116.88813127 -0.71666598 113.20679185 -0.69667697 109.52542162 C-0.67475609 105.67369324 -0.64739735 101.82200353 -0.62062073 97.9703064 C-0.57077614 90.68192134 -0.52580688 83.39351473 -0.48259836 76.10508764 C-0.43315547 67.80520181 -0.37826357 59.50535481 -0.32291877 51.20550656 C-0.20922517 34.13703892 -0.10307807 17.06853555 0 0 Z M164.75 97.625 C156.80899539 108.31044179 152.75653565 119.71462456 149.61914062 132.48193359 C148.94639982 135.2179938 148.24639523 137.94645266 147.546875 140.67578125 C147.07104875 142.57505384 146.59705574 144.47478676 146.125 146.375 C145.89731934 147.2729126 145.66963867 148.1708252 145.43505859 149.09594727 C145.23219238 149.93826904 145.02932617 150.78059082 144.8203125 151.6484375 C144.63742676 152.39270996 144.45454102 153.13698242 144.26611328 153.90380859 C143.96682425 156.26132753 144.18810982 157.77385903 145 160 C159.7108956 174.08930847 182.3205107 181.4495632 202.265625 181.28125 C217.58468618 180.12751317 229.70021998 172.15150417 239.7890625 161.02734375 C247.6559602 151.20380739 252.23803786 138.61619533 251 126 C248.76480058 111.23641392 242.19862057 99.30849306 230.43359375 89.9609375 C209.13324455 75.3886462 181.7541615 77.78137199 164.75 97.625 Z " fill="#ffffff" transform="translate(183,131)"/>
</svg>