<svg width="32" height="32" viewBox="0 0 32 32" fill="none" xmlns="http://www.w3.org/2000/svg">
<g id="Android Studio" clip-path="url(#clip0_308_6268)">
<g id="Group 74">
<path id="Vector" d="M15.5527 29.8076C23.426 29.8076 29.8085 23.425 29.8085 15.5517C29.8085 7.67845 23.426 1.2959 15.5527 1.2959C7.67943 1.2959 1.29688 7.67845 1.29688 15.5517C1.29688 23.425 7.67943 29.8076 15.5527 29.8076Z" fill="#94C856"/>
<path id="Vector_2" d="M15.5518 31.1036C6.97628 31.1036 0 24.1273 0 15.5518C0 6.97628 6.97628 0 15.5518 0C24.1273 0 31.1036 6.97628 31.1036 15.5518C31.1036 24.1273 24.1273 31.1036 15.5518 31.1036ZM15.5518 2.59197C8.40576 2.59197 2.59197 8.40576 2.59197 15.5518C2.59197 22.6979 8.40576 28.5117 15.5518 28.5117C22.6979 28.5117 28.5117 22.6979 28.5117 15.5518C28.5117 8.40576 22.6979 2.59197 15.5518 2.59197Z" fill="#6E6E6E"/>
<path id="Vector_3" d="M27.0311 29.5005L22.9876 22.7614C24.8679 20.8326 25.9203 18.2455 25.9204 15.5518C25.9204 15.2081 25.7839 14.8785 25.5408 14.6354C25.2978 14.3924 24.9681 14.2559 24.6244 14.2559C24.2807 14.2559 23.9511 14.3924 23.708 14.6354C23.465 14.8785 23.3284 15.2081 23.3284 15.5518C23.3292 17.3314 22.7168 19.0568 21.5944 20.4377L19.4405 16.8478L16.8485 18.1438L19.3575 22.326C18.197 22.9829 16.8861 23.3281 15.5525 23.3278C14.22 23.3239 12.9113 22.9747 11.754 22.3143L14.2565 18.1438L11.6646 16.8478L4.074 29.5005C3.95249 29.7015 3.88839 29.9319 3.88867 30.1667V31.3512C3.88868 31.4617 3.91694 31.5704 3.97077 31.6669C4.02461 31.7634 4.10222 31.8445 4.19625 31.9025C4.29027 31.9606 4.39758 31.9936 4.50797 31.9985C4.61836 32.0034 4.72817 31.98 4.82697 31.9305L6.14369 31.2721C6.364 31.162 6.54803 30.9909 6.67504 30.7797L10.4243 24.5304C11.9824 25.435 13.7509 25.9141 15.5525 25.9197C17.3557 25.9198 19.1273 25.446 20.6898 24.546L24.43 30.781C24.557 30.9922 24.7411 31.1633 24.9614 31.2734L26.2781 31.9318C26.377 31.9813 26.4869 32.0048 26.5974 31.9998C26.7079 31.9949 26.8153 31.9617 26.9094 31.9035C27.0034 31.8453 27.081 31.764 27.1348 31.6673C27.1885 31.5706 27.2166 31.4618 27.2164 31.3512V30.1667C27.2167 29.9319 27.1526 29.7015 27.0311 29.5005Z" fill="#F2F2F2"/>
<path id="Vector_4" d="M19.441 9.07252H18.145V6.48056C18.145 6.13684 18.0085 5.8072 17.7655 5.56416C17.5224 5.32111 17.1928 5.18457 16.8491 5.18457H14.2571C13.9134 5.18457 13.5837 5.32111 13.3407 5.56416C13.0977 5.8072 12.9611 6.13684 12.9611 6.48056V9.07252H11.6651C11.3214 9.07252 10.9918 9.20907 10.7487 9.45211C10.5057 9.69515 10.3691 10.0248 10.3691 10.3685V15.5524C10.3691 15.9853 10.5856 16.3897 10.9459 16.6307L14.8338 19.2227C15.0468 19.3648 15.2971 19.4406 15.5531 19.4406C15.8091 19.4406 16.0594 19.3648 16.2724 19.2227L20.1603 16.6307C20.5206 16.3897 20.737 15.9853 20.737 15.5524V10.3685C20.737 10.0248 20.6005 9.69515 20.3574 9.45211C20.1144 9.20907 19.7847 9.07252 19.441 9.07252ZM15.5531 15.5524C15.2079 15.5603 14.8647 15.499 14.5435 15.3723C14.2223 15.2457 13.9297 15.0561 13.6827 14.8148C13.4358 14.5734 13.2396 14.2852 13.1056 13.967C12.9717 13.6488 12.9026 13.307 12.9025 12.9618C12.9024 12.6165 12.9713 12.2747 13.1051 11.9565C13.239 11.6382 13.435 11.3499 13.6818 11.1084C13.9286 10.867 14.2212 10.6773 14.5423 10.5504C14.8634 10.4236 15.2066 10.3622 15.5518 10.3698C16.229 10.3848 16.8735 10.6643 17.3472 11.1485C17.8209 11.6327 18.0863 12.2831 18.0865 12.9605C18.0866 13.6379 17.8216 14.2884 17.3481 14.7729C16.8746 15.2573 16.2303 15.5371 15.5531 15.5524Z" fill="#6E6E6E"/>
</g>
</g>
<defs>
<clipPath id="clip0_308_6268">
<rect width="32" height="32" fill="white"/>
</clipPath>
</defs>
</svg>
