<svg width="18" height="24" viewBox="0 0 18 24" fill="none" xmlns="http://www.w3.org/2000/svg">
<path d="M8.6146e-06 9.00018C-3.80495e-05 7.51401 0.367954 6.05097 1.07113 4.74168C1.7743 3.43239 2.79077 2.3176 4.02977 1.49687C5.26876 0.676139 6.69173 0.175002 8.1716 0.0382081C9.65147 -0.0985857 11.1422 0.133221 12.5106 0.712931C13.8791 1.29264 15.0827 2.20221 16.014 3.36042C16.9452 4.51863 17.5752 5.88943 17.8476 7.35042C18.1199 8.81141 18.0263 10.3171 17.5749 11.7331C17.1236 13.1491 16.3286 14.4312 15.261 15.4651C14.9565 15.7591 14.7225 16.0651 14.5815 16.3936L13.4385 19.0471C13.3805 19.1815 13.2844 19.2961 13.1621 19.3766C13.0397 19.4571 12.8965 19.5 12.75 19.5001H5.25001C5.10329 19.5003 4.95973 19.4575 4.83708 19.377C4.71444 19.2965 4.6181 19.1818 4.56001 19.0471L3.41851 16.3921C3.25387 16.0422 3.02314 15.7274 2.73901 15.4651C1.87117 14.6271 1.1813 13.6226 0.71067 12.5118C0.240044 11.4009 -0.0016633 10.2066 8.6146e-06 9.00018ZM4.50001 21.75C4.50001 21.5511 4.57902 21.3604 4.71968 21.2197C4.86033 21.0791 5.05109 21 5.25001 21H12.75C12.9489 21 13.1397 21.0791 13.2803 21.2197C13.421 21.3604 13.5 21.5511 13.5 21.75C13.5 21.9489 13.421 22.1397 13.2803 22.2803C13.1397 22.421 12.9489 22.5 12.75 22.5L12.414 23.1705C12.2895 23.4196 12.0981 23.6292 11.8613 23.7757C11.6244 23.9222 11.3515 23.9999 11.073 24H6.92701C6.64851 23.9999 6.37556 23.9222 6.13872 23.7757C5.90187 23.6292 5.71049 23.4196 5.58601 23.1705L5.25001 22.5C5.05109 22.5 4.86033 22.421 4.71968 22.2803C4.57902 22.1397 4.50001 21.9489 4.50001 21.75Z" fill="#0E53BE"/>
<path d="M5.64844 12C5.46094 12 5.39974 11.9141 5.46484 11.7422L7.37891 6.71484C7.45964 6.50391 7.58203 6.39844 7.74609 6.39844H8.29297C8.45703 6.39844 8.57943 6.50391 8.66016 6.71484L10.5742 11.7422C10.6393 11.9141 10.5781 12 10.3906 12H9.76953C9.59766 12 9.47786 11.9102 9.41016 11.7305L9.01172 10.6797H7.02734L6.62891 11.7305C6.5612 11.9102 6.44141 12 6.26953 12H5.64844ZM7.39062 9.71094H8.64844L8.16797 8.46875C8.11068 8.32292 8.07552 8.21745 8.0625 8.15234C8.05208 8.08464 8.04036 7.98568 8.02734 7.85547H8.01172C7.9987 7.98568 7.98568 8.08464 7.97266 8.15234C7.96224 8.21745 7.92839 8.32292 7.87109 8.46875L7.39062 9.71094ZM11.4102 12C11.2539 12 11.1758 11.9219 11.1758 11.7656V8.13281C11.1758 7.97656 11.2539 7.89844 11.4102 7.89844H12.0352C12.1914 7.89844 12.2695 7.97656 12.2695 8.13281V11.7656C12.2695 11.9219 12.1914 12 12.0352 12H11.4102ZM11.4102 7.29688C11.2539 7.29688 11.1758 7.21875 11.1758 7.0625V6.5625C11.1758 6.40625 11.2539 6.32812 11.4102 6.32812H12.0352C12.1914 6.32812 12.2695 6.40625 12.2695 6.5625V7.0625C12.2695 7.21875 12.1914 7.29688 12.0352 7.29688H11.4102Z" fill="#EFF6FF"/>
</svg>
