<svg width="24" height="24" viewBox="0 0 24 24" fill="none" xmlns="http://www.w3.org/2000/svg">
<path d="M16.0305 21.5283L16.9481 24H7.05233L7.96995 21.5283H16.0305ZM10.6222 15.444C10.679 17.5184 13.3211 17.5184 13.3779 15.444C13.3201 13.3749 10.6799 13.3739 10.6222 15.444ZM12.5929 5.26444H12.2974V13.2371C14.6705 13.7022 14.4224 17.6194 12.0001 17.6842C9.57386 17.6164 9.33047 13.7012 11.7084 13.233V5.26472H11.4072L6.83633 14.7638C6.67061 15.1126 6.62989 15.5152 6.73027 15.8974L7.99638 20.8546H16.0039L17.2729 15.8974C17.3704 15.5152 17.3316 15.1126 17.164 14.7638L12.5929 5.26444ZM23.357 13.2908C23.2557 7.77364 20.0208 3.06197 15.6336 1.38366H20.341C20.3202 1.27601 20.3117 1.1619 20.3117 1.04778C20.3117 0.933669 20.3202 0.819561 20.341 0.711895H13.4964C13.503 0.749573 13.5068 0.788326 13.5115 0.827081C13.5248 0.929348 13.5276 1.03485 13.5229 1.13926C13.522 1.15433 13.522 1.16941 13.521 1.1834C13.5134 1.29105 13.4973 1.39762 13.4708 1.49988C18.6963 2.30511 22.6262 7.29267 22.7683 13.2897L23.357 13.2908ZM10.501 1.36437C10.4953 1.33315 10.4915 1.30086 10.4877 1.26856C10.4849 1.24595 10.4821 1.22227 10.4802 1.19966C10.4773 1.16414 10.4764 1.12862 10.4754 1.09309C10.4754 1.07156 10.4745 1.05111 10.4745 1.02958C10.4745 1.00159 10.4764 0.973599 10.4783 0.946685C10.4811 0.907932 10.483 0.868099 10.4877 0.830421C10.4925 0.791669 10.4972 0.752913 10.5029 0.715235L3.65923 0.712006C3.699 0.926229 3.699 1.16843 3.65923 1.38267L8.36276 1.38374C3.97826 3.06092 0.744313 7.77483 0.64298 13.2909H1.23294C1.37499 7.29365 5.30496 2.3064 10.5304 1.50418C10.5191 1.45789 10.5095 1.41066 10.501 1.36437ZM1.80303 13.9616H0.0710232C0.0321965 13.9616 0 13.9982 0 14.0391V16.0113C0 16.0511 0.0321965 16.0888 0.0710232 16.0888H1.80303C1.83807 16.0888 1.87121 16.0522 1.87121 16.0113V14.0391C1.87026 13.9982 1.83807 13.9616 1.80303 13.9616ZM23.9318 13.9616H22.1998C22.1619 13.9616 22.1288 13.9982 22.1288 14.0391V16.0113C22.1288 16.0511 22.161 16.0888 22.1998 16.0888H23.9318C23.9669 16.0888 24 16.0522 24 16.0113V14.0391C24 13.9982 23.9678 13.9616 23.9318 13.9616ZM11.0673 1.08134C11.0645 1.07166 11.0645 1.05766 11.0645 1.04797C11.0645 1.05443 11.0645 1.05766 11.0616 1.0652C11.0645 1.06843 11.0616 1.07166 11.0616 1.07166L11.0645 1.07489C11.0645 1.07489 11.0645 1.07811 11.0673 1.08134ZM12.9328 1.0878C12.9357 1.08457 12.9357 1.08457 12.9328 1.08134C12.9357 1.07488 12.9357 1.07166 12.9385 1.06843C12.9376 1.06089 12.9347 1.05551 12.9357 1.04797C12.9035 -0.370847 11.054 -0.336399 11.0682 1.08134C11.0654 1.08457 11.0654 1.08457 11.0682 1.0878C11.1336 2.43665 12.8665 2.43773 12.9328 1.0878ZM3.09862 1.04797C3.06548 -0.350398 1.26339 -0.348249 1.2312 1.04797C1.2615 2.44849 3.06548 2.45175 3.09862 1.04797ZM22.7702 1.04797C22.738 -0.347174 20.9359 -0.351473 20.9028 1.04797C20.934 2.45175 22.738 2.44849 22.7702 1.04797Z" fill="#0E53BE"/>
</svg>
