<svg width="24" height="23" viewBox="0 0 24 23" fill="none" xmlns="http://www.w3.org/2000/svg">
<line y1="-0.5" x2="3.97211" y2="-0.5" transform="matrix(0.716907 -0.697169 0.716907 0.697169 5.01562 19.0552)" stroke="#0E53BE"/>
<line y1="-0.5" x2="3.97211" y2="-0.5" transform="matrix(0.716907 0.697169 -0.716907 0.697169 16 16)" stroke="#0E53BE"/>
<line y1="-0.5" x2="3.97211" y2="-0.5" transform="matrix(0.716907 -0.697169 0.716907 0.697169 16 7.43994)" stroke="#0E53BE"/>
<line y1="-0.5" x2="3.97211" y2="-0.5" transform="matrix(-0.716907 -0.697169 0.716907 -0.697169 7.84766 6.43994)" stroke="#0E53BE"/>
<line x1="20.6777" y1="11.709" x2="17.8301" y2="11.709" stroke="#0E53BE"/>
<line x1="11.6855" y1="2.90137" x2="11.6855" y2="5.6706" stroke="#0E53BE"/>
<line x1="3" y1="12.1704" x2="5.84763" y2="12.1704" stroke="#0E53BE"/>
<path d="M2.61719 12.1323C2.6171 12.6078 2.21676 13.0171 1.69336 13.0171C1.16996 13.0171 0.769616 12.6077 0.769531 12.1323C0.769531 11.6568 1.16991 11.2476 1.69336 11.2476C2.21682 11.2476 2.61719 11.6568 2.61719 12.1323Z" fill="#0E53BE" stroke="#0E53BE"/>
<path d="M3.11719 17.709C4.42699 17.709 5.46484 18.7383 5.46484 19.9785C5.46468 21.2186 4.42688 22.2471 3.11719 22.2471C1.80748 22.2471 0.769699 21.2186 0.769531 19.9785C0.769531 18.7383 1.80738 17.709 3.11719 17.709Z" fill="#0E53BE" stroke="#0E53BE"/>
<path d="M11.6602 5.70898C15.0669 5.70902 17.8047 8.39152 17.8047 11.6709C17.8045 14.9501 15.0667 17.6318 11.6602 17.6318C8.25354 17.6318 5.51583 14.9501 5.51562 11.6709C5.51562 8.3915 8.25341 5.70898 11.6602 5.70898Z" fill="#0E53BE" stroke="#0E53BE"/>
<path d="M20.2285 11.6704C20.2286 11.195 20.6289 10.7856 21.1523 10.7856C21.6757 10.7857 22.0761 11.195 22.0762 11.6704C22.0762 12.1459 21.6758 12.5552 21.1523 12.5552C20.6289 12.5552 20.2285 12.1459 20.2285 11.6704Z" fill="#0E53BE" stroke="#0E53BE"/>
<path d="M11.6602 3.32422C11.1367 3.32421 10.7363 2.91494 10.7363 2.43945C10.7364 1.96403 11.1368 1.55469 11.6602 1.55469C12.1836 1.55469 12.5839 1.96402 12.584 2.43945C12.584 2.91495 12.1836 3.32422 11.6602 3.32422Z" fill="#0E53BE" stroke="#0E53BE"/>
<line x1="12.5" y1="20.769" x2="12.5" y2="17.9998" stroke="#0E53BE"/>
<path d="M11.5 21.3843C11.5001 20.9088 11.9004 20.4995 12.4238 20.4995C12.9472 20.4995 13.3476 20.9089 13.3477 21.3843C13.3477 21.8598 12.9473 22.269 12.4238 22.269C11.9004 22.269 11.5 21.8598 11.5 21.3843Z" fill="#0E53BE" stroke="#0E53BE"/>
<path d="M20.8477 17.5C22.1575 17.5 23.1953 18.5293 23.1953 19.7695C23.1951 21.0096 22.1573 22.0381 20.8477 22.0381C19.538 22.0381 18.5002 21.0096 18.5 19.7695C18.5 18.5293 19.5378 17.5 20.8477 17.5Z" fill="#0E53BE" stroke="#0E53BE"/>
<path d="M17.5 2.76904C17.5002 1.52898 18.538 0.500488 19.8477 0.500488C21.1573 0.500502 22.1951 1.52899 22.1953 2.76904C22.1953 4.00923 21.1575 5.03856 19.8477 5.03857C18.5378 5.03857 17.5 4.00924 17.5 2.76904Z" fill="#0E53BE" stroke="#0E53BE"/>
<path d="M2.84766 5.03857C1.53786 5.03856 0.5 4.00923 0.5 2.76904C0.500167 1.52899 1.53796 0.500502 2.84766 0.500488C4.15736 0.500488 5.19514 1.52898 5.19531 2.76904C5.19531 4.00924 4.15747 5.03857 2.84766 5.03857Z" fill="#0E53BE" stroke="#0E53BE"/>
<path d="M8 9.89323C8.95645 9.06005 10.1741 8.56104 11.5 8.56104C12.8259 8.56104 14.0435 9.06005 15 9.89323L14.6111 10.4119C13.7609 9.67127 12.6786 9.2277 11.5 9.2277C10.3214 9.2277 9.23906 9.67127 8.38889 10.4119L8 9.89323ZM8.97222 11.1898C9.66299 10.5881 10.5424 10.2277 11.5 10.2277C12.4576 10.2277 13.337 10.5881 14.0278 11.1898L13.6389 11.7085C13.0544 11.1993 12.3102 10.8944 11.5 10.8944C10.6897 10.8944 9.9456 11.1993 9.36111 11.7085L8.97222 11.1898ZM9.94444 12.4865C10.3695 12.1161 10.9107 11.8944 11.5 11.8944C12.0893 11.8944 12.6305 12.1161 13.0556 12.4865L12.6667 13.0051C12.3478 12.7274 11.9419 12.561 11.5 12.561C11.058 12.561 10.6521 12.7274 10.3333 13.0051L9.94444 12.4865ZM10.9167 13.7831C11.0761 13.6442 11.279 13.561 11.5 13.561C11.721 13.561 11.9239 13.6442 12.0833 13.7831L11.5 14.561L10.9167 13.7831Z" fill="#EFF6FF"/>
</svg>
