<svg width="15" height="24" viewBox="0 0 15 24" fill="none" xmlns="http://www.w3.org/2000/svg">
<path d="M0 3C0 2.20435 0.31607 1.44129 0.87868 0.87868C1.44129 0.316071 2.20435 0 3 0L12 0C12.7956 0 13.5587 0.316071 14.1213 0.87868C14.6839 1.44129 15 2.20435 15 3V21C15 21.7956 14.6839 22.5587 14.1213 23.1213C13.5587 23.6839 12.7956 24 12 24H3C2.20435 24 1.44129 23.6839 0.87868 23.1213C0.31607 22.5587 0 21.7956 0 21V3ZM9 19.5C9 19.1022 8.84196 18.7206 8.56066 18.4393C8.27935 18.158 7.89782 18 7.5 18C7.10218 18 6.72064 18.158 6.43934 18.4393C6.15804 18.7206 6 19.1022 6 19.5C6 19.8978 6.15804 20.2794 6.43934 20.5607C6.72064 20.842 7.10218 21 7.5 21C7.89782 21 8.27935 20.842 8.56066 20.5607C8.84196 20.2794 9 19.8978 9 19.5Z" fill="#0E53BE"/>
<path d="M3.925 3C4.43586 3 4.85 3.44771 4.85 4C4.85 4.55228 4.43586 5 3.925 5C3.75537 5 3.5964 4.95064 3.45971 4.86447L3.00039 5L3.12544 4.50315C3.04569 4.35536 3 4.18345 3 4C3 3.44771 3.41414 3 3.925 3ZM3.5912 3.53083C3.57923 3.53174 3.5675 3.5349 3.55681 3.54081C3.5488 3.54524 3.54136 3.55165 3.52966 3.56359C3.51862 3.57486 3.51223 3.5847 3.50549 3.59419C3.47129 3.64232 3.45291 3.70141 3.45325 3.7621C3.45344 3.81116 3.46522 3.85884 3.48384 3.90336C3.52159 3.99364 3.58385 4.08908 3.66609 4.17759C3.68584 4.19885 3.7052 4.22034 3.72607 4.2402C3.82814 4.33736 3.94977 4.40742 4.0813 4.44482L4.13386 4.45347C4.15102 4.45447 4.16815 4.45313 4.18532 4.45218C4.21227 4.45068 4.23858 4.4428 4.26239 4.42909C4.27769 4.42028 4.28494 4.4159 4.29778 4.40714C4.29778 4.40714 4.30173 4.40426 4.30933 4.39814C4.32182 4.38808 4.32953 4.381 4.33992 4.36934C4.34758 4.36074 4.35416 4.35058 4.35925 4.33913C4.36648 4.32281 4.37376 4.29166 4.37666 4.26579C4.37887 4.24603 4.3782 4.23523 4.37796 4.22854C4.37757 4.21778 4.36934 4.20671 4.36033 4.20201L4.30654 4.17587C4.30654 4.17587 4.22612 4.13803 4.17692 4.11377C4.1718 4.11124 4.16619 4.11007 4.16056 4.1097C4.14822 4.10888 4.13439 4.11236 4.1256 4.12238C4.1256 4.12238 4.11901 4.1279 4.05209 4.21555C4.0484 4.22032 4.03975 4.23069 4.02479 4.22972C4.02253 4.22955 4.02029 4.2292 4.01809 4.22858C4.01203 4.22685 4.00613 4.22457 4.00036 4.22193C3.98892 4.21668 3.9849 4.21469 3.97709 4.21105C3.92369 4.18583 3.87468 4.15209 3.83136 4.1108C3.81975 4.09974 3.80894 4.08783 3.7978 4.07616C3.75894 4.03543 3.72711 3.99211 3.70344 3.94938C3.70215 3.94705 3.70016 3.94368 3.69801 3.93991C3.69414 3.9331 3.68987 3.925 3.68853 3.91944C3.68509 3.90473 3.69421 3.89291 3.69421 3.89291C3.69421 3.89291 3.71673 3.8663 3.72719 3.85183C3.73725 3.8379 3.74594 3.82428 3.75147 3.81457C3.76237 3.79563 3.76582 3.77606 3.76009 3.76096C3.73414 3.69256 3.70737 3.62454 3.67977 3.55689C3.67432 3.54355 3.65812 3.53385 3.64339 3.53201C3.6384 3.53138 3.63342 3.53076 3.62841 3.5304C3.61601 3.52975 3.60358 3.52989 3.5912 3.53083Z" fill="#EFF6FF"/>
<path d="M11.925 3C12.4359 3 12.85 3.44771 12.85 4C12.85 4.55228 12.4359 5 11.925 5C11.4141 5 11 4.55228 11 4C11 3.44771 11.4141 3 11.925 3ZM11.6311 4.33427C11.5946 4.28663 11.5492 4.26957 11.4943 4.2834L11.4804 4.2875L11.4259 4.38911C11.4051 4.42863 11.4174 4.47903 11.4539 4.50161C11.4874 4.52231 11.5294 4.51286 11.5522 4.4807L11.558 4.47137L11.6311 4.33427ZM12.0369 3.66613C11.9918 3.70645 11.9463 3.82581 12.01 3.94476L12.2913 4.47137C12.3125 4.51089 12.3588 4.52419 12.3953 4.50161C12.4288 4.48054 12.442 4.43677 12.4278 4.39919L12.4233 4.38911L12.3491 4.25H12.4591C12.5013 4.25 12.5352 4.21331 12.5352 4.16774C12.5352 4.12568 12.5063 4.09118 12.4687 4.08612L12.4591 4.08548H12.2611L12.0582 3.70574L12.0369 3.66613ZM12.0626 3.36169C12.0291 3.341 11.9872 3.35045 11.9643 3.38261L11.9586 3.39194L11.9246 3.45524L11.8914 3.39194C11.8702 3.35242 11.8239 3.33911 11.7874 3.36169C11.7539 3.38276 11.7407 3.42653 11.7549 3.46412L11.7594 3.47419L11.837 3.61976L11.5886 4.08508H11.3946C11.3525 4.08508 11.3185 4.12177 11.3185 4.16734C11.3185 4.2094 11.3474 4.2439 11.385 4.24896L11.3946 4.2496H12.0865C12.118 4.18562 12.0809 4.09472 12.0116 4.08579L12.0003 4.08508H11.7642L12.0906 3.47419C12.1115 3.43468 12.0992 3.38427 12.0626 3.36169Z" fill="#EFF6FF"/>
<path d="M7.93941 3.57465C7.8497 3.57465 7.71084 3.48482 7.5646 3.48807C7.37167 3.49023 7.19471 3.58655 7.09517 3.73914C6.89487 4.0454 7.04356 4.49776 7.23895 4.74667C7.3348 4.86787 7.44786 5.00423 7.59778 4.9999C7.74156 4.99449 7.79563 4.91765 7.97013 4.91765C8.1434 4.91765 8.19256 4.9999 8.34494 4.99665C8.49977 4.99449 8.59808 4.87328 8.6927 4.75099C8.80207 4.61031 8.84754 4.47395 8.85 4.46638C8.84631 4.4653 8.54893 4.36465 8.54524 4.06164C8.54278 3.8084 8.77995 3.68719 8.79101 3.68178C8.65584 3.50755 8.44816 3.48807 8.37566 3.48374C8.18641 3.47076 8.02789 3.57465 7.93941 3.57465ZM8.25891 3.31925C8.33879 3.23484 8.39163 3.11688 8.37689 3C8.2626 3.00433 8.12497 3.0671 8.04263 3.15151C7.9689 3.22618 7.905 3.3463 7.9222 3.46102C8.04878 3.46967 8.17904 3.40366 8.25891 3.31925Z" fill="#EFF6FF"/>
</svg>
