<svg width="20" height="24" viewBox="0 0 20 24" fill="none" xmlns="http://www.w3.org/2000/svg">
<path d="M20 13.1983C20 19.1973 15.625 22.1968 10.425 23.9365C10.1527 24.0251 9.85692 24.0209 9.5875 23.9245C4.375 22.1968 0 19.1973 0 13.1983V4.79974C0 4.48153 0.131696 4.17636 0.366117 3.95135C0.600537 3.72634 0.918479 3.59994 1.25 3.59994C3.75 3.59994 6.875 2.16018 9.05 0.336483C9.31482 0.119318 9.65169 0 10 0C10.3483 0 10.6852 0.119318 10.95 0.336483C13.1375 2.17218 16.25 3.59994 18.75 3.59994C19.0815 3.59994 19.3995 3.72634 19.6339 3.95135C19.8683 4.17636 20 4.48153 20 4.79974V13.1983Z" fill="#0E53BE"/>
<path d="M6 12L8.66667 15L14 9" fill="#0E53BE"/>
<path d="M6 12L8.66667 15L14 9" stroke="#EFF6FF" stroke-width="1.25" stroke-linecap="round" stroke-linejoin="round"/>
</svg>
