<svg width="24" height="22" viewBox="0 0 24 22" fill="none" xmlns="http://www.w3.org/2000/svg">
<path d="M0 4.34026V2.98406C0 1.33789 1.33891 0 2.98406 0H20.3482C21.9944 0 23.3323 1.33891 23.3323 2.98406V4.34026H0ZM23.3333 5.96812V18.1771C23.3333 19.8232 21.9944 21.1611 20.3493 21.1611H2.9851C1.33893 21.1611 0.00104188 19.8222 0.00104188 18.1771L2.42182e-05 5.96812H23.3333ZM6.41897 13.5641C6.41897 13.5214 6.42915 13.441 6.49833 13.3718L8.19638 11.6738C8.51484 11.3553 8.51484 10.8405 8.19638 10.5231C7.87792 10.2056 7.36313 10.2046 7.04568 10.5231L5.34763 12.2211C4.60694 12.9618 4.60694 14.1654 5.34763 14.9069L7.04568 16.605C7.2044 16.7637 7.41194 16.8431 7.62153 16.8431C7.8301 16.8431 8.03766 16.7637 8.19737 16.605C8.51583 16.2865 8.51583 15.7717 8.19737 15.4543L6.49932 13.7562C6.43014 13.6871 6.41996 13.6067 6.41996 13.564L6.41897 13.5641ZM13.605 8.23905C13.1807 8.08847 12.7158 8.30314 12.5611 8.72537L9.24134 17.8466C9.08771 18.2698 9.30645 18.7368 9.72767 18.8905C9.82025 18.923 9.91385 18.9393 10.0064 18.9393C10.3391 18.9393 10.6505 18.7348 10.7715 18.4041L14.0913 9.28291C14.2449 8.85967 14.0262 8.39267 13.605 8.23905ZM17.9859 12.2212L16.2878 10.5231C15.9694 10.2047 15.4546 10.2047 15.1371 10.5231C14.8197 10.8416 14.8187 11.3564 15.1371 11.6738L16.8352 13.3719C16.9044 13.4411 16.9145 13.5214 16.9145 13.5642C16.9145 13.6069 16.9044 13.6873 16.8352 13.7565L15.1371 15.4545C14.8187 15.773 14.8187 16.2878 15.1371 16.6052C15.2958 16.7639 15.5034 16.8433 15.713 16.8433C15.9215 16.8433 16.1291 16.7639 16.2888 16.6052L17.9869 14.9072C18.7276 14.1665 18.7276 12.9629 17.9869 12.2213L17.9859 12.2212Z" fill="#0E53BE"/>
</svg>
