<svg width="32" height="32" viewBox="0 0 32 32" fill="none" xmlns="http://www.w3.org/2000/svg">
<path d="M9.33317 4.00004V1.33337H11.9998V4.00004H19.9998V1.33337H22.6665V4.00004H27.9998C28.7362 4.00004 29.3332 4.597 29.3332 5.33337V12H26.6665V6.66671H22.6665V9.33337H19.9998V6.66671H11.9998V9.33337H9.33317V6.66671H5.33317V25.3334H13.3332V28H3.99984C3.26346 28 2.6665 27.4031 2.6665 26.6667V5.33337C2.6665 4.597 3.26346 4.00004 3.99984 4.00004H9.33317ZM22.6665 16C19.721 16 17.3332 18.3879 17.3332 21.3334C17.3332 24.2788 19.721 26.6667 22.6665 26.6667C25.612 26.6667 27.9998 24.2788 27.9998 21.3334C27.9998 18.3879 25.612 16 22.6665 16ZM14.6665 21.3334C14.6665 16.9151 18.2482 13.3334 22.6665 13.3334C27.0848 13.3334 30.6665 16.9151 30.6665 21.3334C30.6665 25.7516 27.0848 29.3334 22.6665 29.3334C18.2482 29.3334 14.6665 25.7516 14.6665 21.3334ZM21.3332 17.3334V21.8856L24.3904 24.9428L26.276 23.0572L23.9998 20.7811V17.3334H21.3332Z" fill="black"/>
</svg>
