<svg width="32" height="32" viewBox="0 0 32 32" fill="none" xmlns="http://www.w3.org/2000/svg">
<path d="M15.9998 29.3333C8.63604 29.3333 2.6665 23.3637 2.6665 16C2.6665 8.63616 8.63604 2.66663 15.9998 2.66663C23.3636 2.66663 29.3332 8.63616 29.3332 16C29.3332 23.3637 23.3636 29.3333 15.9998 29.3333ZM15.9998 26.6666C21.8909 26.6666 26.6665 21.891 26.6665 16C26.6665 10.1089 21.8909 5.33329 15.9998 5.33329C10.1088 5.33329 5.33317 10.1089 5.33317 16C5.33317 21.891 10.1088 26.6666 15.9998 26.6666ZM17.3332 16H22.6665V18.6666H14.6665V9.33329H17.3332V16Z" fill="black"/>
</svg>
