<svg width="32" height="32" viewBox="0 0 32 32" fill="none" xmlns="http://www.w3.org/2000/svg">
<path d="M25.3333 10.6666H28C28.7364 10.6666 29.3333 11.2636 29.3333 12V28C29.3333 28.7364 28.7364 29.3333 28 29.3333H17.3333C16.5969 29.3333 16 28.7364 16 28V26.6666H5.33333C4.59696 26.6666 4 26.0697 4 25.3333V3.99996C4 3.26359 4.59696 2.66663 5.33333 2.66663H24C24.7364 2.66663 25.3333 3.26359 25.3333 3.99996V10.6666ZM22.6667 10.6666V5.33329H6.66667V24H16V12C16 11.2636 16.5969 10.6666 17.3333 10.6666H22.6667ZM18.6667 13.3333V26.6666H26.6667V13.3333H18.6667Z" fill="black"/>
</svg>
