<svg width="32" height="32" viewBox="0 0 32 32" fill="none" xmlns="http://www.w3.org/2000/svg">
<path d="M2.6665 16C2.6665 23.3637 8.63604 29.3333 15.9998 29.3333C23.3636 29.3333 29.3332 23.3637 29.3332 16C29.3332 8.63616 23.3636 2.66663 15.9998 2.66663C8.63604 2.66663 2.6665 8.63616 2.6665 16ZM26.6665 16C26.6665 21.891 21.8909 26.6666 15.9998 26.6666C10.1088 26.6666 5.33317 21.891 5.33317 16C5.33317 10.1089 10.1088 5.33329 15.9998 5.33329C21.8909 5.33329 26.6665 10.1089 26.6665 16ZM23.9998 16C23.9998 20.4182 20.4181 24 15.9998 24C13.7906 24 11.7906 23.1045 10.3429 21.6568L15.9998 16V7.99996C20.4181 7.99996 23.9998 11.5817 23.9998 16Z" fill="black"/>
</svg>
