<svg width="60" height="60" viewBox="0 0 60 60" fill="none" xmlns="http://www.w3.org/2000/svg">
<path d="M29.95 59.9649L28.385 59.1824C22.9 56.4399 5 46.2099 5 29.6824V12.8374C5 10.1374 6.72 7.75241 9.2825 6.90491L30 0.0349121L50.7175 6.90491C53.2775 7.75491 55 10.1399 55 12.8374V29.6824C55 48.4299 37.07 57.1024 31.575 59.3124L29.95 59.9649ZM30 2.66991L10.07 9.27741C8.5325 9.78741 7.5 11.2174 7.5 12.8374V29.6824C7.5 44.7774 24.34 54.3674 29.5025 56.9474L30.0625 57.2274L30.6425 56.9949C35.77 54.9324 52.5 46.8649 52.5 29.6849V12.8349C52.5 11.2174 51.4675 9.78491 49.9325 9.27491L30 2.66991Z" fill="black"/>
<path d="M26.2539 37.5C25.2939 37.5 24.3314 37.135 23.5989 36.4025L15.3789 28.3975L17.1214 26.605L25.3539 34.6225C25.8564 35.1225 26.6489 35.12 27.1339 34.635L42.8714 19.1125L44.6289 20.8925L28.8964 36.41C28.1689 37.1375 27.2114 37.5025 26.2539 37.5025V37.5Z" fill="black"/>
</svg>
