<svg width="60" height="60" viewBox="0 0 60 60" fill="none" xmlns="http://www.w3.org/2000/svg">
<g clip-path="url(#clip0_528_614)">
<path d="M16.25 25H26.25C29.695 25 32.5 21.98 32.5 18.265C32.5 14.1525 28.305 9.195 24.43 7.175C25.375 6.5 26.3725 5.59 27.075 4.42C27.62 3.515 27.64 2.385 27.1225 1.4675C26.6025 0.5475 25.6625 0 24.605 0H17.8975C16.84 0 15.8975 0.55 15.38 1.4675C14.8625 2.385 14.88 3.515 15.4275 4.4175C16.1325 5.5875 17.1275 6.4975 18.0725 7.1725C14.195 9.1925 10.0025 14.1525 10.0025 18.2625C10.0025 21.975 12.8075 24.9975 16.2525 24.9975L16.25 25ZM17.555 2.6975C17.605 2.6075 17.7075 2.5 17.895 2.5H24.6025C24.7925 2.5 24.8925 2.6075 24.9425 2.6975C24.9875 2.7775 25.0475 2.94 24.9325 3.13C23.96 4.745 22.0925 5.75 21.2475 6.1425C20.4025 5.75 18.5375 4.745 17.5625 3.13C17.4475 2.94 17.5075 2.7775 17.5525 2.7L17.555 2.6975ZM21.25 8.75C24.2625 8.75 30 14.4375 30 18.265C30 20.6 28.3175 22.5 26.25 22.5H16.25C14.1825 22.5 12.5 20.6 12.5 18.265C12.5 14.4375 18.2375 8.75 21.25 8.75ZM36.7225 9.74C36.235 9.2525 36.235 8.46 36.7225 7.9725L43.5975 1.0975C44.31 0.385 45 0 46.25 0C47.5 0 48.19 0.385 48.9025 1.0975L55.7825 7.9775C56.27 8.465 56.27 9.2575 55.7825 9.745C55.5375 9.99 55.2175 10.11 54.8975 10.11C54.5775 10.11 54.2575 9.9875 54.0125 9.745L47.5 3.2325V18.75C47.5 19.44 46.94 20 46.25 20C45.56 20 45 19.44 45 18.75V3.2325L38.49 9.7425C38.0025 10.23 37.21 10.23 36.7225 9.7425V9.74ZM57.95 24.135C56.71 23.005 55.0975 22.4475 53.4275 22.505C51.7525 22.585 50.2075 23.31 49.08 24.55L39.75 34.805C38.965 32.035 36.4125 29.9975 33.3925 29.9975H8.75C3.925 29.9975 0 33.9225 0 38.7475V51.2475C0 56.0725 3.925 59.9975 8.75 59.9975H23.6625C30.4275 59.9975 36.89 57.1 41.395 52.0475L58.41 32.9475C60.6875 30.3925 60.4825 26.4375 57.9525 24.1325L57.95 24.135ZM56.5425 31.2875L39.5275 50.385C35.4975 54.9075 29.715 57.5 23.66 57.5H8.75C5.305 57.5 2.5 54.6975 2.5 51.25V38.75C2.5 35.3025 5.305 32.5 8.75 32.5H33.3925C35.655 32.5 37.5 34.3425 37.5 36.6075C37.5 38.6375 35.9875 40.385 34.005 40.6675L18.6025 42.51C17.9175 42.59 17.4275 43.2125 17.51 43.9C17.5925 44.5825 18.195 45.0975 18.9 44.9925L34.33 43.1475C36.885 42.7825 38.945 40.95 39.695 38.5875L50.935 26.2375C51.6125 25.4925 52.5425 25.055 53.55 25.0075C54.5575 24.9575 55.525 25.3075 56.27 25.99C57.7925 27.3775 57.915 29.755 56.545 31.295L56.5425 31.2875Z" fill="black"/>
</g>
<defs>
<clipPath id="clip0_528_614">
<rect width="60" height="60" fill="white"/>
</clipPath>
</defs>
</svg>
