<svg width="60" height="60" viewBox="0 0 60 60" fill="none" xmlns="http://www.w3.org/2000/svg">
<path d="M35 13.75C35 13.06 35.56 12.5 36.25 12.5H45V3.75C45 3.06 45.56 2.5 46.25 2.5C46.94 2.5 47.5 3.06 47.5 3.75V12.5H56.25C56.94 12.5 57.5 13.06 57.5 13.75C57.5 14.44 56.94 15 56.25 15H47.5V23.75C47.5 24.44 46.94 25 46.25 25C45.56 25 45 24.44 45 23.75V15H36.25C35.56 15 35 14.44 35 13.75ZM57.5 43.75C57.5 49.46 52.6325 57.5 41.8125 57.5C35.9825 57.5 23.945 51.96 15.9925 44.01C8.04 36.06 2.5 24.02 2.5 18.1875C2.5 7.3675 10.54 2.5 16.25 2.5C22.4525 2.5 27.5 7.5475 27.5 13.75C27.5 16.8125 26.2925 19.675 24.0975 21.8125L22.815 23.07C23.5375 24.9 25.1575 28.6375 28.26 31.74C31.3625 34.845 35.0975 36.46 36.9325 37.185L38.19 35.9025C40.325 33.7075 43.19 32.5 46.2525 32.5C52.455 32.5 57.5 37.5475 57.5 43.75ZM55 43.75C55 38.925 51.075 35 46.25 35C43.87 35 41.6425 35.94 39.98 37.6475L38.135 39.525C37.7075 39.9775 37.0425 39.975 36.5125 39.705C34.97 39.1075 30.275 37.29 26.4925 33.5075C22.7075 29.725 20.8925 25.03 20.295 23.4875C20.025 22.9575 20.0175 22.295 20.475 21.865L22.355 20.02C24.0625 18.3575 25.0025 16.13 25.0025 13.75C25.0025 8.925 21.0775 5 16.2525 5C11.9025 5 5.0025 8.58 5.0025 18.1875C5.0025 22.905 9.855 34.3375 17.7625 42.2425C25.6675 50.1475 37.1 55.0025 41.815 55.0025C51.4225 55.0025 55.0025 48.1025 55.0025 43.7525L55 43.75Z" fill="black"/>
</svg>
