<svg width="60" height="60" viewBox="0 0 60 60" fill="none" xmlns="http://www.w3.org/2000/svg">
<g clip-path="url(#clip0_528_603)">
<path d="M30 32.5C34.135 32.5 37.5 29.135 37.5 25C37.5 20.865 34.135 17.5 30 17.5C25.865 17.5 22.5 20.865 22.5 25C22.5 29.135 25.865 32.5 30 32.5ZM30 20C32.7575 20 35 22.2425 35 25C35 27.7575 32.7575 30 30 30C27.2425 30 25 27.7575 25 25C25 22.2425 27.2425 20 30 20Z" fill="black"/>
<path d="M29.9983 37.5C25.0808 37.5 20.8408 41.185 20.1383 46.0725C20.0383 46.755 20.5133 47.3875 21.1958 47.4875C21.8808 47.585 22.5133 47.1125 22.6108 46.4275C23.1408 42.7625 26.3158 40 29.9983 40C33.6808 40 36.8558 42.7625 37.3858 46.4275C37.4758 47.05 38.0108 47.5 38.6208 47.5C38.6783 47.5 38.7408 47.495 38.8008 47.4875C39.4833 47.3875 39.9583 46.755 39.8583 46.0725C39.1533 41.185 34.9133 37.5 29.9983 37.5Z" fill="black"/>
<path d="M39.2901 35.725C40.2951 35.245 41.3751 35 42.5001 35C46.1826 35 49.3576 37.7625 49.8876 41.4275C49.9776 42.05 50.5126 42.5 51.1226 42.5C51.1801 42.5 51.2426 42.495 51.3026 42.4875C51.9851 42.3875 52.4601 41.755 52.3601 41.0725C51.6551 36.185 47.4151 32.5 42.5001 32.5C41.0001 32.5 39.5576 32.8275 38.2101 33.47C37.5876 33.7675 37.3251 34.515 37.6226 35.1375C37.9201 35.76 38.6651 36.02 39.2901 35.725Z" fill="black"/>
<path d="M21.6633 33.47C20.3158 32.8275 18.8733 32.5 17.3733 32.5C12.4558 32.5 8.2158 36.185 7.5133 41.0725C7.4133 41.755 7.8883 42.3875 8.5708 42.4875C8.6308 42.495 8.6908 42.5 8.7508 42.5C9.3633 42.5 9.8958 42.05 9.9858 41.4275C10.5158 37.7625 13.6908 35 17.3733 35C18.4983 35 19.5783 35.245 20.5833 35.725C21.2083 36.02 21.9533 35.76 22.2508 35.1375C22.5483 34.515 22.2858 33.7675 21.6633 33.47Z" fill="black"/>
<path d="M39.5019 15.9975C40.3719 15.345 41.4094 15 42.5019 15C45.2594 15 47.5019 17.2425 47.5019 20C47.5019 22.37 45.8194 24.43 43.5019 24.9C42.8244 25.0375 42.3894 25.6975 42.5244 26.375C42.6444 26.9675 43.1669 27.375 43.7494 27.375C43.8319 27.375 43.9144 27.3675 43.9994 27.35C47.4769 26.645 49.9994 23.5525 49.9994 20C49.9994 15.865 46.6344 12.5 42.4994 12.5C40.8619 12.5 39.3069 13.02 37.9994 14.0025C37.4469 14.415 37.3369 15.2 37.7494 15.75C38.1669 16.305 38.9519 16.4225 39.4994 16L39.5019 15.9975Z" fill="black"/>
<path d="M9.99859 20.0001C9.99859 23.5551 12.5236 26.6451 15.9986 27.3501C16.0836 27.3676 16.1661 27.3751 16.2486 27.3751C16.8311 27.3751 17.3511 26.9676 17.4736 26.3751C17.6111 25.6976 17.1736 25.0376 16.4961 24.9001C14.1786 24.4301 12.4961 22.3701 12.4961 20.0001C12.4961 17.2426 14.7386 15.0001 17.4961 15.0001C18.5886 15.0001 19.6261 15.3476 20.4961 15.9976C21.0486 16.4176 21.8336 16.3026 22.2461 15.7476C22.6611 15.1951 22.5486 14.4126 21.9961 14.0001C20.6886 13.0176 19.1311 12.4976 17.4961 12.4976C13.3611 12.4976 9.99609 15.8626 9.99609 19.9976L9.99859 20.0001Z" fill="black"/>
<path d="M1.25 17.5C1.94 17.5 2.5 16.94 2.5 16.25V11.25C2.5 6.425 6.425 2.5 11.25 2.5H16.25C16.94 2.5 17.5 1.94 17.5 1.25C17.5 0.56 16.94 0 16.25 0H11.25C5.0475 0 0 5.0475 0 11.25V16.25C0 16.94 0.56 17.5 1.25 17.5Z" fill="black"/>
<path d="M16.25 57.5H11.25C6.425 57.5 2.5 53.575 2.5 48.75V43.75C2.5 43.06 1.94 42.5 1.25 42.5C0.56 42.5 0 43.06 0 43.75V48.75C0 54.9525 5.0475 60 11.25 60H16.25C16.94 60 17.5 59.44 17.5 58.75C17.5 58.06 16.94 57.5 16.25 57.5Z" fill="black"/>
<path d="M58.75 42.5C58.06 42.5 57.5 43.06 57.5 43.75V48.75C57.5 53.575 53.575 57.5 48.75 57.5H43.75C43.06 57.5 42.5 58.06 42.5 58.75C42.5 59.44 43.06 60 43.75 60H48.75C54.9525 60 60 54.9525 60 48.75V43.75C60 43.06 59.44 42.5 58.75 42.5Z" fill="black"/>
<path d="M48.75 0H43.75C43.06 0 42.5 0.56 42.5 1.25C42.5 1.94 43.06 2.5 43.75 2.5H48.75C53.575 2.5 57.5 6.425 57.5 11.25V16.25C57.5 16.94 58.06 17.5 58.75 17.5C59.44 17.5 60 16.94 60 16.25V11.25C60 5.0475 54.9525 0 48.75 0Z" fill="black"/>
</g>
<defs>
<clipPath id="clip0_528_603">
<rect width="60" height="60" fill="white"/>
</clipPath>
</defs>
</svg>
