<svg width="60" height="60" viewBox="0 0 60 60" fill="none" xmlns="http://www.w3.org/2000/svg">
<g clip-path="url(#clip0_528_625)">
<path d="M32.4725 15.375C32.955 15.87 32.945 16.66 32.4525 17.1425L20.67 28.6525C18.865 30.435 15.9225 30.4375 14.11 28.66L7.8675 22.465C7.38 21.9775 7.375 21.1875 7.8625 20.6975C8.345 20.2075 9.14 20.2025 9.63 20.69L15.865 26.88C16.7025 27.7025 18.075 27.7025 18.9175 26.87L30.705 15.355C31.2025 14.875 31.995 14.8825 32.4725 15.375ZM60 16.25V31.25C60 36.075 56.075 40 51.25 40H40V48.75C40 54.9525 34.9525 60 28.75 60H11.25C5.0475 60 0 54.9525 0 48.75V11.25C0 5.0475 5.0475 0 11.25 0H28.75C33.6325 0 37.755 3.145 39.31 7.5H51.25C56.075 7.5 60 11.425 60 16.25ZM37.5 45H2.5V48.75C2.5 53.575 6.425 57.5 11.25 57.5H28.75C33.575 57.5 37.5 53.575 37.5 48.75V45ZM37.5 11.25C37.5 6.425 33.575 2.5 28.75 2.5H11.25C6.425 2.5 2.5 6.425 2.5 11.25V42.5H37.5V11.25ZM57.5 20H40V37.5H51.25C54.6975 37.5 57.5 34.695 57.5 31.25V20ZM57.5 16.25C57.5 12.805 54.6975 10 51.25 10H39.8725C39.92 10.415 40 10.8225 40 11.25V17.5H57.5V16.25ZM16.25 52.5H23.75C24.44 52.5 25 51.94 25 51.25C25 50.56 24.44 50 23.75 50H16.25C15.56 50 15 50.56 15 51.25C15 51.94 15.56 52.5 16.25 52.5Z" fill="black"/>
</g>
<defs>
<clipPath id="clip0_528_625">
<rect width="60" height="60" fill="white"/>
</clipPath>
</defs>
</svg>
