<svg width="60" height="60" viewBox="0 0 60 60" fill="none" xmlns="http://www.w3.org/2000/svg">
<g clip-path="url(#clip0_528_619)">
<path d="M59.8775 18.7426L30 0.287598L0.12 18.7426L30 37.1976L59.8775 18.7426ZM23.3725 30.1651L41.425 19.0826L48.02 23.1301L30.0025 34.2601L23.375 30.1676L23.3725 30.1651ZM25.355 16.6851L32.9525 21.3476L20.99 28.6901L13.4175 24.0126L25.355 16.6851ZM35.3425 19.8801L27.745 15.2176L38.6125 8.5451L46.185 13.2226L35.34 19.8801H35.3425ZM50.4025 21.6551L43.815 17.6126L48.57 14.6926L55.1225 18.7401L50.4025 21.6551ZM36.2325 7.0726L18.455 17.9851L12.26 14.1826L30 3.2276L36.23 7.0751L36.2325 7.0726ZM9.875 15.6551L16.0625 19.4551L11.0325 22.5426L4.8775 18.7401L9.8725 15.6551H9.875ZM30 49.5626L60 30.9276V33.8651L30 52.5001L0 33.8651V30.9276L30 49.5626ZM60 23.4276V26.3651L30 45.0001L0 26.3651V23.4276L30 42.0626L60 23.4276ZM30 57.0626L60 38.4276V41.3651L30 60.0001L0 41.3651V38.4276L30 57.0626Z" fill="black"/>
</g>
<defs>
<clipPath id="clip0_528_619">
<rect width="60" height="60" fill="white"/>
</clipPath>
</defs>
</svg>
