<svg width="32" height="32" viewBox="0 0 32 32" fill="none" xmlns="http://www.w3.org/2000/svg">
<g id="adobe-illustrator">
<g id="Photo Surface">
<path id="Outline no shadow" d="M25.75 1.5H6.25C3.35051 1.5 1 3.85051 1 6.75V25.25C1 28.1495 3.35051 30.5 6.25 30.5H25.75C28.6495 30.5 31 28.1495 31 25.25V6.75C31 3.85051 28.6495 1.5 25.75 1.5Z" fill="#330000"/>
</g>
<path id="Vector" d="M16.0986 19.5H11.6248L10.4698 22.835C10.4565 22.945 10.3869 23 10.2611 23H8.1611C8.0211 23 7.97235 22.9313 8.01485 22.7938L12.0673 10.7575C12.1818 10.391 12.2383 10.0089 12.2348 9.625C12.2326 9.60805 12.2343 9.59081 12.2397 9.57461C12.2452 9.55841 12.2544 9.5437 12.2665 9.53161C12.2785 9.51951 12.2933 9.51037 12.3095 9.50489C12.3257 9.49941 12.3429 9.49774 12.3598 9.5H15.2998C15.3848 9.5 15.4336 9.535 15.4473 9.6025L19.9823 22.815C20.0248 22.94 19.9898 23 19.8773 23H17.5261C17.4826 23.0026 17.4393 22.9921 17.4019 22.9698C17.3644 22.9475 17.3345 22.9145 17.3161 22.875L16.0986 19.5ZM12.1248 17.25H15.6098C15.5261 17.0663 13.9586 12.0088 13.8461 11.5825H13.8261L12.1248 17.25ZM22.4886 12C22.2915 12.0084 22.0947 11.9773 21.9098 11.9083C21.725 11.8394 21.5558 11.7342 21.4123 11.5988C21.2719 11.456 21.1628 11.2856 21.0917 11.0984C21.0207 10.9112 20.9894 10.7112 20.9998 10.5113C20.9905 10.3087 21.0234 10.1065 21.0963 9.91738C21.1693 9.72824 21.2807 9.55632 21.4236 9.4125C21.5683 9.27481 21.739 9.16739 21.9257 9.09656C22.1125 9.02572 22.3115 8.99289 22.5111 9C22.7111 8.98959 22.911 9.02088 23.0982 9.09189C23.2854 9.16291 23.4558 9.27209 23.5986 9.4125C23.7352 9.55971 23.8411 9.73273 23.91 9.92141C23.9789 10.1101 24.0095 10.3106 23.9998 10.5113C24.0103 10.7112 23.979 10.9112 23.908 11.0984C23.8369 11.2856 23.7278 11.456 23.5873 11.5988C23.4401 11.7354 23.2671 11.8413 23.0784 11.9102C22.8898 11.9791 22.6892 12.0096 22.4886 12ZM21.2498 22.8125V13.1675C21.2465 13.1447 21.2485 13.1215 21.2557 13.0996C21.2629 13.0778 21.2752 13.0579 21.2915 13.0416C21.3077 13.0253 21.3276 13.0131 21.3495 13.0059C21.3713 12.9986 21.3946 12.9966 21.4173 13H23.5823C23.6051 12.9969 23.6282 12.9991 23.6499 13.0064C23.6717 13.0137 23.6914 13.026 23.7076 13.0422C23.7239 13.0584 23.7361 13.0782 23.7434 13.0999C23.7508 13.1216 23.7529 13.1448 23.7498 13.1675V22.8325C23.7532 22.8553 23.7512 22.8785 23.744 22.9004C23.7368 22.9222 23.7245 22.9421 23.7082 22.9584C23.692 22.9747 23.6721 22.9869 23.6502 22.9941C23.6284 23.0014 23.6051 23.0034 23.5823 23H21.4373C21.4119 23.0035 21.386 23.0011 21.3616 22.9929C21.3373 22.9848 21.3151 22.971 21.297 22.9529C21.2788 22.9347 21.2651 22.9126 21.2569 22.8882C21.2487 22.8639 21.2463 22.8379 21.2498 22.8125Z" fill="#FF9A00"/>
</g>
</svg>
