<svg width="80" height="80" viewBox="0 0 80 80" fill="none" xmlns="http://www.w3.org/2000/svg">
<g id="Android">
<path id="Vector" d="M13.133 56.953C9.6718 56.9549 6.8593 54.1386 6.85867 50.678L6.85742 31.4661C6.85617 28.0086 9.66805 25.193 13.1249 25.1924C14.8055 25.1911 16.3793 25.843 17.5655 27.028C18.7518 28.213 19.4043 29.7893 19.4055 31.4649L19.4037 50.6774C19.408 52.3518 18.7574 53.9268 17.5718 55.1111C16.3893 56.2986 14.8112 56.9524 13.133 56.953ZM13.128 26.878C10.5949 26.8768 8.5418 28.9349 8.54117 31.4661L8.5443 50.6761C8.54492 53.2161 10.6018 55.2661 13.1324 55.2686C15.668 55.2655 17.7218 53.2155 17.7193 50.6768V31.4636C17.718 28.933 15.6624 26.8768 13.128 26.878Z" fill="white"/>
<path id="Vector_2" d="M62.3394 27.8291L60.6531 27.8285L19.3288 27.8341L17.6419 27.8348L17.6406 26.1479C17.6369 19.2229 21.4094 12.7823 27.5888 8.97727L25.1863 4.59164C24.8925 4.07789 24.8188 3.42727 24.99 2.83227C25.1638 2.23727 25.5744 1.72539 26.1238 1.43289C26.4419 1.25289 26.8306 1.15289 27.2231 1.15352C28.0744 1.15352 28.8538 1.61539 29.265 2.36164L31.7794 6.94227C34.3813 5.98789 37.1281 5.50102 39.9663 5.50164C42.845 5.50039 45.6056 5.98727 48.2188 6.94602L50.7294 2.35789C51.1338 1.61352 51.9188 1.14977 52.7688 1.15039C53.1513 1.14977 53.5331 1.24289 53.8694 1.42414C54.4338 1.73352 54.8275 2.22789 55.0006 2.82727C55.1731 3.42289 55.1038 4.05164 54.8019 4.59727L52.4006 8.98039C58.57 12.7935 62.3381 19.2291 62.3375 26.1423L62.3394 27.8291ZM50.1231 9.62664L53.325 3.77977C53.4956 3.47414 53.3844 3.08289 53.0756 2.91352C52.7625 2.74414 52.3763 2.85977 52.2106 3.16664L48.9756 9.07289C46.2544 7.86414 43.2075 7.18477 39.9869 7.18789C36.7731 7.18477 33.7319 7.86164 31.0188 9.06602L27.7806 3.17289C27.6138 2.86227 27.2238 2.74852 26.9188 2.91977C26.6081 3.08602 26.4938 3.47664 26.6669 3.78164L29.87 9.62414C23.5763 12.8704 19.3238 19.0516 19.3275 26.1485L60.6513 26.1435C60.6531 19.0491 56.4081 12.8804 50.1231 9.62664ZM30.5881 18.6623C29.6375 18.6604 28.8613 17.8866 28.8613 16.9304C28.8613 15.9785 29.6363 15.1966 30.59 15.1966C31.5481 15.196 32.3231 15.9785 32.3244 16.9304C32.325 17.8854 31.5481 18.6616 30.5881 18.6623ZM49.405 18.6585C48.45 18.6598 47.6706 17.8866 47.6725 16.9266C47.6725 15.976 48.4488 15.1941 49.4056 15.1904C50.3563 15.1935 51.1356 15.9766 51.135 16.9273C51.135 17.8841 50.3594 18.6591 49.405 18.6585ZM32.32 78.8491C28.8619 78.8485 26.0475 76.036 26.0469 72.5754L26.0456 64.096L24.3969 64.0979C22.6363 64.0985 20.9838 63.4141 19.7419 62.1716C18.4981 60.9304 17.8125 59.276 17.815 57.5141L17.8088 27.7473V26.0591H19.4956L60.51 26.0529L62.1975 26.0516V27.7385L62.2019 57.5091C62.2025 61.1398 59.2488 64.0941 55.6194 64.0935L53.9606 64.0948L53.9625 72.571C53.9625 76.0298 51.1488 78.8454 47.6919 78.8454C46.0163 78.8491 44.4438 78.1979 43.2556 77.0098C42.0675 75.8248 41.4131 74.2498 41.4138 72.5748V64.0948H38.5944V72.5729C38.5931 76.0323 35.78 78.8498 32.32 78.8491Z" fill="white"/>
<path id="Vector_3" d="M19.5036 57.5137C19.5011 60.2243 21.6892 62.4124 24.398 62.4118H27.7311L27.7348 72.5768C27.7342 75.1081 29.7905 77.1649 32.3192 77.1655C34.8542 77.1655 36.908 75.1062 36.9055 72.573L36.9061 62.4112L43.0992 62.4093L43.0986 72.5737C43.1011 75.1055 45.1598 77.1649 47.688 77.1599C50.223 77.1618 52.278 75.1024 52.2773 72.5699L52.2742 62.408L55.6198 62.4074C58.3192 62.408 60.5148 60.2149 60.5148 57.5093L60.5092 27.7374L19.4961 27.7449L19.5036 57.5137ZM66.873 56.9449C63.413 56.9455 60.5986 54.1337 60.5992 50.6724L60.5942 31.4612C60.5955 28.0005 63.4055 25.1855 66.8636 25.1855C70.3261 25.1849 73.1423 27.9993 73.1417 31.4593L73.1436 50.6693C73.1442 54.128 70.3323 56.9455 66.873 56.9449ZM66.8667 26.8724C64.3336 26.8699 62.2811 28.9268 62.2811 31.4612L62.283 50.6718C62.2842 53.2087 64.3367 55.2612 66.8717 55.2593C69.4055 55.2587 71.4561 53.2087 71.458 50.6699L71.453 31.4599C71.4523 28.9249 69.4011 26.8712 66.8667 26.8724Z" fill="white"/>
<path id="Vector_4" d="M13.1279 26.8779C10.5948 26.8766 8.54164 28.9348 8.54102 31.466L8.54414 50.676C8.54477 53.216 10.5991 55.266 13.1329 55.2654C15.6679 55.2654 17.7216 53.2154 17.7191 50.6766V31.4635C17.7179 28.9329 15.6623 26.8766 13.1279 26.8779ZM50.1229 9.62664L53.3248 3.77977C53.4954 3.47414 53.3835 3.08539 53.0741 2.91227C52.7616 2.74664 52.376 2.85914 52.2104 3.16664L48.976 9.07477C46.2548 7.86352 43.2091 7.18477 39.9866 7.18789C36.7729 7.18477 33.7285 7.86164 31.0185 9.06602L27.7804 3.17289C27.6123 2.86227 27.2248 2.74977 26.9191 2.91914C26.6079 3.08727 26.4935 3.47664 26.6666 3.78164L29.8698 9.62477C23.576 12.8704 19.3235 19.0516 19.3273 26.1485L60.651 26.1435C60.6529 19.0491 56.4079 12.8804 50.1229 9.62664ZM30.5879 18.6623C29.6373 18.6604 28.861 17.8866 28.861 16.9304C28.861 15.9785 29.6348 15.196 30.5898 15.1966C31.5479 15.196 32.3229 15.9785 32.3241 16.9304C32.3248 17.8854 31.5479 18.6616 30.5879 18.6623ZM49.4048 18.6585C48.4498 18.6598 47.6723 17.8854 47.6723 16.9266C47.676 15.9766 48.4485 15.1941 49.4054 15.1904C50.356 15.1935 51.1354 15.9766 51.1348 16.9273C51.136 17.8841 50.3591 18.6591 49.4048 18.6585ZM19.496 27.7448L19.5029 57.5166C19.501 60.2248 21.6916 62.411 24.3979 62.411L27.731 62.4123L27.7348 72.5773C27.7341 75.1085 29.7916 77.166 32.3191 77.166C34.8541 77.166 36.9079 75.1066 36.9085 72.5741L36.906 62.4116L43.0991 62.4098L43.1016 72.5741C43.1016 75.1035 45.1598 77.1654 47.6879 77.1604C50.2229 77.1623 52.2779 75.1029 52.2773 72.5704L52.2741 62.4085L55.6191 62.406C58.3191 62.4073 60.5154 60.2185 60.5166 57.5098L60.511 27.7379L19.496 27.7448ZM71.4548 31.4591C71.4541 28.9248 69.401 26.871 66.8666 26.8723C64.3335 26.8698 62.281 28.9266 62.281 31.461L62.2848 50.6723C62.2841 53.2085 64.3366 55.2585 66.8716 55.2591C69.4054 55.2585 71.4573 53.2085 71.4579 50.6698L71.4548 31.4591Z" fill="#A4C439"/>
</g>
</svg>
