<svg width="80" height="80" viewBox="0 0 80 80" fill="none" xmlns="http://www.w3.org/2000/svg">
<g id="azure">
<path id="Vector" d="M13.1281 23.4046C13.0252 23.4052 12.9232 23.3854 12.8281 23.3463C12.7329 23.3072 12.6464 23.2496 12.5737 23.1769C12.5009 23.1041 12.4433 23.0176 12.4042 22.9225C12.3651 22.8273 12.3453 22.7253 12.3459 22.6224C12.3424 20.2554 11.4005 17.9864 9.72677 16.3126C8.05304 14.6389 5.78399 13.6971 3.41699 13.6935C3.2103 13.6935 3.01201 13.6117 2.86544 13.466C2.71887 13.3203 2.63594 13.1224 2.63477 12.9158C2.63477 12.7083 2.71718 12.5093 2.86387 12.3626C3.01057 12.2159 3.20953 12.1335 3.41699 12.1335C5.78476 12.13 8.05448 11.1875 9.72834 9.51286C11.4022 7.83817 12.3435 5.56798 12.3459 3.2002C12.3453 3.09732 12.3651 2.99533 12.4042 2.90016C12.4433 2.80499 12.5009 2.71853 12.5737 2.64577C12.6464 2.57302 12.7329 2.51543 12.8281 2.47632C12.9232 2.43722 13.0252 2.41739 13.1281 2.41798C13.231 2.41739 13.333 2.43722 13.4281 2.47632C13.5233 2.51543 13.6098 2.57302 13.6825 2.64577C13.7553 2.71853 13.8129 2.80499 13.852 2.90016C13.8911 2.99533 13.9109 3.09732 13.9103 3.2002C13.9138 5.56721 14.8557 7.83626 16.5294 9.50999C18.2032 11.1837 20.4722 12.1256 22.8392 12.1291C22.9421 12.1285 23.0441 12.1483 23.1392 12.1874C23.2344 12.2265 23.3209 12.2841 23.3936 12.3569C23.4664 12.4296 23.524 12.5161 23.5631 12.6113C23.6022 12.7064 23.622 12.8084 23.6214 12.9113C23.622 13.0142 23.6022 13.1162 23.5631 13.2114C23.524 13.3065 23.4664 13.393 23.3936 13.4657C23.3209 13.5385 23.2344 13.5961 23.1392 13.6352C23.0441 13.6743 22.9421 13.6941 22.8392 13.6935C20.4718 13.6959 18.2021 14.6374 16.5281 16.3113C14.8541 17.9853 13.9127 20.2551 13.9103 22.6224C13.9092 22.8295 13.8264 23.0278 13.6799 23.1742C13.5335 23.3207 13.3352 23.4035 13.1281 23.4046ZM69.3814 77.5824C69.2152 77.5824 69.0558 77.5164 68.9383 77.3989C68.8208 77.2813 68.7548 77.122 68.7548 76.9558C68.7524 75.0622 67.9992 73.247 66.6603 71.908C65.3213 70.5691 63.5061 69.8159 61.6125 69.8135C61.4471 69.8135 61.2884 69.7481 61.171 69.6316C61.0536 69.515 60.987 69.3567 60.9859 69.1913C60.9859 69.0251 61.0519 68.8657 61.1694 68.7482C61.2869 68.6307 61.4463 68.5646 61.6125 68.5646C63.5064 68.5635 65.3224 67.8106 66.6616 66.4714C68.0007 65.1323 68.7536 63.3163 68.7548 61.4224C68.7548 61.2562 68.8208 61.0968 68.9383 60.9793C69.0558 60.8618 69.2152 60.7958 69.3814 60.7958C69.5476 60.7958 69.707 60.8618 69.8245 60.9793C69.9421 61.0968 70.0081 61.2562 70.0081 61.4224C70.0093 63.3163 70.7621 65.1323 72.1013 66.4714C73.4405 67.8106 75.2564 68.5635 77.1503 68.5646C77.3165 68.5646 77.4759 68.6307 77.5934 68.7482C77.711 68.8657 77.777 69.0251 77.777 69.1913C77.777 69.3575 77.711 69.5169 77.5934 69.6344C77.4759 69.752 77.3165 69.818 77.1503 69.818C75.2568 69.8203 73.4415 70.5736 72.1026 71.9125C70.7637 73.2514 70.0104 75.0667 70.0081 76.9602C70.0069 77.1256 69.9404 77.2839 69.823 77.4005C69.7056 77.517 69.5469 77.5824 69.3814 77.5824Z" fill="#50E6FF"/>
<path id="Vector_2" d="M66.5292 33.467C67.7827 38.714 67.4521 44.2148 65.5794 49.2739C63.7066 54.333 60.3757 58.7231 56.0078 61.8891C51.64 65.0552 46.4314 66.8548 41.0407 67.0606C35.65 67.2664 30.3194 65.8691 25.7228 63.0453C21.1263 60.2215 17.4704 56.0981 15.2174 51.1965C12.9643 46.2949 12.2154 40.8353 13.0652 35.508C13.9151 30.1808 16.3255 25.2252 19.9918 21.2679C23.6581 17.3106 28.4155 14.5294 33.6625 13.2759C40.6984 11.5951 48.1138 12.778 54.2775 16.5646C60.4412 20.3512 64.8482 26.4311 66.5292 33.467Z" fill="url(#paint0_radial_152_448)"/>
<g id="Clip path group">
<mask id="mask0_152_448" style="mask-type:luminance" maskUnits="userSpaceOnUse" x="12" y="12" width="56" height="56">
<g id="b">
<path id="Vector_3" d="M66.5292 33.467C67.7827 38.714 67.4521 44.2148 65.5794 49.2739C63.7066 54.333 60.3757 58.7231 56.0078 61.8891C51.64 65.0552 46.4314 66.8548 41.0407 67.0606C35.65 67.2664 30.3194 65.8691 25.7228 63.0453C21.1263 60.2215 17.4704 56.0981 15.2174 51.1965C12.9643 46.2949 12.2154 40.8353 13.0652 35.508C13.9151 30.1808 16.3255 25.2252 19.9918 21.2679C23.6581 17.3106 28.4155 14.5294 33.6625 13.2759C40.6984 11.5951 48.1138 12.778 54.2775 16.5646C60.4412 20.3512 64.8482 26.4311 66.5292 33.467Z" fill="white"/>
</g>
</mask>
<g mask="url(#mask0_152_448)">
<g id="Group">
<path id="Vector_4" d="M25.3727 58.2894C26.3435 58.3148 27.3096 58.1458 28.2141 57.7922C29.1185 57.4386 29.9431 56.9076 30.6393 56.2305C31.3354 55.5534 31.889 54.7438 32.2676 53.8495C32.6461 52.9552 32.8419 51.9941 32.8434 51.023C32.8448 50.0519 32.652 49.0903 32.2762 48.1948C31.9004 47.2993 31.3493 46.4881 30.6552 45.8088C29.9611 45.1296 29.1382 44.5961 28.2348 44.2397C27.3314 43.8834 26.3658 43.7114 25.395 43.7338C25.4164 43.5271 25.4268 43.3194 25.4261 43.1116C25.4085 41.1694 24.6215 39.3133 23.2377 37.9504C21.8539 36.5874 19.9861 35.8287 18.0438 35.8405H12.5861C12.0521 39.8732 12.4103 43.9739 13.6352 47.8529C14.8601 51.732 16.9219 55.2947 19.675 58.2894H25.3727ZM66.8661 34.7338C66.8661 34.6672 66.8661 34.6005 66.835 34.5383C65.9558 29.7824 63.7952 25.3567 60.5861 21.7383C60.1697 21.5696 59.7401 21.4358 59.3016 21.3383C58.1338 21.0051 56.9055 20.9412 55.7094 21.1515C54.5133 21.3618 53.3805 21.8408 52.3963 22.5524C51.4122 23.264 50.6023 24.1896 50.0278 25.2596C49.4532 26.3296 49.129 27.516 49.0794 28.7294C48.7843 28.6953 48.4876 28.676 48.1905 28.6716C46.3701 28.6715 44.6082 29.3146 43.216 30.4875C41.8238 31.6604 40.8908 33.2875 40.5819 35.0815C40.2729 36.8755 40.6079 38.721 41.5277 40.292C42.4474 41.863 43.8927 43.0584 45.6083 43.6672C46.3741 43.9673 47.1902 44.1182 48.0127 44.1116H57.035C60.6577 41.3694 63.956 38.2232 66.8661 34.7338Z" fill="#F2F2F2"/>
</g>
</g>
</g>
<path id="Vector_5" d="M76.4048 17.0315C73.6092 12.3782 67.0715 10.5649 57.9381 11.9249C54.8089 12.3683 51.7162 13.0398 48.6848 13.9337C51.0896 14.7639 53.3733 15.9103 55.4759 17.3426C56.547 17.1071 57.6226 16.8271 58.6537 16.6715C60.2758 16.419 61.9143 16.2868 63.5559 16.276C65.1607 16.0446 66.798 16.2182 68.3186 16.781C69.8392 17.3438 71.195 18.2778 72.2626 19.4982C73.9648 22.3337 72.5292 27.1826 68.3248 32.8315C62.4816 40.1045 55.3213 46.2124 47.2181 50.836C39.2965 55.7801 30.5157 59.1905 21.3337 60.8893C14.3826 61.9293 9.41366 60.8893 7.71144 58.0626C6.00921 55.236 7.44477 50.3738 11.6492 44.7515C12.1692 44.0538 12.2981 43.7115 12.8892 43.0093C12.6114 40.5998 12.6502 38.1643 13.0048 35.7649C11.1152 37.6589 9.37658 39.6977 7.80477 41.8626C2.2981 49.2271 0.804769 55.8493 3.59588 60.5026C5.07032 62.4752 7.03679 64.0261 9.29864 65.0003C11.5605 65.9744 14.0385 66.3377 16.4848 66.0538C18.3466 66.0439 20.205 65.8953 22.0448 65.6093C31.846 63.8204 41.2227 60.2018 49.6848 54.9426C58.3269 49.9969 65.9582 43.4649 72.1781 35.6893C77.7026 28.3071 79.1959 21.6893 76.4048 17.0315Z" fill="#50E6FF"/>
</g>
<defs>
<radialGradient id="paint0_radial_152_448" cx="0" cy="0" r="1" gradientUnits="userSpaceOnUse" gradientTransform="translate(39.7904 39.7957) scale(27.4149 27.1767)">
<stop offset="0.183" stop-color="#5EA0EF"/>
<stop offset="1" stop-color="#0078D4"/>
</radialGradient>
</defs>
</svg>
