<svg width="80" height="80" viewBox="0 0 80 80" fill="none" xmlns="http://www.w3.org/2000/svg">
<g id="Flutter" clip-path="url(#clip0_152_438)">
<rect width="80" height="80" fill="white"/>
<path id="Vector" d="M19.9997 52.3167L7.67969 39.9967L47.683 0H72.3197L19.9997 52.3167ZM72.3163 36.91H47.6797L38.453 46.1367L50.773 58.4567L72.3163 36.91Z" fill="#42A5F5" fill-opacity="0.8"/>
<path id="Vector_2" d="M38.4531 70.7737L47.6831 80.0004H72.3198L50.7765 58.457L38.4531 70.7737Z" fill="#0D47A1"/>
<path id="Vector_3" d="M26.1641 58.4635L38.4641 46.1602L50.7641 58.4602L38.4641 70.7635L26.1641 58.4635Z" fill="#42A5F5"/>
<path id="Vector_4" d="M38.4629 70.7629L50.7629 58.4629L52.4796 60.1796L40.1796 72.4796L38.4629 70.7629Z" fill="url(#paint0_linear_152_438)"/>
<path id="Vector_5" d="M38.4531 70.7737L56.7298 64.4604L50.7698 58.457L38.4531 70.7737Z" fill="url(#paint1_linear_152_438)"/>
</g>
<defs>
<linearGradient id="paint0_linear_152_438" x1="44.467" y1="64.5491" x2="46.2371" y2="66.3192" gradientUnits="userSpaceOnUse">
<stop offset="0.2" stop-opacity="0.15"/>
<stop offset="0.85" stop-color="#616161" stop-opacity="0.01"/>
</linearGradient>
<linearGradient id="paint1_linear_152_438" x1="39.4208" y1="65.1559" x2="56.3795" y2="65.1559" gradientUnits="userSpaceOnUse">
<stop offset="0.2" stop-opacity="0.55"/>
<stop offset="0.85" stop-color="#616161" stop-opacity="0.01"/>
</linearGradient>
<clipPath id="clip0_152_438">
<rect width="80" height="80" fill="white"/>
</clipPath>
</defs>
</svg>
