<svg width="40" height="40" viewBox="0 0 40 40" fill="none" xmlns="http://www.w3.org/2000/svg">
<g clip-path="url(#clip0_552_4135)">
<path d="M14.1667 8.33333C16.465 8.33333 18.3333 6.465 18.3333 4.16667C18.3333 1.86833 16.465 0 14.1667 0C11.8683 0 10 1.86833 10 4.16667C10 6.465 11.8683 8.33333 14.1667 8.33333ZM14.1667 1.66667C15.545 1.66667 16.6667 2.78833 16.6667 4.16667C16.6667 5.545 15.545 6.66667 14.1667 6.66667C12.7883 6.66667 11.6667 5.545 11.6667 4.16667C11.6667 2.78833 12.7883 1.66667 14.1667 1.66667ZM6.695 15.62C7.57333 12.3117 10.6467 10 14.1667 10C17.6867 10 20.76 12.3117 21.6383 15.62C21.755 16.065 21.4917 16.52 21.0467 16.6383C20.5617 16.7783 20.1267 16.42 20.0283 16.0467C19.345 13.4683 16.935 11.6667 14.1667 11.6667C11.3983 11.6667 8.99 13.4683 8.305 16.0467C8.18667 16.4933 7.73667 16.7633 7.28667 16.6383C6.84 16.52 6.57667 16.0633 6.695 15.62ZM38.635 16.09C37.8067 15.3383 36.725 14.9517 35.62 15.005C34.5033 15.0567 33.4733 15.54 32.7217 16.3667L26.5017 23.205C25.9783 21.3583 24.2767 20 22.2633 20H5.83333C2.61667 20 0 22.6167 0 25.8333V34.1667C0 37.3833 2.61667 40 5.83333 40H15.775C20.285 40 24.5933 38.0683 27.5967 34.7L38.94 21.9667C40.4583 20.265 40.3217 17.6267 38.635 16.09ZM37.6967 20.8567L26.3533 33.59C23.6667 36.605 19.81 38.3333 15.775 38.3333H5.83333C3.535 38.3333 1.66667 36.465 1.66667 34.1667V25.8333C1.66667 23.535 3.535 21.6667 5.83333 21.6667H22.2617C23.77 21.6667 25 22.895 25 24.405C25 25.7583 23.9917 26.9233 22.67 27.1117L12.4017 28.34C11.945 28.3933 11.6183 28.8083 11.6733 29.2667C11.7267 29.7233 12.145 30.0617 12.6 29.995L22.8867 28.765C24.59 28.5217 25.9633 27.3 26.4633 25.725L33.9567 17.4933C34.4083 16.995 35.0283 16.7033 35.7 16.6733C36.375 16.6417 37.015 16.8733 37.5133 17.3267C38.5283 18.2533 38.61 19.8383 37.6967 20.8617V20.8567Z" fill="black"/>
</g>
<defs>
<clipPath id="clip0_552_4135">
<rect width="40" height="40" fill="white"/>
</clipPath>
</defs>
</svg>
