<svg width="40" height="40" viewBox="0 0 40 40" fill="none" xmlns="http://www.w3.org/2000/svg">
<path d="M12.2317 24.4984C11.8733 24.8584 11.665 25.3651 11.6667 25.9018C11.6667 26.4368 11.88 26.9417 12.2617 27.3201L16.3917 31.0484C16.7333 31.3584 16.76 31.8834 16.4517 32.2251C16.1433 32.5684 15.615 32.5917 15.275 32.2851L11.1183 28.5301C10.39 27.8117 10.0033 26.8901 10 25.9067C9.99667 24.9234 10.3783 23.9967 11.075 23.3017L15.2667 19.3917C15.6017 19.0784 16.1317 19.0968 16.4433 19.4317C16.7567 19.7684 16.74 20.2967 16.4033 20.6084L12.2317 24.4984ZM40 9.16675V30.8334C40 34.9684 36.635 38.3334 32.5 38.3334H7.5C3.365 38.3334 0 34.9684 0 30.8334V9.16675C0 5.03175 3.365 1.66675 7.5 1.66675H32.5C36.635 1.66675 40 5.03175 40 9.16675ZM1.66667 9.16675V13.3334H38.3333V9.16675C38.3333 5.95008 35.7167 3.33341 32.5 3.33341H7.5C4.28333 3.33341 1.66667 5.95008 1.66667 9.16675ZM38.3333 30.8334V15.0001H1.66667V30.8334C1.66667 34.0501 4.28333 36.6667 7.5 36.6667H32.5C35.7167 36.6667 38.3333 34.0501 38.3333 30.8334ZM6.66667 10.0001C7.58667 10.0001 8.33333 9.25342 8.33333 8.33342C8.33333 7.41341 7.58667 6.66675 6.66667 6.66675C5.74667 6.66675 5 7.41341 5 8.33342C5 9.25342 5.74667 10.0001 6.66667 10.0001ZM11.6667 10.0001C12.5867 10.0001 13.3333 9.25342 13.3333 8.33342C13.3333 7.41341 12.5867 6.66675 11.6667 6.66675C10.7467 6.66675 10 7.41341 10 8.33342C10 9.25342 10.7467 10.0001 11.6667 10.0001ZM16.6667 10.0001C17.5867 10.0001 18.3333 9.25342 18.3333 8.33342C18.3333 7.41341 17.5867 6.66675 16.6667 6.66675C15.7467 6.66675 15 7.41341 15 8.33342C15 9.25342 15.7467 10.0001 16.6667 10.0001ZM24.735 19.3917C24.4017 19.0784 23.87 19.0968 23.5583 19.4317C23.245 19.7684 23.2617 20.2967 23.5983 20.6084L27.7467 24.4784C28.1267 24.8584 28.335 25.3634 28.3333 25.9018C28.3333 26.4368 28.12 26.9417 27.765 27.2934L23.6083 31.0484C23.2667 31.3584 23.24 31.8834 23.5483 32.2251C23.8567 32.5684 24.3833 32.5917 24.725 32.2851L28.91 28.5034C29.61 27.8117 29.9967 26.8884 30 25.9051C30.0033 24.9217 29.6217 23.9951 28.905 23.2801L24.735 19.3901V19.3917Z" fill="black"/>
</svg>
