<svg width="40" height="40" viewBox="0 0 40 40" fill="none" xmlns="http://www.w3.org/2000/svg">
<g clip-path="url(#clip0_552_4133)">
<path d="M10.9717 32.4867C11.8983 33.4133 11.8983 34.92 10.9717 35.8467L7.06167 39.7567C6.73667 40.0817 6.20833 40.0817 5.88333 39.7567C5.55833 39.4317 5.55833 38.9033 5.88333 38.5783L9.46 35.0017H5.83333C2.61667 35.0017 0 32.385 0 29.1683V24.1683C0 23.7083 0.373333 23.335 0.833333 23.335C1.29333 23.335 1.66667 23.7083 1.66667 24.1683V29.1683C1.66667 31.465 3.53667 33.335 5.83333 33.335H9.46L5.88333 29.7583C5.55833 29.4333 5.55833 28.905 5.88333 28.58C6.20833 28.255 6.73667 28.255 7.06167 28.58L10.9717 32.49V32.4867ZM39.1667 23.3333C38.7067 23.3333 38.3333 23.7067 38.3333 24.1667V29.1667C38.3333 31.4633 36.4633 33.3333 34.1667 33.3333H30.54L34.1167 29.7567C34.4417 29.4317 34.4417 28.9033 34.1167 28.5783C33.7917 28.2533 33.2633 28.2533 32.9383 28.5783L29.0283 32.4883C28.1017 33.415 28.1017 34.9217 29.0283 35.8483L32.9383 39.7583C33.2633 40.0833 33.7917 40.0833 34.1167 39.7583C34.4417 39.4333 34.4417 38.905 34.1167 38.58L30.54 35.0033H34.1667C37.3833 35.0033 40 32.3867 40 29.17V24.17C40 23.71 39.6267 23.3367 39.1667 23.3367V23.3333ZM23.3333 23.3333C23.3333 25.1717 21.8383 26.6667 20 26.6667C18.1617 26.6667 16.6667 25.1717 16.6667 23.3333C16.6667 21.495 18.1617 20 20 20C21.8383 20 23.3333 21.495 23.3333 23.3333ZM21.6667 23.3333C21.6667 22.415 20.9183 21.6667 20 21.6667C19.0817 21.6667 18.3333 22.415 18.3333 23.3333C18.3333 24.2517 19.0817 25 20 25C20.9183 25 21.6667 24.2517 21.6667 23.3333ZM28.62 28.4017C27.9233 29.59 26.3883 29.9883 25.1983 29.29L24.8267 29.0717C24.1467 29.6383 23.3583 30.0817 22.5 30.3817V30.8333C22.5 32.2117 21.3783 33.3333 20 33.3333C18.6217 33.3333 17.5 32.2117 17.5 30.8333V30.3817C16.6417 30.0817 15.8533 29.6383 15.1733 29.0717L14.8017 29.29C13.6117 29.9883 12.0783 29.5883 11.38 28.4017C11.0417 27.8267 10.9467 27.1533 11.115 26.5067C11.2833 25.86 11.6933 25.3183 12.2683 24.9783L12.6583 24.75C12.5517 24.25 12.5017 23.79 12.5017 23.3333C12.5017 22.8767 12.5517 22.415 12.6583 21.9167L12.2683 21.6883C11.6933 21.35 11.2833 20.8083 11.115 20.16C10.9467 19.5133 11.0417 18.84 11.3817 18.265C11.72 17.69 12.2617 17.28 12.9083 17.1117C13.555 16.945 14.2283 17.0383 14.8033 17.3767L15.175 17.595C15.855 17.0283 16.6433 16.585 17.5017 16.285V15.8333C17.5017 14.455 18.6233 13.3333 20.0017 13.3333C21.38 13.3333 22.5017 14.455 22.5017 15.8333V16.285C23.36 16.585 24.1483 17.0283 24.8283 17.595L25.2 17.3767C25.775 17.0383 26.45 16.9467 27.095 17.1117C27.7417 17.28 28.2833 17.69 28.6233 18.265C28.9617 18.84 29.0567 19.5133 28.8883 20.1583C28.72 20.805 28.31 21.3467 27.735 21.6867L27.345 21.915C27.4517 22.415 27.5017 22.875 27.5017 23.3317C27.5017 23.7883 27.4517 24.25 27.345 24.7483L27.735 24.9767C28.31 25.315 28.72 25.8567 28.8883 26.505C29.0567 27.1517 28.9617 27.825 28.6217 28.4L28.62 28.4017ZM25.9617 20.795L26.8883 20.25C27.28 20.0317 27.4183 19.4917 27.185 19.11C26.965 18.7183 26.425 18.5767 26.0433 18.8133L25.1417 19.3433C24.815 19.5367 24.3983 19.4817 24.13 19.2133C23.4133 18.4967 22.49 17.975 21.4583 17.7083C21.09 17.6133 20.8333 17.2817 20.8333 16.9017V15.8317C20.8333 15.3717 20.46 14.9983 20 14.9983C19.54 14.9983 19.1667 15.3717 19.1667 15.8317V16.9017C19.1667 17.2817 18.91 17.6133 18.5417 17.7083C17.51 17.975 16.5867 18.4967 15.87 19.2133C15.6 19.4817 15.185 19.5367 14.8583 19.3433L13.9567 18.8133C13.5733 18.5767 13.0367 18.7183 12.8167 19.1083C12.5817 19.4917 12.72 20.03 13.1117 20.25L14.0383 20.795C14.365 20.9867 14.5217 21.3767 14.4183 21.7417C14.2467 22.3433 14.1667 22.8483 14.1667 23.3333C14.1667 23.8183 14.2467 24.3233 14.4183 24.925C14.5217 25.29 14.3667 25.68 14.0383 25.8717L13.1117 26.4167C12.72 26.635 12.5817 27.175 12.815 27.5567C13.0333 27.9483 13.575 28.09 13.9567 27.8533L14.8583 27.3233C15.1833 27.1317 15.6017 27.1833 15.87 27.4533C16.585 28.17 17.5083 28.69 18.5417 28.9583C18.91 29.0533 19.1667 29.385 19.1667 29.765V30.835C19.1667 31.295 19.54 31.6683 20 31.6683C20.46 31.6683 20.8333 31.295 20.8333 30.835V29.765C20.8333 29.385 21.09 29.0533 21.4583 28.9583C22.49 28.69 23.4133 28.17 24.13 27.4533C24.3983 27.1833 24.815 27.13 25.1417 27.3233L26.0433 27.8533C26.4233 28.0917 26.965 27.9467 27.1833 27.5567C27.4183 27.175 27.28 26.635 26.8883 26.4167L25.9617 25.8717C25.635 25.68 25.4783 25.29 25.5817 24.925C25.7533 24.3233 25.8333 23.8183 25.8333 23.3333C25.8333 22.8483 25.7533 22.3433 25.5817 21.7417C25.4783 21.3767 25.6333 20.9867 25.9617 20.795ZM3.33333 5C3.33333 2.24333 5.57667 0 8.33333 0C11.09 0 13.3333 2.24333 13.3333 5C13.3333 7.75667 11.09 10 8.33333 10C5.57667 10 3.33333 7.75667 3.33333 5ZM5 5C5 6.83833 6.495 8.33333 8.33333 8.33333C10.1717 8.33333 11.6667 6.83833 11.6667 5C11.6667 3.16167 10.1717 1.66667 8.33333 1.66667C6.495 1.66667 5 3.16167 5 5ZM26.6667 5C26.6667 2.24333 28.91 0 31.6667 0C34.4233 0 36.6667 2.24333 36.6667 5C36.6667 7.75667 34.4233 10 31.6667 10C28.91 10 26.6667 7.75667 26.6667 5ZM28.3333 5C28.3333 6.83833 29.8283 8.33333 31.6667 8.33333C33.505 8.33333 35 6.83833 35 5C35 3.16167 33.505 1.66667 31.6667 1.66667C29.8283 1.66667 28.3333 3.16167 28.3333 5ZM28.7683 14.0233C28.3467 14.2067 28.1517 14.6983 28.3367 15.12C28.5217 15.5417 29.0083 15.7383 29.4333 15.5517C30.275 15.1867 31.17 15 32.0933 15C34.915 15 37.4417 16.7867 38.3817 19.445C38.5333 19.8833 39.0217 20.105 39.445 19.9533C39.8783 19.8 40.1067 19.325 39.9533 18.89C38.7783 15.5667 35.62 13.335 32.0933 13.335C30.94 13.335 29.8217 13.5667 28.77 14.025L28.7683 14.0233ZM0.556667 19.9517C0.98 20.105 1.46667 19.8817 1.62 19.4433C2.56 16.785 5.08667 14.9983 7.90833 14.9983C8.83333 14.9983 9.72667 15.1833 10.5667 15.55C10.99 15.7333 11.4783 15.5383 11.6633 15.1183C11.8467 14.6967 11.6533 14.205 11.2317 14.0217C10.18 13.5633 9.06167 13.3317 7.90667 13.3317C4.38 13.3333 1.22167 15.565 0.0483333 18.8883C-0.105 19.3217 0.121667 19.7983 0.556667 19.9517Z" fill="black"/>
</g>
<defs>
<clipPath id="clip0_552_4133">
<rect width="40" height="40" fill="white"/>
</clipPath>
</defs>
</svg>
