<svg width="24" height="24" viewBox="0 0 24 24" fill="none" xmlns="http://www.w3.org/2000/svg">
<path d="M15.3529 6.69767C10.5886 6.69767 6.70572 10.5823 6.70572 15.3488C6.70572 20.1153 10.5886 24 15.3529 24C20.1172 24 24 20.1153 24 15.3488C24 10.5823 20.1172 6.69767 15.3529 6.69767ZM14.0809 17.5479C14.4045 17.8716 14.4045 18.4074 14.0809 18.7312C13.9135 18.8986 13.7015 18.9767 13.4895 18.9767C13.2775 18.9767 13.0656 18.8986 12.8982 18.7312L10.1088 15.9405C9.78522 15.6167 9.78522 15.0809 10.1088 14.7572L12.8982 11.9665C13.2218 11.6428 13.7573 11.6428 14.0809 11.9665C14.4045 12.2902 14.4045 12.826 14.0809 13.1498L11.8828 15.3488L14.0809 17.5479ZM20.5858 15.9405L17.7964 18.7312C17.629 18.8986 17.417 18.9767 17.205 18.9767C16.993 18.9767 16.781 18.8986 16.6137 18.7312C16.2901 18.4074 16.2901 17.8716 16.6137 17.5479L18.8117 15.3488L16.6137 13.1498C16.2901 12.826 16.2901 12.2902 16.6137 11.9665C16.9372 11.6428 17.4728 11.6428 17.7964 11.9665L20.5858 14.7572C20.9093 15.0809 20.9093 15.6167 20.5858 15.9405ZM8.30126 7.79163C7.0516 8.97488 6.08089 10.4595 5.54533 12.1228C2.24268 11.8326 0.345886 11.1851 0 10.7833V5.92744C2.15342 7.38977 5.8689 7.74698 8.30126 7.79163ZM5.82427 19.334C2.91213 18.9991 0 18.1842 0 16.4651V12.6698C1.36123 13.2614 3.34728 13.574 5.14365 13.7526C5.06555 14.2772 5.02092 14.8019 5.02092 15.3488C5.02092 16.7553 5.31102 18.106 5.82427 19.334ZM9.21618 0C5.80195 0 0.0111576 0.647442 0.0111576 3.06977C0.0111576 5.49209 5.80195 6.13953 9.21618 6.13953C12.6304 6.13953 18.4212 5.49209 18.4212 3.06977C18.4212 0.647442 12.6304 0 9.21618 0Z" fill="#0E53BE"/>
</svg>
