<svg width="24" height="24" viewBox="0 0 24 24" fill="none" xmlns="http://www.w3.org/2000/svg">
<path d="M0.000156292 1.51624C0.000156292 1.00072 2.26728 0 6.42882 0C10.5904 0 12.8575 1.00072 12.8575 1.51624C12.8575 2.03177 10.5904 3.03248 6.42882 3.03248C2.26728 3.03248 0.000156292 2.03609 0.000156292 1.51624ZM6.42882 9.53052C10.5902 9.53052 12.8575 8.5298 12.8575 8.01428V2.72041C11.5461 3.52184 8.91904 3.89873 6.42882 3.89873C3.9386 3.89873 1.31178 3.52184 0.000156292 2.72041V8.01428C0.000156292 8.53413 2.26728 9.53052 6.42882 9.53052ZM6.42882 16.0288C7.47987 16.0331 8.52988 15.9606 9.57019 15.8122C9.75876 15.4212 10.1284 15.1505 10.5559 15.093L11.6659 14.9414C11.7045 14.8504 11.7388 14.7595 11.7816 14.6685L11.1002 13.7674C10.707 13.2497 10.7541 12.5176 11.2116 12.0562L12.1845 11.0729C12.3655 10.8822 12.6013 10.7523 12.8573 10.7003V9.21869C11.5459 10.0201 8.91888 10.397 6.42866 10.397C3.93844 10.397 1.31162 10.0201 0 9.21869V14.5126C0 15.0324 2.26728 16.0288 6.42882 16.0288ZM11.1001 20.3869L11.7816 19.4859C11.7387 19.3949 11.7044 19.3039 11.6659 19.2086L10.5559 19.0613C9.91192 18.9758 9.43193 18.418 9.4373 17.7617V16.7003C8.44302 16.8314 7.44019 16.8964 6.43719 16.8953C3.94721 16.8953 1.32015 16.5184 0.00852742 15.7169V21.0108C-4.39454e-05 21.5307 2.26709 22.5271 6.42841 22.5271C8.01627 22.5574 9.60187 22.3754 11.1428 21.9856C10.7678 21.5253 10.7498 20.8667 11.1001 20.3869ZM17.1429 16.1156C16.7572 16.1134 16.409 16.3473 16.2611 16.7058C16.1122 17.0654 16.1925 17.4802 16.4647 17.7553C16.7358 18.0314 17.1461 18.1148 17.5018 17.9665C17.8575 17.8181 18.09 17.4672 18.09 17.0773C18.09 16.5477 17.6668 16.1178 17.1429 16.1156ZM24 16.3798V17.7704C24.0021 17.9892 23.8414 18.1754 23.6271 18.2036L21.9857 18.4246C21.8743 18.8285 21.7146 19.2173 21.51 19.5812L22.5171 20.9155C22.6457 21.0877 22.6296 21.3303 22.4785 21.483L21.5057 22.4707C21.3536 22.6224 21.1135 22.6364 20.9443 22.5054L19.6243 21.4873C19.2632 21.6931 18.8796 21.8534 18.48 21.9639L18.2614 23.6231C18.2336 23.8397 18.0493 24.0021 17.8328 24H16.4614C16.245 24.0021 16.0607 23.8397 16.0329 23.6231L15.8143 21.9639C15.4147 21.8513 15.0311 21.6899 14.67 21.483L13.3543 22.5011C13.1839 22.6354 12.9418 22.6202 12.7886 22.4664L11.8157 21.4787C11.6657 21.3249 11.6518 21.0823 11.7814 20.9112L12.7886 19.5769C12.5797 19.2141 12.42 18.8253 12.3129 18.4202L10.6672 18.1993C10.4529 18.1711 10.2922 17.9849 10.2943 17.7661V16.3798C10.2922 16.161 10.4529 15.9748 10.6672 15.9466L12.3129 15.7257C12.42 15.3206 12.5796 14.9318 12.7886 14.569L11.7814 13.2347C11.6518 13.0636 11.6657 12.821 11.8157 12.6672L12.7886 11.6795C12.9418 11.5257 13.1839 11.5105 13.3543 11.6448L14.67 12.6629C15.0311 12.456 15.4146 12.2947 15.8143 12.182L16.0371 10.5185C16.0671 10.303 16.2504 10.1438 16.4657 10.1459H17.8414C18.0568 10.1438 18.24 10.303 18.27 10.5185L18.4885 12.182C18.8882 12.2947 19.2728 12.456 19.6328 12.6629L20.9528 11.6448C21.1221 11.5138 21.3621 11.5279 21.5143 11.6795L22.4871 12.6672C22.6382 12.8199 22.6543 13.0625 22.5257 13.2347L21.5185 14.569C21.7232 14.9329 21.8828 15.3217 21.9943 15.7257L23.6357 15.9466C23.8468 15.9791 24.0021 16.1643 24 16.3798ZM18.9515 17.0773C18.9515 16.3397 18.5122 15.6748 17.8383 15.3932C17.1655 15.1105 16.3898 15.2654 15.8733 15.7863C15.3569 16.3073 15.2015 17.0903 15.479 17.7726C15.7565 18.4538 16.4133 18.8989 17.1429 18.9011C18.1404 18.9011 18.9493 18.0856 18.9515 17.0773Z" fill="#0E53BE"/>
</svg>
