<svg width="22" height="26" viewBox="0 0 22 26" fill="none" xmlns="http://www.w3.org/2000/svg">
<path d="M21.7075 7.2925L14.7075 0.2925C14.6146 0.199666 14.5042 0.126052 14.3829 0.0758639C14.2615 0.0256758 14.1314 -0.000102986 14 3.09198e-07H2C1.46957 3.09198e-07 0.960859 0.210714 0.585786 0.585787C0.210714 0.960859 0 1.46957 0 2V24C0 24.5304 0.210714 25.0391 0.585786 25.4142C0.960859 25.7893 1.46957 26 2 26H20C20.5304 26 21.0391 25.7893 21.4142 25.4142C21.7893 25.0391 22 24.5304 22 24V8C22.0001 7.86864 21.9743 7.73855 21.9241 7.61715C21.8739 7.49576 21.8003 7.38544 21.7075 7.2925ZM8.7075 18.2925C8.80041 18.3854 8.87411 18.4957 8.92439 18.6171C8.97468 18.7385 9.00056 18.8686 9.00056 19C9.00056 19.1314 8.97468 19.2615 8.92439 19.3829C8.87411 19.5043 8.80041 19.6146 8.7075 19.7075C8.61459 19.8004 8.50429 19.8741 8.3829 19.9244C8.2615 19.9747 8.1314 20.0006 8 20.0006C7.86861 20.0006 7.7385 19.9747 7.6171 19.9244C7.49571 19.8741 7.38541 19.8004 7.2925 19.7075L4.2925 16.7075C4.19952 16.6146 4.12576 16.5043 4.07544 16.3829C4.02512 16.2615 3.99921 16.1314 3.99921 16C3.99921 15.8686 4.02512 15.7385 4.07544 15.6171C4.12576 15.4957 4.19952 15.3854 4.2925 15.2925L7.2925 12.2925C7.48014 12.1049 7.73464 11.9994 8 11.9994C8.26536 11.9994 8.51986 12.1049 8.7075 12.2925C8.89514 12.4801 9.00056 12.7346 9.00056 13C9.00056 13.2654 8.89514 13.5199 8.7075 13.7075L6.41375 16L8.7075 18.2925ZM17.7075 16.7075L14.7075 19.7075C14.5199 19.8951 14.2654 20.0006 14 20.0006C13.7346 20.0006 13.4801 19.8951 13.2925 19.7075C13.1049 19.5199 12.9994 19.2654 12.9994 19C12.9994 18.7346 13.1049 18.4801 13.2925 18.2925L15.5863 16L13.2925 13.7075C13.1049 13.5199 12.9994 13.2654 12.9994 13C12.9994 12.7346 13.1049 12.4801 13.2925 12.2925C13.4801 12.1049 13.7346 11.9994 14 11.9994C14.2654 11.9994 14.5199 12.1049 14.7075 12.2925L17.7075 15.2925C17.8005 15.3854 17.8742 15.4957 17.9246 15.6171C17.9749 15.7385 18.0008 15.8686 18.0008 16C18.0008 16.1314 17.9749 16.2615 17.9246 16.3829C17.8742 16.5043 17.8005 16.6146 17.7075 16.7075ZM14 8V2.5L19.5 8H14Z" fill="#0E53BE"/>
</svg>
