<svg width="24" height="24" viewBox="0 0 24 24" fill="none" xmlns="http://www.w3.org/2000/svg">
<path d="M21.6 0H2.4C1.07452 0 0 1.11929 0 2.5V7.5C0 8.88071 1.07452 10 2.4 10H21.6C22.9255 10 24 8.88071 24 7.5V2.5C24 1.11929 22.9255 0 21.6 0Z" fill="#0E53BE"/>
<path d="M21.6 14H2.4C1.07452 14 0 15.1193 0 16.5V21.5C0 22.8807 1.07452 24 2.4 24H21.6C22.9255 24 24 22.8807 24 21.5V16.5C24 15.1193 22.9255 14 21.6 14Z" fill="#0E53BE"/>
<path d="M5 6H5.01" stroke="#EFF6FF" stroke-width="2" stroke-linecap="round" stroke-linejoin="round"/>
<path d="M5 21H5.01" stroke="#EFF6FF" stroke-width="2" stroke-linecap="round" stroke-linejoin="round"/>
</svg>
