<svg width="158" height="134" viewBox="0 0 158 134" fill="none" xmlns="http://www.w3.org/2000/svg">
<path d="M58.8302 44.4992C58.7875 44.4992 58.7483 44.4763 58.727 44.4397L57.6029 42.4938C57.5816 42.4569 57.5816 42.4114 57.6029 42.3745L58.727 40.4289C58.748 40.392 58.7875 40.3694 58.8302 40.3694C58.8728 40.3694 58.912 40.392 58.9334 40.4286L60.0601 42.3743C60.0814 42.4114 60.0814 42.4569 60.0601 42.4938L58.9334 44.4397C58.912 44.4766 58.8726 44.4992 58.8302 44.4992ZM57.8435 42.434L58.8304 44.142L59.8192 42.434L58.8304 40.7264L57.8435 42.434Z" fill="#25292B"/>
<path d="M55.7063 42.1676C55.3319 42.1676 55.0273 41.8631 55.0273 41.4887C55.0273 41.1144 55.3319 40.8101 55.7063 40.8101C56.0806 40.8101 56.3849 41.1144 56.3849 41.4887C56.3849 41.8631 56.0806 42.1676 55.7063 42.1676ZM55.7063 41.0483C55.4633 41.0483 55.2656 41.246 55.2656 41.4887C55.2656 41.7317 55.4633 41.9294 55.7063 41.9294C55.949 41.9294 56.1467 41.7317 56.1467 41.4887C56.1467 41.246 55.949 41.0483 55.7063 41.0483Z" fill="#25292B"/>
<path d="M57.7064 39.6706C57.3794 39.6706 57.1133 39.4044 57.1133 39.0775C57.1133 38.7508 57.3794 38.4846 57.7064 38.4846C58.0333 38.4846 58.2995 38.7508 58.2995 39.0775C58.2995 39.4047 58.0336 39.6706 57.7064 39.6706ZM57.7064 38.7231C57.5108 38.7231 57.3518 38.8821 57.3518 39.0777C57.3518 39.2733 57.5111 39.4323 57.7064 39.4323C57.902 39.4323 58.061 39.273 58.061 39.0777C58.0612 38.8821 57.902 38.7231 57.7064 38.7231Z" fill="#25292B"/>
<path d="M55.142 39.9436C54.9 39.9436 54.7031 39.7467 54.7031 39.5048C54.7031 39.2628 54.9 39.0657 55.142 39.0657C55.3839 39.0657 55.5808 39.2628 55.5808 39.5048C55.5808 39.7467 55.3839 39.9436 55.142 39.9436ZM55.142 39.3039C55.0314 39.3039 54.9414 39.3939 54.9414 39.5048C54.9414 39.6153 55.0314 39.7054 55.142 39.7054C55.2525 39.7054 55.3426 39.6153 55.3426 39.5048C55.3426 39.3939 55.2525 39.3039 55.142 39.3039Z" fill="#25292B"/>
<path d="M102.321 35.9551C102.278 35.9551 102.239 35.9325 102.218 35.8956L101.358 34.4067C101.336 34.3698 101.336 34.3243 101.358 34.2874L102.218 32.7985C102.239 32.7617 102.278 32.739 102.321 32.739C102.364 32.739 102.403 32.7617 102.424 32.7985L103.286 34.2874C103.308 34.3243 103.308 34.3698 103.286 34.407L102.424 35.8959C102.403 35.9322 102.364 35.9551 102.321 35.9551ZM101.599 34.3469L102.321 35.5979L103.045 34.3469L102.321 33.096L101.599 34.3469Z" fill="#25292B"/>
<path d="M100.287 33.7194C99.913 33.7194 99.6084 33.4148 99.6084 33.0405C99.6084 32.6662 99.913 32.3616 100.287 32.3616C100.662 32.3616 100.966 32.6662 100.966 33.0405C100.966 33.4148 100.662 33.7194 100.287 33.7194ZM100.287 32.6001C100.044 32.6001 99.8466 32.7978 99.8466 33.0408C99.8466 33.2837 100.044 33.4812 100.287 33.4812C100.53 33.4812 100.728 33.2835 100.728 33.0408C100.728 32.7978 100.53 32.6001 100.287 32.6001Z" fill="#25292B"/>
<path d="M102.289 32.0404C101.962 32.0404 101.696 31.7743 101.696 31.4473C101.696 31.1204 101.962 30.8545 102.289 30.8545C102.616 30.8545 102.882 31.1206 102.882 31.4473C102.882 31.7745 102.617 32.0404 102.289 32.0404ZM102.289 31.0927C102.094 31.0927 101.935 31.2517 101.935 31.4473C101.935 31.6429 102.094 31.8019 102.289 31.8019C102.485 31.8019 102.644 31.6429 102.644 31.4473C102.644 31.252 102.485 31.0927 102.289 31.0927Z" fill="#25292B"/>
<path d="M100.285 31.4126C100.043 31.4126 99.8457 31.2157 99.8457 30.9738C99.8457 30.7318 100.043 30.5347 100.285 30.5347C100.526 30.5347 100.723 30.7316 100.723 30.9738C100.723 31.216 100.527 31.4126 100.285 31.4126ZM100.285 30.7729C100.174 30.7729 100.084 30.8629 100.084 30.9738C100.084 31.0846 100.174 31.1744 100.285 31.1744C100.395 31.1744 100.485 31.0843 100.485 30.9738C100.485 30.8632 100.395 30.7729 100.285 30.7729Z" fill="#25292B"/>
<path d="M120.279 90.4501C120.237 90.4501 120.198 90.4273 120.176 90.3907L119.052 88.4447C119.031 88.4079 119.031 88.3623 119.052 88.3255L120.176 86.3798C120.198 86.3429 120.237 86.3203 120.279 86.3203C120.322 86.3203 120.361 86.343 120.383 86.3795L121.509 88.3252C121.531 88.3623 121.531 88.4079 121.509 88.4447L120.383 90.3907C120.361 90.4278 120.322 90.4501 120.279 90.4501ZM119.293 88.3852L120.28 90.0932L121.268 88.3852L120.28 86.6775L119.293 88.3852Z" fill="#25292B"/>
<path d="M123.033 91.5509C122.659 91.5509 122.354 91.2466 122.354 90.8723C122.354 90.4979 122.659 90.1934 123.033 90.1934C123.408 90.1934 123.712 90.4979 123.712 90.8723C123.712 91.2466 123.408 91.5509 123.033 91.5509ZM123.033 90.4316C122.79 90.4316 122.593 90.6293 122.593 90.8723C122.593 91.115 122.79 91.3127 123.033 91.3127C123.276 91.3127 123.474 91.115 123.474 90.8723C123.474 90.6293 123.276 90.4316 123.033 90.4316Z" fill="#25292B"/>
<path d="M119.208 85.622C118.881 85.622 118.615 85.3558 118.615 85.0291C118.615 84.7022 118.881 84.436 119.208 84.436C119.535 84.436 119.801 84.7022 119.801 85.0291C119.801 85.3561 119.535 85.622 119.208 85.622ZM119.208 84.6745C119.012 84.6745 118.853 84.8338 118.853 85.0291C118.853 85.2245 119.012 85.3835 119.208 85.3835C119.404 85.3835 119.563 85.2245 119.563 85.0291C119.563 84.8338 119.404 84.6745 119.208 84.6745Z" fill="#25292B"/>
<path d="M122.597 87.8572C122.355 87.8572 122.158 87.6603 122.158 87.4183C122.158 87.1764 122.355 86.9795 122.597 86.9795C122.839 86.9795 123.036 87.1764 123.036 87.4183C123.036 87.6603 122.839 87.8572 122.597 87.8572ZM122.597 87.2177C122.486 87.2177 122.396 87.3078 122.396 87.4183C122.396 87.5289 122.486 87.6189 122.597 87.6189C122.708 87.6189 122.798 87.5289 122.798 87.4183C122.798 87.3078 122.708 87.2177 122.597 87.2177Z" fill="#25292B"/>
<path d="M122.728 85.6217C122.685 85.6217 122.646 85.5988 122.624 85.5622L121.918 84.3402C121.897 84.3033 121.897 84.2578 121.918 84.2209L122.624 82.999C122.646 82.9621 122.685 82.9395 122.728 82.9395C122.77 82.9395 122.809 82.9621 122.831 82.9987L123.538 84.2207C123.56 84.2578 123.56 84.3033 123.538 84.3402L122.831 85.5622C122.809 85.5993 122.77 85.6217 122.728 85.6217ZM122.159 84.2807L122.728 85.2645L123.297 84.2807L122.728 83.2967L122.159 84.2807Z" fill="#25292B"/>
<path d="M116.617 90.1975C116.375 90.1975 116.178 90.0006 116.178 89.7587C116.178 89.5167 116.375 89.3198 116.617 89.3198C116.858 89.3198 117.056 89.5167 117.056 89.7587C117.056 90.0006 116.858 90.1975 116.617 90.1975ZM116.617 89.5581C116.506 89.5581 116.416 89.6481 116.416 89.7587C116.416 89.8692 116.506 89.9593 116.617 89.9593C116.727 89.9593 116.817 89.8692 116.817 89.7587C116.817 89.6481 116.727 89.5581 116.617 89.5581Z" fill="#25292B"/>
<path d="M54.6272 67.1519C54.6272 67.1519 56.4634 110.536 56.2989 117.671H46.8585L42.0234 67.5151L54.6272 67.1519Z" fill="#25292B"/>
<path d="M32.8193 67.6624L31.5507 90.8864L24.7939 117.671H34.9172L45.1025 90.7766L49.4303 67.3965L32.8193 67.6624Z" fill="#25292B"/>
<path d="M44.5799 92.2837L44.3105 92.2287C45.854 84.6348 47.1499 76.8808 48.1616 69.1827L48.1761 69.0731L51.3951 68.7954L51.4188 69.0695L48.4199 69.328C47.4092 76.9964 46.1175 84.7193 44.5799 92.2837Z" fill="#F2E9DA"/>
<path d="M25.5703 117.698H33.6139L35.738 119.574C35.738 119.574 42.0325 119.396 42.0325 124H25.5703V117.698Z" fill="#0E53BE"/>
<path d="M26.1264 123.469H26.1553L41.6396 123.41C41.7001 123.41 41.7491 123.361 41.7488 123.3C41.7486 123.24 41.6996 123.191 41.6393 123.191L26.1259 123.25C26.0653 123.25 26.0163 123.299 26.0166 123.36C26.0171 123.42 26.0661 123.469 26.1264 123.469Z" fill="#25292B"/>
<path d="M30.4686 120.293C29.9055 120.233 29.5622 120.011 29.5014 119.667C29.4227 119.223 29.8623 118.904 30.2627 118.766C31.515 118.334 32.966 118.602 33.9966 119.425C34.286 118.483 34.7985 117.617 35.4866 116.91C35.7017 116.689 35.9671 116.455 36.3066 116.389C36.652 116.323 37.0798 116.499 37.1675 116.867C37.2509 117.217 37.0006 117.528 36.7729 117.76C36.0139 118.534 35.1768 119.242 34.2854 119.863C34.2538 119.886 34.2141 119.888 34.1799 119.874C34.1688 119.885 34.1554 119.893 34.1401 119.898C33.2561 120.191 32.3169 120.341 31.3815 120.341C31.0759 120.341 30.7711 120.325 30.4686 120.293ZM33.9443 119.666C32.9671 118.834 31.5511 118.554 30.3338 118.973C30.0771 119.061 29.6586 119.299 29.717 119.629C29.7762 119.964 30.2783 120.052 30.4915 120.075C31.6579 120.199 32.862 120.076 33.9798 119.72C33.9629 119.706 33.9506 119.687 33.9443 119.666ZM36.3477 116.605C36.0676 116.658 35.8344 116.866 35.6433 117.063C34.9575 117.768 34.4523 118.637 34.1785 119.581C34.1972 119.597 34.2157 119.615 34.2341 119.632C35.0868 119.031 35.8878 118.35 36.6165 117.607C36.8044 117.415 37.0127 117.164 36.9542 116.918C36.9047 116.711 36.6718 116.595 36.4549 116.595C36.4183 116.595 36.3822 116.598 36.3477 116.605Z" fill="#25292B"/>
<path d="M47.5908 117.632H55.6344L57.7585 119.508C57.7585 119.508 64.0531 119.331 64.0531 123.934H47.5908V117.632Z" fill="#0E53BE"/>
<path d="M48.1479 123.403H48.1481H48.1768L63.6611 123.345C63.7216 123.344 63.7706 123.295 63.7703 123.235C63.7701 123.174 63.7211 123.126 63.6608 123.126L48.1473 123.184C48.0868 123.184 48.0378 123.233 48.0381 123.294C48.0386 123.354 48.0876 123.403 48.1479 123.403Z" fill="#25292B"/>
<path d="M52.4871 120.227C51.9241 120.167 51.5808 119.945 51.52 119.601C51.4413 119.157 51.8809 118.838 52.2813 118.7C53.5336 118.268 54.9846 118.536 56.0152 119.359C56.3045 118.417 56.817 117.551 57.5052 116.845C57.7203 116.623 57.9856 116.389 58.3252 116.324C58.6706 116.257 59.0984 116.433 59.186 116.801C59.2695 117.151 59.0191 117.462 58.7914 117.694C58.0325 118.468 57.1953 119.176 56.304 119.797C56.2724 119.82 56.2326 119.822 56.1984 119.808C56.1874 119.819 56.1739 119.827 56.1587 119.832C55.2747 120.125 54.3354 120.275 53.4001 120.275C53.0947 120.275 52.7896 120.259 52.4871 120.227ZM55.9631 119.6C54.9859 118.768 53.5699 118.488 52.3526 118.907C52.096 118.996 51.6774 119.233 51.7358 119.563C51.7951 119.898 52.2971 119.986 52.5103 120.009C53.6768 120.133 54.8809 120.01 55.9986 119.654C55.9815 119.64 55.9691 119.621 55.9631 119.6ZM58.3665 116.539C58.0864 116.592 57.8532 116.801 57.6621 116.997C56.9763 117.702 56.4711 118.571 56.1974 119.515C56.2161 119.532 56.2345 119.549 56.2529 119.566C57.1056 118.965 57.9066 118.284 58.6353 117.541C58.8233 117.349 59.0315 117.098 58.9731 116.852C58.9236 116.645 58.6906 116.529 58.4737 116.529C58.4371 116.529 58.4008 116.532 58.3665 116.539Z" fill="#25292B"/>
<path d="M53.3326 56.9561L54.6251 67.1517L53.3563 72.3483L49.4286 67.3966L43.7951 72.3483L32.8176 67.6624L32.9492 63.3952C29.7297 64.0533 26.7471 61.5182 26.8761 58.2355L28.2245 42.5069C28.3113 40.3115 29.9232 37.0322 32.0371 36.4399L39.2751 34.2983L45.5799 35.4514L49.8656 36.7676C51.7557 37.3494 53.1351 38.9763 53.3957 40.9348L54.6488 50.3065L60.5535 51.8333L60.772 56.9561H53.3326Z" fill="#0E53BE"/>
<path d="M34.915 55.2572C34.9105 55.2572 34.906 55.2569 34.9013 55.2567C34.8292 55.2493 34.7765 55.1845 34.7839 55.1121L35.8572 44.6717C35.8648 44.5996 35.9285 44.5493 36.0017 44.5543C36.0738 44.5617 36.1265 44.6264 36.1191 44.6988L35.0458 55.1393C35.039 55.2069 34.9819 55.2572 34.915 55.2572Z" fill="#25292B"/>
<path d="M33.3546 63.4044C33.2988 63.4044 33.2469 63.3686 33.229 63.3125C33.2072 63.243 33.2454 63.1693 33.3146 63.1472L46.2575 59.0389L44.7527 53.6655L31.5724 55.9865C31.5003 56 31.4324 55.9515 31.42 55.8799C31.4074 55.8083 31.455 55.7402 31.5266 55.7275L44.8246 53.3857C44.892 53.3735 44.956 53.4146 44.9741 53.4796L46.5455 59.0902C46.5647 59.1587 46.5262 59.2298 46.4586 59.2511L33.3946 63.398C33.3812 63.4025 33.3678 63.4044 33.3546 63.4044Z" fill="#25292B"/>
<path d="M51.5038 51.403C51.438 51.403 51.3811 51.3538 51.3732 51.2869L50.3974 43.0417C50.389 42.9696 50.4406 42.9043 50.5127 42.8956C50.5846 42.8864 50.6501 42.9388 50.6588 43.0109L51.6347 51.2561C51.6431 51.3282 51.5915 51.3935 51.5193 51.4022C51.5141 51.4027 51.5091 51.403 51.5038 51.403Z" fill="#25292B"/>
<path d="M45.161 40.5233C45.1331 40.5233 45.1049 40.5144 45.0812 40.4962L42.737 38.7025C42.5093 38.7069 41.4171 38.7999 41.1928 40.1451C41.1846 40.1938 41.1502 40.2335 41.1036 40.2488C41.057 40.2646 41.0054 40.2519 40.9706 40.2172C40.9461 40.193 38.5274 37.7606 38.7364 34.6505C38.7414 34.5781 38.8038 34.5263 38.8767 34.5281C38.9491 34.5331 39.0042 34.5958 38.9992 34.6684C38.8304 37.1798 40.4526 39.2413 40.988 39.8484C41.3758 38.4018 42.7734 38.4408 42.787 38.4395C42.8142 38.4405 42.8405 38.45 42.8618 38.4666L45.241 40.2875C45.2987 40.3317 45.3097 40.4141 45.2655 40.472C45.24 40.5057 45.2008 40.5233 45.161 40.5233Z" fill="#25292B"/>
<path d="M45.7958 40.5231C45.7895 40.5231 45.7831 40.5228 45.7766 40.5218C45.7047 40.5112 45.6549 40.4444 45.6655 40.3725L45.9448 38.4698C45.9498 38.4353 45.9685 38.4039 45.9966 38.3831C46.0248 38.3623 46.0606 38.3542 46.0946 38.3587C46.1243 38.3631 46.6555 38.4463 47.0017 38.7167C46.9707 38.0022 46.7887 36.463 45.8205 35.8175C45.76 35.7773 45.7437 35.6954 45.7839 35.6351C45.8239 35.5746 45.9056 35.5582 45.9664 35.5985C47.3658 36.5315 47.2734 38.9999 47.2689 39.1044C47.266 39.1674 47.2194 39.2195 47.157 39.2287C47.0954 39.2374 47.0346 39.2021 47.0136 39.1431C46.9138 38.8646 46.46 38.7069 46.1854 38.644L45.9261 40.4104C45.9161 40.476 45.86 40.5231 45.7958 40.5231Z" fill="#25292B"/>
<path d="M59.06 52.3391L55.3034 52.7998L56.3459 53.6133C56.7276 53.9107 56.796 54.4636 56.4986 54.8453C56.3248 55.0664 56.0668 55.1822 55.8062 55.1822C55.7799 55.1822 55.7509 55.1822 55.7246 55.1796C55.8194 55.4507 55.7825 55.7693 55.5904 56.0141C55.4166 56.2352 55.156 56.351 54.8954 56.351C54.8032 56.351 54.7085 56.3352 54.619 56.3063C54.7269 56.5853 54.6874 56.9091 54.4926 57.1592C54.3189 57.3803 54.0609 57.4962 53.7976 57.4962C53.6107 57.4962 53.4212 57.4383 53.2606 57.3145L52.4709 56.6985L52.3656 56.8565C50.536 59.1362 48.2484 58.2122 48.2484 58.2122L46.4556 58.7308L45.1025 54.0213L48.7327 53.2342L51.7943 51.2151C52.1655 50.9702 52.6025 50.8386 53.0474 50.8386H59.06V52.3391Z" fill="#F2E9DA"/>
<path d="M54.6184 56.4379C54.5892 56.4379 54.5597 56.4282 54.5352 56.4082L52.9947 55.1483C52.9384 55.1022 52.9299 55.0193 52.976 54.963C53.0221 54.9066 53.105 54.8982 53.1613 54.9443L54.7019 56.2042C54.7582 56.2503 54.7666 56.3332 54.7206 56.3895C54.6945 56.4216 54.6566 56.4379 54.6184 56.4379Z" fill="#25292B"/>
<path d="M55.7236 55.3112C55.6941 55.3112 55.6641 55.3012 55.6396 55.2806L54.0728 53.9765C54.017 53.9299 54.0093 53.847 54.0559 53.7912C54.1022 53.7356 54.1852 53.7277 54.2412 53.7743L55.8081 55.0785C55.8639 55.1251 55.8715 55.208 55.8249 55.2638C55.7989 55.2949 55.7615 55.3112 55.7236 55.3112Z" fill="#25292B"/>
<path d="M70.9839 45.0204L63.1996 58.7909C62.9969 59.1489 62.6178 59.3701 62.2045 59.3701H54.8731C53.9991 59.3701 53.4515 58.4276 53.8806 57.6669L61.6649 43.899C61.8676 43.541 62.2467 43.3198 62.6573 43.3198H69.9914C70.8654 43.3198 71.413 44.2596 70.9839 45.0204Z" fill="#25292B"/>
<path d="M67.6582 52.581C67.5345 52.8232 67.3081 52.9785 67.058 53.0206C67.1686 53.1312 67.2475 53.2655 67.2949 53.4103C67.3713 53.6498 67.3581 53.9183 67.2344 54.1579C67.0475 54.5264 66.6526 54.7239 66.263 54.6844C66.363 54.7897 66.4341 54.916 66.4788 55.0503C66.5552 55.2925 66.542 55.561 66.4183 55.8005C66.2524 56.1243 65.9286 56.3165 65.5864 56.3297C65.6312 56.3955 65.668 56.4639 65.697 56.535C65.7997 56.7877 65.8023 57.0615 65.6786 57.3037C65.4311 57.7828 64.7756 57.9434 64.2202 57.6591L62.9847 57.0686C62.7057 56.9265 62.5056 56.6974 62.403 56.4447C62.3003 56.192 62.3003 55.9156 62.4214 55.676C62.5714 55.3812 62.8794 55.2075 63.2217 55.1864C63.1611 55.1022 63.1137 55.0074 63.0821 54.91C63.0032 54.6704 63.019 54.4019 63.1401 54.1624C63.3296 53.7938 63.7245 53.5937 64.1141 53.6332C64.014 53.5279 63.9403 53.4016 63.8982 53.2673C63.8192 53.0278 63.8324 52.7592 63.9561 52.5197C64.1483 52.1406 64.5563 51.9432 64.9565 51.9932C64.9354 51.9537 64.9196 51.9142 64.9065 51.8721C64.8406 51.6694 64.8512 51.4404 64.9565 51.2377C65.1644 50.8296 65.6699 50.6664 66.0779 50.877L67.2949 51.4596C67.5002 51.5649 67.6424 51.7439 67.7082 51.9466C67.774 52.1493 67.7609 52.3783 67.6582 52.581Z" fill="#F2E9DA"/>
<path d="M65.5861 56.4611C65.5669 56.4611 65.5474 56.4569 65.529 56.448L63.1642 55.3047C63.0987 55.2731 63.0713 55.1944 63.1031 55.1288C63.135 55.0638 63.2134 55.0362 63.279 55.0678L65.6437 56.2111C65.7093 56.2426 65.7367 56.3214 65.7048 56.3869C65.6819 56.4338 65.6351 56.4611 65.5861 56.4611Z" fill="#25292B"/>
<path d="M66.2628 54.8161C66.2433 54.8161 66.2238 54.8119 66.2051 54.8027L64.0562 53.7515C63.9909 53.7194 63.9638 53.6407 63.9959 53.5754C64.0281 53.5101 64.1068 53.4833 64.172 53.5151L66.3209 54.5663C66.3862 54.5984 66.4133 54.6771 66.3812 54.7424C66.3583 54.789 66.3115 54.8161 66.2628 54.8161Z" fill="#25292B"/>
<path d="M67.0572 53.1525C67.0377 53.1525 67.0182 53.1483 66.9995 53.1391L64.898 52.1116C64.8327 52.0798 64.8056 52.0008 64.8377 51.9355C64.8698 51.8702 64.9486 51.8434 65.0138 51.8752L67.1154 52.9027C67.1806 52.9345 67.2078 53.0135 67.1756 53.0788C67.1527 53.1254 67.1059 53.1525 67.0572 53.1525Z" fill="#25292B"/>
<path d="M38.2842 28.2845C38.5704 29.4467 39.2872 30.178 40.3663 30.0435L39.1553 34.4863L45.2074 39.7323L45.7952 34.1952C45.7952 34.1952 46.5537 34.0288 47.4492 33.258C48.3448 32.4899 49.8469 30.5913 49.9643 28.8004L50.1991 25.2676C48.7263 25.2579 46.8253 24.8517 45.3696 24.475C44.0876 24.1422 43.1507 23.834 43.1507 23.834C43.1285 23.998 43.0772 24.1667 43.0038 24.3355C42.6073 25.2529 41.5872 26.1679 41.5872 26.1679L41.5849 26.1851C41.5825 26.1827 41.5825 26.1801 41.5799 26.1801C41.5725 26.1727 41.5651 26.1653 41.5604 26.1579C41.2155 25.7812 40.7604 25.5267 40.2734 25.4509C40.0164 25.4116 39.7498 25.4214 39.4855 25.4851C38.3332 25.7718 37.976 27.0393 38.2842 28.2845Z" fill="#F2E9DA"/>
<path d="M49.6747 28.218C49.6983 27.862 49.4566 27.5561 49.1348 27.5348C48.813 27.5135 48.5331 27.7848 48.5095 28.1408C48.4859 28.4968 48.7276 28.8027 49.0494 28.824C49.3712 28.8453 49.6511 28.574 49.6747 28.218Z" fill="#25292B"/>
<path d="M45.9216 27.5705C46.0344 27.232 45.8779 26.8749 45.572 26.7729C45.266 26.6709 44.9266 26.8626 44.8137 27.2011C44.7009 27.5396 44.8574 27.8967 45.1633 27.9986C45.4692 28.1006 45.8087 27.9089 45.9216 27.5705Z" fill="#25292B"/>
<path d="M48.7067 26.6393C49.1587 26.5279 49.6518 26.6393 49.9922 26.9649C50.0598 27.0297 50.0833 27.1424 50.0151 27.2174C49.9535 27.2853 49.835 27.3095 49.7626 27.2403C49.7292 27.2082 49.6944 27.1779 49.6573 27.1503C49.6392 27.1366 49.6207 27.1237 49.602 27.111C49.5999 27.1097 49.5978 27.1084 49.5955 27.1071C49.5855 27.1013 49.5755 27.0952 49.5655 27.0897C49.5252 27.0671 49.4836 27.0468 49.4409 27.0289C49.4196 27.02 49.398 27.0118 49.3762 27.0039C49.3722 27.0026 49.3685 27.0013 49.3656 27.0002C49.3535 26.9965 49.3414 26.9931 49.3293 26.9899C49.2846 26.9781 49.2393 26.9686 49.1935 26.9618C49.1706 26.9584 49.1477 26.9557 49.1245 26.9536C49.1129 26.9526 49.1016 26.9518 49.09 26.951C49.0895 26.951 49.0898 26.951 49.0892 26.951C49.0879 26.951 49.0887 26.951 49.0861 26.951C49.0397 26.9507 48.9937 26.952 48.9476 26.9568C48.9247 26.9591 48.9018 26.962 48.8789 26.966C48.8676 26.9678 48.8563 26.9699 48.8447 26.972C48.8415 26.9726 48.8402 26.9728 48.8389 26.9731C48.8365 26.9736 48.8355 26.9739 48.8323 26.9747C48.7417 26.9971 48.6338 26.9694 48.6014 26.8702C48.5748 26.787 48.6093 26.6633 48.7067 26.6393Z" fill="#25292B"/>
<path d="M46.3821 26.3823C46.3144 26.462 46.2041 26.4468 46.1288 26.3918C46.1265 26.3899 46.1252 26.3891 46.1233 26.3878C46.1223 26.3873 46.121 26.3865 46.1183 26.3847C46.1086 26.3783 46.0988 26.372 46.0891 26.366C46.0694 26.3539 46.0493 26.3423 46.0291 26.3315C45.9883 26.3096 45.9462 26.2909 45.9032 26.2738C45.9009 26.2728 45.9017 26.273 45.9003 26.2725C45.8998 26.2722 45.9004 26.2725 45.8996 26.2722C45.8885 26.2686 45.8777 26.2649 45.8667 26.2617C45.8445 26.2549 45.8222 26.2488 45.7998 26.2433C45.7548 26.2322 45.7092 26.2238 45.6634 26.218C45.6508 26.2164 45.6384 26.2151 45.6258 26.2138C45.6229 26.2135 45.6189 26.2133 45.6147 26.2133C45.5916 26.2125 45.5684 26.2117 45.5455 26.212C45.4992 26.2122 45.4531 26.2154 45.4073 26.2212C45.3957 26.2225 45.3844 26.2243 45.3731 26.2259C45.3707 26.2262 45.3681 26.2267 45.3657 26.2272C45.3436 26.2317 45.3215 26.2367 45.2996 26.2425C45.2549 26.2543 45.2112 26.2691 45.168 26.2862C45.0748 26.3228 44.9745 26.2554 44.9432 26.1693C44.9084 26.074 44.9729 25.9787 45.0601 25.9445C45.4984 25.7718 45.997 25.8553 46.3731 26.1293C46.4537 26.188 46.4387 26.3154 46.3821 26.3823Z" fill="#25292B"/>
<path d="M45.0406 31.5109C44.7145 31.365 44.4976 31.1497 44.3965 30.8712C44.2262 30.4026 44.4515 29.9308 44.4612 29.9111C44.4878 29.8566 44.5528 29.8332 44.6079 29.8569L46.6367 30.7366C46.6651 30.749 46.687 30.7722 46.6978 30.8011C46.7083 30.8301 46.7067 30.8622 46.6933 30.8898C46.6888 30.8988 46.3192 31.6367 45.585 31.6367C45.4218 31.6367 45.2402 31.6004 45.0406 31.5109ZM44.6252 30.1109C44.5771 30.2544 44.5131 30.5292 44.6092 30.794C44.6887 31.0128 44.8648 31.1844 45.133 31.3045C45.8525 31.6264 46.2805 31.1226 46.4301 30.8935L44.6252 30.1109Z" fill="#25292B"/>
<path d="M40.1102 29.504C40.0855 29.504 40.0608 29.4974 40.0381 29.4837C39.6217 29.2302 39.3966 28.7008 39.5032 28.2251C39.6027 27.7794 39.9857 27.4151 40.4325 27.3282C40.5033 27.0794 40.4838 26.8201 40.3769 26.6211C40.2503 26.3853 39.9939 26.2378 39.7551 26.2639C39.5135 26.2897 39.3055 26.5169 39.3189 26.7409C39.3237 26.8178 39.2652 26.8836 39.1883 26.8881C39.1115 26.8952 39.0457 26.8344 39.0412 26.7575C39.0186 26.3818 39.3318 26.0291 39.7256 25.9872C40.0776 25.9488 40.4435 26.1568 40.622 26.4895C40.7792 26.782 40.7963 27.1505 40.6689 27.5004C40.6507 27.5501 40.6057 27.5854 40.553 27.5912C40.1832 27.6309 39.8559 27.9232 39.7746 28.2859C39.6933 28.6489 39.8652 29.0528 40.1829 29.246C40.2484 29.286 40.2692 29.3715 40.2295 29.4374C40.2029 29.48 40.1571 29.5037 40.1102 29.504Z" fill="#25292B"/>
<path d="M45.1437 34.3489C45.0332 34.3489 44.9295 34.3379 44.8371 34.3121C44.1847 34.1307 43.2976 33.0832 43.2602 33.0388C43.2107 32.9801 43.2183 32.8921 43.2771 32.8426C43.3363 32.7931 43.4239 32.801 43.4732 32.8595C43.4819 32.8698 44.3422 33.8856 44.9118 34.0441C45.378 34.1742 46.3481 33.8088 46.6824 33.6569C46.7527 33.6255 46.8349 33.6563 46.8664 33.7261C46.8983 33.7961 46.8672 33.8785 46.7975 33.9101C46.7517 33.9309 45.8224 34.3489 45.1437 34.3489Z" fill="#25292B"/>
<path d="M45.1992 29.1103C44.9149 29.1103 44.6264 29.0566 44.3468 28.9434C43.7835 28.7149 43.3428 28.2808 43.1059 27.7212C42.869 27.1612 42.8645 26.5426 43.0927 25.9793C43.321 25.4159 43.7553 24.9752 44.315 24.7383C44.8744 24.5014 45.4933 24.4966 46.0569 24.7251C47.2199 25.1966 47.7825 26.5263 47.311 27.6893C46.953 28.5733 46.0993 29.1103 45.1992 29.1103ZM45.2019 24.8354C44.9378 24.8354 44.6741 24.8886 44.4237 24.9944C43.9322 25.2024 43.5513 25.5894 43.3507 26.0838C43.1501 26.5784 43.1543 27.1212 43.362 27.6127C43.57 28.1042 43.957 28.4851 44.4513 28.6857C45.4717 29.0995 46.6395 28.6057 47.0533 27.5851C47.4671 26.5642 46.9733 25.3972 45.9524 24.9834C45.7102 24.8847 45.4559 24.8354 45.2019 24.8354Z" fill="#0E53BE"/>
<path d="M50.192 30.535C49.9077 30.535 49.6191 30.4816 49.3398 30.3684C48.1768 29.8969 47.6142 28.567 48.0857 27.4039C48.3142 26.8406 48.7483 26.3999 49.308 26.163C49.8674 25.9258 50.4863 25.9213 51.0499 26.1498C52.2129 26.6213 52.7755 27.9509 52.304 29.114C51.946 29.998 51.0918 30.535 50.192 30.535ZM50.1946 26.2601C49.9306 26.2601 49.6668 26.3133 49.4164 26.4191C48.925 26.6271 48.544 27.014 48.3434 27.5084C47.9296 28.5293 48.4232 29.6963 49.4443 30.1104C50.4644 30.5242 51.6325 30.0306 52.0463 29.0095C52.4601 27.9886 51.9663 26.8216 50.9454 26.4078C50.7029 26.3093 50.4489 26.2601 50.1946 26.2601Z" fill="#0E53BE"/>
<path d="M40.8929 24.679L40.7529 24.9194L43.1048 26.2889L43.2448 26.0484L40.8929 24.679Z" fill="#0E53BE"/>
<path d="M47.2405 27.5089L47.1309 27.7646L48.0187 28.1451L48.1283 27.8893L47.2405 27.5089Z" fill="#0E53BE"/>
<path d="M39.4827 25.4857C39.747 25.422 40.0137 25.4122 40.2706 25.4515C40.7574 25.5273 41.2125 25.7818 41.5577 26.1586L41.5845 26.1683C41.5845 26.1683 42.6049 25.2532 43.0011 24.3358C43.0745 24.1671 43.1258 23.9981 43.148 23.8343C43.148 23.8343 44.0851 24.1426 45.3669 24.4753C46.8226 24.8521 48.7235 25.2582 50.1964 25.268C51.131 25.2754 51.8944 25.1237 52.2613 24.7052C53.9224 22.8066 52.7115 20.8494 50.879 21.0328C49.1224 21.2113 47.9359 21.1797 46.0176 19.9685C44.0996 18.755 42.081 18.9582 41.4916 20.5116C41.4916 20.5116 38.3231 20.6098 39.4827 25.4857Z" fill="#25292B"/>
<path d="M48.2108 30.6644C48.196 30.6644 48.1816 30.6621 48.1671 30.6576L46.4315 30.0847C46.3586 30.0605 46.3188 29.9818 46.343 29.9092C46.3673 29.8362 46.4462 29.7968 46.5186 29.8207L48.0557 30.328L47.8307 27.4304C47.8249 27.3538 47.882 27.2869 47.9586 27.2809C48.036 27.2754 48.1021 27.3322 48.1081 27.4088L48.3495 30.5149C48.3532 30.5612 48.3332 30.6065 48.2966 30.6352C48.2719 30.6544 48.2416 30.6644 48.2108 30.6644Z" fill="#25292B"/>
<path d="M97.0492 80.7384H65.2198C64.5051 80.7384 63.9238 80.1569 63.9238 79.4422V60.1798C63.9238 59.4651 64.5051 58.8835 65.2198 58.8835H97.0494C97.7641 58.8835 98.3457 59.4651 98.3457 60.1798V79.4422C98.3454 80.1569 97.7639 80.7384 97.0492 80.7384ZM65.2198 59.0781C64.6122 59.0781 64.1178 59.5725 64.1178 60.18V79.4424C64.1178 80.05 64.612 80.5444 65.2198 80.5444H97.0494C97.657 80.5444 98.1514 80.05 98.1514 79.4424V60.18C98.1514 59.5725 97.6573 59.0781 97.0494 59.0781H65.2198Z" fill="#25292B"/>
<path d="M98.2481 61.4684H64.0205V60.1805C64.0205 59.5182 64.5573 58.9814 65.2196 58.9814H97.049C97.7113 58.9814 98.2481 59.5182 98.2481 60.1805V61.4684Z" fill="#25292B"/>
<path d="M66.1917 67.2856L71.2061 67.2856L71.2061 62.2713L66.1917 62.2713L66.1917 67.2856Z" fill="#F2E9DA"/>
<path d="M66.1917 73.3398L71.2061 73.3398L71.2061 68.3255L66.1917 68.3255L66.1917 73.3398Z" fill="#F2E9DA"/>
<path d="M66.1917 79.2185L71.2061 79.2185L71.2061 74.2042L66.1917 74.2042L66.1917 79.2185Z" fill="#F2E9DA"/>
<path d="M68.2143 66.4273L66.4219 64.6345L67.3346 63.7216L68.2143 64.6014L70.065 62.7507L70.9779 63.6637L68.2143 66.4273Z" fill="#0E53BE"/>
<path d="M68.2143 72.6709L66.4219 70.8782L67.3346 69.9655L68.2143 70.845L70.065 68.9946L70.9777 69.9073L68.2143 72.6709Z" fill="#0E53BE"/>
<path d="M68.2143 78.3872L66.4219 76.5945L67.3346 75.6818L68.2143 76.5613L70.065 74.7107L70.9779 75.6236L68.2143 78.3872Z" fill="#0E53BE"/>
<path d="M72.0496 63.5793L96.1113 63.5793L96.1113 62.5882L72.0496 62.5882L72.0496 63.5793Z" fill="#F2E9DA"/>
<path d="M72.0487 65.4592L96.1104 65.4592L96.1104 64.4681L72.0487 64.4681L72.0487 65.4592Z" fill="#F2E9DA"/>
<path d="M72.0489 67.3037L82.875 67.3037L82.875 66.3126L72.0489 66.3126L72.0489 67.3037Z" fill="#F2E9DA"/>
<path d="M72.0487 69.4666L96.1104 69.4666L96.1104 68.4754L72.0487 68.4754L72.0487 69.4666Z" fill="#F2E9DA"/>
<path d="M72.0487 71.3467L96.1104 71.3467L96.1104 70.3555L72.0487 70.3555L72.0487 71.3467Z" fill="#F2E9DA"/>
<path d="M72.0489 73.1909L82.875 73.1909L82.875 72.1998L72.0489 72.1998L72.0489 73.1909Z" fill="#F2E9DA"/>
<path d="M72.0496 75.4568L96.1113 75.4568L96.1113 74.4657L72.0496 74.4657L72.0496 75.4568Z" fill="#F2E9DA"/>
<path d="M72.0487 77.3362L96.1104 77.3362L96.1104 76.3451L72.0487 76.3451L72.0487 77.3362Z" fill="#F2E9DA"/>
<path d="M72.0489 79.1807L82.875 79.1807L82.875 78.1895L72.0489 78.1895L72.0489 79.1807Z" fill="#F2E9DA"/>
<path d="M126.352 69.306L124.628 74.4662C122.267 81.5237 114.466 83.4283 109.119 78.2528L105.21 74.4681C98.6857 68.1517 100.65 56.4795 108.565 54.5473L114.198 53.1718C122.11 51.2401 129.232 60.6936 126.352 69.306Z" fill="#B6BAC7"/>
<path d="M112.592 59.2862C116.702 58.2827 119.715 56.1621 119.321 54.5496C118.927 52.9372 115.276 52.4435 111.166 53.447C107.056 54.4504 104.044 56.5711 104.437 58.1835C104.831 59.796 108.482 60.2896 112.592 59.2862Z" fill="#25292B"/>
<path d="M122.925 48.6528C122.925 54.3827 117.303 56.2741 110.367 56.2741C103.432 56.2741 97.8096 54.3827 97.8096 48.6528C97.8096 42.923 103.432 37.5464 110.367 37.5464C117.303 37.5466 122.925 42.9232 122.925 48.6528Z" fill="#B6BAC7"/>
<path d="M104.996 52.0389C104.996 52.0389 99.4164 51.9707 97.8169 48.9666C97.8119 48.8642 97.8096 48.7594 97.8096 48.652C97.8096 45.8015 99.2043 43.0361 101.46 40.978H115.503C115.503 40.978 120.451 52.0389 104.996 52.0389Z" fill="#0E53BE"/>
<path d="M101.455 47.147C102.483 47.147 103.315 46.2005 103.315 45.0331C103.315 43.8656 102.483 42.9192 101.455 42.9192C100.428 42.9192 99.5947 43.8656 99.5947 45.0331C99.5947 46.2005 100.428 47.147 101.455 47.147Z" fill="#F2E9DA"/>
<path d="M107.971 47.147C108.998 47.147 109.831 46.2005 109.831 45.0331C109.831 43.8656 108.998 42.9192 107.971 42.9192C106.943 42.9192 106.11 43.8656 106.11 45.0331C106.11 46.2005 106.943 47.147 107.971 47.147Z" fill="#F2E9DA"/>
<path d="M104.069 49.3114C102.338 49.3114 102.31 47.7506 102.31 47.7348C102.309 47.6874 102.347 47.6489 102.395 47.6487H102.395C102.442 47.6487 102.48 47.6866 102.481 47.7334C102.481 47.7908 102.51 49.14 104.069 49.14C105.627 49.14 105.657 47.7908 105.657 47.7334C105.657 47.6866 105.696 47.6487 105.743 47.6487H105.743C105.79 47.6489 105.828 47.6874 105.828 47.7348C105.828 47.7506 105.8 49.3114 104.069 49.3114Z" fill="#25292B"/>
<path d="M118.596 54.5031C118.583 54.5031 118.569 54.4996 118.556 54.4928C118.514 54.4704 118.499 54.4185 118.521 54.377C119.739 52.1141 120.255 49.4608 119.974 46.9062C119.692 44.3514 118.611 41.8745 116.929 39.9309C116.898 39.8951 116.902 39.8412 116.938 39.8101C116.973 39.779 117.027 39.7827 117.059 39.8188C118.763 41.7882 119.858 44.2985 120.144 46.8873C120.429 49.4761 119.906 52.1649 118.671 54.458C118.656 54.4867 118.627 54.5031 118.596 54.5031Z" fill="#25292B"/>
<path d="M110.805 38.8825C110.789 38.8825 110.773 38.8777 110.758 38.8683C110.719 38.8422 110.708 38.7893 110.734 38.7495C112.034 36.7781 112.387 34.2556 111.681 32.0028C111.666 31.9577 111.692 31.9096 111.737 31.8956C111.781 31.8819 111.83 31.9067 111.844 31.9517C112.566 34.2533 112.205 36.8299 110.877 38.8441C110.861 38.8688 110.833 38.8825 110.805 38.8825Z" fill="#25292B"/>
<path d="M111.757 33.8381C113.076 33.8381 114.146 32.7683 114.146 31.4486C114.146 30.1289 113.076 29.0591 111.757 29.0591C110.437 29.0591 109.367 30.1289 109.367 31.4486C109.367 32.7683 110.437 33.8381 111.757 33.8381Z" fill="#0E53BE"/>
<path d="M120.902 67.9804C122.912 67.9804 124.54 65.9167 124.54 63.371C124.54 60.8252 122.912 58.7615 120.902 58.7615C118.893 58.7615 117.265 60.8252 117.265 63.371C117.265 65.9167 118.893 67.9804 120.902 67.9804Z" fill="#0E53BE"/>
<path d="M108.502 70.421C105.377 70.421 102.255 69.6942 99.4595 68.289C98.3757 67.7443 97.9387 66.4239 98.4834 65.3401C99.028 64.2563 100.348 63.819 101.432 64.3642C104.384 65.8474 107.803 66.3631 111.06 65.8163C114.317 65.2693 117.38 63.6655 119.685 61.3C120.531 60.431 121.921 60.4129 122.791 61.2597C123.659 62.1061 123.678 63.4968 122.831 64.3658C119.88 67.3947 115.958 69.4483 111.787 70.1488C110.701 70.331 109.601 70.421 108.502 70.421Z" fill="#25292B"/>
<path d="M76.85 54.2922C77.3613 54.2098 77.8933 54.2038 78.4319 54.2843C79.7966 54.4883 81.0002 55.2115 81.8212 56.3208C82.642 57.4301 82.9816 58.7927 82.7776 60.1574L82.7431 60.3875C82.6489 61.0185 82.0611 61.4542 81.4298 61.3594C80.7988 61.2651 80.3636 60.677 80.4579 60.046L80.4924 59.816C80.605 59.0618 80.4173 58.3086 79.9637 57.6955C79.5102 57.0824 78.8449 56.6825 78.0905 56.5698C76.5331 56.3371 75.0771 57.4146 74.8444 58.9717L74.8099 59.2021C74.7154 59.8331 74.1273 60.2677 73.4963 60.1737C72.8653 60.0792 72.4301 59.4911 72.5246 58.8601L72.5591 58.63C72.8995 56.3513 74.688 54.6405 76.85 54.2922Z" fill="#0E53BE"/>
<path d="M100.39 64.1609C100.374 64.6403 100.284 65.1247 100.114 65.6001C99.6841 66.8039 98.8109 67.768 97.6557 68.3153C96.5006 68.8623 95.2015 68.9268 93.9976 68.4966L93.7947 68.4242C93.2382 68.2255 92.9475 67.6132 93.1468 67.0564C93.3456 66.4999 93.9581 66.2098 94.5146 66.4085L94.7176 66.4809C95.3828 66.7186 96.101 66.6828 96.7394 66.3806C97.3777 66.0782 97.8605 65.5454 98.0982 64.8801C98.5889 63.5065 97.8708 61.9902 96.4974 61.4995L96.2945 61.4268C95.738 61.2278 95.4484 60.6155 95.6469 60.0587C95.8459 59.5022 96.4582 59.2121 97.015 59.4111L97.2179 59.4835C99.2273 60.2017 100.461 62.1337 100.39 64.1609Z" fill="#0E53BE"/>
<path d="M81.1562 88.1057H66.0078V103.254H81.1562V88.1057Z" fill="#0E53BE"/>
<path d="M114.524 86.0859H64.0195V83.6154C64.0195 82.953 64.5563 82.4163 65.2186 82.4163H113.325C113.988 82.4163 114.525 82.953 114.525 83.6154L114.524 86.0859Z" fill="#0E53BE"/>
<path d="M113.325 114.521H65.2183C64.478 114.521 63.876 113.919 63.876 113.179V83.6158C63.876 82.8752 64.4783 82.2732 65.2183 82.2732H113.325C114.065 82.2732 114.668 82.8752 114.668 83.6158V113.179C114.667 113.919 114.065 114.521 113.325 114.521ZM65.2183 82.5596C64.6362 82.5596 64.1627 83.0335 64.1627 83.6158V113.179C64.1627 113.761 64.6362 114.235 65.2183 114.235H113.325C113.907 114.235 114.381 113.761 114.381 113.179V83.6158C114.381 83.0335 113.907 82.5596 113.325 82.5596H65.2183Z" fill="#25292B"/>
<path d="M112.682 84.237C112.682 84.4002 112.616 84.5503 112.508 84.6582C112.4 84.7662 112.25 84.832 112.087 84.832H109.197C108.87 84.832 108.602 84.5661 108.602 84.237C108.602 84.0738 108.67 83.9238 108.775 83.8158C108.886 83.7079 109.033 83.6421 109.197 83.6421H112.087C112.416 83.6421 112.682 83.908 112.682 84.237Z" fill="#F2E9DA"/>
<path d="M107.873 84.237C107.873 84.4002 107.808 84.5503 107.697 84.6582C107.592 84.7662 107.442 84.832 107.278 84.832H104.388C104.059 84.832 103.793 84.5661 103.793 84.237C103.793 84.0738 103.859 83.9238 103.967 83.8158C104.075 83.7079 104.222 83.6421 104.388 83.6421H107.278C107.605 83.6421 107.873 83.908 107.873 84.237Z" fill="#25292B"/>
<path d="M102.986 84.237C102.986 84.4002 102.92 84.5503 102.809 84.6582C102.704 84.7662 102.554 84.832 102.391 84.832H99.5002C99.1711 84.832 98.9053 84.5661 98.9053 84.237C98.9053 84.0738 98.9711 83.9238 99.079 83.8158C99.187 83.7079 99.3344 83.6421 99.5002 83.6421H102.391C102.717 83.6421 102.986 83.908 102.986 84.237Z" fill="#142149"/>
<path d="M71.7466 101.299L66.7549 96.3072L69.1402 93.9222L71.7466 96.5286L78.2146 90.0603L80.5999 92.4456L71.7466 101.299Z" fill="#F2E9DA"/>
<path d="M111.853 106.199H66.3492C66.1613 106.199 66.0078 106.045 66.0078 105.857V105.665C66.0078 105.477 66.1615 105.324 66.3492 105.324H111.853C112.041 105.324 112.194 105.477 112.194 105.665V105.857C112.194 106.045 112.041 106.199 111.853 106.199Z" fill="#F2E9DA"/>
<path d="M111.902 109.293H66.3981C66.2101 109.293 66.0566 109.14 66.0566 108.952V108.76C66.0566 108.572 66.2104 108.418 66.3981 108.418H111.902C112.09 108.418 112.243 108.572 112.243 108.76V108.952C112.243 109.14 112.089 109.293 111.902 109.293Z" fill="#F2E9DA"/>
<path d="M98.1196 112.2H66.3737C66.1857 112.2 66.0322 112.046 66.0322 111.858V111.666C66.0322 111.478 66.186 111.325 66.3737 111.325H98.1196C98.3075 111.325 98.461 111.478 98.461 111.666V111.858C98.461 112.046 98.3073 112.2 98.1196 112.2Z" fill="#F2E9DA"/>
<path d="M101.994 100.17C100.434 100.17 99.1649 98.9011 99.1649 97.3411V91.2948C99.1649 90.0331 98.1382 89.0064 96.8765 89.0064C95.6147 89.0064 94.5881 90.0331 94.5881 91.2948V96.2439C94.5881 97.6175 93.4706 98.735 92.097 98.735H92.0088C90.6351 98.735 89.5177 97.6175 89.5177 96.2439V90.7699C89.5177 89.6295 88.59 88.7021 87.4498 88.7021C86.3097 88.7021 85.3823 89.6298 85.3823 90.7699V101.021C85.3823 101.138 85.2878 101.232 85.1706 101.232C85.0535 101.232 84.959 101.138 84.959 101.021V90.7699C84.959 89.3963 86.0762 88.2788 87.4498 88.2788C88.8235 88.2788 89.941 89.3963 89.941 90.7699V96.2439C89.941 97.3843 90.8686 98.3117 92.0088 98.3117H92.097C93.2374 98.3117 94.1648 97.384 94.1648 96.2439V91.2948C94.1648 89.7996 95.381 88.5834 96.8762 88.5834C98.3712 88.5834 99.5877 89.7999 99.5877 91.2948V97.3411C99.5877 98.6679 100.667 99.7472 101.994 99.7472C103.321 99.7472 104.4 98.6679 104.4 97.3411V95.8862C104.4 94.3693 105.634 93.1352 107.151 93.1352C108.667 93.1352 109.902 94.3693 109.902 95.8862V101.834C109.902 101.951 109.807 102.046 109.69 102.046C109.573 102.046 109.478 101.951 109.478 101.834V95.8862C109.478 94.6028 108.434 93.5585 107.151 93.5585C105.867 93.5585 104.823 94.6026 104.823 95.8862V97.3411C104.823 98.9009 103.554 100.17 101.994 100.17Z" fill="#F2E9DA"/>
<path d="M87.2673 89.7511C87.9839 89.7511 88.5648 89.1702 88.5648 88.4536C88.5648 87.7369 87.9839 87.156 87.2673 87.156C86.5507 87.156 85.9697 87.7369 85.9697 88.4536C85.9697 89.1702 86.5507 89.7511 87.2673 89.7511Z" fill="#0E53BE"/>
<path d="M94.2595 94.9442C94.9761 94.9442 95.557 94.3633 95.557 93.6467C95.557 92.9301 94.9761 92.3491 94.2595 92.3491C93.5428 92.3491 92.9619 92.9301 92.9619 93.6467C92.9619 94.3633 93.5428 94.9442 94.2595 94.9442Z" fill="#0E53BE"/>
<path d="M99.5895 92.1698C100.306 92.1698 100.887 91.5889 100.887 90.8723C100.887 90.1556 100.306 89.5747 99.5895 89.5747C98.8729 89.5747 98.292 90.1556 98.292 90.8723C98.292 91.5889 98.8729 92.1698 99.5895 92.1698Z" fill="#0E53BE"/>
<path d="M101.867 101.091C102.584 101.091 103.164 100.51 103.164 99.7934C103.164 99.0768 102.584 98.4958 101.867 98.4958C101.15 98.4958 100.569 99.0768 100.569 99.7934C100.569 100.51 101.15 101.091 101.867 101.091Z" fill="#0E53BE"/>
<path d="M109.692 102.722C110.409 102.722 110.99 102.141 110.99 101.425C110.99 100.708 110.409 100.127 109.692 100.127C108.975 100.127 108.395 100.708 108.395 101.425C108.395 102.141 108.975 102.722 109.692 102.722Z" fill="#0E53BE"/>
<path d="M85.1618 102.404C85.8784 102.404 86.4594 101.823 86.4594 101.106C86.4594 100.39 85.8784 99.8086 85.1618 99.8086C84.4452 99.8086 83.8643 100.39 83.8643 101.106C83.8643 101.823 84.4452 102.404 85.1618 102.404Z" fill="#0E53BE"/>
<path d="M65.1902 43.051C65.1176 43.051 65.0586 42.992 65.0586 42.9194V41.3399C65.0586 41.2672 65.1176 41.2082 65.1902 41.2082C65.2629 41.2082 65.3218 41.2672 65.3218 41.3399V42.9194C65.3218 42.992 65.2629 43.051 65.1902 43.051ZM91.2897 41.4968C91.2192 41.4968 91.1607 41.441 91.1584 41.3696C91.1557 41.297 91.2126 41.2361 91.2852 41.2335C91.7994 41.2156 92.2916 41.0893 92.7481 40.8581C92.8131 40.8244 92.8921 40.8513 92.925 40.916C92.9579 40.9811 92.9319 41.06 92.8671 41.0929C92.3761 41.3417 91.847 41.4775 91.2945 41.4968C91.2926 41.4968 91.291 41.4968 91.2897 41.4968ZM89.7315 41.307C89.7176 41.307 89.7034 41.3049 89.6894 41.3001C89.1758 41.1261 88.6954 40.8357 88.3003 40.4601C88.2476 40.4101 88.2455 40.3269 88.2955 40.274C88.3453 40.2213 88.4287 40.219 88.4816 40.2692C88.8494 40.6186 89.2964 40.8889 89.7739 41.0506C89.8429 41.074 89.8798 41.1487 89.8563 41.2175C89.8376 41.2725 89.7866 41.307 89.7315 41.307ZM94.0204 40.1155C93.9917 40.1155 93.963 40.1063 93.9388 40.0871C93.8819 40.0418 93.8722 39.9591 93.9172 39.902C94.2368 39.499 94.4592 39.042 94.5787 38.5444C94.5956 38.4736 94.6664 38.4294 94.7375 38.447C94.8083 38.4639 94.8517 38.535 94.8349 38.6058C94.7064 39.141 94.4674 39.6319 94.1238 40.0652C94.0978 40.0984 94.0593 40.1155 94.0204 40.1155ZM65.1902 39.892C65.1176 39.892 65.0586 39.833 65.0586 39.7604V38.1809C65.0586 38.1082 65.1176 38.0493 65.1902 38.0493C65.2629 38.0493 65.3218 38.1082 65.3218 38.1809V39.7604C65.3218 39.833 65.2629 39.892 65.1902 39.892ZM87.5124 39.1989C87.46 39.1989 87.4105 39.1675 87.39 39.1159C87.2136 38.6721 87.1241 38.2027 87.1241 37.721V37.5204C87.1241 37.4477 87.183 37.3888 87.2557 37.3888C87.3284 37.3888 87.3873 37.4477 87.3873 37.5204V37.721C87.3873 38.1693 87.4705 38.606 87.6348 39.0188C87.6616 39.0862 87.6287 39.1628 87.5611 39.1897C87.545 39.196 87.5284 39.1989 87.5124 39.1989ZM76.2524 38.9282H76.1298C75.7438 38.9282 75.3629 38.8703 74.9983 38.7558C74.9288 38.734 74.8904 38.6603 74.912 38.591C74.9336 38.5215 75.007 38.4823 75.0768 38.5047C75.4161 38.611 75.7704 38.665 76.1298 38.665H76.2524C76.3651 38.665 76.4767 38.6597 76.5868 38.6492C76.6586 38.6429 76.7234 38.6958 76.73 38.7682C76.7366 38.8406 76.6834 38.9048 76.611 38.9114C76.493 38.9227 76.3733 38.9282 76.2524 38.9282ZM78.0904 38.432C78.0452 38.432 78.0012 38.4089 77.9767 38.3667C77.9401 38.3041 77.9612 38.2235 78.0238 38.1867C78.4603 37.9316 78.8444 37.5775 79.1345 37.1626C79.1761 37.1029 79.2582 37.0884 79.3177 37.1303C79.3772 37.1719 79.3917 37.254 79.3501 37.3135C79.0384 37.7592 78.6259 38.1396 78.1568 38.4139C78.136 38.4262 78.1131 38.432 78.0904 38.432ZM73.6787 37.9819C73.6471 37.9819 73.6155 37.9706 73.5902 37.9476C73.1869 37.5815 72.8615 37.1239 72.6499 36.6243C72.6215 36.5574 72.6528 36.48 72.7196 36.4516C72.7865 36.4234 72.8636 36.4545 72.8923 36.5214C73.0895 36.9863 73.3917 37.4119 73.7671 37.7526C73.8211 37.8015 73.825 37.8847 73.7761 37.9384C73.7503 37.9671 73.7145 37.9819 73.6787 37.9819ZM94.8075 37.1358C94.7348 37.1358 94.6759 37.0768 94.6759 37.0042V35.4247C94.6759 35.352 94.7348 35.2931 94.8075 35.2931C94.8802 35.2931 94.9391 35.352 94.9391 35.4247V37.0042C94.9391 37.0768 94.8802 37.1358 94.8075 37.1358ZM65.1902 36.733C65.1176 36.733 65.0586 36.6741 65.0586 36.6014V35.0219C65.0586 34.9492 65.1176 34.8903 65.1902 34.8903C65.2629 34.8903 65.3218 34.9492 65.3218 35.0219V36.6014C65.3218 36.6741 65.2629 36.733 65.1902 36.733ZM87.2557 36.0725C87.183 36.0725 87.1241 36.0136 87.1241 35.9409V34.3614C87.1241 34.2888 87.183 34.2298 87.2557 34.2298C87.3284 34.2298 87.3873 34.2888 87.3873 34.3614V35.9409C87.3873 36.0138 87.3284 36.0725 87.2557 36.0725ZM79.8429 35.9225C79.8352 35.9225 79.8276 35.922 79.8197 35.9204C79.7481 35.9077 79.7005 35.8393 79.7131 35.7677C79.7492 35.5647 79.7673 35.357 79.7671 35.1501V34.2148C79.7671 34.1421 79.826 34.0832 79.8987 34.0832C79.9713 34.0832 80.0303 34.1421 80.0303 34.2148V35.1498C80.0303 35.3723 80.0108 35.5955 79.9721 35.8135C79.9611 35.8777 79.9055 35.9225 79.8429 35.9225ZM72.4832 35.1641C72.4106 35.1641 72.3516 35.1051 72.3516 35.0324V33.4529C72.3516 33.3803 72.4106 33.3213 72.4832 33.3213C72.5559 33.3213 72.6149 33.3803 72.6149 33.4529V35.0324C72.6149 35.1051 72.5559 35.1641 72.4832 35.1641ZM94.8075 33.9768C94.7348 33.9768 94.6759 33.9178 94.6759 33.8452V32.2657C94.6759 32.193 94.7348 32.1341 94.8075 32.1341C94.8802 32.1341 94.9391 32.193 94.9391 32.2657V33.8452C94.9391 33.9178 94.8802 33.9768 94.8075 33.9768ZM65.1902 33.574C65.1176 33.574 65.0586 33.5151 65.0586 33.4424V31.8629C65.0586 31.7903 65.1176 31.7313 65.1902 31.7313C65.2629 31.7313 65.3218 31.7903 65.3218 31.8629V33.4424C65.3218 33.5151 65.2629 33.574 65.1902 33.574ZM87.2557 32.9136C87.183 32.9136 87.1241 32.8546 87.1241 32.7819V31.2024C87.1241 31.1298 87.183 31.0708 87.2557 31.0708C87.3284 31.0708 87.3873 31.1298 87.3873 31.2024V32.7819C87.3873 32.8548 87.3284 32.9136 87.2557 32.9136ZM79.8987 32.7672C79.826 32.7672 79.7671 32.7082 79.7671 32.6356V31.0561C79.7671 30.9834 79.826 30.9244 79.8987 30.9244C79.9713 30.9244 80.0303 30.9834 80.0303 31.0561V32.6356C80.0303 32.7082 79.9716 32.7672 79.8987 32.7672ZM72.4832 32.0051C72.4106 32.0051 72.3516 31.9461 72.3516 31.8735V30.294C72.3516 30.2213 72.4106 30.1623 72.4832 30.1623C72.5559 30.1623 72.6149 30.2213 72.6149 30.294V31.8735C72.6149 31.9461 72.5559 32.0051 72.4832 32.0051ZM94.8075 30.8178C94.7348 30.8178 94.6759 30.7589 94.6759 30.6862V29.1067C94.6759 29.0341 94.7348 28.9751 94.8075 28.9751C94.8802 28.9751 94.9391 29.0341 94.9391 29.1067V30.6862C94.9391 30.7589 94.8802 30.8178 94.8075 30.8178ZM65.1902 30.4151C65.1176 30.4151 65.0586 30.3561 65.0586 30.2834V28.7039C65.0586 28.6313 65.1176 28.5723 65.1902 28.5723C65.2629 28.5723 65.3218 28.6313 65.3218 28.7039V30.2834C65.3218 30.3561 65.2629 30.4151 65.1902 30.4151ZM87.2557 29.7546C87.183 29.7546 87.1241 29.6956 87.1241 29.6229V28.204C87.1241 28.1522 87.123 28.1006 87.1206 28.0492C87.1175 27.9766 87.1738 27.9153 87.2465 27.9121C87.3194 27.9103 87.3805 27.9653 87.3836 28.0379C87.386 28.0929 87.3873 28.1485 87.3873 28.204V29.6229C87.3873 29.6959 87.3284 29.7546 87.2557 29.7546ZM79.8987 29.6082C79.826 29.6082 79.7671 29.5492 79.7671 29.4766V28.2043C79.7671 28.0974 79.7715 27.9913 79.7802 27.8866C79.786 27.8142 79.8503 27.7602 79.9224 27.7665C79.9948 27.7726 80.0485 27.8363 80.0424 27.9087C80.0343 28.0061 80.0303 28.1048 80.0303 28.2043V29.4766C80.0303 29.5492 79.9716 29.6082 79.8987 29.6082ZM72.4832 28.8461C72.4106 28.8461 72.3516 28.7871 72.3516 28.7145V27.135C72.3516 27.0623 72.4106 27.0034 72.4832 27.0034C72.5559 27.0034 72.6149 27.0623 72.6149 27.135V28.7145C72.6149 28.7871 72.5559 28.8461 72.4832 28.8461ZM94.8075 27.6588C94.7348 27.6588 94.6759 27.5999 94.6759 27.5272V25.9477C94.6759 25.8751 94.7348 25.8161 94.8075 25.8161C94.8802 25.8161 94.9391 25.8751 94.9391 25.9477V27.5272C94.9391 27.5999 94.8802 27.6588 94.8075 27.6588ZM65.1902 27.2561C65.1176 27.2561 65.0586 27.1971 65.0586 27.1245V25.545C65.0586 25.4723 65.1176 25.4133 65.1902 25.4133C65.2629 25.4133 65.3218 25.4723 65.3218 25.545V27.1245C65.3218 27.1971 65.2629 27.2561 65.1902 27.2561ZM110.501 27.2205C110.458 27.2205 110.415 27.199 110.39 27.1595C110.124 26.7404 109.695 26.4416 109.212 26.34C109.141 26.325 109.095 26.2552 109.11 26.1841C109.125 26.1131 109.195 26.0678 109.266 26.0825C109.818 26.1986 110.309 26.5398 110.612 27.0186C110.651 27.08 110.633 27.1613 110.571 27.2003C110.55 27.214 110.525 27.2205 110.501 27.2205ZM86.8492 26.6614C86.8016 26.6614 86.7558 26.6353 86.7324 26.5903C86.5002 26.1417 86.1664 25.7403 85.7665 25.4291C85.7091 25.3846 85.6988 25.3017 85.7436 25.2443C85.7881 25.1869 85.871 25.1762 85.9284 25.2214C86.358 25.556 86.7168 25.9875 86.9661 26.4692C86.9995 26.534 86.9743 26.6132 86.9098 26.6467C86.8903 26.6567 86.8695 26.6614 86.8492 26.6614ZM80.3752 26.5324C80.3531 26.5324 80.3307 26.5269 80.3102 26.5153C80.247 26.4792 80.2249 26.3989 80.2609 26.3358C80.53 25.864 80.9059 25.447 81.3481 25.1303C81.4074 25.0877 81.4895 25.1017 81.5316 25.1606C81.574 25.2196 81.5603 25.302 81.5013 25.3441C81.0899 25.6389 80.7398 26.027 80.4897 26.4661C80.4652 26.5087 80.4207 26.5324 80.3752 26.5324ZM107.662 26.3002H106.083C106.01 26.3002 105.951 26.2413 105.951 26.1686C105.951 26.0959 106.01 26.037 106.083 26.037H107.662C107.735 26.037 107.794 26.0959 107.794 26.1686C107.794 26.2413 107.735 26.3002 107.662 26.3002ZM104.548 25.9904C104.53 25.9904 104.512 25.9867 104.494 25.9788C103.999 25.754 103.552 25.4133 103.202 24.9935C103.156 24.9377 103.164 24.8547 103.219 24.8081C103.275 24.7615 103.358 24.7694 103.405 24.825C103.729 25.2143 104.143 25.5305 104.603 25.7387C104.669 25.7687 104.698 25.8469 104.668 25.913C104.646 25.9617 104.598 25.9904 104.548 25.9904ZM72.4832 25.6871C72.4106 25.6871 72.3516 25.6282 72.3516 25.5555V24.9624C72.3516 24.6433 72.3087 24.3274 72.2247 24.0234C72.2053 23.9534 72.2466 23.8807 72.3166 23.8615C72.3861 23.8431 72.4593 23.8833 72.4785 23.9534C72.5688 24.2801 72.6149 24.6196 72.6149 24.9624V25.5555C72.6149 25.6282 72.5559 25.6871 72.4832 25.6871ZM84.4331 24.7826C84.4234 24.7826 84.4134 24.7815 84.4034 24.7792C84.1449 24.7194 83.8777 24.6891 83.6092 24.6891H83.5455C83.3249 24.6891 83.104 24.7097 82.8895 24.7502C82.8189 24.7636 82.7494 24.7168 82.7357 24.6454C82.7223 24.5741 82.7691 24.5051 82.8405 24.4917C83.0711 24.448 83.3083 24.4259 83.5452 24.4259H83.6089C83.8972 24.4259 84.1844 24.4585 84.4624 24.5228C84.5332 24.5394 84.5774 24.6099 84.5611 24.6807C84.5471 24.7415 84.4929 24.7826 84.4331 24.7826ZM94.8075 24.4999C94.7348 24.4999 94.6759 24.4409 94.6759 24.3682V22.7888C94.6759 22.7161 94.7348 22.6571 94.8075 22.6571C94.8802 22.6571 94.9391 22.7161 94.9391 22.7888V24.3682C94.9391 24.4409 94.8802 24.4999 94.8075 24.4999ZM65.3247 24.1095C65.3129 24.1095 65.301 24.1079 65.2892 24.1045C65.2192 24.085 65.1784 24.0123 65.1978 23.9423C65.3461 23.4124 65.6033 22.9306 65.9623 22.5102C66.0097 22.455 66.0929 22.4486 66.1479 22.4955C66.2032 22.5429 66.2098 22.6258 66.1627 22.6811C65.8286 23.0723 65.5893 23.5203 65.4514 24.0134C65.4353 24.0716 65.3821 24.1095 65.3247 24.1095ZM102.597 23.6433C102.538 23.6433 102.484 23.603 102.469 23.543C102.4 23.261 102.365 22.9693 102.365 22.6763C102.365 22.4394 102.34 22.203 102.291 21.9737C102.276 21.9027 102.322 21.8326 102.393 21.8176C102.464 21.8026 102.534 21.8479 102.549 21.919C102.601 22.1662 102.628 22.4213 102.628 22.6763C102.628 22.9483 102.661 23.2189 102.725 23.4803C102.742 23.5509 102.699 23.6222 102.628 23.6393C102.618 23.6422 102.607 23.6433 102.597 23.6433ZM71.6177 22.7356C71.5803 22.7356 71.5435 22.7198 71.5174 22.6892C71.1894 22.3028 70.774 21.9861 70.3162 21.7734C70.2504 21.7426 70.2217 21.6644 70.2522 21.5983C70.2828 21.5325 70.3609 21.5036 70.4273 21.5344C70.9193 21.7631 71.3655 22.1035 71.7183 22.5187C71.7654 22.5739 71.7585 22.6571 71.703 22.7043C71.678 22.7253 71.648 22.7356 71.6177 22.7356ZM67.3112 21.781C67.2615 21.781 67.2138 21.7529 67.1914 21.7044C67.1609 21.6384 67.1899 21.5602 67.2559 21.5296C67.7532 21.3003 68.285 21.184 68.8367 21.184C68.9094 21.184 68.9707 21.243 68.9707 21.3156C68.9707 21.3883 68.9144 21.4472 68.8417 21.4472C68.3234 21.4472 67.8285 21.5554 67.3662 21.7687C67.3483 21.7774 67.3296 21.781 67.3112 21.781ZM95.11 21.3838C95.0921 21.3838 95.0739 21.3801 95.0563 21.3725C94.9899 21.3427 94.9602 21.2648 94.9899 21.1985C95.2121 20.7017 95.5504 20.2534 95.9687 19.9017C96.0242 19.8551 96.1069 19.8622 96.1543 19.9178C96.2011 19.9733 96.1938 20.0565 96.1382 20.1034C95.7502 20.4295 95.4364 20.8455 95.2305 21.3061C95.2084 21.3548 95.1603 21.3838 95.11 21.3838ZM101.758 20.6593C101.718 20.6593 101.68 20.642 101.654 20.6088C101.342 20.2097 100.937 19.8809 100.484 19.6582C100.419 19.6261 100.392 19.5474 100.424 19.4821C100.456 19.4168 100.534 19.3897 100.6 19.4221C101.089 19.6622 101.525 20.0165 101.861 20.4466C101.906 20.504 101.895 20.5867 101.838 20.6314C101.814 20.6501 101.786 20.6593 101.758 20.6593ZM97.4471 19.4205C97.3881 19.4205 97.3347 19.3807 97.3197 19.321C97.302 19.2504 97.3447 19.1791 97.4152 19.1615C97.7024 19.0893 97.9996 19.0527 98.2982 19.0527C98.2987 19.0527 98.2992 19.0527 98.2998 19.0527H99.0042C99.0769 19.0527 99.1427 19.1117 99.1427 19.1844C99.1427 19.257 99.0905 19.316 99.0176 19.316H98.2995C98.299 19.316 98.2984 19.316 98.2979 19.316C98.0207 19.316 97.7453 19.3499 97.4789 19.4168C97.4684 19.4192 97.4576 19.4205 97.4471 19.4205Z" fill="#25292B"/>
<path d="M83.5854 28.9704C86.0224 28.9704 87.998 26.9948 87.998 24.5578C87.998 22.1208 86.0224 20.1453 83.5854 20.1453C81.1484 20.1453 79.1729 22.1208 79.1729 24.5578C79.1729 26.9948 81.1484 28.9704 83.5854 28.9704Z" fill="#0E53BE"/>
<path d="M81.9716 26.4759C81.9184 26.4759 81.865 26.4585 81.8202 26.4227L79.7095 24.7369C79.6519 24.6908 79.6182 24.6208 79.6182 24.5471C79.6182 24.4734 79.6519 24.4033 79.7095 24.3573L81.7931 22.693C81.8979 22.6093 82.0508 22.6264 82.1346 22.7312C82.2183 22.8359 82.2012 22.9889 82.0964 23.0726L80.2505 24.5471L82.1235 26.0431C82.2283 26.1268 82.2454 26.2798 82.1617 26.3845C82.1138 26.4446 82.0429 26.4759 81.9716 26.4759Z" fill="#F2E9DA"/>
<path d="M85.2012 26.4756C85.1298 26.4756 85.0593 26.4443 85.0111 26.3843C84.9274 26.2795 84.9445 26.1266 85.0493 26.0429L86.9223 24.5468L85.0764 23.0724C84.9716 22.9887 84.9545 22.8357 85.0382 22.7309C85.1219 22.6262 85.2749 22.609 85.3797 22.6928L87.4633 24.357C87.5209 24.4031 87.5546 24.4731 87.5546 24.5468C87.5546 24.6205 87.5209 24.6906 87.4633 24.7366L85.3525 26.4225C85.3081 26.4583 85.2544 26.4756 85.2012 26.4756Z" fill="#F2E9DA"/>
<path d="M83.1118 26.9225C83.0779 26.9272 83.0426 26.9246 83.0076 26.9138C82.8794 26.8743 82.8073 26.7385 82.8467 26.61L84.153 22.3638C84.1925 22.2356 84.3283 22.1635 84.4568 22.2029C84.585 22.2424 84.6571 22.3783 84.6176 22.5067L83.3114 26.7529C83.2827 26.8466 83.2027 26.9101 83.1118 26.9225Z" fill="#F2E9DA"/>
<path d="M84.5794 46.6491H85.2615C85.2615 46.0787 85.1314 45.5043 84.8829 44.9883L84.2688 45.2847C84.0626 44.8572 83.7625 44.4837 83.3956 44.1912L83.821 43.6586C83.5972 43.4802 83.3542 43.3269 83.096 43.2014C82.838 43.0779 82.5655 42.9826 82.286 42.9194L82.1351 43.5836C81.9106 43.5323 81.6763 43.5054 81.4357 43.5054C81.1951 43.5054 80.9605 43.5323 80.7357 43.5841L80.5849 42.9194C80.3053 42.9826 80.0328 43.0779 79.7749 43.2014C79.5174 43.3269 79.2736 43.4804 79.0499 43.6586L79.4753 44.1912C79.108 44.4837 78.8082 44.8572 78.6021 45.2847L77.9879 44.9883C77.7399 45.5045 77.6099 46.0789 77.6094 46.6491H78.292C78.292 47.1377 78.4036 47.6008 78.6023 48.0136L77.9882 48.31C78.2393 48.8246 78.6018 49.2845 79.0504 49.6396L79.4758 49.1066C79.8391 49.3969 80.2674 49.6083 80.7362 49.7144L80.5854 50.3791C81.1448 50.507 81.7271 50.507 82.2868 50.3791L82.1359 49.7149C82.6048 49.6083 83.0331 49.3972 83.3964 49.1066L83.8218 49.6396C84.2701 49.2845 84.6334 48.8246 84.884 48.31L84.2698 48.0136C84.4678 47.6008 84.5794 47.138 84.5794 46.6491ZM81.4349 48.8059C80.2705 48.8059 79.3265 47.8619 79.3265 46.697C79.3265 45.5327 80.2705 44.5887 81.4349 44.5887C82.5998 44.5887 83.5438 45.5327 83.5438 46.697C83.5435 47.8619 82.5995 48.8059 81.4349 48.8059Z" fill="#0E53BE"/>
<path d="M94.5332 52.5979H95.8573C95.8552 52.2905 95.8321 51.9822 95.7847 51.6763C95.7368 51.3709 95.6628 51.0693 95.5686 50.7749C95.4751 50.4798 95.3532 50.194 95.2132 49.9186C95.0726 49.6438 94.9123 49.3784 94.7288 49.1296L93.6592 49.9078C93.0972 49.1354 92.2995 48.5458 91.3711 48.2449L91.7794 46.986C90.5995 46.6017 89.313 46.6017 88.1329 46.986L88.5419 48.2449C87.6137 48.5458 86.8153 49.1354 86.2533 49.9086L85.1837 49.1296C85.001 49.3784 84.8399 49.6438 84.6998 49.9186C84.5593 50.1942 84.4379 50.4798 84.3444 50.7749C84.2494 51.0693 84.1754 51.3712 84.1275 51.6763C84.0812 51.9825 84.0572 52.2905 84.0557 52.5979H85.3793C85.3793 53.6038 85.7033 54.5336 86.2533 55.2886L85.1837 56.0668C85.9068 57.0682 86.9546 57.8284 88.1331 58.2104L88.5422 56.9521C88.9874 57.0963 89.4625 57.1748 89.9564 57.1748C90.4502 57.1748 90.9259 57.0963 91.3713 56.9513L91.7796 58.2101C92.9582 57.8279 94.0059 57.0679 94.7291 56.0665L93.6595 55.2883C94.2092 54.5336 94.5332 53.6038 94.5332 52.5979ZM89.9572 55.0693C88.5119 55.0693 87.3413 53.8981 87.3413 52.4534C87.3413 51.0087 88.5117 49.8375 89.9572 49.8375C91.4019 49.8375 92.5723 51.0087 92.5723 52.4534C92.5723 53.8981 91.4019 55.0693 89.9572 55.0693Z" fill="#0E53BE"/>
<path d="M87.1722 46.051C88.037 46.051 88.738 45.35 88.738 44.4852C88.738 43.6205 88.037 42.9194 87.1722 42.9194C86.3075 42.9194 85.6064 43.6205 85.6064 44.4852C85.6064 45.35 86.3075 46.051 87.1722 46.051Z" fill="#0E53BE"/>
<path d="M141.196 123.934H17.3737C17.315 123.934 17.2676 123.886 17.2676 123.828C17.2676 123.769 17.315 123.722 17.3737 123.722H141.196C141.255 123.722 141.302 123.769 141.302 123.828C141.302 123.886 141.255 123.934 141.196 123.934Z" fill="#25292B"/>
</svg>
