<svg width="158" height="134" viewBox="0 0 158 134" fill="none" xmlns="http://www.w3.org/2000/svg">
<path d="M138.532 34.9018V37.2832H54.1523V34.9018C54.1523 33.1848 55.5461 31.7913 57.2629 31.7913H135.421C137.138 31.791 138.532 33.1848 138.532 34.9018Z" fill="#25292B"/>
<path d="M133.636 35.0923H127.29C127.019 35.0923 126.798 34.8707 126.798 34.5999V34.1619C126.798 33.8911 127.019 33.6694 127.29 33.6694H133.636C133.906 33.6694 134.128 33.8911 134.128 34.1619V34.5999C134.128 34.8707 133.907 35.0923 133.636 35.0923Z" fill="#F2E9DA"/>
<path d="M123.916 35.1961H117.571C117.3 35.1961 117.078 34.9745 117.078 34.7037V34.2656C117.078 33.9948 117.3 33.7732 117.571 33.7732H123.916C124.187 33.7732 124.408 33.9948 124.408 34.2656V34.7037C124.408 34.9745 124.187 35.1961 123.916 35.1961Z" fill="#0E53BE"/>
<path d="M114.18 35.1968H107.835C107.564 35.1968 107.343 34.9752 107.343 34.7044V34.2664C107.343 33.9956 107.564 33.7739 107.835 33.7739H114.18C114.451 33.7739 114.673 33.9956 114.673 34.2664V34.7044C114.673 34.9752 114.451 35.1968 114.18 35.1968Z" fill="#0E53BE"/>
<path d="M135.33 93.4767H57.3605C55.4446 93.4767 53.8857 91.9178 53.8857 90.002V34.9991C53.8857 33.0833 55.4446 31.5244 57.3605 31.5244H135.33C137.241 31.5244 138.797 33.0833 138.797 34.9991V90.002C138.797 91.9178 137.242 93.4767 135.33 93.4767ZM57.3605 31.7367C55.5616 31.7367 54.098 33.2003 54.098 34.9991V90.002C54.098 91.8008 55.5616 93.2644 57.3605 93.2644H135.33C137.124 93.2644 138.584 91.8008 138.584 90.002V34.9991C138.584 33.2003 137.124 31.7367 135.33 31.7367H57.3605Z" fill="#25292B"/>
<path d="M59.037 58.446C58.7857 58.6207 58.5347 58.786 58.2834 58.9453C56.5957 60.0052 54.8743 60.6972 53.1836 61.1169C52.4668 61.2976 51.7533 61.4261 51.0489 61.5121C46.6168 62.0666 42.8004 60.9516 40.1507 59.9132C39.4248 59.6314 38.8061 59.3526 38.3191 59.1167C38.1906 59.0555 38.0742 59.0003 37.9668 58.9451C37.7677 58.844 37.596 58.752 37.4615 58.6817C37.4768 58.602 37.4889 58.5254 37.5043 58.4458C37.6482 57.7106 37.7954 57.0185 37.9484 56.369C38.1535 55.5022 38.365 54.7118 38.5855 53.992C38.1843 54.1145 37.7707 54.1757 37.3604 54.1757C35.7279 54.1757 34.1166 53.22 33.4734 51.4741C33.2469 50.8583 33.1672 50.2031 33.2469 49.5535L34.4168 39.847L34.9559 35.3842L35.2531 32.9094C35.4676 31.1177 36.8213 29.675 38.5949 29.3471L44.2247 28.3026L46.2952 27.9167L54.0691 27.9198L56.6174 27.9167L59.037 58.446Z" fill="#0E53BE"/>
<path d="M38.5866 54.1298C38.5476 54.1298 38.5089 54.1133 38.4817 54.0812C38.4328 54.0235 38.4399 53.9367 38.4976 53.8879C38.5166 53.8716 40.3877 52.2433 40.0048 49.1795C39.9955 49.1042 40.0488 49.0355 40.124 49.0262C40.2004 49.0169 40.2676 49.0702 40.2773 49.1454C40.6793 52.3628 38.7569 54.0279 38.675 54.0974C38.6492 54.1191 38.6179 54.1298 38.5866 54.1298Z" fill="#25292B"/>
<path d="M23.3563 101.448L29.4991 107.843L29.8246 110.964C29.8246 110.964 34.7543 115.832 31.5721 119.347L19 106.26L23.3563 101.448Z" fill="#0E53BE"/>
<path d="M26.1482 99.6045L30.2419 105.848L28.8003 107.115L23.9346 102.05L26.1482 99.6045Z" fill="#F2E9DA"/>
<path d="M49.041 117.156H57.602L59.8628 119.152C59.8628 119.152 66.5624 118.963 66.5624 123.863H49.041V117.156Z" fill="#0E53BE"/>
<path d="M49.8477 113.748L56.8402 115.17L56.629 117.156H49.8477V113.748Z" fill="#F2E9DA"/>
<path d="M51.0483 61.5111C51.0483 61.5397 51.0458 61.5732 51.0458 61.6095C51.0433 61.6432 51.0433 61.6767 51.0433 61.7078C51.0433 61.7234 51.0433 61.7388 51.0408 61.7545C51.0384 61.7701 51.0384 61.783 51.0384 61.7959C51.0384 61.8116 51.0359 61.827 51.0359 61.8399C50.847 64.9968 50.5075 69.2883 49.9146 73.5872C49.8135 74.3123 49.7075 75.0376 49.5935 75.755C49.591 75.7731 49.5883 75.7887 49.5858 75.8069C48.9643 79.6993 48.1173 83.4391 46.9674 86.1739C43.3002 94.9093 31.6745 105.494 30.3614 106.675L25.3477 99.7731C29.5768 95.9765 35.0775 86.1533 37.0744 81.3982C37.0744 81.3982 36.4892 63.8807 37.4628 58.6802C37.6726 58.7942 37.9626 58.9444 38.3199 59.1179C38.8068 59.3536 39.4259 59.6307 40.1509 59.913C42.7995 60.9517 46.617 62.0654 51.0483 61.5111Z" fill="#25292B"/>
<path d="M58.0597 115.418L49.042 113.585C51.9142 97.3362 50.026 84.9726 49.5833 75.8071C49.5858 75.7889 49.5885 75.7733 49.591 75.7552C49.705 75.0378 49.8113 74.3125 49.912 73.5874C50.505 69.2883 50.8444 64.997 51.0334 61.8401C51.0334 61.8272 51.0359 61.8115 51.0359 61.7961C51.0359 61.7832 51.0359 61.7703 51.0383 61.7547C51.0408 61.739 51.0408 61.7236 51.0408 61.708C51.0433 61.6742 51.046 61.6432 51.0485 61.6097C51.046 61.6097 51.046 61.6097 51.0433 61.6097C51.0433 61.5734 51.0458 61.5396 51.0458 61.5113C51.7502 61.4259 52.4651 61.2963 53.1824 61.1178C55.1274 60.6361 57.1087 59.7918 59.0355 58.4478C59.108 58.7845 59.1443 58.9786 59.1467 58.9786C59.6208 61.0401 60.0429 63.4695 60.2991 66.2173V66.2225C61.2582 77.0784 61.7165 94.7335 58.0597 115.418Z" fill="#25292B"/>
<path d="M31.2921 118.25C31.2559 118.25 31.2194 118.236 31.1925 118.208L19.5338 105.911C19.4816 105.856 19.4838 105.769 19.539 105.717C19.5939 105.665 19.6813 105.667 19.7332 105.722L31.3918 118.019C31.444 118.074 31.4418 118.161 31.3866 118.213C31.3603 118.238 31.3262 118.25 31.2921 118.25Z" fill="#25292B"/>
<path d="M49.6334 123.318C49.5579 123.318 49.4964 123.257 49.4961 123.181C49.4958 123.106 49.5571 123.044 49.6329 123.043L66.1441 122.982H66.1446C66.2202 122.982 66.2817 123.043 66.282 123.118C66.2822 123.194 66.221 123.256 66.1452 123.256L49.634 123.318H49.6334Z" fill="#25292B"/>
<path d="M55.2266 119.989C54.9006 119.989 54.5752 119.972 54.2522 119.937C53.6431 119.873 53.2709 119.631 53.2045 119.255C53.1185 118.769 53.5945 118.422 54.0284 118.273C55.3585 117.815 56.8975 118.093 57.9983 118.958C58.3086 117.964 58.8524 117.05 59.5799 116.303C59.8112 116.065 60.0971 115.813 60.4637 115.742C60.8405 115.67 61.3082 115.863 61.4041 116.266C61.4953 116.649 61.2247 116.985 60.9789 117.236C60.169 118.061 59.2776 118.816 58.3287 119.477C58.2927 119.502 58.2482 119.508 58.2087 119.495C58.1969 119.504 58.1834 119.512 58.1686 119.516C57.2255 119.829 56.2239 119.989 55.2266 119.989ZM55.3571 118.328C54.9372 118.328 54.5175 118.395 54.1179 118.532C53.851 118.624 53.4151 118.87 53.4747 119.207C53.5354 119.549 54.0586 119.641 54.2811 119.664C55.5084 119.795 56.7756 119.668 57.9541 119.297C57.9461 119.286 57.9401 119.274 57.9357 119.262C57.223 118.657 56.2898 118.328 55.3571 118.328ZM58.2268 119.152C58.2394 119.164 58.2518 119.175 58.2641 119.187C59.1644 118.551 60.0114 117.83 60.7828 117.044C60.9792 116.843 61.197 116.581 61.1371 116.33C61.0786 116.083 60.7633 115.964 60.5156 116.012C60.2237 116.068 59.9782 116.287 59.7768 116.494C59.0524 117.239 58.5179 118.156 58.2268 119.152Z" fill="#25292B"/>
<path d="M32.6867 110.4C32.2689 110.4 31.8284 110.352 31.3673 110.257C30.5588 110.088 29.7755 109.795 29.0178 109.51C28.9837 109.508 28.9499 109.494 28.9247 109.468C28.9151 109.457 28.9074 109.446 28.9013 109.434C28.1211 109.031 27.3156 108.612 26.6441 108.008C25.8754 107.315 25.4195 106.472 25.3604 105.633C25.3406 105.357 25.3703 105.129 25.4508 104.936C25.5565 104.682 25.7586 104.491 25.9915 104.425C26.328 104.331 26.7072 104.482 27.0879 104.865C28.2372 106.02 28.7346 107.697 29.1155 109.102C29.9694 108.328 30.7472 107.876 31.5483 107.687C32.6658 107.421 33.828 107.761 34.4419 108.53C34.6945 108.846 34.8994 109.363 34.6448 109.777C34.4644 110.071 34.1194 110.191 33.8758 110.255C33.5051 110.352 33.1077 110.4 32.6867 110.4ZM29.2861 109.318C29.9804 109.578 30.6955 109.836 31.4236 109.988C32.3079 110.171 33.1093 110.172 33.8058 109.989C34.1205 109.906 34.3125 109.792 34.4106 109.633C34.5792 109.359 34.4399 108.967 34.2274 108.7C33.5935 107.906 32.4571 107.754 31.6117 107.953C30.8529 108.133 30.1097 108.568 29.2861 109.318ZM26.1923 104.672C26.15 104.672 26.108 104.678 26.0662 104.689C25.9135 104.733 25.7781 104.864 25.7043 105.041C25.6408 105.194 25.6177 105.381 25.6342 105.614C25.6886 106.382 26.1124 107.159 26.8278 107.804C27.4169 108.334 28.126 108.722 28.8266 109.086C28.4432 107.678 27.973 106.144 26.8929 105.058C26.7097 104.873 26.4502 104.672 26.1923 104.672Z" fill="#25292B"/>
<path d="M49.5855 75.9445C49.5759 75.9445 49.5666 75.9434 49.557 75.9415C49.4828 75.9256 49.4356 75.8528 49.4512 75.7786C49.4685 75.6968 51.1944 67.5612 51.8068 63.3666C51.8153 63.3087 51.8595 63.2626 51.9169 63.2516L55.7047 62.5315C55.7792 62.5183 55.8514 62.5663 55.8651 62.6408C55.8794 62.7152 55.8305 62.7872 55.7558 62.8012L52.0641 63.5029C51.4385 67.7331 49.7369 75.7542 49.7198 75.8352C49.7061 75.9003 49.649 75.9445 49.5855 75.9445Z" fill="#F2E9DA"/>
<path d="M27.5785 101.177C27.5477 101.177 27.5167 101.167 27.4911 101.146C27.4326 101.097 27.4247 101.011 27.473 100.952C27.601 100.798 40.2747 85.453 41.0511 81.3598C41.8319 77.2425 42.2796 60.8623 42.2839 60.6975C42.2861 60.6217 42.3567 60.567 42.4248 60.5637C42.5006 60.5659 42.5605 60.6288 42.5586 60.7046C42.5542 60.8699 42.1057 77.2719 41.3208 81.4109C40.5312 85.5736 28.2088 100.494 27.6845 101.128C27.6573 101.16 27.618 101.177 27.5785 101.177Z" fill="#F2E9DA"/>
<path d="M52.2355 21.9583C51.8749 22.9072 51.0216 23.5938 50.0461 23.8217C49.3384 23.9887 48.5776 23.8695 47.9388 23.5301C47.1514 24.8263 45.7705 25.7302 44.1908 25.7884C43.1252 25.8255 42.0118 25.5127 41.2299 24.7626C40.6494 24.2032 40.2783 23.4452 40.2226 22.6526C39.7321 22.512 39.2737 22.2656 38.8867 21.8998C38.0543 21.1179 37.6594 19.9993 37.6912 18.8675C37.747 16.8503 39.2127 15.1379 41.1028 14.5788C40.9995 13.8287 41.063 13.0625 41.3439 12.3443C42.0066 10.6372 43.9099 9.77317 45.6645 10.0514C47.3821 10.3271 48.7394 11.6498 49.4073 13.2056C50.3482 13.4072 51.1806 14.0644 51.5305 15.024C51.8831 15.9888 51.6788 17.028 51.0878 17.794C51.4907 18.157 51.8299 18.5838 52.0817 19.0795C52.5296 19.965 52.5854 21.0306 52.2355 21.9583Z" fill="#25292B"/>
<path d="M44.0713 18.0318C44.0713 21.4343 46.8295 24.1922 50.2317 24.1922C53.6339 24.1922 57.389 19.3017 57.389 15.8995C57.389 12.4973 53.6339 11.8711 50.2317 11.8711C46.8295 11.8711 44.0713 14.6296 44.0713 18.0318Z" fill="#25292B"/>
<path d="M44.1378 21.0436C44.4993 22.1814 45.2619 22.8597 46.3242 22.6543L46.1787 27.918L47.3113 28.8691C49.1206 30.3889 51.8587 29.9383 53.0855 27.9199L52.7428 26.0574L53.5791 25.3875C54.9756 24.267 55.7877 22.5774 55.7877 20.7868V17.9168C53.0496 18.5902 51.1974 17.8449 50.1093 17.0756C49.2851 16.4947 48.8995 15.9001 48.8995 15.9001L48.4197 16.7381L47.2819 18.7256V18.7394L47.2767 18.7341C46.9048 18.3691 46.4286 18.1412 45.9299 18.0967C45.6712 18.0728 45.4072 18.1 45.1485 18.1824C44.0214 18.5402 43.7506 19.8253 44.1378 21.0436Z" fill="#F2E9DA"/>
<path d="M54.663 20.6515C54.9844 20.6515 55.245 20.3633 55.245 20.0078C55.245 19.6522 54.9844 19.364 54.663 19.364C54.3416 19.364 54.0811 19.6522 54.0811 20.0078C54.0811 20.3633 54.3416 20.6515 54.663 20.6515Z" fill="#25292B"/>
<path d="M51.1249 20.6515C51.4463 20.6515 51.7069 20.3633 51.7069 20.0078C51.7069 19.6522 51.4463 19.364 51.1249 19.364C50.8035 19.364 50.543 19.6522 50.543 20.0078C50.543 20.3633 50.8035 20.6515 51.1249 20.6515Z" fill="#25292B"/>
<path d="M54.1802 18.5033C54.6224 18.3627 55.12 18.4413 55.4798 18.7425C55.5515 18.8024 55.5819 18.9128 55.5193 18.9919C55.4625 19.0633 55.3463 19.0955 55.27 19.0315C55.2345 19.0018 55.198 18.9741 55.1593 18.9488C55.1403 18.9364 55.1211 18.9246 55.1016 18.9134C55.0994 18.9123 55.0972 18.9109 55.095 18.9098C55.0848 18.9046 55.0744 18.8994 55.064 18.8944C55.0225 18.8746 54.9797 18.8571 54.936 18.8422C54.9143 18.8348 54.8921 18.8282 54.8701 18.8216C54.8662 18.8205 54.8624 18.8194 54.8594 18.8186C54.847 18.8159 54.8349 18.8131 54.8226 18.8107C54.7773 18.8019 54.7317 18.7953 54.6858 18.7917C54.6627 18.7898 54.6399 18.7887 54.6169 18.7881C54.6053 18.7879 54.5938 18.7879 54.5823 18.7879C54.5817 18.7879 54.582 18.7879 54.5814 18.7879C54.5801 18.7879 54.5809 18.7879 54.5781 18.7881C54.532 18.7909 54.4864 18.7953 54.4408 18.803C54.418 18.8068 54.3955 18.8115 54.3733 18.8167C54.362 18.8194 54.351 18.8222 54.3398 18.8249C54.3367 18.8258 54.3354 18.826 54.334 18.8263C54.3318 18.8271 54.3304 18.8274 54.3277 18.8282C54.239 18.8565 54.1299 18.8362 54.0912 18.7395C54.0591 18.6588 54.0852 18.5335 54.1802 18.5033Z" fill="#25292B"/>
<path d="M51.6936 18.7398C51.6549 18.8365 51.5458 18.8568 51.4571 18.8285C51.4541 18.8277 51.453 18.8272 51.4508 18.8266C51.4494 18.8263 51.4481 18.8261 51.445 18.8252C51.4338 18.8225 51.4228 18.8195 51.4115 18.817C51.389 18.8118 51.3665 18.8071 51.344 18.8033C51.2984 18.7956 51.2528 18.7912 51.2067 18.7884C51.2039 18.7882 51.2047 18.7882 51.2034 18.7882C51.2028 18.7882 51.2034 18.7882 51.2025 18.7882C51.191 18.7882 51.1795 18.7882 51.1679 18.7884C51.1449 18.789 51.1218 18.7901 51.099 18.792C51.0531 18.7959 51.0073 18.8022 50.9622 18.811C50.9499 18.8134 50.9375 18.8159 50.9254 18.8189C50.9224 18.8197 50.9188 18.8208 50.9147 18.8219C50.8925 18.8283 50.8705 18.8349 50.8488 18.8425C50.8051 18.8574 50.7626 18.8749 50.7208 18.8947C50.7104 18.8997 50.7002 18.9049 50.6898 18.9101C50.6876 18.9112 50.6851 18.9126 50.6832 18.9137C50.6637 18.9249 50.6445 18.9367 50.6255 18.9491C50.5871 18.9744 50.5503 19.0021 50.5148 19.0318C50.4385 19.0958 50.322 19.0636 50.2655 18.9922C50.2026 18.9131 50.2333 18.8027 50.305 18.7428C50.6651 18.4413 51.1624 18.363 51.6046 18.5036C51.6999 18.5336 51.726 18.6588 51.6936 18.7398Z" fill="#25292B"/>
<path d="M51.511 26.6505C50.6451 26.6505 49.2354 25.3773 49.0723 25.227L49.2582 25.0249C49.6924 25.4242 50.9511 26.442 51.5723 26.3726C52.3267 26.2841 52.7499 25.8749 52.7543 25.8708L52.948 26.0658C52.9282 26.0853 52.4577 26.545 51.6044 26.6453C51.5737 26.6488 51.5426 26.6505 51.511 26.6505Z" fill="#25292B"/>
<path d="M54.2633 22.8519L52.8115 22.4943L52.8772 22.2276L53.8744 22.4732C53.6533 21.6424 53.4803 20.791 53.3594 19.9394L53.6313 19.9006C53.7615 20.8179 53.9529 21.7347 54.2001 22.6253L54.2633 22.8519Z" fill="#25292B"/>
<path d="M51.988 23.4286C51.405 23.3078 50.8793 22.9005 50.6162 22.3657L50.8626 22.2446C51.0889 22.7049 51.5415 23.0556 52.0435 23.1597L51.988 23.4286Z" fill="#25292B"/>
<path d="M45.6061 22.1769C45.3262 21.9025 45.2257 21.4699 45.3556 21.1006C45.4712 20.7715 45.7609 20.5181 46.0979 20.439C46.0905 20.2019 46.0738 19.9625 45.9905 19.7466C45.9123 19.5445 45.7382 19.3127 45.4838 19.2693C45.3169 19.2418 45.1367 19.3053 45.026 19.4335C44.9151 19.562 44.8777 19.7493 44.9304 19.9106L44.6695 19.9962C44.5874 19.7455 44.6456 19.4541 44.8178 19.2542C44.99 19.0545 45.2696 18.9532 45.53 18.9985C45.8376 19.0509 46.1122 19.2998 46.2465 19.6477C46.3608 19.9441 46.3684 20.2665 46.3753 20.551L46.3783 20.6784L46.2515 20.6911C45.9702 20.7191 45.7079 20.9248 45.6143 21.1915C45.5204 21.4581 45.5959 21.7825 45.7977 21.9805L45.6061 22.1769Z" fill="#25292B"/>
<path d="M55.7889 25.792L37.6348 32.7878V42.6935C37.6348 51.1809 42.3182 59.2151 50.1624 64.1803L55.7891 67.7457L61.4159 64.1803C69.2632 59.2121 73.9435 51.1812 73.9435 42.6935V32.7878L55.7889 25.792ZM72.4176 42.6935C72.4176 50.6816 67.9916 58.2564 60.5761 62.9519L55.8408 65.9537C55.8254 65.9627 55.807 65.966 55.7886 65.966C55.7732 65.966 55.7548 65.963 55.7397 65.9537L51.0014 62.9519C43.5859 58.2564 39.1598 50.6846 39.1598 42.6935V33.8477C39.1598 33.8109 39.1843 33.7741 39.2211 33.762L55.7581 27.3909C55.7765 27.3819 55.801 27.3819 55.8224 27.3909L72.3594 33.762C72.3932 33.7743 72.4176 33.8109 72.4176 33.8477V42.6935Z" fill="#0E53BE"/>
<path d="M72.3568 33.7616L55.8198 27.3906C55.7984 27.3815 55.7739 27.3815 55.7555 27.3906L39.2185 33.7616C39.1817 33.774 39.1572 33.8105 39.1572 33.8473V42.6931C39.1572 50.6845 43.5833 58.256 50.9988 62.9515L55.7371 65.9533C55.7525 65.9624 55.7709 65.9657 55.786 65.9657C55.8044 65.9657 55.8228 65.9626 55.8382 65.9533L60.5735 62.9515C67.989 58.256 72.415 50.6812 72.415 42.6931V33.8473C72.415 33.8108 72.3906 33.774 72.3568 33.7616Z" fill="#F2E9DA"/>
<path d="M50.903 42.6619C50.903 43.3221 50.7355 43.9079 50.4007 44.4199C50.0656 44.9321 49.5828 45.3297 48.952 45.614C48.3209 45.898 47.5807 46.04 46.7315 46.04C46.023 46.04 45.4284 45.99 44.948 45.8908C44.4674 45.7914 43.9676 45.6178 43.4482 45.3704V42.8077C43.9967 43.0893 44.5668 43.309 45.159 43.4663C45.7511 43.6242 46.2946 43.7031 46.7898 43.7031C47.2168 43.7031 47.5299 43.6292 47.7287 43.4812C47.9279 43.3331 48.0273 43.1428 48.0273 42.9096C48.0273 42.7641 47.9872 42.6366 47.9073 42.5273C47.8273 42.4183 47.6985 42.3079 47.5214 42.1961C47.344 42.0846 46.8722 41.8567 46.1054 41.512C45.4114 41.1964 44.8906 40.8908 44.5438 40.5947C44.1966 40.2987 43.9396 39.9589 43.772 39.5755C43.6045 39.1921 43.5207 38.7384 43.5207 38.2142C43.5207 37.2337 43.8775 36.4694 44.591 35.9209C45.3045 35.3725 46.2847 35.0984 47.5321 35.0984C48.634 35.0984 49.7575 35.3533 50.9027 35.8627L50.022 38.0832C49.027 37.627 48.1679 37.3988 47.4448 37.3988C47.071 37.3988 46.7991 37.4641 46.6294 37.5954C46.4594 37.7264 46.3745 37.889 46.3745 38.0832C46.3745 38.2919 46.4824 38.4789 46.6983 38.6437C46.9142 38.8087 47.5002 39.1097 48.4565 39.5464C49.3738 39.9592 50.0107 40.4019 50.3675 40.8751C50.7248 41.3478 50.903 41.9435 50.903 42.6619Z" fill="#0E53BE"/>
<path d="M59.5075 42.6617C59.5075 43.3219 59.34 43.9077 59.0052 44.4196C58.6701 44.9318 58.1873 45.3295 57.5565 45.6138C56.9254 45.8977 56.1852 46.0397 55.336 46.0397C54.6275 46.0397 54.0329 45.9897 53.5525 45.8906C53.0719 45.7912 52.5721 45.6176 52.0527 45.3702V42.8075C52.6012 43.089 53.1713 43.3087 53.7635 43.4661C54.3556 43.624 54.8991 43.7028 55.3943 43.7028C55.8213 43.7028 56.1344 43.6289 56.3332 43.4809C56.5324 43.3329 56.6318 43.1426 56.6318 42.9094C56.6318 42.7638 56.5917 42.6364 56.5118 42.5271C56.4318 42.4181 56.303 42.3077 56.1259 42.1959C55.9485 42.0844 55.4766 41.8564 54.7099 41.5118C54.0158 41.1962 53.4951 40.8905 53.1483 40.5945C52.8011 40.2984 52.5441 39.9587 52.3765 39.5753C52.209 39.1919 52.1252 38.7382 52.1252 38.2139C52.1252 37.2335 52.482 36.4691 53.1955 35.9207C53.909 35.3722 54.8892 35.0981 56.1366 35.0981C57.2384 35.0981 58.362 35.353 59.5072 35.8625L58.6265 38.0829C57.6315 37.6267 56.7724 37.3985 56.0493 37.3985C55.6755 37.3985 55.4036 37.4639 55.2339 37.5952C55.0639 37.7262 54.979 37.8887 54.979 38.0829C54.979 38.2916 55.0869 38.4787 55.3028 38.6434C55.5187 38.8085 56.1047 39.1095 57.061 39.5462C57.9783 39.959 58.6152 40.4017 58.972 40.8749C59.3293 41.3475 59.5075 41.9432 59.5075 42.6617Z" fill="#0E53BE"/>
<path d="M61.1523 45.894V35.2507H64.0281V43.5717H68.1268V45.894H61.1523Z" fill="#0E53BE"/>
<path d="M54.1873 58.9214L49.0312 53.7653L51.4948 51.3018L54.1873 53.9941L60.8681 47.313L63.3316 49.7768L54.1873 58.9214Z" fill="#0E53BE"/>
<path d="M50.1598 64.3173C50.1348 64.3173 50.1092 64.3104 50.0864 64.2959C42.2021 59.3054 37.4951 51.2297 37.4951 42.6931V32.7875C37.4951 32.7306 37.53 32.6798 37.583 32.6592L49.2106 28.1785C49.2812 28.1516 49.3608 28.1865 49.388 28.2573C49.4152 28.3279 49.3801 28.4076 49.3092 28.4347L37.7695 32.8817V42.6931C37.7695 51.1349 42.4287 59.1242 50.2331 64.0638C50.2971 64.1042 50.3163 64.1893 50.2757 64.2533C50.2496 64.2948 50.2051 64.3173 50.1598 64.3173Z" fill="#25292B"/>
<path d="M37.2823 39.6822C37.5418 39.7401 37.7547 39.8986 37.8865 40.1084C38.0183 40.3182 38.0724 40.5772 38.0145 40.8367L37.5171 43.0586C37.4009 43.5776 36.8816 43.9069 36.3625 43.7907C36.1044 43.7331 35.8915 43.5746 35.7597 43.3648C35.6265 43.1547 35.5738 42.896 35.6317 42.6364L36.1291 40.4146C36.2453 39.8956 36.7646 39.5663 37.2823 39.6822Z" fill="#F2E9DA"/>
<path d="M39.3768 48.1122C39.4048 48.336 39.3394 48.5516 39.2098 48.7169C39.0802 48.8823 38.8887 48.9998 38.6649 49.0281L36.7482 49.2681C36.3006 49.3242 35.8886 49.0039 35.8326 48.5563C35.8046 48.3335 35.8699 48.1182 35.9998 47.9526C36.1295 47.7859 36.3209 47.6697 36.5447 47.6417L38.4614 47.4017C38.9091 47.3454 39.321 47.6656 39.3768 48.1122Z" fill="#F2E9DA"/>
<path d="M39.466 46.4155C39.499 46.678 39.4218 46.9318 39.2691 47.1268C39.1164 47.3231 38.8906 47.4602 38.627 47.4934L36.3678 47.7766C35.8402 47.8428 35.3547 47.4651 35.2888 46.9389C35.2558 46.675 35.333 46.4226 35.4857 46.2262C35.6384 46.0312 35.8641 45.8942 36.1281 45.861L38.3872 45.5778C38.9145 45.5119 39.3998 45.8879 39.466 46.4155Z" fill="#F2E9DA"/>
<path d="M39.2212 44.4992C39.2541 44.7631 39.1769 45.0155 39.0242 45.2119C38.8716 45.4082 38.6458 45.5453 38.3821 45.5785L36.123 45.8617C35.5954 45.9278 35.1098 45.5502 35.0436 45.0226C35.0107 44.7587 35.0879 44.5063 35.2406 44.3113C35.3933 44.1163 35.619 43.9779 35.8827 43.9447L38.1418 43.6615C38.6697 43.5956 39.1553 43.973 39.2212 44.4992Z" fill="#F2E9DA"/>
<path d="M38.9576 42.5867C38.9906 42.8506 38.8969 43.1052 38.717 43.3035C38.5371 43.5018 38.2746 43.6452 37.9697 43.6833L36.0333 43.9258C35.4238 44.0022 34.8713 43.6331 34.8054 43.1069C34.7724 42.8429 34.866 42.5883 35.0459 42.3887C35.2255 42.189 35.4884 42.047 35.7932 42.0089L37.7297 41.7664C38.3388 41.69 38.8914 42.0588 38.9576 42.5867Z" fill="#F2E9DA"/>
<path d="M35.8843 44.0818C35.8149 44.0818 35.7553 44.0294 35.7478 43.9588C35.7399 43.8835 35.7945 43.8157 35.8701 43.808L38.1342 43.5721C38.2091 43.5639 38.2773 43.6188 38.2849 43.6943C38.2929 43.7696 38.2383 43.8374 38.1627 43.8451L35.8986 44.081C35.8939 44.0816 35.8893 44.0818 35.8843 44.0818Z" fill="#25292B"/>
<path d="M35.7935 42.1465C35.724 42.1465 35.6644 42.0941 35.657 42.0235C35.6491 41.9483 35.7037 41.8804 35.7792 41.8727L37.7198 41.6706C37.7964 41.6618 37.8629 41.7173 37.8706 41.7928C37.8786 41.8681 37.8239 41.9359 37.7484 41.9436L35.8078 42.1457C35.8031 42.1463 35.7985 42.1465 35.7935 42.1465Z" fill="#25292B"/>
<path d="M36.1246 45.9987C36.0551 45.9987 35.9955 45.9462 35.9881 45.8756C35.9801 45.8004 36.0348 45.7326 36.1103 45.7249L38.6894 45.456C38.7663 45.4472 38.8325 45.5027 38.8402 45.5782C38.8482 45.6535 38.7935 45.7213 38.718 45.729L36.1389 45.9979C36.1342 45.9984 36.1292 45.9987 36.1246 45.9987Z" fill="#25292B"/>
<path d="M35.981 47.9067C35.9115 47.9067 35.8519 47.8543 35.8445 47.7837C35.8366 47.7084 35.8912 47.6406 35.9667 47.6329L38.6093 47.3577C38.6856 47.3484 38.7524 47.4044 38.7601 47.4799C38.768 47.5552 38.7134 47.623 38.6379 47.6307L35.9953 47.9059C35.9906 47.9064 35.986 47.9067 35.981 47.9067Z" fill="#25292B"/>
<path d="M59.6609 27.1033C59.6411 27.3683 59.7307 27.6182 59.893 27.8053C60.0553 27.9926 60.2874 28.1194 60.5527 28.1395L62.8231 28.31C63.3534 28.3499 63.8195 27.9486 63.8593 27.4186C63.8791 27.1549 63.7895 26.905 63.6272 26.718C63.4649 26.5293 63.2329 26.4038 62.9676 26.3837L60.6971 26.2135C60.1668 26.1734 59.7005 26.5743 59.6609 27.1033Z" fill="#F2E9DA"/>
<path d="M67.1143 31.5633C67.3203 31.6553 67.5455 31.6553 67.7416 31.5795C67.9376 31.5037 68.1057 31.3548 68.1977 31.1486L68.9851 29.3846C69.1691 28.9726 68.9824 28.4851 68.5704 28.3014C68.3655 28.2099 68.1403 28.2099 67.9442 28.2857C67.7471 28.3613 67.5801 28.5107 67.4881 28.7167L66.7007 30.4807C66.5169 30.8926 66.7034 31.3798 67.1143 31.5633Z" fill="#F2E9DA"/>
<path d="M65.4678 31.1517C65.7095 31.2597 65.9748 31.2597 66.2057 31.1701C66.4381 31.0811 66.635 30.9051 66.7432 30.6623L67.6712 28.5833C67.8879 28.0978 67.6682 27.5232 67.1837 27.3071C66.9409 27.1986 66.6767 27.1991 66.4444 27.2881C66.2134 27.3777 66.0165 27.5537 65.908 27.7965L64.98 29.8755C64.7636 30.3613 64.9822 30.935 65.4678 31.1517Z" fill="#F2E9DA"/>
<path d="M63.7059 30.3645C63.9487 30.473 64.2129 30.4725 64.4452 30.3835C64.6776 30.2945 64.8745 30.1185 64.9827 29.8757L65.9107 27.7967C66.1274 27.3111 65.9077 26.7366 65.4218 26.5199C65.1791 26.4114 64.9149 26.412 64.6839 26.5015C64.4529 26.591 64.2546 26.7665 64.1464 27.0093L63.2184 29.0883C63.0015 29.5741 63.2214 30.1484 63.7059 30.3645Z" fill="#F2E9DA"/>
<path d="M61.9536 29.5541C62.1964 29.6625 62.4674 29.6466 62.7094 29.5324C62.9516 29.4178 63.165 29.2083 63.29 28.9279L64.0853 27.1458C64.3358 26.5847 64.1433 25.9489 63.6588 25.7327C63.416 25.6243 63.145 25.6402 62.9016 25.7539C62.6583 25.8679 62.446 26.078 62.3211 26.3584L61.5257 28.1405C61.2755 28.7016 61.468 29.3374 61.9536 29.5541Z" fill="#F2E9DA"/>
<path d="M63.2604 29.2442C63.2426 29.2442 63.2244 29.2406 63.2071 29.2335C63.1374 29.2041 63.1044 29.1233 63.1338 29.0536L64.0181 26.9562C64.0475 26.8864 64.1283 26.854 64.198 26.8828C64.2678 26.9122 64.3007 26.993 64.2713 27.0627L63.387 29.1601C63.3648 29.2126 63.3137 29.2442 63.2604 29.2442Z" fill="#25292B"/>
<path d="M61.5602 28.2941C61.5424 28.2941 61.5242 28.2905 61.5069 28.2834C61.4372 28.254 61.4042 28.1732 61.4336 28.1035L62.1916 26.3054C62.221 26.2354 62.3017 26.203 62.3715 26.2321C62.4412 26.2615 62.4742 26.3422 62.4448 26.412L61.6868 28.21C61.6646 28.2625 61.6138 28.2941 61.5602 28.2941Z" fill="#25292B"/>
<path d="M64.901 30.3232C64.8832 30.3232 64.8651 30.3197 64.8477 30.3125C64.778 30.2832 64.745 30.2024 64.7744 30.1326L65.7818 27.743C65.8112 27.6733 65.8919 27.6409 65.9617 27.6697C66.0314 27.6991 66.0644 27.7798 66.035 27.8496L65.0276 30.2392C65.0057 30.2917 64.9546 30.3232 64.901 30.3232Z" fill="#25292B"/>
<path d="M66.7438 30.7999C66.726 30.7999 66.7078 30.7963 66.6905 30.7892C66.6208 30.7598 66.5878 30.6791 66.6172 30.6093L67.6493 28.1609C67.6787 28.0909 67.7594 28.0585 67.8292 28.0876C67.8989 28.117 67.9319 28.1977 67.9025 28.2675L66.8704 30.7159C66.8482 30.7683 66.7974 30.7999 66.7438 30.7999Z" fill="#25292B"/>
<path d="M136.508 72.0885V95.5478C136.508 96.651 135.612 97.5493 134.511 97.5493H78.2271C77.1239 97.5493 76.2256 96.651 76.2256 95.5478V72.0885C76.2256 70.9853 77.1239 70.0869 78.2271 70.0869H134.511C135.612 70.0872 136.508 70.9853 136.508 72.0885Z" fill="#F2E9DA"/>
<path d="M136.508 71.9374V73.3526L76.2256 73.3504V71.9355C76.2256 70.9152 77.0536 70.0872 78.0739 70.0872L134.659 70.0894C135.679 70.0891 136.508 70.9174 136.508 71.9374Z" fill="#0E53BE"/>
<path d="M133.415 72.1435H129.815C129.608 72.1435 129.438 71.9735 129.438 71.7658V71.6755C129.438 71.4679 129.608 71.2979 129.815 71.2979H133.415C133.623 71.2979 133.793 71.4679 133.793 71.6755V71.7658C133.793 71.9735 133.623 72.1435 133.415 72.1435Z" fill="#F2E9DA"/>
<path d="M127.643 72.2057H124.043C123.835 72.2057 123.665 72.0357 123.665 71.8281V71.7377C123.665 71.5301 123.835 71.3601 124.043 71.3601H127.643C127.851 71.3601 128.021 71.5301 128.021 71.7377V71.8281C128.021 72.0357 127.851 72.2057 127.643 72.2057Z" fill="#0E53BE"/>
<path d="M121.858 72.2057H118.258C118.05 72.2057 117.88 72.0357 117.88 71.8281V71.7377C117.88 71.5301 118.05 71.3601 118.258 71.3601H121.858C122.065 71.3601 122.235 71.5301 122.235 71.7377V71.8281C122.235 72.0357 122.065 72.2057 121.858 72.2057Z" fill="#25292B"/>
<path d="M94.4257 82.435V94.449C94.4257 94.9208 94.0434 95.3056 93.5715 95.3056H80.2008C79.729 95.3056 79.3467 94.9208 79.3467 94.449V82.435C79.3467 81.9631 79.729 81.5784 80.2008 81.5784H93.5715C94.0436 81.5784 94.4257 81.9631 94.4257 82.435Z" fill="#0E53BE"/>
<path d="M92.5723 81.5674H90.7732V80.0596C90.7732 77.8065 88.9399 75.973 86.6865 75.973C84.4334 75.973 82.5999 77.8062 82.5999 80.0596V81.5674H80.8008V80.0596C80.8008 76.8142 83.4411 74.1738 86.6865 74.1738C89.9319 74.1738 92.5723 76.8142 92.5723 80.0596V81.5674Z" fill="#25292B"/>
<path d="M89.5706 90.8557C89.4377 91.0276 89.2402 91.1251 89.0274 91.1251H85.7564C85.5436 91.1251 85.3461 91.0279 85.2132 90.8557C85.0803 90.686 85.0336 90.4666 85.0847 90.2537L85.69 87.6806C85.2486 87.1896 85.0402 86.5513 85.1001 85.8815C85.1954 84.7953 86.036 83.9082 87.098 83.7723C87.7588 83.6907 88.4221 83.8989 88.9164 84.3449C89.4089 84.7906 89.6926 85.4311 89.6926 86.1031C89.6926 86.687 89.4819 87.2459 89.0938 87.6804L89.6991 90.2534C89.7505 90.4663 89.7016 90.686 89.5706 90.8557Z" fill="#25292B"/>
<path d="M80.9377 82.2527H80.6631V94.7677H80.9377V82.2527Z" fill="#25292B"/>
<path d="M94.711 95.3056C96.9455 95.3056 98.757 93.4941 98.757 91.2596C98.757 89.0251 96.9455 87.2136 94.711 87.2136C92.4765 87.2136 90.665 89.0251 90.665 91.2596C90.665 93.4941 92.4765 95.3056 94.711 95.3056Z" fill="#25292B"/>
<path d="M93.94 93.3558L91.8818 91.2977L92.8653 90.3145L93.94 91.3891L96.6064 88.7224L97.5899 89.7056L93.94 93.3558Z" fill="#F2E9DA"/>
<path d="M133.241 88.3765C133.241 88.5328 133.167 88.6751 133.045 88.7789C132.923 88.8816 132.756 88.9459 132.572 88.9459H100.809C100.44 88.9459 100.138 88.6894 100.138 88.3765C100.138 88.2203 100.214 88.078 100.335 87.9756C100.457 87.8729 100.625 87.8086 100.809 87.8086H132.572C132.94 87.8083 133.241 88.0637 133.241 88.3765Z" fill="#0E53BE"/>
<path d="M100.133 85.1291C100.133 84.9729 100.209 84.8306 100.33 84.7268C100.451 84.6241 100.618 84.5598 100.803 84.5598H132.561C132.93 84.5598 133.231 84.8163 133.231 85.1291C133.231 85.2854 133.155 85.4277 133.034 85.5301C132.913 85.6339 132.746 85.6971 132.561 85.6971H100.803C100.434 85.6974 100.133 85.4417 100.133 85.1291Z" fill="#0E53BE"/>
<path d="M122.643 91.5579C122.643 91.7142 122.61 91.8565 122.557 91.9603C122.503 92.063 122.429 92.1273 122.348 92.1273H100.428C100.266 92.1273 100.133 91.8708 100.133 91.5579C100.133 91.4017 100.166 91.2594 100.219 91.157C100.273 91.0532 100.347 90.99 100.428 90.99H122.348C122.51 90.9897 122.643 91.2451 122.643 91.5579Z" fill="#0E53BE"/>
<path d="M133.243 82.1756C133.243 82.3319 133.168 82.4742 133.046 82.578C132.925 82.6807 132.758 82.7449 132.573 82.7449H100.811C100.442 82.7449 100.14 82.4884 100.14 82.1756C100.14 82.0193 100.216 81.8771 100.337 81.7746C100.459 81.6719 100.627 81.6077 100.811 81.6077H132.574C132.942 81.6074 133.243 81.8631 133.243 82.1756Z" fill="#0E53BE"/>
<path d="M100.135 78.9277C100.135 78.7715 100.211 78.6292 100.332 78.5254C100.453 78.4227 100.62 78.3584 100.805 78.3584H132.563C132.932 78.3584 133.233 78.6149 133.233 78.9277C133.233 79.084 133.157 79.2263 133.036 79.3287C132.915 79.4325 132.747 79.4957 132.563 79.4957H100.805C100.436 79.4959 100.135 79.2405 100.135 78.9277Z" fill="#0E53BE"/>
<path d="M136.508 51.316V65.9322C136.508 67.0355 135.612 67.9338 134.511 67.9338H78.2271C77.1239 67.9338 76.2256 67.0355 76.2256 65.9322V51.316C76.2256 50.2128 77.1239 49.3145 78.2271 49.3145H134.511C135.612 49.3145 136.508 50.2128 136.508 51.316Z" fill="#F2E9DA"/>
<path d="M136.508 51.165V52.5802L76.2256 52.578V51.1628C76.2256 50.1425 77.0536 49.3145 78.0739 49.3145L134.659 49.3166C135.679 49.3166 136.508 50.145 136.508 51.165Z" fill="#0E53BE"/>
<path d="M133.415 51.371H129.815C129.608 51.371 129.438 51.201 129.438 50.9934V50.903C129.438 50.6954 129.608 50.5254 129.815 50.5254H133.415C133.623 50.5254 133.793 50.6954 133.793 50.903V50.9934C133.793 51.201 133.623 51.371 133.415 51.371Z" fill="#F2E9DA"/>
<path d="M127.643 51.4335H124.043C123.835 51.4335 123.665 51.2635 123.665 51.0559V50.9655C123.665 50.7579 123.835 50.5879 124.043 50.5879H127.643C127.851 50.5879 128.021 50.7579 128.021 50.9655V51.0559C128.021 51.2635 127.851 51.4335 127.643 51.4335Z" fill="#0E53BE"/>
<path d="M121.858 51.434H118.258C118.05 51.434 117.88 51.264 117.88 51.0564V50.966C117.88 50.7584 118.05 50.5884 118.258 50.5884H121.858C122.065 50.5884 122.235 50.7584 122.235 50.966V51.0564C122.235 51.264 122.065 51.434 121.858 51.434Z" fill="#25292B"/>
<path d="M83.3223 65.4437C86.4904 65.4437 89.0587 62.8754 89.0587 59.7073C89.0587 56.5392 86.4904 53.9709 83.3223 53.9709C80.1542 53.9709 77.5859 56.5392 77.5859 59.7073C77.5859 62.8754 80.1542 65.4437 83.3223 65.4437Z" fill="#25292B"/>
<path d="M82.2305 62.679L79.3125 59.7609L80.7068 58.3669L82.2305 59.8906L86.0112 56.1096L87.4055 57.5037L82.2305 62.679Z" fill="#F2E9DA"/>
<path d="M133.769 59.9534C133.769 60.1097 133.695 60.252 133.572 60.3558C133.451 60.4585 133.284 60.523 133.099 60.523H91.6898C91.3209 60.523 91.0186 60.2665 91.0186 59.9537C91.0186 59.7975 91.0946 59.6552 91.2155 59.5528C91.338 59.45 91.5055 59.3855 91.6898 59.3855H133.099C133.468 59.3855 133.769 59.6409 133.769 59.9534Z" fill="#0E53BE"/>
<path d="M91.0146 56.7051C91.0146 56.5488 91.0907 56.4065 91.2116 56.3027C91.3327 56.2 91.4999 56.1357 91.6845 56.1357H133.09C133.459 56.1357 133.76 56.3923 133.76 56.7051C133.76 56.8613 133.683 57.0036 133.563 57.106C133.442 57.2099 133.274 57.273 133.09 57.273H91.6848C91.3159 57.2733 91.0146 57.0179 91.0146 56.7051Z" fill="#0E53BE"/>
<path d="M123.172 63.1348C123.172 63.2911 123.139 63.4334 123.086 63.5372C123.032 63.6399 122.958 63.7042 122.877 63.7042H91.3099C91.1478 63.7042 91.0146 63.4477 91.0146 63.1348C91.0146 62.9786 91.0482 62.8363 91.1012 62.7339C91.155 62.6301 91.2286 62.5669 91.3096 62.5669H122.877C123.039 62.5669 123.172 62.8223 123.172 63.1348Z" fill="#0E53BE"/>
<path d="M136.631 43.0232V44.333C136.631 45.5219 135.659 46.4947 134.47 46.4947H77.9839C76.795 46.4947 75.8223 45.5219 75.8223 44.333V43.0232C75.8223 41.8343 76.795 40.8616 77.9839 40.8616H134.47C135.659 40.8616 136.631 41.8343 136.631 43.0232Z" fill="#F2E9DA"/>
<path d="M89.7665 45.1547H89.2538V43.6772C89.2538 43.4918 89.2164 43.3534 89.142 43.2622C89.0673 43.171 88.9489 43.1254 88.7869 43.1254C88.5724 43.1254 88.4147 43.1894 88.3142 43.3177C88.2137 43.4459 88.1632 43.6607 88.1632 43.962V45.155H87.6523V41.7739H88.1632V42.6322C88.1632 42.7698 88.1544 42.9167 88.1371 43.0732H88.1695C88.239 42.9573 88.3356 42.8675 88.4595 42.8038C88.5834 42.7401 88.7278 42.7082 88.8929 42.7082C89.4751 42.7082 89.7662 43.0016 89.7662 43.5882L89.7665 45.1547Z" fill="#25292B"/>
<path d="M91.373 44.7852C91.4977 44.7852 91.6221 44.7657 91.7468 44.7264V45.1112C91.6902 45.1359 91.6174 45.1565 91.5282 45.173C91.4392 45.1898 91.3469 45.198 91.2511 45.198C90.7671 45.198 90.5255 44.9431 90.5255 44.4331V43.1382H90.1973V42.9122L90.5494 42.7252L90.7232 42.2168H91.0382V42.7512H91.7226V43.1379H91.0382V44.4243C91.0382 44.5474 91.069 44.6383 91.1305 44.6971C91.192 44.7558 91.273 44.7852 91.373 44.7852Z" fill="#25292B"/>
<path d="M93.122 44.785C93.2467 44.785 93.3711 44.7655 93.4958 44.7262V45.111C93.4392 45.1357 93.3664 45.1563 93.2772 45.1728C93.1882 45.1895 93.0959 45.1977 93.0001 45.1977C92.5162 45.1977 92.2745 44.9429 92.2745 44.4329V43.138H91.9463V42.9119L92.2984 42.7249L92.4722 42.2166H92.7872V42.751H93.4716V43.1377H92.7872V44.4241C92.7872 44.5471 92.818 44.638 92.8795 44.6968C92.9413 44.7556 93.022 44.785 93.122 44.785Z" fill="#25292B"/>
<path d="M95.1957 45.1977C94.8914 45.1977 94.6555 45.0884 94.4874 44.8695H94.4569C94.4772 45.0724 94.4874 45.1955 94.4874 45.2389V46.2232H93.9766V42.7509H94.3893C94.4009 42.796 94.4248 42.9031 94.461 43.0725H94.4871C94.6464 42.8292 94.8853 42.7075 95.2042 42.7075C95.5041 42.7075 95.7375 42.8163 95.9048 43.0335C96.072 43.2508 96.1558 43.5559 96.1558 43.9483C96.1558 44.3408 96.0707 44.6473 95.9007 44.8675C95.7307 45.0878 95.4956 45.1977 95.1957 45.1977ZM95.0718 43.1247C94.8689 43.1247 94.7211 43.184 94.6275 43.3029C94.5341 43.4216 94.4874 43.6114 94.4874 43.8723V43.9483C94.4874 44.2408 94.5335 44.4528 94.6264 44.5838C94.7192 44.7151 94.8705 44.7805 95.0806 44.7805C95.2572 44.7805 95.3934 44.708 95.489 44.5632C95.5846 44.4185 95.6324 44.212 95.6324 43.9439C95.6324 43.6745 95.5848 43.4707 95.4901 43.3323C95.3953 43.1942 95.2558 43.1247 95.0718 43.1247Z" fill="#25292B"/>
<path d="M98.3641 44.4701C98.3641 44.7047 98.2787 44.8848 98.1079 45.0101C97.9368 45.1353 97.6921 45.1979 97.3735 45.1979C97.0533 45.1979 96.7962 45.1493 96.602 45.0523V44.6113C96.8847 44.7417 97.1475 44.8068 97.3908 44.8068C97.7053 44.8068 97.8624 44.7121 97.8624 44.5223C97.8624 44.4616 97.8451 44.4108 97.8102 44.3701C97.7753 44.3295 97.7182 44.2875 97.6385 44.2441C97.5589 44.2007 97.4479 44.1513 97.3059 44.0963C97.0291 43.9892 96.8421 43.8818 96.7443 43.7747C96.6465 43.6676 96.5977 43.5287 96.5977 43.3576C96.5977 43.1519 96.6806 42.9923 96.8465 42.8783C97.0124 42.7646 97.2378 42.7078 97.5232 42.7078C97.8058 42.7078 98.073 42.7649 98.3251 42.8794L98.1598 43.2642C97.9005 43.1571 97.6825 43.1035 97.5059 43.1035C97.2365 43.1035 97.1016 43.1804 97.1016 43.3337C97.1016 43.4089 97.1368 43.4726 97.2071 43.5248C97.2774 43.577 97.4306 43.6487 97.6668 43.7399C97.8654 43.8167 98.0093 43.8871 98.0991 43.9505C98.1889 44.0142 98.2554 44.0878 98.299 44.171C98.3427 44.2545 98.3641 44.3542 98.3641 44.4701Z" fill="#25292B"/>
<path d="M98.8398 43.0272C98.8398 42.8086 98.9469 42.699 99.1614 42.699C99.2699 42.699 99.3512 42.7281 99.4048 42.7858C99.4583 42.8437 99.4852 42.9242 99.4852 43.0269C99.4852 43.1299 99.4575 43.2112 99.4017 43.2713C99.346 43.3315 99.2658 43.3617 99.1617 43.3617C99.0576 43.3617 98.9777 43.332 98.9225 43.2727C98.8673 43.2134 98.8398 43.1315 98.8398 43.0272ZM98.8398 44.8829C98.8398 44.7772 98.8673 44.6961 98.9222 44.6396C98.9774 44.583 99.0571 44.555 99.1614 44.555C99.2672 44.555 99.3476 44.5844 99.4026 44.6429C99.4578 44.7016 99.485 44.7816 99.485 44.8829C99.485 44.9859 99.4572 45.0672 99.4015 45.1273C99.3457 45.1875 99.2655 45.2174 99.1614 45.2174C99.0574 45.2174 98.9774 45.1877 98.9222 45.1284C98.8673 45.0691 98.8398 44.9873 98.8398 44.8829Z" fill="#25292B"/>
<path d="M101.473 41.978L100.291 45.155H99.8086L100.993 41.978H101.473Z" fill="#25292B"/>
<path d="M103.208 41.978L102.026 45.155H101.544L102.728 41.978H103.208Z" fill="#25292B"/>
<path d="M86.3382 43.0017V44.3545C86.3382 45.2499 85.6068 45.9812 84.7115 45.9812H78.0642C77.1689 45.9812 76.4375 45.2499 76.4375 44.3545V43.0017C76.4375 42.1064 77.1689 41.375 78.0642 41.375H84.7115C85.6068 41.375 86.3382 42.1064 86.3382 43.0017Z" fill="#0E53BE"/>
<path d="M91.2707 29.5734C91.2262 29.5734 91.1853 29.5495 91.163 29.5113L89.9903 27.4812C89.9681 27.4428 89.9681 27.3953 89.9903 27.3568L91.163 25.327C91.185 25.2885 91.2262 25.2649 91.2707 25.2649C91.3152 25.2649 91.3561 25.2885 91.3783 25.3267L92.5538 27.3565C92.576 27.3953 92.576 27.4428 92.5538 27.4812L91.3783 29.5113C91.3561 29.5498 91.3152 29.5734 91.2707 29.5734ZM90.2413 27.4189L91.271 29.2007L92.3025 27.4189L91.271 25.6373L90.2413 27.4189Z" fill="#25292B"/>
<path d="M88.0101 27.1416C87.6195 27.1416 87.3018 26.8239 87.3018 26.4334C87.3018 26.0428 87.6195 25.7253 88.0101 25.7253C88.4006 25.7253 88.7181 26.0428 88.7181 26.4334C88.7181 26.8239 88.4003 27.1416 88.0101 27.1416ZM88.0101 25.9739C87.7566 25.9739 87.5503 26.1801 87.5503 26.4334C87.5503 26.6868 87.7566 26.8931 88.0101 26.8931C88.2633 26.8931 88.4695 26.6868 88.4695 26.4334C88.4692 26.1801 88.2633 25.9739 88.0101 25.9739Z" fill="#25292B"/>
<path d="M90.0953 24.537C89.7542 24.537 89.4766 24.2594 89.4766 23.9183C89.4766 23.5775 89.7542 23.2998 90.0953 23.2998C90.4364 23.2998 90.7141 23.5775 90.7141 23.9183C90.7141 24.2597 90.4364 24.537 90.0953 24.537ZM90.0953 23.5486C89.8913 23.5486 89.7254 23.7145 89.7254 23.9186C89.7254 24.1226 89.8915 24.2885 90.0953 24.2885C90.2991 24.2885 90.4653 24.1223 90.4653 23.9186C90.4653 23.7148 90.2991 23.5486 90.0953 23.5486Z" fill="#25292B"/>
<path d="M87.4256 24.8217C87.1732 24.8217 86.9678 24.6162 86.9678 24.3639C86.9678 24.1115 87.1732 23.9058 87.4256 23.9058C87.678 23.9058 87.8834 24.1115 87.8834 24.3639C87.8837 24.6162 87.6783 24.8217 87.4256 24.8217ZM87.4256 24.1543C87.3102 24.1543 87.2163 24.2482 87.2163 24.3639C87.2163 24.4792 87.3102 24.5731 87.4256 24.5731C87.5409 24.5731 87.6349 24.4792 87.6349 24.3639C87.6349 24.2482 87.5409 24.1543 87.4256 24.1543Z" fill="#25292B"/>
<path d="M70.9562 85.5052C70.9117 85.5052 70.8707 85.4815 70.8485 85.4431L69.9513 83.8897C69.929 83.8513 69.929 83.8038 69.9513 83.7653L70.8485 82.212C70.8705 82.1735 70.9117 82.1499 70.9562 82.1499C71.0006 82.1499 71.0416 82.1735 71.0638 82.212L71.9632 83.7653C71.9855 83.8038 71.9855 83.8513 71.9632 83.89L71.0638 85.4434C71.0416 85.4815 71.0006 85.5052 70.9562 85.5052ZM70.2025 83.8277L70.9564 85.1327L71.7117 83.8277L70.9564 82.5226L70.2025 83.8277Z" fill="#25292B"/>
<path d="M68.8323 83.1741C68.4418 83.1741 68.124 82.8564 68.124 82.4659C68.124 82.0753 68.4418 81.7576 68.8323 81.7576C69.2229 81.7576 69.5403 82.0753 69.5403 82.4659C69.5406 82.8564 69.2229 83.1741 68.8323 83.1741ZM68.8323 82.0064C68.5788 82.0064 68.3726 82.2126 68.3726 82.4661C68.3726 82.7196 68.5788 82.9256 68.8323 82.9256C69.0855 82.9256 69.2918 82.7194 69.2918 82.4661C69.2918 82.2124 69.0858 82.0064 68.8323 82.0064Z" fill="#25292B"/>
<path d="M70.9205 81.4223C70.5794 81.4223 70.3018 81.1446 70.3018 80.8035C70.3018 80.4624 70.5794 80.1851 70.9205 80.1851C71.2616 80.1851 71.5393 80.4627 71.5393 80.8035C71.539 81.1446 71.2616 81.4223 70.9205 81.4223ZM70.9205 80.4336C70.7165 80.4336 70.5506 80.5995 70.5506 80.8035C70.5506 81.0076 70.7167 81.1735 70.9205 81.1735C71.1243 81.1735 71.2905 81.0076 71.2905 80.8035C71.2905 80.5995 71.1243 80.4336 70.9205 80.4336Z" fill="#25292B"/>
<path d="M68.8338 80.7672C68.5814 80.7672 68.376 80.5618 68.376 80.3094C68.376 80.057 68.5814 79.8513 68.8338 79.8513C69.0862 79.8513 69.2916 80.0567 69.2916 80.3094C69.2916 80.5621 69.0865 80.7672 68.8338 80.7672ZM68.8338 80.0999C68.7185 80.0999 68.6245 80.1938 68.6245 80.3094C68.6245 80.425 68.7185 80.5187 68.8338 80.5187C68.9491 80.5187 69.0431 80.4248 69.0431 80.3094C69.0431 80.1941 68.9491 80.0999 68.8338 80.0999Z" fill="#25292B"/>
<path d="M28.7072 70.2995C28.6627 70.2995 28.6218 70.2756 28.5995 70.2374L27.4268 68.2073C27.4046 68.1688 27.4046 68.1213 27.4268 68.0829L28.5995 66.053C28.6218 66.0146 28.6627 65.991 28.7072 65.991C28.7514 65.991 28.7926 66.0146 28.8149 66.0528L29.9903 68.0826C30.0126 68.1213 30.0126 68.1688 29.9903 68.2073L28.8149 70.2374C28.7926 70.2761 28.7517 70.2995 28.7072 70.2995ZM27.6781 68.1452L28.7075 69.9271L29.739 68.1452L28.7075 66.3636L27.6781 68.1452Z" fill="#25292B"/>
<path d="M33.5823 69.0013C33.1918 69.0013 32.874 68.6838 32.874 68.2933C32.874 67.9027 33.1918 67.585 33.5823 67.585C33.9728 67.585 34.2906 67.9027 34.2906 68.2933C34.2906 68.6838 33.9728 69.0013 33.5823 69.0013ZM33.5823 67.8338C33.3288 67.8338 33.1226 68.04 33.1226 68.2935C33.1226 68.5467 33.3288 68.753 33.5823 68.753C33.8358 68.753 34.0418 68.5467 34.0418 68.2935C34.0418 68.0398 33.8358 67.8338 33.5823 67.8338Z" fill="#25292B"/>
<path d="M27.5999 65.2629C27.2588 65.2629 26.9814 64.9852 26.9814 64.6444C26.9814 64.3033 27.2591 64.0256 27.5999 64.0256C27.941 64.0256 28.2187 64.3033 28.2187 64.6444C28.2187 64.9852 27.941 65.2629 27.5999 65.2629ZM27.5999 64.2742C27.3959 64.2742 27.23 64.4403 27.23 64.6441C27.23 64.8482 27.3959 65.0138 27.5999 65.0138C27.804 65.0138 27.9699 64.8479 27.9699 64.6441C27.9699 64.4403 27.804 64.2742 27.5999 64.2742Z" fill="#25292B"/>
<path d="M31.1258 67.5953C30.8734 67.5953 30.668 67.3899 30.668 67.1375C30.668 66.8851 30.8734 66.6797 31.1258 66.6797C31.3782 66.6797 31.5839 66.8851 31.5839 67.1375C31.5839 67.3899 31.3782 67.5953 31.1258 67.5953ZM31.1258 66.9282C31.0104 66.9282 30.9165 67.0222 30.9165 67.1375C30.9165 67.2529 31.0104 67.3468 31.1258 67.3468C31.2411 67.3468 31.3353 67.2529 31.3353 67.1375C31.3353 67.0222 31.2411 66.9282 31.1258 66.9282Z" fill="#25292B"/>
<path d="M31.2721 65.2624C31.2276 65.2624 31.1866 65.2385 31.1644 65.2003L30.4278 63.9255C30.4056 63.887 30.4056 63.8395 30.4278 63.801L31.1644 62.5262C31.1866 62.4877 31.2276 62.4641 31.2721 62.4641C31.3163 62.4641 31.3575 62.4877 31.3797 62.5259L32.1179 63.8008C32.1402 63.8395 32.1402 63.887 32.1179 63.9255L31.3797 65.2003C31.3575 65.2388 31.3163 65.2624 31.2721 65.2624ZM30.6791 63.8631L31.2721 64.8894L31.8664 63.8631L31.2721 62.8365L30.6791 63.8631Z" fill="#25292B"/>
<path d="M24.8924 70.0367C24.64 70.0367 24.4346 69.8313 24.4346 69.5789C24.4346 69.3265 24.64 69.1211 24.8924 69.1211C25.1448 69.1211 25.3505 69.3265 25.3505 69.5789C25.3505 69.8313 25.1448 70.0367 24.8924 70.0367ZM24.8924 69.3696C24.777 69.3696 24.6831 69.4636 24.6831 69.5789C24.6831 69.6943 24.777 69.7882 24.8924 69.7882C25.0077 69.7882 25.1019 69.6943 25.1019 69.5789C25.1017 69.4636 25.0077 69.3696 24.8924 69.3696Z" fill="#25292B"/>
<path d="M107.342 30.5856C107.266 30.5856 107.204 30.5241 107.204 30.4483V29.9649C107.204 29.8891 107.266 29.8276 107.342 29.8276C107.417 29.8276 107.479 29.8891 107.479 29.9649V30.4483C107.479 30.5241 107.417 30.5856 107.342 30.5856ZM107.342 28.2647C107.266 28.2647 107.204 28.2031 107.204 28.1273V26.2895C107.204 26.2137 107.266 26.1522 107.342 26.1522C107.417 26.1522 107.479 26.2137 107.479 26.2895V28.1273C107.479 28.2031 107.417 28.2647 107.342 28.2647ZM62.8014 24.5985C62.7256 24.5985 62.6641 24.537 62.6641 24.4612C62.6641 23.821 62.7934 23.2017 63.048 22.6203C63.0785 22.5508 63.159 22.5195 63.229 22.5497C63.2985 22.5802 63.3301 22.6612 63.2996 22.7307C63.0601 23.2772 62.9387 23.8595 62.9387 24.4615C62.9387 24.537 62.8772 24.5985 62.8014 24.5985ZM107.342 24.5892C107.266 24.5892 107.205 24.5279 107.205 24.4521C107.203 23.8501 107.081 23.2682 106.84 22.7225C106.809 22.6533 106.841 22.572 106.91 22.5415C106.98 22.5107 107.061 22.542 107.091 22.6118C107.347 23.1924 107.478 23.8117 107.479 24.4519C107.479 24.5271 107.418 24.5889 107.342 24.5892ZM64.2328 21.327C64.196 21.327 64.1589 21.3122 64.132 21.2828C64.0804 21.2271 64.0839 21.1403 64.1397 21.0887C64.609 20.655 65.1517 20.3296 65.7526 20.1217C65.8243 20.0967 65.9026 20.1348 65.9273 20.2065C65.952 20.2782 65.9141 20.3565 65.8424 20.3812C65.2775 20.5767 64.7672 20.8827 64.3262 21.2905C64.2998 21.315 64.2663 21.327 64.2328 21.327ZM105.903 21.321C105.87 21.321 105.837 21.3092 105.81 21.2847C105.368 20.878 104.857 20.5729 104.292 20.3784C104.22 20.3537 104.182 20.2757 104.207 20.204C104.232 20.1324 104.31 20.0939 104.381 20.1189C104.983 20.3257 105.526 20.6501 105.996 21.0829C106.052 21.1342 106.056 21.221 106.004 21.2771C105.977 21.3062 105.94 21.321 105.903 21.321ZM102.526 20.145H100.688C100.612 20.145 100.551 20.0835 100.551 20.0077C100.551 19.9319 100.612 19.8704 100.688 19.8704H102.526C102.602 19.8704 102.663 19.9319 102.663 20.0077C102.663 20.0835 102.602 20.145 102.526 20.145ZM98.8501 20.145H97.0125C96.9367 20.145 96.8752 20.0835 96.8752 20.0077C96.8752 19.9319 96.9367 19.8704 97.0125 19.8704H98.8501C98.9259 19.8704 98.9874 19.9319 98.9874 20.0077C98.9874 20.0835 98.9259 20.145 98.8501 20.145ZM95.1746 20.145H93.3367C93.2609 20.145 93.1994 20.0835 93.1994 20.0077C93.1994 19.9319 93.2609 19.8704 93.3367 19.8704H95.1746C95.2504 19.8704 95.3119 19.9319 95.3119 20.0077C95.3119 20.0835 95.2504 20.145 95.1746 20.145ZM91.4988 20.145H89.6612C89.5854 20.145 89.5239 20.0835 89.5239 20.0077C89.5239 19.9319 89.5854 19.8704 89.6612 19.8704H91.4988C91.5746 19.8704 91.6362 19.9319 91.6362 20.0077C91.6362 20.0835 91.5749 20.145 91.4988 20.145ZM87.8234 20.145H85.9855C85.9097 20.145 85.8482 20.0835 85.8482 20.0077C85.8482 19.9319 85.9097 19.8704 85.9855 19.8704H87.8234C87.8992 19.8704 87.9607 19.9319 87.9607 20.0077C87.9607 20.0835 87.8994 20.145 87.8234 20.145ZM84.1479 20.145H82.31C82.2342 20.145 82.1727 20.0835 82.1727 20.0077C82.1727 19.9319 82.2342 19.8704 82.31 19.8704H84.1476C84.2234 19.8704 84.2849 19.9319 84.2849 20.0077C84.2849 20.0835 84.2237 20.145 84.1479 20.145ZM80.4724 20.145H78.6345C78.5587 20.145 78.4972 20.0835 78.4972 20.0077C78.4972 19.9319 78.5587 19.8704 78.6345 19.8704H80.4724C80.5482 19.8704 80.6097 19.9319 80.6097 20.0077C80.6097 20.0835 80.5482 20.145 80.4724 20.145ZM76.7967 20.145H74.9591C74.8833 20.145 74.8217 20.0835 74.8217 20.0077C74.8217 19.9319 74.8833 19.8704 74.9591 19.8704H76.7967C76.8725 19.8704 76.934 19.9319 76.934 20.0077C76.934 20.0835 76.8725 20.145 76.7967 20.145ZM73.1212 20.145H71.2836C71.2078 20.145 71.1463 20.0835 71.1463 20.0077C71.1463 19.9319 71.2078 19.8704 71.2836 19.8704H73.1212C73.197 19.8704 73.2585 19.9319 73.2585 20.0077C73.2585 20.0835 73.197 20.145 73.1212 20.145ZM69.4454 20.145H67.6078C67.532 20.145 67.4705 20.0835 67.4705 20.0077C67.4705 19.9319 67.532 19.8704 67.6078 19.8704H69.4454C69.5212 19.8704 69.5827 19.9319 69.5827 20.0077C69.5827 20.0835 69.5215 20.145 69.4454 20.145Z" fill="#25292B"/>
<path d="M134.852 100.448H133.917C133.841 100.448 133.78 100.386 133.78 100.31C133.78 100.235 133.841 100.173 133.917 100.173H134.852C135.14 100.173 135.422 100.125 135.692 100.031C135.764 100.005 135.843 100.044 135.867 100.115C135.893 100.187 135.855 100.265 135.783 100.29C135.484 100.395 135.171 100.448 134.852 100.448ZM132.079 100.448H130.241C130.166 100.448 130.104 100.386 130.104 100.31C130.104 100.235 130.166 100.173 130.241 100.173H132.079C132.155 100.173 132.216 100.235 132.216 100.31C132.216 100.386 132.155 100.448 132.079 100.448ZM128.403 100.448H126.566C126.49 100.448 126.428 100.386 126.428 100.31C126.428 100.235 126.49 100.173 126.566 100.173H128.403C128.479 100.173 128.541 100.235 128.541 100.31C128.541 100.386 128.479 100.448 128.403 100.448ZM124.728 100.448H122.89C122.814 100.448 122.753 100.386 122.753 100.31C122.753 100.235 122.814 100.173 122.89 100.173H124.728C124.804 100.173 124.865 100.235 124.865 100.31C124.865 100.386 124.804 100.448 124.728 100.448ZM121.052 100.448H119.215C119.139 100.448 119.077 100.386 119.077 100.31C119.077 100.235 119.139 100.173 119.215 100.173H121.052C121.128 100.173 121.19 100.235 121.19 100.31C121.19 100.386 121.128 100.448 121.052 100.448ZM117.377 100.448H115.539C115.463 100.448 115.402 100.386 115.402 100.31C115.402 100.235 115.463 100.173 115.539 100.173H117.377C117.453 100.173 117.514 100.235 117.514 100.31C117.514 100.386 117.453 100.448 117.377 100.448ZM113.701 100.448H111.863C111.788 100.448 111.726 100.386 111.726 100.31C111.726 100.235 111.788 100.173 111.863 100.173H113.701C113.777 100.173 113.838 100.235 113.838 100.31C113.838 100.386 113.777 100.448 113.701 100.448ZM110.026 100.448H108.188C108.112 100.448 108.051 100.386 108.051 100.31C108.051 100.235 108.112 100.173 108.188 100.173H110.026C110.101 100.173 110.163 100.235 110.163 100.31C110.163 100.386 110.102 100.448 110.026 100.448ZM106.35 100.448H104.512C104.436 100.448 104.375 100.386 104.375 100.31C104.375 100.235 104.436 100.173 104.512 100.173H106.35C106.426 100.173 106.487 100.235 106.487 100.31C106.487 100.386 106.426 100.448 106.35 100.448ZM102.675 100.448H100.837C100.761 100.448 100.7 100.386 100.7 100.31C100.7 100.235 100.761 100.173 100.837 100.173H102.675C102.75 100.173 102.812 100.235 102.812 100.31C102.812 100.386 102.75 100.448 102.675 100.448ZM98.9988 100.448H97.1612C97.0854 100.448 97.0239 100.386 97.0239 100.31C97.0239 100.235 97.0854 100.173 97.1612 100.173H98.9988C99.0746 100.173 99.1361 100.235 99.1361 100.31C99.1361 100.386 99.0746 100.448 98.9988 100.448ZM95.3233 100.448H93.4857C93.4099 100.448 93.3484 100.386 93.3484 100.31C93.3484 100.235 93.4099 100.173 93.4857 100.173H95.3233C95.3992 100.173 95.4607 100.235 95.4607 100.31C95.4607 100.386 95.3992 100.448 95.3233 100.448ZM91.6476 100.448H89.81C89.7342 100.448 89.6727 100.386 89.6727 100.31C89.6727 100.235 89.7342 100.173 89.81 100.173H91.6476C91.7234 100.173 91.7849 100.235 91.7849 100.31C91.7849 100.386 91.7237 100.448 91.6476 100.448ZM87.9721 100.448H86.1345C86.0587 100.448 85.9972 100.386 85.9972 100.31C85.9972 100.235 86.0587 100.173 86.1345 100.173H87.9721C88.0479 100.173 88.1094 100.235 88.1094 100.31C88.1094 100.386 88.0482 100.448 87.9721 100.448ZM84.2966 100.448H82.459C82.3832 100.448 82.3217 100.386 82.3217 100.31C82.3217 100.235 82.3832 100.173 82.459 100.173H84.2966C84.3724 100.173 84.434 100.235 84.434 100.31C84.434 100.386 84.3724 100.448 84.2966 100.448ZM80.6212 100.448H78.7833C78.7075 100.448 78.646 100.386 78.646 100.31C78.646 100.235 78.7075 100.173 78.7833 100.173H80.6212C80.697 100.173 80.7585 100.235 80.7585 100.31C80.7585 100.386 80.697 100.448 80.6212 100.448ZM76.9457 100.448H75.8444C75.5851 100.448 75.3281 100.412 75.0798 100.343C75.0067 100.322 74.9642 100.246 74.9848 100.174C75.0054 100.1 75.0814 100.058 75.1542 100.078C75.378 100.141 75.6104 100.173 75.8444 100.173H76.9457C77.0215 100.173 77.083 100.235 77.083 100.31C77.083 100.386 77.0215 100.448 76.9457 100.448ZM73.6478 99.3049C73.6047 99.3049 73.5619 99.2845 73.5352 99.2464C73.2276 98.8083 73.0535 98.2991 73.028 97.7652H72.9648C72.889 97.7652 72.8275 97.7037 72.8275 97.6279C72.8275 97.5521 72.889 97.4906 72.9648 97.4906H73.1623C73.2381 97.4906 73.2996 97.5521 73.2996 97.6279C73.2996 98.1544 73.4589 98.6597 73.7602 99.0885C73.8038 99.1505 73.7887 99.2359 73.7267 99.2796C73.7028 99.2966 73.675 99.3049 73.6478 99.3049ZM137.14 99.1662C137.115 99.1662 137.09 99.1599 137.068 99.1459C137.003 99.106 136.983 99.0217 137.023 98.9569C137.267 98.5581 137.397 98.0987 137.397 97.6279V97.2646C137.397 97.1888 137.458 97.1273 137.534 97.1273C137.61 97.1273 137.671 97.1888 137.671 97.2646V97.6279C137.671 98.1492 137.528 98.6584 137.256 99.1005C137.231 99.1428 137.186 99.1662 137.14 99.1662ZM71.1269 97.7652H69.2893C69.2135 97.7652 69.152 97.7037 69.152 97.6279C69.152 97.5521 69.2135 97.4906 69.2893 97.4906H71.1269C71.2027 97.4906 71.2642 97.5521 71.2642 97.6279C71.2642 97.7037 71.2027 97.7652 71.1269 97.7652ZM67.4515 97.7652H65.6139C65.5381 97.7652 65.4765 97.7037 65.4765 97.6279C65.4765 97.5521 65.5381 97.4906 65.6139 97.4906H67.4515C67.5273 97.4906 67.5888 97.5521 67.5888 97.6279C67.5888 97.7037 67.5273 97.7652 67.4515 97.7652ZM63.7757 97.7652H61.9381C61.8623 97.7652 61.8008 97.7037 61.8008 97.6279C61.8008 97.5521 61.8623 97.4906 61.9381 97.4906H63.7757C63.8515 97.4906 63.913 97.5521 63.913 97.6279C63.913 97.7037 63.8518 97.7652 63.7757 97.7652ZM137.534 95.5643C137.458 95.5643 137.397 95.5028 137.397 95.427V95.3292C137.397 95.2534 137.458 95.1919 137.534 95.1919C137.61 95.1919 137.671 95.2534 137.671 95.3292V95.427C137.671 95.5028 137.61 95.5643 137.534 95.5643Z" fill="#25292B"/>
<path d="M137.534 124H22.1373C22.0615 124 22 123.939 22 123.863C22 123.787 22.0615 123.726 22.1373 123.726H137.534C137.61 123.726 137.671 123.787 137.671 123.863C137.671 123.939 137.61 124 137.534 124Z" fill="#25292B"/>
</svg>
