<svg width="158" height="134" viewBox="0 0 158 134" fill="none" xmlns="http://www.w3.org/2000/svg">
<g clip-path="url(#clip0_3990_10226)">
<path d="M155 106.485H4V106.56H155V106.485Z" fill="#EBEBEB"/>
<path d="M139.869 111.344H129.867V111.419H139.869V111.344Z" fill="#EBEBEB"/>
<path d="M104.029 112.166H101.404V112.241H104.029V112.166Z" fill="#EBEBEB"/>
<path d="M129.566 108.542H123.771V108.617H129.566V108.542Z" fill="#EBEBEB"/>
<path d="M32.8862 109.049H19.8428V109.124H32.8862V109.049Z" fill="#EBEBEB"/>
<path d="M37.4888 109.049H35.5771V109.124H37.4888V109.049Z" fill="#EBEBEB"/>
<path d="M71.9955 110.323H43.7041V110.399H71.9955V110.323Z" fill="#EBEBEB"/>
<path d="M75.5736 93.0157H17.2605C16.8036 93.0149 16.3658 92.8329 16.0431 92.5096C15.7203 92.1863 15.5391 91.7481 15.5391 91.2913V9.31943C15.543 8.86523 15.7261 8.43094 16.0484 8.11089C16.3707 7.79084 16.8062 7.61089 17.2605 7.61011H75.5736C76.031 7.61011 76.4696 7.79179 76.793 8.11518C77.1164 8.43857 77.2981 8.87718 77.2981 9.33453V91.2913C77.2981 91.7486 77.1164 92.1873 76.793 92.5107C76.4696 92.834 76.031 93.0157 75.5736 93.0157ZM17.2605 7.67051C16.8237 7.67131 16.405 7.84539 16.0965 8.15453C15.7879 8.46368 15.6146 8.88263 15.6146 9.31943V91.2913C15.6146 91.7281 15.7879 92.147 16.0965 92.4562C16.405 92.7653 16.8237 92.9394 17.2605 92.9402H75.5736C76.0107 92.9394 76.4297 92.7654 76.7387 92.4564C77.0478 92.1473 77.2218 91.7284 77.2226 91.2913V9.31943C77.2218 8.88235 77.0478 8.46341 76.7387 8.15435C76.4297 7.84529 76.0107 7.67131 75.5736 7.67051H17.2605Z" fill="#EBEBEB"/>
<path d="M140.9 93.0157H82.5838C82.1267 93.0149 81.6886 92.833 81.3653 92.5098C81.0421 92.1866 80.8602 91.7484 80.8594 91.2913V9.31943C80.8641 8.86495 81.0478 8.43066 81.3706 8.1107C81.6934 7.79074 82.1293 7.61088 82.5838 7.61011H140.9C141.354 7.61168 141.788 7.79199 142.11 8.11195C142.432 8.43191 142.614 8.86575 142.618 9.31943V91.2913C142.618 91.7476 142.438 92.1853 142.115 92.5085C141.793 92.8317 141.356 93.0141 140.9 93.0157ZM82.5838 7.67051C82.1467 7.67131 81.7278 7.84529 81.4187 8.15435C81.1097 8.46341 80.9357 8.88235 80.9349 9.31943V91.2913C80.9357 91.7284 81.1097 92.1473 81.4187 92.4564C81.7278 92.7654 82.1467 92.9394 82.5838 92.9402H140.9C141.337 92.9394 141.756 92.7654 142.065 92.4564C142.374 92.1473 142.548 91.7284 142.549 91.2913V9.31943C142.548 8.88235 142.374 8.46341 142.065 8.15435C141.756 7.84529 141.337 7.67131 140.9 7.67051H82.5838Z" fill="#EBEBEB"/>
<path d="M137.84 14.6678V13.3722L137.182 13.3088C137.093 12.8783 136.924 12.4684 136.683 12.1008L137.112 11.5844L136.206 10.6784L135.672 11.1042C135.304 10.8634 134.894 10.6943 134.464 10.6059L134.403 9.93848H133.105L133.041 10.6059C132.611 10.6939 132.201 10.863 131.833 11.1042L131.314 10.6754L130.408 11.5814L130.84 12.1099C130.597 12.4768 130.428 12.8869 130.341 13.3179L129.674 13.3813V14.6769L130.341 14.7403C130.428 15.1712 130.597 15.5813 130.84 15.9483L130.411 16.4647L131.317 17.3707L131.836 16.9419C132.204 17.183 132.614 17.3521 133.044 17.4402L133.108 18.1076H134.406L134.467 17.4402C134.897 17.3518 135.307 17.1827 135.675 16.9419L136.194 17.3707L137.1 16.4647L136.671 15.9483C136.912 15.5807 137.081 15.1708 137.169 14.7403L137.84 14.6678ZM133.76 15.7641C133.412 15.7647 133.072 15.6621 132.783 15.4693C132.493 15.2765 132.267 15.0022 132.134 14.6811C132 14.36 131.965 14.0065 132.033 13.6654C132.1 13.3242 132.267 13.0108 132.513 12.7646C132.759 12.5185 133.072 12.3508 133.413 12.2828C133.754 12.2147 134.107 12.2493 134.429 12.3823C134.75 12.5152 135.025 12.7405 135.218 13.0296C135.411 13.3187 135.515 13.6587 135.515 14.0064C135.515 14.472 135.33 14.9187 135.001 15.2482C134.672 15.5777 134.226 15.7633 133.76 15.7641Z" fill="#E0E0E0"/>
<path d="M143.099 18.3281V17.3134L142.573 17.2741C142.503 16.9404 142.371 16.6228 142.183 16.3379L142.522 15.9302L141.803 15.2115L141.41 15.5376C141.125 15.3483 140.806 15.2151 140.471 15.145L140.423 14.6226H139.408L139.342 15.1601C139.007 15.2307 138.688 15.3639 138.402 15.5527L137.998 15.2145L137.279 15.9332L137.614 16.3409C137.428 16.6263 137.296 16.9437 137.225 17.2771L136.702 17.3285V18.3432L137.225 18.3945C137.295 18.7283 137.427 19.0459 137.614 19.3307L137.279 19.7384L137.998 20.4572L138.39 20.1039C138.676 20.2927 138.995 20.4259 139.33 20.4965L139.381 21.0189H140.396L140.444 20.4965C140.779 20.4264 141.098 20.2932 141.383 20.1039L141.791 20.4421L142.51 19.7233L142.171 19.3156C142.359 19.0308 142.491 18.7132 142.561 18.3794L143.099 18.3281ZM139.9 19.1979C139.628 19.1985 139.361 19.1182 139.134 18.9672C138.908 18.8163 138.731 18.6014 138.626 18.3498C138.521 18.0983 138.493 17.8213 138.546 17.5539C138.599 17.2866 138.73 17.0409 138.922 16.848C139.115 16.6551 139.36 16.5237 139.628 16.4703C139.895 16.4169 140.172 16.444 140.424 16.5482C140.675 16.6523 140.891 16.8288 141.042 17.0553C141.194 17.2819 141.274 17.5482 141.274 17.8207C141.274 18.1855 141.13 18.5353 140.872 18.7934C140.615 19.0516 140.265 19.1971 139.9 19.1979Z" fill="#E0E0E0"/>
<path d="M137.84 21.2152V20.3605L137.402 20.3182C137.344 20.0369 137.232 19.7694 137.073 19.53L137.357 19.1888L136.753 18.5848L136.412 18.8686C136.172 18.7109 135.905 18.5992 135.624 18.5395L135.581 18.1016H134.73L134.687 18.5395C134.407 18.5992 134.139 18.7109 133.899 18.8686L133.558 18.5848L132.954 19.1888L133.235 19.53C133.078 19.7702 132.967 20.0375 132.909 20.3182L132.468 20.3605V21.2152L132.909 21.2544C132.967 21.5352 133.078 21.8025 133.235 22.0427L132.954 22.3839L133.558 22.9879L133.899 22.7071C134.139 22.8651 134.406 22.9758 134.687 23.0332L134.73 23.4741H135.581L135.624 23.0332C135.905 22.9758 136.172 22.8651 136.412 22.7071L136.753 22.9879L137.357 22.3839L137.073 22.0427C137.232 21.8033 137.344 21.5358 137.402 21.2544L137.84 21.2152ZM135.156 21.943C134.927 21.9436 134.703 21.8763 134.512 21.7495C134.322 21.6228 134.173 21.4424 134.085 21.2311C133.997 21.0198 133.973 20.7871 134.018 20.5625C134.062 20.338 134.172 20.1316 134.334 19.9695C134.495 19.8075 134.701 19.697 134.926 19.6521C135.15 19.6073 135.383 19.63 135.594 19.7174C135.806 19.8049 135.987 19.9531 136.114 20.1434C136.241 20.3337 136.309 20.5574 136.309 20.7863C136.309 21.0926 136.188 21.3863 135.972 21.6032C135.755 21.82 135.462 21.9422 135.156 21.943Z" fill="#E0E0E0"/>
<path d="M19.2418 106.204L25.9885 61.36V106.204H27.8005V61.0791L34.5592 106.204H36.4981L28.0421 49.7209L27.8005 49.7571V47.918H25.9885V49.7481L25.7408 49.7209L17.2637 106.204H19.2418Z" fill="#E0E0E0"/>
<path d="M36.1814 55.9845H17.5117L19.0247 40.3862H34.6714L36.1814 55.9845Z" fill="#EBEBEB"/>
<path d="M79.5001 120.123C111.839 120.123 138.055 118.593 138.055 116.705C138.055 114.816 111.839 113.286 79.5001 113.286C47.1612 113.286 20.9453 114.816 20.9453 116.705C20.9453 118.593 47.1612 120.123 79.5001 120.123Z" fill="#F5F5F5"/>
<path d="M138.088 18.9683V79.7458C138.072 80.4655 137.781 81.1518 137.276 81.6647C136.771 82.1777 136.09 82.4786 135.37 82.5061H47.908C46.4553 82.5061 45.3742 81.2014 45.3742 79.7458V18.9683C45.364 18.6297 45.4222 18.2925 45.5451 17.9768C45.668 17.6611 45.8531 17.3734 46.0896 17.1308C46.326 16.8882 46.6088 16.6956 46.9212 16.5646C47.2336 16.4335 47.5692 16.3667 47.908 16.3681H135.37C136.073 16.3606 136.751 16.6284 137.259 17.1144C137.767 17.6003 138.065 18.2657 138.088 18.9683Z" fill="#0E53BE"/>
<path opacity="0.1" d="M138.088 26.5425V79.7458C138.072 80.4655 137.781 81.1518 137.276 81.6647C136.771 82.1777 136.089 82.4786 135.37 82.5061H47.9078C46.4552 82.5061 45.374 81.2015 45.374 79.7458V59.0377C53.069 44.2397 71.4125 41.8418 92.8877 50.4941C123.29 62.7432 136.255 46.1181 138.088 26.5425Z" fill="white"/>
<path opacity="0.2" d="M114.206 75.56H69.8362C69.4357 75.56 69.0516 75.4009 68.7684 75.1178C68.4853 74.8346 68.3262 74.4505 68.3262 74.05C68.3262 73.6496 68.4853 73.2655 68.7684 72.9823C69.0516 72.6991 69.4357 72.54 69.8362 72.54H114.206C114.606 72.54 114.991 72.6991 115.274 72.9823C115.557 73.2655 115.716 73.6496 115.716 74.05C115.716 74.4505 115.557 74.8346 115.274 75.1178C114.991 75.4009 114.606 75.56 114.206 75.56Z" fill="black"/>
<path d="M69.8359 75.258C69.5155 75.258 69.2083 75.1308 68.9817 74.9042C68.7552 74.6777 68.6279 74.3704 68.6279 74.05C68.6279 73.7297 68.7552 73.4224 68.9817 73.1959C69.2083 72.9693 69.5155 72.842 69.8359 72.842H96.0616C96.382 72.842 96.6892 72.9693 96.9158 73.1959C97.1423 73.4224 97.2696 73.7297 97.2696 74.05C97.2696 74.3704 97.1423 74.6777 96.9158 74.9042C96.6892 75.1308 96.382 75.258 96.0616 75.258H69.8359Z" fill="#0E53BE"/>
<path opacity="0.7" d="M69.8359 75.258C69.5155 75.258 69.2083 75.1308 68.9817 74.9042C68.7552 74.6777 68.6279 74.3704 68.6279 74.05C68.6279 73.7297 68.7552 73.4224 68.9817 73.1959C69.2083 72.9693 69.5155 72.842 69.8359 72.842H96.0616C96.382 72.842 96.6892 72.9693 96.9158 73.1959C97.1423 73.4224 97.2696 73.7297 97.2696 74.05C97.2696 74.3704 97.1423 74.6777 96.9158 74.9042C96.6892 75.1308 96.382 75.258 96.0616 75.258H69.8359Z" fill="white"/>
<path d="M52.2984 77.7527C55.1131 80.0147 54.1316 90.8112 54.6601 92.4722C55.1886 94.1332 57.4536 95.4922 57.4536 95.4922L54.2947 99.1917C54.2947 99.1917 51.6522 98.7326 49.6439 94.4291C47.6356 90.1256 52.2984 77.7527 52.2984 77.7527Z" fill="#263238"/>
<path opacity="0.2" d="M52.2984 77.7527C55.1131 80.0147 54.1316 90.8112 54.6601 92.4722C55.1886 94.1332 57.4536 95.4922 57.4536 95.4922L54.2947 99.1917C54.2947 99.1917 51.6522 98.7326 49.6439 94.4291C47.6356 90.1256 52.2984 77.7527 52.2984 77.7527Z" fill="black"/>
<path d="M49.3001 101.457C49.3001 101.457 69.5341 95.8121 72.0649 102.912C74.5956 110.012 56.2461 115.669 46.0899 116.028C35.9336 116.387 31.7841 109.236 34.78 102.462L49.3001 101.457Z" fill="#0E53BE"/>
<path opacity="0.2" d="M49.3001 101.457C49.3001 101.457 69.5341 95.8121 72.0649 102.912C74.5956 110.012 56.2461 115.669 46.0899 116.028C35.9336 116.387 31.7841 109.236 34.78 102.462L49.3001 101.457Z" fill="black"/>
<path d="M69.1322 112.948C69.121 112.955 69.1079 112.959 69.0945 112.959C69.0811 112.959 69.068 112.955 69.0567 112.948C69.0468 112.941 69.0395 112.931 69.0362 112.919C69.0328 112.908 69.0337 112.895 69.0386 112.884C69.0718 112.773 69.4101 111.794 69.7483 111.691C69.7849 111.683 69.8228 111.685 69.8587 111.695C69.8946 111.706 69.9272 111.725 69.9537 111.752C70.0007 111.791 70.0363 111.843 70.057 111.9C70.0777 111.958 70.0827 112.021 70.0715 112.081C70.0167 112.263 69.9057 112.424 69.7544 112.54C69.5604 112.695 69.3521 112.832 69.1322 112.948ZM69.2198 112.757C69.5364 112.619 69.7927 112.371 69.9416 112.06C69.9505 112.018 69.9472 111.975 69.9322 111.936C69.9172 111.896 69.8911 111.861 69.857 111.836C69.8481 111.825 69.8356 111.816 69.8214 111.812C69.8072 111.808 69.7921 111.809 69.7785 111.815C69.749 111.823 69.722 111.839 69.7 111.86C69.4902 112.128 69.3315 112.432 69.2319 112.757H69.2198Z" fill="#0E53BE"/>
<path d="M69.1142 112.96C69.103 112.963 69.0911 112.963 69.0798 112.96C69.0686 112.957 69.0585 112.951 69.0508 112.942C69.0176 112.915 68.5495 112.32 68.628 111.921C68.6371 111.872 68.6559 111.825 68.6834 111.783C68.7109 111.741 68.7465 111.704 68.7881 111.676C68.8238 111.642 68.8703 111.621 68.9197 111.616C68.9691 111.612 69.0186 111.625 69.0599 111.652C69.3045 111.824 69.2743 112.616 69.1535 112.918V112.948L69.1142 112.96ZM68.8454 111.797C68.8041 111.834 68.7764 111.884 68.7669 111.939C68.7156 112.193 68.9511 112.573 69.0689 112.755C69.1444 112.416 69.1203 111.848 68.9753 111.761C68.9602 111.761 68.93 111.728 68.8575 111.779L68.8334 111.797H68.8454Z" fill="#0E53BE"/>
<path d="M48.514 116.538C48.5176 116.526 48.5245 116.514 48.5341 116.505C48.5437 116.496 48.5555 116.49 48.5684 116.487C48.5803 116.485 48.5924 116.488 48.6027 116.494C48.6131 116.5 48.6212 116.509 48.6258 116.52C48.6862 116.623 49.1482 117.547 48.9821 117.861C48.9636 117.893 48.9367 117.92 48.9042 117.938C48.8718 117.956 48.835 117.965 48.7979 117.964C48.7372 117.971 48.6756 117.962 48.6198 117.937C48.5639 117.912 48.5159 117.872 48.4808 117.822C48.3885 117.654 48.3515 117.462 48.3751 117.272C48.3974 117.024 48.444 116.778 48.514 116.538ZM48.5865 116.732C48.4673 117.056 48.4673 117.413 48.5865 117.737C48.6102 117.773 48.6436 117.801 48.6826 117.818C48.7217 117.835 48.7648 117.841 48.807 117.834C48.8219 117.835 48.8367 117.831 48.8496 117.824C48.8625 117.816 48.8729 117.805 48.8795 117.792C48.8909 117.764 48.898 117.734 48.9006 117.704C48.8551 117.364 48.7488 117.034 48.5865 116.732Z" fill="#0E53BE"/>
<path d="M53.4162 109.707L49.8375 112.332L48.1191 113.591L49.2396 115.551L50.9851 114.597L55.2463 112.265L53.4162 109.707Z" fill="#EBB376"/>
<path d="M49.7947 115.49L48.7135 113.108C48.6993 113.076 48.6789 113.048 48.6536 113.025C48.6282 113.002 48.5985 112.984 48.5661 112.972C48.5337 112.961 48.4993 112.956 48.465 112.958C48.4307 112.96 48.3971 112.969 48.3662 112.984L47.2005 113.555C47.2005 113.555 45.5788 114.21 45.3885 114.735C44.7845 116.276 47.0465 121.606 47.7502 121.609C48.0069 121.609 48.1609 121.21 48.1971 120.957C48.3089 120.147 48.33 118.118 48.4327 117.444C48.5535 116.659 49.3387 116.055 49.7162 115.814C49.765 115.777 49.7996 115.725 49.8139 115.666C49.8283 115.607 49.8215 115.545 49.7947 115.49Z" fill="#263238"/>
<path d="M48.5176 116.517C48.5231 116.507 48.5315 116.499 48.5416 116.493C48.5517 116.487 48.5633 116.484 48.575 116.484C48.6172 116.484 49.3692 116.56 49.6018 116.895C49.6588 116.979 49.6805 117.082 49.6622 117.182C49.6619 117.231 49.6446 117.279 49.6133 117.318C49.582 117.356 49.5385 117.383 49.49 117.393C49.188 117.448 48.6505 116.874 48.5206 116.578V116.551C48.5166 116.54 48.5156 116.529 48.5176 116.517ZM49.5353 117.139C49.5389 117.083 49.5229 117.028 49.49 116.982C49.3451 116.771 48.9072 116.68 48.6897 116.635C48.877 116.937 49.2937 117.3 49.4628 117.266C49.481 117.266 49.5172 117.266 49.5323 117.17V117.139H49.5353Z" fill="#0E53BE"/>
<path opacity="0.2" d="M53.4156 109.707L49.8369 112.332L50.9845 114.597L55.2457 112.265L53.4156 109.707Z" fill="black"/>
<path d="M51.8 114.744L52.9778 114.482L51.0239 110.749L49.9307 111.863L51.8 114.744Z" fill="#0E53BE"/>
<path opacity="0.6" d="M51.8 114.744L52.9778 114.482L51.0239 110.749L49.9307 111.863L51.8 114.744Z" fill="white"/>
<path d="M60.8213 114.225L65.2003 114.947L67.3052 115.294L67.9183 113.12L66.0157 112.543L61.3709 111.13L60.8213 114.225Z" fill="#EBB376"/>
<path d="M67.4894 112.767L66.5411 115.204C66.529 115.236 66.5234 115.27 66.5246 115.305C66.5258 115.339 66.5337 115.373 66.548 115.405C66.5623 115.436 66.5827 115.464 66.6079 115.488C66.6332 115.512 66.6628 115.53 66.6951 115.542L67.9182 115.974C67.9182 115.974 69.5218 116.674 70.0322 116.451C71.5422 115.799 73.7831 110.459 73.2908 109.955C73.1096 109.771 72.72 109.94 72.5116 110.094C71.8563 110.577 70.3976 111.984 69.8389 112.38C69.1927 112.845 68.2051 112.7 67.7763 112.607C67.7172 112.595 67.656 112.604 67.6034 112.634C67.5509 112.663 67.5104 112.71 67.4894 112.767Z" fill="#263238"/>
<path opacity="0.2" d="M60.8213 114.225L65.2003 114.947L66.0157 112.543L61.3709 111.13L60.8213 114.225Z" fill="black"/>
<path d="M65.2601 112.102C65.2601 112.102 47.0555 101.363 40.8947 101.65C34.7339 101.937 34.1994 108.055 36.7392 111.453C39.279 114.85 43.9872 115.681 43.9872 115.681C43.9872 115.681 40.792 111.151 41.2541 109.895C41.7161 108.638 43.4768 112.896 43.4768 112.896C43.4768 112.896 54.7565 114.373 64.5836 115.207L65.2601 112.102Z" fill="#0E53BE"/>
<path d="M65.5505 111.812L64.5388 111.133L63.2402 115.122H64.7986L65.5505 111.812Z" fill="#0E53BE"/>
<path opacity="0.6" d="M65.5505 111.812L64.5388 111.133L63.2402 115.122H64.7986L65.5505 111.812Z" fill="white"/>
<path d="M51.6822 103.344C48.3874 97.002 49.4353 87.3531 52.2862 77.7525C50.293 76.0885 42.3413 74.965 36.2802 76.7287C36.2802 76.7287 32.4327 90.9861 32.8857 106.56L51.6822 103.344Z" fill="#263238"/>
<path d="M44.6884 79.3109C42.0398 79.3109 40.3154 76.5325 40.3154 76.5325C43.7884 75.3245 43.8005 71.6492 43.8005 71.6492L45.1384 72.9568L47.044 74.8232C45.4585 75.9466 46.2074 76.9191 46.7118 77.3509C46.8149 77.4432 46.9261 77.5261 47.044 77.5986C47.044 77.5986 47.3369 79.3109 44.6884 79.3109Z" fill="#EBB376"/>
<path opacity="0.2" d="M46.712 77.3509C43.4625 77.7164 43.692 72.8511 43.692 72.8511C44.1794 72.8434 44.6665 72.8788 45.1476 72.9568L47.0533 74.8232C45.4587 75.9466 46.2077 76.9191 46.712 77.3509Z" fill="black"/>
<path d="M49.2481 68.01C48.019 68.5174 48.2545 69.8613 50.2961 72.3105C51.5524 71.2263 52.2349 68.762 51.5735 67.9707C50.9121 67.1795 50.3232 67.56 49.2481 68.01Z" fill="#263238"/>
<path d="M51.0661 73.446C50.9547 73.7737 50.8236 74.0945 50.6735 74.4064C49.4655 76.8797 45.9683 77.3599 44.4221 74.9137L44.404 74.8896C43.3832 73.2437 43.7667 71.7065 44.1926 69.0429C44.2874 68.4254 44.5377 67.8423 44.9199 67.3482C45.302 66.8541 45.8036 66.4653 46.3773 66.2183C46.951 65.9713 47.5781 65.8742 48.1997 65.9361C48.8213 65.9981 49.4169 66.2171 49.9306 66.5725C51.966 67.9889 51.8452 71.1719 51.0661 73.446Z" fill="#EBB376"/>
<path d="M47.9531 70.6525C47.9048 70.867 47.9803 71.0663 48.1192 71.0965C48.2581 71.1267 48.4212 70.9817 48.4574 70.7673C48.4937 70.5529 48.4303 70.3566 48.2944 70.3234C48.1585 70.2901 48.0135 70.4442 47.9531 70.6525Z" fill="#263238"/>
<path d="M50.3808 71.2023C50.3325 71.4137 50.408 71.613 50.5499 71.6432C50.6919 71.6734 50.8519 71.5315 50.8912 71.3141C50.9305 71.0966 50.861 70.9003 50.7221 70.8701C50.5832 70.8399 50.4291 70.9879 50.3808 71.2023Z" fill="#263238"/>
<path d="M49.5656 71.1238C49.6712 71.8348 49.8745 72.5279 50.1696 73.1834C49.7045 73.4492 49.1035 73.1442 49.1035 73.1442L49.5656 71.1238Z" fill="#D58745"/>
<path d="M47.4603 69.7375C47.4313 69.7357 47.4043 69.7227 47.3848 69.7013C47.3727 69.6895 47.3631 69.6754 47.3566 69.6598C47.3501 69.6442 47.3467 69.6275 47.3467 69.6107C47.3467 69.5938 47.3501 69.5771 47.3566 69.5615C47.3631 69.546 47.3727 69.5319 47.3848 69.5201C47.5361 69.3816 47.7187 69.2819 47.9169 69.2293C48.1152 69.1767 48.3232 69.1728 48.5233 69.2181C48.5549 69.2266 48.5818 69.2472 48.5982 69.2755C48.6146 69.3038 48.6192 69.3374 48.6109 69.3691C48.5998 69.4009 48.5773 69.4275 48.5477 69.4437C48.5181 69.4599 48.4836 69.4645 48.4508 69.4567C48.2917 69.4204 48.1263 69.4232 47.9685 69.4647C47.8108 69.5063 47.6654 69.5854 47.5448 69.6952C47.5228 69.7192 47.4927 69.7343 47.4603 69.7375Z" fill="#263238"/>
<path d="M51.67 70.6314C51.6464 70.625 51.625 70.6124 51.608 70.5949C51.591 70.5773 51.579 70.5555 51.5734 70.5318C51.5407 70.3738 51.4711 70.2258 51.3703 70.0999C51.2696 69.9739 51.1405 69.8736 50.9935 69.807C50.9616 69.7947 50.9356 69.7706 50.9209 69.7397C50.9063 69.7087 50.9042 69.6733 50.915 69.6409C50.9266 69.6091 50.9502 69.5832 50.9806 69.5685C51.0111 69.5539 51.046 69.5516 51.0781 69.5624C51.2652 69.6431 51.4303 69.7675 51.5596 69.9252C51.6888 70.0828 51.7784 70.269 51.821 70.4684C51.8251 70.4846 51.8259 70.5015 51.8233 70.5181C51.8208 70.5347 51.815 70.5506 51.8063 70.5649C51.7976 70.5792 51.7862 70.5917 51.7726 70.6015C51.7591 70.6114 51.7437 70.6185 51.7274 70.6224H51.67V70.6314Z" fill="#263238"/>
<path d="M45.7598 66.9592C46.8923 67.6568 46.4453 68.9463 44.0414 71.0362C42.9693 69.7678 42.6885 67.2219 43.4706 66.5515C44.2528 65.881 44.7692 66.3521 45.7598 66.9592Z" fill="#263238"/>
<path d="M42.4689 70.8731C42.4882 71.2089 42.5737 71.5375 42.7204 71.8402C42.867 72.1428 43.072 72.4135 43.3235 72.6368C44 73.2408 44.7218 72.7153 44.8577 71.8758C44.9815 71.1177 44.7731 69.8977 43.9517 69.6319C43.1302 69.3661 42.4236 70.0426 42.4689 70.8731Z" fill="#EBB376"/>
<path d="M47.0439 73.1711C47.0439 73.1711 47.3218 74.1315 48.6083 74.355" stroke="#263238" stroke-width="0.557248" stroke-linecap="round" stroke-linejoin="round"/>
<path d="M49.3569 71.1418C49.3569 71.321 49.3038 71.4962 49.2042 71.6452C49.1047 71.7942 48.9632 71.9103 48.7976 71.9789C48.6321 72.0474 48.4499 72.0654 48.2742 72.0304C48.0984 71.9955 47.937 71.9092 47.8103 71.7825C47.6836 71.6558 47.5973 71.4943 47.5623 71.3186C47.5274 71.1428 47.5453 70.9607 47.6139 70.7951C47.6825 70.6296 47.7986 70.4881 47.9476 70.3885C48.0966 70.289 48.2717 70.2358 48.4509 70.2358C48.6912 70.2358 48.9217 70.3313 49.0916 70.5012C49.2615 70.6711 49.3569 70.9016 49.3569 71.1418Z" stroke="#263238" stroke-width="0.557248" stroke-linecap="round" stroke-linejoin="round"/>
<path d="M51.8247 71.6492C51.8247 71.8284 51.7716 72.0035 51.672 72.1525C51.5725 72.3015 51.431 72.4176 51.2654 72.4862C51.0999 72.5548 50.9177 72.5727 50.7419 72.5378C50.5662 72.5028 50.4048 72.4165 50.2781 72.2898C50.1513 72.1631 50.0651 72.0017 50.0301 71.8259C49.9951 71.6502 50.0131 71.468 50.0817 71.3025C50.1502 71.1369 50.2664 70.9954 50.4153 70.8959C50.5643 70.7963 50.7395 70.7432 50.9187 70.7432C51.159 70.7432 51.3894 70.8386 51.5593 71.0085C51.7292 71.1784 51.8247 71.4089 51.8247 71.6492Z" stroke="#263238" stroke-width="0.557248" stroke-linecap="round" stroke-linejoin="round"/>
<path d="M49.3574 71.3894C49.4653 71.3317 49.5911 71.3171 49.7094 71.3484C49.8276 71.3798 49.9296 71.4549 49.9946 71.5586" stroke="#263238" stroke-width="0.557248" stroke-linecap="round" stroke-linejoin="round"/>
<path d="M47.5453 70.9546C47.5453 70.9546 44.9209 69.8493 44.4316 69.7466" stroke="#263238" stroke-width="0.557248" stroke-linecap="round" stroke-linejoin="round"/>
<path d="M43.4435 66.5876C43.4435 66.5876 43.1717 64.4555 45.3491 64.1022C47.5265 63.7488 50.3744 64.2955 51.2562 63.918C51.2217 64.1069 51.1483 64.2866 51.0407 64.4457C50.9331 64.6048 50.7936 64.7398 50.6311 64.8421C50.6311 64.8421 52.2921 65.4461 53.5997 64.9266C53.5997 64.9266 53.032 66.5001 52.2981 67.1041H52.9232C52.9232 67.1041 51.685 68.2879 50.1781 68.3121C48.6711 68.3362 47.2517 66.2615 45.7598 66.9591C44.2679 67.6567 43.4435 66.5876 43.4435 66.5876Z" fill="#263238"/>
<path opacity="0.4" d="M51.0663 73.4461C50.9549 73.7738 50.8238 74.0945 50.6737 74.4064C49.4657 76.8798 45.9685 77.36 44.4223 74.9138L44.4041 74.8896C43.6068 73.4733 44.2441 71.927 44.2441 71.927L44.7092 70.417L45.0474 70.0818C45.0474 70.0818 45.1259 71.6129 45.3645 72.0448C45.6031 72.4766 46.9621 72.6035 47.2399 72.679C47.5177 72.7545 48.1761 73.5397 48.5023 73.7511C48.8284 73.9625 50.0123 73.7873 50.1663 73.9625C50.3203 74.1376 51.0663 73.4461 51.0663 73.4461Z" fill="black"/>
<path opacity="0.2" d="M37.4883 97.7571L43.7518 104.703C43.7518 104.703 50.6736 104.549 59.0813 108.659C59.0813 108.659 68.102 104.933 68.9325 101.837C69.763 98.7416 49.9941 100.931 49.9941 100.931L37.4883 97.7571Z" fill="black"/>
<path d="M39.2578 95.7185L49.2993 99.0043C49.2993 99.0043 52.8871 98.21 53.5273 98.21C54.1675 98.21 56.647 100.224 55.2457 100.928C53.8444 101.632 50.0181 101.722 49.6013 101.496C49.1845 101.269 38.0498 98.663 38.0498 98.663L39.2578 95.7185Z" fill="#EBB376"/>
<path d="M36.2805 76.7288C38.5515 76.2879 34.6104 90.1316 35.5768 92.1701C36.5432 94.2086 40.3152 95.4921 40.3152 95.4921L38.5787 99.3245C38.5787 99.3245 33.4447 98.355 30.6512 94.7945C27.8577 91.2339 32.5719 77.4476 36.2805 76.7288Z" fill="#263238"/>
<path opacity="0.2" d="M36.2805 76.7288C38.5515 76.2879 34.6104 90.1316 35.5768 92.1701C36.5432 94.2086 40.3152 95.4921 40.3152 95.4921L38.5787 99.3245C38.5787 99.3245 33.4447 98.355 30.6512 94.7945C27.8577 91.2339 32.5719 77.4476 36.2805 76.7288Z" fill="black"/>
<path d="M40.3152 95.1902L38.2012 99.3306L40.0132 99.7202L41.6742 95.9089L40.3152 95.1902Z" fill="#263238"/>
<path opacity="0.2" d="M40.3152 95.1902L38.2012 99.3306L40.0132 99.7202L41.6742 95.9089L40.3152 95.1902Z" fill="white"/>
<path d="M44.4678 100.928V101.586C44.4683 101.806 44.5533 102.017 44.7051 102.175C44.8569 102.334 45.0639 102.428 45.2832 102.438H69.561C69.7874 102.432 70.0032 102.341 70.1659 102.183C70.3286 102.025 70.4263 101.812 70.4398 101.586V100.928H44.4678Z" fill="#263238"/>
<path opacity="0.2" d="M44.4678 100.928V101.586C44.4683 101.806 44.5533 102.017 44.7051 102.175C44.8569 102.334 45.0639 102.428 45.2832 102.438H69.561C69.7874 102.432 70.0032 102.341 70.1659 102.183C70.3286 102.025 70.4263 101.812 70.4398 101.586V100.928H44.4678Z" fill="white"/>
<path opacity="0.2" d="M53.5273 100.928V101.586C53.5287 101.806 53.6143 102.017 53.7666 102.175C53.9189 102.334 54.1262 102.428 54.3458 102.438H69.5605C69.787 102.432 70.0028 102.341 70.1655 102.183C70.3281 102.025 70.4258 101.812 70.4393 101.586V100.928H53.5273Z" fill="white"/>
<path d="M54.3462 101.834H70.3854C70.6429 101.822 70.891 101.733 71.0984 101.58C71.3058 101.427 71.4633 101.216 71.5511 100.973L75.2295 89.434C75.2716 89.3357 75.2883 89.2283 75.278 89.1218C75.2677 89.0153 75.2308 88.9132 75.1706 88.8247C75.1105 88.7362 75.029 88.6644 74.9337 88.6157C74.8384 88.567 74.7324 88.5431 74.6255 88.5462H58.5742C58.3147 88.5651 58.0663 88.6591 57.8593 88.8168C57.6523 88.9744 57.4957 89.1889 57.4085 89.434L53.7301 100.958C53.6876 101.057 53.671 101.165 53.682 101.272C53.6931 101.379 53.7313 101.481 53.7931 101.569C53.8549 101.657 53.9382 101.727 54.035 101.774C54.1319 101.82 54.239 101.841 54.3462 101.834Z" fill="#263238"/>
<path opacity="0.2" d="M54.3462 101.834H70.3854C70.6429 101.822 70.891 101.733 71.0984 101.58C71.3058 101.427 71.4633 101.216 71.5511 100.973L75.2295 89.434C75.2716 89.3357 75.2883 89.2283 75.278 89.1218C75.2677 89.0153 75.2308 88.9132 75.1706 88.8247C75.1105 88.7362 75.029 88.6644 74.9337 88.6157C74.8384 88.567 74.7324 88.5431 74.6255 88.5462H58.5742C58.3147 88.5651 58.0663 88.6591 57.8593 88.8168C57.6523 88.9744 57.4957 89.1889 57.4085 89.434L53.7301 100.958C53.6876 101.057 53.671 101.165 53.682 101.272C53.6931 101.379 53.7313 101.481 53.7931 101.569C53.8549 101.657 53.9382 101.727 54.035 101.774C54.1319 101.82 54.239 101.841 54.3462 101.834Z" fill="white"/>
<path opacity="0.2" d="M54.9497 101.834H70.3849C70.6424 101.822 70.8905 101.733 71.0979 101.58C71.3053 101.427 71.4628 101.216 71.5506 100.973L75.229 89.434C75.2711 89.3357 75.2878 89.2283 75.2775 89.1218C75.2673 89.0153 75.2303 88.9132 75.1701 88.8247C75.11 88.7362 75.0285 88.6644 74.9332 88.6157C74.8379 88.567 74.732 88.5431 74.625 88.5462H59.1777C58.9182 88.5651 58.6698 88.6591 58.4628 88.8168C58.2559 88.9744 58.0992 89.1889 58.012 89.434L54.3336 100.958C54.2911 101.057 54.2745 101.165 54.2855 101.272C54.2966 101.379 54.3348 101.481 54.3966 101.569C54.4584 101.657 54.5417 101.727 54.6385 101.774C54.7354 101.82 54.8425 101.841 54.9497 101.834Z" fill="white"/>
<path opacity="0.2" d="M66.0058 93.9248L63.7861 95.4982L64.7465 97.0686L66.9662 95.4982L66.0058 93.9248Z" fill="white"/>
<path opacity="0.2" d="M77.1169 19.2974H56.8075C55.3497 19.2974 54.168 20.4791 54.168 21.9368V42.2463C54.168 43.7041 55.3497 44.8858 56.8075 44.8858H77.1169C78.5747 44.8858 79.7564 43.7041 79.7564 42.2463V21.9368C79.7564 20.4791 78.5747 19.2974 77.1169 19.2974Z" fill="black"/>
<path d="M80.5721 16.4888H63.5574C62.3348 16.4888 61.3438 17.4799 61.3438 18.7024V35.7171C61.3438 36.9397 62.3348 37.9308 63.5574 37.9308H80.5721C81.7947 37.9308 82.7857 36.9397 82.7857 35.7171V18.7024C82.7857 17.4799 81.7947 16.4888 80.5721 16.4888Z" fill="#0E53BE"/>
<path opacity="0.3" d="M80.5721 16.4888H63.5574C62.3348 16.4888 61.3438 17.4799 61.3438 18.7024V35.7171C61.3438 36.9397 62.3348 37.9308 63.5574 37.9308H80.5721C81.7947 37.9308 82.7857 36.9397 82.7857 35.7171V18.7024C82.7857 17.4799 81.7947 16.4888 80.5721 16.4888Z" fill="white"/>
<path d="M73.7165 24.7336V23.438L73.0491 23.3746C72.9616 22.9438 72.7925 22.5337 72.5508 22.1666L72.9796 21.6471L72.0736 20.7411L71.5572 21.17C71.1896 20.9291 70.7797 20.7601 70.3492 20.6717L70.2828 19.9922H68.9872L68.9298 20.6717C68.4993 20.7601 68.0894 20.9291 67.7218 21.17L67.2054 20.7411L66.2994 21.6471L66.7282 22.1666C66.4865 22.5337 66.3174 22.9438 66.2299 23.3746L65.5625 23.438V24.7336L66.2299 24.797C66.3183 25.2275 66.4874 25.6374 66.7282 26.005L66.2994 26.5244L67.2054 27.4304L67.7218 27.0016C68.0894 27.2425 68.4993 27.4115 68.9298 27.4999L68.9932 28.1673H70.2888L70.3522 27.4999C70.7827 27.4115 71.1926 27.2425 71.5602 27.0016L72.0766 27.4304L72.9826 26.5244L72.5538 25.9959C72.7946 25.6283 72.9637 25.2185 73.0521 24.7879L73.7165 24.7336ZM69.6365 25.8419C69.2886 25.8425 68.9484 25.7399 68.6589 25.547C68.3693 25.3541 68.1436 25.0796 68.0102 24.7583C67.8768 24.437 67.8417 24.0834 67.9094 23.7421C67.9772 23.4009 68.1446 23.0874 68.3906 22.8415C68.6366 22.5955 68.9501 22.428 69.2913 22.3603C69.6325 22.2926 69.9862 22.3276 70.3075 22.461C70.6288 22.5944 70.9032 22.8202 71.0961 23.1097C71.289 23.3992 71.3917 23.7394 71.3911 24.0873C71.3903 24.5524 71.2052 24.9982 70.8763 25.3271C70.5474 25.656 70.1016 25.8411 69.6365 25.8419Z" fill="white"/>
<path d="M78.9714 28.3968V27.3791L78.4489 27.3307C78.3799 26.9958 78.2476 26.677 78.0593 26.3915L78.3946 25.9868L77.6879 25.2681L77.2832 25.6033C76.9977 25.415 76.6789 25.2828 76.344 25.2137L76.2957 24.6882H75.2719L75.2236 25.2137C74.8886 25.2828 74.5698 25.415 74.2843 25.6033L73.8797 25.2681L73.1579 25.9868L73.4931 26.3915C73.3048 26.677 73.1726 26.9958 73.1035 27.3307L72.5811 27.3791V28.3968L73.1035 28.4451C73.1726 28.7801 73.3048 29.0988 73.4931 29.3843L73.1579 29.789L73.8766 30.5078L74.2813 30.1726C74.5668 30.3609 74.8856 30.4931 75.2205 30.5621L75.2689 31.0846H76.2866L76.3349 30.5621C76.6699 30.4931 76.9886 30.3609 77.2741 30.1726L77.6788 30.5078L78.3976 29.789L78.0624 29.3843C78.2507 29.0988 78.3829 28.7801 78.4519 28.4451L78.9714 28.3968ZM75.7732 29.2635C75.5008 29.2635 75.2346 29.1828 75.0081 29.0314C74.7816 28.8801 74.6051 28.665 74.5009 28.4134C74.3967 28.1618 74.3694 27.8849 74.4225 27.6177C74.4757 27.3506 74.6068 27.1052 74.7994 26.9126C74.992 26.72 75.2374 26.5889 75.5045 26.5358C75.7717 26.4826 76.0486 26.5099 76.3002 26.6141C76.5518 26.7183 76.7669 26.8949 76.9182 27.1213C77.0696 27.3478 77.1503 27.614 77.1503 27.8864C77.1503 28.2516 77.0052 28.6019 76.747 28.8602C76.4887 29.1184 76.1384 29.2635 75.7732 29.2635Z" fill="white"/>
<path d="M73.7165 31.2809V30.4262L73.2756 30.3869C73.2182 30.1058 73.1075 29.8382 72.9494 29.5987L73.2303 29.2575L72.6263 28.6535L72.285 28.9343C72.045 28.7773 71.7776 28.6667 71.4968 28.6082L71.4545 28.1672H70.5999L70.5576 28.6082C70.2768 28.6667 70.0094 28.7773 69.7694 28.9343L69.4281 28.6535L68.8241 29.2575L69.105 29.5987C68.9469 29.8382 68.8362 30.1058 68.7788 30.3869L68.3379 30.4262V31.2809L68.7788 31.3231C68.8373 31.604 68.948 31.8713 69.105 32.1114L68.8241 32.4526L69.4281 33.0566L69.7694 32.7758C70.0099 32.9325 70.277 33.044 70.5576 33.1049L70.5999 33.5428H71.4545L71.4968 33.1049C71.7774 33.044 72.0445 32.9325 72.285 32.7758L72.6263 33.0566L73.2303 32.4526L72.9494 32.1114C73.1065 31.8713 73.2171 31.604 73.2756 31.3231L73.7165 31.2809ZM71.0438 32.0087C70.8148 32.0093 70.5907 31.9419 70.4001 31.815C70.2094 31.6881 70.0607 31.5075 69.9728 31.296C69.8848 31.0846 69.8617 30.8518 69.9062 30.6271C69.9507 30.4025 70.061 30.1961 70.2229 30.0341C70.3849 29.8722 70.5912 29.762 70.8159 29.7174C71.0405 29.6729 71.2733 29.6961 71.4848 29.784C71.6963 29.8719 71.8769 30.0206 72.0038 30.2113C72.1306 30.402 72.1981 30.626 72.1975 30.855C72.1975 31.161 72.0759 31.4544 71.8596 31.6708C71.6432 31.8871 71.3498 32.0087 71.0438 32.0087Z" fill="white"/>
<path opacity="0.2" d="M81.4774 16.4888H64.4627C63.2401 16.4888 62.249 17.4799 62.249 18.7024V35.7171C62.249 36.9397 63.2401 37.9308 64.4627 37.9308H81.4774C82.6999 37.9308 83.691 36.9397 83.691 35.7171V18.7024C83.691 17.4799 82.6999 16.4888 81.4774 16.4888Z" fill="white"/>
<path opacity="0.2" d="M114.004 44.134H95.2282C93.8806 44.134 92.7881 45.2265 92.7881 46.5742V65.3495C92.7881 66.6972 93.8806 67.7897 95.2282 67.7897H114.004C115.351 67.7897 116.444 66.6972 116.444 65.3495V46.5742C116.444 45.2265 115.351 44.134 114.004 44.134Z" fill="black"/>
<path d="M116.507 42.8687H100.776C99.6468 42.8687 98.7314 43.784 98.7314 44.9132V60.6444C98.7314 61.7735 99.6468 62.6889 100.776 62.6889H116.507C117.636 62.6889 118.552 61.7735 118.552 60.6444V44.9132C118.552 43.784 117.636 42.8687 116.507 42.8687Z" fill="#0E53BE"/>
<path opacity="0.2" d="M116.507 42.8687H100.776C99.6468 42.8687 98.7314 43.784 98.7314 44.9132V60.6444C98.7314 61.7735 99.6468 62.6889 100.776 62.6889H116.507C117.636 62.6889 118.552 61.7735 118.552 60.6444V44.9132C118.552 43.784 117.636 42.8687 116.507 42.8687Z" fill="white"/>
<path d="M109.397 55.9633C109.397 56.105 109.355 56.2435 109.276 56.3613C109.198 56.479 109.086 56.5708 108.955 56.6248C108.824 56.6789 108.68 56.6929 108.541 56.6651C108.402 56.6372 108.274 56.5687 108.174 56.4683C108.074 56.3679 108.006 56.2401 107.979 56.1011C107.952 55.962 107.967 55.818 108.021 55.6873C108.076 55.5566 108.168 55.445 108.286 55.3667C108.404 55.2884 108.543 55.247 108.685 55.2476C108.874 55.2484 109.055 55.3241 109.189 55.4583C109.322 55.5924 109.397 55.774 109.397 55.9633Z" fill="white"/>
<path d="M108.622 48.824C107.688 48.8236 106.764 49.0071 105.902 49.3641C105.04 49.7211 104.256 50.2445 103.596 50.9044C102.936 51.5644 102.413 52.3479 102.056 53.2102C101.699 54.0725 101.515 54.9968 101.516 55.93H107.19C107.181 55.7409 107.212 55.552 107.281 55.3756C107.35 55.1993 107.455 55.0396 107.591 54.9072C107.726 54.7747 107.888 54.6725 108.065 54.6073C108.243 54.542 108.433 54.5153 108.622 54.5288C108.767 54.5358 108.91 54.5632 109.048 54.6103L111.708 51.5208L109.83 55.175C109.977 55.3992 110.053 55.662 110.05 55.93H115.74C115.74 54.9958 115.556 54.0708 115.198 53.2079C114.84 52.3449 114.315 51.561 113.654 50.901C112.993 50.241 112.208 49.7178 111.345 49.3614C110.481 49.005 109.556 48.8224 108.622 48.824Z" fill="white"/>
<path opacity="0.2" d="M117.343 42.8687H101.612C100.483 42.8687 99.5674 43.784 99.5674 44.9132V60.6444C99.5674 61.7735 100.483 62.6889 101.612 62.6889H117.343C118.472 62.6889 119.388 61.7735 119.388 60.6444V44.9132C119.388 43.784 118.472 42.8687 117.343 42.8687Z" fill="white"/>
<path opacity="0.2" d="M119.769 25.2288H103.294C102.112 25.2288 101.153 26.1874 101.153 27.3699V43.844C101.153 45.0266 102.112 45.9852 103.294 45.9852H119.769C120.951 45.9852 121.91 45.0266 121.91 43.844V27.3699C121.91 26.1874 120.951 25.2288 119.769 25.2288Z" fill="black"/>
<path d="M122.317 23.3987H108.513C107.522 23.3987 106.719 24.2018 106.719 25.1926V38.997C106.719 39.9877 107.522 40.7909 108.513 40.7909H122.317C123.308 40.7909 124.111 39.9877 124.111 38.997V25.1926C124.111 24.2018 123.308 23.3987 122.317 23.3987Z" fill="#0E53BE"/>
<path opacity="0.1" d="M122.317 23.3987H108.513C107.522 23.3987 106.719 24.2018 106.719 25.1926V38.997C106.719 39.9877 107.522 40.7909 108.513 40.7909H122.317C123.308 40.7909 124.111 39.9877 124.111 38.997V25.1926C124.111 24.2018 123.308 23.3987 122.317 23.3987Z" fill="white"/>
<path d="M120.269 27.8108C120.269 27.6594 120.209 27.5142 120.102 27.4072C119.995 27.3001 119.85 27.24 119.699 27.24H111.176C111.025 27.24 110.88 27.3001 110.773 27.4072C110.666 27.5142 110.605 27.6594 110.605 27.8108V29.6892C110.605 29.8406 110.666 29.9858 110.773 30.0928C110.88 30.1999 111.025 30.26 111.176 30.26H119.699C119.85 30.26 119.995 30.1999 120.102 30.0928C120.209 29.9858 120.269 29.8406 120.269 29.6892V27.8108ZM117.455 28.8285H116.966V28.3393H117.455V28.8285ZM118.762 29.0731C118.665 29.0737 118.569 29.0453 118.488 28.9914C118.406 28.9376 118.343 28.8607 118.305 28.7706C118.268 28.6806 118.258 28.5814 118.277 28.4856C118.295 28.3898 118.342 28.3018 118.411 28.2328C118.48 28.1638 118.568 28.1168 118.664 28.0979C118.76 28.079 118.859 28.089 118.949 28.1267C119.039 28.1643 119.116 28.2279 119.17 28.3093C119.224 28.3907 119.252 28.4863 119.252 28.5839C119.252 28.6484 119.239 28.7123 119.214 28.7718C119.189 28.8314 119.153 28.8854 119.107 28.9309C119.062 28.9764 119.007 29.0124 118.948 29.0368C118.888 29.0612 118.824 29.0735 118.759 29.0731H118.762Z" fill="white"/>
<path d="M120.269 31.1328C120.269 30.9814 120.209 30.8362 120.102 30.7292C119.995 30.6221 119.85 30.562 119.699 30.562H111.176C111.025 30.562 110.88 30.6221 110.773 30.7292C110.666 30.8362 110.605 30.9814 110.605 31.1328V33.0112C110.605 33.1626 110.666 33.3078 110.773 33.4148C110.88 33.5219 111.025 33.582 111.176 33.582H119.699C119.85 33.582 119.995 33.5219 120.102 33.4148C120.209 33.3078 120.269 33.1626 120.269 33.0112V31.1328ZM117.455 32.3408H116.966V31.8516H117.455V32.3408ZM118.762 32.5854C118.666 32.5854 118.571 32.5567 118.491 32.503C118.41 32.4492 118.348 32.3728 118.31 32.2834C118.273 32.194 118.264 32.0956 118.283 32.0007C118.302 31.9058 118.348 31.8187 118.417 31.7502C118.485 31.6818 118.572 31.6352 118.667 31.6163C118.762 31.5975 118.86 31.6071 118.95 31.6442C119.039 31.6812 119.116 31.7439 119.169 31.8244C119.223 31.9048 119.252 31.9994 119.252 32.0962C119.252 32.1605 119.239 32.2243 119.214 32.2836C119.189 32.343 119.153 32.3969 119.107 32.4421C119.061 32.4874 119.007 32.523 118.947 32.5471C118.888 32.5712 118.824 32.5832 118.759 32.5824L118.762 32.5854Z" fill="white"/>
<path d="M120.269 34.4548C120.269 34.3034 120.209 34.1583 120.102 34.0512C119.995 33.9442 119.85 33.884 119.699 33.884H111.176C111.025 33.884 110.88 33.9442 110.773 34.0512C110.666 34.1583 110.605 34.3034 110.605 34.4548V36.3333C110.605 36.4846 110.666 36.6298 110.773 36.7369C110.88 36.8439 111.025 36.904 111.176 36.904H119.699C119.85 36.904 119.995 36.8439 120.102 36.7369C120.209 36.6298 120.269 36.4846 120.269 36.3333V34.4548ZM117.455 35.8501H116.966V35.3608H117.455V35.8501ZM118.762 36.0947C118.666 36.0947 118.571 36.066 118.491 36.0122C118.41 35.9585 118.348 35.8821 118.31 35.7927C118.273 35.7033 118.264 35.6049 118.283 35.51C118.302 35.4151 118.348 35.3279 118.417 35.2595C118.485 35.1911 118.572 35.1445 118.667 35.1256C118.762 35.1067 118.86 35.1164 118.95 35.1534C119.039 35.1905 119.116 35.2532 119.169 35.3336C119.223 35.4141 119.252 35.5087 119.252 35.6054C119.252 35.6699 119.239 35.7338 119.214 35.7934C119.189 35.8529 119.153 35.907 119.107 35.9524C119.062 35.9979 119.007 36.0339 118.948 36.0583C118.888 36.0827 118.824 36.0951 118.759 36.0947H118.762Z" fill="white"/>
<path opacity="0.2" d="M123.054 23.3987H109.25C108.259 23.3987 107.456 24.2018 107.456 25.1926V38.997C107.456 39.9877 108.259 40.7909 109.25 40.7909H123.054C124.045 40.7909 124.848 39.9877 124.848 38.997V25.1926C124.848 24.2018 124.045 23.3987 123.054 23.3987Z" fill="white"/>
<path opacity="0.2" d="M90.2507 41.3013H69.9412C68.4835 41.3013 67.3018 42.483 67.3018 43.9408V64.2503C67.3018 65.708 68.4835 66.8897 69.9412 66.8897H90.2507C91.7085 66.8897 92.8902 65.708 92.8902 64.2503V43.9408C92.8902 42.483 91.7085 41.3013 90.2507 41.3013Z" fill="black"/>
<path d="M92.534 39.4922H75.5193C74.2968 39.4922 73.3057 40.4833 73.3057 41.7058V58.7205C73.3057 59.9431 74.2968 60.9342 75.5193 60.9342H92.534C93.7566 60.9342 94.7477 59.9431 94.7477 58.7205V41.7058C94.7477 40.4833 93.7566 39.4922 92.534 39.4922Z" fill="#0E53BE"/>
<path opacity="0.5" d="M92.534 39.4922H75.5193C74.2968 39.4922 73.3057 40.4833 73.3057 41.7058V58.7205C73.3057 59.9431 74.2968 60.9342 75.5193 60.9342H92.534C93.7566 60.9342 94.7477 59.9431 94.7477 58.7205V41.7058C94.7477 40.4833 93.7566 39.4922 92.534 39.4922Z" fill="white"/>
<path d="M78.0956 56.0992C77.9399 55.9436 77.8164 55.7588 77.7321 55.5554C77.6479 55.352 77.6045 55.134 77.6045 54.9139C77.6045 54.6937 77.6479 54.4757 77.7321 54.2723C77.8164 54.069 77.9399 53.8842 78.0956 53.7285L82.0216 49.8206C82.1089 49.7324 82.2129 49.6624 82.3274 49.6146C82.442 49.5668 82.5649 49.5422 82.689 49.5422C82.8131 49.5422 82.936 49.5668 83.0506 49.6146C83.1651 49.6624 83.2691 49.7324 83.3564 49.8206L84.3893 50.8505C84.4776 50.938 84.5476 51.0423 84.5955 51.1571C84.6433 51.2719 84.6679 51.395 84.6679 51.5194C84.6679 51.6438 84.6433 51.7669 84.5955 51.8817C84.5476 51.9965 84.4776 52.1007 84.3893 52.1883L80.4784 56.0992C80.3229 56.2575 80.1375 56.3832 79.9329 56.469C79.7284 56.5548 79.5088 56.5989 79.287 56.5989C79.0651 56.5989 78.8455 56.5548 78.641 56.469C78.4364 56.3832 78.251 56.2575 78.0956 56.0992Z" fill="white"/>
<path d="M85.3013 49.6636L84.5312 48.8935L88.9495 44.4753L89.9129 44.282L89.7196 45.2454L85.3013 49.6636Z" fill="white"/>
<path d="M84.8661 50.6873L83.5071 49.3252C83.4774 49.297 83.4537 49.2631 83.4376 49.2254C83.4214 49.1878 83.4131 49.1473 83.4131 49.1063C83.4131 49.0653 83.4214 49.0248 83.4376 48.9872C83.4537 48.9495 83.4774 48.9156 83.5071 48.8873C83.5353 48.8572 83.5695 48.8331 83.6074 48.8167C83.6453 48.8002 83.6862 48.7917 83.7275 48.7917C83.7689 48.7917 83.8098 48.8002 83.8477 48.8167C83.8856 48.8331 83.9198 48.8572 83.948 48.8873L85.307 50.2463C85.3372 50.2746 85.3612 50.3087 85.3777 50.3467C85.3941 50.3846 85.4026 50.4255 85.4026 50.4668C85.4026 50.5081 85.3941 50.549 85.3777 50.587C85.3612 50.6249 85.3372 50.659 85.307 50.6873C85.2788 50.7174 85.2446 50.7415 85.2067 50.7579C85.1688 50.7744 85.1279 50.7829 85.0865 50.7829C85.0452 50.7829 85.0043 50.7744 84.9664 50.7579C84.9285 50.7415 84.8943 50.7174 84.8661 50.6873Z" fill="white"/>
<path d="M83.0359 48.0781L81.1725 46.2087C81.5198 45.2755 80.8162 44.1279 80.0521 43.8259L80.037 45.2634C80.037 45.4236 79.9734 45.5773 79.8601 45.6905C79.7468 45.8038 79.5932 45.8674 79.433 45.8674C79.2728 45.8674 79.1192 45.8038 79.0059 45.6905C78.8927 45.5773 78.829 45.4236 78.829 45.2634V43.8501C78.4785 43.9921 78.1758 44.2313 77.9564 44.5394C77.7371 44.8476 77.6103 45.2119 77.5908 45.5896C77.5953 46.0355 77.7611 46.4647 78.0576 46.7978C78.354 47.131 78.7611 47.3454 79.2035 47.4016C79.5114 47.4489 79.8264 47.4048 80.1095 47.2748L81.9879 49.1592L83.0359 48.0781Z" fill="white"/>
<path d="M89.2393 55.1691V56.5976C89.5898 56.4555 89.8925 56.2164 90.1119 55.9083C90.3312 55.6001 90.458 55.2358 90.4775 54.8581C90.4803 54.414 90.3232 53.9837 90.0348 53.646C89.7465 53.3082 89.3461 53.0856 88.9071 53.0189C88.6182 52.959 88.318 52.9885 88.0464 53.1034L86.0954 51.1465L85.0264 52.2156L86.9652 54.1574C86.4035 55.305 87.2672 56.2714 88.0434 56.5734V55.154C88.0434 54.9938 88.107 54.8402 88.2203 54.7269C88.3335 54.6137 88.4872 54.55 88.6474 54.55C88.7269 54.5516 88.8054 54.5689 88.8783 54.6009C88.9512 54.6329 89.017 54.679 89.072 54.7365C89.127 54.794 89.1701 54.8619 89.1988 54.9361C89.2275 55.0104 89.2413 55.0895 89.2393 55.1691Z" fill="white"/>
<path opacity="0.2" d="M93.4403 39.4922H76.4256C75.203 39.4922 74.2119 40.4833 74.2119 41.7058V58.7205C74.2119 59.9431 75.203 60.9342 76.4256 60.9342H93.4403C94.6628 60.9342 95.6539 59.9431 95.6539 58.7205V41.7058C95.6539 40.4833 94.6628 39.4922 93.4403 39.4922Z" fill="white"/>
<path d="M88.0315 35.6116H108.543C110.016 35.6116 111.21 34.4177 111.21 32.9449V12.4331C111.21 10.9603 110.016 9.76641 108.543 9.76641L88.0315 9.76641C86.5587 9.76641 85.3648 10.9603 85.3648 12.4331V32.9449C85.3648 34.4177 86.5587 35.6116 88.0315 35.6116Z" fill="#0E53BE"/>
<path opacity="0.2" d="M107.064 13.8706H82.5835C80.8255 13.8706 79.4004 15.2957 79.4004 17.0537V41.5338C79.4004 43.2918 80.8255 44.7169 82.5835 44.7169H107.064C108.822 44.7169 110.247 43.2918 110.247 41.5338V17.0537C110.247 15.2957 108.822 13.8706 107.064 13.8706Z" fill="black"/>
<path opacity="0.5" d="M88.0315 35.6116H108.543C110.016 35.6116 111.21 34.4177 111.21 32.9449V12.4331C111.21 10.9603 110.016 9.76641 108.543 9.76641L88.0315 9.76641C86.5587 9.76641 85.3648 10.9603 85.3648 12.4331V32.9449C85.3648 34.4177 86.5587 35.6116 88.0315 35.6116Z" fill="white"/>
<path d="M98.2784 14.6799L90.3721 17.7845C90.3721 17.7845 91.3717 28.6565 98.2875 30.695C105.206 28.6565 106.206 17.7845 106.206 17.7845L98.2784 14.6799ZM98.0791 25.2076C98.0277 25.2753 97.9615 25.3303 97.8856 25.3685C97.8098 25.4067 97.7262 25.4271 97.6412 25.4281C97.5554 25.4267 97.471 25.4052 97.395 25.3654C97.319 25.3255 97.2533 25.2684 97.2033 25.1986L94.4279 21.3723C94.3857 21.3141 94.3553 21.2483 94.3385 21.1785C94.3217 21.1086 94.3189 21.0362 94.3301 20.9652C94.3413 20.8943 94.3664 20.8262 94.4039 20.765C94.4414 20.7037 94.4906 20.6504 94.5487 20.6082C94.6068 20.566 94.6727 20.5356 94.7425 20.5188C94.8124 20.502 94.8848 20.4991 94.9558 20.5103C95.0267 20.5216 95.0948 20.5466 95.156 20.5842C95.2173 20.6217 95.2705 20.6709 95.3128 20.729L97.6563 23.9544L101.486 18.8989C101.573 18.7838 101.703 18.7081 101.846 18.6883C101.989 18.6685 102.134 18.7062 102.25 18.7932C102.363 18.89 102.436 19.0253 102.456 19.1731C102.475 19.3208 102.44 19.4705 102.355 19.5935L98.0791 25.2076Z" fill="white"/>
<path opacity="0.2" d="M89.1213 35.6116H109.633C111.106 35.6116 112.3 34.4177 112.3 32.9449V12.4331C112.3 10.9603 111.106 9.76641 109.633 9.76641L89.1213 9.76641C87.6486 9.76641 86.4547 10.9603 86.4547 12.4331V32.9449C86.4547 34.4177 87.6486 35.6116 89.1213 35.6116Z" fill="white"/>
<path d="M134.785 77.0488H109.039V94.4229H134.785V77.0488Z" fill="#0E53BE"/>
<path opacity="0.7" d="M134.785 77.0488H109.039V94.4229H134.785V77.0488Z" fill="white"/>
<path d="M134.241 78.3867H109.517V93.8431H134.241V78.3867Z" fill="#263238"/>
<path d="M130.976 80.7815H110.648V81.2345H130.976V80.7815Z" fill="#E0E0E0"/>
<path d="M127.953 82.0649H110.648V82.5179H127.953V82.0649Z" fill="#E0E0E0"/>
<path d="M130.976 83.3486H110.648V83.8016H130.976V83.3486Z" fill="#E0E0E0"/>
<path d="M127.953 84.6321H110.648V85.0851H127.953V84.6321Z" fill="#E0E0E0"/>
<path d="M112.844 85.9155H110.648V86.3685H112.844V85.9155Z" fill="#E0E0E0"/>
<path d="M121.91 87.199H110.648V87.652H121.91V87.199Z" fill="#E0E0E0"/>
<path d="M127.953 88.4827H110.648V88.9357H127.953V88.4827Z" fill="#E0E0E0"/>
<path d="M112.844 89.7661H110.648V90.2191H112.844V89.7661Z" fill="#E0E0E0"/>
<path d="M112.844 91.0496H110.648V91.5026H112.844V91.0496Z" fill="#E0E0E0"/>
<path d="M60.5434 40.9026H34.7979V58.2766H60.5434V40.9026Z" fill="#0E53BE"/>
<path opacity="0.7" d="M60.5434 40.9026H34.7979V58.2766H60.5434V40.9026Z" fill="white"/>
<path d="M60.0031 42.2405H35.2783V57.6968H60.0031V42.2405Z" fill="#263238"/>
<path d="M56.7378 44.6353H36.4102V45.0883H56.7378V44.6353Z" fill="#E0E0E0"/>
<path d="M53.7148 45.9187H36.4102V46.3717H53.7148V45.9187Z" fill="#E0E0E0"/>
<path d="M56.7378 47.2024H36.4102V47.6554H56.7378V47.2024Z" fill="#E0E0E0"/>
<path d="M53.7148 48.4858H36.4102V48.9388H53.7148V48.4858Z" fill="#E0E0E0"/>
<path d="M38.6057 49.7693H36.4102V50.2223H38.6057V49.7693Z" fill="#E0E0E0"/>
<path d="M47.6717 51.0527H36.4102V51.5057H47.6717V51.0527Z" fill="#E0E0E0"/>
<path d="M53.7148 52.3364H36.4102V52.7894H53.7148V52.3364Z" fill="#E0E0E0"/>
<path d="M38.6057 53.6199H36.4102V54.0729H38.6057V53.6199Z" fill="#E0E0E0"/>
<path d="M38.6057 54.9033H36.4102V55.3563H38.6057V54.9033Z" fill="#E0E0E0"/>
</g>
<defs>
<clipPath id="clip0_3990_10226">
<rect width="158" height="134" fill="white"/>
</clipPath>
</defs>
</svg>
