<svg width="158" height="134" viewBox="0 0 158 134" fill="none" xmlns="http://www.w3.org/2000/svg">
<g clip-path="url(#clip0_3991_11241)">
<path d="M37.7187 115.677C61.5766 127.384 100.269 127.384 124.113 115.677C147.957 103.97 147.968 84.9858 124.113 73.2793C100.258 61.5727 61.5766 61.5699 37.7187 73.2793C13.8607 84.9886 13.8607 103.976 37.7187 115.677Z" fill="#F5F5F5"/>
<path d="M51.0627 114.145C58.2328 114.145 64.0453 111.375 64.0453 107.957C64.0453 104.539 58.2328 101.769 51.0627 101.769C43.8926 101.769 38.0801 104.539 38.0801 107.957C38.0801 111.375 43.8926 114.145 51.0627 114.145Z" fill="#E0E0E0"/>
<path d="M116.364 95.9418C123.535 95.9418 129.347 93.1712 129.347 89.7535C129.347 86.3358 123.535 83.5652 116.364 83.5652C109.194 83.5652 103.382 86.3358 103.382 89.7535C103.382 93.1712 109.194 95.9418 116.364 95.9418Z" fill="#E0E0E0"/>
<path d="M67.0892 63.1101L56.0777 69.4679C55.6294 69.7601 55.3116 70.2143 55.1909 70.7356L52.4553 86.5343C52.4248 86.7806 52.4644 87.0306 52.5697 87.2553C52.6749 87.4801 52.8415 87.6705 53.0502 87.8048L60.1504 91.9025C60.3795 92.019 60.6328 92.0797 60.8899 92.0797C61.1469 92.0797 61.4002 92.019 61.6293 91.9025L76.8026 83.1427C77.026 83.0246 77.213 82.8477 77.3434 82.6312C77.4738 82.4147 77.5428 82.1667 77.5428 81.914C77.5428 81.6612 77.4738 81.4132 77.3434 81.1967C77.213 80.9802 77.026 80.8034 76.8026 80.6852L71.3427 77.5327C71.1219 77.3905 70.9335 77.2033 70.7898 76.9835C70.6461 76.7636 70.5503 76.516 70.5087 76.2567L69.2938 64.336C69.2585 64.0844 69.1708 63.843 69.0362 63.6275C68.9016 63.412 68.7232 63.2272 68.5126 63.085C68.2899 62.9779 68.0451 62.9244 67.798 62.9287C67.5508 62.9331 67.3081 62.9952 67.0892 63.1101Z" fill="#263238"/>
<path d="M60.8906 89.1279V92.0831C61.1482 92.0869 61.4025 92.0257 61.6301 91.9051L76.8033 83.1454C77.0144 83.013 77.1913 82.8327 77.3198 82.6193C77.4482 82.4058 77.5246 82.1651 77.5428 81.9166C77.5282 81.6265 77.4265 81.3475 77.2509 81.116H74.7684L60.8906 89.1279Z" fill="#455A64"/>
<path d="M68.4768 63.9163L57.4652 70.2714C57.017 70.5643 56.7001 71.0198 56.5812 71.5418L54.0903 85.8811C54.0594 86.1274 54.0989 86.3774 54.2042 86.6023C54.3095 86.8271 54.4762 87.0175 54.6852 87.1515L60.1451 90.304C60.3746 90.4192 60.6278 90.4792 60.8846 90.4792C61.1414 90.4792 61.3946 90.4192 61.6241 90.304L76.8029 81.5415C77.2115 81.3052 77.2115 80.9243 76.8029 80.688L71.343 77.5355C71.1222 77.3933 70.9338 77.2061 70.7901 76.9863C70.6464 76.7664 70.5506 76.5188 70.509 76.2595L69.2941 64.3388C69.2965 64.2429 69.2718 64.1482 69.2229 64.0657C69.174 63.9831 69.1029 63.9159 69.0177 63.8718C68.9324 63.8278 68.8365 63.8086 68.7408 63.8164C68.6452 63.8243 68.5537 63.8589 68.4768 63.9163Z" fill="#263238"/>
<path d="M76.8026 80.6878L71.3427 77.5353C71.1238 77.3972 70.9386 77.212 70.8006 76.9932L54.2012 86.5786C54.3009 86.8156 54.4719 87.0157 54.6905 87.1513L60.1504 90.3038C60.3799 90.419 60.6331 90.479 60.8899 90.479C61.1466 90.479 61.3998 90.419 61.6293 90.3038L76.8026 81.5412C77.2112 81.3049 77.2112 80.9241 76.8026 80.6878Z" fill="#37474F"/>
<path d="M32.0977 94.524L31.3944 94.1181C31.0925 93.9214 30.8412 93.6562 30.661 93.3442C30.4809 93.0322 30.3768 92.682 30.3574 92.3222V45.04C30.377 44.681 30.4812 44.3317 30.6614 44.0206C30.8416 43.7095 31.0927 43.4453 31.3944 43.2497L89.1628 10.0843C89.4838 9.9218 89.8385 9.83716 90.1983 9.83716C90.5581 9.83716 90.9128 9.9218 91.2339 10.0843L91.7732 10.3956C92.0748 10.5917 92.3258 10.8564 92.5055 11.168C92.6853 11.4797 92.7887 11.8294 92.8073 12.1887V59.496C92.788 59.8551 92.6843 60.2046 92.5046 60.5162C92.325 60.8277 92.0744 61.0925 91.7732 61.2891L34.1688 94.524C33.848 94.6871 33.4932 94.7721 33.1333 94.7721C32.7733 94.7721 32.4185 94.6871 32.0977 94.524Z" fill="#455A64"/>
<path d="M34.5219 46.2577L30.6632 44.0337C30.4757 44.342 30.3704 44.6933 30.3574 45.054V92.3334C30.3768 92.6932 30.4809 93.0434 30.661 93.3554C30.8412 93.6675 31.0925 93.9326 31.3944 94.1293L32.0977 94.524C32.4185 94.6871 32.7733 94.7722 33.1333 94.7722C33.4932 94.7722 33.848 94.6871 34.1688 94.524L34.5219 94.3211V46.2577Z" fill="#263238"/>
<path d="M33.1348 93.9374V46.6524C33.1543 46.2933 33.2581 45.9439 33.4378 45.6324C33.6174 45.3209 33.8679 45.056 34.1689 44.8593L91.7733 11.6022C92.346 11.2714 92.8075 11.5382 92.8075 12.1999V59.496C92.7882 59.8551 92.6845 60.2047 92.5048 60.5162C92.3251 60.8277 92.0745 61.0925 91.7733 61.2891L34.1689 94.524C33.599 94.866 33.1348 94.5963 33.1348 93.9374Z" fill="#37474F"/>
<path d="M60.1838 76.3122L65.641 73.1597C66.0496 72.9234 66.3832 73.093 66.3832 73.535C66.3645 73.7837 66.2876 74.0245 66.1586 74.2379C66.0297 74.4514 65.8524 74.6315 65.641 74.7638L60.1838 77.9135C59.7752 78.1498 59.4443 77.983 59.4443 77.541C59.4625 77.2925 59.5389 77.0518 59.6674 76.8383C59.7959 76.6249 59.9728 76.4446 60.1838 76.3122Z" fill="#E0E0E0"/>
<path d="M35.7866 46.3049L90.0383 14.8909C90.3636 14.7019 90.6277 14.852 90.6277 15.2301V56.438C90.6168 56.6433 90.5579 56.8431 90.4555 57.0213C90.3531 57.1995 90.2102 57.3511 90.0383 57.4639L35.7894 88.7917C35.4614 88.9807 35.1973 88.8278 35.1973 88.4525V47.3308C35.2081 47.1255 35.2671 46.9257 35.3695 46.7475C35.4719 46.5693 35.6148 46.4177 35.7866 46.3049Z" fill="white"/>
<path d="M37.8103 47.0944L87.5834 18.3519C88.4869 17.8321 89.2264 18.2574 89.2264 19.2999V55.0924C89.2117 55.3568 89.1352 55.614 89.0029 55.8434C88.8706 56.0728 88.6862 56.2679 88.4647 56.4129L37.5156 85.8225C37.0958 86.0672 36.7539 85.867 36.7539 85.3833V48.9319C36.7734 48.5642 36.8793 48.2063 37.0628 47.8871C37.2463 47.5678 37.5024 47.2963 37.8103 47.0944Z" fill="#E6E6E6"/>
<path d="M58.2188 40.845L85.649 25.0073V30.5173L58.2188 46.3522V40.845Z" fill="#F5F5F5"/>
<path d="M58.2188 48.5344L85.649 32.6968V46.4967L58.2188 62.3344V48.5344Z" fill="#F0F0F0"/>
<path d="M89.227 20.1675V19.3085C89.227 18.266 88.4875 17.8406 87.584 18.3605L37.822 47.0946C37.5148 47.2959 37.2592 47.5666 37.0757 47.8848C36.8922 48.203 36.786 48.5598 36.7656 48.9266V50.4584L89.227 20.1675Z" fill="#0E53BE"/>
<path d="M82.3372 22.1187C82.1744 22.2275 82.0392 22.3729 81.9427 22.5433C81.8461 22.7138 81.7908 22.9044 81.7812 23.1001C81.7813 23.4615 82.0342 23.606 82.3372 23.4253C82.5002 23.3173 82.6355 23.1724 82.7321 23.0024C82.8287 22.8324 82.8839 22.6421 82.8932 22.4468C82.9044 22.0854 82.6514 21.9408 82.3372 22.1187Z" fill="white"/>
<path d="M84.5833 20.8233C84.4201 20.9318 84.2848 21.0771 84.1882 21.2476C84.0916 21.4181 84.0365 21.6089 84.0273 21.8047C84.0273 22.1633 84.2803 22.3106 84.5833 22.1299C84.7459 22.0214 84.8808 21.8764 84.9773 21.7065C85.0739 21.5366 85.1293 21.3465 85.1393 21.1514C85.1477 20.79 84.8947 20.6426 84.5833 20.8233Z" fill="white"/>
<path d="M86.8275 19.528C86.665 19.6365 86.53 19.7815 86.4335 19.9514C86.337 20.1213 86.2815 20.3114 86.2715 20.5065C86.2715 20.8679 86.5245 21.0153 86.8275 20.8346C86.9907 20.7261 87.1261 20.5808 87.2226 20.4103C87.3192 20.2398 87.3743 20.049 87.3835 19.8532C87.3946 19.4946 87.1416 19.3473 86.8275 19.528Z" fill="white"/>
<path d="M39.1368 70.06C39.0861 70.0595 39.0363 70.0461 38.9922 70.0211C38.9476 69.9956 38.9104 69.9588 38.8845 69.9144C38.8587 69.87 38.845 69.8195 38.8449 69.7681V51.8649C38.8432 51.8135 38.8558 51.7626 38.8814 51.7179C38.9069 51.6733 38.9443 51.6366 38.9894 51.6119L54.4685 42.6436C54.5134 42.6183 54.5642 42.605 54.6158 42.605C54.6674 42.605 54.7182 42.6183 54.7631 42.6436C54.808 42.6695 54.8453 42.7068 54.8711 42.7517C54.897 42.7966 54.9106 42.8476 54.9105 42.8994V60.8165C54.9104 60.8679 54.8967 60.9184 54.8708 60.9628C54.845 61.0072 54.8078 61.044 54.7631 61.0695L39.2841 70.0211C39.2392 70.0465 39.1884 70.0599 39.1368 70.06ZM39.4315 52.0345V69.2705L54.3239 60.6525V43.4165L39.4315 52.0345Z" fill="#FAFAFA"/>
<path d="M44.4713 63.5964C43.9297 63.6022 43.3963 63.464 42.9256 63.1961C41.8136 62.5539 41.1992 61.225 41.1992 59.4486C41.1992 55.9236 43.679 51.6146 46.7286 49.8493C48.2604 48.9625 49.7171 48.8262 50.8291 49.4684C51.9411 50.1106 52.5555 51.4394 52.5555 53.2159C52.5555 56.7465 50.073 61.0527 47.0233 62.818C46.2552 63.2959 45.3753 63.5642 44.4713 63.5964ZM49.2835 49.6575C48.4818 49.6892 47.7024 49.9307 47.0233 50.358C44.1349 52.026 41.7858 56.1098 41.7858 59.4486C41.7858 61.0054 42.2945 62.1563 43.2175 62.6873C44.1405 63.2183 45.3887 63.0849 46.7286 62.3092C49.6171 60.6412 51.9689 56.5602 51.9689 53.2159C51.9689 51.6591 51.4602 50.5081 50.5345 49.9772C50.1533 49.7614 49.7215 49.651 49.2835 49.6575Z" fill="#FAFAFA"/>
<path d="M105.386 72.4591L104.31 71.8364C104.285 71.8228 104.256 71.8157 104.227 71.8157C104.198 71.8157 104.169 71.8228 104.143 71.8364L102.197 72.7121C102.167 72.7267 102.133 72.7344 102.099 72.7345C102.065 72.7347 102.032 72.7273 102.001 72.713C101.97 72.6986 101.943 72.6777 101.921 72.6516C101.899 72.6255 101.883 72.5949 101.875 72.562C101.77 72.2241 101.624 71.9002 101.441 71.5973C101.4 71.5267 101.376 71.4475 101.371 71.366C101.365 71.2845 101.379 71.2028 101.411 71.1275L102.706 68.5143C102.738 68.4481 102.744 68.3722 102.723 68.3018C102.702 68.2313 102.655 68.1713 102.592 68.1335L101.185 67.3217C101.154 67.3018 101.12 67.2884 101.083 67.2821C101.047 67.2758 101.01 67.2769 100.974 67.2852C100.938 67.2934 100.904 67.3088 100.874 67.3303C100.844 67.3519 100.818 67.3792 100.799 67.4106L99.1839 69.8404C99.1333 69.9044 99.0692 69.9566 98.9962 69.9931C98.9231 70.0296 98.8429 70.0496 98.7613 70.0516C98.5756 70.0467 98.3898 70.0551 98.2053 70.0767V68.3003L97.1239 67.6775C97.0958 67.6649 97.0648 67.6598 97.0341 67.6627C97.0034 67.6656 96.974 67.6765 96.9488 67.6942L94.7637 68.9563C94.6941 69.0018 94.6348 69.0615 94.5898 69.1314C94.5448 69.2014 94.515 69.28 94.5024 69.3622L94.2855 71.7947C94.2605 71.9664 94.1805 72.1254 94.0576 72.2478C93.6247 72.6487 93.2188 73.0777 92.8427 73.5322C92.7904 73.5912 92.7223 73.6341 92.6465 73.6558C92.5706 73.6775 92.4902 73.677 92.4146 73.6545L91.0107 73.1653C90.9386 73.1426 90.861 73.1445 90.79 73.1707C90.7191 73.1969 90.6589 73.2458 90.6187 73.3098L89.0119 76.0898C88.9757 76.1567 88.9629 76.2338 88.9755 76.3088C88.9881 76.3839 89.0253 76.4525 89.0814 76.504L90.2073 77.4743C90.2646 77.5288 90.3053 77.5985 90.3245 77.6753C90.3437 77.7521 90.3406 77.8328 90.3157 77.9079C90.1094 78.4601 89.9413 79.0258 89.8125 79.601C89.767 79.7677 89.6697 79.9157 89.5345 80.0235L87.5385 81.4274C87.4733 81.4797 87.4199 81.5451 87.3816 81.6193C87.3433 81.6935 87.321 81.7749 87.3161 81.8583V84.3798C87.3134 84.4115 87.3192 84.4435 87.3329 84.4723C87.3466 84.5011 87.3676 84.5257 87.3939 84.5438L88.4698 85.1637L90.0683 84.4076C90.1274 84.5352 90.1933 84.6595 90.2656 84.7801C90.3067 84.8507 90.3309 84.9299 90.3362 85.0114C90.3415 85.0929 90.3278 85.1746 90.2962 85.2499L89.0007 87.8631C88.9688 87.9294 88.9627 88.0052 88.9838 88.0757C89.0049 88.1461 89.0516 88.2062 89.1147 88.244L90.5214 89.0557C90.5853 89.0916 90.6604 89.1024 90.7318 89.086C90.8033 89.0695 90.866 89.027 90.9078 88.9668L92.523 86.537C92.5736 86.473 92.6377 86.4208 92.7107 86.3843C92.7838 86.3478 92.8639 86.3278 92.9456 86.3258C93.2997 86.3332 93.6535 86.2978 93.9992 86.2201C94.0321 86.211 94.0666 86.2093 94.1003 86.2151C94.134 86.2209 94.1659 86.2342 94.1939 86.2538C94.2218 86.2735 94.245 86.2992 94.2618 86.3289C94.2786 86.3587 94.2886 86.3918 94.2911 86.4258L94.5024 88.547C94.5033 88.5772 94.5116 88.6067 94.5266 88.6329C94.5417 88.659 94.5629 88.6811 94.5885 88.6971L95.6644 89.317L96.9543 87.4211C97.0243 87.3753 97.0837 87.3152 97.1287 87.2447C97.1738 87.1743 97.2034 87.0951 97.2156 87.0124L97.4325 84.5827C97.4452 84.5034 97.4771 84.4285 97.5256 84.3645C97.5741 84.3005 97.6376 84.2494 97.7105 84.2158C98.3508 83.9374 98.9278 83.5316 99.4063 83.0231C99.4624 82.9672 99.5324 82.9272 99.6091 82.9071C99.6858 82.8871 99.7664 82.8878 99.8427 82.9091L100.705 83.2122C100.777 83.235 100.855 83.2329 100.926 83.2062C100.997 83.1795 101.057 83.1297 101.097 83.0648L102.703 80.2848C102.739 80.2179 102.752 80.1408 102.74 80.0658C102.727 79.9908 102.69 79.9221 102.634 79.8706L101.894 79.2312C101.837 79.1758 101.796 79.1062 101.774 79.0295C101.753 78.9528 101.752 78.8718 101.772 78.7948C101.934 78.1357 102.002 77.4573 101.975 76.7793C101.976 76.6969 101.995 76.6158 102.031 76.5417C102.067 76.4677 102.119 76.4026 102.183 76.3511L104.18 74.9445C104.245 74.8928 104.298 74.828 104.337 74.7542C104.375 74.6804 104.397 74.5993 104.402 74.5163L105.355 73.3738L105.386 72.4591ZM95.8451 82.4671C93.8074 83.6458 92.5397 82.8091 92.5397 80.4572C92.5397 78.1053 94.2244 75.2197 96.2621 74.0437C98.2998 72.8678 99.5369 73.7213 99.5369 76.0759C99.5369 78.4306 97.8828 81.2801 95.8451 82.456V82.4671Z" fill="#0E53BE"/>
<path opacity="0.1" d="M105.386 72.4591L104.31 71.8364C104.285 71.8228 104.256 71.8157 104.227 71.8157C104.198 71.8157 104.169 71.8228 104.143 71.8364L102.197 72.7121C102.167 72.7267 102.133 72.7344 102.099 72.7345C102.065 72.7347 102.032 72.7273 102.001 72.713C101.97 72.6986 101.943 72.6777 101.921 72.6516C101.899 72.6255 101.883 72.5949 101.875 72.562C101.77 72.2241 101.624 71.9002 101.441 71.5973C101.4 71.5267 101.376 71.4475 101.371 71.366C101.365 71.2845 101.379 71.2028 101.411 71.1275L102.706 68.5143C102.738 68.4481 102.744 68.3722 102.723 68.3018C102.702 68.2313 102.655 68.1713 102.592 68.1335L101.185 67.3217C101.154 67.3018 101.12 67.2884 101.083 67.2821C101.047 67.2758 101.01 67.2769 100.974 67.2852C100.938 67.2934 100.904 67.3088 100.874 67.3303C100.844 67.3519 100.818 67.3792 100.799 67.4106L99.1839 69.8404C99.1333 69.9044 99.0692 69.9566 98.9962 69.9931C98.9231 70.0296 98.8429 70.0496 98.7613 70.0516C98.5756 70.0467 98.3898 70.0551 98.2053 70.0767V68.3003L97.1239 67.6775C97.0958 67.6649 97.0648 67.6598 97.0341 67.6627C97.0034 67.6656 96.974 67.6765 96.9488 67.6942L94.7637 68.9563C94.6941 69.0018 94.6348 69.0615 94.5898 69.1314C94.5448 69.2014 94.515 69.28 94.5024 69.3622L94.2855 71.7947C94.2605 71.9664 94.1805 72.1254 94.0576 72.2478C93.6247 72.6487 93.2188 73.0777 92.8427 73.5322C92.7904 73.5912 92.7223 73.6341 92.6465 73.6558C92.5706 73.6775 92.4902 73.677 92.4146 73.6545L91.0107 73.1653C90.9386 73.1426 90.861 73.1445 90.79 73.1707C90.7191 73.1969 90.6589 73.2458 90.6187 73.3098L89.0119 76.0898C88.9757 76.1567 88.9629 76.2338 88.9755 76.3088C88.9881 76.3839 89.0253 76.4525 89.0814 76.504L90.2073 77.4743C90.2646 77.5288 90.3053 77.5985 90.3245 77.6753C90.3437 77.7521 90.3406 77.8328 90.3157 77.9079C90.1094 78.4601 89.9413 79.0258 89.8125 79.601C89.767 79.7677 89.6697 79.9157 89.5345 80.0235L87.5385 81.4274C87.4733 81.4797 87.4199 81.5451 87.3816 81.6193C87.3433 81.6935 87.321 81.7749 87.3161 81.8583V84.3798C87.3134 84.4115 87.3192 84.4435 87.3329 84.4723C87.3466 84.5011 87.3676 84.5257 87.3939 84.5438L88.4698 85.1637L90.0683 84.4076C90.1274 84.5352 90.1933 84.6595 90.2656 84.7801C90.3067 84.8507 90.3309 84.9299 90.3362 85.0114C90.3415 85.0929 90.3278 85.1746 90.2962 85.2499L89.0007 87.8631C88.9688 87.9294 88.9627 88.0052 88.9838 88.0757C89.0049 88.1461 89.0516 88.2062 89.1147 88.244L90.5214 89.0557C90.5853 89.0916 90.6604 89.1024 90.7318 89.086C90.8033 89.0695 90.866 89.027 90.9078 88.9668L92.523 86.537C92.5736 86.473 92.6377 86.4208 92.7107 86.3843C92.7838 86.3478 92.8639 86.3278 92.9456 86.3258C93.2997 86.3332 93.6535 86.2978 93.9992 86.2201C94.0321 86.211 94.0666 86.2093 94.1003 86.2151C94.134 86.2209 94.1659 86.2342 94.1939 86.2538C94.2218 86.2735 94.245 86.2992 94.2618 86.3289C94.2786 86.3587 94.2886 86.3918 94.2911 86.4258L94.5024 88.547C94.5033 88.5772 94.5116 88.6067 94.5266 88.6329C94.5417 88.659 94.5629 88.6811 94.5885 88.6971L95.6644 89.317L96.9543 87.4211C97.0243 87.3753 97.0837 87.3152 97.1287 87.2447C97.1738 87.1743 97.2034 87.0951 97.2156 87.0124L97.4325 84.5827C97.4452 84.5034 97.4771 84.4285 97.5256 84.3645C97.5741 84.3005 97.6376 84.2494 97.7105 84.2158C98.3508 83.9374 98.9278 83.5316 99.4063 83.0231C99.4624 82.9672 99.5324 82.9272 99.6091 82.9071C99.6858 82.8871 99.7664 82.8878 99.8427 82.9091L100.705 83.2122C100.777 83.235 100.855 83.2329 100.926 83.2062C100.997 83.1795 101.057 83.1297 101.097 83.0648L102.703 80.2848C102.739 80.2179 102.752 80.1408 102.74 80.0658C102.727 79.9908 102.69 79.9221 102.634 79.8706L101.894 79.2312C101.837 79.1758 101.796 79.1062 101.774 79.0295C101.753 78.9528 101.752 78.8718 101.772 78.7948C101.934 78.1357 102.002 77.4573 101.975 76.7793C101.976 76.6969 101.995 76.6158 102.031 76.5417C102.067 76.4677 102.119 76.4026 102.183 76.3511L104.18 74.9445C104.245 74.8928 104.298 74.828 104.337 74.7542C104.375 74.6804 104.397 74.5993 104.402 74.5163L105.355 73.3738L105.386 72.4591ZM95.8451 82.4671C93.8074 83.6458 92.5397 82.8091 92.5397 80.4572C92.5397 78.1053 94.2244 75.2197 96.2621 74.0437C98.2998 72.8678 99.5369 73.7213 99.5369 76.0759C99.5369 78.4306 97.8828 81.2801 95.8451 82.456V82.4671Z" fill="black"/>
<path d="M102.276 69.3845L102.704 68.5199C102.736 68.4537 102.742 68.3779 102.721 68.3074C102.7 68.2369 102.653 68.1769 102.59 68.1391L101.183 67.3273C101.152 67.3075 101.117 67.294 101.081 67.2877C101.045 67.2815 101.007 67.2825 100.971 67.2908C100.935 67.2991 100.901 67.3144 100.872 67.336C100.842 67.3575 100.816 67.3848 100.797 67.4163L99.1817 69.846C99.1511 69.8857 99.1146 69.9205 99.0732 69.9488L100.88 70.9941L102.276 69.3845Z" fill="#0E53BE"/>
<path d="M89.6741 79.8679C89.6335 79.9314 89.5817 79.987 89.5212 80.0319L87.5252 81.4358C87.4718 81.4776 87.4274 81.5295 87.3945 81.5887L88.6122 82.2921L91.2615 80.7825L89.6741 79.8679Z" fill="#0E53BE"/>
<path d="M90.8887 73.1541C90.8327 73.1561 90.7781 73.1719 90.7296 73.2C90.6811 73.2281 90.6403 73.2677 90.6107 73.3153L89.0039 76.0953C88.9712 76.1576 88.9586 76.2285 88.9677 76.2982L90.3577 77.0989L92.5567 74.1243L90.8887 73.1541Z" fill="#0E53BE"/>
<path d="M94.5361 69.226L96.2486 70.2157L98.1946 69.1037V68.3197L97.1132 67.697C97.0851 67.6844 97.0541 67.6793 97.0234 67.6822C96.9927 67.6851 96.9633 67.696 96.9381 67.7137L94.753 68.9758C94.658 69.0364 94.5826 69.1234 94.5361 69.226Z" fill="#0E53BE"/>
<path d="M105.387 72.4591C105.36 72.4445 105.331 72.4368 105.301 72.4368C105.27 72.4368 105.241 72.4445 105.214 72.4591L103.268 73.3376C103.238 73.3522 103.204 73.3599 103.17 73.36C103.136 73.3602 103.103 73.3528 103.072 73.3385C103.041 73.3241 103.014 73.3031 102.992 73.277C102.97 73.2509 102.955 73.2204 102.946 73.1875C102.874 72.9518 102.781 72.7229 102.668 72.5036L104.13 71.8392C104.157 71.826 104.186 71.8191 104.215 71.8191C104.244 71.8191 104.274 71.826 104.3 71.8392L105.387 72.4591Z" fill="#0E53BE"/>
<g opacity="0.4">
<path d="M102.276 69.3845L102.704 68.5199C102.736 68.4537 102.742 68.3779 102.721 68.3074C102.7 68.2369 102.653 68.1769 102.59 68.1391L101.183 67.3273C101.152 67.3075 101.117 67.294 101.081 67.2877C101.045 67.2815 101.007 67.2825 100.971 67.2908C100.935 67.2991 100.901 67.3144 100.872 67.336C100.842 67.3575 100.816 67.3848 100.797 67.4163L99.1817 69.846C99.1511 69.8857 99.1146 69.9205 99.0732 69.9488L100.88 70.9941L102.276 69.3845Z" fill="white"/>
<path d="M89.6741 79.8679C89.6335 79.9314 89.5817 79.987 89.5212 80.0319L87.5252 81.4358C87.4718 81.4776 87.4274 81.5295 87.3945 81.5887L88.6122 82.2921L91.2615 80.7825L89.6741 79.8679Z" fill="white"/>
<path d="M90.8887 73.1543C90.8327 73.1563 90.7781 73.1721 90.7296 73.2002C90.6811 73.2283 90.6403 73.2679 90.6107 73.3155L89.0039 76.0955C88.9712 76.1579 88.9586 76.2287 88.9677 76.2985L90.3577 77.0991L92.5567 74.1245L90.8887 73.1543Z" fill="white"/>
<path d="M94.5361 69.226L96.2486 70.2157L98.1946 69.1037V68.3197L97.1132 67.697C97.0851 67.6844 97.0541 67.6793 97.0234 67.6822C96.9927 67.6851 96.9633 67.696 96.9381 67.7137L94.753 68.9758C94.658 69.0364 94.5826 69.1234 94.5361 69.226Z" fill="white"/>
<path d="M105.387 72.4591C105.36 72.4445 105.331 72.4368 105.301 72.4368C105.27 72.4368 105.241 72.4445 105.214 72.4591L103.268 73.3376C103.238 73.3522 103.204 73.3599 103.17 73.36C103.136 73.3602 103.103 73.3528 103.072 73.3385C103.041 73.3241 103.014 73.3031 102.992 73.277C102.97 73.2509 102.955 73.2204 102.946 73.1875C102.874 72.9518 102.781 72.7229 102.668 72.5036L104.13 71.8392C104.157 71.826 104.186 71.8191 104.215 71.8191C104.244 71.8191 104.274 71.826 104.3 71.8392L105.387 72.4591Z" fill="white"/>
</g>
<path d="M105.464 75.1447V72.6204C105.468 72.5894 105.464 72.5578 105.451 72.5294C105.437 72.5009 105.417 72.4768 105.39 72.4599C105.364 72.4429 105.333 72.4338 105.302 72.4337C105.271 72.4336 105.24 72.4424 105.214 72.4592L103.268 73.3377C103.237 73.3523 103.203 73.3599 103.169 73.3601C103.135 73.3602 103.101 73.3529 103.07 73.3386C103.039 73.3243 103.011 73.3033 102.989 73.2772C102.967 73.2511 102.951 73.2205 102.942 73.1875C102.837 72.8496 102.692 72.5257 102.509 72.2229C102.469 72.1518 102.445 72.0726 102.441 71.9912C102.436 71.9098 102.45 71.8283 102.481 71.753L103.776 69.1371C103.808 69.0709 103.814 68.9953 103.792 68.9252C103.77 68.8552 103.723 68.7958 103.66 68.759L102.253 67.9445C102.189 67.9088 102.113 67.8985 102.042 67.9154C101.971 67.9324 101.908 67.9755 101.867 68.0362L100.251 70.4659C100.202 70.5308 100.138 70.5834 100.064 70.6196C99.9912 70.6558 99.9106 70.6745 99.8288 70.6744C99.4754 70.6679 99.1226 70.7043 98.778 70.7828C98.7451 70.792 98.7105 70.7937 98.6769 70.7879C98.6432 70.782 98.6112 70.7688 98.5833 70.7491C98.5554 70.7294 98.5322 70.7038 98.5153 70.674C98.4985 70.6443 98.4885 70.6112 98.4861 70.5771L98.272 68.4532C98.2727 68.4223 98.2646 68.3918 98.2487 68.3652C98.2327 68.3387 98.2096 68.3172 98.182 68.3033C98.1544 68.2893 98.1234 68.2835 98.0926 68.2864C98.0618 68.2893 98.0324 68.3009 98.0079 68.3197L95.8256 69.5819C95.7558 69.6271 95.6963 69.6867 95.6513 69.7567C95.6062 69.8267 95.5766 69.9054 95.5643 69.9877L95.3447 72.4202C95.3189 72.5917 95.239 72.7505 95.1167 72.8734C94.684 73.2735 94.2791 73.7026 93.9046 74.1577C93.8519 74.217 93.7833 74.26 93.707 74.2817C93.6307 74.3033 93.5498 74.3028 93.4737 74.2801L92.0837 73.7908C92.0112 73.7675 91.933 73.7691 91.8615 73.7952C91.79 73.8214 91.7293 73.8707 91.689 73.9354L90.0849 76.7154C90.0483 76.7822 90.0352 76.8594 90.0478 76.9345C90.0604 77.0097 90.098 77.0784 90.1544 77.1296L91.2803 78.0998C91.3375 78.1539 91.378 78.2232 91.3972 78.2995C91.4164 78.3758 91.4135 78.456 91.3887 78.5307C91.1833 79.0843 91.0142 79.6508 90.8828 80.2265C90.8377 80.3934 90.7402 80.5415 90.6048 80.649L88.6115 82.039C88.5454 82.0906 88.491 82.1557 88.4522 82.2301C88.4133 82.3044 88.3909 82.3862 88.3863 82.47V84.9914C88.382 85.0224 88.3866 85.054 88.3997 85.0824C88.4127 85.1109 88.4336 85.135 88.4599 85.1519C88.4862 85.1689 88.5168 85.178 88.5481 85.1781C88.5794 85.1782 88.6101 85.1694 88.6365 85.1527L90.5825 84.277C90.6133 84.2618 90.6471 84.2538 90.6815 84.2534C90.7158 84.253 90.7497 84.2602 90.7809 84.2746C90.8121 84.289 90.8396 84.3101 90.8616 84.3365C90.8835 84.3629 90.8993 84.3938 90.9078 84.4271C91.0104 84.7703 91.1561 85.0991 91.3415 85.4056C91.3806 85.4775 91.4034 85.5571 91.4082 85.6388C91.413 85.7205 91.3997 85.8023 91.3693 85.8782L90.0738 88.4914C90.0425 88.5578 90.0368 88.6334 90.0578 88.7037C90.0789 88.774 90.1252 88.8341 90.1878 88.8723L91.5945 89.684C91.659 89.7205 91.7349 89.7313 91.807 89.7143C91.8791 89.6973 91.9422 89.6537 91.9837 89.5923L93.5988 87.1654C93.6494 87.1013 93.7135 87.0491 93.7866 87.0126C93.8596 86.9761 93.9398 86.9561 94.0214 86.9541C94.3747 86.9615 94.7275 86.9261 95.0722 86.8485C95.1052 86.8393 95.1397 86.8376 95.1734 86.8434C95.207 86.8492 95.239 86.8625 95.2669 86.8822C95.2949 86.9019 95.3181 86.9275 95.3349 86.9572C95.3517 86.987 95.3617 87.0201 95.3641 87.0542L95.5782 89.1753C95.577 89.2065 95.5847 89.2373 95.6004 89.2643C95.6161 89.2912 95.6392 89.3131 95.6669 89.3274C95.6946 89.3417 95.7259 89.3478 95.7569 89.345C95.788 89.3422 95.8176 89.3306 95.8423 89.3115L98.0246 88.0494C98.0945 88.0036 98.154 87.9435 98.199 87.8731C98.2441 87.8026 98.2737 87.7235 98.2859 87.6407L98.5055 85.211C98.5321 85.039 98.6118 84.8796 98.7335 84.7551C99.1661 84.3549 99.5711 83.9258 99.9456 83.4707C99.9986 83.4127 100.067 83.3708 100.143 83.3497C100.218 83.3285 100.298 83.3291 100.374 83.3512L101.778 83.8405C101.85 83.863 101.929 83.8608 102 83.8342C102.072 83.8075 102.132 83.7579 102.172 83.6932L103.776 80.9132C103.812 80.8466 103.825 80.77 103.812 80.6955C103.8 80.6209 103.763 80.5527 103.707 80.5017L102.581 79.5315C102.524 79.4768 102.483 79.407 102.464 79.3303C102.445 79.2536 102.448 79.173 102.473 79.0978C102.678 78.5453 102.847 77.9797 102.979 77.4048C103.024 77.2378 103.121 77.0897 103.257 76.9822L105.253 75.5755C105.316 75.5229 105.368 75.4572 105.405 75.3829C105.441 75.3086 105.461 75.2274 105.464 75.1447ZM96.9182 83.076C94.8804 84.2547 93.2291 83.2984 93.2291 80.9465C93.2291 78.5946 94.8804 75.7312 96.9182 74.5525C98.9559 73.3738 100.61 74.3301 100.61 76.6848C100.61 79.0394 98.9587 81.9001 96.9182 83.076Z" fill="#0E53BE"/>
<path d="M94.6275 92.2305C94.5976 92.2152 94.564 92.2086 94.5306 92.2115C94.4971 92.2145 94.4652 92.2269 94.4385 92.2472L93.5183 92.856C93.4575 92.8915 93.3856 92.9026 93.317 92.8871C93.2484 92.8716 93.1882 92.8307 93.1485 92.7726C93.0945 92.6953 93.0351 92.6219 92.9706 92.553C92.9164 92.4958 92.8778 92.4256 92.8588 92.3491C92.8398 92.2726 92.841 92.1924 92.8622 92.1165L94.3245 91.1908L93.2319 90.5597C93.21 90.5451 93.1855 90.5347 93.1597 90.5292L92.4674 90.3735C92.3912 90.3603 92.3127 90.3708 92.2426 90.4036C92.1725 90.4364 92.1142 90.4899 92.0755 90.557L91.4222 91.7968C91.3331 91.9414 91.1933 92.0475 91.0302 92.0943H90.9885C91.0168 92.0037 91.0364 91.9106 91.0469 91.8163L89.9515 91.188C89.9192 91.1703 89.882 91.1635 89.8455 91.1685C89.809 91.1735 89.775 91.1901 89.7486 91.2158L88.7089 92.022C88.6468 92.0777 88.5972 92.1459 88.5632 92.222C88.5292 92.2982 88.5116 92.3806 88.5115 92.464L88.5727 93.4509C88.5746 93.624 88.5177 93.7925 88.4114 93.9291C88.2403 94.1339 88.0798 94.3473 87.9305 94.5685C87.8813 94.6343 87.8175 94.6878 87.7442 94.725C87.6709 94.7621 87.5901 94.7818 87.5079 94.7825L86.8407 94.7492C86.7611 94.7487 86.6829 94.7706 86.615 94.8124C86.5472 94.8541 86.4925 94.9141 86.4571 94.9855L85.8288 96.3922C85.8051 96.4521 85.8029 96.5184 85.8227 96.5798C85.8425 96.6412 85.8829 96.6937 85.9372 96.7285L86.6767 97.1539C86.7002 97.215 86.706 97.2815 86.6934 97.3457C86.6415 97.5675 86.6025 97.7921 86.5766 98.0185C86.5508 98.1902 86.4721 98.3496 86.3514 98.4744L85.4313 99.3084C85.3737 99.3678 85.33 99.4393 85.3036 99.5177C85.2771 99.5961 85.2685 99.6794 85.2784 99.7615L85.4507 100.765C85.4536 100.793 85.4626 100.819 85.4771 100.843C85.4915 100.866 85.511 100.886 85.5341 100.901L86.6322 101.535L86.6461 100.279C86.7069 100.243 86.7788 100.232 86.8474 100.248C86.916 100.263 86.9762 100.304 87.0159 100.362C87.0701 100.44 87.1305 100.513 87.1966 100.582C87.2508 100.639 87.2891 100.71 87.3076 100.787C87.3261 100.864 87.3243 100.945 87.3022 101.021L86.8324 102.308C86.8131 102.358 86.8118 102.413 86.8285 102.463C86.8452 102.514 86.879 102.557 86.9241 102.586L88.0222 103.22L88.3197 102.403L88.7422 101.352C88.8325 101.207 88.9732 101.101 89.137 101.054C89.282 101.018 89.4242 100.972 89.5623 100.915C89.5932 100.9 89.6269 100.892 89.6613 100.891C89.6956 100.891 89.7297 100.898 89.761 100.912C89.7923 100.926 89.8202 100.947 89.8425 100.973C89.8649 100.999 89.8812 101.029 89.8904 101.063L90.1267 101.841C90.1324 101.866 90.1433 101.89 90.1586 101.911C90.1739 101.932 90.1933 101.95 90.2156 101.963L91.3276 102.597L91.133 101.382L91.4694 101.118C91.5324 101.063 91.5828 100.995 91.6168 100.919C91.6509 100.843 91.668 100.76 91.6668 100.676L91.6056 99.6892C91.6054 99.5165 91.6621 99.3484 91.7669 99.2111C91.9365 99.0081 92.195 98.8997 92.3451 98.6773C92.4313 98.5522 92.523 98.3521 92.6732 98.3576L93.3404 98.391C93.4197 98.3914 93.4975 98.3698 93.5653 98.3286C93.633 98.2873 93.688 98.2281 93.724 98.1575L94.3495 96.748C94.3762 96.6822 94.3766 96.6086 94.3508 96.5424C94.3249 96.4763 94.2747 96.4225 94.2105 96.3922L93.6712 96.1642C93.603 96.132 93.5477 96.0776 93.5144 96.01C93.4811 95.9423 93.4717 95.8654 93.4877 95.7917C93.5376 95.5696 93.5756 95.3451 93.6017 95.1189C93.6274 94.9472 93.7062 94.7878 93.8269 94.663L94.747 93.829C94.8304 93.7434 94.884 93.6333 94.8999 93.5149L95.7339 92.8644L94.6275 92.2305ZM90.4575 98.7218C89.3455 99.6059 88.2557 99.364 88.0528 98.1825C87.8499 97.001 88.77 95.497 89.8959 94.613C91.0218 93.7289 91.9253 93.7957 92.1199 94.9772C92.3145 96.1587 91.5751 97.835 90.4492 98.7218H90.4575Z" fill="#0E53BE"/>
<path opacity="0.1" d="M94.6275 92.2305C94.5976 92.2152 94.564 92.2086 94.5306 92.2115C94.4971 92.2145 94.4652 92.2269 94.4385 92.2472L93.5183 92.856C93.4575 92.8915 93.3856 92.9026 93.317 92.8871C93.2484 92.8716 93.1882 92.8307 93.1485 92.7726C93.0945 92.6953 93.0351 92.6219 92.9706 92.553C92.9164 92.4958 92.8778 92.4256 92.8588 92.3491C92.8398 92.2726 92.841 92.1924 92.8622 92.1165L94.3245 91.1908L93.2319 90.5597C93.21 90.5451 93.1855 90.5347 93.1597 90.5292L92.4674 90.3735C92.3912 90.3603 92.3127 90.3708 92.2426 90.4036C92.1725 90.4364 92.1142 90.4899 92.0755 90.557L91.4222 91.7968C91.3331 91.9414 91.1933 92.0475 91.0302 92.0943H90.9885C91.0168 92.0037 91.0364 91.9106 91.0469 91.8163L89.9515 91.188C89.9192 91.1703 89.882 91.1635 89.8455 91.1685C89.809 91.1735 89.775 91.1901 89.7486 91.2158L88.7089 92.022C88.6468 92.0777 88.5972 92.1459 88.5632 92.222C88.5292 92.2982 88.5116 92.3806 88.5115 92.464L88.5727 93.4509C88.5746 93.624 88.5177 93.7925 88.4114 93.9291C88.2403 94.1339 88.0798 94.3473 87.9305 94.5685C87.8813 94.6343 87.8175 94.6878 87.7442 94.725C87.6709 94.7621 87.5901 94.7818 87.5079 94.7825L86.8407 94.7492C86.7611 94.7487 86.6829 94.7706 86.615 94.8124C86.5472 94.8541 86.4925 94.9141 86.4571 94.9855L85.8288 96.3922C85.8051 96.4521 85.8029 96.5184 85.8227 96.5798C85.8425 96.6412 85.8829 96.6937 85.9372 96.7285L86.6767 97.1539C86.7002 97.215 86.706 97.2815 86.6934 97.3457C86.6415 97.5675 86.6025 97.7921 86.5766 98.0185C86.5508 98.1902 86.4721 98.3496 86.3514 98.4744L85.4313 99.3084C85.3737 99.3678 85.33 99.4393 85.3036 99.5177C85.2771 99.5961 85.2685 99.6794 85.2784 99.7615L85.4507 100.765C85.4536 100.793 85.4626 100.819 85.4771 100.843C85.4915 100.866 85.511 100.886 85.5341 100.901L86.6322 101.535L86.6461 100.279C86.7069 100.243 86.7788 100.232 86.8474 100.248C86.916 100.263 86.9762 100.304 87.0159 100.362C87.0701 100.44 87.1305 100.513 87.1966 100.582C87.2508 100.639 87.2891 100.71 87.3076 100.787C87.3261 100.864 87.3243 100.945 87.3022 101.021L86.8324 102.308C86.8131 102.358 86.8118 102.413 86.8285 102.463C86.8452 102.514 86.879 102.557 86.9241 102.586L88.0222 103.22L88.3197 102.403L88.7422 101.352C88.8325 101.207 88.9732 101.101 89.137 101.054C89.282 101.018 89.4242 100.972 89.5623 100.915C89.5932 100.9 89.6269 100.892 89.6613 100.891C89.6956 100.891 89.7297 100.898 89.761 100.912C89.7923 100.926 89.8202 100.947 89.8425 100.973C89.8649 100.999 89.8812 101.029 89.8904 101.063L90.1267 101.841C90.1324 101.866 90.1433 101.89 90.1586 101.911C90.1739 101.932 90.1933 101.95 90.2156 101.963L91.3276 102.597L91.133 101.382L91.4694 101.118C91.5324 101.063 91.5828 100.995 91.6168 100.919C91.6509 100.843 91.668 100.76 91.6668 100.676L91.6056 99.6892C91.6054 99.5165 91.6621 99.3484 91.7669 99.2111C91.9365 99.0081 92.195 98.8997 92.3451 98.6773C92.4313 98.5522 92.523 98.3521 92.6732 98.3576L93.3404 98.391C93.4197 98.3914 93.4975 98.3698 93.5653 98.3286C93.633 98.2873 93.688 98.2281 93.724 98.1575L94.3495 96.748C94.3762 96.6822 94.3766 96.6086 94.3508 96.5424C94.3249 96.4763 94.2747 96.4225 94.2105 96.3922L93.6712 96.1642C93.603 96.132 93.5477 96.0776 93.5144 96.01C93.4811 95.9423 93.4717 95.8654 93.4877 95.7917C93.5376 95.5696 93.5756 95.3451 93.6017 95.1189C93.6274 94.9472 93.7062 94.7878 93.8269 94.663L94.747 93.829C94.8304 93.7434 94.884 93.6333 94.8999 93.5149L95.7339 92.8644L94.6275 92.2305ZM90.4575 98.7218C89.3455 99.6059 88.2557 99.364 88.0528 98.1825C87.8499 97.001 88.77 95.497 89.8959 94.613C91.0218 93.7289 91.9253 93.7957 92.1199 94.9772C92.3145 96.1587 91.5751 97.835 90.4492 98.7218H90.4575Z" fill="black"/>
<path d="M86.3379 98.4966L85.4261 99.3306C85.3563 99.403 85.3082 99.4935 85.2871 99.5919L86.6382 100.373V100.301C86.6989 100.265 86.7709 100.254 86.8395 100.27C86.9081 100.285 86.9683 100.326 87.0079 100.384L88.309 99.6308L86.3379 98.4966Z" fill="#0E53BE"/>
<path d="M88.6614 95.964C88.7635 95.8038 88.8749 95.6497 88.995 95.5025L87.6967 94.752C87.6378 94.7803 87.5731 94.7946 87.5077 94.7937L86.8405 94.7603C86.7389 94.7596 86.6404 94.7951 86.5625 94.8604L88.5585 96.0141L88.6614 95.964Z" fill="#0E53BE"/>
<path d="M95.7199 92.8561C95.6893 92.8422 95.6556 92.8369 95.6222 92.8408C95.5889 92.8447 95.5573 92.8577 95.5308 92.8783L94.6107 93.4844C94.5502 93.519 94.4789 93.5297 94.4109 93.5142C94.343 93.4988 94.2833 93.4583 94.2437 93.401C94.1886 93.3237 94.1282 93.2503 94.063 93.1814C94.0085 93.1238 93.9699 93.053 93.9509 92.976C93.9319 92.8991 93.9331 92.8185 93.9546 92.7421L94.0435 92.5086L94.4383 92.2473C94.465 92.2269 94.497 92.2146 94.5304 92.2116C94.5639 92.2087 94.5975 92.2153 94.6273 92.2306L95.7199 92.8561Z" fill="#0E53BE"/>
<path d="M93.0096 92.5919C93.0001 92.5784 92.9899 92.5654 92.979 92.553C92.9247 92.4958 92.8862 92.4256 92.8672 92.3491C92.8482 92.2726 92.8494 92.1924 92.8706 92.1165L94.3329 91.1908L93.2403 90.5597C93.2183 90.5451 93.1938 90.5347 93.168 90.5292L92.4758 90.3735C92.3996 90.3603 92.3211 90.3708 92.251 90.4036C92.1809 90.4364 92.1225 90.4899 92.0838 90.557L91.4305 91.7968C91.394 91.8624 91.3438 91.9193 91.2832 91.9636L92.7538 92.8143L93.0096 92.5919Z" fill="#0E53BE"/>
<path d="M88.54 92.3001L89.8911 93.0813L91.0031 92.0638C91.0236 91.9815 91.0385 91.8979 91.0476 91.8136L89.9523 91.1881C89.9199 91.1704 89.8828 91.1636 89.8462 91.1686C89.8097 91.1736 89.7757 91.1902 89.7493 91.2159L88.7096 92.0221C88.6273 92.0963 88.5683 92.1929 88.54 92.3001Z" fill="#0E53BE"/>
<g opacity="0.4">
<path d="M86.3379 98.4966L85.4261 99.3306C85.3563 99.403 85.3082 99.4935 85.2871 99.5919L86.6382 100.373V100.301C86.6989 100.265 86.7709 100.254 86.8395 100.27C86.9081 100.285 86.9683 100.326 87.0079 100.384L88.309 99.6308L86.3379 98.4966Z" fill="white"/>
<path d="M88.6624 95.964C88.7644 95.8038 88.8758 95.6497 88.996 95.5025L87.6977 94.752C87.6388 94.7803 87.5741 94.7946 87.5087 94.7937L86.8415 94.7603C86.7399 94.7596 86.6413 94.7951 86.5635 94.8604L88.5595 96.0141L88.6624 95.964Z" fill="white"/>
<path d="M95.7209 92.8561C95.6903 92.8422 95.6566 92.8369 95.6232 92.8408C95.5899 92.8447 95.5583 92.8577 95.5318 92.8783L94.6116 93.4844C94.5512 93.519 94.4799 93.5297 94.4119 93.5142C94.3439 93.4988 94.2843 93.4583 94.2447 93.401C94.1896 93.3237 94.1292 93.2503 94.064 93.1814C94.0095 93.1238 93.9708 93.053 93.9518 92.976C93.9328 92.8991 93.9341 92.8185 93.9556 92.7421L94.0445 92.5086L94.4393 92.2473C94.466 92.2269 94.4979 92.2146 94.5314 92.2116C94.5648 92.2087 94.5984 92.2153 94.6283 92.2306L95.7209 92.8561Z" fill="white"/>
<path d="M93.0096 92.5919C93.0001 92.5784 92.9899 92.5654 92.979 92.553C92.9247 92.4958 92.8862 92.4256 92.8672 92.3491C92.8482 92.2726 92.8494 92.1924 92.8706 92.1165L94.3329 91.1908L93.2403 90.5597C93.2183 90.5451 93.1938 90.5347 93.168 90.5292L92.4758 90.3735C92.3996 90.3603 92.3211 90.3708 92.251 90.4036C92.1809 90.4364 92.1225 90.4899 92.0838 90.557L91.4305 91.7968C91.394 91.8624 91.3438 91.9193 91.2832 91.9636L92.7538 92.8143L93.0096 92.5919Z" fill="white"/>
<path d="M88.54 92.3001L89.8911 93.0813L91.0031 92.0638C91.0236 91.9815 91.0385 91.8979 91.0476 91.8136L89.9523 91.1881C89.9199 91.1704 89.8828 91.1636 89.8462 91.1686C89.8097 91.1736 89.7757 91.1902 89.7493 91.2159L88.7096 92.0221C88.6273 92.0963 88.5683 92.1929 88.54 92.3001Z" fill="white"/>
</g>
<path d="M95.9785 94.0042L95.8062 93.0006C95.8053 92.9688 95.7953 92.938 95.7774 92.9117C95.7595 92.8854 95.7345 92.8647 95.7053 92.8521C95.6761 92.8396 95.6439 92.8356 95.6125 92.8407C95.5811 92.8459 95.5518 92.8599 95.5282 92.8811L94.608 93.4871C94.5475 93.5218 94.4762 93.5324 94.4082 93.517C94.3403 93.5015 94.2806 93.4611 94.241 93.4037C94.1861 93.3263 94.1257 93.2529 94.0603 93.1841C94.0065 93.1266 93.9683 93.0564 93.9493 92.98C93.9304 92.9036 93.9312 92.8236 93.9519 92.7477L94.4217 91.4772C94.4347 91.4454 94.4404 91.4111 94.4384 91.3769C94.4364 91.3426 94.4269 91.3092 94.4103 91.2791C94.3938 91.249 94.3708 91.2229 94.343 91.2029C94.3151 91.1828 94.2831 91.1692 94.2493 91.1631L93.5571 91.0074C93.4808 90.9933 93.402 91.0035 93.3318 91.0364C93.2615 91.0692 93.2032 91.1233 93.1652 91.1909L92.5146 92.4307C92.4232 92.5742 92.283 92.6798 92.1199 92.7282C91.9739 92.7649 91.8308 92.8123 91.6918 92.87C91.6609 92.8846 91.6272 92.8922 91.593 92.8924C91.5588 92.8926 91.5251 92.8852 91.4941 92.8709C91.463 92.8566 91.4355 92.8356 91.4135 92.8095C91.3915 92.7834 91.3754 92.7528 91.3665 92.7199L91.1302 91.9415C91.1247 91.9104 91.1108 91.8814 91.09 91.8576C91.0692 91.8339 91.0422 91.8164 91.0121 91.8069C90.982 91.7974 90.9499 91.7964 90.9192 91.804C90.8886 91.8115 90.8606 91.8273 90.8383 91.8497L89.7986 92.6643C89.7365 92.72 89.6869 92.7881 89.6529 92.8643C89.6189 92.9404 89.6013 93.0229 89.6012 93.1063L89.6651 94.0932C89.6645 94.2658 89.608 94.4336 89.5039 94.5713C89.331 94.7754 89.1695 94.9889 89.0202 95.2107C88.9698 95.2753 88.9059 95.328 88.8328 95.365C88.7598 95.402 88.6795 95.4224 88.5976 95.4248L87.9304 95.3914C87.8508 95.3909 87.7726 95.4128 87.7047 95.4546C87.6369 95.4964 87.5822 95.5564 87.5468 95.6277L86.9213 97.0261C86.8948 97.0923 86.8947 97.1661 86.9211 97.2323C86.9475 97.2985 86.9983 97.3521 87.063 97.3819L87.6024 97.6127C87.67 97.6448 87.7249 97.6987 87.7582 97.7657C87.7914 97.8328 87.8012 97.9091 87.7858 97.9824C87.7362 98.2045 87.6981 98.4291 87.6719 98.6552C87.6449 98.8265 87.5663 98.9855 87.4467 99.1111L86.5265 99.9451C86.4684 100.004 86.4243 100.076 86.3974 100.154C86.3704 100.232 86.3614 100.316 86.3708 100.398L86.5432 101.402C86.5441 101.434 86.5541 101.464 86.5719 101.491C86.5898 101.517 86.6148 101.538 86.644 101.55C86.6733 101.563 86.7055 101.567 86.7368 101.562C86.7682 101.557 86.7975 101.543 86.8212 101.521L87.7414 100.915C87.8019 100.881 87.8731 100.87 87.9411 100.885C88.0091 100.901 88.0688 100.941 88.1083 100.999C88.1626 101.077 88.223 101.15 88.289 101.218C88.3431 101.276 88.3814 101.347 88.4004 101.424C88.4193 101.501 88.4183 101.581 88.3975 101.658L87.9276 102.925C87.9147 102.957 87.909 102.991 87.9109 103.026C87.9129 103.06 87.9225 103.093 87.939 103.123C87.9555 103.153 87.9785 103.179 88.0064 103.2C88.0342 103.22 88.0662 103.233 88.1 103.239L88.7922 103.395C88.8685 103.409 88.9473 103.399 89.0176 103.366C89.0879 103.333 89.1461 103.279 89.1842 103.212L89.8347 101.972C89.9262 101.828 90.0663 101.723 90.2295 101.674C90.375 101.637 90.518 101.591 90.6576 101.535C90.6883 101.521 90.7218 101.513 90.7558 101.513C90.7898 101.512 90.8235 101.519 90.8545 101.533C90.8854 101.547 90.913 101.568 90.9352 101.594C90.9573 101.62 90.9736 101.65 90.9828 101.683L91.2192 102.461C91.2246 102.492 91.2385 102.521 91.2593 102.545C91.2802 102.569 91.3071 102.586 91.3372 102.596C91.3673 102.605 91.3995 102.606 91.4301 102.598C91.4608 102.591 91.4888 102.575 91.511 102.553L92.5508 101.738C92.6128 101.682 92.6624 101.614 92.6965 101.538C92.7305 101.462 92.7481 101.38 92.7482 101.296L92.6842 100.309C92.6848 100.137 92.7414 99.9688 92.8455 99.8311C93.0183 99.627 93.1798 99.4136 93.3292 99.1917C93.3795 99.1271 93.4435 99.0744 93.5165 99.0374C93.5896 99.0004 93.6699 98.98 93.7517 98.9776L94.4189 99.011C94.4986 99.0115 94.5768 98.9896 94.6446 98.9478C94.7124 98.906 94.7672 98.8461 94.8026 98.7747L95.4308 97.368C95.4573 97.3018 95.4574 97.228 95.431 97.1618C95.4046 97.0956 95.3538 97.042 95.2891 97.0122L94.7498 96.7814C94.6821 96.7493 94.6272 96.6954 94.594 96.6284C94.5607 96.5613 94.5509 96.485 94.5663 96.4117C94.6159 96.1896 94.654 95.965 94.6803 95.7389C94.7079 95.5678 94.7864 95.409 94.9054 95.283L95.8256 94.449C95.8821 94.3906 95.925 94.3204 95.9514 94.2436C95.9778 94.1667 95.9871 94.085 95.9785 94.0042ZM91.5444 99.3502C90.4185 100.237 89.3399 99.9951 89.1369 98.8136C88.934 97.6321 89.6929 95.9558 90.8049 95.0717C91.9169 94.1877 93.0095 94.4268 93.2124 95.6083C93.4154 96.7898 92.6675 98.4661 91.5444 99.3502Z" fill="#0E53BE"/>
<path d="M85.6901 90.3902L84.6142 89.7702C84.5878 89.7572 84.5588 89.7505 84.5294 89.7505C84.5 89.7505 84.471 89.7572 84.4446 89.7702L82.4986 90.6459C82.4682 90.6611 82.4348 90.6693 82.4008 90.6698C82.3668 90.6704 82.3331 90.6634 82.3022 90.6492C82.2713 90.6351 82.2439 90.6143 82.2221 90.5882C82.2003 90.5621 82.1846 90.5315 82.1761 90.4986C82.0716 90.1605 81.926 89.8365 81.7425 89.5339C81.7029 89.4623 81.6796 89.3827 81.6743 89.301C81.669 89.2193 81.6819 89.1375 81.7119 89.0613L83.0018 86.462C83.0335 86.3954 83.0391 86.3194 83.0175 86.2489C82.9959 86.1784 82.9486 86.1185 82.885 86.0812L81.4784 85.2694C81.4141 85.2338 81.3388 85.2234 81.2674 85.2404C81.1959 85.2574 81.1333 85.3004 81.0919 85.3611L79.4768 87.7909C79.4271 87.8558 79.3632 87.9084 79.2899 87.9446C79.2166 87.9807 79.1359 87.9995 79.0542 87.9994C78.8684 87.9953 78.6826 88.0046 78.4982 88.0272V86.2396L77.4196 85.628C77.391 85.6151 77.3596 85.6099 77.3284 85.6128C77.2972 85.6158 77.2673 85.6267 77.2416 85.6447L75.0566 86.904C74.9865 86.9495 74.9271 87.0095 74.8825 87.08C74.8379 87.1506 74.8091 87.23 74.798 87.3127L74.5784 89.7424C74.5518 89.9145 74.4721 90.0739 74.3504 90.1983C73.9178 90.5985 73.5128 91.0276 73.1384 91.4827C73.085 91.5412 73.0164 91.5836 72.9403 91.6052C72.8642 91.6268 72.7835 91.6267 72.7075 91.605L71.3175 91.113C71.2446 91.0909 71.1665 91.0934 71.0952 91.12C71.0239 91.1466 70.9633 91.1959 70.9227 91.2603L69.3159 94.0403C69.2805 94.1076 69.2684 94.1848 69.2815 94.2597C69.2946 94.3346 69.3321 94.4031 69.3881 94.4545L70.5001 95.422C70.5572 95.4768 70.5978 95.5464 70.6174 95.623C70.6371 95.6996 70.6349 95.7802 70.6113 95.8556C70.4042 96.4078 70.2352 96.9734 70.1054 97.5487C70.0603 97.7164 69.9629 97.8654 69.8274 97.974L67.8313 99.3779C67.7662 99.4295 67.7126 99.4944 67.6743 99.5682C67.636 99.6419 67.6137 99.723 67.6089 99.806V102.33C67.6065 102.362 67.6124 102.393 67.6261 102.421C67.6398 102.45 67.6607 102.474 67.6868 102.492L68.7626 103.114L70.3611 102.355C70.4223 102.486 70.489 102.611 70.5585 102.728C70.5996 102.799 70.6238 102.879 70.6291 102.961C70.6344 103.042 70.6207 103.125 70.5891 103.2L69.2936 105.814C69.2616 105.88 69.2556 105.956 69.2767 106.026C69.2978 106.097 69.3445 106.157 69.4076 106.194L70.8143 107.006C70.8785 107.042 70.9538 107.052 71.0253 107.035C71.0967 107.018 71.1593 106.975 71.2007 106.914L72.8159 104.485C72.8659 104.42 72.9304 104.367 73.0041 104.331C73.0779 104.295 73.159 104.276 73.2412 104.276C73.5946 104.283 73.9474 104.246 74.2921 104.168C74.3249 104.159 74.3593 104.158 74.3928 104.164C74.4263 104.17 74.458 104.183 74.4858 104.203C74.5136 104.222 74.5368 104.248 74.5538 104.277C74.5707 104.307 74.581 104.34 74.584 104.374L74.798 106.497C74.7983 106.527 74.8061 106.556 74.8207 106.582C74.8353 106.608 74.8562 106.629 74.8814 106.645L75.9545 107.265L77.2444 105.372C77.3141 105.326 77.3734 105.265 77.4184 105.195C77.4634 105.125 77.4932 105.046 77.5057 104.963L77.7254 102.53C77.7371 102.451 77.7687 102.375 77.8173 102.311C77.8659 102.247 77.9299 102.196 78.0034 102.163C78.6448 101.887 79.2228 101.482 79.7019 100.974C79.7567 100.916 79.826 100.875 79.9025 100.855C79.9789 100.834 80.0596 100.835 80.1356 100.857L80.9974 101.16C81.0695 101.183 81.1473 101.181 81.2183 101.155C81.2893 101.129 81.3496 101.08 81.3894 101.015L82.9962 98.2353C83.0324 98.1684 83.0452 98.0913 83.0326 98.0163C83.02 97.9413 82.9827 97.8726 82.9267 97.8211L82.1873 97.1845C82.1306 97.1287 82.0897 97.059 82.0687 96.9824C82.0477 96.9057 82.0474 96.8248 82.0677 96.748C82.2269 96.0886 82.2943 95.4104 82.2679 94.7325C82.2683 94.6497 82.2873 94.568 82.3234 94.4935C82.3595 94.4189 82.4117 94.3534 82.4764 94.3016L84.4724 92.8977C84.5379 92.8458 84.5916 92.7805 84.63 92.7062C84.6683 92.6319 84.6904 92.5503 84.6948 92.4668L85.6483 91.3242L85.6901 90.3902ZM76.1491 100.398C74.1114 101.574 72.8437 100.74 72.8437 98.3854C72.8437 96.0308 74.5284 93.1479 76.5661 91.972C78.6038 90.796 79.8409 91.6523 79.8409 94.0042C79.8409 96.356 78.1868 99.2139 76.1491 100.39V100.398Z" fill="#0E53BE"/>
<path opacity="0.1" d="M85.6901 90.3902L84.6142 89.7702C84.5878 89.7572 84.5588 89.7505 84.5294 89.7505C84.5 89.7505 84.471 89.7572 84.4446 89.7702L82.4986 90.6459C82.4682 90.6611 82.4348 90.6693 82.4008 90.6698C82.3668 90.6704 82.3331 90.6634 82.3022 90.6492C82.2713 90.6351 82.2439 90.6143 82.2221 90.5882C82.2003 90.5621 82.1846 90.5315 82.1761 90.4986C82.0716 90.1605 81.926 89.8365 81.7425 89.5339C81.7029 89.4623 81.6796 89.3827 81.6743 89.301C81.669 89.2193 81.6819 89.1375 81.7119 89.0613L83.0018 86.462C83.0335 86.3954 83.0391 86.3194 83.0175 86.2489C82.9959 86.1784 82.9486 86.1185 82.885 86.0812L81.4784 85.2694C81.4141 85.2338 81.3388 85.2234 81.2674 85.2404C81.1959 85.2574 81.1333 85.3004 81.0919 85.3611L79.4768 87.7909C79.4271 87.8558 79.3632 87.9084 79.2899 87.9446C79.2166 87.9807 79.1359 87.9995 79.0542 87.9994C78.8684 87.9953 78.6826 88.0046 78.4982 88.0272V86.2396L77.4196 85.628C77.391 85.6151 77.3596 85.6099 77.3284 85.6128C77.2972 85.6158 77.2673 85.6267 77.2416 85.6447L75.0566 86.904C74.9865 86.9495 74.9271 87.0095 74.8825 87.08C74.8379 87.1506 74.8091 87.23 74.798 87.3127L74.5784 89.7424C74.5518 89.9145 74.4721 90.0739 74.3504 90.1983C73.9178 90.5985 73.5128 91.0276 73.1384 91.4827C73.085 91.5412 73.0164 91.5836 72.9403 91.6052C72.8642 91.6268 72.7835 91.6267 72.7075 91.605L71.3175 91.113C71.2446 91.0909 71.1665 91.0934 71.0952 91.12C71.0239 91.1466 70.9633 91.1959 70.9227 91.2603L69.3159 94.0403C69.2805 94.1076 69.2684 94.1848 69.2815 94.2597C69.2946 94.3346 69.3321 94.4031 69.3881 94.4545L70.5001 95.422C70.5572 95.4768 70.5978 95.5464 70.6174 95.623C70.6371 95.6996 70.6349 95.7802 70.6113 95.8556C70.4042 96.4078 70.2352 96.9734 70.1054 97.5487C70.0603 97.7164 69.9629 97.8654 69.8274 97.974L67.8313 99.3779C67.7662 99.4295 67.7126 99.4944 67.6743 99.5682C67.636 99.6419 67.6137 99.723 67.6089 99.806V102.33C67.6065 102.362 67.6124 102.393 67.6261 102.421C67.6398 102.45 67.6607 102.474 67.6868 102.492L68.7626 103.114L70.3611 102.355C70.4223 102.486 70.489 102.611 70.5585 102.728C70.5996 102.799 70.6238 102.879 70.6291 102.961C70.6344 103.042 70.6207 103.125 70.5891 103.2L69.2936 105.814C69.2616 105.88 69.2556 105.956 69.2767 106.026C69.2978 106.097 69.3445 106.157 69.4076 106.194L70.8143 107.006C70.8785 107.042 70.9538 107.052 71.0253 107.035C71.0967 107.018 71.1593 106.975 71.2007 106.914L72.8159 104.485C72.8659 104.42 72.9304 104.367 73.0041 104.331C73.0779 104.295 73.159 104.276 73.2412 104.276C73.5946 104.283 73.9474 104.246 74.2921 104.168C74.3249 104.159 74.3593 104.158 74.3928 104.164C74.4263 104.17 74.458 104.183 74.4858 104.203C74.5136 104.222 74.5368 104.248 74.5538 104.277C74.5707 104.307 74.581 104.34 74.584 104.374L74.798 106.497C74.7983 106.527 74.8061 106.556 74.8207 106.582C74.8353 106.608 74.8562 106.629 74.8814 106.645L75.9545 107.265L77.2444 105.372C77.3141 105.326 77.3734 105.265 77.4184 105.195C77.4634 105.125 77.4932 105.046 77.5057 104.963L77.7254 102.53C77.7371 102.451 77.7687 102.375 77.8173 102.311C77.8659 102.247 77.9299 102.196 78.0034 102.163C78.6448 101.887 79.2228 101.482 79.7019 100.974C79.7567 100.916 79.826 100.875 79.9025 100.855C79.9789 100.834 80.0596 100.835 80.1356 100.857L80.9974 101.16C81.0695 101.183 81.1473 101.181 81.2183 101.155C81.2893 101.129 81.3496 101.08 81.3894 101.015L82.9962 98.2353C83.0324 98.1684 83.0452 98.0913 83.0326 98.0163C83.02 97.9413 82.9827 97.8726 82.9267 97.8211L82.1873 97.1845C82.1306 97.1287 82.0897 97.059 82.0687 96.9824C82.0477 96.9057 82.0474 96.8248 82.0677 96.748C82.2269 96.0886 82.2943 95.4104 82.2679 94.7325C82.2683 94.6497 82.2873 94.568 82.3234 94.4935C82.3595 94.4189 82.4117 94.3534 82.4764 94.3016L84.4724 92.8977C84.5379 92.8458 84.5916 92.7805 84.63 92.7062C84.6683 92.6319 84.6904 92.5503 84.6948 92.4668L85.6483 91.3242L85.6901 90.3902ZM76.1491 100.398C74.1114 101.574 72.8437 100.74 72.8437 98.3854C72.8437 96.0308 74.5284 93.1479 76.5661 91.972C78.6038 90.796 79.8409 91.6523 79.8409 94.0042C79.8409 96.356 78.1868 99.2139 76.1491 100.39V100.398Z" fill="black"/>
<path d="M82.5791 87.3155L83.0016 86.462C83.0334 86.3954 83.039 86.3194 83.0173 86.2489C82.9957 86.1784 82.9485 86.1185 82.8849 86.0812L81.4782 85.2694C81.4139 85.2338 81.3387 85.2234 81.2672 85.2404C81.1957 85.2574 81.1331 85.3004 81.0918 85.3611L79.4766 87.7909C79.4475 87.8319 79.4107 87.8668 79.3682 87.8937L81.1779 88.9362L82.5791 87.3155Z" fill="#0E53BE"/>
<path d="M69.9806 97.8015C69.9375 97.8639 69.885 97.9192 69.8249 97.9655L67.8289 99.3694C67.7756 99.4101 67.7312 99.4612 67.6982 99.5196L68.9159 100.223L71.5652 98.7161L69.9806 97.8015Z" fill="#0E53BE"/>
<path d="M71.1926 91.0879C71.1365 91.0897 71.0818 91.1054 71.0333 91.1335C70.9848 91.1616 70.944 91.2014 70.9146 91.2491L69.3078 94.0291C69.2748 94.0913 69.2621 94.1623 69.2716 94.2321L70.6616 95.0299L72.8606 92.0553L71.1926 91.0879Z" fill="#0E53BE"/>
<path d="M74.8398 87.157L76.5523 88.1467L78.4983 87.0347V86.2396L77.4197 85.628C77.3911 85.6152 77.3597 85.6099 77.3285 85.6128C77.2973 85.6158 77.2674 85.6268 77.2418 85.6447L75.0567 86.9041C74.9616 86.9658 74.8863 87.0536 74.8398 87.157Z" fill="#0E53BE"/>
<path d="M85.6904 90.3902C85.6642 90.3751 85.6344 90.3671 85.6042 90.3671C85.5739 90.3671 85.5442 90.3751 85.518 90.3902L83.572 91.2659C83.5411 91.2805 83.5074 91.2881 83.4733 91.2883C83.4391 91.2885 83.4053 91.2811 83.3743 91.2668C83.3433 91.2525 83.3158 91.2316 83.2938 91.2055C83.2717 91.1794 83.2557 91.1487 83.2467 91.1158C83.1749 90.8808 83.0819 90.6528 82.9688 90.4347L84.4421 89.7702C84.4685 89.7572 84.4975 89.7505 84.5269 89.7505C84.5563 89.7505 84.5854 89.7572 84.6117 89.7702L85.6904 90.3902Z" fill="#0E53BE"/>
<g opacity="0.4">
<path d="M82.58 87.3155L83.0026 86.462C83.0343 86.3954 83.0399 86.3194 83.0183 86.2489C82.9967 86.1784 82.9494 86.1185 82.8858 86.0812L81.4792 85.2694C81.4149 85.2338 81.3397 85.2234 81.2682 85.2404C81.1967 85.2574 81.1341 85.3004 81.0927 85.3611L79.4776 87.7909C79.4485 87.8319 79.4116 87.8668 79.3691 87.8937L81.1789 88.9362L82.58 87.3155Z" fill="white"/>
<path d="M69.9806 97.8018C69.9375 97.8641 69.885 97.9194 69.8249 97.9658L67.8289 99.3697C67.7756 99.4103 67.7312 99.4614 67.6982 99.5198L68.9159 100.223L71.5652 98.7164L69.9806 97.8018Z" fill="white"/>
<path d="M71.1926 91.0879C71.1365 91.0897 71.0818 91.1054 71.0333 91.1335C70.9848 91.1616 70.944 91.2014 70.9146 91.2491L69.3078 94.0291C69.2748 94.0913 69.2621 94.1623 69.2716 94.2321L70.6616 95.0299L72.8606 92.0553L71.1926 91.0879Z" fill="white"/>
<path d="M74.8398 87.157L76.5523 88.1467L78.4983 87.0347V86.2396L77.4197 85.628C77.3911 85.6152 77.3597 85.6099 77.3285 85.6128C77.2973 85.6158 77.2674 85.6268 77.2418 85.6447L75.0567 86.9041C74.9616 86.9658 74.8863 87.0536 74.8398 87.157Z" fill="white"/>
<path d="M85.6904 90.3902C85.6642 90.3751 85.6344 90.3671 85.6042 90.3671C85.5739 90.3671 85.5442 90.3751 85.518 90.3902L83.572 91.2659C83.5411 91.2805 83.5074 91.2881 83.4733 91.2883C83.4391 91.2885 83.4053 91.2811 83.3743 91.2668C83.3433 91.2525 83.3158 91.2316 83.2938 91.2055C83.2717 91.1794 83.2557 91.1487 83.2467 91.1158C83.1749 90.8808 83.0819 90.6528 82.9688 90.4347L84.4421 89.7702C84.4685 89.7572 84.4975 89.7505 84.5269 89.7505C84.5563 89.7505 84.5854 89.7572 84.6117 89.7702L85.6904 90.3902Z" fill="white"/>
</g>
<path d="M85.7815 93.0756V90.5542C85.7859 90.5232 85.7812 90.4916 85.7682 90.4631C85.7552 90.4347 85.7342 90.4106 85.7079 90.3936C85.6816 90.3767 85.651 90.3676 85.6197 90.3675C85.5885 90.3673 85.5578 90.3762 85.5313 90.3929L83.5853 91.2686C83.5545 91.2837 83.5207 91.2918 83.4864 91.2922C83.4521 91.2926 83.4181 91.2854 83.387 91.271C83.3558 91.2566 83.3283 91.2355 83.3063 91.2091C83.2843 91.1827 83.2686 91.1518 83.2601 91.1185C83.1562 90.781 83.0105 90.4579 82.8264 90.1566C82.7873 90.0847 82.7645 90.0051 82.7597 89.9234C82.7549 89.8417 82.7682 89.76 82.7986 89.684L84.0941 87.0708C84.126 87.0046 84.1321 86.9287 84.111 86.8583C84.0899 86.7878 84.0432 86.7278 83.9801 86.69L82.5734 85.8782C82.5089 85.8417 82.433 85.8309 82.3609 85.8479C82.2888 85.865 82.2257 85.9085 82.1842 85.9699L80.5579 88.408C80.5073 88.4721 80.4432 88.5242 80.3702 88.5607C80.2972 88.5973 80.217 88.6172 80.1354 88.6193C79.7821 88.612 79.4293 88.6474 79.0845 88.7249C79.0525 88.7317 79.0195 88.7317 78.9875 88.7248C78.9556 88.7178 78.9254 88.7042 78.8991 88.6847C78.8729 88.6653 78.851 88.6405 78.835 88.6119C78.8191 88.5834 78.8093 88.5518 78.8065 88.5192L78.5925 86.3981C78.5944 86.3669 78.5873 86.3359 78.5719 86.3087C78.5566 86.2816 78.5337 86.2594 78.5061 86.245C78.4784 86.2306 78.4472 86.2245 78.4161 86.2275C78.3851 86.2305 78.3555 86.2424 78.3311 86.2618L76.1461 87.524C76.0761 87.5698 76.0167 87.6299 75.9716 87.7003C75.9266 87.7707 75.897 87.8499 75.8847 87.9326L75.6651 90.3623C75.6394 90.534 75.5606 90.6934 75.4399 90.8183C75.0064 91.2184 74.6005 91.6475 74.2251 92.1026C74.1721 92.1606 74.1038 92.2026 74.0281 92.2237C73.9525 92.2448 73.8724 92.2443 73.797 92.2222L72.3931 91.7329C72.3202 91.7103 72.242 91.7126 72.1705 91.7392C72.0991 91.7659 72.0385 91.8155 71.9983 91.8802L70.3942 94.6602C70.3583 94.7267 70.3456 94.8033 70.3582 94.8779C70.3708 94.9524 70.408 95.0206 70.4637 95.0717L71.5896 96.0419C71.6467 96.0966 71.6872 96.1664 71.7064 96.2431C71.7256 96.3198 71.7227 96.4004 71.6981 96.4756C71.4922 97.0281 71.3232 97.5937 71.1921 98.1686C71.147 98.3355 71.0496 98.4836 70.9141 98.5911L68.9181 99.9978C68.8524 100.049 68.7985 100.114 68.7601 100.188C68.7217 100.261 68.6997 100.343 68.6957 100.426V102.95C68.6918 102.981 68.6965 103.012 68.7095 103.04C68.7224 103.068 68.743 103.092 68.7688 103.108C68.7946 103.125 68.8247 103.134 68.8555 103.135C68.8863 103.136 68.9167 103.127 68.9431 103.111L70.8891 102.233C70.92 102.218 70.9537 102.211 70.9878 102.211C71.022 102.21 71.0558 102.218 71.0868 102.232C71.1178 102.246 71.1453 102.267 71.1673 102.293C71.1894 102.319 71.2054 102.35 71.2143 102.383C71.3194 102.721 71.465 103.045 71.648 103.348C71.6887 103.419 71.7124 103.499 71.7172 103.581C71.722 103.663 71.7078 103.745 71.6758 103.82L70.3803 106.434C70.3488 106.5 70.3432 106.575 70.3649 106.645C70.3865 106.715 70.4337 106.775 70.4971 106.812L71.8815 107.618C71.9458 107.653 72.021 107.664 72.0925 107.647C72.164 107.63 72.2266 107.587 72.268 107.526L73.8831 105.096C73.9328 105.031 73.9967 104.979 74.07 104.943C74.1433 104.906 74.224 104.888 74.3057 104.888C74.6591 104.894 75.0119 104.858 75.3565 104.779C75.3885 104.773 75.4216 104.773 75.4536 104.78C75.4855 104.787 75.5156 104.8 75.5419 104.82C75.5682 104.839 75.5901 104.864 75.606 104.892C75.622 104.921 75.6317 104.953 75.6345 104.985L75.8486 107.109C75.8479 107.14 75.856 107.17 75.872 107.197C75.8879 107.224 75.911 107.245 75.9386 107.259C75.9662 107.273 75.9972 107.279 76.028 107.276C76.0588 107.273 76.0882 107.261 76.1127 107.242L78.2978 105.98C78.3674 105.935 78.4265 105.875 78.471 105.805C78.5156 105.735 78.5447 105.657 78.5563 105.574L78.7759 103.142C78.8018 102.971 78.8816 102.812 79.0039 102.689C79.4366 102.289 79.8415 101.86 80.216 101.404C80.2689 101.346 80.3375 101.303 80.4138 101.281C80.49 101.259 80.5708 101.26 80.6469 101.282L82.0369 101.771C82.1094 101.795 82.1876 101.793 82.2591 101.767C82.3306 101.741 82.3913 101.692 82.4316 101.627L84.0385 98.8469C84.0743 98.7797 84.0866 98.7024 84.0735 98.6274C84.0604 98.5523 84.0227 98.4838 83.9662 98.4327L82.8403 97.4625C82.7832 97.4083 82.7426 97.3391 82.7234 97.2628C82.7042 97.1865 82.7072 97.1063 82.7319 97.0316C82.9387 96.4784 83.1077 95.9118 83.2378 95.3358C83.283 95.1688 83.3804 95.0207 83.5158 94.9132L85.5119 93.5093C85.5862 93.4616 85.649 93.3979 85.6956 93.3229C85.7423 93.2478 85.7716 93.1634 85.7815 93.0756ZM77.2386 101.01C75.1981 102.186 73.5468 101.232 73.5468 98.8775C73.5468 96.5228 75.1981 93.6622 77.2386 92.4835C79.2791 91.3048 80.9277 92.2611 80.9277 94.613C80.9277 96.9648 79.2624 99.831 77.2247 101.01H77.2386Z" fill="#0E53BE"/>
<path d="M110.925 45.8044H120.002V37.6701C120.002 36.4661 119.523 35.3114 118.672 34.46C117.82 33.6087 116.666 33.1304 115.462 33.1304C114.258 33.1311 113.104 33.6097 112.253 34.461C111.403 35.3123 110.925 36.4666 110.925 37.6701V45.8044Z" fill="#263238"/>
<path d="M113.779 43.5972L107.282 43.8474C107.057 43.6528 105.77 42.1183 105.77 42.1183C105.77 42.1183 102.239 41.6651 102.22 41.793C102.2 41.9209 105.692 45.66 106.037 46.0353C106.135 46.1622 106.262 46.2646 106.407 46.3345C106.551 46.4045 106.71 46.44 106.871 46.4384L112.817 46.8109L113.779 43.5972Z" fill="#FFA8A7"/>
<path d="M80.317 72.8817L80.1224 72.7705C79.9602 72.663 79.8253 72.519 79.7288 72.3501C79.6322 72.1811 79.5766 71.9918 79.5664 71.7975V51.8399C79.5766 51.6455 79.6322 51.4563 79.7288 51.2873C79.8253 51.1183 79.9602 50.9743 80.1224 50.8669L105.76 36.0689C105.932 35.9817 106.122 35.9363 106.316 35.9363C106.509 35.9363 106.699 35.9817 106.872 36.0689L107.063 36.1801C107.226 36.2867 107.361 36.4301 107.458 36.5987C107.554 36.7673 107.61 36.9563 107.619 37.1503V57.1108C107.61 57.3049 107.554 57.494 107.458 57.6626C107.361 57.8312 107.226 57.9746 107.063 58.081L81.4262 72.8817C81.254 72.9676 81.0641 73.0123 80.8716 73.0123C80.6791 73.0123 80.4893 72.9676 80.317 72.8817Z" fill="#0E53BE"/>
<path opacity="0.4" d="M107.63 37.0614C107.591 36.7695 107.352 36.6638 107.074 36.8251L81.4372 51.6286C81.2709 51.7309 81.1339 51.8745 81.0397 52.0456L79.7275 51.2867C79.8224 51.1153 79.9592 50.9709 80.1251 50.8669L105.759 36.0689C105.932 35.9817 106.122 35.9363 106.315 35.9363C106.509 35.9363 106.699 35.9817 106.871 36.0689L107.063 36.1801C107.216 36.2773 107.346 36.4064 107.444 36.5585C107.541 36.7107 107.605 36.8822 107.63 37.0614Z" fill="white"/>
<path opacity="0.1" d="M81.334 72.9262C81.1701 72.9916 80.9941 73.0214 80.8177 73.0137C80.6414 73.0061 80.4687 72.9611 80.311 72.8818L80.1136 72.7706C79.9514 72.6631 79.8166 72.5191 79.72 72.3501C79.6234 72.1812 79.5678 71.9919 79.5576 71.7976V51.8399C79.5622 51.6434 79.6188 51.4515 79.7216 51.2839L81.0338 52.0429C80.933 52.2114 80.8766 52.4027 80.8698 52.5989V72.5621C80.8753 72.879 81.0783 73.0291 81.334 72.9262Z" fill="black"/>
<path d="M83.4659 52.7266L85.3952 51.6146C85.5342 51.534 85.6482 51.5979 85.6482 51.7619V53.9359C85.6435 54.0242 85.6179 54.1101 85.5734 54.1864C85.5289 54.2628 85.4669 54.3275 85.3924 54.3751L83.4686 55.4621C83.3269 55.5427 83.2129 55.4621 83.2129 55.312V53.177C83.2155 53.087 83.2398 52.999 83.2839 52.9206C83.328 52.8422 83.3904 52.7756 83.4659 52.7266Z" fill="#FAFAFA"/>
<path d="M85.1454 54.0583C85.1206 54.0745 85.0916 54.0831 85.062 54.0831C85.0324 54.0831 85.0034 54.0745 84.9786 54.0583L84.392 53.6135C84.3114 53.5551 84.3225 53.3883 84.4142 53.2438C84.506 53.0992 84.645 53.0297 84.7228 53.0909L85.1398 53.405L86.2935 50.9253C86.3658 50.7696 86.502 50.6667 86.6021 50.6917C86.7022 50.7168 86.7189 50.8669 86.6494 51.0198L85.3317 53.8498C85.2955 53.9321 85.2367 54.0025 85.1621 54.0528L85.1454 54.0583Z" fill="#37474F"/>
<path d="M83.4659 57.4527L85.3952 56.3407C85.5342 56.2601 85.6482 56.3407 85.6482 56.4881V58.662C85.6435 58.7503 85.6179 58.8362 85.5734 58.9126C85.5289 58.989 85.4669 59.0537 85.3924 59.1013L83.4686 60.191C83.3269 60.2689 83.2129 60.191 83.2129 60.0409V57.9031C83.2155 57.8132 83.2398 57.7252 83.2839 57.6468C83.328 57.5683 83.3904 57.5017 83.4659 57.4527Z" fill="#FAFAFA"/>
<path d="M85.1454 58.7814C85.1206 58.7976 85.0916 58.8062 85.062 58.8062C85.0324 58.8062 85.0034 58.7976 84.9786 58.7814L84.392 58.3394C84.3114 58.2782 84.3225 58.1114 84.4142 57.9669C84.506 57.8223 84.645 57.7528 84.7228 57.814L85.1398 58.1281L86.2935 55.6484C86.3658 55.4927 86.502 55.3898 86.6021 55.4176C86.7022 55.4454 86.7189 55.59 86.6494 55.7457L85.3317 58.5757C85.2954 58.6573 85.2366 58.7267 85.1621 58.7759L85.1454 58.7814Z" fill="#37474F"/>
<path d="M83.4659 62.1759L85.3952 61.0639C85.5342 60.9805 85.6482 61.0472 85.6482 61.2084V63.388C85.6431 63.4757 85.6173 63.5611 85.5728 63.637C85.5283 63.7128 85.4665 63.7771 85.3924 63.8244L83.4686 64.9142C83.3269 64.9948 83.2129 64.9281 83.2129 64.7641V62.6262C83.2155 62.5363 83.2398 62.4483 83.2839 62.3699C83.328 62.2915 83.3904 62.2249 83.4659 62.1759Z" fill="#FAFAFA"/>
<path d="M85.1454 63.5047C85.1212 63.5223 85.092 63.5318 85.062 63.5318C85.032 63.5318 85.0028 63.5223 84.9786 63.5047L84.392 63.0627C84.3114 63.0043 84.3225 62.8375 84.4142 62.693C84.506 62.5484 84.645 62.4789 84.7228 62.5373L85.1398 62.8514L86.2935 60.3717C86.3658 60.2188 86.502 60.1131 86.6021 60.1409C86.7022 60.1687 86.7189 60.3133 86.6494 60.469L85.3317 63.299C85.2955 63.3813 85.2367 63.4517 85.1621 63.5019L85.1454 63.5047Z" fill="#37474F"/>
<path d="M83.4659 66.9129L85.3952 65.8009C85.5342 65.7203 85.6482 65.8009 85.6482 65.9483V68.1139C85.6431 68.2017 85.6173 68.287 85.5728 68.3629C85.5283 68.4388 85.4665 68.503 85.3924 68.5504L83.4686 69.6401C83.3269 69.7207 83.2129 69.654 83.2129 69.49V67.3522C83.2172 67.2642 83.2424 67.1784 83.2864 67.1021C83.3304 67.0257 83.3919 66.9609 83.4659 66.9129Z" fill="#FAFAFA"/>
<path d="M85.1454 68.2418C85.1212 68.2594 85.092 68.2689 85.062 68.2689C85.032 68.2689 85.0028 68.2594 84.9786 68.2418L84.392 67.7998C84.3114 67.7386 84.3225 67.5746 84.4142 67.4272C84.506 67.2799 84.645 67.216 84.7228 67.2743L85.1398 67.5885L86.2935 65.1087C86.3658 64.9558 86.502 64.8502 86.6021 64.878C86.7022 64.9058 86.7189 65.0503 86.6494 65.206L85.3317 68.0361C85.2954 68.1176 85.2366 68.1871 85.1621 68.2362L85.1454 68.2418Z" fill="#37474F"/>
<path d="M88.0342 50.6946C88.0342 50.9559 88.2621 51.0366 88.5429 50.8753L95.8738 46.6414C96.0123 46.5618 96.1305 46.451 96.2188 46.3178C96.3071 46.1847 96.3631 46.0327 96.3825 45.8741C96.3825 45.6128 96.1546 45.5294 95.8738 45.6934L88.5429 49.9246C88.4041 50.0046 88.2859 50.1158 88.1976 50.2495C88.1093 50.3832 88.0533 50.5356 88.0342 50.6946Z" fill="#455A64"/>
<path d="M88.0342 52.2847C88.0342 52.5488 88.2621 52.6294 88.5429 52.4682L104.222 43.4276C104.361 43.3477 104.479 43.2365 104.568 43.1028C104.656 42.9691 104.712 42.8167 104.731 42.6575C104.731 42.3962 104.503 42.3156 104.222 42.4768L88.5429 51.5174C88.4043 51.597 88.2862 51.7078 88.1979 51.8409C88.1096 51.9741 88.0535 52.1261 88.0342 52.2847Z" fill="#F0F0F0"/>
<path d="M88.0342 55.326C88.0342 55.5873 88.2621 55.6707 88.5429 55.5067L95.8738 51.2755C96.0126 51.1955 96.1308 51.0842 96.2191 50.9506C96.3074 50.8169 96.3633 50.6645 96.3825 50.5054C96.3825 50.2441 96.1546 50.1635 95.8738 50.3247L88.5429 54.5476C88.4029 54.6282 88.2839 54.7408 88.1956 54.876C88.1072 55.0112 88.0519 55.1654 88.0342 55.326Z" fill="#455A64"/>
<path d="M88.0342 56.9077C88.0342 57.1691 88.2621 57.2497 88.5429 57.0884L104.222 48.0479C104.361 47.9683 104.479 47.8575 104.567 47.7243C104.655 47.5911 104.711 47.4392 104.731 47.2806C104.731 47.0193 104.503 46.9359 104.222 47.0999L88.5429 56.1377C88.4041 56.2177 88.2859 56.329 88.1976 56.4626C88.1093 56.5963 88.0533 56.7487 88.0342 56.9077Z" fill="#F0F0F0"/>
<path d="M88.0342 60.23C88.0342 60.508 88.2621 60.5747 88.5429 60.4107L95.8738 56.1796C96.0127 56.0997 96.131 55.9885 96.2194 55.8548C96.3077 55.7211 96.3636 55.5686 96.3825 55.4095C96.3825 55.1482 96.1546 55.0676 95.8738 55.2288L88.5429 59.4627C88.4043 59.5423 88.2862 59.6531 88.1979 59.7863C88.1096 59.9195 88.0535 60.0714 88.0342 60.23Z" fill="#455A64"/>
<path d="M88.0342 61.8228C88.0342 62.0841 88.2621 62.1647 88.5429 62.0035L104.222 52.9629C104.361 52.8833 104.479 52.7726 104.567 52.6394C104.655 52.5062 104.711 52.3543 104.731 52.1956C104.731 51.9343 104.503 51.8509 104.222 52.0149L88.5429 61.0555C88.4043 61.1351 88.2862 61.2459 88.1979 61.379C88.1096 61.5122 88.0535 61.6642 88.0342 61.8228Z" fill="#F0F0F0"/>
<path d="M88.0342 65.1449C88.0342 65.4229 88.2621 65.4896 88.5429 65.3284L95.8738 61.0944C96.0123 61.0148 96.1305 60.9041 96.2188 60.7709C96.3071 60.6377 96.3631 60.4858 96.3825 60.3271C96.3825 60.0491 96.1546 59.9824 95.8738 60.1437L88.5429 64.3776C88.4043 64.4572 88.2862 64.568 88.1979 64.7011C88.1096 64.8343 88.0535 64.9863 88.0342 65.1449Z" fill="#455A64"/>
<path d="M88.0342 66.7378C88.0342 66.9991 88.2621 67.0825 88.5429 66.9185L104.222 57.8807C104.361 57.8004 104.479 57.689 104.567 57.5554C104.655 57.4218 104.711 57.2696 104.731 57.1107C104.731 56.8493 104.503 56.7687 104.222 56.93L88.5429 65.9705C88.4043 66.0501 88.2862 66.1609 88.1979 66.2941C88.1096 66.4273 88.0535 66.5792 88.0342 66.7378Z" fill="#F0F0F0"/>
<path d="M110.841 87.7353C110.322 88.2915 109.75 88.7961 109.134 89.2421C109.036 89.305 108.954 89.3897 108.895 89.4895C108.814 89.6591 108.686 90.0761 109.451 90.3457C109.84 90.4803 110.254 90.5295 110.664 90.4902C111.074 90.4509 111.471 90.3239 111.828 90.1177C112.459 89.7202 112.489 88.8973 113.084 88.4275C113.526 88.08 114.079 87.991 114.435 87.5379C114.685 87.221 114.619 86.7984 114.491 86.2786C114.349 85.7087 114.282 85.2778 114.096 85.3222L114.127 85.5836C113.89 85.9589 112.673 86.0701 112.131 85.8115C111.735 86.4749 111.304 87.117 110.841 87.7353Z" fill="#263238"/>
<path d="M110.307 88.2689C110.494 88.1021 110.672 87.9258 110.841 87.7407C111.203 87.2737 111.535 86.7844 111.836 86.2757C112.045 85.9682 112.143 85.5985 112.114 85.2276C112.072 84.8329 111.964 83.8237 111.964 83.8237L113.893 83.6875L114.118 85.5807C114.166 86.0088 113.81 86.3897 113.181 86.9318C112.553 87.4739 111.755 88.736 111.188 89.0529C110.621 89.3698 110.212 89.3587 109.971 89.1947C109.729 89.0307 109.69 88.8944 110.307 88.2689Z" fill="#FFA8A7"/>
<path d="M119.512 87.9076V87.6296C119.398 87.9716 118.867 89.4366 118.064 90.1706C117.424 90.7544 116.551 91.4271 116.329 92.0776C116.106 92.7282 117.544 92.9811 118.141 92.8755C118.939 92.7431 119.67 92.3524 120.224 91.7635C120.568 91.3409 120.78 90.8405 121.033 90.5069C121.286 90.1733 121.844 89.8036 121.978 89.42C122.018 89.0608 121.978 88.6972 121.861 88.3552C121.767 87.9966 121.664 87.6018 121.541 87.6352V87.8576C121.252 88.0842 120.894 88.2049 120.527 88.1995C120.232 88.194 119.512 88.13 119.512 87.9076Z" fill="#263238"/>
<path d="M117.474 90.6709C117.674 90.4958 117.874 90.3207 118.055 90.1566C118.611 89.6423 119.044 88.7666 119.292 88.1801C119.431 87.8414 119.503 87.4787 119.503 87.1125V85.9561H121.532V87.852V87.9021C121.432 88.3246 120.504 89.445 119.973 90.1761C119.62 90.6654 118.944 91.2881 118.141 91.3965C117.337 91.5049 116.987 91.2492 117.474 90.6709Z" fill="#FFA8A7"/>
<path d="M121.138 56.3823C122.712 59.8156 121.083 71.917 121.083 71.917C121.13 72.473 121.767 73.5711 122.003 76.023C122.281 78.9226 121.564 86.2006 121.564 86.2006C121.254 86.3802 120.906 86.4816 120.548 86.4961C120.191 86.5106 119.835 86.4378 119.512 86.284C119.512 86.284 117.58 75.3197 117.216 72.4396C116.899 69.9237 116.29 64.0106 116.29 64.0106L114.463 72.4424C114.681 73.2594 114.8 74.0993 114.819 74.9444C114.791 76.6485 113.999 84.1184 113.999 84.1184C113.999 84.1184 113.293 84.5298 111.964 84.3352C111.964 84.3352 110.683 74.5302 110.722 72.245C110.741 71.0218 111.278 58.0003 111.278 58.0003L121.138 56.3823Z" fill="#0E53BE"/>
<g opacity="0.15">
<path d="M116.29 64.0106L115.778 61.2028C115.778 61.2028 113.618 60.7552 112.64 59.8323C113.316 60.6253 114.201 61.2136 115.194 61.5309L115.767 63.9884L114.73 71.2164L116.29 64.0106Z" fill="#263238"/>
</g>
<path d="M116.479 33.4085L116.584 32.2186C116.506 32.2074 116.427 32.212 116.351 32.2324C116.276 32.2527 116.205 32.2883 116.143 32.3369C116.081 32.3856 116.03 32.4463 115.993 32.5153C115.955 32.5843 115.932 32.6603 115.925 32.7385C115.914 32.8998 115.965 33.0592 116.068 33.1839C116.171 33.3085 116.318 33.3889 116.479 33.4085Z" fill="#263238"/>
<path d="M116.543 33.528L117.505 32.8219C117.461 32.7553 117.405 32.6983 117.339 32.6543C117.273 32.6103 117.198 32.5804 117.12 32.5663C117.042 32.5522 116.962 32.5544 116.884 32.5725C116.807 32.5906 116.734 32.6244 116.671 32.6718C116.544 32.7713 116.46 32.9154 116.437 33.0745C116.413 33.2337 116.451 33.3959 116.543 33.528Z" fill="#263238"/>
<path d="M117.544 43.6833C117.544 43.6833 119.86 43.8863 120.185 44.0308C118.517 45.8517 121.052 46.6079 121.052 46.6079L119.32 52.8017C120.36 54.3891 121.022 55.6151 121.414 57.1775C120.246 59.2347 113.682 59.521 111.275 57.9865C111.486 55.1147 111.953 53.0575 111.798 52.1929C110.977 48.6707 111.008 47.9256 111.114 47.1194C111.325 45.5459 112.887 44.1726 113.78 43.5972H114.614L117.544 43.6833Z" fill="#37474F"/>
<path d="M112.834 35.349C112.345 35.627 111.741 36.8669 111.8 39.4467C111.85 41.6318 112.559 42.1711 112.912 42.3268C113.265 42.4825 113.954 42.388 114.622 42.2768V43.5889C114.622 43.5889 113.699 44.6592 113.757 45.2569C113.815 45.8546 115.089 45.9992 115.95 45.4126C116.574 44.9279 117.112 44.3414 117.541 43.6779L117.524 40.6616C117.524 40.6616 117.916 41.0452 118.583 40.4614C119.139 39.9805 119.317 39.1715 118.889 38.7378C118.778 38.6342 118.644 38.5585 118.498 38.5169C118.352 38.4753 118.198 38.4691 118.049 38.4987C117.901 38.5283 117.761 38.5929 117.642 38.6872C117.523 38.7815 117.428 38.9027 117.365 39.0409C117.182 39.4384 116.765 39.444 116.762 38.9908C116.743 36.6667 116.467 36.5444 116.234 35.5909C114.847 35.1433 113.86 35.3101 112.834 35.349Z" fill="#FFA8A7"/>
<path d="M114.241 38.8963C114.239 38.9328 114.244 38.9693 114.256 39.0037C114.269 39.0382 114.288 39.0698 114.312 39.0969C114.337 39.124 114.366 39.146 114.399 39.1617C114.432 39.1774 114.468 39.1864 114.505 39.1882C114.541 39.19 114.578 39.1846 114.612 39.1723C114.647 39.1601 114.678 39.1411 114.705 39.1166C114.732 39.0921 114.754 39.0624 114.77 39.0294C114.786 38.9964 114.795 38.9606 114.797 38.9241C114.798 38.8876 114.793 38.8511 114.781 38.8166C114.768 38.7822 114.75 38.7505 114.725 38.7234C114.7 38.6963 114.671 38.6743 114.638 38.6587C114.605 38.643 114.569 38.634 114.532 38.6322C114.496 38.6304 114.459 38.6357 114.425 38.648C114.391 38.6603 114.359 38.6793 114.332 38.7038C114.305 38.7283 114.283 38.7579 114.267 38.791C114.251 38.824 114.242 38.8598 114.241 38.8963Z" fill="#263238"/>
<path d="M114.166 40.7505L113.529 40.9534C113.54 40.9963 113.56 41.0364 113.587 41.0713C113.615 41.1063 113.649 41.1353 113.687 41.1566C113.726 41.178 113.769 41.1912 113.813 41.1954C113.857 41.1997 113.901 41.1949 113.944 41.1814C114.03 41.1533 114.102 41.0923 114.143 41.0117C114.185 40.931 114.193 40.8371 114.166 40.7505Z" fill="#F28F8F"/>
<path d="M112.031 38.1679L112.587 37.7843C112.564 37.7466 112.533 37.7141 112.496 37.6887C112.46 37.6633 112.419 37.6455 112.376 37.6364C112.332 37.6273 112.287 37.6271 112.244 37.6358C112.2 37.6445 112.159 37.6619 112.123 37.687C112.049 37.7406 111.999 37.8201 111.982 37.9094C111.965 37.9986 111.982 38.0911 112.031 38.1679Z" fill="#263238"/>
<path d="M115.041 38.2567L114.485 37.8703C114.509 37.8329 114.539 37.8007 114.576 37.7756C114.612 37.7505 114.653 37.733 114.696 37.7241C114.739 37.7153 114.783 37.7153 114.827 37.7242C114.87 37.7331 114.911 37.7506 114.947 37.7758C115.021 37.829 115.072 37.9083 115.089 37.9976C115.107 38.0869 115.09 38.1795 115.041 38.2567Z" fill="#263238"/>
<path d="M112.114 38.6989C112.114 38.7539 112.131 38.8076 112.161 38.8533C112.192 38.8991 112.235 38.9347 112.286 38.9557C112.337 38.9768 112.393 38.9823 112.446 38.9716C112.5 38.9608 112.55 38.9344 112.589 38.8955C112.628 38.8566 112.654 38.8071 112.665 38.7531C112.676 38.6992 112.67 38.6433 112.649 38.5925C112.628 38.5417 112.592 38.4983 112.547 38.4678C112.501 38.4372 112.447 38.4209 112.392 38.4209C112.319 38.4209 112.248 38.4502 112.196 38.5023C112.144 38.5545 112.114 38.6252 112.114 38.6989Z" fill="#263238"/>
<path d="M113.413 38.5403L113.368 40.1944L112.498 39.9247L113.413 38.5403Z" fill="#F28F8F"/>
<path d="M114.625 42.2766C115.328 42.1849 116.774 41.7707 116.999 41.198C116.909 41.4873 116.731 41.7417 116.49 41.9264C116.059 42.2989 114.625 42.7159 114.625 42.7159V42.2766Z" fill="#F28F8F"/>
<path d="M114.283 33.4336C113.782 33.4336 113.285 33.5325 112.822 33.7248C112.359 33.917 111.938 34.1988 111.584 34.5538C111.23 34.9089 110.95 35.3304 110.759 35.7941C110.568 36.2578 110.47 36.7546 110.472 37.2561V37.7482H112.337C112.757 37.7485 113.162 37.5965 113.478 37.3204C113.794 37.0443 113.999 36.6628 114.055 36.247L114.125 37.7482C114.469 37.7455 114.8 37.6153 115.054 37.3827C115.307 37.15 115.466 36.8315 115.498 36.4888L115.52 36.2442C115.553 36.6537 115.739 37.0359 116.041 37.3146C116.343 37.5933 116.738 37.7481 117.149 37.7482H117.316L117.505 35.0571L114.283 33.4336Z" fill="#263238"/>
<path d="M118.667 45.04C118.15 45.8072 115.2 52.268 115.2 52.268C115.2 52.268 110.752 51.9677 108.873 51.7676C108.281 51.7036 108.411 51.0698 108.175 50.4415C107.939 49.8132 107.636 49.9355 107.636 49.9355V50.7695C107.655 51.3255 106.724 51.6369 106.324 51.7926C105.667 52.0483 104.947 52.2096 104.269 52.4209C104.031 52.466 103.817 52.5964 103.669 52.7878C103.618 52.8846 103.594 52.9927 103.597 53.1017C103.6 53.2108 103.632 53.3171 103.688 53.4105C103.851 53.6747 104.074 53.8968 104.338 54.0586C104.603 54.2204 104.902 54.3175 105.212 54.3418C105.968 54.4336 106.702 54.2167 107.436 54.0833C108.306 53.9304 108.97 53.8053 109.832 53.9193C110.694 54.0333 111.739 54.2584 112.559 54.4086C113.61 54.5911 114.671 54.7136 115.737 54.7755C116.329 54.8033 116.76 54.6866 117.271 53.9638C117.783 53.241 120.607 47.4224 120.607 47.4224C121.783 45.7544 121.108 44.3422 120.235 44.0447C119.698 43.8668 119.187 44.2838 118.667 45.04Z" fill="#FFA8A7"/>
<path d="M100.717 38.8238C100.941 38.8539 101.162 38.907 101.375 38.9823C101.924 39.1691 102.392 39.5367 102.704 40.0248C102.84 40.2655 102.897 40.5424 102.868 40.8171C102.86 40.8891 102.839 40.9589 102.804 41.0228C102.726 41.1328 102.62 41.2193 102.496 41.273C102.3 41.4075 102.068 41.4813 101.831 41.4852C101.593 41.4892 101.359 41.4231 101.159 41.2952C100.615 40.9804 100.042 40.7215 99.4461 40.5224C99.1456 40.4293 98.8346 40.3742 98.5204 40.3584C98.3393 40.363 98.1646 40.4264 98.0228 40.5391C97.9732 40.4154 97.9587 40.2804 97.9807 40.149C98.0028 40.0176 98.0606 39.8948 98.1479 39.794C98.4554 39.3779 98.8894 39.0726 99.385 38.9239C99.8159 38.7922 100.271 38.758 100.717 38.8238Z" fill="#FFA8A7"/>
<path d="M51.5354 57.9726C53.1459 57.9726 54.4516 56.6669 54.4516 55.0564C54.4516 53.4458 53.1459 52.1401 51.5354 52.1401C49.9248 52.1401 48.6191 53.4458 48.6191 55.0564C48.6191 56.6669 49.9248 57.9726 51.5354 57.9726Z" fill="#263238"/>
<path d="M44.554 107.893H46.6084V104.379H44.554V107.893Z" fill="#FFA8A7"/>
<path d="M51.6738 104.19L53.7255 104.26L53.8283 100.54L51.6738 100.47V104.19Z" fill="#FFA8A7"/>
<path d="M44.6902 74.2522C44.6902 76.2121 44.4372 90.3567 44.4372 90.3567C44.3899 90.9127 43.859 91.9608 43.9757 94.1292C44.1286 97.0732 44.4678 106.136 44.4678 106.136C44.8223 106.31 45.2106 106.404 45.6054 106.412C46.0002 106.419 46.3919 106.341 46.7529 106.18C46.7529 106.18 48.5655 94.1403 48.9325 91.2213C49.2549 88.6776 49.7998 81.7693 49.7998 81.7693L50.9118 90.0787C50.6744 91.1493 50.5893 92.2481 50.6588 93.3425C50.7534 94.6908 51.5457 103.047 51.5457 103.047C51.9029 103.25 52.3004 103.371 52.7098 103.402C53.1192 103.433 53.5304 103.374 53.9142 103.228C53.9142 103.228 54.9539 91.3186 54.9762 90.0787C55.004 88.6693 54.2923 74.2605 54.2923 74.2605L44.6902 74.2522Z" fill="#37474F"/>
<path d="M54.012 62.3176C55.2157 63.3072 57.3897 65.3172 57.3897 65.3172L53.9981 67.1826L51.8408 61.3974C51.8408 61.3974 52.6998 61.2306 54.012 62.3176Z" fill="#0E53BE"/>
<path opacity="0.1" d="M54.012 62.3176C55.2157 63.3072 57.3897 65.3172 57.3897 65.3172L53.9981 67.1826L51.8408 61.3974C51.8408 61.3974 52.6998 61.2306 54.012 62.3176Z" fill="black"/>
<path d="M45.3882 62.807C45.3882 62.807 44.6209 63.5771 44.6209 65.4397V69.4623L44.5625 77.0601C47.5093 78.6141 51.2345 78.703 54.3731 76.4068C54.3731 76.4068 54.223 66.6434 54.223 65.0421C54.223 63.4408 53.3334 61.3642 50.887 61.2224L47.7206 61.9591L45.3882 62.807Z" fill="#0E53BE"/>
<path d="M46.498 57.1274C46.498 57.1274 46.9706 59.3514 47.1597 59.7128C47.286 59.9375 47.4941 60.1048 47.7407 60.1799L47.7073 58.6203L46.498 57.1274Z" fill="#263238"/>
<path d="M47.0894 53.9499C46.9246 53.9301 46.7574 53.9483 46.6008 54.0033C46.4441 54.0582 46.3022 54.1484 46.1859 54.2669C45.7967 54.6644 46.0135 55.9098 46.4973 57.1275L47.3869 57.2303L47.0894 53.9499Z" fill="#263238"/>
<path d="M47.6541 57.2302C47.4762 57.3386 47.2204 56.9939 47.0008 56.7659C46.7812 56.5379 46.0639 56.2099 45.7053 56.9744C45.3467 57.7389 46.0278 58.7619 46.5838 58.9399C47.5568 59.2457 47.6958 58.6229 47.6958 58.6229L47.7708 62.1369C47.7708 62.1369 48.6048 63.5269 50.7705 63.8605C51.8825 64.0328 52.1438 62.9597 50.94 62.0451V60.9748C51.3747 61.044 51.8155 61.0663 52.255 61.0415C52.9722 60.9303 53.4226 60.366 53.645 59.5904C53.9953 58.3449 54.1259 57.3386 53.8312 54.8866C53.506 52.2011 50.3813 52.1733 48.6938 53.2353C47.0063 54.2973 47.6541 57.2302 47.6541 57.2302Z" fill="#FFA8A7"/>
<path d="M47.6544 57.5305C47.5655 57.5305 47.2235 56.9745 47.0011 56.766C46.6926 56.488 47.0901 53.9498 47.0901 53.9498C47.0097 53.73 46.9951 53.4915 47.0479 53.2634C47.1007 53.0354 47.2187 52.8276 47.3876 52.6655C47.8101 52.204 48.5135 52.1512 49.7172 51.9621C50.3483 51.8621 51.3046 51.6841 51.9412 51.5702C52.6918 51.4284 53.3145 51.2922 53.8483 51.7425C54.0558 51.9238 54.2024 52.1647 54.2681 52.4324C54.3338 52.7 54.3153 52.9814 54.2152 53.2382C54.1603 53.3549 54.0881 53.4626 54.0012 53.5579C53.859 53.7292 53.6724 53.8581 53.4619 53.9304C53.4619 53.9304 53.1338 54.2223 51.9912 54.3613C50.9371 54.4402 49.8779 54.4197 48.8276 54.3001C48.4968 54.2556 48.4273 54.5781 48.2494 55.451C48.0853 56.2211 47.9547 57.5249 47.6544 57.5305Z" fill="#263238"/>
<path d="M47.0921 54.1473L46.0273 53.5663C46.0611 53.4929 46.1094 53.4272 46.1694 53.3731C46.2294 53.319 46.2998 53.2777 46.3763 53.2517C46.4527 53.2256 46.5337 53.2155 46.6142 53.2218C46.6948 53.2281 46.7732 53.2507 46.8447 53.2883C46.9889 53.3718 47.0952 53.5079 47.1413 53.668C47.1875 53.8281 47.1698 53.9999 47.0921 54.1473Z" fill="#263238"/>
<path d="M50.9487 60.9721C50.9487 60.9721 49.3502 60.6496 48.7914 60.3521C48.4627 60.1809 48.1933 59.9145 48.0186 59.5876C48.1023 59.9146 48.2517 60.2211 48.4578 60.4884C48.8665 61.011 50.9598 61.3974 50.9598 61.3974L50.9487 60.9721Z" fill="#F28F8F"/>
<path d="M50.5647 56.8299C50.5625 56.8933 50.5417 56.9547 50.5048 57.0063C50.468 57.0579 50.4167 57.0975 50.3575 57.1201C50.2982 57.1427 50.2336 57.1474 50.1717 57.1335C50.1099 57.1196 50.0535 57.0877 50.0096 57.0419C49.9657 56.9962 49.9363 56.9384 49.925 56.876C49.9138 56.8136 49.9212 56.7493 49.9463 56.6911C49.9714 56.6328 50.0132 56.5833 50.0663 56.5487C50.1194 56.514 50.1816 56.4958 50.245 56.4963C50.2879 56.4971 50.3303 56.5063 50.3697 56.5235C50.4091 56.5407 50.4446 56.5655 50.4744 56.5965C50.5041 56.6275 50.5274 56.6641 50.5429 56.7042C50.5584 56.7443 50.5658 56.787 50.5647 56.8299Z" fill="#263238"/>
<path d="M50.2256 55.6207L49.5389 55.9988C49.5128 55.9519 49.4962 55.9003 49.49 55.8469C49.4838 55.7936 49.4882 55.7396 49.503 55.6879C49.5177 55.6363 49.5424 55.5881 49.5758 55.546C49.6091 55.5039 49.6505 55.4689 49.6974 55.4428C49.7435 55.4183 49.794 55.4035 49.846 55.3992C49.898 55.395 49.9504 55.4014 49.9998 55.418C50.0492 55.4347 50.0948 55.4612 50.1336 55.4961C50.1724 55.5309 50.2037 55.5733 50.2256 55.6207Z" fill="#263238"/>
<path d="M50.8036 59.0457L51.5348 59.3237C51.5188 59.3725 51.4933 59.4176 51.4596 59.4564C51.4258 59.4951 51.3847 59.5267 51.3385 59.5493C51.2924 59.5718 51.2422 59.5849 51.1909 59.5877C51.1396 59.5905 51.0883 59.5829 51.0399 59.5655C50.9405 59.5269 50.8601 59.4508 50.8159 59.3537C50.7718 59.2566 50.7674 59.146 50.8036 59.0457Z" fill="#F28F8F"/>
<path d="M53.4224 55.8819L52.7969 55.401C52.8261 55.3567 52.8643 55.3191 52.909 55.2906C52.9537 55.2621 53.0039 55.2432 53.0563 55.2354C53.1087 55.2275 53.1622 55.2308 53.2133 55.2449C53.2644 55.2591 53.312 55.2838 53.3529 55.3176C53.4343 55.385 53.4868 55.481 53.4997 55.5859C53.5127 55.6908 53.485 55.7967 53.4224 55.8819Z" fill="#263238"/>
<path d="M53.2306 56.7409C53.2279 56.8042 53.2066 56.8652 53.1694 56.9164C53.1322 56.9676 53.0808 57.0068 53.0215 57.029C52.9623 57.0512 52.8978 57.0555 52.8361 57.0413C52.7744 57.0271 52.7183 56.9951 52.6747 56.9492C52.6311 56.9033 52.6019 56.8456 52.5909 56.7833C52.5798 56.721 52.5874 56.6568 52.6126 56.5987C52.6378 56.5406 52.6795 56.4913 52.7325 56.4567C52.7856 56.4222 52.8476 56.4041 52.9109 56.4046C52.9977 56.4075 53.0798 56.4443 53.1396 56.5073C53.1994 56.5702 53.2321 56.6541 53.2306 56.7409Z" fill="#263238"/>
<path d="M51.5986 56.4351L51.7015 58.3644L52.7079 58.0197L51.5986 56.4351Z" fill="#F28F8F"/>
<path d="M46.6083 106.878V106.586C46.8057 106.673 47.2616 108.413 48.0762 109.155C48.7239 109.747 49.608 110.428 49.8331 111.087C50.0583 111.746 48.6016 112.149 47.9956 112.043C47.295 111.918 46.0746 111.424 45.7716 110.965C45.4685 110.506 45.324 109.828 45.0738 109.491C44.8236 109.155 44.2398 108.78 44.1175 108.379C44.0774 108.016 44.1182 107.649 44.237 107.304C44.3315 106.939 44.4344 106.542 44.5595 106.575V106.798C44.8508 107.029 45.2134 107.152 45.5853 107.145C45.8828 107.167 46.6111 107.109 46.6083 106.878Z" fill="#263238"/>
<path d="M53.7477 103.628C53.8561 103.628 53.9423 103.781 54.1758 104.037C54.5283 104.391 54.9369 104.684 55.3851 104.904C56.1524 105.291 57.648 105.883 58.3235 106.186C58.7489 106.378 58.7266 106.889 58.2902 107.178C57.8537 107.467 56.8001 107.679 55.5324 107.395C54.843 107.24 53.945 106.603 53.3751 106.639C52.8052 106.675 51.7433 106.664 51.3235 106.375C50.9037 106.086 51.0733 105.469 51.1928 104.938C51.3207 104.357 51.4708 103.456 51.6738 103.495V103.698C51.9212 104.07 53.1944 104.223 53.7365 103.948L53.7477 103.628Z" fill="#263238"/>
<path d="M49.7998 81.761C50.8605 81.429 51.8359 80.8693 52.6576 80.1208C52.6576 80.1208 52.1016 81.155 50.467 82.1141L50.8173 89.3588L49.7998 81.761Z" fill="#263238"/>
<path d="M52.361 89.5395L52.1664 89.4283C52.0043 89.3207 51.8696 89.1766 51.773 89.0077C51.6765 88.8388 51.6208 88.6496 51.6104 88.4553V68.4977C51.6208 68.3034 51.6765 68.1142 51.773 67.9453C51.8696 67.7763 52.0043 67.6323 52.1664 67.5247L69.4524 57.55C69.625 57.4637 69.8154 57.4187 70.0084 57.4187C70.2014 57.4187 70.3918 57.4637 70.5644 57.55L70.759 57.664C70.9213 57.7707 71.0563 57.9141 71.1529 58.0827C71.2495 58.2513 71.305 58.4402 71.315 58.6342V78.5946C71.3046 78.7885 71.2488 78.9773 71.1523 79.1458C71.0557 79.3143 70.921 79.4578 70.759 79.5648L53.473 89.545C53.2999 89.6305 53.1093 89.6746 52.9163 89.6736C52.7233 89.6726 52.5331 89.6267 52.361 89.5395Z" fill="#F5F5F5"/>
<path d="M61.7986 65.6843C64.7927 63.9551 67.2224 65.359 67.2224 68.8174C67.2224 72.2757 64.7927 76.4818 61.7986 78.211C58.8046 79.9401 56.3721 78.539 56.3721 75.0807C56.3721 71.6224 58.8157 67.4162 61.7986 65.6843Z" fill="#455A64"/>
<path d="M61.7597 68.4087C62.73 67.8527 63.5195 68.3003 63.5195 69.4234C63.4878 70.0357 63.3118 70.6318 63.006 71.1632C62.7002 71.6947 62.2732 72.1463 61.7597 72.4814C60.7867 73.0374 60 72.5898 60 71.4667C60.0317 70.8544 60.2076 70.2582 60.5135 69.7268C60.8193 69.1954 61.2463 68.7438 61.7597 68.4087Z" fill="#0E53BE"/>
<path d="M65.2267 74.3911C65.2267 72.548 63.934 71.8002 62.3355 72.7231L61.3375 73.2986C59.7418 74.2215 58.4463 76.4622 58.4463 78.3026V78.8002C59.3692 79.106 60.5313 78.9392 61.799 78.2081C63.1851 77.3536 64.3576 76.1935 65.2267 74.8165V74.3911Z" fill="#0E53BE"/>
<path d="M71.3262 58.5395C71.2872 58.2476 71.0482 58.142 70.7702 58.3032L53.4841 68.2862C53.3184 68.3892 53.1816 68.5327 53.0866 68.7032L51.7744 67.9443C51.8693 67.7729 52.006 67.6285 52.172 67.5245L69.4524 57.5498C69.6247 57.4622 69.8152 57.4165 70.0084 57.4165C70.2017 57.4165 70.3922 57.4622 70.5644 57.5498L70.759 57.661C70.9108 57.7584 71.04 57.8872 71.1378 58.0388C71.2357 58.1903 71.2999 58.3611 71.3262 58.5395Z" fill="#FAFAFA"/>
<path d="M53.3866 89.584C53.2222 89.6494 53.0458 89.6792 52.8689 89.6715C52.6921 89.6639 52.519 89.6189 52.3608 89.5395L52.1634 89.4283C52.0013 89.3207 51.8666 89.1766 51.7701 89.0077C51.6736 88.8387 51.6178 88.6496 51.6074 88.4553V68.4977C51.612 68.3011 51.6686 68.1092 51.7714 67.9417L53.0836 68.7006C52.9828 68.8691 52.9264 69.0604 52.9196 69.2566V89.2198C52.9196 89.5367 53.1225 89.6868 53.3866 89.584Z" fill="#E0E0E0"/>
<path d="M55.8359 84.5633C55.8359 85.1193 56.2335 85.3611 56.7255 85.0776L66.8781 79.234C67.1372 79.0655 67.3528 78.8382 67.5074 78.5705C67.662 78.3029 67.7512 78.0025 67.7677 77.6939C67.7677 77.1379 67.3702 76.896 66.8781 77.1796L56.7339 83.0371C56.4757 83.204 56.26 83.4289 56.1042 83.6938C55.9483 83.9588 55.8564 84.2565 55.8359 84.5633Z" fill="#0E53BE"/>
<path d="M42.0941 74.8305C41.0404 74.0966 41.0543 73.0068 41.3907 71.7725C43.6842 63.2935 44.3876 63.2462 45.3884 62.8181L46.1918 66.1541L44.0484 73.1041C45.4842 74.1582 47.1138 74.9187 48.8439 75.342C49.2044 75.4025 49.5745 75.363 49.9142 75.228C50.5675 74.8611 50.9345 74.8611 51.6044 74.672V75.7674C52.2034 75.843 52.8106 75.8224 53.4031 75.7062C54.7931 75.4477 55.3964 75.7368 54.5485 77.3214C54.0175 78.3138 52.9861 78.6419 50.4007 78.1971C49.4586 78.0187 48.5298 77.7763 47.6207 77.4715C45.6724 76.833 43.8148 75.9453 42.0941 74.8305Z" fill="#FFA8A7"/>
<path d="M45.3885 62.8069C45.3885 62.8069 46.3754 63.4268 46.5867 64.9808C46.798 66.5349 45.3024 70.7632 45.3024 70.7632C45.3024 70.7632 42.8865 70.5325 41.8857 69.3427C41.8857 69.3427 43.2757 65.4757 43.5537 64.6028C43.6739 64.1681 43.9069 63.773 44.2292 63.4576C44.5514 63.1422 44.9514 62.9177 45.3885 62.8069Z" fill="#0E53BE"/>
<path opacity="0.1" d="M45.3885 62.8069C45.3885 62.8069 46.3754 63.4268 46.5867 64.9808C46.798 66.5349 45.3024 70.7632 45.3024 70.7632C45.3024 70.7632 42.8865 70.5325 41.8857 69.3427C41.8857 69.3427 43.2757 65.4757 43.5537 64.6028C43.6739 64.1681 43.9069 63.773 44.2292 63.4576C44.5514 63.1422 44.9514 62.9177 45.3885 62.8069Z" fill="black"/>
<path d="M71.3255 63.3517V64.5888C71.3255 64.5888 70.6583 65.6035 69.9355 65.9788C69.2127 66.3541 69.2238 67.8525 70.1161 68.0638C71.0085 68.2751 72.2373 67.1714 72.3402 66.5654C72.443 65.9594 72.2234 63.2878 71.3255 63.3517Z" fill="#FFA8A7"/>
</g>
<defs>
<clipPath id="clip0_3991_11241">
<rect width="158" height="134" fill="white"/>
</clipPath>
</defs>
</svg>
