<svg width="158" height="134" viewBox="0 0 158 134" fill="none" xmlns="http://www.w3.org/2000/svg">
<g clip-path="url(#clip0_3991_11592)">
<path d="M156 109.014H3V109.091H156V109.014Z" fill="#EBEBEB"/>
<path d="M140.67 113.938H130.535V114.014H140.67V113.938Z" fill="#EBEBEB"/>
<path d="M104.353 114.77H101.694V114.847H104.353V114.77Z" fill="#EBEBEB"/>
<path d="M130.229 111.098H124.356V111.175H130.229V111.098Z" fill="#EBEBEB"/>
<path d="M32.2689 111.612H19.0527V111.689H32.2689V111.612Z" fill="#EBEBEB"/>
<path d="M36.9321 111.612H34.9951V111.689H36.9321V111.612Z" fill="#EBEBEB"/>
<path d="M71.8956 112.904H43.2295V112.98H71.8956V112.904Z" fill="#EBEBEB"/>
<path d="M75.5221 95.3669H16.4366C15.9737 95.3661 15.5301 95.1816 15.2031 94.854C14.876 94.5265 14.6924 94.0825 14.6924 93.6196V10.562C14.6964 10.1018 14.8819 9.66178 15.2084 9.33749C15.535 9.01321 15.9763 8.83087 16.4366 8.83008H75.5221C75.9855 8.83008 76.43 9.01416 76.7576 9.34184C77.0853 9.66951 77.2694 10.1139 77.2694 10.5773V93.6196C77.2694 94.083 77.0853 94.5274 76.7576 94.8551C76.43 95.1828 75.9855 95.3669 75.5221 95.3669ZM16.4366 8.89128C15.994 8.89209 15.5698 9.06847 15.2572 9.38171C14.9445 9.69495 14.7689 10.1195 14.7689 10.562V93.6196C14.7689 94.0622 14.9445 94.4867 15.2572 94.7999C15.5698 95.1132 15.994 95.2896 16.4366 95.2904H75.5221C75.965 95.2896 76.3895 95.1133 76.7026 94.8001C77.0158 94.487 77.1921 94.0625 77.1929 93.6196V10.562C77.1921 10.1192 77.0158 9.69468 76.7026 9.38153C76.3895 9.06837 75.965 8.89209 75.5221 8.89128H16.4366Z" fill="#EBEBEB"/>
<path d="M141.713 95.3669H82.6242C82.1611 95.3661 81.7171 95.1817 81.3896 94.8542C81.0621 94.5267 80.8778 94.0828 80.877 93.6196V10.562C80.8818 10.1015 81.0679 9.6615 81.395 9.3373C81.722 9.0131 82.1637 8.83086 82.6242 8.83008H141.713C142.173 8.83167 142.613 9.01437 142.939 9.33857C143.265 9.66277 143.45 10.1024 143.454 10.562V93.6196C143.454 94.082 143.271 94.5255 142.944 94.853C142.618 95.1805 142.175 95.3652 141.713 95.3669ZM82.6242 8.89128C82.1813 8.89209 81.7569 9.06837 81.4437 9.38153C81.1305 9.69468 80.9543 10.1192 80.9535 10.562V93.6196C80.9543 94.0625 81.1305 94.487 81.4437 94.8001C81.7569 95.1133 82.1813 95.2896 82.6242 95.2904H141.713C142.156 95.2896 142.58 95.1133 142.893 94.8001C143.206 94.487 143.383 94.0625 143.384 93.6196V10.562C143.383 10.1192 143.206 9.69468 142.893 9.38153C142.58 9.06837 142.156 8.89209 141.713 8.89128H82.6242Z" fill="#EBEBEB"/>
<path d="M95.1338 76.2756H128.43V16.1099L95.1338 16.1099V76.2756Z" fill="#E6E6E6"/>
<path d="M93.6 76.2756H127.713L127.713 16.1099L93.6 16.1099V76.2756Z" fill="#F0F0F0"/>
<path d="M95.1338 77.7014H128.43V76.2755H95.1338V77.7014Z" fill="#E6E6E6"/>
<path d="M93.0463 77.7014H127.159V76.2755H93.0463V77.7014Z" fill="#F0F0F0"/>
<path d="M125.56 74.1243V18.261L95.7491 18.261V74.1243H125.56Z" fill="#FAFAFA"/>
<path d="M104.182 74.1243L112.572 18.261H118.533L110.139 74.1243H104.182Z" fill="white"/>
<path d="M105.128 74.1243L113.522 18.261H119.479L111.086 74.1243H105.128Z" fill="white"/>
<path d="M111.419 74.1243L119.813 18.261H122.135L113.745 74.1243H111.419Z" fill="white"/>
<path d="M96.0244 74.1243V18.261H95.7521V74.1243H96.0244Z" fill="#E6E6E6"/>
<path opacity="0.6" d="M93.0898 19.8829H126.386L126.582 19.0964H93.2887L93.0898 19.8829Z" fill="#EBEBEB"/>
<path opacity="0.6" d="M93.0898 21.1679H126.386L126.582 20.3845H93.2887L93.0898 21.1679Z" fill="#EBEBEB"/>
<path opacity="0.6" d="M93.0898 22.4562H126.386L126.582 21.6729H93.2887L93.0898 22.4562Z" fill="#EBEBEB"/>
<path opacity="0.6" d="M93.0898 23.7444H126.386L126.582 22.958H93.2887L93.0898 23.7444Z" fill="#EBEBEB"/>
<path opacity="0.6" d="M93.0898 25.0328H126.386L126.582 24.2463H93.2887L93.0898 25.0328Z" fill="#EBEBEB"/>
<path opacity="0.6" d="M93.0898 26.318H126.386L126.582 25.5347H93.2887L93.0898 26.318Z" fill="#EBEBEB"/>
<path d="M135.023 12.5022H87.0059V13.6619H135.023V12.5022Z" fill="#F0F0F0"/>
<path opacity="0.8" d="M134.154 11.5259H131.63V85.8349H134.154V11.5259Z" fill="#FAFAFA"/>
<path opacity="0.8" d="M132.285 11.5259H131.63V85.8349H132.285V11.5259Z" fill="#F0F0F0"/>
<path opacity="0.8" d="M131.63 11.5259H129.105V85.8349H131.63V11.5259Z" fill="#FAFAFA"/>
<path opacity="0.8" d="M129.76 11.5259H129.105V85.8349H129.76V11.5259Z" fill="#F0F0F0"/>
<path opacity="0.8" d="M129.106 11.5259H126.581V85.8349H129.106V11.5259Z" fill="#FAFAFA"/>
<path opacity="0.8" d="M95.1339 11.5259H92.6094V85.8349H95.1339V11.5259Z" fill="#FAFAFA"/>
<path opacity="0.8" d="M93.2642 11.5259H92.6094V85.8349H93.2642V11.5259Z" fill="#F0F0F0"/>
<path opacity="0.8" d="M92.6124 11.5259H90.0879V85.8349H92.6124V11.5259Z" fill="#FAFAFA"/>
<path opacity="0.8" d="M90.7427 11.5259H90.0879V85.8349H90.7427V11.5259Z" fill="#F0F0F0"/>
<path opacity="0.8" d="M90.088 11.5259H87.5635V85.8349H90.088V11.5259Z" fill="#FAFAFA"/>
<path d="M29.1143 76.2756H62.4102L62.4102 16.1099L29.1143 16.1099L29.1143 76.2756Z" fill="#E6E6E6"/>
<path d="M27.5775 76.2756H61.6904L61.6904 16.1099L27.5775 16.1099L27.5775 76.2756Z" fill="#F0F0F0"/>
<path d="M29.1143 77.7014H62.4102V76.2755H29.1143V77.7014Z" fill="#E6E6E6"/>
<path d="M27.0238 77.7014H61.1367V76.2755H27.0238V77.7014Z" fill="#F0F0F0"/>
<path d="M59.54 74.1243V18.261L29.7295 18.261L29.7295 74.1243H59.54Z" fill="#FAFAFA"/>
<path d="M38.1621 74.1243L46.5526 18.261H52.5135L44.1199 74.1243H38.1621Z" fill="white"/>
<path d="M39.1084 74.1243L47.4989 18.261H53.4598L45.0662 74.1243H39.1084Z" fill="white"/>
<path d="M45.3994 74.1243L53.793 18.261H56.1155L47.725 74.1243H45.3994Z" fill="white"/>
<path d="M30.0049 74.1214L30.0049 18.2581H29.7325L29.7325 74.1214H30.0049Z" fill="#E6E6E6"/>
<path opacity="0.6" d="M27.0703 19.8829H60.3662L60.562 19.0964H27.2692L27.0703 19.8829Z" fill="#EBEBEB"/>
<path opacity="0.6" d="M27.0703 21.1679H60.3662L60.562 20.3845H27.2692L27.0703 21.1679Z" fill="#EBEBEB"/>
<path opacity="0.6" d="M27.0703 22.4562H60.3662L60.562 21.6729H27.2692L27.0703 22.4562Z" fill="#EBEBEB"/>
<path opacity="0.6" d="M27.0703 23.7444H60.3662L60.562 22.958H27.2692L27.0703 23.7444Z" fill="#EBEBEB"/>
<path opacity="0.6" d="M27.0703 25.0328H60.3662L60.562 24.2463H27.2692L27.0703 25.0328Z" fill="#EBEBEB"/>
<path opacity="0.6" d="M27.0703 26.318H60.3662L60.562 25.5347H27.2692L27.0703 26.318Z" fill="#EBEBEB"/>
<path d="M69.0039 12.5022H20.9863V13.6619H69.0039V12.5022Z" fill="#F0F0F0"/>
<path opacity="0.8" d="M68.1349 11.5259H65.6104V85.8349H68.1349V11.5259Z" fill="#FAFAFA"/>
<path opacity="0.8" d="M66.2652 11.5259H65.6104V85.8349H66.2652V11.5259Z" fill="#F0F0F0"/>
<path opacity="0.8" d="M65.6104 11.5259H63.0859V85.8349H65.6104V11.5259Z" fill="#FAFAFA"/>
<path opacity="0.8" d="M63.7408 11.5259H63.0859V85.8349H63.7408V11.5259Z" fill="#F0F0F0"/>
<path opacity="0.8" d="M63.086 11.5259H60.5615V85.8349H63.086V11.5259Z" fill="#FAFAFA"/>
<path opacity="0.8" d="M29.1143 11.5259H26.5898V85.8349H29.1143V11.5259Z" fill="#FAFAFA"/>
<path opacity="0.8" d="M27.2447 11.5259H26.5898V85.8349H27.2447V11.5259Z" fill="#F0F0F0"/>
<path opacity="0.8" d="M26.5899 11.5259H24.0654V85.8349H26.5899V11.5259Z" fill="#FAFAFA"/>
<path opacity="0.8" d="M24.7203 11.5259H24.0654V85.8349H24.7203V11.5259Z" fill="#F0F0F0"/>
<path opacity="0.8" d="M24.0655 11.5259H21.541V85.8349H24.0655V11.5259Z" fill="#FAFAFA"/>
<path d="M117.986 106.937H123.13V81.2328H117.986V106.937Z" fill="#F0F0F0"/>
<path d="M77.6582 109.014H121.251V106.937H77.6582V109.014Z" fill="#F0F0F0"/>
<path d="M117.986 81.2327H75.7822V106.937H117.986V81.2327Z" fill="#F5F5F5"/>
<path d="M114.139 83.9561H79.625V92.5057H114.139V83.9561Z" fill="#F0F0F0"/>
<path d="M114.139 94.4641H79.625V103.014H114.139V94.4641Z" fill="#F0F0F0"/>
<path d="M92.7926 85.1341H100.972C101.168 85.1341 101.355 85.0564 101.493 84.9181C101.632 84.7798 101.709 84.5923 101.709 84.3967C101.709 84.2013 101.631 84.0142 101.493 83.8761C101.354 83.738 101.167 83.66 100.972 83.6592H92.7926C92.6938 83.6584 92.5959 83.6773 92.5045 83.7149C92.4132 83.7526 92.3302 83.8081 92.2607 83.8782C92.1911 83.9484 92.1362 84.0317 92.0994 84.1234C92.0625 84.2151 92.0444 84.3132 92.046 84.412C92.05 84.6065 92.1307 84.7915 92.2706 84.9268C92.4104 85.0621 92.5981 85.1366 92.7926 85.1341Z" fill="#F5F5F5"/>
<path d="M92.7925 95.6454H100.972C101.167 95.6446 101.354 95.5666 101.492 95.4285C101.631 95.2904 101.709 95.1033 101.709 94.9079C101.709 94.8111 101.69 94.7152 101.653 94.6257C101.616 94.5362 101.562 94.4549 101.493 94.3865C101.425 94.318 101.344 94.2637 101.254 94.2266C101.165 94.1895 101.069 94.1705 100.972 94.1705H92.7925C92.6949 94.1693 92.598 94.1874 92.5075 94.2239C92.417 94.2605 92.3346 94.3146 92.2651 94.3832C92.1957 94.4518 92.1405 94.5335 92.1029 94.6236C92.0653 94.7137 92.0459 94.8103 92.0459 94.9079C92.0463 95.0054 92.066 95.1019 92.1037 95.1918C92.1415 95.2817 92.1967 95.3632 92.266 95.4317C92.3354 95.5003 92.4176 95.5544 92.508 95.5911C92.5983 95.6277 92.695 95.6462 92.7925 95.6454Z" fill="#F5F5F5"/>
<path d="M74.4753 81.2358H117.982V80.2322H74.4753V81.2358Z" fill="#F0F0F0"/>
<path d="M124.494 80.229H117.982V81.2327H124.494V80.229Z" fill="#E6E6E6"/>
<path d="M36.1518 107.31C35.5656 107.308 35.0038 107.075 34.5892 106.66C34.1747 106.246 33.9411 105.684 33.9395 105.098V83.445C33.9411 82.8588 34.1747 82.297 34.5892 81.8824C35.0038 81.4679 35.5656 81.2343 36.1518 81.2327C36.7378 81.2343 37.2993 81.468 37.7134 81.8826C38.1274 82.2973 38.3603 82.8591 38.3612 83.445V105.098C38.3603 105.684 38.1274 106.245 37.7134 106.66C37.2993 107.075 36.7378 107.308 36.1518 107.31Z" fill="#F5F5F5"/>
<path d="M37.4161 106.444C37.0206 106.442 36.6417 106.285 36.362 106.005C36.0823 105.725 35.9245 105.346 35.9229 104.951V83.598C35.9245 83.2025 36.0823 82.8236 36.362 82.5439C36.6417 82.2642 37.0206 82.1063 37.4161 82.1047C37.8122 82.1055 38.1919 82.263 38.4722 82.5428C38.7526 82.8226 38.9109 83.2019 38.9125 83.598V104.945C38.9125 105.342 38.7549 105.723 38.4744 106.004C38.1939 106.285 37.8133 106.443 37.4161 106.444Z" fill="#EBEBEB"/>
<path d="M39.3617 107.31C38.7757 107.308 38.2142 107.075 37.8001 106.66C37.3861 106.245 37.1532 105.684 37.1523 105.098V83.445C37.1532 82.8591 37.3861 82.2973 37.8001 81.8826C38.2142 81.468 38.7757 81.2343 39.3617 81.2327C39.9479 81.2343 40.5097 81.4679 40.9243 81.8824C41.3388 82.297 41.5724 82.8588 41.574 83.445V105.098C41.5724 105.684 41.3388 106.246 40.9243 106.66C40.5097 107.075 39.9479 107.308 39.3617 107.31Z" fill="#F5F5F5"/>
<path d="M40.6378 106.444C40.242 106.443 39.8627 106.286 39.5828 106.006C39.3029 105.726 39.1453 105.346 39.1445 104.951V83.598C39.1453 83.2022 39.3029 82.8229 39.5828 82.543C39.8627 82.2631 40.242 82.1055 40.6378 82.1047C41.0336 82.1055 41.413 82.2631 41.6928 82.543C41.9727 82.8229 42.1303 83.2022 42.1311 83.598V104.945C42.1315 105.141 42.0932 105.336 42.0184 105.517C41.9435 105.699 41.8337 105.864 41.695 106.004C41.5563 106.143 41.3916 106.253 41.2102 106.329C41.0288 106.404 40.8343 106.444 40.6378 106.444Z" fill="#EBEBEB"/>
<path d="M44.784 83.445C44.784 82.2232 43.7942 81.2327 42.5732 81.2327C41.3521 81.2327 40.3623 82.2232 40.3623 83.445V105.098C40.3623 106.319 41.3521 107.31 42.5732 107.31C43.7942 107.31 44.784 106.319 44.784 105.098V83.445Z" fill="#F5F5F5"/>
<path d="M43.8419 106.444C43.4461 106.443 43.0668 106.286 42.7869 106.006C42.507 105.726 42.3494 105.346 42.3486 104.951V83.598C42.3494 83.2022 42.507 82.8229 42.7869 82.543C43.0668 82.2631 43.4461 82.1055 43.8419 82.1047C44.2377 82.1055 44.6171 82.2631 44.8969 82.543C45.1768 82.8229 45.3344 83.2022 45.3352 83.598V104.945C45.3356 105.141 45.2973 105.336 45.2225 105.517C45.1476 105.699 45.0378 105.864 44.8991 106.004C44.7604 106.143 44.5957 106.253 44.4143 106.329C44.2329 106.404 44.0384 106.444 43.8419 106.444Z" fill="#EBEBEB"/>
<path d="M45.7876 107.31C45.2013 107.308 44.6395 107.075 44.225 106.66C43.8104 106.246 43.5768 105.684 43.5752 105.098V83.445C43.5768 82.8588 43.8104 82.297 44.225 81.8824C44.6395 81.4679 45.2013 81.2343 45.7876 81.2327C46.3738 81.2343 46.9356 81.4679 47.3502 81.8824C47.7647 82.297 47.9983 82.8588 48 83.445V105.098C47.9983 105.684 47.7647 106.246 47.3502 106.66C46.9356 107.075 46.3738 107.308 45.7876 107.31Z" fill="#F5F5F5"/>
<path d="M47.0637 106.444C46.6676 106.443 46.288 106.286 46.0076 106.006C45.7273 105.726 45.569 105.347 45.5674 104.951V83.598C45.569 83.2019 45.7273 82.8226 46.0076 82.5428C46.288 82.263 46.6676 82.1055 47.0637 82.1047C47.4593 82.1063 47.8382 82.2642 48.1179 82.5439C48.3975 82.8236 48.5554 83.2025 48.557 83.598V104.945C48.557 105.341 48.3999 105.722 48.12 106.003C47.8401 106.284 47.4603 106.442 47.0637 106.444Z" fill="#EBEBEB"/>
<path d="M49.0014 107.31C48.4152 107.308 47.8534 107.075 47.4388 106.66C47.0243 106.246 46.7907 105.684 46.7891 105.098V83.445C46.7907 82.8588 47.0243 82.297 47.4388 81.8824C47.8534 81.4679 48.4152 81.2343 49.0014 81.2327C49.5877 81.2343 50.1495 81.4679 50.564 81.8824C50.9786 82.297 51.2122 82.8588 51.2138 83.445V105.098C51.2122 105.684 50.9786 106.246 50.564 106.66C50.1495 107.075 49.5877 107.308 49.0014 107.31Z" fill="#F5F5F5"/>
<path d="M50.2678 106.444C49.8717 106.443 49.4921 106.286 49.2117 106.006C48.9314 105.726 48.7731 105.347 48.7715 104.951V83.598C48.7731 83.2019 48.9314 82.8226 49.2117 82.5428C49.4921 82.263 49.8717 82.1055 50.2678 82.1047C50.6634 82.1063 51.0423 82.2642 51.322 82.5439C51.6016 82.8236 51.7595 83.2025 51.7611 83.598V104.945C51.7611 105.341 51.604 105.722 51.3241 106.003C51.0442 106.284 50.6644 106.442 50.2678 106.444Z" fill="#EBEBEB"/>
<path d="M52.2143 107.31C51.6281 107.308 51.0663 107.075 50.6517 106.66C50.2372 106.246 50.0036 105.684 50.002 105.098V83.445C50.0036 82.8588 50.2372 82.297 50.6517 81.8824C51.0663 81.4679 51.6281 81.2343 52.2143 81.2327C52.8003 81.2343 53.3618 81.468 53.7758 81.8826C54.1899 82.2973 54.4228 82.8591 54.4237 83.445V105.098C54.4228 105.684 54.1899 106.245 53.7758 106.66C53.3618 107.075 52.8003 107.308 52.2143 107.31Z" fill="#F5F5F5"/>
<path d="M53.4904 106.444C53.0948 106.442 52.7159 106.285 52.4362 106.005C52.1565 105.725 51.9987 105.346 51.9971 104.951V83.598C51.9987 83.2025 52.1565 82.8236 52.4362 82.5439C52.7159 82.2642 53.0948 82.1063 53.4904 82.1047C53.8864 82.1055 54.2661 82.263 54.5465 82.5428C54.8268 82.8226 54.9851 83.2019 54.9867 83.598V104.945C54.9867 105.342 54.8291 105.723 54.5486 106.004C54.2681 106.285 53.8875 106.443 53.4904 106.444Z" fill="#EBEBEB"/>
<path d="M55.4272 107.31C54.841 107.308 54.2792 107.075 53.8646 106.66C53.4501 106.246 53.2165 105.684 53.2148 105.098V83.445C53.2165 82.8588 53.4501 82.297 53.8646 81.8824C54.2792 81.4679 54.841 81.2343 55.4272 81.2327C56.0132 81.2343 56.5747 81.468 56.9887 81.8826C57.4028 82.2973 57.6357 82.8591 57.6365 83.445V105.098C57.6357 105.684 57.4028 106.245 56.9887 106.66C56.5747 107.075 56.0132 107.308 55.4272 107.31Z" fill="#F5F5F5"/>
<path d="M58.1379 103.43H51.6507C51.3803 103.43 51.1611 103.649 51.1611 103.92C51.1611 104.19 51.3803 104.409 51.6507 104.409H58.1379C58.4083 104.409 58.6275 104.19 58.6275 103.92C58.6275 103.649 58.4083 103.43 58.1379 103.43Z" fill="#F5F5F5"/>
<path d="M58.1378 85.7524H51.6537C51.5894 85.7524 51.5257 85.7397 51.4663 85.7151C51.4069 85.6905 51.3529 85.6545 51.3075 85.609C51.262 85.5635 51.2259 85.5096 51.2013 85.4502C51.1767 85.3908 51.1641 85.3271 51.1641 85.2628C51.1641 85.1985 51.1767 85.1348 51.2013 85.0754C51.2259 85.016 51.262 84.9621 51.3075 84.9166C51.3529 84.8711 51.4069 84.8351 51.4663 84.8105C51.5257 84.7859 51.5894 84.7732 51.6537 84.7732H58.1409C58.2052 84.7732 58.2688 84.7859 58.3282 84.8105C58.3876 84.8351 58.4416 84.8711 58.4871 84.9166C58.5325 84.9621 58.5686 85.016 58.5932 85.0754C58.6178 85.1348 58.6305 85.1985 58.6305 85.2628C58.6305 85.3273 58.6177 85.3913 58.5929 85.4509C58.5681 85.5105 58.5318 85.5646 58.486 85.6101C58.4402 85.6556 58.3859 85.6916 58.3261 85.716C58.2663 85.7404 58.2024 85.7528 58.1378 85.7524Z" fill="#F5F5F5"/>
<path d="M79.5003 122.833C112.268 122.833 138.831 121.283 138.831 119.369C138.831 117.456 112.268 115.906 79.5003 115.906C46.733 115.906 20.1699 117.456 20.1699 119.369C20.1699 121.283 46.733 122.833 79.5003 122.833Z" fill="#F5F5F5"/>
<path d="M128.408 68.0899H55.2737C54.882 68.094 54.4937 68.0166 54.1335 67.8629C53.7732 67.7091 53.4488 67.4823 53.1807 67.1966C52.9127 66.911 52.7068 66.5729 52.5761 66.2036C52.4455 65.8344 52.3929 65.442 52.4217 65.0513L55.1023 21.8809C55.164 21.0626 55.5294 20.2969 56.1267 19.7341C56.724 19.1714 57.5101 18.8522 58.3306 18.8392H131.465C131.856 18.8356 132.245 18.9133 132.605 19.0674C132.965 19.2215 133.29 19.4487 133.558 19.7345C133.826 20.0204 134.032 20.3587 134.162 20.7281C134.293 21.0976 134.345 21.4901 134.317 21.8809L131.636 65.0513C131.573 65.8691 131.208 66.6341 130.611 67.1962C130.013 67.7583 129.228 68.077 128.408 68.0899Z" fill="#0E53BE"/>
<path opacity="0.8" d="M128.408 68.0899H55.2737C54.882 68.094 54.4937 68.0166 54.1335 67.8629C53.7732 67.7091 53.4488 67.4823 53.1807 67.1966C52.9127 66.911 52.7068 66.5729 52.5761 66.2036C52.4455 65.8344 52.3929 65.442 52.4217 65.0513L55.1023 21.8809C55.164 21.0626 55.5294 20.2969 56.1267 19.7341C56.724 19.1714 57.5101 18.8522 58.3306 18.8392H131.465C131.856 18.8356 132.245 18.9133 132.605 19.0674C132.965 19.2215 133.29 19.4487 133.558 19.7345C133.826 20.0204 134.032 20.3587 134.162 20.7281C134.293 21.0976 134.345 21.4901 134.317 21.8809L131.636 65.0513C131.573 65.8691 131.208 66.6341 130.611 67.1962C130.013 67.7583 129.228 68.077 128.408 68.0899Z" fill="white"/>
<path opacity="0.4" d="M64.6469 31.2782H55.9381C55.8271 31.2798 55.717 31.2582 55.6148 31.2149C55.5126 31.1715 55.4205 31.1074 55.3445 31.0265C55.2685 30.9455 55.2102 30.8497 55.1733 30.745C55.1364 30.6403 55.1218 30.529 55.1303 30.4183L55.3781 26.4403C55.3922 26.2065 55.4951 25.9869 55.6657 25.8265C55.8364 25.6661 56.0619 25.577 56.2961 25.5774H65.0049L64.6469 31.2782Z" fill="white"/>
<path d="M131.419 19.6011H67.6512C67.0349 19.6066 66.4433 19.8444 65.9946 20.267C65.5459 20.6896 65.2731 21.2659 65.2308 21.8808L64.6188 31.786H55.9069C55.6727 31.7856 55.4472 31.8747 55.2765 32.0351C55.1059 32.1956 55.003 32.4151 54.9889 32.6489L54.7594 36.3821C54.7505 36.4931 54.7648 36.6047 54.8015 36.7097C54.8382 36.8148 54.8964 36.9111 54.9725 36.9923C55.0485 37.0736 55.1407 37.138 55.2432 37.1815C55.3456 37.2251 55.456 37.2467 55.5673 37.2451H64.276L62.5502 65.0513C62.5276 65.3448 62.5665 65.6397 62.6643 65.9174C62.7621 66.195 62.9167 66.4492 63.1183 66.6637C63.3198 66.8782 63.5639 67.0483 63.8349 67.1632C64.1059 67.2781 64.3979 67.3353 64.6922 67.331H128.46C129.076 67.3255 129.667 67.0877 130.116 66.6651C130.565 66.2425 130.838 65.6662 130.88 65.0513L133.561 21.8808C133.584 21.5872 133.545 21.2921 133.447 21.0142C133.35 20.7364 133.195 20.482 132.994 20.2674C132.792 20.0528 132.548 19.8827 132.276 19.7679C132.005 19.6532 131.713 19.5964 131.419 19.6011Z" fill="white"/>
<path opacity="0.4" d="M63.8936 43.2122H55.197C55.0856 43.2138 54.9751 43.1922 54.8725 43.1487C54.77 43.1052 54.6776 43.0408 54.6013 42.9596C54.525 42.8784 54.4664 42.7822 54.4294 42.6771C54.3924 42.572 54.3776 42.4604 54.3861 42.3493L54.6187 38.6161C54.6328 38.3823 54.7356 38.1627 54.9063 38.0023C55.077 37.8419 55.3025 37.7528 55.5367 37.7532H64.2455L63.8936 43.2122Z" fill="white"/>
<path opacity="0.4" d="M63.5357 49.179H54.8269C54.7155 49.1806 54.605 49.159 54.5024 49.1155C54.3998 49.072 54.3075 49.0076 54.2312 48.9264C54.1549 48.8452 54.0963 48.749 54.0593 48.6439C54.0222 48.5388 54.0075 48.4272 54.016 48.3161L54.2486 44.5798C54.2634 44.3466 54.3666 44.1278 54.5372 43.968C54.7078 43.8082 54.9329 43.7195 55.1666 43.72H63.8753L63.5357 49.179Z" fill="white"/>
<path opacity="0.4" d="M63.1653 55.1462H54.4566C54.3453 55.1473 54.235 55.1254 54.1326 55.0817C54.0303 55.0381 53.9381 54.9737 53.8619 54.8926C53.7857 54.8115 53.7271 54.7154 53.6899 54.6106C53.6527 54.5057 53.6376 54.3942 53.6457 54.2833L53.8782 50.547C53.8958 50.3145 53.9997 50.097 54.1696 49.9373C54.3395 49.7776 54.5631 49.6872 54.7962 49.6841H63.505L63.1653 55.1462Z" fill="white"/>
<path opacity="0.4" d="M62.7953 61.1101H54.1018C53.9883 61.114 53.8752 61.0937 53.7701 61.0507C53.665 61.0076 53.5703 60.9427 53.4922 60.8602C53.4141 60.7777 53.3544 60.6796 53.317 60.5724C53.2797 60.4651 53.2656 60.3511 53.2756 60.238L53.5082 56.5048C53.5222 56.271 53.6251 56.0514 53.7958 55.891C53.9664 55.7305 54.1919 55.6414 54.4262 55.6418H63.138L62.7953 61.1101Z" fill="white"/>
<path opacity="0.2" d="M55.8249 36.5506C55.7763 36.5516 55.728 36.5424 55.6832 36.5236C55.6384 36.5047 55.5981 36.4766 55.5649 36.441C55.5317 36.4055 55.5063 36.3634 55.4905 36.3174C55.4747 36.2714 55.4687 36.2227 55.473 36.1742L55.675 32.897C55.684 32.7854 55.7341 32.6811 55.8154 32.6043C55.8968 32.5275 56.0038 32.4835 56.1156 32.4808H63.4964C63.545 32.4797 63.5933 32.489 63.6381 32.5078C63.6829 32.5267 63.7232 32.5548 63.7564 32.5903C63.7896 32.6259 63.815 32.668 63.8308 32.714C63.8466 32.7599 63.8526 32.8087 63.8483 32.8572L63.6463 36.1375C63.6365 36.2485 63.5862 36.352 63.5049 36.4282C63.4236 36.5044 63.3171 36.548 63.2057 36.5506H55.8249Z" fill="#0E53BE"/>
<path opacity="0.3" d="M80.4179 24.742H69.8823C69.6937 24.7433 69.5067 24.7056 69.3333 24.6312C69.1599 24.5568 69.0038 24.4473 68.8748 24.3096C68.7457 24.1719 68.6466 24.0091 68.5835 23.8312C68.5205 23.6534 68.4949 23.4644 68.5084 23.2762C68.5381 22.8824 68.7142 22.5139 69.0018 22.2432C69.2895 21.9726 69.6679 21.8193 70.0629 21.8135H80.5923C80.7809 21.8118 80.9677 21.8491 81.1411 21.9232C81.3145 21.9972 81.4707 22.1064 81.5998 22.2439C81.7289 22.3813 81.8281 22.544 81.8912 22.7216C81.9542 22.8993 81.9798 23.0882 81.9663 23.2762C81.936 23.6691 81.7608 24.0367 81.4746 24.3075C81.1885 24.5784 80.8118 24.7333 80.4179 24.742Z" fill="#0E53BE"/>
<path d="M130.602 23.2792C130.573 23.6736 130.397 24.0428 130.11 24.3141C129.822 24.5854 129.443 24.7391 129.048 24.7449C128.859 24.7467 128.672 24.7093 128.498 24.635C128.324 24.5608 128.168 24.4513 128.039 24.3136C127.91 24.1758 127.811 24.0127 127.748 23.8347C127.685 23.6566 127.66 23.4675 127.674 23.2792C127.703 22.8851 127.879 22.5162 128.166 22.2454C128.454 21.9746 128.833 21.8216 129.228 21.8165C129.417 21.8143 129.604 21.8513 129.778 21.9252C129.951 21.9991 130.107 22.1083 130.237 22.2458C130.366 22.3833 130.465 22.5462 130.528 22.7241C130.591 22.902 130.616 23.091 130.602 23.2792Z" fill="#0E53BE"/>
<path opacity="0.4" d="M100.776 49.785H69.7075C69.3333 49.789 68.9622 49.7152 68.618 49.5683C68.2737 49.4214 67.9637 49.2046 67.7077 48.9315C67.4516 48.6585 67.2551 48.3353 67.1305 47.9823C67.006 47.6293 66.9561 47.2543 66.9841 46.8811L67.9174 31.78C67.9748 30.9985 68.3232 30.267 68.8937 29.7299C69.4642 29.1929 70.2154 28.8893 70.9989 28.8791H102.076C102.45 28.8746 102.821 28.948 103.165 29.0946C103.509 29.2412 103.819 29.4578 104.075 29.7307C104.331 30.0035 104.527 30.3266 104.651 30.6794C104.776 31.0322 104.825 31.407 104.797 31.78L103.86 46.878C103.802 47.6603 103.453 48.3925 102.883 48.9306C102.312 49.4686 101.56 49.7734 100.776 49.785ZM70.9897 29.0076C70.2404 29.0178 69.5221 29.3085 68.9766 29.8223C68.4311 30.3361 68.0979 31.0357 68.0429 31.783L67.1065 46.8811C67.0793 47.238 67.1267 47.5967 67.2457 47.9343C67.3646 48.2719 67.5525 48.5811 67.7975 48.8422C68.0424 49.1032 68.339 49.3104 68.6683 49.4506C68.9977 49.5908 69.3527 49.6609 69.7106 49.6565H100.785C101.534 49.6463 102.252 49.3556 102.798 48.8418C103.343 48.328 103.677 47.6284 103.732 46.8811L104.671 31.78C104.698 31.4232 104.65 31.0647 104.531 30.7273C104.412 30.3898 104.224 30.0809 103.979 29.8199C103.734 29.559 103.438 29.3517 103.109 29.2114C102.78 29.071 102.425 29.0006 102.067 29.0046L70.9897 29.0076Z" fill="#0E53BE"/>
<path d="M73.4805 38.9219L77.9389 41.8075C78.8325 40.503 80.0201 39.4265 81.4059 38.6649L79.0099 33.9219C76.8022 35.1348 74.9087 36.8471 73.4805 38.9219Z" fill="#0E53BE"/>
<path opacity="0.8" d="M73.4805 38.9219L77.9389 41.8075C78.8325 40.503 80.0201 39.4265 81.4059 38.6649L79.0099 33.9219C76.8022 35.1348 74.9087 36.8471 73.4805 38.9219Z" fill="white"/>
<path d="M70.7939 46.6517H76.253C76.3674 44.9144 76.95 43.2405 77.939 41.8077L73.4806 38.9221C71.9037 41.2089 70.9753 43.8799 70.7939 46.6517Z" fill="#263238"/>
<path d="M86.342 32.0125C83.7728 32.0179 81.2465 32.6726 78.998 33.9158L81.394 38.6649C82.8001 37.8898 84.3785 37.4805 85.984 37.4746C87.1678 37.4596 88.3417 37.6913 89.431 38.155C90.5203 38.6187 91.501 39.3042 92.3108 40.1678C93.1206 41.0314 93.7416 42.0542 94.1343 43.171C94.527 44.2878 94.6828 45.4742 94.5918 46.6546H100.051C100.577 38.567 94.4296 32.0125 86.342 32.0125Z" fill="#0E53BE"/>
<path d="M82.7987 55.3419H66.7949C66.7592 55.342 66.7238 55.3347 66.691 55.3205C66.6581 55.3063 66.6286 55.2855 66.6042 55.2594C66.5798 55.2333 66.561 55.2024 66.5491 55.1687C66.5372 55.135 66.5323 55.0991 66.5348 55.0635L66.6052 53.9374C66.6121 53.8611 66.6474 53.7902 66.704 53.7386C66.7607 53.6871 66.8346 53.6586 66.9112 53.6589H82.915L82.7987 55.3419Z" fill="#0E53BE"/>
<path opacity="0.2" d="M82.7988 55.3419H102.995C103.071 55.3422 103.145 55.3138 103.202 55.2623C103.259 55.2107 103.294 55.1398 103.301 55.0635L103.371 53.9374C103.374 53.9017 103.369 53.8659 103.357 53.8322C103.345 53.7985 103.326 53.7676 103.302 53.7415C103.277 53.7154 103.248 53.6945 103.215 53.6803C103.182 53.6661 103.147 53.6588 103.111 53.6589H82.9151L82.7988 55.3419Z" fill="#0E53BE"/>
<path d="M93.6671 59.782H66.5188C66.4829 59.7825 66.4473 59.7756 66.4143 59.7615C66.3812 59.7475 66.3515 59.7267 66.327 59.7004C66.3025 59.6742 66.2838 59.6431 66.272 59.6092C66.2602 59.5753 66.2557 59.5393 66.2587 59.5035L66.3291 58.3805C66.336 58.3042 66.3712 58.2333 66.4279 58.1817C66.4846 58.1302 66.5585 58.1017 66.6351 58.1021H93.7834L93.6671 59.782Z" fill="#0E53BE"/>
<path opacity="0.2" d="M93.667 59.782H102.718C102.795 59.7823 102.869 59.7539 102.926 59.7023C102.982 59.6508 103.018 59.5799 103.024 59.5036L103.095 58.3805C103.098 58.3448 103.093 58.3088 103.082 58.2749C103.07 58.2409 103.051 58.2099 103.027 58.1836C103.002 58.1574 102.972 58.1366 102.939 58.1225C102.906 58.1085 102.871 58.1015 102.835 58.1021H93.771L93.667 59.782Z" fill="#0E53BE"/>
<path d="M69.4327 64.216H66.2441C66.2084 64.2161 66.173 64.2088 66.1402 64.1946C66.1074 64.1804 66.0778 64.1595 66.0534 64.1334C66.029 64.1073 66.0103 64.0764 65.9983 64.0427C65.9864 64.009 65.9815 63.9732 65.984 63.9375L66.0544 62.8114C66.0613 62.7351 66.0966 62.6642 66.1532 62.6126C66.2099 62.5611 66.2838 62.5327 66.3604 62.533H69.5489L69.4327 64.216Z" fill="#0E53BE"/>
<path opacity="0.2" d="M69.4326 64.216H102.45C102.527 64.2163 102.601 64.1879 102.657 64.1363C102.714 64.0847 102.749 64.0138 102.756 63.9375L102.826 62.8114C102.829 62.7755 102.824 62.7395 102.812 62.7055C102.8 62.6716 102.781 62.6406 102.756 62.6144C102.731 62.5882 102.701 62.5675 102.668 62.5535C102.635 62.5394 102.599 62.5325 102.563 62.533H69.5367L69.4326 64.216Z" fill="#0E53BE"/>
<path d="M109.723 64.3536C109.707 64.3541 109.691 64.3512 109.676 64.345C109.66 64.3387 109.647 64.3294 109.636 64.3176C109.624 64.3057 109.616 64.2916 109.61 64.2762C109.605 64.2608 109.603 64.2445 109.604 64.2282L111.795 28.9433C111.797 28.9092 111.812 28.8773 111.837 28.854C111.862 28.8307 111.895 28.8178 111.929 28.8179C111.946 28.8178 111.961 28.8211 111.976 28.8275C111.991 28.8339 112.004 28.8433 112.015 28.8551C112.026 28.8669 112.034 28.8808 112.04 28.896C112.045 28.9112 112.047 28.9273 112.046 28.9433L109.855 64.216C109.855 64.2336 109.852 64.2512 109.846 64.2677C109.839 64.2842 109.83 64.2993 109.818 64.3121C109.805 64.3248 109.791 64.3351 109.775 64.3422C109.758 64.3494 109.741 64.3533 109.723 64.3536Z" fill="#0E53BE"/>
<path d="M112.189 38.1877C112.171 38.4145 112.069 38.6266 111.904 38.7826C111.738 38.9387 111.52 39.0276 111.293 39.0322C111.184 39.0334 111.076 39.0119 110.976 38.9692C110.876 38.9264 110.786 38.8634 110.711 38.784C110.637 38.7046 110.579 38.6106 110.543 38.508C110.507 38.4053 110.492 38.2962 110.5 38.1877C110.518 37.9603 110.621 37.7478 110.787 37.5917C110.953 37.4356 111.172 37.3469 111.4 37.3431C111.509 37.3415 111.617 37.3626 111.717 37.4052C111.817 37.4478 111.907 37.5109 111.982 37.5905C112.056 37.67 112.113 37.7642 112.149 37.8671C112.184 37.97 112.198 38.0792 112.189 38.1877Z" fill="white"/>
<path d="M111.287 39.1577C111.162 39.1579 111.038 39.1325 110.923 39.0832C110.808 39.0338 110.704 38.9615 110.618 38.8707C110.532 38.7799 110.466 38.6724 110.423 38.555C110.38 38.4375 110.362 38.3125 110.369 38.1877C110.388 37.9259 110.504 37.6808 110.695 37.5007C110.886 37.3206 111.137 37.2185 111.4 37.2146C111.525 37.2144 111.649 37.2398 111.764 37.2894C111.88 37.3389 111.983 37.4115 112.069 37.5027C112.155 37.5938 112.222 37.7016 112.264 37.8194C112.307 37.9373 112.325 38.0626 112.318 38.1877C112.299 38.4491 112.182 38.6939 111.991 38.8735C111.8 39.0532 111.549 39.1546 111.287 39.1577ZM111.391 37.4686C111.197 37.4712 111.011 37.5465 110.87 37.6797C110.729 37.8128 110.643 37.9941 110.629 38.1877C110.622 38.2798 110.634 38.3724 110.665 38.4595C110.696 38.5466 110.745 38.6263 110.808 38.6936C110.871 38.7609 110.948 38.8144 111.033 38.8505C111.118 38.8867 111.21 38.9048 111.302 38.9037C111.495 38.9012 111.681 38.8263 111.822 38.6938C111.963 38.5612 112.049 38.3807 112.064 38.1877C112.071 38.0953 112.059 38.0024 112.028 37.9149C111.998 37.8275 111.949 37.7474 111.886 37.6797C111.823 37.6121 111.746 37.5583 111.661 37.522C111.575 37.4856 111.483 37.4674 111.391 37.4686Z" fill="#0E53BE"/>
<path d="M111.719 45.7888C111.7 46.0156 111.599 46.2277 111.433 46.3837C111.267 46.5398 111.05 46.6287 110.822 46.6333C110.713 46.6345 110.605 46.613 110.505 46.5703C110.405 46.5275 110.315 46.4645 110.24 46.3851C110.166 46.3057 110.109 46.2117 110.072 46.109C110.036 46.0064 110.021 45.8973 110.029 45.7888C110.046 45.5608 110.147 45.3473 110.313 45.1899C110.479 45.0326 110.698 44.9428 110.926 44.9381C111.036 44.9364 111.144 44.9577 111.245 45.0006C111.346 45.0436 111.437 45.1072 111.511 45.1874C111.586 45.2675 111.643 45.3625 111.679 45.4661C111.714 45.5697 111.728 45.6796 111.719 45.7888Z" fill="white"/>
<path d="M110.816 46.7739C110.691 46.7741 110.567 46.7488 110.452 46.6994C110.337 46.6501 110.234 46.5777 110.148 46.4869C110.062 46.3961 109.995 46.2886 109.952 46.1712C109.909 46.0537 109.891 45.9288 109.898 45.8039C109.917 45.5421 110.034 45.297 110.224 45.1169C110.415 44.9368 110.667 44.8347 110.929 44.8308C111.055 44.8306 111.179 44.856 111.294 44.9056C111.409 44.9551 111.513 45.0277 111.599 45.1189C111.685 45.21 111.751 45.3178 111.794 45.4357C111.837 45.5535 111.855 45.6788 111.847 45.8039C111.828 46.0654 111.711 46.3101 111.52 46.4897C111.33 46.6694 111.078 46.7708 110.816 46.7739ZM110.92 45.0848C110.726 45.0874 110.54 45.1627 110.399 45.2959C110.258 45.4291 110.172 45.6104 110.158 45.8039C110.151 45.8961 110.163 45.9889 110.194 46.0762C110.224 46.1635 110.273 46.2434 110.336 46.3108C110.4 46.3783 110.476 46.4317 110.562 46.4677C110.647 46.5037 110.739 46.5215 110.831 46.5199C111.025 46.5174 111.21 46.4425 111.351 46.31C111.492 46.1774 111.579 45.9969 111.593 45.8039C111.603 45.7103 111.592 45.6157 111.563 45.5264C111.533 45.4371 111.485 45.3551 111.421 45.2857C111.358 45.2164 111.28 45.1613 111.194 45.124C111.107 45.0867 111.014 45.0681 110.92 45.0695V45.0848Z" fill="#0E53BE"/>
<path d="M110.644 49.4851L109.527 51.2324H111.547L110.644 49.4851Z" fill="white"/>
<path d="M111.538 51.364H109.519C109.498 51.364 109.477 51.3583 109.458 51.3475C109.44 51.3368 109.425 51.3213 109.415 51.3028C109.403 51.2833 109.397 51.2611 109.397 51.2385C109.397 51.216 109.403 51.1938 109.415 51.1743L110.535 49.427C110.546 49.4087 110.562 49.3936 110.581 49.3831C110.6 49.3727 110.622 49.3672 110.643 49.3672C110.665 49.3672 110.686 49.3727 110.705 49.3831C110.724 49.3936 110.74 49.4087 110.752 49.427L111.67 51.1743C111.679 51.1948 111.683 51.2172 111.681 51.2396C111.68 51.2619 111.672 51.2835 111.66 51.3024C111.648 51.3212 111.631 51.3367 111.612 51.3475C111.592 51.3583 111.57 51.3639 111.548 51.364H111.538ZM109.754 51.1131H111.324L110.62 49.7422L109.754 51.1131Z" fill="#0E53BE"/>
<path d="M124.925 64.3537C124.909 64.3542 124.893 64.3512 124.878 64.345C124.863 64.3388 124.849 64.3294 124.838 64.3176C124.826 64.3058 124.818 64.2917 124.812 64.2763C124.807 64.2609 124.805 64.2445 124.806 64.2282L126.997 28.9434C126.999 28.9093 127.015 28.8774 127.04 28.8541C127.065 28.8308 127.097 28.8178 127.132 28.8179C127.148 28.8174 127.164 28.8204 127.179 28.8266C127.194 28.8328 127.208 28.8422 127.219 28.854C127.231 28.8658 127.239 28.8799 127.245 28.8953C127.25 28.9107 127.252 28.9271 127.251 28.9434L125.06 64.216C125.06 64.252 125.046 64.2866 125.021 64.3123C124.996 64.338 124.961 64.3529 124.925 64.3537Z" fill="#0E53BE"/>
<path d="M126.522 52.1932C126.531 52.0848 126.517 51.9758 126.481 51.8732C126.445 51.7705 126.388 51.6765 126.314 51.5971C126.239 51.5176 126.149 51.4545 126.049 51.4117C125.949 51.369 125.842 51.3475 125.733 51.3487C125.505 51.3525 125.286 51.4411 125.12 51.5973C124.954 51.7534 124.851 51.9659 124.833 52.1932C124.825 52.3018 124.84 52.4109 124.876 52.5135C124.912 52.6162 124.97 52.7102 125.044 52.7896C125.119 52.869 125.209 52.932 125.309 52.9747C125.409 53.0175 125.517 53.0389 125.626 53.0378C125.853 53.0332 126.071 52.9443 126.237 52.7882C126.402 52.6321 126.504 52.4201 126.522 52.1932Z" fill="white"/>
<path d="M125.62 53.1632C125.495 53.1634 125.371 53.138 125.256 53.0887C125.141 53.0393 125.037 52.967 124.951 52.8762C124.865 52.7854 124.799 52.6779 124.756 52.5605C124.713 52.443 124.695 52.318 124.702 52.1932C124.721 51.9317 124.837 51.6869 125.028 51.5073C125.219 51.3277 125.471 51.2263 125.733 51.2231C125.858 51.2229 125.982 51.2483 126.097 51.2977C126.212 51.347 126.315 51.4193 126.401 51.5101C126.487 51.601 126.554 51.7084 126.597 51.8259C126.639 51.9433 126.658 52.0683 126.651 52.1932C126.632 52.4546 126.515 52.6994 126.324 52.879C126.133 53.0586 125.882 53.1601 125.62 53.1632ZM125.724 51.4741C125.53 51.4773 125.344 51.5529 125.203 51.6859C125.062 51.819 124.976 51.9999 124.962 52.1932C124.955 52.2855 124.967 52.3782 124.998 52.4654C125.029 52.5527 125.078 52.6326 125.141 52.7001C125.204 52.7677 125.281 52.8214 125.366 52.8579C125.451 52.8944 125.542 52.9129 125.635 52.9123C125.829 52.909 126.014 52.8334 126.155 52.7004C126.296 52.5674 126.382 52.3865 126.397 52.1932C126.404 52.1009 126.391 52.0082 126.36 51.9209C126.33 51.8337 126.281 51.7538 126.218 51.6862C126.155 51.6186 126.078 51.5649 125.993 51.5284C125.908 51.4919 125.816 51.4734 125.724 51.4741Z" fill="#0E53BE"/>
<path d="M127.704 33.1877C127.713 33.079 127.698 32.9697 127.662 32.8669C127.626 32.764 127.569 32.6698 127.494 32.5903C127.42 32.5108 127.329 32.4478 127.229 32.4052C127.129 32.3626 127.021 32.3415 126.912 32.3431C126.683 32.3469 126.465 32.4356 126.299 32.5917C126.132 32.7478 126.03 32.9603 126.012 33.1877C126.004 33.2962 126.018 33.4053 126.055 33.508C126.091 33.6106 126.148 33.7046 126.223 33.784C126.297 33.8634 126.387 33.9264 126.488 33.9692C126.588 34.0119 126.696 34.0334 126.804 34.0322C127.033 34.0284 127.251 33.9398 127.417 33.7836C127.584 33.6275 127.686 33.4151 127.704 33.1877Z" fill="white"/>
<path d="M126.798 34.1577C126.672 34.1607 126.547 34.1372 126.431 34.0888C126.314 34.0404 126.21 33.9681 126.123 33.8767C126.037 33.7853 125.97 33.6767 125.928 33.558C125.886 33.4393 125.87 33.3132 125.88 33.1877C125.899 32.9259 126.015 32.6808 126.206 32.5007C126.397 32.3206 126.649 32.2185 126.911 32.2146C127.036 32.2144 127.16 32.2398 127.275 32.2894C127.391 32.3389 127.494 32.4115 127.58 32.5026C127.666 32.5938 127.733 32.7016 127.776 32.8194C127.818 32.9373 127.836 33.0626 127.829 33.1877C127.809 33.4489 127.692 33.6932 127.502 33.8727C127.311 34.0522 127.06 34.1539 126.798 34.1577ZM126.905 32.4686C126.711 32.4712 126.525 32.5465 126.384 32.6797C126.243 32.8128 126.157 32.9941 126.143 33.1877C126.136 33.2799 126.148 33.3727 126.178 33.46C126.209 33.5473 126.258 33.6272 126.321 33.6946C126.384 33.7621 126.461 33.8155 126.546 33.8515C126.632 33.8875 126.724 33.9053 126.816 33.9037C127.01 33.9012 127.195 33.8263 127.336 33.6938C127.477 33.5612 127.564 33.3807 127.578 33.1877C127.585 33.0953 127.573 33.0024 127.543 32.9149C127.512 32.8275 127.463 32.7474 127.4 32.6797C127.337 32.6121 127.26 32.5583 127.175 32.522C127.089 32.4856 126.998 32.4674 126.905 32.4686Z" fill="#0E53BE"/>
<path d="M126.207 43.6895L125.308 41.9392H127.324L126.207 43.6895Z" fill="white"/>
<path d="M126.198 43.815C126.177 43.815 126.156 43.809 126.137 43.7976C126.119 43.7863 126.104 43.77 126.094 43.7507L125.192 42.0035C125.181 41.9842 125.176 41.9626 125.176 41.9407C125.176 41.9188 125.181 41.8972 125.192 41.878C125.204 41.8586 125.22 41.8425 125.24 41.8313C125.26 41.82 125.282 41.814 125.305 41.8137H127.325C127.347 41.8135 127.368 41.8194 127.387 41.8307C127.406 41.8421 127.421 41.8584 127.432 41.878C127.442 41.8972 127.448 41.9188 127.448 41.9407C127.448 41.9626 127.442 41.9842 127.432 42.0035L126.318 43.7507C126.305 43.7704 126.287 43.7866 126.266 43.7978C126.245 43.809 126.222 43.8149 126.198 43.815ZM125.519 42.0677L126.223 43.4355L127.098 42.0677H125.519Z" fill="#0E53BE"/>
<path d="M117.325 64.3537C117.308 64.3542 117.292 64.3512 117.277 64.345C117.262 64.3388 117.248 64.3295 117.237 64.3176C117.226 64.3058 117.217 64.2917 117.212 64.2763C117.206 64.2609 117.204 64.2445 117.205 64.2283L119.396 28.9434C119.399 28.9093 119.414 28.8774 119.439 28.8541C119.464 28.8308 119.497 28.8179 119.531 28.8179C119.547 28.8174 119.563 28.8204 119.578 28.8266C119.593 28.8328 119.607 28.8422 119.618 28.8541C119.629 28.866 119.637 28.8802 119.642 28.8956C119.647 28.911 119.649 28.9273 119.647 28.9434L117.459 64.216C117.459 64.252 117.445 64.2866 117.42 64.3123C117.395 64.3381 117.361 64.3529 117.325 64.3537Z" fill="#0E53BE"/>
<path d="M119.66 40.348C119.641 40.5754 119.539 40.7879 119.373 40.944C119.206 41.1001 118.988 41.1887 118.76 41.1926C118.651 41.1942 118.543 41.1731 118.443 41.1305C118.343 41.0879 118.252 41.0248 118.178 40.9452C118.104 40.8657 118.047 40.7714 118.011 40.6686C117.975 40.5657 117.961 40.4565 117.97 40.348C117.989 40.1211 118.09 39.9091 118.256 39.7531C118.422 39.597 118.639 39.508 118.867 39.5035C118.976 39.5023 119.084 39.5238 119.184 39.5665C119.284 39.6092 119.374 39.6723 119.449 39.7517C119.523 39.8311 119.58 39.9251 119.617 40.0277C119.653 40.1304 119.668 40.2394 119.66 40.348Z" fill="white"/>
<path d="M118.754 41.3271C118.628 41.3274 118.504 41.3019 118.389 41.2524C118.274 41.2028 118.17 41.1303 118.084 41.0391C117.998 40.9479 117.932 40.8401 117.889 40.7223C117.846 40.6045 117.828 40.4792 117.836 40.3541C117.855 40.0926 117.971 39.8478 118.162 39.6682C118.353 39.4886 118.605 39.3872 118.867 39.384C118.992 39.3838 119.116 39.4092 119.231 39.4585C119.346 39.5079 119.449 39.5802 119.535 39.671C119.621 39.7619 119.688 39.8693 119.73 39.9868C119.773 40.1042 119.792 40.2292 119.785 40.3541C119.766 40.6158 119.649 40.8609 119.458 41.041C119.268 41.2212 119.016 41.3232 118.754 41.3271ZM118.858 39.635C118.664 39.6382 118.478 39.7138 118.337 39.8468C118.196 39.9799 118.11 40.1608 118.096 40.3541C118.089 40.4463 118.101 40.539 118.132 40.6263C118.163 40.7135 118.212 40.7935 118.275 40.861C118.338 40.9286 118.415 40.9823 118.5 41.0188C118.585 41.0553 118.676 41.0738 118.769 41.0732C118.963 41.0699 119.148 40.9943 119.289 40.8613C119.43 40.7282 119.516 40.5473 119.531 40.3541C119.538 40.2617 119.526 40.1688 119.495 40.0813C119.465 39.9939 119.416 39.9137 119.353 39.8461C119.289 39.7784 119.213 39.7247 119.127 39.6884C119.042 39.652 118.95 39.6338 118.858 39.635Z" fill="#0E53BE"/>
<path d="M118.609 57.2574C118.591 57.4843 118.49 57.6964 118.324 57.8524C118.158 58.0085 117.94 58.0974 117.713 58.102C117.604 58.1036 117.496 58.0825 117.395 58.0399C117.295 57.9973 117.205 57.9343 117.13 57.8548C117.055 57.7753 116.998 57.6811 116.962 57.5782C116.926 57.4754 116.912 57.3661 116.92 57.2574C116.939 57.0306 117.04 56.8185 117.206 56.6625C117.372 56.5064 117.589 56.4175 117.817 56.4129C117.926 56.4117 118.034 56.4332 118.134 56.4759C118.234 56.5187 118.324 56.5817 118.399 56.6611C118.473 56.7405 118.53 56.8345 118.567 56.9372C118.603 57.0398 118.618 57.1489 118.609 57.2574Z" fill="white"/>
<path d="M117.704 58.2275C117.579 58.2277 117.455 58.2024 117.34 58.153C117.225 58.1037 117.121 58.0314 117.035 57.9405C116.949 57.8497 116.883 57.7423 116.84 57.6248C116.797 57.5074 116.779 57.3824 116.786 57.2575C116.805 56.9957 116.921 56.7506 117.112 56.5705C117.303 56.3904 117.554 56.2883 117.817 56.2844C117.942 56.2842 118.066 56.3096 118.181 56.3592C118.297 56.4087 118.4 56.4813 118.486 56.5725C118.572 56.6636 118.639 56.7714 118.681 56.8893C118.724 57.0071 118.742 57.1324 118.735 57.2575C118.716 57.519 118.599 57.7637 118.408 57.9434C118.217 58.123 117.966 58.2244 117.704 58.2275ZM117.808 56.5384C117.614 56.541 117.428 56.6163 117.287 56.7495C117.145 56.8827 117.06 57.064 117.046 57.2575C117.039 57.3497 117.051 57.4422 117.082 57.5293C117.113 57.6164 117.162 57.6961 117.225 57.7634C117.288 57.8308 117.365 57.8842 117.45 57.9204C117.535 57.9565 117.627 57.9746 117.719 57.9735C117.912 57.971 118.098 57.8961 118.239 57.7636C118.38 57.6311 118.466 57.4505 118.481 57.2575C118.488 57.1651 118.476 57.0722 118.445 56.9848C118.415 56.8973 118.366 56.8172 118.303 56.7495C118.239 56.6819 118.163 56.6282 118.077 56.5918C117.992 56.5555 117.9 56.5373 117.808 56.5384Z" fill="#0E53BE"/>
<path d="M119.421 30.5928L118.301 32.3431H120.32L119.421 30.5928Z" fill="white"/>
<path d="M120.31 32.4685H118.294C118.272 32.4688 118.25 32.4629 118.231 32.4515C118.212 32.4402 118.197 32.4238 118.187 32.4043C118.176 32.385 118.171 32.3634 118.171 32.3415C118.171 32.3196 118.176 32.2981 118.187 32.2788L119.304 30.5315C119.316 30.5132 119.332 30.4982 119.351 30.4878C119.37 30.4774 119.392 30.4719 119.414 30.4719C119.436 30.4719 119.457 30.4774 119.477 30.4878C119.496 30.4982 119.512 30.5132 119.524 30.5315L120.424 32.2788C120.435 32.2978 120.441 32.3194 120.441 32.3415C120.441 32.3636 120.435 32.3853 120.424 32.4043C120.411 32.4231 120.394 32.4388 120.375 32.4499C120.355 32.4611 120.333 32.4675 120.31 32.4685ZM118.53 32.2145H120.108L119.402 30.862L118.53 32.2145Z" fill="#0E53BE"/>
<path d="M37.1314 39.6779L36.8254 41.1681L36.5194 42.6981C36.3175 43.714 36.1461 44.73 35.99 45.7275C35.9105 46.2263 35.8493 46.719 35.7972 47.2055C35.7452 47.692 35.6993 48.1633 35.6748 48.6192C35.6536 49.0351 35.6536 49.4518 35.6748 49.8677C35.6748 50.2257 35.7544 50.5317 35.7391 50.5654L35.5341 50.2135C35.4423 50.1217 35.274 50.036 35.2464 50.0758C35.2189 50.1156 35.326 50.1859 35.5218 50.238C35.7739 50.2977 36.0311 50.3335 36.2899 50.3451C36.6186 50.3547 36.9475 50.3465 37.2752 50.3206C38.0178 50.2596 38.7564 50.1574 39.4876 50.0146C39.8701 49.9411 40.2587 49.8646 40.6443 49.779L41.7887 49.5311L41.9417 49.4974C42.3 49.4208 42.6738 49.4689 43.001 49.6339C43.3282 49.7988 43.5891 50.0707 43.7406 50.4043C43.8921 50.738 43.9249 51.1134 43.8337 51.4683C43.7425 51.8232 43.5327 52.1362 43.2392 52.3555L42.667 52.7778L42.1039 53.1633C41.7184 53.4081 41.3297 53.6468 40.9258 53.8671C40.0968 54.3244 39.2308 54.7113 38.3371 55.0238C37.849 55.1878 37.3513 55.3217 36.8468 55.4247C36.2741 55.5425 35.6903 55.5979 35.1057 55.5899C34.373 55.5815 33.6477 55.4427 32.9637 55.1799C32.0818 54.8274 31.3179 54.2321 30.7605 53.4632C30.7017 53.3791 30.6485 53.2912 30.6014 53.2L30.5555 53.1113C30.1738 52.3392 29.9107 51.5139 29.7752 50.6633C29.6623 49.9935 29.5969 49.3166 29.5793 48.6376C29.5569 47.9991 29.5569 47.3769 29.5793 46.771C29.6018 46.1651 29.6436 45.5684 29.7048 44.9809C29.8088 43.8058 29.9833 42.6614 30.1822 41.5261C30.2862 40.96 30.3902 40.397 30.5187 39.837C30.5799 39.5555 30.6411 39.274 30.7115 38.9925L30.938 38.1265C31.1496 37.3199 31.6672 36.6276 32.3811 36.1967C33.0949 35.7657 33.9486 35.6301 34.7609 35.8185C35.5732 36.0069 36.28 36.5046 36.7312 37.2058C37.1824 37.907 37.3424 38.7565 37.1773 39.5739L37.1314 39.6779Z" fill="#0E53BE"/>
<path opacity="0.2" d="M37.1314 39.6779L36.8254 41.1681L36.5194 42.6981C36.3175 43.714 36.1461 44.73 35.99 45.7275C35.9105 46.2263 35.8493 46.719 35.7972 47.2055C35.7452 47.692 35.6993 48.1633 35.6748 48.6192C35.6536 49.0351 35.6536 49.4518 35.6748 49.8677C35.6748 50.2257 35.7544 50.5317 35.7391 50.5654L35.5341 50.2135C35.4423 50.1217 35.274 50.036 35.2464 50.0758C35.2189 50.1156 35.326 50.1859 35.5218 50.238C35.7739 50.2977 36.0311 50.3335 36.2899 50.3451C36.6186 50.3547 36.9475 50.3465 37.2752 50.3206C38.0178 50.2596 38.7564 50.1574 39.4876 50.0146C39.8701 49.9411 40.2587 49.8646 40.6443 49.779L41.7887 49.5311L41.9417 49.4974C42.3 49.4208 42.6738 49.4689 43.001 49.6339C43.3282 49.7988 43.5891 50.0707 43.7406 50.4043C43.8921 50.738 43.9249 51.1134 43.8337 51.4683C43.7425 51.8232 43.5327 52.1362 43.2392 52.3555L42.667 52.7778L42.1039 53.1633C41.7184 53.4081 41.3297 53.6468 40.9258 53.8671C40.0968 54.3244 39.2308 54.7113 38.3371 55.0238C37.849 55.1878 37.3513 55.3217 36.8468 55.4247C36.2741 55.5425 35.6903 55.5979 35.1057 55.5899C34.373 55.5815 33.6477 55.4427 32.9637 55.1799C32.0818 54.8274 31.3179 54.2321 30.7605 53.4632C30.7017 53.3791 30.6485 53.2912 30.6014 53.2L30.5555 53.1113C30.1738 52.3392 29.9107 51.5139 29.7752 50.6633C29.6623 49.9935 29.5969 49.3166 29.5793 48.6376C29.5569 47.9991 29.5569 47.3769 29.5793 46.771C29.6018 46.1651 29.6436 45.5684 29.7048 44.9809C29.8088 43.8058 29.9833 42.6614 30.1822 41.5261C30.2862 40.96 30.3902 40.397 30.5187 39.837C30.5799 39.5555 30.6411 39.274 30.7115 38.9925L30.938 38.1265C31.1496 37.3199 31.6672 36.6276 32.3811 36.1967C33.0949 35.7657 33.9486 35.6301 34.7609 35.8185C35.5732 36.0069 36.28 36.5046 36.7312 37.2058C37.1824 37.907 37.3424 38.7565 37.1773 39.5739L37.1314 39.6779Z" fill="black"/>
<path d="M29.3862 117.944C29.3862 117.944 26.4915 115.318 26.5618 114.486L24.1567 113.262L22.7246 115.734L24.0527 116.478L24.4198 116.358L24.6616 116.778C25.8611 117.39 28.4805 118.586 29.3954 118.552C29.4497 118.46 29.4775 118.354 29.4759 118.247C29.4743 118.139 29.4433 118.034 29.3862 117.944Z" fill="#263238"/>
<path d="M29.5939 87.0497C31.3442 74.5037 30.772 66.8935 32.611 60.7154L43.9942 59.7974C43.9942 59.7974 38.9483 79.6874 36.6502 87.9677C34.3522 96.2481 27.0939 115.024 27.0939 115.024L23.9268 113.402C23.9268 113.402 26.5125 96.7499 29.5939 87.0497Z" fill="#263238"/>
<path opacity="0.2" d="M38.8784 69.0723C38.1042 70.8624 36.5925 82.3588 36.5987 88.0993C36.5987 88.0596 36.6231 88.0137 36.6354 87.9708C37.4463 85.0608 38.5999 80.7125 39.7505 76.303L38.8784 69.0723Z" fill="black"/>
<path d="M47.6756 118.353C47.6756 118.353 42.954 117.282 42.7368 116.517H39.741L39.4932 119.372H41.1578L41.4638 119.109L41.8371 119.372C43.1835 119.372 47.0758 119.372 47.9143 118.883C47.9204 118.448 47.6756 118.353 47.6756 118.353Z" fill="#263238"/>
<path d="M39.6797 87.4016C37.1797 70.4155 37.1797 59.8983 37.1797 59.8983L48.3181 59.7178C48.3181 59.7178 46.9809 79.975 46.5157 88.4604C46.0353 97.2823 43.2813 116.701 43.2813 116.701H39.4135C39.4135 116.701 38.4955 98.3105 39.6797 87.4016Z" fill="#263238"/>
<path d="M38.4711 28.0068C37.9417 31.3392 36.9809 33.1262 36.3291 34.7817C37.4521 35.8282 39.8573 37.1226 42.2839 37.0889C44.7104 37.0553 44.2698 35.412 43.618 34.5644C41.8769 33.6862 41.8096 32.7988 42.2349 32.0216L38.4711 28.0068Z" fill="#7F3E3B"/>
<path d="M34.3096 35.2529C34.3096 35.2529 35.8579 33.4322 36.4699 33.1262C37.0819 32.8202 41.7117 33.4322 42.8041 33.6526C43.8966 33.8729 45.2277 35.4886 45.2277 35.4886L34.3096 35.2529Z" fill="#263238"/>
<path d="M46.1457 27.7285C46.0967 27.9488 46.1732 28.1507 46.317 28.1813C46.4608 28.2119 46.623 28.0589 46.6659 27.8386C46.7087 27.6183 46.6383 27.4163 46.4945 27.3857C46.3507 27.3551 46.1885 27.4959 46.1457 27.7285Z" fill="#263238"/>
<path d="M46.0569 28.0315C46.1692 28.7579 46.3813 29.4653 46.6873 30.1337C46.216 30.4122 45.5918 30.1031 45.5918 30.1031L46.0569 28.0315Z" fill="#630F0F"/>
<path d="M46.8983 26.4648C46.8795 26.4752 46.8585 26.4807 46.837 26.4807C46.8156 26.4807 46.7946 26.4752 46.7758 26.4648C46.6263 26.3935 46.4619 26.3591 46.2963 26.3644C46.1307 26.3698 45.9688 26.4147 45.8242 26.4954C45.81 26.505 45.794 26.5118 45.7772 26.5152C45.7603 26.5186 45.743 26.5186 45.7262 26.5151C45.7093 26.5117 45.6934 26.5049 45.6792 26.4952C45.665 26.4855 45.6529 26.4731 45.6436 26.4586C45.6339 26.4442 45.6271 26.428 45.6237 26.4109C45.6202 26.3938 45.6202 26.3763 45.6237 26.3592C45.6271 26.3421 45.6338 26.3259 45.6436 26.3114C45.6533 26.297 45.6658 26.2846 45.6804 26.275C45.861 26.1697 46.0645 26.1096 46.2734 26.1C46.4823 26.0904 46.6904 26.1316 46.8799 26.22C46.8958 26.2269 46.9102 26.237 46.9222 26.2495C46.9342 26.2621 46.9437 26.2769 46.9499 26.2931C46.9562 26.3094 46.9592 26.3267 46.9587 26.344C46.9582 26.3614 46.9543 26.3785 46.9472 26.3944C46.9404 26.4232 46.9229 26.4484 46.8983 26.4648Z" fill="#263238"/>
<path d="M38.857 25.4947C38.4195 28.2242 38.0217 29.8001 39.0774 31.477C40.6624 33.9984 44.2794 33.4844 45.5248 30.9323C46.6509 28.6373 47.1802 24.5583 44.7751 22.9182C44.2424 22.5548 43.6263 22.3325 42.9844 22.272C42.3425 22.2114 41.6957 22.3147 41.1045 22.5721C40.5133 22.8294 39.9971 23.2325 39.604 23.7437C39.211 24.2548 38.954 24.8573 38.857 25.4947Z" fill="#7F3E3B"/>
<path d="M43.817 28.1079C46.0263 28.5853 45.3837 25.8558 44.8543 25.5834C46.1824 26.379 47.0637 25.4549 46.9963 24.6226C48.0123 24.4543 47.9602 22.7866 47.2626 22.7346C46.8219 21.5809 44.7625 20.6109 44.38 21.3239C43.2693 20.0326 40.2949 20.2529 40.7264 21.1893C39.5973 20.9689 37.1921 21.0699 37.9969 22.7713C36.2802 22.9916 36.3628 25.9292 37.4828 26.2352C36.3108 26.8839 37.4461 29.0994 37.951 30.4886C38.4559 31.8778 43.4865 30.6416 43.817 28.1079Z" fill="#263238"/>
<path d="M42.5598 27.8294C42.4648 28.411 42.5938 29.0069 42.9208 29.4971C43.3523 30.1091 44.0194 29.7266 44.2795 28.9891C44.512 28.3282 44.5671 27.2143 43.9521 26.8808C43.337 26.5473 42.673 27.0828 42.5598 27.8294Z" fill="#7F3E3B"/>
<path d="M34.4657 34.947C38.2295 34.4849 43.5692 34.5247 47.1127 35.1428C47.9914 35.2978 48.7937 35.7401 49.394 36.4002C49.9943 37.0603 50.3586 37.9009 50.4297 38.7903C50.8704 44.1974 49.6739 53.6466 48.6396 63.1602C40.3011 65.957 31.8372 63.1204 31.8372 63.1204C31.6505 61.2018 32.6848 54.9135 33.3304 51.5567C32.8561 48.0927 31.6536 44.1239 30.9773 39.5186C30.9003 38.9886 30.93 38.4485 31.0645 37.9301C31.1989 37.4117 31.4356 36.9253 31.7605 36.4995C32.0854 36.0737 32.492 35.7171 32.9565 35.4505C33.4211 35.1839 33.9342 35.0127 34.4657 34.947Z" fill="#0E53BE"/>
<path opacity="0.2" d="M45.791 42.5176C46.3602 45.7734 48.1625 49.6535 49.8119 52.2208C50.0383 49.9717 50.228 47.8297 50.3474 45.853L45.791 42.5176Z" fill="black"/>
<path d="M73.3582 34.9745C72.1408 34.2011 70.6661 33.9429 69.2584 34.2568C67.8507 34.5707 66.6254 35.431 65.852 36.6483C65.0786 37.8657 64.8204 39.3404 65.1343 40.7481C65.4482 42.1558 66.3085 43.3811 67.5258 44.1545C66.9811 44.8889 65.3838 47.0462 64.8973 47.8785C64.2853 48.8853 63.9793 49.791 64.4016 50.042C64.8238 50.2929 65.4664 49.5799 66.0631 48.5732C66.5589 47.7439 67.6972 45.3143 68.0797 44.4819C69.3366 45.1391 70.8006 45.279 72.1593 44.872C73.518 44.465 74.6639 43.5432 75.3526 42.3032C76.0412 41.0632 76.2181 39.6032 75.8455 38.2347C75.4729 36.8661 74.5804 35.6973 73.3582 34.9776V34.9745ZM74.6648 42.0829C74.1836 42.8908 73.4737 43.5379 72.6248 43.9423C71.7759 44.3468 70.8262 44.4905 69.8956 44.3553C68.965 44.2201 68.0955 43.8121 67.3968 43.1827C66.6981 42.5534 66.2017 41.731 65.9703 40.8196C65.7389 39.9082 65.783 38.9486 66.0968 38.0622C66.4107 37.1758 66.9803 36.4024 67.7337 35.8397C68.4871 35.277 69.3904 34.9503 70.3294 34.9008C71.2685 34.8514 72.201 35.0815 73.0093 35.562C73.5467 35.881 74.0159 36.3029 74.39 36.8034C74.7641 37.304 75.0358 37.8734 75.1896 38.4791C75.3434 39.0848 75.3762 39.7149 75.2861 40.3333C75.1961 40.9517 74.9849 41.5462 74.6648 42.0829Z" fill="#0E53BE"/>
<path opacity="0.2" d="M74.8882 42.2145C74.3814 43.0672 73.633 43.7506 72.7378 44.178C71.8426 44.6054 70.8407 44.7578 69.8589 44.6157C68.8771 44.4737 67.9595 44.0437 67.222 43.3802C66.4846 42.7166 65.9606 41.8492 65.7161 40.8878C65.4717 39.9264 65.5179 38.914 65.8489 37.9788C66.1798 37.0437 66.7807 36.2276 67.5755 35.6339C68.3702 35.0403 69.3232 34.6956 70.3139 34.6436C71.3045 34.5916 72.2884 34.8345 73.1409 35.3417C73.7072 35.6781 74.2015 36.1227 74.5958 36.6502C74.9901 37.1777 75.2765 37.7777 75.4388 38.416C75.6011 39.0543 75.636 39.7183 75.5415 40.37C75.447 41.0218 75.225 41.6485 74.8882 42.2145Z" fill="#0E53BE"/>
<path d="M67.0858 46.9759L66.4217 46.3884C66.2986 46.2789 66.1509 46.2006 65.9911 46.1601C65.8314 46.1197 65.6642 46.1182 65.5037 46.1558L63.9737 46.5047C63.6748 46.5732 63.3965 46.7123 63.1623 46.9103C62.9281 47.1084 62.7446 47.3596 62.6273 47.643L62.4805 47.998C63.5117 49.0475 65.3997 49.4239 65.3997 49.4239L65.9291 49.5892C66.0361 49.6266 66.1495 49.6423 66.2627 49.6354C66.3759 49.6285 66.4865 49.5991 66.5882 49.549C66.6899 49.4988 66.7806 49.4289 66.855 49.3434C66.9294 49.2578 66.986 49.1583 67.0215 49.0506L67.3673 48.0133C67.4239 47.8315 67.4275 47.6373 67.3776 47.4536C67.3278 47.2698 67.2265 47.1041 67.0858 46.9759Z" fill="#7F3E3B"/>
<path d="M50.2672 37.6826L50.8792 39.0259L51.5249 40.3968C51.9563 41.3148 52.4123 42.1992 52.8682 43.0651C53.0987 43.4976 53.3354 43.9168 53.5781 44.3228C53.8137 44.7298 54.0555 45.1214 54.3003 45.4825C54.5238 45.8126 54.7638 46.1313 55.0194 46.4372C55.2336 46.7004 55.4539 46.8901 55.46 46.9207L55.0806 46.7647C55.5001 46.9599 55.9528 47.0741 56.4147 47.1013C57.063 47.1575 57.7145 47.1657 58.364 47.1257C59.0616 47.0951 59.7807 47.0217 60.506 46.936C60.8701 46.8901 61.2404 46.8473 61.6106 46.7922L62.7061 46.6453L62.856 46.6239C63.2171 46.5756 63.5838 46.6513 63.8963 46.8384C64.2087 47.0255 64.4485 47.3131 64.5764 47.6541C64.7043 47.9952 64.7127 48.3695 64.6004 48.7159C64.488 49.0624 64.2614 49.3605 63.9576 49.5615L63.4007 49.9287L62.853 50.2592C62.4827 50.4703 62.1094 50.6753 61.7238 50.8712C61.3383 51.067 60.9497 51.2414 60.5488 51.4067C60.1479 51.5719 59.7348 51.7127 59.3248 51.8626C58.4395 52.1564 57.5272 52.3614 56.6014 52.4746C55.4911 52.6231 54.3624 52.5545 53.2782 52.2727C53.1995 52.2505 53.1227 52.2219 53.0487 52.187L52.9019 52.1166C52.1305 51.7461 51.4221 51.2566 50.8027 50.6662C50.3118 50.2072 49.8537 49.7144 49.4318 49.1912C48.6755 48.2579 47.9863 47.2722 47.3694 46.2414C46.7574 45.253 46.2249 44.2494 45.72 43.2426C45.4722 42.7347 45.2243 42.2298 44.9979 41.7126C44.8847 41.4556 44.7684 41.1955 44.6613 40.9354L44.3308 40.1183C44.0143 39.3421 44.0147 38.4727 44.3319 37.6967C44.6491 36.9207 45.2578 36.3 46.0274 35.9676C46.797 35.6353 47.6662 35.6178 48.4486 35.919C49.2309 36.2201 49.864 36.8159 50.2121 37.5785L50.2672 37.6826Z" fill="#0E53BE"/>
<path d="M114.032 107.925C113.561 104.225 115.623 101.242 117.618 98.3532C119.965 94.9566 122.392 91.4468 120.957 86.6273C120.565 85.3077 119.908 84.0821 119.026 83.0257C118.17 85.2214 116.712 87.1307 114.819 88.5337C112.156 90.5166 109.005 91.1408 106.811 90.128C105.571 89.5588 104.057 88.2155 103.827 85.0698C103.601 81.8507 105.47 79.5618 108.824 78.9498C112.178 78.3378 116.251 79.5618 118.922 82.4412C119.597 80.4492 119.79 78.3257 119.485 76.2447L119.791 76.2019C120.114 78.3876 119.896 80.619 119.158 82.7013C120.122 83.8219 120.835 85.1354 121.251 86.5539C122.729 91.5111 120.259 95.0852 117.869 98.5399C115.816 101.511 113.891 104.317 114.335 107.897L114.032 107.925ZM110.565 79.0997C110 79.0987 109.436 79.1478 108.879 79.2466C105.694 79.8249 103.919 82.0006 104.13 85.0392C104.295 87.4107 105.265 89.0723 106.939 89.8403C109.041 90.8073 112.065 90.1953 114.638 88.2797C116.526 86.882 117.971 84.9697 118.8 82.7717C117.754 81.6253 116.483 80.7073 115.066 80.0754C113.649 79.4435 112.117 79.1113 110.565 79.0997Z" fill="#263238"/>
<path d="M119.76 77.273C117.337 75.1096 117.058 72.2546 118.478 71.6518C120.446 70.8164 121.18 74.2926 119.76 77.273Z" fill="#0E53BE"/>
<path d="M117.921 98.182C116.189 95.428 116.085 91.9947 118.2 91.756C120.124 91.5296 120.547 94.7915 117.921 98.182Z" fill="#0E53BE"/>
<path d="M119.815 78.182C119.482 76.1287 120.491 74.5987 121.44 74.871C122.753 75.2474 121.728 77.2701 119.815 78.182Z" fill="#0E53BE"/>
<path d="M115.051 88.1055C113.989 85.8166 114.668 83.696 115.868 83.7022C117.526 83.7144 116.979 86.4164 115.051 88.1055Z" fill="#0E53BE"/>
<path d="M110.975 78.9775C108.79 79.3478 107.15 78.2798 107.434 77.267C107.829 75.8624 109.993 76.9518 110.975 78.9775Z" fill="#0E53BE"/>
<path d="M110.975 78.9775C109.635 78.2615 109.445 77.1966 110.131 76.912C111.095 76.5173 111.554 77.7994 110.975 78.9775Z" fill="#0E53BE"/>
<path d="M121.508 88.0839C120.979 86.6549 121.539 85.7277 122.245 85.9756C123.228 86.3214 122.723 87.5821 121.508 88.0839Z" fill="#0E53BE"/>
<path d="M104.32 87.0834C102.805 87.2486 102.043 86.4714 102.456 85.8594C103.031 84.9842 104.133 85.7829 104.32 87.0834Z" fill="#0E53BE"/>
<path d="M123.736 107.886L123.014 113.198L123.317 113.239L124.039 107.927L123.736 107.886Z" fill="#0E53BE"/>
<path d="M122.816 114.548L122.467 117.116L122.77 117.158L123.119 114.589L122.816 114.548Z" fill="#0E53BE"/>
<path d="M108.264 105.596L110.036 118.552C110.067 118.779 110.179 118.986 110.351 119.136C110.523 119.287 110.744 119.369 110.972 119.369H120.538C120.766 119.369 120.987 119.287 121.159 119.136C121.331 118.986 121.443 118.779 121.474 118.552L123.246 105.596C123.264 105.463 123.253 105.327 123.214 105.198C123.175 105.069 123.109 104.95 123.021 104.849C122.932 104.747 122.823 104.666 122.7 104.61C122.577 104.554 122.444 104.526 122.31 104.525H109.182C109.049 104.528 108.918 104.559 108.798 104.616C108.677 104.673 108.57 104.754 108.483 104.855C108.397 104.956 108.332 105.075 108.295 105.202C108.257 105.33 108.247 105.464 108.264 105.596Z" fill="#0E53BE"/>
</g>
<defs>
<clipPath id="clip0_3991_11592">
<rect width="158" height="134" fill="white"/>
</clipPath>
</defs>
</svg>
