<svg width="158" height="134" viewBox="0 0 158 134" fill="none" xmlns="http://www.w3.org/2000/svg">
<g clip-path="url(#clip0_3991_10740)">
<path d="M154 111.72H4V111.795H154V111.72Z" fill="#EBEBEB"/>
<path d="M138.97 114.576H131.17V114.651H138.97V114.576Z" fill="#EBEBEB"/>
<path d="M110.809 113.763H94.5791V113.838H110.809V113.763Z" fill="#EBEBEB"/>
<path d="M133.6 117.363H122.977V117.438H133.6V117.363Z" fill="#EBEBEB"/>
<path d="M26.8453 116.859H19.7383V116.934H26.8453V116.859Z" fill="#EBEBEB"/>
<path d="M37.2666 116.859H29.5146V116.934H37.2666V116.859Z" fill="#EBEBEB"/>
<path d="M83.5418 115.593H67.1738V115.668H83.5418V115.593Z" fill="#EBEBEB"/>
<path d="M75.0999 98.34H17.1729C16.7191 98.3392 16.2842 98.1584 15.9636 97.8372C15.643 97.5161 15.4629 97.0808 15.4629 96.627V15.198C15.4668 14.7468 15.6486 14.3154 15.9688 13.9975C16.289 13.6795 16.7217 13.5008 17.1729 13.5H75.0999C75.5542 13.5 75.9899 13.6805 76.3112 14.0017C76.6324 14.323 76.8129 14.7587 76.8129 15.213V96.627C76.8129 97.0813 76.6324 97.517 76.3112 97.8383C75.9899 98.1595 75.5542 98.34 75.0999 98.34ZM17.1729 13.56C16.739 13.5608 16.3231 13.7337 16.0166 14.0408C15.7101 14.3479 15.5379 14.7641 15.5379 15.198V96.627C15.5379 97.0609 15.7101 97.4771 16.0166 97.7842C16.3231 98.0913 16.739 98.2642 17.1729 98.265H75.0999C75.5341 98.2642 75.9502 98.0914 76.2573 97.7844C76.5643 97.4774 76.7371 97.0612 76.7379 96.627V15.198C76.7371 14.7638 76.5643 14.3476 76.2573 14.0406C75.9502 13.7336 75.5341 13.5608 75.0999 13.56H17.1729Z" fill="#EBEBEB"/>
<path d="M139.993 98.34H82.0626C81.6085 98.3392 81.1733 98.1585 80.8522 97.8374C80.5311 97.5163 80.3504 97.0811 80.3496 96.627V15.198C80.3543 14.7465 80.5368 14.3151 80.8575 13.9973C81.1781 13.6794 81.6111 13.5008 82.0626 13.5H139.993C140.443 13.5016 140.875 13.6807 141.195 13.9985C141.514 14.3164 141.696 14.7473 141.7 15.198V96.627C141.7 97.0803 141.52 97.5151 141.2 97.8362C140.88 98.1572 140.446 98.3384 139.993 98.34ZM82.0626 13.56C81.6284 13.5608 81.2123 13.7336 80.9052 14.0406C80.5982 14.3476 80.4254 14.7638 80.4246 15.198V96.627C80.4254 97.0612 80.5982 97.4774 80.9052 97.7844C81.2123 98.0914 81.6284 98.2642 82.0626 98.265H139.993C140.427 98.2642 140.843 98.0914 141.15 97.7844C141.457 97.4774 141.63 97.0612 141.631 96.627V15.198C141.63 14.7638 141.457 14.3476 141.15 14.0406C140.843 13.7336 140.427 13.5608 139.993 13.56H82.0626Z" fill="#EBEBEB"/>
<path d="M41.1884 110.193H44.8604L44.8604 66.0661H41.1884L41.1884 110.193Z" fill="#F0F0F0"/>
<path d="M23.5477 111.714H43.8877V110.193H23.5477V111.714Z" fill="#F0F0F0"/>
<path d="M41.188 66.0659H22.582V110.193H41.188V66.0659Z" fill="#F5F5F5"/>
<path d="M39.2054 89.043H24.5654V96.921H39.2054V89.043Z" fill="#F0F0F0"/>
<path d="M39.2054 99.3569H24.5654V107.235H39.2054V99.3569Z" fill="#F0F0F0"/>
<path d="M29.827 93.5249H33.94C34.1802 93.5249 34.375 93.3302 34.375 93.0899V92.8799C34.375 92.6397 34.1802 92.4449 33.94 92.4449H29.827C29.5868 92.4449 29.392 92.6397 29.392 92.8799V93.0899C29.392 93.3302 29.5868 93.5249 29.827 93.5249Z" fill="#F5F5F5"/>
<path d="M29.827 103.836H33.94C34.1802 103.836 34.375 103.641 34.375 103.401V103.191C34.375 102.951 34.1802 102.756 33.94 102.756H29.827C29.5868 102.756 29.392 102.951 29.392 103.191V103.401C29.392 103.641 29.5868 103.836 29.827 103.836Z" fill="#F5F5F5"/>
<path d="M39.2054 68.499H24.5654V76.377H39.2054V68.499Z" fill="#F0F0F0"/>
<path d="M39.2054 78.7319H24.5654V86.6099H39.2054V78.7319Z" fill="#F0F0F0"/>
<path d="M29.827 72.981H33.94C34.1802 72.981 34.375 72.7862 34.375 72.546V72.336C34.375 72.0957 34.1802 71.901 33.94 71.901H29.827C29.5868 71.901 29.392 72.0957 29.392 72.336V72.546C29.392 72.7862 29.5868 72.981 29.827 72.981Z" fill="#F5F5F5"/>
<path d="M29.827 83.2109H33.94C34.1802 83.2109 34.375 83.0162 34.375 82.7759V82.5659C34.375 82.3257 34.1802 82.1309 33.94 82.1309H29.827C29.5868 82.1309 29.392 82.3257 29.392 82.5659V82.7759C29.392 83.0162 29.5868 83.2109 29.827 83.2109Z" fill="#F5F5F5"/>
<path d="M61.5493 110.193H72.5713V66.0661H61.5493L61.5493 110.193Z" fill="#F0F0F0"/>
<path d="M43.9094 111.714H71.4404V110.193H43.9094V111.714Z" fill="#F0F0F0"/>
<path d="M61.5494 66.0659H42.9434V110.193H61.5494V66.0659Z" fill="#F5F5F5"/>
<path d="M59.5658 89.043H44.9258V96.921H59.5658V89.043Z" fill="#F0F0F0"/>
<path d="M59.5658 99.3569H44.9258V107.235H59.5658V99.3569Z" fill="#F0F0F0"/>
<path d="M50.1883 93.5249H54.3013C54.5416 93.5249 54.7363 93.3302 54.7363 93.0899V92.8799C54.7363 92.6397 54.5416 92.4449 54.3013 92.4449H50.1883C49.9481 92.4449 49.7533 92.6397 49.7533 92.8799V93.0899C49.7533 93.3302 49.9481 93.5249 50.1883 93.5249Z" fill="#F5F5F5"/>
<path d="M50.1883 103.836H54.3013C54.5416 103.836 54.7363 103.641 54.7363 103.401V103.191C54.7363 102.951 54.5416 102.756 54.3013 102.756H50.1883C49.9481 102.756 49.7533 102.951 49.7533 103.191V103.401C49.7533 103.641 49.9481 103.836 50.1883 103.836Z" fill="#F5F5F5"/>
<path d="M59.5658 68.499H44.9258V76.377H59.5658V68.499Z" fill="#F0F0F0"/>
<path d="M59.5658 78.7319H44.9258V86.6099H59.5658V78.7319Z" fill="#F0F0F0"/>
<path d="M50.1883 72.981H54.3013C54.5416 72.981 54.7363 72.7862 54.7363 72.546V72.336C54.7363 72.0957 54.5416 71.901 54.3013 71.901H50.1883C49.9481 71.901 49.7533 72.0957 49.7533 72.336V72.546C49.7533 72.7862 49.9481 72.981 50.1883 72.981Z" fill="#F5F5F5"/>
<path d="M50.1883 83.2109H54.3013C54.5416 83.2109 54.7363 83.0162 54.7363 82.7759V82.5659C54.7363 82.3257 54.5416 82.1309 54.3013 82.1309H50.1883C49.9481 82.1309 49.7533 82.3257 49.7533 82.5659V82.7759C49.7533 83.0162 49.9481 83.2109 50.1883 83.2109Z" fill="#F5F5F5"/>
<path d="M86.4012 108.447H132.742V20.76H86.4012L86.4012 108.447Z" fill="#E6E6E6"/>
<path d="M85.4774 108.447H131.818V20.76H85.4774L85.4774 108.447Z" fill="#F5F5F5"/>
<path d="M130.168 106.587V22.6169L87.136 22.6169V106.587H130.168Z" fill="white"/>
<path d="M87.832 106.59V22.6201H87.136V106.59H87.832Z" fill="#E6E6E6"/>
<path d="M86.1608 49.8511L131.134 49.8511V47.3551L86.1608 47.3551V49.8511Z" fill="#F5F5F5"/>
<path d="M34.9116 55.8181H59.8506L59.8506 18.8401H34.9116V55.8181Z" fill="#E0E0E0"/>
<path d="M33.3971 55.8181H59.3711L59.3711 18.8401H33.3971V55.8181Z" fill="#F5F5F5"/>
<path d="M35.5723 21.756V52.905H57.1933V21.756H35.5723Z" fill="white"/>
<path d="M47.716 41.145C46.999 41.745 45.763 43.545 42.958 40.737C40.153 37.929 41.941 36.696 42.553 35.982C43.165 35.268 39.985 30.882 38.398 33.228C36.811 35.574 38.035 38.388 41.674 42.024C45.313 45.66 48.127 46.887 50.467 45.3C52.807 43.713 48.433 40.536 47.716 41.145Z" fill="#F5F5F5"/>
<path d="M49.6545 40.2179C49.5749 40.2179 49.4986 40.1863 49.4423 40.13C49.3861 40.0738 49.3545 39.9975 49.3545 39.9179C49.3529 38.4401 48.7651 37.0232 47.7201 35.9782C46.6751 34.9333 45.2583 34.3455 43.7805 34.3439C43.7009 34.3439 43.6246 34.3123 43.5683 34.256C43.5121 34.1998 43.4805 34.1235 43.4805 34.0439C43.4805 33.9643 43.5121 33.888 43.5683 33.8318C43.6246 33.7755 43.7009 33.7439 43.7805 33.7439C45.4174 33.7455 46.9869 34.3965 48.1444 35.554C49.3019 36.7115 49.9529 38.2809 49.9545 39.9179C49.9545 39.9975 49.9229 40.0738 49.8666 40.13C49.8103 40.1863 49.734 40.2179 49.6545 40.2179Z" fill="#F5F5F5"/>
<path d="M52.1772 39.873C52.0976 39.873 52.0213 39.8414 51.9651 39.7852C51.9088 39.7289 51.8772 39.6526 51.8772 39.573C51.8748 37.5175 51.0574 35.5468 49.6042 34.0931C48.1511 32.6394 46.1807 31.8212 44.1252 31.818C44.0456 31.818 43.9693 31.7864 43.9131 31.7301C43.8568 31.6739 43.8252 31.5976 43.8252 31.518C43.8252 31.4385 43.8568 31.3621 43.9131 31.3059C43.9693 31.2496 44.0456 31.218 44.1252 31.218C46.3401 31.2204 48.4635 32.1015 50.0294 33.668C51.5953 35.2344 52.4756 37.3581 52.4772 39.573C52.4772 39.6526 52.4456 39.7289 52.3893 39.7852C52.3331 39.8414 52.2568 39.873 52.1772 39.873Z" fill="#F5F5F5"/>
<path d="M55.0206 39.8999C54.9411 39.8999 54.8648 39.8683 54.8085 39.812C54.7522 39.7558 54.7206 39.6795 54.7206 39.5999C54.7167 36.7864 53.597 34.0893 51.6073 32.1001C49.6176 30.111 46.9202 28.9921 44.1066 28.9889C44.0271 28.9889 43.9508 28.9573 43.8945 28.901C43.8382 28.8448 43.8066 28.7685 43.8066 28.6889C43.8066 28.6094 43.8382 28.533 43.8945 28.4768C43.9508 28.4205 44.0271 28.3889 44.1066 28.3889C47.0793 28.3921 49.9293 29.5742 52.0316 31.6759C54.1338 33.7776 55.3167 36.6273 55.3206 39.5999C55.3206 39.6795 55.289 39.7558 55.2328 39.812C55.1765 39.8683 55.1002 39.8999 55.0206 39.8999Z" fill="#F5F5F5"/>
<path d="M23.224 48.7379C23.893 48.9989 25.714 48.7199 25.108 49.6739C24.7474 50.1875 24.3297 50.6585 23.863 51.0779C23.185 51.7259 23.314 52.4279 24.115 52.6829C24.2793 52.7261 24.4306 52.8085 24.556 52.9229C24.925 53.3309 24.055 53.8829 23.626 54.2909C23.197 54.6989 23.026 55.1069 23.344 55.4129C23.662 55.7189 24.418 55.6259 24.994 55.7129C26.383 55.9559 24.955 57.4409 25.102 58.2059C25.204 58.7279 25.75 58.8719 26.491 58.9469C27.091 59.0069 27.904 59.0489 27.937 59.5289C27.967 59.9459 27.268 60.4289 27.085 60.8549C26.9975 61.0409 26.9637 61.2476 26.9876 61.4517C27.0115 61.6558 27.092 61.8492 27.22 62.0099C27.4975 62.326 27.8823 62.528 28.3 62.5769C28.987 62.6909 30.025 62.5769 30.076 63.1769C30.097 63.4469 29.857 63.6839 30.025 63.9329C30.2367 64.1527 30.5242 64.2836 30.829 64.2989C31.4883 64.378 32.1552 64.3689 32.812 64.2719C33.619 64.1579 34.81 63.6059 34.372 63.0719C34.2023 62.9099 33.9819 62.8114 33.748 62.7929C33.553 62.7629 32.989 62.8109 32.917 62.7089C32.845 62.6069 33.04 62.2169 33.049 62.0729C33.0673 61.6771 32.9858 61.283 32.812 60.9269C32.5719 60.4232 32.215 59.984 31.771 59.6459C31.582 59.4959 31.276 59.3849 31.237 59.1659C31.198 58.9469 31.375 58.7069 31.57 58.4909C31.87 58.1549 32.359 57.8339 32.53 57.4739C32.803 56.9069 32.143 56.7269 31.534 56.5979C30.982 56.4809 30.256 56.3309 30.442 55.8119C30.58 55.4369 31.189 55.1279 31.372 54.7619C31.615 54.2729 31.018 54.2519 30.589 54.0779C30.473 54.0464 30.3657 53.9891 30.2751 53.9101C30.1844 53.8311 30.1129 53.7326 30.0658 53.622C30.0188 53.5114 29.9974 53.3916 30.0033 53.2716C30.0092 53.1515 30.0423 53.0344 30.1 52.9289C30.43 52.0799 32.437 50.8799 31.411 50.3309C31.15 50.1899 30.907 50.1419 30.751 49.9319C30.595 49.7219 30.559 49.4249 30.34 49.2209C29.995 48.8969 29.281 48.8429 28.906 48.5429C28.141 47.9249 29.806 46.8299 28.285 46.5689C27.9735 46.5408 27.6721 46.4434 27.403 46.2839C27.265 46.1849 27.154 45.7019 26.998 45.6659C26.305 45.5159 25.054 46.5659 24.661 46.8839C24.19 47.2739 22.423 48.4259 23.224 48.7379Z" fill="#E0E0E0"/>
<path d="M35.1096 63.132C34.6986 62.532 32.9016 61.95 34.0956 61.263C34.7545 60.9178 35.4459 60.6384 36.1596 60.429C37.2036 60.09 37.5756 59.31 37.0596 58.662C36.9424 58.5347 36.8643 58.3764 36.8346 58.206C36.7926 57.606 37.9416 57.465 38.6016 57.249C39.2616 57.033 39.6906 56.706 39.6246 56.238C39.5496 55.725 38.8206 55.503 38.3826 55.122C37.3266 54.201 39.6096 53.367 40.0086 52.515C40.2786 51.933 39.8976 51.519 39.2946 51.087C38.8026 50.733 38.1186 50.301 38.4216 49.794C38.6826 49.353 39.6216 49.194 40.0896 48.846C40.2914 48.7054 40.4575 48.5196 40.5747 48.3034C40.6918 48.0873 40.7569 47.8467 40.7646 47.601C40.7546 47.3875 40.6975 47.1789 40.5974 46.9901C40.4973 46.8013 40.3567 46.637 40.1856 46.509C39.6576 46.062 38.6586 45.681 39.0306 45.042C39.1956 44.742 39.5736 44.628 39.5946 44.295C39.5832 44.1404 39.5361 43.9906 39.4569 43.8573C39.3778 43.7241 39.2689 43.611 39.1386 43.527C38.6024 43.1271 38.006 42.8152 37.3716 42.603C36.5796 42.33 35.1486 42.321 35.1696 43.077C35.185 43.194 35.2248 43.3065 35.2863 43.4072C35.3477 43.508 35.4296 43.5947 35.5266 43.662C35.6766 43.788 36.2076 44.01 36.2016 44.148C36.1956 44.286 35.7546 44.595 35.6466 44.748C35.3633 45.1318 35.1649 45.5715 35.0646 46.038C34.9305 46.6319 34.9418 47.2494 35.0976 47.838C35.1636 48.084 35.3586 48.342 35.2416 48.585C35.0551 48.8431 34.7864 49.0303 34.4796 49.116C33.9756 49.311 33.3306 49.416 32.9286 49.698C32.2986 50.145 32.7576 50.649 33.2046 51.075C33.6516 51.501 34.1496 51.975 33.6246 52.404C33.2466 52.722 32.4966 52.743 32.0856 53.031C31.5306 53.415 32.0436 53.724 32.2986 54.108C32.6346 54.609 32.4786 55.092 31.9446 55.524C31.0656 56.232 28.4676 56.493 28.9926 57.552C29.1276 57.822 29.2926 57.987 29.2926 58.278C29.2926 58.569 29.1126 58.878 29.1636 59.202C29.2446 59.703 29.8386 60.102 29.9586 60.591C30.2106 61.593 27.9936 61.917 29.1456 62.91C29.4088 63.0881 29.6167 63.3365 29.7456 63.627C29.7966 63.795 29.5626 64.344 29.6766 64.455C30.1836 64.941 32.0076 64.476 32.5746 64.335C33.2466 64.164 35.6016 63.837 35.1096 63.132Z" fill="#E6E6E6"/>
<path d="M37.3479 59.877C37.3479 59.877 37.1889 66.066 31.1529 66.066C25.1169 66.066 24.9609 59.877 24.9609 59.877H37.3479Z" fill="#F0F0F0"/>
<path d="M79 125.268C111.125 125.268 137.167 123.748 137.167 121.872C137.167 119.997 111.125 118.476 79 118.476C46.8753 118.476 20.833 119.997 20.833 121.872C20.833 123.748 46.8753 125.268 79 125.268Z" fill="#F5F5F5"/>
<path d="M62.8537 20.496H62.5537C62.5515 19.598 62.7353 18.7093 63.0937 17.886C63.6032 16.7073 64.4464 15.7034 65.5195 14.9981C66.5926 14.2928 67.8486 13.917 69.1327 13.917V14.217C67.9079 14.2188 66.7102 14.5776 65.6862 15.2495C64.6621 15.9214 63.8561 16.8772 63.3667 18C63.0253 18.7877 62.8506 19.6375 62.8537 20.496Z" fill="#0E53BE"/>
<path d="M62.8537 22.3679H62.5537V26.3939H62.8537V22.3679Z" fill="#0E53BE"/>
<path d="M88.6235 14.967H69.1355C66.0803 14.967 63.6035 17.4438 63.6035 20.499V26.391C63.6035 29.4463 66.0803 31.923 69.1355 31.923H88.6235C91.6788 31.923 94.1555 29.4463 94.1555 26.391V20.499C94.1555 17.4438 91.6788 14.967 88.6235 14.967Z" fill="#0E53BE"/>
<path d="M82.3896 30.6601C84.2826 35.1271 89.4336 36.8551 92.4216 37.2421C89.4906 33.1651 89.6196 29.5801 89.6196 29.5801L82.3896 30.6601Z" fill="#0E53BE"/>
<path d="M73.0779 19.725L70.4049 19.074L68.5059 21.063L69.2769 23.703L71.9529 24.354L73.8519 22.365L73.0779 19.725Z" fill="#E0E0E0"/>
<path d="M72.1414 19.4969L69.4654 18.8459L67.5664 20.8349L68.3404 23.4749L71.0134 24.1259L72.9124 22.1369L72.1414 19.4969Z" fill="white"/>
<path d="M87.8283 24.1169L78.3513 21.8129C78.2288 21.1113 77.9234 20.4543 77.4659 19.9083C77.0084 19.3624 76.4151 18.9467 75.7457 18.7033C75.0763 18.4599 74.3545 18.3973 73.6532 18.5219C72.9519 18.6465 72.2959 18.9538 71.7513 19.4129L74.9223 20.1839L75.6933 22.8239L73.7943 24.8159L70.6143 24.0299C70.8857 24.6914 71.3275 25.2692 71.8946 25.7047C72.4617 26.1401 73.134 26.4176 73.8432 26.509C74.5523 26.6005 75.273 26.5025 75.932 26.2252C76.5911 25.9478 77.1649 25.5009 77.5953 24.9299L87.0723 27.2339C87.4843 27.3326 87.9187 27.2644 88.2806 27.0441C88.6425 26.8238 88.9027 26.4693 89.0043 26.0579C89.0549 25.8533 89.0646 25.6406 89.0328 25.4322C89.0011 25.2237 88.9285 25.0236 88.8192 24.8433C88.71 24.663 88.5662 24.506 88.3961 24.3813C88.2261 24.2567 88.0331 24.1668 87.8283 24.1169Z" fill="white"/>
<path d="M87.4053 26.715C87.9819 26.715 88.4493 26.2475 88.4493 25.671C88.4493 25.0944 87.9819 24.627 87.4053 24.627C86.8287 24.627 86.3613 25.0944 86.3613 25.671C86.3613 26.2475 86.8287 26.715 87.4053 26.715Z" fill="#0E53BE"/>
<path d="M97.0893 106.755H94.2393V113.958H97.0893V106.755Z" fill="#E0E0E0"/>
<path d="M97.6535 111.48H93.6756L93.3996 118.416C93.3923 118.593 93.4208 118.769 93.4834 118.934C93.546 119.1 93.6414 119.251 93.7639 119.378C93.8864 119.506 94.0334 119.607 94.1961 119.676C94.3587 119.746 94.5337 119.781 94.7105 119.781H96.6336C96.8101 119.781 96.9848 119.745 97.1471 119.675C97.3094 119.606 97.4561 119.504 97.5782 119.377C97.7004 119.25 97.7955 119.099 97.858 118.934C97.9204 118.768 97.9488 118.592 97.9416 118.416L97.6535 111.48Z" fill="#263238"/>
<path d="M105.567 119.592C105.484 119.592 105.401 119.571 105.327 119.531C105.254 119.491 105.191 119.434 105.144 119.364C104.75 118.762 104.211 118.267 103.577 117.926C102.943 117.584 102.234 117.406 101.514 117.408H89.8145C89.0945 117.406 88.3855 117.584 87.7516 117.926C87.1178 118.267 86.5792 118.762 86.1845 119.364C86.1085 119.471 85.9937 119.545 85.8644 119.569C85.735 119.593 85.6013 119.567 85.4915 119.494C85.3817 119.422 85.3043 119.309 85.2758 119.181C85.2472 119.053 85.2697 118.918 85.3385 118.806C85.827 118.066 86.4919 117.459 87.2733 117.04C88.0546 116.621 88.9279 116.403 89.8145 116.406H101.514C102.402 116.401 103.277 116.618 104.06 117.036C104.843 117.454 105.509 118.06 105.999 118.8C106.05 118.876 106.079 118.965 106.083 119.056C106.087 119.148 106.066 119.239 106.023 119.319C105.979 119.4 105.915 119.467 105.836 119.514C105.758 119.561 105.668 119.586 105.576 119.586L105.567 119.592Z" fill="#263238"/>
<path d="M100.467 107.259H90.8674C90.3483 107.259 89.8451 107.08 89.4428 106.752C89.0405 106.424 88.7637 105.967 88.6594 105.459L88.3594 103.989H102.987L102.687 105.459C102.583 105.969 102.304 106.428 101.899 106.756C101.495 107.084 100.988 107.262 100.467 107.259Z" fill="#263238"/>
<path d="M74.6582 103.38H86.1662C90.528 103.366 94.7388 101.782 98.0278 98.917C101.317 96.0521 103.464 92.0985 104.076 87.7799L107.232 65.5559H127.566L124.41 87.7799C123.798 92.0985 121.651 96.0521 118.362 98.917C115.073 101.782 110.862 103.366 106.5 103.38H74.6582Z" fill="#263238"/>
<path d="M74.6586 105.066C74.431 105.076 74.2038 105.039 73.9907 104.958C73.7776 104.878 73.583 104.755 73.4186 104.598C73.2541 104.44 73.1233 104.251 73.0339 104.041C72.9445 103.832 72.8984 103.606 72.8984 103.378C72.8984 103.151 72.9445 102.925 73.0339 102.716C73.1233 102.506 73.2541 102.317 73.4186 102.159C73.583 102.002 73.7776 101.879 73.9907 101.798C74.2038 101.718 74.431 101.681 74.6586 101.691H86.1996C90.1468 101.659 93.9519 100.213 96.9242 97.6158C99.8966 95.0183 101.839 91.4413 102.4 87.5339L105.556 65.3099C105.613 64.9075 105.814 64.5393 106.121 64.2727C106.428 64.0061 106.82 63.8588 107.227 63.8579H127.561C127.802 63.8581 128.041 63.9102 128.261 64.0106C128.481 64.111 128.677 64.2575 128.835 64.4401C128.993 64.6226 129.111 64.8371 129.179 65.0689C129.248 65.3008 129.266 65.5446 129.232 65.7839L126.076 88.0079C124.696 97.7309 116.278 105.066 106.495 105.066H74.6586ZM108.7 67.2359L105.748 88.0079C105.353 90.7648 104.383 93.4081 102.902 95.7666C101.421 98.1252 99.4612 100.147 97.1496 101.7H106.501C110.454 101.678 114.268 100.236 117.249 97.6386C120.229 95.0409 122.178 91.4593 122.74 87.5459L125.623 67.2449L108.7 67.2359Z" fill="#263238"/>
<path opacity="0.2" d="M94.9897 105.066C94.7621 105.076 94.5349 105.039 94.3218 104.958C94.1087 104.878 93.9141 104.755 93.7496 104.598C93.5852 104.44 93.4543 104.251 93.365 104.041C93.2756 103.832 93.2295 103.606 93.2295 103.378C93.2295 103.151 93.2756 102.925 93.365 102.716C93.4543 102.506 93.5852 102.317 93.7496 102.159C93.9141 102.002 94.1087 101.879 94.3218 101.798C94.5349 101.718 94.7621 101.681 94.9897 101.691H106.501C110.454 101.669 114.268 100.227 117.249 97.6296C120.229 95.0319 122.178 91.4503 122.74 87.5369L125.896 65.3129C125.919 65.0868 125.987 64.8676 126.097 64.6686C126.207 64.4696 126.356 64.2948 126.535 64.1547C126.714 64.0146 126.92 63.9121 127.139 63.8533C127.359 63.7946 127.588 63.7807 127.813 63.8126C128.038 63.8446 128.254 63.9216 128.449 64.0391C128.644 64.1566 128.813 64.3122 128.946 64.4966C129.079 64.6809 129.173 64.8902 129.223 65.112C129.273 65.3337 129.278 65.5632 129.238 65.7869L126.082 88.0109C124.702 97.7339 116.284 105.069 106.501 105.069L94.9897 105.066Z" fill="white"/>
<path d="M87.2409 119.547C87.2409 119.26 87.1558 118.979 86.9962 118.74C86.8367 118.501 86.6099 118.315 86.3446 118.205C86.0793 118.096 85.7873 118.067 85.5056 118.123C85.224 118.179 84.9653 118.317 84.7622 118.52C84.5591 118.723 84.4208 118.982 84.3648 119.264C84.3088 119.545 84.3375 119.837 84.4474 120.103C84.5573 120.368 84.7434 120.595 84.9822 120.754C85.221 120.914 85.5017 120.999 85.7889 120.999C86.174 120.999 86.5433 120.846 86.8156 120.574C87.0879 120.301 87.2409 119.932 87.2409 119.547Z" fill="#263238"/>
<path d="M106.993 119.547C106.993 119.26 106.908 118.979 106.748 118.74C106.589 118.501 106.362 118.315 106.097 118.205C105.831 118.096 105.539 118.067 105.258 118.123C104.976 118.179 104.717 118.317 104.514 118.52C104.311 118.723 104.173 118.982 104.117 119.264C104.061 119.545 104.089 119.837 104.199 120.103C104.309 120.368 104.495 120.595 104.734 120.754C104.973 120.914 105.254 120.999 105.541 120.999C105.926 120.999 106.295 120.846 106.568 120.574C106.84 120.301 106.993 119.932 106.993 119.547Z" fill="#263238"/>
<path d="M105.567 119.592C105.484 119.592 105.401 119.571 105.327 119.531C105.254 119.491 105.191 119.434 105.144 119.364C104.75 118.762 104.211 118.267 103.577 117.926C102.943 117.584 102.234 117.406 101.514 117.408H89.8145C89.0945 117.406 88.3855 117.584 87.7516 117.926C87.1178 118.267 86.5792 118.762 86.1845 119.364C86.1085 119.471 85.9937 119.545 85.8644 119.569C85.735 119.593 85.6013 119.567 85.4915 119.494C85.3817 119.422 85.3043 119.309 85.2758 119.181C85.2472 119.053 85.2697 118.918 85.3385 118.806C85.827 118.066 86.4919 117.459 87.2733 117.04C88.0546 116.621 88.9279 116.403 89.8145 116.406H101.514C102.402 116.401 103.277 116.618 104.06 117.036C104.843 117.454 105.509 118.06 105.999 118.8C106.05 118.876 106.079 118.965 106.083 119.056C106.087 119.148 106.066 119.239 106.023 119.319C105.979 119.4 105.915 119.467 105.836 119.514C105.758 119.561 105.668 119.586 105.576 119.586L105.567 119.592Z" fill="#263238"/>
<path d="M100.617 120.447C100.51 120.446 100.406 120.412 100.319 120.349C100.233 120.286 100.168 120.198 100.134 120.096C99.7682 118.983 99.1622 118.26 98.5892 118.26H92.7392C92.1662 118.26 91.5602 118.983 91.1942 120.096C91.1486 120.219 91.0572 120.319 90.9392 120.376C90.8212 120.433 90.6858 120.442 90.5613 120.401C90.4368 120.361 90.3329 120.273 90.2713 120.158C90.2098 120.042 90.1954 119.907 90.2312 119.781C90.7532 118.194 91.6892 117.249 92.7392 117.249H98.5892C99.6392 117.249 100.575 118.194 101.097 119.781C101.139 119.909 101.128 120.048 101.067 120.168C101.007 120.287 100.901 120.378 100.773 120.42C100.723 120.438 100.67 120.447 100.617 120.447Z" fill="#263238"/>
<path d="M92.1638 120.402C92.1638 120.115 92.0786 119.834 91.9191 119.595C91.7595 119.356 91.5327 119.17 91.2674 119.06C91.0021 118.951 90.7102 118.922 90.4285 118.978C90.1468 119.034 89.8881 119.172 89.6851 119.375C89.482 119.578 89.3437 119.837 89.2877 120.119C89.2316 120.4 89.2604 120.692 89.3703 120.958C89.4802 121.223 89.6663 121.45 89.9051 121.609C90.1439 121.769 90.4246 121.854 90.7118 121.854C91.0969 121.854 91.4662 121.701 91.7385 121.429C92.0108 121.156 92.1638 120.787 92.1638 120.402Z" fill="#263238"/>
<path d="M102.07 120.402C102.07 120.115 101.985 119.834 101.825 119.595C101.666 119.356 101.439 119.17 101.174 119.06C100.908 118.951 100.616 118.922 100.335 118.978C100.053 119.034 99.7944 119.172 99.5913 119.375C99.3882 119.578 99.2499 119.837 99.1939 120.119C99.1379 120.4 99.1666 120.692 99.2765 120.958C99.3864 121.223 99.5725 121.45 99.8113 121.609C100.05 121.769 100.331 121.854 100.618 121.854C101.003 121.854 101.372 121.701 101.645 121.429C101.917 121.156 102.07 120.787 102.07 120.402Z" fill="#263238"/>
<path d="M64.4133 100.476L69.5223 102.693L66.5943 106.11L62.3223 104.259L64.4133 100.476Z" fill="#FFB573"/>
<path opacity="0.2" d="M64.4162 100.476L69.5252 102.696L67.8842 104.61L63.2432 102.597L64.4162 100.476Z" fill="black"/>
<path d="M67.3206 107.889L66.7446 107.757C66.5754 107.719 66.4182 107.639 66.2869 107.525C66.1556 107.412 66.0542 107.268 65.9916 107.106L65.6226 107.277C65.4095 107.378 65.1686 107.404 64.9386 107.352L57.0576 105.552C57.0786 104.844 57.7026 104.052 57.7026 104.052C57.7026 104.052 61.2096 104.652 62.2236 103.815C62.2636 103.787 62.3107 103.771 62.3595 103.768C62.4083 103.765 62.4568 103.776 62.4996 103.8C63.1356 104.1 65.6436 105.183 67.2516 105.03C67.3014 105.026 67.3515 105.034 67.3977 105.053C67.444 105.072 67.4852 105.101 67.5181 105.139C67.5511 105.176 67.5748 105.221 67.5873 105.269C67.5999 105.318 67.601 105.368 67.5906 105.417C67.441 106.233 67.3508 107.06 67.3206 107.889Z" fill="#263238"/>
<path d="M62.3617 104.043C62.3504 104.043 62.3392 104.041 62.3289 104.036C62.3185 104.031 62.3093 104.024 62.3017 104.016C62.2687 103.98 61.4677 103.116 61.4917 102.627C61.493 102.578 61.5043 102.53 61.5249 102.486C61.5456 102.441 61.5751 102.402 61.6117 102.369C61.653 102.328 61.7063 102.3 61.7639 102.291C61.8216 102.282 61.8807 102.291 61.9327 102.318C62.2777 102.492 62.4937 103.455 62.4487 103.968C62.4466 103.984 62.4401 103.999 62.4301 104.012C62.4201 104.025 62.4068 104.034 62.3917 104.04L62.3617 104.043ZM61.8097 102.456C61.7932 102.457 61.777 102.461 61.7621 102.468C61.7471 102.476 61.7338 102.486 61.7227 102.498C61.7029 102.515 61.6871 102.536 61.6767 102.56C61.6663 102.584 61.6616 102.61 61.6627 102.636C61.6477 102.936 62.0287 103.443 62.2837 103.743C62.2657 103.248 62.0767 102.579 61.8577 102.468C61.8427 102.461 61.8264 102.457 61.8097 102.456Z" fill="#263238"/>
<path d="M61.741 104.079C61.4064 104.107 61.0708 104.037 60.775 103.878C60.736 103.849 60.7035 103.812 60.6797 103.77C60.656 103.727 60.6414 103.68 60.637 103.632C60.6254 103.573 60.6334 103.511 60.66 103.457C60.6865 103.403 60.7301 103.359 60.784 103.332C61.126 103.158 62.032 103.551 62.419 103.89C62.4314 103.901 62.4403 103.915 62.4449 103.93C62.4494 103.946 62.4492 103.963 62.4445 103.978C62.4397 103.994 62.4305 104.008 62.418 104.018C62.4055 104.028 62.3902 104.035 62.374 104.037C62.164 104.062 61.9526 104.077 61.741 104.079ZM61 103.461C60.9487 103.459 60.8976 103.468 60.85 103.488C60.82 103.506 60.787 103.533 60.796 103.617C60.7991 103.642 60.8074 103.667 60.8203 103.689C60.8332 103.711 60.8504 103.731 60.871 103.746C61.099 103.929 61.741 103.926 62.134 103.896C61.797 103.661 61.4078 103.512 61 103.461Z" fill="#263238"/>
<path d="M110.299 84.4019L108.1 88.9829C104.872 95.7449 96.9186 99.1439 90.5676 96.4829C86.8596 94.9289 82.8126 91.6439 80.0676 90.1409C77.7126 95.3039 73.3026 100.998 69.9276 104.961L63.0996 101.526C65.6496 95.6729 69.6186 86.5259 72.1386 80.5979C72.5873 79.5467 73.3232 78.6432 74.2618 77.9911C75.2005 77.339 76.3039 76.9646 77.4456 76.9109C88.7976 76.6049 110.299 84.4019 110.299 84.4019Z" fill="#0E53BE"/>
<path d="M103.248 36.984C101.967 36.561 100.506 37.374 100.488 40.236C100.47 43.098 103.071 44.631 104.169 40.932C104.829 38.7 104.199 37.293 103.248 36.984Z" fill="#E0E0E0"/>
<path d="M77.1152 115.461L82.6772 115.2L81.5582 119.556L76.9082 119.778L77.1152 115.461Z" fill="#FFB573"/>
<path opacity="0.2" d="M77.119 115.461L82.681 115.2L82.054 117.642L77.002 117.882L77.119 115.461Z" fill="black"/>
<path d="M82.4103 121.854H81.8103C81.6368 121.854 81.466 121.811 81.3132 121.728C81.1603 121.646 81.0302 121.528 80.9343 121.383L80.6133 121.635C80.4267 121.779 80.1978 121.857 79.9623 121.857H71.8863C71.7483 121.164 72.1863 120.258 72.1863 120.258C72.1863 120.258 75.7383 120.069 76.5393 119.028C76.5682 118.988 76.6077 118.957 76.6533 118.939C76.6989 118.92 76.7488 118.915 76.7973 118.923C77.4843 119.067 80.1723 119.577 81.7053 119.07C81.7527 119.055 81.8029 119.051 81.852 119.059C81.9011 119.067 81.9476 119.086 81.9879 119.116C82.0281 119.145 82.061 119.183 82.0838 119.227C82.1066 119.271 82.1188 119.32 82.1193 119.37C82.1562 120.204 82.2534 121.034 82.4103 121.854Z" fill="#263238"/>
<path d="M76.7048 119.205C76.6875 119.206 76.6704 119.201 76.6568 119.19C76.6148 119.163 75.6458 118.509 75.5588 118.014C75.5491 117.966 75.5494 117.917 75.5598 117.87C75.5701 117.822 75.5902 117.777 75.6188 117.738C75.6494 117.688 75.6949 117.65 75.7488 117.628C75.8027 117.606 75.8622 117.601 75.9188 117.615C76.2908 117.711 76.7168 118.599 76.7858 119.115C76.7875 119.132 76.7845 119.148 76.7771 119.163C76.7696 119.178 76.7581 119.19 76.7438 119.199C76.7316 119.205 76.7181 119.207 76.7048 119.205ZM75.8498 117.774C75.8299 117.776 75.8109 117.783 75.7942 117.794C75.7775 117.805 75.7636 117.82 75.7538 117.837C75.7387 117.859 75.7286 117.883 75.7239 117.909C75.7192 117.935 75.7202 117.962 75.7268 117.987C75.7778 118.287 76.2608 118.692 76.5788 118.929C76.4528 118.449 76.1168 117.84 75.8798 117.78L75.8498 117.774Z" fill="#263238"/>
<path d="M75.5018 119.46C75.3764 119.465 75.2514 119.443 75.1358 119.394C75.0914 119.374 75.0517 119.345 75.0192 119.309C74.9867 119.273 74.962 119.23 74.9468 119.184C74.925 119.129 74.9209 119.069 74.9349 119.012C74.9489 118.955 74.9803 118.904 75.0248 118.866C75.3248 118.62 76.2908 118.803 76.7438 119.046C76.7577 119.054 76.7692 119.066 76.7771 119.08C76.785 119.095 76.789 119.111 76.7888 119.127C76.7877 119.143 76.7816 119.159 76.7714 119.172C76.7613 119.185 76.7474 119.194 76.7318 119.199C76.3366 119.345 75.9223 119.433 75.5018 119.46ZM75.5018 118.914C75.3744 118.904 75.2468 118.932 75.1358 118.995C75.1088 119.019 75.0848 119.052 75.1088 119.133C75.1178 119.157 75.1318 119.179 75.1498 119.198C75.1679 119.217 75.1897 119.231 75.2138 119.241C75.4778 119.37 76.0988 119.226 76.4768 119.109C76.1643 118.988 75.8335 118.922 75.4988 118.914H75.5018Z" fill="#263238"/>
<path d="M113.479 82.5869L113.443 87.4259C113.386 94.5629 107.335 100.926 100.111 101.472C95.8928 101.772 90.1928 101.88 86.9108 101.814C86.4338 106.812 84.8708 112.701 83.3108 116.967L76.2068 116.472C76.0208 110.415 75.7478 101.826 75.5198 96.1289C75.4298 93.9089 76.8068 91.7249 78.9248 90.6809C89.5598 85.4369 113.479 82.5869 113.479 82.5869Z" fill="#0E53BE"/>
<path opacity="0.1" d="M81.7807 117.03C81.7648 117.033 81.7486 117.033 81.7327 117.03C81.6901 117.017 81.6545 116.987 81.6337 116.948C81.6129 116.908 81.6086 116.862 81.6217 116.82C82.6957 113.289 84.6217 102.267 84.7147 97.2059C84.7176 97.1577 84.7391 97.1125 84.7747 97.0799C84.7929 97.0647 84.814 97.0535 84.8367 97.0468C84.8594 97.0401 84.8832 97.0381 84.9067 97.0409C95.2837 98.4209 102.307 97.9409 105.232 95.6849C110.359 91.7009 110.284 85.2509 108.985 81.8849C108.968 81.8431 108.969 81.7966 108.987 81.7555C109.005 81.7144 109.039 81.6822 109.081 81.6659C109.122 81.6496 109.169 81.6505 109.21 81.6685C109.251 81.6865 109.283 81.7201 109.3 81.7619C110.635 85.2179 110.71 91.8479 105.439 95.9459C102.421 98.2889 95.5627 98.7779 85.0387 97.3949C84.9097 102.558 82.9987 113.409 81.9337 116.91C81.9242 116.944 81.9043 116.973 81.8768 116.995C81.8493 117.016 81.8156 117.029 81.7807 117.03Z" fill="black"/>
<path opacity="0.2" d="M79.7914 90.735C78.5725 93.178 77.16 95.5195 75.5674 97.737C75.6034 98.736 75.6424 99.795 75.6814 100.896C78.1954 96.927 79.7944 90.729 79.7944 90.729L79.7914 90.735Z" fill="black"/>
<path d="M94.4402 61.2L94.1732 61.371L93.9572 61.503L93.5372 61.746C93.2582 61.905 92.9792 62.046 92.7032 62.184C92.1482 62.466 91.5782 62.709 90.9992 62.94C89.8237 63.4058 88.6074 63.7613 87.3662 64.002C86.7332 64.125 86.0822 64.212 85.4222 64.275C84.7474 64.3267 84.0702 64.3377 83.3942 64.308C82.694 64.2799 81.997 64.1987 81.3092 64.065C80.602 63.9216 79.9077 63.721 79.2332 63.465L78.9572 63.363C78.5396 63.2096 78.1629 62.9623 77.8562 62.64C77.2029 61.9534 76.7037 61.1351 76.3922 60.24C76.1458 59.5315 75.9975 58.7927 75.9512 58.044C75.8773 56.8358 75.9783 55.6233 76.2512 54.444C76.489 53.4003 76.812 52.3779 77.2172 51.387C77.4152 50.904 77.6312 50.433 77.8592 49.971L78.2162 49.281C78.3482 49.05 78.4682 48.843 78.6212 48.582C78.8402 48.2131 79.175 47.9268 79.5734 47.7677C79.9719 47.6086 80.4118 47.5856 80.8247 47.7022C81.2376 47.8189 81.6004 48.0687 81.8568 48.4128C82.1131 48.7569 82.2486 49.176 82.2422 49.605V49.905C82.2422 50.088 82.2122 50.331 82.2002 50.547L82.1492 51.216C82.1132 51.66 82.0922 52.116 82.0712 52.542C82.0502 52.968 82.0412 53.412 82.0382 53.832C82.0352 54.252 82.0382 54.669 82.0652 55.065C82.0849 55.7638 82.1927 56.4573 82.3862 57.129C82.441 57.3246 82.5326 57.5078 82.6562 57.669C82.7402 57.756 82.7792 57.714 82.7342 57.615L81.3572 56.79C82.0339 56.9124 82.7235 56.9477 83.4092 56.895C83.7848 56.8677 84.1585 56.8176 84.5282 56.745C84.9092 56.679 85.2992 56.598 85.6922 56.49C86.0852 56.382 86.4782 56.256 86.8772 56.124C87.2762 55.992 87.6722 55.824 88.0772 55.668C88.4822 55.512 88.8662 55.323 89.2592 55.143C89.4512 55.053 89.6432 54.957 89.8262 54.864L90.0962 54.726L90.2222 54.663C90.2492 54.648 90.3122 54.612 90.2912 54.63C91.1624 54.0798 92.2165 53.8983 93.2216 54.1253C94.2267 54.3523 95.1005 54.9693 95.6507 55.8405C96.2008 56.7118 96.3824 57.7659 96.1554 58.771C95.9284 59.7761 95.3114 60.6498 94.4402 61.2Z" fill="#FFB573"/>
<path d="M79.1828 50.6459L81.4208 50.7509C83.6618 50.0219 82.2248 47.3039 82.2248 47.3039L82.0598 45.7199C82.0107 45.4433 81.866 45.1927 81.6511 45.0118C81.4363 44.8309 81.1647 44.7311 80.8838 44.7299L79.3208 44.6429C78.6068 44.6039 77.9888 45.0809 77.9528 45.6989L77.8658 47.0849C77.8414 47.4889 77.9166 47.8927 78.0848 48.2609L79.1828 50.6459Z" fill="#FFB573"/>
<path d="M98.1998 51.342C97.2548 50.076 94.1918 50.373 92.4218 52.374C91.6898 52.344 88.8218 54.939 86.6258 55.494C84.4298 56.049 82.8458 58.704 83.4578 60.201C84.5888 62.964 85.3568 64.287 87.3998 64.509C89.4428 64.731 92.1308 63.408 94.2998 61.785C96.4688 60.162 99.8678 53.589 98.1998 51.342Z" fill="#E0E0E0"/>
<path d="M85.6838 55.4399C83.9768 54.3419 82.2998 56.1839 82.2998 58.4999C82.2998 60.8159 82.8428 62.7899 83.6738 64.1489C84.5048 65.5079 85.9718 65.3939 87.3398 65.3309C88.5218 65.2739 89.1038 64.8479 88.5398 63.7739C87.9758 62.6999 85.8968 61.1459 85.5878 58.1279C85.4168 56.6009 86.4728 55.9469 85.6838 55.4399Z" fill="#FAFAFA"/>
<path d="M85.2459 76.905C84.8799 77.283 84.6159 78.747 85.3599 80.94C85.8729 82.461 87.8919 81.702 87.8919 81.702C87.8919 81.702 88.2459 84.459 90.7599 85.05C94.9029 86.022 110.53 85.761 113.185 83.7C104.857 83.613 85.2459 76.905 85.2459 76.905Z" fill="#FAFAFA"/>
<path d="M99.2614 50.3338C103.35 50.3569 107.428 50.7526 111.444 51.5158C112.107 51.6544 112.734 51.9266 113.288 52.3158C113.842 52.7051 114.31 53.2031 114.665 53.7796C115.02 54.3561 115.253 54.9989 115.351 55.6686C115.448 56.3384 115.409 57.021 115.233 57.6748C112.233 69.1018 113.925 81.6508 113.688 83.9398C113.688 83.9398 89.7094 87.3928 86.0344 80.2648C81.0994 72.2008 89.4994 66.9328 92.3704 55.6048C93.1294 52.6108 96.1744 50.3158 99.2614 50.3338Z" fill="#263238"/>
<path opacity="0.1" d="M99.2614 50.3338C103.35 50.3569 107.428 50.7526 111.444 51.5158C112.107 51.6544 112.734 51.9266 113.288 52.3158C113.842 52.7051 114.31 53.2031 114.665 53.7796C115.02 54.3561 115.253 54.9989 115.351 55.6686C115.448 56.3384 115.409 57.021 115.233 57.6748C112.233 69.1018 113.925 81.6508 113.688 83.9398C113.688 83.9398 89.7094 87.3928 86.0344 80.2648C81.0994 72.2008 89.4994 66.9328 92.3704 55.6048C93.1294 52.6108 96.1744 50.3158 99.2614 50.3338Z" fill="white"/>
<path opacity="0.4" d="M107.28 50.8649L107.238 50.8469L107.106 50.8019L107.07 50.8289C105.057 50.5889 102.96 50.4329 100.959 50.3699C100.47 50.3519 99.9874 50.3429 99.5134 50.3369C98.8871 50.6895 98.405 51.2514 98.1514 51.9239C97.5514 53.4419 97.9774 55.1339 99.3304 56.4479L99.4414 56.5559L99.6004 56.5409C102.54 56.2559 108.036 53.9009 108.267 52.0859C108.306 51.7799 108.228 51.2099 107.28 50.8649Z" fill="#FAFAFA"/>
<path d="M115.803 59.2499L116.022 59.6699L116.217 60.0539C116.346 60.3089 116.46 60.5639 116.58 60.8189C116.817 61.3259 117.027 61.8389 117.24 62.3549C117.648 63.3869 118.029 64.4339 118.347 65.5079C118.512 66.0419 118.647 66.5819 118.809 67.1279C118.971 67.6739 119.07 68.2259 119.184 68.7869C119.422 69.9181 119.594 71.062 119.7 72.2129L119.73 72.5129C119.772 72.956 119.719 73.4029 119.574 73.8239C119.345 74.4826 118.995 75.093 118.542 75.6239C118.158 76.0749 117.708 76.4653 117.207 76.7819C116.455 77.2515 115.628 77.5903 114.762 77.7839C113.464 78.0704 112.132 78.1714 110.805 78.0839C109.63 78.0154 108.461 77.861 107.307 77.6219C106.743 77.5109 106.188 77.3729 105.636 77.2259C105.084 77.0789 104.556 76.9259 103.974 76.7099C103.553 76.5604 103.196 76.2714 102.962 75.8908C102.729 75.5102 102.632 75.0611 102.689 74.618C102.746 74.1749 102.952 73.7646 103.275 73.4553C103.597 73.146 104.015 72.9564 104.46 72.9179H104.574L106.074 72.7919C106.587 72.7559 107.094 72.7049 107.595 72.6539C108.096 72.6029 108.594 72.5459 109.08 72.4829C109.566 72.4199 110.04 72.3449 110.499 72.2549C111.31 72.1246 112.102 71.897 112.857 71.5769C113.133 71.4419 113.328 71.2769 113.31 71.2439C113.292 71.2109 113.238 71.2439 113.145 71.3219C113.031 71.4341 112.939 71.5676 112.875 71.7149L112.749 73.3169C112.524 72.4409 112.287 71.5649 111.999 70.6799C111.858 70.2389 111.699 69.7799 111.54 69.3539C111.381 68.9279 111.24 68.4539 111.054 68.0249C110.706 67.1429 110.361 66.2549 109.986 65.3759L109.422 64.0649L108.876 62.8319L108.807 62.6699C108.406 61.7503 108.377 60.7112 108.725 59.7703C109.073 58.8295 109.772 58.06 110.675 57.6232C111.578 57.1863 112.616 57.1161 113.569 57.4272C114.523 57.7383 115.32 58.4066 115.791 59.2919L115.803 59.2499Z" fill="#FFB573"/>
<path d="M97.6263 70.2959H93.1503C92.9217 70.2959 92.7363 70.4812 92.7363 70.7099V76.4879C92.7363 76.7165 92.9217 76.9019 93.1503 76.9019H97.6263C97.855 76.9019 98.0403 76.7165 98.0403 76.4879V70.7099C98.0403 70.4812 97.855 70.2959 97.6263 70.2959Z" fill="#0E53BE"/>
<path d="M97.6268 71.5768C97.8991 71.5664 98.1707 71.6109 98.4254 71.7079C98.68 71.8049 98.9125 71.9522 99.1088 72.1412C99.3052 72.3301 99.4614 72.5567 99.5681 72.8074C99.6748 73.0582 99.7298 73.3279 99.7298 73.6003C99.7298 73.8728 99.6748 74.1425 99.5681 74.3932C99.4614 74.644 99.3052 74.8706 99.1088 75.0595C98.9125 75.2485 98.68 75.3958 98.4254 75.4928C98.1707 75.5898 97.8991 75.6343 97.6268 75.6238H97.5998C97.3275 75.6343 97.056 75.5898 96.8013 75.4928C96.5466 75.3958 96.3142 75.2485 96.1178 75.0595C95.9215 74.8706 95.7653 74.644 95.6586 74.3932C95.5519 74.1425 95.4969 73.8728 95.4969 73.6003C95.4969 73.3279 95.5519 73.0582 95.6586 72.8074C95.7653 72.5567 95.9215 72.3301 96.1178 72.1412C96.3142 71.9522 96.5466 71.8049 96.8013 71.7079C97.056 71.6109 97.3275 71.5664 97.5998 71.5768H97.6358M97.6358 70.9768H97.5998C97.2467 70.9649 96.8947 71.0242 96.5649 71.1511C96.2351 71.278 95.9342 71.47 95.6801 71.7157C95.4261 71.9613 95.224 72.2555 95.086 72.5809C94.9481 72.9062 94.877 73.256 94.877 73.6093C94.877 73.9627 94.9481 74.3125 95.086 74.6378C95.224 74.9632 95.4261 75.2574 95.6801 75.503C95.9342 75.7487 96.2351 75.9406 96.5649 76.0676C96.8947 76.1945 97.2467 76.2538 97.5998 76.2418H97.6358C97.989 76.2538 98.341 76.1945 98.6708 76.0676C99.0006 75.9406 99.3015 75.7487 99.5555 75.503C99.8096 75.2574 100.012 74.9632 100.15 74.6378C100.288 74.3125 100.359 73.9627 100.359 73.6093C100.359 73.256 100.288 72.9062 100.15 72.5809C100.012 72.2555 99.8096 71.9613 99.5555 71.7157C99.3015 71.47 99.0006 71.278 98.6708 71.1511C98.341 71.0242 97.989 70.9649 97.6358 70.9768Z" fill="#0E53BE"/>
<path d="M104.652 73.962L104.634 75.378C103.773 77.571 101.145 75.978 101.145 75.978L99.5732 75.72C99.3 75.6544 99.0586 75.4951 98.8908 75.2698C98.7231 75.0444 98.6397 74.7674 98.6552 74.487V72.921C98.6376 72.5987 98.7462 72.2823 98.9578 72.0388C99.1695 71.7952 99.4676 71.6435 99.7892 71.616H101.199C101.604 71.6187 102.002 71.7217 102.357 71.916L103.944 72.762C104.16 72.8792 104.339 73.0528 104.464 73.2641C104.589 73.4754 104.654 73.7166 104.652 73.962Z" fill="#FFB573"/>
<path d="M112.377 52.701C113.931 52.401 115.977 54.702 115.935 57.375C116.493 57.846 117.459 61.773 118.695 63.675C119.931 65.577 119.295 68.595 117.843 69.282C115.143 70.551 113.679 71.007 112.023 69.789C110.367 68.571 108.465 65.736 108.189 63.045C107.799 59.1 109.62 53.22 112.377 52.701Z" fill="#E0E0E0"/>
<path d="M110.239 68.241C109.255 70.017 111.202 71.574 113.5 71.439C115.798 71.304 117.742 70.617 119.047 69.699C120.352 68.781 120.142 67.329 119.986 65.964C119.854 64.788 119.386 64.236 118.357 64.869C117.328 65.502 115.906 67.677 112.915 68.169C111.415 68.433 110.692 67.422 110.239 68.241Z" fill="#FAFAFA"/>
<path d="M98.854 51.7889C99.216 51.1835 99.7722 50.7183 100.432 50.4689C100.709 49.8614 100.768 49.1771 100.6 48.5309L108.016 46.6589C107.281 49.0289 106.705 50.9009 107.527 52.1219C106.045 52.9079 103.327 54.3149 100.477 54.0599C97.627 53.8049 98.329 52.7699 98.854 51.7889Z" fill="#FFB573"/>
<path opacity="0.2" d="M100.645 48.759L106.123 48.774C104.305 50.493 101.674 51.021 100.54 50.208C100.697 49.7416 100.733 49.2432 100.645 48.759Z" fill="black"/>
<path d="M109.66 43.038C108.604 46.371 107.815 48.609 105.493 49.548C100.882 51.408 99.0007 48.978 99.0397 45.39C99.0757 42.159 100.798 37.254 104.44 36.768C105.248 36.6598 106.07 36.7583 106.829 37.0543C107.589 37.3504 108.261 37.8342 108.782 38.4607C109.304 39.0871 109.658 39.8356 109.811 40.6362C109.965 41.4367 109.913 42.2631 109.66 43.038Z" fill="#FFB573"/>
<path d="M107.454 45.6598C106.083 45.0598 106.497 44.6428 106.497 44.6428C106.497 44.6428 107.607 43.4068 107.784 42.6868C107.961 41.9668 106.884 40.4278 107.265 39.6208C107.646 38.8138 111.672 38.4208 113.379 40.4818C112.979 40.5698 112.571 40.6141 112.161 40.6138C112.505 40.9932 112.727 41.4676 112.797 41.9751C112.867 42.4825 112.783 42.9993 112.554 43.4578C111.768 45.1168 108.915 46.3168 107.454 45.6598Z" fill="#E0E0E0"/>
<path d="M100 46.0078L103.543 46.0618C103.543 46.0618 103.042 46.9168 101.554 47.0488C100.066 47.1808 100 46.0078 100 46.0078Z" fill="#263238"/>
<path d="M100.071 46.0078C100.182 46.2358 100.518 46.5778 101.535 46.4878C102.09 46.4529 102.632 46.3059 103.128 46.0558C102.501 46.0498 101.244 46.0288 100.071 46.0078Z" fill="white"/>
<path opacity="0.2" d="M105.052 42.582C105.468 42.5 105.899 42.5863 106.252 42.822C105.84 42.82 105.433 42.7385 105.052 42.582Z" fill="black"/>
<path opacity="0.2" d="M105.013 42.873C105.205 42.876 105.395 42.9207 105.568 43.004C105.742 43.0874 105.895 43.2075 106.018 43.356C105.652 43.2683 105.31 43.1037 105.013 42.873Z" fill="black"/>
<path opacity="0.2" d="M100.381 41.4599C100.381 41.4599 100.15 41.0849 99.9131 41.2349C99.9725 41.3013 100.044 41.3554 100.125 41.394C100.205 41.4326 100.292 41.455 100.381 41.4599Z" fill="black"/>
<path opacity="0.2" d="M100.3 41.721C100.3 41.721 100.117 41.385 99.9248 41.649C99.9716 41.6992 100.033 41.7332 100.101 41.7462C100.168 41.7591 100.238 41.7503 100.3 41.721Z" fill="black"/>
<path opacity="0.2" d="M102.223 38.5798C103.257 38.589 104.284 38.7611 105.265 39.0898C104.242 38.9772 103.226 38.8069 102.223 38.5798Z" fill="black"/>
<path opacity="0.2" d="M101.746 39.0479C101.746 39.0479 104.092 39.3119 105.175 40.0169C104.005 39.8004 102.857 39.476 101.746 39.0479Z" fill="black"/>
<path d="M110.101 46.5418C109.827 46.878 109.49 47.1571 109.109 47.363C108.727 47.5689 108.309 47.6976 107.878 47.7418C106.717 47.8528 106.333 46.7638 106.819 45.7768C107.254 44.8768 108.385 43.7578 109.468 44.1058C110.551 44.4538 110.767 45.6988 110.101 46.5418Z" fill="#FFB573"/>
<path d="M104.11 42.5339C104.041 42.8099 103.84 42.9959 103.66 42.9509C103.48 42.9059 103.39 42.6509 103.459 42.3659C103.528 42.0809 103.729 41.9039 103.909 41.9519C104.089 41.9999 104.179 42.2609 104.11 42.5339Z" fill="#263238"/>
<path d="M101.179 41.841C101.11 42.117 100.909 42.303 100.729 42.255C100.549 42.207 100.459 41.955 100.528 41.673C100.597 41.391 100.798 41.211 100.978 41.259C101.158 41.307 101.248 41.565 101.179 41.841Z" fill="#263238"/>
<path d="M102.073 42.3L101.5 44.619C101.5 44.619 100.564 44.619 100.141 44.082C100.747 42.963 102.073 42.3 102.073 42.3Z" fill="#ED893E"/>
<path d="M105.246 41.859C105.273 41.8663 105.301 41.8663 105.327 41.859C105.348 41.8508 105.366 41.8386 105.382 41.8231C105.398 41.8075 105.41 41.789 105.419 41.7686C105.427 41.7482 105.431 41.7263 105.431 41.7042C105.431 41.6821 105.426 41.6603 105.417 41.6401C105.32 41.3925 105.165 41.1716 104.965 40.9958C104.765 40.82 104.526 40.6943 104.268 40.629C104.246 40.6236 104.223 40.6228 104.2 40.6266C104.178 40.6305 104.156 40.6389 104.137 40.6514C104.118 40.6638 104.101 40.6801 104.089 40.6992C104.076 40.7182 104.067 40.7397 104.063 40.7622C104.059 40.7847 104.06 40.8079 104.065 40.8302C104.07 40.8525 104.08 40.8735 104.093 40.8919C104.107 40.9104 104.124 40.9258 104.144 40.9374C104.164 40.9489 104.186 40.9563 104.208 40.959C104.411 41.0145 104.598 41.1166 104.754 41.2572C104.911 41.3979 105.032 41.5732 105.108 41.769C105.121 41.7948 105.141 41.8167 105.165 41.8325C105.19 41.8483 105.217 41.8575 105.246 41.859Z" fill="#E0E0E0"/>
<path d="M99.8016 40.608C99.8284 40.6145 99.8563 40.6144 99.883 40.6076C99.9097 40.6008 99.9343 40.5875 99.9546 40.569C100.103 40.4216 100.284 40.3114 100.483 40.2473C100.683 40.1831 100.894 40.1669 101.101 40.2C101.122 40.2053 101.144 40.2063 101.165 40.203C101.187 40.1996 101.207 40.192 101.226 40.1805C101.244 40.169 101.26 40.1539 101.273 40.1362C101.285 40.1184 101.294 40.0982 101.299 40.077C101.309 40.034 101.301 39.9889 101.278 39.9513C101.255 39.9137 101.218 39.8866 101.176 39.876C100.916 39.8289 100.649 39.845 100.397 39.9228C100.144 40.0006 99.9147 40.1378 99.7266 40.323C99.6953 40.3545 99.6777 40.3971 99.6777 40.4415C99.6777 40.4859 99.6953 40.5285 99.7266 40.56C99.747 40.5823 99.7728 40.5989 99.8016 40.608Z" fill="#E0E0E0"/>
<path d="M81.9816 50.9249C83.6166 49.9109 83.4486 48.1889 83.7366 46.8179C83.7876 46.5839 83.2536 46.2418 82.9386 46.5358C82.7302 46.7006 82.557 46.9055 82.4292 47.1384C82.3014 47.3714 82.2216 47.6276 82.1946 47.8919C81.5946 47.9819 80.0676 48.8099 80.3076 50.4929C80.794 50.8367 81.3895 50.9904 81.9816 50.9249Z" fill="#FFB573"/>
<path d="M101.176 44.9759C101.176 44.9759 101.014 45.5759 101.491 45.7049C101.968 45.8339 103.204 45.1439 104.221 45.8039C103.864 45.2999 102.745 44.5799 101.176 44.9759Z" fill="#E0E0E0"/>
<path d="M100.663 44.8769C100.663 44.8769 100.582 45.4319 100.165 45.4769C99.7479 45.5219 99.0249 44.7749 98.0049 45.2519C98.364 44.9386 98.8064 44.7364 99.2782 44.6699C99.7501 44.6033 100.231 44.6752 100.663 44.8769Z" fill="#E0E0E0"/>
<path d="M99.5675 56.205C103.468 55.824 110.221 52.305 107.167 51.183C105.244 52.71 102.013 53.319 100.492 53.322C99.9275 52.779 99.7505 51.264 100.432 50.469C98.8385 50.334 96.8375 53.55 99.5675 56.205Z" fill="#FAFAFA"/>
<path d="M100.491 53.3219C101.907 52.3469 106.392 49.9799 107.649 50.0009C107.797 50.4873 107.821 51.0029 107.718 51.5009C107.718 51.5009 106.062 53.3129 100.491 53.3219Z" fill="#E0E0E0"/>
<path d="M100.491 53.3219C100.491 53.3219 100.71 50.2649 100.434 49.6199C100.202 49.7103 99.9972 49.8592 99.8395 50.0521C99.6818 50.245 99.5766 50.4754 99.5342 50.7209C99.5342 50.7209 99.8282 52.8539 100.491 53.3219Z" fill="#E0E0E0"/>
<path d="M111.13 39.5309C109.099 39.7739 103.081 39.2069 101.113 36.9389C99.1448 34.6709 100.579 33.1319 102.685 34.4429C102.685 34.4429 101.287 32.5409 103.534 33.0179C105.655 33.4679 108.166 37.1519 111.355 36.9959C114.07 36.8609 113.137 39.2999 111.13 39.5309Z" fill="#E0E0E0"/>
<path d="M110.181 47.6819C109.236 48.4469 107.991 48.4739 107.4 47.7449C106.809 47.0159 107.1 45.8039 108.039 45.0449C108.978 44.2859 110.229 44.2529 110.82 44.9819C111.411 45.7109 111.123 46.9169 110.181 47.6819Z" fill="#263238"/>
<path d="M102.358 48.852C102.25 48.811 102.155 48.7406 102.085 48.6488C102.015 48.5569 101.973 48.4474 101.962 48.3324C101.951 48.2175 101.972 48.1018 102.024 47.9985C102.075 47.8952 102.155 47.8083 102.253 47.7479C102.352 47.6874 102.465 47.6556 102.58 47.6563C102.696 47.6569 102.809 47.6898 102.906 47.7514C103.004 47.8129 103.083 47.9006 103.133 48.0044C103.183 48.1083 103.204 48.2242 103.192 48.339C103.147 48.5163 103.035 48.6691 102.879 48.7649C102.723 48.8607 102.536 48.892 102.358 48.852Z" fill="#263238"/>
<path d="M110.119 45.6718C110.067 45.6715 110.015 45.6591 109.968 45.6357C109.922 45.6123 109.881 45.5785 109.849 45.5368C109.822 45.5018 109.803 45.4618 109.791 45.4191C109.78 45.3765 109.777 45.332 109.783 45.2883C109.789 45.2445 109.803 45.2024 109.825 45.1642C109.848 45.126 109.877 45.0926 109.912 45.0658C110.671 44.4868 111.133 43.0468 111.067 41.4658C111.025 40.4638 110.674 37.9708 108.367 36.4978C108.33 36.4742 108.297 36.4434 108.272 36.4072C108.246 36.3711 108.228 36.3302 108.218 36.2871C108.208 36.2439 108.207 36.1992 108.215 36.1556C108.222 36.112 108.238 36.0702 108.262 36.0328C108.286 35.9954 108.316 35.963 108.353 35.9375C108.389 35.9119 108.43 35.8938 108.473 35.884C108.516 35.8743 108.561 35.8731 108.604 35.8806C108.648 35.8881 108.69 35.9042 108.727 35.9278C110.545 37.0858 111.646 39.0958 111.745 41.4388C111.82 43.2388 111.265 44.8708 110.326 45.5878C110.269 45.6388 110.196 45.6685 110.119 45.6718Z" fill="#263238"/>
<path d="M104.029 48.8519C103.536 48.8512 103.044 48.8182 102.556 48.7529C102.534 48.7503 102.512 48.7434 102.493 48.7324C102.473 48.7215 102.456 48.7068 102.443 48.6892C102.429 48.6716 102.419 48.6515 102.413 48.63C102.407 48.6085 102.406 48.586 102.409 48.5639C102.415 48.5201 102.439 48.4806 102.474 48.4537C102.509 48.4269 102.554 48.4148 102.598 48.4199C106.198 48.8909 108.349 47.4119 108.37 47.3969C108.406 47.3711 108.452 47.3608 108.496 47.3684C108.54 47.376 108.579 47.4008 108.605 47.4374C108.631 47.474 108.641 47.5194 108.634 47.5636C108.626 47.6077 108.601 47.6471 108.565 47.6729C108.487 47.7299 106.861 48.8519 104.029 48.8519Z" fill="#263238"/>
<path d="M94.2993 73.365V72.837H94.0563L94.1823 72.156H93.6993L93.5763 72.837H93.1893L93.3153 72.156H92.8203L92.7363 72.621V75.045H92.7993L92.9223 74.376H93.3063L93.1833 75.045H93.6723L93.7953 74.376H94.2993V73.848H93.8733L93.9633 73.365H94.2993ZM93.3993 73.848H93.0183L93.1083 73.365H93.4863L93.3993 73.848Z" fill="white"/>
<path d="M96.1601 72.1528V74.9998H95.4461V73.1338C95.3436 73.2242 95.232 73.3036 95.1131 73.3708C94.9821 73.4393 94.8457 73.4965 94.7051 73.5418V72.8998C94.9096 72.8368 95.1001 72.735 95.2661 72.5998C95.397 72.4752 95.4993 72.3238 95.5661 72.1558L96.1601 72.1528Z" fill="white"/>
<path d="M121.851 76.905H35.9492V79.242H121.851V76.905Z" fill="#0E53BE"/>
<path opacity="0.5" d="M121.851 76.905H35.9492V79.242H121.851V76.905Z" fill="white"/>
<path opacity="0.5" d="M121.852 76.905H102.292V79.242H121.852V76.905Z" fill="white"/>
<path d="M101.947 79.239H102.289V76.902H101.947V79.239Z" fill="white"/>
<path d="M120.39 79.2419L122.982 122.751H121.953L118.842 80.7959H105.297L102.189 122.751H101.16L103.749 79.2419H120.39Z" fill="#0E53BE"/>
<path opacity="0.5" d="M120.39 79.2419L122.982 122.751H121.953L118.842 80.7959H105.297L102.189 122.751H101.16L103.749 79.2419H120.39Z" fill="white"/>
<path d="M54.1206 79.2419L56.7126 122.751H55.6836L52.5756 80.7959H39.0276L35.9196 122.751H34.8906L37.4826 79.2419H54.1206Z" fill="#0E53BE"/>
<path opacity="0.2" d="M54.1206 79.2419L56.7126 122.751H55.6836L52.5756 80.7959H39.0276L35.9196 122.751H34.8906L37.4826 79.2419H54.1206Z" fill="white"/>
<path d="M74.7873 70.8509H43.1493L40.2783 51.6599H71.9193L74.7873 70.8509Z" fill="#0E53BE"/>
<path opacity="0.3" d="M57.1748 70.8508H61.5278L60.4868 62.0068L59.1428 65.7328L57.1748 70.8508Z" fill="black"/>
<path opacity="0.3" d="M74.7876 70.8509H74.4246L71.5566 51.6599H71.9196L74.7876 70.8509Z" fill="black"/>
<path d="M63.3122 76.0918H54.7021V76.9048H64.0562L63.3122 76.0918Z" fill="#0E53BE"/>
<path opacity="0.3" d="M63.3122 76.0918H54.7021V76.9048H64.0562L63.3122 76.0918Z" fill="black"/>
<path d="M55.8184 65.1809L55.6984 66.0659H55.3384C55.16 66.0662 54.9875 66.1297 54.8513 66.245C54.7151 66.3603 54.6241 66.52 54.5944 66.6959L53.8534 71.2169C53.8356 71.3246 53.8414 71.4348 53.8704 71.54C53.8994 71.6452 53.9509 71.7429 54.0214 71.8262C54.0919 71.9095 54.1796 71.9765 54.2786 72.0226C54.3775 72.0686 54.4853 72.0926 54.5944 72.0929H54.8944V72.4559H52.8994V65.1809H55.8184Z" fill="#0E53BE"/>
<path opacity="0.3" d="M55.8184 65.1809L55.6984 66.0659H55.3384C55.16 66.0662 54.9875 66.1297 54.8513 66.245C54.7151 66.3603 54.6241 66.52 54.5944 66.6959L53.8534 71.2169C53.8356 71.3246 53.8414 71.4348 53.8704 71.54C53.8994 71.6452 53.9509 71.7429 54.0214 71.8262C54.0919 71.9095 54.1796 71.9765 54.2786 72.0226C54.3775 72.0686 54.4853 72.0926 54.5944 72.0929H54.8944V72.4559H52.8994V65.1809H55.8184Z" fill="black"/>
<path d="M52.9001 61.2568L50.3291 76.9048H58.2701L60.8411 61.2568H52.9001ZM57.3011 66.9418L56.5571 71.4598C56.5287 71.6361 56.4385 71.7964 56.3028 71.9124C56.1671 72.0283 55.9946 72.0923 55.8161 72.0928H54.2831C54.1739 72.0925 54.066 72.0685 53.967 72.0224C53.8679 71.9764 53.78 71.9095 53.7093 71.8262C53.6386 71.743 53.5868 71.6454 53.5574 71.5402C53.528 71.435 53.5218 71.3247 53.5391 71.2168L54.2831 66.6958C54.3123 66.5197 54.4031 66.3596 54.5394 66.2442C54.6757 66.1288 54.8485 66.0656 55.0271 66.0658H56.5571C56.6672 66.0644 56.7764 66.0871 56.8768 66.1323C56.9772 66.1776 57.0665 66.2444 57.1383 66.3279C57.2101 66.4114 57.2627 66.5097 57.2924 66.6158C57.322 66.7219 57.3281 66.8332 57.3101 66.9418H57.3011Z" fill="#0E53BE"/>
<path opacity="0.3" d="M58.2785 76.9048L57.8945 76.8538L60.4565 61.2568H60.8495L58.2785 76.9048Z" fill="black"/>
<path opacity="0.3" d="M57.1898 57.417H56.7308L56.1338 53.427H56.5928L57.1898 57.417Z" fill="black"/>
<path opacity="0.3" d="M58.0443 57.417H57.5823L56.9883 53.427H57.4473L58.0443 57.417Z" fill="black"/>
<path opacity="0.3" d="M58.8998 57.417H58.4378L57.8408 53.427H58.3028L58.8998 57.417Z" fill="black"/>
<path opacity="0.3" d="M59.7543 57.417H59.2923L58.6953 53.427H59.1573L59.7543 57.417Z" fill="black"/>
<path opacity="0.3" d="M60.6068 57.417H60.1478L59.5508 53.427H60.0128L60.6068 57.417Z" fill="black"/>
<path opacity="0.3" d="M56.3343 57.417H55.8753L55.2783 53.427H55.7373L56.3343 57.417Z" fill="black"/>
<path opacity="0.3" d="M55.4798 57.417H55.0208L54.4238 53.427H54.8858L55.4798 57.417Z" fill="black"/>
<path opacity="0.3" d="M54.6244 57.417H54.1654L53.5684 53.427H54.0304L54.6244 57.417Z" fill="black"/>
<path opacity="0.3" d="M53.7729 57.417H53.3109L52.7139 53.427H53.1759L53.7729 57.417Z" fill="black"/>
</g>
<defs>
<clipPath id="clip0_3991_10740">
<rect width="158" height="134" fill="white"/>
</clipPath>
</defs>
</svg>
