<svg width="32" height="32" viewBox="0 0 32 32" fill="none" xmlns="http://www.w3.org/2000/svg">
<path d="M24 1H8C6.14348 1 4.36301 1.7375 3.05025 3.05025C1.7375 4.36301 1 6.14348 1 8V24C1 25.8565 1.7375 27.637 3.05025 28.9497C4.36301 30.2625 6.14348 31 8 31H24C25.8565 31 27.637 30.2625 28.9497 28.9497C30.2625 27.637 31 25.8565 31 24V8C31 6.14348 30.2625 4.36301 28.9497 3.05025C27.637 1.7375 25.8565 1 24 1ZM29 24C29 25.3261 28.4732 26.5979 27.5355 27.5355C26.5979 28.4732 25.3261 29 24 29H8C6.67392 29 5.40215 28.4732 4.46447 27.5355C3.52678 26.5979 3 25.3261 3 24V8C3 6.67392 3.52678 5.40215 4.46447 4.46447C5.40215 3.52678 6.67392 3 8 3H24C25.3261 3 26.5979 3.52678 27.5355 4.46447C28.4732 5.40215 29 6.67392 29 8V24Z" fill="black"/>
<path d="M8 5C7.40666 5 6.82664 5.17595 6.33329 5.50559C5.83994 5.83524 5.45543 6.30377 5.22836 6.85195C5.0013 7.40013 4.94189 8.00333 5.05765 8.58527C5.1734 9.16721 5.45912 9.70176 5.87868 10.1213C6.29824 10.5409 6.83279 10.8266 7.41473 10.9424C7.99667 11.0581 8.59987 10.9987 9.14805 10.7716C9.69623 10.5446 10.1648 10.1601 10.4944 9.66671C10.8241 9.17336 11 8.59334 11 8C11 7.20435 10.6839 6.44129 10.1213 5.87868C9.55871 5.31607 8.79565 5 8 5ZM8 9C7.80222 9 7.60888 8.94135 7.44443 8.83147C7.27998 8.72159 7.15181 8.56541 7.07612 8.38268C7.00043 8.19996 6.98063 7.99889 7.01922 7.80491C7.0578 7.61093 7.15304 7.43275 7.29289 7.29289C7.43275 7.15304 7.61093 7.0578 7.80491 7.01921C7.99889 6.98063 8.19996 7.00043 8.38268 7.07612C8.56541 7.15181 8.72159 7.27998 8.83147 7.44443C8.94135 7.60888 9 7.80222 9 8C9 8.26522 8.89464 8.51957 8.70711 8.70711C8.51957 8.89464 8.26522 9 8 9Z" fill="black"/>
<path d="M26 7H14C13.7348 7 13.4804 7.10536 13.2929 7.29289C13.1054 7.48043 13 7.73478 13 8C13 8.26522 13.1054 8.51957 13.2929 8.70711C13.4804 8.89464 13.7348 9 14 9H26C26.2652 9 26.5196 8.89464 26.7071 8.70711C26.8946 8.51957 27 8.26522 27 8C27 7.73478 26.8946 7.48043 26.7071 7.29289C26.5196 7.10536 26.2652 7 26 7Z" fill="black"/>
<path d="M8 13C7.40666 13 6.82664 13.1759 6.33329 13.5056C5.83994 13.8352 5.45543 14.3038 5.22836 14.8519C5.0013 15.4001 4.94189 16.0033 5.05765 16.5853C5.1734 17.1672 5.45912 17.7018 5.87868 18.1213C6.29824 18.5409 6.83279 18.8266 7.41473 18.9424C7.99667 19.0581 8.59987 18.9987 9.14805 18.7716C9.69623 18.5446 10.1648 18.1601 10.4944 17.6667C10.8241 17.1734 11 16.5933 11 16C11 15.2044 10.6839 14.4413 10.1213 13.8787C9.55871 13.3161 8.79565 13 8 13ZM8 17C7.80222 17 7.60888 16.9414 7.44443 16.8315C7.27998 16.7216 7.15181 16.5654 7.07612 16.3827C7.00043 16.2 6.98063 15.9989 7.01922 15.8049C7.0578 15.6109 7.15304 15.4327 7.29289 15.2929C7.43275 15.153 7.61093 15.0578 7.80491 15.0192C7.99889 14.9806 8.19996 15.0004 8.38268 15.0761C8.56541 15.1518 8.72159 15.28 8.83147 15.4444C8.94135 15.6089 9 15.8022 9 16C9 16.2652 8.89464 16.5196 8.70711 16.7071C8.51957 16.8946 8.26522 17 8 17Z" fill="black"/>
<path d="M26 15H14C13.7348 15 13.4804 15.1054 13.2929 15.2929C13.1054 15.4804 13 15.7348 13 16C13 16.2652 13.1054 16.5196 13.2929 16.7071C13.4804 16.8946 13.7348 17 14 17H26C26.2652 17 26.5196 16.8946 26.7071 16.7071C26.8946 16.5196 27 16.2652 27 16C27 15.7348 26.8946 15.4804 26.7071 15.2929C26.5196 15.1054 26.2652 15 26 15Z" fill="black"/>
<path d="M8 21C7.40666 21 6.82664 21.1759 6.33329 21.5056C5.83994 21.8352 5.45543 22.3038 5.22836 22.8519C5.0013 23.4001 4.94189 24.0033 5.05765 24.5853C5.1734 25.1672 5.45912 25.7018 5.87868 26.1213C6.29824 26.5409 6.83279 26.8266 7.41473 26.9424C7.99667 27.0581 8.59987 26.9987 9.14805 26.7716C9.69623 26.5446 10.1648 26.1601 10.4944 25.6667C10.8241 25.1734 11 24.5933 11 24C11 23.2044 10.6839 22.4413 10.1213 21.8787C9.55871 21.3161 8.79565 21 8 21ZM8 25C7.80222 25 7.60888 24.9414 7.44443 24.8315C7.27998 24.7216 7.15181 24.5654 7.07612 24.3827C7.00043 24.2 6.98063 23.9989 7.01922 23.8049C7.0578 23.6109 7.15304 23.4327 7.29289 23.2929C7.43275 23.153 7.61093 23.0578 7.80491 23.0192C7.99889 22.9806 8.19996 23.0004 8.38268 23.0761C8.56541 23.1518 8.72159 23.28 8.83147 23.4444C8.94135 23.6089 9 23.8022 9 24C9 24.2652 8.89464 24.5196 8.70711 24.7071C8.51957 24.8946 8.26522 25 8 25Z" fill="black"/>
<path d="M26 23H14C13.7348 23 13.4804 23.1054 13.2929 23.2929C13.1054 23.4804 13 23.7348 13 24C13 24.2652 13.1054 24.5196 13.2929 24.7071C13.4804 24.8946 13.7348 25 14 25H26C26.2652 25 26.5196 24.8946 26.7071 24.7071C26.8946 24.5196 27 24.2652 27 24C27 23.7348 26.8946 23.4804 26.7071 23.2929C26.5196 23.1054 26.2652 23 26 23Z" fill="black"/>
</svg>
