<svg width="32" height="32" viewBox="0 0 32 32" fill="none" xmlns="http://www.w3.org/2000/svg">
<g clip-path="url(#clip0_3652_4469)">
<path fill-rule="evenodd" clip-rule="evenodd" d="M7.66682 1.33337C7.66682 0.781089 7.2191 0.333374 6.66682 0.333374C6.11454 0.333374 5.66682 0.781089 5.66682 1.33337V3.00004H4.00016C1.98302 3.00004 0.346317 4.62887 0.333571 6.643L0.333496 6.66671V9.33337V28C0.333496 30.0251 1.97512 31.6667 4.00016 31.6667H28.0002C30.0252 31.6667 31.6668 30.0251 31.6668 28V9.33337V6.66671C31.6668 4.64167 30.0252 3.00004 28.0002 3.00004H26.3335V1.33337C26.3335 0.781089 25.8858 0.333374 25.3335 0.333374C24.7812 0.333374 24.3335 0.781089 24.3335 1.33337V3.00004H17.0002V1.33337C17.0002 0.781089 16.5524 0.333374 16.0002 0.333374C15.4479 0.333374 15.0002 0.781089 15.0002 1.33337V3.00004H7.66683L7.66682 1.33337ZM2.33349 28V10.3334H29.6668V28C29.6668 28.9206 28.9207 29.6667 28.0002 29.6667H4.00016C3.07968 29.6667 2.33349 28.9206 2.33349 28ZM29.6668 6.66671V8.33337H2.33349V6.66671C2.33349 6.60917 2.33641 6.55233 2.34209 6.49631C2.42745 5.65587 3.13721 5.00004 4.00016 5.00004H5.66682V6.66671C5.66682 7.21899 6.11454 7.66671 6.66682 7.66671C7.2191 7.66671 7.66682 7.21899 7.66682 6.66671V5.00004H15.0002V6.66671C15.0002 7.21899 15.4479 7.66671 16.0002 7.66671C16.5524 7.66671 17.0002 7.21899 17.0002 6.66671V5.00004H24.3335V6.66671C24.3335 7.21899 24.7812 7.66671 25.3335 7.66671C25.8858 7.66671 26.3335 7.21899 26.3335 6.66671V5.00004H28.0002C28.9207 5.00004 29.6668 5.74623 29.6668 6.66671ZM23.2946 12.6171C22.9062 12.2388 22.2871 12.2388 21.8988 12.6171L14.3862 19.9372L11.4349 17.0616C11.0465 16.6832 10.4275 16.6832 10.0391 17.0616L7.30229 19.7283C7.10912 19.9164 7.00016 20.1747 7.00016 20.4444C7.00016 20.7142 7.10912 20.9724 7.30229 21.1607L13.6883 27.383C14.0766 27.7612 14.6956 27.7612 15.084 27.383L26.0314 16.7163C26.2246 16.528 26.3335 16.2698 26.3335 16C26.3335 15.7303 26.2246 15.472 26.0314 15.2838L23.2946 12.6171ZM15.084 22.0496L22.5967 14.7295L23.9006 16L14.3862 25.2706L9.4331 20.4444L10.737 19.174L13.6883 22.0496C14.0766 22.4279 14.6956 22.4279 15.084 22.0496Z" fill="black"/>
</g>
<defs>
<clipPath id="clip0_3652_4469">
<rect width="32" height="32" fill="white"/>
</clipPath>
</defs>
</svg>
