<svg width="32" height="32" viewBox="0 0 32 32" fill="none" xmlns="http://www.w3.org/2000/svg">
<path d="M8 7C8 6.44772 8.44771 6 9 6H13C13.5523 6 14 6.44772 14 7C14 7.55228 13.5523 8 13 8H9C8.44771 8 8 7.55228 8 7Z" fill="black"/>
<path d="M6 8C6.55228 8 7 7.55228 7 7C7 6.44772 6.55228 6 6 6C5.44772 6 5 6.44772 5 7C5 7.55228 5.44772 8 6 8Z" fill="black"/>
<path d="M11.0924 13.3377C11.4582 13.7516 11.4192 14.3835 11.0054 14.7493C8.33153 17.1127 8.33153 20.8873 11.0054 23.2507C11.4192 23.6165 11.4582 24.2485 11.0924 24.6623C10.7267 25.0761 10.0947 25.115 9.68088 24.7493C6.10637 21.5898 6.10637 16.4102 9.68088 13.2507C10.0947 12.885 10.7267 12.9239 11.0924 13.3377Z" fill="black"/>
<path d="M20.9075 13.3377C21.2732 12.9239 21.9052 12.885 22.319 13.2507C25.8935 16.4102 25.8935 21.5898 22.319 24.7493C21.9052 25.115 21.2732 25.0761 20.9075 24.6623C20.5417 24.2485 20.5807 23.6165 20.9945 23.2507C23.6684 20.8873 23.6684 17.1127 20.9945 14.7493C20.5807 14.3835 20.5417 13.7516 20.9075 13.3377Z" fill="black"/>
<path d="M13.6067 15.56C13.9724 15.9738 13.9335 16.6057 13.5197 16.9715C12.2343 18.1076 12.2343 19.8924 13.5197 21.0285C13.9335 21.3943 13.9724 22.0263 13.6067 22.4401C13.2409 22.8539 12.6089 22.8928 12.1951 22.5271C10.0092 20.5949 10.0092 17.4051 12.1951 15.473C12.6089 15.1072 13.2409 15.1462 13.6067 15.56Z" fill="black"/>
<path d="M18.3933 15.56C18.7591 15.1462 19.3911 15.1072 19.8049 15.473C21.9908 17.4051 21.9908 20.5949 19.8049 22.5271C19.3911 22.8928 18.7591 22.8539 18.3933 22.4401C18.0276 22.0263 18.0665 21.3943 18.4803 21.0285C19.7657 19.8924 19.7657 18.1076 18.4803 16.9715C18.0665 16.6057 18.0276 15.9738 18.3933 15.56Z" fill="black"/>
<path d="M17.4142 17.5858C16.6332 16.8047 15.3668 16.8047 14.5858 17.5858C13.8047 18.3668 13.8047 19.6332 14.5858 20.4142C15.3668 21.1953 16.6332 21.1953 17.4142 20.4142C18.1953 19.6332 18.1953 18.3668 17.4142 17.5858Z" fill="black"/>
<path fill-rule="evenodd" clip-rule="evenodd" d="M5 3C3.34315 3 2 4.34314 2 6V26C2 27.6569 3.34315 29 5 29H27C28.6569 29 30 27.6569 30 26V6C30 4.34315 28.6569 3 27 3H5ZM28 9V6C28 5.44772 27.5523 5 27 5H5C4.44771 5 4 5.44772 4 6V9H28ZM4 11H28V26C28 26.5523 27.5523 27 27 27H5C4.44772 27 4 26.5523 4 26V11Z" fill="black"/>
</svg>
