<svg width="32" height="32" viewBox="0 0 32 32" fill="none" xmlns="http://www.w3.org/2000/svg">
<path d="M11.5999 7.92671C11.475 7.92696 11.3525 7.89209 11.2464 7.82608C11.1403 7.76007 11.0549 7.66558 10.9999 7.55338L8.43324 2.29338C8.38339 2.19164 8.36029 2.07887 8.36612 1.96572C8.37195 1.85258 8.40652 1.74278 8.46657 1.64671C8.52662 1.55063 8.61016 1.47145 8.70931 1.41662C8.80846 1.3618 8.91994 1.33315 9.03324 1.33338H14.9732C15.0982 1.33313 15.2207 1.36799 15.3268 1.434C15.4329 1.50001 15.5183 1.59451 15.5732 1.70671L17.2132 5.07338C17.2518 5.15217 17.2744 5.23778 17.2798 5.32531C17.2853 5.41285 17.2734 5.5006 17.2449 5.58355C17.2164 5.66651 17.1719 5.74304 17.1139 5.80878C17.0558 5.87452 16.9854 5.92819 16.9066 5.96671C16.8278 6.00523 16.7422 6.02785 16.6546 6.03329C16.5671 6.03873 16.4793 6.02687 16.3964 5.99839C16.3134 5.96991 16.2369 5.92538 16.1712 5.86732C16.1054 5.80927 16.0518 5.73884 16.0132 5.66004L14.5532 2.66671H10.0999L12.1999 6.96671C12.2386 7.04547 12.2613 7.1311 12.2669 7.21867C12.2724 7.30625 12.2605 7.39405 12.2321 7.47705C12.2036 7.56005 12.159 7.6366 12.1008 7.70232C12.0427 7.76805 11.9721 7.82164 11.8932 7.86004C11.8018 7.90432 11.7015 7.92712 11.5999 7.92671Z" fill="black"/>
<path d="M13.8267 6.41338C13.7018 6.41363 13.5793 6.37876 13.4732 6.31275C13.3671 6.24674 13.2817 6.15224 13.2267 6.04004L11.4 2.29338C11.3502 2.19164 11.3271 2.07887 11.3329 1.96572C11.3387 1.85258 11.3733 1.74278 11.4334 1.64671C11.4934 1.55063 11.577 1.47145 11.6761 1.41662C11.7753 1.3618 11.8867 1.33315 12 1.33338H14.9734C15.0983 1.33313 15.2208 1.36799 15.3269 1.434C15.433 1.50001 15.5184 1.59451 15.5734 1.70671L17.2134 5.07338C17.2519 5.15217 17.2745 5.23778 17.2799 5.32531C17.2854 5.41285 17.2735 5.5006 17.245 5.58355C17.2166 5.66651 17.172 5.74304 17.114 5.80878C17.0559 5.87452 16.9855 5.92819 16.9067 5.96671C16.8279 6.00523 16.7423 6.02785 16.6548 6.03329C16.5672 6.03873 16.4795 6.02687 16.3965 5.99839C16.3136 5.96991 16.237 5.92538 16.1713 5.86732C16.1056 5.80927 16.0519 5.73884 16.0134 5.66004L14.5534 2.66671H13.0667L14.4 5.45338C14.4387 5.53214 14.4615 5.61776 14.467 5.70534C14.4725 5.79292 14.4607 5.88072 14.4322 5.96372C14.4037 6.04671 14.3591 6.12327 14.301 6.18899C14.2428 6.25471 14.1723 6.30831 14.0934 6.34671C14.0101 6.38721 13.9193 6.40992 13.8267 6.41338Z" fill="black"/>
<path d="M20.3999 7.92671C20.2983 7.92712 20.198 7.90432 20.1066 7.86004C20.0277 7.82164 19.9571 7.76805 19.899 7.70232C19.8408 7.6366 19.7962 7.56005 19.7677 7.47705C19.7393 7.39405 19.7274 7.30625 19.7329 7.21867C19.7385 7.1311 19.7612 7.04547 19.7999 6.96671L21.8999 2.66671H17.4466L16.5999 4.40671C16.5614 4.4855 16.5077 4.55594 16.442 4.61399C16.3762 4.67204 16.2997 4.71658 16.2167 4.74506C16.1338 4.77353 16.046 4.78539 15.9585 4.77996C15.871 4.77452 15.7854 4.7519 15.7066 4.71338C15.6278 4.67485 15.5573 4.62119 15.4993 4.55545C15.4412 4.48971 15.3967 4.41318 15.3682 4.33022C15.3397 4.24727 15.3279 4.15952 15.3333 4.07198C15.3388 3.98444 15.3614 3.89884 15.3999 3.82004L16.4266 1.70671C16.4815 1.59451 16.5669 1.50001 16.673 1.434C16.7791 1.36799 16.9016 1.33313 17.0266 1.33338H22.9666C23.0799 1.33315 23.1913 1.3618 23.2905 1.41662C23.3896 1.47145 23.4732 1.55063 23.5332 1.64671C23.5933 1.74278 23.6278 1.85258 23.6337 1.96572C23.6395 2.07887 23.6164 2.19164 23.5666 2.29338L20.9999 7.55338C20.9449 7.66558 20.8595 7.76007 20.7534 7.82608C20.6473 7.89209 20.5248 7.92696 20.3999 7.92671Z" fill="black"/>
<path d="M18.1732 6.41338C18.0717 6.41379 17.9713 6.39099 17.8799 6.34671C17.801 6.30831 17.7304 6.25471 17.6723 6.18899C17.6142 6.12327 17.5696 6.04671 17.5411 5.96372C17.5126 5.88072 17.5008 5.79292 17.5063 5.70534C17.5118 5.61776 17.5345 5.53214 17.5732 5.45338L18.9332 2.66671H17.4466L16.5999 4.40671C16.5614 4.4855 16.5077 4.55594 16.442 4.61399C16.3762 4.67204 16.2997 4.71658 16.2167 4.74506C16.1338 4.77353 16.046 4.78539 15.9585 4.77996C15.871 4.77452 15.7854 4.7519 15.7066 4.71338C15.6278 4.67485 15.5573 4.62119 15.4993 4.55545C15.4412 4.48971 15.3967 4.41318 15.3682 4.33022C15.3397 4.24727 15.3279 4.15952 15.3333 4.07198C15.3388 3.98444 15.3614 3.89884 15.3999 3.82004L16.4266 1.70671C16.4815 1.59451 16.5669 1.50001 16.673 1.434C16.7791 1.36799 16.9016 1.33313 17.0266 1.33338H19.9999C20.1132 1.33315 20.2247 1.3618 20.3238 1.41662C20.423 1.47145 20.5065 1.55063 20.5666 1.64671C20.6266 1.74278 20.6612 1.85258 20.667 1.96572C20.6728 2.07887 20.6497 2.19164 20.5999 2.29338L18.7732 6.04004C18.7183 6.15224 18.6329 6.24674 18.5268 6.31275C18.4207 6.37876 18.2982 6.41363 18.1732 6.41338Z" fill="black"/>
<path d="M18.2797 15.14C18.1408 15.1391 18.0056 15.0948 17.893 15.0133L15.9997 13.64L14.1064 15.0133C13.9928 15.0952 13.8564 15.1393 13.7164 15.1393C13.5764 15.1393 13.4399 15.0952 13.3264 15.0133C13.2114 14.9311 13.1256 14.8144 13.0812 14.6802C13.0369 14.546 13.0364 14.4012 13.0797 14.2667L13.8064 12.0467L11.913 10.6667C11.7993 10.5835 11.7147 10.4665 11.6716 10.3324C11.6285 10.1982 11.629 10.0538 11.673 9.91999C11.7166 9.78634 11.8013 9.66987 11.9151 9.58726C12.0288 9.50464 12.1658 9.4601 12.3064 9.45999H14.6664L15.3864 7.23999C15.4302 7.10662 15.515 6.99048 15.6288 6.90815C15.7425 6.82582 15.8793 6.78149 16.0197 6.78149C16.1601 6.78149 16.2969 6.82582 16.4106 6.90815C16.5244 6.99048 16.6092 7.10662 16.653 7.23999L17.333 9.46666H19.673C19.8136 9.46676 19.9506 9.51131 20.0643 9.59392C20.1781 9.67654 20.2628 9.793 20.3064 9.92666C20.351 10.0576 20.3538 10.1992 20.3144 10.3317C20.275 10.4643 20.1953 10.5814 20.0864 10.6667L18.193 12.04L18.9197 14.26C18.9639 14.3961 18.9632 14.5429 18.9176 14.6785C18.872 14.8142 18.7839 14.9316 18.6664 15.0133C18.5538 15.0948 18.4186 15.1391 18.2797 15.14ZM15.9997 12.1467C16.1417 12.1481 16.2795 12.1948 16.393 12.28L17.013 12.7267L16.7797 12C16.7357 11.8661 16.7352 11.7218 16.7783 11.5876C16.8214 11.4535 16.9059 11.3364 17.0197 11.2533L17.6397 10.8H16.873C16.7325 10.7999 16.5955 10.7553 16.4818 10.6727C16.368 10.5901 16.2833 10.4737 16.2397 10.34L15.9997 9.60666L15.7597 10.34C15.7161 10.4737 15.6314 10.5901 15.5177 10.6727C15.4039 10.7553 15.267 10.7999 15.1264 10.8H14.3597L14.9797 11.2533C15.0935 11.3364 15.178 11.4535 15.2211 11.5876C15.2642 11.7218 15.2637 11.8661 15.2197 12L14.9864 12.7267L15.6064 12.28C15.7199 12.1948 15.8577 12.1481 15.9997 12.1467Z" fill="black"/>
<path d="M15.9998 23.3334H11.9998C11.823 23.3334 11.6535 23.2631 11.5284 23.1381C11.4034 23.0131 11.3332 22.8435 11.3332 22.6667C11.3332 22.4899 11.4034 22.3203 11.5284 22.1953C11.6535 22.0703 11.823 22 11.9998 22H15.9998C16.0857 22.0014 16.171 21.985 16.2501 21.9517C16.3293 21.9184 16.4007 21.869 16.4598 21.8067C16.524 21.7455 16.5754 21.6721 16.6109 21.5909C16.6464 21.5096 16.6653 21.4221 16.6665 21.3334C16.6665 21.1566 16.5963 20.987 16.4712 20.862C16.3462 20.7369 16.1766 20.6667 15.9998 20.6667H7.33317C7.15636 20.6667 6.98679 20.5965 6.86177 20.4714C6.73674 20.3464 6.6665 20.1769 6.6665 20C6.6665 19.8232 6.73674 19.6537 6.86177 19.5286C6.98679 19.4036 7.15636 19.3334 7.33317 19.3334H15.9998C16.5303 19.3334 17.039 19.5441 17.4141 19.9192C17.7891 20.2942 17.9998 20.8029 17.9998 21.3334C17.9998 21.8638 17.7891 22.3725 17.4141 22.7476C17.039 23.1227 16.5303 23.3334 15.9998 23.3334Z" fill="black"/>
<path d="M18.6665 28.6668H7.33317C7.15636 28.6668 6.98679 28.5965 6.86177 28.4715C6.73674 28.3465 6.6665 28.1769 6.6665 28.0001C6.6665 27.8233 6.73674 27.6537 6.86177 27.5287C6.98679 27.4037 7.15636 27.3334 7.33317 27.3334H18.6665C19.5198 27.0934 23.9998 22.4801 27.7798 18.1601C27.8497 18.097 27.9055 18.0198 27.9434 17.9337C27.9813 17.8475 28.0006 17.7542 27.9998 17.6601C27.9998 17.4833 27.9296 17.3137 27.8046 17.1887C27.6796 17.0637 27.51 16.9934 27.3332 16.9934C27.1592 16.9924 26.9917 17.0594 26.8665 17.1801L20.9132 23.1334C20.7854 23.2552 20.6163 23.3243 20.4398 23.3268H11.9998C11.823 23.3268 11.6535 23.2565 11.5284 23.1315C11.4034 23.0065 11.3332 22.8369 11.3332 22.6601C11.3332 22.4833 11.4034 22.3137 11.5284 22.1887C11.6535 22.0637 11.823 21.9934 11.9998 21.9934H20.1732L25.9265 16.2401C26.3017 15.8714 26.8071 15.6654 27.3332 15.6668C27.8636 15.6668 28.3723 15.8775 28.7474 16.2525C29.1225 16.6276 29.3332 17.1363 29.3332 17.6668C29.3367 17.9299 29.2865 18.1909 29.1856 18.4339C29.0847 18.677 28.9353 18.8968 28.7465 19.0801C25.6265 22.6668 20.1198 28.6668 18.6665 28.6668Z" fill="black"/>
<path d="M5.99984 30.6667H4.6665C4.13607 30.6667 3.62736 30.456 3.25229 30.0809C2.87722 29.7058 2.6665 29.1971 2.6665 28.6667V19.3334C2.6665 18.8029 2.87722 18.2942 3.25229 17.9192C3.62736 17.5441 4.13607 17.3334 4.6665 17.3334H5.99984C6.53027 17.3334 7.03898 17.5441 7.41405 17.9192C7.78912 18.2942 7.99984 18.8029 7.99984 19.3334V28.6667C7.99984 29.1971 7.78912 29.7058 7.41405 30.0809C7.03898 30.456 6.53027 30.6667 5.99984 30.6667ZM4.6665 18.6667C4.48969 18.6667 4.32012 18.7369 4.1951 18.862C4.07008 18.987 3.99984 19.1566 3.99984 19.3334V28.6667C3.99984 28.8435 4.07008 29.0131 4.1951 29.1381C4.32012 29.2631 4.48969 29.3334 4.6665 29.3334H5.99984C6.17665 29.3334 6.34622 29.2631 6.47124 29.1381C6.59627 29.0131 6.6665 28.8435 6.6665 28.6667V19.3334C6.6665 19.1566 6.59627 18.987 6.47124 18.862C6.34622 18.7369 6.17665 18.6667 5.99984 18.6667H4.6665Z" fill="black"/>
<path d="M26.3999 14.3733H26.2532L24.2999 13.9267C24.2145 13.907 24.1338 13.8707 24.0625 13.8199C23.9911 13.769 23.9305 13.7046 23.884 13.6303C23.8376 13.556 23.8063 13.4733 23.7918 13.3869C23.7774 13.3004 23.7801 13.212 23.7999 13.1267C23.8195 13.0413 23.8558 12.9606 23.9067 12.8892C23.9575 12.8179 24.0219 12.7573 24.0962 12.7108C24.1705 12.6644 24.2533 12.6331 24.3397 12.6186C24.4261 12.6042 24.5145 12.6069 24.5999 12.6267L26.5465 13.0733C26.7234 13.0928 26.8852 13.1817 26.9965 13.3204C27.1077 13.4592 27.1593 13.6365 27.1399 13.8133C27.1204 13.9901 27.0315 14.152 26.8928 14.2633C26.754 14.3745 26.5767 14.4261 26.3999 14.4067V14.3733Z" fill="black"/>
<path d="M24.4467 10.0734C24.2698 10.0928 24.0926 10.0412 23.9538 9.92996C23.815 9.81869 23.7261 9.65685 23.7067 9.48004C23.6872 9.30323 23.7388 9.12593 23.8501 8.98716C23.9613 8.84838 24.1232 8.75949 24.3 8.74004L26.2533 8.29337C26.4257 8.25565 26.606 8.28779 26.7547 8.38277C26.9034 8.47774 27.0084 8.62779 27.0467 8.80004C27.0846 8.97147 27.0533 9.15094 26.9597 9.29948C26.8661 9.44801 26.7177 9.55362 26.5467 9.59337L24.6 10.04C24.5505 10.0577 24.499 10.0689 24.4467 10.0734Z" fill="black"/>
<path d="M7.55324 10.0734C7.50233 10.0798 7.45081 10.0798 7.3999 10.0734L5.45324 9.6267C5.28222 9.58695 5.13379 9.48134 5.04017 9.3328C4.94656 9.18427 4.91532 9.0048 4.95324 8.83336C4.9915 8.66112 5.09649 8.51106 5.2452 8.41609C5.39391 8.32112 5.5742 8.28897 5.74657 8.3267L7.6999 8.77336C7.87671 8.79281 8.03856 8.8817 8.14983 9.02048C8.2611 9.15926 8.31268 9.33655 8.29323 9.51336C8.27379 9.69018 8.1849 9.85202 8.04612 9.96329C7.90734 10.0746 7.73005 10.1261 7.55324 10.1067V10.0734Z" fill="black"/>
<path d="M5.59998 14.3733C5.42317 14.3928 5.24587 14.3412 5.1071 14.2299C4.96832 14.1187 4.87943 13.9568 4.85998 13.78C4.84053 13.6032 4.89212 13.4259 5.00339 13.2871C5.11466 13.1483 5.2765 13.0595 5.45331 13.04L7.39998 12.5933C7.48534 12.5736 7.57376 12.5708 7.66018 12.5853C7.7466 12.5997 7.82933 12.6311 7.90363 12.6775C7.97793 12.7239 8.04234 12.7846 8.09319 12.8559C8.14405 12.9273 8.18033 13.008 8.19998 13.0933C8.21974 13.1787 8.22247 13.2671 8.20803 13.3535C8.19359 13.44 8.16225 13.5227 8.11581 13.597C8.06938 13.6713 8.00875 13.7357 7.93739 13.7866C7.86604 13.8374 7.78537 13.8737 7.69998 13.8933L5.74665 14.34L5.59998 14.3733Z" fill="black"/>
<path d="M15.9997 18.0001C14.6811 18.0001 13.3922 17.6091 12.2959 16.8765C11.1995 16.144 10.3451 15.1028 9.84048 13.8846C9.3359 12.6665 9.20387 11.326 9.46111 10.0328C9.71834 8.73961 10.3533 7.55172 11.2856 6.61937C12.218 5.68702 13.4059 5.05208 14.6991 4.79485C15.9923 4.53761 17.3327 4.66964 18.5509 5.17422C19.7691 5.67881 20.8103 6.53329 21.5428 7.62962C22.2754 8.72594 22.6663 10.0149 22.6663 11.3334C22.6663 13.1015 21.964 14.7972 20.7137 16.0475C19.4635 17.2977 17.7678 18.0001 15.9997 18.0001ZM15.9997 6.00008C14.9448 6.00008 13.9137 6.31288 13.0366 6.89891C12.1596 7.48495 11.476 8.3179 11.0723 9.29244C10.6687 10.267 10.563 11.3393 10.7688 12.3739C10.9746 13.4085 11.4826 14.3588 12.2284 15.1047C12.9743 15.8505 13.9246 16.3585 14.9592 16.5643C15.9938 16.7701 17.0661 16.6644 18.0407 16.2608C19.0152 15.8571 19.8481 15.1735 20.4342 14.2965C21.0202 13.4194 21.333 12.3883 21.333 11.3334C21.333 9.91893 20.7711 8.56238 19.7709 7.56218C18.7707 6.56199 17.4142 6.00008 15.9997 6.00008Z" fill="black"/>
</svg>
