<svg width="32" height="32" viewBox="0 0 32 32" fill="none" xmlns="http://www.w3.org/2000/svg">
<path d="M2.82025 28.2382L29.1797 28.2382C30.2196 28.2382 31.0625 27.3953 31.0625 26.3554V9.41009L4.70312 9.41022V26.3555C4.70312 27.3953 3.86013 28.2383 2.82025 28.2383C1.78044 28.2382 0.9375 27.3953 0.9375 26.3555V5.64447L2.82025 3.76178L14.1172 3.76172L16 5.64447L27.2969 5.64453V9.41016" stroke="black" stroke-width="1.875" stroke-miterlimit="10"/>
<path d="M23.2498 23.7428H13.3902C11.592 23.7428 10.0877 22.3177 10.0576 20.5198C10.0269 18.6831 11.5066 17.1846 13.3362 17.1846C13.3362 15.3736 14.8043 13.9055 16.6153 13.9055C18.4263 13.9055 19.8945 15.3736 19.8945 17.1846C21.108 17.1846 22.1667 17.8443 22.7338 18.8242H23.2499C24.6082 18.8242 25.7092 19.9253 25.7092 21.2835C25.7092 22.6418 24.6081 23.7428 23.2498 23.7428Z" stroke="black" stroke-width="1.875" stroke-miterlimit="10"/>
</svg>
