<svg width="32" height="32" viewBox="0 0 32 32" fill="none" xmlns="http://www.w3.org/2000/svg">
<g clip-path="url(#clip0_3652_4514)">
<path d="M18.8048 15.2632C19.5121 14.549 19.9498 13.5674 19.9498 12.4853C19.9498 10.3072 18.1778 8.53528 15.9998 8.53528C13.8218 8.53528 12.0498 10.3072 12.0498 12.4853C12.0498 13.5674 12.4875 14.549 13.1948 15.2632C11.3198 16.268 10.0415 18.2467 10.0415 20.5186C10.0415 21.0363 10.4613 21.4561 10.979 21.4561H21.0206C21.5384 21.4561 21.9581 21.0363 21.9581 20.5186C21.9581 18.2467 20.6798 16.268 18.8048 15.2632ZM15.9998 10.4103C17.144 10.4103 18.0748 11.3411 18.0748 12.4853C18.0748 13.6295 17.1439 14.5603 15.9998 14.5603C14.8556 14.5603 13.9248 13.6294 13.9248 12.4853C13.9248 11.3411 14.8557 10.4103 15.9998 10.4103ZM12.0251 19.5811C12.4499 17.78 14.0708 16.4353 15.9998 16.4353C17.9289 16.4353 19.5498 17.78 19.9746 19.5811H12.0251Z" fill="black"/>
<path d="M31.0625 15.0623H28.9534C28.7471 12.1853 27.6003 9.56456 25.8185 7.50744L27.3139 6.01219C27.6799 5.64606 27.68 5.0525 27.3139 4.68638C26.9478 4.32025 26.3541 4.32031 25.9881 4.68638L24.4927 6.18162C22.4356 4.39981 19.8147 3.25281 16.9376 3.0465V0.9375C16.9376 0.41975 16.5179 0 16.0001 0C15.4824 0 15.0626 0.41975 15.0626 0.9375V3.04644C12.1856 3.25263 9.56469 4.39962 7.5075 6.18144L6.01225 4.68619C5.64619 4.32006 5.05256 4.32006 4.68644 4.68619C4.32031 5.05231 4.32031 5.64588 4.68644 6.012L6.18162 7.50719C4.39981 9.56437 3.25281 12.1852 3.04656 15.0623H0.9375C0.41975 15.0623 0 15.4821 0 15.9998C0 16.5176 0.41975 16.9373 0.9375 16.9373H3.04662C3.25287 19.8145 4.39994 22.4354 6.18181 24.4926L4.6865 25.9879C4.32038 26.354 4.32038 26.9476 4.6865 27.3137C4.86956 27.4968 5.1095 27.5883 5.34937 27.5883C5.58931 27.5883 5.82925 27.4968 6.01225 27.3137L7.50763 25.8183C9.56475 27.6 12.1856 28.7469 15.0626 28.9532V31.0625C15.0626 31.5803 15.4824 32 16.0001 32C16.5179 32 16.9376 31.5803 16.9376 31.0625V28.9532C19.8146 28.7469 22.4354 27.5999 24.4926 25.8182L25.9881 27.3136C26.1711 27.4966 26.4111 27.5881 26.6509 27.5881C26.8909 27.5881 27.1308 27.4966 27.3139 27.3135C27.68 26.9474 27.6799 26.3538 27.3139 25.9877L25.8184 24.4923C27.6002 22.4352 28.7471 19.8144 28.9534 16.9373H31.0625C31.5803 16.9373 32 16.5176 32 15.9998C32 15.4821 31.5803 15.0623 31.0625 15.0623ZM16 27.1123C9.87256 27.1123 4.8875 22.1272 4.8875 15.9998C4.8875 9.873 9.87156 4.88837 15.9981 4.88737C15.9988 4.88737 15.9994 4.88744 16.0001 4.88744C16.0007 4.88744 16.0013 4.88737 16.0019 4.88737C22.1286 4.88844 27.1125 9.87306 27.1125 15.9998C27.1125 22.1272 22.1274 27.1123 16 27.1123Z" fill="black"/>
</g>
<defs>
<clipPath id="clip0_3652_4514">
<rect width="32" height="32" fill="white"/>
</clipPath>
</defs>
</svg>
