<svg width="134" height="120" viewBox="0 0 134 120" fill="none" xmlns="http://www.w3.org/2000/svg">
<g clip-path="url(#clip0_4079_1127)">
<path d="M40.5032 36.8477H21.6812V38.7679H40.5032V36.8477Z" fill="#EDEDED"/>
<path d="M59.3599 51.3074H45.7705V53.2276H59.3599V51.3074Z" fill="#EDEDED"/>
<path d="M70.4956 51.3074H61.4775V53.2276H70.4956V51.3074Z" fill="#EDEDED"/>
<path d="M94.0495 51.3074H72.2764V53.2276H94.0495V51.3074Z" fill="#EDEDED"/>
<path d="M35.8854 80.3867H21.8945V82.307H35.8854V80.3867Z" fill="#EDEDED"/>
<path d="M57.5262 36.8477H44.1646V38.7679H57.5262V36.8477Z" fill="#EDEDED"/>
<path d="M57.5262 58.5374H44.1646V60.4576H57.5262V58.5374Z" fill="#EDEDED"/>
<path d="M43.1929 65.7671H37.4839V67.6874H43.1929V65.7671Z" fill="#EDEDED"/>
<path d="M44.5982 73.1038H31.7749V75.024H44.5982V73.1038Z" fill="#EDEDED"/>
<path d="M64.2392 73.1038H46.5366V75.024H64.2392V73.1038Z" fill="#EDEDED"/>
<path d="M35.2563 65.8206H21.8945V67.7408H35.2563V65.8206Z" fill="#EDEDED"/>
<path d="M29.8227 73.1038H21.8945V75.024H29.8227V73.1038Z" fill="#EDEDED"/>
<path d="M53.3645 65.8206H45.8848V67.7408H53.3645V65.8206Z" fill="#EDEDED"/>
<path d="M35.203 51.3074H21.8413V53.2276H35.203V51.3074Z" fill="#EDEDED"/>
<path d="M40.8887 58.5374H21.8413V60.4576H40.8887V58.5374Z" fill="#EDEDED"/>
<path d="M78.1473 36.8477H61.124V38.7679H78.1473V36.8477Z" fill="#EDEDED"/>
<path d="M123.598 51.3074H106.574V53.2276H123.598V51.3074Z" fill="#EDEDED"/>
<path d="M101.433 58.5374H84.4102V60.4576H101.433V58.5374Z" fill="#EDEDED"/>
<path d="M107.762 36.8477H90.7383V38.7679H107.762V36.8477Z" fill="#EDEDED"/>
<path d="M81.2951 58.5374H71.3135V60.4576H81.2951V58.5374Z" fill="#EDEDED"/>
<path d="M87.5261 36.8477H81.2949V38.7679H87.5261V36.8477Z" fill="#EDEDED"/>
<path d="M67.3552 58.5374H61.124V60.4576H67.3552V58.5374Z" fill="#EDEDED"/>
<path d="M31.4294 44.0774H21.6812V45.9977H31.4294V44.0774Z" fill="#EDEDED"/>
<path d="M55.3882 80.4402H47.6914V82.3604H55.3882V80.4402Z" fill="#EDEDED"/>
<path d="M36.97 44.0774H33.8223V45.9977H36.97V44.0774Z" fill="#EDEDED"/>
<path d="M124.458 44.0774H98.4414V45.9977H124.458V44.0774Z" fill="#EDEDED"/>
<path d="M96.0381 44.0774H87.5264V45.9977H96.0381V44.0774Z" fill="#EDEDED"/>
<path d="M104.55 51.3074H96.0381V53.2276H104.55V51.3074Z" fill="#EDEDED"/>
<path d="M85.2726 44.0774H67.1621V45.9977H85.2726V44.0774Z" fill="#EDEDED"/>
<path d="M64.5925 44.0774H58.3613V45.9977H64.5925V44.0774Z" fill="#EDEDED"/>
<path d="M43.6189 51.3074H37.3877V53.2276H43.6189V51.3074Z" fill="#EDEDED"/>
<path d="M44.8606 80.4402H38.6294V82.3604H44.8606V80.4402Z" fill="#EDEDED"/>
<path d="M55.9848 44.0774H45.1284V45.9977H55.9848V44.0774Z" fill="#EDEDED"/>
<path d="M106.059 52.0044H82.7324V73.3513H106.059V52.0044Z" fill="url(#paint0_linear_4079_1127)"/>
<path d="M107.878 55.2147V70.1406C107.878 73.0714 106.658 75.4428 105.153 75.4428H103.384V49.9126H105.153C106.658 49.9126 107.878 52.2869 107.878 55.2147Z" fill="#0D4CAD"/>
<path d="M38.1914 52.0044H61.5183V73.3513H38.1914V52.0044Z" fill="url(#paint1_linear_4079_1127)"/>
<path d="M36.3726 70.1408V55.2148C36.3726 52.2841 37.5926 49.9126 39.0972 49.9126H40.8665V75.4429H39.0972C37.5926 75.443 36.3726 73.0687 36.3726 70.1408Z" fill="#0D4CAD"/>
<path d="M100.271 62.6787C100.271 75.9766 90.9976 87.1175 78.5409 90.0273C76.4665 90.5132 74.3036 90.7695 72.079 90.7695C69.8564 90.7695 67.6935 90.5132 65.619 90.0273C53.1623 87.1175 43.8892 75.9766 43.8892 62.6787C43.8892 47.1639 56.5106 34.5876 72.079 34.5876C76.1804 34.5876 80.0782 35.4591 83.5932 37.0299C88.4356 39.1912 92.5556 42.6751 95.4881 47.0183C98.5091 51.4926 100.271 56.8816 100.271 62.6787Z" fill="#5E8CD3"/>
<path d="M78.5402 65.1997V90.0277C76.4657 90.5126 74.3024 90.769 72.0797 90.769C69.8569 90.769 67.6937 90.5125 65.6191 90.0277V65.1997H78.5402Z" fill="white"/>
<path d="M81.8544 69.8983C87.2532 64.5188 87.2532 55.797 81.8544 50.4175C76.4556 45.0381 67.7025 45.0381 62.3037 50.4176C56.9049 55.797 56.9049 64.5189 62.3037 69.8983C67.7024 75.2777 76.4556 75.2777 81.8544 69.8983Z" fill="white"/>
<path d="M72.0804 72.1617C78.7339 72.1617 84.1276 66.7873 84.1276 60.1576C84.1276 53.528 78.7339 48.1536 72.0804 48.1536C65.4269 48.1536 60.0332 53.528 60.0332 60.1576C60.0332 66.7873 65.4269 72.1617 72.0804 72.1617Z" fill="url(#paint2_linear_4079_1127)"/>
<path d="M72.0799 67.9391C76.393 67.9391 79.8894 64.4553 79.8894 60.1577C79.8894 55.8601 76.393 52.3762 72.0799 52.3762C67.7669 52.3762 64.2705 55.8601 64.2705 60.1577C64.2705 64.4553 67.7669 67.9391 72.0799 67.9391Z" fill="url(#paint3_linear_4079_1127)"/>
<path d="M72.3739 44.8083H71.7866C70.9477 44.8083 70.2676 44.1307 70.2676 43.2947V38.5742C70.2676 37.7382 70.9477 37.0605 71.7866 37.0605H72.3739C73.2128 37.0605 73.8929 37.7382 73.8929 38.5742V43.2947C73.8929 44.1307 73.2128 44.8083 72.3739 44.8083Z" fill="url(#paint4_linear_4079_1127)"/>
<path opacity="0.54" d="M80.3249 55.0913C80.7469 53.3533 79.6751 51.6035 77.9308 51.1829C76.1866 50.7624 74.4304 51.8304 74.0084 53.5684C73.5863 55.3064 74.6581 57.0563 76.4024 57.4768C78.1467 57.8974 79.9028 56.8294 80.3249 55.0913Z" fill="white"/>
<path d="M110.09 98.4744H34.0708V101.318H110.09V98.4744Z" fill="url(#paint5_linear_4079_1127)"/>
<path d="M116.652 107.573H27.5077C25.9318 107.573 24.6543 106.3 24.6543 104.73V103.592C24.6543 102.022 25.9318 100.749 27.5077 100.749H116.652C118.228 100.749 119.506 102.022 119.506 103.592V104.73C119.506 106.3 118.228 107.573 116.652 107.573Z" fill="#E7EEF9"/>
<path d="M73.0694 38.58C73.0694 39.1247 72.6264 39.5663 72.0797 39.5663C71.533 39.5663 71.0898 39.1248 71.0898 38.58C71.0898 38.0353 71.5329 37.5938 72.0797 37.5938C72.6264 37.5938 73.0694 38.0353 73.0694 38.58Z" fill="white"/>
<path d="M96.83 46.3604L94.1749 53.4675L78.54 40.6073L84.9351 36.3721C89.7774 38.5334 93.8974 42.0173 96.83 46.3604Z" fill="#0D4CAD"/>
<path d="M47.3296 46.3604L49.9847 53.4675L65.6194 40.6075L59.2245 36.3721C54.3822 38.5334 50.2622 42.0173 47.3296 46.3604Z" fill="#0D4CAD"/>
<path d="M47.3296 78.9965L49.9847 71.8894L65.6194 84.7495L59.2245 88.9849C54.3822 86.8236 50.2622 83.3397 47.3296 78.9965Z" fill="url(#paint6_linear_4079_1127)"/>
<path d="M96.83 78.9965L94.1749 71.8894L78.54 84.7497L84.9351 88.9849C89.7774 86.8236 93.8974 83.3397 96.83 78.9965Z" fill="url(#paint7_linear_4079_1127)"/>
<path opacity="0.72" d="M116.652 78.8562H27.5078V100.749H116.652V78.8562Z" fill="#0E53BE"/>
<path d="M113.697 20.9265L94.2158 21.0159L94.2808 35.0857L94.2945 38.0494L97.255 35.0721L113.762 34.9965L113.697 20.9265Z" fill="#0E53BE"/>
<path d="M105.479 28.5641C105.481 29.3829 104.817 30.0487 103.996 30.0513C103.174 30.054 102.505 29.3922 102.503 28.5735C102.5 27.7546 103.164 27.0888 103.986 27.0862C104.808 27.0837 105.476 27.7453 105.479 28.5641Z" fill="white"/>
<path d="M110.366 28.5487C110.368 29.3675 109.704 30.0334 108.882 30.0359C108.061 30.0385 107.392 29.3768 107.39 28.558C107.387 27.7393 108.051 27.0734 108.873 27.0708C109.695 27.0682 110.363 27.7299 110.366 28.5487Z" fill="white"/>
<path d="M100.704 28.579C100.707 29.3978 100.043 30.0637 99.2212 30.0663C98.3994 30.0689 97.7311 29.4072 97.7285 28.5884C97.7259 27.7695 98.39 27.1037 99.2118 27.1011C100.034 27.0986 100.702 27.7602 100.704 28.579Z" fill="white"/>
<path d="M57.1849 9.66626L78.6739 9.76478L78.6022 25.2844L78.5871 28.5534L75.3216 25.2694L57.1133 25.1859L57.1849 9.66626Z" fill="#0E53BE"/>
<path d="M66.25 18.0908C66.2472 18.994 66.9796 19.7285 67.8861 19.7313C68.7925 19.7342 69.5296 19.0043 69.5325 18.1012C69.5353 17.198 68.8029 16.4635 67.8964 16.4607C66.99 16.4578 66.2529 17.1877 66.25 18.0908Z" fill="white"/>
<path d="M60.8604 18.0738C60.8575 18.9769 61.59 19.7114 62.4964 19.7143C63.4028 19.7171 64.1399 18.9873 64.1428 18.0841C64.1456 17.1809 63.4131 16.4464 62.5068 16.4436C61.6003 16.4408 60.8632 17.1706 60.8604 18.0738Z" fill="white"/>
<path d="M71.5166 18.1072C71.5137 19.0104 72.2462 19.7448 73.1527 19.7477C74.0591 19.7505 74.7962 19.0206 74.7991 18.1175C74.8019 17.2143 74.0694 16.4799 73.163 16.4771C72.2566 16.4742 71.5195 17.204 71.5166 18.1072Z" fill="white"/>
<path d="M28.3071 29.1096L44.833 29.1854L44.7779 41.1206L44.7663 43.6346L42.255 41.109L28.252 41.0448L28.3071 29.1096Z" fill="#0E53BE"/>
<path d="M35.2788 35.5884C35.2766 36.283 35.8399 36.8478 36.537 36.85C37.2341 36.8523 37.8009 36.291 37.8032 35.5963C37.8053 34.9018 37.2421 34.3369 36.545 34.3347C35.8479 34.3326 35.281 34.8939 35.2788 35.5884Z" fill="white"/>
<path d="M31.1338 35.5752C31.1316 36.2698 31.6949 36.8346 32.3919 36.8369C33.089 36.8391 33.6559 36.2778 33.6581 35.5832C33.6603 34.8886 33.097 34.3238 32.3999 34.3215C31.7029 34.3194 31.136 34.8807 31.1338 35.5752Z" fill="white"/>
<path d="M39.3291 35.6011C39.3269 36.2957 39.8902 36.8605 40.5873 36.8627C41.2843 36.8649 41.8512 36.3036 41.8534 35.609C41.8556 34.9144 41.2923 34.3496 40.5952 34.3474C39.8982 34.3452 39.3313 34.9065 39.3291 35.6011Z" fill="white"/>
<path d="M16.5906 53.2275L29.8617 53.2884L29.8174 62.873L29.8081 64.8918L27.7914 62.8637L16.5464 62.8121L16.5906 53.2275Z" fill="#0E53BE"/>
<path d="M23.9292 59.1375C24.3198 58.738 24.3115 58.0986 23.9106 57.7094C23.5097 57.3201 22.868 57.3284 22.4774 57.7279C22.0867 58.1273 22.095 58.7667 22.4959 59.156C22.8968 59.5453 23.5385 59.537 23.9292 59.1375Z" fill="white"/>
<path d="M18.8604 58.4198C18.8586 58.9775 19.3109 59.4311 19.8707 59.4329C20.4305 59.4347 20.8857 58.9839 20.8875 58.4262C20.8893 57.8684 20.4369 57.4148 19.8771 57.4131C19.3173 57.4112 18.8621 57.862 18.8604 58.4198Z" fill="white"/>
<path d="M25.4419 58.4406C25.4402 58.9983 25.8925 59.4519 26.4523 59.4537C27.012 59.4554 27.4673 59.0047 27.469 58.4469C27.4707 57.8892 27.0184 57.4356 26.4586 57.4338C25.8989 57.4321 25.4436 57.8828 25.4419 58.4406Z" fill="white"/>
<path d="M10.6233 72.0435C11.6908 71.5348 12.7534 74.9212 12.7534 74.9212C14.5679 77.3104 17.1038 74.132 16.8558 77.7035C16.4219 83.9529 24.075 79.6687 20.5443 86.1933C17.0135 92.7179 23.6618 89.8825 21.4677 95.1435C19.2736 100.405 22.1175 106.679 18.816 104.101C18.816 104.101 15.9091 97.7489 12.9112 95.7837C9.91327 93.8184 14.7072 91.4867 13.7692 88.8174C12.4069 84.9405 9.12433 85.0928 11.4911 80.9265C13.8578 76.7602 6.99426 73.773 10.6233 72.0435Z" fill="#0E53BE"/>
<path d="M19.8614 101.71C18.4304 100.708 16.7555 93.7192 16.6556 89.5569C16.6045 87.4247 15.9719 86.5363 15.4139 85.7527C14.8804 85.0036 14.4197 84.3565 14.6881 82.8709C15.2009 80.032 13.8525 78.8065 13.8389 78.7945L13.9949 78.6172C14.055 78.6696 15.4592 79.9335 14.921 82.9128C14.6703 84.3009 15.0836 84.8814 15.6069 85.6162C16.156 86.3874 16.8393 87.347 16.8922 89.5512C16.9994 94.0183 18.7117 100.617 19.9975 101.518L19.8614 101.71Z" fill="white"/>
<path d="M20.397 102.228C20.2124 102.228 20.0117 102.207 19.7919 102.163C19.2404 102.052 18.8787 101.762 18.717 101.301C18.3312 100.202 19.225 98.416 19.9504 97.5552C19.9625 97.5408 21.1767 96.0622 21.0472 94.0126C21.0255 93.669 20.9897 93.351 20.9581 93.0705C20.8669 92.2595 20.801 91.6734 21.1506 91.282C21.4587 90.937 22.0535 90.7876 23.1394 90.7825C25.044 90.7737 25.7971 89.988 26.4021 89.3566C26.6591 89.0884 26.9018 88.8352 27.1967 88.6748C28.1458 88.1586 29.1511 88.0827 29.5871 88.4944C29.7941 88.69 29.969 89.0731 29.626 89.7876C29.3125 90.4405 28.9059 90.8539 28.5792 91.1862C28.1397 91.633 27.8493 91.9283 28.0004 92.5168C28.0359 92.655 28.0769 92.7945 28.118 92.9344C28.4116 93.9351 28.7443 95.0692 27.0256 95.8387C26.6609 96.0021 26.3286 96.1321 26.0355 96.2467C24.8357 96.7158 24.1116 96.999 23.2941 98.7185C23.1358 99.0514 22.9961 99.3669 22.8611 99.672C22.2166 101.127 21.729 102.228 20.397 102.228ZM27.3102 88.8819C27.0477 89.0247 26.8279 89.2539 26.5734 89.5195C25.9374 90.1831 25.1458 91.009 23.1407 91.0185C22.1422 91.0231 21.583 91.1527 21.3275 91.4388C21.048 91.7517 21.1091 92.2938 21.1935 93.0443C21.2253 93.3275 21.2614 93.6485 21.2835 93.9978C21.4191 96.1441 20.1846 97.6439 20.132 97.7067C19.4138 98.5587 18.6005 100.255 18.9404 101.223C19.0726 101.6 19.3749 101.838 19.8388 101.932C21.4573 102.258 21.9042 101.249 22.6445 99.5767C22.7803 99.2703 22.9206 98.9532 23.0802 98.6176C23.9378 96.8136 24.7379 96.5008 25.949 96.0272C26.2397 95.9135 26.5692 95.7847 26.9287 95.6236C28.4593 94.9382 28.1832 93.997 27.8908 93.0006C27.849 92.858 27.8073 92.7159 27.7712 92.5752C27.587 91.8581 27.9503 91.4887 28.4102 91.021C28.7411 90.6847 29.116 90.3034 29.4126 89.6858C29.568 89.362 29.6962 88.9223 29.4244 88.6656C29.0668 88.3278 28.1578 88.4208 27.3102 88.8819Z" fill="url(#paint8_linear_4079_1127)"/>
<path d="M19.8173 103.59L19.5811 103.577C19.5927 103.356 19.8909 98.1409 21.9923 96.6145C24.2979 94.94 25.0248 93.1404 25.371 91.9325C25.779 90.5091 27.8553 90.1287 27.9435 90.1133L27.9846 90.3455C27.9645 90.3491 25.9658 90.716 25.5986 91.9972C25.2428 93.2387 24.4963 95.0876 22.1317 96.8051C20.1203 98.266 19.8202 103.537 19.8173 103.59Z" fill="url(#paint9_linear_4079_1127)"/>
<path d="M24.6224 77.3065C23.1287 76.7962 23.439 79.6649 22.8079 81.7873C22.1767 83.9098 15.7865 82.7132 18.4688 88.0281C21.1511 93.343 15.0764 89.8055 16.8909 94.4435C18.7054 99.0815 17.0487 104.042 19.021 102.78C20.9933 101.518 20.129 95.6779 22.1803 94.9839C24.2315 94.29 24.5662 93.4804 22.5353 91.5939C20.5044 89.7073 27.857 87.8342 26.0425 84.0247C24.2279 80.2152 26.3481 77.8962 24.6224 77.3065Z" fill="#082E69"/>
<path d="M19.9361 102.558C19.7483 101.764 18.1441 94.7766 19.6409 93.932C20.9602 93.1876 20.9277 90.2922 20.7218 87.5582C20.5397 85.1378 23.6592 84.0068 23.7921 83.9597L23.8712 84.182C23.8404 84.1929 20.7892 85.3002 20.9579 87.5405C21.1692 90.3483 21.1919 93.3279 19.7575 94.1372C18.6209 94.7785 19.6673 100.394 20.1665 102.504L19.9361 102.558Z" fill="white"/>
<path d="M23.3313 100.07L21.1987 108.132H16.4329L14.3003 100.07H23.3313Z" fill="url(#paint10_linear_4079_1127)"/>
<path d="M23.3314 100.07C23.3314 100.07 18.6365 100.948 18.6365 108.132H16.4329L14.3003 100.07H23.3314Z" fill="url(#paint11_linear_4079_1127)"/>
<path d="M44.0161 86.1855H34.3452V86.7575H44.0161V86.1855Z" fill="#E2D2CA"/>
<path d="M35.6413 114.261H36.4888V88.2464H35.6413V114.261Z" fill="#706865"/>
<path d="M49.2252 86.0234H42.5029V86.8404H49.2252V86.0234Z" fill="#CCBDB7"/>
<path d="M47.1364 79.0535H44.5908V86.7575H47.1364V79.0535Z" fill="#998E89"/>
<path d="M68.1213 86.7671H30.876V88.2462H68.1213V86.7671Z" fill="#B59074"/>
<path d="M23.7277 77.8143C23.7277 77.8143 23.3203 83.5065 24.4365 84.1877C25.1357 84.6144 27.9237 86.0539 27.841 86.3238C27.7583 86.5937 26.2668 88.7254 26.2668 88.7254C26.2668 88.7254 20.9116 85.2115 20.739 84.1042C20.5703 83.0223 21.0026 75.7697 21.7386 75.4356C22.2899 75.1854 22.581 75.3924 23.2757 75.9064C24.2508 76.6278 23.7277 77.8143 23.7277 77.8143Z" fill="#FFB555"/>
<path d="M30.3165 110.709C30.3165 110.709 30.15 111.861 30.1292 112.034C30.1084 112.207 28.2767 111.932 28.2767 111.932L28.1284 110.561C28.1284 110.561 30.0876 110.546 30.3165 110.709Z" fill="#424773"/>
<path d="M30.1488 111.887C30.1488 111.887 30.7292 112.581 31.2905 112.884C31.8518 113.186 32.7339 113.306 33.0658 113.619C33.3054 113.845 33.9384 114.818 31.6072 114.799C29.276 114.779 28.152 114.936 27.9023 114.563C27.6525 114.19 28.2636 111.809 28.2636 111.809C28.2636 111.809 28.8157 112.007 30.1488 111.887Z" fill="#EBEBEB"/>
<path d="M42.0519 110.72C42.0519 110.72 41.8853 111.872 41.8645 112.045C41.8437 112.218 40.0121 111.943 40.0121 111.943L39.8638 110.572C39.8638 110.572 41.8229 110.557 42.0519 110.72Z" fill="#424773"/>
<path d="M41.8843 111.898C41.8843 111.898 42.4646 112.592 43.0259 112.895C43.5872 113.197 45.6528 113.446 45.9846 113.759C46.2242 113.985 46.6227 114.895 43.3426 114.81C41.0121 114.749 39.8874 114.947 39.6376 114.574C39.3878 114.201 39.999 111.82 39.999 111.82C39.999 111.82 40.5192 112.032 41.8843 111.898Z" fill="#EBEBEB"/>
<path d="M24.4088 90.814C24.4088 90.814 31.0681 91.9367 32.5721 92.1721C34.0762 92.4074 42.2314 94.4296 43.2513 95.0457C44.0631 95.5361 42.8255 107.315 42.5364 111.809H39.3242L39.0913 98.3285C35.2367 98.4246 32.4861 97.43 29.6791 97.8548C26.8722 98.2796 24.5321 98.8834 22.7484 96.4995C22.7484 96.4995 22.6823 91.3346 24.4088 90.814Z" fill="#424487"/>
<path d="M30.9724 111.82L27.8421 111.627L27.537 98.3284C25.8776 98.3697 25.3088 98.2649 23.9659 98.1026L21.4385 92.2488C23.6534 92.6901 30.7503 94.4736 31.6966 95.0454C32.5085 95.5361 31.2615 107.326 30.9724 111.82Z" fill="#424487"/>
<path d="M27.4741 65.9417C27.4741 65.9417 29.9153 65.2695 30.8466 67.1578C31.778 69.0461 31.3558 72.6258 30.1254 72.9625C28.8951 73.2993 27.1259 72.9115 26.6151 71.7363C26.1044 70.561 25.6969 68.891 25.8192 67.8096C25.9415 66.7283 26.8259 66.2002 27.4741 65.9417Z" fill="#EEA886"/>
<path d="M29.4874 72.5858C29.4874 72.5858 29.4606 74.0219 29.6195 74.328C29.7784 74.6341 26.2202 74.5573 26.2202 74.5573C26.2202 74.5573 26.781 72.8328 26.4629 71.3637C26.148 69.9095 29.4874 72.5858 29.4874 72.5858Z" fill="#EEA886"/>
<path d="M26.2713 70.82C26.2713 70.82 26.4615 71.2053 27.3825 71.1431C28.3035 71.0809 29.5183 69.9738 29.9092 69.8748C30.3002 69.7759 30.3235 69.5542 30.3235 69.5542L30.5304 69.9206L30.931 69.9814C30.931 69.9814 30.6587 68.8718 31.2519 68.4811C31.8451 68.0904 30.9847 64.9437 27.9816 65.7026C27.9816 65.7026 25.6896 66.1208 25.6589 67.3961C25.6281 68.6713 25.8264 70.1445 26.2713 70.82Z" fill="#3A3F47"/>
<path d="M29.8068 74.2911C29.8068 74.2911 29.7969 73.7062 29.5308 73.6501C29.2647 73.594 26.7338 73.2471 26.4072 73.375L26.2671 74.1475C26.2671 74.1475 26.8964 74.5334 29.8068 74.2911Z" fill="#E2D2CA"/>
<path d="M30.5391 69.2927C30.4709 68.8133 29.9238 68.2625 29.6106 69.0093C29.2973 69.756 29.822 70.8435 30.1735 70.7852C30.5249 70.7269 30.6318 69.9432 30.5391 69.2927Z" fill="#EEA886"/>
<path d="M40.4072 81.2022C40.4059 81.2017 40.4046 81.2015 40.4028 81.2018C40.4213 81.21 40.424 81.2106 40.4072 81.2022Z" fill="#323657"/>
<path d="M26.7623 66.2841C26.7623 66.2841 23.7859 66.1446 26.2429 70.7744L26.7623 66.2841Z" fill="#3A3F47"/>
<path d="M20.1304 113.398L20.3518 114.018L29.7072 111.13L29.2588 109.873L20.1304 113.398Z" fill="#A19691"/>
<path d="M30.0282 100.553H28.9648V110.688H30.0282V100.553Z" fill="#A19691"/>
<path d="M32.6321 100.014H26.3604V100.612H32.6321V100.014Z" fill="#5E5854"/>
<path d="M38.945 113.398L38.7235 114.018L29.3682 111.13L29.7793 109.794L38.945 113.398Z" fill="#A19691"/>
<path d="M32.3534 113.952V114.674L29.3682 111.13L29.7793 109.794L32.3534 113.952Z" fill="#A19691"/>
<path d="M39.819 114.261C39.819 114.742 39.4275 115.132 38.9446 115.132C38.4618 115.132 38.0703 114.742 38.0703 114.261C38.0703 113.78 38.4618 113.39 38.9446 113.39C39.4275 113.39 39.819 113.78 39.819 114.261Z" fill="#BFB2AC"/>
<path d="M32.4274 114.261C32.4274 114.742 32.0359 115.132 31.553 115.132C31.0702 115.132 30.6787 114.742 30.6787 114.261C30.6787 113.78 31.0701 113.39 31.553 113.39C32.0359 113.39 32.4274 113.78 32.4274 114.261Z" fill="#BFB2AC"/>
<path d="M21.0049 114.261C21.0049 114.742 20.6136 115.132 20.1306 115.132C19.6478 115.132 19.2563 114.742 19.2563 114.261C19.2563 113.78 19.6478 113.39 20.1306 113.39C20.6135 113.39 21.0049 113.78 21.0049 114.261Z" fill="#BFB2AC"/>
<path d="M35.8456 100.015H23.2291C22.6102 100.015 22.1084 99.5145 22.1084 98.8978V98.8691C22.1084 98.2524 22.6102 97.7524 23.2291 97.7524H35.8456C36.4646 97.7524 36.9663 98.2524 36.9663 98.8691V98.8978C36.9664 99.5145 36.4646 100.015 35.8456 100.015Z" fill="#292C47"/>
<path d="M63.3562 88.2463H62.5088V114.261H63.3562V88.2463Z" fill="#706865"/>
<path d="M55.7364 82.7646H35.9915C35.374 82.7646 34.8735 82.2658 34.8735 81.6506V68.4277C34.8735 67.8124 35.3741 67.3137 35.9915 67.3137H55.7364C56.3539 67.3137 56.8544 67.8125 56.8544 68.4277V81.6506C56.8543 82.2658 56.3538 82.7646 55.7364 82.7646Z" fill="#B8ABA5"/>
<path d="M55.9936 68.1489H35.7344V80.3433H55.9936V68.1489Z" fill="#F5F7FF"/>
<path d="M50.4142 86.7869V86.5119C50.4142 86.5119 50.0263 84.8018 47.2823 84.8018C44.5383 84.8018 44.5938 86.7869 44.5938 86.7869H50.4142Z" fill="#998E89"/>
<path d="M44.5605 85.0559C44.5605 85.0559 45.1566 85.0099 45.375 84.8785C45.5934 84.7471 46.9 83.8716 47.207 84.0117C47.5139 84.1519 49.5564 84.7754 49.4855 85.073C49.4145 85.3707 49.2256 85.3419 49.0815 85.2892C48.9374 85.2366 47.4542 84.9264 47.3233 84.9786C47.3233 84.9786 48.7801 85.5082 48.786 85.8947C48.7919 86.2809 48.4812 86.3752 48.343 86.5213C48.2049 86.6674 48.039 87.0302 47.6636 87.058C47.2882 87.0859 45.4562 86.4507 45.0791 86.4218C44.702 86.3928 44.004 86.445 43.9566 86.3838C43.9091 86.3227 44.5605 85.0559 44.5605 85.0559Z" fill="#EEA886"/>
<path d="M33.7079 75.1019C31.8073 74.7691 29.8066 74.2912 29.8066 74.2912L26.2668 74.1475C26.2668 74.1475 23.0181 74.8601 21.7387 75.4359C21.6173 75.4904 21.6168 78.3238 21.2837 79.0667L22.3444 81.2966C22.3444 81.2966 22.9572 85.7137 23.0844 87.6782C23.1428 88.5799 22.9193 96.3939 22.9193 96.3939C22.9193 96.3939 23.2373 96.5503 25.6532 96.8156C28.0691 97.0809 34.1053 96.7196 34.1433 96.4354C34.1815 96.151 32.9743 85.8484 32.9209 85.3149C32.8389 84.496 33.1583 80.7122 33.1583 80.7122C33.6134 81.3214 34.7739 84.0728 35.9834 85.3817C36.695 86.1518 40.2179 86.6239 40.8819 86.6459C42.3274 86.694 44.9645 86.9807 45.0415 86.8407C45.1031 86.7566 45.2713 84.5084 45.106 84.4535C44.9612 84.4054 40.0646 84.1246 38.8101 83.4613C38.3511 83.2187 36.9791 80.2376 36.9791 80.2376C36.9791 80.2376 34.7565 75.5714 33.7079 75.1019Z" fill="#FFB555"/>
<path d="M26.7321 96.1681H20.7896C19.6011 96.1681 18.6377 95.2081 18.6377 94.0239V84.172C18.6377 82.9878 19.6011 82.0278 20.7896 82.0278H26.7321C27.9206 82.0278 28.884 82.9878 28.884 84.172V94.0239C28.884 95.2081 27.9205 96.1681 26.7321 96.1681Z" fill="#292C47"/>
<g opacity="0.72">
<path d="M27.0685 99.4514C25.5581 99.4514 24.3328 98.9459 23.4265 97.9488C21.3782 95.6956 21.7463 91.7345 21.7629 91.567C21.7941 91.2548 22.0737 91.0265 22.3864 91.0578C22.6997 91.0888 22.9284 91.3667 22.8975 91.6787C22.8931 91.7239 22.5668 95.3143 24.2737 97.1887C24.9641 97.9468 25.8783 98.3153 27.0684 98.3153C27.3832 98.3153 27.6385 98.5697 27.6385 98.8834C27.6386 99.197 27.3833 99.4514 27.0685 99.4514Z" fill="#292C47"/>
</g>
<path d="M42.9447 69.7646H37.3307C37.2422 69.7646 37.1704 69.6932 37.1704 69.6049V69.28C37.1704 69.1919 37.2422 69.1204 37.3307 69.1204H42.9447C43.0332 69.1204 43.1049 69.1919 43.1049 69.28V69.6049C43.1049 69.6932 43.0332 69.7646 42.9447 69.7646Z" fill="#DFE1E8"/>
<path d="M42.9447 71.1465H37.3307C37.2422 71.1465 37.1704 71.075 37.1704 70.9868V70.6619C37.1704 70.5737 37.2422 70.5022 37.3307 70.5022H42.9447C43.0332 70.5022 43.1049 70.5737 43.1049 70.6619V70.9868C43.1049 71.075 43.0332 71.1465 42.9447 71.1465Z" fill="#DFE1E8"/>
<path d="M42.566 79.372H37.7093C37.4118 79.372 37.1704 79.1316 37.1704 78.8351V72.6239C37.1704 72.3273 37.4117 72.0869 37.7093 72.0869H42.566C42.8636 72.0869 43.1048 72.3273 43.1048 72.6239V78.8351C43.1048 79.1316 42.8636 79.372 42.566 79.372Z" fill="#DFE1E8"/>
<path d="M54.0182 79.3722H45.1563C44.6852 79.3722 44.3032 78.9916 44.3032 78.5221V69.9704C44.3032 69.5009 44.6852 69.1204 45.1563 69.1204H54.0182C54.4894 69.1204 54.8713 69.5009 54.8713 69.9704V78.5221C54.8713 78.9916 54.4894 79.3722 54.0182 79.3722Z" fill="#DFE1E8"/>
<path d="M105.582 83.8485C105.582 83.8485 105.457 84.2076 105.485 84.4692C105.506 84.6761 105.4 85.0193 105.36 85.2041C105.321 85.3889 105.24 86.2021 105.271 86.4009C105.283 86.4821 105.561 86.9466 105.568 87.1149C105.576 87.2832 105.549 87.6268 105.696 87.6134C105.843 87.6 105.953 87.297 105.953 87.297C105.953 87.297 105.969 87.4497 106.102 87.4773C106.359 87.5309 106.464 87.403 106.464 87.403C106.464 87.403 106.584 87.5462 106.697 87.5418C106.947 87.532 107.045 87.4054 107.045 87.4054C107.045 87.4054 107.17 87.4717 107.335 87.4282C107.547 87.3723 107.599 87.1638 107.599 87.1638C107.599 87.1638 107.879 87.1537 107.931 87.0069C107.984 86.86 107.943 86.727 107.952 86.6033C107.961 86.4797 107.728 85.4397 107.229 84.7714C106.73 84.1032 107.021 83.2622 107.021 83.2622L105.582 83.8485Z" fill="#EEA886"/>
<path d="M105.464 88.9145L105.12 87.3827C105.065 87.1359 105.222 86.8904 105.469 86.8354L107.907 86.2933C108.155 86.2382 108.401 86.3942 108.456 86.6409L108.799 88.1727C108.855 88.4193 108.698 88.6649 108.451 88.7199L106.013 89.262C105.765 89.3171 105.519 89.1611 105.464 88.9145ZM105.537 87.1356C105.455 87.1537 105.404 87.2345 105.422 87.3156L105.765 88.8474C105.783 88.9286 105.864 88.9799 105.945 88.9618L108.383 88.4197C108.465 88.4016 108.516 88.3209 108.498 88.2396L108.155 86.7079C108.137 86.6267 108.056 86.5754 107.974 86.5935L105.537 87.1356Z" fill="#0E1E2B"/>
<path d="M103.973 95.879L113.12 93.8452L111.658 87.3154L102.511 89.3492L103.973 95.879Z" fill="#54281A"/>
<path d="M103.358 93.1332L112.505 91.0994L111.657 87.3144L102.511 89.3482L103.358 93.1332Z" fill="#873F2B"/>
<path d="M87.5006 71.2535C87.5006 71.2535 87.2732 70.8353 87.3224 70.7573C87.3716 70.6794 87.5319 70.5971 87.8843 71.0055C88.2368 71.4138 88.2856 71.5705 88.4648 71.7289C88.6439 71.8873 87.5006 71.2535 87.5006 71.2535Z" fill="#EFAA88"/>
<path d="M87.3733 73.4687L88.2188 73.1672L86.3672 68.0115L85.5218 68.3129L87.3733 73.4687Z" fill="#6B6B6B"/>
<path d="M86.6861 72.0447C86.6861 72.0447 86.437 72.3086 86.5943 72.5687C86.7516 72.8286 86.6336 72.9593 86.8565 73.116C87.0793 73.2727 86.8696 73.5863 87.1187 73.6647C87.3384 73.7337 87.9257 73.6098 88.2139 73.6425C88.2317 73.6444 88.2484 73.647 88.2638 73.6505C88.2816 73.6542 88.2976 73.659 88.3117 73.6647C88.5345 73.7561 89.3867 74.0043 89.5964 73.9912C89.8062 73.9782 90.1857 72.8004 90.1857 72.8004C90.1857 72.8004 89.6751 72.6065 89.1638 72.2408C88.7012 71.9099 88.0887 71.2263 87.7235 71.1472C87.6851 71.1389 87.6493 71.1372 87.6168 71.1434C87.2759 71.2087 86.568 71.6006 86.5418 71.7182C86.5156 71.8358 86.6861 72.0447 86.6861 72.0447Z" fill="#EFAA88"/>
<path d="M86.686 72.0447C86.686 72.0447 86.4369 72.3085 86.5943 72.5686C86.7515 72.8286 86.6336 72.9592 86.8564 73.1159C87.0793 73.2726 86.8696 73.5862 87.1186 73.6646C87.3383 73.7337 87.9256 73.6097 88.2138 73.6424C88.0683 73.6182 87.6547 73.5437 87.6211 73.4732C87.2652 72.7227 87.6998 71.2001 87.6998 71.2001L87.7235 71.1472C87.6851 71.1389 87.6494 71.1372 87.6168 71.1434C87.276 71.2087 86.568 71.6006 86.5418 71.7182C86.5156 71.8357 86.686 72.0447 86.686 72.0447Z" fill="#E09F80"/>
<path d="M85.9968 68.9062C86.0439 69.0578 86.1278 69.1666 86.1841 69.1493C86.2405 69.1319 86.248 68.9949 86.2008 68.8433C86.1538 68.6917 86.0698 68.5828 86.0135 68.6002C85.9572 68.6177 85.9497 68.7547 85.9968 68.9062Z" fill="#C4C4C4"/>
<path d="M89.8388 110.717C89.8388 110.717 89.3176 111.625 88.9703 111.85C88.623 112.074 87.0013 113.7 86.51 113.729C86.0187 113.758 85.0541 113.699 84.9891 113.897C84.9241 114.095 84.7742 115.077 86.1336 115.283C87.493 115.489 87.8551 115.509 88.2297 115.22C88.6043 114.93 90.0287 114.141 90.3856 114.195L90.127 115.889L90.4839 115.943C90.4839 115.943 91.1444 113.895 91.4783 113.529C91.8123 113.164 91.751 111.631 91.1474 110.915C90.5436 110.2 89.8388 110.717 89.8388 110.717Z" fill="#EEA886"/>
<path d="M86.5098 113.729C86.5098 113.729 87.9964 114.128 88.7026 113.715C89.409 113.302 90.3733 112.176 91.6599 112.314C91.6599 112.314 92.0446 112.96 91.1193 114.204C91.1193 114.204 90.5054 115.686 90.4836 115.943L90.1267 115.889L90.3853 114.195C90.3853 114.195 89.0279 114.596 88.0133 115.464C88.0133 115.464 85.3457 115.545 84.9574 114.672C84.9574 114.672 84.7379 114.231 84.909 113.85C85.0803 113.469 86.5098 113.729 86.5098 113.729Z" fill="#1F3F59"/>
<path d="M110.12 109.2C110.12 109.2 110.037 110.243 109.82 110.594C109.602 110.945 108.831 113.104 108.4 113.34C107.968 113.575 107.07 113.932 107.096 114.139C107.122 114.345 107.407 115.297 108.725 114.905C110.043 114.514 110.379 114.378 110.593 113.957C110.808 113.535 111.758 112.216 112.104 112.113L112.596 113.754L112.942 113.651C112.942 113.651 112.662 111.518 112.807 111.046C112.953 110.574 112.24 109.213 111.388 108.823C110.536 108.433 110.12 109.2 110.12 109.2Z" fill="#EEA886"/>
<path d="M108.4 113.34C108.4 113.34 109.915 113.068 110.377 112.395C110.839 111.721 111.228 110.292 112.451 109.87C112.451 109.87 113.075 110.29 112.772 111.809C112.772 111.809 112.851 113.41 112.942 113.652L112.596 113.754L112.104 112.113C112.104 112.113 111.048 113.053 110.503 114.27C110.503 114.27 108.125 115.477 107.4 114.853C107.4 114.853 107.012 114.548 107.004 114.13C106.996 113.713 108.4 113.34 108.4 113.34Z" fill="#1F3F59"/>
<path d="M95.2723 88.3345C95.2723 88.3345 93.1207 94.3438 92.7794 95.6482C92.4381 96.9524 92.4879 98.3199 92.29 98.8663C92.0921 99.4128 89.6719 110.99 89.6719 110.99C89.6719 110.99 90.5009 111.647 91.289 111.197C91.289 111.197 94.6985 103.911 95.2639 102.587C95.795 101.343 95.4587 97.828 96.3504 96.9909C97.2421 96.1538 102.745 88.7263 102.598 85.6567C102.452 82.587 95.2723 88.3345 95.2723 88.3345Z" fill="#EEA987"/>
<path d="M109.665 109.043C109.665 109.043 110.459 110.454 110.513 110.706C110.566 110.957 111.653 110.838 111.894 109.857C111.894 109.857 110.969 108.075 110.997 108.026C111.024 107.977 109.665 109.043 109.665 109.043Z" fill="#EEA987"/>
<path d="M98.5889 88.761C98.5889 88.761 101.107 95.0064 101.741 96.1975C102.374 97.3886 103.31 97.9953 103.535 98.5314C103.76 99.0675 109.709 109.121 109.709 109.121C109.709 109.121 110.754 108.985 111.029 108.122C111.029 108.122 108.56 100.693 108.078 99.3366C107.626 98.0625 105.166 95.6321 105.255 94.4147C105.344 93.1972 103.698 84.9931 101.508 82.8291C99.3183 80.6651 98.5889 88.761 98.5889 88.761Z" fill="#EEA987"/>
<path d="M96.0781 85.4869C96.0781 85.4869 93.003 93.1079 92.3906 95.2232C92.3906 95.2232 102.65 98.5078 107.508 97.1654C107.508 97.1654 104.671 90.8834 104.585 88.348C104.503 85.9377 102.842 84.0117 102.842 84.0117L96.0781 85.4869Z" fill="#1A2C4A"/>
<path d="M105.896 87.2082C105.896 87.2082 105.685 86.2755 105.888 86.0167C106.09 85.7579 106.185 86.09 106.185 86.09C106.185 86.09 106.086 85.7633 106.342 85.6535C106.598 85.5438 106.688 85.9388 106.688 85.9388C106.688 85.9388 106.68 85.6702 106.969 85.6554C107.258 85.6407 107.258 85.9862 107.258 85.9862C107.258 85.9862 107.459 85.5985 107.693 85.8669C108.089 86.32 107.932 87.0069 107.932 87.0069C107.932 87.0069 107.878 87.1687 107.6 87.1637C107.6 87.1637 107.495 87.5703 107.046 87.4054C107.046 87.4054 106.686 87.7317 106.465 87.403C106.465 87.403 106.061 87.7283 105.896 87.2082Z" fill="#DB9C7C"/>
<path d="M98.8583 67.3841C98.8583 67.3841 98.3262 68.6289 98.7415 69.6746C99.1567 70.7202 100.217 71.6465 100.528 72.0159C100.839 72.3855 103.424 76.4186 103.444 76.5897C103.464 76.7609 103.87 79.2938 104.378 80.828C104.885 82.362 105.155 84.8509 105.155 84.8509L107.133 84.4059C107.133 84.4059 106.7 77.6346 105.95 76.2075C105.147 74.6831 103.021 69.9792 103.021 69.9792C103.021 69.9792 101.207 65.9469 98.8583 67.3841Z" fill="#285173"/>
<path d="M100.399 67.1099C100.399 67.1099 98.588 68.6469 97.9006 69.3281C97.2134 70.0091 94.9505 72.4547 94.707 73.2287C94.4634 74.0028 95.1504 75.1878 95.6334 75.7653C96.0776 76.2962 95.6102 77.4289 95.631 78.0919C95.6519 78.755 95.5921 84.8991 95.7835 85.5732C95.975 86.2474 101.795 87.5324 104.01 85.4351C104.01 85.4351 102.293 80.9657 101.855 80.0861C101.398 79.1684 102.315 74.492 102.773 73.3903C103.231 72.2887 102.858 67.6236 100.399 67.1099Z" fill="#285173"/>
<path d="M100.569 67.1206C100.473 66.3236 100.695 65.196 100.695 65.196C100.695 65.196 97.7221 66.3377 98.1981 66.7307C98.3221 66.8331 98.4002 67.0197 98.4479 67.2396C98.584 67.8645 98.4751 68.76 98.4751 68.76L97.4432 69.8345C97.051 70.2191 100.616 67.5078 100.569 67.1206Z" fill="#EEA886"/>
<path d="M98.1982 66.7307C98.3222 66.8332 98.4004 67.0197 98.4481 67.2397C99.611 66.6437 100.227 65.6767 100.247 65.6467C99.5865 66.3578 98.1982 66.7307 98.1982 66.7307Z" fill="#A77860"/>
<path d="M101.094 69.0414C101.477 69.2832 102.076 70.1867 101.414 71.27C100.73 72.3885 99.4992 73.6109 99.089 74.2081C98.6788 74.8054 96.5506 77.7907 96.0802 77.626C95.6098 77.4613 94.8391 76.9658 93.7906 76.5302C92.787 76.1132 88.6064 73.9393 88.6064 73.9393L89.4396 72.3464C89.4396 72.3464 90.3809 72.7327 91.2067 73.102C92.0325 73.4713 93.9197 74.0704 95.588 74.6289C95.588 74.6289 97.5487 72.0555 97.8382 71.558C98.1276 71.0605 99.3741 67.9537 101.094 69.0414Z" fill="#2D5C82"/>
<path d="M100.55 66.8979L98.116 68.3464L98.181 68.9591L97.085 70.1819C97.085 70.1819 99.4976 68.3077 100.845 67.257L100.55 66.8979Z" fill="#EDDAD3"/>
<path d="M100.522 59.479C100.522 59.479 101.916 57.6627 103.649 58.9354C105.383 60.2079 104.275 64.0128 105.617 64.6231C106.96 65.2334 111.039 63.3894 111.378 66.2463C111.378 66.2463 110.114 64.6231 108.276 65.584C106.438 66.545 103.767 66.6229 103.363 63.8959C102.959 61.1689 101.838 62.2597 101.473 61.5325C101.108 60.8053 100.522 59.479 100.522 59.479Z" fill="#303030"/>
<path d="M100.699 59.427C100.699 59.427 101.522 59.8214 101.68 61.534C101.68 61.534 102.303 59.7239 100.699 59.427Z" fill="#FAB46C"/>
<path d="M96.0066 60.4556C96.0066 60.4556 95.373 61.1503 95.6738 63.1159C95.6738 63.1159 95.5603 64.6856 95.3307 64.9672C95.1011 65.2489 95.9899 65.3158 96.0906 65.5085C96.1913 65.7013 96.403 66.6132 97.0413 67.1432C97.6796 67.6732 100.669 65.8865 100.781 64.9377C100.894 63.9889 102.853 59.8653 99.4964 59.8091C96.1395 59.7529 96.0066 60.4556 96.0066 60.4556Z" fill="#EEA886"/>
<path d="M95.6015 62.4327C95.6015 62.4327 95.122 58.5352 99.3334 58.984C103.345 59.4115 101.114 64.0809 100.636 65.5531C100.636 65.5531 100.643 63.2506 98.7309 63.2506C96.8191 63.2506 96.4463 62.8447 95.6015 62.4327Z" fill="#303030"/>
<path d="M99.0188 62.6666C99.2414 62.2436 100.069 62.4328 99.9994 63.0666C99.9304 63.7004 99.2986 64.3546 99.0695 64.0581C98.8402 63.7616 98.6918 63.2881 99.0188 62.6666Z" fill="#EEA987"/>
</g>
<defs>
<linearGradient id="paint0_linear_4079_1127" x1="94.3959" y1="27.0383" x2="94.3959" y2="121.306" gradientUnits="userSpaceOnUse">
<stop stop-color="#3E589E"/>
<stop offset="1" stop-color="#B8EBFF"/>
</linearGradient>
<linearGradient id="paint1_linear_4079_1127" x1="49.8549" y1="27.0383" x2="49.8549" y2="121.306" gradientUnits="userSpaceOnUse">
<stop stop-color="#3E589E"/>
<stop offset="1" stop-color="#B8EBFF"/>
</linearGradient>
<linearGradient id="paint2_linear_4079_1127" x1="72.0804" y1="52.4141" x2="72.0804" y2="87.8077" gradientUnits="userSpaceOnUse">
<stop stop-color="#3E589E"/>
<stop offset="1" stop-color="#B8EBFF"/>
</linearGradient>
<linearGradient id="paint3_linear_4079_1127" x1="72.0799" y1="51.9877" x2="72.0799" y2="108.739" gradientUnits="userSpaceOnUse">
<stop stop-color="#3E589E"/>
<stop offset="1" stop-color="#B8EBFF"/>
</linearGradient>
<linearGradient id="paint4_linear_4079_1127" x1="73.3813" y1="44.7556" x2="64.4014" y2="18.1931" gradientUnits="userSpaceOnUse">
<stop stop-color="#3E589E"/>
<stop offset="1" stop-color="#B8EBFF"/>
</linearGradient>
<linearGradient id="paint5_linear_4079_1127" x1="49.0257" y1="99.896" x2="134.49" y2="99.896" gradientUnits="userSpaceOnUse">
<stop stop-color="#617AE0"/>
<stop offset="1" stop-color="#B8EBFF"/>
</linearGradient>
<linearGradient id="paint6_linear_4079_1127" x1="73.989" y1="132.347" x2="49.7681" y2="62.044" gradientUnits="userSpaceOnUse">
<stop stop-color="#8EC3F9"/>
<stop offset="1" stop-color="#B8EBFF"/>
</linearGradient>
<linearGradient id="paint7_linear_4079_1127" x1="74.5495" y1="119.727" x2="98.7705" y2="49.4244" gradientUnits="userSpaceOnUse">
<stop stop-color="#8EC3F9"/>
<stop offset="1" stop-color="#B8EBFF"/>
</linearGradient>
<linearGradient id="paint8_linear_4079_1127" x1="18.6241" y1="95.2291" x2="29.8204" y2="95.2291" gradientUnits="userSpaceOnUse">
<stop stop-color="#40D5E6"/>
<stop offset="1" stop-color="#5577FF"/>
</linearGradient>
<linearGradient id="paint9_linear_4079_1127" x1="19.581" y1="96.8515" x2="27.9846" y2="96.8515" gradientUnits="userSpaceOnUse">
<stop stop-color="#40D5E6"/>
<stop offset="1" stop-color="#5577FF"/>
</linearGradient>
<linearGradient id="paint10_linear_4079_1127" x1="14.3003" y1="104.101" x2="23.3313" y2="104.101" gradientUnits="userSpaceOnUse">
<stop stop-color="#FF9340"/>
<stop offset="1" stop-color="#FFCE45"/>
</linearGradient>
<linearGradient id="paint11_linear_4079_1127" x1="14.3004" y1="104.101" x2="23.3314" y2="104.101" gradientUnits="userSpaceOnUse">
<stop stop-color="#C97332"/>
<stop offset="1" stop-color="#FFCE45"/>
</linearGradient>
<clipPath id="clip0_4079_1127">
<rect width="134" height="120" fill="white"/>
</clipPath>
</defs>
</svg>
