<svg width="120" height="120" viewBox="0 0 120 120" fill="none" xmlns="http://www.w3.org/2000/svg">
<path d="M60.9742 106.546C90.3012 106.546 114.075 105.041 114.075 103.186C114.075 101.33 90.3012 99.8262 60.9742 99.8262C31.6473 99.8262 7.87305 101.33 7.87305 103.186C7.87305 105.041 31.6473 106.546 60.9742 106.546Z" fill="#E3E5E8"/>
<path d="M97.916 82.2847L98.3941 82.4423L98.6478 82.5259L99.3663 82.7627C99.3663 82.7627 110.067 74.1064 107.325 68.9498C106.481 67.3624 103.929 67.4608 102.498 72.7679C101.171 77.6877 97.916 82.2847 97.916 82.2847Z" fill="#D4D5D6"/>
<path d="M98.3945 82.4423L98.6482 82.5258C100.798 80.2626 102.457 77.5876 103.503 75.6659C104.745 73.384 105.416 71.6404 105.422 71.6231C105.446 71.5609 105.415 71.4911 105.353 71.4676C105.29 71.4436 105.221 71.4748 105.197 71.5369C105.19 71.5544 104.524 73.2858 103.289 75.5543C102.238 77.4851 100.564 80.1815 98.3945 82.4423Z" fill="#C6C6C6"/>
<path d="M28.1098 37.6226L27.5213 37.6336L27.209 37.6394L26.3249 37.6557C26.3249 37.6557 17.363 24.2918 22.2065 19.4798C23.6976 17.9983 26.5138 18.9897 26.2793 25.4114C26.0626 31.3643 28.1098 37.6226 28.1098 37.6226Z" fill="#D4D5D6"/>
<path d="M27.5209 37.6336L27.2087 37.6394C25.5894 34.3691 24.6604 30.8087 24.1559 28.301C23.5569 25.3233 23.4097 23.1443 23.4085 23.1227C23.4033 23.045 23.4623 22.9778 23.5401 22.973C23.6178 22.9677 23.685 23.0267 23.6903 23.1043C23.6917 23.1261 23.8377 25.2899 24.4338 28.2501C24.9409 30.7699 25.8793 34.3593 27.5209 37.6336Z" fill="#C6C6C6"/>
<path d="M30.9713 39.7059L30.2625 40.179L29.8865 40.4298L28.8213 41.1402C28.8213 41.1402 7.45989 31.8476 9.60669 22.1989C10.2674 19.2284 14.4749 18.2379 19.2041 26.2494C23.5881 33.6757 30.9713 39.7059 30.9713 39.7059Z" fill="#E3E5E8"/>
<path d="M30.2622 40.1789L29.8861 40.4297C25.3583 37.7076 21.4451 34.093 18.8718 31.4297C15.8161 28.2677 13.9352 25.7261 13.917 25.7009C13.8498 25.6102 13.8692 25.4823 13.9602 25.4158C14.0509 25.3486 14.1788 25.368 14.2455 25.4585C14.2643 25.4842 16.1319 28.0078 19.1703 31.1508C21.7568 33.8263 25.7039 37.4693 30.2622 40.1789Z" fill="#D4D5D6"/>
<path d="M95.4336 83.9497L95.9602 84.4537L96.2395 84.7208L97.031 85.4778C97.031 85.4778 116.408 80.8285 116.035 72.3815C115.92 69.7811 112.524 68.3204 107.348 74.3653C102.55 79.9686 95.4336 83.9497 95.4336 83.9497Z" fill="#E3E5E8"/>
<path d="M95.96 84.4536L96.2393 84.7207C100.459 83.1017 104.293 80.6388 106.856 78.7785C109.901 76.5696 111.864 74.7086 111.883 74.6899C111.953 74.6234 111.955 74.5128 111.889 74.4432C111.822 74.3731 111.712 74.3702 111.642 74.4367C111.622 74.4554 109.674 76.3034 106.646 78.4989C104.07 80.3683 100.203 82.8494 95.96 84.4536Z" fill="#D4D5D6"/>
<path d="M112.291 36.4539C111.451 38.8409 109.035 38.6463 108.99 40.6155C108.944 42.5842 107.635 44.0165 105.954 43.5725C104.273 43.128 103.061 42.7073 102.189 44.6254C101.319 46.5435 98.7995 47.3995 97.8976 45.8069C97.6727 45.4107 97.43 44.9811 97.1929 44.5599C97.1281 44.4447 97.0633 44.3302 97 44.2171C96.9851 44.191 96.9702 44.1651 96.9558 44.1389C96.0013 42.444 96.4506 40.2821 98.0363 39.1558C98.6783 38.6998 99.4312 38.4629 100.257 38.7509C102.844 39.6521 102.028 36.9651 103.648 35.9251C105.513 34.7268 106.986 36.2597 108.274 35.2239C110.067 33.7836 113.13 34.0668 112.291 36.4539Z" fill="#D4D5D6"/>
<path d="M109.107 37.3469L97.193 44.5598C97.1282 44.4446 97.0634 44.3301 97 44.2171L108.903 37.0106C108.996 36.9545 109.117 36.984 109.173 37.0769C109.229 37.1697 109.199 37.2907 109.107 37.3469Z" fill="#C6C6C6"/>
<path d="M110.581 23.0662C110.916 26.1802 108.114 27.2514 109.113 29.475C110.113 31.6981 109.414 33.9961 107.3 34.3964C105.185 34.7965 103.607 34.9731 103.656 37.58C103.707 40.1869 101.349 42.4866 99.4928 41.1886C99.0304 40.8661 98.5304 40.5154 98.0408 40.1715C97.9072 40.0774 97.7737 39.9838 97.6424 39.8917C97.612 39.8706 97.5812 39.8492 97.5512 39.8278C95.5811 38.4438 94.93 35.7896 96.1007 33.6855C96.5747 32.834 97.2889 32.1678 98.3653 32.049C101.736 31.6758 99.3913 29.1097 100.645 27.0846C102.089 24.7515 104.552 25.6779 105.439 23.8338C106.673 21.2696 110.246 19.9522 110.581 23.0662Z" fill="#E3E5E8"/>
<path d="M107.501 25.7613L98.041 40.1714C97.9073 40.0773 97.7739 39.9837 97.6426 39.8916L107.094 25.4944C107.168 25.3821 107.319 25.3507 107.431 25.4244C107.544 25.4983 107.575 25.649 107.501 25.7613Z" fill="#D4D5D6"/>
<path d="M11.4539 84.8644C13.6739 85.6212 14.9171 83.7504 16.3775 84.8462C17.8374 85.9418 19.6312 85.8096 20.2713 84.3309C20.9113 82.8518 21.2999 81.7274 23.1964 82.1925C25.0929 82.6579 27.1605 81.3139 26.5177 79.744C26.3581 79.3531 26.1841 78.9302 26.0133 78.516C25.9665 78.4029 25.9201 78.2899 25.8743 78.179C25.8637 78.1531 25.8534 78.1274 25.8426 78.102C25.1555 76.4349 23.3233 75.5229 21.5937 76.032C20.8936 76.2381 20.2893 76.6504 20.0255 77.4175C19.1987 79.8187 17.7093 77.6836 16.0235 78.2666C14.0814 78.9376 14.3531 80.8898 12.8601 81.2344C10.7838 81.7137 9.2339 84.1077 11.4539 84.8644Z" fill="#D4D5D6"/>
<path d="M13.9291 83.0574L26.0128 78.5157C25.966 78.4026 25.9197 78.2896 25.8739 78.1787L13.8009 82.7164C13.7068 82.7517 13.6588 82.8568 13.6943 82.9511C13.7299 83.0452 13.835 83.093 13.9291 83.0574Z" fill="#C6C6C6"/>
<path d="M5.71245 75.9816C7.78845 78.0108 10.175 76.584 11.2214 78.5871C12.2678 80.5894 14.3419 81.3982 15.8455 80.088C17.3493 78.7774 18.3828 77.7288 20.2533 79.2595C22.1234 80.7905 25.1496 80.3923 25.2688 78.2959C25.2991 77.7742 25.3305 77.209 25.3605 76.655C25.3687 76.5038 25.3771 76.3529 25.385 76.2046C25.3872 76.1702 25.3891 76.1357 25.3908 76.1016C25.5122 73.8732 23.9522 71.8774 21.7488 71.5236C20.8569 71.3806 19.962 71.5188 19.2583 72.2347C17.0541 74.4756 16.5292 71.2968 14.3354 71.0491C11.8084 70.763 11.0707 73.0884 9.21933 72.6771C6.64437 72.1051 3.63645 73.9522 5.71245 75.9816Z" fill="#E3E5E8"/>
<path d="M9.44141 75.2836L25.3606 76.655C25.3688 76.5038 25.3772 76.3528 25.3851 76.2045L9.48029 74.8344C9.35621 74.8236 9.24677 74.9155 9.23621 75.0396C9.22541 75.1636 9.31733 75.2731 9.44141 75.2836Z" fill="#D4D5D6"/>
<path d="M87.1045 37.9101C88.6813 33.5505 90.2922 29.926 91.9011 27.1201C94.0033 23.4546 96.1112 21.1861 98.1668 20.3783C98.3031 20.3248 98.457 20.3917 98.5105 20.5281C98.564 20.6644 98.4971 20.8182 98.3607 20.8717C94.7675 22.2841 90.9131 28.6225 87.2031 39.2135L87.1045 37.9101Z" fill="#D4D5D6"/>
<path d="M94.047 24.0084C94.047 24.0084 92.0197 23.1136 93.7321 19.6106C93.7321 19.6106 96.447 21.8604 94.047 24.0084Z" fill="#E3E5E8"/>
<path d="M93.0713 25.7689C93.0713 25.7689 93.8518 23.6948 97.4448 25.2097C97.4448 25.2097 95.3494 28.0455 93.0713 25.7689Z" fill="#E3E5E8"/>
<path d="M96.8213 21.4474C96.8213 21.4474 96.8657 19.2317 100.758 19.4621C100.758 19.4621 99.7282 22.8344 96.8213 21.4474Z" fill="#E3E5E8"/>
<path d="M90.9978 29.2495C90.9978 29.2495 88.7871 29.0933 89.2139 25.2175C89.2139 25.2175 92.5297 26.4163 90.9978 29.2495Z" fill="#E3E5E8"/>
<path d="M90.2744 31.1935C90.2744 31.1935 90.6846 29.0157 94.4852 29.8864C94.4852 29.8864 92.912 33.0417 90.2744 31.1935Z" fill="#E3E5E8"/>
<path d="M89.0202 33.7567C89.0202 33.7567 86.8072 33.6425 87.1602 29.7593C87.1602 29.7593 90.4984 30.895 89.0202 33.7567Z" fill="#E3E5E8"/>
<path d="M71.1525 23.3432C71.5099 23.5095 71.8684 23.6859 72.2181 23.8676C72.2534 23.8861 72.2913 23.8947 72.3285 23.8947C72.4151 23.8947 72.4989 23.8477 72.5416 23.7653C72.6028 23.6477 72.557 23.5028 72.4394 23.4418C72.0835 23.2568 71.7187 23.0773 71.3551 22.9081C71.2348 22.8519 71.092 22.9042 71.0361 23.0245C70.9802 23.1447 71.0325 23.2873 71.1525 23.3432Z" fill="#E3E5E8"/>
<path d="M73.2598 24.4383C73.6009 24.6351 73.9424 24.842 74.275 25.0537C74.3151 25.0791 74.3595 25.0914 74.4036 25.0914C74.4831 25.0914 74.5606 25.052 74.6065 24.9802C74.6777 24.8684 74.6446 24.7201 74.5328 24.6488C74.1944 24.4335 73.8469 24.2228 73.4998 24.0226C73.3851 23.9564 73.2382 23.9958 73.172 24.1107C73.1055 24.2252 73.1449 24.3721 73.2598 24.4383Z" fill="#E3E5E8"/>
<path d="M68.9572 22.4367C69.3278 22.5708 69.7008 22.7153 70.0653 22.8658C70.0953 22.878 70.1263 22.884 70.1568 22.884C70.2511 22.884 70.3406 22.8281 70.3788 22.7355C70.4294 22.6131 70.3711 22.4727 70.2484 22.422C69.8774 22.2689 69.498 22.1218 69.1207 21.9852C68.9959 21.9399 68.8584 22.0044 68.8132 22.1292C68.7681 22.254 68.8324 22.3915 68.9572 22.4367Z" fill="#E3E5E8"/>
<path d="M62.0252 20.9179C62.4179 20.9513 62.8146 20.9935 63.2041 21.0437C63.2144 21.0451 63.2248 21.0456 63.2351 21.0456C63.3541 21.0456 63.4573 20.9573 63.4729 20.8361C63.4897 20.7046 63.3971 20.5843 63.2655 20.5675C62.8691 20.5164 62.4654 20.4734 62.066 20.4396C61.9338 20.4283 61.8176 20.5265 61.8066 20.6585C61.7951 20.7907 61.893 20.9069 62.0252 20.9179Z" fill="#E3E5E8"/>
<path d="M64.3757 21.2207C64.7633 21.2879 65.1548 21.3647 65.539 21.4487C65.5563 21.4526 65.5736 21.4542 65.5906 21.4542C65.701 21.4542 65.8004 21.3777 65.8249 21.2656C65.8532 21.136 65.7711 21.0081 65.6417 20.9798C65.2505 20.8941 64.8521 20.8161 64.4578 20.7477C64.3275 20.7251 64.2029 20.8125 64.1804 20.943C64.1576 21.0738 64.2452 21.1982 64.3757 21.2207Z" fill="#E3E5E8"/>
<path d="M75.2617 25.7124C75.5845 25.9382 75.9065 26.1741 76.2188 26.4134C76.2622 26.4468 76.3136 26.4629 76.3647 26.4629C76.4369 26.4629 76.5082 26.4305 76.5555 26.3688C76.6362 26.2637 76.6162 26.1129 76.5111 26.0323C76.1931 25.7887 75.8655 25.5485 75.5369 25.3188C75.4282 25.2427 75.2787 25.2693 75.2026 25.3778C75.1266 25.4868 75.153 25.6365 75.2617 25.7124Z" fill="#E3E5E8"/>
<path d="M66.6913 21.7274C67.0719 21.8285 67.4549 21.9391 67.8301 22.0567C67.8541 22.0641 67.8781 22.0677 67.9018 22.0677C68.0041 22.0677 68.0986 22.002 68.1308 21.8995C68.1704 21.773 68.0998 21.6384 67.9733 21.5988C67.5915 21.4793 67.2015 21.3665 66.8141 21.2637C66.6862 21.2297 66.5547 21.306 66.5206 21.4341C66.487 21.5621 66.5633 21.6933 66.6913 21.7274Z" fill="#E3E5E8"/>
<path d="M78.0369 27.9369C78.083 27.9789 78.141 27.9998 78.1989 27.9998C78.2639 27.9998 78.3287 27.9734 78.376 27.9218C78.4655 27.8238 78.4586 27.6722 78.3609 27.5826C78.0654 27.3124 77.7599 27.045 77.4527 26.7878C77.3512 26.7026 77.1997 26.716 77.1145 26.8175C77.0296 26.919 77.0428 27.0705 77.1445 27.1557C77.4462 27.4084 77.7465 27.6714 78.0369 27.9369Z" fill="#E3E5E8"/>
<path d="M84.7988 37.5487C84.8372 37.6409 84.9264 37.6966 85.0203 37.6966C85.051 37.6966 85.0824 37.6906 85.1124 37.6781C85.2348 37.6272 85.2927 37.4866 85.2416 37.3642C85.0882 36.9963 84.9243 36.6259 84.7541 36.2635C84.6977 36.1435 84.5552 36.0919 84.4349 36.1483C84.3149 36.2047 84.2633 36.3475 84.3197 36.4675C84.487 36.8235 84.648 37.1873 84.7988 37.5487Z" fill="#E3E5E8"/>
<path d="M82.6054 33.3607C82.6513 33.4322 82.7285 33.4713 82.8077 33.4713C82.8521 33.4713 82.8968 33.4591 82.9369 33.4334C83.0485 33.3619 83.0811 33.2136 83.0096 33.102C82.7941 32.7652 82.568 32.4288 82.3376 32.1014C82.2613 31.9929 82.1115 31.967 82.0033 32.0433C81.8948 32.1196 81.8689 32.2694 81.9452 32.3776C82.1713 32.699 82.3935 33.0297 82.6054 33.3607Z" fill="#E3E5E8"/>
<path d="M85.2296 38.65C85.3649 39.0194 85.4938 39.3967 85.6128 39.7718C85.6452 39.874 85.7398 39.9393 85.8416 39.9393C85.8656 39.9393 85.89 39.9357 85.9143 39.928C86.0405 39.888 86.1106 39.7531 86.0705 39.6266C85.9493 39.2448 85.818 38.8608 85.6803 38.4847C85.6347 38.3601 85.4969 38.2963 85.3724 38.3419C85.2478 38.3877 85.184 38.5255 85.2296 38.65Z" fill="#E3E5E8"/>
<path d="M81.2422 31.4233C81.2895 31.4848 81.3605 31.517 81.4325 31.517C81.4836 31.517 81.5352 31.5006 81.5789 31.467C81.684 31.3861 81.7035 31.2354 81.6226 31.1303C81.3783 30.8133 81.1236 30.4972 80.8659 30.1914C80.7804 30.0899 80.629 30.0769 80.5277 30.1626C80.4264 30.2481 80.4135 30.3995 80.4987 30.5008C80.7516 30.8015 81.002 31.1118 81.2422 31.4233Z" fill="#E3E5E8"/>
<path d="M79.7151 29.611C79.7623 29.6626 79.8269 29.6885 79.8917 29.6885C79.9498 29.6885 80.0079 29.6676 80.0539 29.6251C80.1516 29.5354 80.1579 29.3834 80.0681 29.286C79.7971 28.991 79.5159 28.6982 79.2327 28.4158C79.1388 28.3222 78.9869 28.3224 78.8933 28.4162C78.7997 28.5101 78.7999 28.662 78.8938 28.7556C79.1724 29.0333 79.4487 29.321 79.7151 29.611Z" fill="#E3E5E8"/>
<path d="M59.6558 20.8201H59.6563H59.7004C60.0796 20.8201 60.4634 20.828 60.8416 20.8436C60.845 20.8438 60.8483 20.8438 60.8517 20.8438C60.9796 20.8438 61.0859 20.7428 61.0915 20.6137C61.097 20.4812 60.994 20.3694 60.8615 20.3641C60.4768 20.3482 60.0863 20.3401 59.7007 20.3401H59.6555C59.5231 20.3403 59.4158 20.4481 59.416 20.5806C59.416 20.713 59.5235 20.8201 59.6558 20.8201Z" fill="#E3E5E8"/>
<path d="M83.7938 35.4076C83.8368 35.4894 83.9203 35.5362 84.0067 35.5362C84.0441 35.5362 84.0823 35.5274 84.1178 35.5089C84.2352 35.4474 84.2805 35.3025 84.2191 35.1849C84.0343 34.8318 83.8385 34.4769 83.6371 34.1303C83.5706 34.0156 83.4237 33.9767 83.309 34.0432C83.1943 34.1097 83.1554 34.2566 83.2219 34.3713C83.4199 34.7121 83.6124 35.0606 83.7938 35.4076Z" fill="#E3E5E8"/>
<path d="M40.2967 28.8661C40.3582 28.8661 40.4196 28.8425 40.4666 28.7957C40.7448 28.5173 41.0326 28.2411 41.3223 27.9752C41.4199 27.8857 41.4264 27.7337 41.3366 27.6361C41.2469 27.5384 41.0952 27.5319 40.9975 27.6217C40.7028 27.8924 40.4098 28.1732 40.1268 28.4566C40.0332 28.5505 40.0332 28.7024 40.1271 28.796C40.1739 28.8428 40.2353 28.8661 40.2967 28.8661Z" fill="#E3E5E8"/>
<path d="M57.2663 20.9266C57.2733 20.9266 57.2805 20.9264 57.2877 20.9256C57.6794 20.8913 58.0773 20.8649 58.4707 20.8474C58.6031 20.8414 58.7056 20.7293 58.6998 20.5968C58.6938 20.4644 58.5803 20.3621 58.4493 20.3676C58.049 20.3854 57.6441 20.4123 57.2454 20.4473C57.1134 20.4588 57.0158 20.5755 57.0273 20.7075C57.0386 20.8325 57.1432 20.9266 57.2663 20.9266Z" fill="#E3E5E8"/>
<path d="M38.6812 30.6306C38.7496 30.6306 38.8177 30.6013 38.8652 30.5449C39.1184 30.2432 39.3812 29.943 39.6469 29.6528C39.7364 29.5552 39.7297 29.4032 39.632 29.3137C39.5344 29.2242 39.3824 29.2309 39.2929 29.3286C39.0227 29.6238 38.7551 29.9293 38.4976 30.2363C38.4124 30.3378 38.4256 30.4892 38.5273 30.5744C38.5722 30.6121 38.6269 30.6306 38.6812 30.6306Z" fill="#E3E5E8"/>
<path d="M35.8183 34.5161C35.856 34.5379 35.8973 34.5483 35.9381 34.5483C36.0211 34.5483 36.1018 34.5053 36.1462 34.4283C36.3432 34.0872 36.5503 33.7459 36.762 33.4135C36.8333 33.3017 36.8004 33.1534 36.6886 33.0821C36.5767 33.0108 36.4284 33.0437 36.3571 33.1555C36.1416 33.4937 35.9306 33.8412 35.7302 34.1883C35.6642 34.3032 35.7036 34.4499 35.8183 34.5161Z" fill="#E3E5E8"/>
<path d="M33.6547 40.2067C33.6897 40.0893 33.7253 39.9724 33.7617 39.8563C33.8013 39.7298 33.731 39.5952 33.6045 39.5556C33.4778 39.5157 33.3434 39.5863 33.3038 39.7128C33.2525 39.8762 33.2028 40.0413 33.1543 40.2067H33.6547Z" fill="#E3E5E8"/>
<path d="M34.7315 36.6508C34.7644 36.6662 34.7987 36.6734 34.8328 36.6734C34.9233 36.6734 35.0099 36.622 35.0505 36.5347C35.2171 36.1773 35.3937 35.819 35.5756 35.4693C35.6368 35.3517 35.591 35.2067 35.4736 35.1455C35.356 35.0843 35.2111 35.1302 35.1499 35.2475C34.9648 35.6032 34.7848 35.968 34.6154 36.3316C34.5592 36.4521 34.6113 36.5949 34.7315 36.6508Z" fill="#E3E5E8"/>
<path d="M33.8348 38.8739C33.8619 38.8838 33.8895 38.8883 33.9167 38.8883C34.0148 38.8883 34.107 38.8276 34.1423 38.7302C34.2769 38.3591 34.4214 37.9864 34.5721 37.6223C34.6227 37.4999 34.5644 37.3595 34.442 37.3089C34.3194 37.258 34.1792 37.3166 34.1286 37.439C33.9752 37.8095 33.8281 38.189 33.6913 38.5665C33.6459 38.691 33.7103 38.8286 33.8348 38.8739Z" fill="#E3E5E8"/>
<path d="M37.0869 32.4857C37.1289 32.515 37.1769 32.5291 37.2244 32.5291C37.3 32.5291 37.3746 32.4934 37.4212 32.4266C37.647 32.1041 37.8832 31.7822 38.1227 31.4698C38.2033 31.3646 38.1834 31.2139 38.0783 31.1333C37.9732 31.0526 37.8225 31.0726 37.7418 31.1777C37.498 31.4954 37.2577 31.823 37.0278 32.1514C36.9517 32.2601 36.9781 32.4098 37.0869 32.4857Z" fill="#E3E5E8"/>
<path d="M50.281 22.4807C50.3083 22.4807 50.3362 22.4759 50.3633 22.466C50.7331 22.3307 51.1107 22.202 51.4853 22.0835C51.6118 22.0434 51.6816 21.9085 51.6418 21.7823C51.6017 21.656 51.4671 21.586 51.3406 21.626C50.9592 21.7468 50.575 21.8778 50.1987 22.0156C50.0741 22.0612 50.0103 22.1989 50.0556 22.3235C50.0911 22.4204 50.1833 22.4807 50.281 22.4807Z" fill="#E3E5E8"/>
<path d="M52.5611 21.7588C52.5818 21.7588 52.6027 21.7561 52.6235 21.7504C53.0037 21.6481 53.3911 21.5531 53.7748 21.4677C53.9042 21.4389 53.9858 21.3107 53.957 21.1813C53.9282 21.052 53.8003 20.9704 53.6707 20.9992C53.2799 21.0861 52.8856 21.1828 52.499 21.2869C52.3711 21.3213 52.2952 21.453 52.3295 21.5809C52.3583 21.6882 52.4551 21.7588 52.5611 21.7588Z" fill="#E3E5E8"/>
<path d="M42.0577 27.249C42.1122 27.249 42.1671 27.2306 42.212 27.1926C42.513 26.9394 42.8238 26.6894 43.1351 26.4496C43.2402 26.3687 43.2596 26.218 43.1787 26.1131C43.0979 26.008 42.9471 25.9886 42.8423 26.0694C42.5252 26.3135 42.2094 26.5677 41.9029 26.8254C41.8014 26.9109 41.7884 27.0621 41.8739 27.1636C41.9214 27.22 41.9893 27.249 42.0577 27.249Z" fill="#E3E5E8"/>
<path d="M54.8959 21.2396C54.9098 21.2396 54.9237 21.2384 54.9379 21.236C55.325 21.1676 55.7191 21.1068 56.1095 21.0552C56.2411 21.038 56.3335 20.9172 56.3162 20.786C56.2989 20.6544 56.1784 20.5616 56.0469 20.5793C55.6497 20.6319 55.2484 20.6936 54.8546 20.7634C54.724 20.7864 54.6369 20.911 54.6599 21.0416C54.6803 21.1577 54.7816 21.2396 54.8959 21.2396Z" fill="#E3E5E8"/>
<path d="M48.0798 23.3975C48.1139 23.3975 48.1487 23.3903 48.1816 23.3747C48.5373 23.2082 48.9011 23.0471 49.2633 22.8964C49.3857 22.8455 49.4435 22.7049 49.3927 22.5827C49.3418 22.4603 49.2014 22.4023 49.079 22.4534C48.7103 22.6067 48.34 22.7707 47.9781 22.9401C47.8581 22.9963 47.8063 23.1393 47.8627 23.2593C47.9032 23.3464 47.9896 23.3975 48.0798 23.3975Z" fill="#E3E5E8"/>
<path d="M43.9522 25.7913C44 25.7913 44.048 25.7771 44.09 25.7476C44.4116 25.5215 44.7425 25.2995 45.0735 25.0878C45.1851 25.0163 45.2177 24.868 45.1462 24.7564C45.0747 24.6448 44.9264 24.6122 44.8148 24.6837C44.478 24.8992 44.1413 25.125 43.814 25.3552C43.7055 25.4313 43.6793 25.581 43.7556 25.6895C43.8022 25.7555 43.8766 25.7913 43.9522 25.7913Z" fill="#E3E5E8"/>
<path d="M45.9639 24.5037C46.0047 24.5037 46.0462 24.4932 46.0842 24.4713C46.4242 24.2741 46.773 24.0818 47.1207 23.8999C47.2381 23.8385 47.2837 23.6935 47.2222 23.5759C47.1608 23.4585 47.0156 23.4129 46.8982 23.4744C46.5442 23.6594 46.1893 23.8553 45.8432 24.0559C45.7285 24.1224 45.6896 24.2693 45.7561 24.384C45.8007 24.4608 45.8811 24.5037 45.9639 24.5037Z" fill="#E3E5E8"/>
<path d="M74.9025 25.7692C74.9025 26.6193 74.5547 27.3921 73.9946 27.9522C73.4344 28.5124 72.6616 28.8602 71.8115 28.8602H49.5304C47.8303 28.8602 46.4395 27.4691 46.4395 25.7692C46.4395 25.4085 46.5026 25.061 46.6173 24.7389C46.7731 24.3009 47.0255 23.9082 47.3476 23.5862C47.7635 23.1702 48.2968 22.8712 48.8918 22.7452C49.06 17.8432 53.0875 13.9202 58.0305 13.9202C61.2645 13.9202 64.1071 15.5997 65.7323 18.1343C66.1869 17.9901 66.6712 17.9128 67.1747 17.9128C67.3305 17.9128 67.4839 17.9205 67.6346 17.9346C70.0507 18.1665 71.9402 20.2014 71.9402 22.678C71.9402 22.6792 71.9402 22.6792 71.9402 22.6806C73.5811 22.7488 74.9025 24.113 74.9025 25.7692Z" fill="#0E53BE"/>
<path d="M62.4001 20.9104C62.2772 20.9104 62.1543 20.8636 62.0607 20.7697L59.8801 18.5891L57.7295 20.7397C57.542 20.9272 57.2382 20.9272 57.0507 20.7397C56.8633 20.5523 56.8633 20.2484 57.0507 20.061L59.5407 17.571C59.7282 17.3836 60.032 17.3836 60.2197 17.571L62.7397 20.091C62.9271 20.2784 62.9271 20.5823 62.7397 20.7697C62.6459 20.8636 62.523 20.9104 62.4001 20.9104Z" fill="white"/>
<path d="M59.8804 26.3402C59.6152 26.3402 59.4004 26.1254 59.4004 25.8602V17.9102C59.4004 17.645 59.6152 17.4302 59.8804 17.4302C60.1454 17.4302 60.3604 17.645 60.3604 17.9102V25.8602C60.3604 26.1254 60.1454 26.3402 59.8804 26.3402Z" fill="white"/>
<path d="M101.944 34.1977V85.6194C101.944 86.4798 101.247 87.177 100.387 87.177H22.3271C21.4667 87.177 20.7695 86.4798 20.7695 85.6194V34.1977C20.7695 33.3373 21.4667 32.6401 22.3271 32.6401H100.387C101.247 32.6401 101.944 33.3373 101.944 34.1977Z" fill="#3C3C48"/>
<path d="M99.7913 36.4014V83.4157C99.7913 84.2898 99.0835 84.9976 98.2094 84.9976H24.5021C24.3086 84.9976 24.125 84.9633 23.9537 84.8973C23.3513 84.6769 22.9229 84.0966 22.9229 83.4157V36.4014C22.9229 35.5271 23.6306 34.8196 24.5023 34.8196H98.2096C98.4201 34.8196 98.6234 34.8613 98.807 34.9372C99.3849 35.1721 99.7913 35.7402 99.7913 36.4014Z" fill="white"/>
<path d="M99.7912 36.4007V38.7412H22.9219V36.4007C22.9219 35.5273 23.6296 34.8198 24.5028 34.8198H98.2104C99.0835 34.8196 99.7912 35.5273 99.7912 36.4007Z" fill="#E3E5E8"/>
<path d="M93.7604 36.7805C93.7604 37.2045 93.4167 37.5485 92.9924 37.5485C92.5683 37.5485 92.2246 37.2048 92.2246 36.7805C92.2246 36.3564 92.5683 36.0125 92.9924 36.0125C93.4165 36.0125 93.7604 36.3564 93.7604 36.7805Z" fill="#0E53BE"/>
<path d="M90.9186 36.7805C90.9186 37.2045 90.5749 37.5485 90.1508 37.5485C89.7267 37.5485 89.3828 37.2048 89.3828 36.7805C89.3828 36.3564 89.7267 36.0125 90.1508 36.0125C90.5749 36.0125 90.9186 36.3564 90.9186 36.7805Z" fill="#3C3C48"/>
<path d="M96.6012 36.7805C96.6012 37.2045 96.2575 37.5485 95.8334 37.5485C95.4094 37.5485 95.0654 37.2048 95.0654 36.7805C95.0654 36.3564 95.4091 36.0125 95.8334 36.0125C96.2575 36.0125 96.6012 36.3564 96.6012 36.7805Z" fill="#082E69"/>
<path d="M34.7158 79.4259V43.4542C34.7158 42.6677 35.3535 42.03 36.14 42.03H86.4747C87.2612 42.03 87.8989 42.6677 87.8989 43.4542V79.4259C87.8989 80.2124 87.2612 80.85 86.4747 80.85H36.14C35.3535 80.85 34.7158 80.2124 34.7158 79.4259Z" fill="#E3E5E8"/>
<path d="M86.5662 44.528V78.3524C86.5662 78.3656 86.5662 78.3788 86.5655 78.3927C86.5446 79.0172 86.0307 79.5178 85.4007 79.5178H37.2135C36.8511 79.5178 36.5264 79.3522 36.3128 79.0918C36.1479 78.891 36.0488 78.633 36.0488 78.3526V44.528C36.0488 43.8848 36.5703 43.3628 37.2133 43.3628H85.4005C86.0442 43.3628 86.5662 43.8846 86.5662 44.528Z" fill="#0E53BE"/>
<path d="M76.679 62.5168C77.6883 57.8897 74.7554 53.3207 70.1284 52.3114C65.5014 51.3022 60.9323 54.235 59.9231 58.862C58.9138 63.489 61.8466 68.0581 66.4737 69.0674C71.1007 70.0766 75.6698 67.1438 76.679 62.5168Z" fill="#082E69"/>
<path d="M86.5656 69.951V78.3923C86.5447 79.017 86.0314 79.5174 85.4011 79.5174H59.7021L75.9734 52.1123L84.1099 65.8151L86.5656 69.951Z" fill="#1A100E"/>
<path d="M76.6191 79.5173H37.2144C36.8518 79.5173 36.5273 79.3517 36.3135 79.0916L46.1916 63.1736L56.334 46.8291L66.4764 63.1736L76.6191 79.5173Z" fill="#3C3C48"/>
<path d="M49.7578 57.4258L56.3333 62.3478L62.9088 57.4258L56.3333 46.8296L49.7578 57.4258Z" fill="white"/>
<path d="M70.4355 61.4401L75.9738 65.8151L81.512 61.4401L75.9738 52.1125L70.4355 61.4401Z" fill="white"/>
<path d="M85.839 83.2801H84.6426C84.5267 83.2801 84.4326 83.186 84.4326 83.0701C84.4326 82.9542 84.5267 82.8601 84.6426 82.8601H85.839C85.9549 82.8601 86.049 82.9542 86.049 83.0701C86.049 83.186 85.9549 83.2801 85.839 83.2801ZM83.446 83.2801H82.2496C82.1337 83.2801 82.0396 83.186 82.0396 83.0701C82.0396 82.9542 82.1337 82.8601 82.2496 82.8601H83.446C83.5619 82.8601 83.656 82.9542 83.656 83.0701C83.656 83.186 83.5621 83.2801 83.446 83.2801ZM81.0532 83.2801H79.8568C79.7409 83.2801 79.6468 83.186 79.6468 83.0701C79.6468 82.9542 79.7409 82.8601 79.8568 82.8601H81.0532C81.1691 82.8601 81.2632 82.9542 81.2632 83.0701C81.2632 83.186 81.1691 83.2801 81.0532 83.2801ZM78.6601 83.2801H77.4637C77.3478 83.2801 77.2537 83.186 77.2537 83.0701C77.2537 82.9542 77.3478 82.8601 77.4637 82.8601H78.6601C78.7761 82.8601 78.8701 82.9542 78.8701 83.0701C78.8701 83.186 78.7761 83.2801 78.6601 83.2801ZM76.2673 83.2801H75.0709C74.955 83.2801 74.8609 83.186 74.8609 83.0701C74.8609 82.9542 74.955 82.8601 75.0709 82.8601H76.2673C76.3833 82.8601 76.4773 82.9542 76.4773 83.0701C76.4773 83.186 76.3833 83.2801 76.2673 83.2801ZM73.8743 83.2801H72.6779C72.562 83.2801 72.4679 83.186 72.4679 83.0701C72.4679 82.9542 72.562 82.8601 72.6779 82.8601H73.8743C73.9902 82.8601 74.0843 82.9542 74.0843 83.0701C74.0843 83.186 73.9902 83.2801 73.8743 83.2801ZM71.4815 83.2801H70.2851C70.1692 83.2801 70.0751 83.186 70.0751 83.0701C70.0751 82.9542 70.1692 82.8601 70.2851 82.8601H71.4815C71.5974 82.8601 71.6915 82.9542 71.6915 83.0701C71.6915 83.186 71.5974 83.2801 71.4815 83.2801ZM69.0884 83.2801H67.8921C67.7761 83.2801 67.6821 83.186 67.6821 83.0701C67.6821 82.9542 67.7761 82.8601 67.8921 82.8601H69.0884C69.2044 82.8601 69.2984 82.9542 69.2984 83.0701C69.2984 83.186 69.2044 83.2801 69.0884 83.2801ZM66.6956 83.2801H65.4993C65.3833 83.2801 65.2893 83.186 65.2893 83.0701C65.2893 82.9542 65.3833 82.8601 65.4993 82.8601H66.6956C66.8116 82.8601 66.9056 82.9542 66.9056 83.0701C66.9056 83.186 66.8116 83.2801 66.6956 83.2801ZM64.3026 83.2801H63.1062C62.9903 83.2801 62.8962 83.186 62.8962 83.0701C62.8962 82.9542 62.9903 82.8601 63.1062 82.8601H64.3026C64.4185 82.8601 64.5126 82.9542 64.5126 83.0701C64.5126 83.186 64.4185 83.2801 64.3026 83.2801ZM61.9096 83.2801H60.7132C60.5973 83.2801 60.5032 83.186 60.5032 83.0701C60.5032 82.9542 60.5973 82.8601 60.7132 82.8601H61.9096C62.0255 82.8601 62.1196 82.9542 62.1196 83.0701C62.1196 83.186 62.0255 83.2801 61.9096 83.2801ZM59.5168 83.2801H58.3204C58.2045 83.2801 58.1104 83.186 58.1104 83.0701C58.1104 82.9542 58.2045 82.8601 58.3204 82.8601H59.5168C59.6327 82.8601 59.7268 82.9542 59.7268 83.0701C59.7268 83.186 59.6327 83.2801 59.5168 83.2801ZM57.1237 83.2801H55.9273C55.8114 83.2801 55.7173 83.186 55.7173 83.0701C55.7173 82.9542 55.8114 82.8601 55.9273 82.8601H57.1237C57.2396 82.8601 57.3337 82.9542 57.3337 83.0701C57.3337 83.186 57.2396 83.2801 57.1237 83.2801ZM54.7309 83.2801H53.5345C53.4186 83.2801 53.3245 83.186 53.3245 83.0701C53.3245 82.9542 53.4186 82.8601 53.5345 82.8601H54.7309C54.8469 82.8601 54.9409 82.9542 54.9409 83.0701C54.9409 83.186 54.8469 83.2801 54.7309 83.2801ZM52.3379 83.2801H51.1415C51.0256 83.2801 50.9315 83.186 50.9315 83.0701C50.9315 82.9542 51.0256 82.8601 51.1415 82.8601H52.3379C52.4538 82.8601 52.5479 82.9542 52.5479 83.0701C52.5479 83.186 52.4538 83.2801 52.3379 83.2801ZM49.9449 83.2801H48.7485C48.6325 83.2801 48.5385 83.186 48.5385 83.0701C48.5385 82.9542 48.6325 82.8601 48.7485 82.8601H49.9449C50.0608 82.8601 50.1549 82.9542 50.1549 83.0701C50.1549 83.186 50.061 83.2801 49.9449 83.2801ZM47.5521 83.2801H46.3557C46.2397 83.2801 46.1457 83.186 46.1457 83.0701C46.1457 82.9542 46.2397 82.8601 46.3557 82.8601H47.5521C47.668 82.8601 47.7621 82.9542 47.7621 83.0701C47.7621 83.186 47.668 83.2801 47.5521 83.2801ZM45.159 83.2801H43.9626C43.8467 83.2801 43.7526 83.186 43.7526 83.0701C43.7526 82.9542 43.8467 82.8601 43.9626 82.8601H45.159C45.2749 82.8601 45.369 82.9542 45.369 83.0701C45.369 83.186 45.2752 83.2801 45.159 83.2801ZM42.7662 83.2801H41.5698C41.4539 83.2801 41.3598 83.186 41.3598 83.0701C41.3598 82.9542 41.4539 82.8601 41.5698 82.8601H42.7662C42.8821 82.8601 42.9762 82.9542 42.9762 83.0701C42.9762 83.186 42.8821 83.2801 42.7662 83.2801ZM40.3732 83.2801H39.1768C39.0609 83.2801 38.9668 83.186 38.9668 83.0701C38.9668 82.9542 39.0609 82.8601 39.1768 82.8601H40.3732C40.4891 82.8601 40.5832 82.9542 40.5832 83.0701C40.5832 83.186 40.4891 83.2801 40.3732 83.2801ZM37.9804 83.2801H36.784C36.6681 83.2801 36.574 83.186 36.574 83.0701C36.574 82.9542 36.6681 82.8601 36.784 82.8601H37.9804C38.0963 82.8601 38.1904 82.9542 38.1904 83.0701C38.1904 83.186 38.0963 83.2801 37.9804 83.2801ZM35.9231 83.2801C35.4959 83.2801 35.0773 83.2064 34.6789 83.0607C34.57 83.0209 34.5138 82.9004 34.5537 82.7915C34.5935 82.6825 34.714 82.6263 34.8229 82.6662C35.1753 82.7948 35.5453 82.8601 35.9231 82.8601C36.039 82.8601 36.1331 82.9542 36.1331 83.0701C36.1331 83.186 36.039 83.2801 35.9231 83.2801ZM87.0347 83.2631C86.9281 83.2631 86.8367 83.1822 86.8259 83.0739C86.8144 82.9585 86.8986 82.8555 87.014 82.844C87.3884 82.8066 87.7501 82.7046 88.0888 82.5409C88.1934 82.4903 88.3189 82.5342 88.3693 82.6383C88.4197 82.7427 88.3763 82.8683 88.2717 82.9189C87.8886 83.1042 87.4797 83.2196 87.0558 83.2619C87.0486 83.2628 87.0414 83.2631 87.0347 83.2631ZM33.7209 82.4768C33.6731 82.4768 33.6251 82.4607 33.5857 82.4276C33.2598 82.1535 32.9867 81.8283 32.7738 81.4609C32.7157 81.3606 32.7498 81.2319 32.8501 81.1739C32.9507 81.1158 33.0791 81.1501 33.1372 81.2502C33.3256 81.5754 33.5675 81.8634 33.856 82.106C33.9448 82.1807 33.9563 82.3131 33.8814 82.4019C33.8401 82.4514 33.7806 82.4768 33.7209 82.4768ZM89.1453 82.244C89.0925 82.244 89.0394 82.2241 88.9986 82.1843C88.9156 82.1034 88.9139 81.9704 88.9948 81.8874C89.2583 81.6171 89.4702 81.3066 89.625 80.9646C89.6728 80.859 89.7971 80.8119 89.9029 80.8599C90.0085 80.9077 90.0553 81.032 90.0076 81.1379C89.8326 81.5245 89.5929 81.8754 89.2953 82.1807C89.2545 82.2229 89.2 82.244 89.1453 82.244ZM32.5475 80.4476C32.4474 80.4476 32.3589 80.3759 32.3409 80.2739C32.3046 80.067 32.2861 79.8548 32.2861 79.6431V79.0441C32.2861 78.9282 32.3802 78.8341 32.4961 78.8341C32.6121 78.8341 32.7061 78.9282 32.7061 79.0441V79.6431C32.7061 79.8306 32.7225 80.0183 32.7546 80.2011C32.7748 80.3154 32.6985 80.4243 32.5842 80.4443C32.5717 80.4467 32.5595 80.4476 32.5475 80.4476ZM90.11 80.1075C90.1048 80.1075 90.0997 80.1073 90.0945 80.1071C89.9788 80.0987 89.8919 79.9979 89.9003 79.8822C89.906 79.803 89.9089 79.7226 89.9089 79.6431V78.7014C89.9089 78.5855 90.003 78.4914 90.1189 78.4914C90.2349 78.4914 90.3289 78.5855 90.3289 78.7014V79.6431C90.3289 79.7327 90.3256 79.8234 90.3191 79.9129C90.3112 80.0233 90.219 80.1075 90.11 80.1075ZM32.4961 78.0579C32.3802 78.0579 32.2861 77.9639 32.2861 77.8479V76.6515C32.2861 76.5356 32.3802 76.4415 32.4961 76.4415C32.6121 76.4415 32.7061 76.5356 32.7061 76.6515V77.8479C32.7061 77.9639 32.6123 78.0579 32.4961 78.0579ZM90.1192 77.715C90.0033 77.715 89.9092 77.6209 89.9092 77.505V76.3086C89.9092 76.1927 90.0033 76.0986 90.1192 76.0986C90.2351 76.0986 90.3292 76.1927 90.3292 76.3086V77.505C90.3292 77.6209 90.2351 77.715 90.1192 77.715ZM32.4961 75.6649C32.3802 75.6649 32.2861 75.5708 32.2861 75.4549V74.2585C32.2861 74.1426 32.3802 74.0485 32.4961 74.0485C32.6121 74.0485 32.7061 74.1426 32.7061 74.2585V75.4549C32.7061 75.5708 32.6123 75.6649 32.4961 75.6649ZM90.1192 75.3219C90.0033 75.3219 89.9092 75.2279 89.9092 75.1119V73.9155C89.9092 73.7996 90.0033 73.7055 90.1192 73.7055C90.2351 73.7055 90.3292 73.7996 90.3292 73.9155V75.1119C90.3292 75.2279 90.2351 75.3219 90.1192 75.3219ZM32.4961 73.2719C32.3802 73.2719 32.2861 73.1778 32.2861 73.0619V71.8655C32.2861 71.7495 32.3802 71.6555 32.4961 71.6555C32.6121 71.6555 32.7061 71.7495 32.7061 71.8655V73.0619C32.7061 73.178 32.6123 73.2719 32.4961 73.2719ZM90.1192 72.9291C90.0033 72.9291 89.9092 72.8351 89.9092 72.7191V71.5227C89.9092 71.4068 90.0033 71.3127 90.1192 71.3127C90.2351 71.3127 90.3292 71.4068 90.3292 71.5227V72.7191C90.3292 72.8351 90.2351 72.9291 90.1192 72.9291ZM32.4961 70.8791C32.3802 70.8791 32.2861 70.785 32.2861 70.6691V69.4727C32.2861 69.3567 32.3802 69.2627 32.4961 69.2627C32.6121 69.2627 32.7061 69.3567 32.7061 69.4727V70.6691C32.7061 70.785 32.6123 70.8791 32.4961 70.8791ZM90.1192 70.5361C90.0033 70.5361 89.9092 70.442 89.9092 70.3261V69.1297C89.9092 69.0138 90.0033 68.9197 90.1192 68.9197C90.2351 68.9197 90.3292 69.0138 90.3292 69.1297V70.3261C90.3292 70.442 90.2351 70.5361 90.1192 70.5361ZM32.4961 68.486C32.3802 68.486 32.2861 68.3919 32.2861 68.276V67.0796C32.2861 66.9637 32.3802 66.8696 32.4961 66.8696C32.6121 66.8696 32.7061 66.9637 32.7061 67.0796V68.276C32.7061 68.3919 32.6123 68.486 32.4961 68.486ZM90.1192 68.1431C90.0033 68.1431 89.9092 68.049 89.9092 67.9331V66.7367C89.9092 66.6207 90.0033 66.5267 90.1192 66.5267C90.2351 66.5267 90.3292 66.6207 90.3292 66.7367V67.9331C90.3292 68.0492 90.2351 68.1431 90.1192 68.1431ZM32.4961 66.0932C32.3802 66.0932 32.2861 65.9991 32.2861 65.8832V64.6868C32.2861 64.5709 32.3802 64.4768 32.4961 64.4768C32.6121 64.4768 32.7061 64.5709 32.7061 64.6868V65.8832C32.7061 65.9991 32.6123 66.0932 32.4961 66.0932ZM90.1192 65.7503C90.0033 65.7503 89.9092 65.6562 89.9092 65.5403V64.3439C89.9092 64.2279 90.0033 64.1339 90.1192 64.1339C90.2351 64.1339 90.3292 64.2279 90.3292 64.3439V65.5403C90.3292 65.6562 90.2351 65.7503 90.1192 65.7503ZM32.4961 63.7002C32.3802 63.7002 32.2861 63.6061 32.2861 63.4902V62.2938C32.2861 62.1779 32.3802 62.0838 32.4961 62.0838C32.6121 62.0838 32.7061 62.1779 32.7061 62.2938V63.4902C32.7061 63.6061 32.6123 63.7002 32.4961 63.7002ZM90.1192 63.3572C90.0033 63.3572 89.9092 63.2631 89.9092 63.1472V61.9508C89.9092 61.8349 90.0033 61.7408 90.1192 61.7408C90.2351 61.7408 90.3292 61.8349 90.3292 61.9508V63.1472C90.3292 63.2631 90.2351 63.3572 90.1192 63.3572ZM32.4961 61.3074C32.3802 61.3074 32.2861 61.2133 32.2861 61.0974V59.901C32.2861 59.7851 32.3802 59.691 32.4961 59.691C32.6121 59.691 32.7061 59.7851 32.7061 59.901V61.0974C32.7061 61.2133 32.6123 61.3074 32.4961 61.3074ZM90.1192 60.9644C90.0033 60.9644 89.9092 60.8703 89.9092 60.7544V59.558C89.9092 59.4421 90.0033 59.348 90.1192 59.348C90.2351 59.348 90.3292 59.4421 90.3292 59.558V60.7544C90.3292 60.8703 90.2351 60.9644 90.1192 60.9644ZM32.4961 58.9143C32.3802 58.9143 32.2861 58.8203 32.2861 58.7043V57.5079C32.2861 57.392 32.3802 57.2979 32.4961 57.2979C32.6121 57.2979 32.7061 57.392 32.7061 57.5079V58.7043C32.7061 58.8203 32.6123 58.9143 32.4961 58.9143ZM90.1192 58.5714C90.0033 58.5714 89.9092 58.4773 89.9092 58.3614V57.165C89.9092 57.0491 90.0033 56.955 90.1192 56.955C90.2351 56.955 90.3292 57.0491 90.3292 57.165V58.3614C90.3292 58.4775 90.2351 58.5714 90.1192 58.5714ZM32.4961 56.5213C32.3802 56.5213 32.2861 56.4272 32.2861 56.3113V55.1149C32.2861 54.999 32.3802 54.9049 32.4961 54.9049C32.6121 54.9049 32.7061 54.999 32.7061 55.1149V56.3113C32.7061 56.4272 32.6123 56.5213 32.4961 56.5213ZM90.1192 56.1786C90.0033 56.1786 89.9092 56.0845 89.9092 55.9686V54.7722C89.9092 54.6563 90.0033 54.5622 90.1192 54.5622C90.2351 54.5622 90.3292 54.6563 90.3292 54.7722V55.9686C90.3292 56.0845 90.2351 56.1786 90.1192 56.1786ZM32.4961 54.1285C32.3802 54.1285 32.2861 54.0344 32.2861 53.9185V52.7221C32.2861 52.6062 32.3802 52.5121 32.4961 52.5121C32.6121 52.5121 32.7061 52.6062 32.7061 52.7221V53.9185C32.7061 54.0344 32.6123 54.1285 32.4961 54.1285ZM90.1192 53.7855C90.0033 53.7855 89.9092 53.6915 89.9092 53.5755V52.3791C89.9092 52.2632 90.0033 52.1691 90.1192 52.1691C90.2351 52.1691 90.3292 52.2632 90.3292 52.3791V53.5755C90.3292 53.6915 90.2351 53.7855 90.1192 53.7855ZM32.4961 51.7355C32.3802 51.7355 32.2861 51.6414 32.2861 51.5255V50.3291C32.2861 50.2131 32.3802 50.1191 32.4961 50.1191C32.6121 50.1191 32.7061 50.2131 32.7061 50.3291V51.5255C32.7061 51.6414 32.6123 51.7355 32.4961 51.7355ZM90.1192 51.3925C90.0033 51.3925 89.9092 51.2984 89.9092 51.1825V49.9861C89.9092 49.8702 90.0033 49.7761 90.1192 49.7761C90.2351 49.7761 90.3292 49.8702 90.3292 49.9861V51.1825C90.3292 51.2987 90.2351 51.3925 90.1192 51.3925ZM32.4961 49.3427C32.3802 49.3427 32.2861 49.2486 32.2861 49.1327V47.9363C32.2861 47.8203 32.3802 47.7263 32.4961 47.7263C32.6121 47.7263 32.7061 47.8203 32.7061 47.9363V49.1327C32.7061 49.2486 32.6123 49.3427 32.4961 49.3427ZM90.1192 48.9997C90.0033 48.9997 89.9092 48.9056 89.9092 48.7897V47.5933C89.9092 47.4774 90.0033 47.3833 90.1192 47.3833C90.2351 47.3833 90.3292 47.4774 90.3292 47.5933V48.7897C90.3292 48.9056 90.2351 48.9997 90.1192 48.9997ZM32.4961 46.9496C32.3802 46.9496 32.2861 46.8555 32.2861 46.7396V45.5432C32.2861 45.4273 32.3802 45.3332 32.4961 45.3332C32.6121 45.3332 32.7061 45.4273 32.7061 45.5432V46.7396C32.7061 46.8555 32.6123 46.9496 32.4961 46.9496ZM90.1192 46.6067C90.0033 46.6067 89.9092 46.5126 89.9092 46.3967V45.2003C89.9092 45.0843 90.0033 44.9903 90.1192 44.9903C90.2351 44.9903 90.3292 45.0843 90.3292 45.2003V46.3967C90.3292 46.5128 90.2351 46.6067 90.1192 46.6067ZM32.4961 44.5566C32.3802 44.5566 32.2861 44.4625 32.2861 44.3466V43.2368C32.2861 43.2061 32.2866 43.1754 32.2873 43.1449C32.2902 43.029 32.3872 42.9373 32.5026 42.9402C32.6185 42.9431 32.7102 43.0395 32.7071 43.1555C32.7064 43.1826 32.7061 43.2097 32.7061 43.2368V44.3466C32.7061 44.4627 32.6123 44.5566 32.4961 44.5566ZM90.1192 44.2139C90.0033 44.2139 89.9092 44.1198 89.9092 44.0039V43.2368C89.9092 43.1027 89.9008 42.9673 89.8842 42.8346C89.8698 42.7196 89.9514 42.6145 90.0664 42.6001C90.1825 42.5857 90.2865 42.6673 90.3009 42.7823C90.3196 42.932 90.3292 43.0851 90.3292 43.2366V44.0036C90.3292 44.1198 90.2351 44.2139 90.1192 44.2139ZM32.7335 42.1938C32.7078 42.1938 32.6819 42.189 32.6565 42.1791C32.5485 42.1367 32.4957 42.0147 32.5381 41.9067C32.6939 41.5119 32.9161 41.1498 33.1986 40.8301C33.2754 40.7432 33.4081 40.7351 33.495 40.8119C33.5819 40.8887 33.5901 41.0214 33.5133 41.1083C33.2632 41.391 33.0666 41.7114 32.9289 42.0606C32.8962 42.1431 32.8173 42.1938 32.7335 42.1938ZM89.7407 41.882C89.6646 41.882 89.5912 41.8405 89.5537 41.7683C89.3816 41.4344 89.1541 41.1349 88.8774 40.8786C88.7925 40.7996 88.7874 40.6669 88.8661 40.5817C88.9449 40.4967 89.0778 40.4917 89.163 40.5704C89.4755 40.8601 89.7325 41.1983 89.9269 41.5755C89.98 41.6787 89.9397 41.8052 89.8365 41.8585C89.806 41.8743 89.7731 41.882 89.7407 41.882ZM34.2865 40.437C34.2121 40.437 34.1401 40.3974 34.102 40.3275C34.0463 40.2258 34.084 40.0981 34.1857 40.0427C34.5597 39.8384 34.9626 39.7031 35.3833 39.6402C35.4981 39.6229 35.6049 39.7021 35.6221 39.8168C35.6392 39.9315 35.5602 40.0383 35.4455 40.0556C35.0737 40.1113 34.7176 40.2308 34.3871 40.4113C34.3549 40.4286 34.3204 40.437 34.2865 40.437ZM88.0209 40.2882C87.9937 40.2882 87.9659 40.2829 87.9393 40.2716C87.5932 40.1255 87.2269 40.0422 86.8501 40.0239C86.7342 40.0184 86.6449 39.9198 86.6505 39.8041C86.656 39.6882 86.7529 39.5989 86.8705 39.6044C87.2965 39.6251 87.711 39.7194 88.1027 39.8847C88.2095 39.9299 88.2597 40.053 88.2145 40.1598C88.1805 40.2399 88.1027 40.2882 88.0209 40.2882ZM85.664 40.0201H84.4677C84.3517 40.0201 84.2577 39.926 84.2577 39.8101C84.2577 39.6942 84.3517 39.6001 84.4677 39.6001H85.664C85.78 39.6001 85.874 39.6942 85.874 39.8101C85.874 39.926 85.78 40.0201 85.664 40.0201ZM83.271 40.0201H82.0746C81.9587 40.0201 81.8646 39.926 81.8646 39.8101C81.8646 39.6942 81.9587 39.6001 82.0746 39.6001H83.271C83.3869 39.6001 83.481 39.6942 83.481 39.8101C83.481 39.926 83.3869 40.0201 83.271 40.0201ZM80.878 40.0201H79.6816C79.5656 40.0201 79.4716 39.926 79.4716 39.8101C79.4716 39.6942 79.5656 39.6001 79.6816 39.6001H80.878C80.9939 39.6001 81.088 39.6942 81.088 39.8101C81.088 39.926 80.9941 40.0201 80.878 40.0201ZM78.4852 40.0201H77.2888C77.1728 40.0201 77.0788 39.926 77.0788 39.8101C77.0788 39.6942 77.1728 39.6001 77.2888 39.6001H78.4852C78.6011 39.6001 78.6952 39.6942 78.6952 39.8101C78.6952 39.926 78.6011 40.0201 78.4852 40.0201ZM76.0921 40.0201H74.8957C74.7798 40.0201 74.6857 39.926 74.6857 39.8101C74.6857 39.6942 74.7798 39.6001 74.8957 39.6001H76.0921C76.2081 39.6001 76.3021 39.6942 76.3021 39.8101C76.3021 39.926 76.2081 40.0201 76.0921 40.0201ZM73.6993 40.0201H72.5029C72.387 40.0201 72.2929 39.926 72.2929 39.8101C72.2929 39.6942 72.387 39.6001 72.5029 39.6001H73.6993C73.8153 39.6001 73.9093 39.6942 73.9093 39.8101C73.9093 39.926 73.8153 40.0201 73.6993 40.0201ZM71.3063 40.0201H70.1099C69.994 40.0201 69.8999 39.926 69.8999 39.8101C69.8999 39.6942 69.994 39.6001 70.1099 39.6001H71.3063C71.4222 39.6001 71.5163 39.6942 71.5163 39.8101C71.5163 39.926 71.4222 40.0201 71.3063 40.0201ZM68.9133 40.0201H67.7168C67.6009 40.0201 67.5068 39.926 67.5068 39.8101C67.5068 39.6942 67.6009 39.6001 67.7168 39.6001H68.9133C69.0292 39.6001 69.1233 39.6942 69.1233 39.8101C69.1233 39.926 69.0294 40.0201 68.9133 40.0201ZM66.5205 40.0201H65.324C65.2081 40.0201 65.114 39.926 65.114 39.8101C65.114 39.6942 65.2081 39.6001 65.324 39.6001H66.5205C66.6364 39.6001 66.7305 39.6942 66.7305 39.8101C66.7305 39.926 66.6364 40.0201 66.5205 40.0201ZM64.1274 40.0201H62.931C62.8151 40.0201 62.721 39.926 62.721 39.8101C62.721 39.6942 62.8151 39.6001 62.931 39.6001H64.1274C64.2433 39.6001 64.3374 39.6942 64.3374 39.8101C64.3374 39.926 64.2433 40.0201 64.1274 40.0201ZM61.7346 40.0201H60.5382C60.4223 40.0201 60.3282 39.926 60.3282 39.8101C60.3282 39.6942 60.4223 39.6001 60.5382 39.6001H61.7346C61.8505 39.6001 61.9446 39.6942 61.9446 39.8101C61.9446 39.926 61.8505 40.0201 61.7346 40.0201ZM59.3416 40.0201H58.1452C58.0293 40.0201 57.9352 39.926 57.9352 39.8101C57.9352 39.6942 58.0293 39.6001 58.1452 39.6001H59.3416C59.4575 39.6001 59.5516 39.6942 59.5516 39.8101C59.5516 39.926 59.4577 40.0201 59.3416 40.0201ZM56.9488 40.0201H55.7524C55.6365 40.0201 55.5424 39.926 55.5424 39.8101C55.5424 39.6942 55.6365 39.6001 55.7524 39.6001H56.9488C57.0647 39.6001 57.1588 39.6942 57.1588 39.8101C57.1588 39.926 57.0647 40.0201 56.9488 40.0201ZM54.5557 40.0201H53.3593C53.2434 40.0201 53.1493 39.926 53.1493 39.8101C53.1493 39.6942 53.2434 39.6001 53.3593 39.6001H54.5557C54.6717 39.6001 54.7657 39.6942 54.7657 39.8101C54.7657 39.926 54.6717 40.0201 54.5557 40.0201ZM52.1629 40.0201H50.9665C50.8506 40.0201 50.7565 39.926 50.7565 39.8101C50.7565 39.6942 50.8506 39.6001 50.9665 39.6001H52.1629C52.2789 39.6001 52.3729 39.6942 52.3729 39.8101C52.3729 39.926 52.2789 40.0201 52.1629 40.0201ZM49.7699 40.0201H48.5735C48.4576 40.0201 48.3635 39.926 48.3635 39.8101C48.3635 39.6942 48.4576 39.6001 48.5735 39.6001H49.7699C49.8858 39.6001 49.9799 39.6942 49.9799 39.8101C49.9799 39.926 49.8858 40.0201 49.7699 40.0201ZM47.3769 40.0201H46.1805C46.0645 40.0201 45.9705 39.926 45.9705 39.8101C45.9705 39.6942 46.0645 39.6001 46.1805 39.6001H47.3769C47.4928 39.6001 47.5869 39.6942 47.5869 39.8101C47.5869 39.926 47.493 40.0201 47.3769 40.0201ZM44.9841 40.0201H43.7877C43.6717 40.0201 43.5777 39.926 43.5777 39.8101C43.5777 39.6942 43.6717 39.6001 43.7877 39.6001H44.9841C45.1 39.6001 45.1941 39.6942 45.1941 39.8101C45.1941 39.926 45.1 40.0201 44.9841 40.0201ZM42.591 40.0201H41.3946C41.2787 40.0201 41.1846 39.926 41.1846 39.8101C41.1846 39.6942 41.2787 39.6001 41.3946 39.6001H42.591C42.7069 39.6001 42.801 39.6942 42.801 39.8101C42.801 39.926 42.7069 40.0201 42.591 40.0201ZM40.1982 40.0201H39.0018C38.8859 40.0201 38.7918 39.926 38.7918 39.8101C38.7918 39.6942 38.8857 39.6001 39.0016 39.6001H40.198C40.3139 39.6001 40.408 39.6942 40.408 39.8101C40.408 39.926 40.3141 40.0201 40.1982 40.0201ZM37.8052 40.0201H36.6088C36.4929 40.0201 36.3988 39.926 36.3988 39.8101C36.3988 39.6942 36.4929 39.6001 36.6088 39.6001H37.8052C37.9211 39.6001 38.0152 39.6942 38.0152 39.8101C38.0152 39.926 37.9211 40.0201 37.8052 40.0201Z" fill="#E3E5E8"/>
<path d="M43.3803 46.5001C43.3803 49.2174 41.1776 51.4201 38.4603 51.4201C37.5843 51.4201 36.7616 51.1909 36.0488 50.7889V44.528C36.0488 43.8848 36.5703 43.3628 37.2133 43.3628H42.2497C42.956 44.2146 43.3803 45.308 43.3803 46.5001Z" fill="#082E69"/>
<path d="M37.5606 50.4701C40.2779 50.4701 42.4806 48.2674 42.4806 45.5501C42.4806 42.8329 40.2779 40.6301 37.5606 40.6301C34.8434 40.6301 32.6406 42.8329 32.6406 45.5501C32.6406 48.2674 34.8434 50.4701 37.5606 50.4701Z" fill="#3C3C48"/>
<path d="M38.0411 47.6101V43.49C38.0411 43.225 37.8263 43.01 37.5611 43.01C37.2959 43.01 37.0811 43.225 37.0811 43.49V47.6101C37.0811 47.8753 37.2959 48.0901 37.5611 48.0901C37.8263 48.0901 38.0411 47.8753 38.0411 47.6101Z" fill="white"/>
<path d="M39.6206 45.0701H35.5005C35.2353 45.0701 35.0205 45.2849 35.0205 45.5501C35.0205 45.815 35.2353 46.0301 35.5005 46.0301H39.6206C39.8858 46.0301 40.1006 45.815 40.1006 45.5501C40.1006 45.2849 39.8858 45.0701 39.6206 45.0701Z" fill="white"/>
<path d="M68.7388 87.1543H54.958V99.1253H68.7388V87.1543Z" fill="#1A100E"/>
<path d="M76.7988 102.66H46.8975V101.714C46.8975 99.9108 48.3595 98.4487 50.1631 98.4487H73.5334C75.337 98.4487 76.7991 99.9108 76.7991 101.714L76.7988 102.66Z" fill="#3C3C48"/>
<path d="M105.592 99.3444L105.635 101.367L104.103 101.317L103.926 99.2676L105.592 99.3444Z" fill="#FCBB8C"/>
<path d="M104.971 101.005C104.971 101.005 104.207 100.826 103.997 100.836C103.787 100.847 102.43 102.46 101.96 102.567C101.108 102.76 101.147 104.099 101.671 104.15C103.186 104.297 105.749 103.582 105.749 103.582C105.749 103.582 105.935 101.856 105.815 101.32C105.696 100.784 105.397 101.151 104.971 101.005Z" fill="#0E53BE"/>
<path d="M103.766 102.51C103.793 102.515 103.822 102.509 103.846 102.492C103.893 102.458 103.904 102.393 103.87 102.346C103.859 102.331 103.591 101.96 103.269 101.838C102.842 101.675 102.549 101.938 102.537 101.949C102.494 101.988 102.491 102.054 102.531 102.097C102.569 102.139 102.636 102.142 102.678 102.103C102.686 102.096 102.891 101.918 103.195 102.034C103.457 102.133 103.698 102.465 103.7 102.468C103.716 102.491 103.74 102.505 103.766 102.51Z" fill="white"/>
<path d="M104.046 102.185C104.073 102.19 104.102 102.184 104.126 102.167C104.173 102.133 104.184 102.068 104.15 102.021C104.139 102.005 103.871 101.635 103.55 101.513C103.122 101.35 102.829 101.612 102.817 101.624C102.775 101.663 102.772 101.729 102.811 101.772C102.85 101.814 102.916 101.817 102.959 101.778C102.967 101.771 103.171 101.593 103.476 101.708C103.739 101.809 103.978 102.14 103.98 102.143C103.996 102.165 104.02 102.18 104.046 102.185Z" fill="white"/>
<path d="M103.37 102.791C103.397 102.796 103.426 102.791 103.45 102.774C103.497 102.74 103.508 102.675 103.474 102.628C103.463 102.612 103.195 102.242 102.874 102.12C102.446 101.957 102.154 102.219 102.141 102.23C102.099 102.27 102.096 102.336 102.135 102.378C102.174 102.421 102.24 102.424 102.283 102.385C102.291 102.378 102.495 102.199 102.8 102.315C103.063 102.415 103.302 102.746 103.304 102.749C103.321 102.772 103.344 102.787 103.37 102.791Z" fill="white"/>
<path d="M99.96 75.5385C99.96 75.5385 99.9892 75.9966 100.043 76.7565C100.057 76.9576 100.073 77.1798 100.09 77.4215C100.275 79.9718 100.635 84.5834 101.043 87.856C101.614 92.4441 103.466 99.9909 103.466 99.9909L105.439 99.9386L105.635 99.9323L106.102 99.9206C106.102 99.9206 105.811 95.153 105.424 91.0127C105.169 88.2822 105.055 81.8253 105.008 77.7477C104.983 75.645 104.976 74.1746 104.976 74.1746L99.96 75.5385Z" fill="#3C3C48"/>
<path d="M99.96 75.5385C99.96 75.5385 99.9892 75.9966 100.043 76.7565C100.057 76.9576 100.073 77.1798 100.09 77.4215C100.999 77.5986 103.5 77.7359 105.008 77.7477C104.983 75.645 104.976 74.1746 104.976 74.1746L99.96 75.5385Z" fill="#1A100E"/>
<path d="M103.893 76.7534C103.893 76.9099 103.959 91.7647 105.439 99.9384L105.635 99.9321C104.152 91.7834 104.087 76.9075 104.086 76.7529L103.893 76.7534Z" fill="#1A100E"/>
<path d="M93.8633 99.6273L93.9144 101.387L95.5231 101.314L95.574 99.4468L93.8633 99.6273Z" fill="#FCBB8C"/>
<path d="M94.3255 101.309C94.3255 101.309 93.9787 100.85 93.7058 100.872C93.4332 100.893 91.3396 102.582 90.6194 102.725C89.8992 102.868 90.0429 103.398 90.1771 103.669C90.3112 103.939 95.9296 103.526 95.9296 103.526C95.9296 103.526 96.0722 101.852 95.885 101.341C95.6978 100.831 94.8902 101.426 94.3255 101.309Z" fill="#0E53BE"/>
<path d="M93.1702 102.485C93.1959 102.492 93.2242 102.49 93.2492 102.475C93.2974 102.447 93.314 102.386 93.2859 102.337C93.2765 102.321 93.0536 101.94 92.756 101.793C92.3602 101.596 92.0542 101.821 92.0413 101.831C91.9966 101.865 91.9877 101.928 92.0213 101.973C92.0549 102.017 92.1183 102.026 92.1629 101.993C92.1713 101.987 92.3842 101.835 92.6662 101.974C92.9086 102.094 93.1088 102.435 93.1109 102.439C93.1246 102.462 93.146 102.478 93.1702 102.485Z" fill="white"/>
<path d="M93.4695 102.198C93.4949 102.206 93.5235 102.203 93.5484 102.189C93.5967 102.161 93.6132 102.099 93.5854 102.051C93.576 102.035 93.3531 101.654 93.0557 101.506C92.6595 101.31 92.354 101.535 92.341 101.545C92.2966 101.578 92.2875 101.642 92.3211 101.686C92.3547 101.731 92.418 101.74 92.4624 101.706C92.4708 101.7 92.684 101.548 92.9657 101.687C93.2091 101.808 93.4083 102.149 93.4102 102.152C93.4239 102.176 93.4455 102.191 93.4695 102.198Z" fill="white"/>
<path d="M92.7635 102.719C92.7892 102.726 92.8175 102.724 92.8425 102.709C92.8907 102.681 92.9073 102.619 92.8794 102.571C92.8701 102.555 92.6471 102.174 92.3497 102.027C91.9537 101.83 91.648 102.055 91.635 102.065C91.5904 102.099 91.5815 102.162 91.6151 102.206C91.6487 102.251 91.7121 102.26 91.7565 102.226C91.7649 102.22 91.9782 102.068 92.2597 102.208C92.5033 102.328 92.7023 102.669 92.7042 102.672C92.7177 102.696 92.7393 102.712 92.7635 102.719Z" fill="white"/>
<path d="M93.5671 100.084L95.2027 99.975L95.3975 99.9631L95.7947 99.9364C95.7947 99.9364 96.8733 90.388 97.2055 87.845C97.4942 85.6355 98.8005 80.6769 99.6477 77.5917C99.8877 76.7159 100.091 75.9911 100.225 75.5229C100.327 75.1545 100.387 74.9452 100.387 74.9452L94.9271 74.3735C94.9271 74.3735 94.9108 74.4933 94.8842 74.7093C94.8275 75.1511 94.7188 75.9974 94.5871 77.0611C94.2232 79.9564 93.6691 84.4622 93.4502 86.7563C92.8883 92.6639 93.5671 100.084 93.5671 100.084Z" fill="#3C3C48"/>
<path d="M94.5869 77.0612L99.6476 77.5919C99.8876 76.7161 100.091 75.9913 100.225 75.5231L94.884 74.7097C94.8274 75.1511 94.7184 75.9973 94.5869 77.0612Z" fill="#1A100E"/>
<path d="M95.2031 99.9751L95.398 99.9631C95.5158 97.0087 95.8636 89.6306 96.4799 86.5065C97.2549 82.5684 99.0107 76.8391 99.0287 76.781L98.843 76.7241C98.825 76.782 97.0662 82.5216 96.2903 86.4693C95.6697 89.6136 95.3195 97.0267 95.2031 99.9751Z" fill="#1A100E"/>
<path d="M95.3476 62.6408C94.6324 65.0579 92.7422 66.7952 92.7422 66.7952C91.6694 67.3043 88.8047 68.3574 87.8104 68.163C87.8685 67.4831 87.8051 67.0084 87.6904 66.1724C89.0495 66.1194 91.4892 64.6103 91.4892 64.6103C93.6381 60.6356 93.9703 56.1721 93.9703 56.1721C95.3858 57.6532 95.3476 62.6408 95.3476 62.6408Z" fill="#082E69"/>
<path d="M105.809 71.6645C105.814 71.7423 105.819 71.8191 105.823 71.8947C105.905 73.2768 105.963 74.3484 105.987 74.8748C104.674 75.3168 103.353 75.631 102.024 75.8196C101.964 75.8278 101.904 75.836 101.844 75.8441C101.811 75.8484 101.779 75.8525 101.747 75.8561C101.676 75.8655 101.604 75.8744 101.533 75.882C101.454 75.8919 101.375 75.9008 101.295 75.9096C100.389 76.0066 99.4794 76.0448 98.5657 76.0251C98.3811 76.0208 98.1975 76.0143 98.0127 76.0054C98.0007 76.0049 97.9892 76.0044 97.9772 76.0042C97.9304 76.002 97.8834 75.9992 97.8359 75.9963C97.8073 75.9946 97.7785 75.9929 97.7507 75.9912C96.686 75.9288 95.6168 75.786 94.5421 75.565C94.5248 75.3264 94.5025 74.9722 94.4754 74.526C94.4703 74.443 94.4653 74.3578 94.4605 74.2685V74.268C94.4226 73.6296 94.3787 72.8345 94.3314 71.9357C94.3273 71.8589 94.3232 71.7816 94.3191 71.7032C94.2882 71.1048 94.2558 70.4638 94.2236 69.7952C94.22 69.7176 94.2159 69.6404 94.2126 69.5624C94.1797 68.8767 94.1471 68.1644 94.1154 67.441C94.0962 66.9994 94.0772 66.5537 94.0595 66.1073C94.0415 65.6554 94.0237 65.2028 94.0074 64.753C94.0038 64.6551 94.0002 64.5572 93.9971 64.4592C93.8444 60.2055 93.7883 56.2906 94.058 55.8372C94.2452 55.5236 94.694 55.141 95.2261 54.7505C95.2911 54.7032 95.3574 54.6552 95.4246 54.6072C95.6516 54.4457 97.5366 53.676 97.7725 53.5174L99.7981 53.2527C99.8111 53.2594 101.796 53.7982 101.809 53.8042C101.895 53.8469 101.983 53.8901 102.069 53.9333C102.815 54.3056 103.552 54.7004 103.984 55.0527C104.047 55.1036 104.103 55.154 104.152 55.2034C104.191 55.2428 104.226 55.2812 104.254 55.3193C104.281 55.3536 104.308 55.4124 104.336 55.4936C104.636 56.3729 104.977 59.8798 105.272 63.6999C105.293 63.9737 105.313 64.2492 105.334 64.5252C105.343 64.6462 105.352 64.7679 105.361 64.8893C105.368 64.9728 105.374 65.0568 105.38 65.1404C105.383 65.1824 105.386 65.2239 105.389 65.2659C105.405 65.4737 105.419 65.6811 105.434 65.8875C105.445 66.0404 105.455 66.1925 105.466 66.3449C105.601 68.27 105.719 70.14 105.809 71.6645Z" fill="#0E53BE"/>
<path d="M98.6077 56.6227C99.6906 56.5574 100.62 55.3461 100.66 55.2931C100.686 55.2595 100.679 55.2115 100.646 55.1858C100.612 55.1601 100.564 55.1668 100.538 55.2007C100.529 55.2134 99.555 56.482 98.505 56.4724C98.463 56.4719 98.4282 56.506 98.4277 56.5483C98.4273 56.5905 98.4613 56.6251 98.5036 56.6255C98.5386 56.6258 98.5734 56.6248 98.6077 56.6227Z" fill="#082E69"/>
<path d="M100.327 69.5105C100.366 69.5081 100.397 69.4776 100.399 69.4383C100.402 69.396 100.369 69.36 100.327 69.3576C97.5103 69.2043 96.0597 64.4324 96.0453 64.3841C96.0333 64.3436 95.9906 64.3205 95.9503 64.3325C95.9097 64.3445 95.8867 64.3872 95.8987 64.4276C95.9584 64.6284 97.3953 69.3512 100.319 69.5103C100.321 69.5108 100.325 69.5108 100.327 69.5105Z" fill="#082E69"/>
<path d="M99.1255 68.1126C99.1512 68.1112 99.1754 68.0968 99.1884 68.0723C99.2083 68.0351 99.1944 67.9885 99.1572 67.9686C97.614 67.1411 97.3113 65.8024 97.3085 65.7889C97.2996 65.7477 97.2593 65.7208 97.2177 65.7301C97.1765 65.739 97.1501 65.7796 97.1589 65.8209C97.1712 65.8785 97.4765 67.2409 99.0849 68.1037C99.0977 68.1107 99.1118 68.1136 99.1255 68.1126Z" fill="#082E69"/>
<path d="M101.381 48.8484C101.381 48.8484 101.746 48.6178 101.525 47.7782C101.304 46.939 101.82 46.6776 101.475 46.2125C101.13 45.7474 100.815 45.7397 100.593 45.1526C100.371 44.5656 99.1097 44.1775 98.3217 44.5277C97.5341 44.8778 96.3103 44.3244 95.8992 44.946C95.1549 46.0714 95.6407 46.4822 95.3577 46.7345C94.9656 47.0842 95.1775 49.4119 95.9162 49.4916C96.6549 49.5718 101.381 48.8484 101.381 48.8484Z" fill="#3C3C48"/>
<path d="M96.0924 49.2419C96.0924 49.2419 95.5767 48.6342 95.2534 49.1819C94.9301 49.7296 95.5258 51.2538 96.3718 50.8221L96.0924 49.2419Z" fill="#FB927E"/>
<path d="M96.1528 50.353C96.1207 50.3549 96.09 50.3355 96.0789 50.3036C95.9153 49.8317 95.4064 49.6671 95.4012 49.6657C95.3625 49.6534 95.3409 49.6121 95.3529 49.5735C95.3649 49.5349 95.4062 49.513 95.4449 49.525C95.4686 49.5325 96.0293 49.712 96.2177 50.2553C96.2311 50.2937 96.2107 50.3357 96.1723 50.3489C96.166 50.3511 96.1596 50.3525 96.1528 50.353Z" fill="#E6765D"/>
<path d="M95.6367 50.1415C95.623 50.1422 95.6091 50.1393 95.5961 50.1321C95.5608 50.1122 95.5481 50.0673 95.568 50.0318C95.5714 50.026 95.6513 49.8863 95.8303 49.793C95.8661 49.7743 95.9107 49.7882 95.9297 49.8242C95.9484 49.8602 95.9345 49.9046 95.8985 49.9233C95.76 49.9956 95.6971 50.1028 95.6964 50.1038C95.6837 50.1268 95.6607 50.14 95.6367 50.1415Z" fill="#E6765D"/>
<path d="M101.011 48.9453C101.011 48.9453 101.45 48.28 101.837 48.785C102.224 49.2899 101.816 50.8744 100.924 50.5475L101.011 48.9453Z" fill="#FB927E"/>
<path d="M101.085 50.0557C101.117 50.0538 101.145 50.0308 101.152 49.9979C101.258 49.51 101.743 49.2853 101.748 49.2832C101.785 49.2664 101.802 49.2229 101.785 49.186C101.769 49.149 101.725 49.1324 101.688 49.149C101.665 49.1593 101.13 49.4048 101.009 49.9669C101 50.0065 101.025 50.0459 101.065 50.0543C101.072 50.0555 101.078 50.056 101.085 50.0557Z" fill="#E6765D"/>
<path d="M101.572 49.7836C101.586 49.7829 101.599 49.7784 101.611 49.7695C101.644 49.7455 101.651 49.6994 101.627 49.6665C101.623 49.661 101.527 49.5321 101.338 49.4608C101.3 49.4464 101.257 49.4656 101.243 49.5038C101.229 49.5417 101.248 49.5842 101.286 49.5986C101.432 49.6538 101.508 49.7524 101.508 49.7534C101.524 49.7748 101.548 49.7851 101.572 49.7836Z" fill="#E6765D"/>
<path d="M99.9025 51.9324L99.9956 53.4782C99.9956 53.4782 99.5821 54.2933 98.962 54.3845C98.3425 54.4764 97.7449 53.7775 97.7449 53.7775L97.6484 52.1774L99.9025 51.9324Z" fill="#FCBB8C"/>
<path d="M99.9028 51.9324L99.944 52.6183C99.5538 53.1077 98.8177 53.2685 97.7084 53.1725L97.6484 52.1774L99.9028 51.9324Z" fill="#FB927E"/>
<path d="M101.292 47.8643C101.3 48.4667 101.288 49.2215 101.21 49.8287V49.8304C101.21 49.832 101.209 49.8337 101.209 49.8361C101.209 49.8366 101.209 49.8366 101.209 49.8373C101.189 49.9857 101.166 50.1253 101.138 50.2516C101.122 50.3255 101.104 50.403 101.084 50.4824C100.786 51.6541 100.038 53.3689 97.8584 52.7365C96.9406 52.4704 96.4167 51.5706 96.1177 50.5787C96.1001 50.5194 96.0833 50.4608 96.0682 50.4044C96.0579 50.3668 96.0481 50.3303 96.0389 50.2943L96.0253 50.2413C96.0231 50.2321 96.0214 50.2259 96.0207 50.2218C96.02 50.2194 96.02 50.2185 96.02 50.2185C95.8325 49.4531 95.7639 48.6719 95.7406 48.112C95.7171 47.541 95.9974 47.0005 96.4767 46.6897C97.7749 45.8464 99.211 46.0453 100.167 46.348C100.831 46.5577 101.284 47.1692 101.292 47.8643Z" fill="#FCBB8C"/>
<path d="M99.7773 49.0775C99.7873 49.2427 99.7103 49.3814 99.6052 49.3879C99.5003 49.3941 99.4072 49.2655 99.3973 49.1006C99.3875 48.9355 99.4643 48.7967 99.5692 48.7903C99.6741 48.784 99.7672 48.9127 99.7773 49.0775Z" fill="#3C3C48"/>
<path d="M97.4694 49.2167C97.4793 49.3818 97.4025 49.5206 97.2976 49.527C97.1927 49.5333 97.0996 49.4046 97.0898 49.2398C97.0797 49.0746 97.1567 48.9357 97.2616 48.9294C97.3665 48.923 97.4596 49.0516 97.4694 49.2167Z" fill="#3C3C48"/>
<path d="M100.332 48.1085C100.332 48.1085 99.5628 47.7569 98.9443 47.9866L98.9871 48.3259C98.9871 48.3259 99.8784 48.2974 100.316 48.5021C100.363 48.3746 100.376 48.2441 100.332 48.1085Z" fill="#3C3C48"/>
<path d="M96.5764 48.3016C96.5764 48.3016 97.325 47.8953 97.9624 48.0834L97.9427 48.4276C97.9427 48.4276 97.0449 48.4602 96.6191 48.6961C96.5632 48.5713 96.5416 48.441 96.5764 48.3016Z" fill="#3C3C48"/>
<path d="M98.6481 50.4859C98.772 50.4784 98.892 50.4228 98.9107 50.4139C98.9472 50.3964 98.9628 50.3524 98.945 50.3157C98.9275 50.279 98.8833 50.2636 98.8469 50.2812C98.7821 50.3121 98.6256 50.364 98.5541 50.3268C98.5404 50.3196 98.5212 50.3049 98.5137 50.2605C98.4717 50.0056 98.4902 49.1419 98.4902 49.1332C98.4912 49.0927 98.459 49.0588 98.4182 49.0581C98.3774 49.0572 98.3441 49.0896 98.3431 49.1301C98.3424 49.1661 98.3244 50.0164 98.3685 50.2848C98.3851 50.3858 98.4417 50.4345 98.4861 50.4576C98.5349 50.4828 98.592 50.4892 98.6481 50.4859Z" fill="#FB927E"/>
<path d="M97.7588 51.101C97.8315 51.3782 98.0477 51.8829 98.6722 51.8455C99.2979 51.8078 99.445 51.3256 99.4858 50.9971L97.7588 51.101Z" fill="white"/>
<path d="M101.293 47.8642C101.3 48.4666 101.288 49.2214 101.21 49.8288L100.88 49.8255C100.88 49.8255 100.929 49.3133 100.946 48.9807C100.963 48.648 100.988 48.0264 100.701 47.9664C100.415 47.9071 100.538 47.1924 100.128 46.9104C99.7182 46.6277 98.8376 46.5965 98.2817 46.9867C97.7259 47.3763 97.0525 47.0338 96.7901 47.1115C96.5273 47.1886 96.188 47.5776 96.3066 47.9146C96.4256 48.2508 96.1443 48.4771 96.0946 48.8362C96.0447 49.1952 96.3301 50.136 96.3301 50.136L96.0202 50.2181C95.8326 49.4525 95.7642 48.6718 95.7406 48.1123C95.7171 47.5411 95.9972 47.0009 96.4767 46.6896C97.7753 45.8463 99.2113 46.045 100.167 46.3476C100.831 46.5579 101.284 47.1696 101.293 47.8642Z" fill="#3C3C48"/>
<path d="M101.745 59.7098L103.443 57.9458H89.8611L88.1357 59.7381L101.745 59.7098Z" fill="#3C3C48"/>
<path d="M101.512 60.6906L100.858 55.1233C100.843 54.9961 100.728 54.9054 100.601 54.9203L92.8033 55.8369C92.6763 55.8517 92.5853 55.9669 92.6002 56.0939L93.2547 61.6614C93.2696 61.7884 93.3848 61.8793 93.5117 61.8645L101.309 60.9479C101.437 60.9328 101.528 60.8178 101.512 60.6906Z" fill="#E3E5E8"/>
<path d="M92.8255 56.2272L93.4428 61.4792C93.443 61.4811 93.4432 61.4832 93.4435 61.4854C93.4581 61.5819 93.5469 61.6503 93.6448 61.6388L101.127 60.7592C101.183 60.7524 101.231 60.721 101.259 60.6766C101.281 60.6423 101.291 60.6005 101.286 60.5571L100.669 55.3052C100.657 55.2053 100.567 55.1338 100.467 55.1456L92.9851 56.0252C92.8852 56.0369 92.8137 56.1274 92.8255 56.2272Z" fill="#0E53BE"/>
<path d="M94.6255 58.5593C94.7119 59.2947 95.3781 59.8207 96.1135 59.7343C96.8489 59.6479 97.3749 58.9817 97.2885 58.2463C97.2021 57.511 96.5359 56.9849 95.8005 57.0713C95.0652 57.1579 94.5391 57.8239 94.6255 58.5593Z" fill="#082E69"/>
<path d="M93.29 60.175L93.4441 61.4856C93.4588 61.5821 93.5476 61.6505 93.6455 61.639L97.6357 61.17L94.6091 57.2117L93.5958 59.4878L93.29 60.175Z" fill="#1A100E"/>
<path d="M95.0088 61.4786L101.127 60.7593C101.184 60.7526 101.231 60.7209 101.259 60.6767L99.4349 58.3854L97.5617 56.0327L96.2851 58.7555L95.0088 61.4786Z" fill="#3C3C48"/>
<path d="M98.7763 57.5582L97.8451 58.4426L96.7344 57.7982L97.5619 56.033L98.7763 57.5582Z" fill="white"/>
<path d="M95.6388 58.559L94.8588 59.3393L93.9189 58.7611L94.6087 57.2117L95.6388 58.559Z" fill="white"/>
<path d="M92.6316 62.7331L95.2839 57.6852C95.3309 57.5957 95.2963 57.4848 95.2068 57.4375L88.171 53.7408C88.0812 53.6938 87.9704 53.7281 87.9233 53.8178L85.2711 58.8658C85.224 58.9555 85.2583 59.0664 85.3481 59.1134L92.384 62.8102C92.4737 62.8572 92.5846 62.8229 92.6316 62.7331Z" fill="#E3E5E8"/>
<path d="M88.0118 54.0982L85.5522 58.7794C85.5513 58.7813 85.5503 58.783 85.5494 58.7849C85.5069 58.873 85.5414 58.9796 85.6288 59.0254L92.2979 62.5294C92.3481 62.5558 92.405 62.5565 92.4534 62.5359C92.4909 62.5201 92.5233 62.4915 92.5437 62.4529L95.0032 57.7717C95.05 57.6826 95.0157 57.5725 94.9266 57.5257L88.2575 54.0217C88.1687 53.9749 88.0586 54.0092 88.0118 54.0982Z" fill="#0E53BE"/>
<path d="M88.1775 57.0392C87.8331 57.6946 88.0854 58.5051 88.7408 58.8495C89.3963 59.1939 90.2068 58.9416 90.5512 58.2862C90.8956 57.6308 90.6433 56.8203 89.9879 56.4759C89.3324 56.1315 88.5219 56.3837 88.1775 57.0392Z" fill="#082E69"/>
<path d="M86.1633 57.6167L85.5494 58.785C85.5069 58.8731 85.5414 58.9796 85.6288 59.0255L89.1856 60.8941L88.9264 55.918L86.8038 57.2228L86.1633 57.6167Z" fill="#1A100E"/>
<path d="M86.8438 59.664L92.2973 62.5293C92.3474 62.5557 92.4046 62.5564 92.453 62.5358L92.2433 59.6145L92.028 56.615L89.4358 58.1395L86.8438 59.664Z" fill="#3C3C48"/>
<path d="M92.1678 58.5597L90.8999 58.7628L90.3477 57.6036L92.0284 56.615L92.1678 58.5597Z" fill="white"/>
<path d="M89.0146 57.6116L87.93 57.8144L87.4814 56.8062L88.9262 55.918L89.0146 57.6116Z" fill="white"/>
<path d="M101.741 59.71H88.2354V72.286H101.741V59.71Z" fill="#1A100E"/>
<path d="M98.9528 72.2857H85.4473V59.6814L98.9528 59.71V72.2857Z" fill="#3C3C48"/>
<path d="M85.4472 59.6812L83.6455 57.9172H97.2276L98.9527 59.7098L85.4472 59.6812Z" fill="#1A100E"/>
<path d="M98.2956 70.6949L97.9702 70.8322C97.6793 70.9551 97.386 70.8771 97.1458 70.6721C97.0397 70.5817 96.8724 70.4045 96.7879 70.3551C96.5501 70.2164 95.9914 70.051 95.8315 70.1064C95.6714 70.1616 95.8224 70.4389 95.9858 70.5195C96.1493 70.5999 96.3907 70.6882 96.5592 70.8281C96.7277 70.9681 96.0274 71.6919 95.7163 71.9228C95.4053 72.1537 94.7182 72.2245 94.7803 72.5367C94.8425 72.8492 95.3167 72.6987 95.3167 72.6987C95.3167 72.6987 95.2922 73.0141 95.7617 73.0688C95.7617 73.0688 95.801 73.351 96.1032 73.3827C96.1032 73.3827 96.211 73.7156 96.5311 73.6803C96.8513 73.6448 97.8475 73.5277 99.143 71.7363L98.2956 70.6949Z" fill="#FCBB8C"/>
<path d="M98.1982 70.5173C98.1982 70.5173 102.877 66.9149 104.396 64.9877C104.396 64.9877 104.205 62.6333 103.975 60.7477C103.826 59.5258 103.801 58.2915 103.915 57.066C103.979 56.3784 104.083 55.7144 104.253 55.3191C104.253 55.3191 105.566 55.748 106.297 60.1839C106.694 62.5985 106.826 64.5094 106.869 65.5047C106.891 66.0065 106.724 66.4976 106.401 66.8825C105.397 68.0804 102.89 70.6913 99.2986 71.8517C99.2986 71.8517 98.3763 71.0907 98.1982 70.5173Z" fill="#082E69"/>
<path d="M85.0678 65.6064C85.0678 65.6064 85.9467 65.8037 86.1908 66.1488C86.4349 66.494 85.2075 66.415 85.2075 66.415C85.2075 66.415 86.689 66.5213 86.7313 66.8799C86.7735 67.2384 85.3314 67.1765 85.3314 67.1765C85.3314 67.1765 86.3242 67.4014 86.384 67.6728C86.4438 67.9445 85.3878 67.9424 85.3878 67.9424C85.3878 67.9424 86.1565 68.2004 86.2246 68.4012C86.2926 68.6021 85.4024 68.7061 84.9478 68.5959C84.4933 68.486 84.7647 67.9191 84.7647 67.9191C84.7647 67.9191 84.6068 67.3863 84.7894 67.1998C84.7894 67.1998 84.578 66.7225 84.711 66.4534C84.711 66.4534 84.4796 65.6732 85.0678 65.6064Z" fill="#FCBB8C"/>
<path d="M25.0537 86.0549C25.0537 86.0549 29.8926 88.8555 31.5505 89.0019C32.2782 89.0662 32.93 88.9452 33.3894 88.7962C33.5437 88.7465 33.9284 88.5701 33.9498 88.5617C33.9517 88.561 33.9534 88.561 33.9534 88.561C35.5612 87.74 37.3556 86.5136 39.4648 84.6049L38.6787 83.5923C38.6787 83.5923 37.306 84.4493 35.5304 85.2425C34.8755 85.5344 33.3508 86.1694 32.8112 86.4706C32.6459 86.4586 32.481 86.4404 32.3176 86.4154C29.3077 85.9724 26.6416 83.8114 26.6416 83.8114C25.9542 84.3997 25.2431 85.2905 25.0537 86.0549Z" fill="#FCBB8C"/>
<path d="M38.583 83.5238C38.583 83.5238 38.6111 82.5276 38.9896 82.1085C39.368 81.6895 40.3847 80.3289 40.7648 80.4871C41.145 80.6452 41.5434 81.924 40.7291 83.4103C40.2102 84.3571 39.4321 84.6079 39.4321 84.6079L38.583 83.5238Z" fill="#FCBB8C"/>
<path d="M41.1413 81.2561L39.8405 83.8133C39.7918 83.9098 39.6653 83.9785 39.5578 83.9674L38.138 83.8227C38.0938 83.8179 38.0597 83.8009 38.0384 83.7749L38.0321 83.7663L37.8994 83.5861L38.1754 83.3482L40.8471 81.0433L40.9921 80.9189L41.1325 81.1093L41.1425 81.1222C41.1442 81.1237 41.1449 81.1251 41.1449 81.1273C41.1663 81.1621 41.1661 81.2084 41.1413 81.2561Z" fill="#1A100E"/>
<path d="M40.8475 81.0434L38.1758 83.3484L39.3331 81.0725C39.3818 80.9767 39.5083 80.9074 39.6151 80.9184L40.8475 81.0434Z" fill="#1F2232"/>
<path d="M39.4233 83.7847L38.0027 83.64C37.8957 83.6289 37.8484 83.5425 37.8971 83.4468L39.1982 80.8896C39.2469 80.7938 39.3731 80.7249 39.4804 80.7357L40.901 80.8805C41.008 80.8915 41.0553 80.9779 41.0066 81.0737L39.7058 83.6309C39.6568 83.7269 39.5303 83.7955 39.4233 83.7847Z" fill="#3C3C48"/>
<path d="M39.4498 83.4015L38.3494 83.2894C38.2424 83.2786 38.1951 83.192 38.2438 83.0962L39.2554 81.1074C39.3041 81.0116 39.4306 80.9427 39.5376 80.9535L40.638 81.0656C40.7451 81.0766 40.7924 81.163 40.7436 81.2588L39.732 83.2477C39.6833 83.3437 39.5568 83.4126 39.4498 83.4015Z" fill="#616077"/>
<path d="M41.1468 81.1266L41.1461 81.1273C41.1461 81.1251 41.1451 81.1236 41.1436 81.1221L41.1468 81.1266Z" fill="#1F2232"/>
<path d="M38.7956 81.6804C38.7956 81.6804 39.0922 81.6221 39.2086 81.853C39.325 82.0838 39.0291 82.0829 38.8419 82.0908C38.6547 82.0987 38.5229 82.207 38.5097 82.2427C38.4677 82.3558 38.2757 81.7886 38.7956 81.6804Z" fill="#FCBB8C"/>
<path d="M40.5273 82.5342C40.5273 82.5342 40.7045 81.6503 40.8984 81.1321C41.0275 80.787 41.2812 81.1273 41.2241 81.4496C41.1669 81.7719 41.0609 82.4252 40.5273 82.5342Z" fill="#FCBB8C"/>
<path d="M18.5214 86.9748C18.9973 88.7131 20.1188 91.9123 20.8508 94.6575C22.15 97.8792 22.5287 100.396 23.2348 101.743C23.2348 101.743 28.8616 100.149 30.362 98.2471L29.3024 95.3525C28.4824 93.847 27.9119 92.2181 27.6136 90.5302C27.6097 90.5112 27.6066 90.4915 27.6032 90.4723C27.6484 90.3922 27.6896 90.2998 27.7276 90.1978C27.8869 89.7684 27.9798 89.1751 27.9712 88.6534C27.9668 88.3954 27.938 88.1554 27.8797 87.9615C27.5886 86.9935 27.1393 85.6865 27.0577 85.4501V85.4496L26.9891 84.3382C26.9646 83.9451 26.6516 83.6307 26.2583 83.6057L23.1397 83.407L19.0943 85.6251C18.6143 85.8893 18.3772 86.4468 18.5214 86.9748Z" fill="#0E53BE"/>
<path d="M28.9603 97.463H28.9598C27.132 97.7579 25.435 97.1855 24.3334 96.6532C23.142 96.0777 22.369 95.4222 22.3613 95.4158C22.3238 95.3838 22.3195 95.3277 22.3514 95.2902C22.3834 95.2528 22.4398 95.2485 22.477 95.2804C22.4844 95.2869 23.2433 95.9296 24.4152 96.495C25.4928 97.0151 27.151 97.5746 28.9313 97.287C28.9798 97.2791 29.0256 97.3122 29.0335 97.3607C29.0417 97.4092 29.0088 97.4548 28.9603 97.463Z" fill="#082E69"/>
<path d="M27.1599 98.3993C25.5749 98.6623 23.8445 98.0213 23.7658 97.9915C23.7197 97.9742 23.6964 97.9229 23.7137 97.8768C23.731 97.8307 23.7824 97.8077 23.8284 97.8247C23.8488 97.8324 25.8848 98.586 27.5055 98.1417C27.5535 98.1281 27.602 98.1566 27.6149 98.2041C27.6279 98.2517 27.6 98.3006 27.5525 98.3136C27.4234 98.3491 27.2921 98.3774 27.1599 98.3993Z" fill="#082E69"/>
<path d="M22.5998 86.8398C22.5582 86.8467 22.5167 86.8235 22.5016 86.7827C22.4846 86.7363 22.5083 86.6852 22.5546 86.6684C24.7115 85.8764 25.145 84.3325 25.1491 84.3169C25.1618 84.2694 25.2105 84.2411 25.258 84.2538C25.3055 84.2665 25.3338 84.3152 25.3211 84.3627C25.3034 84.4297 24.8589 86.012 22.6161 86.8357C22.6106 86.8374 22.605 86.8388 22.5998 86.8398Z" fill="#082E69"/>
<path d="M25.2363 91.3711C25.2428 91.4138 25.2793 91.4453 25.321 91.4467C25.3268 91.4467 25.3321 91.4465 25.3378 91.446C26.3898 91.2857 27.122 90.9067 27.614 90.5304C27.6102 90.5114 27.607 90.4918 27.6037 90.4726C27.6488 90.3924 27.6901 90.3 27.728 90.198C27.2653 90.6132 26.4985 91.0889 25.3112 91.2694C25.2625 91.2768 25.2291 91.3224 25.2363 91.3711Z" fill="#082E69"/>
<path d="M44.0215 101.761L45.0127 103.478C45.0127 103.478 45.7504 103.559 46.6 102.967L45.4809 100.941L44.0215 101.761Z" fill="#FCBB8C"/>
<path d="M46.1571 102.866C46.1571 102.866 46.2708 102.284 46.5334 102.18C46.796 102.077 49.4981 102.695 50.2301 102.502C50.9621 102.31 51.0684 102.865 51.0665 103.177C51.0646 103.488 45.673 105.644 45.673 105.644C45.673 105.644 44.7843 104.158 44.7269 103.6C44.6698 103.043 45.6869 103.229 46.1571 102.866Z" fill="#0E53BE"/>
<path d="M47.76 103.433C47.7396 103.452 47.7122 103.462 47.6827 103.46C47.6253 103.456 47.5821 103.406 47.5862 103.349C47.5876 103.33 47.622 102.876 47.831 102.605C48.1087 102.244 48.4941 102.314 48.5104 102.318C48.5668 102.329 48.6038 102.383 48.5928 102.44C48.582 102.496 48.5272 102.533 48.4706 102.522C48.46 102.52 48.1941 102.476 47.9959 102.732C47.8255 102.953 47.7943 103.36 47.794 103.364C47.7916 103.391 47.7789 103.416 47.76 103.433Z" fill="white"/>
<path d="M47.3527 103.303C47.3323 103.321 47.305 103.332 47.2755 103.33C47.2181 103.326 47.1749 103.276 47.179 103.218C47.1804 103.199 47.2147 102.745 47.4238 102.475C47.7019 102.113 48.0869 102.184 48.1032 102.187C48.1596 102.198 48.1966 102.253 48.1855 102.309C48.1747 102.366 48.12 102.403 48.0634 102.391C48.0528 102.39 47.7867 102.345 47.5887 102.602C47.4178 102.823 47.3871 103.229 47.3868 103.233C47.3847 103.261 47.3719 103.285 47.3527 103.303Z" fill="white"/>
<path d="M48.2414 103.466C48.221 103.484 48.1937 103.495 48.1641 103.492C48.1068 103.488 48.0636 103.438 48.0676 103.381C48.0691 103.362 48.1034 102.908 48.3125 102.637C48.5904 102.276 48.9756 102.347 48.9919 102.35C49.0483 102.361 49.0852 102.415 49.0742 102.472C49.0632 102.528 49.0087 102.565 48.952 102.554C48.9415 102.552 48.6753 102.508 48.4773 102.765C48.3062 102.986 48.2757 103.392 48.2755 103.396C48.2733 103.424 48.2606 103.448 48.2414 103.466Z" fill="white"/>
<path d="M30.0462 99.633C30.0462 99.633 35.0075 89.984 38.3084 91.0043C40.5095 91.6847 45.7496 101.145 45.7496 101.145C45.5408 101.371 44.6245 101.984 44.0245 101.944C44.0245 101.944 39.3697 98.2847 37.9196 94.5964C37.9196 94.5964 35.0833 101.292 30.452 101.853C30.0956 101.897 29.1604 100.611 30.0462 99.633Z" fill="#1A100E"/>
<path d="M49.2197 103.406L51.1119 103.998C51.1119 103.998 51.7095 103.558 51.9339 102.547L49.7388 101.814L49.2197 103.406Z" fill="#FCBB8C"/>
<path d="M51.5391 102.773C51.5391 102.773 51.2288 102.267 51.3522 102.014C51.4755 101.76 53.8827 100.385 54.2907 99.7476C54.699 99.1101 55.1535 99.4473 55.3628 99.6775C55.5721 99.9079 53.0643 105.145 53.0643 105.145C53.0643 105.145 51.4038 104.653 50.9843 104.281C50.5647 103.91 51.4393 103.359 51.5391 102.773Z" fill="#0E53BE"/>
<path d="M53.1017 102.106C53.0993 102.133 53.0861 102.16 53.0628 102.178C53.0177 102.214 52.9525 102.206 52.9167 102.162C52.9047 102.146 52.6227 101.789 52.5932 101.448C52.5533 100.995 52.8843 100.786 52.8985 100.777C52.9474 100.747 53.0115 100.762 53.0417 100.811C53.072 100.86 53.0566 100.924 53.0077 100.954C52.9988 100.96 52.7729 101.107 52.8008 101.431C52.825 101.708 53.0773 102.029 53.0797 102.032C53.0969 102.053 53.1041 102.08 53.1017 102.106Z" fill="white"/>
<path d="M52.7143 102.285C52.7119 102.312 52.6987 102.339 52.6754 102.357C52.6305 102.393 52.565 102.386 52.529 102.341C52.517 102.326 52.235 101.969 52.2055 101.628C52.1656 101.174 52.4966 100.965 52.5108 100.956C52.5597 100.926 52.6238 100.941 52.654 100.99C52.6843 101.039 52.6689 101.103 52.62 101.134C52.6111 101.139 52.385 101.287 52.4131 101.61C52.4373 101.889 52.6896 102.208 52.692 102.211C52.7095 102.233 52.7167 102.259 52.7143 102.285Z" fill="white"/>
<path d="M53.4789 101.803C53.4765 101.831 53.4633 101.857 53.44 101.876C53.3952 101.911 53.3296 101.904 53.2936 101.859C53.2816 101.844 52.9996 101.487 52.9701 101.146C52.9303 100.692 53.2612 100.483 53.2754 100.474C53.3244 100.444 53.3884 100.46 53.4187 100.509C53.4489 100.558 53.4336 100.622 53.3846 100.652C53.3757 100.658 53.1496 100.805 53.1777 101.128C53.202 101.407 53.4542 101.726 53.4566 101.729C53.4739 101.751 53.4813 101.777 53.4789 101.803Z" fill="white"/>
<path d="M50.2613 101.895C50.2637 102.312 50.2325 102.595 50.0957 102.967C50.0693 103.039 50.0405 103.114 50.0069 103.195C49.9541 103.315 49.8917 103.45 49.8197 103.599C49.8197 103.599 42.6221 102.204 37.6349 99.809C37.6349 99.809 31.2317 104.422 27.3221 105.015C26.9501 105.07 26.5829 105.072 26.2325 105.024C26.0861 105.005 25.9397 104.976 25.8005 104.94C24.1373 104.518 22.9109 102.999 23.0117 101.251C23.0117 101.251 33.0197 96.7466 36.6917 96.4562C40.3613 96.1634 50.2613 101.895 50.2613 101.895Z" fill="#3C3C48"/>
<path d="M50.096 102.967C50.0696 103.039 50.0408 103.114 50.0072 103.195C45.2792 102.209 39.5096 99.7249 37.8056 98.9641C37.5656 98.8561 37.2872 98.8993 37.0928 99.0721C34.0352 101.784 28.1192 104.271 26.2328 105.024C26.0864 105.005 25.94 104.976 25.8008 104.94C27.152 104.412 33.68 101.777 36.932 98.8921C37.1984 98.6569 37.58 98.5993 37.9016 98.7433C39.608 99.5065 45.3872 101.995 50.096 102.967Z" fill="#1A100E"/>
<path d="M20.5217 76.2861C20.5217 76.2861 19.5187 77.4196 19.3644 79.7884C19.2386 81.7178 19.4109 84.2424 21.1353 84.1164C22.8597 83.9904 25.6925 84.522 26.6465 83.0035C27.6002 81.4852 20.5217 76.2861 20.5217 76.2861Z" fill="#3C3C48"/>
<path d="M25.6445 79.5948C25.6445 79.5948 26.1103 78.9518 26.4732 79.4712C26.8361 79.9905 26.3607 81.5501 25.4873 81.1855L25.6445 79.5948Z" fill="#FB927E"/>
<path d="M25.6684 80.7032C25.7006 80.7027 25.7296 80.6811 25.738 80.6485C25.8645 80.1675 26.3575 79.9652 26.3625 79.963C26.4 79.9479 26.4184 79.9054 26.4033 79.8678C26.3884 79.8301 26.3457 79.8118 26.3083 79.8267C26.2852 79.8358 25.7419 80.0571 25.5962 80.611C25.5859 80.6502 25.6092 80.6902 25.6485 80.7006C25.6552 80.7025 25.662 80.7034 25.6684 80.7032Z" fill="#E6765D"/>
<path d="M26.166 80.4537C26.1796 80.4534 26.1933 80.4493 26.2053 80.4414C26.2389 80.4189 26.248 80.3735 26.2255 80.3397C26.2216 80.3341 26.1319 80.2017 25.9468 80.1225C25.9099 80.1064 25.8667 80.1237 25.8506 80.1611C25.8348 80.1983 25.852 80.2413 25.8892 80.2573C26.0323 80.3185 26.1031 80.4203 26.1036 80.4213C26.118 80.4426 26.1417 80.4541 26.166 80.4537Z" fill="#E6765D"/>
<path d="M22.0654 82.5579L22.0906 84.1006C22.0906 84.1006 22.5634 84.8787 23.1865 84.9219C23.8088 84.966 24.3493 84.2261 24.3493 84.2261L24.3231 82.6291L22.0654 82.5579Z" fill="#FCBB8C"/>
<path d="M22.0654 82.5579L22.0767 83.2423C22.5017 83.6988 23.2457 83.8507 24.3401 83.6707L24.3233 82.6294L22.0654 82.5579Z" fill="#FB927E"/>
<path d="M20.3734 78.6227C20.4118 79.2217 20.4812 79.9705 20.6055 80.5681C20.6365 80.7171 20.671 80.8573 20.7092 80.9828C21.0524 82.1142 21.8965 84.0502 24.1563 83.2011C25.1545 82.8262 25.6016 81.7004 25.7902 80.5595C25.9184 79.7847 25.9268 79.004 25.9074 78.4463C25.887 77.877 25.5678 77.3617 25.0678 77.0893C23.7135 76.3506 22.3023 76.6573 21.3759 77.031C20.7327 77.2899 20.329 77.9322 20.3734 78.6227Z" fill="#FCBB8C"/>
<path d="M24.2696 79.708C24.2722 79.8726 24.3594 80.0048 24.464 80.0029C24.5686 80.0012 24.6514 79.8664 24.6488 79.7017C24.6462 79.5371 24.559 79.4048 24.4544 79.4068C24.3498 79.4084 24.267 79.5433 24.2696 79.708Z" fill="#3C3C48"/>
<path d="M21.9288 79.7463C21.9314 79.9109 22.0185 80.0432 22.1232 80.0413C22.2278 80.0396 22.3106 79.9047 22.308 79.74C22.3053 79.5754 22.2182 79.4432 22.1136 79.4451C22.0087 79.4468 21.9259 79.5817 21.9288 79.7463Z" fill="#3C3C48"/>
<path d="M24.7431 78.8123C24.585 78.7703 24.2658 78.6995 23.9302 78.7041C23.8419 78.7053 23.7757 78.7849 23.7927 78.8713L23.7932 78.8735C23.8069 78.9426 23.8695 78.9909 23.9401 78.9863C24.1681 78.9719 24.7678 78.9942 25.0527 79.1041C25.0578 79.0549 25.0278 79.0014 24.9858 78.9544C24.9219 78.8833 24.8355 78.8368 24.7431 78.8123Z" fill="#3C3C48"/>
<path d="M21.6804 78.8685C21.8371 78.8215 22.1539 78.7404 22.4894 78.7339C22.5778 78.7322 22.6466 78.8095 22.6325 78.8966L22.632 78.8988C22.6207 78.9684 22.5595 79.0185 22.489 79.0164C22.2605 79.0094 21.6619 79.0514 21.3809 79.1707C21.3742 79.1217 21.4025 79.0673 21.4428 79.0188C21.504 78.9453 21.589 78.8959 21.6804 78.8685Z" fill="#3C3C48"/>
<path d="M23.1882 81.0864C23.2443 81.0855 23.3005 81.0747 23.3468 81.0459C23.3893 81.0195 23.4416 80.9667 23.4505 80.8652C23.474 80.5954 23.3912 79.7523 23.3876 79.7163C23.3838 79.676 23.3478 79.6464 23.3075 79.6505C23.2671 79.6546 23.2379 79.6904 23.2417 79.7307C23.2427 79.7393 23.3267 80.5961 23.3043 80.8522C23.3005 80.8968 23.2825 80.9129 23.2693 80.9211C23.2011 80.9633 23.0415 80.924 22.9748 80.898C22.9371 80.8832 22.8947 80.9021 22.88 80.9398C22.8654 80.9775 22.8839 81.02 22.9218 81.0346C22.941 81.0423 23.0643 81.0884 23.1882 81.0864Z" fill="#FB927E"/>
<path d="M24.1271 81.5342C24.0763 81.8138 23.9006 82.3298 23.2802 82.3399C22.6583 82.3499 22.4762 81.8843 22.4111 81.5623L24.1271 81.5342Z" fill="white"/>
<path d="M23.2955 82.7672C23.4746 82.7644 23.6311 82.6652 23.6375 82.6612C23.6716 82.6393 23.6815 82.594 23.6596 82.5599C23.6378 82.5258 23.5927 82.516 23.5586 82.5376C23.5574 82.5383 23.4297 82.6184 23.2931 82.6206C23.1453 82.623 23.0116 82.5469 23.0104 82.5462C22.9754 82.526 22.9305 82.5378 22.9103 82.5728C22.8899 82.6079 22.9019 82.6525 22.9367 82.6729C22.9435 82.677 23.1059 82.7704 23.2955 82.7672Z" fill="#FB927E"/>
<path d="M20.7356 79.6754C20.7356 79.6754 20.2489 79.0481 19.9033 79.5792C19.5577 80.1101 20.0838 81.6533 20.9449 81.2604L20.7356 79.6754Z" fill="#FCBB8C"/>
<path d="M20.4004 81.3041C20.4021 81.3989 20.4801 81.4745 20.5749 81.4731C20.6697 81.4714 20.7453 81.3934 20.7439 81.2986C20.7422 81.2038 20.6642 81.1282 20.5694 81.1297C20.4743 81.1311 20.3987 81.2093 20.4004 81.3041Z" fill="white"/>
<path d="M20.7479 80.784C20.716 80.7845 20.6862 80.7638 20.6764 80.7317C20.534 80.255 20.0348 80.069 20.0298 80.0671C19.9919 80.0534 19.972 80.0112 19.9859 79.9733C19.9996 79.9354 20.0416 79.9154 20.0795 79.9291C20.1028 79.9375 20.6531 80.1408 20.817 80.6897C20.8285 80.7286 20.8064 80.7694 20.7678 80.7809C20.7611 80.783 20.7546 80.784 20.7479 80.784Z" fill="#FB927E"/>
<path d="M20.2434 80.5509C20.2297 80.5512 20.216 80.5476 20.2035 80.5399C20.1692 80.5185 20.1586 80.4734 20.18 80.4388C20.1836 80.4331 20.269 80.2977 20.4514 80.2125C20.4879 80.1952 20.5316 80.2113 20.5489 80.2478C20.5659 80.2845 20.5501 80.328 20.5136 80.3452C20.3727 80.4112 20.3053 80.5149 20.3046 80.5161C20.2909 80.5384 20.2674 80.5504 20.2434 80.5509Z" fill="#FB927E"/>
<path d="M20.0765 78.5082C20.1012 78.5747 20.1672 78.6165 20.2551 78.6405C20.2515 78.8022 20.2716 78.9964 20.2906 79.1824C20.3983 80.2401 20.6686 80.4217 20.7247 80.1589C20.7617 79.9842 20.743 78.9868 20.7185 78.6618C20.9275 78.6445 21.1059 78.6069 21.1059 78.6069L21.3346 77.5746L21.4373 78.5889C21.8079 78.711 22.6644 78.4917 22.6644 78.4917L22.9361 77.4733L23.1305 78.4458C23.6875 78.706 24.3756 78.5154 24.3756 78.5154L24.5172 77.4608L24.901 78.5068C24.901 78.5068 26.0871 78.9105 26.0931 78.4873C26.0969 78.2411 25.9051 77.5508 25.7441 77.0161C25.5684 76.4332 25.1755 75.9448 24.6507 75.6741C23.1751 74.9128 21.6353 75.3558 21.1097 75.6815C19.9954 76.371 20.0765 78.5082 20.0765 78.5082Z" fill="#3C3C48"/>
<path d="M25.4068 76.2844C25.4068 76.2844 26.3966 77.423 26.7496 79.48C27.1027 81.5371 27.0796 82.9288 26.1748 83.5046C24.881 84.3283 25.0972 83.0001 25.11 82.589C25.1227 82.1779 26.2483 81.0362 25.433 77.8864C25.1697 76.8695 25.4068 76.2844 25.4068 76.2844Z" fill="#3C3C48"/>
<path d="M18.5037 86.4255C18.5037 86.4255 18.0655 88.5224 17.5694 90.5348C17.4854 90.8765 17.4007 91.2248 17.3169 91.572C16.9643 93.031 16.6358 94.4708 16.4894 95.3232C16.1687 97.19 16.2026 100.704 16.2235 101.849L17.5593 101.801C17.6335 100.488 18.6662 96.3932 18.628 95.1382L18.7804 94.5476L19.3377 92.3852L20.2103 88.999C20.2103 88.999 20.0867 86.3996 18.5037 86.4255Z" fill="#FCBB8C"/>
<path d="M17.5934 101.444C17.0702 101.405 15.6732 101.454 15.1152 101.642C14.3551 101.899 13.9012 102.514 13.3922 102.65C12.8829 102.785 13.4169 103.129 14.4664 102.881C15.3909 102.662 16.156 102.498 16.2031 102.716C16.2499 102.935 15.2162 102.811 14.9018 103.136C14.5872 103.46 15.4173 103.426 15.9547 103.498C16.3003 103.544 16.5652 103.505 17.075 103.309C17.4345 103.17 17.5048 102.873 17.5224 102.37L17.5934 101.444Z" fill="#FCBB8C"/>
<path d="M84.7365 103.965H80.2118C79.5964 103.965 79.0511 103.569 78.8611 102.984L76.9423 97.0775C76.8638 96.8358 77.0323 96.5848 77.2857 96.5651C80.7794 96.2944 84.2387 96.2939 87.664 96.5644C87.917 96.5843 88.0852 96.8354 88.0067 97.0768L86.0877 102.984C85.8971 103.569 85.3519 103.965 84.7365 103.965Z" fill="#3C3C48"/>
<path d="M82.5048 97.2783C85.3212 97.2783 87.6043 97.1509 87.6043 96.9939C87.6043 96.8368 85.3212 96.7095 82.5048 96.7095C79.6884 96.7095 77.4053 96.8368 77.4053 96.9939C77.4053 97.1509 79.6884 97.2783 82.5048 97.2783Z" fill="#1A100E"/>
<path d="M82.2344 86.2298V96.9597C82.4072 97.0079 82.5692 97.0079 82.7125 96.9597V86.2298C82.7125 86.0978 82.6054 85.9907 82.4734 85.9907C82.3414 85.9905 82.2344 86.0978 82.2344 86.2298Z" fill="#082E69"/>
<path d="M82.4111 89.257C82.4111 89.257 84.8517 91.5691 87.6436 87.0651C87.6436 87.0651 82.8086 86.0969 82.4111 89.257Z" fill="#0E53BE"/>
<path d="M82.6359 87.3188C82.6359 87.3188 85.3669 85.358 81.47 81.7668C81.47 81.7668 79.6074 86.3326 82.6359 87.3188Z" fill="#0E53BE"/>
<path d="M82.5792 93.2899C82.5792 93.2899 85.3051 95.2579 87.4747 90.4231C87.4747 90.4231 82.5538 90.1051 82.5792 93.2899Z" fill="#0E53BE"/>
<path d="M82.4738 95.0213C82.4738 95.0213 82.3778 91.6606 77.2207 92.8793C77.2207 92.8793 79.9613 96.9787 82.4738 95.0213Z" fill="#0E53BE"/>
<path d="M82.7216 90.2331C82.7216 90.2331 82.7079 86.8712 77.5225 87.963C77.5225 87.963 80.1617 92.1282 82.7216 90.2331Z" fill="#0E53BE"/>
<path d="M92.5552 19.0234C92.5552 19.2466 92.4643 19.4504 92.3159 19.5978C92.1695 19.7461 91.966 19.837 91.7426 19.837H74.3517C73.9051 19.837 73.5391 19.471 73.5391 19.0234C73.5391 18.8 73.63 18.5965 73.7783 18.4491C73.9247 18.3008 74.1283 18.2098 74.3517 18.2098H75.1737C75.4984 17.4555 76.2482 16.9282 77.1206 16.9282C77.7079 16.9282 78.239 17.1675 78.6237 17.5532C79.1361 16.6844 80.081 16.1007 81.1627 16.1007C81.46 16.1007 81.7463 16.1458 82.0166 16.2274C82.5823 15.1635 83.7009 14.439 84.9902 14.439C86.5384 14.439 87.8409 15.4844 88.234 16.9069C88.5194 16.7643 88.8412 16.6827 89.1827 16.6827C90.1483 16.6827 90.9628 17.3274 91.2189 18.2103H91.7426C92.1895 18.2098 92.5552 18.5758 92.5552 19.0234Z" fill="#E3E5E8"/>
<path d="M48.542 16.1679C48.542 16.4341 48.4335 16.6769 48.2569 16.8524C48.0824 17.0293 47.8397 17.1377 47.5733 17.1377H26.8407C26.3082 17.1377 25.8721 16.7014 25.8721 16.1679C25.8721 15.9017 25.9806 15.6589 26.1574 15.4834C26.3319 15.3065 26.5748 15.1981 26.841 15.1981H27.8209C28.208 14.2988 29.1018 13.67 30.1419 13.67C30.8422 13.67 31.4753 13.9551 31.934 14.4149C32.5448 13.3791 33.6711 12.6833 34.9609 12.6833C35.3154 12.6833 35.6566 12.7371 35.9787 12.8343C36.6531 11.5659 37.9866 10.7021 39.5238 10.7021C41.3696 10.7021 42.9222 11.9485 43.3909 13.6441C43.731 13.4741 44.1147 13.3767 44.5218 13.3767C45.6728 13.3767 46.6438 14.1452 46.9491 15.1978H47.5733C48.1057 15.1981 48.542 15.6344 48.542 16.1679Z" fill="#E3E5E8"/>
<path d="M12.2583 51.5234C12.2583 52.14 11.7567 52.6414 11.1404 52.6414C10.5241 52.6414 10.0225 52.1398 10.0225 51.5234C10.0225 50.9069 10.5241 50.4055 11.1404 50.4055C11.7567 50.4055 12.2583 50.9071 12.2583 51.5234ZM11.9074 51.5234C11.9074 51.1003 11.5633 50.7562 11.1401 50.7562C10.717 50.7562 10.3729 51.1003 10.3729 51.5234C10.3729 51.9466 10.717 52.2907 11.1401 52.2907C11.5633 52.2907 11.9074 51.9466 11.9074 51.5234Z" fill="#082E69"/>
<path d="M16.8218 50.0151C16.8218 50.6317 16.3202 51.1331 15.7039 51.1331C15.0873 51.1331 14.5859 50.6315 14.5859 50.0151C14.5859 49.3986 15.0875 48.8972 15.7039 48.8972C16.3202 48.8972 16.8218 49.3986 16.8218 50.0151ZM16.4711 50.0151C16.4711 49.592 16.127 49.2479 15.7039 49.2479C15.2807 49.2479 14.9366 49.592 14.9366 50.0151C14.9366 50.4383 15.2807 50.7824 15.7039 50.7824C16.127 50.7824 16.4711 50.4383 16.4711 50.0151Z" fill="#0E53BE"/>
<path d="M16.9655 45.2153C16.8688 45.2153 16.79 45.2938 16.79 45.3908V46.1641C16.79 46.261 16.8685 46.3395 16.9655 46.3395C17.0622 46.3395 17.1409 46.261 17.1409 46.1641V45.3908C17.1407 45.2941 17.0622 45.2153 16.9655 45.2153Z" fill="#082E69"/>
<path d="M16.9655 43.8621C16.8688 43.8621 16.79 43.9405 16.79 44.0375V44.8108C16.79 44.9077 16.8685 44.9862 16.9655 44.9862C17.0622 44.9862 17.1409 44.9077 17.1409 44.8108V44.0375C17.1407 43.9405 17.0622 43.8621 16.9655 43.8621Z" fill="#082E69"/>
<path d="M18.0509 44.9255H17.3561C17.2591 44.9255 17.1807 45.004 17.1807 45.101C17.1807 45.1979 17.2591 45.2764 17.3561 45.2764H18.0509C18.1476 45.2764 18.2263 45.1979 18.2263 45.101C18.2261 45.004 18.1476 44.9255 18.0509 44.9255Z" fill="#082E69"/>
<path d="M16.5743 44.9255H15.8795C15.7828 44.9255 15.7041 45.004 15.7041 45.101C15.7041 45.1979 15.7826 45.2764 15.8795 45.2764H16.5743C16.6713 45.2764 16.7498 45.1979 16.7498 45.101C16.7498 45.004 16.6713 44.9255 16.5743 44.9255Z" fill="#082E69"/>
<path d="M12.2262 46.4541C12.1295 46.4541 12.0508 46.5326 12.0508 46.6295V47.4031C12.0508 47.5 12.1293 47.5785 12.2262 47.5785C12.3232 47.5785 12.4017 47.5 12.4017 47.4031V46.6295C12.4017 46.5326 12.3232 46.4541 12.2262 46.4541Z" fill="#0E53BE"/>
<path d="M12.2262 45.1008C12.1295 45.1008 12.0508 45.1793 12.0508 45.2763V46.0496C12.0508 46.1465 12.1293 46.225 12.2262 46.225C12.3232 46.225 12.4017 46.1465 12.4017 46.0496V45.2763C12.4017 45.1793 12.3232 45.1008 12.2262 45.1008Z" fill="#0E53BE"/>
<path d="M13.3116 46.1641H12.6168C12.5201 46.1641 12.4414 46.2425 12.4414 46.3395C12.4414 46.4365 12.5199 46.5149 12.6168 46.5149H13.3116C13.4084 46.5149 13.4871 46.4365 13.4871 46.3395C13.4868 46.2428 13.4084 46.1641 13.3116 46.1641Z" fill="#0E53BE"/>
<path d="M11.8351 46.1641H11.1403C11.0436 46.1641 10.9648 46.2425 10.9648 46.3395C10.9648 46.4365 11.0433 46.5149 11.1403 46.5149H11.8351C11.9318 46.5149 12.0105 46.4365 12.0105 46.3395C12.0105 46.2428 11.932 46.1641 11.8351 46.1641Z" fill="#0E53BE"/>
<path d="M106.746 52.2009C106.746 52.8175 106.244 53.3188 105.628 53.3188C105.011 53.3188 104.51 52.8172 104.51 52.2009C104.51 51.5844 105.011 51.083 105.628 51.083C106.244 51.083 106.746 51.5846 106.746 52.2009ZM106.395 52.2009C106.395 51.7778 106.051 51.4336 105.627 51.4336C105.204 51.4336 104.86 51.7778 104.86 52.2009C104.86 52.624 105.204 52.9682 105.627 52.9682C106.051 52.9682 106.395 52.624 106.395 52.2009Z" fill="#082E69"/>
<path d="M111.309 50.6926C111.309 51.3089 110.807 51.8105 110.191 51.8105C109.575 51.8105 109.073 51.3089 109.073 50.6926C109.073 50.0761 109.575 49.5747 110.191 49.5747C110.807 49.5747 111.309 50.0761 111.309 50.6926ZM110.958 50.6926C110.958 50.2695 110.614 49.9253 110.191 49.9253C109.768 49.9253 109.424 50.2695 109.424 50.6926C109.424 51.1157 109.768 51.4599 110.191 51.4599C110.614 51.4599 110.958 51.1157 110.958 50.6926Z" fill="#0E53BE"/>
<path d="M111.453 45.8931C111.356 45.8931 111.277 45.9715 111.277 46.0685V46.8418C111.277 46.9387 111.356 47.0172 111.453 47.0172C111.55 47.0172 111.628 46.9387 111.628 46.8418V46.0685C111.628 45.9715 111.55 45.8931 111.453 45.8931Z" fill="#082E69"/>
<path d="M111.453 44.5396C111.356 44.5396 111.277 44.618 111.277 44.715V45.4883C111.277 45.5852 111.356 45.6637 111.453 45.6637C111.55 45.6637 111.628 45.5852 111.628 45.4883V44.715C111.628 44.618 111.55 44.5396 111.453 44.5396Z" fill="#082E69"/>
<path d="M112.538 45.603H111.843C111.746 45.603 111.668 45.6815 111.668 45.7785C111.668 45.8754 111.746 45.9539 111.843 45.9539H112.538C112.635 45.9539 112.714 45.8754 112.714 45.7785C112.713 45.6815 112.635 45.603 112.538 45.603Z" fill="#082E69"/>
<path d="M111.062 45.603H110.367C110.27 45.603 110.191 45.6815 110.191 45.7785C110.191 45.8754 110.27 45.9539 110.367 45.9539H111.062C111.159 45.9539 111.237 45.8754 111.237 45.7785C111.237 45.6815 111.159 45.603 111.062 45.603Z" fill="#082E69"/>
<path d="M106.714 47.1316C106.617 47.1316 106.538 47.2101 106.538 47.307V48.0806C106.538 48.1773 106.617 48.256 106.714 48.256C106.81 48.256 106.889 48.1775 106.889 48.0806V47.307C106.889 47.2101 106.81 47.1316 106.714 47.1316Z" fill="#0E53BE"/>
<path d="M106.714 45.7783C106.617 45.7783 106.538 45.8568 106.538 45.9538V46.727C106.538 46.824 106.617 46.9025 106.714 46.9025C106.81 46.9025 106.889 46.824 106.889 46.727V45.9538C106.889 45.8568 106.81 45.7783 106.714 45.7783Z" fill="#0E53BE"/>
<path d="M107.799 46.8416H107.104C107.007 46.8416 106.929 46.92 106.929 47.017C106.929 47.114 107.007 47.1924 107.104 47.1924H107.799C107.896 47.1924 107.974 47.114 107.974 47.017C107.974 46.9203 107.896 46.8416 107.799 46.8416Z" fill="#0E53BE"/>
<path d="M106.322 46.8416H105.628C105.531 46.8416 105.452 46.92 105.452 47.017C105.452 47.114 105.531 47.1924 105.628 47.1924H106.322C106.419 47.1924 106.498 47.114 106.498 47.017C106.498 46.9203 106.419 46.8416 106.322 46.8416Z" fill="#0E53BE"/>
<path d="M13.5529 68.1H15.669C15.9153 68.1 16.1147 67.9003 16.1147 67.6543V59.9914H17.4853C17.6977 59.9914 17.8031 59.7334 17.6512 59.5848L16.3389 58.2998L14.7772 56.7706C14.685 56.6803 14.5374 56.6803 14.4453 56.7706L12.8836 58.2998L11.5708 59.5848C11.4189 59.7334 11.5242 59.9914 11.7366 59.9914H13.107V67.6543C13.107 67.9003 13.3067 68.1 13.5529 68.1Z" fill="#E3E5E8"/>
<path d="M108.173 95.64H110.289C110.535 95.64 110.735 95.4404 110.735 95.1944V87.5314H112.105C112.318 87.5314 112.423 87.2734 112.271 87.1248L110.959 85.8399L109.397 84.3106C109.305 84.2204 109.158 84.2204 109.065 84.3106L107.504 85.8399L106.191 87.1248C106.039 87.2734 106.144 87.5314 106.357 87.5314H107.727V95.1944C107.727 95.4404 107.927 95.64 108.173 95.64Z" fill="#E3E5E8"/>
<path d="M62.4254 111.712C62.3217 111.818 62.2327 111.935 62.1595 112.06L62.0479 112.003C62.0318 111.931 61.9641 111.882 61.8897 111.891C61.8103 111.9 61.7534 111.972 61.7627 112.052C61.7721 112.131 61.8441 112.188 61.9235 112.178C61.9391 112.177 61.954 112.172 61.9675 112.166L62.0759 112.222C62.0157 112.355 61.972 112.496 61.9466 112.641L62.1258 112.672C62.181 112.359 62.3299 112.071 62.5559 111.839L62.4254 111.712Z" fill="#112129"/>
<path d="M63.7428 111.159C63.7018 111.159 63.661 111.161 63.6204 111.163L63.6027 111.013C63.6478 110.977 63.6737 110.92 63.6665 110.858C63.6555 110.764 63.57 110.696 63.4757 110.707C63.3814 110.719 63.314 110.804 63.325 110.898C63.3322 110.959 63.3704 111.009 63.4222 111.034L63.4397 111.183C63.2684 111.211 63.103 111.263 62.9453 111.338L63.0238 111.503C63.248 111.395 63.4899 111.341 63.7426 111.341C63.8616 111.341 63.9809 111.354 64.0966 111.379L64.1352 111.201C64.0068 111.173 63.8748 111.159 63.7428 111.159Z" fill="#112129"/>
<path d="M65.3268 111.771C65.4063 111.761 65.4627 111.689 65.4531 111.609C65.4435 111.53 65.3712 111.474 65.2918 111.483C65.2176 111.492 65.1634 111.556 65.1646 111.629L65.0648 111.716C64.9644 111.613 64.8512 111.521 64.7268 111.443L64.6299 111.597C64.902 111.769 65.1149 112.011 65.245 112.299L65.4108 112.224C65.3506 112.091 65.2745 111.967 65.1848 111.853L65.2812 111.769C65.2959 111.772 65.3112 111.773 65.3268 111.771Z" fill="#112129"/>
<path d="M63.6108 113.609C63.5182 113.615 63.4248 113.618 63.3331 113.618C63.1219 113.618 62.9172 113.603 62.7384 113.575C62.6448 113.56 62.5354 113.538 62.4336 113.505C62.6846 113.951 63.1702 114.255 63.7267 114.255C64.4119 114.255 64.9896 113.795 65.1547 113.174C64.991 113.282 64.7935 113.372 64.5646 113.443C64.2816 113.531 63.9516 113.589 63.6108 113.609Z" fill="#112129"/>
<path d="M63.7424 111.523C62.9379 111.523 62.2832 112.163 62.2832 112.95C62.2832 113.052 62.2942 113.153 62.3161 113.252C62.4776 113.368 62.9655 113.466 63.5996 113.428C64.2906 113.386 64.8709 113.198 65.2009 112.909C65.1997 112.863 65.1958 112.816 65.1901 112.77C65.0989 112.059 64.4763 111.523 63.7424 111.523ZM63.224 113.087C62.9792 113.087 62.78 112.887 62.78 112.643C62.78 112.398 62.9792 112.199 63.224 112.199C63.4688 112.199 63.668 112.398 63.668 112.643C63.668 112.888 63.4688 113.087 63.224 113.087ZM64.3611 112.869C64.1811 112.869 64.0347 112.722 64.0347 112.542C64.0347 112.362 64.1811 112.216 64.3611 112.216C64.5411 112.216 64.6878 112.362 64.6878 112.542C64.6878 112.722 64.5411 112.869 64.3611 112.869Z" fill="#112129"/>
<path d="M67.5832 111.971C67.5124 111.943 67.39 111.897 67.2515 111.914C67.1193 111.931 67.049 111.996 67.049 112.156V112.364H67.5837V112.776H67.049V114.085H66.5853V112.776H66.2637V112.364H66.5853V112.151C66.5853 111.748 66.8003 111.483 67.2016 111.483C67.3559 111.483 67.4793 111.512 67.5832 111.557V111.971Z" fill="#112129"/>
<path d="M68.7121 112.771C68.6696 112.764 68.6262 112.76 68.5858 112.76C68.3708 112.76 68.2234 112.891 68.2234 113.147V114.085H67.7598V112.364H68.2093V112.552C68.3175 112.391 68.4829 112.318 68.6943 112.318C68.7937 112.318 68.8978 112.349 68.9569 112.399L68.7121 112.771Z" fill="#112129"/>
<path d="M70.5521 113.222C70.5521 113.275 70.5485 113.339 70.5432 113.378H69.3228C69.3725 113.627 69.5467 113.735 69.7651 113.735C69.9144 113.735 70.0759 113.675 70.2002 113.57L70.4719 113.868C70.2766 114.048 70.0279 114.129 69.7382 114.129C69.2107 114.129 68.8447 113.771 68.8447 113.229C68.8447 112.687 69.1999 112.317 69.7152 112.317C70.211 112.318 70.5504 112.685 70.5521 113.222ZM69.3247 113.062H70.0867C70.0442 112.842 69.9108 112.717 69.7118 112.717C69.4934 112.717 69.3655 112.849 69.3247 113.062Z" fill="#112129"/>
<path d="M72.389 113.222C72.389 113.275 72.3854 113.339 72.3801 113.378H71.1597C71.2094 113.627 71.3836 113.735 71.602 113.735C71.7513 113.735 71.9128 113.675 72.0372 113.57L72.3088 113.868C72.1135 114.048 71.8648 114.129 71.5752 114.129C71.0476 114.129 70.6816 113.771 70.6816 113.229C70.6816 112.687 71.0368 112.317 71.5521 112.317C72.048 112.318 72.3873 112.685 72.389 113.222ZM71.1616 113.062H71.9236C71.8809 112.842 71.7477 112.717 71.5488 112.717C71.3304 112.717 71.2024 112.849 71.1616 113.062Z" fill="#112129"/>
<path d="M74.3918 113.223C74.3918 113.74 74.033 114.129 73.5587 114.129C73.3279 114.129 73.1644 114.039 73.0526 113.905V114.795H72.5908V112.363H73.0437V112.554C73.1555 112.413 73.3209 112.317 73.5571 112.317C74.033 112.318 74.3918 112.706 74.3918 113.223ZM73.0293 113.223C73.0293 113.495 73.2086 113.698 73.4716 113.698C73.7452 113.698 73.9156 113.486 73.9156 113.223C73.9156 112.961 73.7452 112.749 73.4716 112.749C73.2088 112.749 73.0293 112.952 73.0293 113.223Z" fill="#112129"/>
<path d="M75.1365 111.801C75.1365 111.968 75.0069 112.096 74.8399 112.096C74.6728 112.096 74.5449 111.968 74.5449 111.801C74.5449 111.634 74.6728 111.502 74.8399 111.502C75.0067 111.502 75.1365 111.634 75.1365 111.801ZM75.0744 114.085H74.6107V112.364H75.0744V114.085Z" fill="#112129"/>
<path d="M75.8484 112.977L76.4967 112.364H77.065L76.23 113.174L77.0703 114.085H76.5L75.8482 113.389V114.085H75.3848V111.527H75.8484V112.977Z" fill="#112129"/>
<path d="M44.2593 114.069V113.816C44.1328 113.989 43.9255 114.111 43.6864 114.111C43.2434 114.111 42.9307 113.774 42.9307 113.222C42.9307 112.681 43.24 112.329 43.6864 112.329C43.9149 112.329 44.1223 112.441 44.2593 112.628V111.724H44.5231V114.069H44.2593V114.069ZM44.2593 113.609V112.839C44.1645 112.691 43.9605 112.565 43.7495 112.565C43.4085 112.565 43.2047 112.846 43.2047 113.222C43.2047 113.598 43.4087 113.876 43.7495 113.876C43.9607 113.876 44.1645 113.757 44.2593 113.609Z" fill="#112129"/>
<path d="M44.8643 113.219C44.8643 112.726 45.2159 112.329 45.7009 112.329C46.2143 112.329 46.5164 112.73 46.5164 113.24V113.307H45.1419C45.1631 113.627 45.3879 113.894 45.7537 113.894C45.9469 113.894 46.1439 113.816 46.2774 113.679L46.4039 113.851C46.2351 114.02 46.0067 114.112 45.729 114.112C45.2262 114.112 44.8643 113.749 44.8643 113.219ZM45.6973 112.547C45.3351 112.547 45.1559 112.853 45.1419 113.113H46.2563C46.2529 112.86 46.0842 112.547 45.6973 112.547Z" fill="#112129"/>
<path d="M46.7061 113.844L46.8431 113.654C46.9557 113.784 47.17 113.897 47.4021 113.897C47.6622 113.897 47.8029 113.774 47.8029 113.605C47.8029 113.194 46.7517 113.447 46.7517 112.818C46.7517 112.554 46.9801 112.329 47.3843 112.329C47.6725 112.329 47.8765 112.438 48.0136 112.575L47.8905 112.758C47.7887 112.635 47.6022 112.544 47.3843 112.544C47.1522 112.544 47.0082 112.66 47.0082 112.811C47.0082 113.183 48.0594 112.937 48.0594 113.598C48.0594 113.883 47.8309 114.111 47.3915 114.111C47.1138 114.112 46.8784 114.027 46.7061 113.844Z" fill="#112129"/>
<path d="M48.3545 111.953C48.3545 111.855 48.4354 111.774 48.5302 111.774C48.6286 111.774 48.7094 111.855 48.7094 111.953C48.7094 112.051 48.6286 112.129 48.5302 112.129C48.4354 112.129 48.3545 112.051 48.3545 111.953ZM48.4001 114.069V112.371H48.6639V114.069H48.4001Z" fill="#112129"/>
<path d="M49.0999 114.505L49.2334 114.308C49.374 114.477 49.5427 114.54 49.7854 114.54C50.0666 114.54 50.3302 114.403 50.3302 114.031V113.788C50.207 113.96 49.9997 114.09 49.7606 114.09C49.3178 114.09 49.0049 113.76 49.0049 113.212C49.0049 112.667 49.3142 112.329 49.7606 112.329C49.9891 112.329 50.1931 112.442 50.3302 112.628V112.371H50.5937V114.02C50.5937 114.583 50.1998 114.758 49.7851 114.758C49.4971 114.758 49.3003 114.702 49.0999 114.505ZM50.3304 113.581V112.839C50.239 112.691 50.0352 112.565 49.8242 112.565C49.4832 112.565 49.2794 112.835 49.2794 113.211C49.2794 113.584 49.4832 113.858 49.8242 113.858C50.035 113.858 50.239 113.728 50.3304 113.581Z" fill="#112129"/>
<path d="M52.1794 114.069V112.958C52.1794 112.66 52.0282 112.565 51.7998 112.565C51.5922 112.565 51.3954 112.691 51.297 112.828V114.069H51.0332V112.371H51.297V112.617C51.4165 112.476 51.6486 112.329 51.9015 112.329C52.2567 112.329 52.443 112.508 52.443 112.877V114.069H52.1794V114.069Z" fill="#112129"/>
<path d="M52.7842 113.219C52.7842 112.726 53.1358 112.329 53.6208 112.329C54.1342 112.329 54.4363 112.73 54.4363 113.24V113.307H53.0619C53.083 113.627 53.3079 113.894 53.6736 113.894C53.8671 113.894 54.0639 113.816 54.1975 113.679L54.324 113.851C54.1553 114.02 53.9268 114.112 53.6491 114.112C53.1463 114.112 52.7842 113.749 52.7842 113.219ZM53.6175 112.547C53.2553 112.547 53.076 112.853 53.0621 113.113H54.1764C54.1728 112.86 54.0041 112.547 53.6175 112.547Z" fill="#112129"/>
<path d="M56.0047 114.069V113.816C55.8782 113.989 55.6706 114.111 55.4315 114.111C54.9885 114.111 54.6758 113.774 54.6758 113.222C54.6758 112.681 54.9851 112.329 55.4315 112.329C55.66 112.329 55.8676 112.441 56.0047 112.628V111.724H56.2682V114.069H56.0047V114.069ZM56.0047 113.609V112.839C55.9096 112.691 55.7059 112.565 55.4949 112.565C55.1539 112.565 54.9501 112.846 54.9501 113.222C54.9501 113.598 55.1539 113.876 55.4949 113.876C55.7059 113.876 55.9096 113.757 56.0047 113.609Z" fill="#112129"/>
<path d="M57.5264 114.069V111.725H57.7899V112.628C57.9272 112.442 58.1309 112.329 58.363 112.329C58.8058 112.329 59.1188 112.681 59.1188 113.222C59.1188 113.774 58.8058 114.112 58.363 114.112C58.124 114.112 57.9166 113.989 57.7899 113.817V114.07H57.5264V114.069ZM58.2963 113.876C58.6409 113.876 58.8447 113.598 58.8447 113.222C58.8447 112.846 58.6407 112.565 58.2963 112.565C58.0889 112.565 57.8816 112.691 57.7901 112.839V113.609C57.8813 113.757 58.0889 113.876 58.2963 113.876Z" fill="#112129"/>
<path d="M59.4072 114.495C59.4458 114.512 59.5092 114.523 59.5514 114.523C59.6674 114.523 59.7446 114.484 59.8046 114.343L59.9172 114.087L59.207 112.371H59.4919L60.0578 113.763L60.6204 112.371H60.9086L60.0578 114.414C59.9558 114.66 59.7835 114.755 59.5586 114.758C59.5025 114.758 59.4144 114.748 59.3652 114.733L59.4072 114.495Z" fill="#112129"/>
</svg>
