<svg width="120" height="120" viewBox="0 0 120 120" fill="none" xmlns="http://www.w3.org/2000/svg">
<path d="M72.9578 24.7508C72.4104 25.5846 72.0424 26.5002 71.8461 27.4446L70.3418 27.5862V30.4993L71.8464 30.6412C72.0422 31.5853 72.4106 32.5012 72.958 33.3349L71.9973 34.4956L74.0572 36.5555L75.2176 35.5948C76.0514 36.142 76.967 36.5104 77.9114 36.7064L78.053 38.2108L80.9661 38.2105L81.108 36.7064C82.0524 36.5104 82.968 36.142 83.8017 35.5948L84.9624 36.5555L87.0223 34.4956L86.0616 33.3352C86.6088 32.5014 86.9769 31.5858 87.173 30.6414L88.6771 30.4996L88.6773 27.5864L87.173 27.4446C86.9769 26.5004 86.6085 25.5846 86.0613 24.7511L87.022 23.5907L84.9621 21.5308L83.8017 22.4915C82.968 21.944 82.0521 21.5756 81.108 21.3798L80.9661 19.8755L78.053 19.8757L77.9114 21.38C76.967 21.5761 76.0514 21.9443 75.2179 22.4917L74.0572 21.531L71.9973 23.5909L72.9578 24.7508ZM82.8542 25.6981C84.7012 27.5452 84.7015 30.5404 82.8542 32.3876C81.0067 34.2349 78.0117 34.2347 76.1647 32.3876C74.3174 30.5404 74.3174 27.5456 76.1647 25.6981C78.012 23.8508 81.0067 23.8508 82.8542 25.6981Z" fill="#F0F0F0"/>
<path d="M64.7714 26.325H44.2012C43.547 26.325 43.0166 25.7946 43.0166 25.1404V9.39997C43.0166 8.74573 43.547 8.21533 44.2012 8.21533H64.7714C65.4256 8.21533 65.956 8.74573 65.956 9.39997V25.1406C65.956 25.7949 65.4256 26.325 64.7714 26.325Z" fill="#E6E6E6"/>
<path d="M65.956 11.3733H43.0166V9.32581C43.0166 8.71261 43.5139 8.21533 44.1271 8.21533H64.8652C65.4676 8.21533 65.9563 8.70373 65.9563 9.30637V11.3733H65.956Z" fill="#E0E0E0"/>
<path opacity="0.5" d="M64.7399 10.0245C64.7399 10.4051 64.4313 10.7138 64.0506 10.7138C63.67 10.7138 63.3613 10.4051 63.3613 10.0245C63.3613 9.64385 63.67 9.33521 64.0506 9.33521C64.4313 9.33497 64.7399 9.64361 64.7399 10.0245Z" fill="#FAFAFA"/>
<path opacity="0.5" d="M62.7809 10.0245C62.7809 10.4051 62.4723 10.7138 62.0916 10.7138C61.711 10.7138 61.4023 10.4051 61.4023 10.0245C61.4023 9.64385 61.711 9.33521 62.0916 9.33521C62.4723 9.33497 62.7809 9.64361 62.7809 10.0245Z" fill="#FAFAFA"/>
<path opacity="0.5" d="M60.1322 10.7138C60.5128 10.7138 60.8214 10.4052 60.8214 10.0245C60.8214 9.64381 60.5128 9.33521 60.1322 9.33521C59.7515 9.33521 59.4429 9.64381 59.4429 10.0245C59.4429 10.4052 59.7515 10.7138 60.1322 10.7138Z" fill="#FAFAFA"/>
<path opacity="0.6" d="M60.5556 14.0129H48.2822V14.6557H60.5556V14.0129Z" fill="white"/>
<path d="M57.2557 15.4038H48.4736V16.0465H57.2557V15.4038Z" fill="#E0E0E0"/>
<path d="M63.8849 14.0129H61.6421V14.6557H63.8849V14.0129Z" fill="#F0F0F0"/>
<path d="M47.43 14.0129H45.0156V14.6557H47.43V14.0129Z" fill="#F0F0F0"/>
<path d="M60.5556 16.9487H48.2822V17.5914H60.5556V16.9487Z" fill="#F0F0F0"/>
<path opacity="0.6" d="M63.8849 16.9487H61.6421V17.5914H63.8849V16.9487Z" fill="white"/>
<path d="M47.43 16.9487H45.0156V17.5914H47.43V16.9487Z" fill="#F0F0F0"/>
<path opacity="0.6" d="M60.5556 23.0688H48.2822V23.7116H60.5556V23.0688Z" fill="white"/>
<path opacity="0.6" d="M63.8849 23.0688H61.6421V23.7116H63.8849V23.0688Z" fill="white"/>
<path d="M60.5556 18.4963H48.2822V19.1391H60.5556V18.4963Z" fill="#F0F0F0"/>
<path d="M63.8849 18.4963H61.6421V19.1391H63.8849V18.4963Z" fill="#E0E0E0"/>
<path d="M47.43 18.4963H45.0156V19.1391H47.43V18.4963Z" fill="#E0E0E0"/>
<path d="M64.0505 15.429H58.2168V16.0717H64.0505V15.429Z" fill="#F0F0F0"/>
<path opacity="0.6" d="M57.0643 19.8462H48.2822V20.4889H57.0643V19.8462Z" fill="white"/>
<path d="M63.8591 19.8713H58.0254V20.5141H63.8591V19.8713Z" fill="#F0F0F0"/>
<path d="M52.6733 21.2437H48.2822V21.8864H52.6733V21.2437Z" fill="#E0E0E0"/>
<path d="M96.0724 20.9433L93.4727 22.1575L96.0724 23.3716V24.3506L92.5986 22.6658V21.6492L96.0724 19.9644V20.9433Z" fill="#E0E0E0"/>
<path d="M103.984 21.6492V22.6658L100.51 24.3506V23.3716L103.11 22.1575L100.51 20.9433V19.9644L103.984 21.6492Z" fill="#E0E0E0"/>
<path d="M98.899 19.2827L97.2051 25.137H98.052L99.746 19.2827H98.899Z" fill="#E0E0E0"/>
<path d="M8.96534 52.2824C8.64566 52.7694 8.43062 53.3041 8.31614 53.8556L7.4375 53.9384V55.6398L8.31614 55.7226C8.43062 56.2741 8.64566 56.8088 8.96534 57.2958L8.40422 57.9735L9.60734 59.1767L10.2851 58.6155C10.7721 58.9352 11.3068 59.1503 11.8583 59.2647L11.9411 60.1434H13.6425L13.7253 59.265C14.2768 59.1505 14.8117 58.9352 15.2987 58.6158L15.9765 59.1769L17.1796 57.9738L16.6185 57.296C16.9381 56.8091 17.1532 56.2743 17.2677 55.7228L18.1461 55.64V53.9387L17.2674 53.8559C17.1529 53.3043 16.9379 52.7696 16.6182 52.2827L17.1793 51.6049L15.9762 50.4018L15.2985 50.9629C14.8115 50.6432 14.2765 50.4279 13.7253 50.3135L13.6425 49.4348H11.9411L11.8583 50.3135C11.3068 50.4279 10.7721 50.643 10.2851 50.9627L9.60734 50.4015L8.40422 51.6047L8.96534 52.2824ZM14.7453 52.8356C15.8241 53.9144 15.8241 55.6638 14.7453 56.7426C13.6662 57.8216 11.9169 57.8214 10.8383 56.7426C9.75926 55.6635 9.7595 53.9144 10.8383 52.8356C11.9173 51.7568 13.6665 51.7566 14.7453 52.8356Z" fill="#E0E0E0"/>
<path d="M105.387 32.4763C105.121 32.8805 104.943 33.3245 104.848 33.7826L104.118 33.8513V35.2639L104.848 35.3325C104.943 35.7905 105.121 36.2345 105.387 36.6389L104.921 37.2017L105.92 38.2005L106.483 37.7347C106.887 38.0001 107.331 38.1787 107.789 38.2737L107.858 39.0034H109.27L109.339 38.274C109.797 38.1789 110.241 38.0004 110.645 37.7349L111.208 38.2008L112.207 37.2019L111.741 36.6391C112.006 36.2347 112.185 35.7907 112.28 35.3328L113.009 35.2641V33.8515L112.28 33.7829C112.185 33.3249 112.006 32.881 111.741 32.4768L112.207 31.914L111.208 30.9151L110.645 31.3809C110.241 31.1155 109.797 30.9369 109.339 30.8419L109.27 30.1125H107.858L107.789 30.8419C107.331 30.9369 106.887 31.1155 106.483 31.3809L105.92 30.9151L104.921 31.914L105.387 32.4763ZM110.185 32.9357C111.081 33.8313 111.081 35.2838 110.185 36.1795C109.289 37.0752 107.837 37.0752 106.942 36.1795C106.046 35.2838 106.046 33.8316 106.942 32.9357C107.837 32.04 109.29 32.0397 110.185 32.9357Z" fill="#E0E0E0"/>
<path d="M112.946 102.353H104.582V102.416H112.946V102.353Z" fill="#EBEBEB"/>
<path d="M82.9782 103.038H80.7832V103.101H82.9782V103.038Z" fill="#EBEBEB"/>
<path d="M104.329 100.008H99.4834V100.071H104.329V100.008Z" fill="#EBEBEB"/>
<path d="M23.4969 100.433H12.5903V100.496H23.4969V100.433Z" fill="#EBEBEB"/>
<path d="M27.3442 100.433H25.7451V100.496H27.3442V100.433Z" fill="#EBEBEB"/>
<path d="M56.1945 101.499H32.541V101.562H56.1945V101.499Z" fill="#EBEBEB"/>
<path d="M106.541 83.7947H63.1618C62.3861 83.7947 61.7549 83.1635 61.7549 82.3878V19.202C61.7549 18.4264 62.3861 17.7952 63.1618 17.7952H106.541C107.316 17.7952 107.948 18.4261 107.948 19.202V82.3876C107.948 83.1635 107.317 83.7947 106.541 83.7947ZM63.1618 17.8552C62.419 17.8552 61.8149 18.4595 61.8149 19.202V82.3876C61.8149 83.1304 62.4192 83.7345 63.1618 83.7345H106.541C107.284 83.7345 107.888 83.1301 107.888 82.3876V19.202C107.888 18.4595 107.283 17.8552 106.541 17.8552H63.1618Z" fill="#E0E0E0"/>
<path d="M56.5181 83.7947H13.1388C12.3631 83.7947 11.7319 83.1635 11.7319 82.3878V19.202C11.7319 18.4264 12.3629 17.7952 13.1388 17.7952H56.5181C57.2938 17.7952 57.925 18.4261 57.925 19.202V82.3876C57.925 83.1635 57.2938 83.7947 56.5181 83.7947ZM13.1388 17.8552C12.3963 17.8552 11.7919 18.4595 11.7919 19.202V82.3876C11.7919 83.1304 12.3963 83.7345 13.1388 83.7345H56.5181C57.2609 83.7345 57.865 83.1301 57.865 82.3876V19.202C57.865 18.4595 57.2607 17.8552 56.5181 17.8552H13.1388Z" fill="#E0E0E0"/>
<path d="M120 98.4512H0V98.5112H120V98.4512Z" fill="#E0E0E0"/>
<path d="M109.214 107.397C109.214 108.21 86.77 108.868 59.0841 108.868C31.3982 108.868 8.9541 108.209 8.9541 107.397C8.9541 106.584 31.3979 105.925 59.0841 105.925C86.7703 105.925 109.214 106.584 109.214 107.397Z" fill="#F5F5F5"/>
<path d="M28.3549 84.8497H22.2539C21.2843 84.8497 20.498 84.0637 20.498 83.0939V31.2284C20.498 30.0214 21.4765 29.043 22.6835 29.043H28.3549V84.8497Z" fill="#263238"/>
<path d="M51.7482 83.8862L49.252 96.6758H52.8743L55.7634 83.9935L51.7482 83.8862Z" fill="#263238"/>
<path d="M48.0404 96.5244H46.2065V98.3583H48.0404V96.5244Z" fill="#263238"/>
<path opacity="0.5" d="M28.3549 84.8497H22.2539C21.2843 84.8497 20.498 84.0637 20.498 83.0939V31.2284C20.498 30.0214 21.4765 29.043 22.6835 29.043H28.3549V84.8497Z" fill="white"/>
<path opacity="0.5" d="M51.7482 83.8862L49.252 96.6758H52.8743L55.7634 83.9935L51.7482 83.8862Z" fill="white"/>
<path opacity="0.5" d="M48.0404 96.5244H46.2065V98.3583H48.0404V96.5244Z" fill="white"/>
<path d="M74.4908 98.3585H51.2295L54.5348 78.9778H70.0143L74.4908 98.3585Z" fill="#263238"/>
<path opacity="0.7" d="M74.4908 98.3585H51.2295L54.5348 78.9778H70.0143L74.4908 98.3585Z" fill="white"/>
<path opacity="0.1" d="M71.3632 84.8496H53.5259L52.8745 88.668L71.8825 87.0979L71.3632 84.8496Z" fill="black"/>
<path d="M77.6788 96.5244H47.5278V98.3583H77.6788V96.5244Z" fill="#263238"/>
<g opacity="0.7">
<path d="M77.6788 96.5244H47.5278V98.3583H77.6788V96.5244Z" fill="white"/>
</g>
<path d="M24.2958 29.043H25.8942H98.1143H99.7129C100.779 29.043 101.643 29.9211 101.643 31.0042V82.8886C101.643 83.9718 100.779 84.8499 99.7129 84.8499H98.1143H25.8942H24.2958C23.23 84.8499 22.3657 83.9718 22.3657 82.8886V31.0042C22.3657 29.9211 23.2297 29.043 24.2958 29.043Z" fill="#263238"/>
<g opacity="0.7">
<path d="M24.2958 29.043H25.8942H98.1143H99.7129C100.779 29.043 101.643 29.9211 101.643 31.0042V82.8886C101.643 83.9718 100.779 84.8499 99.7129 84.8499H98.1143H25.8942H24.2958C23.23 84.8499 22.3657 83.9718 22.3657 82.8886V31.0042C22.3657 29.9211 23.2297 29.043 24.2958 29.043Z" fill="white"/>
</g>
<path d="M99.5348 30.9634H24.1323V80.9947H99.5348V30.9634Z" fill="#0E53BE"/>
<path opacity="0.9" d="M99.5348 30.9634H24.1323V80.9947H99.5348V30.9634Z" fill="white"/>
<path d="M99.5358 30.9634H24.1323V34.9793H99.5358V30.9634Z" fill="#0E53BE"/>
<path opacity="0.5" d="M98.5321 32.9714C98.5321 33.4427 98.15 33.8246 97.6789 33.8246C97.2075 33.8246 96.8257 33.4425 96.8257 32.9714C96.8257 32.5 97.2078 32.1182 97.6789 32.1182C98.1502 32.1182 98.5321 32.5 98.5321 32.9714Z" fill="white"/>
<path opacity="0.5" d="M96.1068 32.9714C96.1068 33.4427 95.7247 33.8246 95.2536 33.8246C94.7822 33.8246 94.4004 33.4425 94.4004 32.9714C94.4004 32.5 94.7825 32.1182 95.2536 32.1182C95.7247 32.1182 96.1068 32.5 96.1068 32.9714Z" fill="white"/>
<path opacity="0.5" d="M93.6815 32.9714C93.6815 33.4427 93.2994 33.8246 92.8283 33.8246C92.3569 33.8246 91.9751 33.4425 91.9751 32.9714C91.9751 32.5 92.3572 32.1182 92.8283 32.1182C93.2994 32.1182 93.6815 32.5 93.6815 32.9714Z" fill="white"/>
<path d="M38.1128 64.2769C37.8665 64.6518 37.7012 65.0634 37.6128 65.4882L36.9365 65.5518V66.8617L37.6131 66.9255C37.7012 67.3501 37.8668 67.7619 38.113 68.1368L37.681 68.6586L38.6072 69.5847L39.1289 69.1527C39.5038 69.3987 39.9156 69.5643 40.3402 69.6526L40.404 70.3292H41.714L41.7778 69.6529C42.2024 69.5646 42.6142 69.3992 42.9891 69.153L43.5108 69.585L44.437 68.6588L44.005 68.137C44.251 67.7622 44.4166 67.3506 44.5047 66.9258L45.181 66.8619V65.552L44.5047 65.4882C44.4166 65.0636 44.251 64.6518 44.0048 64.2771L44.4368 63.7554L43.5106 62.8292L42.9888 63.2612C42.614 63.015 42.2021 62.8494 41.7776 62.7613L41.7137 62.085H40.4038L40.34 62.7613C39.9154 62.8494 39.5036 63.015 39.1287 63.2612L38.6069 62.8292L37.6808 63.7554L38.1128 64.2769ZM42.264 65.0014C42.9296 65.667 42.9298 66.7465 42.264 67.412C41.5983 68.0778 40.519 68.0775 39.8532 67.412C39.1875 66.7462 39.1875 65.667 39.8532 65.0012C40.519 64.3357 41.5983 64.3357 42.264 65.0014Z" fill="#0E53BE"/>
<path opacity="0.4" d="M38.1128 64.2769C37.8665 64.6518 37.7012 65.0634 37.6128 65.4882L36.9365 65.5518V66.8617L37.6131 66.9255C37.7012 67.3501 37.8668 67.7619 38.113 68.1368L37.681 68.6586L38.6072 69.5847L39.1289 69.1527C39.5038 69.3987 39.9156 69.5643 40.3402 69.6526L40.404 70.3292H41.714L41.7778 69.6529C42.2024 69.5646 42.6142 69.3992 42.9891 69.153L43.5108 69.585L44.437 68.6588L44.005 68.137C44.251 67.7622 44.4166 67.3506 44.5047 66.9258L45.181 66.8619V65.552L44.5047 65.4882C44.4166 65.0636 44.251 64.6518 44.0048 64.2771L44.4368 63.7554L43.5106 62.8292L42.9888 63.2612C42.614 63.015 42.2021 62.8494 41.7776 62.7613L41.7137 62.085H40.4038L40.34 62.7613C39.9154 62.8494 39.5036 63.015 39.1287 63.2612L38.6069 62.8292L37.6808 63.7554L38.1128 64.2769ZM42.264 65.0014C42.9296 65.667 42.9298 66.7465 42.264 67.412C41.5983 68.0778 40.519 68.0775 39.8532 67.412C39.1875 66.7462 39.1875 65.667 39.8532 65.0012C40.519 64.3357 41.5983 64.3357 42.264 65.0014Z" fill="white"/>
<path d="M76.7808 48.2477C76.5528 48.595 76.3994 48.9763 76.3178 49.3697L75.6914 49.4287V50.6419L76.318 50.701C76.3996 51.0941 76.553 51.4757 76.781 51.8227L76.3809 52.3061L77.2389 53.1641L77.7223 52.764C78.0696 52.992 78.4509 53.1454 78.844 53.227L78.9031 53.8536H80.1163L80.1753 53.2272C80.5687 53.1456 80.95 52.9923 81.2973 52.7643L81.7807 53.1643L82.6387 52.3063L82.2386 51.823C82.4666 51.4757 82.62 51.0943 82.7016 50.7012L83.328 50.6422V49.429L82.7016 49.3699C82.62 48.9768 82.4666 48.5955 82.2386 48.2482L82.6387 47.7648L81.7807 46.9071L81.2973 47.3071C80.95 47.0791 80.5687 46.9258 80.1756 46.8442L80.1165 46.2178H78.9033L78.8443 46.8442C78.4509 46.9258 78.0696 47.0791 77.7225 47.3071L77.2392 46.9071L76.3812 47.7651L76.7808 48.2477ZM80.6258 48.9187C81.2424 49.5353 81.2424 50.5349 80.6258 51.1515C80.0092 51.768 79.0094 51.768 78.3928 51.1515C77.7763 50.5349 77.7763 49.5353 78.3928 48.9185C79.0096 48.3022 80.0092 48.3022 80.6258 48.9187Z" fill="#0E53BE"/>
<path opacity="0.4" d="M76.7808 48.2477C76.5528 48.595 76.3994 48.9763 76.3178 49.3697L75.6914 49.4287V50.6419L76.318 50.701C76.3996 51.0941 76.553 51.4757 76.781 51.8227L76.3809 52.3061L77.2389 53.1641L77.7223 52.764C78.0696 52.992 78.4509 53.1454 78.844 53.227L78.9031 53.8536H80.1163L80.1753 53.2272C80.5687 53.1456 80.95 52.9923 81.2973 52.7643L81.7807 53.1643L82.6387 52.3063L82.2386 51.823C82.4666 51.4757 82.62 51.0943 82.7016 50.7012L83.328 50.6422V49.429L82.7016 49.3699C82.62 48.9768 82.4666 48.5955 82.2386 48.2482L82.6387 47.7648L81.7807 46.9071L81.2973 47.3071C80.95 47.0791 80.5687 46.9258 80.1756 46.8442L80.1165 46.2178H78.9033L78.8443 46.8442C78.4509 46.9258 78.0696 47.0791 77.7225 47.3071L77.2392 46.9071L76.3812 47.7651L76.7808 48.2477ZM80.6258 48.9187C81.2424 49.5353 81.2424 50.5349 80.6258 51.1515C80.0092 51.768 79.0094 51.768 78.3928 51.1515C77.7763 50.5349 77.7763 49.5353 78.3928 48.9185C79.0096 48.3022 80.0092 48.3022 80.6258 48.9187Z" fill="white"/>
<path d="M75.2789 41.533C75.1315 41.7574 75.0324 42.0039 74.9796 42.2581L74.5747 42.2962V43.0803L74.9796 43.1185C75.0324 43.3726 75.1315 43.6191 75.2786 43.8435L75.0202 44.1557L75.5746 44.7101L75.8868 44.4517C76.1112 44.599 76.3577 44.6981 76.6118 44.7509L76.65 45.1558H77.4341L77.4722 44.7509C77.7264 44.6981 77.9729 44.599 78.1973 44.4517L78.5095 44.7101L79.0639 44.1557L78.8054 43.8435C78.9528 43.6191 79.0519 43.3726 79.1045 43.1185L79.5093 43.0803V42.2962L79.1045 42.2581C79.0517 42.0039 78.9526 41.7574 78.8052 41.533L79.0637 41.2208L78.5093 40.6664L78.197 40.9249C77.9726 40.7775 77.7261 40.6784 77.472 40.6256L77.4338 40.2207H76.6497L76.6116 40.6256C76.3574 40.6784 76.1109 40.7775 75.8868 40.9249L75.5746 40.6664L75.0202 41.2208L75.2789 41.533ZM77.7636 41.9667C78.162 42.3651 78.162 43.0112 77.7636 43.4096C77.3652 43.808 76.7191 43.808 76.3207 43.4096C75.9223 43.0112 75.9223 42.3651 76.3207 41.9667C76.7191 41.5683 77.3652 41.5683 77.7636 41.9667Z" fill="#0E53BE"/>
<path opacity="0.7" d="M75.2789 41.533C75.1315 41.7574 75.0324 42.0039 74.9796 42.2581L74.5747 42.2962V43.0803L74.9796 43.1185C75.0324 43.3726 75.1315 43.6191 75.2786 43.8435L75.0202 44.1557L75.5746 44.7101L75.8868 44.4517C76.1112 44.599 76.3577 44.6981 76.6118 44.7509L76.65 45.1558H77.4341L77.4722 44.7509C77.7264 44.6981 77.9729 44.599 78.1973 44.4517L78.5095 44.7101L79.0639 44.1557L78.8054 43.8435C78.9528 43.6191 79.0519 43.3726 79.1045 43.1185L79.5093 43.0803V42.2962L79.1045 42.2581C79.0517 42.0039 78.9526 41.7574 78.8052 41.533L79.0637 41.2208L78.5093 40.6664L78.197 40.9249C77.9726 40.7775 77.7261 40.6784 77.472 40.6256L77.4338 40.2207H76.6497L76.6116 40.6256C76.3574 40.6784 76.1109 40.7775 75.8868 40.9249L75.5746 40.6664L75.0202 41.2208L75.2789 41.533ZM77.7636 41.9667C78.162 42.3651 78.162 43.0112 77.7636 43.4096C77.3652 43.808 76.7191 43.808 76.3207 43.4096C75.9223 43.0112 75.9223 42.3651 76.3207 41.9667C76.7191 41.5683 77.3652 41.5683 77.7636 41.9667Z" fill="white"/>
<path d="M42.4815 72.1378C42.3341 72.3622 42.235 72.6086 42.1822 72.8628L41.7773 72.901V73.685L42.1822 73.7232C42.235 73.9774 42.3341 74.2238 42.4815 74.4482L42.223 74.7605L42.7774 75.3149L43.0897 75.0564C43.3141 75.2037 43.5605 75.3029 43.8147 75.3554L43.8529 75.7603H44.6369L44.6751 75.3554C44.9293 75.3026 45.1757 75.2035 45.4001 75.0562L45.7124 75.3146L46.2668 74.7602L46.0083 74.448C46.1557 74.2236 46.2548 73.9771 46.3073 73.7229L46.7122 73.6848V72.9007L46.3073 72.8626C46.2545 72.6084 46.1554 72.3619 46.0081 72.1375L46.2665 71.8253L45.7121 71.2709L45.3999 71.5294C45.1755 71.382 44.929 71.2829 44.6749 71.2301L44.6367 70.8252H43.8526L43.8145 71.2301C43.5603 71.2829 43.3138 71.382 43.0894 71.5291L42.7772 71.2706L42.2228 71.825L42.4815 72.1378ZM44.9662 72.5714C45.3646 72.9698 45.3646 73.6159 44.9662 74.0143C44.5678 74.4127 43.9217 74.4127 43.5233 74.0143C43.1249 73.6159 43.1249 72.9698 43.5233 72.5714C43.9217 72.1728 44.5676 72.1728 44.9662 72.5714Z" fill="#0E53BE"/>
<path opacity="0.7" d="M42.4815 72.1378C42.3341 72.3622 42.235 72.6086 42.1822 72.8628L41.7773 72.901V73.685L42.1822 73.7232C42.235 73.9774 42.3341 74.2238 42.4815 74.4482L42.223 74.7605L42.7774 75.3149L43.0897 75.0564C43.3141 75.2037 43.5605 75.3029 43.8147 75.3554L43.8529 75.7603H44.6369L44.6751 75.3554C44.9293 75.3026 45.1757 75.2035 45.4001 75.0562L45.7124 75.3146L46.2668 74.7602L46.0083 74.448C46.1557 74.2236 46.2548 73.9771 46.3073 73.7229L46.7122 73.6848V72.9007L46.3073 72.8626C46.2545 72.6084 46.1554 72.3619 46.0081 72.1375L46.2665 71.8253L45.7121 71.2709L45.3999 71.5294C45.1755 71.382 44.929 71.2829 44.6749 71.2301L44.6367 70.8252H43.8526L43.8145 71.2301C43.5603 71.2829 43.3138 71.382 43.0894 71.5291L42.7772 71.2706L42.2228 71.825L42.4815 72.1378ZM44.9662 72.5714C45.3646 72.9698 45.3646 73.6159 44.9662 74.0143C44.5678 74.4127 43.9217 74.4127 43.5233 74.0143C43.1249 73.6159 43.1249 72.9698 43.5233 72.5714C43.9217 72.1728 44.5676 72.1728 44.9662 72.5714Z" fill="white"/>
<path d="M47.8803 49.5087C46.8166 51.1284 46.1017 52.9073 45.7203 54.7426L42.7976 55.0176L42.7974 60.6776L45.7206 60.9531C46.1012 62.7876 46.8166 64.5668 47.8803 66.1868L46.0136 68.4416L50.0158 72.4438L52.2706 70.5771C53.8904 71.6405 55.6695 72.356 57.5043 72.7368L57.7796 75.6598L63.4395 75.6596L63.715 72.7373C65.5501 72.3562 67.329 71.6408 68.9487 70.5773L71.2035 72.444L75.2058 68.4418L73.339 66.187C74.4025 64.5672 75.1177 62.7881 75.4986 60.9533L78.421 60.6778L78.4215 55.0179L75.4988 54.7424C75.1179 52.9078 74.4022 51.1287 73.3388 49.5089L75.2055 47.2541L71.2033 43.2519L68.9485 45.1186C67.3285 44.0549 65.5494 43.3392 63.7148 42.9584L63.4393 40.0356L57.7794 40.0359L57.5041 42.9584C55.6693 43.3392 53.8902 44.0544 52.2706 45.1181L50.0158 43.2514L46.0134 47.2539L47.8803 49.5087ZM67.1082 51.349C70.6969 54.9377 70.6971 60.757 67.1082 64.346C63.519 67.9352 57.6997 67.9347 54.111 64.346C50.5218 60.7568 50.522 54.9382 54.1112 51.3488C57.7002 47.7603 63.519 47.7598 67.1082 51.349Z" fill="#0E53BE"/>
<path d="M57.9032 58.656H55.862L55.4727 59.598H54.4302L56.3898 55.2017H57.3947L59.3605 59.598H58.2927L57.9032 58.656ZM57.5828 57.8837L56.8856 56.2003L56.1884 57.8837H57.5828Z" fill="#0E53BE"/>
<path d="M62.7358 55.3963C63.0226 55.5261 63.2434 55.7105 63.3987 55.949C63.5535 56.1876 63.631 56.4703 63.631 56.7969C63.631 57.1195 63.5535 57.401 63.3987 57.6417C63.2436 57.8825 63.0228 58.0668 62.7358 58.1945C62.4492 58.3221 62.1108 58.386 61.7216 58.386H60.836V59.5982H59.8184V55.2019H61.7216C62.1111 55.2017 62.4492 55.2667 62.7358 55.3963ZM62.3624 57.3593C62.5215 57.2273 62.6009 57.0401 62.6009 56.7972C62.6009 56.5502 62.5215 56.3606 62.3624 56.2289C62.2032 56.0969 61.9707 56.0309 61.6654 56.0309H60.8362V57.557H61.6654C61.9707 57.557 62.2032 57.491 62.3624 57.3593Z" fill="#0E53BE"/>
<path d="M64.3535 55.2017H65.3709V59.598H64.3535V55.2017Z" fill="#0E53BE"/>
<path d="M52.2693 59.0122C52.2086 59.0122 52.1563 58.9662 52.1501 58.9045C51.8945 56.3958 52.6253 53.9943 54.2078 52.1422C54.2508 52.0916 54.3269 52.0858 54.377 52.129C54.4274 52.172 54.4334 52.2478 54.3902 52.2982C52.8509 54.0999 52.14 56.4375 52.3889 58.8802C52.3956 58.9462 52.3476 59.005 52.2816 59.0118C52.2775 59.012 52.2732 59.0122 52.2693 59.0122Z" fill="#0E53BE"/>
<path d="M52.6748 60.9081C52.6229 60.9081 52.5749 60.874 52.5596 60.8219C52.4614 60.4871 52.3808 60.1446 52.3198 59.8033C52.308 59.7383 52.3515 59.6759 52.4168 59.6641C52.4825 59.6529 52.5442 59.6961 52.556 59.7611C52.6155 60.0937 52.6942 60.4281 52.79 60.7542C52.8087 60.8178 52.7722 60.8845 52.7086 60.903C52.6971 60.9064 52.6858 60.9081 52.6748 60.9081Z" fill="#0E53BE"/>
<path d="M30.7988 45.311V57.3262H41.0588" stroke="#0E53BE" stroke-miterlimit="10" stroke-linecap="round" stroke-linejoin="round"/>
<path d="M30.7985 45.9261C31.1381 45.9261 31.4134 45.6508 31.4134 45.3112C31.4134 44.9716 31.1381 44.6963 30.7985 44.6963C30.4589 44.6963 30.1836 44.9716 30.1836 45.3112C30.1836 45.6508 30.4589 45.9261 30.7985 45.9261Z" fill="#0E53BE"/>
<path d="M93.4074 67.4368C93.7469 67.4368 94.0222 67.1615 94.0222 66.8219C94.0222 66.4823 93.7469 66.207 93.4074 66.207C93.0678 66.207 92.7925 66.4823 92.7925 66.8219C92.7925 67.1615 93.0678 67.4368 93.4074 67.4368Z" fill="#0E53BE"/>
<path d="M93.4072 66.7314V71.4957H78.3803V64.9182H76.1274" stroke="#0E53BE" stroke-miterlimit="10"/>
<path d="M112.532 73.293H86.3984V98.3586H112.532V73.293Z" fill="#0E53BE"/>
<path opacity="0.4" d="M112.532 73.293H86.3984V98.3586H112.532V73.293Z" fill="white"/>
<path opacity="0.4" d="M112.53 73.293H94.7168V98.3586H112.53V73.293Z" fill="white"/>
<path d="M111.639 74.5745H95.6074V77.6777H111.639V74.5745Z" fill="#0E53BE"/>
<path d="M111.639 78.4553H95.6074V81.5585H111.639V78.4553Z" fill="#0E53BE"/>
<path d="M111.639 82.3335H95.6074V85.4367H111.639V82.3335Z" fill="#0E53BE"/>
<path d="M111.639 86.2146H95.6074V89.3178H111.639V86.2146Z" fill="#0E53BE"/>
<path d="M111.639 90.0955H95.6074V93.1987H111.639V90.0955Z" fill="#0E53BE"/>
<path d="M111.639 93.9758H95.6074V97.079H111.639V93.9758Z" fill="#0E53BE"/>
<path d="M93.7856 74.5745H87.332V77.6777H93.7856V74.5745Z" fill="#0E53BE"/>
<path d="M93.7856 78.4553H87.332V81.5585H93.7856V78.4553Z" fill="#0E53BE"/>
<path d="M93.7856 82.3335H87.332V85.4367H93.7856V82.3335Z" fill="#0E53BE"/>
<path d="M93.7856 86.2146H87.332V89.3178H93.7856V86.2146Z" fill="#0E53BE"/>
<path d="M93.7856 90.0955H87.332V93.1987H93.7856V90.0955Z" fill="#0E53BE"/>
<path d="M93.7856 93.9758H87.332V97.079H93.7856V93.9758Z" fill="#0E53BE"/>
<path opacity="0.3" d="M110.854 74.9775H110.48V77.2743H110.854V74.9775Z" fill="white"/>
<path opacity="0.3" d="M110.135 74.9775H109.76V77.2743H110.135V74.9775Z" fill="white"/>
<path opacity="0.3" d="M109.414 74.9775H109.04V77.2743H109.414V74.9775Z" fill="white"/>
<path opacity="0.3" d="M108.694 74.9775H108.32V77.2743H108.694V74.9775Z" fill="white"/>
<path opacity="0.3" d="M107.974 74.9775H107.6V77.2743H107.974V74.9775Z" fill="white"/>
<path opacity="0.3" d="M110.854 78.8586H110.48V81.153H110.854V78.8586Z" fill="white"/>
<path opacity="0.3" d="M110.135 78.8586H109.76V81.153H110.135V78.8586Z" fill="white"/>
<path opacity="0.3" d="M109.414 78.8586H109.04V81.153H109.414V78.8586Z" fill="white"/>
<path opacity="0.3" d="M108.694 78.8586H108.32V81.153H108.694V78.8586Z" fill="white"/>
<path opacity="0.3" d="M107.974 78.8586H107.6V81.153H107.974V78.8586Z" fill="white"/>
<path opacity="0.3" d="M110.854 82.739H110.48V85.0334H110.854V82.739Z" fill="white"/>
<path opacity="0.3" d="M110.135 82.739H109.76V85.0334H110.135V82.739Z" fill="white"/>
<path opacity="0.3" d="M109.414 82.739H109.04V85.0334H109.414V82.739Z" fill="white"/>
<path opacity="0.3" d="M108.694 82.739H108.32V85.0334H108.694V82.739Z" fill="white"/>
<path opacity="0.3" d="M107.974 82.739H107.6V85.0334H107.974V82.739Z" fill="white"/>
<path opacity="0.3" d="M110.854 86.6201H110.48V88.9169H110.854V86.6201Z" fill="white"/>
<path opacity="0.3" d="M110.135 86.6201H109.76V88.9169H110.135V86.6201Z" fill="white"/>
<path opacity="0.3" d="M109.414 86.6201H109.04V88.9169H109.414V86.6201Z" fill="white"/>
<path opacity="0.3" d="M108.694 86.6201H108.32V88.9169H108.694V86.6201Z" fill="white"/>
<path opacity="0.3" d="M107.974 86.6201H107.6V88.9169H107.974V86.6201Z" fill="white"/>
<path opacity="0.3" d="M110.854 90.5007H110.48V92.7951H110.854V90.5007Z" fill="white"/>
<path opacity="0.3" d="M110.135 90.5007H109.76V92.7951H110.135V90.5007Z" fill="white"/>
<path opacity="0.3" d="M109.414 90.5007H109.04V92.7951H109.414V90.5007Z" fill="white"/>
<path opacity="0.3" d="M108.694 90.5007H108.32V92.7951H108.694V90.5007Z" fill="white"/>
<path opacity="0.3" d="M107.974 90.5007H107.6V92.7951H107.974V90.5007Z" fill="white"/>
<path opacity="0.3" d="M110.854 94.3792H110.48V96.676H110.854V94.3792Z" fill="white"/>
<path opacity="0.3" d="M110.135 94.3792H109.76V96.676H110.135V94.3792Z" fill="white"/>
<path opacity="0.3" d="M109.414 94.3792H109.04V96.676H109.414V94.3792Z" fill="white"/>
<path opacity="0.3" d="M108.694 94.3792H108.32V96.676H108.694V94.3792Z" fill="white"/>
<path opacity="0.3" d="M107.974 94.3792H107.6V96.676H107.974V94.3792Z" fill="white"/>
<path opacity="0.2" d="M97.4722 76.1248C97.4722 76.3355 97.3013 76.5064 97.0906 76.5064C96.8799 76.5064 96.709 76.3355 96.709 76.1248C96.709 75.914 96.8799 75.7432 97.0906 75.7432C97.3013 75.7432 97.4722 75.914 97.4722 76.1248Z" fill="white"/>
<path opacity="0.2" d="M99.8721 76.1248C99.8721 76.3355 99.7012 76.5064 99.4905 76.5064C99.2798 76.5064 99.1089 76.3355 99.1089 76.1248C99.1089 75.914 99.2798 75.7432 99.4905 75.7432C99.7012 75.7432 99.8721 75.914 99.8721 76.1248Z" fill="white"/>
<path opacity="0.4" d="M102.272 76.1248C102.272 76.3355 102.101 76.5064 101.89 76.5064C101.68 76.5064 101.509 76.3355 101.509 76.1248C101.509 75.914 101.68 75.7432 101.89 75.7432C102.101 75.7432 102.272 75.914 102.272 76.1248Z" fill="white"/>
<path opacity="0.4" d="M97.4722 80.0059C97.4722 80.2166 97.3013 80.3875 97.0906 80.3875C96.8799 80.3875 96.709 80.2166 96.709 80.0059C96.709 79.7951 96.8799 79.6243 97.0906 79.6243C97.3013 79.6243 97.4722 79.7949 97.4722 80.0059Z" fill="white"/>
<path opacity="0.2" d="M99.8721 80.0059C99.8721 80.2166 99.7012 80.3875 99.4905 80.3875C99.2798 80.3875 99.1089 80.2166 99.1089 80.0059C99.1089 79.7951 99.2798 79.6243 99.4905 79.6243C99.7012 79.6243 99.8721 79.7949 99.8721 80.0059Z" fill="white"/>
<path opacity="0.4" d="M102.272 80.0059C102.272 80.2166 102.101 80.3875 101.89 80.3875C101.68 80.3875 101.509 80.2166 101.509 80.0059C101.509 79.7951 101.68 79.6243 101.89 79.6243C102.101 79.6243 102.272 79.7949 102.272 80.0059Z" fill="white"/>
<path opacity="0.2" d="M97.4722 83.8862C97.4722 84.097 97.3013 84.2678 97.0906 84.2678C96.8799 84.2678 96.709 84.097 96.709 83.8862C96.709 83.6755 96.8799 83.5046 97.0906 83.5046C97.3013 83.5046 97.4722 83.6755 97.4722 83.8862Z" fill="white"/>
<path opacity="0.4" d="M99.8721 83.8862C99.8721 84.097 99.7012 84.2678 99.4905 84.2678C99.2798 84.2678 99.1089 84.097 99.1089 83.8862C99.1089 83.6755 99.2798 83.5046 99.4905 83.5046C99.7012 83.5046 99.8721 83.6755 99.8721 83.8862Z" fill="white"/>
<path opacity="0.2" d="M102.272 83.8862C102.272 84.097 102.101 84.2678 101.89 84.2678C101.68 84.2678 101.509 84.097 101.509 83.8862C101.509 83.6755 101.68 83.5046 101.89 83.5046C102.101 83.5046 102.272 83.6755 102.272 83.8862Z" fill="white"/>
<path opacity="0.4" d="M97.4722 87.7673C97.4722 87.9781 97.3013 88.1489 97.0906 88.1489C96.8799 88.1489 96.709 87.9781 96.709 87.7673C96.709 87.5566 96.8799 87.3857 97.0906 87.3857C97.3013 87.3857 97.4722 87.5564 97.4722 87.7673Z" fill="white"/>
<path opacity="0.2" d="M99.8721 87.7673C99.8721 87.9781 99.7012 88.1489 99.4905 88.1489C99.2798 88.1489 99.1089 87.9781 99.1089 87.7673C99.1089 87.5566 99.2798 87.3857 99.4905 87.3857C99.7012 87.3857 99.8721 87.5564 99.8721 87.7673Z" fill="white"/>
<path opacity="0.2" d="M102.272 87.7673C102.272 87.9781 102.101 88.1489 101.89 88.1489C101.68 88.1489 101.509 87.9781 101.509 87.7673C101.509 87.5566 101.68 87.3857 101.89 87.3857C102.101 87.3857 102.272 87.5564 102.272 87.7673Z" fill="white"/>
<path opacity="0.2" d="M97.4722 91.648C97.4722 91.8587 97.3013 92.0296 97.0906 92.0296C96.8799 92.0296 96.709 91.8587 96.709 91.648C96.709 91.4372 96.8799 91.2664 97.0906 91.2664C97.3013 91.2664 97.4722 91.4372 97.4722 91.648Z" fill="white"/>
<path opacity="0.4" d="M99.8721 91.648C99.8721 91.8587 99.7012 92.0296 99.4905 92.0296C99.2798 92.0296 99.1089 91.8587 99.1089 91.648C99.1089 91.4372 99.2798 91.2664 99.4905 91.2664C99.7012 91.2664 99.8721 91.4372 99.8721 91.648Z" fill="white"/>
<path opacity="0.4" d="M102.272 91.648C102.272 91.8587 102.101 92.0296 101.89 92.0296C101.68 92.0296 101.509 91.8587 101.509 91.648C101.509 91.4372 101.68 91.2664 101.89 91.2664C102.101 91.2664 102.272 91.4372 102.272 91.648Z" fill="white"/>
<path opacity="0.4" d="M97.4722 95.5288C97.4722 95.7395 97.3013 95.9104 97.0906 95.9104C96.8799 95.9104 96.709 95.7395 96.709 95.5288C96.709 95.3181 96.8799 95.1472 97.0906 95.1472C97.3013 95.1475 97.4722 95.3181 97.4722 95.5288Z" fill="white"/>
<path opacity="0.2" d="M99.8721 95.5288C99.8721 95.7395 99.7012 95.9104 99.4905 95.9104C99.2798 95.9104 99.1089 95.7395 99.1089 95.5288C99.1089 95.3181 99.2798 95.1472 99.4905 95.1472C99.7012 95.1475 99.8721 95.3181 99.8721 95.5288Z" fill="white"/>
<path opacity="0.4" d="M102.272 95.5288C102.272 95.7395 102.101 95.9104 101.89 95.9104C101.68 95.9104 101.509 95.7395 101.509 95.5288C101.509 95.3181 101.68 95.1472 101.89 95.1472C102.101 95.1475 102.272 95.3181 102.272 95.5288Z" fill="white"/>
<path opacity="0.3" d="M94.7168 73.293H86.3984V98.3586H94.7168V73.293Z" fill="black"/>
<path d="M110.436 64.4799H86.1466C85.4923 64.4799 84.9619 63.9495 84.9619 63.2953V43.2474C84.9619 42.5931 85.4923 42.0627 86.1466 42.0627H110.436C111.09 42.0627 111.621 42.5931 111.621 43.2474V63.2953C111.621 63.9495 111.09 64.4799 110.436 64.4799Z" fill="#0E53BE"/>
<path opacity="0.5" d="M110.436 64.4799H86.1466C85.4923 64.4799 84.9619 63.9495 84.9619 63.2953V43.2474C84.9619 42.5931 85.4923 42.0627 86.1466 42.0627H110.436C111.09 42.0627 111.621 42.5931 111.621 43.2474V63.2953C111.621 63.9495 111.09 64.4799 110.436 64.4799Z" fill="white"/>
<path d="M111.621 45.9716H84.9619V43.173C84.9619 42.5598 85.4592 42.0625 86.0724 42.0625H110.53C111.132 42.0625 111.621 42.5509 111.621 43.1535V45.9716H111.621Z" fill="#0E53BE"/>
<path opacity="0.5" d="M110.116 44.3022C110.116 44.7735 109.733 45.1556 109.262 45.1556C108.791 45.1556 108.409 44.7735 108.409 44.3022C108.409 43.8308 108.791 43.449 109.262 43.449C109.733 43.449 110.116 43.8308 110.116 44.3022Z" fill="white"/>
<path opacity="0.5" d="M107.69 44.3022C107.69 44.7735 107.308 45.1556 106.837 45.1556C106.366 45.1556 105.984 44.7735 105.984 44.3022C105.984 43.8308 106.366 43.449 106.837 43.449C107.308 43.449 107.69 43.8308 107.69 44.3022Z" fill="white"/>
<path opacity="0.5" d="M105.265 44.3022C105.265 44.7735 104.883 45.1556 104.412 45.1556C103.94 45.1556 103.559 44.7735 103.559 44.3022C103.559 43.8308 103.941 43.449 104.412 43.449C104.883 43.449 105.265 43.8308 105.265 44.3022Z" fill="white"/>
<path opacity="0.6" d="M104.635 49.2395H90.9614V50.0351H104.635V49.2395Z" fill="white"/>
<path opacity="0.6" d="M100.958 50.9609H91.1743V51.7565H100.958V50.9609Z" fill="#263238"/>
<path d="M108.33 49.2395H105.64V50.0351H108.33V49.2395Z" fill="#0E53BE"/>
<path d="M90.0122 49.2395H87.3223V50.0351H90.0122V49.2395Z" fill="#0E53BE"/>
<path d="M104.635 52.8733H90.9614V53.6689H104.635V52.8733Z" fill="#0E53BE"/>
<path opacity="0.6" d="M108.33 52.8733H105.64V53.6689H108.33V52.8733Z" fill="white"/>
<path d="M90.0122 52.8733H87.3223V53.6689H90.0122V52.8733Z" fill="#0E53BE"/>
<path d="M104.635 60.4495H90.9614V61.2451H104.635V60.4495Z" fill="#0E53BE"/>
<path opacity="0.6" d="M108.33 60.4495H105.64V61.2451H108.33V60.4495Z" fill="white"/>
<path d="M104.635 54.7893H90.9614V55.5849H104.635V54.7893Z" fill="#0E53BE"/>
<path opacity="0.6" d="M108.33 54.7893H105.64V55.5849H108.33V54.7893Z" fill="#263238"/>
<path opacity="0.6" d="M90.0122 54.7893H87.3223V55.5849H90.0122V54.7893Z" fill="#263238"/>
<path d="M108.528 50.9922H102.029V51.7878H108.528V50.9922Z" fill="#0E53BE"/>
<path opacity="0.6" d="M100.745 56.46H90.9614V57.2556H100.745V56.46Z" fill="white"/>
<path d="M108.316 56.4912H101.816V57.2868H108.316V56.4912Z" fill="#0E53BE"/>
<path opacity="0.6" d="M95.8533 58.1897H90.9614V58.9853H95.8533V58.1897Z" fill="#263238"/>
<path d="M38.1213 41.5341H13.8316C13.1774 41.5341 12.647 41.0037 12.647 40.3495V20.3018C12.647 19.6476 13.1774 19.1172 13.8316 19.1172H38.1211C38.7753 19.1172 39.3057 19.6476 39.3057 20.3018V40.3497C39.3059 41.004 38.7755 41.5341 38.1213 41.5341Z" fill="#0E53BE"/>
<path opacity="0.5" d="M38.1213 41.5341H13.8316C13.1774 41.5341 12.647 41.0037 12.647 40.3495V20.3018C12.647 19.6476 13.1774 19.1172 13.8316 19.1172H38.1211C38.7753 19.1172 39.3057 19.6476 39.3057 20.3018V40.3497C39.3059 41.004 38.7755 41.5341 38.1213 41.5341Z" fill="white"/>
<path d="M39.3059 23.0261H12.647V20.2277C12.647 19.6145 13.1443 19.1172 13.7575 19.1172H38.2149C38.8173 19.1172 39.3059 19.6056 39.3059 20.2082V23.0261Z" fill="#0E53BE"/>
<path opacity="0.5" d="M37.8006 21.3566C37.8006 21.828 37.4186 22.2098 36.9474 22.2098C36.4761 22.2098 36.0942 21.8277 36.0942 21.3566C36.0942 20.8853 36.4763 20.5034 36.9474 20.5034C37.4186 20.5034 37.8006 20.8853 37.8006 21.3566Z" fill="white"/>
<path opacity="0.5" d="M35.3753 21.3566C35.3753 21.828 34.9933 22.2098 34.5221 22.2098C34.0508 22.2098 33.6689 21.8277 33.6689 21.3566C33.6689 20.8853 34.051 20.5034 34.5221 20.5034C34.9933 20.5034 35.3753 20.8853 35.3753 21.3566Z" fill="white"/>
<path opacity="0.5" d="M32.9501 21.3566C32.9501 21.828 32.568 22.2098 32.0969 22.2098C31.6255 22.2098 31.2437 21.8277 31.2437 21.3566C31.2437 20.8853 31.6257 20.5034 32.0969 20.5034C32.5682 20.5034 32.9501 20.8853 32.9501 21.3566Z" fill="white"/>
<path d="M34.3787 31.6136C33.4933 30.4282 31.6823 29.8491 30.4751 30.7047C30.1777 29.0067 28.948 27.5024 27.3431 26.8736C25.738 26.2448 23.8139 26.5131 22.442 27.5573C21.0704 28.6013 20.2991 30.3848 20.4779 32.0993C19.3136 31.8341 18.0316 32.1144 17.2739 33.3188C16.2918 34.8804 17.5648 36.428 17.5648 36.428L24.4052 36.4671V33.96H23.5309C23.3759 33.96 23.2964 33.774 23.4037 33.662L24.4105 32.611L25.5757 31.3949C25.6451 31.3224 25.7608 31.3224 25.8301 31.3949L26.9953 32.611L28.0021 33.662C28.1094 33.774 28.03 33.96 27.8749 33.96H27.0006V36.482L34.2805 36.5237C35.3183 35.3314 35.2638 32.7992 34.3787 31.6136Z" fill="white"/>
<path d="M24.1242 99.0261C24.1242 99.0261 45.0333 94.1275 46.0278 98.4825C47.4474 104.699 32.3615 108.881 24.3261 108.625C16.2906 108.369 24.1242 99.0261 24.1242 99.0261Z" fill="#263238"/>
<path opacity="0.2" d="M24.1242 99.0261C24.1242 99.0261 45.0333 94.1275 46.0278 98.4825C47.4474 104.699 32.3615 108.881 24.3261 108.625C16.2906 108.369 24.1242 99.0261 24.1242 99.0261Z" fill="black"/>
<path opacity="0.7" d="M39.167 99.8262L29.3476 106.066L30.658 107.929C30.658 107.929 29.9678 108.952 28.6538 105.809L34.7289 101.793C34.7289 101.793 32.8274 101.603 32.8752 101.305C32.9558 100.817 37.1332 99.8884 39.0384 99.4701C39.1368 99.4345 39.2452 99.4854 39.2805 99.5838C39.3163 99.6825 39.2652 99.7909 39.167 99.8262Z" fill="black"/>
<path opacity="0.7" d="M28.9917 105.363L30.695 108.123C28.5945 108.49 26.4611 108.658 24.3261 108.625C23.6241 108.621 22.9291 108.495 22.2741 108.253L21.6758 107.159L22.9641 104.567L28.9917 105.363Z" fill="black"/>
<path d="M32.2425 104.266L27.875 107.036L28.6579 109.156L33.7857 106.851L32.2425 104.266Z" fill="#B97964"/>
<path d="M25.4712 107.746L25.8998 109.27C25.8998 109.27 26.2217 109.338 26.322 109.659C26.3784 109.839 26.2457 110.336 26.2457 110.336L27.3936 114.537C27.3996 114.535 27.6816 114.459 27.7934 114.379C27.9298 114.28 28.0404 114.179 28.129 114.077C28.439 113.719 28.4734 113.2 28.4849 112.815C28.5043 112.17 28.8746 110.287 28.8746 110.287C28.8746 110.287 29.016 109.797 29.5339 109.365C29.8229 109.124 29.9563 108.819 29.9294 108.631C29.875 108.247 29.599 108.102 29.2397 108.146L28.8223 108.196C28.524 107.974 28.4326 107.599 28.6214 107.237C28.6214 107.237 28.8682 106.322 28.4846 106.475C28.2658 106.563 27.3014 106.994 26.5296 107.311C26.3498 107.385 26.1794 107.454 26.0302 107.516V107.516C25.6987 107.652 25.4712 107.746 25.4712 107.746Z" fill="#263238"/>
<path d="M28.7135 111.291C28.7252 111.268 28.719 111.238 28.6993 111.22C28.6091 111.137 28.4979 111.078 28.3719 111.052C28.3057 111.038 28.2752 111.144 28.3424 111.158C28.4543 111.182 28.5524 111.234 28.6314 111.306C28.6578 111.33 28.6971 111.324 28.713 111.293C28.7132 111.292 28.7135 111.292 28.7135 111.291Z" fill="#0E53BE"/>
<path d="M28.7997 110.919C28.8115 110.896 28.8052 110.866 28.7855 110.848C28.6953 110.765 28.5842 110.706 28.4584 110.679C28.3922 110.666 28.3617 110.772 28.4287 110.786C28.5405 110.81 28.6387 110.862 28.7176 110.934C28.744 110.958 28.7834 110.952 28.7992 110.92L28.7997 110.919Z" fill="#0E53BE"/>
<path d="M28.8707 110.541C28.8824 110.517 28.8762 110.488 28.8565 110.47C28.7663 110.387 28.6552 110.327 28.5292 110.301C28.4629 110.287 28.4324 110.394 28.4996 110.408C28.6115 110.431 28.7096 110.483 28.7886 110.555C28.815 110.58 28.8544 110.574 28.8702 110.542C28.8704 110.542 28.8707 110.541 28.8707 110.541Z" fill="#0E53BE"/>
<path opacity="0.2" d="M26.0304 107.516V107.516C25.699 107.652 25.4712 107.746 25.4712 107.746L25.8998 109.271C25.8998 109.271 26.2217 109.339 26.322 109.659C26.3784 109.839 26.2457 110.336 26.2457 110.336L27.3936 114.537C27.3996 114.536 27.6816 114.46 27.7934 114.379C27.8561 114.334 27.9118 114.288 27.9641 114.242L26.1134 107.482C26.0863 107.493 26.0563 107.505 26.0304 107.516Z" fill="white"/>
<path d="M28.8115 110.515C28.9538 110.463 29.0969 110.41 29.2462 110.383C29.3954 110.356 29.5526 110.356 29.695 110.408C29.7612 110.432 29.8298 110.476 29.8442 110.545C29.8594 110.617 29.8073 110.688 29.747 110.731C29.6311 110.814 29.4782 110.834 29.3381 110.808C29.1984 110.781 28.9274 110.598 28.8115 110.515Z" stroke="#0E53BE" stroke-width="0.25" stroke-miterlimit="10"/>
<path d="M28.8067 110.498C28.9255 110.403 29.045 110.308 29.1456 110.195C29.2461 110.081 29.3275 109.947 29.3572 109.798C29.3712 109.729 29.3697 109.648 29.3184 109.6C29.2641 109.549 29.177 109.557 29.1088 109.586C28.9778 109.642 28.8811 109.762 28.8309 109.896C28.7808 110.029 28.7961 110.356 28.8067 110.498Z" stroke="#0E53BE" stroke-width="0.25" stroke-miterlimit="10"/>
<path d="M32.7629 85.7224C32.7629 85.7224 33.5266 92.5207 33.7306 92.8852C34.4206 94.1186 38.9924 96.2332 38.9924 96.2332L41.3233 95.745L42.9934 97.1399L41.8921 98.0025L40.5999 97.5143C39.8948 97.6401 39.1798 97.7027 38.4634 97.7015C37.2593 97.7015 31.4533 96.2299 30.4841 94.6111C29.515 92.9923 29.0698 85.4961 29.0698 85.4961L32.7629 85.7224Z" fill="#B97964"/>
<path d="M28.9711 88.3946C28.9711 88.3946 27.1797 82.4244 29.4117 80.7669C31.6435 79.1095 33.4185 87.318 33.4185 87.318L28.9711 88.3946Z" fill="#0E53BE"/>
<path opacity="0.3" d="M28.9711 88.3946C28.9711 88.3946 27.1797 82.4244 29.4117 80.7669C31.6435 79.1095 33.4185 87.318 33.4185 87.318L28.9711 88.3946Z" fill="white"/>
<path d="M30.3848 99.3146L30.3675 91.4016L30.1457 80.5051L25.5219 79.5526L21.4529 79.373L16.8231 81.4918L16.7151 84.1502C16.7151 84.1502 17.2445 96.3581 17.2148 96.726C17.1783 97.1772 15.8652 100.009 15.8652 100.009C21.7145 101.342 30.4769 99.7183 30.3848 99.3146Z" fill="#0E53BE"/>
<path opacity="0.3" d="M30.3848 99.3146L30.3675 91.4016L30.1457 80.5051L25.5219 79.5526L21.4529 79.373L16.8231 81.4918L16.7151 84.1502C16.7151 84.1502 17.2445 96.3581 17.2148 96.726C17.1783 97.1772 15.8652 100.009 15.8652 100.009C21.7145 101.342 30.4769 99.7183 30.3848 99.3146Z" fill="white"/>
<path d="M23.7598 81.127C23.7598 81.127 24.895 82.1379 25.476 80.8313L25.7787 81.067C25.7787 81.067 25.7494 82.0387 25.1986 82.3639C25.3323 82.9032 27.6367 90.7515 28.0491 94.7071L27.4191 96.3111L25.7455 94.9901C25.7455 94.9901 24.9331 88.2036 24.6552 82.4381C23.9851 82.2111 23.455 81.7085 23.209 81.067L23.7598 81.127Z" fill="#0E53BE"/>
<path opacity="0.2" d="M25.2241 81.2588L26.2081 82.0239L26.3689 79.7271L26.0564 79.6604L25.7965 81.2084L25.3288 80.9365L25.2241 81.2588Z" fill="black"/>
<path opacity="0.2" d="M20.4835 79.817C20.4669 79.8245 22.8002 82.6697 22.8002 82.6697L23.5922 82.0665L24.1368 81.6053L24.2781 81.4315L21.1898 79.2861C21.1898 79.2861 20.7758 79.7088 20.7331 79.7088C20.6904 79.709 20.4835 79.817 20.4835 79.817Z" fill="black"/>
<path d="M20.6494 79.7685L21.7779 78.761L24.8665 81.6525L24.0586 81.3664L22.8819 82.2708L20.6494 79.7685Z" fill="#0E53BE"/>
<path d="M24.8666 81.6526C24.7982 81.5221 25.1138 78.895 25.1138 78.895L26.208 79.6433C26.1499 79.6313 26.1118 81.8146 26.0762 81.8146C26.0407 81.8146 25.3512 81.0689 25.3512 81.0689L24.8666 81.6526Z" fill="#0E53BE"/>
<path opacity="0.2" d="M30.3018 88.0726L30.0625 82.9695L31.2039 87.8542L30.3018 88.0726Z" fill="black"/>
<path opacity="0.2" d="M20.4038 88.816C20.5478 88.788 21.277 88.5489 21.277 88.5489L19.6562 84.0403L21.8813 89.0282L20.5438 89.5605L20.4038 88.816Z" fill="black"/>
<path opacity="0.3" d="M20.6494 79.7685L21.7779 78.761L24.8665 81.6525L24.0586 81.3664L22.8819 82.2708L20.6494 79.7685Z" fill="white"/>
<path opacity="0.3" d="M24.8666 81.6526C24.7982 81.5221 25.1138 78.895 25.1138 78.895L26.208 79.6433C26.1499 79.6313 26.1118 81.8146 26.0762 81.8146C26.0407 81.8146 25.3512 81.0689 25.3512 81.0689L24.8666 81.6526Z" fill="white"/>
<path opacity="0.3" d="M26.6182 85.8725L27.1363 88.4184L28.6457 88.9654L29.6669 88.075L29.4802 85.6707L26.6182 85.8725Z" fill="white"/>
<path d="M25.0501 81.4314L24.5723 81.5481C24.5708 81.5476 24.554 81.5783 24.5656 81.5591C24.5723 81.5481 24.3042 82.4644 24.3042 82.4644C24.3815 82.5325 24.6383 82.9765 24.668 82.9693C24.6978 82.9621 25.3321 82.9031 25.3321 82.9031L25.5623 82.2313C25.5623 82.2313 25.0463 81.4259 25.0501 81.4314Z" fill="#0E53BE"/>
<path opacity="0.2" d="M25.0501 81.4314L24.5723 81.5481C24.5708 81.5476 24.554 81.5783 24.5656 81.5591C24.5723 81.5481 24.3042 82.4644 24.3042 82.4644C24.3815 82.5325 24.6383 82.9765 24.668 82.9693C24.6978 82.9621 25.3321 82.9031 25.3321 82.9031L25.5623 82.2313C25.5623 82.2313 25.0463 81.4259 25.0501 81.4314Z" fill="black"/>
<path d="M19.777 85.0769C19.777 85.0769 20.9112 92.6242 21.5664 93.3298C22.6736 94.5219 28.1576 97.6853 28.1576 97.6853L30.8948 96.7255C31.0865 96.6627 31.2987 96.697 31.4554 96.8167L33.3269 98.2452L33.1481 98.3959C33.0711 98.461 32.9592 98.4742 32.8683 98.4288L32.5774 98.2841L32.9026 98.6028L32.7996 98.6897C32.6972 98.7761 32.5551 98.8071 32.4236 98.7718L31.5867 98.5474L32.359 99.0615C32.1867 99.2067 31.9467 99.2573 31.7264 99.1944L30.5021 98.8455C29.6672 99.0365 28.8166 99.1584 27.9603 99.2095C26.5188 99.2983 19.7112 96.9197 18.4424 95.1783C17.1735 93.4368 15.8652 86.2056 15.8652 86.2056L19.777 85.0769Z" fill="#B97964"/>
<path d="M16.1548 90.0978C16.1548 90.0978 14.4585 83.2576 16.6902 81.6001C18.922 79.9427 21.1326 88.5961 21.1326 88.5961L16.1548 90.0978Z" fill="#0E53BE"/>
<path opacity="0.3" d="M16.1548 90.0978C16.1548 90.0978 14.4585 83.2576 16.6902 81.6001C18.922 79.9427 21.1326 88.5961 21.1326 88.5961L16.1548 90.0978Z" fill="white"/>
<path d="M30.762 72.4048C31.0452 72.3777 31.2886 72.1216 31.301 71.8372C31.3135 71.5528 31.0939 71.2764 30.8141 71.2243L29.4907 71.0916C29.5536 71.9412 29.6167 72.7905 29.6796 73.6401C29.9357 73.7061 30.2114 73.7196 30.4615 73.6336C30.7116 73.548 30.9317 73.3528 31.007 73.0994C31.0826 72.8462 30.9888 72.5407 30.762 72.4048Z" fill="#263238"/>
<path d="M25.7053 77.3042L22.8618 73.7263C22.8618 73.7263 22.8606 73.7292 22.8599 73.7388C22.8592 74.077 22.8486 74.4636 22.8208 74.8759C22.8196 74.8788 22.5155 74.7298 22.5143 74.7326C22.3926 76.5917 21.6575 79.763 21.6916 80.0374L24.6796 81.522L25.2241 80.9779L25.3288 79.7683C25.0283 79.0111 25.3115 78.1284 25.7053 77.3042Z" fill="#B97964"/>
<path opacity="0.2" d="M25.2796 78.5109L23.481 77.0894C23.4361 77.813 23.8144 78.9494 25.2565 79.5402C25.1711 79.1054 25.1997 78.797 25.2796 78.5109Z" fill="black"/>
<path d="M23.4687 71.9525C22.8803 74.3604 22.6585 75.5167 23.481 77.0897C24.7182 79.4558 27.74 79.476 29.0396 77.286C30.2094 75.3149 30.9755 71.7084 28.9431 70.0706C26.9411 68.4571 24.0575 69.5445 23.4687 71.9525Z" fill="#B97964"/>
<path d="M23.9773 68.6842C24.706 67.4828 26.6133 67.2881 27.3181 68.2364C27.4235 68.378 26.284 68.4123 26.4143 68.4061L25.7464 70.3028C25.6158 70.2282 25.2897 70.3064 25.012 70.6976C25.012 70.6976 24.5824 73.3071 23.2302 74.0369C21.9025 72.205 22.0542 68.6878 23.9773 68.6842Z" fill="#263238"/>
<path d="M21.9243 73.6324C21.9243 74.2993 22.2344 74.9017 22.6309 75.2802C23.2273 75.8493 23.9194 75.4093 24.0836 74.644C24.2314 73.9552 24.0994 72.8293 23.3422 72.55C22.5961 72.2749 21.9243 72.8699 21.9243 73.6324Z" fill="#B97964"/>
<path d="M26.7293 73.9699C26.6542 74.2118 26.7221 74.4463 26.8808 74.4938C27.0394 74.5414 27.229 74.3842 27.3041 74.1422C27.3793 73.9006 27.3113 73.6658 27.1527 73.6183C26.9941 73.5708 26.8045 73.7282 26.7293 73.9699Z" fill="#263238"/>
<path d="M29.1009 74.7407C29.0258 74.9824 29.0937 75.2171 29.2524 75.2646C29.4112 75.3121 29.6006 75.1547 29.676 74.913C29.7511 74.6711 29.6832 74.4366 29.5245 74.3891C29.3656 74.3416 29.176 74.499 29.1009 74.7407Z" fill="#263238"/>
<path d="M28.2656 74.0945C28.2656 74.0945 28.5661 75.1963 28.7036 75.8506C28.7365 76.007 28.6196 76.1597 28.4598 76.1642C28.1113 76.1736 27.7842 75.9785 27.7842 75.9785L28.2656 74.0945Z" fill="#A24E3F"/>
<path d="M26.4767 72.5196C26.5087 72.5458 26.5535 72.5549 26.5953 72.539C27.0919 72.3518 27.4487 72.6031 27.4523 72.6055C27.5054 72.6437 27.5798 72.6322 27.6187 72.5796C27.6573 72.527 27.6455 72.4531 27.593 72.415C27.5743 72.4013 27.1271 72.0862 26.5111 72.3187C26.4496 72.342 26.4187 72.4099 26.4417 72.4709C26.4494 72.4906 26.4616 72.5069 26.4767 72.5196Z" fill="#263238"/>
<path d="M30.3591 73.6407C30.3814 73.6373 30.403 73.6277 30.421 73.6114C30.47 73.5677 30.4748 73.4926 30.4316 73.4436C29.9982 72.9545 29.4596 73.0363 29.4351 73.0371C29.3706 73.0474 29.3257 73.1079 29.3353 73.1727C29.3446 73.2372 29.4042 73.2814 29.4685 73.2718C29.4908 73.2675 29.9065 73.2096 30.2545 73.6023C30.2814 73.6332 30.3212 73.6462 30.3591 73.6407Z" fill="#263238"/>
<path d="M26.5302 76.471C26.6127 76.5384 26.7013 76.5984 26.7946 76.65C26.8249 76.6661 26.8623 76.6582 26.8832 76.6308C26.8969 76.5982 26.8842 76.5607 26.8537 76.543C26.3706 76.2835 26.0403 75.8086 25.965 75.2652C25.9611 75.2314 25.9318 75.2064 25.8978 75.2074C25.8668 75.2057 25.8404 75.2294 25.839 75.2604C25.8387 75.2652 25.839 75.2698 25.8399 75.2746C25.8968 75.7512 26.1462 76.1834 26.5302 76.471Z" fill="#263238"/>
<path d="M31.9559 70.609C31.7939 70.128 31.2212 69.9262 30.7148 69.8899C31.0323 69.8839 31.2822 69.5616 31.2829 69.2441C31.2836 68.9266 31.0868 68.6352 30.8372 68.4389C30.3911 68.0885 29.7546 67.9975 29.2283 68.209C29.3279 68.1607 29.3636 68.028 29.3317 67.9219C29.2998 67.8159 29.2163 67.7335 29.1284 67.6663C28.5925 67.2569 27.7626 67.2979 27.2694 67.758C27.0973 67.1753 26.4224 66.7942 25.8344 66.9473C25.2611 67.0968 24.1806 67.2118 24.0135 68.6794C23.5273 68.3338 22.773 68.4072 22.3885 68.8716C21.9728 69.3735 22.0806 70.2199 22.6088 70.6015C22.3467 70.4911 22.0211 70.6613 21.9131 70.9246C21.8053 71.1876 21.8888 71.5027 22.0717 71.7204C22.2546 71.9381 22.5219 72.0701 22.7953 72.1479C23.0528 72.2213 23.3315 72.2513 23.5873 72.1719C23.8431 72.0924 24.0707 71.8875 24.1218 71.6244C24.165 71.9002 24.4547 72.1047 24.7321 72.0754C25.0098 72.0461 25.2435 71.8056 25.2891 71.5303C25.3345 71.2551 25.2032 70.9644 24.981 70.7955C25.2968 71.1015 25.9076 70.981 26.0838 70.578C26.3178 71.0273 26.6516 71.4514 27.1167 71.652C27.5819 71.8527 28.1948 71.7679 28.4924 71.358C28.6436 71.5342 28.7977 71.7127 28.9933 71.8378C29.1889 71.9628 29.4354 72.0283 29.6564 71.9575C29.8775 71.8867 30.0512 71.653 30.0044 71.4257C30.3699 71.7305 30.8845 71.8887 31.3345 71.7343C31.7843 71.5803 32.1078 71.0599 31.9559 70.609Z" fill="#263238"/>
<path d="M34.4228 98.792H30.213H25.7456C25.7456 98.793 25.7456 98.7939 25.7456 98.7949C25.7478 99.1261 26.1178 99.3934 26.5719 99.392H31.0352H33.5886C33.5924 99.392 33.5965 99.392 33.6003 99.392H33.601H40.7065C41.157 99.3889 41.5194 99.1208 41.5172 98.792H34.4228Z" fill="#263238"/>
<path d="M40.8365 99.3581H32.9093C32.7725 99.3571 32.6626 99.2674 32.6636 99.1577C32.6638 99.137 32.6679 99.1166 32.6761 99.097L36.2024 91.0123C36.2914 90.7814 36.5569 90.6235 36.8581 90.6226H44.7901C44.9242 90.6226 45.0329 90.7099 45.0329 90.8177C45.0329 90.8402 45.0279 90.8626 45.0185 90.8839L41.4922 98.9686C41.402 99.1985 41.1373 99.3557 40.8365 99.3581Z" fill="#263238"/>
<path opacity="0.7" d="M44.7906 90.6223H36.8586C36.5574 90.6235 36.2919 90.7812 36.2029 91.0121L32.8095 98.7919H30.213H25.7456C25.7456 98.7929 25.7456 98.7938 25.7456 98.7948C25.7478 99.126 26.1178 99.3934 26.5719 99.3919H31.0352H33.5886C33.5924 99.3919 33.5965 99.3919 33.6003 99.3919H33.601H40.7065C40.8493 99.391 40.9813 99.361 41.0977 99.3132C41.282 99.251 41.4296 99.1279 41.4922 98.9683L45.0186 90.8837C45.0282 90.8623 45.033 90.84 45.033 90.8174C45.0332 90.7097 44.9247 90.6223 44.7906 90.6223Z" fill="white"/>
<path d="M40.0268 94.9266C39.8555 95.3147 39.5082 95.5811 39.2495 95.5268C38.9905 95.4726 38.9216 95.1191 39.0877 94.73C39.254 94.341 39.6051 94.0806 39.8641 94.1348C40.1231 94.1891 40.2003 94.5284 40.0268 94.9266Z" fill="white"/>
<g opacity="0.3">
<path d="M36.2029 91.0121L32.8096 98.7919H33.177L36.8586 90.6223C36.5577 90.6235 36.2922 90.7812 36.2029 91.0121Z" fill="black"/>
</g>
<path d="M36.6123 107.759L41.7183 108.581L42.5377 106.475L37.1708 104.801L36.6123 107.759Z" fill="#B97964"/>
<path d="M43.9885 109.643L44.6783 108.218C44.6783 108.218 44.4822 107.954 44.62 107.647C44.6973 107.475 45.1259 107.191 45.1259 107.191L47.0517 103.285C47.0459 103.282 46.7843 103.152 46.647 103.138C46.4797 103.121 46.3302 103.124 46.1958 103.141C45.7261 103.204 45.3563 103.57 45.0925 103.851C44.6507 104.32 43.125 105.484 43.125 105.484C43.125 105.484 42.694 105.758 42.0196 105.738C41.6435 105.727 41.3418 105.866 41.2372 106.025C41.0231 106.349 41.1342 106.64 41.4318 106.846L41.7779 107.084C41.8537 107.448 41.6735 107.79 41.2921 107.936C41.2921 107.936 40.5006 108.458 40.8899 108.597C41.1121 108.676 42.1192 108.993 42.9071 109.268C43.0909 109.331 43.2645 109.392 43.4169 109.445L43.4171 109.445C43.7557 109.563 43.9885 109.643 43.9885 109.643Z" fill="#263238"/>
<path d="M43.9113 104.839C43.8869 104.849 43.872 104.875 43.8749 104.902C43.8876 105.024 43.9313 105.142 44.0081 105.245C44.0486 105.3 44.1417 105.24 44.1009 105.185C44.0328 105.093 43.9937 104.989 43.9824 104.883C43.9785 104.847 43.9452 104.826 43.9123 104.839L43.9113 104.839Z" fill="#0E53BE"/>
<path d="M43.6008 105.061C43.5763 105.071 43.5614 105.097 43.5643 105.123C43.577 105.245 43.6207 105.364 43.6975 105.467C43.7381 105.521 43.8312 105.461 43.7904 105.406C43.7222 105.315 43.6831 105.211 43.6718 105.104C43.668 105.069 43.6346 105.047 43.6018 105.06C43.6018 105.06 43.6013 105.061 43.6008 105.061Z" fill="#0E53BE"/>
<path d="M43.2966 105.297C43.2721 105.307 43.2572 105.333 43.2601 105.36C43.2728 105.482 43.3165 105.6 43.3933 105.703C43.4339 105.757 43.5272 105.698 43.4862 105.643C43.418 105.551 43.3789 105.447 43.3676 105.341C43.3638 105.305 43.3304 105.283 43.2976 105.297L43.2966 105.297Z" fill="#0E53BE"/>
<path opacity="0.2" d="M44.6199 107.647C44.6972 107.475 45.1258 107.191 45.1258 107.191L47.0516 103.284C47.0458 103.282 46.7842 103.152 46.6469 103.138C46.5701 103.13 46.4979 103.128 46.4283 103.128L43.332 109.415C43.3599 109.425 43.3904 109.436 43.417 109.445L43.4172 109.445C43.7556 109.563 43.9882 109.644 43.9882 109.644L44.678 108.218C44.6784 108.218 44.4824 107.954 44.6199 107.647Z" fill="white"/>
<path d="M43.3239 105.355C43.1825 105.3 43.0405 105.245 42.9109 105.166C42.7813 105.088 42.6639 104.983 42.5916 104.85C42.558 104.788 42.5352 104.71 42.5703 104.649C42.607 104.584 42.6927 104.566 42.7664 104.574C42.9082 104.589 43.0361 104.675 43.1232 104.788C43.2104 104.9 43.292 105.216 43.3239 105.355Z" stroke="#0E53BE" stroke-width="0.25" stroke-miterlimit="10"/>
<path d="M43.3157 105.372C43.1643 105.364 43.0119 105.355 42.8614 105.374C42.7109 105.392 42.5607 105.439 42.4399 105.53C42.3838 105.573 42.331 105.635 42.3375 105.705C42.3444 105.779 42.415 105.831 42.4853 105.854C42.6207 105.899 42.7726 105.873 42.8986 105.807C43.0246 105.74 43.2293 105.485 43.3157 105.372Z" stroke="#0E53BE" stroke-width="0.25" stroke-miterlimit="10"/>
<path d="M17.4252 105.431C16.3239 103.677 13.8351 98.9244 18.8861 97.9985C23.9371 97.0726 40.813 105.092 40.813 105.092L39.7435 108.313L24.0363 105.837C24.0363 105.837 26.1855 108.706 23.5788 108.575C19.7868 108.2 18.8765 107.293 17.4252 105.431Z" fill="#263238"/>
<path opacity="0.7" d="M24.4088 105.923L20.0996 104.568C20.0996 104.568 23.7147 106.779 25.0407 107.042L24.4088 105.923Z" fill="black"/>
<path d="M8.40024 65.0022H17.1833C17.9772 65.0022 18.6209 65.6459 18.6209 66.4398V71.1817C18.6209 71.9756 17.9772 72.6193 17.1833 72.6193H15.0821L15.0665 74.0538L13.4844 72.6193H8.4C7.60608 72.6193 6.9624 71.9756 6.9624 71.1817V66.4398C6.9624 65.6459 7.60608 65.0022 8.40024 65.0022Z" fill="#0E53BE"/>
<path d="M11.7103 68.0616L10.3255 68.7084L11.7103 69.3549V69.8764L9.85986 68.9791V68.4376L11.7103 67.54V68.0616Z" fill="white"/>
<path d="M15.9249 68.4376V68.9791L14.0742 69.8764V69.3549L15.459 68.7084L14.0742 68.0616V67.54L15.9249 68.4376Z" fill="white"/>
<path d="M13.2159 67.177L12.3135 70.2956H12.7647L13.6668 67.177H13.2159Z" fill="white"/>
<path d="M15.1562 64.6783H10.645C10.6118 64.6783 10.585 64.6515 10.585 64.6183C10.585 64.5852 10.6118 64.5583 10.645 64.5583H15.156C15.1891 64.5583 15.216 64.5852 15.216 64.6183C15.2162 64.6515 15.1894 64.6783 15.1562 64.6783Z" fill="#0E53BE"/>
<path d="M16.4007 64.6803H15.6889C15.6558 64.6803 15.6289 64.6534 15.6289 64.6203C15.6289 64.5872 15.6558 64.5603 15.6889 64.5603H16.4007C16.4339 64.5603 16.4607 64.5872 16.4607 64.6203C16.4607 64.6534 16.4339 64.6803 16.4007 64.6803Z" fill="#0E53BE"/>
</svg>
