<svg width="120" height="120" viewBox="0 0 120 120" fill="none" xmlns="http://www.w3.org/2000/svg">
<path d="M59.7719 115.353C91.1302 115.353 116.551 100.677 116.551 82.5719C116.551 64.4671 91.1302 49.7903 59.7719 49.7903C28.4136 49.7903 2.99268 64.4671 2.99268 82.5719C2.99268 100.677 28.4136 115.353 59.7719 115.353Z" fill="#F0F0F0"/>
<path d="M92.3185 102.816C96.9723 102.816 100.745 100.638 100.745 97.9512C100.745 95.2645 96.9723 93.0864 92.3185 93.0864C87.6647 93.0864 83.8921 95.2645 83.8921 97.9512C83.8921 100.638 87.6647 102.816 92.3185 102.816Z" fill="#E0E0E0"/>
<path d="M15.84 92.532L6.4128 87.0912C6.0792 86.8992 6.0792 86.5872 6.4128 86.3952L58.3536 56.4C58.5398 56.3065 58.7452 56.2578 58.9536 56.2578C59.1619 56.2578 59.3674 56.3065 59.5536 56.4L68.9784 61.8408C69.3096 62.0328 69.3096 62.3448 68.9784 62.5368L17.04 92.532C16.8539 92.6259 16.6484 92.6748 16.44 92.6748C16.2316 92.6748 16.0261 92.6259 15.84 92.532Z" fill="#E0E0E0"/>
<path d="M48.5254 84.012L56.1142 79.6248C56.8966 79.1712 57.2878 78.5808 57.2878 77.988C57.2878 77.3952 57.2878 76.932 57.2878 76.932L48.1606 71.76C47.9409 71.6159 47.7581 71.4223 47.6268 71.1947C47.4955 70.9671 47.4194 70.7119 47.4046 70.4496V61.0896L34.1494 68.748V78.108C34.1645 78.3699 34.2408 78.6246 34.3721 78.8518C34.5034 79.0789 34.686 79.2721 34.9054 79.416L42.8614 84.0096C44.4262 84.9144 46.963 84.9144 48.5254 84.012Z" fill="#0E53BE"/>
<g opacity="0.5">
<path d="M48.5254 84.012L56.1142 79.6248C56.8966 79.1712 57.2878 78.5808 57.2878 77.988C57.2878 77.3952 57.2878 76.932 57.2878 76.932L48.1606 71.76C47.9409 71.6159 47.7581 71.4223 47.6268 71.1947C47.4955 70.9671 47.4194 70.7119 47.4046 70.4496V61.0896L34.1494 68.748V78.108C34.1645 78.3699 34.2408 78.6246 34.3721 78.8518C34.5034 79.0789 34.686 79.2721 34.9054 79.416L42.8614 84.0096C44.4262 84.9144 46.963 84.9144 48.5254 84.012Z" fill="black"/>
</g>
<path d="M37.3318 79.7665V80.8177L34.903 79.4185C34.6833 79.2744 34.5004 79.0808 34.3691 78.8532C34.2378 78.6256 34.1617 78.3704 34.147 78.1081V68.7481L36.6742 67.2913C36.7246 67.9321 36.7822 68.5945 36.835 69.2401L35.0638 70.2649V77.5753C35.0773 77.8373 35.1527 78.0924 35.2836 78.3197C35.4146 78.547 35.5975 78.7401 35.8174 78.8833L37.3318 79.7665Z" fill="#0E53BE"/>
<path opacity="0.7" d="M37.3318 79.7665V80.8177L34.903 79.4185C34.6833 79.2744 34.5004 79.0808 34.3691 78.8532C34.2378 78.6256 34.1617 78.3704 34.147 78.1081V68.7481L36.6742 67.2913C36.7246 67.9321 36.7822 68.5945 36.835 69.2401L35.0638 70.2649V77.5753C35.0773 77.8373 35.1527 78.0924 35.2836 78.3197C35.4146 78.547 35.5975 78.7401 35.8174 78.8833L37.3318 79.7665Z" fill="black"/>
<path d="M35.064 77.5823C35.078 77.8445 35.1538 78.0996 35.2851 78.327C35.4165 78.5543 35.5998 78.7473 35.82 78.8903L42.8592 82.9559C44.424 83.8607 46.9608 83.8607 48.5256 82.9559L56.1192 78.5687C57.684 77.6663 57.684 76.2023 56.1192 75.2999L49.0752 71.2319C48.855 71.0889 48.6717 70.8959 48.5403 70.6686C48.4089 70.4413 48.3332 70.1861 48.3192 69.9239V62.6135L35.064 70.2719V77.5823Z" fill="#0E53BE"/>
<path opacity="0.3" d="M35.064 77.5823C35.078 77.8445 35.1538 78.0996 35.2851 78.327C35.4165 78.5543 35.5998 78.7473 35.82 78.8903L42.8592 82.9559C44.424 83.8607 46.9608 83.8607 48.5256 82.9559L56.1192 78.5687C57.684 77.6663 57.684 76.2023 56.1192 75.2999L49.0752 71.2319C48.855 71.0889 48.6717 70.8959 48.5403 70.6686C48.4089 70.4413 48.3332 70.1861 48.3192 69.9239V62.6135L35.064 70.2719V77.5823Z" fill="black"/>
<path opacity="0.7" d="M50.6136 72.1223L49.0752 71.2343C48.855 71.0913 48.6717 70.8983 48.5403 70.671C48.409 70.4437 48.3332 70.1885 48.3192 69.9263V62.6135L35.064 70.2719V77.5823C35.078 77.8445 35.1538 78.0996 35.2851 78.327C35.4165 78.5543 35.5998 78.7473 35.82 78.8903L37.332 79.7639L50.6136 72.1223Z" fill="#0E53BE"/>
<path opacity="0.6" d="M50.6136 72.1223L49.0752 71.2343C48.855 71.0913 48.6717 70.8983 48.5403 70.671C48.409 70.4437 48.3332 70.1885 48.3192 69.9263V62.6135L35.064 70.2719V77.5823C35.078 77.8445 35.1538 78.0996 35.2851 78.327C35.4165 78.5543 35.5998 78.7473 35.82 78.8903L37.332 79.7639L50.6136 72.1223Z" fill="black"/>
<path d="M57.2904 76.9343V77.9999C57.2904 78.5927 56.8968 79.1807 56.1168 79.6343L48.528 83.9999C47.6964 84.4454 46.7667 84.6764 45.8232 84.6719V83.6207C46.7667 83.6252 47.6964 83.3942 48.528 82.9487L56.1168 78.5591C56.8968 78.1199 57.2904 77.5199 57.2904 76.9343Z" fill="#0E53BE"/>
<path opacity="0.2" d="M57.2904 76.9343V77.9999C57.2904 78.5927 56.8968 79.1807 56.1168 79.6343L48.528 83.9999C47.6964 84.4454 46.7667 84.6764 45.8232 84.6719V83.6207C46.7667 83.6252 47.6964 83.3942 48.528 82.9487L56.1168 78.5591C56.8968 78.1199 57.2904 77.5199 57.2904 76.9343Z" fill="black"/>
<path d="M13.7807 87.6768C14.0671 87.8152 14.3822 87.8843 14.7003 87.8785C15.0184 87.8726 15.3307 87.792 15.6119 87.6432L66.8711 58.0488C67.1456 57.869 67.374 57.6272 67.5378 57.3428C67.7017 57.0585 67.7964 56.7396 67.8143 56.412V11.5464C67.8031 11.2286 67.7171 10.918 67.5632 10.6399C67.4093 10.3617 67.1919 10.1238 66.9287 9.94556C66.6428 9.80658 66.3281 9.73718 66.0102 9.74302C65.6924 9.74886 65.3805 9.82977 65.0999 9.97916L13.8407 39.5736C13.5659 39.7525 13.3373 39.9938 13.1734 40.2778C13.0095 40.5618 12.915 40.8805 12.8975 41.208V86.088C12.9113 86.4032 12.9983 86.7108 13.1516 86.9866C13.3049 87.2623 13.5202 87.4986 13.7807 87.6768Z" fill="#0E53BE"/>
<path opacity="0.3" d="M13.7807 87.6768C14.0671 87.8152 14.3822 87.8843 14.7003 87.8785C15.0184 87.8726 15.3307 87.792 15.6119 87.6432L66.8711 58.0488C67.1456 57.869 67.374 57.6272 67.5378 57.3428C67.7017 57.0585 67.7964 56.7396 67.8143 56.412V11.5464C67.8031 11.2286 67.7171 10.918 67.5632 10.6399C67.4093 10.3617 67.1919 10.1238 66.9287 9.94556C66.6428 9.80658 66.3281 9.73718 66.0102 9.74302C65.6924 9.74886 65.3805 9.82977 65.0999 9.97916L13.8407 39.5736C13.5659 39.7525 13.3373 39.9938 13.1734 40.2778C13.0095 40.5618 12.915 40.8805 12.8975 41.208V86.088C12.9113 86.4032 12.9983 86.7108 13.1516 86.9866C13.3049 87.2623 13.5202 87.4986 13.7807 87.6768Z" fill="black"/>
<path d="M15.6117 87.6408L66.8709 58.0464C67.1459 57.8676 67.3749 57.6263 67.5392 57.3423C67.7035 57.0584 67.7985 56.7396 67.8165 56.412V11.544C67.8165 10.9416 67.3917 10.6992 66.8709 10.9992L15.6117 40.5936C15.3359 40.7743 15.1067 41.0177 14.9427 41.3038C14.7788 41.5899 14.6849 41.9107 14.6685 42.24V87.096C14.6685 87.6984 15.0909 87.9432 15.6117 87.6408Z" fill="#0E53BE"/>
<path d="M15.6117 87.6408L66.8709 58.0464C67.1459 57.8676 67.3749 57.6263 67.5392 57.3423C67.7035 57.0584 67.7985 56.7396 67.8165 56.412V11.544C67.8165 10.9416 67.3917 10.6992 66.8709 10.9992L15.6117 40.5936C15.3359 40.7743 15.1067 41.0177 14.9427 41.3038C14.7788 41.5899 14.6849 41.9107 14.6685 42.24V87.096C14.6685 87.6984 15.0909 87.9432 15.6117 87.6408Z" fill="#0E53BE"/>
<path opacity="0.5" d="M15.6117 87.6408L66.8709 58.0464C67.1459 57.8676 67.3749 57.6263 67.5392 57.3423C67.7035 57.0584 67.7985 56.7396 67.8165 56.412V11.544C67.8165 10.9416 67.3917 10.6992 66.8709 10.9992L15.6117 40.5936C15.3359 40.7743 15.1067 41.0177 14.9427 41.3038C14.7788 41.5899 14.6849 41.9107 14.6685 42.24V87.096C14.6685 87.6984 15.0909 87.9432 15.6117 87.6408Z" fill="black"/>
<path d="M15.4728 87.7126C15.2064 87.8266 14.9187 87.8823 14.6289 87.8761C14.3392 87.8699 14.0542 87.8019 13.7928 87.6766C13.5295 87.4979 13.3121 87.2596 13.1582 86.981C13.0043 86.7024 12.9184 86.3915 12.9072 86.0734V81.0334L14.6784 82.0582V87.0982C14.6664 87.6478 15.0144 87.895 15.4728 87.7126Z" fill="#0E53BE"/>
<path opacity="0.7" d="M15.4728 87.7126C15.2064 87.8266 14.9187 87.8823 14.6289 87.8761C14.3392 87.8699 14.0542 87.8019 13.7928 87.6766C13.5295 87.4979 13.3121 87.2596 13.1582 86.981C13.0043 86.7024 12.9184 86.3915 12.9072 86.0734V81.0334L14.6784 82.0582V87.0982C14.6664 87.6478 15.0144 87.895 15.4728 87.7126Z" fill="black"/>
<path d="M14.6685 82.0511V87.0911C14.6685 87.6935 15.0909 87.9383 15.6117 87.6359L66.8709 58.0463C67.1459 57.8674 67.3749 57.6262 67.5392 57.3422C67.7035 57.0582 67.7985 56.7395 67.8165 56.4119V51.3599L14.6685 82.0511Z" fill="#0E53BE"/>
<g opacity="0.5">
<path d="M14.6685 82.0511V87.0911C14.6685 87.6935 15.0909 87.9383 15.6117 87.6359L66.8709 58.0463C67.1459 57.8674 67.3749 57.6262 67.5392 57.3422C67.7035 57.0582 67.7985 56.7395 67.8165 56.4119V51.3599L14.6685 82.0511Z" fill="black"/>
</g>
<path d="M16.4399 78.3289V42.8089C16.45 42.6121 16.5066 42.4206 16.605 42.2499C16.7035 42.0793 16.841 41.9344 17.0063 41.8273L65.4863 13.8409C65.7983 13.6609 66.0527 13.8073 66.0527 14.1697V49.6801C66.0421 49.8767 65.9853 50.068 65.8869 50.2386C65.7885 50.4091 65.6512 50.5541 65.4863 50.6617L17.0063 78.6457C16.6919 78.8353 16.4399 78.6889 16.4399 78.3289Z" fill="#FAFAFA"/>
<path d="M41.2416 68.7552C40.9836 68.923 40.7689 69.1494 40.615 69.4159C40.4611 69.6824 40.3723 69.9815 40.356 70.2888C40.356 70.8528 40.752 71.0832 41.2416 70.8C41.4993 70.6319 41.7137 70.4054 41.8676 70.139C42.0215 69.8725 42.1104 69.5736 42.1272 69.2664C42.1272 68.7 41.7312 68.472 41.2416 68.7552Z" fill="#0E53BE"/>
<path opacity="0.5" d="M41.2416 68.7552C40.9836 68.923 40.7689 69.1494 40.615 69.4159C40.4611 69.6824 40.3723 69.9815 40.356 70.2888C40.356 70.8528 40.752 71.0832 41.2416 70.8C41.4993 70.6319 41.7137 70.4054 41.8676 70.139C42.0215 69.8725 42.1104 69.5736 42.1272 69.2664C42.1272 68.7 41.7312 68.472 41.2416 68.7552Z" fill="white"/>
<path d="M14.9446 41.2944C14.7749 41.5817 14.6792 41.9066 14.6662 42.24V82.0512L12.895 81.0264V41.208C12.9088 40.8785 13.0045 40.5577 13.1734 40.2744L14.9446 41.2944Z" fill="#0E53BE"/>
<path opacity="0.7" d="M14.9446 41.2944C14.7749 41.5817 14.6792 41.9066 14.6662 42.24V82.0512L12.895 81.0264V41.208C12.9088 40.8785 13.0045 40.5577 13.1734 40.2744L14.9446 41.2944Z" fill="black"/>
<path d="M33.336 97.9054L46.1424 105.321C46.3653 105.435 46.6121 105.495 46.8624 105.495C47.1127 105.495 47.3594 105.435 47.5824 105.321L85.416 83.5198C85.8144 83.2798 85.8144 82.9198 85.416 82.6894L72.6072 75.2734C72.3842 75.1597 72.1375 75.1003 71.8872 75.1003C71.6369 75.1003 71.3901 75.1597 71.1672 75.2734L33.336 97.0774C32.94 97.3054 32.9376 97.6798 33.336 97.9054Z" fill="#E0E0E0"/>
<path d="M84.6409 81.3599C84.6326 81.2705 84.6006 81.1849 84.5483 81.112C84.496 81.039 84.4253 80.9813 84.3433 80.9447L72.3121 74.0015C72.0892 73.8877 71.8424 73.8284 71.5921 73.8284C71.3418 73.8284 71.0951 73.8877 70.8721 74.0015L34.1521 95.2319C34.0708 95.269 34.0006 95.327 33.9488 95.3999C33.897 95.4727 33.8653 95.558 33.8569 95.6471V96.9095C33.865 96.9986 33.8968 97.084 33.9492 97.1566C34.0015 97.2293 34.0725 97.2865 34.1545 97.3223L46.1809 104.268C46.4041 104.381 46.6507 104.44 46.9009 104.44C47.1511 104.44 47.3978 104.381 47.6209 104.268L84.3409 83.0687C84.4227 83.0324 84.4934 82.9751 84.5457 82.9026C84.598 82.83 84.63 82.7449 84.6385 82.6559L84.6409 81.3599Z" fill="#0E53BE"/>
<path opacity="0.5" d="M84.6409 81.3599C84.6326 81.2705 84.6006 81.1849 84.5483 81.112C84.496 81.039 84.4253 80.9813 84.3433 80.9447L72.3121 74.0015C72.0892 73.8877 71.8424 73.8284 71.5921 73.8284C71.3418 73.8284 71.0951 73.8877 70.8721 74.0015L34.1521 95.2319C34.0708 95.269 34.0006 95.327 33.9488 95.3999C33.897 95.4727 33.8653 95.558 33.8569 95.6471V96.9095C33.865 96.9986 33.8968 97.084 33.9492 97.1566C34.0015 97.2293 34.0725 97.2865 34.1545 97.3223L46.1809 104.268C46.4041 104.381 46.6507 104.44 46.9009 104.44C47.1511 104.44 47.3978 104.381 47.6209 104.268L84.3409 83.0687C84.4227 83.0324 84.4934 82.9751 84.5457 82.9026C84.598 82.83 84.63 82.7449 84.6385 82.6559L84.6409 81.3599Z" fill="black"/>
<path d="M46.1881 102.977L34.1617 96.0623C33.7657 95.8343 33.7633 95.4647 34.1617 95.2343L70.8817 74.0039C71.1046 73.8901 71.3514 73.8308 71.6017 73.8308C71.852 73.8308 72.0987 73.8901 72.3217 74.0039L84.3529 80.9495C84.7489 81.1895 84.7489 81.5495 84.3529 81.7799L47.6329 102.979C47.4089 103.093 47.1613 103.152 46.9102 103.151C46.6591 103.151 46.4116 103.091 46.1881 102.977Z" fill="#0E53BE"/>
<path opacity="0.3" d="M46.1881 102.977L34.1617 96.0623C33.7657 95.8343 33.7633 95.4647 34.1617 95.2343L70.8817 74.0039C71.1046 73.8901 71.3514 73.8308 71.6017 73.8308C71.852 73.8308 72.0987 73.8901 72.3217 74.0039L84.3529 80.9495C84.7489 81.1895 84.7489 81.5495 84.3529 81.7799L47.6329 102.979C47.4089 103.093 47.1613 103.152 46.9102 103.151C46.6591 103.151 46.4116 103.091 46.1881 102.977Z" fill="black"/>
<path d="M46.8603 103.147V104.438C46.6257 104.435 46.395 104.379 46.1859 104.273L34.1643 97.327C34.0819 97.2907 34.0106 97.2331 33.9579 97.1601C33.9052 97.0871 33.8728 97.0014 33.8643 96.9118V95.647C33.8736 95.7364 33.9062 95.8218 33.9588 95.8946C34.0114 95.9675 34.0823 96.0253 34.1643 96.0622L46.1859 102.979C46.394 103.088 46.6253 103.146 46.8603 103.147Z" fill="#0E53BE"/>
<path opacity="0.7" d="M46.8603 103.147V104.438C46.6257 104.435 46.395 104.379 46.1859 104.273L34.1643 97.327C34.0819 97.2907 34.0106 97.2331 33.9579 97.1601C33.9052 97.0871 33.8728 97.0014 33.8643 96.9118V95.647C33.8736 95.7364 33.9062 95.8218 33.9588 95.8946C34.0114 95.9675 34.0823 96.0253 34.1643 96.0622L46.1859 102.979C46.394 103.088 46.6253 103.146 46.8603 103.147Z" fill="black"/>
<path d="M62.2178 82.9439L63.5882 83.7359C63.6155 83.7503 63.646 83.7577 63.677 83.7575L64.9394 83.0543L63.4658 82.2239L62.2178 82.9439Z" fill="#37474F"/>
<path d="M63.8667 81.9935L65.2443 82.7879C65.2697 82.8001 65.2977 82.8059 65.3259 82.8047H65.3763L66.5883 82.1039L65.1147 81.2759L63.8667 81.9935Z" fill="#37474F"/>
<path d="M59.4409 84.5494L60.8161 85.3438C60.8416 85.3558 60.8696 85.3615 60.8977 85.3606L62.9425 84.2062L61.4689 83.3782L59.4409 84.5494Z" fill="#37474F"/>
<path d="M57.792 85.5022L59.1648 86.2942C59.1909 86.3071 59.2197 86.3136 59.2488 86.3134L60.5136 85.6102L59.04 84.7822L57.792 85.5022Z" fill="#37474F"/>
<path d="M50.2561 97.9631L51.5209 97.2599L50.0473 96.4319L48.7993 97.1519L50.1745 97.9487C50.2006 97.9585 50.2283 97.9634 50.2561 97.9631Z" fill="#37474F"/>
<path d="M56.1411 86.4527L57.5115 87.2447C57.5386 87.2598 57.5693 87.2673 57.6003 87.2663L58.8627 86.5631L57.3891 85.7327L56.1411 86.4527Z" fill="#37474F"/>
<path d="M65.3305 83.3015L64.0825 84.0215L65.4553 84.8135C65.4811 84.8274 65.5101 84.8341 65.5393 84.8327L66.8041 84.1295L65.3305 83.3015Z" fill="#37474F"/>
<path d="M60.7199 89.76L61.9847 89.0568L60.5087 88.2288L59.2607 88.9488L60.6359 89.7432C60.6622 89.7554 60.691 89.7612 60.7199 89.76Z" fill="#37474F"/>
<path d="M67.1999 83.8822L68.4623 83.179L66.9887 82.3486L65.7407 83.0686L67.1183 83.863C67.1435 83.8761 67.1715 83.8827 67.1999 83.8822Z" fill="#37474F"/>
<path d="M59.0715 90.7199L60.3339 90.0167L58.8603 89.1863L57.6123 89.9063L58.9827 90.6983C59.0098 90.7134 59.0405 90.7209 59.0715 90.7199Z" fill="#37474F"/>
<path d="M57.4226 91.6798L58.685 90.9766L57.2114 90.1462L55.9634 90.8662L57.3386 91.6606C57.3647 91.6735 57.3935 91.6801 57.4226 91.6798Z" fill="#37474F"/>
<path d="M64.0175 87.8638L66.6695 86.359L63.3335 84.4534L61.9199 85.2742L63.6647 86.2798C63.6788 86.2862 63.6909 86.2962 63.6998 86.3089C63.7086 86.3215 63.7139 86.3364 63.7151 86.3518C63.7144 86.3654 63.7099 86.3787 63.7023 86.39C63.6947 86.4014 63.6842 86.4106 63.6719 86.4166L62.5703 87.0526L63.9383 87.8422C63.9626 87.8555 63.9898 87.8629 64.0175 87.8638Z" fill="#37474F"/>
<path d="M52.8433 88.3582L54.2185 89.1526C54.2439 89.1648 54.2719 89.1706 54.3001 89.1694L55.5649 88.4662L54.0889 87.6382L52.8433 88.3582Z" fill="#37474F"/>
<path d="M62.3689 88.8166L63.6337 88.1134L62.1601 87.2854L60.9121 88.0054L62.2777 88.7926C62.3054 88.8087 62.3369 88.817 62.3689 88.8166Z" fill="#37474F"/>
<path d="M43.5769 97.5143L44.8417 96.8111L43.3657 95.9807L42.1177 96.7007L43.4881 97.4903C43.5152 97.5056 43.5457 97.5138 43.5769 97.5143Z" fill="#37474F"/>
<path d="M39.6479 95.9759L41.0256 96.7727C41.0505 96.7836 41.0775 96.7894 41.1048 96.7895H41.1551L42.3695 96.0887L40.8935 95.2607L39.6479 95.9759Z" fill="#37474F"/>
<path d="M45.876 98.3398H45.9264L47.1264 97.639L45.6528 96.811L44.4048 97.531L45.7824 98.3254C45.812 98.3374 45.8441 98.3424 45.876 98.3398Z" fill="#37474F"/>
<path d="M46.9587 99.8662L48.2235 99.163L46.7475 98.335L45.4995 99.055L46.8699 99.8446C46.8968 99.8602 46.9276 99.8677 46.9587 99.8662Z" fill="#37474F"/>
<path d="M41.2969 95.023L42.6721 95.8198C42.698 95.8304 42.7257 95.8361 42.7537 95.8366L44.0185 95.1334L42.5425 94.3054L41.2969 95.023Z" fill="#37474F"/>
<path d="M48.6072 98.9159L49.8696 98.2103L48.396 97.3823L47.1504 98.1023L48.5256 98.8967C48.5509 98.9095 48.5788 98.9161 48.6072 98.9159Z" fill="#37474F"/>
<path d="M46.2456 92.1599L47.6184 92.9543C47.6447 92.9664 47.6735 92.9721 47.7024 92.9711L48.9672 92.2703L47.4912 91.4399L46.2456 92.1599Z" fill="#37474F"/>
<path d="M47.8945 91.2141L49.2649 92.0061C49.2913 92.0209 49.3211 92.0283 49.3513 92.0277L50.6161 91.3245L49.1425 90.4941L47.8945 91.2141Z" fill="#37474F"/>
<path d="M49.5435 90.2615L50.9115 91.0535C50.9387 91.0682 50.9693 91.0756 51.0003 91.0751L52.2651 90.3719L50.7915 89.5439L49.5435 90.2615Z" fill="#37474F"/>
<path d="M44.5947 93.1199L45.9651 93.9095C45.9914 93.9249 46.0211 93.9331 46.0515 93.9335L47.3187 93.2279L45.8403 92.3999L44.5947 93.1199Z" fill="#37474F"/>
<path d="M51.1943 89.3111L52.5695 90.1055C52.5952 90.1168 52.6231 90.1226 52.6511 90.1223L53.9159 89.4191L52.4399 88.5911L51.1943 89.3111Z" fill="#37474F"/>
<path d="M42.9458 94.0799L44.321 94.8719C44.3471 94.8847 44.3759 94.8913 44.405 94.8911L45.6674 94.1879L44.1938 93.3599L42.9458 94.0799Z" fill="#37474F"/>
<path d="M54.4922 87.4055L55.8698 88.2023C55.8948 88.2132 55.9217 88.219 55.949 88.2191L57.2138 87.5159L55.7402 86.6855L54.4922 87.4055Z" fill="#37474F"/>
<path d="M58.6128 87.1798L59.9832 87.9694C60.0104 87.9843 60.041 87.9917 60.072 87.991H60.1224L61.3344 87.2902L59.8608 86.4622L58.6128 87.1798Z" fill="#37474F"/>
<path d="M67.5146 79.8887L68.885 80.6783C68.9116 80.6926 68.9413 80.7001 68.9715 80.6999L70.2362 79.9967L68.7602 79.1687L67.5146 79.8887Z" fill="#37474F"/>
<path d="M69.1631 78.9358L70.5335 79.7254C70.5599 79.7402 70.5897 79.7476 70.6199 79.747L71.8847 79.0438L70.4111 78.2158L69.1631 78.9358Z" fill="#37474F"/>
<path d="M56.9644 88.1302L58.3348 88.9222C58.3613 88.9365 58.391 88.9439 58.4212 88.9438L59.686 88.2406L58.2124 87.4102L56.9644 88.1302Z" fill="#37474F"/>
<path d="M70.812 77.9832L72.1824 78.7752C72.209 78.7893 72.2387 78.7967 72.2688 78.7968L73.5336 78.0912L72.06 77.2632L70.812 77.9832Z" fill="#37474F"/>
<path d="M61.7209 87.0383H61.7713L62.9833 86.3375L61.5097 85.5095L60.2617 86.2295L61.6321 87.0191C61.6596 87.0329 61.6902 87.0395 61.7209 87.0383Z" fill="#37474F"/>
<path d="M69.377 80.9639L70.7449 81.7535C70.773 81.7688 70.8043 81.777 70.8361 81.7775L72.0986 81.0743L70.6249 80.2439L69.377 80.9639Z" fill="#37474F"/>
<path d="M72.6768 79.0582L74.0448 79.8478C74.0717 79.8635 74.1024 79.8718 74.1336 79.8718L75.3984 79.1686L73.92 78.3406L72.6768 79.0582Z" fill="#37474F"/>
<path d="M72.4802 80.8246L73.745 80.1214L72.269 79.291L71.021 80.011L72.3962 80.8054C72.4223 80.8183 72.4511 80.8248 72.4802 80.8246Z" fill="#37474F"/>
<path d="M77.5705 79.9798C77.5947 79.9904 77.6208 79.9961 77.6473 79.9966H77.7001L78.9121 79.2982L75.5737 77.3926L74.3257 78.1126L77.5705 79.9798Z" fill="#37474F"/>
<path d="M55.313 89.0831L56.6858 89.8751C56.7121 89.89 56.742 89.8974 56.7722 89.8967H56.8226L58.037 89.1983L56.561 88.3679L55.313 89.0831Z" fill="#37474F"/>
<path d="M74.3498 81.8999H74.4002L75.6122 81.1991L74.1386 80.3711L72.8906 81.0911L74.261 81.8807C74.2885 81.8945 74.3191 81.9011 74.3498 81.8999Z" fill="#37474F"/>
<path d="M75.9988 80.947L77.2636 80.2438L75.7876 79.4158L74.5396 80.1358L75.9076 80.9254C75.9357 80.9401 75.967 80.9475 75.9988 80.947Z" fill="#37474F"/>
<path d="M47.0664 93.8399L48.4368 94.6295C48.4639 94.6449 48.4944 94.6532 48.5256 94.6535L49.788 93.9503L48.3144 93.1199L47.0664 93.8399Z" fill="#37474F"/>
<path d="M43.769 95.7598L45.137 96.5494C45.1642 96.5643 45.1949 96.5718 45.2258 96.571H45.2762L46.4906 95.8702L45.0146 95.0398L43.769 95.7598Z" fill="#37474F"/>
<path d="M49.1736 96.4367L50.4384 95.7335L48.96 94.9031L47.7144 95.6231L49.092 96.4175C49.117 96.4309 49.1451 96.4375 49.1736 96.4367Z" fill="#37474F"/>
<path d="M47.5202 97.3872L48.785 96.684L47.309 95.856L46.061 96.576L47.4386 97.3704C47.464 97.3826 47.4921 97.3884 47.5202 97.3872Z" fill="#37474F"/>
<path d="M50.8225 95.4839H50.8753L52.0873 94.7855L50.6137 93.9551L49.3657 94.6751L50.7337 95.4647C50.7611 95.4788 50.7917 95.4854 50.8225 95.4839Z" fill="#37474F"/>
<path d="M53.6641 90.036L55.0369 90.828C55.0637 90.8413 55.0933 90.8479 55.1233 90.8472H55.1737L56.3857 90.1464L54.9121 89.3184L53.6641 90.036Z" fill="#37474F"/>
<path d="M54.1223 93.5783L55.3871 92.8751L53.9111 92.0471L52.6631 92.7671L54.0335 93.5567C54.0608 93.5711 54.0914 93.5786 54.1223 93.5783Z" fill="#37474F"/>
<path d="M52.4738 94.5312L53.7362 93.84L52.2626 93.012L51.0146 93.732L52.3922 94.5288C52.419 94.5348 52.4467 94.5356 52.4738 94.5312Z" fill="#37474F"/>
<path d="M50.3667 91.9414L51.7347 92.731C51.7619 92.746 51.7925 92.7534 51.8235 92.7526L53.0883 92.0494L51.6147 91.2214L50.3667 91.9414Z" fill="#37474F"/>
<path d="M45.418 94.7998L46.786 95.5894C46.814 95.6044 46.8454 95.6118 46.8772 95.611L48.1396 94.9078L46.666 94.0798L45.418 94.7998Z" fill="#37474F"/>
<path d="M52.0151 90.9886L53.3855 91.7782C53.4127 91.7931 53.4433 91.8005 53.4743 91.7998L54.7367 91.0966L53.2631 90.2686L52.0151 90.9886Z" fill="#37474F"/>
<path d="M48.7202 92.892L50.0882 93.684C50.1154 93.6989 50.146 93.7063 50.177 93.7056H50.2274L51.4418 93.0072L49.9658 92.1768L48.7202 92.892Z" fill="#37474F"/>
<path d="M55.7713 92.6254L57.0361 91.9222L55.5601 91.0942L54.3145 91.8142L55.6873 92.6062C55.713 92.6202 55.742 92.6268 55.7713 92.6254Z" fill="#37474F"/>
<path d="M65.52 81.0406L66.8952 81.835C66.9208 81.8467 66.9487 81.8524 66.9768 81.8518L68.2416 81.1486L66.7656 80.3206L65.52 81.0406Z" fill="#37474F"/>
<path d="M39.2451 96.2087L37.9971 96.9287L39.3747 97.7231C39.4001 97.7354 39.4281 97.7412 39.4563 97.7399H39.5067L40.7211 97.0391L39.2451 96.2087Z" fill="#37474F"/>
<path d="M41.717 96.9333L39.8618 98.0037L41.2394 98.8005C41.2644 98.8114 41.2914 98.8172 41.3186 98.8173H41.3714L43.1906 97.7661L41.717 96.9333Z" fill="#37474F"/>
<path d="M37.2435 94.752L35.7339 95.6232L37.1067 96.4128C37.133 96.4276 37.1629 96.4351 37.1931 96.4344L38.7171 95.5824L37.2435 94.752Z" fill="#37474F"/>
<path d="M45.0985 99.2878L43.5913 100.159L44.9593 100.949C44.9867 100.963 45.0172 100.97 45.0481 100.97L46.5721 100.116L45.0985 99.2878Z" fill="#37474F"/>
<path d="M44.0138 97.7615L41.7266 99.0815L43.1018 99.8759C43.1273 99.8876 43.1552 99.8934 43.1834 99.8927H43.2338L45.4898 98.5919L44.0138 97.7615Z" fill="#37474F"/>
<path d="M39.8208 94.9174L41.0832 94.2142L39.6001 93.3862L38.3521 94.1062L39.7224 94.8982C39.7527 94.9141 39.7869 94.9208 39.8208 94.9174Z" fill="#37474F"/>
<path d="M45.4536 101.234L46.824 102.026C46.851 102.039 46.8805 102.046 46.9104 102.045L48.7824 100.992L47.3088 100.164L45.4536 101.234Z" fill="#37474F"/>
<path d="M41.4695 93.9645L42.7343 93.2613L41.2583 92.4333L40.0127 93.1533L41.3879 93.9477C41.4135 93.9595 41.4414 93.9652 41.4695 93.9645Z" fill="#37474F"/>
<path d="M48.7849 89.7432H48.8353L50.0497 89.0424L48.5737 88.2144L47.3281 88.9344L48.6985 89.7264C48.7254 89.7394 48.7552 89.7452 48.7849 89.7432Z" fill="#37474F"/>
<path d="M50.4338 88.8L51.6986 88.0968L50.2251 87.2664L48.9771 87.9864L50.3498 88.7784C50.3754 88.7929 50.4044 88.8004 50.4338 88.8Z" fill="#37474F"/>
<path d="M47.1362 90.6934H47.1866L48.3866 89.9926L46.913 89.1646L45.665 89.8846L47.0402 90.6718C47.0697 90.6876 47.1029 90.6951 47.1362 90.6934Z" fill="#37474F"/>
<path d="M44.7673 92.0615H44.8201L46.0321 91.3631L44.5585 90.5327L43.3105 91.2527L44.6833 92.0447C44.7092 92.058 44.7383 92.0639 44.7673 92.0615Z" fill="#37474F"/>
<path d="M43.1184 93.0143L44.3832 92.3111L42.9096 91.4807L41.6616 92.2007L43.0368 92.9951C43.062 93.0082 43.09 93.0148 43.1184 93.0143Z" fill="#37474F"/>
<path d="M78.2715 82.2886L79.6491 83.0854C79.6742 83.0955 79.7012 83.1004 79.7283 83.0998H79.7787L80.9787 82.399L79.5051 81.571L78.2715 82.2886Z" fill="#37474F"/>
<path d="M69.6743 87.2495L71.0423 88.0391C71.069 88.0555 71.0998 88.0638 71.1311 88.0631L72.3959 87.3599L70.9223 86.5295L69.6743 87.2495Z" fill="#37474F"/>
<path d="M74.9712 84.1943L76.3416 84.9839C76.3681 84.9982 76.3978 85.0057 76.428 85.0055H76.4784L79.3416 83.3519L77.868 82.5239L74.9712 84.1943Z" fill="#37474F"/>
<path d="M71.3232 86.2991L72.6912 87.0863C72.7188 87.1027 72.7504 87.111 72.7824 87.1103L74.0472 86.4071L72.5712 85.5791L71.3232 86.2991Z" fill="#37474F"/>
<path d="M72.9746 85.3462L74.3378 86.131C74.3654 86.1496 74.3982 86.1588 74.4314 86.1574L75.6962 85.4542L74.2202 84.6262L72.9746 85.3462Z" fill="#37474F"/>
<path d="M52.0803 87.8398H52.1331L53.3451 87.139L51.8715 86.3086L50.6235 87.0286L51.9915 87.8182C52.0188 87.8328 52.0494 87.8402 52.0803 87.8398Z" fill="#37474F"/>
<path d="M79.3032 79.5383L78.0552 80.2583L81.2976 82.1303C81.3226 82.1412 81.3495 82.1469 81.3768 82.1471H81.4272L82.6392 81.4463L79.3032 79.5383Z" fill="#37474F"/>
<path d="M49.6226 98.8295L50.9906 99.619C51.0179 99.6335 51.0484 99.6409 51.0794 99.6407L52.6034 98.7862L51.1202 97.9583L49.6226 98.8295Z" fill="#37474F"/>
<path d="M51.5308 97.7255L52.8988 98.5152C52.9266 98.5309 52.958 98.5392 52.99 98.5391H53.0404L62.4148 93.1199L60.9388 92.2896L51.5308 97.7255Z" fill="#37474F"/>
<path d="M51.905 97.0102L53.1698 96.307L51.6962 95.479L50.4482 96.199L51.8234 96.991C51.8488 97.0036 51.8767 97.0101 51.905 97.0102Z" fill="#37474F"/>
<path d="M47.7119 99.931L49.0799 100.721C49.1071 100.736 49.1376 100.744 49.1687 100.745L50.6927 99.8902L49.2191 99.0598L47.7119 99.931Z" fill="#37474F"/>
<path d="M61.3418 92.0616L62.7122 92.8536C62.739 92.8673 62.7685 92.8747 62.7986 92.8752H62.8514L64.3226 92.0256L62.849 91.2L61.3418 92.0616Z" fill="#37474F"/>
<path d="M65.1602 89.8559L66.5354 90.6503C66.5613 90.6636 66.5902 90.6702 66.6194 90.6695H66.6698L68.1434 89.8199L66.6698 88.9895L65.1602 89.8559Z" fill="#37474F"/>
<path d="M63.2495 90.9598L64.6271 91.7542C64.6527 91.766 64.6806 91.7717 64.7087 91.771L66.2327 90.9166L64.7591 90.0886L63.2495 90.9598Z" fill="#37474F"/>
<path d="M67.0703 88.7543L68.4407 89.5439C68.4679 89.5588 68.4985 89.5663 68.5295 89.5655H68.5799L70.3991 88.5143L68.9255 87.6863L67.0703 88.7543Z" fill="#37474F"/>
<path d="M68.8393 82.9294H68.8897L70.1041 82.231L68.6401 81.3958L67.3921 82.1158L68.7673 82.9102C68.7897 82.9215 68.8142 82.928 68.8393 82.9294Z" fill="#37474F"/>
<path d="M70.9177 86.0352H70.9681L72.1825 85.3344L70.7089 84.5063L69.4609 85.2263L70.8337 86.0208C70.8602 86.0322 70.889 86.0371 70.9177 86.0352Z" fill="#37474F"/>
<path d="M65.1028 89.3926L68.5372 87.4342L67.0612 86.6062L63.6436 88.579L65.0212 89.3734C65.0463 89.3867 65.0744 89.3933 65.1028 89.3926Z" fill="#37474F"/>
<path d="M74.5632 83.928H74.616L75.8281 83.2272L74.3544 82.3992L73.1064 83.1192L74.4816 83.9136C74.5074 83.9245 74.5353 83.9294 74.5632 83.928Z" fill="#37474F"/>
<path d="M76.2146 82.9775H76.265L77.477 82.2791L76.0034 81.4487L74.7554 82.1687L76.1282 82.9631C76.1555 82.9746 76.185 82.9795 76.2146 82.9775Z" fill="#37474F"/>
<path d="M63.4514 90.3454L64.7162 89.6422L63.2426 88.8118L61.9946 89.5318L63.365 90.3238C63.3917 90.3376 63.4213 90.345 63.4514 90.3454Z" fill="#37474F"/>
<path d="M72.7007 82.8527H72.7511L73.9631 82.1519L72.4799 81.3215L71.2319 82.0415L72.5999 82.8287C72.63 82.8475 72.6654 82.8559 72.7007 82.8527Z" fill="#37474F"/>
<path d="M55.2 95.1047L56.4648 94.4015L54.9888 93.5735L53.7432 94.2935L55.1184 95.0879C55.1438 95.1002 55.1718 95.1059 55.2 95.1047Z" fill="#37474F"/>
<path d="M61.8025 91.2958L63.0673 90.5926L61.5913 89.7598L60.3457 90.4798L61.7233 91.2766C61.7483 91.2879 61.7751 91.2944 61.8025 91.2958Z" fill="#37474F"/>
<path d="M53.5562 96.0574H53.6066L54.8066 95.3566L53.333 94.5286L52.085 95.2486L53.4626 96.043C53.4918 96.0565 53.5242 96.0615 53.5562 96.0574Z" fill="#37474F"/>
<path d="M56.8537 94.1542L58.1185 93.451L56.6401 92.6206L55.3921 93.3406L56.7721 94.1374C56.7975 94.1496 56.8255 94.1553 56.8537 94.1542Z" fill="#37474F"/>
<path d="M58.5051 93.2015H58.5603L59.7723 92.5007L58.2939 91.6799L57.0459 92.3999L58.4163 93.1919C58.4445 93.203 58.4752 93.2063 58.5051 93.2015Z" fill="#37474F"/>
<path d="M60.1535 92.2488H60.2039L61.4183 91.548L59.9423 90.72L58.6943 91.44L60.0719 92.2344C60.0979 92.2446 60.1256 92.2495 60.1535 92.2488Z" fill="#37474F"/>
<path d="M56.1002 85.5189L57.3602 84.8157L55.8842 83.9854L54.6362 84.7054L56.0066 85.495C56.0346 85.5125 56.0673 85.5209 56.1002 85.5189Z" fill="#37474F"/>
<path d="M77.8635 82.0246H77.9139L79.1283 81.3262L77.6523 80.4958L76.4043 81.2158L77.7819 82.0127C77.808 82.0221 77.8358 82.0262 77.8635 82.0246Z" fill="#37474F"/>
<path d="M59.4001 83.6134L60.6625 82.9102L59.1889 82.0798L57.9409 82.7998L59.3089 83.5894C59.3367 83.6052 59.3682 83.6135 59.4001 83.6134Z" fill="#37474F"/>
<path d="M63.0628 81.4992L64.3276 80.796L62.8516 79.9656L61.606 80.6856L62.9764 81.4776C63.0027 81.4924 63.0325 81.4999 63.0628 81.4992Z" fill="#37474F"/>
<path d="M61.4137 82.4518L62.6761 81.7486L61.2001 80.9182L59.9521 81.6382L61.3225 82.4302C61.3505 82.4452 61.382 82.4527 61.4137 82.4518Z" fill="#37474F"/>
<path d="M54.4514 86.4718L55.7162 85.7662L54.2402 84.9382L52.9946 85.6582L54.365 86.4502C54.3918 86.4639 54.4214 86.4713 54.4514 86.4718Z" fill="#37474F"/>
<path d="M57.7488 84.5662H57.8016L59.0016 83.8654L57.54 83.0398L56.292 83.7598L57.66 84.5494C57.6877 84.5624 57.7182 84.5681 57.7488 84.5662Z" fill="#37474F"/>
<path d="M64.7112 80.5463L65.976 79.8431L64.5024 79.0151L63.2544 79.7351L64.6248 80.5247C64.6511 80.5396 64.681 80.547 64.7112 80.5463Z" fill="#37474F"/>
<path d="M71.1793 76.2599L72.4417 75.5567L71.6401 75.1199L70.3921 75.8399L71.0929 76.2359C71.1195 76.2503 71.149 76.2585 71.1793 76.2599Z" fill="#37474F"/>
<path d="M73.9201 77.8438L75.1849 77.1406L73.7089 76.3198L72.4609 77.0398L73.8313 77.8318C73.8595 77.843 73.89 77.8471 73.9201 77.8438Z" fill="#37474F"/>
<path d="M66.2403 79.1182H66.2907L67.5027 78.4173L66.7011 77.9854L65.4531 78.7054L66.1515 79.1014C66.1796 79.1132 66.2099 79.1189 66.2403 79.1182Z" fill="#37474F"/>
<path d="M67.8795 78.1654H67.9299L69.1299 77.467L68.3427 77.0398L67.0947 77.7598L67.7979 78.1558C67.8241 78.1651 67.8519 78.1684 67.8795 78.1654Z" fill="#37474F"/>
<path d="M69.528 77.2126L70.7928 76.5094L69.9912 76.0798L68.7432 76.7998L69.4488 77.1982C69.4739 77.2083 69.5009 77.2132 69.528 77.2126Z" fill="#37474F"/>
<g opacity="0.8">
<path d="M71.4049 15.0623V50.6903C71.3911 50.947 71.317 51.1969 71.1886 51.4196C71.0602 51.6422 70.881 51.8315 70.6657 51.9719L22.6441 79.7495C22.5719 79.7944 22.489 79.8192 22.4041 79.8215C22.373 79.825 22.3416 79.825 22.3105 79.8215C22.2889 79.8169 22.2679 79.8096 22.2481 79.7999L22.2073 79.7759L22.1641 79.7471C22.1494 79.7364 22.1357 79.7244 22.1233 79.7111C22.0653 79.656 22.0188 79.5899 21.9865 79.5167C21.9353 79.3986 21.9091 79.2711 21.9097 79.1423V43.6799C21.9241 43.4228 21.9987 43.1726 22.1275 42.9496C22.2563 42.7265 22.4357 42.5369 22.6513 42.3959L70.6657 14.6399C70.7373 14.5902 70.8199 14.5585 70.9064 14.5477C70.9929 14.5368 71.0808 14.547 71.1625 14.5775C71.1851 14.5877 71.2067 14.5997 71.2273 14.6135C71.2462 14.6273 71.2625 14.6443 71.2753 14.6639C71.2837 14.6716 71.291 14.6805 71.2969 14.6903C71.3071 14.7016 71.3152 14.7146 71.3209 14.7287C71.3401 14.7575 71.3547 14.7891 71.3641 14.8223C71.3725 14.8439 71.3781 14.8665 71.3809 14.8895C71.3819 14.8918 71.3825 14.8942 71.3825 14.8967C71.3825 14.8992 71.3819 14.9017 71.3809 14.9039C71.3874 14.9258 71.3914 14.9483 71.3929 14.9711C71.4025 14.9975 71.4049 15.0287 71.4049 15.0623Z" fill="#455A64"/>
<path d="M70.9944 14.7744C71.0191 14.7745 71.0435 14.7794 71.0664 14.7888H71.0808L71.1 14.8152L71.1192 14.8416C71.1192 14.8416 71.1192 14.8416 71.1192 14.8536L71.1408 14.9232C71.1404 14.9288 71.1404 14.9344 71.1408 14.94C71.1408 14.964 71.1408 14.988 71.1408 15.0144V50.6904C71.1275 50.9053 71.0648 51.1142 70.9573 51.3007C70.8499 51.4872 70.7008 51.6464 70.5216 51.7656L22.524 79.5432C22.4867 79.5673 22.4435 79.5806 22.3992 79.5816H22.3488H22.332L22.3008 79.56V79.548C22.2663 79.5167 22.2393 79.4782 22.2216 79.4352C22.1827 79.3476 22.1631 79.2527 22.164 79.1568V43.68C22.1771 43.4649 22.2401 43.2557 22.348 43.0691C22.4558 42.8825 22.6056 42.7236 22.7856 42.6048L70.7832 14.8416C70.8471 14.8026 70.9196 14.7795 70.9944 14.7744ZM70.9944 14.5344C70.878 14.538 70.7647 14.5719 70.6656 14.6328L22.644 42.3984C22.4287 42.5392 22.2495 42.7284 22.1207 42.951C21.9919 43.1736 21.9171 43.4233 21.9024 43.68V79.128C21.9018 79.2568 21.9279 79.3843 21.9792 79.5024C22.0114 79.5756 22.0579 79.6417 22.116 79.6968C22.1284 79.7101 22.1421 79.7221 22.1568 79.7328L22.2 79.7616L22.2408 79.7856C22.2606 79.7953 22.2816 79.8026 22.3032 79.8072C22.3343 79.8107 22.3657 79.8107 22.3968 79.8072H22.4088C22.4937 79.8049 22.5765 79.7801 22.6488 79.7352L70.6656 51.972C70.8809 51.8316 71.06 51.6423 71.1885 51.4197C71.3169 51.197 71.391 50.9471 71.4048 50.6904V15.0624C71.4048 15.0288 71.4048 14.9976 71.4048 14.9688C71.4033 14.946 71.3993 14.9235 71.3928 14.9016C71.3938 14.8994 71.3944 14.8969 71.3944 14.8944C71.3944 14.8919 71.3938 14.8895 71.3928 14.8872C71.39 14.8642 71.3844 14.8416 71.376 14.82C71.3665 14.7868 71.352 14.7552 71.3328 14.7264C71.3271 14.7123 71.3189 14.6993 71.3088 14.688C71.3029 14.6782 71.2956 14.6693 71.2872 14.6616C71.2744 14.642 71.2581 14.625 71.2392 14.6112C71.2186 14.5974 71.1969 14.5854 71.1744 14.5752C71.1217 14.5509 71.0643 14.5386 71.0064 14.5392L70.9944 14.5344Z" fill="#455A64"/>
<g opacity="0.7">
<path d="M71.4049 15.0623V50.6903C71.3911 50.947 71.317 51.1969 71.1886 51.4196C71.0602 51.6422 70.881 51.8315 70.6657 51.9719L22.6441 79.7495C22.5719 79.7944 22.489 79.8192 22.4041 79.8215C22.373 79.825 22.3416 79.825 22.3105 79.8215C22.2889 79.8169 22.2679 79.8096 22.2481 79.7999L22.2073 79.7759L22.1641 79.7471C22.1494 79.7364 22.1357 79.7244 22.1233 79.7111C22.0653 79.656 22.0188 79.5899 21.9865 79.5167C21.9353 79.3986 21.9091 79.2711 21.9097 79.1423V43.6799C21.9241 43.4228 21.9987 43.1726 22.1275 42.9496C22.2563 42.7265 22.4357 42.5369 22.6513 42.3959L70.6657 14.6399C70.7373 14.5902 70.8199 14.5585 70.9064 14.5477C70.9929 14.5368 71.0808 14.547 71.1625 14.5775C71.1851 14.5877 71.2067 14.5997 71.2273 14.6135C71.2462 14.6273 71.2625 14.6443 71.2753 14.6639C71.2837 14.6716 71.291 14.6805 71.2969 14.6903C71.3071 14.7016 71.3152 14.7146 71.3209 14.7287C71.3401 14.7575 71.3547 14.7891 71.3641 14.8223C71.3725 14.8439 71.3781 14.8665 71.3809 14.8895C71.3819 14.8918 71.3825 14.8942 71.3825 14.8967C71.3825 14.8992 71.3819 14.9017 71.3809 14.9039C71.3874 14.9258 71.3914 14.9483 71.3929 14.9711C71.4025 14.9975 71.4049 15.0287 71.4049 15.0623Z" fill="#455A64"/>
</g>
</g>
<path d="M71.1621 14.5706C71.0804 14.5401 70.9926 14.5298 70.9061 14.5407C70.8196 14.5516 70.737 14.5832 70.6653 14.633L22.6437 42.3986C22.4285 42.5393 22.2493 42.7286 22.1205 42.9511C21.9917 43.1737 21.9169 43.4234 21.9021 43.6802V46.0994L20.9565 45.545V43.145C20.9707 42.8887 21.0449 42.6393 21.1734 42.4171C21.3018 42.1948 21.4807 42.006 21.6957 41.8658L69.7197 14.1002C69.7964 14.0436 69.8874 14.0095 69.9824 14.0019C70.0774 13.9943 70.1726 14.0133 70.2573 14.057C70.3893 14.1362 71.0037 14.489 71.1621 14.5706Z" fill="#0E53BE"/>
<path d="M71.4047 15.0553C71.4047 14.5897 71.0711 14.4001 70.6655 14.6353L22.6415 42.4009C22.4265 42.5411 22.2476 42.7299 22.1192 42.9522C21.9907 43.1744 21.9165 43.4238 21.9023 43.6801V46.0993L71.4047 17.4841V15.0553Z" fill="#0E53BE"/>
<g opacity="0.4">
<path d="M70.6653 14.6401L22.6437 42.4009C22.4244 42.5388 22.2449 42.7315 22.1229 42.9601L21.1821 42.4177C21.3046 42.1963 21.4813 42.0097 21.6957 41.8753L69.7197 14.1001C69.7965 14.0439 69.8873 14.0099 69.9821 14.0019C70.0769 13.9938 70.1722 14.012 70.2573 14.0545C70.3893 14.1361 71.0037 14.4865 71.1597 14.5705C71.078 14.54 70.99 14.5304 70.9037 14.5425C70.8173 14.5547 70.7354 14.5882 70.6653 14.6401Z" fill="white"/>
</g>
<path opacity="0.15" d="M20.9565 45.5496V43.1496C20.9669 42.8879 21.0446 42.6333 21.1821 42.4104L22.1253 42.9504C21.9874 43.1721 21.9104 43.4262 21.9021 43.6872V46.1064L20.9565 45.5496Z" fill="black"/>
<path d="M66.9598 17.8106C66.8269 17.9163 66.7201 18.0511 66.6477 18.2047C66.5752 18.3583 66.5392 18.5265 66.5422 18.6962C66.5422 19.0514 66.7294 19.2314 66.9598 19.0994C67.0927 18.9937 67.1994 18.8589 67.2719 18.7053C67.3443 18.5518 67.3804 18.3836 67.3774 18.2138C67.3654 17.8586 67.1782 17.6786 66.9598 17.8106Z" fill="#455A64"/>
<path d="M68.4525 16.9418C68.3195 17.0468 68.2126 17.1812 68.1401 17.3344C68.0677 17.4876 68.0317 17.6555 68.0349 17.825C68.0349 18.1802 68.2221 18.3602 68.4525 18.2282C68.5871 18.1235 68.6957 17.9891 68.7698 17.8354C68.8439 17.6818 68.8815 17.5131 68.8797 17.3426C68.8797 16.9874 68.6829 16.8002 68.4525 16.9418Z" fill="#455A64"/>
<path d="M69.9574 16.0802C69.8241 16.1855 69.717 16.3202 69.6445 16.4739C69.5721 16.6276 69.5362 16.7959 69.5398 16.9658C69.5398 17.321 69.727 17.501 69.9574 17.3666C70.0907 17.2613 70.1978 17.1265 70.2702 16.9728C70.3427 16.8192 70.3786 16.6508 70.375 16.481C70.375 16.1162 70.1878 15.9362 69.9574 16.0802Z" fill="#455A64"/>
<path opacity="0.9" d="M22.1734 79.7522L22.0822 79.6994C22.015 79.6586 21.9358 79.6154 21.8422 79.5722L21.7174 79.5026L21.523 79.3922C21.4606 79.3538 21.4054 79.3226 21.3598 79.2986C21.3142 79.2746 21.283 79.2554 21.2686 79.2482C21.2194 79.223 21.1761 79.1878 21.1414 79.145C21.1007 79.101 21.0675 79.0507 21.043 78.9962C20.9851 78.8739 20.9556 78.7402 20.9566 78.605V45.5474L21.9022 46.1018V79.1306C21.906 79.2589 21.9319 79.3855 21.979 79.505C22.0113 79.5782 22.0578 79.6442 22.1158 79.6994C22.1264 79.7143 22.1404 79.7266 22.1566 79.7354L22.1734 79.7522Z" fill="#37474F"/>
<path d="M37.9559 58.433C37.9559 58.433 36.2087 57.3026 35.9831 57.2954L31.0151 57.1394L32.9903 58.1906V58.277L37.9559 58.433Z" fill="#263238"/>
<path d="M29.4404 61.8385V58.7185L37.9556 48.1321V52.2601L32.99 58.1809V58.2673L37.9556 58.4233V62.5513L29.4404 61.8385Z" fill="#FAFAFA"/>
<path d="M37.9557 48.1417L35.9829 47.0042L27.4653 57.5906L29.4405 58.7281L37.9557 48.1417Z" fill="#455A64"/>
<path d="M27.4653 57.5906V60.701L29.4405 61.8386V58.7282L27.4653 57.5906Z" fill="#37474F"/>
<path d="M43.1112 60.5161L40.4712 62.0425L47.0616 37.8865L49.6104 36.4153L43.1112 60.5161Z" fill="#FAFAFA"/>
<path d="M49.608 36.4152L47.6328 35.2776L45.084 36.7488L47.0568 37.8864L49.608 36.4152Z" fill="#455A64"/>
<path d="M45.0836 36.749L47.0564 37.8866L40.4684 62.0426L38.4932 60.905L45.0836 36.749Z" fill="#37474F"/>
<path d="M50.1455 49.1186L52.1183 50.2562L57.0839 44.2802L55.1111 43.1426L50.1455 49.1186Z" fill="#263238"/>
<path d="M57.0838 44.28L52.1182 44.0928V39.9648L60.6334 40.7184V43.8384L52.1182 54.3984V50.256L57.0838 44.3664V44.28Z" fill="#FAFAFA"/>
<path d="M50.1455 38.8274L52.1183 39.965L60.6359 40.7186L58.6607 39.581L50.1455 38.8274Z" fill="#455A64"/>
<path d="M52.1183 39.965V44.093L50.1455 42.9554V38.8274" fill="#37474F"/>
<path d="M50.1455 49.1184L52.1183 50.256V54.384L50.1455 53.2464V49.1184Z" fill="#37474F"/>
<g opacity="0.8">
<path d="M86.9109 21.2065V56.8345C86.8971 57.0918 86.8227 57.3422 86.6939 57.5653C86.565 57.7884 86.3853 57.9779 86.1693 58.1185L65.6997 69.9265C65.6281 69.9725 65.5449 69.9975 65.4597 69.9985C65.4282 69.998 65.3968 69.994 65.3661 69.9865L65.3013 69.9649L65.2629 69.9409L65.2197 69.9121C65.2051 69.9014 65.1914 69.8893 65.1789 69.8761C65.1202 69.8216 65.0735 69.7554 65.0421 69.6817C64.9909 69.5635 64.9648 69.4361 64.9653 69.3073V33.8593C64.9793 33.6023 65.0534 33.3522 65.1819 33.1291C65.3103 32.9061 65.4893 32.7164 65.7045 32.5753L86.1597 20.7793C86.2314 20.7288 86.3144 20.6964 86.4013 20.6852C86.4883 20.6739 86.5767 20.6839 86.6589 20.7145C86.6811 20.725 86.702 20.7378 86.7213 20.7529C86.7395 20.7665 86.7557 20.7827 86.7693 20.8009C86.7778 20.8086 86.7851 20.8175 86.7909 20.8273C86.8011 20.8386 86.8093 20.8516 86.8149 20.8657C86.8354 20.8949 86.8508 20.9274 86.8605 20.9617C86.8689 20.9825 86.8746 21.0042 86.8773 21.0265C86.8784 21.0287 86.879 21.0312 86.879 21.0337C86.879 21.0362 86.8784 21.0386 86.8773 21.0409C86.8839 21.0628 86.8879 21.0853 86.8893 21.1081C86.9085 21.1441 86.9109 21.1753 86.9109 21.2065Z" fill="#455A64"/>
<path d="M86.498 20.9185C86.523 20.918 86.5477 20.9238 86.57 20.9353H86.5844L86.606 20.9617L86.6228 20.9905L86.6468 21.0601C86.648 21.0656 86.648 21.0713 86.6468 21.0769C86.6481 21.1008 86.6481 21.1249 86.6468 21.1489V56.8345C86.6331 57.0495 86.5699 57.2584 86.4621 57.4449C86.3542 57.6315 86.2047 57.7905 86.0252 57.9097L65.582 69.7201C65.5447 69.7442 65.5015 69.7574 65.4572 69.7585H65.4068H65.39L65.3588 69.7393C65.3259 69.7072 65.2998 69.6688 65.282 69.6265C65.2432 69.5388 65.2235 69.4439 65.2244 69.3481V33.8593C65.2376 33.6444 65.3004 33.4355 65.4078 33.249C65.5152 33.0625 65.6644 32.9033 65.8436 32.7841L86.3132 20.9881C86.3757 20.9474 86.4476 20.9235 86.522 20.9185M86.522 20.6785C86.4056 20.6833 86.2923 20.718 86.1932 20.7793L65.7236 32.5753C65.5084 32.7164 65.3293 32.9061 65.2009 33.1291C65.0725 33.3522 64.9983 33.6023 64.9844 33.8593V69.3073C64.9838 69.436 65.01 69.5635 65.0612 69.6817C65.0926 69.7554 65.1392 69.8216 65.198 69.8761C65.2104 69.8893 65.2241 69.9014 65.2388 69.9121L65.282 69.9409L65.3204 69.9649L65.3852 69.9865C65.4158 69.994 65.4472 69.998 65.4788 69.9985C65.5639 69.9972 65.647 69.9723 65.7188 69.9265L86.1596 58.1185C86.3753 57.9776 86.5548 57.788 86.6836 57.565C86.8125 57.3419 86.887 57.0917 86.9012 56.8345V21.2065C86.9012 21.1753 86.9012 21.1441 86.9012 21.1129C86.8997 21.0901 86.8957 21.0675 86.8892 21.0457C86.8903 21.0434 86.8908 21.041 86.8908 21.0385C86.8908 21.036 86.8903 21.0335 86.8892 21.0313C86.8864 21.009 86.8808 20.9872 86.8724 20.9665C86.8626 20.9322 86.8472 20.8997 86.8268 20.8705C86.8211 20.8564 86.813 20.8434 86.8028 20.8321C86.7969 20.8222 86.7897 20.8133 86.7812 20.8057C86.7675 20.7875 86.7514 20.7713 86.7332 20.7577C86.7139 20.7426 86.6929 20.7298 86.6708 20.7193C86.6173 20.6949 86.5591 20.6826 86.5004 20.6833L86.522 20.6785Z" fill="#455A64"/>
<g opacity="0.8">
<path d="M86.9109 21.2065V56.8345C86.8971 57.0918 86.8227 57.3422 86.6939 57.5653C86.565 57.7884 86.3853 57.9779 86.1693 58.1185L65.6997 69.9265C65.6281 69.9725 65.5449 69.9975 65.4597 69.9985C65.4282 69.998 65.3968 69.994 65.3661 69.9865L65.3013 69.9649L65.2629 69.9409L65.2197 69.9121C65.2051 69.9014 65.1914 69.8893 65.1789 69.8761C65.1202 69.8216 65.0735 69.7554 65.0421 69.6817C64.9909 69.5635 64.9648 69.4361 64.9653 69.3073V33.8593C64.9793 33.6023 65.0534 33.3522 65.1819 33.1291C65.3103 32.9061 65.4893 32.7164 65.7045 32.5753L86.1597 20.7793C86.2314 20.7288 86.3144 20.6964 86.4013 20.6852C86.4883 20.6739 86.5767 20.6839 86.6589 20.7145C86.6811 20.725 86.702 20.7378 86.7213 20.7529C86.7395 20.7665 86.7557 20.7827 86.7693 20.8009C86.7778 20.8086 86.7851 20.8175 86.7909 20.8273C86.8011 20.8386 86.8093 20.8516 86.8149 20.8657C86.8354 20.8949 86.8508 20.9274 86.8605 20.9617C86.8689 20.9825 86.8746 21.0042 86.8773 21.0265C86.8784 21.0287 86.879 21.0312 86.879 21.0337C86.879 21.0362 86.8784 21.0386 86.8773 21.0409C86.8839 21.0628 86.8879 21.0853 86.8893 21.1081C86.9085 21.1441 86.9109 21.1753 86.9109 21.2065Z" fill="#455A64"/>
</g>
</g>
<path d="M86.6687 20.7144C86.5865 20.6839 86.4981 20.6738 86.4111 20.6851C86.3241 20.6964 86.2412 20.7287 86.1695 20.7792L65.6999 32.5752C65.4847 32.7163 65.3056 32.906 65.1772 33.1291C65.0488 33.3521 64.9747 33.6022 64.9607 33.8592V36.2784L64.0151 35.724V33.324C64.0292 33.0677 64.1035 32.8184 64.2319 32.5961C64.3604 32.3739 64.5393 32.185 64.7543 32.0448L85.2263 20.2464C85.3031 20.191 85.3936 20.1577 85.4879 20.1501C85.5823 20.1425 85.6769 20.1609 85.7615 20.2032C85.8959 20.28 86.5103 20.64 86.6687 20.7144Z" fill="#0E53BE"/>
<path d="M86.9084 21.2016C86.9084 20.7216 86.5772 20.544 86.1692 20.7792L65.6996 32.5776C65.4843 32.7181 65.3052 32.9073 65.1767 33.13C65.0483 33.3527 64.9742 33.6025 64.9604 33.8592V36.2784L86.9084 23.6304V21.2016Z" fill="#0E53BE"/>
<g opacity="0.4">
<path d="M86.1598 20.7792L65.6926 32.5776C65.4746 32.7127 65.2945 32.901 65.1694 33.1248L64.231 32.5824C64.3528 32.3612 64.5297 32.1752 64.7446 32.0424L85.2238 20.244C85.3009 20.1885 85.3918 20.155 85.4865 20.1474C85.5813 20.1398 85.6763 20.1583 85.7614 20.2008C85.8958 20.2824 86.5078 20.6304 86.6638 20.7144C86.581 20.6822 86.4915 20.6712 86.4035 20.6826C86.3154 20.6939 86.2316 20.7271 86.1598 20.7792Z" fill="white"/>
</g>
<path opacity="0.15" d="M64.0151 35.7266V33.3266C64.0258 33.0649 64.1035 32.8104 64.2407 32.5874L65.1815 33.1274C65.0453 33.3497 64.9693 33.6036 64.9607 33.8642V36.2834L64.0151 35.7266Z" fill="black"/>
<path d="M82.452 23.9569C82.319 24.062 82.2121 24.1964 82.1397 24.3496C82.0672 24.5028 82.0312 24.6707 82.0344 24.8401C82.0344 25.1953 82.2216 25.3753 82.452 25.2433C82.5849 25.1377 82.6917 25.0028 82.7641 24.8493C82.8365 24.6957 82.8726 24.5275 82.8696 24.3577C82.8696 24.0001 82.6824 23.8225 82.452 23.9569Z" fill="#455A64"/>
<path d="M83.9564 23.0858C83.8233 23.1914 83.7165 23.3262 83.644 23.4798C83.5716 23.6334 83.5356 23.8016 83.5388 23.9714C83.5388 24.3266 83.726 24.5066 83.9564 24.3722C84.0901 24.2673 84.1975 24.1326 84.27 23.9788C84.3425 23.8251 84.3781 23.6565 84.374 23.4866C84.374 23.1314 84.1892 22.9514 83.9564 23.0858Z" fill="#455A64"/>
<path d="M85.4612 22.2144C85.3283 22.3201 85.2216 22.4549 85.1491 22.6085C85.0767 22.7621 85.0406 22.9303 85.0436 23.1C85.0436 23.4552 85.2308 23.6352 85.4612 23.5008C85.5949 23.3963 85.7025 23.262 85.7754 23.1087C85.8483 22.9555 85.8845 22.7873 85.8812 22.6176C85.8812 22.2624 85.694 22.08 85.4612 22.2144Z" fill="#455A64"/>
<path opacity="0.9" d="M65.2317 69.9289L65.1405 69.8761L64.9125 69.7489L64.7877 69.6769L64.5933 69.5665C64.5309 69.5281 64.4733 69.4969 64.4301 69.4729C64.3869 69.4489 64.3533 69.4297 64.3389 69.4225C64.2897 69.3974 64.2464 69.3622 64.2117 69.3193C64.1711 69.2754 64.1378 69.2251 64.1133 69.1705C64.0555 69.0483 64.0259 68.9146 64.0269 68.7793V35.7241L64.9725 36.2785V69.3073C64.9763 69.4356 65.0022 69.5623 65.0493 69.6817C65.0807 69.7554 65.1273 69.8217 65.1861 69.8761C65.1967 69.8911 65.2107 69.9034 65.2269 69.9121C65.2276 69.9179 65.2292 69.9236 65.2317 69.9289Z" fill="#37474F"/>
<path d="M66.7772 38.2873C66.7793 38.2394 66.7924 38.1926 66.8156 38.1505L67.3484 37.0489C67.3532 37.0364 67.3615 37.0256 67.3724 37.0177V37.0057C67.3786 37.0011 67.3862 36.9985 67.394 36.9985C67.4018 36.9985 67.4093 37.0011 67.4156 37.0057C67.422 37.0128 67.4268 37.0212 67.4297 37.0303C67.4326 37.0394 67.4335 37.049 67.4324 37.0585V37.4401C67.4368 37.4784 67.4368 37.5171 67.4324 37.5553C67.4222 37.5899 67.4094 37.6236 67.394 37.6561L67.1132 38.2369L67.394 38.4961C67.4104 38.5117 67.4235 38.5305 67.4324 38.5513C67.4373 38.5856 67.4373 38.6203 67.4324 38.6545V39.0241C67.4326 39.0499 67.4268 39.0754 67.4156 39.0985C67.4064 39.1192 67.3914 39.1367 67.3724 39.1489C67.3686 39.1507 67.3645 39.1516 67.3604 39.1516C67.3562 39.1516 67.3521 39.1507 67.3484 39.1489L66.8156 38.6689C66.8023 38.6574 66.792 38.6429 66.7853 38.6267C66.7786 38.6104 66.7758 38.5928 66.7772 38.5753V38.2873Z" fill="#0E53BE"/>
<path d="M68.7239 35.52C68.7332 35.4826 68.7469 35.4463 68.7647 35.412C68.7811 35.3761 68.809 35.3466 68.8439 35.328L69.0431 35.2128C69.0458 35.2101 69.0489 35.208 69.0524 35.2065C69.0559 35.2051 69.0597 35.2043 69.0635 35.2043C69.0673 35.2043 69.071 35.2051 69.0745 35.2065C69.078 35.208 69.0812 35.2101 69.0839 35.2128C69.0907 35.2197 69.0959 35.228 69.0993 35.2371C69.1026 35.2462 69.1039 35.256 69.1031 35.2656C69.1052 35.2791 69.1052 35.2929 69.1031 35.3064L68.1911 39.1944C68.1829 39.2311 68.17 39.2666 68.1527 39.3C68.1365 39.3373 68.1087 39.3685 68.0735 39.3888L67.8815 39.4992C67.8758 39.5041 67.8686 39.5068 67.8611 39.5068C67.8536 39.5068 67.8464 39.5041 67.8407 39.4992C67.8273 39.4841 67.8204 39.4642 67.8215 39.444C67.8206 39.4304 67.8206 39.4168 67.8215 39.4032L68.7239 35.52Z" fill="#0E53BE"/>
<path d="M70.1348 36.6241C70.1339 36.6719 70.1215 36.7188 70.0988 36.7609L69.566 37.8625C69.5595 37.8747 69.5515 37.886 69.542 37.8961H69.5276C69.5217 37.9005 69.5146 37.903 69.5072 37.903C69.4998 37.903 69.4927 37.9005 69.4868 37.8961C69.4742 37.8805 69.4682 37.8607 69.47 37.8409V37.4713C69.4656 37.433 69.4656 37.3943 69.47 37.3561C69.4791 37.3212 69.492 37.2874 69.5084 37.2553L69.7892 36.6745L69.5084 36.4177C69.4916 36.4015 69.4785 36.3818 69.47 36.3601C69.4651 36.3258 69.4651 36.2911 69.47 36.2569V35.8873C69.4701 35.8615 69.4758 35.8361 69.4868 35.8129C69.4959 35.7929 69.51 35.7755 69.5276 35.7625H69.542C69.542 35.7625 69.5564 35.7625 69.566 35.7625L70.0988 36.2425C70.1118 36.2546 70.1218 36.2696 70.1281 36.2862C70.1343 36.3029 70.1366 36.3208 70.1348 36.3385V36.6241Z" fill="#0E53BE"/>
<path d="M71.6133 36.3674C71.6208 36.3616 71.6301 36.3584 71.6397 36.3584C71.6492 36.3584 71.6585 36.3616 71.6661 36.3674C71.674 36.3766 71.6799 36.3873 71.6836 36.3988C71.6874 36.4104 71.6887 36.4225 71.6877 36.4346V36.8402C71.6877 36.8719 71.6803 36.9031 71.6661 36.9314C71.6558 36.9581 71.6373 36.9808 71.6133 36.9962L71.3733 37.1402C71.3666 37.1468 71.3575 37.1505 71.3481 37.1505C71.3387 37.1505 71.3296 37.1468 71.3229 37.1402C71.3148 37.1316 71.3087 37.1214 71.305 37.1102C71.3012 37.099 71.3 37.0871 71.3013 37.0754V36.6674C71.3016 36.6358 71.3089 36.6046 71.3229 36.5762C71.3331 36.5508 71.3506 36.5291 71.3733 36.5138L71.6133 36.3674Z" fill="#0E53BE"/>
<path d="M72.4534 35.8849C72.4608 35.8787 72.4701 35.8752 72.4798 35.8752C72.4895 35.8752 72.4988 35.8787 72.5062 35.8849C72.5141 35.8941 72.5201 35.9048 72.5238 35.9164C72.5275 35.9279 72.5289 35.9401 72.5278 35.9521V36.3577C72.5278 36.3894 72.5204 36.4206 72.5062 36.4489C72.4959 36.4756 72.4775 36.4983 72.4534 36.5137L72.2134 36.6577C72.2059 36.6636 72.1966 36.6667 72.187 36.6667C72.1775 36.6667 72.1682 36.6636 72.1606 36.6577C72.1527 36.6485 72.1468 36.6378 72.143 36.6263C72.1393 36.6148 72.138 36.6026 72.139 36.5905V36.1825C72.1396 36.1509 72.147 36.1198 72.1606 36.0913C72.1709 36.0653 72.1894 36.0434 72.2134 36.0289L72.4534 35.8849Z" fill="#0E53BE"/>
<path d="M73.2936 35.4002C73.3003 35.3936 73.3094 35.3899 73.3188 35.3899C73.3282 35.3899 73.3372 35.3936 73.344 35.4002C73.3519 35.4094 73.3578 35.4201 73.3615 35.4316C73.3652 35.4431 73.3666 35.4553 73.3656 35.4674V35.873C73.3653 35.9054 73.358 35.9373 73.344 35.9666C73.3331 35.9915 73.3157 36.0131 73.2936 36.029L73.0416 36.173C73.0346 36.1791 73.0256 36.1824 73.0164 36.1824C73.0071 36.1824 72.9982 36.1791 72.9912 36.173C72.9833 36.1638 72.9773 36.1531 72.9736 36.1416C72.9699 36.13 72.9685 36.1179 72.9696 36.1058V35.6978C72.9702 35.6662 72.9775 35.6351 72.9912 35.6066C73.0021 35.5816 73.0195 35.5601 73.0416 35.5442L73.2936 35.4002Z" fill="#0E53BE"/>
<path d="M67.0028 41.2561L79.3004 34.1569C79.4468 34.0729 79.5644 34.1329 79.5644 34.2889C79.558 34.3774 79.5307 34.4631 79.4849 34.5391C79.439 34.615 79.3758 34.679 79.3004 34.7257L67.0028 41.8273C66.8564 41.9113 66.7388 41.8513 66.7388 41.6929C66.7453 41.6045 66.7727 41.5189 66.8185 41.443C66.8644 41.3671 66.9275 41.3031 67.0028 41.2561Z" fill="#0E53BE"/>
<path d="M70.9486 45.8136L83.2462 38.712C83.3926 38.628 83.5102 38.688 83.5102 38.8464C83.5036 38.9349 83.4763 39.0205 83.4304 39.0964C83.3845 39.1723 83.3214 39.2363 83.2462 39.2832L70.9486 46.3824C70.8022 46.4664 70.6846 46.4064 70.6846 46.2504C70.6909 46.162 70.7182 46.0762 70.7641 46.0003C70.81 45.9244 70.8732 45.8604 70.9486 45.8136Z" fill="#E0E0E0"/>
<path d="M70.9486 48.0912L76.8358 44.6952C76.9798 44.6112 77.0974 44.6712 77.0974 44.8296C77.0911 44.9175 77.0641 45.0027 77.0186 45.0782C76.9732 45.1536 76.9105 45.2173 76.8358 45.264L70.9486 48.6624C70.8022 48.744 70.6846 48.6864 70.6846 48.528C70.6911 48.4396 70.7185 48.3539 70.7643 48.278C70.8102 48.2021 70.8733 48.1381 70.9486 48.0912Z" fill="#E0E0E0"/>
<path d="M70.9486 50.3689L76.8358 46.9729C76.9798 46.8913 77.0974 46.9489 77.0974 47.1073C77.0907 47.1955 77.0636 47.2808 77.0182 47.3566C76.9728 47.4325 76.9103 47.4967 76.8358 47.5441L70.9486 50.9401C70.8022 51.0241 70.6846 50.9641 70.6846 50.8057C70.6911 50.7173 70.7185 50.6317 70.7643 50.5558C70.8102 50.4799 70.8733 50.4159 70.9486 50.3689Z" fill="#E0E0E0"/>
<path d="M80.3206 33.569L85.219 30.7202C85.3654 30.6362 85.483 30.6962 85.483 30.8522C85.4767 30.9407 85.4494 31.0264 85.4035 31.1023C85.3576 31.1782 85.2944 31.2422 85.219 31.289L80.3206 34.1282C80.1742 34.2122 80.0566 34.1522 80.0566 33.9962C80.0645 33.9094 80.0924 33.8256 80.1382 33.7514C80.184 33.6773 80.2465 33.6148 80.3206 33.569Z" fill="#0E53BE"/>
<path d="M67.0028 66.3145L79.3004 59.2153C79.4468 59.1313 79.5644 59.1913 79.5644 59.3473C79.558 59.4358 79.5307 59.5215 79.4849 59.5974C79.439 59.6733 79.3758 59.7373 79.3004 59.7841L67.0028 66.8857C66.8564 66.9673 66.7388 66.9097 66.7388 66.7513C66.7453 66.6628 66.7727 66.5772 66.8185 66.5013C66.8644 66.4254 66.9275 66.3614 67.0028 66.3145Z" fill="#0E53BE"/>
<path d="M80.3206 58.625L85.219 55.7858C85.3654 55.7018 85.483 55.7618 85.483 55.9202C85.4765 56.0086 85.4491 56.0942 85.4033 56.1701C85.3574 56.246 85.2943 56.31 85.219 56.357L80.3206 59.1962C80.1742 59.2802 80.0566 59.2202 80.0566 59.0618C80.0632 58.9733 80.0905 58.8877 80.1364 58.8118C80.1823 58.7359 80.2454 58.6719 80.3206 58.625Z" fill="#0E53BE"/>
<path d="M80.3206 51.8042L85.219 48.9602C85.3654 48.8762 85.483 48.9362 85.483 49.0922C85.4767 49.1806 85.4494 49.2664 85.4035 49.3423C85.3576 49.4182 85.2944 49.4822 85.219 49.529L80.3206 52.3682C80.1742 52.4522 80.0566 52.3922 80.0566 52.2362C80.0638 52.1485 80.0913 52.0638 80.1372 51.9887C80.1831 51.9137 80.2459 51.8505 80.3206 51.8042Z" fill="#0E53BE"/>
<path d="M80.3206 54.0816L85.219 51.2424C85.3654 51.1584 85.483 51.2184 85.483 51.3744C85.4767 51.4629 85.4494 51.5486 85.4035 51.6245C85.3576 51.7004 85.2944 51.7644 85.219 51.8112L80.3206 54.6504C80.1742 54.7344 80.0566 54.6744 80.0566 54.5184C80.063 54.4299 80.0903 54.3442 80.1362 54.2683C80.182 54.1923 80.2453 54.1284 80.3206 54.0816Z" fill="#0E53BE"/>
<path d="M67.0028 64.0394L79.3004 56.9378C79.4468 56.8562 79.5644 56.9138 79.5644 57.0722C79.5578 57.1606 79.5305 57.2463 79.4846 57.3222C79.4387 57.3981 79.3756 57.4621 79.3004 57.509L67.0028 64.6082C66.8564 64.6922 66.7388 64.6322 66.7388 64.4762C66.7451 64.3877 66.7724 64.302 66.8183 64.2261C66.8642 64.1501 66.9274 64.0862 67.0028 64.0394Z" fill="#F5F5F5"/>
<path d="M76.1419 54.2089L78.8947 52.6201C79.0387 52.5361 79.1563 52.5961 79.1563 52.7521C79.15 52.8403 79.1231 52.9258 79.0776 53.0017C79.0322 53.0775 78.9695 53.1417 78.8947 53.1889L76.1419 54.7777C75.9955 54.8617 75.8779 54.8041 75.8779 54.6457C75.8843 54.5572 75.9116 54.4715 75.9574 54.3955C76.0033 54.3196 76.0666 54.2556 76.1419 54.2089Z" fill="#0E53BE"/>
<path d="M67.0028 43.541L74.1764 39.3962C74.3204 39.3122 74.438 39.3722 74.438 39.5282C74.4317 39.6164 74.4047 39.7019 74.3593 39.7778C74.3138 39.8537 74.2512 39.9178 74.1764 39.965L67.0028 44.1098C66.8564 44.1938 66.7388 44.1338 66.7388 43.9778C66.7451 43.8893 66.7724 43.8036 66.8183 43.7277C66.8642 43.6517 66.9274 43.5878 67.0028 43.541Z" fill="#0E53BE"/>
<path opacity="0.6" d="M67.0028 43.541L74.1764 39.3962C74.3204 39.3122 74.438 39.3722 74.438 39.5282C74.4317 39.6164 74.4047 39.7019 74.3593 39.7778C74.3138 39.8537 74.2512 39.9178 74.1764 39.965L67.0028 44.1098C66.8564 44.1938 66.7388 44.1338 66.7388 43.9778C66.7451 43.8893 66.7724 43.8036 66.8183 43.7277C66.8642 43.6517 66.9274 43.5878 67.0028 43.541Z" fill="white"/>
<path d="M67.0028 45.8136L69.4364 44.4C69.5804 44.316 69.698 44.376 69.698 44.5344C69.6913 44.6226 69.6642 44.7079 69.6188 44.7837C69.5734 44.8596 69.5109 44.9238 69.4364 44.9712L67.0028 46.3776C66.8564 46.4616 66.7388 46.4016 66.7388 46.2432C66.7464 46.156 66.7743 46.0718 66.8201 45.9973C66.8659 45.9227 66.9285 45.8598 67.0028 45.8136Z" fill="#0E53BE"/>
<path opacity="0.6" d="M67.0028 45.8136L69.4364 44.4C69.5804 44.316 69.698 44.376 69.698 44.5344C69.6913 44.6226 69.6642 44.7079 69.6188 44.7837C69.5734 44.8596 69.5109 44.9238 69.4364 44.9712L67.0028 46.3776C66.8564 46.4616 66.7388 46.4016 66.7388 46.2432C66.7464 46.156 66.7743 46.0718 66.8201 45.9973C66.8659 45.9227 66.9285 45.8598 67.0028 45.8136Z" fill="white"/>
<path d="M67.0028 48.0937L69.4364 46.6849C69.5804 46.6009 69.698 46.6609 69.698 46.8193C69.6913 46.9075 69.6642 46.9928 69.6188 47.0686C69.5734 47.1445 69.5109 47.2087 69.4364 47.2561L67.0028 48.6625C66.8564 48.7465 66.7388 48.6865 66.7388 48.5281C66.7451 48.44 66.7724 48.3546 66.8183 48.2791C66.8642 48.2035 66.9274 48.14 67.0028 48.0937Z" fill="#0E53BE"/>
<path opacity="0.6" d="M67.0028 48.0937L69.4364 46.6849C69.5804 46.6009 69.698 46.6609 69.698 46.8193C69.6913 46.9075 69.6642 46.9928 69.6188 47.0686C69.5734 47.1445 69.5109 47.2087 69.4364 47.2561L67.0028 48.6625C66.8564 48.7465 66.7388 48.6865 66.7388 48.5281C66.7451 48.44 66.7724 48.3546 66.8183 48.2791C66.8642 48.2035 66.9274 48.14 67.0028 48.0937Z" fill="white"/>
<path d="M67.0028 50.3713L69.4364 48.9601C69.5804 48.8761 69.698 48.9337 69.698 49.0921C69.6917 49.1804 69.6647 49.2659 69.6193 49.3417C69.5738 49.4176 69.5112 49.4817 69.4364 49.5289L67.0028 50.9353C66.8564 51.0193 66.7388 50.9593 66.7388 50.8033C66.7459 50.7157 66.7735 50.6309 66.8193 50.5559C66.8652 50.4809 66.928 50.4177 67.0028 50.3713Z" fill="#0E53BE"/>
<path opacity="0.6" d="M67.0028 50.3713L69.4364 48.9601C69.5804 48.8761 69.698 48.9337 69.698 49.0921C69.6917 49.1804 69.6647 49.2659 69.6193 49.3417C69.5738 49.4176 69.5112 49.4817 69.4364 49.5289L67.0028 50.9353C66.8564 51.0193 66.7388 50.9593 66.7388 50.8033C66.7459 50.7157 66.7735 50.6309 66.8193 50.5559C66.8652 50.4809 66.928 50.4177 67.0028 50.3713Z" fill="white"/>
<path d="M67.0028 52.6488L69.4364 51.2424C69.5804 51.1584 69.698 51.2184 69.698 51.3744C69.6917 51.4626 69.6647 51.5481 69.6193 51.624C69.5738 51.6999 69.5112 51.764 69.4364 51.8112L67.0028 53.2176C66.8564 53.3016 66.7388 53.2416 66.7388 53.0856C66.7451 52.9971 66.7724 52.9114 66.8183 52.8355C66.8642 52.7595 66.9274 52.6956 67.0028 52.6488Z" fill="#0E53BE"/>
<path opacity="0.6" d="M67.0028 52.6488L69.4364 51.2424C69.5804 51.1584 69.698 51.2184 69.698 51.3744C69.6917 51.4626 69.6647 51.5481 69.6193 51.624C69.5738 51.6999 69.5112 51.764 69.4364 51.8112L67.0028 53.2176C66.8564 53.3016 66.7388 53.2416 66.7388 53.0856C66.7451 52.9971 66.7724 52.9114 66.8183 52.8355C66.8642 52.7595 66.9274 52.6956 67.0028 52.6488Z" fill="white"/>
<path d="M75.1942 38.8081L78.3142 37.0129C78.4582 36.9289 78.5782 36.9889 78.5782 37.1449C78.5715 37.2333 78.5441 37.3188 78.4982 37.3947C78.4524 37.4706 78.3893 37.5346 78.3142 37.5817L75.1942 39.3769C75.0502 39.4609 74.9326 39.4009 74.9326 39.2449C74.9389 39.1567 74.9659 39.0712 75.0113 38.9953C75.0568 38.9194 75.1194 38.8553 75.1942 38.8081Z" fill="#0E53BE"/>
<path opacity="0.6" d="M75.1942 38.8081L78.3142 37.0129C78.4582 36.9289 78.5782 36.9889 78.5782 37.1449C78.5715 37.2333 78.5441 37.3188 78.4982 37.3947C78.4524 37.4706 78.3893 37.5346 78.3142 37.5817L75.1942 39.3769C75.0502 39.4609 74.9326 39.4009 74.9326 39.2449C74.9389 39.1567 74.9659 39.0712 75.0113 38.9953C75.0568 38.9194 75.1194 38.8553 75.1942 38.8081Z" fill="white"/>
<path d="M73.9198 50.9354L81.0814 46.8002C81.2254 46.7162 81.343 46.7762 81.343 46.9346C81.3363 47.0227 81.3092 47.1081 81.2638 47.1839C81.2184 47.2597 81.1559 47.3239 81.0814 47.3714L73.9198 51.5066C73.7758 51.5906 73.6558 51.5306 73.6558 51.3722C73.6623 51.2837 73.6897 51.1981 73.7355 51.1222C73.7814 51.0463 73.8445 50.9823 73.9198 50.9354Z" fill="#F5F5F5"/>
<path d="M78.0453 50.8344L85.2189 46.6896C85.3653 46.6056 85.4829 46.6656 85.4829 46.8216C85.4765 46.9101 85.4493 46.9958 85.4034 47.0718C85.3575 47.1477 85.2943 47.2117 85.2189 47.2585L78.0453 51.4032C77.9013 51.4872 77.7837 51.4273 77.7837 51.2713C77.79 51.183 77.817 51.0975 77.8624 51.0216C77.9078 50.9458 77.9705 50.8816 78.0453 50.8344Z" fill="#F5F5F5"/>
<path d="M82.1014 46.2026L85.2214 44.4074C85.3678 44.3234 85.4854 44.3834 85.4854 44.5418C85.4788 44.6302 85.4515 44.7158 85.4056 44.7917C85.3598 44.8676 85.2966 44.9316 85.2214 44.9786L82.1014 46.7738C81.955 46.8554 81.8374 46.7978 81.8374 46.6394C81.844 46.5509 81.8713 46.4653 81.9172 46.3894C81.963 46.3135 82.0262 46.2495 82.1014 46.2026Z" fill="#F5F5F5"/>
<path d="M70.9486 43.536L78.1222 39.3912C78.2662 39.3072 78.3838 39.3672 78.3838 39.5256C78.3771 39.6138 78.35 39.6991 78.3046 39.7749C78.2592 39.8508 78.1967 39.915 78.1222 39.9624L70.9486 44.1048C70.8022 44.1888 70.6846 44.1312 70.6846 43.9728C70.6911 43.8844 70.7185 43.7988 70.7643 43.7229C70.8102 43.647 70.8733 43.583 70.9486 43.536Z" fill="#0E53BE"/>
<path opacity="0.6" d="M70.9486 43.536L78.1222 39.3912C78.2662 39.3072 78.3838 39.3672 78.3838 39.5256C78.3771 39.6138 78.35 39.6991 78.3046 39.7749C78.2592 39.8508 78.1967 39.915 78.1222 39.9624L70.9486 44.1048C70.8022 44.1888 70.6846 44.1312 70.6846 43.9728C70.6911 43.8844 70.7185 43.7988 70.7643 43.7229C70.8102 43.647 70.8733 43.583 70.9486 43.536Z" fill="white"/>
<path d="M79.1395 38.8032L82.2595 37.008C82.4059 36.924 82.5235 36.984 82.5235 37.14C82.5172 37.2285 82.4899 37.3142 82.444 37.3901C82.3981 37.4661 82.3349 37.53 82.2595 37.5768L79.1395 39.372C78.9955 39.456 78.8779 39.396 78.8779 39.24C78.8842 39.1518 78.9112 39.0663 78.9566 38.9904C79.0021 38.9145 79.0647 38.8504 79.1395 38.8032Z" fill="#0E53BE"/>
<path opacity="0.6" d="M79.1395 38.8032L82.2595 37.008C82.4059 36.924 82.5235 36.984 82.5235 37.14C82.5172 37.2285 82.4899 37.3142 82.444 37.3901C82.3981 37.4661 82.3349 37.53 82.2595 37.5768L79.1395 39.372C78.9955 39.456 78.8779 39.396 78.8779 39.24C78.8842 39.1518 78.9112 39.0663 78.9566 38.9904C79.0021 38.9145 79.0647 38.8504 79.1395 38.8032Z" fill="white"/>
<path d="M94.3462 65.813C95.2846 65.9954 95.7118 66.3146 96.2446 67.6154C96.7774 68.9162 97.7302 72.0842 97.951 72.9554C98.0518 73.3442 95.587 76.829 95.6926 76.7762C95.7238 76.7618 94.7326 75.0962 94.7326 75.0962L95.9446 72.7826L95.083 70.6754L94.3462 65.813Z" fill="#FFA8A7"/>
<path d="M94.0296 65.8321C94.0296 65.8321 94.884 65.6785 95.4504 66.1489C96.0168 66.6193 96.1032 66.9337 96.4872 67.8985C96.8712 68.8633 97.5 70.8745 97.5 70.8745C97.5 70.8745 97.3176 71.9545 95.5584 72.1681L94.0512 68.7721C94.0512 68.7721 93.5256 66.7201 94.0296 65.8321Z" fill="#0E53BE"/>
<path d="M92.2631 93.6985C92.2104 94.0034 92.2293 94.3165 92.3183 94.6129C92.474 94.9745 92.7306 95.2837 93.0575 95.5033C93.2942 95.7231 93.5007 95.9733 93.6719 96.2473C93.839 96.5485 94.0556 96.8195 94.3127 97.0489C94.5119 97.2217 95.0759 97.2385 95.3471 97.1233C95.6183 97.0081 95.7119 96.9073 95.6951 96.4729C95.6783 96.0385 94.3607 95.8897 94.3607 95.8897L92.2631 93.6985Z" fill="#455A64"/>
<path d="M95.5197 95.1793C95.6301 95.2201 95.6589 95.4337 95.6757 95.8609C95.6901 96.1825 95.8245 96.6529 95.3805 96.8545C95.1836 96.9335 94.9678 96.9528 94.76 96.9101C94.5522 96.8675 94.3615 96.7647 94.2117 96.6145C93.9093 96.2353 93.7053 95.8945 93.2757 95.4409C92.9013 95.0401 92.5149 94.9057 92.3469 94.1041C92.2413 93.5905 92.3253 93.3841 92.6709 93.2281C93.1509 93.0265 93.8973 93.6889 94.2693 93.7921C94.5957 93.8761 95.4117 95.1361 95.5197 95.1793Z" fill="#0E53BE"/>
<path opacity="0.2" d="M95.5197 95.1793C95.6301 95.2201 95.6589 95.4337 95.6757 95.8609C95.6901 96.1825 95.8245 96.6529 95.3805 96.8545C95.1836 96.9335 94.9678 96.9528 94.76 96.9101C94.5522 96.8675 94.3615 96.7647 94.2117 96.6145C93.9093 96.2353 93.7053 95.8945 93.2757 95.4409C92.9013 95.0401 92.5149 94.9057 92.3469 94.1041C92.2413 93.5905 92.3253 93.3841 92.6709 93.2281C93.1509 93.0265 93.8973 93.6889 94.2693 93.7921C94.5957 93.8761 95.4117 95.1361 95.5197 95.1793Z" fill="black"/>
<path d="M94.2744 93.785L94.212 93.7634C93.9956 93.775 93.786 93.8437 93.6047 93.9626C93.4234 94.0814 93.2769 94.2463 93.18 94.4402C93.1176 94.5818 93.312 94.6802 93.42 94.5818C93.5233 94.3937 93.6712 94.2338 93.8507 94.1162C94.0303 93.9986 94.2359 93.9269 94.4496 93.9074C94.3998 93.8556 94.3403 93.814 94.2744 93.785Z" fill="#FAFAFA"/>
<path d="M94.5815 94.0273C94.3779 94.0499 94.1834 94.1233 94.0156 94.2407C93.8479 94.3581 93.7123 94.5158 93.6215 94.6993C93.5591 94.8385 93.7535 94.9393 93.8615 94.8385C93.949 94.6753 94.0714 94.5334 94.2198 94.4226C94.3683 94.3119 94.5393 94.2351 94.7207 94.1977C94.6823 94.1377 94.6319 94.0801 94.5815 94.0273Z" fill="#FAFAFA"/>
<path d="M86.2749 100.277C86.2029 100.637 86.3325 100.824 86.7981 101.093C87.4092 101.394 88.1144 101.444 88.7613 101.23C89.5293 101.006 89.8965 100.673 90.2157 100.591C90.5349 100.51 91.3245 100.505 91.6389 100.414C91.9533 100.322 91.9485 100.159 91.9485 99.78L86.2749 100.277Z" fill="#455A64"/>
<path d="M91.6389 97.9514C91.6389 97.9514 91.7877 98.4074 91.8789 98.8034C91.9437 99.1202 92.0349 99.6458 91.9245 99.8834C91.8141 100.121 91.3821 100.275 90.7245 100.27C90.2925 100.27 89.6157 100.56 89.1549 100.817C88.6905 101.047 88.1643 101.12 87.6549 101.026C87.0597 100.956 86.4549 100.611 86.3493 100.366C86.2437 100.121 86.2269 99.9338 87.6285 99.3362C87.6429 99.3362 89.2557 98.7362 89.9325 97.9874L91.6389 97.9514Z" fill="#0E53BE"/>
<g opacity="0.2">
<path d="M91.6389 97.9514C91.6389 97.9514 91.7877 98.4074 91.8789 98.8034C91.9437 99.1202 92.0349 99.6458 91.9245 99.8834C91.8141 100.121 91.3821 100.275 90.7245 100.27C90.2925 100.27 89.6157 100.56 89.1549 100.817C88.6905 101.047 88.1643 101.12 87.6549 101.026C87.0597 100.956 86.4549 100.611 86.3493 100.366C86.2437 100.121 86.2269 99.9338 87.6285 99.3362C87.6429 99.3362 89.2557 98.7362 89.9325 97.9874L91.6389 97.9514Z" fill="black"/>
</g>
<path d="M88.9441 100.911C88.9441 100.911 88.8241 99.7106 87.8473 99.3626C86.9617 99.0506 86.1913 99.7058 86.2753 100.277C86.3329 100.659 87.4105 101.52 88.9441 100.911Z" fill="#FAFAFA"/>
<path d="M88.0942 99.137C88.3433 99.1601 88.5778 99.2647 88.7614 99.4346C89.0446 99.6746 89.0518 99.8282 89.0518 99.8282C89.0736 99.8506 89.1018 99.8656 89.1326 99.8711C89.1633 99.8765 89.195 99.8722 89.2231 99.8586C89.2513 99.8451 89.2744 99.8231 89.2894 99.7956C89.3043 99.7682 89.3102 99.7368 89.3062 99.7058C89.3062 99.7058 89.2414 99.0986 88.4422 98.9858C88.3757 98.9712 88.3063 98.978 88.2438 99.0051C88.1813 99.0323 88.129 99.0784 88.0942 99.137Z" fill="#FAFAFA"/>
<path d="M88.6533 98.8802C88.9039 98.882 89.1446 98.9779 89.3277 99.149C89.6085 99.389 89.6109 99.5738 89.6109 99.5738C89.6327 99.5962 89.6609 99.6112 89.6917 99.6166C89.7224 99.6221 89.7541 99.6178 89.7822 99.6042C89.8104 99.5907 89.8335 99.5686 89.8484 99.5412C89.8634 99.5138 89.8693 99.4823 89.8653 99.4514C89.8653 99.4514 89.8005 98.8442 89.0013 98.7194C88.9337 98.7057 88.8636 98.7139 88.801 98.7428C88.7384 98.7717 88.6867 98.8198 88.6533 98.8802Z" fill="#FAFAFA"/>
<path d="M89.208 98.5513C89.4583 98.5363 89.705 98.616 89.8992 98.7745C90.1968 98.9905 90.2112 99.1777 90.2112 99.1777C90.2346 99.1965 90.2632 99.2077 90.2931 99.2099C90.323 99.2122 90.3529 99.2053 90.3789 99.1903C90.4048 99.1752 90.4256 99.1527 90.4385 99.1256C90.4514 99.0985 90.4559 99.0682 90.4512 99.0385C90.4512 99.0385 90.3432 98.4361 89.5368 98.3665C89.4696 98.3595 89.4019 98.3735 89.343 98.4066C89.2841 98.4397 89.237 98.4903 89.208 98.5513Z" fill="#FAFAFA"/>
<path d="M95.5201 94.4905V95.3065C95.3242 95.432 95.0977 95.5016 94.8651 95.508C94.6325 95.5143 94.4026 95.4571 94.2001 95.3425C94.1761 95.2921 94.1113 94.4905 94.1113 94.4905H95.5201Z" fill="#FFA8A7"/>
<path d="M91.6393 97.3872C91.6393 97.3872 91.6393 97.776 91.6393 97.9968C91.6393 98.2176 91.3801 98.5488 90.7033 98.5248C90.2233 98.508 89.8969 98.3784 89.9137 97.9872V97.4232L91.6393 97.3872Z" fill="#FFA8A7"/>
<path d="M96.4031 87.5642C96.3599 85.841 96.0071 85.085 96.0071 85.085C96.0071 85.085 96.1367 82.9586 96.4247 80.3546C96.8591 76.3922 96.6647 75.6242 95.8775 73.8386C95.8775 73.8386 89.2031 73.1642 89.0015 75.9362C88.7471 79.3898 88.7183 86.4146 88.8095 87.6338C88.9007 88.853 88.8983 87.7274 89.1959 90.197C89.4359 92.1506 89.9159 97.4234 89.9159 97.4234C90.1844 97.5593 90.4823 97.6271 90.7832 97.6208C91.0841 97.6145 91.3788 97.5344 91.6415 97.3874C91.6415 97.3874 92.1863 90.9362 92.1215 89.5274C92.1147 88.8045 92.0594 88.0829 91.9559 87.3674C91.9559 87.3674 92.7359 81.8018 92.8559 80.9066C92.8559 80.9066 92.9639 82.5098 93.0575 83.729C93.1511 84.9482 93.1415 85.9322 93.3983 88.4546C93.5999 90.4346 94.0871 94.709 94.0871 94.709C94.3219 94.8043 94.5755 94.8442 94.8281 94.8254C95.0808 94.8067 95.3258 94.7299 95.5439 94.601C95.5439 94.601 96.4391 88.9562 96.4031 87.5642Z" fill="#455A64"/>
<path d="M92.5725 94.6896C92.5725 94.6896 92.6085 93.7296 93.8973 93.6048L93.9717 93.6456C93.8266 93.4133 93.6011 93.2424 93.3381 93.1656C93.1639 93.1022 92.9741 93.0957 92.796 93.147C92.6179 93.1984 92.4607 93.3049 92.3469 93.4512C92.1213 93.732 92.3493 94.5048 92.5725 94.6896Z" fill="#FAFAFA"/>
<path d="M90.9287 64.9154L91.2431 67.493L93.5087 67.289L93.2519 64.4258L90.9287 64.9154Z" fill="#FFA8A7"/>
<path d="M95.7215 67.0585C95.4815 66.3817 94.9007 65.6713 94.0415 65.8321C93.8015 65.8753 93.6143 65.9065 93.4007 65.9497C93.3815 66.5449 92.2607 66.8521 91.1471 66.4921C90.8111 66.5881 90.5039 66.6865 90.2255 66.7849C89.4263 67.0705 89.1071 68.3953 89.0879 70.6249C89.0687 72.8545 88.7471 77.2801 88.7471 77.2801C88.7471 77.2801 90.4271 78.1705 93.5639 77.6017C96.7007 77.0329 96.6503 75.9649 96.6503 75.9649C96.6503 75.9649 96.5879 74.6641 95.1719 72.4801C96.3743 69.2857 96.0911 68.0665 95.7215 67.0585Z" fill="#37474F"/>
<path d="M89.2437 61.6393C89.1073 61.3309 89.0515 60.9929 89.0817 60.657C89.112 60.3211 89.2272 59.9984 89.4165 59.7193C90.1773 58.5193 91.6437 58.3201 93.3813 58.7881C93.9877 58.9741 94.5219 59.3427 94.911 59.8435C95.3002 60.3443 95.5253 60.953 95.5557 61.5865C95.6397 62.8609 92.0853 63.8017 92.1645 64.6753L89.2437 61.6393Z" fill="#263238"/>
<path d="M89.1693 62.124C89.1693 62.124 88.6893 62.8968 88.7541 62.976C88.8734 63.0507 89.005 63.1036 89.1429 63.132L89.1693 62.124Z" fill="#F28F8F"/>
<path d="M90.6409 59.6738C90.1609 59.9378 89.3257 60.4274 89.1577 62.2346C88.9849 64.0898 89.4121 64.721 89.6713 64.9562C89.8465 65.1146 90.7249 65.1506 91.1785 64.997C91.7473 64.8026 92.9713 64.157 93.5281 63.1874C94.1833 62.045 94.2841 60.5474 93.4777 59.981C93.0695 59.6938 92.5951 59.515 92.0989 59.4612C91.6028 59.4075 91.1011 59.4806 90.6409 59.6738Z" fill="#FFA8A7"/>
<path d="M90.6649 61.8554C90.3525 61.7388 90.0778 61.5394 89.8702 61.2785C89.6626 61.0176 89.5299 60.7051 89.4865 60.3746C89.3065 59.1962 90.7753 58.6946 90.7753 58.6946L90.6649 61.8554Z" fill="#263238"/>
<path d="M90.4966 59.7601C90.4966 59.7601 90.1174 61.4593 90.6574 62.5105C90.6574 62.5105 90.9382 61.8457 91.507 62.0185C92.0758 62.1913 92.0518 62.9545 91.6126 63.3529C91.5015 63.4674 91.3603 63.5481 91.2052 63.5854C91.0501 63.6228 90.8876 63.6154 90.7366 63.5641C90.928 64.0449 91.2163 64.4812 91.5838 64.8457C91.5838 64.8457 93.2638 65.5993 94.7374 63.9481C96.0646 62.4481 95.8174 59.8345 93.7774 59.2177C91.7374 58.6009 90.4966 59.7601 90.4966 59.7601Z" fill="#263238"/>
<path d="M97.4997 66.4058C96.8878 66.4058 96.3009 66.1629 95.868 65.7305C95.4351 65.298 95.1916 64.7113 95.1909 64.0994V60.2402C95.8028 60.2402 96.3897 60.4832 96.8226 60.9156C97.2556 61.3481 97.4991 61.9347 97.4997 62.5466V66.4058Z" fill="#263238"/>
<path d="M95.448 59.7337C95.3982 59.7498 95.352 59.7755 95.3121 59.8094C95.2723 59.8433 95.2395 59.8847 95.2156 59.9313C95.1918 59.9779 95.1774 60.0287 95.1732 60.0808C95.169 60.133 95.1751 60.1855 95.1912 60.2353L95.9496 59.9953C95.934 59.945 95.9086 59.8984 95.8749 59.858C95.8412 59.8176 95.7999 59.7843 95.7532 59.76C95.7066 59.7357 95.6556 59.7208 95.6032 59.7163C95.5508 59.7118 95.4981 59.7177 95.448 59.7337Z" fill="#263238"/>
<path d="M84.4799 70.8696C84.1511 70.4928 84.0959 69.6696 83.6591 69.0912C83.2223 68.5128 83.2991 67.944 83.0255 68.2008C82.7519 68.4576 82.9559 69.4008 82.9559 69.4008C82.9559 69.4008 82.4447 70.3488 82.4015 70.8408C82.3583 71.3328 83.6399 72.5424 83.6399 72.5424L84.4799 70.8696Z" fill="#FFA8A7"/>
<path d="M83.0207 69.329C83.0207 69.329 82.4999 70.049 80.1599 69.1082C79.5143 68.8442 79.9511 70.2338 80.7431 70.8098C81.4775 71.3426 82.3943 71.5082 83.1287 72.0098C83.1311 71.933 83.0207 69.329 83.0207 69.329Z" fill="#FFA8A7"/>
<path d="M90.4103 66.7202C89.7455 66.9602 89.1623 67.2194 88.5383 68.3882C87.7391 69.8906 86.2871 72.833 86.2871 72.833L84.4799 70.8698C84.4799 70.8698 84.2159 70.4978 83.7263 71.309C83.2367 72.1202 83.4527 72.3434 83.4527 72.3434C83.4527 72.3434 85.5599 75.1658 85.9463 75.5234C86.3327 75.881 86.9687 75.605 87.3863 75.0434C87.8039 74.4818 89.9447 70.5962 89.9447 70.5962C89.9447 70.5962 91.3535 68.1362 90.4103 66.7202Z" fill="#FFA8A7"/>
<path d="M90.7341 66.6121C90.3096 66.6492 89.9012 66.7924 89.5464 67.0285C89.1917 67.2646 88.9019 67.586 88.7037 67.9633C87.9069 69.4033 87.0669 71.0281 87.0669 71.0281C87.0669 71.0281 87.6453 72.4225 89.1165 72.5281C89.1165 72.3841 90.3165 70.2481 90.7749 69.3337C91.2333 68.4193 91.1853 67.0225 90.7341 66.6121Z" fill="#0E53BE"/>
<path d="M92.8608 80.9114L92.988 79.5626C93.7138 79.4547 94.4079 79.192 95.0232 78.7922C95.0232 78.7922 94.5888 79.4858 93.4008 79.8026L93.132 81.1202L93.0624 83.7362L92.8608 80.9114Z" fill="#37474F"/>
</svg>
