<svg width="32" height="32" viewBox="0 0 32 32" fill="none" xmlns="http://www.w3.org/2000/svg">
<path d="M23 28.5C23 28.8978 22.842 29.2794 22.5607 29.5607C22.2794 29.842 21.8978 30 21.5 30H3.5C3.10218 30 2.72064 29.842 2.43934 29.5607C2.15804 29.2794 2 28.8978 2 28.5V3.5C2 3.10218 2.15804 2.72064 2.43934 2.43934C2.72064 2.15804 3.10218 2 3.5 2H19V4.5C19 4.89782 19.158 5.27936 19.4393 5.56066C19.7206 5.84196 20.1022 6 20.5 6H23V16.5H24V5.5C24 5.3674 23.9473 5.24025 23.8535 5.1465L19.8535 1.1465C19.7598 1.05273 19.6326 1.00003 19.5 1H3.5C2.8372 1.00079 2.20178 1.26444 1.73311 1.73311C1.26444 2.20178 1.00079 2.8372 1 3.5V28.5C1.00079 29.1628 1.26444 29.7982 1.73311 30.2669C2.20178 30.7356 2.8372 30.9992 3.5 31H21.5C22.1628 30.9992 22.7982 30.7356 23.2669 30.2669C23.7356 29.7982 23.9992 29.1628 24 28.5V26.5H23V28.5ZM20 4.5V2.707L22.293 5H20.5C20.3674 5 20.2402 4.94732 20.1464 4.85355C20.0527 4.75979 20 4.63261 20 4.5Z" fill="#0E53BE"/>
<path d="M4 4H5V5H4V4Z" fill="#0E53BE"/>
<path d="M6 4H9V5H6V4Z" fill="#0E53BE"/>
<path d="M4 6H9V7H4V6Z" fill="#0E53BE"/>
<path d="M30.4349 14.565C29.9657 14.0969 29.3299 13.834 28.6671 13.834C28.0043 13.834 27.3686 14.0969 26.8994 14.565L18.0604 23.404C17.9908 23.4737 17.9433 23.5624 17.9239 23.659L17.5999 25.2785L16.6464 26.232C16.5052 26.3708 16.3929 26.5362 16.316 26.7187C16.2391 26.9012 16.1991 27.0971 16.1983 27.2951C16.1974 27.4931 16.2358 27.6893 16.3112 27.8724C16.3866 28.0555 16.4975 28.2219 16.6375 28.3619C16.7775 28.5019 16.9438 28.6128 17.1269 28.6883C17.31 28.7637 17.5062 28.8021 17.7042 28.8013C17.9022 28.8006 18.0981 28.7606 18.2806 28.6837C18.463 28.6068 18.6285 28.4946 18.7674 28.3535L19.7214 27.4L21.3409 27.076C21.4375 27.0564 21.5262 27.0088 21.5959 26.939L30.4349 18.1C30.9028 17.6308 31.1656 16.9951 31.1656 16.3325C31.1656 15.6698 30.9028 15.0342 30.4349 14.565ZM18.6034 25.361L18.8389 24.182L20.8174 26.1605L19.6389 26.3965L18.6034 25.361ZM19.4744 23.404L25.4849 17.393L26.1924 18.1L20.1819 24.111L19.4744 23.404ZM20.8889 24.818L26.8999 18.8075L27.6069 19.515L21.5959 25.525L20.8889 24.818ZM26.1924 16.686L26.5459 16.3325L28.6674 18.454L28.3134 18.808L26.1924 16.686ZM18.0599 27.6465C17.9647 27.7373 17.8382 27.788 17.7066 27.788C17.5751 27.788 17.4485 27.7373 17.3534 27.6465C17.3069 27.6 17.27 27.5449 17.2448 27.4842C17.2197 27.4235 17.2067 27.3584 17.2067 27.2927C17.2067 27.227 17.2197 27.1619 17.2448 27.1012C17.27 27.0405 17.3069 26.9854 17.3534 26.939L18.0604 26.232L18.7679 26.9395L18.0599 27.6465ZM29.7279 17.3935L29.3744 17.747L27.2529 15.6255L27.6064 15.272C27.7457 15.1327 27.9111 15.0222 28.0931 14.9468C28.2751 14.8714 28.4701 14.8326 28.6671 14.8326C28.8641 14.8326 29.0592 14.8714 29.2412 14.9468C29.4232 15.0222 29.5886 15.1327 29.7279 15.272C29.8672 15.4113 29.9777 15.5766 30.0531 15.7586C30.1285 15.9406 30.1673 16.1357 30.1673 16.3327C30.1673 16.5297 30.1285 16.7248 30.0531 16.9068C29.9777 17.0888 29.8672 17.2542 29.7279 17.3935Z" fill="#0E53BE"/>
<path d="M21.5449 15.305C21.6386 15.2106 21.6912 15.083 21.6912 14.95C21.6912 14.817 21.6386 14.6894 21.5449 14.595L16.5949 9.64498C16.4992 9.55578 16.3732 9.50618 16.2424 9.50618C16.1116 9.50618 15.9856 9.55578 15.8899 9.64498L14.5799 10.955L13.8149 11.105L12.3549 9.64498C12.2596 9.55288 12.1325 9.50097 11.9999 9.49998H10.0849L8.81991 8.22998C8.72551 8.13631 8.59791 8.08374 8.46491 8.08374C8.33192 8.08374 8.20432 8.13631 8.10991 8.22998L3.15991 13.18C3.06624 13.2744 3.01367 13.402 3.01367 13.535C3.01367 13.668 3.06624 13.7956 3.15991 13.89L6.75991 17.49C6.65206 17.7119 6.60114 17.9571 6.61174 18.2036C6.62234 18.4501 6.69413 18.6901 6.82063 18.9019C6.94713 19.1138 7.12436 19.2908 7.33635 19.417C7.54833 19.5432 7.78841 19.6147 8.03491 19.625C8.04834 19.9945 8.20212 20.3449 8.46491 20.605C8.72584 20.8672 9.0754 21.0224 9.44491 21.04C9.46342 21.4093 9.61844 21.7585 9.8799 22.02C10.1414 22.2815 10.4906 22.4365 10.8599 22.455C10.8761 22.7437 10.9754 23.0215 11.1458 23.2551C11.3162 23.4886 11.5504 23.668 11.8204 23.7715C12.0903 23.8751 12.3844 23.8984 12.6673 23.8387C12.9502 23.779 13.2098 23.6388 13.4149 23.435L13.9449 23.965C14.084 24.1044 14.2492 24.2151 14.4311 24.2906C14.613 24.366 14.808 24.4049 15.0049 24.4049C15.2019 24.4049 15.3969 24.366 15.5787 24.2906C15.7606 24.2151 15.9259 24.1044 16.0649 23.965C16.3287 23.7036 16.4825 23.3512 16.4949 22.98C16.8649 22.966 17.2159 22.8131 17.4782 22.5517C17.7404 22.2904 17.8946 21.9399 17.9099 21.57C18.28 21.5537 18.6305 21.3994 18.8924 21.1375C19.1543 20.8756 19.3086 20.525 19.3249 20.155C19.6147 20.1412 19.8943 20.0434 20.1296 19.8736C20.3649 19.7038 20.5457 19.4692 20.6501 19.1985C20.7544 18.9277 20.7779 18.6325 20.7175 18.3487C20.6571 18.0649 20.5155 17.8048 20.3099 17.6L19.7799 17.07L21.5449 15.305ZM4.21991 13.535L8.46491 9.29498L9.16991 9.99998L4.92991 14.245L4.21991 13.535ZM5.63491 14.95L10.0849 10.5H11.7949L15.7099 14.42C15.7574 14.4656 15.7951 14.5204 15.8209 14.5809C15.8467 14.6415 15.86 14.7066 15.86 14.7725C15.86 14.8383 15.8467 14.9035 15.8209 14.964C15.7951 15.0246 15.7574 15.0794 15.7099 15.125C15.6154 15.2164 15.489 15.2676 15.3574 15.2676C15.2259 15.2676 15.0995 15.2164 15.0049 15.125L12.8849 13.005C12.7888 12.9147 12.6618 12.8644 12.5299 12.8644C12.398 12.8644 12.2711 12.9147 12.1749 13.005C11.8896 13.2781 11.5099 13.4305 11.1149 13.4305C10.72 13.4305 10.3402 13.2781 10.0549 13.005L9.34991 13.71C9.53145 13.8883 9.73876 14.0383 9.96491 14.155L7.40491 16.72L5.63491 14.95ZM13.2349 21.135C13.0512 21.3219 12.9194 21.5535 12.8528 21.807C12.7861 22.0604 12.7869 22.3269 12.8549 22.58L12.7049 22.725C12.6587 22.772 12.6033 22.809 12.5423 22.834C12.4813 22.8589 12.4158 22.8712 12.3499 22.87C12.2848 22.8711 12.2201 22.8588 12.1598 22.8338C12.0996 22.8089 12.0452 22.7718 11.9999 22.725C11.9068 22.6326 11.854 22.5072 11.8531 22.376C11.8521 22.2449 11.9031 22.1187 11.9949 22.025C11.9962 22.025 11.9975 22.0245 11.9984 22.0235C11.9994 22.0226 11.9999 22.0213 11.9999 22.02L13.4149 20.61V20.605L12.7049 19.9L11.2899 21.315C11.2849 21.315 11.2849 21.315 11.2849 21.32C11.189 21.4073 11.0637 21.4553 10.9339 21.4543C10.8042 21.4534 10.6796 21.4037 10.5849 21.315C10.492 21.2202 10.4399 21.0927 10.4399 20.96C10.4399 20.8272 10.492 20.6998 10.5849 20.605L11.9999 19.19L11.2949 18.485L9.87991 19.9C9.83329 19.9466 9.77795 19.9836 9.71704 20.0088C9.65613 20.034 9.59084 20.047 9.52491 20.047C9.45898 20.047 9.3937 20.034 9.33279 20.0088C9.27188 19.9836 9.21653 19.9466 9.16991 19.9C9.12329 19.8534 9.08631 19.798 9.06108 19.7371C9.03585 19.6762 9.02287 19.6109 9.02287 19.545C9.02287 19.4791 9.03585 19.4138 9.06108 19.3529C9.08631 19.2919 9.12329 19.2366 9.16991 19.19L10.5849 17.78L9.87991 17.07L8.46491 18.485C8.36935 18.5764 8.24218 18.6275 8.10991 18.6275C7.97765 18.6275 7.85048 18.5764 7.75491 18.485C7.66179 18.3913 7.60952 18.2646 7.60952 18.1325C7.60952 18.0004 7.66179 17.8737 7.75491 17.78L11.0899 14.44C11.0999 14.44 11.1049 14.445 11.1149 14.445C11.6059 14.4466 12.0863 14.3022 12.4949 14.03L14.2999 15.835C14.5858 16.1071 14.9653 16.2588 15.3599 16.2588C15.7545 16.2588 16.1341 16.1071 16.4199 15.835C16.6958 15.559 16.8533 15.1863 16.8589 14.7961C16.8645 14.4058 16.7178 14.0288 16.4499 13.745L19.0749 16.365L18.9249 16.51C18.6714 16.4425 18.4046 16.4426 18.1512 16.5101C17.8977 16.5776 17.6662 16.7103 17.4799 16.895C17.2171 17.155 17.0633 17.5055 17.0499 17.875C16.6773 17.8913 16.3246 18.0476 16.0622 18.3127C15.7999 18.5778 15.6473 18.9322 15.6349 19.305C15.2652 19.3145 14.9131 19.4646 14.6502 19.7248C14.3873 19.9849 14.2334 20.3354 14.2199 20.705C13.8502 20.7239 13.5001 20.8767 13.2349 21.135ZM15.3599 23.26C15.2638 23.3503 15.1368 23.4006 15.0049 23.4006C14.873 23.4006 14.7461 23.3503 14.6499 23.26L13.9449 22.55C13.8926 22.5052 13.8501 22.45 13.8201 22.388C13.79 22.3259 13.7732 22.2584 13.7705 22.1895C13.7679 22.1206 13.7795 22.052 13.8046 21.9878C13.8297 21.9237 13.8679 21.8654 13.9166 21.8167C13.9653 21.7679 14.0236 21.7298 14.0878 21.7047C14.1519 21.6795 14.2206 21.6679 14.2894 21.6706C14.3583 21.6732 14.4259 21.6901 14.4879 21.7201C14.5499 21.7501 14.6051 21.7926 14.6499 21.845L15.3599 22.55C15.4536 22.6444 15.5062 22.772 15.5062 22.905C15.5062 23.038 15.4536 23.1656 15.3599 23.26ZM16.7749 21.845C16.6805 21.9387 16.5529 21.9912 16.4199 21.9912C16.2869 21.9912 16.1593 21.9387 16.0649 21.845L15.3599 21.135C15.2668 21.0413 15.2145 20.9146 15.2145 20.7825C15.2145 20.6504 15.2668 20.5237 15.3599 20.43C15.4536 20.3369 15.5803 20.2846 15.7124 20.2846C15.8445 20.2846 15.9712 20.3369 16.0649 20.43L16.7749 21.135C16.8679 21.2298 16.9199 21.3572 16.9199 21.49C16.9199 21.6227 16.8679 21.7502 16.7749 21.845ZM18.1849 20.43C18.0904 20.5214 17.964 20.5726 17.8324 20.5726C17.7009 20.5726 17.5745 20.5214 17.4799 20.43L16.7749 19.72C16.7274 19.675 16.6895 19.6207 16.6637 19.5605C16.6379 19.5003 16.6247 19.4355 16.6249 19.37C16.6258 19.2377 16.6788 19.111 16.7724 19.0174C16.8659 18.9239 16.9926 18.8709 17.1249 18.87C17.2576 18.8705 17.3848 18.9225 17.4799 19.015L18.1849 19.725C18.278 19.8187 18.3303 19.9454 18.3303 20.0775C18.3303 20.2096 18.278 20.3363 18.1849 20.43ZM19.5999 19.015C19.5062 19.1081 19.3795 19.1604 19.2474 19.1604C19.1153 19.1604 18.9886 19.1081 18.8949 19.015L18.1849 18.31C18.0912 18.2156 18.0387 18.088 18.0387 17.955C18.0387 17.822 18.0912 17.6944 18.1849 17.6C18.2805 17.5083 18.4075 17.4564 18.5399 17.455C18.6726 17.4555 18.7998 17.5075 18.8949 17.6L19.5999 18.31C19.6474 18.3556 19.6851 18.4103 19.7109 18.4709C19.7367 18.5315 19.75 18.5966 19.75 18.6625C19.75 18.7283 19.7367 18.7935 19.7109 18.854C19.6851 18.9146 19.6474 18.9694 19.5999 19.015ZM15.5349 11.415L16.2449 10.705L20.4849 14.95L19.7799 15.655L15.5349 11.415Z" fill="#0E53BE"/>
<path d="M10.5 27H15.5V28H10.5V27Z" fill="#0E53BE"/>
<path d="M4 22H8V23H4V22Z" fill="#0E53BE"/>
<path d="M4 24H9V25H4V24Z" fill="#0E53BE"/>
<path d="M4 20H7V21H4V20Z" fill="#0E53BE"/>
</svg>
