<svg width="33" height="32" viewBox="0 0 33 32" fill="none" xmlns="http://www.w3.org/2000/svg">
<path d="M30.7197 12.266H27.9447C27.7667 11.731 27.5497 11.209 27.2967 10.705L29.2597 8.741C29.5527 8.448 29.5527 7.973 29.2597 7.68L25.0397 3.46C24.7467 3.167 24.2717 3.167 23.9787 3.46L22.0147 5.424C21.5107 5.171 20.9887 4.954 20.4537 4.776V2C20.4537 1.586 20.1177 1.25 19.7037 1.25H13.7347C13.3207 1.25 12.9847 1.586 12.9847 2V4.775C12.4497 4.953 11.9277 5.17 11.4237 5.423L9.46073 3.46C9.16773 3.167 8.69273 3.167 8.39973 3.46L4.17973 7.68C3.88673 7.973 3.88673 8.448 4.17973 8.741L6.14273 10.705C5.88973 11.209 5.67273 11.731 5.49473 12.266H2.71973C2.30573 12.266 1.96973 12.602 1.96973 13.016V18.984C1.96973 19.398 2.30573 19.734 2.71973 19.734H5.49473C5.67273 20.269 5.88973 20.791 6.14273 21.296L4.17973 23.259C3.88673 23.552 3.88673 24.027 4.17973 24.32L8.39973 28.541C8.68073 28.822 9.17873 28.822 9.46073 28.541L11.4247 26.577C11.9287 26.83 12.4507 27.047 12.9857 27.225V30C12.9857 30.414 13.3217 30.75 13.7357 30.75H19.7047C20.1187 30.75 20.4547 30.414 20.4547 30V27.224C20.9897 27.046 21.5117 26.829 22.0157 26.576L23.9797 28.54C24.2607 28.821 24.7587 28.821 25.0407 28.54L29.2607 24.319C29.4017 24.178 29.4807 23.987 29.4807 23.789C29.4807 23.59 29.4017 23.399 29.2607 23.259L27.2967 21.296C27.5497 20.792 27.7667 20.27 27.9447 19.734H30.7197C31.1337 19.734 31.4697 19.398 31.4697 18.984V13.016C31.4697 12.602 31.1337 12.266 30.7197 12.266ZM29.9697 18.234H27.3897C27.0537 18.234 26.7577 18.458 26.6677 18.782C26.4447 19.578 26.1267 20.345 25.7207 21.064C25.5547 21.357 25.6047 21.725 25.8437 21.963L27.6697 23.789L24.5097 26.949L22.6837 25.123C22.4447 24.883 22.0767 24.835 21.7847 25C21.0647 25.407 20.2967 25.726 19.5027 25.948C19.1787 26.038 18.9547 26.334 18.9547 26.67V29.25H14.4857V26.67C14.4857 26.334 14.2617 26.038 13.9377 25.948C13.1427 25.725 12.3747 25.406 11.6557 25.001C11.3627 24.834 10.9947 24.884 10.7567 25.124L8.92973 26.949L5.76973 23.789L7.59573 21.963C7.83473 21.725 7.88473 21.358 7.71973 21.064C7.31373 20.344 6.99473 19.577 6.77273 18.781C6.68273 18.457 6.38673 18.233 6.05073 18.233H3.46973V13.765H6.04973C6.38573 13.765 6.68173 13.541 6.77173 13.217C6.99473 12.423 7.31273 11.655 7.71973 10.936C7.88573 10.643 7.83473 10.275 7.59673 10.037L5.77073 8.21L8.93073 5.05L10.7567 6.876C10.9947 7.115 11.3627 7.164 11.6557 7C12.3747 6.594 13.1427 6.275 13.9377 6.053C14.2617 5.963 14.4857 5.667 14.4857 5.331V2.75H18.9547V5.33C18.9547 5.666 19.1787 5.962 19.5027 6.052C20.2967 6.274 21.0647 6.593 21.7837 7C22.0757 7.164 22.4437 7.115 22.6827 6.877L24.5087 5.051L27.6687 8.211L25.8427 10.037C25.6047 10.275 25.5537 10.642 25.7197 10.936C26.1257 11.655 26.4447 12.423 26.6667 13.218C26.7567 13.542 27.0527 13.766 27.3887 13.766H29.9687L29.9697 18.234Z" fill="#0E53BE"/>
<path d="M21.5088 7.64294H11.9318C9.96377 7.64294 8.36377 9.24394 8.36377 11.2109V20.7879C8.36377 22.7559 9.96477 24.3559 11.9318 24.3559H21.5088C23.4768 24.3559 25.0768 22.7549 25.0768 20.7879V11.2109C25.0768 9.24394 23.4758 7.64294 21.5088 7.64294ZM23.5768 20.7889C23.5768 21.9299 22.6488 22.8569 21.5088 22.8569H11.9318C10.7908 22.8569 9.86377 21.9289 9.86377 20.7889V11.2119C9.86377 10.0709 10.7918 9.14394 11.9318 9.14394H21.5088C22.6498 9.14394 23.5768 10.0719 23.5768 11.2119V20.7889Z" fill="#0E53BE"/>
<path d="M21.5996 11.181H20.6746V10.811C20.6746 9.81903 19.1746 9.81803 19.1746 10.811V11.181H11.8396C10.8476 11.181 10.8466 12.681 11.8396 12.681H19.1756V13.051C19.1756 14.043 20.6756 14.044 20.6756 13.051V12.681H21.6006C22.5916 12.681 22.5926 11.181 21.5996 11.181Z" fill="#0E53BE"/>
<path d="M21.5996 15.25H14.0366V14.88C14.0366 13.888 12.5366 13.887 12.5366 14.88V15.25H11.8396C10.8476 15.25 10.8466 16.75 11.8396 16.75H12.5366V17.12C12.5366 18.112 14.0366 18.113 14.0366 17.12V16.75H21.5996C22.5916 16.75 22.5926 15.25 21.5996 15.25Z" fill="#0E53BE"/>
<path d="M21.5996 19.319H17.4696V18.949C17.4696 17.957 15.9696 17.956 15.9696 18.949V19.319H11.8396C10.8476 19.319 10.8466 20.819 11.8396 20.819H15.9696V21.189C15.9696 22.181 17.4696 22.182 17.4696 21.189V20.819H21.5996C22.5916 20.819 22.5926 19.319 21.5996 19.319Z" fill="#0E53BE"/>
</svg>
