<svg width="32" height="32" viewBox="0 0 32 32" fill="none" xmlns="http://www.w3.org/2000/svg">
<g clip-path="url(#clip0_4070_491)">
<path d="M30.1764 9.19377C30.1767 8.71114 30.0306 8.23977 29.7575 7.84185C29.4844 7.44393 29.097 7.13815 28.6466 6.96486C28.1962 6.79157 27.7038 6.75891 27.2344 6.87119C26.765 6.98347 26.3406 7.23541 26.0174 7.59377L18.2721 3.12239C18.3881 2.76406 18.4177 2.38337 18.3585 2.01141C18.2993 1.63945 18.1529 1.28676 17.9314 0.982162C17.7099 0.677563 17.4194 0.429687 17.0838 0.258779C16.7481 0.0878714 16.3768 -0.0012207 16.0002 -0.0012207C15.6235 -0.0012207 15.2522 0.0878714 14.9166 0.258779C14.581 0.429687 14.2905 0.677563 14.069 0.982162C13.8474 1.28676 13.7011 1.63945 13.6419 2.01141C13.5827 2.38337 13.6123 2.76406 13.7283 3.12239L5.98287 7.59414C5.73055 7.31467 5.41571 7.09883 5.06405 6.96426C4.7124 6.82968 4.3339 6.78019 3.95947 6.81982C3.58503 6.85945 3.22528 6.98707 2.90959 7.19227C2.59389 7.39747 2.3312 7.67443 2.14298 8.00053C1.95475 8.32663 1.84632 8.69263 1.82654 9.06863C1.80676 9.44464 1.87619 9.81999 2.02916 10.164C2.18214 10.5081 2.41431 10.8111 2.70673 11.0483C2.99916 11.2855 3.34353 11.4501 3.71174 11.5288V20.4712C3.34353 20.5499 2.99916 20.7146 2.70673 20.9518C2.41431 21.189 2.18214 21.4919 2.02916 21.836C1.87619 22.18 1.80676 22.5554 1.82654 22.9314C1.84632 23.3074 1.95475 23.6734 2.14298 23.9995C2.3312 24.3256 2.59389 24.6026 2.90959 24.8078C3.22528 25.013 3.58503 25.1406 3.95947 25.1802C4.3339 25.2198 4.7124 25.1704 5.06405 25.0358C5.41571 24.9012 5.73055 24.6854 5.98287 24.4059L13.7282 28.8777C13.6122 29.236 13.5826 29.6167 13.6418 29.9887C13.701 30.3607 13.8474 30.7133 14.0689 31.0179C14.2904 31.3225 14.5809 31.5704 14.9165 31.7413C15.2522 31.9122 15.6235 32.0013 16.0001 32.0013C16.3768 32.0013 16.7481 31.9122 17.0837 31.7413C17.4193 31.5704 17.7098 31.3225 17.9313 31.0179C18.1529 30.7133 18.2992 30.3607 18.3584 29.9887C18.4176 29.6167 18.388 29.236 18.272 28.8777L26.0174 24.4063C26.2698 24.6857 26.5846 24.9016 26.9363 25.0361C27.2879 25.1707 27.6664 25.2202 28.0408 25.1805C28.4153 25.1409 28.775 25.0133 29.0907 24.808C29.4064 24.6028 29.6691 24.3259 29.8573 23.9998C30.0455 23.6737 30.1539 23.3077 30.1737 22.9317C30.1935 22.5557 30.124 22.1803 29.9711 21.8363C29.8181 21.4922 29.5859 21.1893 29.2935 20.9521C29.0011 20.7149 28.6567 20.5502 28.2885 20.4715V11.5288C28.8225 11.4138 29.3011 11.1193 29.6446 10.6945C29.988 10.2697 30.1757 9.74007 30.1764 9.19377ZM17.7712 3.98752L25.5166 8.45927C25.3482 8.97872 25.3635 9.54025 25.5599 10.0498L22.6524 11.6855C22.6877 11.5951 22.6959 11.4963 22.676 11.4013C22.6561 11.3062 22.609 11.219 22.5404 11.1503L20.8494 9.45939C20.769 9.37898 20.6635 9.3284 20.5505 9.31599C20.4374 9.30358 20.3235 9.33009 20.2276 9.39114L18.8484 10.2688C18.5865 10.1383 18.3159 10.026 18.0386 9.93271L17.6839 8.33796C17.6592 8.22694 17.5973 8.12766 17.5086 8.05651C17.4199 7.98535 17.3095 7.94658 17.1958 7.94658H16.5001V4.72283C16.9905 4.61736 17.4352 4.36023 17.7712 3.98789V3.98752ZM20.732 19.1402L21.5497 20.4258L20.4259 21.5496L19.1403 20.7319C19.0642 20.6835 18.9764 20.6566 18.8862 20.654C18.7961 20.6514 18.7069 20.6733 18.6281 20.7173C18.2642 20.9206 17.8779 21.0809 17.4769 21.1949C17.3901 21.2195 17.3116 21.2671 17.2497 21.3326C17.1878 21.3982 17.1447 21.4793 17.1251 21.5673L16.7946 23.0536H15.2055L14.8751 21.5673C14.8555 21.4793 14.8125 21.3982 14.7506 21.3327C14.6887 21.2671 14.6102 21.2195 14.5235 21.1949C14.1225 21.0809 13.7362 20.9206 13.3724 20.7173C13.2936 20.6733 13.2044 20.6514 13.1143 20.654C13.0241 20.6566 12.9363 20.6835 12.8602 20.7319L11.5746 21.5496L10.4508 20.4258L11.2686 19.1402C11.317 19.0641 11.3439 18.9763 11.3464 18.8861C11.349 18.7959 11.3271 18.7068 11.2831 18.628C11.0798 18.2641 10.9195 17.8778 10.8054 17.4768C10.7808 17.39 10.7332 17.3115 10.6676 17.2495C10.602 17.1876 10.5208 17.1446 10.4327 17.125L8.94649 16.7945V15.2054L10.4328 14.875C10.5208 14.8554 10.6019 14.8124 10.6675 14.7505C10.733 14.6887 10.7806 14.6102 10.8052 14.5235C10.9193 14.1225 11.0796 13.7362 11.2829 13.3723C11.3269 13.2935 11.3488 13.2043 11.3462 13.1142C11.3436 13.024 11.3167 12.9362 11.2683 12.8601L10.4506 11.5746L11.5744 10.4508L12.8599 11.2685C12.936 11.3169 13.0238 11.3438 13.114 11.3464C13.2041 11.349 13.2933 11.3271 13.3721 11.2831C13.736 11.0798 14.1224 10.9195 14.5234 10.8054C14.6102 10.7808 14.6887 10.7332 14.7506 10.6675C14.8125 10.6019 14.8556 10.5208 14.8751 10.4327L15.2057 8.94646H16.7951L17.1251 10.4327C17.1447 10.5207 17.1877 10.6018 17.2496 10.6674C17.3115 10.7329 17.3899 10.7805 17.4767 10.8051C17.8777 10.9192 18.264 11.0794 18.6279 11.2828C18.7067 11.3268 18.7958 11.3487 18.886 11.3461C18.9762 11.3435 19.064 11.3166 19.1401 11.2681L20.4257 10.4505L21.5494 11.5743L20.732 12.8598C20.6836 12.9359 20.6567 13.0237 20.6541 13.1139C20.6515 13.2041 20.6734 13.2933 20.7174 13.372C20.9207 13.7359 21.081 14.1222 21.1951 14.5232C21.2196 14.61 21.2672 14.6885 21.3328 14.7504C21.3983 14.8124 21.4794 14.8554 21.5674 14.875L23.0537 15.2057V16.795L21.5675 17.125C21.4795 17.1446 21.3984 17.1876 21.3328 17.2495C21.2672 17.3114 21.2196 17.3899 21.195 17.4766C21.081 17.8776 20.9207 18.2639 20.7174 18.6278C20.6733 18.7066 20.6515 18.7958 20.654 18.886C20.6566 18.9762 20.6835 19.0641 20.732 19.1402ZM16.0001 1.00002C16.2746 1.00002 16.543 1.08142 16.7712 1.23393C16.9995 1.38644 17.1774 1.6032 17.2824 1.85682C17.3875 2.11043 17.4149 2.3895 17.3614 2.65873C17.3078 2.92796 17.1756 3.17527 16.9815 3.36938C16.7874 3.56348 16.5401 3.69567 16.2709 3.74922C16.0017 3.80278 15.7226 3.77529 15.469 3.67024C15.2154 3.56519 14.9986 3.3873 14.8461 3.15905C14.6936 2.93081 14.6122 2.66246 14.6122 2.38796C14.6126 2.01998 14.759 1.66719 15.0192 1.40699C15.2794 1.14679 15.6321 1.00043 16.0001 1.00002ZM6.48368 8.45964L14.2291 3.98783C14.5651 4.36021 15.0098 4.61736 15.5001 4.72283V7.94646H14.8045C14.6908 7.94645 14.5804 7.98523 14.4917 8.05638C14.403 8.12753 14.3411 8.22681 14.3164 8.33783L13.9617 9.93258C13.6843 10.0259 13.4138 10.1382 13.1518 10.2686L11.7727 9.39152C11.6767 9.33047 11.5628 9.30396 11.4497 9.31637C11.3367 9.32878 11.2312 9.37936 11.1508 9.45977L9.45987 11.1507C9.37943 11.2311 9.32883 11.3366 9.31641 11.4497C9.30399 11.5627 9.3305 11.6767 9.39155 11.7726L9.50212 11.9465L6.38099 10.1905C6.63156 9.64697 6.66822 9.029 6.48368 8.45964ZM2.8238 9.19377C2.8238 8.91926 2.9052 8.65092 3.05771 8.42267C3.21022 8.19443 3.42699 8.01653 3.6806 7.91148C3.93421 7.80643 4.21328 7.77895 4.48251 7.8325C4.75175 7.88605 4.99905 8.01824 5.19316 8.21235C5.38727 8.40645 5.51946 8.65376 5.57301 8.92299C5.62656 9.19223 5.59908 9.4713 5.49403 9.72491C5.38898 9.97852 5.21108 10.1953 4.98284 10.3478C4.75459 10.5003 4.48625 10.5817 4.21174 10.5817C3.84376 10.5813 3.49098 10.4349 3.23078 10.1747C2.97058 9.91453 2.82422 9.56175 2.8238 9.19377ZM4.21174 24.1938C3.9372 24.1938 3.66882 24.1124 3.44054 23.9598C3.21227 23.8073 3.03435 23.5905 2.9293 23.3369C2.82425 23.0832 2.79679 22.8041 2.85038 22.5348C2.90397 22.2656 3.03621 22.0183 3.23037 21.8242C3.42453 21.63 3.6719 21.4979 3.94118 21.4444C4.21046 21.3909 4.48956 21.4184 4.74318 21.5236C4.99679 21.6287 5.21354 21.8067 5.366 22.035C5.51846 22.2633 5.59978 22.5317 5.59968 22.8063C5.59915 23.1742 5.45274 23.5268 5.19255 23.7869C4.93236 24.0471 4.57964 24.1934 4.21174 24.1938ZM5.89468 21.1135C5.57021 20.7902 5.15955 20.5671 4.71174 20.471V11.5288C5.10538 11.4443 5.47115 11.2613 5.77487 10.997L10.0722 13.4146C10.092 13.4257 10.1124 13.4354 10.1334 13.4437C10.0592 13.6136 9.99162 13.7863 9.93262 13.9616L8.33793 14.3164C8.22691 14.3411 8.12762 14.4029 8.05646 14.4916C7.9853 14.5803 7.94651 14.6907 7.94649 14.8044V17.1957C7.94651 17.3094 7.9853 17.4198 8.05646 17.5085C8.12762 17.5972 8.22691 17.659 8.33793 17.6837L9.93268 18.0385C10.0082 18.2624 10.0961 18.4819 10.1961 18.696C10.1843 18.7015 10.1725 18.707 10.161 18.7135L5.89468 21.1135ZM14.2291 28.0125L6.48368 23.5404C6.65163 23.0221 6.63682 22.462 6.44174 21.9533L9.34599 20.3194C9.31201 20.4093 9.30467 20.5072 9.32487 20.6012C9.34507 20.6952 9.39194 20.7814 9.45987 20.8494L11.1508 22.5403C11.2312 22.6207 11.3367 22.6713 11.4497 22.6837C11.5628 22.6961 11.6767 22.6696 11.7727 22.6086L13.1518 21.7313C13.4137 21.8618 13.6843 21.9741 13.9617 22.0674L14.3164 23.6621C14.3411 23.7732 14.403 23.8724 14.4917 23.9436C14.5804 24.0147 14.6908 24.0535 14.8045 24.0535H15.5001V27.2771C15.0097 27.3827 14.565 27.64 14.2291 28.0125ZM16.0001 31C15.7256 31 15.4573 30.9186 15.229 30.7661C15.0008 30.6136 14.8229 30.3968 14.7179 30.1432C14.6128 29.8896 14.5854 29.6105 14.6389 29.3413C14.6925 29.072 14.8247 28.8247 15.0188 28.6306C15.2129 28.4365 15.4602 28.3044 15.7294 28.2508C15.9987 28.1973 16.2777 28.2247 16.5313 28.3298C16.7849 28.4349 17.0017 28.6127 17.1542 28.841C17.3067 29.0692 17.3881 29.3376 17.3881 29.6121C17.3877 29.9801 17.2413 30.3329 16.9811 30.5931C16.7209 30.8533 16.3681 30.9996 16.0001 31ZM17.7712 28.0125C17.4353 27.64 16.9905 27.3828 16.5001 27.2772V24.0536H17.1958C17.3095 24.0536 17.4199 24.0149 17.5086 23.9437C17.5973 23.8726 17.6592 23.7733 17.6839 23.6623L18.0386 22.0675C18.3159 21.9742 18.5865 21.8619 18.8485 21.7314L20.2276 22.6086C20.3235 22.6696 20.4374 22.6961 20.5505 22.6837C20.6636 22.6713 20.769 22.6207 20.8494 22.5403L22.5404 20.8494C22.6304 20.7595 22.6826 20.6386 22.6865 20.5114L25.5076 22.0985C25.3619 22.5686 25.365 23.0722 25.5166 23.5405L17.7712 28.0125ZM25.9989 21.2275L21.8146 18.8735C21.7895 18.8595 21.7633 18.8478 21.7362 18.8383C21.8647 18.5795 21.9753 18.3122 22.0675 18.0383L23.6622 17.6836C23.7732 17.6589 23.8725 17.5971 23.9436 17.5084C24.0148 17.4196 24.0536 17.3093 24.0536 17.1956V14.8044C24.0536 14.6907 24.0148 14.5803 23.9436 14.4916C23.8725 14.4029 23.7732 14.3411 23.6622 14.3164L22.0674 13.9616C21.9883 13.7272 21.8956 13.4977 21.7898 13.2741C21.8553 13.2664 21.9187 13.2458 21.9762 13.2135L26.1082 10.8888C26.4322 11.2107 26.8418 11.4328 27.2884 11.5286V20.4712C26.7887 20.5788 26.3367 20.8439 25.9989 21.2275ZM29.1764 22.806C29.1764 23.0805 29.095 23.3489 28.9425 23.5771C28.79 23.8054 28.5732 23.9833 28.3196 24.0883C28.066 24.1934 27.787 24.2208 27.5177 24.1673C27.2485 24.1137 27.0012 23.9815 26.8071 23.7874C26.613 23.5933 26.4808 23.346 26.4272 23.0768C26.3737 22.8076 26.4012 22.5285 26.5062 22.2749C26.6113 22.0213 26.7891 21.8045 27.0174 21.652C27.2456 21.4995 27.514 21.4181 27.7885 21.4181C28.1565 21.4185 28.5093 21.5649 28.7695 21.8251C29.0297 22.0854 29.1761 22.4382 29.1764 22.8063V22.806ZM27.7885 10.582C27.514 10.582 27.2456 10.5006 27.0174 10.3481C26.7891 10.1956 26.6112 9.97882 26.5061 9.72521C26.4011 9.47159 26.3735 9.19252 26.4271 8.92328C26.4806 8.65403 26.6128 8.40671 26.8069 8.21258C27.001 8.01845 27.2483 7.88624 27.5175 7.83265C27.7867 7.77907 28.0658 7.80653 28.3194 7.91155C28.5731 8.01657 28.7899 8.19445 28.9424 8.42268C29.095 8.65091 29.1764 8.91925 29.1764 9.19377C29.1761 9.56179 29.0297 9.91464 28.7695 10.1749C28.5093 10.4351 28.1565 10.5815 27.7885 10.582ZM16.0001 11.9246C15.1941 11.9246 14.4062 12.1637 13.736 12.6115C13.0658 13.0593 12.5434 13.6958 12.235 14.4404C11.9265 15.1851 11.8458 16.0045 12.003 16.7951C12.1603 17.5856 12.5484 18.3118 13.1184 18.8817C13.6883 19.4517 14.4145 19.8398 15.2051 19.9971C15.9956 20.1543 16.815 20.0736 17.5597 19.7652C18.3044 19.4567 18.9409 18.9344 19.3887 18.2642C19.8365 17.594 20.0755 16.8061 20.0755 16C20.0743 14.9195 19.6445 13.8836 18.8805 13.1196C18.1165 12.3556 17.0806 11.9259 16.0001 11.9246ZM16.0001 19.0754C15.3919 19.0754 14.7973 18.895 14.2915 18.5571C13.7858 18.2192 13.3916 17.7389 13.1588 17.1769C12.9261 16.615 12.8652 15.9966 12.9838 15.4C13.1025 14.8035 13.3954 14.2555 13.8255 13.8254C14.2556 13.3953 14.8036 13.1024 15.4001 12.9837C15.9967 12.8651 16.6151 12.926 17.177 13.1587C17.739 13.3915 18.2193 13.7857 18.5572 14.2914C18.8951 14.7972 19.0755 15.3918 19.0755 16C19.0746 16.8154 18.7503 17.5971 18.1737 18.1736C17.5972 18.7502 16.8155 19.0745 16.0001 19.0754ZM18.1359 14.3496C18.2332 14.4397 18.2907 14.5647 18.2959 14.6973C18.301 14.8298 18.2533 14.9589 18.1632 15.0562L15.7882 17.6231C15.7414 17.6737 15.6847 17.714 15.6215 17.7416C15.5584 17.7692 15.4902 17.7835 15.4213 17.7835C15.3524 17.7835 15.2842 17.7692 15.221 17.7416C15.1579 17.714 15.1011 17.6737 15.0543 17.6231L13.837 16.3079C13.7919 16.2598 13.7568 16.2032 13.7336 16.1415C13.7105 16.0798 13.6998 16.0141 13.7021 15.9482C13.7045 15.8823 13.7198 15.8175 13.7473 15.7576C13.7748 15.6977 13.8138 15.6438 13.8622 15.599C13.9106 15.5542 13.9674 15.5195 14.0292 15.4967C14.0911 15.4739 14.1569 15.4637 14.2227 15.4664C14.2886 15.4692 14.3533 15.4849 14.413 15.5128C14.4728 15.5406 14.5265 15.58 14.5709 15.6287L15.4209 16.5475L17.4292 14.3771C17.4738 14.3289 17.5275 14.29 17.5871 14.2625C17.6468 14.235 17.7112 14.2196 17.7769 14.217C17.8425 14.2145 17.908 14.2249 17.9696 14.2476C18.0312 14.2704 18.0877 14.305 18.1359 14.3496Z" fill="#0E53BE"/>
</g>
<defs>
<clipPath id="clip0_4070_491">
<rect width="32" height="32" fill="white"/>
</clipPath>
</defs>
</svg>
