<svg width="33" height="32" viewBox="0 0 33 32" fill="none" xmlns="http://www.w3.org/2000/svg">
<g clip-path="url(#clip0_4058_13150)">
<path d="M5.85052 23.6382C4.61635 23.6382 3.6123 24.6422 3.6123 25.8764C3.72481 28.8413 7.97605 28.8412 8.08811 25.8764C8.08811 24.6422 7.08432 23.6382 5.85052 23.6382ZM5.85052 26.8646C5.30562 26.8646 4.86236 26.4212 4.86236 25.8763C4.91205 24.5675 6.78862 24.5673 6.83806 25.8763C6.83806 26.4212 6.39504 26.8646 5.85052 26.8646Z" fill="#0E53BE"/>
<path d="M11.1498 25.2535C11.5948 24.7953 11.6823 24.0888 11.3628 23.5358L10.6338 22.2722C10.3143 21.7191 9.65857 21.4418 9.03961 21.5981L8.37321 21.7657C8.27502 21.79 8.17639 21.7335 8.1487 21.6364L7.96075 20.9759C7.78668 20.3611 7.2186 19.9318 6.57932 19.9318H5.12114C4.48299 19.9318 3.91509 20.3607 3.73996 20.9751L3.55189 21.6362C3.5242 21.7335 3.42544 21.7903 3.32725 21.7656L2.66141 21.5982C2.04132 21.442 1.38567 21.7193 1.06728 22.2724L0.337879 23.5354C0.018178 24.0888 0.105682 24.7953 0.550325 25.2532L1.02928 25.7471C1.09953 25.8195 1.09953 25.933 1.02909 26.0056L0.5507 26.499C0.105682 26.9572 0.018178 27.6638 0.337816 28.217L1.06685 29.4795C1.38567 30.0332 2.04139 30.3106 2.66091 30.1544L3.32725 29.9869C3.42532 29.962 3.52413 30.0191 3.55182 30.1161L3.73971 30.7766C3.91365 31.391 4.48174 31.8201 5.12114 31.8201H6.57932C7.21866 31.8201 7.78675 31.391 7.9605 30.7773L8.14857 30.1163C8.17626 30.019 8.27502 29.962 8.37327 29.9869L9.03911 30.1542C9.65839 30.3106 10.3142 30.0332 10.634 29.4799L11.3626 28.217C11.6823 27.6636 11.5948 26.9571 11.1504 26.4995L10.6722 26.0058C10.6721 26.0057 10.672 26.0056 10.6719 26.0055C10.6015 25.933 10.6015 25.8195 10.6723 25.7466L11.1498 25.2535ZM9.7742 26.8755L10.253 27.3699C10.3104 27.4289 10.3215 27.5203 10.28 27.5922L9.55138 28.8551C9.50994 28.9267 9.42506 28.9625 9.34431 28.9422L8.6781 28.7747C7.92094 28.5844 7.16028 29.0233 6.94634 29.7742L6.75795 30.4362C6.73564 30.5151 6.66214 30.5703 6.57932 30.5703H5.12114C5.03832 30.5703 4.96482 30.5151 4.94225 30.4355L4.75406 29.774C4.5433 29.0342 3.76883 28.5871 3.02243 28.7747L2.35571 28.9424C2.27565 28.9625 2.19114 28.927 2.14983 28.8552L1.4203 27.5919C1.37892 27.5203 1.39011 27.429 1.4478 27.3695L1.92644 26.8759C2.47034 26.3153 2.47028 25.4372 1.92657 24.8769L1.44742 24.3828C1.39005 24.3237 1.37886 24.2325 1.4203 24.1607L2.15008 22.8968C2.19095 22.8257 2.27527 22.7899 2.35602 22.8104L3.02218 22.9779C3.77914 23.1687 4.54011 22.7295 4.754 21.9785L4.94207 21.3175C4.96482 21.2376 5.03845 21.1818 5.12101 21.1818H6.5792C6.66195 21.1818 6.73539 21.2372 6.75808 21.3172L6.94627 21.9787C7.16016 22.7296 7.92081 23.1686 8.67797 22.978L9.34469 22.8103C9.42488 22.7901 9.50988 22.8259 9.55113 22.8973L10.2801 24.1608C10.3215 24.2324 10.3103 24.3236 10.2523 24.3834L9.77458 24.8768C9.23093 25.437 9.23074 26.3149 9.7742 26.8755Z" fill="#0E53BE"/>
<path d="M18.888 26.2614C19.0804 26.0164 19.0586 25.6548 18.8384 25.4343L17.1243 23.7202C16.8803 23.4763 16.4845 23.4762 16.2404 23.7202C15.9964 23.9643 15.9963 24.3601 16.2404 24.6042L16.8876 25.2513H13.7451C13.3999 25.2513 13.1201 25.5312 13.1201 25.8764C13.1201 26.2215 13.3999 26.5014 13.7451 26.5014H16.8875L16.2404 27.1485C15.9964 27.3926 15.9963 27.7883 16.2404 28.0325C16.4813 28.2732 16.8835 28.2733 17.1243 28.0325L18.8384 26.3184C18.8564 26.3004 18.8725 26.2814 18.888 26.2614Z" fill="#0E53BE"/>
<path d="M19.0117 5.85768C18.9897 5.73161 18.929 5.61354 18.8385 5.52285L17.1244 3.80872C16.8803 3.56477 16.4846 3.56471 16.2405 3.80872C15.9964 4.05279 15.9964 4.44856 16.2405 4.69269L16.8876 5.33984H13.7451C13.3999 5.33984 13.1201 5.61973 13.1201 5.96487C13.1201 6.31001 13.3999 6.58989 13.7451 6.58989H16.8875L16.2404 7.23698C15.9964 7.48105 15.9963 7.87682 16.2404 8.12096C16.4813 8.36165 16.8835 8.36178 17.1243 8.12096L18.8384 6.40689C18.9813 6.26394 19.0461 6.05656 19.0117 5.85768Z" fill="#0E53BE"/>
<path d="M5.94217 13.2688C5.59697 13.2688 5.31714 13.5487 5.31714 13.8938V16.488L4.67006 15.8409C4.42598 15.5969 4.03022 15.5969 3.78608 15.8409C3.54201 16.085 3.54201 16.4807 3.78608 16.7249L5.50015 18.4389C5.74141 18.6802 6.14249 18.678 6.38406 18.4389L8.09813 16.7249C8.34221 16.4808 8.34227 16.085 8.09813 15.8409C7.85406 15.597 7.45829 15.5969 7.21422 15.8409L6.56707 16.4881V13.8938C6.5672 13.5487 6.28737 13.2688 5.94217 13.2688Z" fill="#0E53BE"/>
<path d="M26.2132 13.2688C25.868 13.2688 25.5881 13.5487 25.5881 13.8938V16.488L24.9411 15.8409C24.697 15.5969 24.3012 15.5969 24.0571 15.8409C23.813 16.085 23.813 16.4807 24.0571 16.7249L25.7711 18.4389C26.0124 18.6802 26.4135 18.678 26.6551 18.4389L28.3691 16.7249C28.6132 16.4808 28.6133 16.085 28.3691 15.8409C28.1251 15.597 27.7293 15.5969 27.4852 15.8409L26.8381 16.4881V13.8938C26.8382 13.5487 26.5584 13.2688 26.2132 13.2688Z" fill="#0E53BE"/>
<path d="M30.0221 20.2867H22.4756C21.3041 20.2867 20.3511 21.2398 20.3511 22.4113V29.3412C20.3511 30.5127 21.3041 31.4657 22.4756 31.4657H28.0489C28.8773 31.435 28.8767 30.2461 28.0489 30.2157H22.4756C21.9935 30.2157 21.6011 29.8234 21.6011 29.3412V22.4113C21.6011 21.9291 21.9934 21.5368 22.4756 21.5368H30.0221C30.5042 21.5368 30.8966 21.9291 30.8966 22.4113V27.4103C30.9273 28.2387 32.1162 28.2381 32.1466 27.4103V22.4113C32.1466 21.2398 31.1936 20.2867 30.0221 20.2867Z" fill="#0E53BE"/>
<path d="M0.812588 11.9145H10.8878C11.233 11.9145 11.5128 11.6346 11.5128 11.2895V9.41817C11.5128 7.47553 10.0936 5.85902 8.23771 5.54876C8.61272 5.04974 8.83523 4.42996 8.83523 3.75912V3.14529C8.68466 -0.810376 3.01424 -0.807314 2.86511 3.14529V3.75912C2.86511 4.42996 3.08768 5.04974 3.46263 5.54876C1.60675 5.85902 0.1875 7.47559 0.1875 9.41817V11.2895C0.187563 11.6347 0.467387 11.9145 0.812588 11.9145ZM4.11516 3.14529C4.20266 0.846129 7.49849 0.847879 7.58518 3.14529V3.75912C7.49767 6.05828 4.20185 6.05653 4.11516 3.75912V3.14529ZM1.43761 9.41817C1.43761 7.94373 2.63716 6.74418 4.11166 6.74418H7.5888C9.06324 6.74418 10.2629 7.94373 10.2629 9.41817V10.6645H9.00542V9.31448C8.97467 8.48607 7.78581 8.48669 7.75537 9.31448V10.6645H3.96228V9.31448C3.93153 8.48607 2.74267 8.48669 2.71223 9.31448V10.6645H1.43761V9.41817Z" fill="#0E53BE"/>
<path d="M26.3778 11.698C29.5588 11.698 32.1467 9.11014 32.1467 5.92913C31.8567 -1.71362 20.8978 -1.71149 20.6089 5.9292C20.6089 9.11008 23.1968 11.698 26.3778 11.698ZM26.3778 1.41026C28.8695 1.41026 30.8966 3.43747 30.8966 5.92913C30.6694 11.9157 22.0852 11.9141 21.8589 5.92907C21.8589 3.43741 23.8861 1.41026 26.3778 1.41026Z" fill="#0E53BE"/>
<path d="M25.2332 7.70352C25.4774 7.94759 25.8731 7.94759 26.1172 7.70352L28.7821 5.03866C29.0261 4.79459 29.0261 4.39882 28.7821 4.15469C28.538 3.91068 28.1422 3.91068 27.8981 4.15469L25.6752 6.37753L24.8278 5.53006C24.5837 5.28605 24.1879 5.28605 23.9438 5.53006C23.6997 5.77413 23.6997 6.1699 23.9438 6.41403L25.2332 7.70352Z" fill="#0E53BE"/>
<path d="M28.3401 23.6082H23.9721C23.1437 23.6389 23.1444 24.8278 23.9721 24.8582H28.3401C29.1685 24.8275 29.1679 23.6386 28.3401 23.6082Z" fill="#0E53BE"/>
<path d="M23.9721 26.7933C23.1437 26.8241 23.1444 28.0129 23.9721 28.0434H26.2486C27.077 28.0126 27.0764 26.8238 26.2486 26.7933H23.9721Z" fill="#0E53BE"/>
<path d="M31.6336 30.1871C31.4182 29.6705 30.6562 29.6891 30.4682 30.216C30.2775 30.7504 30.8709 31.249 31.3639 30.9697C31.6361 30.8156 31.752 30.4761 31.6336 30.1871Z" fill="#0E53BE"/>
</g>
<defs>
<clipPath id="clip0_4058_13150">
<rect width="32" height="32" fill="white" transform="translate(0.146484)"/>
</clipPath>
</defs>
</svg>
