<svg width="33" height="32" viewBox="0 0 33 32" fill="none" xmlns="http://www.w3.org/2000/svg">
<path d="M11.2549 9.49102C11.2549 9.17522 11.1294 8.87235 10.9061 8.64905C10.6828 8.42574 10.38 8.30029 10.0642 8.30029H6.492C6.1762 8.30029 5.87333 8.42574 5.65003 8.64905C5.42673 8.87235 5.30127 9.17522 5.30127 9.49102V10.0864C5.3008 10.2426 5.33116 10.3973 5.39061 10.5418C5.45006 10.6862 5.53743 10.8175 5.64772 10.9281C5.758 11.0387 5.88903 11.1265 6.0333 11.1864C6.17756 11.2463 6.33223 11.2771 6.48843 11.2771H10.0683C10.2245 11.2772 10.3791 11.3081 10.5233 11.368C10.6675 11.4279 10.7984 11.5157 10.9087 11.6263C11.0189 11.7369 11.1062 11.8682 11.1656 12.0126C11.225 12.157 11.2554 12.3117 11.2549 12.4678V13.0632C11.2549 13.379 11.1294 13.6819 10.9061 13.9052C10.6828 14.1285 10.38 14.2539 10.0642 14.2539H6.492C6.1762 14.2539 5.87333 14.1285 5.65003 13.9052C5.42673 13.6819 5.30127 13.379 5.30127 13.0632" stroke="#0E53BE" stroke-width="1.33333" stroke-linejoin="round"/>
<path d="M8.27832 6.51416V8.89561" stroke="#0E53BE" stroke-width="1.33333" stroke-linejoin="round"/>
<path d="M8.27832 14.2539V16.04" stroke="#0E53BE" stroke-width="1.33333" stroke-linejoin="round"/>
<path d="M27.9253 19.0168C27.9253 18.701 27.7999 18.3981 27.5766 18.1748C27.3532 17.9515 27.0504 17.826 26.7346 17.826H23.1624C22.8466 17.826 22.5437 17.9515 22.3204 18.1748C22.0971 18.3981 21.9717 18.701 21.9717 19.0168V19.6121C21.9712 19.7683 22.0016 19.9231 22.061 20.0675C22.1205 20.212 22.2078 20.3433 22.3181 20.4539C22.4284 20.5645 22.5594 20.6523 22.7037 20.7122C22.848 20.772 23.0026 20.8029 23.1588 20.8029H26.7388C26.8949 20.8029 27.0495 20.8338 27.1937 20.8937C27.3379 20.9537 27.4689 21.0414 27.5791 21.152C27.6893 21.2627 27.7766 21.3939 27.836 21.5383C27.8954 21.6827 27.9258 21.8374 27.9253 21.9936V22.5889C27.9253 22.9047 27.7999 23.2076 27.5766 23.4309C27.3532 23.6542 27.0504 23.7797 26.7346 23.7797H23.1624C22.8466 23.7797 22.5437 23.6542 22.3204 23.4309C22.0971 23.2076 21.9717 22.9047 21.9717 22.5889" stroke="#0E53BE" stroke-width="1.33333" stroke-linejoin="round"/>
<path d="M24.9482 16.04V18.4215" stroke="#0E53BE" stroke-width="1.33333" stroke-linejoin="round"/>
<path d="M24.9482 23.7798V25.5659" stroke="#0E53BE" stroke-width="1.33333" stroke-linejoin="round"/>
<path d="M13.6364 19.0168L8.27818 24.3751L2.91992 19.0168V2.34668H13.6364V19.0168Z" stroke="#0E53BE" stroke-width="1.33333" stroke-linejoin="round"/>
<path d="M19.5898 13.0632L24.9481 7.70496L30.3064 13.0632V29.7334H19.5898V13.0632Z" stroke="#0E53BE" stroke-width="1.33333" stroke-linejoin="round"/>
<path d="M8.27832 24.3751V25.5658C8.27832 26.6711 8.7174 27.7311 9.49896 28.5127C10.2805 29.2943 11.3406 29.7333 12.4459 29.7333C13.5512 29.7333 14.6112 29.2943 15.3927 28.5127C16.1743 27.7311 16.6134 26.6711 16.6134 25.5658V6.51422C16.6134 5.40892 17.0525 4.34889 17.834 3.56732C18.6156 2.78576 19.6756 2.34668 20.7809 2.34668C21.8862 2.34668 22.9463 2.78576 23.7278 3.56732C24.5094 4.34889 24.9485 5.40892 24.9485 6.51422V7.70494" stroke="#0E53BE" stroke-width="1.33333" stroke-linejoin="round"/>
<path d="M8.27813 20.2075C8.93575 20.2075 9.46885 19.6744 9.46885 19.0168C9.46885 18.3592 8.93575 17.826 8.27813 17.826C7.62051 17.826 7.0874 18.3592 7.0874 19.0168C7.0874 19.6744 7.62051 20.2075 8.27813 20.2075Z" stroke="#0E53BE" stroke-width="1.33333" stroke-linejoin="round"/>
<path d="M24.9485 14.2539C25.6062 14.2539 26.1393 13.7208 26.1393 13.0632C26.1393 12.4055 25.6062 11.8724 24.9485 11.8724C24.2909 11.8724 23.7578 12.4055 23.7578 13.0632C23.7578 13.7208 24.2909 14.2539 24.9485 14.2539Z" stroke="#0E53BE" stroke-width="1.33333" stroke-linejoin="round"/>
<path d="M2.91992 4.72815H11.8504" stroke="#0E53BE" stroke-width="1.33333" stroke-linejoin="round"/>
<path d="M30.3064 27.3519H21.376" stroke="#0E53BE" stroke-width="1.33333" stroke-linejoin="round"/>
</svg>
