<svg width="32" height="32" viewBox="0 0 32 32" fill="none" xmlns="http://www.w3.org/2000/svg">
<path d="M19.0079 24.5761V26.8801C19.0079 27.9681 18.1119 28.8001 17.0879 28.8001H5.82386V25.2161C5.82386 24.6401 5.31186 24.1281 4.73586 24.1281H1.15186V4.48006C1.15186 3.39206 2.04786 2.56006 3.07186 2.56006H17.0879C18.1759 2.56006 19.0079 3.45606 19.0079 4.48006V7.61606" stroke="#0E53BE" stroke-width="0.96" stroke-miterlimit="10" stroke-linecap="round" stroke-linejoin="round"/>
<path d="M5.82386 28.864L1.15186 24.192H4.73586C5.31186 24.192 5.82386 24.704 5.82386 25.28V28.864Z" stroke="#0E53BE" stroke-width="0.96" stroke-miterlimit="10" stroke-linecap="round" stroke-linejoin="round"/>
<path d="M23.8719 10.4961C26.8159 13.8241 26.6879 18.8801 23.4879 22.0801C20.1599 25.4081 14.7839 25.4081 11.5199 22.0801C8.19193 18.7521 8.19193 13.3761 11.5199 10.1121C14.0799 7.55207 17.7919 6.97607 20.8639 8.32007" stroke="#0E53BE" stroke-width="0.96" stroke-miterlimit="10" stroke-linecap="round" stroke-linejoin="round"/>
<path d="M22.6561 12.9921C23.1681 13.8881 23.4881 14.9761 23.4881 16.0641C23.4881 19.3921 20.8001 22.0801 17.4081 22.0801C14.0801 22.0801 11.3921 19.3921 11.3921 16.0641C11.3921 12.7361 14.0801 10.0481 17.4721 10.0481C18.6241 10.0481 19.6481 10.3681 20.5441 10.8801" stroke="#0E53BE" stroke-width="0.96" stroke-miterlimit="10" stroke-linecap="round" stroke-linejoin="round"/>
<path d="M24.2558 21.1841L25.8558 22.7841L24.1918 24.4481L22.5918 22.8481C22.9118 22.5921 23.2318 22.3361 23.4878 22.0801C23.7438 21.8241 23.9998 21.5041 24.2558 21.1841Z" stroke="#0E53BE" stroke-width="0.96" stroke-miterlimit="10" stroke-linecap="round" stroke-linejoin="round"/>
<path d="M30.4 28.6081L30.016 28.9921C29.376 29.6321 28.352 29.6321 27.648 28.9921L24.128 25.4721C23.872 25.2161 23.872 24.7681 24.128 24.4481L25.856 22.7201C26.112 22.4641 26.56 22.4641 26.88 22.7201L30.4 26.2401C31.04 26.8801 31.04 27.9681 30.4 28.6081Z" stroke="#0E53BE" stroke-width="0.96" stroke-miterlimit="10" stroke-linecap="round" stroke-linejoin="round"/>
<path d="M15.8078 16.1921L13.8878 20.8641C13.0558 20.2241 12.4158 19.3921 11.9678 18.4321L14.3998 12.4801L15.8078 16.1921Z" stroke="#0E53BE" stroke-width="0.96" stroke-miterlimit="10" stroke-linecap="round" stroke-linejoin="round"/>
<path d="M18.6239 16.0641L17.1519 19.9041L14.3999 12.5441H17.2799L18.6239 16.0641Z" stroke="#0E53BE" stroke-width="0.96" stroke-miterlimit="10" stroke-linecap="round" stroke-linejoin="round"/>
<path d="M17.1519 19.9041H20.0959L23.6799 10.4321L24.8319 10.8161L24.1279 5.18408L20.0319 9.08808L21.1199 9.47208L17.1519 19.9041Z" stroke="#0E53BE" stroke-width="0.96" stroke-miterlimit="10" stroke-linecap="round" stroke-linejoin="round"/>
<path d="M3.64795 4.86401H13.7599" stroke="#0E53BE" stroke-width="0.96" stroke-miterlimit="10" stroke-linecap="round" stroke-linejoin="round"/>
<path d="M3.64795 6.59204H11.0719" stroke="#0E53BE" stroke-width="0.96" stroke-miterlimit="10" stroke-linecap="round" stroke-linejoin="round"/>
<path d="M3.64795 8.896H6.20795V11.456H3.64795V8.896Z" stroke="#0E53BE" stroke-width="0.96" stroke-miterlimit="10" stroke-linecap="round" stroke-linejoin="round"/>
<path d="M3.64795 13.952H6.20795V16.512H3.64795V13.952Z" stroke="#0E53BE" stroke-width="0.96" stroke-miterlimit="10" stroke-linecap="round" stroke-linejoin="round"/>
<path d="M3.64795 19.072H6.20795V21.632H3.64795V19.072Z" stroke="#0E53BE" stroke-width="0.96" stroke-miterlimit="10" stroke-linecap="round" stroke-linejoin="round"/>
</svg>
