<svg width="32" height="32" viewBox="0 0 32 32" fill="none" xmlns="http://www.w3.org/2000/svg">
<g clip-path="url(#clip0_4056_11115)">
<mask id="mask0_4056_11115" style="mask-type:luminance" maskUnits="userSpaceOnUse" x="0" y="0" width="32" height="32">
<path d="M32 0H0V32H32V0Z" fill="white"/>
</mask>
<g mask="url(#mask0_4056_11115)">
<path d="M28.6665 14.6667H27.333V10C27.333 9.63184 27.0347 9.33325 26.6665 9.33325H24.6665V8H26.6665C27.771 8 28.6665 8.89551 28.6665 10V14.6667Z" fill="#0E53BE"/>
<path d="M26.6665 28H5.33301C4.22852 28 3.33301 27.1045 3.33301 26V25.3333H4.6665V26C4.6665 26.3682 4.96484 26.6667 5.33301 26.6667H26.6665C27.0347 26.6667 27.333 26.3682 27.333 26V25.3333H28.6665V26C28.6665 27.1045 27.771 28 26.6665 28Z" fill="#0E53BE"/>
<path d="M4.6665 14.6667H3.33301V10C3.33301 8.89551 4.22852 8 5.33301 8H7.33301V9.33325H5.33301C4.96484 9.33325 4.6665 9.63184 4.6665 10V14.6667Z" fill="#0E53BE"/>
<path d="M10 30.6667H22V32H10V30.6667Z" fill="#0E53BE"/>
<path d="M11.333 28H12.6665V31.3333H11.333V28Z" fill="#0E53BE"/>
<path d="M19.333 27.3333H20.6665V31.3333H19.333V27.3333Z" fill="#0E53BE"/>
<path d="M16.0002 14.6667C11.9502 14.6667 8.66699 11.3833 8.66699 7.33325C8.66699 3.2832 11.9502 0 16.0002 0C20.0503 0 23.3335 3.2832 23.3335 7.33325C23.3289 11.3813 20.0483 14.6619 16.0002 14.6667ZM16.0002 1.33325C12.6865 1.33325 10.0002 4.01953 10.0002 7.33325C10.0002 10.647 12.6865 13.3333 16.0002 13.3333C19.314 13.3333 22.0002 10.647 22.0002 7.33325C21.9966 4.02124 19.3125 1.33691 16.0002 1.33325Z" fill="#0E53BE"/>
<path d="M16.6665 18H15.333C14.2285 18 13.333 17.1045 13.333 16V14H14.6665V16C14.6665 16.3682 14.9648 16.6667 15.333 16.6667H16.6665C17.0347 16.6667 17.333 16.3682 17.333 16V14H18.6665V16C18.6665 17.1045 17.771 18 16.6665 18Z" fill="#0E53BE"/>
<path d="M16 9.33325C14.8955 9.33325 14 8.43799 14 7.33325C14 6.22876 14.8955 5.33325 16 5.33325C17.1045 5.33325 18 6.22876 18 7.33325C18 8.43799 17.1045 9.33325 16 9.33325ZM16 6.66675C15.6318 6.66675 15.3333 6.96509 15.3333 7.33325C15.3333 7.70142 15.6318 8 16 8C16.3682 8 16.6667 7.70142 16.6667 7.33325C16.6667 6.96509 16.3682 6.66675 16 6.66675Z" fill="#0E53BE"/>
<path d="M15.333 8.66675H16.6665V14H15.333V8.66675Z" fill="#0E53BE"/>
<path d="M30 24H18C17.7305 24 17.4873 23.8374 17.3843 23.5884C17.281 23.3394 17.3382 23.0527 17.5286 22.8621L20 20.3906V18C20 16.8955 20.8955 16 22 16H30C31.1045 16 32 16.8955 32 18V22C32 23.1045 31.1045 24 30 24ZM19.6094 22.6667H30C30.3682 22.6667 30.6668 22.3682 30.6668 22V18C30.6668 17.6318 30.3682 17.3333 30 17.3333H22C21.6319 17.3333 21.3333 17.6318 21.3333 18V20.6667C21.3333 20.8435 21.263 21.0129 21.138 21.1379L19.6094 22.6667Z" fill="#0E53BE"/>
<path d="M22.6665 19.3333H23.9998V20.6667H22.6665V19.3333Z" fill="#0E53BE"/>
<path d="M25.333 19.3333H29.333V20.6667H25.333V19.3333Z" fill="#0E53BE"/>
<path d="M14 24H2C0.895508 24 0 23.1045 0 22V18C0 16.8955 0.895508 16 2 16H10C11.1045 16 12 16.8955 12 18V20.3906L14.4714 22.8621C14.6619 23.0527 14.719 23.3394 14.6157 23.5884C14.5127 23.8374 14.2695 24 14 24ZM2 17.3333C1.63184 17.3333 1.33325 17.6318 1.33325 18V22C1.33325 22.3682 1.63184 22.6667 2 22.6667H12.3906L10.8621 21.1379C10.7371 21.0129 10.6667 20.8435 10.6667 20.6667V18C10.6667 17.6318 10.3682 17.3333 10 17.3333H2Z" fill="#0E53BE"/>
<path d="M2.66699 19.3333H4.00024V20.6667H2.66699V19.3333Z" fill="#0E53BE"/>
<path d="M5.33301 19.3333H9.33301V20.6667H5.33301V19.3333Z" fill="#0E53BE"/>
<path d="M15.333 17.3333H16.6665V19.3333H15.333V17.3333Z" fill="#0E53BE"/>
</g>
</g>
<defs>
<clipPath id="clip0_4056_11115">
<rect width="32" height="32" fill="white"/>
</clipPath>
</defs>
</svg>
