<svg width="32" height="32" viewBox="0 0 32 32" fill="none" xmlns="http://www.w3.org/2000/svg">
<path d="M6.24406 7.58118C2.82819 7.58118 5.23563 7.58118 3.12488 7.58118C1.74419 7.58118 0.625 8.70049 0.625 10.0812V24.0986C0.625 25.4792 1.74431 26.5986 3.125 26.5986H4V29.6876L7.089 26.5986H25.125C26.5057 26.5986 27.625 25.4792 27.625 24.0986V15.4149" stroke="#0E53BE" stroke-width="1.25" stroke-miterlimit="10" stroke-linecap="round" stroke-linejoin="round"/>
<path d="M16.6972 7.58118C15.1064 7.58118 13.4661 7.58118 11.8691 7.58118" stroke="#0E53BE" stroke-width="1.25" stroke-miterlimit="10" stroke-linecap="round" stroke-linejoin="round"/>
<path d="M4.69775 12.3354H13.4151" stroke="#0E53BE" stroke-width="1.25" stroke-miterlimit="10" stroke-linecap="round" stroke-linejoin="round"/>
<path d="M12.1479 18.6746H23.2535" stroke="#0E53BE" stroke-width="1.25" stroke-miterlimit="10" stroke-linecap="round" stroke-linejoin="round"/>
<path d="M4.69775 18.6746H8.27657" stroke="#0E53BE" stroke-width="1.25" stroke-miterlimit="10" stroke-linecap="round" stroke-linejoin="round"/>
<path d="M4.69775 15.505H13.4151" stroke="#0E53BE" stroke-width="1.25" stroke-miterlimit="10" stroke-linecap="round" stroke-linejoin="round"/>
<path d="M19.4922 21.8441H23.5414" stroke="#0E53BE" stroke-width="1.25" stroke-miterlimit="10" stroke-linecap="round" stroke-linejoin="round"/>
<path d="M4.69775 21.8441H16.0194" stroke="#0E53BE" stroke-width="1.25" stroke-miterlimit="10" stroke-linecap="round" stroke-linejoin="round"/>
<path d="M19.6353 15.3125H28.4897C30.0832 15.3125 31.375 14.0207 31.375 12.4272V5.19781C31.375 3.60431 30.0832 2.3125 28.4897 2.3125H19.6353C18.0418 2.3125 16.75 3.60431 16.75 5.19781V12.4272C16.75 14.0207 18.0418 15.3125 19.6353 15.3125Z" stroke="#0E53BE" stroke-width="1.25" stroke-miterlimit="10" stroke-linecap="round" stroke-linejoin="round"/>
<path d="M27.2634 6.04883H20.2861V8.56252" stroke="#0E53BE" stroke-width="1.25" stroke-miterlimit="10" stroke-linecap="round" stroke-linejoin="round"/>
<path d="M26.1138 7.04492L27.839 6.04886L26.1138 5.05286" stroke="#0E53BE" stroke-width="1.25" stroke-miterlimit="10" stroke-linecap="round" stroke-linejoin="round"/>
<path d="M20.459 11.5762H27.8389V9.0625" stroke="#0E53BE" stroke-width="1.25" stroke-miterlimit="10" stroke-linecap="round" stroke-linejoin="round"/>
<path d="M22.0113 10.5801L20.2861 11.5761L22.0113 12.5721" stroke="#0E53BE" stroke-width="1.25" stroke-miterlimit="10" stroke-linecap="round" stroke-linejoin="round"/>
<path d="M9.05664 8.20618C9.40182 8.20618 9.68164 7.92635 9.68164 7.58118C9.68164 7.236 9.40182 6.95618 9.05664 6.95618C8.71146 6.95618 8.43164 7.236 8.43164 7.58118C8.43164 7.92635 8.71146 8.20618 9.05664 8.20618Z" fill="#0E53BE"/>
</svg>
