<svg width="32" height="32" viewBox="0 0 32 32" fill="none" xmlns="http://www.w3.org/2000/svg">
<g clip-path="url(#clip0_4056_11174)">
<mask id="mask0_4056_11174" style="mask-type:luminance" maskUnits="userSpaceOnUse" x="0" y="0" width="32" height="32">
<path d="M32 0H0V32H32V0Z" fill="white"/>
</mask>
<g mask="url(#mask0_4056_11174)">
<path d="M10.6667 2.66675C10.6667 2.96118 10.428 3.19995 10.1333 3.19995C9.83887 3.19995 9.6001 2.96118 9.6001 2.66675C9.6001 2.37207 9.83887 2.1333 10.1333 2.1333C10.428 2.1333 10.6667 2.37207 10.6667 2.66675Z" fill="#0E53BE"/>
<path d="M8.5332 2.66675C8.5332 2.96118 8.29419 3.19995 7.99976 3.19995C7.70532 3.19995 7.46631 2.96118 7.46631 2.66675C7.46631 2.37207 7.70532 2.1333 7.99976 2.1333C8.29419 2.1333 8.5332 2.37207 8.5332 2.66675Z" fill="#0E53BE"/>
<path d="M12.8 2.66675C12.8 2.96118 12.5613 3.19995 12.2666 3.19995C11.9722 3.19995 11.7334 2.96118 11.7334 2.66675C11.7334 2.37207 11.9722 2.1333 12.2666 2.1333C12.5613 2.1333 12.8 2.37207 12.8 2.66675Z" fill="#0E53BE"/>
<path d="M30.9333 0H21.3333C20.7444 0.000488281 20.2673 0.477783 20.2666 1.06665V10.8157L19.2 11.1711V2.66675C19.1982 1.19458 18.0054 0.00170899 16.5334 0H3.7334C2.26123 0.00170899 1.06836 1.19458 1.06665 2.66675V5.33325H0.533447C0.23877 5.33325 0 5.57202 0 5.8667V8C0 8.29443 0.23877 8.53345 0.533447 8.53345H1.06665V9.6001H0.533447C0.23877 9.6001 0 9.83887 0 10.1333V12.2666C0 12.5613 0.23877 12.8 0.533447 12.8H1.06665V29.3333C1.06836 30.8054 2.26123 31.9983 3.7334 32H16.5334C18.0054 31.9983 19.1982 30.8054 19.2 29.3333V26.1621L20.2864 26.5244C20.3481 27.4634 20.6367 28.3735 21.1274 29.1768C21.1328 29.1865 21.1328 29.1975 21.1387 29.207C21.1467 29.2205 21.1582 29.2302 21.1675 29.2427C22.6831 31.6599 25.719 32.6348 28.3586 31.5518C30.9983 30.4688 32.4749 27.6426 31.8562 24.8574C31.2375 22.0723 28.7034 20.137 25.8535 20.2734C23.0037 20.4097 20.666 22.5781 20.3162 25.4099L19.2 25.0378V21.8667H19.3013C20.1138 21.8723 20.7993 21.2634 20.8896 20.4561L21.2559 18.1333H30.9333C31.5222 18.1328 31.9995 17.6555 32 17.0667V13.8667C31.9995 13.2778 31.5222 12.8005 30.9333 12.8H21.3333C20.7444 12.8005 20.2673 13.2778 20.2666 13.8667V17.5583L19.832 20.3201C19.8054 20.593 19.5754 20.8008 19.3013 20.8H19.2V12.2957L20.8867 11.7334H30.9333C31.5222 11.7327 31.9995 11.2556 32 10.6667V1.06665C31.9995 0.477783 31.5222 0.000488281 30.9333 0ZM22.3555 29.0842L25.6001 27.0876V30.9019C24.3181 30.7571 23.1484 30.1021 22.3555 29.0842ZM30.9333 26.1333C30.9299 28.5762 29.0942 30.6279 26.6667 30.9019V21.3647C29.0942 21.6389 30.9299 23.6904 30.9333 26.1333ZM25.6001 21.3647V25.8354L21.7964 28.176C21.1316 26.7764 21.1855 25.1418 21.9409 23.7891C22.6963 22.4363 24.0598 21.533 25.6001 21.3647ZM21.3333 13.8667H30.9333L30.9341 17.0667H21.3333V13.8667ZM16.5334 1.06665C16.6321 1.06738 16.7302 1.07739 16.8271 1.09644C16.8569 1.10181 16.8855 1.11035 16.9146 1.11768C16.9797 1.13354 17.0439 1.15356 17.1064 1.17749C17.1367 1.18921 17.1665 1.20142 17.1958 1.21484C17.2581 1.24365 17.3181 1.27637 17.3762 1.31274C17.3982 1.32666 17.4214 1.33862 17.4429 1.35352C17.5195 1.40649 17.5913 1.46582 17.6577 1.53101C17.6692 1.54224 17.6785 1.55566 17.6897 1.56714C17.7432 1.62329 17.7925 1.68286 17.8372 1.74609C17.855 1.771 17.8706 1.79712 17.8867 1.82324C17.9214 1.87842 17.9526 1.93579 17.9802 1.99487C17.9937 2.02368 18.0071 2.05249 18.0188 2.08203C18.0254 2.09863 18.0288 2.1167 18.0349 2.13354H16.126C15.1921 2.13037 14.3379 2.65845 13.9229 3.49512C13.6877 3.96924 13.2034 4.26855 12.6741 4.2666H7.59277C7.06323 4.26831 6.57886 3.96899 6.34375 3.49487C5.92896 2.6582 5.07446 2.13013 4.14062 2.1333H2.23169C2.23755 2.11646 2.24121 2.09839 2.24756 2.08154C2.25928 2.052 2.27271 2.02344 2.28613 1.99487C2.31372 1.93579 2.34497 1.87817 2.37964 1.823C2.39551 1.79687 2.41162 1.77051 2.4292 1.74561C2.47388 1.68262 2.52319 1.6228 2.57666 1.56689C2.58765 1.55542 2.59717 1.54199 2.60864 1.53076C2.67505 1.46558 2.74683 1.40601 2.82349 1.35327C2.84497 1.33862 2.86816 1.32666 2.89014 1.31274C2.94824 1.27612 3.00854 1.24341 3.07056 1.2146C3.09985 1.20117 3.12964 1.18921 3.15967 1.17725C3.22241 1.15308 3.28687 1.1333 3.35205 1.11743C3.3811 1.11011 3.40991 1.10132 3.43945 1.09595C3.53638 1.07715 3.63477 1.06738 3.7334 1.06665H16.5334ZM18.1333 20.8H15.3684C15.1438 20.1626 14.5425 19.7354 13.8667 19.7334H6.3999C5.51636 19.7334 4.80005 20.4497 4.80005 21.3333C4.80005 22.217 5.51636 22.9333 6.3999 22.9333H13.8667C14.5425 22.9312 15.1438 22.5042 15.3684 21.8667H18.1333V24.6824L17.9326 24.6155C17.7695 24.561 17.5986 24.5332 17.4268 24.5334H13.8667C13.572 24.5334 13.3333 24.7722 13.3333 25.0667C13.3333 25.3613 13.572 25.6001 13.8667 25.6001H17.4268C17.4841 25.5999 17.5413 25.6091 17.5955 25.6274L18.1333 25.8066V29.3333C18.1323 30.2166 17.4165 30.9324 16.5334 30.9333H3.7334C2.8501 30.9324 2.13428 30.2166 2.1333 29.3333V3.19995H4.14062C4.67017 3.19824 5.1543 3.49756 5.38965 3.97192C5.80444 4.80859 6.65894 5.33643 7.59277 5.33325H12.6741C13.6079 5.33643 14.4622 4.80859 14.877 3.97192C15.1123 3.49756 15.5967 3.19824 16.126 3.19995H18.1333V11.5269L17.5962 11.7061C17.5415 11.7241 17.4844 11.7334 17.4268 11.7334H15.9729C15.7402 9.13428 13.8181 7.00146 11.2571 6.50049C8.69604 5.99951 6.1123 7.25122 4.91748 9.57104C3.72266 11.8911 4.20435 14.7214 6.09961 16.5154C6.11206 16.5327 6.12573 16.5493 6.14038 16.5652C6.20239 16.6226 6.26904 16.6733 6.33301 16.7278C6.37256 16.7615 6.41138 16.7952 6.45166 16.8279C6.55444 16.9109 6.66016 16.9888 6.76758 17.0642C6.81445 17.0974 6.86084 17.1309 6.90869 17.1624C7.01416 17.2317 7.12207 17.2961 7.2312 17.3586C7.28613 17.3899 7.34009 17.4219 7.39575 17.4514C7.50195 17.5076 7.61011 17.5581 7.71924 17.6077C7.78223 17.6362 7.84448 17.6663 7.90894 17.6924C8.01489 17.7358 8.12305 17.7737 8.23169 17.8108C8.30176 17.835 8.37109 17.8608 8.44263 17.8826C8.55103 17.915 8.66138 17.9409 8.77124 17.9673C8.84546 17.9849 8.91821 18.0054 8.99341 18.0203C9.11279 18.0437 9.23413 18.0596 9.35522 18.0757C9.42285 18.0845 9.48901 18.0974 9.55713 18.1042C9.7478 18.1228 9.93994 18.1333 10.1331 18.1333C10.3264 18.1333 10.5186 18.1226 10.7092 18.1042C10.7786 18.0974 10.8457 18.0842 10.9143 18.0752C11.0342 18.0591 11.1543 18.0437 11.2725 18.0203C11.3494 18.0051 11.4238 17.9844 11.4995 17.9661C11.6077 17.9402 11.7161 17.915 11.8223 17.8831C11.8962 17.8606 11.9678 17.834 12.0405 17.8088C12.1462 17.7725 12.2517 17.7358 12.3552 17.6934C12.4224 17.6658 12.4875 17.6348 12.5535 17.6045C12.6594 17.5566 12.7644 17.5076 12.8674 17.4531C12.9265 17.4219 12.9839 17.3879 13.0417 17.3545C13.1475 17.2942 13.2517 17.2319 13.3538 17.165C13.4053 17.1309 13.4553 17.0947 13.5059 17.0591C13.6091 16.9863 13.7112 16.9111 13.8103 16.8313C13.8545 16.7957 13.8972 16.7585 13.9402 16.7217C14.0017 16.6689 14.0659 16.6204 14.1257 16.5652C14.1399 16.55 14.1531 16.5339 14.1653 16.5171C15.2002 15.5396 15.843 14.2178 15.9729 12.8H17.4268C17.5989 12.8 17.7698 12.7722 17.9331 12.718L18.1333 12.6511V20.8ZM14.3999 21.3333C14.3997 21.6277 14.1611 21.8662 13.8667 21.8667H6.3999C6.10547 21.8667 5.8667 21.6279 5.8667 21.3333C5.8667 21.0388 6.10547 20.8 6.3999 20.8H13.8667C14.1611 20.8003 14.3997 21.0388 14.3999 21.3333ZM13.9531 15.1614C13.5173 14.2847 12.7927 13.5854 11.9011 13.1812C12.7307 12.4465 13.0195 11.2754 12.6267 10.2395C12.2339 9.20337 11.2412 8.51807 10.1331 8.51807C9.02515 8.51807 8.03247 9.20337 7.63965 10.2395C7.24683 11.2754 7.53564 12.4465 8.36523 13.1812C7.47363 13.5852 6.74878 14.2847 6.31299 15.1611C4.80908 13.1843 5.06152 10.3867 6.89526 8.71118C8.72876 7.03589 11.5378 7.03589 13.3713 8.71143C15.2048 10.3872 15.4572 13.1848 13.9531 15.1614ZM12.4341 16.4775C12.408 16.4917 12.3809 16.5042 12.3545 16.5178C12.2527 16.571 12.1492 16.6218 12.043 16.668C11.998 16.6875 11.9524 16.7048 11.907 16.7229C11.8167 16.759 11.7256 16.7927 11.6328 16.8235C11.5796 16.8411 11.5254 16.8574 11.4712 16.873C11.3826 16.8989 11.293 16.9219 11.2024 16.9424C11.146 16.9553 11.0896 16.9683 11.0327 16.9792C10.9358 16.9978 10.8372 17.0117 10.738 17.0242C10.688 17.0305 10.6382 17.0388 10.5879 17.0437C10.438 17.0579 10.2866 17.0667 10.1333 17.0667C9.97998 17.0667 9.82837 17.0579 9.67871 17.0437C9.62866 17.0388 9.57935 17.0308 9.52979 17.0244C9.42993 17.012 9.33057 16.9978 9.23291 16.979C9.177 16.9683 9.12158 16.9556 9.06616 16.9429C8.97412 16.9219 8.88281 16.8987 8.79297 16.8726C8.74023 16.8572 8.68799 16.8413 8.63599 16.8245C8.54077 16.7932 8.44727 16.7585 8.35498 16.7214C8.31177 16.7041 8.26855 16.6877 8.22583 16.6694C8.11621 16.6213 8.00879 16.5693 7.90332 16.5137C7.88037 16.5017 7.85693 16.4912 7.83447 16.479C7.58008 16.3391 7.33862 16.1765 7.11353 15.9932C7.57007 14.7178 8.77856 13.8667 10.1333 13.8667C11.4878 13.8667 12.6963 14.7178 13.1528 15.9932C12.9285 16.1758 12.6877 16.3379 12.4341 16.4775ZM8.53345 11.2C8.53345 10.3164 9.24976 9.6001 10.1333 9.6001C11.0171 9.6001 11.7334 10.3164 11.7334 11.2C11.7334 12.0837 11.0171 12.8 10.1333 12.8C9.25 12.7991 8.53442 12.0833 8.53345 11.2ZM21.3333 10.6667V1.06665H30.9333L30.9341 10.6667H21.3333Z" fill="#0E53BE"/>
<path d="M29.3333 2.1333H22.9333C22.6387 2.1333 22.3999 2.37207 22.3999 2.66675C22.3999 2.96118 22.6387 3.19995 22.9333 3.19995H29.3333C29.6279 3.19995 29.8667 2.96118 29.8667 2.66675C29.8667 2.37207 29.6279 2.1333 29.3333 2.1333Z" fill="#0E53BE"/>
<path d="M22.9333 5.33325H24.5334C24.8279 5.33325 25.0667 5.09448 25.0667 4.80005C25.0667 4.50537 24.8279 4.2666 24.5334 4.2666H22.9333C22.6387 4.2666 22.3999 4.50537 22.3999 4.80005C22.3999 5.09448 22.6387 5.33325 22.9333 5.33325Z" fill="#0E53BE"/>
<path d="M27.2 6.3999H22.9333C22.6387 6.3999 22.3999 6.63867 22.3999 6.93335C22.3999 7.22778 22.6387 7.46655 22.9333 7.46655H27.2C27.4946 7.46655 27.7334 7.22778 27.7334 6.93335C27.7334 6.63867 27.4946 6.3999 27.2 6.3999Z" fill="#0E53BE"/>
<path d="M25.6001 8.53345H22.9333C22.6387 8.53345 22.3999 8.77222 22.3999 9.06665C22.3999 9.36133 22.6387 9.6001 22.9333 9.6001H25.6001C25.8945 9.6001 26.1333 9.36133 26.1333 9.06665C26.1333 8.77222 25.8945 8.53345 25.6001 8.53345Z" fill="#0E53BE"/>
<path d="M11.7336 28.8H3.73364C3.43896 28.8 3.2002 29.0388 3.2002 29.3333C3.2002 29.6279 3.43896 29.8667 3.73364 29.8667H11.7336C12.0281 29.8667 12.2668 29.6279 12.2668 29.3333C12.2668 29.0388 12.0281 28.8 11.7336 28.8Z" fill="#0E53BE"/>
<path d="M3.2002 25.0667C3.2002 25.3613 3.43896 25.6001 3.73364 25.6001H9.0669C9.36157 25.6001 9.60034 25.3613 9.60034 25.0667C9.60034 24.7722 9.36157 24.5334 9.0669 24.5334H3.73364C3.43896 24.5334 3.2002 24.7722 3.2002 25.0667Z" fill="#0E53BE"/>
<path d="M3.2002 27.2C3.2002 27.4946 3.43896 27.7334 3.73364 27.7334H16.5337C16.8281 27.7334 17.0669 27.4946 17.0669 27.2C17.0669 26.9055 16.8281 26.6667 16.5337 26.6667H3.73364C3.43896 26.6667 3.2002 26.9055 3.2002 27.2Z" fill="#0E53BE"/>
<path d="M27.7334 14.9333H22.9333C22.6387 14.9333 22.3999 15.1722 22.3999 15.4667C22.3999 15.7613 22.6387 16 22.9333 16H27.7334C28.0278 16 28.2666 15.7613 28.2666 15.4667C28.2666 15.1722 28.0278 14.9333 27.7334 14.9333Z" fill="#0E53BE"/>
</g>
</g>
<defs>
<clipPath id="clip0_4056_11174">
<rect width="32" height="32" fill="white"/>
</clipPath>
</defs>
</svg>
