<svg width="158" height="134" viewBox="0 0 158 134" fill="none" xmlns="http://www.w3.org/2000/svg">
<g clip-path="url(#clip0_327_2226)">
<path d="M10.0285 108.692C6.79494 110.997 4.41754 114.083 3.64546 118.882C2.87987 124.019 3.22613 129.273 4.65834 134.249H154.79C154.971 134.25 155.151 134.212 155.319 134.139C155.487 134.067 155.639 133.96 155.768 133.824C155.896 133.689 155.998 133.529 156.068 133.352C156.137 133.175 156.173 132.986 156.173 132.795V108.692H10.0285Z" fill="#444695"/>
<path d="M75.3762 85.715C89.2851 85.715 100.561 73.8291 100.561 59.1671C100.561 44.5051 89.2851 32.6191 75.3762 32.6191C61.4673 32.6191 50.1919 44.5051 50.1919 59.1671C50.1919 73.8291 61.4673 85.715 75.3762 85.715Z" fill="#0B50B9"/>
<path d="M75.38 81.8139C87.2435 81.8139 96.8607 71.676 96.8607 59.1702C96.8607 46.6644 87.2435 36.5265 75.38 36.5265C63.5166 36.5265 53.8994 46.6644 53.8994 59.1702C53.8994 71.676 63.5166 81.8139 75.38 81.8139Z" fill="white"/>
<path d="M75.3993 40.6807H75.3916C75.1594 40.6807 74.9712 40.8791 74.9712 41.1239V59.2952C74.9712 59.54 75.1594 59.7385 75.3916 59.7385H75.3993C75.6315 59.7385 75.8197 59.54 75.8197 59.2952V41.1239C75.8197 40.8791 75.6315 40.6807 75.3993 40.6807Z" fill="#353C73"/>
<path d="M75.7618 59.536C75.7078 59.6371 75.6186 59.7122 75.513 59.7453C75.4074 59.7784 75.2938 59.7669 75.1961 59.7132L64.9756 53.9234C64.9274 53.8959 64.8847 53.8587 64.8502 53.8139C64.8156 53.769 64.7897 53.7174 64.7741 53.662C64.7585 53.6066 64.7534 53.5485 64.7591 53.491C64.7648 53.4336 64.7813 53.3778 64.8074 53.3271C64.8601 53.2244 64.949 53.1478 65.0549 53.1139C65.1609 53.08 65.2752 53.0914 65.3731 53.1458L75.5936 58.9437C75.6893 58.9999 75.7605 59.0932 75.7919 59.2038C75.8233 59.3144 75.8125 59.4336 75.7618 59.536Z" fill="#353C73"/>
<path d="M122.179 59.9966C130.059 59.9966 136.447 53.2627 136.447 44.9559C136.447 36.6491 130.059 29.9152 122.179 29.9152C114.299 29.9152 107.911 36.6491 107.911 44.9559C107.911 53.2627 114.299 59.9966 122.179 59.9966Z" fill="#C6D8ED"/>
<path d="M122.179 56.3586C128.153 56.3586 132.995 51.2535 132.995 44.9561C132.995 38.6588 128.153 33.5537 122.179 33.5537C116.205 33.5537 111.362 38.6588 111.362 44.9561C111.362 51.2535 116.205 56.3586 122.179 56.3586Z" fill="white"/>
<path d="M129.491 47.5616C130.858 43.3013 128.689 38.68 124.648 37.2396C120.606 35.7992 116.222 38.0852 114.856 42.3455C113.49 46.6058 115.658 51.2271 119.7 52.6675C123.741 54.1078 128.125 51.8218 129.491 47.5616Z" fill="#C6D8ED"/>
<path d="M122.175 50.5607C125.111 50.5607 127.492 48.0515 127.492 44.9562C127.492 41.8609 125.111 39.3517 122.175 39.3517C119.239 39.3517 116.858 41.8609 116.858 44.9562C116.858 48.0515 119.239 50.5607 122.175 50.5607Z" fill="white"/>
<path d="M119.725 44.9549C119.724 45.4674 119.868 45.9687 120.137 46.3953C120.407 46.8219 120.791 47.1546 121.24 47.3513C121.689 47.548 122.183 47.5998 122.66 47.5003C123.137 47.4008 123.575 47.1544 123.919 46.7922C124.263 46.4301 124.498 45.9685 124.593 45.4658C124.688 44.9632 124.64 44.442 124.454 43.9684C124.268 43.4948 123.953 43.0899 123.549 42.8051C123.144 42.5202 122.669 42.3682 122.183 42.3682C121.861 42.3676 121.542 42.4341 121.244 42.5636C120.946 42.6932 120.676 42.8833 120.448 43.1232C120.22 43.3631 120.039 43.648 119.916 43.9616C119.792 44.2752 119.729 44.6113 119.729 44.9508L119.725 44.9549Z" fill="#C6D8ED"/>
<path d="M137.559 77.4669C140.376 76.5684 143.079 76.4798 143.897 73.0349C144.539 70.2951 142.119 68.079 144.084 66.0081C145.272 64.7671 147.252 63.8686 147.524 61.9548C147.791 59.9644 145.315 59.0215 145.529 57.1198C145.708 55.5444 147.738 55.1778 146.977 53.2599C146.761 52.6168 146.311 52.0903 145.728 51.7958C145.144 51.5013 144.473 51.4627 143.862 51.6885L143.663 51.7772C142.134 52.4339 142.192 53.969 141.244 55.1496C140.625 55.9231 139.562 55.347 138.526 55.3389C137.491 55.3309 136.199 55.5847 135.392 56.1448C132.759 58.0183 135.354 61.0079 135.132 63.7155C134.914 66.3385 131.31 65.2022 129.781 67.3417C127.958 69.8357 129.934 73.5506 132.17 75.126C133.615 76.1655 135.652 78.0753 137.559 77.4669Z" fill="#5686C4"/>
<path d="M134.705 77.1329H134.754C134.801 77.1388 134.847 77.1258 134.885 77.0966C134.923 77.0674 134.948 77.0242 134.957 76.9757C134.957 76.9072 136.126 70.0859 140.216 65.1905C142.509 62.4346 142.853 59.8358 143.117 57.8172C143.274 56.6528 143.4 55.6254 143.882 55.025C143.9 54.9943 143.906 54.9578 143.901 54.9223C143.895 54.8867 143.877 54.8545 143.851 54.8316C143.79 54.7752 143.713 54.7672 143.675 54.8316C143.148 55.4723 143.01 56.5118 142.853 57.7366C142.586 59.7512 142.253 62.3057 139.975 64.9891C135.801 69.9489 134.624 76.879 134.601 76.9475C134.597 76.9861 134.605 77.0251 134.623 77.0586C134.642 77.092 134.67 77.1181 134.705 77.1329Z" fill="white"/>
<path d="M140.009 65.0317C140.038 65.051 140.073 65.0589 140.106 65.0537C140.14 65.0485 140.171 65.0307 140.193 65.0035C140.214 64.9695 140.222 64.9284 140.215 64.8886C140.207 64.8488 140.186 64.8135 140.155 64.7899C139.127 63.9398 138.312 62.1669 138.802 60.926C138.859 60.7849 138.924 60.6238 138.993 60.4626C139.325 59.685 139.73 58.7502 139.375 57.9243C139.155 57.4722 138.797 57.1116 138.358 56.9009C138.332 56.8797 138.299 56.8704 138.266 56.8749C138.233 56.8794 138.203 56.8974 138.182 56.925V56.9452C138.173 56.9864 138.177 57.0299 138.194 57.0682C138.212 57.1065 138.241 57.1371 138.278 57.1547C138.641 57.3228 138.938 57.6173 139.119 57.9887C139.421 58.6938 139.039 59.5762 138.737 60.3176C138.668 60.4868 138.599 60.6439 138.538 60.793C137.995 62.1992 138.89 64.113 140.013 65.0317H140.009Z" fill="white"/>
<path d="M140.785 65.5567C141.226 65.8435 141.748 65.959 142.26 65.8831C142.964 65.7541 143.548 65.1458 143.961 64.1425C143.999 64.0418 144.045 63.929 144.087 63.8C144.359 63.0949 144.756 62.0433 145.368 61.862C145.475 61.8358 145.586 61.8341 145.693 61.857C145.801 61.8799 145.902 61.927 145.991 61.995C146.014 62.0125 146.042 62.0198 146.07 62.0153C146.098 62.0107 146.123 61.9948 146.14 61.9708C146.149 61.9352 146.147 61.8974 146.134 61.8633C146.121 61.8291 146.097 61.8003 146.067 61.7814C145.95 61.6953 145.817 61.6355 145.677 61.6057C145.537 61.5759 145.393 61.5768 145.253 61.6082C144.55 61.7975 144.106 62.9096 143.839 63.659C143.789 63.7839 143.747 63.8927 143.705 63.9934C143.323 64.9241 142.792 65.4761 142.176 65.6051C141.634 65.7018 141.01 65.4681 140.338 64.8959C140.311 64.8684 140.276 64.8529 140.238 64.8529C140.201 64.8529 140.165 64.8684 140.139 64.8959C140.119 64.9301 140.112 64.971 140.119 65.0105C140.126 65.05 140.147 65.0853 140.177 65.1095C140.368 65.2754 140.571 65.425 140.785 65.5567Z" fill="white"/>
<path d="M134.666 73.905C134.859 74.0021 135.068 74.0582 135.281 74.0702C135.325 74.0716 135.367 74.0559 135.401 74.0261C135.434 73.9963 135.455 73.9546 135.461 73.909C135.463 73.8637 135.448 73.8194 135.42 73.7855C135.391 73.7516 135.351 73.7308 135.308 73.7277C134.188 73.6592 133.256 71.8784 133.057 70.9073C133.004 70.4147 133.03 69.9163 133.133 69.4327C133.282 68.4657 133.428 67.4906 132.724 66.85C132.69 66.8188 132.646 66.8016 132.6 66.8016C132.554 66.8016 132.51 66.8188 132.476 66.85C132.461 66.865 132.45 66.8829 132.442 66.9026C132.434 66.9223 132.43 66.9435 132.43 66.9648C132.43 66.9862 132.434 67.0074 132.442 67.0271C132.45 67.0468 132.461 67.0647 132.476 67.0797C133.038 67.5712 132.9 68.4778 132.766 69.3561C132.651 69.8843 132.623 70.4297 132.686 70.9678C132.892 71.8502 133.611 73.3933 134.666 73.905Z" fill="white"/>
<path d="M136.069 74.5046C136.267 74.5984 136.479 74.657 136.695 74.6779C137.953 74.8149 139.432 73.9003 140.105 73.2475C140.492 72.7983 140.805 72.2834 141.03 71.7245C141.481 70.7777 141.947 69.8147 142.662 69.8429C142.696 69.8429 142.728 69.8291 142.752 69.8042C142.777 69.7794 142.791 69.7456 142.792 69.71C142.789 69.6709 142.774 69.6341 142.748 69.6061C142.722 69.578 142.687 69.5606 142.65 69.5569C141.767 69.5166 141.244 70.6085 140.77 71.5714C140.557 72.0976 140.264 72.5835 139.902 73.0098C139.291 73.582 137.88 74.4724 136.734 74.3435C136.523 74.3274 136.318 74.2633 136.133 74.1554C135.949 74.0476 135.788 73.8986 135.663 73.719C135.636 73.6826 135.596 73.6584 135.552 73.651C135.509 73.6435 135.464 73.6534 135.426 73.6787C135.391 73.7033 135.366 73.7417 135.358 73.7855C135.349 73.8293 135.357 73.8749 135.381 73.9124C135.558 74.1682 135.795 74.3721 136.069 74.5046Z" fill="white"/>
<path d="M46.3625 108.906C43.8933 107.23 37.5256 105.836 38.0722 101.92C38.5232 98.5956 44.5699 97.2015 42.8996 93.8613C41.9135 91.875 40.8853 90.2351 41.5351 87.455C42.2498 84.4251 46.8364 84.6024 47.6505 81.7417C48.3462 79.288 45.8618 76.5482 48.0786 74.3885C50.047 72.4707 53.4679 74.0662 54.454 76.0848C55.6848 78.5829 53.5061 80.5974 53.8042 83.0149C53.9915 84.5661 55.4134 84.6951 56.4186 85.517C57.4795 86.3434 58.297 87.4692 58.7769 88.7645C59.9044 92.4229 56.1816 94.0386 54.9853 96.9356C53.8807 99.6109 57.3627 100.098 57.5271 102.605C57.7067 105.32 54.6222 107.73 52.176 108.427C50.4904 108.894 47.8913 109.946 46.3625 108.906Z" fill="#0B50B9"/>
<path d="M49.1335 109.402H49.0876C49.0705 109.401 49.0537 109.397 49.0382 109.389C49.0227 109.382 49.009 109.371 48.9978 109.357C48.9866 109.343 48.9783 109.327 48.9734 109.31C48.9684 109.293 48.967 109.275 48.9691 109.257C48.9674 109.245 48.9674 109.232 48.9691 109.22C48.9691 109.156 50.972 102.693 49.3514 95.7913C48.2697 91.19 49.294 87.733 50.1158 84.9126C50.6241 83.2043 51.0675 81.6893 50.8535 80.408C50.8465 80.356 50.8583 80.303 50.8867 80.2597C50.915 80.2165 50.9577 80.186 51.0064 80.1744C51.0279 80.1676 51.0506 80.1656 51.0729 80.1682C51.0953 80.1709 51.1169 80.1783 51.1365 80.19C51.1561 80.2016 51.1733 80.2173 51.1871 80.2361C51.2008 80.2548 51.2109 80.2763 51.2166 80.2993C51.2181 80.3059 51.2181 80.3128 51.2166 80.3194C51.4497 81.7135 50.9949 83.2486 50.4827 85.0013C49.6533 87.7854 48.6404 91.1819 49.7183 95.6905C51.3465 102.677 49.3361 109.22 49.3093 109.273C49.2956 109.31 49.2715 109.343 49.2402 109.366C49.2088 109.389 49.1717 109.401 49.1335 109.402Z" fill="white"/>
<path d="M49.6568 95.7131C49.6174 95.7201 49.5768 95.7106 49.5439 95.6865C49.5111 95.6624 49.4885 95.6256 49.481 95.5841C49.4751 95.5364 49.4864 95.488 49.5125 95.4485C49.5387 95.409 49.5779 95.3812 49.6224 95.3706C51.0978 95.0322 52.8101 93.5575 53.0012 91.8773C53.0204 91.6799 53.0395 91.4744 53.0586 91.2246C53.1465 90.1126 53.2573 88.7266 54.0715 88.0013C54.5121 87.6303 55.074 87.4579 55.6347 87.5219C55.6556 87.5224 55.6762 87.5273 55.6953 87.5363C55.7144 87.5454 55.7316 87.5583 55.7458 87.5745C55.7601 87.5906 55.7711 87.6096 55.7783 87.6303C55.7855 87.6511 55.7886 87.6731 55.7876 87.6951V87.7193C55.7779 87.7694 55.7521 87.8144 55.7144 87.8468C55.6768 87.8791 55.6297 87.8967 55.5812 87.8966C55.3524 87.869 55.1207 87.8905 54.9001 87.9598C54.6794 88.029 54.4742 88.1446 54.297 88.2995C53.6051 88.9159 53.502 90.2214 53.4179 91.2569C53.4094 91.4783 53.3877 91.699 53.3529 91.9176C53.135 93.8154 51.2774 95.3706 49.6721 95.7332L49.6568 95.7131Z" fill="white"/>
<path d="M48.5789 95.8518C47.9514 95.9178 47.3219 95.748 46.8016 95.3723C46.0639 94.7962 45.697 93.7204 45.697 92.2417V91.7381C45.7391 90.6744 45.8079 89.0547 45.1275 88.3617C45.0105 88.2461 44.8718 88.1578 44.7204 88.1022C44.569 88.0467 44.4082 88.0253 44.2484 88.0393C44.202 88.0405 44.157 88.0226 44.1228 87.9896C44.0886 87.9566 44.0679 87.9108 44.0649 87.862C44.0687 87.8107 44.0902 87.7626 44.1255 87.7269C44.1607 87.6912 44.2072 87.6705 44.2561 87.6686C44.465 87.6539 44.6746 87.6845 44.8718 87.7587C45.0691 87.8329 45.2498 87.9489 45.4027 88.0998C46.1671 88.9056 46.106 90.618 46.0563 91.726V92.2216C46.0334 93.5834 46.3659 94.5504 47.0157 95.0782C47.5737 95.5134 48.3687 95.606 49.3816 95.3723C49.4014 95.3655 49.4223 95.3629 49.4431 95.3647C49.4639 95.3664 49.4841 95.3726 49.5027 95.3827C49.5212 95.3928 49.5376 95.4068 49.5509 95.4237C49.5643 95.4406 49.5743 95.4601 49.5803 95.4811C49.5861 95.5305 49.5739 95.5804 49.5463 95.6207C49.5186 95.6611 49.4776 95.6889 49.4313 95.6987C49.1515 95.7736 48.8665 95.8247 48.5789 95.8518Z" fill="white"/>
<path d="M50.5587 106.653C50.3512 106.673 50.142 106.657 49.9395 106.605C49.9224 106.6 49.9064 106.592 49.8923 106.581C49.8782 106.569 49.8664 106.555 49.8575 106.539C49.8486 106.523 49.8428 106.505 49.8405 106.487C49.8382 106.468 49.8394 106.45 49.844 106.432C49.8417 106.422 49.8417 106.413 49.844 106.403C49.8624 106.36 49.895 106.326 49.9357 106.306C49.9763 106.286 50.0225 106.282 50.0657 106.295C51.0862 106.589 52.6647 105.344 53.2686 104.562C53.536 104.152 53.7422 103.701 53.8802 103.224C54.2089 102.298 54.5529 101.327 55.4091 101.041C55.4461 101.024 55.4877 101.024 55.5249 101.04C55.562 101.056 55.5918 101.086 55.6078 101.125C55.6078 101.125 55.6078 101.125 55.6078 101.145C55.6151 101.192 55.6058 101.239 55.5818 101.278C55.5578 101.318 55.5208 101.347 55.4779 101.359C54.7861 101.585 54.4803 102.455 54.1783 103.297C54.0257 103.809 53.8002 104.294 53.5094 104.735C53.0087 105.436 51.7016 106.544 50.5587 106.653Z" fill="white"/>
<path d="M49.0413 106.741C48.8198 106.757 48.5973 106.741 48.3801 106.693C47.1187 106.403 46.0485 105.021 45.6357 104.151C45.4291 103.544 45.3307 102.902 45.3452 102.257C45.2879 101.092 45.2268 99.8393 44.4088 99.5412C44.3901 99.5357 44.3726 99.5262 44.3574 99.5134C44.3422 99.5006 44.3295 99.4847 44.3203 99.4667C44.311 99.4486 44.3053 99.4288 44.3034 99.4084C44.3015 99.388 44.3036 99.3674 44.3094 99.3478V99.3156C44.3342 99.2741 44.371 99.2422 44.4145 99.2247C44.4579 99.2073 44.5056 99.2052 44.5502 99.2189C45.5631 99.6218 45.6281 101.016 45.6969 102.229C45.6784 102.834 45.7652 103.437 45.953 104.009C46.3352 104.783 47.3442 106.125 48.4909 106.391C48.9207 106.498 49.3732 106.424 49.7522 106.185C49.7893 106.161 49.8338 106.152 49.8769 106.16C49.9201 106.168 49.9587 106.193 49.9854 106.23C50.0035 106.267 50.0072 106.311 49.9958 106.351C49.9845 106.392 49.9588 106.426 49.9242 106.447C49.6538 106.612 49.3525 106.712 49.0413 106.741Z" fill="white"/>
<path d="M133.634 97.3663C132.575 95.7023 129.151 93.1639 130.412 90.9841C131.486 89.1348 135.407 89.9366 135.235 87.4909C135.132 86.0485 134.922 84.7994 135.973 83.3248C137.12 81.7131 139.795 83.0629 140.984 81.5842C141.993 80.319 141.183 78.0224 143.025 77.3415C144.661 76.7331 146.301 78.6067 146.392 80.0571C146.511 81.8864 144.734 82.4746 144.321 84.0017C144.061 84.9687 144.867 85.436 145.269 86.1975C145.692 86.9745 145.903 87.8603 145.876 88.756C145.655 91.2299 143.056 91.1735 141.641 92.5797C140.33 93.869 142.284 95.0979 141.775 96.629C141.221 98.2849 138.805 98.8853 137.189 98.6435C136.08 98.4743 134.295 98.3937 133.634 97.3663Z" fill="#353C73"/>
<path d="M135.159 98.4057H135.132C135.113 98.3961 135.098 98.379 135.09 98.3581C135.082 98.3371 135.082 98.3138 135.09 98.2929L135.109 98.2647C136.878 95.9944 138.077 93.2911 138.595 90.4039C139.073 87.382 140.506 85.6092 141.698 84.1587C142.413 83.2804 143.04 82.5149 143.227 81.6808C143.236 81.6475 143.256 81.6188 143.283 81.6008C143.311 81.5827 143.345 81.5768 143.376 81.5841C143.404 81.589 143.429 81.6044 143.447 81.6275C143.464 81.6505 143.473 81.6795 143.472 81.709C143.47 81.7156 143.47 81.7226 143.472 81.7292C143.273 82.6196 142.627 83.4053 141.89 84.3078C140.743 85.7341 139.313 87.4747 138.832 90.4321C138.303 93.3561 137.085 96.0927 135.289 98.3896C135.27 98.4046 135.249 98.414 135.226 98.4168C135.203 98.4197 135.18 98.4158 135.159 98.4057Z" fill="white"/>
<path d="M138.79 90.4282C138.765 90.4215 138.743 90.4047 138.729 90.3814C138.716 90.358 138.712 90.33 138.717 90.3033C138.726 90.2718 138.746 90.2451 138.773 90.2286C138.8 90.2121 138.832 90.2071 138.863 90.2147C139.818 90.4161 141.186 90.0051 141.706 89.0543C141.777 88.924 141.841 88.7895 141.897 88.6514C142.222 88.0188 142.635 87.2251 143.285 87.0115C143.636 86.9102 144.011 86.9594 144.328 87.1485C144.352 87.1607 144.371 87.1822 144.38 87.2085C144.389 87.2348 144.389 87.2638 144.378 87.2895C144.36 87.3166 144.334 87.3365 144.305 87.346C144.275 87.3556 144.243 87.3541 144.214 87.3419C144.087 87.2609 143.946 87.2077 143.8 87.1856C143.653 87.1634 143.504 87.1727 143.361 87.213C142.799 87.3943 142.421 88.1397 142.119 88.7279C142.054 88.8649 141.985 88.9938 141.924 89.1308C141.336 90.1945 139.856 90.6135 138.813 90.4L138.79 90.4282Z" fill="white"/>
<path d="M138.117 90.2155C137.728 90.0833 137.396 89.809 137.181 89.4419C136.883 88.902 136.921 88.1606 137.292 87.2904L137.426 86.9962C137.708 86.3798 138.144 85.445 137.911 84.8406C137.87 84.7407 137.809 84.651 137.732 84.5774C137.656 84.5038 137.566 84.448 137.468 84.4136C137.454 84.4078 137.441 84.3991 137.43 84.3881C137.419 84.377 137.41 84.3638 137.404 84.3492C137.398 84.3346 137.395 84.3189 137.395 84.303C137.394 84.2871 137.397 84.2712 137.403 84.2564C137.417 84.227 137.442 84.2045 137.472 84.1933C137.501 84.1821 137.534 84.1831 137.563 84.196C137.691 84.2426 137.808 84.3169 137.907 84.414C138.005 84.5112 138.084 84.6291 138.136 84.7601C138.404 85.445 137.945 86.4402 137.643 87.0889C137.59 87.1937 137.548 87.2904 137.51 87.375C137.166 88.1808 137.127 88.8537 137.384 89.317C137.538 89.5447 137.737 89.7345 137.967 89.8736C138.197 90.0127 138.453 90.0977 138.717 90.1228C138.744 90.1269 138.769 90.1416 138.786 90.1641C138.803 90.1865 138.811 90.215 138.809 90.2437C138.801 90.2741 138.782 90.3001 138.757 90.3165C138.731 90.333 138.701 90.3386 138.672 90.3324C138.484 90.3119 138.298 90.2727 138.117 90.2155Z" fill="white"/>
<path d="M136.672 97.161C136.534 97.1231 136.404 97.0559 136.29 96.9636C136.282 96.9553 136.275 96.9453 136.271 96.9343C136.266 96.9232 136.264 96.9112 136.264 96.8991C136.264 96.8871 136.266 96.8751 136.271 96.864C136.275 96.853 136.282 96.843 136.29 96.8347C136.313 96.815 136.341 96.8043 136.37 96.8043C136.4 96.8043 136.428 96.815 136.451 96.8347C136.982 97.2859 138.224 96.9717 138.771 96.6695C139.03 96.5005 139.262 96.2898 139.459 96.045C139.879 95.5857 140.319 95.0981 140.907 95.1666C140.934 95.1687 140.959 95.1816 140.977 95.2027C140.994 95.2237 141.004 95.2512 141.003 95.2794C140.994 95.3081 140.977 95.3328 140.953 95.3497C140.93 95.3665 140.901 95.3744 140.873 95.3721C140.41 95.3157 140.013 95.775 139.631 96.1779C139.419 96.4408 139.17 96.6677 138.893 96.8508C138.411 97.1167 137.376 97.3988 136.672 97.161Z" fill="white"/>
<path d="M135.771 96.8018C135.635 96.7531 135.506 96.6839 135.388 96.5964C134.712 96.0847 134.414 94.9847 134.379 94.3481C134.404 93.9296 134.502 93.5197 134.67 93.1394C134.918 92.4222 135.182 91.6808 134.769 91.2618C134.752 91.243 134.742 91.2176 134.742 91.1913C134.742 91.1649 134.752 91.1396 134.769 91.1208C134.792 91.099 134.822 91.0869 134.853 91.0869C134.884 91.0869 134.914 91.099 134.937 91.1208C135.442 91.6284 135.14 92.4746 134.876 93.2119C134.721 93.5659 134.628 93.9468 134.601 94.336C134.632 94.9041 134.911 95.9678 135.526 96.4352C135.757 96.6144 136.045 96.6924 136.329 96.6528C136.356 96.6488 136.384 96.6557 136.408 96.672C136.431 96.6883 136.448 96.713 136.455 96.7414C136.456 96.7696 136.447 96.7971 136.429 96.8182C136.411 96.8392 136.386 96.8522 136.359 96.8542C136.162 96.8798 135.961 96.862 135.771 96.8018Z" fill="white"/>
<path d="M87.435 86.8338C90.0876 86.5558 92.2012 86.2657 92.6484 83.4171C92.8816 81.9425 92.3962 80.8264 91.0278 79.7909C89.9232 78.9448 89.3384 78.6265 89.2429 77.2687C89.0938 75.105 90.3475 73.1872 89.3652 70.9711C88.2797 68.4972 84.9888 69.0331 83.8115 66.7728C82.7566 64.726 82.3897 62.2279 79.6071 61.8411C77.2871 61.5107 75.9876 63.9242 76.7329 65.8703C77.1571 66.9541 78.0362 67.8083 78.2885 68.9364C78.5408 70.0646 77.998 70.7818 77.4973 71.6521C76.3927 73.5941 75.8958 75.6812 77.9483 77.3734C79.1752 78.3888 80.104 79.2631 79.4199 80.7095C78.686 82.2366 78.342 83.127 80.0199 84.5896C81.2736 85.7016 82.5388 85.8225 84.1135 86.1408C85.5889 86.439 87.5114 87.1682 89.0059 86.7049L87.435 86.8338Z" fill="#5686C4"/>
<path d="M86.8043 85.2094C87.0389 85.0122 87.2261 84.7597 87.3509 84.4721C87.8248 83.3076 86.9075 81.9539 86.0819 80.7169C85.6932 80.1914 85.3648 79.6193 85.1034 79.0126C84.6677 77.7031 84.6333 76.5951 85.0002 74.9069C85.4283 72.9125 85.027 72.0059 83.651 70.4306C82.5044 69.105 81.3577 67.6625 81.159 66.3772C81.1431 66.3243 81.1096 66.2792 81.0646 66.2503C81.0196 66.2214 80.9662 66.2107 80.9143 66.2201C80.8643 66.2232 80.8172 66.246 80.7825 66.2841C80.7477 66.3222 80.7279 66.3728 80.7271 66.4256C80.9411 67.7915 82.1107 69.2782 83.3032 70.6401C84.641 72.159 85.0079 72.9689 84.6027 74.8747C84.2302 76.278 84.2715 77.7676 84.7212 79.1456C84.9895 79.7725 85.3297 80.3625 85.7341 80.9023C86.5368 82.111 87.4235 83.4084 87.0031 84.4358C86.7726 84.8993 86.3952 85.2628 85.9367 85.4632C85.8449 85.5076 85.8029 85.6002 85.8488 85.6687C85.8812 85.702 85.9233 85.7229 85.9684 85.728C86.0134 85.7331 86.0588 85.7222 86.0972 85.6969C86.3508 85.5653 86.5883 85.4016 86.8043 85.2094Z" fill="white"/>
<path d="M84.6645 76.8051C84.6895 76.785 84.7074 76.7568 84.7154 76.7247C84.7235 76.6927 84.7212 76.6588 84.7089 76.6283C84.6967 76.5979 84.6751 76.5726 84.6477 76.5564C84.6203 76.5403 84.5885 76.5342 84.5575 76.5392C83.6172 76.5069 83.0286 75.6407 82.4132 74.7059C81.8628 73.9001 81.2666 73.0137 80.3722 72.6591C80.3222 72.638 80.2671 72.6349 80.2152 72.6502C80.1634 72.6655 80.1178 72.6984 80.0855 72.7437C80.065 72.7764 80.0575 72.8163 80.0647 72.8547C80.0718 72.8932 80.093 72.9271 80.1238 72.9492H80.1734C80.9723 73.2595 81.5227 74.0774 82.0501 74.8631C82.6999 75.826 83.3535 76.8051 84.5001 76.8414C84.5573 76.8508 84.6158 76.8379 84.6645 76.8051Z" fill="white"/>
<path d="M85.0576 79.3883C85.0747 79.3742 85.0902 79.358 85.1035 79.3399C85.2063 79.1393 85.2908 78.9289 85.3557 78.7114C85.4416 78.3676 85.6193 78.0571 85.8679 77.8169C86.0345 77.6586 86.2107 77.5119 86.3954 77.3777C86.8097 77.1126 87.1479 76.7338 87.3738 76.2818C87.7306 75.3584 87.862 74.3555 87.7561 73.3647C87.7324 73.1435 87.6954 72.9242 87.6452 72.708C87.5726 72.3494 87.435 71.6685 87.5306 71.5476C87.5541 71.516 87.5649 71.4758 87.5606 71.4359C87.5563 71.3959 87.5373 71.3593 87.5076 71.334H87.4847C87.4412 71.3104 87.3915 71.3023 87.3432 71.311C87.295 71.3198 87.2507 71.3448 87.2171 71.3824C87.0298 71.604 87.1139 72.0754 87.263 72.8208C87.3098 73.0255 87.3468 73.2326 87.3738 73.4413C87.4748 74.384 87.3608 75.3385 87.0413 76.2254C86.8467 76.6235 86.5483 76.9548 86.1813 77.1803C85.9815 77.325 85.7912 77.4839 85.6118 77.6558C85.3229 77.9357 85.1149 78.2961 85.0117 78.6953C84.9515 78.8921 84.8734 79.0823 84.7786 79.2634C84.7616 79.2934 84.7565 79.3292 84.7644 79.3631C84.7722 79.397 84.7924 79.4263 84.8206 79.4447C84.8357 79.4548 84.8526 79.4617 84.8703 79.4648C84.9397 79.4651 85.0066 79.4378 85.0576 79.3883Z" fill="white"/>
<path d="M134.146 112.576C131.631 111.025 129.693 109.736 130.289 106.436C130.587 104.76 131.436 103.789 133.083 103.261C134.421 102.83 135.082 102.733 135.617 101.363C136.462 99.1957 135.904 96.7782 137.509 94.953C139.279 92.9384 142.241 94.6871 144.007 92.886C145.589 91.2744 146.644 89.0382 149.419 89.6305C149.919 89.7299 150.387 89.9624 150.777 90.3059C151.168 90.6493 151.469 91.0924 151.652 91.5929C151.835 92.0934 151.893 92.6349 151.821 93.1658C151.749 93.6968 151.55 94.1996 151.242 94.6266C150.532 95.5573 149.4 96.0852 148.857 97.1408C148.315 98.1964 148.651 99.1554 148.922 100.288C149.534 102.814 149.469 105.308 146.836 106.283C145.265 106.863 144.038 107.407 144.313 109.353C144.607 111.432 144.695 112.621 142.471 113.543C140.8 114.232 139.447 113.753 137.727 113.354C136.13 112.983 133.947 112.911 132.628 111.682L134.146 112.576Z" fill="#0B50B9"/>
<path d="M135.323 111.041C135.159 110.705 135.062 110.338 135.036 109.961C134.964 108.467 136.325 107.375 137.551 106.388C138.118 105.986 138.632 105.508 139.08 104.965C139.925 103.757 140.303 102.576 140.472 100.658C140.659 98.4301 141.32 97.6646 143.128 96.6049C144.657 95.7145 146.163 94.7031 146.709 93.4984C146.754 93.4524 146.813 93.4266 146.876 93.4266C146.938 93.4266 146.998 93.4524 147.042 93.4984C147.073 93.5259 147.097 93.5617 147.11 93.6022C147.124 93.6426 147.126 93.6861 147.118 93.7281C146.534 95.0134 144.963 96.0569 143.392 96.9756C141.641 97.9909 141.041 98.6799 140.861 100.807C140.72 102.443 140.418 103.833 139.413 105.28C138.951 105.838 138.423 106.332 137.842 106.75C136.653 107.697 135.338 108.765 135.403 110.09C135.468 110.705 135.719 111.281 136.118 111.734C136.191 111.835 136.198 111.96 136.118 112.012C136.074 112.034 136.024 112.039 135.977 112.025C135.929 112.01 135.889 111.979 135.862 111.936C135.652 111.659 135.471 111.359 135.323 111.041Z" fill="white"/>
<path d="M140.204 102.793C140.182 102.754 140.173 102.709 140.177 102.664C140.177 102.563 140.281 102.515 140.388 102.555C141.332 102.914 142.176 102.233 143.063 101.508C143.858 100.867 144.691 100.198 145.708 100.202C145.767 100.204 145.824 100.224 145.871 100.261C145.918 100.298 145.953 100.349 145.972 100.408C145.978 100.427 145.981 100.447 145.98 100.468C145.978 100.488 145.973 100.508 145.964 100.526C145.955 100.544 145.943 100.56 145.928 100.573C145.912 100.586 145.895 100.596 145.876 100.601C145.857 100.605 145.838 100.605 145.819 100.601C144.928 100.601 144.13 101.234 143.369 101.842C142.436 102.591 141.481 103.357 140.334 102.918C140.279 102.892 140.233 102.848 140.204 102.793Z" fill="white"/>
<path d="M139.008 105.408C138.999 105.385 138.991 105.36 138.985 105.336C138.946 105.079 138.928 104.818 138.932 104.558C138.954 104.157 138.879 103.756 138.714 103.394C138.602 103.158 138.474 102.93 138.332 102.713C138.011 102.257 137.804 101.724 137.732 101.162C137.69 100.082 137.888 99.0076 138.309 98.0229C138.401 97.8116 138.505 97.6059 138.618 97.4064C138.798 97.072 139.138 96.4435 139.085 96.2783C139.077 96.26 139.073 96.2404 139.073 96.2205C139.073 96.2007 139.076 96.181 139.083 96.1626C139.09 96.1442 139.101 96.1275 139.114 96.1134C139.128 96.0994 139.144 96.0883 139.161 96.0808C139.174 96.0772 139.187 96.0772 139.199 96.0808C139.249 96.0738 139.299 96.0847 139.342 96.1118C139.385 96.1388 139.419 96.1805 139.436 96.2299C139.551 96.52 139.329 96.9632 138.955 97.6522C138.832 97.8818 138.718 98.0954 138.66 98.2364C138.263 99.1801 138.072 100.206 138.102 101.238C138.167 101.73 138.351 102.197 138.637 102.592C138.786 102.831 138.921 103.078 139.043 103.333C139.238 103.759 139.329 104.23 139.306 104.703C139.302 104.943 139.318 105.183 139.356 105.42C139.365 105.455 139.361 105.492 139.345 105.524C139.329 105.556 139.301 105.579 139.268 105.59C139.245 105.596 139.222 105.596 139.199 105.59C139.156 105.578 139.116 105.555 139.082 105.524C139.049 105.492 139.024 105.453 139.008 105.408Z" fill="white"/>
<path d="M89.1779 81.9142C86.2998 81.4348 84.0524 80.9754 83.4714 77.6715C83.1733 75.9954 83.6243 74.7665 85.0003 73.6424C86.1049 72.7278 86.6821 72.3853 86.7088 70.9026C86.747 68.5738 85.394 66.5229 86.2578 64.2062C87.2172 61.6517 90.5769 62.1513 91.6089 59.7742C92.53 57.679 92.7326 55.1809 95.5266 54.6733C96.0264 54.5752 96.5417 54.6133 97.0236 54.7839C97.5055 54.9546 97.9381 55.2522 98.2803 55.6485C98.6226 56.0448 98.8631 56.5266 98.9792 57.0484C99.0953 57.5702 99.083 58.1145 98.9436 58.6299C98.6073 59.7701 97.7434 60.6888 97.5906 61.8854C97.4377 63.0821 98.0951 63.8557 98.7372 64.7985C100.178 66.9138 100.981 69.2627 98.8595 71.1766C97.5944 72.3168 96.6503 73.2999 97.5638 75.0043C98.5576 76.8295 99.0621 77.8972 97.2962 79.6136C95.9776 80.8948 94.5481 80.9674 92.8128 81.2534C91.1961 81.5194 89.1283 82.2849 87.4847 81.6564L89.1779 81.9142Z" fill="#353C73"/>
<path d="M89.7515 80.0366C89.4819 79.786 89.2635 79.4803 89.1094 79.1381C88.5284 77.7762 89.419 76.2331 90.214 74.843C90.5993 74.2541 90.9102 73.6148 91.1389 72.9413C91.5212 71.4787 91.46 70.2256 90.9517 68.3964C90.3592 66.2449 90.7109 65.29 92.0295 63.6017C93.1341 62.1875 94.2005 60.6685 94.2999 59.3349C94.3044 59.3071 94.3143 59.2806 94.3288 59.257C94.3433 59.2333 94.3621 59.213 94.3843 59.1972C94.4064 59.1814 94.4313 59.1705 94.4575 59.165C94.4837 59.1596 94.5107 59.1598 94.5369 59.1657C94.5639 59.1635 94.5911 59.1671 94.6167 59.1764C94.6424 59.1857 94.666 59.2004 94.686 59.2197C94.7061 59.2389 94.7222 59.2623 94.7333 59.2883C94.7445 59.3144 94.7505 59.3426 94.7509 59.3712C94.6477 60.7934 93.5469 62.3688 92.4003 63.8032C91.116 65.4149 90.7949 66.2972 91.3606 68.3481C91.7925 69.9234 91.9913 71.3377 91.5517 73.0621C91.3139 73.761 90.9915 74.4246 90.5924 75.0364C89.8279 76.3781 88.9488 77.8568 89.4878 79.0655C89.7577 79.6149 90.1878 80.0583 90.7147 80.3307C90.8179 80.3911 90.8714 80.5039 90.8255 80.5805C90.7914 80.6185 90.745 80.6416 90.6955 80.6453C90.6459 80.649 90.5969 80.6331 90.558 80.6006C90.2702 80.4447 89.9997 80.2555 89.7515 80.0366Z" fill="white"/>
<path d="M91.4526 70.4836C91.4196 70.4557 91.3956 70.4177 91.3838 70.3748C91.3609 70.2781 91.4297 70.1935 91.5443 70.1935C92.5457 70.1613 93.0961 69.2104 93.6886 68.179C94.2084 67.2764 94.755 66.3296 95.699 65.9468C95.7541 65.925 95.8142 65.9218 95.8711 65.9377C95.928 65.9536 95.9787 65.9878 96.0163 66.0355C96.0427 66.0641 96.0574 66.1024 96.0574 66.1422C96.0574 66.1821 96.0427 66.2204 96.0163 66.249C95.9981 66.2649 95.9774 66.2772 95.9551 66.2853C95.1181 66.6197 94.6021 67.5222 94.1128 68.3804C93.5013 69.4361 92.8744 70.5078 91.6552 70.54C91.6195 70.546 91.5831 70.544 91.5482 70.5343C91.5134 70.5246 91.4808 70.5073 91.4526 70.4836Z" fill="white"/>
<path d="M91.2303 73.3859C91.211 73.3696 91.1954 73.3489 91.1845 73.3255C91.0591 73.1002 90.9517 72.8644 90.8634 72.6204C90.7472 72.2324 90.5379 71.8826 90.2557 71.605C90.0703 71.4277 89.875 71.2622 89.6709 71.1094C89.2088 70.8152 88.8279 70.3985 88.5663 69.9007C88.1533 68.9141 87.9661 67.8389 88.0197 66.762C88.033 66.5295 88.0598 66.2981 88.1 66.069C88.1497 65.6661 88.249 64.969 88.1458 64.8321C88.1322 64.8178 88.1214 64.8009 88.114 64.7822C88.1066 64.7635 88.1028 64.7435 88.1028 64.7233C88.1028 64.703 88.1066 64.683 88.114 64.6643C88.1214 64.6457 88.1322 64.6287 88.1458 64.6145C88.1531 64.6056 88.1623 64.5987 88.1726 64.5943C88.2168 64.571 88.267 64.5631 88.3158 64.5718C88.3646 64.5805 88.4095 64.6053 88.444 64.6427C88.6466 64.8723 88.5969 65.3679 88.486 66.1576C88.449 66.3749 88.4235 66.5941 88.4096 66.8144C88.3635 67.8442 88.5386 68.8716 88.9218 69.8201C89.1523 70.2564 89.487 70.6217 89.8926 70.8798C90.1129 71.0448 90.3235 71.2237 90.5232 71.4157C90.8581 71.7323 91.1118 72.1327 91.2609 72.5801C91.3391 72.8064 91.4363 73.0248 91.5514 73.2328C91.5715 73.2624 91.58 73.2991 91.575 73.3352C91.57 73.3712 91.5519 73.4038 91.5247 73.4262C91.508 73.4404 91.4883 73.4501 91.4673 73.4544C91.4255 73.4616 91.3826 73.4593 91.3417 73.4475C91.3008 73.4356 91.2628 73.4146 91.2303 73.3859Z" fill="white"/>
<path d="M38.9241 113.797C35.3274 113.664 32.0862 114.454 30.091 110.634C28.524 107.604 30.7217 104.188 27.7977 102.395C26.0281 101.315 23.4175 100.908 22.5499 98.7322C21.6593 96.4598 24.3157 94.5299 23.5016 92.342C22.8136 90.541 20.3254 90.7908 20.6273 88.2525C20.6573 87.8399 20.7642 87.4375 20.9418 87.0685C21.1195 86.6995 21.3644 86.3711 21.6626 86.102C21.9608 85.8329 22.3065 85.6285 22.6798 85.5004C23.053 85.3723 23.4466 85.3231 23.838 85.3555C23.9297 85.3555 24.0253 85.3555 24.117 85.3918C26.1083 85.6738 26.525 87.495 27.9736 88.5829C28.9406 89.3081 30.0222 88.2605 31.2453 87.91C32.4684 87.5595 34.0661 87.4466 35.1975 87.8496C38.8782 89.1913 36.669 93.579 37.7507 96.7136C38.7865 99.7395 42.6889 97.2092 45.1695 99.2198C48.0629 101.569 46.8245 106.593 44.6574 109.212C43.2011 110.969 41.355 113.882 38.9241 113.797Z" fill="#5686C4"/>
<path d="M42.1957 112.448L42.1383 112.476C42.0859 112.497 42.0278 112.497 41.9754 112.475C41.9231 112.454 41.8804 112.412 41.8555 112.359C41.8211 112.278 38.4155 104.599 32.1357 100.167C28.5964 97.6729 27.4268 94.7115 26.5133 92.4068C25.9782 91.0571 25.5233 89.9047 24.7665 89.3648C24.7386 89.3322 24.7231 89.2899 24.7231 89.246C24.7231 89.202 24.7386 89.1597 24.7665 89.1271C24.7733 89.1078 24.7837 89.0902 24.797 89.0753C24.8104 89.0603 24.8264 89.0483 24.8443 89.0401C24.8621 89.0318 24.8813 89.0274 24.9008 89.0271C24.9203 89.0268 24.9396 89.0307 24.9577 89.0385C25.7718 89.6187 26.2419 90.8032 26.7999 92.1973C27.7058 94.4778 28.8639 97.3989 32.3536 99.8526C38.7634 104.337 42.2262 112.137 42.2645 112.218C42.2762 112.259 42.276 112.303 42.2637 112.344C42.2514 112.385 42.2277 112.421 42.1957 112.448Z" fill="white"/>
<path d="M32.3228 99.9085C32.2954 99.9422 32.2566 99.9636 32.2147 99.9681C32.1727 99.9726 32.1307 99.9599 32.0973 99.9326C32.0644 99.8979 32.0459 99.8508 32.0459 99.8017C32.0459 99.7526 32.0644 99.7055 32.0973 99.6708C33.0567 98.3291 33.4733 95.964 32.5445 94.6585C32.4349 94.5054 32.3075 94.3443 32.1623 94.175C31.5393 93.3692 30.7825 92.3941 30.9545 91.2982C31.0813 90.6919 31.3943 90.1467 31.8451 89.747C31.8751 89.7158 31.9156 89.6982 31.9578 89.6982C32 89.6982 32.0405 89.7158 32.0706 89.747C32.0936 89.792 32.1009 89.8442 32.0911 89.8943C32.0813 89.9444 32.0551 89.9892 32.0171 90.021C31.6453 90.3446 31.387 90.7899 31.2832 91.2861C31.138 92.2209 31.8527 93.1436 32.4299 93.893C32.5636 94.0662 32.6898 94.2314 32.8121 94.3886C33.8785 95.8753 33.3892 98.4177 32.3343 99.8883L32.3228 99.9085Z" fill="white"/>
<path d="M31.6046 100.804C31.1741 101.289 30.5947 101.599 29.9687 101.678C29.1011 101.754 28.2296 101.231 27.4423 100.179C27.3658 100.074 27.2779 99.9535 27.1862 99.8165C26.6358 99.0711 25.8713 97.9631 25.1069 97.9671C24.9728 97.9748 24.8416 98.0113 24.7213 98.0743C24.601 98.1374 24.4942 98.2256 24.4075 98.3338C24.398 98.3482 24.3858 98.3604 24.3717 98.3697C24.3575 98.379 24.3418 98.3852 24.3253 98.3878C24.3088 98.3905 24.292 98.3895 24.2759 98.3851C24.2598 98.3806 24.2448 98.3728 24.2316 98.362L24.1896 98.3257C24.1671 98.2883 24.1575 98.2438 24.1624 98.1998C24.1672 98.1558 24.1863 98.1149 24.2163 98.084C24.3287 97.9419 24.468 97.8262 24.6254 97.7444C24.7827 97.6625 24.9545 97.6162 25.1298 97.6085C26.0204 97.6085 26.8498 98.7729 27.4232 99.5506L27.6754 99.9011C28.4131 100.872 29.2043 101.36 29.9687 101.283C30.6414 101.223 31.3065 100.739 31.941 99.8407C31.9667 99.8006 32.006 99.7725 32.0507 99.762C32.0955 99.7515 32.1424 99.7595 32.1818 99.7842C32.2132 99.8206 32.2306 99.868 32.2306 99.9172C32.2306 99.9664 32.2132 100.014 32.1818 100.05C32.0089 100.317 31.8159 100.569 31.6046 100.804Z" fill="white"/>
<path d="M41.2786 108.637C41.0786 108.814 40.8492 108.951 40.602 109.04C40.5508 109.059 40.4944 109.057 40.445 109.032C40.3956 109.008 40.3572 108.965 40.3383 108.911C40.3228 108.857 40.3281 108.799 40.3532 108.749C40.3783 108.699 40.421 108.662 40.4721 108.645C41.7793 108.19 42.3488 105.788 42.3144 104.571C42.2299 103.973 42.0503 103.394 41.7831 102.859C41.3206 101.759 40.8505 100.639 41.5003 99.6719C41.531 99.6212 41.5789 99.5847 41.6343 99.5697C41.6896 99.5547 41.7482 99.5625 41.7984 99.5914C41.8193 99.6043 41.8376 99.6214 41.8522 99.6417C41.8667 99.6621 41.8774 99.6853 41.8834 99.7101C41.8895 99.7348 41.8908 99.7605 41.8874 99.7858C41.8839 99.811 41.8758 99.8353 41.8634 99.8573V99.8815C41.3474 100.659 41.7793 101.666 42.1997 102.666C42.4938 103.246 42.6855 103.878 42.7654 104.531C42.7807 105.611 42.3794 107.682 41.2786 108.637Z" fill="white"/>
<path d="M39.8071 109.804C39.5974 109.975 39.3641 110.111 39.1153 110.207C37.6667 110.775 35.6448 110.171 34.6587 109.643C34.0725 109.238 33.5556 108.731 33.1298 108.144C32.3119 107.173 31.4786 106.206 30.6416 106.46C30.6005 106.471 30.5569 106.466 30.5199 106.444C30.4829 106.422 30.4552 106.386 30.4428 106.343C30.4337 106.296 30.441 106.247 30.4634 106.204C30.4859 106.162 30.522 106.13 30.5651 106.114C31.5971 105.779 32.5412 106.887 33.3935 107.894C33.7995 108.443 34.2875 108.918 34.8383 109.301C35.7365 109.78 37.6705 110.36 38.9816 109.832C39.2257 109.744 39.4489 109.601 39.6356 109.414C39.8224 109.226 39.9683 108.998 40.0632 108.745C40.0837 108.69 40.1237 108.647 40.1745 108.623C40.2253 108.6 40.2829 108.599 40.3346 108.62C40.3581 108.627 40.3801 108.639 40.399 108.656C40.418 108.672 40.4337 108.692 40.4451 108.715C40.4565 108.738 40.4634 108.763 40.4654 108.789C40.4675 108.815 40.4646 108.841 40.4569 108.865C40.459 108.872 40.459 108.879 40.4569 108.886C40.3189 109.246 40.0951 109.562 39.8071 109.804Z" fill="white"/>
<path d="M138.274 60.7178H99.1197V71.4473H83.2768V82.1729H67.4339V92.8984H51.591V103.624H35.748V117.186H138.274V60.7178Z" fill="#C6D8ED"/>
<path d="M116.182 37.9361C116.182 37.9361 116.499 38.7419 116.487 38.7096C116.647 38.6055 116.819 38.5242 117 38.4679C117.204 38.468 117.409 38.4518 117.611 38.4196C117.749 38.3846 117.88 38.3201 117.993 38.2302C118.051 38.1899 118.154 38.065 118.062 38.0368C117.97 38.0086 117.894 38.1295 117.84 38.1536C117.763 38.1705 117.683 38.1772 117.603 38.1738L117.806 38.0851C117.963 38.0278 118.114 37.9535 118.257 37.8635C118.303 37.8192 118.295 37.7145 118.169 37.7386C118.06 37.7626 117.954 37.7991 117.852 37.8474L117.588 37.9522L117.867 37.8313C117.947 37.791 118.177 37.6983 118.314 37.6339C118.452 37.5694 118.425 37.4002 118.314 37.4123C118.156 37.4673 118.003 37.536 117.856 37.6178C117.763 37.6475 117.673 37.6881 117.588 37.7386C117.588 37.7386 117.848 37.6137 117.894 37.5815C117.94 37.5493 118.227 37.4324 118.276 37.3438C118.326 37.2551 118.276 37.2108 118.173 37.2269C118.041 37.2533 117.912 37.298 117.791 37.3599C117.607 37.46 117.415 37.5423 117.217 37.6057C117.137 37.6057 117.045 37.6057 117.045 37.4929L116.9 37.2148C116.9 37.2148 116.805 37.2632 116.755 37.517C116.691 37.6237 116.607 37.7157 116.508 37.7876C116.41 37.8596 116.299 37.91 116.182 37.9361Z" fill="#F88667"/>
<path d="M107.498 41.1795C107.506 40.849 107.626 40.5326 107.837 40.2873C108.047 40.042 108.333 39.884 108.644 39.8418C109.688 39.6766 111.622 39.3624 112.203 39.2173C113.017 39.0199 116.331 37.8555 116.331 37.8555L116.713 38.7781C116.713 38.7781 113.109 40.692 112.459 40.837C111.809 40.9821 108.48 42.2351 107.83 41.8403C107.722 41.7741 107.633 41.677 107.574 41.5602C107.515 41.4434 107.489 41.3114 107.498 41.1795Z" fill="#0B50B9"/>
<path d="M107.666 36.8281L107.72 36.8966C107.901 37.0969 108.101 37.2777 108.316 37.4365C108.45 37.5292 108.652 37.5937 108.767 37.6904L108.908 37.7951C108.797 38.3958 108.729 39.0047 108.706 39.6163C108.706 39.6163 107.517 39.5276 107.089 39.02C107.343 38.3089 107.536 37.5753 107.666 36.8281Z" fill="#F88667"/>
<path d="M108.285 38.9152C108.201 38.5505 108.013 38.2216 107.746 37.9724C107.654 37.8958 107.563 37.8193 107.463 37.7508C107.547 37.4484 107.61 37.1401 107.651 36.8281L107.704 36.8966C107.886 37.0969 108.085 37.2777 108.3 37.4365C108.434 37.5292 108.637 37.5937 108.751 37.6904L108.893 37.7951C108.781 38.3958 108.714 39.0047 108.69 39.6163C108.53 39.6163 108.373 39.576 108.216 39.5438C108.309 39.3495 108.334 39.1267 108.285 38.9152Z" fill="#E45940"/>
<path d="M108.304 59.1424C108.304 59.1424 108.339 60.3914 108.522 60.5606C108.706 60.7299 111.064 60.8064 111.266 60.5606C111.469 60.3149 111.347 59.9482 110.842 59.783C110.338 59.6178 110.036 59.783 109.695 59.6339C109.355 59.4849 109.447 58.9208 109.447 58.9208L108.304 59.1424Z" fill="#353C73"/>
<path d="M102.471 59.1019C102.471 59.1019 102.292 60.3107 102.471 60.496C102.651 60.6814 105.048 60.8989 105.258 60.6491C105.468 60.3993 105.365 60.0448 104.876 59.8715C104.386 59.6983 104.081 59.807 103.729 59.6701C103.458 59.5693 103.641 58.9932 103.641 58.9932L102.471 59.1019Z" fill="#353C73"/>
<path d="M104.226 52.1119C104.187 49.7895 104.352 47.4682 104.719 45.1778C105.122 45.175 105.523 45.2572 105.896 45.4196C106.611 45.762 107.333 46.0924 108.055 46.4228C107.248 48.4814 106.573 50.5947 106.034 52.7485C105.842 53.8324 103.691 59.3724 103.691 59.3724L102.387 59.1992C102.391 58.3047 104.226 52.394 104.226 52.1119Z" fill="#5686C4"/>
<path d="M106.902 45.9095C107.275 46.0986 107.657 46.2654 108.048 46.4091C107.326 48.2501 106.706 50.1335 106.191 52.0499C106.003 51.4657 105.12 50.0636 104.784 48.5204C104.555 47.493 104.517 46.4283 104.673 45.3857C105.442 45.3969 106.201 45.5753 106.902 45.9095Z" fill="#ABADC4"/>
<path d="M105.908 45.7213C106.416 45.9026 107.341 46.1645 108.037 46.4224C108.522 47.7198 109.948 50.7738 110.032 52.1558C110.116 53.6788 109.615 59.4485 109.615 59.4485H108.144C108.144 59.4485 108.002 52.9455 107.796 52.5265C107.108 51.1445 106.347 50.0567 105.912 49.1984C105.4 48.2502 105.028 47.226 104.807 46.1605C104.753 45.8583 104.505 44.8631 104.987 44.5488C105.373 44.6737 105.487 45.5722 105.908 45.7213Z" fill="#5686C4"/>
<path d="M108.583 46.7516C107.79 47.07 106.942 47.2073 106.095 47.1545C105.185 47.0659 104.708 47.0497 104.184 46.7516C104.184 46.7516 104.754 42.0657 105.411 40.583C105.568 40.1768 105.804 39.8101 106.104 39.5067C106.405 39.2033 106.762 38.9701 107.154 38.8223C107.628 39.1112 108.156 39.2859 108.702 39.334C108.702 39.334 108.702 42.2148 108.633 43.3631C108.564 44.5114 108.583 46.7516 108.583 46.7516Z" fill="#0B50B9"/>
<path d="M108.641 42.9243V41.5141H108.476C108.051 41.3932 107.647 41.197 107.284 40.9339C107.22 40.8936 107.155 40.8573 107.089 40.8251C107.009 41.4415 107.276 42.195 107.387 42.6865C107.748 44.1146 107.821 45.6066 107.601 47.0662C107.925 46.9941 108.243 46.8971 108.553 46.7761C108.553 46.7761 108.553 44.5359 108.595 43.3836V43.0371C108.615 43.0019 108.631 42.9639 108.641 42.9243Z" fill="#002987"/>
<path d="M107.055 35.6599C107.055 35.6599 107.559 34.5439 108.232 34.5882C108.905 34.6325 109.336 34.7534 109.428 35.0233C109.53 35.4733 109.67 35.9128 109.845 36.3368C110.013 36.6149 110.391 36.9815 110.38 37.1104C110.368 37.2394 109.998 37.2837 109.967 37.332C109.937 37.3804 109.734 38.3031 109.585 38.3998C109.436 38.4965 108.152 37.9646 107.953 37.5577C107.754 37.1507 106.978 36.3812 107.055 35.6599Z" fill="#F88667"/>
<path d="M108.407 35.7646C108.476 35.7804 108.544 35.8006 108.61 35.825C108.71 35.8319 108.81 35.8467 108.908 35.8693C109.105 35.9217 109.311 35.9217 109.508 35.8693C109.802 35.7686 109.707 35.4664 109.844 35.2488C109.909 35.1481 110.047 35.1481 110.12 35.0313C110.184 34.9085 110.214 34.7684 110.204 34.6284C110.204 34.306 109.902 34.2738 109.665 34.2254C109.428 34.1771 109.374 33.9918 109.241 33.7702C108.912 33.2222 108.453 33.9797 108.094 33.9353C107.907 33.9112 107.712 33.7822 107.532 33.891C107.379 33.9954 107.249 34.1327 107.15 34.2939C107.039 34.447 106.932 34.3826 106.768 34.4511C106.641 34.5122 106.529 34.6016 106.439 34.713C106.341 34.8278 106.268 34.9636 106.224 35.111C106.181 35.2584 106.168 35.414 106.187 35.5671C106.24 35.821 106.431 35.9701 106.439 36.2199C106.425 36.4435 106.457 36.6677 106.534 36.8766C106.672 37.1546 106.985 37.1909 107.196 37.3803C107.294 37.4763 107.411 37.5482 107.538 37.5907C107.666 37.6333 107.801 37.6453 107.933 37.626C107.964 37.4326 107.933 37.0982 107.777 37.0015C107.69 36.9664 107.608 36.9204 107.532 36.8645C107.486 36.8174 107.456 36.7557 107.447 36.6889C107.438 36.6221 107.45 36.554 107.482 36.4952C107.513 36.4364 107.562 36.3902 107.621 36.3637C107.68 36.3372 107.745 36.332 107.807 36.3488C108.021 36.381 108.117 36.9935 108.35 36.8968C108.583 36.8001 108.312 36.4938 108.266 36.4012C108.22 36.3085 108.167 35.9096 108.289 35.7928C108.303 35.7749 108.322 35.7625 108.344 35.7574C108.365 35.7523 108.387 35.7548 108.407 35.7646Z" fill="#353C73"/>
<path d="M114.049 46.7526C114.106 46.7445 114.164 46.7445 114.221 46.7526C114.351 46.7718 114.483 46.7537 114.604 46.7002C114.804 46.5987 115.023 46.5437 115.246 46.5391C115.353 46.5391 116.01 46.7163 115.842 47.0024C115.819 47.0346 115.743 47.0951 115.72 47.087L115.467 46.9903C115.527 47.0099 115.584 47.0356 115.639 47.0669C115.675 47.0768 115.706 47.0996 115.727 47.1313C115.74 47.1691 115.74 47.2105 115.727 47.2482C115.713 47.2858 115.688 47.3172 115.655 47.3368C115.601 47.3284 115.55 47.3063 115.506 47.2724C115.551 47.3086 115.651 47.3328 115.59 47.4779C115.528 47.6229 115.475 47.5343 115.41 47.5222L115.341 47.494C115.388 47.5155 115.433 47.5411 115.475 47.5705C115.536 47.6269 115.402 47.8163 115.284 47.8002C115.165 47.7841 115.032 47.6793 114.993 47.6914H114.84C114.7 47.7026 114.559 47.6806 114.428 47.6269L114.187 47.5101C114.052 47.4371 113.924 47.3507 113.805 47.2522C113.919 47.0427 114.08 46.9944 114.049 46.7526Z" fill="#F88667"/>
<path d="M113.831 47.6389L114.358 46.5429C114.358 46.5429 111.759 44.7943 110.807 43.783C109.856 42.7717 108.835 40.7168 108.109 40.5879C107.383 40.4589 106.657 40.882 107.077 41.9457C107.497 43.0094 109.619 44.4115 110.051 44.8829C110.483 45.3543 113.399 47.3689 113.831 47.6389Z" fill="#0B50B9"/>
<path d="M112.497 26.6804C112.811 26.5917 113.812 26.2211 114.309 28.1994C114.791 30.081 115.219 32.6032 115.219 32.6032C115.219 32.6032 113.579 30.7135 112.444 29.1744C111.255 27.5708 112.207 26.8415 112.497 26.6804Z" fill="#C6D8ED"/>
<path d="M113.904 28.3594L115.433 30.5633C115.892 31.2271 116.292 31.9338 116.629 32.6746L122.385 45.2173L115.391 34.5521C114.601 33.3496 113.999 32.0222 113.606 30.6197L113.124 28.8952C113.417 28.7767 113.683 28.5941 113.904 28.3594Z" fill="#353C73"/>
<path d="M115.498 32.8081C115.498 32.8081 117.176 29.4559 116.358 26.9901C115.54 24.5242 113.491 28.6702 113.491 28.6702L115.498 32.8081Z" fill="#C6D8ED"/>
<path d="M115.52 32.7874C115.52 32.7874 111.962 32.2556 110.552 30.1161C109.141 27.9766 113.525 28.6535 113.525 28.6535L115.52 32.7874Z" fill="#C6D8ED"/>
<path d="M116.904 37.9773C116.95 37.9773 117.485 37.8202 117.523 37.8081C117.561 37.796 117.29 37.3326 117.29 37.3326C117.29 37.2158 117.741 37.1836 117.837 37.1272C118.131 36.97 118.012 36.7766 117.883 36.8169C117.753 36.8533 117.625 36.8977 117.5 36.9499C117.401 36.9741 117.3 36.9863 117.198 36.9861C117.062 37.0631 116.934 37.1549 116.816 37.2601C116.734 37.378 116.684 37.5173 116.671 37.663C116.686 37.8887 116.805 38.0216 116.904 37.9773Z" fill="#F88667"/>
<path d="M120.03 103.298L120.206 122.876C120.206 123.887 120.489 124.487 121.873 124.668C123.585 124.898 124.101 124.58 124.357 124.084C124.835 123.149 129.509 104.442 130.281 103.173C131.053 101.904 120.03 103.298 120.03 103.298Z" fill="#353C73"/>
<path d="M137.391 96.5561C137.865 96.5518 138.326 96.7173 138.699 97.0255C139.072 97.3337 139.334 97.7662 139.443 98.2523C139.601 99.0012 139.68 99.7659 139.68 100.533C139.735 101.364 139.621 102.197 139.348 102.978C139.185 103.339 138.931 103.646 138.613 103.863C138.295 104.081 137.927 104.202 137.548 104.211C133.779 104.352 120.203 104.917 117.374 105.614C114.079 106.419 103.041 111.597 103.041 111.597L105.143 85.4316C105.143 85.4316 115.283 94.0943 121.709 95.444C126.727 96.4876 134.295 96.5722 137.391 96.5561Z" fill="#5686C4"/>
<path d="M130.488 104.522C129.086 104.594 127.622 104.671 126.185 104.755C127.087 101.693 126.731 98.1878 126.276 96.0967C127.71 96.2377 129.177 96.3384 130.584 96.411C131.216 99.078 131.183 101.872 130.488 104.522Z" fill="#0B50B9"/>
<path d="M92.2704 97.6404C92.2016 107.101 96.4747 114.804 101.826 114.853C107.177 114.901 111.561 107.262 111.63 97.8015C111.698 88.3411 107.425 80.6254 102.074 80.5931C96.7232 80.5609 92.3277 88.18 92.2704 97.6404Z" fill="#E5E6ED"/>
<path d="M92.9925 97.6477C92.9313 105.706 96.5662 112.245 101.111 112.286C105.655 112.326 109.393 105.839 109.451 97.7807C109.508 89.7224 105.877 83.1751 101.329 83.1388C96.7802 83.1026 93.0651 89.5975 92.9925 97.6477Z" fill="#353C73"/>
<path d="M102.965 99.1307C102.77 96.262 104.547 93.7961 106.94 93.6108C107.738 93.5608 108.531 93.7689 109.214 94.2071C109.379 95.393 109.458 96.5904 109.451 97.789C109.442 99.8005 109.185 101.802 108.687 103.744C108.354 103.877 108.005 103.961 107.651 103.994C105.254 104.171 103.16 101.995 102.965 99.1307Z" fill="#C6D8ED"/>
<path d="M117.325 88.6551C117.384 88.3606 117.346 88.0538 117.218 87.7848C117.359 87.8049 117.569 87.8291 117.558 87.7445C117.546 87.6599 117.516 87.4584 117.596 87.4745C117.671 87.4959 117.741 87.5329 117.803 87.5833C117.951 87.6707 118.118 87.7139 118.288 87.7082C118.345 87.9097 118.506 88.2159 118.403 88.4335C118.349 88.5423 118.066 88.4939 117.94 88.5423C117.742 88.612 117.534 88.65 117.325 88.6551Z" fill="#F88667"/>
<path d="M121.296 79.4199C122.272 79.4327 123.232 79.6837 124.101 80.1532L123.337 83.6142C122.772 83.2955 122.134 83.1477 121.495 83.1872L121.296 79.4199Z" fill="white"/>
<path d="M122.087 81.2371C122.087 80.6569 122.045 80.0726 122.034 79.5045C121.79 79.4562 121.543 79.428 121.296 79.4199L121.518 83.1872C121.827 82.6956 121.972 82.7842 122.034 82.7399C122.03 82.2443 122.091 81.7286 122.087 81.2371Z" fill="#5686C4"/>
<path d="M114.787 79.5982C114.787 79.5982 119.064 77.8254 121.869 78.4338L122.053 82.7449C122.053 82.7449 119.564 82.1688 116.121 83.7603L114.787 79.5982Z" fill="white"/>
<path d="M114.956 79.5306L114.61 79.6575L117.975 89.8732L118.322 89.7463L114.956 79.5306Z" fill="#353C73"/>
<path d="M118.07 88.6831V87.4744C118.07 87.4744 121.51 87.4986 122.977 87.0715C124.445 86.6444 126.368 84.8353 127.14 85.1335C127.912 85.4316 128.405 86.2536 127.449 87.0513C126.494 87.8491 124.208 88.534 123.222 88.6912C122.538 88.7718 118.613 88.6831 118.07 88.6831Z" fill="#0B50B9"/>
<path d="M123.853 87.9178C125.076 87.3819 126.226 86.2215 127.209 85.1377C127.946 85.452 128.382 86.2538 127.449 87.0233C126.517 87.7929 124.208 88.506 123.222 88.6632C122.886 88.7196 121.751 88.7236 120.646 88.7156C121.746 88.6161 122.827 88.3473 123.853 87.9178Z" fill="#002987"/>
<path d="M123.887 102.83C123.887 102.83 124.56 103.994 124.461 104.252C124.361 104.51 122.011 105.961 121.697 105.864C121.384 105.767 121.315 105.356 121.739 104.961C122.163 104.567 122.477 104.502 122.741 104.156C123.004 103.809 122.741 103.076 122.741 103.076L123.887 102.83Z" fill="#353C73"/>
<path d="M127.828 93.0865C127.555 93.3165 127.214 93.4365 126.865 93.425C126.368 93.3565 121.514 93.8843 121.036 94.3194C120.558 94.7546 122.565 103.373 122.565 103.373L124.247 103.075C124.247 103.075 123.643 96.7691 123.746 96.7288C123.849 96.6886 126.383 96.6926 130.714 96.6926C131.772 96.6926 132.95 94.3637 131.612 92.7158L127.828 93.0865Z" fill="#353C73"/>
<path d="M127.079 83.4699C127.241 83.3923 127.393 83.292 127.53 83.1718C127.595 83.6955 127.782 84.6625 128.294 85.1863C127.689 85.4448 127.031 85.5337 126.383 85.4442C126.438 84.8323 126.412 84.2154 126.307 83.6109C126.571 83.6285 126.835 83.5802 127.079 83.4699Z" fill="#F88667"/>
<path d="M127.587 84.9687C127.5 84.7071 127.336 84.481 127.12 84.3226C126.904 84.1643 126.646 84.0816 126.383 84.0864C126.376 83.9183 126.349 83.7519 126.303 83.5908C126.563 83.6135 126.825 83.5721 127.067 83.4699C127.23 83.3923 127.381 83.292 127.518 83.1718C127.583 83.6955 127.77 84.6625 128.283 85.1863C128.082 85.2716 127.875 85.339 127.663 85.3878C127.655 85.2453 127.629 85.1045 127.587 84.9687Z" fill="#E45940"/>
<path d="M127.377 80.4836C127.377 80.4836 126.135 80.0807 125.745 80.3305C125.532 80.5198 125.364 80.7591 125.254 81.0292C125.145 81.2992 125.097 81.5926 125.114 81.8857C125.187 82.3571 124.667 82.9091 124.656 83.0944C124.644 83.2798 125.038 83.3322 125.061 83.3845C125.084 83.4369 125.091 84.3032 125.638 84.4482C126.402 84.6497 127.423 84.0091 127.778 83.5175C128.134 83.0259 128.543 80.7777 127.377 80.4836Z" fill="#F88667"/>
<path d="M125.068 80.54C125.169 80.4606 125.261 80.3701 125.343 80.27C125.367 80.1917 125.397 80.1161 125.435 80.0444C125.573 79.8308 125.603 79.6777 126.173 79.4884C126.432 79.4253 126.702 79.4248 126.961 79.4869C127.22 79.549 127.463 79.6721 127.671 79.8469C127.824 79.9676 127.954 80.118 128.053 80.2902C128.08 80.3385 128.164 80.4795 128.145 80.5319C128.126 80.5843 127.935 80.6447 127.878 80.681C127.78 80.7535 127.686 80.833 127.599 80.9187C127.033 81.4022 126.15 81.922 125.523 81.2531C125.441 81.1625 125.365 81.067 125.294 80.967C125.166 81.2352 125.105 81.5334 125.118 81.8333C124.998 81.7288 124.912 81.5882 124.87 81.4304C124.822 81.2771 124.815 81.1128 124.85 80.9558C124.885 80.7987 124.961 80.6548 125.068 80.54Z" fill="#353C73"/>
<path d="M127.686 80.5C127.879 80.4375 128.086 80.4375 128.279 80.5C128.425 80.5328 128.558 80.6143 128.658 80.7324C128.758 80.8506 128.819 80.9993 128.833 81.1567C128.873 81.3581 128.892 81.5634 128.89 81.7692C128.903 82.0863 128.855 82.4028 128.749 82.6999C128.641 83.0269 128.463 83.3234 128.229 83.5662C128.007 83.7757 127.579 84.0174 127.365 83.9248C127.239 83.6688 127.177 83.3831 127.185 83.0948C127.205 82.9376 127.281 82.9376 127.396 82.8651C127.591 82.7482 127.812 82.5146 127.671 82.2607C127.464 81.9021 127.082 82.0673 126.933 82.5629C126.933 82.5629 126.784 82.8449 126.696 82.8006C126.608 82.7563 126.241 81.3219 127.686 80.5Z" fill="#353C73"/>
<path d="M127.541 82.2934C127.476 82.2616 127.403 82.2542 127.333 82.2726C127.264 82.2909 127.202 82.3338 127.159 82.3941C127.006 82.5755 127.079 82.8696 127.224 82.7608C127.369 82.652 127.312 82.5553 127.339 82.4626C127.357 82.4189 127.384 82.3805 127.42 82.351C127.455 82.3214 127.497 82.3016 127.541 82.2934Z" fill="#E45940"/>
<path d="M132.212 92.6004C132.212 92.6004 130.462 94.0308 126.831 93.374C126.823 92.6397 126.724 91.9097 126.537 91.2023C126.137 89.813 125.881 88.3825 125.772 86.9355C125.749 86.604 125.793 86.2711 125.902 85.9591C126.011 85.6471 126.181 85.3632 126.403 85.1264C126.403 85.1264 127.087 85.7952 128.1 84.9209C128.74 85.1312 129.327 85.4911 129.817 85.9739C130.306 86.4567 130.686 87.0498 130.928 87.7091C131.514 89.289 131.944 90.928 132.212 92.6004Z" fill="#0B50B9"/>
<path d="M127.839 86.7335C128.78 87.7972 127.874 90.4242 126.693 91.8949C126.655 91.6679 126.605 91.4432 126.544 91.222C126.383 90.6539 126.162 89.8037 126.024 88.9657C126.369 88.7432 126.637 88.4099 126.788 88.0148C127.159 87.0841 127.377 86.4434 127.839 86.7335Z" fill="#002987"/>
<path d="M120.245 94.0742C120.122 94.1956 119.97 94.2792 119.805 94.316C119.727 94.3165 119.65 94.3358 119.58 94.3724C119.5 94.4164 119.415 94.449 119.327 94.4691C119.24 94.4867 119.158 94.5284 119.091 94.5899C119.018 94.6786 119.159 94.7068 119.251 94.7108C119.343 94.7148 119.633 94.5295 119.706 94.6061C119.779 94.6826 119.446 94.8881 119.377 94.9284C119.213 95.0211 119.091 94.9284 118.926 94.9526C118.827 94.9526 118.785 94.9848 118.854 95.0775C118.922 95.1701 118.999 95.154 119.079 95.1621C119.244 95.1751 119.41 95.1446 119.561 95.0734C119.423 95.1475 119.272 95.1914 119.117 95.2024C119.029 95.2024 118.655 95.1701 118.655 95.3152C118.655 95.6093 119.488 95.424 119.607 95.3152C119.47 95.392 119.323 95.445 119.171 95.4723C119.083 95.4925 118.869 95.5328 118.987 95.6577C119.106 95.7826 119.572 95.5368 119.779 95.4401C119.662 95.5376 119.534 95.6176 119.396 95.6778C119.224 95.7745 119.354 95.8752 119.545 95.8067C119.637 95.7696 119.726 95.7265 119.813 95.6778C120.103 95.5135 120.335 95.2549 120.474 94.9405C120.539 94.8156 120.784 94.6544 120.761 94.5376C120.711 94.2958 120.405 94.2072 120.245 94.0742Z" fill="#F88667"/>
<path d="M119.989 93.8928L120.692 94.896C120.692 94.896 125.191 92.8452 125.596 92.3013C126.306 91.3293 126.952 90.3075 127.53 89.2432C128.012 88.0103 128.604 86.5477 127.53 86.2939C126.945 86.1528 126.567 86.2938 126.2 87.2165C125.649 88.5407 124.988 89.8109 124.224 91.012C124.059 91.2497 119.989 93.8928 119.989 93.8928Z" fill="#0B50B9"/>
<path d="M116.839 87.8011C116.778 87.9058 116.954 88.3652 117.118 88.5586C117.172 88.6162 117.244 88.6512 117.321 88.6572C117.397 88.6631 117.473 88.6395 117.535 88.5908C117.676 88.5021 117.844 88.4699 117.867 88.3813C117.898 88.0388 117.596 88.3007 117.462 88.345C117.462 88.345 117.844 88.1597 117.844 87.9945C117.844 87.6842 117.386 88.0428 117.26 88.1033C117.393 88.0559 117.513 87.9725 117.607 87.8615C117.618 87.8499 117.627 87.8361 117.633 87.8209C117.639 87.8057 117.642 87.7894 117.642 87.7729C117.642 87.7564 117.639 87.7401 117.633 87.7249C117.627 87.7097 117.618 87.6958 117.607 87.6842C117.508 87.5875 117.126 87.8776 117.126 87.8776C117.198 87.8253 117.474 87.7165 117.363 87.5835C117.252 87.4505 117.179 87.5835 117.11 87.5835C117.054 87.5989 117.001 87.6261 116.954 87.6634C116.907 87.7008 116.868 87.7476 116.839 87.8011Z" fill="#F88667"/>
<path d="M117.676 87.7886L117.554 87.7483C117.554 87.6315 117.114 87.5993 117.019 87.5509C116.74 87.3938 116.854 87.2044 116.98 87.2487C117.106 87.2931 117.267 87.3414 117.363 87.3736C117.458 87.3979 117.555 87.41 117.653 87.4099C117.788 87.4855 117.916 87.5746 118.035 87.6758C118.146 87.7725 117.829 87.8491 117.676 87.7886Z" fill="#F88667"/>
<path d="M86.2155 91.2831C86.1199 91.553 86.9531 92.1212 88.0922 92.5603C89.2312 92.9995 90.2096 93.1365 90.3014 92.8666C90.3931 92.5966 89.5637 92.0285 88.4247 91.5893C87.2857 91.1501 86.3072 91.0172 86.2155 91.2831Z" fill="white"/>
<path d="M88.2797 85.9239C88.1688 86.1898 88.9791 86.8103 90.0799 87.314C91.1807 87.8176 92.1668 88.011 92.2891 87.7531C92.4115 87.4953 91.5897 86.8708 90.4851 86.3671C89.3805 85.8635 88.3791 85.6701 88.2797 85.9239Z" fill="white"/>
<path d="M86.7508 105.578C86.8273 105.848 87.8249 105.767 88.9601 105.388C90.0952 105.01 90.9743 104.49 90.8979 104.224C90.8215 103.958 89.8162 104.035 88.6696 104.413C87.5229 104.792 86.6706 105.312 86.7508 105.578Z" fill="white"/>
<path d="M88.8381 111.383C88.9375 111.645 89.9236 111.476 91.0473 110.98C92.171 110.485 92.989 109.909 92.8896 109.647C92.7902 109.385 91.785 109.554 90.6804 110.05C89.5758 110.545 88.7387 111.117 88.8381 111.383Z" fill="white"/>
<path d="M85.593 98.5027C85.593 98.7847 86.5905 98.962 87.8022 98.9056C89.0138 98.8492 89.9617 98.5551 89.9464 98.269C89.9311 97.9829 88.9488 97.8097 87.7372 97.8661C86.5256 97.9225 85.5777 98.2166 85.593 98.5027Z" fill="white"/>
<path d="M135.514 105.336L135.312 104.8L126.827 104.768L127.022 105.312L135.514 105.336Z" fill="#353C73"/>
<path d="M136.596 108.213L136.39 107.665L127.855 107.677L128.05 108.229L136.596 108.213Z" fill="#353C73"/>
<path d="M134.177 102.476L133.974 101.94L125.489 101.871L125.68 102.411L134.177 102.476Z" fill="#353C73"/>
<path d="M137.697 111.134L137.486 110.578L128.894 110.635L129.093 111.199L137.697 111.134Z" fill="#353C73"/>
<path d="M138.812 114.107L138.602 113.539L129.953 113.64L130.155 114.216L138.812 114.107Z" fill="#353C73"/>
<path d="M139.956 117.129L139.738 116.553L131.031 116.698L131.237 117.286L139.956 117.129Z" fill="#353C73"/>
<path d="M141.11 120.203L140.888 119.619L132.128 119.817L132.338 120.405L141.11 120.203Z" fill="#353C73"/>
<path d="M133.561 124.949H133.603C133.698 124.949 133.79 124.913 133.861 124.846C133.931 124.778 133.976 124.686 133.985 124.586C133.989 124.53 133.981 124.474 133.962 124.421L125.745 101.145C125.714 101.065 125.66 100.998 125.592 100.95C125.524 100.903 125.444 100.878 125.363 100.879C125.265 100.879 125.171 100.918 125.1 100.988C125.029 101.059 124.986 101.155 124.98 101.258C124.977 101.292 124.977 101.328 124.98 101.362L133.167 124.703C133.202 124.782 133.257 124.847 133.328 124.891C133.398 124.935 133.48 124.955 133.561 124.949Z" fill="#353C73"/>
<path d="M142.165 124.95H142.207C142.302 124.95 142.394 124.913 142.465 124.846C142.535 124.779 142.58 124.687 142.589 124.587C142.593 124.531 142.585 124.475 142.566 124.422L134.349 101.146C134.321 101.064 134.269 100.994 134.2 100.946C134.131 100.898 134.049 100.875 133.967 100.88C133.869 100.88 133.775 100.919 133.704 100.989C133.633 101.059 133.59 101.156 133.584 101.258C133.581 101.293 133.581 101.328 133.584 101.363L141.771 124.704C141.806 124.782 141.861 124.848 141.932 124.892C142.002 124.936 142.084 124.956 142.165 124.95Z" fill="#353C73"/>
<path d="M72.3068 72.422C72.3068 72.422 71.4124 75.8226 70.9729 76.3786C70.5333 76.9346 69.0962 77.7566 69.0962 77.7566L69.4784 78.4657C69.4784 78.4657 72.089 77.0636 72.5362 75.9153C72.7737 75.3506 72.9518 74.7601 73.0674 74.1545C73.1362 73.7516 73.4497 72.6879 73.2853 72.2689C73.2228 72.1886 73.1415 72.1268 73.0496 72.0896C72.9576 72.0523 72.858 72.0408 72.7606 72.0562C72.6631 72.0716 72.5712 72.1135 72.4936 72.1776C72.4161 72.2417 72.3557 72.3259 72.3183 72.422H72.3068Z" fill="#0B50B9"/>
<path opacity="0.65" d="M72.3068 72.422C72.3068 72.422 71.4124 75.8226 70.9729 76.3786C70.5333 76.9346 69.0962 77.7566 69.0962 77.7566L69.4784 78.4657C69.4784 78.4657 72.089 77.0636 72.5362 75.9153C72.7737 75.3506 72.9518 74.7601 73.0674 74.1545C73.1362 73.7516 73.4497 72.6879 73.2853 72.2689C73.2228 72.1886 73.1415 72.1268 73.0496 72.0896C72.9576 72.0523 72.858 72.0408 72.7606 72.0562C72.6631 72.0716 72.5712 72.1135 72.4936 72.1776C72.4161 72.2417 72.3557 72.3259 72.3183 72.422H72.3068Z" fill="#00A1CC"/>
<path d="M63.348 88.655L62.6906 88.0023C62.6906 88.0023 60.0533 87.7928 59.9004 88.0386C59.7475 88.2843 62.4001 89.5898 62.7365 89.5898C63.0728 89.5898 63.3021 88.9209 63.348 88.655Z" fill="#353C73"/>
<path d="M68.1791 79.2545C68.1791 79.2545 65.687 78.5856 65.4806 79.0168C65.2742 79.4479 62.6904 87.9977 62.6904 87.9977L63.3478 88.6424C63.3478 88.6424 66.1189 81.4262 66.9254 80.6687C67.7319 79.9112 68.5498 79.5526 68.1791 79.2545Z" fill="#F88667"/>
<path d="M68.1791 79.2545C68.1791 79.2545 65.687 78.5856 65.4806 79.0168C65.2742 79.4479 62.6904 87.9977 62.6904 87.9977L63.3478 88.6424C63.3478 88.6424 66.1189 81.4262 66.9254 80.6687C67.7319 79.9112 68.5498 79.5526 68.1791 79.2545Z" fill="#E45940"/>
<path d="M69.4632 77.6754C69.2823 77.6251 69.1078 77.552 68.9434 77.4578C68.8171 77.3622 68.6628 77.3165 68.5077 77.3289C68.3892 77.3289 67.426 77.764 67.6859 77.9534C67.7662 78.0139 67.9726 77.9051 68.0681 77.8769C68.1637 77.8487 68.3013 77.7761 68.416 77.7157C68.3166 77.7157 67.7968 77.9454 67.8503 78.0703C67.9458 78.2959 68.4695 77.9937 68.5879 77.9212C68.4962 77.9212 68.1713 78.0662 68.1713 78.1952C68.1713 78.3886 68.5536 78.2234 68.6376 78.1952C68.6934 78.1561 68.7538 78.125 68.8173 78.1025C68.8966 78.1051 68.9752 78.1201 69.0504 78.1468C69.1858 78.171 69.324 78.171 69.4594 78.1468C69.5358 78.1468 69.7231 78.1468 69.7652 78.0864C69.782 78.0351 69.7863 77.9801 69.7776 77.9265C69.769 77.873 69.7476 77.8227 69.7155 77.7802C69.6398 77.7259 69.5537 77.6901 69.4632 77.6754Z" fill="#F88667"/>
<path d="M69.4632 77.6754C69.2823 77.6251 69.1078 77.552 68.9434 77.4578C68.8171 77.3622 68.6628 77.3165 68.5077 77.3289C68.3892 77.3289 67.426 77.764 67.6859 77.9534C67.7662 78.0139 67.9726 77.9051 68.0681 77.8769C68.1637 77.8487 68.3013 77.7761 68.416 77.7157C68.3166 77.7157 67.7968 77.9454 67.8503 78.0703C67.9458 78.2959 68.4695 77.9937 68.5879 77.9212C68.4962 77.9212 68.1713 78.0662 68.1713 78.1952C68.1713 78.3886 68.5536 78.2234 68.6376 78.1952C68.6934 78.1561 68.7538 78.125 68.8173 78.1025C68.8966 78.1051 68.9752 78.1201 69.0504 78.1468C69.1858 78.171 69.324 78.171 69.4594 78.1468C69.5358 78.1468 69.7231 78.1468 69.7652 78.0864C69.782 78.0351 69.7863 77.9801 69.7776 77.9265C69.769 77.873 69.7476 77.8227 69.7155 77.7802C69.6398 77.7259 69.5537 77.6901 69.4632 77.6754Z" fill="#E45940"/>
<path d="M65.1444 73.1396L64.5596 73.3895L66.5739 78.5145L67.1663 78.1761L65.1444 73.1396Z" fill="#353C73"/>
<path d="M70.7858 78.0869H66.9521V78.7155H70.7858V78.0869Z" fill="#353C73"/>
<path d="M77.5663 75.1663C77.0542 74.8561 76.9662 74.5136 77.2529 73.3855C77.3567 72.8743 77.2981 72.3412 77.086 71.8687C76.874 71.3961 76.5203 71.0102 76.0795 70.7706C75.552 70.5409 75.0934 70.4402 74.7723 69.8519C74.4513 69.2637 75.0552 68.0025 74.0346 67.0718C73.3008 66.3949 72.2382 66.9308 72.2382 66.9308C72.0089 66.8019 71.9171 68.2 71.9019 69.2596C73.1861 71.3105 72.8154 74.0261 72.3605 76.3308C72.3487 76.3842 72.3334 76.4367 72.3147 76.4879C72.414 78.2809 72.4981 79.7636 72.4981 79.7636C72.4981 79.7636 75.5559 81.6009 77.6695 80.0255C79.7832 78.4501 78.5945 75.7828 77.5663 75.1663Z" fill="#353C73"/>
<path d="M68.5117 88.2275L67.7282 88.703C67.7282 88.703 66.7726 91.2977 66.9637 91.5234C67.1549 91.749 69.1195 89.4645 69.1959 89.1059C69.2723 88.7473 68.7411 88.3484 68.5117 88.2275Z" fill="#353C73"/>
<path d="M69.5052 79.0982C69.5052 79.0982 64.479 79.5011 64.0127 79.9444C63.5464 80.3876 67.8081 88.6553 67.8081 88.6553L68.5076 88.2323C68.5076 88.2323 67.4488 84.316 67.1775 83.3973C66.9061 82.4787 66.3748 81.3828 66.4742 81.2538C66.5736 81.1249 71.6265 81.9146 71.5959 80.4077C71.5653 78.9008 69.5052 79.0982 69.5052 79.0982Z" fill="#F88667"/>
<path d="M71.9858 70.165C71.9858 70.165 72.5095 71.6799 72.1922 72.8081L73.9504 72.3608C73.9504 72.3608 73.2128 69.8265 72.9223 69.3914C72.6318 68.9562 71.9858 70.165 71.9858 70.165Z" fill="#F88667"/>
<path d="M72.7159 71.5278C72.8303 71.5235 72.9445 71.543 73.0518 71.5852C73.1591 71.6275 73.2574 71.6916 73.3412 71.7739C73.425 71.8562 73.4925 71.9551 73.54 72.065C73.5875 72.1749 73.614 72.2935 73.6179 72.4142V72.4464L73.9504 72.3618C73.9504 72.3618 73.2128 69.8275 72.9223 69.3923C72.6318 68.9572 71.9858 70.17 71.9858 70.17C72.1394 70.646 72.2382 71.1398 72.2801 71.6406C72.415 71.5675 72.5643 71.5289 72.7159 71.5278Z" fill="#E45940"/>
<path d="M71.8062 68.204C71.4868 68.3544 71.1986 68.5693 70.9577 68.8366C70.7933 69.1307 70.9347 69.5336 70.9194 69.7955C70.8883 70.0358 70.8742 70.2783 70.8774 70.5208C70.9118 70.5852 71.1679 70.5208 71.2099 70.5772C71.252 70.6336 71.5921 70.8471 71.6762 71.0929C71.7603 71.3387 71.9132 71.3588 72.154 71.238C72.3948 71.1171 73.3006 69.8479 73.3006 69.2476C73.3006 68.6472 72.4789 67.9502 71.8062 68.204Z" fill="#F88667"/>
<path d="M72.3837 67.3852C72.2257 67.6833 72.0976 67.9979 72.0015 68.324C72.0223 68.7423 72.1548 69.146 72.3837 69.4884C72.5251 69.5932 72.4066 68.6101 72.7659 68.9122C73.1252 69.2144 72.743 69.7785 72.7659 69.8953C72.7998 70.0311 72.8714 70.1531 72.9715 70.2457C73.0716 70.3383 73.1957 70.3973 73.3278 70.4151C73.71 70.4514 74.3215 68.4771 73.9126 67.9976C73.7093 67.7932 73.4694 67.6337 73.2068 67.5286C72.9443 67.4234 72.6644 67.3746 72.3837 67.3852Z" fill="#353C73"/>
<path d="M72.4488 66.9912C72.2658 66.858 72.0466 66.7914 71.8244 66.8016C71.6023 66.8117 71.3893 66.8981 71.218 67.0476C70.595 67.5794 70.6141 68.3853 70.0981 68.3127C70.0981 68.3127 70.4383 69.2435 71.2028 69.0219C71.9672 68.8003 72.7049 67.5472 72.4488 66.9912Z" fill="#353C73"/>
<path d="M74.4931 77.4705L72.1616 77.2852C72.1616 77.2852 70.95 78.7155 69.7498 78.7155H65.6562C65.8125 79.9275 66.2253 81.0869 66.8641 82.108C66.8641 82.108 70.755 82.237 72.6508 82.0758C74.5466 81.9146 76.3469 79.7026 74.4931 77.4705Z" fill="#353C73"/>
<path d="M66.7382 78.9863C67.3306 78.9258 67.9116 78.7767 68.4926 78.7002H65.9126C66.1916 78.8493 66.3025 79.0467 66.7382 78.9863Z" fill="#E25B00"/>
<path d="M73.7249 71.5029C73.2614 71.7039 72.7834 71.8656 72.2954 71.9864C72.2954 71.9864 71.531 73.7431 71.2482 74.2145C70.9653 74.6859 71.9858 76.5031 72.047 77.2847C72.047 77.2847 72.6738 77.9133 74.5582 77.5265C74.5582 77.5184 75.0512 72.6069 73.7249 71.5029Z" fill="#0B50B9"/>
<path opacity="0.65" d="M74.0308 72.5385C73.843 72.4645 73.6372 72.4588 73.4461 72.5223C73.2549 72.5858 73.0894 72.7149 72.9758 72.8891C72.7771 73.3161 72.9758 74.0777 72.9758 74.541C72.9648 75.0826 72.9072 75.622 72.8038 76.1527C72.681 76.5964 72.4714 77.0082 72.1885 77.3614C72.4293 77.5185 73.1326 77.8247 74.5964 77.5266C74.5964 77.5266 74.8984 74.5249 74.3977 72.6916C74.2723 72.6492 74.1497 72.598 74.0308 72.5385Z" fill="#00A1CC"/>
<path d="M69.8263 77.6756C69.6448 77.627 69.4701 77.5539 69.3065 77.458C69.179 77.3617 69.0233 77.3161 68.8669 77.3291C68.7484 77.3291 67.7929 77.7642 68.0452 77.9536C68.1292 78.014 68.3356 77.9052 68.4274 77.877C68.5191 77.8488 68.6643 77.7723 68.779 77.7159C68.6758 77.7159 68.156 77.9455 68.2133 78.0704C68.3089 78.2961 68.8325 77.9939 68.9472 77.9214C68.8516 77.9214 68.5268 78.0664 68.5268 78.1953C68.5268 78.3887 68.909 78.2235 69.0007 78.1953C69.0543 78.1549 69.1137 78.1237 69.1765 78.1027C69.2559 78.1053 69.3344 78.1203 69.4097 78.147C69.545 78.1712 69.6833 78.1712 69.8186 78.147C69.8989 78.147 70.0862 78.147 70.1206 78.0866C70.1394 78.0356 70.1447 77.9801 70.1359 77.9262C70.1272 77.8723 70.1047 77.8219 70.0709 77.7803C69.9984 77.7254 69.9146 77.6895 69.8263 77.6756Z" fill="#F88667"/>
<path d="M69.6699 77.6517L69.8763 78.4576C69.8763 78.4576 74.9178 77.8411 75.0286 76.9064C75.1395 75.9716 74.826 71.5718 73.6068 72.0271C72.3875 72.4824 73.6068 75.6533 73.4042 75.9071C73.2016 76.161 69.6699 77.6517 69.6699 77.6517Z" fill="#0B50B9"/>
<path d="M130.133 48.3077C129.207 48.5705 128.33 48.9984 127.541 49.5728C126.437 50.4431 125.271 53.1346 125.049 55.0081C124.828 56.8817 124.369 58.3724 125.049 59.3394C125.73 60.3064 127.931 60.5038 129.835 60.6972C131.738 60.8906 134.341 60.4112 134.865 59.7182C135.388 59.0251 135.354 53.7631 134.364 51.7808C133.374 49.7984 131.578 48.2674 130.133 48.3077Z" fill="#0B50B9"/>
<path d="M132.659 59.622C132.269 59.5085 131.901 59.3215 131.574 59.07C131.323 58.8111 131.023 58.6103 130.694 58.4805C130.365 58.3508 130.014 58.2949 129.663 58.3166C128.898 58.3166 128.153 58.3166 127.496 57.8653C127.201 57.6327 126.974 57.3186 126.839 56.958C126.704 56.5973 126.667 56.2043 126.731 55.8225C126.813 55.3262 127.004 54.857 127.289 54.4526C127.494 54.2136 127.636 53.923 127.703 53.6089C127.77 53.2949 127.759 52.968 127.671 52.6597C127.467 51.8142 127.482 50.9266 127.713 50.0891C127.859 49.6507 128.125 49.2679 128.478 48.9891C128.15 49.1544 127.837 49.3499 127.541 49.5734C126.437 50.4437 125.275 53.1351 125.049 55.0087C124.824 56.8822 124.369 58.373 125.049 59.34C125.73 60.307 127.931 60.5044 129.835 60.6978C131.738 60.8912 134.341 60.4117 134.869 59.7187C135.009 59.4525 135.09 59.1564 135.106 58.8524C134.44 59.5495 133.588 59.9484 132.659 59.622Z" fill="#002987"/>
<path d="M129.93 48.6987C129.93 48.6987 128.337 48.2958 128.123 47.0186C127.909 45.7413 128.539 45.3142 129.025 45.6043C129.51 45.8944 129.586 45.7413 129.93 45.5197C130.274 45.2981 130.764 45.6527 131.008 46.0274C131.253 46.4021 131.303 45.9629 131.887 45.9146C132.472 45.8662 132.679 46.4343 132.369 47.1838C132.059 47.9332 131.769 48.7309 129.93 48.6987Z" fill="#0B50B9"/>
<path d="M131.654 47.9818C131.241 48.0946 131.482 47.5386 131.417 47.3371C131.31 47.3371 131.272 47.5345 131.233 47.6151C131.195 47.7037 131.133 47.7786 131.055 47.8309C130.977 47.8831 130.886 47.9103 130.794 47.9093C130.538 47.9093 130.503 47.6111 130.392 47.4298C130.347 47.3492 130.324 47.3532 130.297 47.4298C130.27 47.5063 130.297 47.6474 130.205 47.7279C130.041 47.873 129.769 47.7078 129.639 47.591C129.51 47.4741 129.445 47.2525 129.292 47.1276C129.268 47.1606 129.254 47.1995 129.25 47.2404C129.211 47.4217 129.223 47.7682 128.94 47.7078C128.657 47.6474 128.539 47.2404 128.462 47.0269C128.363 46.7813 128.305 46.5196 128.29 46.2533C128.289 46.151 128.294 46.0487 128.306 45.9471C128.312 45.8581 128.333 45.771 128.367 45.6892C128.137 45.9028 127.984 46.35 128.118 47.047C128.302 48.1309 129.479 48.6023 129.827 48.699C129.887 48.7185 129.951 48.728 130.014 48.7272C131.466 48.7272 131.925 48.1994 132.197 47.599C132.032 47.7506 131.85 47.8793 131.654 47.9818Z" fill="#002987"/>
<path d="M130.599 52.4707C131.363 52.5512 132.071 52.9219 132.071 53.7479L130.767 53.7197C130.767 53.4094 130.469 53.3168 130.274 53.3168C130.159 53.3168 129.77 53.3168 129.77 53.5545C129.77 54.1186 132.166 53.5787 132.139 55.1662C132.139 56.1211 131.402 56.4676 130.534 56.5159L130.572 57.5313H129.777L129.846 56.5119C129.07 56.4232 128.306 56.0203 128.306 55.1541L129.609 55.1782V55.2145C129.609 55.6174 130.01 55.6738 130.213 55.6778C130.416 55.6819 130.798 55.6779 130.802 55.3998C130.802 54.8156 128.405 55.3031 128.432 53.76C128.432 52.8695 129.104 52.5512 129.903 52.4828L129.869 51.4432H130.664L130.599 52.4707Z" fill="white"/>
<path d="M128.776 48.0946L128.63 48.9004C128.63 48.9004 129.036 49.3033 130.159 49.3033C130.751 49.3304 131.34 49.1914 131.864 48.9004L131.791 48.1752C130.795 48.4093 129.759 48.3816 128.776 48.0946Z" fill="#353C73"/>
<path d="M142.872 27.8232H141.844V26.7354H141.263V27.8232H140.231V28.4316H141.263V29.5155H141.844V28.4316H142.872V27.8232Z" fill="#FFF9FD"/>
<path d="M102.541 38.7461H101.509V37.6582H100.931V38.7461H99.9033V39.3545H100.931V40.4423H101.509V39.3545H102.541V38.7461Z" fill="#FFF9FD"/>
<path d="M150.165 46.7676H149.137V45.6797H148.556V46.7676H147.524V47.38H148.556V48.4638H149.137V47.38H150.165V46.7676Z" fill="#FFF9FD"/>
<path d="M153.181 76.1211H152.153V75.0372H151.575V76.1211H150.543V76.7335H151.575V77.8173H152.153V76.7335H153.181V76.1211Z" fill="#FFF9FD"/>
<path d="M115.926 20.7685H114.894V19.6807H114.317V20.7685H113.285V21.3769H114.317V22.4648H114.894V21.3769H115.926V20.7685Z" fill="#FFF9FD"/>
<path d="M48.4757 67.6191H47.4475V66.5312H46.8665V67.6191H45.8384V68.2275H46.8665V69.3154H47.4475V68.2275H48.4757V67.6191Z" fill="#FFF9FD"/>
<path d="M62.878 101.991C67.2009 104.167 66.1918 103.808 66.876 104.006C67.5602 104.203 71.711 104.477 71.711 104.477L72.1697 106.347C72.1697 106.347 67.1283 106.057 66.4364 105.891C65.7446 105.726 62.8589 104.566 62.8589 104.566L62.878 101.991Z" fill="white"/>
<path d="M69.8264 104.599C69.7611 104.726 69.6629 104.832 69.5432 104.903C69.4235 104.974 69.2872 105.008 69.1499 105.002C68.4675 104.997 67.7859 104.95 67.1088 104.861C66.7201 104.824 66.3359 104.746 65.9622 104.627C65.2816 104.418 64.6161 104.158 63.9708 103.849C63.6109 103.691 63.242 103.556 62.8662 103.446V104.558C62.8662 104.558 65.7596 105.723 66.4438 105.884C67.1279 106.045 72.177 106.339 72.177 106.339L71.7298 104.498C71.0954 104.558 70.4609 104.595 69.8264 104.599Z" fill="#E5E6ED"/>
<path d="M62.2738 124.043C62.171 124.367 62.1093 124.705 62.0903 125.046C62.0903 125.481 62.1133 125.945 62.2432 126.054C62.4993 126.271 65.7061 126.303 65.966 125.989C66.2259 125.675 66.0501 125.183 65.3736 124.994C64.9382 124.93 64.5077 124.833 64.0855 124.704C63.9555 124.646 63.8492 124.541 63.7855 124.408C63.7218 124.276 63.7048 124.123 63.7377 123.979L62.2738 124.043Z" fill="#353C73"/>
<path d="M55.237 123.41C55.0341 123.675 54.8622 123.964 54.7249 124.272C54.5796 124.675 54.4497 125.127 54.5299 125.276C54.6943 125.578 57.6794 126.807 58.0272 126.613C58.375 126.42 58.4094 125.88 57.8132 125.449C57.4312 125.22 57.0623 124.967 56.7086 124.691C56.6079 124.588 56.5445 124.451 56.5291 124.304C56.5138 124.157 56.5475 124.009 56.6245 123.886L55.237 123.41Z" fill="#353C73"/>
<path d="M62.2506 109.676L57.9277 110.183C57.9277 110.183 61.7958 116.695 62.0901 117.742C62.3844 118.79 61.9792 124.475 61.9792 124.475H63.9362C63.9362 124.475 64.3566 117.758 64.2611 117.255C64.1655 116.751 62.2506 109.676 62.2506 109.676Z" fill="#353C73"/>
<path d="M62.0902 110.01H57.1557C57.1557 110.01 56.5786 111.601 56.8423 112.83C57.0878 114.239 57.2272 115.665 57.2589 117.097C57.2322 117.552 54.8242 123.628 54.8242 123.628L56.6206 124.333C56.6206 124.333 59.1012 118.543 59.3382 117.887C59.5752 117.23 62.0902 110.01 62.0902 110.01Z" fill="#353C73"/>
<path d="M61.8806 99.2519C61.4806 99.275 61.0795 99.2411 60.6881 99.1511C60.5473 99.119 60.4111 99.0675 60.2829 98.998C60.2409 99.5218 60.1033 100.743 59.6943 101.202C59.6943 101.202 59.7478 101.814 60.7722 101.98C61.7965 102.145 62.0106 101.331 62.0106 101.331C61.9024 100.644 61.8589 99.9477 61.8806 99.2519Z" fill="#F88667"/>
<path d="M59.698 101.226C59.6943 101.241 59.6943 101.256 59.698 101.27C59.6982 101.294 59.7063 101.317 59.7209 101.335L59.7668 101.415C59.8133 101.487 59.8686 101.552 59.9311 101.609C59.972 101.643 60.0155 101.674 60.0611 101.701H60.084C60.1389 101.737 60.1964 101.768 60.256 101.794C60.334 101.533 60.4764 101.298 60.6688 101.113C61.0004 100.768 61.4448 100.569 61.911 100.557C61.862 100.125 61.8492 99.6899 61.8728 99.2558C61.4728 99.2789 61.0717 99.245 60.6803 99.1551C60.5395 99.1229 60.4033 99.0714 60.2751 99.002C60.2331 99.5257 60.0955 100.747 59.6865 101.206L59.698 101.226Z" fill="#E45940"/>
<path d="M60.2138 96.146C60.2138 96.146 61.9299 95.6988 62.186 96.146C62.4421 96.5933 62.3542 97.2863 62.4536 97.5965C62.5529 97.9068 62.9581 98.2573 63.0001 98.3741C63.0422 98.491 62.702 98.7206 62.6523 98.8133C62.6026 98.906 62.3886 99.9092 62.0866 100.119C61.7847 100.328 60.2443 99.6594 59.8774 98.8536C59.5105 98.0478 59.7513 96.3838 60.2138 96.146Z" fill="#F88667"/>
<path d="M62.0102 101.145C62.0102 101.145 60.8062 101.778 59.8239 101.016C59.8239 101.016 57.9625 101.363 57.7332 101.46C57.5039 101.556 58.0428 104.336 57.8249 105.726C57.6071 107.116 56.7471 110.537 56.7471 110.537C56.7471 110.537 59.0404 112.383 62.939 111.218C62.939 111.218 63.069 106.444 63.0269 105.122C62.9658 103.18 62.9543 102.02 62.9543 102.02C62.656 101.709 62.3408 101.417 62.0102 101.145Z" fill="white"/>
<path d="M59.1592 108.866C58.9565 108.146 58.8992 107.39 58.991 106.645C59.1248 105.815 58.5629 104.732 58.4559 103.89C58.3489 103.047 58.2572 102.379 57.6915 101.875C57.7259 102.721 57.9896 104.643 57.8176 105.727C57.6036 107.133 56.7397 110.538 56.7397 110.538C56.7397 110.538 58.1884 111.702 60.7492 111.597C59.7478 110.961 59.442 110.09 59.1592 108.866Z" fill="#E5E6ED"/>
<path d="M60.9552 96.3998C60.9589 96.7199 60.8824 97.0353 60.7336 97.3144C60.6227 97.5239 61.1158 98.1202 60.9552 98.366C60.852 98.5352 60.7144 98.4828 60.6112 98.1363C60.554 98.0195 60.4592 97.9281 60.3437 97.8785C59.9385 97.669 59.8124 98.3297 60.1755 98.5433C60.4278 98.6964 60.2443 99.3813 60.2443 99.3813C59.9577 99.5949 59.0442 99.2766 59.1779 98.5755C59.262 98.1283 59.3002 97.959 59.1512 97.8382C58.9844 97.732 58.8642 97.5605 58.8169 97.3612C58.7697 97.1619 58.7992 96.9509 58.8989 96.7745C58.9345 96.7143 58.9769 96.6588 59.025 96.6093C59.671 95.9928 59.1168 95.7591 59.8392 95.606C60.5616 95.4529 61.1311 95.9364 60.9552 96.3998Z" fill="#353C73"/>
<path d="M59.709 95.9607C59.7549 95.7995 60.0453 95.5981 60.1906 95.4973C60.4135 95.3433 60.6628 95.2366 60.9244 95.1831C61.1941 95.1226 61.4728 95.1226 61.7424 95.1831C61.9578 95.2664 62.1773 95.3376 62.3998 95.3966C62.4991 95.4267 62.6034 95.434 62.7056 95.418C62.8078 95.4021 62.9055 95.3631 62.9922 95.3039C63.0228 95.4919 63.0228 95.684 62.9922 95.872C62.9188 96.0951 62.8059 96.3015 62.6597 96.4804C62.4168 96.7594 62.0985 96.953 61.7478 97.0352C61.3972 97.1173 61.0311 97.084 60.6989 96.9398C60.3956 96.8402 60.1347 96.6321 59.9612 96.3515C59.8947 96.2096 59.8098 96.0781 59.709 95.9607Z" fill="#353C73"/>
<path d="M55.348 121.412C55.2049 121.457 55.0574 121.484 54.9084 121.493H54.7173C54.4502 121.527 54.1792 121.5 53.9223 121.416C53.6781 121.327 53.4634 121.166 53.304 120.952C53.1447 120.737 53.0475 120.479 53.0241 120.208C52.9734 119.907 52.9832 119.6 53.053 119.304C53.1228 119.008 53.251 118.731 53.4292 118.491C53.5877 118.282 53.7791 118.104 53.9949 117.963L54.0561 117.919C54.3105 117.68 54.497 117.372 54.595 117.029V116.972C54.6485 116.831 54.6944 116.694 54.7364 116.569C54.7785 116.444 54.7976 116.368 54.832 116.267C55.2983 114.921 56.6743 114.361 57.7063 114.136L57.7521 114.353C56.7507 114.571 55.4588 115.095 55.0307 116.348C54.9963 116.444 54.9658 116.541 54.9352 116.638C54.9046 116.734 54.8473 116.924 54.7899 117.073L54.7708 117.125C54.6604 117.509 54.4482 117.852 54.1593 118.112L54.0943 118.161C53.8962 118.296 53.7228 118.468 53.5821 118.668C53.4178 118.884 53.2988 119.133 53.2329 119.401C53.167 119.668 53.1557 119.947 53.1999 120.22C53.2185 120.452 53.3006 120.674 53.4363 120.859C53.5719 121.043 53.7553 121.182 53.9643 121.259C54.192 121.332 54.4321 121.352 54.6676 121.316H54.8626C55.2756 121.273 55.671 121.118 56.0092 120.864C56.2245 120.725 56.4494 120.602 56.6819 120.498C56.9503 120.387 57.194 120.219 57.3974 120.004C57.6007 119.789 57.7593 119.532 57.863 119.249V119.204C58.1437 118.409 58.5784 117.685 59.1396 117.077L59.2351 116.984C59.7053 116.505 59.9996 116.207 60.0722 115.497C60.1119 115.196 60.083 114.889 59.988 114.602C59.893 114.315 59.7345 114.055 59.5256 113.846C59.392 113.748 59.236 113.69 59.0739 113.678C58.9119 113.666 58.7497 113.7 58.6045 113.777L58.5242 113.572C58.7031 113.479 58.9022 113.44 59.1006 113.457C59.299 113.474 59.4894 113.547 59.6517 113.668C60.1563 114.071 60.3359 114.901 60.2824 115.514C60.2174 116.291 59.8505 116.678 59.3765 117.125L59.2848 117.222C58.7455 117.812 58.3278 118.513 58.0579 119.281L58.0388 119.325C57.9235 119.634 57.7489 119.915 57.526 120.15C57.303 120.385 57.0365 120.569 56.7431 120.691C56.5185 120.786 56.3023 120.902 56.0971 121.038C55.8634 121.195 55.6117 121.321 55.348 121.412Z" fill="white"/>
<path d="M74.7379 103.563L59.5791 108.221C59.1326 108.358 58.7382 108.64 58.4516 109.026L56.5405 111.532C56.3198 111.83 56.1699 112.178 56.1034 112.549C56.0369 112.92 56.0557 113.302 56.1583 113.664L56.4335 114.655C56.5364 115.014 56.7187 115.341 56.9652 115.611C57.2117 115.88 57.5155 116.085 57.8515 116.206L60.7258 117.25C61.1634 117.411 61.6378 117.423 62.0826 117.286L77.2452 112.628C77.5277 112.543 77.7914 112.399 78.0211 112.206C78.2509 112.013 78.4422 111.773 78.5843 111.502C78.7263 111.231 78.8161 110.933 78.8487 110.625C78.8813 110.317 78.8559 110.005 78.7741 109.707L77.5204 105.166C77.4383 104.868 77.3011 104.59 77.1166 104.347C76.9322 104.105 76.7041 103.904 76.4455 103.755C76.1869 103.606 75.9029 103.512 75.6098 103.479C75.3168 103.446 75.0204 103.475 74.7379 103.563ZM60.978 113.898C60.7766 114.174 60.4879 114.365 60.1643 114.437C59.8407 114.508 59.5035 114.455 59.2138 114.287C58.9241 114.119 58.701 113.847 58.5851 113.521C58.4691 113.194 58.4678 112.835 58.5815 112.508C58.6134 112.393 58.6681 112.287 58.7421 112.197C58.9406 111.914 59.23 111.716 59.5565 111.64C59.8831 111.565 60.2245 111.617 60.5174 111.787C60.8104 111.957 61.0348 112.233 61.149 112.564C61.2633 112.895 61.2595 113.259 61.1386 113.587C61.1075 113.697 61.0555 113.798 60.9857 113.886L60.978 113.898Z" fill="#0B50B9"/>
<path d="M63.6806 113.914L63.0117 110.03L63.9176 109.752C64.0428 109.714 64.1706 109.687 64.2998 109.671C64.4037 109.655 64.5093 109.655 64.6132 109.671C64.7125 109.684 64.8072 109.723 64.8886 109.784C64.97 109.845 65.0357 109.927 65.0795 110.022C65.1129 110.091 65.1397 110.164 65.1598 110.239C65.1778 110.3 65.1919 110.362 65.2018 110.425C65.2548 110.606 65.2456 110.801 65.1757 110.976C65.1058 111.15 64.9797 111.293 64.8196 111.38C64.9057 111.364 64.9939 111.367 65.0791 111.387C65.1643 111.408 65.2447 111.446 65.3158 111.5C65.3869 111.553 65.4472 111.621 65.4932 111.699C65.5393 111.778 65.5701 111.865 65.584 111.956C65.5918 112.013 65.6046 112.07 65.6223 112.125C65.6988 112.442 65.6563 112.779 65.5038 113.064C65.3279 113.329 65.065 113.515 64.7661 113.588L63.6806 113.914ZM64.3074 113.136L64.51 113.072C64.5876 113.059 64.6618 113.029 64.7276 112.984C64.7935 112.939 64.8496 112.88 64.8922 112.81C64.9496 112.653 64.9589 112.481 64.919 112.318C64.9112 112.265 64.8997 112.213 64.8846 112.161C64.8625 112.045 64.8047 111.941 64.7202 111.863C64.6565 111.824 64.5849 111.801 64.5113 111.796C64.4376 111.791 64.3639 111.804 64.296 111.835L64.1125 111.895L64.3074 113.136ZM64.0017 111.363L64.1813 111.303C64.258 111.295 64.332 111.269 64.398 111.227C64.4641 111.185 64.5206 111.129 64.5635 111.061C64.6179 110.915 64.6273 110.754 64.5903 110.602V110.513C64.5812 110.46 64.5606 110.41 64.5301 110.367C64.4996 110.323 64.46 110.288 64.4145 110.264C64.2704 110.223 64.1179 110.231 63.9787 110.288L63.8717 110.32L64.0017 111.363Z" fill="white"/>
<path d="M66.2108 113.14L65.5381 109.26L66.4325 108.982C66.5653 108.941 66.7007 108.91 66.8376 108.889C66.9505 108.873 67.0649 108.873 67.1778 108.889C67.276 108.906 67.3697 108.944 67.453 109.002C67.5372 109.069 67.6053 109.156 67.6517 109.256C67.6892 109.327 67.7175 109.402 67.7358 109.481C67.7539 109.539 67.7679 109.599 67.7779 109.659C67.8238 109.868 67.8238 110.086 67.7779 110.295C67.73 110.477 67.6299 110.639 67.4912 110.759L68.3436 112.495L67.6326 112.713L66.8988 111.101L66.635 111.186L66.937 112.946L66.2108 113.14ZM66.5395 110.682L66.7153 110.63C66.7922 110.617 66.8659 110.589 66.9317 110.545C66.9975 110.501 67.054 110.444 67.0975 110.376C67.1596 110.229 67.1731 110.064 67.1358 109.908C67.1411 109.861 67.1317 109.813 67.109 109.771C67.0868 109.671 67.0362 109.579 66.9638 109.51C66.907 109.472 66.8423 109.45 66.7756 109.446C66.7088 109.442 66.6421 109.455 66.5815 109.485L66.3637 109.554L66.5395 110.682Z" fill="white"/>
<path d="M68.5464 112.427L68.5884 108.313L69.3529 108.071L70.725 111.754L70.06 111.955L69.7771 111.129L69.2 111.303V112.217L68.5464 112.427ZM69.1962 110.815L69.6319 110.678L69.135 109.187L69.1962 110.815Z" fill="white"/>
<path d="M71.0916 111.621L70.4189 107.741L70.9196 107.584L72.0892 109.393L71.707 107.339L72.3033 107.157L72.9722 111.037L72.4982 111.178L71.298 109.24L71.6803 111.42L71.0916 111.621Z" fill="white"/>
<path d="M73.5264 110.892L72.8613 107.012L73.7251 106.746C73.9073 106.678 74.0978 106.637 74.2908 106.625C74.4259 106.623 74.5586 106.662 74.673 106.738C74.7843 106.815 74.872 106.924 74.9253 107.052C74.9602 107.132 74.9896 107.214 75.0132 107.298C75.0407 107.395 75.0624 107.493 75.0782 107.592L75.319 108.994C75.3649 109.243 75.3649 109.499 75.319 109.748C75.2833 109.95 75.1819 110.132 75.0323 110.264C74.8399 110.432 74.6139 110.554 74.3711 110.618L73.5264 110.892ZM74.1532 110.118L74.3061 110.07C74.3606 110.055 74.4132 110.034 74.4628 110.006C74.5007 109.985 74.5365 109.961 74.5698 109.933C74.5986 109.908 74.6199 109.874 74.631 109.836C74.6417 109.801 74.6506 109.764 74.6578 109.728C74.6654 109.684 74.6654 109.639 74.6578 109.595V109.442C74.6604 109.381 74.6499 109.32 74.6272 109.264L74.3673 107.709C74.3611 107.633 74.3444 107.558 74.3176 107.487L74.2908 107.399C74.2791 107.362 74.259 107.329 74.2324 107.302C74.2058 107.276 74.1733 107.256 74.1379 107.246C74.0376 107.228 73.9347 107.239 73.8398 107.278L73.6869 107.322L74.1532 110.118Z" fill="white"/>
<path d="M59.9769 113.922C59.9376 113.986 59.8915 114.046 59.8393 114.099C60.0732 114.504 60.1752 114.978 60.1298 115.449C60.0876 115.773 59.9737 116.082 59.7973 116.351C59.6823 116.507 59.5544 116.651 59.415 116.783L59.61 116.879C59.7255 116.753 59.8328 116.618 59.931 116.476C60.1294 116.171 60.26 115.823 60.3133 115.457C60.3669 114.92 60.2485 114.38 59.9769 113.922Z" fill="white"/>
<path d="M72.9531 104.252C72.8087 104.106 72.6252 104.011 72.4274 103.979C72.2297 103.947 72.0275 103.981 71.8485 104.075C71.5886 104.192 71.5733 104.478 71.5351 104.925C71.4885 105.146 71.5018 105.376 71.5733 105.59C71.9058 105.844 71.9135 104.861 71.9555 104.611C71.9555 104.611 71.8256 105.65 71.9976 105.739C72.3263 105.9 72.311 104.933 72.3492 104.695C72.292 104.928 72.2842 105.172 72.3263 105.408C72.3263 105.598 72.4639 105.558 72.4945 105.537C72.6626 105.433 72.6626 104.647 72.6626 104.647C72.6626 104.784 72.5594 105.296 72.7735 105.191C72.9111 105.126 72.9187 104.901 72.9493 104.788C73.0125 104.616 73.0138 104.425 72.9531 104.252Z" fill="#F88667"/>
<path d="M58.7424 108.825C59.0825 108.825 59.48 108.878 59.847 108.878C60.0075 108.878 60.1719 108.857 60.3286 108.845C60.4853 108.833 60.6305 108.801 60.7108 108.922C60.791 109.043 60.5732 109.095 60.4967 109.111C60.4203 109.127 60.1145 109.111 60.1145 109.285C60.1145 109.458 60.4967 109.583 60.6611 109.687C60.8254 109.792 61.2077 109.905 60.9478 110.09C60.7719 110.195 60.405 109.953 60.2521 109.893C60.4438 109.947 60.6276 110.029 60.7987 110.135C60.9019 110.191 61.1006 110.276 61.1006 110.397C61.1006 110.517 60.7184 110.473 60.6343 110.429C60.487 110.368 60.3482 110.287 60.2215 110.187C60.3783 110.272 60.9592 110.53 60.7643 110.739C60.6496 110.868 60.2024 110.509 60.0266 110.433C60.1222 110.525 60.4088 110.578 60.4088 110.779C60.4088 110.88 60.2254 110.799 60.1489 110.755C60.0431 110.676 59.9334 110.604 59.8202 110.538C59.7354 110.489 59.6548 110.432 59.5794 110.368C59.3779 110.258 59.1893 110.122 59.0176 109.965C58.8633 109.782 58.7 109.607 58.5283 109.442C58.8265 109.268 58.5016 109.011 58.7424 108.825Z" fill="#F88667"/>
<path d="M59.247 108.733L58.7692 109.897C58.7692 109.897 53.8004 108.201 54.0412 106.831C54.2438 105.622 57.1295 101.593 57.7602 101.444C58.6049 101.251 58.9412 103.386 58.4558 103.886C57.4315 104.97 55.9752 106.497 56.0937 106.743C56.2122 106.988 59.247 108.733 59.247 108.733Z" fill="white"/>
<path d="M39.8449 79.6417C39.8984 79.2638 39.8984 78.8795 39.8449 78.5015L39.0117 78.3605C38.9861 78.2238 38.9516 78.0892 38.9085 77.9576L39.5698 77.3895C39.4321 77.0352 39.2481 76.7029 39.0232 76.4023L38.232 76.7246C38.1464 76.6243 38.0558 76.5288 37.9606 76.4386L38.2664 75.6046C37.9809 75.3755 37.6688 75.186 37.3376 75.0405L36.7949 75.7617C36.6697 75.7183 36.542 75.6833 36.4126 75.6569L36.2865 74.7746C35.9265 74.7208 35.561 74.7208 35.201 74.7746L35.0711 75.6569C34.9415 75.6826 34.8138 75.7176 34.6888 75.7617L34.1346 75.0606C33.7993 75.2074 33.4843 75.4012 33.1982 75.6368L33.5001 76.4708C33.4062 76.5611 33.3169 76.6566 33.2326 76.7569L32.4376 76.4346C32.2152 76.7363 32.0327 77.0683 31.8948 77.4217L32.5561 77.9898C32.513 78.1215 32.4785 78.2561 32.4529 78.3927L31.6158 78.5337C31.5623 78.9117 31.5623 79.296 31.6158 79.674L32.4529 79.815C32.4796 79.9514 32.514 80.0859 32.5561 80.2179L31.8948 80.782C32.0336 81.1336 32.2161 81.4642 32.4376 81.7651L33.2326 81.4428C33.3167 81.5435 33.4084 81.6402 33.5001 81.7329L33.1982 82.5709C33.4859 82.8062 33.8005 83.0025 34.1346 83.1551L34.6697 82.4581C34.7953 82.5002 34.9229 82.5352 35.0519 82.5629L35.1819 83.4452C35.3618 83.4707 35.5431 83.4841 35.7246 83.4855C35.9062 83.4843 36.0875 83.4708 36.2674 83.4452L36.3973 82.5629C36.5197 82.5347 36.642 82.4984 36.7796 82.4581L37.3147 83.1551C37.6488 83.0059 37.9635 82.8123 38.2511 82.579L37.9453 81.7409C38.0417 81.6507 38.1336 81.5552 38.2205 81.4548L39.0117 81.7772C39.234 81.4754 39.4166 81.1434 39.5545 80.79L38.8894 80.1937C38.9318 80.0618 38.9663 79.9273 38.9926 79.7908L39.8449 79.6417ZM35.7476 81.3581C35.3182 81.3589 34.8982 81.2255 34.5408 80.9747C34.1834 80.7239 33.9045 80.367 33.7395 79.9491C33.5745 79.5312 33.5307 79.0712 33.6137 78.6271C33.6968 78.183 33.9028 77.7748 34.2059 77.4542C34.509 77.1336 34.8955 76.9149 35.3165 76.8258C35.7375 76.7367 36.174 76.7813 36.571 76.9537C36.968 77.1262 37.3076 77.4189 37.5467 77.7948C37.7859 78.1707 37.914 78.6129 37.9148 79.0656C37.9148 79.6722 37.6867 80.2541 37.2805 80.6838C36.8743 81.1135 36.323 81.356 35.7476 81.3581Z" fill="#C6D8ED"/>
<path d="M35.748 76.5031C35.2656 76.5023 34.7937 76.6523 34.3922 76.9343C33.9907 77.2163 33.6775 77.6175 33.4924 78.0871C33.3072 78.5568 33.2584 79.0738 33.3521 79.5727C33.4457 80.0716 33.6777 80.53 34.0185 80.8899C34.3594 81.2498 34.7939 81.495 35.2671 81.5945C35.7402 81.694 36.2307 81.6434 36.6765 81.4489C37.1223 81.2545 37.5034 80.925 37.7715 80.5022C38.0396 80.0794 38.1828 79.5822 38.1828 79.0736C38.1833 78.7363 38.1207 78.4021 37.9985 78.0902C37.8764 77.7784 37.6971 77.495 37.471 77.2562C37.2449 77.0175 36.9763 76.828 36.6806 76.6988C36.385 76.5696 36.0681 76.5031 35.748 76.5031ZM35.748 80.6692C35.4457 80.6692 35.1501 80.5747 34.8986 80.3976C34.6472 80.2205 34.4513 79.9688 34.3355 79.6743C34.2198 79.3798 34.1896 79.0557 34.2485 78.7431C34.3075 78.4305 34.4531 78.1433 34.667 77.9179C34.8808 77.6925 35.1532 77.539 35.4498 77.4768C35.7463 77.4147 36.0537 77.4466 36.3331 77.5686C36.6125 77.6905 36.8513 77.8971 37.0192 78.1621C37.1872 78.4272 37.2769 78.7388 37.2769 79.0575C37.2769 79.485 37.1158 79.8949 36.8291 80.1971C36.5424 80.4994 36.1535 80.6692 35.748 80.6692Z" fill="#353C73"/>
<path d="M147.226 39.2994C147.275 38.9211 147.275 38.5374 147.226 38.1591L146.389 38.0181C146.363 37.8815 146.329 37.7468 146.285 37.6152L146.951 37.0471C146.813 36.6928 146.629 36.3605 146.404 36.0599L145.609 36.3823C145.524 36.281 145.434 36.1854 145.338 36.0962L145.647 35.2581C145.358 35.0247 145.042 34.8311 144.707 34.682L144.176 35.383C144.051 35.3377 143.923 35.3027 143.793 35.2783L143.667 34.3959C143.486 34.3671 143.304 34.3523 143.121 34.3516C142.939 34.351 142.758 34.3644 142.578 34.3919L142.448 35.2743C142.319 35.3006 142.191 35.3356 142.066 35.379L141.531 34.6779C141.197 34.8271 140.882 35.0208 140.594 35.2541L140.9 36.0922C140.804 36.1814 140.713 36.2769 140.629 36.3782L139.837 36.0559C139.613 36.3565 139.429 36.6888 139.291 37.043L139.956 37.6111C139.913 37.7428 139.878 37.8774 139.853 38.0141L139.016 38.1551C138.962 38.5331 138.962 38.9173 139.016 39.2953L139.853 39.4323C139.879 39.5688 139.914 39.7033 139.956 39.8352L139.291 40.3993C139.429 40.7536 139.613 41.0858 139.837 41.3864L140.629 41.0641C140.713 41.1654 140.804 41.261 140.9 41.3502L140.594 42.1882C140.882 42.4216 141.197 42.6152 141.531 42.7644L142.066 42.0674C142.188 42.1077 142.31 42.1439 142.448 42.1721L142.578 43.0505C142.758 43.0792 142.939 43.0941 143.121 43.0948C143.304 43.0941 143.486 43.0792 143.667 43.0505L143.793 42.1721C143.92 42.1439 144.042 42.1077 144.176 42.0674L144.707 42.7644C145.042 42.6153 145.358 42.4217 145.647 42.1882L145.338 41.3502C145.434 41.261 145.524 41.1654 145.609 41.0641L146.404 41.3864C146.629 41.0858 146.813 40.7536 146.951 40.3993L146.27 39.8231C146.313 39.6913 146.347 39.5567 146.373 39.4202L147.226 39.2994ZM143.132 41.0077C142.704 41.0069 142.287 40.8725 141.931 40.6214C141.576 40.3704 141.299 40.0139 141.136 39.5971C140.973 39.1804 140.931 38.722 141.015 38.2798C141.099 37.8377 141.305 37.4318 141.608 37.1132C141.91 36.7947 142.296 36.5779 142.715 36.4903C143.135 36.4026 143.57 36.448 143.965 36.6207C144.36 36.7934 144.697 37.0857 144.935 37.4607C145.173 37.8356 145.299 38.2764 145.299 38.7272C145.3 39.0272 145.244 39.3243 145.135 39.6015C145.027 39.8787 144.867 40.1305 144.666 40.3424C144.464 40.5543 144.225 40.7222 143.962 40.8364C143.699 40.9505 143.417 41.0088 143.132 41.0077Z" fill="#C6D8ED"/>
<path d="M143.132 36.1592C142.649 36.1576 142.177 36.3069 141.775 36.5882C141.373 36.8695 141.06 37.2702 140.874 37.7395C140.688 38.2089 140.638 38.7258 140.731 39.2248C140.824 39.7239 141.055 40.1827 141.396 40.5432C141.736 40.9036 142.17 41.1496 142.643 41.2499C143.116 41.3502 143.607 41.3003 144.053 41.1066C144.499 40.9129 144.881 40.584 145.149 40.1617C145.418 39.7393 145.562 39.2424 145.563 38.7338V38.6935C145.554 38.0194 145.294 37.3761 144.839 36.9021C144.384 36.428 143.771 36.1612 143.132 36.1592ZM143.132 40.3213C142.829 40.3253 142.531 40.2342 142.277 40.0595C142.023 39.8849 141.824 39.6346 141.706 39.3405C141.587 39.0464 141.554 38.7217 141.611 38.4077C141.668 38.0938 141.812 37.8048 142.025 37.5773C142.238 37.3499 142.51 37.1944 142.807 37.1306C143.104 37.0667 143.413 37.0975 143.693 37.2188C143.974 37.3402 144.214 37.5467 144.382 37.8122C144.551 38.0776 144.641 38.39 144.641 38.7096C144.642 39.1336 144.483 39.5405 144.2 39.8422C143.918 40.1438 143.534 40.316 143.132 40.3213Z" fill="#353C73"/>
<path d="M100.859 32.8436C100.948 32.6577 101.027 32.4666 101.096 32.2714C101.161 32.0751 101.215 31.8746 101.256 31.6711L100.446 31.2077C100.465 31.0607 100.476 30.9128 100.48 30.7645L101.356 30.4422C101.335 30.0307 101.262 29.6241 101.138 29.2335L100.213 29.2576C100.163 29.1186 100.103 28.9839 100.033 28.8547L100.641 28.1174C100.427 27.7666 100.17 27.4469 99.8765 27.1665L99.0853 27.6742C98.974 27.5814 98.8579 27.4953 98.7375 27.4163L98.9094 26.4654C98.7349 26.3693 98.5549 26.2846 98.3705 26.2116C98.1828 26.143 97.9914 26.0865 97.7972 26.0424L97.3615 26.8966C97.22 26.8966 97.0786 26.8684 96.9372 26.8643L96.6314 25.9376C96.2415 25.9624 95.8562 26.0396 95.4848 26.1673L95.5077 27.1423C95.3773 27.1984 95.2497 27.2617 95.1255 27.3317L94.4107 26.679C94.0787 26.906 93.7756 27.1768 93.5087 27.4848L93.9903 28.3188C93.9062 28.4357 93.826 28.5566 93.7533 28.6815L92.8475 28.5001C92.7556 28.6852 92.6751 28.8763 92.6067 29.0723C92.5412 29.2683 92.4888 29.4689 92.45 29.6726L93.2603 30.14C93.2412 30.2856 93.2297 30.4322 93.2259 30.5792L92.3506 30.9015C92.371 31.3126 92.443 31.7191 92.5646 32.1103L93.4934 32.0861C93.5419 32.225 93.6007 32.3598 93.6692 32.489L93.0577 33.2424C93.272 33.5932 93.529 33.9129 93.8221 34.1933L94.621 33.6695C94.7307 33.7614 94.8455 33.8461 94.965 33.9234L94.793 34.8783C94.9678 34.9755 95.1492 35.059 95.3357 35.1281C95.5197 35.2004 95.7088 35.2569 95.9014 35.2973L96.3448 34.4471C96.4824 34.4471 96.6238 34.4753 96.7652 34.4794L97.071 35.402C97.4607 35.3786 97.8461 35.3028 98.2176 35.1764V34.2135C98.3438 34.157 98.4661 34.0966 98.5998 34.0281L99.2993 34.6647C99.6318 34.4367 99.9361 34.166 100.205 33.8589L99.7159 33.0249C99.8055 32.9102 99.8873 32.7891 99.9605 32.6622L100.859 32.8436ZM96.0734 33.0087C95.6343 32.843 95.2517 32.5436 94.974 32.1487C94.6963 31.7537 94.5359 31.2808 94.5132 30.7897C94.4904 30.2987 94.6063 29.8115 94.8462 29.3899C95.086 28.9682 95.4391 28.631 95.8607 28.4209C96.2824 28.2108 96.7537 28.1372 97.215 28.2094C97.6763 28.2816 98.107 28.4963 98.4525 28.8265C98.7981 29.1567 99.043 29.5875 99.1563 30.0644C99.2696 30.5414 99.2462 31.043 99.0891 31.5059C98.8775 32.1271 98.4406 32.6344 97.8744 32.9162C97.3082 33.198 96.659 33.2313 96.0696 33.0087H96.0734Z" fill="#0B50B9"/>
<path d="M97.7514 28.0417C97.2582 27.856 96.7239 27.8285 96.216 27.9627C95.7081 28.097 95.2493 28.387 94.8976 28.796C94.5459 29.205 94.3172 29.7147 94.2402 30.2607C94.1632 30.8068 94.2415 31.3646 94.4652 31.8637C94.6889 32.3628 95.0479 32.7809 95.4968 33.065C95.9458 33.3491 96.4646 33.4866 96.9876 33.46C97.5107 33.4335 98.0145 33.2441 98.4355 32.9158C98.8565 32.5875 99.1757 32.135 99.3528 31.6155C99.4706 31.27 99.5227 30.9035 99.5059 30.5368C99.4891 30.1701 99.4039 29.8104 99.2552 29.4785C99.1064 29.1465 98.897 28.8488 98.639 28.6022C98.381 28.3557 98.0793 28.1652 97.7514 28.0417ZM96.2989 32.3085C95.9913 32.193 95.7231 31.9838 95.5283 31.7076C95.3334 31.4314 95.2206 31.1004 95.2042 30.7566C95.1877 30.4128 95.2684 30.0716 95.4359 29.7761C95.6034 29.4806 95.8503 29.2441 96.1453 29.0965C96.4403 28.9489 96.7702 28.8968 97.0933 28.9469C97.4164 28.9969 97.7181 29.1468 97.9604 29.3776C98.2027 29.6084 98.3746 29.9098 98.4544 30.2436C98.5342 30.5774 98.5183 30.9286 98.4088 31.2529C98.336 31.4678 98.2239 31.6654 98.0786 31.8345C97.9334 32.0037 97.758 32.141 97.5624 32.2387C97.3669 32.3363 97.155 32.3924 96.9388 32.4037C96.7227 32.415 96.5065 32.3813 96.3028 32.3045L96.2989 32.3085Z" fill="#353C73"/>
</g>
<defs>
<clipPath id="clip0_327_2226">
<rect width="157.474" height="134" fill="white" transform="translate(0.263184)"/>
</clipPath>
</defs>
</svg>
