<svg width="158" height="124" viewBox="0 0 158 124" fill="none" xmlns="http://www.w3.org/2000/svg">
<g clip-path="url(#clip0_327_4383)">
<path d="M119.542 96.0298C142.813 77.2528 142.813 46.8092 119.542 28.0322C96.2716 9.25514 58.5425 9.25514 35.2719 28.0322C12.0013 46.8092 12.0013 77.2528 35.2719 96.0298C58.5425 114.807 96.2716 114.807 119.542 96.0298Z" fill="#D7DCFF"/>
<path d="M76.4228 113.731C75.88 113.731 75.3371 113.712 74.7982 113.696L74.845 112.719C75.3762 112.735 75.9073 112.748 76.4423 112.754L76.4228 113.731ZM78.8637 113.731L78.8324 112.754C79.3675 112.754 79.8986 112.729 80.4297 112.707L80.4883 113.687C79.9494 113.699 79.3909 113.715 78.8637 113.725V113.731ZM72.3612 113.58C71.8223 113.545 71.2794 113.507 70.7444 113.463L70.8655 112.489C71.3966 112.533 71.9238 112.571 72.455 112.606L72.3612 113.58ZM82.9057 113.548L82.8042 112.574C83.3353 112.537 83.8625 112.496 84.3898 112.448L84.5226 113.422C84.0031 113.469 83.4642 113.514 82.9057 113.548ZM68.3074 113.233C67.7685 113.17 67.2335 113.104 66.6984 113.031L66.9015 112.064C67.4248 112.136 67.9482 112.203 68.4637 112.262L68.3074 113.233ZM86.9439 113.176L86.7642 112.209C87.2915 112.146 87.8148 112.077 88.3264 112.001L88.5373 112.965C88.0296 113.031 87.4945 113.104 86.9595 113.167L86.9439 113.176ZM64.2927 112.669C63.7616 112.578 63.2344 112.483 62.7071 112.385L62.9805 111.44C63.4999 111.538 64.0194 111.632 64.5427 111.717L64.2927 112.669ZM90.9352 112.59L90.6813 111.645C91.2007 111.553 91.7202 111.459 92.2435 111.358L92.5286 112.303C92.017 112.389 91.4975 112.499 90.9586 112.581L90.9352 112.59ZM60.3405 111.9C59.8172 111.783 59.2978 111.661 58.7783 111.535L59.1298 110.589C59.6375 110.712 60.1491 110.832 60.6607 110.945L60.3405 111.9ZM94.8796 111.796L94.5516 110.851C95.0632 110.734 95.5708 110.611 96.0785 110.485L96.4378 111.431C95.9458 111.553 95.4264 111.667 94.903 111.787L94.8796 111.796ZM56.4742 110.923C55.9587 110.778 55.4471 110.63 54.9394 110.476L55.3651 109.562C55.861 109.71 56.3648 109.855 56.8686 109.997L56.4742 110.923ZM98.7772 110.8L98.3866 109.877C98.8865 109.732 99.3864 109.584 99.8824 109.433L100.316 110.347C99.8004 110.495 99.3083 110.646 98.7772 110.794V110.8ZM52.6625 109.748C52.1626 109.581 51.6628 109.404 51.1707 109.225L51.6667 108.333C52.1509 108.509 52.6391 108.68 53.1351 108.847L52.6625 109.748ZM102.558 109.609L102.085 108.717C102.569 108.55 103.057 108.377 103.538 108.201L104.042 109.089C103.55 109.256 103.057 109.433 102.558 109.603V109.609ZM48.9602 108.383C48.4721 108.188 47.9878 107.986 47.5074 107.781L48.0737 106.918C48.5463 107.117 49.0188 107.315 49.4953 107.504L48.9602 108.383ZM106.236 108.229L105.69 107.356C106.162 107.161 106.635 106.965 107.1 106.76L107.674 107.624C107.197 107.822 106.728 108.024 106.236 108.223V108.229ZM45.3712 106.827C44.8987 106.606 44.4339 106.382 43.9692 106.152L44.6018 105.317C45.0588 105.544 45.5157 105.761 45.9765 105.979L45.3712 106.827ZM109.81 106.66L109.197 105.815C109.654 105.598 110.111 105.377 110.56 105.15L111.2 105.982C110.728 106.196 110.267 106.436 109.798 106.656L109.81 106.66ZM41.9228 105.084C41.4736 104.841 41.0245 104.592 40.5793 104.343L41.2784 103.543C41.7158 103.789 42.1532 104.031 42.5984 104.271L41.9228 105.084ZM113.243 104.904L112.567 104.094C113.004 103.855 113.442 103.609 113.875 103.36L114.578 104.157C114.13 104.416 113.681 104.666 113.231 104.907L113.243 104.904ZM38.611 103.177C38.1775 102.913 37.7518 102.645 37.33 102.371L38.0877 101.605C38.5017 101.876 38.9234 102.141 39.3452 102.399L38.611 103.177ZM116.535 102.985L115.793 102.21C116.215 101.948 116.633 101.684 117.043 101.413L117.824 102.172C117.378 102.453 116.953 102.73 116.523 102.988L116.535 102.985ZM35.4555 101.094C35.0649 100.808 34.6392 100.518 34.2409 100.222L35.0571 99.5C35.4477 99.7899 35.8382 100.073 36.2522 100.354L35.4555 101.094ZM119.671 100.89L118.87 100.155C119.261 99.8718 119.651 99.585 120.042 99.2951L120.866 100.014C120.471 100.326 120.069 100.619 119.659 100.905L119.671 100.89ZM32.4561 98.8855C32.0656 98.5703 31.6751 98.2552 31.3119 97.9401L32.1867 97.2594C32.5538 97.5745 32.9287 97.8739 33.3075 98.1733L32.4561 98.8855ZM122.627 98.6649L121.772 97.9716C122.163 97.6565 122.522 97.3634 122.889 97.0546L123.768 97.729C123.393 98.0441 123.014 98.3561 122.627 98.6649ZM29.6521 96.5094C29.2889 96.1943 28.9335 95.8571 28.582 95.5231L29.5076 94.8928C29.8513 95.208 30.2027 95.542 30.5542 95.8603L29.6521 96.5094ZM125.416 96.2794L124.51 95.6302C124.861 95.3088 125.209 94.9842 125.552 94.6565L126.478 95.2867C126.13 95.6208 125.775 95.9517 125.416 96.2794ZM27.0589 94.001C26.7231 93.6575 26.395 93.3109 26.0709 92.9611L27.0394 92.375C27.3596 92.7195 27.6838 93.0599 28.0118 93.396L27.0589 94.001ZM128.032 93.7552L127.075 93.1534C127.404 92.813 127.724 92.4727 128.04 92.1261L129.016 92.7059C128.673 93.0588 128.349 93.4086 128.013 93.7552H128.032ZM24.6298 91.3634C24.3213 91.0042 24.0205 90.6418 23.7237 90.2763L24.7391 89.7406C25.0281 90.0998 25.3249 90.4559 25.6257 90.8088L24.6298 91.3634ZM130.411 91.0987L129.407 90.5504C129.708 90.1943 130.001 89.8351 130.29 89.4759L131.309 90.0053C131.016 90.374 130.715 90.7553 130.411 91.0987ZM22.4272 88.6093C22.1499 88.2374 21.8765 87.8593 21.6109 87.478L22.6654 86.9958C22.927 87.3677 23.1965 87.7395 23.4699 88.1082L22.4272 88.6093ZM132.594 88.3288L131.547 87.8309C131.82 87.4591 132.086 87.0872 132.328 86.7122L133.39 87.1881C133.141 87.5725 132.867 87.9507 132.594 88.3288ZM20.451 85.7511C20.205 85.3635 19.9629 84.9727 19.7246 84.582L20.8181 84.1534C21.0486 84.5379 21.2868 84.9223 21.5289 85.3005L20.451 85.7511ZM134.554 85.436L133.472 84.9916C133.715 84.6103 133.949 84.2227 134.179 83.8351L135.273 84.2574C135.042 84.6639 134.8 85.0578 134.554 85.4486V85.436ZM18.7053 82.7984C18.4866 82.3982 18.2757 81.998 18.0727 81.5946L19.1935 81.2228C19.3966 81.6198 19.6036 82.0137 19.8145 82.4045L18.7053 82.7984ZM136.284 82.4833L135.171 82.0988C135.382 81.7017 135.585 81.3047 135.784 80.9045L136.913 81.27C136.71 81.6639 136.499 82.0704 136.284 82.4706V82.4833ZM17.19 79.7574C17.0065 79.3478 16.8268 78.935 16.655 78.519L17.8032 78.2039C17.975 78.6104 18.1508 79.0169 18.3304 79.4202L17.19 79.7574ZM137.776 79.4108L136.636 79.0957C136.815 78.6892 136.987 78.2827 137.155 77.873L138.307 78.1881C138.135 78.582 137.971 78.998 137.776 79.4108ZM15.9286 76.6409C15.7763 76.2217 15.6279 75.8026 15.4912 75.3804L16.6628 75.1283C16.7995 75.5442 16.944 75.957 17.0924 76.3699L15.9286 76.6409ZM139.03 76.2816L137.858 76.0138C138.007 75.6009 138.147 75.1881 138.28 74.7722L139.452 75.0148C139.315 75.4402 139.17 75.8625 139.022 76.2816H139.03ZM14.9015 73.4676C14.7804 73.039 14.6672 72.6136 14.5617 72.1819L15.7333 71.9928C15.8388 72.4119 15.9481 72.8342 16.0653 73.2533L14.9015 73.4676ZM140.014 73.1083L138.842 72.9003C138.956 72.4812 139.061 72.059 139.163 71.6398L140.354 71.8258C140.244 72.248 140.131 72.6755 140.014 73.1083ZM14.1321 70.2438C14.0462 69.8153 13.9681 69.3804 13.8939 68.9455L15.0968 68.8163C15.1671 69.2417 15.2452 69.6672 15.3272 70.0768L14.1321 70.2438ZM140.756 69.8751L139.553 69.727C139.635 69.3048 139.709 68.8794 139.776 68.4665L140.979 68.5894C140.912 69.0117 140.834 69.4434 140.756 69.8751ZM13.6166 66.9918C13.5659 66.5569 13.5229 66.1189 13.4839 65.684L14.6945 65.6147C14.7297 66.0432 14.7765 66.4718 14.8234 66.8972L13.6166 66.9918ZM141.236 66.6199L140.03 66.5317C140.076 66.1063 140.116 65.6777 140.151 65.2491L141.361 65.309C141.326 65.747 141.287 66.1756 141.236 66.6199ZM13.3589 63.7176C13.3589 63.2828 13.3315 62.8447 13.3276 62.4067L14.5617 62.3941C14.5617 62.8227 14.5617 63.2512 14.593 63.6798L13.3589 63.7176ZM141.486 63.3395L140.272 63.3143C140.272 62.8857 140.295 62.4571 140.295 62.0254V61.934H141.486V62.0254C141.486 62.4697 141.486 62.9078 141.486 63.3395ZM14.5617 60.4687L13.3472 60.4372C13.3667 59.9992 13.3901 59.5643 13.4175 59.1263L14.6281 59.183C14.6086 59.6084 14.5852 60.037 14.5617 60.4687ZM140.217 60.0118C140.217 59.5832 140.17 59.1515 140.135 58.7261L141.346 58.663C141.381 59.0979 141.408 59.5359 141.428 59.9739L140.217 60.0118ZM14.8156 57.2544L13.6088 57.163C13.6596 56.7282 13.7143 56.2933 13.7807 55.8584L14.9835 55.975C14.921 56.4067 14.8624 56.8259 14.8156 57.2544ZM139.944 56.8006C139.889 56.3721 139.83 55.9467 139.76 55.5212L140.963 55.3984C141.033 55.829 141.096 56.2639 141.15 56.703L139.944 56.8006ZM15.3116 54.0622L14.1126 53.911C14.1985 53.4761 14.2884 53.0475 14.386 52.6158L15.581 52.7923C15.4834 53.2145 15.3936 53.6368 15.3116 54.0622ZM139.413 53.6116C139.323 53.1893 139.229 52.7639 139.127 52.3511L140.319 52.1652C140.424 52.5937 140.518 53.0255 140.608 53.4572L139.413 53.6116ZM16.0575 50.9015L14.8859 50.6872C15.003 50.2671 15.1332 49.8469 15.2764 49.4268L16.448 49.6631C16.2957 50.0633 16.1747 50.4824 16.0575 50.9015ZM138.631 50.4572C138.51 50.0381 138.382 49.6221 138.241 49.1967L139.413 48.9509C139.549 49.3732 139.678 49.7986 139.803 50.2114L138.631 50.4572ZM17.0534 47.785L15.8817 47.5108C16.0341 47.0885 16.1903 46.6726 16.3582 46.2503L17.5298 46.5465C17.358 46.953 17.2018 47.3721 17.0534 47.785ZM137.6 47.3469C137.444 46.9373 137.284 46.5276 137.12 46.1211L138.272 45.806C138.44 46.2219 138.604 46.6379 138.76 47.0665L137.6 47.3469ZM18.2953 44.7219L17.1549 44.3879C17.3424 43.9751 17.5454 43.5623 17.7329 43.1558L18.8576 43.5119C18.6663 43.9121 18.4671 44.3154 18.2953 44.7219ZM136.327 44.2965C136.14 43.8963 135.937 43.4961 135.749 43.0959L136.874 42.7335C137.077 43.1369 137.265 43.5465 137.46 43.9562L136.327 44.2965ZM19.7793 41.7251L18.6702 41.3344C18.885 40.931 19.1115 40.5308 19.3419 40.1337L20.4393 40.5497C20.2128 40.9373 19.9941 41.3312 19.7793 41.7251ZM134.816 41.3249C134.597 40.9342 134.375 40.5466 134.148 40.159L135.242 39.7367C135.472 40.1306 135.702 40.5276 135.921 40.9247L134.816 41.3249ZM21.4977 38.8039L20.4198 38.3659C20.6697 37.9751 20.9236 37.5875 21.2009 37.2031L22.2631 37.6726C21.9819 38.0508 21.7398 38.4447 21.4977 38.8134V38.8039ZM133.074 38.4447C132.828 38.0665 132.574 37.6884 132.316 37.3165L133.375 36.8375C133.637 37.2188 133.894 37.6033 134.156 37.9877L133.074 38.4447ZM23.4386 35.9962L22.3998 35.492C22.681 35.117 22.9661 34.7451 23.2551 34.3733L24.2783 34.8995C23.9932 35.2619 23.7159 35.6275 23.4386 35.9962ZM131.11 35.6464C130.832 35.2777 130.551 34.9153 130.262 34.556L131.282 34.0266C131.574 34.3922 131.863 34.7609 132.145 35.1359L131.11 35.6464ZM25.6022 33.2861L24.6024 32.7315C24.911 32.3691 25.2234 32.013 25.5436 31.6601L26.5239 32.2336C26.2115 32.5802 25.8873 32.9332 25.6022 33.2861ZM128.927 32.971C128.622 32.6212 128.313 32.2714 127.997 31.9279L128.973 31.3449C129.294 31.6979 129.61 32.0508 129.923 32.4101L128.927 32.971ZM27.9689 30.6926L27.016 30.0876C27.3518 29.7441 27.6916 29.4038 28.0392 29.0666L28.9726 29.6968C28.6211 30.0214 28.2969 30.3554 27.9689 30.6926ZM126.54 30.3775C126.208 30.0403 125.873 29.7094 125.529 29.3817L126.458 28.7515C126.806 29.0855 127.15 29.4227 127.486 29.7662L126.54 30.3775ZM30.5347 28.2252L29.6287 27.5729C29.9919 27.2578 30.359 26.9237 30.73 26.6055L31.6126 27.2767C31.2494 27.5887 30.8862 27.9069 30.5347 28.2252ZM123.955 27.9353C123.596 27.6202 123.233 27.305 122.865 26.9899L123.744 26.3124C124.135 26.6275 124.486 26.9427 124.853 27.2578L123.955 27.9353ZM33.2841 25.8964L32.4327 25.2095C32.8232 24.8943 33.2138 24.5981 33.6043 24.2988L34.4323 25.0141C34.0495 25.2977 33.6629 25.5939 33.2841 25.8964ZM121.178 25.6223C120.788 25.3072 120.397 25.0267 120.007 24.7368L120.827 24.0183C121.217 24.3145 121.608 24.6139 121.998 24.9196L121.178 25.6223ZM36.2131 23.7126L35.432 22.9721C35.8226 22.6853 36.2561 22.4017 36.6739 22.1244L37.455 22.8807C37.0332 23.1517 36.6193 23.429 36.2131 23.7126ZM118.226 23.4542C117.835 23.1738 117.414 22.8996 117 22.6286L117.781 21.8692C118.202 22.1465 118.62 22.4269 119.03 22.7105L118.226 23.4542ZM39.3023 21.6801L38.5681 20.9017C38.9976 20.637 39.4311 20.3755 39.8724 20.1202L40.5832 20.9143C40.1536 21.1633 39.724 21.428 39.3023 21.6801ZM115.117 21.428C114.692 21.1696 114.262 20.9175 113.828 20.6654L114.539 19.8839C114.979 20.136 115.417 20.3944 115.851 20.6591L115.117 21.428ZM42.5476 19.8114L41.872 18.9984C42.3211 18.7557 42.778 18.5162 43.235 18.283L43.8833 19.1118C43.4341 19.3387 42.9889 19.5751 42.5476 19.8114ZM111.848 19.5877C111.403 19.3545 110.954 19.1213 110.505 18.8944L111.142 18.0625C111.602 18.2956 112.059 18.5288 112.516 18.7715L111.848 19.5877ZM45.9258 18.1129L45.3165 17.2652C45.7852 17.0551 46.2577 16.845 46.7342 16.6349L47.3122 17.4952C46.8474 17.6875 46.3866 17.8986 45.9258 18.1129ZM108.443 17.908C107.978 17.6938 107.513 17.4858 107.045 17.2778L107.615 16.4144C108.095 16.6223 108.572 16.8335 109.04 17.0446L108.443 17.908ZM49.4328 16.5908L48.8899 15.7148C49.3742 15.5194 49.8624 15.3335 50.3506 15.1476L50.8817 16.0331C50.3818 16.2158 49.9053 16.4018 49.4328 16.5908ZM104.889 16.4018C104.409 16.2158 103.928 16.0299 103.444 15.8534L103.944 14.9616C104.44 15.1444 104.932 15.3303 105.42 15.5226L104.889 16.4018ZM53.0257 15.2547L52.5571 14.3503C53.0531 14.1833 53.5569 14.0352 54.0607 13.8587L54.502 14.7726C54.0203 14.9259 53.5347 15.0866 53.0453 15.2547H53.0257ZM101.261 15.0845C100.769 14.9207 100.273 14.7694 99.773 14.6087L100.203 13.6948C100.714 13.8492 101.218 14.01 101.722 14.177L101.261 15.0845ZM56.7632 14.1013L56.3726 13.178C56.8803 13.0331 57.3958 12.8976 57.9153 12.7621L58.2824 13.7074C57.7708 13.8272 57.267 13.9627 56.7632 14.1013ZM97.5157 13.9532C97.008 13.8177 96.5003 13.6854 95.9887 13.5562L96.348 12.6108C96.8674 12.74 97.3868 12.8755 97.9102 13.0142L97.5157 13.9532ZM60.5709 13.1434L60.2468 12.198C60.7701 12.0814 61.2934 11.968 61.8089 11.864L62.1018 12.8093C61.598 12.9196 61.0825 13.0299 60.5709 13.1434ZM93.6885 13.0236C93.1769 12.9133 92.6613 12.8062 92.1263 12.7085L92.4075 11.7631C92.9347 11.8671 93.462 11.9743 93.9697 12.0783L93.6885 13.0236ZM64.4489 12.3934L64.199 11.448C64.7301 11.3598 65.2613 11.2747 65.7963 11.1959L66.015 12.1413C65.4878 12.2138 64.9684 12.2894 64.4489 12.3839V12.3934ZM89.8065 12.2988C89.2858 12.2169 88.7651 12.1381 88.2444 12.0625L88.4553 11.1171C88.9864 11.1896 89.5214 11.2715 90.0526 11.3566L89.8065 12.2988ZM68.3738 11.8325L68.202 10.865C68.737 10.802 69.276 10.7453 69.8149 10.6949L69.9555 11.6654C69.4283 11.7064 68.9011 11.7631 68.3738 11.823V11.8325ZM85.8738 11.7694C85.3466 11.7127 84.8194 11.6623 84.2882 11.615L84.421 10.6413C84.96 10.6886 85.4989 10.7421 86.0339 10.7988L85.8738 11.7694ZM72.3378 11.4764L72.2441 10.5026C72.783 10.468 73.322 10.4365 73.8648 10.4144L73.9312 11.3913C73.4053 11.406 72.8741 11.4312 72.3378 11.4669V11.4764ZM81.906 11.4417C81.3852 11.4123 80.8541 11.3871 80.3126 11.3661L80.3672 10.3892C80.9101 10.4112 81.4529 10.4365 81.9919 10.4648L81.906 11.4417ZM76.3252 11.322L76.3017 10.3419H77.407H77.9303V11.322H77.4187C77.0477 11.303 76.6845 11.3062 76.3252 11.3125V11.322Z" fill="#5B65D7"/>
<path d="M99.5348 42.5413C99.6272 42.2008 99.673 41.8531 99.6715 41.5045C99.6726 41.1549 99.6268 40.8063 99.5348 40.4646L102.042 38.4447L101.062 37.0739L97.6368 37.805C97.3101 37.5691 96.9542 37.3611 96.5745 37.1842C96.203 37.0105 95.8104 36.8679 95.4029 36.7588L94.4695 33.9983H92.5169L91.5874 36.7588C91.1799 36.8679 90.7873 37.0105 90.4158 37.1842C90.0421 37.3573 89.6925 37.5623 89.373 37.7955L85.9441 37.0644L84.9482 38.4447L87.4438 40.4709C87.355 40.8129 87.3105 41.1614 87.311 41.5108C87.3101 41.8592 87.3546 42.2067 87.4438 42.5476L84.9482 44.5802L85.9285 45.9509L89.3574 45.2167C89.9998 45.6866 90.7586 46.0411 91.5835 46.2566L92.513 49.0139H94.4656L95.399 46.2566C95.8065 46.1475 96.1991 46.0049 96.5706 45.8312C96.9435 45.6544 97.294 45.4486 97.6173 45.2167L101.042 45.9509L102.023 44.5802L99.5348 42.5413ZM95.5435 44.3785C94.7593 44.7433 93.8479 44.8892 92.9505 44.7935C92.0531 44.6978 91.2199 44.3659 90.5801 43.8492C89.9403 43.3324 89.5297 42.6598 89.4119 41.9356C89.2941 41.2114 89.4758 40.4761 89.9287 39.8437C90.3816 39.2112 91.0804 38.7171 91.9168 38.4378C92.7532 38.1585 93.6805 38.1097 94.5548 38.2989C95.4291 38.4882 96.2016 38.9049 96.7525 39.4845C97.3033 40.0641 97.6018 40.7741 97.6016 41.5045C97.5987 42.0855 97.4071 42.6556 97.046 43.1582C96.6849 43.6608 96.1668 44.0783 95.5435 44.369V44.3785Z" fill="#8A8A8A"/>
<path d="M104.448 87.8372C105.612 87.6884 106.745 87.4061 107.81 86.999C107.861 86.5114 107.861 86.0212 107.81 85.5336C106.745 85.125 105.613 84.8416 104.448 84.6923C104.348 84.349 104.217 84.012 104.057 83.6839C103.887 83.3573 103.687 83.0413 103.46 82.7385C104.153 81.966 104.706 81.117 105.1 80.2175C104.708 79.8444 104.279 79.4986 103.815 79.1839C102.7 79.501 101.648 79.9468 100.691 80.5074C100.315 80.3239 99.9232 80.1618 99.5191 80.0221C99.1122 79.8936 98.6946 79.7883 98.2694 79.707C98.083 78.7673 97.7319 77.8537 97.2267 76.9938C96.6223 76.9544 96.015 76.9544 95.4107 76.9938C94.9065 77.8551 94.5554 78.7696 94.368 79.7102C93.9432 79.7929 93.5257 79.8981 93.1182 80.0253C92.7139 80.1643 92.3223 80.3265 91.9466 80.5106C90.9889 79.9512 89.9368 79.5055 88.8223 79.187C88.3596 79.5037 87.9299 79.8504 87.5375 80.2238C87.9313 81.1233 88.4838 81.9724 89.1777 82.7448C88.95 83.0476 88.7503 83.3636 88.5802 83.6902C88.4186 84.0178 88.288 84.3549 88.1897 84.6986C87.0239 84.8478 85.8905 85.13 84.8232 85.5368C84.7744 86.0244 84.7744 86.5145 84.8232 87.0021C85.8885 87.4108 87.0208 87.6941 88.1858 87.8435C88.3909 88.5333 88.7297 89.1926 89.1894 89.7973C88.495 90.5694 87.9425 91.4185 87.5492 92.3183C87.9416 92.6916 88.3713 93.0384 88.834 93.355C89.9494 93.0368 91.0018 92.59 91.9583 92.0283C92.334 92.2124 92.7256 92.3746 93.13 92.5136C93.5369 92.6422 93.9545 92.7475 94.3797 92.8288C94.5647 93.7683 94.9145 94.6819 95.4185 95.542C96.0241 95.5829 96.6328 95.5829 97.2384 95.542C97.7431 94.6816 98.0955 93.7683 98.285 92.8288C98.7087 92.7466 99.1249 92.6413 99.5309 92.5136C99.9348 92.3751 100.326 92.214 100.702 92.0315C101.66 92.5899 102.712 93.0345 103.827 93.3519C104.292 93.0377 104.722 92.6907 105.112 92.3151C104.716 91.4161 104.164 90.5673 103.471 89.7941C103.699 89.4913 103.899 89.1753 104.069 88.8487C104.227 88.52 104.354 88.1818 104.448 87.8372ZM98.3944 90.3046C97.2358 90.692 95.9465 90.7432 94.7464 90.4495C93.5462 90.1558 92.5094 89.5354 91.8125 88.694C91.1157 87.8526 90.802 86.8423 90.9249 85.8352C91.0478 84.8281 91.5997 83.8865 92.4865 83.171C93.3733 82.4554 94.5402 82.0101 95.7883 81.9109C97.0364 81.8118 98.2885 82.0649 99.3313 82.6271C100.374 83.1894 101.143 84.026 101.507 84.9944C101.871 85.9629 101.807 87.0031 101.327 87.938C100.777 89.0093 99.722 89.8604 98.3944 90.3046Z" fill="#8A8A8A"/>
<path d="M126.689 61.6533H126.404V59.8256C126.404 58.9197 125.958 58.0508 125.164 57.4102C124.37 56.7696 123.293 56.4097 122.17 56.4097C121.047 56.4097 119.971 56.7696 119.177 57.4102C118.383 58.0508 117.937 58.9197 117.937 59.8256V61.6533H117.73C117.598 61.6533 117.467 61.6744 117.345 61.7153C117.223 61.7562 117.112 61.8161 117.019 61.8916C116.925 61.9672 116.852 62.0568 116.801 62.1555C116.751 62.2541 116.726 62.3597 116.726 62.4664V68.2111C116.726 68.3177 116.751 68.4233 116.801 68.5219C116.852 68.6206 116.925 68.7102 117.019 68.7858C117.112 68.8613 117.223 68.9212 117.345 68.9621C117.467 69.003 117.598 69.0241 117.73 69.0241H126.689C126.956 69.0241 127.213 68.9385 127.403 68.7861C127.592 68.6338 127.699 68.427 127.7 68.2111V62.4664C127.699 62.2504 127.592 62.0437 127.403 61.8913C127.213 61.7389 126.956 61.6533 126.689 61.6533ZM119.444 59.8256C119.507 59.2783 119.821 58.7696 120.325 58.3993C120.828 58.029 121.485 57.8237 122.166 57.8237C122.848 57.8237 123.504 58.029 124.008 58.3993C124.511 58.7696 124.825 59.2783 124.888 59.8256V61.6533H119.444V59.8256ZM123.166 67.4359H121.252L121.604 65.8035C121.443 65.7015 121.326 65.5618 121.269 65.4036C121.211 65.2455 121.216 65.0768 121.282 64.9209C121.349 64.7651 121.474 64.6298 121.64 64.5339C121.806 64.4379 122.005 64.386 122.209 64.3855C122.415 64.3841 122.615 64.4349 122.783 64.5306C122.951 64.6263 123.077 64.7621 123.144 64.9188C123.211 65.0755 123.215 65.2453 123.156 65.404C123.097 65.5627 122.977 65.7025 122.815 65.8035L123.166 67.4359Z" fill="#8A8A8A"/>
<path d="M60.1066 39.1093C64.0549 39.1093 66.5621 41.2584 66.5621 44.3498C66.5621 47.0724 64.3751 48.4464 62.5201 48.4464C61.4461 48.4464 60.6143 48.0525 60.4502 47.2899H60.4073C60.1449 47.5873 59.8046 47.8345 59.4103 48.0137C59.0161 48.1929 58.5778 48.2997 58.1265 48.3266C56.7518 48.3266 55.7482 47.4884 55.7482 46.1019C55.7482 44.3655 57.2752 42.4622 59.4661 42.4622C59.7756 42.4549 60.0808 42.522 60.3429 42.655C60.6051 42.788 60.8124 42.9808 60.9384 43.209H60.9775L61.2235 42.5788H62.5982L61.7898 45.793C61.4656 46.8266 61.7898 47.3308 62.731 47.3308C63.9026 47.3308 65.1289 46.2027 65.1289 44.3907C65.1289 42.0746 63.5042 40.187 59.9386 40.187C56.6347 40.187 53.4245 42.4559 53.4245 45.9443C53.4245 48.9443 55.92 50.4978 58.9935 50.4978C60.0303 50.4849 61.0477 50.2686 61.9577 49.8676L62.4654 50.8413C61.3562 51.3518 60.0986 51.615 58.8217 51.6039C55.0882 51.6039 51.917 49.7132 51.917 45.9979C51.917 41.854 55.6701 39.1093 60.1066 39.1093ZM58.5796 47.1953C59.0287 47.1953 59.5051 46.9684 60.0714 46.4044L60.5596 44.167C60.4655 44.0091 60.319 43.8754 60.1362 43.7808C59.9535 43.6862 59.7417 43.6344 59.5247 43.6313C58.2203 43.6313 57.4275 44.9895 57.4275 46.0073C57.4275 46.8298 57.8805 47.1953 58.5796 47.1953Z" fill="#8A8A8A"/>
<path d="M61.5279 85.4135H33.499V55.4169H61.5279V85.4135ZM34.6277 84.4997H60.4031V56.3307H34.6277V84.4997Z" fill="#DBDBDB"/>
<path d="M42.7077 58.238H37.1035V58.7801H42.7077V58.238Z" fill="#DBDBDB"/>
<path d="M42.7077 59.3188H37.1035V59.8609H42.7077V59.3188Z" fill="#DBDBDB"/>
<path d="M57.9113 63.6483H37.1035V64.1903H57.9113V63.6483Z" fill="#DBDBDB"/>
<path d="M57.9113 65.2744H37.1035V65.8164H57.9113V65.2744Z" fill="#DBDBDB"/>
<path d="M41.0714 66.8977H37.1035V67.4397H41.0714V66.8977Z" fill="#DBDBDB"/>
<path d="M57.9113 68.5201H37.1035V69.0622H57.9113V68.5201Z" fill="#DBDBDB"/>
<path d="M57.9113 70.1431H37.1035V70.6851H57.9113V70.1431Z" fill="#DBDBDB"/>
<path d="M52.1978 71.7695H37.1035V72.3115H52.1978V71.7695Z" fill="#DBDBDB"/>
<path d="M57.9113 73.392H37.1035V73.934H57.9113V73.392Z" fill="#DBDBDB"/>
<path d="M57.9113 75.0149H37.1035V75.5569H57.9113V75.0149Z" fill="#DBDBDB"/>
<path d="M57.9113 76.6373H37.1035V77.1793H57.9113V76.6373Z" fill="#DBDBDB"/>
<path d="M45.0392 78.2635H37.1035V78.8056H45.0392V78.2635Z" fill="#DBDBDB"/>
<path d="M57.9113 62.0249H37.1035V62.5669H57.9113V62.0249Z" fill="#DBDBDB"/>
<path d="M57.9115 80.9707H52.8657V81.5127H57.9115V80.9707Z" fill="#DBDBDB"/>
<path d="M57.9115 82.0516H52.8657V82.5936H57.9115V82.0516Z" fill="#DBDBDB"/>
<path d="M82.8197 93.5094L79.3596 91.8992V92.813H73.7163V94.209H79.3596V95.1229L82.8197 93.5094Z" fill="#A6A6A6"/>
<path d="M70.6899 89.6393L74.1501 88.0291V88.9429H79.7934V90.3389H74.1501V91.2496L70.6899 89.6393Z" fill="#A6A6A6"/>
<path d="M77.407 106.561H76.8212V105.581H77.3953H78.4185L78.442 106.558C78.1061 106.558 77.7546 106.561 77.407 106.561ZM74.3765 106.495C73.8336 106.47 73.2908 106.442 72.7518 106.404L72.8495 105.43C73.3806 105.465 73.9117 105.493 74.4428 105.518L74.3765 106.495ZM80.8984 106.473L80.8203 105.496C81.3554 105.468 81.8865 105.436 82.4137 105.396L82.5231 106.372C81.9841 106.413 81.4413 106.445 80.8984 106.473ZM70.3188 106.196C69.7759 106.142 69.237 106.079 68.702 106.01L68.8933 105.043C69.4166 105.112 69.9439 105.172 70.4555 105.225L70.3188 106.196ZM84.9522 106.149L84.7882 105.178C85.3193 105.121 85.8426 105.055 86.3503 104.986L86.5534 105.95C86.0301 106.022 85.4964 106.088 84.9522 106.149ZM66.2962 105.657C65.7599 105.569 65.2288 105.474 64.7029 105.373L64.9801 104.428C65.4956 104.526 66.0151 104.62 66.5423 104.705L66.2962 105.657ZM88.9708 105.581L88.717 104.636C89.2403 104.548 89.7558 104.45 90.2791 104.349L90.5681 105.295C90.0331 105.392 89.502 105.49 88.9708 105.581ZM62.3323 104.879C61.809 104.759 61.2896 104.633 60.7701 104.501L61.1372 103.555C61.641 103.684 62.1526 103.807 62.6642 103.924L62.3323 104.879ZM92.9231 104.775L92.5833 103.829C93.104 103.71 93.6117 103.584 94.1064 103.451L94.4969 104.381C93.971 104.522 93.4464 104.653 92.9231 104.775ZM58.4504 103.864C57.9348 103.713 57.4271 103.549 56.9194 103.391L57.3725 102.484C57.8645 102.641 58.3644 102.799 58.8643 102.944L58.4504 103.864ZM96.7933 103.735L96.3676 102.818C96.8636 102.67 97.3596 102.503 97.8516 102.348L98.3125 103.256C97.8087 103.42 97.301 103.58 96.7933 103.735ZM54.666 102.616C54.1662 102.433 53.6741 102.247 53.1859 102.055L53.717 101.176C54.1974 101.362 54.6778 101.548 55.1659 101.724L54.666 102.616ZM100.55 102.468L100.039 101.579C100.523 101.4 100.999 101.214 101.472 101.025L102.015 101.898C101.531 102.099 101.042 102.285 100.55 102.468ZM51.0106 101.154C50.5303 100.943 50.0577 100.729 49.5852 100.505L50.1983 99.6603C50.6591 99.8777 51.12 100.089 51.5886 100.291L51.0106 101.154ZM104.174 100.99L103.589 100.133C104.053 99.925 104.51 99.7138 104.967 99.5027L105.588 100.344C105.12 100.549 104.651 100.77 104.174 100.981V100.99ZM47.4997 99.4712C47.0428 99.2317 46.5897 98.989 46.1406 98.7401L46.828 97.9334C47.2693 98.176 47.7106 98.4155 48.1597 98.6487L47.4997 99.4712ZM107.642 99.2884L106.979 98.4722C107.424 98.2359 107.861 97.9964 108.299 97.7506L108.99 98.551C108.56 98.7968 108.116 99.0395 107.658 99.279L107.642 99.2884ZM44.1411 97.5836C43.7076 97.3189 43.278 97.0479 42.8523 96.7737L43.6334 96.0111C44.0473 96.279 44.4652 96.5437 44.8909 96.8021L44.1411 97.5836ZM110.962 97.3851L110.243 96.6004C110.665 96.3389 111.083 96.071 111.493 95.8L112.274 96.5594C111.837 96.8368 111.415 97.1109 110.978 97.3725L110.962 97.3851ZM40.9777 95.4943C40.5872 95.2044 40.1654 94.9082 39.771 94.6088L40.5989 93.8935C40.9894 94.1866 41.38 94.4733 41.7705 94.7569L40.9777 95.4943ZM114.102 95.28L113.309 94.5363C113.7 94.2496 114.09 93.9597 114.481 93.6666L115.316 94.3788C114.93 94.6908 114.539 94.987 114.118 95.28H114.102ZM38.0331 93.2317C37.6425 92.9166 37.2793 92.6015 36.9083 92.2864L37.7948 91.6214C38.158 91.9366 38.5251 92.2517 38.9001 92.5511L38.0331 93.2317ZM117.058 93.0017L116.187 92.3305C116.558 92.0154 116.922 91.7002 117.281 91.3851L118.175 92.0469C117.808 92.3683 117.437 92.6866 117.058 93.0017ZM35.2837 90.7958C34.9322 90.4618 34.5885 90.1246 34.2488 89.7811L35.1978 89.1792C35.5297 89.5133 35.8656 89.8473 36.2093 90.1719L35.2837 90.7958ZM119.784 90.55L118.855 89.9198C119.194 89.5889 119.53 89.2549 119.858 88.9177L120.815 89.5227C120.475 89.8788 120.136 90.2191 119.784 90.5563V90.55ZM32.7686 88.2339C32.4484 87.8809 32.136 87.5217 31.8274 87.1593L32.8272 86.6078C33.1279 86.9608 33.4364 87.3106 33.7489 87.6572L32.7686 88.2339ZM122.284 87.9692L121.299 87.3988C121.608 87.049 121.913 86.6961 122.209 86.34L123.217 86.8883C122.912 87.2349 122.6 87.6036 122.284 87.9534V87.9692ZM30.5074 85.508C30.2223 85.1362 29.945 84.7612 29.6717 84.383L30.7183 83.8915C30.9839 84.2602 31.2572 84.6288 31.5384 84.9912L30.5074 85.508ZM124.553 85.2244L123.522 84.6982C123.799 84.3295 124.072 83.9608 124.334 83.5889L125.388 84.0711C125.084 84.4524 124.822 84.8337 124.537 85.2087L124.553 85.2244ZM28.4805 82.6562C28.2267 82.2686 27.9845 81.8778 27.7463 81.4839L28.8359 81.0553C29.0702 81.4429 29.3085 81.8242 29.5545 82.2024L28.4805 82.6562ZM126.541 82.341L125.474 81.8873C125.716 81.506 125.951 81.1184 126.181 80.7308L127.275 81.1499C127.036 81.5501 126.783 81.9314 126.537 82.3347L126.541 82.341ZM26.7231 79.6783C26.5083 79.2749 26.3013 78.8715 26.1022 78.465L27.2269 78.1058C27.4261 78.5028 27.6174 78.8967 27.8361 79.2906L26.7231 79.6783ZM128.263 79.3631L127.142 78.9818C127.353 78.5848 127.552 78.1877 127.743 77.7844L128.876 78.1404C128.681 78.5344 128.478 78.9409 128.267 79.3474L128.263 79.3631ZM25.2469 76.6152C25.0711 76.1993 24.8993 75.7833 24.7392 75.3548L25.9108 75.0617C26.0709 75.4713 26.2349 75.881 26.4107 76.2844L25.2469 76.6152ZM129.716 76.2592L128.563 75.944C128.735 75.5375 128.899 75.1247 129.052 74.7119L130.223 74.9987C130.055 75.4272 129.887 75.8463 129.716 76.2592ZM24.0596 73.4672C23.9191 73.0449 23.7902 72.6195 23.6691 72.2067L24.8407 71.9829C24.9618 72.402 25.0907 72.818 25.2313 73.2434L24.0596 73.4672ZM130.872 73.1079L129.7 72.8653C129.829 72.4525 129.954 72.0333 130.071 71.6048L131.243 71.8191C131.133 72.2508 131.008 72.6793 130.872 73.1079ZM23.1536 70.2718C23.0521 69.8401 22.9622 69.4084 22.8763 68.9735L24.0753 68.8222C24.1573 69.2476 24.2471 69.6699 24.3447 70.0827L23.1536 70.2718ZM131.723 69.9L130.551 69.7298C130.645 69.3075 130.727 68.8853 130.805 68.4693L132.008 68.6143C131.918 69.0113 131.832 69.4556 131.723 69.8873V69.9ZM22.56 67.004C22.5014 66.5691 22.4506 66.1311 22.4038 65.6931L23.6144 65.6143C23.6574 66.0428 23.7082 66.4714 23.7667 66.8968L22.56 67.004ZM132.301 66.629L131.094 66.5281C131.149 66.1027 131.196 65.6773 131.235 65.2487L132.445 65.3181C132.406 65.7561 132.36 66.1941 132.301 66.629ZM22.2593 63.7235C22.2397 63.2887 22.228 62.8475 22.2241 62.4095H23.4348C23.4348 62.8412 23.4543 63.2697 23.4738 63.6952L22.2593 63.7235ZM132.57 63.3391L131.356 63.3107C131.356 62.8821 131.379 62.4536 131.379 62.0219V61.9179H132.594V62.0219C132.594 62.4725 132.586 62.9105 132.57 63.3391ZM23.4699 60.4714L22.2554 60.4368C22.2736 59.9956 22.3009 59.5576 22.3374 59.1227L23.548 59.1826C23.5129 59.6112 23.4856 60.0397 23.4699 60.4714ZM131.332 59.9988C131.309 59.566 131.278 59.1374 131.239 58.7131L132.445 58.6374C132.488 59.0754 132.52 59.5135 132.547 59.9515L131.332 59.9988ZM23.755 57.2603L22.5483 57.1563C22.6068 56.7183 22.6732 56.2834 22.7474 55.8486L23.9503 55.9841C23.88 56.4063 23.8136 56.8318 23.755 57.2603ZM130.993 56.7908C130.93 56.3622 130.86 55.9368 130.778 55.5145L131.981 55.3696C132.059 55.8013 132.133 56.2362 132.195 56.6742L130.993 56.7908ZM24.3252 54.0776L23.1536 53.8854C23.2551 53.4536 23.3606 53.0251 23.4738 52.5965L24.6455 52.8013C24.5322 53.233 24.4307 53.6553 24.3252 54.0776ZM130.364 53.6112C130.262 53.1921 130.153 52.7698 130.036 52.3507L131.207 52.1333C131.328 52.5618 131.442 52.9904 131.547 53.4221L130.364 53.6112ZM25.1922 50.9358L24.0206 50.6868C24.1573 50.2646 24.3057 49.8392 24.458 49.4264L25.6296 49.7037C25.4968 50.1039 25.3367 50.5198 25.2 50.9358H25.1922ZM129.466 50.4789C129.325 50.0661 129.177 49.6532 129.02 49.2436L130.192 48.9568C130.348 49.3759 130.501 49.7982 130.645 50.2173L129.466 50.4789ZM26.3638 47.857L25.2156 47.5419C25.3953 47.1259 25.5788 46.7131 25.7741 46.3003L26.9067 46.647C26.7114 47.044 26.5317 47.4505 26.356 47.857H26.3638ZM128.271 47.4127C128.091 47.0062 127.907 46.606 127.712 46.2058L128.845 45.8497C129.04 46.2594 129.235 46.669 129.415 47.0818L128.271 47.4127ZM27.7971 44.8508L26.6684 44.4632C26.8832 44.0598 27.1058 43.6564 27.3363 43.2594L28.4337 43.6722C28.2306 44.0598 28.008 44.4537 27.7971 44.8508ZM126.79 44.4316C126.576 44.0409 126.353 43.6501 126.123 43.2657L127.216 42.8434C127.45 43.2373 127.677 43.6344 127.9 44.0346L126.79 44.4316ZM29.5115 41.9359L28.4337 41.4852C28.6875 41.0945 28.9453 40.7069 29.2147 40.3256L30.2731 40.8014C30.0114 41.1764 29.7576 41.5546 29.5115 41.9359ZM125.045 41.542C124.795 41.1638 124.537 40.7888 124.264 40.417L125.314 39.9317C125.584 40.3098 125.849 40.6943 126.095 41.0819L125.045 41.542ZM31.4877 39.1376L30.4566 38.6208C30.7417 38.2458 31.0346 37.8771 31.3354 37.5115L32.3468 38.0504C32.0539 38.4096 31.7688 38.7594 31.4877 39.1376ZM123.041 38.7594C122.756 38.397 122.467 38.0409 122.17 37.6848L123.174 37.1365C123.479 37.4989 123.776 37.8676 124.065 38.2363L123.041 38.7594ZM33.6981 36.4622L32.7179 35.8855C33.0381 35.5325 33.3661 35.1796 33.6981 34.833L34.6588 35.4317C34.3425 35.772 34.0262 36.1155 33.6981 36.4622ZM120.788 36.1155C120.472 35.772 120.147 35.4317 119.819 35.0945L120.772 34.4895C121.108 34.833 121.44 35.1796 121.764 35.5325L120.788 36.1155ZM36.1741 33.9286L35.2485 33.2983C35.6 32.9643 35.9554 32.6334 36.3186 32.3057L37.2129 32.958C36.8654 33.2762 36.5178 33.6008 36.1741 33.9286ZM118.296 33.6134C117.949 33.2983 117.597 32.9832 117.238 32.6681L118.132 32.0094C118.499 32.3246 118.863 32.6586 119.218 32.9926L118.296 33.6134ZM38.861 31.5588L37.994 30.8624C38.3715 30.5515 38.7621 30.2427 39.1656 29.9359L40.0053 30.6418C39.6108 30.9412 39.232 31.2437 38.861 31.5494V31.5588ZM115.586 31.2437C115.195 30.9286 114.828 30.6418 114.442 30.3487L115.274 29.6366C115.667 29.937 116.057 30.2427 116.445 30.5536L115.586 31.2437ZM41.7744 29.3309L40.9699 28.5967C41.38 28.3067 41.79 28.0231 42.2118 27.7427L42.9929 28.4958C42.5555 28.7731 42.1532 29.0536 41.7549 29.334L41.7744 29.3309ZM112.684 29.0536C112.294 28.7731 111.872 28.4958 111.462 28.2248L112.243 27.4685C112.665 27.7427 113.079 28.0263 113.493 28.313L112.684 29.0536ZM44.8401 27.3015L44.1059 26.52C44.5394 26.2553 44.9768 25.9969 45.4181 25.7416L46.125 26.5389C45.6915 26.7847 45.2619 27.0399 44.8401 27.3015ZM109.552 27.0431C109.123 26.7878 108.693 26.5357 108.256 26.29L108.947 25.4895C109.396 25.7385 109.837 25.9969 110.275 26.2584L109.552 27.0431ZM48.1011 25.4675L47.4411 24.645C47.898 24.4087 48.3589 24.1755 48.8197 23.9486L49.4485 24.7837C48.9954 24.9948 48.5385 25.2091 48.1011 25.4549V25.4675ZM106.26 25.2091C105.811 24.979 105.358 24.7553 104.897 24.5379L105.518 23.6933C105.987 23.9202 106.451 24.1503 106.908 24.3834L106.26 25.2091ZM51.5183 23.8068L50.9364 22.9496C51.4129 22.7385 51.8932 22.5368 52.3775 22.3194L52.9282 23.1923C52.4439 23.4034 51.9831 23.6019 51.5183 23.8068ZM102.823 23.5988C102.351 23.394 101.878 23.1986 101.402 23.0064L101.941 22.1303C102.429 22.3257 102.913 22.5274 103.393 22.7322L102.823 23.5988ZM55.0761 22.373L54.5762 21.4843C55.0683 21.3015 55.5643 21.1282 56.0642 20.9581L56.5367 21.8593C56.0446 22.0232 55.5682 22.1933 55.0761 22.373ZM99.2068 22.187C98.7225 22.0137 98.2305 21.8467 97.7345 21.6828L98.1953 20.7784C98.6991 20.9423 99.199 21.1156 99.6989 21.2921L99.2068 22.187ZM58.755 21.1503L58.3371 20.2333C58.8448 20.082 59.3603 19.9371 59.8758 19.7952L60.2663 20.7249C59.7547 20.8604 59.2549 21.0022 58.755 21.1503ZM95.5084 20.9896C95.0046 20.8446 94.5008 20.7091 93.9931 20.5768L94.3837 19.6314C94.9031 19.7669 95.4186 19.9087 95.9458 20.0568L95.5084 20.9896ZM62.5471 20.1671L62.2073 19.2217C62.7306 19.102 63.254 18.9854 63.7695 18.8782L64.0663 19.8236C63.5703 19.9244 63.0548 20.0347 62.5471 20.1671ZM91.6968 20.041C91.1852 19.9276 90.6697 19.8205 90.1542 19.7259L90.4392 18.7805C90.9704 18.8845 91.4937 18.9917 92.0209 19.0957L91.6968 20.041ZM66.4173 19.4108L66.1713 18.4497C66.7024 18.3614 67.2374 18.2795 67.7725 18.2039L67.9834 19.1681C67.46 19.2217 66.9367 19.2974 66.4173 19.3856V19.4108ZM87.8148 19.3163C87.2954 19.2343 86.7721 19.1587 86.2527 19.0862L86.4519 18.1219C86.9869 18.1944 87.5258 18.27 88.057 18.3551L87.8148 19.3163ZM70.35 18.8751L70.1938 17.9045C70.7288 17.8478 71.2717 17.7974 71.8145 17.7532L71.9317 18.727C71.4045 18.7459 70.8733 18.7932 70.35 18.8499V18.8751ZM83.8782 18.8152C83.351 18.7648 82.8199 18.7207 82.2887 18.6829L82.3981 17.706C82.9409 17.7469 83.4838 17.7911 84.0188 17.8446L83.8782 18.8152ZM74.314 18.5505L74.2476 17.5736C74.7904 17.5484 75.3333 17.5327 75.8761 17.5201L75.9113 18.4969C75.3801 18.5095 74.849 18.5284 74.314 18.5505ZM79.8987 18.5253C79.3779 18.5064 78.8468 18.4938 78.3053 18.4875L78.3248 17.5074C78.8676 17.5074 79.4105 17.5295 79.9533 17.5484L79.8987 18.5253Z" fill="#F8F1F0"/>
<path d="M78.0158 13.9497H76.8013V14.602H78.0158V13.9497Z" fill="#F8F1F0"/>
<path d="M78.0124 98.8634H76.8018V97.5651H78.0124V98.8634ZM78.0124 95.6208H76.8018V94.3256H78.0124V95.6208ZM78.0124 92.3813H76.8018V91.0862H78.0124V92.3813ZM78.0124 89.1419H76.8018V87.8436H78.0124V89.1419ZM78.0124 85.8992H76.8018V84.6041H78.0124V85.8992ZM78.0124 82.6598H76.8018V81.3615H78.0124V82.6598ZM78.0124 79.4171H76.8018V78.122H78.0124V79.4171ZM78.0124 76.1777H76.8018V74.8825H78.0124V76.1777ZM78.0124 72.935H76.8018V71.6399H78.0124V72.935ZM78.0124 69.6956H76.8018V68.4004H78.0124V69.6956ZM78.0124 66.4561H76.8018V65.1578H78.0124V66.4561ZM78.0124 63.2135H76.8018V61.9183H78.0124V63.2135ZM78.0124 59.974H76.8018V58.6757H78.0124V59.974ZM78.0124 56.7314H76.8018V55.4362H78.0124V56.7314ZM78.0124 53.4919H76.8018V52.1967H78.0124V53.4919ZM78.0124 50.2524H76.8018V48.9541H78.0124V50.2524ZM78.0124 47.0098H76.8018V45.7146H78.0124V47.0098ZM78.0124 43.7703H76.8018V42.472H78.0124V43.7703ZM78.0124 40.5277H76.8018V39.2325H78.0124V40.5277ZM78.0124 37.2882H76.8018V35.9899H78.0124V37.2882ZM78.0124 34.0487H76.8018V32.7504H78.0124V34.0487ZM78.0124 30.8061H76.8018V29.511H78.0124V30.8061ZM78.0124 27.5666H76.8018V26.2683H78.0124V27.5666ZM78.0124 24.324H76.8018V23.0289H78.0124V24.324ZM78.0124 21.0845H76.8018V19.7862H78.0124V21.0845ZM78.0124 17.8419H76.8018V16.5468H78.0124V17.8419Z" fill="#F8F1F0"/>
<path d="M78.0124 101.948H76.5986V100.968H76.8017V100.808H78.0124V101.948Z" fill="#F8F1F0"/>
<path d="M74.1071 101.948H72.4434V100.968H74.1071V101.948ZM69.9518 101.948H68.292V100.968H69.9518V101.948Z" fill="#F8F1F0"/>
<path d="M65.7962 100.968H64.9878V101.948H65.7962V100.968Z" fill="#F8F1F0"/>
<path d="M88.6116 30.3114H87.8032V31.2914H88.6116V30.3114Z" fill="#F8F1F0"/>
<path d="M105.354 31.2914H103.678V30.3114H105.354V31.2914ZM101.171 31.2914H99.4957V30.3114H101.171V31.2914ZM96.9845 31.2914H95.3091V30.3114H96.9845V31.2914ZM92.798 31.2914H91.1265V30.3114H92.798V31.2914Z" fill="#F8F1F0"/>
<path d="M109.282 31.4521H108.068V31.2914H107.865V30.3114H109.282V31.4521Z" fill="#F8F1F0"/>
<path d="M109.279 57.7682H108.068V56.4509H109.279V57.7682ZM109.279 54.4783H108.068V53.161H109.279V54.4783ZM109.279 51.1884H108.068V49.8743H109.279V51.1884ZM109.279 47.8985H108.068V46.5844H109.279V47.8985ZM109.279 44.6086H108.068V43.2945H109.279V44.6086ZM109.279 41.3218H108.068V40.0204H109.279V41.3218ZM109.279 38.0319H108.068V36.7147H109.279V38.0319ZM109.279 34.742H108.068V33.428H109.279V34.742Z" fill="#F8F1F0"/>
<path d="M109.482 60.882H108.068V59.7412H109.283V59.9051H109.482V60.882Z" fill="#F8F1F0"/>
<path d="M133.757 60.8812H132.14V59.9043H133.757V60.8812ZM129.715 60.8812H128.095V59.9043H129.715V60.8812ZM125.665 60.8812H124.049V59.9043H125.665V60.8812ZM121.619 60.8812H120.006V59.9043H121.623L121.619 60.8812ZM117.573 60.8812H115.957V59.9043H117.573V60.8812ZM113.527 60.8812H111.911V59.9043H113.527V60.8812Z" fill="#F8F1F0"/>
<path d="M136.995 59.9043H136.187V60.8843H136.995V59.9043Z" fill="#F8F1F0"/>
<path d="M37.6814 38.7378H36.4668V39.3901H37.6814V38.7378Z" fill="#F8F1F0"/>
<path d="M37.6775 64.3254H36.4668V63.0649H37.6775V64.3254ZM37.6775 61.2089H36.4668V59.9484H37.6775V61.2089ZM37.6775 58.0923H36.4668V56.8318H37.6775V58.0923ZM37.6775 54.9757H36.4668V53.7152H37.6775V54.9757ZM37.6775 51.8591H36.4668V50.5986H37.6775V51.8591ZM37.6775 48.7425H36.4668V47.4821H37.6775V48.7425ZM37.6775 45.626H36.4668V44.3655H37.6775V45.626ZM37.6775 42.5094H36.4668V41.2489H37.6775V42.5094Z" fill="#F8F1F0"/>
<path d="M37.8805 67.335H36.4668V66.1942H37.6775V66.3581H37.8805V67.335Z" fill="#F8F1F0"/>
<path d="M49.0346 67.3353H47.5467V66.3584H49.0346V67.3353ZM45.3167 67.3353H43.8288V66.3584H45.3167V67.3353ZM41.5988 67.3353H40.1108V66.3584H41.5988V67.3353Z" fill="#F8F1F0"/>
<path d="M52.0731 66.3584H51.2646V67.3384H52.0731V66.3584Z" fill="#F8F1F0"/>
<path d="M120.124 41.4951H97.5936C97.2269 41.4951 96.9297 41.735 96.9297 42.0308V52.1432C96.9297 52.439 97.2269 52.6789 97.5936 52.6789H120.124C120.49 52.6789 120.788 52.439 120.788 52.1432V42.0308C120.788 41.735 120.49 41.4951 120.124 41.4951Z" fill="#FF7643"/>
<path d="M111.837 51.1537C110.84 51.1531 109.865 50.914 109.037 50.4666C108.208 50.0192 107.563 49.3836 107.181 48.6401C106.8 47.8967 106.701 47.0788 106.896 46.2899C107.091 45.5009 107.572 44.7763 108.277 44.2077C108.982 43.639 109.881 43.2519 110.858 43.0952C111.836 42.9384 112.85 43.0192 113.771 43.3272C114.692 43.6352 115.479 44.1566 116.033 44.8256C116.587 45.4945 116.882 46.281 116.882 47.0855C116.882 47.62 116.752 48.1493 116.498 48.643C116.245 49.1368 115.873 49.5855 115.404 49.9633C114.936 50.3411 114.38 50.6407 113.767 50.8449C113.155 51.0492 112.499 51.1541 111.837 51.1537ZM111.837 43.3134C110.91 43.3134 110.004 43.5352 109.233 43.9507C108.462 44.3662 107.862 44.9568 107.507 45.6478C107.152 46.3388 107.06 47.0991 107.24 47.8326C107.421 48.5662 107.868 49.24 108.523 49.7688C109.178 50.2977 110.013 50.6578 110.922 50.8037C111.832 50.9497 112.774 50.8748 113.63 50.5886C114.487 50.3023 115.218 49.8177 115.733 49.1958C116.248 48.5739 116.523 47.8428 116.523 47.0949C116.523 46.5983 116.402 46.1066 116.166 45.6478C115.931 45.189 115.586 44.7721 115.151 44.421C114.715 44.0699 114.199 43.7913 113.63 43.6013C113.062 43.4112 112.452 43.3134 111.837 43.3134Z" fill="#D7542D"/>
<path d="M111.837 45.2233C111.202 45.2236 110.569 45.174 109.946 45.0752C109.323 44.974 108.713 44.8231 108.126 44.6246L108.271 44.3504C108.835 44.5426 109.421 44.6883 110.021 44.7853C110.616 44.8804 111.222 44.9279 111.829 44.9271C112.441 44.9268 113.052 44.8783 113.653 44.7822C114.25 44.6827 114.835 44.5371 115.398 44.3473H115.43H115.469V44.4954L115.539 44.6309C114.368 45.0316 113.109 45.2374 111.837 45.2359V45.2233Z" fill="#D7542D"/>
<path d="M115.472 49.77H115.433H115.398C114.838 49.5769 114.254 49.4312 113.656 49.3351C113.057 49.2382 112.448 49.1886 111.837 49.187C111.227 49.1857 110.618 49.2343 110.021 49.3319C109.421 49.4283 108.835 49.5729 108.271 49.7636L108.13 49.4926C108.715 49.2905 109.325 49.1394 109.95 49.042C110.569 48.9409 111.198 48.8902 111.829 48.8908C112.466 48.8909 113.102 48.9427 113.727 49.0452C114.35 49.145 114.958 49.296 115.543 49.4958L115.472 49.6313V49.77Z" fill="#D7542D"/>
<path d="M111.837 51.1537C110.591 51.1537 109.224 49.0235 109.224 47.0855C109.224 45.2987 110.693 43.0172 111.837 43.0172V43.3134C110.97 43.3134 109.591 45.3712 109.591 47.0949C109.591 48.9636 110.9 50.8764 111.837 50.8764V51.1537Z" fill="#D7542D"/>
<path d="M111.837 51.1537V50.8575C112.774 50.8575 114.083 48.9667 114.083 47.076C114.083 45.3617 112.704 43.2945 111.837 43.2945V42.9983C112.985 42.9983 114.45 45.2798 114.45 47.0665C114.45 49.0235 113.083 51.1537 111.837 51.1537Z" fill="#D7542D"/>
<path d="M112.02 43.1653H111.653V51.0024H112.02V43.1653Z" fill="#D7542D"/>
<path d="M116.695 46.9373H106.979V47.2335H116.695V46.9373Z" fill="#D7542D"/>
<path d="M111.946 42.4373C113.02 42.4259 114.077 42.6556 114.998 43.1008C115.92 43.5459 116.669 44.1891 117.164 44.9583C117.498 45.4743 117.709 46.0367 117.785 46.6158C117.94 47.7958 117.546 48.9801 116.68 49.9391C115.814 50.8981 114.538 51.5634 113.098 51.8059L113.012 51.4656C113.69 51.3724 114.341 51.1779 114.93 50.8921C115.516 50.601 116.03 50.2262 116.449 49.786C116.87 49.343 117.185 48.8408 117.379 48.3049C117.621 47.624 117.666 46.9071 117.508 46.2101C117.351 45.5131 116.996 44.8549 116.471 44.2869C115.946 43.7189 115.266 43.2564 114.483 42.9356C113.7 42.6147 112.836 42.4442 111.958 42.4373H111.946Z" fill="#D7542D"/>
<path d="M113.298 51.6106L113.653 51.9793L112.817 51.7965L111.962 51.7272L112.774 51.5003L113.536 51.1694H113.555L113.298 51.6106Z" fill="#D7542D"/>
<path d="M111.946 51.737C110.499 51.7508 109.097 51.3292 108.014 50.5544C106.931 49.7795 106.244 48.7069 106.088 47.5458C105.932 46.3658 106.326 45.1811 107.192 44.2219C108.058 43.2628 109.335 42.5976 110.775 42.3557L110.857 42.6929C109.492 42.8921 108.27 43.4971 107.432 44.3883C106.8 45.0608 106.411 45.8611 106.308 46.7008C106.204 47.5405 106.39 48.387 106.846 49.1466C107.472 50.1736 108.545 50.9781 109.861 51.4061C110.525 51.6186 111.232 51.7308 111.946 51.737Z" fill="#D7542D"/>
<path d="M110.591 42.5634L110.243 42.1947L111.079 42.3775L111.938 42.4468L111.122 42.6737L110.36 42.9888H110.341L110.591 42.5634Z" fill="#D7542D"/>
<path d="M99.285 49.181H98.5273V50.2556H99.285V49.181Z" fill="#F0F0F0"/>
<path d="M100.421 49.181H99.6636V50.2556H100.421V49.181Z" fill="#F0F0F0"/>
<path d="M101.558 49.181H100.8V50.2556H101.558V49.181Z" fill="#F0F0F0"/>
<path d="M102.694 49.181H101.937V50.2556H102.694V49.181Z" fill="#F0F0F0"/>
<path d="M104.78 49.181H104.022V50.2556H104.78V49.181Z" fill="#F0F0F0"/>
<path d="M105.92 49.181H105.163V50.2556H105.92V49.181Z" fill="#F0F0F0"/>
<path d="M107.056 49.181H106.299V50.2556H107.056V49.181Z" fill="#F0F0F0"/>
<path d="M108.193 49.181H107.436V50.2556H108.193V49.181Z" fill="#F0F0F0"/>
<path d="M110.283 49.181H109.525V50.2556H110.283V49.181Z" fill="#F0F0F0"/>
<path d="M111.419 49.181H110.661V50.2556H111.419V49.181Z" fill="#F0F0F0"/>
<path d="M112.555 49.181H111.798V50.2556H112.555V49.181Z" fill="#F0F0F0"/>
<path d="M113.692 49.181H112.934V50.2556H113.692V49.181Z" fill="#F0F0F0"/>
<path d="M115.781 49.181H115.023V50.2556H115.781V49.181Z" fill="#F0F0F0"/>
<path d="M116.922 49.181H116.16V50.2556H116.922V49.181Z" fill="#F0F0F0"/>
<path d="M118.054 49.181H117.296V50.2556H118.054V49.181Z" fill="#F0F0F0"/>
<path d="M119.191 49.181H118.433V50.2556H119.191V49.181Z" fill="#F0F0F0"/>
<path d="M102.901 43.2854H99.9838C99.7552 43.2854 99.5698 43.435 99.5698 43.6194V45.9703C99.5698 46.1547 99.7552 46.3043 99.9838 46.3043H102.901C103.13 46.3043 103.315 46.1547 103.315 45.9703V43.6194C103.315 43.435 103.13 43.2854 102.901 43.2854Z" fill="#FFBB42"/>
<path d="M101.542 43.2854H101.343V46.3043H101.542V43.2854Z" fill="#3C4A4D"/>
<path d="M103.315 44.1962H99.5698V44.3569H103.315V44.1962Z" fill="#3C4A4D"/>
<path d="M101.44 45.2892H99.5698V45.4499H101.44V45.2892Z" fill="#3C4A4D"/>
<path d="M119.851 42.9922H115.402V45.031H119.851V42.9922Z" fill="#F0F0F0"/>
<path opacity="0.2" d="M115.816 41.4952L96.9336 52.2094C96.9316 52.1884 96.9316 52.1673 96.9336 52.1463V42.0309C96.9325 41.9603 96.949 41.8902 96.982 41.8249C97.015 41.7595 97.0639 41.7001 97.1257 41.6502C97.1876 41.6003 97.2612 41.5608 97.3422 41.5342C97.4232 41.5076 97.51 41.4943 97.5975 41.4952H115.816Z" fill="white"/>
<path d="M82.5152 30.3303C82.516 29.3747 82.1057 28.4486 81.3542 27.71C80.6027 26.9715 79.5568 26.4664 78.3951 26.281C78.0695 26.2302 77.7386 26.2049 77.407 26.2053C76.4755 26.2055 75.5617 26.4111 74.7645 26.7999C73.9672 27.1887 73.3168 27.7458 72.8834 28.4112C72.45 29.0765 72.2501 29.8248 72.3054 30.5751C72.3607 31.3254 72.669 32.0493 73.197 32.6685C73.197 32.6685 73.5329 33.0089 73.6696 33.1412C75.0521 34.4647 74.9466 35.6622 75.2747 36.9952H79.5393C79.8674 35.659 79.7619 34.4742 81.1366 33.1412C81.2772 33.0089 81.6131 32.6685 81.6131 32.6685C82.1614 32.0314 82.4742 31.2817 82.5152 30.5068C82.5152 30.4469 82.5152 30.387 82.5152 30.3303Z" fill="#FFD159"/>
<path opacity="0.3" d="M75.3406 32.6658C75.2469 32.5051 75.0165 32.0954 75.0243 32.0986C74.6638 31.2896 74.6054 30.4131 74.8564 29.5776C75.0542 28.902 75.4505 28.2747 76.012 27.7487C76.5734 27.2228 77.2835 26.8135 78.0822 26.5555C77.9533 26.5555 77.8244 26.5555 77.6917 26.5555C76.8149 26.5563 75.9551 26.7503 75.2049 27.1164C74.4548 27.4826 73.8427 28.007 73.4348 28.6332C73.0269 29.2594 72.8386 29.9636 72.8902 30.6698C72.9418 31.376 73.2314 32.0574 73.7277 32.6406C73.7277 32.6406 74.0479 32.9557 74.1768 33.0849C75.407 34.2698 75.6023 35.2908 75.8835 36.4977C75.9967 35.1616 76.1803 34.0996 75.3406 32.6658Z" fill="white"/>
<path d="M78.3597 40.1212H76.45L75.5322 39.5035H79.2775L78.3597 40.1212Z" fill="#3C4A4D"/>
<path d="M79.2774 37.3987H75.5322L75.2744 36.9985H79.5391L79.2774 37.3987Z" fill="#A6A6A8"/>
<path d="M79.2741 37.3989H75.5327V39.504H79.2741V37.3989Z" fill="#CFCFD1"/>
<path d="M75.4311 37.95C75.9895 37.8397 76.8136 37.7672 77.3837 37.701C77.9539 37.6349 78.7819 37.5908 79.3364 37.5813C79.3717 37.5813 79.4054 37.5926 79.4303 37.6127C79.4552 37.6328 79.4692 37.66 79.4692 37.6884C79.4688 37.7119 79.4591 37.7346 79.4415 37.7533C79.4239 37.772 79.3994 37.7857 79.3716 37.7924C78.8131 37.9059 77.9891 37.9784 77.4189 38.0414C76.8487 38.1044 76.0247 38.1485 75.4662 38.1611C75.4335 38.1618 75.4016 38.1527 75.3767 38.1356C75.3518 38.1184 75.3356 38.0945 75.3313 38.0683C75.3269 38.0421 75.3347 38.0156 75.3531 37.9937C75.3715 37.9719 75.3993 37.9563 75.4311 37.95Z" fill="#A6A6A8"/>
<path d="M75.4309 38.5302C75.9893 38.4199 76.8134 38.3443 77.3836 38.2812C78.0316 38.2151 78.6833 38.1752 79.3362 38.1615C79.3708 38.1615 79.404 38.1723 79.4288 38.1918C79.4536 38.2112 79.468 38.2376 79.469 38.2655C79.4692 38.2891 79.4597 38.3121 79.4421 38.3309C79.4244 38.3497 79.3996 38.3632 79.3714 38.3695C78.7262 38.4802 78.0745 38.5643 77.4187 38.6216C76.8524 38.6783 76.0245 38.7287 75.466 38.7382C75.449 38.739 75.4319 38.7371 75.4158 38.7324C75.3997 38.7277 75.385 38.7204 75.3726 38.711C75.3601 38.7015 75.3502 38.6901 75.3434 38.6774C75.3367 38.6648 75.3332 38.6511 75.3332 38.6373C75.3314 38.6131 75.3402 38.5891 75.3581 38.5695C75.3759 38.55 75.4017 38.536 75.4309 38.5302Z" fill="#A6A6A8"/>
<path d="M75.431 39.1097C75.9895 38.9994 76.8135 38.9237 77.3837 38.8576C78.0318 38.7925 78.6835 38.7536 79.3364 38.741C79.371 38.741 79.4042 38.7518 79.4289 38.7712C79.4537 38.7906 79.4682 38.8171 79.4692 38.845C79.4694 38.8685 79.4599 38.8915 79.4422 38.9103C79.4246 38.9291 79.3997 38.9427 79.3716 38.9489C78.7264 39.0596 78.0746 39.1438 77.4189 39.201C76.8526 39.2578 76.0247 39.305 75.4662 39.3176C75.4357 39.316 75.4068 39.3059 75.3844 39.2891C75.3621 39.2722 75.3476 39.2497 75.3435 39.2252C75.3394 39.2008 75.3458 39.1759 75.3618 39.1549C75.3777 39.1338 75.4022 39.1178 75.431 39.1097Z" fill="#A6A6A8"/>
<path d="M77.4071 25.3607C77.3211 25.3607 77.236 25.347 77.1566 25.3204C77.0772 25.2937 77.0051 25.2547 76.9445 25.2055C76.8839 25.1563 76.836 25.0979 76.8034 25.0337C76.7709 24.9695 76.7544 24.9007 76.7549 24.8313V22.9406C76.7549 22.801 76.8236 22.6671 76.9459 22.5684C77.0682 22.4698 77.2341 22.4143 77.4071 22.4143C77.5801 22.4143 77.746 22.4698 77.8683 22.5684C77.9906 22.6671 78.0593 22.801 78.0593 22.9406V24.8313C78.0593 24.9712 77.9907 25.1054 77.8685 25.2045C77.7463 25.3037 77.5804 25.3599 77.4071 25.3607Z" fill="#FFD159"/>
<path d="M72.1774 27.0999C72.0916 27.1007 72.0065 27.0875 71.9273 27.0609C71.8481 27.0344 71.7764 26.9951 71.7165 26.9455L70.0528 25.6062C69.9305 25.507 69.8618 25.3728 69.8618 25.2328C69.8618 25.0929 69.9305 24.9586 70.0528 24.8594C70.1761 24.7624 70.3415 24.7081 70.5137 24.7081C70.599 24.7076 70.6837 24.7207 70.7628 24.7467C70.8419 24.7726 70.9138 24.8109 70.9745 24.8594L72.6382 26.2018C72.7602 26.3006 72.8289 26.4342 72.8296 26.5737C72.8296 26.7133 72.7608 26.8471 72.6385 26.9458C72.5162 27.0445 72.3503 27.0999 72.1774 27.0999Z" fill="#FFD159"/>
<path d="M67.6749 31.3292C67.5101 31.3189 67.3562 31.2589 67.244 31.161C67.1317 31.0632 67.0693 30.9347 67.0693 30.8014C67.0693 30.6681 67.1317 30.5396 67.244 30.4418C67.3562 30.3439 67.5101 30.2838 67.6749 30.2736H70.0181C70.1828 30.2838 70.3367 30.3439 70.449 30.4418C70.5612 30.5396 70.6236 30.6681 70.6236 30.8014C70.6236 30.9347 70.5612 31.0632 70.449 31.161C70.3367 31.2589 70.1828 31.3189 70.0181 31.3292H67.6749Z" fill="#FFD159"/>
<path d="M70.5141 36.8876C70.4284 36.8877 70.3436 36.8741 70.2645 36.8476C70.1854 36.8211 70.1136 36.7822 70.0532 36.7332C69.9917 36.6849 69.9431 36.6271 69.9102 36.5632C69.8773 36.4992 69.8609 36.4306 69.8619 36.3614C69.8613 36.2922 69.8779 36.2237 69.9108 36.1598C69.9437 36.0959 69.9921 36.038 70.0532 35.9895L71.7169 34.6502C71.7765 34.6002 71.8481 34.5605 71.9273 34.5334C72.0065 34.5063 72.0917 34.4925 72.1777 34.4927C72.3508 34.4943 72.516 34.5507 72.638 34.6497C72.76 34.7488 72.8289 34.8825 72.8299 35.0221C72.8285 35.1614 72.7599 35.2948 72.6386 35.3939L70.9749 36.7332C70.9151 36.7828 70.8434 36.8221 70.7641 36.8486C70.6849 36.8752 70.5998 36.8884 70.5141 36.8876Z" fill="#FFD159"/>
<path d="M84.2998 36.8876C84.2135 36.8881 84.1279 36.8747 84.0481 36.8482C83.9683 36.8217 83.8959 36.7826 83.835 36.7332L82.1753 35.3939C82.0534 35.2938 81.9847 35.1593 81.9839 35.0189C81.9859 34.8799 82.0553 34.747 82.1772 34.6486C82.299 34.5503 82.4637 34.4943 82.6361 34.4927C82.7221 34.4925 82.8073 34.5063 82.8865 34.5334C82.9657 34.5605 83.0373 34.6002 83.0969 34.6502L84.7606 35.9895C84.8815 36.0886 84.9489 36.2223 84.9481 36.3614C84.9486 36.4303 84.9322 36.4987 84.8998 36.5625C84.8675 36.6263 84.8198 36.6844 84.7596 36.7333C84.6993 36.7822 84.6277 36.821 84.5488 36.8475C84.4699 36.874 84.3852 36.8876 84.2998 36.8876Z" fill="#FFD159"/>
<path d="M84.8038 31.3292C84.639 31.3189 84.4851 31.2589 84.3729 31.161C84.2606 31.0632 84.1982 30.9347 84.1982 30.8014C84.1982 30.6681 84.2606 30.5396 84.3729 30.4418C84.4851 30.3439 84.639 30.2838 84.8038 30.2736H87.147C87.3117 30.2838 87.4656 30.3439 87.5779 30.4418C87.6901 30.5396 87.7525 30.6681 87.7525 30.8014C87.7525 30.9347 87.6901 31.0632 87.5779 31.161C87.4656 31.2589 87.3117 31.3189 87.147 31.3292H84.8038Z" fill="#FFD159"/>
<path d="M84.9481 25.2415C84.9487 25.1718 84.9321 25.1028 84.8993 25.0384C84.8664 24.974 84.8179 24.9156 84.7567 24.8665C84.6968 24.8172 84.625 24.7783 84.5458 24.7522C84.4665 24.7262 84.3814 24.7136 84.2959 24.7152C84.2105 24.7145 84.1258 24.7276 84.0466 24.7535C83.9675 24.7795 83.8956 24.8179 83.835 24.8665L82.1753 26.2089C82.1143 26.2568 82.0659 26.3142 82.033 26.3775C82.0001 26.4409 81.9834 26.5089 81.9839 26.5776C81.9833 26.6819 82.021 26.784 82.0924 26.8709C82.1638 26.9578 82.2655 27.0257 82.3848 27.0658C82.504 27.106 82.6354 27.1167 82.7622 27.0965C82.889 27.0764 83.0055 27.0263 83.0969 26.9526L84.7567 25.6133C84.8178 25.5648 84.8662 25.5069 84.8991 25.4431C84.932 25.3792 84.9486 25.3106 84.9481 25.2415Z" fill="#FFD159"/>
<path d="M104.424 50.3438V76.6314H50.3897V50.3438C50.3886 50.1033 50.4463 49.8651 50.5594 49.6426C50.6725 49.4202 50.8387 49.2179 51.0487 49.0473C51.2587 48.8767 51.5082 48.7411 51.7831 48.6484C52.058 48.5556 52.3529 48.5074 52.6509 48.5066H102.163C102.461 48.5074 102.756 48.5556 103.031 48.6484C103.306 48.7411 103.555 48.8767 103.765 49.0473C103.975 49.2179 104.142 49.4202 104.255 49.6426C104.368 49.8651 104.425 50.1033 104.424 50.3438Z" fill="#3C4A4D"/>
<path d="M102.163 50.3379H52.6509V74.8041H102.163V50.3379Z" fill="#5B65D7"/>
<path d="M107.439 79.4707H47.3745L50.3895 76.6315H104.424L107.439 79.4707Z" fill="#F2F2F2"/>
<path d="M85.0732 78.0496H77.4069H69.7407L67.4795 79.0643H77.4069H87.3344L85.0732 78.0496Z" fill="#B1BDBF"/>
<path d="M107.439 79.4707C107.439 80.539 105.756 80.5894 103.67 80.5894H51.1432C49.0577 80.5894 47.3745 80.539 47.3745 79.4707H107.439Z" fill="#254048"/>
<path d="M77.4109 72.2544C75.0369 72.2556 72.7159 71.6887 70.7412 70.6254C68.7666 69.5621 67.2272 68.0502 66.3176 66.2808C65.4081 64.5114 65.1693 62.5641 65.6315 60.6853C66.0937 58.8064 67.2361 57.0803 68.9142 55.7254C70.5923 54.3705 72.7307 53.4475 75.0589 53.0734C77.3871 52.6992 79.8005 52.8906 81.9939 53.6234C84.1873 54.3561 86.0621 55.5973 87.3812 57.1899C88.7002 58.7826 89.4043 60.6551 89.4043 62.5706C89.4012 65.137 88.1368 67.5977 85.8885 69.4131C83.6402 71.2284 80.5915 72.2502 77.4109 72.2544ZM77.4109 53.5927C75.209 53.5915 73.0562 54.1172 71.2247 55.1035C69.3932 56.0897 67.9654 57.4921 67.1219 59.1332C66.2784 60.7744 66.0571 62.5805 66.486 64.3232C66.9149 66.0658 67.9747 67.6667 69.5314 68.9232C71.088 70.1797 73.0716 71.0355 75.2312 71.3821C77.3907 71.7288 79.6292 71.5509 81.6633 70.8708C83.6975 70.1908 85.436 69.0392 86.6589 67.5617C87.8818 66.0842 88.5341 64.3473 88.5334 62.5706C88.5282 60.1913 87.3548 57.9107 85.2702 56.228C83.1856 54.5453 80.3595 53.5977 77.4109 53.5927Z" fill="white"/>
<path d="M77.4111 58.1431C75.9005 58.145 74.3934 58.0257 72.9121 57.7871C71.4271 57.5495 69.9759 57.1905 68.5811 56.7156L68.9208 56.0665C71.6013 56.9755 74.4801 57.4426 77.3877 57.4404C78.8473 57.4368 80.3031 57.3186 81.7343 57.0875C83.1584 56.8574 84.5495 56.51 85.8857 56.0507L85.9678 56.0255H86.0615V56.3785L86.2294 56.6936C83.4384 57.6397 80.4423 58.1292 77.415 58.1337L77.4111 58.1431Z" fill="white"/>
<path d="M86.0654 68.9644H85.9717L85.8897 68.9392C83.2067 68.0283 80.3257 67.5581 77.415 67.5558C75.9621 67.5548 74.5126 67.6698 73.0879 67.8993C71.6605 68.1281 70.2656 68.4734 68.9247 68.9298L68.5889 68.2775C71.3793 67.338 74.3719 66.8518 77.3955 66.8468C78.9103 66.8511 80.421 66.9746 81.9062 67.2155C83.3898 67.4549 84.8396 67.8149 86.2333 68.2901L86.0654 68.6052V68.9644Z" fill="white"/>
<path d="M77.4107 72.2544C74.4426 72.2544 71.1895 67.1872 71.1895 62.5706C71.1895 58.3196 74.6769 52.89 77.4107 52.89V53.5927C75.3487 53.5927 72.0643 58.4961 72.0643 62.5706C72.0643 67.0265 75.1885 71.5517 77.4107 71.5517V72.2544Z" fill="white"/>
<path d="M77.4106 72.2544V71.5517C79.6445 71.5517 82.7532 67.0265 82.7532 62.5706C82.7532 58.4961 79.4688 53.5927 77.4106 53.5927V52.89C80.1444 52.89 83.628 58.3196 83.628 62.5706C83.628 67.1872 80.3709 72.2544 77.4106 72.2544Z" fill="white"/>
<path d="M77.8445 53.2429H76.9736V71.9014H77.8445V53.2429Z" fill="white"/>
<path d="M88.9709 62.2181H65.8433V62.9272H88.9709V62.2181Z" fill="white"/>
<path opacity="0.3" d="M83.9876 48.5066L65.0114 76.6314H50.3897V50.3438C50.3886 50.1033 50.4463 49.8651 50.5594 49.6426C50.6725 49.4202 50.8387 49.2179 51.0487 49.0473C51.2587 48.8767 51.5082 48.7411 51.7831 48.6484C52.058 48.5556 52.3529 48.5074 52.6509 48.5066H83.9876Z" fill="white"/>
<path d="M37.6581 62.8887C36.6878 62.8893 35.7395 63.1221 34.9332 63.5577C34.1269 63.9932 33.4988 64.612 33.1284 65.3356C32.7579 66.0593 32.6618 66.8553 32.8521 67.623C33.0425 68.3908 33.5107 69.0957 34.1977 69.6487C34.8846 70.2016 35.7594 70.5778 36.7113 70.7295C37.6632 70.8813 38.6495 70.8018 39.5454 70.5012C40.4413 70.2006 41.2067 69.6923 41.7445 69.0406C42.2824 68.389 42.5687 67.6233 42.5671 66.8403C42.5651 65.7912 42.0468 64.7856 41.1263 64.0446C40.2058 63.3036 38.9583 62.8878 37.6581 62.8887ZM37.6581 70.3508C36.7997 70.3502 35.9607 70.1443 35.2472 69.7592C34.5338 69.374 33.9777 68.8269 33.6494 68.1869C33.3211 67.5469 33.2352 66.8427 33.4026 66.1634C33.5699 65.484 33.9831 64.8599 34.5898 64.3699C35.1965 63.8799 35.9696 63.546 36.8114 63.4103C37.6532 63.2747 38.5259 63.3433 39.3194 63.6077C40.1128 63.872 40.7914 64.3202 41.2693 64.8956C41.7473 65.4709 42.0032 66.1477 42.0047 66.8403C42.0053 67.3012 41.8932 67.7576 41.675 68.1835C41.4568 68.6094 41.1367 68.9964 40.733 69.3224C40.3293 69.6484 39.85 69.9071 39.3224 70.0835C38.7948 70.26 38.2292 70.3508 37.6581 70.3508Z" fill="#00BEC8"/>
<path d="M37.6582 63.34C36.7989 63.3406 35.9592 63.5469 35.2453 63.9327C34.5314 64.3186 33.9754 64.8666 33.6477 65.5075C33.3199 66.1484 33.2352 66.8534 33.4041 67.5332C33.5731 68.213 33.9882 68.8371 34.5968 69.3264C35.2055 69.8158 35.9804 70.1485 36.8235 70.2824C37.6666 70.4163 38.5399 70.3453 39.333 70.0786C40.1261 69.8118 40.8033 69.3612 41.2789 68.7838C41.7546 68.2063 42.0072 67.528 42.0049 66.8347C42.0038 66.3749 41.8906 65.9198 41.6716 65.4954C41.4526 65.0709 41.1321 64.6855 40.7285 64.3609C40.3249 64.0364 39.846 63.7792 39.3192 63.6041C38.7924 63.4289 38.228 63.3391 37.6582 63.34ZM36.1468 68.7601V64.9345L40.2514 66.841L36.1468 68.7601Z" fill="#CDF4F4"/>
<path d="M40.251 66.8406L36.1465 68.7597V64.9341L40.251 66.8406Z" fill="#00BEC8"/>
<path d="M66.1125 103.887C66.1133 106.579 65.1247 109.211 63.2718 111.449C61.4188 113.688 58.7848 115.433 55.7028 116.463C52.6208 117.494 49.2292 117.764 45.957 117.239C42.6848 116.714 39.679 115.418 37.3196 113.515C34.9603 111.612 33.3535 109.187 32.7023 106.546C32.0512 103.906 32.385 101.169 33.6615 98.6823C34.938 96.1952 37.1 94.0694 39.8739 92.5737C42.6478 91.0781 45.909 90.2798 49.2452 90.2798C53.718 90.2798 58.0077 91.7133 61.1708 94.265C64.334 96.8167 66.1115 100.278 66.1125 103.887Z" fill="#5686C4"/>
<path d="M44.1056 94.6632H54.4158C54.8032 94.6632 55.1747 94.7874 55.4486 95.0084C55.7225 95.2294 55.8764 95.5292 55.8764 95.8418V111.935C55.8764 112.247 55.7229 112.546 55.4498 112.766C55.1766 112.987 54.8061 113.111 54.4197 113.111H44.1056C43.7182 113.111 43.3467 112.986 43.0728 112.765C42.7989 112.544 42.645 112.245 42.645 111.932V95.8418C42.645 95.5292 42.7989 95.2294 43.0728 95.0084C43.3467 94.7874 43.7182 94.6632 44.1056 94.6632Z" fill="#254048"/>
<path d="M54.5645 95.917H43.9614V110.167H54.5645V95.917Z" fill="#00D3E8"/>
<path d="M54.5645 95.917H43.9614V110.167H54.5645V95.917Z" fill="#F0F0F0"/>
<path d="M53.9591 100.613H48.105V100.981H53.9591V100.613Z" fill="#758789"/>
<path d="M53.9591 101.757H48.105V102.125H53.9591V101.757Z" fill="#758789"/>
<path d="M53.9591 104.132H48.105V104.501H53.9591V104.132Z" fill="#758789"/>
<path d="M53.9591 105.276H48.105V105.645H53.9591V105.276Z" fill="#758789"/>
<path d="M53.9591 107.652H48.105V108.018H53.9591V107.652Z" fill="#758789"/>
<path d="M53.9591 108.796H48.105V109.162H53.9591V108.796Z" fill="#758789"/>
<path d="M47.609 99.6104H43.9614V103.13H47.609V99.6104Z" fill="#96DC73"/>
<path d="M47.609 103.127H43.9614V106.647H47.609V103.127Z" fill="#FF7643"/>
<path d="M47.609 106.646H43.9614V110.166H47.609V106.646Z" fill="#00D3E8"/>
<path d="M54.5645 95.917H43.9614V99.5756H54.5645V95.917Z" fill="#FFD159"/>
<path d="M54.5645 103.027H43.9614V103.235H54.5645V103.027Z" fill="#E0E2E6"/>
<path d="M54.5645 106.543H43.9614V106.751H54.5645V106.543Z" fill="#E0E2E6"/>
<path opacity="0.3" d="M44.2543 96.1533V110.167H43.9614V95.917H54.5645V96.1533H44.2543Z" fill="black"/>
<path d="M50.0654 112.326H48.4603C48.3534 112.341 48.2437 112.338 48.1387 112.315C48.0338 112.293 47.9362 112.252 47.8529 112.196C47.7697 112.14 47.7027 112.07 47.6567 111.99C47.6107 111.911 47.5869 111.824 47.5869 111.737C47.5869 111.649 47.6107 111.563 47.6567 111.483C47.7027 111.404 47.7697 111.334 47.8529 111.277C47.9362 111.221 48.0338 111.18 48.1387 111.158C48.2437 111.135 48.3534 111.132 48.4603 111.147H50.0654C50.1722 111.132 50.282 111.135 50.3869 111.158C50.4919 111.18 50.5894 111.221 50.6727 111.277C50.756 111.334 50.823 111.404 50.869 111.483C50.9149 111.563 50.9387 111.649 50.9387 111.737C50.9387 111.824 50.9149 111.911 50.869 111.99C50.823 112.07 50.756 112.14 50.6727 112.196C50.5894 112.252 50.4919 112.293 50.3869 112.315C50.282 112.338 50.1722 112.341 50.0654 112.326Z" fill="#54666F"/>
<g opacity="0.3">
<path d="M48.4604 111.267H50.0655C50.2648 111.256 50.4624 111.303 50.6218 111.4C50.7811 111.498 50.8915 111.638 50.9325 111.796C50.9346 111.776 50.9346 111.756 50.9325 111.736C50.9117 111.565 50.8083 111.407 50.6446 111.297C50.481 111.187 50.2702 111.133 50.0577 111.147H48.4604C48.2479 111.133 48.0371 111.187 47.8734 111.297C47.7098 111.407 47.6064 111.565 47.5856 111.736C47.5835 111.756 47.5835 111.776 47.5856 111.796C47.6275 111.637 47.7392 111.496 47.9 111.399C48.0608 111.302 48.2599 111.255 48.4604 111.267Z" fill="black"/>
</g>
<path opacity="0.3" d="M44.1061 94.6632C43.9144 94.6632 43.7247 94.6937 43.5477 94.753C43.3707 94.8122 43.21 94.8991 43.0746 95.0086C42.9393 95.1181 42.8321 95.248 42.7591 95.391C42.6862 95.534 42.6489 95.6872 42.6494 95.8418V111.935C42.6455 111.978 42.6455 112.021 42.6494 112.064L52.4714 94.6632H44.1061Z" fill="white"/>
<path d="M51.0265 25.5659C51.0265 28.2976 50.0226 30.968 48.1417 33.2394C46.2608 35.5107 43.5875 37.281 40.4597 38.3264C37.332 39.3718 33.8903 39.6453 30.5698 39.1124C27.2494 38.5795 24.1994 37.264 21.8055 35.3324C19.4116 33.4008 17.7814 30.9397 17.1209 28.2605C16.4604 25.5812 16.7994 22.8041 18.095 20.2803C19.3905 17.7565 21.5845 15.5994 24.3994 14.0818C27.2143 12.5641 30.5238 11.754 33.9092 11.754C36.1573 11.7536 38.3833 12.1106 40.4603 12.8046C42.5373 13.4985 44.4245 14.5159 46.0141 15.7985C47.6037 17.0811 48.8645 18.6039 49.7246 20.2798C50.5846 21.9558 51.027 23.752 51.0265 25.5659Z" fill="#5686C4"/>
<path d="M21.8687 31.493L33.9089 25.5655L21.8687 19.6381V31.493Z" fill="#FFB736"/>
<path d="M45.9494 31.493L33.9092 25.5655L45.9494 19.6381V31.493Z" fill="#FFB736"/>
<path opacity="0.2" d="M21.8687 31.4931L33.9089 24.532L45.9492 31.4931H21.8687Z" fill="black"/>
<path d="M21.8687 31.4926L33.9089 24.667L45.9492 31.4926H21.8687Z" fill="#FFD159"/>
<path opacity="0.2" d="M21.8687 19.6381L33.9089 26.9332L45.9492 19.6381H21.8687Z" fill="black"/>
<path d="M21.8687 19.6381L33.9089 26.4636L45.9492 19.6381H21.8687Z" fill="#FFD159"/>
<path d="M145.298 85.4143C145.298 88.1462 144.294 90.8167 142.413 93.0881C140.532 95.3595 137.858 97.1298 134.73 98.1751C131.602 99.2204 128.16 99.4937 124.84 98.9606C121.519 98.4274 118.469 97.1116 116.076 95.1797C113.682 93.2477 112.052 90.7864 111.392 88.1069C110.732 85.4275 111.071 82.6503 112.368 80.1265C113.664 77.6028 115.858 75.4459 118.674 73.9286C121.489 72.4113 124.799 71.6018 128.185 71.6024C130.432 71.6024 132.658 71.9597 134.735 72.6538C136.811 73.348 138.698 74.3654 140.287 75.648C141.876 76.9306 143.137 78.4532 143.996 80.129C144.856 81.8047 145.298 83.6006 145.298 85.4143Z" fill="#5686C4"/>
<path d="M127.164 85.1953L117.548 92.9541L118.777 93.9457L128.393 86.1869L127.164 85.1953Z" fill="#54666F"/>
<path opacity="0.5" d="M127.165 85.1969L126.517 85.7137C126.709 85.9177 126.92 86.1104 127.146 86.2904C127.33 86.4429 127.527 86.5851 127.736 86.7158L128.396 86.1832L127.165 85.1969Z" fill="black"/>
<path opacity="0.2" d="M136.718 85.7353C135.623 86.6115 134.166 87.1318 132.626 87.1969C131.085 87.262 129.569 86.8675 128.366 86.0885C127.163 85.3095 126.358 84.2006 126.103 82.9731C125.849 81.7456 126.163 80.4854 126.986 79.4329C127.231 79.1257 127.517 78.8404 127.837 78.582C129.018 77.6427 130.611 77.1182 132.269 77.1228C133.926 77.1275 135.515 77.661 136.687 78.6069C137.859 79.5529 138.521 80.8345 138.526 82.1723C138.532 83.5101 137.882 84.7954 136.718 85.7479V85.7353Z" fill="#00D3E8"/>
<path opacity="0.2" d="M137.073 82.5121C136.266 83.1625 135.244 83.6108 134.128 83.803C133.013 83.9952 131.852 83.9231 130.786 83.5954C129.72 83.2678 128.795 82.6986 128.12 81.9562C127.446 81.2139 127.052 80.3301 126.986 79.4113C127.231 79.1041 127.517 78.8189 127.837 78.5605C128.623 77.923 129.605 77.4659 130.682 77.236C131.759 77.0061 132.893 77.0117 133.967 77.2524C135.04 77.493 136.015 77.9599 136.791 78.6052C137.567 79.2505 138.116 80.0508 138.382 80.9239C138.083 81.5191 137.638 82.0593 137.073 82.5121Z" fill="white"/>
<path opacity="0.2" d="M127.974 79.4299C128.797 78.7732 129.834 78.3179 130.965 78.1168C132.095 77.9157 133.273 77.9769 134.362 78.2933C135.451 78.6098 136.407 79.1686 137.119 79.9051C137.831 80.6416 138.27 81.5257 138.386 82.4551C138.504 81.4439 138.233 80.4278 137.611 79.5447C136.989 78.6617 136.046 77.9544 134.908 77.5188C133.771 77.0833 132.495 76.9405 131.254 77.1098C130.013 77.2792 128.867 77.7526 127.97 78.4657C127.332 78.9793 126.843 79.6015 126.541 80.2867C126.238 80.972 126.129 81.7031 126.22 82.4268C126.355 81.2935 126.975 80.2336 127.974 79.4299Z" fill="black"/>
<path d="M127.45 86.0477C126.495 85.2774 125.845 84.2959 125.582 83.2274C125.318 82.1588 125.454 81.0513 125.97 80.0447C126.487 79.0382 127.362 78.1779 128.485 77.5726C129.607 76.9674 130.927 76.6443 132.277 76.6443C133.627 76.6443 134.947 76.9674 136.07 77.5726C137.193 78.1779 138.068 79.0382 138.584 80.0447C139.101 81.0513 139.236 82.1588 138.973 83.2274C138.709 84.2959 138.059 85.2774 137.104 86.0477C135.823 87.0784 134.087 87.6571 132.277 87.6571C130.468 87.6571 128.732 87.0784 127.45 86.0477ZM136.335 78.8818C135.533 78.2342 134.511 77.7931 133.398 77.6143C132.285 77.4355 131.131 77.5271 130.083 77.8774C129.034 78.2277 128.138 78.821 127.507 79.5823C126.877 80.3436 126.54 81.2387 126.54 82.1544C126.54 83.07 126.877 83.9651 127.507 84.7264C128.138 85.4877 129.034 86.0811 130.083 86.4314C131.131 86.7817 132.285 86.8732 133.398 86.6944C134.511 86.5157 135.533 86.0745 136.335 85.4269C137.408 84.558 138.011 83.3812 138.011 82.1544C138.011 80.9275 137.408 79.7507 136.335 78.8818Z" fill="#54666F"/>
<path opacity="0.2" d="M127.45 78.506C128.396 77.7423 129.598 77.2199 130.909 77.0037C132.22 76.7875 133.58 76.8872 134.821 77.2903C136.062 77.6933 137.128 78.382 137.888 79.2706C138.647 80.1591 139.066 81.2083 139.092 82.2875C139.123 81.5497 138.97 80.8144 138.641 80.1255C138.313 79.4365 137.816 78.8079 137.18 78.2772C136.544 77.7464 135.782 77.3243 134.94 77.0361C134.098 76.7478 133.192 76.5992 132.277 76.5992C131.362 76.5992 130.457 76.7478 129.615 77.0361C128.772 77.3243 128.011 77.7464 127.375 78.2772C126.739 78.8079 126.242 79.4365 125.913 80.1255C125.585 80.8144 125.431 81.5497 125.462 82.2875C125.496 80.8673 126.208 79.5124 127.45 78.506Z" fill="white"/>
<path opacity="0.2" d="M128.208 85.6755C129.018 86.3311 130.054 86.7752 131.181 86.9502C132.308 87.1252 133.475 87.0231 134.529 86.657C135.583 86.2909 136.477 85.6778 137.094 84.8971C137.711 84.1164 138.024 83.2041 137.991 82.2784C137.952 83.4832 137.331 84.628 136.262 85.469C135.192 86.31 133.757 86.7806 132.264 86.7806C130.77 86.7806 129.336 86.31 128.266 85.469C127.196 84.628 126.575 83.4832 126.536 82.2784C126.515 82.9066 126.652 83.5317 126.939 84.1157C127.226 84.6997 127.658 85.2304 128.208 85.6755Z" fill="black"/>
<path d="M118.933 94.0735L117.394 92.832C117.314 92.766 117.269 92.6771 117.269 92.5846C117.269 92.492 117.314 92.4032 117.394 92.3372L124.353 86.7186C124.436 86.6535 124.547 86.6171 124.662 86.6171C124.777 86.6171 124.888 86.6535 124.97 86.7186L126.509 87.9601C126.59 88.0267 126.635 88.116 126.635 88.2091C126.635 88.3021 126.59 88.3915 126.509 88.458L119.55 94.0735C119.509 94.1065 119.461 94.1327 119.408 94.1506C119.355 94.1684 119.299 94.1776 119.241 94.1776C119.184 94.1776 119.127 94.1684 119.074 94.1506C119.021 94.1327 118.973 94.1065 118.933 94.0735Z" fill="#FF7643"/>
<path opacity="0.3" d="M118.445 92.9201L125.084 87.563C125.109 87.5455 125.137 87.5297 125.166 87.5158L124.877 87.2826C124.804 87.2248 124.706 87.1925 124.603 87.1925C124.501 87.1925 124.403 87.2248 124.33 87.2826L118.109 92.3025C118.036 92.3615 117.995 92.4414 117.995 92.5247C117.995 92.6079 118.036 92.6878 118.109 92.7468L118.398 92.9769C118.411 92.9566 118.426 92.9376 118.445 92.9201Z" fill="white"/>
<path opacity="0.2" d="M133.321 81.3295C133.095 81.5122 132.806 81.6366 132.493 81.6871C132.179 81.7377 131.854 81.712 131.558 81.6133C131.263 81.5146 131.01 81.3474 130.832 81.1328C130.654 80.9182 130.56 80.6659 130.56 80.4078C130.56 80.1496 130.654 79.8973 130.832 79.6827C131.01 79.4681 131.263 79.3009 131.558 79.2022C131.854 79.1036 132.179 79.0779 132.493 79.1284C132.806 79.1789 133.095 79.3034 133.321 79.486C133.622 79.731 133.792 80.0624 133.792 80.4078C133.792 80.7531 133.622 81.0845 133.321 81.3295Z" fill="white"/>
</g>
<defs>
<clipPath id="clip0_327_4383">
<rect width="156.215" height="124" fill="white" transform="translate(0.892578)"/>
</clipPath>
</defs>
</svg>
