<svg width="190" height="121" viewBox="0 0 190 121" fill="none" xmlns="http://www.w3.org/2000/svg">
<g clip-path="url(#clip0_327_4562)">
<path d="M64.2726 42.15V39.2316C64.2726 39.0954 64.2168 38.9647 64.1176 38.8683C64.0184 38.772 63.8838 38.7178 63.7435 38.7178H62.9718C62.862 38.7177 62.7554 38.6819 62.669 38.616C62.5826 38.5501 62.5215 38.458 62.4954 38.3544C62.2342 37.2408 61.7826 36.1776 61.1595 35.209C61.1005 35.1168 61.0747 35.0082 61.0864 34.9002C61.098 34.7922 61.1464 34.6911 61.2238 34.6128L61.7675 34.0848C61.8166 34.0373 61.8555 33.9809 61.882 33.9188C61.9086 33.8567 61.9223 33.7901 61.9223 33.7229C61.9223 33.6556 61.9086 33.589 61.882 33.5269C61.8555 33.4648 61.8166 33.4084 61.7675 33.3609L59.6483 31.3027C59.5994 31.2551 59.5413 31.2173 59.4774 31.1915C59.4134 31.1657 59.3448 31.1524 59.2756 31.1524C59.2063 31.1524 59.1378 31.1657 59.0738 31.1915C59.0099 31.2173 58.9518 31.2551 58.9029 31.3027L58.3592 31.8279C58.2797 31.9049 58.1753 31.9531 58.0636 31.9645C57.9519 31.9759 57.8396 31.9497 57.7454 31.8904C56.7475 31.2862 55.6529 30.8477 54.5066 30.593C54.3999 30.5676 54.3051 30.5082 54.2373 30.4244C54.1695 30.3405 54.1325 30.2369 54.1324 30.1303V29.3752C54.1324 29.2389 54.0767 29.1082 53.9775 29.0118C53.8782 28.9155 53.7437 28.8613 53.6034 28.8613H50.6043C50.4637 28.8613 50.3288 28.9154 50.2291 29.0117C50.1294 29.1079 50.073 29.2386 50.0723 29.3752V30.1218C50.0743 30.2304 50.0375 30.3364 49.9683 30.4218C49.899 30.5071 49.8015 30.5666 49.6923 30.5902C48.5446 30.8435 47.4488 31.2821 46.4506 31.8875C46.3563 31.9469 46.244 31.973 46.1323 31.9617C46.0206 31.9503 45.9163 31.9021 45.8367 31.8251L45.3077 31.2999C45.2079 31.2033 45.0729 31.1491 44.932 31.1491C44.7912 31.1491 44.6561 31.2033 44.5564 31.2999L42.4372 33.3495C42.3881 33.397 42.3492 33.4534 42.3227 33.5155C42.2961 33.5777 42.2824 33.6442 42.2824 33.7115C42.2824 33.7788 42.2961 33.8453 42.3227 33.9075C42.3492 33.9696 42.3881 34.026 42.4372 34.0735L42.978 34.6015C43.0566 34.6785 43.1057 34.7793 43.1174 34.8872C43.1291 34.995 43.1026 35.1035 43.0423 35.1948C42.4218 36.1658 41.9705 37.2295 41.7064 38.3431C41.6817 38.4474 41.621 38.5404 41.5343 38.6065C41.4476 38.6726 41.3402 38.7079 41.23 38.7065H40.4612C40.3206 38.7065 40.1857 38.7605 40.086 38.8568C39.9864 38.9531 39.93 39.0838 39.9292 39.2203V42.15C39.9307 42.2866 39.9873 42.4171 40.0867 42.5137C40.1861 42.6103 40.3206 42.6652 40.4612 42.6667H41.2329C41.3422 42.6657 41.4486 42.7009 41.5346 42.7664C41.6207 42.8319 41.6813 42.9239 41.7064 43.0272C41.9705 44.1399 42.4219 45.2027 43.0423 46.1726C43.1034 46.2642 43.1303 46.3733 43.1186 46.4817C43.1069 46.5902 43.0573 46.6915 42.978 46.7688L42.4372 47.2968C42.3378 47.3937 42.2819 47.5249 42.2819 47.6616C42.2819 47.7984 42.3378 47.9296 42.4372 48.0264L44.5535 50.0817C44.6532 50.1783 44.7883 50.2325 44.9291 50.2325C45.0699 50.2325 45.205 50.1783 45.3047 50.0817L45.8484 49.5565C45.9284 49.4805 46.0324 49.4327 46.1437 49.4208C46.255 49.409 46.3672 49.4338 46.4623 49.4912C47.4583 50.091 48.5498 50.5265 49.6923 50.7801C49.7991 50.8031 49.8947 50.8605 49.9637 50.943C50.0327 51.0254 50.0709 51.1281 50.0723 51.2343V51.9838C50.073 52.1203 50.1294 52.251 50.2291 52.3473C50.3288 52.4435 50.4637 52.4976 50.6043 52.4976H53.6004C53.7407 52.4976 53.8753 52.4435 53.9745 52.3471C54.0738 52.2507 54.1295 52.12 54.1295 51.9838V51.2343C54.128 51.1273 54.1644 51.023 54.2324 50.9388C54.3005 50.8546 54.3962 50.7956 54.5037 50.7716C55.65 50.5168 56.7445 50.0784 57.7424 49.4742C57.8372 49.4164 57.9492 49.3911 58.0605 49.4024C58.1718 49.4138 58.2759 49.461 58.3563 49.5367L58.9 50.0647C58.9488 50.1123 59.0069 50.1501 59.0709 50.1759C59.1348 50.2017 59.2034 50.215 59.2727 50.215C59.3419 50.215 59.4105 50.2017 59.4744 50.1759C59.5384 50.1501 59.5965 50.1123 59.6454 50.0647L61.7646 48.0094C61.864 47.9125 61.9198 47.7813 61.9198 47.6446C61.9198 47.5078 61.864 47.3766 61.7646 47.2798L61.2209 46.7518C61.1416 46.6745 61.092 46.5732 61.0802 46.4647C61.0685 46.3562 61.0955 46.2471 61.1566 46.1556C61.7806 45.184 62.2331 44.118 62.4954 43.0016C62.5211 42.8981 62.5822 42.8061 62.6688 42.7406C62.7553 42.6751 62.8621 42.64 62.9718 42.6411H63.7435C63.8799 42.6412 64.011 42.5902 64.1096 42.4987C64.2082 42.4072 64.2666 42.2823 64.2726 42.15ZM52.1009 48.9008C50.4301 48.9019 48.7965 48.4218 47.4066 47.5213C46.0168 46.6207 44.9331 45.3401 44.2926 43.8414C43.6522 42.3427 43.4837 40.6932 43.8085 39.1015C44.1334 37.5098 44.9369 36.0474 46.1175 34.8992C47.2981 33.751 48.8028 32.9686 50.4412 32.651C52.0797 32.3333 53.7784 32.4946 55.3224 33.1146C56.8665 33.7345 58.1866 34.7852 59.1158 36.1337C60.045 37.4823 60.5416 39.0682 60.5427 40.6908C60.542 42.865 59.6523 44.9499 58.0693 46.4873C56.4863 48.0246 54.3396 48.8887 52.1009 48.8894V48.9008Z" stroke="#DEE3FC" stroke-width="0.79" stroke-miterlimit="10"/>
<path d="M78.0465 51.991V50.0038C78.0465 49.9112 78.0086 49.8224 77.9412 49.7569C77.8737 49.6914 77.7823 49.6546 77.6869 49.6546H77.1696C77.0943 49.6552 77.021 49.6307 76.962 49.5852C76.903 49.5398 76.8618 49.4762 76.8451 49.4048C76.6666 48.6464 76.3594 47.922 75.936 47.2615C75.8947 47.1991 75.8766 47.1248 75.8846 47.051C75.8925 46.9773 75.9261 46.9083 75.9799 46.8555L76.3482 46.4978C76.3816 46.4654 76.4081 46.4269 76.4262 46.3845C76.4442 46.3422 76.4536 46.2967 76.4536 46.2509C76.4536 46.205 76.4442 46.1596 76.4262 46.1172C76.4081 46.0748 76.3816 46.0363 76.3482 46.0039L74.9042 44.6015C74.8362 44.5358 74.7443 44.4989 74.6484 44.4989C74.5525 44.4989 74.4606 44.5358 74.3926 44.6015L74.0243 44.9592C73.97 45.0114 73.899 45.044 73.823 45.0518C73.747 45.0595 73.6706 45.0419 73.6063 45.0018C72.9262 44.5906 72.1804 44.2922 71.3994 44.1189C71.3268 44.1017 71.2622 44.0613 71.2161 44.0041C71.1699 43.947 71.1449 43.8764 71.1451 43.8038V43.2843C71.1443 43.1911 71.1059 43.102 71.0381 43.0362C70.9703 42.9703 70.8785 42.933 70.7826 42.9323H68.7365C68.6411 42.9323 68.5497 42.969 68.4822 43.0345C68.4148 43.1 68.3769 43.1888 68.3769 43.2814V43.7896C68.3771 43.8622 68.3521 43.9328 68.306 43.9899C68.2599 44.0471 68.1953 44.0875 68.1226 44.1047C67.3406 44.2775 66.5937 44.5759 65.9128 44.9876C65.8485 45.0277 65.7721 45.0453 65.6961 45.0376C65.6201 45.0298 65.5491 44.9972 65.4948 44.945L65.1265 44.5873C65.0586 44.5216 64.9666 44.4847 64.8707 44.4847C64.7748 44.4847 64.6829 44.5216 64.6149 44.5873L63.1709 45.9897C63.1033 46.0557 63.0653 46.145 63.0653 46.2381C63.0653 46.3312 63.1033 46.4205 63.1709 46.4865L63.5422 46.8442C63.5959 46.8969 63.6295 46.9659 63.6375 47.0397C63.6454 47.1135 63.6273 47.1877 63.586 47.2501C63.1631 47.9112 62.855 48.6353 62.674 49.3935C62.6574 49.4648 62.6161 49.5285 62.5571 49.5739C62.4981 49.6193 62.4249 49.6438 62.3496 49.6433H61.8263C61.7791 49.6429 61.7323 49.6516 61.6885 49.6688C61.6447 49.686 61.6049 49.7114 61.5712 49.7436C61.5376 49.7757 61.5108 49.814 61.4924 49.8562C61.4739 49.8984 61.4642 49.9438 61.4639 49.9896V51.9768C61.4639 52.0694 61.5017 52.1583 61.5692 52.2237C61.6366 52.2892 61.728 52.326 61.8234 52.326H62.3496C62.4249 52.3255 62.4981 52.35 62.5571 52.3954C62.6161 52.4408 62.6574 52.5045 62.674 52.5758C62.855 53.334 63.1631 54.0581 63.586 54.7192C63.6273 54.7816 63.6454 54.8558 63.6375 54.9296C63.6295 55.0034 63.5959 55.0724 63.5422 55.1251L63.1709 55.4913C63.1033 55.5573 63.0653 55.6466 63.0653 55.7397C63.0653 55.8328 63.1033 55.9221 63.1709 55.9881L64.6149 57.3905C64.6829 57.4562 64.7748 57.4931 64.8707 57.4931C64.9666 57.4931 65.0586 57.4562 65.1265 57.3905L65.4977 57.03C65.552 56.9778 65.623 56.9452 65.699 56.9374C65.775 56.9297 65.8514 56.9473 65.9157 56.9874C66.5958 57.3986 67.3417 57.6969 68.1226 57.8703C68.1953 57.8875 68.2599 57.9279 68.306 57.9851C68.3521 58.0422 68.3771 58.1128 68.3769 58.1854V58.6964C68.3766 58.7422 68.3855 58.7877 68.4032 58.8302C68.4209 58.8727 68.4471 58.9114 68.4802 58.9441C68.5133 58.9768 68.5527 59.0028 68.5962 59.0207C68.6397 59.0386 68.6863 59.048 68.7336 59.0484H70.7797C70.8756 59.0477 70.9674 59.0103 71.0352 58.9445C71.103 58.8786 71.1414 58.7895 71.1422 58.6964V58.1854C71.142 58.1128 71.167 58.0422 71.2131 57.9851C71.2593 57.9279 71.3238 57.8875 71.3965 57.8703C72.1775 57.6969 72.9233 57.3986 73.6034 56.9874C73.6677 56.9473 73.7441 56.9297 73.8201 56.9374C73.8961 56.9452 73.9671 56.9778 74.0214 57.03L74.3897 57.3905C74.4576 57.4562 74.5496 57.4931 74.6455 57.4931C74.7414 57.4931 74.8333 57.4562 74.9012 57.3905L76.3452 55.9881C76.3787 55.9557 76.4052 55.9172 76.4232 55.8748C76.4413 55.8324 76.4506 55.787 76.4506 55.7411C76.4506 55.6953 76.4413 55.6498 76.4232 55.6075C76.4052 55.5651 76.3787 55.5266 76.3452 55.4942L75.9769 55.1365C75.9232 55.0837 75.8896 55.0148 75.8816 54.941C75.8737 54.8672 75.8918 54.7929 75.9331 54.7305C76.3565 54.07 76.6637 53.3457 76.8422 52.5872C76.8588 52.5159 76.9001 52.4522 76.9591 52.4068C77.0181 52.3613 77.0913 52.3368 77.1666 52.3374H77.6928C77.7866 52.3359 77.8761 52.2988 77.9422 52.2341C78.0083 52.1694 78.0457 52.0822 78.0465 51.991ZM69.7537 56.2748C68.6795 56.2754 67.6293 55.9666 66.7359 55.3875C65.8424 54.8084 65.1458 53.985 64.7342 53.0214C64.3226 52.0578 64.2145 50.9973 64.4235 49.974C64.6325 48.9508 65.1492 48.0106 65.9084 47.2726C66.6675 46.5345 67.635 46.0317 68.6884 45.8276C69.7418 45.6235 70.8339 45.7274 71.8265 46.1261C72.8191 46.5248 73.6677 47.2004 74.2649 48.0675C74.8622 48.9346 75.1813 49.9542 75.1819 50.9974C75.1823 51.6901 75.0421 52.376 74.7696 53.0161C74.497 53.6562 74.0973 54.2379 73.5932 54.728C73.0892 55.218 72.4907 55.6068 71.8319 55.8723C71.1731 56.1377 70.4669 56.2745 69.7537 56.2748Z" fill="#DEE3FC"/>
<path d="M39.6047 104.495C40.152 104.495 40.5956 104.064 40.5956 103.533C40.5956 103.001 40.152 102.571 39.6047 102.571C39.0574 102.571 38.6138 103.001 38.6138 103.533C38.6138 104.064 39.0574 104.495 39.6047 104.495Z" fill="#A4AFFF"/>
<path d="M172.204 78.2305C172.752 78.2305 173.195 77.7997 173.195 77.2682C173.195 76.7366 172.752 76.3058 172.204 76.3058C171.657 76.3058 171.213 76.7366 171.213 77.2682C171.213 77.7997 171.657 78.2305 172.204 78.2305Z" fill="#A4AFFF"/>
<path d="M170.225 43.9064C170.773 43.9064 171.216 43.4756 171.216 42.9441C171.216 42.4126 170.773 41.9817 170.225 41.9817C169.678 41.9817 169.234 42.4126 169.234 42.9441C169.234 43.4756 169.678 43.9064 170.225 43.9064Z" fill="#A4AFFF"/>
<path d="M134.64 31.8782C134.982 31.8782 135.259 31.6088 135.259 31.2764C135.259 30.944 134.982 30.6746 134.64 30.6746C134.297 30.6746 134.02 30.944 134.02 31.2764C134.02 31.6088 134.297 31.8782 134.64 31.8782Z" fill="#A4AFFF"/>
<path d="M43.4806 23.2454C43.4812 23.365 43.4452 23.4821 43.3773 23.5818C43.3093 23.6816 43.2125 23.7595 43.0989 23.8058C42.9854 23.8521 42.8603 23.8646 42.7394 23.8418C42.6185 23.819 42.5073 23.762 42.4198 23.6778C42.3323 23.5936 42.2725 23.4862 42.2479 23.369C42.2233 23.2518 42.235 23.1302 42.2816 23.0195C42.3282 22.9088 42.4076 22.8139 42.5096 22.747C42.6117 22.6801 42.7319 22.6441 42.855 22.6436C43.0199 22.6435 43.1782 22.7068 43.2953 22.8195C43.4124 22.9322 43.479 23.0853 43.4806 23.2454Z" fill="#A4AFFF"/>
<path d="M57.2223 60.3779C57.2223 60.4975 57.1858 60.6144 57.1174 60.7138C57.0489 60.8133 56.9517 60.8908 56.8379 60.9365C56.7242 60.9823 56.599 60.9943 56.4782 60.9709C56.3574 60.9476 56.2465 60.89 56.1594 60.8054C56.0723 60.7209 56.013 60.6131 55.989 60.4958C55.965 60.3785 55.9773 60.257 56.0244 60.1465C56.0716 60.036 56.1514 59.9415 56.2538 59.8751C56.3562 59.8087 56.4765 59.7732 56.5997 59.7732C56.7648 59.7732 56.9232 59.8369 57.0399 59.9503C57.1567 60.0637 57.2223 60.2175 57.2223 60.3779Z" fill="#A4AFFF"/>
<path d="M34.4425 104.496C34.4419 104.615 34.4051 104.731 34.3366 104.83C34.2682 104.928 34.1712 105.005 34.0579 105.05C33.9447 105.095 33.8201 105.107 33.7001 105.083C33.5801 105.06 33.47 105.002 33.3836 104.918C33.2972 104.833 33.2385 104.726 33.2148 104.61C33.1911 104.493 33.2036 104.372 33.2506 104.262C33.2976 104.152 33.377 104.059 33.4788 103.993C33.5807 103.927 33.7004 103.891 33.8228 103.891C33.9044 103.891 33.9853 103.907 34.0606 103.937C34.136 103.968 34.2045 104.012 34.262 104.069C34.3196 104.125 34.3652 104.192 34.3962 104.265C34.4271 104.338 34.4429 104.417 34.4425 104.496Z" fill="#A4AFFF"/>
<path d="M157.685 105.064C158.233 105.064 158.676 104.633 158.676 104.102C158.676 103.57 158.233 103.139 157.685 103.139C157.138 103.139 156.694 103.57 156.694 104.102C156.694 104.633 157.138 105.064 157.685 105.064Z" fill="#A4AFFF"/>
<path d="M178.732 105.064C179.279 105.064 179.723 104.633 179.723 104.102C179.723 103.57 179.279 103.139 178.732 103.139C178.184 103.139 177.741 103.57 177.741 104.102C177.741 104.633 178.184 105.064 178.732 105.064Z" fill="#A4AFFF"/>
<path d="M60.5427 21.5881C61.09 21.5881 61.5336 21.1572 61.5336 20.6257C61.5336 20.0942 61.09 19.6633 60.5427 19.6633C59.9954 19.6633 59.5518 20.0942 59.5518 20.6257C59.5518 21.1572 59.9954 21.5881 60.5427 21.5881Z" fill="#A4AFFF"/>
<path d="M128.835 64.3602C128.834 64.6145 128.756 64.8628 128.61 65.0739C128.464 65.285 128.257 65.4494 128.015 65.5463C127.773 65.6432 127.507 65.6683 127.251 65.6183C126.994 65.5684 126.758 65.4457 126.573 65.2657C126.388 65.0858 126.263 64.8566 126.212 64.6072C126.161 64.3579 126.187 64.0994 126.288 63.8646C126.388 63.6298 126.558 63.4291 126.775 63.2879C126.993 63.1468 127.249 63.0714 127.511 63.0714C127.685 63.0714 127.857 63.1048 128.018 63.1696C128.179 63.2344 128.325 63.3294 128.448 63.4491C128.571 63.5688 128.668 63.7109 128.735 63.8672C128.801 64.0236 128.835 64.1911 128.835 64.3602Z" fill="#A4AFFF"/>
<path d="M31.1542 48.4543C31.1542 48.7087 31.0765 48.9573 30.931 49.1688C30.7855 49.3803 30.5787 49.5451 30.3367 49.6424C30.0948 49.7398 29.8285 49.7652 29.5717 49.7156C29.3148 49.666 29.0789 49.5435 28.8937 49.3637C28.7085 49.1838 28.5824 48.9547 28.5313 48.7052C28.4802 48.4558 28.5064 48.1972 28.6067 47.9622C28.7069 47.7272 28.8766 47.5264 29.0944 47.3851C29.3121 47.2438 29.5681 47.1683 29.83 47.1683C30.1812 47.1683 30.518 47.3038 30.7663 47.545C31.0147 47.7862 31.1542 48.1133 31.1542 48.4543Z" fill="#A4AFFF"/>
<path d="M27.4304 27.2593H25.7613C25.6547 27.2593 25.5684 27.3432 25.5684 27.4466V29.0676C25.5684 29.1711 25.6547 29.255 25.7613 29.255H27.4304C27.5369 29.255 27.6233 29.1711 27.6233 29.0676V27.4466C27.6233 27.3432 27.5369 27.2593 27.4304 27.2593Z" fill="white"/>
<path d="M30.1779 27.2593H28.5088C28.4023 27.2593 28.3159 27.3432 28.3159 27.4466V29.0676C28.3159 29.1711 28.4023 29.255 28.5088 29.255H30.1779C30.2845 29.255 30.3708 29.1711 30.3708 29.0676V27.4466C30.3708 27.3432 30.2845 27.2593 30.1779 27.2593Z" fill="white"/>
<path d="M32.9255 27.2593H31.2564C31.1499 27.2593 31.0635 27.3432 31.0635 27.4466V29.0676C31.0635 29.1711 31.1499 29.255 31.2564 29.255H32.9255C33.032 29.255 33.1184 29.1711 33.1184 29.0676V27.4466C33.1184 27.3432 33.032 27.2593 32.9255 27.2593Z" fill="white"/>
<path d="M167.323 97.3055H165.654C165.547 97.3055 165.461 97.3894 165.461 97.4929V99.1139C165.461 99.2174 165.547 99.3013 165.654 99.3013H167.323C167.429 99.3013 167.516 99.2174 167.516 99.1139V97.4929C167.516 97.3894 167.429 97.3055 167.323 97.3055Z" fill="#DEE3FC"/>
<path d="M170.07 97.3055H168.401C168.295 97.3055 168.208 97.3894 168.208 97.4929V99.1139C168.208 99.2174 168.295 99.3013 168.401 99.3013H170.07C170.177 99.3013 170.263 99.2174 170.263 99.1139V97.4929C170.263 97.3894 170.177 97.3055 170.07 97.3055Z" fill="#DEE3FC"/>
<path d="M172.818 97.3055H171.149C171.042 97.3055 170.956 97.3894 170.956 97.4929V99.1139C170.956 99.2174 171.042 99.3013 171.149 99.3013H172.818C172.925 99.3013 173.011 99.2174 173.011 99.1139V97.4929C173.011 97.3894 172.925 97.3055 172.818 97.3055Z" fill="#DEE3FC"/>
<path d="M40.3268 96.2128H38.6578C38.5512 96.2128 38.4648 96.2967 38.4648 96.4001V98.0211C38.4648 98.1246 38.5512 98.2085 38.6578 98.2085H40.3268C40.4334 98.2085 40.5198 98.1246 40.5198 98.0211V96.4001C40.5198 96.2967 40.4334 96.2128 40.3268 96.2128Z" fill="#DEE3FC"/>
<path d="M43.0715 96.2128H41.4024C41.2958 96.2128 41.2095 96.2967 41.2095 96.4001V98.0211C41.2095 98.1246 41.2958 98.2085 41.4024 98.2085H43.0715C43.178 98.2085 43.2644 98.1246 43.2644 98.0211V96.4001C43.2644 96.2967 43.178 96.2128 43.0715 96.2128Z" fill="#DEE3FC"/>
<path d="M45.819 96.2128H44.15C44.0434 96.2128 43.957 96.2967 43.957 96.4001V98.0211C43.957 98.1246 44.0434 98.2085 44.15 98.2085H45.819C45.9256 98.2085 46.012 98.1246 46.012 98.0211V96.4001C46.012 96.2967 45.9256 96.2128 45.819 96.2128Z" fill="#DEE3FC"/>
<path d="M114.775 17.7319H75.2256C71.779 17.7319 68.9849 20.4455 68.9849 23.7929V109.288C68.9849 112.635 71.779 115.349 75.2256 115.349H114.775C118.222 115.349 121.016 112.635 121.016 109.288V23.7929C121.016 20.4455 118.222 17.7319 114.775 17.7319Z" fill="#3945BA"/>
<path d="M114.573 18.5863H75.4242C72.4053 18.5863 69.958 20.9631 69.958 23.895V108.652C69.958 111.584 72.4053 113.96 75.4242 113.96H114.573C117.592 113.96 120.039 111.584 120.039 108.652V23.895C120.039 20.9631 117.592 18.5863 114.573 18.5863Z" fill="white"/>
<path d="M117.85 23.7279V108.388C117.85 108.86 117.755 109.327 117.569 109.764C117.384 110.2 117.111 110.596 116.768 110.93C116.425 111.264 116.017 111.529 115.568 111.71C115.119 111.891 114.638 111.985 114.152 111.985H75.8598C75.3738 111.985 74.8925 111.893 74.4434 111.712C73.9943 111.532 73.5861 111.268 73.2422 110.934C72.8983 110.601 72.6254 110.205 72.4391 109.769C72.2527 109.333 72.1566 108.866 72.1562 108.394V23.7279C72.1562 22.7747 72.5461 21.8606 73.2401 21.1866C73.9341 20.5126 74.8754 20.1339 75.8569 20.1339H82.2438C82.418 20.1332 82.5889 20.1799 82.7372 20.2687C82.8855 20.3575 83.0052 20.4849 83.0827 20.6364L83.7609 21.9508C83.9121 22.2474 84.146 22.4969 84.4358 22.671C84.7256 22.8451 85.0599 22.9368 85.4007 22.9359H104.611C104.952 22.9368 105.286 22.8451 105.576 22.671C105.866 22.4969 106.1 22.2474 106.251 21.9508L106.929 20.6364C107.007 20.4849 107.126 20.3575 107.275 20.2687C107.423 20.1799 107.594 20.1332 107.768 20.1339H114.146C114.632 20.1335 115.114 20.2261 115.563 20.4064C116.012 20.5867 116.42 20.8511 116.764 21.1846C117.108 21.518 117.381 21.914 117.567 22.3499C117.753 22.7858 117.849 23.2531 117.85 23.7251V23.7279Z" fill="#DEE3FC"/>
<path d="M103.062 21.4H87.5898C87.4169 21.4 87.2512 21.3333 87.1289 21.2146C87.0067 21.0959 86.938 20.9349 86.938 20.767C86.938 20.5991 87.0067 20.4381 87.1289 20.3193C87.2512 20.2006 87.4169 20.1339 87.5898 20.1339H103.062C103.235 20.1339 103.4 20.2006 103.523 20.3193C103.645 20.4381 103.714 20.5991 103.714 20.767C103.714 20.9349 103.645 21.0959 103.523 21.2146C103.4 21.3333 103.235 21.4 103.062 21.4Z" fill="#DEE3FC"/>
<path d="M111.77 92.4796H77.3387C75.9858 92.4796 74.8892 93.5447 74.8892 94.8586V106.665C74.8892 107.979 75.9858 109.044 77.3387 109.044H111.77C113.122 109.044 114.219 107.979 114.219 106.665V94.8586C114.219 93.5447 113.122 92.4796 111.77 92.4796Z" stroke="#698BD1" stroke-linecap="round" stroke-linejoin="round" stroke-dasharray="2.84 2.84"/>
<path d="M110.025 56.7668H92.9423C91.9672 56.7668 91.1768 57.5345 91.1768 58.4815V66.683C91.1768 67.6299 91.9672 68.3976 92.9423 68.3976H110.025C111 68.3976 111.79 67.6299 111.79 66.683V58.4815C111.79 57.5345 111 56.7668 110.025 56.7668Z" stroke="#698BD1" stroke-linecap="round" stroke-linejoin="round" stroke-dasharray="2.84 2.84"/>
<path d="M113.702 71.1849H78.4259C77.2636 71.1849 76.3213 72.1001 76.3213 73.2289V87.6787C76.3213 88.8075 77.2636 89.7226 78.4259 89.7226H113.702C114.864 89.7226 115.806 88.8075 115.806 87.6787V73.2289C115.806 72.1001 114.864 71.1849 113.702 71.1849Z" fill="#4B5A9B"/>
<path d="M114.219 71.7277V86.1859C114.22 86.4537 114.166 86.7189 114.06 86.9664C113.955 87.2139 113.8 87.4387 113.605 87.628C113.41 87.8174 113.179 87.9675 112.924 88.0698C112.669 88.1721 112.396 88.2246 112.12 88.2242H76.9909C76.7151 88.225 76.442 88.1729 76.187 88.0709C75.9321 87.969 75.7003 87.8191 75.5051 87.6301C75.3098 87.441 75.1549 87.2163 75.0492 86.969C74.9436 86.7217 74.8892 86.4565 74.8892 86.1888V71.7277C74.8892 71.1863 75.1106 70.6671 75.5047 70.2844C75.8989 69.9016 76.4334 69.6865 76.9909 69.6865H112.117C112.675 69.6865 113.209 69.9016 113.604 70.2844C113.998 70.6671 114.219 71.1863 114.219 71.7277Z" fill="#7F95F4"/>
<path d="M88.4753 73.9069H78.1276C77.3431 73.9069 76.707 74.5246 76.707 75.2865V85.3361C76.707 86.0981 77.3431 86.7158 78.1276 86.7158H88.4753C89.2599 86.7158 89.896 86.0981 89.896 85.3361V75.2865C89.896 74.5246 89.2599 73.9069 88.4753 73.9069Z" fill="white"/>
<path d="M100.741 75.5292H91.6269C91.5678 75.5292 91.5093 75.5179 91.4546 75.496C91.4 75.474 91.3504 75.4418 91.3086 75.4012C91.2668 75.3606 91.2336 75.3124 91.211 75.2594C91.1884 75.2063 91.1768 75.1495 91.1768 75.0921C91.1775 74.9766 91.2253 74.8661 91.3096 74.7848C91.394 74.7034 91.508 74.6577 91.6269 74.6577H100.741C100.86 74.6577 100.973 74.7035 101.057 74.7849C101.141 74.8664 101.188 74.9769 101.188 75.0921C101.188 75.207 101.142 75.3174 101.059 75.3992C100.975 75.481 100.862 75.5277 100.744 75.5292H100.741Z" fill="#B2C1F9"/>
<path d="M96.5874 77.2694H91.6181C91.4987 77.2694 91.3842 77.2233 91.2998 77.1413C91.2154 77.0593 91.168 76.9481 91.168 76.8322C91.1676 76.775 91.1789 76.7184 91.2012 76.6655C91.2236 76.6126 91.2565 76.5646 91.2981 76.5242C91.3397 76.4838 91.3892 76.4518 91.4436 76.4301C91.498 76.4084 91.5564 76.3975 91.6152 76.3978H96.5844C96.6432 76.3975 96.7014 76.4083 96.7558 76.4298C96.8102 76.4513 96.8597 76.483 96.9015 76.523C96.9433 76.5631 96.9766 76.6108 96.9994 76.6633C97.0223 76.7159 97.0342 76.7723 97.0346 76.8293C97.0346 76.9453 96.9872 77.0565 96.9027 77.1385C96.8183 77.2205 96.7038 77.2665 96.5844 77.2665L96.5874 77.2694Z" fill="#B2C1F9"/>
<path d="M111.837 77.2694H98.414C98.3549 77.2694 98.2964 77.2581 98.2418 77.2361C98.1871 77.2141 98.1375 77.1819 98.0957 77.1413C98.0539 77.1007 98.0208 77.0525 97.9981 76.9995C97.9755 76.9464 97.9639 76.8896 97.9639 76.8322C97.9635 76.775 97.9748 76.7184 97.9971 76.6655C98.0195 76.6126 98.0524 76.5646 98.094 76.5242C98.1356 76.4838 98.1851 76.4518 98.2395 76.4301C98.2939 76.4084 98.3523 76.3975 98.4111 76.3978H111.837C111.895 76.3975 111.953 76.4082 112.007 76.4296C112.061 76.4509 112.11 76.4824 112.152 76.5222C112.193 76.562 112.226 76.6094 112.249 76.6616C112.272 76.7138 112.284 76.7698 112.284 76.8265C112.284 76.8835 112.273 76.9401 112.251 76.9929C112.229 77.0458 112.196 77.0939 112.155 77.1345C112.114 77.1751 112.065 77.2074 112.011 77.2295C111.957 77.2517 111.898 77.2633 111.84 77.2637L111.837 77.2694Z" fill="#B2C1F9"/>
<path d="M99.3029 79.0083H91.6269C91.5678 79.0083 91.5093 78.997 91.4547 78.975C91.4 78.953 91.3504 78.9208 91.3086 78.8802C91.2668 78.8396 91.2337 78.7914 91.211 78.7384C91.1884 78.6853 91.1768 78.6285 91.1768 78.5711C91.1764 78.5139 91.1877 78.4573 91.21 78.4044C91.2324 78.3515 91.2653 78.3035 91.3069 78.2631C91.3485 78.2227 91.3979 78.1907 91.4524 78.169C91.5068 78.1473 91.5652 78.1364 91.624 78.1367H99.3029C99.3618 78.1364 99.4201 78.1473 99.4745 78.169C99.529 78.1907 99.5784 78.2227 99.62 78.2631C99.6616 78.3035 99.6946 78.3515 99.7169 78.4044C99.7392 78.4573 99.7505 78.5139 99.7501 78.5711C99.7501 78.6865 99.7031 78.7973 99.6193 78.8792C99.5355 78.9611 99.4218 79.0075 99.3029 79.0083Z" fill="#B2C1F9"/>
<path d="M105.816 79.0083H100.993C100.875 79.0053 100.764 78.9579 100.682 78.8763C100.6 78.7946 100.554 78.6851 100.554 78.5711C100.554 78.5139 100.565 78.4573 100.587 78.4044C100.61 78.3515 100.643 78.3035 100.684 78.2631C100.726 78.2227 100.775 78.1907 100.83 78.169C100.884 78.1473 100.943 78.1364 101.001 78.1367H105.816C105.874 78.1364 105.933 78.1472 105.987 78.1687C106.042 78.1902 106.091 78.2219 106.133 78.2619C106.175 78.302 106.208 78.3497 106.231 78.4022C106.254 78.4548 106.266 78.5112 106.266 78.5682C106.266 78.6257 106.254 78.6825 106.232 78.7355C106.209 78.7886 106.176 78.8368 106.134 78.8774C106.092 78.918 106.043 78.9502 105.988 78.9721C105.933 78.9941 105.875 79.0054 105.816 79.0054V79.0083Z" fill="#B2C1F9"/>
<path d="M111.837 79.0083H107.394C107.275 79.0083 107.16 78.9622 107.076 78.8802C106.991 78.7982 106.944 78.687 106.944 78.5711C106.943 78.5139 106.955 78.4573 106.977 78.4044C106.999 78.3515 107.032 78.3035 107.074 78.2631C107.116 78.2227 107.165 78.1907 107.219 78.169C107.274 78.1473 107.332 78.1364 107.391 78.1367H111.837C111.895 78.1364 111.953 78.1471 112.007 78.1685C112.061 78.1898 112.111 78.2213 112.152 78.2611C112.194 78.3009 112.227 78.3483 112.249 78.4005C112.272 78.4527 112.284 78.5087 112.284 78.5654C112.285 78.6224 112.274 78.679 112.251 78.7318C112.229 78.7847 112.197 78.8328 112.155 78.8734C112.114 78.914 112.065 78.9463 112.011 78.9684C111.957 78.9906 111.899 79.0022 111.84 79.0026L111.837 79.0083Z" fill="#B2C1F9"/>
<path d="M111.837 80.7578H91.6269C91.5678 80.7578 91.5093 80.7465 91.4547 80.7245C91.4 80.7025 91.3504 80.6703 91.3086 80.6297C91.2668 80.5891 91.2337 80.5409 91.211 80.4879C91.1884 80.4349 91.1768 80.378 91.1768 80.3206C91.1764 80.2634 91.1877 80.2068 91.21 80.1539C91.2324 80.1011 91.2653 80.053 91.3069 80.0126C91.3485 79.9722 91.3979 79.9402 91.4524 79.9185C91.5068 79.8968 91.5652 79.8859 91.624 79.8862H111.837C111.895 79.8859 111.953 79.8967 112.007 79.918C112.061 79.9393 112.111 79.9708 112.152 80.0106C112.194 80.0504 112.227 80.0978 112.249 80.15C112.272 80.2022 112.284 80.2582 112.284 80.3149C112.285 80.3719 112.273 80.4285 112.251 80.4813C112.229 80.5342 112.197 80.5823 112.155 80.6229C112.114 80.6635 112.065 80.6958 112.011 80.7179C111.957 80.7401 111.899 80.7517 111.84 80.7521L111.837 80.7578Z" fill="#B2C1F9"/>
<path d="M102.749 82.4891H91.6269C91.5678 82.4891 91.5093 82.4778 91.4546 82.4558C91.4 82.4339 91.3504 82.4017 91.3086 82.3611C91.2668 82.3205 91.2336 82.2723 91.211 82.2192C91.1884 82.1662 91.1768 82.1093 91.1768 82.0519C91.1768 81.9945 91.1884 81.9377 91.211 81.8846C91.2336 81.8316 91.2668 81.7834 91.3086 81.7428C91.3504 81.7022 91.4 81.67 91.4546 81.648C91.5093 81.6261 91.5678 81.6147 91.6269 81.6147H102.749C102.869 81.6147 102.983 81.6608 103.068 81.7428C103.152 81.8248 103.199 81.936 103.199 82.0519C103.199 82.1679 103.152 82.2791 103.068 82.3611C102.983 82.4431 102.869 82.4891 102.749 82.4891Z" fill="#B2C1F9"/>
<path d="M111.837 82.4896H104.529C104.41 82.4896 104.295 82.4435 104.211 82.3615C104.127 82.2795 104.079 82.1683 104.079 82.0524C104.078 81.9945 104.089 81.937 104.112 81.8833C104.134 81.8296 104.167 81.7808 104.209 81.7396C104.251 81.6984 104.301 81.6656 104.356 81.6433C104.411 81.621 104.47 81.6095 104.529 81.6095H111.837C111.896 81.6091 111.954 81.6201 112.009 81.6418C112.063 81.6635 112.112 81.6955 112.154 81.7359C112.196 81.7763 112.229 81.8243 112.251 81.8772C112.273 81.9301 112.285 81.9867 112.284 82.0439C112.285 82.1009 112.273 82.1574 112.251 82.2103C112.229 82.2631 112.197 82.3112 112.155 82.3518C112.114 82.3924 112.065 82.4247 112.011 82.4469C111.957 82.4691 111.899 82.4807 111.84 82.481L111.837 82.4896Z" fill="#B2C1F9"/>
<path d="M98.1629 84.2266H91.6269C91.5682 84.227 91.5099 84.2161 91.4555 84.1946C91.4011 84.1731 91.3516 84.1415 91.3098 84.1014C91.268 84.0613 91.2347 84.0137 91.2119 83.9611C91.1891 83.9085 91.1771 83.8521 91.1768 83.7951C91.1768 83.7377 91.1884 83.6808 91.211 83.6278C91.2336 83.5747 91.2668 83.5266 91.3086 83.486C91.3504 83.4454 91.4 83.4132 91.4546 83.3912C91.5093 83.3692 91.5678 83.3579 91.6269 83.3579H98.1629C98.2818 83.3587 98.3955 83.405 98.4793 83.487C98.5631 83.5689 98.6101 83.6796 98.6101 83.7951C98.6101 83.852 98.5985 83.9083 98.576 83.9609C98.5535 84.0134 98.5205 84.0611 98.479 84.1012C98.4374 84.1413 98.3881 84.1731 98.3338 84.1946C98.2796 84.2161 98.2215 84.227 98.1629 84.2266Z" fill="#B2C1F9"/>
<path d="M106.464 84.2266H99.9311C99.8724 84.227 99.8141 84.2161 99.7597 84.1946C99.7053 84.1731 99.6558 84.1415 99.614 84.1014C99.5722 84.0613 99.539 84.0137 99.5161 83.9611C99.4933 83.9085 99.4813 83.8521 99.481 83.7951C99.481 83.6791 99.5284 83.5679 99.6128 83.486C99.6972 83.404 99.8117 83.3579 99.9311 83.3579H106.464C106.523 83.3579 106.582 83.3692 106.636 83.3912C106.691 83.4132 106.741 83.4454 106.782 83.486C106.824 83.5266 106.857 83.5747 106.88 83.6278C106.903 83.6808 106.914 83.7377 106.914 83.7951C106.915 83.8522 106.903 83.9089 106.881 83.9618C106.859 84.0146 106.826 84.0626 106.784 84.1031C106.743 84.1435 106.693 84.1754 106.639 84.1971C106.584 84.2188 106.526 84.2298 106.467 84.2294L106.464 84.2266Z" fill="#B2C1F9"/>
<path d="M111.837 84.2266H108.037C107.978 84.227 107.92 84.2161 107.866 84.1946C107.811 84.1731 107.762 84.1415 107.72 84.1014C107.678 84.0613 107.645 84.0137 107.622 83.9611C107.599 83.9086 107.587 83.8521 107.587 83.7951C107.587 83.6792 107.634 83.568 107.719 83.486C107.803 83.404 107.918 83.3579 108.037 83.3579H111.837C111.896 83.3575 111.954 83.3685 112.009 83.3902C112.063 83.4119 112.113 83.4439 112.154 83.4843C112.196 83.5247 112.229 83.5727 112.251 83.6256C112.273 83.6785 112.285 83.7351 112.284 83.7923C112.285 83.8489 112.274 83.9051 112.252 83.9576C112.23 84.0101 112.197 84.0579 112.156 84.0982C112.115 84.1385 112.066 84.1706 112.013 84.1927C111.959 84.2147 111.901 84.2262 111.843 84.2266H111.837Z" fill="#B2C1F9"/>
<path d="M100.741 85.9677H91.6269C91.5682 85.9681 91.5099 85.9572 91.4555 85.9357C91.4011 85.9142 91.3516 85.8826 91.3098 85.8425C91.268 85.8024 91.2347 85.7547 91.2119 85.7022C91.1891 85.6496 91.1771 85.5932 91.1768 85.5362C91.1768 85.4788 91.1884 85.4219 91.211 85.3689C91.2336 85.3158 91.2668 85.2676 91.3086 85.227C91.3504 85.1864 91.4 85.1542 91.4546 85.1323C91.5093 85.1103 91.5678 85.099 91.6269 85.099H100.741C100.86 85.099 100.973 85.1448 101.057 85.2262C101.141 85.3077 101.188 85.4181 101.188 85.5333C101.189 85.59 101.178 85.6462 101.156 85.6987C101.134 85.7512 101.101 85.799 101.06 85.8393C101.019 85.8796 100.97 85.9117 100.917 85.9338C100.863 85.9558 100.805 85.9673 100.747 85.9677H100.741Z" fill="#B2C1F9"/>
<path d="M111.837 75.5292H102.723C102.603 75.5292 102.489 75.4832 102.404 75.4012C102.32 75.3192 102.272 75.208 102.272 75.0921C102.273 74.9766 102.321 74.8661 102.405 74.7848C102.49 74.7034 102.604 74.6577 102.723 74.6577H111.837C111.896 74.6573 111.954 74.6683 112.008 74.69C112.063 74.7117 112.112 74.7437 112.154 74.7841C112.195 74.8245 112.228 74.8725 112.251 74.9254C112.273 74.9783 112.284 75.0349 112.284 75.0921C112.284 75.1491 112.273 75.2057 112.251 75.2585C112.229 75.3113 112.196 75.3594 112.155 75.4C112.114 75.4406 112.065 75.4729 112.011 75.4951C111.957 75.5173 111.898 75.5289 111.84 75.5292H111.837Z" fill="#B2C1F9"/>
<path d="M114.219 71.7277V72.3352H74.8892V71.7277C74.8892 71.1863 75.1106 70.6671 75.5047 70.2844C75.8989 69.9016 76.4334 69.6865 76.9909 69.6865H112.117C112.675 69.6865 113.209 69.9016 113.604 70.2844C113.998 70.6671 114.219 71.1863 114.219 71.7277Z" fill="#3052CE"/>
<path d="M106.806 71.0577C106.811 71.1197 106.803 71.1822 106.784 71.2414C106.764 71.3006 106.732 71.3554 106.69 71.4027C106.606 71.4983 106.487 71.5575 106.357 71.5672C106.228 71.577 106.101 71.5366 106.002 71.4549C105.904 71.3732 105.843 71.2568 105.833 71.1315C105.83 71.107 105.83 71.0822 105.833 71.0577C105.842 70.9386 105.898 70.8275 105.988 70.7464C106.078 70.6653 106.197 70.6202 106.319 70.6202C106.442 70.6202 106.561 70.6653 106.651 70.7464C106.741 70.8275 106.797 70.9386 106.806 71.0577Z" fill="#DEE3FC"/>
<path d="M109.3 71.0571C109.3 71.1508 109.272 71.2427 109.219 71.3209C109.166 71.3992 109.09 71.4604 109.001 71.4968C108.912 71.5332 108.814 71.5432 108.719 71.5254C108.624 71.5077 108.537 71.463 108.468 71.3971C108.4 71.3312 108.353 71.247 108.333 71.1552C108.314 71.0633 108.323 70.9679 108.359 70.8811C108.396 70.7943 108.458 70.7199 108.538 70.6673C108.618 70.6147 108.712 70.5864 108.808 70.5858C108.873 70.5855 108.936 70.5973 108.995 70.6208C109.055 70.6443 109.109 70.6789 109.154 70.7227C109.2 70.7664 109.236 70.8185 109.261 70.8759C109.286 70.9332 109.299 70.9948 109.3 71.0571Z" fill="#DEE3FC"/>
<path d="M111.79 71.0571C111.791 71.1508 111.763 71.2426 111.71 71.3209C111.656 71.3992 111.581 71.4604 111.492 71.4968C111.403 71.5332 111.305 71.5432 111.21 71.5254C111.115 71.5077 111.028 71.463 110.959 71.3971C110.89 71.3312 110.843 71.247 110.824 71.1552C110.805 71.0633 110.814 70.9679 110.85 70.8811C110.886 70.7943 110.949 70.7198 111.028 70.6673C111.108 70.6147 111.203 70.5864 111.299 70.5858C111.428 70.5858 111.551 70.6355 111.642 70.7238C111.733 70.8122 111.784 70.9321 111.784 71.0571H111.79Z" fill="#DEE3FC"/>
<path d="M87.0665 56.7773H79.2824C78.1281 56.7773 77.1924 57.6861 77.1924 58.8071V66.367C77.1924 67.488 78.1281 68.3968 79.2824 68.3968H87.0665C88.2208 68.3968 89.1565 67.488 89.1565 66.367V58.8071C89.1565 57.6861 88.2208 56.7773 87.0665 56.7773Z" stroke="#495AD6" stroke-width="0.9" stroke-miterlimit="10"/>
<path d="M81.3081 60.9058L79.5835 62.5807L81.3198 64.267" stroke="#495AD6" stroke-width="1.67" stroke-linecap="round" stroke-linejoin="round"/>
<path d="M85.041 60.9058L86.7627 62.5807L85.0264 64.267" stroke="#495AD6" stroke-width="1.67" stroke-linecap="round" stroke-linejoin="round"/>
<path d="M83.9802 60.9058L82.3667 64.267" stroke="#495AD6" stroke-width="1.67" stroke-linecap="round" stroke-linejoin="round"/>
<path d="M111.828 26.0923H77.2802C75.9597 26.0923 74.8892 27.132 74.8892 28.4145V52.0536C74.8892 53.3361 75.9597 54.3757 77.2802 54.3757H111.828C113.149 54.3757 114.219 53.3361 114.219 52.0536V28.4145C114.219 27.132 113.149 26.0923 111.828 26.0923Z" fill="#B2C1F9"/>
<path d="M106.254 39.0973C109.402 39.0973 111.954 36.6188 111.954 33.5615C111.954 30.5042 109.402 28.0258 106.254 28.0258C103.106 28.0258 100.554 30.5042 100.554 33.5615C100.554 36.6188 103.106 39.0973 106.254 39.0973Z" fill="#F0F4FF"/>
<path d="M98.0078 54.3765H77.2802C76.6461 54.3765 76.0379 54.1319 75.5895 53.6964C75.1411 53.2609 74.8892 52.6702 74.8892 52.0544V48.3326L83.9507 33.0738C84.0585 32.8916 84.214 32.7402 84.4013 32.6349C84.5886 32.5297 84.8012 32.4742 85.0176 32.4742C85.234 32.4742 85.4466 32.5297 85.6339 32.6349C85.8213 32.7402 85.9767 32.8916 86.0845 33.0738L92.9538 44.5939L98.0399 53.1502C98.1511 53.3377 98.2069 53.5514 98.2012 53.7677C98.1955 53.9841 98.1286 54.1947 98.0078 54.3765Z" fill="white"/>
<path d="M106.946 54.3771H87.125L92.9536 44.5945L96.0755 39.3114C96.1481 39.1888 96.245 39.0814 96.3604 38.9952C96.4759 38.9091 96.6077 38.8459 96.7483 38.8092C96.8889 38.7726 97.0356 38.7632 97.18 38.7817C97.3243 38.8001 97.4635 38.846 97.5896 38.9168C97.7591 39.0104 97.8995 39.1467 97.9959 39.3114L106.946 54.3771Z" fill="#F0F4FF"/>
<path d="M146.262 98.302H130.98V120.604H146.262V98.302Z" fill="#3B47BC"/>
<path d="M152.111 98.302H146.259V120.604H152.111V98.302Z" fill="#495AD6"/>
<path d="M151.395 99.1584H147.098V99.871H151.395V99.1584Z" fill="#B2C1F9"/>
<path d="M151.395 100.687H147.098V101.4H151.395V100.687Z" fill="#B2C1F9"/>
<path d="M151.395 102.217H147.098V102.93H151.395V102.217Z" fill="#B2C1F9"/>
<path d="M151.395 103.747H147.098V104.459H151.395V103.747Z" fill="#B2C1F9"/>
<path d="M151.395 105.274H147.098V105.986H151.395V105.274Z" fill="#B2C1F9"/>
<path d="M151.395 106.805H147.098V107.517H151.395V106.805Z" fill="#B2C1F9"/>
<path d="M151.395 108.332H147.098V109.045H151.395V108.332Z" fill="#B2C1F9"/>
<path d="M151.395 109.862H147.098V110.575H151.395V109.862Z" fill="#B2C1F9"/>
<path d="M151.395 111.392H147.098V112.105H151.395V111.392Z" fill="#B2C1F9"/>
<path d="M151.395 112.919H147.098V113.631H151.395V112.919Z" fill="#B2C1F9"/>
<path d="M151.395 114.45H147.098V115.162H151.395V114.45Z" fill="#B2C1F9"/>
<path d="M151.395 115.98H147.098V116.692H151.395V115.98Z" fill="#B2C1F9"/>
<path d="M151.395 117.506H147.098V118.219H151.395V117.506Z" fill="#B2C1F9"/>
<path d="M151.395 119.037H147.098V119.75H151.395V119.037Z" fill="#B2C1F9"/>
<path d="M128.498 120.604H136.265C136.265 120.604 136.698 119.261 135.759 117.597C135.759 117.597 135.134 118.086 133.26 117.756C132.851 118.096 132.409 118.396 131.939 118.651C131.398 118.906 128.288 119.499 128.498 120.604Z" fill="#281616"/>
<path d="M129.039 99.3375C129.542 102.244 131.857 112.078 132.839 117.887C134.657 118.037 135.531 117.835 135.993 117.73C135.903 115.706 135.724 110.86 135.745 108.734C135.78 105.143 135.952 100.408 134.324 97.8074L128.852 98.2275C128.884 98.5114 128.916 98.7357 128.943 98.9003C128.969 99.065 129.01 99.2098 129.039 99.3375Z" fill="#002C54"/>
<path d="M114.45 120.604H122.217C122.217 120.604 122.653 119.261 121.711 117.597C121.711 117.597 121.086 118.086 119.215 117.756C118.806 118.095 118.363 118.395 117.894 118.651C117.35 118.906 114.243 119.499 114.45 120.604Z" fill="#281616"/>
<path d="M118.99 117.717C119.988 117.978 121.026 118.069 122.056 117.984C122.468 115.65 123.12 110.512 123.708 108.102C124.62 104.36 125.511 99.2104 124.891 97.3737L119.507 96.0621C119.49 96.2268 119.051 111.985 118.99 117.717Z" fill="#052635"/>
<path d="M140.419 90.6928C140.311 89.6566 140.185 88.9043 140.185 88.9043L134.17 90.3237L129.06 91.4593C127.166 91.8681 124.877 92.362 122.86 92.8049C120.595 93.3045 119.092 94.9738 119.589 97.1767L120.156 99.8452C123.322 99.8055 138.209 98.4258 139.484 97.7927C140.922 97.1029 141.355 94.6075 140.419 90.6928Z" fill="#052635"/>
<path d="M149.399 90.6942C149.293 89.9551 149.083 89.2338 148.773 88.5509L143.149 90.3337L138.04 91.4692C136.145 91.878 133.857 92.372 131.84 92.8149C129.574 93.3145 128.072 94.9837 128.569 97.1867L129.136 99.8552C132.302 99.8155 145.537 99.3669 148.463 97.8027C149.875 97.0561 150.337 94.609 149.399 90.6942Z" fill="#002C54"/>
<path d="M132.562 82.3272C132.562 82.3272 135.233 81.1548 135.967 82.3272C136.37 82.9717 136.093 84.1668 135.181 84.6693C134.269 85.1718 129.121 87.2867 124.26 88.4677C124.108 88.0084 123.927 87.559 123.716 87.1221C125.241 86.475 126.698 85.6859 128.066 84.7658C129.483 83.8188 130.988 83.0024 132.562 82.3272Z" fill="#E5918F"/>
<path d="M133.228 74.2279L130.954 83.1078C130.954 83.1078 131.19 85.3534 133.526 84.2434C135.861 83.1334 137.384 76.0703 137.384 76.0703L133.228 74.2279Z" fill="#E5918F"/>
<path d="M137.092 79.1939C136.8 79.1258 136.537 79.0548 136.277 78.9782C136.017 78.9015 135.757 78.8221 135.514 78.7397C134.323 78.3702 133.195 77.8337 132.164 77.1471C132.848 74.2572 133.669 72.3211 134.403 71.0408C134.426 71.0109 134.444 70.9785 134.459 70.9442L134.517 70.8506C134.931 70.2152 135.473 69.6677 136.11 69.2409L136.303 69.1104L136.572 73.749L136.619 74.226L137.092 79.1939Z" fill="white"/>
<path d="M137.092 79.1932C136.8 79.125 136.537 79.0541 136.277 78.9774C136.016 78.9008 135.756 78.8213 135.514 78.739C135.973 75.6162 136.391 73.6517 136.391 73.6517L136.624 74.2195L137.092 79.1932Z" fill="#C7E5F2"/>
<path d="M150.62 71.1747C150.565 72.5459 150.328 74.7517 150.103 76.966C150.036 77.6672 149.969 78.3854 149.916 79.0554C149.875 79.4784 149.217 81.7409 149.191 82.144C149.074 84.0801 148.098 85.5308 149.022 88.4775C149.185 88.9153 149.279 89.3748 149.299 89.8402C149.299 90.0417 149.027 90.2518 148.922 90.3114C148.533 90.5272 147.77 90.6805 146.847 90.7912C144.932 90.9756 143.009 91.0609 141.085 91.0467C139.098 91.0467 136.116 90.7401 135.73 90.2518C135.385 89.8061 135.704 89.1588 135.868 88.2646C136.601 84.2221 136.341 82.1156 136.294 79.2001V78.9787C136.218 74.4791 135.914 70.6297 136.128 69.2415L136.321 69.1109C136.636 68.9008 136.946 68.7163 137.244 68.5431L137.338 68.492L137.61 68.3472C137.643 68.3274 137.679 68.3103 137.715 68.2961C138.44 67.9744 139.181 67.6901 139.937 67.4445C140.007 67.4218 140.074 67.399 140.13 67.3849C140.659 67.3536 141.237 67.3451 141.857 67.3621C142.398 67.3792 143.225 67.4473 144.125 67.5609C145.14 67.6809 146.146 67.8639 147.136 68.1088C148.046 68.4575 148.858 69.0099 149.507 69.7212C149.936 70.1609 150.31 70.6489 150.62 71.1747Z" fill="white"/>
<path d="M149.021 88.4775C149.185 88.9153 149.279 89.3748 149.299 89.8402C149.299 90.0417 149.027 90.2518 148.922 90.3114C148.533 90.5272 147.77 90.6805 146.847 90.7912C147.227 90.7458 147.884 90.1581 147.884 89.6301C147.884 89.2582 147.39 86.7543 147.528 85.139C147.665 83.5237 147.934 80.9546 147.42 78.8936C146.905 76.8326 146.417 74.1328 146.417 74.1328L149.32 75.8361C149.32 75.8361 149.694 76.3471 150.103 76.9717C150.036 77.6729 149.969 78.3911 149.916 79.0611C149.875 79.4784 148.098 85.5308 149.021 88.4775Z" fill="#C7E5F2"/>
<path d="M136.253 59.2817C136.253 59.2817 136.505 62.2313 137.51 62.43C138.516 62.6287 138.27 61.374 138.27 61.374L138.13 59.9744L136.253 59.2817Z" fill="#002C54"/>
<path d="M140.892 69.9704C138.922 69.7433 139.656 67.881 139.928 67.4551C139.998 67.4324 140.337 67.3331 140.363 67.316C140.433 67.256 140.486 67.1799 140.518 67.0946C140.711 66.6035 140.623 65.6269 140.615 65.5616V65.3856C140.647 65.2692 140.682 65.1585 140.705 65.0535L141.743 64.2614L143.935 62.5894C143.935 62.5894 143.351 65.3885 143.821 67.1542C143.838 67.2401 143.873 67.3218 143.923 67.3944C143.973 67.4671 144.038 67.5292 144.113 67.5772C144.179 67.6197 144.254 67.646 144.333 67.6539C144.879 67.8923 144.128 70.3394 140.892 69.9704Z" fill="#E5918F"/>
<path d="M142.646 64.3607C142.598 64.9626 142.374 65.5387 142.001 66.0214C141.628 66.5041 141.12 66.8734 140.539 67.086C140.734 66.6006 140.644 65.6212 140.638 65.5587L141.515 64.8916L142.646 64.3607Z" fill="#CC6362"/>
<path d="M136.736 59.7018C136.736 59.7018 137.189 65.8196 138.89 66.3391C139.618 66.3546 140.339 66.1954 140.989 65.8755C141.638 65.5556 142.197 65.0849 142.614 64.5052C143.061 63.9204 143.628 63.787 143.813 63.0858C144.105 61.9502 144.538 59.8182 143.997 58.5436C143.231 56.7182 136.8 55.2761 136.736 59.7018Z" fill="#E5918F"/>
<path d="M144.023 57.5282C143.994 56.4182 142.836 56.0009 142.836 56.0009C141.685 55.4786 139.288 55.717 136.818 56.2394C136.233 56.3643 135.511 56.0208 135.108 56.2933C134.619 56.6226 135.108 58.1272 135.108 58.1272C136.061 60.9291 139.568 60.0179 140.621 59.6715C140.872 60.3926 140.84 61.3947 141.462 61.9142C141.819 62.1981 142.439 62.2151 143.067 62.1158C143.146 62.2577 143.435 62.3826 143.494 62.5785C143.693 63.2343 143.663 64.2591 143.658 65.0483L143.95 64.9092C143.991 64.6935 147.066 57.619 144.023 57.5282Z" fill="#002C54"/>
<path d="M138.478 61.7635C138.568 62.2716 138.311 62.7372 137.893 62.8053C137.475 62.8735 137.083 62.5214 136.996 62.0076C136.908 61.4938 137.165 61.031 137.58 60.9657C137.995 60.9005 138.39 61.2553 138.478 61.7635Z" stroke="white" stroke-width="0.5" stroke-miterlimit="10"/>
<path d="M140.533 61.3903C140.623 61.8956 140.366 62.364 139.948 62.4293C139.53 62.4946 139.141 62.1455 139.051 61.6316C138.96 61.1178 139.22 60.6579 139.635 60.5898C140.05 60.5216 140.445 60.885 140.533 61.3903Z" stroke="white" stroke-width="0.5" stroke-miterlimit="10"/>
<path d="M138.478 61.7627C138.478 61.7627 138.568 61.6207 139.042 61.6605" stroke="white" stroke-width="0.5" stroke-miterlimit="10"/>
<path d="M140.55 61.5108L142.307 61.2383" stroke="white" stroke-width="0.5" stroke-miterlimit="10"/>
<path d="M142.439 63.4041C143.646 63.8555 144.026 60.9627 142.877 60.835C142 60.7384 141.968 61.9166 141.968 61.9166C141.968 61.9166 141.746 63.1571 142.439 63.4041Z" fill="#E5918F"/>
<g opacity="0.5">
<path d="M142.836 61.2717C142.778 61.3337 142.728 61.4023 142.687 61.4761C142.601 61.6285 142.55 61.797 142.538 61.9701C142.529 62.0645 142.529 62.1595 142.538 62.254C142.538 62.3448 142.552 62.4328 142.558 62.5066C142.564 62.5804 142.573 62.6486 142.579 62.694C142.582 62.7185 142.582 62.7433 142.579 62.7678L142.538 62.7082C142.499 62.6557 142.466 62.5996 142.438 62.5407C142.398 62.4566 142.368 62.3679 142.351 62.2767C142.325 62.1716 142.318 62.0634 142.327 61.9559C142.337 61.8453 142.367 61.7375 142.418 61.6379C142.46 61.5497 142.519 61.4706 142.593 61.4052C142.661 61.3415 142.745 61.2956 142.836 61.2717Z" fill="#CC6362"/>
<path d="M143.026 61.8191C142.986 61.8242 142.947 61.8337 142.909 61.8475C142.827 61.8759 142.754 61.9215 142.693 61.9809C142.615 62.0601 142.562 62.1583 142.538 62.2648L142.339 62.1967C142.359 62.1563 142.383 62.1175 142.409 62.0803C142.467 62.0003 142.543 61.9342 142.631 61.8873C142.714 61.8417 142.805 61.8137 142.9 61.8049C142.942 61.8054 142.985 61.8102 143.026 61.8191Z" fill="#CC6362"/>
</g>
<path d="M154.07 83.4974C153.54 84.0964 151.521 84.5336 150.562 83.7046C150.27 83.4406 149.913 82.7451 149.574 81.8821C148.92 80.0751 148.361 78.2369 147.899 76.3747L152.415 74.1349C152.415 74.1349 153 76.6643 153.497 79.0688V79.1341C153.66 79.9034 153.812 80.6614 153.932 81.3115V81.3626C154.061 82.0668 154.107 82.783 154.07 83.4974Z" fill="#E5918F"/>
<path d="M146.18 73.3056C146.616 75.0686 147.987 78.4156 147.987 78.4156C149.108 78.5405 150.243 78.4073 151.301 78.0266C152.093 77.7313 152.812 77.2777 153.412 76.6952C153.412 76.6952 152.503 74.2141 151.687 72.4369C150.954 70.8358 150.518 70.2397 150.196 69.9217C149.673 69.4018 149.068 68.9649 148.405 68.6272L146.18 73.3056Z" fill="white"/>
<path d="M151.889 74.4555L149.241 73.3456L147.154 68.1221C147.154 68.1221 147.534 68.2356 148.031 68.4315L148.098 68.4599H148.136C148.586 68.6643 150.334 69.6664 151.541 73.2859C151.547 73.3173 151.557 73.3478 151.571 73.3768C151.699 73.7969 151.793 74.1319 151.845 74.3051V74.359L151.889 74.4555Z" fill="white"/>
<path d="M154.069 83.4966C154.031 83.8202 153.941 84.0644 153.777 84.1325L153.356 84.3767C152.458 84.9134 151.522 85.3877 150.556 85.7961C147.36 87.0927 144.099 88.2298 140.784 89.2027C140.614 88.7487 140.413 88.3059 140.185 87.877C141.68 87.1694 143.102 86.3223 144.429 85.3476C146.533 83.7862 149.562 81.8898 149.562 81.8898L150.328 81.0155C150.328 81.0155 153.046 78.5854 153.485 79.0765V79.1418C153.552 79.3945 153.777 80.3285 153.92 81.3192V81.3703C154.053 82.0713 154.103 82.7847 154.069 83.4966Z" fill="#E5918F"/>
<path d="M140.495 87.7252C140.171 87.9069 139.793 87.9779 139.422 87.9267C139.13 87.8643 139.001 87.7451 138.779 87.7081C138.403 87.665 138.034 87.5812 137.677 87.4583C137.385 87.3192 137.271 87.305 137.279 87.5889C137.288 87.8728 137.864 88.1198 138.022 88.1993C138.168 88.2982 138.294 88.4212 138.396 88.5626C138.417 88.5939 137.437 89.0935 137.171 88.9941C137.13 89.1089 137.119 89.2319 137.139 89.3518C137.183 89.4796 137.385 89.525 137.399 89.5875C137.414 89.6499 137.355 89.7833 137.399 89.8714C137.443 89.9594 137.624 89.9764 137.692 90.1552C137.759 90.3341 137.692 90.3256 137.738 90.4987C137.785 90.6719 138.031 90.7031 138.063 90.7826C138.095 90.8621 138.083 90.9757 138.177 91.0381C138.27 91.1006 139.156 90.8252 139.478 90.6889C139.799 90.5527 140.647 89.3518 141.617 88.9402L140.495 87.7252Z" fill="#E5918F"/>
<path d="M145.008 93.1012H138.142V92.4483H145.008C145.052 92.4479 145.095 92.4559 145.136 92.4718C145.176 92.4877 145.213 92.5112 145.244 92.541C145.276 92.5708 145.3 92.6063 145.318 92.6454C145.335 92.6845 145.344 92.7265 145.344 92.769C145.345 92.8125 145.337 92.8557 145.321 92.8962C145.305 92.9366 145.28 92.9734 145.249 93.0044C145.217 93.0354 145.18 93.06 145.138 93.0766C145.097 93.0932 145.053 93.1016 145.008 93.1012Z" fill="#375F84"/>
<path d="M141.293 93.1006H124.096C123.996 93.1006 123.898 93.0687 123.818 93.0097C123.738 92.9508 123.679 92.8681 123.652 92.7741L120.139 80.4734C120.123 80.4189 120.119 80.3621 120.126 80.306C120.133 80.25 120.152 80.1959 120.18 80.1468C120.209 80.0977 120.248 80.0547 120.294 80.0201C120.34 79.9855 120.392 79.9601 120.448 79.9454C120.486 79.9363 120.524 79.9315 120.562 79.9312H137.195C137.382 79.9336 137.564 79.9945 137.714 80.1049C137.863 80.2152 137.972 80.3693 138.025 80.5443L141.533 92.8053C141.54 92.835 141.542 92.8658 141.538 92.8962C141.533 92.9265 141.523 92.9557 141.507 92.982C141.491 93.0084 141.47 93.0314 141.445 93.0498C141.419 93.0682 141.391 93.0816 141.36 93.0892C141.338 93.0958 141.316 93.0996 141.293 93.1006Z" fill="#375F84"/>
<path d="M140.67 93.1006H123.474C123.373 93.1019 123.275 93.0704 123.195 93.0112C123.115 92.9521 123.058 92.8686 123.032 92.7741L119.525 80.4734C119.509 80.4189 119.505 80.3621 119.512 80.306C119.519 80.25 119.538 80.1959 119.567 80.1468C119.595 80.0977 119.634 80.0547 119.68 80.0201C119.726 79.9855 119.778 79.9601 119.835 79.9454C119.872 79.9363 119.91 79.9315 119.949 79.9312H136.581C136.769 79.9336 136.951 79.9945 137.1 80.1049C137.25 80.2152 137.359 80.3693 137.411 80.5443L140.919 92.8053C140.934 92.8644 140.925 92.927 140.894 92.9799C140.863 93.0328 140.812 93.072 140.752 93.0892C140.726 93.0988 140.698 93.1027 140.67 93.1006Z" fill="#467CDB"/>
<path d="M72.5098 85.1502L74.5033 83.163C74.5232 82.8011 74.583 82.4423 74.6816 82.0927C74.7898 81.9054 75.0704 81.2155 75.2078 81.1389C75.3451 81.0991 75.4914 81.0991 75.6287 81.1389C75.7583 81.0943 75.8926 81.0638 76.0292 81.048C76.1534 81.0661 76.2738 81.1035 76.3858 81.1588C76.3858 81.1588 76.6781 81.1389 76.8067 81.1389C76.8636 81.133 76.9209 81.145 76.9704 81.1729C77.193 80.9207 77.4312 80.6818 77.6836 80.4576C77.9175 80.2759 78.2682 79.9437 78.3764 79.9437C78.4845 79.9437 78.5196 80.1141 78.4495 80.2957C78.3458 80.4714 78.2146 80.6304 78.0607 80.767L77.1516 82.1041C77.2342 82.073 77.3143 82.036 77.3913 81.9934C77.4732 81.9423 78.0285 81.4256 78.0607 81.4256C78.0928 81.4256 78.353 81.2468 78.4875 81.4057C78.6219 81.5647 77.5375 82.8422 77.3621 83.0125C76.984 83.2607 76.5884 83.4826 76.1782 83.6768C76.1782 83.6768 75.1171 85.5334 75.009 85.664C74.9008 85.7946 72.5098 85.1502 72.5098 85.1502Z" fill="#E49191"/>
<path d="M74.3863 75.9946C74.3863 75.9946 73.2726 82.2401 72.2262 82.3991C72.2262 82.3991 68.0432 82.5637 67.1137 77.6355C66.304 73.3772 69.5457 72.4546 71.0598 72.781C72.574 73.1075 74.7108 73.3204 74.3863 75.9946Z" fill="#E49191"/>
<path d="M70.6913 81.3966C70.6913 81.3966 70.1067 82.1659 69.8992 84.0225C68.7509 84.1391 67.5918 83.9425 66.5522 83.4547C67.1011 81.6796 67.4269 79.8466 67.5227 77.9956" fill="#E49191"/>
<path d="M69.5106 71.7298C67.2248 72.2209 67.4089 73.6034 67.4089 73.6034C66.3391 73.8618 66.1082 74.2904 66.1169 76.2067C66.1257 78.1229 66.8419 80.428 67.2365 80.6154C67.6311 80.8028 69.8672 80.8113 70.0485 80.746C70.2297 80.6807 71.0189 78.9206 70.8348 78.6112C70.6506 78.3017 70.8348 77.0839 71.3639 77.0384C71.8929 76.993 71.7848 77.7766 71.7848 77.7766L72.2115 77.6857L72.5419 76.8993C75.5614 77.0725 76.3419 73.7312 76.3419 73.7312C75.6169 73.2713 71.7965 71.2415 69.5106 71.7298Z" fill="#002C54"/>
<path d="M44.1386 114.111L46.4478 114.435L45.6819 117.055L43.1798 116.442C43.0517 116.276 42.9585 116.088 42.9056 115.887C42.8527 115.686 42.8411 115.477 42.8715 115.272C42.9019 115.067 42.9737 114.869 43.0828 114.691C43.1919 114.513 43.3361 114.358 43.5072 114.234C43.5685 114.189 43.633 114.148 43.7001 114.111C43.8434 114.072 43.9953 114.072 44.1386 114.111Z" fill="#E5918F"/>
<path d="M61.3844 107.381L57.979 97.3682C57.979 97.3682 56.9472 97.0105 56.4181 97.3682C56.4181 97.3682 52.8724 99.222 53.2495 104.502C53.5418 108.477 54.4012 112.806 54.7519 114.538L45.667 114.211C45.3381 114.63 45.1282 115.126 45.0584 115.648C44.9887 116.171 45.0614 116.702 45.2695 117.189C45.2695 117.189 56.687 120.17 58.2947 120.445C59.6013 120.669 61.0336 120.843 61.7235 120.269C62.9453 119.256 61.3844 107.381 61.3844 107.381Z" fill="black"/>
<path d="M54.9042 114.111L57.2134 114.435L56.4476 117.055L53.9454 116.442C53.8173 116.276 53.7241 116.088 53.6712 115.887C53.6183 115.686 53.6067 115.477 53.6372 115.272C53.6676 115.067 53.7394 114.869 53.8485 114.691C53.9575 114.513 54.1017 114.358 54.2728 114.234C54.3342 114.189 54.3986 114.148 54.4657 114.111C54.609 114.072 54.7609 114.072 54.9042 114.111Z" fill="#E5918F"/>
<path d="M54.0772 115.485C54.0246 115.999 54.4894 116.464 54.4046 116.592C54.3198 116.72 52.7677 119.252 52.7677 119.252C52.7677 119.252 53.9369 119.749 53.7499 120.464H50.7683C50.3034 120.031 50.0326 119.437 50.0142 118.812C50.1603 118.079 50.406 117.369 50.7449 116.7C51.274 115.706 52.4783 113.469 52.4783 113.469C52.8019 113.378 53.1462 113.384 53.4663 113.486C53.9722 113.631 54.4558 113.841 54.9045 114.111C54.9045 114.111 54.1942 114.21 54.0772 115.485Z" fill="#467CDB"/>
<path d="M77.8504 118.166C77.1167 115.509 70.2212 104.167 67.8856 101.104C63.0947 99.083 57.9852 97.3683 57.9852 97.3683C55.8718 97.8566 54.8312 101.993 56.0296 104.749C56.8539 106.64 62.0687 111.398 65.2607 114.2H56.3979C56.3979 114.2 55.3544 115.716 56.3015 117.155C56.3015 117.155 71.0396 120.411 72.3316 120.593C73.6236 120.775 76.5262 120.593 76.5262 120.593C76.5262 120.593 78.4672 120.4 77.8504 118.166Z" fill="#002C54"/>
<path d="M43.3082 115.485C43.2556 115.999 43.7204 116.464 43.6356 116.592C43.5508 116.72 41.9987 119.252 41.9987 119.252C41.9987 119.252 43.1679 119.749 42.9808 120.464H40.011C39.5461 120.031 39.2753 119.437 39.2568 118.812C39.403 118.079 39.6487 117.369 39.9876 116.7C40.5167 115.706 41.721 113.469 41.721 113.469C42.0446 113.378 42.3889 113.384 42.709 113.486C43.2139 113.634 43.6972 113.844 44.1471 114.111C44.1471 114.111 43.4368 114.21 43.3082 115.485Z" fill="#467CDB"/>
<path d="M88.9464 83.222L84.1847 91.3412L80.7793 88.0453L77.9731 92.1133L78.7887 92.4966L78.4964 92.7322C78.4964 92.7322 85.0645 95.8407 85.8508 95.1537C86.6371 94.4667 90.3056 84.139 90.3056 84.139L88.9464 83.222Z" fill="#E49191"/>
<path d="M81.396 88.5618C81.396 88.5618 80.4986 92.2381 78.7038 93.9812L74.1117 92.2779C74.1117 92.2779 71.9808 95.7583 69.8966 98.4268C69.0957 99.4573 68.8297 100.908 67.8885 101.098C67.83 101.078 67.7745 101.061 67.716 101.047C65.1642 100.303 61.3992 101.093 58.292 99.9712C54.8603 98.7306 55.5268 98.0322 55.5268 98.0322C56.856 95.638 57.9483 93.1267 58.7889 90.532C59.2459 89.0462 59.6245 87.5387 59.9231 86.0154C60.13 84.9461 60.6765 83.9667 61.486 83.2147C62.2955 82.4626 63.3273 81.9757 64.4363 81.8224H64.5123C67.1138 81.5016 73.9246 82.2823 75.2488 82.833C76.5729 83.3838 81.396 88.5618 81.396 88.5618Z" fill="#467CDB"/>
<path d="M74.1119 92.2837C74.1119 92.2837 71.981 95.7642 69.8968 98.4327C69.0959 99.4632 68.8299 100.914 67.8887 101.104C68.3008 100.962 68.9848 98.8557 69.2274 98.3816C69.4701 97.9075 69.8617 97.4362 70.689 95.7812C71.5162 94.1261 72.6679 91.6932 72.6679 91.6932L74.1119 92.2837Z" fill="#5996EF"/>
<path d="M65.2607 114.199C65.3262 114.184 65.3926 114.174 65.4595 114.168C65.5881 114.154 65.7694 114.128 65.9915 114.12C66.5286 114.096 67.0668 114.121 67.5992 114.193C67.8844 114.231 68.1673 114.283 68.4469 114.35C68.6917 114.404 68.9328 114.474 69.1689 114.557C69.336 114.614 69.4999 114.679 69.66 114.753C69.7769 114.804 69.8412 114.838 69.8412 114.838L69.6424 114.81C69.5167 114.784 69.3355 114.758 69.1221 114.724C68.6954 114.653 68.1254 114.565 67.5554 114.492C67.2631 114.449 66.9707 114.418 66.7194 114.384L65.9827 114.293L65.2607 114.199Z" fill="black"/>
<path d="M92.4977 80.2328C92.2103 80.3919 91.9425 80.5824 91.6997 80.8006L91.9715 80.2981C92.1461 80.1357 92.3083 79.9611 92.4568 79.7758C92.5883 79.5912 92.5182 79.4067 92.4188 79.3982C92.1482 79.5376 91.8959 79.7082 91.6675 79.9064L91.7231 79.8042C91.8986 79.6428 92.0617 79.4691 92.2112 79.2846C92.3398 79.1001 92.2726 78.9156 92.1703 78.9042C91.8421 79.099 91.532 79.3213 91.2437 79.5685L90.8432 80.0909L91.1355 79.5231C91.2382 79.401 91.3274 79.2687 91.4015 79.1285C91.5068 78.9213 91.4308 78.8588 91.3723 78.7907C91.3138 78.7226 90.7585 79.1228 90.6152 79.2846C90.3861 79.5716 90.1771 79.8732 89.9897 80.1874L89.5278 81.1185C89.4957 80.8488 89.4518 80.3861 89.4168 80.0909C89.37 79.6679 88.9754 79.5685 88.9608 79.7729C88.9461 79.9773 88.7269 80.9965 88.7766 81.5472C88.8263 82.0979 88.9228 82.4585 88.9578 82.7679C88.9251 83.0932 88.8257 83.4088 88.6655 83.6962C88.6655 83.6962 89.9868 84.4939 90.206 84.264C90.5366 83.9071 90.8404 83.5276 91.1151 83.1285C91.3278 82.7685 91.5012 82.3879 91.6325 81.9929L92.0475 81.1413C92.2221 80.9798 92.3843 80.8062 92.5328 80.6217C92.6614 80.4287 92.6 80.2442 92.4977 80.2328Z" fill="#E49191"/>
<path d="M168.425 54.3763H152.915C152.437 54.3763 151.979 54.5606 151.642 54.8885C151.304 55.2165 151.114 55.6613 151.114 56.1251V59.685C151.115 60.1102 151.275 60.5207 151.564 60.8399C151.854 61.1591 152.253 61.3651 152.687 61.4195C152.75 61.4265 152.808 61.4559 152.85 61.502C152.892 61.5481 152.915 61.6077 152.915 61.6693V63.6168C152.915 63.6477 152.928 63.6773 152.95 63.6991C152.972 63.7209 153.003 63.7332 153.035 63.7332C153.053 63.7327 153.072 63.728 153.089 63.7197C153.105 63.7113 153.12 63.6995 153.131 63.6849L154.71 61.5388C154.734 61.5058 154.766 61.479 154.803 61.4607C154.84 61.4424 154.881 61.4331 154.923 61.4337H168.425C168.661 61.4337 168.895 61.3885 169.114 61.3006C169.332 61.2127 169.531 61.0839 169.698 60.9215C169.865 60.7591 169.998 60.5664 170.088 60.3542C170.179 60.142 170.225 59.9146 170.225 59.685V56.1251C170.225 55.6613 170.036 55.2165 169.698 54.8885C169.36 54.5606 168.902 54.3763 168.425 54.3763Z" stroke="white" stroke-width="0.9" stroke-miterlimit="10"/>
<path d="M155.294 57.8993C155.294 58.0116 155.26 58.1214 155.196 58.2147C155.131 58.3081 155.04 58.3809 154.933 58.4239C154.827 58.4668 154.709 58.4781 154.596 58.4562C154.482 58.4343 154.378 58.3802 154.296 58.3008C154.214 58.2214 154.159 58.1202 154.136 58.0101C154.114 57.8999 154.125 57.7858 154.17 57.682C154.214 57.5783 154.289 57.4896 154.385 57.4272C154.481 57.3648 154.594 57.3315 154.71 57.3315C154.865 57.3315 155.013 57.3914 155.123 57.4978C155.233 57.6043 155.294 57.7487 155.294 57.8993Z" stroke="white" stroke-width="0.9" stroke-miterlimit="10"/>
<path d="M158.279 57.8993C158.279 58.0116 158.244 58.1214 158.18 58.2147C158.116 58.3081 158.025 58.3809 157.918 58.4239C157.811 58.4668 157.693 58.4781 157.58 58.4562C157.467 58.4343 157.362 58.3802 157.281 58.3008C157.199 58.2214 157.143 58.1202 157.121 58.0101C157.098 57.8999 157.11 57.7858 157.154 57.682C157.198 57.5783 157.273 57.4896 157.369 57.4272C157.465 57.3648 157.578 57.3315 157.694 57.3315C157.849 57.3315 157.998 57.3914 158.107 57.4978C158.217 57.6043 158.279 57.7487 158.279 57.8993Z" stroke="white" stroke-width="0.9" stroke-miterlimit="10"/>
<path d="M161.263 57.8993C161.263 58.0116 161.229 58.1214 161.164 58.2147C161.1 58.3081 161.009 58.3809 160.902 58.4239C160.795 58.4668 160.678 58.4781 160.564 58.4562C160.451 58.4343 160.347 58.3802 160.265 58.3008C160.183 58.2214 160.128 58.1202 160.105 58.0101C160.082 57.8999 160.094 57.7858 160.138 57.682C160.182 57.5783 160.257 57.4896 160.354 57.4272C160.45 57.3648 160.563 57.3315 160.678 57.3315C160.833 57.3315 160.982 57.3914 161.092 57.4978C161.201 57.6043 161.263 57.7487 161.263 57.8993Z" stroke="white" stroke-width="0.9" stroke-miterlimit="10"/>
<path d="M164.248 57.8993C164.248 58.0116 164.214 58.1214 164.149 58.2147C164.085 58.3081 163.994 58.3809 163.887 58.4239C163.78 58.4668 163.663 58.4781 163.549 58.4562C163.436 58.4343 163.332 58.3802 163.25 58.3008C163.168 58.2214 163.112 58.1202 163.09 58.0101C163.067 57.8999 163.079 57.7858 163.123 57.682C163.167 57.5783 163.242 57.4896 163.338 57.4272C163.435 57.3648 163.548 57.3315 163.663 57.3315C163.818 57.3315 163.967 57.3914 164.077 57.4978C164.186 57.6043 164.248 57.7487 164.248 57.8993Z" stroke="white" stroke-width="0.9" stroke-miterlimit="10"/>
<path d="M167.232 57.8993C167.232 58.0116 167.198 58.1214 167.134 58.2147C167.069 58.3081 166.978 58.3809 166.871 58.4239C166.764 58.4668 166.647 58.4781 166.534 58.4562C166.42 58.4343 166.316 58.3802 166.234 58.3008C166.152 58.2214 166.097 58.1202 166.074 58.0101C166.052 57.8999 166.063 57.7858 166.107 57.682C166.152 57.5783 166.227 57.4896 166.323 57.4272C166.419 57.3648 166.532 57.3315 166.648 57.3315C166.803 57.3315 166.951 57.3914 167.061 57.4978C167.171 57.6043 167.232 57.7487 167.232 57.8993Z" stroke="white" stroke-width="0.9" stroke-miterlimit="10"/>
<path d="M45.8602 69.9698H61.3847C61.8622 69.9698 62.3202 70.1541 62.6579 70.482C62.9956 70.81 63.1853 71.2548 63.1853 71.7186V75.2757C63.1859 75.7013 63.0264 76.1124 62.7368 76.4318C62.4472 76.7512 62.0474 76.9569 61.6127 77.0102C61.5501 77.0184 61.4927 77.0481 61.4509 77.0939C61.409 77.1398 61.3855 77.1987 61.3847 77.26V79.2103C61.3847 79.2404 61.3724 79.2693 61.3504 79.2906C61.3285 79.3119 61.2988 79.3239 61.2677 79.3239C61.2488 79.3245 61.2299 79.3204 61.213 79.3119C61.1961 79.3035 61.1818 79.291 61.1713 79.2756L59.5899 77.1323C59.5659 77.0989 59.534 77.0717 59.4968 77.0529C59.4597 77.0342 59.4184 77.0244 59.3765 77.0244H45.8602C45.3827 77.0244 44.9247 76.8401 44.587 76.5122C44.2493 76.1842 44.0596 75.7395 44.0596 75.2757V71.7271C44.0584 71.4974 44.1039 71.2698 44.1933 71.0572C44.2827 70.8446 44.4144 70.6512 44.5808 70.4881C44.7472 70.3249 44.945 70.1951 45.163 70.1062C45.3811 70.0173 45.615 69.971 45.8514 69.9698H45.8602Z" stroke="white" stroke-width="0.9" stroke-miterlimit="10"/>
<path d="M58.9907 73.5011C58.9907 73.6134 59.025 73.7232 59.0892 73.8166C59.1535 73.9099 59.2448 73.9827 59.3516 74.0257C59.4584 74.0686 59.576 74.0799 59.6894 74.058C59.8028 74.0361 59.907 73.982 59.9887 73.9026C60.0705 73.8232 60.1262 73.722 60.1487 73.6119C60.1713 73.5017 60.1597 73.3876 60.1155 73.2838C60.0712 73.1801 59.9963 73.0914 59.9001 73.029C59.804 72.9667 59.691 72.9333 59.5753 72.9333C59.4203 72.9333 59.2716 72.9932 59.162 73.0996C59.0523 73.2061 58.9907 73.3505 58.9907 73.5011Z" stroke="white" stroke-width="0.9" stroke-miterlimit="10"/>
<path d="M56.0063 73.5011C56.0063 73.6134 56.0406 73.7232 56.1049 73.8166C56.1691 73.9099 56.2604 73.9827 56.3672 74.0257C56.4741 74.0686 56.5916 74.0799 56.705 74.058C56.8184 74.0361 56.9226 73.982 57.0043 73.9026C57.0861 73.8232 57.1418 73.722 57.1643 73.6119C57.1869 73.5017 57.1753 73.3876 57.1311 73.2838C57.0868 73.1801 57.0119 73.0914 56.9158 73.029C56.8196 72.9667 56.7066 72.9333 56.591 72.9333C56.4359 72.9333 56.2872 72.9932 56.1776 73.0996C56.0679 73.2061 56.0063 73.3505 56.0063 73.5011Z" stroke="white" stroke-width="0.9" stroke-miterlimit="10"/>
<path d="M53.0244 73.5011C53.0244 73.6134 53.0587 73.7232 53.1229 73.8166C53.1872 73.9099 53.2785 73.9827 53.3853 74.0257C53.4921 74.0686 53.6097 74.0799 53.7231 74.058C53.8365 74.0361 53.9407 73.982 54.0224 73.9026C54.1042 73.8232 54.1599 73.722 54.1824 73.6119C54.205 73.5017 54.1934 73.3876 54.1491 73.2838C54.1049 73.1801 54.03 73.0914 53.9338 73.029C53.8377 72.9667 53.7247 72.9333 53.609 72.9333C53.454 72.9333 53.3053 72.9932 53.1956 73.0996C53.086 73.2061 53.0244 73.3505 53.0244 73.5011Z" stroke="white" stroke-width="0.9" stroke-miterlimit="10"/>
<path d="M50.04 73.5011C50.04 73.6134 50.0743 73.7232 50.1386 73.8166C50.2028 73.9099 50.2941 73.9827 50.4009 74.0257C50.5078 74.0686 50.6253 74.0799 50.7387 74.058C50.8521 74.0361 50.9563 73.982 51.038 73.9026C51.1198 73.8232 51.1755 73.722 51.198 73.6119C51.2206 73.5017 51.209 73.3876 51.1648 73.2838C51.1205 73.1801 51.0456 73.0914 50.9495 73.029C50.8533 72.9667 50.7403 72.9333 50.6247 72.9333C50.4696 72.9333 50.3209 72.9932 50.2113 73.0996C50.1016 73.2061 50.04 73.3505 50.04 73.5011Z" stroke="white" stroke-width="0.9" stroke-miterlimit="10"/>
<path d="M47.0615 73.5011C47.0615 73.6134 47.0958 73.7232 47.1601 73.8166C47.2243 73.9099 47.3156 73.9827 47.4224 74.0257C47.5292 74.0686 47.6468 74.0799 47.7602 74.058C47.8736 74.0361 47.9778 73.982 48.0595 73.9026C48.1413 73.8232 48.197 73.722 48.2195 73.6119C48.2421 73.5017 48.2305 73.3876 48.1863 73.2838C48.142 73.1801 48.0671 73.0914 47.9709 73.029C47.8748 72.9667 47.7618 72.9333 47.6461 72.9333C47.4911 72.9333 47.3424 72.9932 47.2328 73.0996C47.1231 73.2061 47.0615 73.3505 47.0615 73.5011Z" stroke="white" stroke-width="0.9" stroke-miterlimit="10"/>
<path d="M139.536 46.1669H111.264C110.517 46.1646 109.801 45.8752 109.273 45.3618C108.745 44.8485 108.447 44.153 108.446 43.4274C108.445 43.0672 108.518 42.7104 108.66 42.3775C108.802 42.0446 109.01 41.7422 109.272 41.4874C109.534 41.2327 109.846 41.0307 110.188 40.893C110.531 40.7554 110.899 40.6847 111.269 40.6851H139.541C140.288 40.6881 141.004 40.9783 141.531 41.4923C142.058 42.0062 142.354 42.702 142.353 43.4274C142.352 44.153 142.055 44.8485 141.527 45.3618C140.999 45.8752 140.283 46.1646 139.536 46.1669Z" fill="white" stroke="#495AD6" stroke-width="0.9" stroke-miterlimit="10"/>
<path d="M139.121 43.2359C139.121 43.5245 139.033 43.8066 138.867 44.0466C138.702 44.2865 138.468 44.4736 138.193 44.584C137.919 44.6944 137.617 44.7233 137.325 44.667C137.034 44.6107 136.766 44.4718 136.556 44.2677C136.346 44.0636 136.203 43.8036 136.145 43.5206C136.087 43.2375 136.116 42.9441 136.23 42.6775C136.344 42.4109 136.536 42.183 136.783 42.0226C137.031 41.8623 137.321 41.7767 137.618 41.7767C138.017 41.7767 138.399 41.9305 138.681 42.2041C138.962 42.4778 139.121 42.8489 139.121 43.2359Z" stroke="#495AD6" stroke-width="1.67" stroke-miterlimit="10"/>
<path d="M138.683 44.2676L139.51 45.0738" stroke="#495AD6" stroke-width="1.67" stroke-miterlimit="10" stroke-linecap="round"/>
<path d="M96.7098 109.452H89.5979C88.3532 109.452 87.3442 110.432 87.3442 111.641V118.548C87.3442 119.757 88.3532 120.737 89.5979 120.737H96.7098C97.9545 120.737 98.9635 119.757 98.9635 118.548V111.641C98.9635 110.432 97.9545 109.452 96.7098 109.452Z" fill="#193091"/>
<path d="M94.5936 109.452H87.4817C86.237 109.452 85.228 110.432 85.228 111.641V118.548C85.228 119.757 86.237 120.737 87.4817 120.737H94.5936C95.8382 120.737 96.8473 119.757 96.8473 118.548V111.641C96.8473 110.432 95.8382 109.452 94.5936 109.452Z" fill="#495AD6"/>
<path d="M89.6655 112.965L93.0007 114.824C93.0361 114.844 93.0671 114.87 93.0919 114.902C93.1167 114.933 93.1349 114.969 93.1452 115.007C93.1555 115.046 93.1579 115.086 93.1522 115.125C93.1464 115.164 93.1327 115.202 93.1118 115.236C93.0856 115.281 93.0472 115.318 93.0007 115.344L89.6655 117.215C89.6302 117.234 89.5912 117.247 89.5508 117.252C89.5103 117.258 89.4693 117.255 89.4299 117.245C89.3905 117.234 89.3536 117.217 89.3213 117.192C89.289 117.168 89.2619 117.138 89.2416 117.104C89.2149 117.058 89.2008 117.006 89.2007 116.953V113.226C89.2003 113.186 89.2081 113.147 89.2235 113.11C89.2389 113.074 89.2617 113.04 89.2906 113.012C89.3194 112.984 89.3537 112.962 89.3915 112.947C89.4293 112.932 89.4697 112.925 89.5105 112.925C89.5648 112.925 89.6181 112.939 89.6655 112.965Z" fill="white"/>
<path d="M170.278 105.986H160.983C159.355 105.986 158.036 107.267 158.036 108.847V117.875C158.036 119.455 159.355 120.737 160.983 120.737H170.278C171.905 120.737 173.224 119.455 173.224 117.875V108.847C173.224 107.267 171.905 105.986 170.278 105.986Z" fill="#193091"/>
<path d="M167.51 105.986H158.215C156.587 105.986 155.268 107.267 155.268 108.847V117.875C155.268 119.455 156.587 120.737 158.215 120.737H167.51C169.137 120.737 170.456 119.455 170.456 117.875V108.847C170.456 107.267 169.137 105.986 167.51 105.986Z" fill="#495AD6"/>
<path d="M164.689 109.606C164.69 109.957 164.583 110.3 164.383 110.592C164.182 110.884 163.898 111.112 163.564 111.247C163.23 111.382 162.863 111.418 162.509 111.35C162.154 111.282 161.828 111.113 161.572 110.865C161.316 110.618 161.142 110.302 161.071 109.958C161 109.614 161.035 109.257 161.173 108.933C161.311 108.608 161.545 108.331 161.845 108.135C162.145 107.94 162.498 107.835 162.859 107.835C163.099 107.834 163.336 107.88 163.557 107.968C163.779 108.057 163.98 108.187 164.15 108.351C164.319 108.516 164.454 108.711 164.546 108.926C164.638 109.14 164.686 109.371 164.686 109.603L164.689 109.606Z" fill="white"/>
<path d="M166.668 115.604V118.23C166.667 118.343 166.62 118.452 166.537 118.532C166.455 118.612 166.344 118.657 166.227 118.659H159.504C159.387 118.658 159.275 118.613 159.193 118.532C159.11 118.452 159.063 118.344 159.062 118.23V115.613C159.062 114.634 159.463 113.695 160.175 113.003C160.888 112.311 161.855 111.922 162.863 111.922C163.87 111.921 164.837 112.308 165.55 112.998C166.264 113.689 166.666 114.626 166.668 115.604Z" fill="white"/>
<path d="M128.907 49.325H122.927C122.808 49.325 122.694 49.2794 122.609 49.198C122.525 49.1166 122.477 49.0061 122.477 48.8907C122.477 48.7747 122.524 48.6635 122.608 48.5815C122.693 48.4995 122.807 48.4535 122.927 48.4535H128.907C129.027 48.4535 129.141 48.4995 129.226 48.5815C129.31 48.6635 129.357 48.7747 129.357 48.8907C129.357 49.0061 129.309 49.1166 129.225 49.198C129.14 49.2794 129.026 49.325 128.907 49.325Z" fill="#F0F4FF"/>
<path d="M134.871 49.325H130.551C130.432 49.325 130.318 49.2794 130.233 49.198C130.149 49.1166 130.101 49.0061 130.101 48.8907C130.101 48.7747 130.148 48.6635 130.232 48.5815C130.317 48.4995 130.431 48.4535 130.551 48.4535H134.871C134.99 48.4535 135.105 48.4995 135.189 48.5815C135.274 48.6635 135.321 48.7747 135.321 48.8907C135.32 49.0061 135.273 49.1166 135.188 49.198C135.104 49.2794 134.99 49.325 134.871 49.325Z" fill="#F0F4FF"/>
<path d="M125.464 51.2334H122.927C122.81 51.2334 122.697 51.1889 122.613 51.1094C122.529 51.0298 122.48 50.9215 122.477 50.8075C122.477 50.6916 122.524 50.5804 122.609 50.4984C122.693 50.4164 122.808 50.3704 122.927 50.3704H125.464C125.583 50.3711 125.697 50.4175 125.781 50.4994C125.865 50.5813 125.912 50.6921 125.912 50.8075C125.909 50.921 125.86 51.0289 125.777 51.1084C125.693 51.1878 125.581 51.2327 125.464 51.2334Z" fill="#F0F4FF"/>
<path d="M134.871 51.2335H126.978C126.86 51.2335 126.746 51.1878 126.661 51.1064C126.577 51.0251 126.529 50.9146 126.528 50.7991C126.528 50.6832 126.576 50.572 126.66 50.49C126.745 50.408 126.859 50.3619 126.978 50.3619H134.871C134.99 50.3619 135.105 50.408 135.189 50.49C135.274 50.572 135.321 50.6832 135.321 50.7991C135.32 50.9146 135.272 51.0251 135.188 51.1064C135.104 51.1878 134.99 51.2335 134.871 51.2335Z" fill="#F0F4FF"/>
<path d="M130.796 53.1586H122.927C122.808 53.1586 122.694 53.113 122.61 53.0316C122.526 52.9502 122.478 52.8398 122.477 52.7243C122.477 52.6083 122.524 52.4971 122.609 52.4152C122.693 52.3332 122.808 52.2871 122.927 52.2871H130.796C130.916 52.2871 131.03 52.3332 131.114 52.4152C131.199 52.4971 131.246 52.6083 131.246 52.7243C131.246 52.8398 131.198 52.9502 131.113 53.0316C131.029 53.113 130.915 53.1586 130.796 53.1586Z" fill="#F0F4FF"/>
<path d="M134.871 53.1586H132.333C132.215 53.1586 132.101 53.1129 132.017 53.0314C131.933 52.95 131.886 52.8395 131.886 52.7243C131.886 52.6673 131.897 52.6107 131.919 52.5579C131.941 52.505 131.974 52.4569 132.015 52.4163C132.056 52.3757 132.106 52.3434 132.16 52.3213C132.214 52.2991 132.272 52.2875 132.331 52.2871H134.871C134.99 52.2871 135.105 52.3332 135.189 52.4152C135.273 52.4971 135.321 52.6083 135.321 52.7243C135.32 52.8398 135.272 52.9502 135.188 53.0316C135.104 53.113 134.99 53.1586 134.871 53.1586Z" fill="#F0F4FF"/>
<path d="M53.2819 81.4485H32.4345C31.8178 81.4485 31.3179 81.934 31.3179 82.5329V92.7556C31.3179 93.3545 31.8178 93.8401 32.4345 93.8401H53.2819C53.8986 93.8401 54.3985 93.3545 54.3985 92.7556V82.5329C54.3985 81.934 53.8986 81.4485 53.2819 81.4485Z" fill="#193091"/>
<path d="M32.2998 83.1195H53.419" stroke="white" stroke-width="0.9" stroke-miterlimit="10" stroke-linecap="round"/>
<path d="M52.8608 82.5154C53.0012 82.5154 53.1151 82.4049 53.1151 82.2685C53.1151 82.1321 53.0012 82.0215 52.8608 82.0215C52.7203 82.0215 52.6064 82.1321 52.6064 82.2685C52.6064 82.4049 52.7203 82.5154 52.8608 82.5154Z" fill="white"/>
<path d="M51.5282 82.5154C51.6687 82.5154 51.7825 82.4049 51.7825 82.2685C51.7825 82.1321 51.6687 82.0215 51.5282 82.0215C51.3878 82.0215 51.2739 82.1321 51.2739 82.2685C51.2739 82.4049 51.3878 82.5154 51.5282 82.5154Z" fill="white"/>
<path d="M50.1923 82.5154C50.3327 82.5154 50.4466 82.4049 50.4466 82.2685C50.4466 82.1321 50.3327 82.0215 50.1923 82.0215C50.0518 82.0215 49.938 82.1321 49.938 82.2685C49.938 82.4049 50.0518 82.5154 50.1923 82.5154Z" fill="white"/>
<path d="M36.246 84.7888H32.6535C32.5604 84.788 32.4713 84.752 32.4053 84.6884C32.3392 84.6247 32.3013 84.5385 32.2998 84.4481C32.2998 84.357 32.3371 84.2696 32.4034 84.2052C32.4697 84.1408 32.5597 84.1046 32.6535 84.1046H36.246C36.3398 84.1046 36.4297 84.1408 36.4961 84.2052C36.5624 84.2696 36.5997 84.357 36.5997 84.4481C36.5981 84.5385 36.5603 84.6247 36.4942 84.6884C36.4281 84.752 36.339 84.788 36.246 84.7888Z" fill="#6589D1"/>
<path d="M36.246 86.3727H32.6535C32.5597 86.3727 32.4697 86.3365 32.4034 86.2721C32.3371 86.2076 32.2998 86.1203 32.2998 86.0292C32.2998 85.9381 32.3371 85.8507 32.4034 85.7863C32.4697 85.7219 32.5597 85.6857 32.6535 85.6857H36.246C36.3398 85.6857 36.4297 85.7219 36.4961 85.7863C36.5624 85.8507 36.5997 85.9381 36.5997 86.0292C36.5997 86.1203 36.5624 86.2076 36.4961 86.2721C36.4297 86.3365 36.3398 86.3727 36.246 86.3727Z" fill="#6589D1"/>
<path d="M36.246 87.9561H32.6535C32.5604 87.9554 32.4713 87.9194 32.4053 87.8557C32.3392 87.7921 32.3013 87.7058 32.2998 87.6155C32.2998 87.5244 32.3371 87.437 32.4034 87.3726C32.4697 87.3082 32.5597 87.272 32.6535 87.272H36.246C36.3398 87.272 36.4297 87.3082 36.4961 87.3726C36.5624 87.437 36.5997 87.5244 36.5997 87.6155C36.5981 87.7058 36.5603 87.7921 36.4942 87.8557C36.4281 87.9194 36.339 87.9554 36.246 87.9561Z" fill="#6589D1"/>
<path d="M36.246 89.5579H32.6535C32.5597 89.5579 32.4697 89.5217 32.4034 89.4572C32.3371 89.3928 32.2998 89.3055 32.2998 89.2144C32.2998 89.1233 32.3371 89.0359 32.4034 88.9715C32.4697 88.907 32.5597 88.8708 32.6535 88.8708H36.246C36.3398 88.8708 36.4297 88.907 36.4961 88.9715C36.5624 89.0359 36.5997 89.1233 36.5997 89.2144C36.5997 89.3055 36.5624 89.3928 36.4961 89.4572C36.4297 89.5217 36.3398 89.5579 36.246 89.5579Z" fill="#6589D1"/>
<path d="M36.246 91.1285H32.6535C32.5597 91.1285 32.4697 91.0923 32.4034 91.0279C32.3371 90.9635 32.2998 90.8761 32.2998 90.785C32.2998 90.6939 32.3371 90.6066 32.4034 90.5421C32.4697 90.4777 32.5597 90.4415 32.6535 90.4415H36.246C36.3398 90.4415 36.4297 90.4777 36.4961 90.5421C36.5624 90.6066 36.5997 90.6939 36.5997 90.785C36.5997 90.8761 36.5624 90.9635 36.4961 91.0279C36.4297 91.0923 36.3398 91.1285 36.246 91.1285Z" fill="#6589D1"/>
<path d="M36.246 92.7131H32.6535C32.5604 92.7124 32.4713 92.6763 32.4053 92.6127C32.3392 92.549 32.3013 92.4628 32.2998 92.3724C32.2998 92.2813 32.3371 92.194 32.4034 92.1295C32.4697 92.0651 32.5597 92.0289 32.6535 92.0289H36.246C36.3398 92.0289 36.4297 92.0651 36.4961 92.1295C36.5624 92.194 36.5997 92.2813 36.5997 92.3724C36.5981 92.4628 36.5603 92.549 36.4942 92.6127C36.4281 92.6763 36.339 92.7124 36.246 92.7131Z" fill="#6589D1"/>
<path d="M53.0653 84.7888H37.6227C37.5297 84.788 37.4406 84.752 37.3745 84.6884C37.3084 84.6247 37.2706 84.5385 37.269 84.4481C37.269 84.357 37.3063 84.2696 37.3726 84.2052C37.439 84.1408 37.5289 84.1046 37.6227 84.1046H53.0653C53.1592 84.1046 53.2491 84.1408 53.3154 84.2052C53.3818 84.2696 53.419 84.357 53.419 84.4481C53.4175 84.5385 53.3797 84.6247 53.3136 84.6884C53.2475 84.752 53.1584 84.788 53.0653 84.7888Z" fill="#3B5FB7"/>
<path d="M53.0653 86.3727H37.6227C37.5289 86.3727 37.439 86.3365 37.3726 86.2721C37.3063 86.2076 37.269 86.1203 37.269 86.0292C37.269 85.9381 37.3063 85.8507 37.3726 85.7863C37.439 85.7219 37.5289 85.6857 37.6227 85.6857H53.0653C53.1592 85.6857 53.2491 85.7219 53.3154 85.7863C53.3818 85.8507 53.419 85.9381 53.419 86.0292C53.419 86.1203 53.3818 86.2076 53.3154 86.2721C53.2491 86.3365 53.1592 86.3727 53.0653 86.3727Z" fill="#3B5FB7"/>
<path d="M53.0658 87.9561H37.6232C37.5302 87.9554 37.4411 87.9194 37.375 87.8557C37.3089 87.7921 37.2711 87.7058 37.2695 87.6155C37.2695 87.5244 37.3068 87.437 37.3731 87.3726C37.4395 87.3082 37.5294 87.272 37.6232 87.272H53.0658C53.1596 87.272 53.2496 87.3082 53.3159 87.3726C53.3823 87.437 53.4195 87.5244 53.4195 87.6155C53.418 87.7058 53.3802 87.7921 53.3141 87.8557C53.248 87.9194 53.1589 87.9554 53.0658 87.9561Z" fill="#3B5FB7"/>
<path d="M53.0653 89.5579H37.6227C37.5289 89.5579 37.439 89.5217 37.3726 89.4572C37.3063 89.3928 37.269 89.3055 37.269 89.2144C37.269 89.1233 37.3063 89.0359 37.3726 88.9715C37.439 88.907 37.5289 88.8708 37.6227 88.8708H53.0653C53.1592 88.8708 53.2491 88.907 53.3154 88.9715C53.3818 89.0359 53.419 89.1233 53.419 89.2144C53.419 89.3055 53.3818 89.3928 53.3154 89.4572C53.2491 89.5217 53.1592 89.5579 53.0653 89.5579Z" fill="#3B5FB7"/>
<path d="M53.0653 91.1285H37.6227C37.5289 91.1285 37.439 91.0923 37.3726 91.0279C37.3063 90.9635 37.269 90.8761 37.269 90.785C37.269 90.6939 37.3063 90.6066 37.3726 90.5421C37.439 90.4777 37.5289 90.4415 37.6227 90.4415H53.0653C53.1592 90.4415 53.2491 90.4777 53.3154 90.5421C53.3818 90.6066 53.419 90.6939 53.419 90.785C53.419 90.8761 53.3818 90.9635 53.3154 91.0279C53.2491 91.0923 53.1592 91.1285 53.0653 91.1285Z" fill="#3B5FB7"/>
<path d="M53.0658 92.7131H37.6232C37.5302 92.7124 37.4411 92.6763 37.375 92.6127C37.3089 92.549 37.2711 92.4628 37.2695 92.3724C37.2695 92.2813 37.3068 92.194 37.3731 92.1295C37.4395 92.0651 37.5294 92.0289 37.6232 92.0289H53.0658C53.1596 92.0289 53.2496 92.0651 53.3159 92.1295C53.3823 92.194 53.4195 92.2813 53.4195 92.3724C53.418 92.4628 53.3802 92.549 53.3141 92.6127C53.248 92.6763 53.1589 92.7124 53.0658 92.7131Z" fill="#3B5FB7"/>
<path d="M161.487 29.1067C162.71 24.1498 159.563 19.169 154.459 17.9817C149.355 16.7944 144.227 19.8502 143.004 24.8071C141.782 29.764 144.928 34.7448 150.032 35.9321C155.136 37.1194 160.265 34.0636 161.487 29.1067Z" stroke="#DEE3FC" stroke-width="0.79" stroke-miterlimit="10"/>
<path d="M152.251 34.9755C156.814 34.9755 160.512 31.3836 160.512 26.9529C160.512 22.5221 156.814 18.9303 152.251 18.9303C147.689 18.9303 143.991 22.5221 143.991 26.9529C143.991 31.3836 147.689 34.9755 152.251 34.9755Z" fill="#3945BA"/>
<path d="M153.005 26.9579C153.006 27.1027 152.962 27.2445 152.88 27.3652C152.798 27.486 152.68 27.5803 152.543 27.6363C152.405 27.6922 152.253 27.7073 152.107 27.6796C151.961 27.6519 151.826 27.5826 151.72 27.4806C151.614 27.3786 151.542 27.2483 151.512 27.1064C151.482 26.9644 151.497 26.8171 151.553 26.683C151.61 26.549 151.706 26.4342 151.83 26.3533C151.954 26.2723 152.099 26.2288 152.248 26.2283C152.347 26.2283 152.445 26.2471 152.536 26.2838C152.627 26.3205 152.71 26.3742 152.779 26.442C152.849 26.5097 152.905 26.5901 152.942 26.6787C152.98 26.7672 153 26.862 153 26.9579H153.005Z" fill="white"/>
<path d="M152.17 26.8192C152.115 26.8479 152.051 26.8547 151.992 26.8383C151.932 26.8218 151.882 26.7834 151.851 26.7312L149.422 22.4729C149.407 22.4469 149.397 22.4182 149.393 22.3884C149.389 22.3586 149.391 22.3284 149.4 22.2996C149.408 22.2707 149.423 22.2438 149.442 22.2204C149.461 22.1971 149.485 22.1777 149.513 22.1635C149.567 22.1346 149.632 22.1277 149.692 22.1441C149.752 22.1605 149.803 22.1991 149.834 22.2515L152.263 26.5097C152.293 26.5629 152.299 26.6252 152.282 26.6831C152.264 26.7409 152.224 26.7898 152.17 26.8192Z" fill="white"/>
<path d="M152.371 27.0749C152.415 27.0322 152.475 27.0083 152.538 27.0083C152.6 27.0083 152.66 27.0322 152.704 27.0749L154.806 29.116C154.85 29.1586 154.874 29.2163 154.874 29.2764C154.874 29.3365 154.85 29.3942 154.806 29.4368C154.762 29.4793 154.703 29.5031 154.641 29.5031C154.579 29.5031 154.52 29.4793 154.476 29.4368L152.371 27.3871C152.33 27.345 152.307 27.2891 152.307 27.231C152.307 27.1729 152.33 27.117 152.371 27.0749Z" fill="white"/>
<path d="M152.304 20.5399V19.6173" stroke="white" stroke-width="2" stroke-miterlimit="10" stroke-linecap="round"/>
<path d="M158.863 27.0094H159.813" stroke="white" stroke-width="2" stroke-miterlimit="10" stroke-linecap="round"/>
<path d="M152.202 33.3809V34.3035" stroke="white" stroke-width="2" stroke-miterlimit="10" stroke-linecap="round"/>
<path d="M145.642 26.91H144.692" stroke="white" stroke-width="2" stroke-miterlimit="10" stroke-linecap="round"/>
<g opacity="0.5">
<path d="M148.992 21.3747L148.516 20.5741" stroke="#DEE3FC" stroke-miterlimit="10" stroke-linecap="round"/>
<path d="M158.004 23.7905L158.828 23.3306" stroke="#DEE3FC" stroke-miterlimit="10" stroke-linecap="round"/>
<path d="M155.516 32.5455L155.99 33.3432" stroke="#DEE3FC" stroke-miterlimit="10" stroke-linecap="round"/>
<path d="M146.502 30.1268L145.677 30.5896" stroke="#DEE3FC" stroke-miterlimit="10" stroke-linecap="round"/>
</g>
<g opacity="0.5">
<path d="M146.551 23.7057L145.73 23.2458" stroke="#DEE3FC" stroke-miterlimit="10" stroke-linecap="round"/>
<path d="M155.601 21.4231L156.078 20.6254" stroke="#DEE3FC" stroke-miterlimit="10" stroke-linecap="round"/>
<path d="M157.954 30.2122L158.775 30.6749" stroke="#DEE3FC" stroke-miterlimit="10" stroke-linecap="round"/>
<path d="M148.905 32.4974L148.428 33.2952" stroke="#DEE3FC" stroke-miterlimit="10" stroke-linecap="round"/>
</g>
<path d="M39.3592 57.8303H28.9268C27.3818 57.8303 26.1294 59.0467 26.1294 60.5471V70.679C26.1294 72.1794 27.3818 73.3957 28.9268 73.3957H39.3592C40.9042 73.3957 42.1566 72.1794 42.1566 70.679V60.5471C42.1566 59.0467 40.9042 57.8303 39.3592 57.8303Z" fill="#193091"/>
<path d="M38.6724 56.4824H27.1292C25.891 56.4824 24.8872 57.4573 24.8872 58.6598V69.8704C24.8872 71.073 25.891 72.0478 27.1292 72.0478H38.6724C39.9107 72.0478 40.9144 71.073 40.9144 69.8704V58.6598C40.9144 57.4573 39.9107 56.4824 38.6724 56.4824Z" fill="#7E89FD" stroke="#DEE3FC" stroke-miterlimit="10"/>
<path d="M35.679 62.4844H35.5942V61.593C35.5942 60.8891 35.3063 60.2139 34.7938 59.7161C34.2812 59.2184 33.586 58.9387 32.8612 58.9387C32.1363 58.9387 31.4411 59.2184 30.9286 59.7161C30.416 60.2139 30.1281 60.8891 30.1281 61.593V62.4844H30.1076C29.9037 62.4844 29.7082 62.5631 29.564 62.7031C29.4199 62.8431 29.3389 63.033 29.3389 63.2311V66.5894C29.3389 66.7874 29.4199 66.9773 29.564 67.1174C29.7082 67.2574 29.9037 67.336 30.1076 67.336H35.6615C35.8649 67.3353 36.0597 67.2563 36.2032 67.1164C36.3467 66.9764 36.4273 66.7869 36.4273 66.5894V63.2311C36.4274 63.0364 36.3492 62.8495 36.2094 62.71C36.0697 62.5706 35.8793 62.4896 35.679 62.4844ZM30.8209 61.593C30.8209 61.066 31.0364 60.5606 31.4202 60.1879C31.8039 59.8152 32.3243 59.6058 32.867 59.6058C33.4097 59.6058 33.9301 59.8152 34.3139 60.1879C34.6976 60.5606 34.9132 61.066 34.9132 61.593V62.4844H30.8209V61.593Z" fill="#DEE3FC"/>
<path d="M33.7938 64.213C33.794 64.0612 33.753 63.912 33.675 63.7805C33.5971 63.6489 33.4849 63.5395 33.3497 63.4633C33.2144 63.3872 33.061 63.3468 32.9047 63.3464C32.7484 63.346 32.5947 63.3855 32.459 63.461C32.3234 63.5365 32.2106 63.6453 32.1319 63.7765C32.0532 63.9076 32.0115 64.0566 32.0108 64.2084C32.0101 64.3602 32.0505 64.5095 32.1279 64.6414C32.2054 64.7732 32.3172 64.883 32.4521 64.9597C32.4835 64.9757 32.5086 65.0014 32.5234 65.0327C32.5382 65.064 32.5419 65.0992 32.534 65.1328L32.379 65.7006C32.3583 65.7775 32.3559 65.8579 32.3722 65.9358C32.3885 66.0137 32.4229 66.0869 32.4729 66.1498C32.5228 66.2127 32.587 66.2637 32.6604 66.2988C32.7339 66.3338 32.8146 66.352 32.8964 66.352C32.9783 66.352 33.059 66.3338 33.1324 66.2988C33.2059 66.2637 33.27 66.2127 33.32 66.1498C33.37 66.0869 33.4044 66.0137 33.4207 65.9358C33.4369 65.8579 33.4346 65.7775 33.4138 65.7006L33.2589 65.1499C33.2502 65.1159 33.2536 65.08 33.2684 65.0481C33.2833 65.0162 33.3087 64.99 33.3407 64.9738C33.4803 64.899 33.5963 64.7886 33.6761 64.6546C33.756 64.5205 33.7967 64.3679 33.7938 64.213Z" fill="#7E89FD"/>
<path d="M36.1146 68.5141H29.6838C29.5967 68.5127 29.5135 68.4784 29.4519 68.4186C29.3903 68.3587 29.355 68.278 29.3535 68.1933C29.3543 68.1087 29.3894 68.0279 29.4513 67.9683C29.5132 67.9088 29.5967 67.8754 29.6838 67.8754H36.1146C36.1576 67.875 36.2002 67.8829 36.2401 67.8985C36.28 67.9141 36.3163 67.9372 36.3469 67.9665C36.3776 67.9958 36.4021 68.0306 36.4189 68.069C36.4357 68.1075 36.4445 68.1487 36.4449 68.1905C36.4441 68.2753 36.4091 68.3565 36.3473 68.4165C36.2855 68.4765 36.202 68.5105 36.1146 68.5113V68.5141Z" fill="#DEE3FC"/>
<path d="M36.1146 69.5953H29.6838C29.5967 69.5953 29.5132 69.5619 29.4513 69.5023C29.3894 69.4428 29.3543 69.3619 29.3535 69.2773C29.3543 69.1925 29.3893 69.1113 29.4511 69.0513C29.5129 68.9913 29.5965 68.9573 29.6838 68.9566H36.1146C36.1576 68.9562 36.2002 68.964 36.2401 68.9797C36.28 68.9953 36.3163 69.0184 36.3469 69.0477C36.3776 69.0769 36.4021 69.1118 36.4189 69.1502C36.4357 69.1886 36.4445 69.2299 36.4449 69.2717C36.4449 69.356 36.4104 69.4369 36.349 69.4965C36.2876 69.5561 36.2043 69.5896 36.1175 69.5896L36.1146 69.5953Z" fill="#DEE3FC"/>
<path d="M165.616 82.5319H159.471C158.562 82.5319 157.826 83.2474 157.826 84.1301V90.0974C157.826 90.9801 158.562 91.6957 159.471 91.6957H165.616C166.525 91.6957 167.261 90.9801 167.261 90.0974V84.1301C167.261 83.2474 166.525 82.5319 165.616 82.5319Z" fill="#193091"/>
<path d="M165.21 81.7371H158.411C157.683 81.7371 157.092 82.3103 157.092 83.0174V89.6205C157.092 90.3276 157.683 90.9009 158.411 90.9009H165.21C165.938 90.9009 166.528 90.3276 166.528 89.6205V83.0174C166.528 82.3103 165.938 81.7371 165.21 81.7371Z" fill="#7E89FD" stroke="#DEE3FC" stroke-miterlimit="10"/>
<path d="M159.892 89.0585H159.813C159.775 89.0496 159.739 89.0334 159.708 89.0107C159.676 88.988 159.65 88.9594 159.63 88.9265C159.61 88.8937 159.597 88.8573 159.592 88.8195C159.587 88.7817 159.59 88.7433 159.6 88.7065L161.062 83.7896C161.087 83.7223 161.137 83.6667 161.203 83.634C161.268 83.6013 161.344 83.5939 161.415 83.6133C161.486 83.6327 161.547 83.6774 161.586 83.7386C161.624 83.7997 161.637 83.8727 161.623 83.9429L160.185 88.8513C160.167 88.9127 160.129 88.9665 160.075 89.0041C160.022 89.0417 159.958 89.0609 159.892 89.0585Z" fill="white"/>
<path d="M162.292 89.0588H162.21C162.136 89.0382 162.073 88.99 162.035 88.9246C161.998 88.8591 161.988 88.7819 162.009 88.7096L163.438 83.804C163.446 83.7658 163.462 83.7295 163.485 83.6975C163.508 83.6655 163.538 83.6385 163.572 83.6182C163.607 83.5978 163.645 83.5845 163.685 83.5792C163.725 83.5739 163.765 83.5766 163.804 83.5871C163.842 83.5977 163.879 83.6159 163.91 83.6407C163.941 83.6654 163.966 83.6961 163.985 83.7308C164.003 83.7656 164.014 83.8036 164.016 83.8426C164.019 83.8816 164.013 83.9206 163.999 83.9573L162.573 88.8629C162.554 88.9202 162.516 88.9702 162.466 89.0054C162.415 89.0406 162.354 89.0593 162.292 89.0588Z" fill="white"/>
<path d="M164.335 85.4932H159.284C159.206 85.4932 159.132 85.4633 159.077 85.41C159.023 85.3568 158.992 85.2846 158.992 85.2093C158.992 85.134 159.023 85.0618 159.077 85.0086C159.132 84.9553 159.206 84.9254 159.284 84.9254H164.335C164.413 84.9254 164.487 84.9553 164.542 85.0086C164.597 85.0618 164.627 85.134 164.627 85.2093C164.627 85.2846 164.597 85.3568 164.542 85.41C164.487 85.4633 164.413 85.4932 164.335 85.4932Z" fill="white"/>
<path d="M164.335 87.7331H159.284C159.206 87.7331 159.132 87.7031 159.077 87.6499C159.023 87.5967 158.992 87.5245 158.992 87.4492C158.992 87.3739 159.023 87.3017 159.077 87.2484C159.132 87.1952 159.206 87.1653 159.284 87.1653H164.335C164.413 87.1653 164.487 87.1952 164.542 87.2484C164.597 87.3017 164.627 87.3739 164.627 87.4492C164.627 87.5245 164.597 87.5967 164.542 87.6499C164.487 87.7031 164.413 87.7331 164.335 87.7331Z" fill="white"/>
<path d="M51.7003 62.5891H48.0465C47.9402 62.5891 47.8384 62.5481 47.7633 62.4752C47.6882 62.4023 47.646 62.3033 47.646 62.2002C47.646 62.0971 47.6882 61.9981 47.7633 61.9252C47.8384 61.8522 47.9402 61.8113 48.0465 61.8113H51.7003C51.8065 61.8113 51.9084 61.8522 51.9835 61.9252C52.0586 61.9981 52.1008 62.0971 52.1008 62.2002C52.1008 62.3033 52.0586 62.4023 51.9835 62.4752C51.9084 62.5481 51.8065 62.5891 51.7003 62.5891Z" fill="#F0F4FF"/>
<path d="M55.3805 64.3125H48.0465C47.9402 64.3125 47.8384 64.2715 47.7633 64.1986C47.6882 64.1257 47.646 64.0267 47.646 63.9236C47.6475 63.8209 47.6902 63.7228 47.765 63.6502C47.8397 63.5776 47.9407 63.5361 48.0465 63.5347H55.3805C55.4867 63.5347 55.5885 63.5756 55.6636 63.6486C55.7387 63.7215 55.7809 63.8204 55.7809 63.9236C55.7809 64.0267 55.7387 64.1257 55.6636 64.1986C55.5885 64.2715 55.4867 64.3125 55.3805 64.3125Z" fill="#F0F4FF"/>
<path d="M48.9146 66.041H48.0377C47.9319 66.0396 47.8309 65.9981 47.7562 65.9255C47.6814 65.8529 47.6387 65.7548 47.6372 65.6521C47.6372 65.549 47.6794 65.45 47.7545 65.3771C47.8296 65.3042 47.9315 65.2632 48.0377 65.2632H48.9146C49.0208 65.2632 49.1227 65.3042 49.1978 65.3771C49.2729 65.45 49.3151 65.549 49.3151 65.6521C49.3135 65.7548 49.2709 65.8529 49.1961 65.9255C49.1213 65.9981 49.0203 66.0396 48.9146 66.041Z" fill="#F0F4FF"/>
<path d="M55.3806 66.041H50.2769C50.1712 66.0396 50.0702 65.9981 49.9954 65.9255C49.9207 65.8529 49.878 65.7548 49.8765 65.6521C49.8765 65.549 49.9187 65.45 49.9938 65.3771C50.0689 65.3042 50.1707 65.2632 50.2769 65.2632H55.3835C55.4897 65.2632 55.5916 65.3042 55.6667 65.3771C55.7418 65.45 55.784 65.549 55.784 65.6521C55.784 65.7553 55.7418 65.8542 55.6667 65.9271C55.5916 66 55.4897 66.041 55.3835 66.041H55.3806Z" fill="#F0F4FF"/>
<path d="M55.3808 62.5891H53.168C53.0618 62.5891 52.96 62.5481 52.8849 62.4752C52.8098 62.4023 52.7676 62.3033 52.7676 62.2002C52.7676 62.0971 52.8098 61.9981 52.8849 61.9252C52.96 61.8522 53.0618 61.8113 53.168 61.8113H55.3808C55.487 61.8113 55.5889 61.8522 55.664 61.9252C55.7391 61.9981 55.7813 62.0971 55.7813 62.2002C55.7813 62.3033 55.7391 62.4023 55.664 62.4752C55.5889 62.5481 55.487 62.5891 55.3808 62.5891Z" fill="#F0F4FF"/>
<path d="M34.7846 115.652C34.3266 115.65 33.8768 115.77 33.4838 115.999C33.4049 115.325 33.0637 114.707 32.5302 114.27C31.9967 113.833 31.3113 113.611 30.6146 113.649C29.9178 113.687 29.2624 113.982 28.7828 114.475C28.3032 114.967 28.0358 115.619 28.0352 116.297C28.0352 116.392 28.0411 116.486 28.0527 116.581C27.7667 116.527 27.4723 116.532 27.1884 116.595C26.9045 116.659 26.6375 116.779 26.4044 116.949C26.1713 117.119 25.9774 117.334 25.8352 117.581C25.6929 117.828 25.6054 118.101 25.5784 118.382C25.5513 118.664 25.5853 118.948 25.6781 119.216C25.7708 119.485 25.9204 119.731 26.1171 119.939C26.3139 120.148 26.5534 120.315 26.8203 120.428C27.0872 120.541 27.3756 120.599 27.6669 120.598H34.7846C35.1199 120.609 35.4542 120.556 35.7685 120.442C36.0828 120.328 36.3708 120.155 36.6162 119.933C36.8615 119.711 37.0593 119.444 37.1982 119.147C37.3371 118.851 37.4145 118.53 37.4258 118.205C37.4372 117.879 37.3823 117.554 37.2643 117.249C37.1463 116.944 36.9675 116.665 36.7382 116.427C36.5089 116.189 36.2336 115.998 35.9279 115.863C35.6223 115.729 35.2924 115.654 34.957 115.644H34.7846V115.652Z" fill="white"/>
<path d="M16.6614 105.013C16.5921 104.644 16.6051 104.264 16.6994 103.9C17.2289 101.927 17.1843 99.8492 16.5708 97.8988C15.2057 93.7569 9.67236 90.0891 9.67236 90.0891C9.67236 90.0891 11.1719 96.2012 12.4084 98.8015C13.3116 100.706 14.893 102.875 15.7728 104.017C16.0165 104.332 16.1816 104.699 16.2551 105.087C16.7992 107.923 17.0586 110.804 17.0297 113.688L17.4448 113.706C17.4751 110.79 17.2127 107.879 16.6614 105.013Z" fill="#DEE3FC"/>
<path d="M21.087 101.121C21.8201 98.7142 22.3587 96.2558 22.6976 93.7679C22.6976 93.7679 17.7284 97.7423 17.3279 100.82C17.1299 102.256 17.2454 103.716 17.667 105.106C17.7859 105.483 17.8256 105.879 17.7839 106.27C17.4766 108.944 17.4423 111.641 17.6816 114.321L18.0558 114.279C17.8311 111.763 17.8507 109.233 18.1142 106.722C18.1752 106.136 18.4132 105.581 18.7982 105.126C19.8059 103.937 20.5816 102.58 21.087 101.121Z" fill="#B4C1EF"/>
<path d="M26.1296 93.6121C26.1296 93.6121 20.7833 95.5396 19.386 99.778C18.7529 101.794 18.7124 103.941 19.2691 105.978C19.3597 106.326 19.3597 106.69 19.2691 107.037C18.481 110.316 18.0548 113.666 17.9976 117.033H18.4156C18.4739 113.74 18.8864 110.462 19.6462 107.253C19.7649 106.777 19.9806 106.329 20.2805 105.936C21.1925 104.743 22.7446 102.597 23.642 100.704C24.9136 98.0407 26.1296 93.6121 26.1296 93.6121Z" fill="#DEE3FC"/>
<path d="M16.6962 111.499C16.5611 109.872 16.1441 108.279 15.4627 106.786C15.3411 106.519 15.2977 106.225 15.337 105.935C15.4372 105.089 15.3947 104.232 15.2113 103.4C14.7787 101.319 11.9345 96.8249 7.81885 96.5609C8.64305 97.861 9.36233 99.221 9.97023 100.629C10.8939 102.977 12.2152 105.432 14.4016 106.375C14.7866 106.542 15.0903 106.847 15.2493 107.226C15.84 108.593 16.2022 110.042 16.3221 111.519L16.6962 111.499Z" fill="#B4C1EF"/>
<path d="M13.9142 120.604H20.7074L22.4612 110.146C22.4775 110.047 22.4734 109.945 22.4493 109.848C22.4251 109.75 22.3814 109.658 22.3206 109.577C22.2598 109.496 22.1831 109.427 22.0948 109.374C22.0066 109.322 21.9086 109.287 21.8065 109.271C21.7666 109.269 21.7265 109.269 21.6866 109.271H12.9174C12.7106 109.271 12.5123 109.351 12.3655 109.492C12.2188 109.634 12.1355 109.826 12.134 110.027C12.1311 110.069 12.1311 110.112 12.134 110.154L13.9142 120.604Z" fill="#DEE3FC"/>
<path d="M-0.0322266 120.604H190.032" stroke="white" stroke-width="1.11" stroke-miterlimit="10" stroke-linecap="round"/>
</g>
<defs>
<clipPath id="clip0_327_4562">
<rect width="190" height="121" fill="white"/>
</clipPath>
</defs>
</svg>
