<svg width="160" height="121" viewBox="0 0 160 121" fill="none" xmlns="http://www.w3.org/2000/svg">
<g clip-path="url(#clip0_327_949)">
<path d="M93.1743 116.177L137.64 104.477L162.158 111.908L120.227 125.257L93.1743 116.177Z" fill="#DADAF2"/>
<path d="M119.243 112.312L139.172 107.071L150.158 110.398L131.366 116.383L119.243 112.312Z" fill="#AEAECC"/>
<path d="M67.1343 115.741L111.602 104.039L136.118 111.471L94.1868 124.82L67.1343 115.741Z" fill="#E9E9FE"/>
<path d="M94.0327 112.661L113.964 107.418L124.952 110.747L106.158 116.732L94.0327 112.661Z" fill="#DADAF2"/>
<path d="M30.2772 97.317C30.2772 97.317 16.0746 100.199 14.8054 86.0616C13.5362 71.9237 34.335 74.8061 27.4863 60.6614C20.6375 46.5167 5.17012 50.9618 5.67516 28.172C6.1802 5.38215 31.2916 6.68391 35.3539 15.329C39.4162 23.9741 53.6143 28.1652 65.7858 22.1326C77.9572 16.1001 95.4513 4.05999 109.401 7.72486C123.351 11.3897 127.662 17.9416 126.902 28.68C126.142 39.4183 122.089 51.2158 131.215 58.8086C140.341 66.4014 148.461 83.9547 131.215 93.9174C131.215 93.9174 125.637 97.2807 122.087 97.5642L30.2772 97.317Z" fill="#F7F8FF"/>
<path d="M123.114 26.0693H29.7676V97.4074H123.114V26.0693Z" fill="#D7DCFF"/>
<path d="M123.114 26.0693H29.7676V29.8726H123.114V26.0693Z" fill="#91CDF8"/>
<path d="M33.0657 29.873H29.7676V97.4079H33.0657V29.873Z" fill="#2B284F"/>
<path d="M123.119 29.873H119.298V97.4079H123.119V29.873Z" fill="#2B284F"/>
<path d="M32.6224 27.9656C32.6224 28.149 32.5697 28.3284 32.471 28.4809C32.3723 28.6334 32.2321 28.7523 32.0679 28.8225C31.9038 28.8927 31.7233 28.9111 31.5491 28.8753C31.3748 28.8395 31.2148 28.7512 31.0892 28.6215C30.9636 28.4917 30.8781 28.3265 30.8434 28.1465C30.8088 27.9666 30.8266 27.7801 30.8945 27.6106C30.9625 27.4411 31.0776 27.2963 31.2253 27.1943C31.373 27.0924 31.5466 27.038 31.7243 27.038C31.9625 27.038 32.1909 27.1358 32.3593 27.3097C32.5277 27.4837 32.6224 27.7196 32.6224 27.9656Z" fill="#2B284F"/>
<path d="M35.3538 27.9656C35.3538 28.149 35.3011 28.3284 35.2024 28.4809C35.1038 28.6334 34.9635 28.7523 34.7994 28.8225C34.6353 28.8927 34.4547 28.9111 34.2805 28.8753C34.1063 28.8395 33.9463 28.7512 33.8207 28.6215C33.6951 28.4917 33.6095 28.3265 33.5749 28.1465C33.5402 27.9666 33.558 27.7801 33.626 27.6106C33.694 27.4411 33.8091 27.2963 33.9568 27.1943C34.1044 27.0924 34.2781 27.038 34.4557 27.038C34.6939 27.038 34.9223 27.1358 35.0908 27.3097C35.2592 27.4837 35.3538 27.7196 35.3538 27.9656Z" fill="#2B284F"/>
<path d="M38.0877 27.9656C38.0881 28.1495 38.0357 28.3294 37.9372 28.4825C37.8386 28.6357 37.6983 28.7552 37.5339 28.826C37.3696 28.8968 37.1886 28.9157 37.0139 28.8802C36.8392 28.8448 36.6786 28.7567 36.5524 28.6269C36.4261 28.4972 36.34 28.3318 36.3048 28.1515C36.2697 27.9712 36.2871 27.7842 36.3548 27.6141C36.4225 27.444 36.5376 27.2985 36.6854 27.196C36.8332 27.0934 37.0071 27.0385 37.1852 27.038C37.3034 27.0377 37.4206 27.0615 37.5299 27.1079C37.6392 27.1544 37.7386 27.2226 37.8224 27.3088C37.9062 27.3949 37.9728 27.4972 38.0183 27.6099C38.0638 27.7226 38.0874 27.8435 38.0877 27.9656Z" fill="#2B284F"/>
<path d="M104.759 42.5771H47.1035V81.6933H104.759V42.5771Z" fill="white"/>
<path d="M119.298 29.873H33.0659V33.2295H119.298V29.873Z" fill="#484777"/>
<path d="M45.2353 12.7714H47.7891C47.7891 12.7714 47.4663 15.4928 49.8465 16.0371L46.9371 23.8363L43.3228 16.2231C43.3228 16.2231 45.4549 15.5631 45.2353 12.7714Z" fill="#2B284F"/>
<path d="M47.7847 10.7285H45.231V11.9758H47.7847V10.7285Z" fill="#2B284F"/>
<path d="M46.9322 23.8358L46.7192 16.1115" stroke="#D7DCFF" stroke-miterlimit="10"/>
<path d="M46.7284 16.288C46.9916 16.288 47.2049 16.0676 47.2049 15.7958C47.2049 15.524 46.9916 15.3037 46.7284 15.3037C46.4653 15.3037 46.252 15.524 46.252 15.7958C46.252 16.0676 46.4653 16.288 46.7284 16.288Z" fill="#D7DCFF"/>
<path d="M29.8911 21.7123L46.9329 23.8396L66.221 16.7344" stroke="#4549C3" stroke-miterlimit="10"/>
<path d="M29.669 22.0415C29.8448 22.0415 29.9874 21.8942 29.9874 21.7126C29.9874 21.531 29.8448 21.3838 29.669 21.3838C29.4931 21.3838 29.3506 21.531 29.3506 21.7126C29.3506 21.8942 29.4931 22.0415 29.669 22.0415Z" fill="#4549C3"/>
<path d="M66.3985 16.9487C66.5743 16.9487 66.7169 16.8015 66.7169 16.6199C66.7169 16.4382 66.5743 16.291 66.3985 16.291C66.2226 16.291 66.0801 16.4382 66.0801 16.6199C66.0801 16.8015 66.2226 16.9487 66.3985 16.9487Z" fill="#4549C3"/>
<path d="M123.117 75.1375C123.117 75.1375 123.497 75.0604 124.118 74.8699" stroke="#4549C3" stroke-miterlimit="10"/>
<path d="M126.129 74.0732C128.342 73.0459 131.269 71.1431 133.076 67.8048C136.289 61.8653 135.61 56.0119 131.384 52.304C128.456 49.7367 127.157 47.9224 126.854 46.2714" stroke="#4549C3" stroke-miterlimit="10" stroke-dasharray="8.3 8.3"/>
<path d="M126.795 45.167C126.823 44.8109 126.888 44.4589 126.988 44.117" stroke="#4549C3" stroke-miterlimit="10"/>
<path d="M29.7676 47.0156C29.4304 46.9387 29.0896 46.8796 28.7466 46.8387" stroke="#4549C3" stroke-miterlimit="10"/>
<path d="M26.6101 46.7344C24.5965 46.7729 21.9132 47.222 19.4561 48.9455C14.7197 52.2634 12.8686 60.1216 19.4561 67.279C24.6602 72.935 27.4423 75.3208 28.8827 77.7112" stroke="#4549C3" stroke-miterlimit="10" stroke-dasharray="8.25 8.25"/>
<path d="M29.3901 78.6796C29.5352 79.0044 29.6599 79.3385 29.7634 79.6798" stroke="#4549C3" stroke-miterlimit="10"/>
<path d="M45.2178 106.207C45.2178 106.207 48.0723 105.738 49.111 103.109C50.1496 100.481 50.2857 99.6302 50.2857 97.6073C50.2857 95.5843 51.3836 94.464 52.3981 94.0263" stroke="#F36290" stroke-linecap="round" stroke-linejoin="round"/>
<path d="M48.0722 104.663C48.0722 104.663 45.6832 102.973 46.4342 101.608C47.1851 100.242 49.0384 102.642 48.0722 104.663Z" fill="#F36290"/>
<path d="M49.7319 101.515C49.7319 101.515 50.8957 98.7755 52.3274 99.2835C53.7591 99.7915 51.8355 102.125 49.7319 101.515Z" fill="#F36290"/>
<path d="M50.235 98.7684C50.235 98.7684 47.4309 98.0427 47.6747 96.4847C47.9184 94.9267 50.4744 96.5368 50.235 98.7684Z" fill="#F36290"/>
<path d="M52.1167 94.1468C52.1167 94.1468 52.9248 91.2734 54.4135 91.5863C55.9023 91.8993 54.2796 94.4801 52.1167 94.1468Z" fill="#F36290"/>
<path d="M128.415 100.19C128.415 100.19 131.292 99.7119 132.308 97.0925C133.325 94.4731 133.492 93.6091 133.492 91.5907C133.492 89.5723 134.59 88.4497 135.604 88.012" stroke="#F36290" stroke-linecap="round" stroke-linejoin="round"/>
<path d="M131.27 98.6452C131.27 98.6452 128.88 96.9556 129.634 95.5904C130.387 94.2251 132.242 96.6223 131.27 98.6452Z" fill="#F36290"/>
<path d="M132.94 95.5004C132.94 95.5004 134.1 92.7608 135.536 93.2688C136.972 93.7768 135.044 96.115 132.94 95.5004Z" fill="#F36290"/>
<path d="M133.445 92.7661C133.445 92.7661 130.637 92.0313 130.885 90.4824C131.133 88.9334 133.683 90.5255 133.445 92.7661Z" fill="#F36290"/>
<path d="M135.325 88.1318C135.325 88.1318 136.142 85.2607 137.622 85.5691C139.102 85.8775 137.488 88.4561 135.325 88.1318Z" fill="#F36290"/>
<path d="M28.0661 107.418C32.0341 107.418 35.2508 106.909 35.2508 106.282C35.2508 105.654 32.0341 105.146 28.0661 105.146C24.0981 105.146 20.8813 105.654 20.8813 106.282C20.8813 106.909 24.0981 107.418 28.0661 107.418Z" fill="#72C0E3"/>
<path d="M42.4352 107.418C46.4032 107.418 49.6199 106.909 49.6199 106.282C49.6199 105.654 46.4032 105.146 42.4352 105.146C38.4672 105.146 35.2505 105.654 35.2505 106.282C35.2505 106.909 38.4672 107.418 42.4352 107.418Z" fill="#72C0E3"/>
<path d="M49.2228 102.787C49.3611 103.397 46.3528 104.663 42.4926 105.633C38.6323 106.604 35.3935 106.885 35.2464 106.275C35.0993 105.665 38.1163 104.397 41.9722 103.429C45.828 102.461 49.0801 102.184 49.2228 102.787Z" fill="#72C0E3"/>
<path d="M48.2105 99.8569C48.4696 100.424 45.7841 102.318 42.2049 104.089C38.6257 105.86 35.5142 106.84 35.2507 106.273C34.9872 105.706 37.6771 103.812 41.2563 102.041C44.8355 100.27 47.947 99.3036 48.2105 99.8569Z" fill="#72C0E3"/>
<path d="M46.445 96.9739C46.827 97.4615 44.629 99.9403 41.5395 102.512C38.45 105.084 35.6327 106.769 35.2507 106.272C34.8686 105.775 37.0666 103.304 40.1605 100.734C43.2544 98.1645 46.0629 96.4863 46.445 96.9739Z" fill="#72C0E3"/>
<path d="M44.1174 94.6028C44.5961 94.9883 42.9997 97.9184 40.5492 101.143C38.0986 104.368 35.7293 106.672 35.2506 106.273C34.772 105.874 36.3727 102.958 38.8189 99.7327C41.265 96.5078 43.6409 94.2127 44.1174 94.6028Z" fill="#72C0E3"/>
<path d="M41.1071 92.7268C41.6627 92.9944 40.7997 96.2239 39.1814 99.9636C37.5631 103.703 35.8064 106.54 35.2509 106.273C34.6953 106.005 35.5605 102.787 37.1744 99.036C38.7883 95.285 40.5472 92.4728 41.1071 92.7268Z" fill="#72C0E3"/>
<path d="M37.7694 91.6697C38.3689 91.7808 38.2876 95.1554 37.5915 99.1741C36.8955 103.193 35.8459 106.393 35.2574 106.282C34.6689 106.17 34.737 102.798 35.4352 98.7772C36.1335 94.7563 37.1743 91.5608 37.7694 91.6697Z" fill="#72C0E3"/>
<path d="M34.1679 91.48C34.7762 91.4346 35.5074 94.7094 35.806 98.7984C36.1046 102.887 35.8543 106.237 35.2505 106.282C34.6466 106.328 33.9154 103.066 33.6124 98.9685C33.3094 94.8704 33.5641 91.5321 34.1679 91.48Z" fill="#72C0E3"/>
<path d="M35.2518 106.279C35.8311 106.09 35.3302 102.769 34.133 98.8617C32.9359 94.9545 31.4958 91.9405 30.9165 92.1299C30.3373 92.3192 30.8382 95.6401 32.0353 99.5473C33.2325 103.455 34.6726 106.469 35.2518 106.279Z" fill="#72C0E3"/>
<path d="M27.0999 94.0588C27.5984 93.7027 29.8293 96.152 32.08 99.5266C34.3308 102.901 35.7514 105.929 35.2508 106.283C34.7502 106.636 32.5214 104.189 30.2707 100.815C28.02 97.4402 26.5993 94.4149 27.0999 94.0588Z" fill="#72C0E3"/>
<path d="M24.2257 96.7644C24.6143 96.2836 27.3965 98.0253 30.453 100.651C33.5096 103.278 35.644 105.804 35.2619 106.28C34.8798 106.757 32.0889 105.022 29.0345 102.391C25.9801 99.7602 23.837 97.2451 24.2257 96.7644Z" fill="#72C0E3"/>
<path d="M22.2166 100.029C22.4757 99.4596 25.5916 100.398 29.1971 102.124C32.8027 103.85 35.5079 105.714 35.251 106.281C34.9941 106.848 31.8782 105.912 28.2705 104.184C24.6628 102.455 21.9597 100.598 22.2166 100.029Z" fill="#72C0E3"/>
<path d="M21.2152 103.096C21.3448 102.483 24.588 102.699 28.4812 103.581C32.3744 104.463 35.3914 105.672 35.2619 106.282C35.1323 106.892 31.8891 106.679 27.9959 105.797C24.1027 104.914 21.0813 103.712 21.2152 103.096Z" fill="#72C0E3"/>
<path d="M129.102 104.868C129.102 105.497 125.885 106.002 121.918 106.002C117.95 106.002 114.733 105.497 114.733 104.868C114.733 104.24 117.95 103.734 121.918 103.734C125.885 103.734 129.102 104.242 129.102 104.868Z" fill="#7F85FC"/>
<path d="M143.476 104.868C143.476 105.497 140.26 106.002 136.289 106.002C132.319 106.002 129.103 105.497 129.103 104.868C129.103 104.24 132.322 103.734 136.289 103.734C140.257 103.734 143.476 104.242 143.476 104.868Z" fill="#7F85FC"/>
<path d="M143.074 101.38C143.215 101.991 140.204 103.256 136.346 104.229C132.488 105.202 129.245 105.478 129.1 104.868C128.955 104.258 131.97 102.993 135.828 102.022C139.686 101.052 142.932 100.764 143.074 101.38Z" fill="#7F85FC"/>
<path d="M142.071 98.4528C142.33 99.0175 139.645 100.911 136.068 102.685C132.491 104.458 129.375 105.436 129.111 104.869C128.848 104.302 131.527 102.41 135.117 100.639C138.707 98.8678 141.801 97.8881 142.071 98.4528Z" fill="#7F85FC"/>
<path d="M135.39 101.095C138.481 98.5246 140.677 96.0448 140.296 95.5561C139.915 95.0673 137.101 96.7546 134.01 99.3248C130.92 101.895 128.723 104.375 129.104 104.864C129.485 105.352 132.299 103.665 135.39 101.095Z" fill="#7F85FC"/>
<path d="M134.399 99.7149C136.847 96.4895 138.443 93.5609 137.965 93.1738C137.487 92.7867 135.115 95.0876 132.667 98.3131C130.219 101.539 128.623 104.467 129.101 104.854C129.579 105.241 131.951 102.94 134.399 99.7149Z" fill="#7F85FC"/>
<path d="M134.961 91.314C135.516 91.568 134.653 94.811 133.035 98.5507C131.417 102.29 129.662 105.128 129.102 104.864C128.542 104.601 129.412 101.381 131.028 97.6277C132.644 93.8744 134.405 91.06 134.961 91.314Z" fill="#7F85FC"/>
<path d="M131.627 90.2548C132.227 90.366 132.148 93.727 131.452 97.7592C130.756 101.791 129.706 104.978 129.115 104.867C128.525 104.756 128.597 101.397 129.295 97.3623C129.994 93.3278 131.026 90.146 131.627 90.2548Z" fill="#7F85FC"/>
<path d="M128.018 90.0689C128.624 90.0235 129.355 93.2847 129.654 97.385C129.952 101.485 129.704 104.821 129.098 104.869C128.492 104.917 127.763 101.653 127.462 97.5529C127.161 93.4526 127.416 90.1165 128.018 90.0689Z" fill="#7F85FC"/>
<path d="M124.768 90.7261C125.345 90.5379 126.786 93.5519 127.982 97.4594C129.179 101.367 129.682 104.696 129.102 104.878C128.523 105.059 127.084 102.052 125.888 98.1443C124.691 94.2368 124.188 90.9076 124.768 90.7261Z" fill="#7F85FC"/>
<path d="M129.102 104.858C129.602 104.502 128.183 101.477 125.932 98.1022C123.681 94.7272 121.451 92.2798 120.95 92.6357C120.45 92.9917 121.869 96.0163 124.12 99.3913C126.371 102.766 128.601 105.214 129.102 104.858Z" fill="#7F85FC"/>
<path d="M118.077 95.3504C118.466 94.8696 121.25 96.609 124.304 99.2398C127.359 101.87 129.495 104.392 129.115 104.866C128.735 105.34 125.942 103.608 122.888 100.979C119.834 98.3508 117.697 95.8334 118.077 95.3504Z" fill="#7F85FC"/>
<path d="M116.059 98.6142C116.318 98.0473 119.432 98.9884 123.04 100.714C126.648 102.44 129.351 104.302 129.094 104.869C128.837 105.436 125.719 104.499 122.113 102.771C118.508 101.043 115.816 99.1767 116.059 98.6142Z" fill="#7F85FC"/>
<path d="M115.062 101.672C115.192 101.062 118.437 101.277 122.328 102.157C126.219 103.037 129.239 104.25 129.109 104.86C128.979 105.471 125.736 105.255 121.863 104.377C117.989 103.5 114.937 102.296 115.062 101.672Z" fill="#7F85FC"/>
<path d="M38.6477 107.969C38.6477 107.969 34.524 107.531 32.6795 105.524C30.835 103.517 31.4872 102.642 32.6795 102.381C33.8718 102.12 34.6799 102.649 33.683 100.635C32.6861 98.621 32.3106 97.6662 33.683 97.5777C35.0554 97.4893 35.7295 98.6255 36.318 97.9293C36.9064 97.233 36.2323 94.3483 38.3469 93.3005C40.4615 92.2528 41.7943 94.0852 40.4505 96.5164C39.1067 98.9475 39.952 99.5735 41.5484 99.3127C43.1448 99.0518 44.403 100.36 43.6235 101.145C42.8439 101.93 40.2046 102.542 41.1356 103.066C42.0666 103.59 44.3239 103.678 43.8716 104.726C43.4192 105.774 39.4668 107.611 38.6477 107.969Z" fill="#7F85FC"/>
<path d="M37.732 98.9775C37.732 98.9775 36.8537 104.069 38.6564 107.97" stroke="#3C46B6" stroke-linecap="round" stroke-linejoin="round"/>
<path d="M52.8369 72.7879C52.8369 72.7879 53.3551 66.3176 55.6146 63.9069C57.8741 61.4961 60.575 63.1018 61.8156 65.2676C63.0563 67.4334 65.173 58.0104 69.2419 54.5088C73.3108 51.0073 75.9062 54.9171 77.709 59.8928C79.5118 64.8685 84.6741 63.5894 87.1642 59.0491C89.6543 54.5088 90.3328 51.4835 94.2765 51.9484C98.2202 52.4133 97.6514 72.7879 97.6514 72.7879H52.8369Z" fill="#DADAF2"/>
<path d="M56.1572 72.7877C56.1572 72.7877 56.6776 66.3175 58.9371 63.9068C61.1966 61.496 63.8953 63.1017 65.1359 65.2675C66.3766 67.4333 68.4934 58.0103 72.5622 54.5087C76.6311 51.0071 79.2265 54.9169 81.0271 59.9063C82.8277 64.8956 87.9923 63.6029 90.4845 59.0626C92.9768 54.5223 93.6509 51.497 97.5968 51.9596C101.543 52.4223 100.97 72.8014 100.97 72.8014" stroke="#3C46B6" stroke-miterlimit="10"/>
<path opacity="0.61" d="M73.7676 119.118C82.1657 119.118 88.9737 118.283 88.9737 117.254C88.9737 116.224 82.1657 115.39 73.7676 115.39C65.3695 115.39 58.5615 116.224 58.5615 117.254C58.5615 118.283 65.3695 119.118 73.7676 119.118Z" fill="#AEAECC"/>
<path d="M67.7006 81.4256C67.7006 81.4256 68.0366 80.1443 70.4542 79.5319C72.4041 79.0398 76.7167 78.0487 76.7167 78.0487L83.2537 70.3584L84.4943 71.3495C84.4943 71.3495 80.1027 77.6995 79.2529 79.2076C78.4031 80.7158 77.2766 82.1196 77.1119 82.9927C76.9473 83.8658 76.1524 90.5583 76.1524 90.5583C76.1524 90.5583 72.7796 91.665 69.6154 91.0255C69.6154 91.0255 68.9962 85.4375 68.77 84.2219C68.77 84.2219 67.5294 86.0838 66.965 86.4897C66.4007 86.8957 58.5682 86.7165 58.5682 86.7165C58.5682 86.7165 58.1181 85.7822 58.5682 85.4352C58.5682 85.4352 64.3169 84.7344 65.1052 84.5598C65.8935 84.3852 67.7006 81.4256 67.7006 81.4256Z" fill="#4FA0FF"/>
<path d="M72.4325 69.9003C72.4325 69.9003 69.5033 68.9705 68.2605 72.3133C67.0176 75.6561 67.358 77.5793 66.7388 78.6838C66.7388 78.6838 69.051 79.9651 72.707 79.3823C76.3631 78.7994 76.7078 78.0419 76.7078 78.0419C76.7078 78.0419 76.9976 70.6011 72.4325 69.9003Z" fill="#18156F"/>
<path d="M77.7332 96.4552C77.3928 95.1625 76.1522 90.5587 76.1522 90.5587C76.1522 90.5587 72.7794 91.6654 69.6152 91.0259C69.6152 91.0259 68.5437 98.0699 68.2626 101.685C67.9815 105.3 67.303 107.216 67.022 108.906C66.7409 110.595 66.6289 114.435 66.6289 114.435C66.6289 114.435 67.8125 114.841 68.4888 114.435C68.4888 114.435 70.0676 109.427 70.3464 108.146C70.6253 106.865 70.4035 105.468 70.9679 104.014C71.5322 102.56 73.5018 96.6275 73.5018 96.6275C73.5018 96.6275 76.0446 103.787 76.0446 105.127C76.0446 106.468 79.1583 114.031 79.1583 114.031C79.7186 114.159 80.305 114.054 80.792 113.741C80.792 113.741 79.9488 108.504 79.3822 105.649C78.8157 102.794 78.0691 97.7252 77.7332 96.4552Z" fill="#FE95AC"/>
<path d="M66.6293 114.431C66.6293 114.431 65.7619 116.875 66.4097 116.984C67.2255 117.061 68.0465 117.061 68.8624 116.984C69.2642 116.941 68.4825 114.431 68.4825 114.431C67.8128 114.848 66.6293 114.431 66.6293 114.431Z" fill="#6FBDFD"/>
<path d="M80.7676 113.73C80.2816 114.044 79.6961 114.149 79.1361 114.023C79.1361 114.023 78.4049 116.867 79.0505 116.985C79.8663 117.062 80.6873 117.062 81.5032 116.985C81.9182 116.942 80.7676 113.73 80.7676 113.73Z" fill="#6FBDFD"/>
<path d="M72.2041 96.3554C72.6433 96.3985 73.0824 96.4302 73.5018 96.428C73.7214 96.428 73.93 96.428 74.143 96.4076C74.356 96.3872 74.5822 96.3667 74.8018 96.3554C74.4057 96.5849 73.9581 96.7022 73.504 96.6956C73.2779 96.6953 73.0525 96.6687 72.8321 96.6162C72.61 96.5665 72.3977 96.4783 72.2041 96.3554Z" fill="#FF7D9F"/>
<path d="M58.5677 85.4425C58.5677 85.4425 57.8365 84.9617 57.4697 84.7009C57.103 84.4401 56.4311 84.0205 56.2006 84.1112C55.97 84.202 56.306 84.4696 56.519 84.7689L56.7385 85.0705C56.4144 85.0982 56.0884 85.0906 55.7658 85.0479C55.1532 84.9844 54.602 84.8097 54.5208 84.939C54.4395 85.0683 54.7294 85.2905 55.2168 85.4425C55.7043 85.5944 55.8097 85.7486 55.4935 85.8575C55.1773 85.9664 54.2441 85.9006 54.1584 86.0525C54.0728 86.2045 54.2243 86.3814 54.7952 86.3814C55.3662 86.3814 55.5726 86.4698 55.555 86.5537C55.5374 86.6376 54.7952 87.1661 54.7777 87.2976C54.7601 87.4291 55.1554 87.3611 55.9393 86.971C55.9393 86.971 56.3784 86.7964 56.1281 87.1661C55.8778 87.5357 55.6889 88.1276 56.2555 87.7013C56.822 87.2749 57.0152 86.9801 57.226 86.8712C57.4368 86.7624 58.572 86.7352 58.572 86.7352C58.572 86.7352 58.1175 85.7963 58.5677 85.4425Z" fill="#FFB6D6"/>
<path d="M85.9897 69.1958C86.7297 68.7218 86.9976 68.3929 86.868 68.3544C86.7385 68.3158 85.926 68.6673 85.8426 68.6424C85.7591 68.6175 85.8009 68.3725 86.1039 67.8827C86.4069 67.3928 86.3432 67.1615 86.1764 67.1547C86.0095 67.1479 85.5615 67.9961 85.298 68.2138C85.0345 68.4315 84.9665 68.2591 85.1026 67.7602C85.2387 67.2613 85.2168 66.8803 85.0631 66.8848C84.9094 66.8893 84.7622 67.4609 84.4878 68.0324C84.3482 68.3349 84.1806 68.6228 83.9871 68.8919L83.8817 68.5381C83.7478 68.1911 83.7061 67.7511 83.5106 67.9076C83.3152 68.0641 83.291 68.8783 83.3174 69.3296C83.3174 69.6312 83.3372 70.1347 83.3394 70.4272L84.4373 71.2981C84.6658 70.9263 84.9306 70.5798 85.2278 70.2639C85.4298 70.1369 85.7613 70.1211 86.4245 69.8557C87.0876 69.5904 86.5013 69.443 86.0644 69.4679C85.6274 69.4929 85.9897 69.1958 85.9897 69.1958Z" fill="#FFB6D6"/>
<path d="M68.77 84.2202L68.5526 82.6689L68.377 84.7894L68.77 84.2202Z" fill="#3C88D3"/>
<path d="M68.7698 105.219C69.1343 103.252 69.8414 100.984 70.1181 97.3287C70.2959 94.9973 70.4738 92.6002 70.5836 91.1646C70.2608 91.1329 69.938 91.0875 69.6152 91.0217C69.6152 91.0217 68.5437 98.0657 68.2626 101.681C67.9815 105.296 67.303 107.212 67.022 108.899C66.7409 110.587 66.6289 114.428 66.6289 114.428C66.9144 114.52 67.2091 114.578 67.5072 114.601C67.762 112.503 68.4734 106.808 68.7698 105.219Z" fill="#E8809C"/>
<path d="M77.483 106.722C76.4158 102.946 75.4211 100.558 75.0017 99.2175C74.5823 97.8772 73.502 96.623 73.502 96.623C73.502 96.623 76.0447 103.783 76.0447 105.123C76.0447 106.463 79.1584 114.027 79.1584 114.027C79.3383 114.069 79.523 114.086 79.7073 114.077C79.2396 112.643 78.2713 109.523 77.483 106.722Z" fill="#E8809C"/>
<path d="M131.139 30.5417L130.074 31.749L132.943 34.447L134.008 33.2397L131.139 30.5417Z" fill="#4549C3"/>
<path d="M132.189 33.7524L130.758 32.4121L127.139 36.526L127.484 36.8526C127.296 36.8145 127.101 36.8349 126.924 36.9111C126.748 36.9874 126.597 37.1161 126.491 37.2809C126.385 37.4458 126.328 37.6394 126.329 37.8373C126.33 38.0351 126.387 38.2283 126.494 38.3925C126.601 38.5566 126.753 38.6843 126.93 38.7594C127.107 38.8345 127.302 38.8535 127.49 38.8142C127.678 38.7749 127.85 38.6789 127.985 38.5384C128.12 38.398 128.211 38.2193 128.248 38.0251C128.279 37.8669 128.272 37.7032 128.226 37.5488L128.575 37.8731L132.189 33.7524Z" fill="#2B284F"/>
<path d="M132.115 31.4717C132.115 31.4717 132.681 29.3444 133.612 29.1676C134.543 28.9907 135.279 30.0316 134.853 30.7347C134.427 31.4377 133.019 32.3222 133.019 32.3222L132.115 31.4717Z" fill="#4549C3"/>
<path d="M145.803 47.1399V45.3937H144.822C144.735 45.0161 144.591 44.6549 144.396 44.3233L145.09 43.6089L143.893 42.3729L143.212 43.0782C142.892 42.8725 142.542 42.7195 142.176 42.6246V41.6426H140.485V42.6019C140.104 42.6921 139.74 42.8453 139.407 43.0555L138.759 42.3752L137.574 43.6134L138.208 44.2711C137.997 44.6206 137.842 45.0037 137.751 45.405H136.86V47.149H137.749C137.84 47.5502 137.995 47.9333 138.206 48.283L137.565 48.9361L138.761 50.1721L139.405 49.5076C139.739 49.7201 140.105 49.8734 140.487 49.9612V50.9137H142.176V49.9181C142.543 49.8231 142.893 49.6701 143.215 49.4645L143.891 50.163L145.088 48.927L144.4 48.2172C144.594 47.8844 144.736 47.5225 144.822 47.1445L145.803 47.1399ZM141.322 47.9836C140.992 47.984 140.67 47.8836 140.396 47.695C140.122 47.5064 139.909 47.2381 139.782 46.924C139.656 46.6099 139.623 46.2642 139.687 45.9306C139.751 45.597 139.909 45.2905 140.142 45.0498C140.375 44.8092 140.671 44.6452 140.994 44.5787C141.317 44.5122 141.652 44.5461 141.956 44.6761C142.26 44.8062 142.52 45.0265 142.703 45.3093C142.886 45.592 142.984 45.9245 142.984 46.2646C142.984 46.7199 142.809 47.1565 142.497 47.4785C142.185 47.8005 141.763 47.9813 141.322 47.9813V47.9836Z" fill="#DADAF2"/>
<path d="M11.4568 53.5221V51.7782H10.4752C10.3878 51.4 10.2441 51.0381 10.0492 50.7054L10.7431 49.9911L9.54639 48.7573L8.86349 49.4581C8.54271 49.2511 8.19214 49.098 7.82486 49.0045V48.0135H6.13408V48.9728C5.75365 49.0639 5.38971 49.217 5.05593 49.4264L4.41036 48.7596L3.20925 49.9979L3.84604 50.6533C3.63457 51.0033 3.47888 51.3862 3.38491 51.7872H2.49561V53.5335H3.38491C3.477 53.9344 3.63124 54.3173 3.84164 54.6674L3.20925 55.3206L4.40597 56.5407L5.05154 55.8717C5.38618 56.0809 5.75082 56.234 6.13189 56.3252V57.2777H7.82486V56.3026C8.19166 56.2076 8.54201 56.0546 8.86349 55.849L9.53541 56.5407L10.7321 55.3047L10.0426 54.5948C10.2368 54.2621 10.3798 53.9002 10.4664 53.5221H11.4568ZM6.97508 54.3681C6.64579 54.3685 6.32378 54.2681 6.04977 54.0794C5.77577 53.8908 5.56209 53.6225 5.43578 53.3084C5.30947 52.9944 5.27619 52.6486 5.34017 52.315C5.40414 51.9814 5.56249 51.6749 5.79518 51.4343C6.02787 51.1936 6.32443 51.0297 6.64736 50.9632C6.97029 50.8967 7.30506 50.9306 7.60933 51.0606C7.91359 51.1906 8.17367 51.411 8.35666 51.6937C8.53965 51.9765 8.63732 52.3089 8.63732 52.649C8.63732 53.1045 8.46226 53.5414 8.15059 53.8638C7.83893 54.1861 7.41614 54.3675 6.97508 54.3681Z" fill="#DADAF2"/>
<path d="M61.1392 12.4038V11.0294H60.3618C60.2925 10.7335 60.1791 10.4504 60.0259 10.1903L60.5726 9.62789L59.6306 8.65498L59.0948 9.20834C58.8409 9.04488 58.5638 8.92323 58.2736 8.84775V8.0744H56.9451V8.8296C56.6451 8.89908 56.3581 9.01858 56.0954 9.18339L55.5771 8.64591L54.6373 9.61882L55.138 10.1359C54.9716 10.4082 54.8499 10.7071 54.7779 11.0204H54.0752V12.3947H54.7757C54.8477 12.7094 54.9693 13.0098 55.1358 13.2837L54.6505 13.8098L55.5969 14.776L56.1041 14.2385C56.364 14.4111 56.6496 14.5383 56.9495 14.6149V15.3633H58.267V14.5855C58.5588 14.5096 58.8374 14.3872 59.0926 14.2226L59.624 14.7714L60.566 13.8053L60.0237 13.2451C60.1762 12.9841 60.2887 12.7003 60.3574 12.4038H61.1392ZM57.6127 13.0682C57.356 13.0682 57.1051 12.9896 56.8917 12.8424C56.6783 12.6951 56.5119 12.4858 56.4137 12.2409C56.3155 11.9959 56.2898 11.7265 56.3399 11.4665C56.3899 11.2065 56.5135 10.9676 56.695 10.7802C56.8765 10.5927 57.1078 10.4651 57.3595 10.4134C57.6112 10.3617 57.8722 10.3882 58.1093 10.4897C58.3464 10.5911 58.5491 10.7629 58.6917 10.9833C58.8343 11.2037 58.9104 11.4628 58.9104 11.7279C58.9104 12.0834 58.7737 12.4243 58.5303 12.6757C58.2869 12.927 57.9568 13.0682 57.6127 13.0682Z" fill="#DADAF2"/>
<path d="M61.2942 55.1204C62.6568 53.7131 62.6568 51.4314 61.2942 50.0241C59.9316 48.6168 57.7224 48.6168 56.3598 50.0241C54.9972 51.4314 54.9972 53.7131 56.3598 55.1204C57.7224 56.5277 59.9316 56.5277 61.2942 55.1204Z" fill="#DADAF2"/>
<path d="M63.1829 55.1214C64.5455 53.7141 64.5455 51.4324 63.1829 50.0251C61.8203 48.6178 59.6111 48.6178 58.2485 50.0251C56.8859 51.4324 56.8859 53.7141 58.2485 55.1214C59.6111 56.5287 61.8203 56.5287 63.1829 55.1214Z" stroke="#3C46B6" stroke-miterlimit="10"/>
<path d="M108.396 106.722C108.396 106.722 107.517 105.508 108.984 104C108.984 104 108.134 98.8568 113.209 98.1651C113.209 98.1651 114.166 94.7021 117.043 94.3097C119.919 93.9174 122.214 95.7952 122.884 98.3692C122.884 98.3692 125.079 97.5641 127.097 98.9611C129.115 100.358 128.913 103.213 128.913 103.213C128.913 103.213 131.109 104.018 130.253 106.735L108.396 106.722Z" fill="#3C46B6"/>
<path d="M113.407 102.578C113.638 101.938 113.992 101.353 114.448 100.858C114.904 100.363 115.452 99.9674 116.059 99.696C115.785 96.8362 116.907 95.1602 118 94.2417C117.682 94.2308 117.363 94.2459 117.047 94.2871C114.173 94.684 113.216 98.1425 113.216 98.1425C108.139 98.8228 108.991 103.978 108.991 103.978C107.52 105.495 108.402 106.699 108.402 106.699H114.502C113.36 105.613 112.88 104.041 113.407 102.578Z" fill="#2D3991"/>
<path d="M9.09462 86.0258L5.71973 86.2451L7.38087 113.514L10.7558 113.295L9.09462 86.0258Z" fill="#4549C3"/>
<path d="M9.00331 84.5434L5.62842 84.7627L5.71873 86.2452L9.09362 86.0259L9.00331 84.5434Z" fill="#D7DCFF"/>
<path d="M6.89373 81.8799L7.41195 81.8459C7.60032 81.8333 7.78926 81.8592 7.96791 81.9222C8.14656 81.9852 8.3114 82.084 8.45299 82.213C8.59458 82.3419 8.71011 82.4985 8.79297 82.6737C8.87584 82.8488 8.92439 83.0392 8.93585 83.2338L9.01709 84.5424L5.6487 84.7692L5.56965 83.4606C5.54422 83.0701 5.66904 82.685 5.91697 82.389C6.1649 82.093 6.51592 81.9101 6.89373 81.8799Z" fill="#FE95AC"/>
<path d="M8.32568 113.448L6.66564 86.1818L5.72363 86.2407L7.38807 113.51L10.7608 113.292L8.32568 113.448Z" fill="#3341A0"/>
<path d="M6.66583 86.1811L6.5758 84.7002L5.63379 84.7614L5.72382 86.2401L9.10099 86.0224L6.66583 86.1811Z" fill="#B9C2EA"/>
<path d="M6.51831 83.4086C6.49573 83.0472 6.60212 82.6898 6.81737 82.404C7.03262 82.1182 7.34181 81.9237 7.68648 81.8573C7.59226 81.8483 7.49744 81.8483 7.40322 81.8573L6.88501 81.8914C6.50566 81.9153 6.15103 82.0938 5.89905 82.3876C5.64706 82.6815 5.51834 83.0666 5.54116 83.4585L5.61802 84.767L6.58857 84.7081L6.51831 83.4086Z" fill="#E57693"/>
<path d="M19.6346 88.9728L13.3062 115.503L16.5895 116.338L22.9179 89.8082L19.6346 88.9728Z" fill="#F36290"/>
<path d="M22.9146 89.8088L22.4688 84.3818L19.6318 88.972L22.9146 89.8088Z" fill="#D7DCFF"/>
<path d="M15.7695 116.129L16.5886 116.338L15.7695 116.129Z" fill="#D85082"/>
<path d="M21.1538 89.3608L21.8828 89.5445L19.6321 88.9707L13.3037 115.502L14.8276 115.89L21.1538 89.3608Z" fill="#D85082"/>
<path d="M21.1535 89.3621L22.4688 84.3818L19.6318 88.972L21.1535 89.3621Z" fill="#B9C2EA"/>
<path d="M16.6873 60.6094H10.7607V115.92H16.6873V60.6094Z" fill="#9281FF"/>
<path d="M13.04 60.6094H10.7607V115.92H13.04V60.6094Z" fill="#7A6CF1"/>
<path d="M5.73412 118.149C5.73412 118.149 12.9188 120.331 22.0469 118.149L24.4996 94.3975H3.1123L5.73412 118.149Z" fill="#5B65D7"/>
<path d="M6.6366 101.218C5.73795 99.0246 5.04957 96.7458 4.58131 94.4141H3.1123L5.73412 118.15C5.73412 118.15 12.9188 120.331 22.0469 118.15C12.0032 115.582 9.20791 107.568 6.6366 101.218Z" fill="#3C49AA"/>
</g>
<defs>
<clipPath id="clip0_327_949">
<rect width="159.475" height="121" fill="white" transform="translate(0.262695)"/>
</clipPath>
</defs>
</svg>
