<svg width="24" height="25" viewBox="0 0 24 25" fill="none" xmlns="http://www.w3.org/2000/svg">
<path d="M1.5 4C1.5 2.895 2.395 2 3.5 2C4.605 2 5.5 2.895 5.5 4C5.5 5.105 4.605 6 3.5 6C2.395 6 1.5 5.105 1.5 4ZM7 9C7 7.897 6.103 7 5 7H2C0.897 7 0 7.897 0 9V10H7V9ZM20.5 6C21.605 6 22.5 5.105 22.5 4C22.5 2.895 21.605 2 20.5 2C19.395 2 18.5 2.895 18.5 4C18.5 5.105 19.395 6 20.5 6ZM24 9C24 7.897 23.103 7 22 7H19C17.897 7 17 7.897 17 9V10H24V9ZM12 4C13.105 4 14 3.105 14 2C14 0.895 13.105 0 12 0C10.895 0 10 0.895 10 2C10 3.105 10.895 4 12 4ZM15.5 7C15.5 5.897 14.603 5 13.5 5H10.5C9.397 5 8.5 5.897 8.5 7V8H15.5V7ZM14 11.107C14 10.111 13.319 9.187 12.336 9.027C11.083 8.823 10 9.785 10 11V19.817C8.924 18.931 7.889 18.065 7.855 18.033C6.933 17.172 5.482 17.22 4.62 18.142C3.757 19.065 3.801 20.514 4.718 21.372L7.604 24.065L23 24V19.5L14 15.962V11.107Z" fill="#0E53BE"/>
</svg>
