<svg width="61" height="60" viewBox="0 0 61 60" fill="none" xmlns="http://www.w3.org/2000/svg">
<path d="M30.2002 39.375C26.0649 39.375 22.7002 42.7397 22.7002 46.875C22.7002 51.0103 26.0649 54.375 30.2002 54.375C34.3355 54.375 37.7002 51.0103 37.7002 46.875C37.7002 42.7397 34.3355 39.375 30.2002 39.375ZM30.2002 52.5C27.098 52.5 24.5752 49.9772 24.5752 46.875C24.5752 43.7728 27.098 41.25 30.2002 41.25C33.3024 41.25 35.8252 43.7728 35.8252 46.875C35.8252 49.9772 33.3024 52.5 30.2002 52.5Z" fill="black"/>
<path d="M30.2002 43.125C28.1321 43.125 26.4502 44.8069 26.4502 46.875C26.4502 48.9431 28.1321 50.625 30.2002 50.625C32.2683 50.625 33.9502 48.9431 33.9502 46.875C33.9502 44.8069 32.2683 43.125 30.2002 43.125ZM30.2002 48.75C29.1661 48.75 28.3252 47.9091 28.3252 46.875C28.3252 45.8409 29.1661 45 30.2002 45C31.2343 45 32.0752 45.8409 32.0752 46.875C32.0752 47.9091 31.2343 48.75 30.2002 48.75Z" fill="black"/>
<path d="M50.8252 30.9375C55.4771 30.9375 59.2627 27.1519 59.2627 22.5C59.2627 17.8481 55.4771 14.0625 50.8252 14.0625C50.2064 14.0625 49.6008 14.1534 49.0027 14.2856C47.738 11.9241 45.2489 10.3125 42.3877 10.3125C41.4296 10.3125 40.4874 10.5028 39.6071 10.8544C37.5174 5.08125 31.9974 0.9375 25.5127 0.9375C17.8589 0.9375 11.5271 6.65625 10.6346 14.1366C10.2868 14.0925 9.93426 14.0625 9.5752 14.0625C4.92332 14.0625 1.1377 17.8481 1.1377 22.5C1.1377 27.1519 4.92332 30.9375 9.5752 30.9375H22.7002V32.8125H13.1733L6.7627 34.9491V50.0503L12.3877 48.1753V54.375C12.3877 55.9256 13.6496 57.1875 15.2002 57.1875H23.2777L24.0408 57.9497L25.6796 57.1659C25.8268 57.2306 25.9739 57.2925 26.1211 57.3497L26.7239 59.0625H33.6755L34.2802 57.3506C34.4274 57.2925 34.5746 57.2316 34.7218 57.1669L36.3605 57.9506L37.1227 57.1875H45.2002C46.7508 57.1875 48.0127 55.9256 48.0127 54.375V48.1753L53.6377 50.0503V34.9491L47.2271 32.8125H37.7002V30.9375H50.8252ZM9.5752 29.0625C5.95645 29.0625 3.0127 26.1187 3.0127 22.5C3.0127 18.8813 5.95645 15.9375 9.5752 15.9375C13.1939 15.9375 16.1377 18.8813 16.1377 22.5H18.0127C18.0127 18.8672 15.6999 15.7716 12.4721 14.5856C13.1518 7.93125 18.7393 2.8125 25.5127 2.8125C32.7502 2.8125 38.6377 8.7 38.6377 15.9375H40.5127C40.5127 14.8106 40.3777 13.7156 40.1405 12.6591C40.8455 12.3516 41.6096 12.1875 42.3877 12.1875C45.4899 12.1875 48.0127 14.7103 48.0127 17.8125H49.8877C49.8877 17.2031 49.8071 16.6144 49.6693 16.0472C50.0489 15.9797 50.4343 15.9375 50.8252 15.9375C54.4439 15.9375 57.3877 18.8813 57.3877 22.5C57.3877 26.1187 54.4439 29.0625 50.8252 29.0625H35.8252V36.0553L34.7218 36.5831C34.5746 36.5184 34.4274 36.4566 34.2802 36.3994L33.9502 35.4647V23.4375H37.5774L30.2002 12.3722L22.823 23.4375H26.4502V35.4647L26.1202 36.3994C25.973 36.4575 25.8258 36.5184 25.6786 36.5831L24.5752 36.0553V29.0625H9.5752ZM26.3274 21.5625L30.2002 15.7528L34.073 21.5625H32.0752V34.6875H28.3252V21.5625H26.3274ZM22.7002 37.14L19.1246 40.7147L19.9083 42.3544C19.8436 42.4997 19.7827 42.6478 19.7246 42.7959L18.0127 43.3987V45.9375H14.2627V34.6875H22.7002V37.14ZM8.6377 47.4487V36.3009L12.3877 35.0513V46.2L8.6377 47.4487ZM15.2002 55.3125C14.6836 55.3125 14.2627 54.8925 14.2627 54.375V47.8125H18.0127V50.3513L19.7246 50.955C19.7827 51.1031 19.8436 51.2503 19.9083 51.3966L19.1246 53.0362L21.4018 55.3125H15.2002ZM35.9724 55.6866L34.7218 55.0875L34.3139 55.2881C33.9568 55.4634 33.5958 55.6134 33.2396 55.7353L32.8102 55.8816L32.3489 57.1875H28.0505L27.5902 55.8816L27.1608 55.7353C26.8046 55.6134 26.4436 55.4634 26.0864 55.2881L25.6786 55.0875L24.428 55.6866L21.3886 52.6472L21.9868 51.3956L21.7861 50.9869C21.6127 50.6353 21.4627 50.2734 21.3389 49.9125L21.1918 49.4831L19.8877 49.0237V44.7263L21.1927 44.2659L21.3399 43.8366C21.4636 43.4756 21.6136 43.1137 21.7871 42.7622L21.9877 42.3534L21.3896 41.1019L24.4289 38.0625L25.6796 38.6616L26.0874 38.4609C26.4446 38.2856 26.8055 38.1356 27.1618 38.0138L27.5911 37.8675L28.0514 36.5625H32.3499L32.8102 37.8684L33.2396 38.0147C33.5958 38.1366 33.9568 38.2866 34.3139 38.4619L34.7218 38.6625L35.9724 38.0634L39.0118 41.1028L38.4136 42.3544L38.6143 42.7631C38.7877 43.1147 38.9377 43.4766 39.0614 43.8375L39.2086 44.2669L40.5127 44.7263V49.0237L39.2077 49.4841L39.0605 49.9134C38.9368 50.2744 38.7868 50.6363 38.6133 50.9878L38.4127 51.3966L39.0108 52.6481L35.9724 55.6866ZM45.2002 55.3125H38.9986L41.2758 53.0353L40.4921 51.3956C40.5568 51.2503 40.6177 51.1022 40.6758 50.9541L42.3877 50.3513V47.8125H46.1377V54.375C46.1377 54.8925 45.7168 55.3125 45.2002 55.3125ZM51.7627 47.4487L48.0127 46.1991V35.0503L51.7627 36.3V47.4487ZM46.1377 34.6875V45.9375H42.3877V43.3987L40.6758 42.795C40.6177 42.6469 40.5568 42.4997 40.4921 42.3534L41.2758 40.7138L37.7002 37.14V34.6875H46.1377Z" fill="black"/>
<path d="M34.8877 15.9375H36.7627C36.7627 9.73406 31.7161 4.6875 25.5127 4.6875V6.5625C30.6821 6.5625 34.8877 10.7681 34.8877 15.9375Z" fill="black"/>
<path d="M23.4679 4.87317C22.7686 5.00254 22.0804 5.19754 21.4214 5.45536L22.1048 7.20098C22.6523 6.98723 23.2251 6.82411 23.8083 6.71629L23.4679 4.87317Z" fill="black"/>
<path d="M6.7627 22.5C6.7627 20.9494 8.02457 19.6875 9.5752 19.6875V17.8125C6.99051 17.8125 4.8877 19.9153 4.8877 22.5C4.8877 25.0847 6.99051 27.1875 9.5752 27.1875H12.3877V25.3125H9.5752C8.02457 25.3125 6.7627 24.0506 6.7627 22.5Z" fill="black"/>
<path d="M18.0127 25.3125H19.8877V27.1875H18.0127V25.3125Z" fill="black"/>
<path d="M14.2627 25.3125H16.1377V27.1875H14.2627V25.3125Z" fill="black"/>
</svg>
