<svg width="60" height="60" viewBox="0 0 60 60" fill="none" xmlns="http://www.w3.org/2000/svg">
<g clip-path="url(#clip0_4058_13114)">
<path fill-rule="evenodd" clip-rule="evenodd" d="M55.3957 54.4813H58.0926C58.6124 54.4813 59.0338 54.9027 59.0338 55.4224V58.2353C59.0338 58.755 58.6124 59.1764 58.0926 59.1764H1.907C1.38723 59.1764 0.96582 58.755 0.96582 58.2353V55.4224C0.96582 54.9027 1.38723 54.4813 1.907 54.4813H4.60394V41.9235C4.60394 41.4037 5.02523 40.9823 5.54511 40.9823H12.9881C13.5079 40.9823 13.9292 41.4037 13.9292 41.9235V54.4813H18.4271V34.4388C18.4271 33.9189 18.8485 33.4976 19.3683 33.4976H26.8113C27.3311 33.4976 27.7525 33.9189 27.7525 34.4388V54.4813H32.2471V26.6264C32.2471 26.1067 32.6685 25.6853 33.1883 25.6853H40.6345C41.1544 25.6853 41.5757 26.1067 41.5757 26.6264V54.4813H46.0704V20.5388H44.9704C44.4246 20.5388 43.943 20.2341 43.7169 19.6705C43.5225 19.1894 43.5931 18.6502 43.8984 18.246L49.6578 10.4896C49.9282 10.121 50.303 9.93819 50.7343 9.93819C51.1536 9.93819 51.5284 10.1145 51.805 10.4816C51.8063 10.4834 51.8076 10.4851 51.8089 10.4868L57.5721 18.2483C57.8721 18.6514 57.9432 19.1901 57.749 19.6705C57.5223 20.2358 57.037 20.5388 56.4982 20.5388H55.3957V54.4813ZM6.48629 54.4813H12.0469C12.0469 51.5635 12.0469 42.8647 12.0469 42.8647H6.48629V54.4813ZM20.3095 54.4813H25.8702C25.8702 50.5167 25.8702 35.38 25.8702 35.38H20.3095V54.4813ZM34.1295 54.4813H39.6933V27.5676H34.1295V54.4813ZM47.9528 54.4813H53.5133V19.5976C53.5133 19.0778 53.9348 18.6564 54.4545 18.6564H55.5305C54.3997 17.1335 51.7722 13.5949 50.7343 12.1971L45.9381 18.6564H47.0116C47.5314 18.6564 47.9528 19.0778 47.9528 19.5976V54.4813ZM2.84817 57.2941H57.1515V56.3636H2.84817V57.2941ZM4.14735 11.8144C3.84676 12.887 3.68594 14.0178 3.68594 15.186C3.68594 22.074 9.27817 27.6661 16.1661 27.6661C18.3413 27.6661 20.3875 27.1085 22.1688 26.1283C22.6239 25.8778 23.1966 26.044 23.4471 26.499C23.6976 26.9542 23.5315 27.527 23.0763 27.7774C21.0256 28.906 18.6703 29.5484 16.1661 29.5484C8.23923 29.5484 1.80358 23.1128 1.80358 15.186C1.80358 13.7249 2.02241 12.3144 2.42876 10.9857C2.17547 10.9547 1.93558 10.8216 1.77606 10.5976C1.47476 10.1744 1.57358 9.58631 1.99664 9.28502L3.85323 7.96278C4.12711 7.76772 4.48429 7.7336 4.79017 7.87337C5.09606 8.01302 5.30417 8.30525 5.33606 8.63996L5.55288 10.9088C5.60229 11.426 5.22253 11.8858 4.70547 11.9353C4.5037 11.9545 4.31064 11.9084 4.14735 11.8144ZM29.9165 19.3433C30.1426 19.3833 30.3548 19.5054 30.5038 19.703C30.8166 20.1177 30.7339 20.7084 30.3194 21.0213L28.4997 22.3938C28.2313 22.5963 27.8752 22.6402 27.5657 22.509C27.2561 22.3777 27.0401 22.0914 26.9989 21.7576L26.7199 19.4955C26.6564 18.98 27.0234 18.5098 27.5389 18.4463C27.7706 18.4177 27.9933 18.4762 28.1739 18.596C28.4816 17.512 28.6462 16.3681 28.6462 15.186C28.6462 8.29796 23.0541 2.70584 16.1661 2.70584C13.9908 2.70584 11.9448 3.26337 10.1633 4.2436C9.70829 4.49407 9.13547 4.32796 8.885 3.87278C8.63453 3.41772 8.80076 2.8449 9.25582 2.59455C11.3065 1.46596 13.6619 0.823486 16.1661 0.823486C24.0929 0.823486 30.5285 7.25913 30.5285 15.186C30.5285 16.6313 30.3145 18.027 29.9165 19.3433ZM18.531 7.38478C19.0322 7.53749 19.517 7.73843 19.9797 7.98513L20.9102 7.57137C21.2662 7.41313 21.6828 7.49043 21.9582 7.76584L23.5677 9.37537C23.8428 9.65043 23.9202 10.0664 23.7626 10.4221L23.3503 11.353C23.5975 11.8165 23.7986 12.3023 23.9516 12.8053L24.9002 13.1703C25.2636 13.3102 25.5033 13.6594 25.5033 14.0488V16.3255C25.5033 16.7148 25.2636 17.064 24.9002 17.2038C24.9002 17.2038 23.9509 17.5691 23.951 17.5691C23.7978 18.0703 23.5962 18.5553 23.3499 19.018L23.7626 19.9498C23.9202 20.3055 23.8428 20.7214 23.5677 20.9964L21.9582 22.606C21.683 22.8811 21.2671 22.9585 20.9115 22.801L19.981 22.3889C19.5185 22.6357 19.0325 22.8368 18.5306 22.9896L18.1655 23.9385C18.0256 24.302 17.6764 24.5416 17.2871 24.5416H15.0104C14.621 24.5416 14.2718 24.302 14.1319 23.9385C14.1319 23.9385 13.7668 22.9897 13.7669 22.9897C13.2643 22.8365 12.7788 22.6347 12.3156 22.3883L11.3837 22.801C11.0281 22.9585 10.6122 22.8811 10.3371 22.606L8.72747 20.9964C8.45206 20.721 8.37476 20.3044 8.533 19.9485C8.533 19.9485 8.94653 19.0185 8.94653 19.0187C8.69994 18.5565 8.49876 18.0709 8.34523 17.5695L7.395 17.2038C7.03159 17.064 6.79182 16.7148 6.79182 16.3255V14.0488C6.79182 13.6594 7.03159 13.3102 7.395 13.1703C7.395 13.1703 8.34488 12.8048 8.34488 12.8049C8.49853 12.3023 8.69982 11.8169 8.94676 11.3537L8.533 10.4234C8.37476 10.0674 8.45206 9.65078 8.72747 9.37537L10.3371 7.76584C10.6124 7.49043 11.0291 7.41313 11.385 7.57137C11.385 7.57137 12.3155 7.98513 12.3153 7.98513C12.7784 7.73831 13.2636 7.53725 13.765 7.38455L14.1323 6.43255C14.2724 6.0696 14.6213 5.83019 15.0104 5.83019H17.2871C17.6766 5.83019 18.0259 6.07019 18.1657 6.43384L18.531 7.38478ZM16.9451 8.50525L16.6405 7.71255H15.6561L15.3496 8.50655C15.2379 8.79596 14.9909 9.01172 14.6891 9.08337C14.0438 9.23678 13.4284 9.49172 12.8628 9.84019C12.5984 10.0033 12.2705 10.0251 11.9866 9.89902L11.2109 9.55408L10.5157 10.2493L10.8606 11.025C10.9869 11.3089 10.9649 11.6367 10.8019 11.9011C10.4529 12.4675 10.1978 13.0837 10.0423 13.7318C9.96994 14.033 9.75417 14.2794 9.46511 14.3905L8.67417 14.695V15.6793L9.46511 15.9836C9.75394 16.0948 9.9697 16.3408 10.0421 16.6417C10.1976 17.2875 10.4523 17.9054 10.8011 18.4695C10.9648 18.7341 10.987 19.0625 10.8606 19.3469L10.5157 20.1225L11.2116 20.8185L11.9879 20.4747C12.2708 20.3494 12.597 20.3711 12.8608 20.5327C13.427 20.8796 14.0429 21.1371 14.6909 21.2907C14.9931 21.3623 15.2406 21.5784 15.3522 21.8684L15.6566 22.6593H16.6409L16.9452 21.8684C17.0568 21.5787 17.3039 21.3625 17.6061 21.2908C18.2509 21.1376 18.8678 20.883 19.4311 20.5347C19.6954 20.3714 20.0232 20.3489 20.3072 20.4747L21.0836 20.8185L21.7802 20.122L21.4363 19.3456C21.311 19.0628 21.3328 18.7365 21.4943 18.4728C21.8412 17.9064 22.0989 17.2904 22.2524 16.6443C22.3242 16.3423 22.5403 16.0951 22.8301 15.9836L23.621 15.6793V14.695L22.8301 14.3905C22.5401 14.279 22.3239 14.0315 22.2523 13.7291C22.099 13.082 21.8441 12.4667 21.4956 11.9011C21.3329 11.6371 21.3106 11.3098 21.4363 11.0263L21.7802 10.25L21.0843 9.55408L20.3085 9.89902C20.0246 10.0251 19.6968 10.0033 19.4324 9.84019C18.8668 9.49172 18.2513 9.23678 17.6061 9.08337C17.3038 9.0116 17.0565 8.79525 16.9451 8.50525ZM16.1476 10.2736C18.8617 10.2736 21.0622 12.4718 21.0622 15.186C21.0622 17.8998 18.8615 20.1005 16.1476 20.1005C13.4335 20.1005 11.2353 17.9001 11.2353 15.186C11.2353 12.4717 13.4333 10.2736 16.1476 10.2736ZM16.1476 12.156C14.4735 12.156 13.1177 13.5118 13.1177 15.186C13.1177 16.8603 14.4732 18.2182 16.1476 18.2182C17.8221 18.2182 19.1798 16.8604 19.1798 15.186C19.1798 13.5116 17.8219 12.156 16.1476 12.156Z" fill="black"/>
</g>
<defs>
<clipPath id="clip0_4058_13114">
<rect width="60" height="60" fill="white"/>
</clipPath>
</defs>
</svg>
