<svg width="61" height="60" viewBox="0 0 61 60" fill="none" xmlns="http://www.w3.org/2000/svg">
<path d="M30.7997 39.0239C29.2683 39.0239 28.1133 40.1333 28.1133 41.6045C28.1133 41.6261 28.1141 41.6475 28.1155 41.6689L28.7789 51.3004C28.7946 52.2093 29.3908 52.9281 30.2432 53.1479C29.2257 53.3985 28.4678 54.3162 28.4678 55.41C28.4678 56.6959 29.5139 57.7419 30.7997 57.7419C32.0855 57.7419 33.1316 56.6958 33.1316 55.41C33.1316 54.3163 32.3738 53.3986 31.3562 53.1479C32.2085 52.9281 32.8048 52.2094 32.8205 51.3004L33.4839 41.6689C33.4853 41.6475 33.4861 41.6261 33.4861 41.6045C33.4861 40.1333 32.3311 39.0239 30.7997 39.0239ZM30.7997 55.8669C30.5478 55.8669 30.3428 55.662 30.3428 55.41C30.3428 55.1971 30.4899 55.0192 30.6872 54.9687H30.9122C31.1097 55.0192 31.2566 55.197 31.2566 55.41C31.2566 55.662 31.0517 55.8669 30.7997 55.8669ZM30.9481 51.199C30.9466 51.2204 30.9459 51.2419 30.9459 51.2634C30.9459 51.2946 30.9426 51.3083 30.9447 51.3066C30.8945 51.3565 30.7047 51.3566 30.6591 51.3134C30.6575 51.3096 30.6535 51.2932 30.6535 51.2634C30.6535 51.2419 30.6528 51.2204 30.6512 51.199L29.9885 41.5774C30.0055 40.9482 30.6119 40.8988 30.7996 40.8988C30.9873 40.8988 31.5937 40.9482 31.6107 41.5774L30.9481 51.199ZM55.0342 21.6679C53.561 15.9807 50.5883 11.115 46.4376 7.5968C42.3085 4.09699 37.2426 2.16199 31.7372 1.96898V1.05469C31.7372 0.536953 31.3175 0.117188 30.7997 0.117188C30.282 0.117188 29.8622 0.536953 29.8622 1.05469V1.97027C24.3665 2.17031 19.3101 4.09008 15.1872 7.55484C11.0172 11.0591 8.03582 15.9121 6.56523 21.5893C6.46058 21.9928 6.63519 22.4169 6.99332 22.6301C7.35144 22.8432 7.80753 22.7941 8.11222 22.51C9.45554 21.2568 11.1007 20.6072 12.6238 20.7306C13.8539 20.8295 14.9111 21.4064 15.6809 22.3989C15.6931 22.4145 15.7064 22.4288 15.7194 22.4435C15.8651 22.6495 16.0921 22.7971 16.362 22.8325C16.7993 22.89 17.2057 22.635 17.358 22.2404C18.6562 21.115 20.1715 20.5447 21.6603 20.6312C23.05 20.7114 24.3302 21.3757 25.2648 22.5018C25.4419 22.715 25.7043 22.8391 25.9816 22.8405H25.9862C25.9903 22.8405 25.9943 22.84 25.9984 22.8398C26.0352 22.8401 26.0724 22.8388 26.1099 22.8346C26.4037 22.8013 26.6498 22.6354 26.7965 22.4036C27.5706 21.5439 28.65 20.979 29.8623 20.7864V24.4096H28.4065C27.8888 24.4096 27.469 24.8293 27.469 25.3471V27.003C26.3152 27.3045 25.2156 27.7603 24.1852 28.3641L23.0138 27.1925C22.6477 26.8267 22.0543 26.8264 21.6879 27.1925L18.3033 30.5771C17.9371 30.9432 17.9371 31.5368 18.3032 31.9029L19.4748 33.0745C18.8707 34.1053 18.4149 35.2049 18.1136 36.3582H16.4578C15.9401 36.3582 15.5203 36.778 15.5203 37.2957V42.0825C15.5203 42.6002 15.9401 43.02 16.4578 43.02H18.1136C18.415 44.1739 18.8709 45.2734 19.4747 46.3038L18.3033 47.4751C18.1274 47.6509 18.0286 47.8894 18.0286 48.1381C18.0286 48.3866 18.1274 48.6251 18.3032 48.8009L19.7999 50.2977L16.0903 56.4882C15.6691 57.1913 15.6582 58.0356 16.0612 58.7468C16.4641 59.458 17.194 59.8827 18.0137 59.8827H43.586C44.4058 59.8827 45.1359 59.458 45.5387 58.7467C45.9416 58.0355 45.9307 57.1911 45.5094 56.4881L41.7999 50.2976L43.2965 48.801C43.4724 48.6251 43.5712 48.3867 43.5712 48.1381C43.5712 47.8894 43.4724 47.651 43.2965 47.4751L42.125 46.3036C42.7289 45.2728 43.1848 44.1734 43.4861 43.0199H45.1419C45.6597 43.0199 46.0794 42.6001 46.0794 42.0824V37.2956C46.0794 36.7779 45.6597 36.3581 45.1419 36.3581H43.486C43.1846 35.2043 42.7287 34.1047 42.125 33.0744L43.2966 31.9029C43.6627 31.5367 43.6627 30.9432 43.2966 30.577L39.9119 27.1923C39.5458 26.8264 38.9523 26.8262 38.586 27.1923L37.4144 28.3639C36.3837 27.76 35.2841 27.3041 34.1308 27.0027V25.3468C34.1308 24.8291 33.711 24.4093 33.1933 24.4093H31.7372V20.7845C33.0198 20.9858 34.169 21.597 34.9178 22.5009C34.924 22.5084 34.9311 22.5149 34.9374 22.5221C34.9502 22.5367 34.9629 22.551 34.9766 22.5647C34.9857 22.5738 34.9951 22.5824 35.0046 22.5911C35.0187 22.6041 35.033 22.6168 35.0479 22.629C35.0574 22.6368 35.0671 22.6441 35.0768 22.6514C35.0928 22.6634 35.1089 22.675 35.1257 22.686C35.1353 22.6923 35.1449 22.6983 35.1548 22.7043C35.1725 22.715 35.1905 22.7251 35.209 22.7346C35.2187 22.7396 35.2286 22.7447 35.2384 22.7494C35.2572 22.7583 35.2764 22.7664 35.2959 22.7741C35.3065 22.7783 35.3169 22.7825 35.3277 22.7863C35.3465 22.7929 35.3656 22.7986 35.3849 22.8041C35.3972 22.8076 35.4094 22.8111 35.4218 22.8141C35.4398 22.8184 35.458 22.8217 35.4763 22.825C35.4905 22.8274 35.5044 22.8301 35.5187 22.832C35.524 22.8327 35.5289 22.834 35.5342 22.8346C35.5459 22.8359 35.5575 22.8357 35.5693 22.8367C35.581 22.8376 35.5925 22.8394 35.6043 22.8398C35.6096 22.8401 35.6147 22.8395 35.6199 22.8396C35.6321 22.8398 35.6441 22.8394 35.6562 22.8391C35.6779 22.8388 35.6996 22.8383 35.721 22.8364C35.7256 22.8361 35.7299 22.8353 35.7344 22.8348C35.9398 22.8143 36.1316 22.7264 36.2823 22.584C36.2866 22.58 36.291 22.5762 36.2952 22.5721C36.3014 22.566 36.3084 22.5605 36.3144 22.5541C37.4209 21.4079 39.1941 20.8016 41.0528 20.931C42.5318 21.0343 43.7837 21.6036 44.4016 22.4539C44.4044 22.4578 44.4078 22.4613 44.4107 22.4652C44.4241 22.4829 44.4379 22.5 44.4523 22.5165C44.4586 22.5238 44.4648 22.5311 44.4713 22.5381C44.486 22.554 44.5014 22.5693 44.5172 22.5841C44.5238 22.5904 44.5301 22.5968 44.5368 22.6028C44.5571 22.6208 44.5783 22.638 44.6001 22.6542C44.6025 22.656 44.6046 22.6581 44.6071 22.6598C44.6317 22.6779 44.6573 22.6944 44.6835 22.71C44.6895 22.7135 44.6957 22.7164 44.7017 22.7198C44.7223 22.7314 44.7432 22.7423 44.7645 22.7524C44.7725 22.7562 44.7807 22.7595 44.7887 22.763C44.809 22.7718 44.8294 22.7798 44.8504 22.7872C44.8588 22.7902 44.8674 22.793 44.8758 22.7957C44.8973 22.8026 44.9189 22.8086 44.941 22.8138C44.9491 22.8158 44.9571 22.8178 44.9653 22.8196C44.9887 22.8245 45.0123 22.8284 45.0362 22.8316C45.0414 22.8323 45.0464 22.8336 45.0516 22.8342C45.0535 22.8345 45.0555 22.8343 45.0573 22.8346C45.0907 22.8382 45.1245 22.8407 45.1586 22.8407C45.1595 22.8407 45.1606 22.8404 45.1615 22.8404C45.1974 22.8404 45.233 22.8375 45.2685 22.8334C45.2731 22.8328 45.2774 22.8332 45.282 22.8325C45.2883 22.8316 45.2944 22.83 45.3007 22.8291C45.3187 22.8264 45.3365 22.823 45.3542 22.8193C45.3666 22.8168 45.3789 22.8141 45.3912 22.811C45.407 22.8069 45.4227 22.8022 45.4384 22.7973C45.4517 22.7932 45.4649 22.7893 45.4778 22.7846C45.4914 22.7797 45.5046 22.774 45.518 22.7685C45.5319 22.7627 45.5461 22.7573 45.5597 22.7509C45.5706 22.7459 45.5809 22.7398 45.5916 22.7343C45.6217 22.7186 45.6509 22.7014 45.6789 22.6828C45.688 22.6767 45.6975 22.6712 45.7064 22.6648C45.7187 22.656 45.7302 22.6463 45.7419 22.6368C45.7518 22.6289 45.7621 22.6216 45.7717 22.6133C48.328 20.4109 50.8653 20.4145 53.528 22.6246C53.841 22.8843 54.2861 22.9125 54.6292 22.6945C54.9726 22.4763 55.1363 22.0617 55.0342 21.6679ZM43.9073 57.8225C43.8681 57.8918 43.7741 58.0078 43.5859 58.0078H18.0136C17.8254 58.0078 17.7316 57.8918 17.6923 57.8227C17.6532 57.7534 17.6019 57.6134 17.6986 57.452L25.2912 44.7818C25.2924 44.7798 25.2937 44.7777 25.2948 44.7757L30.758 35.659C30.764 35.6488 30.7715 35.6363 30.7998 35.6363C30.8283 35.6363 30.8359 35.6489 30.8419 35.6591L36.304 44.7743C36.3058 44.7772 36.3075 44.7803 36.3093 44.7832L43.9009 57.452C43.9976 57.6134 43.9464 57.7534 43.9073 57.8225ZM23.9234 39.6891C23.9234 35.8975 27.008 32.8127 30.7997 32.8127C34.5914 32.8127 37.676 35.8973 37.676 39.6891C37.676 40.6538 37.478 41.5887 37.0983 42.452L32.4502 34.6954C32.0997 34.1105 31.4827 33.7613 30.7996 33.7614C30.1166 33.7614 29.4996 34.1105 29.1494 34.6954L24.5012 42.4521C24.1216 41.5888 23.9234 40.6538 23.9234 39.6891ZM33.0098 28.6682C34.4506 28.9554 35.8029 29.5159 37.0293 30.3343C37.4012 30.5827 37.8964 30.5336 38.2126 30.2175L39.2488 29.1812L41.3077 31.2401L40.2714 32.2763C39.9553 32.5924 39.9065 33.0878 40.1546 33.4597C40.9725 34.6852 41.5332 36.0375 41.8206 37.4791C41.908 37.9177 42.293 38.2334 42.7401 38.2334H44.2043V41.1451H42.7401C42.293 41.1451 41.908 41.4608 41.8206 41.8995C41.5335 43.3402 40.973 44.6926 40.1546 45.919C39.9065 46.2908 39.9553 46.7862 40.2715 47.1023L41.3076 48.1384L40.8061 48.6398L38.2217 44.3269C39.0927 42.938 39.551 41.3477 39.551 39.6894C39.551 34.8639 35.6253 30.9381 30.7997 30.9381C25.9742 30.9381 22.0484 34.8639 22.0484 39.6894C22.0484 41.3479 22.5068 42.9381 23.3779 44.327L20.7933 48.6401L20.2918 48.1384L21.3278 47.1025C21.644 46.7863 21.6928 46.2909 21.4448 45.919C20.6268 44.6934 20.0661 43.341 19.7786 41.8993C19.6912 41.4609 19.3063 41.1451 18.8591 41.1451H17.3951V38.2334H18.8593C19.3063 38.2334 19.6913 37.9177 19.7787 37.479C20.0658 36.0383 20.6263 34.686 21.4448 33.4595C21.6928 33.0877 21.644 32.5924 21.3279 32.2763L20.2918 31.24L22.3506 29.1812L23.3867 30.2174C23.7028 30.5333 24.1982 30.5823 24.57 30.3342C25.7957 29.5163 27.1482 28.9556 28.5898 28.6682C29.0282 28.5807 29.344 28.1959 29.344 27.7487V26.2845H32.2558V27.7487C32.2557 28.1958 32.5714 28.5807 33.0098 28.6682ZM34.8392 19.9796C33.6928 19.256 32.2976 18.845 30.8478 18.8371C30.8329 18.837 30.818 18.8368 30.8031 18.8368C30.8023 18.8368 30.8015 18.8368 30.8007 18.8368C30.8003 18.8368 30.8 18.8368 30.7996 18.8368C30.7988 18.8368 30.798 18.837 30.7971 18.837C29.3365 18.838 27.9555 19.2373 26.8043 19.9666C26.6222 14.5539 28.1911 8.48273 30.822 4.49473C33.4548 8.48602 35.0243 14.5637 34.8392 19.9796ZM12.7742 18.8616C11.5697 18.7648 10.3243 19.0119 9.15121 19.5604C12.0522 11.5076 18.2978 5.93168 26.0635 4.31262C23.8233 5.78391 21.8901 7.59949 20.2873 9.7425C18.0879 12.6832 16.5996 16.1211 15.8486 19.9816C14.9532 19.3404 13.9028 18.9523 12.7742 18.8616ZM21.7683 18.7593C20.4243 18.6818 19.08 18.9935 17.8333 19.6518C19.2523 13.2643 22.863 8.25117 28.2524 5.16879C27.2799 7.00617 26.4713 9.13512 25.8962 11.4041C25.1946 14.1717 24.8636 17.0621 24.9245 19.7516C23.9724 19.1675 22.8986 18.8244 21.7683 18.7593ZM40.5637 19.039C39.1825 19.039 37.8509 19.3625 36.7145 19.9568C36.7975 17.2097 36.4671 14.2423 35.7478 11.404C35.1727 9.135 34.364 7.00605 33.3917 5.16867C38.7954 8.25938 42.411 13.2909 43.8221 19.7029C43.0462 19.3505 42.1518 19.1282 41.1832 19.0605C40.9758 19.0461 40.7694 19.039 40.5637 19.039ZM45.8437 20.2385C45.1094 16.2737 43.6046 12.7482 41.3566 9.7425C39.7567 7.60336 37.8273 5.79059 35.5923 4.3207C43.3608 5.96309 49.6084 11.6102 52.4918 19.7571C50.27 18.7512 47.9932 18.9128 45.8437 20.2385Z" fill="black"/>
</svg>
