<svg width="41" height="40" viewBox="0 0 41 40" fill="none" xmlns="http://www.w3.org/2000/svg">
<g clip-path="url(#clip0_4046_4877)">
<path d="M26.4844 1.17188H14.7656C13.2555 1.17188 12.0312 2.39609 12.0312 3.90625C12.0312 5.41641 13.2555 6.64062 14.7656 6.64062H26.4844C27.9945 6.64062 29.2188 5.41641 29.2188 3.90625C29.2188 2.39609 27.9945 1.17188 26.4844 1.17188Z" fill="black"/>
<path d="M26.4844 11.901H14.7656C13.2555 11.901 12.0312 13.1252 12.0312 14.6354C12.0312 16.1455 13.2555 17.3698 14.7656 17.3698H26.4844C27.9945 17.3698 29.2188 16.1455 29.2188 14.6354C29.2188 13.1252 27.9945 11.901 26.4844 11.901Z" fill="black"/>
<path d="M26.4844 22.6302H14.7656C13.2555 22.6302 12.0312 23.8545 12.0312 25.3646C12.0312 26.8748 13.2555 28.099 14.7656 28.099H26.4844C27.9945 28.099 29.2188 26.8748 29.2188 25.3646C29.2188 23.8545 27.9945 22.6302 26.4844 22.6302Z" fill="black"/>
<path d="M26.4844 33.3594H14.7656C13.2555 33.3594 12.0312 34.5836 12.0312 36.0938C12.0312 37.6039 13.2555 38.8281 14.7656 38.8281H26.4844C27.9945 38.8281 29.2188 37.6039 29.2188 36.0938C29.2188 34.5836 27.9945 33.3594 26.4844 33.3594Z" fill="black"/>
<path d="M34.0883 15.8073C37.6925 15.8073 40.6248 12.8751 40.6248 9.27086C40.6248 5.66664 37.6925 2.73438 34.0883 2.73438H31.4243C31.5136 3.11086 31.5623 3.50289 31.5623 3.90625C31.5623 4.30961 31.5136 4.70164 31.4243 5.07812H34.0883C36.4002 5.07812 38.281 6.95898 38.281 9.27086C38.281 11.5827 36.4002 13.4635 34.0883 13.4635H31.4243C31.5136 13.84 31.5623 14.232 31.5623 14.6354C31.5623 15.0387 31.5136 15.4308 31.4243 15.8073H34.0883Z" fill="black"/>
<path d="M4.62598 2.73441L5.35988 2.00051C5.81754 1.54285 5.81754 0.800898 5.35988 0.343242C4.90223 -0.114414 4.16027 -0.114414 3.70262 0.343242L0.968242 3.07762C0.510586 3.53527 0.510586 4.27723 0.968242 4.73488L3.70262 7.46926C4.16027 7.92691 4.90223 7.92691 5.35988 7.46926C5.81754 7.0116 5.81754 6.26965 5.35988 5.81199L4.62598 5.07816H9.82543C9.73613 4.70168 9.68746 4.30965 9.68746 3.90629C9.68746 3.50293 9.73613 3.1109 9.82543 2.73441H4.62598Z" fill="black"/>
<path d="M7.16148 13.4635C3.55727 13.4635 0.625 16.3958 0.625 20C0.625 23.6042 3.55727 26.5365 7.16148 26.5365H9.82547C9.73617 26.16 9.6875 25.768 9.6875 25.3646C9.6875 24.9612 9.73617 24.5692 9.82547 24.1927H7.16148C4.84961 24.1927 2.96875 22.3119 2.96875 20C2.96875 17.6881 4.84961 15.8073 7.16148 15.8073H9.82547C9.73617 15.4308 9.6875 15.0387 9.6875 14.6354C9.6875 14.232 9.73617 13.84 9.82547 13.4635H7.16148Z" fill="black"/>
<path d="M4.62598 34.9219L5.35988 34.188C5.81754 33.7304 5.81754 32.9884 5.35988 32.5307C4.90223 32.0731 4.16027 32.0731 3.70262 32.5307L0.968242 35.2651C0.510586 35.7228 0.510586 36.4647 0.968242 36.9224L3.70262 39.6568C4.16027 40.1144 4.90223 40.1144 5.35988 39.6568C5.81754 39.1991 5.81754 38.4571 5.35988 37.9995L4.62598 37.2657H9.82543C9.73613 36.8892 9.68746 36.4971 9.68746 36.0938C9.68746 35.6904 9.73613 35.2984 9.82543 34.9219H4.62598Z" fill="black"/>
<path d="M34.0883 24.1927H31.4243C31.5136 24.5692 31.5623 24.9613 31.5623 25.3646C31.5623 25.768 31.5136 26.16 31.4243 26.5365H34.0883C36.4002 26.5365 38.281 28.4173 38.281 30.7292C38.281 33.041 36.4002 34.9219 34.0883 34.9219H31.4243C31.5136 35.2984 31.5623 35.6904 31.5623 36.0938C31.5623 36.4971 31.5136 36.8892 31.4243 37.2656H34.0883C37.6925 37.2656 40.6248 34.3334 40.6248 30.7292C40.6248 27.1249 37.6925 24.1927 34.0883 24.1927Z" fill="black"/>
</g>
<defs>
<clipPath id="clip0_4046_4877">
<rect width="40" height="40" fill="white" transform="translate(0.625)"/>
</clipPath>
</defs>
</svg>
