<svg width="41" height="40" viewBox="0 0 41 40" fill="none" xmlns="http://www.w3.org/2000/svg">
<g clip-path="url(#clip0_4046_4816)">
<path d="M34.8376 25.5514C31.861 25.5514 29.4395 27.973 29.4395 30.9496C29.4395 32.5015 30.2509 34.1951 31.8513 35.983C32.9699 37.2326 34.0822 38.0816 34.1289 38.1172L34.8375 38.6551L35.5461 38.1172C35.5929 38.0816 36.7051 37.2327 37.8238 35.983C39.4241 34.1951 40.2356 32.5015 40.2356 30.9496C40.2358 27.973 37.8141 25.5514 34.8376 25.5514ZM34.8377 35.656C33.6238 34.5636 31.7832 32.563 31.7832 30.9496C31.7832 29.2654 33.1534 27.8951 34.8376 27.8951C36.5218 27.8951 37.892 29.2654 37.892 30.9496C37.892 32.5632 36.0509 34.564 34.8377 35.656Z" fill="black"/>
<path d="M33.666 29.9362H36.0098V32.2799H33.666V29.9362Z" fill="black"/>
<path d="M21.122 29.1286L22.9254 30.932H8.27117C5.20953 30.932 2.71875 28.4411 2.71875 25.3795C2.71875 22.318 5.20953 19.8271 8.27117 19.8271H13.8237V25.2065H26.9263V19.8271H32.4788C36.8327 19.8271 40.3749 16.2848 40.3749 11.9309C40.3749 7.57696 36.8327 4.03469 32.4788 4.03469H7.91586C7.41852 2.47657 5.95742 1.34485 4.23664 1.34485C2.10734 1.34485 0.375 3.07719 0.375 5.20649C0.375 7.33579 2.10734 9.06813 4.23664 9.06813C5.9575 9.06813 7.41852 7.93641 7.91594 6.37836H32.4788C35.5404 6.37836 38.0312 8.86922 38.0312 11.9309C38.0312 14.9924 35.5404 17.4833 32.4788 17.4833H26.9264V12.1038H13.8237V17.4833H8.27117C3.91719 17.4834 0.375 21.0256 0.375 25.3795C0.375 29.7335 3.91719 33.2757 8.27117 33.2757H22.9253L21.122 35.0791L22.7792 36.7363L27.4117 32.1038L22.7792 27.4713L21.122 29.1286ZM4.23664 6.72438C3.39969 6.72438 2.71875 6.04344 2.71875 5.20649C2.71875 4.36954 3.39969 3.6886 4.23664 3.6886C5.07359 3.6886 5.75445 4.36954 5.75445 5.20649C5.75445 6.04344 5.07359 6.72438 4.23664 6.72438ZM16.1674 14.4476H19.2031V16.7245H21.5469V14.4476H24.5826V22.8627H16.1674V14.4476Z" fill="black"/>
</g>
<defs>
<clipPath id="clip0_4046_4816">
<rect width="40" height="40" fill="white" transform="translate(0.375)"/>
</clipPath>
</defs>
</svg>
