<svg width="41" height="40" viewBox="0 0 41 40" fill="none" xmlns="http://www.w3.org/2000/svg">
<g clip-path="url(#clip0_4046_4821)">
<path d="M5.95312 32.9688V39.2188" stroke="black" stroke-width="1.5625" stroke-miterlimit="10" stroke-linecap="round" stroke-linejoin="round"/>
<path d="M22.75 10.8431V4.6875C22.75 2.53016 21.0011 0.78125 18.8438 0.78125H14.9375C13.708 0.78125 12.5502 1.36016 11.8125 2.34375H9.46875C7.31141 2.34375 5.5625 4.09266 5.5625 6.25V10.8431" stroke="black" stroke-width="1.5625" stroke-miterlimit="10" stroke-linecap="round" stroke-linejoin="round"/>
<path d="M16.1094 8.20312C14.8718 9.6882 13.0385 10.5469 11.1054 10.5469H8.29688V15.2344C8.29688 18.4704 10.9202 21.0938 14.1562 21.0938C17.3923 21.0938 20.0156 18.4704 20.0156 15.2344V12.1094C20.0156 9.95203 18.2667 8.20312 16.1094 8.20312Z" stroke="black" stroke-width="1.5625" stroke-miterlimit="10" stroke-linecap="round" stroke-linejoin="round"/>
<path d="M20.0154 14.0625H21.7732C22.744 14.0625 23.531 13.2755 23.531 12.3047C23.531 11.3339 22.744 10.5469 21.7732 10.5469H19.6895" stroke="black" stroke-width="1.5625" stroke-miterlimit="10" stroke-linecap="round" stroke-linejoin="round"/>
<path d="M8.29688 10.5469H6.53906C5.56828 10.5469 4.78125 11.3339 4.78125 12.3047C4.78125 13.2755 5.56828 14.0625 6.53906 14.0625H8.29688" stroke="black" stroke-width="1.5625" stroke-miterlimit="10" stroke-linecap="round" stroke-linejoin="round"/>
<path d="M17.2812 28.6719L19.625 24.25L16.8906 22.4219L14.1562 27.1094L17.2812 28.6719Z" stroke="black" stroke-width="1.5625" stroke-miterlimit="10" stroke-linecap="round" stroke-linejoin="round"/>
<path d="M11.0312 28.6719L8.6875 24.25L11.4219 22.4219L14.1562 27.1094L11.0312 28.6719Z" stroke="black" stroke-width="1.5625" stroke-miterlimit="10" stroke-linecap="round" stroke-linejoin="round"/>
<path d="M11.4219 20.4165V22.4218" stroke="black" stroke-width="1.5625" stroke-miterlimit="10" stroke-linecap="round" stroke-linejoin="round"/>
<path d="M16.8906 22.4218V20.4165" stroke="black" stroke-width="1.5625" stroke-miterlimit="10" stroke-linecap="round" stroke-linejoin="round"/>
<path d="M11.0312 39.2188L12.9844 31.0157L12.1182 28.1284" stroke="black" stroke-width="1.5625" stroke-miterlimit="10" stroke-linecap="round" stroke-linejoin="round"/>
<path d="M16.5386 36.0997L15.3281 31.0157L16.1943 28.1284" stroke="black" stroke-width="1.5625" stroke-miterlimit="10" stroke-linecap="round" stroke-linejoin="round"/>
<path d="M15.3281 31.0156H12.9844" stroke="black" stroke-width="1.5625" stroke-miterlimit="10" stroke-linecap="round" stroke-linejoin="round"/>
<path d="M38.5312 36.0938H22.9062V39.2188H36.9688C37.8317 39.2188 38.5312 38.5192 38.5312 37.6562V36.0938Z" stroke="black" stroke-width="1.5625" stroke-miterlimit="10" stroke-linecap="round" stroke-linejoin="round"/>
<path d="M22.9062 36.0938H16.6562C15.7933 36.0938 15.0938 36.7933 15.0938 37.6562V39.2188H22.9062" stroke="black" stroke-width="1.5625" stroke-miterlimit="10" stroke-linecap="round" stroke-linejoin="round"/>
<path d="M36.1875 25.1562H40.0938L38.5312 36.0938H22.9062L24.4688 25.1562H29.1562" stroke="black" stroke-width="1.5625" stroke-miterlimit="10" stroke-linecap="round" stroke-linejoin="round"/>
<path d="M19.625 24.25L23.0627 25.0751C23.5452 25.1909 23.9945 25.3797 24.4015 25.6269" stroke="black" stroke-width="1.5625" stroke-miterlimit="10" stroke-linecap="round" stroke-linejoin="round"/>
<path d="M8.6875 24.25L5.24984 25.075C3.14219 25.5809 1.65625 27.4657 1.65625 29.6331V39.2188H15.0938" stroke="black" stroke-width="1.5625" stroke-miterlimit="10" stroke-linecap="round" stroke-linejoin="round"/>
<path d="M31.5 32.1875C32.3629 32.1875 33.0625 31.4879 33.0625 30.625C33.0625 29.7621 32.3629 29.0625 31.5 29.0625C30.6371 29.0625 29.9375 29.7621 29.9375 30.625C29.9375 31.4879 30.6371 32.1875 31.5 32.1875Z" stroke="black" stroke-width="1.5625" stroke-miterlimit="10" stroke-linecap="round" stroke-linejoin="round"/>
<path d="M29.9375 15.3356V18.125C29.9375 18.7722 30.4622 19.2969 31.1094 19.2969H35.0156C35.6628 19.2969 36.1875 18.7722 36.1875 18.125V15.3356C38.0556 14.2549 39.3125 12.2352 39.3125 9.92188C39.3125 6.47008 36.5143 3.67188 33.0625 3.67188C29.6107 3.67188 26.8125 6.47008 26.8125 9.92188C26.8125 12.2352 28.0694 14.255 29.9375 15.3356Z" stroke="black" stroke-width="1.5625" stroke-miterlimit="10" stroke-linecap="round" stroke-linejoin="round"/>
<path d="M34.2344 15.3356L35.4062 9.14062L33.0625 10.7031L30.7188 9.14062L31.8906 15.3356" stroke="black" stroke-width="1.5625" stroke-miterlimit="10" stroke-linecap="round" stroke-linejoin="round"/>
<path d="M29.9375 15.3356H36.1875" stroke="black" stroke-width="1.5625" stroke-miterlimit="10" stroke-linecap="round" stroke-linejoin="round"/>
</g>
<defs>
<clipPath id="clip0_4046_4821">
<rect width="40" height="40" fill="white" transform="translate(0.875)"/>
</clipPath>
</defs>
</svg>
