<svg width="41" height="40" viewBox="0 0 41 40" fill="none" xmlns="http://www.w3.org/2000/svg">
<path d="M29.7866 21.0948C27.8479 21.0948 26.2705 22.6721 26.2705 24.6109C26.2705 26.5497 27.8478 28.127 29.7866 28.127C31.7253 28.127 33.3026 26.5497 33.3026 24.6109C33.3026 22.6722 31.7254 21.0948 29.7866 21.0948ZM29.7866 25.7832C29.1402 25.7832 28.6143 25.2573 28.6143 24.6109C28.6143 23.9645 29.1401 23.4386 29.7866 23.4386C30.4329 23.4386 30.9589 23.9645 30.9589 24.6109C30.9589 25.2573 30.433 25.7832 29.7866 25.7832Z" fill="black"/>
<path d="M38.0732 17.9812L36.4159 16.3239L34.6967 18.0431C34.263 17.718 33.7961 17.4352 33.3023 17.1999V11.7194H30.9579V2.34391H22.6546C21.0901 0.848359 18.9915 0 16.8176 0C14.6437 0 12.5451 0.848359 10.9804 2.34391H2.67725V40H30.9578V32.7304C34.9283 32.1602 37.9897 28.7366 37.9897 24.6109C37.9897 22.7709 37.3808 21.0705 36.3539 19.7005L38.0732 17.9812ZM30.9585 16.4914C30.5755 16.4363 30.1842 16.4073 29.7862 16.4073C29.3883 16.4073 28.9969 16.4363 28.6139 16.4914V14.0632H30.9585V16.4914ZM11.9848 4.68766L12.3329 4.31008C13.485 3.06047 15.1196 2.34375 16.8176 2.34375C18.5154 2.34375 20.1501 3.06047 21.3022 4.31008L21.6502 4.68766H23.9262V7.03172H9.70881V4.68766H11.9848ZM5.021 37.6562V4.68766H7.36506V9.37547H26.27V4.68766H28.614V11.7195H26.2701V17.2C25.4456 17.5928 24.6967 18.1193 24.0512 18.7512H12.0526V21.0949H22.3753C22.0281 21.8238 21.7855 22.6116 21.6667 23.439H12.0526V25.7827H21.6667C22.1821 29.3701 25.0268 32.2148 28.614 32.7303V37.6562H5.021ZM29.7862 30.4706C26.5551 30.4706 23.9264 27.842 23.9264 24.6109C23.9264 21.3798 26.5551 18.751 29.7862 18.751C33.0172 18.751 35.646 21.3797 35.646 24.6109C35.646 27.842 33.0173 30.4706 29.7862 30.4706Z" fill="black"/>
<path d="M12.0527 14.0634H23.9266V16.4071H12.0527V14.0634Z" fill="black"/>
<path d="M7.36475 14.0634H9.70865V16.4071H7.36475V14.0634Z" fill="black"/>
<path d="M7.36475 18.7512H9.70865V21.095H7.36475V18.7512Z" fill="black"/>
<path d="M7.36475 23.439H9.70865V25.7827H7.36475V23.439Z" fill="black"/>
</svg>
