<svg width="56" height="56" viewBox="0 0 56 56" fill="none" xmlns="http://www.w3.org/2000/svg">
<g clip-path="url(#clip0_507_669)">
<path d="M42.875 0H13.125C5.87626 0 0 5.87626 0 13.125V42.875C0 50.1237 5.87626 56 13.125 56H42.875C50.1237 56 56 50.1237 56 42.875V13.125C56 5.87626 50.1237 0 42.875 0Z" fill="white"/>
<path d="M20.8224 43.2253V32.8289L25.0439 28.6206L35.6342 44.2705L40.4849 44.3086L41.3805 42.4804L29.0572 24.603L40.402 13.069L39.7739 11.2402H34.9332L20.8224 25.3472V12.3172L19.7909 11.2402H16.2873L15.2556 12.317V43.18L16.3421 44.2842L19.7182 44.2706L20.8224 43.2253Z" fill="#D00000"/>
</g>
<defs>
<clipPath id="clip0_507_669">
<rect width="56" height="56" fill="white"/>
</clipPath>
</defs>
</svg>
