<svg width="56" height="56" viewBox="0 0 56 56" fill="none" xmlns="http://www.w3.org/2000/svg">
<g clip-path="url(#clip0_616_864)">
<path d="M42.875 0H13.125C5.87626 0 0 5.87626 0 13.125V42.875C0 50.1237 5.87626 56 13.125 56H42.875C50.1237 56 56 50.1237 56 42.875V13.125C56 5.87626 50.1237 0 42.875 0Z" fill="white"/>
<path d="M26.6799 43.6096L37.7277 41.6418L37.83 41.6185L32.1477 34.8076C30.2421 32.5362 28.3469 30.2558 26.4621 27.9668C26.4621 27.9336 32.3325 11.6492 32.3655 11.5927C35.6134 17.1938 38.8407 22.807 42.0472 28.4322L51.7817 45.4345L51.8576 45.5641L15.731 45.5608L26.6799 43.6096ZM5 41.5354C5 41.5254 7.67616 36.8419 10.9496 31.1279L16.9025 20.7338L23.8387 14.8702C27.6533 11.6492 30.7849 9 30.7948 9C30.7702 9.09834 30.7336 9.19324 30.6859 9.28254L23.1491 25.5569L15.7574 41.5387L10.3787 41.5454C7.41878 41.5487 5 41.5454 5 41.5354Z" fill="#008AD7"/>
</g>
<defs>
<clipPath id="clip0_616_864">
<rect width="56" height="56" fill="white"/>
</clipPath>
</defs>
</svg>
