<svg width="56" height="56" viewBox="0 0 56 56" fill="none" xmlns="http://www.w3.org/2000/svg">
<path d="M26.145 43.442L37.863 41.37L37.9715 41.3455L31.9445 34.174C29.9233 31.7823 27.9131 29.3812 25.914 26.971C25.914 26.936 32.1405 9.7895 32.1755 9.73C35.6204 15.6276 39.0435 21.538 42.4445 27.461L52.7695 45.3635L52.85 45.5L14.532 45.4965L26.145 43.442ZM3.15002 41.258C3.15002 41.2475 5.98852 36.316 9.46052 30.2995L15.7745 19.355L23.1315 13.181C27.1775 9.7895 30.499 7 30.5095 7C30.4834 7.10355 30.4446 7.20347 30.394 7.2975L22.4 24.4335L14.56 41.2615L8.85502 41.2685C5.71552 41.272 3.15002 41.2685 3.15002 41.258Z" fill="white"/>
</svg>
