<svg width="80" height="80" viewBox="0 0 80 80" fill="none" xmlns="http://www.w3.org/2000/svg">
<path d="M70 29.9999C70.3315 29.9999 70.6495 29.8682 70.8839 29.6337C71.1183 29.3993 71.25 29.0814 71.25 28.7499V24.9999H73.75C74.0815 24.9999 74.3995 24.8682 74.6339 24.6337C74.8683 24.3993 75 24.0814 75 23.7499V19.9999H76.25C76.5815 19.9999 76.8995 19.8682 77.1339 19.6337C77.3683 19.3993 77.5 19.0814 77.5 18.7499V12.4999C77.4991 12.219 77.4036 11.9466 77.229 11.7267C77.0544 11.5067 76.8108 11.3519 76.5375 11.2874L40.2875 2.53736C40.0991 2.48755 39.9009 2.48755 39.7125 2.53736L3.4625 11.2874C3.18918 11.3519 2.94558 11.5067 2.77096 11.7267C2.59635 11.9466 2.5009 12.219 2.5 12.4999V18.7499C2.5 19.0814 2.6317 19.3993 2.86612 19.6337C3.10054 19.8682 3.41848 19.9999 3.75 19.9999H5V23.7499C5 24.0814 5.1317 24.3993 5.36612 24.6337C5.60054 24.8682 5.91848 24.9999 6.25 24.9999H8.75V28.7499C8.75 29.0814 8.8817 29.3993 9.11612 29.6337C9.35054 29.8682 9.66848 29.9999 10 29.9999H11.25V64.9999H10C9.66848 64.9999 9.35054 65.1316 9.11612 65.366C8.8817 65.6004 8.75 65.9183 8.75 66.2499V69.9999H3.75C3.41848 69.9999 3.10054 70.1316 2.86612 70.366C2.6317 70.6004 2.5 70.9183 2.5 71.2499V76.2499C2.5 76.5814 2.6317 76.8993 2.86612 77.1337C3.10054 77.3682 3.41848 77.4999 3.75 77.4999H76.25C76.5815 77.4999 76.8995 77.3682 77.1339 77.1337C77.3683 76.8993 77.5 76.5814 77.5 76.2499V71.2499C77.5 70.9183 77.3683 70.6004 77.1339 70.366C76.8995 70.1316 76.5815 69.9999 76.25 69.9999H71.25V66.2499C71.25 65.9183 71.1183 65.6004 70.8839 65.366C70.6495 65.1316 70.3315 64.9999 70 64.9999H68.75V29.9999H70ZM5 17.4999V13.4874L40 5.03736L75 13.4874V17.4999H5ZM7.5 22.4999V19.9999H72.5V22.4999H7.5ZM68.75 67.4999V69.9999H58.75V67.4999H68.75ZM61.25 64.9999V29.9999H66.25V64.9999H61.25ZM58.75 64.9999H57.5C57.1685 64.9999 56.8505 65.1316 56.6161 65.366C56.3817 65.6004 56.25 65.9183 56.25 66.2499V69.9999H50V67.4999H51.25C51.5815 67.4999 51.8995 67.3682 52.1339 67.1337C52.3683 66.8993 52.5 66.5814 52.5 66.2499V61.2499C52.5 60.9183 52.3683 60.6004 52.1339 60.366C51.8995 60.1316 51.5815 59.9999 51.25 59.9999H50V57.4999H51.25C51.5815 57.4999 51.8995 57.3682 52.1339 57.1337C52.3683 56.8993 52.5 56.5814 52.5 56.2499V51.2499C52.5 50.9183 52.3683 50.6004 52.1339 50.366C51.8995 50.1316 51.5815 49.9999 51.25 49.9999H47.05C48.8648 48.5405 50.1819 46.554 50.8198 44.3143C51.4576 42.0746 51.3847 39.6921 50.6111 37.4956C49.8375 35.2991 48.4013 33.3968 46.5007 32.0512C44.6001 30.7055 42.3287 29.9829 40 29.9829C37.6713 29.9829 35.3999 30.7055 33.4993 32.0512C31.5987 33.3968 30.1625 35.2991 29.3889 37.4956C28.6153 39.6921 28.5424 42.0746 29.1802 44.3143C29.8181 46.554 31.1352 48.5405 32.95 49.9999H31.25C30.9185 49.9999 30.6005 50.1316 30.3661 50.366C30.1317 50.6004 30 50.9183 30 51.2499V54.9999H28.75C28.4185 54.9999 28.1005 55.1316 27.8661 55.366C27.6317 55.6004 27.5 55.9183 27.5 56.2499V61.2499C27.5 61.5814 27.6317 61.8993 27.8661 62.1337C28.1005 62.3682 28.4185 62.4999 28.75 62.4999H30V64.9999H28.75C28.4185 64.9999 28.1005 65.1316 27.8661 65.366C27.6317 65.6004 27.5 65.9183 27.5 66.2499V69.9999H23.75V66.2499C23.75 65.9183 23.6183 65.6004 23.3839 65.366C23.1495 65.1316 22.8315 64.9999 22.5 64.9999H21.25V29.9999H22.5C22.8315 29.9999 23.1495 29.8682 23.3839 29.6337C23.6183 29.3993 23.75 29.0814 23.75 28.7499V24.9999H56.25V28.7499C56.25 29.0814 56.3817 29.3993 56.6161 29.6337C56.8505 29.8682 57.1685 29.9999 57.5 29.9999H58.75V64.9999ZM50 52.4999V54.9999H32.5V52.4999H50ZM31.25 41.2499C31.25 39.5193 31.7632 37.8275 32.7246 36.3886C33.6861 34.9497 35.0527 33.8282 36.6515 33.1659C38.2504 32.5036 40.0097 32.3304 41.707 32.668C43.4044 33.0056 44.9635 33.839 46.1872 35.0627C47.4109 36.2864 48.2443 37.8455 48.5819 39.5428C48.9195 41.2402 48.7462 42.9995 48.0839 44.5983C47.4217 46.1972 46.3002 47.5638 44.8612 48.5252C43.4223 49.4867 41.7306 49.9999 40 49.9999C37.6802 49.9972 35.4561 49.0745 33.8157 47.4341C32.1754 45.7938 31.2526 43.5697 31.25 41.2499ZM47.5 57.4999V59.9999H30V57.4999H47.5ZM32.5 64.9999V62.4999H50V64.9999H32.5ZM47.5 67.4999V69.9999H30V67.4999H47.5ZM11.25 27.4999V24.9999H21.25V27.4999H11.25ZM18.75 29.9999V64.9999H13.75V29.9999H18.75ZM11.25 67.4999H21.25V69.9999H11.25V67.4999ZM75 72.4999V74.9999H5V72.4999H75ZM58.75 27.4999V24.9999H68.75V27.4999H58.75Z" fill="black"/>
<path d="M40 16.2499C40.9889 16.2499 41.9556 15.9566 42.7779 15.4072C43.6001 14.8578 44.241 14.0769 44.6194 13.1633C44.9978 12.2497 45.0969 11.2443 44.9039 10.2744C44.711 9.30452 44.2348 8.41361 43.5355 7.71435C42.8363 7.01508 41.9454 6.53888 40.9755 6.34595C40.0055 6.15303 39.0002 6.25204 38.0866 6.63048C37.173 7.00892 36.3921 7.64978 35.8427 8.47203C35.2932 9.29427 35 10.261 35 11.2499C35 12.576 35.5268 13.8477 36.4645 14.7854C37.4021 15.7231 38.6739 16.2499 40 16.2499ZM40 8.74988C40.4945 8.74988 40.9778 8.8965 41.3889 9.17121C41.8001 9.44591 42.1205 9.83636 42.3097 10.2932C42.4989 10.75 42.5484 11.2527 42.452 11.7376C42.3555 12.2226 42.1174 12.668 41.7678 13.0176C41.4181 13.3673 40.9727 13.6054 40.4877 13.7018C40.0028 13.7983 39.5001 13.7488 39.0433 13.5596C38.5865 13.3704 38.196 13.0499 37.9213 12.6388C37.6466 12.2277 37.5 11.7443 37.5 11.2499C37.5 10.5868 37.7634 9.95095 38.2322 9.48211C38.7011 9.01327 39.337 8.74988 40 8.74988Z" fill="black"/>
<path d="M42.5 38.7498H45C45 37.7552 44.6049 36.8014 43.9016 36.0981C43.1984 35.3948 42.2446 34.9998 41.25 34.9998V33.7498H38.75V34.9998C37.7554 34.9998 36.8016 35.3948 36.0983 36.0981C35.3951 36.8014 35 37.7552 35 38.7498C35 39.7443 35.3951 40.6981 36.0983 41.4014C36.8016 42.1047 37.7554 42.4998 38.75 42.4998V44.9998C38.4185 44.9998 38.1005 44.8681 37.8661 44.6336C37.6317 44.3992 37.5 44.0813 37.5 43.7498H35C35 44.7443 35.3951 45.6981 36.0983 46.4014C36.8016 47.1047 37.7554 47.4998 38.75 47.4998V48.7498H41.25V47.4998C42.2446 47.4998 43.1984 47.1047 43.9016 46.4014C44.6049 45.6981 45 44.7443 45 43.7498C45 42.7552 44.6049 41.8014 43.9016 41.0981C43.1984 40.3948 42.2446 39.9998 41.25 39.9998V37.4998C41.5815 37.4998 41.8995 37.6315 42.1339 37.8659C42.3683 38.1003 42.5 38.4182 42.5 38.7498ZM42.5 43.7498C42.5 44.0813 42.3683 44.3992 42.1339 44.6336C41.8995 44.8681 41.5815 44.9998 41.25 44.9998V42.4998C41.5815 42.4998 41.8995 42.6315 42.1339 42.8659C42.3683 43.1003 42.5 43.4182 42.5 43.7498ZM38.75 39.9998C38.4185 39.9998 38.1005 39.8681 37.8661 39.6336C37.6317 39.3992 37.5 39.0813 37.5 38.7498C37.5 38.4182 37.6317 38.1003 37.8661 37.8659C38.1005 37.6315 38.4185 37.4998 38.75 37.4998V39.9998Z" fill="black"/>
</svg>
