<svg width="56" height="56" viewBox="0 0 56 56" fill="none" xmlns="http://www.w3.org/2000/svg">
<g clip-path="url(#clip0_614_631)">
<path d="M42.875 0H13.125C5.87626 0 0 5.87626 0 13.125V42.875C0 50.1237 5.87626 56 13.125 56H42.875C50.1237 56 56 50.1237 56 42.875V13.125C56 5.87626 50.1237 0 42.875 0Z" fill="white"/>
<path d="M49.6951 20.8104C48.7438 26.8078 45.7082 32.2713 41.1285 36.2289C36.5487 40.1865 30.7216 42.3815 24.684 42.4235C23.4611 42.4707 22.2366 42.396 21.0284 42.2003C18.5015 41.7688 16.1981 40.4788 14.5025 38.5455C12.8068 36.6122 11.8214 34.1526 11.7106 31.5769C11.7359 28.7047 12.8828 25.9577 14.9037 23.9285C16.9247 21.8993 19.6577 20.7506 22.5131 20.7304C25.3685 20.7101 28.1174 21.8198 30.1666 23.8201C32.2159 25.8203 33.4012 28.5508 33.4668 31.4224C33.5126 33.236 32.7314 34.8273 31.1256 34.8733C29.4104 34.8733 28.6063 33.6419 28.6063 31.9828V27.3723C28.607 26.6266 28.3145 25.9109 27.7926 25.3813C27.2706 24.8517 26.5617 24.5513 25.8203 24.5456H21.9779C20.8602 24.5379 19.7585 24.8121 18.7734 25.343C17.7883 25.874 16.9511 26.6448 16.3384 27.5851C15.7258 28.5253 15.3571 29.605 15.2661 30.7255C15.1752 31.846 15.3648 32.9715 15.8177 33.9993C16.2706 35.027 16.9724 35.9243 17.8588 36.6089C18.7453 37.2936 19.7882 37.7439 20.8922 37.9187C21.9963 38.0935 23.1263 37.9872 24.1789 37.6096C25.2316 37.2319 26.1734 36.5949 26.9183 35.7568L27.0527 35.5552L27.1873 35.7789C27.6494 36.4104 28.2596 36.9173 28.9635 37.2545C29.6674 37.5916 30.4432 37.7485 31.2219 37.7114C32.6099 37.6099 33.9035 36.9667 34.8265 35.9191C35.7496 34.8715 36.2289 33.5024 36.1622 32.1041C36.1757 30.9043 36.0421 29.7074 35.7643 28.5405C35.0518 25.244 33.1512 22.3294 30.429 20.3588C27.7068 18.3882 24.3558 17.501 21.0219 17.8683C17.6879 18.2355 14.6072 19.8313 12.3736 22.3479C10.14 24.8644 8.91158 28.1237 8.92526 31.4972C8.96815 35.0744 10.3878 38.4955 12.8859 41.0418C15.384 43.5881 18.7661 45.0612 22.3214 45.1517C22.3214 45.1517 23.3279 45.2439 24.4622 45.2175C29.9768 45.1824 35.3669 43.5649 39.9991 40.555C40.0651 40.5089 40.131 40.6011 40.0871 40.6682C37.8319 43.1117 35.0741 45.0313 32.006 46.2933C28.9379 47.5553 25.6332 48.1294 22.322 47.9756C20.1573 48.0151 18.0071 47.6131 16.001 46.794C13.995 45.9748 12.1747 44.7554 10.6499 43.2093C9.12518 41.6632 7.92757 39.8225 7.12934 37.7981C6.33111 35.7737 5.94881 33.6077 6.0055 31.4307C6.00651 28.8352 6.60939 26.2757 7.76623 23.9557C8.92307 21.6356 10.602 19.619 12.6695 18.0661C15.4479 16.0081 18.8055 14.8932 22.256 14.8828H27.4131C29.4276 14.8813 31.4198 14.4578 33.2627 13.6394C35.1056 12.821 36.7588 11.6256 38.1172 10.1292C38.1459 10.0971 38.1841 10.0751 38.2261 10.0665C38.2681 10.0574 38.3118 10.0618 38.3511 10.0791C38.3904 10.0963 38.4234 10.1256 38.4452 10.1628C38.4673 10.2001 38.4772 10.2434 38.4736 10.2867C38.2551 12.6182 37.4834 14.8628 36.2234 16.832C36.2045 16.8662 36.1961 16.9053 36.1992 16.9443C36.2023 16.9831 36.2165 17.0202 36.24 17.0511C36.2636 17.082 36.2955 17.1055 36.3319 17.1186C36.3684 17.1316 36.4078 17.1338 36.4454 17.1247C38.826 16.5838 41.0471 15.4884 42.93 13.9267C44.813 12.3649 46.3052 10.3804 47.2866 8.13275C47.3115 8.09253 47.3459 8.05914 47.3867 8.03557C47.4279 8.01225 47.4743 8 47.5215 8C47.5687 8 47.6151 8.01225 47.6562 8.03557C47.6972 8.05902 47.7316 8.09244 47.7563 8.13275C49.7775 12.027 50.4593 16.4851 49.6951 20.8104ZM22.3082 27.3146C21.5148 27.3145 20.7392 27.551 20.0795 27.9943C19.4197 28.4377 18.9055 29.0678 18.6018 29.8051C18.2981 30.5424 18.2186 31.3537 18.3734 32.1365C18.5281 32.9192 18.9102 33.6382 19.4712 34.2026C20.0322 34.7669 20.747 35.1512 21.5251 35.3069C22.3033 35.4626 23.1099 35.3827 23.8429 35.0773C24.5759 34.7718 25.2024 34.2546 25.6431 33.591C26.0839 32.9274 26.3191 32.1472 26.319 31.3491V27.5825C26.3155 27.5105 26.2854 27.4423 26.2347 27.3913C26.184 27.3403 26.1162 27.31 26.0446 27.3065L22.3082 27.3146Z" fill="black"/>
</g>
<defs>
<clipPath id="clip0_614_631">
<rect width="56" height="56" fill="white"/>
</clipPath>
</defs>
</svg>
