<svg width="56" height="56" viewBox="0 0 56 56" fill="none" xmlns="http://www.w3.org/2000/svg">
<g clip-path="url(#clip0_3187_145)">
<path d="M55.6127 18.9022C54.402 26.4909 50.5384 33.4041 44.7093 38.4116C38.8801 43.4191 31.4635 46.1963 23.779 46.2489C22.2227 46.3095 20.6642 46.2157 19.1263 45.9689C15.9104 45.4227 12.9789 43.7903 10.821 41.344C8.66304 38.8978 7.4091 35.7856 7.26833 32.5266C7.2822 28.8805 8.73366 25.3871 11.3076 22.8047C13.8816 20.2223 17.3702 18.7594 21.0162 18.7336C24.6622 18.7078 28.1712 20.1211 30.7815 22.6668C33.3917 25.2125 34.8925 28.6851 34.958 32.3306C35.0163 34.6242 34.0223 36.6379 31.9783 36.6962C29.7943 36.6962 28.7723 35.1376 28.7723 33.0399V27.2066C28.7736 26.2627 28.4013 25.3568 27.7368 24.6866C27.0722 24.0163 26.1695 23.6363 25.2257 23.6296H20.335C18.9128 23.6202 17.511 23.9674 16.2575 24.6393C15.004 25.3112 13.9389 26.2865 13.1594 27.4761C12.3799 28.6657 11.9109 30.0316 11.7952 31.4491C11.6796 32.8666 11.9209 34.2905 12.4972 35.5907C13.0736 36.8909 13.9665 38.026 15.0944 38.8923C16.2224 39.7585 17.5494 40.3283 18.9543 40.5497C20.3592 40.771 21.7972 40.6368 23.1368 40.1593C24.4765 39.6818 25.6752 38.8763 26.6233 37.8162L26.7937 37.5596L26.9663 37.8419C27.5543 38.6409 28.3305 39.2822 29.2261 39.7088C30.1217 40.1354 31.1088 40.3341 32.0997 40.2872C33.866 40.159 35.5123 39.3454 36.6872 38.0201C37.862 36.6949 38.4724 34.9629 38.388 33.1939C38.4054 31.6754 38.2353 30.1605 37.8817 28.6836C36.9773 24.51 34.5593 20.8193 31.0941 18.3235C27.6289 15.8277 23.3621 14.7038 19.1171 15.1686C14.872 15.6335 10.9496 17.654 8.10654 20.8405C5.26352 24.027 3.70142 28.1535 3.72166 32.4239C3.77579 36.9507 5.58275 41.2802 8.76271 44.5024C11.9427 47.7245 16.248 49.5884 20.7737 49.7022C20.7737 49.7022 22.0547 49.8189 23.4967 49.7839C30.5154 49.7398 37.3757 47.6935 43.2717 43.8852C43.3557 43.8269 43.4397 43.9436 43.3837 44.0276C40.5133 47.1194 37.0036 49.5483 33.0988 51.1453C29.1939 52.7423 24.9879 53.4689 20.7737 53.2746C18.0185 53.3247 15.2818 52.8162 12.7285 51.7797C10.1752 50.7432 7.85841 49.2002 5.91777 47.2439C3.97712 45.2876 2.45289 42.9584 1.43702 40.3968C0.421143 37.8353 -0.0653129 35.0946 0.00699538 32.3399C0.00834724 29.0559 0.775708 25.8175 2.24809 22.882C3.72047 19.9466 5.85727 17.395 8.48866 15.4302C12.0249 12.8264 16.2982 11.4159 20.6897 11.4029H27.2533C29.8174 11.401 32.3531 10.8651 34.6987 9.82947C37.0444 8.79383 39.1487 7.28108 40.8777 5.38757C40.914 5.34723 40.9622 5.31945 41.0153 5.30823C41.0691 5.29679 41.1251 5.30258 41.1753 5.32478C41.2256 5.34698 41.2676 5.38447 41.2953 5.4319C41.3229 5.47912 41.3352 5.53375 41.3303 5.58823C41.0524 8.53789 40.0705 11.3778 38.4673 13.8692C38.4429 13.9117 38.4316 13.9604 38.4347 14.0092C38.4386 14.0587 38.4568 14.106 38.487 14.1453C38.5172 14.1846 38.5582 14.2144 38.605 14.2309C38.6513 14.248 38.7016 14.2512 38.7497 14.2402C41.7793 13.5558 44.606 12.1698 47.0023 10.1937C49.3987 8.21768 51.2977 5.70672 52.5467 2.8629C52.5785 2.81162 52.6226 2.76911 52.675 2.73923C52.7274 2.7098 52.7864 2.69434 52.8465 2.69434C52.9066 2.69434 52.9656 2.7098 53.018 2.73923C53.0697 2.76926 53.113 2.81178 53.144 2.8629C55.716 7.78904 56.5841 13.4306 55.6127 18.9022ZM20.755 27.1319C19.7453 27.1319 18.7582 27.4313 17.9186 27.9923C17.0791 28.5533 16.4247 29.3506 16.0383 30.2835C15.6519 31.2164 15.5508 32.2429 15.7478 33.2332C15.9447 34.2236 16.431 35.1333 17.145 35.8472C17.859 36.5612 18.7687 37.0475 19.759 37.2445C20.7493 37.4415 21.7758 37.3404 22.7087 36.9539C23.6416 36.5675 24.4389 35.9132 24.9999 35.0736C25.5609 34.234 25.8603 33.247 25.8603 32.2372V27.4726C25.8558 27.3812 25.8175 27.2948 25.7528 27.2301C25.6881 27.1654 25.6017 27.1271 25.5103 27.1226L20.755 27.1319Z" fill="white"/>
</g>
<defs>
<clipPath id="clip0_3187_145">
<rect width="56" height="56" fill="white"/>
</clipPath>
</defs>
</svg>
