<svg width="40" height="40" viewBox="0 0 40 40" fill="none" xmlns="http://www.w3.org/2000/svg">
<g id="communication">
<mask id="mask0_2540_3037" style="mask-type:alpha" maskUnits="userSpaceOnUse" x="0" y="0" width="40" height="40">
<rect id="Bounding box" width="40" height="40" fill="#D9D9D9"/>
</mask>
<g mask="url(#mask0_2540_3037)">
<path id="3p" d="M13.3334 23.3334H26.6667V22.4167C26.6667 21.1945 26.0556 20.2084 24.8334 19.4584C23.6112 18.7084 22 18.3334 20 18.3334C18 18.3334 16.3889 18.7084 15.1667 19.4584C13.9445 20.2084 13.3334 21.1945 13.3334 22.4167V23.3334ZM20 16.6667C20.9167 16.6667 21.7014 16.3403 22.3542 15.6875C23.007 15.0348 23.3334 14.25 23.3334 13.3334C23.3334 12.4167 23.007 11.632 22.3542 10.9792C21.7014 10.3264 20.9167 10 20 10C19.0834 10 18.2987 10.3264 17.6459 10.9792C16.9931 11.632 16.6667 12.4167 16.6667 13.3334C16.6667 14.25 16.9931 15.0348 17.6459 15.6875C18.2987 16.3403 19.0834 16.6667 20 16.6667ZM3.33337 36.6667V6.66671C3.33337 5.75004 3.65976 4.96532 4.31254 4.31254C4.96532 3.65976 5.75004 3.33337 6.66671 3.33337H33.3334C34.25 3.33337 35.0348 3.65976 35.6875 4.31254C36.3403 4.96532 36.6667 5.75004 36.6667 6.66671V26.6667C36.6667 27.5834 36.3403 28.3681 35.6875 29.0209C35.0348 29.6737 34.25 30 33.3334 30H10L3.33337 36.6667ZM8.58337 26.6667H33.3334V6.66671H6.66671V28.5417L8.58337 26.6667Z" fill="#1C1B1F"/>
</g>
</g>
</svg>
