<svg width="387" height="215" viewBox="0 0 387 215" fill="none" xmlns="http://www.w3.org/2000/svg">
<g filter="url(#filter0_d_710_1232)">
<path d="M28.4141 26.4863L29.7402 26.8213C29.4622 27.9105 28.9609 28.7422 28.2363 29.3164C27.5163 29.8861 26.6344 30.1709 25.5908 30.1709C24.5107 30.1709 23.6312 29.9521 22.9521 29.5146C22.2777 29.0726 21.7627 28.4346 21.4072 27.6006C21.0563 26.7666 20.8809 25.8711 20.8809 24.9141C20.8809 23.8704 21.0791 22.9613 21.4756 22.1865C21.8766 21.4072 22.444 20.8171 23.1777 20.416C23.916 20.0104 24.7272 19.8076 25.6113 19.8076C26.6139 19.8076 27.457 20.0628 28.1406 20.5732C28.8242 21.0837 29.3005 21.8014 29.5693 22.7266L28.2637 23.0342C28.0312 22.305 27.694 21.7741 27.252 21.4414C26.8099 21.1087 26.2539 20.9424 25.584 20.9424C24.8138 20.9424 24.1689 21.127 23.6494 21.4961C23.1344 21.8652 22.7721 22.362 22.5625 22.9863C22.3529 23.6061 22.248 24.2464 22.248 24.9072C22.248 25.7594 22.3711 26.5046 22.6172 27.1426C22.8678 27.776 23.2552 28.25 23.7793 28.5645C24.3034 28.8789 24.8708 29.0361 25.4814 29.0361C26.2243 29.0361 26.8532 28.8219 27.3682 28.3936C27.8831 27.9652 28.2318 27.3294 28.4141 26.4863ZM31.1963 30V19.9785H32.4268V30H31.1963ZM34.3477 21.3936V19.9785H35.5781V21.3936H34.3477ZM34.3477 30V22.7402H35.5781V30H34.3477ZM42.4277 27.6621L43.6992 27.8193C43.4987 28.5622 43.1273 29.1387 42.585 29.5488C42.0426 29.959 41.3499 30.1641 40.5068 30.1641C39.445 30.1641 38.6019 29.8382 37.9775 29.1865C37.3577 28.5303 37.0479 27.612 37.0479 26.4316C37.0479 25.2103 37.3623 24.2624 37.9912 23.5879C38.6201 22.9134 39.4359 22.5762 40.4385 22.5762C41.4092 22.5762 42.2021 22.9066 42.8174 23.5674C43.4326 24.2282 43.7402 25.1579 43.7402 26.3564C43.7402 26.4294 43.738 26.5387 43.7334 26.6846H38.3193C38.3649 27.4821 38.5905 28.0928 38.9961 28.5166C39.4017 28.9404 39.9076 29.1523 40.5137 29.1523C40.9648 29.1523 41.3499 29.0339 41.6689 28.7969C41.988 28.5599 42.2409 28.1816 42.4277 27.6621ZM38.3877 25.6729H42.4414C42.3867 25.0622 42.2318 24.6042 41.9766 24.2988C41.5846 23.8249 41.0765 23.5879 40.4521 23.5879C39.887 23.5879 39.4108 23.777 39.0234 24.1553C38.6406 24.5335 38.4287 25.0394 38.3877 25.6729ZM45.251 30V22.7402H46.3584V23.7725C46.8916 22.9749 47.6618 22.5762 48.6689 22.5762C49.1064 22.5762 49.5075 22.6559 49.8721 22.8154C50.2412 22.9704 50.5169 23.1755 50.6992 23.4307C50.8815 23.6859 51.0091 23.9889 51.082 24.3398C51.1276 24.5677 51.1504 24.9665 51.1504 25.5361V30H49.9199V25.584C49.9199 25.0827 49.8721 24.709 49.7764 24.4629C49.6807 24.2122 49.5098 24.014 49.2637 23.8682C49.0221 23.7178 48.7373 23.6426 48.4092 23.6426C47.8851 23.6426 47.4316 23.8089 47.0488 24.1416C46.6706 24.4743 46.4814 25.1055 46.4814 26.0352V30H45.251ZM55.7305 28.8994L55.9082 29.9863C55.5618 30.0592 55.252 30.0957 54.9785 30.0957C54.5319 30.0957 54.1855 30.0251 53.9395 29.8838C53.6934 29.7425 53.5202 29.5579 53.4199 29.3301C53.3197 29.0977 53.2695 28.6123 53.2695 27.874V23.6973H52.3672V22.7402H53.2695V20.9424L54.4932 20.2041V22.7402H55.7305V23.6973H54.4932V27.9424C54.4932 28.2933 54.5137 28.5189 54.5547 28.6191C54.6003 28.7194 54.6709 28.7992 54.7666 28.8584C54.8669 28.9176 55.0081 28.9473 55.1904 28.9473C55.3271 28.9473 55.5072 28.9313 55.7305 28.8994ZM56.4482 27.833L57.665 27.6416C57.7334 28.1292 57.9225 28.5029 58.2324 28.7627C58.5469 29.0225 58.9844 29.1523 59.5449 29.1523C60.11 29.1523 60.5293 29.0384 60.8027 28.8105C61.0762 28.5781 61.2129 28.307 61.2129 27.9971C61.2129 27.7191 61.0921 27.5003 60.8506 27.3408C60.682 27.2314 60.2627 27.0924 59.5928 26.9238C58.6904 26.696 58.0638 26.5 57.7129 26.3359C57.3665 26.1673 57.1022 25.9372 56.9199 25.6455C56.7422 25.3493 56.6533 25.0234 56.6533 24.668C56.6533 24.3444 56.7262 24.0459 56.8721 23.7725C57.0225 23.4945 57.2253 23.2643 57.4805 23.082C57.6719 22.9408 57.9316 22.8223 58.2598 22.7266C58.5924 22.6263 58.9479 22.5762 59.3262 22.5762C59.8958 22.5762 60.3949 22.6582 60.8232 22.8223C61.2562 22.9863 61.5752 23.2096 61.7803 23.4922C61.9854 23.7702 62.1266 24.1439 62.2041 24.6133L61.001 24.7773C60.9463 24.4036 60.7868 24.112 60.5225 23.9023C60.2627 23.6927 59.8936 23.5879 59.415 23.5879C58.8499 23.5879 58.4466 23.6813 58.2051 23.8682C57.9635 24.055 57.8428 24.2738 57.8428 24.5244C57.8428 24.6839 57.8929 24.8275 57.9932 24.9551C58.0934 25.0872 58.2507 25.1966 58.4648 25.2832C58.5879 25.3288 58.9502 25.4336 59.5518 25.5977C60.4222 25.8301 61.0283 26.0215 61.3701 26.1719C61.7165 26.3177 61.9876 26.5319 62.1836 26.8145C62.3796 27.097 62.4775 27.4479 62.4775 27.8672C62.4775 28.2773 62.3568 28.6647 62.1152 29.0293C61.8783 29.3893 61.5342 29.6696 61.083 29.8701C60.6318 30.0661 60.1214 30.1641 59.5518 30.1641C58.6084 30.1641 57.8883 29.9681 57.3916 29.5762C56.8994 29.1842 56.585 28.6032 56.4482 27.833ZM67.543 26.7803L68.7939 26.6709C68.8532 27.1722 68.9899 27.5846 69.2041 27.9082C69.4229 28.2272 69.7601 28.487 70.2158 28.6875C70.6715 28.8835 71.1842 28.9814 71.7539 28.9814C72.2598 28.9814 72.7064 28.9062 73.0938 28.7559C73.4811 28.6055 73.7682 28.4004 73.9551 28.1406C74.1465 27.8763 74.2422 27.5892 74.2422 27.2793C74.2422 26.9648 74.151 26.6914 73.9688 26.459C73.7865 26.222 73.4857 26.0238 73.0664 25.8643C72.7975 25.7594 72.2028 25.5977 71.2822 25.3789C70.3617 25.1556 69.7168 24.946 69.3477 24.75C68.8691 24.4993 68.5114 24.1895 68.2744 23.8203C68.042 23.4466 67.9258 23.0296 67.9258 22.5693C67.9258 22.0635 68.0693 21.5918 68.3564 21.1543C68.6436 20.7122 69.0628 20.3773 69.6143 20.1494C70.1657 19.9215 70.7786 19.8076 71.4531 19.8076C72.196 19.8076 72.8499 19.9284 73.415 20.1699C73.9847 20.4069 74.4222 20.7578 74.7275 21.2227C75.0329 21.6875 75.1969 22.2139 75.2197 22.8018L73.9482 22.8975C73.8799 22.264 73.6475 21.7855 73.251 21.4619C72.859 21.1383 72.278 20.9766 71.5078 20.9766C70.7057 20.9766 70.1201 21.1247 69.751 21.4209C69.3864 21.7126 69.2041 22.0658 69.2041 22.4805C69.2041 22.8405 69.334 23.1367 69.5938 23.3691C69.849 23.6016 70.5143 23.8408 71.5898 24.0869C72.6699 24.3285 73.4105 24.5404 73.8115 24.7227C74.3949 24.9915 74.8255 25.3333 75.1035 25.748C75.3815 26.1582 75.5205 26.6322 75.5205 27.1699C75.5205 27.7031 75.3678 28.2067 75.0625 28.6807C74.7572 29.1501 74.3174 29.5169 73.7432 29.7812C73.1735 30.041 72.5309 30.1709 71.8154 30.1709C70.9085 30.1709 70.1475 30.0387 69.5322 29.7744C68.9215 29.5101 68.4408 29.1136 68.0898 28.585C67.7435 28.0518 67.5612 27.4502 67.543 26.7803ZM82.1445 27.6621L83.416 27.8193C83.2155 28.5622 82.8441 29.1387 82.3018 29.5488C81.7594 29.959 81.0667 30.1641 80.2236 30.1641C79.1618 30.1641 78.3187 29.8382 77.6943 29.1865C77.0745 28.5303 76.7646 27.612 76.7646 26.4316C76.7646 25.2103 77.0791 24.2624 77.708 23.5879C78.3369 22.9134 79.1527 22.5762 80.1553 22.5762C81.126 22.5762 81.9189 22.9066 82.5342 23.5674C83.1494 24.2282 83.457 25.1579 83.457 26.3564C83.457 26.4294 83.4548 26.5387 83.4502 26.6846H78.0361C78.0817 27.4821 78.3073 28.0928 78.7129 28.5166C79.1185 28.9404 79.6243 29.1523 80.2305 29.1523C80.6816 29.1523 81.0667 29.0339 81.3857 28.7969C81.7048 28.5599 81.9577 28.1816 82.1445 27.6621ZM78.1045 25.6729H82.1582C82.1035 25.0622 81.9486 24.6042 81.6934 24.2988C81.3014 23.8249 80.7933 23.5879 80.1689 23.5879C79.6038 23.5879 79.1276 23.777 78.7402 24.1553C78.3574 24.5335 78.1455 25.0394 78.1045 25.6729ZM84.9541 30V22.7402H86.0615V23.8408C86.3441 23.3258 86.6038 22.9863 86.8408 22.8223C87.0824 22.6582 87.3467 22.5762 87.6338 22.5762C88.0485 22.5762 88.4701 22.7083 88.8984 22.9727L88.4746 24.1143C88.1738 23.9365 87.873 23.8477 87.5723 23.8477C87.3034 23.8477 87.0618 23.9297 86.8477 24.0938C86.6335 24.2533 86.4808 24.4766 86.3896 24.7637C86.2529 25.2012 86.1846 25.6797 86.1846 26.1992V30H84.9541ZM91.6465 30L88.8848 22.7402H90.1836L91.7422 27.0879C91.9108 27.5573 92.0658 28.0449 92.207 28.5508C92.3164 28.168 92.4691 27.7077 92.665 27.1699L94.2783 22.7402H95.543L92.7949 30H91.6465ZM101.6 27.6621L102.871 27.8193C102.671 28.5622 102.299 29.1387 101.757 29.5488C101.215 29.959 100.522 30.1641 99.6787 30.1641C98.6169 30.1641 97.7738 29.8382 97.1494 29.1865C96.5296 28.5303 96.2197 27.612 96.2197 26.4316C96.2197 25.2103 96.5342 24.2624 97.1631 23.5879C97.792 22.9134 98.6077 22.5762 99.6104 22.5762C100.581 22.5762 101.374 22.9066 101.989 23.5674C102.604 24.2282 102.912 25.1579 102.912 26.3564C102.912 26.4294 102.91 26.5387 102.905 26.6846H97.4912C97.5368 27.4821 97.7624 28.0928 98.168 28.5166C98.5736 28.9404 99.0794 29.1523 99.6855 29.1523C100.137 29.1523 100.522 29.0339 100.841 28.7969C101.16 28.5599 101.413 28.1816 101.6 27.6621ZM97.5596 25.6729H101.613C101.559 25.0622 101.404 24.6042 101.148 24.2988C100.757 23.8249 100.248 23.5879 99.624 23.5879C99.0589 23.5879 98.5827 23.777 98.1953 24.1553C97.8125 24.5335 97.6006 25.0394 97.5596 25.6729ZM109.133 30V29.084C108.673 29.804 107.996 30.1641 107.103 30.1641C106.524 30.1641 105.991 30.0046 105.503 29.6855C105.02 29.3665 104.644 28.9222 104.375 28.3525C104.111 27.7783 103.979 27.1198 103.979 26.377C103.979 25.6523 104.099 24.9961 104.341 24.4082C104.582 23.8158 104.945 23.3623 105.428 23.0479C105.911 22.7334 106.451 22.5762 107.048 22.5762C107.485 22.5762 107.875 22.6696 108.217 22.8564C108.559 23.0387 108.837 23.278 109.051 23.5742V19.9785H110.274V30H109.133ZM105.243 26.377C105.243 27.3066 105.439 28.0016 105.831 28.4619C106.223 28.9222 106.686 29.1523 107.219 29.1523C107.757 29.1523 108.212 28.9336 108.586 28.4961C108.964 28.054 109.153 27.3818 109.153 26.4795C109.153 25.486 108.962 24.7568 108.579 24.292C108.196 23.8271 107.725 23.5947 107.164 23.5947C106.617 23.5947 106.159 23.818 105.79 24.2646C105.425 24.7113 105.243 25.4154 105.243 26.377ZM120.959 26.0693V24.8936L125.204 24.8867V28.6055C124.552 29.125 123.88 29.5169 123.188 29.7812C122.495 30.041 121.784 30.1709 121.055 30.1709C120.07 30.1709 119.175 29.9613 118.368 29.542C117.566 29.1182 116.96 28.5075 116.55 27.71C116.14 26.9124 115.935 26.0215 115.935 25.0371C115.935 24.0618 116.137 23.1527 116.543 22.3096C116.953 21.4619 117.541 20.833 118.307 20.4229C119.072 20.0127 119.954 19.8076 120.952 19.8076C121.677 19.8076 122.331 19.9261 122.914 20.1631C123.502 20.3955 123.962 20.7214 124.295 21.1406C124.628 21.5599 124.881 22.1068 125.054 22.7812L123.857 23.1094C123.707 22.599 123.52 22.1979 123.297 21.9062C123.074 21.6146 122.755 21.3822 122.34 21.209C121.925 21.0312 121.465 20.9424 120.959 20.9424C120.353 20.9424 119.829 21.0358 119.387 21.2227C118.945 21.4049 118.587 21.6465 118.313 21.9473C118.045 22.248 117.835 22.5785 117.685 22.9385C117.429 23.5583 117.302 24.2305 117.302 24.9551C117.302 25.8483 117.454 26.5957 117.76 27.1973C118.07 27.7988 118.519 28.2454 119.106 28.5371C119.694 28.8288 120.319 28.9746 120.979 28.9746C121.554 28.9746 122.114 28.8652 122.661 28.6465C123.208 28.4232 123.623 28.1862 123.905 27.9355V26.0693H120.959ZM126.981 30V19.9785H128.212V30H126.981ZM129.668 26.3701C129.668 25.0257 130.042 24.0299 130.789 23.3828C131.413 22.8451 132.174 22.5762 133.072 22.5762C134.07 22.5762 134.886 22.9043 135.52 23.5605C136.153 24.2122 136.47 25.1146 136.47 26.2676C136.47 27.2018 136.328 27.9378 136.046 28.4756C135.768 29.0088 135.36 29.4235 134.822 29.7197C134.289 30.016 133.706 30.1641 133.072 30.1641C132.056 30.1641 131.233 29.8382 130.604 29.1865C129.98 28.5348 129.668 27.596 129.668 26.3701ZM130.933 26.3701C130.933 27.2998 131.135 27.9971 131.541 28.4619C131.947 28.9222 132.457 29.1523 133.072 29.1523C133.683 29.1523 134.191 28.9199 134.597 28.4551C135.002 27.9902 135.205 27.2816 135.205 26.3291C135.205 25.4313 135 24.7523 134.59 24.292C134.184 23.8271 133.678 23.5947 133.072 23.5947C132.457 23.5947 131.947 23.8249 131.541 24.2852C131.135 24.7454 130.933 25.4404 130.933 26.3701ZM139.054 30H137.912V19.9785H139.143V23.5537C139.662 22.902 140.325 22.5762 141.132 22.5762C141.578 22.5762 142 22.6673 142.396 22.8496C142.798 23.0273 143.126 23.2803 143.381 23.6084C143.641 23.932 143.843 24.3239 143.989 24.7842C144.135 25.2445 144.208 25.7367 144.208 26.2607C144.208 27.5049 143.9 28.4665 143.285 29.1455C142.67 29.8245 141.932 30.1641 141.07 30.1641C140.214 30.1641 139.541 29.8063 139.054 29.0908V30ZM139.04 26.3154C139.04 27.1859 139.159 27.8148 139.396 28.2021C139.783 28.8356 140.307 29.1523 140.968 29.1523C141.506 29.1523 141.97 28.9199 142.362 28.4551C142.754 27.9857 142.95 27.2884 142.95 26.3633C142.95 25.4154 142.761 24.7158 142.383 24.2646C142.009 23.8135 141.556 23.5879 141.022 23.5879C140.485 23.5879 140.02 23.8226 139.628 24.292C139.236 24.7568 139.04 25.4313 139.04 26.3154ZM150.449 29.1045C149.993 29.4919 149.554 29.7653 149.13 29.9248C148.711 30.0843 148.259 30.1641 147.776 30.1641C146.979 30.1641 146.366 29.9704 145.938 29.583C145.509 29.1911 145.295 28.6921 145.295 28.0859C145.295 27.7305 145.375 27.4069 145.534 27.1152C145.698 26.819 145.91 26.582 146.17 26.4043C146.434 26.2266 146.73 26.0921 147.059 26.001C147.3 25.9372 147.665 25.8757 148.152 25.8164C149.146 25.6979 149.877 25.5566 150.347 25.3926C150.351 25.224 150.354 25.1169 150.354 25.0713C150.354 24.57 150.237 24.2168 150.005 24.0117C149.69 23.7337 149.223 23.5947 148.604 23.5947C148.025 23.5947 147.596 23.6973 147.318 23.9023C147.045 24.1029 146.842 24.4606 146.71 24.9756L145.507 24.8115C145.616 24.2965 145.796 23.8818 146.047 23.5674C146.298 23.2484 146.66 23.0046 147.134 22.8359C147.608 22.6628 148.157 22.5762 148.781 22.5762C149.401 22.5762 149.905 22.6491 150.292 22.7949C150.679 22.9408 150.964 23.1253 151.146 23.3486C151.329 23.5674 151.456 23.8454 151.529 24.1826C151.57 24.3923 151.591 24.7705 151.591 25.3174V26.958C151.591 28.1019 151.616 28.8265 151.666 29.1318C151.721 29.4326 151.826 29.722 151.98 30H150.695C150.568 29.7448 150.486 29.4463 150.449 29.1045ZM150.347 26.3564C149.9 26.5387 149.23 26.6937 148.337 26.8213C147.831 26.8942 147.473 26.9762 147.264 27.0674C147.054 27.1585 146.892 27.293 146.778 27.4707C146.664 27.6439 146.607 27.8376 146.607 28.0518C146.607 28.3799 146.73 28.6533 146.977 28.8721C147.227 29.0908 147.592 29.2002 148.07 29.2002C148.544 29.2002 148.966 29.0977 149.335 28.8926C149.704 28.6829 149.975 28.3981 150.148 28.0381C150.281 27.7601 150.347 27.3499 150.347 26.8076V26.3564ZM153.478 30V19.9785H154.708V30H153.478ZM156.595 30V19.9785H157.825V30H156.595ZM159.685 32.7959L159.548 31.6406C159.817 31.7135 160.051 31.75 160.252 31.75C160.525 31.75 160.744 31.7044 160.908 31.6133C161.072 31.5221 161.207 31.3945 161.312 31.2305C161.389 31.1074 161.514 30.8021 161.688 30.3145C161.71 30.2461 161.747 30.1458 161.797 30.0137L159.042 22.7402H160.368L161.879 26.9443C162.075 27.4775 162.25 28.0381 162.405 28.626C162.547 28.0609 162.715 27.5094 162.911 26.9717L164.463 22.7402H165.693L162.932 30.123C162.635 30.9206 162.405 31.4697 162.241 31.7705C162.022 32.1761 161.772 32.4723 161.489 32.6592C161.207 32.8506 160.869 32.9463 160.478 32.9463C160.241 32.9463 159.976 32.8962 159.685 32.7959Z" fill="white"/>
</g>
<g filter="url(#filter1_d_710_1232)">
<path d="M39.2969 79H32.7109V54.1797C30.3047 56.4297 27.4688 58.0938 24.2031 59.1719V53.1953C25.9219 52.6328 27.7891 51.5703 29.8047 50.0078C31.8203 48.4297 33.2031 46.5938 33.9531 44.5H39.2969V79ZM60.2969 44.5C63.625 44.5 66.2266 45.6875 68.1016 48.0625C70.3359 50.875 71.4531 55.5391 71.4531 62.0547C71.4531 68.5547 70.3281 73.2266 68.0781 76.0703C66.2188 78.4141 63.625 79.5859 60.2969 79.5859C56.9531 79.5859 54.2578 78.3047 52.2109 75.7422C50.1641 73.1641 49.1406 68.5781 49.1406 61.9844C49.1406 55.5156 50.2656 50.8594 52.5156 48.0156C54.375 45.6719 56.9688 44.5 60.2969 44.5ZM60.2969 49.9609C59.5 49.9609 58.7891 50.2188 58.1641 50.7344C57.5391 51.2344 57.0547 52.1406 56.7109 53.4531C56.2578 55.1562 56.0312 58.0234 56.0312 62.0547C56.0312 66.0859 56.2344 68.8594 56.6406 70.375C57.0469 71.875 57.5547 72.875 58.1641 73.375C58.7891 73.875 59.5 74.125 60.2969 74.125C61.0938 74.125 61.8047 73.875 62.4297 73.375C63.0547 72.8594 63.5391 71.9453 63.8828 70.6328C64.3359 68.9453 64.5625 66.0859 64.5625 62.0547C64.5625 58.0234 64.3594 55.2578 63.9531 53.7578C63.5469 52.2422 63.0312 51.2344 62.4062 50.7344C61.7969 50.2188 61.0938 49.9609 60.2969 49.9609ZM87.0156 44.5C90.3438 44.5 92.9453 45.6875 94.8203 48.0625C97.0547 50.875 98.1719 55.5391 98.1719 62.0547C98.1719 68.5547 97.0469 73.2266 94.7969 76.0703C92.9375 78.4141 90.3438 79.5859 87.0156 79.5859C83.6719 79.5859 80.9766 78.3047 78.9297 75.7422C76.8828 73.1641 75.8594 68.5781 75.8594 61.9844C75.8594 55.5156 76.9844 50.8594 79.2344 48.0156C81.0938 45.6719 83.6875 44.5 87.0156 44.5ZM87.0156 49.9609C86.2188 49.9609 85.5078 50.2188 84.8828 50.7344C84.2578 51.2344 83.7734 52.1406 83.4297 53.4531C82.9766 55.1562 82.75 58.0234 82.75 62.0547C82.75 66.0859 82.9531 68.8594 83.3594 70.375C83.7656 71.875 84.2734 72.875 84.8828 73.375C85.5078 73.875 86.2188 74.125 87.0156 74.125C87.8125 74.125 88.5234 73.875 89.1484 73.375C89.7734 72.8594 90.2578 71.9453 90.6016 70.6328C91.0547 68.9453 91.2812 66.0859 91.2812 62.0547C91.2812 58.0234 91.0781 55.2578 90.6719 53.7578C90.2656 52.2422 89.75 51.2344 89.125 50.7344C88.5156 50.2188 87.8125 49.9609 87.0156 49.9609ZM111.555 74.0547V65.125H102.555V58.9609H111.555V50.0312H117.555V58.9609H126.578V65.125H117.555V74.0547H111.555Z" fill="white"/>
</g>
<g filter="url(#filter2_d_710_1232)">
<path d="M23.6299 135V126.161H20.3281V124.979H28.2715V126.161H24.9561V135H23.6299ZM32.8926 132.662L34.1641 132.819C33.9635 133.562 33.5921 134.139 33.0498 134.549C32.5075 134.959 31.8148 135.164 30.9717 135.164C29.9098 135.164 29.0667 134.838 28.4424 134.187C27.8226 133.53 27.5127 132.612 27.5127 131.432C27.5127 130.21 27.8271 129.262 28.4561 128.588C29.085 127.913 29.9007 127.576 30.9033 127.576C31.874 127.576 32.667 127.907 33.2822 128.567C33.8975 129.228 34.2051 130.158 34.2051 131.356C34.2051 131.429 34.2028 131.539 34.1982 131.685H28.7842C28.8298 132.482 29.0553 133.093 29.4609 133.517C29.8665 133.94 30.3724 134.152 30.9785 134.152C31.4297 134.152 31.8148 134.034 32.1338 133.797C32.4528 133.56 32.7057 133.182 32.8926 132.662ZM28.8525 130.673H32.9062C32.8516 130.062 32.6966 129.604 32.4414 129.299C32.0495 128.825 31.5413 128.588 30.917 128.588C30.3519 128.588 29.8757 128.777 29.4883 129.155C29.1055 129.534 28.8936 130.039 28.8525 130.673ZM40.4531 134.104C39.9974 134.492 39.5576 134.765 39.1338 134.925C38.7145 135.084 38.2633 135.164 37.7803 135.164C36.9827 135.164 36.3698 134.97 35.9414 134.583C35.513 134.191 35.2988 133.692 35.2988 133.086C35.2988 132.73 35.3786 132.407 35.5381 132.115C35.7021 131.819 35.9141 131.582 36.1738 131.404C36.4382 131.227 36.7344 131.092 37.0625 131.001C37.304 130.937 37.6686 130.876 38.1562 130.816C39.1497 130.698 39.8812 130.557 40.3506 130.393C40.3551 130.224 40.3574 130.117 40.3574 130.071C40.3574 129.57 40.2412 129.217 40.0088 129.012C39.6943 128.734 39.2272 128.595 38.6074 128.595C38.0286 128.595 37.6003 128.697 37.3223 128.902C37.0488 129.103 36.846 129.461 36.7139 129.976L35.5107 129.812C35.6201 129.297 35.8001 128.882 36.0508 128.567C36.3014 128.248 36.6637 128.005 37.1377 127.836C37.6117 127.663 38.1608 127.576 38.7852 127.576C39.4049 127.576 39.9085 127.649 40.2959 127.795C40.6833 127.941 40.9681 128.125 41.1504 128.349C41.3327 128.567 41.4603 128.845 41.5332 129.183C41.5742 129.392 41.5947 129.771 41.5947 130.317V131.958C41.5947 133.102 41.6198 133.826 41.6699 134.132C41.7246 134.433 41.8294 134.722 41.9844 135H40.6992C40.5716 134.745 40.4896 134.446 40.4531 134.104ZM40.3506 131.356C39.904 131.539 39.234 131.694 38.3408 131.821C37.835 131.894 37.4772 131.976 37.2676 132.067C37.0579 132.159 36.8962 132.293 36.7822 132.471C36.6683 132.644 36.6113 132.838 36.6113 133.052C36.6113 133.38 36.7344 133.653 36.9805 133.872C37.2311 134.091 37.5957 134.2 38.0742 134.2C38.5482 134.2 38.9697 134.098 39.3389 133.893C39.708 133.683 39.9792 133.398 40.1523 133.038C40.2845 132.76 40.3506 132.35 40.3506 131.808V131.356ZM43.5088 135V127.74H44.6094V128.759C44.8372 128.403 45.1403 128.118 45.5186 127.904C45.8968 127.686 46.3275 127.576 46.8105 127.576C47.3483 127.576 47.7881 127.688 48.1299 127.911C48.4762 128.134 48.7201 128.447 48.8613 128.848C49.4355 128 50.1829 127.576 51.1035 127.576C51.8236 127.576 52.3773 127.777 52.7646 128.178C53.152 128.574 53.3457 129.187 53.3457 130.017V135H52.1221V130.427C52.1221 129.935 52.0811 129.581 51.999 129.367C51.9215 129.148 51.778 128.973 51.5684 128.841C51.3587 128.709 51.1126 128.643 50.8301 128.643C50.3197 128.643 49.8958 128.813 49.5586 129.155C49.2214 129.493 49.0527 130.035 49.0527 130.782V135H47.8223V130.283C47.8223 129.736 47.722 129.326 47.5215 129.053C47.321 128.779 46.9928 128.643 46.5371 128.643C46.1908 128.643 45.8695 128.734 45.5732 128.916C45.2816 129.098 45.0697 129.365 44.9375 129.716C44.8053 130.067 44.7393 130.573 44.7393 131.233V135H43.5088ZM58.7734 131.78L60.0244 131.671C60.0837 132.172 60.2204 132.585 60.4346 132.908C60.6533 133.227 60.9906 133.487 61.4463 133.688C61.902 133.883 62.4147 133.981 62.9844 133.981C63.4902 133.981 63.9368 133.906 64.3242 133.756C64.7116 133.605 64.9987 133.4 65.1855 133.141C65.377 132.876 65.4727 132.589 65.4727 132.279C65.4727 131.965 65.3815 131.691 65.1992 131.459C65.0169 131.222 64.7161 131.024 64.2969 130.864C64.028 130.759 63.4333 130.598 62.5127 130.379C61.5921 130.156 60.9473 129.946 60.5781 129.75C60.0996 129.499 59.7419 129.189 59.5049 128.82C59.2725 128.447 59.1562 128.03 59.1562 127.569C59.1562 127.063 59.2998 126.592 59.5869 126.154C59.874 125.712 60.2933 125.377 60.8447 125.149C61.3962 124.922 62.0091 124.808 62.6836 124.808C63.4264 124.808 64.0804 124.928 64.6455 125.17C65.2152 125.407 65.6527 125.758 65.958 126.223C66.2633 126.688 66.4274 127.214 66.4502 127.802L65.1787 127.897C65.1104 127.264 64.8779 126.785 64.4814 126.462C64.0895 126.138 63.5085 125.977 62.7383 125.977C61.9362 125.977 61.3506 126.125 60.9814 126.421C60.6169 126.713 60.4346 127.066 60.4346 127.48C60.4346 127.84 60.5645 128.137 60.8242 128.369C61.0794 128.602 61.7448 128.841 62.8203 129.087C63.9004 129.328 64.641 129.54 65.042 129.723C65.6253 129.992 66.056 130.333 66.334 130.748C66.612 131.158 66.751 131.632 66.751 132.17C66.751 132.703 66.5983 133.207 66.293 133.681C65.9876 134.15 65.5479 134.517 64.9736 134.781C64.404 135.041 63.7614 135.171 63.0459 135.171C62.139 135.171 61.3779 135.039 60.7627 134.774C60.152 134.51 59.6712 134.114 59.3203 133.585C58.974 133.052 58.7917 132.45 58.7734 131.78ZM71.0918 133.899L71.2695 134.986C70.9232 135.059 70.6133 135.096 70.3398 135.096C69.8932 135.096 69.5469 135.025 69.3008 134.884C69.0547 134.743 68.8815 134.558 68.7812 134.33C68.681 134.098 68.6309 133.612 68.6309 132.874V128.697H67.7285V127.74H68.6309V125.942L69.8545 125.204V127.74H71.0918V128.697H69.8545V132.942C69.8545 133.293 69.875 133.519 69.916 133.619C69.9616 133.719 70.0322 133.799 70.1279 133.858C70.2282 133.918 70.3695 133.947 70.5518 133.947C70.6885 133.947 70.8685 133.931 71.0918 133.899ZM72.2881 135V127.74H73.3955V128.841C73.6781 128.326 73.9378 127.986 74.1748 127.822C74.4163 127.658 74.6807 127.576 74.9678 127.576C75.3825 127.576 75.804 127.708 76.2324 127.973L75.8086 129.114C75.5078 128.937 75.207 128.848 74.9062 128.848C74.6374 128.848 74.3958 128.93 74.1816 129.094C73.9674 129.253 73.8148 129.477 73.7236 129.764C73.5869 130.201 73.5186 130.68 73.5186 131.199V135H72.2881ZM81.9336 132.662L83.2051 132.819C83.0046 133.562 82.6331 134.139 82.0908 134.549C81.5485 134.959 80.8558 135.164 80.0127 135.164C78.9508 135.164 78.1077 134.838 77.4834 134.187C76.8636 133.53 76.5537 132.612 76.5537 131.432C76.5537 130.21 76.8682 129.262 77.4971 128.588C78.126 127.913 78.9417 127.576 79.9443 127.576C80.915 127.576 81.708 127.907 82.3232 128.567C82.9385 129.228 83.2461 130.158 83.2461 131.356C83.2461 131.429 83.2438 131.539 83.2393 131.685H77.8252C77.8708 132.482 78.0964 133.093 78.502 133.517C78.9076 133.94 79.4134 134.152 80.0195 134.152C80.4707 134.152 80.8558 134.034 81.1748 133.797C81.4938 133.56 81.7467 133.182 81.9336 132.662ZM77.8936 130.673H81.9473C81.8926 130.062 81.7376 129.604 81.4824 129.299C81.0905 128.825 80.5824 128.588 79.958 128.588C79.3929 128.588 78.9167 128.777 78.5293 129.155C78.1465 129.534 77.9346 130.039 77.8936 130.673ZM84.7568 135V127.74H85.8643V128.772C86.3975 127.975 87.1676 127.576 88.1748 127.576C88.6123 127.576 89.0133 127.656 89.3779 127.815C89.7471 127.97 90.0228 128.175 90.2051 128.431C90.3874 128.686 90.515 128.989 90.5879 129.34C90.6335 129.568 90.6562 129.966 90.6562 130.536V135H89.4258V130.584C89.4258 130.083 89.3779 129.709 89.2822 129.463C89.1865 129.212 89.0156 129.014 88.7695 128.868C88.528 128.718 88.2432 128.643 87.915 128.643C87.391 128.643 86.9375 128.809 86.5547 129.142C86.1764 129.474 85.9873 130.105 85.9873 131.035V135H84.7568ZM92.3242 135.602L93.5205 135.779C93.5706 136.148 93.7096 136.417 93.9375 136.586C94.2428 136.814 94.6598 136.928 95.1885 136.928C95.7581 136.928 96.1979 136.814 96.5078 136.586C96.8177 136.358 97.0273 136.039 97.1367 135.629C97.2005 135.378 97.2301 134.852 97.2256 134.05C96.6878 134.683 96.0179 135 95.2158 135C94.2178 135 93.4453 134.64 92.8984 133.92C92.3516 133.2 92.0781 132.336 92.0781 131.329C92.0781 130.636 92.2035 129.998 92.4541 129.415C92.7048 128.827 93.0671 128.374 93.541 128.055C94.0195 127.736 94.5801 127.576 95.2227 127.576C96.0794 127.576 96.7858 127.923 97.3418 128.615V127.74H98.4766V134.016C98.4766 135.146 98.3604 135.946 98.1279 136.415C97.9001 136.889 97.5355 137.263 97.0342 137.536C96.5374 137.81 95.9245 137.946 95.1953 137.946C94.3294 137.946 93.6299 137.75 93.0967 137.358C92.5635 136.971 92.306 136.385 92.3242 135.602ZM93.3428 131.24C93.3428 132.193 93.5319 132.888 93.9102 133.325C94.2884 133.763 94.7624 133.981 95.332 133.981C95.8971 133.981 96.3711 133.765 96.7539 133.332C97.1367 132.895 97.3281 132.211 97.3281 131.281C97.3281 130.393 97.1299 129.723 96.7334 129.271C96.3415 128.82 95.8675 128.595 95.3115 128.595C94.7646 128.595 94.2998 128.818 93.917 129.265C93.5342 129.707 93.3428 130.365 93.3428 131.24ZM103.029 133.899L103.207 134.986C102.861 135.059 102.551 135.096 102.277 135.096C101.831 135.096 101.484 135.025 101.238 134.884C100.992 134.743 100.819 134.558 100.719 134.33C100.618 134.098 100.568 133.612 100.568 132.874V128.697H99.666V127.74H100.568V125.942L101.792 125.204V127.74H103.029V128.697H101.792V132.942C101.792 133.293 101.812 133.519 101.854 133.619C101.899 133.719 101.97 133.799 102.065 133.858C102.166 133.918 102.307 133.947 102.489 133.947C102.626 133.947 102.806 133.931 103.029 133.899ZM104.239 135V124.979H105.47V128.574C106.044 127.909 106.769 127.576 107.644 127.576C108.181 127.576 108.648 127.683 109.045 127.897C109.441 128.107 109.724 128.399 109.893 128.772C110.066 129.146 110.152 129.688 110.152 130.399V135H108.922V130.399C108.922 129.784 108.787 129.338 108.519 129.06C108.254 128.777 107.878 128.636 107.391 128.636C107.026 128.636 106.682 128.731 106.358 128.923C106.039 129.11 105.812 129.365 105.675 129.688C105.538 130.012 105.47 130.459 105.47 131.028V135H104.239Z" fill="white"/>
</g>
<g filter="url(#filter3_d_710_1232)">
<path d="M22.0703 174.883L28.4453 174.109C28.6484 175.734 29.1953 176.977 30.0859 177.836C30.9766 178.695 32.0547 179.125 33.3203 179.125C34.6797 179.125 35.8203 178.609 36.7422 177.578C37.6797 176.547 38.1484 175.156 38.1484 173.406C38.1484 171.75 37.7031 170.438 36.8125 169.469C35.9219 168.5 34.8359 168.016 33.5547 168.016C32.7109 168.016 31.7031 168.18 30.5312 168.508L31.2578 163.141C33.0391 163.188 34.3984 162.805 35.3359 161.992C36.2734 161.164 36.7422 160.07 36.7422 158.711C36.7422 157.555 36.3984 156.633 35.7109 155.945C35.0234 155.258 34.1094 154.914 32.9688 154.914C31.8438 154.914 30.8828 155.305 30.0859 156.086C29.2891 156.867 28.8047 158.008 28.6328 159.508L22.5625 158.477C22.9844 156.398 23.6172 154.742 24.4609 153.508C25.3203 152.258 26.5078 151.281 28.0234 150.578C29.5547 149.859 31.2656 149.5 33.1562 149.5C36.3906 149.5 38.9844 150.531 40.9375 152.594C42.5469 154.281 43.3516 156.188 43.3516 158.312C43.3516 161.328 41.7031 163.734 38.4062 165.531C40.375 165.953 41.9453 166.898 43.1172 168.367C44.3047 169.836 44.8984 171.609 44.8984 173.688C44.8984 176.703 43.7969 179.273 41.5938 181.398C39.3906 183.523 36.6484 184.586 33.3672 184.586C30.2578 184.586 27.6797 183.695 25.6328 181.914C23.5859 180.117 22.3984 177.773 22.0703 174.883ZM60.1562 149.5C63.4844 149.5 66.0859 150.688 67.9609 153.062C70.1953 155.875 71.3125 160.539 71.3125 167.055C71.3125 173.555 70.1875 178.227 67.9375 181.07C66.0781 183.414 63.4844 184.586 60.1562 184.586C56.8125 184.586 54.1172 183.305 52.0703 180.742C50.0234 178.164 49 173.578 49 166.984C49 160.516 50.125 155.859 52.375 153.016C54.2344 150.672 56.8281 149.5 60.1562 149.5ZM60.1562 154.961C59.3594 154.961 58.6484 155.219 58.0234 155.734C57.3984 156.234 56.9141 157.141 56.5703 158.453C56.1172 160.156 55.8906 163.023 55.8906 167.055C55.8906 171.086 56.0938 173.859 56.5 175.375C56.9062 176.875 57.4141 177.875 58.0234 178.375C58.6484 178.875 59.3594 179.125 60.1562 179.125C60.9531 179.125 61.6641 178.875 62.2891 178.375C62.9141 177.859 63.3984 176.945 63.7422 175.633C64.1953 173.945 64.4219 171.086 64.4219 167.055C64.4219 163.023 64.2188 160.258 63.8125 158.758C63.4062 157.242 62.8906 156.234 62.2656 155.734C61.6562 155.219 60.9531 154.961 60.1562 154.961ZM84.6953 179.055V170.125H75.6953V163.961H84.6953V155.031H90.6953V163.961H99.7188V170.125H90.6953V179.055H84.6953Z" fill="white"/>
</g>
<g filter="url(#filter4_d_710_1232)">
<path d="M227.122 30V19.9785H230.902C231.568 19.9785 232.076 20.0104 232.427 20.0742C232.919 20.1562 233.331 20.3135 233.664 20.5459C233.997 20.7738 234.263 21.0951 234.464 21.5098C234.669 21.9245 234.771 22.3802 234.771 22.877C234.771 23.7292 234.5 24.4515 233.958 25.0439C233.416 25.6318 232.436 25.9258 231.019 25.9258H228.448V30H227.122ZM228.448 24.7432H231.039C231.896 24.7432 232.504 24.5837 232.864 24.2646C233.224 23.9456 233.404 23.4967 233.404 22.918C233.404 22.4987 233.297 22.141 233.083 21.8447C232.873 21.5439 232.595 21.3457 232.249 21.25C232.026 21.1908 231.613 21.1611 231.012 21.1611H228.448V24.7432ZM236.289 30V22.7402H237.396V23.8408C237.679 23.3258 237.939 22.9863 238.176 22.8223C238.417 22.6582 238.682 22.5762 238.969 22.5762C239.383 22.5762 239.805 22.7083 240.233 22.9727L239.81 24.1143C239.509 23.9365 239.208 23.8477 238.907 23.8477C238.638 23.8477 238.397 23.9297 238.183 24.0938C237.968 24.2533 237.816 24.4766 237.725 24.7637C237.588 25.2012 237.52 25.6797 237.52 26.1992V30H236.289ZM240.507 26.3701C240.507 25.0257 240.881 24.0299 241.628 23.3828C242.252 22.8451 243.013 22.5762 243.911 22.5762C244.909 22.5762 245.725 22.9043 246.358 23.5605C246.992 24.2122 247.309 25.1146 247.309 26.2676C247.309 27.2018 247.167 27.9378 246.885 28.4756C246.607 29.0088 246.199 29.4235 245.661 29.7197C245.128 30.016 244.545 30.1641 243.911 30.1641C242.895 30.1641 242.072 29.8382 241.443 29.1865C240.819 28.5348 240.507 27.596 240.507 26.3701ZM241.771 26.3701C241.771 27.2998 241.974 27.9971 242.38 28.4619C242.785 28.9222 243.296 29.1523 243.911 29.1523C244.522 29.1523 245.03 28.9199 245.436 28.4551C245.841 27.9902 246.044 27.2816 246.044 26.3291C246.044 25.4313 245.839 24.7523 245.429 24.292C245.023 23.8271 244.517 23.5947 243.911 23.5947C243.296 23.5947 242.785 23.8249 242.38 24.2852C241.974 24.7454 241.771 25.4404 241.771 26.3701ZM248.751 21.4072V19.9785H249.981V21.4072H248.751ZM247.192 32.8164L247.425 31.7705C247.671 31.8343 247.865 31.8662 248.006 31.8662C248.257 31.8662 248.443 31.7819 248.566 31.6133C248.689 31.4492 248.751 31.0345 248.751 30.3691V22.7402H249.981V30.3965C249.981 31.2897 249.865 31.9118 249.633 32.2627C249.337 32.7184 248.844 32.9463 248.156 32.9463C247.824 32.9463 247.502 32.903 247.192 32.8164ZM256.845 27.6621L258.116 27.8193C257.916 28.5622 257.544 29.1387 257.002 29.5488C256.46 29.959 255.767 30.1641 254.924 30.1641C253.862 30.1641 253.019 29.8382 252.395 29.1865C251.775 28.5303 251.465 27.612 251.465 26.4316C251.465 25.2103 251.779 24.2624 252.408 23.5879C253.037 22.9134 253.853 22.5762 254.855 22.5762C255.826 22.5762 256.619 22.9066 257.234 23.5674C257.85 24.2282 258.157 25.1579 258.157 26.3564C258.157 26.4294 258.155 26.5387 258.15 26.6846H252.736C252.782 27.4821 253.007 28.0928 253.413 28.5166C253.819 28.9404 254.325 29.1523 254.931 29.1523C255.382 29.1523 255.767 29.0339 256.086 28.7969C256.405 28.5599 256.658 28.1816 256.845 27.6621ZM252.805 25.6729H256.858C256.804 25.0622 256.649 24.6042 256.394 24.2988C256.002 23.8249 255.493 23.5879 254.869 23.5879C254.304 23.5879 253.828 23.777 253.44 24.1553C253.058 24.5335 252.846 25.0394 252.805 25.6729ZM264.405 27.3408L265.615 27.498C265.483 28.332 265.144 28.986 264.597 29.46C264.054 29.9294 263.387 30.1641 262.594 30.1641C261.6 30.1641 260.8 29.8405 260.194 29.1934C259.593 28.5417 259.292 27.6097 259.292 26.3975C259.292 25.6136 259.422 24.9277 259.682 24.3398C259.941 23.752 260.336 23.3122 260.864 23.0205C261.397 22.7243 261.976 22.5762 262.601 22.5762C263.389 22.5762 264.034 22.7767 264.535 23.1777C265.036 23.5742 265.358 24.1393 265.499 24.873L264.303 25.0576C264.189 24.57 263.986 24.2031 263.694 23.957C263.407 23.7109 263.059 23.5879 262.648 23.5879C262.029 23.5879 261.525 23.8112 261.138 24.2578C260.75 24.6999 260.557 25.4017 260.557 26.3633C260.557 27.3385 260.743 28.0472 261.117 28.4893C261.491 28.9313 261.979 29.1523 262.58 29.1523C263.063 29.1523 263.466 29.0042 263.79 28.708C264.114 28.4118 264.319 27.9561 264.405 27.3408ZM269.354 28.8994L269.532 29.9863C269.186 30.0592 268.876 30.0957 268.603 30.0957C268.156 30.0957 267.81 30.0251 267.563 29.8838C267.317 29.7425 267.144 29.5579 267.044 29.3301C266.944 29.0977 266.894 28.6123 266.894 27.874V23.6973H265.991V22.7402H266.894V20.9424L268.117 20.2041V22.7402H269.354V23.6973H268.117V27.9424C268.117 28.2933 268.138 28.5189 268.179 28.6191C268.224 28.7194 268.295 28.7992 268.391 28.8584C268.491 28.9176 268.632 28.9473 268.814 28.9473C268.951 28.9473 269.131 28.9313 269.354 28.8994ZM270.072 27.833L271.289 27.6416C271.357 28.1292 271.547 28.5029 271.856 28.7627C272.171 29.0225 272.608 29.1523 273.169 29.1523C273.734 29.1523 274.153 29.0384 274.427 28.8105C274.7 28.5781 274.837 28.307 274.837 27.9971C274.837 27.7191 274.716 27.5003 274.475 27.3408C274.306 27.2314 273.887 27.0924 273.217 26.9238C272.314 26.696 271.688 26.5 271.337 26.3359C270.991 26.1673 270.726 25.9372 270.544 25.6455C270.366 25.3493 270.277 25.0234 270.277 24.668C270.277 24.3444 270.35 24.0459 270.496 23.7725C270.646 23.4945 270.849 23.2643 271.104 23.082C271.296 22.9408 271.556 22.8223 271.884 22.7266C272.216 22.6263 272.572 22.5762 272.95 22.5762C273.52 22.5762 274.019 22.6582 274.447 22.8223C274.88 22.9863 275.199 23.2096 275.404 23.4922C275.609 23.7702 275.751 24.1439 275.828 24.6133L274.625 24.7773C274.57 24.4036 274.411 24.112 274.146 23.9023C273.887 23.6927 273.518 23.5879 273.039 23.5879C272.474 23.5879 272.071 23.6813 271.829 23.8682C271.588 24.055 271.467 24.2738 271.467 24.5244C271.467 24.6839 271.517 24.8275 271.617 24.9551C271.717 25.0872 271.875 25.1966 272.089 25.2832C272.212 25.3288 272.574 25.4336 273.176 25.5977C274.046 25.8301 274.652 26.0215 274.994 26.1719C275.34 26.3177 275.612 26.5319 275.808 26.8145C276.004 27.097 276.102 27.4479 276.102 27.8672C276.102 28.2773 275.981 28.6647 275.739 29.0293C275.502 29.3893 275.158 29.6696 274.707 29.8701C274.256 30.0661 273.745 30.1641 273.176 30.1641C272.232 30.1641 271.512 29.9681 271.016 29.5762C270.523 29.1842 270.209 28.6032 270.072 27.833ZM279.738 30L283.587 19.9785H285.016L289.117 30H287.606L286.438 26.9648H282.247L281.146 30H279.738ZM282.63 25.8848H286.027L284.981 23.1094C284.662 22.2663 284.425 21.5736 284.271 21.0312C284.143 21.6738 283.963 22.3118 283.73 22.9453L282.63 25.8848ZM294.757 27.3408L295.967 27.498C295.835 28.332 295.495 28.986 294.948 29.46C294.406 29.9294 293.738 30.1641 292.945 30.1641C291.952 30.1641 291.152 29.8405 290.546 29.1934C289.944 28.5417 289.644 27.6097 289.644 26.3975C289.644 25.6136 289.773 24.9277 290.033 24.3398C290.293 23.752 290.687 23.3122 291.216 23.0205C291.749 22.7243 292.328 22.5762 292.952 22.5762C293.741 22.5762 294.385 22.7767 294.887 23.1777C295.388 23.5742 295.709 24.1393 295.851 24.873L294.654 25.0576C294.54 24.57 294.338 24.2031 294.046 23.957C293.759 23.7109 293.41 23.5879 293 23.5879C292.38 23.5879 291.877 23.8112 291.489 24.2578C291.102 24.6999 290.908 25.4017 290.908 26.3633C290.908 27.3385 291.095 28.0472 291.469 28.4893C291.842 28.9313 292.33 29.1523 292.932 29.1523C293.415 29.1523 293.818 29.0042 294.142 28.708C294.465 28.4118 294.67 27.9561 294.757 27.3408ZM301.757 27.3408L302.967 27.498C302.835 28.332 302.495 28.986 301.948 29.46C301.406 29.9294 300.738 30.1641 299.945 30.1641C298.952 30.1641 298.152 29.8405 297.546 29.1934C296.944 28.5417 296.644 27.6097 296.644 26.3975C296.644 25.6136 296.773 24.9277 297.033 24.3398C297.293 23.752 297.687 23.3122 298.216 23.0205C298.749 22.7243 299.328 22.5762 299.952 22.5762C300.741 22.5762 301.385 22.7767 301.887 23.1777C302.388 23.5742 302.709 24.1393 302.851 24.873L301.654 25.0576C301.54 24.57 301.338 24.2031 301.046 23.957C300.759 23.7109 300.41 23.5879 300 23.5879C299.38 23.5879 298.877 23.8112 298.489 24.2578C298.102 24.6999 297.908 25.4017 297.908 26.3633C297.908 27.3385 298.095 28.0472 298.469 28.4893C298.842 28.9313 299.33 29.1523 299.932 29.1523C300.415 29.1523 300.818 29.0042 301.142 28.708C301.465 28.4118 301.67 27.9561 301.757 27.3408ZM303.562 26.3701C303.562 25.0257 303.935 24.0299 304.683 23.3828C305.307 22.8451 306.068 22.5762 306.966 22.5762C307.964 22.5762 308.78 22.9043 309.413 23.5605C310.047 24.2122 310.363 25.1146 310.363 26.2676C310.363 27.2018 310.222 27.9378 309.939 28.4756C309.661 29.0088 309.254 29.4235 308.716 29.7197C308.183 30.016 307.599 30.1641 306.966 30.1641C305.95 30.1641 305.127 29.8382 304.498 29.1865C303.874 28.5348 303.562 27.596 303.562 26.3701ZM304.826 26.3701C304.826 27.2998 305.029 27.9971 305.435 28.4619C305.84 28.9222 306.351 29.1523 306.966 29.1523C307.576 29.1523 308.085 28.9199 308.49 28.4551C308.896 27.9902 309.099 27.2816 309.099 26.3291C309.099 25.4313 308.894 24.7523 308.483 24.292C308.078 23.8271 307.572 23.5947 306.966 23.5947C306.351 23.5947 305.84 23.8249 305.435 24.2852C305.029 24.7454 304.826 25.4404 304.826 26.3701ZM311.812 30V22.7402H312.913V23.7588C313.141 23.4033 313.444 23.1185 313.822 22.9043C314.201 22.6855 314.631 22.5762 315.114 22.5762C315.652 22.5762 316.092 22.6878 316.434 22.9111C316.78 23.1344 317.024 23.4466 317.165 23.8477C317.739 23 318.487 22.5762 319.407 22.5762C320.127 22.5762 320.681 22.7767 321.068 23.1777C321.456 23.5742 321.649 24.1872 321.649 25.0166V30H320.426V25.4268C320.426 24.9346 320.385 24.5814 320.303 24.3672C320.225 24.1484 320.082 23.973 319.872 23.8408C319.662 23.7087 319.416 23.6426 319.134 23.6426C318.623 23.6426 318.2 23.8135 317.862 24.1553C317.525 24.4925 317.356 25.0348 317.356 25.7822V30H316.126V25.2832C316.126 24.7363 316.026 24.3262 315.825 24.0527C315.625 23.7793 315.297 23.6426 314.841 23.6426C314.494 23.6426 314.173 23.7337 313.877 23.916C313.585 24.0983 313.373 24.3649 313.241 24.7158C313.109 25.0667 313.043 25.5726 313.043 26.2334V30H311.812ZM323.475 32.7822V22.7402H324.596V23.6836C324.86 23.3145 325.159 23.0387 325.491 22.8564C325.824 22.6696 326.227 22.5762 326.701 22.5762C327.321 22.5762 327.868 22.7357 328.342 23.0547C328.816 23.3737 329.174 23.8249 329.415 24.4082C329.657 24.987 329.777 25.6227 329.777 26.3154C329.777 27.0583 329.643 27.7282 329.374 28.3252C329.11 28.9176 328.722 29.3734 328.212 29.6924C327.706 30.0068 327.173 30.1641 326.612 30.1641C326.202 30.1641 325.833 30.0775 325.505 29.9043C325.181 29.7311 324.915 29.5124 324.705 29.248V32.7822H323.475ZM324.589 26.4111C324.589 27.3454 324.778 28.0358 325.156 28.4824C325.535 28.929 325.993 29.1523 326.53 29.1523C327.077 29.1523 327.544 28.9222 327.932 28.4619C328.324 27.9971 328.52 27.2793 328.52 26.3086C328.52 25.3835 328.328 24.6908 327.945 24.2305C327.567 23.7702 327.114 23.54 326.585 23.54C326.061 23.54 325.596 23.7861 325.19 24.2783C324.789 24.766 324.589 25.4769 324.589 26.4111ZM331.24 30V19.9785H332.471V30H331.24ZM334.392 21.3936V19.9785H335.622V21.3936H334.392ZM334.392 30V22.7402H335.622V30H334.392ZM337.01 27.833L338.227 27.6416C338.295 28.1292 338.484 28.5029 338.794 28.7627C339.108 29.0225 339.546 29.1523 340.106 29.1523C340.672 29.1523 341.091 29.0384 341.364 28.8105C341.638 28.5781 341.774 28.307 341.774 27.9971C341.774 27.7191 341.654 27.5003 341.412 27.3408C341.243 27.2314 340.824 27.0924 340.154 26.9238C339.252 26.696 338.625 26.5 338.274 26.3359C337.928 26.1673 337.664 25.9372 337.481 25.6455C337.304 25.3493 337.215 25.0234 337.215 24.668C337.215 24.3444 337.288 24.0459 337.434 23.7725C337.584 23.4945 337.787 23.2643 338.042 23.082C338.233 22.9408 338.493 22.8223 338.821 22.7266C339.154 22.6263 339.509 22.5762 339.888 22.5762C340.457 22.5762 340.956 22.6582 341.385 22.8223C341.818 22.9863 342.137 23.2096 342.342 23.4922C342.547 23.7702 342.688 24.1439 342.766 24.6133L341.562 24.7773C341.508 24.4036 341.348 24.112 341.084 23.9023C340.824 23.6927 340.455 23.5879 339.977 23.5879C339.411 23.5879 339.008 23.6813 338.767 23.8682C338.525 24.055 338.404 24.2738 338.404 24.5244C338.404 24.6839 338.454 24.8275 338.555 24.9551C338.655 25.0872 338.812 25.1966 339.026 25.2832C339.149 25.3288 339.512 25.4336 340.113 25.5977C340.984 25.8301 341.59 26.0215 341.932 26.1719C342.278 26.3177 342.549 26.5319 342.745 26.8145C342.941 27.097 343.039 27.4479 343.039 27.8672C343.039 28.2773 342.918 28.6647 342.677 29.0293C342.44 29.3893 342.096 29.6696 341.645 29.8701C341.193 30.0661 340.683 30.1641 340.113 30.1641C339.17 30.1641 338.45 29.9681 337.953 29.5762C337.461 29.1842 337.146 28.6032 337.01 27.833ZM344.502 30V19.9785H345.732V23.5742C346.307 22.9089 347.031 22.5762 347.906 22.5762C348.444 22.5762 348.911 22.6833 349.308 22.8975C349.704 23.1071 349.987 23.3988 350.155 23.7725C350.328 24.1462 350.415 24.6885 350.415 25.3994V30H349.185V25.3994C349.185 24.7842 349.05 24.3376 348.781 24.0596C348.517 23.777 348.141 23.6357 347.653 23.6357C347.289 23.6357 346.945 23.7314 346.621 23.9229C346.302 24.1097 346.074 24.3649 345.938 24.6885C345.801 25.012 345.732 25.4587 345.732 26.0283V30H344.502ZM357.265 27.6621L358.536 27.8193C358.336 28.5622 357.964 29.1387 357.422 29.5488C356.88 29.959 356.187 30.1641 355.344 30.1641C354.282 30.1641 353.439 29.8382 352.814 29.1865C352.195 28.5303 351.885 27.612 351.885 26.4316C351.885 25.2103 352.199 24.2624 352.828 23.5879C353.457 22.9134 354.273 22.5762 355.275 22.5762C356.246 22.5762 357.039 22.9066 357.654 23.5674C358.27 24.2282 358.577 25.1579 358.577 26.3564C358.577 26.4294 358.575 26.5387 358.57 26.6846H353.156C353.202 27.4821 353.427 28.0928 353.833 28.5166C354.239 28.9404 354.744 29.1523 355.351 29.1523C355.802 29.1523 356.187 29.0339 356.506 28.7969C356.825 28.5599 357.078 28.1816 357.265 27.6621ZM353.225 25.6729H357.278C357.224 25.0622 357.069 24.6042 356.813 24.2988C356.422 23.8249 355.913 23.5879 355.289 23.5879C354.724 23.5879 354.248 23.777 353.86 24.1553C353.478 24.5335 353.266 25.0394 353.225 25.6729ZM364.798 30V29.084C364.338 29.804 363.661 30.1641 362.768 30.1641C362.189 30.1641 361.656 30.0046 361.168 29.6855C360.685 29.3665 360.309 28.9222 360.04 28.3525C359.776 27.7783 359.644 27.1198 359.644 26.377C359.644 25.6523 359.764 24.9961 360.006 24.4082C360.247 23.8158 360.61 23.3623 361.093 23.0479C361.576 22.7334 362.116 22.5762 362.713 22.5762C363.15 22.5762 363.54 22.6696 363.882 22.8564C364.224 23.0387 364.502 23.278 364.716 23.5742V19.9785H365.939V30H364.798ZM360.908 26.377C360.908 27.3066 361.104 28.0016 361.496 28.4619C361.888 28.9222 362.351 29.1523 362.884 29.1523C363.422 29.1523 363.877 28.9336 364.251 28.4961C364.629 28.054 364.818 27.3818 364.818 26.4795C364.818 25.486 364.627 24.7568 364.244 24.292C363.861 23.8271 363.39 23.5947 362.829 23.5947C362.282 23.5947 361.824 23.818 361.455 24.2646C361.09 24.7113 360.908 25.4154 360.908 26.377Z" fill="white"/>
</g>
<g filter="url(#filter5_d_710_1232)">
<path d="M245.297 79H238.711V54.1797C236.305 56.4297 233.469 58.0938 230.203 59.1719V53.1953C231.922 52.6328 233.789 51.5703 235.805 50.0078C237.82 48.4297 239.203 46.5938 239.953 44.5H245.297V79ZM255.258 70.1641L261.82 69.4844C262.008 70.9688 262.562 72.1484 263.484 73.0234C264.406 73.8828 265.469 74.3125 266.672 74.3125C268.047 74.3125 269.211 73.7578 270.164 72.6484C271.117 71.5234 271.594 69.8359 271.594 67.5859C271.594 65.4766 271.117 63.8984 270.164 62.8516C269.227 61.7891 268 61.2578 266.484 61.2578C264.594 61.2578 262.898 62.0938 261.398 63.7656L256.055 62.9922L259.43 45.1094H276.844V51.2734H264.422L263.391 57.1094C264.859 56.375 266.359 56.0078 267.891 56.0078C270.812 56.0078 273.289 57.0703 275.32 59.1953C277.352 61.3203 278.367 64.0781 278.367 67.4688C278.367 70.2969 277.547 72.8203 275.906 75.0391C273.672 78.0703 270.57 79.5859 266.602 79.5859C263.43 79.5859 260.844 78.7344 258.844 77.0312C256.844 75.3281 255.648 73.0391 255.258 70.1641ZM293.016 44.5C296.344 44.5 298.945 45.6875 300.82 48.0625C303.055 50.875 304.172 55.5391 304.172 62.0547C304.172 68.5547 303.047 73.2266 300.797 76.0703C298.938 78.4141 296.344 79.5859 293.016 79.5859C289.672 79.5859 286.977 78.3047 284.93 75.7422C282.883 73.1641 281.859 68.5781 281.859 61.9844C281.859 55.5156 282.984 50.8594 285.234 48.0156C287.094 45.6719 289.688 44.5 293.016 44.5ZM293.016 49.9609C292.219 49.9609 291.508 50.2188 290.883 50.7344C290.258 51.2344 289.773 52.1406 289.43 53.4531C288.977 55.1562 288.75 58.0234 288.75 62.0547C288.75 66.0859 288.953 68.8594 289.359 70.375C289.766 71.875 290.273 72.875 290.883 73.375C291.508 73.875 292.219 74.125 293.016 74.125C293.812 74.125 294.523 73.875 295.148 73.375C295.773 72.8594 296.258 71.9453 296.602 70.6328C297.055 68.9453 297.281 66.0859 297.281 62.0547C297.281 58.0234 297.078 55.2578 296.672 53.7578C296.266 52.2422 295.75 51.2344 295.125 50.7344C294.516 50.2188 293.812 49.9609 293.016 49.9609ZM317.555 74.0547V65.125H308.555V58.9609H317.555V50.0312H323.555V58.9609H332.578V65.125H323.555V74.0547H317.555Z" fill="white"/>
</g>
<g filter="url(#filter6_d_710_1232)">
<path d="M226.629 131.78L227.88 131.671C227.939 132.172 228.076 132.585 228.29 132.908C228.509 133.227 228.846 133.487 229.302 133.688C229.757 133.883 230.27 133.981 230.84 133.981C231.346 133.981 231.792 133.906 232.18 133.756C232.567 133.605 232.854 133.4 233.041 133.141C233.232 132.876 233.328 132.589 233.328 132.279C233.328 131.965 233.237 131.691 233.055 131.459C232.872 131.222 232.572 131.024 232.152 130.864C231.883 130.759 231.289 130.598 230.368 130.379C229.448 130.156 228.803 129.946 228.434 129.75C227.955 129.499 227.597 129.189 227.36 128.82C227.128 128.447 227.012 128.03 227.012 127.569C227.012 127.063 227.155 126.592 227.442 126.154C227.729 125.712 228.149 125.377 228.7 125.149C229.252 124.922 229.865 124.808 230.539 124.808C231.282 124.808 231.936 124.928 232.501 125.17C233.071 125.407 233.508 125.758 233.813 126.223C234.119 126.688 234.283 127.214 234.306 127.802L233.034 127.897C232.966 127.264 232.733 126.785 232.337 126.462C231.945 126.138 231.364 125.977 230.594 125.977C229.792 125.977 229.206 126.125 228.837 126.421C228.472 126.713 228.29 127.066 228.29 127.48C228.29 127.84 228.42 128.137 228.68 128.369C228.935 128.602 229.6 128.841 230.676 129.087C231.756 129.328 232.496 129.54 232.897 129.723C233.481 129.992 233.911 130.333 234.189 130.748C234.467 131.158 234.606 131.632 234.606 132.17C234.606 132.703 234.454 133.207 234.148 133.681C233.843 134.15 233.403 134.517 232.829 134.781C232.259 135.041 231.617 135.171 230.901 135.171C229.994 135.171 229.233 135.039 228.618 134.774C228.007 134.51 227.527 134.114 227.176 133.585C226.829 133.052 226.647 132.45 226.629 131.78ZM241.019 135V133.934C240.453 134.754 239.686 135.164 238.715 135.164C238.286 135.164 237.885 135.082 237.512 134.918C237.143 134.754 236.867 134.549 236.685 134.303C236.507 134.052 236.382 133.747 236.309 133.387C236.258 133.145 236.233 132.762 236.233 132.238V127.74H237.464V131.767C237.464 132.409 237.489 132.842 237.539 133.065C237.617 133.389 237.781 133.644 238.031 133.831C238.282 134.013 238.592 134.104 238.961 134.104C239.33 134.104 239.676 134.011 240 133.824C240.324 133.633 240.551 133.375 240.684 133.052C240.82 132.724 240.889 132.25 240.889 131.63V127.74H242.119V135H241.019ZM248.791 132.341L250.001 132.498C249.869 133.332 249.529 133.986 248.982 134.46C248.44 134.929 247.772 135.164 246.979 135.164C245.986 135.164 245.186 134.84 244.58 134.193C243.979 133.542 243.678 132.61 243.678 131.397C243.678 130.614 243.808 129.928 244.067 129.34C244.327 128.752 244.721 128.312 245.25 128.021C245.783 127.724 246.362 127.576 246.986 127.576C247.775 127.576 248.42 127.777 248.921 128.178C249.422 128.574 249.743 129.139 249.885 129.873L248.688 130.058C248.575 129.57 248.372 129.203 248.08 128.957C247.793 128.711 247.444 128.588 247.034 128.588C246.414 128.588 245.911 128.811 245.523 129.258C245.136 129.7 244.942 130.402 244.942 131.363C244.942 132.339 245.129 133.047 245.503 133.489C245.877 133.931 246.364 134.152 246.966 134.152C247.449 134.152 247.852 134.004 248.176 133.708C248.499 133.412 248.704 132.956 248.791 132.341ZM255.791 132.341L257.001 132.498C256.869 133.332 256.529 133.986 255.982 134.46C255.44 134.929 254.772 135.164 253.979 135.164C252.986 135.164 252.186 134.84 251.58 134.193C250.979 133.542 250.678 132.61 250.678 131.397C250.678 130.614 250.808 129.928 251.067 129.34C251.327 128.752 251.721 128.312 252.25 128.021C252.783 127.724 253.362 127.576 253.986 127.576C254.775 127.576 255.42 127.777 255.921 128.178C256.422 128.574 256.743 129.139 256.885 129.873L255.688 130.058C255.575 129.57 255.372 129.203 255.08 128.957C254.793 128.711 254.444 128.588 254.034 128.588C253.414 128.588 252.911 128.811 252.523 129.258C252.136 129.7 251.942 130.402 251.942 131.363C251.942 132.339 252.129 133.047 252.503 133.489C252.877 133.931 253.364 134.152 253.966 134.152C254.449 134.152 254.852 134.004 255.176 133.708C255.499 133.412 255.704 132.956 255.791 132.341ZM263.023 132.662L264.295 132.819C264.094 133.562 263.723 134.139 263.181 134.549C262.638 134.959 261.946 135.164 261.103 135.164C260.041 135.164 259.198 134.838 258.573 134.187C257.953 133.53 257.644 132.612 257.644 131.432C257.644 130.21 257.958 129.262 258.587 128.588C259.216 127.913 260.032 127.576 261.034 127.576C262.005 127.576 262.798 127.907 263.413 128.567C264.028 129.228 264.336 130.158 264.336 131.356C264.336 131.429 264.334 131.539 264.329 131.685H258.915C258.961 132.482 259.186 133.093 259.592 133.517C259.997 133.94 260.503 134.152 261.109 134.152C261.561 134.152 261.946 134.034 262.265 133.797C262.584 133.56 262.837 133.182 263.023 132.662ZM258.983 130.673H263.037C262.982 130.062 262.827 129.604 262.572 129.299C262.18 128.825 261.672 128.588 261.048 128.588C260.483 128.588 260.007 128.777 259.619 129.155C259.236 129.534 259.024 130.039 258.983 130.673ZM265.354 132.833L266.571 132.642C266.64 133.129 266.829 133.503 267.139 133.763C267.453 134.022 267.891 134.152 268.451 134.152C269.016 134.152 269.436 134.038 269.709 133.811C269.982 133.578 270.119 133.307 270.119 132.997C270.119 132.719 269.998 132.5 269.757 132.341C269.588 132.231 269.169 132.092 268.499 131.924C267.597 131.696 266.97 131.5 266.619 131.336C266.273 131.167 266.008 130.937 265.826 130.646C265.648 130.349 265.56 130.023 265.56 129.668C265.56 129.344 265.632 129.046 265.778 128.772C265.929 128.494 266.132 128.264 266.387 128.082C266.578 127.941 266.838 127.822 267.166 127.727C267.499 127.626 267.854 127.576 268.232 127.576C268.802 127.576 269.301 127.658 269.729 127.822C270.162 127.986 270.481 128.21 270.687 128.492C270.892 128.77 271.033 129.144 271.11 129.613L269.907 129.777C269.853 129.404 269.693 129.112 269.429 128.902C269.169 128.693 268.8 128.588 268.321 128.588C267.756 128.588 267.353 128.681 267.111 128.868C266.87 129.055 266.749 129.274 266.749 129.524C266.749 129.684 266.799 129.827 266.899 129.955C267 130.087 267.157 130.197 267.371 130.283C267.494 130.329 267.856 130.434 268.458 130.598C269.328 130.83 269.935 131.021 270.276 131.172C270.623 131.318 270.894 131.532 271.09 131.814C271.286 132.097 271.384 132.448 271.384 132.867C271.384 133.277 271.263 133.665 271.021 134.029C270.785 134.389 270.44 134.67 269.989 134.87C269.538 135.066 269.028 135.164 268.458 135.164C267.515 135.164 266.795 134.968 266.298 134.576C265.806 134.184 265.491 133.603 265.354 132.833ZM272.354 132.833L273.571 132.642C273.64 133.129 273.829 133.503 274.139 133.763C274.453 134.022 274.891 134.152 275.451 134.152C276.016 134.152 276.436 134.038 276.709 133.811C276.982 133.578 277.119 133.307 277.119 132.997C277.119 132.719 276.998 132.5 276.757 132.341C276.588 132.231 276.169 132.092 275.499 131.924C274.597 131.696 273.97 131.5 273.619 131.336C273.273 131.167 273.008 130.937 272.826 130.646C272.648 130.349 272.56 130.023 272.56 129.668C272.56 129.344 272.632 129.046 272.778 128.772C272.929 128.494 273.132 128.264 273.387 128.082C273.578 127.941 273.838 127.822 274.166 127.727C274.499 127.626 274.854 127.576 275.232 127.576C275.802 127.576 276.301 127.658 276.729 127.822C277.162 127.986 277.481 128.21 277.687 128.492C277.892 128.77 278.033 129.144 278.11 129.613L276.907 129.777C276.853 129.404 276.693 129.112 276.429 128.902C276.169 128.693 275.8 128.588 275.321 128.588C274.756 128.588 274.353 128.681 274.111 128.868C273.87 129.055 273.749 129.274 273.749 129.524C273.749 129.684 273.799 129.827 273.899 129.955C274 130.087 274.157 130.197 274.371 130.283C274.494 130.329 274.856 130.434 275.458 130.598C276.328 130.83 276.935 131.021 277.276 131.172C277.623 131.318 277.894 131.532 278.09 131.814C278.286 132.097 278.384 132.448 278.384 132.867C278.384 133.277 278.263 133.665 278.021 134.029C277.785 134.389 277.44 134.67 276.989 134.87C276.538 135.066 276.028 135.164 275.458 135.164C274.515 135.164 273.795 134.968 273.298 134.576C272.806 134.184 272.491 133.603 272.354 132.833ZM283.921 135V124.979H288.364C289.257 124.979 289.937 125.07 290.401 125.252C290.866 125.43 291.238 125.746 291.516 126.202C291.794 126.658 291.933 127.161 291.933 127.713C291.933 128.424 291.702 129.023 291.242 129.511C290.782 129.998 290.071 130.308 289.109 130.44C289.46 130.609 289.727 130.775 289.909 130.939C290.297 131.295 290.663 131.739 291.01 132.272L292.753 135H291.085L289.759 132.915C289.371 132.313 289.052 131.853 288.802 131.534C288.551 131.215 288.326 130.992 288.125 130.864C287.929 130.737 287.729 130.648 287.523 130.598C287.373 130.566 287.127 130.55 286.785 130.55H285.247V135H283.921ZM285.247 129.401H288.098C288.704 129.401 289.178 129.34 289.52 129.217C289.861 129.089 290.121 128.889 290.299 128.615C290.477 128.337 290.565 128.036 290.565 127.713C290.565 127.239 290.392 126.849 290.046 126.544C289.704 126.239 289.162 126.086 288.419 126.086H285.247V129.401ZM298.598 134.104C298.142 134.492 297.702 134.765 297.278 134.925C296.859 135.084 296.408 135.164 295.925 135.164C295.127 135.164 294.514 134.97 294.086 134.583C293.658 134.191 293.443 133.692 293.443 133.086C293.443 132.73 293.523 132.407 293.683 132.115C293.847 131.819 294.059 131.582 294.318 131.404C294.583 131.227 294.879 131.092 295.207 131.001C295.449 130.937 295.813 130.876 296.301 130.816C297.294 130.698 298.026 130.557 298.495 130.393C298.5 130.224 298.502 130.117 298.502 130.071C298.502 129.57 298.386 129.217 298.153 129.012C297.839 128.734 297.372 128.595 296.752 128.595C296.173 128.595 295.745 128.697 295.467 128.902C295.193 129.103 294.991 129.461 294.858 129.976L293.655 129.812C293.765 129.297 293.945 128.882 294.195 128.567C294.446 128.248 294.808 128.005 295.282 127.836C295.756 127.663 296.305 127.576 296.93 127.576C297.549 127.576 298.053 127.649 298.44 127.795C298.828 127.941 299.113 128.125 299.295 128.349C299.477 128.567 299.605 128.845 299.678 129.183C299.719 129.392 299.739 129.771 299.739 130.317V131.958C299.739 133.102 299.764 133.826 299.814 134.132C299.869 134.433 299.974 134.722 300.129 135H298.844C298.716 134.745 298.634 134.446 298.598 134.104ZM298.495 131.356C298.049 131.539 297.379 131.694 296.485 131.821C295.979 131.894 295.622 131.976 295.412 132.067C295.202 132.159 295.041 132.293 294.927 132.471C294.813 132.644 294.756 132.838 294.756 133.052C294.756 133.38 294.879 133.653 295.125 133.872C295.376 134.091 295.74 134.2 296.219 134.2C296.693 134.2 297.114 134.098 297.483 133.893C297.853 133.683 298.124 133.398 298.297 133.038C298.429 132.76 298.495 132.35 298.495 131.808V131.356ZM304.34 133.899L304.518 134.986C304.171 135.059 303.861 135.096 303.588 135.096C303.141 135.096 302.795 135.025 302.549 134.884C302.303 134.743 302.13 134.558 302.029 134.33C301.929 134.098 301.879 133.612 301.879 132.874V128.697H300.977V127.74H301.879V125.942L303.103 125.204V127.74H304.34V128.697H303.103V132.942C303.103 133.293 303.123 133.519 303.164 133.619C303.21 133.719 303.28 133.799 303.376 133.858C303.476 133.918 303.618 133.947 303.8 133.947C303.937 133.947 304.117 133.931 304.34 133.899ZM305.557 126.394V124.979H306.787V126.394H305.557ZM305.557 135V127.74H306.787V135H305.557ZM308.209 131.37C308.209 130.026 308.583 129.03 309.33 128.383C309.954 127.845 310.715 127.576 311.613 127.576C312.611 127.576 313.427 127.904 314.061 128.561C314.694 129.212 315.011 130.115 315.011 131.268C315.011 132.202 314.869 132.938 314.587 133.476C314.309 134.009 313.901 134.424 313.363 134.72C312.83 135.016 312.247 135.164 311.613 135.164C310.597 135.164 309.774 134.838 309.146 134.187C308.521 133.535 308.209 132.596 308.209 131.37ZM309.474 131.37C309.474 132.3 309.676 132.997 310.082 133.462C310.488 133.922 310.998 134.152 311.613 134.152C312.224 134.152 312.732 133.92 313.138 133.455C313.543 132.99 313.746 132.282 313.746 131.329C313.746 130.431 313.541 129.752 313.131 129.292C312.725 128.827 312.219 128.595 311.613 128.595C310.998 128.595 310.488 128.825 310.082 129.285C309.676 129.745 309.474 130.44 309.474 131.37Z" fill="white"/>
</g>
<g filter="url(#filter7_d_710_1232)">
<path d="M228.445 176.055L234.82 175.352C234.977 176.648 235.383 177.609 236.039 178.234C236.695 178.859 237.562 179.172 238.641 179.172C240 179.172 241.156 178.547 242.109 177.297C243.062 176.047 243.672 173.453 243.938 169.516C242.281 171.438 240.211 172.398 237.727 172.398C235.023 172.398 232.688 171.359 230.719 169.281C228.766 167.188 227.789 164.469 227.789 161.125C227.789 157.641 228.82 154.836 230.883 152.711C232.961 150.57 235.602 149.5 238.805 149.5C242.289 149.5 245.148 150.852 247.383 153.555C249.617 156.242 250.734 160.672 250.734 166.844C250.734 173.125 249.57 177.656 247.242 180.438C244.914 183.219 241.883 184.609 238.148 184.609C235.461 184.609 233.289 183.898 231.633 182.477C229.977 181.039 228.914 178.898 228.445 176.055ZM243.352 161.664C243.352 159.539 242.859 157.891 241.875 156.719C240.906 155.547 239.781 154.961 238.5 154.961C237.281 154.961 236.266 155.445 235.453 156.414C234.656 157.367 234.258 158.938 234.258 161.125C234.258 163.344 234.695 164.977 235.57 166.023C236.445 167.055 237.539 167.57 238.852 167.57C240.117 167.57 241.18 167.07 242.039 166.07C242.914 165.07 243.352 163.602 243.352 161.664ZM260.672 165.461C258.969 164.742 257.727 163.758 256.945 162.508C256.18 161.242 255.797 159.859 255.797 158.359C255.797 155.797 256.688 153.68 258.469 152.008C260.266 150.336 262.812 149.5 266.109 149.5C269.375 149.5 271.906 150.336 273.703 152.008C275.516 153.68 276.422 155.797 276.422 158.359C276.422 159.953 276.008 161.375 275.18 162.625C274.352 163.859 273.188 164.805 271.688 165.461C273.594 166.227 275.039 167.344 276.023 168.812C277.023 170.281 277.523 171.977 277.523 173.898C277.523 177.07 276.508 179.648 274.477 181.633C272.461 183.617 269.773 184.609 266.414 184.609C263.289 184.609 260.688 183.789 258.609 182.148C256.156 180.211 254.93 177.555 254.93 174.18C254.93 172.32 255.391 170.617 256.312 169.07C257.234 167.508 258.688 166.305 260.672 165.461ZM262.031 158.828C262.031 160.141 262.398 161.164 263.133 161.898C263.883 162.633 264.875 163 266.109 163C267.359 163 268.359 162.633 269.109 161.898C269.859 161.148 270.234 160.117 270.234 158.805C270.234 157.57 269.859 156.586 269.109 155.852C268.375 155.102 267.398 154.727 266.18 154.727C264.914 154.727 263.906 155.102 263.156 155.852C262.406 156.602 262.031 157.594 262.031 158.828ZM261.422 173.547C261.422 175.359 261.883 176.773 262.805 177.789C263.742 178.805 264.906 179.312 266.297 179.312C267.656 179.312 268.781 178.828 269.672 177.859C270.562 176.875 271.008 175.461 271.008 173.617C271.008 172.008 270.555 170.719 269.648 169.75C268.742 168.766 267.594 168.273 266.203 168.273C264.594 168.273 263.391 168.828 262.594 169.938C261.812 171.047 261.422 172.25 261.422 173.547ZM290.695 179.055V170.125H281.695V163.961H290.695V155.031H296.695V163.961H305.719V170.125H296.695V179.055H290.695Z" fill="white"/>
</g>
<defs>
<filter id="filter0_d_710_1232" x="19.8809" y="19.3076" width="146.812" height="15.1387" filterUnits="userSpaceOnUse" color-interpolation-filters="sRGB">
<feFlood flood-opacity="0" result="BackgroundImageFix"/>
<feColorMatrix in="SourceAlpha" type="matrix" values="0 0 0 0 0 0 0 0 0 0 0 0 0 0 0 0 0 0 127 0" result="hardAlpha"/>
<feOffset dy="0.5"/>
<feGaussianBlur stdDeviation="0.5"/>
<feComposite in2="hardAlpha" operator="out"/>
<feColorMatrix type="matrix" values="0 0 0 0 0 0 0 0 0 0 0 0 0 0 0 0 0 0 0.25 0"/>
<feBlend mode="normal" in2="BackgroundImageFix" result="effect1_dropShadow_710_1232"/>
<feBlend mode="normal" in="SourceGraphic" in2="effect1_dropShadow_710_1232" result="shape"/>
</filter>
<filter id="filter1_d_710_1232" x="23.2031" y="44.5" width="104.375" height="37.0859" filterUnits="userSpaceOnUse" color-interpolation-filters="sRGB">
<feFlood flood-opacity="0" result="BackgroundImageFix"/>
<feColorMatrix in="SourceAlpha" type="matrix" values="0 0 0 0 0 0 0 0 0 0 0 0 0 0 0 0 0 0 127 0" result="hardAlpha"/>
<feOffset dy="1"/>
<feGaussianBlur stdDeviation="0.5"/>
<feComposite in2="hardAlpha" operator="out"/>
<feColorMatrix type="matrix" values="0 0 0 0 0 0 0 0 0 0 0 0 0 0 0 0 0 0 0.25 0"/>
<feBlend mode="normal" in2="BackgroundImageFix" result="effect1_dropShadow_710_1232"/>
<feBlend mode="normal" in="SourceGraphic" in2="effect1_dropShadow_710_1232" result="shape"/>
</filter>
<filter id="filter2_d_710_1232" x="19.3281" y="124.308" width="91.8242" height="15.1387" filterUnits="userSpaceOnUse" color-interpolation-filters="sRGB">
<feFlood flood-opacity="0" result="BackgroundImageFix"/>
<feColorMatrix in="SourceAlpha" type="matrix" values="0 0 0 0 0 0 0 0 0 0 0 0 0 0 0 0 0 0 127 0" result="hardAlpha"/>
<feOffset dy="0.5"/>
<feGaussianBlur stdDeviation="0.5"/>
<feComposite in2="hardAlpha" operator="out"/>
<feColorMatrix type="matrix" values="0 0 0 0 0 0 0 0 0 0 0 0 0 0 0 0 0 0 0.25 0"/>
<feBlend mode="normal" in2="BackgroundImageFix" result="effect1_dropShadow_710_1232"/>
<feBlend mode="normal" in="SourceGraphic" in2="effect1_dropShadow_710_1232" result="shape"/>
</filter>
<filter id="filter3_d_710_1232" x="21.0703" y="149.5" width="79.6484" height="37.0859" filterUnits="userSpaceOnUse" color-interpolation-filters="sRGB">
<feFlood flood-opacity="0" result="BackgroundImageFix"/>
<feColorMatrix in="SourceAlpha" type="matrix" values="0 0 0 0 0 0 0 0 0 0 0 0 0 0 0 0 0 0 127 0" result="hardAlpha"/>
<feOffset dy="1"/>
<feGaussianBlur stdDeviation="0.5"/>
<feComposite in2="hardAlpha" operator="out"/>
<feColorMatrix type="matrix" values="0 0 0 0 0 0 0 0 0 0 0 0 0 0 0 0 0 0 0.25 0"/>
<feBlend mode="normal" in2="BackgroundImageFix" result="effect1_dropShadow_710_1232"/>
<feBlend mode="normal" in="SourceGraphic" in2="effect1_dropShadow_710_1232" result="shape"/>
</filter>
<filter id="filter4_d_710_1232" x="226.122" y="19.4785" width="140.817" height="14.9678" filterUnits="userSpaceOnUse" color-interpolation-filters="sRGB">
<feFlood flood-opacity="0" result="BackgroundImageFix"/>
<feColorMatrix in="SourceAlpha" type="matrix" values="0 0 0 0 0 0 0 0 0 0 0 0 0 0 0 0 0 0 127 0" result="hardAlpha"/>
<feOffset dy="0.5"/>
<feGaussianBlur stdDeviation="0.5"/>
<feComposite in2="hardAlpha" operator="out"/>
<feColorMatrix type="matrix" values="0 0 0 0 0 0 0 0 0 0 0 0 0 0 0 0 0 0 0.25 0"/>
<feBlend mode="normal" in2="BackgroundImageFix" result="effect1_dropShadow_710_1232"/>
<feBlend mode="normal" in="SourceGraphic" in2="effect1_dropShadow_710_1232" result="shape"/>
</filter>
<filter id="filter5_d_710_1232" x="229.203" y="44.5" width="104.375" height="37.0859" filterUnits="userSpaceOnUse" color-interpolation-filters="sRGB">
<feFlood flood-opacity="0" result="BackgroundImageFix"/>
<feColorMatrix in="SourceAlpha" type="matrix" values="0 0 0 0 0 0 0 0 0 0 0 0 0 0 0 0 0 0 127 0" result="hardAlpha"/>
<feOffset dy="1"/>
<feGaussianBlur stdDeviation="0.5"/>
<feComposite in2="hardAlpha" operator="out"/>
<feColorMatrix type="matrix" values="0 0 0 0 0 0 0 0 0 0 0 0 0 0 0 0 0 0 0.25 0"/>
<feBlend mode="normal" in2="BackgroundImageFix" result="effect1_dropShadow_710_1232"/>
<feBlend mode="normal" in="SourceGraphic" in2="effect1_dropShadow_710_1232" result="shape"/>
</filter>
<filter id="filter6_d_710_1232" x="225.629" y="124.308" width="90.3818" height="12.3633" filterUnits="userSpaceOnUse" color-interpolation-filters="sRGB">
<feFlood flood-opacity="0" result="BackgroundImageFix"/>
<feColorMatrix in="SourceAlpha" type="matrix" values="0 0 0 0 0 0 0 0 0 0 0 0 0 0 0 0 0 0 127 0" result="hardAlpha"/>
<feOffset dy="0.5"/>
<feGaussianBlur stdDeviation="0.5"/>
<feComposite in2="hardAlpha" operator="out"/>
<feColorMatrix type="matrix" values="0 0 0 0 0 0 0 0 0 0 0 0 0 0 0 0 0 0 0.25 0"/>
<feBlend mode="normal" in2="BackgroundImageFix" result="effect1_dropShadow_710_1232"/>
<feBlend mode="normal" in="SourceGraphic" in2="effect1_dropShadow_710_1232" result="shape"/>
</filter>
<filter id="filter7_d_710_1232" x="226.789" y="149.5" width="79.9297" height="37.1094" filterUnits="userSpaceOnUse" color-interpolation-filters="sRGB">
<feFlood flood-opacity="0" result="BackgroundImageFix"/>
<feColorMatrix in="SourceAlpha" type="matrix" values="0 0 0 0 0 0 0 0 0 0 0 0 0 0 0 0 0 0 127 0" result="hardAlpha"/>
<feOffset dy="1"/>
<feGaussianBlur stdDeviation="0.5"/>
<feComposite in2="hardAlpha" operator="out"/>
<feColorMatrix type="matrix" values="0 0 0 0 0 0 0 0 0 0 0 0 0 0 0 0 0 0 0.25 0"/>
<feBlend mode="normal" in2="BackgroundImageFix" result="effect1_dropShadow_710_1232"/>
<feBlend mode="normal" in="SourceGraphic" in2="effect1_dropShadow_710_1232" result="shape"/>
</filter>
</defs>
</svg>
