<svg width="286" height="182" viewBox="0 0 286 182" fill="none" xmlns="http://www.w3.org/2000/svg">
<g filter="url(#filter0_d_710_1232)">
<path d="M26.7539 26.2393L27.7959 26.5024C27.5775 27.3582 27.1836 28.0117 26.6143 28.4629C26.0485 28.9105 25.3556 29.1343 24.5356 29.1343C23.687 29.1343 22.9959 28.9624 22.4624 28.6187C21.9325 28.2713 21.5278 27.77 21.2485 27.1147C20.9728 26.4595 20.835 25.7559 20.835 25.0039C20.835 24.1839 20.9907 23.4696 21.3022 22.8608C21.6174 22.2485 22.0632 21.7848 22.6396 21.4697C23.2197 21.151 23.8571 20.9917 24.5518 20.9917C25.3395 20.9917 26.002 21.1922 26.5391 21.5933C27.0762 21.9943 27.4504 22.5583 27.6616 23.2852L26.6357 23.5269C26.4531 22.9539 26.1882 22.5368 25.8408 22.2754C25.4935 22.014 25.0566 21.8833 24.5303 21.8833C23.9251 21.8833 23.4185 22.0283 23.0103 22.3184C22.6056 22.6084 22.321 22.9987 22.1562 23.4893C21.9915 23.9762 21.9092 24.4793 21.9092 24.9985C21.9092 25.6681 22.0059 26.2536 22.1992 26.7549C22.3962 27.2526 22.7005 27.625 23.1123 27.8721C23.5241 28.1191 23.9699 28.2427 24.4497 28.2427C25.0334 28.2427 25.5275 28.0744 25.9321 27.7378C26.3368 27.4012 26.6107 26.9017 26.7539 26.2393ZM28.9399 29V21.126H29.9067V29H28.9399ZM31.416 22.2378V21.126H32.3828V22.2378H31.416ZM31.416 29V23.2959H32.3828V29H31.416ZM37.7646 27.1631L38.7637 27.2866C38.6061 27.8703 38.3143 28.3232 37.8882 28.6455C37.4621 28.9678 36.9178 29.1289 36.2554 29.1289C35.4211 29.1289 34.7586 28.8729 34.2681 28.3608C33.7811 27.8452 33.5376 27.1237 33.5376 26.1963C33.5376 25.2367 33.7847 24.4919 34.2788 23.9619C34.7729 23.432 35.4139 23.167 36.2017 23.167C36.9644 23.167 37.5874 23.4266 38.0708 23.9458C38.5542 24.465 38.7959 25.1955 38.7959 26.1372C38.7959 26.1945 38.7941 26.2804 38.7905 26.395H34.5366C34.5724 27.0216 34.7497 27.5015 35.0684 27.8345C35.387 28.1675 35.7845 28.334 36.2607 28.334C36.6152 28.334 36.9178 28.2409 37.1685 28.0547C37.4191 27.8685 37.6178 27.5713 37.7646 27.1631ZM34.5903 25.6001H37.7754C37.7324 25.1203 37.6107 24.7604 37.4102 24.5205C37.1022 24.1481 36.703 23.9619 36.2124 23.9619C35.7684 23.9619 35.3942 24.1105 35.0898 24.4077C34.7891 24.7049 34.6226 25.1024 34.5903 25.6001ZM39.9829 29V23.2959H40.853V24.1069C41.272 23.4803 41.8771 23.167 42.6685 23.167C43.0122 23.167 43.3273 23.2297 43.6138 23.355C43.9038 23.4767 44.1204 23.6379 44.2637 23.8384C44.4069 24.0389 44.5072 24.277 44.5645 24.5527C44.6003 24.7318 44.6182 25.0451 44.6182 25.4927V29H43.6514V25.5303C43.6514 25.1364 43.6138 24.8428 43.5386 24.6494C43.4634 24.4525 43.3291 24.2967 43.1357 24.1821C42.946 24.064 42.7222 24.0049 42.4644 24.0049C42.0526 24.0049 41.6963 24.1356 41.3955 24.397C41.0983 24.6584 40.9497 25.1543 40.9497 25.8848V29H39.9829ZM48.2168 28.1353L48.3564 28.9893C48.0843 29.0465 47.8408 29.0752 47.626 29.0752C47.2751 29.0752 47.0029 29.0197 46.8096 28.9087C46.6162 28.7977 46.4801 28.6527 46.4014 28.4736C46.3226 28.291 46.2832 27.9097 46.2832 27.3296V24.0479H45.5742V23.2959H46.2832V21.8833L47.2446 21.3032V23.2959H48.2168V24.0479H47.2446V27.3833C47.2446 27.659 47.2607 27.8363 47.293 27.915C47.3288 27.9938 47.3843 28.0565 47.4595 28.103C47.5382 28.1496 47.6493 28.1729 47.7925 28.1729C47.8999 28.1729 48.0413 28.1603 48.2168 28.1353ZM48.7808 27.2974L49.7368 27.147C49.7905 27.5301 49.9391 27.8237 50.1826 28.0278C50.4297 28.2319 50.7734 28.334 51.2139 28.334C51.6579 28.334 51.9873 28.2445 52.2021 28.0654C52.417 27.8828 52.5244 27.6698 52.5244 27.4263C52.5244 27.2078 52.4295 27.036 52.2397 26.9106C52.1073 26.8247 51.7778 26.7155 51.2515 26.583C50.5425 26.404 50.0501 26.25 49.7744 26.1211C49.5023 25.9886 49.2946 25.8078 49.1514 25.5786C49.0117 25.3459 48.9419 25.0898 48.9419 24.8105C48.9419 24.5563 48.9992 24.3218 49.1138 24.1069C49.2319 23.8885 49.3913 23.7077 49.5918 23.5645C49.7422 23.4535 49.9463 23.3604 50.2041 23.2852C50.4655 23.2064 50.7448 23.167 51.042 23.167C51.4896 23.167 51.8817 23.2314 52.2183 23.3604C52.5584 23.4893 52.8091 23.6647 52.9702 23.8867C53.1313 24.1051 53.2424 24.3988 53.3032 24.7676L52.3579 24.8965C52.3149 24.6029 52.1896 24.3737 51.9819 24.209C51.7778 24.0443 51.4878 23.9619 51.1118 23.9619C50.6678 23.9619 50.3509 24.0353 50.1611 24.1821C49.9714 24.3289 49.8765 24.5008 49.8765 24.6978C49.8765 24.8231 49.9159 24.9359 49.9946 25.0361C50.0734 25.14 50.1969 25.2259 50.3652 25.2939C50.4619 25.3298 50.7466 25.4121 51.2192 25.541C51.9032 25.7236 52.3794 25.874 52.6479 25.9922C52.9201 26.1068 53.1331 26.2751 53.2871 26.4971C53.4411 26.7191 53.5181 26.9948 53.5181 27.3242C53.5181 27.6465 53.4232 27.9508 53.2334 28.2373C53.0472 28.5202 52.7769 28.7404 52.4224 28.8979C52.0679 29.0519 51.6668 29.1289 51.2192 29.1289C50.478 29.1289 49.9123 28.9749 49.522 28.667C49.1353 28.359 48.8882 27.9025 48.7808 27.2974ZM57.498 26.4702L58.481 26.3843C58.5275 26.7782 58.6349 27.1022 58.8032 27.3564C58.9751 27.6071 59.2401 27.8112 59.5981 27.9688C59.9562 28.1227 60.359 28.1997 60.8066 28.1997C61.2041 28.1997 61.555 28.1406 61.8594 28.0225C62.1637 27.9043 62.3893 27.7432 62.5361 27.5391C62.6865 27.3314 62.7617 27.1058 62.7617 26.8623C62.7617 26.6152 62.6901 26.4004 62.5469 26.2178C62.4036 26.0316 62.1673 25.8758 61.8379 25.7505C61.6266 25.6681 61.1593 25.541 60.436 25.3691C59.7127 25.1937 59.2061 25.029 58.916 24.875C58.54 24.6781 58.259 24.4346 58.0728 24.1445C57.8901 23.8509 57.7988 23.5233 57.7988 23.1616C57.7988 22.7642 57.9116 22.3936 58.1372 22.0498C58.3628 21.7025 58.6922 21.4393 59.1255 21.2603C59.5588 21.0812 60.0404 20.9917 60.5703 20.9917C61.154 20.9917 61.6678 21.0866 62.1118 21.2764C62.5594 21.4626 62.9032 21.7383 63.1431 22.1035C63.383 22.4688 63.5119 22.8823 63.5298 23.3442L62.5308 23.4194C62.4771 22.9217 62.2944 22.5457 61.9829 22.2915C61.675 22.0373 61.2184 21.9102 60.6133 21.9102C59.9831 21.9102 59.5229 22.0265 59.2329 22.2593C58.9465 22.4884 58.8032 22.766 58.8032 23.0918C58.8032 23.3747 58.9053 23.6074 59.1094 23.79C59.3099 23.9727 59.8327 24.1606 60.6777 24.354C61.5264 24.5438 62.1082 24.7103 62.4233 24.8535C62.8817 25.0648 63.2201 25.3333 63.4385 25.6592C63.6569 25.9814 63.7661 26.3538 63.7661 26.7764C63.7661 27.1953 63.6462 27.591 63.4062 27.9634C63.1663 28.3322 62.8208 28.6204 62.3696 28.8281C61.922 29.0322 61.4172 29.1343 60.855 29.1343C60.1424 29.1343 59.5444 29.0304 59.061 28.8228C58.5812 28.6151 58.2035 28.3035 57.9277 27.8882C57.6556 27.4692 57.5124 26.9966 57.498 26.4702ZM68.9707 27.1631L69.9697 27.2866C69.8122 27.8703 69.5203 28.3232 69.0942 28.6455C68.6681 28.9678 68.1239 29.1289 67.4614 29.1289C66.6271 29.1289 65.9647 28.8729 65.4741 28.3608C64.9871 27.8452 64.7437 27.1237 64.7437 26.1963C64.7437 25.2367 64.9907 24.4919 65.4849 23.9619C65.979 23.432 66.62 23.167 67.4077 23.167C68.1704 23.167 68.7935 23.4266 69.2769 23.9458C69.7603 24.465 70.002 25.1955 70.002 26.1372C70.002 26.1945 70.0002 26.2804 69.9966 26.395H65.7427C65.7785 27.0216 65.9557 27.5015 66.2744 27.8345C66.5931 28.1675 66.9906 28.334 67.4668 28.334C67.8213 28.334 68.1239 28.2409 68.3745 28.0547C68.6252 27.8685 68.8239 27.5713 68.9707 27.1631ZM65.7964 25.6001H68.9814C68.9385 25.1203 68.8167 24.7604 68.6162 24.5205C68.3083 24.1481 67.909 23.9619 67.4185 23.9619C66.9744 23.9619 66.6003 24.1105 66.2959 24.4077C65.9951 24.7049 65.8286 25.1024 65.7964 25.6001ZM71.1782 29V23.2959H72.0483V24.1606C72.2703 23.756 72.4744 23.4893 72.6606 23.3604C72.8504 23.2314 73.0581 23.167 73.2837 23.167C73.6095 23.167 73.9408 23.2708 74.2773 23.4785L73.9443 24.3755C73.708 24.2358 73.4717 24.166 73.2354 24.166C73.0241 24.166 72.8343 24.2305 72.666 24.3594C72.4977 24.4847 72.3778 24.6602 72.3062 24.8857C72.1987 25.2295 72.145 25.6055 72.145 26.0137V29H71.1782ZM76.4365 29L74.2666 23.2959H75.2871L76.5117 26.7119C76.6442 27.0807 76.766 27.4639 76.877 27.8613C76.9629 27.5605 77.0828 27.1989 77.2368 26.7764L78.5044 23.2959H79.498L77.3389 29H76.4365ZM84.2568 27.1631L85.2559 27.2866C85.0983 27.8703 84.8065 28.3232 84.3804 28.6455C83.9543 28.9678 83.41 29.1289 82.7476 29.1289C81.9132 29.1289 81.2508 28.8729 80.7603 28.3608C80.2733 27.8452 80.0298 27.1237 80.0298 26.1963C80.0298 25.2367 80.2769 24.4919 80.771 23.9619C81.2651 23.432 81.9061 23.167 82.6938 23.167C83.4565 23.167 84.0796 23.4266 84.563 23.9458C85.0464 24.465 85.2881 25.1955 85.2881 26.1372C85.2881 26.1945 85.2863 26.2804 85.2827 26.395H81.0288C81.0646 27.0216 81.2419 27.5015 81.5605 27.8345C81.8792 28.1675 82.2767 28.334 82.7529 28.334C83.1074 28.334 83.41 28.2409 83.6606 28.0547C83.9113 27.8685 84.11 27.5713 84.2568 27.1631ZM81.0825 25.6001H84.2676C84.2246 25.1203 84.1029 24.7604 83.9023 24.5205C83.5944 24.1481 83.1951 23.9619 82.7046 23.9619C82.2606 23.9619 81.8864 24.1105 81.582 24.4077C81.2812 24.7049 81.1147 25.1024 81.0825 25.6001ZM90.1758 29V28.2803C89.8141 28.846 89.2824 29.1289 88.5806 29.1289C88.1258 29.1289 87.7069 29.0036 87.3237 28.7529C86.9442 28.5023 86.6488 28.1532 86.4375 27.7056C86.2298 27.2544 86.126 26.737 86.126 26.1533C86.126 25.584 86.2209 25.0684 86.4106 24.6064C86.6004 24.141 86.8851 23.7847 87.2646 23.5376C87.6442 23.2905 88.0685 23.167 88.5376 23.167C88.8813 23.167 89.1875 23.2404 89.4561 23.3872C89.7246 23.5304 89.943 23.7184 90.1113 23.9512V21.126H91.0728V29H90.1758ZM87.1196 26.1533C87.1196 26.8838 87.2736 27.4299 87.5815 27.7915C87.8895 28.1532 88.2529 28.334 88.6719 28.334C89.0944 28.334 89.4525 28.1621 89.7461 27.8184C90.0433 27.471 90.1919 26.9429 90.1919 26.2339C90.1919 25.4533 90.0415 24.8804 89.7407 24.5151C89.4399 24.1499 89.0693 23.9673 88.6289 23.9673C88.1992 23.9673 87.8394 24.1427 87.5493 24.4937C87.2629 24.8446 87.1196 25.3978 87.1196 26.1533ZM99.4678 25.9116V24.9878L102.803 24.9824V27.9043C102.291 28.3125 101.763 28.6204 101.219 28.8281C100.674 29.0322 100.116 29.1343 99.543 29.1343C98.7695 29.1343 98.0659 28.9696 97.4321 28.6401C96.8019 28.3071 96.3257 27.8273 96.0034 27.2007C95.6812 26.5741 95.52 25.874 95.52 25.1006C95.52 24.3343 95.6794 23.62 95.998 22.9575C96.3203 22.2915 96.7822 21.7974 97.3838 21.4751C97.9854 21.1528 98.6782 20.9917 99.4624 20.9917C100.032 20.9917 100.546 21.0848 101.004 21.271C101.466 21.4536 101.827 21.7096 102.089 22.0391C102.35 22.3685 102.549 22.7982 102.685 23.3281L101.745 23.5859C101.627 23.1849 101.48 22.8698 101.305 22.6406C101.129 22.4115 100.879 22.2288 100.553 22.0928C100.227 21.9531 99.8652 21.8833 99.4678 21.8833C98.9915 21.8833 98.5798 21.9567 98.2324 22.1035C97.8851 22.2467 97.604 22.4365 97.3892 22.6729C97.1779 22.9092 97.0132 23.1688 96.895 23.4517C96.6945 23.9386 96.5942 24.4668 96.5942 25.0361C96.5942 25.738 96.7142 26.3252 96.9541 26.7979C97.1976 27.2705 97.5503 27.6214 98.0122 27.8506C98.4741 28.0798 98.9647 28.1943 99.4839 28.1943C99.9351 28.1943 100.375 28.1084 100.805 27.9365C101.235 27.7611 101.561 27.5749 101.783 27.3779V25.9116H99.4678ZM104.2 29V21.126H105.167V29H104.2ZM106.311 26.1479C106.311 25.0916 106.604 24.3092 107.191 23.8008C107.682 23.3783 108.28 23.167 108.985 23.167C109.77 23.167 110.41 23.4248 110.908 23.9404C111.406 24.4525 111.655 25.1615 111.655 26.0674C111.655 26.8014 111.544 27.3797 111.322 27.8022C111.103 28.2212 110.783 28.547 110.36 28.7798C109.941 29.0125 109.483 29.1289 108.985 29.1289C108.187 29.1289 107.541 28.8729 107.046 28.3608C106.556 27.8488 106.311 27.1112 106.311 26.1479ZM107.304 26.1479C107.304 26.8784 107.464 27.4263 107.782 27.7915C108.101 28.1532 108.502 28.334 108.985 28.334C109.465 28.334 109.864 28.1514 110.183 27.7861C110.502 27.4209 110.661 26.8641 110.661 26.1157C110.661 25.4103 110.5 24.8768 110.178 24.5151C109.859 24.1499 109.462 23.9673 108.985 23.9673C108.502 23.9673 108.101 24.1481 107.782 24.5098C107.464 24.8714 107.304 25.4175 107.304 26.1479ZM113.685 29H112.788V21.126H113.755V23.9351C114.163 23.423 114.684 23.167 115.318 23.167C115.669 23.167 116 23.2386 116.312 23.3818C116.627 23.5215 116.884 23.7202 117.085 23.978C117.289 24.2323 117.448 24.5402 117.563 24.9019C117.678 25.2635 117.735 25.6502 117.735 26.062C117.735 27.0396 117.493 27.7951 117.01 28.3286C116.526 28.8621 115.946 29.1289 115.27 29.1289C114.596 29.1289 114.068 28.8478 113.685 28.2856V29ZM113.674 26.105C113.674 26.7889 113.767 27.283 113.954 27.5874C114.258 28.0851 114.67 28.334 115.189 28.334C115.611 28.334 115.977 28.1514 116.285 27.7861C116.593 27.4173 116.747 26.8695 116.747 26.1426C116.747 25.3978 116.598 24.8481 116.301 24.4937C116.007 24.1392 115.651 23.9619 115.232 23.9619C114.809 23.9619 114.444 24.1463 114.136 24.5151C113.828 24.8804 113.674 25.4103 113.674 26.105ZM122.639 28.2964C122.281 28.6007 121.935 28.8156 121.602 28.9409C121.273 29.0662 120.918 29.1289 120.539 29.1289C119.912 29.1289 119.43 28.9767 119.094 28.6724C118.757 28.3644 118.589 27.9723 118.589 27.4961C118.589 27.2168 118.652 26.9626 118.777 26.7334C118.906 26.5007 119.072 26.3145 119.276 26.1748C119.484 26.0352 119.717 25.9295 119.975 25.8579C120.164 25.8078 120.451 25.7594 120.834 25.7129C121.615 25.6198 122.189 25.5088 122.558 25.3799C122.562 25.2474 122.563 25.1632 122.563 25.1274C122.563 24.7336 122.472 24.4561 122.29 24.2949C122.042 24.0765 121.675 23.9673 121.188 23.9673C120.734 23.9673 120.397 24.0479 120.179 24.209C119.964 24.3665 119.805 24.6476 119.701 25.0522L118.755 24.9233C118.841 24.5187 118.983 24.1929 119.18 23.9458C119.377 23.6951 119.661 23.5036 120.034 23.3711C120.406 23.235 120.838 23.167 121.328 23.167C121.815 23.167 122.211 23.2243 122.515 23.3389C122.819 23.4535 123.043 23.5985 123.187 23.7739C123.33 23.9458 123.43 24.1642 123.487 24.4292C123.52 24.5939 123.536 24.8911 123.536 25.3208V26.6099C123.536 27.5086 123.555 28.078 123.595 28.3179C123.638 28.5542 123.72 28.7816 123.842 29H122.832C122.732 28.7995 122.667 28.5649 122.639 28.2964ZM122.558 26.1372C122.207 26.2804 121.681 26.4022 120.979 26.5024C120.582 26.5597 120.3 26.6242 120.136 26.6958C119.971 26.7674 119.844 26.873 119.754 27.0127C119.665 27.1488 119.62 27.3009 119.62 27.4692C119.62 27.7271 119.717 27.9419 119.91 28.1138C120.107 28.2856 120.394 28.3716 120.77 28.3716C121.142 28.3716 121.473 28.291 121.763 28.1299C122.053 27.9652 122.266 27.7414 122.402 27.4585C122.506 27.2401 122.558 26.9178 122.558 26.4917V26.1372ZM125.018 29V21.126H125.985V29H125.018ZM127.467 29V21.126H128.434V29H127.467ZM129.895 31.1968L129.788 30.2891C129.999 30.3464 130.183 30.375 130.341 30.375C130.556 30.375 130.728 30.3392 130.856 30.2676C130.985 30.196 131.091 30.0957 131.173 29.9668C131.234 29.8701 131.333 29.6302 131.469 29.2471C131.487 29.1934 131.515 29.1146 131.555 29.0107L129.39 23.2959H130.432L131.619 26.5991C131.773 27.0181 131.911 27.4585 132.033 27.9204C132.144 27.4764 132.276 27.0431 132.43 26.6206L133.649 23.2959H134.616L132.446 29.0967C132.214 29.7233 132.033 30.1548 131.904 30.3911C131.732 30.7098 131.535 30.9425 131.313 31.0894C131.091 31.2397 130.826 31.3149 130.518 31.3149C130.332 31.3149 130.124 31.2756 129.895 31.1968Z" fill="white"/>
</g>
<g filter="url(#filter1_d_710_1232)">
<path d="M37.1641 72H31.6758V51.3164C29.6706 53.1914 27.3073 54.5781 24.5859 55.4766V50.4961C26.0182 50.0273 27.5742 49.1419 29.2539 47.8398C30.9336 46.5247 32.0859 44.9948 32.7109 43.25H37.1641V72ZM54.6641 43.25C57.4375 43.25 59.6055 44.2396 61.168 46.2188C63.0299 48.5625 63.9609 52.4492 63.9609 57.8789C63.9609 63.2956 63.0234 67.1888 61.1484 69.5586C59.599 71.5117 57.4375 72.4883 54.6641 72.4883C51.8776 72.4883 49.6315 71.4206 47.9258 69.2852C46.2201 67.1367 45.3672 63.3151 45.3672 57.8203C45.3672 52.4297 46.3047 48.5495 48.1797 46.1797C49.7292 44.2266 51.8906 43.25 54.6641 43.25ZM54.6641 47.8008C54 47.8008 53.4076 48.0156 52.8867 48.4453C52.3659 48.862 51.9622 49.6172 51.6758 50.7109C51.2982 52.1302 51.1094 54.5195 51.1094 57.8789C51.1094 61.2383 51.2786 63.5495 51.6172 64.8125C51.9557 66.0625 52.3789 66.8958 52.8867 67.3125C53.4076 67.7292 54 67.9375 54.6641 67.9375C55.3281 67.9375 55.9206 67.7292 56.4414 67.3125C56.9622 66.8828 57.3659 66.1211 57.6523 65.0273C58.0299 63.6211 58.2188 61.2383 58.2188 57.8789C58.2188 54.5195 58.0495 52.2148 57.7109 50.9648C57.3724 49.7018 56.9427 48.862 56.4219 48.4453C55.9141 48.0156 55.3281 47.8008 54.6641 47.8008ZM76.9297 43.25C79.7031 43.25 81.8711 44.2396 83.4336 46.2188C85.2956 48.5625 86.2266 52.4492 86.2266 57.8789C86.2266 63.2956 85.2891 67.1888 83.4141 69.5586C81.8646 71.5117 79.7031 72.4883 76.9297 72.4883C74.1432 72.4883 71.8971 71.4206 70.1914 69.2852C68.4857 67.1367 67.6328 63.3151 67.6328 57.8203C67.6328 52.4297 68.5703 48.5495 70.4453 46.1797C71.9948 44.2266 74.1562 43.25 76.9297 43.25ZM76.9297 47.8008C76.2656 47.8008 75.6732 48.0156 75.1523 48.4453C74.6315 48.862 74.2279 49.6172 73.9414 50.7109C73.5638 52.1302 73.375 54.5195 73.375 57.8789C73.375 61.2383 73.5443 63.5495 73.8828 64.8125C74.2214 66.0625 74.6445 66.8958 75.1523 67.3125C75.6732 67.7292 76.2656 67.9375 76.9297 67.9375C77.5938 67.9375 78.1862 67.7292 78.707 67.3125C79.2279 66.8828 79.6315 66.1211 79.918 65.0273C80.2956 63.6211 80.4844 61.2383 80.4844 57.8789C80.4844 54.5195 80.3151 52.2148 79.9766 50.9648C79.638 49.7018 79.2083 48.862 78.6875 48.4453C78.1797 48.0156 77.5938 47.8008 76.9297 47.8008ZM97.3789 67.8789V60.4375H89.8789V55.3008H97.3789V47.8594H102.379V55.3008H109.898V60.4375H102.379V67.8789H97.3789Z" fill="white"/>
</g>
<g filter="url(#filter2_d_710_1232)">
<path d="M23.8521 110V103.055H21.2578V102.126H27.499V103.055H24.894V110H23.8521ZM31.1299 108.163L32.1289 108.287C31.9714 108.87 31.6795 109.323 31.2534 109.646C30.8273 109.968 30.283 110.129 29.6206 110.129C28.7863 110.129 28.1239 109.873 27.6333 109.361C27.1463 108.845 26.9028 108.124 26.9028 107.196C26.9028 106.237 27.1499 105.492 27.644 104.962C28.1382 104.432 28.7791 104.167 29.5669 104.167C30.3296 104.167 30.9526 104.427 31.436 104.946C31.9194 105.465 32.1611 106.195 32.1611 107.137C32.1611 107.194 32.1593 107.28 32.1558 107.395H27.9019C27.9377 108.022 28.1149 108.501 28.4336 108.834C28.7523 109.167 29.1497 109.334 29.626 109.334C29.9805 109.334 30.283 109.241 30.5337 109.055C30.7843 108.868 30.9831 108.571 31.1299 108.163ZM27.9556 106.6H31.1406C31.0977 106.12 30.9759 105.76 30.7754 105.521C30.4674 105.148 30.0682 104.962 29.5776 104.962C29.1336 104.962 28.7594 105.111 28.4551 105.408C28.1543 105.705 27.9878 106.102 27.9556 106.6ZM37.0703 109.296C36.7122 109.601 36.3667 109.816 36.0337 109.941C35.7043 110.066 35.3498 110.129 34.9702 110.129C34.3436 110.129 33.862 109.977 33.5254 109.672C33.1888 109.364 33.0205 108.972 33.0205 108.496C33.0205 108.217 33.0832 107.963 33.2085 107.733C33.3374 107.501 33.5039 107.314 33.708 107.175C33.9157 107.035 34.1484 106.93 34.4062 106.858C34.596 106.808 34.8825 106.759 35.2656 106.713C36.0462 106.62 36.6209 106.509 36.9897 106.38C36.9933 106.247 36.9951 106.163 36.9951 106.127C36.9951 105.734 36.9038 105.456 36.7212 105.295C36.4741 105.076 36.1071 104.967 35.6201 104.967C35.1654 104.967 34.8288 105.048 34.6104 105.209C34.3955 105.367 34.2362 105.648 34.1323 106.052L33.187 105.923C33.2729 105.519 33.4144 105.193 33.6113 104.946C33.8083 104.695 34.0929 104.504 34.4653 104.371C34.8377 104.235 35.2692 104.167 35.7598 104.167C36.2467 104.167 36.6424 104.224 36.9468 104.339C37.2511 104.453 37.4749 104.598 37.6182 104.774C37.7614 104.946 37.8617 105.164 37.9189 105.429C37.9512 105.594 37.9673 105.891 37.9673 106.321V107.61C37.9673 108.509 37.987 109.078 38.0264 109.318C38.0693 109.554 38.1517 109.782 38.2734 110H37.2637C37.1634 109.799 37.099 109.565 37.0703 109.296ZM36.9897 107.137C36.6388 107.28 36.1125 107.402 35.4106 107.502C35.0132 107.56 34.7321 107.624 34.5674 107.696C34.4027 107.767 34.2756 107.873 34.186 108.013C34.0965 108.149 34.0518 108.301 34.0518 108.469C34.0518 108.727 34.1484 108.942 34.3418 109.114C34.5387 109.286 34.8252 109.372 35.2012 109.372C35.5736 109.372 35.9048 109.291 36.1948 109.13C36.4849 108.965 36.6979 108.741 36.834 108.458C36.9378 108.24 36.9897 107.918 36.9897 107.492V107.137ZM39.4712 110V104.296H40.3359V105.096C40.515 104.817 40.7531 104.593 41.0503 104.425C41.3475 104.253 41.6859 104.167 42.0654 104.167C42.488 104.167 42.8335 104.255 43.1021 104.43C43.3742 104.606 43.5658 104.851 43.6768 105.166C44.1279 104.5 44.7152 104.167 45.4385 104.167C46.0042 104.167 46.4393 104.325 46.7437 104.64C47.048 104.951 47.2002 105.433 47.2002 106.084V110H46.2388V106.407C46.2388 106.02 46.2065 105.743 46.1421 105.574C46.0812 105.402 45.9684 105.264 45.8037 105.161C45.639 105.057 45.4456 105.005 45.2236 105.005C44.8226 105.005 44.4896 105.139 44.2246 105.408C43.9596 105.673 43.8271 106.099 43.8271 106.686V110H42.8604V106.294C42.8604 105.864 42.7816 105.542 42.624 105.327C42.4665 105.112 42.2087 105.005 41.8506 105.005C41.5785 105.005 41.326 105.076 41.0933 105.22C40.8641 105.363 40.6976 105.572 40.5938 105.848C40.4899 106.124 40.438 106.521 40.438 107.041V110H39.4712ZM51.4648 107.47L52.4478 107.384C52.4943 107.778 52.6017 108.102 52.77 108.356C52.9419 108.607 53.2069 108.811 53.5649 108.969C53.923 109.123 54.3258 109.2 54.7734 109.2C55.1709 109.2 55.5218 109.141 55.8262 109.022C56.1305 108.904 56.3561 108.743 56.5029 108.539C56.6533 108.331 56.7285 108.106 56.7285 107.862C56.7285 107.615 56.6569 107.4 56.5137 107.218C56.3704 107.032 56.1341 106.876 55.8047 106.75C55.5934 106.668 55.1261 106.541 54.4028 106.369C53.6795 106.194 53.1729 106.029 52.8828 105.875C52.5068 105.678 52.2257 105.435 52.0396 105.145C51.8569 104.851 51.7656 104.523 51.7656 104.162C51.7656 103.764 51.8784 103.394 52.104 103.05C52.3296 102.702 52.659 102.439 53.0923 102.26C53.5256 102.081 54.0072 101.992 54.5371 101.992C55.1208 101.992 55.6346 102.087 56.0786 102.276C56.5262 102.463 56.87 102.738 57.1099 103.104C57.3498 103.469 57.4787 103.882 57.4966 104.344L56.4976 104.419C56.4438 103.922 56.2612 103.546 55.9497 103.292C55.6418 103.037 55.1852 102.91 54.5801 102.91C53.9499 102.91 53.4897 103.027 53.1997 103.259C52.9132 103.488 52.77 103.766 52.77 104.092C52.77 104.375 52.8721 104.607 53.0762 104.79C53.2767 104.973 53.7995 105.161 54.6445 105.354C55.4932 105.544 56.075 105.71 56.3901 105.854C56.8485 106.065 57.1868 106.333 57.4053 106.659C57.6237 106.981 57.7329 107.354 57.7329 107.776C57.7329 108.195 57.613 108.591 57.373 108.963C57.1331 109.332 56.7876 109.62 56.3364 109.828C55.8888 110.032 55.384 110.134 54.8218 110.134C54.1092 110.134 53.5112 110.03 53.0278 109.823C52.548 109.615 52.1702 109.304 51.8945 108.888C51.6224 108.469 51.4792 107.997 51.4648 107.47ZM61.1436 109.135L61.2832 109.989C61.0111 110.047 60.7676 110.075 60.5527 110.075C60.2018 110.075 59.9297 110.02 59.7363 109.909C59.543 109.798 59.4069 109.653 59.3281 109.474C59.2493 109.291 59.21 108.91 59.21 108.33V105.048H58.501V104.296H59.21V102.883L60.1714 102.303V104.296H61.1436V105.048H60.1714V108.383C60.1714 108.659 60.1875 108.836 60.2197 108.915C60.2555 108.994 60.311 109.056 60.3862 109.103C60.465 109.15 60.576 109.173 60.7192 109.173C60.8267 109.173 60.9681 109.16 61.1436 109.135ZM62.0835 110V104.296H62.9536V105.161C63.1756 104.756 63.3797 104.489 63.5659 104.36C63.7557 104.231 63.9634 104.167 64.189 104.167C64.5148 104.167 64.846 104.271 65.1826 104.479L64.8496 105.375C64.6133 105.236 64.377 105.166 64.1406 105.166C63.9294 105.166 63.7396 105.23 63.5713 105.359C63.403 105.485 63.283 105.66 63.2114 105.886C63.104 106.229 63.0503 106.605 63.0503 107.014V110H62.0835ZM69.6621 108.163L70.6611 108.287C70.5036 108.87 70.2118 109.323 69.7856 109.646C69.3595 109.968 68.8153 110.129 68.1528 110.129C67.3185 110.129 66.6561 109.873 66.1655 109.361C65.6785 108.845 65.4351 108.124 65.4351 107.196C65.4351 106.237 65.6821 105.492 66.1763 104.962C66.6704 104.432 67.3114 104.167 68.0991 104.167C68.8618 104.167 69.4849 104.427 69.9683 104.946C70.4517 105.465 70.6934 106.195 70.6934 107.137C70.6934 107.194 70.6916 107.28 70.688 107.395H66.4341C66.4699 108.022 66.6471 108.501 66.9658 108.834C67.2845 109.167 67.682 109.334 68.1582 109.334C68.5127 109.334 68.8153 109.241 69.0659 109.055C69.3166 108.868 69.5153 108.571 69.6621 108.163ZM66.4878 106.6H69.6729C69.6299 106.12 69.5081 105.76 69.3076 105.521C68.9997 105.148 68.6004 104.962 68.1099 104.962C67.6659 104.962 67.2917 105.111 66.9873 105.408C66.6865 105.705 66.52 106.102 66.4878 106.6ZM71.8804 110V104.296H72.7505V105.107C73.1694 104.48 73.7746 104.167 74.5659 104.167C74.9097 104.167 75.2248 104.23 75.5112 104.355C75.8013 104.477 76.0179 104.638 76.1611 104.838C76.3044 105.039 76.4046 105.277 76.4619 105.553C76.4977 105.732 76.5156 106.045 76.5156 106.493V110H75.5488V106.53C75.5488 106.136 75.5112 105.843 75.436 105.649C75.3608 105.452 75.2266 105.297 75.0332 105.182C74.8434 105.064 74.6196 105.005 74.3618 105.005C73.95 105.005 73.5938 105.136 73.293 105.397C72.9958 105.658 72.8472 106.154 72.8472 106.885V110H71.8804ZM77.8262 110.473L78.7661 110.612C78.8055 110.902 78.9147 111.114 79.0938 111.246C79.3337 111.425 79.6613 111.515 80.0767 111.515C80.5243 111.515 80.8698 111.425 81.1133 111.246C81.3568 111.067 81.5215 110.816 81.6074 110.494C81.6576 110.297 81.6808 109.884 81.6772 109.253C81.2547 109.751 80.7284 110 80.0981 110C79.314 110 78.707 109.717 78.2773 109.151C77.8477 108.586 77.6328 107.907 77.6328 107.116C77.6328 106.571 77.7313 106.07 77.9282 105.612C78.1252 105.15 78.4098 104.794 78.7822 104.543C79.1582 104.292 79.5986 104.167 80.1035 104.167C80.7767 104.167 81.3317 104.439 81.7686 104.983V104.296H82.6602V109.227C82.6602 110.115 82.5688 110.743 82.3862 111.112C82.2072 111.484 81.9207 111.778 81.5269 111.993C81.1366 112.208 80.6549 112.315 80.082 112.315C79.4017 112.315 78.8521 112.161 78.4331 111.853C78.0142 111.549 77.8118 111.089 77.8262 110.473ZM78.6265 107.046C78.6265 107.794 78.7751 108.34 79.0723 108.684C79.3695 109.028 79.7419 109.2 80.1895 109.2C80.6335 109.2 81.0059 109.03 81.3066 108.689C81.6074 108.346 81.7578 107.809 81.7578 107.078C81.7578 106.38 81.6021 105.854 81.2905 105.499C80.9826 105.145 80.6102 104.967 80.1733 104.967C79.7437 104.967 79.3784 105.143 79.0776 105.494C78.7769 105.841 78.6265 106.358 78.6265 107.046ZM86.2373 109.135L86.377 109.989C86.1048 110.047 85.8613 110.075 85.6465 110.075C85.2956 110.075 85.0234 110.02 84.8301 109.909C84.6367 109.798 84.5007 109.653 84.4219 109.474C84.3431 109.291 84.3037 108.91 84.3037 108.33V105.048H83.5947V104.296H84.3037V102.883L85.2651 102.303V104.296H86.2373V105.048H85.2651V108.383C85.2651 108.659 85.2812 108.836 85.3135 108.915C85.3493 108.994 85.4048 109.056 85.48 109.103C85.5588 109.15 85.6698 109.173 85.813 109.173C85.9204 109.173 86.0618 109.16 86.2373 109.135ZM87.188 110V102.126H88.1548V104.951C88.606 104.428 89.1753 104.167 89.8628 104.167C90.2853 104.167 90.6523 104.251 90.9639 104.419C91.2754 104.584 91.4974 104.813 91.6299 105.107C91.766 105.401 91.834 105.827 91.834 106.385V110H90.8672V106.385C90.8672 105.902 90.7616 105.551 90.5503 105.333C90.3426 105.111 90.0472 105 89.6641 105C89.3776 105 89.1073 105.075 88.853 105.225C88.6024 105.372 88.4233 105.572 88.3159 105.827C88.2085 106.081 88.1548 106.432 88.1548 106.879V110H87.188Z" fill="white"/>
</g>
<g filter="url(#filter3_d_710_1232)">
<path d="M22.5586 145.402L27.8711 144.758C28.0404 146.112 28.4961 147.147 29.2383 147.863C29.9805 148.579 30.8789 148.938 31.9336 148.938C33.0664 148.938 34.0169 148.508 34.7852 147.648C35.5664 146.789 35.957 145.63 35.957 144.172C35.957 142.792 35.5859 141.698 34.8438 140.891C34.1016 140.083 33.1966 139.68 32.1289 139.68C31.4258 139.68 30.5859 139.816 29.6094 140.09L30.2148 135.617C31.6992 135.656 32.832 135.337 33.6133 134.66C34.3945 133.97 34.7852 133.059 34.7852 131.926C34.7852 130.962 34.4987 130.194 33.9258 129.621C33.3529 129.048 32.5911 128.762 31.6406 128.762C30.7031 128.762 29.9023 129.087 29.2383 129.738C28.5742 130.389 28.1706 131.34 28.0273 132.59L22.9688 131.73C23.3203 129.999 23.8477 128.618 24.5508 127.59C25.2669 126.548 26.2565 125.734 27.5195 125.148C28.7956 124.549 30.2214 124.25 31.7969 124.25C34.4922 124.25 36.6536 125.109 38.2812 126.828C39.6224 128.234 40.293 129.823 40.293 131.594C40.293 134.107 38.9193 136.112 36.1719 137.609C37.8125 137.961 39.1211 138.749 40.0977 139.973C41.0872 141.197 41.582 142.674 41.582 144.406C41.582 146.919 40.6641 149.061 38.8281 150.832C36.9922 152.603 34.707 153.488 31.9727 153.488C29.3815 153.488 27.2331 152.746 25.5273 151.262C23.8216 149.764 22.832 147.811 22.5586 145.402ZM54.2969 124.25C57.0703 124.25 59.2383 125.24 60.8008 127.219C62.6628 129.562 63.5938 133.449 63.5938 138.879C63.5938 144.296 62.6562 148.189 60.7812 150.559C59.2318 152.512 57.0703 153.488 54.2969 153.488C51.5104 153.488 49.2643 152.421 47.5586 150.285C45.8529 148.137 45 144.315 45 138.82C45 133.43 45.9375 129.549 47.8125 127.18C49.362 125.227 51.5234 124.25 54.2969 124.25ZM54.2969 128.801C53.6328 128.801 53.0404 129.016 52.5195 129.445C51.9987 129.862 51.5951 130.617 51.3086 131.711C50.931 133.13 50.7422 135.52 50.7422 138.879C50.7422 142.238 50.9115 144.549 51.25 145.812C51.5885 147.062 52.0117 147.896 52.5195 148.312C53.0404 148.729 53.6328 148.938 54.2969 148.938C54.9609 148.938 55.5534 148.729 56.0742 148.312C56.5951 147.883 56.9987 147.121 57.2852 146.027C57.6628 144.621 57.8516 142.238 57.8516 138.879C57.8516 135.52 57.6823 133.215 57.3438 131.965C57.0052 130.702 56.5755 129.862 56.0547 129.445C55.5469 129.016 54.9609 128.801 54.2969 128.801ZM74.7461 148.879V141.438H67.2461V136.301H74.7461V128.859H79.7461V136.301H87.2656V141.438H79.7461V148.879H74.7461Z" fill="white"/>
</g>
<g filter="url(#filter4_d_710_1232)">
<path d="M155.989 29V21.126H158.959C159.482 21.126 159.881 21.151 160.157 21.2012C160.543 21.2656 160.868 21.3892 161.129 21.5718C161.39 21.7508 161.6 22.0033 161.757 22.3291C161.918 22.6549 161.999 23.013 161.999 23.4033C161.999 24.0729 161.786 24.6405 161.36 25.106C160.934 25.5679 160.164 25.7988 159.05 25.7988H157.031V29H155.989ZM157.031 24.8696H159.066C159.74 24.8696 160.218 24.7443 160.5 24.4937C160.783 24.243 160.925 23.8903 160.925 23.4355C160.925 23.1061 160.841 22.825 160.672 22.5923C160.508 22.356 160.289 22.2002 160.017 22.125C159.842 22.0785 159.518 22.0552 159.045 22.0552H157.031V24.8696ZM163.191 29V23.2959H164.062V24.1606C164.284 23.756 164.488 23.4893 164.674 23.3604C164.864 23.2314 165.071 23.167 165.297 23.167C165.623 23.167 165.954 23.2708 166.291 23.4785L165.958 24.3755C165.721 24.2358 165.485 24.166 165.249 24.166C165.037 24.166 164.847 24.2305 164.679 24.3594C164.511 24.4847 164.391 24.6602 164.319 24.8857C164.212 25.2295 164.158 25.6055 164.158 26.0137V29H163.191ZM166.505 26.1479C166.505 25.0916 166.799 24.3092 167.386 23.8008C167.877 23.3783 168.475 23.167 169.18 23.167C169.964 23.167 170.605 23.4248 171.103 23.9404C171.601 24.4525 171.85 25.1615 171.85 26.0674C171.85 26.8014 171.739 27.3797 171.517 27.8022C171.298 28.2212 170.978 28.547 170.555 28.7798C170.136 29.0125 169.678 29.1289 169.18 29.1289C168.382 29.1289 167.735 28.8729 167.241 28.3608C166.751 27.8488 166.505 27.1112 166.505 26.1479ZM167.499 26.1479C167.499 26.8784 167.658 27.4263 167.977 27.7915C168.296 28.1532 168.697 28.334 169.18 28.334C169.66 28.334 170.059 28.1514 170.378 27.7861C170.697 27.4209 170.856 26.8641 170.856 26.1157C170.856 25.4103 170.695 24.8768 170.373 24.5151C170.054 24.1499 169.656 23.9673 169.18 23.9673C168.697 23.9673 168.296 24.1481 167.977 24.5098C167.658 24.8714 167.499 25.4175 167.499 26.1479ZM172.983 22.2485V21.126H173.95V22.2485H172.983ZM171.758 31.2129L171.941 30.3911C172.134 30.4412 172.286 30.4663 172.397 30.4663C172.594 30.4663 172.741 30.4001 172.838 30.2676C172.935 30.1387 172.983 29.8128 172.983 29.29V23.2959H173.95V29.3115C173.95 30.0133 173.858 30.5021 173.676 30.7778C173.443 31.1359 173.056 31.3149 172.516 31.3149C172.254 31.3149 172.002 31.2809 171.758 31.2129ZM179.342 27.1631L180.341 27.2866C180.184 27.8703 179.892 28.3232 179.466 28.6455C179.04 28.9678 178.495 29.1289 177.833 29.1289C176.999 29.1289 176.336 28.8729 175.846 28.3608C175.359 27.8452 175.115 27.1237 175.115 26.1963C175.115 25.2367 175.362 24.4919 175.856 23.9619C176.351 23.432 176.992 23.167 177.779 23.167C178.542 23.167 179.165 23.4266 179.648 23.9458C180.132 24.465 180.374 25.1955 180.374 26.1372C180.374 26.1945 180.372 26.2804 180.368 26.395H176.114C176.15 27.0216 176.327 27.5015 176.646 27.8345C176.965 28.1675 177.362 28.334 177.838 28.334C178.193 28.334 178.495 28.2409 178.746 28.0547C178.997 27.8685 179.195 27.5713 179.342 27.1631ZM176.168 25.6001H179.353C179.31 25.1203 179.188 24.7604 178.988 24.5205C178.68 24.1481 178.281 23.9619 177.79 23.9619C177.346 23.9619 176.972 24.1105 176.667 24.4077C176.367 24.7049 176.2 25.1024 176.168 25.6001ZM185.283 26.9106L186.233 27.0342C186.13 27.6895 185.863 28.2033 185.433 28.5757C185.007 28.9445 184.482 29.1289 183.859 29.1289C183.079 29.1289 182.45 28.8747 181.974 28.3662C181.501 27.8542 181.265 27.1219 181.265 26.1694C181.265 25.5535 181.367 25.0146 181.571 24.5527C181.775 24.0908 182.085 23.7453 182.5 23.5161C182.919 23.2834 183.374 23.167 183.865 23.167C184.484 23.167 184.991 23.3245 185.385 23.6396C185.779 23.9512 186.031 24.3952 186.142 24.9717L185.202 25.1167C185.113 24.7336 184.953 24.4453 184.724 24.252C184.499 24.0586 184.225 23.9619 183.902 23.9619C183.415 23.9619 183.02 24.1374 182.715 24.4883C182.411 24.8356 182.259 25.387 182.259 26.1426C182.259 26.9089 182.406 27.4657 182.699 27.813C182.993 28.1603 183.376 28.334 183.849 28.334C184.228 28.334 184.545 28.2176 184.799 27.9849C185.054 27.7521 185.215 27.394 185.283 26.9106ZM189.171 28.1353L189.311 28.9893C189.039 29.0465 188.795 29.0752 188.581 29.0752C188.23 29.0752 187.958 29.0197 187.764 28.9087C187.571 28.7977 187.435 28.6527 187.356 28.4736C187.277 28.291 187.238 27.9097 187.238 27.3296V24.0479H186.529V23.2959H187.238V21.8833L188.199 21.3032V23.2959H189.171V24.0479H188.199V27.3833C188.199 27.659 188.215 27.8363 188.248 27.915C188.283 27.9938 188.339 28.0565 188.414 28.103C188.493 28.1496 188.604 28.1729 188.747 28.1729C188.854 28.1729 188.996 28.1603 189.171 28.1353ZM189.735 27.2974L190.691 27.147C190.745 27.5301 190.894 27.8237 191.137 28.0278C191.384 28.2319 191.728 28.334 192.168 28.334C192.612 28.334 192.942 28.2445 193.157 28.0654C193.372 27.8828 193.479 27.6698 193.479 27.4263C193.479 27.2078 193.384 27.036 193.194 26.9106C193.062 26.8247 192.732 26.7155 192.206 26.583C191.497 26.404 191.005 26.25 190.729 26.1211C190.457 25.9886 190.249 25.8078 190.106 25.5786C189.966 25.3459 189.896 25.0898 189.896 24.8105C189.896 24.5563 189.954 24.3218 190.068 24.1069C190.187 23.8885 190.346 23.7077 190.546 23.5645C190.697 23.4535 190.901 23.3604 191.159 23.2852C191.42 23.2064 191.699 23.167 191.997 23.167C192.444 23.167 192.836 23.2314 193.173 23.3604C193.513 23.4893 193.764 23.6647 193.925 23.8867C194.086 24.1051 194.197 24.3988 194.258 24.7676L193.312 24.8965C193.27 24.6029 193.144 24.3737 192.937 24.209C192.732 24.0443 192.442 23.9619 192.066 23.9619C191.622 23.9619 191.306 24.0353 191.116 24.1821C190.926 24.3289 190.831 24.5008 190.831 24.6978C190.831 24.8231 190.87 24.9359 190.949 25.0361C191.028 25.14 191.152 25.2259 191.32 25.2939C191.417 25.3298 191.701 25.4121 192.174 25.541C192.858 25.7236 193.334 25.874 193.603 25.9922C193.875 26.1068 194.088 26.2751 194.242 26.4971C194.396 26.7191 194.473 26.9948 194.473 27.3242C194.473 27.6465 194.378 27.9508 194.188 28.2373C194.002 28.5202 193.731 28.7404 193.377 28.8979C193.022 29.0519 192.621 29.1289 192.174 29.1289C191.433 29.1289 190.867 28.9749 190.477 28.667C190.09 28.359 189.843 27.9025 189.735 27.2974ZM197.33 29L200.354 21.126H201.477L204.699 29H203.512L202.594 26.6152H199.301L198.437 29H197.33ZM199.602 25.7666H202.271L201.45 23.5859C201.199 22.9235 201.013 22.3792 200.891 21.9531C200.791 22.458 200.649 22.9593 200.467 23.457L199.602 25.7666ZM209.13 26.9106L210.081 27.0342C209.977 27.6895 209.71 28.2033 209.281 28.5757C208.855 28.9445 208.33 29.1289 207.707 29.1289C206.926 29.1289 206.298 28.8747 205.822 28.3662C205.349 27.8542 205.113 27.1219 205.113 26.1694C205.113 25.5535 205.215 25.0146 205.419 24.5527C205.623 24.0908 205.933 23.7453 206.348 23.5161C206.767 23.2834 207.222 23.167 207.712 23.167C208.332 23.167 208.839 23.3245 209.232 23.6396C209.626 23.9512 209.879 24.3952 209.99 24.9717L209.05 25.1167C208.96 24.7336 208.801 24.4453 208.572 24.252C208.346 24.0586 208.072 23.9619 207.75 23.9619C207.263 23.9619 206.867 24.1374 206.563 24.4883C206.259 24.8356 206.106 25.387 206.106 26.1426C206.106 26.9089 206.253 27.4657 206.547 27.813C206.84 28.1603 207.224 28.334 207.696 28.334C208.076 28.334 208.393 28.2176 208.647 27.9849C208.901 27.7521 209.062 27.394 209.13 26.9106ZM214.63 26.9106L215.581 27.0342C215.477 27.6895 215.21 28.2033 214.781 28.5757C214.355 28.9445 213.83 29.1289 213.207 29.1289C212.426 29.1289 211.798 28.8747 211.322 28.3662C210.849 27.8542 210.613 27.1219 210.613 26.1694C210.613 25.5535 210.715 25.0146 210.919 24.5527C211.123 24.0908 211.433 23.7453 211.848 23.5161C212.267 23.2834 212.722 23.167 213.212 23.167C213.832 23.167 214.339 23.3245 214.732 23.6396C215.126 23.9512 215.379 24.3952 215.49 24.9717L214.55 25.1167C214.46 24.7336 214.301 24.4453 214.072 24.252C213.846 24.0586 213.572 23.9619 213.25 23.9619C212.763 23.9619 212.367 24.1374 212.063 24.4883C211.759 24.8356 211.606 25.387 211.606 26.1426C211.606 26.9089 211.753 27.4657 212.047 27.813C212.34 28.1603 212.724 28.334 213.196 28.334C213.576 28.334 213.893 28.2176 214.147 27.9849C214.401 27.7521 214.562 27.394 214.63 26.9106ZM216.048 26.1479C216.048 25.0916 216.342 24.3092 216.929 23.8008C217.42 23.3783 218.018 23.167 218.723 23.167C219.507 23.167 220.148 23.4248 220.646 23.9404C221.144 24.4525 221.393 25.1615 221.393 26.0674C221.393 26.8014 221.282 27.3797 221.06 27.8022C220.841 28.2212 220.521 28.547 220.098 28.7798C219.679 29.0125 219.221 29.1289 218.723 29.1289C217.925 29.1289 217.278 28.8729 216.784 28.3608C216.294 27.8488 216.048 27.1112 216.048 26.1479ZM217.042 26.1479C217.042 26.8784 217.201 27.4263 217.52 27.7915C217.839 28.1532 218.24 28.334 218.723 28.334C219.203 28.334 219.602 28.1514 219.921 27.7861C220.24 27.4209 220.399 26.8641 220.399 26.1157C220.399 25.4103 220.238 24.8768 219.916 24.5151C219.597 24.1499 219.199 23.9673 218.723 23.9673C218.24 23.9673 217.839 24.1481 217.52 24.5098C217.201 24.8714 217.042 25.4175 217.042 26.1479ZM222.531 29V23.2959H223.396V24.0962C223.575 23.8169 223.813 23.5931 224.11 23.4248C224.408 23.2529 224.746 23.167 225.125 23.167C225.548 23.167 225.894 23.2547 226.162 23.4302C226.434 23.6056 226.626 23.8509 226.737 24.166C227.188 23.5 227.775 23.167 228.499 23.167C229.064 23.167 229.499 23.3245 229.804 23.6396C230.108 23.9512 230.26 24.4328 230.26 25.0845V29H229.299V25.4067C229.299 25.02 229.267 24.7425 229.202 24.5742C229.141 24.4023 229.028 24.2645 228.864 24.1606C228.699 24.0568 228.506 24.0049 228.284 24.0049C227.883 24.0049 227.55 24.1392 227.285 24.4077C227.02 24.6727 226.887 25.0988 226.887 25.686V29H225.92V25.2939C225.92 24.8643 225.842 24.542 225.684 24.3271C225.527 24.1123 225.269 24.0049 224.911 24.0049C224.639 24.0049 224.386 24.0765 224.153 24.2197C223.924 24.363 223.758 24.5724 223.654 24.8481C223.55 25.1239 223.498 25.5213 223.498 26.0405V29H222.531ZM231.694 31.186V23.2959H232.575V24.0371C232.783 23.7471 233.017 23.5304 233.279 23.3872C233.54 23.2404 233.857 23.167 234.229 23.167C234.716 23.167 235.146 23.2923 235.519 23.543C235.891 23.7936 236.172 24.1481 236.362 24.6064C236.552 25.0612 236.646 25.5607 236.646 26.105C236.646 26.6886 236.541 27.215 236.33 27.6841C236.122 28.1496 235.818 28.5076 235.417 28.7583C235.019 29.0054 234.6 29.1289 234.16 29.1289C233.837 29.1289 233.547 29.0609 233.29 28.9248C233.035 28.7887 232.826 28.6169 232.661 28.4092V31.186H231.694ZM232.57 26.1802C232.57 26.9142 232.718 27.4567 233.016 27.8076C233.313 28.1585 233.673 28.334 234.095 28.334C234.525 28.334 234.892 28.1532 235.196 27.7915C235.504 27.4263 235.658 26.8623 235.658 26.0996C235.658 25.3727 235.508 24.8285 235.207 24.4668C234.91 24.1051 234.554 23.9243 234.138 23.9243C233.726 23.9243 233.361 24.1177 233.042 24.5044C232.727 24.8875 232.57 25.4461 232.57 26.1802ZM237.796 29V21.126H238.763V29H237.796ZM240.272 22.2378V21.126H241.239V22.2378H240.272ZM240.272 29V23.2959H241.239V29H240.272ZM242.329 27.2974L243.285 27.147C243.339 27.5301 243.487 27.8237 243.731 28.0278C243.978 28.2319 244.322 28.334 244.762 28.334C245.206 28.334 245.536 28.2445 245.75 28.0654C245.965 27.8828 246.073 27.6698 246.073 27.4263C246.073 27.2078 245.978 27.036 245.788 26.9106C245.656 26.8247 245.326 26.7155 244.8 26.583C244.091 26.404 243.598 26.25 243.323 26.1211C243.051 25.9886 242.843 25.8078 242.7 25.5786C242.56 25.3459 242.49 25.0898 242.49 24.8105C242.49 24.5563 242.548 24.3218 242.662 24.1069C242.78 23.8885 242.94 23.7077 243.14 23.5645C243.291 23.4535 243.495 23.3604 243.752 23.2852C244.014 23.2064 244.293 23.167 244.59 23.167C245.038 23.167 245.43 23.2314 245.767 23.3604C246.107 23.4893 246.357 23.6647 246.519 23.8867C246.68 24.1051 246.791 24.3988 246.852 24.7676L245.906 24.8965C245.863 24.6029 245.738 24.3737 245.53 24.209C245.326 24.0443 245.036 23.9619 244.66 23.9619C244.216 23.9619 243.899 24.0353 243.709 24.1821C243.52 24.3289 243.425 24.5008 243.425 24.6978C243.425 24.8231 243.464 24.9359 243.543 25.0361C243.622 25.14 243.745 25.2259 243.914 25.2939C244.01 25.3298 244.295 25.4121 244.768 25.541C245.451 25.7236 245.928 25.874 246.196 25.9922C246.468 26.1068 246.681 26.2751 246.835 26.4971C246.989 26.7191 247.066 26.9948 247.066 27.3242C247.066 27.6465 246.972 27.9508 246.782 28.2373C246.596 28.5202 246.325 28.7404 245.971 28.8979C245.616 29.0519 245.215 29.1289 244.768 29.1289C244.026 29.1289 243.461 28.9749 243.07 28.667C242.684 28.359 242.437 27.9025 242.329 27.2974ZM248.216 29V21.126H249.183V23.9512C249.634 23.4284 250.203 23.167 250.891 23.167C251.313 23.167 251.68 23.2511 251.992 23.4194C252.303 23.5841 252.525 23.8133 252.658 24.1069C252.794 24.4006 252.862 24.8267 252.862 25.3853V29H251.895V25.3853C251.895 24.9019 251.789 24.5509 251.578 24.3325C251.37 24.1105 251.075 23.9995 250.692 23.9995C250.405 23.9995 250.135 24.0747 249.881 24.2251C249.63 24.3719 249.451 24.5724 249.344 24.8267C249.236 25.0809 249.183 25.4318 249.183 25.8794V29H248.216ZM258.244 27.1631L259.243 27.2866C259.085 27.8703 258.793 28.3232 258.367 28.6455C257.941 28.9678 257.397 29.1289 256.734 29.1289C255.9 29.1289 255.238 28.8729 254.747 28.3608C254.26 27.8452 254.017 27.1237 254.017 26.1963C254.017 25.2367 254.264 24.4919 254.758 23.9619C255.252 23.432 255.893 23.167 256.681 23.167C257.443 23.167 258.066 23.4266 258.55 23.9458C259.033 24.465 259.275 25.1955 259.275 26.1372C259.275 26.1945 259.273 26.2804 259.27 26.395H255.016C255.051 27.0216 255.229 27.5015 255.547 27.8345C255.866 28.1675 256.264 28.334 256.74 28.334C257.094 28.334 257.397 28.2409 257.647 28.0547C257.898 27.8685 258.097 27.5713 258.244 27.1631ZM255.069 25.6001H258.254C258.211 25.1203 258.09 24.7604 257.889 24.5205C257.581 24.1481 257.182 23.9619 256.691 23.9619C256.247 23.9619 255.873 24.1105 255.569 24.4077C255.268 24.7049 255.102 25.1024 255.069 25.6001ZM264.163 29V28.2803C263.801 28.846 263.269 29.1289 262.567 29.1289C262.113 29.1289 261.694 29.0036 261.311 28.7529C260.931 28.5023 260.636 28.1532 260.424 27.7056C260.217 27.2544 260.113 26.737 260.113 26.1533C260.113 25.584 260.208 25.0684 260.397 24.6064C260.587 24.141 260.872 23.7847 261.251 23.5376C261.631 23.2905 262.055 23.167 262.524 23.167C262.868 23.167 263.174 23.2404 263.443 23.3872C263.711 23.5304 263.93 23.7184 264.098 23.9512V21.126H265.06V29H264.163ZM261.106 26.1533C261.106 26.8838 261.26 27.4299 261.568 27.7915C261.876 28.1532 262.24 28.334 262.659 28.334C263.081 28.334 263.439 28.1621 263.733 27.8184C264.03 27.471 264.179 26.9429 264.179 26.2339C264.179 25.4533 264.028 24.8804 263.728 24.5151C263.427 24.1499 263.056 23.9673 262.616 23.9673C262.186 23.9673 261.826 24.1427 261.536 24.4937C261.25 24.8446 261.106 25.3978 261.106 26.1533Z" fill="white"/>
</g>
<g filter="url(#filter5_d_710_1232)">
<path d="M171.164 72H165.676V51.3164C163.671 53.1914 161.307 54.5781 158.586 55.4766V50.4961C160.018 50.0273 161.574 49.1419 163.254 47.8398C164.934 46.5247 166.086 44.9948 166.711 43.25H171.164V72ZM179.465 64.6367L184.934 64.0703C185.09 65.3073 185.552 66.2904 186.32 67.0195C187.089 67.7357 187.974 68.0938 188.977 68.0938C190.122 68.0938 191.092 67.6315 191.887 66.707C192.681 65.7695 193.078 64.3633 193.078 62.4883C193.078 60.7305 192.681 59.4154 191.887 58.543C191.105 57.6576 190.083 57.2148 188.82 57.2148C187.245 57.2148 185.832 57.9115 184.582 59.3047L180.129 58.6602L182.941 43.7578H197.453V48.8945H187.102L186.242 53.7578C187.466 53.1458 188.716 52.8398 189.992 52.8398C192.427 52.8398 194.491 53.7253 196.184 55.4961C197.876 57.2669 198.723 59.5651 198.723 62.3906C198.723 64.7474 198.039 66.8503 196.672 68.6992C194.81 71.2253 192.225 72.4883 188.918 72.4883C186.275 72.4883 184.12 71.7786 182.453 70.3594C180.786 68.9401 179.79 67.0326 179.465 64.6367ZM210.93 43.25C213.703 43.25 215.871 44.2396 217.434 46.2188C219.296 48.5625 220.227 52.4492 220.227 57.8789C220.227 63.2956 219.289 67.1888 217.414 69.5586C215.865 71.5117 213.703 72.4883 210.93 72.4883C208.143 72.4883 205.897 71.4206 204.191 69.2852C202.486 67.1367 201.633 63.3151 201.633 57.8203C201.633 52.4297 202.57 48.5495 204.445 46.1797C205.995 44.2266 208.156 43.25 210.93 43.25ZM210.93 47.8008C210.266 47.8008 209.673 48.0156 209.152 48.4453C208.632 48.862 208.228 49.6172 207.941 50.7109C207.564 52.1302 207.375 54.5195 207.375 57.8789C207.375 61.2383 207.544 63.5495 207.883 64.8125C208.221 66.0625 208.645 66.8958 209.152 67.3125C209.673 67.7292 210.266 67.9375 210.93 67.9375C211.594 67.9375 212.186 67.7292 212.707 67.3125C213.228 66.8828 213.632 66.1211 213.918 65.0273C214.296 63.6211 214.484 61.2383 214.484 57.8789C214.484 54.5195 214.315 52.2148 213.977 50.9648C213.638 49.7018 213.208 48.862 212.688 48.4453C212.18 48.0156 211.594 47.8008 210.93 47.8008ZM231.379 67.8789V60.4375H223.879V55.3008H231.379V47.8594H236.379V55.3008H243.898V60.4375H236.379V67.8789H231.379Z" fill="white"/>
</g>
<g filter="url(#filter6_d_710_1232)">
<path d="M155.494 107.47L156.477 107.384C156.524 107.778 156.631 108.102 156.799 108.356C156.971 108.607 157.236 108.811 157.594 108.969C157.952 109.123 158.355 109.2 158.803 109.2C159.2 109.2 159.551 109.141 159.855 109.022C160.16 108.904 160.385 108.743 160.532 108.539C160.683 108.331 160.758 108.106 160.758 107.862C160.758 107.615 160.686 107.4 160.543 107.218C160.4 107.032 160.163 106.876 159.834 106.75C159.623 106.668 159.155 106.541 158.432 106.369C157.709 106.194 157.202 106.029 156.912 105.875C156.536 105.678 156.255 105.435 156.069 105.145C155.886 104.851 155.795 104.523 155.795 104.162C155.795 103.764 155.908 103.394 156.133 103.05C156.359 102.702 156.688 102.439 157.122 102.26C157.555 102.081 158.036 101.992 158.566 101.992C159.15 101.992 159.664 102.087 160.108 102.276C160.556 102.463 160.899 102.738 161.139 103.104C161.379 103.469 161.508 103.882 161.526 104.344L160.527 104.419C160.473 103.922 160.291 103.546 159.979 103.292C159.671 103.037 159.215 102.91 158.609 102.91C157.979 102.91 157.519 103.027 157.229 103.259C156.943 103.488 156.799 103.766 156.799 104.092C156.799 104.375 156.901 104.607 157.105 104.79C157.306 104.973 157.829 105.161 158.674 105.354C159.522 105.544 160.104 105.71 160.419 105.854C160.878 106.065 161.216 106.333 161.435 106.659C161.653 106.981 161.762 107.354 161.762 107.776C161.762 108.195 161.642 108.591 161.402 108.963C161.162 109.332 160.817 109.62 160.366 109.828C159.918 110.032 159.413 110.134 158.851 110.134C158.139 110.134 157.541 110.03 157.057 109.823C156.577 109.615 156.2 109.304 155.924 108.888C155.652 108.469 155.508 107.997 155.494 107.47ZM166.8 110V109.162C166.356 109.807 165.753 110.129 164.99 110.129C164.654 110.129 164.339 110.064 164.045 109.936C163.755 109.807 163.538 109.646 163.395 109.452C163.255 109.255 163.157 109.015 163.1 108.732C163.06 108.543 163.041 108.242 163.041 107.83V104.296H164.007V107.459C164.007 107.964 164.027 108.305 164.066 108.48C164.127 108.734 164.256 108.935 164.453 109.082C164.65 109.225 164.894 109.296 165.184 109.296C165.474 109.296 165.746 109.223 166 109.076C166.254 108.926 166.433 108.723 166.537 108.469C166.645 108.211 166.698 107.839 166.698 107.352V104.296H167.665V110H166.8ZM172.907 107.911L173.858 108.034C173.754 108.689 173.487 109.203 173.058 109.576C172.632 109.944 172.107 110.129 171.484 110.129C170.703 110.129 170.075 109.875 169.599 109.366C169.126 108.854 168.89 108.122 168.89 107.169C168.89 106.554 168.992 106.015 169.196 105.553C169.4 105.091 169.71 104.745 170.125 104.516C170.544 104.283 170.999 104.167 171.489 104.167C172.109 104.167 172.615 104.325 173.009 104.64C173.403 104.951 173.656 105.395 173.767 105.972L172.827 106.117C172.737 105.734 172.578 105.445 172.349 105.252C172.123 105.059 171.849 104.962 171.527 104.962C171.04 104.962 170.644 105.137 170.34 105.488C170.035 105.836 169.883 106.387 169.883 107.143C169.883 107.909 170.03 108.466 170.324 108.813C170.617 109.16 171 109.334 171.473 109.334C171.853 109.334 172.17 109.218 172.424 108.985C172.678 108.752 172.839 108.394 172.907 107.911ZM178.407 107.911L179.358 108.034C179.254 108.689 178.987 109.203 178.558 109.576C178.132 109.944 177.607 110.129 176.984 110.129C176.203 110.129 175.575 109.875 175.099 109.366C174.626 108.854 174.39 108.122 174.39 107.169C174.39 106.554 174.492 106.015 174.696 105.553C174.9 105.091 175.21 104.745 175.625 104.516C176.044 104.283 176.499 104.167 176.989 104.167C177.609 104.167 178.115 104.325 178.509 104.64C178.903 104.951 179.156 105.395 179.267 105.972L178.327 106.117C178.237 105.734 178.078 105.445 177.849 105.252C177.623 105.059 177.349 104.962 177.027 104.962C176.54 104.962 176.144 105.137 175.84 105.488C175.535 105.836 175.383 106.387 175.383 107.143C175.383 107.909 175.53 108.466 175.824 108.813C176.117 109.16 176.5 109.334 176.973 109.334C177.353 109.334 177.67 109.218 177.924 108.985C178.178 108.752 178.339 108.394 178.407 107.911ZM184.09 108.163L185.089 108.287C184.931 108.87 184.639 109.323 184.213 109.646C183.787 109.968 183.243 110.129 182.581 110.129C181.746 110.129 181.084 109.873 180.593 109.361C180.106 108.845 179.863 108.124 179.863 107.196C179.863 106.237 180.11 105.492 180.604 104.962C181.098 104.432 181.739 104.167 182.527 104.167C183.29 104.167 183.913 104.427 184.396 104.946C184.879 105.465 185.121 106.195 185.121 107.137C185.121 107.194 185.119 107.28 185.116 107.395H180.862C180.898 108.022 181.075 108.501 181.394 108.834C181.712 109.167 182.11 109.334 182.586 109.334C182.94 109.334 183.243 109.241 183.494 109.055C183.744 108.868 183.943 108.571 184.09 108.163ZM180.916 106.6H184.101C184.058 106.12 183.936 105.76 183.735 105.521C183.427 105.148 183.028 104.962 182.538 104.962C182.094 104.962 181.719 105.111 181.415 105.408C181.114 105.705 180.948 106.102 180.916 106.6ZM185.921 108.297L186.877 108.147C186.931 108.53 187.08 108.824 187.323 109.028C187.57 109.232 187.914 109.334 188.354 109.334C188.799 109.334 189.128 109.244 189.343 109.065C189.558 108.883 189.665 108.67 189.665 108.426C189.665 108.208 189.57 108.036 189.38 107.911C189.248 107.825 188.918 107.715 188.392 107.583C187.683 107.404 187.191 107.25 186.915 107.121C186.643 106.989 186.435 106.808 186.292 106.579C186.152 106.346 186.083 106.09 186.083 105.811C186.083 105.556 186.14 105.322 186.254 105.107C186.373 104.889 186.532 104.708 186.732 104.564C186.883 104.453 187.087 104.36 187.345 104.285C187.606 104.206 187.885 104.167 188.183 104.167C188.63 104.167 189.022 104.231 189.359 104.36C189.699 104.489 189.95 104.665 190.111 104.887C190.272 105.105 190.383 105.399 190.444 105.768L189.499 105.896C189.456 105.603 189.33 105.374 189.123 105.209C188.918 105.044 188.628 104.962 188.252 104.962C187.808 104.962 187.492 105.035 187.302 105.182C187.112 105.329 187.017 105.501 187.017 105.698C187.017 105.823 187.056 105.936 187.135 106.036C187.214 106.14 187.338 106.226 187.506 106.294C187.603 106.33 187.887 106.412 188.36 106.541C189.044 106.724 189.52 106.874 189.789 106.992C190.061 107.107 190.274 107.275 190.428 107.497C190.582 107.719 190.659 107.995 190.659 108.324C190.659 108.646 190.564 108.951 190.374 109.237C190.188 109.52 189.917 109.74 189.563 109.898C189.208 110.052 188.807 110.129 188.36 110.129C187.619 110.129 187.053 109.975 186.663 109.667C186.276 109.359 186.029 108.903 185.921 108.297ZM191.421 108.297L192.377 108.147C192.431 108.53 192.58 108.824 192.823 109.028C193.07 109.232 193.414 109.334 193.854 109.334C194.299 109.334 194.628 109.244 194.843 109.065C195.058 108.883 195.165 108.67 195.165 108.426C195.165 108.208 195.07 108.036 194.88 107.911C194.748 107.825 194.418 107.715 193.892 107.583C193.183 107.404 192.691 107.25 192.415 107.121C192.143 106.989 191.935 106.808 191.792 106.579C191.652 106.346 191.583 106.09 191.583 105.811C191.583 105.556 191.64 105.322 191.754 105.107C191.873 104.889 192.032 104.708 192.232 104.564C192.383 104.453 192.587 104.36 192.845 104.285C193.106 104.206 193.385 104.167 193.683 104.167C194.13 104.167 194.522 104.231 194.859 104.36C195.199 104.489 195.45 104.665 195.611 104.887C195.772 105.105 195.883 105.399 195.944 105.768L194.999 105.896C194.956 105.603 194.83 105.374 194.623 105.209C194.418 105.044 194.128 104.962 193.752 104.962C193.308 104.962 192.992 105.035 192.802 105.182C192.612 105.329 192.517 105.501 192.517 105.698C192.517 105.823 192.556 105.936 192.635 106.036C192.714 106.14 192.838 106.226 193.006 106.294C193.103 106.33 193.387 106.412 193.86 106.541C194.544 106.724 195.02 106.874 195.289 106.992C195.561 107.107 195.774 107.275 195.928 107.497C196.082 107.719 196.159 107.995 196.159 108.324C196.159 108.646 196.064 108.951 195.874 109.237C195.688 109.52 195.417 109.74 195.063 109.898C194.708 110.052 194.307 110.129 193.86 110.129C193.119 110.129 192.553 109.975 192.163 109.667C191.776 109.359 191.529 108.903 191.421 108.297ZM200.509 110V102.126H204C204.702 102.126 205.236 102.198 205.601 102.341C205.966 102.48 206.258 102.729 206.477 103.087C206.695 103.445 206.804 103.841 206.804 104.274C206.804 104.833 206.623 105.304 206.262 105.687C205.9 106.07 205.341 106.314 204.586 106.417C204.862 106.55 205.071 106.681 205.214 106.81C205.519 107.089 205.807 107.438 206.079 107.857L207.449 110H206.138L205.096 108.362C204.792 107.889 204.541 107.528 204.344 107.277C204.147 107.026 203.97 106.851 203.812 106.75C203.659 106.65 203.501 106.58 203.34 106.541C203.222 106.516 203.028 106.503 202.76 106.503H201.551V110H200.509ZM201.551 105.601H203.791C204.267 105.601 204.64 105.553 204.908 105.456C205.177 105.356 205.381 105.198 205.521 104.983C205.66 104.765 205.73 104.529 205.73 104.274C205.73 103.902 205.594 103.596 205.322 103.356C205.053 103.116 204.627 102.996 204.043 102.996H201.551V105.601ZM212.041 109.296C211.683 109.601 211.337 109.816 211.004 109.941C210.675 110.066 210.32 110.129 209.941 110.129C209.314 110.129 208.833 109.977 208.496 109.672C208.16 109.364 207.991 108.972 207.991 108.496C207.991 108.217 208.054 107.963 208.179 107.733C208.308 107.501 208.475 107.314 208.679 107.175C208.886 107.035 209.119 106.93 209.377 106.858C209.567 106.808 209.853 106.759 210.236 106.713C211.017 106.62 211.592 106.509 211.96 106.38C211.964 106.247 211.966 106.163 211.966 106.127C211.966 105.734 211.875 105.456 211.692 105.295C211.445 105.076 211.078 104.967 210.591 104.967C210.136 104.967 209.799 105.048 209.581 105.209C209.366 105.367 209.207 105.648 209.103 106.052L208.158 105.923C208.244 105.519 208.385 105.193 208.582 104.946C208.779 104.695 209.064 104.504 209.436 104.371C209.808 104.235 210.24 104.167 210.73 104.167C211.217 104.167 211.613 104.224 211.917 104.339C212.222 104.453 212.446 104.598 212.589 104.774C212.732 104.946 212.832 105.164 212.89 105.429C212.922 105.594 212.938 105.891 212.938 106.321V107.61C212.938 108.509 212.958 109.078 212.997 109.318C213.04 109.554 213.122 109.782 213.244 110H212.234C212.134 109.799 212.07 109.565 212.041 109.296ZM211.96 107.137C211.61 107.28 211.083 107.402 210.381 107.502C209.984 107.56 209.703 107.624 209.538 107.696C209.373 107.767 209.246 107.873 209.157 108.013C209.067 108.149 209.022 108.301 209.022 108.469C209.022 108.727 209.119 108.942 209.312 109.114C209.509 109.286 209.796 109.372 210.172 109.372C210.544 109.372 210.875 109.291 211.166 109.13C211.456 108.965 211.669 108.741 211.805 108.458C211.909 108.24 211.96 107.918 211.96 107.492V107.137ZM216.553 109.135L216.692 109.989C216.42 110.047 216.177 110.075 215.962 110.075C215.611 110.075 215.339 110.02 215.146 109.909C214.952 109.798 214.816 109.653 214.737 109.474C214.659 109.291 214.619 108.91 214.619 108.33V105.048H213.91V104.296H214.619V102.883L215.581 102.303V104.296H216.553V105.048H215.581V108.383C215.581 108.659 215.597 108.836 215.629 108.915C215.665 108.994 215.72 109.056 215.795 109.103C215.874 109.15 215.985 109.173 216.128 109.173C216.236 109.173 216.377 109.16 216.553 109.135ZM217.509 103.238V102.126H218.476V103.238H217.509ZM217.509 110V104.296H218.476V110H217.509ZM219.593 107.148C219.593 106.092 219.886 105.309 220.474 104.801C220.964 104.378 221.562 104.167 222.268 104.167C223.052 104.167 223.693 104.425 224.19 104.94C224.688 105.452 224.937 106.161 224.937 107.067C224.937 107.801 224.826 108.38 224.604 108.802C224.386 109.221 224.065 109.547 223.643 109.78C223.224 110.013 222.765 110.129 222.268 110.129C221.469 110.129 220.823 109.873 220.329 109.361C219.838 108.849 219.593 108.111 219.593 107.148ZM220.586 107.148C220.586 107.878 220.746 108.426 221.064 108.792C221.383 109.153 221.784 109.334 222.268 109.334C222.747 109.334 223.147 109.151 223.465 108.786C223.784 108.421 223.943 107.864 223.943 107.116C223.943 106.41 223.782 105.877 223.46 105.515C223.141 105.15 222.744 104.967 222.268 104.967C221.784 104.967 221.383 105.148 221.064 105.51C220.746 105.871 220.586 106.417 220.586 107.148Z" fill="white"/>
</g>
<g filter="url(#filter7_d_710_1232)">
<path d="M156.871 146.379L162.184 145.793C162.314 146.874 162.652 147.674 163.199 148.195C163.746 148.716 164.469 148.977 165.367 148.977C166.5 148.977 167.464 148.456 168.258 147.414C169.052 146.372 169.56 144.211 169.781 140.93C168.401 142.531 166.676 143.332 164.605 143.332C162.353 143.332 160.406 142.466 158.766 140.734C157.138 138.99 156.324 136.724 156.324 133.938C156.324 131.034 157.184 128.697 158.902 126.926C160.634 125.142 162.835 124.25 165.504 124.25C168.408 124.25 170.79 125.376 172.652 127.629C174.514 129.868 175.445 133.56 175.445 138.703C175.445 143.938 174.475 147.714 172.535 150.031C170.595 152.349 168.069 153.508 164.957 153.508C162.717 153.508 160.908 152.915 159.527 151.73C158.147 150.533 157.262 148.749 156.871 146.379ZM169.293 134.387C169.293 132.616 168.883 131.242 168.062 130.266C167.255 129.289 166.318 128.801 165.25 128.801C164.234 128.801 163.388 129.204 162.711 130.012C162.047 130.806 161.715 132.115 161.715 133.938C161.715 135.786 162.079 137.147 162.809 138.02C163.538 138.879 164.449 139.309 165.543 139.309C166.598 139.309 167.483 138.892 168.199 138.059C168.928 137.225 169.293 136.001 169.293 134.387ZM183.727 137.551C182.307 136.952 181.272 136.132 180.621 135.09C179.983 134.035 179.664 132.883 179.664 131.633C179.664 129.497 180.406 127.733 181.891 126.34C183.388 124.947 185.51 124.25 188.258 124.25C190.979 124.25 193.089 124.947 194.586 126.34C196.096 127.733 196.852 129.497 196.852 131.633C196.852 132.961 196.507 134.146 195.816 135.188C195.126 136.216 194.156 137.004 192.906 137.551C194.495 138.189 195.699 139.12 196.52 140.344C197.353 141.568 197.77 142.98 197.77 144.582C197.77 147.225 196.923 149.374 195.23 151.027C193.551 152.681 191.311 153.508 188.512 153.508C185.908 153.508 183.74 152.824 182.008 151.457C179.964 149.842 178.941 147.629 178.941 144.816C178.941 143.267 179.326 141.848 180.094 140.559C180.862 139.257 182.073 138.254 183.727 137.551ZM184.859 132.023C184.859 133.117 185.165 133.97 185.777 134.582C186.402 135.194 187.229 135.5 188.258 135.5C189.299 135.5 190.133 135.194 190.758 134.582C191.383 133.957 191.695 133.098 191.695 132.004C191.695 130.975 191.383 130.155 190.758 129.543C190.146 128.918 189.332 128.605 188.316 128.605C187.262 128.605 186.422 128.918 185.797 129.543C185.172 130.168 184.859 130.995 184.859 132.023ZM184.352 144.289C184.352 145.799 184.736 146.978 185.504 147.824C186.285 148.671 187.255 149.094 188.414 149.094C189.547 149.094 190.484 148.69 191.227 147.883C191.969 147.062 192.34 145.884 192.34 144.348C192.34 143.007 191.962 141.932 191.207 141.125C190.452 140.305 189.495 139.895 188.336 139.895C186.995 139.895 185.992 140.357 185.328 141.281C184.677 142.206 184.352 143.208 184.352 144.289ZM208.746 148.879V141.438H201.246V136.301H208.746V128.859H213.746V136.301H221.266V141.438H213.746V148.879H208.746Z" fill="white"/>
</g>
<defs>
<filter id="filter0_d_710_1232" x="19.835" y="20.4917" width="115.781" height="12.3232" filterUnits="userSpaceOnUse" color-interpolation-filters="sRGB">
<feFlood flood-opacity="0" result="BackgroundImageFix"/>
<feColorMatrix in="SourceAlpha" type="matrix" values="0 0 0 0 0 0 0 0 0 0 0 0 0 0 0 0 0 0 127 0" result="hardAlpha"/>
<feOffset dy="0.5"/>
<feGaussianBlur stdDeviation="0.5"/>
<feComposite in2="hardAlpha" operator="out"/>
<feColorMatrix type="matrix" values="0 0 0 0 0 0 0 0 0 0 0 0 0 0 0 0 0 0 0.25 0"/>
<feBlend mode="normal" in2="BackgroundImageFix" result="effect1_dropShadow_710_1232"/>
<feBlend mode="normal" in="SourceGraphic" in2="effect1_dropShadow_710_1232" result="shape"/>
</filter>
<filter id="filter1_d_710_1232" x="23.5859" y="43.25" width="87.3125" height="31.2383" filterUnits="userSpaceOnUse" color-interpolation-filters="sRGB">
<feFlood flood-opacity="0" result="BackgroundImageFix"/>
<feColorMatrix in="SourceAlpha" type="matrix" values="0 0 0 0 0 0 0 0 0 0 0 0 0 0 0 0 0 0 127 0" result="hardAlpha"/>
<feOffset dy="1"/>
<feGaussianBlur stdDeviation="0.5"/>
<feComposite in2="hardAlpha" operator="out"/>
<feColorMatrix type="matrix" values="0 0 0 0 0 0 0 0 0 0 0 0 0 0 0 0 0 0 0.25 0"/>
<feBlend mode="normal" in2="BackgroundImageFix" result="effect1_dropShadow_710_1232"/>
<feBlend mode="normal" in="SourceGraphic" in2="effect1_dropShadow_710_1232" result="shape"/>
</filter>
<filter id="filter2_d_710_1232" x="20.2578" y="101.492" width="72.5762" height="12.3232" filterUnits="userSpaceOnUse" color-interpolation-filters="sRGB">
<feFlood flood-opacity="0" result="BackgroundImageFix"/>
<feColorMatrix in="SourceAlpha" type="matrix" values="0 0 0 0 0 0 0 0 0 0 0 0 0 0 0 0 0 0 127 0" result="hardAlpha"/>
<feOffset dy="0.5"/>
<feGaussianBlur stdDeviation="0.5"/>
<feComposite in2="hardAlpha" operator="out"/>
<feColorMatrix type="matrix" values="0 0 0 0 0 0 0 0 0 0 0 0 0 0 0 0 0 0 0.25 0"/>
<feBlend mode="normal" in2="BackgroundImageFix" result="effect1_dropShadow_710_1232"/>
<feBlend mode="normal" in="SourceGraphic" in2="effect1_dropShadow_710_1232" result="shape"/>
</filter>
<filter id="filter3_d_710_1232" x="21.5586" y="124.25" width="66.707" height="31.2383" filterUnits="userSpaceOnUse" color-interpolation-filters="sRGB">
<feFlood flood-opacity="0" result="BackgroundImageFix"/>
<feColorMatrix in="SourceAlpha" type="matrix" values="0 0 0 0 0 0 0 0 0 0 0 0 0 0 0 0 0 0 127 0" result="hardAlpha"/>
<feOffset dy="1"/>
<feGaussianBlur stdDeviation="0.5"/>
<feComposite in2="hardAlpha" operator="out"/>
<feColorMatrix type="matrix" values="0 0 0 0 0 0 0 0 0 0 0 0 0 0 0 0 0 0 0.25 0"/>
<feBlend mode="normal" in2="BackgroundImageFix" result="effect1_dropShadow_710_1232"/>
<feBlend mode="normal" in="SourceGraphic" in2="effect1_dropShadow_710_1232" result="shape"/>
</filter>
<filter id="filter4_d_710_1232" x="154.989" y="20.626" width="111.071" height="12.189" filterUnits="userSpaceOnUse" color-interpolation-filters="sRGB">
<feFlood flood-opacity="0" result="BackgroundImageFix"/>
<feColorMatrix in="SourceAlpha" type="matrix" values="0 0 0 0 0 0 0 0 0 0 0 0 0 0 0 0 0 0 127 0" result="hardAlpha"/>
<feOffset dy="0.5"/>
<feGaussianBlur stdDeviation="0.5"/>
<feComposite in2="hardAlpha" operator="out"/>
<feColorMatrix type="matrix" values="0 0 0 0 0 0 0 0 0 0 0 0 0 0 0 0 0 0 0.25 0"/>
<feBlend mode="normal" in2="BackgroundImageFix" result="effect1_dropShadow_710_1232"/>
<feBlend mode="normal" in="SourceGraphic" in2="effect1_dropShadow_710_1232" result="shape"/>
</filter>
<filter id="filter5_d_710_1232" x="157.586" y="43.25" width="87.3125" height="31.2383" filterUnits="userSpaceOnUse" color-interpolation-filters="sRGB">
<feFlood flood-opacity="0" result="BackgroundImageFix"/>
<feColorMatrix in="SourceAlpha" type="matrix" values="0 0 0 0 0 0 0 0 0 0 0 0 0 0 0 0 0 0 127 0" result="hardAlpha"/>
<feOffset dy="1"/>
<feGaussianBlur stdDeviation="0.5"/>
<feComposite in2="hardAlpha" operator="out"/>
<feColorMatrix type="matrix" values="0 0 0 0 0 0 0 0 0 0 0 0 0 0 0 0 0 0 0.25 0"/>
<feBlend mode="normal" in2="BackgroundImageFix" result="effect1_dropShadow_710_1232"/>
<feBlend mode="normal" in="SourceGraphic" in2="effect1_dropShadow_710_1232" result="shape"/>
</filter>
<filter id="filter6_d_710_1232" x="154.494" y="101.492" width="71.4429" height="10.1426" filterUnits="userSpaceOnUse" color-interpolation-filters="sRGB">
<feFlood flood-opacity="0" result="BackgroundImageFix"/>
<feColorMatrix in="SourceAlpha" type="matrix" values="0 0 0 0 0 0 0 0 0 0 0 0 0 0 0 0 0 0 127 0" result="hardAlpha"/>
<feOffset dy="0.5"/>
<feGaussianBlur stdDeviation="0.5"/>
<feComposite in2="hardAlpha" operator="out"/>
<feColorMatrix type="matrix" values="0 0 0 0 0 0 0 0 0 0 0 0 0 0 0 0 0 0 0.25 0"/>
<feBlend mode="normal" in2="BackgroundImageFix" result="effect1_dropShadow_710_1232"/>
<feBlend mode="normal" in="SourceGraphic" in2="effect1_dropShadow_710_1232" result="shape"/>
</filter>
<filter id="filter7_d_710_1232" x="155.324" y="124.25" width="66.9414" height="31.2578" filterUnits="userSpaceOnUse" color-interpolation-filters="sRGB">
<feFlood flood-opacity="0" result="BackgroundImageFix"/>
<feColorMatrix in="SourceAlpha" type="matrix" values="0 0 0 0 0 0 0 0 0 0 0 0 0 0 0 0 0 0 127 0" result="hardAlpha"/>
<feOffset dy="1"/>
<feGaussianBlur stdDeviation="0.5"/>
<feComposite in2="hardAlpha" operator="out"/>
<feColorMatrix type="matrix" values="0 0 0 0 0 0 0 0 0 0 0 0 0 0 0 0 0 0 0.25 0"/>
<feBlend mode="normal" in2="BackgroundImageFix" result="effect1_dropShadow_710_1232"/>
<feBlend mode="normal" in="SourceGraphic" in2="effect1_dropShadow_710_1232" result="shape"/>
</filter>
</defs>
</svg>
