<svg width="401" height="252" viewBox="0 0 401 252" fill="none" xmlns="http://www.w3.org/2000/svg">
<g filter="url(#filter0_d_710_1232)">
<path d="M29.8965 34.7354L33.3857 35.79C33.1514 36.7686 32.7822 37.5859 32.2783 38.2422C31.7744 38.8984 31.1475 39.3936 30.3975 39.7275C29.6533 40.0615 28.7041 40.2285 27.5498 40.2285C26.1494 40.2285 25.0039 40.0264 24.1133 39.6221C23.2285 39.2119 22.4639 38.4941 21.8193 37.4688C21.1748 36.4434 20.8525 35.1309 20.8525 33.5312C20.8525 31.3984 21.418 29.7607 22.5488 28.6182C23.6855 27.4697 25.291 26.8955 27.3652 26.8955C28.9883 26.8955 30.2627 27.2236 31.1885 27.8799C32.1201 28.5361 32.8115 29.5439 33.2627 30.9033L29.7471 31.6855C29.624 31.293 29.4951 31.0059 29.3604 30.8242C29.1377 30.5195 28.8652 30.2852 28.543 30.1211C28.2207 29.957 27.8604 29.875 27.4619 29.875C26.5596 29.875 25.8682 30.2383 25.3877 30.9648C25.0244 31.5039 24.8428 32.3506 24.8428 33.5049C24.8428 34.9346 25.0596 35.916 25.4932 36.4492C25.9268 36.9766 26.5361 37.2402 27.3213 37.2402C28.083 37.2402 28.6572 37.0264 29.0439 36.5986C29.4365 36.1709 29.7207 35.5498 29.8965 34.7354ZM35.2139 27.1152H38.7998V40H35.2139V27.1152ZM41.2168 27.1152H44.7939V29.5498H41.2168V27.1152ZM41.2168 30.666H44.7939V40H41.2168V30.666ZM57.4414 36.2207H50.2695C50.334 36.7949 50.4893 37.2227 50.7354 37.5039C51.0811 37.9082 51.5322 38.1104 52.0889 38.1104C52.4404 38.1104 52.7744 38.0225 53.0908 37.8467C53.2842 37.7354 53.4922 37.5391 53.7148 37.2578L57.2393 37.583C56.7002 38.5205 56.0498 39.1943 55.2881 39.6045C54.5264 40.0088 53.4336 40.2109 52.0098 40.2109C50.7734 40.2109 49.8008 40.0381 49.0918 39.6924C48.3828 39.3408 47.7939 38.7871 47.3252 38.0312C46.8623 37.2695 46.6309 36.376 46.6309 35.3506C46.6309 33.8916 47.0967 32.7109 48.0283 31.8086C48.9658 30.9062 50.2578 30.4551 51.9043 30.4551C53.2402 30.4551 54.2949 30.6572 55.0684 31.0615C55.8418 31.4658 56.4307 32.0518 56.835 32.8193C57.2393 33.5869 57.4414 34.5859 57.4414 35.8164V36.2207ZM53.8027 34.5068C53.7324 33.8154 53.5449 33.3203 53.2402 33.0215C52.9414 32.7227 52.5459 32.5732 52.0537 32.5732C51.4854 32.5732 51.0312 32.7988 50.6914 33.25C50.4746 33.5312 50.3369 33.9502 50.2783 34.5068H53.8027ZM59.085 30.666H62.416V32.1865C62.9141 31.5654 63.418 31.123 63.9277 30.8594C64.4375 30.5898 65.0586 30.4551 65.791 30.4551C66.7812 30.4551 67.5547 30.751 68.1113 31.3428C68.6738 31.9287 68.9551 32.8369 68.9551 34.0674V40H65.3604V34.8672C65.3604 34.2812 65.252 33.8682 65.0352 33.6279C64.8184 33.3818 64.5137 33.2588 64.1211 33.2588C63.6875 33.2588 63.3359 33.4229 63.0664 33.751C62.7969 34.0791 62.6621 34.668 62.6621 35.5176V40H59.085V30.666ZM75.4062 27.1152V30.666H77.375V33.2764H75.4062V36.5898C75.4062 36.9883 75.4443 37.252 75.5205 37.3809C75.6377 37.5801 75.8428 37.6797 76.1357 37.6797C76.3994 37.6797 76.7686 37.6035 77.2432 37.4512L77.5068 39.9209C76.6221 40.1143 75.7959 40.2109 75.0283 40.2109C74.1377 40.2109 73.4814 40.0967 73.0596 39.8682C72.6377 39.6396 72.3242 39.2939 72.1191 38.8311C71.9199 38.3623 71.8203 37.6064 71.8203 36.5635V33.2764H70.502V30.666H71.8203V28.9521L75.4062 27.1152ZM78.4561 37.416L82.0068 37.082C82.1533 37.5039 82.3584 37.8057 82.6221 37.9873C82.8857 38.1689 83.2373 38.2598 83.6768 38.2598C84.1572 38.2598 84.5293 38.1572 84.793 37.9521C84.998 37.7998 85.1006 37.6094 85.1006 37.3809C85.1006 37.123 84.9658 36.9238 84.6963 36.7832C84.5029 36.6836 83.9902 36.5605 83.1582 36.4141C81.916 36.1973 81.0518 35.998 80.5654 35.8164C80.085 35.6289 79.6777 35.3154 79.3438 34.876C79.0156 34.4365 78.8516 33.9355 78.8516 33.373C78.8516 32.7578 79.0303 32.2275 79.3877 31.7822C79.7451 31.3369 80.2373 31.0059 80.8643 30.7891C81.4912 30.5664 82.332 30.4551 83.3867 30.4551C84.5 30.4551 85.3203 30.54 85.8477 30.71C86.3809 30.8799 86.8232 31.1436 87.1748 31.501C87.5322 31.8584 87.8281 32.3418 88.0625 32.9512L84.6699 33.2852C84.582 32.9863 84.4355 32.7666 84.2305 32.626C83.9492 32.4385 83.6094 32.3447 83.2109 32.3447C82.8066 32.3447 82.5107 32.418 82.3232 32.5645C82.1416 32.7051 82.0508 32.8779 82.0508 33.083C82.0508 33.3115 82.168 33.4844 82.4023 33.6016C82.6367 33.7188 83.1465 33.8242 83.9316 33.918C85.1211 34.0527 86.0059 34.2402 86.5859 34.4805C87.166 34.7207 87.6084 35.0635 87.9131 35.5088C88.2236 35.9541 88.3789 36.4434 88.3789 36.9766C88.3789 37.5156 88.2148 38.04 87.8867 38.5498C87.5645 39.0596 87.0518 39.4668 86.3486 39.7715C85.6514 40.0703 84.6992 40.2197 83.4922 40.2197C81.7871 40.2197 80.5713 39.9766 79.8447 39.4902C79.124 39.0039 78.6611 38.3125 78.4561 37.416ZM95.6475 35.7373L99.4355 35.5C99.5176 36.1152 99.6846 36.584 99.9365 36.9062C100.347 37.4277 100.933 37.6885 101.694 37.6885C102.263 37.6885 102.699 37.5566 103.004 37.293C103.314 37.0234 103.47 36.7129 103.47 36.3613C103.47 36.0273 103.323 35.7285 103.03 35.4648C102.737 35.2012 102.058 34.9521 100.991 34.7178C99.2451 34.3252 98 33.8037 97.2559 33.1533C96.5059 32.5029 96.1309 31.6738 96.1309 30.666C96.1309 30.0039 96.3213 29.3799 96.7021 28.7939C97.0889 28.2021 97.666 27.7393 98.4336 27.4053C99.207 27.0654 100.265 26.8955 101.606 26.8955C103.253 26.8955 104.507 27.2031 105.368 27.8184C106.235 28.4277 106.751 29.4004 106.915 30.7363L103.162 30.9561C103.062 30.376 102.852 29.9541 102.529 29.6904C102.213 29.4268 101.773 29.2949 101.211 29.2949C100.748 29.2949 100.399 29.3945 100.165 29.5938C99.9307 29.7871 99.8135 30.0244 99.8135 30.3057C99.8135 30.5107 99.9102 30.6953 100.104 30.8594C100.291 31.0293 100.736 31.1875 101.439 31.334C103.18 31.709 104.425 32.0898 105.175 32.4766C105.931 32.8574 106.479 33.332 106.818 33.9004C107.164 34.4688 107.337 35.1045 107.337 35.8076C107.337 36.6338 107.108 37.3955 106.651 38.0928C106.194 38.79 105.556 39.3203 104.735 39.6836C103.915 40.041 102.881 40.2197 101.633 40.2197C99.4414 40.2197 97.9238 39.7979 97.0801 38.9541C96.2363 38.1104 95.7588 37.0381 95.6475 35.7373ZM119.475 36.2207H112.303C112.367 36.7949 112.522 37.2227 112.769 37.5039C113.114 37.9082 113.565 38.1104 114.122 38.1104C114.474 38.1104 114.808 38.0225 115.124 37.8467C115.317 37.7354 115.525 37.5391 115.748 37.2578L119.272 37.583C118.733 38.5205 118.083 39.1943 117.321 39.6045C116.56 40.0088 115.467 40.2109 114.043 40.2109C112.807 40.2109 111.834 40.0381 111.125 39.6924C110.416 39.3408 109.827 38.7871 109.358 38.0312C108.896 37.2695 108.664 36.376 108.664 35.3506C108.664 33.8916 109.13 32.7109 110.062 31.8086C110.999 30.9062 112.291 30.4551 113.938 30.4551C115.273 30.4551 116.328 30.6572 117.102 31.0615C117.875 31.4658 118.464 32.0518 118.868 32.8193C119.272 33.5869 119.475 34.5859 119.475 35.8164V36.2207ZM115.836 34.5068C115.766 33.8154 115.578 33.3203 115.273 33.0215C114.975 32.7227 114.579 32.5732 114.087 32.5732C113.519 32.5732 113.064 32.7988 112.725 33.25C112.508 33.5312 112.37 33.9502 112.312 34.5068H115.836ZM121.153 30.666H124.502V32.1953C124.824 31.5332 125.155 31.0791 125.495 30.833C125.841 30.5811 126.266 30.4551 126.77 30.4551C127.297 30.4551 127.874 30.6191 128.501 30.9473L127.394 33.4961C126.972 33.3203 126.638 33.2324 126.392 33.2324C125.923 33.2324 125.56 33.4258 125.302 33.8125C124.933 34.3574 124.748 35.377 124.748 36.8711V40H121.153V30.666ZM129.107 30.666H132.834L134.645 36.5811L136.517 30.666H140.129L136.165 40H132.992L129.107 30.666ZM151.062 36.2207H143.891C143.955 36.7949 144.11 37.2227 144.356 37.5039C144.702 37.9082 145.153 38.1104 145.71 38.1104C146.062 38.1104 146.396 38.0225 146.712 37.8467C146.905 37.7354 147.113 37.5391 147.336 37.2578L150.86 37.583C150.321 38.5205 149.671 39.1943 148.909 39.6045C148.147 40.0088 147.055 40.2109 145.631 40.2109C144.395 40.2109 143.422 40.0381 142.713 39.6924C142.004 39.3408 141.415 38.7871 140.946 38.0312C140.483 37.2695 140.252 36.376 140.252 35.3506C140.252 33.8916 140.718 32.7109 141.649 31.8086C142.587 30.9062 143.879 30.4551 145.525 30.4551C146.861 30.4551 147.916 30.6572 148.689 31.0615C149.463 31.4658 150.052 32.0518 150.456 32.8193C150.86 33.5869 151.062 34.5859 151.062 35.8164V36.2207ZM147.424 34.5068C147.354 33.8154 147.166 33.3203 146.861 33.0215C146.562 32.7227 146.167 32.5732 145.675 32.5732C145.106 32.5732 144.652 32.7988 144.312 33.25C144.096 33.5312 143.958 33.9502 143.899 34.5068H147.424ZM162.532 27.1152V40H159.184V38.6201C158.715 39.2061 158.287 39.6016 157.9 39.8066C157.385 40.0762 156.811 40.2109 156.178 40.2109C154.906 40.2109 153.934 39.7275 153.26 38.7607C152.592 37.7939 152.258 36.6191 152.258 35.2363C152.258 33.6895 152.627 32.5059 153.365 31.6855C154.109 30.8652 155.053 30.4551 156.195 30.4551C156.752 30.4551 157.256 30.5488 157.707 30.7363C158.164 30.9238 158.568 31.2051 158.92 31.5801V27.1152H162.532ZM158.946 35.3066C158.946 34.5742 158.791 34.0293 158.48 33.6719C158.17 33.3086 157.777 33.127 157.303 33.127C156.887 33.127 156.538 33.2998 156.257 33.6455C155.976 33.9912 155.835 34.5713 155.835 35.3857C155.835 36.1475 155.979 36.707 156.266 37.0645C156.559 37.416 156.919 37.5918 157.347 37.5918C157.804 37.5918 158.185 37.4131 158.489 37.0557C158.794 36.6982 158.946 36.1152 158.946 35.3066ZM27.7959 60.333V57.6523H33.9482V63.1455C32.7705 63.9482 31.7275 64.4961 30.8193 64.7891C29.917 65.0762 28.8447 65.2197 27.6025 65.2197C26.0732 65.2197 24.8252 64.959 23.8584 64.4375C22.8975 63.916 22.1504 63.1396 21.6172 62.1084C21.0898 61.0771 20.8262 59.8936 20.8262 58.5576C20.8262 57.1514 21.1162 55.9297 21.6963 54.8926C22.2764 53.8496 23.126 53.0586 24.2451 52.5195C25.1182 52.1035 26.293 51.8955 27.7695 51.8955C29.1934 51.8955 30.2568 52.0244 30.96 52.2822C31.6689 52.54 32.2549 52.9414 32.7178 53.4863C33.1865 54.0254 33.5381 54.7109 33.7725 55.543L29.9316 56.2285C29.7734 55.7422 29.5039 55.3701 29.123 55.1123C28.748 54.8545 28.2676 54.7256 27.6816 54.7256C26.8086 54.7256 26.1113 55.0303 25.5898 55.6396C25.0742 56.2432 24.8164 57.2012 24.8164 58.5137C24.8164 59.9082 25.0771 60.9043 25.5986 61.502C26.126 62.0996 26.8584 62.3984 27.7959 62.3984C28.2412 62.3984 28.666 62.334 29.0703 62.2051C29.4746 62.0762 29.9375 61.8564 30.459 61.5459V60.333H27.7959ZM36.1982 52.1152H39.7842V65H36.1982V52.1152ZM41.6299 60.3594C41.6299 58.9355 42.1104 57.7637 43.0713 56.8438C44.0322 55.918 45.3301 55.4551 46.9648 55.4551C48.834 55.4551 50.2461 55.9971 51.2012 57.0811C51.9688 57.9541 52.3525 59.0293 52.3525 60.3066C52.3525 61.7422 51.875 62.9199 50.9199 63.8398C49.9707 64.7539 48.6553 65.2109 46.9736 65.2109C45.4736 65.2109 44.2607 64.8301 43.335 64.0684C42.1982 63.125 41.6299 61.8887 41.6299 60.3594ZM45.2158 60.3506C45.2158 61.1826 45.3828 61.7979 45.7168 62.1963C46.0566 62.5947 46.4814 62.7939 46.9912 62.7939C47.5068 62.7939 47.9287 62.5977 48.2568 62.2051C48.5908 61.8125 48.7578 61.1826 48.7578 60.3154C48.7578 59.5068 48.5908 58.9062 48.2568 58.5137C47.9229 58.1152 47.5098 57.916 47.0176 57.916C46.4961 57.916 46.0654 58.1182 45.7256 58.5225C45.3857 58.9209 45.2158 59.5303 45.2158 60.3506ZM54.0928 52.1152H57.7051V56.5801C58.0625 56.2051 58.4668 55.9238 58.918 55.7363C59.375 55.5488 59.8789 55.4551 60.4297 55.4551C61.5664 55.4551 62.5068 55.8652 63.251 56.6855C63.9951 57.5 64.3672 58.6719 64.3672 60.2012C64.3672 61.2207 64.1973 62.1201 63.8574 62.8994C63.5176 63.6729 63.0459 64.2529 62.4424 64.6396C61.8447 65.0205 61.1797 65.2109 60.4473 65.2109C59.8203 65.2109 59.2461 65.0762 58.7246 64.8066C58.332 64.5957 57.9043 64.2002 57.4414 63.6201V65H54.0928V52.1152ZM57.6787 60.3066C57.6787 61.1094 57.8281 61.6924 58.127 62.0557C58.4316 62.4131 58.8154 62.5918 59.2783 62.5918C59.7061 62.5918 60.0635 62.416 60.3506 62.0645C60.6436 61.707 60.79 61.1094 60.79 60.2715C60.79 59.5332 60.6465 58.9912 60.3594 58.6455C60.0781 58.2998 59.7354 58.127 59.3311 58.127C58.8447 58.127 58.4463 58.3086 58.1357 58.6719C57.8311 59.0293 57.6787 59.5742 57.6787 60.3066ZM69.3418 58.6895L65.9229 58.3291C66.0518 57.7314 66.2363 57.2627 66.4766 56.9229C66.7227 56.5771 67.0742 56.2783 67.5312 56.0264C67.8594 55.8447 68.3105 55.7041 68.8848 55.6045C69.459 55.5049 70.0801 55.4551 70.748 55.4551C71.8203 55.4551 72.6816 55.5166 73.332 55.6396C73.9824 55.7568 74.5244 56.0059 74.958 56.3867C75.2627 56.6504 75.5029 57.0254 75.6787 57.5117C75.8545 57.9922 75.9424 58.4521 75.9424 58.8916V63.0137C75.9424 63.4531 75.9688 63.7988 76.0215 64.0508C76.0801 64.2969 76.2031 64.6133 76.3906 65H73.0332C72.8984 64.7598 72.8105 64.5781 72.7695 64.4551C72.7285 64.3262 72.6875 64.127 72.6465 63.8574C72.1777 64.3086 71.7119 64.6309 71.249 64.8242C70.6162 65.082 69.8809 65.2109 69.043 65.2109C67.9297 65.2109 67.083 64.9531 66.5029 64.4375C65.9287 63.9219 65.6416 63.2861 65.6416 62.5303C65.6416 61.8213 65.8496 61.2383 66.2656 60.7812C66.6816 60.3242 67.4492 59.9844 68.5684 59.7617C69.9102 59.4922 70.7803 59.3047 71.1787 59.1992C71.5771 59.0879 71.999 58.9443 72.4443 58.7686C72.4443 58.3291 72.3535 58.0215 72.1719 57.8457C71.9902 57.6699 71.6709 57.582 71.2139 57.582C70.6279 57.582 70.1885 57.6758 69.8955 57.8633C69.667 58.0098 69.4824 58.2852 69.3418 58.6895ZM72.4443 60.5703C71.9521 60.7461 71.4395 60.9014 70.9062 61.0361C70.1797 61.2295 69.7197 61.4199 69.5264 61.6074C69.3271 61.8008 69.2275 62.0205 69.2275 62.2666C69.2275 62.5479 69.3242 62.7793 69.5176 62.9609C69.7168 63.1367 70.0068 63.2246 70.3877 63.2246C70.7861 63.2246 71.1553 63.1279 71.4951 62.9346C71.8408 62.7412 72.084 62.5068 72.2246 62.2314C72.3711 61.9502 72.4443 61.5869 72.4443 61.1416V60.5703ZM78.21 52.1152H81.7959V65H78.21V52.1152ZM84.2041 52.1152H87.79V65H84.2041V52.1152ZM89.3545 55.666H93.1338L95.0586 61.8799L96.8428 55.666H100.367L96.667 65.6416C96.2451 66.7783 95.8145 67.5459 95.375 67.9443C94.7539 68.5068 93.8076 68.7881 92.5361 68.7881C92.0205 68.7881 91.2236 68.7178 90.1455 68.5771L89.8643 66.0811C90.3799 66.2451 90.9541 66.3271 91.5869 66.3271C92.0088 66.3271 92.3486 66.2305 92.6064 66.0371C92.8701 65.8438 93.0928 65.498 93.2744 65L89.3545 55.666Z" fill="white"/>
</g>
<g filter="url(#filter1_d_710_1232)">
<path d="M35.7422 112H30.2539V91.3164C28.2487 93.1914 25.8854 94.5781 23.1641 95.4766V90.4961C24.5964 90.0273 26.1523 89.1419 27.832 87.8398C29.5117 86.5247 30.6641 84.9948 31.2891 83.25H35.7422V112ZM53.2422 83.25C56.0156 83.25 58.1836 84.2396 59.7461 86.2188C61.6081 88.5625 62.5391 92.4492 62.5391 97.8789C62.5391 103.296 61.6016 107.189 59.7266 109.559C58.1771 111.512 56.0156 112.488 53.2422 112.488C50.4557 112.488 48.2096 111.421 46.5039 109.285C44.7982 107.137 43.9453 103.315 43.9453 97.8203C43.9453 92.4297 44.8828 88.5495 46.7578 86.1797C48.3073 84.2266 50.4688 83.25 53.2422 83.25ZM53.2422 87.8008C52.5781 87.8008 51.9857 88.0156 51.4648 88.4453C50.944 88.862 50.5404 89.6172 50.2539 90.7109C49.8763 92.1302 49.6875 94.5195 49.6875 97.8789C49.6875 101.238 49.8568 103.549 50.1953 104.812C50.5339 106.062 50.957 106.896 51.4648 107.312C51.9857 107.729 52.5781 107.938 53.2422 107.938C53.9062 107.938 54.4987 107.729 55.0195 107.312C55.5404 106.883 55.944 106.121 56.2305 105.027C56.6081 103.621 56.7969 101.238 56.7969 97.8789C56.7969 94.5195 56.6276 92.2148 56.2891 90.9648C55.9505 89.7018 55.5208 88.862 55 88.4453C54.4922 88.0156 53.9062 87.8008 53.2422 87.8008ZM75.5078 83.25C78.2812 83.25 80.4492 84.2396 82.0117 86.2188C83.8737 88.5625 84.8047 92.4492 84.8047 97.8789C84.8047 103.296 83.8672 107.189 81.9922 109.559C80.4427 111.512 78.2812 112.488 75.5078 112.488C72.7214 112.488 70.4753 111.421 68.7695 109.285C67.0638 107.137 66.2109 103.315 66.2109 97.8203C66.2109 92.4297 67.1484 88.5495 69.0234 86.1797C70.5729 84.2266 72.7344 83.25 75.5078 83.25ZM75.5078 87.8008C74.8438 87.8008 74.2513 88.0156 73.7305 88.4453C73.2096 88.862 72.806 89.6172 72.5195 90.7109C72.1419 92.1302 71.9531 94.5195 71.9531 97.8789C71.9531 101.238 72.1224 103.549 72.4609 104.812C72.7995 106.062 73.2227 106.896 73.7305 107.312C74.2513 107.729 74.8438 107.938 75.5078 107.938C76.1719 107.938 76.7643 107.729 77.2852 107.312C77.806 106.883 78.2096 106.121 78.4961 105.027C78.8737 103.621 79.0625 101.238 79.0625 97.8789C79.0625 94.5195 78.8932 92.2148 78.5547 90.9648C78.2161 89.7018 77.7865 88.862 77.2656 88.4453C76.7578 88.0156 76.1719 87.8008 75.5078 87.8008ZM95.957 107.879V100.438H88.457V95.3008H95.957V87.8594H100.957V95.3008H108.477V100.438H100.957V107.879H95.957Z" fill="white"/>
</g>
<g filter="url(#filter2_d_710_1232)">
<path d="M20.4131 163.115H32.5156V166.297H28.4551V176H24.4736V166.297H20.4131V163.115ZM43.3613 172.221H36.1895C36.2539 172.795 36.4092 173.223 36.6553 173.504C37.001 173.908 37.4521 174.11 38.0088 174.11C38.3604 174.11 38.6943 174.022 39.0107 173.847C39.2041 173.735 39.4121 173.539 39.6348 173.258L43.1592 173.583C42.6201 174.521 41.9697 175.194 41.208 175.604C40.4463 176.009 39.3535 176.211 37.9297 176.211C36.6934 176.211 35.7207 176.038 35.0117 175.692C34.3027 175.341 33.7139 174.787 33.2451 174.031C32.7822 173.27 32.5508 172.376 32.5508 171.351C32.5508 169.892 33.0166 168.711 33.9482 167.809C34.8857 166.906 36.1777 166.455 37.8242 166.455C39.1602 166.455 40.2148 166.657 40.9883 167.062C41.7617 167.466 42.3506 168.052 42.7549 168.819C43.1592 169.587 43.3613 170.586 43.3613 171.816V172.221ZM39.7227 170.507C39.6523 169.815 39.4648 169.32 39.1602 169.021C38.8613 168.723 38.4658 168.573 37.9736 168.573C37.4053 168.573 36.9512 168.799 36.6113 169.25C36.3945 169.531 36.2568 169.95 36.1982 170.507H39.7227ZM48.2656 169.689L44.8467 169.329C44.9756 168.731 45.1602 168.263 45.4004 167.923C45.6465 167.577 45.998 167.278 46.4551 167.026C46.7832 166.845 47.2344 166.704 47.8086 166.604C48.3828 166.505 49.0039 166.455 49.6719 166.455C50.7441 166.455 51.6055 166.517 52.2559 166.64C52.9062 166.757 53.4482 167.006 53.8818 167.387C54.1865 167.65 54.4268 168.025 54.6025 168.512C54.7783 168.992 54.8662 169.452 54.8662 169.892V174.014C54.8662 174.453 54.8926 174.799 54.9453 175.051C55.0039 175.297 55.127 175.613 55.3145 176H51.957C51.8223 175.76 51.7344 175.578 51.6934 175.455C51.6523 175.326 51.6113 175.127 51.5703 174.857C51.1016 175.309 50.6357 175.631 50.1729 175.824C49.54 176.082 48.8047 176.211 47.9668 176.211C46.8535 176.211 46.0068 175.953 45.4268 175.438C44.8525 174.922 44.5654 174.286 44.5654 173.53C44.5654 172.821 44.7734 172.238 45.1895 171.781C45.6055 171.324 46.373 170.984 47.4922 170.762C48.834 170.492 49.7041 170.305 50.1025 170.199C50.501 170.088 50.9229 169.944 51.3682 169.769C51.3682 169.329 51.2773 169.021 51.0957 168.846C50.9141 168.67 50.5947 168.582 50.1377 168.582C49.5518 168.582 49.1123 168.676 48.8193 168.863C48.5908 169.01 48.4062 169.285 48.2656 169.689ZM51.3682 171.57C50.876 171.746 50.3633 171.901 49.8301 172.036C49.1035 172.229 48.6436 172.42 48.4502 172.607C48.251 172.801 48.1514 173.021 48.1514 173.267C48.1514 173.548 48.248 173.779 48.4414 173.961C48.6406 174.137 48.9307 174.225 49.3115 174.225C49.71 174.225 50.0791 174.128 50.4189 173.935C50.7646 173.741 51.0078 173.507 51.1484 173.231C51.2949 172.95 51.3682 172.587 51.3682 172.142V171.57ZM57.0371 166.666H60.377V168.028C60.8574 167.46 61.3408 167.056 61.8271 166.815C62.3193 166.575 62.9111 166.455 63.6025 166.455C64.3467 166.455 64.9355 166.587 65.3691 166.851C65.8027 167.114 66.1572 167.507 66.4326 168.028C66.9951 167.419 67.5078 167.006 67.9707 166.789C68.4336 166.566 69.0049 166.455 69.6846 166.455C70.6865 166.455 71.4688 166.754 72.0312 167.352C72.5938 167.943 72.875 168.872 72.875 170.138V176H69.2891V170.683C69.2891 170.261 69.207 169.947 69.043 169.742C68.8027 169.42 68.5039 169.259 68.1465 169.259C67.7246 169.259 67.3848 169.411 67.127 169.716C66.8691 170.021 66.7402 170.51 66.7402 171.184V176H63.1543V170.858C63.1543 170.448 63.1309 170.17 63.084 170.023C63.0078 169.789 62.876 169.602 62.6885 169.461C62.501 169.314 62.2812 169.241 62.0293 169.241C61.6191 169.241 61.2822 169.396 61.0186 169.707C60.7549 170.018 60.623 170.527 60.623 171.236V176H57.0371V166.666ZM80.5654 171.737L84.3535 171.5C84.4355 172.115 84.6025 172.584 84.8545 172.906C85.2646 173.428 85.8506 173.688 86.6123 173.688C87.1807 173.688 87.6172 173.557 87.9219 173.293C88.2324 173.023 88.3877 172.713 88.3877 172.361C88.3877 172.027 88.2412 171.729 87.9482 171.465C87.6553 171.201 86.9756 170.952 85.9092 170.718C84.1631 170.325 82.918 169.804 82.1738 169.153C81.4238 168.503 81.0488 167.674 81.0488 166.666C81.0488 166.004 81.2393 165.38 81.6201 164.794C82.0068 164.202 82.584 163.739 83.3516 163.405C84.125 163.065 85.1826 162.896 86.5244 162.896C88.1709 162.896 89.4248 163.203 90.2861 163.818C91.1533 164.428 91.6689 165.4 91.833 166.736L88.0801 166.956C87.9805 166.376 87.7695 165.954 87.4473 165.69C87.1309 165.427 86.6914 165.295 86.1289 165.295C85.666 165.295 85.3174 165.395 85.083 165.594C84.8486 165.787 84.7314 166.024 84.7314 166.306C84.7314 166.511 84.8281 166.695 85.0215 166.859C85.209 167.029 85.6543 167.188 86.3574 167.334C88.0977 167.709 89.3428 168.09 90.0928 168.477C90.8486 168.857 91.3965 169.332 91.7363 169.9C92.082 170.469 92.2549 171.104 92.2549 171.808C92.2549 172.634 92.0264 173.396 91.5693 174.093C91.1123 174.79 90.4736 175.32 89.6533 175.684C88.833 176.041 87.7988 176.22 86.5508 176.22C84.3594 176.22 82.8418 175.798 81.998 174.954C81.1543 174.11 80.6768 173.038 80.5654 171.737ZM98.3457 163.115V166.666H100.314V169.276H98.3457V172.59C98.3457 172.988 98.3838 173.252 98.46 173.381C98.5771 173.58 98.7822 173.68 99.0752 173.68C99.3389 173.68 99.708 173.604 100.183 173.451L100.446 175.921C99.5615 176.114 98.7354 176.211 97.9678 176.211C97.0771 176.211 96.4209 176.097 95.999 175.868C95.5771 175.64 95.2637 175.294 95.0586 174.831C94.8594 174.362 94.7598 173.606 94.7598 172.563V169.276H93.4414V166.666H94.7598V164.952L98.3457 163.115ZM102.063 166.666H105.412V168.195C105.734 167.533 106.065 167.079 106.405 166.833C106.751 166.581 107.176 166.455 107.68 166.455C108.207 166.455 108.784 166.619 109.411 166.947L108.304 169.496C107.882 169.32 107.548 169.232 107.302 169.232C106.833 169.232 106.47 169.426 106.212 169.812C105.843 170.357 105.658 171.377 105.658 172.871V176H102.063V166.666ZM120.688 172.221H113.516C113.58 172.795 113.735 173.223 113.981 173.504C114.327 173.908 114.778 174.11 115.335 174.11C115.687 174.11 116.021 174.022 116.337 173.847C116.53 173.735 116.738 173.539 116.961 173.258L120.485 173.583C119.946 174.521 119.296 175.194 118.534 175.604C117.772 176.009 116.68 176.211 115.256 176.211C114.02 176.211 113.047 176.038 112.338 175.692C111.629 175.341 111.04 174.787 110.571 174.031C110.108 173.27 109.877 172.376 109.877 171.351C109.877 169.892 110.343 168.711 111.274 167.809C112.212 166.906 113.504 166.455 115.15 166.455C116.486 166.455 117.541 166.657 118.314 167.062C119.088 167.466 119.677 168.052 120.081 168.819C120.485 169.587 120.688 170.586 120.688 171.816V172.221ZM117.049 170.507C116.979 169.815 116.791 169.32 116.486 169.021C116.188 168.723 115.792 168.573 115.3 168.573C114.731 168.573 114.277 168.799 113.938 169.25C113.721 169.531 113.583 169.95 113.524 170.507H117.049ZM122.331 166.666H125.662V168.187C126.16 167.565 126.664 167.123 127.174 166.859C127.684 166.59 128.305 166.455 129.037 166.455C130.027 166.455 130.801 166.751 131.357 167.343C131.92 167.929 132.201 168.837 132.201 170.067V176H128.606V170.867C128.606 170.281 128.498 169.868 128.281 169.628C128.064 169.382 127.76 169.259 127.367 169.259C126.934 169.259 126.582 169.423 126.312 169.751C126.043 170.079 125.908 170.668 125.908 171.518V176H122.331V166.666ZM140.832 166.666H144.181V175.481L144.189 175.895C144.189 176.48 144.063 177.037 143.812 177.564C143.565 178.098 143.234 178.528 142.818 178.856C142.408 179.185 141.884 179.422 141.245 179.568C140.612 179.715 139.886 179.788 139.065 179.788C137.19 179.788 135.901 179.507 135.198 178.944C134.501 178.382 134.152 177.629 134.152 176.686C134.152 176.568 134.158 176.41 134.17 176.211L137.642 176.606C137.729 176.929 137.864 177.151 138.046 177.274C138.31 177.456 138.641 177.547 139.039 177.547C139.555 177.547 139.938 177.409 140.19 177.134C140.448 176.858 140.577 176.378 140.577 175.692V174.277C140.226 174.693 139.874 174.995 139.522 175.183C138.972 175.476 138.377 175.622 137.738 175.622C136.49 175.622 135.482 175.077 134.715 173.987C134.17 173.214 133.897 172.191 133.897 170.92C133.897 169.467 134.249 168.359 134.952 167.598C135.655 166.836 136.575 166.455 137.712 166.455C138.438 166.455 139.036 166.578 139.505 166.824C139.979 167.07 140.422 167.478 140.832 168.046V166.666ZM137.466 171.192C137.466 171.866 137.609 172.367 137.896 172.695C138.184 173.018 138.562 173.179 139.03 173.179C139.476 173.179 139.848 173.012 140.146 172.678C140.451 172.338 140.604 171.828 140.604 171.148C140.604 170.469 140.445 169.95 140.129 169.593C139.812 169.229 139.426 169.048 138.969 169.048C138.512 169.048 138.146 169.215 137.87 169.549C137.601 169.877 137.466 170.425 137.466 171.192ZM150.658 163.115V166.666H152.627V169.276H150.658V172.59C150.658 172.988 150.696 173.252 150.772 173.381C150.89 173.58 151.095 173.68 151.388 173.68C151.651 173.68 152.021 173.604 152.495 173.451L152.759 175.921C151.874 176.114 151.048 176.211 150.28 176.211C149.39 176.211 148.733 176.097 148.312 175.868C147.89 175.64 147.576 175.294 147.371 174.831C147.172 174.362 147.072 173.606 147.072 172.563V169.276H145.754V166.666H147.072V164.952L150.658 163.115ZM154.341 163.115H157.918V167.861C158.404 167.357 158.888 166.997 159.368 166.78C159.849 166.563 160.417 166.455 161.073 166.455C162.046 166.455 162.811 166.751 163.367 167.343C163.93 167.935 164.211 168.843 164.211 170.067V176H160.616V170.867C160.616 170.281 160.508 169.868 160.291 169.628C160.074 169.382 159.77 169.259 159.377 169.259C158.943 169.259 158.592 169.423 158.322 169.751C158.053 170.079 157.918 170.668 157.918 171.518V176H154.341V163.115Z" fill="white"/>
</g>
<g filter="url(#filter3_d_710_1232)">
<path d="M21.5039 215.402L26.8164 214.758C26.9857 216.112 27.4414 217.147 28.1836 217.863C28.9258 218.579 29.8242 218.938 30.8789 218.938C32.0117 218.938 32.9622 218.508 33.7305 217.648C34.5117 216.789 34.9023 215.63 34.9023 214.172C34.9023 212.792 34.5312 211.698 33.7891 210.891C33.0469 210.083 32.1419 209.68 31.0742 209.68C30.3711 209.68 29.5312 209.816 28.5547 210.09L29.1602 205.617C30.6445 205.656 31.7773 205.337 32.5586 204.66C33.3398 203.97 33.7305 203.059 33.7305 201.926C33.7305 200.962 33.444 200.194 32.8711 199.621C32.2982 199.048 31.5365 198.762 30.5859 198.762C29.6484 198.762 28.8477 199.087 28.1836 199.738C27.5195 200.389 27.1159 201.34 26.9727 202.59L21.9141 201.73C22.2656 199.999 22.793 198.618 23.4961 197.59C24.2122 196.548 25.2018 195.734 26.4648 195.148C27.7409 194.549 29.1667 194.25 30.7422 194.25C33.4375 194.25 35.599 195.109 37.2266 196.828C38.5677 198.234 39.2383 199.823 39.2383 201.594C39.2383 204.107 37.8646 206.112 35.1172 207.609C36.7578 207.961 38.0664 208.749 39.043 209.973C40.0326 211.197 40.5273 212.674 40.5273 214.406C40.5273 216.919 39.6094 219.061 37.7734 220.832C35.9375 222.603 33.6523 223.488 30.918 223.488C28.3268 223.488 26.1784 222.746 24.4727 221.262C22.7669 219.764 21.7773 217.811 21.5039 215.402ZM53.2422 194.25C56.0156 194.25 58.1836 195.24 59.7461 197.219C61.6081 199.562 62.5391 203.449 62.5391 208.879C62.5391 214.296 61.6016 218.189 59.7266 220.559C58.1771 222.512 56.0156 223.488 53.2422 223.488C50.4557 223.488 48.2096 222.421 46.5039 220.285C44.7982 218.137 43.9453 214.315 43.9453 208.82C43.9453 203.43 44.8828 199.549 46.7578 197.18C48.3073 195.227 50.4688 194.25 53.2422 194.25ZM53.2422 198.801C52.5781 198.801 51.9857 199.016 51.4648 199.445C50.944 199.862 50.5404 200.617 50.2539 201.711C49.8763 203.13 49.6875 205.52 49.6875 208.879C49.6875 212.238 49.8568 214.549 50.1953 215.812C50.5339 217.062 50.957 217.896 51.4648 218.312C51.9857 218.729 52.5781 218.938 53.2422 218.938C53.9062 218.938 54.4987 218.729 55.0195 218.312C55.5404 217.883 55.944 217.121 56.2305 216.027C56.6081 214.621 56.7969 212.238 56.7969 208.879C56.7969 205.52 56.6276 203.215 56.2891 201.965C55.9505 200.702 55.5208 199.862 55 199.445C54.4922 199.016 53.9062 198.801 53.2422 198.801ZM73.6914 218.879V211.438H66.1914V206.301H73.6914V198.859H78.6914V206.301H86.2109V211.438H78.6914V218.879H73.6914Z" fill="white"/>
</g>
<g filter="url(#filter4_d_710_1232)">
<path d="M241.301 27.1152H247.919C249.36 27.1152 250.438 27.458 251.153 28.1436C251.874 28.8291 252.234 29.8047 252.234 31.0703C252.234 32.3711 251.842 33.3877 251.057 34.1201C250.277 34.8525 249.085 35.2188 247.479 35.2188H245.3V40H241.301V27.1152ZM245.3 32.6084H246.275C247.043 32.6084 247.582 32.4766 247.893 32.2129C248.203 31.9434 248.358 31.6006 248.358 31.1846C248.358 30.7803 248.224 30.4375 247.954 30.1562C247.685 29.875 247.178 29.7344 246.434 29.7344H245.3V32.6084ZM254.124 30.666H257.473V32.1953C257.795 31.5332 258.126 31.0791 258.466 30.833C258.812 30.5811 259.236 30.4551 259.74 30.4551C260.268 30.4551 260.845 30.6191 261.472 30.9473L260.364 33.4961C259.942 33.3203 259.608 33.2324 259.362 33.2324C258.894 33.2324 258.53 33.4258 258.272 33.8125C257.903 34.3574 257.719 35.377 257.719 36.8711V40H254.124V30.666ZM261.946 35.3594C261.946 33.9355 262.427 32.7637 263.388 31.8438C264.349 30.918 265.646 30.4551 267.281 30.4551C269.15 30.4551 270.562 30.9971 271.518 32.0811C272.285 32.9541 272.669 34.0293 272.669 35.3066C272.669 36.7422 272.191 37.9199 271.236 38.8398C270.287 39.7539 268.972 40.2109 267.29 40.2109C265.79 40.2109 264.577 39.8301 263.651 39.0684C262.515 38.125 261.946 36.8887 261.946 35.3594ZM265.532 35.3506C265.532 36.1826 265.699 36.7979 266.033 37.1963C266.373 37.5947 266.798 37.7939 267.308 37.7939C267.823 37.7939 268.245 37.5977 268.573 37.2051C268.907 36.8125 269.074 36.1826 269.074 35.3154C269.074 34.5068 268.907 33.9062 268.573 33.5137C268.239 33.1152 267.826 32.916 267.334 32.916C266.812 32.916 266.382 33.1182 266.042 33.5225C265.702 33.9209 265.532 34.5303 265.532 35.3506ZM274.532 27.1152H278.118V29.5762H274.532V27.1152ZM274.532 30.666H278.118V39.7188C278.118 40.873 278.033 41.6904 277.863 42.1709C277.699 42.6514 277.392 43.041 276.94 43.3398C276.489 43.6387 275.845 43.7881 275.007 43.7881C274.315 43.7881 273.457 43.6855 272.432 43.4805L272.968 40.8789C273.255 40.9375 273.466 40.9668 273.601 40.9668C273.905 40.9668 274.137 40.8613 274.295 40.6504C274.453 40.4453 274.532 40.0322 274.532 39.4111V30.666ZM290.748 36.2207H283.576C283.641 36.7949 283.796 37.2227 284.042 37.5039C284.388 37.9082 284.839 38.1104 285.396 38.1104C285.747 38.1104 286.081 38.0225 286.397 37.8467C286.591 37.7354 286.799 37.5391 287.021 37.2578L290.546 37.583C290.007 38.5205 289.356 39.1943 288.595 39.6045C287.833 40.0088 286.74 40.2109 285.316 40.2109C284.08 40.2109 283.107 40.0381 282.398 39.6924C281.689 39.3408 281.101 38.7871 280.632 38.0312C280.169 37.2695 279.938 36.376 279.938 35.3506C279.938 33.8916 280.403 32.7109 281.335 31.8086C282.272 30.9062 283.564 30.4551 285.211 30.4551C286.547 30.4551 287.602 30.6572 288.375 31.0615C289.148 31.4658 289.737 32.0518 290.142 32.8193C290.546 33.5869 290.748 34.5859 290.748 35.8164V36.2207ZM287.109 34.5068C287.039 33.8154 286.852 33.3203 286.547 33.0215C286.248 32.7227 285.853 32.5732 285.36 32.5732C284.792 32.5732 284.338 32.7988 283.998 33.25C283.781 33.5312 283.644 33.9502 283.585 34.5068H287.109ZM299.353 36.3525L302.754 36.7393C302.566 37.4482 302.259 38.0635 301.831 38.585C301.403 39.1006 300.855 39.502 300.188 39.7891C299.525 40.0762 298.682 40.2197 297.656 40.2197C296.666 40.2197 295.84 40.1289 295.178 39.9473C294.521 39.7598 293.956 39.4609 293.481 39.0508C293.007 38.6348 292.635 38.1484 292.365 37.5918C292.096 37.0352 291.961 36.2969 291.961 35.377C291.961 34.416 292.125 33.6162 292.453 32.9775C292.693 32.5088 293.021 32.0898 293.438 31.7207C293.854 31.3457 294.281 31.0674 294.721 30.8857C295.418 30.5986 296.312 30.4551 297.401 30.4551C298.925 30.4551 300.085 30.7275 300.882 31.2725C301.685 31.8174 302.247 32.6143 302.569 33.6631L299.203 34.1113C299.098 33.7129 298.904 33.4141 298.623 33.2148C298.348 33.0098 297.976 32.9072 297.507 32.9072C296.915 32.9072 296.435 33.1211 296.065 33.5488C295.702 33.9707 295.521 34.6123 295.521 35.4736C295.521 36.2412 295.702 36.8242 296.065 37.2227C296.429 37.6211 296.892 37.8203 297.454 37.8203C297.923 37.8203 298.315 37.7002 298.632 37.46C298.954 37.2197 299.194 36.8506 299.353 36.3525ZM308.713 27.1152V30.666H310.682V33.2764H308.713V36.5898C308.713 36.9883 308.751 37.252 308.827 37.3809C308.944 37.5801 309.149 37.6797 309.442 37.6797C309.706 37.6797 310.075 37.6035 310.55 37.4512L310.813 39.9209C309.929 40.1143 309.103 40.2109 308.335 40.2109C307.444 40.2109 306.788 40.0967 306.366 39.8682C305.944 39.6396 305.631 39.2939 305.426 38.8311C305.227 38.3623 305.127 37.6064 305.127 36.5635V33.2764H303.809V30.666H305.127V28.9521L308.713 27.1152ZM311.763 37.416L315.313 37.082C315.46 37.5039 315.665 37.8057 315.929 37.9873C316.192 38.1689 316.544 38.2598 316.983 38.2598C317.464 38.2598 317.836 38.1572 318.1 37.9521C318.305 37.7998 318.407 37.6094 318.407 37.3809C318.407 37.123 318.272 36.9238 318.003 36.7832C317.81 36.6836 317.297 36.5605 316.465 36.4141C315.223 36.1973 314.358 35.998 313.872 35.8164C313.392 35.6289 312.984 35.3154 312.65 34.876C312.322 34.4365 312.158 33.9355 312.158 33.373C312.158 32.7578 312.337 32.2275 312.694 31.7822C313.052 31.3369 313.544 31.0059 314.171 30.7891C314.798 30.5664 315.639 30.4551 316.693 30.4551C317.807 30.4551 318.627 30.54 319.154 30.71C319.688 30.8799 320.13 31.1436 320.481 31.501C320.839 31.8584 321.135 32.3418 321.369 32.9512L317.977 33.2852C317.889 32.9863 317.742 32.7666 317.537 32.626C317.256 32.4385 316.916 32.3447 316.518 32.3447C316.113 32.3447 315.817 32.418 315.63 32.5645C315.448 32.7051 315.357 32.8779 315.357 33.083C315.357 33.3115 315.475 33.4844 315.709 33.6016C315.943 33.7188 316.453 33.8242 317.238 33.918C318.428 34.0527 319.312 34.2402 319.893 34.4805C320.473 34.7207 320.915 35.0635 321.22 35.5088C321.53 35.9541 321.686 36.4434 321.686 36.9766C321.686 37.5156 321.521 38.04 321.193 38.5498C320.871 39.0596 320.358 39.4668 319.655 39.7715C318.958 40.0703 318.006 40.2197 316.799 40.2197C315.094 40.2197 313.878 39.9766 313.151 39.4902C312.431 39.0039 311.968 38.3125 311.763 37.416ZM249.246 62.873H244.711L244.087 65H240.018L244.86 52.1152H249.202L254.045 65H249.879L249.246 62.873ZM248.411 60.0869L246.987 55.4551L245.572 60.0869H248.411ZM262.052 61.3525L265.453 61.7393C265.266 62.4482 264.958 63.0635 264.53 63.585C264.103 64.1006 263.555 64.502 262.887 64.7891C262.225 65.0762 261.381 65.2197 260.355 65.2197C259.365 65.2197 258.539 65.1289 257.877 64.9473C257.221 64.7598 256.655 64.4609 256.181 64.0508C255.706 63.6348 255.334 63.1484 255.064 62.5918C254.795 62.0352 254.66 61.2969 254.66 60.377C254.66 59.416 254.824 58.6162 255.152 57.9775C255.393 57.5088 255.721 57.0898 256.137 56.7207C256.553 56.3457 256.98 56.0674 257.42 55.8857C258.117 55.5986 259.011 55.4551 260.101 55.4551C261.624 55.4551 262.784 55.7275 263.581 56.2725C264.384 56.8174 264.946 57.6143 265.269 58.6631L261.902 59.1113C261.797 58.7129 261.604 58.4141 261.322 58.2148C261.047 58.0098 260.675 57.9072 260.206 57.9072C259.614 57.9072 259.134 58.1211 258.765 58.5488C258.401 58.9707 258.22 59.6123 258.22 60.4736C258.22 61.2412 258.401 61.8242 258.765 62.2227C259.128 62.6211 259.591 62.8203 260.153 62.8203C260.622 62.8203 261.015 62.7002 261.331 62.46C261.653 62.2197 261.894 61.8506 262.052 61.3525ZM274.058 61.3525L277.459 61.7393C277.271 62.4482 276.964 63.0635 276.536 63.585C276.108 64.1006 275.561 64.502 274.893 64.7891C274.23 65.0762 273.387 65.2197 272.361 65.2197C271.371 65.2197 270.545 65.1289 269.883 64.9473C269.227 64.7598 268.661 64.4609 268.187 64.0508C267.712 63.6348 267.34 63.1484 267.07 62.5918C266.801 62.0352 266.666 61.2969 266.666 60.377C266.666 59.416 266.83 58.6162 267.158 57.9775C267.398 57.5088 267.727 57.0898 268.143 56.7207C268.559 56.3457 268.986 56.0674 269.426 55.8857C270.123 55.5986 271.017 55.4551 272.106 55.4551C273.63 55.4551 274.79 55.7275 275.587 56.2725C276.39 56.8174 276.952 57.6143 277.274 58.6631L273.908 59.1113C273.803 58.7129 273.609 58.4141 273.328 58.2148C273.053 58.0098 272.681 57.9072 272.212 57.9072C271.62 57.9072 271.14 58.1211 270.771 58.5488C270.407 58.9707 270.226 59.6123 270.226 60.4736C270.226 61.2412 270.407 61.8242 270.771 62.2227C271.134 62.6211 271.597 62.8203 272.159 62.8203C272.628 62.8203 273.021 62.7002 273.337 62.46C273.659 62.2197 273.899 61.8506 274.058 61.3525ZM278.663 60.3594C278.663 58.9355 279.144 57.7637 280.104 56.8438C281.065 55.918 282.363 55.4551 283.998 55.4551C285.867 55.4551 287.279 55.9971 288.234 57.0811C289.002 57.9541 289.386 59.0293 289.386 60.3066C289.386 61.7422 288.908 62.9199 287.953 63.8398C287.004 64.7539 285.688 65.2109 284.007 65.2109C282.507 65.2109 281.294 64.8301 280.368 64.0684C279.231 63.125 278.663 61.8887 278.663 60.3594ZM282.249 60.3506C282.249 61.1826 282.416 61.7979 282.75 62.1963C283.09 62.5947 283.515 62.7939 284.024 62.7939C284.54 62.7939 284.962 62.5977 285.29 62.2051C285.624 61.8125 285.791 61.1826 285.791 60.3154C285.791 59.5068 285.624 58.9062 285.29 58.5137C284.956 58.1152 284.543 57.916 284.051 57.916C283.529 57.916 283.099 58.1182 282.759 58.5225C282.419 58.9209 282.249 59.5303 282.249 60.3506ZM291.135 55.666H294.475V57.0283C294.955 56.46 295.438 56.0557 295.925 55.8154C296.417 55.5752 297.009 55.4551 297.7 55.4551C298.444 55.4551 299.033 55.5869 299.467 55.8506C299.9 56.1143 300.255 56.5068 300.53 57.0283C301.093 56.4189 301.605 56.0059 302.068 55.7891C302.531 55.5664 303.103 55.4551 303.782 55.4551C304.784 55.4551 305.566 55.7539 306.129 56.3516C306.691 56.9434 306.973 57.8721 306.973 59.1377V65H303.387V59.6826C303.387 59.2607 303.305 58.9473 303.141 58.7422C302.9 58.4199 302.602 58.2588 302.244 58.2588C301.822 58.2588 301.482 58.4111 301.225 58.7158C300.967 59.0205 300.838 59.5098 300.838 60.1836V65H297.252V59.8584C297.252 59.4482 297.229 59.1699 297.182 59.0234C297.105 58.7891 296.974 58.6016 296.786 58.4609C296.599 58.3145 296.379 58.2412 296.127 58.2412C295.717 58.2412 295.38 58.3965 295.116 58.707C294.853 59.0176 294.721 59.5273 294.721 60.2363V65H291.135V55.666ZM309.126 68.5508V55.666H312.475V57.0459C312.938 56.4658 313.362 56.0732 313.749 55.8682C314.271 55.5928 314.848 55.4551 315.48 55.4551C316.729 55.4551 317.692 55.9326 318.372 56.8877C319.058 57.8428 319.4 59.0234 319.4 60.4297C319.4 61.9824 319.028 63.1689 318.284 63.9893C317.54 64.8037 316.6 65.2109 315.463 65.2109C314.912 65.2109 314.408 65.1172 313.951 64.9297C313.5 64.7422 313.096 64.4639 312.738 64.0947V68.5508H309.126ZM312.712 60.3594C312.712 61.0977 312.867 61.6455 313.178 62.0029C313.488 62.3604 313.881 62.5391 314.355 62.5391C314.771 62.5391 315.12 62.3691 315.401 62.0293C315.683 61.6836 315.823 61.1006 315.823 60.2803C315.823 59.5244 315.677 58.9707 315.384 58.6191C315.091 58.2617 314.733 58.083 314.312 58.083C313.854 58.083 313.474 58.2617 313.169 58.6191C312.864 58.9766 312.712 59.5566 312.712 60.3594ZM321.237 52.1152H324.823V65H321.237V52.1152ZM327.24 52.1152H330.817V54.5498H327.24V52.1152ZM327.24 55.666H330.817V65H327.24V55.666ZM332.47 62.416L336.021 62.082C336.167 62.5039 336.372 62.8057 336.636 62.9873C336.899 63.1689 337.251 63.2598 337.69 63.2598C338.171 63.2598 338.543 63.1572 338.807 62.9521C339.012 62.7998 339.114 62.6094 339.114 62.3809C339.114 62.123 338.979 61.9238 338.71 61.7832C338.517 61.6836 338.004 61.5605 337.172 61.4141C335.93 61.1973 335.065 60.998 334.579 60.8164C334.099 60.6289 333.691 60.3154 333.357 59.876C333.029 59.4365 332.865 58.9355 332.865 58.373C332.865 57.7578 333.044 57.2275 333.401 56.7822C333.759 56.3369 334.251 56.0059 334.878 55.7891C335.505 55.5664 336.346 55.4551 337.4 55.4551C338.514 55.4551 339.334 55.54 339.861 55.71C340.395 55.8799 340.837 56.1436 341.188 56.501C341.546 56.8584 341.842 57.3418 342.076 57.9512L338.684 58.2852C338.596 57.9863 338.449 57.7666 338.244 57.626C337.963 57.4385 337.623 57.3447 337.225 57.3447C336.82 57.3447 336.524 57.418 336.337 57.5645C336.155 57.7051 336.064 57.8779 336.064 58.083C336.064 58.3115 336.182 58.4844 336.416 58.6016C336.65 58.7188 337.16 58.8242 337.945 58.918C339.135 59.0527 340.02 59.2402 340.6 59.4805C341.18 59.7207 341.622 60.0635 341.927 60.5088C342.237 60.9541 342.393 61.4434 342.393 61.9766C342.393 62.5156 342.229 63.04 341.9 63.5498C341.578 64.0596 341.065 64.4668 340.362 64.7715C339.665 65.0703 338.713 65.2197 337.506 65.2197C335.801 65.2197 334.585 64.9766 333.858 64.4902C333.138 64.0039 332.675 63.3125 332.47 62.416ZM344.106 52.1152H347.684V56.8613C348.17 56.3574 348.653 55.9971 349.134 55.7803C349.614 55.5635 350.183 55.4551 350.839 55.4551C351.812 55.4551 352.576 55.751 353.133 56.3428C353.695 56.9346 353.977 57.8428 353.977 59.0674V65H350.382V59.8672C350.382 59.2812 350.273 58.8682 350.057 58.6279C349.84 58.3818 349.535 58.2588 349.143 58.2588C348.709 58.2588 348.357 58.4229 348.088 58.751C347.818 59.0791 347.684 59.668 347.684 60.5176V65H344.106V52.1152ZM366.475 61.2207H359.303C359.367 61.7949 359.522 62.2227 359.769 62.5039C360.114 62.9082 360.565 63.1104 361.122 63.1104C361.474 63.1104 361.808 63.0225 362.124 62.8467C362.317 62.7354 362.525 62.5391 362.748 62.2578L366.272 62.583C365.733 63.5205 365.083 64.1943 364.321 64.6045C363.56 65.0088 362.467 65.2109 361.043 65.2109C359.807 65.2109 358.834 65.0381 358.125 64.6924C357.416 64.3408 356.827 63.7871 356.358 63.0312C355.896 62.2695 355.664 61.376 355.664 60.3506C355.664 58.8916 356.13 57.7109 357.062 56.8086C357.999 55.9062 359.291 55.4551 360.938 55.4551C362.273 55.4551 363.328 55.6572 364.102 56.0615C364.875 56.4658 365.464 57.0518 365.868 57.8193C366.272 58.5869 366.475 59.5859 366.475 60.8164V61.2207ZM362.836 59.5068C362.766 58.8154 362.578 58.3203 362.273 58.0215C361.975 57.7227 361.579 57.5732 361.087 57.5732C360.519 57.5732 360.064 57.7988 359.725 58.25C359.508 58.5312 359.37 58.9502 359.312 59.5068H362.836ZM377.944 52.1152V65H374.596V63.6201C374.127 64.2061 373.699 64.6016 373.312 64.8066C372.797 65.0762 372.223 65.2109 371.59 65.2109C370.318 65.2109 369.346 64.7275 368.672 63.7607C368.004 62.7939 367.67 61.6191 367.67 60.2363C367.67 58.6895 368.039 57.5059 368.777 56.6855C369.521 55.8652 370.465 55.4551 371.607 55.4551C372.164 55.4551 372.668 55.5488 373.119 55.7363C373.576 55.9238 373.98 56.2051 374.332 56.5801V52.1152H377.944ZM374.358 60.3066C374.358 59.5742 374.203 59.0293 373.893 58.6719C373.582 58.3086 373.189 58.127 372.715 58.127C372.299 58.127 371.95 58.2998 371.669 58.6455C371.388 58.9912 371.247 59.5713 371.247 60.3857C371.247 61.1475 371.391 61.707 371.678 62.0645C371.971 62.416 372.331 62.5918 372.759 62.5918C373.216 62.5918 373.597 62.4131 373.901 62.0557C374.206 61.6982 374.358 61.1152 374.358 60.3066Z" fill="white"/>
</g>
<g filter="url(#filter5_d_710_1232)">
<path d="M255.742 112H250.254V91.3164C248.249 93.1914 245.885 94.5781 243.164 95.4766V90.4961C244.596 90.0273 246.152 89.1419 247.832 87.8398C249.512 86.5247 250.664 84.9948 251.289 83.25H255.742V112ZM264.043 104.637L269.512 104.07C269.668 105.307 270.13 106.29 270.898 107.02C271.667 107.736 272.552 108.094 273.555 108.094C274.701 108.094 275.671 107.632 276.465 106.707C277.259 105.77 277.656 104.363 277.656 102.488C277.656 100.73 277.259 99.4154 276.465 98.543C275.684 97.6576 274.661 97.2148 273.398 97.2148C271.823 97.2148 270.41 97.9115 269.16 99.3047L264.707 98.6602L267.52 83.7578H282.031V88.8945H271.68L270.82 93.7578C272.044 93.1458 273.294 92.8398 274.57 92.8398C277.005 92.8398 279.069 93.7253 280.762 95.4961C282.454 97.2669 283.301 99.5651 283.301 102.391C283.301 104.747 282.617 106.85 281.25 108.699C279.388 111.225 276.803 112.488 273.496 112.488C270.853 112.488 268.698 111.779 267.031 110.359C265.365 108.94 264.368 107.033 264.043 104.637ZM295.508 83.25C298.281 83.25 300.449 84.2396 302.012 86.2188C303.874 88.5625 304.805 92.4492 304.805 97.8789C304.805 103.296 303.867 107.189 301.992 109.559C300.443 111.512 298.281 112.488 295.508 112.488C292.721 112.488 290.475 111.421 288.77 109.285C287.064 107.137 286.211 103.315 286.211 97.8203C286.211 92.4297 287.148 88.5495 289.023 86.1797C290.573 84.2266 292.734 83.25 295.508 83.25ZM295.508 87.8008C294.844 87.8008 294.251 88.0156 293.73 88.4453C293.21 88.862 292.806 89.6172 292.52 90.7109C292.142 92.1302 291.953 94.5195 291.953 97.8789C291.953 101.238 292.122 103.549 292.461 104.812C292.799 106.062 293.223 106.896 293.73 107.312C294.251 107.729 294.844 107.938 295.508 107.938C296.172 107.938 296.764 107.729 297.285 107.312C297.806 106.883 298.21 106.121 298.496 105.027C298.874 103.621 299.062 101.238 299.062 97.8789C299.062 94.5195 298.893 92.2148 298.555 90.9648C298.216 89.7018 297.786 88.862 297.266 88.4453C296.758 88.0156 296.172 87.8008 295.508 87.8008ZM315.957 107.879V100.438H308.457V95.3008H315.957V87.8594H320.957V95.3008H328.477V100.438H320.957V107.879H315.957Z" fill="white"/>
</g>
<g filter="url(#filter6_d_710_1232)">
<path d="M240.624 171.737L244.412 171.5C244.494 172.115 244.661 172.584 244.913 172.906C245.323 173.428 245.909 173.688 246.671 173.688C247.239 173.688 247.676 173.557 247.98 173.293C248.291 173.023 248.446 172.713 248.446 172.361C248.446 172.027 248.3 171.729 248.007 171.465C247.714 171.201 247.034 170.952 245.968 170.718C244.222 170.325 242.977 169.804 242.232 169.153C241.482 168.503 241.107 167.674 241.107 166.666C241.107 166.004 241.298 165.38 241.679 164.794C242.065 164.202 242.643 163.739 243.41 163.405C244.184 163.065 245.241 162.896 246.583 162.896C248.229 162.896 249.483 163.203 250.345 163.818C251.212 164.428 251.728 165.4 251.892 166.736L248.139 166.956C248.039 166.376 247.828 165.954 247.506 165.69C247.189 165.427 246.75 165.295 246.188 165.295C245.725 165.295 245.376 165.395 245.142 165.594C244.907 165.787 244.79 166.024 244.79 166.306C244.79 166.511 244.887 166.695 245.08 166.859C245.268 167.029 245.713 167.188 246.416 167.334C248.156 167.709 249.401 168.09 250.151 168.477C250.907 168.857 251.455 169.332 251.795 169.9C252.141 170.469 252.313 171.104 252.313 171.808C252.313 172.634 252.085 173.396 251.628 174.093C251.171 174.79 250.532 175.32 249.712 175.684C248.892 176.041 247.857 176.22 246.609 176.22C244.418 176.22 242.9 175.798 242.057 174.954C241.213 174.11 240.735 173.038 240.624 171.737ZM263.924 176H260.584V174.488C260.086 175.109 259.582 175.552 259.072 175.815C258.568 176.079 257.947 176.211 257.209 176.211C256.225 176.211 255.451 175.918 254.889 175.332C254.332 174.74 254.054 173.832 254.054 172.607V166.666H257.648V171.799C257.648 172.385 257.757 172.801 257.974 173.047C258.19 173.293 258.495 173.416 258.888 173.416C259.315 173.416 259.664 173.252 259.934 172.924C260.209 172.596 260.347 172.007 260.347 171.157V166.666H263.924V176ZM273.056 172.353L276.457 172.739C276.27 173.448 275.962 174.063 275.534 174.585C275.106 175.101 274.559 175.502 273.891 175.789C273.229 176.076 272.385 176.22 271.359 176.22C270.369 176.22 269.543 176.129 268.881 175.947C268.225 175.76 267.659 175.461 267.185 175.051C266.71 174.635 266.338 174.148 266.068 173.592C265.799 173.035 265.664 172.297 265.664 171.377C265.664 170.416 265.828 169.616 266.156 168.978C266.396 168.509 266.725 168.09 267.141 167.721C267.557 167.346 267.984 167.067 268.424 166.886C269.121 166.599 270.015 166.455 271.104 166.455C272.628 166.455 273.788 166.728 274.585 167.272C275.388 167.817 275.95 168.614 276.272 169.663L272.906 170.111C272.801 169.713 272.607 169.414 272.326 169.215C272.051 169.01 271.679 168.907 271.21 168.907C270.618 168.907 270.138 169.121 269.769 169.549C269.405 169.971 269.224 170.612 269.224 171.474C269.224 172.241 269.405 172.824 269.769 173.223C270.132 173.621 270.595 173.82 271.157 173.82C271.626 173.82 272.019 173.7 272.335 173.46C272.657 173.22 272.897 172.851 273.056 172.353ZM285.062 172.353L288.463 172.739C288.275 173.448 287.968 174.063 287.54 174.585C287.112 175.101 286.564 175.502 285.896 175.789C285.234 176.076 284.391 176.22 283.365 176.22C282.375 176.22 281.549 176.129 280.887 175.947C280.23 175.76 279.665 175.461 279.19 175.051C278.716 174.635 278.344 174.148 278.074 173.592C277.805 173.035 277.67 172.297 277.67 171.377C277.67 170.416 277.834 169.616 278.162 168.978C278.402 168.509 278.73 168.09 279.146 167.721C279.562 167.346 279.99 167.067 280.43 166.886C281.127 166.599 282.021 166.455 283.11 166.455C284.634 166.455 285.794 166.728 286.591 167.272C287.394 167.817 287.956 168.614 288.278 169.663L284.912 170.111C284.807 169.713 284.613 169.414 284.332 169.215C284.057 169.01 283.685 168.907 283.216 168.907C282.624 168.907 282.144 169.121 281.774 169.549C281.411 169.971 281.229 170.612 281.229 171.474C281.229 172.241 281.411 172.824 281.774 173.223C282.138 173.621 282.601 173.82 283.163 173.82C283.632 173.82 284.024 173.7 284.341 173.46C284.663 173.22 284.903 172.851 285.062 172.353ZM300.469 172.221H293.297C293.361 172.795 293.517 173.223 293.763 173.504C294.108 173.908 294.56 174.11 295.116 174.11C295.468 174.11 295.802 174.022 296.118 173.847C296.312 173.735 296.52 173.539 296.742 173.258L300.267 173.583C299.728 174.521 299.077 175.194 298.315 175.604C297.554 176.009 296.461 176.211 295.037 176.211C293.801 176.211 292.828 176.038 292.119 175.692C291.41 175.341 290.821 174.787 290.353 174.031C289.89 173.27 289.658 172.376 289.658 171.351C289.658 169.892 290.124 168.711 291.056 167.809C291.993 166.906 293.285 166.455 294.932 166.455C296.268 166.455 297.322 166.657 298.096 167.062C298.869 167.466 299.458 168.052 299.862 168.819C300.267 169.587 300.469 170.586 300.469 171.816V172.221ZM296.83 170.507C296.76 169.815 296.572 169.32 296.268 169.021C295.969 168.723 295.573 168.573 295.081 168.573C294.513 168.573 294.059 168.799 293.719 169.25C293.502 169.531 293.364 169.95 293.306 170.507H296.83ZM301.479 173.416L305.03 173.082C305.177 173.504 305.382 173.806 305.646 173.987C305.909 174.169 306.261 174.26 306.7 174.26C307.181 174.26 307.553 174.157 307.816 173.952C308.021 173.8 308.124 173.609 308.124 173.381C308.124 173.123 307.989 172.924 307.72 172.783C307.526 172.684 307.014 172.561 306.182 172.414C304.939 172.197 304.075 171.998 303.589 171.816C303.108 171.629 302.701 171.315 302.367 170.876C302.039 170.437 301.875 169.936 301.875 169.373C301.875 168.758 302.054 168.228 302.411 167.782C302.769 167.337 303.261 167.006 303.888 166.789C304.515 166.566 305.355 166.455 306.41 166.455C307.523 166.455 308.344 166.54 308.871 166.71C309.404 166.88 309.847 167.144 310.198 167.501C310.556 167.858 310.852 168.342 311.086 168.951L307.693 169.285C307.605 168.986 307.459 168.767 307.254 168.626C306.973 168.438 306.633 168.345 306.234 168.345C305.83 168.345 305.534 168.418 305.347 168.564C305.165 168.705 305.074 168.878 305.074 169.083C305.074 169.312 305.191 169.484 305.426 169.602C305.66 169.719 306.17 169.824 306.955 169.918C308.145 170.053 309.029 170.24 309.609 170.48C310.189 170.721 310.632 171.063 310.937 171.509C311.247 171.954 311.402 172.443 311.402 172.977C311.402 173.516 311.238 174.04 310.91 174.55C310.588 175.06 310.075 175.467 309.372 175.771C308.675 176.07 307.723 176.22 306.516 176.22C304.811 176.22 303.595 175.977 302.868 175.49C302.147 175.004 301.685 174.312 301.479 173.416ZM312.483 173.416L316.034 173.082C316.181 173.504 316.386 173.806 316.649 173.987C316.913 174.169 317.265 174.26 317.704 174.26C318.185 174.26 318.557 174.157 318.82 173.952C319.025 173.8 319.128 173.609 319.128 173.381C319.128 173.123 318.993 172.924 318.724 172.783C318.53 172.684 318.018 172.561 317.186 172.414C315.943 172.197 315.079 171.998 314.593 171.816C314.112 171.629 313.705 171.315 313.371 170.876C313.043 170.437 312.879 169.936 312.879 169.373C312.879 168.758 313.058 168.228 313.415 167.782C313.772 167.337 314.265 167.006 314.892 166.789C315.519 166.566 316.359 166.455 317.414 166.455C318.527 166.455 319.348 166.54 319.875 166.71C320.408 166.88 320.851 167.144 321.202 167.501C321.56 167.858 321.855 168.342 322.09 168.951L318.697 169.285C318.609 168.986 318.463 168.767 318.258 168.626C317.977 168.438 317.637 168.345 317.238 168.345C316.834 168.345 316.538 168.418 316.351 168.564C316.169 168.705 316.078 168.878 316.078 169.083C316.078 169.312 316.195 169.484 316.43 169.602C316.664 169.719 317.174 169.824 317.959 169.918C319.148 170.053 320.033 170.24 320.613 170.48C321.193 170.721 321.636 171.063 321.94 171.509C322.251 171.954 322.406 172.443 322.406 172.977C322.406 173.516 322.242 174.04 321.914 174.55C321.592 175.06 321.079 175.467 320.376 175.771C319.679 176.07 318.727 176.22 317.52 176.22C315.814 176.22 314.599 175.977 313.872 175.49C313.151 175.004 312.688 174.312 312.483 173.416ZM330.422 176V163.115H337.058C338.288 163.115 339.229 163.221 339.879 163.432C340.529 163.643 341.054 164.035 341.452 164.609C341.851 165.178 342.05 165.872 342.05 166.692C342.05 167.407 341.897 168.025 341.593 168.547C341.288 169.062 340.869 169.481 340.336 169.804C339.996 170.009 339.53 170.179 338.938 170.313C339.413 170.472 339.759 170.63 339.976 170.788C340.122 170.894 340.333 171.119 340.608 171.465C340.89 171.811 341.077 172.077 341.171 172.265L343.096 176H338.596L336.469 172.062C336.199 171.553 335.959 171.222 335.748 171.069C335.461 170.87 335.136 170.771 334.772 170.771H334.421V176H330.422ZM334.421 168.336H336.1C336.281 168.336 336.633 168.277 337.154 168.16C337.418 168.107 337.632 167.973 337.796 167.756C337.966 167.539 338.051 167.29 338.051 167.009C338.051 166.593 337.919 166.273 337.655 166.051C337.392 165.828 336.896 165.717 336.17 165.717H334.421V168.336ZM347.402 169.689L343.983 169.329C344.112 168.731 344.297 168.263 344.537 167.923C344.783 167.577 345.135 167.278 345.592 167.026C345.92 166.845 346.371 166.704 346.945 166.604C347.52 166.505 348.141 166.455 348.809 166.455C349.881 166.455 350.742 166.517 351.393 166.64C352.043 166.757 352.585 167.006 353.019 167.387C353.323 167.65 353.563 168.025 353.739 168.512C353.915 168.992 354.003 169.452 354.003 169.892V174.014C354.003 174.453 354.029 174.799 354.082 175.051C354.141 175.297 354.264 175.613 354.451 176H351.094C350.959 175.76 350.871 175.578 350.83 175.455C350.789 175.326 350.748 175.127 350.707 174.857C350.238 175.309 349.772 175.631 349.31 175.824C348.677 176.082 347.941 176.211 347.104 176.211C345.99 176.211 345.144 175.953 344.563 175.438C343.989 174.922 343.702 174.286 343.702 173.53C343.702 172.821 343.91 172.238 344.326 171.781C344.742 171.324 345.51 170.984 346.629 170.762C347.971 170.492 348.841 170.305 349.239 170.199C349.638 170.088 350.06 169.944 350.505 169.769C350.505 169.329 350.414 169.021 350.232 168.846C350.051 168.67 349.731 168.582 349.274 168.582C348.688 168.582 348.249 168.676 347.956 168.863C347.728 169.01 347.543 169.285 347.402 169.689ZM350.505 171.57C350.013 171.746 349.5 171.901 348.967 172.036C348.24 172.229 347.78 172.42 347.587 172.607C347.388 172.801 347.288 173.021 347.288 173.267C347.288 173.548 347.385 173.779 347.578 173.961C347.777 174.137 348.067 174.225 348.448 174.225C348.847 174.225 349.216 174.128 349.556 173.935C349.901 173.741 350.145 173.507 350.285 173.231C350.432 172.95 350.505 172.587 350.505 172.142V171.57ZM360.146 163.115V166.666H362.115V169.276H360.146V172.59C360.146 172.988 360.185 173.252 360.261 173.381C360.378 173.58 360.583 173.68 360.876 173.68C361.14 173.68 361.509 173.604 361.983 173.451L362.247 175.921C361.362 176.114 360.536 176.211 359.769 176.211C358.878 176.211 358.222 176.097 357.8 175.868C357.378 175.64 357.064 175.294 356.859 174.831C356.66 174.362 356.561 173.606 356.561 172.563V169.276H355.242V166.666H356.561V164.952L360.146 163.115ZM363.961 163.115H367.538V165.55H363.961V163.115ZM363.961 166.666H367.538V176H363.961V166.666ZM369.384 171.359C369.384 169.936 369.864 168.764 370.825 167.844C371.786 166.918 373.084 166.455 374.719 166.455C376.588 166.455 378 166.997 378.955 168.081C379.723 168.954 380.106 170.029 380.106 171.307C380.106 172.742 379.629 173.92 378.674 174.84C377.725 175.754 376.409 176.211 374.728 176.211C373.228 176.211 372.015 175.83 371.089 175.068C369.952 174.125 369.384 172.889 369.384 171.359ZM372.97 171.351C372.97 172.183 373.137 172.798 373.471 173.196C373.811 173.595 374.235 173.794 374.745 173.794C375.261 173.794 375.683 173.598 376.011 173.205C376.345 172.812 376.512 172.183 376.512 171.315C376.512 170.507 376.345 169.906 376.011 169.514C375.677 169.115 375.264 168.916 374.771 168.916C374.25 168.916 373.819 169.118 373.479 169.522C373.14 169.921 372.97 170.53 372.97 171.351Z" fill="white"/>
</g>
<g filter="url(#filter7_d_710_1232)">
<path d="M241.816 216.379L247.129 215.793C247.259 216.874 247.598 217.674 248.145 218.195C248.691 218.716 249.414 218.977 250.312 218.977C251.445 218.977 252.409 218.456 253.203 217.414C253.997 216.372 254.505 214.211 254.727 210.93C253.346 212.531 251.621 213.332 249.551 213.332C247.298 213.332 245.352 212.466 243.711 210.734C242.083 208.99 241.27 206.724 241.27 203.938C241.27 201.034 242.129 198.697 243.848 196.926C245.579 195.142 247.78 194.25 250.449 194.25C253.353 194.25 255.736 195.376 257.598 197.629C259.46 199.868 260.391 203.56 260.391 208.703C260.391 213.938 259.421 217.714 257.48 220.031C255.54 222.349 253.014 223.508 249.902 223.508C247.663 223.508 245.853 222.915 244.473 221.73C243.092 220.533 242.207 218.749 241.816 216.379ZM254.238 204.387C254.238 202.616 253.828 201.242 253.008 200.266C252.201 199.289 251.263 198.801 250.195 198.801C249.18 198.801 248.333 199.204 247.656 200.012C246.992 200.806 246.66 202.115 246.66 203.938C246.66 205.786 247.025 207.147 247.754 208.02C248.483 208.879 249.395 209.309 250.488 209.309C251.543 209.309 252.428 208.892 253.145 208.059C253.874 207.225 254.238 206.001 254.238 204.387ZM268.672 207.551C267.253 206.952 266.217 206.132 265.566 205.09C264.928 204.035 264.609 202.883 264.609 201.633C264.609 199.497 265.352 197.733 266.836 196.34C268.333 194.947 270.456 194.25 273.203 194.25C275.924 194.25 278.034 194.947 279.531 196.34C281.042 197.733 281.797 199.497 281.797 201.633C281.797 202.961 281.452 204.146 280.762 205.188C280.072 206.216 279.102 207.004 277.852 207.551C279.44 208.189 280.645 209.12 281.465 210.344C282.298 211.568 282.715 212.98 282.715 214.582C282.715 217.225 281.868 219.374 280.176 221.027C278.496 222.681 276.257 223.508 273.457 223.508C270.853 223.508 268.685 222.824 266.953 221.457C264.909 219.842 263.887 217.629 263.887 214.816C263.887 213.267 264.271 211.848 265.039 210.559C265.807 209.257 267.018 208.254 268.672 207.551ZM269.805 202.023C269.805 203.117 270.111 203.97 270.723 204.582C271.348 205.194 272.174 205.5 273.203 205.5C274.245 205.5 275.078 205.194 275.703 204.582C276.328 203.957 276.641 203.098 276.641 202.004C276.641 200.975 276.328 200.155 275.703 199.543C275.091 198.918 274.277 198.605 273.262 198.605C272.207 198.605 271.367 198.918 270.742 199.543C270.117 200.168 269.805 200.995 269.805 202.023ZM269.297 214.289C269.297 215.799 269.681 216.978 270.449 217.824C271.23 218.671 272.201 219.094 273.359 219.094C274.492 219.094 275.43 218.69 276.172 217.883C276.914 217.062 277.285 215.884 277.285 214.348C277.285 213.007 276.908 211.932 276.152 211.125C275.397 210.305 274.44 209.895 273.281 209.895C271.94 209.895 270.938 210.357 270.273 211.281C269.622 212.206 269.297 213.208 269.297 214.289ZM293.691 218.879V211.438H286.191V206.301H293.691V198.859H298.691V206.301H306.211V211.438H298.691V218.879H293.691Z" fill="white"/>
</g>
<defs>
<filter id="filter0_d_710_1232" x="19.8262" y="26.3955" width="143.706" height="43.8926" filterUnits="userSpaceOnUse" color-interpolation-filters="sRGB">
<feFlood flood-opacity="0" result="BackgroundImageFix"/>
<feColorMatrix in="SourceAlpha" type="matrix" values="0 0 0 0 0 0 0 0 0 0 0 0 0 0 0 0 0 0 127 0" result="hardAlpha"/>
<feOffset dy="0.5"/>
<feGaussianBlur stdDeviation="0.5"/>
<feComposite in2="hardAlpha" operator="out"/>
<feColorMatrix type="matrix" values="0 0 0 0 0 0 0 0 0 0 0 0 0 0 0 0 0 0 0.25 0"/>
<feBlend mode="normal" in2="BackgroundImageFix" result="effect1_dropShadow_710_1232"/>
<feBlend mode="normal" in="SourceGraphic" in2="effect1_dropShadow_710_1232" result="shape"/>
</filter>
<filter id="filter1_d_710_1232" x="22.1641" y="83.25" width="87.3125" height="31.2383" filterUnits="userSpaceOnUse" color-interpolation-filters="sRGB">
<feFlood flood-opacity="0" result="BackgroundImageFix"/>
<feColorMatrix in="SourceAlpha" type="matrix" values="0 0 0 0 0 0 0 0 0 0 0 0 0 0 0 0 0 0 127 0" result="hardAlpha"/>
<feOffset dy="1"/>
<feGaussianBlur stdDeviation="0.5"/>
<feComposite in2="hardAlpha" operator="out"/>
<feColorMatrix type="matrix" values="0 0 0 0 0 0 0 0 0 0 0 0 0 0 0 0 0 0 0.25 0"/>
<feBlend mode="normal" in2="BackgroundImageFix" result="effect1_dropShadow_710_1232"/>
<feBlend mode="normal" in="SourceGraphic" in2="effect1_dropShadow_710_1232" result="shape"/>
</filter>
<filter id="filter2_d_710_1232" x="19.4131" y="162.396" width="145.798" height="18.8926" filterUnits="userSpaceOnUse" color-interpolation-filters="sRGB">
<feFlood flood-opacity="0" result="BackgroundImageFix"/>
<feColorMatrix in="SourceAlpha" type="matrix" values="0 0 0 0 0 0 0 0 0 0 0 0 0 0 0 0 0 0 127 0" result="hardAlpha"/>
<feOffset dy="0.5"/>
<feGaussianBlur stdDeviation="0.5"/>
<feComposite in2="hardAlpha" operator="out"/>
<feColorMatrix type="matrix" values="0 0 0 0 0 0 0 0 0 0 0 0 0 0 0 0 0 0 0.25 0"/>
<feBlend mode="normal" in2="BackgroundImageFix" result="effect1_dropShadow_710_1232"/>
<feBlend mode="normal" in="SourceGraphic" in2="effect1_dropShadow_710_1232" result="shape"/>
</filter>
<filter id="filter3_d_710_1232" x="20.5039" y="194.25" width="66.707" height="31.2383" filterUnits="userSpaceOnUse" color-interpolation-filters="sRGB">
<feFlood flood-opacity="0" result="BackgroundImageFix"/>
<feColorMatrix in="SourceAlpha" type="matrix" values="0 0 0 0 0 0 0 0 0 0 0 0 0 0 0 0 0 0 127 0" result="hardAlpha"/>
<feOffset dy="1"/>
<feGaussianBlur stdDeviation="0.5"/>
<feComposite in2="hardAlpha" operator="out"/>
<feColorMatrix type="matrix" values="0 0 0 0 0 0 0 0 0 0 0 0 0 0 0 0 0 0 0.25 0"/>
<feBlend mode="normal" in2="BackgroundImageFix" result="effect1_dropShadow_710_1232"/>
<feBlend mode="normal" in="SourceGraphic" in2="effect1_dropShadow_710_1232" result="shape"/>
</filter>
<filter id="filter4_d_710_1232" x="239.018" y="26.6152" width="139.927" height="43.4355" filterUnits="userSpaceOnUse" color-interpolation-filters="sRGB">
<feFlood flood-opacity="0" result="BackgroundImageFix"/>
<feColorMatrix in="SourceAlpha" type="matrix" values="0 0 0 0 0 0 0 0 0 0 0 0 0 0 0 0 0 0 127 0" result="hardAlpha"/>
<feOffset dy="0.5"/>
<feGaussianBlur stdDeviation="0.5"/>
<feComposite in2="hardAlpha" operator="out"/>
<feColorMatrix type="matrix" values="0 0 0 0 0 0 0 0 0 0 0 0 0 0 0 0 0 0 0.25 0"/>
<feBlend mode="normal" in2="BackgroundImageFix" result="effect1_dropShadow_710_1232"/>
<feBlend mode="normal" in="SourceGraphic" in2="effect1_dropShadow_710_1232" result="shape"/>
</filter>
<filter id="filter5_d_710_1232" x="242.164" y="83.25" width="87.3125" height="31.2383" filterUnits="userSpaceOnUse" color-interpolation-filters="sRGB">
<feFlood flood-opacity="0" result="BackgroundImageFix"/>
<feColorMatrix in="SourceAlpha" type="matrix" values="0 0 0 0 0 0 0 0 0 0 0 0 0 0 0 0 0 0 127 0" result="hardAlpha"/>
<feOffset dy="1"/>
<feGaussianBlur stdDeviation="0.5"/>
<feComposite in2="hardAlpha" operator="out"/>
<feColorMatrix type="matrix" values="0 0 0 0 0 0 0 0 0 0 0 0 0 0 0 0 0 0 0.25 0"/>
<feBlend mode="normal" in2="BackgroundImageFix" result="effect1_dropShadow_710_1232"/>
<feBlend mode="normal" in="SourceGraphic" in2="effect1_dropShadow_710_1232" result="shape"/>
</filter>
<filter id="filter6_d_710_1232" x="239.624" y="162.396" width="141.482" height="15.3242" filterUnits="userSpaceOnUse" color-interpolation-filters="sRGB">
<feFlood flood-opacity="0" result="BackgroundImageFix"/>
<feColorMatrix in="SourceAlpha" type="matrix" values="0 0 0 0 0 0 0 0 0 0 0 0 0 0 0 0 0 0 127 0" result="hardAlpha"/>
<feOffset dy="0.5"/>
<feGaussianBlur stdDeviation="0.5"/>
<feComposite in2="hardAlpha" operator="out"/>
<feColorMatrix type="matrix" values="0 0 0 0 0 0 0 0 0 0 0 0 0 0 0 0 0 0 0.25 0"/>
<feBlend mode="normal" in2="BackgroundImageFix" result="effect1_dropShadow_710_1232"/>
<feBlend mode="normal" in="SourceGraphic" in2="effect1_dropShadow_710_1232" result="shape"/>
</filter>
<filter id="filter7_d_710_1232" x="240.27" y="194.25" width="66.9414" height="31.2578" filterUnits="userSpaceOnUse" color-interpolation-filters="sRGB">
<feFlood flood-opacity="0" result="BackgroundImageFix"/>
<feColorMatrix in="SourceAlpha" type="matrix" values="0 0 0 0 0 0 0 0 0 0 0 0 0 0 0 0 0 0 127 0" result="hardAlpha"/>
<feOffset dy="1"/>
<feGaussianBlur stdDeviation="0.5"/>
<feComposite in2="hardAlpha" operator="out"/>
<feColorMatrix type="matrix" values="0 0 0 0 0 0 0 0 0 0 0 0 0 0 0 0 0 0 0.25 0"/>
<feBlend mode="normal" in2="BackgroundImageFix" result="effect1_dropShadow_710_1232"/>
<feBlend mode="normal" in="SourceGraphic" in2="effect1_dropShadow_710_1232" result="shape"/>
</filter>
</defs>
</svg>
