<svg width="40" height="40" viewBox="0 0 40 40" fill="none" xmlns="http://www.w3.org/2000/svg">
<g id="cpo">
<mask id="mask0_2540_2940" style="mask-type:alpha" maskUnits="userSpaceOnUse" x="0" y="0" width="40" height="40">
<rect id="Bounding box" width="40" height="40" fill="#D9D9D9"/>
</mask>
<g mask="url(#mask0_2540_2940)">
<path id="credit_card_gear" d="M6.66671 30.0001V16.6667V17.2084V10.0001V30.0001ZM6.66671 13.3334H33.3334V10.0001H6.66671V13.3334ZM19.2917 33.3334H6.66671C5.75004 33.3334 4.96532 33.007 4.31254 32.3542C3.65976 31.7015 3.33337 30.9167 3.33337 30.0001V10.0001C3.33337 9.08341 3.65976 8.29869 4.31254 7.64591C4.96532 6.99314 5.75004 6.66675 6.66671 6.66675H33.3334C34.25 6.66675 35.0348 6.99314 35.6875 7.64591C36.3403 8.29869 36.6667 9.08341 36.6667 10.0001V18.8751C35.6945 18.1806 34.632 17.639 33.4792 17.2501C32.3264 16.8612 31.1112 16.6667 29.8334 16.6667C28.25 16.6667 26.757 16.9654 25.3542 17.5626C23.9514 18.1598 22.7223 18.9723 21.6667 20.0001H6.66671V30.0001H18.2917C18.375 30.5834 18.5 31.1529 18.6667 31.7084C18.8334 32.264 19.0417 32.8056 19.2917 33.3334ZM28.1667 36.6667L27.6667 34.1667C27.3334 34.0279 27.0209 33.882 26.7292 33.7293C26.4375 33.5765 26.1389 33.389 25.8334 33.1667L23.4167 33.9167L21.75 31.0834L23.6667 29.4167C23.6112 29.0556 23.5834 28.6945 23.5834 28.3334C23.5834 27.9723 23.6112 27.6112 23.6667 27.2501L21.75 25.5834L23.4167 22.7501L25.8334 23.5001C26.1389 23.2779 26.4375 23.0904 26.7292 22.9376C27.0209 22.7848 27.3334 22.639 27.6667 22.5001L28.1667 20.0001H31.5L32 22.5001C32.3334 22.639 32.6459 22.7848 32.9375 22.9376C33.2292 23.0904 33.5278 23.2779 33.8334 23.5001L36.25 22.7501L37.9167 25.5834L36 27.2501C36.0556 27.6112 36.0834 27.9723 36.0834 28.3334C36.0834 28.6945 36.0556 29.0556 36 29.4167L37.9167 31.0834L36.25 33.9167L33.8334 33.1667C33.5278 33.389 33.2292 33.5765 32.9375 33.7293C32.6459 33.882 32.3334 34.0279 32 34.1667L31.5 36.6667H28.1667ZM29.8334 31.6667C30.75 31.6667 31.5348 31.3404 32.1875 30.6876C32.8403 30.0348 33.1667 29.2501 33.1667 28.3334C33.1667 27.4167 32.8403 26.632 32.1875 25.9792C31.5348 25.3265 30.75 25.0001 29.8334 25.0001C28.9167 25.0001 28.132 25.3265 27.4792 25.9792C26.8264 26.632 26.5 27.4167 26.5 28.3334C26.5 29.2501 26.8264 30.0348 27.4792 30.6876C28.132 31.3404 28.9167 31.6667 29.8334 31.6667Z" fill="#1C1B1F"/>
</g>
</g>
</svg>
