<svg width="80" height="80" viewBox="0 0 80 80" fill="none" xmlns="http://www.w3.org/2000/svg">
<g id="Delivered">
<path id="Vector" d="M6.24796 2.50024C4.19199 2.50024 2.50024 4.16265 2.50024 6.24786V42.5032C2.50024 44.6031 4.19199 46.2484 6.24796 46.2484H44.1741C46.1055 47.8086 48.5813 48.7484 51.2495 48.7484C57.4965 48.7484 62.4999 43.6992 62.4999 37.5007C62.4999 35.4964 61.9763 33.6055 61.0521 31.9733L63.3862 29.6393C64.1777 28.8459 63.6054 27.4668 62.4608 27.503C62.1367 27.5125 61.8492 27.6344 61.6234 27.8668L59.5652 29.9176C57.506 27.6603 54.5357 26.253 51.2495 26.253V6.24786C51.2495 4.19195 49.5895 2.50024 47.5043 2.50024H6.24796ZM6.24796 5.00272H19.996V16.2504C19.9955 17.2167 21.0447 17.8182 21.8784 17.3296L26.881 14.4511L31.8812 17.3296C32.7132 17.8097 33.7534 17.211 33.7562 16.2504V5.00272H47.5043C48.2184 5.00272 48.7494 5.56791 48.7494 6.24786V26.5338C43.7119 27.6859 40.0016 32.1631 40.0016 37.5007C40.0016 39.8107 40.6954 41.9594 41.8962 43.7484H6.24796C5.56309 43.7484 5.00277 43.2174 5.00277 42.5032V6.24786C5.00277 5.55813 5.5338 5.00272 6.24796 5.00272ZM22.4961 5.00272H31.2537V14.0898L27.4987 11.9315C27.1132 11.71 26.6391 11.71 26.2535 11.9315L22.4961 14.0898V5.00272ZM51.2495 28.753C53.8617 28.753 56.1927 29.892 57.7927 31.695L51.2495 38.2307L47.1356 34.1144C45.9198 32.9865 44.24 34.6516 45.3631 35.8869L50.3657 40.887C50.8542 41.3766 51.6473 41.3766 52.1358 40.887L59.1917 33.8337C59.7053 34.949 59.9974 36.1878 59.9974 37.5007C59.9974 42.3481 56.0775 46.2484 51.2495 46.2484C46.4021 46.2484 42.5041 42.3237 42.5041 37.5007C42.5041 32.6827 46.4021 28.753 51.2495 28.753ZM10.0005 31.2482C9.37458 31.2482 8.74892 31.6653 8.75048 32.5006V38.7507C8.7474 40.4209 11.2536 40.4209 11.2505 38.7507V32.5006C11.2521 31.6655 10.6265 31.2482 10.0005 31.2482ZM15.0007 31.2482C14.3748 31.2482 13.7491 31.6653 13.7507 32.5006V38.7507C13.7475 40.4209 16.2538 40.4209 16.2507 38.7507V32.5006C16.2522 31.6655 15.6267 31.2482 15.0007 31.2482ZM20.0009 31.2482C19.3749 31.2482 18.7493 31.6653 18.7508 32.5006V38.7507C18.7477 40.4209 21.254 40.4209 21.2509 38.7507V32.5006C21.2524 31.6655 20.6268 31.2482 20.0009 31.2482ZM25.4038 68.0894C28.7708 70.3561 32.3151 72.6375 35.4066 74.3834C38.4982 76.1293 41.2535 77.4169 42.9728 77.5011C42.9965 77.5017 43.0154 77.5017 43.0385 77.5011C45.5318 77.5011 48.7607 76.6116 51.6203 75.7579C53.0502 75.3309 54.4 74.905 55.5048 74.5958C56.6095 74.2868 57.4041 74.1149 57.7924 74.1149H62.5216C62.6378 76 64.1355 77.5011 66.0154 77.5011H72.5488C74.5081 77.5011 75.9297 75.8873 76.0646 73.9757L77.4929 53.7044C77.6374 51.6507 75.9363 50.0032 73.9771 50.0032H66.0154C64.0144 50.0032 62.4996 51.6667 62.4996 53.6214V53.7508H57.6631L52.1184 51.3777C51.964 51.3116 51.7958 51.278 51.6277 51.2776H33.6632C31.1542 51.2776 29.0456 53.062 28.6508 55.4647L18.3355 49.488C17.342 48.9119 16.2395 48.6746 15.169 48.7483C14.8124 48.772 14.4588 48.8316 14.1144 48.9242C12.7371 49.2946 11.504 50.1982 10.7403 51.5268C9.20275 54.2017 10.2703 57.4884 12.7167 59.1074C12.7167 59.1074 18.6699 63.5559 25.4038 68.0894ZM15.3349 51.2387C15.923 51.1961 16.5332 51.3233 17.0904 51.6465L29.2466 58.6998C30.1262 60.2178 31.7761 61.2535 33.6633 61.2535H46.0636C47.7307 61.2535 47.7307 58.751 46.0636 58.751H33.6633C32.1808 58.751 31.0704 57.5921 31.0704 56.2705C31.0704 54.949 32.1808 53.7778 33.6633 53.7778H51.3714L56.9258 56.1485C57.0803 56.2146 57.2461 56.2506 57.4141 56.251H62.4997V71.615H57.7925C57.0312 71.615 55.9965 71.8602 54.831 72.1863C53.6655 72.5123 52.3179 72.9379 50.91 73.3582C48.1074 74.1948 45.1628 74.9915 43.0752 74.9915C41.9514 74.9287 39.6285 73.8911 36.6443 72.2058C33.6514 70.5156 30.1433 68.26 26.8076 66.0143C20.1361 61.5229 14.091 57.0224 14.091 57.0224C12.6233 55.9534 12.0713 54.2319 12.9105 52.7718C13.4351 51.8592 14.355 51.311 15.3349 51.2387ZM66.0155 52.5058H73.9772C74.5333 52.5058 75.0422 52.967 75.0026 53.5288L73.5719 73.7927C73.5176 74.5659 73.036 75.0013 72.5489 75.0013H66.0155C65.4914 75.0013 64.9998 74.5529 64.9998 73.8855V53.6216C64.9998 52.9541 65.4816 52.5058 66.0155 52.5058ZM69.8169 70.0012C69.1265 70.0012 68.5668 70.5608 68.5668 71.2512C68.5668 71.9416 69.1265 72.5012 69.8169 72.5012C70.5073 72.5012 71.0669 71.9416 71.0669 71.2512C71.0669 70.5609 70.5073 70.0012 69.8169 70.0012Z" fill="#142149"/>
</g>
</svg>
