<svg width="56" height="56" viewBox="0 0 56 56" fill="none" xmlns="http://www.w3.org/2000/svg">
<path d="M43.197 15.876L43.722 15.0815L44.639 15.638L45.045 15.9285C46.025 16.6845 48.0865 18.6165 48.531 21.8225C49.3115 21.6825 50.099 21.6125 50.8865 21.6125C52.7555 21.6125 54.012 22.0465 54.726 22.407L55.0935 22.6065L55.3315 22.764L56 23.31L55.769 24.01C55.41 24.9696 54.849 25.841 54.124 26.565C53.109 27.6115 51.324 28.847 48.4925 29.008L47.8695 29.0255H47.3515C46.0565 32.445 44.317 36.2985 41.3945 39.7565C39.6604 41.8114 37.6036 43.5703 35.3045 44.9645C32.5482 46.5997 29.5299 47.746 26.383 48.3525C24.129 48.79 21.84 49.007 19.5475 49C14.4725 49 9.9925 47.992 7.238 46.228C4.7775 44.6565 2.8875 42.091 1.617 38.6085C0.505143 35.4263 -0.0409366 32.074 0.00350117 28.7035C-0.00225753 28.2714 0.147143 27.8515 0.424576 27.5201C0.70201 27.1887 1.08908 26.9678 1.5155 26.8975L1.7535 26.88H38.6435L38.9655 26.8555L39.487 26.7995C40.383 26.6805 41.748 26.4145 42.707 25.8545C41.559 23.954 41.2335 21.7315 41.769 19.3655C41.9933 18.3786 42.3463 17.4254 42.819 16.5305L43.197 15.876ZM10.115 20.244L10.255 20.2685C10.3189 20.2924 10.3765 20.3308 10.4233 20.3805C10.47 20.4303 10.5046 20.4902 10.5245 20.5555L10.5455 20.6955V25.298L10.5245 25.4415C10.5043 25.5072 10.4691 25.5673 10.4217 25.6171C10.3744 25.6669 10.3161 25.705 10.2515 25.7285L10.115 25.7495H5.173C5.08089 25.7483 4.99156 25.7178 4.91795 25.6624C4.84433 25.607 4.79024 25.5297 4.7635 25.4415L4.739 25.3015V20.692L4.7635 20.552C4.78325 20.4857 4.81821 20.4249 4.86561 20.3744C4.913 20.324 4.97152 20.2853 5.0365 20.2615L5.173 20.2405L10.115 20.244ZM16.9295 20.244L17.066 20.2685C17.1306 20.292 17.1889 20.3301 17.2362 20.3799C17.2836 20.4297 17.3188 20.4898 17.339 20.5555L17.36 20.6955V25.298L17.3355 25.4415C17.3153 25.5072 17.2801 25.5673 17.2327 25.6171C17.1854 25.6669 17.1271 25.705 17.0625 25.7285L16.926 25.7495H11.984C11.892 25.7477 11.803 25.717 11.7294 25.6617C11.6559 25.6064 11.6017 25.5294 11.5745 25.4415L11.55 25.305V20.6955C11.5493 20.6018 11.5774 20.5102 11.6307 20.4332C11.6839 20.3562 11.7596 20.2974 11.8475 20.265L11.984 20.2405L16.9295 20.244ZM23.8455 20.244L23.982 20.2685C24.0459 20.2924 24.1035 20.3308 24.1503 20.3805C24.197 20.4303 24.2316 20.4902 24.2515 20.5555L24.276 20.6955V25.298L24.2515 25.4415C24.2313 25.5072 24.1961 25.5673 24.1487 25.6171C24.1014 25.6669 24.0431 25.705 23.9785 25.7285L23.842 25.7495H18.9C18.8079 25.7483 18.7186 25.7178 18.6449 25.6624C18.5713 25.607 18.5172 25.5297 18.4905 25.4415L18.4695 25.3015V20.692L18.4905 20.552C18.5102 20.4857 18.5452 20.4249 18.5926 20.3744C18.64 20.324 18.6985 20.2853 18.7635 20.2615L18.9 20.2405L23.8455 20.244ZM30.6775 20.244L30.814 20.2685C30.8786 20.292 30.9369 20.3301 30.9842 20.3799C31.0316 20.4297 31.0668 20.4898 31.087 20.5555L31.1115 20.6955V25.298C31.1122 25.3917 31.0841 25.4832 31.0308 25.5603C30.9776 25.6373 30.9019 25.6961 30.814 25.7285L30.674 25.7495H25.7355C25.6434 25.7483 25.5541 25.7178 25.4804 25.6624C25.4068 25.607 25.3527 25.5297 25.326 25.4415L25.305 25.3015V20.692L25.326 20.552C25.3457 20.4857 25.3807 20.4249 25.4281 20.3744C25.4755 20.324 25.534 20.2853 25.599 20.2615L25.739 20.2405H30.681L30.6775 20.244ZM37.5725 20.244L37.709 20.2685C37.7736 20.292 37.8319 20.3301 37.8792 20.3799C37.9266 20.4297 37.9618 20.4898 37.982 20.5555L38.003 20.6955V25.298C38.0037 25.3917 37.9756 25.4832 37.9223 25.5603C37.8691 25.6373 37.7934 25.6961 37.7055 25.7285L37.569 25.7495H32.627C32.5349 25.7483 32.4456 25.7178 32.3719 25.6624C32.2983 25.607 32.2442 25.5297 32.2175 25.4415L32.1965 25.3015V20.692L32.2175 20.552C32.2372 20.4857 32.2722 20.4249 32.3196 20.3744C32.367 20.324 32.4255 20.2853 32.4905 20.2615L32.6305 20.2405H37.569L37.5725 20.244ZM16.9225 13.622L17.0625 13.6465C17.1261 13.6701 17.1834 13.7079 17.2301 13.757C17.2768 13.8061 17.3117 13.8653 17.332 13.93L17.3565 14.0735V18.676C17.3572 18.7697 17.3291 18.8612 17.2758 18.9383C17.2226 19.0153 17.1469 19.0741 17.059 19.1065L16.9225 19.131H11.984C11.8911 19.1288 11.8014 19.097 11.7278 19.0404C11.6542 18.9838 11.6005 18.9052 11.5745 18.816L11.55 18.676V14.0735C11.55 13.9804 11.5785 13.8896 11.6317 13.8133C11.6849 13.7369 11.7602 13.6787 11.8475 13.6465L11.984 13.622H16.9225ZM23.8385 13.622L23.9785 13.6465C24.0421 13.6701 24.0994 13.7079 24.1461 13.757C24.1928 13.8061 24.2277 13.8653 24.248 13.93L24.2725 14.0735V18.676C24.2732 18.7697 24.2451 18.8612 24.1918 18.9383C24.1386 19.0153 24.0629 19.0741 23.975 19.1065L23.8385 19.131H18.9C18.8071 19.1288 18.7174 19.097 18.6438 19.0404C18.5702 18.9838 18.5165 18.9052 18.4905 18.816L18.4695 18.676V14.0735L18.4905 13.9335C18.5107 13.8678 18.5459 13.8077 18.5933 13.7579C18.6406 13.7081 18.6989 13.67 18.7635 13.6465L18.9 13.622H23.8385ZM30.674 13.622C30.863 13.622 31.024 13.7515 31.0835 13.93L31.108 14.0735V18.676C31.1087 18.7697 31.0806 18.8612 31.0273 18.9383C30.9741 19.0153 30.8984 19.0741 30.8105 19.1065L30.6705 19.131H25.7355C25.6426 19.1288 25.5529 19.097 25.4793 19.0404C25.4057 18.9838 25.352 18.9052 25.326 18.816L25.305 18.676V14.0735L25.326 13.9335C25.3462 13.8678 25.3814 13.8077 25.4288 13.7579C25.4761 13.7081 25.5344 13.67 25.599 13.6465L25.739 13.622H30.681H30.674ZM30.674 7C30.863 7 31.024 7.1295 31.0835 7.308L31.108 7.448V12.054C31.1087 12.1477 31.0806 12.2393 31.0273 12.3163C30.9741 12.3933 30.8984 12.4521 30.8105 12.4845L30.6705 12.5055H25.7355C25.6434 12.5043 25.5541 12.4738 25.4804 12.4184C25.4068 12.363 25.3527 12.2857 25.326 12.1975L25.305 12.0575V7.448L25.326 7.308C25.3462 7.24231 25.3814 7.18221 25.4288 7.13241C25.4761 7.08261 25.5344 7.04448 25.599 7.021L25.7355 7H30.6775H30.674Z" fill="white"/>
</svg>
