<svg width="46" height="45" viewBox="0 0 46 45" fill="none" xmlns="http://www.w3.org/2000/svg">
<path d="M38.886 27.8683C38.6855 27.7419 38.4562 27.6681 38.2196 27.654C37.983 27.6399 37.7466 27.6858 37.5325 27.7875C36.9966 28.0409 36.4054 28.1547 35.8138 28.1184C35.2221 28.082 34.6493 27.8967 34.1485 27.5795C33.6477 27.2624 33.2353 26.8238 32.9495 26.3045C32.6637 25.7852 32.5138 25.2021 32.5138 24.6094C32.5138 24.0166 32.6637 23.4335 32.9495 22.9142C33.2353 22.3949 33.6477 21.9563 34.1485 21.6392C34.6493 21.3221 35.2221 21.1367 35.8138 21.1004C36.4054 21.064 36.9966 21.1778 37.5325 21.4312C37.7468 21.533 37.9835 21.5788 38.2203 21.5645C38.4572 21.5501 38.6866 21.4761 38.8871 21.3492C39.0877 21.2224 39.2529 21.0469 39.3673 20.839C39.4817 20.6311 39.5417 20.3976 39.5416 20.1603V12.6562C39.5416 11.9103 39.2453 11.1949 38.7179 10.6675C38.1904 10.1401 37.4751 9.84374 36.7291 9.84374H30.3623C30.3885 9.61028 30.4014 9.37553 30.401 9.14061C30.3997 8.27634 30.2219 7.42143 29.8786 6.62829C29.5352 5.83515 29.0335 5.12049 28.4041 4.52811C27.5327 3.70969 26.4473 3.15485 25.2736 2.92783C24.0999 2.70082 22.8859 2.81091 21.7722 3.24536C20.6584 3.67982 19.6905 4.42087 18.9806 5.38269C18.2706 6.34451 17.8476 7.48777 17.7606 8.68006C17.7336 9.0679 17.7418 9.45739 17.7852 9.84374H11.4166C10.6707 9.84374 9.95535 10.1401 9.4279 10.6675C8.90045 11.1949 8.60414 11.9103 8.60414 12.6562V18.3199C8.37068 18.2937 8.13593 18.2808 7.90101 18.2812C7.03675 18.2826 6.18188 18.4605 5.38875 18.8038C4.59563 19.1472 3.88095 19.6489 3.28851 20.2781C2.69182 20.9084 2.23236 21.6556 1.93918 22.4725C1.646 23.2895 1.52546 24.1583 1.58519 25.0242C1.68596 26.5489 2.3338 27.9859 3.40957 29.0711C4.48534 30.1562 5.91672 30.8165 7.44046 30.9305C7.82828 30.9583 8.21785 30.9501 8.60414 30.9058V36.5625C8.60414 37.3084 8.90045 38.0238 9.4279 38.5512C9.95535 39.0787 10.6707 39.375 11.4166 39.375H36.7291C37.4751 39.375 38.1904 39.0787 38.7179 38.5512C39.2453 38.0238 39.5416 37.3084 39.5416 36.5625V29.0584C39.5418 28.8208 39.4817 28.587 39.3671 28.3789C39.2524 28.1708 39.0869 27.9952 38.886 27.8683ZM36.7291 36.5625H11.4166V29.0584C11.4167 28.8211 11.3567 28.5876 11.2423 28.3797C11.1279 28.1719 10.9627 27.9963 10.7621 27.8695C10.5616 27.7426 10.3322 27.6686 10.0953 27.6542C9.85848 27.6399 9.62184 27.6857 9.40746 27.7875C8.87161 28.0409 8.2804 28.1547 7.68877 28.1184C7.09714 28.082 6.5243 27.8967 6.02353 27.5795C5.52275 27.2624 5.11028 26.8238 4.82447 26.3045C4.53866 25.7852 4.38879 25.2021 4.38879 24.6094C4.38879 24.0166 4.53866 23.4335 4.82447 22.9142C5.11028 22.3949 5.52275 21.9563 6.02353 21.6392C6.5243 21.3221 7.09714 21.1367 7.68877 21.1004C8.2804 21.064 8.87161 21.1778 9.40746 21.4312C9.62184 21.533 9.85848 21.5788 10.0953 21.5645C10.3322 21.5501 10.5616 21.4761 10.7621 21.3492C10.9627 21.2224 11.1279 21.0469 11.2423 20.839C11.3567 20.6311 11.4167 20.3976 11.4166 20.1603V12.6562H19.6239C19.8612 12.6563 20.0946 12.5963 20.3025 12.4819C20.5104 12.3675 20.6859 12.2023 20.8128 12.0017C20.9396 11.8012 21.0137 11.5718 21.028 11.3349C21.0423 11.0981 20.9965 10.8614 20.8948 10.6471C20.6413 10.1112 20.5275 9.52 20.5639 8.92837C20.6002 8.33674 20.7856 7.7639 21.1027 7.26312C21.4198 6.76235 21.8584 6.34988 22.3777 6.06407C22.897 5.77826 23.4801 5.62839 24.0729 5.62839C24.6656 5.62839 25.2488 5.77826 25.768 6.06407C26.2873 6.34988 26.7259 6.76235 27.0431 7.26312C27.3602 7.7639 27.5455 8.33674 27.5819 8.92837C27.6183 9.52 27.5044 10.1112 27.251 10.6471C27.1493 10.8614 27.1034 11.0981 27.1178 11.3349C27.1321 11.5718 27.2061 11.8012 27.333 12.0017C27.4599 12.2023 27.6354 12.3675 27.8433 12.4819C28.0512 12.5963 28.2846 12.6563 28.5219 12.6562H36.7291V18.3217C36.3428 18.2774 35.9533 18.2692 35.5655 18.2971C33.9288 18.413 32.4011 19.16 31.3047 20.3807C30.2082 21.6013 29.6288 23.2001 29.6885 24.8398C29.7483 26.4795 30.4425 28.0319 31.6249 29.1695C32.8072 30.3071 34.3852 30.941 36.026 30.9375C36.2609 30.9379 36.4957 30.925 36.7291 30.8988V36.5625Z" fill="black"/>
</svg>
