<svg width="56" height="56" viewBox="0 0 56 56" fill="none" xmlns="http://www.w3.org/2000/svg">
<g clip-path="url(#clip0_605_595)">
<path d="M42.875 0H13.125C5.87626 0 0 5.87626 0 13.125V42.875C0 50.1237 5.87626 56 13.125 56H42.875C50.1237 56 56 50.1237 56 42.875V13.125C56 5.87626 50.1237 0 42.875 0Z" fill="white"/>
<path d="M19.8135 21.6821C21.7459 27.5914 22.4779 38.1325 28.1286 38.1325C28.5582 38.1325 28.9935 38.0905 29.4297 38.0074C24.2935 36.81 23.6845 26.3835 20.5498 20.9834C20.3 21.2117 20.0545 21.4446 19.8135 21.6821Z" fill="url(#paint0_linear_605_595)"/>
<path d="M20.5498 20.9836C23.6845 26.3833 24.2935 36.8098 29.4297 38.0076C29.842 37.9298 30.2476 37.8202 30.6429 37.6799C26.0321 35.4207 24.7581 25.2961 21.1982 20.4219C20.9829 20.6013 20.7664 20.7889 20.5498 20.9836Z" fill="url(#paint1_linear_605_595)"/>
<path d="M25.066 17.7725C24.6373 17.7725 24.2011 17.8145 23.7636 17.8976C22.6208 18.1133 21.4588 18.6055 20.2881 19.3505C20.6075 19.6664 20.9124 20.0274 21.1985 20.4215C22.3898 19.4332 23.5728 18.703 24.751 18.2638C25.1813 18.103 25.6247 17.9797 26.0762 17.8954C25.7459 17.8127 25.4065 17.7714 25.066 17.7725Z" fill="#14559A"/>
<path d="M34.2424 35.5976C34.7335 35.2052 35.2065 34.7906 35.6599 34.3551C33.6964 28.4737 32.9933 17.7812 27.3032 17.7812C26.8963 17.7812 26.4859 17.8193 26.0764 17.895C31.2595 19.1843 31.9236 30.4609 34.2424 35.5976Z" fill="url(#paint2_linear_605_595)"/>
<path d="M26.0767 17.8959C25.7462 17.8128 25.4065 17.7713 25.0657 17.7725L27.303 17.7808C26.8966 17.7808 26.4862 17.8184 26.0767 17.8959Z" fill="#3092C4"/>
<path d="M34.1424 36.8463C33.9159 36.6274 33.7018 36.396 33.501 36.1533C32.5438 36.831 31.59 37.3451 30.6428 37.6798C30.9801 37.8443 31.3332 37.9668 31.7086 38.0424C31.9991 38.1019 32.3005 38.1326 32.6164 38.1326C33.6799 38.1326 34.5208 38.0066 35.2357 37.6636C34.8419 37.4501 34.4806 37.1744 34.1424 36.8463Z" fill="#1969BC"/>
<path d="M24.7507 18.2652C29.393 20.6933 29.7969 31.6894 33.5012 36.1541C33.7497 35.9791 33.9955 35.7936 34.241 35.5981C31.9222 30.4614 31.2594 19.1835 26.0772 17.8955C25.6349 17.9782 25.1935 18.1007 24.7507 18.2652Z" fill="url(#paint3_linear_605_595)"/>
<path d="M21.1982 20.4215C24.7582 25.2957 26.0322 35.4208 30.643 37.68C31.5906 37.3453 32.5444 36.8317 33.5012 36.1536C29.7969 31.6889 29.3931 20.6932 24.7507 18.2646C23.5726 18.703 22.3896 19.4332 21.1982 20.4215Z" fill="url(#paint4_linear_605_595)"/>
<path d="M17.5362 21.5395C16.9784 22.8008 16.4084 24.4594 15.7197 26.6237C17.0895 24.693 18.4554 23.0301 19.8134 21.6821C19.642 21.1452 19.4402 20.6184 19.2088 20.1045C18.6255 20.552 18.0672 21.031 17.5362 21.5395Z" fill="url(#paint5_linear_605_595)"/>
<path d="M19.7036 19.7402C19.54 19.8575 19.375 19.9774 19.2092 20.1042C19.4258 20.5767 19.6262 21.107 19.813 21.6823C20.0545 21.4451 20.3001 21.2122 20.5497 20.9836C20.3 20.548 20.0172 20.1324 19.7036 19.7402Z" fill="#2B74B1"/>
<path d="M20.2883 19.3506C20.0936 19.474 19.8998 19.6043 19.7034 19.7404C20.0074 20.1145 20.2866 20.5323 20.5504 20.9846C20.7669 20.7886 20.9831 20.6001 21.1987 20.4216C20.9126 20.0278 20.6081 19.6665 20.2883 19.3506Z" fill="#125A9E"/>
<path d="M51.9537 17.3225C49.3282 27.448 43.8442 35.5811 39.2469 37.6312H39.2377L38.9897 37.7376L38.9595 37.7494L38.8891 37.7765L38.8576 37.7896L38.7425 37.8303L38.6952 37.8469L38.6379 37.8658L38.5828 37.885L38.5338 37.9016L38.4358 37.9314L38.3938 37.9423L38.3277 37.9602L38.2827 37.9725L38.2105 37.9913L38.1226 38.0106C38.3304 38.0871 38.5469 38.1261 38.7801 38.1261C43.1398 38.1261 47.5358 30.3132 54.8092 17.3203H51.9532L51.9537 17.3225Z" fill="url(#paint6_linear_605_595)"/>
<path d="M14.7726 18.1843L14.7809 18.1773L14.791 18.1707H14.7967L14.8671 18.1436L14.8811 18.1366L14.8995 18.1292L14.9752 18.102H14.9791L15.1467 18.0434L15.1716 18.0368L15.2434 18.0154L15.2762 18.0049L15.3484 17.9835L15.3759 17.976L15.6157 17.9139L15.6485 17.9065L15.7185 17.8929L15.7526 17.8824L15.8231 17.8693H15.8397L15.9854 17.8422H16.0142L16.0816 17.8303L16.1197 17.8238L16.184 17.8142L16.2194 17.8072L16.3761 17.7932C16.2218 17.7781 16.0669 17.7702 15.9119 17.7695C11.0018 17.7695 4.23718 26.8792 1.19043 38.6768H1.77799C2.6889 37.0484 3.57306 35.4052 4.43012 33.7479C6.56468 25.3917 10.9112 19.6928 14.7726 18.183" fill="url(#paint7_linear_605_595)"/>
<path d="M17.5364 21.5399C18.0675 21.0315 18.6259 20.5523 19.2089 20.1044C19.0904 19.8405 18.9573 19.5833 18.8104 19.334C18.3615 19.8791 17.9511 20.5984 17.5364 21.5399Z" fill="#0D82CA"/>
<path d="M17.9396 18.2526C18.2603 18.5213 18.5477 18.8914 18.8102 19.3346C18.8929 19.2331 18.9769 19.139 19.0639 19.0506C18.7115 18.7171 18.3117 18.4374 17.8774 18.2207L17.9299 18.2456L17.9396 18.2526Z" fill="#0D82CA"/>
<path d="M4.43066 33.7476C8.9076 25.1205 11.0286 19.6605 14.7732 18.1826C10.9122 19.6937 6.56479 25.3922 4.43066 33.7476Z" fill="url(#paint8_linear_605_595)"/>
<path d="M19.0636 19.0508C18.9765 19.14 18.8934 19.2332 18.8098 19.3347C18.9507 19.5701 19.0815 19.8265 19.2093 20.1047C19.3746 19.9778 19.54 19.8584 19.7032 19.7407C19.5064 19.4961 19.2926 19.2655 19.0636 19.0508Z" fill="#127BCA"/>
<path d="M6.46324 38.6378L6.38187 38.6474H6.36655L6.29743 38.6544H6.28605L6.12155 38.6654H6.10449C10.6352 38.5385 12.7068 36.2701 13.7345 32.9792C14.5154 30.485 15.1572 28.3832 15.7194 26.6201C13.8216 29.2915 11.9149 32.4756 9.99824 36.0434C9.07424 37.7628 7.66855 38.4812 6.46324 38.6343" fill="url(#paint9_linear_605_595)"/>
<path d="M6.46308 38.6365C7.6684 38.4829 9.07408 37.7654 9.99808 36.0451C11.9148 32.4791 13.8223 29.2941 15.7184 26.6223C16.4083 24.4571 16.9775 22.7998 17.5358 21.5381C13.7562 25.1356 9.96221 31.1176 6.46265 38.6343" fill="url(#paint10_linear_605_595)"/>
<path d="M4.43064 33.748C3.5736 35.4055 2.68929 37.0487 1.77808 38.6769H3.48608C3.70178 37.0168 4.01705 35.3712 4.4302 33.7489" fill="#05A1E6"/>
<path d="M16.2193 17.8098L16.183 17.8168L16.1192 17.826L16.0815 17.8326L16.0142 17.8444L15.9853 17.8514L15.8396 17.8768H15.823L15.7521 17.8908L15.7167 17.9004L15.648 17.914L15.6156 17.9218L15.3754 17.984L15.3478 17.9918L15.2752 18.0133L15.2424 18.0225L15.1711 18.0439L15.1448 18.0509L14.9782 18.1095L14.9025 18.1358L14.871 18.1489L14.8005 18.1751L14.7769 18.1865C11.0328 19.664 8.91179 25.124 4.43485 33.751C4.02082 35.3731 3.70553 37.0188 3.49072 38.679H3.73004L5.37285 38.672H6.12666L6.29072 38.6611H6.30122L6.37035 38.6541H6.38653L6.46791 38.6445C9.96791 31.1273 13.7619 25.1458 17.541 21.5483C17.9567 20.6068 18.3666 19.8875 18.8146 19.3433C18.5521 18.9001 18.2651 18.5291 17.9448 18.26L17.9357 18.253L17.8823 18.2272L17.8293 18.2005L17.7782 18.1756L17.7173 18.1502L17.6701 18.1296L17.5708 18.0881L17.5283 18.0723L17.4544 18.0426L17.4146 18.0295L17.3118 17.994H17.3035L17.1845 17.9603L17.1578 17.952L17.0576 17.924L17.0344 17.9175C16.9521 17.8962 16.8691 17.8779 16.7855 17.8628L16.7597 17.8558L16.6516 17.8383L16.6302 17.8317L16.5024 17.8146H16.4801L16.3812 17.8037L16.2246 17.8181" fill="url(#paint11_linear_605_595)"/>
<path d="M41.6985 22.9278C40.8366 25.6871 40.1397 27.9634 39.532 29.8363C41.8958 26.5835 44.2242 22.492 46.441 17.7705C43.854 18.5829 42.475 20.4423 41.6985 22.9278Z" fill="url(#paint12_linear_605_595)"/>
<path d="M39.6069 37.4591C39.4866 37.5203 39.3654 37.5785 39.2468 37.6315C43.8441 35.5809 49.3286 27.4478 51.9536 17.3223H51.4216C45.3893 28.0983 43.4495 35.3123 39.6069 37.4591Z" fill="url(#paint13_linear_605_595)"/>
<path d="M36.6047 36.5543C37.6053 35.3332 38.4195 33.2577 39.532 29.8369C38.2488 31.5996 36.9573 33.1147 35.6645 34.3502L35.658 34.3611C35.9401 35.2059 36.2495 35.9519 36.6021 36.5539" fill="#079AE1"/>
<path d="M36.6048 36.5537C36.2644 36.9693 35.9035 37.2856 35.5027 37.5201C35.4152 37.5713 35.326 37.6195 35.2358 37.6632C35.6708 37.899 36.1469 38.0492 36.6385 38.1055L36.8677 38.1256H36.8813L36.9915 38.1326H37.3656L37.408 38.1256L37.4907 38.1186H37.531L37.6207 38.109H37.6281L37.6557 38.1025L37.7515 38.0876H37.7795L37.8871 38.0696H37.9046L38.1194 38.0241C37.5257 37.8071 37.0292 37.2948 36.6017 36.5655" fill="#1969BC"/>
<path d="M28.1292 38.1325C28.5588 38.1325 28.9937 38.0905 29.4298 38.0065C29.8422 37.9295 30.2478 37.8202 30.643 37.6797C30.9803 37.8442 31.3338 37.9667 31.7083 38.0433C31.9988 38.1023 32.3007 38.133 32.617 38.133L28.1292 38.1325ZM32.617 38.133C33.6797 38.133 34.5215 38.0065 35.2359 37.6631C35.6708 37.899 36.147 38.0493 36.6385 38.1058L36.8678 38.1255H36.8813L36.9916 38.1325H37.1237L32.617 38.133Z" fill="#1E5CB3"/>
<path d="M37.1235 38.1332H37.369L37.4114 38.1262L37.495 38.1192H37.5352L37.6245 38.1096H37.6319L37.659 38.1026L37.7548 38.0881L37.7842 38.0816L37.8922 38.0641H37.9093L38.1241 38.0186C38.3319 38.0951 38.5485 38.1341 38.7817 38.1341L37.1244 38.1411L37.1235 38.1332Z" fill="#1D60B5"/>
<path d="M35.6611 34.3615V34.3545C35.2078 34.79 34.7348 35.2046 34.2436 35.597C34.0021 35.7894 33.7551 35.9748 33.5029 36.1531C33.7112 36.4016 33.9225 36.6343 34.1452 36.8465C34.4829 37.1742 34.8439 37.4502 35.2381 37.6633C35.3277 37.6191 35.4174 37.571 35.5045 37.5202C35.9061 37.2857 36.2662 36.969 36.607 36.5538C36.2544 35.9518 35.9451 35.2054 35.6633 34.3611" fill="#175FAB"/>
<path d="M49.7371 17.3223H47.0592L46.6348 17.3428L46.4375 17.7655C44.2202 22.4874 41.8927 26.5789 39.5289 29.8317C38.4177 33.2521 37.6022 35.328 36.6021 36.5486C37.0295 37.2784 37.5269 37.7911 38.1184 38.0086L38.1648 37.9985H38.1744L38.2072 37.9915L38.2816 37.9731L38.3258 37.9605L38.3919 37.9434L38.433 37.9316L38.5319 37.9018L38.5809 37.8852L38.636 37.8651L38.6929 37.8471L38.7392 37.8296L38.8547 37.789L38.8867 37.7771L38.9575 37.7496L38.9873 37.7386L39.2358 37.6323H39.2446C39.3631 37.5803 39.4839 37.5212 39.6037 37.46C43.4472 35.3127 45.3875 28.0992 51.4197 17.3236H49.7349L49.7371 17.3223Z" fill="url(#paint14_linear_605_595)"/>
<path d="M16.377 17.7957L16.4045 17.8027L16.4745 17.8102H16.4981L16.6259 17.8268L16.6473 17.8338L16.755 17.8517L16.7821 17.8583L17.0301 17.9134L17.0529 17.9204L17.1526 17.9484L17.1802 17.9567L17.2988 17.9904L17.308 17.9974L17.4116 18.0329L17.451 18.0455L17.5254 18.0757L17.5674 18.0906L17.6663 18.1317L17.7144 18.1523L17.7739 18.1781L17.8264 18.203L17.8785 18.2302C18.3068 18.4402 18.7005 18.7206 19.0654 19.0605C19.2001 18.9192 19.3401 18.7924 19.4863 18.6782C18.6887 18.1125 17.7844 17.79 16.7427 17.79C16.622 17.79 16.5012 17.797 16.3787 17.8062" fill="#7DCBEC"/>
<path d="M19.0637 19.0503C19.2873 19.2582 19.5012 19.49 19.7033 19.7403C19.8993 19.6042 20.0936 19.473 20.2883 19.3505C20.04 19.1005 19.7709 18.8721 19.4837 18.668C19.338 18.7817 19.1985 18.9095 19.0637 19.0503Z" fill="#5EC5ED"/>
<path d="M16.2608 17.8249L16.6251 17.8095C17.6675 17.8095 18.5709 18.1319 19.3682 18.6973C20.2096 18.0325 21.2276 17.8007 22.641 17.8007H15.7969L16.2608 17.8249Z" fill="url(#paint15_linear_605_595)"/>
<path d="M22.6413 17.7998C21.2278 17.7998 20.2121 18.0317 19.3684 18.6964C19.6467 18.893 19.9161 19.1227 20.1723 19.3789C21.345 18.6346 22.5045 18.1399 23.6485 17.9257C24.0857 17.844 24.5208 17.802 24.9492 17.802L22.6413 17.7998Z" fill="url(#paint16_linear_605_595)"/>
<path d="M39.532 29.8384C40.1405 27.9641 40.8357 25.6887 41.6993 22.9285C42.4768 20.4418 43.854 18.5824 46.4396 17.7713L46.6391 17.3486C42.4234 17.6011 40.4529 19.7457 39.462 22.9215C37.7277 28.4659 36.6773 32.06 35.6658 34.3503C36.9573 33.1153 38.2488 31.5993 39.532 29.8384Z" fill="url(#paint17_linear_605_595)"/>
</g>
<defs>
<linearGradient id="paint0_linear_605_595" x1="24.7174" y1="17.6329" x2="24.7174" y2="43.247" gradientUnits="userSpaceOnUse">
<stop stop-color="#0994DC"/>
<stop offset="0.35" stop-color="#66CEF5"/>
<stop offset="0.846" stop-color="#127BCA"/>
<stop offset="1" stop-color="#127BCA"/>
</linearGradient>
<linearGradient id="paint1_linear_605_595" x1="25.6818" y1="17.017" x2="25.6818" y2="43.2167" gradientUnits="userSpaceOnUse">
<stop stop-color="#0E76BC"/>
<stop offset="0.36" stop-color="#36AEE8"/>
<stop offset="0.846" stop-color="#00ADEF"/>
<stop offset="1" stop-color="#00ADEF"/>
</linearGradient>
<linearGradient id="paint2_linear_605_595" x1="30.8665" y1="37.5105" x2="30.8665" y2="16.6639" gradientUnits="userSpaceOnUse">
<stop stop-color="#1C63B7"/>
<stop offset="0.5" stop-color="#33BDF2"/>
<stop offset="1" stop-color="#33BDF2" stop-opacity="0.42"/>
</linearGradient>
<linearGradient id="paint3_linear_605_595" x1="29.4575" y1="14.2801" x2="29.4575" y2="41.5517" gradientUnits="userSpaceOnUse">
<stop stop-color="#166AB8"/>
<stop offset="0.4" stop-color="#36AEE8"/>
<stop offset="0.846" stop-color="#0798DD"/>
<stop offset="1" stop-color="#0798DD"/>
</linearGradient>
<linearGradient id="paint4_linear_605_595" x1="27.4483" y1="14.4924" x2="27.4483" y2="43.4923" gradientUnits="userSpaceOnUse">
<stop stop-color="#124379"/>
<stop offset="0.39" stop-color="#1487CB"/>
<stop offset="0.78" stop-color="#165197"/>
<stop offset="1" stop-color="#165197"/>
</linearGradient>
<linearGradient id="paint5_linear_605_595" x1="15.4998" y1="23.0541" x2="19.593" y2="23.0541" gradientUnits="userSpaceOnUse">
<stop stop-color="#33BDF2" stop-opacity="0.698"/>
<stop offset="1" stop-color="#1DACD8"/>
</linearGradient>
<linearGradient id="paint6_linear_605_595" x1="46.4973" y1="36.9688" x2="46.4973" y2="16.6614" gradientUnits="userSpaceOnUse">
<stop stop-color="#136AB4"/>
<stop offset="0.6" stop-color="#59CAF5" stop-opacity="0.549"/>
<stop offset="1" stop-color="#59CAF5" stop-opacity="0.235"/>
</linearGradient>
<linearGradient id="paint7_linear_605_595" x1="0.972895" y1="27.9114" x2="16.157" y2="27.9114" gradientUnits="userSpaceOnUse">
<stop stop-color="#05A1E6" stop-opacity="0.247"/>
<stop offset="1" stop-color="#05A1E6"/>
</linearGradient>
<linearGradient id="paint8_linear_605_595" x1="9.68306" y1="37.4922" x2="9.68306" y2="16.699" gradientUnits="userSpaceOnUse">
<stop stop-color="#318ED5"/>
<stop offset="1" stop-color="#38A7E4"/>
</linearGradient>
<linearGradient id="paint9_linear_605_595" x1="10.8039" y1="37.6032" x2="10.8039" y2="17.3392" gradientUnits="userSpaceOnUse">
<stop stop-color="#05A1E6"/>
<stop offset="1" stop-color="#05A1E6" stop-opacity="0.549"/>
</linearGradient>
<linearGradient id="paint10_linear_605_595" x1="12.0742" y1="38.6631" x2="12.0742" y2="21.5397" gradientUnits="userSpaceOnUse">
<stop stop-color="#1959A6"/>
<stop offset="0.5" stop-color="#05A1E6"/>
<stop offset="0.918" stop-color="#7EC5EA"/>
<stop offset="1" stop-color="#7EC5EA"/>
</linearGradient>
<linearGradient id="paint11_linear_605_595" x1="12.588" y1="37.5288" x2="9.32263" y2="19.0097" gradientUnits="userSpaceOnUse">
<stop stop-color="#165096"/>
<stop offset="1" stop-color="#0D82CA"/>
</linearGradient>
<linearGradient id="paint12_linear_605_595" x1="42.8806" y1="27.0238" x2="42.8806" y2="17.3457" gradientUnits="userSpaceOnUse">
<stop stop-color="#05A1E6"/>
<stop offset="0.874" stop-color="#0495D6"/>
<stop offset="1" stop-color="#0495D6"/>
</linearGradient>
<linearGradient id="paint13_linear_605_595" x1="47.5981" y1="16.4893" x2="43.663" y2="38.8062" gradientUnits="userSpaceOnUse">
<stop stop-color="#38A7E4" stop-opacity="0.329"/>
<stop offset="0.962" stop-color="#0E88D3"/>
<stop offset="1" stop-color="#0E88D3"/>
</linearGradient>
<linearGradient id="paint14_linear_605_595" x1="43.8839" y1="17.2858" x2="43.8839" y2="38.3992" gradientUnits="userSpaceOnUse">
<stop stop-color="#168CD4"/>
<stop offset="0.5" stop-color="#1C87CC"/>
<stop offset="1" stop-color="#154B8D"/>
</linearGradient>
<linearGradient id="paint15_linear_605_595" x1="15.3286" y1="15.2261" x2="39.8779" y2="25.4089" gradientUnits="userSpaceOnUse">
<stop stop-color="#97D6EE"/>
<stop offset="0.703" stop-color="#55C1EA"/>
<stop offset="1" stop-color="#55C1EA"/>
</linearGradient>
<linearGradient id="paint16_linear_605_595" x1="22.003" y1="20.9882" x2="41.3928" y2="12.1988" gradientUnits="userSpaceOnUse">
<stop stop-color="#7ACCEC"/>
<stop offset="1" stop-color="#3FB7ED"/>
</linearGradient>
<linearGradient id="paint17_linear_605_595" x1="41.0031" y1="18.4339" x2="41.0031" y2="39.085" gradientUnits="userSpaceOnUse">
<stop stop-color="#1DA7E7"/>
<stop offset="1" stop-color="#37ABE7" stop-opacity="0"/>
</linearGradient>
<clipPath id="clip0_605_595">
<rect width="56" height="56" fill="white"/>
</clipPath>
</defs>
</svg>
