<svg width="56" height="56" viewBox="0 0 56 56" fill="none" xmlns="http://www.w3.org/2000/svg">
<g clip-path="url(#clip0_614_645)">
<path d="M42.875 0H13.125C5.87626 0 0 5.87626 0 13.125V42.875C0 50.1237 5.87626 56 13.125 56H42.875C50.1237 56 56 50.1237 56 42.875V13.125C56 5.87626 50.1237 0 42.875 0Z" fill="white"/>
<path d="M5.45645 27.9957C5.32589 27.8606 5.16677 27.7533 4.99133 27.6778C4.8159 27.6023 4.62822 27.5665 4.43646 27.5665C4.2447 27.5625 4.05702 27.6023 3.88158 27.6738C3.70614 27.7493 3.54702 27.8566 3.41646 27.9917C3.28182 28.1229 3.17575 28.2779 3.10639 28.4488C3.03703 28.6236 3.00031 28.8064 3.00031 28.9892C2.99623 29.176 3.03295 29.3588 3.10639 29.5297C3.17983 29.7006 3.2859 29.8556 3.42054 29.9867C3.55114 30.1219 3.7094 30.2289 3.8851 30.3008C4.06079 30.3726 4.25001 30.4078 4.44054 30.404C4.63065 30.405 4.81902 30.3686 4.9943 30.2969C5.16959 30.2252 5.32818 30.1197 5.46053 29.9867C5.59925 29.8596 5.70533 29.7046 5.77877 29.5337C5.85221 29.3628 5.88893 29.18 5.88893 28.9932C5.88893 28.8064 5.85221 28.6236 5.77877 28.4527C5.70125 28.2779 5.59517 28.1229 5.45645 27.9957ZM22.5311 24.7688C22.5107 25.659 22.5556 26.5531 22.6617 27.4393H22.6127C22.4985 27.2208 22.2456 26.8154 21.858 26.2233L12.5556 12H9.73227V30.1576H11.9028V17.0312C11.9273 16.2006 11.8906 15.37 11.8008 14.5394H11.8824C12.0375 14.9369 12.2374 15.3184 12.474 15.676L22.0293 30.1576H24.7017V12H22.5311V24.7688ZM39.4182 28.1626H31.7478V21.8716H38.4594V19.9561H31.7478V13.9235H38.949V12H29.5242V30.1576H39.4059L39.4182 28.1626ZM41.0787 12V13.9235H46.4235V30.1576H48.594V13.9235H54V12H41.0787ZM19.8057 34.6722C19.2636 34.8829 18.7739 35.204 18.3696 35.6141C17.9534 36.0472 17.627 36.5559 17.4149 37.1163C17.2027 37.6766 17.1089 38.2687 17.1333 38.8609C17.0925 39.9577 17.4842 41.0307 18.2349 41.8494C18.6103 42.2349 19.0672 42.5329 19.5732 42.7317C20.0791 42.9304 20.6217 43.0178 21.1644 42.9939C21.9804 43.0218 22.7923 42.8549 23.5307 42.5051L23.5389 41.5792C22.8616 41.9647 22.0905 42.1554 21.3072 42.1355C20.8869 42.1514 20.4667 42.0799 20.0791 41.9249C19.6915 41.7699 19.3406 41.5315 19.055 41.2294C18.4578 40.5537 18.1509 39.6798 18.1982 38.7894C18.1493 37.8475 18.4797 36.9255 19.1162 36.2181C19.4181 35.8922 19.7894 35.6379 20.2015 35.463C20.6151 35.2917 21.0618 35.209 21.5112 35.2206C22.2252 35.2087 22.9269 35.3796 23.5511 35.7174V34.7199C22.9037 34.4656 22.2088 34.3465 21.5112 34.3702C20.9277 34.3622 20.3443 34.4616 19.8057 34.6722ZM29.9771 37.5176C29.7044 37.2383 29.3728 37.0198 29.0052 36.8771C28.6376 36.7344 28.2426 36.6709 27.8474 36.691C27.4271 36.6712 27.011 36.7387 26.6193 36.8858C26.2276 37.0328 25.8726 37.2554 25.5707 37.5375C25.277 37.8554 25.0526 38.225 24.9057 38.6304C24.7588 39.0357 24.6976 39.461 24.7262 39.8902C24.6854 40.7049 24.9751 41.5037 25.5299 42.1117C25.8074 42.4018 26.1419 42.6323 26.5173 42.7873C26.8926 42.9383 27.2966 43.0138 27.7005 42.9979C28.1126 43.0098 28.5246 42.9343 28.9082 42.7793C29.2917 42.6244 29.6344 42.3899 29.9159 42.0918C30.4881 41.4635 30.7841 40.6415 30.7401 39.8027C30.789 38.9682 30.5157 38.1535 29.9771 37.5176ZM29.2305 41.599C29.051 41.8009 28.8263 41.9599 28.5738 42.064C28.3213 42.168 28.0476 42.2142 27.7739 42.1991C27.4924 42.211 27.215 42.1594 26.9579 42.0561C26.7009 41.9488 26.4724 41.7898 26.2847 41.5831C25.8937 41.1117 25.6973 40.5151 25.7339 39.91C25.6972 39.2861 25.893 38.6701 26.2847 38.1773C26.4683 37.9707 26.6968 37.8078 26.9538 37.6965C27.2109 37.5892 27.4924 37.5375 27.7698 37.5494C28.0473 37.5335 28.3206 37.5852 28.5736 37.6925C28.8266 37.7998 29.0509 37.9627 29.2305 38.1694C29.6013 38.669 29.7816 39.279 29.7405 39.8942C29.7813 40.4982 29.6017 41.1063 29.2305 41.599ZM33.9592 37.1282C33.6532 37.3944 33.4288 37.7402 33.3186 38.1257V36.8778H32.2986V42.8549H33.3186V39.8067C33.286 39.2543 33.4328 38.7019 33.7348 38.233C33.8449 38.0621 33.9918 37.919 34.1713 37.8197C34.3508 37.7203 34.5508 37.6607 34.7548 37.6567C35.0159 37.6369 35.277 37.7044 35.4973 37.8475V36.8619C35.3096 36.8023 35.1138 36.7745 34.918 36.7824C34.5671 36.7785 34.2284 36.9017 33.9592 37.1282ZM41.4663 39.5961C41.5153 38.837 41.2827 38.0899 40.8135 37.4859C40.581 37.2315 40.2954 37.0288 39.973 36.8977C39.6507 36.7665 39.3039 36.7069 38.9571 36.7268C38.5736 36.7149 38.1901 36.7904 37.8351 36.9414C37.4843 37.0924 37.1701 37.3189 36.9171 37.6051C36.3632 38.2346 36.0758 39.0459 36.1134 39.8743C36.0603 40.7009 36.3255 41.5196 36.8559 42.1634C37.113 42.4376 37.4312 42.6522 37.7821 42.7952C38.133 42.9383 38.5165 42.9979 38.8959 42.982C39.6507 43.0178 40.3974 42.8191 41.0257 42.4137V41.5156C40.4888 41.9404 39.8201 42.1758 39.1285 42.1832C38.8633 42.1991 38.594 42.1594 38.3451 42.064C38.0963 41.9686 37.8678 41.8295 37.6801 41.6428C37.3156 41.213 37.1306 40.6653 37.1619 40.1088H41.4745L41.4663 39.5961ZM37.1538 39.3179C37.2068 38.845 37.419 38.3999 37.7535 38.0541C37.9035 37.8972 38.0855 37.7726 38.2879 37.6885C38.4903 37.6043 38.7085 37.5623 38.9286 37.5653C39.1407 37.5534 39.3488 37.5892 39.5446 37.6687C39.7405 37.7481 39.9118 37.8674 40.0506 38.0224C40.3362 38.3919 40.479 38.845 40.4586 39.306L37.1538 39.3179Z" fill="#621EE5"/>
</g>
<defs>
<clipPath id="clip0_614_645">
<rect width="56" height="56" fill="white"/>
</clipPath>
</defs>
</svg>
