<svg width="80" height="80" viewBox="0 0 80 80" fill="none" xmlns="http://www.w3.org/2000/svg">
<path d="M75.7953 58.7512H72.3851V30.6642C73.9991 29.9834 75.367 28.8264 76.3003 27.3498C77.5116 25.3395 77.7992 22.9073 77.0865 20.6732L72.0527 3.71772C71.8386 2.99541 71.1738 2.5 70.4195 2.5H9.57931C8.82504 2.5 8.16023 2.99539 7.94611 3.71772L2.91232 20.6732C2.1996 22.9073 2.48724 25.3395 3.69856 27.3498C4.63179 28.8264 5.99974 29.9802 7.61379 30.6578V58.7514H4.20355C3.7529 58.7514 3.31826 58.9304 2.99859 59.25C2.67892 59.5696 2.5 60.0043 2.5 60.4549V70.2896C2.5032 74.272 5.72803 77.4968 9.71035 77.5H70.2888C74.2711 77.4968 77.4959 74.272 77.4991 70.2896V60.4549C77.4991 60.0043 77.3201 59.5696 77.0005 59.25C76.6809 58.9303 76.246 58.7512 75.7953 58.7512ZM73.8169 21.6419C74.2516 22.9331 74.1077 24.3458 73.4206 25.5252C72.4746 27.0273 70.819 27.9382 69.0419 27.935H68.978C66.1527 27.9318 63.8675 25.6434 63.8643 22.8213V5.90754H69.1474L73.8169 21.6419ZM60.4541 22.8245V22.9555C60.4541 25.7776 58.1657 28.0692 55.3404 28.0692C52.5151 28.0692 50.2267 25.7776 50.2267 22.9555V5.90759H60.4541V22.8245ZM46.8164 22.9555C46.8132 25.7776 44.528 28.0661 41.7027 28.0692H38.2957C35.4704 28.0661 33.1851 25.7776 33.1819 22.9555V5.90759H46.8196L46.8164 22.9555ZM29.7718 22.9555C29.7718 25.7776 27.4834 28.0692 24.6581 28.0692C21.8327 28.0692 19.5443 25.7776 19.5443 22.9555V5.90759H29.7718V22.9555ZM6.57756 25.5251C5.89041 24.349 5.7466 22.9331 6.18124 21.6419L10.8507 5.908H16.1338V22.825C16.105 25.1166 14.5709 27.1174 12.3656 27.7406C10.1571 28.367 7.80166 27.4619 6.57756 25.5251ZM11.0201 31.3452C13.6824 31.3388 16.1882 30.0796 17.7862 27.9478C19.3651 30.1531 21.9027 31.4635 24.6131 31.4763C27.3234 31.4891 29.877 30.2042 31.475 28.0149C33.0698 30.185 35.6012 31.4699 38.2954 31.4763H41.7057H41.7025C44.3968 31.4699 46.928 30.1851 48.5229 28.0149C50.1209 30.2042 52.6746 31.4891 55.3848 31.4763C58.0951 31.4635 60.6328 30.1531 62.2117 27.951C63.8097 30.0796 66.3154 31.3388 68.9778 31.3452V58.7515H51.6746C51.0353 58.7707 50.4505 59.1287 50.1436 59.6911L47.2065 65.5687H32.7923L29.8551 59.6911C29.5483 59.1286 28.9635 58.7707 28.3242 58.7515H11.021L11.0201 31.3452ZM74.0916 70.2897C74.0884 72.3895 72.3881 74.0898 70.2883 74.093H9.70986C7.61004 74.0898 5.90975 72.3895 5.90656 70.2897V62.1589H27.2754L30.2158 68.0365C30.5035 68.615 31.0947 68.9793 31.7404 68.9793H48.2606H48.2574C48.903 68.9793 49.4942 68.6149 49.7819 68.0365L52.7223 62.1589H74.0912L74.0916 70.2897Z" fill="black"/>
</svg>
