<svg width="80" height="80" viewBox="0 0 80 80" fill="none" xmlns="http://www.w3.org/2000/svg">
<mask id="mask0_3001_657" style="mask-type:alpha" maskUnits="userSpaceOnUse" x="0" y="0" width="80" height="80">
<rect width="80" height="80" fill="#D9D9D9"/>
</mask>
<g mask="url(#mask0_3001_657)">
<path d="M3.5 70V60.6667C3.5 58.8333 3.97222 57.1111 4.91667 55.5C5.86111 53.8889 7.16667 52.6667 8.83333 51.8333C11.6667 50.3889 14.8611 49.1667 18.4167 48.1667C21.9722 47.1667 25.8889 46.6667 30.1667 46.6667C34.4444 46.6667 38.3611 47.1667 41.9167 48.1667C45.4722 49.1667 48.6667 50.3889 51.5 51.8333C53.1667 52.6667 54.4722 53.8889 55.4167 55.5C56.3611 57.1111 56.8333 58.8333 56.8333 60.6667V70H3.5ZM10.1667 63.3333H50.1667V60.6667C50.1667 60.0556 50.0139 59.5 49.7083 59C49.4028 58.5 49 58.1111 48.5 57.8333C46.5 56.8333 43.9306 55.8333 40.7917 54.8333C37.6528 53.8333 34.1111 53.3333 30.1667 53.3333C26.2222 53.3333 22.6806 53.8333 19.5417 54.8333C16.4028 55.8333 13.8333 56.8333 11.8333 57.8333C11.3333 58.1111 10.9306 58.5 10.625 59C10.3194 59.5 10.1667 60.0556 10.1667 60.6667V63.3333ZM30.1667 43.3333C26.5 43.3333 23.3611 42.0278 20.75 39.4167C18.1389 36.8056 16.8333 33.6667 16.8333 30H16C15.5 30 15.0972 29.8472 14.7917 29.5417C14.4861 29.2361 14.3333 28.8333 14.3333 28.3333C14.3333 27.8333 14.4861 27.4306 14.7917 27.125C15.0972 26.8194 15.5 26.6667 16 26.6667H16.8333C16.8333 24.1667 17.4444 21.9167 18.6667 19.9167C19.8889 17.9167 21.5 16.3333 23.5 15.1667V18.3333C23.5 18.8333 23.6528 19.2361 23.9583 19.5417C24.2639 19.8472 24.6667 20 25.1667 20C25.6667 20 26.0694 19.8472 26.375 19.5417C26.6806 19.2361 26.8333 18.8333 26.8333 18.3333V13.8333C27.3333 13.6667 27.8611 13.5417 28.4167 13.4583C28.9722 13.375 29.5556 13.3333 30.1667 13.3333C30.7778 13.3333 31.3611 13.375 31.9167 13.4583C32.4722 13.5417 33 13.6667 33.5 13.8333V18.3333C33.5 18.8333 33.6528 19.2361 33.9583 19.5417C34.2639 19.8472 34.6667 20 35.1667 20C35.6667 20 36.0694 19.8472 36.375 19.5417C36.6806 19.2361 36.8333 18.8333 36.8333 18.3333V15.1667C38.8333 16.3333 40.4444 17.9167 41.6667 19.9167C42.8889 21.9167 43.5 24.1667 43.5 26.6667H44.3333C44.8333 26.6667 45.2361 26.8194 45.5417 27.125C45.8472 27.4306 46 27.8333 46 28.3333C46 28.8333 45.8472 29.2361 45.5417 29.5417C45.2361 29.8472 44.8333 30 44.3333 30H43.5C43.5 33.6667 42.1944 36.8056 39.5833 39.4167C36.9722 42.0278 33.8333 43.3333 30.1667 43.3333ZM30.1667 36.6667C32 36.6667 33.5694 36.0139 34.875 34.7083C36.1806 33.4028 36.8333 31.8333 36.8333 30H23.5C23.5 31.8333 24.1528 33.4028 25.4583 34.7083C26.7639 36.0139 28.3333 36.6667 30.1667 36.6667ZM55.1667 50L54.6667 47.5C54.3333 47.3889 54.0139 47.2639 53.7083 47.125C53.4028 46.9861 53.1111 46.7778 52.8333 46.5L50.5 47.3333L48.8333 44.3333L50.6667 42.6667V40.6667L48.8333 39L50.5 36L52.8333 36.8333C53.0556 36.6111 53.3333 36.4167 53.6667 36.25C54 36.0833 54.3333 35.9444 54.6667 35.8333L55.1667 33.3333H58.5L59 35.8333C59.3333 35.9444 59.6667 36.0833 60 36.25C60.3333 36.4167 60.6111 36.6111 60.8333 36.8333L63.1667 36L64.8333 39L63 40.6667V42.6667L64.8333 44.3333L63.1667 47.3333L60.8333 46.5C60.5556 46.7778 60.2639 46.9861 59.9583 47.125C59.6528 47.2639 59.3333 47.3889 59 47.5L58.5 50H55.1667ZM56.8333 44.1667C57.5 44.1667 58.0833 43.9167 58.5833 43.4167C59.0833 42.9167 59.3333 42.3333 59.3333 41.6667C59.3333 41 59.0833 40.4167 58.5833 39.9167C58.0833 39.4167 57.5 39.1667 56.8333 39.1667C56.1667 39.1667 55.5833 39.4167 55.0833 39.9167C54.5833 40.4167 54.3333 41 54.3333 41.6667C54.3333 42.3333 54.5833 42.9167 55.0833 43.4167C55.5833 43.9167 56.1667 44.1667 56.8333 44.1667ZM62.8333 33.3333L62.1667 29.8333C61.6667 29.6667 61.2083 29.4583 60.7917 29.2083C60.375 28.9583 60 28.6667 59.6667 28.3333L56.1667 29.5L53.8333 25.5L56.6667 23C56.5556 22.7222 56.5 22.5 56.5 22.3333V21C56.5 20.8333 56.5556 20.6111 56.6667 20.3333L53.8333 17.8333L56.1667 13.8333L59.6667 15C60 14.6667 60.375 14.375 60.7917 14.125C61.2083 13.875 61.6667 13.6667 62.1667 13.5L62.8333 10H67.5L68.1667 13.5C68.6667 13.6667 69.125 13.875 69.5417 14.125C69.9583 14.375 70.3333 14.6667 70.6667 15L74.1667 13.8333L76.5 17.8333L73.6667 20.3333C73.7778 20.6111 73.8333 20.8333 73.8333 21V22.3333C73.8333 22.5 73.7778 22.7222 73.6667 23L76.5 25.5L74.1667 29.5L70.6667 28.3333C70.3333 28.6667 69.9583 28.9583 69.5417 29.2083C69.125 29.4583 68.6667 29.6667 68.1667 29.8333L67.5 33.3333H62.8333ZM65.1667 25.8333C66.3333 25.8333 67.3195 25.4306 68.125 24.625C68.9306 23.8194 69.3333 22.8333 69.3333 21.6667C69.3333 20.5 68.9306 19.5139 68.125 18.7083C67.3195 17.9028 66.3333 17.5 65.1667 17.5C64 17.5 63.0139 17.9028 62.2083 18.7083C61.4028 19.5139 61 20.5 61 21.6667C61 22.8333 61.4028 23.8194 62.2083 24.625C63.0139 25.4306 64 25.8333 65.1667 25.8333Z" fill="#1C1B1F"/>
</g>
</svg>
