<svg width="26" height="26" viewBox="0 0 26 26" fill="none" xmlns="http://www.w3.org/2000/svg">
<g id="Error">
<mask id="mask0_2809_35" style="mask-type:alpha" maskUnits="userSpaceOnUse" x="0" y="0" width="26" height="26">
<rect id="Bounding box" width="26" height="26" fill="#D9D9D9"/>
</mask>
<g mask="url(#mask0_2809_35)">
<path id="error" d="M13.0001 18.4166C13.307 18.4166 13.5643 18.3128 13.772 18.1052C13.9796 17.8975 14.0834 17.6402 14.0834 17.3333C14.0834 17.0263 13.9796 16.7691 13.772 16.5614C13.5643 16.3538 13.307 16.25 13.0001 16.25C12.6931 16.25 12.4358 16.3538 12.2282 16.5614C12.0206 16.7691 11.9167 17.0263 11.9167 17.3333C11.9167 17.6402 12.0206 17.8975 12.2282 18.1052C12.4358 18.3128 12.6931 18.4166 13.0001 18.4166ZM11.9167 14.0833H14.0834V7.58329H11.9167V14.0833ZM13.0001 23.8333C11.5015 23.8333 10.0931 23.5489 8.77508 22.9802C7.45703 22.4114 6.3105 21.6395 5.3355 20.6645C4.3605 19.6895 3.58862 18.543 3.01987 17.225C2.45112 15.9069 2.16675 14.4986 2.16675 13C2.16675 11.5013 2.45112 10.093 3.01987 8.77496C3.58862 7.4569 4.3605 6.31038 5.3355 5.33538C6.3105 4.36038 7.45703 3.5885 8.77508 3.01975C10.0931 2.451 11.5015 2.16663 13.0001 2.16663C14.4987 2.16663 15.907 2.451 17.2251 3.01975C18.5431 3.5885 19.6897 4.36038 20.6647 5.33538C21.6397 6.31038 22.4115 7.4569 22.9803 8.77496C23.549 10.093 23.8334 11.5013 23.8334 13C23.8334 14.4986 23.549 15.9069 22.9803 17.225C22.4115 18.543 21.6397 19.6895 20.6647 20.6645C19.6897 21.6395 18.5431 22.4114 17.2251 22.9802C15.907 23.5489 14.4987 23.8333 13.0001 23.8333ZM13.0001 21.6666C15.4195 21.6666 17.4688 20.827 19.148 19.1479C20.8272 17.4687 21.6667 15.4194 21.6667 13C21.6667 10.5805 20.8272 8.53121 19.148 6.85204C17.4688 5.17288 15.4195 4.33329 13.0001 4.33329C10.5806 4.33329 8.53133 5.17288 6.85216 6.85204C5.173 8.53121 4.33341 10.5805 4.33341 13C4.33341 15.4194 5.173 17.4687 6.85216 19.1479C8.53133 20.827 10.5806 21.6666 13.0001 21.6666Z" fill="#142149"/>
</g>
</g>
</svg>
