<svg width="26" height="26" viewBox="0 0 26 26" fill="none" xmlns="http://www.w3.org/2000/svg">
<g id="Error">
<mask id="mask0_2809_1426" style="mask-type:alpha" maskUnits="userSpaceOnUse" x="0" y="0" width="26" height="26">
<rect id="Bounding box" width="26" height="26" fill="#D9D9D9"/>
</mask>
<g mask="url(#mask0_2809_1426)">
<path id="error" d="M13 18.4166C13.3069 18.4166 13.5642 18.3128 13.7718 18.1052C13.9795 17.8975 14.0833 17.6402 14.0833 17.3333C14.0833 17.0263 13.9795 16.7691 13.7718 16.5614C13.5642 16.3538 13.3069 16.25 13 16.25C12.693 16.25 12.4357 16.3538 12.2281 16.5614C12.0204 16.7691 11.9166 17.0263 11.9166 17.3333C11.9166 17.6402 12.0204 17.8975 12.2281 18.1052C12.4357 18.3128 12.693 18.4166 13 18.4166ZM11.9166 14.0833H14.0833V7.58329H11.9166V14.0833ZM13 23.8333C11.5013 23.8333 10.093 23.5489 8.77496 22.9802C7.4569 22.4114 6.31038 21.6395 5.33538 20.6645C4.36038 19.6895 3.5885 18.543 3.01975 17.225C2.451 15.9069 2.16663 14.4986 2.16663 13C2.16663 11.5013 2.451 10.093 3.01975 8.77496C3.5885 7.4569 4.36038 6.31038 5.33538 5.33538C6.31038 4.36038 7.4569 3.5885 8.77496 3.01975C10.093 2.451 11.5013 2.16663 13 2.16663C14.4986 2.16663 15.9069 2.451 17.225 3.01975C18.543 3.5885 19.6895 4.36038 20.6645 5.33538C21.6395 6.31038 22.4114 7.4569 22.9802 8.77496C23.5489 10.093 23.8333 11.5013 23.8333 13C23.8333 14.4986 23.5489 15.9069 22.9802 17.225C22.4114 18.543 21.6395 19.6895 20.6645 20.6645C19.6895 21.6395 18.543 22.4114 17.225 22.9802C15.9069 23.5489 14.4986 23.8333 13 23.8333ZM13 21.6666C15.4194 21.6666 17.4687 20.827 19.1479 19.1479C20.827 17.4687 21.6666 15.4194 21.6666 13C21.6666 10.5805 20.827 8.53121 19.1479 6.85204C17.4687 5.17288 15.4194 4.33329 13 4.33329C10.5805 4.33329 8.53121 5.17288 6.85204 6.85204C5.17288 8.53121 4.33329 10.5805 4.33329 13C4.33329 15.4194 5.17288 17.4687 6.85204 19.1479C8.53121 20.827 10.5805 21.6666 13 21.6666Z" fill="white"/>
</g>
</g>
</svg>
