<svg width="80" height="80" viewBox="0 0 80 80" fill="none" xmlns="http://www.w3.org/2000/svg">
<path d="M62.0988 26.0251C63.4349 26.0251 64.5748 25.1637 64.9352 23.8861C65.3014 22.6027 64.7857 21.2753 63.6518 20.5692L35.335 2.95051C34.374 2.34983 33.1814 2.34983 32.2144 2.95051L3.89761 20.5632C2.76367 21.2693 2.25381 22.6026 2.61424 23.8801C2.98051 25.1635 4.12325 26.0191 5.45057 26.0191L62.0991 26.0162L62.0988 26.0251ZM4.46012 23.3616C4.40738 23.1829 4.29603 22.5734 4.91136 22.1925L33.2251 4.57083C33.398 4.46535 33.5855 4.4126 33.7731 4.4126C33.9606 4.4126 34.1569 4.46534 34.321 4.57083L62.6468 22.1835C63.2621 22.5673 63.1508 23.1739 63.098 23.3526C63.0453 23.5313 62.8284 24.1115 62.1018 24.1115H5.45624C4.72957 24.1115 4.50408 23.5345 4.46012 23.3616Z" fill="black"/>
<path d="M31.0892 14.9902H37.0667C37.5912 14.9902 38.019 14.5624 38.019 14.038C38.019 13.5135 37.5912 13.0857 37.0667 13.0857H31.0892C30.5647 13.0857 30.137 13.5135 30.137 14.038C30.137 14.5624 30.5648 14.9902 31.0892 14.9902Z" fill="black"/>
<path d="M28.1038 19.4092H40.0614C40.5859 19.4092 41.0136 18.9814 41.0136 18.4569C41.0136 17.9295 40.5858 17.4958 40.0585 17.4958H28.1031C27.5787 17.4958 27.1509 17.9236 27.1509 18.4481C27.1509 18.9726 27.5706 19.4092 28.1038 19.4092Z" fill="black"/>
<path d="M74.2732 67.1463C75.6532 66.7273 76.4268 65.2417 75.9903 63.8294L75.75 63.0353C76.0342 62.8713 76.2686 62.631 76.4239 62.3292C76.6495 61.9014 76.7023 61.4149 76.5587 60.9579L76.0928 59.4283C75.1698 56.4133 71.9672 54.702 68.9521 55.625L67.9031 55.9474C65.811 54.1629 64.6243 51.6635 64.6185 51.643C64.6038 51.6137 64.5892 51.5844 64.5745 51.5522C63.2091 49.2725 63.5548 47.1482 63.8332 45.4399C63.968 44.6136 64.0881 43.9016 64.0119 43.2717C63.8156 41.2674 62.6407 39.7995 60.7654 39.2281C60.2409 39.0699 59.6695 38.9878 59.0922 38.982L59.0893 35.4219H59.4058C60.0797 35.4219 60.7038 35.0849 61.0701 34.5135L62.8341 31.7915C63.2326 31.1849 63.2619 30.4025 62.9103 29.7668C62.5645 29.128 61.8964 28.7324 61.1698 28.7324H46.5628C45.842 28.7324 45.1974 29.1075 44.837 29.7286C44.4765 30.3498 44.4854 31.0999 44.8516 31.7152L46.4573 34.4373C46.8089 35.038 47.4712 35.4131 48.1685 35.4131H49.0153V56.627L39.173 56.63V35.422H39.4895C40.1634 35.422 40.7876 35.085 41.1538 34.5137L42.9178 31.7916C43.3163 31.1851 43.3456 30.4027 42.994 29.7669C42.6482 29.1281 41.9801 28.7326 41.2535 28.7326H26.6555C25.9347 28.7326 25.2901 29.1076 24.9297 29.7288C24.5693 30.35 24.5781 31.1001 24.9443 31.7154L26.55 34.4375C26.9016 35.0382 27.5639 35.4132 28.2612 35.4132H29.108V56.6272L18.7707 56.6301V35.4222H19.0871C19.7611 35.4222 20.3852 35.0852 20.7515 34.5139L22.5155 31.7918C22.914 31.1852 22.9433 30.4029 22.5916 29.7671C22.2459 29.1283 21.5778 28.7327 20.8511 28.7327H6.25319C5.53238 28.7327 4.88776 29.1078 4.52733 29.729C4.16693 30.3501 4.17572 31.1002 4.54198 31.7156L6.14768 34.4376C6.49929 35.0383 7.16153 35.4134 7.85883 35.4134H8.70564V56.6273L6.31173 56.6303C5.20996 56.6303 4.3075 57.5298 4.3075 58.6345V63.5015C4.3075 64.6032 5.20703 65.5057 6.31173 65.5057H51.0785C51.0931 65.9921 51.1752 66.4814 51.3246 66.962L51.7905 68.5032C51.9341 68.9603 52.2417 69.3442 52.6696 69.5698C52.9333 69.7134 53.2234 69.7808 53.5164 69.7808C53.6218 69.7808 53.7273 69.7661 53.8328 69.7515L54.0643 70.5162C54.2753 71.1989 54.791 71.7703 55.4825 72.0926C55.8722 72.2714 56.3088 72.371 56.7278 72.371C57.0062 72.371 57.2757 72.3329 57.5306 72.2509L74.2732 67.1463ZM60.1935 41.0567C61.3333 41.4024 61.9721 42.2112 62.0922 43.4711C62.1362 43.855 62.0395 44.4469 61.9281 45.1208C61.6117 47.0195 61.1927 49.6214 62.8892 52.4783C63.0533 52.8241 64.0437 54.796 65.7783 56.5746L58.5702 58.7722C59.0126 56.3344 58.7343 54.1661 58.6815 53.791C58.494 50.4682 56.6099 48.4494 55.3646 47.1221C54.8928 46.6181 54.4797 46.1757 54.298 45.8181C53.7061 44.7223 53.7882 43.6968 54.5383 42.7737C55.7426 41.3116 58.3856 40.5088 60.1935 41.0567ZM48.101 33.479L46.4953 30.7569C46.4865 30.7423 46.4718 30.7188 46.4953 30.6807C46.5187 30.6427 46.5392 30.6427 46.5539 30.6427H61.1518C61.1665 30.6427 61.1958 30.6427 61.2192 30.6807C61.2427 30.7188 61.228 30.7393 61.2192 30.7569L59.4553 33.479C59.4406 33.5025 59.4172 33.5083 59.3966 33.5083L48.16 33.5112C48.1394 33.5171 48.1156 33.5025 48.101 33.479ZM50.9197 35.4217H57.1668V38.9993C57.1668 39.0579 57.1755 39.1195 57.1814 39.1722C55.5699 39.5385 54.0315 40.3882 53.0646 41.5661C51.8281 43.081 51.6698 44.965 52.6133 46.7114C52.9122 47.2975 53.4015 47.822 53.9788 48.4285C55.1625 49.6973 56.6481 51.2796 56.7829 53.9431C56.7829 53.9724 56.7917 54.0104 56.7917 54.0397C56.7917 54.0544 56.9558 55.1561 56.8884 56.6358H50.9168L50.9197 35.4217ZM28.1936 33.479L26.5879 30.7569C26.5791 30.7423 26.5644 30.7188 26.5879 30.6807C26.6113 30.6427 26.6318 30.6427 26.6465 30.6427H41.2444C41.2591 30.6427 41.2884 30.6427 41.3118 30.6807C41.3353 30.7188 41.3206 30.7393 41.3118 30.7569L39.5478 33.479C39.5332 33.5025 39.5098 33.5083 39.4892 33.5083L28.2608 33.5112C28.2286 33.5171 28.2082 33.5025 28.1936 33.479ZM31.0211 35.4217H37.2681V56.6356H31.0211V35.4217ZM7.78785 33.479L6.18215 30.7569C6.17336 30.7423 6.15871 30.7188 6.18215 30.6807C6.2056 30.6427 6.22611 30.6427 6.24076 30.6427H20.8387C20.8534 30.6427 20.8827 30.6427 20.9061 30.6807C20.9295 30.7188 20.9149 30.7393 20.9061 30.7569L19.1421 33.479C19.1275 33.5025 19.104 33.5083 19.0835 33.5083L7.85509 33.5112C7.82579 33.5171 7.8025 33.5025 7.78785 33.479ZM10.6154 35.4217H16.8624V56.6356H10.6154V35.4217ZM6.22019 63.5066V58.6397C6.22019 58.5869 6.25828 58.543 6.31688 58.543H56.6802C56.6275 58.836 56.5601 59.129 56.4781 59.422L55.142 59.8264C53.6798 60.2688 52.4785 61.2593 51.7577 62.61C51.5848 62.9323 51.45 63.2634 51.3445 63.6004L6.31147 63.5974C6.25873 63.6033 6.22019 63.5682 6.22019 63.5066ZM53.1548 66.4163C52.8559 65.4405 52.9585 64.412 53.439 63.5125C53.9195 62.613 54.7136 61.9537 55.6893 61.6606L69.4989 57.4529C69.8652 57.3416 70.2402 57.2888 70.6095 57.2888C72.2445 57.2888 73.7593 58.3467 74.2546 59.9905L74.6882 61.4145L53.5793 67.8432L53.1548 66.4163ZM56.2842 70.3544C56.082 70.2635 55.9384 70.1141 55.8857 69.9559L55.6601 69.2057L73.9321 63.6385L74.1577 64.3886C74.2866 64.7929 74.0815 65.2061 73.7064 65.3175L56.9722 70.4188C56.7641 70.4833 56.5098 70.4598 56.2842 70.3544Z" fill="black"/>
<path d="M54.8295 66.7922C54.9203 66.7922 55.017 66.7775 55.1078 66.7482L58.7617 65.6318C59.2657 65.4824 59.5499 64.9403 59.4005 64.4393C59.2422 63.9353 58.7089 63.6511 58.2079 63.8005L54.554 64.9169C54.0501 65.0664 53.7658 65.6084 53.9153 66.1095C54.0413 66.5314 54.4163 66.7922 54.8295 66.7922Z" fill="black"/>
<path d="M62.0314 64.5419C62.1222 64.5419 62.2189 64.5273 62.3097 64.498L65.9636 63.3816C66.4676 63.2322 66.7518 62.6901 66.6024 62.1891C66.4441 61.6851 65.9108 61.4008 65.4098 61.5503L61.753 62.6755C61.249 62.8249 60.9648 63.367 61.1143 63.868C61.2432 64.2811 61.6182 64.5419 62.0314 64.5419Z" fill="black"/>
<path d="M77.4378 70.0801C77.0188 68.6385 74.8652 68.618 73.2829 68.7147C71.3314 68.8436 68.8495 69.3212 66.2857 70.0713C63.7189 70.8215 61.3719 71.7591 59.6637 72.7055C58.2747 73.4703 56.4845 74.6629 56.9035 76.0957C57.2111 77.1388 58.5473 77.4904 60.1969 77.4904C63.0919 77.4904 66.9626 76.418 68.0499 76.1015C70.6167 75.3514 72.9637 74.4137 74.6719 73.4673C76.0638 72.7055 77.8568 71.5188 77.4378 70.0801ZM67.5138 74.2731C63.0131 75.5946 59.9894 75.7294 58.946 75.5037C59.6961 74.7536 62.3128 73.23 66.8132 71.9114C71.3139 70.5899 74.3376 70.4551 75.381 70.6807C74.6338 71.4279 72.0143 72.9516 67.5138 74.2731Z" fill="black"/>
</svg>
