<svg width="50" height="39" viewBox="0 0 50 39" fill="none" xmlns="http://www.w3.org/2000/svg">
<g id="Group">
<path id="Vector" d="M23.145 36.442L34.863 34.37L34.9715 34.3455L28.9445 27.174C26.9233 24.7823 24.9131 22.3812 22.914 19.971C22.914 19.936 29.1405 2.7895 29.1755 2.73C32.6204 8.62761 36.0435 14.538 39.4445 20.461L49.7695 38.3635L49.85 38.5L11.532 38.4965L23.145 36.442ZM0.150024 34.258C0.150024 34.2475 2.98852 29.316 6.46052 23.2995L12.7745 12.355L20.1315 6.181C24.1775 2.7895 27.499 0 27.5095 0C27.4834 0.103549 27.4446 0.203475 27.394 0.2975L19.4 17.4335L11.56 34.2615L5.85502 34.2685C2.71552 34.272 0.150024 34.2685 0.150024 34.258Z" fill="white"/>
</g>
</svg>
