<svg width="80" height="80" viewBox="0 0 80 80" fill="none" xmlns="http://www.w3.org/2000/svg">
<path d="M38.9521 49.9315C39.5265 50.5134 40.4682 50.5153 41.0447 49.9315L53.8956 36.9174C54.4663 36.3395 54.4604 35.4083 53.8825 34.8378C53.3046 34.267 52.3736 34.2729 51.8029 34.8508L39.9984 46.8056L18.5502 25.0864C14.0703 20.5506 14.1147 13.254 18.6535 8.77273C23.1792 4.30204 30.4743 4.32763 34.9672 8.87449L38.9523 12.9096C39.5283 13.4928 40.4696 13.4921 41.0448 12.9096L45.03 8.87449C49.5174 4.33042 56.8168 4.2994 61.345 8.77273C65.8808 13.2537 65.928 20.5503 61.4453 25.0866L55.9352 30.6674C55.3646 31.2453 55.3705 32.1763 55.9486 32.747C56.5264 33.3174 57.4575 33.3114 58.0282 32.7337L63.5378 27.1535C69.1618 21.462 69.1052 12.3046 63.4121 6.68032C57.7317 1.06969 48.5726 1.10145 42.9371 6.80796L39.9984 9.78371L37.0594 6.80781C31.4148 1.09498 22.2595 1.07645 16.5869 6.68003C10.8941 12.3007 10.8331 21.4585 16.4575 27.1531L38.9521 49.9315Z" fill="black"/>
<path d="M48.8732 24.5613L46.3688 20.8045C46.0695 20.3554 45.5487 20.1066 45.0109 20.1559C44.4736 20.2051 44.0062 20.545 43.7937 21.041L41.1796 27.1409L39.2282 18.3602C39.1036 17.7995 38.6641 17.3628 38.1028 17.2417C37.5418 17.121 36.9608 17.3373 36.6164 17.7969L32.646 23.0907H26.0286C25.2166 23.0907 24.5581 23.7492 24.5581 24.5613C24.5581 25.3733 25.2166 26.0318 26.0286 26.0318H33.3812C33.844 26.0318 34.2799 25.8139 34.5577 25.4436L37.0509 22.1193L39.2983 32.2328C39.4367 32.856 39.9615 33.3187 40.5971 33.3781C41.2265 33.4371 41.8318 33.085 42.0854 32.4931L45.4278 24.6946L46.863 26.8475C47.1356 27.2566 47.5949 27.5023 48.0865 27.5023H53.9686C54.7806 27.5023 55.4391 26.8438 55.4391 26.0318C55.4391 25.2198 54.7806 24.5613 53.9686 24.5613H48.8732Z" fill="black"/>
<path d="M76.0262 51.0305H68.6736V48.0894C68.6736 47.2774 68.0151 46.6189 67.203 46.6189H56.9094C56.0974 46.6189 55.4389 47.2774 55.4389 48.0894V56.1773H36.9632C36.1512 56.1773 35.4927 56.8358 35.4927 57.6478C35.4927 58.4598 36.1512 59.1183 36.9632 59.1183H55.4389V65.0004H24.5579V59.1183H31.0811C31.8931 59.1183 32.5516 58.4598 32.5516 57.6478C32.5516 56.8358 31.8931 56.1773 31.0811 56.1773H24.5579V48.0894C24.5579 47.2774 23.8994 46.6189 23.0873 46.6189H12.7937C11.9816 46.6189 11.3231 47.2774 11.3231 48.0894V51.0305H3.97052C3.1585 51.0305 2.5 51.689 2.5 52.501V71.6178C2.5 72.4298 3.1585 73.0883 3.97052 73.0883H11.3231V76.0294C11.3231 76.8414 11.9816 77.4999 12.7937 77.4999H23.0873C23.8994 77.4999 24.5579 76.8414 24.5579 76.0294V67.9415H55.4389V76.0294C55.4389 76.8414 56.0974 77.4999 56.9094 77.4999H67.203C68.0151 77.4999 68.6736 76.8414 68.6736 76.0294V73.0883H76.0262C76.8382 73.0883 77.4967 72.4298 77.4967 71.6178V52.501C77.4967 51.689 76.8382 51.0305 76.0262 51.0305ZM11.3231 70.1473H5.44105V53.9715H11.3231V70.1473ZM21.6168 74.5588H14.2642C14.2642 69.7188 14.2642 55.5472 14.2642 49.5599H21.6168C21.6168 52.4181 21.6168 71.5106 21.6168 74.5588ZM65.7325 74.5588H58.3799C58.3799 71.5219 58.3799 52.4132 58.3799 49.5599H65.7325C65.7325 55.4309 65.7325 69.6913 65.7325 74.5588ZM74.5557 70.1473H68.6736V53.9715H74.5557V70.1473Z" fill="black"/>
</svg>
