<svg width="80" height="80" viewBox="0 0 80 80" fill="none" xmlns="http://www.w3.org/2000/svg">
<path d="M59.1989 32.0181H47.9785V20.8002C47.9785 19.6437 47.0418 18.707 45.887 18.707H34.112C32.9555 18.707 32.0188 19.6437 32.0188 20.8002V32.0181H20.7976C19.6428 32.0181 18.7061 32.9548 18.7061 34.1097V45.8879C18.7061 47.0445 19.6428 47.9812 20.7976 47.9812H32.0188V59.2007C32.0188 60.3556 32.9555 61.2923 34.112 61.2923H45.887C47.0418 61.2923 47.9785 60.3556 47.9785 59.2007V47.9812H59.1997C60.3546 47.9812 61.2913 47.0445 61.2913 45.8879V34.1089C61.2905 32.9548 60.3538 32.0181 59.1989 32.0181ZM57.1065 43.7972H45.887C44.7305 43.7972 43.7938 44.7339 43.7938 45.8888V57.1083H36.2028V45.8879C36.2028 44.7331 35.2661 43.7964 34.1112 43.7964H22.8908V36.2012H34.112C35.2669 36.2012 36.2036 35.2645 36.2036 34.108V22.8918H43.7946V34.1097C43.7946 35.2662 44.7313 36.2029 45.8878 36.2029H57.1074L57.1065 43.7972Z" fill="black"/>
<path d="M39.9988 2.5C19.3214 2.5 2.5 19.3214 2.5 39.9996C2.5 60.6769 19.3214 77.5 39.9988 77.5C60.6744 77.5 77.4975 60.6769 77.4975 39.9996C77.4975 19.3214 60.6744 2.5 39.9988 2.5ZM39.9988 73.3161C21.6286 73.3161 6.68392 58.3697 6.68392 39.9996C6.68392 21.6295 21.6286 6.68475 39.9988 6.68475C58.3689 6.68475 73.3136 21.6295 73.3136 39.9996C73.3136 58.3689 58.368 73.3161 39.9988 73.3161Z" fill="black"/>
</svg>
