<svg width="53" height="48" viewBox="0 0 53 48" fill="none" xmlns="http://www.w3.org/2000/svg">
<g id="Icons1">
<g id="react">
<path id="Vector" d="M26.571 28.7949C29.2745 28.7949 31.4662 26.6032 31.4662 23.8996C31.4662 21.1961 29.2745 19.0044 26.571 19.0044C23.8674 19.0044 21.6757 21.1961 21.6757 23.8996C21.6757 26.6032 23.8674 28.7949 26.571 28.7949Z" fill="white"/>
<path id="Vector_2" fill-rule="evenodd" clip-rule="evenodd" d="M26.9307 13.5811C35.2771 13.6379 44.3832 14.2468 50.634 19.8209C50.8177 19.9849 50.9947 20.1554 51.1675 20.3314C52.6422 21.8345 53.4129 24.2614 52.2224 26.2586C49.7802 30.3591 44.3187 32.1476 39.031 33.2484C31.123 34.8947 22.8542 34.9078 14.9494 33.4583C10.4007 32.6231 5.74927 31.1593 2.51675 28.0974C1.25851 26.9058 0.182821 25.3382 0.351171 23.5935C0.624465 20.7709 3.33226 18.9595 5.61153 17.7329C11.9421 14.3266 19.6556 13.5647 26.9307 13.5811ZM26.325 14.8634C18.4279 14.9169 9.88039 15.4209 3.78265 20.4703C3.56948 20.6463 3.36396 20.831 3.1661 21.0245C3.0382 21.1491 2.91467 21.2792 2.79551 21.4126C1.72529 22.6151 1.35689 24.5467 2.36699 25.9908C3.38364 27.4436 4.92721 28.492 6.51668 29.3469C12.4614 32.5433 19.4861 33.1107 26.3349 33.1347C33.2689 33.1599 40.4194 32.528 46.5444 29.3611C48.9844 28.0984 51.7305 26.2444 51.6332 23.8569C51.5435 21.6662 49.4075 20.3128 47.8081 19.3465C47.3752 19.0852 46.9303 18.8436 46.4788 18.6162C40.3986 15.5696 33.2733 14.8481 26.325 14.8634Z" fill="white"/>
<path id="Vector_3" fill-rule="evenodd" clip-rule="evenodd" d="M37.6277 0.667408C40.681 0.745024 42.2628 4.41591 42.4716 7.12699C42.5131 7.66592 42.5284 8.20704 42.5219 8.74817C42.5153 9.33411 42.4836 9.92005 42.4322 10.5038C41.7884 17.7319 38.4881 24.6156 34.6018 30.9724C30.8008 37.1904 26.1658 43.3909 19.8603 46.2725C17.7757 47.2258 15.2963 47.8139 13.451 46.7502C10.9214 45.293 10.6449 41.8845 10.6919 39.2992C10.7039 38.664 10.7454 38.0289 10.811 37.3959C11.7829 28.0383 16.5262 19.1738 22.4621 11.5369C25.9253 7.08107 30.0455 2.66136 35.1779 1.06095C35.9858 0.808428 36.6275 0.655383 37.6277 0.667408ZM37.4812 1.94861C33.8967 2.00546 30.6784 4.66187 27.8285 7.42214C20.3359 14.6776 14.8142 24.327 12.5929 34.4466C12.4213 35.2304 12.277 36.0196 12.1709 36.8144C12.0889 37.4298 12.0288 38.0486 11.9971 38.6695C11.972 39.1636 11.9632 39.6588 11.9785 40.154C11.9895 40.541 12.0146 40.928 12.0572 41.3128C12.0889 41.6069 12.1316 41.8998 12.1851 42.1906C12.2256 42.406 12.2726 42.6202 12.3273 42.8334C12.3721 43.0061 12.4224 43.1777 12.4792 43.3483C12.9263 44.6962 14.0785 45.9839 15.6254 46.0266C19.2339 46.125 22.6315 43.4937 25.5689 40.6339C30.7254 35.6152 34.5679 29.3086 37.5698 22.6796C39.9923 17.3274 42.2081 11.5095 40.9707 5.6184C40.9237 5.3954 40.869 5.17457 40.8067 4.95594C40.7553 4.77775 40.6974 4.60175 40.634 4.42793C40.153 3.11722 39.0215 1.94533 37.4812 1.94861Z" fill="white"/>
<path id="Vector_4" fill-rule="evenodd" clip-rule="evenodd" d="M15.7574 0.715429C19.6534 0.790858 23.1527 3.43525 26.2595 6.39667C31.9287 11.8002 36.1101 18.6741 39.2825 25.9088C41.74 31.5135 44.0007 37.8047 41.9914 43.7188C41.3585 45.5827 39.757 47.288 37.622 47.3317C33.7073 47.4105 30.0791 44.5638 26.9307 41.4996C19.0325 33.8102 13.1687 23.659 11.1595 12.8934C11.0152 12.1238 10.9004 11.3477 10.8217 10.5682C10.7572 9.932 10.7167 9.29249 10.7058 8.65298C10.6971 8.137 10.708 7.62102 10.7441 7.10723C10.7681 6.76397 10.8031 6.4229 10.8501 6.08292C10.8949 5.76372 10.9518 5.4456 11.0228 5.13077C11.0698 4.92197 11.1223 4.71536 11.1824 4.50984C11.7716 2.49512 13.3043 0.700125 15.7574 0.715429ZM15.6098 1.99773C13.3283 2.04801 12.2843 4.73832 12.0745 6.62623C12.0318 7.01322 12.0056 7.40348 11.9936 7.79375C11.9783 8.29223 11.9848 8.79181 12.01 9.2903C12.3685 16.5042 15.5934 23.4786 19.4851 29.865C23.1494 35.8774 27.5746 41.8659 33.6614 44.9442C35.4192 45.833 37.5553 46.5315 39.0737 45.692C40.978 44.6382 41.212 42.1271 41.3136 40.2556C41.341 39.7462 41.3442 39.2346 41.3279 38.7241C41.3082 38.0835 41.2579 37.444 41.1825 36.8077C40.4806 30.8641 37.8483 25.2397 34.8245 19.9247C31.0618 13.3132 26.4519 6.72353 19.9278 3.28111C18.5767 2.56836 17.114 1.9857 15.6098 1.99773Z" fill="white"/>
</g>
</g>
</svg>
