<svg width="116" height="115" viewBox="0 0 116 115" fill="none" xmlns="http://www.w3.org/2000/svg">
<rect width="116" height="115" fill="#E5E5E5"/>
<g id="Hire Developers" clip-path="url(#clip0_2244_1680)">
<rect width="1440" height="14222" transform="translate(-112 -8445)" fill="#FDFDFD"/>
<g id="Frame 483">
<g id="Pricing Plan">
<g id="Frame 473">
<g id="Frame 461">
<g id="Frame 455">
<g id="1">
<g id="Group 278">
<path id="Vector" d="M110.188 23.7849L106.34 21.8852C104.646 21.0491 102.733 20.9327 100.939 21.5519C99.1566 22.1763 97.7136 23.4622 96.8877 25.1819L94.3469 30.4576V26.764C94.3469 24.0441 93.3066 21.4936 91.4088 19.5727L76.2732 4.30575C74.3806 2.39013 71.8608 1.33716 69.1736 1.33716H26.319C20.7826 1.33716 16.2813 5.89327 16.2813 11.4971V15.0953L10.9854 15.4022C8.31385 15.6456 5.8985 16.9315 4.17856 19.0059C2.45327 21.0908 1.6378 23.726 1.87817 26.4248L8.70599 104.386C9.14514 109.662 13.5471 113.663 18.7333 113.663C19.0156 113.663 19.3032 113.652 19.5959 113.626L77.3438 108.435C82.0857 107.995 85.7452 104.281 86.3726 99.7035C90.9209 98.7404 94.3505 94.65 94.3505 89.7659V72.9804L113.444 33.3622C114.27 31.6477 114.39 29.7057 113.773 27.8959C113.161 26.0915 111.886 24.6309 110.192 23.7949L110.188 23.7849ZM101.901 27.6531C102.257 26.9069 103.156 26.5947 103.893 26.9599L107.736 28.8595C108.091 29.0341 108.363 29.341 108.494 29.7273C108.625 30.1083 108.598 30.5158 108.426 30.8809L106.831 34.1829L100.302 30.9603L101.896 27.653L101.901 27.6531ZM88.1991 72.8538L82.8144 75.6478L81.6747 69.6312L97.8716 36.029L104.401 39.2516L88.2098 72.8538H88.1991ZM84.8323 20.9001H77.0635C75.9395 20.9001 75.0194 19.9741 75.0194 18.8312V11.0049L84.8323 20.9001ZM76.8439 102.804L19.1107 107.995C16.6274 108.207 14.463 106.37 14.2539 103.899L7.42089 25.9172C7.3111 24.7213 7.67707 23.5571 8.44035 22.6311C9.20887 21.7051 10.2858 21.1335 11.3837 21.033L16.2718 20.7526V89.76C16.2718 95.3638 20.7731 99.9199 26.3096 99.9199H80.5924C80.0017 101.476 78.5901 102.65 76.8387 102.809L76.8439 102.804ZM84.3094 94.2685H26.3153C23.8582 94.2685 21.8559 92.2418 21.8559 89.7548V11.4923C21.8559 9.0053 23.8582 6.9786 26.3153 6.9786H69.1698C69.2639 6.9786 69.3476 6.99977 69.4417 7.00506V18.8319C69.4417 23.0863 72.8608 26.547 77.0641 26.547H88.7539C88.7592 26.6211 88.7748 26.6899 88.7748 26.764V42.0255L79.8193 60.5992H30.2207C28.6837 60.5992 27.4342 61.8639 27.4342 63.4196C27.4342 64.9753 28.6837 66.24 30.2207 66.24H77.0997L76.2528 67.9968C75.9862 68.5419 75.9077 69.1663 76.0228 69.7643L78.0407 80.4005C78.2028 81.2736 78.7674 82.0144 79.5568 82.406C79.9437 82.5965 80.3619 82.6918 80.7802 82.6918C81.2193 82.6918 81.6533 82.5859 82.0506 82.3796L88.7738 78.8924V89.7455C88.7738 92.2325 86.7714 94.2592 84.3143 94.2592L84.3094 94.2685Z" fill="#007BFC"/>
<path id="Vector_2" d="M30.2201 52.1322H80.4089C81.9458 52.1322 83.1953 50.8675 83.1953 49.3118C83.1953 47.7561 81.9459 46.4915 80.4089 46.4915H30.2201C28.6831 46.4915 27.4336 47.7561 27.4336 49.3118C27.4336 50.8675 28.6831 52.1322 30.2201 52.1322Z" fill="#007BFC"/>
<path id="Vector_3" d="M63.6793 74.7117H30.2201C28.6831 74.7117 27.4336 75.9764 27.4336 77.5321C27.4336 79.0877 28.6831 80.3525 30.2201 80.3525H63.6793C65.2162 80.3525 66.4657 79.0878 66.4657 77.5321C66.4657 75.9764 65.2163 74.7117 63.6793 74.7117Z" fill="#007BFC"/>
<path id="Vector_4" d="M30.2201 38.025H80.4089C81.9458 38.025 83.1953 36.7603 83.1953 35.2046C83.1953 33.6489 81.9459 32.3842 80.4089 32.3842L30.2201 32.3789C28.6831 32.3789 27.4336 33.6436 27.4336 35.1993C27.4336 36.755 28.6831 38.0197 30.2201 38.0197V38.025Z" fill="#007BFC"/>
<path id="Vector_5" d="M30.2201 23.9123H60.8928C62.4298 23.9123 63.6793 22.6476 63.6793 21.0919C63.6793 19.5362 62.4298 18.2715 60.8928 18.2715H30.2201C28.6831 18.2715 27.4336 19.5362 27.4336 21.0919C27.4336 22.6476 28.6831 23.9123 30.2201 23.9123Z" fill="#007BFC"/>
</g>
</g>
</g>
</g>
</g>
</g>
</g>
</g>
<defs>
<clipPath id="clip0_2244_1680">
<rect width="1440" height="14222" fill="white" transform="translate(-112 -8445)"/>
</clipPath>
</defs>
</svg>
