<svg width="40" height="40" viewBox="0 0 40 40" fill="none" xmlns="http://www.w3.org/2000/svg">
<g id="legacy">
<mask id="mask0_2540_1419" style="mask-type:alpha" maskUnits="userSpaceOnUse" x="0" y="0" width="40" height="40">
<rect id="Bounding box" width="40" height="40" fill="#D9D9D9"/>
</mask>
<g mask="url(#mask0_2540_1419)">
<path id="scale" d="M3.33337 36.6666C3.33337 33.5833 3.7431 30.9513 4.56254 28.7708C5.38199 26.5902 6.4306 24.7777 7.70837 23.3333C8.98615 21.8888 10.4167 20.7708 12 19.9791C13.5834 19.1874 15.1389 18.6388 16.6667 18.3333V13.3333C12.8612 12.861 9.68754 11.6874 7.14587 9.81242C4.60421 7.93742 3.33337 5.7777 3.33337 3.33325H36.6667C36.6667 5.7777 35.3959 7.93742 32.8542 9.81242C30.3125 11.6874 27.1389 12.861 23.3334 13.3333V18.3333C24.8612 18.6388 26.4167 19.1874 28 19.9791C29.5834 20.7708 31.0139 21.8888 32.2917 23.3333C33.5695 24.7777 34.6181 26.5902 35.4375 28.7708C36.257 30.9513 36.6667 33.5833 36.6667 36.6666H26.6667V33.3333H33.125C32.625 29.111 31.0487 26.0555 28.3959 24.1666C25.7431 22.2777 22.9445 21.3333 20 21.3333C17.0556 21.3333 14.257 22.2777 11.6042 24.1666C8.95143 26.0555 7.37504 29.111 6.87504 33.3333H13.3334V36.6666H3.33337ZM20 10.2083C22.5278 10.2083 24.7778 9.86797 26.75 9.18742C28.7223 8.50686 30.2917 7.66659 31.4584 6.66659H8.54171C9.70837 7.66659 11.2778 8.50686 13.25 9.18742C15.2223 9.86797 17.4723 10.2083 20 10.2083ZM20 36.6666C19.0834 36.6666 18.2987 36.3402 17.6459 35.6874C16.9931 35.0346 16.6667 34.2499 16.6667 33.3333C16.6667 32.861 16.757 32.4305 16.9375 32.0416C17.1181 31.6527 17.3612 31.3055 17.6667 30.9999C18.3334 30.3333 19.4584 29.6319 21.0417 28.8958C22.625 28.1596 24.5 27.4166 26.6667 26.6666C25.8889 28.8333 25.1389 30.7083 24.4167 32.2916C23.6945 33.8749 23 34.9999 22.3334 35.6666C22.0278 35.9721 21.6806 36.2152 21.2917 36.3958C20.9028 36.5763 20.4723 36.6666 20 36.6666Z" fill="#1C1B1F"/>
</g>
</g>
</svg>
