<svg width="80" height="80" viewBox="0 0 80 80" fill="none" xmlns="http://www.w3.org/2000/svg">
<path d="M11.0526 70.9215H4.47371C3.38488 70.9215 2.5 70.0366 2.5 68.9478V24.2113C2.5 23.1224 3.38488 22.2375 4.47371 22.2375H22.5132C23.602 22.2375 24.4869 23.1224 24.4869 24.2113C24.4869 25.3001 23.602 26.185 22.5132 26.185H6.44759V66.9746H11.0529C12.1417 66.9746 13.0266 67.8595 13.0266 68.9483C13.0266 70.0371 12.1415 70.9215 11.0526 70.9215Z" fill="black"/>
<path d="M55.7891 70.9214H24.2104C23.1216 70.9214 22.2367 70.0366 22.2367 68.9477C22.2367 67.8589 23.1216 66.974 24.2104 66.974H53.8153V28.1583C53.8153 27.0694 54.7001 26.1846 55.789 26.1846C56.8778 26.1846 57.7627 27.0694 57.7627 28.1583V68.9479C57.7627 70.0367 56.878 70.9214 55.7891 70.9214Z" fill="black"/>
<path d="M75.5266 70.9216H70.0431C68.9543 70.9216 68.0694 70.0367 68.0694 68.9479C68.0694 67.8591 68.9543 66.9742 70.0431 66.9742H73.553V53.4779L69.7175 41.9748H55.79C54.7012 41.9748 53.8163 41.0899 53.8163 40.0011C53.8163 38.9122 54.7012 38.0273 55.79 38.0273H71.1415C71.9901 38.0273 72.7434 38.5701 73.0132 39.3761L77.398 52.5339C77.4638 52.7345 77.5 52.9483 77.5 53.1589V68.9482C77.5 70.0371 76.6155 70.9216 75.5266 70.9216Z" fill="black"/>
<path d="M17.6321 77.5C12.915 77.5 9.07971 73.6645 9.07971 68.9476C9.07971 64.2308 12.9152 60.3953 17.6321 60.3953C22.3489 60.3953 26.1844 64.2308 26.1844 68.9476C26.1844 73.6645 22.3489 77.5 17.6321 77.5ZM17.6321 64.3422C15.0926 64.3422 13.0268 66.4079 13.0268 68.9475C13.0268 71.487 15.0926 73.5527 17.6321 73.5527C20.1716 73.5527 22.2374 71.487 22.2374 68.9475C22.2374 66.4079 20.1716 64.3422 17.6321 64.3422Z" fill="black"/>
<path d="M62.3678 77.5C57.6507 77.5 53.8154 73.6645 53.8154 68.9476C53.8154 64.2308 57.6509 60.3953 62.3678 60.3953C67.0846 60.3953 70.9202 64.2308 70.9202 68.9476C70.9202 73.6645 67.0846 77.5 62.3678 77.5ZM62.3678 64.3422C59.8284 64.3422 57.7625 66.4079 57.7625 68.9475C57.7625 71.487 59.8283 73.5527 62.3678 73.5527C64.9073 73.5527 66.9731 71.487 66.9731 68.9475C66.9731 66.4079 64.9073 64.3422 62.3678 64.3422Z" fill="black"/>
<path d="M75.5259 64.3422H4.47371C3.38488 64.3422 2.5 63.4573 2.5 62.3685C2.5 61.2797 3.38488 60.3948 4.47371 60.3948H75.5259C76.6147 60.3948 77.4996 61.2797 77.4996 62.3685C77.4996 63.4573 76.6147 64.3422 75.5259 64.3422Z" fill="black"/>
<path d="M17.6316 70.9215C18.7204 70.9215 19.6053 70.0367 19.6053 68.9478C19.6053 67.859 18.7204 66.9741 17.6316 66.9741C16.5427 66.9741 15.6578 67.859 15.6578 68.9478C15.6578 70.0367 16.5427 70.9215 17.6316 70.9215Z" fill="black"/>
<path d="M62.3673 70.9215C63.4561 70.9215 64.341 70.0367 64.341 68.9478C64.341 67.859 63.4561 66.9741 62.3673 66.9741C61.2784 66.9741 60.3936 67.859 60.3936 68.9478C60.3936 70.0367 61.2784 70.9215 62.3673 70.9215Z" fill="black"/>
<path d="M75.5261 55.1322H30.7895C30.2665 55.1322 29.7632 54.925 29.3948 54.5532L19.4479 44.6064H4.47457C3.38573 44.6064 2.50085 43.7215 2.50085 42.6327C2.50085 41.5438 3.38573 40.6589 4.47457 40.6589H20.2639C20.787 40.6589 21.2903 40.8662 21.6586 41.2379L31.6055 51.1848H75.5261C76.6149 51.1848 77.4998 52.0696 77.4998 53.1585C77.4998 54.2473 76.6149 55.1322 75.5261 55.1322Z" fill="black"/>
<path d="M36.0516 43.2897C35.749 43.2897 35.4464 43.2206 35.17 43.0825C34.545 42.77 19.907 35.2601 19.907 18.6447C19.907 9.74374 27.1504 2.5 36.0517 2.5C44.953 2.5 52.1965 9.7434 52.1965 18.6447C52.1965 35.2594 37.5582 42.7692 36.9334 43.0825C36.6571 43.2206 36.3543 43.2897 36.0516 43.2897ZM36.0516 6.44784C29.3247 6.44784 23.8547 11.9182 23.8547 18.6448C23.8547 30.7694 33.0883 37.2796 36.0516 39.0556C39.0121 37.2793 48.2486 30.7728 48.2486 18.6448C48.2486 11.9179 42.7782 6.44784 36.0516 6.44784Z" fill="black"/>
<path d="M36.0517 27.7043C31.4464 27.7043 27.703 23.9576 27.703 19.3523C27.703 14.747 31.4464 11.0037 36.0517 11.0037C40.6569 11.0037 44.4036 14.747 44.4036 19.3523C44.4036 23.9576 40.6569 27.7043 36.0517 27.7043ZM36.0517 14.9507C33.6241 14.9507 31.6503 16.9244 31.6503 19.352C31.6503 21.7796 33.6241 23.7566 36.0517 23.7566C38.4793 23.7566 40.4563 21.7796 40.4563 19.352C40.4563 16.9244 38.4793 14.9507 36.0517 14.9507Z" fill="black"/>
</svg>
