<svg width="45" height="45" viewBox="0 0 45 45" fill="none" xmlns="http://www.w3.org/2000/svg">
<path d="M33.839 30.1412C35.6173 28.6475 37.0379 26.7738 37.9961 24.6583C38.9544 22.5428 39.426 20.2393 39.3761 17.9174C39.2003 9.88243 32.7649 3.25724 24.744 2.83536C22.6745 2.72272 20.6035 3.02711 18.6539 3.73046C16.7043 4.43381 14.9159 5.52177 13.395 6.92974C11.874 8.3377 10.6516 10.037 9.80013 11.9266C8.9487 13.8162 8.48568 15.8576 8.43858 17.9297L4.49229 25.5199C4.47647 25.5516 4.46065 25.5832 4.44658 25.6149C4.16366 26.2743 4.1435 27.0169 4.39022 27.6908C4.63694 28.3646 5.13188 28.9186 5.77373 29.2395L5.81768 29.2588L9.84483 31.1027V36.5625C9.84483 37.3084 10.1411 38.0238 10.6686 38.5512C11.196 39.0787 11.9114 39.375 12.6573 39.375H21.0948C21.4678 39.375 21.8255 39.2269 22.0892 38.9631C22.3529 38.6994 22.5011 38.3417 22.5011 37.9688C22.5011 37.5958 22.3529 37.2381 22.0892 36.9744C21.8255 36.7107 21.4678 36.5625 21.0948 36.5625H12.6573V30.201C12.6575 29.9314 12.5803 29.6675 12.4347 29.4406C12.2892 29.2138 12.0815 29.0335 11.8364 28.9213L7.03233 26.7188L11.0876 18.9246C11.1933 18.7265 11.2494 18.5058 11.2511 18.2813C11.2507 15.4131 12.2245 12.6299 14.0129 10.3876C15.8014 8.14534 18.2984 6.57703 21.0948 5.93966V8.68009C20.1566 9.01182 19.3658 9.66456 18.8622 10.523C18.3587 11.3813 18.1748 12.3901 18.3431 13.371C18.5114 14.3518 19.021 15.2416 19.7819 15.883C20.5427 16.5245 21.5059 16.8763 22.5011 16.8763C23.4963 16.8763 24.4594 16.5245 25.2203 15.883C25.9812 15.2416 26.4908 14.3518 26.6591 13.371C26.8274 12.3901 26.6435 11.3813 26.1399 10.523C25.6364 9.66456 24.8456 9.01182 23.9073 8.68009V5.62501C24.1358 5.62501 24.3644 5.62501 24.5929 5.64259C27.0866 5.78544 29.4829 6.66038 31.4821 8.158C33.4812 9.65561 34.9943 11.7094 35.8323 14.0625H32.3448C32.1385 14.0624 31.9347 14.1077 31.7479 14.1952C31.5611 14.2827 31.3958 14.4102 31.2638 14.5688L26.7796 19.9512C25.8444 19.6027 24.8161 19.5962 23.8765 19.9328C22.9369 20.2694 22.1467 20.9274 21.6455 21.7905C21.1443 22.6535 20.9645 23.666 21.1379 24.6489C21.3112 25.6317 21.8265 26.5216 22.5927 27.1612C23.3589 27.8007 24.3266 28.1487 25.3246 28.1435C26.3226 28.1384 27.2867 27.7805 28.0463 27.1331C28.8058 26.4857 29.312 25.5906 29.4752 24.606C29.6385 23.6214 29.4482 22.6108 28.9382 21.7529L33.004 16.875H36.4827C36.5249 17.2406 36.5507 17.6098 36.5601 17.9824C36.6039 19.9966 36.168 21.9923 35.2884 23.8048C34.4087 25.6173 33.1106 27.1945 31.5011 28.4063C31.3028 28.5549 31.1473 28.7534 31.0503 28.9815C30.9534 29.2096 30.9185 29.4593 30.9491 29.7053L32.3554 40.9553C32.3982 41.2949 32.5634 41.6072 32.82 41.8338C33.0766 42.0603 33.407 42.1854 33.7493 42.1858C33.8081 42.1857 33.8668 42.1822 33.9251 42.1752C34.1084 42.1524 34.2854 42.0937 34.446 42.0024C34.6066 41.9112 34.7477 41.7892 34.8611 41.6434C34.9746 41.4977 35.0582 41.331 35.1072 41.1529C35.1562 40.9748 35.1697 40.7888 35.1468 40.6055L33.839 30.1412ZM22.5011 14.0625C22.2229 14.0625 21.9511 13.98 21.7198 13.8255C21.4886 13.671 21.3083 13.4514 21.2019 13.1944C21.0954 12.9375 21.0676 12.6547 21.1218 12.3819C21.1761 12.1091 21.31 11.8586 21.5067 11.6619C21.7034 11.4652 21.9539 11.3313 22.2267 11.277C22.4995 11.2228 22.7823 11.2506 23.0392 11.3571C23.2962 11.4635 23.5158 11.6437 23.6703 11.875C23.8249 12.1062 23.9073 12.3781 23.9073 12.6563C23.9073 13.0292 23.7592 13.3869 23.4954 13.6506C23.2317 13.9144 22.874 14.0625 22.5011 14.0625ZM25.3136 25.3125C25.0354 25.3125 24.7636 25.23 24.5323 25.0755C24.3011 24.921 24.1208 24.7014 24.0144 24.4444C23.9079 24.1874 23.8801 23.9047 23.9343 23.6319C23.9886 23.3591 24.1225 23.1086 24.3192 22.9119C24.5159 22.7152 24.7664 22.5813 25.0392 22.527C25.312 22.4728 25.5948 22.5006 25.8517 22.6071C26.1087 22.7135 26.3283 22.8937 26.4828 23.125C26.6374 23.3562 26.7198 23.6281 26.7198 23.9063C26.7198 24.2792 26.5717 24.6369 26.3079 24.9006C26.0442 25.1644 25.6865 25.3125 25.3136 25.3125Z" fill="black"/>
</svg>
