<svg width="80" height="80" viewBox="0 0 80 80" fill="none" xmlns="http://www.w3.org/2000/svg">
<g id="Office Team">
<path id="Vector" d="M7.44246 63.6426C7.77398 63.6426 8.09192 63.5109 8.32634 63.2765C8.56076 63.0421 8.69246 62.7241 8.69246 62.3926V59.5926C8.69246 58.1926 8.17246 56.8551 7.22996 55.8226L6.32496 54.8326C6.21606 54.7052 6.08264 54.601 5.93265 54.5262C5.78266 54.4514 5.61916 54.4075 5.45187 54.3972C5.28458 54.3868 5.11692 54.4102 4.95886 54.466C4.80079 54.5218 4.65556 54.6087 4.5318 54.7218C4.40804 54.8348 4.30827 54.9716 4.23843 55.1239C4.16859 55.2763 4.13011 55.4412 4.12528 55.6087C4.12044 55.7762 4.14935 55.943 4.21028 56.0992C4.27121 56.2553 4.36292 56.3976 4.47996 56.5176L5.38496 57.5076C5.90496 58.0801 6.19496 58.8201 6.19496 59.5926V62.3926C6.19246 63.0826 6.74996 63.6426 7.44246 63.6426Z" fill="white"/>
<path id="Vector_2" d="M1.25 63.6424C1.58152 63.6424 1.89946 63.5107 2.13388 63.2763C2.3683 63.0419 2.5 62.7239 2.5 62.3924V54.6074C2.5 53.0524 3.4775 51.6424 4.935 51.0974L7.43 50.1599C8.3671 51.2506 9.52848 52.1264 10.8349 52.7274C12.1413 53.3284 13.562 53.6405 15 53.6424C16.4376 53.6403 17.8579 53.3281 19.1639 52.7271C20.4698 52.1261 21.6308 51.2505 22.5675 50.1599L24.7075 50.9624C24.0116 51.6221 23.4571 52.4163 23.0776 53.2969C22.6981 54.1775 22.5016 55.126 22.5 56.0849V62.3899C22.5 62.7214 22.6317 63.0394 22.8661 63.2738C23.1005 63.5082 23.4185 63.6399 23.75 63.6399C24.0815 63.6399 24.3995 63.5082 24.6339 63.2738C24.8683 63.0394 25 62.7214 25 62.3899V56.0849C25 54.4699 25.8175 52.9974 27.1875 52.1424L32.745 48.6774C34.635 50.6499 37.2425 51.8499 39.9975 51.8499C42.7525 51.8499 45.3575 50.6499 47.2475 48.6774L52.8075 52.1399C54.18 52.9974 55 54.4724 55 56.0874V62.3924C55 62.7239 55.1317 63.0419 55.3661 63.2763C55.6005 63.5107 55.9185 63.6424 56.25 63.6424C56.5815 63.6424 56.8995 63.5107 57.1339 63.2763C57.3683 63.0419 57.5 62.7239 57.5 62.3924V56.0874C57.5 54.1099 56.6775 52.2949 55.29 50.9649L57.43 50.1624C58.3671 51.2531 59.5285 52.1289 60.8349 52.7299C62.1413 53.3309 63.562 53.643 65 53.6449C66.4376 53.6428 67.8579 53.3306 69.1638 52.7296C70.4698 52.1286 71.6308 51.253 72.5675 50.1624L75.065 51.0999C76.5225 51.6424 77.5 53.0524 77.5 54.6074V62.3924C77.5 62.7239 77.6317 63.0419 77.8661 63.2763C78.1005 63.5107 78.4185 63.6424 78.75 63.6424C79.0815 63.6424 79.3995 63.5107 79.6339 63.2763C79.8683 63.0419 80 62.7239 80 62.3924V54.6074C79.9963 53.336 79.6066 52.0957 78.8825 51.0506C78.1584 50.0056 77.1341 49.205 75.945 48.7549L70 46.5249V43.6449C70.7828 42.9477 71.4098 42.0933 71.8402 41.1374C72.2705 40.1815 72.4945 39.1457 72.4975 38.0974V35.7849C72.6359 35.6352 72.734 35.4529 72.7825 35.2549L73.9475 29.8499C74.155 28.7149 73.9025 27.5724 73.24 26.6274C72.5775 25.6824 71.585 25.0599 70.4475 24.8699L63.3225 23.6824C62.2748 23.5073 61.1997 23.7358 60.3137 24.3216C59.4277 24.9075 58.7966 25.8073 58.5475 26.8399C57.6635 27.1238 56.9185 27.7298 56.4605 28.5375C56.0025 29.3451 55.8649 30.2955 56.075 31.1999L57.2025 35.3174C57.2609 35.5009 57.362 35.668 57.4975 35.8049V38.0924C57.4975 40.3024 58.475 42.2699 60 43.6449V46.5199L54.06 48.7499C53.7063 48.8812 53.3657 49.0452 53.0425 49.2399C53.0175 49.2549 53.0025 49.2799 52.9775 49.2974L51.6875 48.4949C52.5099 48.1082 53.1843 47.4644 53.6087 46.6607C54.033 45.8571 54.1844 44.9372 54.04 44.0399C53.4356 40.2674 53.1313 36.453 53.13 32.6324V28.4924C53.126 25.0352 51.7509 21.7207 49.3063 19.2761C46.8617 16.8315 43.5472 15.4564 40.09 15.4524C36.6328 15.4564 33.3183 16.8315 30.8737 19.2761C28.4291 21.7207 27.054 25.0352 27.05 28.4924V32.6349C27.05 36.4399 26.7425 40.2774 26.14 44.0424C25.945 45.2574 26.29 46.4924 27.0875 47.4299C27.455 47.8599 27.905 48.1949 28.395 48.4424L27.015 49.3024C26.99 49.2849 26.975 49.2574 26.9475 49.2399C26.628 49.0479 26.2916 48.8855 25.9425 48.7549L20 46.5249V43.6449C20.7828 42.9477 21.4098 42.0933 21.8402 41.1374C22.2705 40.1815 22.4945 39.1457 22.4975 38.0974V35.7849C22.6359 35.6352 22.734 35.4529 22.7825 35.2549L23.9475 29.8499C24.155 28.7149 23.9025 27.5724 23.24 26.6274C22.5775 25.6824 21.585 25.0599 20.4475 24.8699L13.325 23.6849C12.7217 23.5844 12.1037 23.6164 11.514 23.7788C10.9243 23.9411 10.3769 24.2298 9.91 24.6249C9.23 25.1999 8.7575 25.9674 8.5475 26.8424C7.66348 27.1263 6.91854 27.7323 6.46052 28.54C6.0025 29.3476 5.86489 30.298 6.075 31.2024L7.2025 35.3199C7.26089 35.5034 7.36199 35.6705 7.4975 35.8074V38.0949C7.4975 40.3049 8.475 42.2724 10 43.6474V46.5224L4.0575 48.7524C2.86798 49.2029 1.84321 50.0038 1.11871 51.0492C0.394213 52.0947 0.00411301 53.3354 0 54.6074L0 62.3924C0 62.7239 0.131696 63.0419 0.366117 63.2763C0.600537 63.5107 0.918479 63.6424 1.25 63.6424ZM58.7425 29.6124C58.8542 29.4732 58.9958 29.361 59.1568 29.2839C59.3178 29.2069 59.494 29.1671 59.6725 29.1674C60.3625 29.1674 60.9225 28.5299 60.9225 27.8374C60.9211 27.5887 60.9742 27.3427 61.0781 27.1167C61.182 26.8908 61.3342 26.6903 61.5239 26.5294C61.7136 26.3686 61.9362 26.2513 62.1761 26.1857C62.416 26.1201 62.6674 26.1079 62.9125 26.1499L70.0375 27.3374C70.2696 27.3751 70.4917 27.4591 70.6906 27.5846C70.8894 27.71 71.061 27.8742 71.195 28.0674C71.47 28.4574 71.5725 28.9324 71.495 29.3624L70.89 32.1699L70.485 31.6674C70.3681 31.5218 70.2201 31.4042 70.0518 31.3233C69.8835 31.2424 69.6992 31.2002 69.5125 31.1999H60.4475C60.2604 31.1999 60.0756 31.2418 59.9068 31.3228C59.7381 31.4037 59.5897 31.5215 59.4725 31.6674L58.965 32.2999L58.5 30.6099C58.4641 30.436 58.4673 30.2564 58.5092 30.0839C58.5511 29.9114 58.6308 29.7504 58.7425 29.6124ZM59.9975 35.0124L61.0475 33.7024H68.915L69.9975 35.0449V38.0999C69.9957 39.1452 69.6652 40.1634 69.0527 41.0104C68.4403 41.8575 67.577 42.4905 66.585 42.8199L66.5325 42.8374C65.53 43.1624 64.4475 43.1624 63.445 42.8299L63.44 42.8274C62.9244 42.6559 62.4404 42.4008 62.0075 42.0724L61.985 42.0649C61.3698 41.6026 60.8701 41.004 60.5252 40.316C60.1804 39.628 59.9997 38.8695 59.9975 38.0999V35.0124ZM61.69 48.5624C61.928 48.4729 62.133 48.313 62.2777 48.1039C62.4225 47.8949 62.5 47.6467 62.5 47.3924V45.1599C62.6425 45.2124 62.7925 45.2324 62.935 45.2749C63.17 45.3424 63.3975 45.4174 63.6425 45.4624C63.975 45.5249 64.3125 45.5474 64.65 45.5649C64.7675 45.5699 64.8775 45.5999 64.9975 45.5999C65.105 45.5999 65.2025 45.5724 65.31 45.5674C65.665 45.5524 66.0175 45.5249 66.365 45.4599C66.5775 45.4199 66.78 45.3549 66.9875 45.2974C67.1575 45.2499 67.335 45.2224 67.5025 45.1624V47.3924C67.5025 47.6467 67.58 47.8949 67.7248 48.1039C67.8695 48.313 68.0745 48.4729 68.3125 48.5624L70.015 49.1999C68.6412 50.4436 66.8556 51.1347 65.0025 51.1399C63.1275 51.1399 61.35 50.4274 59.9875 49.1999L61.69 48.5624ZM40 49.3524C38.1 49.3524 36.2875 48.5999 34.9 47.3374L36.235 46.5049C36.4123 46.3916 36.5574 46.2346 36.6563 46.0489C36.7553 45.8632 36.8048 45.6552 36.8 45.4449H36.8225V42.7599C37.815 43.1149 38.8675 43.3449 39.98 43.3449C41.1025 43.3449 42.165 43.1149 43.165 42.7524V45.4474H43.19C43.19 45.8649 43.3775 46.2724 43.7575 46.5074L45.0975 47.3424C43.7056 48.62 41.8893 49.3362 40 49.3524ZM33.0725 33.9324V32.3549C33.0725 30.3774 34.2475 28.6124 36.0025 27.7524C38.9333 29.4981 42.2786 30.4262 45.69 30.4399H45.6925L46.285 30.4574C46.4925 30.4574 46.69 30.4899 46.89 30.5174V33.9324C46.89 37.7424 43.79 40.8424 39.9825 40.8424C36.175 40.8424 33.0725 37.7424 33.0725 33.9324ZM51.5725 44.4374C51.6121 44.6801 51.5983 44.9285 51.5322 45.1654C51.466 45.4022 51.349 45.6218 51.1893 45.8088C51.0297 45.9958 50.8311 46.1458 50.6076 46.2483C50.3841 46.3509 50.1409 46.4034 49.895 46.4024H48.325L45.6675 44.7474V41.3774C46.8203 40.5072 47.7561 39.3821 48.4019 38.0901C49.0477 36.7981 49.3859 35.3743 49.39 33.9299V31.7899C50.13 32.5624 50.5925 33.6074 50.5925 34.7599C50.5925 34.9624 50.6525 35.1474 50.7375 35.3174C50.8285 38.3716 51.1073 41.4174 51.5725 44.4374ZM29.55 32.6349V28.4924C29.55 22.6799 34.2775 17.9524 40.09 17.9524C45.9025 17.9524 50.63 22.6799 50.63 28.4924V29.5649C49.4294 28.537 47.903 27.9682 46.3225 27.9599L45.73 27.9424C42.1832 27.9517 38.7254 26.8318 35.8575 24.7449C35.725 24.6476 35.5746 24.5776 35.4149 24.5389C35.2552 24.5002 35.0894 24.4936 34.9271 24.5194C34.7648 24.5452 34.6092 24.6029 34.4694 24.6893C34.3296 24.7756 34.2083 24.8888 34.1125 25.0224C34.0075 25.1688 33.9362 25.3366 33.9038 25.5139C33.8714 25.6911 33.8786 25.8733 33.925 26.0474C32.9713 26.7036 32.1782 27.5667 31.6046 28.5723C31.031 29.5779 30.6919 30.7 30.6125 31.8549C30.6025 31.9199 30.5725 31.9799 30.5725 32.0499V33.9349C30.5725 36.9899 32.06 39.6849 34.3225 41.4049V44.7499L31.665 46.4049H30.2825C30.0367 46.4052 29.7937 46.352 29.5705 46.2491C29.3473 46.1461 29.1492 45.9958 28.9898 45.8087C28.8305 45.6215 28.7137 45.4019 28.6477 45.1651C28.5817 44.9283 28.568 44.68 28.6075 44.4374C29.235 40.5424 29.55 36.5699 29.55 32.6349ZM8.7425 29.6124C8.85423 29.4732 8.99582 29.361 9.15681 29.2839C9.31779 29.2069 9.49404 29.1671 9.6725 29.1674C10.3625 29.1674 10.9225 28.5299 10.9225 27.8374C10.9211 27.5887 10.9742 27.3427 11.0781 27.1167C11.182 26.8908 11.3342 26.6903 11.5239 26.5294C11.7136 26.3686 11.9362 26.2513 12.1761 26.1857C12.416 26.1201 12.6674 26.1079 12.9125 26.1499L20.0375 27.3374C20.2696 27.3751 20.4917 27.4591 20.6906 27.5846C20.8894 27.71 21.061 27.8742 21.195 28.0674C21.47 28.4574 21.5725 28.9324 21.495 29.3624L20.89 32.1699L20.485 31.6674C20.3685 31.5214 20.2205 31.4035 20.0521 31.3226C19.8838 31.2416 19.6993 31.1997 19.5125 31.1999H10.4475C10.2604 31.1999 10.0756 31.2418 9.90683 31.3228C9.73808 31.4037 9.58965 31.5215 9.4725 31.6674L8.965 32.2999L8.5 30.6099C8.46412 30.436 8.46727 30.2564 8.5092 30.0839C8.55114 29.9114 8.63082 29.7504 8.7425 29.6124ZM9.9975 35.0124L11.0475 33.7024H18.915L19.9975 35.0449V38.0999C19.9975 39.7249 19.2075 41.1549 18.005 42.0699L17.9975 42.0724C17.569 42.3974 17.0902 42.6499 16.58 42.8199L16.535 42.8349C15.5375 43.1599 14.4625 43.1599 13.4675 42.8374L13.4225 42.8224C12.9124 42.6533 12.4336 42.4016 12.005 42.0774L11.9975 42.0749C11.3789 41.6128 10.8764 41.013 10.5297 40.3231C10.183 39.6332 10.0016 38.872 10 38.0999L9.9975 35.0124ZM11.69 48.5624C11.928 48.4729 12.133 48.313 12.2777 48.1039C12.4225 47.8949 12.5 47.6467 12.5 47.3924V45.1624C12.6525 45.2174 12.815 45.2424 12.97 45.2874C13.1925 45.3499 13.41 45.4199 13.6375 45.4624C13.9725 45.5249 14.3125 45.5499 14.6525 45.5649C14.7675 45.5699 14.8775 45.5999 14.995 45.5999C15.1025 45.5999 15.205 45.5724 15.3125 45.5674C15.665 45.5524 16.015 45.5249 16.36 45.4624C16.585 45.4199 16.8 45.3499 17.0175 45.2874C17.1775 45.2424 17.3425 45.2174 17.5 45.1599V47.3924C17.5 47.6467 17.5775 47.8949 17.7223 48.1039C17.867 48.313 18.072 48.4729 18.31 48.5624L20.0125 49.1999C18.6399 50.4458 16.8537 51.1379 15 51.1424C13.125 51.1424 11.3475 50.4299 9.985 49.2024L11.69 48.5624Z" fill="white"/>
<path id="Vector_3" d="M30.42 63.6424C30.7515 63.6424 31.0694 63.5107 31.3039 63.2763C31.5383 63.0419 31.67 62.724 31.67 62.3924V58.8649C31.6714 57.3642 31.1103 55.9174 30.0975 54.8099C29.874 54.5653 29.5626 54.4194 29.2316 54.4044C28.9005 54.3894 28.5771 54.5065 28.3325 54.7299C28.0878 54.9534 27.9419 55.2649 27.9269 55.5959C27.9119 55.9269 28.029 56.2503 28.2525 56.4949C28.845 57.1449 29.17 57.9849 29.17 58.8649V62.3924C29.17 62.724 29.3017 63.0419 29.5361 63.2763C29.7705 63.5107 30.0885 63.6424 30.42 63.6424ZM50.83 62.3924V58.8649C50.83 57.9849 51.155 57.1449 51.75 56.4974C51.9738 56.2524 52.0911 55.9286 52.076 55.5971C52.061 55.2656 51.915 54.9537 51.67 54.7299C51.5487 54.6191 51.4067 54.5333 51.2523 54.4774C51.0978 54.4214 50.9338 54.3964 50.7697 54.4039C50.4382 54.4189 50.1263 54.5649 49.9025 54.8099C48.8896 55.9174 48.3286 57.3642 48.33 58.8649V62.3924C48.33 62.724 48.4617 63.0419 48.6961 63.2763C48.9305 63.5107 49.2485 63.6424 49.58 63.6424C49.9115 63.6424 50.2294 63.5107 50.4639 63.2763C50.6983 63.0419 50.83 62.724 50.83 62.3924ZM73.8075 62.3924V59.5924C73.8075 58.8199 74.095 58.0799 74.6175 57.5074L75.5225 56.5174C75.6331 56.3963 75.7188 56.2545 75.7747 56.1003C75.8305 55.946 75.8555 55.7823 75.848 55.6184C75.8406 55.4545 75.801 55.2936 75.7314 55.1451C75.6618 54.9965 75.5636 54.8631 75.4425 54.7524C75.3213 54.6418 75.1796 54.5561 75.0253 54.5002C74.8711 54.4444 74.7073 54.4195 74.5434 54.4269C74.3795 54.4343 74.2187 54.4739 74.0701 54.5435C73.9215 54.6131 73.7881 54.7113 73.6775 54.8324L72.7725 55.8224C71.831 56.8522 71.3092 58.1972 71.31 59.5924V62.3924C71.3244 62.714 71.4622 63.0175 71.6948 63.24C71.9274 63.4624 72.2369 63.5865 72.5587 63.5865C72.8806 63.5865 73.19 63.4624 73.4226 63.24C73.6552 63.0175 73.7931 62.714 73.8075 62.3924Z" fill="white"/>
</g>
</svg>
