<svg width="80" height="80" viewBox="0 0 80 80" fill="none" xmlns="http://www.w3.org/2000/svg">
<mask id="mask0_3001_2036" style="mask-type:alpha" maskUnits="userSpaceOnUse" x="0" y="0" width="80" height="80">
<rect width="80" height="80" fill="#D9D9D9"/>
</mask>
<g mask="url(#mask0_3001_2036)">
<path d="M13.3333 70C12.3889 70 11.5972 69.6806 10.9583 69.0417C10.3194 68.4028 10 67.6111 10 66.6667C10 65.7222 10.3194 64.9306 10.9583 64.2917C11.5972 63.6528 12.3889 63.3333 13.3333 63.3333H16.6667V43.3333H13.3333C12.3889 43.3333 11.5972 43.0139 10.9583 42.375C10.3194 41.7361 10 40.9444 10 40C10 39.0556 10.3194 38.2639 10.9583 37.625C11.5972 36.9861 12.3889 36.6667 13.3333 36.6667H16.6667V16.6667H13.3333C12.3889 16.6667 11.5972 16.3472 10.9583 15.7083C10.3194 15.0694 10 14.2778 10 13.3333C10 12.3889 10.3194 11.5972 10.9583 10.9583C11.5972 10.3194 12.3889 10 13.3333 10H66.6667C67.6111 10 68.4028 10.3194 69.0417 10.9583C69.6806 11.5972 70 12.3889 70 13.3333C70 14.2778 69.6806 15.0694 69.0417 15.7083C68.4028 16.3472 67.6111 16.6667 66.6667 16.6667H63.3333V36.6667H66.6667C67.6111 36.6667 68.4028 36.9861 69.0417 37.625C69.6806 38.2639 70 39.0556 70 40C70 40.9444 69.6806 41.7361 69.0417 42.375C68.4028 43.0139 67.6111 43.3333 66.6667 43.3333H63.3333V63.3333H66.6667C67.6111 63.3333 68.4028 63.6528 69.0417 64.2917C69.6806 64.9306 70 65.7222 70 66.6667C70 67.6111 69.6806 68.4028 69.0417 69.0417C68.4028 69.6806 67.6111 70 66.6667 70H13.3333ZM23.3333 63.3333H56.6667V43.3333C55.7222 43.3333 54.9306 43.0139 54.2917 42.375C53.6528 41.7361 53.3333 40.9444 53.3333 40C53.3333 39.0556 53.6528 38.2639 54.2917 37.625C54.9306 36.9861 55.7222 36.6667 56.6667 36.6667V16.6667H23.3333V36.6667C24.2778 36.6667 25.0694 36.9861 25.7083 37.625C26.3472 38.2639 26.6667 39.0556 26.6667 40C26.6667 40.9444 26.3472 41.7361 25.7083 42.375C25.0694 43.0139 24.2778 43.3333 23.3333 43.3333V63.3333ZM40 53.3333C42.7778 53.3333 45.1389 52.375 47.0833 50.4583C49.0278 48.5417 50 46.2222 50 43.5C50 41.3333 49.375 39.4722 48.125 37.9167C46.875 36.3611 44.1667 33.1667 40 28.3333C35.8333 33.1111 33.125 36.2917 31.875 37.875C30.625 39.4583 30 41.3333 30 43.5C30 46.2222 30.9722 48.5417 32.9167 50.4583C34.8611 52.375 37.2222 53.3333 40 53.3333Z" fill="#1C1B1F"/>
</g>
</svg>
