<svg width="116" height="115" viewBox="0 0 116 115" fill="none" xmlns="http://www.w3.org/2000/svg">
<g id="3">
<g id="Group 279">
<path id="Vector" d="M1.83594 94.9416V97.6161C1.84018 101.161 3.25039 104.56 5.75723 107.067C8.26408 109.574 11.6629 110.984 15.2081 110.988H36.6035C40.1487 110.984 43.5475 109.574 46.0543 107.067C48.5612 104.56 49.9714 101.161 49.9756 97.6161V94.9416C49.9711 90.7453 48.7344 86.6427 46.419 83.143C44.1036 79.6432 40.8115 76.9005 36.9511 75.2552C40.1397 72.9252 42.5097 69.6466 43.7223 65.8883C44.935 62.13 44.928 58.0845 43.7025 54.3303C42.4771 50.5762 40.0958 47.3057 36.8993 44.9867C33.7028 42.6676 29.8549 41.4188 25.9058 41.4188C21.9567 41.4188 18.1087 42.6676 14.9122 44.9867C11.7158 47.3057 9.33449 50.5762 8.109 54.3303C6.88352 58.0845 6.87659 62.13 8.08921 65.8883C9.30183 69.6466 11.6719 72.9252 14.8604 75.2552C11.0001 76.9005 7.7079 79.6432 5.3925 83.143C3.0771 86.6427 1.84042 90.7453 1.83594 94.9416ZM12.5336 60.1741C12.5336 57.5293 13.3179 54.944 14.7873 52.7449C16.2566 50.5459 18.345 48.832 20.7885 47.8199C23.2319 46.8078 25.9206 46.5429 28.5145 47.0589C31.1085 47.5749 33.4912 48.8485 35.3613 50.7186C37.2314 52.5887 38.505 54.9714 39.021 57.5653C39.5369 60.1593 39.2721 62.848 38.26 65.2914C37.2479 67.7348 35.534 69.8233 33.3349 71.2926C31.1359 72.762 28.5505 73.5462 25.9058 73.5462C22.3606 73.542 18.9618 72.1318 16.4549 69.6249C13.9481 67.1181 12.5379 63.7193 12.5336 60.1741ZM23.2313 78.8951H28.5802C32.8347 78.8993 36.9137 80.5913 39.9221 83.5997C42.9305 86.6081 44.6225 90.6871 44.6268 94.9416V97.6161C44.6268 99.744 43.7814 101.785 42.2768 103.289C40.7721 104.794 38.7314 105.639 36.6035 105.639H15.2081C13.0802 105.639 11.0394 104.794 9.53475 103.289C8.0301 101.785 7.18479 99.744 7.18479 97.6161V94.9416C7.18904 90.6871 8.88102 86.6081 11.8894 83.5997C14.8978 80.5913 18.9768 78.8993 23.2313 78.8951Z" fill="#007BFC"/>
<path id="Vector_2" d="M56.4156 43.478L57.5736 48.1074C57.7372 48.7592 58.0619 49.3594 58.518 49.853C58.974 50.3466 59.5467 50.7177 60.1835 50.9323C60.8203 51.1469 61.5009 51.198 62.1626 51.0811C62.8244 50.9641 63.4461 50.6828 63.9708 50.263L74.2513 42.0391C74.7251 41.6622 75.312 41.4558 75.9175 41.4534H98.1152C100.243 41.4534 102.284 40.6081 103.789 39.1035C105.293 37.5988 106.138 35.5581 106.138 33.4302V12.0348C106.138 9.90685 105.293 7.8661 103.789 6.36144C102.284 4.85678 100.243 4.01147 98.1152 4.01147H49.9755C47.8476 4.01147 45.8069 4.85678 44.3022 6.36144C42.7976 7.8661 41.9523 9.90685 41.9523 12.0348V33.4302C41.9523 35.5581 42.7976 37.5988 44.3022 39.1035C45.8069 40.6081 47.8476 41.4534 49.9755 41.4534H53.8214C54.4176 41.4535 54.9967 41.6527 55.4667 42.0195C55.9367 42.3863 56.2707 42.8996 56.4156 43.478ZM49.9755 36.1046C49.2662 36.1046 48.586 35.8228 48.0844 35.3213C47.5829 34.8197 47.3011 34.1395 47.3011 33.4302V12.0348C47.3011 11.3255 47.5829 10.6452 48.0844 10.1436C48.586 9.6421 49.2662 9.36033 49.9755 9.36033H98.1152C98.8245 9.36033 99.5048 9.6421 100.006 10.1436C100.508 10.6452 100.79 11.3255 100.79 12.0348V33.4302C100.79 34.1395 100.508 34.8197 100.006 35.3213C99.5048 35.8228 98.8245 36.1046 98.1152 36.1046H75.9175C74.0955 36.1051 72.328 36.7257 70.9056 37.8644L62.2538 44.7858L61.604 42.1809C61.1698 40.4454 60.1681 38.9048 58.758 37.8038C57.3479 36.7029 55.6103 36.1048 53.8214 36.1046H49.9755Z" fill="#007BFC"/>
<path id="Vector_3" d="M106.138 62.8489H63.3475C61.2196 62.8489 59.1788 63.6942 57.6742 65.1988C56.1695 66.7035 55.3242 68.7442 55.3242 70.8722V92.2676C55.3242 94.3955 56.1695 96.4362 57.6742 97.9409C59.1788 99.4455 61.2196 100.291 63.3475 100.291H80.1964C80.8027 100.293 81.3907 100.499 81.8652 100.877L92.1457 109.1C92.6708 109.521 93.2932 109.802 93.9556 109.919C94.618 110.036 95.2992 109.985 95.9365 109.77C96.5738 109.555 97.1468 109.183 97.6027 108.688C98.0586 108.193 98.3829 107.592 98.5456 106.939L99.6983 102.318C99.8427 101.739 100.176 101.225 100.646 100.858C101.117 100.491 101.696 100.291 102.292 100.291H106.138C108.266 100.291 110.307 99.4455 111.812 97.9409C113.316 96.4362 114.162 94.3955 114.162 92.2676V70.8722C114.162 68.7442 113.316 66.7035 111.812 65.1988C110.307 63.6942 108.266 62.8489 106.138 62.8489ZM108.813 92.2676C108.813 92.9769 108.531 93.6571 108.029 94.1587C107.528 94.6602 106.848 94.942 106.138 94.942H102.292C100.502 94.9411 98.7631 95.5391 97.3519 96.6406C95.9407 97.7422 94.9384 99.2841 94.5046 101.021L93.8574 103.623L85.2056 96.7018C83.7839 95.5637 82.0174 94.9431 80.1964 94.942H63.3475C62.6382 94.942 61.9579 94.6602 61.4564 94.1587C60.9548 93.6571 60.6731 92.9769 60.6731 92.2676V70.8722C60.6731 70.1629 60.9548 69.4826 61.4564 68.981C61.9579 68.4795 62.6382 68.1977 63.3475 68.1977H106.138C106.848 68.1977 107.528 68.4795 108.029 68.981C108.531 69.4826 108.813 70.1629 108.813 70.8722V92.2676Z" fill="#007BFC"/>
<path id="Vector_4" d="M63.3473 25.407H84.7427C85.452 25.407 86.1322 25.1252 86.6338 24.6236C87.1353 24.1221 87.4171 23.4418 87.4171 22.7325C87.4171 22.0232 87.1353 21.343 86.6338 20.8414C86.1322 20.3399 85.452 20.0581 84.7427 20.0581H63.3473C62.638 20.0581 61.9577 20.3399 61.4562 20.8414C60.9546 21.343 60.6729 22.0232 60.6729 22.7325C60.6729 23.4418 60.9546 24.1221 61.4562 24.6236C61.9577 25.1252 62.638 25.407 63.3473 25.407Z" fill="#007BFC"/>
<path id="Vector_5" d="M95.4408 78.8954H74.0454C73.3361 78.8954 72.6558 79.1772 72.1543 79.6787C71.6527 80.1803 71.371 80.8605 71.371 81.5698C71.371 82.2791 71.6527 82.9594 72.1543 83.4609C72.6558 83.9625 73.3361 84.2442 74.0454 84.2442H95.4408C96.1501 84.2442 96.8304 83.9625 97.3319 83.4609C97.8335 82.9594 98.1152 82.2791 98.1152 81.5698C98.1152 80.8605 97.8335 80.1803 97.3319 79.6787C96.8304 79.1772 96.1501 78.8954 95.4408 78.8954Z" fill="#007BFC"/>
</g>
</g>
</svg>
