<svg width="56" height="56" viewBox="0 0 56 56" fill="none" xmlns="http://www.w3.org/2000/svg">
<g clip-path="url(#clip0_3187_2106)">
<path d="M28.571 32.7949C31.2745 32.7949 33.4662 30.6032 33.4662 27.8996C33.4662 25.1961 31.2745 23.0044 28.571 23.0044C25.8674 23.0044 23.6757 25.1961 23.6757 27.8996C23.6757 30.6032 25.8674 32.7949 28.571 32.7949Z" fill="white"/>
<path fill-rule="evenodd" clip-rule="evenodd" d="M28.9307 17.5811C37.2771 17.6379 46.3832 18.2468 52.634 23.8209C52.8177 23.9849 52.9947 24.1554 53.1675 24.3314C54.6422 25.8345 55.4129 28.2614 54.2224 30.2586C51.7802 34.3591 46.3187 36.1476 41.031 37.2484C33.123 38.8947 24.8542 38.9078 16.9494 37.4583C12.4007 36.6231 7.74927 35.1593 4.51675 32.0974C3.25851 30.9058 2.18282 29.3382 2.35117 27.5935C2.62446 24.7709 5.33226 22.9595 7.61153 21.7329C13.9421 18.3266 21.6556 17.5647 28.9307 17.5811ZM28.325 18.8634C20.4279 18.9169 11.8804 19.4209 5.78265 24.4703C5.56948 24.6463 5.36396 24.831 5.1661 25.0245C5.0382 25.1491 4.91467 25.2792 4.79551 25.4126C3.72529 26.6151 3.35689 28.5467 4.36699 29.9908C5.38364 31.4436 6.92721 32.492 8.51668 33.3469C14.4614 36.5433 21.4861 37.1107 28.3349 37.1347C35.2689 37.1599 42.4194 36.528 48.5444 33.3611C50.9844 32.0984 53.7305 30.2444 53.6332 27.8569C53.5435 25.6662 51.4075 24.3128 49.8081 23.3465C49.3752 23.0852 48.9303 22.8436 48.4788 22.6162C42.3986 19.5696 35.2733 18.8481 28.325 18.8634Z" fill="white"/>
<path fill-rule="evenodd" clip-rule="evenodd" d="M39.6277 4.66741C42.681 4.74502 44.2628 8.41591 44.4716 11.127C44.5131 11.6659 44.5284 12.207 44.5219 12.7482C44.5153 13.3341 44.4836 13.9201 44.4322 14.5038C43.7884 21.7319 40.4881 28.6156 36.6018 34.9724C32.8008 41.1904 28.1658 47.3909 21.8603 50.2725C19.7757 51.2258 17.2963 51.8139 15.451 50.7502C12.9214 49.293 12.6449 45.8845 12.6919 43.2992C12.7039 42.664 12.7454 42.0289 12.811 41.3959C13.7829 32.0383 18.5262 23.1738 24.4621 15.5369C27.9253 11.0811 32.0455 6.66136 37.1779 5.06095C37.9858 4.80843 38.6275 4.65538 39.6277 4.66741ZM39.4812 5.94861C35.8967 6.00546 32.6784 8.66187 29.8285 11.4221C22.3359 18.6776 16.8142 28.327 14.5929 38.4466C14.4213 39.2304 14.277 40.0196 14.1709 40.8144C14.0889 41.4298 14.0288 42.0486 13.9971 42.6695C13.972 43.1636 13.9632 43.6588 13.9785 44.154C13.9895 44.541 14.0146 44.928 14.0572 45.3128C14.0889 45.6069 14.1316 45.8998 14.1851 46.1906C14.2256 46.406 14.2726 46.6202 14.3273 46.8334C14.3721 47.0061 14.4224 47.1777 14.4792 47.3483C14.9263 48.6962 16.0785 49.9839 17.6254 50.0266C21.2339 50.1249 24.6315 47.4937 27.5689 44.6339C32.7254 39.6152 36.5679 33.3086 39.5698 26.6796C41.9923 21.3274 44.2081 15.5095 42.9707 9.6184C42.9237 9.3954 42.869 9.17457 42.8067 8.95594C42.7553 8.77775 42.6974 8.60175 42.634 8.42793C42.153 7.11722 41.0215 5.94533 39.4812 5.94861Z" fill="white"/>
<path fill-rule="evenodd" clip-rule="evenodd" d="M17.7574 4.71543C21.6534 4.79086 25.1527 7.43525 28.2595 10.3967C33.9287 15.8002 38.1101 22.6741 41.2825 29.9088C43.74 35.5135 46.0007 41.8047 43.9914 47.7188C43.3585 49.5827 41.757 51.288 39.622 51.3317C35.7073 51.4105 32.0791 48.5638 28.9307 45.4997C21.0325 37.8102 15.1687 27.659 13.1595 16.8934C13.0152 16.1238 12.9004 15.3477 12.8217 14.5682C12.7572 13.932 12.7167 13.2925 12.7058 12.653C12.6971 12.137 12.708 11.621 12.7441 11.1072C12.7681 10.764 12.8031 10.4229 12.8501 10.0829C12.8949 9.76372 12.9518 9.4456 13.0228 9.13077C13.0698 8.92197 13.1223 8.71536 13.1824 8.50984C13.7716 6.49512 15.3043 4.70012 17.7574 4.71543ZM17.6098 5.99773C15.3283 6.04801 14.2843 8.73832 14.0745 10.6262C14.0318 11.0132 14.0056 11.4035 13.9936 11.7937C13.9783 12.2922 13.9848 12.7918 14.01 13.2903C14.3685 20.5042 17.5934 27.4786 21.4851 33.865C25.1494 39.8774 29.5746 45.8659 35.6614 48.9442C37.4192 49.833 39.5553 50.5315 41.0737 49.692C42.978 48.6382 43.212 46.1271 43.3136 44.2556C43.341 43.7462 43.3443 43.2346 43.3279 42.7241C43.3082 42.0835 43.2579 41.444 43.1825 40.8077C42.4806 34.8641 39.8483 29.2397 36.8245 23.9247C33.0618 17.3132 28.4519 10.7235 21.9278 7.28111C20.5767 6.56836 19.114 5.9857 17.6098 5.99773Z" fill="white"/>
</g>
<defs>
<clipPath id="clip0_3187_2106">
<rect width="56" height="56" fill="white"/>
</clipPath>
</defs>
</svg>
