<svg width="80" height="80" viewBox="0 0 80 80" fill="none" xmlns="http://www.w3.org/2000/svg">
<g id="Satisfaction">
<path id="Vector" d="M61.9119 44.056H46.6319V34.792C46.6319 32.6703 45.7891 30.6354 44.2888 29.1351C42.7885 27.6348 40.7537 26.792 38.6319 26.792C38.2076 26.792 37.8006 26.9606 37.5006 27.2606C37.2005 27.5607 37.0319 27.9676 37.0319 28.392V33.6C37.0338 35.3109 36.679 37.0033 35.9903 38.5694C35.3016 40.1356 34.2941 41.541 33.0319 42.696L29.2479 46.136V45.016C29.2479 43.7281 28.7363 42.493 27.8257 41.5823C26.915 40.6716 25.6798 40.16 24.3919 40.16H18.0799C16.7913 40.16 15.5553 40.6713 14.6434 41.5818C13.7315 42.4922 13.2181 43.7274 13.2159 45.016V72.744C13.2181 74.0326 13.7315 75.2677 14.6434 76.1782C15.5553 77.0886 16.7913 77.6 18.0799 77.6H24.3839C25.144 77.5997 25.8934 77.4207 26.5716 77.0775C27.2497 76.7342 27.8377 76.2363 28.2879 75.624H57.5999C58.5144 75.624 59.3914 75.2607 60.038 74.6141C60.6847 73.9675 61.0479 73.0905 61.0479 72.176V69.368C61.0435 68.7597 60.8779 68.1634 60.5679 67.64C61.023 67.3199 61.3938 66.8943 61.6488 66.3998C61.9037 65.9053 62.0352 65.3564 62.0319 64.8V62.256C62.0339 61.8717 61.9689 61.49 61.8399 61.128C62.7087 61.0635 63.521 60.6732 64.1144 60.0354C64.7077 59.3975 65.0383 58.5591 65.0399 57.688V54.88C65.0369 54.2679 64.8683 53.668 64.5519 53.144C65.1876 52.8597 65.7311 52.4035 66.1213 51.8268C66.5114 51.25 66.7326 50.5758 66.7599 49.88V47.936C66.7839 45.76 64.6399 44.056 61.9119 44.056ZM24.3839 75.256H18.0799C17.4087 75.256 16.7649 74.9899 16.2895 74.516C15.8142 74.0422 15.5461 73.3992 15.5439 72.728V45.016C15.5461 44.3448 15.8142 43.7018 16.2895 43.2279C16.7649 42.7541 17.4087 42.488 18.0799 42.488H24.3839C25.0551 42.488 25.699 42.7541 26.1743 43.2279C26.6497 43.7018 26.9178 44.3448 26.9199 45.016V72.744C26.9178 73.4152 26.6497 74.0582 26.1743 74.532C25.699 75.0059 25.0551 75.272 24.3839 75.272V75.256ZM62.7359 57.656C62.7359 57.8031 62.707 57.9487 62.6507 58.0846C62.5944 58.2205 62.5119 58.344 62.4079 58.448C62.3039 58.552 62.1804 58.6345 62.0445 58.6907C61.9087 58.747 61.763 58.776 61.6159 58.776H54.3999C54.1079 58.8002 53.8356 58.9334 53.6372 59.149C53.4387 59.3646 53.3285 59.6469 53.3285 59.94C53.3285 60.233 53.4387 60.5154 53.6372 60.731C53.8356 60.9466 54.1079 61.0798 54.3999 61.104H58.5679C58.715 61.104 58.8607 61.133 58.9965 61.1893C59.1324 61.2455 59.2559 61.328 59.3599 61.432C59.4639 61.536 59.5464 61.6595 59.6027 61.7954C59.659 61.9313 59.6879 62.0769 59.6879 62.224V64.8C59.689 64.9474 59.6608 65.0935 59.6049 65.2299C59.5489 65.3662 59.4665 65.4901 59.3623 65.5943C59.2581 65.6985 59.1342 65.781 58.9978 65.8369C58.8614 65.8928 58.7153 65.9211 58.5679 65.92C58.4422 65.9239 58.3179 65.9482 58.1999 65.992C58.0025 65.9503 57.8017 65.9262 57.5999 65.92H51.8159C51.5239 65.9442 51.2516 66.0774 51.0532 66.293C50.8547 66.5086 50.7445 66.7909 50.7445 67.084C50.7445 67.377 50.8547 67.6594 51.0532 67.875C51.2516 68.0906 51.5239 68.2238 51.8159 68.248H57.5999C57.897 68.248 58.1819 68.366 58.3919 68.576C58.6019 68.7861 58.7199 69.0709 58.7199 69.368V72.176C58.7199 72.473 58.6019 72.7579 58.3919 72.968C58.1819 73.178 57.897 73.296 57.5999 73.296H29.2079C29.2199 73.1122 29.2199 72.9278 29.2079 72.744V49.288L34.5599 44.424C36.0683 43.0541 37.2742 41.3847 38.1007 39.5223C38.9272 37.6599 39.3561 35.6455 39.3599 33.608V29.176C40.7203 29.3543 41.9697 30.0202 42.876 31.0502C43.7824 32.0801 44.2841 33.404 44.2879 34.776V44.8C44.2836 45.1859 44.4188 45.5603 44.6687 45.8543C44.9187 46.1483 45.2664 46.3421 45.6479 46.4C45.7251 46.4079 45.8028 46.4079 45.8799 46.4H61.8799C63.3759 46.4 64.4239 47.2 64.4239 47.952V49.896C64.4239 50.632 63.3759 51.448 61.8799 51.448H56.7999C56.5079 51.4722 56.2356 51.6054 56.0372 51.821C55.8387 52.0366 55.7285 52.3189 55.7285 52.612C55.7285 52.905 55.8387 53.1874 56.0372 53.403C56.2356 53.6186 56.5079 53.7518 56.7999 53.776H61.5999C61.897 53.776 62.1819 53.894 62.3919 54.104C62.6019 54.3141 62.7199 54.599 62.7199 54.896L62.7359 57.656Z" fill="white"/>
<path id="Vector_2" d="M21.344 38.696C21.5369 38.7974 21.7545 38.8425 21.9718 38.8259C22.1891 38.8094 22.3973 38.732 22.5727 38.6026C22.748 38.4732 22.8833 38.297 22.9632 38.0942C23.043 37.8914 23.0641 37.6702 23.024 37.456L21.88 31.056L26.544 26.4C26.6978 26.247 26.806 26.0542 26.8564 25.8432C26.9068 25.6321 26.8974 25.4113 26.8293 25.2053C26.7612 24.9993 26.637 24.8163 26.4708 24.6769C26.3045 24.5375 26.1027 24.4472 25.888 24.416L19.408 23.512L16.48 17.68C16.3826 17.4878 16.2339 17.3262 16.0503 17.2133C15.8668 17.1003 15.6555 17.0404 15.44 17.04C15.2226 17.0409 15.0098 17.1029 14.8259 17.2189C14.6421 17.3349 14.4945 17.5002 14.4 17.696L11.536 23.576L5.05602 24.552C4.84165 24.5857 4.64092 24.6785 4.47632 24.8199C4.31172 24.9613 4.18977 25.1458 4.12415 25.3526C4.05852 25.5595 4.05182 25.7805 4.10479 25.9909C4.15775 26.2014 4.2683 26.3929 4.42402 26.544L9.13602 31.088L8.06402 37.544C8.0289 37.7574 8.05454 37.9763 8.13801 38.1758C8.22148 38.3753 8.35941 38.5473 8.53602 38.672C8.7339 38.8156 8.97158 38.8939 9.21602 38.896C9.40559 38.8946 9.59208 38.848 9.76002 38.76L15.536 35.68L21.344 38.696ZM14.984 33.336L10.744 35.6L11.544 30.864C11.5733 30.677 11.5574 30.4857 11.4976 30.3062C11.4377 30.1266 11.3357 29.964 11.2 29.832L7.73602 26.504L12.48 25.784C12.6662 25.7556 12.8427 25.6825 12.9946 25.5711C13.1464 25.4596 13.269 25.3131 13.352 25.144L15.456 20.8L17.6 25.12C17.6842 25.289 17.8083 25.4349 17.9617 25.5451C18.1151 25.6552 18.293 25.7263 18.48 25.752L23.2 26.4L19.784 29.768C19.649 29.9 19.5484 30.0631 19.4912 30.2431C19.434 30.423 19.4219 30.6143 19.456 30.8L20.296 35.528L16.032 33.32C15.8682 33.2409 15.6881 33.2011 15.5061 33.2039C15.3242 33.2067 15.1454 33.2519 14.984 33.336ZM75.872 25.224C75.8046 25.0161 75.6805 24.8311 75.5137 24.6898C75.347 24.5485 75.1442 24.4565 74.928 24.424L68.448 23.52L65.52 17.68C65.4226 17.4878 65.2739 17.3262 65.0903 17.2133C64.9068 17.1003 64.6955 17.0404 64.48 17.04C64.2626 17.0409 64.0498 17.1029 63.8659 17.2189C63.6821 17.3349 63.5345 17.5002 63.44 17.696L60.576 23.576L54.104 24.552C53.8897 24.5857 53.6889 24.6785 53.5243 24.8199C53.3597 24.9613 53.2378 25.1458 53.1721 25.3526C53.1065 25.5595 53.0998 25.7805 53.1528 25.9909C53.2058 26.2014 53.3163 26.3929 53.472 26.544L58.184 31.088L57.112 37.544C57.0786 37.7589 57.1067 37.9789 57.193 38.1785C57.2794 38.3782 57.4205 38.5493 57.6 38.672C57.7979 38.8156 58.0356 38.8939 58.28 38.896C58.4696 38.8946 58.6561 38.848 58.824 38.76L64.6 35.68L70.4 38.696C70.5929 38.7974 70.8105 38.8425 71.0278 38.8259C71.2451 38.8094 71.4533 38.732 71.6287 38.6026C71.804 38.4732 71.9393 38.297 72.0192 38.0942C72.099 37.8914 72.1201 37.6702 72.08 37.456L70.936 31.056L75.584 26.4C75.7334 26.2481 75.839 26.0586 75.8897 25.8516C75.9404 25.6446 75.9343 25.4278 75.872 25.224ZM68.856 29.784C68.721 29.916 68.6204 30.0791 68.5632 30.2591C68.506 30.439 68.4939 30.6303 68.528 30.816L69.328 35.544L65.072 33.336C64.9053 33.2491 64.72 33.2037 64.532 33.2037C64.344 33.2037 64.1587 33.2491 63.992 33.336L59.752 35.6L60.552 30.864C60.5824 30.6777 60.5677 30.4868 60.5092 30.3073C60.4508 30.1277 60.3502 29.9648 60.216 29.832L56.8 26.504L61.544 25.784C61.7302 25.7556 61.9067 25.6825 62.0586 25.5711C62.2104 25.4596 62.333 25.3131 62.416 25.144L64.496 20.8L66.64 25.12C66.7242 25.289 66.8483 25.4349 67.0017 25.5451C67.1551 25.6552 67.333 25.7263 67.52 25.752L72.272 26.416L68.856 29.784ZM33.656 16.448L32.584 22.904C32.5551 23.1124 32.5838 23.3247 32.6671 23.5179C32.7503 23.7111 32.8848 23.8779 33.056 24C33.2521 24.1471 33.491 24.2258 33.736 24.224C33.9256 24.2226 34.1121 24.176 34.28 24.088L40.056 21.008L45.864 24.024C46.0503 24.1337 46.2633 24.1895 46.4794 24.1852C46.6955 24.181 46.9062 24.1169 47.088 24C47.2645 23.872 47.401 23.6966 47.4817 23.4941C47.5624 23.2916 47.584 23.0703 47.544 22.856L46.4 16.456L51.064 11.864C51.2435 11.7151 51.3743 11.5158 51.4396 11.2918C51.5048 11.0679 51.5015 10.8295 51.4301 10.6075C51.3586 10.3854 51.2223 10.1898 51.0388 10.0459C50.8552 9.90201 50.6327 9.81637 50.4 9.80003L43.92 8.89603L41 3.04803C40.9054 2.85127 40.7564 2.68571 40.5707 2.57088C40.385 2.45606 40.1703 2.39677 39.952 2.40003C39.735 2.40277 39.523 2.4655 39.3395 2.58128C39.1559 2.69706 39.008 2.86137 38.912 3.05603L36.048 8.94403L29.6 9.92003C29.3856 9.95207 29.1845 10.0435 29.0194 10.1841C28.8543 10.3246 28.732 10.5086 28.6662 10.7152C28.6004 10.9218 28.5938 11.1427 28.6471 11.3528C28.7005 11.5629 28.8116 11.7539 28.968 11.904L33.656 16.448ZM37 11.152C37.1863 11.1208 37.3625 11.0458 37.5141 10.9331C37.6657 10.8205 37.7884 10.6734 37.872 10.504L40 6.19203L42.144 10.488C42.2303 10.6547 42.3552 10.7983 42.5083 10.9069C42.6613 11.0154 42.8382 11.0858 43.024 11.112L47.776 11.776L44.36 15.144C44.2193 15.2728 44.1127 15.4345 44.0498 15.6146C43.987 15.7947 43.9699 15.9877 44 16.176L44.84 20.904L40.576 18.696C40.4099 18.6071 40.2244 18.5606 40.036 18.5606C39.8476 18.5606 39.6621 18.6071 39.496 18.696L35.256 20.952L36.056 16.216C36.0827 16.0316 36.0655 15.8434 36.0057 15.6668C35.9459 15.4903 35.8453 15.3303 35.712 15.2L32.256 11.872L37 11.152Z" fill="white"/>
</g>
</svg>
