<svg width="46" height="45" viewBox="0 0 46 45" fill="none" xmlns="http://www.w3.org/2000/svg">
<path d="M31.5155 29.1199L28.2917 25.8943V36.5625C28.2917 36.9355 28.1435 37.2931 27.8798 37.5569C27.616 37.8206 27.2584 37.9688 26.8854 37.9688C26.5124 37.9688 26.1548 37.8206 25.891 37.5569C25.6273 37.2931 25.4792 36.9355 25.4792 36.5625V25.8943L22.2553 29.1199C22.1247 29.2506 21.9696 29.3542 21.7988 29.4249C21.6281 29.4956 21.4452 29.532 21.2604 29.532C21.0756 29.532 20.8927 29.4956 20.722 29.4249C20.5512 29.3542 20.3961 29.2506 20.2655 29.1199C20.1348 28.9893 20.0312 28.8342 19.9605 28.6634C19.8898 28.4927 19.8534 28.3098 19.8534 28.125C19.8534 27.9402 19.8898 27.7573 19.9605 27.5866C20.0312 27.4158 20.1348 27.2607 20.2655 27.1301L25.8905 21.5051C26.0211 21.3743 26.1762 21.2706 26.3469 21.1998C26.5176 21.1291 26.7006 21.0926 26.8854 21.0926C27.0702 21.0926 27.2532 21.1291 27.4239 21.1998C27.5946 21.2706 27.7497 21.3743 27.8803 21.5051L33.5053 27.1301C33.636 27.2607 33.7396 27.4158 33.8103 27.5866C33.881 27.7573 33.9174 27.9402 33.9174 28.125C33.9174 28.3098 33.881 28.4927 33.8103 28.6634C33.7396 28.8342 33.636 28.9893 33.5053 29.1199C33.3747 29.2506 33.2196 29.3542 33.0488 29.4249C32.8781 29.4956 32.6952 29.532 32.5104 29.532C32.3256 29.532 32.1427 29.4956 31.972 29.4249C31.8012 29.3542 31.6461 29.2506 31.5155 29.1199ZM28.2917 7.03125C25.4186 7.03342 22.6028 7.83495 20.1593 9.34618C17.7159 10.8574 15.7411 13.0187 14.4559 15.5883C12.9258 15.3634 11.3657 15.4565 9.87315 15.8616C8.3806 16.2668 6.98761 16.9753 5.78119 17.943C4.57477 18.9107 3.58083 20.1168 2.86145 21.4858C2.14206 22.8549 1.71269 24.3576 1.60014 25.9001C1.48759 27.4425 1.69429 28.9916 2.20732 30.4506C2.72035 31.9096 3.5287 33.2472 4.58187 34.3797C5.63505 35.5123 6.91043 36.4155 8.32837 37.0331C9.7463 37.6506 11.2763 37.9691 12.8229 37.9688H19.8541C20.2271 37.9688 20.5848 37.8206 20.8485 37.5569C21.1122 37.2931 21.2604 36.9355 21.2604 36.5625C21.2604 36.1895 21.1122 35.8319 20.8485 35.5681C20.5848 35.3044 20.2271 35.1562 19.8541 35.1562H12.8229C10.5851 35.1562 8.43902 34.2673 6.85668 32.685C5.27435 31.1026 4.3854 28.9565 4.3854 26.7188C4.3854 24.481 5.27435 22.3349 6.85668 20.7525C8.43902 19.1702 10.5851 18.2812 12.8229 18.2812C13.0163 18.2812 13.2096 18.2813 13.4012 18.3023C13.0168 19.6684 12.8222 21.0809 12.8229 22.5C12.8229 22.873 12.9711 23.2306 13.2348 23.4944C13.4985 23.7581 13.8562 23.9062 14.2291 23.9062C14.6021 23.9062 14.9598 23.7581 15.2235 23.4944C15.4872 23.2306 15.6354 22.873 15.6354 22.5C15.6357 20.2183 16.2529 17.9791 17.4216 16.0194C18.5903 14.0597 20.267 12.4524 22.2744 11.3676C24.2817 10.2828 26.545 9.76081 28.8246 9.8569C31.1043 9.95299 33.3156 10.6636 35.2246 11.9135C37.1335 13.1634 38.669 14.9061 39.6686 16.9571C40.6683 19.0082 41.0948 21.2914 40.9032 23.565C40.7115 25.8387 39.9088 28.0182 38.5799 29.873C37.251 31.7278 35.4454 33.1889 33.3542 34.1016C33.0572 34.2303 32.8138 34.4575 32.6649 34.7449C32.516 35.0322 32.4708 35.3621 32.5368 35.679C32.6029 35.9958 32.7763 36.2801 33.0276 36.484C33.279 36.6879 33.593 36.7988 33.9167 36.798C34.1104 36.7979 34.302 36.7572 34.4791 36.6785C37.737 35.2574 40.406 32.7578 42.0374 29.6C43.6688 26.4423 44.163 22.819 43.4368 19.3397C42.7107 15.8604 40.8085 12.7373 38.0503 10.4957C35.292 8.25402 31.8459 7.03063 28.2917 7.03125Z" fill="black"/>
</svg>
