<svg width="174" height="48" viewBox="0 0 174 48" fill="none" xmlns="http://www.w3.org/2000/svg">
<g filter="url(#filter0_d_714_1245)">
<rect x="2" width="44" height="44" rx="22" fill="black"/>
</g>
<rect x="3" width="44" height="44" rx="22" fill="white"/>
<path d="M18.7853 25.5987C18.4987 25.8867 18.332 26.292 18.3333 26.7213C18.3333 27.1493 18.504 27.5533 18.8093 27.856L22.1133 30.8387C22.3867 31.0867 22.408 31.5067 22.1613 31.78C21.9147 32.0547 21.492 32.0733 21.22 31.828L17.8947 28.824C17.312 28.2493 17.0027 27.512 17 26.7253C16.9973 25.9387 17.3027 25.1973 17.86 24.6413L21.2133 21.5133C21.4813 21.2627 21.9053 21.2773 22.1547 21.5453C22.4053 21.8147 22.392 22.2373 22.1227 22.4867L18.7853 25.5987ZM41 13.3333V30.6667C41 33.9747 38.308 36.6667 35 36.6667H15C11.692 36.6667 9 33.9747 9 30.6667V13.3333C9 10.0253 11.692 7.33333 15 7.33333H35C38.308 7.33333 41 10.0253 41 13.3333ZM10.3333 13.3333V16.6667H39.6667V13.3333C39.6667 10.76 37.5733 8.66667 35 8.66667H15C12.4267 8.66667 10.3333 10.76 10.3333 13.3333ZM39.6667 30.6667V18H10.3333V30.6667C10.3333 33.24 12.4267 35.3333 15 35.3333H35C37.5733 35.3333 39.6667 33.24 39.6667 30.6667ZM14.3333 14C15.0693 14 15.6667 13.4027 15.6667 12.6667C15.6667 11.9307 15.0693 11.3333 14.3333 11.3333C13.5973 11.3333 13 11.9307 13 12.6667C13 13.4027 13.5973 14 14.3333 14ZM18.3333 14C19.0693 14 19.6667 13.4027 19.6667 12.6667C19.6667 11.9307 19.0693 11.3333 18.3333 11.3333C17.5973 11.3333 17 11.9307 17 12.6667C17 13.4027 17.5973 14 18.3333 14ZM22.3333 14C23.0693 14 23.6667 13.4027 23.6667 12.6667C23.6667 11.9307 23.0693 11.3333 22.3333 11.3333C21.5973 11.3333 21 11.9307 21 12.6667C21 13.4027 21.5973 14 22.3333 14ZM28.788 21.5133C28.5213 21.2627 28.096 21.2773 27.8467 21.5453C27.596 21.8147 27.6093 22.2373 27.8787 22.4867L31.1973 25.5827C31.5013 25.8867 31.668 26.2907 31.6667 26.7213C31.6667 27.1493 31.496 27.5533 31.212 27.8347L27.8867 30.8387C27.6133 31.0867 27.592 31.5067 27.8387 31.78C28.0853 32.0547 28.5067 32.0733 28.78 31.828L32.128 28.8027C32.688 28.2493 32.9973 27.5107 33 26.724C33.0027 25.9373 32.6973 25.196 32.124 24.624L28.788 21.512V21.5133Z" fill="black"/>
<g filter="url(#filter1_d_714_1245)">
<rect x="44" width="44" height="44" rx="22" fill="black"/>
</g>
<rect x="45" width="44" height="44" rx="22" fill="white"/>
<g filter="url(#filter2_d_714_1245)">
<rect x="86" width="44" height="44" rx="22" fill="black"/>
</g>
<rect x="87" width="44" height="44" rx="22" fill="white"/>
<g filter="url(#filter3_d_714_1245)">
<rect x="128" width="44" height="44" rx="22" fill="black"/>
</g>
<rect x="129" width="44" height="44" rx="22" fill="white"/>
<g clip-path="url(#clip0_714_1245)">
<path d="M82 17.3333V26.6667C82 29.9747 79.308 32.6667 76 32.6667H66.6667V36.6667H71.3333C71.7013 36.6667 72 36.9653 72 37.3333C72 37.7013 71.7013 38 71.3333 38H60.6667C60.2987 38 60 37.7013 60 37.3333C60 36.9653 60.2987 36.6667 60.6667 36.6667H65.3333V32.6667H56C52.692 32.6667 50 29.9747 50 26.6667V14.6667C50 11.3587 52.692 8.66667 56 8.66667H69.3333C69.7013 8.66667 70 8.96533 70 9.33333C70 9.70133 69.7013 10 69.3333 10H56C53.4267 10 51.3333 12.0933 51.3333 14.6667V26.6667C51.3333 29.24 53.4267 31.3333 56 31.3333H76C78.5733 31.3333 80.6667 29.24 80.6667 26.6667V17.3333C80.6667 16.9653 80.9653 16.6667 81.3333 16.6667C81.7013 16.6667 82 16.9653 82 17.3333ZM64.9893 19.372C75.46 7.188 75.5053 7.14 75.528 7.11733C77.02 5.62933 79.444 5.62933 80.9307 7.12C82.416 8.60933 82.416 11.0347 80.9307 12.5227L69.9693 24.2907C69.9053 25.352 69.5053 26.3507 68.7733 27.1507C67.892 28.1147 66.636 28.668 65.3307 28.668H59.9973C59.3507 28.668 58.76 28.3693 58.3787 27.852C57.996 27.332 57.8867 26.68 58.0787 26.0613C58.7453 23.9147 60.7973 20.1027 64.2547 19.4347C64.4973 19.388 64.7427 19.3827 64.9867 19.3733L64.9893 19.372ZM66.576 19.572C67.1373 19.74 67.6773 19.9867 68.1573 20.3467C68.928 20.928 69.472 21.6947 69.76 22.5573L72.5133 19.6027C72.076 18.024 70.688 16.848 69.052 16.6907C68.1787 17.708 67.3307 18.6933 66.576 19.572ZM68.652 23.692C68.572 22.7933 68.112 21.984 67.3533 21.412C66.536 20.7947 65.4987 20.5493 64.5093 20.7427C61.6693 21.2907 59.932 24.5907 59.3533 26.4547C59.288 26.664 59.3253 26.884 59.4533 27.0587C59.5813 27.232 59.7813 27.332 59.9987 27.332H65.332C66.2653 27.332 67.1613 26.9373 67.792 26.2493C68.4307 25.552 68.736 24.6427 68.652 23.692ZM70.052 15.5267C71.5933 15.948 72.8787 17.0507 73.532 18.5093L79.9707 11.5973C80.9533 10.6107 80.9533 9.032 79.9867 8.06133C79.0173 7.092 77.44 7.09067 76.4707 8.06133C76.3787 8.16667 73.212 11.8493 70.052 15.5267Z" fill="black"/>
</g>
<g clip-path="url(#clip1_714_1245)">
<path d="M118.333 21.3333V30.6667C118.333 31.0347 118.035 31.3333 117.667 31.3333C117.299 31.3333 117 31.0347 117 30.6667V21.3333C117 20.9653 117.299 20.6667 117.667 20.6667C118.035 20.6667 118.333 20.9653 118.333 21.3333ZM124.333 18C123.965 18 123.667 18.2987 123.667 18.6667V32C123.667 34.5733 121.573 36.6667 119 36.6667H99C96.4267 36.6667 94.3333 34.5733 94.3333 32V12C94.3333 9.42667 96.4267 7.33333 99 7.33333H112.333C112.701 7.33333 113 7.03467 113 6.66667C113 6.29867 112.701 6 112.333 6H99C95.692 6 93 8.692 93 12V32C93 35.308 95.692 38 99 38H119C122.308 38 125 35.308 125 32V18.6667C125 18.2987 124.701 18 124.333 18ZM112.764 11.6227L116.537 10.1947L118.048 6.41867C118.251 5.912 119.083 5.912 119.287 6.41867L120.8 10.2L124.581 11.7133C124.835 11.8147 125 12.06 125 12.332C125 12.604 124.833 12.8493 124.581 12.9507L120.8 14.464L119.287 18.2453C119.185 18.4987 118.94 18.664 118.668 18.664C118.396 18.664 118.151 18.4973 118.049 18.2453L116.533 14.456L112.743 12.8587C112.492 12.752 112.329 12.504 112.335 12.232C112.34 11.96 112.511 11.7173 112.765 11.6213L112.764 11.6227ZM114.795 12.28L117.307 13.3387C117.471 13.408 117.6 13.54 117.667 13.7053L118.667 16.2053L119.667 13.7053C119.735 13.536 119.868 13.4013 120.039 13.3333L122.539 12.3333L120.039 11.3333C119.869 11.2653 119.735 11.132 119.667 10.9613L118.667 8.46133L117.667 10.9613C117.597 11.1347 117.459 11.2707 117.283 11.3373L114.795 12.28ZM107.923 14.3213L112.969 30.4693C113.08 30.82 112.884 31.1947 112.532 31.304C112.467 31.3253 112.399 31.3347 112.333 31.3347C112.049 31.3347 111.787 31.152 111.697 30.8667L110.177 26.0013H101.157L99.6373 30.8667C99.5267 31.2187 99.152 31.4147 98.8027 31.304C98.4507 31.1947 98.2547 30.82 98.3653 30.4693L103.412 14.3213C103.727 13.3133 104.613 12.6613 105.668 12.6613C106.724 12.6613 107.608 13.3133 107.923 14.3213ZM109.76 24.668L106.651 14.7187C106.484 14.1853 106.033 13.996 105.667 13.996C105.3 13.996 104.849 14.1867 104.683 14.72L101.573 24.668H109.76Z" fill="black"/>
</g>
<path d="M158.543 15.4C158.412 15.5307 158.241 15.5947 158.071 15.5947C157.9 15.5947 157.729 15.5293 157.599 15.4C155.836 13.6373 153.492 12.6667 150.999 12.6667C148.505 12.6667 146.163 13.6373 144.399 15.4C144.139 15.66 143.716 15.66 143.456 15.4C143.196 15.14 143.196 14.7173 143.456 14.4573C145.471 12.4427 148.149 11.3333 150.999 11.3333C153.848 11.3333 156.527 12.4427 158.541 14.4573C158.801 14.7173 158.803 15.14 158.543 15.4ZM143.459 28.6C143.199 28.86 143.199 29.2827 143.459 29.5427C145.539 31.6227 148.269 32.6627 151.001 32.6627C153.733 32.6627 156.464 31.6227 158.544 29.5427C158.804 29.2827 158.804 28.86 158.544 28.6C158.284 28.34 157.861 28.34 157.601 28.6C153.963 32.2387 148.041 32.2387 144.403 28.6C144.143 28.34 143.719 28.34 143.459 28.6ZM151.001 27.3333C148.06 27.3333 145.668 24.9413 145.668 22C145.668 19.0587 148.06 16.6667 151.001 16.6667C153.943 16.6667 156.335 19.0587 156.335 22C156.335 24.9413 153.943 27.3333 151.001 27.3333ZM151.001 26C153.207 26 155.001 24.2053 155.001 22C155.001 19.7947 153.207 18 151.001 18C148.796 18 147.001 19.7947 147.001 22C147.001 24.2053 148.796 26 151.001 26ZM140.629 11.6293C146.348 5.912 155.652 5.912 161.371 11.6293C161.501 11.76 161.672 11.824 161.843 11.824C162.013 11.824 162.184 11.7587 162.315 11.6293C162.575 11.3693 162.575 10.9467 162.315 10.6867C156.076 4.448 145.924 4.448 139.687 10.6867C139.427 10.9467 139.427 11.3693 139.687 11.6293C139.947 11.8893 140.369 11.8893 140.629 11.6293ZM161.372 32.372C155.653 38.0907 146.348 38.0907 140.629 32.372C140.369 32.112 139.947 32.112 139.687 32.372C139.427 32.632 139.427 33.0547 139.687 33.3147C142.805 36.4347 146.904 37.9933 151 37.9933C155.096 37.9933 159.195 36.4347 162.313 33.3147C162.573 33.0547 162.573 32.632 162.313 32.372C162.053 32.112 161.632 32.112 161.372 32.372ZM140.335 26.668V17.3347C140.335 16.9667 140.036 16.668 139.668 16.668C139.3 16.668 139.001 16.9667 139.001 17.3347V26.668C139.001 27.036 139.3 27.3347 139.668 27.3347C140.036 27.3347 140.335 27.036 140.335 26.668ZM165.001 16.668H159.668C159.3 16.668 159.001 16.9667 159.001 17.3347C159.001 17.7027 159.3 18.0013 159.668 18.0013H161.668V26.668C161.668 27.036 161.967 27.3347 162.335 27.3347C162.703 27.3347 163.001 27.036 163.001 26.668V18.0013H165.001C165.369 18.0013 165.668 17.7027 165.668 17.3347C165.668 16.9667 165.369 16.668 165.001 16.668Z" fill="black"/>
<defs>
<filter id="filter0_d_714_1245" x="0" y="0" width="48" height="48" filterUnits="userSpaceOnUse" color-interpolation-filters="sRGB">
<feFlood flood-opacity="0" result="BackgroundImageFix"/>
<feColorMatrix in="SourceAlpha" type="matrix" values="0 0 0 0 0 0 0 0 0 0 0 0 0 0 0 0 0 0 127 0" result="hardAlpha"/>
<feOffset dy="2"/>
<feGaussianBlur stdDeviation="1"/>
<feComposite in2="hardAlpha" operator="out"/>
<feColorMatrix type="matrix" values="0 0 0 0 0 0 0 0 0 0 0 0 0 0 0 0 0 0 0.25 0"/>
<feBlend mode="normal" in2="BackgroundImageFix" result="effect1_dropShadow_714_1245"/>
<feBlend mode="normal" in="SourceGraphic" in2="effect1_dropShadow_714_1245" result="shape"/>
</filter>
<filter id="filter1_d_714_1245" x="42" y="0" width="48" height="48" filterUnits="userSpaceOnUse" color-interpolation-filters="sRGB">
<feFlood flood-opacity="0" result="BackgroundImageFix"/>
<feColorMatrix in="SourceAlpha" type="matrix" values="0 0 0 0 0 0 0 0 0 0 0 0 0 0 0 0 0 0 127 0" result="hardAlpha"/>
<feOffset dy="2"/>
<feGaussianBlur stdDeviation="1"/>
<feComposite in2="hardAlpha" operator="out"/>
<feColorMatrix type="matrix" values="0 0 0 0 0 0 0 0 0 0 0 0 0 0 0 0 0 0 0.25 0"/>
<feBlend mode="normal" in2="BackgroundImageFix" result="effect1_dropShadow_714_1245"/>
<feBlend mode="normal" in="SourceGraphic" in2="effect1_dropShadow_714_1245" result="shape"/>
</filter>
<filter id="filter2_d_714_1245" x="84" y="0" width="48" height="48" filterUnits="userSpaceOnUse" color-interpolation-filters="sRGB">
<feFlood flood-opacity="0" result="BackgroundImageFix"/>
<feColorMatrix in="SourceAlpha" type="matrix" values="0 0 0 0 0 0 0 0 0 0 0 0 0 0 0 0 0 0 127 0" result="hardAlpha"/>
<feOffset dy="2"/>
<feGaussianBlur stdDeviation="1"/>
<feComposite in2="hardAlpha" operator="out"/>
<feColorMatrix type="matrix" values="0 0 0 0 0 0 0 0 0 0 0 0 0 0 0 0 0 0 0.25 0"/>
<feBlend mode="normal" in2="BackgroundImageFix" result="effect1_dropShadow_714_1245"/>
<feBlend mode="normal" in="SourceGraphic" in2="effect1_dropShadow_714_1245" result="shape"/>
</filter>
<filter id="filter3_d_714_1245" x="126" y="0" width="48" height="48" filterUnits="userSpaceOnUse" color-interpolation-filters="sRGB">
<feFlood flood-opacity="0" result="BackgroundImageFix"/>
<feColorMatrix in="SourceAlpha" type="matrix" values="0 0 0 0 0 0 0 0 0 0 0 0 0 0 0 0 0 0 127 0" result="hardAlpha"/>
<feOffset dy="2"/>
<feGaussianBlur stdDeviation="1"/>
<feComposite in2="hardAlpha" operator="out"/>
<feColorMatrix type="matrix" values="0 0 0 0 0 0 0 0 0 0 0 0 0 0 0 0 0 0 0.25 0"/>
<feBlend mode="normal" in2="BackgroundImageFix" result="effect1_dropShadow_714_1245"/>
<feBlend mode="normal" in="SourceGraphic" in2="effect1_dropShadow_714_1245" result="shape"/>
</filter>
<clipPath id="clip0_714_1245">
<rect width="32" height="32" fill="white" transform="translate(50 6)"/>
</clipPath>
<clipPath id="clip1_714_1245">
<rect width="32" height="32" fill="white" transform="translate(93 6)"/>
</clipPath>
</defs>
</svg>
