<svg width="56" height="56" viewBox="0 0 56 56" fill="none" xmlns="http://www.w3.org/2000/svg">
<g clip-path="url(#clip0_616_658)">
<path d="M42.875 0H13.125C5.87626 0 0 5.87626 0 13.125V42.875C0 50.1237 5.87626 56 13.125 56H42.875C50.1237 56 56 50.1237 56 42.875V13.125C56 5.87626 50.1237 0 42.875 0Z" fill="white"/>
<mask id="mask0_616_658" style="mask-type:luminance" maskUnits="userSpaceOnUse" x="0" y="0" width="56" height="56">
<path d="M56 0H0V56H56V0Z" fill="white"/>
</mask>
<g mask="url(#mask0_616_658)">
<path d="M23.7485 38.4546L26.3272 32.1818H32.1122C34.4122 32.1818 36.294 30.3 36.294 28C36.294 25.7 34.4122 23.8182 32.1122 23.8182H13.294L23.7485 13.3636V17.5454H32.1122C37.897 17.5454 42.5666 22.2151 42.5666 28C42.5666 33.6454 38.106 38.1758 32.6 38.3848L41.103 46.8878C47.097 42.706 51 35.806 51 28C51 15.3152 40.6848 5 28 5C15.3152 5 5 15.3152 5 28C5 40.6848 15.3152 51 28 51C30.5091 51 32.9485 50.5818 35.1788 49.8151L23.7485 38.4546Z" fill="#56AED2"/>
</g>
</g>
<defs>
<clipPath id="clip0_616_658">
<rect width="56" height="56" fill="white"/>
</clipPath>
</defs>
</svg>
