<svg width="56" height="56" viewBox="0 0 56 56" fill="none" xmlns="http://www.w3.org/2000/svg">
<g clip-path="url(#clip0_3187_299)">
<path d="M22.8242 40.7273L25.9636 33.0909H33.0061C35.8061 33.0909 38.097 30.8 38.097 28C38.097 25.2 35.8061 22.9091 33.0061 22.9091H10.097L22.8242 10.1818V15.2727H33.0061C40.0485 15.2727 45.7333 20.9575 45.7333 28C45.7333 34.8727 40.303 40.3879 33.6 40.6424L43.9515 50.9939C51.2485 45.903 56 37.503 56 28C56 12.5576 43.4424 0 28 0C12.5576 0 0 12.5576 0 28C0 43.4424 12.5576 56 28 56C31.0545 56 34.0242 55.4909 36.7394 54.5575L22.8242 40.7273Z" fill="white"/>
</g>
<defs>
<clipPath id="clip0_3187_299">
<rect width="56" height="56" fill="white"/>
</clipPath>
</defs>
</svg>
