<svg width="40" height="40" viewBox="0 0 40 40" fill="none" xmlns="http://www.w3.org/2000/svg">
<g id="solutions">
<mask id="mask0_2540_2855" style="mask-type:alpha" maskUnits="userSpaceOnUse" x="0" y="0" width="40" height="40">
<rect id="Bounding box" width="40" height="40" fill="#D9D9D9"/>
</mask>
<g mask="url(#mask0_2540_2855)">
<path id="emoji_objects" d="M20 36.6666C19.2777 36.6666 18.625 36.493 18.0416 36.1458C17.4583 35.7985 17 35.3333 16.6666 34.7499C15.75 34.7499 14.9652 34.4235 14.3125 33.7708C13.6597 33.118 13.3333 32.3333 13.3333 31.4166V25.4999C11.6944 24.4166 10.3819 22.986 9.39579 21.2083C8.40968 19.4305 7.91663 17.4999 7.91663 15.4166C7.91663 12.0555 9.09024 9.20131 11.4375 6.85409C13.7847 4.50686 16.6388 3.33325 20 3.33325C23.3611 3.33325 26.2152 4.50686 28.5625 6.85409C30.9097 9.20131 32.0833 12.0555 32.0833 15.4166C32.0833 17.5555 31.5902 19.4999 30.6041 21.2499C29.618 22.9999 28.3055 24.4166 26.6666 25.4999V31.4166C26.6666 32.3333 26.3402 33.118 25.6875 33.7708C25.0347 34.4235 24.25 34.7499 23.3333 34.7499C23 35.3333 22.5416 35.7985 21.9583 36.1458C21.375 36.493 20.7222 36.6666 20 36.6666ZM16.6666 31.4166H23.3333V29.9166H16.6666V31.4166ZM16.6666 28.2499H23.3333V26.6666H16.6666V28.2499ZM16.3333 23.3333H18.75V18.8333L15.0833 15.1666L16.8333 13.4166L20 16.5833L23.1666 13.4166L24.9166 15.1666L21.25 18.8333V23.3333H23.6666C25.1666 22.611 26.3888 21.5485 27.3333 20.1458C28.2777 18.743 28.75 17.1666 28.75 15.4166C28.75 12.9721 27.9027 10.9027 26.2083 9.20825C24.5138 7.51381 22.4444 6.66659 20 6.66659C17.5555 6.66659 15.4861 7.51381 13.7916 9.20825C12.0972 10.9027 11.25 12.9721 11.25 15.4166C11.25 17.1666 11.7222 18.743 12.6666 20.1458C13.6111 21.5485 14.8333 22.611 16.3333 23.3333Z" fill="#1C1B1F"/>
</g>
</g>
</svg>
