<svg width="80" height="80" viewBox="0 0 80 80" fill="none" xmlns="http://www.w3.org/2000/svg">
<g id="Team" clip-path="url(#clip0_2244_2093)">
<path id="Vector" d="M79.8985 61.8454L78.6672 54.2954C78.6251 50.5985 76.2032 47.4485 72.7297 46.5876L70.2532 45.625C70.2371 45.6174 70.2203 45.6112 70.2032 45.6063L66.886 44.3297L66.6797 44.2501C66.2383 44.0808 65.8571 43.7843 65.5842 43.3983C65.3114 43.0122 65.1592 42.5539 65.1469 42.0813V41.9969L65.1579 41.9891C66.4374 40.8958 67.4669 39.5402 68.1766 38.0141C69.1329 37.7563 69.9344 37.0907 70.4829 36.0829C70.897 35.2926 71.1498 34.428 71.2266 33.5391C71.2492 33.1544 71.1804 32.7698 71.0259 32.4168C70.8714 32.0637 70.6355 31.7523 70.3376 31.5079C70.061 24.9766 65.4938 19.7657 59.9219 19.7657C57.3735 19.7657 55.0001 20.8813 53.1626 22.7469C51.5047 15.9172 46.211 10.9094 39.9532 10.9094C33.8016 10.9094 28.4329 15.8672 26.7329 22.7735C24.9047 20.8985 22.5235 19.7657 19.9235 19.7657C14.7407 19.7657 10.2907 24.3813 9.5735 30.5032C9.52662 30.9079 9.49537 31.3172 9.48131 31.7266C9.08756 32.161 8.63912 32.8204 8.70006 33.536C8.84693 35.4704 9.82818 37.4532 11.7032 37.9516C12.4423 39.5538 13.5411 40.9638 14.9141 42.0719L14.936 42.0891C14.9291 42.5467 14.7789 42.9907 14.5064 43.3585C14.234 43.7262 13.853 43.9992 13.4172 44.1391L13.3672 44.1563L10.0626 45.236L9.95943 45.2688L7.06568 46.2141C3.66256 47.1266 1.286 50.2719 1.25006 53.9063L0.0141208 61.8547C-0.0120764 62.0219 -0.00173702 62.1927 0.0444268 62.3554C0.0905906 62.5181 0.171482 62.6689 0.281528 62.7974C0.391573 62.9258 0.528159 63.0289 0.681874 63.0995C0.835589 63.1701 1.00278 63.2065 1.17193 63.2063H14.0219L13.3204 67.7376C13.2947 67.9046 13.3054 68.0752 13.3518 68.2377C13.3982 68.4002 13.4791 68.5508 13.5891 68.6791C13.699 68.8074 13.8354 68.9105 13.9888 68.9813C14.1423 69.052 14.3092 69.0888 14.4782 69.0891H65.5219C65.6918 69.0891 65.8596 69.0521 66.0138 68.9808C66.1679 68.9094 66.3047 68.8054 66.4147 68.676C66.5247 68.5465 66.6052 68.3947 66.6507 68.2311C66.6962 68.0674 66.7056 67.8958 66.6782 67.7282L65.9376 63.2063H78.7501C78.9198 63.206 79.0875 63.1689 79.2416 63.0974C79.3956 63.026 79.5323 62.922 79.6422 62.7926C79.7521 62.6632 79.8327 62.5115 79.8783 62.348C79.9239 62.1845 79.9334 62.013 79.9063 61.8454H79.8985ZM65.661 48.0516L66.7938 46.8126L67.8141 47.2047L63.5204 52.0313C63.134 51.3749 62.676 50.7633 62.1547 50.2079C63.5019 49.8306 64.7165 49.0837 65.661 48.0516ZM60.036 48.1469C59.7888 48.1427 59.5423 48.1202 59.2985 48.0797C58.6938 47.7798 58.0604 47.5417 57.4079 47.3688C56.9572 47.0876 56.5524 46.7387 56.2079 46.3344L55.5829 45.5969C56.2926 45.027 56.8142 44.2566 57.0797 43.386C57.9921 43.788 58.9766 44.0006 59.9735 44.011C61.0161 44.0062 62.0463 43.7843 62.9985 43.3594C63.273 44.3035 63.8357 45.1383 64.6079 45.7469L63.9391 46.4782C63.4448 47.0186 62.8407 47.447 62.1673 47.7348C61.4938 48.0227 60.7666 48.1632 60.0344 48.1469H60.036ZM59.9204 22.1172C63.3672 22.1172 66.3172 24.8063 67.4782 28.5813C65.4985 26.6813 63.4438 25.5126 60.0751 25.736C58.0626 25.611 56.2719 26.5172 55.2579 27.4125C55.0586 27.5881 54.8736 27.7794 54.7047 27.9844C54.4867 27.4601 54.1368 27.0009 53.6891 26.6516C53.6797 26.3844 53.6657 26.1204 53.6469 25.8563C55.1563 23.5672 57.4266 22.1172 59.9188 22.1172H59.9204ZM53.9297 32.461C54.0188 32.2969 54.0985 32.1329 54.1719 31.9704L55.1282 31.5532C55.4571 31.4087 55.7391 31.1752 55.9423 30.8789C56.1456 30.5827 56.2619 30.2355 56.2782 29.8766C56.3313 29.3922 57.9876 27.9251 59.9829 28.0782C60.0417 28.0821 60.1006 28.0821 60.1594 28.0782C63.7751 27.8141 65.3235 29.5532 68.1282 32.711L68.1985 32.7891C68.3266 32.9798 68.5074 33.1291 68.7188 33.2188C68.7829 33.26 68.8386 33.313 68.8829 33.3751C68.8269 33.9278 68.6679 34.4652 68.4141 34.9594C68.0235 35.6751 67.5907 35.7735 67.3001 35.786C67.0751 35.7952 66.8576 35.869 66.6736 35.9987C66.4895 36.1284 66.3468 36.3085 66.2626 36.5172C65.6976 37.9331 64.7999 39.1921 63.6454 40.1876C63.5626 40.2579 63.4751 40.3266 63.386 40.3922C63.2993 40.4389 63.2194 40.4973 63.1485 40.5657C62.2224 41.2478 61.1078 41.6266 59.9579 41.6501C58.9391 41.6501 57.861 41.2829 56.8329 40.586C56.7868 40.5474 56.7371 40.5134 56.6844 40.4844C56.5719 40.4047 56.461 40.3282 56.3547 40.2375C55.1253 39.2404 54.1756 37.9413 53.5985 36.4672C53.5153 36.2556 53.3723 36.0727 53.187 35.941C53.0016 35.8092 52.782 35.7341 52.5547 35.7251C51.9751 35.7016 51.6172 35.2641 51.3829 34.7719C52.4313 34.4063 53.2954 33.6219 53.9282 32.461H53.9297ZM29.9001 48.3891L29.4313 47.8282L28.9344 47.2235L30.9657 46.5579L31.1782 46.4875L32.7813 48.3625C34.1757 50.0015 36.0724 51.1341 38.1766 51.5844C38.7931 51.7173 39.4211 51.7895 40.0516 51.8H40.2266C40.6733 51.8032 41.1196 51.7761 41.5626 51.7188C43.8223 51.407 45.902 50.3154 47.4422 48.6329L47.5438 48.5219C47.5907 48.5063 47.6376 48.4938 47.6844 48.4813L47.7516 48.461L49.9501 47.7422L50.9469 47.4172L51.7985 47.1391L51.3969 47.5907L50.5813 48.5094L43.161 56.8532L40.2891 60.0829L39.8922 60.5297L39.636 60.2172L36.6766 56.6235L29.9001 48.3891ZM33.5938 40.7454C33.5986 41.4687 33.373 42.1749 32.9496 42.7614C32.5263 43.348 31.9272 43.7846 31.2391 44.0079L31.1829 44.0266L28.4282 44.9266L26.8938 44.336L26.6876 44.2563C26.2464 44.0868 25.8655 43.7902 25.593 43.4042C25.3204 43.0182 25.1684 42.56 25.1563 42.0875V42.0047L25.1672 41.9954C26.4459 40.9015 27.4748 39.546 28.1844 38.0204C28.94 37.8067 29.6036 37.349 30.0719 36.7188C30.96 38.1475 32.0837 39.4154 33.3954 40.4688C33.4579 40.5188 33.5219 40.5688 33.5876 40.625L33.5938 40.7454ZM35.8063 41.986C37.119 42.6344 38.561 42.9789 40.0251 42.9938C41.5527 42.9835 43.0572 42.6193 44.4204 41.9297C44.7334 43.473 45.6417 44.8309 46.9485 45.7094L46.2282 46.4907L45.7251 47.0422C45.4832 47.3075 45.2221 47.5546 44.9438 47.7813L44.8313 47.8719C44.711 47.9672 44.5876 48.0579 44.4626 48.1422C44.4001 48.186 44.3376 48.2282 44.2735 48.2688C44.0044 48.4441 43.7235 48.6007 43.4329 48.7376L43.2876 48.8047L43.1407 48.8688C43.0891 48.8922 43.036 48.9141 42.9844 48.9344C41.5433 49.5063 39.9591 49.6122 38.4547 49.2372C36.9502 48.8623 35.6011 48.0252 34.5969 46.8438L33.4376 45.5079C34.6473 44.6801 35.493 43.4193 35.8001 41.986H35.8063ZM51.0172 44.9297L48.986 44.1485C48.3084 43.8894 47.723 43.4349 47.3041 42.8427C46.8852 42.2504 46.6516 41.5471 46.6329 40.8219L46.6235 40.5094L46.7954 40.3672C48.0079 39.3399 49.05 38.127 49.8829 36.7735C50.3436 37.3538 50.9774 37.772 51.6922 37.9672C52.4324 39.5688 53.531 40.9786 54.9032 42.0875L54.9266 42.1063C54.9183 42.5634 54.7674 43.0064 54.4952 43.3736C54.2229 43.7409 53.8428 44.0139 53.4079 44.1547L53.3579 44.1719L51.0172 44.9297ZM28.6329 25.4079V25.361C29.461 18.4594 34.3157 13.261 39.9438 13.261C45.2672 13.261 49.7501 17.775 51.0001 23.8579C48.0126 20.7172 45.1844 18.6782 40.1532 19.0141C37.536 18.8391 35.2063 20.0157 33.8891 21.1844C32.8969 22.0641 32.3141 23.0594 32.2407 23.9969L28.7282 25.5282L28.6063 25.5813C28.6188 25.5297 28.6251 25.4688 28.6329 25.4079ZM27.5735 28.9063C27.6016 28.8641 27.636 28.8204 27.6719 28.7751C27.7688 28.6594 27.8813 28.5344 27.9954 28.4235L29.6516 27.7001L33.2704 26.1219C33.6457 25.9568 33.9674 25.6901 34.1993 25.3519C34.4312 25.0137 34.5641 24.6175 34.5829 24.2079C34.5829 24.0188 34.7813 23.5422 35.4501 22.9485C36.3782 22.125 38.1422 21.2157 40.0672 21.3672C40.126 21.3711 40.185 21.3711 40.2438 21.3672C44.961 21.0219 47.1563 23.0469 50.5235 26.7985L51.4172 27.8016L51.5376 27.936C51.6723 28.1445 51.8699 28.3048 52.1016 28.3938C52.1918 28.455 52.2761 28.5246 52.3532 28.6016C52.411 28.6502 52.4581 28.7104 52.4914 28.7781C52.5248 28.8459 52.5437 28.9199 52.5469 28.9954C52.51 29.4108 52.4325 29.8216 52.3157 30.2219C52.2059 30.6098 52.0551 30.9848 51.8657 31.3407L51.8391 31.3876C51.1391 32.6376 50.286 32.6719 50.0016 32.6844C49.8629 32.6906 49.7265 32.7213 49.5985 32.7751C49.4554 32.8341 49.3255 32.9212 49.2166 33.0313C49.1076 33.1413 49.0218 33.272 48.9641 33.4157C48.8912 33.5969 48.8131 33.7766 48.7297 33.9547C47.9375 35.7261 46.7637 37.3006 45.2922 38.5657C45.1657 38.6704 45.0344 38.7751 44.9001 38.8782C44.7904 38.9333 44.6906 39.0061 44.6047 39.0938C43.1594 40.1141 41.5751 40.6563 40.0141 40.6563C38.5422 40.6563 36.9922 40.1297 35.5219 39.1297C35.4607 39.0772 35.3942 39.0312 35.3235 38.9922H35.3141C35.1579 38.8813 35.0016 38.7657 34.8563 38.6485C33.2721 37.3666 32.0165 35.7254 31.1938 33.861C31.1188 33.6922 31.0485 33.5219 30.9813 33.3516C30.917 33.1864 30.8156 33.0381 30.6851 32.9181C30.5545 32.7981 30.3982 32.7096 30.2282 32.6594C30.1345 32.63 30.0373 32.6132 29.9391 32.6094C28.9219 32.5672 28.3157 31.8282 27.9563 31.025C27.696 30.4111 27.5285 29.7618 27.4594 29.0985C27.4914 29.031 27.5296 28.9667 27.5735 28.9063ZM19.9172 22.1219C22.4688 22.1219 24.7485 23.5938 26.2297 25.8907C26.2016 26.2329 26.1844 26.5782 26.1751 26.9219C26.0797 27.0219 25.9782 27.1329 25.8797 27.2547C24.3282 26.161 22.5579 25.5751 20.0719 25.7407C18.0594 25.6157 16.2688 26.5219 15.2563 27.4172C14.5297 28.061 14.0782 28.7938 13.9626 29.5094L11.9532 30.3813C12.6657 25.6438 16.036 22.1172 19.9204 22.1172L19.9172 22.1219ZM13.6063 36.475C13.5231 36.2634 13.3801 36.0805 13.1948 35.9488C13.0095 35.817 12.7898 35.742 12.5626 35.7329C11.4266 35.686 11.1157 34.0454 11.0454 33.5235C11.1221 33.4168 11.2072 33.3165 11.3001 33.2235L15.1282 31.5532C15.4571 31.4087 15.7391 31.1752 15.9423 30.8789C16.1456 30.5827 16.2619 30.2355 16.2782 29.8766C16.3313 29.3922 17.9891 27.9251 19.9829 28.0782C20.0417 28.0821 20.1006 28.0821 20.1594 28.0782C22.3344 27.9219 23.7532 28.4844 25.1594 29.65C25.4047 31.436 26.3376 33.9172 28.5501 34.6969C28.5094 34.7891 28.4672 34.8797 28.4188 34.9672C28.0282 35.6829 27.5969 35.7813 27.3047 35.7938C27.0798 35.8032 26.8624 35.8771 26.6784 36.0068C26.4944 36.1365 26.3517 36.3164 26.2672 36.5251C25.7023 37.9409 24.8046 39.1999 23.6501 40.1954C23.5672 40.2641 23.4829 40.3313 23.3954 40.3969C23.3063 40.4447 23.2242 40.5047 23.1516 40.575C22.2261 41.2569 21.1119 41.6352 19.9626 41.6579C18.9454 41.6579 17.8657 41.2907 16.8376 40.5938C16.7884 40.5533 16.7362 40.5167 16.6813 40.4844C16.5719 40.4094 16.4641 40.3282 16.3594 40.2454C15.1311 39.2478 14.1825 37.9488 13.6063 36.475ZM24.6016 45.7391L24.0329 46.3641L22.5922 46.8329C21.5608 47.1045 20.5799 47.5408 19.6876 48.125C18.3339 48.0094 17.0807 47.3642 16.2001 46.3297L15.5751 45.5922C16.2855 45.023 16.8072 44.2523 17.0719 43.3813C17.9842 43.7835 18.9687 43.9961 19.9657 44.0063C21.0083 44.0015 22.0385 43.7796 22.9907 43.3547C23.2666 44.2977 23.8297 45.1312 24.6016 45.7391ZM13.3735 46.6235L14.4188 47.8516C15.2554 48.8344 16.3319 49.5842 17.5438 50.0282C17.0795 50.5741 16.6717 51.1657 16.3266 51.7938L12.3438 46.961L13.3735 46.6235ZM15.3376 54.2876C15.1201 55.1411 15.0068 56.0177 15.0001 56.8985L14.386 60.8625H9.81881V55.2469C9.81881 54.9361 9.69534 54.6381 9.47557 54.4183C9.25581 54.1985 8.95773 54.0751 8.64693 54.0751C8.33613 54.0751 8.03806 54.1985 7.81829 54.4183C7.59852 54.6381 7.47506 54.9361 7.47506 55.2469V60.8625H2.53912L3.57506 54.1766C3.58446 54.1172 3.58916 54.0571 3.58912 53.9969C3.58912 51.3797 5.2735 49.1094 7.68443 48.4797L7.75162 48.4594L9.95006 47.7407L15.3376 54.286V54.2876ZM56.5391 66.7376V59.2266C56.5391 58.9158 56.4157 58.6177 56.1959 58.398C55.9761 58.1782 55.678 58.0547 55.3672 58.0547C55.0564 58.0547 54.7584 58.1782 54.5386 58.398C54.3188 58.6177 54.1954 58.9158 54.1954 59.2266V66.7376H25.8047V58.6891C25.8047 58.3783 25.6813 58.0802 25.4615 57.8605C25.2417 57.6407 24.9437 57.5172 24.6329 57.5172C24.3221 57.5172 24.024 57.6407 23.8042 57.8605C23.5845 58.0802 23.461 58.3783 23.461 58.6891V66.7376H15.8469L16.3938 63.2063L16.7579 60.8625L17.3297 57.1704C17.3386 57.1114 17.3428 57.0518 17.3422 56.9922V56.7282C17.3738 55.7196 17.5855 54.7248 17.9672 53.7907C18.4891 52.4937 19.3387 51.3545 20.4329 50.4844C21.256 49.8317 22.2058 49.3571 23.2219 49.0907C23.2454 49.0907 23.2672 49.0782 23.2907 49.0719L25.3219 48.4094L26.5532 48.0063L26.8219 48.3329L28.3235 50.1563L37.1297 60.8563L38.9501 63.0688C38.9607 63.0825 38.9722 63.0956 38.9844 63.1079C39.0016 63.1266 39.0188 63.1454 39.0376 63.1626C39.0494 63.1757 39.0625 63.1878 39.0766 63.1985C39.1047 63.2235 39.1329 63.2469 39.1626 63.2688L39.2485 63.3266L39.261 63.3344L39.3469 63.3797C39.3913 63.4016 39.4372 63.4199 39.4844 63.4344C39.5084 63.4439 39.5329 63.4517 39.5579 63.4579L39.6235 63.4719H39.6594L39.7438 63.4829H39.9532C39.9726 63.4818 39.992 63.4792 40.011 63.4751L40.0641 63.4672L40.1126 63.4563C40.1417 63.4501 40.1714 63.4422 40.2016 63.4329C40.2313 63.4235 40.2594 63.4126 40.2891 63.4001H40.3032C40.3199 63.3935 40.3361 63.3857 40.3516 63.3766C40.3798 63.3647 40.407 63.3506 40.4329 63.3344C40.4583 63.3203 40.4828 63.3046 40.5063 63.2876L40.5469 63.2579C40.5604 63.2504 40.573 63.2415 40.5844 63.2313L40.6235 63.1969C40.6516 63.1704 40.6797 63.1422 40.7063 63.1126C40.707 63.11 40.707 63.1073 40.7063 63.1047L40.7376 63.0688L42.7032 60.8594L47.4485 55.5235L48.7344 54.0782L52.0626 50.3282L53.6391 48.5563L53.7079 48.4782L56.4438 49.5313L56.4657 49.5391C57.1018 49.892 57.7861 50.15 58.4969 50.3047C59.9651 51.1169 61.1363 52.3757 61.8407 53.8985C62.3659 55.0349 62.6383 56.2716 62.6391 57.5235C62.6396 57.5863 62.6448 57.649 62.6547 57.711L63.1672 60.8563L63.5501 63.2001L64.1251 66.7313L56.5391 66.7376ZM72.4391 60.8625V55.6438C72.4391 55.333 72.3157 55.0349 72.0959 54.8152C71.8761 54.5954 71.578 54.4719 71.2672 54.4719C70.9564 54.4719 70.6584 54.5954 70.4386 54.8152C70.2188 55.0349 70.0954 55.333 70.0954 55.6438V60.8625H65.5641L65.0047 57.425C64.9966 56.4001 64.8452 55.3814 64.5547 54.3985L70.1563 48.1047L71.9688 48.8016C72.0199 48.8205 72.072 48.8361 72.1251 48.8485C74.6016 49.436 76.3329 51.7157 76.3329 54.3938C76.3329 54.4566 76.3376 54.5192 76.3469 54.5813L77.3719 60.8625H72.4391Z" fill="#142149"/>
</g>
<defs>
<clipPath id="clip0_2244_2093">
<rect width="80" height="80" fill="white"/>
</clipPath>
</defs>
</svg>
