<svg width="45" height="45" viewBox="0 0 45 45" fill="none" xmlns="http://www.w3.org/2000/svg">
<path d="M26.7188 16.875H18.2812C17.9083 16.875 17.5506 17.0232 17.2869 17.2869C17.0232 17.5506 16.875 17.9083 16.875 18.2812V26.7188C16.875 27.0917 17.0232 27.4494 17.2869 27.7131C17.5506 27.9768 17.9083 28.125 18.2812 28.125H26.7188C27.0917 28.125 27.4494 27.9768 27.7131 27.7131C27.9768 27.4494 28.125 27.0917 28.125 26.7188V18.2812C28.125 17.9083 27.9768 17.5506 27.7131 17.2869C27.4494 17.0232 27.0917 16.875 26.7188 16.875ZM25.3125 25.3125H19.6875V19.6875H25.3125V25.3125ZM40.7812 25.3125H37.9688V19.6875H40.7812C41.1542 19.6875 41.5119 19.5393 41.7756 19.2756C42.0393 19.0119 42.1875 18.6542 42.1875 18.2812C42.1875 17.9083 42.0393 17.5506 41.7756 17.2869C41.5119 17.0232 41.1542 16.875 40.7812 16.875H37.9688V9.84375C37.9688 9.09783 37.6724 8.38246 37.145 7.85501C36.6175 7.32757 35.9022 7.03125 35.1562 7.03125H28.125V4.21875C28.125 3.84579 27.9768 3.4881 27.7131 3.22438C27.4494 2.96066 27.0917 2.8125 26.7188 2.8125C26.3458 2.8125 25.9881 2.96066 25.7244 3.22438C25.4607 3.4881 25.3125 3.84579 25.3125 4.21875V7.03125H19.6875V4.21875C19.6875 3.84579 19.5393 3.4881 19.2756 3.22438C19.0119 2.96066 18.6542 2.8125 18.2812 2.8125C17.9083 2.8125 17.5506 2.96066 17.2869 3.22438C17.0232 3.4881 16.875 3.84579 16.875 4.21875V7.03125H9.84375C9.09783 7.03125 8.38246 7.32757 7.85501 7.85501C7.32757 8.38246 7.03125 9.09783 7.03125 9.84375V16.875H4.21875C3.84579 16.875 3.4881 17.0232 3.22438 17.2869C2.96066 17.5506 2.8125 17.9083 2.8125 18.2812C2.8125 18.6542 2.96066 19.0119 3.22438 19.2756C3.4881 19.5393 3.84579 19.6875 4.21875 19.6875H7.03125V25.3125H4.21875C3.84579 25.3125 3.4881 25.4607 3.22438 25.7244C2.96066 25.9881 2.8125 26.3458 2.8125 26.7188C2.8125 27.0917 2.96066 27.4494 3.22438 27.7131C3.4881 27.9768 3.84579 28.125 4.21875 28.125H7.03125V35.1562C7.03125 35.9022 7.32757 36.6175 7.85501 37.145C8.38246 37.6724 9.09783 37.9688 9.84375 37.9688H16.875V40.7812C16.875 41.1542 17.0232 41.5119 17.2869 41.7756C17.5506 42.0393 17.9083 42.1875 18.2812 42.1875C18.6542 42.1875 19.0119 42.0393 19.2756 41.7756C19.5393 41.5119 19.6875 41.1542 19.6875 40.7812V37.9688H25.3125V40.7812C25.3125 41.1542 25.4607 41.5119 25.7244 41.7756C25.9881 42.0393 26.3458 42.1875 26.7188 42.1875C27.0917 42.1875 27.4494 42.0393 27.7131 41.7756C27.9768 41.5119 28.125 41.1542 28.125 40.7812V37.9688H35.1562C35.9022 37.9688 36.6175 37.6724 37.145 37.145C37.6724 36.6175 37.9688 35.9022 37.9688 35.1562V28.125H40.7812C41.1542 28.125 41.5119 27.9768 41.7756 27.7131C42.0393 27.4494 42.1875 27.0917 42.1875 26.7188C42.1875 26.3458 42.0393 25.9881 41.7756 25.7244C41.5119 25.4607 41.1542 25.3125 40.7812 25.3125ZM35.1562 35.1562H9.84375V9.84375H35.1562V26.6959C35.1562 26.6959 35.1562 26.7117 35.1562 26.7188C35.1562 26.7258 35.1562 26.7346 35.1562 26.7416V35.1562Z" fill="black"/>
</svg>
