<svg width="26" height="26" viewBox="0 0 26 26" fill="none" xmlns="http://www.w3.org/2000/svg">
<g id="tick">
<path id="Vector" d="M13.0001 2.16663C10.8575 2.16663 8.76294 2.80199 6.98141 3.99237C5.19988 5.18275 3.81134 6.87469 2.99139 8.85422C2.17144 10.8338 1.95691 13.012 2.37491 15.1134C2.79292 17.2149 3.82469 19.1452 5.33976 20.6603C6.85483 22.1754 8.78515 23.2071 10.8866 23.6251C12.9881 24.0431 15.1663 23.8286 17.1458 23.0087C19.1254 22.1887 20.8173 20.8002 22.0077 19.0186C23.1981 17.2371 23.8334 15.1426 23.8334 13C23.8334 11.5773 23.5532 10.1686 23.0088 8.85422C22.4644 7.53986 21.6664 6.3456 20.6604 5.33964C19.6544 4.33367 18.4602 3.53569 17.1458 2.99126C15.8315 2.44684 14.4227 2.16663 13.0001 2.16663ZM19.1491 11.09L12.6491 17.0484C12.4433 17.2371 12.1726 17.339 11.8934 17.333C11.6143 17.3269 11.3483 17.2133 11.1508 17.0159L7.90084 13.7659C7.79737 13.6659 7.71484 13.5464 7.65806 13.4142C7.60128 13.2821 7.5714 13.1399 7.57015 12.9961C7.5689 12.8522 7.59631 12.7096 7.65078 12.5764C7.70525 12.4433 7.78569 12.3223 7.88741 12.2206C7.98913 12.1189 8.11008 12.0385 8.24322 11.984C8.37636 11.9295 8.51901 11.9021 8.66285 11.9034C8.8067 11.9046 8.94885 11.9345 9.08102 11.9913C9.2132 12.048 9.33274 12.1306 9.43267 12.234L11.9493 14.7506L17.6844 9.49321C17.8962 9.29898 18.1764 9.19683 18.4635 9.20922C18.7506 9.22162 19.0209 9.34754 19.2152 9.55929C19.4094 9.77105 19.5116 10.0513 19.4992 10.3384C19.4868 10.6254 19.3608 10.8958 19.1491 11.09Z" fill="#142149"/>
</g>
</svg>
