<svg width="26" height="26" viewBox="0 0 26 26" fill="none" xmlns="http://www.w3.org/2000/svg">
<g id="tick">
<path id="Vector" d="M13 5.41663C11.0716 5.41663 9.18657 5.98845 7.58319 7.0598C5.97981 8.13114 4.73013 9.65388 3.99218 11.4355C3.25422 13.217 3.06114 15.1774 3.43735 17.0688C3.81355 18.9601 4.74215 20.6974 6.10571 22.0609C7.46927 23.4245 9.20656 24.3531 11.0979 24.7293C12.9892 25.1055 14.9496 24.9124 16.7312 24.1744C18.5127 23.4365 20.0355 22.1868 21.1068 20.5834C22.1782 18.9801 22.75 17.095 22.75 15.1666C22.75 13.8862 22.4978 12.6184 22.0078 11.4355C21.5178 10.2525 20.7997 9.17771 19.8943 8.27233C18.9889 7.36696 17.9141 6.64878 16.7312 6.1588C15.5482 5.66882 14.2804 5.41663 13 5.41663ZM18.5341 13.4477L12.6841 18.8102C12.4989 18.98 12.2552 19.0718 12.004 19.0663C11.7528 19.0609 11.5134 18.9587 11.3357 18.7809L8.41068 15.8559C8.31756 15.766 8.24328 15.6584 8.19218 15.5395C8.14108 15.4205 8.11418 15.2926 8.11306 15.1631C8.11193 15.0337 8.1366 14.9053 8.18563 14.7854C8.23465 14.6656 8.30705 14.5568 8.39859 14.4652C8.49014 14.3737 8.599 14.3013 8.71882 14.2522C8.83865 14.2032 8.96703 14.1786 9.09649 14.1797C9.22595 14.1808 9.35389 14.2077 9.47285 14.2588C9.5918 14.3099 9.69939 14.3842 9.78933 14.4773L12.0543 16.7422L17.2159 12.0105C17.4065 11.8357 17.6587 11.7438 17.9171 11.755C18.1754 11.7661 18.4188 11.8794 18.5936 12.07C18.7684 12.2606 18.8603 12.5128 18.8492 12.7712C18.838 13.0295 18.7247 13.2729 18.5341 13.4477Z" fill="#142149"/>
</g>
</svg>
