<svg width="40" height="40" viewBox="0 0 40 40" fill="none" xmlns="http://www.w3.org/2000/svg">
<g id="track record">
<mask id="mask0_2540_2904" style="mask-type:alpha" maskUnits="userSpaceOnUse" x="0" y="0" width="40" height="40">
<rect id="Bounding box" width="40" height="40" fill="#D9D9D9"/>
</mask>
<g mask="url(#mask0_2540_2904)">
<path id="tactic" d="M27.3333 35L25 32.6667L27.625 30L25 27.375L27.3333 25L30 27.6667L32.625 25L35 27.375L32.3333 30L35 32.6667L32.625 35L30 32.375L27.3333 35ZM10 31.6667C10.4722 31.6667 10.8681 31.507 11.1875 31.1875C11.5069 30.8681 11.6667 30.4723 11.6667 30C11.6667 29.5278 11.5069 29.132 11.1875 28.8125C10.8681 28.4931 10.4722 28.3334 10 28.3334C9.52778 28.3334 9.13194 28.4931 8.8125 28.8125C8.49306 29.132 8.33333 29.5278 8.33333 30C8.33333 30.4723 8.49306 30.8681 8.8125 31.1875C9.13194 31.507 9.52778 31.6667 10 31.6667ZM10 35C8.61111 35 7.43056 34.5139 6.45833 33.5417C5.48611 32.5695 5 31.3889 5 30C5 28.6112 5.48611 27.4306 6.45833 26.4584C7.43056 25.4862 8.61111 25 10 25C11.0278 25 11.9653 25.2848 12.8125 25.8542C13.6597 26.4237 14.2778 27.1945 14.6667 28.1667C15.75 27.8612 16.6319 27.2639 17.3125 26.375C17.9931 25.4862 18.3333 24.4723 18.3333 23.3334V16.6667C18.3333 14.3612 19.1458 12.3959 20.7708 10.7709C22.3958 9.14587 24.3611 8.33337 26.6667 8.33337H28.5833L25.9583 5.70837L28.3333 3.33337L35 10L28.3333 16.6667L25.9583 14.3334L28.5833 11.6667H26.6667C25.2778 11.6667 24.0972 12.1528 23.125 13.125C22.1528 14.0973 21.6667 15.2778 21.6667 16.6667V23.3334C21.6667 25.3612 21.0139 27.1459 19.7083 28.6875C18.4028 30.2292 16.75 31.1806 14.75 31.5417C14.4167 32.5695 13.8125 33.4028 12.9375 34.0417C12.0625 34.6806 11.0833 35 10 35ZM7.33333 15L5 12.6667L7.625 10L5 7.37504L7.33333 5.00004L10 7.66671L12.625 5.00004L15 7.37504L12.3333 10L15 12.6667L12.625 15L10 12.375L7.33333 15Z" fill="#1C1B1F"/>
</g>
</g>
</svg>
