<svg width="46" height="45" viewBox="0 0 46 45" fill="none" xmlns="http://www.w3.org/2000/svg">
<path d="M39.0764 18.3006C38.7086 18.3622 38.3803 18.5673 38.1637 18.8709C37.9471 19.1745 37.86 19.5517 37.9215 19.9196C38.0643 20.7723 38.136 21.6354 38.136 22.5C38.1393 26.2867 36.7476 29.9419 34.2266 32.7674C32.6582 30.4947 30.4529 28.7364 27.8879 27.7137C29.2657 26.6285 30.2711 25.1409 30.7643 23.4578C31.2574 21.7748 31.2139 19.9798 30.6396 18.3227C30.0654 16.6655 28.989 15.2285 27.5601 14.2114C26.1313 13.1943 24.4211 12.6478 22.6672 12.6478C20.9134 12.6478 19.2031 13.1943 17.7743 14.2114C16.3454 15.2285 15.2691 16.6655 14.6948 18.3227C14.1206 19.9798 14.077 21.7748 14.5701 23.4578C15.0633 25.1409 16.0687 26.6285 17.4465 27.7137C14.8815 28.7364 12.6762 30.4947 11.1078 32.7674C9.1298 30.5384 7.83772 27.7855 7.38697 24.8397C6.93622 21.8939 7.34598 18.8806 8.56698 16.1622C9.78798 13.4437 11.7682 11.1358 14.2696 9.51595C16.7711 7.89611 19.6871 7.0333 22.6672 7.03127C23.5318 7.03113 24.3949 7.10286 25.2477 7.24572C25.6138 7.3035 25.988 7.21435 26.2888 6.99768C26.5896 6.781 26.7927 6.45432 26.8538 6.0887C26.915 5.72308 26.8293 5.34809 26.6154 5.04531C26.4016 4.74253 26.0768 4.53645 25.7117 4.4719C21.8928 3.82944 17.9685 4.41729 14.5054 6.15056C11.0423 7.88383 8.21968 10.6728 6.44503 14.1149C4.67038 17.557 4.03554 21.4739 4.63218 25.3003C5.22882 29.1267 7.02607 32.6645 9.76442 35.4028C12.5028 38.1412 16.0405 39.9384 19.8669 40.535C23.6933 41.1317 27.6103 40.4968 31.0523 38.7222C34.4944 36.9475 37.2834 34.1249 39.0167 30.6618C40.7499 27.1988 41.3378 23.2744 40.6953 19.4555C40.6338 19.0877 40.4286 18.7594 40.125 18.5428C39.8214 18.3262 39.4442 18.2391 39.0764 18.3006ZM17.0422 21.0938C17.0422 19.9813 17.3721 18.8937 17.9902 17.9687C18.6083 17.0437 19.4868 16.3227 20.5146 15.8969C21.5424 15.4712 22.6734 15.3598 23.7646 15.5769C24.8557 15.7939 25.858 16.3296 26.6447 17.1163C27.4314 17.903 27.9671 18.9052 28.1841 19.9964C28.4012 21.0875 28.2898 22.2185 27.864 23.2464C27.4383 24.2742 26.7173 25.1527 25.7923 25.7708C24.8673 26.3889 23.7797 26.7188 22.6672 26.7188C21.1754 26.7188 19.7446 26.1261 18.6897 25.0712C17.6348 24.0164 17.0422 22.5856 17.0422 21.0938ZM13.1891 34.7168C14.2064 33.1258 15.6078 31.8165 17.2643 30.9095C18.9207 30.0025 20.7787 29.5272 22.6672 29.5272C24.5557 29.5272 26.4137 30.0025 28.0702 30.9095C29.7266 31.8165 31.128 33.1258 32.1453 34.7168C29.4354 36.8244 26.1003 37.9687 22.6672 37.9687C19.2342 37.9687 15.899 36.8244 13.1891 34.7168ZM41.9434 8.02619L36.3184 13.6512C36.1878 13.7819 36.0327 13.8857 35.862 13.9564C35.6913 14.0272 35.5083 14.0636 35.3235 14.0636C35.1387 14.0636 34.9557 14.0272 34.7849 13.9564C34.6142 13.8857 34.4591 13.7819 34.3285 13.6512L31.516 10.8387C31.3854 10.708 31.2817 10.5529 31.211 10.3822C31.1403 10.2115 31.1039 10.0285 31.1039 9.84377C31.1039 9.659 31.1403 9.47603 31.211 9.30532C31.2817 9.13461 31.3854 8.9795 31.516 8.84885C31.7799 8.58498 32.1378 8.43674 32.511 8.43674C32.6957 8.43674 32.8787 8.47313 33.0494 8.54384C33.2201 8.61455 33.3752 8.71819 33.5059 8.84885L35.3235 10.6682L39.9535 6.03635C40.0842 5.90569 40.2393 5.80205 40.41 5.73134C40.5807 5.66063 40.7637 5.62424 40.9485 5.62424C41.1332 5.62424 41.3162 5.66063 41.4869 5.73134C41.6576 5.80205 41.8127 5.90569 41.9434 6.03635C42.074 6.167 42.1777 6.32211 42.2484 6.49282C42.3191 6.66353 42.3555 6.8465 42.3555 7.03127C42.3555 7.21604 42.3191 7.39901 42.2484 7.56972C42.1777 7.74043 42.074 7.89554 41.9434 8.02619Z" fill="black"/>
</svg>
