<svg width="56" height="56" viewBox="0 0 56 56" fill="none" xmlns="http://www.w3.org/2000/svg">
<g clip-path="url(#clip0_614_635)">
<path d="M42.875 0H13.125C5.87626 0 0 5.87626 0 13.125V42.875C0 50.1237 5.87626 56 13.125 56H42.875C50.1237 56 56 50.1237 56 42.875V13.125C56 5.87626 50.1237 0 42.875 0Z" fill="white"/>
<mask id="mask0_614_635" style="mask-type:luminance" maskUnits="userSpaceOnUse" x="5" y="5" width="46" height="46">
<path d="M40.2188 5H15.7812C9.82693 5 5 9.82693 5 15.7812V40.2188C5 46.1731 9.82693 51 15.7812 51H40.2188C46.1731 51 51 46.1731 51 40.2188V15.7812C51 9.82693 46.1731 5 40.2188 5Z" fill="white"/>
</mask>
<g mask="url(#mask0_614_635)">
<path d="M33.2614 5C33.2614 5.08118 33.2614 5.16235 33.2614 5.24804C33.2614 8.16137 30.8998 10.5222 27.9872 10.5222C25.074 10.5222 22.713 8.16061 22.713 5.24804C22.713 5.16235 22.713 5.08118 22.713 5H5V51H51V5H33.2614Z" fill="#654FF0"/>
<path d="M15.6846 29.79H18.7332L20.8145 40.8744H20.852L23.3535 29.79H26.2052L28.4646 41.0104H28.5089L30.8812 29.79H33.8712L29.986 46.0771H26.9606L24.7199 34.9927H24.6613L22.2629 46.0771H19.1812L15.6846 29.79ZM37.3082 29.79H42.1143L46.8872 46.0771H43.7423L42.7043 42.4528H37.2294L36.4281 46.0771H33.3652L37.3082 29.79ZM39.1378 33.8044L37.8081 39.7799H41.9467L40.4201 33.8044H39.1378Z" fill="white"/>
</g>
</g>
<defs>
<clipPath id="clip0_614_635">
<rect width="56" height="56" fill="white"/>
</clipPath>
</defs>
</svg>
