<svg width="56" height="56" viewBox="0 0 56 56" fill="none" xmlns="http://www.w3.org/2000/svg">
<g clip-path="url(#clip0_3187_149)">
<path d="M17.4016 29.5422H20.0266L21.8313 39.0797L23.9969 29.5422H26.4578L28.4156 39.2L30.4828 29.5422H33.0531L29.7063 43.5641H27.1031L25.1562 34.0156L23.0672 43.5641H20.4094L17.4016 29.5422ZM36.0172 29.5422H40.1516L44.2531 43.5641H41.5516L40.6547 40.4359H35.9406L35.2516 43.5641H32.6156L36.0172 29.5422ZM37.5922 32.9984L36.4438 38.1391H40.0094L38.6859 32.9984H37.5922ZM32.5281 8.20312C32.5281 8.26875 32.5281 8.34531 32.5281 8.42188C32.5281 10.9266 30.4937 12.9609 27.9891 12.9609C25.4844 12.9609 23.45 10.9266 23.45 8.42188C23.45 8.34531 23.45 8.26875 23.45 8.20312H8.20312V47.7969H47.7969V8.20312H32.5281Z" fill="white"/>
</g>
<defs>
<clipPath id="clip0_3187_149">
<rect width="56" height="56" fill="white"/>
</clipPath>
</defs>
</svg>
