<svg width="56" height="56" viewBox="0 0 56 56" fill="none" xmlns="http://www.w3.org/2000/svg">
<g clip-path="url(#clip0_616_933)">
<path d="M42.875 0H13.125C5.87626 0 0 5.87626 0 13.125V42.875C0 50.1237 5.87626 56 13.125 56H42.875C50.1237 56 56 50.1237 56 42.875V13.125C56 5.87626 50.1237 0 42.875 0Z" fill="white"/>
<path fill-rule="evenodd" clip-rule="evenodd" d="M12.11 33.875L16.6476 25.1915L16.928 33.875H19.5197L25.5443 22H23.0631L18.9589 30.2218L18.6699 22H15.8913L11.6172 30.3109L11.5067 22H9L9.46735 33.875H12.11ZM26.6574 33.875L27.6516 29.3469L29.3718 29.3469C30.4328 29.3456 31.1595 29.3186 31.5519 29.2659C32.243 29.1741 32.7925 29.0405 33.2004 28.865C33.6082 28.6895 33.9892 28.4316 34.3432 28.0914C34.6973 27.7512 34.9961 27.2976 35.2397 26.7306C35.4833 26.1635 35.6051 25.5803 35.6051 24.9809C35.6051 24.3329 35.4521 23.7753 35.1462 23.3082C34.8403 22.8411 34.4254 22.5063 33.9014 22.3038C33.3774 22.1013 32.665 22 31.7643 22H26.6999L24.0912 33.875H26.6574ZM28.9491 27.3785L28.0765 27.3786L28.8327 23.9522H30.6682C31.5009 23.9522 32.0376 23.994 32.2784 24.0777C32.5192 24.1614 32.7061 24.2951 32.8392 24.4787C32.9723 24.6623 33.0389 24.8972 33.0389 25.1834C33.0389 25.61 32.9086 26.0015 32.648 26.3579C32.3874 26.7144 32.0306 26.9736 31.5774 27.1356C31.1242 27.2976 30.2206 27.3786 28.8667 27.3786L28.9491 27.3785ZM38.2393 33.875L39.3439 28.8204H45.377L45.8104 26.8359H39.7773L40.4061 23.9846H46.5581L47 22H38.2818L35.6731 33.875H38.2393Z" fill="#232629"/>
</g>
<defs>
<clipPath id="clip0_616_933">
<rect width="56" height="56" fill="white"/>
</clipPath>
</defs>
</svg>
