<svg width="44" height="44" viewBox="0 0 44 44" fill="none" xmlns="http://www.w3.org/2000/svg">
<g opacity="0.5">
<rect width="44" height="44" rx="22" fill="black"/>
<path d="M31.25 22C31.2506 22.2546 31.1853 22.5051 31.0605 22.727C30.9356 22.949 30.7555 23.1348 30.5375 23.2665L17.03 31.5297C16.8023 31.6691 16.5414 31.7452 16.2744 31.7502C16.0075 31.7551 15.744 31.6887 15.5113 31.5578C15.2807 31.4289 15.0887 31.2409 14.9549 31.0132C14.8211 30.7855 14.7504 30.5263 14.75 30.2622V13.7378C14.7504 13.4737 14.8211 13.2144 14.9549 12.9867C15.0887 12.759 15.2807 12.5711 15.5113 12.4422C15.744 12.3112 16.0075 12.2448 16.2744 12.2498C16.5414 12.2547 16.8023 12.3308 17.03 12.4703L30.5375 20.7334C30.7555 20.8651 30.9356 21.051 31.0605 21.2729C31.1853 21.4949 31.2506 21.7453 31.25 22Z" fill="white"/>
</g>
</svg>
