<svg width="41" height="40" viewBox="0 0 41 40" fill="none" xmlns="http://www.w3.org/2000/svg">
<path d="M25.5067 13.5204C25.5067 10.7817 23.2827 8.55347 20.549 8.55347C17.8102 8.55347 15.582 10.7817 15.582 13.5204C15.582 16.2541 17.8102 18.4782 20.549 18.4782C23.2827 18.4782 25.5067 16.2541 25.5067 13.5204ZM20.549 16.9157C18.6718 16.9157 17.1445 15.3925 17.1445 13.5204C17.1445 11.6432 18.6717 10.116 20.549 10.116C22.4211 10.116 23.9442 11.6432 23.9442 13.5204C23.9442 15.3925 22.4211 16.9157 20.549 16.9157Z" fill="black"/>
<path d="M36.5601 29.6875H36.4038V24.2187C36.4038 23.7873 36.054 23.4375 35.6226 23.4375H22.5448L22.9113 21.7965C23.5426 21.6168 24.149 21.3657 24.7226 21.0462L26.9709 22.4696C27.2795 22.665 27.6826 22.6205 27.9412 22.362L29.3904 20.9129C29.6488 20.6544 29.6935 20.2514 29.498 19.9426L28.074 17.6934C28.3943 17.117 28.6455 16.5111 28.8247 15.8831L31.4175 15.3039C31.7745 15.2242 32.0287 14.9073 32.0287 14.5415V12.4902C32.0287 12.1243 31.7745 11.8075 31.4175 11.7278L28.8246 11.1486C28.6454 10.5206 28.3941 9.9148 28.074 9.33831L29.498 7.0891C29.6935 6.78027 29.6488 6.37722 29.3904 6.11878L27.9413 4.66957C27.6826 4.41089 27.279 4.36628 26.9701 4.56238L24.7225 5.98917C24.1523 5.67113 23.5464 5.41933 22.9118 5.23683L22.3323 2.6423C22.2526 2.28527 21.9357 2.03113 21.5698 2.03113H19.5184C19.1526 2.03113 18.8357 2.28527 18.756 2.6423L18.1765 5.23691C17.5419 5.41941 16.936 5.67121 16.3658 5.98917L14.1182 4.56246C13.8093 4.36628 13.4058 4.41089 13.147 4.66957L11.6979 6.11871C11.4395 6.37714 11.3948 6.78027 11.5903 7.08902L13.0144 9.33831C12.6941 9.91472 12.4429 10.5207 12.2637 11.1485L9.671 11.7277C9.31396 11.8075 9.06006 12.1243 9.06006 12.4901V14.5414C9.06006 14.9073 9.31396 15.2242 9.671 15.3039L12.2635 15.883C12.4432 16.5145 12.6944 17.1206 13.0138 17.6942L11.5903 19.9425C11.3948 20.2514 11.4395 20.6544 11.6979 20.9128L13.147 22.3619C13.4054 22.6204 13.8085 22.665 14.1173 22.4696L16.3666 21.0456C16.9431 21.3659 17.549 21.617 18.1769 21.7962L18.5435 23.4375H5.93506C5.50357 23.4375 5.15381 23.7873 5.15381 24.2187V29.6875H4.99756C3.79139 29.6875 2.81006 30.6688 2.81006 31.875V36.0937C2.81006 37.2999 3.79139 38.2812 4.99756 38.2812H9.99756C11.2037 38.2812 12.1851 37.2999 12.1851 36.0937V31.875C12.1851 30.6688 11.2037 29.6875 9.99756 29.6875H9.84131V28.125H18.4351V30.4687C18.4351 31.761 19.4865 32.8125 20.7788 32.8125C22.0712 32.8125 23.1226 31.761 23.1226 30.4687V28.125H31.7163V29.6875H31.5601C30.3539 29.6875 29.3726 30.6688 29.3726 31.875V36.0937C29.3726 37.2999 30.3539 38.2812 31.5601 38.2812H36.5601C37.7662 38.2812 38.7476 37.2999 38.7476 36.0937V31.875C38.7476 30.6688 37.7662 29.6875 36.5601 29.6875ZM19.5972 20.9872C19.5312 20.6914 19.3 20.4606 19.0042 20.3949C18.2165 20.2199 17.4651 19.9085 16.7708 19.4693C16.5157 19.308 16.1904 19.3082 15.9353 19.4695L13.8099 20.8151L13.245 20.2503L14.5906 18.1248C14.7525 17.8691 14.7521 17.5428 14.5896 17.2875C14.1527 16.6009 13.8417 15.8501 13.6651 15.0559C13.5994 14.76 13.3686 14.5289 13.0728 14.4629L10.6226 13.9155V13.1161L13.0729 12.5688C13.3686 12.5028 13.5994 12.2716 13.6652 11.9758C13.8403 11.188 14.1517 10.4366 14.5908 9.74246C14.7522 9.4873 14.7521 9.16199 14.5906 8.90691L13.245 6.78144L13.8094 6.21707L15.9345 7.56613C16.1907 7.72878 16.5179 7.72831 16.7737 7.56496C17.4535 7.13089 18.2051 6.81824 19.0079 6.63582C19.3021 6.56894 19.5315 6.33855 19.5972 6.04417L20.1445 3.59371H20.9439L21.4912 6.04417C21.5569 6.33863 21.7863 6.5691 22.0805 6.63597C22.8833 6.81839 23.635 7.13105 24.3148 7.56511C24.5704 7.72839 24.8977 7.72894 25.154 7.56621L27.279 6.21714L27.8435 6.78152L26.4978 8.90691C26.3363 9.16199 26.3364 9.4873 26.4977 9.74246C26.9368 10.4365 27.2482 11.1879 27.4234 11.9758C27.4892 12.2716 27.7201 12.5028 28.0158 12.5688L30.4663 13.1161V13.9155L28.0158 14.4628C27.7201 14.5289 27.489 14.76 27.4233 15.0558C27.2482 15.8437 26.9367 16.5952 26.4976 17.2892C26.3363 17.5443 26.3363 17.8696 26.4978 18.1247L27.8435 20.2502L27.2786 20.815L25.1533 19.4694C24.8976 19.3075 24.5714 19.3078 24.3159 19.4703C23.6292 19.9073 22.8784 20.2183 22.0843 20.3948C21.7885 20.4605 21.5573 20.6914 21.4912 20.9871L20.9439 23.4375H20.1445L19.5972 20.9872ZM10.6226 31.875V36.0937C10.6226 36.4383 10.3422 36.7187 9.99756 36.7187H4.99756C4.65295 36.7187 4.37256 36.4383 4.37256 36.0937V31.875C4.37256 31.5303 4.65295 31.25 4.99756 31.25H9.99756C10.3422 31.25 10.6226 31.5303 10.6226 31.875ZM21.5601 30.4687C21.5601 30.8995 21.2096 31.25 20.7788 31.25C20.348 31.25 19.9976 30.8995 19.9976 30.4687V28.125H21.5601V30.4687ZM32.4976 26.5625C27.7197 26.5625 13.819 26.5625 9.06006 26.5625C8.62857 26.5625 8.27881 26.9123 8.27881 27.3437V29.6875H6.71631V25H34.8413V29.6875H33.2788V27.3437C33.2788 26.9123 32.929 26.5625 32.4976 26.5625ZM37.1851 36.0937C37.1851 36.4383 36.9047 36.7187 36.5601 36.7187H31.5601C31.2154 36.7187 30.9351 36.4383 30.9351 36.0937V31.875C30.9351 31.5303 31.2154 31.25 31.5601 31.25H36.5601C36.9047 31.25 37.1851 31.5303 37.1851 31.875V36.0937Z" fill="black"/>
<path d="M34.0601 7.03125H35.6226V16.4062H34.0601V7.03125Z" fill="black"/>
<path d="M37.1851 3.90625H38.7476V13.2812H37.1851V3.90625Z" fill="black"/>
<path d="M34.0601 17.9688H35.6226V19.5312H34.0601V17.9688Z" fill="black"/>
<path d="M5.93506 7.03125H7.49756V16.4062H5.93506V7.03125Z" fill="black"/>
<path d="M2.81006 3.90625H4.37256V13.2812H2.81006V3.90625Z" fill="black"/>
<path d="M5.93506 17.9688H7.49756V19.5312H5.93506V17.9688Z" fill="black"/>
</svg>
