<svg width="40" height="40" viewBox="0 0 40 40" fill="none" xmlns="http://www.w3.org/2000/svg">
<g clip-path="url(#clip0_4058_13185)">
<path d="M26.25 30.3906C25.8188 30.3906 25.4688 30.7406 25.4688 31.1719C25.4688 31.6031 25.8188 31.9531 26.25 31.9531C26.6812 31.9531 27.0312 31.6031 27.0312 31.1719C27.0312 30.7406 26.6812 30.3906 26.25 30.3906Z" fill="black"/>
<path d="M26.25 33.5156C25.8188 33.5156 25.4688 33.8656 25.4688 34.2969C25.4688 34.7281 25.8188 35.0781 26.25 35.0781C26.6812 35.0781 27.0312 34.7281 27.0312 34.2969C27.0312 33.8656 26.6812 33.5156 26.25 33.5156Z" fill="black"/>
<path d="M13.75 30.3906C13.3188 30.3906 12.9688 30.7406 12.9688 31.1719C12.9688 31.6031 13.3188 31.9531 13.75 31.9531C14.1812 31.9531 14.5312 31.6031 14.5312 31.1719C14.5312 30.7406 14.1812 30.3906 13.75 30.3906Z" fill="black"/>
<path d="M13.75 33.5156C13.3188 33.5156 12.9688 33.8656 12.9688 34.2969C12.9688 34.7281 13.3188 35.0781 13.75 35.0781C14.1812 35.0781 14.5312 34.7281 14.5312 34.2969C14.5312 33.8656 14.1812 33.5156 13.75 33.5156Z" fill="black"/>
<path d="M20 4.6875C16.9845 4.6875 14.5312 7.14078 14.5312 10.1562C14.5312 13.1717 16.9845 15.625 20 15.625C23.0155 15.625 25.4688 13.1717 25.4688 10.1562C25.4688 7.14078 23.0155 4.6875 20 4.6875ZM20 14.0625C17.8461 14.0625 16.0938 12.3102 16.0938 10.1562C16.0938 8.00234 17.8461 6.25 20 6.25C22.1539 6.25 23.9062 8.00234 23.9062 10.1562C23.9062 12.3102 22.1539 14.0625 20 14.0625Z" fill="black"/>
<path d="M30.9375 30.3906C29.6452 30.3906 28.5938 31.442 28.5938 32.7344C28.5938 34.0267 29.6452 35.0781 30.9375 35.0781C32.2298 35.0781 33.2812 34.0267 33.2812 32.7344C33.2812 31.442 32.2298 30.3906 30.9375 30.3906ZM30.9375 33.5156C30.5067 33.5156 30.1562 33.1652 30.1562 32.7344C30.1562 32.3036 30.5067 31.9531 30.9375 31.9531C31.3683 31.9531 31.7188 32.3036 31.7188 32.7344C31.7188 33.1652 31.3683 33.5156 30.9375 33.5156Z" fill="black"/>
<path d="M9.0625 30.3906C7.77016 30.3906 6.71875 31.442 6.71875 32.7344C6.71875 34.0267 7.77016 35.0781 9.0625 35.0781C10.3548 35.0781 11.4062 34.0267 11.4062 32.7344C11.4062 31.442 10.3548 30.3906 9.0625 30.3906ZM9.0625 33.5156C8.63172 33.5156 8.28125 33.1652 8.28125 32.7344C8.28125 32.3036 8.63172 31.9531 9.0625 31.9531C9.49328 31.9531 9.84375 32.3036 9.84375 32.7344C9.84375 33.1652 9.49328 33.5156 9.0625 33.5156Z" fill="black"/>
<path d="M22.3438 9.375H20.7812V7.8125C20.7812 7.38109 20.4314 7.03125 20 7.03125C19.5686 7.03125 19.2188 7.38109 19.2188 7.8125V10.1562C19.2188 10.5877 19.5686 10.9375 20 10.9375H22.3438C22.7752 10.9375 23.125 10.5877 23.125 10.1562C23.125 9.72484 22.7752 9.375 22.3438 9.375Z" fill="black"/>
<path d="M39.2188 30.3906H36.6406V29.6094C36.6406 28.4406 36.0434 27.2612 35.0781 26.4544V16.4062C35.0781 14.0641 34.5399 12.1334 33.4785 10.6676C32.6326 9.49922 31.4473 8.64422 30.0325 8.17242C29.9277 8.00898 29.7631 7.88547 29.5644 7.83578L28.1315 7.47773C27.9984 7.07602 27.8349 6.68328 27.6425 6.30328L28.4041 5.03406C28.5887 4.72656 28.5402 4.33305 28.2866 4.07953L26.0765 1.87016C25.823 1.6168 25.4298 1.56852 25.1223 1.75266L23.853 2.51375C23.473 2.32125 23.0802 2.15773 22.6784 2.02469L22.3204 0.591797C22.2335 0.243984 21.921 0 21.5625 0H18.4375C18.079 0 17.7665 0.243984 17.6795 0.591797L17.3215 2.02469C16.9196 2.15773 16.527 2.32125 16.1469 2.51375L14.8776 1.75266C14.5704 1.56859 14.177 1.6168 13.9234 1.87016L11.7133 4.07953C11.4598 4.33305 11.4112 4.72656 11.5958 5.03406L12.3574 6.30328C12.165 6.68328 12.0015 7.07609 11.8684 7.47773L10.4355 7.83578C10.237 7.88539 10.0725 8.00875 9.96773 8.17195C7.0175 9.14156 4.92188 11.8754 4.92188 14.8438V26.4557C3.95859 27.2641 3.35938 28.4495 3.35938 29.6094V30.3906H0.78125C0.349844 30.3906 0 30.7405 0 31.1719V34.2969C0 34.7283 0.349844 35.0781 0.78125 35.0781H3.35938V35.8594C3.35938 38.0264 5.33297 40 7.5 40H32.5C34.667 40 36.6406 38.0264 36.6406 35.8594V35.0781H39.2188C39.6502 35.0781 40 34.7283 40 34.2969V31.1719C40 30.7405 39.6502 30.3906 39.2188 30.3906ZM3.35938 33.5156H1.5625V31.9531H3.35938V33.5156ZM30.1562 11.7188V9.8957C31.8585 10.6784 33.5156 12.4553 33.5156 16.4062V25.6143C33.1803 25.5183 32.8388 25.4688 32.5 25.4688H31.7188V14.8438C31.7188 13.6009 31.1256 12.4488 30.1562 11.7202C30.1562 11.7197 30.1562 11.7192 30.1562 11.7188ZM28.7625 12.7011C29.6091 13.0784 30.1562 13.9195 30.1562 14.8438V25.4688H25.4688V18.6694C25.6891 18.685 25.9123 18.6074 26.0766 18.443L28.2868 16.2329C28.5402 15.9794 28.5887 15.5859 28.4042 15.2784L27.6426 14.0092C27.835 13.6292 27.9985 13.2364 28.1316 12.8348L28.7308 12.685C28.7414 12.6903 28.7516 12.6963 28.7625 12.7011ZM11.4062 9.20383L12.6777 8.88617C12.9523 8.8175 13.1682 8.6057 13.2423 8.3325C13.3985 7.75594 13.631 7.19758 13.9332 6.67281C14.0748 6.42703 14.072 6.12406 13.9261 5.88086L13.2495 4.7532L14.597 3.40625L15.7248 4.0825C15.9679 4.22836 16.2709 4.23102 16.5166 4.08945C17.0413 3.78727 17.5997 3.55477 18.1763 3.39859C18.4495 3.32453 18.6612 3.10852 18.7299 2.83391L19.0476 1.5625H20.9525L21.2702 2.83391C21.3388 3.10852 21.5506 3.32445 21.8238 3.39859C22.4004 3.55477 22.9587 3.78727 23.4835 4.08945C23.7291 4.23102 24.032 4.22828 24.2752 4.0825L25.4031 3.40625L26.7506 4.7532L26.074 5.88086C25.928 6.12398 25.9254 6.42703 26.0669 6.67281C26.3691 7.19758 26.6016 7.75594 26.7577 8.3325C26.8318 8.6057 27.0478 8.8175 27.3224 8.88617L28.5938 9.20383V11.1088L27.3223 11.4264C27.0477 11.4951 26.8318 11.7069 26.7577 11.9801C26.6015 12.5566 26.369 13.115 26.0668 13.6398C25.9252 13.8855 25.928 14.1885 26.0739 14.4317L26.7505 15.5595L25.4032 16.9068L24.2752 16.2302C24.0322 16.0844 23.7293 16.0816 23.4834 16.2231C22.9587 16.5253 22.4003 16.7578 21.8237 16.914C21.5505 16.988 21.3387 17.2041 21.2701 17.4787L20.9524 18.75H19.0475L18.7298 17.4786C18.6612 17.204 18.4494 16.988 18.1762 16.9139C17.5996 16.7577 17.0412 16.5252 16.5165 16.223C16.2708 16.0814 15.9678 16.0842 15.7247 16.2301L14.5967 16.9067L13.2494 15.5594L13.926 14.4316C14.072 14.1885 14.0746 13.8855 13.9331 13.6397C13.6309 13.1149 13.3984 12.5566 13.2423 11.98C13.1682 11.7068 12.9522 11.495 12.6776 11.4263L11.4062 11.1087V9.20383ZM23.9062 17.8307V25.4688H22.3438V19.6276L22.6785 18.2878C23.0803 18.1548 23.473 17.9912 23.853 17.7988L23.9062 17.8307ZM20.7812 20.3125V25.4688H19.2188V20.3125H20.7812ZM17.6562 19.6276V25.4688H16.0938V17.8308L16.147 17.7989C16.527 17.9913 16.9198 18.1548 17.3215 18.2879L17.6562 19.6276ZM11.2375 12.7011C11.2484 12.6962 11.2586 12.6903 11.2692 12.685L11.8684 12.8348C12.0015 13.2365 12.165 13.6292 12.3574 14.0092L11.5958 15.2784C11.4113 15.5859 11.4598 15.9794 11.7132 16.2329L13.9234 18.443C14.0877 18.6073 14.3109 18.6848 14.5312 18.6692V25.4688H9.84375V14.8438C9.84375 13.9195 10.3909 13.0784 11.2375 12.7011ZM6.48438 14.8438C6.48438 12.7505 7.8493 10.8023 9.84375 9.89438V11.7188C9.84375 11.7192 9.84383 11.7197 9.84383 11.7202C8.87437 12.4488 8.28125 13.6009 8.28125 14.8438V25.4688H7.5C7.16047 25.4688 6.81922 25.5185 6.48438 25.6144V14.8438ZM35.0781 31.1719V34.2969V35.8594C35.0781 37.1605 33.8011 38.4375 32.5 38.4375H7.5C6.19891 38.4375 4.92188 37.1605 4.92188 35.8594V34.2969V31.1719V29.6094C4.92188 28.7904 5.43734 27.9331 6.235 27.4256C6.64055 27.1677 7.07805 27.0312 7.5 27.0312H32.5C32.9018 27.0312 33.3204 27.156 33.7107 27.392C34.5286 27.8863 35.0781 28.7774 35.0781 29.6094V31.1719ZM38.4375 33.5156H36.6406V31.9531H38.4375V33.5156Z" fill="black"/>
<path d="M23.125 30.3906H16.875C16.4436 30.3906 16.0938 30.7405 16.0938 31.1719C16.0938 31.6033 16.4436 31.9531 16.875 31.9531H23.125C23.5564 31.9531 23.9062 31.6033 23.9062 31.1719C23.9062 30.7405 23.5564 30.3906 23.125 30.3906Z" fill="black"/>
<path d="M23.125 33.5156H16.875C16.4436 33.5156 16.0938 33.8655 16.0938 34.2969C16.0938 34.7283 16.4436 35.0781 16.875 35.0781H23.125C23.5564 35.0781 23.9062 34.7283 23.9062 34.2969C23.9062 33.8655 23.5564 33.5156 23.125 33.5156Z" fill="black"/>
</g>
<defs>
<clipPath id="clip0_4058_13185">
<rect width="40" height="40" fill="white"/>
</clipPath>
</defs>
</svg>
