<svg width="41" height="40" viewBox="0 0 41 40" fill="none" xmlns="http://www.w3.org/2000/svg">
<g clip-path="url(#clip0_4058_13253)">
<path d="M8.13389 2.46646C8.13389 2.12114 8.41357 1.84146 8.75889 1.84146H11.1065C11.4519 1.84146 11.7315 2.12114 11.7315 2.46646C11.7315 2.81177 11.4519 3.09146 11.1065 3.09146H8.75889C8.41357 3.09146 8.13389 2.81177 8.13389 2.46646ZM7.60576 25.6227C7.60576 24.8454 8.23857 24.2125 9.01592 24.2125H10.8495C11.6269 24.2125 12.2597 24.8454 12.2597 25.6227C12.2597 26.4 11.6269 27.0329 10.8495 27.0329H9.01592C8.23857 27.0321 7.60576 26.4 7.60576 25.6227ZM8.85576 25.6227C8.85576 25.7094 8.9292 25.7829 9.01592 25.7829H10.8495C10.9362 25.7829 11.0097 25.7094 11.0097 25.6227C11.0097 25.536 10.9362 25.4625 10.8495 25.4625H9.01592C8.9292 25.4625 8.85576 25.536 8.85576 25.6227ZM40.7886 7.01255V26.0586C40.7886 27.2758 39.7987 28.2657 38.5815 28.2657H34.5347V34.8461H35.0292C35.3745 34.8461 35.6542 35.1258 35.6542 35.4711V37.1508C35.6542 38.5969 34.4776 39.7727 33.0323 39.7727H4.40498C2.95889 39.7727 1.78311 38.5961 1.78311 37.1508V35.4711C1.78311 35.1258 2.06279 34.8461 2.40811 34.8461H2.90264V28.75C1.80107 28.6204 0.944824 27.7297 0.944824 26.6532V2.33989C0.944824 1.17427 1.94717 0.22583 3.1792 0.22583H16.6862C17.9183 0.22583 18.9206 1.17427 18.9206 2.33911V4.80552H38.5815C39.7987 4.80552 40.7886 5.79614 40.7886 7.01255ZM18.9206 6.05552V12.5594H32.5206C33.6315 12.5594 34.5347 13.4633 34.5347 14.5735V24.3672H39.5386V7.01255C39.5386 6.48442 39.1089 6.05552 38.5815 6.05552H18.9206ZM6.12998 32.8696H31.3073V15.786H18.9206V17.8875C22.1964 18.2032 24.7659 20.9711 24.7659 24.3282C24.7659 27.8961 21.8628 30.7993 18.2948 30.7993C16.5073 30.7993 14.8081 30.0618 13.587 28.7672H6.12998V32.8696ZM2.19482 22.4782H17.6706V4.70708H2.19482V22.4782ZM18.9206 25.3633L21.2808 22.9813C21.3769 22.8852 21.4284 22.7579 21.4284 22.6235C21.4284 22.4891 21.3753 22.3625 21.28 22.2672C21.1847 22.1727 21.0581 22.1204 20.9245 22.1204C20.9237 22.1204 20.9237 22.1204 20.9229 22.1204C20.7878 22.1204 20.6612 22.1735 20.5667 22.2688L18.9214 23.9297V25.3633H18.9206ZM16.6862 28.7665H15.5487C16.3651 29.2719 17.3136 29.5485 18.2948 29.5485C21.1737 29.5485 23.5159 27.2063 23.5159 24.3274C23.5159 21.6602 21.505 19.4555 18.9206 19.1454V22.1532L19.6792 21.3875C20.0104 21.0547 20.4503 20.8704 20.919 20.8696C21.3886 20.8696 21.8292 21.0493 22.1612 21.3797C22.4933 21.7102 22.6769 22.15 22.6784 22.6188C22.68 23.0875 22.4987 23.529 22.1683 23.861L18.8378 27.2227C18.5729 28.1125 17.7089 28.7665 16.6862 28.7665ZM2.19482 2.33989V3.45708H17.6706V2.33989C17.6706 1.86411 17.2292 1.47661 16.6862 1.47661H3.1792C2.63623 1.47583 2.19482 1.86333 2.19482 2.33989ZM3.1792 27.5165H16.6862C17.2292 27.5165 17.6706 27.129 17.6706 26.6532V23.7282H2.19482V26.6532C2.19482 27.1297 2.63623 27.5165 3.1792 27.5165ZM34.4042 36.0969H24.3237V37.1368C24.3237 37.4821 24.044 37.7618 23.6987 37.7618H13.7378C13.3925 37.7618 13.1128 37.4821 13.1128 37.1368V36.0969H3.03311V37.1516C3.03311 37.9086 3.64873 38.5235 4.40498 38.5235H33.0315C33.7878 38.5235 34.4034 37.9079 34.4034 37.1516V36.0969H34.4042ZM14.3628 36.5118H23.0737V36.0969H14.3628V36.5118ZM33.2839 34.8469V14.5735C33.2839 14.1524 32.9409 13.8094 32.5198 13.8094H18.9206V14.5368H31.9323C32.2776 14.5368 32.5573 14.8165 32.5573 15.1618V33.4954C32.5573 33.8407 32.2776 34.1204 31.9323 34.1204H5.50498C5.15967 34.1204 4.87998 33.8407 4.87998 33.4954V28.7672H4.15264V34.8469H33.2839ZM39.5386 26.0594V25.6172H34.5339V27.0165H38.5808C39.1089 27.0165 39.5386 26.5868 39.5386 26.0594ZM14.8659 13.5922C14.8659 16.3125 12.6526 18.5258 9.93232 18.5258C7.21201 18.5258 4.99873 16.3125 4.99873 13.5922C4.99873 10.8719 7.21201 8.65864 9.93232 8.65864C12.6526 8.65864 14.8659 10.8719 14.8659 13.5922ZM13.6159 13.5922C13.6159 11.561 11.9636 9.90864 9.93232 9.90864C7.90107 9.90864 6.24873 11.561 6.24873 13.5922C6.24873 15.6235 7.90107 17.2758 9.93232 17.2758C11.9636 17.2758 13.6159 15.6235 13.6159 13.5922ZM11.4261 11.8969L9.37529 13.9672L8.43154 13.0477C8.18467 12.8071 7.78857 12.8118 7.54795 13.0586C7.30732 13.3055 7.31201 13.7016 7.55889 13.9422L8.94639 15.2946C9.06748 15.4133 9.22529 15.4719 9.38232 15.4719C9.54326 15.4719 9.7042 15.4102 9.82607 15.2868L12.3136 12.7758C12.5565 12.5305 12.555 12.1352 12.3097 11.8922C12.0651 11.65 11.669 11.6524 11.4261 11.8969Z" fill="black"/>
</g>
<defs>
<clipPath id="clip0_4058_13253">
<rect width="40" height="40" fill="white" transform="translate(0.866699)"/>
</clipPath>
</defs>
</svg>
