<svg width="41" height="40" viewBox="0 0 41 40" fill="none" xmlns="http://www.w3.org/2000/svg">
<g clip-path="url(#clip0_4058_13257)">
<path d="M30.5044 8.47645H33.6101L36.3133 10.0382L39.1613 11.6815C39.2579 11.7372 39.3657 11.765 39.4734 11.765C39.5812 11.765 39.6891 11.7372 39.7858 11.6814C39.979 11.5698 40.098 11.3636 40.098 11.1406V4.56333C40.098 4.3402 39.9789 4.13395 39.7856 4.02247C39.5924 3.9109 39.3543 3.91098 39.161 4.02262L36.313 5.66809L33.6103 7.22754H29.8799C29.535 7.22754 29.2554 7.50715 29.2554 7.85208V19.7089H26.6546C26.5019 14.125 22.6866 9.26286 17.2722 7.81356C16.9389 7.72434 16.5966 7.92215 16.5074 8.25536C16.4182 8.58856 16.616 8.9309 16.9492 9.02012C21.9293 10.3532 25.4088 14.8898 25.4109 20.052C25.4089 26.068 20.7312 31.0119 14.8232 31.44L16.0836 30.5035C16.3604 30.2978 16.4181 29.9066 16.2124 29.6297C16.0067 29.3529 15.6155 29.2951 15.3387 29.5009L12.4951 31.6136C12.3175 31.7456 12.2229 31.9618 12.2467 32.182C12.2705 32.4021 12.4091 32.5932 12.6109 32.6842L16.1875 34.2964C16.2708 34.3339 16.3579 34.3517 16.4437 34.3517C16.6818 34.3517 16.9093 34.2148 17.0134 33.9837C17.1551 33.6693 17.0151 33.2995 16.7008 33.1577L15.5223 32.6265C21.4913 31.9035 26.195 27.0121 26.6269 20.9579H29.2554V32.8125C29.2554 33.1574 29.535 33.437 29.8799 33.437H33.6634C33.9555 34.9305 35.2736 36.0613 36.8513 36.0613C38.6415 36.0613 40.0979 34.6039 40.0979 32.8125C40.0979 31.0212 38.6415 29.566 36.8513 29.566C35.2737 29.566 33.9558 30.6957 33.6635 32.188H30.5044V20.9579H33.6026V22.8824C33.6026 23.2273 33.8822 23.5069 34.2271 23.5069H39.4734C39.8183 23.5069 40.098 23.2273 40.098 22.8824V17.6361C40.098 17.2911 39.8183 17.0115 39.4734 17.0115H34.2271C33.8822 17.0115 33.6026 17.2911 33.6026 17.6361V19.7089H30.5044V8.47645ZM36.9376 6.74965C36.9376 6.74965 36.9377 6.74958 36.9379 6.7495L38.8489 5.64543V10.0593L35.0265 7.85231L36.9376 6.74965ZM36.8513 30.8148C37.9528 30.8148 38.8489 31.7109 38.8489 32.8123C38.8489 33.9137 37.9528 34.8121 36.8513 34.8121C35.7498 34.8121 34.8515 33.915 34.8515 32.8123C34.8515 31.7097 35.7486 30.8148 36.8513 30.8148ZM34.8515 18.2604H38.8489V22.2578H34.8515V18.2604ZM10.7204 31.7447C10.6457 32.0238 10.3933 32.2079 10.1175 32.2079C10.064 32.2079 10.0097 32.2011 9.95568 32.1866C4.42826 30.7076 0.567871 25.675 0.567871 19.9479C0.567871 13.4811 5.4392 8.13122 11.705 7.37333L10.527 6.84231C10.2126 6.70059 10.0726 6.33075 10.2144 6.01629C10.356 5.70184 10.7258 5.56184 11.0404 5.70364L14.6169 7.31583C14.8187 7.40684 14.9572 7.59786 14.9811 7.81801C15.0049 8.03817 14.9104 8.25442 14.7326 8.38645L11.8892 10.4992C11.7772 10.5823 11.6467 10.6225 11.5172 10.6225C11.3264 10.6225 11.138 10.5354 11.0154 10.3704C10.8097 10.0935 10.8674 9.70231 11.1443 9.49661L12.4048 8.55997C6.4949 8.98676 1.81686 13.9311 1.81686 19.9479C1.81686 25.1104 5.29639 29.647 10.2785 30.98C10.6117 31.0691 10.8095 31.4115 10.7204 31.7447ZM17.4828 11.5074L14.5087 10.7101C14.1755 10.621 13.8335 10.8182 13.7439 11.151L13.5547 11.8533C12.8807 11.8579 12.2135 11.9455 11.5613 12.1154L11.1979 11.4877C11.0253 11.1894 10.6437 11.0875 10.3453 11.2597L7.67896 12.7989C7.38053 12.9712 7.27803 13.3526 7.4499 13.6513L7.81186 14.2801C7.33701 14.7608 6.92732 15.2949 6.58779 15.8758L5.88701 15.6885C5.55381 15.5993 5.2117 15.7971 5.12248 16.13L4.32521 19.1042C4.236 19.4371 4.43326 19.7793 4.76607 19.869L5.46756 20.0578C5.47107 20.7317 5.55881 21.3995 5.72959 22.0529L5.10201 22.4142C4.95842 22.4968 4.8535 22.6332 4.81045 22.7932C4.7674 22.9532 4.78975 23.1239 4.87256 23.2674L6.4117 25.9359C6.49451 26.0794 6.63092 26.1842 6.79092 26.2272C6.95092 26.27 7.12146 26.2476 7.26498 26.1647L7.89365 25.8015C8.37381 26.2754 8.90834 26.685 9.49037 27.0249L9.30154 27.7274C9.2585 27.8874 9.28092 28.058 9.36365 28.2015C9.44646 28.345 9.58295 28.4498 9.74303 28.4927L12.7194 29.29C12.7726 29.3042 12.8269 29.3112 12.881 29.3112C12.9898 29.3112 13.0977 29.2828 13.1935 29.2274C13.3369 29.1444 13.4416 29.0079 13.4844 28.8478L13.6718 28.1455C14.3464 28.142 15.0141 28.0543 15.6665 27.8835L16.0297 28.5119C16.2021 28.8104 16.584 28.9126 16.8826 28.7404L19.549 27.2012C19.6924 27.1184 19.7971 26.9819 19.84 26.822C19.8828 26.662 19.8604 26.4915 19.7775 26.348L19.4146 25.7199C19.8882 25.2409 20.2981 24.7063 20.6394 24.1228L21.3398 24.3115C21.4999 24.3547 21.6706 24.3322 21.8141 24.2495C21.9577 24.1667 22.0626 24.0302 22.1054 23.87L22.9027 20.8936C22.9455 20.7336 22.9231 20.5631 22.8402 20.4197C22.7573 20.2762 22.6208 20.1716 22.4608 20.1288L21.7597 19.9413C21.7554 19.2653 21.6679 18.5979 21.4983 17.9475L22.1261 17.5861C22.2697 17.5034 22.3747 17.367 22.4176 17.2069C22.4606 17.0468 22.4382 16.8761 22.3553 16.7326L20.814 14.064C20.7311 13.9206 20.5947 13.816 20.4347 13.7731C20.2747 13.7303 20.1043 13.7527 19.9608 13.8356L19.3327 14.1985C18.8541 13.7252 18.32 13.3154 17.7369 12.9738L17.9244 12.2723C18.0135 11.9393 17.8158 11.597 17.4829 11.5077L17.4828 11.5074ZM18.7528 15.4006C18.9498 15.6217 19.2751 15.674 19.5314 15.5258L20.0447 15.2293L20.9608 16.8154L20.4487 17.1102C20.1921 17.2579 20.0745 17.5655 20.1671 17.8468C20.4358 18.663 20.5479 19.5163 20.4999 20.3829C20.4836 20.6782 20.6765 20.9443 20.9621 21.0208L21.5345 21.1738L21.0608 22.9426L20.4887 22.7886C20.2027 22.7116 19.9019 22.8461 19.7686 23.1105C19.3786 23.8843 18.855 24.5671 18.2122 25.14C17.9911 25.337 17.9388 25.6622 18.0869 25.9186L18.3834 26.4318L16.7988 27.3465L16.5021 26.8329C16.354 26.5767 16.0465 26.4595 15.7656 26.5522C14.946 26.8227 14.0933 26.9347 13.2313 26.885C12.9351 26.8683 12.6683 27.0611 12.5919 27.3474L12.4387 27.9216L10.6698 27.4479L10.8243 26.8733C10.9012 26.5872 10.7664 26.2864 10.5017 26.1532C9.73092 25.7658 9.04811 25.2428 8.47217 24.5986C8.27506 24.3782 7.95029 24.3262 7.6942 24.4741L7.18115 24.7704L6.26654 23.1847L6.77896 22.8897C7.03561 22.742 7.15326 22.4344 7.06061 22.1532C6.79006 21.3317 6.6781 20.4789 6.72771 19.6185C6.74475 19.3232 6.55225 19.0564 6.26662 18.9795L5.69303 18.825L6.16717 17.0562L6.74014 17.2094C7.02615 17.2861 7.32646 17.1511 7.45943 16.8866C7.84553 16.1185 8.36857 15.4365 9.01404 14.8593C9.2342 14.6625 9.28639 14.3382 9.13904 14.0822L8.84342 13.5686L10.4294 12.6532L10.7258 13.1654C10.8737 13.4208 11.1801 13.5379 11.4608 13.4459C12.2807 13.1773 13.1336 13.0653 13.9955 13.1128C14.2912 13.1297 14.5563 12.9368 14.633 12.6516L14.7876 12.078L16.5564 12.5522L16.4032 13.1251C16.3268 13.4107 16.4611 13.7106 16.7248 13.8439C17.4979 14.2346 18.1803 14.7584 18.7528 15.4006ZM11.2751 15.9525C9.04428 17.2415 8.27717 20.1057 9.56514 22.3373C10.4294 23.8349 12.0033 24.6729 13.6202 24.6729C14.4127 24.6729 15.2158 24.4715 15.9501 24.0476C18.1827 22.7591 18.9509 19.8948 17.6626 17.6625C16.3744 15.4304 13.509 14.6632 11.2751 15.9525ZM16.5809 18.2868C17.5249 19.9226 16.9619 22.0215 15.3259 22.9658C14.533 23.4233 13.6098 23.5453 12.7263 23.3087C11.8428 23.0722 11.1044 22.5055 10.647 21.713C9.70311 20.0775 10.2653 17.9786 11.8998 17.0341C12.4386 16.7232 13.0275 16.5754 13.6088 16.5754C14.7939 16.5754 15.9476 17.1896 16.581 18.2869L16.5809 18.2868Z" fill="black"/>
</g>
<defs>
<clipPath id="clip0_4058_13257">
<rect width="40" height="40" fill="white" transform="translate(0.333008)"/>
</clipPath>
</defs>
</svg>
