<svg width="32" height="32" viewBox="0 0 32 32" fill="none" xmlns="http://www.w3.org/2000/svg">
<g clip-path="url(#clip0_3652_4206)">
<mask id="mask0_3652_4206" style="mask-type:luminance" maskUnits="userSpaceOnUse" x="0" y="0" width="32" height="32">
<path d="M32 0H0V32H32V0Z" fill="white"/>
<path d="M2.5 13.1667V12.8126C2.5 7.12624 7.12619 2.50005 12.8125 2.50005C18.1551 2.50005 22.5615 6.58399 23.0747 11.7939L25.5804 14.0798C25.6093 13.7714 25.625 13.4668 25.625 13.1667V12.8126C25.625 5.74774 19.8773 5.34058e-05 12.8125 5.34058e-05C5.74769 5.34058e-05 0 5.74774 0 12.8126V13.1667C0 16.7397 2.0485 20.9034 6.08862 25.5419C9.0175 28.9046 11.9054 31.2492 12.0269 31.3474L12.8125 31.9821V28.7331C10.2793 26.5136 2.5 19.2045 2.5 13.1667Z" fill="white"/>
<path d="M24.25 26.9376H20.5V23.1876H24.25V26.9376Z" fill="white"/>
</mask>
<g mask="url(#mask0_3652_4206)">
<mask id="mask1_3652_4206" style="mask-type:luminance" maskUnits="userSpaceOnUse" x="0" y="0" width="32" height="32">
<path d="M0 1.90735e-06H32V32H0V1.90735e-06Z" fill="white"/>
</mask>
<g mask="url(#mask1_3652_4206)">
<path d="M2.5 13.1666V12.8124C2.5 7.12612 7.12619 2.49993 12.8125 2.49993C18.1551 2.49993 22.5615 6.58387 23.0747 11.7938L25.5804 14.0797C25.6093 13.7713 25.625 13.4667 25.625 13.1666V12.8124C25.625 5.74762 19.8773 -6.86646e-05 12.8125 -6.86646e-05C5.74769 -6.86646e-05 0 5.74762 0 12.8124V13.1666C0 16.7396 2.0485 20.9032 6.08862 25.5417C9.0175 28.9044 11.9054 31.2491 12.0269 31.3473L12.8125 31.9819V28.733C10.2793 26.5134 2.5 19.2044 2.5 13.1666Z" fill="black"/>
<path d="M24.25 26.9375H20.5V23.1875H24.25V26.9375Z" fill="black"/>
<path d="M8.75 12.8125C8.75 10.5689 10.5689 8.75 12.8125 8.75C15.0561 8.75 16.875 10.5689 16.875 12.8125C16.875 15.0561 15.0561 16.875 12.8125 16.875C10.5689 16.875 8.75 15.0561 8.75 12.8125Z" stroke="black" stroke-width="2.5" stroke-miterlimit="10" stroke-linecap="round" stroke-linejoin="round"/>
<path d="M28.4404 21.8123V28.6108C28.4404 29.7922 27.4826 30.75 26.3011 30.75H18.3858C17.2044 30.75 16.2466 29.7922 16.2466 28.6108V21.8123" stroke="black" stroke-width="2.5" stroke-miterlimit="10"/>
<path d="M30.3125 23.4727L22.3438 16.203L14.375 23.4727" stroke="black" stroke-width="2.5" stroke-miterlimit="10" stroke-linecap="square"/>
</g>
</g>
</g>
<defs>
<clipPath id="clip0_3652_4206">
<rect width="32" height="32" fill="white"/>
</clipPath>
</defs>
</svg>
