<svg width="32" height="32" viewBox="0 0 32 32" fill="none" xmlns="http://www.w3.org/2000/svg">
<g clip-path="url(#clip0_3652_4254)">
<path d="M9.96866 6.97176H8.13554V5.13926C8.13554 4.79457 7.8561 4.51514 7.51141 4.51514C7.16673 4.51514 6.88729 4.79457 6.88729 5.13926V6.97176H5.05479C4.7101 6.97176 4.43066 7.2512 4.43066 7.59589C4.43066 7.94057 4.7101 8.22001 5.05479 8.22001H6.88729V10.0531C6.88729 10.3978 7.16673 10.6773 7.51141 10.6773C7.8561 10.6773 8.13554 10.3978 8.13554 10.0531V8.22001H9.96866C10.3134 8.22001 10.5928 7.94057 10.5928 7.59589C10.5928 7.2512 10.3134 6.97176 9.96866 6.97176Z" fill="black"/>
<path d="M23.7441 6.9718H18.8302C18.4855 6.9718 18.2061 7.25124 18.2061 7.59593C18.2061 7.94061 18.4855 8.22005 18.8302 8.22005H23.7441C24.0887 8.22005 24.3682 7.94061 24.3682 7.59593C24.3682 7.25124 24.0887 6.9718 23.7441 6.9718Z" fill="black"/>
<path d="M8.39435 21.3711L9.69029 20.0752C9.9341 19.8313 9.93404 19.4362 9.69023 19.1925C9.44648 18.9488 9.05129 18.9489 8.8076 19.1926L7.51179 20.4885L6.21591 19.1926C5.97216 18.9488 5.57698 18.9488 5.33323 19.1926C5.08948 19.4363 5.08948 19.8315 5.33323 20.0753L6.6291 21.3711L5.33329 22.667C5.08948 22.9106 5.08941 23.3058 5.33316 23.5496C5.45504 23.6715 5.61479 23.7325 5.77454 23.7325C5.93423 23.7325 6.09391 23.6715 6.21579 23.5497L7.51173 22.2538L8.8076 23.5496C8.92948 23.6715 9.08923 23.7325 9.24891 23.7325C9.4086 23.7325 9.56841 23.6715 9.69023 23.5496C9.93398 23.3059 9.93398 22.9107 9.69023 22.667L8.39435 21.3711Z" fill="black"/>
<path d="M28.7981 13.909V2.94548C28.7981 1.36785 27.5146 0.0843506 25.937 0.0843506H14.3991H2.86112C1.2835 0.0843506 0 1.36791 0 2.94548V14.4834V26.0214C0 27.599 1.2835 28.8825 2.86112 28.8825H14.1596C16.1321 30.8407 18.7385 31.9157 21.5291 31.9157C27.3028 31.9157 32.0001 27.2185 32.0001 21.4448C32 18.6071 30.8364 15.8766 28.7981 13.909ZM15.0232 1.3326H25.937C26.8263 1.3326 27.5498 2.0561 27.5498 2.94541V12.8784C25.7956 11.6435 23.7013 10.9744 21.529 10.9744C19.127 10.9744 16.864 11.7704 15.0231 13.2392V1.3326H15.0232ZM1.24825 2.94548C1.24825 2.05616 1.97175 1.33266 2.86106 1.33266H13.7749V13.8593H1.24825V2.94548ZM2.86112 27.6342C1.97181 27.6342 1.24831 26.9107 1.24831 26.0214V15.1075H13.1946C11.8106 16.922 11.0588 19.1328 11.0588 21.4448C11.0588 23.695 11.7703 25.848 13.0834 27.6342H2.86112ZM21.5291 30.6674C18.9919 30.6674 16.6277 29.6585 14.8718 27.8264C13.2179 26.1017 12.3071 23.8354 12.3071 21.4447C12.3071 19.0649 13.2107 16.8064 14.8518 15.085C16.6091 13.2392 18.9806 12.2227 21.5291 12.2227C23.8393 12.2227 26.0495 13.0809 27.7528 14.6392C29.6587 16.383 30.7518 18.8635 30.7518 21.4447C30.7517 26.5302 26.6144 30.6674 21.5291 30.6674Z" fill="black"/>
<path d="M21.5288 13.6488C17.2301 13.6488 13.7329 17.1461 13.7329 21.4447C13.7329 25.7434 17.2302 29.2407 21.5288 29.2407C25.8275 29.2407 29.3248 25.7434 29.3248 21.4447C29.3248 17.1461 25.8275 13.6488 21.5288 13.6488ZM21.5288 27.9924C17.9184 27.9924 14.9812 25.0551 14.9812 21.4447C14.9812 17.8344 17.9185 14.8971 21.5288 14.8971C25.1392 14.8971 28.0765 17.8343 28.0765 21.4447C28.0765 25.0552 25.1393 27.9924 21.5288 27.9924Z" fill="black"/>
<path d="M23.994 20.8207H22.153V17.0682C22.153 16.7235 21.8736 16.4441 21.5289 16.4441C21.1842 16.4441 20.9048 16.7235 20.9048 17.0682V21.4448C20.9048 21.7895 21.1842 22.0689 21.5289 22.0689H23.994C24.3387 22.0689 24.6182 21.7895 24.6182 21.4448C24.6182 21.1 24.3388 20.8207 23.994 20.8207Z" fill="black"/>
<path d="M21.0716 25.6148C19.8285 25.6148 18.6871 24.9355 18.0931 23.8418C17.9286 23.539 17.5496 23.427 17.2467 23.5914C16.9438 23.756 16.8317 24.1349 16.9962 24.4378C17.8089 25.9337 19.3706 26.863 21.0717 26.863C21.4164 26.863 21.6958 26.5836 21.6958 26.2389C21.6958 25.8942 21.4164 25.6148 21.0716 25.6148Z" fill="black"/>
<path d="M17.0638 21.6117C16.2606 21.6117 16.2593 22.8599 17.0638 22.8599C17.867 22.8599 17.8683 21.6117 17.0638 21.6117Z" fill="black"/>
</g>
<defs>
<clipPath id="clip0_3652_4254">
<rect width="32" height="32" fill="white"/>
</clipPath>
</defs>
</svg>
