<svg width="32" height="32" viewBox="0 0 32 32" fill="none" xmlns="http://www.w3.org/2000/svg">
<g clip-path="url(#clip0_3652_4280)">
<path d="M12.25 22.625H4.75C4.23225 22.625 3.8125 23.0447 3.8125 23.5625V27.3125C3.8125 27.8303 4.23225 28.25 4.75 28.25H12.25C12.7678 28.25 13.1875 27.8303 13.1875 27.3125V23.5625C13.1875 23.0447 12.7678 22.625 12.25 22.625ZM11.3125 26.375H5.6875V24.5H11.3125V26.375Z" fill="black"/>
<path d="M27.25 26.375H21.625C21.1072 26.375 20.6875 26.7947 20.6875 27.3125C20.6875 27.8303 21.1072 28.25 21.625 28.25H27.25C27.7678 28.25 28.1875 27.8303 28.1875 27.3125C28.1875 26.7947 27.7678 26.375 27.25 26.375Z" fill="black"/>
<path d="M27.9129 19.1496C27.5468 18.7835 26.9532 18.7835 26.5872 19.1496L23.5 22.2367L22.2879 21.0246C21.9218 20.6585 21.3282 20.6585 20.9621 21.0246C20.596 21.3908 20.596 21.9843 20.9621 22.3505L22.8371 24.2255C23.2032 24.5916 23.7968 24.5916 24.1629 24.2255L27.9129 20.4755C28.279 20.1093 28.279 19.5158 27.9129 19.1496Z" fill="black"/>
<path d="M31.1071 6.49288L28.6057 1.55275C28.1259 0.594875 27.1626 0 26.0911 0C25.3704 0 6.99775 0 5.90887 0C4.83675 0 3.87281 0.59575 3.39544 1.5505L0.890813 6.49713C0.306563 7.66556 0 8.97219 0 10.2706V29.1875C0 30.7383 1.26169 32 2.8125 32H29.1875C30.7383 32 32 30.7383 32 29.1875V10.2706C32 8.95781 31.6869 7.65275 31.1071 6.49288ZM26.0911 1.875C26.4485 1.875 26.7698 2.07356 26.9297 2.39325C26.9304 2.39469 26.9311 2.39606 26.9318 2.3975C29.6332 7.73269 29.4517 7.36856 29.5394 7.5625H20.4835L19.0734 1.875H26.0911ZM14.7171 1.875H17.1416L18.5517 7.5625H13.4245L14.7171 1.875ZM13.1875 9.4375H18.8125V16.4206L16.4193 15.2239C16.1553 15.092 15.8447 15.092 15.5808 15.2239L13.1875 16.4206V9.4375ZM5.07031 2.39325C5.23019 2.07356 5.5515 1.875 5.90887 1.875H12.7942L11.5016 7.5625H2.46031C2.54944 7.36575 2.37212 7.72219 5.07031 2.39325ZM30.125 29.1875C30.125 29.7044 29.7044 30.125 29.1875 30.125H2.8125C2.29556 30.125 1.875 29.7044 1.875 29.1875V10.2706C1.875 9.99219 1.89375 9.71375 1.92931 9.4375H11.3125V17.9375C11.3125 18.6327 12.046 19.0876 12.6692 18.7761L16 17.1107L19.3307 18.7761C19.9506 19.0859 20.6875 18.6371 20.6875 17.9375V9.4375H30.0707C30.1063 9.71381 30.125 9.99219 30.125 10.2706V29.1875Z" fill="black"/>
</g>
<defs>
<clipPath id="clip0_3652_4280">
<rect width="32" height="32" fill="white"/>
</clipPath>
</defs>
</svg>
