<svg width="32" height="32" viewBox="0 0 32 32" fill="none" xmlns="http://www.w3.org/2000/svg">
<g clip-path="url(#clip0_3652_4321)">
<path d="M29.7528 13.9515C29.6303 10.461 28.2168 7.19704 25.7348 4.71504C23.1333 2.11304 19.6758 0.680542 15.9998 0.680542C8.57529 0.680542 2.50879 6.59004 2.24729 13.9515C1.11429 14.455 0.321289 15.589 0.321289 16.907V20.538C0.321289 22.321 1.77179 23.772 3.55529 23.772C4.70929 23.772 5.64779 22.8335 5.64779 21.6795V15.765C5.64779 14.6815 4.81679 13.798 3.76029 13.693C4.15029 7.27954 9.48929 2.18054 15.9998 2.18054C19.2758 2.18054 22.3563 3.45754 24.6748 5.77604C26.8038 7.90504 28.0498 10.68 28.2373 13.6935C27.1818 13.7995 26.3523 14.6825 26.3523 15.765V21.679C26.3523 22.7715 27.1963 23.6605 28.2653 23.753V25.2475C28.2653 26.9305 26.8958 28.2995 25.2128 28.2995H22.9523C22.8413 27.9825 22.6673 27.6895 22.4233 27.4465C21.9958 27.017 21.4258 26.7805 20.8188 26.7805H18.4888C18.1543 26.7805 17.8333 26.8515 17.5393 26.9885C16.7373 27.357 16.2193 28.166 16.2193 29.0495C16.2193 29.6565 16.4558 30.2265 16.8843 30.653C17.3128 31.0825 17.8828 31.319 18.4888 31.319H20.8188C21.7848 31.319 22.6363 30.6945 22.9538 29.7995H25.2128C27.7233 29.7995 29.7653 27.7575 29.7653 25.2475V23.486C30.8913 22.9795 31.6783 21.8495 31.6783 20.537V16.906C31.6783 15.589 30.8853 14.455 29.7528 13.9515ZM4.14729 15.765V21.679C4.14729 22.0055 3.88179 22.2715 3.55479 22.2715C2.59879 22.2715 1.82079 21.4935 1.82079 20.5375V16.9065C1.82079 15.95 2.59879 15.1725 3.55479 15.1725C3.88179 15.1725 4.14729 15.4385 4.14729 15.765ZM21.5713 29.2105C21.4968 29.5635 21.1798 29.82 20.8183 29.82H18.4883C18.2833 29.82 18.0908 29.74 17.9438 29.593C17.7988 29.4485 17.7188 29.2555 17.7188 29.0505C17.7188 28.751 17.8943 28.4775 18.1693 28.351C18.2673 28.305 18.3748 28.2815 18.4883 28.2815H20.8183C21.0233 28.2815 21.2158 28.361 21.3623 28.508C21.5073 28.6525 21.5873 28.8455 21.5873 29.0505C21.5878 29.1055 21.5818 29.1605 21.5713 29.2105ZM30.1783 20.5375C30.1783 21.4935 29.4003 22.2715 28.4443 22.2715C28.1178 22.2715 27.8518 22.006 27.8518 21.679V15.765C27.8518 15.4385 28.1173 15.1725 28.4443 15.1725C29.4003 15.1725 30.1783 15.9505 30.1783 16.9065V20.5375Z" fill="black"/>
<path d="M20.8563 20.7961C22.6088 20.7961 24.0343 19.3701 24.0343 17.6181V11.1426C24.0343 10.2956 23.7033 9.4976 23.1023 8.8966C22.5013 8.2956 21.7038 7.9646 20.8563 7.9646H11.1433C9.39083 7.9646 7.96533 9.3901 7.96533 11.1426V17.6181C7.96533 19.3706 9.39083 20.7961 11.1433 20.7961H11.2028V22.4741C11.2028 23.1141 11.5843 23.6821 12.1743 23.9216C12.3648 23.9981 12.5628 24.0361 12.7588 24.0361C13.1673 24.0361 13.5653 23.8741 13.8568 23.5726L16.6483 20.7961H20.8563ZM15.8108 19.5141L12.7898 22.5186C12.7763 22.5326 12.7663 22.5431 12.7378 22.5306C12.7033 22.5166 12.7033 22.4941 12.7033 22.4741V20.0461C12.7033 19.6321 12.3678 19.2961 11.9533 19.2961H11.1438C10.2183 19.2961 9.46583 18.5431 9.46583 17.6181V11.1426C9.46583 10.2171 10.2183 9.4646 11.1438 9.4646H20.8568C21.3038 9.4646 21.7243 9.6396 22.0423 9.9571C22.3603 10.2751 22.5348 10.6961 22.5348 11.1426V17.6181C22.5348 18.5436 21.7818 19.2961 20.8568 19.2961H16.3398C16.1413 19.2961 15.9513 19.3746 15.8108 19.5141Z" fill="black"/>
<path d="M12.3565 13.3936C11.7465 13.3936 11.25 13.8906 11.25 14.5001C11.25 15.1096 11.747 15.6066 12.3565 15.6066C12.967 15.6066 13.464 15.1096 13.464 14.5001C13.464 13.8906 12.9675 13.3936 12.3565 13.3936Z" fill="black"/>
<path d="M15.9991 13.3936C15.3891 13.3936 14.8926 13.8906 14.8926 14.5001C14.8926 15.1096 15.3896 15.6066 15.9991 15.6066C16.6101 15.6066 17.1066 15.1096 17.1066 14.5001C17.1066 13.8906 16.6101 13.3936 15.9991 13.3936Z" fill="black"/>
<path d="M19.6421 13.3936C19.0321 13.3936 18.5356 13.8906 18.5356 14.5001C18.5356 15.1096 19.0326 15.6066 19.6421 15.6066C20.2526 15.6066 20.7496 15.1096 20.7496 14.5001C20.7496 13.8906 20.2526 13.3936 19.6421 13.3936Z" fill="black"/>
</g>
<defs>
<clipPath id="clip0_3652_4321">
<rect width="32" height="32" fill="white"/>
</clipPath>
</defs>
</svg>
