<svg width="80" height="80" viewBox="0 0 80 80" fill="none" xmlns="http://www.w3.org/2000/svg">
<g clip-path="url(#clip0_3621_326)">
<path d="M65.6112 41.9296C65.6112 41.8021 65.5759 41.7112 65.5044 41.6519C65.4245 41.5879 65.2868 41.5538 65.095 41.5538H64.8195V42.31H65.152C65.4592 42.31 65.6109 42.1826 65.6109 41.9296H65.6112ZM66.0408 43.5059H65.662L65.4204 42.9741C65.2977 42.7074 65.1665 42.574 65.0234 42.574H64.8195V43.5059H64.5072V41.2883H65.1327C65.4106 41.2883 65.6196 41.3485 65.7626 41.4738C65.8844 41.5817 65.9449 41.7198 65.9449 41.8916C65.9449 42.0445 65.8954 42.1731 65.7956 42.2798C65.6985 42.3874 65.5587 42.4603 65.3803 42.4979V42.5074C65.5041 42.5364 65.6279 42.6721 65.7484 42.9169L66.0408 43.5071V43.5059ZM66.7325 42.4191C66.7325 41.9826 66.5835 41.6143 66.286 41.3221C65.9874 41.0303 65.6231 40.8836 65.1935 40.8836C64.75 40.8836 64.381 41.0303 64.0886 41.3248C63.7959 41.6205 63.6501 41.9865 63.6501 42.4191C63.6501 42.8615 63.8021 43.231 64.1031 43.5255C64.4006 43.8197 64.7649 43.9652 65.1932 43.9652C65.6196 43.9652 65.9835 43.8185 66.2837 43.5205C66.5835 43.2271 66.7328 42.8588 66.7328 42.4191H66.7325ZM66.9427 42.4093C66.9427 42.8991 66.7741 43.3101 66.4354 43.6405C66.0966 43.9738 65.6813 44.1397 65.1849 44.1397C64.6847 44.1397 64.2694 43.9762 63.9392 43.655C63.6088 43.329 63.4449 42.9195 63.4449 42.4226C63.4449 41.9367 63.6127 41.5284 63.9476 41.1929C64.2827 40.8581 64.7004 40.6913 65.1995 40.6913C65.6887 40.6913 66.099 40.8513 66.4315 41.1698C66.7729 41.497 66.9427 41.9088 66.9427 42.4093ZM19.4561 48.5933H18.379V42.4419C18.379 41.9559 18.4111 41.3648 18.4681 40.667H18.4443C18.3434 41.075 18.2511 41.3707 18.1697 41.5538L15.0398 48.5933H14.5152L11.379 41.6048C11.2908 41.4095 11.1982 41.0957 11.1047 40.6667H11.0815C11.1142 41.0341 11.1329 41.6291 11.1329 42.454V48.5933H10.0947V39.4328H11.5153L14.3308 45.8201C14.5434 46.3013 14.6806 46.6676 14.7474 46.9171H14.7919C14.9754 46.4163 15.1208 46.0409 15.2313 45.7935L18.1077 39.4328H19.4555V48.593L19.4561 48.5933ZM22.7683 48.593H21.7218V42.0516H22.7683V48.593ZM22.9494 39.7066C22.9494 39.8992 22.8811 40.0604 22.7466 40.1926C22.6142 40.3247 22.4504 40.3911 22.2586 40.3911C22.0716 40.3911 21.9089 40.3274 21.7753 40.2C21.6417 40.0714 21.5764 39.9078 21.5764 39.7066C21.5764 39.5176 21.6423 39.3564 21.7753 39.2257C21.8386 39.1626 21.914 39.1128 21.9971 39.0795C22.0801 39.0461 22.1691 39.0299 22.2586 39.0316C22.4504 39.0316 22.6142 39.0948 22.7466 39.2257C22.8814 39.3564 22.9494 39.5176 22.9494 39.7066ZM29.3088 48.2902C28.8062 48.598 28.2062 48.7506 27.513 48.7506C26.5734 48.7506 25.8169 48.4395 25.2389 47.8176C24.6778 47.2143 24.3952 46.435 24.3952 45.48C24.3952 44.4088 24.7025 43.5412 25.3214 42.8819C25.9372 42.2214 26.7651 41.8919 27.8069 41.8919C28.3763 41.8919 28.8816 42.0033 29.3233 42.2238V43.2988C28.8341 42.956 28.3169 42.7862 27.7618 42.7862C27.0941 42.7862 26.5514 43.0188 26.1301 43.4831C25.6919 43.9581 25.4696 44.5931 25.4696 45.3854C25.4696 46.1467 25.6724 46.7488 26.0755 47.1935C26.4799 47.6359 27.0178 47.8576 27.6964 47.8576C28.2694 47.8576 28.8062 47.6697 29.3085 47.2955L29.3088 48.2902ZM34.3147 43.113C34.13 42.9711 33.864 42.9021 33.5131 42.9021C33.0871 42.9021 32.7288 43.0923 32.4387 43.4763C32.1098 43.9054 31.9459 44.4992 31.9459 45.2577V48.5927H30.8968V42.0514H31.9459V43.4002H31.9711C32.1255 42.9225 32.3633 42.5554 32.6813 42.2949C32.9787 42.0573 33.3151 41.9373 33.6853 41.9373C33.9647 41.9373 34.1722 41.9675 34.3144 42.0265L34.3147 43.113ZM40.161 45.3342C40.161 44.4968 39.9716 43.8571 39.5928 43.4182C39.225 42.9966 38.7111 42.7856 38.0497 42.7856C37.3977 42.7856 36.8743 42.9989 36.4834 43.4256C36.0695 43.8811 35.8629 44.5247 35.8629 45.3597C35.8629 46.1425 36.0597 46.7568 36.4566 47.1953C36.8515 47.6365 37.3829 47.857 38.0497 47.857C38.7393 47.857 39.2674 47.633 39.629 47.187C39.9838 46.7508 40.161 46.1339 40.161 45.3342ZM41.2366 45.2971C41.2366 46.3396 40.9418 47.1769 40.354 47.8045C39.7641 48.4348 38.97 48.7498 37.9719 48.7498C36.9886 48.7498 36.2055 48.4348 35.6313 47.8045C35.069 47.1974 34.7861 46.3953 34.7861 45.3979C34.7861 44.26 35.1056 43.3827 35.7465 42.7598C36.3391 42.182 37.1317 41.891 38.1251 41.891C39.1024 41.891 39.8659 42.1951 40.4161 42.7975C40.9611 43.4031 41.2366 44.2369 41.2366 45.2971ZM46.4391 46.843C46.4391 47.3784 46.2387 47.822 45.8367 48.1758C45.3985 48.5586 44.7964 48.7503 44.0388 48.7503C43.4184 48.7503 42.8745 48.6206 42.4131 48.3563V47.2306C42.9267 47.6475 43.4938 47.8573 44.1166 47.8573C44.947 47.8573 45.3635 47.5521 45.3635 46.9434C45.3635 46.6877 45.272 46.4756 45.0877 46.3123C44.9033 46.1449 44.545 45.9449 44.0121 45.7108C43.4632 45.4711 43.0722 45.2251 42.8418 44.9694C42.5648 44.6663 42.4253 44.2728 42.4253 43.788C42.4253 43.2449 42.6426 42.793 43.0725 42.433C43.5033 42.0721 44.0569 41.8913 44.7368 41.8913C45.2578 41.8913 45.7239 41.9933 46.138 42.198V43.2523C45.7058 42.9409 45.2118 42.7856 44.6507 42.7856C44.3033 42.7856 44.0243 42.8721 43.8165 43.0404C43.6066 43.2123 43.5009 43.4316 43.5009 43.6994C43.5009 43.9892 43.5894 44.2144 43.7645 44.3756C43.9198 44.5247 44.2499 44.7066 44.7478 44.9185C45.3074 45.1525 45.7117 45.3949 45.9581 45.6432C46.2776 45.9573 46.4391 46.357 46.4391 46.843ZM52.8501 45.3342C52.8501 44.4968 52.6607 43.8571 52.2807 43.4182C51.914 42.9966 51.3989 42.7856 50.7387 42.7856C50.0868 42.7856 49.5634 42.9989 49.17 43.4256C48.7574 43.8811 48.5519 44.5247 48.5519 45.3597C48.5519 46.1425 48.7487 46.7568 49.1421 47.1953C49.5414 47.6365 50.0734 47.857 50.7387 47.857C51.4295 47.857 51.9565 47.633 52.3181 47.187C52.6725 46.7508 52.8501 46.1339 52.8501 45.3342ZM53.928 45.2971C53.928 46.3396 53.6306 47.1769 53.0419 47.8045C52.454 48.4348 51.6602 48.7498 50.6621 48.7498C49.6774 48.7498 48.8942 48.4348 48.3201 47.8045C47.7581 47.1974 47.4751 46.3953 47.4751 45.3979C47.4751 44.26 47.7967 43.3827 48.4341 42.7598C49.0266 42.182 49.8208 41.891 50.815 41.891C51.7926 41.891 52.5547 42.1951 53.1039 42.7975C53.6501 43.4031 53.928 44.2369 53.928 45.2971ZM58.5504 39.829C58.344 39.7149 58.1149 39.6569 57.8536 39.6569C57.1191 39.6569 56.7549 40.1185 56.7549 41.0433V42.0514H58.2906V42.9385H56.7549V48.5927H55.7045V42.9382H54.5901V42.0511H55.7045V40.9909C55.7045 40.2708 55.9257 39.706 56.3749 39.2989C56.7596 38.9451 57.2308 38.7694 57.7904 38.7694C58.1149 38.7694 58.3672 38.8082 58.5504 38.8835V39.829ZM62.6909 48.5269C62.4433 48.6689 62.1129 48.7391 61.705 48.7391C60.5614 48.7391 59.9896 48.0955 59.9896 46.8086V42.9394H58.8654V42.0511H59.9896V40.4551C60.3245 40.3496 60.673 40.2347 61.0409 40.1158V42.0511H62.6909V42.9394H61.0409V46.6305C61.0409 47.0691 61.1127 47.3832 61.2629 47.5648C61.4149 47.7527 61.6625 47.8448 62.0122 47.8448C62.2732 47.8448 62.4991 47.7749 62.6909 47.6338V48.5269Z" fill="black"/>
<path d="M5.98205 74.1229C5.98205 74.6355 5.79887 75.0788 5.42867 75.4533C5.05936 75.8267 4.61138 76.0146 4.08561 76.0146C3.57202 76.0146 3.13502 75.8267 2.77698 75.4533C2.41866 75.0788 2.24023 74.6355 2.24023 74.1229C2.24023 73.5955 2.41866 73.151 2.77698 72.7827C3.13502 72.4129 3.57202 72.2301 4.08561 72.2301C4.61138 72.2301 5.05936 72.4156 5.42867 72.7901C5.79887 73.1643 5.98205 73.6091 5.98205 74.1229ZM29.4699 75.6294H26.0487L13.6295 56.4865C13.3308 56.0092 13.0787 55.5043 12.8767 54.9788H12.7745C12.863 55.4915 12.9081 56.5917 12.9081 58.2774V75.6294H10.0878V51.6125H13.7483L25.7961 70.4537C26.2758 71.2013 26.6036 71.7367 26.7698 72.0594H26.8369C26.725 71.3684 26.6668 70.1906 26.6668 68.528V51.6125H29.4702L29.4699 75.6294ZM47.5511 75.6294H34.7979V51.6125H46.9974V54.1575H37.6162V62.1466H46.3093V64.6928H37.6159V73.0832H47.5508V75.6294H47.5511ZM66.8952 54.1578H59.964V75.6296H57.1446V54.1578H50.2004V51.6116H66.8955L66.8952 54.1578Z" fill="black"/>
<path d="M28.514 10.1304C31.2345 18.4348 32.2653 33.2491 40.2215 33.2491C40.8272 33.2491 41.4393 33.1899 42.0535 33.0731C34.8211 31.3901 33.9637 16.7369 29.5507 9.14868C29.1986 9.46914 28.8532 9.79643 28.514 10.1304Z" fill="url(#paint0_linear_3621_326)"/>
<path d="M29.5508 9.14867C33.9641 16.7369 34.8212 31.3901 42.0537 33.0731C42.6219 32.9691 43.1913 32.8115 43.7619 32.6126C37.2701 29.4383 35.4758 15.2088 30.4637 8.3587C30.1543 8.61622 29.8499 8.87969 29.5508 9.14897" fill="url(#paint1_linear_3621_326)"/>
<path d="M35.9093 4.6356C35.3049 4.6356 34.6915 4.69486 34.0761 4.8116C32.4662 5.11443 30.8307 5.80632 29.1821 6.85319C29.6325 7.29676 30.0609 7.80434 30.464 8.35845C32.1408 6.96964 33.8066 5.94351 35.4664 5.32659C36.0721 5.10037 36.6964 4.92717 37.3322 4.80894C36.867 4.69213 36.389 4.63389 35.9093 4.6356Z" fill="#14559A"/>
<path d="M48.8292 29.6863C49.5208 29.1348 50.1869 28.5521 50.8254 27.9401C48.0609 19.6742 47.0714 4.64801 39.0594 4.64801C38.4864 4.64801 37.9084 4.70135 37.3315 4.80802C44.6296 6.61966 45.5645 22.4676 48.8295 29.6863" fill="url(#paint2_linear_3621_326)"/>
<path d="M37.3321 4.80834C36.8669 4.69168 36.3889 4.63355 35.9092 4.63529L39.0599 4.64685C38.4869 4.64685 37.9089 4.70048 37.3321 4.80834Z" fill="#3092C4"/>
<path d="M48.6894 31.4422C48.3762 31.1441 48.0787 30.817 47.786 30.468C46.4382 31.4203 45.0957 32.1427 43.7612 32.6127C44.2375 32.8461 44.7419 33.0176 45.2619 33.1229C45.6827 33.2079 46.111 33.2502 46.5403 33.2491C48.0374 33.2491 49.2211 33.0722 50.2289 32.5898C49.6738 32.2906 49.1652 31.9024 48.6894 31.4422Z" fill="#1969BC"/>
<path d="M35.4658 5.32777C42.0024 8.74009 42.5706 24.1933 47.7864 30.468C48.1414 30.2177 48.4889 29.957 48.8285 29.6863C45.5634 22.4676 44.6298 6.6185 37.3332 4.80804C36.6969 4.92757 36.0722 5.10146 35.4658 5.32777Z" fill="url(#paint3_linear_3621_326)"/>
<path d="M30.4634 8.35872C35.4752 15.2088 37.2698 29.438 43.7616 32.6127C45.096 32.1427 46.4388 31.4203 47.7863 30.468C42.5705 24.1933 42.0023 8.74008 35.4657 5.32776C33.8062 5.94349 32.1401 6.96962 30.4634 8.35843" fill="url(#paint4_linear_3621_326)"/>
<path d="M25.3072 9.93036C24.5217 11.7032 23.7192 14.0334 22.749 17.075C24.6784 14.362 26.6016 12.0241 28.514 10.1307C28.2507 9.32233 27.9678 8.57711 27.6629 7.91278C26.8419 8.54255 26.0556 9.21615 25.3075 9.93066" fill="url(#paint5_linear_3621_326)"/>
<path d="M28.359 7.40137C28.1243 7.56809 27.8923 7.73859 27.6631 7.9128C27.968 8.57683 28.2494 9.32205 28.513 10.1304C28.8528 9.79708 29.1984 9.4698 29.5497 9.14871C29.1795 8.51372 28.7862 7.92732 28.359 7.40137Z" fill="#2B74B1"/>
<path d="M29.1818 6.85345C28.9035 7.02997 28.6292 7.21254 28.3589 7.40103C28.7864 7.92698 29.1794 8.51338 29.5511 9.14956C29.8497 8.87927 30.154 8.61549 30.464 8.35841C30.0612 7.8046 29.6328 7.29673 29.1821 6.85315" fill="#125A9E"/>
<path d="M73.7684 4.00326C70.0714 18.2336 62.3497 29.6632 55.8757 32.5448H55.8638C55.746 32.5982 55.6293 32.6467 55.5141 32.6939C55.4981 32.7036 55.4835 32.7048 55.4714 32.7105C55.4375 32.7241 55.4061 32.7348 55.3719 32.7484C55.3559 32.7579 55.3416 32.7611 55.3271 32.7668C55.2725 32.7863 55.219 32.8026 55.1656 32.8239C55.1424 32.8337 55.1208 32.8396 55.0988 32.8474C55.0725 32.8574 55.0458 32.8661 55.0186 32.8734C54.9943 32.8829 54.9688 32.89 54.9409 32.9007C54.9177 32.9102 54.8934 32.9143 54.8717 32.9238C54.8242 32.9374 54.7808 32.949 54.7333 32.9653C54.7137 32.9653 54.6956 32.9759 54.6752 32.9813C54.6458 32.9908 54.6128 32.9976 54.5813 33.0065C54.5597 33.016 54.5416 33.0192 54.5184 33.024C54.4857 33.0334 54.4492 33.0423 54.4163 33.05L54.2925 33.0773C54.589 33.1864 54.9027 33.2414 55.2187 33.2397C61.3575 33.2397 67.5468 22.2596 77.7881 4H73.7669L73.7684 4.00326Z" fill="url(#paint6_linear_3621_326)"/>
<path d="M21.4159 5.21307C21.4197 5.21307 21.4248 5.20359 21.4269 5.20359C21.4319 5.20359 21.4393 5.20359 21.4417 5.19411H21.4494C21.4833 5.18226 21.5147 5.16892 21.5489 5.15618C21.5578 5.15618 21.5622 5.15618 21.5685 5.1467C21.5771 5.1467 21.5854 5.13692 21.594 5.13574C21.6302 5.12418 21.6667 5.11055 21.7009 5.09811H21.7065C21.7879 5.07381 21.8633 5.04359 21.9419 5.01544C21.9532 5.01544 21.9639 5.00595 21.9773 5.00595C22.0099 4.99529 22.0441 4.98373 22.0782 4.97603C22.0939 4.96625 22.1097 4.96625 22.1242 4.96121C22.1592 4.95084 22.1934 4.93899 22.226 4.93128C22.2409 4.93128 22.254 4.9215 22.2649 4.92062C22.3777 4.8895 22.4897 4.86046 22.6025 4.8335C22.6182 4.8335 22.6316 4.82372 22.6485 4.82283C22.6812 4.81335 22.7117 4.80802 22.7471 4.80328C22.7616 4.79379 22.7785 4.79379 22.7955 4.78876C22.8281 4.77928 22.8599 4.77809 22.8952 4.77039H22.9181C22.9863 4.75646 23.0555 4.7452 23.1235 4.73246H23.1648C23.1974 4.72298 23.2265 4.72179 23.2595 4.71587C23.2773 4.71587 23.2957 4.70638 23.3129 4.70638C23.3432 4.70638 23.3735 4.6966 23.4038 4.69275C23.4198 4.69275 23.4352 4.69275 23.4536 4.68297C23.5252 4.67349 23.5991 4.66964 23.6745 4.66371C23.4575 4.64194 23.2395 4.63057 23.0214 4.62964C16.1083 4.62964 6.58341 17.4323 2.29297 34.0121H3.11977C4.49281 31.5682 5.72633 29.256 6.85445 27.0856C9.85913 15.3419 15.9795 7.33318 21.4162 5.2113" fill="url(#paint7_linear_3621_326)"/>
<path d="M25.3071 9.93039C26.0551 9.21587 26.8413 8.54226 27.6622 7.91251C27.4953 7.54183 27.3081 7.18057 27.1014 6.83038C26.4691 7.59635 25.8911 8.60706 25.3071 9.93039Z" fill="#0D82CA"/>
<path d="M25.8752 5.31031C26.3264 5.6884 26.7311 6.20813 27.1013 6.83127C27.2179 6.68815 27.3358 6.556 27.4581 6.43244C26.9445 5.95389 26.39 5.56128 25.7876 5.26556C25.8119 5.2789 25.8363 5.28986 25.8615 5.30053C25.8615 5.30053 25.871 5.31031 25.8752 5.31031Z" fill="#0D82CA"/>
<path d="M6.854 27.0871C13.1578 14.9629 16.1444 7.28966 21.416 5.21252C15.9805 7.33589 9.85897 15.3446 6.8543 27.0871" fill="url(#paint8_linear_3621_326)"/>
<path d="M27.4579 6.43213C27.3353 6.55688 27.2189 6.68785 27.1011 6.83096C27.3078 7.18118 27.4954 7.54232 27.6631 7.91279C27.8922 7.73869 28.1242 7.56829 28.3589 7.40166C28.0817 7.05787 27.7806 6.7339 27.4579 6.43213Z" fill="#127BCA"/>
<path d="M9.71573 33.9591C9.67684 33.9689 9.63795 33.9689 9.60143 33.9727H9.57976C9.54681 33.9727 9.51267 33.9825 9.48239 33.9825H9.46665C9.38768 33.992 9.3099 33.992 9.23479 33.9979H9.21045C15.5906 33.8198 18.5068 30.6315 19.9544 26.0073C21.0543 22.5016 21.9574 19.5483 22.7491 17.0703C20.0767 20.8245 17.3923 25.2997 14.6934 30.313C13.3919 32.7291 11.413 33.7383 9.71543 33.9546" fill="url(#paint9_linear_3621_326)"/>
<path d="M9.71563 33.9567C11.4129 33.741 13.3918 32.7329 14.6933 30.315C17.3922 25.3032 20.0781 20.8269 22.7476 17.0726C23.7189 14.0295 24.5205 11.7005 25.3072 9.92767C19.9857 14.9833 14.6435 23.3897 9.71533 33.9543" fill="url(#paint10_linear_3621_326)"/>
<path d="M6.85383 27.0873C5.7257 29.2575 4.49219 31.5696 3.11914 34.0139H5.52412C5.82785 31.6809 6.27188 29.3683 6.85383 27.0885" fill="#05A1E6"/>
<path d="M23.4534 4.68923C23.4338 4.68923 23.4193 4.69871 23.4023 4.69871C23.3732 4.70849 23.343 4.70849 23.3124 4.71145C23.2946 4.71145 23.2774 4.71145 23.2589 4.72123C23.2263 4.73072 23.196 4.7316 23.1642 4.73783C23.1497 4.73783 23.1352 4.73783 23.123 4.74731C23.0538 4.75886 22.9858 4.77161 22.9181 4.78316H22.895C22.8596 4.79294 22.8279 4.79798 22.7952 4.80272C22.7783 4.8122 22.7614 4.8122 22.7454 4.81605C22.7127 4.82583 22.68 4.82968 22.6483 4.83561C22.6314 4.84509 22.618 4.84509 22.6023 4.84598C22.4894 4.87324 22.3775 4.90228 22.2647 4.93339C22.2528 4.93339 22.2404 4.94287 22.2258 4.94495C22.192 4.95443 22.159 4.96421 22.1237 4.97488C22.1092 4.98465 22.0922 4.98465 22.0777 4.98851C22.0439 4.99785 22.0102 5.00783 21.9767 5.01843C21.9637 5.01843 21.9527 5.02791 21.9405 5.02791C21.8627 5.05695 21.7862 5.08629 21.706 5.11029C21.6722 5.12096 21.6356 5.13459 21.5991 5.14733C21.5846 5.15681 21.5715 5.15918 21.5546 5.1657C21.5204 5.17637 21.4863 5.19 21.4548 5.20244C21.443 5.21222 21.4305 5.21311 21.4222 5.21815C16.1506 7.29529 13.1637 14.9683 6.86017 27.0924C6.27771 29.3721 5.83376 31.6849 5.53076 34.0181H5.86831C6.8189 34.0181 7.08728 34.0083 8.18096 34.0083H9.2411C9.31621 33.9988 9.394 33.9988 9.47267 33.9926H9.48751C9.52017 33.9926 9.55282 33.9831 9.58459 33.9831H9.60775C9.64278 33.9831 9.68286 33.9736 9.72175 33.9695C14.6499 23.4048 19.9918 14.9985 25.3136 9.94282C25.8985 8.6198 26.4753 7.60908 27.1067 6.8443C26.7374 6.22146 26.3331 5.70054 25.8815 5.32245C25.8815 5.32245 25.8694 5.32245 25.8685 5.31267C25.8426 5.3023 25.8186 5.28956 25.7931 5.27711C25.7675 5.26319 25.7456 5.25252 25.7189 5.23918C25.694 5.22875 25.6698 5.21708 25.6461 5.20422C25.6146 5.19444 25.5891 5.18081 25.5612 5.16837C25.5381 5.15859 25.5176 5.14881 25.4944 5.13933C25.4474 5.12111 25.4009 5.10164 25.3549 5.08095C25.3341 5.07147 25.3148 5.06614 25.2955 5.05873C25.2602 5.0459 25.2252 5.03206 25.1907 5.01725C25.1738 5.00747 25.1545 5.0054 25.1349 4.99858C25.0853 4.98199 25.0366 4.9645 24.9906 4.9491H24.9784C24.9226 4.93072 24.868 4.91709 24.811 4.90169C24.7977 4.89191 24.7867 4.89191 24.7733 4.88983C24.7234 4.8765 24.6798 4.86317 24.6326 4.85042C24.6207 4.85042 24.6094 4.84065 24.5999 4.84065C24.4838 4.81096 24.3667 4.78546 24.2487 4.7642C24.2369 4.7642 24.2247 4.75442 24.2125 4.75442C24.1623 4.74445 24.1117 4.73635 24.0608 4.73012C24.0483 4.72064 24.0412 4.72064 24.0305 4.72064C23.9707 4.7115 23.9108 4.70369 23.8506 4.69723H23.8191C23.7705 4.68775 23.7256 4.68686 23.6808 4.68182C23.6042 4.69131 23.5315 4.69545 23.4596 4.70227" fill="url(#paint11_linear_3621_326)"/>
<path d="M59.3276 11.8812C58.1149 15.7591 57.1325 18.958 56.2778 21.5902C59.6058 17.0193 62.8839 11.2691 66.0055 4.63348C62.3644 5.77487 60.4216 8.38774 59.3276 11.8812Z" fill="url(#paint12_linear_3621_326)"/>
<path d="M56.3836 32.3024C56.2138 32.3889 56.0437 32.471 55.876 32.5448C62.3499 29.6632 70.0716 18.2336 73.7686 4.00323H73.0193C64.5257 19.1471 61.7939 29.2851 56.3836 32.3024Z" fill="url(#paint13_linear_3621_326)"/>
<path d="M52.1562 31.0304C53.5646 29.3144 54.712 26.3976 56.2783 21.5902C54.4715 24.0674 52.6529 26.1964 50.8327 27.933C50.8327 27.9425 50.8327 27.9425 50.8232 27.9484C51.2202 29.1361 51.656 30.1841 52.1527 31.0301" fill="#079AE1"/>
<path d="M52.1564 31.0304C51.677 31.6141 51.1693 32.0592 50.6047 32.3887C50.4809 32.4604 50.3559 32.528 50.2285 32.5902C50.8411 32.9213 51.5115 33.1322 52.2036 33.2115C52.3105 33.2222 52.4162 33.232 52.5266 33.2397H52.5462C52.5958 33.2397 52.648 33.2397 52.7015 33.2492H53.2284C53.2477 33.2492 53.2679 33.2492 53.2875 33.2397C53.3252 33.2397 53.365 33.2397 53.4039 33.2299H53.4615C53.5013 33.2299 53.5449 33.2204 53.5877 33.2163H53.5972C53.6099 33.2163 53.6236 33.2068 53.6361 33.2068C53.6806 33.197 53.7275 33.1932 53.7708 33.1864H53.8109C53.8602 33.1769 53.9116 33.1707 53.9623 33.1612H53.987C54.0888 33.1416 54.1882 33.1226 54.2892 33.0972C53.4538 32.792 52.7543 32.0719 52.1523 31.0467" fill="#1969BC"/>
<path d="M40.2212 33.2491C40.8271 33.2491 41.439 33.1898 42.0535 33.0722C42.6217 32.9694 43.1911 32.8114 43.7617 32.6129C44.2376 32.8462 44.7414 33.0176 45.2609 33.1232C45.6822 33.2081 46.111 33.2503 46.5408 33.2491H40.2212Z" fill="#1E5CB3"/>
<path d="M46.5408 33.2491C48.0367 33.2491 49.2216 33.0722 50.228 32.5898C50.8406 32.9211 51.5112 33.1323 52.2034 33.2118C52.3102 33.2222 52.4159 33.2319 52.5264 33.2397H52.546C52.5955 33.2397 52.6478 33.2397 52.7012 33.2494H52.8829H46.5366L46.5408 33.2491Z" fill="#1E5CB3"/>
<path d="M52.8867 33.2492H53.2329C53.2534 33.2492 53.2727 33.2492 53.2922 33.2397C53.33 33.2397 53.3697 33.2397 53.4101 33.2299H53.4674C53.5072 33.2299 53.5508 33.2204 53.5924 33.2166H53.6031C53.6158 33.2166 53.6283 33.2071 53.6411 33.2071C53.6856 33.1973 53.7322 33.1935 53.7756 33.1864C53.7904 33.1864 53.802 33.1864 53.8174 33.1769C53.867 33.1674 53.9184 33.1624 53.9694 33.1529H53.9938C54.0956 33.1333 54.195 33.1141 54.2957 33.0889C54.5922 33.1979 54.9059 33.2529 55.2219 33.2512L52.8885 33.2607L52.8867 33.2492Z" fill="#1D60B5"/>
<path d="M50.8274 27.9487V27.939C50.189 28.551 49.523 29.1336 48.8315 29.6851C48.4914 29.9555 48.1436 30.2162 47.7886 30.4668C48.081 30.8158 48.3785 31.143 48.692 31.4414C49.1679 31.9015 49.6764 32.2894 50.2313 32.5887C50.3577 32.5265 50.4836 32.4589 50.6065 32.3875C51.1721 32.058 51.6797 31.6132 52.1592 31.0292C51.6628 30.1832 51.227 29.1352 50.8298 27.9476" fill="#175FAB"/>
<path d="M70.6469 4.00323H66.8763C66.6726 4.01301 66.4746 4.01983 66.2792 4.03227C66.1869 4.22991 66.0922 4.42755 66.0011 4.62638C62.8797 11.262 59.6016 17.0122 56.2737 21.5831C54.7085 26.3901 53.5602 29.307 52.1519 31.0229C52.7539 32.0482 53.4545 32.7691 54.2873 33.0746C54.3116 33.0648 54.3312 33.0648 54.3529 33.0598H54.3665C54.3811 33.0598 54.3968 33.0503 54.4126 33.0503C54.4464 33.0405 54.4829 33.0346 54.5171 33.0242C54.5387 33.0144 54.5568 33.0136 54.5788 33.0064C54.6106 32.997 54.6432 32.9901 54.6723 32.9824C54.6919 32.9727 54.7112 32.9697 54.7305 32.9658C54.7792 32.9501 54.8228 32.9386 54.8692 32.9241C54.8908 32.9146 54.914 32.9063 54.9383 32.9007C54.965 32.8912 54.9918 32.8844 55.0161 32.8728C55.044 32.863 55.0719 32.858 55.0963 32.8476C55.1179 32.8378 55.1408 32.8319 55.1616 32.8233C55.2162 32.8038 55.2696 32.7875 55.3243 32.7661C55.3391 32.7661 55.3537 32.7525 55.3694 32.7495C55.402 32.7359 55.4362 32.7252 55.4688 32.7107C55.4807 32.7009 55.4956 32.7001 55.5113 32.695C55.6256 32.6476 55.7432 32.599 55.861 32.546H55.8732C56.0443 32.47 56.2132 32.3891 56.3797 32.3036C61.7908 29.2863 64.5229 19.1483 73.0165 4.00442H70.6442L70.6472 4.00323H70.6469Z" fill="url(#paint14_linear_3621_326)"/>
<path d="M23.6743 4.66877C23.6877 4.66877 23.6998 4.66877 23.7129 4.67825C23.7459 4.67825 23.7788 4.67825 23.8115 4.68892H23.8441C23.9038 4.6984 23.9632 4.70373 24.024 4.71232C24.035 4.71232 24.0448 4.71232 24.0543 4.72181C24.1042 4.73129 24.1553 4.73959 24.206 4.74699C24.217 4.74699 24.2316 4.75677 24.2437 4.75677C24.3604 4.77988 24.4794 4.80418 24.5934 4.83411C24.6041 4.83411 24.6154 4.84389 24.6249 4.84389C24.6736 4.85544 24.7172 4.86996 24.7659 4.88359C24.7808 4.88359 24.7912 4.89307 24.8045 4.89544C24.8618 4.90996 24.9153 4.92448 24.9708 4.94285C24.9734 4.94285 24.9767 4.94285 24.9832 4.95234C25.0307 4.96686 25.0791 4.98523 25.1287 5.00182C25.1486 5.0113 25.1667 5.01545 25.1848 5.02019C25.219 5.03501 25.2567 5.04923 25.2893 5.06286C25.3086 5.06286 25.3279 5.07649 25.3487 5.0836C25.3935 5.10375 25.4407 5.12212 25.487 5.14138C25.5114 5.15116 25.5319 5.16212 25.5553 5.17072C25.582 5.18435 25.6096 5.19679 25.6387 5.20628C25.6631 5.21813 25.6898 5.23057 25.713 5.24124C25.7385 5.25517 25.7625 5.26554 25.7872 5.27917C26.3892 5.57489 26.9441 5.96868 27.4577 6.44634C27.6416 6.25306 27.8396 6.0736 28.05 5.90942C26.9269 5.11412 25.6548 4.66077 24.1867 4.66077C24.0166 4.66077 23.8468 4.67054 23.6743 4.68329" fill="#7DCBEC"/>
<path d="M27.458 6.43211C27.7807 6.73388 28.0817 7.05785 28.359 7.40164C28.629 7.2125 28.9034 7.02973 29.182 6.85346C28.8325 6.50225 28.4536 6.18156 28.0494 5.8949C27.839 6.05876 27.6413 6.23824 27.458 6.43181" fill="#5EC5ED"/>
<path d="M23.6744 4.66848C23.8466 4.65396 24.0167 4.64773 24.1868 4.64773C25.6546 4.64773 26.927 5.10109 28.0501 5.8952C29.2352 4.96182 30.6676 4.63588 32.6576 4.63588H23.021C23.2437 4.63588 23.4607 4.64922 23.6744 4.66848Z" fill="url(#paint15_linear_3621_326)"/>
<path d="M32.6573 4.63586C30.6674 4.63586 29.2349 4.96181 28.0498 5.89518C28.4535 6.18206 28.8321 6.50263 29.1815 6.85345C30.8312 5.80659 32.4655 5.11322 34.077 4.81039C34.6808 4.69578 35.294 4.63735 35.9087 4.63586H32.6573Z" fill="url(#paint16_linear_3621_326)"/>
<path d="M56.2781 21.5926C57.134 18.9584 58.114 15.7603 59.3291 11.8813C60.4245 8.38632 62.3631 5.77375 66.0043 4.63354C66.1005 4.43827 66.1913 4.23708 66.2848 4.03973C60.3491 4.39471 57.5748 7.40849 56.1786 11.8715C53.7371 19.6633 52.2581 24.7142 50.834 27.9328C52.6529 26.1976 54.4716 24.0671 56.2781 21.5926Z" fill="url(#paint17_linear_3621_326)"/>
<path d="M64.9867 31.1735H64.314V33.2604H64.0397V31.1735H63.3643V30.9252H64.9864L64.9867 31.1735ZM67.7408 33.2598H67.4677V31.6917C67.4677 31.5682 67.4772 31.4167 67.4899 31.2384C67.4617 31.345 67.4386 31.4191 67.4172 31.4665L66.6207 33.2598H66.4871L65.6885 31.4799C65.6647 31.4304 65.6416 31.3501 65.6164 31.2387H65.6069C65.6164 31.3326 65.6196 31.4846 65.6196 31.6956V33.2601H65.3572V30.9249H65.7191L66.4366 32.5546C66.4909 32.677 66.5251 32.7715 66.5423 32.8346H66.5527C66.6002 32.706 66.6394 32.6103 66.6655 32.5472L67.3979 30.9249H67.7426V33.2598H67.7408Z" fill="black"/>
</g>
<defs>
<linearGradient id="paint0_linear_3621_326" x1="705.467" y1="-461.196" x2="705.467" y2="3133.17" gradientUnits="userSpaceOnUse">
<stop stop-color="#0994DC"/>
<stop offset="0.35001" stop-color="#66CEF5"/>
<stop offset="0.84616" stop-color="#127BCA"/>
<stop offset="1" stop-color="#127BCA"/>
</linearGradient>
<linearGradient id="paint1_linear_3621_326" x1="740.12" y1="-473.968" x2="740.12" y2="3211.94" gradientUnits="userSpaceOnUse">
<stop stop-color="#0E76BC"/>
<stop offset="0.36" stop-color="#36AEE8"/>
<stop offset="0.84616" stop-color="#00ADEF"/>
<stop offset="1" stop-color="#00ADEF"/>
</linearGradient>
<linearGradient id="paint2_linear_3621_326" x1="712.011" y1="2781.94" x2="712.011" y2="-150.94" gradientUnits="userSpaceOnUse">
<stop stop-color="#1C63B7"/>
<stop offset="0.5" stop-color="#33BDF2"/>
<stop offset="1" stop-color="#33BDF2" stop-opacity="0.42"/>
</linearGradient>
<linearGradient id="paint3_linear_3621_326" x1="703.611" y1="-495.946" x2="703.611" y2="3331.03" gradientUnits="userSpaceOnUse">
<stop stop-color="#166AB8"/>
<stop offset="0.39999" stop-color="#36AEE8"/>
<stop offset="0.84616" stop-color="#0798DD"/>
<stop offset="1" stop-color="#0798DD"/>
</linearGradient>
<linearGradient id="paint4_linear_3621_326" x1="896.594" y1="-527.301" x2="896.594" y2="3542.19" gradientUnits="userSpaceOnUse">
<stop stop-color="#124379"/>
<stop offset="0.39" stop-color="#1487CB"/>
<stop offset="0.78023" stop-color="#165197"/>
<stop offset="1" stop-color="#165197"/>
</linearGradient>
<linearGradient id="paint5_linear_3621_326" x1="22.749" y1="466.033" x2="28.514" y2="466.033" gradientUnits="userSpaceOnUse">
<stop stop-color="#33BDF2" stop-opacity="0.698"/>
<stop offset="1" stop-color="#1DACD8"/>
</linearGradient>
<linearGradient id="paint6_linear_3621_326" x1="1229.31" y1="2772.59" x2="1229.31" y2="-84.4501" gradientUnits="userSpaceOnUse">
<stop stop-color="#136AB4"/>
<stop offset="0.6" stop-color="#59CAF5" stop-opacity="0.549"/>
<stop offset="1" stop-color="#59CAF5" stop-opacity="0.235"/>
</linearGradient>
<linearGradient id="paint7_linear_3621_326" x1="2.27159" y1="1473.75" x2="2140.42" y2="1473.75" gradientUnits="userSpaceOnUse">
<stop stop-color="#05A1E6" stop-opacity="0.247"/>
<stop offset="1" stop-color="#05A1E6"/>
</linearGradient>
<linearGradient id="paint8_linear_3621_326" x1="734.926" y1="2724.53" x2="734.926" y2="-200.868" gradientUnits="userSpaceOnUse">
<stop stop-color="#318ED5"/>
<stop offset="1" stop-color="#38A7E4"/>
</linearGradient>
<linearGradient id="paint9_linear_3621_326" x1="686.131" y1="1560.87" x2="686.131" y2="-1282.72" gradientUnits="userSpaceOnUse">
<stop stop-color="#05A1E6"/>
<stop offset="1" stop-color="#05A1E6" stop-opacity="0.549"/>
</linearGradient>
<linearGradient id="paint10_linear_3621_326" x1="789.309" y1="2413.07" x2="789.309" y2="10.168" gradientUnits="userSpaceOnUse">
<stop stop-color="#1959A6"/>
<stop offset="0.5" stop-color="#05A1E6"/>
<stop offset="0.91759" stop-color="#7EC5EA"/>
<stop offset="1" stop-color="#7EC5EA"/>
</linearGradient>
<linearGradient id="paint11_linear_3621_326" x1="1295.86" y1="2778.95" x2="482.588" y2="288.798" gradientUnits="userSpaceOnUse">
<stop stop-color="#165096"/>
<stop offset="1" stop-color="#0D82CA"/>
</linearGradient>
<linearGradient id="paint12_linear_3621_326" x1="542.614" y1="1310.26" x2="542.614" y2="-51.3066" gradientUnits="userSpaceOnUse">
<stop stop-color="#05A1E6"/>
<stop offset="0.87363" stop-color="#0495D6"/>
<stop offset="1" stop-color="#0495D6"/>
</linearGradient>
<linearGradient id="paint13_linear_3621_326" x1="1223.6" y1="-114.758" x2="-43.7568" y2="2704.59" gradientUnits="userSpaceOnUse">
<stop stop-color="#38A7E4" stop-opacity="0.329"/>
<stop offset="0.96153" stop-color="#0E88D3"/>
<stop offset="1" stop-color="#0E88D3"/>
</linearGradient>
<linearGradient id="paint14_linear_3621_326" x1="1095.74" y1="-4.60189" x2="1095.74" y2="2965.85" gradientUnits="userSpaceOnUse">
<stop stop-color="#168CD4"/>
<stop offset="0.5" stop-color="#1C87CC"/>
<stop offset="1" stop-color="#154B8D"/>
</linearGradient>
<linearGradient id="paint15_linear_3621_326" x1="183.701" y1="-252.977" x2="196.553" y2="58.6196" gradientUnits="userSpaceOnUse">
<stop stop-color="#97D6EE"/>
<stop offset="0.70329" stop-color="#55C1EA"/>
<stop offset="1" stop-color="#55C1EA"/>
</linearGradient>
<linearGradient id="paint16_linear_3621_326" x1="82.1975" y1="-7.11737" x2="140.275" y2="-337.153" gradientUnits="userSpaceOnUse">
<stop stop-color="#7ACCEC"/>
<stop offset="1" stop-color="#3FB7ED"/>
</linearGradient>
<linearGradient id="paint17_linear_3621_326" x1="823.331" y1="156.071" x2="823.331" y2="3061.42" gradientUnits="userSpaceOnUse">
<stop stop-color="#1DA7E7"/>
<stop offset="1" stop-color="#37ABE7" stop-opacity="0"/>
</linearGradient>
<clipPath id="clip0_3621_326">
<rect width="76" height="72.3056" fill="white" transform="translate(2 4)"/>
</clipPath>
</defs>
</svg>
