<svg width="80" height="80" viewBox="0 0 80 80" fill="none" xmlns="http://www.w3.org/2000/svg">
<g clip-path="url(#clip0_3621_330)">
<path fill-rule="evenodd" clip-rule="evenodd" d="M21.2947 14.3541C17.651 14.3541 14.9492 17.5729 15.0631 21.0625C15.177 24.4062 15.032 28.75 13.9451 32.2812C12.8582 35.8333 11.0156 38.0729 8.01367 38.3645V41.6145C11.0156 41.9062 12.8582 44.1562 13.9555 47.6979C15.0424 51.2291 15.1873 55.5729 15.0734 58.9166C14.9596 62.4062 17.651 65.625 21.3051 65.625H58.7053C62.3594 65.625 65.0611 62.4062 64.9369 58.9166C64.823 55.5729 64.968 51.2291 66.0652 47.6979C67.1521 44.1562 68.9844 41.9062 71.9967 41.6145V38.3645C68.9947 38.0729 67.1521 35.8229 66.0652 32.2812C64.9783 28.75 64.823 24.4062 64.9369 21.0625C65.0611 17.5729 62.3594 14.3541 58.7053 14.3541H21.2947ZM51.3867 45.9166C51.3867 50.7187 47.8258 53.625 41.9254 53.625H31.874C31.2736 53.625 30.7871 53.1354 30.7871 52.5312V27.4479C30.7871 26.8437 31.2736 26.3541 31.874 26.3541H41.8633C46.7906 26.3541 50.0203 29.0416 50.0203 33.1562C50.0203 36.0416 47.8465 38.6354 45.0723 39.0937V39.25C48.8402 39.6666 51.3867 42.2916 51.3867 45.9166ZM40.8281 29.8229H35.0934V37.9583H39.9172C43.6541 37.9583 45.7141 36.4479 45.7141 33.75C45.7141 31.2083 43.9439 29.8229 40.8281 29.8229ZM35.0934 41.1979V50.177H41.0352C44.9273 50.177 46.9873 48.6145 46.9873 45.6562C46.9873 42.7187 44.8756 41.1979 40.7867 41.1979H35.0934Z" fill="#524998"/>
</g>
<defs>
<clipPath id="clip0_3621_330">
<rect width="80" height="80" fill="white"/>
</clipPath>
</defs>
</svg>
