<svg width="80" height="80" viewBox="0 0 80 80" fill="none" xmlns="http://www.w3.org/2000/svg">
<g clip-path="url(#clip0_3621_329)">
<path d="M73.4418 24.286C73.4413 23.0115 73.1687 21.8852 72.6174 20.9186C72.0759 19.968 71.265 19.1713 70.1773 18.5414C61.1984 13.3642 52.2109 8.20281 43.235 3.02029C40.8151 1.62327 38.4689 1.6742 36.067 3.09128C32.4931 5.19896 14.6001 15.4503 9.26826 18.5385C7.07244 19.8097 6.00396 21.7551 6.00343 24.2837C6 34.6954 6.00343 45.1069 6 55.5189C6 56.7655 6.26151 57.8699 6.7885 58.822C7.33026 59.8013 8.15254 60.6199 9.26536 61.264C14.5975 64.3523 32.4929 74.6028 36.0659 76.711C38.4689 78.1289 40.8151 78.1795 43.2358 76.782C52.212 71.5992 61.2 66.4381 70.1802 61.2608C71.293 60.6169 72.1153 59.7978 72.657 58.8193C73.1832 57.8672 73.4453 56.7629 73.4453 55.516C73.4453 55.516 73.4453 34.698 73.4418 24.286Z" fill="#A179DC"/>
<path d="M39.8259 39.7998L6.78857 58.822C7.33034 59.8013 8.15262 60.6198 9.26544 61.264C14.5976 64.3523 32.4929 74.6028 36.066 76.711C38.469 78.1289 40.8152 78.1795 43.2359 76.782C52.212 71.5992 61.2001 66.4381 70.1802 61.2608C71.293 60.6169 72.1153 59.7978 72.6571 58.8193L39.8259 39.7998Z" fill="#280068"/>
<path d="M73.4417 24.2861C73.4412 23.0115 73.1686 21.8852 72.6173 20.9186L39.8257 39.7998L72.6569 58.8194C73.1831 57.8672 73.4446 56.7629 73.4451 55.516C73.4451 55.516 73.4451 34.6981 73.4417 24.2861Z" fill="#390091"/>
<path d="M59.2772 32.6887V36.2443H62.8327V32.6887H64.6105V36.2443H68.1661V38.0221H64.6105V41.5776H68.1661V43.3554H64.6105V46.9109H62.8327V43.3554H59.2772V46.9109H57.4994V43.3554H53.9438V41.5776H57.4994V38.0221H53.9438V36.2443H57.4994V32.6887H59.2772ZM62.8327 38.0221H59.2772V41.5776H62.8327V38.0221Z" fill="white"/>
<path d="M39.8982 14.8318C49.1723 14.8318 57.2693 19.8685 61.6062 27.355L61.5639 27.2829L50.6524 33.5657C48.5026 29.9257 44.5615 27.4693 40.0406 27.4187L39.8982 27.4179C33.004 27.4179 27.4147 33.0069 27.4147 39.9011C27.4147 42.1557 28.0157 44.2691 29.0611 46.0945C31.2128 49.851 35.2579 52.3847 39.8982 52.3847C44.5671 52.3847 48.6353 49.8188 50.7761 46.0221L50.7241 46.1132L61.6191 52.4249C57.3298 59.848 49.3437 64.8691 40.1775 64.9692L39.8982 64.9707C30.5949 64.9707 22.4749 59.9031 18.1489 52.377C16.037 48.7029 14.8286 44.4434 14.8286 39.9011C14.8286 26.0559 26.0524 14.8318 39.8982 14.8318Z" fill="white"/>
</g>
<defs>
<clipPath id="clip0_3621_329">
<rect width="67.5556" height="76" fill="white" transform="translate(6 2)"/>
</clipPath>
</defs>
</svg>
