<svg width="61" height="60" viewBox="0 0 61 60" fill="none" xmlns="http://www.w3.org/2000/svg">
<path fill-rule="evenodd" clip-rule="evenodd" d="M30.3125 53.125C31.3475 53.125 32.1875 53.965 32.1875 55C32.1875 56.035 31.3475 56.875 30.3125 56.875C15.48 56.875 3.4375 44.8325 3.4375 30C3.4375 20.915 7.955 12.8775 14.8625 8.01248C15.71 7.41748 16.88 7.61998 17.475 8.46498C18.0725 9.31248 17.8675 10.4825 17.0225 11.0775C11.075 15.265 7.1875 22.1825 7.1875 30C7.1875 42.7625 17.55 53.125 30.3125 53.125Z" fill="black"/>
<path fill-rule="evenodd" clip-rule="evenodd" d="M31.8044 6.92253C30.7694 6.85753 29.9844 5.96503 30.0519 4.93253C30.1169 3.90003 31.0094 3.11503 32.0419 3.18003C46.0694 4.07253 57.1869 15.7475 57.1869 30C57.1869 38.19 53.5169 45.5275 47.7319 50.46C46.9444 51.13 45.7594 51.035 45.0894 50.2475C44.4169 49.46 44.5119 48.2775 45.2994 47.605C50.2769 43.3625 53.4369 37.0475 53.4369 30C53.4369 17.7375 43.8719 7.69253 31.8044 6.92253Z" fill="black"/>
<path fill-rule="evenodd" clip-rule="evenodd" d="M51.0372 49.7724C52.0447 50.0099 52.6697 51.0199 52.4322 52.0274C52.1972 53.0349 51.1872 53.6599 50.1797 53.4224L43.0997 51.7599C42.0922 51.5224 41.4672 50.5124 41.7047 49.5049L43.3797 42.3799C43.6147 41.3724 44.6247 40.7474 45.6322 40.9824C46.6397 41.2199 47.2672 42.2299 47.0297 43.2374L45.7822 48.5374L51.0372 49.7724Z" fill="black"/>
<path fill-rule="evenodd" clip-rule="evenodd" d="M10.9023 8.52006C9.87483 8.39756 9.13983 7.46256 9.26483 6.43506C9.38733 5.40756 10.3223 4.67506 11.3498 4.79756L18.6273 5.67256C19.6548 5.79506 20.3898 6.73006 20.2648 7.75756L19.3798 15.1226C19.2573 16.1501 18.3223 16.8851 17.2948 16.7601C16.2673 16.6376 15.5323 15.7026 15.6573 14.6751L16.3198 9.17256L10.9023 8.52006Z" fill="black"/>
<path fill-rule="evenodd" clip-rule="evenodd" d="M30.3201 15.6575C38.2501 15.6575 44.6876 22.095 44.6876 30.025C44.6876 37.955 38.2501 44.3925 30.3201 44.3925C22.3901 44.3925 15.9526 37.955 15.9526 30.025C15.9526 22.095 22.3901 15.6575 30.3201 15.6575ZM30.3201 19.4075C24.4601 19.4075 19.7026 24.165 19.7026 30.025C19.7026 35.885 24.4601 40.6425 30.3201 40.6425C36.1801 40.6425 40.9376 35.885 40.9376 30.025C40.9376 24.165 36.1801 19.4075 30.3201 19.4075Z" fill="black"/>
<path fill-rule="evenodd" clip-rule="evenodd" d="M23.9947 31.325C23.2622 30.595 23.2622 29.405 23.9947 28.675C24.7247 27.9425 25.9147 27.9425 26.6447 28.675L28.6522 30.6825L33.9947 25.34C34.7247 24.61 35.9147 24.61 36.6447 25.34C37.3772 26.0725 37.3772 27.26 36.6447 27.9925L29.9797 34.66C29.2472 35.3925 28.0597 35.3925 27.3272 34.66L23.9947 31.325Z" fill="black"/>
</svg>
