<svg width="61" height="60" viewBox="0 0 61 60" fill="none" xmlns="http://www.w3.org/2000/svg">
<g clip-path="url(#clip0_4046_4926)">
<path d="M57.1593 52.2581C55.8995 52.2581 54.8349 53.0699 54.4342 54.1935H34.9012C34.9012 53.1261 34.0332 52.2581 32.9657 52.2581H27.1593C26.0918 52.2581 25.2238 53.1261 25.2238 54.1935H5.69081C5.2901 53.0699 4.22549 52.2581 2.96573 52.2581C1.36527 52.2581 0.0625 53.5608 0.0625 55.1613C0.0625 56.7617 1.36527 58.0645 2.96573 58.0645C4.22549 58.0645 5.2901 57.2527 5.69081 56.129H25.2238C25.2238 57.1965 26.0918 58.0645 27.1593 58.0645H32.9657C34.0332 58.0645 34.9012 57.1965 34.9012 56.129H54.4342C54.8349 57.2527 55.8995 58.0645 57.1593 58.0645C58.7597 58.0645 60.0625 56.7617 60.0625 55.1613C60.0625 53.5608 58.7597 52.2581 57.1593 52.2581Z" fill="black"/>
<path d="M7.80456 39.6775C8.18778 39.6775 8.54974 39.6038 8.89989 39.5003C13.8151 46.2882 21.6568 50.3226 30.0626 50.3226C38.4647 50.3226 46.311 46.2863 51.2263 39.5003C51.5755 39.6047 51.9375 39.6775 52.3207 39.6775C54.4556 39.6775 56.1917 37.9414 56.1917 35.8065C56.1917 33.6716 54.4556 31.9355 52.3207 31.9355C50.1858 31.9355 48.4497 33.6716 48.4497 35.8065C48.4497 36.8574 48.8736 37.8096 49.5559 38.5075C45.5153 44.0026 39.3866 47.5125 32.6677 48.2383L34.9013 44.5162L32.3279 38.7097H27.7973L25.2239 44.5162L27.4576 48.2383C20.7354 47.5125 14.6099 44.0044 10.5693 38.5075C11.2517 37.8096 11.6755 36.8574 11.6755 35.8065C11.6755 33.6716 9.93945 31.9355 7.80456 31.9355C5.66967 31.9355 3.93359 33.6716 3.93359 35.8065C3.93359 37.9414 5.66967 39.6775 7.80456 39.6775ZM27.1594 43.5484C27.1594 41.948 28.4622 40.6452 30.0626 40.6452C31.6631 40.6452 32.9659 41.948 32.9659 43.5484C32.9659 44.8082 32.154 45.8728 31.0304 46.2735V48.3574C30.7081 48.3697 30.3868 48.3872 30.0626 48.3872C29.7385 48.3872 29.4171 48.3697 29.0949 48.3574V46.2735C27.9712 45.8728 27.1594 44.8082 27.1594 43.5484Z" fill="black"/>
<path d="M31.0302 43.5484C31.0302 44.0829 30.5969 44.5162 30.0625 44.5162C29.528 44.5162 29.0947 44.0829 29.0947 43.5484C29.0947 43.014 29.528 42.5807 30.0625 42.5807C30.5969 42.5807 31.0302 43.014 31.0302 43.5484Z" fill="black"/>
<path d="M28.127 34.8387H31.9979V36.7742H28.127V34.8387Z" fill="black"/>
<path d="M13.9987 24.8158C14.4122 26.7069 15.1583 28.502 16.2149 30.1497L16.539 30.6549L14.8573 33.4579L17.8938 36.4944L20.6963 34.8127L21.2019 35.1368C22.7471 36.1287 24.426 36.8341 26.1895 37.2608V14.5161C26.1895 12.9156 27.4923 11.6128 29.0927 11.6128H31.0282C32.6287 11.6128 33.9314 12.9156 33.9314 14.5161V37.2618C35.6944 36.8351 37.3738 36.1296 38.919 35.1378L39.4241 34.8136L42.2267 36.4953L45.2637 33.4589L43.5819 30.6563L43.9061 30.1507C44.9627 28.503 45.7088 26.7078 46.1222 24.8168L46.2508 24.2303L49.4172 23.4379V19.1426L46.2536 18.3521L46.1251 17.7657C45.7116 15.8746 44.9655 14.0795 43.9089 12.4317L43.5848 11.9266L45.2665 9.12403L42.23 6.08708L39.427 7.76881L38.9218 7.44466C37.2741 6.38808 35.4799 5.64195 33.5879 5.22849L33.0015 5.09996L32.21 1.93542H27.9147L27.1242 5.09901L26.5378 5.22754C24.6457 5.64101 22.8506 6.38713 21.2038 7.44371L20.6987 7.76787L17.8961 6.08613L14.8592 9.12261L16.5409 11.9257L16.2167 12.4308C15.1602 14.0785 14.414 15.8736 14.0006 17.7647L13.8721 18.3511L10.7075 19.1426V23.4379L13.8711 24.2285L13.9987 24.8158ZM30.0624 7.74188C37.5335 7.74188 43.6107 13.8191 43.6107 21.2903C43.6107 26.3591 40.8157 30.9658 36.3168 33.3114L35.4218 31.5957C39.2791 29.5836 41.6753 25.6357 41.6753 21.2903C41.6753 14.8865 36.4661 9.67736 30.0624 9.67736C23.6586 9.67736 18.4495 14.8865 18.4495 21.2903C18.4495 25.6366 20.8457 29.5846 24.702 31.5947L23.807 33.3105C19.309 30.9667 16.514 26.36 16.514 21.2903C16.514 13.8191 22.5912 7.74188 30.0624 7.74188Z" fill="black"/>
<path d="M31.9979 14.5161C31.9979 13.9831 31.5632 13.5483 31.0302 13.5483H29.0947C28.5617 13.5483 28.127 13.9831 28.127 14.5161V32.9032H31.9979V14.5161Z" fill="black"/>
</g>
<defs>
<clipPath id="clip0_4046_4926">
<rect width="60" height="60" fill="white" transform="translate(0.0625)"/>
</clipPath>
</defs>
</svg>
