<svg width="61" height="60" viewBox="0 0 61 60" fill="none" xmlns="http://www.w3.org/2000/svg">
<path d="M47.8618 0H14.0132C9.99352 0 6.72363 3.26988 6.72363 7.28848V52.7126C6.72363 56.7312 9.99352 60 14.0132 60H47.8617C51.8814 60 55.1502 56.7312 55.1512 52.7126V7.28848C55.1514 3.26988 51.8815 0 47.8618 0ZM51.3105 52.7126C51.3105 54.6137 49.763 56.1613 47.8618 56.1613H14.0132C12.111 56.1613 10.5634 54.6137 10.5645 52.7115V7.28742C10.5645 5.38629 12.111 3.83871 14.0132 3.83871V3.83977H47.8617C49.7629 3.83977 51.3104 5.38734 51.3104 7.28848V52.7126H51.3105Z" fill="black"/>
<path d="M47.3498 48.2976H14.5205C13.4606 48.2976 12.6006 49.1567 12.6006 50.2175C12.6006 51.2783 13.4597 52.1374 14.5205 52.1374H47.3498C48.4097 52.1374 49.2708 51.2783 49.2708 50.2175C49.2708 49.1567 48.4107 48.2976 47.3498 48.2976Z" fill="black"/>
<path d="M47.3498 7.86475H14.5205C13.4606 7.86475 12.6006 8.72385 12.6006 9.78463C12.6006 10.8454 13.4597 11.7045 14.5205 11.7045H47.3498C48.4097 11.7045 49.2708 10.8454 49.2708 9.78463C49.2708 8.72385 48.4107 7.86475 47.3498 7.86475Z" fill="black"/>
<path d="M33.0309 42.5775C34.0906 42.5775 34.9518 41.7184 34.9508 40.6576V19.3434C34.9508 18.5686 34.4848 17.8697 33.7693 17.5712C33.0537 17.2748 32.229 17.4349 31.6788 17.9799L23.3305 26.2513C22.5775 26.9969 22.5723 28.2127 23.318 28.9657C24.0648 29.7228 25.2816 29.7259 26.0335 28.9792L31.1109 23.9485V40.6576C31.111 41.7185 31.9701 42.5775 33.0309 42.5775Z" fill="black"/>
</svg>
