<svg width="61" height="60" viewBox="0 0 61 60" fill="none" xmlns="http://www.w3.org/2000/svg">
<path fill-rule="evenodd" clip-rule="evenodd" d="M17.785 52.4419L18.6277 53.9309C18.6281 53.9316 18.6285 53.9324 18.629 53.9333C19.286 55.1019 18.8694 56.5933 17.7073 57.2496L14.8611 58.8628C14.8601 58.8634 14.8592 58.8639 14.8583 58.8644C13.6896 59.5215 12.1983 59.1049 11.5416 57.9423L3.17168 43.1529C2.50873 41.9831 2.92532 40.4906 4.08885 39.8334L6.93838 38.2202L6.93921 38.2197C8.10215 37.5629 9.59403 37.9759 10.2563 39.1388L10.2576 39.1409L10.9487 40.3624L18.4613 36.0129C20.685 34.7269 22.956 33.8833 25.3983 34.6763C27.7966 35.454 31.7121 37.1299 35.708 37.8519C35.7494 37.8594 35.7905 37.8696 35.8306 37.8827C37.8111 38.524 39.0168 40.5253 38.476 42.5363C38.3776 42.9028 38.2414 43.2384 38.0698 43.54C38.5643 43.4156 39.0465 43.219 39.5196 42.9434L49.6684 37.0326C53.3005 34.9167 55.7201 35.1335 57.0907 36.053C58.2611 36.8382 58.8019 38.1795 58.767 39.4955C58.7317 40.8242 58.1007 42.0947 57.0587 42.7364L38.6432 54.0747C36.7224 55.2602 34.6183 55.5382 32.4385 54.9567L32.4376 54.9564L19.4556 51.4773L17.785 52.4419ZM11.8759 42.0007L16.8578 50.8036L18.8519 49.6522C19.0681 49.5273 19.3251 49.4935 19.5663 49.5581L32.924 53.1381C34.5854 53.5813 36.1904 53.3766 37.6546 52.4729L37.6554 52.4723L56.0717 41.1336C56.5656 40.8295 56.8256 40.2195 56.8772 39.5934C56.9566 38.6301 56.5025 37.568 55.311 37.3183C54.2254 37.0909 52.6961 37.4473 50.6159 38.6591L40.4673 44.5697C38.8539 45.51 37.1628 45.7694 35.3199 45.4761C35.3188 45.4759 35.3178 45.4757 35.3167 45.4756L34.0584 45.2708C34.058 45.2708 34.0577 45.2707 34.0572 45.2706C34.0445 45.2686 34.0318 45.2662 34.0192 45.2636C34.0187 45.2635 34.0184 45.2634 34.0179 45.2634C31.7288 44.7935 29.6059 44.1019 27.2501 43.4688C26.7485 43.334 26.4507 42.8173 26.5856 42.3156C26.7203 41.814 27.2371 41.5161 27.7387 41.6509C30.0433 42.2703 32.1207 42.9494 34.3584 43.4116C35.5319 43.5428 36.3884 43.0528 36.658 42.0481L36.6581 42.0476C36.9321 41.0293 36.2954 40.0402 35.3052 39.6919C31.239 38.9463 27.2583 37.2582 24.8173 36.4668L24.817 36.4667C22.902 35.8448 21.1473 36.634 19.4038 37.6423L11.8759 42.0007ZM8.62026 40.0697L8.61944 40.0683C8.46803 39.8047 8.12944 39.7094 7.86497 39.8587L5.01615 41.4715L5.01532 41.472C4.75156 41.6209 4.65909 41.9596 4.80932 42.2247L4.80956 42.2253L13.1798 57.0151L13.1801 57.0159C13.3296 57.2804 13.6692 57.373 13.9351 57.224L16.7792 55.612L16.7804 55.6113C17.045 55.4619 17.1376 55.1222 16.9885 54.8562L8.62026 40.0697ZM7.49379 41.6587C8.13979 41.5626 8.73956 42.0086 8.83568 42.6546C8.92803 43.3006 8.48191 43.9043 7.83603 43.9966C7.19003 44.0927 6.59015 43.6428 6.49403 42.9968C6.40168 42.3508 6.84779 41.751 7.49379 41.6587ZM26.8073 25.038C26.5878 21.372 25.5369 19.9933 24.737 18.5781C24.0998 17.451 23.5943 16.3053 23.5943 14.3179C23.5943 9.39279 27.5869 5.40021 32.5119 5.40021C37.437 5.40021 41.4296 9.39279 41.4296 14.3179C41.4296 16.3053 40.9239 17.451 40.2868 18.5781C39.485 19.9967 38.4308 21.3788 38.215 25.0651L38.2138 26.3066C38.2138 27.2022 37.6819 27.9777 36.92 28.3348V28.8995C36.92 29.8083 36.3701 30.5941 35.5889 30.9436V31.4923C35.5889 32.7201 34.5817 33.73 33.3539 33.73H31.6699C30.4426 33.73 29.4323 32.7196 29.4323 31.4923V30.9434C28.6509 30.5936 28.1037 29.808 28.1037 28.8995V28.3359C27.3394 27.979 26.8073 27.2027 26.8073 26.3066V25.038ZM36.3318 25.9513H28.6897V26.3066C28.6897 26.5022 28.8493 26.6619 29.0449 26.6619H35.9788C36.1732 26.6619 36.3314 26.5016 36.3314 26.3062L36.3318 25.9513ZM35.0377 28.5442H29.986V28.8995C29.986 29.095 30.1458 29.2548 30.3413 29.2548H34.6824C34.8773 29.2548 35.0377 29.095 35.0377 28.8995V28.5442ZM33.7065 31.1371H31.3146V31.4923C31.3146 31.6873 31.475 31.8476 31.6699 31.8476H33.3539C33.5483 31.8476 33.7065 31.6867 33.7065 31.4923V31.1371ZM34.8297 24.0689H36.4052C36.6927 21.1742 37.4754 19.674 38.2108 18.4051C38.8893 17.2346 39.5472 16.3067 39.5472 14.3179C39.5472 10.4323 36.3973 7.28256 32.5119 7.28256C28.6264 7.28256 25.4766 10.4323 25.4766 14.3179C25.4766 16.3067 26.1344 17.2346 26.8129 18.4051C27.5483 19.674 28.331 21.1742 28.6186 24.0689H30.194V17.1702H29.2801C27.7443 17.1702 26.4865 15.9126 26.4865 14.3766C26.4865 12.837 27.7446 11.5803 29.2801 11.5803C30.8193 11.5803 32.0764 12.8375 32.0764 14.3766V15.2879H32.9473V14.3766C32.9473 12.8375 34.2045 11.5803 35.7437 11.5803C37.2792 11.5803 38.5373 12.837 38.5373 14.3766C38.5373 15.9126 37.2796 17.1702 35.7437 17.1702H34.8297V24.0689ZM32.0764 24.0689H32.9473V17.1702H32.0764V24.0689ZM30.194 15.2879V14.3766C30.194 13.8735 29.7832 13.4627 29.2801 13.4627C28.7787 13.4627 28.3689 13.874 28.3689 14.3766C28.3689 14.8776 28.7791 15.2879 29.2801 15.2879H30.194ZM34.8297 15.2879H35.7437C36.2446 15.2879 36.655 14.8776 36.655 14.3766C36.655 13.874 36.245 13.4627 35.7437 13.4627C35.2406 13.4627 34.8297 13.8735 34.8297 14.3766V15.2879ZM22.5857 19.4895V24.2374C22.5857 24.7593 22.1626 25.1823 21.6407 25.1823H15.1987V25.9215C15.1987 27.157 13.7805 27.8351 12.8207 27.0795L12.8205 27.0793L7.66697 23.0181C6.91191 22.4276 6.91191 21.2994 7.66697 20.7088L12.8207 16.6475C13.7805 15.8917 15.1987 16.5699 15.1987 17.8054V18.5446H21.6407C22.1626 18.5446 22.5857 18.9676 22.5857 19.4895ZM9.25497 21.8635L13.309 25.0581V24.2374C13.309 23.7156 13.732 23.2926 14.2538 23.2926H20.6959V20.4343H14.2538C13.732 20.4343 13.309 20.0114 13.309 19.4895V18.6688L9.25497 21.8635ZM33.4531 3.64421C33.4531 4.16362 33.0313 4.58538 32.5119 4.58538C31.9924 4.58538 31.5707 4.16362 31.5707 3.64421V1.76503C31.5707 1.2455 31.9924 0.823853 32.5119 0.823853C33.0313 0.823853 33.4531 1.2455 33.4531 1.76503V3.64421ZM27.3103 4.78609C27.5696 5.23609 27.4149 5.81209 26.9647 6.0715C26.5147 6.33091 25.9387 6.17609 25.6793 5.72609L24.7411 4.09809C24.4817 3.64809 24.6365 3.07209 25.0865 2.81268C25.5366 2.55326 26.1126 2.70809 26.3719 3.15821L27.3103 4.78609ZM22.5632 8.84644C23.013 9.10632 23.167 9.68256 22.9071 10.1323C22.6471 10.582 22.071 10.7361 21.6212 10.4762L19.9933 9.53526C19.5436 9.27526 19.3896 8.69915 19.6494 8.24938C19.9094 7.79962 20.4856 7.64562 20.9353 7.9055L22.5632 8.84644ZM39.3412 5.72703C39.0812 6.17679 38.5051 6.33079 38.0553 6.07091C37.6056 5.81091 37.4516 5.23479 37.7114 4.78503L38.6524 3.15715C38.9124 2.70738 39.4885 2.55338 39.9383 2.81326C40.3879 3.07326 40.542 3.64938 40.2821 4.09915L39.3412 5.72703ZM43.4031 10.4759C42.9536 10.7361 42.3773 10.5824 42.1171 10.1329C41.8567 9.68326 42.0105 9.10703 42.46 8.84679L44.0852 7.90585C44.5347 7.64562 45.1111 7.79926 45.3713 8.24879C45.6316 8.69832 45.4779 9.27468 45.0284 9.53491L43.4031 10.4759ZM43.058 18.1456H49.5001V17.4064C49.5001 16.1709 50.9184 15.4927 51.878 16.2484L51.8783 16.2487L57.0319 20.3099C57.7868 20.9003 57.7868 22.0286 57.0319 22.619L51.878 26.6804C50.9184 27.4362 49.5001 26.7581 49.5001 25.5224V24.7833H43.058C42.5363 24.7833 42.1132 24.3602 42.1132 23.8384V19.0906C42.1132 18.5687 42.5363 18.1456 43.058 18.1456ZM51.3899 24.6591L55.4439 21.4644L51.3899 18.2697V19.0906C51.3899 19.6123 50.9668 20.0354 50.445 20.0354H44.003V22.8935H50.445C50.9668 22.8935 51.3899 23.3166 51.3899 23.8384V24.6591Z" fill="black"/>
</svg>
