<svg width="80" height="80" viewBox="0 0 80 80" fill="none" xmlns="http://www.w3.org/2000/svg">
<g clip-path="url(#clip0_30_344)">
<path d="M79.8985 61.8451L78.6672 54.2951C78.6251 50.5982 76.2032 47.4482 72.7297 46.5873L70.2532 45.6248C70.2371 45.6172 70.2203 45.6109 70.2032 45.6061L66.886 44.3295L66.6797 44.2498C66.2383 44.0805 65.8571 43.7841 65.5842 43.398C65.3114 43.012 65.1592 42.5536 65.1469 42.0811V41.9967L65.1579 41.9889C66.4374 40.8956 67.4669 39.5399 68.1766 38.0139C69.1329 37.7561 69.9344 37.0904 70.4829 36.0826C70.897 35.2924 71.1498 34.4277 71.2266 33.5389C71.2492 33.1542 71.1804 32.7696 71.0259 32.4165C70.8714 32.0635 70.6355 31.752 70.3376 31.5076C70.061 24.9764 65.4938 19.7654 59.9219 19.7654C57.3735 19.7654 55.0001 20.8811 53.1626 22.7467C51.5047 15.917 46.211 10.9092 39.9532 10.9092C33.8016 10.9092 28.4329 15.867 26.7329 22.7732C24.9047 20.8982 22.5235 19.7654 19.9235 19.7654C14.7407 19.7654 10.2907 24.3811 9.5735 30.5029C9.52662 30.9076 9.49537 31.317 9.48131 31.7264C9.08756 32.1607 8.63912 32.8201 8.70006 33.5357C8.84693 35.4701 9.82818 37.4529 11.7032 37.9514C12.4423 39.5535 13.5411 40.9636 14.9141 42.0717L14.936 42.0889C14.9291 42.5465 14.7789 42.9905 14.5064 43.3582C14.234 43.726 13.853 43.999 13.4172 44.1389L13.3672 44.1561L10.0626 45.2357L9.95943 45.2686L7.06568 46.2139C3.66256 47.1264 1.286 50.2717 1.25006 53.9061L0.0141208 61.8545C-0.0120764 62.0216 -0.00173702 62.1924 0.0444268 62.3551C0.0905906 62.5179 0.171482 62.6687 0.281528 62.7971C0.391573 62.9256 0.528159 63.0287 0.681874 63.0993C0.835589 63.1699 1.00278 63.2063 1.17193 63.2061H14.0219L13.3204 67.7373C13.2947 67.9043 13.3054 68.0749 13.3518 68.2374C13.3982 68.3999 13.4791 68.5505 13.5891 68.6788C13.699 68.8072 13.8354 68.9103 13.9888 68.981C14.1423 69.0518 14.3092 69.0886 14.4782 69.0889H65.5219C65.6918 69.0888 65.8596 69.0519 66.0138 68.9805C66.1679 68.9092 66.3047 68.8052 66.4147 68.6758C66.5247 68.5463 66.6052 68.3945 66.6507 68.2308C66.6962 68.0672 66.7056 67.8956 66.6782 67.7279L65.9376 63.2061H78.7501C78.9198 63.2058 79.0875 63.1686 79.2416 63.0972C79.3956 63.0258 79.5323 62.9218 79.6422 62.7924C79.7521 62.663 79.8327 62.5113 79.8783 62.3478C79.9239 62.1842 79.9334 62.0127 79.9063 61.8451H79.8985ZM65.661 48.0514L66.7938 46.8123L67.8141 47.2045L63.5204 52.0311C63.134 51.3746 62.676 50.7631 62.1547 50.2076C63.5019 49.8304 64.7165 49.0834 65.661 48.0514ZM60.036 48.1467C59.7888 48.1424 59.5423 48.12 59.2985 48.0795C58.6938 47.7796 58.0604 47.5414 57.4079 47.3686C56.9572 47.0874 56.5524 46.7385 56.2079 46.3342L55.5829 45.5967C56.2926 45.0268 56.8142 44.2563 57.0797 43.3857C57.9921 43.7877 58.9766 44.0004 59.9735 44.0107C61.0161 44.0059 62.0463 43.784 62.9985 43.3592C63.273 44.3033 63.8357 45.138 64.6079 45.7467L63.9391 46.4779C63.4448 47.0183 62.8407 47.4468 62.1673 47.7346C61.4938 48.0224 60.7666 48.1629 60.0344 48.1467H60.036ZM59.9204 22.117C63.3672 22.117 66.3172 24.8061 67.4782 28.5811C65.4985 26.6811 63.4438 25.5123 60.0751 25.7357C58.0626 25.6107 56.2719 26.517 55.2579 27.4123C55.0586 27.5879 54.8736 27.7791 54.7047 27.9842C54.4867 27.4598 54.1368 27.0007 53.6891 26.6514C53.6797 26.3842 53.6657 26.1201 53.6469 25.8561C55.1563 23.567 57.4266 22.117 59.9188 22.117H59.9204ZM53.9297 32.4607C54.0188 32.2967 54.0985 32.1326 54.1719 31.9701L55.1282 31.5529C55.4571 31.4085 55.7391 31.175 55.9423 30.8787C56.1456 30.5824 56.2619 30.2353 56.2782 29.8764C56.3313 29.392 57.9876 27.9248 59.9829 28.0779C60.0417 28.0818 60.1006 28.0818 60.1594 28.0779C63.7751 27.8139 65.3235 29.5529 68.1282 32.7107L68.1985 32.7889C68.3266 32.9795 68.5074 33.1288 68.7188 33.2186C68.7829 33.2597 68.8386 33.3128 68.8829 33.3748C68.8269 33.9276 68.6679 34.465 68.4141 34.9592C68.0235 35.6748 67.5907 35.7732 67.3001 35.7857C67.0751 35.7949 66.8576 35.8688 66.6736 35.9985C66.4895 36.1282 66.3468 36.3082 66.2626 36.517C65.6976 37.9329 64.7999 39.1918 63.6454 40.1873C63.5626 40.2576 63.4751 40.3264 63.386 40.392C63.2993 40.4387 63.2194 40.497 63.1485 40.5654C62.2224 41.2475 61.1078 41.6263 59.9579 41.6498C58.9391 41.6498 57.861 41.2826 56.8329 40.5857C56.7868 40.5472 56.7371 40.5131 56.6844 40.4842C56.5719 40.4045 56.461 40.3279 56.3547 40.2373C55.1253 39.2402 54.1756 37.9411 53.5985 36.467C53.5153 36.2554 53.3723 36.0725 53.187 35.9407C53.0016 35.8089 52.782 35.7339 52.5547 35.7248C51.9751 35.7014 51.6172 35.2639 51.3829 34.7717C52.4313 34.4061 53.2954 33.6217 53.9282 32.4607H53.9297ZM29.9001 48.3889L29.4313 47.8279L28.9344 47.2232L30.9657 46.5576L31.1782 46.4873L32.7813 48.3623C34.1757 50.0013 36.0724 51.1339 38.1766 51.5842C38.7931 51.7171 39.4211 51.7893 40.0516 51.7998H40.2266C40.6733 51.803 41.1196 51.7758 41.5626 51.7186C43.8223 51.4067 45.902 50.3152 47.4422 48.6326L47.5438 48.5217C47.5907 48.5061 47.6376 48.4936 47.6844 48.4811L47.7516 48.4607L49.9501 47.742L50.9469 47.417L51.7985 47.1389L51.3969 47.5904L50.5813 48.5092L43.161 56.8529L40.2891 60.0826L39.8922 60.5295L39.636 60.217L36.6766 56.6232L29.9001 48.3889ZM33.5938 40.7451C33.5986 41.4685 33.373 42.1746 32.9496 42.7612C32.5263 43.3478 31.9272 43.7843 31.2391 44.0076L31.1829 44.0264L28.4282 44.9264L26.8938 44.3357L26.6876 44.2561C26.2464 44.0865 25.8655 43.79 25.593 43.404C25.3204 43.0179 25.1684 42.5597 25.1563 42.0873V42.0045L25.1672 41.9951C26.4459 40.9013 27.4748 39.5458 28.1844 38.0201C28.94 37.8064 29.6036 37.3488 30.0719 36.7186C30.96 38.1473 32.0837 39.4152 33.3954 40.4686C33.4579 40.5186 33.5219 40.5686 33.5876 40.6248L33.5938 40.7451ZM35.8063 41.9857C37.119 42.6342 38.561 42.9786 40.0251 42.9936C41.5527 42.9832 43.0572 42.619 44.4204 41.9295C44.7334 43.4728 45.6417 44.8306 46.9485 45.7092L46.2282 46.4904L45.7251 47.042C45.4832 47.3073 45.2221 47.5543 44.9438 47.7811L44.8313 47.8717C44.711 47.967 44.5876 48.0576 44.4626 48.142C44.4001 48.1857 44.3376 48.2279 44.2735 48.2686C44.0044 48.4439 43.7235 48.6005 43.4329 48.7373L43.2876 48.8045L43.1407 48.8686C43.0891 48.892 43.036 48.9139 42.9844 48.9342C41.5433 49.5061 39.9591 49.612 38.4547 49.237C36.9502 48.862 35.6011 48.025 34.5969 46.8436L33.4376 45.5076C34.6473 44.6798 35.493 43.4191 35.8001 41.9857H35.8063ZM51.0172 44.9295L48.986 44.1482C48.3084 43.8891 47.723 43.4347 47.3041 42.8424C46.8852 42.2502 46.6516 41.5469 46.6329 40.8217L46.6235 40.5092L46.7954 40.367C48.0079 39.3397 49.05 38.1267 49.8829 36.7732C50.3436 37.3536 50.9774 37.7718 51.6922 37.967C52.4324 39.5685 53.531 40.9783 54.9032 42.0873L54.9266 42.1061C54.9183 42.5631 54.7674 43.0062 54.4952 43.3734C54.2229 43.7406 53.8428 44.0137 53.4079 44.1545L53.3579 44.1717L51.0172 44.9295ZM28.6329 25.4076V25.3607C29.461 18.4592 34.3157 13.2607 39.9438 13.2607C45.2672 13.2607 49.7501 17.7748 51.0001 23.8576C48.0126 20.717 45.1844 18.6779 40.1532 19.0139C37.536 18.8389 35.2063 20.0154 33.8891 21.1842C32.8969 22.0639 32.3141 23.0592 32.2407 23.9967L28.7282 25.5279L28.6063 25.5811C28.6188 25.5295 28.6251 25.4686 28.6329 25.4076ZM27.5735 28.9061C27.6016 28.8639 27.636 28.8201 27.6719 28.7748C27.7688 28.6592 27.8813 28.5342 27.9954 28.4232L29.6516 27.6998L33.2704 26.1217C33.6457 25.9565 33.9674 25.6898 34.1993 25.3516C34.4312 25.0135 34.5641 24.6172 34.5829 24.2076C34.5829 24.0186 34.7813 23.542 35.4501 22.9482C36.3782 22.1248 38.1422 21.2154 40.0672 21.367C40.126 21.3709 40.185 21.3709 40.2438 21.367C44.961 21.0217 47.1563 23.0467 50.5235 26.7982L51.4172 27.8014L51.5376 27.9357C51.6723 28.1442 51.8699 28.3046 52.1016 28.3936C52.1918 28.4547 52.2761 28.5243 52.3532 28.6014C52.411 28.65 52.4581 28.7101 52.4914 28.7779C52.5248 28.8457 52.5437 28.9196 52.5469 28.9951C52.51 29.4105 52.4325 29.8213 52.3157 30.2217C52.2059 30.6096 52.0551 30.9846 51.8657 31.3404L51.8391 31.3873C51.1391 32.6373 50.286 32.6717 50.0016 32.6842C49.8629 32.6903 49.7265 32.721 49.5985 32.7748C49.4554 32.8339 49.3255 32.921 49.2166 33.031C49.1076 33.141 49.0218 33.2717 48.9641 33.4154C48.8912 33.5967 48.8131 33.7764 48.7297 33.9545C47.9375 35.7259 46.7637 37.3004 45.2922 38.5654C45.1657 38.6701 45.0344 38.7748 44.9001 38.8779C44.7904 38.933 44.6906 39.0059 44.6047 39.0936C43.1594 40.1139 41.5751 40.6561 40.0141 40.6561C38.5422 40.6561 36.9922 40.1295 35.5219 39.1295C35.4607 39.077 35.3942 39.0309 35.3235 38.992H35.3141C35.1579 38.8811 35.0016 38.7654 34.8563 38.6482C33.2721 37.3664 32.0165 35.7251 31.1938 33.8607C31.1188 33.692 31.0485 33.5217 30.9813 33.3514C30.917 33.1861 30.8156 33.0378 30.6851 32.9179C30.5545 32.7979 30.3982 32.7094 30.2282 32.6592C30.1345 32.6298 30.0373 32.613 29.9391 32.6092C28.9219 32.567 28.3157 31.8279 27.9563 31.0248C27.696 30.4108 27.5285 29.7615 27.4594 29.0982C27.4914 29.0308 27.5296 28.9664 27.5735 28.9061ZM19.9172 22.1217C22.4688 22.1217 24.7485 23.5936 26.2297 25.8904C26.2016 26.2326 26.1844 26.5779 26.1751 26.9217C26.0797 27.0217 25.9782 27.1326 25.8797 27.2545C24.3282 26.1607 22.5579 25.5748 20.0719 25.7404C18.0594 25.6154 16.2688 26.5217 15.2563 27.417C14.5297 28.0607 14.0782 28.7936 13.9626 29.5092L11.9532 30.3811C12.6657 25.6436 16.036 22.117 19.9204 22.117L19.9172 22.1217ZM13.6063 36.4748C13.5231 36.2632 13.3801 36.0803 13.1948 35.9485C13.0095 35.8167 12.7898 35.7417 12.5626 35.7326C11.4266 35.6857 11.1157 34.0451 11.0454 33.5232C11.1221 33.4166 11.2072 33.3162 11.3001 33.2232L15.1282 31.5529C15.4571 31.4085 15.7391 31.175 15.9423 30.8787C16.1456 30.5824 16.2619 30.2353 16.2782 29.8764C16.3313 29.392 17.9891 27.9248 19.9829 28.0779C20.0417 28.0818 20.1006 28.0818 20.1594 28.0779C22.3344 27.9217 23.7532 28.4842 25.1594 29.6498C25.4047 31.4357 26.3376 33.917 28.5501 34.6967C28.5094 34.7889 28.4672 34.8795 28.4188 34.967C28.0282 35.6826 27.5969 35.7811 27.3047 35.7936C27.0798 35.8029 26.8624 35.8769 26.6784 36.0066C26.4944 36.1362 26.3517 36.3162 26.2672 36.5248C25.7023 37.9407 24.8046 39.1996 23.6501 40.1951C23.5672 40.2639 23.4829 40.3311 23.3954 40.3967C23.3063 40.4445 23.2242 40.5044 23.1516 40.5748C22.2261 41.2567 21.1119 41.635 19.9626 41.6576C18.9454 41.6576 17.8657 41.2904 16.8376 40.5936C16.7884 40.5531 16.7362 40.5165 16.6813 40.4842C16.5719 40.4092 16.4641 40.3279 16.3594 40.2451C15.1311 39.2476 14.1825 37.9485 13.6063 36.4748ZM24.6016 45.7389L24.0329 46.3639L22.5922 46.8326C21.5608 47.1042 20.5799 47.5406 19.6876 48.1248C18.3339 48.0092 17.0807 47.364 16.2001 46.3295L15.5751 45.592C16.2855 45.0227 16.8072 44.2521 17.0719 43.3811C17.9842 43.7832 18.9687 43.9958 19.9657 44.0061C21.0083 44.0012 22.0385 43.7793 22.9907 43.3545C23.2666 44.2975 23.8297 45.131 24.6016 45.7389ZM13.3735 46.6232L14.4188 47.8514C15.2554 48.8342 16.3319 49.584 17.5438 50.0279C17.0795 50.5739 16.6717 51.1654 16.3266 51.7936L12.3438 46.9607L13.3735 46.6232ZM15.3376 54.2873C15.1201 55.1408 15.0068 56.0175 15.0001 56.8982L14.386 60.8623H9.81881V55.2467C9.81881 54.9359 9.69534 54.6378 9.47557 54.418C9.25581 54.1983 8.95773 54.0748 8.64693 54.0748C8.33613 54.0748 8.03806 54.1983 7.81829 54.418C7.59852 54.6378 7.47506 54.9359 7.47506 55.2467V60.8623H2.53912L3.57506 54.1764C3.58446 54.1169 3.58916 54.0569 3.58912 53.9967C3.58912 51.3795 5.2735 49.1092 7.68443 48.4795L7.75162 48.4592L9.95006 47.7404L15.3376 54.2857V54.2873ZM56.5391 66.7373V59.2264C56.5391 58.9156 56.4157 58.6175 56.1959 58.3977C55.9761 58.178 55.678 58.0545 55.3672 58.0545C55.0564 58.0545 54.7584 58.178 54.5386 58.3977C54.3188 58.6175 54.1954 58.9156 54.1954 59.2264V66.7373H25.8047V58.6889C25.8047 58.3781 25.6813 58.08 25.4615 57.8602C25.2417 57.6405 24.9437 57.517 24.6329 57.517C24.3221 57.517 24.024 57.6405 23.8042 57.8602C23.5845 58.08 23.461 58.3781 23.461 58.6889V66.7373H15.8469L16.3938 63.2061L16.7579 60.8623L17.3297 57.1701C17.3386 57.1112 17.3428 57.0516 17.3422 56.992V56.7279C17.3738 55.7193 17.5855 54.7245 17.9672 53.7904C18.4891 52.4935 19.3387 51.3543 20.4329 50.4842C21.256 49.8315 22.2058 49.3568 23.2219 49.0904C23.2454 49.0904 23.2672 49.0779 23.2907 49.0717L25.3219 48.4092L26.5532 48.0061L26.8219 48.3326L28.3235 50.1561L37.1297 60.8561L38.9501 63.0686C38.9607 63.0823 38.9722 63.0953 38.9844 63.1076C39.0016 63.1264 39.0188 63.1451 39.0376 63.1623C39.0494 63.1755 39.0625 63.1875 39.0766 63.1982C39.1047 63.2232 39.1329 63.2467 39.1626 63.2686L39.2485 63.3264L39.261 63.3342L39.3469 63.3795C39.3913 63.4013 39.4372 63.4196 39.4844 63.4342C39.5084 63.4436 39.5329 63.4515 39.5579 63.4576L39.6235 63.4717H39.6594L39.7438 63.4826H39.9532C39.9726 63.4816 39.992 63.4789 40.011 63.4748L40.0641 63.467L40.1126 63.4561C40.1417 63.4498 40.1714 63.442 40.2016 63.4326C40.2313 63.4232 40.2594 63.4123 40.2891 63.3998H40.3032C40.3199 63.3933 40.3361 63.3854 40.3516 63.3764C40.3798 63.3645 40.407 63.3504 40.4329 63.3342C40.4583 63.32 40.4828 63.3044 40.5063 63.2873L40.5469 63.2576C40.5604 63.2502 40.573 63.2413 40.5844 63.2311L40.6235 63.1967C40.6516 63.1701 40.6797 63.142 40.7063 63.1123C40.707 63.1097 40.707 63.1071 40.7063 63.1045L40.7376 63.0686L42.7032 60.8592L47.4485 55.5232L48.7344 54.0779L52.0626 50.3279L53.6391 48.5561L53.7079 48.4779L56.4438 49.5311L56.4657 49.5389C57.1018 49.8918 57.7861 50.1497 58.4969 50.3045C59.9651 51.1167 61.1363 52.3755 61.8407 53.8982C62.3659 55.0346 62.6383 56.2714 62.6391 57.5232C62.6396 57.586 62.6448 57.6487 62.6547 57.7107L63.1672 60.8561L63.5501 63.1998L64.1251 66.7311L56.5391 66.7373ZM72.4391 60.8623V55.6436C72.4391 55.3328 72.3157 55.0347 72.0959 54.8149C71.8761 54.5951 71.578 54.4717 71.2672 54.4717C70.9564 54.4717 70.6584 54.5951 70.4386 54.8149C70.2188 55.0347 70.0954 55.3328 70.0954 55.6436V60.8623H65.5641L65.0047 57.4248C64.9966 56.3999 64.8452 55.3812 64.5547 54.3982L70.1563 48.1045L71.9688 48.8014C72.0199 48.8202 72.072 48.8359 72.1251 48.8482C74.6016 49.4357 76.3329 51.7154 76.3329 54.3936C76.3329 54.4563 76.3376 54.519 76.3469 54.5811L77.3719 60.8623H72.4391Z" fill="#0057B3"/>
</g>
<defs>
<clipPath id="clip0_30_344">
<rect width="80" height="80" fill="white"/>
</clipPath>
</defs>
</svg>
