<svg version="1.1" xmlns="http://www.w3.org/2000/svg" width="512px" height="512px" transform="rotate(0) scale(1, 1)">
<path d="M0 0 C1.12792212 0.95825188 2.25464618 1.91791407 3.38085938 2.87817383 C4.0084314 3.41243484 4.63600342 3.94669586 5.28259277 4.49714661 C7.14652257 6.12821766 8.82676153 7.86252177 10.5 9.6875 C21.71620713 20.98900148 36.29253996 29.36013909 49.40820312 38.24121094 C53.01212622 40.68682718 56.60131758 43.15347272 60.1875 45.625 C65.95113048 49.59390963 71.72327113 53.55017898 77.5 57.5 C84.71048853 62.43074437 91.91381763 67.37171261 99.109375 72.32421875 C101.72161152 74.1219363 104.33636536 75.91590439 106.953125 77.70703125 C119.71572617 86.44832431 132.35941135 95.34591033 144.875 104.4375 C151.79236493 109.46027137 158.80809002 114.31838416 165.88305664 119.1159668 C171.43559782 122.89383763 176.88798049 126.79106663 182.3125 130.75 C206.62531581 148.37111943 235.15664002 165.70825788 266.4609375 161.5390625 C290.03147862 156.95440347 310.7793615 144.92153581 329.75097656 130.65722656 C333.5914643 127.82730572 337.54760144 125.17019172 341.5 122.5 C348.47522678 117.76673429 355.34109124 112.90557245 362.15795898 107.94750977 C369.42447379 102.67004205 376.78224859 97.52760997 384.1484375 92.390625 C387.83766344 89.81701634 391.51095557 87.22219493 395.17700195 84.61572266 C406.01069793 76.91965447 417.01743836 69.48088233 428.01708984 62.02490234 C433.00926123 58.63604415 437.98677292 55.22588439 442.96386719 51.81494141 C447.1255839 48.96385488 451.29197504 46.11990217 455.46484375 43.28515625 C483.62662029 24.49301074 483.62662029 24.49301074 508.8828125 2.08984375 C511 0 511 0 512 0 C512.0684883 30.02216218 512.12155509 60.04432167 512.15319599 90.06654476 C512.15694795 93.61369924 512.16083094 97.16085357 512.16479492 100.70800781 C512.16558185 101.41416041 512.16636878 102.12031301 512.16717956 102.84786417 C512.1802213 114.27071815 512.20386832 125.69352668 512.23145839 137.11635374 C512.25954694 148.84366788 512.27618354 160.57095828 512.28226548 172.29830468 C512.28617443 178.88267036 512.29535371 185.46693306 512.31719017 192.05126572 C512.33758569 198.25147578 512.34382752 204.45154066 512.33932304 210.65178108 C512.34014686 212.92451962 512.34609409 215.19726313 512.35761642 217.46997261 C512.3726083 220.58016458 512.368929 223.68981297 512.36076355 226.80001831 C512.36950207 227.69304464 512.3782406 228.58607097 512.38724393 229.50615871 C512.33117014 237.44318203 510.78127072 245.26630084 506.0625 251.8125 C505.27166016 252.91464844 505.27166016 252.91464844 504.46484375 254.0390625 C503.98144531 254.68617188 503.49804688 255.33328125 503 256 C502.38125 256.886875 501.7625 257.77375 501.125 258.6875 C492.38971952 268.19354052 480.72865951 273.12238376 468 274 C462.30048305 274.14675421 456.60286957 274.13949251 450.90177917 274.13371277 C449.15364814 274.13558248 447.40551752 274.13788382 445.65738755 274.14057809 C440.86661698 274.1466826 436.0758639 274.14656409 431.28509033 274.14538372 C426.1131888 274.14517937 420.94129284 274.15070167 415.76939392 274.15544128 C405.64189565 274.16374079 395.5144032 274.1664958 385.38690182 274.16705366 C377.1539991 274.16752911 368.9210983 274.16958532 360.68819618 274.17275429 C337.33904446 274.18155863 313.98989733 274.18617396 290.64074393 274.18542381 C289.38249912 274.18538386 288.1242543 274.1853439 286.82788086 274.18530273 C285.56809744 274.18526185 284.30831401 274.18522097 283.01035533 274.18517885 C262.59126929 274.18477235 242.17220169 274.19434348 221.75312098 274.2084411 C200.77974664 274.22280701 179.8063813 274.22971118 158.83300191 274.22884732 C147.06090822 274.22851545 135.28883387 274.23125845 123.51674461 274.24202538 C113.49462325 274.25113315 103.47252999 274.2533033 93.45040628 274.24651595 C88.33908987 274.24325228 83.22782738 274.24318861 78.11651611 274.2518692 C73.43279391 274.25974169 68.74916831 274.25829509 64.06544844 274.24958507 C62.3757435 274.24805175 60.68603133 274.24985987 58.99633493 274.25544515 C43.49025186 274.30328468 29.90573161 273.38598662 17 264 C15.7625 263.13375 15.7625 263.13375 14.5 262.25 C6.85986907 255.37388216 0.68408278 245.20363453 -0.18347955 234.79968274 C-0.25102537 232.25136375 -0.2569775 229.70995648 -0.24050903 227.16078186 C-0.24307231 225.70010754 -0.24307231 225.70010754 -0.24568737 224.20992464 C-0.24897405 220.95636184 -0.237992 217.7030066 -0.22705078 214.44946289 C-0.22648649 212.11348475 -0.22680358 209.77750625 -0.22793579 207.44152832 C-0.2285096 201.10533695 -0.21675054 194.76922131 -0.20278788 188.43304753 C-0.19155233 182.48055009 -0.18954109 176.52805555 -0.18748413 170.57554894 C-0.18311117 158.78855156 -0.16981293 147.00158193 -0.15087891 135.21459961 C-0.13250976 123.76733539 -0.11835832 112.32007872 -0.10986328 100.87280273 C-0.10933783 100.16672385 -0.10881239 99.46064496 -0.10827102 98.73316974 C-0.10566087 95.19083934 -0.10313347 91.64850889 -0.10064721 88.1061784 C-0.07992715 58.73743439 -0.04456342 29.36871749 0 0 Z " fill="#0e53be" transform="translate(0,184)"/>
<path d="M0 0 C1.75244713 -0.00230894 3.50489329 -0.00548835 5.25733745 -0.00945449 C10.03683322 -0.01775149 14.81624843 -0.01370057 19.59574437 -0.00748205 C24.76415233 -0.00293765 29.93254689 -0.0099511 35.10095215 -0.01544189 C45.21106296 -0.024316 55.321144 -0.02242284 65.43125595 -0.01661661 C73.64973865 -0.01209281 81.86821303 -0.01149032 90.08669662 -0.01366425 C91.25808826 -0.01397071 92.42947989 -0.01427718 93.63636824 -0.01459293 C96.01628599 -0.0152324 98.39620374 -0.01588083 100.77612148 -0.01653811 C123.07034749 -0.02223547 145.36455702 -0.01569259 167.65878032 -0.00493738 C186.77650591 0.00399993 205.89420722 0.00244345 225.01193237 -0.0067749 C247.23157777 -0.017484 269.45120874 -0.02168866 291.67085636 -0.01555037 C294.04122027 -0.0149133 296.41158418 -0.01428456 298.78194809 -0.01366425 C300.53119466 -0.01320142 300.53119466 -0.01320142 302.31577954 -0.01272924 C310.52271932 -0.0110044 318.72964993 -0.01391282 326.93658829 -0.01862335 C336.94029261 -0.02423917 346.94396556 -0.02270086 356.9476663 -0.01206186 C362.04888901 -0.00681499 367.15005945 -0.00473168 372.25128174 -0.01136017 C376.92555585 -0.01734193 381.59972949 -0.01400788 386.27399455 -0.00340506 C387.96018388 -0.00118049 389.64638179 -0.00228601 391.33256556 -0.00715664 C409.34449051 -0.05517331 424.64721295 1.68899965 438.30050659 14.37896729 C449.17248247 25.97253448 450.86335947 38.36243095 450.64425659 53.48052979 C450.33431013 61.34542133 448.30240032 68.03341223 445.30050659 75.25396729 C444.88929565 76.27232666 444.47808472 77.29068604 444.05441284 78.33990479 C433.6496782 101.37234407 413.58654525 118.2009776 393.30050659 132.25396729 C392.53222534 132.78699463 391.76394409 133.32002197 390.97238159 133.86920166 C387.09501694 136.54972671 383.20232893 139.20685206 379.30050659 141.85162354 C373.85406071 145.54727123 368.45061803 149.30355345 363.05050659 153.06646729 C362.09168579 153.73428223 361.13286499 154.40209717 360.14498901 155.09014893 C358.18673226 156.45441039 356.22864427 157.81891414 354.27072144 159.18365479 C349.30276878 162.64643947 344.33330969 166.10705728 339.36300659 169.56646729 C337.91655762 170.57326538 337.91655762 170.57326538 336.44088745 171.60040283 C331.01027575 175.37763177 325.56931397 179.1389697 320.11300659 182.87896729 C313.4519508 187.44552336 306.83248409 192.06993303 300.22042847 196.70709229 C293.69636863 201.28137607 287.15704573 205.83332289 280.61300659 210.37896729 C273.84398692 215.0816428 267.08964126 219.80336745 260.36300659 224.56646729 C257.67702432 226.4644595 254.98944368 228.36016374 252.30050659 230.25396729 C251.62971069 230.72673096 250.95891479 231.19949463 250.26779175 231.68658447 C210.58456039 259.5720984 210.58456039 259.5720984 186.30050659 257.25396729 C166.4119719 253.51366853 148.46068798 239.13248392 132.44308472 227.43634033 C123.48914456 220.90282166 114.36776243 214.61293471 105.256073 208.30230713 C100.43285911 204.95960396 95.61698511 201.60636447 90.80050659 198.25396729 C88.88778937 196.92317604 86.97502889 195.59244695 85.06222534 194.26177979 C84.11395874 193.60210205 83.16569214 192.94242432 82.18869019 192.26275635 C79.2744957 190.23587619 76.35982305 188.20968533 73.44503784 186.18365479 C64.24041765 179.7846182 55.04196182 173.37727629 45.86300659 166.94146729 C40.02797278 162.85061049 34.17901351 158.78210749 28.30050659 154.75396729 C19.7448376 148.8903838 11.2494626 142.94190619 2.76242065 136.97955322 C0.39125109 135.31757123 -1.98535241 133.66367528 -4.36355591 132.01177979 C-28.57117192 115.1525731 -55.06572336 92.73205275 -61.69949341 62.25396729 C-62.47479875 51.63345886 -62.85619711 40.20486403 -58.69949341 30.25396729 C-58.29730591 29.27427979 -57.89511841 28.29459229 -57.48074341 27.28521729 C-52.62658581 16.60607057 -46.00288529 8.22468536 -35.06541336 3.47416663 C-23.94669221 -0.55654607 -11.67326956 -0.03381656 0 0 Z " fill="#0e53be" transform="translate(61.699493408203125,53.74603271484375)"/>
</svg>