<svg id="_Layer_" data-name=" Layer " xmlns="http://www.w3.org/2000/svg" viewBox="0 0 2589.27 2000.42"><defs><style>.cls-1{fill:#ffb93e;}.cls-2{fill:#ffa412;}.cls-3{fill:#82b378;}.cls-18,.cls-4{fill:#e2810e;}.cls-5{fill:#ffb27d;}.cls-6{fill:#ed975d;}.cls-7{fill:#a9453d;}.cls-8{fill:#2c3a64;}.cls-9{fill:#2b478b;}.cls-10{fill:#233862;}.cls-11{fill:#1e3d70;}.cls-12{fill:#2a4e96;}.cls-13,.cls-14{fill:#ed9f4a;}.cls-13{opacity:0.2;}.cls-13,.cls-14,.cls-18{isolation:isolate;}.cls-14{opacity:0.6;}.cls-15{fill:#f9ddbf;}.cls-16{fill:#f1a34f;}.cls-17{fill:#e5c1a1;}.cls-18{opacity:0.5;}.cls-19{fill:#ed985f;}.cls-20{fill:#ed7d2b;}.cls-21{fill:#f99746;}.cls-22{fill:#2e3552;}</style></defs><path class="cls-1" d="M1584.37,1256.63l23.11,3.8a9.91,9.91,0,0,1,4.76,2.16,8.22,8.22,0,0,1,2.72,4.2,6.78,6.78,0,0,1,.14,2.9l-53.17,322.25c-.68,4.16-5,7-9.73,6.4l-.46-.06-23.11-3.8-.46-.09c-4.65-1-7.85-5-7.16-9.17l53.2-322.26a7.12,7.12,0,0,1,1.06-2.7,8.27,8.27,0,0,1,3.94-3.11A9.86,9.86,0,0,1,1584.37,1256.63Z"/><path class="cls-2" d="M1590.28,1420.14l-28.49,172.64c-.61,3.71-4.87,6.14-9.59,5.56l-.46-.06-23.11-3.8-.46-.09c-4.65-1-7.91-4.63-7.3-8.34l25-151.44C1558.3,1434.17,1575.9,1431.28,1590.28,1420.14Z"/><rect class="cls-2" x="1587.17" y="1278.72" width="3.71" height="41.47" transform="translate(47.96 2655.45) rotate(-80.62)"/><rect class="cls-2" x="1584.44" y="1281.91" width="3.72" height="41.59" transform="translate(47.19 2660.84) rotate(-80.82)"/><rect class="cls-2" x="1582.71" y="1306.02" width="3.71" height="41.47" transform="translate(17.52 2674.17) rotate(-80.63)"/><rect class="cls-2" x="1579.06" y="1328.92" width="3.71" height="41.47" transform="translate(-8.12 2689.74) rotate(-80.63)"/><rect class="cls-2" x="1575.04" y="1352.97" width="3.71" height="41.47" transform="translate(-35.22 2705.91) rotate(-80.63)"/><rect class="cls-2" x="1568.49" y="1380.36" width="3.72" height="41.59" transform="translate(-63.4 2727.85) rotate(-80.82)"/><rect class="cls-2" x="1563.13" y="1424.4" width="3.71" height="41.47" transform="translate(-115.88 2753.66) rotate(-80.62)"/><rect class="cls-2" x="1558.19" y="1455.43" width="3.71" height="41.47" transform="translate(-150.41 2775.07) rotate(-80.63)"/><rect class="cls-2" x="1588.32" y="1257.72" width="3.72" height="41.59" transform="translate(74.33 2644.34) rotate(-80.82)"/><rect class="cls-2" x="1590.51" y="1259.23" width="3.71" height="41.47" transform="translate(70.23 2642.69) rotate(-80.63)"/><rect class="cls-2" x="1590.78" y="1242.43" width="3.72" height="41.59" transform="translate(91.5 2633.91) rotate(-80.82)"/><path class="cls-2" d="M1573.8,1265.25l40.93,6.73.37-2.29a6.46,6.46,0,0,0,.09-1.39l-40.64-6.69a7.11,7.11,0,0,0-.37,1.35Z"/><path class="cls-2" d="M1575.21,1260.26l39.72,6.53a8.22,8.22,0,0,0-2.72-4.2l-33.06-5.44A8.27,8.27,0,0,0,1575.21,1260.26Z"/><path class="cls-1" d="M1626.3,1256.63l23.11,3.8a9.88,9.88,0,0,1,4.75,2.16,8.17,8.17,0,0,1,2.73,4.2,7.06,7.06,0,0,1,.22,1.51,6.45,6.45,0,0,1-.08,1.39l-53.17,322.25c-.69,4.16-5,7-9.74,6.4l-.45-.06-23.12-3.8-.45-.09c-4.65-1-7.85-5-7.17-9.17L1616.1,1263a7.94,7.94,0,0,1,.37-1.35,6.92,6.92,0,0,1,.7-1.35,8.2,8.2,0,0,1,3.93-3.11A10,10,0,0,1,1626.3,1256.63Z"/><path class="cls-2" d="M1632.21,1420.14l-28.49,172.64c-.61,3.71-4.88,6.14-9.6,5.56l-.45-.06-23.12-3.8-.45-.09c-4.66-1-7.92-4.63-7.3-8.34l25-151.44C1600.21,1434.17,1617.82,1431.28,1632.21,1420.14Z"/><rect class="cls-2" x="1629.09" y="1278.72" width="3.71" height="41.47" transform="translate(83.05 2696.81) rotate(-80.62)"/><rect class="cls-2" x="1627.32" y="1291.36" width="3.71" height="41.47" transform="translate(69.58 2706.18) rotate(-80.64)"/><rect class="cls-2" x="1624.63" y="1306.02" width="3.71" height="41.47" transform="translate(52.62 2715.53) rotate(-80.63)"/><rect class="cls-2" x="1620.95" y="1328.87" width="3.71" height="41.47" transform="translate(26.99 2731.03) rotate(-80.63)"/><rect class="cls-2" x="1616.97" y="1352.97" width="3.71" height="41.47" transform="translate(-0.12 2747.28) rotate(-80.63)"/><rect class="cls-2" x="1610.8" y="1389.85" width="3.71" height="41.47" transform="translate(-41.66 2772.07) rotate(-80.63)"/><rect class="cls-2" x="1605.16" y="1424.49" width="3.71" height="41.47" transform="translate(-80.56 2795.5) rotate(-80.63)"/><rect class="cls-2" x="1600.07" y="1455.39" width="3.71" height="41.47" transform="translate(-115.32 2816.35) rotate(-80.63)"/><rect class="cls-2" x="1631.08" y="1266.96" width="3.71" height="41.47" transform="translate(96.57 2689.19) rotate(-80.63)"/><rect class="cls-2" x="1632.59" y="1259.36" width="3.71" height="41.47" transform="translate(105.57 2684.59) rotate(-80.64)"/><rect class="cls-2" x="1633.75" y="1251.77" width="3.71" height="41.47" transform="translate(114.03 2679.38) rotate(-80.64)"/><path class="cls-2" d="M1615.73,1265.25l40.92,6.73.38-2.29a6.45,6.45,0,0,0,.08-1.39l-40.64-6.69a7.94,7.94,0,0,0-.37,1.35Z"/><path class="cls-2" d="M1617.21,1260.26l39.72,6.53a8.17,8.17,0,0,0-2.73-4.2l-33.06-5.44A8.2,8.2,0,0,0,1617.21,1260.26Z"/><path class="cls-1" d="M1473,1566v23.42a9.85,9.85,0,0,1-1.36,5,8.27,8.27,0,0,1-3.72,3.37,6.62,6.62,0,0,1-1.45.46,7.2,7.2,0,0,1-1.39.14l-326.61-.78c-4.21,0-7.67-3.83-7.87-8.58v-24.35c.22-4.75,3.7-8.55,7.91-8.54l326.61.78a7.2,7.2,0,0,1,1.39.14,6.56,6.56,0,0,1,1.44.47,8.23,8.23,0,0,1,3.71,3.39A9.86,9.86,0,0,1,1473,1566Z"/><path class="cls-2" d="M1312.53,1598.07l-175-.42c-3.76,0-6.85-3.83-7-8.58v-24.35c.2-4.75,3.3-8.55,7.06-8.54l153.49.36C1293.55,1568.76,1299.21,1585.69,1312.53,1598.07Z"/><rect class="cls-2" x="1425.46" y="1553.37" width="3.71" height="41.47"/><rect class="cls-2" x="1412.93" y="1553.35" width="3.71" height="41.47"/><rect class="cls-2" x="1382.95" y="1575.66" width="41.47" height="3.71" transform="matrix(0, -1, 1, 0, -177.5, 2977.06)"/><rect class="cls-2" x="1359.77" y="1575.52" width="41.47" height="3.71" transform="translate(-200 2954.3) rotate(-89.87)"/><rect class="cls-2" x="1350.48" y="1553.2" width="3.71" height="41.47"/><rect class="cls-2" x="1313.13" y="1553.11" width="3.71" height="41.47"/><rect class="cls-2" x="1263.08" y="1575.52" width="41.47" height="3.71" transform="translate(-296.69 2857.33) rotate(-89.86)"/><rect class="cls-2" x="1231.66" y="1575.34" width="41.47" height="3.71" transform="matrix(0, -1, 1, 0, -328.07, 2825.46)"/><rect class="cls-2" x="1422.71" y="1575.89" width="41.47" height="3.71" transform="translate(-137.82 3017.33) rotate(-89.86)"/><rect class="cls-2" x="1430.46" y="1575.8" width="41.47" height="3.71" transform="translate(-129.49 3025.54) rotate(-89.88)"/><rect class="cls-2" x="1452.88" y="1553.44" width="3.71" height="41.47"/><path class="cls-2" d="M1462.77,1557l-.08,41.47H1465a7.2,7.2,0,0,0,1.39-.14l.08-41.19a7.2,7.2,0,0,0-1.39-.14Z"/><path class="cls-2" d="M1467.92,1557.57l-.07,40.26a8.27,8.27,0,0,0,3.72-3.37l.06-33.5A8.23,8.23,0,0,0,1467.92,1557.57Z"/><path class="cls-1" d="M1438.13,1524.44v23.42a9.86,9.86,0,0,1-1.37,5,8.19,8.19,0,0,1-3.71,3.37,6.62,6.62,0,0,1-1.45.46,7.2,7.2,0,0,1-1.39.14l-326.61-.77c-4.21,0-7.67-3.83-7.88-8.58v-24.35c.22-4.75,3.69-8.56,7.9-8.55l326.61.78h1.4a6.53,6.53,0,0,1,1.44.46l.21.1.2.1.39.22.23.15a1.37,1.37,0,0,1,.2.13l.37.27.41.35.3.28h0l.2.21c.2.21.39.44.57.67l.16.21.15.22.29.46A9.9,9.9,0,0,1,1438.13,1524.44Z"/><path class="cls-2" d="M1277.69,1556.51l-175-.41c-3.76,0-6.85-3.83-7-8.58v-24.35c.2-4.75,3.3-8.56,7.06-8.55l153.48.37.21,1C1259,1528.13,1264.75,1544.44,1277.69,1556.51Z"/><rect class="cls-2" x="1375.65" y="1534.1" width="41.47" height="3.71" transform="translate(-142.74 2928.85) rotate(-89.87)"/><rect class="cls-2" x="1363.08" y="1534.06" width="41.47" height="3.71" transform="translate(-155.24 2916.24) rotate(-89.87)"/><rect class="cls-2" x="1363.12" y="1511.85" width="3.71" height="41.47"/><rect class="cls-2" x="1340.09" y="1511.8" width="3.71" height="41.47"/><rect class="cls-2" x="1300.61" y="1534.02" width="41.47" height="3.71" transform="translate(-217.3 2854) rotate(-89.88)"/><rect class="cls-2" x="1263.18" y="1533.94" width="41.47" height="3.71" transform="matrix(0, -1, 1, 0, -255.23, 2815.69)"/><rect class="cls-2" x="1243.39" y="1511.57" width="3.71" height="41.47"/><rect class="cls-2" x="1196.8" y="1533.78" width="41.47" height="3.71" transform="translate(-320.64 2749.95) rotate(-89.88)"/><rect class="cls-2" x="1387.6" y="1534.13" width="41.47" height="3.71" transform="translate(-130.84 2940.83) rotate(-89.87)"/><rect class="cls-2" x="1395.76" y="1534.36" width="41.47" height="3.71" transform="translate(-123.18 2948.95) rotate(-89.86)"/><rect class="cls-2" x="1418.13" y="1511.99" width="3.71" height="41.47"/><path class="cls-2" d="M1427.92,1515.39l-.07,41.48h2.36a7.2,7.2,0,0,0,1.39-.14l.07-41.18a6.5,6.5,0,0,0-1.39-.15Z"/><path class="cls-2" d="M1433.08,1516l-.07,40.26a8.24,8.24,0,0,0,3.71-3.37l.06-33.5A8.32,8.32,0,0,0,1433.08,1516Z"/><path class="cls-1" d="M1455.08,1484v23.42a9.85,9.85,0,0,1-1.36,5,8.19,8.19,0,0,1-3.71,3.37,6.62,6.62,0,0,1-1.45.46,7.3,7.3,0,0,1-1.4.14l-326.6-.77a7.07,7.07,0,0,1-3.64-1,9.11,9.11,0,0,1-4.21-7.14,2.67,2.67,0,0,1,0-.4v-24.35c.23-4.75,3.7-8.56,7.91-8.55l326.61.78a6.5,6.5,0,0,1,1.39.15,6.62,6.62,0,0,1,1.45.46,8.37,8.37,0,0,1,3.7,3.39A10,10,0,0,1,1455.08,1484Z"/><path class="cls-2" d="M1294.64,1516.1l-175-.41a5.79,5.79,0,0,1-3.25-1,9.37,9.37,0,0,1-3.75-7.14,2.67,2.67,0,0,1,0-.4V1482.8c.2-4.75,3.31-8.56,7.07-8.55l153.48.37c2.37,11.88,7.81,28.19,20.34,40.49C1293.92,1515.42,1294.27,1515.76,1294.64,1516.1Z"/><path class="cls-1" d="M1463,1442.58V1466a9.85,9.85,0,0,1-1.36,5,8.19,8.19,0,0,1-3.72,3.36,6.56,6.56,0,0,1-1.44.47,7.3,7.3,0,0,1-1.4.14l-326.6-.78c-4.21,0-7.68-3.83-7.88-8.58v-24.35c.21-4.39,3.2-8,7-8.48a7.26,7.26,0,0,1,.93-.06l326.61.77a7.21,7.21,0,0,1,1.39.15,6.64,6.64,0,0,1,1.45.47,8.32,8.32,0,0,1,3.7,3.39A9.84,9.84,0,0,1,1463,1442.58Z"/><path class="cls-2" d="M1302.54,1474.69l-175-.42c-3.76,0-6.85-3.83-7-8.58v-24.35c.18-4.39,2.86-8,6.23-8.48a5.69,5.69,0,0,1,.83-.06l153.49.36v.07C1283.57,1445.39,1289.26,1462.25,1302.54,1474.69Z"/><path class="cls-1" d="M1439,1401.11v23.42a9.86,9.86,0,0,1-1.37,5,8.29,8.29,0,0,1-3.71,3.37,6.62,6.62,0,0,1-1.45.46l-.46.08h-.93l-326.61-.77c-4.21,0-7.67-3.83-7.88-8.58v-.47l0-23.42v-.84a8.8,8.8,0,0,1,5.94-7.89l.24-.07a7,7,0,0,1,1.71-.21l326.6.78h1l.36.07a6.62,6.62,0,0,1,1.45.46,8.32,8.32,0,0,1,3.7,3.39A9.85,9.85,0,0,1,1439,1401.11Z"/><path class="cls-2" d="M1278.6,1433.18l-175-.42c-3.75,0-6.84-3.82-7-8.57v-.47l.05-23.42v-.84c.29-3.91,2.55-7.11,5.49-8l.3-.08a5.84,5.84,0,0,1,1.25-.14l153.52.45a1.59,1.59,0,0,0,.06.3c2.45,12.17,8.13,28.86,21.28,41.16Z"/><path class="cls-1" d="M1438.43,1359.93v23.42a9.85,9.85,0,0,1-1.36,5,8.29,8.29,0,0,1-3.71,3.37,7.54,7.54,0,0,1-1.13.39h0l-.31.07a7.2,7.2,0,0,1-1.39.14l-326.61-.77a5.55,5.55,0,0,1-1-.09,1.78,1.78,0,0,1-.39-.07c-3.55-.74-6.29-4.22-6.47-8.43v-24.34c.23-4.76,3.7-8.56,7.91-8.55l326.61.78H1432a6.62,6.62,0,0,1,1.45.46l.21.1.2.1.39.22.43.28a3.18,3.18,0,0,1,.37.27l.41.35a4,4,0,0,1,.3.28h0l.2.2c.2.22.39.45.57.68l.16.21.15.22c.1.15.2.3.29.46A9.77,9.77,0,0,1,1438.43,1359.93Z"/><path class="cls-2" d="M1278,1392l-175-.42h-.41l-.45-.06c-3.37-.54-6-4.12-6.17-8.51v-24.34c.21-4.76,3.31-8.56,7.07-8.55l153.48.36.21,1c2.52,12,8.18,28.16,20.89,40.2Z"/><path class="cls-1" d="M1455.38,1319.52l-.05,23.42a9.85,9.85,0,0,1-1.36,5,8.27,8.27,0,0,1-3.72,3.37,6.53,6.53,0,0,1-1.44.46,7.3,7.3,0,0,1-1.4.14l-326.6-.78a7,7,0,0,1-3.64-1A9.18,9.18,0,0,1,1113,1343v-24.76c.23-4.75,3.7-8.55,7.91-8.54l326.61.78a7.2,7.2,0,0,1,1.39.14,7.44,7.44,0,0,1,1.45.47,8.32,8.32,0,0,1,3.7,3.39A10,10,0,0,1,1455.38,1319.52Z"/><path class="cls-2" d="M1294.93,1351.59l-175-.42a5.79,5.79,0,0,1-3.25-1,9.41,9.41,0,0,1-3.76-7.14v-24.76c.2-4.75,3.31-8.55,7.06-8.54l153.49.36c2.37,11.88,7.81,28.2,20.34,40.5Z"/><path class="cls-1" d="M1482.14,1278.11v23.42a10.09,10.09,0,0,1-1.36,5,8.27,8.27,0,0,1-3.72,3.37,6.62,6.62,0,0,1-1.45.46,7.2,7.2,0,0,1-1.39.14l-326.61-.78c-4.21,0-7.67-3.83-7.88-8.58V1276.8c.2-4.39,3.19-8,7-8.48a7.42,7.42,0,0,1,.94-.06l326.6.78a7.3,7.3,0,0,1,1.4.14,7.14,7.14,0,0,1,1.44.47,8.23,8.23,0,0,1,3.71,3.39A9.9,9.9,0,0,1,1482.14,1278.11Z"/><path class="cls-2" d="M1321.7,1310.18l-175-.42c-3.75,0-6.84-3.83-7-8.58V1276.8c.18-4.39,2.85-8,6.23-8.48a5.69,5.69,0,0,1,.83-.06l153.49.36v.07C1302.74,1280.93,1308.42,1297.79,1321.7,1310.18Z"/><path class="cls-1" d="M1439.34,1236.6l0,23.42a9.85,9.85,0,0,1-1.36,5,8.29,8.29,0,0,1-3.71,3.37,6.62,6.62,0,0,1-1.45.46l-.46.08h-.93l-326.61-.78c-4.21,0-7.67-3.83-7.88-8.58v-24.35c.23-4.75,3.7-8.55,7.91-8.54l326.61.78h.42a8.28,8.28,0,0,1,1,.13,6.64,6.64,0,0,1,1.45.47,6.24,6.24,0,0,1,.68.35c.14.08.28.16.41.25h0c.14.09.27.19.4.29h.07l.35.29a7.27,7.27,0,0,1,.78.79,2.85,2.85,0,0,1,.23.26h0l.13.17h0c.08.1.15.21.23.33s.21.32.31.49A9.8,9.8,0,0,1,1439.34,1236.6Z"/><path class="cls-2" d="M1278.9,1268.69l-175-.42c-3.75,0-6.85-3.83-7-8.58v-24.35c.21-4.75,3.31-8.55,7.07-8.54l153.48.36c.07.32.13.64.2,1,2.53,12.11,8.24,28.42,21.15,40.5Z"/><path class="cls-1" d="M1463.42,1196.14v23.42a9.85,9.85,0,0,1-1.36,5,8.27,8.27,0,0,1-3.72,3.37,6.53,6.53,0,0,1-1.44.46,7.3,7.3,0,0,1-1.4.14l-326.6-.77a7.1,7.1,0,0,1-3.53-1,9.12,9.12,0,0,1-4.33-7.25V1194.8c.21-4.4,3.2-8,7-8.48a5.82,5.82,0,0,1,.93-.07l326.61.78a7.2,7.2,0,0,1,1.39.14,8.18,8.18,0,0,1,1.45.47,8.37,8.37,0,0,1,3.7,3.39A9.83,9.83,0,0,1,1463.42,1196.14Z"/><path class="cls-2" d="M1303,1228.21l-175-.42a5.82,5.82,0,0,1-3.15-1,9.34,9.34,0,0,1-3.86-7.25v-24.71c.18-4.39,2.85-8,6.23-8.49a5.69,5.69,0,0,1,.83-.06l153.49.36v.07c2.38,11.9,7.84,28.21,20.4,40.5Z"/><path class="cls-1" d="M1439.49,1154.69v23.42a9.85,9.85,0,0,1-1.36,5,8.19,8.19,0,0,1-3.71,3.37,6.12,6.12,0,0,1-1.45.46l-.46.08h-.94l-326.6-.78c-4.21,0-7.67-3.83-7.88-8.58v-24.35c.23-4.75,3.7-8.55,7.91-8.54l326.61.77a6.5,6.5,0,0,1,1.39.15,6.64,6.64,0,0,1,1.45.47,8.3,8.3,0,0,1,3.7,3.38A9.89,9.89,0,0,1,1439.49,1154.69Z"/><path class="cls-2" d="M1279.05,1186.74l-175-.41c-3.76,0-6.85-3.83-7-8.58V1153.4c.21-4.75,3.31-8.55,7.07-8.55l153.48.37c2.43,12.19,8.09,29,21.35,41.46Z"/><rect class="cls-2" x="1392.84" y="1493.89" width="41.47" height="3.71" transform="translate(-85.62 2905.66) rotate(-89.86)"/><rect class="cls-2" x="1380.14" y="1493.74" width="41.47" height="3.71" transform="translate(-97.65 2893.34) rotate(-89.88)"/><rect class="cls-2" x="1365.02" y="1493.67" width="41.47" height="3.71" transform="translate(-112.67 2878.15) rotate(-89.88)"/><rect class="cls-2" x="1342.11" y="1493.77" width="41.47" height="3.71" transform="translate(-136.1 2854.82) rotate(-89.86)"/><rect class="cls-2" x="1317.68" y="1493.71" width="41.47" height="3.71" transform="translate(-160.41 2830.33) rotate(-89.86)"/><rect class="cls-2" x="1280.23" y="1493.63" width="41.47" height="3.71" transform="translate(-197.69 2792.8) rotate(-89.86)"/><rect class="cls-2" x="1245.06" y="1493.43" width="41.47" height="3.71" transform="translate(-232.14 2757.95) rotate(-89.88)"/><rect class="cls-2" x="1213.88" y="1493.47" width="41.47" height="3.71" transform="translate(-263.72 2726.28) rotate(-89.86)"/><rect class="cls-2" x="1419.54" y="1471.63" width="3.71" height="41.47"/><rect class="cls-2" x="1412.57" y="1493.83" width="41.47" height="3.71" transform="translate(-65.38 2925.86) rotate(-89.88)"/><rect class="cls-2" x="1435.03" y="1471.67" width="3.71" height="41.47"/><path class="cls-2" d="M1444.87,1475l-.07,41.48h2.32a7.2,7.2,0,0,0,1.39-.14l.07-41.18a6.5,6.5,0,0,0-1.39-.15Z"/><path class="cls-2" d="M1450,1475.6l-.07,40.26a8.29,8.29,0,0,0,3.71-3.37l.06-33.5A8.32,8.32,0,0,0,1450,1475.6Z"/><rect class="cls-2" x="1303.16" y="1429.98" width="3.71" height="41.47"/><rect class="cls-2" x="1252.85" y="1451.88" width="41.47" height="3.71" transform="translate(-183.04 2724.02) rotate(-89.87)"/><rect class="cls-2" x="1221.77" y="1452.02" width="41.47" height="3.71" transform="translate(-214.4 2692.82) rotate(-89.86)"/><path class="cls-2" d="M1435.13,1475l.08-41.47H1432l.52-.08.08-41.19c-.23,0-.46-.08-.69-.1l.07-40.19h1.45l-.07,39.84a8.29,8.29,0,0,0,3.71-3.37l.06-33.5a8.45,8.45,0,0,0-2.94-3h1.3l.07-41.47h-3.71l-.07,40.56a6.75,6.75,0,0,0-1.19-.11h-2.33l-.07,41.48h.68l-.07,41.17h2.74l-.08,41.43Z"/><rect class="cls-2" x="1420.61" y="1452.48" width="41.47" height="3.71" transform="translate(-16.51 2892.12) rotate(-89.86)"/><rect class="cls-2" x="1442.5" y="1429.98" width="3.71" height="41.47"/><path class="cls-2" d="M1452.77,1433.53l-.08,41.47H1455a6.59,6.59,0,0,0,1.4-.15l.07-41.18a6.5,6.5,0,0,0-1.39-.15Z"/><path class="cls-2" d="M1457.93,1434.15l-.08,40.25a8.16,8.16,0,0,0,3.72-3.37l.06-33.5A8.35,8.35,0,0,0,1457.93,1434.15Z"/><polygon class="cls-2" points="1399.24 1433.47 1399.31 1391.99 1398.63 1391.99 1398.7 1350.81 1394.99 1350.8 1394.91 1392.28 1395.6 1392.28 1395.53 1433.39 1391.9 1433.38 1391.83 1474.86 1395.54 1474.86 1395.61 1433.46 1399.24 1433.47"/><polygon class="cls-2" points="1371.68 1391.93 1370.99 1391.92 1371.07 1350.75 1367.36 1350.74 1367.28 1392.21 1367.97 1392.21 1367.89 1433.39 1368.81 1433.39 1368.73 1474.8 1372.44 1474.81 1372.52 1433.34 1371.6 1433.33 1371.68 1391.93"/><path class="cls-2" d="M1434,1392.69l-.07,40.26a8.29,8.29,0,0,0,3.71-3.37l.06-33.5A8.21,8.21,0,0,0,1434,1392.69Z"/><polygon class="cls-2" points="1347.97 1350.69 1344.26 1350.68 1344.18 1392.16 1344.87 1392.16 1344.8 1433.27 1344.38 1433.27 1344.31 1474.74 1348.02 1474.75 1348.1 1433.34 1348.51 1433.34 1348.58 1391.87 1347.9 1391.87 1347.97 1350.69"/><polygon class="cls-2" points="1323.55 1350.63 1319.84 1350.62 1319.76 1392.1 1320.45 1392.1 1320.37 1433.28 1324.08 1433.29 1324.16 1391.81 1323.47 1391.81 1323.55 1350.63"/><polygon class="cls-2" points="1286.11 1350.55 1282.39 1350.54 1282.32 1392.01 1283 1392.01 1282.93 1433.19 1286.64 1433.2 1286.72 1391.72 1286.03 1391.72 1286.11 1350.55"/><polygon class="cls-2" points="1251.05 1350.46 1247.34 1350.45 1247.26 1391.93 1247.95 1391.93 1247.87 1433.11 1251.59 1433.11 1251.66 1391.64 1250.97 1391.64 1251.05 1350.46"/><polygon class="cls-2" points="1219.74 1350.39 1216.03 1350.38 1215.96 1391.85 1216.64 1391.85 1216.57 1433.03 1220.28 1433.04 1220.36 1391.57 1219.67 1391.57 1219.74 1350.39"/><polygon class="cls-2" points="1410.66 1350.84 1406.95 1350.83 1406.87 1392.31 1407.56 1392.31 1407.49 1433.42 1406.97 1433.42 1406.89 1474.89 1410.61 1474.9 1410.68 1433.49 1411.2 1433.49 1411.27 1392.02 1410.59 1392.02 1410.66 1350.84"/><polygon class="cls-2" points="1418.56 1350.86 1415.58 1350.85 1415.65 1310.4 1411.94 1310.39 1411.86 1351.87 1414.85 1351.87 1414.78 1392.32 1415.46 1392.33 1415.39 1433.5 1419.1 1433.51 1419.17 1392.04 1418.49 1392.04 1418.56 1350.86"/><rect class="cls-2" x="1380.58" y="1329.35" width="41.47" height="3.71" transform="translate(66.69 2729.26) rotate(-89.86)"/><polygon class="cls-2" points="1384.23 1350.78 1382.42 1350.78 1382.35 1392.25 1383.03 1392.25 1382.96 1433.43 1386.67 1433.44 1386.75 1391.96 1386.06 1391.96 1386.13 1351.81 1387.94 1351.81 1388.02 1310.34 1384.31 1310.33 1384.23 1350.78"/><rect class="cls-2" x="1342.25" y="1329.14" width="41.47" height="3.71" transform="matrix(0, -1, 1, 0, 28.43, 2690.49)"/><rect class="cls-2" x="1317.99" y="1329.19" width="41.47" height="3.71" transform="translate(4.41 2666.51) rotate(-89.86)"/><rect class="cls-2" x="1280.3" y="1328.92" width="41.47" height="3.71" transform="translate(-32.69 2628.79) rotate(-89.87)"/><rect class="cls-2" x="1245.31" y="1328.89" width="41.47" height="3.71" transform="translate(-67.35 2594) rotate(-89.88)"/><rect class="cls-2" x="1214.17" y="1328.95" width="41.47" height="3.71" transform="translate(-98.91 2562.46) rotate(-89.86)"/><polygon class="cls-2" points="1423.82 1350.87 1422.48 1350.87 1422.4 1392.34 1423.09 1392.34 1423.02 1433.46 1419.54 1433.45 1419.46 1474.92 1423.17 1474.93 1423.25 1433.52 1426.73 1433.53 1426.81 1392.06 1426.12 1392.06 1426.19 1351.9 1427.53 1351.9 1427.61 1310.43 1423.9 1310.42 1423.82 1350.87"/><rect class="cls-2" x="1435.33" y="1307.55" width="3.71" height="41.47"/><path class="cls-2" d="M1448.81,1351.81l.07-41.18a6.5,6.5,0,0,0-1.39-.15h-2.28l-.08,41.47h2.33A6.8,6.8,0,0,0,1448.81,1351.81Z"/><path class="cls-2" d="M1454,1348l.06-33.5a8.37,8.37,0,0,0-3.7-3.39l-.08,40.26A8.27,8.27,0,0,0,1454,1348Z"/><rect class="cls-2" x="1419.92" y="1287.96" width="41.47" height="3.71" transform="translate(147.32 2727.31) rotate(-89.86)"/><rect class="cls-2" x="1384" y="1266.05" width="3.71" height="41.47"/><rect class="cls-2" x="1344.75" y="1287.79" width="41.47" height="3.71" transform="translate(72.51 2651.98) rotate(-89.86)"/><rect class="cls-2" x="1307.31" y="1287.69" width="41.47" height="3.71" transform="translate(35.26 2614.43) rotate(-89.86)"/><rect class="cls-2" x="1272.25" y="1287.61" width="41.47" height="3.71" transform="translate(0.37 2579.3) rotate(-89.86)"/><rect class="cls-2" x="1240.81" y="1287.44" width="41.47" height="3.71" transform="translate(-30.39 2548.14) rotate(-89.88)"/><rect class="cls-2" x="1431.87" y="1287.99" width="41.47" height="3.71" transform="translate(159.22 2739.3) rotate(-89.86)"/><rect class="cls-2" x="1454.43" y="1266.22" width="3.71" height="41.47"/><rect class="cls-2" x="1447.15" y="1287.84" width="41.47" height="3.71" transform="translate(174.86 2754.65) rotate(-89.87)"/><path class="cls-2" d="M1471.94,1269.06l-.08,41.47h2.35a7.3,7.3,0,0,0,1.4-.14l.07-41.19a7.2,7.2,0,0,0-1.39-.14Z"/><path class="cls-2" d="M1477.09,1269.69,1477,1310a8.27,8.27,0,0,0,3.72-3.37l.06-33.5A8.23,8.23,0,0,0,1477.09,1269.69Z"/><polygon class="cls-2" points="1395.82 1268.95 1399.54 1268.96 1399.61 1227.48 1395.99 1227.47 1396.06 1187.02 1399.68 1187.03 1399.76 1145.56 1396.05 1145.55 1395.97 1186.96 1392.35 1186.95 1392.28 1228.42 1395.9 1228.43 1395.82 1268.95"/><rect class="cls-2" x="1364.38" y="1246.3" width="41.47" height="3.71" transform="matrix(0, -1, 1, 0, 133.34, 2630)"/><rect class="cls-2" x="1301.95" y="1246.27" width="41.47" height="3.71" transform="translate(71.33 2567.75) rotate(-89.86)"/><rect class="cls-2" x="1264.26" y="1246.01" width="41.47" height="3.71" transform="translate(34.23 2530.03) rotate(-89.87)"/><rect class="cls-2" x="1244.6" y="1224.41" width="3.71" height="41.47"/><rect class="cls-2" x="1197.91" y="1245.86" width="41.47" height="3.71" transform="translate(-31.82 2463.52) rotate(-89.87)"/><polygon class="cls-2" points="1407.79 1268.97 1411.07 1268.98 1411 1310.39 1414.71 1310.4 1414.78 1268.93 1411.5 1268.92 1411.57 1227.51 1411.06 1227.51 1411.13 1187.06 1411.64 1187.06 1411.72 1145.59 1408.01 1145.58 1407.93 1186.99 1407.42 1186.98 1407.34 1228.46 1407.86 1228.46 1407.79 1268.97"/><rect class="cls-2" x="1397" y="1246.51" width="41.47" height="3.71" transform="translate(166.65 2663.69) rotate(-89.89)"/><path class="cls-2" d="M1434.93,1228.52h.65l.08-41.47h-3.26a3.12,3.12,0,0,0,.52-.08l.07-41.18a6.5,6.5,0,0,0-1.39-.15h-2.32l-.07,41.47H1432l-.08,40.5h-2.74l-.07,41.41h-2l.07-41.41h-3.48l.08-40.45h3.48l.07-41.48h-3.71l-.07,41.41H1420l-.08,41.48h3.48l-.07,40.52h2.82l-.08,41.41h3.72l.07-41.41h1.53a7.2,7.2,0,0,0,1.39-.14l.07-40.37h1.45l-.07,39.91a8.29,8.29,0,0,0,3.71-3.37l.06-33.5A8.36,8.36,0,0,0,1434.93,1228.52Z"/><rect class="cls-2" x="1288.46" y="1205.63" width="41.47" height="3.71" transform="translate(98.97 2514.15) rotate(-89.88)"/><rect class="cls-2" x="1268.63" y="1184.05" width="3.71" height="41.47"/><rect class="cls-2" x="1222.22" y="1205.56" width="41.47" height="3.71" transform="translate(32.51 2447.42) rotate(-89.86)"/><rect class="cls-2" x="1420.81" y="1205.87" width="41.47" height="3.71" transform="translate(230.56 2646.52) rotate(-89.87)"/><rect class="cls-2" x="1443.35" y="1184.46" width="3.71" height="41.47"/><path class="cls-2" d="M1453.21,1187.09l-.08,41.48h2.32a7.3,7.3,0,0,0,1.4-.14l.07-41.19a7.2,7.2,0,0,0-1.39-.14Z"/><path class="cls-2" d="M1462,1224.6l.06-33.5a8.32,8.32,0,0,0-3.7-3.39l-.08,40.26A8.27,8.27,0,0,0,1462,1224.6Z"/><rect class="cls-2" x="1364.68" y="1164.49" width="41.47" height="3.71" transform="translate(215.69 2548.9) rotate(-89.86)"/><polygon class="cls-2" points="1372.13 1145.49 1368.41 1145.48 1368.34 1186.96 1369.26 1186.96 1369.18 1227.41 1368.27 1227.41 1368.19 1268.88 1371.9 1268.89 1371.98 1228.37 1372.89 1228.37 1372.97 1186.9 1372.05 1186.9 1372.13 1145.49"/><polygon class="cls-2" points="1345.24 1186.84 1344.83 1186.83 1344.76 1228.31 1345.17 1228.31 1345.09 1268.83 1348.81 1268.83 1348.88 1227.36 1348.47 1227.36 1348.55 1186.91 1348.96 1186.91 1349.03 1145.44 1345.32 1145.43 1345.24 1186.84"/><rect class="cls-2" x="1317.07" y="1142.85" width="3.71" height="41.47"/><rect class="cls-2" x="1279.73" y="1142.76" width="3.71" height="41.47"/><rect class="cls-2" x="1229.49" y="1164.09" width="41.47" height="3.71" transform="matrix(0, -1, 1, 0, 81, 2413.11)"/><rect class="cls-2" x="1198.16" y="1164.01" width="41.47" height="3.71" transform="translate(50.48 2382.32) rotate(-89.88)"/><rect class="cls-2" x="1396.95" y="1164.46" width="41.47" height="3.71" transform="matrix(0, -1, 1, 0, 247.66, 2580.95)"/><path class="cls-2" d="M1434.44,1146.25l-.07,40.25a8.19,8.19,0,0,0,3.71-3.37l.06-33.5A8.19,8.19,0,0,0,1434.44,1146.25Z"/><path class="cls-1" d="M1543.26,1256.82l23.06,4.09a9.79,9.79,0,0,1,4.72,2.22,8.24,8.24,0,0,1,2.68,4.24,6.37,6.37,0,0,1,.2,1.5,6,6,0,0,1-.1,1.4l-57.29,321.55c-.74,4.14-5.1,6.89-9.81,6.27l-.46-.07-23.06-4.1-.46-.09c-4.64-1-7.78-5.12-7-9.27L1533,1263a4.15,4.15,0,0,1,.14-.61,2.5,2.5,0,0,1,.07-.26.79.79,0,0,1,.1-.28,1.21,1.21,0,0,0,.07-.2,6.92,6.92,0,0,1,.72-1.34l.12-.19.14-.18.28-.35.19-.2a1.29,1.29,0,0,1,.16-.17l.33-.32.41-.34.34-.25h0l.24-.17a7.15,7.15,0,0,1,.76-.44l.24-.12.24-.11a4.4,4.4,0,0,1,.5-.21A9.93,9.93,0,0,1,1543.26,1256.82Z"/><path class="cls-2" d="M1547.08,1420.39l-30.7,172.3c-.66,3.7-5,6.08-9.66,5.44l-.46-.07-23.06-4.1-.46-.09c-4.64-1-7.85-4.73-7.19-8.43l26.92-151.11h1C1515.89,1433.86,1533,1431,1547.08,1420.39Z"/><rect class="cls-2" x="1545.61" y="1279.06" width="3.71" height="41.47" transform="translate(-4.02 2594.8) rotate(-79.88)"/><rect class="cls-2" x="1543.37" y="1291.41" width="3.71" height="41.47" transform="translate(-17.34 2603.59) rotate(-79.91)"/><rect class="cls-2" x="1540.67" y="1306.17" width="3.71" height="41.47" transform="translate(-34.33 2612.84) rotate(-79.9)"/><rect class="cls-2" x="1536.62" y="1328.91" width="3.71" height="41.47" transform="translate(-60.05 2627.6) rotate(-79.9)"/><rect class="cls-2" x="1532.41" y="1353.01" width="3.71" height="41.47" transform="translate(-87.04 2643.61) rotate(-79.91)"/><rect class="cls-2" x="1526" y="1390.06" width="3.71" height="41.47" transform="translate(-129.23 2667.28) rotate(-79.89)"/><rect class="cls-2" x="1519.69" y="1424.39" width="3.71" height="41.47" transform="translate(-167.8 2689.96) rotate(-79.91)"/><rect class="cls-2" x="1514.29" y="1455.31" width="3.71" height="41.47" transform="translate(-203.34 2709.25) rotate(-79.88)"/><rect class="cls-2" x="1547.62" y="1267.2" width="3.71" height="41.47" transform="translate(9.77 2587.53) rotate(-79.9)"/><rect class="cls-2" x="1549.25" y="1259.65" width="3.71" height="41.47" transform="translate(18.32 2582.65) rotate(-79.89)"/><rect class="cls-2" x="1550.34" y="1251.91" width="3.71" height="41.47" transform="translate(27.07 2577.6) rotate(-79.9)"/><path class="cls-2" d="M1532.58,1265.3l40.83,7.26.41-2.29a6.56,6.56,0,0,0,.1-1.4l-40.55-7.2a7.14,7.14,0,0,0-.38,1.35Z"/><path class="cls-2" d="M1534.08,1260.33l39.64,7a8.24,8.24,0,0,0-2.68-4.24l-33-5.86A8.3,8.3,0,0,0,1534.08,1260.33Z"/><path class="cls-3" d="M2321.67,1598.05H2181.32c-7.52-6.38,5.21-20.87,18.5-21.85,5.78-.43,13.08.78,21.43,2.54,1.93-25.65,13-141,54.52-136.34,46.74,5.19,0,50.78-13.21,77.78-9.79,20-20.11,48.67-24.83,62.2,3.8.82,7.73,1.63,11.74,2.37,6.19-19,29.24-83,58.56-79.28,34.41,4.37,20.58,30-3.82,45.25-17.89,11.2-39.87,27.11-50.31,34.8a148.51,148.51,0,0,0,27.45,2.2C2305.39,1587.15,2317.13,1594.23,2321.67,1598.05Z"/><path class="cls-3" d="M491.64,1593.39c-5.57-8.76-22.35-31.49-44.69-28.48-24.35,3.28,26.88,19.33,42.57,28.54a26,26,0,0,1-8.68-1c-10.49-3.74-28.44,3.43-34.19,5.94h99.83a15.84,15.84,0,0,0-7.14-9.13c-1.63-1-4.93-1.14-9.18-.81,5.93-7,10-29.35-6.47-23.6-12.07,4.2-12,17.86-10.85,25.94-2.57.4-5.18.81-7.75,1.18-5-25.33-22.55-99.57-58.18-101.55-36.12-2,30.63,77,52.86,102.26C496.92,1593,494.21,1593.27,491.64,1593.39Z"/><circle class="cls-4" cx="1379.87" cy="861.2" r="143.76"/><circle class="cls-1" cx="1368.99" cy="867.34" r="143.76"/><path class="cls-2" d="M1369.93,999.69A131,131,0,1,1,1484.42,805.5c34.86,63.25,11.77,143.07-51.48,177.94A130.16,130.16,0,0,1,1369.93,999.69Zm-.4-254.18a123.54,123.54,0,1,0,34.41,4.91,123.54,123.54,0,0,0-34.41-4.91Z"/><path class="cls-2" d="M1403.85,893.33a21.37,21.37,0,0,0-3.94-6.51,15.75,15.75,0,0,0-5.86-4,30.12,30.12,0,0,0-8.38-1.87,79.15,79.15,0,0,0-11.42-.07,204,204,0,0,1-21,0,65.25,65.25,0,0,1-17.46-3.17,38.35,38.35,0,0,1-13.71-8,43.29,43.29,0,0,1-12.74-30.35,36.37,36.37,0,0,1,3.45-14.78,45.28,45.28,0,0,1,9.38-13.07,60.73,60.73,0,0,1,14.88-10.6l-8.17-20.14,16.21-6.58,8.29,20.42a54.65,54.65,0,0,1,17.68-1.8A41.14,41.14,0,0,1,1399.77,807a54.79,54.79,0,0,1,9.59,15.9l-29.29,11.89q-4.59-11.29-11.87-14.86t-15.71-.15a23.65,23.65,0,0,0-7.33,4.46,16,16,0,0,0-4,5.69,14.75,14.75,0,0,0-1,6.5,21.92,21.92,0,0,0,1.62,6.9,20.23,20.23,0,0,0,3.58,5.9A14.68,14.68,0,0,0,1351,853a29.65,29.65,0,0,0,8.42,1.84,98.07,98.07,0,0,0,12,.25q11.31-.32,20.94.27a66,66,0,0,1,17.44,3.27,37,37,0,0,1,23.34,22.6,39.62,39.62,0,0,1,3.15,16,35.9,35.9,0,0,1-3.53,14.71,43.92,43.92,0,0,1-9.58,12.88,65.45,65.45,0,0,1-15,10.49l7.6,18.73-16.21,6.65L1392,942.06a73.19,73.19,0,0,1-17.75,2.93A46.55,46.55,0,0,1,1357,942.5a41.46,41.46,0,0,1-15.17-9.46q-6.93-6.62-11.52-17.91l29.28-11.89a31,31,0,0,0,6.41,10.39,20,20,0,0,0,7.92,5.12,19.47,19.47,0,0,0,8.67.87,33.55,33.55,0,0,0,8.59-2.23,28,28,0,0,0,7.87-4.62,18.57,18.57,0,0,0,4.65-5.84,14.71,14.71,0,0,0,1.56-6.61A18,18,0,0,0,1403.85,893.33Z"/><path class="cls-5" d="M1512,783.83c-6-4.25-19.66-13.59-20.36-11.51-.51,1.5.21,4,1.85,6.69-8.25-3.08-16.63-5.1-36.44-1.3a14.88,14.88,0,0,0-9.74,6.42c-2,3.14-2.77,7.07,2.28,10.22,10.11,6.28,7.18,2.52,21.23,11.67s31.24,11.49,41.52,5.06l13.79-2.3,1.71-22.68S1519.93,785.16,1512,783.83Z"/><path class="cls-5" d="M1873.32,593.58s-32.51,38.57-73.91,22.43c0,0-8.91-21.54-9-37.42,0-2,0-3.85-.07-5.65-.22-17.88-.83-27.91-.83-27.91h0c1.89-.79,63.3-26,63.24-23.9C1851.71,569.48,1873.32,593.58,1873.32,593.58Z"/><path class="cls-6" d="M1846.6,532.69c-5.92,11-26.24,32.45-56.29,40.29-.22-17.88-.83-27.91-.83-27.91h0C1791.21,544.56,1848.36,529.41,1846.6,532.69Z"/><path class="cls-5" d="M1776.62,543.17s69.06,16.23,78.51-26.93,24.72-70.13-19-82.32-55.89,2.4-62.55,16S1758.9,537.83,1776.62,543.17Z"/><path class="cls-7" d="M1852.77,528c.94.61,15.8,5.17,43.94-50.89,4.42-8.8,7.43-27.84-2.87-44.66s-46.81-30-77.15-35.8-37.61,11.31-44.76,28.47c-7.5,18-29.16,32.83-29.16,32.83,26.16,14.62,57.67-6.28,68.59-2.85s14.77,20.64,15.59,26.16,2.07,10.09,15.8,5.17,6.21,19.45,4,24.11C1846.76,510.54,1844.89,523,1852.77,528Z"/><path class="cls-8" d="M2030.67,1604.36h41.81c8.77,0,18.51-8.77,20.94-24.84s20.46-24.85,24.36-38-16.08-31.67-16.08-31.67l-3.34-4.3-3.47-4.47-33.13,7.79s-.81,7.89-1.32,17.93a229.16,229.16,0,0,0-.14,23c1,17.54-4.91,36.43-20.49,39.84S2030.67,1604.36,2030.67,1604.36Z"/><path class="cls-8" d="M1739.56,1604.36H1850.4a9.25,9.25,0,0,0,2.36-.68c7.4-3.7,5.08-32,4.19-40.79-.17-1.62-.29-2.57-.29-2.57s-39-31.18-44.34-7.31c-.17.75-.37,1.48-.57,2.2h0c-6.77,22.34-37,32.48-54.49,35.31C1743.91,1592.69,1740.45,1600.48,1739.56,1604.36Z"/><path class="cls-9" d="M1761.9,965.17s5.92,73.85,12.88,162.63c9.45,120.59,20.82,268.72,22,296.78,1.94,48.73,9.75,126.68,9.75,126.68S1825,1569.77,1862,1562c0,0,33-111.27,42.43-229q.21-2.9.44-5.82c8.77-119.84,22.4-372.21,22.4-372.21Z"/><path class="cls-10" d="M1761.9,965.17s5.92,73.85,12.88,162.63L1904.45,1333q.21-2.9.44-5.82c8.77-119.84,22.4-372.21,22.4-372.21Z"/><path class="cls-9" d="M1788.93,973.94s106.7,267.46,176.85,393.16,92.08,160.77,92.08,160.77,40.19-16.08,43.85-27c0,0-26.83-242.66-73.81-301.81-26.55-33.43-57.73-133.73-59.19-168.81s-9.5-104.56-9.5-104.56Z"/><path class="cls-5" d="M2032.21,925.34l1.13,17.2s-11.34,30.56,20.44,46.24c0,0,13.61,5.49,14.16-5.11s-1.19-6.6-.08-21.52-4.76-29-14.63-33.76l-8.09-9.34Z"/><path class="cls-11" d="M2044.67,937.87c-11.81,3.79-13.7,2.93-13.7,2.93s-57.48-104.65-63.3-114.23-122-117.35-122-117.35l29.86-111.37S2007.71,769,2022,793.58c23.59,40.59,37.41,134.85,37.41,134.85A34.53,34.53,0,0,1,2044.67,937.87Z"/><path class="cls-12" d="M1739.38,753c.41,22.87,1.74,48.58,3.53,74.69l.33,4.65c1.15,16.18,2.39,32.39,3.82,48.2.57,6.34,1.18,12.61,1.81,18.77l.1.82a64.55,64.55,0,0,0,.59,7.09c5.82,59.22,11.93,106,13.07,106.73a6.56,6.56,0,0,0,4.54,1.16c15.54-2,61.87,1.57,99.81-6.68,32-6.75,59.58-19.56,88.79-36.82,3.88-2.29,12.72-8.36,12-12.9-.71-5-2-12.19-3.67-21.25-5.76-31.5-15.69-85.69-19.08-149.11q-1-17.71-2.86-35c-3.26-29.88-8.48-58.26-15.48-83.47-13-46.84-32.12-82.71-56.1-96.74-3.13-1.76-20,9-35.48,18.91-14.3,9.16-29.35,11.7-44,10.42l-12.89,14.27c-15.61,18.14-32.22,42.29-36.76,76.62-.34,2.54-.63,5.23-.88,8.1C1739.33,715.42,1739,733.12,1739.38,753Z"/><path class="cls-11" d="M1739.38,753c.41,22.87,1.74,48.58,3.53,74.69l.33,4.65c88.72-55.53,102.39-157.15,102.39-157.15-43.65,1.92-78.32,12-105.05,26.3C1739.33,715.42,1739,733.12,1739.38,753Z"/><path class="cls-12" d="M1515.21,796.69c-.91-13.16,5.9-15.35,5.9-15.35s133.76-24.24,145.13-27.82S1774.85,648.8,1774.85,648.8s37.27-42,67.78-32.75c26.52,8.07,36.89,28.75,40.41,48.46a58,58,0,0,1-27,59.58c-45.65,28-137,83.17-158.56,89.48-47.9,14-176.6,1.12-176.6,1.12A41.39,41.39,0,0,1,1515.21,796.69Z"/><path class="cls-13" d="M1672.61,1053.61v497.2a52.9,52.9,0,0,1-52.73,52.74H1108.81a53.33,53.33,0,0,1-12.89-1.58,54.32,54.32,0,0,1-35-27.56c-.16-.3-.31-.6-.47-.92a53,53,0,0,1-5.46-20.14c-.1-1.22-.14-2.46-.14-3.71V1056.8a81.6,81.6,0,0,1,37.92-68.69h.06a70.68,70.68,0,0,0,29.38-80.75h483.14a70.64,70.64,0,0,0,26.86,79.11h0c1.22.84,2.47,1.66,3.73,2.42h0A75.81,75.81,0,0,1,1672.61,1053.61Z"/><path class="cls-13" d="M1672.61,1053.61v497.2a52.91,52.91,0,0,1-49,52.6c-1.22.09-2.47.14-3.72.14h-225a54.07,54.07,0,0,1-53.9-53.91V1056.8a81.6,81.6,0,0,1,37.92-68.69,70.64,70.64,0,0,0,29.3-80.75h197.1A70.65,70.65,0,0,0,1636,988.91,75.81,75.81,0,0,1,1672.61,1053.61Z"/><path class="cls-14" d="M1632.21,986.47c-15.78-9.45-84.15-43-258-41.53-199.13,1.63-278.9,41.88-281.35,43.13a70.68,70.68,0,0,0,29.35-80.71h483.14A70.64,70.64,0,0,0,1632.21,986.47Z"/><path class="cls-9" d="M1616.27,903.88v22.55a4,4,0,0,1-4,4h-497a4,4,0,0,1-4-4V903.88a4.05,4.05,0,0,1,4-4h497A4,4,0,0,1,1616.27,903.88Z"/><path class="cls-10" d="M1616.27,903.88v22.55a4,4,0,0,1-4,4H1424.13a4.05,4.05,0,0,1-4-4V903.88a4.06,4.06,0,0,1,4-4h188.08a4,4,0,0,1,4.06,3.94Z"/><path class="cls-15" d="M1284.71,1015.54s-12.81,18-24.55,18.28-29.61-8.35-29.61-8.35-10.78-24-3.47-33.44a15.71,15.71,0,0,1,15,2.47,22.86,22.86,0,0,1,4,3.8,12.58,12.58,0,0,0,6.17,4.18c8.38,2.55,18.32-3.45,22,2.34a39.28,39.28,0,0,0,6.48,7.67A29.36,29.36,0,0,0,1284.71,1015.54Z"/><path class="cls-15" d="M1117.72,1145.61s45.28-109.7,126.77-111.79c0,0,75.22,8.36,79.4,111.79Z"/><path class="cls-16" d="M1222.21,1037.17s32.67,7.27,42.74,3c0,0,1.53-13.66-12.23-11.74-9.41,1.31-15.55-3.22-19.15-5C1228.41,1020.78,1220.8,1031.46,1222.21,1037.17Z"/><path class="cls-17" d="M1250.59,1016.59c-2.09,1.56-8.51-22.09-8.51-22.09a22.86,22.86,0,0,1,4,3.8,12.58,12.58,0,0,0,6.17,4.18C1252.21,1003.17,1252.61,1015.06,1250.59,1016.59Z"/><path class="cls-17" d="M1280.74,1012.49c-.46.27-15.57,9.32-17.62,9.32s11.14-17,11.14-17A39,39,0,0,0,1280.74,1012.49Z"/><path class="cls-17" d="M1162,1115c-.84-.72,32-48.41,41.09-48.76s29.4,10.45,44.13,11.84,29-2.78,31.79,5.92,10.45,39.58,5.75,44.51S1180,1130.41,1162,1115Z"/><path class="cls-18" d="M1125.34,1566c-2.62,1.38-5.25,2.68-7.91,3.94-2.53,1.46-5.1,2.89-7.72,4.26a210.71,210.71,0,0,1-37.19,15.23,54.28,54.28,0,0,1-11.55-15c-2,1.07-4,2.11-6.07,3.12V1202.39a213.46,213.46,0,0,1,27.56,5.55c50.68,13.69,95.81,45.94,123.26,93.37C1260.21,1395.53,1224.26,1514,1125.34,1566Z"/><path class="cls-4" d="M1159.61,1286.53c-54.52-98.92-178.92-134.9-277.84-80.38S746.87,1385.08,801.4,1484s178.92,134.91,277.84,80.38S1214.14,1385.45,1159.61,1286.53Z"/><path class="cls-1" d="M1071.3,1568.52q-3.78,2.31-7.69,4.46c-.88.49-1.76,1-2.64,1.43-2,1.07-4,2.11-6.07,3.12-97.39,47.83-216.18,11.12-269.13-84.92-50.5-91.61-23.36-205.08,59.51-264.66a207.63,207.63,0,0,1,20.87-13.19c2.62-1.44,5.26-2.83,7.92-4.14s5.18-2.51,7.79-3.67A204.35,204.35,0,0,1,1144,1295.14C1197.08,1391.46,1164.37,1511.91,1071.3,1568.52Z"/><path class="cls-2" d="M966.31,1582.41c-103,.26-186.8-83.06-187.06-186.11s83.06-186.81,186.11-187.07,186.8,83.07,187.07,186.12a186.6,186.6,0,0,1-186.12,187.06ZM812.6,1480.58a175.22,175.22,0,1,0-14.87-133.28A175.22,175.22,0,0,0,812.6,1480.58Z"/><path class="cls-2" d="M1056.21,1413.79c-.4-1-.83-2-1.27-2.94a53.67,53.67,0,0,0-12.4-17.72,55.3,55.3,0,0,0-19.53-11.49A93.63,93.63,0,0,0,998.2,1377q-13.69-.84-29.8-.39a143.91,143.91,0,0,1-17-.34,42.53,42.53,0,0,1-12-2.62,21.06,21.06,0,0,1-8-5.42,28.62,28.62,0,0,1-5.08-8.38A31.14,31.14,0,0,1,924,1350a21.2,21.2,0,0,1,1.46-9.25,22.61,22.61,0,0,1,5.7-8.07,33.14,33.14,0,0,1,10.43-6.35q12-4.87,22.34.21t16.89,21.14l41.67-16.92a78.05,78.05,0,0,0-13.64-22.62A58.48,58.48,0,0,0,968,1288a77.25,77.25,0,0,0-25.14,2.57l-11.8-29.06L908,1270.87l11.64,28.65a86.56,86.56,0,0,0-21.18,15.07,64.7,64.7,0,0,0-13.34,18.61,51.74,51.74,0,0,0-4.91,21,55.86,55.86,0,0,0,4.4,22.39q5.32,13.13,13.73,20.79a54.39,54.39,0,0,0,19.5,11.42,92.45,92.45,0,0,0,24.83,4.5,291.77,291.77,0,0,0,29.87,0,110.18,110.18,0,0,1,16.25.11,42.3,42.3,0,0,1,11.91,2.64,22.57,22.57,0,0,1,8.34,5.66,30.83,30.83,0,0,1,5.61,9.27,25.38,25.38,0,0,1,2,9.87,21,21,0,0,1-2.22,9.41,26.71,26.71,0,0,1-6.62,8.31,40,40,0,0,1-11.19,6.56,47.51,47.51,0,0,1-12.23,3.18,27.93,27.93,0,0,1-12.34-1.23,28.88,28.88,0,0,1-11.26-7.29q-5.25-5.26-9.11-14.78L910,1461.93q6.51,16,16.39,25.47A59,59,0,0,0,948,1500.86a66,66,0,0,0,24.53,3.54,104.07,104.07,0,0,0,25.26-4.18l10.76,26.52,22.92-9.31-10.82-26.64a92.53,92.53,0,0,0,21.39-14.93,63,63,0,0,0,12.91-16.86c.25-.48.5-1,.73-1.47a51.35,51.35,0,0,0,5-20.91A56.28,56.28,0,0,0,1056.21,1413.79Z"/><path class="cls-8" d="M812.92,673.86c.62-2.5-54.47,24.91-57.27,28-25.84,28.67-18.47,66.07-3.68,66.43,9.48.23,7.64,16,7.64,16l105.6-44.69S852.53,665.42,812.92,673.86Z"/><path class="cls-8" d="M825.93,679.69s3.77-41.15-42.21-41.15c0,0,13.94,3.78,21.14,11.33,0,0-29.32-17.21-61.24,9.24s-12.08,92.81-21.79,105.41-47.5,15.12-42.88,55.85,120,91.75,112.54,125.46c0,0,45.2-66.44,12.88-96.76,0,0,15.75,14.83,17.36,32.47,0,0,4.27-34.43-17.64-45.45-19.39-9.74-35.27-45.39-33.59-51.76S825.93,679.69,825.93,679.69Z"/><path class="cls-19" d="M784.21,873.26c-7.09-34.14-51.37-44.73-72.31-16.85a37,37,0,0,0-7.28,17.94c-4.79,38.76,57.18,196.62,66.06,210.91,16.15,26,111.29,115.23,111.29,115.23l17.53-10.63S832,1075.62,821.57,1064.93C809.46,1052.57,797.64,938.09,784.21,873.26Z"/><path class="cls-19" d="M875.27,1189.91s25.59-16.8,35.28-15.72,37.72,9.15,38.07,13.27-31.25,6.7-33.37,9-23.56,16.57-31.33,12.08S875.27,1189.91,875.27,1189.91Z"/><path class="cls-9" d="M696.77,1569.51l-22.86-3.36S597,1505.06,585.6,1391.08a204.33,204.33,0,0,1-.55-35.24,6.15,6.15,0,0,0-.8-3.89h0c-2.46-3.77-8.59-13.22-16.88-26.66-8.17-13.24-22.15-38.27-37.54-66.35-27.71-50.58-60-111.07-71.05-130.34-35.27-61.4-18.27-102.69-18.27-102.69s98.38-9.72,125.34-33.31l9.71,15s21.32,94.37,20.31,94.81q1.57,4.8,3.2,9.8c16.82,51.92,36.17,116.82,46.72,169.67,5.93,29.74,9.07,55.65,7.39,73.3-.58,6.06.12,15.37,1.74,26.86C664.42,1449.69,696.77,1569.51,696.77,1569.51Z"/><path class="cls-10" d="M744.73,1598.43H649.35s-2.29-14.54,2.69-25.57c4.78-10.58,11.58-10.91.87-27.5,6.06,6.24,25.55,8.82,39.34,7,1.68,2.74,10.89,21.12,16.53,25.17C715,1582,742.81,1580.38,744.73,1598.43Z"/><path class="cls-10" d="M599.05,1112.15c-8.33,46-28,122.42-69.24,146.76-27.71-50.58-60-111.07-71-130.34-35.27-61.4-18.27-102.69-18.27-102.69s98.38-9.72,125.34-33.31l9.71,15s21.32,94.37,20.31,94.81Q597.42,1107.15,599.05,1112.15Z"/><path class="cls-20" d="M774,852.08s13.49,14,19.65,30.82c0,0-21.51,61.78-71.79,69.52C721.83,952.42,761.61,852.06,774,852.08Z"/><path class="cls-9" d="M532.21,1033l.32-17.84c-35.59,4.48-122.59-42.45-122.59-42.45s-37.19,24.73-42.27,95.35c-2.49,34.48-18.21,180.26-20,223.79-.63,15.78-.84,27-.91,31.54h0a6.2,6.2,0,0,1-1.51,3.67A204.35,204.35,0,0,0,326,1356.56c-54.23,100.9-25.87,238-25.87,238l12.6-3.2s45.85-142.14,75.82-203.62c5.09-10.43,9.71-18.54,13.58-23.23,11.27-13.69,23.15-36.93,34.86-64.91,22.14-52.88,43.63-122.67,59-176.7C497.08,1123.14,532.21,1033,532.21,1033Z"/><path class="cls-5" d="M740.14,913.92c-58.1-13.33-21-95-17.61-93.54,8-1.64,25.73-15.78,41.55-43.38l2.13,1.85,35.69,31.29s-8.25,12.17-15.19,24.09c-5.42,9.33-10,18.52-9.3,21.68C780.28,858.17,755.64,917.48,740.14,913.92Z"/><path class="cls-19" d="M801.9,810.15s-8.26,12.15-15.19,24.08c-22.19-13.67-22.21-41.14-20.5-55.37Z"/><path class="cls-5" d="M802.89,825.82s-53.87-30-34.69-63.24,25.15-59.53,60.36-41.8,34.51,34.25,30.8,46.91S817.39,832.76,802.89,825.82Z"/><path class="cls-8" d="M868.46,748.29c-2.46-14.77-10-16.18-15.2-15.19C833.37,700.2,800.87,713,800.87,713c-17.36,21.78-42.46,25.5-42.46,25.5s6.25,11.63,32,18.83c7.86,2.2,16.79.87,25.4-2a143.66,143.66,0,0,1-36.55,13.78c33.94,3.11,66.23-27.93,69.58-31.24,1.57,4.8,4.32,14.87,2.67,22.23-2.23,10-11.11,28.12-5.69,30.47C845.83,790.58,872.21,770.44,868.46,748.29Z"/><path class="cls-10" d="M376,1598.43H280.64s-2.29-14.54,2.7-25.57c4.77-10.58,12.25-15.39,10.46-28.19,6.06,6.24,15.93,13.23,29.72,11.37,1.69,2.74,10.91,17.4,16.55,21.45C346.3,1582,374.1,1580.38,376,1598.43Z"/><path class="cls-21" d="M747,978.69c-12.27,4.28-29.5,6.62-47.12,8.54-25.08,2.74-51,4.61-64.53,10-5,2-8.26,4.41-9.29,7.52-5.83,17.66-31.83,44.94-31.83,44.94-166-7.56-184.27-77-184.27-77,111.73-130,300.93-167.56,300.93-167.56s13.51-5.73,47.54,21.31c22.71,18.06,19.72,25,19.72,25S783.1,966.05,747,978.69Z"/><path class="cls-20" d="M699.86,987.19c-25.08,2.74-51,4.61-64.53,10-5.55-82.83,33.54-145.13,33.54-145.13S694.37,955.85,699.86,987.19Z"/><path class="cls-5" d="M725.67,836.05s-62.85,6.21-67.89,47,60.26,207.2,69.61,222.26c17,27.42,117.28,121.42,117.28,121.42l18.48-11.2S792,1095.15,781,1083.88C763.74,1066.25,747,850.2,725.67,836.05Z"/><path class="cls-21" d="M659.59,907.69c.17.92,58,18.89,95.24,0,0,0,8-85.89-36.48-81.23s-70.76,18.66-71.88,39.93S659.59,907.69,659.59,907.69Z"/><path class="cls-5" d="M839,1214.84s22.55-20.7,32.28-21.2,38.71,3,39.71,7-29.75,11.64-31.48,14.2-20.59,20.15-29,17S839,1214.84,839,1214.84Z"/><rect class="cls-22" y="1598.05" width="2589.27" height="6.87" rx="2.93"/></svg>