<svg width="72" height="72" viewBox="0 0 72 72" fill="none" xmlns="http://www.w3.org/2000/svg">
<path d="M0 12.0005H72V59.9995H0V12.0005Z" fill="#F0F0F0"/>
<path d="M0 12.0005H72V28.0001H0V12.0005Z" fill="#FF9811"/>
<path d="M0 43.9999H72V59.9995H0V43.9999Z" fill="#6DA544"/>
<path d="M36 42.1729C39.4092 42.1729 42.1729 39.4092 42.1729 36C42.1729 32.5908 39.4092 29.8271 36 29.8271C32.5908 29.8271 29.8271 32.5908 29.8271 36C29.8271 39.4092 32.5908 42.1729 36 42.1729Z" fill="#0052B4"/>
<path d="M36 39.8579C38.1307 39.8579 39.8579 38.1307 39.8579 36C39.8579 33.8693 38.1307 32.1421 36 32.1421C33.8693 32.1421 32.1421 33.8693 32.1421 36C32.1421 38.1307 33.8693 39.8579 36 39.8579Z" fill="#F0F0F0"/>
<path d="M35.9999 31.2393L37.1902 33.9386L40.1229 33.6196L38.3803 36L40.1229 38.3804L37.1902 38.0614L35.9999 40.7607L34.8097 38.0614L31.877 38.3804L33.6196 36L31.877 33.6196L34.8097 33.9386L35.9999 31.2393Z" fill="#0052B4"/>
</svg>
