<svg id="Layer_1" data-name="Layer 1" xmlns="http://www.w3.org/2000/svg" viewBox="0 0 500 500"><defs><style>.cls-1{fill:#ddf2fe;}.cls-2{fill:#fff;}.cls-3{fill:#87c5f4;}.cls-4{fill:#2480ef;}.cls-5{fill:#72b1eb;}.cls-6{fill:#abd5f4;}.cls-7{fill:#274f8e;}.cls-8{fill:#eaa813;}.cls-9{fill:#164767;}.cls-10{fill:#9ce5e5;}.cls-11{fill:#ffc121;}.cls-12{fill:#ffdc21;}.cls-13{fill:#33c7ca;}.cls-14{fill:#e7afa7;}.cls-15{fill:#f79889;}.cls-16{fill:#1eafaf;}.cls-17{fill:#006cff;}</style></defs><g id="OBJECTS"><path class="cls-1" d="M66,363.11c-23-27.38-38.87-62-46.24-95.59C14.58,244.13,14.8,219,24.1,196.93,46.22,144.12,98.7,157.51,138,129.2c13.22-9.52,22.25-23.64,33.51-35.41,18.11-19,42.11-22.28,67.39-20.54a106.63,106.63,0,0,1,78.38,43.89c11.85,16.65,18.62,36.3,27.64,54.61s21.6,36.24,40.28,44.55c14.24,6.32,30.38,6.34,45.24,10.95,26.77,8.23,48,32.3,52.86,59.89,5.12,29.16-9.86,53.11-25.41,76Z"/><path class="cls-2" d="M59.55,298.2a64.37,64.37,0,0,0,4.65,11.53l-15.27,15h0l27,27.53h0l15.26-15a65.18,65.18,0,0,0,11.45,4.86h0l-.2,21.39h0l38.58.37h0l.19-21.41h0a64.79,64.79,0,0,0,11.55-4.63l15,15.26h0l27.54-27h0l-14.88-15.27a65.18,65.18,0,0,0,4.86-11.45h0l21.4.21h0l.36-38.56h0l-21.4-.2h0A64.33,64.33,0,0,0,181,249.29l15.26-15m0-.05-27-27.54h0l-15.27,15a64.9,64.9,0,0,0-11.45-4.87h0l.21-21.39h0l-38.57-.36h0l-.32,21.32a65.74,65.74,0,0,0-11.53,4.65l-15-15.28m-.05,0L49.79,232.83v.06l15,15.28a65.08,65.08,0,0,0-4.86,11.44h0l-21.39-.19h0L38.17,298h0l21.39.2Zm36.46,33.28a42.25,42.25,0,1,1-32.24,50.29l0-.05A42.25,42.25,0,0,1,113.8,239h0Z"/><path class="cls-3" d="M313,160.92V363.11h10.4V310.48H448.79v52.63h8V160.92Zm10.4,81.82H448.79v53H323.44Zm0-67.75H448.79v53H323.44Z"/><rect class="cls-4" x="425.15" y="174.98" width="18.32" height="52.96"/><path class="cls-2" d="M429.34,216.92a5,5,0,1,0,5-5h0A5,5,0,0,0,429.34,216.92Z"/><circle class="cls-1" cx="434.31" cy="216.92" r="3.89"/><rect class="cls-5" x="428.39" y="181.73" width="11.64" height="25.2"/><rect class="cls-1" x="429.29" y="203.85" width="9.82" height="0.41"/><rect class="cls-1" x="429.29" y="200.27" width="9.82" height="0.41"/><rect class="cls-1" x="429.29" y="196.68" width="9.82" height="0.41"/><rect class="cls-1" x="429.29" y="189.5" width="9.82" height="0.41"/><rect class="cls-1" x="429.29" y="185.93" width="9.82" height="0.41"/><rect class="cls-1" x="429.29" y="193.1" width="9.82" height="0.41"/><rect class="cls-6" x="388.49" y="174.98" width="18.32" height="52.96"/><path class="cls-2" d="M392.68,216.92a5,5,0,1,0,5-5h0A5,5,0,0,0,392.68,216.92Z"/><circle class="cls-1" cx="397.65" cy="216.92" r="3.89"/><rect class="cls-2" x="391.73" y="181.73" width="11.64" height="25.2"/><rect class="cls-5" x="392.64" y="203.85" width="9.82" height="0.41"/><rect class="cls-5" x="392.64" y="200.27" width="9.82" height="0.41"/><rect class="cls-5" x="392.64" y="196.68" width="9.82" height="0.41"/><rect class="cls-5" x="392.64" y="189.5" width="9.82" height="0.41"/><rect class="cls-5" x="392.64" y="185.93" width="9.82" height="0.41"/><rect class="cls-5" x="392.64" y="193.1" width="9.82" height="0.41"/><rect class="cls-7" x="406.81" y="174.98" width="18.32" height="52.96"/><path class="cls-2" d="M411,216.92a5,5,0,1,0,5-5h0A5,5,0,0,0,411,216.92Z"/><circle class="cls-1" cx="415.97" cy="216.92" r="3.89"/><rect class="cls-5" x="410.06" y="181.73" width="11.64" height="25.2"/><rect class="cls-1" x="410.96" y="203.85" width="9.82" height="0.41"/><rect class="cls-1" x="410.96" y="200.27" width="9.82" height="0.41"/><rect class="cls-1" x="410.96" y="196.68" width="9.82" height="0.41"/><rect class="cls-1" x="410.96" y="189.5" width="9.82" height="0.41"/><rect class="cls-1" x="410.96" y="185.93" width="9.82" height="0.41"/><rect class="cls-1" x="410.96" y="193.1" width="9.82" height="0.41"/><rect class="cls-4" x="391.23" y="242.77" width="18.32" height="52.96"/><path class="cls-2" d="M405.36,284.7a5,5,0,1,1-5-5h0A5,5,0,0,1,405.36,284.7Z"/><circle class="cls-1" cx="400.38" cy="284.7" r="3.89"/><rect class="cls-5" x="394.66" y="249.5" width="11.64" height="25.2"/><rect class="cls-1" x="395.58" y="271.63" width="9.82" height="0.41"/><rect class="cls-1" x="395.58" y="268.04" width="9.82" height="0.41"/><rect class="cls-1" x="395.58" y="264.46" width="9.82" height="0.41"/><rect class="cls-1" x="395.58" y="257.29" width="9.82" height="0.41"/><rect class="cls-1" x="395.58" y="253.71" width="9.82" height="0.41"/><rect class="cls-1" x="395.58" y="260.87" width="9.82" height="0.41"/><rect class="cls-4" x="365.48" y="175.03" width="18.32" height="52.96"/><path class="cls-2" d="M379.6,217a5,5,0,1,1-5-5h0A5,5,0,0,1,379.6,217Z"/><circle class="cls-1" cx="374.63" cy="216.95" r="3.89"/><rect class="cls-5" x="368.91" y="181.76" width="11.64" height="25.2"/><rect class="cls-1" x="369.83" y="203.87" width="9.82" height="0.41"/><rect class="cls-1" x="369.83" y="200.29" width="9.82" height="0.41"/><rect class="cls-1" x="369.83" y="196.71" width="9.82" height="0.41"/><rect class="cls-1" x="369.83" y="189.55" width="9.82" height="0.41"/><rect class="cls-1" x="369.83" y="185.96" width="9.82" height="0.41"/><rect class="cls-1" x="369.83" y="193.13" width="9.82" height="0.41"/><rect class="cls-6" x="414.62" y="244.01" width="18.27" height="49.93" transform="translate(-57 124.78) rotate(-15.71)"/><path class="cls-2" d="M433.57,281.32a5,5,0,1,1-6.12-3.44,5,5,0,0,1,6.12,3.44Z"/><path class="cls-1" d="M429.85,286.42a3.9,3.9,0,1,1,2.69-4.82h0A3.9,3.9,0,0,1,429.85,286.42Z"/><rect class="cls-2" x="417.29" y="249.99" width="11.64" height="24.25" transform="translate(-55.17 124.36) rotate(-15.71)"/><rect class="cls-5" x="420.73" y="270.94" width="9.82" height="0.39" transform="translate(-57.52 125.38) rotate(-15.71)"/><rect class="cls-5" x="419.79" y="267.62" width="9.82" height="0.39" transform="translate(-56.65 125) rotate(-15.71)"/><rect class="cls-5" x="418.86" y="264.29" width="9.82" height="0.39" transform="translate(-55.78 124.62) rotate(-15.71)"/><rect class="cls-5" x="416.99" y="257.64" width="9.82" height="0.39" transform="translate(-54.05 123.87) rotate(-15.71)"/><rect class="cls-5" x="416.05" y="254.33" width="9.82" height="0.39" transform="translate(-53.19 123.49) rotate(-15.71)"/><rect class="cls-5" x="417.92" y="260.96" width="9.82" height="0.39" transform="translate(-54.92 124.25) rotate(-15.71)"/><rect class="cls-6" x="372.89" y="242.77" width="18.32" height="52.96"/><path class="cls-2" d="M387,284.7a5,5,0,1,1-5-5h0A5,5,0,0,1,387,284.7Z"/><circle class="cls-1" cx="382.05" cy="284.7" r="3.89"/><rect class="cls-2" x="376.33" y="249.5" width="11.64" height="25.2"/><rect class="cls-5" x="377.24" y="271.63" width="9.82" height="0.41"/><rect class="cls-5" x="377.24" y="268.04" width="9.82" height="0.41"/><rect class="cls-5" x="377.24" y="264.46" width="9.82" height="0.41"/><rect class="cls-5" x="377.24" y="257.29" width="9.82" height="0.41"/><rect class="cls-5" x="377.24" y="253.71" width="9.82" height="0.41"/><rect class="cls-5" x="377.24" y="260.87" width="9.82" height="0.41"/><path class="cls-8" d="M284.59,119.69H181.35l-1-11a18.76,18.76,0,0,1,16.46-20.81,17.86,17.86,0,0,1,2.53-.12h61.34a23.45,23.45,0,0,1,22.94,20.93Z"/><path class="cls-8" d="M225.68,64.16A14.51,14.51,0,0,0,210.9,78.39a14.16,14.16,0,0,0,.1,2,18.14,18.14,0,0,0,17.68,16.18,14.47,14.47,0,0,0,14.67-16.18A18.11,18.11,0,0,0,225.68,64.16Zm2.19,23.67a8.42,8.42,0,0,1-8.2-7.49,6.73,6.73,0,0,1,5.92-7.45,5.19,5.19,0,0,1,.88,0,8.4,8.4,0,0,1,8.19,7.49,6.72,6.72,0,0,1-5.89,7.45c-.3,0-.6,0-.89,0Z"/><path class="cls-9" d="M337.34,363.11H170.09A13.44,13.44,0,0,1,157,351.06L134.58,109.92a10.78,10.78,0,0,1,10.89-12H312.72a13.46,13.46,0,0,1,13.14,12l22.37,241.21A10.77,10.77,0,0,1,338.75,363,11.1,11.1,0,0,1,337.34,363.11Z"/><path class="cls-4" d="M341.37,363.11H174.08a13.47,13.47,0,0,1-13.15-12.05L138.61,109.92A10.76,10.76,0,0,1,148,98a10.55,10.55,0,0,1,1.49-.08H316.76a13.47,13.47,0,0,1,13.14,12l22.37,241.21A10.77,10.77,0,0,1,342.79,363,11.25,11.25,0,0,1,341.37,363.11Z"/><polygon class="cls-10" points="330.35 333.7 179.68 333.7 159.28 113.85 309.95 113.85 330.35 333.7"/><path class="cls-2" d="M189.07,316.82,171.8,130.74a5.31,5.31,0,0,1,4.65-5.9,4.41,4.41,0,0,1,.73,0h116.9a6.65,6.65,0,0,1,6.48,5.93l17.27,186.08a5.3,5.3,0,0,1-4.65,5.9,5.85,5.85,0,0,1-.73,0H195.55A6.64,6.64,0,0,1,189.07,316.82Z"/><path class="cls-11" d="M291.27,119.69H188.05l-1-11A18.77,18.77,0,0,1,203.5,87.93a17.79,17.79,0,0,1,2.53-.12h61.33a23.46,23.46,0,0,1,22.92,20.93Z"/><path class="cls-11" d="M232.38,64.16a14.48,14.48,0,0,0-14.77,14.2,13.13,13.13,0,0,0,.09,2,18.13,18.13,0,0,0,17.71,16.18,14.51,14.51,0,0,0,14.78-14.21,14.37,14.37,0,0,0-.1-2A18.14,18.14,0,0,0,232.38,64.16Zm2.19,23.67a8.4,8.4,0,0,1-8.18-7.49,6.71,6.71,0,0,1,5.89-7.45,5.92,5.92,0,0,1,.94,0,8.38,8.38,0,0,1,8.19,7.49,6.72,6.72,0,0,1-5.91,7.45A7.23,7.23,0,0,1,234.57,87.83Z"/><polygon class="cls-12" points="291.29 119.69 188.05 119.69 187.03 108.74 290.27 108.74 291.29 119.69"/><path class="cls-13" d="M278,159.45h-93.5a2.19,2.19,0,0,1-2.19-2h0a1.76,1.76,0,0,1,1.56-1.95h93.72a2.18,2.18,0,0,1,2.19,2h0a1.77,1.77,0,0,1-1.56,2Z"/><path class="cls-13" d="M278.81,168.21h-93.5a2.19,2.19,0,0,1-2.19-2h0a1.76,1.76,0,0,1,1.56-1.95h93.71a2.19,2.19,0,0,1,2.19,2h0a1.75,1.75,0,0,1-1.53,1.95Z"/><path class="cls-13" d="M213.9,177H186.12a2.18,2.18,0,0,1-2.13-2h0a1.75,1.75,0,0,1,1.52-1.95l.25,0h27.75a2.19,2.19,0,0,1,2.13,2h0a1.74,1.74,0,0,1-1.53,2Z"/><path class="cls-13" d="M281.57,197.93H222a2.19,2.19,0,0,1-2.19-2h0a1.75,1.75,0,0,1,1.53-2,1,1,0,0,1,.25,0H281.2a2.19,2.19,0,0,1,2.19,2h0a1.78,1.78,0,0,1-1.55,2Z"/><path class="cls-13" d="M282.38,206.72H222.77a2.19,2.19,0,0,1-2.19-2h0a1.76,1.76,0,0,1,1.56-1.95H282a2.18,2.18,0,0,1,2.19,2h0a1.76,1.76,0,0,1-1.55,2Z"/><path class="cls-13" d="M251.36,215.53H223.59a2.19,2.19,0,0,1-2.19-2h0a1.77,1.77,0,0,1,1.55-2h28a2.18,2.18,0,0,1,2.19,2h0a1.76,1.76,0,0,1-1.55,2Z"/><path class="cls-10" d="M209.13,192.06H187.46a1.7,1.7,0,0,0-1.72,1.89l2,21.62a2.12,2.12,0,0,0,2.07,1.9h21.63a1.71,1.71,0,0,0,1.73-1.67,1.85,1.85,0,0,0,0-.23l-2-21.62A2.09,2.09,0,0,0,209.13,192.06Zm1.41,22.7a.11.11,0,0,1-.09.13H190.39a.13.13,0,0,1-.14-.13l-1.86-20a.13.13,0,0,1,.11-.13h20a.13.13,0,0,1,.14.13Z"/><polygon class="cls-11" points="203.13 212.09 192.64 204.49 195.49 200.33 201.57 204.73 213.78 187.31 218.21 190.6 203.13 212.09"/><path class="cls-13" d="M284.82,233h-59.6a2.19,2.19,0,0,1-2.2-2h0a1.77,1.77,0,0,1,1.56-1.95h59.84a2.19,2.19,0,0,1,2.19,2h0a1.76,1.76,0,0,1-1.56,1.95Z"/><path class="cls-13" d="M285.64,241.83H226a2.18,2.18,0,0,1-2.19-2h0a1.75,1.75,0,0,1,1.53-2,1,1,0,0,1,.24,0h59.61a2.19,2.19,0,0,1,2.19,2h0a1.75,1.75,0,0,1-1.54,1.94Z"/><path class="cls-13" d="M254.62,250.62H226.85a2.18,2.18,0,0,1-2.19-2h0a1.76,1.76,0,0,1,1.55-1.95h28a2.18,2.18,0,0,1,2.19,2h0a1.75,1.75,0,0,1-1.53,2A1.38,1.38,0,0,1,254.62,250.62Z"/><path class="cls-10" d="M212.35,227.15H190.71a1.72,1.72,0,0,0-1.73,1.69c0,.07,0,.14,0,.2l2,21.64a2.12,2.12,0,0,0,2.07,1.89H214.7a1.7,1.7,0,0,0,1.72-1.89l-2-21.64A2.21,2.21,0,0,0,212.35,227.15Zm1.42,22.72a.11.11,0,0,1-.1.12h-20a.14.14,0,0,1-.14-.12l-1.85-20a.09.09,0,0,1,.09-.12h20a.15.15,0,0,1,.13.13Z"/><polygon class="cls-11" points="206.39 247.19 195.89 239.58 198.74 235.43 204.82 239.83 217.03 222.42 221.47 225.69 206.39 247.19"/><path class="cls-13" d="M288.07,268.12h-59.6a2.19,2.19,0,0,1-2.14-2h0a1.75,1.75,0,0,1,1.53-1.94l.25,0h59.6a2.19,2.19,0,0,1,2.19,2h0a1.75,1.75,0,0,1-1.55,1.95A.87.87,0,0,1,288.07,268.12Z"/><path class="cls-13" d="M288.9,276.93H229.29a2.19,2.19,0,0,1-2.19-2h0a1.76,1.76,0,0,1,1.55-1.95h59.88a2.18,2.18,0,0,1,2.19,2h0a1.77,1.77,0,0,1-1.56,2Z"/><path class="cls-13" d="M257.88,285.73H230.11a2.21,2.21,0,0,1-2.19-2h0a1.75,1.75,0,0,1,1.53-1.95l.24,0h27.78a2.2,2.2,0,0,1,2.19,2h0a1.75,1.75,0,0,1-1.55,1.94Z"/><path class="cls-10" d="M215.6,262.25H194a1.71,1.71,0,0,0-1.73,1.67,1.85,1.85,0,0,0,0,.23l2,21.63a2.2,2.2,0,0,0,2.07,1.9H218a1.71,1.71,0,0,0,1.73-1.69,1.48,1.48,0,0,0,0-.21l-2-21.63A2.14,2.14,0,0,0,215.6,262.25ZM217,285a.11.11,0,0,1-.1.12h-20a.13.13,0,0,1-.13-.12l-1.88-20a.1.1,0,0,1,.09-.12h20a.14.14,0,0,1,.14.12Z"/><polygon class="cls-11" points="209.65 282.3 199.16 274.69 202.01 270.52 208.09 274.94 220.3 257.52 224.72 260.8 209.65 282.3"/><ellipse class="cls-1" cx="377.35" cy="429.64" rx="67.56" ry="8.12"/><path class="cls-9" d="M349.89,297.38l6.78,5.34c2.61-2.5,19.87-11.45,20.52-18a8.08,8.08,0,0,0-1.9-6.58c-3.55-3.48-7.59-2.69-10.77.3C361.07,281.63,349.89,297.38,349.89,297.38Z"/><polygon class="cls-14" points="364.28 424.28 358.87 424.28 358.39 418.62 363.81 418.62 364.28 424.28"/><polygon class="cls-14" points="415.12 424.28 409.7 424.28 407.59 418.62 413 418.62 415.12 424.28"/><polygon class="cls-15" points="377.35 276.81 387.57 276.68 383.28 265.01 377.54 266.47 377.35 276.81"/><path class="cls-9" d="M395.66,322.79,400,278.28a4.39,4.39,0,0,0-4-4.64l-26.54,2.2a3.73,3.73,0,0,0-3.88,3.58,2.67,2.67,0,0,0,0,.4l3.64,43Z"/><polygon class="cls-16" points="395.65 322.79 385.52 336.21 365.9 420.46 355.8 420.46 369.17 322.79 395.65 322.79"/><path class="cls-13" d="M374.05,322.79l2.41,11.33a6.32,6.32,0,0,0,6.22,5.18h0l22.82,81.16h9.86l-19.72-97.67Z"/><path class="cls-15" d="M385.52,258.54a1.85,1.85,0,1,0,1.75-2,1.86,1.86,0,0,0-1.75,2Z"/><path class="cls-15" d="M377,248.41a5.78,5.78,0,0,0-3.54,2.29,5.64,5.64,0,0,0-1,3.54h0l.22,6.79c.22,4.24,3.55,7.66,7.58,7.58a7.5,7.5,0,0,0,7-7.93.49.49,0,0,1,0-.12l-.2-6.27h0S386.56,246.91,377,248.41Z"/><path class="cls-9" d="M387.14,258.41c-3,5.78-5.54,2.12-8.66,2.39-2.59.23-4.38,3.84-5.87-1.21-.23,7.86,3.55,9.16,7.58,9S388.23,267,387.14,258.41Z"/><path class="cls-9" d="M358.5,421.72l3,1.3,2.77-1.3,2.49,8.1h-23c0-4.05,8.66-4.05,8.66-4.05Z"/><path class="cls-9" d="M408.86,421.72l3,1.3,2.77-1.3,2.49,8.1h-23c0-4.05,8.66-4.05,8.66-4.05Z"/><path class="cls-11" d="M270.68,260.55a36.71,36.71,0,1,0,49.67-15.12h0a36.7,36.7,0,0,0-49.66,15.1Zm56,29.87a26.79,26.79,0,1,1-11-36.24h0A26.83,26.83,0,0,1,326.72,290.42Z"/><rect class="cls-11" x="353.48" y="274.21" width="10.26" height="66.37" transform="translate(-81.37 479.18) rotate(-61.93)"/><path class="cls-4" d="M401.8,330.42h0A10.25,10.25,0,0,1,388,334.71h0l-32-17.11,9.66-18.11,32,17.07a10.26,10.26,0,0,1,4.26,13.86Z"/><path class="cls-15" d="M384.71,326h0a2.41,2.41,0,0,0,3.4-.18l.07-.08,3.07-4.11,3-1.47-3.7-3.35-1.38.54a6.94,6.94,0,0,0-3.63,3.14l-1.47,2.66A2.3,2.3,0,0,0,384.71,326Z"/><polygon class="cls-9" points="395.86 322.05 414.52 306.6 406.42 300.24 389.55 316.27 395.86 322.05"/><path class="cls-9" d="M405.49,302.77a5.89,5.89,0,1,0,4.72-6.87h0A5.89,5.89,0,0,0,405.49,302.77Z"/><path class="cls-9" d="M406.09,301.7l10.59-2.34c-1.75-3.17-10.59-22.57-16.76-24.9a8.06,8.06,0,0,0-6.9.09c-4.28,2.51-4.57,6.58-2.52,10.46C392.75,289.21,406.09,301.7,406.09,301.7Z"/><path class="cls-9" d="M334.43,300.21l.16.51a10.59,10.59,0,0,0,13.28,6.93l.36-.12h0Z"/><path class="cls-15" d="M338.84,299.13a4.28,4.28,0,0,0-4.22.76.73.73,0,0,0-.12,1,.6.6,0,0,0,.23.19l5.39,2.92a.75.75,0,0,0,1-.26.89.89,0,0,0,.08-.17A3.72,3.72,0,0,0,338.84,299.13Z"/><path class="cls-15" d="M335.92,301.76l-1.79-1a.67.67,0,0,1-.34-.58v-1.36a1.1,1.1,0,0,1,1.1-1h0a1.09,1.09,0,0,1,1.09,1.09Z"/><path class="cls-9" d="M387.73,247.16l-.24-.15c-.94-.5-1.53,0-2.44.06a4.67,4.67,0,0,1-2.73-1.09,10.05,10.05,0,0,0-3.28-2,3.73,3.73,0,0,0-3.53,1.1c-.74.8-.8,2-1.5,2.83-.34.4-.88.47-1.31.76a3.14,3.14,0,0,0-1.18,3.65c.09.25.45,1.81.84,1.61.57-.31.58-1.1.9-1.68a2.35,2.35,0,0,1,2.45-.82,23.75,23.75,0,0,0,2.66.58,14.08,14.08,0,0,0,3.67-.79c1.24-.27,2.77-.08,3.36,1a3.3,3.3,0,0,1,.12,2.19,3.86,3.86,0,0,0,0,2.72c.88,1.46,2.82.92,3.55-.35a5.27,5.27,0,0,0,.58-2.27,14.6,14.6,0,0,0-.55-5.09A4.21,4.21,0,0,0,387.73,247.16Z"/><ellipse class="cls-1" cx="120.4" cy="439.04" rx="67.56" ry="8.12"/><path class="cls-9" d="M116,250.73a10.36,10.36,0,0,0-8.92,1.82c-1.5,1.24-2.63,3-4.38,3.88s-3.91.92-5.48,2.11a6.3,6.3,0,0,0-2,5.35,55.78,55.78,0,0,0,.92,5.84c.58,4.48-2,7.12-4.69,10.34a14.35,14.35,0,0,0-3.59,7.44,7.31,7.31,0,0,0,3.28,7.18,7.1,7.1,0,0,0,3.17.78c2.68.08,5.23-1,7.83-1.7s5.59-.88,7.66.75a23.12,23.12,0,0,0,1.77,1.51c2.27,1.5,5.54.3,7.14-1.9s1.92-5.06,2.06-7.78a62.48,62.48,0,0,0-.07-7.37,15.79,15.79,0,0,1,1.55-6.82c.69-1.78,1.79-3.22,2.49-5,2.37-5.87-.62-12.49-6.1-15.42A11.09,11.09,0,0,0,116,250.73Z"/><path class="cls-13" d="M128.81,308.41l7.76-4.7-11.65-22.23a5.06,5.06,0,0,0-6.71-2.53,3.83,3.83,0,0,0-.63.34h0c-2.59,1.66-3.67,7.27-2,11.52S128.81,308.41,128.81,308.41Z"/><polygon class="cls-15" points="114.26 283.17 108.03 282.15 109.61 271.33 115.84 272.35 114.26 283.17"/><path class="cls-15" d="M117.72,258.65c.74,2.54,3.15,4.47,3.06,6.5l-.19.87v.11h0l-.6,2.64a6.2,6.2,0,0,1-12-2.72l.67-3C110,260.37,115.28,262.26,117.72,258.65Z"/><path class="cls-10" d="M105.51,315l-6.86-29.57a4.09,4.09,0,0,1,3.4-4.66l.45,0,17.12-2.26a4.07,4.07,0,0,1,4.25,3.87c0,.17,0,.34,0,.51L126.73,315Z"/><path class="cls-8" d="M118.3,315l-10.74,17.31L137.5,429.6h6.19S129.78,329.06,126.6,315Z"/><path class="cls-11" d="M118.3,315c-1.62,47.21-17.25,114.62-17.25,114.62H95.12C95,415.05,96,345.11,97,339a55,55,0,0,1,3.85-13.3c1.72-4,2.19-7.21,4.71-10.67Z"/><polygon class="cls-15" points="140.1 434.72 143.97 434.72 142.82 429.63 138.18 429.63 140.1 434.72"/><polygon class="cls-15" points="96.43 434.72 100.3 434.72 100.54 429.63 95.92 429.63 96.43 434.72"/><path class="cls-10" d="M117.12,293.94a5.31,5.31,0,1,0,5.78-4.81,5.31,5.31,0,0,0-5.78,4.81Z"/><polygon class="cls-15" points="119.11 278.5 117.41 289.8 107.71 279.98 119.11 278.5"/><path class="cls-15" d="M109.83,265.15a2.23,2.23,0,1,1,0-.08Z"/><path class="cls-9" d="M144.5,432.66l-2,.86-3.11-.86L137.78,438h16.5c0-2.67-5.72-2.67-5.72-2.67Z"/><path class="cls-9" d="M100.83,432.66l-2,.86-3.11-.86L94.12,438h16.5c0-2.67-5.72-2.67-5.72-2.67Z"/><path class="cls-13" d="M139.55,297.3l.2.53a11.16,11.16,0,0,1-6.55,14.36l-.31.11h0Z"/><polygon class="cls-17" points="129.85 319.23 111.27 317.53 123.07 291.75 141.65 293.45 129.85 319.23"/><path class="cls-15" d="M135.91,298.65a3.72,3.72,0,0,1,3.28-1.76.65.65,0,0,1,.64.65.58.58,0,0,1-.06.26l-2.19,4.94a.65.65,0,0,1-.85.33.39.39,0,0,1-.11-.06A3.28,3.28,0,0,1,135.91,298.65Z"/><path class="cls-15" d="M139.36,298.88l.7-1.63a.58.58,0,0,0-.08-.58l-.74-.93a.94.94,0,0,0-1.29-.15h0a.92.92,0,0,0-.16,1.29h0Z"/><path class="cls-15" d="M122.44,302.57h0a2.19,2.19,0,0,1-2.09,2.29h-.1l-4.92-.08-4.07,1.59-.49-4.38,2.42-1a7.19,7.19,0,0,1,4.5-.83l2.9.42A2.18,2.18,0,0,1,122.44,302.57Z"/><path class="cls-15" d="M114.71,300.37l2.77.67a.57.57,0,0,0,.59,0l1.38-.86a.9.9,0,0,0,.31-1.24h0a.9.9,0,0,0-1.24-.32h0Z"/><polygon class="cls-13" points="111.27 306.78 92.58 314.99 91.91 303.98 110.9 301.53 111.27 306.78"/><path class="cls-13" d="M94.61,311l-9-2.71L97.84,284a5.07,5.07,0,0,1,6.64-2.68,4.41,4.41,0,0,1,.65.33h0c2.64,1.59,3.85,7.17,2.19,11.47S94.61,311,94.61,311Z"/><circle class="cls-13" cx="90.44" cy="310.19" r="5.26"/><polygon class="cls-11" points="373.79 111.78 377.49 121.09 387.49 121.73 379.78 128.13 382.26 137.84 373.79 132.48 365.32 137.84 367.8 128.13 360.09 121.73 370.09 121.09 373.79 111.78"/><polygon class="cls-11" points="409.55 111.78 413.25 121.09 423.25 121.73 415.54 128.13 418.02 137.84 409.55 132.48 401.08 137.84 403.56 128.13 395.85 121.73 405.85 121.09 409.55 111.78"/><polygon class="cls-11" points="445.31 111.78 449.01 121.09 459.01 121.73 451.3 128.13 453.78 137.84 445.31 132.48 436.85 137.84 439.33 128.13 431.61 121.73 441.61 121.09 445.31 111.78"/><rect class="cls-13" x="80.13" y="164.17" width="73.69" height="64.72" rx="2.94"/><rect class="cls-2" x="93.66" y="190.59" width="11.19" height="26.85" rx="2.6"/><path class="cls-10" d="M102.48,195.19a1.81,1.81,0,1,1-1.83-1.79h0A1.82,1.82,0,0,1,102.48,195.19Z"/><path class="cls-2" d="M141.4,200.46a3.28,3.28,0,0,0-2.19-3,4.42,4.42,0,0,0,2.19-3.63c0-2.41-2.39-4.3-5-4.3H127.2a1.51,1.51,0,0,1-1.44-2c.69-2,2.06-4.64,2.06-6.49,0-2.42-.33-4.56-2.34-6.17a2.53,2.53,0,0,0-2.3-.55,2.73,2.73,0,0,0-1.59,1.85,17.43,17.43,0,0,0-.39,2.49,10.13,10.13,0,0,1-1.63,4.16,19.24,19.24,0,0,1-3.28,3.16,11.17,11.17,0,0,0-2.45,3.76,5.1,5.1,0,0,1-4.7,3.15h-1.76v23.2H133.2c2.07,0,4.3-1.35,4.3-3.29a3.42,3.42,0,0,0-1.35-2.84s3.36-.78,3.36-2.8a3.48,3.48,0,0,0-1.46-2.9S141.4,202.75,141.4,200.46Z"/><rect class="cls-10" x="26.21" y="117.17" width="84.64" height="37.27" rx="2.94"/><path class="cls-2" d="M95.79,129H53.7a2,2,0,0,1-2-2h0a2,2,0,0,1,2-2H95.79a2,2,0,0,1,2,2h0a2,2,0,0,1-2,2Z"/><path class="cls-2" d="M95.79,137.76H53.7a2,2,0,0,1-2-2h0a2,2,0,0,1,2-2H95.79a2,2,0,0,1,2,2h0a2,2,0,0,1-2,2Z"/><path class="cls-2" d="M81.48,146.57H53.7a2,2,0,0,1-2-2h0a2,2,0,0,1,2-2H81.48a2,2,0,0,1,2,2h0a2,2,0,0,1-2,2Z"/><path class="cls-2" d="M44.56,127a2.62,2.62,0,1,1-2.63-2.61h0A2.63,2.63,0,0,1,44.56,127Z"/><path class="cls-2" d="M44.56,135.8a2.62,2.62,0,1,1-2.62-2.64,2.62,2.62,0,0,1,2.62,2.64Z"/><path class="cls-2" d="M44.56,144.61A2.62,2.62,0,1,1,41.94,142h0A2.62,2.62,0,0,1,44.56,144.61Z"/><polygon class="cls-11" points="305.07 218.5 299.62 202.84 284.52 209.71 307.76 155.41 328.3 164.2 305.07 218.5"/><polygon class="cls-11" points="343.92 218.5 349.38 202.84 364.47 209.71 341.25 155.41 320.7 164.2 343.92 218.5"/><polygon class="cls-9" points="322.35 117.52 326.91 121.96 332.64 119.16 335.62 124.78 341.93 123.89 343.02 130.17 349.31 131.27 348.41 137.58 354.04 140.56 351.24 146.28 355.68 150.86 351.24 155.44 354.04 161.16 348.41 164.15 349.31 170.46 343.02 171.55 341.93 177.83 335.62 176.93 332.64 182.57 326.91 179.77 322.35 184.19 317.77 179.77 312.04 182.57 309.06 176.93 302.74 177.83 301.64 171.55 295.37 170.46 296.27 164.15 290.64 161.16 293.44 155.44 289 150.86 293.44 146.28 290.64 140.56 296.27 137.58 295.37 131.27 301.64 130.17 302.74 123.89 309.06 124.78 312.04 119.16 317.77 121.96 322.35 117.52"/><circle class="cls-2" cx="322.33" cy="150.86" r="22.49"/><polygon class="cls-4" points="320.05 163.25 309.55 155.64 312.4 151.48 318.48 155.89 330.69 138.47 335.13 141.75 320.05 163.25"/></g></svg>