<svg width="80" height="80" viewBox="0 0 80 80" fill="none" xmlns="http://www.w3.org/2000/svg">
<path d="M61.9119 44.056H46.6319V34.792C46.6319 32.6703 45.7891 30.6354 44.2888 29.1351C42.7885 27.6348 40.7537 26.792 38.6319 26.792C38.2076 26.792 37.8006 26.9606 37.5006 27.2606C37.2005 27.5607 37.0319 27.9676 37.0319 28.392V33.6C37.0338 35.3109 36.679 37.0033 35.9903 38.5694C35.3016 40.1356 34.2941 41.541 33.0319 42.696L29.2479 46.136V45.016C29.2479 43.7281 28.7363 42.493 27.8257 41.5823C26.915 40.6716 25.6798 40.16 24.3919 40.16H18.0799C16.7913 40.16 15.5553 40.6713 14.6434 41.5818C13.7315 42.4922 13.2181 43.7274 13.2159 45.016V72.744C13.2181 74.0326 13.7315 75.2677 14.6434 76.1782C15.5553 77.0886 16.7913 77.6 18.0799 77.6H24.3839C25.144 77.5997 25.8934 77.4207 26.5716 77.0775C27.2497 76.7342 27.8377 76.2363 28.2879 75.624H57.5999C58.5144 75.624 59.3914 75.2607 60.038 74.6141C60.6847 73.9675 61.0479 73.0905 61.0479 72.176V69.368C61.0435 68.7597 60.8779 68.1634 60.5679 67.64C61.023 67.3199 61.3938 66.8943 61.6488 66.3998C61.9037 65.9053 62.0352 65.3564 62.0319 64.8V62.256C62.0339 61.8717 61.9689 61.49 61.8399 61.128C62.7087 61.0635 63.521 60.6732 64.1144 60.0354C64.7077 59.3975 65.0383 58.5591 65.0399 57.688V54.88C65.0369 54.2679 64.8683 53.668 64.5519 53.144C65.1876 52.8597 65.7311 52.4035 66.1213 51.8268C66.5114 51.25 66.7326 50.5758 66.7599 49.88V47.936C66.7839 45.76 64.6399 44.056 61.9119 44.056ZM24.3839 75.256H18.0799C17.4087 75.256 16.7649 74.9899 16.2895 74.516C15.8142 74.0422 15.5461 73.3992 15.5439 72.728V45.016C15.5461 44.3448 15.8142 43.7018 16.2895 43.2279C16.7649 42.7541 17.4087 42.488 18.0799 42.488H24.3839C25.0551 42.488 25.699 42.7541 26.1743 43.2279C26.6497 43.7018 26.9178 44.3448 26.9199 45.016V72.744C26.9178 73.4152 26.6497 74.0582 26.1743 74.532C25.699 75.0059 25.0551 75.272 24.3839 75.272V75.256ZM62.7359 57.656C62.7359 57.8031 62.707 57.9487 62.6507 58.0846C62.5944 58.2205 62.5119 58.344 62.4079 58.448C62.3039 58.552 62.1804 58.6345 62.0445 58.6907C61.9087 58.747 61.763 58.776 61.6159 58.776H54.3999C54.1079 58.8002 53.8356 58.9334 53.6372 59.149C53.4387 59.3646 53.3285 59.6469 53.3285 59.94C53.3285 60.233 53.4387 60.5154 53.6372 60.731C53.8356 60.9466 54.1079 61.0798 54.3999 61.104H58.5679C58.715 61.104 58.8607 61.133 58.9965 61.1893C59.1324 61.2455 59.2559 61.328 59.3599 61.432C59.4639 61.536 59.5464 61.6595 59.6027 61.7954C59.659 61.9313 59.6879 62.0769 59.6879 62.224V64.8C59.689 64.9474 59.6608 65.0935 59.6049 65.2299C59.5489 65.3662 59.4665 65.4901 59.3623 65.5943C59.2581 65.6985 59.1342 65.781 58.9978 65.8369C58.8614 65.8928 58.7153 65.9211 58.5679 65.92C58.4422 65.9239 58.3179 65.9482 58.1999 65.992C58.0025 65.9503 57.8017 65.9262 57.5999 65.92H51.8159C51.5239 65.9442 51.2516 66.0774 51.0532 66.293C50.8547 66.5086 50.7445 66.7909 50.7445 67.084C50.7445 67.377 50.8547 67.6594 51.0532 67.875C51.2516 68.0906 51.5239 68.2238 51.8159 68.248H57.5999C57.897 68.248 58.1819 68.366 58.3919 68.576C58.6019 68.7861 58.7199 69.0709 58.7199 69.368V72.176C58.7199 72.473 58.6019 72.7579 58.3919 72.968C58.1819 73.178 57.897 73.296 57.5999 73.296H29.2079C29.2199 73.1122 29.2199 72.9278 29.2079 72.744V49.288L34.5599 44.424C36.0683 43.0541 37.2742 41.3847 38.1007 39.5223C38.9272 37.6599 39.3561 35.6455 39.3599 33.608V29.176C40.7203 29.3543 41.9697 30.0202 42.876 31.0502C43.7824 32.0801 44.2841 33.404 44.2879 34.776V44.8C44.2836 45.1859 44.4188 45.5603 44.6687 45.8543C44.9187 46.1483 45.2664 46.3421 45.6479 46.4C45.7251 46.4079 45.8028 46.4079 45.8799 46.4H61.8799C63.3759 46.4 64.4239 47.2 64.4239 47.952V49.896C64.4239 50.632 63.3759 51.448 61.8799 51.448H56.7999C56.5079 51.4722 56.2356 51.6054 56.0372 51.821C55.8387 52.0366 55.7285 52.3189 55.7285 52.612C55.7285 52.905 55.8387 53.1874 56.0372 53.403C56.2356 53.6186 56.5079 53.7518 56.7999 53.776H61.5999C61.897 53.776 62.1819 53.894 62.3919 54.104C62.6019 54.3141 62.7199 54.599 62.7199 54.896L62.7359 57.656Z" fill="#0057B3"/>
<path d="M21.344 38.6955C21.5369 38.7969 21.7545 38.842 21.9718 38.8254C22.1891 38.8089 22.3973 38.7315 22.5727 38.6021C22.748 38.4727 22.8833 38.2965 22.9632 38.0937C23.043 37.8909 23.0641 37.6698 23.024 37.4555L21.88 31.0555L26.544 26.3995C26.6978 26.2465 26.806 26.0537 26.8564 25.8427C26.9068 25.6317 26.8974 25.4108 26.8293 25.2048C26.7612 24.9988 26.637 24.8158 26.4708 24.6764C26.3045 24.537 26.1027 24.4467 25.888 24.4155L19.408 23.5115L16.48 17.6795C16.3826 17.4873 16.2339 17.3258 16.0503 17.2128C15.8668 17.0998 15.6555 17.0399 15.44 17.0395C15.2226 17.0404 15.0098 17.1024 14.8259 17.2184C14.6421 17.3344 14.4945 17.4997 14.4 17.6955L11.536 23.5755L5.05602 24.5515C4.84165 24.5853 4.64092 24.678 4.47632 24.8194C4.31172 24.9608 4.18977 25.1453 4.12415 25.3521C4.05852 25.559 4.05182 25.78 4.10479 25.9905C4.15775 26.2009 4.2683 26.3924 4.42402 26.5435L9.13602 31.0875L8.06402 37.5435C8.0289 37.7569 8.05454 37.9759 8.13801 38.1753C8.22148 38.3748 8.35941 38.5468 8.53602 38.6715C8.7339 38.8151 8.97158 38.8934 9.21602 38.8955C9.40559 38.8941 9.59208 38.8475 9.76002 38.7595L15.536 35.6795L21.344 38.6955ZM14.984 33.3355L10.744 35.5995L11.544 30.8635C11.5733 30.6766 11.5574 30.4853 11.4976 30.3057C11.4377 30.1261 11.3357 29.9635 11.2 29.8315L7.73602 26.5035L12.48 25.7835C12.6662 25.7551 12.8427 25.682 12.9946 25.5706C13.1464 25.4591 13.269 25.3126 13.352 25.1435L15.456 20.7995L17.6 25.1195C17.6842 25.2885 17.8083 25.4345 17.9617 25.5446C18.1151 25.6547 18.293 25.7258 18.48 25.7515L23.2 26.3995L19.784 29.7675C19.649 29.8995 19.5484 30.0626 19.4912 30.2426C19.434 30.4226 19.4219 30.6138 19.456 30.7995L20.296 35.5275L16.032 33.3195C15.8682 33.2404 15.6881 33.2006 15.5061 33.2034C15.3242 33.2062 15.1454 33.2514 14.984 33.3355ZM75.872 25.2235C75.8046 25.0156 75.6805 24.8307 75.5137 24.6893C75.347 24.548 75.1442 24.456 74.928 24.4235L68.448 23.5195L65.52 17.6795C65.4226 17.4873 65.2739 17.3258 65.0903 17.2128C64.9068 17.0998 64.6955 17.0399 64.48 17.0395C64.2626 17.0404 64.0498 17.1024 63.8659 17.2184C63.6821 17.3344 63.5345 17.4997 63.44 17.6955L60.576 23.5755L54.104 24.5515C53.8897 24.5853 53.6889 24.678 53.5243 24.8194C53.3597 24.9608 53.2378 25.1453 53.1721 25.3521C53.1065 25.559 53.0998 25.78 53.1528 25.9905C53.2058 26.2009 53.3163 26.3924 53.472 26.5435L58.184 31.0875L57.112 37.5435C57.0786 37.7585 57.1067 37.9784 57.193 38.1781C57.2794 38.3777 57.4205 38.5488 57.6 38.6715C57.7979 38.8151 58.0356 38.8934 58.28 38.8955C58.4696 38.8941 58.6561 38.8475 58.824 38.7595L64.6 35.6795L70.4 38.6955C70.5929 38.7969 70.8105 38.842 71.0278 38.8254C71.2451 38.8089 71.4533 38.7315 71.6287 38.6021C71.804 38.4727 71.9393 38.2965 72.0192 38.0937C72.099 37.8909 72.1201 37.6698 72.08 37.4555L70.936 31.0555L75.584 26.3995C75.7334 26.2476 75.839 26.0581 75.8897 25.8511C75.9404 25.6442 75.9343 25.4273 75.872 25.2235ZM68.856 29.7835C68.721 29.9155 68.6204 30.0786 68.5632 30.2586C68.506 30.4386 68.4939 30.6298 68.528 30.8155L69.328 35.5435L65.072 33.3355C64.9053 33.2486 64.72 33.2032 64.532 33.2032C64.344 33.2032 64.1587 33.2486 63.992 33.3355L59.752 35.5995L60.552 30.8635C60.5824 30.6772 60.5677 30.4863 60.5092 30.3068C60.4508 30.1273 60.3502 29.9643 60.216 29.8315L56.8 26.5035L61.544 25.7835C61.7302 25.7551 61.9067 25.682 62.0586 25.5706C62.2104 25.4591 62.333 25.3126 62.416 25.1435L64.496 20.7995L66.64 25.1195C66.7242 25.2885 66.8483 25.4345 67.0017 25.5446C67.1551 25.6547 67.333 25.7258 67.52 25.7515L72.272 26.4155L68.856 29.7835ZM33.656 16.4475L32.584 22.9035C32.5551 23.1119 32.5838 23.3242 32.6671 23.5174C32.7503 23.7106 32.8848 23.8774 33.056 23.9995C33.2521 24.1466 33.491 24.2253 33.736 24.2235C33.9256 24.2221 34.1121 24.1755 34.28 24.0875L40.056 21.0075L45.864 24.0235C46.0503 24.1332 46.2633 24.189 46.4794 24.1848C46.6955 24.1805 46.9062 24.1164 47.088 23.9995C47.2645 23.8715 47.401 23.6961 47.4817 23.4936C47.5624 23.2911 47.584 23.0698 47.544 22.8555L46.4 16.4555L51.064 11.8635C51.2435 11.7146 51.3743 11.5153 51.4396 11.2913C51.5048 11.0674 51.5015 10.829 51.4301 10.607C51.3586 10.3849 51.2223 10.1893 51.0388 10.0454C50.8552 9.90152 50.6327 9.81588 50.4 9.79954L43.92 8.89554L41 3.04754C40.9054 2.85078 40.7564 2.68522 40.5707 2.57039C40.385 2.45557 40.1703 2.39629 39.952 2.39954C39.735 2.40228 39.523 2.46501 39.3395 2.58079C39.1559 2.69657 39.008 2.86088 38.912 3.05554L36.048 8.94354L29.6 9.91954C29.3856 9.95158 29.1845 10.0431 29.0194 10.1836C28.8543 10.3242 28.732 10.5082 28.6662 10.7147C28.6004 10.9213 28.5938 11.1422 28.6471 11.3523C28.7005 11.5624 28.8116 11.7534 28.968 11.9035L33.656 16.4475ZM37 11.1515C37.1863 11.1203 37.3625 11.0453 37.5141 10.9327C37.6657 10.82 37.7884 10.6729 37.872 10.5035L40 6.19154L42.144 10.4875C42.2303 10.6542 42.3552 10.7978 42.5083 10.9064C42.6613 11.015 42.8382 11.0853 43.024 11.1115L47.776 11.7755L44.36 15.1435C44.2193 15.2723 44.1127 15.434 44.0498 15.6141C43.987 15.7943 43.9699 15.9872 44 16.1755L44.84 20.9035L40.576 18.6955C40.4099 18.6066 40.2244 18.5601 40.036 18.5601C39.8476 18.5601 39.6621 18.6066 39.496 18.6955L35.256 20.9515L36.056 16.2155C36.0827 16.0311 36.0655 15.8429 36.0057 15.6664C35.9459 15.4898 35.8453 15.3299 35.712 15.1995L32.256 11.8715L37 11.1515Z" fill="#0057B3"/>
</svg>
