<svg width="32" height="32" viewBox="0 0 32 32" fill="none" xmlns="http://www.w3.org/2000/svg">
<g clip-path="url(#clip0_3652_4401)">
<mask id="mask0_3652_4401" style="mask-type:luminance" maskUnits="userSpaceOnUse" x="0" y="0" width="32" height="32">
<path d="M0 1.90735e-06H32V32H0V1.90735e-06Z" fill="white"/>
</mask>
<g mask="url(#mask0_3652_4401)">
<path d="M18.0625 22.6875C18.0625 25.2764 20.1612 27.375 22.75 27.375C25.3388 27.375 27.4375 25.2764 27.4375 22.6875C27.4375 20.0986 25.3388 18 22.75 18C20.1612 18 18.0625 20.0986 18.0625 22.6875Z" stroke="black" stroke-width="2.5" stroke-miterlimit="10" stroke-linecap="round" stroke-linejoin="round"/>
<path d="M30.75 30.75L29 29" stroke="black" stroke-width="2.5" stroke-miterlimit="10" stroke-linecap="round" stroke-linejoin="round"/>
<path d="M17.625 30.75H7.5C4.04819 30.75 1.25 27.9518 1.25 24.5V15.5C1.25 12.0482 4.04819 9.25 7.5 9.25H24.5C27.9518 9.25 30.75 12.0482 30.75 15.5V17.1875" stroke="black" stroke-width="2.5" stroke-miterlimit="10" stroke-linecap="round" stroke-linejoin="round"/>
<path d="M13.125 22.3125H12.9375C9.86544 22.3125 7.375 19.8221 7.375 16.75" stroke="black" stroke-width="2.5" stroke-miterlimit="10" stroke-linecap="round" stroke-linejoin="round"/>
<path d="M11.3125 4.3125C11.3125 2.62113 12.6836 1.25 14.375 1.25H17.625C19.3164 1.25 20.6875 2.62113 20.6875 4.3125" stroke="black" stroke-width="2.5" stroke-miterlimit="10" stroke-linecap="round" stroke-linejoin="round"/>
<path d="M17.583 16.1875C17.583 17.0504 16.8834 17.75 16.0205 17.75C15.1576 17.75 14.458 17.0504 14.458 16.1875C14.458 15.3246 15.1576 14.625 16.0205 14.625C16.8834 14.625 17.583 15.3246 17.583 16.1875Z" fill="black"/>
</g>
</g>
<defs>
<clipPath id="clip0_3652_4401">
<rect width="32" height="32" fill="white"/>
</clipPath>
</defs>
</svg>
