<svg width="32" height="32" viewBox="0 0 32 32" fill="none" xmlns="http://www.w3.org/2000/svg">
<path d="M30.4002 14.9333H25.6002V2.66667C25.5984 1.19453 24.4057 0.00182292 22.9336 0H5.33356C4.15544 0 3.20023 0.955208 3.20023 2.13333V8.53333H1.60023C1.3057 8.53333 1.06689 8.77214 1.06689 9.06667V12.2667C1.06689 12.5612 1.3057 12.8 1.60023 12.8H3.20023V18.6667C3.20023 18.9612 3.43903 19.2 3.73356 19.2H6.40023V29.8667C6.40023 31.0448 7.35544 32 8.53356 32H26.1336C27.3117 32 28.2669 31.0448 28.2669 29.8667C28.2669 28.6885 27.3117 27.7333 26.1336 27.7333H25.6002V19.2H30.4002C30.6948 19.2 30.9336 18.9612 30.9336 18.6667V15.4667C30.9336 15.1721 30.6948 14.9333 30.4002 14.9333ZM4.26689 2.13333C4.26689 1.54427 4.7445 1.06667 5.33356 1.06667C5.92262 1.06667 6.40023 1.54427 6.40023 2.13333V8.53333H4.26689V2.13333ZM2.13356 9.6H17.0669C17.3351 9.6 17.5617 9.40104 17.5961 9.1349L19.4338 10.6667L17.5961 12.1984C17.5617 11.9323 17.3351 11.7333 17.0669 11.7333H2.13356V9.6ZM4.26689 18.1333V12.8H6.40023V18.1333H4.26689ZM27.2002 29.8667C27.2002 30.4557 26.7226 30.9333 26.1336 30.9333H10.3804C10.5687 30.6094 10.6674 30.2414 10.6669 29.8667V28.8H26.1336C26.7226 28.8 27.2002 29.2776 27.2002 29.8667ZM24.5336 27.7333H10.1336C9.83903 27.7333 9.60023 27.9721 9.60023 28.2667V29.8667C9.60023 30.4557 9.12262 30.9333 8.53356 30.9333C7.9445 30.9333 7.46689 30.4557 7.46689 29.8667V12.8H16.5336V13.3333C16.5336 13.5404 16.6534 13.7289 16.8409 13.8167C17.0284 13.9044 17.2497 13.8758 17.4088 13.743L20.6088 11.0763C20.7302 10.975 20.8005 10.825 20.8005 10.6667C20.8005 10.5083 20.7302 10.3583 20.6088 10.257L17.4088 7.59036C17.2497 7.45755 17.0284 7.42891 16.8409 7.51667C16.6534 7.60443 16.5336 7.79297 16.5336 8V8.53333H7.46689V2.13333C7.46507 1.75781 7.36299 1.38958 7.17132 1.06667H22.9336C23.8172 1.06667 24.5336 1.78307 24.5336 2.66667V14.9333H15.4669V14.4C15.4669 14.193 15.3471 14.0044 15.1596 13.9167C14.9721 13.8289 14.7507 13.8576 14.5916 13.9904L11.3916 16.657C11.2703 16.7583 11.2 16.9083 11.2 17.0667C11.2 17.225 11.2703 17.375 11.3916 17.4763L14.5916 20.143C14.7507 20.2758 14.9721 20.3044 15.1596 20.2167C15.3471 20.1289 15.4669 19.9404 15.4669 19.7333V19.2H24.5336V27.7333ZM29.8669 18.1333H14.9336C14.8648 18.1336 14.7968 18.1474 14.7336 18.174C14.714 18.1841 14.6953 18.1956 14.6771 18.2081C14.6388 18.2279 14.6028 18.2521 14.5703 18.2805C14.5531 18.2997 14.5372 18.3201 14.5229 18.3414C14.4968 18.3714 14.4747 18.4042 14.4562 18.4396C14.4458 18.4646 14.4377 18.4906 14.4317 18.5174C14.4205 18.5435 14.4117 18.5706 14.4054 18.5984L12.5666 17.0667L14.4044 15.5349C14.4106 15.5628 14.4195 15.5898 14.4307 15.6159C14.4364 15.6427 14.4448 15.6688 14.4552 15.6938C14.4734 15.7292 14.4958 15.762 14.5218 15.7919C14.5362 15.8133 14.5521 15.8336 14.5692 15.8529C14.6018 15.8813 14.6377 15.9055 14.676 15.9253C14.6942 15.9378 14.713 15.9492 14.7325 15.9594C14.7961 15.9862 14.8646 16 14.9336 16H29.8669V18.1333Z" fill="black"/>
<path d="M9.6001 3.19995H14.9334V4.26662H9.6001V3.19995Z" fill="black"/>
<path d="M9.6001 5.33337H14.9334V6.40004H9.6001V5.33337Z" fill="black"/>
<path d="M11.7334 23.4667H22.4001V24.5333H11.7334V23.4667Z" fill="black"/>
<path d="M11.7334 25.6H22.4001V26.6666H11.7334V25.6Z" fill="black"/>
<path d="M19.2002 21.3334H22.4002V22.4H19.2002V21.3334Z" fill="black"/>
</svg>
