<svg width="32" height="32" viewBox="0 0 32 32" fill="none" xmlns="http://www.w3.org/2000/svg">
<path d="M6.22238 9.55431H15.7983C16.1754 10.7114 17.2518 11.5556 18.5331 11.5556C19.8145 11.5556 20.8909 10.7114 21.268 9.55431H25.7779C26.2693 9.55431 26.6668 9.1563 26.6668 8.66542C26.6668 8.17453 26.2693 7.77653 25.7779 7.77653H21.2672C20.8893 6.62077 19.8135 5.77783 18.5331 5.77783C17.2528 5.77783 16.177 6.62077 15.7991 7.77653H6.22238C5.7315 7.77653 5.3335 8.17453 5.3335 8.66542C5.3335 9.1563 5.7315 9.55431 6.22238 9.55431ZM18.5331 7.55561C19.146 7.55561 19.6443 8.05387 19.6443 8.66672C19.6443 9.27957 19.146 9.77783 18.5331 9.77783C17.9203 9.77783 17.422 9.27957 17.422 8.66672C17.422 8.05387 17.9203 7.55561 18.5331 7.55561Z" fill="black"/>
<path d="M6.22238 16.8877H7.59429C7.97141 18.0448 9.04785 18.889 10.3292 18.889C11.6105 18.889 12.6869 18.0448 13.064 16.8877H25.7779C26.2693 16.8877 26.6668 16.4897 26.6668 15.9988C26.6668 15.5079 26.2693 15.1099 25.7779 15.1099H13.0632C12.6853 13.9541 11.6095 13.1112 10.3292 13.1112C9.04883 13.1112 7.97298 13.9541 7.59511 15.1099H6.22238C5.7315 15.1099 5.3335 15.5079 5.3335 15.9988C5.3335 16.4897 5.7315 16.8877 6.22238 16.8877ZM10.3292 14.889C10.942 14.889 11.4403 15.3872 11.4403 16.0001C11.4403 16.6129 10.942 17.1112 10.3292 17.1112C9.71631 17.1112 9.21804 16.6129 9.21804 16.0001C9.21804 15.3872 9.71631 14.889 10.3292 14.889Z" fill="black"/>
<path d="M6.22238 24.2214H13.354C13.7312 25.3783 14.8076 26.2222 16.0887 26.2222C17.3698 26.2222 18.4462 25.3783 18.8234 24.2214H25.7779C26.2693 24.2214 26.6668 23.8238 26.6668 23.3325C26.6668 22.8412 26.2693 22.4436 25.7779 22.4436H18.8229C18.4451 21.2876 17.3692 20.4445 16.0887 20.4445C14.8082 20.4445 13.7323 21.2876 13.3545 22.4436H6.22238C5.7315 22.4436 5.3335 22.8412 5.3335 23.3325C5.3335 23.8238 5.7315 24.2214 6.22238 24.2214ZM16.0887 22.2222C16.7016 22.2222 17.1998 22.7205 17.1998 23.3333C17.1998 23.9462 16.7016 24.4445 16.0887 24.4445C15.4759 24.4445 14.9776 23.9462 14.9776 23.3333C14.9776 22.7205 15.4759 22.2222 16.0887 22.2222Z" fill="black"/>
<path d="M5.33339 30.2223H26.6667C28.6277 30.2223 30.2223 28.6277 30.2223 26.6667V5.33339C30.2223 3.37288 28.6277 1.77783 26.6667 1.77783H5.33339C3.37288 1.77783 1.77783 3.37288 1.77783 5.33339V26.6667C1.77783 28.6277 3.37288 30.2223 5.33339 30.2223ZM3.55561 5.33339C3.55561 4.35292 4.35292 3.55561 5.33339 3.55561H26.6667C27.6468 3.55561 28.4445 4.35292 28.4445 5.33339V26.6667C28.4445 27.6468 27.6468 28.4445 26.6667 28.4445H5.33339C4.35292 28.4445 3.55561 27.6468 3.55561 26.6667V5.33339Z" fill="black"/>
</svg>
