<svg width="32" height="32" viewBox="0 0 32 32" fill="none" xmlns="http://www.w3.org/2000/svg">
<g clip-path="url(#clip0_3652_4454)">
<path d="M15.9997 31.9995C15.7375 31.9995 15.4756 31.8997 15.2761 31.7L0.300025 16.7239C0.007056 16.4312 -0.0805904 15.9907 0.0781009 15.6079C0.23606 15.2253 0.610083 14.9763 1.02366 14.9763H5.7197V1.02417C5.7197 0.458252 6.1782 0.000244141 6.74363 0.000244141H25.2561C25.822 0.000244141 26.2807 0.458252 26.2807 1.02417C26.2807 1.58984 25.822 2.0481 25.2561 2.0481H7.76731V16.0002C7.76731 16.5659 7.30881 17.0242 6.74363 17.0242H3.49583L15.9997 29.5286L28.5031 17.0242H25.2561C24.6904 17.0242 24.2317 16.5659 24.2317 16.0002V3.8501C24.2317 3.28442 24.6904 2.82617 25.2561 2.82617C25.822 2.82617 26.2807 3.28442 26.2807 3.8501V14.9763H30.9758C31.3904 14.9763 31.7636 15.2253 31.9221 15.6086C32.0808 15.9907 31.9931 16.4312 31.7004 16.7246L16.7243 31.7007C16.5239 31.9004 16.2622 31.9995 15.9997 31.9995Z" fill="black"/>
<path d="M11.3788 19.052C11.1163 19.052 10.8546 18.9521 10.6544 18.7524C10.2545 18.3521 10.2545 17.7036 10.6544 17.3042L19.7311 8.22803C20.131 7.82812 20.7794 7.82812 21.1793 8.22803C21.5792 8.62866 21.5792 9.2771 21.1786 9.67627L12.1027 18.7524C11.903 18.9521 11.6405 19.052 11.3788 19.052Z" fill="black"/>
<path d="M12.6614 13.2134C11.0183 13.2134 9.68115 11.8772 9.68115 10.2344C9.68115 8.59082 11.0178 7.25415 12.6614 7.25415C14.3042 7.25415 15.6409 8.59082 15.6409 10.2344C15.6409 10.8 15.1824 11.2583 14.6172 11.2583C14.0518 11.2583 13.5933 10.8 13.5933 10.2344C13.5933 9.72021 13.1755 9.30127 12.6619 9.30127C12.1482 9.30127 11.73 9.72021 11.73 10.2344C11.73 10.748 12.1482 11.1663 12.6619 11.1663C13.2275 11.1663 13.6858 11.6243 13.6858 12.1902C13.6858 12.7559 13.2266 13.2134 12.6614 13.2134Z" fill="black"/>
<path d="M19.3384 19.8911C17.696 19.8911 16.3594 18.5549 16.3594 16.9121C16.3594 15.269 17.696 13.9329 19.3384 13.9329C20.9819 13.9329 22.3186 15.269 22.3186 16.9121C22.3186 17.4778 21.8606 17.936 21.2947 17.936C20.729 17.936 20.2703 17.4778 20.2703 16.9121C20.2703 16.3984 19.8521 15.9802 19.3379 15.9802C18.8242 15.9802 18.4065 16.3984 18.4065 16.9121C18.4065 17.4255 18.8242 17.8438 19.3379 17.8438C19.9036 17.8438 20.3623 18.302 20.3623 18.8677C20.3623 19.4336 19.9043 19.8911 19.3384 19.8911Z" fill="black"/>
</g>
<defs>
<clipPath id="clip0_3652_4454">
<rect width="32.0003" height="32" fill="white"/>
</clipPath>
</defs>
</svg>
