<svg width="40" height="40" viewBox="0 0 40 40" fill="none" xmlns="http://www.w3.org/2000/svg">
<g clip-path="url(#clip0_525_675)">
<path d="M14.1667 18.3333C19.2217 18.3333 23.3333 14.22 23.3333 9.16667C23.3333 4.11333 19.2217 0 14.1667 0C9.11167 0 5 4.11333 5 9.16667C5 14.22 9.11167 18.3333 14.1667 18.3333ZM14.1667 1.66667C18.3017 1.66667 21.6667 5.03167 21.6667 9.16667C21.6667 13.3017 18.3017 16.6667 14.1667 16.6667C10.0317 16.6667 6.66667 13.3017 6.66667 9.16667C6.66667 5.03167 10.0317 1.66667 14.1667 1.66667ZM29.1667 18.3333C23.1933 18.3333 18.3333 23.1933 18.3333 29.1667C18.3333 35.14 23.1933 40 29.1667 40C35.14 40 40 35.14 40 29.1667C40 23.1933 35.14 18.3333 29.1667 18.3333ZM29.1667 38.3333C24.1117 38.3333 20 34.22 20 29.1667C20 24.1133 24.1117 20 29.1667 20C34.2217 20 38.3333 24.1133 38.3333 29.1667C38.3333 34.22 34.2217 38.3333 29.1667 38.3333ZM30 28.8217L33.09 31.9117L31.9117 33.09L28.335 29.5133V23.335H30.0017V28.8233L30 28.8217ZM17.1633 21.6667C16.83 22.2 16.5283 22.755 16.2667 23.3333H7.5C4.28333 23.3333 1.66667 25.95 1.66667 29.1667V40H0V29.1667C0 25.0317 3.365 21.6667 7.5 21.6667H17.1633Z" fill="black"/>
</g>
<defs>
<clipPath id="clip0_525_675">
<rect width="40" height="40" fill="white"/>
</clipPath>
</defs>
</svg>
