<svg width="40" height="40" viewBox="0 0 40 40" fill="none" xmlns="http://www.w3.org/2000/svg">
<g clip-path="url(#clip0_525_667)">
<path d="M39.7567 39.7567C39.5933 39.92 39.38 40 39.1667 40C38.9533 40 38.74 39.9183 38.5767 39.7567L27.8283 29.0083C24.87 31.6867 20.9617 33.335 16.6667 33.335C7.47667 33.3333 0 25.8567 0 16.6667C0 7.47667 7.47667 0 16.6667 0C20.4117 0 23.9483 1.21333 26.8983 3.50833C27.2617 3.79 27.3267 4.315 27.0433 4.67833C26.76 5.04167 26.2367 5.10667 25.8733 4.82333C23.2217 2.75833 20.0383 1.66667 16.6683 1.66667C8.395 1.66667 1.66667 8.39667 1.66667 16.6667C1.66667 19.4233 2.42667 22.0017 3.73167 24.2233L11.5917 14.915C12.0233 14.405 12.6533 14.0967 13.3183 14.0683C13.9833 14.0383 14.6383 14.2933 15.1117 14.7667L18.5617 18.2167C18.7067 18.36 18.905 18.4267 19.1017 18.4283C19.305 18.4217 19.49 18.3317 19.6217 18.18L35.205 0.286667C35.5067 -0.06 36.0317 -0.0966666 36.38 0.205C36.7267 0.506667 36.7633 1.03333 36.4617 1.38L20.8817 19.275C20.45 19.7733 19.8217 20.0733 19.1617 20.095C18.5033 20.1217 17.8533 19.8633 17.385 19.3967L13.935 15.945C13.7883 15.7983 13.605 15.725 13.39 15.7333C13.185 15.7417 13 15.8333 12.8667 15.99L4.71333 25.6817C7.45333 29.3067 11.7833 31.665 16.6683 31.665C24.94 31.665 31.6683 24.935 31.6683 16.665C31.6683 15.3233 31.4933 13.995 31.145 12.7167C31.025 12.2717 31.2867 11.815 31.7317 11.6933C32.1833 11.5717 32.6333 11.835 32.7533 12.2783C33.14 13.6983 33.3367 15.1733 33.3367 16.6633C33.3367 20.9583 31.6883 24.8667 29.01 27.825L39.7583 38.5733C40.0833 38.8983 40.0833 39.4267 39.7583 39.7517L39.7567 39.7567Z" fill="black"/>
</g>
<defs>
<clipPath id="clip0_525_667">
<rect width="40" height="40" fill="white"/>
</clipPath>
</defs>
</svg>
