<svg width="40" height="40" viewBox="0 0 40 40" fill="none" xmlns="http://www.w3.org/2000/svg">
<g clip-path="url(#clip0_525_665)">
<path d="M34.9996 31.75V20.8334C34.9996 17.6167 32.383 15 29.1663 15H25.833C25.373 15 24.9996 15.3734 24.9996 15.8334C24.9996 16.2934 25.373 16.6667 25.833 16.6667H29.1663C31.463 16.6667 33.333 18.535 33.333 20.8334V31.6667H25.833C25.6113 31.6667 25.3996 31.755 25.243 31.91L23.8196 33.3334H16.1763L14.753 31.91C14.5963 31.7534 14.3846 31.6667 14.163 31.6667H6.66296V20.8334C6.66296 18.535 8.53296 16.6667 10.8296 16.6667H14.163C14.623 16.6667 14.9963 16.2934 14.9963 15.8334C14.9963 15.3734 14.623 15 14.163 15H10.8296C7.61296 15 4.99629 17.6167 4.99629 20.8334V31.75C3.09629 32.1367 1.66296 33.82 1.66296 35.8334C1.66296 38.1317 3.53296 40 5.82962 40H34.163C36.4596 40 38.3296 38.1317 38.3296 35.8334C38.3296 33.82 36.8963 32.1384 34.9963 31.75H34.9996ZM34.1663 38.3334H5.83296C4.45462 38.3334 3.33296 37.2117 3.33296 35.8334C3.33296 34.455 4.45462 33.3334 5.83296 33.3334H13.8213L15.2446 34.7567C15.4013 34.9134 15.613 35 15.8346 35H24.168C24.3896 35 24.6013 34.9117 24.758 34.7567L26.1813 33.3334H34.1696C35.548 33.3334 36.6696 34.455 36.6696 35.8334C36.6696 37.2117 35.548 38.3334 34.1696 38.3334H34.1663ZM19.1663 26.3734V12.5C19.1663 12.04 19.5396 11.6667 19.9996 11.6667C20.4596 11.6667 20.833 12.04 20.833 12.5V26.3734C20.8713 26.3434 25.243 21.9734 25.243 21.9734C25.568 21.6484 26.0963 21.6484 26.4213 21.9734C26.7463 22.2984 26.7463 22.8267 26.4213 23.1517L22.1196 27.4534C21.5496 28.0217 20.808 28.3134 20.0596 28.3284C20.0396 28.3284 20.018 28.3317 19.998 28.3317C19.978 28.3317 19.9563 28.3317 19.9363 28.3284C19.1896 28.3134 18.4463 28.0217 17.8763 27.4534L13.5746 23.1517C13.2496 22.8267 13.2496 22.2984 13.5746 21.9734C13.8996 21.6484 14.428 21.6484 14.753 21.9734C14.753 21.9734 19.1263 26.3434 19.163 26.3734H19.1663ZM24.9996 9.16671V7.50005C24.9996 7.04005 25.373 6.66671 25.833 6.66671C26.293 6.66671 26.6663 7.04005 26.6663 7.50005V9.16671C26.6663 9.62671 26.293 10 25.833 10C25.373 10 24.9996 9.62671 24.9996 9.16671ZM19.1663 4.16671V2.50005C19.1663 2.04005 19.5396 1.66671 19.9996 1.66671C20.4596 1.66671 20.833 2.04005 20.833 2.50005V4.16671C20.833 4.62671 20.4596 5.00005 19.9996 5.00005C19.5396 5.00005 19.1663 4.62671 19.1663 4.16671ZM29.9996 2.50005V0.833381C29.9996 0.373381 30.373 4.76969e-05 30.833 4.76969e-05C31.293 4.76969e-05 31.6663 0.373381 31.6663 0.833381V2.50005C31.6663 2.96005 31.293 3.33338 30.833 3.33338C30.373 3.33338 29.9996 2.96005 29.9996 2.50005ZM8.33296 2.50005V0.833381C8.33296 0.373381 8.70629 4.76969e-05 9.16629 4.76969e-05C9.62629 4.76969e-05 9.99962 0.373381 9.99962 0.833381V2.50005C9.99962 2.96005 9.62629 3.33338 9.16629 3.33338C8.70629 3.33338 8.33296 2.96005 8.33296 2.50005ZM13.333 9.16671V7.50005C13.333 7.04005 13.7063 6.66671 14.1663 6.66671C14.6263 6.66671 14.9996 7.04005 14.9996 7.50005V9.16671C14.9996 9.62671 14.6263 10 14.1663 10C13.7063 10 13.333 9.62671 13.333 9.16671ZM39.9313 1.16171L34.9313 12.8284C34.7963 13.1434 34.488 13.3334 34.1663 13.3334C34.0563 13.3334 33.9446 13.3117 33.838 13.2667C33.4146 13.085 33.218 12.595 33.3996 12.1717L38.4013 0.505048C38.5813 0.0817143 39.073 -0.113286 39.4946 0.0667144C39.918 0.248381 40.113 0.738381 39.9313 1.16171ZM5.06796 12.8284L0.0679577 1.16171C-0.113709 0.738381 0.081291 0.248381 0.504624 0.0667144C0.922958 -0.114952 1.41629 0.0817143 1.59796 0.505048L6.59796 12.1717C6.77962 12.595 6.58296 13.085 6.15962 13.2667C6.05296 13.3117 5.94129 13.3334 5.83129 13.3334C5.50796 13.3334 5.20296 13.145 5.06796 12.8284Z" fill="black"/>
</g>
<defs>
<clipPath id="clip0_525_665">
<rect width="40" height="40" fill="white"/>
</clipPath>
</defs>
</svg>
