<svg width="40" height="40" viewBox="0 0 40 40" fill="none" xmlns="http://www.w3.org/2000/svg">
<g clip-path="url(#clip0_525_673)">
<path d="M40 10.8333V25.8333C40 29.9683 36.635 33.3333 32.5 33.3333H20.8333V38.3333H29.1667C29.6267 38.3333 30 38.7067 30 39.1667C30 39.6267 29.6267 40 29.1667 40H10.8333C10.3733 40 10 39.6267 10 39.1667C10 38.7067 10.3733 38.3333 10.8333 38.3333H19.1667V33.3333H7.5C3.365 33.3333 0 29.9683 0 25.8333V10.8333C0 10.3733 0.373333 10 0.833333 10C1.29333 10 1.66667 10.3733 1.66667 10.8333V25.8333C1.66667 29.05 4.28333 31.6667 7.5 31.6667H32.5C35.7167 31.6667 38.3333 29.05 38.3333 25.8333V10.8333C38.3333 10.3733 38.7067 10 39.1667 10C39.6267 10 40 10.3733 40 10.8333ZM26.6667 15.8333V6.66667C26.6667 4.36833 28.5367 2.5 30.8333 2.5H33.4517C33.825 1.06667 35.1183 0 36.6667 0C38.505 0 40 1.495 40 3.33333C40 5.17167 38.505 6.66667 36.6667 6.66667C35.1183 6.66667 33.825 5.6 33.4517 4.16667H30.8333C29.455 4.16667 28.3333 5.28833 28.3333 6.66667V15.8333C28.3333 16.2933 27.96 16.6667 27.5 16.6667C27.04 16.6667 26.6667 16.2933 26.6667 15.8333ZM35 3.33333C35 4.25333 35.7483 5 36.6667 5C37.585 5 38.3333 4.25333 38.3333 3.33333C38.3333 2.41333 37.585 1.66667 36.6667 1.66667C35.7483 1.66667 35 2.41333 35 3.33333ZM0 3.33333C0 1.495 1.495 0 3.33333 0C4.88167 0 6.175 1.06667 6.54833 2.5H9.16667C11.4633 2.5 13.3333 4.36833 13.3333 6.66667V15.8333C13.3333 16.2933 12.96 16.6667 12.5 16.6667C12.04 16.6667 11.6667 16.2933 11.6667 15.8333V6.66667C11.6667 5.28833 10.545 4.16667 9.16667 4.16667H6.54833C6.175 5.6 4.88167 6.66667 3.33333 6.66667C1.495 6.66667 0 5.17167 0 3.33333ZM1.66667 3.33333C1.66667 4.25333 2.415 5 3.33333 5C4.25167 5 5 4.25333 5 3.33333C5 2.41333 4.25167 1.66667 3.33333 1.66667C2.415 1.66667 1.66667 2.41333 1.66667 3.33333ZM16.6667 3.33333C16.6667 1.495 18.1617 0 20 0C21.8383 0 23.3333 1.495 23.3333 3.33333C23.3333 4.88167 22.2667 6.175 20.8333 6.54833V15.8333C20.8333 16.2933 20.46 16.6667 20 16.6667C19.54 16.6667 19.1667 16.2933 19.1667 15.8333V6.54833C17.7333 6.175 16.6667 4.88167 16.6667 3.33333ZM18.3333 3.33333C18.3333 4.25333 19.0817 5 20 5C20.9183 5 21.6667 4.25333 21.6667 3.33333C21.6667 2.41333 20.9183 1.66667 20 1.66667C19.0817 1.66667 18.3333 2.41333 18.3333 3.33333Z" fill="black"/>
</g>
<defs>
<clipPath id="clip0_525_673">
<rect width="40" height="40" fill="white"/>
</clipPath>
</defs>
</svg>
