<svg width="40" height="40" viewBox="0 0 40 40" fill="none" xmlns="http://www.w3.org/2000/svg">
<path d="M22.2555 9.75667L21.0772 8.57833L26.0772 3.57833L27.2555 4.75667L22.2555 9.75667ZM10.5889 8.57833L5.58885 3.57833L4.41052 4.75667L9.41052 9.75667L10.5889 8.57833ZM16.6655 0H14.9989V8.33333H16.6655V0ZM27.8922 21.4733L35.3722 13.7567C36.8439 12.2867 37.0855 9.975 35.9372 8.38C35.2272 7.395 34.1355 6.775 32.9389 6.67833C31.7355 6.58333 30.5689 7.01333 29.7172 7.865L15.2372 22.5767L14.8222 18.9367C14.7855 17.8483 14.3272 16.8383 13.5322 16.095C12.7355 15.35 11.6922 14.9483 10.6105 14.9983C8.36052 15.0733 6.59052 16.965 6.66385 19.1867V34.945L1.49219 39.9983H3.84885L8.32886 35.635V19.16C8.28719 17.8283 9.33552 16.7083 10.6655 16.6633C11.3172 16.6367 11.9239 16.8717 12.3922 17.3117C12.8639 17.7517 13.1339 18.3483 13.1605 19.0583L13.9755 26.2317L30.8989 9.03833C31.4022 8.53667 32.1039 8.275 32.8022 8.34C33.5222 8.39833 34.1539 8.75833 34.5839 9.355C35.2589 10.2917 35.0905 11.6783 34.1822 12.5867L25.7572 21.2783L33.9205 33.5167L27.3872 39.9983H29.7439L36.0655 33.73L27.8889 21.4717L27.8922 21.4733Z" fill="black"/>
</svg>
