<svg width="60" height="60" viewBox="0 0 60 60" fill="none" xmlns="http://www.w3.org/2000/svg">
<g clip-path="url(#clip0_519_605)">
<path d="M60 58.81C60 59.5 59.4375 60.06 58.75 60.06L8.75 60C3.9275 60 0 56.075 0 51.25V1.25C0 0.56 0.56 0 1.25 0C1.94 0 2.5 0.56 2.5 1.25V51.25C2.5 54.695 5.305 57.5 8.75 57.5L58.7525 57.56C59.44 57.56 60 58.1225 60 58.81ZM12.5 31.31V48.75C12.5 49.44 13.06 50 13.75 50C14.44 50 15 49.44 15 48.75V31.31C15 30.62 14.44 30.06 13.75 30.06C13.06 30.06 12.5 30.62 12.5 31.31ZM25 26.31V48.75C25 49.44 25.56 50 26.25 50C26.94 50 27.5 49.44 27.5 48.75V26.31C27.5 25.62 26.94 25.06 26.25 25.06C25.56 25.06 25 25.62 25 26.31ZM37.5 33.81V48.75C37.5 49.44 38.06 50 38.75 50C39.44 50 40 49.44 40 48.75V33.81C40 33.12 39.44 32.56 38.75 32.56C38.06 32.56 37.5 33.12 37.5 33.81ZM50 23.75V48.75C50 49.44 50.56 50 51.25 50C51.94 50 52.5 49.44 52.5 48.75V23.75C52.5 23.06 51.94 22.5 51.25 22.5C50.56 22.5 50 23.06 50 23.75ZM11.25 22.5C11.57 22.5 11.89 22.3775 12.135 22.135L23.32 10.95C24.2475 10.0225 25.755 10.0225 26.6825 10.95L34.0525 18.3225C35.9575 20.22 39.0475 20.22 40.9525 18.3225L57.135 2.135C57.6225 1.6475 57.6225 0.855 57.135 0.3675C56.6475 -0.12 55.855 -0.12 55.3675 0.3675L39.1825 16.5525C38.255 17.48 36.745 17.48 35.8175 16.5525L28.4475 9.1825C26.545 7.28 23.4525 7.28 21.55 9.1825L10.365 20.3675C9.8775 20.855 9.8775 21.6475 10.365 22.135C10.61 22.38 10.93 22.5 11.25 22.5Z" fill="black"/>
</g>
<defs>
<clipPath id="clip0_519_605">
<rect width="60" height="60" fill="white"/>
</clipPath>
</defs>
</svg>
