<svg width="60" height="60" viewBox="0 0 60 60" fill="none" xmlns="http://www.w3.org/2000/svg">
<g clip-path="url(#clip0_519_611)">
<path d="M60 1.25V7.5C60 8.8775 58.88 10 57.5 10H51.25C50.56 10 50 9.44 50 8.75C50 8.06 50.56 7.5 51.25 7.5H54.98C52.6425 4.3825 48.99 2.5 45 2.5C38.4875 2.5 33.135 7.385 32.5525 13.8625C32.495 14.5125 31.9475 15 31.3075 15C31.27 15 31.2325 15 31.195 14.995C30.5075 14.9325 30 14.325 30.0625 13.6375C30.7625 5.8625 37.185 0 45.0025 0C50.1025 0 54.74 2.555 57.5025 6.745V1.25C57.5025 0.56 58.0625 0 58.7525 0C59.4425 0 60 0.56 60 1.25ZM42.5 36.25V50.1775C42.5 55.685 33.1675 60 21.25 60C9.3325 60 0 55.685 0 50.1775V11.25C0 4.9425 9.3325 0 21.25 0C23.93 0 26.535 0.2525 28.9975 0.75C29.675 0.8875 30.1125 1.5475 29.975 2.2225C29.855 2.815 29.3325 3.225 28.75 3.225C28.6675 3.225 28.585 3.2175 28.5 3.2C26.2 2.7325 23.76 2.4975 21.2475 2.4975C11.0875 2.5 2.5 6.5075 2.5 11.25C2.5 15.9925 11.0875 20 21.25 20C22.0725 20 22.88 19.975 23.675 19.925C24.3725 19.895 24.9575 20.4075 24.9975 21.0975C25.04 21.785 24.515 22.38 23.825 22.42C22.9825 22.4725 22.1225 22.5 21.25 22.5C13.0325 22.5 6.0475 20.15 2.5 16.6225V24.415C2.5 28.32 10.035 32.4975 21.25 32.4975C22.8875 32.4975 24.52 32.4025 26.1025 32.2125C26.785 32.1225 27.41 32.6225 27.4925 33.305C27.575 33.99 27.085 34.6125 26.3975 34.695C24.7175 34.895 22.985 34.9975 21.25 34.9975C13.0325 34.9975 6.0475 32.7875 2.5 29.47V36.915C2.5 40.82 10.035 44.9975 21.25 44.9975C32.465 44.9975 40 40.8175 40 36.915V36.2475C40 35.5575 40.56 34.9975 41.25 34.9975C41.94 34.9975 42.5 35.5575 42.5 36.2475V36.25ZM40 41.9725C36.4525 45.29 29.4675 47.5 21.25 47.5C13.0325 47.5 6.0475 45.29 2.5 41.9725V50.18C2.5 53.6425 10.2 57.5025 21.25 57.5025C32.3 57.5025 40 53.6425 40 50.18V41.9725ZM58.805 15.005C58.1125 14.93 57.5075 15.4475 57.4475 16.1375C56.865 22.615 51.5125 27.5 45 27.5C41.01 27.5 37.3575 25.6175 35.02 22.5H38.75C39.44 22.5 40 21.94 40 21.25C40 20.56 39.44 20 38.75 20H32.5C31.1225 20 30 21.1225 30 22.5V28.75C30 29.44 30.56 30 31.25 30C31.94 30 32.5 29.44 32.5 28.75V23.255C35.2625 27.4425 39.9 30 45 30C52.815 30 59.2375 24.1375 59.94 16.3625C60 15.675 59.495 15.0675 58.8075 15.005H58.805Z" fill="black"/>
</g>
<defs>
<clipPath id="clip0_519_611">
<rect width="60" height="60" fill="white"/>
</clipPath>
</defs>
</svg>
