<svg width="60" height="60" viewBox="0 0 60 60" fill="none" xmlns="http://www.w3.org/2000/svg">
<g clip-path="url(#clip0_519_613)">
<path d="M30 12.5C30.69 12.5 31.25 13.06 31.25 13.75V29.69C31.25 30.135 31.0125 30.5475 30.63 30.77L19.38 37.33C19.1825 37.4475 18.965 37.5 18.75 37.5C18.32 37.5 17.9025 37.2775 17.67 36.88C17.32 36.285 17.5225 35.5175 18.12 35.17L28.75 28.9725V13.75C28.75 13.06 29.31 12.5 30 12.5ZM60 36.25C60 34.18 58.32 32.5 56.25 32.5H45C44.31 32.5 43.75 33.06 43.75 33.75C43.75 34.44 44.31 35 45 35H55.6875L41.3725 49.315C40.4475 50.24 38.93 50.2425 38.005 49.315L35.015 46.3275C33.115 44.43 30.0075 44.43 28.11 46.3275L16.595 57.8425C16.1075 58.33 16.1075 59.1225 16.595 59.61C16.84 59.855 17.16 59.975 17.48 59.975C17.8 59.975 18.12 59.8525 18.365 59.61L29.88 48.095C30.805 47.17 32.3225 47.1675 33.2475 48.095L36.2375 51.0825C38.145 52.9875 41.235 52.9875 43.14 51.0825L57.5 36.725V47.5025C57.5 48.1925 58.06 48.7525 58.75 48.7525C59.44 48.7525 60 48.1925 60 47.5025V36.2525V36.25ZM2.5 30C2.5 14.8375 14.8375 2.5 30 2.5C43.77 2.5 55.4925 12.78 57.2675 26.41C57.3575 27.0925 57.99 27.5725 58.67 27.49C59.355 27.4 59.8375 26.7725 59.75 26.0875C57.81 11.215 45.0225 0 30 0C13.4575 0 0 13.4575 0 30C0 39.89 4.875 49.1425 13.0425 54.75C13.26 54.9 13.5075 54.97 13.75 54.97C14.1475 54.97 14.5375 54.78 14.78 54.4275C15.17 53.8575 15.0275 53.08 14.4575 52.69C6.97 47.5475 2.5 39.0675 2.5 30Z" fill="black"/>
</g>
<defs>
<clipPath id="clip0_519_613">
<rect width="60" height="60" fill="white"/>
</clipPath>
</defs>
</svg>
