<svg width="60" height="60" viewBox="0 0 60 60" fill="none" xmlns="http://www.w3.org/2000/svg">
<g clip-path="url(#clip0_519_607)">
<path d="M17.4991 10C20.2566 10 22.4991 7.7575 22.4991 5C22.4991 2.2425 20.2566 0 17.4991 0C14.7416 0 12.4991 2.2425 12.4991 5C12.4991 7.7575 14.7416 10 17.4991 10ZM17.4991 2.5C18.8766 2.5 19.9991 3.6225 19.9991 5C19.9991 6.3775 18.8766 7.5 17.4991 7.5C16.1216 7.5 14.9991 6.3775 14.9991 5C14.9991 3.6225 16.1216 2.5 17.4991 2.5ZM29.9991 17.5C32.7566 17.5 34.9991 15.2575 34.9991 12.5C34.9991 9.7425 32.7566 7.5 29.9991 7.5C27.2416 7.5 24.9991 9.7425 24.9991 12.5C24.9991 15.2575 27.2416 17.5 29.9991 17.5ZM29.9991 10C31.3766 10 32.4991 11.1225 32.4991 12.5C32.4991 13.8775 31.3766 15 29.9991 15C28.6216 15 27.4991 13.8775 27.4991 12.5C27.4991 11.1225 28.6216 10 29.9991 10ZM42.4991 10C45.2566 10 47.4991 7.7575 47.4991 5C47.4991 2.2425 45.2566 0 42.4991 0C39.7416 0 37.4991 2.2425 37.4991 5C37.4991 7.7575 39.7416 10 42.4991 10ZM42.4991 2.5C43.8766 2.5 44.9991 3.6225 44.9991 5C44.9991 6.3775 43.8766 7.5 42.4991 7.5C41.1216 7.5 39.9991 6.3775 39.9991 5C39.9991 3.6225 41.1216 2.5 42.4991 2.5ZM59.9991 16.25V41.5025C59.9991 46.51 58.0491 51.22 54.5066 54.76L49.6316 59.635C49.3866 59.88 49.0666 60 48.7466 60C48.4266 60 48.1066 59.8775 47.8616 59.635C47.3741 59.1475 47.3741 58.355 47.8616 57.8675L52.7366 52.9925C55.8066 49.9225 57.4966 45.8425 57.4966 41.5025V16.25C57.4966 14.1825 55.8141 12.5 53.7466 12.5C51.6791 12.5 49.9966 14.1825 49.9966 16.25C49.9966 16.25 49.9741 36.3425 49.9691 36.3925C49.9366 37.77 49.4716 39.14 48.5366 40.2525L41.9416 47.1175C41.6966 47.3725 41.3691 47.5 41.0416 47.5C40.7291 47.5 40.4166 47.385 40.1741 47.15C39.6766 46.6725 39.6616 45.88 40.1391 45.3825L46.6791 38.58C47.2441 37.905 47.5191 37.0425 47.4991 36.175V36.165C47.4766 35.2975 47.1616 34.43 46.5441 33.74C45.1691 32.2075 42.8016 32.075 41.2616 33.45L34.4391 39.73C33.1366 40.93 32.1266 42.365 31.3691 43.96C32.0966 45.8225 32.4991 47.815 32.4991 49.85V58.7475C32.4991 59.4375 31.9391 59.9975 31.2491 59.9975C30.5591 59.9975 29.9991 59.4375 29.9991 58.7475V49.85C29.9991 46.015 28.3816 42.3275 25.5591 39.7325L18.7241 33.4425C17.2016 32.0775 14.8291 32.2075 13.4541 33.7425C12.2191 35.12 12.1866 37.2275 13.3741 38.6425L19.8566 45.38C20.3341 45.8775 20.3191 46.67 19.8216 47.1475C19.3216 47.6275 18.5316 47.61 18.0541 47.1125L11.5141 40.31C10.5641 39.1825 10.0491 37.8175 9.99664 36.45C9.98414 36.38 9.99664 16.245 9.99664 16.245C9.99664 14.1775 8.31414 12.495 6.24664 12.495C4.17914 12.495 2.49664 14.1775 2.49664 16.245V41.4975C2.49664 45.8375 4.18664 49.92 7.25664 52.9875L12.1316 57.8625C12.6191 58.35 12.6191 59.1425 12.1316 59.63C11.8866 59.875 11.5666 59.995 11.2466 59.995C10.9266 59.995 10.6066 59.8725 10.3616 59.63L5.48664 54.755C1.94414 51.2125 -0.00585938 46.505 -0.00585938 41.4975V16.25C-0.00585938 12.805 2.79914 10 6.24414 10C9.11664 10 11.5166 11.9575 12.2441 14.6025C13.6291 13.305 15.4791 12.5 17.4941 12.5C18.5266 12.5 19.5266 12.7 20.4741 13.095C21.1116 13.36 21.4116 14.0925 21.1466 14.73C20.8816 15.3675 20.1516 15.6725 19.5116 15.4025C18.8716 15.1375 18.1916 15 17.4916 15C15.0916 15 13.0066 16.645 12.4916 18.92V31.25C14.8241 29.5025 18.1441 29.5775 20.3966 31.5925L27.2441 37.895C28.3191 38.8825 29.2266 40.0175 29.9891 41.235C30.7541 40.01 31.6641 38.885 32.7391 37.895L39.5741 31.605C41.8366 29.5775 45.1591 29.5025 47.4916 31.25V18.92C46.9766 16.645 44.8916 15 42.4916 15C41.7916 15 41.1116 15.135 40.4716 15.4025C39.8391 15.67 39.1041 15.3675 38.8366 14.73C38.5716 14.0925 38.8716 13.36 39.5091 13.095C40.4566 12.7 41.4591 12.5 42.4891 12.5C44.5041 12.5 46.3541 13.305 47.7391 14.6025C48.4691 11.96 50.8691 10 53.7391 10C57.1841 10 59.9891 12.805 59.9891 16.25H59.9991ZM20.9666 25.7025C22.6816 22.185 26.1891 20 30.1241 20C34.0591 20 37.5691 22.185 39.2816 25.7025C39.5841 26.325 39.2291 27.5975 38.1591 27.5C37.6941 27.5 37.2516 27.2425 37.0341 26.7975C35.7416 24.145 33.0941 22.5 30.1216 22.5C27.1491 22.5 24.5016 24.1475 23.2091 26.7975C22.9066 27.4175 22.1616 27.68 21.5391 27.3725C20.9191 27.07 20.6616 26.3225 20.9641 25.7025H20.9666Z" fill="black"/>
</g>
<defs>
<clipPath id="clip0_519_607">
<rect width="60" height="60" fill="white"/>
</clipPath>
</defs>
</svg>
