<svg width="60" height="60" viewBox="0 0 60 60" fill="none" xmlns="http://www.w3.org/2000/svg">
<g clip-path="url(#clip0_519_609)">
<path d="M29.9992 25C27.2417 25 24.9992 27.2425 24.9992 30C24.9992 32.7575 27.2417 35 29.9992 35C32.7567 35 34.9992 32.7575 34.9992 30C34.9992 27.2425 32.7567 25 29.9992 25ZM29.9992 32.5C28.6217 32.5 27.4992 31.3775 27.4992 30C27.4992 28.6225 28.6217 27.5 29.9992 27.5C31.3767 27.5 32.4992 28.6225 32.4992 30C32.4992 31.3775 31.3767 32.5 29.9992 32.5ZM45.1117 21.1775C44.0667 19.39 41.7617 18.785 39.9817 19.83L38.3792 20.765C37.0367 19.5425 35.4617 18.635 33.7467 18.095V16.25C33.7467 14.1825 32.0642 12.5 29.9967 12.5C27.9292 12.5 26.2467 14.1825 26.2467 16.25V18.095C24.5292 18.635 22.9567 19.5425 21.6142 20.765L20.0117 19.83C19.1467 19.3225 18.1367 19.19 17.1667 19.44C16.1967 19.695 15.3867 20.3125 14.8817 21.175C14.3767 22.04 14.2367 23.05 14.4917 24.02C14.7467 24.99 15.3642 25.8 16.2292 26.305L17.8442 27.2475C17.6092 28.2125 17.4943 29.12 17.4943 29.9975C17.4943 30.875 17.6092 31.7825 17.8442 32.75L16.2292 33.6925C14.4442 34.735 13.8392 37.0375 14.8817 38.8225C15.9217 40.6075 18.2267 41.215 20.0092 40.17L21.6117 39.235C22.9517 40.455 24.5267 41.3625 26.2442 41.905V43.75C26.2442 45.8175 27.9267 47.5 29.9942 47.5C32.0617 47.5 33.7442 45.8175 33.7442 43.75V41.905C35.4617 41.365 37.0342 40.455 38.3767 39.235L39.9792 40.17C41.7567 41.2125 44.0643 40.6075 45.1093 38.8225C46.1518 37.0375 45.5467 34.7375 43.7592 33.6925L42.1442 32.75C42.3792 31.7875 42.4942 30.88 42.4942 29.9975C42.4942 29.115 42.3792 28.21 42.1442 27.2475L43.7592 26.305C45.5442 25.2625 46.1518 22.9625 45.1093 21.175L45.1117 21.1775ZM43.0817 23.3875C42.9967 23.71 42.7918 23.98 42.5043 24.15L40.0568 25.58C39.5518 25.875 39.3192 26.4775 39.4942 27.035C39.8342 28.1175 39.9992 29.09 39.9992 30.005C39.9992 30.9325 39.8392 31.875 39.4942 32.975C39.3192 33.5325 39.5518 34.135 40.0568 34.4275L42.5043 35.855C43.0993 36.2025 43.3017 36.97 42.9567 37.565C42.6067 38.1575 41.8392 38.3625 41.2442 38.015L38.8167 36.5975C38.3167 36.305 37.6742 36.395 37.2742 36.82C35.8992 38.285 34.1517 39.2925 32.2217 39.7325C31.6542 39.8625 31.2492 40.3675 31.2492 40.95V43.75C31.2492 44.44 30.6892 45 29.9992 45C29.3092 45 28.7492 44.44 28.7492 43.75V40.95C28.7492 40.3675 28.3467 39.86 27.7767 39.7325C25.8442 39.2925 24.0967 38.285 22.7242 36.82C22.4817 36.56 22.1492 36.425 21.8117 36.425C21.5967 36.425 21.3792 36.48 21.1817 36.595L18.7542 38.0125C18.1592 38.355 17.3917 38.1575 17.0442 37.5625C16.8767 37.275 16.8292 36.9375 16.9142 36.615C16.9992 36.2925 17.2043 36.02 17.4918 35.8525L19.9392 34.425C20.4417 34.1325 20.6767 33.53 20.5017 32.9725C20.1567 31.8675 19.9967 30.9225 19.9967 30C19.9967 29.0775 20.1567 28.1325 20.5017 27.03C20.6767 26.4725 20.4442 25.87 19.9392 25.5775L17.4918 24.1475C17.2043 23.98 16.9967 23.7075 16.9142 23.385C16.8292 23.0625 16.8742 22.725 17.0442 22.4375C17.2117 22.15 17.4843 21.9425 17.8068 21.86C18.1318 21.7725 18.4667 21.82 18.7542 21.99L21.1817 23.4075C21.6842 23.7025 22.3242 23.6125 22.7242 23.1825C24.0967 21.7175 25.8442 20.7125 27.7767 20.27C28.3467 20.14 28.7492 19.635 28.7492 19.0525V16.25C28.7492 15.56 29.3092 15 29.9992 15C30.6892 15 31.2492 15.56 31.2492 16.25V19.0525C31.2492 19.635 31.6542 20.1425 32.2217 20.2725C34.1517 20.71 35.8992 21.7175 37.2742 23.1825C37.6742 23.61 38.3167 23.7025 38.8167 23.4075L41.2442 21.99C41.5317 21.8225 41.8668 21.7725 42.1918 21.86C42.5143 21.945 42.7867 22.15 42.9542 22.4375C43.1217 22.725 43.1667 23.065 43.0817 23.3875ZM59.9443 31.305C59.2568 47.3975 46.0892 60.0025 29.9717 60.0025C21.2667 60.0025 13.2092 56.2925 7.50925 49.8175C7.50425 49.8825 7.47175 49.9375 7.47175 50.0025V58.7525C7.47175 59.4425 6.91175 60.0025 6.22175 60.0025C5.53175 60.0025 4.97175 59.4425 4.97175 58.7525V50.0025C4.97175 47.245 7.21425 45.0025 9.97175 45.0025H18.7217C19.4117 45.0025 19.9717 45.5625 19.9717 46.2525C19.9717 46.9425 19.4117 47.5025 18.7217 47.5025H9.97175C9.62175 47.5025 9.28925 47.5775 8.98675 47.7075C14.2292 53.9275 21.7892 57.5025 29.9717 57.5025C44.7467 57.5025 56.8142 45.9475 57.4467 31.2C57.4767 30.51 58.0792 29.9875 58.7492 30.005C59.4392 30.035 59.9743 30.615 59.9443 31.305ZM2.49675 28.8025C2.46925 29.475 1.91425 30 1.24925 30C1.23175 30 1.21175 30 1.19425 30C0.504249 29.97 -0.0307506 29.3875 -0.00075065 28.6975C0.689249 12.605 13.8542 0 29.9717 0C38.6767 0 46.7343 3.71 52.4343 10.185C52.4393 10.12 52.4717 10.065 52.4717 10V1.25C52.4717 0.56 53.0317 0 53.7217 0C54.4117 0 54.9717 0.56 54.9717 1.25V10C54.9717 12.7575 52.7292 15 49.9717 15H41.2217C40.5317 15 39.9717 14.44 39.9717 13.75C39.9717 13.06 40.5317 12.5 41.2217 12.5H49.9717C50.3217 12.5 50.6543 12.425 50.9593 12.2925C45.7143 6.0725 38.1542 2.5 29.9717 2.5C15.1967 2.5 3.12925 14.055 2.49675 28.8025Z" fill="black"/>
</g>
<defs>
<clipPath id="clip0_519_609">
<rect width="60" height="60" fill="white"/>
</clipPath>
</defs>
</svg>
