<svg width="60" height="60" viewBox="0 0 60 60" fill="none" xmlns="http://www.w3.org/2000/svg">
<path d="M59.9018 50.09L57.6793 40.955L55.2468 41.545L57.2543 49.7875L47.4993 43.8525V26.09L31.2493 16.8025V5.79501L37.3743 11.92L39.1418 10.1525L32.4943 3.50251C31.1518 2.16751 28.9768 2.17001 27.6343 3.50251L20.9868 10.15L22.7543 11.9175L28.7493 5.92251V16.795L12.4993 26.0825V43.845L2.74433 49.78L4.75183 41.5375L2.31933 40.9475L0.0993262 50.09C-0.118174 50.98 0.0243262 51.905 0.499326 52.6875C0.976826 53.4725 1.72933 54.025 2.62433 54.24L11.7593 56.465L12.3493 54.0375L3.92933 51.9875L13.0618 46.43L29.9968 56.11L46.9318 46.43L56.0643 51.9875L47.6443 54.0375L48.2343 56.465L57.3693 54.24C58.2618 54.025 59.0143 53.4725 59.4943 52.6875C59.9693 51.905 60.1118 50.98 59.8968 50.09H59.9018ZM29.9993 34.2225L16.6518 26.5925L29.9993 18.965L43.3468 26.5925L29.9993 34.2225ZM31.2493 36.39L44.9993 28.5325V44.6575L31.2493 52.515V36.39ZM14.9993 28.5325L28.7493 36.39V52.515L14.9993 44.6575V28.5325Z" fill="black"/>
</svg>
