<svg width="60" height="60" viewBox="0 0 60 60" fill="none" xmlns="http://www.w3.org/2000/svg">
<g clip-path="url(#clip0_4741_4874)">
<path d="M7.5 47.5C7.5 48.8261 8.02678 50.0979 8.96447 51.0355C9.90215 51.9732 11.1739 52.5 12.5 52.5C13.8261 52.5 15.0979 51.9732 16.0355 51.0355C16.9732 50.0979 17.5 48.8261 17.5 47.5C17.5 46.1739 16.9732 44.9021 16.0355 43.9645C15.0979 43.0268 13.8261 42.5 12.5 42.5C11.1739 42.5 9.90215 43.0268 8.96447 43.9645C8.02678 44.9021 7.5 46.1739 7.5 47.5Z" stroke="#0E53BE" stroke-width="5" stroke-linecap="round" stroke-linejoin="round"/>
<path d="M17.5 47.5H25C26.3261 47.5 27.5979 46.9732 28.5355 46.0355C29.4732 45.0979 30 43.8261 30 42.5V22.5C30 21.1739 30.5268 19.9021 31.4645 18.9645C32.4021 18.0268 33.6739 17.5 35 17.5H52.5" stroke="#0E53BE" stroke-width="5" stroke-linecap="round" stroke-linejoin="round"/>
<path d="M45 10L52.5 17.5L45 25" stroke="#0E53BE" stroke-width="5" stroke-linecap="round" stroke-linejoin="round"/>
</g>
<defs>
<clipPath id="clip0_4741_4874">
<rect width="60" height="60" fill="white"/>
</clipPath>
</defs>
</svg>
