<svg width="143" height="144" viewBox="0 0 143 144" fill="none" xmlns="http://www.w3.org/2000/svg">
<path d="M1.5 105.143V1.5H141.5V105.143L71.2436 141.5L1.5 105.143Z" fill="#0E53BE" stroke="white" stroke-width="3"/>
<path d="M71 131.095L1.5 95.5V104.81L71 141.5L140.5 104.81V95.5L71 131.095Z" fill="white"/>
<path d="M27.5761 53.838C26.3975 53.838 25.3185 53.5477 24.3391 52.967C23.3598 52.3777 22.5755 51.5933 21.9861 50.614C21.3968 49.626 21.1021 48.534 21.1021 47.338C21.1021 46.7747 21.1715 46.22 21.3101 45.674C21.4488 45.1193 21.6655 44.5907 21.9601 44.088L27.0301 35.3H31.5541L28.3301 40.864C28.9888 40.942 29.6085 41.111 30.1891 41.371C30.7785 41.6223 31.3115 41.9517 31.7881 42.359C32.2648 42.7577 32.6765 43.217 33.0231 43.737C33.3698 44.257 33.6341 44.8203 33.8161 45.427C34.0068 46.0337 34.1021 46.6707 34.1021 47.338C34.1021 48.2307 33.9331 49.0713 33.5951 49.86C33.2571 50.64 32.7891 51.329 32.1911 51.927C31.5931 52.525 30.8998 52.993 30.1111 53.331C29.3225 53.669 28.4775 53.838 27.5761 53.838ZM27.5761 49.938C28.0788 49.938 28.5251 49.8167 28.9151 49.574C29.3138 49.3227 29.6258 49.002 29.8511 48.612C30.0851 48.2133 30.2021 47.7973 30.2021 47.364C30.2021 46.8873 30.0895 46.4497 29.8641 46.051C29.6388 45.6523 29.3268 45.336 28.9281 45.102C28.5381 44.8593 28.0961 44.738 27.6021 44.738C27.0821 44.738 26.6271 44.8637 26.2371 45.115C25.8471 45.3663 25.5438 45.6913 25.3271 46.09C25.1105 46.4887 25.0021 46.9133 25.0021 47.364C25.0021 47.858 25.1235 48.3 25.3661 48.69C25.6175 49.0713 25.9381 49.3747 26.3281 49.6C26.7181 49.8253 27.1341 49.938 27.5761 49.938ZM40.464 52.2V47.65H35.914V43.75H40.464V39.2H44.364V43.75H48.914V47.65H44.364V52.2H40.464ZM68.9161 35.3H73.5181L67.2001 45.31V53.5H63.3001V45.31L56.9821 35.3H61.5841L65.2501 41.072L68.9161 35.3ZM78.4626 53.838C77.2666 53.838 76.1746 53.5303 75.1866 52.915C74.2073 52.2997 73.423 51.472 72.8336 50.432C72.253 49.392 71.9626 48.2437 71.9626 46.987C71.9626 46.0423 72.1316 45.1583 72.4696 44.335C72.8076 43.503 73.2713 42.775 73.8606 42.151C74.4586 41.5183 75.152 41.0243 75.9406 40.669C76.7293 40.3137 77.57 40.136 78.4626 40.136C79.5026 40.136 80.4516 40.3657 81.3096 40.825C82.1763 41.2757 82.9043 41.891 83.4936 42.671C84.0916 43.4423 84.5163 44.3133 84.7676 45.284C85.019 46.2547 85.045 47.2557 84.8456 48.287H76.1746C76.296 48.5903 76.4563 48.8677 76.6556 49.119C76.8636 49.3617 77.115 49.5567 77.4096 49.704C77.713 49.8513 78.064 49.9293 78.4626 49.938C78.844 49.9467 79.195 49.8643 79.5156 49.691C79.845 49.5177 80.131 49.2837 80.3736 48.989L84.3516 49.912C83.823 51.0647 83.0343 52.0093 81.9856 52.746C80.937 53.474 79.7626 53.838 78.4626 53.838ZM76.0316 45.427H80.9066C80.7853 45.0543 80.6033 44.725 80.3606 44.439C80.118 44.153 79.832 43.9277 79.5026 43.763C79.182 43.5983 78.8353 43.516 78.4626 43.516C78.0986 43.516 77.752 43.5983 77.4226 43.763C77.102 43.9277 76.8203 44.153 76.5776 44.439C76.3436 44.725 76.1616 45.0543 76.0316 45.427ZM96.3715 40.5H100.272V53.5H96.3585L96.1765 52.33C95.8559 52.7807 95.4485 53.1447 94.9545 53.422C94.4692 53.6993 93.9015 53.838 93.2515 53.838C92.2809 53.838 91.3709 53.656 90.5215 53.292C89.6809 52.928 88.9399 52.4253 88.2985 51.784C87.6572 51.134 87.1545 50.3887 86.7905 49.548C86.4352 48.6987 86.2575 47.7887 86.2575 46.818C86.2575 45.8907 86.4265 45.024 86.7645 44.218C87.1025 43.412 87.5749 42.7057 88.1815 42.099C88.7969 41.4837 89.5032 41.0027 90.3005 40.656C91.1065 40.3093 91.9689 40.136 92.8875 40.136C93.6329 40.136 94.3089 40.292 94.9155 40.604C95.5309 40.9073 96.0769 41.2887 96.5535 41.748L96.3715 40.5ZM93.1475 50.094C93.6849 50.094 94.1745 49.9553 94.6165 49.678C95.0585 49.4007 95.4095 49.028 95.6695 48.56C95.9295 48.092 96.0595 47.572 96.0595 47C96.0595 46.428 95.9295 45.908 95.6695 45.44C95.4095 44.972 95.0585 44.5993 94.6165 44.322C94.1745 44.0447 93.6849 43.906 93.1475 43.906C92.6102 43.906 92.1205 44.0447 91.6785 44.322C91.2452 44.5993 90.8985 44.972 90.6385 45.44C90.3872 45.908 90.2615 46.428 90.2615 47C90.2615 47.572 90.3915 48.092 90.6515 48.56C90.9115 49.028 91.2582 49.4007 91.6915 49.678C92.1335 49.9553 92.6189 50.094 93.1475 50.094ZM102.894 53.5L102.881 40.5H106.781L106.794 41.319C107.228 40.9463 107.722 40.656 108.276 40.448C108.831 40.24 109.416 40.136 110.031 40.136C110.499 40.136 110.976 40.2053 111.461 40.344L109.927 44.296C109.624 44.1573 109.312 44.088 108.991 44.088C108.584 44.088 108.211 44.1877 107.873 44.387C107.544 44.5777 107.28 44.842 107.08 45.18C106.89 45.5093 106.794 45.8777 106.794 46.285V53.5H102.894ZM116.502 53.734C115.844 53.6733 115.211 53.5303 114.604 53.305C113.998 53.0797 113.456 52.772 112.979 52.382C112.503 51.992 112.126 51.5153 111.848 50.952L115.124 49.548C115.211 49.6433 115.332 49.7647 115.488 49.912C115.644 50.0507 115.839 50.1763 116.073 50.289C116.316 50.4017 116.606 50.458 116.944 50.458C117.17 50.458 117.386 50.4363 117.594 50.393C117.811 50.341 117.984 50.2543 118.114 50.133C118.253 50.0117 118.322 49.8427 118.322 49.626C118.322 49.3833 118.231 49.2013 118.049 49.08C117.876 48.95 117.664 48.859 117.412 48.807C117.161 48.7463 116.927 48.6987 116.71 48.664C115.939 48.5427 115.198 48.3 114.487 47.936C113.785 47.5633 113.209 47.0823 112.758 46.493C112.308 45.895 112.082 45.1973 112.082 44.4C112.082 43.5073 112.312 42.736 112.771 42.086C113.231 41.436 113.829 40.9377 114.565 40.591C115.311 40.2357 116.112 40.058 116.97 40.058C117.984 40.058 118.92 40.266 119.778 40.682C120.645 41.098 121.356 41.696 121.91 42.476L118.842 44.296C118.738 44.166 118.608 44.036 118.452 43.906C118.305 43.7673 118.132 43.6503 117.932 43.555C117.742 43.451 117.534 43.386 117.308 43.36C117.005 43.334 116.732 43.347 116.489 43.399C116.255 43.4423 116.069 43.5377 115.93 43.685C115.792 43.8237 115.722 44.0273 115.722 44.296C115.722 44.5473 115.844 44.7293 116.086 44.842C116.329 44.9547 116.602 45.037 116.905 45.089C117.209 45.141 117.456 45.1973 117.646 45.258C118.392 45.5007 119.094 45.817 119.752 46.207C120.411 46.597 120.94 47.0693 121.338 47.624C121.746 48.1787 121.936 48.8287 121.91 49.574C121.91 50.4407 121.65 51.2033 121.13 51.862C120.61 52.5207 119.939 53.019 119.115 53.357C118.292 53.695 117.421 53.8207 116.502 53.734Z" fill="white"/>
<path d="M19.9073 66.3H21.5313L25.6033 77.5H24.1793L23.3473 75.212H18.0913L17.2673 77.5H15.8353L19.9073 66.3ZM18.5873 73.868H22.8513L20.7153 68.02L18.5873 73.868ZM30.1278 77.5H28.4078L25.4878 69.484H26.9198L29.2638 75.94L31.6078 69.484H33.0398L30.1278 77.5ZM40.2783 69.5H41.6223V77.756C41.6223 78.284 41.5076 78.7747 41.2783 79.228C41.0543 79.6867 40.7503 80.084 40.3663 80.42C39.9823 80.7613 39.545 81.0253 39.0543 81.212C38.5636 81.404 38.0516 81.5 37.5183 81.5C36.9636 81.5 36.4276 81.3747 35.9103 81.124C35.393 80.8787 34.9396 80.548 34.5503 80.132C34.1663 79.7213 33.889 79.26 33.7183 78.748L34.9503 78.188C35.0516 78.556 35.233 78.8867 35.4943 79.18C35.761 79.4787 36.0703 79.7133 36.4223 79.884C36.7796 80.06 37.145 80.148 37.5183 80.148C37.8703 80.148 38.209 80.0867 38.5343 79.964C38.865 79.8413 39.161 79.6707 39.4223 79.452C39.689 79.2387 39.897 78.9853 40.0463 78.692C40.201 78.404 40.2783 78.092 40.2783 77.756V76.164C40.0063 76.6227 39.6463 76.996 39.1983 77.284C38.7556 77.5667 38.2383 77.708 37.6463 77.708C37.081 77.708 36.5503 77.5987 36.0543 77.38C35.5583 77.1613 35.1236 76.86 34.7503 76.476C34.377 76.0867 34.0836 75.6387 33.8703 75.132C33.657 74.6253 33.5503 74.0813 33.5503 73.5C33.5503 72.9187 33.657 72.3747 33.8703 71.868C34.0836 71.356 34.377 70.908 34.7503 70.524C35.1236 70.1347 35.5583 69.8307 36.0543 69.612C36.5503 69.3933 37.081 69.284 37.6463 69.284C38.2383 69.284 38.7556 69.4253 39.1983 69.708C39.6463 69.9907 40.0063 70.364 40.2783 70.828V69.5ZM37.6543 76.404C38.1716 76.404 38.6196 76.2707 38.9983 76.004C39.3823 75.7373 39.6783 75.3827 39.8863 74.94C40.0943 74.4973 40.1983 74.0173 40.1983 73.5C40.1983 72.9667 40.0916 72.4813 39.8783 72.044C39.6703 71.6013 39.3743 71.2493 38.9903 70.988C38.6116 70.7213 38.1663 70.588 37.6543 70.588C37.153 70.588 36.6943 70.7187 36.2783 70.98C35.8623 71.2413 35.5316 71.5933 35.2863 72.036C35.0463 72.4733 34.9263 72.9613 34.9263 73.5C34.9263 74.0387 35.049 74.5293 35.2943 74.972C35.545 75.4093 35.8756 75.7587 36.2863 76.02C36.7023 76.276 37.1583 76.404 37.6543 76.404ZM43.9539 77.708C43.7513 77.708 43.5779 77.636 43.4339 77.492C43.2953 77.348 43.2259 77.172 43.2259 76.964C43.2259 76.7667 43.2953 76.596 43.4339 76.452C43.5779 76.308 43.7513 76.236 43.9539 76.236C44.1619 76.236 44.3379 76.308 44.4819 76.452C44.6259 76.596 44.6979 76.7667 44.6979 76.964C44.6979 77.172 44.6259 77.348 44.4819 77.492C44.3379 77.636 44.1619 77.708 43.9539 77.708ZM50.4678 77.5V66.3H57.3398V67.644H51.8118V70.828H56.3398V72.172H51.8118V76.156H57.3398V77.5H50.4678ZM58.3353 77.5L61.2633 73.484L58.3513 69.484H60.0073L62.0953 72.332L64.1753 69.484H65.8313L62.9193 73.484L65.8473 77.5H64.1913L62.0953 74.62L59.9913 77.5H58.3353ZM68.5774 81.5H67.2334V69.5H68.5774V70.868C68.8494 70.3987 69.2121 70.02 69.6654 69.732C70.1188 69.4387 70.6574 69.292 71.2814 69.292C71.8628 69.292 72.4068 69.4013 72.9134 69.62C73.4254 69.8387 73.8734 70.1427 74.2574 70.532C74.6414 70.916 74.9428 71.3613 75.1614 71.868C75.3801 72.3747 75.4894 72.9187 75.4894 73.5C75.4894 74.0813 75.3801 74.628 75.1614 75.14C74.9428 75.652 74.6414 76.1027 74.2574 76.492C73.8734 76.876 73.4254 77.1773 72.9134 77.396C72.4068 77.6147 71.8628 77.724 71.2814 77.724C70.6574 77.724 70.1188 77.58 69.6654 77.292C69.2121 76.9987 68.8494 76.6173 68.5774 76.148V81.5ZM71.2654 70.596C70.7481 70.596 70.2948 70.7267 69.9054 70.988C69.5161 71.2493 69.2148 71.5987 69.0014 72.036C68.7934 72.4733 68.6894 72.9613 68.6894 73.5C68.6894 74.0333 68.7934 74.5213 69.0014 74.964C69.2148 75.4067 69.5134 75.7587 69.8974 76.02C70.2868 76.2813 70.7428 76.412 71.2654 76.412C71.7828 76.412 72.2574 76.284 72.6894 76.028C73.1214 75.7667 73.4681 75.4173 73.7294 74.98C73.9908 74.5373 74.1214 74.044 74.1214 73.5C74.1214 72.9667 73.9934 72.4813 73.7374 72.044C73.4814 71.6013 73.1374 71.2493 72.7054 70.988C72.2734 70.7267 71.7934 70.596 71.2654 70.596ZM80.3003 77.708C79.5643 77.708 78.8923 77.5187 78.2843 77.14C77.6816 76.7613 77.199 76.2547 76.8363 75.62C76.479 74.98 76.3003 74.2733 76.3003 73.5C76.3003 72.9133 76.4043 72.3667 76.6123 71.86C76.8203 71.348 77.1056 70.9 77.4683 70.516C77.8363 70.1267 78.263 69.8227 78.7483 69.604C79.2336 69.3853 79.751 69.276 80.3003 69.276C80.903 69.276 81.455 69.3987 81.9563 69.644C82.463 69.884 82.895 70.22 83.2523 70.652C83.615 71.084 83.8843 71.5853 84.0603 72.156C84.2416 72.7267 84.3083 73.3373 84.2603 73.988H77.7323C77.7963 74.4413 77.9456 74.8467 78.1803 75.204C78.415 75.556 78.7136 75.836 79.0763 76.044C79.4443 76.252 79.8523 76.3587 80.3003 76.364C80.7803 76.364 81.215 76.2413 81.6043 75.996C81.9936 75.7453 82.3083 75.404 82.5483 74.972L83.9163 75.292C83.5963 76.0013 83.1136 76.5827 82.4683 77.036C81.823 77.484 81.1003 77.708 80.3003 77.708ZM77.6923 72.932H82.9083C82.8656 72.484 82.7216 72.076 82.4763 71.708C82.231 71.3347 81.919 71.036 81.5403 70.812C81.1616 70.588 80.7483 70.476 80.3003 70.476C79.8523 70.476 79.4416 70.5853 79.0683 70.804C78.695 71.0227 78.3856 71.3187 78.1403 71.692C77.9003 72.06 77.751 72.4733 77.6923 72.932ZM85.6084 77.5V69.5H86.9524V70.5C87.2351 70.1267 87.5924 69.8307 88.0244 69.612C88.4564 69.388 88.9258 69.276 89.4324 69.276C89.7418 69.276 90.0404 69.316 90.3284 69.396L89.7844 70.74C89.5658 70.6707 89.3524 70.636 89.1444 70.636C88.7444 70.636 88.3764 70.7347 88.0404 70.932C87.7098 71.124 87.4458 71.3853 87.2484 71.716C87.0511 72.0467 86.9524 72.4147 86.9524 72.82V77.5H85.6084ZM91.3116 69.5H92.6556V77.5H91.3116V69.5ZM91.9996 68.196C91.7862 68.196 91.6076 68.1267 91.4636 67.988C91.3196 67.8493 91.2476 67.676 91.2476 67.468C91.2476 67.26 91.3196 67.0867 91.4636 66.948C91.6076 66.8093 91.7836 66.74 91.9916 66.74C92.1996 66.74 92.3756 66.8093 92.5196 66.948C92.6636 67.0867 92.7356 67.26 92.7356 67.468C92.7356 67.676 92.6636 67.8493 92.5196 67.988C92.3809 68.1267 92.2076 68.196 91.9996 68.196ZM97.9878 77.708C97.2518 77.708 96.5798 77.5187 95.9718 77.14C95.3691 76.7613 94.8865 76.2547 94.5238 75.62C94.1665 74.98 93.9878 74.2733 93.9878 73.5C93.9878 72.9133 94.0918 72.3667 94.2998 71.86C94.5078 71.348 94.7931 70.9 95.1558 70.516C95.5238 70.1267 95.9505 69.8227 96.4358 69.604C96.9211 69.3853 97.4385 69.276 97.9878 69.276C98.5905 69.276 99.1425 69.3987 99.6438 69.644C100.15 69.884 100.582 70.22 100.94 70.652C101.302 71.084 101.572 71.5853 101.748 72.156C101.929 72.7267 101.996 73.3373 101.948 73.988H95.4198C95.4838 74.4413 95.6331 74.8467 95.8678 75.204C96.1025 75.556 96.4011 75.836 96.7638 76.044C97.1318 76.252 97.5398 76.3587 97.9878 76.364C98.4678 76.364 98.9025 76.2413 99.2918 75.996C99.6811 75.7453 99.9958 75.404 100.236 74.972L101.604 75.292C101.284 76.0013 100.801 76.5827 100.156 77.036C99.5105 77.484 98.7878 77.708 97.9878 77.708ZM95.3798 72.932H100.596C100.553 72.484 100.409 72.076 100.164 71.708C99.9185 71.3347 99.6065 71.036 99.2278 70.812C98.8491 70.588 98.4358 70.476 97.9878 70.476C97.5398 70.476 97.1291 70.5853 96.7558 70.804C96.3825 71.0227 96.0731 71.3187 95.8278 71.692C95.5878 72.06 95.4385 72.4733 95.3798 72.932ZM110.368 72.524V77.5H109.024V72.82C109.024 72.4147 108.925 72.0467 108.728 71.716C108.531 71.3853 108.267 71.124 107.936 70.932C107.605 70.7347 107.237 70.636 106.832 70.636C106.432 70.636 106.064 70.7347 105.728 70.932C105.397 71.124 105.133 71.3853 104.936 71.716C104.739 72.0467 104.64 72.4147 104.64 72.82V77.5H103.296V69.5H104.64V70.5C104.923 70.1267 105.28 69.8307 105.712 69.612C106.144 69.388 106.613 69.276 107.12 69.276C107.717 69.276 108.261 69.4227 108.752 69.716C109.248 70.004 109.64 70.3933 109.928 70.884C110.221 71.3747 110.368 71.9213 110.368 72.524ZM117.324 75.388L118.524 76.036C118.161 76.5427 117.7 76.948 117.14 77.252C116.585 77.556 115.982 77.708 115.332 77.708C114.596 77.708 113.924 77.5187 113.316 77.14C112.713 76.7613 112.23 76.2547 111.868 75.62C111.51 74.98 111.332 74.2733 111.332 73.5C111.332 72.9133 111.436 72.3667 111.644 71.86C111.852 71.348 112.137 70.9 112.5 70.516C112.868 70.1267 113.294 69.8227 113.78 69.604C114.265 69.3853 114.782 69.276 115.332 69.276C115.982 69.276 116.585 69.428 117.14 69.732C117.7 70.036 118.161 70.444 118.524 70.956L117.324 71.604C117.068 71.2893 116.764 71.0467 116.412 70.876C116.06 70.7053 115.7 70.62 115.332 70.62C114.836 70.62 114.385 70.7533 113.98 71.02C113.58 71.2813 113.262 71.6307 113.028 72.068C112.793 72.5053 112.676 72.9827 112.676 73.5C112.676 74.0173 112.793 74.4947 113.028 74.932C113.268 75.364 113.588 75.7107 113.988 75.972C114.393 76.2333 114.841 76.364 115.332 76.364C115.726 76.364 116.097 76.2733 116.444 76.092C116.79 75.9107 117.084 75.676 117.324 75.388ZM123.347 77.708C122.611 77.708 121.939 77.5187 121.331 77.14C120.729 76.7613 120.246 76.2547 119.883 75.62C119.526 74.98 119.347 74.2733 119.347 73.5C119.347 72.9133 119.451 72.3667 119.659 71.86C119.867 71.348 120.153 70.9 120.515 70.516C120.883 70.1267 121.31 69.8227 121.795 69.604C122.281 69.3853 122.798 69.276 123.347 69.276C123.95 69.276 124.502 69.3987 125.003 69.644C125.51 69.884 125.942 70.22 126.299 70.652C126.662 71.084 126.931 71.5853 127.107 72.156C127.289 72.7267 127.355 73.3373 127.307 73.988H120.779C120.843 74.4413 120.993 74.8467 121.227 75.204C121.462 75.556 121.761 75.836 122.123 76.044C122.491 76.252 122.899 76.3587 123.347 76.364C123.827 76.364 124.262 76.2413 124.651 75.996C125.041 75.7453 125.355 75.404 125.595 74.972L126.963 75.292C126.643 76.0013 126.161 76.5827 125.515 77.036C124.87 77.484 124.147 77.708 123.347 77.708ZM120.739 72.932H125.955C125.913 72.484 125.769 72.076 125.523 71.708C125.278 71.3347 124.966 71.036 124.587 70.812C124.209 70.588 123.795 70.476 123.347 70.476C122.899 70.476 122.489 70.5853 122.115 70.804C121.742 71.0227 121.433 71.3187 121.187 71.692C120.947 72.06 120.798 72.4733 120.739 72.932Z" fill="white"/>
</svg>
