<svg width="143" height="143" viewBox="0 0 143 143" fill="none" xmlns="http://www.w3.org/2000/svg">
<path d="M70.5256 130.847L1.02563 96.0259V105.133L70.5256 141.026L140.026 105.133V96.0259L70.5256 130.847Z" fill="#F97316"/>
<path d="M1.02563 104.669V1.02588H141.026V104.669L70.7692 141.026L1.02563 104.669Z" stroke="#1E3A8A" stroke-width="2.05128"/>
<path d="M27.6018 53.3639C26.4231 53.3639 25.3441 53.0735 24.3648 52.4929C23.3855 51.9035 22.6011 51.1192 22.0118 50.1399C21.4224 49.1519 21.1278 48.0599 21.1278 46.8639C21.1278 46.3005 21.1971 45.7459 21.3358 45.1999C21.4744 44.6452 21.6911 44.1165 21.9858 43.6139L27.0558 34.8259H31.5798L28.3558 40.3899C29.0145 40.4679 29.6341 40.6369 30.2148 40.8969C30.8041 41.1482 31.3371 41.4775 31.8138 41.8849C32.2905 42.2835 32.7021 42.7429 33.0488 43.2629C33.3955 43.7829 33.6598 44.3462 33.8418 44.9529C34.0325 45.5595 34.1278 46.1965 34.1278 46.8639C34.1278 47.7565 33.9588 48.5972 33.6208 49.3859C33.2828 50.1659 32.8148 50.8549 32.2168 51.4529C31.6188 52.0509 30.9255 52.5189 30.1368 52.8569C29.3481 53.1949 28.5031 53.3639 27.6018 53.3639ZM27.6018 49.4639C28.1045 49.4639 28.5508 49.3425 28.9408 49.0999C29.3395 48.8485 29.6515 48.5279 29.8768 48.1379C30.1108 47.7392 30.2278 47.3232 30.2278 46.8899C30.2278 46.4132 30.1151 45.9755 29.8898 45.5769C29.6645 45.1782 29.3525 44.8619 28.9538 44.6279C28.5638 44.3852 28.1218 44.2639 27.6278 44.2639C27.1078 44.2639 26.6528 44.3895 26.2628 44.6409C25.8728 44.8922 25.5695 45.2172 25.3528 45.6159C25.1361 46.0145 25.0278 46.4392 25.0278 46.8899C25.0278 47.3839 25.1491 47.8259 25.3918 48.2159C25.6431 48.5972 25.9638 48.9005 26.3538 49.1259C26.7438 49.3512 27.1598 49.4639 27.6018 49.4639ZM40.4897 51.7259V47.1759H35.9397V43.2759H40.4897V38.7259H44.3897V43.2759H48.9397V47.1759H44.3897V51.7259H40.4897ZM68.9418 34.8259H73.5438L67.2258 44.8359V53.0259H63.3258V44.8359L57.0078 34.8259H61.6098L65.2758 40.5979L68.9418 34.8259ZM78.4883 53.3639C77.2923 53.3639 76.2003 53.0562 75.2123 52.4409C74.2329 51.8255 73.4486 50.9979 72.8593 49.9579C72.2786 48.9179 71.9883 47.7695 71.9883 46.5129C71.9883 45.5682 72.1573 44.6842 72.4953 43.8609C72.8333 43.0289 73.2969 42.3009 73.8863 41.6769C74.4843 41.0442 75.1776 40.5502 75.9663 40.1949C76.7549 39.8395 77.5956 39.6619 78.4883 39.6619C79.5283 39.6619 80.4773 39.8915 81.3353 40.3509C82.2019 40.8015 82.9299 41.4169 83.5193 42.1969C84.1173 42.9682 84.5419 43.8392 84.7933 44.8099C85.0446 45.7805 85.0706 46.7815 84.8713 47.8129H76.2003C76.3216 48.1162 76.4819 48.3935 76.6813 48.6449C76.8893 48.8875 77.1406 49.0825 77.4353 49.2299C77.7386 49.3772 78.0896 49.4552 78.4883 49.4639C78.8696 49.4725 79.2206 49.3902 79.5413 49.2169C79.8706 49.0435 80.1566 48.8095 80.3993 48.5149L84.3773 49.4379C83.8486 50.5905 83.0599 51.5352 82.0113 52.2719C80.9626 52.9999 79.7883 53.3639 78.4883 53.3639ZM76.0573 44.9529H80.9323C80.8109 44.5802 80.6289 44.2509 80.3863 43.9649C80.1436 43.6789 79.8576 43.4535 79.5283 43.2889C79.2076 43.1242 78.8609 43.0419 78.4883 43.0419C78.1243 43.0419 77.7776 43.1242 77.4483 43.2889C77.1276 43.4535 76.8459 43.6789 76.6033 43.9649C76.3693 44.2509 76.1873 44.5802 76.0573 44.9529ZM96.3972 40.0259H100.297V53.0259H96.3842L96.2022 51.8559C95.8815 52.3065 95.4742 52.6705 94.9802 52.9479C94.4948 53.2252 93.9272 53.3639 93.2772 53.3639C92.3065 53.3639 91.3965 53.1819 90.5472 52.8179C89.7065 52.4539 88.9655 51.9512 88.3242 51.3099C87.6828 50.6599 87.1802 49.9145 86.8162 49.0739C86.4608 48.2245 86.2832 47.3145 86.2832 46.3439C86.2832 45.4165 86.4522 44.5499 86.7902 43.7439C87.1282 42.9379 87.6005 42.2315 88.2072 41.6249C88.8225 41.0095 89.5288 40.5285 90.3262 40.1819C91.1322 39.8352 91.9945 39.6619 92.9132 39.6619C93.6585 39.6619 94.3345 39.8179 94.9412 40.1299C95.5565 40.4332 96.1025 40.8145 96.5792 41.2739L96.3972 40.0259ZM93.1732 49.6199C93.7105 49.6199 94.2002 49.4812 94.6422 49.2039C95.0842 48.9265 95.4352 48.5539 95.6952 48.0859C95.9552 47.6179 96.0852 47.0979 96.0852 46.5259C96.0852 45.9539 95.9552 45.4339 95.6952 44.9659C95.4352 44.4979 95.0842 44.1252 94.6422 43.8479C94.2002 43.5705 93.7105 43.4319 93.1732 43.4319C92.6358 43.4319 92.1462 43.5705 91.7042 43.8479C91.2708 44.1252 90.9242 44.4979 90.6642 44.9659C90.4128 45.4339 90.2872 45.9539 90.2872 46.5259C90.2872 47.0979 90.4172 47.6179 90.6772 48.0859C90.9372 48.5539 91.2838 48.9265 91.7172 49.2039C92.1592 49.4812 92.6445 49.6199 93.1732 49.6199ZM102.92 53.0259L102.907 40.0259H106.807L106.82 40.8449C107.253 40.4722 107.747 40.1819 108.302 39.9739C108.857 39.7659 109.442 39.6619 110.057 39.6619C110.525 39.6619 111.002 39.7312 111.487 39.8699L109.953 43.8219C109.65 43.6832 109.338 43.6139 109.017 43.6139C108.61 43.6139 108.237 43.7135 107.899 43.9129C107.57 44.1035 107.305 44.3679 107.106 44.7059C106.915 45.0352 106.82 45.4035 106.82 45.8109V53.0259H102.92ZM116.528 53.2599C115.869 53.1992 115.237 53.0562 114.63 52.8309C114.023 52.6055 113.482 52.2979 113.005 51.9079C112.528 51.5179 112.151 51.0412 111.874 50.4779L115.15 49.0739C115.237 49.1692 115.358 49.2905 115.514 49.4379C115.67 49.5765 115.865 49.7022 116.099 49.8149C116.342 49.9275 116.632 49.9839 116.97 49.9839C117.195 49.9839 117.412 49.9622 117.62 49.9189C117.837 49.8669 118.01 49.7802 118.14 49.6589C118.279 49.5375 118.348 49.3685 118.348 49.1519C118.348 48.9092 118.257 48.7272 118.075 48.6059C117.902 48.4759 117.689 48.3849 117.438 48.3329C117.187 48.2722 116.953 48.2245 116.736 48.1899C115.965 48.0685 115.224 47.8259 114.513 47.4619C113.811 47.0892 113.235 46.6082 112.784 46.0189C112.333 45.4209 112.108 44.7232 112.108 43.9259C112.108 43.0332 112.338 42.2619 112.797 41.6119C113.256 40.9619 113.854 40.4635 114.591 40.1169C115.336 39.7615 116.138 39.5839 116.996 39.5839C118.01 39.5839 118.946 39.7919 119.804 40.2079C120.671 40.6239 121.381 41.2219 121.936 42.0019L118.868 43.8219C118.764 43.6919 118.634 43.5619 118.478 43.4319C118.331 43.2932 118.157 43.1762 117.958 43.0809C117.767 42.9769 117.559 42.9119 117.334 42.8859C117.031 42.8599 116.758 42.8729 116.515 42.9249C116.281 42.9682 116.095 43.0635 115.956 43.2109C115.817 43.3495 115.748 43.5532 115.748 43.8219C115.748 44.0732 115.869 44.2552 116.112 44.3679C116.355 44.4805 116.628 44.5629 116.931 44.6149C117.234 44.6669 117.481 44.7232 117.672 44.7839C118.417 45.0265 119.119 45.3429 119.778 45.7329C120.437 46.1229 120.965 46.5952 121.364 47.1499C121.771 47.7045 121.962 48.3545 121.936 49.0999C121.936 49.9665 121.676 50.7292 121.156 51.3879C120.636 52.0465 119.964 52.5449 119.141 52.8829C118.318 53.2209 117.447 53.3465 116.528 53.2599Z" fill="#1E3A8A"/>
<path d="M19.9329 65.8259H21.5569L25.6289 77.0259H24.2049L23.3729 74.7379H18.1169L17.2929 77.0259H15.8609L19.9329 65.8259ZM18.6129 73.3939H22.8769L20.7409 67.5459L18.6129 73.3939ZM30.1534 77.0259H28.4334L25.5134 69.0099H26.9454L29.2894 75.4659L31.6334 69.0099H33.0654L30.1534 77.0259ZM40.3039 69.0259H41.6479V77.2819C41.6479 77.8099 41.5333 78.3005 41.3039 78.7539C41.0799 79.2125 40.7759 79.6099 40.3919 79.9459C40.0079 80.2872 39.5706 80.5512 39.0799 80.7379C38.5893 80.9299 38.0773 81.0259 37.5439 81.0259C36.9893 81.0259 36.4533 80.9005 35.9359 80.6499C35.4186 80.4045 34.9653 80.0739 34.5759 79.6579C34.1919 79.2472 33.9146 78.7859 33.7439 78.2739L34.9759 77.7139C35.0773 78.0819 35.2586 78.4125 35.5199 78.7059C35.7866 79.0045 36.0959 79.2392 36.4479 79.4099C36.8053 79.5859 37.1706 79.6739 37.5439 79.6739C37.8959 79.6739 38.2346 79.6125 38.5599 79.4899C38.8906 79.3672 39.1866 79.1965 39.4479 78.9779C39.7146 78.7645 39.9226 78.5112 40.0719 78.2179C40.2266 77.9299 40.3039 77.6179 40.3039 77.2819V75.6899C40.0319 76.1485 39.6719 76.5219 39.2239 76.8099C38.7813 77.0925 38.2639 77.2339 37.6719 77.2339C37.1066 77.2339 36.5759 77.1245 36.0799 76.9059C35.5839 76.6872 35.1493 76.3859 34.7759 76.0019C34.4026 75.6125 34.1093 75.1645 33.8959 74.6579C33.6826 74.1512 33.5759 73.6072 33.5759 73.0259C33.5759 72.4445 33.6826 71.9005 33.8959 71.3939C34.1093 70.8819 34.4026 70.4339 34.7759 70.0499C35.1493 69.6605 35.5839 69.3565 36.0799 69.1379C36.5759 68.9192 37.1066 68.8099 37.6719 68.8099C38.2639 68.8099 38.7813 68.9512 39.2239 69.2339C39.6719 69.5165 40.0319 69.8899 40.3039 70.3539V69.0259ZM37.6799 75.9299C38.1973 75.9299 38.6453 75.7965 39.0239 75.5299C39.4079 75.2632 39.7039 74.9085 39.9119 74.4659C40.1199 74.0232 40.2239 73.5432 40.2239 73.0259C40.2239 72.4925 40.1173 72.0072 39.9039 71.5699C39.6959 71.1272 39.3999 70.7752 39.0159 70.5139C38.6373 70.2472 38.1919 70.1139 37.6799 70.1139C37.1786 70.1139 36.7199 70.2445 36.3039 70.5059C35.8879 70.7672 35.5573 71.1192 35.3119 71.5619C35.0719 71.9992 34.9519 72.4872 34.9519 73.0259C34.9519 73.5645 35.0746 74.0552 35.3199 74.4979C35.5706 74.9352 35.9013 75.2845 36.3119 75.5459C36.7279 75.8019 37.1839 75.9299 37.6799 75.9299ZM43.9796 77.2339C43.7769 77.2339 43.6036 77.1619 43.4596 77.0179C43.3209 76.8739 43.2516 76.6979 43.2516 76.4899C43.2516 76.2925 43.3209 76.1219 43.4596 75.9779C43.6036 75.8339 43.7769 75.7619 43.9796 75.7619C44.1876 75.7619 44.3636 75.8339 44.5076 75.9779C44.6516 76.1219 44.7236 76.2925 44.7236 76.4899C44.7236 76.6979 44.6516 76.8739 44.5076 77.0179C44.3636 77.1619 44.1876 77.2339 43.9796 77.2339ZM50.4934 77.0259V65.8259H57.3654V67.1699H51.8374V70.3539H56.3654V71.6979H51.8374V75.6819H57.3654V77.0259H50.4934ZM58.3609 77.0259L61.2889 73.0099L58.3769 69.0099H60.0329L62.1209 71.8579L64.2009 69.0099H65.8569L62.9449 73.0099L65.8729 77.0259H64.2169L62.1209 74.1459L60.0169 77.0259H58.3609ZM68.6031 81.0259H67.2591V69.0259H68.6031V70.3939C68.8751 69.9245 69.2377 69.5459 69.6911 69.2579C70.1444 68.9645 70.6831 68.8179 71.3071 68.8179C71.8884 68.8179 72.4324 68.9272 72.9391 69.1459C73.4511 69.3645 73.8991 69.6685 74.2831 70.0579C74.6671 70.4419 74.9684 70.8872 75.1871 71.3939C75.4057 71.9005 75.5151 72.4445 75.5151 73.0259C75.5151 73.6072 75.4057 74.1539 75.1871 74.6659C74.9684 75.1779 74.6671 75.6285 74.2831 76.0179C73.8991 76.4019 73.4511 76.7032 72.9391 76.9219C72.4324 77.1405 71.8884 77.2499 71.3071 77.2499C70.6831 77.2499 70.1444 77.1059 69.6911 76.8179C69.2377 76.5245 68.8751 76.1432 68.6031 75.6739V81.0259ZM71.2911 70.1219C70.7737 70.1219 70.3204 70.2525 69.9311 70.5139C69.5417 70.7752 69.2404 71.1245 69.0271 71.5619C68.8191 71.9992 68.7151 72.4872 68.7151 73.0259C68.7151 73.5592 68.8191 74.0472 69.0271 74.4899C69.2404 74.9325 69.5391 75.2845 69.9231 75.5459C70.3124 75.8072 70.7684 75.9379 71.2911 75.9379C71.8084 75.9379 72.2831 75.8099 72.7151 75.5539C73.1471 75.2925 73.4937 74.9432 73.7551 74.5059C74.0164 74.0632 74.1471 73.5699 74.1471 73.0259C74.1471 72.4925 74.0191 72.0072 73.7631 71.5699C73.5071 71.1272 73.1631 70.7752 72.7311 70.5139C72.2991 70.2525 71.8191 70.1219 71.2911 70.1219ZM80.3259 77.2339C79.5899 77.2339 78.9179 77.0445 78.3099 76.6659C77.7073 76.2872 77.2246 75.7805 76.8619 75.1459C76.5046 74.5059 76.3259 73.7992 76.3259 73.0259C76.3259 72.4392 76.4299 71.8925 76.6379 71.3859C76.8459 70.8739 77.1313 70.4259 77.4939 70.0419C77.8619 69.6525 78.2886 69.3485 78.7739 69.1299C79.2593 68.9112 79.7766 68.8019 80.3259 68.8019C80.9286 68.8019 81.4806 68.9245 81.9819 69.1699C82.4886 69.4099 82.9206 69.7459 83.2779 70.1779C83.6406 70.6099 83.9099 71.1112 84.0859 71.6819C84.2673 72.2525 84.3339 72.8632 84.2859 73.5139H77.7579C77.8219 73.9672 77.9713 74.3725 78.2059 74.7299C78.4406 75.0819 78.7393 75.3619 79.1019 75.5699C79.4699 75.7779 79.8779 75.8845 80.3259 75.8899C80.8059 75.8899 81.2406 75.7672 81.6299 75.5219C82.0193 75.2712 82.3339 74.9299 82.5739 74.4979L83.9419 74.8179C83.6219 75.5272 83.1393 76.1085 82.4939 76.5619C81.8486 77.0099 81.1259 77.2339 80.3259 77.2339ZM77.7179 72.4579H82.9339C82.8913 72.0099 82.7473 71.6019 82.5019 71.2339C82.2566 70.8605 81.9446 70.5619 81.5659 70.3379C81.1873 70.1139 80.7739 70.0019 80.3259 70.0019C79.8779 70.0019 79.4673 70.1112 79.0939 70.3299C78.7206 70.5485 78.4113 70.8445 78.1659 71.2179C77.9259 71.5859 77.7766 71.9992 77.7179 72.4579ZM85.6341 77.0259V69.0259H86.9781V70.0259C87.2607 69.6525 87.6181 69.3565 88.0501 69.1379C88.4821 68.9139 88.9514 68.8019 89.4581 68.8019C89.7674 68.8019 90.0661 68.8419 90.3541 68.9219L89.8101 70.2659C89.5914 70.1965 89.3781 70.1619 89.1701 70.1619C88.7701 70.1619 88.4021 70.2605 88.0661 70.4579C87.7354 70.6499 87.4714 70.9112 87.2741 71.2419C87.0767 71.5725 86.9781 71.9405 86.9781 72.3459V77.0259H85.6341ZM91.3372 69.0259H92.6812V77.0259H91.3372V69.0259ZM92.0252 67.7219C91.8119 67.7219 91.6332 67.6525 91.4892 67.5139C91.3452 67.3752 91.2732 67.2019 91.2732 66.9939C91.2732 66.7859 91.3452 66.6125 91.4892 66.4739C91.6332 66.3352 91.8092 66.2659 92.0172 66.2659C92.2252 66.2659 92.4012 66.3352 92.5452 66.4739C92.6892 66.6125 92.7612 66.7859 92.7612 66.9939C92.7612 67.2019 92.6892 67.3752 92.5452 67.5139C92.4065 67.6525 92.2332 67.7219 92.0252 67.7219ZM98.0134 77.2339C97.2774 77.2339 96.6054 77.0445 95.9974 76.6659C95.3948 76.2872 94.9121 75.7805 94.5494 75.1459C94.1921 74.5059 94.0134 73.7992 94.0134 73.0259C94.0134 72.4392 94.1174 71.8925 94.3254 71.3859C94.5334 70.8739 94.8188 70.4259 95.1814 70.0419C95.5494 69.6525 95.9761 69.3485 96.4614 69.1299C96.9468 68.9112 97.4641 68.8019 98.0134 68.8019C98.6161 68.8019 99.1681 68.9245 99.6694 69.1699C100.176 69.4099 100.608 69.7459 100.965 70.1779C101.328 70.6099 101.597 71.1112 101.773 71.6819C101.955 72.2525 102.021 72.8632 101.973 73.5139H95.4454C95.5094 73.9672 95.6588 74.3725 95.8934 74.7299C96.1281 75.0819 96.4268 75.3619 96.7894 75.5699C97.1574 75.7779 97.5654 75.8845 98.0134 75.8899C98.4934 75.8899 98.9281 75.7672 99.3174 75.5219C99.7068 75.2712 100.021 74.9299 100.261 74.4979L101.629 74.8179C101.309 75.5272 100.827 76.1085 100.181 76.5619C99.5361 77.0099 98.8134 77.2339 98.0134 77.2339ZM95.4054 72.4579H100.621C100.579 72.0099 100.435 71.6019 100.189 71.2339C99.9441 70.8605 99.6321 70.5619 99.2534 70.3379C98.8748 70.1139 98.4614 70.0019 98.0134 70.0019C97.5654 70.0019 97.1548 70.1112 96.7814 70.3299C96.4081 70.5485 96.0988 70.8445 95.8534 71.2179C95.6134 71.5859 95.4641 71.9992 95.4054 72.4579ZM110.394 72.0499V77.0259H109.05V72.3459C109.05 71.9405 108.951 71.5725 108.754 71.2419C108.556 70.9112 108.292 70.6499 107.962 70.4579C107.631 70.2605 107.263 70.1619 106.858 70.1619C106.458 70.1619 106.09 70.2605 105.754 70.4579C105.423 70.6499 105.159 70.9112 104.962 71.2419C104.764 71.5725 104.666 71.9405 104.666 72.3459V77.0259H103.322V69.0259H104.666V70.0259C104.948 69.6525 105.306 69.3565 105.738 69.1379C106.17 68.9139 106.639 68.8019 107.146 68.8019C107.743 68.8019 108.287 68.9485 108.778 69.2419C109.274 69.5299 109.666 69.9192 109.954 70.4099C110.247 70.9005 110.394 71.4472 110.394 72.0499ZM117.349 74.9139L118.549 75.5619C118.187 76.0685 117.725 76.4739 117.165 76.7779C116.611 77.0819 116.008 77.2339 115.357 77.2339C114.621 77.2339 113.949 77.0445 113.341 76.6659C112.739 76.2872 112.256 75.7805 111.893 75.1459C111.536 74.5059 111.357 73.7992 111.357 73.0259C111.357 72.4392 111.461 71.8925 111.669 71.3859C111.877 70.8739 112.163 70.4259 112.525 70.0419C112.893 69.6525 113.32 69.3485 113.805 69.1299C114.291 68.9112 114.808 68.8019 115.357 68.8019C116.008 68.8019 116.611 68.9539 117.165 69.2579C117.725 69.5619 118.187 69.9699 118.549 70.4819L117.349 71.1299C117.093 70.8152 116.789 70.5725 116.437 70.4019C116.085 70.2312 115.725 70.1459 115.357 70.1459C114.861 70.1459 114.411 70.2792 114.005 70.5459C113.605 70.8072 113.288 71.1565 113.053 71.5939C112.819 72.0312 112.701 72.5085 112.701 73.0259C112.701 73.5432 112.819 74.0205 113.053 74.4579C113.293 74.8899 113.613 75.2365 114.013 75.4979C114.419 75.7592 114.867 75.8899 115.357 75.8899C115.752 75.8899 116.123 75.7992 116.469 75.6179C116.816 75.4365 117.109 75.2019 117.349 74.9139ZM123.373 77.2339C122.637 77.2339 121.965 77.0445 121.357 76.6659C120.754 76.2872 120.271 75.7805 119.909 75.1459C119.551 74.5059 119.373 73.7992 119.373 73.0259C119.373 72.4392 119.477 71.8925 119.685 71.3859C119.893 70.8739 120.178 70.4259 120.541 70.0419C120.909 69.6525 121.335 69.3485 121.821 69.1299C122.306 68.9112 122.823 68.8019 123.373 68.8019C123.975 68.8019 124.527 68.9245 125.029 69.1699C125.535 69.4099 125.967 69.7459 126.325 70.1779C126.687 70.6099 126.957 71.1112 127.133 71.6819C127.314 72.2525 127.381 72.8632 127.333 73.5139H120.805C120.869 73.9672 121.018 74.3725 121.253 74.7299C121.487 75.0819 121.786 75.3619 122.149 75.5699C122.517 75.7779 122.925 75.8845 123.373 75.8899C123.853 75.8899 124.287 75.7672 124.677 75.5219C125.066 75.2712 125.381 74.9299 125.621 74.4979L126.989 74.8179C126.669 75.5272 126.186 76.1085 125.541 76.5619C124.895 77.0099 124.173 77.2339 123.373 77.2339ZM120.765 72.4579H125.981C125.938 72.0099 125.794 71.6019 125.549 71.2339C125.303 70.8605 124.991 70.5619 124.613 70.3379C124.234 70.1139 123.821 70.0019 123.373 70.0019C122.925 70.0019 122.514 70.1112 122.141 70.3299C121.767 70.5485 121.458 70.8445 121.213 71.2179C120.973 71.5859 120.823 71.9992 120.765 72.4579Z" fill="#1E3A8A"/>
</svg>
