<svg width="143" height="143" viewBox="0 0 143 143" fill="none" xmlns="http://www.w3.org/2000/svg">
<path d="M70.5254 130.847L1.02539 96.0256V105.133L70.5254 141.026L140.025 105.133V96.0256L70.5254 130.847Z" fill="#0E53BE"/>
<path d="M1.02539 104.669V1.02563H141.025V104.669L70.769 141.026L1.02539 104.669Z" stroke="#212529" stroke-width="2.05128"/>
<path d="M27.6015 53.3636C26.4229 53.3636 25.3439 53.0733 24.3645 52.4926C23.3852 51.9033 22.6009 51.119 22.0115 50.1396C21.4222 49.1516 21.1275 48.0596 21.1275 46.8636C21.1275 46.3003 21.1969 45.7456 21.3355 45.1996C21.4742 44.645 21.6909 44.1163 21.9855 43.6136L27.0555 34.8256H31.5795L28.3555 40.3896C29.0142 40.4676 29.6339 40.6366 30.2145 40.8966C30.8039 41.148 31.3369 41.4773 31.8135 41.8846C32.2902 42.2833 32.7019 42.7426 33.0485 43.2626C33.3952 43.7826 33.6595 44.346 33.8415 44.9526C34.0322 45.5593 34.1275 46.1963 34.1275 46.8636C34.1275 47.7563 33.9585 48.597 33.6205 49.3856C33.2825 50.1656 32.8145 50.8546 32.2165 51.4526C31.6185 52.0506 30.9252 52.5186 30.1365 52.8566C29.3479 53.1946 28.5029 53.3636 27.6015 53.3636ZM27.6015 49.4636C28.1042 49.4636 28.5505 49.3423 28.9405 49.0996C29.3392 48.8483 29.6512 48.5276 29.8765 48.1376C30.1105 47.739 30.2275 47.323 30.2275 46.8896C30.2275 46.413 30.1149 45.9753 29.8895 45.5766C29.6642 45.178 29.3522 44.8616 28.9535 44.6276C28.5635 44.385 28.1215 44.2636 27.6275 44.2636C27.1075 44.2636 26.6525 44.3893 26.2625 44.6406C25.8725 44.892 25.5692 45.217 25.3525 45.6156C25.1359 46.0143 25.0275 46.439 25.0275 46.8896C25.0275 47.3836 25.1489 47.8256 25.3915 48.2156C25.6429 48.597 25.9635 48.9003 26.3535 49.1256C26.7435 49.351 27.1595 49.4636 27.6015 49.4636ZM40.4894 51.7256V47.1756H35.9394V43.2756H40.4894V38.7256H44.3894V43.2756H48.9394V47.1756H44.3894V51.7256H40.4894ZM68.9415 34.8256H73.5435L67.2255 44.8356V53.0256H63.3255V44.8356L57.0075 34.8256H61.6095L65.2755 40.5976L68.9415 34.8256ZM78.488 53.3636C77.292 53.3636 76.2 53.056 75.212 52.4406C74.2327 51.8253 73.4483 50.9976 72.859 49.9576C72.2783 48.9176 71.988 47.7693 71.988 46.5126C71.988 45.568 72.157 44.684 72.495 43.8606C72.833 43.0286 73.2967 42.3006 73.886 41.6766C74.484 41.044 75.1773 40.55 75.966 40.1946C76.7547 39.8393 77.5953 39.6616 78.488 39.6616C79.528 39.6616 80.477 39.8913 81.335 40.3506C82.2017 40.8013 82.9297 41.4166 83.519 42.1966C84.117 42.968 84.5417 43.839 84.793 44.8096C85.0443 45.7803 85.0703 46.7813 84.871 47.8126H76.2C76.3213 48.116 76.4817 48.3933 76.681 48.6446C76.889 48.8873 77.1403 49.0823 77.435 49.2296C77.7383 49.377 78.0893 49.455 78.488 49.4636C78.8693 49.4723 79.2203 49.39 79.541 49.2166C79.8703 49.0433 80.1563 48.8093 80.399 48.5146L84.377 49.4376C83.8483 50.5903 83.0597 51.535 82.011 52.2716C80.9623 52.9996 79.788 53.3636 78.488 53.3636ZM76.057 44.9526H80.932C80.8107 44.58 80.6287 44.2506 80.386 43.9646C80.1433 43.6786 79.8573 43.4533 79.528 43.2886C79.2073 43.124 78.8607 43.0416 78.488 43.0416C78.124 43.0416 77.7773 43.124 77.448 43.2886C77.1273 43.4533 76.8457 43.6786 76.603 43.9646C76.369 44.2506 76.187 44.58 76.057 44.9526ZM96.3969 40.0256H100.297V53.0256H96.3839L96.2019 51.8556C95.8813 52.3063 95.4739 52.6703 94.9799 52.9476C94.4946 53.225 93.9269 53.3636 93.2769 53.3636C92.3063 53.3636 91.3963 53.1816 90.5469 52.8176C89.7063 52.4536 88.9653 51.951 88.3239 51.3096C87.6826 50.6596 87.1799 49.9143 86.8159 49.0736C86.4606 48.2243 86.2829 47.3143 86.2829 46.3436C86.2829 45.4163 86.4519 44.5496 86.7899 43.7436C87.1279 42.9376 87.6003 42.2313 88.2069 41.6246C88.8223 41.0093 89.5286 40.5283 90.3259 40.1816C91.1319 39.835 91.9943 39.6616 92.9129 39.6616C93.6583 39.6616 94.3343 39.8176 94.9409 40.1296C95.5563 40.433 96.1023 40.8143 96.5789 41.2736L96.3969 40.0256ZM93.1729 49.6196C93.7103 49.6196 94.1999 49.481 94.6419 49.2036C95.0839 48.9263 95.4349 48.5536 95.6949 48.0856C95.9549 47.6176 96.0849 47.0976 96.0849 46.5256C96.0849 45.9536 95.9549 45.4336 95.6949 44.9656C95.4349 44.4976 95.0839 44.125 94.6419 43.8476C94.1999 43.5703 93.7103 43.4316 93.1729 43.4316C92.6356 43.4316 92.1459 43.5703 91.7039 43.8476C91.2706 44.125 90.9239 44.4976 90.6639 44.9656C90.4126 45.4336 90.2869 45.9536 90.2869 46.5256C90.2869 47.0976 90.4169 47.6176 90.6769 48.0856C90.9369 48.5536 91.2836 48.9263 91.7169 49.2036C92.1589 49.481 92.6443 49.6196 93.1729 49.6196ZM102.92 53.0256L102.907 40.0256H106.807L106.82 40.8446C107.253 40.472 107.747 40.1816 108.302 39.9736C108.856 39.7656 109.441 39.6616 110.057 39.6616C110.525 39.6616 111.001 39.731 111.487 39.8696L109.953 43.8216C109.649 43.683 109.337 43.6136 109.017 43.6136C108.609 43.6136 108.237 43.7133 107.899 43.9126C107.569 44.1033 107.305 44.3676 107.106 44.7056C106.915 45.035 106.82 45.4033 106.82 45.8106V53.0256H102.92ZM116.528 53.2596C115.869 53.199 115.236 53.056 114.63 52.8306C114.023 52.6053 113.481 52.2976 113.005 51.9076C112.528 51.5176 112.151 51.041 111.874 50.4776L115.15 49.0736C115.236 49.169 115.358 49.2903 115.514 49.4376C115.67 49.5763 115.865 49.702 116.099 49.8146C116.341 49.9273 116.632 49.9836 116.97 49.9836C117.195 49.9836 117.412 49.962 117.62 49.9186C117.836 49.8666 118.01 49.78 118.14 49.6586C118.278 49.5373 118.348 49.3683 118.348 49.1516C118.348 48.909 118.257 48.727 118.075 48.6056C117.901 48.4756 117.689 48.3846 117.438 48.3326C117.186 48.272 116.952 48.2243 116.736 48.1896C115.964 48.0683 115.223 47.8256 114.513 47.4616C113.811 47.089 113.234 46.608 112.784 46.0186C112.333 45.4206 112.108 44.723 112.108 43.9256C112.108 43.033 112.337 42.2616 112.797 41.6116C113.256 40.9616 113.854 40.4633 114.591 40.1166C115.336 39.7613 116.138 39.5836 116.996 39.5836C118.01 39.5836 118.946 39.7916 119.804 40.2076C120.67 40.6236 121.381 41.2216 121.936 42.0016L118.868 43.8216C118.764 43.6916 118.634 43.5616 118.478 43.4316C118.33 43.293 118.157 43.176 117.958 43.0806C117.767 42.9766 117.559 42.9116 117.334 42.8856C117.03 42.8596 116.757 42.8726 116.515 42.9246C116.281 42.968 116.094 43.0633 115.956 43.2106C115.817 43.3493 115.748 43.553 115.748 43.8216C115.748 44.073 115.869 44.255 116.112 44.3676C116.354 44.4803 116.627 44.5626 116.931 44.6146C117.234 44.6666 117.481 44.723 117.672 44.7836C118.417 45.0263 119.119 45.3426 119.778 45.7326C120.436 46.1226 120.965 46.595 121.364 47.1496C121.771 47.7043 121.962 48.3543 121.936 49.0996C121.936 49.9663 121.676 50.729 121.156 51.3876C120.636 52.0463 119.964 52.5446 119.141 52.8826C118.317 53.2206 117.446 53.3463 116.528 53.2596Z" fill="#0E1011"/>
<path d="M19.9327 65.8256H21.5567L25.6287 77.0256H24.2047L23.3727 74.7376H18.1167L17.2927 77.0256H15.8607L19.9327 65.8256ZM18.6127 73.3936H22.8767L20.7407 67.5456L18.6127 73.3936ZM30.1532 77.0256H28.4332L25.5132 69.0096H26.9452L29.2892 75.4656L31.6332 69.0096H33.0652L30.1532 77.0256ZM40.3037 69.0256H41.6477V77.2816C41.6477 77.8096 41.533 78.3003 41.3037 78.7536C41.0797 79.2123 40.7757 79.6096 40.3917 79.9456C40.0077 80.287 39.5704 80.551 39.0797 80.7376C38.589 80.9296 38.077 81.0256 37.5437 81.0256C36.989 81.0256 36.453 80.9003 35.9357 80.6496C35.4184 80.4043 34.965 80.0736 34.5757 79.6576C34.1917 79.247 33.9144 78.7856 33.7437 78.2736L34.9757 77.7136C35.077 78.0816 35.2584 78.4123 35.5197 78.7056C35.7864 79.0043 36.0957 79.239 36.4477 79.4096C36.805 79.5856 37.1704 79.6736 37.5437 79.6736C37.8957 79.6736 38.2344 79.6123 38.5597 79.4896C38.8904 79.367 39.1864 79.1963 39.4477 78.9776C39.7144 78.7643 39.9224 78.511 40.0717 78.2176C40.2264 77.9296 40.3037 77.6176 40.3037 77.2816V75.6896C40.0317 76.1483 39.6717 76.5216 39.2237 76.8096C38.781 77.0923 38.2637 77.2336 37.6717 77.2336C37.1064 77.2336 36.5757 77.1243 36.0797 76.9056C35.5837 76.687 35.149 76.3856 34.7757 76.0016C34.4024 75.6123 34.109 75.1643 33.8957 74.6576C33.6824 74.151 33.5757 73.607 33.5757 73.0256C33.5757 72.4443 33.6824 71.9003 33.8957 71.3936C34.109 70.8816 34.4024 70.4336 34.7757 70.0496C35.149 69.6603 35.5837 69.3563 36.0797 69.1376C36.5757 68.919 37.1064 68.8096 37.6717 68.8096C38.2637 68.8096 38.781 68.951 39.2237 69.2336C39.6717 69.5163 40.0317 69.8896 40.3037 70.3536V69.0256ZM37.6797 75.9296C38.197 75.9296 38.645 75.7963 39.0237 75.5296C39.4077 75.263 39.7037 74.9083 39.9117 74.4656C40.1197 74.023 40.2237 73.543 40.2237 73.0256C40.2237 72.4923 40.117 72.007 39.9037 71.5696C39.6957 71.127 39.3997 70.775 39.0157 70.5136C38.637 70.247 38.1917 70.1136 37.6797 70.1136C37.1784 70.1136 36.7197 70.2443 36.3037 70.5056C35.8877 70.767 35.557 71.119 35.3117 71.5616C35.0717 71.999 34.9517 72.487 34.9517 73.0256C34.9517 73.5643 35.0744 74.055 35.3197 74.4976C35.5704 74.935 35.901 75.2843 36.3117 75.5456C36.7277 75.8016 37.1837 75.9296 37.6797 75.9296ZM43.9793 77.2336C43.7767 77.2336 43.6033 77.1616 43.4593 77.0176C43.3207 76.8736 43.2513 76.6976 43.2513 76.4896C43.2513 76.2923 43.3207 76.1216 43.4593 75.9776C43.6033 75.8336 43.7767 75.7616 43.9793 75.7616C44.1873 75.7616 44.3633 75.8336 44.5073 75.9776C44.6513 76.1216 44.7233 76.2923 44.7233 76.4896C44.7233 76.6976 44.6513 76.8736 44.5073 77.0176C44.3633 77.1616 44.1873 77.2336 43.9793 77.2336ZM50.4932 77.0256V65.8256H57.3652V67.1696H51.8372V70.3536H56.3652V71.6976H51.8372V75.6816H57.3652V77.0256H50.4932ZM58.3607 77.0256L61.2887 73.0096L58.3767 69.0096H60.0327L62.1207 71.8576L64.2007 69.0096H65.8567L62.9447 73.0096L65.8727 77.0256H64.2167L62.1207 74.1456L60.0167 77.0256H58.3607ZM68.6028 81.0256H67.2588V69.0256H68.6028V70.3936C68.8748 69.9243 69.2375 69.5456 69.6908 69.2576C70.1442 68.9643 70.6828 68.8176 71.3068 68.8176C71.8882 68.8176 72.4322 68.927 72.9388 69.1456C73.4508 69.3643 73.8988 69.6683 74.2828 70.0576C74.6668 70.4416 74.9682 70.887 75.1868 71.3936C75.4055 71.9003 75.5148 72.4443 75.5148 73.0256C75.5148 73.607 75.4055 74.1536 75.1868 74.6656C74.9682 75.1776 74.6668 75.6283 74.2828 76.0176C73.8988 76.4016 73.4508 76.703 72.9388 76.9216C72.4322 77.1403 71.8882 77.2496 71.3068 77.2496C70.6828 77.2496 70.1442 77.1056 69.6908 76.8176C69.2375 76.5243 68.8748 76.143 68.6028 75.6736V81.0256ZM71.2908 70.1216C70.7735 70.1216 70.3202 70.2523 69.9308 70.5136C69.5415 70.775 69.2402 71.1243 69.0268 71.5616C68.8188 71.999 68.7148 72.487 68.7148 73.0256C68.7148 73.559 68.8188 74.047 69.0268 74.4896C69.2402 74.9323 69.5388 75.2843 69.9228 75.5456C70.3122 75.807 70.7682 75.9376 71.2908 75.9376C71.8082 75.9376 72.2828 75.8096 72.7148 75.5536C73.1468 75.2923 73.4935 74.943 73.7548 74.5056C74.0162 74.063 74.1468 73.5696 74.1468 73.0256C74.1468 72.4923 74.0188 72.007 73.7628 71.5696C73.5068 71.127 73.1628 70.775 72.7308 70.5136C72.2988 70.2523 71.8188 70.1216 71.2908 70.1216ZM80.3257 77.2336C79.5897 77.2336 78.9177 77.0443 78.3097 76.6656C77.707 76.287 77.2244 75.7803 76.8617 75.1456C76.5044 74.5056 76.3257 73.799 76.3257 73.0256C76.3257 72.439 76.4297 71.8923 76.6377 71.3856C76.8457 70.8736 77.131 70.4256 77.4937 70.0416C77.8617 69.6523 78.2884 69.3483 78.7737 69.1296C79.259 68.911 79.7764 68.8016 80.3257 68.8016C80.9284 68.8016 81.4804 68.9243 81.9817 69.1696C82.4884 69.4096 82.9204 69.7456 83.2777 70.1776C83.6404 70.6096 83.9097 71.111 84.0857 71.6816C84.267 72.2523 84.3337 72.863 84.2857 73.5136H77.7577C77.8217 73.967 77.971 74.3723 78.2057 74.7296C78.4404 75.0816 78.739 75.3616 79.1017 75.5696C79.4697 75.7776 79.8777 75.8843 80.3257 75.8896C80.8057 75.8896 81.2404 75.767 81.6297 75.5216C82.019 75.271 82.3337 74.9296 82.5737 74.4976L83.9417 74.8176C83.6217 75.527 83.139 76.1083 82.4937 76.5616C81.8484 77.0096 81.1257 77.2336 80.3257 77.2336ZM77.7177 72.4576H82.9337C82.891 72.0096 82.747 71.6016 82.5017 71.2336C82.2564 70.8603 81.9444 70.5616 81.5657 70.3376C81.187 70.1136 80.7737 70.0016 80.3257 70.0016C79.8777 70.0016 79.467 70.111 79.0937 70.3296C78.7204 70.5483 78.411 70.8443 78.1657 71.2176C77.9257 71.5856 77.7764 71.999 77.7177 72.4576ZM85.6338 77.0256V69.0256H86.9778V70.0256C87.2605 69.6523 87.6178 69.3563 88.0498 69.1376C88.4818 68.9136 88.9512 68.8016 89.4578 68.8016C89.7672 68.8016 90.0658 68.8416 90.3538 68.9216L89.8098 70.2656C89.5912 70.1963 89.3778 70.1616 89.1698 70.1616C88.7698 70.1616 88.4018 70.2603 88.0658 70.4576C87.7352 70.6496 87.4712 70.911 87.2738 71.2416C87.0765 71.5723 86.9778 71.9403 86.9778 72.3456V77.0256H85.6338ZM91.337 69.0256H92.681V77.0256H91.337V69.0256ZM92.025 67.7216C91.8116 67.7216 91.633 67.6523 91.489 67.5136C91.345 67.375 91.273 67.2016 91.273 66.9936C91.273 66.7856 91.345 66.6123 91.489 66.4736C91.633 66.335 91.809 66.2656 92.017 66.2656C92.225 66.2656 92.401 66.335 92.545 66.4736C92.689 66.6123 92.761 66.7856 92.761 66.9936C92.761 67.2016 92.689 67.375 92.545 67.5136C92.4063 67.6523 92.233 67.7216 92.025 67.7216ZM98.0132 77.2336C97.2772 77.2336 96.6052 77.0443 95.9972 76.6656C95.3945 76.287 94.9119 75.7803 94.5492 75.1456C94.1919 74.5056 94.0132 73.799 94.0132 73.0256C94.0132 72.439 94.1172 71.8923 94.3252 71.3856C94.5332 70.8736 94.8185 70.4256 95.1812 70.0416C95.5492 69.6523 95.9759 69.3483 96.4612 69.1296C96.9465 68.911 97.4639 68.8016 98.0132 68.8016C98.6159 68.8016 99.1679 68.9243 99.6692 69.1696C100.176 69.4096 100.608 69.7456 100.965 70.1776C101.328 70.6096 101.597 71.111 101.773 71.6816C101.955 72.2523 102.021 72.863 101.973 73.5136H95.4452C95.5092 73.967 95.6585 74.3723 95.8932 74.7296C96.1279 75.0816 96.4265 75.3616 96.7892 75.5696C97.1572 75.7776 97.5652 75.8843 98.0132 75.8896C98.4932 75.8896 98.9279 75.767 99.3172 75.5216C99.7065 75.271 100.021 74.9296 100.261 74.4976L101.629 74.8176C101.309 75.527 100.827 76.1083 100.181 76.5616C99.5359 77.0096 98.8132 77.2336 98.0132 77.2336ZM95.4052 72.4576H100.621C100.579 72.0096 100.435 71.6016 100.189 71.2336C99.9439 70.8603 99.6319 70.5616 99.2532 70.3376C98.8745 70.1136 98.4612 70.0016 98.0132 70.0016C97.5652 70.0016 97.1545 70.111 96.7812 70.3296C96.4079 70.5483 96.0985 70.8443 95.8532 71.2176C95.6132 71.5856 95.4639 71.999 95.4052 72.4576ZM110.393 72.0496V77.0256H109.049V72.3456C109.049 71.9403 108.951 71.5723 108.753 71.2416C108.556 70.911 108.292 70.6496 107.961 70.4576C107.631 70.2603 107.263 70.1616 106.857 70.1616C106.457 70.1616 106.089 70.2603 105.753 70.4576C105.423 70.6496 105.159 70.911 104.961 71.2416C104.764 71.5723 104.665 71.9403 104.665 72.3456V77.0256H103.321V69.0256H104.665V70.0256C104.948 69.6523 105.305 69.3563 105.737 69.1376C106.169 68.9136 106.639 68.8016 107.145 68.8016C107.743 68.8016 108.287 68.9483 108.777 69.2416C109.273 69.5296 109.665 69.919 109.953 70.4096C110.247 70.9003 110.393 71.447 110.393 72.0496ZM117.349 74.9136L118.549 75.5616C118.186 76.0683 117.725 76.4736 117.165 76.7776C116.61 77.0816 116.008 77.2336 115.357 77.2336C114.621 77.2336 113.949 77.0443 113.341 76.6656C112.738 76.287 112.256 75.7803 111.893 75.1456C111.536 74.5056 111.357 73.799 111.357 73.0256C111.357 72.439 111.461 71.8923 111.669 71.3856C111.877 70.8736 112.162 70.4256 112.525 70.0416C112.893 69.6523 113.32 69.3483 113.805 69.1296C114.29 68.911 114.808 68.8016 115.357 68.8016C116.008 68.8016 116.61 68.9536 117.165 69.2576C117.725 69.5616 118.186 69.9696 118.549 70.4816L117.349 71.1296C117.093 70.815 116.789 70.5723 116.437 70.4016C116.085 70.231 115.725 70.1456 115.357 70.1456C114.861 70.1456 114.41 70.279 114.005 70.5456C113.605 70.807 113.288 71.1563 113.053 71.5936C112.818 72.031 112.701 72.5083 112.701 73.0256C112.701 73.543 112.818 74.0203 113.053 74.4576C113.293 74.8896 113.613 75.2363 114.013 75.4976C114.418 75.759 114.866 75.8896 115.357 75.8896C115.752 75.8896 116.122 75.799 116.469 75.6176C116.816 75.4363 117.109 75.2016 117.349 74.9136ZM123.373 77.2336C122.637 77.2336 121.965 77.0443 121.357 76.6656C120.754 76.287 120.271 75.7803 119.909 75.1456C119.551 74.5056 119.373 73.799 119.373 73.0256C119.373 72.439 119.477 71.8923 119.685 71.3856C119.893 70.8736 120.178 70.4256 120.541 70.0416C120.909 69.6523 121.335 69.3483 121.821 69.1296C122.306 68.911 122.823 68.8016 123.373 68.8016C123.975 68.8016 124.527 68.9243 125.029 69.1696C125.535 69.4096 125.967 69.7456 126.325 70.1776C126.687 70.6096 126.957 71.111 127.133 71.6816C127.314 72.2523 127.381 72.863 127.333 73.5136H120.805C120.869 73.967 121.018 74.3723 121.253 74.7296C121.487 75.0816 121.786 75.3616 122.149 75.5696C122.517 75.7776 122.925 75.8843 123.373 75.8896C123.853 75.8896 124.287 75.767 124.677 75.5216C125.066 75.271 125.381 74.9296 125.621 74.4976L126.989 74.8176C126.669 75.527 126.186 76.1083 125.541 76.5616C124.895 77.0096 124.173 77.2336 123.373 77.2336ZM120.765 72.4576H125.981C125.938 72.0096 125.794 71.6016 125.549 71.2336C125.303 70.8603 124.991 70.5616 124.613 70.3376C124.234 70.1136 123.821 70.0016 123.373 70.0016C122.925 70.0016 122.514 70.111 122.141 70.3296C121.767 70.5483 121.458 70.8443 121.213 71.2176C120.973 71.5856 120.823 71.999 120.765 72.4576Z" fill="#0E1011"/>
</svg>
