<svg width="180" height="52" viewBox="0 0 180 52" fill="none" xmlns="http://www.w3.org/2000/svg">
<path d="M22.5984 4.31469C22.2614 3.73301 21.6688 3.43945 21.0817 3.43945C20.4946 3.43945 19.902 3.73301 19.565 4.31469C16.3032 9.97386 13.0577 15.6004 9.81767 21.2161C6.74073 26.5545 3.66922 31.8766 0.597709 37.2042C-0.0981378 38.411 -0.190555 39.8734 0.342203 41.1618C1.47839 43.918 3.13102 46.4024 5.34903 48.5606C8.30094 45.1249 11.9052 43.0699 16.3032 42.2436V34.2849C16.3032 33.8337 15.9389 33.4695 15.4877 33.4695H13.759C13.3404 33.4695 13.074 33.0183 13.286 32.654C14.0091 31.3983 14.7321 30.1479 15.4606 28.8921L15.4714 28.8704C17.1458 25.9728 18.8365 23.0481 20.6142 19.9712C20.8207 19.607 21.3426 19.607 21.5546 19.9712C23.3323 23.0427 25.023 25.9728 26.6974 28.8704L26.7083 28.8921C27.4367 30.1479 28.1597 31.3983 28.8828 32.654C29.0894 33.0183 28.8284 33.4695 28.4098 33.4695H26.6811C26.2299 33.4695 25.8656 33.8337 25.8656 34.2849V42.2436C30.2582 43.0699 33.8624 45.1249 36.8143 48.5606C39.0323 46.4024 40.685 43.918 41.8212 41.1618C42.3539 39.8734 42.2615 38.411 41.5657 37.2042L41.5494 37.1716C35.2541 26.2555 28.9589 15.3395 22.5984 4.31469Z" fill="#0E53BE"/>
<path d="M21.0821 36.0297C21.8051 36.0297 22.3868 35.4589 22.3868 34.7521C22.3868 34.0454 21.7996 33.4746 21.0821 33.4746C20.3645 33.4746 19.7773 34.0454 19.7773 34.7521C19.7773 35.4589 20.359 36.0297 21.0821 36.0297Z" fill="#0E53BE"/>
<path d="M20.663 41.7268C21.2447 41.716 21.821 41.7268 22.3918 41.7649V36.9592C22.3918 36.6983 22.1635 36.4917 21.8862 36.4917H20.2771C19.9998 36.4917 19.7715 36.6983 19.7715 36.9592V41.7595C20.065 41.7431 20.364 41.7323 20.663 41.7268Z" fill="#0E53BE"/>
<path d="M24.1259 36.035C24.838 36.035 25.4197 35.4642 25.4197 34.7575C25.4197 34.0508 24.8435 33.48 24.1259 33.48C23.4137 33.48 22.832 34.0508 22.832 34.7575C22.832 35.4642 23.4137 36.035 24.1259 36.035Z" fill="#0E53BE"/>
<path d="M25.4143 42.0749C24.5716 41.9118 23.7181 41.7977 22.832 41.7433V36.9811C22.832 36.7256 23.0549 36.519 23.3322 36.519H24.925C25.1968 36.519 25.4251 36.7256 25.4251 36.9811L25.4143 42.0749Z" fill="#0E53BE"/>
<path d="M18.038 36.0297C18.7501 36.0297 19.3318 35.4589 19.3318 34.7521C19.3318 34.0454 18.7556 33.4746 18.038 33.4746C17.3258 33.4746 16.7441 34.0454 16.7441 34.7521C16.7496 35.4589 17.3258 36.0297 18.038 36.0297Z" fill="#0E53BE"/>
<path d="M19.3303 41.7431C18.455 41.7974 17.6015 41.9116 16.7589 42.0747L16.748 36.9646C16.748 36.7091 16.9709 36.4971 17.2482 36.4971H18.8301C19.1074 36.4971 19.3303 36.7091 19.3303 36.9646V41.7431Z" fill="#0E53BE"/>
<path d="M57.621 15.4088H61.9147L59.7679 10.1799L57.621 15.4088ZM58.1099 7.18276C58.2658 6.81432 58.4642 6.48131 58.7051 6.18373C58.946 5.88614 59.3003 5.73735 59.7679 5.73735C60.0088 5.73735 60.2143 5.77986 60.3843 5.86489C60.5544 5.94991 60.7032 6.06327 60.8307 6.20498C60.9582 6.33252 61.0645 6.48131 61.1495 6.65136C61.2487 6.82141 61.3408 6.99854 61.4259 7.18276L67.3138 20.7866H64.1041L62.9775 18.0233H56.5582L55.4317 20.7866H52.222L58.1099 7.18276ZM65.6058 10.1586H68.5179L71.3875 17.0881L74.2358 10.1586H77.1479L72.8754 19.7663C72.7337 20.0923 72.5424 20.3757 72.3015 20.6166C72.0606 20.8433 71.7559 20.9567 71.3875 20.9567C71.019 20.9567 70.7144 20.8433 70.4735 20.6166C70.2326 20.3898 70.0342 20.1064 69.8783 19.7663L65.6058 10.1586ZM78.1145 7.01271C78.1145 6.54508 78.2775 6.1483 78.6034 5.82237C78.9435 5.48228 79.3473 5.31223 79.815 5.31223C80.2826 5.31223 80.6794 5.48228 81.0053 5.82237C81.3454 6.1483 81.5155 6.54508 81.5155 7.01271C81.5155 7.48034 81.3454 7.88421 81.0053 8.22431C80.6794 8.55023 80.2826 8.71319 79.815 8.71319C79.3473 8.71319 78.9435 8.55023 78.6034 8.22431C78.2775 7.88421 78.1145 7.48034 78.1145 7.01271ZM78.4121 10.1586H81.2179V20.7866H78.4121V10.1586ZM85.3728 15.4939C85.3728 15.9332 85.4507 16.3512 85.6066 16.748C85.7766 17.1448 86.0034 17.499 86.2868 17.8108C86.5702 18.1084 86.8961 18.3493 87.2646 18.5335C87.6472 18.7035 88.051 18.7886 88.4762 18.7886C88.9013 18.7886 89.2981 18.7035 89.6665 18.5335C90.0491 18.3493 90.375 18.1084 90.6443 17.8108C90.9277 17.499 91.1473 17.1448 91.3032 16.748C91.4733 16.3512 91.5583 15.9332 91.5583 15.4939C91.5583 15.0687 91.4733 14.6578 91.3032 14.261C91.1473 13.8642 90.9277 13.5171 90.6443 13.2195C90.375 12.9219 90.0491 12.6881 89.6665 12.518C89.2981 12.3338 88.9013 12.2417 88.4762 12.2417C88.051 12.2417 87.6472 12.3338 87.2646 12.518C86.8961 12.6881 86.5702 12.9219 86.2868 13.2195C86.0034 13.5171 85.7766 13.8642 85.6066 14.261C85.4507 14.6578 85.3728 15.0687 85.3728 15.4939ZM82.6945 15.5151C82.6945 14.7216 82.8291 13.9776 83.0984 13.2832C83.3818 12.5889 83.7644 11.9795 84.2462 11.4552C84.728 10.9309 85.2877 10.52 85.9254 10.2224C86.5631 9.92479 87.2504 9.776 87.9873 9.776C88.6533 9.776 89.2768 9.90353 89.8578 10.1586C90.453 10.3995 90.9844 10.7396 91.452 11.1789V5.9074H94.2365V20.7866H91.452V19.8514C90.9844 20.2906 90.453 20.6307 89.8578 20.8716C89.2768 21.1267 88.6533 21.2543 87.9873 21.2543C87.2504 21.2543 86.5631 21.1055 85.9254 20.8079C85.2877 20.5103 84.728 20.0993 84.2462 19.575C83.7644 19.0507 83.3818 18.4414 83.0984 17.747C82.8291 17.0526 82.6945 16.3087 82.6945 15.5151ZM98.4324 15.4939C98.4324 15.9332 98.5104 16.3512 98.6663 16.748C98.8363 17.1448 99.056 17.4919 99.3252 17.7895C99.6086 18.0871 99.9416 18.328 100.324 18.5122C100.707 18.6823 101.111 18.7673 101.536 18.7673C101.989 18.7673 102.407 18.6752 102.79 18.491C103.173 18.3068 103.513 18.0588 103.81 17.747L105.766 19.405C105.227 19.986 104.597 20.4394 103.874 20.7654C103.151 21.0913 102.365 21.2543 101.515 21.2543C100.707 21.2543 99.9487 21.0984 99.2402 20.7866C98.5458 20.489 97.9365 20.0852 97.4122 19.575C96.902 19.0507 96.4911 18.4414 96.1793 17.747C95.8817 17.0385 95.7329 16.2945 95.7329 15.5151C95.7329 14.7216 95.8817 13.9776 96.1793 13.2832C96.4911 12.5889 96.9091 11.9795 97.4334 11.4552C97.9577 10.9309 98.5671 10.52 99.2614 10.2224C99.97 9.92479 100.728 9.776 101.536 9.776C102.386 9.776 103.173 9.93896 103.895 10.2649C104.632 10.5908 105.27 11.0443 105.808 11.6253L103.831 13.2832C103.534 12.9573 103.194 12.7022 102.811 12.518C102.429 12.3338 102.011 12.2417 101.557 12.2417C101.132 12.2417 100.728 12.3338 100.345 12.518C99.9629 12.6881 99.6299 12.9219 99.3465 13.2195C99.063 13.5171 98.8363 13.8642 98.6663 14.261C98.5104 14.6436 98.4324 15.0546 98.4324 15.4939ZM109.841 20.7866H107.035V5.9074H109.841V20.7866ZM113.894 15.4939C113.894 15.9332 113.972 16.3512 114.128 16.748C114.298 17.1448 114.525 17.499 114.808 17.8108C115.091 18.1084 115.417 18.3493 115.786 18.5335C116.168 18.7035 116.572 18.7886 116.997 18.7886C117.423 18.7886 117.819 18.7035 118.188 18.5335C118.57 18.3493 118.896 18.1084 119.166 17.8108C119.449 17.499 119.669 17.1448 119.824 16.748C119.995 16.3512 120.08 15.9332 120.08 15.4939C120.08 15.0687 119.995 14.6578 119.824 14.261C119.669 13.8642 119.449 13.5171 119.166 13.2195C118.896 12.9219 118.57 12.6881 118.188 12.518C117.819 12.3338 117.423 12.2417 116.997 12.2417C116.572 12.2417 116.168 12.3338 115.786 12.518C115.417 12.6881 115.091 12.9219 114.808 13.2195C114.525 13.5171 114.298 13.8642 114.128 14.261C113.972 14.6578 113.894 15.0687 113.894 15.4939ZM111.216 15.5151C111.216 14.7216 111.35 13.9776 111.62 13.2832C111.903 12.5889 112.286 11.9795 112.767 11.4552C113.249 10.9309 113.809 10.52 114.447 10.2224C115.084 9.92479 115.772 9.776 116.509 9.776C117.175 9.776 117.798 9.90353 118.379 10.1586C118.974 10.3995 119.506 10.7396 119.973 11.1789V10.1586H122.758V20.7866H119.973V19.8514C119.506 20.2906 118.974 20.6307 118.379 20.8716C117.798 21.1267 117.175 21.2543 116.509 21.2543C115.772 21.2543 115.084 21.1055 114.447 20.8079C113.809 20.5103 113.249 20.0993 112.767 19.575C112.286 19.0507 111.903 18.4414 111.62 17.747C111.35 17.0526 111.216 16.3087 111.216 15.5151ZM132.353 14.8774C132.353 14.1547 132.119 13.5667 131.651 13.1132C131.198 12.6456 130.631 12.4117 129.951 12.4117C129.611 12.4117 129.285 12.4755 128.973 12.603C128.675 12.7306 128.413 12.9077 128.187 13.1344C127.974 13.3612 127.804 13.6233 127.676 13.9209C127.549 14.2185 127.485 14.5373 127.485 14.8774V20.7866H124.679V10.1586H127.485V11.1151C127.896 10.7042 128.364 10.3853 128.888 10.1586C129.427 9.93187 130 9.81851 130.61 9.81851C131.233 9.81851 131.821 9.93896 132.374 10.1799C132.927 10.4208 133.408 10.7467 133.819 11.1576C134.23 11.5686 134.556 12.0575 134.797 12.6243C135.038 13.1911 135.159 13.8005 135.159 14.4523V20.7866H132.353V14.8774ZM52.5408 26.9074H63.4452V29.5219H59.449V41.7866H56.537V29.5219H52.5408V26.9074ZM70.6496 35.4736C70.4513 34.8359 70.0899 34.3045 69.5656 33.8794C69.0413 33.4401 68.4461 33.2204 67.7801 33.2204C67.44 33.2204 67.1141 33.2771 66.8023 33.3905C66.4905 33.5039 66.2071 33.6668 65.9521 33.8794C65.697 34.0778 65.4703 34.3116 65.2719 34.5808C65.0877 34.8501 64.9459 35.1477 64.8468 35.4736H70.6496ZM64.8042 37.4079C65.0026 38.0881 65.3782 38.662 65.9308 39.1296C66.4835 39.5831 67.1211 39.8098 67.8439 39.8098C68.354 39.8098 68.8287 39.6894 69.268 39.4485C69.7073 39.1934 70.0686 38.8604 70.3521 38.4494L72.7965 39.4485C72.2722 40.2987 71.5778 40.9789 70.7134 41.489C69.849 41.9992 68.8854 42.2543 67.8226 42.2543C67.0149 42.2543 66.2567 42.1055 65.5482 41.8079C64.8538 41.5103 64.2445 41.0993 63.7202 40.575C63.1959 40.0507 62.7778 39.4414 62.4661 38.747C62.1685 38.0526 62.0197 37.3087 62.0197 36.5151C62.0197 35.7216 62.1685 34.9776 62.4661 34.2832C62.7778 33.5889 63.1959 32.9795 63.7202 32.4552C64.2445 31.9309 64.8538 31.52 65.5482 31.2224C66.2567 30.9248 67.0149 30.776 67.8226 30.776C68.5878 30.776 69.3034 30.9177 69.9695 31.2011C70.6496 31.4704 71.2448 31.8459 71.755 32.3277C72.2793 32.7953 72.6973 33.348 73.0091 33.9857C73.335 34.6233 73.5263 35.3106 73.583 36.0475C73.6113 36.4584 73.498 36.7915 73.2429 37.0465C72.9878 37.2874 72.6194 37.4079 72.1376 37.4079H64.8042ZM77.2387 36.4939C77.2387 36.9332 77.3166 37.3512 77.4725 37.748C77.6426 38.1448 77.8622 38.4919 78.1314 38.7895C78.4149 39.0871 78.7479 39.328 79.1305 39.5122C79.5131 39.6823 79.9169 39.7673 80.3421 39.7673C80.7955 39.7673 81.2136 39.6752 81.5962 39.491C81.9788 39.3068 82.3189 39.0588 82.6165 38.747L84.572 40.405C84.0335 40.986 83.4029 41.4394 82.6802 41.7654C81.9575 42.0913 81.1711 42.2543 80.3208 42.2543C79.5131 42.2543 78.7549 42.0984 78.0464 41.7866C77.3521 41.489 76.7427 41.0852 76.2184 40.575C75.7083 40.0507 75.2973 39.4414 74.9855 38.747C74.688 38.0385 74.5392 37.2945 74.5392 36.5151C74.5392 35.7216 74.688 34.9776 74.9855 34.2832C75.2973 33.5889 75.7153 32.9795 76.2397 32.4552C76.764 31.9309 77.3733 31.52 78.0677 31.2224C78.7762 30.9248 79.5343 30.776 80.3421 30.776C81.1923 30.776 81.9788 30.939 82.7015 31.2649C83.4384 31.5908 84.076 32.0443 84.6145 32.6253L82.6377 34.2832C82.3401 33.9573 82 33.7022 81.6174 33.518C81.2348 33.3338 80.8168 33.2417 80.3633 33.2417C79.9382 33.2417 79.5343 33.3338 79.1517 33.518C78.7691 33.6881 78.4361 33.9219 78.1527 34.2195C77.8693 34.5171 77.6426 34.8642 77.4725 35.261C77.3166 35.6436 77.2387 36.0546 77.2387 36.4939ZM93.5148 35.8774C93.5148 35.5232 93.4511 35.1973 93.3235 34.8997C93.196 34.5879 93.0189 34.3258 92.7921 34.1132C92.5796 33.8865 92.3245 33.7164 92.0269 33.603C91.7435 33.4755 91.4388 33.4117 91.1129 33.4117C90.7728 33.4117 90.4469 33.4755 90.1351 33.603C89.8375 33.7306 89.5754 33.9077 89.3486 34.1344C89.1361 34.3612 88.966 34.6233 88.8385 34.9209C88.711 35.2185 88.6472 35.5373 88.6472 35.8774V41.7866H85.8414V26.9074H88.6472V32.1151C89.0581 31.7042 89.5258 31.3853 90.0501 31.1586C90.5744 30.9319 91.1412 30.8185 91.7506 30.8185C92.3741 30.8185 92.9622 30.939 93.5148 31.1799C94.0675 31.4208 94.5493 31.7467 94.9602 32.1576C95.3854 32.5686 95.7184 33.0575 95.9593 33.6243C96.2002 34.1911 96.3206 34.8005 96.3206 35.4523V41.7866H93.5148V35.8774ZM105.907 35.8774C105.907 35.1547 105.673 34.5667 105.206 34.1132C104.752 33.6456 104.186 33.4117 103.505 33.4117C103.165 33.4117 102.839 33.4755 102.528 33.603C102.23 33.7306 101.968 33.9077 101.741 34.1344C101.529 34.3612 101.358 34.6233 101.231 34.9209C101.103 35.2185 101.04 35.5373 101.04 35.8774V41.7866H98.2338V31.1586H101.04V32.1151C101.451 31.7042 101.918 31.3853 102.443 31.1586C102.981 30.9319 103.555 30.8185 104.164 30.8185C104.788 30.8185 105.376 30.939 105.929 31.1799C106.481 31.4208 106.963 31.7467 107.374 32.1576C107.785 32.5686 108.111 33.0575 108.352 33.6243C108.593 34.1911 108.713 34.8005 108.713 35.4523V41.7866H105.907V35.8774ZM110.095 36.5151C110.095 35.7216 110.244 34.9776 110.541 34.2832C110.853 33.5889 111.271 32.9795 111.795 32.4552C112.334 31.9309 112.957 31.52 113.666 31.2224C114.374 30.9248 115.133 30.776 115.94 30.776C116.748 30.776 117.506 30.9248 118.215 31.2224C118.923 31.52 119.54 31.9309 120.064 32.4552C120.602 32.9795 121.02 33.5889 121.318 34.2832C121.63 34.9776 121.786 35.7216 121.786 36.5151C121.786 37.3087 121.63 38.0526 121.318 38.747C121.02 39.4414 120.602 40.0507 120.064 40.575C119.54 41.0993 118.923 41.5103 118.215 41.8079C117.506 42.1055 116.748 42.2543 115.94 42.2543C115.133 42.2543 114.374 42.1055 113.666 41.8079C112.957 41.5103 112.334 41.0993 111.795 40.575C111.271 40.0507 110.853 39.4414 110.541 38.747C110.244 38.0526 110.095 37.3087 110.095 36.5151ZM112.773 36.4939C112.773 36.9332 112.858 37.3512 113.028 37.748C113.198 38.1448 113.425 38.499 113.708 38.8108C113.992 39.1084 114.325 39.3493 114.707 39.5335C115.104 39.7035 115.522 39.7886 115.962 39.7886C116.387 39.7886 116.791 39.7035 117.173 39.5335C117.556 39.3493 117.889 39.1084 118.172 38.8108C118.47 38.499 118.696 38.1448 118.852 37.748C119.022 37.3512 119.107 36.9332 119.107 36.4939C119.107 36.0687 119.022 35.6578 118.852 35.261C118.696 34.8642 118.47 34.5171 118.172 34.2195C117.889 33.9219 117.556 33.6881 117.173 33.518C116.791 33.3338 116.387 33.2417 115.962 33.2417C115.522 33.2417 115.104 33.3338 114.707 33.518C114.325 33.6881 113.992 33.9219 113.708 34.2195C113.425 34.5171 113.198 34.8642 113.028 35.261C112.858 35.6578 112.773 36.0687 112.773 36.4939ZM125.97 41.7866H123.164V26.9074H125.97V41.7866ZM127.345 36.5151C127.345 35.7216 127.493 34.9776 127.791 34.2832C128.103 33.5889 128.521 32.9795 129.045 32.4552C129.584 31.9309 130.207 31.52 130.916 31.2224C131.624 30.9248 132.382 30.776 133.19 30.776C133.998 30.776 134.756 30.9248 135.464 31.2224C136.173 31.52 136.789 31.9309 137.314 32.4552C137.852 32.9795 138.27 33.5889 138.568 34.2832C138.88 34.9776 139.035 35.7216 139.035 36.5151C139.035 37.3087 138.88 38.0526 138.568 38.747C138.27 39.4414 137.852 40.0507 137.314 40.575C136.789 41.0993 136.173 41.5103 135.464 41.8079C134.756 42.1055 133.998 42.2543 133.19 42.2543C132.382 42.2543 131.624 42.1055 130.916 41.8079C130.207 41.5103 129.584 41.0993 129.045 40.575C128.521 40.0507 128.103 39.4414 127.791 38.747C127.493 38.0526 127.345 37.3087 127.345 36.5151ZM130.023 36.4939C130.023 36.9332 130.108 37.3512 130.278 37.748C130.448 38.1448 130.675 38.499 130.958 38.8108C131.242 39.1084 131.575 39.3493 131.957 39.5335C132.354 39.7035 132.772 39.7886 133.211 39.7886C133.636 39.7886 134.04 39.7035 134.423 39.5335C134.806 39.3493 135.139 39.1084 135.422 38.8108C135.72 38.499 135.946 38.1448 136.102 37.748C136.272 37.3512 136.357 36.9332 136.357 36.4939C136.357 36.0687 136.272 35.6578 136.102 35.261C135.946 34.8642 135.72 34.5171 135.422 34.2195C135.139 33.9219 134.806 33.6881 134.423 33.518C134.04 33.3338 133.636 33.2417 133.211 33.2417C132.772 33.2417 132.354 33.3338 131.957 33.518C131.575 33.6881 131.242 33.9219 130.958 34.2195C130.675 34.5171 130.448 34.8642 130.278 35.261C130.108 35.6578 130.023 36.0687 130.023 36.4939ZM142.768 36.4939C142.768 36.9332 142.846 37.3512 143.002 37.748C143.172 38.1448 143.399 38.4919 143.682 38.7895C143.966 39.0871 144.292 39.328 144.66 39.5122C145.043 39.6823 145.446 39.7673 145.872 39.7673C146.297 39.7673 146.693 39.6823 147.062 39.5122C147.445 39.328 147.77 39.0871 148.04 38.7895C148.323 38.4919 148.543 38.1448 148.699 37.748C148.869 37.3512 148.954 36.9332 148.954 36.4939C148.954 36.0546 148.869 35.6436 148.699 35.261C148.543 34.8642 148.323 34.5171 148.04 34.2195C147.77 33.9219 147.445 33.6881 147.062 33.518C146.693 33.3338 146.297 33.2417 145.872 33.2417C145.446 33.2417 145.043 33.3338 144.66 33.518C144.292 33.6881 143.966 33.9219 143.682 34.2195C143.399 34.5171 143.172 34.8642 143.002 35.261C142.846 35.6436 142.768 36.0546 142.768 36.4939ZM140.09 36.5151C140.09 35.7216 140.225 34.9776 140.494 34.2832C140.777 33.5889 141.153 32.9795 141.62 32.4552C142.102 31.9309 142.662 31.52 143.3 31.2224C143.937 30.9248 144.617 30.776 145.34 30.776C146.02 30.776 146.665 30.9106 147.274 31.1799C147.884 31.4491 148.415 31.8175 148.869 32.2852V31.1586H151.674V41.5315C151.674 42.5944 151.497 43.4942 151.143 44.2311C150.789 44.9821 150.328 45.5985 149.761 46.0803C149.209 46.5621 148.571 46.9093 147.848 47.1219C147.14 47.3486 146.424 47.462 145.702 47.462C144.554 47.462 143.526 47.2282 142.619 46.7605C141.727 46.2929 140.961 45.7119 140.324 45.0175L142.194 43.2958C142.648 43.7209 143.165 44.0964 143.746 44.4224C144.327 44.7483 144.979 44.9113 145.702 44.9113C146.112 44.9113 146.502 44.8475 146.871 44.72C147.253 44.5924 147.593 44.394 147.891 44.1248C148.189 43.8555 148.422 43.5154 148.592 43.1045C148.777 42.6935 148.869 42.1976 148.869 41.6166V40.7451C148.415 41.2127 147.884 41.5741 147.274 41.8291C146.665 42.0984 146.02 42.233 145.34 42.233C144.617 42.233 143.937 42.0842 143.3 41.7866C142.662 41.489 142.102 41.0781 141.62 40.5538C141.153 40.0295 140.777 39.4201 140.494 38.7258C140.225 38.0314 140.09 37.2945 140.09 36.5151ZM153.382 28.0127C153.382 27.5451 153.545 27.1483 153.871 26.8224C154.211 26.4823 154.615 26.3122 155.083 26.3122C155.551 26.3122 155.947 26.4823 156.273 26.8224C156.613 27.1483 156.783 27.5451 156.783 28.0127C156.783 28.4803 156.613 28.8842 156.273 29.2243C155.947 29.5502 155.551 29.7132 155.083 29.7132C154.615 29.7132 154.211 29.5502 153.871 29.2243C153.545 28.8842 153.382 28.4803 153.382 28.0127ZM153.68 31.1586H156.486V41.7866H153.68V31.1586ZM166.592 35.4736C166.394 34.8359 166.033 34.3045 165.508 33.8794C164.984 33.4401 164.389 33.2204 163.723 33.2204C163.383 33.2204 163.057 33.2771 162.745 33.3905C162.433 33.5039 162.15 33.6668 161.895 33.8794C161.64 34.0778 161.413 34.3116 161.215 34.5808C161.03 34.8501 160.889 35.1477 160.79 35.4736H166.592ZM160.747 37.4079C160.945 38.0881 161.321 38.662 161.874 39.1296C162.426 39.5831 163.064 39.8098 163.787 39.8098C164.297 39.8098 164.771 39.6894 165.211 39.4485C165.65 39.1934 166.011 38.8604 166.295 38.4494L168.739 39.4485C168.215 40.2987 167.521 40.9789 166.656 41.489C165.792 41.9992 164.828 42.2543 163.765 42.2543C162.958 42.2543 162.199 42.1055 161.491 41.8079C160.797 41.5103 160.187 41.0993 159.663 40.575C159.139 40.0507 158.721 39.4414 158.409 38.747C158.111 38.0526 157.962 37.3087 157.962 36.5151C157.962 35.7216 158.111 34.9776 158.409 34.2832C158.721 33.5889 159.139 32.9795 159.663 32.4552C160.187 31.9309 160.797 31.52 161.491 31.2224C162.199 30.9248 162.958 30.776 163.765 30.776C164.531 30.776 165.246 30.9177 165.912 31.2011C166.592 31.4704 167.188 31.8459 167.698 32.3277C168.222 32.7953 168.64 33.348 168.952 33.9857C169.278 34.6233 169.469 35.3106 169.526 36.0475C169.554 36.4584 169.441 36.7915 169.186 37.0465C168.931 37.2874 168.562 37.4079 168.08 37.4079H160.747ZM170.461 34.0282C170.461 33.4188 170.588 32.9087 170.843 32.4977C171.098 32.0726 171.424 31.7325 171.821 31.4774C172.218 31.2224 172.657 31.0452 173.139 30.946C173.621 30.8327 174.081 30.776 174.521 30.776C175.399 30.776 176.164 30.9602 176.816 31.3287C177.468 31.6829 178.014 32.1293 178.453 32.6678L176.37 34.0494C176.157 33.7944 175.909 33.5818 175.626 33.4117C175.342 33.2275 174.995 33.1354 174.584 33.1354C174.287 33.1354 173.989 33.1992 173.692 33.3267C173.408 33.4543 173.266 33.681 173.266 34.0069C173.266 34.3187 173.429 34.5667 173.755 34.7509C174.095 34.9351 174.535 35.1264 175.073 35.3248C175.456 35.4523 175.846 35.6011 176.242 35.7712C176.653 35.9412 177.029 36.1609 177.369 36.4301C177.709 36.6993 177.985 37.0324 178.198 37.4291C178.425 37.8117 178.538 38.2935 178.538 38.8745C178.538 39.4981 178.41 40.0224 178.155 40.4475C177.9 40.8726 177.574 41.2198 177.178 41.489C176.781 41.7441 176.334 41.9283 175.838 42.0417C175.357 42.1551 174.889 42.2117 174.436 42.2117C173.5 42.2117 172.685 42.0134 171.991 41.6166C171.311 41.2198 170.702 40.7238 170.163 40.1287L172.246 38.6195C172.473 38.9029 172.763 39.1792 173.118 39.4485C173.486 39.7035 173.918 39.8311 174.414 39.8311C174.556 39.8311 174.705 39.8169 174.861 39.7886C175.017 39.7602 175.158 39.7106 175.286 39.6398C175.413 39.5689 175.52 39.4768 175.605 39.3634C175.69 39.2359 175.732 39.08 175.732 38.8958C175.732 38.5699 175.555 38.3006 175.201 38.0881C174.861 37.8755 174.322 37.6346 173.585 37.3654C173.245 37.2378 172.891 37.0961 172.523 36.9402C172.168 36.7702 171.835 36.5647 171.523 36.3238C171.212 36.0687 170.957 35.757 170.758 35.3886C170.56 35.0201 170.461 34.5667 170.461 34.0282Z" fill="black"/>
</svg>
