<svg width="50" height="50" viewBox="0 0 50 50" fill="none" xmlns="http://www.w3.org/2000/svg">
<g clip-path="url(#clip0_108_397)">
<path d="M23.1312 42.2262C29.5551 41.0914 34.8608 40.1524 34.9217 40.1394L35.0325 40.1159L28.9678 32.9021C25.6322 28.9345 22.9031 25.6729 22.9031 25.6541C22.9031 25.6185 29.1654 8.37337 29.2006 8.31197C29.2124 8.2915 33.4741 15.6492 39.5313 26.1477C45.2022 35.9765 49.8775 44.0804 49.921 44.1563L50 44.2944L30.7258 44.2919L11.4515 44.2894L23.1312 42.2262ZM0 40.0263C0 40.0162 2.85767 35.0555 6.35039 29.0025L12.7008 17.9972L20.1014 11.7866C24.1718 8.37074 27.513 5.57178 27.5264 5.56654C27.5398 5.56158 27.4863 5.69634 27.4074 5.86616C27.3286 6.03598 23.7124 13.7924 19.3714 23.1027L11.4787 40.0304L5.73933 40.0376C2.5827 40.0415 0 40.0365 0 40.0263Z" fill="#0089D6"/>
</g>
<defs>
<clipPath id="clip0_108_397">
<rect width="50" height="50" fill="white"/>
</clipPath>
</defs>
</svg>
