<svg width="50" height="50" viewBox="0 0 50 50" fill="none" xmlns="http://www.w3.org/2000/svg">
<g clip-path="url(#clip0_108_395)">
<path d="M49.6542 16.8771C48.5733 23.6527 45.1236 29.8252 39.919 34.2962C34.7144 38.7672 28.0924 41.2468 21.2313 41.2938C19.8417 41.3478 18.4502 41.2641 17.0771 41.0438C14.2057 40.5561 11.5883 39.0986 9.66161 36.9144C7.73488 34.7302 6.61529 31.9515 6.48961 29.0417C6.50199 25.7863 7.79794 22.6671 10.0961 20.3614C12.3943 18.0557 15.5092 16.7496 18.7645 16.7265C22.0199 16.7035 25.1529 17.9654 27.4835 20.2383C29.8141 22.5113 31.1541 25.6118 31.2125 28.8667C31.2646 30.9146 30.3771 32.7125 28.5521 32.7646C26.6021 32.7646 25.6896 31.3729 25.6896 29.5V24.2917C25.6907 23.449 25.3583 22.6401 24.765 22.0417C24.1717 21.4433 23.3656 21.104 22.5229 21.0979H18.1563C16.8865 21.0896 15.6348 21.3995 14.5156 21.9995C13.3965 22.5994 12.4454 23.4702 11.7495 24.5323C11.0535 25.5945 10.6347 26.814 10.5315 28.0797C10.4282 29.3453 10.6437 30.6166 11.1583 31.7775C11.6728 32.9384 12.4701 33.9519 13.4772 34.7253C14.4843 35.4988 15.6692 36.0075 16.9235 36.2052C18.1779 36.4028 19.4618 36.283 20.6579 35.8566C21.854 35.4303 22.9243 34.7111 23.7709 33.7646L23.9229 33.5354L24.0771 33.7875C24.602 34.5009 25.2951 35.0735 26.0948 35.4544C26.8944 35.8353 27.7757 36.0127 28.6604 35.9708C30.2376 35.8563 31.7075 35.1299 32.7565 33.9466C33.8054 32.7634 34.3504 31.217 34.275 29.6375C34.2905 28.2817 34.1387 26.9291 33.8229 25.6104C33.0155 21.884 30.8565 18.5887 27.7626 16.3604C24.6687 14.132 20.8591 13.1285 17.0688 13.5435C13.2786 13.9585 9.77643 15.7626 7.23801 18.6077C4.6996 21.4528 3.30487 25.1372 3.32294 28.95C3.37126 32.9918 4.98462 36.8574 7.82388 39.7344C10.6631 42.6113 14.5072 44.2755 18.5479 44.3771C18.5479 44.3771 19.6917 44.4813 20.9792 44.45C27.2459 44.4107 33.3712 42.5835 38.6354 39.1833C38.7104 39.1313 38.7854 39.2354 38.7354 39.3104C36.1727 42.071 33.0389 44.2397 29.5525 45.6656C26.066 47.0914 22.3107 47.7402 18.5479 47.5667C16.088 47.6114 13.6444 47.1574 11.3648 46.232C9.08507 45.3065 7.01647 43.9289 5.28375 42.1822C3.55103 40.4354 2.19011 38.3558 1.28308 36.0687C0.376047 33.7816 -0.0582878 31.3345 0.00627312 28.875C0.00748014 25.9429 0.692624 23.0514 2.00725 20.4305C3.32187 17.8096 5.22973 15.5314 7.57919 13.7771C10.7365 11.4522 14.552 10.1928 18.4729 10.1813H24.3334C26.6227 10.1795 28.8867 9.7011 30.981 8.77642C33.0754 7.85174 34.9542 6.50107 36.4979 4.81043C36.5304 4.77441 36.5734 4.74961 36.6209 4.7396C36.6688 4.72938 36.7188 4.73455 36.7637 4.75438C36.8086 4.7742 36.8461 4.80766 36.8709 4.85002C36.8955 4.89218 36.9064 4.94096 36.9021 4.9896C36.6539 7.62322 35.7773 10.1588 34.3459 12.3833C34.3241 12.4213 34.3139 12.4647 34.3167 12.5083C34.3202 12.5525 34.3364 12.5947 34.3634 12.6298C34.3904 12.665 34.427 12.6915 34.4688 12.7063C34.5101 12.7215 34.555 12.7244 34.5979 12.7146C37.303 12.1035 39.8268 10.866 41.9664 9.10167C44.106 7.33732 45.8016 5.09539 46.9167 2.55627C46.9451 2.51048 46.9845 2.47252 47.0313 2.44585C47.078 2.41957 47.1308 2.40576 47.1844 2.40576C47.238 2.40576 47.2908 2.41957 47.3375 2.44585C47.3837 2.47265 47.4224 2.51062 47.45 2.55627C49.7464 6.9546 50.5215 11.9917 49.6542 16.8771ZM18.5313 24.225C17.6297 24.225 16.7484 24.4924 15.9988 24.9932C15.2492 25.4941 14.6649 26.206 14.3199 27.0389C13.9749 27.8719 13.8846 28.7884 14.0605 29.6726C14.2364 30.5569 14.6705 31.3691 15.308 32.0066C15.9455 32.6441 16.7578 33.0782 17.642 33.2541C18.5262 33.43 19.4427 33.3397 20.2757 32.9947C21.1086 32.6497 21.8205 32.0654 22.3214 31.3158C22.8223 30.5662 23.0896 29.6849 23.0896 28.7833V24.5292C23.0856 24.4476 23.0514 24.3704 22.9936 24.3127C22.9358 24.2549 22.8587 24.2207 22.7771 24.2167L18.5313 24.225Z" fill="black"/>
</g>
<defs>
<clipPath id="clip0_108_395">
<rect width="50" height="50" fill="white"/>
</clipPath>
</defs>
</svg>
