<svg width="16" height="16" viewBox="0 0 16 16" fill="none" xmlns="http://www.w3.org/2000/svg">
<path d="M15.2073 5.682L7.18235 13.707C6.99483 13.8944 6.74058 13.9997 6.47547 13.9997C6.21037 13.9997 5.95612 13.8944 5.7686 13.707L1.29235 9.207C1.10515 9.01951 1 8.76539 1 8.50044C1 8.23549 1.10515 7.98137 1.29235 7.79387L2.54235 6.54387C2.72976 6.35724 2.98348 6.25246 3.24797 6.25246C3.51247 6.25246 3.76618 6.35724 3.9536 6.54387L6.50047 9.01387L12.548 3.04075C12.7354 2.85393 12.9893 2.74902 13.2539 2.74902C13.5186 2.74902 13.7724 2.85393 13.9598 3.04075L15.2067 4.262C15.3005 4.35492 15.3749 4.46549 15.4258 4.58733C15.4766 4.70916 15.5028 4.83986 15.5028 4.97187C15.5029 5.10388 15.4768 5.2346 15.4261 5.35648C15.3754 5.47836 15.301 5.589 15.2073 5.682Z" fill="#0E53BE"/>
</svg>
