<svg width="57" height="16" viewBox="0 0 57 16" fill="none" xmlns="http://www.w3.org/2000/svg">
<g clip-path="url(#clip0_4695_4544)">
<path d="M17.1909 0H14.6309V16H17.1909V0Z" fill="#313131"/>
<path d="M26.1513 10.8956C26.1513 13.3443 24.0924 13.5395 23.48 13.5395C21.9497 13.5395 21.6713 12.1071 21.6713 11.2431V5.11963H19.1113V11.2303C19.1113 12.7471 19.5875 13.999 20.422 14.8335C21.1593 15.5715 22.264 15.9747 23.4608 15.9747C24.3094 15.9747 25.5113 15.7103 26.1513 15.126V15.9996H28.7113V5.11963H26.1513V10.8956Z" fill="#313131"/>
<path d="M33.8316 1.27979H31.2716V5.11979H29.3516V7.67978H31.2716V15.9998H33.8316V7.67978H35.7516V5.11979H33.8316V1.27979Z" fill="#313131"/>
<path d="M43.8131 12.7466C43.2557 13.2477 42.5197 13.5255 41.712 13.5255C39.9315 13.5255 38.624 12.218 38.624 10.4228C38.624 8.62757 39.8899 7.37509 41.712 7.37509C42.5056 7.37509 43.2557 7.63941 43.8272 8.14053L44.2157 8.47461L45.9417 6.74917L45.5097 6.35941C44.4941 5.44229 43.1456 4.92773 41.7113 4.92773C38.5113 4.92773 36.1875 7.23685 36.1875 10.4093C36.1875 13.5684 38.567 15.9601 41.7113 15.9601C43.1725 15.9601 44.535 15.4455 45.5379 14.5137L45.9552 14.1239L44.2022 12.3997L43.8131 12.7466Z" fill="#313131"/>
<path d="M55.0795 6.06848C54.3422 5.3312 53.4782 4.928 52.2814 4.928C51.4328 4.928 50.4715 5.19232 49.8315 5.776V0H47.2715V16H49.8315V10.0064C49.8315 7.55776 51.571 7.3632 52.1835 7.3632C53.7137 7.3632 53.6715 8.79616 53.6715 9.65888V16H56.2315V9.67232C56.2315 8.15552 55.9147 6.90368 55.0795 6.06848Z" fill="#313131"/>
<path d="M41.6295 8.6001C42.6523 8.6001 43.4811 9.42762 43.4811 10.451C43.4811 11.4731 42.6523 12.3019 41.6295 12.3019C40.6075 12.3019 39.7793 11.4731 39.7793 10.451C39.7799 9.42826 40.6081 8.6001 41.6295 8.6001Z" fill="#FF3D2E"/>
<path d="M11.047 11.9812C10.0736 12.9828 8.75136 13.5255 7.36 13.5255C4.50816 13.5255 2.43456 11.2855 2.43456 8.21095C2.43456 5.12231 4.50816 2.88231 7.36 2.88231C8.73792 2.88231 10.0454 3.42439 11.0336 4.41255L11.4227 4.80231L13.1341 3.09095L12.7584 2.70119C11.3395 1.24007 9.41952 0.447754 7.36 0.447754C3.1584 0.447754 0 3.78663 0 8.22439C0 12.6487 3.17248 15.9742 7.36 15.9742C9.4336 15.9742 11.3536 15.1678 12.7725 13.7066L13.1482 13.3169L11.4509 11.578L11.047 11.9812Z" fill="#313131"/>
</g>
<defs>
<clipPath id="clip0_4695_4544">
<rect width="56.231" height="16" fill="white"/>
</clipPath>
</defs>
</svg>
