<svg width="40" height="40" viewBox="0 0 40 40" fill="none" xmlns="http://www.w3.org/2000/svg">
<g clip-path="url(#clip0_5353_4743)">
<path d="M24.6665 14.9955C24.3646 14.4718 23.9259 14.04 23.3975 13.7464C22.869 13.4528 22.2707 13.3085 21.6665 13.3288H19.9998M15.2998 15.2805C15.0686 15.7882 14.9685 16.3459 15.0087 16.9024C15.0489 17.4589 15.2281 17.9964 15.53 18.4656C15.8319 18.9349 16.2467 19.3208 16.7365 19.5881C17.2262 19.8554 17.7752 19.9955 18.3332 19.9955H19.9998M24.7065 24.6988C24.4427 25.2841 24.0154 25.7807 23.4761 26.129C22.9369 26.4772 22.3085 26.6624 21.6665 26.6622H18.3332C17.729 26.6825 17.1306 26.5382 16.6022 26.2446C16.0738 25.951 15.6351 25.5192 15.3332 24.9955" stroke="white" stroke-width="2.5" stroke-linecap="round" stroke-linejoin="round"/>
<path d="M33.4026 26.7401C34.8227 23.9216 35.3175 20.727 34.8167 17.6109C34.316 14.4948 32.8451 11.6161 30.6134 9.38441C28.3817 7.15274 25.503 5.68184 22.3869 5.18105C19.2708 4.68026 16.0762 5.1751 13.2576 6.59515M9.39431 9.39015C7.98254 10.7786 6.85964 12.4328 6.09037 14.2573C5.3211 16.0819 4.9207 18.0407 4.91225 20.0208C4.9038 22.0009 5.28747 23.9631 6.04114 25.7941C6.79481 27.6252 7.90355 29.2889 9.30342 30.6893C10.7033 32.0898 12.3666 33.1992 14.1974 33.9535C16.0281 34.7079 17.9901 35.0924 19.9702 35.0847C21.9503 35.077 23.9093 34.6774 25.7342 33.9088C27.559 33.1403 29.2137 32.018 30.6026 30.6068" stroke="white" stroke-width="2.5" stroke-linecap="round" stroke-linejoin="round"/>
<path d="M20 9.99686V13.3302M20 26.6635V29.9969" stroke="white" stroke-width="2.5" stroke-linecap="round" stroke-linejoin="round"/>
<path d="M5 4.99817L35 34.9982" stroke="white" stroke-width="2.5" stroke-linecap="round" stroke-linejoin="round"/>
</g>
<defs>
<clipPath id="clip0_5353_4743">
<rect width="40" height="40" fill="white"/>
</clipPath>
</defs>
</svg>
