<svg width="60" height="60" viewBox="0 0 60 60" fill="none" xmlns="http://www.w3.org/2000/svg">
<g clip-path="url(#clip0_4741_4930)">
<path d="M28.75 52.5H20C18.6739 52.5 17.4021 51.9732 16.4645 51.0355C15.5268 50.0979 15 48.8261 15 47.5V12.5C15 11.1739 15.5268 9.90215 16.4645 8.96447C17.4021 8.02678 18.6739 7.5 20 7.5H40C41.3261 7.5 42.5979 8.02678 43.5355 8.96447C44.4732 9.90215 45 11.1739 45 12.5V32.5" stroke="#0E53BE" stroke-width="5" stroke-linecap="round" stroke-linejoin="round"/>
<path d="M50 52.5L55 47.5L50 42.5" stroke="#0E53BE" stroke-width="5" stroke-linecap="round" stroke-linejoin="round"/>
<path d="M42.5 42.5L37.5 47.5L42.5 52.5" stroke="#0E53BE" stroke-width="5" stroke-linecap="round" stroke-linejoin="round"/>
<path d="M27.5 10H32.5" stroke="#0E53BE" stroke-width="5" stroke-linecap="round" stroke-linejoin="round"/>
<path d="M30 42.5V42.525" stroke="#0E53BE" stroke-width="5" stroke-linecap="round" stroke-linejoin="round"/>
</g>
<defs>
<clipPath id="clip0_4741_4930">
<rect width="60" height="60" fill="white"/>
</clipPath>
</defs>
</svg>
