<svg width="40" height="40" viewBox="0 0 40 40" fill="none" xmlns="http://www.w3.org/2000/svg">
<g clip-path="url(#clip0_5353_4722)">
<path d="M23.334 5V11.6667C23.334 12.1087 23.5096 12.5326 23.8221 12.8452C24.1347 13.1577 24.5586 13.3333 25.0007 13.3333H31.6673" stroke="white" stroke-width="2.5" stroke-linecap="round" stroke-linejoin="round"/>
<path d="M28.334 35H11.6673C10.7833 35 9.93542 34.6488 9.31029 34.0237C8.68517 33.3986 8.33398 32.5507 8.33398 31.6667V8.33333C8.33398 7.44928 8.68517 6.60143 9.31029 5.97631C9.93542 5.35119 10.7833 5 11.6673 5H23.334L31.6673 13.3333V31.6667C31.6673 32.5507 31.3161 33.3986 30.691 34.0237C30.0659 34.6488 29.218 35 28.334 35Z" stroke="white" stroke-width="2.5" stroke-linecap="round" stroke-linejoin="round"/>
<path d="M18.334 20.832C18.334 20.169 18.0706 19.5331 17.6018 19.0643C17.1329 18.5954 16.497 18.332 15.834 18.332C15.1709 18.332 14.5351 18.5954 14.0662 19.0643C13.5974 19.5331 13.334 20.169 13.334 20.832V25.832C13.334 26.4951 13.5974 27.131 14.0662 27.5998C14.5351 28.0686 15.1709 28.332 15.834 28.332C16.497 28.332 17.1329 28.0686 17.6018 27.5998C18.0706 27.131 18.334 26.4951 18.334 25.832" stroke="white" stroke-width="2.5" stroke-linecap="round" stroke-linejoin="round"/>
<path d="M21.666 18.332L24.166 28.332L26.666 18.332" stroke="white" stroke-width="2.5" stroke-linecap="round" stroke-linejoin="round"/>
</g>
<defs>
<clipPath id="clip0_5353_4722">
<rect width="40" height="40" fill="white"/>
</clipPath>
</defs>
</svg>
