<svg width="60" height="60" viewBox="0 0 60 60" fill="none" xmlns="http://www.w3.org/2000/svg">
<g clip-path="url(#clip0_4741_4906)">
<path d="M10 32.5C10.8125 38.83 14.7025 44.4525 20 47.5" stroke="#0E53BE" stroke-width="5" stroke-linecap="round" stroke-linejoin="round"/>
<path d="M50 27.4998C49.3886 23.1003 47.3477 19.0239 44.1916 15.8985C41.0355 12.7731 36.9394 10.7721 32.5342 10.2036C28.129 9.63522 23.6591 10.531 19.813 12.7529C15.967 14.9748 12.9581 18.3996 11.25 22.4998" stroke="#0E53BE" stroke-width="5" stroke-linecap="round" stroke-linejoin="round"/>
<path d="M10 12.5V22.5H20" stroke="#0E53BE" stroke-width="5" stroke-linecap="round" stroke-linejoin="round"/>
<path d="M30 37.5H35C35.663 37.5 36.2989 37.7634 36.7678 38.2322C37.2366 38.7011 37.5 39.337 37.5 40V42.5C37.5 43.163 37.2366 43.7989 36.7678 44.2678C36.2989 44.7366 35.663 45 35 45H32.5C31.837 45 31.2011 45.2634 30.7322 45.7322C30.2634 46.2011 30 46.837 30 47.5V50C30 50.663 30.2634 51.2989 30.7322 51.7678C31.2011 52.2366 31.837 52.5 32.5 52.5H37.5" stroke="#0E53BE" stroke-width="5" stroke-linecap="round" stroke-linejoin="round"/>
<path d="M45 37.5V42.5C45 43.163 45.2634 43.7989 45.7322 44.2678C46.2011 44.7366 46.837 45 47.5 45H50" stroke="#0E53BE" stroke-width="5" stroke-linecap="round" stroke-linejoin="round"/>
<path d="M52.5 37.5V52.5" stroke="#0E53BE" stroke-width="5" stroke-linecap="round" stroke-linejoin="round"/>
</g>
<defs>
<clipPath id="clip0_4741_4906">
<rect width="60" height="60" fill="white"/>
</clipPath>
</defs>
</svg>
