<svg width="50" height="50" viewBox="0 0 50 50" fill="none" xmlns="http://www.w3.org/2000/svg">
<path d="M11.455 4C9.565 4.315 7.92875 5.1725 6.54625 6.5725C5.16375 7.9725 4.315 9.6175 4 11.5075V38.545C4.315 40.4 5.155 42.01 6.52 43.375C7.885 44.74 9.4775 45.5975 11.2975 45.9475L11.5075 46H38.545L38.7025 45.9475C40.5575 45.5975 42.1587 44.7312 43.5062 43.3487C44.8537 41.9662 45.685 40.3475 46 38.4925V11.455C45.685 9.6 44.8275 7.9725 43.4275 6.5725C42.0275 5.1725 40.3825 4.315 38.4925 4H11.455ZM40.855 9.1975V11.1925V13.1875C37.145 13.2225 32.175 13.2225 25.945 13.1875L25.9975 9.25L40.855 9.1975ZM24.0025 9.25C24.0375 10.125 24.055 11.4375 24.055 13.1875H9.25V9.25H24.0025ZM33.4 15.13H40.855V19.12H25.945V15.13H33.4ZM24.055 15.13V19.12L9.25 19.0675V15.1825L24.055 15.13ZM27.835 21.01C29.76 21.01 32.6475 21.0275 36.4975 21.0625H40.8025V25.0525L25.945 25.105V21.01H27.835ZM24.055 21.01V22.375V25.105H9.25V21.0625H24.055V21.01ZM25.945 27.0475H32.2975H40.8025C40.8375 27.6775 40.8375 28.64 40.8025 29.935V30.985H25.9975L25.945 27.0475ZM15.0775 28.885C15.9525 28.885 16.8012 29.0687 17.6237 29.4362C18.4462 29.8037 19.1375 30.32 19.6975 30.985C20.4675 31.86 20.905 32.9012 21.01 34.1087C21.115 35.3162 20.905 36.4712 20.38 37.5737C19.855 38.6762 19.0675 39.49 18.0175 40.015C17.0375 40.575 15.9437 40.8112 14.7362 40.7237C13.5287 40.6362 12.4437 40.2425 11.4812 39.5425C10.5187 38.8425 9.88 37.9325 9.565 36.8125C9.145 35.7975 9.0575 34.73 9.3025 33.61C9.5475 32.49 10.055 31.5187 10.825 30.6962C11.595 29.8737 12.5225 29.34 13.6075 29.095C14.0975 28.955 14.5875 28.885 15.0775 28.885Z" fill="#FF8C00"/>
</svg>
