<svg width="143" height="144" viewBox="0 0 143 144" fill="none" xmlns="http://www.w3.org/2000/svg">
<path d="M1.5 105.143V1.5H141.5V105.143L71.2436 141.5L1.5 105.143Z" fill="#0E53BE" stroke="white" stroke-width="3"/>
<path d="M71 130.548L1.5 96.5V105.405L71 140.5L140.5 105.405V96.5L71 130.548Z" fill="white"/>
<path d="M28.9469 53.5V49.47H21.2509V45.57L28.0629 35.3H32.8469V45.57H34.1729V49.47H32.8469V53.5H28.9469ZM25.7489 45.57H28.9469V40.552L25.7489 45.57ZM42.9266 53.838C41.7826 53.838 40.7426 53.578 39.8066 53.058C38.8793 52.5293 38.1383 51.823 37.5836 50.939C37.0376 50.0463 36.7646 49.054 36.7646 47.962C36.7646 47.208 36.9076 46.4843 37.1936 45.791C37.4883 45.0977 37.8999 44.478 38.4286 43.932C38.0299 43.4467 37.7136 42.9137 37.4796 42.333C37.2456 41.7437 37.1286 41.124 37.1286 40.474C37.1286 39.46 37.3886 38.537 37.9086 37.705C38.4373 36.8643 39.1393 36.197 40.0146 35.703C40.8899 35.209 41.8606 34.962 42.9266 34.962C43.9926 34.962 44.9633 35.209 45.8386 35.703C46.7139 36.197 47.4116 36.8643 47.9316 37.705C48.4603 38.537 48.7246 39.46 48.7246 40.474C48.7246 41.124 48.6076 41.7437 48.3736 42.333C48.1483 42.9137 47.8319 43.4467 47.4246 43.932C47.9706 44.478 48.3866 45.0977 48.6726 45.791C48.9673 46.4843 49.1146 47.208 49.1146 47.962C49.1146 49.0453 48.8373 50.0333 48.2826 50.926C47.7279 51.81 46.9826 52.5163 46.0466 53.045C45.1106 53.5737 44.0706 53.838 42.9266 53.838ZM42.9266 49.938C43.3079 49.938 43.6546 49.8513 43.9666 49.678C44.2873 49.496 44.5386 49.2577 44.7206 48.963C44.9113 48.6597 45.0066 48.326 45.0066 47.962C45.0066 47.598 44.9113 47.2687 44.7206 46.974C44.5386 46.6707 44.2873 46.4323 43.9666 46.259C43.6546 46.077 43.3079 45.986 42.9266 45.986C42.5453 45.986 42.1943 46.077 41.8736 46.259C41.5616 46.4323 41.3103 46.6707 41.1196 46.974C40.9376 47.2687 40.8466 47.598 40.8466 47.962C40.8466 48.326 40.9376 48.6597 41.1196 48.963C41.3103 49.2577 41.5616 49.496 41.8736 49.678C42.1943 49.8513 42.5453 49.938 42.9266 49.938ZM42.9266 42.086C43.2386 42.086 43.5203 42.0123 43.7716 41.865C44.0316 41.7177 44.2353 41.5227 44.3826 41.28C44.5386 41.0373 44.6166 40.7687 44.6166 40.474C44.6166 40.1793 44.5386 39.9107 44.3826 39.668C44.2353 39.4253 44.0316 39.2303 43.7716 39.083C43.5203 38.9357 43.2386 38.862 42.9266 38.862C42.6146 38.862 42.3286 38.9357 42.0686 39.083C41.8173 39.2303 41.6136 39.4253 41.4576 39.668C41.3103 39.9107 41.2366 40.1793 41.2366 40.474C41.2366 40.7687 41.3103 41.0373 41.4576 41.28C41.6136 41.5227 41.8173 41.7177 42.0686 41.865C42.3286 42.0123 42.6146 42.086 42.9266 42.086ZM68.3006 35.3H72.2006V53.5H68.3006V45.7H61.8526V53.5H57.9526V35.3H61.8526V41.8H68.3006V35.3ZM80.7605 53.838C79.5645 53.838 78.4725 53.5303 77.4845 52.915C76.5051 52.2997 75.7208 51.4763 75.1315 50.445C74.5508 49.405 74.2605 48.2567 74.2605 47C74.2605 46.0467 74.4295 45.1583 74.7675 44.335C75.1055 43.503 75.5691 42.775 76.1585 42.151C76.7565 41.5183 77.4498 41.0243 78.2385 40.669C79.0271 40.3137 79.8678 40.136 80.7605 40.136C81.9565 40.136 83.0441 40.4437 84.0235 41.059C85.0115 41.6743 85.7958 42.502 86.3765 43.542C86.9658 44.582 87.2605 45.7347 87.2605 47C87.2605 47.9447 87.0915 48.8287 86.7535 49.652C86.4155 50.4753 85.9475 51.2033 85.3495 51.836C84.7601 52.46 84.0711 52.9497 83.2825 53.305C82.5025 53.6603 81.6618 53.838 80.7605 53.838ZM80.7605 49.938C81.2545 49.938 81.6965 49.8037 82.0865 49.535C82.4851 49.2663 82.7971 48.911 83.0225 48.469C83.2478 48.0183 83.3605 47.5287 83.3605 47C83.3605 46.454 83.2391 45.9557 82.9965 45.505C82.7625 45.0543 82.4461 44.699 82.0475 44.439C81.6575 44.1703 81.2285 44.036 80.7605 44.036C80.2751 44.036 79.8331 44.1747 79.4345 44.452C79.0445 44.7207 78.7325 45.0803 78.4985 45.531C78.2731 45.9817 78.1605 46.4713 78.1605 47C78.1605 47.5547 78.2775 48.053 78.5115 48.495C78.7541 48.937 79.0705 49.288 79.4605 49.548C79.8591 49.808 80.2925 49.938 80.7605 49.938ZM88.3076 48.781V40.5H92.2076V47.689C92.2076 48.0963 92.3072 48.469 92.5066 48.807C92.7059 49.1363 92.9702 49.4007 93.2996 49.6C93.6376 49.7907 94.0059 49.886 94.4046 49.886C94.8119 49.886 95.1802 49.7907 95.5096 49.6C95.8476 49.4007 96.1119 49.1363 96.3026 48.807C96.5019 48.469 96.6016 48.0963 96.6016 47.689V40.5H100.502L100.515 53.5H96.6146L96.6016 52.655C96.1682 53.0277 95.6742 53.318 95.1196 53.526C94.5649 53.734 93.9799 53.838 93.3646 53.838C92.4372 53.838 91.5879 53.6127 90.8166 53.162C90.0539 52.7027 89.4429 52.0917 88.9836 51.329C88.5329 50.5663 88.3076 49.717 88.3076 48.781ZM103.136 53.5L103.123 40.5H107.023L107.036 41.319C107.469 40.9463 107.963 40.656 108.518 40.448C109.072 40.24 109.657 40.136 110.273 40.136C110.741 40.136 111.217 40.2053 111.703 40.344L110.169 44.296C109.865 44.1573 109.553 44.088 109.233 44.088C108.825 44.088 108.453 44.1877 108.115 44.387C107.785 44.5777 107.521 44.842 107.322 45.18C107.131 45.5093 107.036 45.8777 107.036 46.285V53.5H103.136ZM116.743 53.734C116.085 53.6733 115.452 53.5303 114.845 53.305C114.239 53.0797 113.697 52.772 113.22 52.382C112.744 51.992 112.367 51.5153 112.089 50.952L115.365 49.548C115.452 49.6433 115.573 49.7647 115.729 49.912C115.885 50.0507 116.08 50.1763 116.314 50.289C116.557 50.4017 116.847 50.458 117.185 50.458C117.411 50.458 117.627 50.4363 117.835 50.393C118.052 50.341 118.225 50.2543 118.355 50.133C118.494 50.0117 118.563 49.8427 118.563 49.626C118.563 49.3833 118.472 49.2013 118.29 49.08C118.117 48.95 117.905 48.859 117.653 48.807C117.402 48.7463 117.168 48.6987 116.951 48.664C116.18 48.5427 115.439 48.3 114.728 47.936C114.026 47.5633 113.45 47.0823 112.999 46.493C112.549 45.895 112.323 45.1973 112.323 44.4C112.323 43.5073 112.553 42.736 113.012 42.086C113.472 41.436 114.07 40.9377 114.806 40.591C115.552 40.2357 116.353 40.058 117.211 40.058C118.225 40.058 119.161 40.266 120.019 40.682C120.886 41.098 121.597 41.696 122.151 42.476L119.083 44.296C118.979 44.166 118.849 44.036 118.693 43.906C118.546 43.7673 118.373 43.6503 118.173 43.555C117.983 43.451 117.775 43.386 117.549 43.36C117.246 43.334 116.973 43.347 116.73 43.399C116.496 43.4423 116.31 43.5377 116.171 43.685C116.033 43.8237 115.963 44.0273 115.963 44.296C115.963 44.5473 116.085 44.7293 116.327 44.842C116.57 44.9547 116.843 45.037 117.146 45.089C117.45 45.141 117.697 45.1973 117.887 45.258C118.633 45.5007 119.335 45.817 119.993 46.207C120.652 46.597 121.181 47.0693 121.579 47.624C121.987 48.1787 122.177 48.8287 122.151 49.574C122.151 50.4407 121.891 51.2033 121.371 51.862C120.851 52.5207 120.18 53.019 119.356 53.357C118.533 53.695 117.662 53.8207 116.743 53.734Z" fill="white"/>
<path d="M35.16 77.708C34.4027 77.708 33.6907 77.5587 33.024 77.26C32.3573 76.956 31.7707 76.5373 31.264 76.004C30.7573 75.4707 30.36 74.8547 30.072 74.156C29.784 73.452 29.64 72.7 29.64 71.9C29.64 71.1 29.784 70.3507 30.072 69.652C30.36 68.948 30.7573 68.3293 31.264 67.796C31.7707 67.2627 32.3573 66.8467 33.024 66.548C33.6907 66.244 34.4027 66.092 35.16 66.092C35.9227 66.092 36.6373 66.244 37.304 66.548C37.9707 66.8467 38.5573 67.2627 39.064 67.796C39.5707 68.3293 39.9653 68.948 40.248 69.652C40.536 70.3507 40.68 71.1 40.68 71.9C40.68 72.7 40.536 73.452 40.248 74.156C39.9653 74.8547 39.5707 75.4707 39.064 76.004C38.5573 76.5373 37.9707 76.956 37.304 77.26C36.6373 77.5587 35.9227 77.708 35.16 77.708ZM35.16 76.364C35.7413 76.364 36.2827 76.2467 36.784 76.012C37.2907 75.7773 37.7333 75.4547 38.112 75.044C38.496 74.628 38.7947 74.1533 39.008 73.62C39.2267 73.0813 39.336 72.508 39.336 71.9C39.336 71.292 39.2267 70.7187 39.008 70.18C38.7893 69.636 38.488 69.1613 38.104 68.756C37.7253 68.3453 37.2827 68.0227 36.776 67.788C36.2747 67.5533 35.736 67.436 35.16 67.436C34.5787 67.436 34.0347 67.5533 33.528 67.788C33.0267 68.0227 32.584 68.348 32.2 68.764C31.8213 69.1747 31.5227 69.6493 31.304 70.188C31.0907 70.7213 30.984 71.292 30.984 71.9C30.984 72.5133 31.0933 73.0893 31.312 73.628C31.5307 74.1667 31.8293 74.6413 32.208 75.052C32.592 75.4627 33.0347 75.7853 33.536 76.02C34.0427 76.2493 34.584 76.364 35.16 76.364ZM49.2976 72.524V77.5H47.9536V72.82C47.9536 72.4147 47.855 72.0467 47.6576 71.716C47.4603 71.3853 47.1963 71.124 46.8656 70.932C46.535 70.7347 46.167 70.636 45.7616 70.636C45.3616 70.636 44.9936 70.7347 44.6576 70.932C44.327 71.124 44.063 71.3853 43.8656 71.716C43.6683 72.0467 43.5696 72.4147 43.5696 72.82V77.5H42.2256V69.5H43.5696V70.5C43.8523 70.1267 44.2096 69.8307 44.6416 69.612C45.0736 69.388 45.543 69.276 46.0496 69.276C46.647 69.276 47.191 69.4227 47.6816 69.716C48.1776 70.004 48.5696 70.3933 48.8576 70.884C49.151 71.3747 49.2976 71.9213 49.2976 72.524ZM55.0393 69.276C55.8179 69.276 56.5246 69.4653 57.1593 69.844C57.7993 70.2227 58.3086 70.732 58.6873 71.372C59.0659 72.0067 59.2552 72.7133 59.2552 73.492C59.2552 74.0733 59.1459 74.62 58.9273 75.132C58.7086 75.6387 58.4046 76.0867 58.0153 76.476C57.6313 76.86 57.1833 77.1613 56.6713 77.38C56.1646 77.5987 55.6206 77.708 55.0393 77.708C54.4206 77.708 53.8819 77.564 53.4233 77.276C52.9699 76.9827 52.6073 76.6013 52.3353 76.132V77.5H50.9913V65.5H52.3353V70.852C52.6073 70.3827 52.9699 70.004 53.4233 69.716C53.8819 69.4227 54.4206 69.276 55.0393 69.276ZM55.0233 76.396C55.5513 76.396 56.0313 76.2653 56.4633 76.004C56.8953 75.7427 57.2393 75.3933 57.4953 74.956C57.7513 74.5133 57.8793 74.0253 57.8793 73.492C57.8793 72.948 57.7486 72.4573 57.4873 72.02C57.2259 71.5773 56.8793 71.228 56.4473 70.972C56.0153 70.7107 55.5406 70.58 55.0233 70.58C54.5006 70.58 54.0446 70.7107 53.6553 70.972C53.2713 71.2333 52.9726 71.5853 52.7593 72.028C52.5513 72.4707 52.4473 72.9587 52.4473 73.492C52.4473 74.0307 52.5513 74.5213 52.7593 74.964C52.9726 75.4013 53.2739 75.7507 53.6633 76.012C54.0526 76.268 54.5059 76.396 55.0233 76.396ZM64.0581 77.708C63.3221 77.708 62.6501 77.5187 62.0421 77.14C61.4395 76.7613 60.9568 76.2547 60.5941 75.62C60.2368 74.98 60.0581 74.2733 60.0581 73.5C60.0581 72.9133 60.1621 72.3667 60.3701 71.86C60.5781 71.348 60.8635 70.9 61.2261 70.516C61.5941 70.1267 62.0208 69.8227 62.5061 69.604C62.9915 69.3853 63.5088 69.276 64.0581 69.276C64.7941 69.276 65.4635 69.4653 66.0661 69.844C66.6741 70.2227 67.1568 70.732 67.5141 71.372C67.8768 72.012 68.0581 72.7213 68.0581 73.5C68.0581 74.0813 67.9541 74.6253 67.7461 75.132C67.5381 75.6387 67.2501 76.0867 66.8821 76.476C66.5195 76.86 66.0955 77.1613 65.6101 77.38C65.1301 77.5987 64.6128 77.708 64.0581 77.708ZM64.0581 76.364C64.5595 76.364 65.0101 76.2333 65.4101 75.972C65.8155 75.7053 66.1328 75.356 66.3621 74.924C66.5968 74.4867 66.7141 74.012 66.7141 73.5C66.7141 72.9773 66.5941 72.4973 66.3541 72.06C66.1195 71.6227 65.8021 71.2733 65.4021 71.012C65.0021 70.7507 64.5541 70.62 64.0581 70.62C63.5568 70.62 63.1061 70.7533 62.7061 71.02C62.3061 71.2813 61.9888 71.6307 61.7541 72.068C61.5195 72.5053 61.4021 72.9827 61.4021 73.5C61.4021 74.0333 61.5221 74.5187 61.7621 74.956C62.0021 75.388 62.3248 75.732 62.7301 75.988C63.1355 76.2387 63.5781 76.364 64.0581 76.364ZM75.767 69.5H77.111V77.5H75.767L75.711 76.148C75.4603 76.612 75.1137 76.988 74.671 77.276C74.2337 77.564 73.711 77.708 73.103 77.708C72.5163 77.708 71.967 77.5987 71.455 77.38C70.943 77.156 70.4897 76.8493 70.095 76.46C69.7057 76.0653 69.4017 75.612 69.183 75.1C68.9643 74.588 68.855 74.036 68.855 73.444C68.855 72.8733 68.9617 72.3347 69.175 71.828C69.3883 71.3213 69.6843 70.8787 70.063 70.5C70.447 70.116 70.8897 69.8173 71.391 69.604C71.8923 69.3853 72.431 69.276 73.007 69.276C73.6363 69.276 74.1883 69.4253 74.663 69.724C75.1377 70.0173 75.5217 70.3987 75.815 70.868L75.767 69.5ZM73.079 76.404C73.607 76.404 74.063 76.276 74.447 76.02C74.8363 75.7587 75.135 75.4067 75.343 74.964C75.5563 74.5213 75.663 74.0333 75.663 73.5C75.663 72.956 75.5563 72.4653 75.343 72.028C75.1297 71.5853 74.8283 71.236 74.439 70.98C74.055 70.7187 73.6017 70.588 73.079 70.588C72.551 70.588 72.071 70.7187 71.639 70.98C71.207 71.2413 70.863 71.5933 70.607 72.036C70.3563 72.4733 70.231 72.9613 70.231 73.5C70.231 74.0387 70.3617 74.5293 70.623 74.972C70.8843 75.4093 71.231 75.7587 71.663 76.02C72.095 76.276 72.567 76.404 73.079 76.404ZM78.71 77.5V69.5H80.054V70.5C80.3367 70.1267 80.694 69.8307 81.126 69.612C81.558 69.388 82.0273 69.276 82.534 69.276C82.8433 69.276 83.142 69.316 83.43 69.396L82.886 70.74C82.6673 70.6707 82.454 70.636 82.246 70.636C81.846 70.636 81.478 70.7347 81.142 70.932C80.8113 71.124 80.5473 71.3853 80.35 71.716C80.1527 72.0467 80.054 72.4147 80.054 72.82V77.5H78.71ZM90.4469 65.5H91.7909V77.5H90.4469V76.14C90.1749 76.6093 89.8095 76.988 89.3509 77.276C88.8922 77.564 88.3535 77.708 87.7349 77.708C87.1535 77.708 86.6095 77.5987 86.1029 77.38C85.5962 77.1613 85.1482 76.86 84.7589 76.476C84.3749 76.0867 84.0735 75.6387 83.8549 75.132C83.6362 74.6253 83.5269 74.0813 83.5269 73.5C83.5269 72.9187 83.6362 72.3747 83.8549 71.868C84.0735 71.356 84.3749 70.908 84.7589 70.524C85.1482 70.1347 85.5962 69.8307 86.1029 69.612C86.6095 69.3933 87.1535 69.284 87.7349 69.284C88.3535 69.284 88.8922 69.428 89.3509 69.716C89.8095 70.004 90.1749 70.3827 90.4469 70.852V65.5ZM87.7509 76.404C88.2789 76.404 88.7349 76.276 89.1189 76.02C89.5082 75.7587 89.8069 75.4067 90.0149 74.964C90.2282 74.5213 90.3349 74.0333 90.3349 73.5C90.3349 72.956 90.2282 72.4653 90.0149 72.028C89.8015 71.5853 89.5002 71.236 89.1109 70.98C88.7269 70.7187 88.2735 70.588 87.7509 70.588C87.2229 70.588 86.7429 70.7187 86.3109 70.98C85.8842 71.2413 85.5429 71.5933 85.2869 72.036C85.0309 72.4733 84.9029 72.9613 84.9029 73.5C84.9029 74.0387 85.0335 74.5293 85.2949 74.972C85.5562 75.4093 85.9029 75.7587 86.3349 76.02C86.7669 76.276 87.2389 76.404 87.7509 76.404ZM93.71 69.5H95.054V77.5H93.71V69.5ZM94.398 68.196C94.1847 68.196 94.006 68.1267 93.862 67.988C93.718 67.8493 93.646 67.676 93.646 67.468C93.646 67.26 93.718 67.0867 93.862 66.948C94.006 66.8093 94.182 66.74 94.39 66.74C94.598 66.74 94.774 66.8093 94.918 66.948C95.062 67.0867 95.134 67.26 95.134 67.468C95.134 67.676 95.062 67.8493 94.918 67.988C94.7793 68.1267 94.606 68.196 94.398 68.196ZM104.001 72.524V77.5H102.657V72.82C102.657 72.4147 102.558 72.0467 102.361 71.716C102.163 71.3853 101.899 71.124 101.569 70.932C101.238 70.7347 100.87 70.636 100.465 70.636C100.065 70.636 99.6968 70.7347 99.3608 70.932C99.0301 71.124 98.7661 71.3853 98.5688 71.716C98.3714 72.0467 98.2728 72.4147 98.2728 72.82V77.5H96.9288V69.5H98.2728V70.5C98.5554 70.1267 98.9128 69.8307 99.3448 69.612C99.7768 69.388 100.246 69.276 100.753 69.276C101.35 69.276 101.894 69.4227 102.385 69.716C102.881 70.004 103.273 70.3933 103.561 70.884C103.854 71.3747 104.001 71.9213 104.001 72.524ZM111.692 69.5H113.036V77.756C113.036 78.284 112.922 78.7747 112.692 79.228C112.468 79.6867 112.164 80.084 111.78 80.42C111.396 80.7613 110.959 81.0253 110.468 81.212C109.978 81.404 109.466 81.5 108.932 81.5C108.378 81.5 107.842 81.3747 107.324 81.124C106.807 80.8787 106.354 80.548 105.964 80.132C105.58 79.7213 105.303 79.26 105.132 78.748L106.364 78.188C106.466 78.556 106.647 78.8867 106.908 79.18C107.175 79.4787 107.484 79.7133 107.836 79.884C108.194 80.06 108.559 80.148 108.932 80.148C109.284 80.148 109.623 80.0867 109.948 79.964C110.279 79.8413 110.575 79.6707 110.836 79.452C111.103 79.2387 111.311 78.9853 111.46 78.692C111.615 78.404 111.692 78.092 111.692 77.756V76.164C111.42 76.6227 111.06 76.996 110.612 77.284C110.17 77.5667 109.652 77.708 109.06 77.708C108.495 77.708 107.964 77.5987 107.468 77.38C106.972 77.1613 106.538 76.86 106.164 76.476C105.791 76.0867 105.498 75.6387 105.284 75.132C105.071 74.6253 104.964 74.0813 104.964 73.5C104.964 72.9187 105.071 72.3747 105.284 71.868C105.498 71.356 105.791 70.908 106.164 70.524C106.538 70.1347 106.972 69.8307 107.468 69.612C107.964 69.3933 108.495 69.284 109.06 69.284C109.652 69.284 110.17 69.4253 110.612 69.708C111.06 69.9907 111.42 70.364 111.692 70.828V69.5ZM109.068 76.404C109.586 76.404 110.034 76.2707 110.412 76.004C110.796 75.7373 111.092 75.3827 111.3 74.94C111.508 74.4973 111.612 74.0173 111.612 73.5C111.612 72.9667 111.506 72.4813 111.292 72.044C111.084 71.6013 110.788 71.2493 110.404 70.988C110.026 70.7213 109.58 70.588 109.068 70.588C108.567 70.588 108.108 70.7187 107.692 70.98C107.276 71.2413 106.946 71.5933 106.7 72.036C106.46 72.4733 106.34 72.9613 106.34 73.5C106.34 74.0387 106.463 74.5293 106.708 74.972C106.959 75.4093 107.29 75.7587 107.7 76.02C108.116 76.276 108.572 76.404 109.068 76.404Z" fill="white"/>
</svg>
