<svg width="143" height="143" viewBox="0 0 143 143" fill="none" xmlns="http://www.w3.org/2000/svg">
<path d="M70.5254 130.621L1.02539 95.0256V104.335L70.5254 141.026L140.025 104.335V95.0256L70.5254 130.621Z" fill="#0E53BE"/>
<path d="M1.02539 104.669V1.02563H141.025V104.669L70.769 141.026L1.02539 104.669Z" stroke="#212529" stroke-width="2.05128"/>
<path d="M28.4723 53.0256V48.9956H20.7763V45.0956L27.5883 34.8256H32.3723V45.0956H33.6983V48.9956H32.3723V53.0256H28.4723ZM25.2743 45.0956H28.4723V40.0776L25.2743 45.0956ZM42.452 53.3636C41.308 53.3636 40.268 53.1036 39.332 52.5836C38.4047 52.055 37.6637 51.3486 37.109 50.4646C36.563 49.572 36.29 48.5796 36.29 47.4876C36.29 46.7336 36.433 46.01 36.719 45.3166C37.0137 44.6233 37.4253 44.0036 37.954 43.4576C37.5553 42.9723 37.239 42.4393 37.005 41.8586C36.771 41.2693 36.654 40.6496 36.654 39.9996C36.654 38.9856 36.914 38.0626 37.434 37.2306C37.9627 36.39 38.6647 35.7226 39.54 35.2286C40.4153 34.7346 41.386 34.4876 42.452 34.4876C43.518 34.4876 44.4887 34.7346 45.364 35.2286C46.2393 35.7226 46.937 36.39 47.457 37.2306C47.9857 38.0626 48.25 38.9856 48.25 39.9996C48.25 40.6496 48.133 41.2693 47.899 41.8586C47.6737 42.4393 47.3573 42.9723 46.95 43.4576C47.496 44.0036 47.912 44.6233 48.198 45.3166C48.4927 46.01 48.64 46.7336 48.64 47.4876C48.64 48.571 48.3627 49.559 47.808 50.4516C47.2533 51.3356 46.508 52.042 45.572 52.5706C44.636 53.0993 43.596 53.3636 42.452 53.3636ZM42.452 49.4636C42.8333 49.4636 43.18 49.377 43.492 49.2036C43.8127 49.0216 44.064 48.7833 44.246 48.4886C44.4367 48.1853 44.532 47.8516 44.532 47.4876C44.532 47.1236 44.4367 46.7943 44.246 46.4996C44.064 46.1963 43.8127 45.958 43.492 45.7846C43.18 45.6026 42.8333 45.5116 42.452 45.5116C42.0707 45.5116 41.7197 45.6026 41.399 45.7846C41.087 45.958 40.8357 46.1963 40.645 46.4996C40.463 46.7943 40.372 47.1236 40.372 47.4876C40.372 47.8516 40.463 48.1853 40.645 48.4886C40.8357 48.7833 41.087 49.0216 41.399 49.2036C41.7197 49.377 42.0707 49.4636 42.452 49.4636ZM42.452 41.6116C42.764 41.6116 43.0457 41.538 43.297 41.3906C43.557 41.2433 43.7607 41.0483 43.908 40.8056C44.064 40.563 44.142 40.2943 44.142 39.9996C44.142 39.705 44.064 39.4363 43.908 39.1936C43.7607 38.951 43.557 38.756 43.297 38.6086C43.0457 38.4613 42.764 38.3876 42.452 38.3876C42.14 38.3876 41.854 38.4613 41.594 38.6086C41.3427 38.756 41.139 38.951 40.983 39.1936C40.8357 39.4363 40.762 39.705 40.762 39.9996C40.762 40.2943 40.8357 40.563 40.983 40.8056C41.139 41.0483 41.3427 41.2433 41.594 41.3906C41.854 41.538 42.14 41.6116 42.452 41.6116ZM67.826 34.8256H71.726V53.0256H67.826V45.2256H61.378V53.0256H57.478V34.8256H61.378V41.3256H67.826V34.8256ZM80.2859 53.3636C79.0899 53.3636 77.9979 53.056 77.0099 52.4406C76.0305 51.8253 75.2462 51.002 74.6569 49.9706C74.0762 48.9306 73.7859 47.7823 73.7859 46.5256C73.7859 45.5723 73.9549 44.684 74.2929 43.8606C74.6309 43.0286 75.0945 42.3006 75.6839 41.6766C76.2819 41.044 76.9752 40.55 77.7639 40.1946C78.5525 39.8393 79.3932 39.6616 80.2859 39.6616C81.4819 39.6616 82.5695 39.9693 83.5489 40.5846C84.5369 41.2 85.3212 42.0276 85.9019 43.0676C86.4912 44.1076 86.7859 45.2603 86.7859 46.5256C86.7859 47.4703 86.6169 48.3543 86.2789 49.1776C85.9409 50.001 85.4729 50.729 84.8749 51.3616C84.2855 51.9856 83.5965 52.4753 82.8079 52.8306C82.0279 53.186 81.1872 53.3636 80.2859 53.3636ZM80.2859 49.4636C80.7799 49.4636 81.2219 49.3293 81.6119 49.0606C82.0105 48.792 82.3225 48.4366 82.5479 47.9946C82.7732 47.544 82.8859 47.0543 82.8859 46.5256C82.8859 45.9796 82.7645 45.4813 82.5219 45.0306C82.2879 44.58 81.9715 44.2246 81.5729 43.9646C81.1829 43.696 80.7539 43.5616 80.2859 43.5616C79.8005 43.5616 79.3585 43.7003 78.9599 43.9776C78.5699 44.2463 78.2579 44.606 78.0239 45.0566C77.7985 45.5073 77.6859 45.997 77.6859 46.5256C77.6859 47.0803 77.8029 47.5786 78.0369 48.0206C78.2795 48.4626 78.5959 48.8136 78.9859 49.0736C79.3845 49.3336 79.8179 49.4636 80.2859 49.4636ZM87.833 48.3066V40.0256H91.733V47.2146C91.733 47.622 91.8326 47.9946 92.032 48.3326C92.2313 48.662 92.4956 48.9263 92.825 49.1256C93.163 49.3163 93.5313 49.4116 93.93 49.4116C94.3373 49.4116 94.7056 49.3163 95.035 49.1256C95.373 48.9263 95.6373 48.662 95.828 48.3326C96.0273 47.9946 96.127 47.622 96.127 47.2146V40.0256H100.027L100.04 53.0256H96.14L96.127 52.1806C95.6936 52.5533 95.1996 52.8436 94.645 53.0516C94.0903 53.2596 93.5053 53.3636 92.89 53.3636C91.9626 53.3636 91.1133 53.1383 90.342 52.6876C89.5793 52.2283 88.9683 51.6173 88.509 50.8546C88.0583 50.092 87.833 49.2426 87.833 48.3066ZM102.661 53.0256L102.648 40.0256H106.548L106.561 40.8446C106.994 40.472 107.488 40.1816 108.043 39.9736C108.598 39.7656 109.183 39.6616 109.798 39.6616C110.266 39.6616 110.743 39.731 111.228 39.8696L109.694 43.8216C109.391 43.683 109.079 43.6136 108.758 43.6136C108.351 43.6136 107.978 43.7133 107.64 43.9126C107.311 44.1033 107.046 44.3676 106.847 44.7056C106.656 45.035 106.561 45.4033 106.561 45.8106V53.0256H102.661ZM116.269 53.2596C115.61 53.199 114.978 53.056 114.371 52.8306C113.764 52.6053 113.223 52.2976 112.746 51.9076C112.269 51.5176 111.892 51.041 111.615 50.4776L114.891 49.0736C114.978 49.169 115.099 49.2903 115.255 49.4376C115.411 49.5763 115.606 49.702 115.84 49.8146C116.083 49.9273 116.373 49.9836 116.711 49.9836C116.936 49.9836 117.153 49.962 117.361 49.9186C117.578 49.8666 117.751 49.78 117.881 49.6586C118.02 49.5373 118.089 49.3683 118.089 49.1516C118.089 48.909 117.998 48.727 117.816 48.6056C117.643 48.4756 117.43 48.3846 117.179 48.3326C116.928 48.272 116.694 48.2243 116.477 48.1896C115.706 48.0683 114.965 47.8256 114.254 47.4616C113.552 47.089 112.976 46.608 112.525 46.0186C112.074 45.4206 111.849 44.723 111.849 43.9256C111.849 43.033 112.079 42.2616 112.538 41.6116C112.997 40.9616 113.595 40.4633 114.332 40.1166C115.077 39.7613 115.879 39.5836 116.737 39.5836C117.751 39.5836 118.687 39.7916 119.545 40.2076C120.412 40.6236 121.122 41.2216 121.677 42.0016L118.609 43.8216C118.505 43.6916 118.375 43.5616 118.219 43.4316C118.072 43.293 117.898 43.176 117.699 43.0806C117.508 42.9766 117.3 42.9116 117.075 42.8856C116.772 42.8596 116.499 42.8726 116.256 42.9246C116.022 42.968 115.836 43.0633 115.697 43.2106C115.558 43.3493 115.489 43.553 115.489 43.8216C115.489 44.073 115.61 44.255 115.853 44.3676C116.096 44.4803 116.369 44.5626 116.672 44.6146C116.975 44.6666 117.222 44.723 117.413 44.7836C118.158 45.0263 118.86 45.3426 119.519 45.7326C120.178 46.1226 120.706 46.595 121.105 47.1496C121.512 47.7043 121.703 48.3543 121.677 49.0996C121.677 49.9663 121.417 50.729 120.897 51.3876C120.377 52.0463 119.705 52.5446 118.882 52.8826C118.059 53.2206 117.188 53.3463 116.269 53.2596Z" fill="#0E1011"/>
<path d="M34.6854 77.2336C33.9281 77.2336 33.2161 77.0843 32.5494 76.7856C31.8827 76.4816 31.2961 76.063 30.7894 75.5296C30.2827 74.9963 29.8854 74.3803 29.5974 73.6816C29.3094 72.9776 29.1654 72.2256 29.1654 71.4256C29.1654 70.6256 29.3094 69.8763 29.5974 69.1776C29.8854 68.4736 30.2827 67.855 30.7894 67.3216C31.2961 66.7883 31.8827 66.3723 32.5494 66.0736C33.2161 65.7696 33.9281 65.6176 34.6854 65.6176C35.4481 65.6176 36.1627 65.7696 36.8294 66.0736C37.4961 66.3723 38.0827 66.7883 38.5894 67.3216C39.0961 67.855 39.4907 68.4736 39.7734 69.1776C40.0614 69.8763 40.2054 70.6256 40.2054 71.4256C40.2054 72.2256 40.0614 72.9776 39.7734 73.6816C39.4907 74.3803 39.0961 74.9963 38.5894 75.5296C38.0827 76.063 37.4961 76.4816 36.8294 76.7856C36.1627 77.0843 35.4481 77.2336 34.6854 77.2336ZM34.6854 75.8896C35.2667 75.8896 35.8081 75.7723 36.3094 75.5376C36.8161 75.303 37.2587 74.9803 37.6374 74.5696C38.0214 74.1536 38.3201 73.679 38.5334 73.1456C38.7521 72.607 38.8614 72.0336 38.8614 71.4256C38.8614 70.8176 38.7521 70.2443 38.5334 69.7056C38.3147 69.1616 38.0134 68.687 37.6294 68.2816C37.2507 67.871 36.8081 67.5483 36.3014 67.3136C35.8001 67.079 35.2614 66.9616 34.6854 66.9616C34.1041 66.9616 33.5601 67.079 33.0534 67.3136C32.5521 67.5483 32.1094 67.8736 31.7254 68.2896C31.3467 68.7003 31.0481 69.175 30.8294 69.7136C30.6161 70.247 30.5094 70.8176 30.5094 71.4256C30.5094 72.039 30.6187 72.615 30.8374 73.1536C31.0561 73.6923 31.3547 74.167 31.7334 74.5776C32.1174 74.9883 32.5601 75.311 33.0614 75.5456C33.5681 75.775 34.1094 75.8896 34.6854 75.8896ZM48.823 72.0496V77.0256H47.479V72.3456C47.479 71.9403 47.3803 71.5723 47.183 71.2416C46.9857 70.911 46.7217 70.6496 46.391 70.4576C46.0603 70.2603 45.6923 70.1616 45.287 70.1616C44.887 70.1616 44.519 70.2603 44.183 70.4576C43.8523 70.6496 43.5883 70.911 43.391 71.2416C43.1937 71.5723 43.095 71.9403 43.095 72.3456V77.0256H41.751V69.0256H43.095V70.0256C43.3777 69.6523 43.735 69.3563 44.167 69.1376C44.599 68.9136 45.0683 68.8016 45.575 68.8016C46.1723 68.8016 46.7163 68.9483 47.207 69.2416C47.703 69.5296 48.095 69.919 48.383 70.4096C48.6763 70.9003 48.823 71.447 48.823 72.0496ZM54.5646 68.8016C55.3433 68.8016 56.05 68.991 56.6846 69.3696C57.3246 69.7483 57.834 70.2576 58.2126 70.8976C58.5913 71.5323 58.7806 72.239 58.7806 73.0176C58.7806 73.599 58.6713 74.1456 58.4526 74.6576C58.234 75.1643 57.93 75.6123 57.5406 76.0016C57.1566 76.3856 56.7086 76.687 56.1966 76.9056C55.69 77.1243 55.146 77.2336 54.5646 77.2336C53.946 77.2336 53.4073 77.0896 52.9486 76.8016C52.4953 76.5083 52.1326 76.127 51.8606 75.6576V77.0256H50.5166V65.0256H51.8606V70.3776C52.1326 69.9083 52.4953 69.5296 52.9486 69.2416C53.4073 68.9483 53.946 68.8016 54.5646 68.8016ZM54.5486 75.9216C55.0766 75.9216 55.5566 75.791 55.9886 75.5296C56.4206 75.2683 56.7646 74.919 57.0206 74.4816C57.2766 74.039 57.4046 73.551 57.4046 73.0176C57.4046 72.4736 57.274 71.983 57.0126 71.5456C56.7513 71.103 56.4046 70.7536 55.9726 70.4976C55.5406 70.2363 55.066 70.1056 54.5486 70.1056C54.026 70.1056 53.57 70.2363 53.1806 70.4976C52.7966 70.759 52.498 71.111 52.2846 71.5536C52.0766 71.9963 51.9726 72.4843 51.9726 73.0176C51.9726 73.5563 52.0766 74.047 52.2846 74.4896C52.498 74.927 52.7993 75.2763 53.1886 75.5376C53.578 75.7936 54.0313 75.9216 54.5486 75.9216ZM63.5835 77.2336C62.8475 77.2336 62.1755 77.0443 61.5675 76.6656C60.9648 76.287 60.4822 75.7803 60.1195 75.1456C59.7622 74.5056 59.5835 73.799 59.5835 73.0256C59.5835 72.439 59.6875 71.8923 59.8955 71.3856C60.1035 70.8736 60.3888 70.4256 60.7515 70.0416C61.1195 69.6523 61.5462 69.3483 62.0315 69.1296C62.5168 68.911 63.0342 68.8016 63.5835 68.8016C64.3195 68.8016 64.9888 68.991 65.5915 69.3696C66.1995 69.7483 66.6822 70.2576 67.0395 70.8976C67.4022 71.5376 67.5835 72.247 67.5835 73.0256C67.5835 73.607 67.4795 74.151 67.2715 74.6576C67.0635 75.1643 66.7755 75.6123 66.4075 76.0016C66.0448 76.3856 65.6208 76.687 65.1355 76.9056C64.6555 77.1243 64.1382 77.2336 63.5835 77.2336ZM63.5835 75.8896C64.0848 75.8896 64.5355 75.759 64.9355 75.4976C65.3408 75.231 65.6582 74.8816 65.8875 74.4496C66.1222 74.0123 66.2395 73.5376 66.2395 73.0256C66.2395 72.503 66.1195 72.023 65.8795 71.5856C65.6448 71.1483 65.3275 70.799 64.9275 70.5376C64.5275 70.2763 64.0795 70.1456 63.5835 70.1456C63.0822 70.1456 62.6315 70.279 62.2315 70.5456C61.8315 70.807 61.5142 71.1563 61.2795 71.5936C61.0448 72.031 60.9275 72.5083 60.9275 73.0256C60.9275 73.559 61.0475 74.0443 61.2875 74.4816C61.5275 74.9136 61.8502 75.2576 62.2555 75.5136C62.6608 75.7643 63.1035 75.8896 63.5835 75.8896ZM75.2924 69.0256H76.6364V77.0256H75.2924L75.2364 75.6736C74.9857 76.1376 74.6391 76.5136 74.1964 76.8016C73.7591 77.0896 73.2364 77.2336 72.6284 77.2336C72.0417 77.2336 71.4924 77.1243 70.9804 76.9056C70.4684 76.6816 70.0151 76.375 69.6204 75.9856C69.2311 75.591 68.9271 75.1376 68.7084 74.6256C68.4897 74.1136 68.3804 73.5616 68.3804 72.9696C68.3804 72.399 68.4871 71.8603 68.7004 71.3536C68.9137 70.847 69.2097 70.4043 69.5884 70.0256C69.9724 69.6416 70.4151 69.343 70.9164 69.1296C71.4177 68.911 71.9564 68.8016 72.5324 68.8016C73.1617 68.8016 73.7137 68.951 74.1884 69.2496C74.6631 69.543 75.0471 69.9243 75.3404 70.3936L75.2924 69.0256ZM72.6044 75.9296C73.1324 75.9296 73.5884 75.8016 73.9724 75.5456C74.3617 75.2843 74.6604 74.9323 74.8684 74.4896C75.0817 74.047 75.1884 73.559 75.1884 73.0256C75.1884 72.4816 75.0817 71.991 74.8684 71.5536C74.6551 71.111 74.3537 70.7616 73.9644 70.5056C73.5804 70.2443 73.1271 70.1136 72.6044 70.1136C72.0764 70.1136 71.5964 70.2443 71.1644 70.5056C70.7324 70.767 70.3884 71.119 70.1324 71.5616C69.8817 71.999 69.7564 72.487 69.7564 73.0256C69.7564 73.5643 69.8871 74.055 70.1484 74.4976C70.4097 74.935 70.7564 75.2843 71.1884 75.5456C71.6204 75.8016 72.0924 75.9296 72.6044 75.9296ZM78.2354 77.0256V69.0256H79.5794V70.0256C79.8621 69.6523 80.2194 69.3563 80.6514 69.1376C81.0834 68.9136 81.5527 68.8016 82.0594 68.8016C82.3687 68.8016 82.6674 68.8416 82.9554 68.9216L82.4114 70.2656C82.1927 70.1963 81.9794 70.1616 81.7714 70.1616C81.3714 70.1616 81.0034 70.2603 80.6674 70.4576C80.3367 70.6496 80.0727 70.911 79.8754 71.2416C79.6781 71.5723 79.5794 71.9403 79.5794 72.3456V77.0256H78.2354ZM89.9723 65.0256H91.3163V77.0256H89.9723V75.6656C89.7003 76.135 89.3349 76.5136 88.8763 76.8016C88.4176 77.0896 87.8789 77.2336 87.2603 77.2336C86.6789 77.2336 86.1349 77.1243 85.6283 76.9056C85.1216 76.687 84.6736 76.3856 84.2843 76.0016C83.9003 75.6123 83.5989 75.1643 83.3803 74.6576C83.1616 74.151 83.0523 73.607 83.0523 73.0256C83.0523 72.4443 83.1616 71.9003 83.3803 71.3936C83.5989 70.8816 83.9003 70.4336 84.2843 70.0496C84.6736 69.6603 85.1216 69.3563 85.6283 69.1376C86.1349 68.919 86.6789 68.8096 87.2603 68.8096C87.8789 68.8096 88.4176 68.9536 88.8763 69.2416C89.3349 69.5296 89.7003 69.9083 89.9723 70.3776V65.0256ZM87.2763 75.9296C87.8043 75.9296 88.2603 75.8016 88.6443 75.5456C89.0336 75.2843 89.3323 74.9323 89.5403 74.4896C89.7536 74.047 89.8603 73.559 89.8603 73.0256C89.8603 72.4816 89.7536 71.991 89.5403 71.5536C89.3269 71.111 89.0256 70.7616 88.6363 70.5056C88.2523 70.2443 87.7989 70.1136 87.2763 70.1136C86.7483 70.1136 86.2683 70.2443 85.8363 70.5056C85.4096 70.767 85.0683 71.119 84.8123 71.5616C84.5563 71.999 84.4283 72.487 84.4283 73.0256C84.4283 73.5643 84.5589 74.055 84.8203 74.4976C85.0816 74.935 85.4283 75.2843 85.8603 75.5456C86.2923 75.8016 86.7643 75.9296 87.2763 75.9296ZM93.2354 69.0256H94.5794V77.0256H93.2354V69.0256ZM93.9234 67.7216C93.7101 67.7216 93.5314 67.6523 93.3874 67.5136C93.2434 67.375 93.1714 67.2016 93.1714 66.9936C93.1714 66.7856 93.2434 66.6123 93.3874 66.4736C93.5314 66.335 93.7074 66.2656 93.9154 66.2656C94.1234 66.2656 94.2994 66.335 94.4434 66.4736C94.5874 66.6123 94.6594 66.7856 94.6594 66.9936C94.6594 67.2016 94.5874 67.375 94.4434 67.5136C94.3047 67.6523 94.1314 67.7216 93.9234 67.7216ZM103.526 72.0496V77.0256H102.182V72.3456C102.182 71.9403 102.083 71.5723 101.886 71.2416C101.689 70.911 101.425 70.6496 101.094 70.4576C100.763 70.2603 100.395 70.1616 99.9901 70.1616C99.5901 70.1616 99.2221 70.2603 98.8861 70.4576C98.5555 70.6496 98.2915 70.911 98.0941 71.2416C97.8968 71.5723 97.7981 71.9403 97.7981 72.3456V77.0256H96.4541V69.0256H97.7981V70.0256C98.0808 69.6523 98.4381 69.3563 98.8701 69.1376C99.3021 68.9136 99.7715 68.8016 100.278 68.8016C100.875 68.8016 101.419 68.9483 101.91 69.2416C102.406 69.5296 102.798 69.919 103.086 70.4096C103.379 70.9003 103.526 71.447 103.526 72.0496ZM111.218 69.0256H112.562V77.2816C112.562 77.8096 112.447 78.3003 112.218 78.7536C111.994 79.2123 111.69 79.6096 111.306 79.9456C110.922 80.287 110.484 80.551 109.994 80.7376C109.503 80.9296 108.991 81.0256 108.458 81.0256C107.903 81.0256 107.367 80.9003 106.85 80.6496C106.332 80.4043 105.879 80.0736 105.49 79.6576C105.106 79.247 104.828 78.7856 104.658 78.2736L105.89 77.7136C105.991 78.0816 106.172 78.4123 106.434 78.7056C106.7 79.0043 107.01 79.239 107.362 79.4096C107.719 79.5856 108.084 79.6736 108.458 79.6736C108.81 79.6736 109.148 79.6123 109.474 79.4896C109.804 79.367 110.1 79.1963 110.362 78.9776C110.628 78.7643 110.836 78.511 110.986 78.2176C111.14 77.9296 111.218 77.6176 111.218 77.2816V75.6896C110.946 76.1483 110.586 76.5216 110.138 76.8096C109.695 77.0923 109.178 77.2336 108.586 77.2336C108.02 77.2336 107.49 77.1243 106.994 76.9056C106.498 76.687 106.063 76.3856 105.69 76.0016C105.316 75.6123 105.023 75.1643 104.81 74.6576C104.596 74.151 104.49 73.607 104.49 73.0256C104.49 72.4443 104.596 71.9003 104.81 71.3936C105.023 70.8816 105.316 70.4336 105.69 70.0496C106.063 69.6603 106.498 69.3563 106.994 69.1376C107.49 68.919 108.02 68.8096 108.586 68.8096C109.178 68.8096 109.695 68.951 110.138 69.2336C110.586 69.5163 110.946 69.8896 111.218 70.3536V69.0256ZM108.594 75.9296C109.111 75.9296 109.559 75.7963 109.938 75.5296C110.322 75.263 110.618 74.9083 110.826 74.4656C111.034 74.023 111.138 73.543 111.138 73.0256C111.138 72.4923 111.031 72.007 110.818 71.5696C110.61 71.127 110.314 70.775 109.93 70.5136C109.551 70.247 109.106 70.1136 108.594 70.1136C108.092 70.1136 107.634 70.2443 107.218 70.5056C106.802 70.767 106.471 71.119 106.226 71.5616C105.986 71.999 105.866 72.487 105.866 73.0256C105.866 73.5643 105.988 74.055 106.234 74.4976C106.484 74.935 106.815 75.2843 107.226 75.5456C107.642 75.8016 108.098 75.9296 108.594 75.9296Z" fill="#0E1011"/>
</svg>
