<svg width="143" height="143" viewBox="0 0 143 143" fill="none" xmlns="http://www.w3.org/2000/svg">
<path d="M70.5256 130.621L1.02563 95.0259V104.335L70.5256 141.026L140.026 104.335V95.0259L70.5256 130.621Z" fill="#F97316"/>
<path d="M1.02563 104.669V1.02588H141.026V104.669L70.7692 141.026L1.02563 104.669Z" stroke="#1E3A8A" stroke-width="2.05128"/>
<path d="M28.4726 53.0259V48.9959H20.7766V45.0959L27.5886 34.8259H32.3726V45.0959H33.6986V48.9959H32.3726V53.0259H28.4726ZM25.2746 45.0959H28.4726V40.0779L25.2746 45.0959ZM42.4522 53.3639C41.3082 53.3639 40.2682 53.1039 39.3322 52.5839C38.4049 52.0552 37.6639 51.3489 37.1092 50.4649C36.5632 49.5722 36.2902 48.5799 36.2902 47.4879C36.2902 46.7339 36.4332 46.0102 36.7192 45.3169C37.0139 44.6235 37.4256 44.0039 37.9542 43.4579C37.5556 42.9725 37.2392 42.4395 37.0052 41.8589C36.7712 41.2695 36.6542 40.6499 36.6542 39.9999C36.6542 38.9859 36.9142 38.0629 37.4342 37.2309C37.9629 36.3902 38.6649 35.7229 39.5402 35.2289C40.4156 34.7349 41.3862 34.4879 42.4522 34.4879C43.5182 34.4879 44.4889 34.7349 45.3642 35.2289C46.2396 35.7229 46.9372 36.3902 47.4572 37.2309C47.9859 38.0629 48.2502 38.9859 48.2502 39.9999C48.2502 40.6499 48.1332 41.2695 47.8992 41.8589C47.6739 42.4395 47.3576 42.9725 46.9502 43.4579C47.4962 44.0039 47.9122 44.6235 48.1982 45.3169C48.4929 46.0102 48.6402 46.7339 48.6402 47.4879C48.6402 48.5712 48.3629 49.5592 47.8082 50.4519C47.2536 51.3359 46.5082 52.0422 45.5722 52.5709C44.6362 53.0995 43.5962 53.3639 42.4522 53.3639ZM42.4522 49.4639C42.8336 49.4639 43.1802 49.3772 43.4922 49.2039C43.8129 49.0219 44.0642 48.7835 44.2462 48.4889C44.4369 48.1855 44.5322 47.8519 44.5322 47.4879C44.5322 47.1239 44.4369 46.7945 44.2462 46.4999C44.0642 46.1965 43.8129 45.9582 43.4922 45.7849C43.1802 45.6029 42.8336 45.5119 42.4522 45.5119C42.0709 45.5119 41.7199 45.6029 41.3992 45.7849C41.0872 45.9582 40.8359 46.1965 40.6452 46.4999C40.4632 46.7945 40.3722 47.1239 40.3722 47.4879C40.3722 47.8519 40.4632 48.1855 40.6452 48.4889C40.8359 48.7835 41.0872 49.0219 41.3992 49.2039C41.7199 49.3772 42.0709 49.4639 42.4522 49.4639ZM42.4522 41.6119C42.7642 41.6119 43.0459 41.5382 43.2972 41.3909C43.5572 41.2435 43.7609 41.0485 43.9082 40.8059C44.0642 40.5632 44.1422 40.2945 44.1422 39.9999C44.1422 39.7052 44.0642 39.4365 43.9082 39.1939C43.7609 38.9512 43.5572 38.7562 43.2972 38.6089C43.0459 38.4615 42.7642 38.3879 42.4522 38.3879C42.1402 38.3879 41.8542 38.4615 41.5942 38.6089C41.3429 38.7562 41.1392 38.9512 40.9832 39.1939C40.8359 39.4365 40.7622 39.7052 40.7622 39.9999C40.7622 40.2945 40.8359 40.5632 40.9832 40.8059C41.1392 41.0485 41.3429 41.2435 41.5942 41.3909C41.8542 41.5382 42.1402 41.6119 42.4522 41.6119ZM67.8262 34.8259H71.7262V53.0259H67.8262V45.2259H61.3782V53.0259H57.4782V34.8259H61.3782V41.3259H67.8262V34.8259ZM80.2861 53.3639C79.0901 53.3639 77.9981 53.0562 77.0101 52.4409C76.0308 51.8255 75.2464 51.0022 74.6571 49.9709C74.0764 48.9309 73.7861 47.7825 73.7861 46.5259C73.7861 45.5725 73.9551 44.6842 74.2931 43.8609C74.6311 43.0289 75.0948 42.3009 75.6841 41.6769C76.2821 41.0442 76.9754 40.5502 77.7641 40.1949C78.5528 39.8395 79.3934 39.6619 80.2861 39.6619C81.4821 39.6619 82.5698 39.9695 83.5491 40.5849C84.5371 41.2002 85.3214 42.0279 85.9021 43.0679C86.4914 44.1079 86.7861 45.2605 86.7861 46.5259C86.7861 47.4705 86.6171 48.3545 86.2791 49.1779C85.9411 50.0012 85.4731 50.7292 84.8751 51.3619C84.2858 51.9859 83.5968 52.4755 82.8081 52.8309C82.0281 53.1862 81.1874 53.3639 80.2861 53.3639ZM80.2861 49.4639C80.7801 49.4639 81.2221 49.3295 81.6121 49.0609C82.0108 48.7922 82.3228 48.4369 82.5481 47.9949C82.7734 47.5442 82.8861 47.0545 82.8861 46.5259C82.8861 45.9799 82.7648 45.4815 82.5221 45.0309C82.2881 44.5802 81.9718 44.2249 81.5731 43.9649C81.1831 43.6962 80.7541 43.5619 80.2861 43.5619C79.8008 43.5619 79.3588 43.7005 78.9601 43.9779C78.5701 44.2465 78.2581 44.6062 78.0241 45.0569C77.7988 45.5075 77.6861 45.9972 77.6861 46.5259C77.6861 47.0805 77.8031 47.5789 78.0371 48.0209C78.2798 48.4629 78.5961 48.8139 78.9861 49.0739C79.3848 49.3339 79.8181 49.4639 80.2861 49.4639ZM87.8332 48.3069V40.0259H91.7332V47.2149C91.7332 47.6222 91.8329 47.9949 92.0322 48.3329C92.2315 48.6622 92.4959 48.9265 92.8252 49.1259C93.1632 49.3165 93.5315 49.4119 93.9302 49.4119C94.3375 49.4119 94.7059 49.3165 95.0352 49.1259C95.3732 48.9265 95.6375 48.6622 95.8282 48.3329C96.0275 47.9949 96.1272 47.6222 96.1272 47.2149V40.0259H100.027L100.04 53.0259H96.1402L96.1272 52.1809C95.6939 52.5535 95.1999 52.8439 94.6452 53.0519C94.0905 53.2599 93.5055 53.3639 92.8902 53.3639C91.9629 53.3639 91.1135 53.1385 90.3422 52.6879C89.5795 52.2285 88.9685 51.6175 88.5092 50.8549C88.0585 50.0922 87.8332 49.2429 87.8332 48.3069ZM102.661 53.0259L102.648 40.0259H106.548L106.561 40.8449C106.994 40.4722 107.488 40.1819 108.043 39.9739C108.598 39.7659 109.183 39.6619 109.798 39.6619C110.266 39.6619 110.743 39.7312 111.228 39.8699L109.694 43.8219C109.391 43.6832 109.079 43.6139 108.758 43.6139C108.351 43.6139 107.978 43.7135 107.64 43.9129C107.311 44.1035 107.046 44.3679 106.847 44.7059C106.656 45.0352 106.561 45.4035 106.561 45.8109V53.0259H102.661ZM116.269 53.2599C115.61 53.1992 114.978 53.0562 114.371 52.8309C113.764 52.6055 113.223 52.2979 112.746 51.9079C112.269 51.5179 111.892 51.0412 111.615 50.4779L114.891 49.0739C114.978 49.1692 115.099 49.2905 115.255 49.4379C115.411 49.5765 115.606 49.7022 115.84 49.8149C116.083 49.9275 116.373 49.9839 116.711 49.9839C116.936 49.9839 117.153 49.9622 117.361 49.9189C117.578 49.8669 117.751 49.7802 117.881 49.6589C118.02 49.5375 118.089 49.3685 118.089 49.1519C118.089 48.9092 117.998 48.7272 117.816 48.6059C117.643 48.4759 117.43 48.3849 117.179 48.3329C116.928 48.2722 116.694 48.2245 116.477 48.1899C115.706 48.0685 114.965 47.8259 114.254 47.4619C113.552 47.0892 112.976 46.6082 112.525 46.0189C112.074 45.4209 111.849 44.7232 111.849 43.9259C111.849 43.0332 112.079 42.2619 112.538 41.6119C112.997 40.9619 113.595 40.4635 114.332 40.1169C115.077 39.7615 115.879 39.5839 116.737 39.5839C117.751 39.5839 118.687 39.7919 119.545 40.2079C120.412 40.6239 121.122 41.2219 121.677 42.0019L118.609 43.8219C118.505 43.6919 118.375 43.5619 118.219 43.4319C118.072 43.2932 117.898 43.1762 117.699 43.0809C117.508 42.9769 117.3 42.9119 117.075 42.8859C116.772 42.8599 116.499 42.8729 116.256 42.9249C116.022 42.9682 115.836 43.0635 115.697 43.2109C115.558 43.3495 115.489 43.5532 115.489 43.8219C115.489 44.0732 115.61 44.2552 115.853 44.3679C116.096 44.4805 116.369 44.5629 116.672 44.6149C116.975 44.6669 117.222 44.7232 117.413 44.7839C118.158 45.0265 118.86 45.3429 119.519 45.7329C120.178 46.1229 120.706 46.5952 121.105 47.1499C121.512 47.7045 121.703 48.3545 121.677 49.0999C121.677 49.9665 121.417 50.7292 120.897 51.3879C120.377 52.0465 119.705 52.5449 118.882 52.8829C118.059 53.2209 117.188 53.3465 116.269 53.2599Z" fill="#1E3A8A"/>
<path d="M34.6856 77.2339C33.9283 77.2339 33.2163 77.0845 32.5496 76.7859C31.883 76.4819 31.2963 76.0632 30.7896 75.5299C30.283 74.9965 29.8856 74.3805 29.5976 73.6819C29.3096 72.9779 29.1656 72.2259 29.1656 71.4259C29.1656 70.6259 29.3096 69.8765 29.5976 69.1779C29.8856 68.4739 30.283 67.8552 30.7896 67.3219C31.2963 66.7885 31.883 66.3725 32.5496 66.0739C33.2163 65.7699 33.9283 65.6179 34.6856 65.6179C35.4483 65.6179 36.163 65.7699 36.8296 66.0739C37.4963 66.3725 38.083 66.7885 38.5896 67.3219C39.0963 67.8552 39.491 68.4739 39.7736 69.1779C40.0616 69.8765 40.2056 70.6259 40.2056 71.4259C40.2056 72.2259 40.0616 72.9779 39.7736 73.6819C39.491 74.3805 39.0963 74.9965 38.5896 75.5299C38.083 76.0632 37.4963 76.4819 36.8296 76.7859C36.163 77.0845 35.4483 77.2339 34.6856 77.2339ZM34.6856 75.8899C35.267 75.8899 35.8083 75.7725 36.3096 75.5379C36.8163 75.3032 37.259 74.9805 37.6376 74.5699C38.0216 74.1539 38.3203 73.6792 38.5336 73.1459C38.7523 72.6072 38.8616 72.0339 38.8616 71.4259C38.8616 70.8179 38.7523 70.2445 38.5336 69.7059C38.315 69.1619 38.0136 68.6872 37.6296 68.2819C37.251 67.8712 36.8083 67.5485 36.3016 67.3139C35.8003 67.0792 35.2616 66.9619 34.6856 66.9619C34.1043 66.9619 33.5603 67.0792 33.0536 67.3139C32.5523 67.5485 32.1096 67.8739 31.7256 68.2899C31.347 68.7005 31.0483 69.1752 30.8296 69.7139C30.6163 70.2472 30.5096 70.8179 30.5096 71.4259C30.5096 72.0392 30.619 72.6152 30.8376 73.1539C31.0563 73.6925 31.355 74.1672 31.7336 74.5779C32.1176 74.9885 32.5603 75.3112 33.0616 75.5459C33.5683 75.7752 34.1096 75.8899 34.6856 75.8899ZM48.8233 72.0499V77.0259H47.4793V72.3459C47.4793 71.9405 47.3806 71.5725 47.1833 71.2419C46.9859 70.9112 46.7219 70.6499 46.3913 70.4579C46.0606 70.2605 45.6926 70.1619 45.2873 70.1619C44.8873 70.1619 44.5193 70.2605 44.1833 70.4579C43.8526 70.6499 43.5886 70.9112 43.3913 71.2419C43.1939 71.5725 43.0953 71.9405 43.0953 72.3459V77.0259H41.7513V69.0259H43.0953V70.0259C43.3779 69.6525 43.7353 69.3565 44.1673 69.1379C44.5993 68.9139 45.0686 68.8019 45.5753 68.8019C46.1726 68.8019 46.7166 68.9485 47.2073 69.2419C47.7033 69.5299 48.0953 69.9192 48.3833 70.4099C48.6766 70.9005 48.8233 71.4472 48.8233 72.0499ZM54.5649 68.8019C55.3436 68.8019 56.0502 68.9912 56.6849 69.3699C57.3249 69.7485 57.8342 70.2579 58.2129 70.8979C58.5916 71.5325 58.7809 72.2392 58.7809 73.0179C58.7809 73.5992 58.6716 74.1459 58.4529 74.6579C58.2342 75.1645 57.9302 75.6125 57.5409 76.0019C57.1569 76.3859 56.7089 76.6872 56.1969 76.9059C55.6902 77.1245 55.1462 77.2339 54.5649 77.2339C53.9462 77.2339 53.4076 77.0899 52.9489 76.8019C52.4956 76.5085 52.1329 76.1272 51.8609 75.6579V77.0259H50.5169V65.0259H51.8609V70.3779C52.1329 69.9085 52.4956 69.5299 52.9489 69.2419C53.4076 68.9485 53.9462 68.8019 54.5649 68.8019ZM54.5489 75.9219C55.0769 75.9219 55.5569 75.7912 55.9889 75.5299C56.4209 75.2685 56.7649 74.9192 57.0209 74.4819C57.2769 74.0392 57.4049 73.5512 57.4049 73.0179C57.4049 72.4739 57.2742 71.9832 57.0129 71.5459C56.7516 71.1032 56.4049 70.7539 55.9729 70.4979C55.5409 70.2365 55.0662 70.1059 54.5489 70.1059C54.0262 70.1059 53.5702 70.2365 53.1809 70.4979C52.7969 70.7592 52.4982 71.1112 52.2849 71.5539C52.0769 71.9965 51.9729 72.4845 51.9729 73.0179C51.9729 73.5565 52.0769 74.0472 52.2849 74.4899C52.4982 74.9272 52.7996 75.2765 53.1889 75.5379C53.5782 75.7939 54.0316 75.9219 54.5489 75.9219ZM63.5838 77.2339C62.8478 77.2339 62.1758 77.0445 61.5678 76.6659C60.9651 76.2872 60.4824 75.7805 60.1198 75.1459C59.7624 74.5059 59.5838 73.7992 59.5838 73.0259C59.5838 72.4392 59.6878 71.8925 59.8958 71.3859C60.1038 70.8739 60.3891 70.4259 60.7518 70.0419C61.1198 69.6525 61.5464 69.3485 62.0318 69.1299C62.5171 68.9112 63.0344 68.8019 63.5838 68.8019C64.3198 68.8019 64.9891 68.9912 65.5918 69.3699C66.1998 69.7485 66.6824 70.2579 67.0398 70.8979C67.4024 71.5379 67.5838 72.2472 67.5838 73.0259C67.5838 73.6072 67.4798 74.1512 67.2718 74.6579C67.0638 75.1645 66.7758 75.6125 66.4078 76.0019C66.0451 76.3859 65.6211 76.6872 65.1358 76.9059C64.6558 77.1245 64.1384 77.2339 63.5838 77.2339ZM63.5838 75.8899C64.0851 75.8899 64.5358 75.7592 64.9358 75.4979C65.3411 75.2312 65.6584 74.8819 65.8878 74.4499C66.1224 74.0125 66.2398 73.5379 66.2398 73.0259C66.2398 72.5032 66.1198 72.0232 65.8798 71.5859C65.6451 71.1485 65.3278 70.7992 64.9278 70.5379C64.5278 70.2765 64.0798 70.1459 63.5838 70.1459C63.0824 70.1459 62.6318 70.2792 62.2318 70.5459C61.8318 70.8072 61.5144 71.1565 61.2798 71.5939C61.0451 72.0312 60.9278 72.5085 60.9278 73.0259C60.9278 73.5592 61.0478 74.0445 61.2878 74.4819C61.5278 74.9139 61.8504 75.2579 62.2558 75.5139C62.6611 75.7645 63.1038 75.8899 63.5838 75.8899ZM75.2926 69.0259H76.6366V77.0259H75.2926L75.2366 75.6739C74.986 76.1379 74.6393 76.5139 74.1966 76.8019C73.7593 77.0899 73.2366 77.2339 72.6286 77.2339C72.042 77.2339 71.4926 77.1245 70.9806 76.9059C70.4686 76.6819 70.0153 76.3752 69.6206 75.9859C69.2313 75.5912 68.9273 75.1379 68.7086 74.6259C68.49 74.1139 68.3806 73.5619 68.3806 72.9699C68.3806 72.3992 68.4873 71.8605 68.7006 71.3539C68.914 70.8472 69.21 70.4045 69.5886 70.0259C69.9726 69.6419 70.4153 69.3432 70.9166 69.1299C71.418 68.9112 71.9566 68.8019 72.5326 68.8019C73.162 68.8019 73.714 68.9512 74.1886 69.2499C74.6633 69.5432 75.0473 69.9245 75.3406 70.3939L75.2926 69.0259ZM72.6046 75.9299C73.1326 75.9299 73.5886 75.8019 73.9726 75.5459C74.362 75.2845 74.6606 74.9325 74.8686 74.4899C75.082 74.0472 75.1886 73.5592 75.1886 73.0259C75.1886 72.4819 75.082 71.9912 74.8686 71.5539C74.6553 71.1112 74.354 70.7619 73.9646 70.5059C73.5806 70.2445 73.1273 70.1139 72.6046 70.1139C72.0766 70.1139 71.5966 70.2445 71.1646 70.5059C70.7326 70.7672 70.3886 71.1192 70.1326 71.5619C69.882 71.9992 69.7566 72.4872 69.7566 73.0259C69.7566 73.5645 69.8873 74.0552 70.1486 74.4979C70.41 74.9352 70.7566 75.2845 71.1886 75.5459C71.6206 75.8019 72.0926 75.9299 72.6046 75.9299ZM78.2356 77.0259V69.0259H79.5796V70.0259C79.8623 69.6525 80.2196 69.3565 80.6516 69.1379C81.0836 68.9139 81.553 68.8019 82.0596 68.8019C82.369 68.8019 82.6676 68.8419 82.9556 68.9219L82.4116 70.2659C82.193 70.1965 81.9796 70.1619 81.7716 70.1619C81.3716 70.1619 81.0036 70.2605 80.6676 70.4579C80.337 70.6499 80.073 70.9112 79.8756 71.2419C79.6783 71.5725 79.5796 71.9405 79.5796 72.3459V77.0259H78.2356ZM89.9725 65.0259H91.3165V77.0259H89.9725V75.6659C89.7005 76.1352 89.3352 76.5139 88.8765 76.8019C88.4178 77.0899 87.8792 77.2339 87.2605 77.2339C86.6792 77.2339 86.1352 77.1245 85.6285 76.9059C85.1218 76.6872 84.6738 76.3859 84.2845 76.0019C83.9005 75.6125 83.5992 75.1645 83.3805 74.6579C83.1618 74.1512 83.0525 73.6072 83.0525 73.0259C83.0525 72.4445 83.1618 71.9005 83.3805 71.3939C83.5992 70.8819 83.9005 70.4339 84.2845 70.0499C84.6738 69.6605 85.1218 69.3565 85.6285 69.1379C86.1352 68.9192 86.6792 68.8099 87.2605 68.8099C87.8792 68.8099 88.4178 68.9539 88.8765 69.2419C89.3352 69.5299 89.7005 69.9085 89.9725 70.3779V65.0259ZM87.2765 75.9299C87.8045 75.9299 88.2605 75.8019 88.6445 75.5459C89.0338 75.2845 89.3325 74.9325 89.5405 74.4899C89.7538 74.0472 89.8605 73.5592 89.8605 73.0259C89.8605 72.4819 89.7538 71.9912 89.5405 71.5539C89.3272 71.1112 89.0258 70.7619 88.6365 70.5059C88.2525 70.2445 87.7992 70.1139 87.2765 70.1139C86.7485 70.1139 86.2685 70.2445 85.8365 70.5059C85.4098 70.7672 85.0685 71.1192 84.8125 71.5619C84.5565 71.9992 84.4285 72.4872 84.4285 73.0259C84.4285 73.5645 84.5592 74.0552 84.8205 74.4979C85.0818 74.9352 85.4285 75.2845 85.8605 75.5459C86.2925 75.8019 86.7645 75.9299 87.2765 75.9299ZM93.2356 69.0259H94.5796V77.0259H93.2356V69.0259ZM93.9236 67.7219C93.7103 67.7219 93.5316 67.6525 93.3876 67.5139C93.2436 67.3752 93.1716 67.2019 93.1716 66.9939C93.1716 66.7859 93.2436 66.6125 93.3876 66.4739C93.5316 66.3352 93.7076 66.2659 93.9156 66.2659C94.1236 66.2659 94.2996 66.3352 94.4436 66.4739C94.5876 66.6125 94.6596 66.7859 94.6596 66.9939C94.6596 67.2019 94.5876 67.3752 94.4436 67.5139C94.305 67.6525 94.1316 67.7219 93.9236 67.7219ZM103.526 72.0499V77.0259H102.182V72.3459C102.182 71.9405 102.084 71.5725 101.886 71.2419C101.689 70.9112 101.425 70.6499 101.094 70.4579C100.764 70.2605 100.396 70.1619 99.9904 70.1619C99.5904 70.1619 99.2224 70.2605 98.8864 70.4579C98.5557 70.6499 98.2917 70.9112 98.0944 71.2419C97.8971 71.5725 97.7984 71.9405 97.7984 72.3459V77.0259H96.4544V69.0259H97.7984V70.0259C98.0811 69.6525 98.4384 69.3565 98.8704 69.1379C99.3024 68.9139 99.7717 68.8019 100.278 68.8019C100.876 68.8019 101.42 68.9485 101.91 69.2419C102.406 69.5299 102.798 69.9192 103.086 70.4099C103.38 70.9005 103.526 71.4472 103.526 72.0499ZM111.218 69.0259H112.562V77.2819C112.562 77.8099 112.447 78.3005 112.218 78.7539C111.994 79.2125 111.69 79.6099 111.306 79.9459C110.922 80.2872 110.485 80.5512 109.994 80.7379C109.503 80.9299 108.991 81.0259 108.458 81.0259C107.903 81.0259 107.367 80.9005 106.85 80.6499C106.333 80.4045 105.879 80.0739 105.49 79.6579C105.106 79.2472 104.829 78.7859 104.658 78.2739L105.89 77.7139C105.991 78.0819 106.173 78.4125 106.434 78.7059C106.701 79.0045 107.01 79.2392 107.362 79.4099C107.719 79.5859 108.085 79.6739 108.458 79.6739C108.81 79.6739 109.149 79.6125 109.474 79.4899C109.805 79.3672 110.101 79.1965 110.362 78.9779C110.629 78.7645 110.837 78.5112 110.986 78.2179C111.141 77.9299 111.218 77.6179 111.218 77.2819V75.6899C110.946 76.1485 110.586 76.5219 110.138 76.8099C109.695 77.0925 109.178 77.2339 108.586 77.2339C108.021 77.2339 107.49 77.1245 106.994 76.9059C106.498 76.6872 106.063 76.3859 105.69 76.0019C105.317 75.6125 105.023 75.1645 104.81 74.6579C104.597 74.1512 104.49 73.6072 104.49 73.0259C104.49 72.4445 104.597 71.9005 104.81 71.3939C105.023 70.8819 105.317 70.4339 105.69 70.0499C106.063 69.6605 106.498 69.3565 106.994 69.1379C107.49 68.9192 108.021 68.8099 108.586 68.8099C109.178 68.8099 109.695 68.9512 110.138 69.2339C110.586 69.5165 110.946 69.8899 111.218 70.3539V69.0259ZM108.594 75.9299C109.111 75.9299 109.559 75.7965 109.938 75.5299C110.322 75.2632 110.618 74.9085 110.826 74.4659C111.034 74.0232 111.138 73.5432 111.138 73.0259C111.138 72.4925 111.031 72.0072 110.818 71.5699C110.61 71.1272 110.314 70.7752 109.93 70.5139C109.551 70.2472 109.106 70.1139 108.594 70.1139C108.093 70.1139 107.634 70.2445 107.218 70.5059C106.802 70.7672 106.471 71.1192 106.226 71.5619C105.986 71.9992 105.866 72.4872 105.866 73.0259C105.866 73.5645 105.989 74.0552 106.234 74.4979C106.485 74.9352 106.815 75.2845 107.226 75.5459C107.642 75.8019 108.098 75.9299 108.594 75.9299Z" fill="#1E3A8A"/>
</svg>
