<svg width="32" height="32" viewBox="0 0 32 32" fill="none" xmlns="http://www.w3.org/2000/svg">
<path d="M26.7556 17.1301C27.3806 16.5051 27.3806 15.4901 26.7556 14.8651L18.7556 6.86505C18.1306 6.24005 17.1156 6.24005 16.4906 6.86505C15.8656 7.49005 15.8656 8.50505 16.4906 9.13005L23.3606 16.0001L16.4956 22.87C15.8706 23.495 15.8706 24.5101 16.4956 25.1351C17.1206 25.7601 18.1356 25.7601 18.7606 25.1351L26.7606 17.1351L26.7556 17.1301ZM9.15563 25.13L17.1556 17.1301C17.7806 16.5051 17.7806 15.4901 17.1556 14.8651L9.15563 6.86505C8.53063 6.24005 7.51562 6.24005 6.89062 6.86505C6.26562 7.49005 6.26562 8.50505 6.89062 9.13005L13.7606 16.0001L6.89562 22.87C6.27062 23.495 6.27062 24.5101 6.89562 25.1351C7.52062 25.7601 8.53562 25.7601 9.16062 25.1351L9.15563 25.13Z" fill="#F97316"/>
</svg>
