<svg width="70" height="38" viewBox="0 0 70 38" fill="none" xmlns="http://www.w3.org/2000/svg">
<path d="M22.4168 20.8756L21.4542 19.5167H19.6538V20.8756H19.0649V17.3086H21.8732C22.2469 17.3086 22.5413 17.4105 22.7565 17.6143C22.9716 17.8182 23.0735 18.0899 23.0735 18.441C23.0735 18.5995 23.0509 18.7354 23.0056 18.8599C22.9603 18.9845 22.8923 19.0864 22.8131 19.177C22.7338 19.2676 22.6319 19.3355 22.5187 19.3808C22.4054 19.4374 22.2809 19.4714 22.1563 19.4941L23.1075 20.8869H22.4168V20.8756ZM22.2922 18.8373C22.4054 18.7467 22.462 18.6108 22.462 18.4296C22.462 18.0446 22.2129 17.8408 21.726 17.8408H19.6538V18.9732H21.7826C21.9978 18.9732 22.1676 18.9279 22.2922 18.8373Z" fill="#414042"/>
<path d="M28.4072 19.0868C28.4072 19.6756 28.1694 20.1399 27.6938 20.5022C27.5013 20.6494 27.2635 20.7627 27.0031 20.8533C26.7313 20.9325 26.4482 20.9778 26.1311 20.9778C25.8141 20.9778 25.531 20.9325 25.2592 20.8533C24.9874 20.7627 24.7496 20.6494 24.5571 20.5022C24.0815 20.1399 23.8438 19.6756 23.8438 19.0868C23.8438 18.5206 24.0815 18.045 24.5685 17.6826C24.7723 17.5354 24.9988 17.4109 25.2705 17.3316C25.5423 17.241 25.8254 17.207 26.1311 17.207C26.4369 17.207 26.72 17.2523 26.9917 17.3316C27.2635 17.4222 27.49 17.5354 27.6938 17.6826C28.1694 18.045 28.4072 18.5206 28.4072 19.0868ZM27.7957 19.0868C27.7957 18.6678 27.6145 18.3281 27.2635 18.0676C27.1163 17.9657 26.9464 17.8751 26.7539 17.8185C26.5614 17.7619 26.3463 17.7279 26.1198 17.7279C25.8707 17.7279 25.6442 17.7619 25.4404 17.8298C25.2366 17.8978 25.0554 17.9884 24.9082 18.1129C24.761 18.2375 24.6477 18.3734 24.5685 18.5432C24.4892 18.7131 24.4439 18.8943 24.4439 19.0868C24.4439 19.2906 24.4779 19.4718 24.5571 19.6416C24.6364 19.8115 24.7496 19.9474 24.8969 20.0719C25.0441 20.1852 25.2139 20.2871 25.4291 20.3437C25.6442 20.4003 25.8707 20.4456 26.1198 20.4456C26.3803 20.4456 26.6067 20.4116 26.8106 20.3437C27.0144 20.2757 27.1956 20.1852 27.3314 20.0719C27.4786 19.9587 27.5919 19.8115 27.6712 19.6416C27.7504 19.4718 27.7957 19.2906 27.7957 19.0868Z" fill="#414042"/>
<path d="M33.0269 18.3162C32.8344 18.1123 32.6193 17.9651 32.3701 17.8745C32.121 17.784 31.8379 17.7387 31.5096 17.7387C31.2604 17.7387 31.034 17.7726 30.8301 17.8406C30.6263 17.9085 30.4451 17.9991 30.3092 18.1237C30.162 18.2482 30.0488 18.3841 29.9695 18.554C29.8903 18.7238 29.845 18.8937 29.845 19.0975C29.845 19.3013 29.8789 19.4825 29.9582 19.6524C30.0375 19.8222 30.1507 19.9581 30.2979 20.0827C30.4451 20.1959 30.6263 20.2978 30.8301 20.3544C31.0453 20.4224 31.2718 20.4563 31.5435 20.4563C31.8606 20.4563 32.1437 20.4111 32.3815 20.3205C32.6193 20.2299 32.8344 20.0827 33.0269 19.8675L33.5365 20.1506C33.276 20.4563 32.9816 20.6715 32.6646 20.7961C32.3362 20.9206 31.9512 20.9886 31.5096 20.9886C31.1925 20.9886 30.9094 20.9433 30.6376 20.864C30.3659 20.7847 30.1394 20.6602 29.9356 20.513C29.46 20.1506 29.2222 19.6863 29.2222 19.0975C29.2222 18.52 29.46 18.0557 29.9469 17.6934C30.1394 17.5462 30.3772 17.4216 30.6376 17.3423C30.9094 17.2631 31.1925 17.2178 31.4982 17.2178C31.9398 17.2178 32.3362 17.297 32.6759 17.4556C33.0269 17.6141 33.31 17.8406 33.5478 18.1463L33.0269 18.3162Z" fill="#414042"/>
<path d="M37.9301 20.8756L36.2202 18.9958L35.1445 19.7885V20.8756H34.5557V17.3086H35.1445V19.1544L37.6357 17.3086H38.485L36.6619 18.6561L38.6775 20.8756H37.9301Z" fill="#414042"/>
<path d="M39.2891 20.8756V17.3086H42.8787V17.8408H39.8779V18.7467H41.9615V19.2789H39.8779V20.3207H43.0146V20.8529H39.2891V20.8756Z" fill="#414042"/>
<path d="M45.698 17.8408V20.8642H45.1092V17.8408H43.4106V17.3086H47.4079V17.8408H45.698Z" fill="#414042"/>
<path d="M48.6196 17.8408V18.7467H50.7031V19.2789H48.6196V20.8529H48.0308V17.3086H51.6204V17.8408H48.6196Z" fill="#414042"/>
<path d="M56.1052 20.2301C56.0146 20.3773 55.8787 20.5132 55.7089 20.6264C55.539 20.7397 55.3239 20.8303 55.0748 20.8869C54.8256 20.9435 54.5425 20.9775 54.2368 20.9775C53.9197 20.9775 53.648 20.9435 53.3875 20.8869C53.1271 20.8303 52.9233 20.7397 52.7534 20.6264C52.5835 20.5132 52.4477 20.3773 52.3571 20.2301C52.2665 20.0716 52.2212 19.913 52.2212 19.7319V17.3086H52.81V19.5847C52.81 19.8677 52.9346 20.0829 53.1724 20.2301C53.4102 20.3773 53.7725 20.4566 54.2481 20.4566C54.7124 20.4566 55.0748 20.3773 55.3126 20.2301C55.5504 20.0829 55.6749 19.8677 55.6749 19.5847V17.3086H56.2637V19.7205C56.2524 19.9017 56.1958 20.0716 56.1052 20.2301Z" fill="#414042"/>
<path d="M57.4072 20.8756V17.3086H60.9968V17.8408H57.9961V18.7467H60.0796V19.2789H57.9961V20.3207H61.144V20.8529H57.4072V20.8756Z" fill="#414042"/>
<path d="M61.9365 20.8756V17.3086H62.5254V20.332H65.277V20.8642H61.9365V20.8756Z" fill="#414042"/>
<path d="M8.77138 18.8377H5.63472V15.7916H6.7218L5.74796 14.3535H4.03809V23.9447H5.63472V20.2871H9.74522L8.77138 18.8377Z" fill="#414042"/>
<path d="M13.3351 19.9015C13.6408 19.7657 13.9013 19.5732 14.1277 19.3354C14.3542 19.0976 14.5241 18.8258 14.6486 18.4974C14.7732 18.169 14.8298 17.7953 14.8298 17.3764C14.8298 16.4365 14.5467 15.7005 13.9805 15.1682C13.4143 14.6247 12.6217 14.3643 11.6026 14.3643H6.67676L7.66192 15.791H11.2289C12.5537 15.791 13.2105 16.3119 13.2105 17.365C13.2105 17.8406 13.052 18.203 12.7349 18.4634C12.4179 18.7126 11.9649 18.8371 11.3648 18.8371H9.72283L13.1765 23.9328H14.9204L12.3499 20.2073C12.701 20.1393 13.0293 20.0374 13.3351 19.9015Z" fill="#414042"/>
</svg>
