<svg width="50" height="50" viewBox="0 0 50 50" fill="none" xmlns="http://www.w3.org/2000/svg">
<path d="M24.0459 11.7469C22.3448 9.19582 21.9771 5.78644 21.8969 4.3854C17.5761 5.31978 13.2834 6.99582 13.5313 8.23019C13.5625 8.3854 13.7584 8.57186 14.0834 8.75311L13.575 9.66248C12.9542 9.31457 12.6053 8.91352 12.5105 8.43436C12.2303 7.03748 13.8125 5.77394 17.3459 4.57082C19.7584 3.74894 22.1917 3.25832 22.2948 3.23853L22.9167 3.11353V3.74998C22.9167 3.79373 22.9438 8.21665 24.9125 11.1698L24.0459 11.7469Z" fill="#CFD8DC"/>
<path d="M25.7823 44.7916H25.5208C16.9875 44.7916 7.49062 42.1114 6.36874 37.626C5.68437 34.8864 7.92291 31.8594 12.8417 28.875L13.3833 29.7646C8.95728 32.451 6.82499 35.1521 7.3802 37.3739C8.35416 41.2677 17.3542 43.6948 25.2479 43.7489C26.1864 42.3458 31.2292 34.1031 28.351 23.0479L29.3583 22.7854C32.6385 35.3812 26.0062 44.4906 25.9396 44.5812L25.7823 44.7916Z" fill="#CFD8DC"/>
<path d="M10.3448 40.9439C9.78332 40.9439 9.5052 40.8824 9.45936 40.871C9.27603 40.8262 9.13228 40.6856 9.08228 40.5043C9.03124 40.3231 9.08332 40.1283 9.21666 39.996C9.29166 39.921 16.7135 32.4876 17.7156 26.4772L18.7427 26.6481C17.8812 31.8189 12.7896 37.7137 10.7677 39.8845C12.7875 39.7689 17.8875 38.8231 27.6781 33.3429C20.0375 32.5054 18.8292 26.3887 18.8167 26.3231L19.8406 26.1345C19.8896 26.3908 21.1177 32.396 29.4698 32.396C29.4729 32.396 29.475 32.396 29.4781 32.396C29.7146 32.396 29.9198 32.5543 29.9802 32.7814C30.0427 33.0085 29.9427 33.2491 29.7396 33.3679C18.0364 40.1481 12.3614 40.9429 10.3448 40.9439Z" fill="#CFD8DC"/>
<path d="M15.1292 43.4375C14.9136 43.4375 14.7177 43.3042 14.6417 43.099C14.5594 42.8792 14.6344 42.6302 14.8261 42.4927C14.8615 42.4667 16.7146 41.099 18.6865 38.0886C17.9281 37.7531 17.1604 37.3615 16.399 36.9042C15.474 36.349 14.775 35.7531 14.2531 35.1427C11.576 35.849 9.10522 36.1281 6.93542 35.9438L7.02292 34.9063C8.97709 35.0719 11.199 34.8406 13.6073 34.2396C11.9688 31.4396 13.4729 28.6604 13.4938 28.6229L14.4042 29.1302C14.3344 29.2573 13.0865 31.599 14.6636 33.9563C16.9563 33.2979 19.4021 32.324 21.9333 31.0583C22.5156 29.1469 22.9708 26.9729 23.2094 24.5208C23.2261 24.3531 23.3219 24.2042 23.4677 24.1198C23.6136 24.0354 23.7917 24.0281 23.9448 24.0979C23.9781 24.1136 27.3448 25.6511 29.7823 26.6542C29.9594 26.7271 30.0823 26.8917 30.1021 27.0823C30.1229 27.2729 30.0365 27.4583 29.8771 27.5667C27.4927 29.1917 25.124 30.6011 22.8167 31.7771C22.0854 34.0948 21.1802 36.024 20.2552 37.6011C24.1115 39.0417 27.4583 39.0636 27.5011 39.0636C27.7386 39.0636 27.9458 39.224 28.0052 39.4542C28.0646 39.6844 27.9615 39.925 27.7542 40.0406C23.025 42.6677 15.4969 43.4073 15.1792 43.4375C15.1625 43.4365 15.1458 43.4375 15.1292 43.4375ZM19.6969 38.5073C18.6136 40.1886 17.549 41.3958 16.7531 42.1844C18.8344 41.8781 22.4833 41.2073 25.5115 39.9563C24.0615 39.7781 21.9625 39.3823 19.6969 38.5073ZM15.3823 34.824C15.7917 35.2323 16.3021 35.6313 16.9344 36.0115C17.7011 36.4719 18.4792 36.8625 19.2469 37.1938C20.0323 35.8771 20.8104 34.2969 21.4781 32.4354C19.3729 33.4375 17.3292 34.2375 15.3823 34.824ZM24.1688 25.3427C23.9552 27.1844 23.6261 28.8646 23.2177 30.3948C24.9469 29.4729 26.7115 28.4198 28.4906 27.2427C26.8771 26.5594 25.1031 25.7646 24.1688 25.3427Z" fill="#CFD8DC"/>
<path d="M18.6708 11.0419C18.5489 11.0419 18.4281 10.9981 18.3322 10.9169C16.6552 9.48144 14.6812 6.56061 14.5979 6.43665C14.4635 6.23769 14.4843 5.97207 14.6458 5.79498C14.8062 5.61686 15.0708 5.57519 15.2791 5.68873C15.2906 5.69186 16.2562 6.08978 22.7968 7.17936C22.9854 7.21061 23.1406 7.34186 23.2031 7.52102C23.2666 7.70019 23.226 7.90019 23.0989 8.04186C21.2677 10.0762 18.9541 10.9721 18.8562 11.0085C18.7958 11.0304 18.7322 11.0419 18.6708 11.0419ZM16.2989 7.02727C16.9562 7.91165 17.9031 9.10644 18.7697 9.91165C19.302 9.66894 20.4958 9.05957 21.6281 8.03873C18.9375 7.57936 17.2958 7.25227 16.2989 7.02727Z" fill="#CFD8DC"/>
<path d="M22.7532 25.4165C22.6823 25.4165 22.6105 25.4019 22.5438 25.3728C22.3365 25.2811 22.2115 25.0665 22.2355 24.8415C22.5396 21.978 18.1459 20.829 18.1011 20.8186C17.9198 20.7728 17.7761 20.6321 17.7271 20.4519C17.6782 20.2717 17.7292 20.078 17.8615 19.9457C18.0771 19.7301 23.2146 14.6353 29.6605 11.8373C29.8407 11.7592 30.0448 11.7884 30.1969 11.9103C30.348 12.0332 30.4177 12.2301 30.3782 12.4196C29.1427 18.403 23.3886 24.9655 23.1448 25.2415C23.0417 25.3551 22.898 25.4165 22.7532 25.4165ZM19.224 20.0884C20.4573 20.5519 22.6178 21.6248 23.1646 23.5842C24.674 21.7009 27.8959 17.3623 29.099 13.2363C24.5292 15.4342 20.6813 18.7488 19.224 20.0884Z" fill="#B71C1C"/>
<path d="M13.6239 29.5417L13.1292 28.625C15.0906 27.5678 17.3375 25.6219 19.1781 23.3605C17.6114 24.4334 16.7146 25.1678 16.6864 25.1917L16.0208 24.3896C16.0614 24.3563 17.8583 22.8823 20.8448 21.0355C21.6646 19.7167 22.2948 18.3605 22.6187 17.0605C22.6739 16.8396 22.7219 16.6261 22.7604 16.4198C20.7552 15.7042 18.9052 15.2803 17.6344 15.098C17.4417 15.0709 17.2812 14.9386 17.2167 14.7563C17.1521 14.574 17.1948 14.3698 17.325 14.2282C17.4135 14.1323 19.5291 11.8657 22.1729 10.6209C22.3781 10.524 22.6239 10.5719 22.7781 10.7396C22.8479 10.8157 24.2781 12.4219 23.9146 15.7448C25.1177 16.2136 26.3573 16.7834 27.551 17.4615C30.425 16.1698 33.6885 15.0073 37.1646 14.3053C37.3437 14.2698 37.5427 14.3344 37.6656 14.4803C37.7875 14.6261 37.8208 14.8271 37.7521 15.0042C36.3979 18.475 32.7667 22.1823 32.6125 22.3386C32.5073 22.4448 32.3635 22.498 32.2135 22.4928C32.0646 22.4844 31.9271 22.4136 31.8333 22.2969C30.6666 20.8303 29.1416 19.6157 27.4969 18.6271C25.2312 19.673 23.225 20.7917 21.576 21.8032C19.4719 25.0875 16.2958 28.1032 13.6239 29.5417ZM28.6375 18.1209C29.9812 18.9875 31.2323 20.0063 32.2666 21.1917C33.1291 20.2563 35.1989 17.8917 36.3729 15.5438C33.6125 16.1792 31 17.099 28.6375 18.1209ZM23.7489 16.7938C23.7146 16.9636 23.675 17.1375 23.6312 17.3146C23.4125 18.1886 23.0646 19.0865 22.6187 19.9823C23.7604 19.3303 25.0239 18.6573 26.3875 18.0053C25.5146 17.5428 24.6239 17.1407 23.7489 16.7938ZM18.8 14.2417C19.9573 14.4688 21.3833 14.8396 22.9052 15.373C23.0635 13.4532 22.5448 12.2771 22.2312 11.7563C20.7979 12.5042 19.5427 13.5563 18.8 14.2417Z" fill="#B71C1C"/>
<path d="M18.8021 19.2709C18.8021 23.8334 15 27.4584 12.2604 30.1042C11.8021 30.5522 10.25 30.6251 10.25 30.6251C10.6354 30.2292 11.0729 29.8126 11.5417 29.3647C14.1458 26.8438 17.7604 23.3959 17.7604 19.2709C17.7604 14.3855 15.7917 12.4584 14.2396 10.9167C13.5521 10.2188 12.9687 9.55216 12.6146 8.73966L12.9375 8.60425C13.2917 8.7605 13.6979 8.93758 14.0104 9.073C14.2604 9.43758 14.5937 9.79175 14.9792 10.1772C16.5729 11.7709 18.8021 13.9584 18.8021 19.2709Z" fill="#B71C1C"/>
<path d="M44.724 20.6188C44.724 20.6188 44.0937 20.7084 43.9167 20.7292C34.7917 21.7397 25.375 24.3647 19.9896 26.5209C18.0417 27.3022 16.0208 28.2501 14.1771 29.3126C14.1667 29.323 14.1562 29.323 14.1354 29.3334C13.0521 29.9584 10.4167 31.2501 8.28125 32.3855C11.4062 29.0626 17.2604 26.5001 19.5937 25.5626C24.875 23.448 33.9479 20.8959 42.875 19.8022C41.8229 18.573 39.25 15.9688 34.1875 14.0313C31.2292 12.8855 26.7292 12.2397 22.7604 11.6667C16.4479 10.7605 12.8542 10.1563 12.5104 8.43758C12.4375 8.09383 12.4896 7.75008 12.6458 7.41675C12.9896 7.97925 13.4792 8.37508 13.8021 8.60425C13.9583 8.70842 14.0729 8.77091 14.1146 8.79175L14.125 8.80216C15.6042 9.58341 19.5937 10.1563 22.9167 10.6355C26.9375 11.2188 31.4896 11.8751 34.5625 13.0522C41.7187 15.8126 44.1875 19.7605 44.2917 19.9272C44.3854 20.0834 44.724 20.6188 44.724 20.6188Z" fill="#B71C1C"/>
</svg>
