<svg width="70" height="38" viewBox="0 0 70 38" fill="none" xmlns="http://www.w3.org/2000/svg">
<g clip-path="url(#clip0_103_278)">
<path d="M32.8812 15.9006V12.7966H34.0226V12.0926H30.9026V12.7966H32.0439V15.9006H32.8812ZM37.8266 15.9006V15.1966H35.7732V14.2633H37.6186V13.6126H35.7732V12.7966H37.7839V12.0926H34.9359V15.9006H37.8266ZM39.6516 15.9006V13.3513H39.6622L41.2466 15.9006H42.0839V12.0926H41.2999V14.6473H41.2892L39.6999 12.0926H38.8679V15.9006H39.6516ZM44.0796 15.9006V13.3513H44.0902L45.6742 15.9006H46.5116V12.0926H45.7276V14.6473H45.7169L44.1276 12.0926H43.2956V15.9006H44.0796ZM50.6139 15.9006V15.1966H48.5606V14.2633H50.4059V13.6126H48.5606V12.7966H50.5712V12.0926H47.7232V15.9006H50.6139ZM53.0366 15.986C53.2959 15.986 53.5246 15.956 53.7219 15.8953C53.9192 15.835 54.0846 15.7503 54.2179 15.642C54.3512 15.5336 54.4516 15.4046 54.5192 15.2553C54.5875 15.1027 54.6221 14.9371 54.6206 14.77C54.6206 14.5566 54.5752 14.3816 54.4846 14.2446C54.4005 14.1144 54.2907 14.0028 54.1619 13.9166C54.046 13.8389 53.9193 13.7787 53.7859 13.738C53.6596 13.7006 53.5609 13.6746 53.4899 13.6606C53.2516 13.6003 53.0586 13.5506 52.9112 13.5113C52.7925 13.4821 52.6766 13.4429 52.5646 13.394C52.4809 13.355 52.4249 13.3123 52.3966 13.266C52.3679 13.2196 52.3539 13.1593 52.3539 13.0846C52.3539 13.003 52.3716 12.9353 52.4072 12.882C52.4428 12.8286 52.4892 12.7832 52.5432 12.7486C52.5982 12.713 52.6596 12.6883 52.7272 12.674C52.7946 12.6596 52.8622 12.6526 52.9299 12.6526C53.0329 12.6526 53.1279 12.6616 53.2152 12.6793C53.3022 12.697 53.3796 12.7273 53.4472 12.77C53.5146 12.8126 53.5689 12.8713 53.6099 12.946C53.6506 13.0206 53.6746 13.115 53.6819 13.2286H54.4926C54.4926 13.0083 54.4506 12.8206 54.3672 12.666C54.286 12.5139 54.17 12.3833 54.0286 12.2846C53.8809 12.1827 53.7153 12.1094 53.5406 12.0686C53.3528 12.0236 53.1603 12.0013 52.9672 12.002C52.7966 12.002 52.6259 12.0253 52.4552 12.0713C52.2846 12.1176 52.1316 12.1886 51.9966 12.2846C51.8625 12.3795 51.7506 12.5023 51.6686 12.6446C51.5849 12.7886 51.5432 12.9583 51.5432 13.154C51.5432 13.3283 51.5759 13.4766 51.6419 13.5993C51.7076 13.722 51.7939 13.8243 51.9006 13.906C52.0072 13.9876 52.1279 14.0543 52.2632 14.106C52.3982 14.1576 52.5369 14.201 52.6792 14.2366C52.8179 14.2756 52.9546 14.3113 53.0899 14.3433C53.2249 14.3753 53.3459 14.4126 53.4526 14.4553C53.5592 14.498 53.6452 14.5513 53.7112 14.6153C53.7769 14.6793 53.8099 14.763 53.8099 14.866C53.8099 14.962 53.7849 15.041 53.7352 15.1033C53.6851 15.1658 53.6212 15.216 53.5486 15.25C53.4726 15.2859 53.3917 15.3102 53.3086 15.322C53.2291 15.334 53.1489 15.3402 53.0686 15.3406C52.9582 15.3406 52.8516 15.3273 52.7486 15.3006C52.6519 15.2769 52.5606 15.2353 52.4792 15.178C52.4017 15.1215 52.3386 15.0475 52.2952 14.962C52.2489 14.873 52.2259 14.7646 52.2259 14.6366H51.4152C51.4116 14.8713 51.4542 15.074 51.5432 15.2446C51.6319 15.4153 51.7519 15.5556 51.9032 15.666C52.0542 15.776 52.2286 15.857 52.4259 15.9086C52.6253 15.9605 52.8305 15.9864 53.0366 15.986ZM56.9736 15.986C57.2332 15.986 57.4616 15.956 57.6589 15.8953C57.8562 15.835 58.0216 15.7503 58.1549 15.642C58.2882 15.5336 58.3889 15.4046 58.4562 15.2553C58.5245 15.1027 58.5591 14.9371 58.5576 14.77C58.5576 14.5566 58.5122 14.3816 58.4216 14.2446C58.3375 14.1144 58.2277 14.0028 58.0989 13.9166C57.983 13.8389 57.8563 13.7787 57.7229 13.738C57.5969 13.7006 57.4982 13.6746 57.4269 13.6606C57.1889 13.6003 56.9959 13.5506 56.8482 13.5113C56.7295 13.4821 56.6136 13.4429 56.5016 13.394C56.4182 13.355 56.3622 13.3123 56.3336 13.266C56.3052 13.2196 56.2909 13.1593 56.2909 13.0846C56.2909 13.003 56.3089 12.9353 56.3442 12.882C56.3798 12.8286 56.4262 12.7832 56.4802 12.7486C56.5356 12.713 56.5969 12.6883 56.6642 12.674C56.7319 12.6596 56.7996 12.6526 56.8669 12.6526C56.9702 12.6526 57.0652 12.6616 57.1522 12.6793C57.2396 12.697 57.3169 12.7273 57.3842 12.77C57.4519 12.8126 57.5062 12.8713 57.5469 12.946C57.5879 13.0206 57.6119 13.115 57.6189 13.2286H58.4296C58.4296 13.0083 58.3879 12.8206 58.3042 12.666C58.223 12.5139 58.107 12.3833 57.9656 12.2846C57.8179 12.1827 57.6523 12.1094 57.4776 12.0686C57.2898 12.0236 57.0973 12.0013 56.9042 12.002C56.7336 12.002 56.5629 12.0253 56.3922 12.0713C56.2216 12.1176 56.0689 12.1886 55.9336 12.2846C55.7995 12.3795 55.6876 12.5023 55.6056 12.6446C55.5222 12.7886 55.4802 12.9583 55.4802 13.154C55.4802 13.3283 55.5132 13.4766 55.5789 13.5993C55.6449 13.722 55.7309 13.8243 55.8376 13.906C55.9442 13.9876 56.0652 14.0543 56.2002 14.106C56.3356 14.1576 56.4742 14.201 56.6162 14.2366C56.7549 14.2756 56.8919 14.3113 57.0269 14.3433C57.1622 14.3753 57.2829 14.4126 57.3896 14.4553C57.4962 14.498 57.5826 14.5513 57.6482 14.6153C57.7142 14.6793 57.7469 14.763 57.7469 14.866C57.7469 14.962 57.7222 15.041 57.6722 15.1033C57.6221 15.1658 57.5582 15.216 57.4856 15.25C57.4096 15.2859 57.3287 15.3102 57.2456 15.322C57.1661 15.334 57.0859 15.3402 57.0056 15.3406C56.8956 15.3406 56.7889 15.3273 56.6856 15.3006C56.5889 15.2769 56.4976 15.2353 56.4162 15.178C56.3387 15.1215 56.2756 15.0475 56.2322 14.962C56.1862 14.873 56.1629 14.7646 56.1629 14.6366H55.3522C55.3489 14.8713 55.3916 15.074 55.4802 15.2446C55.5692 15.4153 55.6892 15.5556 55.8402 15.666C55.9916 15.776 56.1656 15.857 56.3629 15.9086C56.5623 15.9605 56.7675 15.9864 56.9736 15.986ZM62.4202 15.9006V15.1966H60.3669V14.2633H62.2122V13.6126H60.3666V12.7966H62.3772V12.0926H59.5292V15.9006H62.4199H62.4202ZM66.3519 15.9006V15.1966H64.2986V14.2633H66.1439V13.6126H64.2986V12.7966H66.3092V12.0926H63.4612V15.9006H66.3519ZM32.9719 20.9006L34.2359 17.0926H33.3719L32.5132 19.77H32.5026L31.6546 17.0926H30.7959L32.0279 20.9006H32.9719ZM35.2346 20.9006L35.5332 20.0526H36.9572L37.2452 20.9006H38.1146L36.6906 17.0926H35.8319L34.3919 20.9006H35.2346ZM36.7386 19.4286H35.7519L36.2479 18.0313H36.2586L36.7386 19.4286ZM41.6142 20.9006V20.1966H39.7582V17.0926H38.9209V20.9006H41.6142ZM45.2529 20.9006V20.1966H43.3969V17.0926H42.5596V20.9006H45.2529ZM49.0886 20.9006V20.1966H47.0352V19.2633H48.8806V18.6126H47.0352V17.7966H49.0459V17.0926H46.1979V20.9006H49.0886ZM51.9539 20.9006V19.4393L53.3672 17.0926H52.4339L51.5486 18.5966L50.6579 17.0926H49.7192L51.1166 19.418V20.9006H51.9539ZM31.6439 25.9006L31.9426 25.0526H33.3666L33.6546 25.9006H34.5239L33.0999 22.0926H32.2412L30.8012 25.9006H31.6439ZM33.1479 24.4286H32.1612L32.6572 23.0313H32.6679L33.1479 24.4286ZM36.9359 25.986C37.4442 25.986 37.8426 25.8606 38.1306 25.61C38.4186 25.3593 38.5626 24.9763 38.5626 24.4606V22.0926H37.7252V24.4606C37.7252 24.745 37.6682 24.954 37.5546 25.0873C37.4406 25.2206 37.2346 25.2873 36.9359 25.2873C36.7652 25.2873 36.6292 25.2633 36.5279 25.2153C36.4346 25.1737 36.353 25.1095 36.2906 25.0286C36.233 24.9507 36.1946 24.8602 36.1786 24.7646C36.1607 24.6643 36.1518 24.5626 36.1519 24.4606V22.0926H35.3146V24.4606C35.3146 24.9796 35.4559 25.364 35.7386 25.6126C36.0212 25.8616 36.4202 25.986 36.9359 25.986ZM41.4382 25.9006V22.7966H42.5796V22.0926H39.4596V22.7966H40.6009V25.9006H41.4382ZM44.3302 25.9006V24.258H45.8716V25.9006H46.7089V22.0926H45.8716V23.554H44.3302V22.0926H43.4929V25.9006H44.3302ZM49.6272 25.986C49.9222 25.986 50.1856 25.9353 50.4166 25.834C50.6399 25.7382 50.84 25.5954 51.0032 25.4153C51.1661 25.2327 51.2911 25.0198 51.3712 24.7886C51.4581 24.5392 51.5014 24.2767 51.4992 24.0126C51.4992 23.7283 51.4566 23.4643 51.3712 23.2206C51.2912 22.9863 51.1662 22.7698 51.0032 22.5833C50.8409 22.4003 50.6407 22.2547 50.4166 22.1566C50.1856 22.0533 49.9222 22.002 49.6272 22.002C49.3356 22.002 49.0736 22.0536 48.8406 22.1566C48.6154 22.2542 48.4142 22.3998 48.2512 22.5833C48.0882 22.7698 47.9632 22.9863 47.8832 23.2206C47.796 23.4755 47.7528 23.7433 47.7552 24.0126C47.753 24.2767 47.7963 24.5392 47.8832 24.7886C47.9633 25.0198 48.0884 25.2327 48.2512 25.4153C48.4112 25.593 48.6079 25.7326 48.8406 25.834C49.0736 25.9353 49.3356 25.986 49.6272 25.986ZM49.6272 25.2873C49.4389 25.2873 49.2789 25.2506 49.1472 25.178C49.0189 25.108 48.9092 25.0083 48.8272 24.8873C48.7439 24.763 48.6834 24.6248 48.6486 24.4793C48.611 24.3266 48.5922 24.1699 48.5926 24.0126C48.5926 23.8456 48.6112 23.6836 48.6486 23.5273C48.6859 23.3706 48.7452 23.2313 48.8272 23.1086C48.9089 22.986 49.0156 22.8883 49.1472 22.8153C49.2789 22.7423 49.4389 22.706 49.6272 22.706C49.8156 22.706 49.9756 22.7426 50.1072 22.8153C50.2389 22.8883 50.3456 22.986 50.4272 23.1086C50.5089 23.2313 50.5686 23.371 50.6059 23.5273C50.6432 23.684 50.6619 23.8456 50.6619 24.0126C50.6619 24.1726 50.6432 24.3283 50.6059 24.4793C50.5686 24.6303 50.5092 24.7663 50.4272 24.8873C50.3453 25.0083 50.2356 25.108 50.1072 25.178C49.9756 25.251 49.8156 25.2873 49.6272 25.2873ZM53.3832 25.9006V24.4126H54.2206C54.4302 24.4126 54.5812 24.459 54.6739 24.5513C54.7662 24.6436 54.8266 24.7896 54.8552 24.9886C54.8766 25.1416 54.8926 25.3016 54.9032 25.4686C54.9139 25.6356 54.9422 25.7796 54.9886 25.9006H55.8259C55.7844 25.842 55.7545 25.7759 55.7379 25.706C55.7178 25.6262 55.7035 25.5451 55.6952 25.4633C55.6865 25.38 55.6803 25.2964 55.6766 25.2126C55.6729 25.131 55.6692 25.0596 55.6659 24.9993C55.6587 24.9026 55.6453 24.8064 55.6259 24.7113C55.6077 24.6192 55.5763 24.5303 55.5326 24.4473C55.4907 24.3684 55.4347 24.2979 55.3672 24.2393C55.2928 24.1771 55.2053 24.1324 55.1112 24.1086V24.098C55.3246 24.0126 55.4782 23.888 55.5726 23.7246C55.6666 23.5613 55.7139 23.3673 55.7139 23.1433C55.7139 22.9976 55.6879 22.8616 55.6366 22.7353C55.5856 22.61 55.5094 22.4965 55.4126 22.402C55.3114 22.3038 55.1918 22.2267 55.0606 22.1753C54.9135 22.1183 54.7569 22.0903 54.5992 22.0926H52.5459V25.9006H53.3832ZM54.3006 23.8153H53.3832V22.7433H54.3006C54.4926 22.7433 54.6366 22.785 54.7326 22.8686C54.8286 22.952 54.8766 23.0863 54.8766 23.2713C54.8766 23.4633 54.8286 23.602 54.7326 23.6873C54.6366 23.7726 54.4926 23.8153 54.3006 23.8153ZM57.7096 25.9006V22.0926H56.8722V25.9006H57.7096ZM60.6016 25.9006V22.7966H61.7429V22.0926H58.6229V22.7966H59.7642V25.9006H60.6016ZM64.4799 25.9006V24.4393L65.8932 22.0926H64.9599L64.0746 23.5966L63.1839 22.0926H62.2452L63.6426 24.418V25.9006H64.4799Z" fill="#3F3F3F"/>
<path d="M13.1244 11.4961L14.7561 22.6634L16.4101 11.4964L17.5418 11.4991L15.3018 26.6168L12.4571 26.6134L10.3438 12.6454H8.78144V26.6131H5.93211V12.6451H4.23145V11.4961H13.1248H13.1244ZM21.4374 11.4961L23.7354 26.6134H20.8434L20.4278 23.7668H17.9788L17.5551 26.6164H16.4241L18.6624 11.4994L21.4374 11.4961ZM19.2114 15.4484L18.1488 22.6178H20.2588L19.2114 15.4484V15.4484Z" fill="#414141"/>
<mask id="mask0_103_278" style="mask-type:luminance" maskUnits="userSpaceOnUse" x="4" y="11" width="20" height="16">
<path d="M13.1244 11.4961L14.7561 22.6634L16.4101 11.4964L17.5418 11.4991L15.3018 26.6168L12.4571 26.6134L10.3438 12.6454H8.78144V26.6131H5.93211V12.6451H4.23145V11.4961H13.1248H13.1244ZM21.4374 11.4961L23.7354 26.6134H20.8434L20.4278 23.7668H17.9788L17.5551 26.6164H16.4241L18.6624 11.4994L21.4374 11.4961ZM19.2114 15.4484L18.1488 22.6178H20.2588L19.2114 15.4484V15.4484Z" fill="white"/>
</mask>
<g mask="url(#mask0_103_278)">
<path fill-rule="evenodd" clip-rule="evenodd" d="M-49.1665 -45.4326H50.8335V54.5674H-49.1665V-45.4326Z" fill="#414141"/>
</g>
</g>
<defs>
<clipPath id="clip0_103_278">
<rect width="63.3333" height="21.6667" fill="white" transform="translate(3.16699 8.2334)"/>
</clipPath>
</defs>
</svg>
