<svg width="143" height="143" viewBox="0 0 143 143" fill="none" xmlns="http://www.w3.org/2000/svg">
<path d="M70.5254 130.621L1.02539 95.0256V104.335L70.5254 141.026L140.025 104.335V95.0256L70.5254 130.621Z" fill="#0E53BE"/>
<path d="M1.02539 104.669V1.02563H141.025V104.669L70.769 141.026L1.02539 104.669Z" stroke="#212529" stroke-width="2.05128"/>
<path d="M43.0412 34.8256V38.7256H37.8412V53.0256H33.9412V38.7256H28.7412V34.8256H43.0412ZM49.4284 53.3636C48.2324 53.3636 47.1404 53.056 46.1524 52.4406C45.1731 51.8253 44.3888 51.002 43.7994 49.9706C43.2188 48.9306 42.9284 47.7823 42.9284 46.5256C42.9284 45.5723 43.0974 44.684 43.4354 43.8606C43.7734 43.0286 44.2371 42.3006 44.8264 41.6766C45.4244 41.044 46.1178 40.55 46.9064 40.1946C47.6951 39.8393 48.5358 39.6616 49.4284 39.6616C50.6244 39.6616 51.7121 39.9693 52.6914 40.5846C53.6794 41.2 54.4638 42.0276 55.0444 43.0676C55.6338 44.1076 55.9284 45.2603 55.9284 46.5256C55.9284 47.4703 55.7594 48.3543 55.4214 49.1776C55.0834 50.001 54.6154 50.729 54.0174 51.3616C53.4281 51.9856 52.7391 52.4753 51.9504 52.8306C51.1704 53.186 50.3298 53.3636 49.4284 53.3636ZM49.4284 49.4636C49.9224 49.4636 50.3644 49.3293 50.7544 49.0606C51.1531 48.792 51.4651 48.4366 51.6904 47.9946C51.9158 47.544 52.0284 47.0543 52.0284 46.5256C52.0284 45.9796 51.9071 45.4813 51.6644 45.0306C51.4304 44.58 51.1141 44.2246 50.7154 43.9646C50.3254 43.696 49.8964 43.5616 49.4284 43.5616C48.9431 43.5616 48.5011 43.7003 48.1024 43.9776C47.7124 44.2463 47.4004 44.606 47.1664 45.0566C46.9411 45.5073 46.8284 45.997 46.8284 46.5256C46.8284 47.0803 46.9454 47.5786 47.1794 48.0206C47.4221 48.4626 47.7384 48.8136 48.1284 49.0736C48.5271 49.3336 48.9604 49.4636 49.4284 49.4636ZM61.7764 59.5256H57.8764V40.0256H61.7764V41.2476C62.1837 40.7883 62.6561 40.4156 63.1934 40.1296C63.7307 39.835 64.3504 39.6876 65.0524 39.6876C66.0057 39.6876 66.8941 39.8653 67.7174 40.2206C68.5407 40.576 69.2644 41.07 69.8884 41.7026C70.5211 42.3266 71.0107 43.0503 71.3574 43.8736C71.7127 44.697 71.8904 45.581 71.8904 46.5256C71.8904 47.4703 71.7127 48.3586 71.3574 49.1906C71.0107 50.0226 70.5211 50.755 69.8884 51.3876C69.2644 52.0116 68.5407 52.5013 67.7174 52.8566C66.8941 53.212 66.0057 53.3896 65.0524 53.3896C64.3504 53.3896 63.7307 53.2423 63.1934 52.9476C62.6561 52.653 62.1837 52.2803 61.7764 51.8296V59.5256ZM65.0004 43.4316C64.4717 43.4316 63.9864 43.5746 63.5444 43.8606C63.1111 44.138 62.7644 44.5106 62.5044 44.9786C62.2444 45.4466 62.1144 45.9623 62.1144 46.5256C62.1144 47.0976 62.2444 47.6176 62.5044 48.0856C62.7644 48.5536 63.1111 48.9263 63.5444 49.2036C63.9864 49.481 64.4717 49.6196 65.0004 49.6196C65.5377 49.6196 66.0274 49.481 66.4694 49.2036C66.9114 48.9263 67.2624 48.5536 67.5224 48.0856C67.7824 47.6176 67.9124 47.0976 67.9124 46.5256C67.9124 45.9623 67.7824 45.4466 67.5224 44.9786C67.2624 44.5106 66.9114 44.138 66.4694 43.8606C66.0274 43.5746 65.5377 43.4316 65.0004 43.4316ZM86.2201 53.3636C85.0154 53.3636 83.9277 53.0733 82.9571 52.4926C81.9951 51.9033 81.2324 51.1276 80.6691 50.1656C80.1057 49.195 79.8241 48.1376 79.8241 46.9936H83.7241C83.7241 47.453 83.8367 47.869 84.0621 48.2416C84.2874 48.6143 84.5864 48.9133 84.9591 49.1386C85.3404 49.3553 85.7607 49.4636 86.2201 49.4636C86.6707 49.4636 87.0824 49.3553 87.4551 49.1386C87.8277 48.9133 88.1267 48.6143 88.3521 48.2416C88.5774 47.869 88.6901 47.453 88.6901 46.9936C88.6901 46.5343 88.5991 46.114 88.4171 45.7326C88.2437 45.3426 87.9231 45.0306 87.4551 44.7966C86.9957 44.5626 86.3327 44.4456 85.4661 44.4456H80.6561L82.6841 34.8256H91.8621V38.7256H85.8561L85.4661 40.5456L86.2981 40.5716C87.5287 40.6236 88.6164 40.94 89.5611 41.5206C90.5057 42.1013 91.2467 42.8683 91.7841 43.8216C92.3214 44.775 92.5901 45.8323 92.5901 46.9936C92.5901 47.8603 92.4254 48.6793 92.0961 49.4506C91.7667 50.222 91.3117 50.9023 90.7311 51.4916C90.1504 52.0723 89.4744 52.5316 88.7031 52.8696C87.9317 53.199 87.1041 53.3636 86.2201 53.3636ZM97.2424 53.0256L107.746 34.8256H112.244L101.74 53.0256H97.2424ZM99.5304 43.1456C98.7418 43.1456 98.0181 42.955 97.3594 42.5736C96.7008 42.1923 96.1721 41.6766 95.7734 41.0266C95.3834 40.368 95.1884 39.6356 95.1884 38.8296C95.1884 37.9976 95.3878 37.2566 95.7864 36.6066C96.1938 35.9566 96.7268 35.4453 97.3854 35.0726C98.0441 34.7 98.7591 34.5136 99.5304 34.5136C100.319 34.5136 101.038 34.7043 101.688 35.0856C102.347 35.467 102.871 35.987 103.261 36.6456C103.651 37.2956 103.846 38.0236 103.846 38.8296C103.846 39.653 103.643 40.3896 103.235 41.0396C102.837 41.6896 102.308 42.2053 101.649 42.5866C100.999 42.9593 100.293 43.1456 99.5304 43.1456ZM99.5304 40.5456C99.9984 40.5456 100.401 40.381 100.739 40.0516C101.077 39.7136 101.246 39.3063 101.246 38.8296C101.246 38.3443 101.077 37.937 100.739 37.6076C100.401 37.2783 99.9984 37.1136 99.5304 37.1136C99.0538 37.1136 98.6421 37.2783 98.2954 37.6076C97.9574 37.937 97.7884 38.3443 97.7884 38.8296C97.7884 39.3063 97.9574 39.7136 98.2954 40.0516C98.6421 40.381 99.0538 40.5456 99.5304 40.5456ZM109.956 53.3636C109.15 53.3636 108.418 53.1643 107.759 52.7656C107.109 52.3583 106.594 51.8253 106.212 51.1666C105.831 50.508 105.64 49.8016 105.64 49.0476C105.64 48.2243 105.84 47.4876 106.238 46.8376C106.646 46.179 107.174 45.659 107.824 45.2776C108.483 44.8963 109.194 44.7056 109.956 44.7056C110.788 44.7056 111.529 44.9093 112.179 45.3166C112.838 45.724 113.354 46.257 113.726 46.9156C114.108 47.5743 114.298 48.285 114.298 49.0476C114.298 49.8363 114.103 50.56 113.713 51.2186C113.323 51.8686 112.799 52.3886 112.14 52.7786C111.482 53.1686 110.754 53.3636 109.956 53.3636ZM109.956 50.7636C110.442 50.7636 110.853 50.5946 111.191 50.2566C111.529 49.9186 111.698 49.5156 111.698 49.0476C111.698 48.5623 111.529 48.1506 111.191 47.8126C110.853 47.4746 110.442 47.3056 109.956 47.3056C109.488 47.3056 109.085 47.4746 108.747 47.8126C108.409 48.1506 108.24 48.5623 108.24 49.0476C108.24 49.5156 108.409 49.9186 108.747 50.2566C109.085 50.5946 109.488 50.7636 109.956 50.7636Z" fill="#0E1011"/>
<path d="M27.8577 77.0256L23.7937 65.8256H25.2177L28.6897 75.3856L32.1697 65.8256H33.5857L29.5217 77.0256H27.8577ZM37.5913 77.2336C36.8553 77.2336 36.1833 77.0443 35.5753 76.6656C34.9727 76.287 34.49 75.7803 34.1273 75.1456C33.77 74.5056 33.5913 73.799 33.5913 73.0256C33.5913 72.439 33.6953 71.8923 33.9033 71.3856C34.1113 70.8736 34.3967 70.4256 34.7593 70.0416C35.1273 69.6523 35.554 69.3483 36.0393 69.1296C36.5247 68.911 37.042 68.8016 37.5913 68.8016C38.194 68.8016 38.746 68.9243 39.2473 69.1696C39.754 69.4096 40.186 69.7456 40.5433 70.1776C40.906 70.6096 41.1753 71.111 41.3513 71.6816C41.5327 72.2523 41.5993 72.863 41.5513 73.5136H35.0233C35.0873 73.967 35.2367 74.3723 35.4713 74.7296C35.706 75.0816 36.0047 75.3616 36.3673 75.5696C36.7353 75.7776 37.1433 75.8843 37.5913 75.8896C38.0713 75.8896 38.506 75.767 38.8953 75.5216C39.2847 75.271 39.5993 74.9296 39.8393 74.4976L41.2073 74.8176C40.8873 75.527 40.4047 76.1083 39.7593 76.5616C39.114 77.0096 38.3913 77.2336 37.5913 77.2336ZM34.9833 72.4576H40.1993C40.1567 72.0096 40.0127 71.6016 39.7673 71.2336C39.522 70.8603 39.21 70.5616 38.8313 70.3376C38.4527 70.1136 38.0393 70.0016 37.5913 70.0016C37.1433 70.0016 36.7327 70.111 36.3593 70.3296C35.986 70.5483 35.6767 70.8443 35.4313 71.2176C35.1913 71.5856 35.042 71.999 34.9833 72.4576ZM46.9497 70.3696H45.1337L45.1257 77.0256H43.7817L43.7897 70.3696H42.4137V69.0256H43.7897L43.7817 66.5136H45.1257L45.1337 69.0256H46.9497V70.3696ZM52.5278 70.3696H50.7118L50.7038 77.0256H49.3598L49.3678 70.3696H47.9918V69.0256H49.3678L49.3598 66.5136H50.7038L50.7118 69.0256H52.5278V70.3696ZM57.2788 77.2336C56.5428 77.2336 55.8708 77.0443 55.2628 76.6656C54.6602 76.287 54.1775 75.7803 53.8148 75.1456C53.4575 74.5056 53.2788 73.799 53.2788 73.0256C53.2788 72.439 53.3828 71.8923 53.5908 71.3856C53.7988 70.8736 54.0842 70.4256 54.4468 70.0416C54.8148 69.6523 55.2415 69.3483 55.7268 69.1296C56.2122 68.911 56.7295 68.8016 57.2788 68.8016C57.8815 68.8016 58.4335 68.9243 58.9348 69.1696C59.4415 69.4096 59.8735 69.7456 60.2308 70.1776C60.5935 70.6096 60.8628 71.111 61.0388 71.6816C61.2202 72.2523 61.2868 72.863 61.2388 73.5136H54.7108C54.7748 73.967 54.9242 74.3723 55.1588 74.7296C55.3935 75.0816 55.6922 75.3616 56.0548 75.5696C56.4228 75.7776 56.8308 75.8843 57.2788 75.8896C57.7588 75.8896 58.1935 75.767 58.5828 75.5216C58.9722 75.271 59.2868 74.9296 59.5268 74.4976L60.8948 74.8176C60.5748 75.527 60.0922 76.1083 59.4468 76.5616C58.8015 77.0096 58.0788 77.2336 57.2788 77.2336ZM54.6708 72.4576H59.8868C59.8442 72.0096 59.7002 71.6016 59.4548 71.2336C59.2095 70.8603 58.8975 70.5616 58.5188 70.3376C58.1402 70.1136 57.7268 70.0016 57.2788 70.0016C56.8308 70.0016 56.4202 70.111 56.0468 70.3296C55.6735 70.5483 55.3642 70.8443 55.1188 71.2176C54.8788 71.5856 54.7295 71.999 54.6708 72.4576ZM68.9801 65.0256H70.3241V77.0256H68.9801V75.6656C68.7081 76.135 68.3427 76.5136 67.8841 76.8016C67.4254 77.0896 66.8867 77.2336 66.2681 77.2336C65.6867 77.2336 65.1427 77.1243 64.6361 76.9056C64.1294 76.687 63.6814 76.3856 63.2921 76.0016C62.9081 75.6123 62.6067 75.1643 62.3881 74.6576C62.1694 74.151 62.0601 73.607 62.0601 73.0256C62.0601 72.4443 62.1694 71.9003 62.3881 71.3936C62.6067 70.8816 62.9081 70.4336 63.2921 70.0496C63.6814 69.6603 64.1294 69.3563 64.6361 69.1376C65.1427 68.919 65.6867 68.8096 66.2681 68.8096C66.8867 68.8096 67.4254 68.9536 67.8841 69.2416C68.3427 69.5296 68.7081 69.9083 68.9801 70.3776V65.0256ZM66.2841 75.9296C66.8121 75.9296 67.2681 75.8016 67.6521 75.5456C68.0414 75.2843 68.3401 74.9323 68.5481 74.4896C68.7614 74.047 68.8681 73.559 68.8681 73.0256C68.8681 72.4816 68.7614 71.991 68.5481 71.5536C68.3347 71.111 68.0334 70.7616 67.6441 70.5056C67.2601 70.2443 66.8067 70.1136 66.2841 70.1136C65.7561 70.1136 65.2761 70.2443 64.8441 70.5056C64.4174 70.767 64.0761 71.119 63.8201 71.5616C63.5641 71.999 63.4361 72.487 63.4361 73.0256C63.4361 73.5643 63.5667 74.055 63.8281 74.4976C64.0894 74.935 64.4361 75.2843 64.8681 75.5456C65.3001 75.8016 65.7721 75.9296 66.2841 75.9296ZM84.559 65.8256V67.1696H80.831V77.0256H79.487V67.1696H75.767V65.8256H84.559ZM91.3627 69.0256H92.7067V77.0256H91.3627L91.3067 75.6736C91.056 76.1376 90.7094 76.5136 90.2667 76.8016C89.8294 77.0896 89.3067 77.2336 88.6987 77.2336C88.112 77.2336 87.5627 77.1243 87.0507 76.9056C86.5387 76.6816 86.0854 76.375 85.6907 75.9856C85.3014 75.591 84.9974 75.1376 84.7787 74.6256C84.56 74.1136 84.4507 73.5616 84.4507 72.9696C84.4507 72.399 84.5574 71.8603 84.7707 71.3536C84.984 70.847 85.28 70.4043 85.6587 70.0256C86.0427 69.6416 86.4854 69.343 86.9867 69.1296C87.488 68.911 88.0267 68.8016 88.6027 68.8016C89.232 68.8016 89.784 68.951 90.2587 69.2496C90.7334 69.543 91.1174 69.9243 91.4107 70.3936L91.3627 69.0256ZM88.6747 75.9296C89.2027 75.9296 89.6587 75.8016 90.0427 75.5456C90.432 75.2843 90.7307 74.9323 90.9387 74.4896C91.152 74.047 91.2587 73.559 91.2587 73.0256C91.2587 72.4816 91.152 71.991 90.9387 71.5536C90.7254 71.111 90.424 70.7616 90.0347 70.5056C89.6507 70.2443 89.1974 70.1136 88.6747 70.1136C88.1467 70.1136 87.6667 70.2443 87.2347 70.5056C86.8027 70.767 86.4587 71.119 86.2027 71.5616C85.952 71.999 85.8267 72.487 85.8267 73.0256C85.8267 73.5643 85.9574 74.055 86.2187 74.4976C86.48 74.935 86.8267 75.2843 87.2587 75.5456C87.6907 75.8016 88.1627 75.9296 88.6747 75.9296ZM94.3995 77.0256V65.0256H95.7435V77.0256H94.3995ZM101.107 77.2336C100.371 77.2336 99.699 77.0443 99.091 76.6656C98.4883 76.287 98.0056 75.7803 97.643 75.1456C97.2856 74.5056 97.107 73.799 97.107 73.0256C97.107 72.439 97.211 71.8923 97.419 71.3856C97.627 70.8736 97.9123 70.4256 98.275 70.0416C98.643 69.6523 99.0696 69.3483 99.555 69.1296C100.04 68.911 100.558 68.8016 101.107 68.8016C101.71 68.8016 102.262 68.9243 102.763 69.1696C103.27 69.4096 103.702 69.7456 104.059 70.1776C104.422 70.6096 104.691 71.111 104.867 71.6816C105.048 72.2523 105.115 72.863 105.067 73.5136H98.539C98.603 73.967 98.7523 74.3723 98.987 74.7296C99.2216 75.0816 99.5203 75.3616 99.883 75.5696C100.251 75.7776 100.659 75.8843 101.107 75.8896C101.587 75.8896 102.022 75.767 102.411 75.5216C102.8 75.271 103.115 74.9296 103.355 74.4976L104.723 74.8176C104.403 75.527 103.92 76.1083 103.275 76.5616C102.63 77.0096 101.907 77.2336 101.107 77.2336ZM98.499 72.4576H103.715C103.672 72.0096 103.528 71.6016 103.283 71.2336C103.038 70.8603 102.726 70.5616 102.347 70.3376C101.968 70.1136 101.555 70.0016 101.107 70.0016C100.659 70.0016 100.248 70.111 99.875 70.3296C99.5016 70.5483 99.1923 70.8443 98.947 71.2176C98.707 71.5856 98.5576 71.999 98.499 72.4576ZM113.487 72.0496V77.0256H112.143V72.3456C112.143 71.9403 112.044 71.5723 111.847 71.2416C111.65 70.911 111.386 70.6496 111.055 70.4576C110.724 70.2603 110.356 70.1616 109.951 70.1616C109.551 70.1616 109.183 70.2603 108.847 70.4576C108.516 70.6496 108.252 70.911 108.055 71.2416C107.858 71.5723 107.759 71.9403 107.759 72.3456V77.0256H106.415V69.0256H107.759V70.0256C108.042 69.6523 108.399 69.3563 108.831 69.1376C109.263 68.9136 109.732 68.8016 110.239 68.8016C110.836 68.8016 111.38 68.9483 111.871 69.2416C112.367 69.5296 112.759 69.919 113.047 70.4096C113.34 70.9003 113.487 71.447 113.487 72.0496ZM119.231 70.3696H117.415L117.407 77.0256H116.063L116.071 70.3696H114.695V69.0256H116.071L116.063 66.5136H117.407L117.415 69.0256H119.231V70.3696Z" fill="#0E1011"/>
</svg>
