<svg width="143" height="144" viewBox="0 0 143 144" fill="none" xmlns="http://www.w3.org/2000/svg">
<path d="M1.5 105.143V1.5H141.5V105.143L71.2436 141.5L1.5 105.143Z" fill="#0E53BE" stroke="white" stroke-width="3"/>
<path d="M71 131.095L1.5 95.5V104.81L71 141.5L140.5 104.81V95.5L71 131.095Z" fill="white"/>
<path d="M46.5158 35.3V39.2H41.3158V53.5H37.4158V39.2H32.2158V35.3H46.5158ZM52.903 53.838C51.707 53.838 50.615 53.5303 49.627 52.915C48.6477 52.2997 47.8634 51.4763 47.274 50.445C46.6934 49.405 46.403 48.2567 46.403 47C46.403 46.0467 46.572 45.1583 46.91 44.335C47.248 43.503 47.7117 42.775 48.301 42.151C48.899 41.5183 49.5924 41.0243 50.381 40.669C51.1697 40.3137 52.0104 40.136 52.903 40.136C54.099 40.136 55.1867 40.4437 56.166 41.059C57.154 41.6743 57.9384 42.502 58.519 43.542C59.1084 44.582 59.403 45.7347 59.403 47C59.403 47.9447 59.234 48.8287 58.896 49.652C58.558 50.4753 58.09 51.2033 57.492 51.836C56.9027 52.46 56.2137 52.9497 55.425 53.305C54.645 53.6603 53.8044 53.838 52.903 53.838ZM52.903 49.938C53.397 49.938 53.839 49.8037 54.229 49.535C54.6277 49.2663 54.9397 48.911 55.165 48.469C55.3904 48.0183 55.503 47.5287 55.503 47C55.503 46.454 55.3817 45.9557 55.139 45.505C54.905 45.0543 54.5887 44.699 54.19 44.439C53.8 44.1703 53.371 44.036 52.903 44.036C52.4177 44.036 51.9757 44.1747 51.577 44.452C51.187 44.7207 50.875 45.0803 50.641 45.531C50.4157 45.9817 50.303 46.4713 50.303 47C50.303 47.5547 50.42 48.053 50.654 48.495C50.8967 48.937 51.213 49.288 51.603 49.548C52.0017 49.808 52.435 49.938 52.903 49.938ZM65.251 60H61.351V40.5H65.251V41.722C65.6583 41.2627 66.1307 40.89 66.668 40.604C67.2053 40.3093 67.825 40.162 68.527 40.162C69.4803 40.162 70.3687 40.3397 71.192 40.695C72.0153 41.0503 72.739 41.5443 73.363 42.177C73.9957 42.801 74.4854 43.5247 74.832 44.348C75.1873 45.1713 75.365 46.0553 75.365 47C75.365 47.9447 75.1873 48.833 74.832 49.665C74.4854 50.497 73.9957 51.2293 73.363 51.862C72.739 52.486 72.0153 52.9757 71.192 53.331C70.3687 53.6863 69.4803 53.864 68.527 53.864C67.825 53.864 67.2053 53.7167 66.668 53.422C66.1307 53.1273 65.6583 52.7547 65.251 52.304V60ZM68.475 43.906C67.9463 43.906 67.461 44.049 67.019 44.335C66.5857 44.6123 66.239 44.985 65.979 45.453C65.719 45.921 65.589 46.4367 65.589 47C65.589 47.572 65.719 48.092 65.979 48.56C66.239 49.028 66.5857 49.4007 67.019 49.678C67.461 49.9553 67.9463 50.094 68.475 50.094C69.0123 50.094 69.502 49.9553 69.944 49.678C70.386 49.4007 70.737 49.028 70.997 48.56C71.257 48.092 71.387 47.572 71.387 47C71.387 46.4367 71.257 45.921 70.997 45.453C70.737 44.985 70.386 44.6123 69.944 44.335C69.502 44.049 69.0123 43.906 68.475 43.906ZM89.6947 53.838C88.49 53.838 87.4023 53.5477 86.4317 52.967C85.4697 52.3777 84.707 51.602 84.1437 50.64C83.5803 49.6693 83.2987 48.612 83.2987 47.468H87.1987C87.1987 47.9273 87.3113 48.3433 87.5367 48.716C87.762 49.0887 88.061 49.3877 88.4337 49.613C88.815 49.8297 89.2353 49.938 89.6947 49.938C90.1453 49.938 90.557 49.8297 90.9297 49.613C91.3023 49.3877 91.6013 49.0887 91.8267 48.716C92.052 48.3433 92.1647 47.9273 92.1647 47.468C92.1647 47.0087 92.0737 46.5883 91.8917 46.207C91.7183 45.817 91.3977 45.505 90.9297 45.271C90.4703 45.037 89.8073 44.92 88.9407 44.92H84.1307L86.1587 35.3H95.3367V39.2H89.3307L88.9407 41.02L89.7727 41.046C91.0033 41.098 92.091 41.4143 93.0357 41.995C93.9803 42.5757 94.7213 43.3427 95.2587 44.296C95.796 45.2493 96.0647 46.3067 96.0647 47.468C96.0647 48.3347 95.9 49.1537 95.5707 49.925C95.2413 50.6963 94.7863 51.3767 94.2057 51.966C93.625 52.5467 92.949 53.006 92.1777 53.344C91.4063 53.6733 90.5787 53.838 89.6947 53.838ZM100.717 53.5L111.221 35.3H115.719L105.215 53.5H100.717ZM103.005 43.62C102.216 43.62 101.493 43.4293 100.834 43.048C100.175 42.6667 99.6467 42.151 99.248 41.501C98.858 40.8423 98.663 40.11 98.663 39.304C98.663 38.472 98.8624 37.731 99.261 37.081C99.6684 36.431 100.201 35.9197 100.86 35.547C101.519 35.1743 102.234 34.988 103.005 34.988C103.794 34.988 104.513 35.1787 105.163 35.56C105.822 35.9413 106.346 36.4613 106.736 37.12C107.126 37.77 107.321 38.498 107.321 39.304C107.321 40.1273 107.117 40.864 106.71 41.514C106.311 42.164 105.783 42.6797 105.124 43.061C104.474 43.4337 103.768 43.62 103.005 43.62ZM103.005 41.02C103.473 41.02 103.876 40.8553 104.214 40.526C104.552 40.188 104.721 39.7807 104.721 39.304C104.721 38.8187 104.552 38.4113 104.214 38.082C103.876 37.7527 103.473 37.588 103.005 37.588C102.528 37.588 102.117 37.7527 101.77 38.082C101.432 38.4113 101.263 38.8187 101.263 39.304C101.263 39.7807 101.432 40.188 101.77 40.526C102.117 40.8553 102.528 41.02 103.005 41.02ZM113.431 53.838C112.625 53.838 111.893 53.6387 111.234 53.24C110.584 52.8327 110.068 52.2997 109.687 51.641C109.306 50.9823 109.115 50.276 109.115 49.522C109.115 48.6987 109.314 47.962 109.713 47.312C110.12 46.6533 110.649 46.1333 111.299 45.752C111.958 45.3707 112.668 45.18 113.431 45.18C114.263 45.18 115.004 45.3837 115.654 45.791C116.313 46.1983 116.828 46.7313 117.201 47.39C117.582 48.0487 117.773 48.7593 117.773 49.522C117.773 50.3107 117.578 51.0343 117.188 51.693C116.798 52.343 116.274 52.863 115.615 53.253C114.956 53.643 114.228 53.838 113.431 53.838ZM113.431 51.238C113.916 51.238 114.328 51.069 114.666 50.731C115.004 50.393 115.173 49.99 115.173 49.522C115.173 49.0367 115.004 48.625 114.666 48.287C114.328 47.949 113.916 47.78 113.431 47.78C112.963 47.78 112.56 47.949 112.222 48.287C111.884 48.625 111.715 49.0367 111.715 49.522C111.715 49.99 111.884 50.393 112.222 50.731C112.56 51.069 112.963 51.238 113.431 51.238Z" fill="white"/>
<path d="M31.3323 77.5L27.2683 66.3H28.6923L32.1643 75.86L35.6443 66.3H37.0603L32.9963 77.5H31.3323ZM41.0659 77.708C40.3299 77.708 39.6579 77.5187 39.0499 77.14C38.4473 76.7613 37.9646 76.2547 37.6019 75.62C37.2446 74.98 37.0659 74.2733 37.0659 73.5C37.0659 72.9133 37.1699 72.3667 37.3779 71.86C37.5859 71.348 37.8713 70.9 38.2339 70.516C38.6019 70.1267 39.0286 69.8227 39.5139 69.604C39.9993 69.3853 40.5166 69.276 41.0659 69.276C41.6686 69.276 42.2206 69.3987 42.7219 69.644C43.2286 69.884 43.6606 70.22 44.0179 70.652C44.3806 71.084 44.6499 71.5853 44.8259 72.156C45.0073 72.7267 45.0739 73.3373 45.0259 73.988H38.4979C38.5619 74.4413 38.7113 74.8467 38.9459 75.204C39.1806 75.556 39.4793 75.836 39.8419 76.044C40.2099 76.252 40.6179 76.3587 41.0659 76.364C41.5459 76.364 41.9806 76.2413 42.3699 75.996C42.7593 75.7453 43.0739 75.404 43.3139 74.972L44.6819 75.292C44.3619 76.0013 43.8793 76.5827 43.2339 77.036C42.5886 77.484 41.8659 77.708 41.0659 77.708ZM38.4579 72.932H43.6739C43.6313 72.484 43.4873 72.076 43.2419 71.708C42.9966 71.3347 42.6846 71.036 42.3059 70.812C41.9273 70.588 41.5139 70.476 41.0659 70.476C40.6179 70.476 40.2073 70.5853 39.8339 70.804C39.4606 71.0227 39.1513 71.3187 38.9059 71.692C38.6659 72.06 38.5166 72.4733 38.4579 72.932ZM50.4243 70.844H48.6083L48.6003 77.5H47.2563L47.2643 70.844H45.8883V69.5H47.2643L47.2563 66.988H48.6003L48.6083 69.5H50.4243V70.844ZM56.0024 70.844H54.1864L54.1784 77.5H52.8344L52.8424 70.844H51.4664V69.5H52.8424L52.8344 66.988H54.1784L54.1864 69.5H56.0024V70.844ZM60.7534 77.708C60.0174 77.708 59.3454 77.5187 58.7374 77.14C58.1348 76.7613 57.6521 76.2547 57.2894 75.62C56.9321 74.98 56.7534 74.2733 56.7534 73.5C56.7534 72.9133 56.8574 72.3667 57.0654 71.86C57.2734 71.348 57.5588 70.9 57.9214 70.516C58.2894 70.1267 58.7161 69.8227 59.2014 69.604C59.6868 69.3853 60.2041 69.276 60.7534 69.276C61.3561 69.276 61.9081 69.3987 62.4094 69.644C62.9161 69.884 63.3481 70.22 63.7054 70.652C64.0681 71.084 64.3374 71.5853 64.5134 72.156C64.6948 72.7267 64.7614 73.3373 64.7134 73.988H58.1854C58.2494 74.4413 58.3988 74.8467 58.6334 75.204C58.8681 75.556 59.1668 75.836 59.5294 76.044C59.8974 76.252 60.3054 76.3587 60.7534 76.364C61.2334 76.364 61.6681 76.2413 62.0574 75.996C62.4468 75.7453 62.7614 75.404 63.0014 74.972L64.3694 75.292C64.0494 76.0013 63.5668 76.5827 62.9214 77.036C62.2761 77.484 61.5534 77.708 60.7534 77.708ZM58.1454 72.932H63.3614C63.3188 72.484 63.1748 72.076 62.9294 71.708C62.6841 71.3347 62.3721 71.036 61.9934 70.812C61.6148 70.588 61.2014 70.476 60.7534 70.476C60.3054 70.476 59.8948 70.5853 59.5214 70.804C59.1481 71.0227 58.8388 71.3187 58.5934 71.692C58.3534 72.06 58.2041 72.4733 58.1454 72.932ZM72.4547 65.5H73.7987V77.5H72.4547V76.14C72.1827 76.6093 71.8174 76.988 71.3587 77.276C70.9 77.564 70.3614 77.708 69.7427 77.708C69.1614 77.708 68.6174 77.5987 68.1107 77.38C67.604 77.1613 67.156 76.86 66.7667 76.476C66.3827 76.0867 66.0814 75.6387 65.8627 75.132C65.644 74.6253 65.5347 74.0813 65.5347 73.5C65.5347 72.9187 65.644 72.3747 65.8627 71.868C66.0814 71.356 66.3827 70.908 66.7667 70.524C67.156 70.1347 67.604 69.8307 68.1107 69.612C68.6174 69.3933 69.1614 69.284 69.7427 69.284C70.3614 69.284 70.9 69.428 71.3587 69.716C71.8174 70.004 72.1827 70.3827 72.4547 70.852V65.5ZM69.7587 76.404C70.2867 76.404 70.7427 76.276 71.1267 76.02C71.516 75.7587 71.8147 75.4067 72.0227 74.964C72.236 74.5213 72.3427 74.0333 72.3427 73.5C72.3427 72.956 72.236 72.4653 72.0227 72.028C71.8094 71.5853 71.508 71.236 71.1187 70.98C70.7347 70.7187 70.2814 70.588 69.7587 70.588C69.2307 70.588 68.7507 70.7187 68.3187 70.98C67.892 71.2413 67.5507 71.5933 67.2947 72.036C67.0387 72.4733 66.9107 72.9613 66.9107 73.5C66.9107 74.0387 67.0414 74.5293 67.3027 74.972C67.564 75.4093 67.9107 75.7587 68.3427 76.02C68.7747 76.276 69.2467 76.404 69.7587 76.404ZM88.0336 66.3V67.644H84.3056V77.5H82.9616V67.644H79.2416V66.3H88.0336ZM94.8373 69.5H96.1813V77.5H94.8373L94.7813 76.148C94.5306 76.612 94.184 76.988 93.7413 77.276C93.304 77.564 92.7813 77.708 92.1733 77.708C91.5866 77.708 91.0373 77.5987 90.5253 77.38C90.0133 77.156 89.56 76.8493 89.1653 76.46C88.776 76.0653 88.472 75.612 88.2533 75.1C88.0346 74.588 87.9253 74.036 87.9253 73.444C87.9253 72.8733 88.032 72.3347 88.2453 71.828C88.4586 71.3213 88.7546 70.8787 89.1333 70.5C89.5173 70.116 89.96 69.8173 90.4613 69.604C90.9626 69.3853 91.5013 69.276 92.0773 69.276C92.7066 69.276 93.2586 69.4253 93.7333 69.724C94.208 70.0173 94.592 70.3987 94.8853 70.868L94.8373 69.5ZM92.1493 76.404C92.6773 76.404 93.1333 76.276 93.5173 76.02C93.9066 75.7587 94.2053 75.4067 94.4133 74.964C94.6266 74.5213 94.7333 74.0333 94.7333 73.5C94.7333 72.956 94.6266 72.4653 94.4133 72.028C94.2 71.5853 93.8986 71.236 93.5093 70.98C93.1253 70.7187 92.672 70.588 92.1493 70.588C91.6213 70.588 91.1413 70.7187 90.7093 70.98C90.2773 71.2413 89.9333 71.5933 89.6773 72.036C89.4266 72.4733 89.3013 72.9613 89.3013 73.5C89.3013 74.0387 89.432 74.5293 89.6933 74.972C89.9546 75.4093 90.3013 75.7587 90.7333 76.02C91.1653 76.276 91.6373 76.404 92.1493 76.404ZM97.8741 77.5V65.5H99.2181V77.5H97.8741ZM104.582 77.708C103.846 77.708 103.174 77.5187 102.566 77.14C101.963 76.7613 101.48 76.2547 101.118 75.62C100.76 74.98 100.582 74.2733 100.582 73.5C100.582 72.9133 100.686 72.3667 100.894 71.86C101.102 71.348 101.387 70.9 101.75 70.516C102.118 70.1267 102.544 69.8227 103.03 69.604C103.515 69.3853 104.032 69.276 104.582 69.276C105.184 69.276 105.736 69.3987 106.238 69.644C106.744 69.884 107.176 70.22 107.534 70.652C107.896 71.084 108.166 71.5853 108.342 72.156C108.523 72.7267 108.59 73.3373 108.542 73.988H102.014C102.078 74.4413 102.227 74.8467 102.462 75.204C102.696 75.556 102.995 75.836 103.358 76.044C103.726 76.252 104.134 76.3587 104.582 76.364C105.062 76.364 105.496 76.2413 105.886 75.996C106.275 75.7453 106.59 75.404 106.83 74.972L108.198 75.292C107.878 76.0013 107.395 76.5827 106.75 77.036C106.104 77.484 105.382 77.708 104.582 77.708ZM101.974 72.932H107.19C107.147 72.484 107.003 72.076 106.758 71.708C106.512 71.3347 106.2 71.036 105.822 70.812C105.443 70.588 105.03 70.476 104.582 70.476C104.134 70.476 103.723 70.5853 103.35 70.804C102.976 71.0227 102.667 71.3187 102.422 71.692C102.182 72.06 102.032 72.4733 101.974 72.932ZM116.962 72.524V77.5H115.618V72.82C115.618 72.4147 115.519 72.0467 115.322 71.716C115.124 71.3853 114.86 71.124 114.53 70.932C114.199 70.7347 113.831 70.636 113.426 70.636C113.026 70.636 112.658 70.7347 112.322 70.932C111.991 71.124 111.727 71.3853 111.53 71.716C111.332 72.0467 111.234 72.4147 111.234 72.82V77.5H109.89V69.5H111.234V70.5C111.516 70.1267 111.874 69.8307 112.306 69.612C112.738 69.388 113.207 69.276 113.714 69.276C114.311 69.276 114.855 69.4227 115.346 69.716C115.842 70.004 116.234 70.3933 116.522 70.884C116.815 71.3747 116.962 71.9213 116.962 72.524ZM122.706 70.844H120.89L120.882 77.5H119.538L119.546 70.844H118.17V69.5H119.546L119.538 66.988H120.882L120.89 69.5H122.706V70.844Z" fill="white"/>
</svg>
