<svg width="143" height="143" viewBox="0 0 143 143" fill="none" xmlns="http://www.w3.org/2000/svg">
<path d="M70.5256 130.621L1.02564 95.0259V104.335L70.5256 141.026L140.026 104.335V95.0259L70.5256 130.621Z" fill="#F97316"/>
<path d="M1.02564 104.669V1.02588H141.026V104.669L70.7692 141.026L1.02564 104.669Z" stroke="#1E3A8A" stroke-width="2.05128"/>
<path d="M43.0414 34.8259V38.7259H37.8414V53.0259H33.9414V38.7259H28.7414V34.8259H43.0414ZM49.4287 53.3639C48.2327 53.3639 47.1407 53.0562 46.1527 52.4409C45.1734 51.8255 44.389 51.0022 43.7997 49.9709C43.219 48.9309 42.9287 47.7825 42.9287 46.5259C42.9287 45.5725 43.0977 44.6842 43.4357 43.8609C43.7737 43.0289 44.2374 42.3009 44.8267 41.6769C45.4247 41.0442 46.118 40.5502 46.9067 40.1949C47.6954 39.8395 48.536 39.6619 49.4287 39.6619C50.6247 39.6619 51.7124 39.9695 52.6917 40.5849C53.6797 41.2002 54.464 42.0279 55.0447 43.0679C55.634 44.1079 55.9287 45.2605 55.9287 46.5259C55.9287 47.4705 55.7597 48.3545 55.4217 49.1779C55.0837 50.0012 54.6157 50.7292 54.0177 51.3619C53.4284 51.9859 52.7394 52.4755 51.9507 52.8309C51.1707 53.1862 50.33 53.3639 49.4287 53.3639ZM49.4287 49.4639C49.9227 49.4639 50.3647 49.3295 50.7547 49.0609C51.1534 48.7922 51.4654 48.4369 51.6907 47.9949C51.916 47.5442 52.0287 47.0545 52.0287 46.5259C52.0287 45.9799 51.9074 45.4815 51.6647 45.0309C51.4307 44.5802 51.1144 44.2249 50.7157 43.9649C50.3257 43.6962 49.8967 43.5619 49.4287 43.5619C48.9434 43.5619 48.5014 43.7005 48.1027 43.9779C47.7127 44.2465 47.4007 44.6062 47.1667 45.0569C46.9414 45.5075 46.8287 45.9972 46.8287 46.5259C46.8287 47.0805 46.9457 47.5789 47.1797 48.0209C47.4224 48.4629 47.7387 48.8139 48.1287 49.0739C48.5274 49.3339 48.9607 49.4639 49.4287 49.4639ZM61.7767 59.5259H57.8767V40.0259H61.7767V41.2479C62.184 40.7885 62.6563 40.4159 63.1937 40.1299C63.731 39.8352 64.3507 39.6879 65.0527 39.6879C66.006 39.6879 66.8943 39.8655 67.7177 40.2209C68.541 40.5762 69.2647 41.0702 69.8887 41.7029C70.5213 42.3269 71.011 43.0505 71.3577 43.8739C71.713 44.6972 71.8907 45.5812 71.8907 46.5259C71.8907 47.4705 71.713 48.3589 71.3577 49.1909C71.011 50.0229 70.5213 50.7552 69.8887 51.3879C69.2647 52.0119 68.541 52.5015 67.7177 52.8569C66.8943 53.2122 66.006 53.3899 65.0527 53.3899C64.3507 53.3899 63.731 53.2425 63.1937 52.9479C62.6563 52.6532 62.184 52.2805 61.7767 51.8299V59.5259ZM65.0007 43.4319C64.472 43.4319 63.9867 43.5749 63.5447 43.8609C63.1113 44.1382 62.7647 44.5109 62.5047 44.9789C62.2447 45.4469 62.1147 45.9625 62.1147 46.5259C62.1147 47.0979 62.2447 47.6179 62.5047 48.0859C62.7647 48.5539 63.1113 48.9265 63.5447 49.2039C63.9867 49.4812 64.472 49.6199 65.0007 49.6199C65.538 49.6199 66.0277 49.4812 66.4697 49.2039C66.9117 48.9265 67.2627 48.5539 67.5227 48.0859C67.7827 47.6179 67.9127 47.0979 67.9127 46.5259C67.9127 45.9625 67.7827 45.4469 67.5227 44.9789C67.2627 44.5109 66.9117 44.1382 66.4697 43.8609C66.0277 43.5749 65.538 43.4319 65.0007 43.4319ZM86.2203 53.3639C85.0156 53.3639 83.928 53.0735 82.9573 52.4929C81.9953 51.9035 81.2326 51.1279 80.6693 50.1659C80.106 49.1952 79.8243 48.1379 79.8243 46.9939H83.7243C83.7243 47.4532 83.837 47.8692 84.0623 48.2419C84.2876 48.6145 84.5866 48.9135 84.9593 49.1389C85.3406 49.3555 85.761 49.4639 86.2203 49.4639C86.671 49.4639 87.0826 49.3555 87.4553 49.1389C87.828 48.9135 88.127 48.6145 88.3523 48.2419C88.5776 47.8692 88.6903 47.4532 88.6903 46.9939C88.6903 46.5345 88.5993 46.1142 88.4173 45.7329C88.244 45.3429 87.9233 45.0309 87.4553 44.7969C86.996 44.5629 86.333 44.4459 85.4663 44.4459H80.6563L82.6843 34.8259H91.8623V38.7259H85.8563L85.4663 40.5459L86.2983 40.5719C87.529 40.6239 88.6166 40.9402 89.5613 41.5209C90.506 42.1015 91.247 42.8685 91.7843 43.8219C92.3216 44.7752 92.5903 45.8325 92.5903 46.9939C92.5903 47.8605 92.4256 48.6795 92.0963 49.4509C91.767 50.2222 91.312 50.9025 90.7313 51.4919C90.1506 52.0725 89.4746 52.5319 88.7033 52.8699C87.932 53.1992 87.1043 53.3639 86.2203 53.3639ZM97.2427 53.0259L107.747 34.8259H112.245L101.741 53.0259H97.2427ZM99.5307 43.1459C98.742 43.1459 98.0184 42.9552 97.3597 42.5739C96.701 42.1925 96.1724 41.6769 95.7737 41.0269C95.3837 40.3682 95.1887 39.6359 95.1887 38.8299C95.1887 37.9979 95.388 37.2569 95.7867 36.6069C96.194 35.9569 96.727 35.4455 97.3857 35.0729C98.0444 34.7002 98.7594 34.5139 99.5307 34.5139C100.319 34.5139 101.039 34.7045 101.689 35.0859C102.347 35.4672 102.872 35.9872 103.262 36.6459C103.652 37.2959 103.847 38.0239 103.847 38.8299C103.847 39.6532 103.643 40.3899 103.236 41.0399C102.837 41.6899 102.308 42.2055 101.65 42.5869C101 42.9595 100.293 43.1459 99.5307 43.1459ZM99.5307 40.5459C99.9987 40.5459 100.402 40.3812 100.74 40.0519C101.078 39.7139 101.247 39.3065 101.247 38.8299C101.247 38.3445 101.078 37.9372 100.74 37.6079C100.402 37.2785 99.9987 37.1139 99.5307 37.1139C99.054 37.1139 98.6424 37.2785 98.2957 37.6079C97.9577 37.9372 97.7887 38.3445 97.7887 38.8299C97.7887 39.3065 97.9577 39.7139 98.2957 40.0519C98.6424 40.3812 99.054 40.5459 99.5307 40.5459ZM109.957 53.3639C109.151 53.3639 108.418 53.1645 107.76 52.7659C107.11 52.3585 106.594 51.8255 106.213 51.1669C105.831 50.5082 105.641 49.8019 105.641 49.0479C105.641 48.2245 105.84 47.4879 106.239 46.8379C106.646 46.1792 107.175 45.6592 107.825 45.2779C108.483 44.8965 109.194 44.7059 109.957 44.7059C110.789 44.7059 111.53 44.9095 112.18 45.3169C112.838 45.7242 113.354 46.2572 113.727 46.9159C114.108 47.5745 114.299 48.2852 114.299 49.0479C114.299 49.8365 114.104 50.5602 113.714 51.2189C113.324 51.8689 112.799 52.3889 112.141 52.7789C111.482 53.1689 110.754 53.3639 109.957 53.3639ZM109.957 50.7639C110.442 50.7639 110.854 50.5949 111.192 50.2569C111.53 49.9189 111.699 49.5159 111.699 49.0479C111.699 48.5625 111.53 48.1509 111.192 47.8129C110.854 47.4749 110.442 47.3059 109.957 47.3059C109.489 47.3059 109.086 47.4749 108.748 47.8129C108.41 48.1509 108.241 48.5625 108.241 49.0479C108.241 49.5159 108.41 49.9189 108.748 50.2569C109.086 50.5949 109.489 50.7639 109.957 50.7639Z" fill="#1E3A8A"/>
<path d="M27.858 77.0259L23.794 65.8259H25.218L28.69 75.3859L32.17 65.8259H33.586L29.522 77.0259H27.858ZM37.5916 77.2339C36.8556 77.2339 36.1836 77.0445 35.5756 76.6659C34.9729 76.2872 34.4902 75.7805 34.1276 75.1459C33.7702 74.5059 33.5916 73.7992 33.5916 73.0259C33.5916 72.4392 33.6956 71.8925 33.9036 71.3859C34.1116 70.8739 34.3969 70.4259 34.7596 70.0419C35.1276 69.6525 35.5542 69.3485 36.0396 69.1299C36.5249 68.9112 37.0422 68.8019 37.5916 68.8019C38.1942 68.8019 38.7462 68.9245 39.2476 69.1699C39.7542 69.4099 40.1862 69.7459 40.5436 70.1779C40.9062 70.6099 41.1756 71.1112 41.3516 71.6819C41.5329 72.2525 41.5996 72.8632 41.5516 73.5139H35.0236C35.0876 73.9672 35.2369 74.3725 35.4716 74.7299C35.7062 75.0819 36.0049 75.3619 36.3676 75.5699C36.7356 75.7779 37.1436 75.8845 37.5916 75.8899C38.0716 75.8899 38.5062 75.7672 38.8956 75.5219C39.2849 75.2712 39.5996 74.9299 39.8396 74.4979L41.2076 74.8179C40.8876 75.5272 40.4049 76.1085 39.7596 76.5619C39.1142 77.0099 38.3916 77.2339 37.5916 77.2339ZM34.9836 72.4579H40.1996C40.1569 72.0099 40.0129 71.6019 39.7676 71.2339C39.5222 70.8605 39.2102 70.5619 38.8316 70.3379C38.4529 70.1139 38.0396 70.0019 37.5916 70.0019C37.1436 70.0019 36.7329 70.1112 36.3596 70.3299C35.9862 70.5485 35.6769 70.8445 35.4316 71.2179C35.1916 71.5859 35.0422 71.9992 34.9836 72.4579ZM46.95 70.3699H45.134L45.126 77.0259H43.782L43.79 70.3699H42.414V69.0259H43.79L43.782 66.5139H45.126L45.134 69.0259H46.95V70.3699ZM52.5281 70.3699H50.7121L50.7041 77.0259H49.3601L49.3681 70.3699H47.9921V69.0259H49.3681L49.3601 66.5139H50.7041L50.7121 69.0259H52.5281V70.3699ZM57.2791 77.2339C56.5431 77.2339 55.8711 77.0445 55.2631 76.6659C54.6604 76.2872 54.1777 75.7805 53.8151 75.1459C53.4577 74.5059 53.2791 73.7992 53.2791 73.0259C53.2791 72.4392 53.3831 71.8925 53.5911 71.3859C53.7991 70.8739 54.0844 70.4259 54.4471 70.0419C54.8151 69.6525 55.2417 69.3485 55.7271 69.1299C56.2124 68.9112 56.7297 68.8019 57.2791 68.8019C57.8817 68.8019 58.4337 68.9245 58.9351 69.1699C59.4417 69.4099 59.8737 69.7459 60.2311 70.1779C60.5937 70.6099 60.8631 71.1112 61.0391 71.6819C61.2204 72.2525 61.2871 72.8632 61.2391 73.5139H54.7111C54.7751 73.9672 54.9244 74.3725 55.1591 74.7299C55.3937 75.0819 55.6924 75.3619 56.0551 75.5699C56.4231 75.7779 56.8311 75.8845 57.2791 75.8899C57.7591 75.8899 58.1937 75.7672 58.5831 75.5219C58.9724 75.2712 59.2871 74.9299 59.5271 74.4979L60.8951 74.8179C60.5751 75.5272 60.0924 76.1085 59.4471 76.5619C58.8017 77.0099 58.0791 77.2339 57.2791 77.2339ZM54.6711 72.4579H59.8871C59.8444 72.0099 59.7004 71.6019 59.4551 71.2339C59.2097 70.8605 58.8977 70.5619 58.5191 70.3379C58.1404 70.1139 57.7271 70.0019 57.2791 70.0019C56.8311 70.0019 56.4204 70.1112 56.0471 70.3299C55.6737 70.5485 55.3644 70.8445 55.1191 71.2179C54.8791 71.5859 54.7297 71.9992 54.6711 72.4579ZM68.9803 65.0259H70.3243V77.0259H68.9803V75.6659C68.7083 76.1352 68.343 76.5139 67.8843 76.8019C67.4257 77.0899 66.887 77.2339 66.2683 77.2339C65.687 77.2339 65.143 77.1245 64.6363 76.9059C64.1297 76.6872 63.6817 76.3859 63.2923 76.0019C62.9083 75.6125 62.607 75.1645 62.3883 74.6579C62.1697 74.1512 62.0603 73.6072 62.0603 73.0259C62.0603 72.4445 62.1697 71.9005 62.3883 71.3939C62.607 70.8819 62.9083 70.4339 63.2923 70.0499C63.6817 69.6605 64.1297 69.3565 64.6363 69.1379C65.143 68.9192 65.687 68.8099 66.2683 68.8099C66.887 68.8099 67.4257 68.9539 67.8843 69.2419C68.343 69.5299 68.7083 69.9085 68.9803 70.3779V65.0259ZM66.2843 75.9299C66.8123 75.9299 67.2683 75.8019 67.6523 75.5459C68.0417 75.2845 68.3403 74.9325 68.5483 74.4899C68.7617 74.0472 68.8683 73.5592 68.8683 73.0259C68.8683 72.4819 68.7617 71.9912 68.5483 71.5539C68.335 71.1112 68.0337 70.7619 67.6443 70.5059C67.2603 70.2445 66.807 70.1139 66.2843 70.1139C65.7563 70.1139 65.2763 70.2445 64.8443 70.5059C64.4177 70.7672 64.0763 71.1192 63.8203 71.5619C63.5643 71.9992 63.4363 72.4872 63.4363 73.0259C63.4363 73.5645 63.567 74.0552 63.8283 74.4979C64.0897 74.9352 64.4363 75.2845 64.8683 75.5459C65.3003 75.8019 65.7723 75.9299 66.2843 75.9299ZM84.5592 65.8259V67.1699H80.8312V77.0259H79.4872V67.1699H75.7672V65.8259H84.5592ZM91.363 69.0259H92.707V77.0259H91.363L91.307 75.6739C91.0563 76.1379 90.7096 76.5139 90.267 76.8019C89.8296 77.0899 89.307 77.2339 88.699 77.2339C88.1123 77.2339 87.563 77.1245 87.051 76.9059C86.539 76.6819 86.0856 76.3752 85.691 75.9859C85.3016 75.5912 84.9976 75.1379 84.779 74.6259C84.5603 74.1139 84.451 73.5619 84.451 72.9699C84.451 72.3992 84.5576 71.8605 84.771 71.3539C84.9843 70.8472 85.2803 70.4045 85.659 70.0259C86.043 69.6419 86.4856 69.3432 86.987 69.1299C87.4883 68.9112 88.027 68.8019 88.603 68.8019C89.2323 68.8019 89.7843 68.9512 90.259 69.2499C90.7336 69.5432 91.1176 69.9245 91.411 70.3939L91.363 69.0259ZM88.675 75.9299C89.203 75.9299 89.659 75.8019 90.043 75.5459C90.4323 75.2845 90.731 74.9325 90.939 74.4899C91.1523 74.0472 91.259 73.5592 91.259 73.0259C91.259 72.4819 91.1523 71.9912 90.939 71.5539C90.7256 71.1112 90.4243 70.7619 90.035 70.5059C89.651 70.2445 89.1976 70.1139 88.675 70.1139C88.147 70.1139 87.667 70.2445 87.235 70.5059C86.803 70.7672 86.459 71.1192 86.203 71.5619C85.9523 71.9992 85.827 72.4872 85.827 73.0259C85.827 73.5645 85.9576 74.0552 86.219 74.4979C86.4803 74.9352 86.827 75.2845 87.259 75.5459C87.691 75.8019 88.163 75.9299 88.675 75.9299ZM94.3997 77.0259V65.0259H95.7437V77.0259H94.3997ZM101.107 77.2339C100.371 77.2339 99.6992 77.0445 99.0912 76.6659C98.4885 76.2872 98.0059 75.7805 97.6432 75.1459C97.2859 74.5059 97.1072 73.7992 97.1072 73.0259C97.1072 72.4392 97.2112 71.8925 97.4192 71.3859C97.6272 70.8739 97.9125 70.4259 98.2752 70.0419C98.6432 69.6525 99.0699 69.3485 99.5552 69.1299C100.041 68.9112 100.558 68.8019 101.107 68.8019C101.71 68.8019 102.262 68.9245 102.763 69.1699C103.27 69.4099 103.702 69.7459 104.059 70.1779C104.422 70.6099 104.691 71.1112 104.867 71.6819C105.049 72.2525 105.115 72.8632 105.067 73.5139H98.5392C98.6032 73.9672 98.7525 74.3725 98.9872 74.7299C99.2219 75.0819 99.5205 75.3619 99.8832 75.5699C100.251 75.7779 100.659 75.8845 101.107 75.8899C101.587 75.8899 102.022 75.7672 102.411 75.5219C102.801 75.2712 103.115 74.9299 103.355 74.4979L104.723 74.8179C104.403 75.5272 103.921 76.1085 103.275 76.5619C102.63 77.0099 101.907 77.2339 101.107 77.2339ZM98.4992 72.4579H103.715C103.673 72.0099 103.529 71.6019 103.283 71.2339C103.038 70.8605 102.726 70.5619 102.347 70.3379C101.969 70.1139 101.555 70.0019 101.107 70.0019C100.659 70.0019 100.249 70.1112 99.8752 70.3299C99.5019 70.5485 99.1925 70.8445 98.9472 71.2179C98.7072 71.5859 98.5579 71.9992 98.4992 72.4579ZM113.487 72.0499V77.0259H112.143V72.3459C112.143 71.9405 112.045 71.5725 111.847 71.2419C111.65 70.9112 111.386 70.6499 111.055 70.4579C110.725 70.2605 110.357 70.1619 109.951 70.1619C109.551 70.1619 109.183 70.2605 108.847 70.4579C108.517 70.6499 108.253 70.9112 108.055 71.2419C107.858 71.5725 107.759 71.9405 107.759 72.3459V77.0259H106.415V69.0259H107.759V70.0259C108.042 69.6525 108.399 69.3565 108.831 69.1379C109.263 68.9139 109.733 68.8019 110.239 68.8019C110.837 68.8019 111.381 68.9485 111.871 69.2419C112.367 69.5299 112.759 69.9192 113.047 70.4099C113.341 70.9005 113.487 71.4472 113.487 72.0499ZM119.231 70.3699H117.415L117.407 77.0259H116.063L116.071 70.3699H114.695V69.0259H116.071L116.063 66.5139H117.407L117.415 69.0259H119.231V70.3699Z" fill="#1E3A8A"/>
</svg>
