<svg width="40" height="40" viewBox="0 0 40 40" fill="none" xmlns="http://www.w3.org/2000/svg">
<g clip-path="url(#clip0_5353_4733)">
<path d="M25 16.6664L32.5883 12.873C32.8424 12.7461 33.1246 12.6862 33.4083 12.699C33.692 12.7117 33.9677 12.7968 34.2093 12.9461C34.4509 13.0953 34.6504 13.3038 34.7888 13.5518C34.9271 13.7998 34.9998 14.0791 35 14.363V25.6364C34.9998 25.9204 34.9271 26.1996 34.7888 26.4476C34.6504 26.6956 34.4509 26.9041 34.2093 27.0534C33.9677 27.2026 33.692 27.2877 33.4083 27.3005C33.1246 27.3132 32.8424 27.2533 32.5883 27.1264L25 23.333V16.6664Z" stroke="white" stroke-width="2.5" stroke-linecap="round" stroke-linejoin="round"/>
<path d="M5 13.3333C5 12.4493 5.35119 11.6014 5.97631 10.9763C6.60143 10.3512 7.44928 10 8.33333 10H21.6667C22.5507 10 23.3986 10.3512 24.0237 10.9763C24.6488 11.6014 25 12.4493 25 13.3333V26.6667C25 27.5507 24.6488 28.3986 24.0237 29.0237C23.3986 29.6488 22.5507 30 21.6667 30H8.33333C7.44928 30 6.60143 29.6488 5.97631 29.0237C5.35119 28.3986 5 27.5507 5 26.6667V13.3333Z" stroke="white" stroke-width="2.5" stroke-linecap="round" stroke-linejoin="round"/>
<path d="M11.666 20H18.3327" stroke="white" stroke-width="2.5" stroke-linecap="round" stroke-linejoin="round"/>
</g>
<defs>
<clipPath id="clip0_5353_4733">
<rect width="40" height="40" fill="white"/>
</clipPath>
</defs>
</svg>
