<svg width="60" height="60" viewBox="0 0 60 60" fill="none" xmlns="http://www.w3.org/2000/svg">
<g clip-path="url(#clip0_4741_4884)">
<path d="M28.75 42.5H10C9.33696 42.5 8.70107 42.2366 8.23223 41.7678C7.76339 41.2989 7.5 40.663 7.5 40V10C7.5 9.33696 7.76339 8.70107 8.23223 8.23223C8.70107 7.76339 9.33696 7.5 10 7.5H50C50.663 7.5 51.2989 7.76339 51.7678 8.23223C52.2366 8.70107 52.5 9.33696 52.5 10V32.5" stroke="#0E53BE" stroke-width="5" stroke-linecap="round" stroke-linejoin="round"/>
<path d="M7.5 32.5H52.5" stroke="#0E53BE" stroke-width="5" stroke-linecap="round" stroke-linejoin="round"/>
<path d="M20 52.5H28.75" stroke="#0E53BE" stroke-width="5" stroke-linecap="round" stroke-linejoin="round"/>
<path d="M25 42.5L23.75 52.5" stroke="#0E53BE" stroke-width="5" stroke-linecap="round" stroke-linejoin="round"/>
<path d="M50 52.5L55 47.5L50 42.5" stroke="#0E53BE" stroke-width="5" stroke-linecap="round" stroke-linejoin="round"/>
<path d="M42.5 42.5L37.5 47.5L42.5 52.5" stroke="#0E53BE" stroke-width="5" stroke-linecap="round" stroke-linejoin="round"/>
</g>
<defs>
<clipPath id="clip0_4741_4884">
<rect width="60" height="60" fill="white"/>
</clipPath>
</defs>
</svg>
