<svg width="551" height="412" viewBox="0 0 551 412" fill="none" xmlns="http://www.w3.org/2000/svg">
<path d="M489.788 309.541H290.354C288.64 309.538 286.996 308.843 285.784 307.607C284.572 306.372 283.89 304.697 283.887 302.95V6.81342C283.893 5.06816 284.576 3.39624 285.788 2.16321C287 0.930169 288.641 0.236323 290.354 0.23336H489.788C491.5 0.236323 493.142 0.930169 494.353 2.16321C495.565 3.39624 496.249 5.06816 496.255 6.81342V302.95C496.252 304.697 495.57 306.372 494.357 307.607C493.145 308.843 491.502 309.538 489.788 309.541ZM290.354 0.514559C289.538 0.508629 288.729 0.667092 287.974 0.980845C287.218 1.2946 286.531 1.75745 285.951 2.3428C285.372 2.92815 284.912 3.62444 284.597 4.39166C284.283 5.15889 284.12 5.98191 284.118 6.81342V302.95C284.118 304.623 284.771 306.228 285.932 307.412C287.093 308.595 288.668 309.26 290.31 309.26H489.788C491.43 309.26 493.004 308.595 494.165 307.412C495.327 306.228 495.979 304.623 495.979 302.95V6.81342C495.979 5.13987 495.327 3.53488 494.165 2.3515C493.004 1.16813 491.43 0.503309 489.788 0.503309L290.354 0.514559Z" fill="#F0F0F0"/>
<path d="M259.761 309.541H60.2836C58.5693 309.538 56.926 308.843 55.7138 307.607C54.5016 306.372 53.8193 304.697 53.8164 302.95V6.81353C53.8193 5.06632 54.5016 3.39152 55.7138 2.15606C56.926 0.920592 58.5693 0.225195 60.2836 0.222221H259.761C261.476 0.225195 263.119 0.920592 264.331 2.15606C265.543 3.39152 266.226 5.06632 266.229 6.81353V302.95C266.226 304.697 265.543 306.372 264.331 307.607C263.119 308.843 261.476 309.538 259.761 309.541ZM60.2836 0.514671C58.6435 0.514668 57.0704 1.17794 55.9096 2.35888C54.7488 3.53982 54.0952 5.14193 54.0923 6.81353V302.95C54.0923 304.624 54.7446 306.229 55.9057 307.412C57.0668 308.595 58.6415 309.26 60.2836 309.26H259.761C261.403 309.26 262.978 308.595 264.139 307.412C265.3 306.229 265.953 304.624 265.953 302.95V6.81353C265.953 5.13998 265.3 3.53499 264.139 2.35161C262.978 1.16824 261.403 0.503421 259.761 0.503421L60.2836 0.514671Z" fill="#F0F0F0"/>
<path d="M550.806 378.233H-1V378.514H550.806V378.233Z" fill="#F0F0F0"/>
<path d="M383.763 103.827L378.83 143.859L344.485 108.855L383.763 103.827Z" fill="#F5F5F5"/>
<path d="M304.756 194.295L374.217 123.5L364.075 113.152L304.756 173.621V194.295Z" fill="#F5F5F5"/>
<path d="M120.927 252.087C122.862 255.876 123.935 260.061 124.068 264.332C124.201 268.602 123.389 272.848 121.694 276.755C119.998 280.662 117.461 284.13 114.272 286.902C111.083 289.675 107.322 291.68 103.269 292.771C98.6938 294.005 93.8855 294.032 89.2973 292.849C88.6572 292.681 88.006 292.489 87.377 292.276C84.5755 291.327 81.9385 289.934 79.5634 288.148C79.0999 287.799 78.6364 287.428 78.1949 287.023C75.3836 284.622 73.0657 281.679 71.3746 278.362C71.2201 278.047 71.0656 277.732 70.9221 277.406C69.0139 273.275 68.108 268.736 68.2805 264.174C68.453 259.611 69.699 255.157 71.9135 251.188C74.128 247.219 77.2461 243.85 81.0051 241.366C84.7641 238.881 89.0539 237.354 93.5131 236.913C94.1863 236.846 94.8595 236.812 95.5327 236.789C98.4488 236.732 101.356 237.134 104.152 237.982C104.77 238.173 105.377 238.375 105.973 238.6C108.113 239.423 110.147 240.507 112.032 241.828C115.499 244.261 118.379 247.464 120.452 251.198C120.607 251.468 120.772 251.772 120.927 252.087Z" fill="#F5F5F5"/>
<path d="M116.413 255.664C116.126 255.169 115.828 254.685 115.508 254.213C114.103 252.126 112.364 250.293 110.365 248.791C108.361 247.292 106.122 246.151 103.744 245.417C103.138 245.215 102.523 245.046 101.901 244.91C98.9989 244.25 95.9969 244.189 93.0717 244.731C92.3277 244.864 91.5909 245.037 90.8644 245.248C87.7647 246.159 84.8951 247.743 82.4527 249.892C80.0104 252.04 78.0531 254.702 76.7153 257.694C75.3774 260.686 74.6907 263.937 74.7023 267.225C74.7139 270.513 75.4235 273.76 76.7824 276.742L76.2857 275.82C74.927 273.163 74.095 270.26 73.8372 267.276C73.5794 264.291 73.9009 261.285 74.7832 258.427C75.6656 255.569 77.0916 252.917 78.9797 250.621C80.8679 248.325 83.1813 246.43 85.7878 245.045C88.3944 243.661 91.243 242.813 94.1711 242.55C97.0992 242.287 100.049 242.615 102.853 243.514C105.657 244.413 108.26 245.867 110.512 247.791C112.765 249.716 114.624 252.073 115.983 254.73C116.115 255.034 116.259 255.394 116.413 255.664Z" fill="#E0E0E0"/>
<g opacity="0.3">
<path d="M106.447 285.426C106.216 285.549 105.984 285.673 105.741 285.786C105.498 285.909 105.266 286.022 105.013 286.123L104.836 286.202C104.56 286.325 104.295 286.427 104.03 286.528H103.92C103.052 286.86 102.163 287.134 101.26 287.349C100.962 287.417 100.653 287.495 100.355 287.54C99.7484 287.664 99.1414 287.754 98.5234 287.821L97.9274 287.878H97.6074H97.1328C96.89 287.878 96.6472 287.878 96.3934 287.878C96.1396 287.878 95.7644 287.878 95.4443 287.878C95.1243 287.878 94.8153 287.878 94.5062 287.821C94.1972 287.765 93.9875 287.821 93.7337 287.754L93.226 287.686L92.8177 287.63L92.3542 287.551L91.5927 287.405L90.9416 287.248H90.7981L89.8711 287L89.0103 286.719L88.5026 286.528L87.9949 286.337L87.5093 286.134L86.9906 285.898L86.494 285.662L86.0084 285.414C85.6773 285.246 85.3463 285.066 85.0152 284.863L84.6179 284.627C84.2868 284.425 83.9778 284.222 83.6577 283.997L83.2163 283.682C82.7417 283.345 82.2782 282.974 81.8368 282.557L81.4836 282.242C81.2188 282.006 80.9649 281.781 80.7221 281.534C80.4683 281.286 80.2255 281.028 79.9827 280.769L79.6516 280.409L79.4971 280.229L79.155 279.835V279.768C79.0243 279.622 78.9027 279.468 78.7908 279.307C78.649 279.142 78.5163 278.969 78.3935 278.789C78.2611 278.621 78.1397 278.441 78.0183 278.261C77.8969 278.081 77.8196 277.979 77.7313 277.833L77.5437 277.552L77.3009 277.158L76.9699 276.596C75.611 273.614 74.9014 270.367 74.8898 267.079C74.8782 263.791 75.5649 260.539 76.9027 257.547C78.2406 254.555 80.1979 251.894 82.6402 249.745C85.0826 247.597 87.9522 246.013 91.0519 245.102C91.7784 244.891 92.5152 244.718 93.2592 244.584C96.1844 244.043 99.1864 244.104 102.088 244.764C102.711 244.9 103.326 245.069 103.931 245.27C106.31 246.005 108.549 247.146 110.553 248.645C112.552 250.147 114.29 251.979 115.696 254.066C116.016 254.539 116.314 255.022 116.601 255.517C119.036 260.872 119.338 266.981 117.445 272.559C115.551 278.137 111.609 282.749 106.447 285.426Z" fill="black"/>
</g>
<path d="M106.448 285.426C106.216 285.549 105.984 285.673 105.741 285.785C105.499 285.909 105.267 286.022 105.013 286.123L104.836 286.202C104.56 286.325 104.296 286.427 104.031 286.528H103.92C103.052 286.859 102.164 287.134 101.261 287.349C100.963 287.416 100.654 287.495 100.356 287.54C99.7487 287.664 99.1417 287.754 98.5237 287.821H98.2809H97.9167H97.5967H97.1221C96.8793 287.821 96.6365 287.821 96.3827 287.821C96.1288 287.821 95.7536 287.821 95.4336 287.821C95.1135 287.821 94.8045 287.821 94.4955 287.765C94.1865 287.709 93.9768 287.765 93.723 287.698L93.2153 287.63L92.807 287.574L92.3435 287.495L91.582 287.349L90.9308 287.191H90.7874L89.8603 286.944L88.9995 286.663L88.4919 286.472L87.9842 286.28L87.4986 286.078L86.9799 285.842L86.4833 285.606L85.9977 285.358C85.6666 285.189 85.3355 285.009 85.0044 284.807L84.6071 284.571C84.2761 284.368 83.967 284.166 83.647 283.941L83.2056 283.626C82.731 283.288 82.2675 282.917 81.826 282.501L81.4729 282.186C81.208 281.95 80.9542 281.725 80.7114 281.478C80.4576 281.23 80.2148 280.971 79.972 280.713L79.6409 280.353L79.4864 280.173L79.1443 279.779V279.712C79.0136 279.566 78.892 279.412 78.7801 279.25C78.6382 279.086 78.5056 278.913 78.3828 278.733C78.2503 278.564 78.1289 278.384 78.0075 278.204C77.8861 278.024 77.8089 277.923 77.7206 277.777L77.533 277.496L77.2902 277.102L76.9591 276.54C75.6002 273.557 74.8906 270.311 74.8791 267.023C74.8675 263.735 75.5542 260.483 76.892 257.491C78.2298 254.499 80.1871 251.837 82.6295 249.689C85.0718 247.541 87.9414 245.957 91.0412 245.045C91.7677 244.834 92.5044 244.662 93.2484 244.528C96.1737 243.986 99.1757 244.048 102.077 244.708C102.7 244.844 103.315 245.013 103.92 245.214C106.299 245.949 108.538 247.09 110.542 248.588C112.541 250.09 114.279 251.923 115.685 254.01C116.005 254.482 116.303 254.966 116.59 255.461C119.043 260.821 119.356 266.943 117.464 272.533C115.571 278.124 111.621 282.747 106.448 285.426Z" fill="#F0F0F0"/>
<path d="M104.748 275.235L106.459 278.609L102.276 280.859L100.643 277.653C97.9277 278.968 94.9515 279.626 91.9461 279.577L91.5378 273.188C94.272 273.301 96.9889 272.697 99.4286 271.433C101.415 270.376 101.901 269.577 101.536 268.857C100.179 266.192 89.7941 274.425 85.7659 266.54C84.0222 263.166 84.9933 258.959 89.4961 255.686L87.8186 252.39L92.0013 250.141L93.6457 253.38C95.8258 252.452 98.1696 251.989 100.532 252.019L101.062 258.296C98.7699 258.255 96.501 258.768 94.4403 259.792C92.3875 260.916 92.0454 261.827 92.4206 262.559C93.7119 265.101 104.108 256.935 108.092 264.684C109.791 267.913 108.931 271.973 104.748 275.235Z" fill="#E0E0E0"/>
<path d="M104.053 274.178L105.763 277.552L101.592 279.802L99.9472 276.607C97.2284 277.91 94.2549 278.568 91.2507 278.531L90.8534 272.142C93.5636 272.254 96.258 271.67 98.689 270.443C100.676 269.386 101.172 268.587 100.797 267.856C99.4285 265.146 89.0656 273.39 85.0815 265.517C83.3378 262.142 84.2979 257.947 88.8117 254.674L87.1232 251.378L91.3059 249.128L92.9613 252.357C95.13 251.405 97.4645 250.907 99.8258 250.894L100.367 257.182C98.074 257.137 95.8039 257.65 93.7449 258.678C91.7032 259.803 91.35 260.714 91.7253 261.434C93.0165 263.976 103.413 255.81 107.397 263.571C109.096 266.855 108.257 270.927 104.053 274.178Z" fill="#F5F5F5"/>
<path d="M459.78 161.372C458.34 166.665 455.428 171.421 451.395 175.065C447.361 178.708 442.38 181.085 437.051 181.906C431.722 182.728 426.273 181.96 421.363 179.696C416.452 177.431 412.29 173.767 409.378 169.144C409.014 168.571 408.672 168.019 408.352 167.378C406.932 164.731 405.931 161.873 405.383 158.909C405.284 158.324 405.195 157.784 405.118 157.143C404.68 153.433 404.966 149.672 405.957 146.075C406.045 145.737 406.145 145.4 406.255 145.062C407.62 140.704 409.996 136.745 413.181 133.521C416.366 130.296 420.266 127.901 424.551 126.539C428.836 125.176 433.38 124.885 437.799 125.692C442.218 126.498 446.381 128.378 449.936 131.171C450.466 131.587 450.984 132.026 451.481 132.487C453.663 134.468 455.525 136.788 456.999 139.36C457.319 139.922 457.628 140.484 457.915 141.08C458.93 143.164 459.69 145.366 460.177 147.638C460.694 150.022 460.901 152.465 460.795 154.904C460.719 156.739 460.468 158.563 460.045 160.348C459.957 160.697 459.868 161.034 459.78 161.372Z" fill="#F5F5F5"/>
<path d="M454.085 160.843C454.207 160.281 454.317 159.718 454.394 159.156C454.774 156.655 454.733 154.107 454.273 151.62C453.824 149.126 452.965 146.726 451.735 144.522C451.426 143.96 451.083 143.398 450.73 142.869C449.048 140.367 446.894 138.23 444.396 136.581C443.767 136.188 443.126 135.805 442.464 135.457C441.137 134.771 439.747 134.221 438.315 133.814C432.78 132.245 426.864 132.908 421.797 135.667C416.729 138.425 412.898 143.067 411.1 148.628C411.188 148.29 411.265 147.953 411.353 147.616C412.944 141.798 416.737 136.864 421.898 133.897C427.059 130.93 433.164 130.174 438.872 131.795C444.58 133.417 449.421 137.282 452.332 142.542C455.243 147.802 455.985 154.025 454.394 159.842L454.085 160.843Z" fill="#E0E0E0"/>
<g opacity="0.3">
<path d="M426.87 175.645L426.109 175.421L425.347 175.162L425.16 175.094L424.365 174.779H424.244C423.39 174.414 422.561 173.993 421.76 173.52C421.496 173.362 421.22 173.205 420.966 173.036C420.436 172.699 419.939 172.339 419.443 171.967L418.979 171.596L418.726 171.382L418.372 171.034C418.185 170.865 417.997 170.708 417.821 170.528L417.136 169.864C416.916 169.639 416.695 169.403 416.485 169.167C416.275 168.93 416.132 168.784 415.966 168.57C415.801 168.357 415.746 168.312 415.646 168.177L415.382 167.851L415.095 167.468C414.94 167.266 414.786 167.052 414.642 166.838C414.499 166.625 414.388 166.467 414.267 166.265L414.179 166.141L413.671 165.309L413.241 164.51C413.152 164.341 413.075 164.173 412.998 164.015C412.921 163.858 412.832 163.678 412.755 163.509C412.678 163.34 412.611 163.194 412.534 163.025C412.457 162.857 412.38 162.677 412.314 162.497L412.115 161.979C412.049 161.81 411.982 161.642 411.927 161.462C411.795 161.102 411.673 160.742 411.563 160.337L411.431 159.876C411.331 159.516 411.243 159.133 411.155 158.751C411.155 158.571 411.077 158.391 411.044 158.211C410.923 157.626 410.835 157.086 410.757 156.456C410.757 156.299 410.757 156.141 410.757 155.984C410.757 155.635 410.691 155.287 410.68 154.927C410.68 154.567 410.68 154.218 410.68 153.869V153.375C410.68 153.285 410.68 153.206 410.68 153.127C410.68 153.048 410.68 152.778 410.68 152.598C410.676 152.572 410.676 152.546 410.68 152.52C410.68 152.328 410.68 152.126 410.68 151.935L410.746 151.282C410.746 151.057 410.746 150.844 410.824 150.63C410.901 150.416 410.824 150.293 410.901 150.113C410.978 149.933 410.901 149.899 410.901 149.786C410.901 149.674 410.956 149.483 410.989 149.325L411.122 148.684C412.92 143.123 416.751 138.481 421.819 135.723C426.886 132.964 432.802 132.301 438.337 133.871C439.769 134.278 441.159 134.828 442.486 135.513C443.148 135.861 443.789 136.244 444.418 136.638C446.916 138.286 449.07 140.423 450.752 142.925C451.105 143.454 451.448 144.05 451.757 144.579C452.987 146.782 453.846 149.182 454.295 151.676C454.755 154.163 454.796 156.711 454.416 159.212C454.339 159.775 454.229 160.337 454.107 160.899C452.293 166.451 448.453 171.08 443.383 173.825C438.312 176.57 432.4 177.222 426.87 175.645Z" fill="black"/>
</g>
<path d="M426.87 175.645L426.109 175.421L425.347 175.162L425.16 175.094L424.365 174.779H424.244C423.39 174.414 422.561 173.993 421.76 173.52C421.496 173.362 421.22 173.205 420.966 173.036C420.436 172.699 419.939 172.339 419.443 171.967L419.244 171.81C419.147 171.741 419.055 171.666 418.968 171.585L418.714 171.371L418.372 171.034C418.185 170.865 417.997 170.708 417.821 170.528L417.136 169.864C416.916 169.639 416.695 169.403 416.485 169.167C416.275 168.93 416.132 168.784 415.966 168.57C415.801 168.357 415.746 168.312 415.646 168.177L415.382 167.851L415.095 167.468C414.94 167.266 414.786 167.052 414.642 166.838C414.499 166.625 414.388 166.467 414.267 166.265L414.179 166.141L413.671 165.309L413.241 164.51C413.152 164.341 413.075 164.173 412.998 164.015C412.921 163.858 412.832 163.678 412.755 163.509C412.678 163.34 412.611 163.194 412.534 163.025C412.457 162.857 412.38 162.677 412.314 162.497L412.115 161.979C412.049 161.81 411.982 161.642 411.927 161.462C411.795 161.102 411.673 160.742 411.563 160.337L411.431 159.876C411.331 159.516 411.243 159.133 411.155 158.751C411.155 158.571 411.077 158.391 411.044 158.211C410.923 157.626 410.835 157.086 410.757 156.456C410.757 156.299 410.757 156.141 410.757 155.984C410.757 155.635 410.691 155.287 410.68 154.927C410.68 154.567 410.68 154.218 410.68 153.869V153.375C410.68 153.285 410.68 153.206 410.68 153.127C410.68 153.048 410.68 152.778 410.68 152.598C410.676 152.572 410.676 152.546 410.68 152.52C410.68 152.328 410.68 152.126 410.68 151.935L410.746 151.282C410.746 151.057 410.746 150.844 410.824 150.63C410.901 150.416 410.824 150.293 410.901 150.113C410.978 149.933 410.901 149.899 410.901 149.786C410.901 149.674 410.956 149.483 410.989 149.325L411.122 148.684C412.92 143.123 416.751 138.481 421.819 135.723C426.886 132.964 432.802 132.301 438.337 133.871C439.769 134.278 441.159 134.828 442.486 135.513C443.148 135.861 443.789 136.244 444.418 136.638C446.916 138.286 449.07 140.423 450.752 142.925C451.105 143.454 451.448 144.05 451.757 144.579C452.987 146.782 453.846 149.182 454.295 151.676C454.755 154.163 454.796 156.711 454.416 159.212C454.339 159.775 454.229 160.337 454.107 160.899C452.293 166.451 448.453 171.08 443.383 173.825C438.312 176.57 432.4 177.222 426.87 175.645Z" fill="#F0F0F0"/>
<path d="M432.455 167.018L431.461 170.651L426.914 169.369L427.875 165.893C425.009 164.958 422.393 163.365 420.227 161.237L424.211 156.288C426.113 158.261 428.475 159.712 431.075 160.506C433.282 161.113 434.132 160.877 434.386 160.09C435.169 157.199 422.07 155.995 424.453 147.424C425.469 143.712 428.956 141.35 434.441 142.093L435.423 138.516L439.959 139.809L438.999 143.319C441.236 144.142 443.283 145.425 445.014 147.087L441.195 152.047C439.56 150.428 437.57 149.229 435.39 148.549C433.183 147.919 432.278 148.38 432.079 149.168C431.329 151.924 444.418 153.161 442.1 161.631C441.041 165.174 437.686 167.547 432.455 167.018Z" fill="#E0E0E0"/>
<path d="M432.653 165.77L431.66 169.403L427.113 168.121L428.073 164.634C425.206 163.706 422.589 162.116 420.425 159.988L424.42 155.039C426.317 157.014 428.675 158.466 431.273 159.257C433.481 159.865 434.33 159.628 434.584 158.841C435.368 155.95 422.279 154.747 424.652 146.176C425.667 142.464 429.154 140.102 434.65 140.844L435.622 137.267L440.168 138.561L439.197 142.07C441.436 142.896 443.486 144.178 445.223 145.838L441.327 150.787C439.692 149.168 437.702 147.969 435.522 147.289C433.315 146.659 432.41 147.121 432.211 147.908C431.461 150.664 444.55 151.901 442.232 160.371C441.239 163.925 437.884 166.298 432.653 165.77Z" fill="#F5F5F5"/>
<path d="M166.804 62.2547L161.86 102.286L127.526 67.2938L166.804 62.2547Z" fill="#F5F5F5"/>
<path d="M54.1143 187.051L157.258 81.9274L147.116 71.5905L54.1143 166.377V187.051Z" fill="#F5F5F5"/>
<path d="M96.1178 28.9945C96.1178 29.1934 96.0791 29.3903 96.0041 29.5739C95.9291 29.7575 95.8192 29.9242 95.6807 30.0643C95.5422 30.2044 95.3779 30.3152 95.1972 30.3903C95.0165 30.4654 94.823 30.5032 94.6279 30.5018H88.7567V36.5082C88.7246 36.8869 88.5543 37.2396 88.2795 37.4965C88.0047 37.7535 87.6453 37.8961 87.2723 37.8961C86.8993 37.8961 86.5399 37.7535 86.2651 37.4965C85.9903 37.2396 85.82 36.8869 85.7879 36.5082V30.5018H79.8947C79.5121 30.4901 79.1488 30.3277 78.8812 30.0487C78.6136 29.7698 78.4626 29.3959 78.46 29.0058C78.46 28.606 78.6158 28.2227 78.8931 27.94C79.1704 27.6573 79.5466 27.4985 79.9388 27.4985H85.8321V21.4359C85.8642 21.0572 86.0344 20.7045 86.3093 20.4475C86.5841 20.1906 86.9435 20.048 87.3164 20.048C87.6894 20.048 88.0488 20.1906 88.3236 20.4475C88.5985 20.7045 88.7687 21.0572 88.8008 21.4359V27.4423H94.6941C95.0844 27.457 95.4532 27.6284 95.7199 27.9192C95.9867 28.2101 96.1297 28.5966 96.1178 28.9945Z" fill="#F5F5F5"/>
<path d="M468.62 42.9757C468.62 43.1746 468.581 43.3715 468.506 43.5551C468.431 43.7387 468.321 43.9054 468.182 44.0455C468.044 44.1856 467.88 44.2964 467.699 44.3715C467.518 44.4466 467.325 44.4844 467.13 44.483H461.236V50.4894C461.254 50.699 461.229 50.9101 461.162 51.1093C461.096 51.3085 460.989 51.4914 460.85 51.6465C460.71 51.8015 460.541 51.9253 460.352 52.01C460.163 52.0947 459.958 52.1384 459.752 52.1384C459.546 52.1384 459.341 52.0947 459.152 52.01C458.963 51.9253 458.794 51.8015 458.654 51.6465C458.515 51.4914 458.408 51.3085 458.342 51.1093C458.275 50.9101 458.25 50.699 458.268 50.4894V44.4942H452.374C451.982 44.4942 451.606 44.3354 451.329 44.0528C451.051 43.7701 450.896 43.3867 450.896 42.987C450.898 42.5882 451.055 42.2065 451.332 41.9245C451.609 41.6424 451.983 41.4827 452.374 41.4798H458.268V35.4733C458.3 35.0946 458.47 34.742 458.745 34.485C459.02 34.228 459.379 34.0854 459.752 34.0854C460.125 34.0854 460.484 34.228 460.759 34.485C461.034 34.742 461.204 35.0946 461.236 35.4733V41.4798H467.13C467.521 41.4797 467.897 41.6366 468.175 41.9165C468.454 42.1964 468.614 42.5769 468.62 42.9757Z" fill="#F5F5F5"/>
<path d="M357.674 240.771C357.671 241.172 357.513 241.555 357.234 241.838C356.954 242.12 356.577 242.278 356.184 242.278H350.28V248.285C350.297 248.494 350.272 248.706 350.206 248.905C350.139 249.104 350.033 249.287 349.893 249.442C349.754 249.597 349.584 249.721 349.395 249.805C349.206 249.89 349.002 249.934 348.795 249.934C348.589 249.934 348.385 249.89 348.196 249.805C348.007 249.721 347.837 249.597 347.697 249.442C347.558 249.287 347.451 249.104 347.385 248.905C347.318 248.706 347.293 248.494 347.311 248.285V242.278H341.418C341.024 242.278 340.647 242.12 340.368 241.838C340.089 241.555 339.931 241.172 339.928 240.771C339.933 240.371 340.093 239.99 340.371 239.708C340.65 239.426 341.025 239.267 341.418 239.264H347.311V233.258C347.343 232.879 347.513 232.526 347.788 232.269C348.063 232.012 348.422 231.87 348.795 231.87C349.168 231.87 349.528 232.012 349.802 232.269C350.077 232.526 350.248 232.879 350.28 233.258V239.264H356.173C356.567 239.264 356.946 239.422 357.226 239.704C357.507 239.986 357.668 240.369 357.674 240.771Z" fill="#F5F5F5"/>
<path d="M470.375 94.5477C468.278 89.5536 462.981 80.2178 452.033 77.6757C442.023 75.3474 434.452 88.2488 428.25 89.1936C422.048 90.1385 422.732 87.2927 410.305 82.5461C399.689 78.4743 392.57 89.0474 390.043 94.5477H470.375Z" fill="#F5F5F5"/>
<path d="M246.496 36.8343C246.496 36.8343 246.496 25.4739 235.548 24.9902C230.306 24.7653 223.916 29.1295 219.877 22.2232C215.186 14.2034 206.987 9.42305 199.603 12.5275C191.448 15.9019 186.824 29.107 178.856 28.0272C170.887 26.9474 155.68 21.5484 147.833 36.8343H246.496Z" fill="#F5F5F5"/>
<path d="M272.133 411.358C401.348 411.358 506.098 408.301 506.098 404.53C506.098 400.76 401.348 397.703 272.133 397.703C142.917 397.703 38.167 400.76 38.167 404.53C38.167 408.301 142.917 411.358 272.133 411.358Z" fill="#F0F0F0"/>
<path d="M406.983 352.272C409.204 359.016 409.674 366.231 408.348 373.215C407.023 380.199 403.946 386.714 399.417 392.127C394.888 397.539 389.062 401.665 382.505 404.103C375.949 406.541 368.884 407.207 362 406.038C358.861 405.489 355.794 404.572 352.862 403.304C351.968 402.911 351.085 402.494 350.224 402.045C346.412 400.055 342.936 397.457 339.928 394.351C339.332 393.744 338.758 393.114 338.206 392.473C334.723 388.395 332.061 383.66 330.37 378.536C330.216 378.053 330.061 377.569 329.929 377.074C328.095 370.729 327.787 364.027 329.03 357.535C330.272 351.043 333.029 344.951 337.068 339.773C341.107 334.596 346.309 330.485 352.235 327.787C358.161 325.09 364.637 323.886 371.116 324.276C372.098 324.344 373.058 324.434 374.029 324.569C378.213 325.141 382.283 326.379 386.092 328.235C386.919 328.64 387.747 329.079 388.553 329.54C396.795 334.273 403.14 341.81 406.475 350.833C406.652 351.305 406.817 351.789 406.983 352.272Z" fill="#407BFF"/>
<path d="M406.983 352.272C409.204 359.016 409.674 366.231 408.348 373.215C407.023 380.199 403.946 386.714 399.417 392.127C394.888 397.539 389.062 401.665 382.505 404.103C375.949 406.541 368.884 407.207 362 406.038C358.861 405.489 355.794 404.572 352.862 403.304C351.968 402.911 351.085 402.494 350.224 402.045C346.412 400.055 342.936 397.457 339.928 394.351C339.332 393.744 338.758 393.114 338.206 392.473C334.723 388.395 332.061 383.66 330.37 378.536C330.216 378.053 330.061 377.569 329.929 377.074C328.095 370.729 327.787 364.027 329.03 357.535C330.272 351.043 333.029 344.951 337.068 339.773C341.107 334.596 346.309 330.485 352.235 327.787C358.161 325.09 364.637 323.886 371.116 324.276C372.098 324.344 373.058 324.434 374.029 324.569C378.213 325.141 382.283 326.379 386.092 328.235C386.919 328.64 387.747 329.079 388.553 329.54C396.795 334.273 403.14 341.81 406.475 350.833C406.652 351.305 406.817 351.789 406.983 352.272Z" fill="#407BFF"/>
<path opacity="0.6" d="M399.743 356.344C399.445 355.568 399.125 354.814 398.772 354.094C395.644 347.439 390.412 342.048 383.918 338.786C383.09 338.37 382.251 337.987 381.39 337.661C377.386 336.062 373.108 335.297 368.809 335.412C367.735 335.434 366.663 335.513 365.598 335.648C363.465 335.922 361.364 336.415 359.329 337.121C351.457 339.829 344.909 345.52 341.042 353.014C337.175 360.509 336.286 369.233 338.559 377.378L338.062 375.96C336.661 371.851 336.073 367.499 336.332 363.156C336.591 358.813 337.692 354.566 339.571 350.659C341.45 346.753 344.071 343.265 347.281 340.397C350.491 337.529 354.227 335.338 358.272 333.95C362.318 332.562 366.594 332.006 370.852 332.312C375.11 332.619 379.267 333.783 383.081 335.737C386.895 337.69 390.292 340.395 393.074 343.695C395.856 346.995 397.969 350.824 399.291 354.961C399.456 355.388 399.611 355.872 399.743 356.344Z" fill="black"/>
<g opacity="0.3">
<path d="M378.973 396.601C378.609 396.736 378.245 396.848 377.869 396.96L376.766 397.275L376.49 397.354L375.276 397.635H375.099C373.788 397.911 372.461 398.099 371.126 398.198C370.674 398.198 370.232 398.265 369.78 398.265C368.886 398.265 368.003 398.265 367.109 398.265L366.248 398.209H365.785L365.101 398.13C364.747 398.13 364.38 398.085 363.997 397.995C363.545 397.928 363.103 397.86 362.651 397.759C362.198 397.658 361.757 397.579 361.315 397.478C360.874 397.377 360.587 397.298 360.212 397.185L359.505 396.983L358.942 396.814L358.291 396.589L357.243 396.207C356.934 396.094 356.636 395.971 356.338 395.836L356.139 395.757C355.72 395.566 355.289 395.386 354.87 395.183C354.451 394.981 354.098 394.801 353.711 394.587H353.645L352.95 394.205L352.277 393.8L351.625 393.406L350.93 392.956L350.279 392.506L349.639 392.045C349.198 391.719 348.767 391.381 348.337 391.022L347.818 390.594C347.399 390.234 346.99 389.859 346.593 389.469L346.019 388.918C345.423 388.322 344.849 387.692 344.298 387.051L343.856 386.522C343.536 386.129 343.227 385.746 342.918 385.33V385.274C342.62 384.869 342.322 384.453 342.046 384.025L341.649 383.44L341.461 383.137C341.329 382.923 341.196 382.709 341.075 382.496L341.009 382.394C340.865 382.158 340.722 381.899 340.589 381.652C340.457 381.405 340.28 381.101 340.148 380.82C340.015 380.538 339.85 380.268 339.718 379.987C339.585 379.706 339.508 379.537 339.397 379.301C339.287 379.065 339.265 379.009 339.21 378.862C339.11 378.661 339.022 378.455 338.945 378.244L338.581 377.355C336.308 369.211 337.197 360.487 341.064 352.992C344.931 345.497 351.479 339.806 359.351 337.099C361.386 336.393 363.486 335.899 365.619 335.625C366.685 335.491 367.757 335.412 368.831 335.389C373.13 335.274 377.408 336.039 381.412 337.639C382.273 337.976 383.112 338.359 383.939 338.763C390.434 342.025 395.666 347.417 398.794 354.072C399.147 354.814 399.467 355.568 399.765 356.322C402.046 364.472 401.159 373.205 397.287 380.707C393.414 388.208 386.856 393.9 378.973 396.601Z" fill="black"/>
</g>
<g opacity="0.6">
<path d="M378.774 381.641L380.485 386.826L374.029 389.076L372.395 384.127C368.224 385.38 363.826 385.645 359.538 384.903L360.366 375.668C364.216 376.457 368.2 376.237 371.943 375.027C375.011 373.981 375.894 372.946 375.53 371.821C374.172 367.716 357.53 377.108 353.513 364.926C351.769 359.651 354.053 353.926 361.238 350.304L359.56 345.209L366.017 342.959L367.672 347.964C371.003 347.095 374.473 346.93 377.869 347.481L377.251 356.58C374.003 356.002 370.666 356.221 367.517 357.221C364.35 358.346 363.655 359.583 364.019 360.697C365.321 364.623 381.975 355.275 385.948 367.322C387.592 372.372 385.462 377.996 378.774 381.641Z" fill="black"/>
</g>
<path d="M378.024 379.987L379.735 385.173L373.268 387.422L371.634 382.473C367.462 383.723 363.064 383.985 358.777 383.238L359.616 374.015C363.463 374.794 367.441 374.573 371.182 373.373C374.261 372.316 375.144 371.281 374.769 370.168C373.411 366.051 356.769 375.454 352.752 363.262C351.008 357.986 353.304 352.261 360.477 348.639L358.777 343.488L365.245 341.238L366.889 346.232C370.221 345.369 373.69 345.204 377.086 345.748L376.468 354.859C373.22 354.284 369.885 354.499 366.734 355.489C363.567 356.614 362.872 357.851 363.247 358.976C364.538 362.902 381.192 353.543 385.165 365.601C386.831 370.674 384.712 376.287 378.024 379.987Z" fill="#407BFF"/>
<path d="M187.21 182.091C185.834 188.1 183.153 193.718 179.363 198.53C175.573 203.343 170.771 207.226 165.312 209.895C159.853 212.563 153.875 213.949 147.821 213.949C141.766 213.949 135.789 212.564 130.33 209.896C127.054 208.298 124.009 206.251 121.28 203.81C118.885 201.669 116.744 199.249 114.901 196.6C114.338 195.791 113.797 194.958 113.312 194.115C111.093 190.384 109.469 186.318 108.5 182.068C108.312 181.224 108.147 180.392 108.003 179.537C107.133 174.205 107.306 168.75 108.511 163.486C108.622 162.992 108.743 162.497 108.886 162.013C110.587 155.628 113.772 149.754 118.172 144.888C122.571 140.022 128.056 136.308 134.161 134.059C140.267 131.811 146.814 131.094 153.249 131.97C159.684 132.845 165.817 135.287 171.13 139.09C171.925 139.663 172.697 140.214 173.448 140.889C176.72 143.611 179.55 146.841 181.835 150.461C182.332 151.249 182.817 152.059 183.259 152.88C186.544 158.942 188.279 165.75 188.302 172.676C188.298 175.318 188.051 177.954 187.563 180.55C187.419 181.09 187.32 181.596 187.21 182.091Z" fill="#407BFF"/>
<path d="M187.21 182.091C185.834 188.1 183.153 193.718 179.363 198.53C175.573 203.343 170.771 207.226 165.312 209.895C159.853 212.563 153.875 213.949 147.821 213.949C141.766 213.949 135.789 212.564 130.33 209.896C127.054 208.298 124.009 206.251 121.28 203.81C118.885 201.669 116.744 199.249 114.901 196.6C114.338 195.791 113.797 194.958 113.312 194.115C111.093 190.384 109.469 186.318 108.5 182.068C108.312 181.224 108.147 180.392 108.003 179.537C107.133 174.205 107.306 168.75 108.511 163.486C108.622 162.992 108.743 162.497 108.886 162.013C110.587 155.628 113.772 149.754 118.172 144.888C122.571 140.022 128.056 136.308 134.161 134.059C140.267 131.811 146.814 131.094 153.249 131.97C159.684 132.845 165.817 135.287 171.13 139.09C171.925 139.663 172.697 140.214 173.448 140.889C176.72 143.611 179.55 146.841 181.835 150.461C182.332 151.249 182.817 152.059 183.259 152.88C186.544 158.942 188.279 165.75 188.302 172.676C188.298 175.318 188.051 177.954 187.563 180.55C187.419 181.09 187.32 181.596 187.21 182.091Z" fill="#407BFF"/>
<path opacity="0.6" d="M178.944 181.686C179.087 180.876 179.208 180.055 179.286 179.234C180.034 171.893 178.339 164.509 174.474 158.267C173.988 157.465 173.47 156.689 172.918 155.939C170.335 152.431 167.089 149.487 163.372 147.278C162.444 146.727 161.49 146.224 160.513 145.771C156.272 143.799 151.662 142.786 147 142.803C142.338 142.819 137.735 143.864 133.507 145.866C129.278 147.867 125.526 150.779 122.507 154.399C119.487 158.019 117.273 162.263 116.016 166.838C116.115 166.343 116.214 165.848 116.325 165.354C118.47 157.079 123.692 149.981 130.884 145.564C138.076 141.147 146.674 139.758 154.854 141.691C163.034 143.625 170.154 148.729 174.705 155.922C179.255 163.115 180.878 171.831 179.231 180.223C179.197 180.718 179.065 181.213 178.944 181.686Z" fill="black"/>
<g opacity="0.3">
<path d="M140.538 204.856C140.163 204.778 139.799 204.676 139.434 204.575L138.331 204.249L138.055 204.159L136.874 203.754L136.708 203.687C135.451 203.218 134.224 202.669 133.033 202.044C132.636 201.831 132.239 201.617 131.853 201.381C131.069 200.931 130.319 200.458 129.645 199.941L128.95 199.435L128.564 199.142L128.023 198.715C127.747 198.501 127.471 198.276 127.195 198.029C126.919 197.781 126.5 197.433 126.169 197.107C125.838 196.78 125.496 196.477 125.176 196.151C124.856 195.824 124.657 195.611 124.403 195.329C124.149 195.048 124.061 194.969 123.907 194.778C123.752 194.587 123.642 194.475 123.509 194.328L123.068 193.788L122.373 192.9C122.174 192.641 121.975 192.382 121.799 192.113L121.666 191.933C121.401 191.55 121.137 191.156 120.883 190.808C120.629 190.459 120.419 190.065 120.198 189.683V189.627C120.066 189.402 119.934 189.166 119.812 188.929C119.691 188.693 119.558 188.457 119.437 188.221L119.084 187.535C118.973 187.287 118.841 187.04 118.731 186.792L118.411 186.05C118.3 185.814 118.201 185.566 118.102 185.319C117.892 184.813 117.704 184.295 117.517 183.755L117.296 183.114C117.119 182.585 116.965 182.046 116.832 181.517C116.755 181.247 116.689 180.988 116.623 180.73C116.424 179.897 116.259 179.065 116.115 178.221L116.016 177.546C115.938 177.04 115.883 176.534 115.828 176.028V175.949C115.828 175.443 115.74 174.926 115.718 174.419V173.711V173.283C115.718 173.036 115.718 172.777 115.718 172.53V172.417C115.718 172.125 115.718 171.844 115.718 171.551C115.718 171.259 115.718 170.921 115.718 170.606C115.718 170.291 115.718 169.977 115.784 169.673C115.85 169.369 115.784 169.167 115.872 168.919C115.961 168.672 115.872 168.593 115.872 168.436C115.872 168.278 115.927 167.997 115.961 167.772C115.994 167.547 116.06 167.142 116.115 166.827C117.372 162.252 119.587 158.008 122.606 154.388C125.625 150.767 129.378 147.856 133.606 145.854C137.834 143.853 142.437 142.808 147.099 142.791C151.761 142.775 156.371 143.788 160.613 145.76C161.59 146.213 162.544 146.716 163.471 147.267C167.189 149.475 170.434 152.42 173.017 155.928C173.569 156.678 174.088 157.454 174.573 158.256C178.423 164.503 180.102 171.887 179.341 179.222C179.264 180.043 179.142 180.865 178.999 181.674C176.745 189.839 171.49 196.804 164.327 201.122C157.164 205.439 148.644 206.777 140.538 204.856Z" fill="black"/>
</g>
<g opacity="0.6">
<path d="M148.076 192.023L146.862 197.343L140.262 195.779L141.366 190.695C137.181 189.546 133.308 187.438 130.043 184.531L135.495 177.119C138.368 179.842 141.873 181.777 145.681 182.743C148.837 183.497 150.096 183.092 150.383 181.933C151.343 177.715 132.338 176.815 135.186 164.285C136.422 158.864 141.322 155.219 149.29 155.939L150.482 150.698L157.104 152.272L155.934 157.413C159.215 158.455 162.253 160.17 164.862 162.452L159.653 169.864C157.179 167.643 154.226 166.047 151.034 165.207C147.789 164.431 146.531 165.151 146.266 166.332C145.35 170.37 164.343 171.315 161.529 183.699C160.37 188.806 155.713 192.405 148.076 192.023Z" fill="black"/>
</g>
<path d="M148.285 190.155L147.071 195.487L140.449 193.912L141.553 188.828C137.358 187.664 133.481 185.536 130.219 182.608L135.671 175.196C138.544 177.919 142.049 179.854 145.857 180.82C149.013 181.562 150.271 181.157 150.558 180.01C151.518 175.78 132.514 174.881 135.362 162.35C136.598 156.929 141.498 153.285 149.466 154.004L150.658 148.774L157.279 150.338L156.109 155.478C159.391 156.521 162.429 158.235 165.038 160.517L159.829 167.941C157.359 165.711 154.405 164.111 151.209 163.273C147.965 162.508 146.707 163.273 146.442 164.398C145.526 168.424 164.519 169.369 161.705 181.753C160.579 186.983 155.878 190.628 148.285 190.155Z" fill="#407BFF"/>
<path d="M462.627 312.398L474.523 324.524L396.752 403.788H417.058L484.677 334.872L496.971 347.391L501.915 307.359L462.627 312.398Z" fill="#407BFF"/>
<g opacity="0.3">
<path d="M462.627 312.398L474.523 324.524L396.752 403.788H417.058L484.677 334.872L496.971 347.391L501.915 307.359L462.627 312.398Z" fill="white"/>
</g>
<path d="M164.133 276.832L176.03 288.969L63.3623 403.788H83.6577L186.183 299.317L198.478 311.836L203.422 271.793L164.133 276.832Z" fill="#407BFF"/>
<g opacity="0.3">
<path d="M164.133 276.832L176.03 288.969L63.3623 403.788H83.6577L186.183 299.317L198.478 311.836L203.422 271.793L164.133 276.832Z" fill="white"/>
</g>
<path d="M211.776 62.6821L214.988 61.7485L212.935 54.4824L209.227 55.6072C208.165 54.382 206.834 53.43 205.342 52.8289V49.0046H197.926V52.8289C196.762 53.299 195.693 53.9812 194.769 54.8423L191.458 53.2226L188.214 59.9714L191.47 61.5911C191.47 61.861 191.47 62.1422 191.47 62.4122C191.47 64.1803 191.915 65.919 192.761 67.4625L190.322 70.5782L196.116 75.2911L198.488 72.2654C199.504 72.6009 200.566 72.7717 201.634 72.7716C202.414 72.7701 203.192 72.6758 203.951 72.4904L206.092 75.561L212.14 71.1856L210.054 68.1936C211.135 66.5628 211.733 64.6496 211.776 62.6821ZM194.957 62.4122C194.957 61.0798 195.344 59.7773 196.069 58.6687C196.794 57.5601 197.825 56.6951 199.032 56.1827C200.239 55.6703 201.567 55.5334 202.85 55.7893C204.133 56.0451 205.313 56.6823 206.241 57.6205C207.17 58.5588 207.805 59.756 208.066 61.0614C208.328 62.3668 208.205 63.722 207.712 64.9561C207.219 66.1902 206.379 67.2481 205.297 67.9964C204.216 68.7446 202.941 69.1498 201.634 69.161C199.873 69.1581 198.185 68.4479 196.935 67.1845C195.685 65.9211 194.974 64.2063 194.957 62.4122Z" fill="#407BFF"/>
<path opacity="0.6" d="M211.776 62.6821L214.988 61.7485L212.935 54.4824L209.227 55.6072C208.165 54.382 206.834 53.43 205.342 52.8289V49.0046H197.926V52.8289C196.762 53.299 195.693 53.9812 194.769 54.8423L191.458 53.2226L188.214 59.9714L191.47 61.5911C191.47 61.861 191.47 62.1422 191.47 62.4122C191.47 64.1803 191.915 65.919 192.761 67.4625L190.322 70.5782L196.116 75.2911L198.488 72.2654C199.504 72.6009 200.566 72.7717 201.634 72.7716C202.414 72.7701 203.192 72.6758 203.951 72.4904L206.092 75.561L212.14 71.1856L210.054 68.1936C211.135 66.5628 211.733 64.6496 211.776 62.6821ZM194.957 62.4122C194.957 61.0798 195.344 59.7773 196.069 58.6687C196.794 57.5601 197.825 56.6951 199.032 56.1827C200.239 55.6703 201.567 55.5334 202.85 55.7893C204.133 56.0451 205.313 56.6823 206.241 57.6205C207.17 58.5588 207.805 59.756 208.066 61.0614C208.328 62.3668 208.205 63.722 207.712 64.9561C207.219 66.1902 206.379 67.2481 205.297 67.9964C204.216 68.7446 202.941 69.1498 201.634 69.161C199.873 69.1581 198.185 68.4479 196.935 67.1845C195.685 65.9211 194.974 64.2063 194.957 62.4122Z" fill="white"/>
<path d="M371.557 205.048L374.758 204.114L372.716 196.904L369.008 198.029C367.946 196.804 366.615 195.852 365.123 195.251V191.28H357.674V195.104C356.509 195.572 355.439 196.254 354.517 197.118L351.207 195.498L347.962 202.247L351.273 203.867C351.273 204.137 351.273 204.406 351.273 204.688C351.268 206.457 351.713 208.197 352.564 209.738L350.114 212.854L355.919 217.567L358.292 214.541C359.308 214.876 360.369 215.047 361.437 215.047C362.218 215.045 362.995 214.951 363.755 214.766L365.896 217.837L371.943 213.461L369.813 210.548C370.9 208.923 371.505 207.013 371.557 205.048ZM354.738 204.778C354.749 203.448 355.145 202.151 355.877 201.05C356.609 199.948 357.643 199.092 358.851 198.588C360.059 198.085 361.386 197.956 362.665 198.218C363.944 198.48 365.119 199.122 366.042 200.062C366.964 201.002 367.594 202.2 367.851 203.504C368.109 204.808 367.982 206.16 367.488 207.391C366.993 208.622 366.153 209.676 365.073 210.422C363.992 211.168 362.72 211.572 361.415 211.583C360.536 211.59 359.665 211.419 358.851 211.08C358.038 210.741 357.299 210.24 356.677 209.606C356.056 208.973 355.564 208.22 355.231 207.391C354.898 206.562 354.731 205.673 354.738 204.778Z" fill="#407BFF"/>
<path opacity="0.6" d="M371.557 205.048L374.758 204.114L372.716 196.904L369.008 198.029C367.946 196.804 366.615 195.852 365.123 195.251V191.28H357.674V195.104C356.509 195.572 355.439 196.254 354.517 197.118L351.207 195.498L347.962 202.247L351.273 203.867C351.273 204.137 351.273 204.406 351.273 204.688C351.268 206.457 351.713 208.197 352.564 209.738L350.114 212.854L355.919 217.567L358.292 214.541C359.308 214.876 360.369 215.047 361.437 215.047C362.218 215.045 362.995 214.951 363.755 214.766L365.896 217.837L371.943 213.461L369.813 210.548C370.9 208.923 371.505 207.013 371.557 205.048ZM354.738 204.778C354.749 203.448 355.145 202.151 355.877 201.05C356.609 199.948 357.643 199.092 358.851 198.588C360.059 198.085 361.386 197.956 362.665 198.218C363.944 198.48 365.119 199.122 366.042 200.062C366.964 201.002 367.594 202.2 367.851 203.504C368.109 204.808 367.982 206.16 367.488 207.391C366.993 208.622 366.153 209.676 365.073 210.422C363.992 211.168 362.72 211.572 361.415 211.583C360.536 211.59 359.665 211.419 358.851 211.08C358.038 210.741 357.299 210.24 356.677 209.606C356.056 208.973 355.564 208.22 355.231 207.391C354.898 206.562 354.731 205.673 354.738 204.778Z" fill="white"/>
<path d="M449.826 206.105L444.881 246.136L433.238 234.27L318.165 351.541H199.769L148.495 403.788H128.211L193.821 336.919H312.227L423.085 223.922L410.548 211.144L449.826 206.105Z" fill="#407BFF"/>
<path d="M288.654 312.229V328.955L295.276 329.495L298.521 313.838L288.654 312.229Z" fill="#FF8B7B"/>
<path d="M293.355 327.921C293.355 327.921 295.441 323.837 296.666 324.276C297.891 324.715 298.399 329.664 298.399 329.664C298.399 329.664 305.021 331.914 306.941 332.06C308.861 332.206 310.318 333.252 310.561 336.975H287.749C287.749 336.975 287.904 328.584 287.948 327.144C287.992 325.705 290 327.504 290 327.504L293.355 327.921Z" fill="#263238"/>
<path d="M288.003 330.327C288.413 330.556 288.773 330.869 289.061 331.245C289.348 331.621 289.557 332.054 289.673 332.515C289.79 332.977 289.813 333.458 289.74 333.93C289.667 334.401 289.5 334.851 289.25 335.254C289.235 335.274 289.225 335.297 289.22 335.321C289.214 335.345 289.214 335.37 289.218 335.394C289.222 335.419 289.232 335.442 289.246 335.463C289.259 335.483 289.277 335.5 289.297 335.514C289.318 335.527 289.341 335.536 289.365 335.539C289.389 335.543 289.414 335.542 289.437 335.535C289.461 335.529 289.483 335.517 289.502 335.502C289.521 335.487 289.536 335.467 289.548 335.445C289.824 335.006 290.01 334.514 290.094 334C290.177 333.485 290.157 332.958 290.034 332.452C289.911 331.946 289.688 331.47 289.379 331.054C289.069 330.639 288.68 330.292 288.234 330.035C288.047 329.923 287.826 330.238 288.014 330.35L288.003 330.327Z" fill="white"/>
<path d="M287.97 335.636L305.859 335.827H310.02C310.252 335.827 310.307 335.456 310.075 335.456L292.175 335.265H288.014C287.782 335.265 287.738 335.636 288.014 335.636H287.97Z" fill="white"/>
<path d="M297.417 331.126C297.588 330.857 297.812 330.626 298.075 330.448C298.337 330.27 298.633 330.149 298.943 330.092C299.253 330.035 299.572 330.044 299.879 330.117C300.186 330.19 300.475 330.327 300.728 330.519C300.893 330.665 301.114 330.339 300.948 330.204C299.778 329.225 298.178 329.641 297.108 330.935C296.953 331.126 297.24 331.317 297.406 331.126H297.417Z" fill="white"/>
<path d="M299.303 331.722C299.477 331.455 299.702 331.226 299.965 331.05C300.228 330.875 300.523 330.755 300.833 330.699C301.143 330.644 301.461 330.653 301.767 330.726C302.073 330.799 302.361 330.935 302.614 331.126C302.791 331.272 303.012 330.946 302.835 330.811C301.665 329.821 300.065 330.249 298.994 331.542C298.84 331.733 299.127 331.913 299.292 331.722H299.303Z" fill="white"/>
<path d="M301.257 332.33C301.43 332.062 301.656 331.834 301.919 331.658C302.182 331.482 302.477 331.362 302.787 331.307C303.096 331.251 303.414 331.26 303.72 331.333C304.026 331.407 304.315 331.543 304.568 331.733C304.744 331.868 304.965 331.553 304.788 331.407C303.619 330.429 302.018 330.856 300.959 332.15C300.793 332.341 301.08 332.521 301.246 332.33H301.257Z" fill="white"/>
<path d="M284.67 146.468C284.858 149.449 284.46 158.616 284.858 163.531C285.597 172.912 286.601 185.071 287.396 197.275C288.323 211.38 288.985 225.496 288.654 235.305C287.804 260.466 287.992 317.505 287.992 317.505H298.708C298.708 317.505 311.289 260.815 313.64 235.305C315.604 214.147 314.567 159.651 314.236 146.446L284.67 146.468Z" fill="#263238"/>
<path opacity="0.2" d="M284.836 163.531C285.575 172.912 286.58 185.071 287.374 197.275C292.649 181.371 287.749 157.334 287.749 157.334L284.836 163.531Z" fill="black"/>
<path d="M287.064 317.865H299.635L300.551 313.782L286.733 313.613L287.064 317.865Z" fill="#407BFF"/>
<path d="M229.511 309.114L227.006 325.637L233.473 327.201L239.024 312.23L229.511 309.114Z" fill="#FF8B7B"/>
<path d="M231.862 325.345C231.862 325.345 234.533 321.644 235.681 322.263C236.829 322.881 236.586 327.887 236.586 327.887C236.586 327.887 242.843 331.171 244.675 331.587C246.507 332.003 247.832 333.297 247.512 337.009L224.965 333.454C224.965 333.454 226.377 325.187 226.631 323.77C226.885 322.353 228.607 324.445 228.607 324.445L231.862 325.345Z" fill="#263238"/>
<path d="M226.157 326.897C226.524 327.188 226.829 327.551 227.054 327.966C227.279 328.381 227.418 328.838 227.463 329.31C227.509 329.782 227.459 330.258 227.318 330.709C227.177 331.161 226.947 331.578 226.642 331.936C226.499 332.127 226.753 332.363 226.907 332.161C227.247 331.771 227.505 331.314 227.665 330.819C227.825 330.324 227.885 329.801 227.839 329.281C227.794 328.762 227.645 328.258 227.401 327.799C227.157 327.341 226.824 326.938 226.422 326.616C226.256 326.469 225.991 326.751 226.157 326.897Z" fill="white"/>
<path d="M225.329 332.138L242.987 335.108L247.092 335.794C247.324 335.794 247.423 335.479 247.192 335.445L229.534 332.465L225.428 331.778C225.197 331.778 225.097 332.093 225.329 332.138Z" fill="white"/>
<path d="M235.339 329.146C235.55 328.906 235.808 328.713 236.095 328.578C236.383 328.443 236.694 328.37 237.011 328.363C237.327 328.355 237.642 328.414 237.935 328.535C238.228 328.657 238.494 328.838 238.716 329.068C238.859 329.236 239.124 328.955 238.981 328.787C238.719 328.528 238.409 328.327 238.069 328.193C237.729 328.059 237.366 327.996 237.002 328.007C236.638 328.019 236.279 328.105 235.948 328.26C235.617 328.415 235.32 328.636 235.074 328.91C234.886 329.079 235.151 329.315 235.339 329.146Z" fill="white"/>
<path d="M237.115 330.035C237.327 329.795 237.584 329.602 237.872 329.467C238.159 329.332 238.471 329.259 238.787 329.251C239.103 329.244 239.418 329.303 239.711 329.424C240.005 329.545 240.27 329.726 240.492 329.956C240.636 330.125 240.901 329.844 240.757 329.675C239.742 328.55 238.097 328.696 236.85 329.81C236.663 329.979 236.928 330.204 237.115 330.035Z" fill="white"/>
<path d="M238.947 330.935C239.16 330.695 239.419 330.502 239.708 330.369C239.997 330.235 240.31 330.162 240.627 330.156C240.944 330.15 241.259 330.209 241.553 330.332C241.847 330.454 242.113 330.636 242.335 330.867C242.479 331.025 242.744 330.744 242.6 330.586C241.585 329.461 239.94 329.596 238.693 330.71C238.506 330.879 238.771 331.104 238.947 330.935Z" fill="white"/>
<path d="M267.233 237.487C260.611 262.232 238.362 315.66 238.362 315.66L227.801 313.793C227.801 313.793 238.837 258.161 243.869 233.528C248.438 211.29 253.46 160.213 255.082 145.006L290.508 148.257C288.621 161.282 272.729 216.982 267.233 237.487Z" fill="#263238"/>
<path d="M226.818 314.007L239.212 316.211L240.801 312.342L227.006 309.777L226.818 314.007Z" fill="#407BFF"/>
<path d="M253.018 145.006C252.875 146.592 256.053 150.158 257.609 150.225L312.602 151.204C314.258 151.282 316.2 150.079 316.145 148.437C315.582 128.562 311.035 60.1964 309.523 55.8884C307.636 50.5906 297.174 48.6785 292.605 48.2623C285.388 47.766 278.147 47.766 270.93 48.2623C267.409 48.431 264.198 48.746 261.527 49.0834C260.567 49.2039 259.64 49.5206 258.803 50.0146C257.965 50.5085 257.234 51.1696 256.653 51.9582C256.072 52.7468 255.653 53.6467 255.421 54.6042C255.189 55.5617 255.149 56.557 255.303 57.5306C256.49 65.1374 257.263 72.8052 257.62 80.499C257.62 80.8814 257.62 81.2413 257.62 81.6238C257.742 84.2108 257.863 86.7641 257.874 89.2949C257.874 89.7898 257.874 90.3072 257.874 90.8021C257.676 116.481 254.398 129.09 253.018 145.006Z" fill="white"/>
<path d="M274.903 151.462C267.553 151.924 248.097 151.462 248.097 148.335C248.097 143.116 255.094 107.022 255.756 99.8005C255.855 98.6757 255.954 97.2022 256.065 95.4138C256.252 92.0394 256.44 87.7764 256.617 83.1423C257.157 68.6999 257.599 51.153 257.599 51.153C257.599 51.153 258.029 47.1825 275.135 48.0261C275.135 48.0261 279.395 69.2173 279.55 87.8664C279.704 106.516 277.409 151.305 274.903 151.462Z" fill="#407BFF"/>
<path d="M292.561 48.2623C292.561 48.2623 300.098 68.5873 299.27 99.373C298.443 130.159 298.068 152.576 298.068 152.576C298.068 152.576 316.123 153.701 317.701 150.967C318.551 149.471 316.465 122.623 315.273 106.887C313.915 88.9687 311.19 59.544 310.163 56.0121C308.419 49.9045 292.561 48.2623 292.561 48.2623Z" fill="#407BFF"/>
<path d="M382.041 43.2232C376.744 47.9698 371.336 52.5252 365.741 56.912C362.96 59.1615 360.113 61.2537 357.21 63.3795C355.753 64.4368 354.275 65.4604 352.741 66.4952C351.207 67.53 349.661 68.5311 347.719 69.5547C346.525 70.1906 345.262 70.6814 343.956 71.0169C342.794 71.2987 341.614 71.4979 340.424 71.613C338.393 71.8135 336.35 71.8774 334.31 71.8043C330.577 71.637 326.856 71.2615 323.164 70.6795C320.041 70.2183 316.984 69.6559 313.949 69.0148L311.841 68.5536C308.53 67.8225 305.307 66.9789 302.019 66.034L305.263 51.4117C308.634 52.6345 312.096 53.5787 315.615 54.2349C318.926 54.9886 322.237 55.6972 325.492 56.3158C328.748 56.9345 332.015 57.4406 335.105 57.7668C336.545 57.9219 337.993 57.9933 339.442 57.9805C339.992 57.9698 340.541 57.9285 341.086 57.8568C341.468 57.8095 341.84 57.7033 342.19 57.5418C343.415 57.0469 344.916 56.2821 346.362 55.5172C347.807 54.7523 349.308 53.8863 350.776 53.0539C353.767 51.3892 356.747 49.6008 359.748 47.8573C365.73 44.3142 371.789 40.7599 377.848 37.273L382.041 43.2232Z" fill="#407BFF"/>
<path opacity="0.2" d="M313.949 69.0597L311.841 68.5986L310.737 60.6125L313.949 69.0597Z" fill="black"/>
<path d="M390.584 29.3095C390.584 29.3095 391.566 32.6164 390.838 34.371C390.109 36.1257 386.666 37.0031 386.666 37.0031C386.666 37.0031 388.575 31.5591 390.584 29.3095Z" fill="#FF8B7B"/>
<path opacity="0.2" d="M390.584 29.3095C390.584 29.3095 391.566 32.6164 390.838 34.371C390.109 36.1257 386.666 37.0031 386.666 37.0031C386.666 37.0031 388.575 31.5591 390.584 29.3095Z" fill="black"/>
<path d="M390.219 32.4139C388.96 33.6008 387.917 35.0061 387.14 36.5644C388.774 37.1156 391.422 35.7658 392.018 36.4407C392.614 37.1156 390.915 38.2629 388.255 39.6126C386.853 40.2987 386.368 41.9297 384.503 42.5933C383.7 42.8793 382.877 43.1012 382.041 43.2569C379.989 42.4696 377.771 37.318 377.771 37.318L382.671 33.505C382.671 33.505 387.184 30.0068 389.094 29.3095C391.003 28.6121 395.98 25.3052 396.322 26.1488C396.808 27.3298 393.42 30.0068 390.219 32.4139Z" fill="#FF8B7B"/>
<path opacity="0.2" d="M265.842 70.7582L256.075 95.4137C256.263 92.0393 256.45 87.7764 256.627 83.1422L265.842 70.7582Z" fill="black"/>
<path d="M293.212 9.783C291.213 9.26219 289.13 9.16618 287.093 9.50094C285.056 9.8357 283.108 10.5941 281.371 11.7289C279.097 13.2474 277.199 15.4182 277.541 18.3315C278.476 24.3979 279.743 30.4062 281.337 36.3282L302.88 22.9319C302.88 22.9319 306.091 18.9276 301.092 13.5961C299.481 11.9201 296.203 10.5366 293.212 9.783Z" fill="#263238"/>
<path d="M291.203 52.1428C290.892 50.7375 290.817 49.2883 290.983 47.8574L292.031 43.9318V43.8531L285.774 36.8794L281.469 32.054C281.712 37.1268 280.2 43.3019 278.401 48.5885C278.721 50.9393 289.57 57.2382 291.203 52.1428Z" fill="#FF8B7B"/>
<g opacity="0.2">
<path d="M292.031 43.9318L290.982 47.8574C288.61 46.7326 286.137 44.3255 285.586 41.7385C285.199 39.8713 286.038 38.1391 286.778 38.0491L292.031 43.9318Z" fill="black"/>
</g>
<path d="M301.721 35.777C301.489 36.6319 301.225 37.4642 300.949 38.2966C298.499 45.6078 289.626 46.1702 284.141 40.7599C283.648 40.2655 283.19 39.7355 282.772 39.1739C279.296 34.4385 280.201 30.8279 280.797 22.6282C280.923 20.7255 281.522 18.8869 282.537 17.2851C283.553 15.6833 284.951 14.3708 286.601 13.4711C288.25 12.5713 290.097 12.1138 291.968 12.1416C293.839 12.1694 295.672 12.6815 297.296 13.6298C303.984 17.5328 304.039 27.2398 301.721 35.777Z" fill="#FF8B7B"/>
<path d="M286.811 17.3304C286.811 17.3304 294.602 23.2806 303.652 20.5698C308.243 19.1976 307.47 9.60304 303.862 7.74712C300.915 6.22865 298.52 9.91798 298.52 9.91798C295.567 8.27142 292.209 7.53298 288.853 7.79212C282.783 8.06207 280.266 11.6277 280.266 11.6277C279.353 11.604 278.458 11.8923 277.724 12.4467C276.991 13.0011 276.46 13.7897 276.216 14.6871C275.399 17.5104 278.423 22.8981 278.423 22.8981L286.811 17.3304Z" fill="#263238"/>
<path d="M293.664 26.9587C293.576 27.5998 293.841 28.1622 294.249 28.2184C294.658 28.2747 295.066 27.8022 295.154 27.1611C295.243 26.52 294.978 25.9576 294.558 25.9013C294.139 25.8451 293.753 26.3175 293.664 26.9587Z" fill="#263238"/>
<path d="M296.633 37.183H296.854C296.916 37.1746 296.973 37.1417 297.012 37.0913C297.051 37.0409 297.07 36.977 297.063 36.9131C297.061 36.8809 297.052 36.8497 297.037 36.8213C297.022 36.7928 297.001 36.7679 296.976 36.7478C296.952 36.7278 296.923 36.7132 296.892 36.7048C296.862 36.6965 296.83 36.6946 296.799 36.6994C296.332 36.7408 295.862 36.6854 295.417 36.5364C294.971 36.3874 294.561 36.148 294.209 35.8326C293.857 35.5172 293.572 35.1323 293.37 34.7013C293.168 34.2703 293.054 33.8021 293.035 33.325C293.033 33.2928 293.024 33.2616 293.009 33.2332C292.994 33.2047 292.973 33.1798 292.948 33.1597C292.923 33.1397 292.895 33.1251 292.864 33.1167C292.834 33.1084 292.802 33.1065 292.77 33.1113C292.708 33.1197 292.651 33.1526 292.612 33.203C292.573 33.2534 292.554 33.3173 292.561 33.3812C292.618 34.4315 293.076 35.4172 293.837 36.1277C294.598 36.8382 295.602 37.217 296.633 37.183Z" fill="#263238"/>
<path d="M280.675 23.3705C280.675 23.3705 283.103 23.5055 283.191 25.6201C283.28 27.7347 283.07 28.0159 283.07 28.0159L286.017 28.2296C286.017 28.2296 284.361 21.897 286.447 22.0095C288.533 22.122 285.487 17.4541 288.367 16.6217C291.446 15.7332 299.403 15.362 302.505 20.3336C301.92 17.3263 300.275 14.6414 297.88 12.7862C294.062 10.1317 286.359 9.53553 283.224 13.3823C280.09 17.2291 280.675 23.3705 280.675 23.3705Z" fill="#263238"/>
<path d="M276.624 27.5548C276.931 29.6035 278.017 31.4464 279.648 32.6839C281.855 34.2923 283.842 32.5377 284.063 29.9394C284.217 27.611 283.279 23.9667 280.752 23.3818C280.191 23.2656 279.61 23.2939 279.062 23.4641C278.515 23.6342 278.017 23.9409 277.615 24.3563C277.213 24.7717 276.919 25.2828 276.759 25.8432C276.6 26.4037 276.58 26.9958 276.702 27.5661" fill="#FF8B7B"/>
<path d="M300.143 27.7235C300.055 28.3646 300.32 28.927 300.728 28.9833C301.136 29.0395 301.545 28.5671 301.633 27.926C301.721 27.2848 301.445 26.7224 301.037 26.6662C300.629 26.61 300.22 27.0824 300.143 27.7235Z" fill="#263238"/>
<path d="M302.493 26.16C302.44 26.1476 302.39 26.1214 302.35 26.084C302.309 26.0466 302.279 25.9992 302.261 25.9463C302.216 25.7101 302.12 25.487 301.981 25.2926C301.842 25.0982 301.662 24.9374 301.455 24.8215C301.04 24.6385 300.575 24.6106 300.142 24.7428C300.102 24.757 300.06 24.763 300.018 24.7605C299.976 24.758 299.935 24.747 299.897 24.7282C299.859 24.7093 299.825 24.6831 299.797 24.6508C299.769 24.6186 299.747 24.581 299.734 24.5403C299.709 24.4582 299.715 24.3694 299.752 24.2921C299.789 24.2147 299.854 24.1547 299.932 24.1242C300.529 23.9354 301.173 23.9754 301.742 24.2366C302.014 24.3891 302.251 24.5965 302.441 24.846C302.631 25.0955 302.769 25.3819 302.846 25.6876C302.86 25.7282 302.865 25.7712 302.862 25.8139C302.858 25.8566 302.846 25.8982 302.827 25.9361C302.807 25.974 302.78 26.0075 302.747 26.0344C302.715 26.0613 302.677 26.0811 302.636 26.0926C302.596 26.1283 302.546 26.1517 302.493 26.16Z" fill="#263238"/>
<path d="M291.998 25.1365C291.954 25.1466 291.909 25.1466 291.865 25.1365C291.826 25.1206 291.79 25.0967 291.76 25.0662C291.73 25.0357 291.707 24.9993 291.692 24.9593C291.676 24.9192 291.669 24.8763 291.67 24.8333C291.671 24.7903 291.682 24.748 291.7 24.709C291.968 24.136 292.431 23.6808 293.002 23.4268C293.298 23.3261 293.612 23.2882 293.923 23.3153C294.234 23.3423 294.536 23.4339 294.812 23.5842C294.85 23.6023 294.885 23.6281 294.914 23.6601C294.943 23.6921 294.965 23.7296 294.979 23.7705C294.994 23.8113 295 23.8547 294.998 23.898C294.996 23.9414 294.985 23.9838 294.966 24.0229C294.948 24.0614 294.921 24.0957 294.89 24.1239C294.858 24.1521 294.821 24.1736 294.781 24.1872C294.741 24.2008 294.699 24.2062 294.657 24.2031C294.615 24.2 294.574 24.1884 294.536 24.1691C294.338 24.0601 294.121 23.9929 293.897 23.9716C293.673 23.9503 293.448 23.9754 293.234 24.0454C292.816 24.2275 292.478 24.5597 292.285 24.979C292.254 25.0282 292.212 25.0686 292.161 25.0962C292.111 25.1238 292.055 25.1377 291.998 25.1365Z" fill="#263238"/>
<path d="M297.262 27.8248C298.025 29.6007 298.681 31.4225 299.226 33.28C299.326 34.0449 296.964 34.0224 296.964 34.0224L297.262 27.8248Z" fill="#FF5652"/>
<path d="M255.866 52.9302C252.147 59.5215 248.648 66.2478 245.238 73.0078C243.516 76.3822 241.85 79.7566 240.161 83.131L237.678 88.1926L236.442 90.6671L235.824 91.8707L235.537 92.4331C235.464 92.5757 235.397 92.7221 235.339 92.8717L235.173 93.2767L235.052 93.5916L234.853 94.1877L234.698 94.7164C234.323 96.0437 234.125 97.0897 233.926 98.147C233.727 99.2043 233.573 100.194 233.418 101.195C233.12 103.186 232.866 105.121 232.657 107.067C232.226 110.947 231.851 114.783 231.553 118.63C230.979 126.312 230.571 133.961 230.45 141.677C230.436 142.733 230.804 143.758 231.482 144.558C232.161 145.357 233.103 145.875 234.131 146.013C235.159 146.152 236.202 145.902 237.061 145.31C237.92 144.718 238.536 143.825 238.793 142.801C240.592 135.412 242.225 127.965 243.869 120.587C244.719 116.909 245.514 113.219 246.375 109.597C246.816 107.787 247.235 105.987 247.688 104.255C247.909 103.377 248.14 102.522 248.383 101.724C248.582 101.014 248.818 100.316 249.09 99.6318C249.107 99.5811 249.13 99.5322 249.156 99.4855C249.156 99.4855 249.156 99.4068 249.156 99.4181V99.4968V99.6093C249.12 99.6939 249.079 99.7765 249.034 99.8567L249.145 99.6768L249.365 99.3281L249.796 98.6419L251.319 96.1336L254.266 91.2183C256.186 87.9226 258.106 84.6382 259.96 81.3313C263.701 74.7175 267.332 68.0587 270.731 61.2537C271.588 59.2695 271.684 57.0303 271.001 54.9772C270.319 52.9242 268.906 51.2063 267.042 50.1619C265.178 49.1176 262.998 48.8225 260.932 49.3349C258.865 49.8473 257.062 51.13 255.877 52.9302H255.866Z" fill="#407BFF"/>
<path d="M221.047 163.16V156.108C221.047 155.991 221.092 155.88 221.173 155.798C221.254 155.715 221.363 155.669 221.477 155.669H225.241V154.544H221.488C221.079 154.544 220.686 154.71 220.396 155.006C220.106 155.301 219.943 155.701 219.943 156.119V163.16H221.047Z" fill="#263238"/>
<path d="M246.993 156.052V163.16H248.096V156.108C248.096 155.69 247.933 155.29 247.644 154.994C247.354 154.699 246.961 154.533 246.551 154.533H242.799V155.658H246.551C246.659 155.657 246.764 155.697 246.845 155.769C246.927 155.842 246.979 155.942 246.993 156.052Z" fill="#263238"/>
<path d="M262.818 166.085V201.628C262.818 202.422 262.509 203.183 261.958 203.744C261.408 204.305 260.661 204.62 259.883 204.62H209.547C208.769 204.617 208.024 204.301 207.474 203.741C206.924 203.18 206.614 202.421 206.611 201.628V166.085C206.614 165.293 206.925 164.535 207.475 163.976C208.025 163.418 208.77 163.104 209.547 163.104H259.883C260.268 163.103 260.649 163.179 261.005 163.328C261.361 163.477 261.685 163.696 261.958 163.973C262.231 164.25 262.447 164.579 262.595 164.941C262.742 165.304 262.818 165.692 262.818 166.085Z" fill="#263238"/>
<g opacity="0.5">
<path d="M262.818 166.085V201.628C262.818 202.422 262.509 203.183 261.958 203.744C261.408 204.305 260.661 204.62 259.883 204.62H209.547C208.769 204.617 208.024 204.301 207.474 203.741C206.924 203.18 206.614 202.421 206.611 201.628V166.085C206.614 165.293 206.925 164.535 207.475 163.976C208.025 163.418 208.77 163.104 209.547 163.104H259.883C260.268 163.103 260.649 163.179 261.005 163.328C261.361 163.477 261.685 163.696 261.958 163.973C262.231 164.25 262.447 164.579 262.595 164.941C262.742 165.304 262.818 165.692 262.818 166.085Z" fill="white"/>
</g>
<path d="M255.435 163.104H253.206V204.62H255.435V163.104Z" fill="#263238"/>
<path d="M216.235 163.104H214.006V204.62H216.235V163.104Z" fill="#263238"/>
<path d="M238.087 144.286C238.087 144.286 241.685 152.565 241.287 154.409C240.89 156.254 238.451 152.823 238.451 152.823L238.087 144.286Z" fill="#FF8B7B"/>
<path d="M243.958 153.15H223.685V156.94H243.958V153.15Z" fill="#263238"/>
<path opacity="0.3" d="M243.958 153.15H223.685V156.94H243.958V153.15Z" fill="white"/>
<path d="M230.692 143.026L227.889 151.462C227.326 153.869 234.963 157.39 237.91 155.309C240.238 153.678 238.23 143.892 238.23 143.892C237.136 143.137 235.879 142.663 234.566 142.512C233.253 142.361 231.923 142.538 230.692 143.026Z" fill="#FF8B7B"/>
<path d="M227.89 151.462C227.305 154.151 227.647 159.415 231.863 159.966C232.782 160.117 233.719 160.136 234.644 160.022C235.474 160.377 236.393 160.456 237.27 160.247C239.389 159.561 238.606 154.128 238.606 154.128L227.89 151.462Z" fill="#FF8B7B"/>
<path d="M279.703 44.483C279.703 44.483 273.7 43.1782 272.397 48.2623V65.0555L275.852 69.4534L273.126 72.2204L273.049 93.8053L279.427 96.0549C279.56 90.0485 280.531 79.2729 279.052 63.3346C278.503 57.0474 278.722 50.7152 279.703 44.483Z" fill="#407BFF"/>
<path opacity="0.3" d="M279.703 44.483C279.703 44.483 273.7 43.1782 272.397 48.2623V65.0555L275.852 69.4534L273.126 72.2204L273.049 93.8053L279.427 96.0549C279.56 90.0485 280.531 79.2729 279.052 63.3346C278.503 57.0474 278.722 50.7152 279.703 44.483Z" fill="black"/>
<path d="M290.982 47.8574C290.982 47.8574 293.797 50.7706 295.198 57.4294C296.6 64.0882 299.436 93.2092 299.348 96.9097L305.66 92.0844L303.1 68.9585L299.359 66.5965L302.504 62.3897C302.504 62.3897 299.613 51.7717 297.748 49.0609C295.882 46.3501 291.567 45.6865 291.567 45.6865L290.982 47.8574Z" fill="#407BFF"/>
<path opacity="0.3" d="M290.982 47.8574C290.982 47.8574 293.797 50.7706 295.198 57.4294C296.6 64.0882 299.436 93.2092 299.348 96.9097L305.66 92.0844L303.1 68.9585L299.359 66.5965L302.504 62.3897C302.504 62.3897 299.613 51.7717 297.748 49.0609C295.882 46.3501 291.567 45.6865 291.567 45.6865L290.982 47.8574Z" fill="black"/>
</svg>
