<svg width="20" height="20" viewBox="0 0 20 20" fill="none" xmlns="http://www.w3.org/2000/svg">
<rect width="20" height="20" rx="10" fill="#E3E3E2"/>
<mask id="mask0_478_19210" style="mask-type:alpha" maskUnits="userSpaceOnUse" x="4" y="4" width="12" height="12">
<rect x="4" y="4" width="12" height="12" fill="#D9D9D9"/>
</mask>
<g mask="url(#mask0_478_19210)">
<path d="M10.0001 10.0963C10.643 10.0963 11.3071 10.0355 11.9924 9.91404C12.6776 9.79256 13.2827 9.62894 13.8077 9.42317V14.0001C13.3206 14.2123 12.7315 14.3839 12.0404 14.515C11.3494 14.6461 10.6693 14.7116 10.0001 14.7116C9.33083 14.7116 8.65071 14.6461 7.95968 14.515C7.26866 14.3839 6.67956 14.2123 6.19238 14.0001V9.42317C6.71738 9.62894 7.32251 9.79256 8.00776 9.91404C8.69301 10.0355 9.35711 10.0963 10.0001 10.0963ZM13.0578 13.4424V10.452C12.6507 10.5687 12.1622 10.6635 11.5924 10.7366C11.0225 10.8097 10.4917 10.8462 10.0001 10.8462C9.50839 10.8462 8.97762 10.8097 8.40775 10.7366C7.83787 10.6635 7.34941 10.5687 6.94236 10.452V13.4424C7.33979 13.5924 7.82377 13.7164 8.39428 13.8145C8.9648 13.9126 9.50006 13.9616 10.0001 13.9616C10.5001 13.9616 11.0353 13.9126 11.6058 13.8145C12.1764 13.7164 12.6603 13.5924 13.0578 13.4424ZM10.0001 5.28857C10.4972 5.28857 10.9227 5.46557 11.2767 5.81957C11.6307 6.17357 11.8077 6.59913 11.8077 7.09625C11.8077 7.59336 11.6307 8.01892 11.2767 8.37293C10.9227 8.72693 10.4972 8.90392 10.0001 8.90392C9.50295 8.90392 9.07739 8.72693 8.72338 8.37293C8.36938 8.01892 8.19238 7.59336 8.19238 7.09625C8.19238 6.59913 8.36938 6.17357 8.72338 5.81957C9.07739 5.46557 9.50295 5.28857 10.0001 5.28857ZM10.0002 8.15395C10.2911 8.15395 10.5401 8.05037 10.7472 7.8432C10.9542 7.63603 11.0578 7.38699 11.0578 7.09607C11.0578 6.80517 10.9542 6.55618 10.747 6.34912C10.5398 6.14207 10.2908 6.03855 9.99988 6.03855C9.70897 6.03855 9.46 6.14213 9.25295 6.3493C9.04589 6.55647 8.94236 6.8055 8.94236 7.09641C8.94236 7.38733 9.04594 7.63631 9.25311 7.84336C9.46027 8.05042 9.70932 8.15395 10.0002 8.15395Z" fill="#5A5A5A"/>
</g>
</svg>
