<svg width="121" height="101" viewBox="0 0 121 101" fill="none" xmlns="http://www.w3.org/2000/svg">
<path d="M12.8728 78.5415C6.98195 71.4127 2.91724 62.3988 1.02959 53.6531C-0.297137 47.5632 -0.24079 41.0202 2.14118 35.2739C7.80667 21.524 21.2481 25.0103 31.3139 17.6393C34.6999 15.1606 37.0127 11.4842 39.8966 8.41974C44.5351 3.47278 50.6821 2.61878 57.1569 3.07182C61.1195 3.37716 64.9687 4.5579 68.4361 6.53162C71.9034 8.50534 74.9052 11.2245 77.2321 14.4993C80.2671 18.8344 82.0011 23.9506 84.3114 28.7179C86.6216 33.4852 89.8437 38.1535 94.6281 40.3172C98.2753 41.9627 102.409 41.9679 106.215 43.1682C113.072 45.311 118.509 51.578 119.754 58.7615C121.065 66.3538 117.229 72.5896 113.246 78.5493L12.8728 78.5415Z" fill="#DDF2FE"/>
<path d="M11.2206 61.6412C11.5214 62.6786 11.9202 63.6839 12.4116 64.6432L8.50054 68.5487L15.4159 75.7166L19.3244 71.8111C20.26 72.327 21.242 72.7507 22.257 73.0765L22.2058 78.6457L32.0871 78.742L32.1358 73.1676C33.1576 72.8632 34.1483 72.4595 35.094 71.9621L38.9359 75.9353L45.9896 68.9054L42.1785 64.9296C42.6859 63.9785 43.1028 62.9802 43.4233 61.9484L48.9043 62.0031L48.9965 51.9634L43.5155 51.9113C43.2157 50.8731 42.8177 49.8668 42.327 48.9067L46.2355 45.0012M46.2355 44.9882L39.3201 37.8177L35.4091 41.7232C34.4737 41.206 33.4917 40.7814 32.4764 40.4552L32.5302 34.886L22.6515 34.7922L22.5695 40.3432C21.5497 40.6511 20.5609 41.0564 19.6164 41.5539L15.7745 37.5756M15.7617 37.5756L8.72081 44.6211V44.6367L12.5627 48.6151C12.0552 49.5653 11.6384 50.5627 11.3179 51.5937L5.8394 51.5442L5.74463 61.5891L11.2232 61.6412L15.7617 37.5756ZM25.1 46.2405C27.191 45.7752 29.3707 45.9506 31.3635 46.7446C33.3564 47.5387 35.0728 48.9157 36.2957 50.7015C37.5186 52.4873 38.1931 54.6017 38.2338 56.7772C38.2746 58.9527 37.6797 61.0916 36.5245 62.9234C35.3693 64.7552 33.7056 66.1976 31.7439 67.0681C29.7823 67.9387 27.6107 68.1983 25.5038 67.8141C23.397 67.4299 21.4496 66.4192 19.9079 64.9098C18.3661 63.4004 17.2994 61.4601 16.8425 59.3343V59.3213C16.5395 57.9093 16.5132 56.4505 16.765 55.0282C17.0168 53.6058 17.5419 52.2479 18.3101 51.0319C19.0784 49.8159 20.0749 48.7658 21.2425 47.9414C22.4102 47.117 23.7262 46.5346 25.1154 46.2275L25.1 46.2405Z" fill="white"/>
<path d="M76.1357 25.8981V78.5415H78.7994V64.8385H110.915V78.5415H112.964V25.8981H76.1357ZM78.7994 47.2013H110.915V61.0007H78.8097L78.7994 47.2013ZM78.7994 29.5615H110.915V43.3609H78.8097L78.7994 29.5615Z" fill="#87C5F4"/>
<path d="M109.553 29.5589H104.86V43.3479H109.553V29.5589Z" fill="#2480EF"/>
<path d="M105.934 40.4786C105.934 40.7361 106.009 40.9878 106.149 41.2019C106.29 41.416 106.49 41.5829 106.724 41.6814C106.958 41.7799 107.216 41.8057 107.464 41.7555C107.712 41.7052 107.941 41.5812 108.12 41.3992C108.299 41.2171 108.421 40.9852 108.47 40.7326C108.52 40.4801 108.494 40.2183 108.397 39.9805C108.3 39.7426 108.136 39.5393 107.926 39.3962C107.715 39.2532 107.468 39.1768 107.214 39.1768C106.875 39.1768 106.549 39.314 106.309 39.5581C106.069 39.8023 105.934 40.1334 105.934 40.4786Z" fill="white"/>
<path d="M107.206 41.4915C107.757 41.4915 108.203 41.038 108.203 40.4786C108.203 39.9193 107.757 39.4658 107.206 39.4658C106.656 39.4658 106.21 39.9193 106.21 40.4786C106.21 41.038 106.656 41.4915 107.206 41.4915Z" fill="#DDF2FE"/>
<path d="M108.671 31.3163H105.69V37.8776H108.671V31.3163Z" fill="#72B1EB"/>
<path d="M108.436 37.0757H105.921V37.1824H108.436V37.0757Z" fill="#DDF2FE"/>
<path d="M108.436 36.1436H105.921V36.2503H108.436V36.1436Z" fill="#DDF2FE"/>
<path d="M108.436 35.2088H105.921V35.3156H108.436V35.2088Z" fill="#DDF2FE"/>
<path d="M108.436 33.3394H105.921V33.4462H108.436V33.3394Z" fill="#DDF2FE"/>
<path d="M108.436 32.4099H105.921V32.5167H108.436V32.4099Z" fill="#DDF2FE"/>
<path d="M108.436 34.2767H105.921V34.3835H108.436V34.2767Z" fill="#DDF2FE"/>
<path d="M100.163 29.5589H95.4707V43.3479H100.163V29.5589Z" fill="#ABD5F4"/>
<path d="M96.5439 40.4786C96.5439 40.7361 96.6191 40.9878 96.7598 41.2019C96.9005 41.416 97.1005 41.5829 97.3345 41.6814C97.5685 41.7799 97.826 41.8057 98.0744 41.7555C98.3228 41.7052 98.551 41.5812 98.7301 41.3992C98.9092 41.2171 99.0312 40.9852 99.0806 40.7326C99.13 40.4801 99.1047 40.2183 99.0077 39.9805C98.9108 39.7426 98.7467 39.5393 98.5361 39.3962C98.3255 39.2532 98.0779 39.1768 97.8246 39.1768C97.4849 39.1768 97.1592 39.314 96.919 39.5581C96.6789 39.8023 96.5439 40.1334 96.5439 40.4786Z" fill="white"/>
<path d="M97.8166 41.4915C98.3669 41.4915 98.813 41.038 98.813 40.4786C98.813 39.9193 98.3669 39.4658 97.8166 39.4658C97.2664 39.4658 96.8203 39.9193 96.8203 40.4786C96.8203 41.038 97.2664 41.4915 97.8166 41.4915Z" fill="#DDF2FE"/>
<path d="M99.2821 31.3163H96.3008V37.8776H99.2821V31.3163Z" fill="white"/>
<path d="M99.0488 37.0757H96.5337V37.1824H99.0488V37.0757Z" fill="#72B1EB"/>
<path d="M99.0488 36.1436H96.5337V36.2503H99.0488V36.1436Z" fill="#72B1EB"/>
<path d="M99.0488 35.2088H96.5337V35.3156H99.0488V35.2088Z" fill="#72B1EB"/>
<path d="M99.0488 33.3394H96.5337V33.4462H99.0488V33.3394Z" fill="#72B1EB"/>
<path d="M99.0488 32.4099H96.5337V32.5167H99.0488V32.4099Z" fill="#72B1EB"/>
<path d="M99.0488 34.2767H96.5337V34.3835H99.0488V34.2767Z" fill="#72B1EB"/>
<path d="M104.855 29.5589H100.163V43.3479H104.855V29.5589Z" fill="#274F8E"/>
<path d="M101.236 40.4786C101.236 40.7361 101.311 40.9878 101.452 41.2019C101.593 41.416 101.793 41.5829 102.027 41.6814C102.261 41.7799 102.518 41.8057 102.767 41.7555C103.015 41.7052 103.243 41.5812 103.422 41.3992C103.602 41.2171 103.724 40.9852 103.773 40.7326C103.822 40.4801 103.797 40.2183 103.7 39.9805C103.603 39.7426 103.439 39.5393 103.228 39.3962C103.018 39.2532 102.77 39.1768 102.517 39.1768C102.177 39.1768 101.852 39.314 101.611 39.5581C101.371 39.8023 101.236 40.1334 101.236 40.4786Z" fill="white"/>
<path d="M102.509 41.4915C103.059 41.4915 103.505 41.038 103.505 40.4786C103.505 39.9193 103.059 39.4658 102.509 39.4658C101.959 39.4658 101.513 39.9193 101.513 40.4786C101.513 41.038 101.959 41.4915 102.509 41.4915Z" fill="#DDF2FE"/>
<path d="M103.977 31.3163H100.996V37.8776H103.977V31.3163Z" fill="#72B1EB"/>
<path d="M103.741 37.0757H101.226V37.1824H103.741V37.0757Z" fill="#DDF2FE"/>
<path d="M103.741 36.1436H101.226V36.2503H103.741V36.1436Z" fill="#DDF2FE"/>
<path d="M103.741 35.2088H101.226V35.3156H103.741V35.2088Z" fill="#DDF2FE"/>
<path d="M103.741 33.3394H101.226V33.4462H103.741V33.3394Z" fill="#DDF2FE"/>
<path d="M103.741 32.4099H101.226V32.5167H103.741V32.4099Z" fill="#DDF2FE"/>
<path d="M103.741 34.2767H101.226V34.3835H103.741V34.2767Z" fill="#DDF2FE"/>
<path d="M100.865 47.2091H96.1724V60.9981H100.865V47.2091Z" fill="#2480EF"/>
<path d="M99.7917 58.1262C99.7917 58.3837 99.7166 58.6354 99.5759 58.8495C99.4352 59.0636 99.2352 59.2304 99.0012 59.329C98.7672 59.4275 98.5097 59.4533 98.2613 59.403C98.0128 59.3528 97.7847 59.2288 97.6056 59.0468C97.4265 58.8647 97.3045 58.6327 97.2551 58.3802C97.2057 58.1277 97.231 57.8659 97.3279 57.628C97.4249 57.3902 97.589 57.1868 97.7996 57.0438C98.0102 56.9008 98.2578 56.8244 98.5111 56.8244C98.8507 56.8244 99.1765 56.9616 99.4166 57.2057C99.6568 57.4498 99.7917 57.781 99.7917 58.1262Z" fill="white"/>
<path d="M98.5159 59.1391C99.0661 59.1391 99.5122 58.6856 99.5122 58.1262C99.5122 57.5669 99.0661 57.1134 98.5159 57.1134C97.9656 57.1134 97.5195 57.5669 97.5195 58.1262C97.5195 58.6856 97.9656 59.1391 98.5159 59.1391Z" fill="#DDF2FE"/>
<path d="M100.033 48.9614H97.0513V55.5226H100.033V48.9614Z" fill="#72B1EB"/>
<path d="M99.8018 54.7233H97.2866V54.83H99.8018V54.7233Z" fill="#DDF2FE"/>
<path d="M99.8018 53.7886H97.2866V53.8953H99.8018V53.7886Z" fill="#DDF2FE"/>
<path d="M99.8018 52.8564H97.2866V52.9632H99.8018V52.8564Z" fill="#DDF2FE"/>
<path d="M99.8018 50.9896H97.2866V51.0964H99.8018V50.9896Z" fill="#DDF2FE"/>
<path d="M99.8018 50.0575H97.2866V50.1642H99.8018V50.0575Z" fill="#DDF2FE"/>
<path d="M99.8018 51.9218H97.2866V52.0285H99.8018V51.9218Z" fill="#DDF2FE"/>
<path d="M94.2694 29.5719H89.5771V43.3609H94.2694V29.5719Z" fill="#2480EF"/>
<path d="M93.1936 40.4995C93.1936 40.7569 93.1185 41.0086 92.9778 41.2227C92.837 41.4368 92.637 41.6037 92.403 41.7022C92.169 41.8007 91.9115 41.8265 91.6631 41.7763C91.4147 41.726 91.1865 41.6021 91.0074 41.42C90.8283 41.2379 90.7063 41.006 90.6569 40.7534C90.6075 40.5009 90.6329 40.2392 90.7298 40.0013C90.8267 39.7634 90.9909 39.5601 91.2015 39.417C91.4121 39.274 91.6597 39.1976 91.913 39.1976C92.2526 39.1976 92.5783 39.3348 92.8185 39.5789C93.0587 39.8231 93.1936 40.1542 93.1936 40.4995Z" fill="white"/>
<path d="M91.9206 41.4993C92.4709 41.4993 92.917 41.0458 92.917 40.4865C92.917 39.9271 92.4709 39.4736 91.9206 39.4736C91.3704 39.4736 90.9243 39.9271 90.9243 40.4865C90.9243 41.0458 91.3704 41.4993 91.9206 41.4993Z" fill="#DDF2FE"/>
<path d="M93.4374 31.3242H90.4561V37.8854H93.4374V31.3242Z" fill="#72B1EB"/>
<path d="M93.2066 37.0809H90.6914V37.1876H93.2066V37.0809Z" fill="#DDF2FE"/>
<path d="M93.2066 36.1487H90.6914V36.2555H93.2066V36.1487Z" fill="#DDF2FE"/>
<path d="M93.2066 35.2167H90.6914V35.3234H93.2066V35.2167Z" fill="#DDF2FE"/>
<path d="M93.2066 33.3524H90.6914V33.4592H93.2066V33.3524Z" fill="#DDF2FE"/>
<path d="M93.2066 32.4177H90.6914V32.5245H93.2066V32.4177Z" fill="#DDF2FE"/>
<path d="M93.2066 34.2845H90.6914V34.3913H93.2066V34.2845Z" fill="#DDF2FE"/>
<path d="M105.024 47.1289L100.52 48.4169L103.982 60.9314L108.487 59.6434L105.024 47.1289Z" fill="#ABD5F4"/>
<path d="M107.017 57.2462C107.087 57.4944 107.084 57.7582 107.006 58.0041C106.928 58.2501 106.781 58.467 106.581 58.6273C106.382 58.7876 106.141 58.884 105.887 58.9043C105.634 58.9246 105.38 58.8679 105.159 58.7414C104.938 58.6148 104.758 58.4242 104.643 58.1936C104.529 57.9631 104.484 57.7032 104.516 57.4469C104.547 57.1906 104.652 56.9495 104.818 56.7542C104.985 56.559 105.204 56.4185 105.45 56.3505C105.774 56.2606 106.121 56.3041 106.414 56.4717C106.707 56.6393 106.924 56.9175 107.017 57.2462Z" fill="white"/>
<path d="M106.064 58.5741C105.874 58.6287 105.672 58.6248 105.485 58.563C105.297 58.5011 105.131 58.384 105.009 58.2265C104.886 58.0689 104.812 57.8781 104.797 57.6779C104.781 57.4778 104.824 57.2774 104.92 57.1021C105.016 56.9268 105.162 56.7844 105.337 56.693C105.513 56.6015 105.712 56.5651 105.908 56.5884C106.104 56.6116 106.289 56.6934 106.439 56.8235C106.59 56.9535 106.699 57.126 106.753 57.3191C106.789 57.4475 106.8 57.5818 106.785 57.7144C106.769 57.847 106.729 57.9753 106.665 58.0918C106.601 58.2084 106.515 58.311 106.412 58.3937C106.309 58.4765 106.19 58.5378 106.064 58.5741Z" fill="#DDF2FE"/>
<path d="M104.931 48.7976L102.061 49.6182L103.743 55.6962L106.613 54.8756L104.931 48.7976Z" fill="white"/>
<path d="M106.181 54.1998L103.76 54.8921L103.787 54.9898L106.208 54.2975L106.181 54.1998Z" fill="#72B1EB"/>
<path d="M105.942 53.335L103.521 54.0273L103.548 54.1251L105.969 53.4328L105.942 53.335Z" fill="#72B1EB"/>
<path d="M105.705 52.467L103.284 53.1593L103.311 53.257L105.732 52.5647L105.705 52.467Z" fill="#72B1EB"/>
<path d="M105.226 50.7368L102.805 51.4291L102.832 51.5269L105.253 50.8346L105.226 50.7368Z" fill="#72B1EB"/>
<path d="M104.985 49.8745L102.563 50.5668L102.591 50.6646L105.012 49.9723L104.985 49.8745Z" fill="#72B1EB"/>
<path d="M105.463 51.6023L103.042 52.2946L103.069 52.3924L105.49 51.7001L105.463 51.6023Z" fill="#72B1EB"/>
<path d="M96.1673 47.2091H91.4751V60.9981H96.1673V47.2091Z" fill="#ABD5F4"/>
<path d="M95.0891 58.1262C95.0891 58.3837 95.014 58.6354 94.8733 58.8495C94.7325 59.0636 94.5325 59.2304 94.2985 59.329C94.0645 59.4275 93.807 59.4533 93.5586 59.403C93.3102 59.3528 93.082 59.2288 92.9029 59.0468C92.7238 58.8647 92.6019 58.6327 92.5524 58.3802C92.503 58.1277 92.5284 57.8659 92.6253 57.628C92.7222 57.3902 92.8864 57.1868 93.097 57.0438C93.3076 56.9008 93.5552 56.8244 93.8085 56.8244C94.1481 56.8244 94.4738 56.9616 94.714 57.2057C94.9542 57.4498 95.0891 57.781 95.0891 58.1262Z" fill="white"/>
<path d="M93.8215 59.1391C94.3718 59.1391 94.8179 58.6856 94.8179 58.1262C94.8179 57.5669 94.3718 57.1134 93.8215 57.1134C93.2713 57.1134 92.8252 57.5669 92.8252 58.1262C92.8252 58.6856 93.2713 59.1391 93.8215 59.1391Z" fill="#DDF2FE"/>
<path d="M95.3377 48.9614H92.3564V55.5226H95.3377V48.9614Z" fill="white"/>
<path d="M95.1045 54.7233H92.5894V54.83H95.1045V54.7233Z" fill="#72B1EB"/>
<path d="M95.1045 53.7886H92.5894V53.8953H95.1045V53.7886Z" fill="#72B1EB"/>
<path d="M95.1045 52.8564H92.5894V52.9632H95.1045V52.8564Z" fill="#72B1EB"/>
<path d="M95.1045 50.9896H92.5894V51.0964H95.1045V50.9896Z" fill="#72B1EB"/>
<path d="M95.1045 50.0575H92.5894V50.1642H95.1045V50.0575Z" fill="#72B1EB"/>
<path d="M95.1045 51.9218H92.5894V52.0285H95.1045V51.9218Z" fill="#72B1EB"/>
<path d="M68.8594 15.1632H42.417L42.1609 12.2992C42.0877 11.662 42.1386 11.0164 42.3109 10.3993C42.4831 9.78216 42.7733 9.20555 43.1648 8.70241C43.5563 8.19927 44.0414 7.77945 44.5925 7.46693C45.1436 7.15441 45.7499 6.9553 46.3767 6.88098C46.5917 6.85499 46.8082 6.84455 47.0247 6.84974H62.7354C64.2 6.87352 65.6056 7.44056 66.6876 8.44417C67.7697 9.44778 68.4537 10.8188 68.6109 12.2992L68.8594 15.1632Z" fill="#2A4F9A"/>
<path d="M53.7712 0.705136C52.7859 0.686312 51.8336 1.06605 51.1238 1.76083C50.4139 2.45562 50.0045 3.40858 49.9856 4.41014C49.9821 4.58412 49.9906 4.75813 50.0113 4.93088C50.1331 6.07271 50.6601 7.13028 51.4936 7.90568C52.3271 8.68108 53.4099 9.12117 54.5396 9.1436C55.0697 9.15484 55.596 9.05031 56.083 8.83707C56.57 8.62383 57.0063 8.30685 57.3625 7.90752C57.7186 7.50819 57.9864 7.03583 58.1476 6.52232C58.3088 6.00881 58.3597 5.46611 58.2969 4.93088C58.1796 3.78648 57.6548 2.72518 56.8212 1.94685C55.9876 1.16853 54.9028 0.726895 53.7712 0.705136ZM54.3321 6.868C53.8089 6.85734 53.3073 6.65363 52.9209 6.29483C52.5345 5.93603 52.2896 5.44663 52.2319 4.91786C52.18 4.45625 52.3106 3.99261 52.5949 3.62886C52.8793 3.26511 53.2941 3.03105 53.7481 2.97813C53.8231 2.97164 53.8985 2.97164 53.9735 2.97813C54.4966 2.98831 54.9982 3.19193 55.3843 3.55088C55.7704 3.90983 56.0146 4.39951 56.0712 4.92827C56.1239 5.3888 55.9946 5.85175 55.7117 6.21544C55.4289 6.57914 55.0156 6.81384 54.5626 6.868C54.4858 6.868 54.4089 6.868 54.3347 6.868H54.3321Z" fill="#2A4F9A"/>
<path d="M82.3697 78.5415H39.5327C38.6937 78.5239 37.89 78.1953 37.2726 77.6175C36.6552 77.0398 36.2666 76.2527 36.18 75.4042L30.4377 12.6195C30.3932 12.2227 30.4325 11.8208 30.553 11.4407C30.6734 11.0606 30.8723 10.711 31.1363 10.4152C31.4003 10.1195 31.7234 9.88443 32.0839 9.72575C32.4444 9.56707 32.8341 9.48843 33.2269 9.49508H76.0639C76.9028 9.51034 77.7075 9.83608 78.327 10.4113C78.9466 10.9864 79.3385 11.7716 79.4294 12.6195L85.1589 75.4224C85.2381 76.1591 85.0272 76.8978 84.5722 77.4769C84.1172 78.0561 83.4552 78.4285 82.7309 78.5129C82.6112 78.5303 82.4906 78.5398 82.3697 78.5415Z" fill="#164767"/>
<path d="M83.402 78.5416H40.5548C39.7136 78.526 38.907 78.1985 38.2867 77.6207C37.6665 77.0429 37.2753 76.2546 37.1867 75.4042L31.47 12.6195C31.3862 11.8841 31.5921 11.1449 32.0427 10.5634C32.4933 9.98183 33.1521 9.60526 33.875 9.51592C34.0016 9.49983 34.1291 9.49287 34.2566 9.49509H77.0988C77.9375 9.51091 78.7418 9.83684 79.3613 10.4119C79.9807 10.987 80.3728 11.7718 80.4642 12.6195L86.1938 75.4224C86.273 76.1591 86.062 76.8978 85.607 77.477C85.1521 78.0561 84.49 78.4285 83.7657 78.5129C83.6452 78.5303 83.5237 78.5398 83.402 78.5416Z" fill="#2B284F"/>
<path d="M80.5796 70.8842H41.9891L36.7642 13.6427H75.3546L80.5796 70.8842Z" fill="#9CE5E5"/>
<path d="M44.3942 66.4892L39.9709 18.0403C39.9498 17.8599 39.9639 17.6771 40.0124 17.5022C40.0608 17.3274 40.1427 17.164 40.2533 17.0213C40.3639 16.8787 40.5011 16.7596 40.657 16.6708C40.8129 16.5821 40.9845 16.5254 41.1619 16.5041C41.2241 16.4989 41.2867 16.4989 41.3489 16.5041H71.29C71.7039 16.5124 72.1008 16.6737 72.4063 16.9579C72.7117 17.2421 72.9049 17.6296 72.9496 18.0481L77.3729 66.497C77.3944 66.6774 77.3805 66.8604 77.3322 67.0354C77.2839 67.2103 77.2021 67.3739 77.0914 67.5166C76.9807 67.6594 76.8434 67.7785 76.6874 67.8671C76.5313 67.9558 76.3595 68.0122 76.182 68.0332C76.1197 68.0371 76.0572 68.0371 75.995 68.0332H46.0539C45.6398 68.0254 45.2426 67.8643 44.937 67.58C44.6315 67.2957 44.4384 66.9079 44.3942 66.4892Z" fill="white"/>
<path d="M70.5703 15.1632H44.1331L43.877 12.2992C43.7334 11.015 44.0961 9.72528 44.8857 8.71228C45.6753 7.69928 46.8276 7.0455 48.0902 6.89401C48.3052 6.86796 48.5218 6.85752 48.7382 6.86277H64.4464C65.9099 6.88836 67.3139 7.45616 68.3948 8.45954C69.4757 9.46293 70.1591 10.8329 70.3168 12.3122L70.5703 15.1632Z" fill="#5686C4"/>
<path d="M55.4868 0.705116C54.9995 0.695103 54.5151 0.782818 54.0612 0.963249C53.6073 1.14368 53.1928 1.41329 52.8415 1.75666C52.4901 2.10002 52.2088 2.51042 52.0136 2.96438C51.8184 3.41834 51.7131 3.90697 51.7038 4.40231C51.6984 4.57623 51.7061 4.75032 51.7269 4.92305C51.8484 6.06641 52.3763 7.12536 53.2115 7.90104C54.0467 8.67672 55.1317 9.11578 56.2628 9.13577C57.2472 9.1546 58.1987 8.77558 58.9085 8.08191C59.6182 7.38824 60.0282 6.43662 60.0484 5.43597C60.0518 5.26199 60.0432 5.088 60.0228 4.91523C59.9001 3.77256 59.3718 2.71455 58.5368 1.93951C57.7017 1.16447 56.6173 0.725585 55.4868 0.705116ZM56.0477 6.86798C55.525 6.85718 55.0241 6.65328 54.6385 6.29439C54.2529 5.93549 54.0091 5.44616 53.9526 4.91784C53.9262 4.68975 53.9442 4.4586 54.0058 4.23762C54.0673 4.01664 54.1711 3.81016 54.3112 3.63C54.4513 3.44984 54.625 3.29953 54.8223 3.18767C55.0197 3.07581 55.2367 3.0046 55.4612 2.97811C55.5413 2.97162 55.6218 2.97162 55.7019 2.97811C56.2254 2.98718 56.7275 3.19041 57.1138 3.54958C57.5002 3.90874 57.7441 4.39906 57.7996 4.92825C57.8256 5.15668 57.8071 5.38808 57.7451 5.60923C57.6831 5.83038 57.5789 6.03694 57.4383 6.21709C57.2977 6.39724 57.1235 6.54745 56.9258 6.65914C56.7281 6.77083 56.5106 6.84179 56.2859 6.86798C56.2066 6.87318 56.127 6.87318 56.0477 6.86798Z" fill="#5686C4"/>
<path d="M70.5752 15.1633H44.1328L43.8716 12.3123H70.314L70.5752 15.1633Z" fill="#FFDC21"/>
<path d="M67.1712 25.5154H43.2235C43.0828 25.5159 42.947 25.4627 42.8431 25.3662C42.7392 25.2698 42.6748 25.1372 42.6626 24.9947C42.6558 24.9346 42.6608 24.8738 42.6773 24.8158C42.6937 24.7577 42.7213 24.7035 42.7584 24.6563C42.7956 24.6091 42.8415 24.5699 42.8937 24.5408C42.9458 24.5117 43.003 24.4934 43.0621 24.487H67.0662C67.2071 24.4858 67.3432 24.5388 67.4472 24.6354C67.5512 24.732 67.6155 24.865 67.6271 25.0077C67.6354 25.0687 67.6315 25.1307 67.6158 25.1902C67.6 25.2496 67.5727 25.3052 67.5355 25.3538C67.4982 25.4023 67.4518 25.4428 67.3989 25.4728C67.346 25.5028 67.2878 25.5217 67.2276 25.5284L67.1712 25.5154Z" fill="#4FA0FF"/>
<path d="M67.3788 27.7962H43.431C43.2903 27.7968 43.1546 27.7435 43.0507 27.6471C42.9468 27.5506 42.8823 27.418 42.8701 27.2755C42.8634 27.2154 42.8683 27.1546 42.8848 27.0966C42.9012 27.0385 42.9288 26.9843 42.966 26.9371C43.0031 26.8899 43.0491 26.8507 43.1012 26.8216C43.1533 26.7925 43.2106 26.7742 43.2697 26.7678H67.2712C67.4119 26.7672 67.5477 26.8205 67.6516 26.9169C67.7555 27.0134 67.8199 27.146 67.8321 27.2885C67.8393 27.348 67.8348 27.4084 67.819 27.4661C67.8031 27.5239 67.7762 27.5779 67.7398 27.625C67.7034 27.6722 67.6582 27.7116 67.6068 27.741C67.5554 27.7703 67.4988 27.7891 67.4402 27.7962H67.3788Z" fill="#4FA0FF"/>
<path d="M50.7539 30.0848H43.6387C43.5005 30.0821 43.3682 30.0273 43.2675 29.9311C43.1667 29.8349 43.1046 29.7042 43.0932 29.5641C43.0787 29.4443 43.1116 29.3236 43.1846 29.2284C43.2575 29.1332 43.3647 29.0714 43.4825 29.0564H43.5465H50.654C50.7921 29.0597 50.924 29.1147 51.0247 29.2108C51.1254 29.3068 51.1876 29.4373 51.1996 29.5771C51.2089 29.6377 51.2061 29.6995 51.1913 29.7589C51.1764 29.8183 51.1499 29.8741 51.1133 29.9228C51.0766 29.9714 51.0307 30.0121 50.9781 30.0422C50.9256 30.0723 50.8676 30.0912 50.8077 30.0979L50.7539 30.0848Z" fill="#4FA0FF"/>
<path d="M68.086 35.5343H52.8286C52.6879 35.5348 52.5522 35.4816 52.4483 35.3851C52.3444 35.2887 52.2799 35.1561 52.2677 35.0136C52.2587 34.9531 52.2618 34.8913 52.2768 34.8321C52.2918 34.7728 52.3183 34.7172 52.3549 34.6686C52.3915 34.62 52.4373 34.5794 52.4897 34.5492C52.542 34.519 52.5998 34.4998 52.6596 34.4928C52.6809 34.4901 52.7024 34.4901 52.7236 34.4928H67.9913C68.132 34.4923 68.2677 34.5455 68.3716 34.642C68.4755 34.7384 68.54 34.8711 68.5522 35.0136C68.5601 35.0743 68.556 35.136 68.5403 35.1952C68.5246 35.2543 68.4975 35.3097 68.4606 35.3581C68.4236 35.4065 68.3776 35.447 68.3252 35.4773C68.2728 35.5075 68.215 35.5269 68.1552 35.5343H68.086Z" fill="#4FA0FF"/>
<path d="M68.2934 37.8229H53.0258C52.885 37.8234 52.7493 37.7702 52.6454 37.6737C52.5415 37.5773 52.477 37.4447 52.4648 37.3022C52.4581 37.2421 52.4631 37.1813 52.4795 37.1232C52.496 37.0652 52.5236 37.011 52.5607 36.9638C52.5978 36.9166 52.6438 36.8773 52.6959 36.8483C52.748 36.8192 52.8053 36.8009 52.8644 36.7945H68.1961C68.3369 36.7933 68.473 36.8463 68.5771 36.9429C68.6811 37.0395 68.7454 37.1725 68.757 37.3152C68.7656 37.376 68.7621 37.438 68.7466 37.4974C68.7312 37.5569 68.7041 37.6125 68.6671 37.6611C68.6301 37.7097 68.5838 37.7502 68.531 37.7802C68.4783 37.8103 68.4201 37.8292 68.36 37.8359L68.2934 37.8229Z" fill="#4FA0FF"/>
<path d="M60.3482 40.1167H53.2356C53.0949 40.1173 52.9591 40.064 52.8552 39.9676C52.7513 39.8711 52.6869 39.7385 52.6747 39.596C52.6664 39.5352 52.6702 39.4734 52.6858 39.4141C52.7014 39.3548 52.7284 39.2993 52.7654 39.2508C52.8024 39.2023 52.8485 39.1618 52.9011 39.1316C52.9537 39.1015 53.0117 39.0823 53.0717 39.0753H60.2432C60.384 39.0741 60.5201 39.1272 60.6242 39.2237C60.7282 39.3203 60.7925 39.4533 60.8041 39.596C60.8127 39.6568 60.8092 39.7188 60.7937 39.7783C60.7783 39.8377 60.7512 39.8934 60.7142 39.9419C60.6772 39.9905 60.6309 40.031 60.5781 40.0611C60.5254 40.0911 60.4672 40.11 60.4071 40.1167H60.3482Z" fill="#4FA0FF"/>
<path d="M49.5321 34.0059H43.9818C43.9199 34.0048 43.8584 34.0171 43.8015 34.0421C43.7447 34.067 43.6937 34.104 43.652 34.1506C43.6103 34.1972 43.5788 34.2522 43.5597 34.3122C43.5407 34.3721 43.5344 34.4354 43.5413 34.498L44.0536 40.1271C44.0673 40.2612 44.1288 40.3855 44.2265 40.4766C44.3241 40.5677 44.4512 40.6194 44.5837 40.6218H50.1237C50.239 40.6232 50.3502 40.5784 50.4332 40.497C50.5161 40.4156 50.5641 40.3042 50.5668 40.187C50.5681 40.1671 50.5681 40.1471 50.5668 40.1271L50.0546 34.498C50.042 34.3651 49.9819 34.2416 49.8855 34.1508C49.7892 34.0601 49.6634 34.0085 49.5321 34.0059ZM49.8932 39.9162C49.894 39.92 49.8939 39.9239 49.8932 39.9277C49.8924 39.9314 49.8909 39.935 49.8888 39.9381C49.8866 39.9413 49.8838 39.944 49.8807 39.946C49.8775 39.9481 49.8739 39.9495 49.8702 39.9501H44.7323C44.7277 39.9504 44.7231 39.9498 44.7188 39.9483C44.7144 39.9468 44.7104 39.9443 44.7071 39.9411C44.7037 39.938 44.701 39.9341 44.6992 39.9298C44.6974 39.9255 44.6964 39.9209 44.6964 39.9162L44.22 34.7089C44.2199 34.7008 44.2227 34.6929 44.2279 34.6867C44.2331 34.6804 44.2403 34.6763 44.2482 34.6751H49.3707C49.3753 34.6747 49.3799 34.6753 49.3843 34.6769C49.3886 34.6784 49.3926 34.6808 49.3959 34.684C49.3993 34.6872 49.402 34.691 49.4038 34.6953C49.4057 34.6996 49.4066 34.7042 49.4066 34.7089L49.8932 39.9162Z" fill="#9CE5E5"/>
<path d="M47.9954 39.2211L45.3086 37.2423L46.0386 36.1592L47.5958 37.3048L50.7231 32.7692L51.8577 33.6258L47.9954 39.2211Z" fill="#5686C4"/>
<path d="M68.9181 44.6654H53.653C53.5119 44.6665 53.3755 44.6136 53.2711 44.5171C53.1666 44.4206 53.1018 44.2876 53.0896 44.1446C53.0766 44.0235 53.1114 43.9021 53.1863 43.8069C53.2611 43.7118 53.37 43.6506 53.4891 43.6369H68.8157C68.9564 43.6364 69.0921 43.6896 69.196 43.7861C69.2999 43.8825 69.3644 44.0151 69.3766 44.1576C69.3833 44.2177 69.3784 44.2785 69.3619 44.3366C69.3455 44.3946 69.3179 44.4488 69.2807 44.496C69.2436 44.5432 69.1976 44.5825 69.1455 44.6115C69.0934 44.6406 69.0361 44.6589 68.977 44.6654H68.9181Z" fill="#4FA0FF"/>
<path d="M69.1284 46.9644H53.8531C53.7122 46.9655 53.5761 46.9125 53.4721 46.8159C53.368 46.7193 53.3038 46.5864 53.2921 46.4436C53.2831 46.3831 53.2862 46.3214 53.3012 46.2621C53.3162 46.2029 53.3428 46.1473 53.3793 46.0987C53.4159 46.0501 53.4617 46.0095 53.5141 45.9793C53.5664 45.9491 53.6242 45.9299 53.684 45.9229C53.7044 45.9204 53.7251 45.9204 53.7455 45.9229H69.0131C69.1538 45.9224 69.2896 45.9756 69.3935 46.0721C69.4974 46.1685 69.5618 46.3011 69.574 46.4436C69.5808 46.5031 69.576 46.5634 69.5598 46.621C69.5437 46.6786 69.5165 46.7324 69.4799 46.7793C69.4432 46.8262 69.3978 46.8654 69.3463 46.8944C69.2948 46.9235 69.2382 46.942 69.1796 46.9487L69.1284 46.9644Z" fill="#4FA0FF"/>
<path d="M61.1833 49.253H54.0707C53.9298 49.2541 53.7937 49.2011 53.6897 49.1045C53.5857 49.0079 53.5214 48.8749 53.5098 48.7322C53.503 48.6724 53.5079 48.6118 53.5242 48.5538C53.5405 48.4959 53.5679 48.4418 53.6047 48.3947C53.6416 48.3475 53.6873 48.3082 53.7391 48.279C53.7909 48.2498 53.8479 48.2313 53.9068 48.2245H61.0783C61.2192 48.2234 61.3553 48.2764 61.4593 48.373C61.5633 48.4695 61.6276 48.6025 61.6392 48.7452C61.6482 48.8057 61.6451 48.8675 61.6301 48.9267C61.6152 48.986 61.5886 49.0416 61.552 49.0902C61.5155 49.1388 61.4696 49.1794 61.4173 49.2096C61.3649 49.2398 61.3071 49.259 61.2473 49.266C61.2256 49.2636 61.2042 49.2593 61.1833 49.253Z" fill="#4FA0FF"/>
<path d="M50.3568 43.1422H44.8142C44.6982 43.1415 44.5867 43.1873 44.5037 43.2696C44.4208 43.352 44.3731 43.4643 44.3711 43.5822C44.3711 43.6004 44.3711 43.6186 44.3711 43.6343L44.8833 49.2686C44.8977 49.4021 44.9594 49.5258 45.057 49.6164C45.1546 49.707 45.2814 49.7583 45.4135 49.7607H50.9586C51.0206 49.7618 51.0821 49.7495 51.1389 49.7245C51.1958 49.6996 51.2468 49.6626 51.2885 49.616C51.3302 49.5694 51.3617 49.5144 51.3807 49.4544C51.3998 49.3945 51.4061 49.3312 51.3992 49.2686L50.8869 43.6343C50.8682 43.5026 50.8051 43.3816 50.7084 43.2918C50.6117 43.2021 50.4875 43.1492 50.3568 43.1422ZM50.7204 49.0577C50.7208 49.0614 50.7204 49.0652 50.7193 49.0689C50.7182 49.0725 50.7164 49.0758 50.714 49.0787C50.7117 49.0816 50.7087 49.084 50.7054 49.0858C50.7021 49.0875 50.6985 49.0886 50.6948 49.0889H45.5723C45.5636 49.089 45.5552 49.0859 45.5486 49.0801C45.542 49.0744 45.5377 49.0664 45.5365 49.0577L45.0626 43.8504C45.0614 43.8467 45.061 43.8428 45.0616 43.839C45.0621 43.8352 45.0636 43.8315 45.0659 43.8284C45.0682 43.8254 45.0712 43.8229 45.0746 43.8213C45.0781 43.8196 45.0819 43.8189 45.0857 43.8191H50.2082C50.2167 43.8202 50.2245 43.8241 50.2305 43.8302C50.2366 43.8364 50.2404 43.8444 50.2415 43.853L50.7204 49.0577Z" fill="#9CE5E5"/>
<path d="M48.8304 48.3599L46.1411 46.3785L46.8711 45.298L48.4283 46.4436L51.5556 41.9106L52.6928 42.762L48.8304 48.3599Z" fill="#5686C4"/>
<path d="M69.7508 53.8094H54.4857C54.3472 53.8067 54.2146 53.752 54.1134 53.6559C54.0122 53.5597 53.9496 53.4289 53.9376 53.2886C53.9239 53.1689 53.9574 53.0484 54.0309 52.9538C54.1043 52.8591 54.2117 52.7979 54.3295 52.7835H54.3935H69.6586C69.7993 52.783 69.935 52.8362 70.0389 52.9327C70.1428 53.0291 70.2073 53.1617 70.2195 53.3042C70.2266 53.3641 70.222 53.4249 70.2058 53.4829C70.1896 53.541 70.1623 53.5952 70.1254 53.6425C70.0884 53.6897 70.0427 53.729 69.9907 53.7581C69.9387 53.7872 69.8815 53.8055 69.8225 53.812C69.7986 53.815 69.7744 53.8142 69.7508 53.8094Z" fill="#4FA0FF"/>
<path d="M69.9633 56.1032H54.6957C54.555 56.1038 54.4192 56.0505 54.3153 55.9541C54.2114 55.8576 54.147 55.725 54.1348 55.5825C54.128 55.5227 54.1329 55.462 54.1492 55.4041C54.1655 55.3462 54.1929 55.2921 54.2297 55.245C54.2666 55.1978 54.3123 55.1585 54.3641 55.1293C54.4159 55.1001 54.4729 55.0816 54.5318 55.0748H69.8686C70.0095 55.0736 70.1455 55.1267 70.2496 55.2232C70.3536 55.3198 70.4179 55.4528 70.4295 55.5955C70.4377 55.6565 70.4339 55.7185 70.4181 55.778C70.4024 55.8374 70.3751 55.8931 70.3378 55.9416C70.3006 55.9901 70.2541 56.0306 70.2013 56.0606C70.1484 56.0906 70.0901 56.1095 70.0299 56.1163L69.9633 56.1032Z" fill="#4FA0FF"/>
<path d="M62.0181 58.3944H54.9055C54.7652 58.3938 54.63 58.3401 54.5264 58.2439C54.4227 58.1477 54.358 58.0157 54.3446 57.8737C54.3375 57.8142 54.3419 57.7538 54.3578 57.6961C54.3736 57.6383 54.4005 57.5843 54.4369 57.5371C54.4733 57.49 54.5185 57.4506 54.5699 57.4212C54.6213 57.3918 54.6779 57.3731 54.7365 57.366H54.798H61.9131C62.0537 57.366 62.1891 57.4195 62.2929 57.5158C62.3967 57.6121 62.4613 57.7444 62.474 57.8867C62.4808 57.9464 62.4759 58.0069 62.4596 58.0646C62.4432 58.1224 62.4158 58.1763 62.3789 58.2232C62.342 58.2702 62.2964 58.3092 62.2446 58.3382C62.1928 58.3671 62.1358 58.3853 62.077 58.3918L62.0181 58.3944Z" fill="#4FA0FF"/>
<path d="M51.1892 52.281H45.6569C45.5416 52.2796 45.4304 52.3245 45.3475 52.4059C45.2645 52.4873 45.2165 52.5987 45.2138 52.7159C45.2126 52.7358 45.2126 52.7558 45.2138 52.7757L45.7261 58.4075C45.7438 58.5398 45.8065 58.6617 45.9033 58.752C46.0002 58.8424 46.125 58.8955 46.2562 58.9021H51.8039C51.8614 58.9028 51.9185 58.892 51.9719 58.8703C52.0253 58.8485 52.074 58.8163 52.1151 58.7754C52.1563 58.7346 52.1891 58.6859 52.2117 58.6321C52.2344 58.5784 52.2463 58.5206 52.247 58.4621C52.2483 58.4439 52.2483 58.4257 52.247 58.4075L51.7348 52.7757C51.7196 52.6395 51.6556 52.5137 51.555 52.4224C51.4543 52.3312 51.3241 52.2808 51.1892 52.281ZM51.5478 58.2044C51.5481 58.2081 51.5478 58.2119 51.5467 58.2155C51.5456 58.2192 51.5438 58.2225 51.5414 58.2254C51.539 58.2283 51.5361 58.2307 51.5328 58.2325C51.5295 58.2342 51.5259 58.2353 51.5222 58.2356H46.3997C46.3913 58.2356 46.3832 58.2324 46.377 58.2266C46.3708 58.2208 46.367 58.2129 46.3664 58.2044L45.8849 52.997C45.8841 52.9934 45.8841 52.9897 45.8849 52.9861C45.8857 52.9825 45.8873 52.9791 45.8894 52.9761C45.8916 52.9732 45.8944 52.9707 45.8976 52.9689C45.9008 52.9672 45.9043 52.9661 45.9079 52.9658H51.0304C51.0391 52.9657 51.0475 52.9688 51.0541 52.9746C51.0607 52.9803 51.065 52.9883 51.0663 52.997L51.5478 58.2044Z" fill="#9CE5E5"/>
<path d="M49.6653 57.5014L46.9785 55.52L47.7085 54.4343L49.2657 55.5851L52.393 51.0495L53.5251 51.9035L49.6653 57.5014Z" fill="#5686C4"/>
<path d="M92.6173 97.9779C102.174 97.9779 109.921 97.0313 109.921 95.8637C109.921 94.6961 102.174 93.7495 92.6173 93.7495C83.0607 93.7495 75.3135 94.6961 75.3135 95.8637C75.3135 97.0313 83.0607 97.9779 92.6173 97.9779Z" fill="#DDF2FE"/>
<path d="M85.5845 61.4277L87.321 62.8181C87.9895 62.1671 92.4102 59.8369 92.5767 58.1315C92.624 57.8271 92.6049 57.5159 92.5208 57.2199C92.4367 56.9238 92.2896 56.6502 92.0901 56.4183C91.1808 55.5122 90.1461 55.7179 89.3316 56.4964C88.4479 57.3269 85.5845 61.4277 85.5845 61.4277Z" fill="#164767"/>
<path d="M89.2698 94.4682H87.8842L87.7612 92.9945H89.1494L89.2698 94.4682Z" fill="#E7AFA7"/>
<path d="M102.291 94.4682H100.903L100.363 92.9945H101.748L102.291 94.4682Z" fill="#E7AFA7"/>
<path d="M92.6177 56.0719L95.2353 56.0381L94.1365 52.9996L92.6663 53.3798L92.6177 56.0719Z" fill="#F79889"/>
<path d="M97.3073 68.0436L98.4188 56.4547C98.4366 56.1573 98.3395 55.8646 98.1482 55.6389C97.9568 55.4133 97.6863 55.2725 97.3943 55.2466L90.5968 55.8194C90.4713 55.8141 90.346 55.8341 90.2281 55.8781C90.1102 55.9222 90.0021 55.9894 89.9098 56.076C89.8175 56.1625 89.7429 56.2668 89.6902 56.3827C89.6376 56.4986 89.6079 56.6239 89.603 56.7515C89.6004 56.7862 89.6004 56.821 89.603 56.8556L90.5353 68.0514L97.3073 68.0436Z" fill="#164767"/>
<path d="M97.3047 68.0436L94.7102 71.5377L89.685 93.4735H87.0981L90.5225 68.0436H97.3047Z" fill="#1EAFAF"/>
<path d="M91.7725 68.0436L92.3897 70.9935C92.4581 71.3723 92.6549 71.7147 92.946 71.9612C93.2371 72.2076 93.604 72.3424 93.9828 72.3422L99.8276 93.4735H102.353L97.3022 68.0436H91.7725Z" fill="#4FA0FF"/>
<path d="M94.7099 51.3151C94.7176 51.4093 94.7524 51.4993 94.81 51.5736C94.8676 51.6479 94.9455 51.7033 95.0339 51.7329C95.1223 51.7625 95.2173 51.765 95.3071 51.74C95.3969 51.715 95.4774 51.6638 95.5387 51.5926C95.6 51.5214 95.6393 51.4334 95.6517 51.3396C95.6641 51.2458 95.6491 51.1504 95.6085 51.0653C95.5679 50.9802 95.5036 50.909 95.4235 50.8609C95.3434 50.8127 95.2511 50.7895 95.1581 50.7943C95.0948 50.7979 95.0329 50.8144 94.9759 50.8426C94.919 50.8709 94.8681 50.9104 94.8264 50.9589C94.7846 51.0074 94.7528 51.0639 94.7328 51.1251C94.7128 51.1862 94.705 51.2508 94.7099 51.3151Z" fill="#F79889"/>
<path d="M92.5279 48.6776C92.1626 48.7532 91.8389 48.9661 91.6213 49.2738C91.4369 49.5433 91.3468 49.8678 91.3651 50.1955L91.4215 51.9634C91.4778 53.0673 92.3307 53.9578 93.3629 53.937C93.8695 53.9035 94.3424 53.6675 94.6784 53.2806C95.0143 52.8937 95.186 52.3874 95.1558 51.8723C95.1545 51.8619 95.1545 51.8514 95.1558 51.841L95.1046 50.2085C95.1046 50.2085 94.9765 48.287 92.5279 48.6776Z" fill="#F79889"/>
<path d="M95.1249 51.2812C94.3566 52.7862 93.706 51.8332 92.9069 51.9035C92.2435 51.9634 91.7851 52.9033 91.4034 51.5885C91.3445 53.635 92.3127 53.9734 93.3449 53.9318C94.3771 53.8901 95.4041 53.5178 95.1249 51.2812Z" fill="#164767"/>
<path d="M87.7894 93.8016L88.5578 94.1401L89.2673 93.8016L89.905 95.9106H84.0142C84.0142 94.8561 86.2322 94.8561 86.2322 94.8561L87.7894 93.8016Z" fill="#164767"/>
<path d="M100.688 93.8016L101.456 94.1401L102.166 93.8016L102.803 95.9106H96.9126C96.9126 94.8561 99.1306 94.8561 99.1306 94.8561L100.688 93.8016Z" fill="#164767"/>
<path d="M65.2964 51.8384C64.4216 53.5065 64.053 55.4008 64.2372 57.2818C64.4214 59.1629 65.1501 60.9461 66.3312 62.4062C67.5124 63.8662 69.0929 64.9374 70.8729 65.4843C72.6529 66.0313 74.5525 66.0294 76.3314 65.4789C78.1104 64.9284 79.6888 63.854 80.8671 62.3916C82.0454 60.9292 82.7707 59.1445 82.9512 57.2631C83.1318 55.3817 82.7595 53.4881 81.8814 51.8218C81.0034 50.1555 79.659 48.7913 78.0182 47.9017C76.9291 47.3108 75.7362 46.9437 74.5076 46.8215C73.2789 46.6993 72.0387 46.8243 70.8575 47.1893C69.6764 47.5544 68.5776 48.1524 67.6239 48.9492C66.6702 49.746 65.8802 50.726 65.299 51.8332L65.2964 51.8384ZM79.6395 59.6155C79.0003 60.8328 78.0203 61.8299 76.8236 62.4809C75.6268 63.1319 74.267 63.4074 72.9162 63.2727C71.5654 63.1379 70.2842 62.5989 69.2348 61.7239C68.1853 60.8488 67.4148 59.677 67.0205 58.3567C66.6263 57.0364 66.6261 55.6269 67.02 54.3065C67.4139 52.9861 68.1842 51.8141 69.2335 50.9388C70.2827 50.0635 71.5637 49.5242 72.9145 49.3891C74.2653 49.254 75.6252 49.5292 76.8221 50.1799C78.4258 51.0521 79.624 52.535 80.154 54.3037C80.6841 56.0724 80.5027 57.9826 79.6497 59.6155H79.6395Z" fill="#5686C4"/>
<path d="M80.9367 58.7915L79.7002 61.1486L94.6997 69.28L95.9362 66.9228L80.9367 58.7915Z" fill="#5686C4"/>
<path d="M98.88 70.0302C98.5554 70.6532 98.0015 71.1203 97.3393 71.3296C96.677 71.5389 95.9603 71.4733 95.3454 71.1471L87.1494 66.6923L89.6236 61.9771L97.8196 66.4215C98.4347 66.7533 98.8951 67.3197 99.0996 67.9963C99.3042 68.673 99.2363 69.4045 98.9107 70.0302H98.88Z" fill="#2480EF"/>
<path d="M94.5024 68.8793C94.6241 68.9904 94.7841 69.0478 94.9474 69.039C95.1106 69.0302 95.2638 68.9559 95.3732 68.8325L95.3912 68.8116L96.1775 67.7415L96.9459 67.3588L95.9982 66.4866L95.6447 66.6272C95.249 66.7786 94.9194 67.0685 94.715 67.4447L94.3385 68.1373C94.2771 68.2611 94.2598 68.4028 94.2897 68.5382C94.3196 68.6735 94.3948 68.7941 94.5024 68.8793Z" fill="#F79889"/>
<path d="M97.3583 67.8509L102.138 63.8283L100.063 62.1724L95.7422 66.346L97.3583 67.8509Z" fill="#164767"/>
<path d="M99.8248 62.831C99.8794 63.1291 100.02 63.4041 100.228 63.6212C100.436 63.8382 100.703 63.9876 100.995 64.0505C101.287 64.1134 101.59 64.087 101.867 63.9745C102.144 63.8621 102.382 63.6687 102.551 63.4188C102.72 63.1688 102.812 62.8736 102.816 62.5704C102.82 62.2672 102.736 61.9697 102.573 61.7153C102.411 61.461 102.178 61.2613 101.904 61.1415C101.63 61.0217 101.327 60.9872 101.034 61.0423C100.839 61.079 100.653 61.1543 100.486 61.2641C100.32 61.3738 100.177 61.5158 100.064 61.6819C99.9522 61.8481 99.8733 62.0351 99.8321 62.2322C99.791 62.4294 99.7885 62.6329 99.8248 62.831Z" fill="#164767"/>
<path d="M99.9787 62.5525L102.691 61.9432C102.243 61.1179 99.9787 56.0668 98.3984 55.4601C98.1205 55.3308 97.8178 55.2658 97.5122 55.2698C97.2066 55.2739 96.9057 55.3469 96.6312 55.4835C95.535 56.1371 95.4607 57.1967 95.9857 58.207C96.562 59.3005 99.9787 62.5525 99.9787 62.5525Z" fill="#164767"/>
<path d="M81.6245 62.1646L81.6655 62.2973C81.7722 62.6429 81.9449 62.9637 82.1736 63.2414C82.4023 63.5191 82.6826 63.7483 82.9985 63.9158C83.3143 64.0834 83.6596 64.186 84.0145 64.2179C84.3694 64.2498 84.727 64.2103 85.0668 64.1017L85.159 64.0704L81.6245 62.1646Z" fill="#164767"/>
<path d="M82.7543 61.8834C82.5729 61.8168 82.3775 61.8 82.1877 61.8348C81.9979 61.8695 81.8205 61.9545 81.6734 62.0812C81.6364 62.1123 81.6125 62.1567 81.6068 62.2052C81.6011 62.2536 81.6139 62.3025 81.6427 62.3416C81.6579 62.3629 81.6782 62.3799 81.7016 62.3911L83.0821 63.1513C83.1252 63.1756 83.1758 63.1821 83.2235 63.1695C83.2711 63.1569 83.3122 63.1262 83.3382 63.0836C83.3466 63.0697 83.3534 63.0548 83.3587 63.0394C83.4185 62.8048 83.3896 62.5559 83.2777 62.3418C83.1658 62.1278 82.979 61.9642 82.7543 61.8834Z" fill="#F79889"/>
<path d="M82.006 62.5681L81.5475 62.3077C81.5212 62.2926 81.4993 62.2706 81.484 62.2441C81.4687 62.2176 81.4606 62.1874 81.4604 62.1567V61.8026C81.4669 61.7312 81.4993 61.6649 81.5515 61.6167C81.6037 61.5685 81.6717 61.5419 81.7422 61.5422C81.8162 61.5422 81.8872 61.5721 81.9396 61.6254C81.9919 61.6786 82.0214 61.7508 82.0214 61.826L82.006 62.5681Z" fill="#F79889"/>
<path d="M95.2762 48.3521L95.2147 48.313C94.9739 48.1829 94.8228 48.313 94.5898 48.3287C94.3327 48.313 94.0875 48.2135 93.8905 48.0449C93.6461 47.818 93.3608 47.6412 93.0504 47.5241C92.8883 47.4879 92.7196 47.4952 92.561 47.5454C92.4025 47.5957 92.2595 47.687 92.1463 47.8105C91.9568 48.0188 91.9414 48.3313 91.7621 48.5474C91.6751 48.6515 91.5367 48.6697 91.4266 48.7453C91.28 48.8474 91.1708 48.9961 91.1161 49.1681C91.0615 49.34 91.0644 49.5255 91.1244 49.6956C91.1474 49.7607 91.2396 50.1668 91.3395 50.1148C91.4855 50.0341 91.4881 49.8284 91.57 49.6774C91.6427 49.5833 91.7408 49.513 91.8523 49.4751C91.9639 49.4371 92.0839 49.4332 92.1975 49.4639C92.4216 49.5274 92.6491 49.5778 92.8788 49.6149C93.1998 49.5893 93.5159 49.5201 93.8188 49.4092C94.1364 49.3389 94.5283 49.3884 94.6794 49.6696C94.7533 49.8505 94.7641 50.0517 94.7101 50.2398C94.6256 50.468 94.6256 50.7197 94.7101 50.9479C94.9355 51.3281 95.4324 51.1875 95.6194 50.8568C95.7119 50.6736 95.7627 50.4716 95.7679 50.2658C95.7981 49.819 95.7504 49.3704 95.6271 48.9405C95.5753 48.7112 95.4522 48.5049 95.2762 48.3521Z" fill="#164767"/>
<path d="M26.8063 100.425C36.3629 100.425 44.1101 99.4788 44.1101 98.3111C44.1101 97.1435 36.3629 96.197 26.8063 96.197C17.2496 96.197 9.50244 97.1435 9.50244 98.3111C9.50244 99.4788 17.2496 100.425 26.8063 100.425Z" fill="#DDF2FE"/>
<path d="M25.6793 49.2816C25.2881 49.1785 24.879 49.1676 24.483 49.2498C24.0871 49.3319 23.7148 49.5049 23.3947 49.7555C23.0105 50.0783 22.721 50.5366 22.2728 50.7657C21.8246 50.9948 21.2714 51.0052 20.8693 51.3151C20.682 51.4898 20.5379 51.7071 20.4489 51.9491C20.3599 52.1912 20.3284 52.4512 20.357 52.708C20.4091 53.2188 20.4877 53.7263 20.5926 54.2286C20.7412 55.395 20.0804 56.0824 19.3914 56.9207C18.9048 57.4609 18.585 58.1345 18.4719 58.8579C18.4213 59.2185 18.4735 59.5864 18.6224 59.9178C18.7713 60.2491 19.0107 60.5301 19.312 60.7273C19.5635 60.8582 19.8415 60.9277 20.1239 60.9304C20.8104 60.9512 21.4635 60.67 22.1294 60.4878C22.7953 60.3055 23.5611 60.2586 24.0913 60.683C24.2358 60.8217 24.3872 60.953 24.5447 61.0762C25.1261 61.4667 25.9636 61.1543 26.3734 60.5815C26.7832 60.0087 26.8652 59.264 26.901 58.5558C26.9322 57.9164 26.9262 57.2757 26.8831 56.637C26.8832 56.0223 27.0188 55.4155 27.2801 54.8613C27.4568 54.3978 27.7385 54.0229 27.9178 53.5594C28.5249 52.0311 27.759 50.3074 26.3555 49.5446C26.142 49.428 25.9148 49.3396 25.6793 49.2816Z" fill="#164767"/>
<path d="M28.96 64.2995L30.9475 63.0758L27.9637 57.2879C27.8937 57.1297 27.7936 56.9871 27.6692 56.8683C27.5449 56.7495 27.3987 56.6568 27.239 56.5956C27.0793 56.5344 26.9093 56.5058 26.7387 56.5116C26.5682 56.5173 26.4004 56.5573 26.2451 56.6291C26.1887 56.6535 26.1347 56.6831 26.0837 56.7177C25.4203 57.1499 25.1437 58.6105 25.5715 59.7171C25.9992 60.8236 28.96 64.2995 28.96 64.2995Z" fill="#4FA0FF"/>
<path d="M25.2334 57.7279L23.6377 57.4623L24.0424 54.6451L25.638 54.9107L25.2334 57.7279Z" fill="#F79889"/>
<path d="M26.1195 51.3437C26.309 52.005 26.9262 52.5075 26.9032 53.0361L26.8545 53.2626V53.2912L26.7009 53.9786C26.5692 54.3486 26.3091 54.657 25.9694 54.8458C25.6298 55.0345 25.2341 55.0907 24.8566 55.0037C24.4791 54.9167 24.1458 54.6926 23.9195 54.3734C23.6931 54.0542 23.5892 53.662 23.6274 53.2704L23.799 52.4893C24.1422 51.7915 25.4945 52.2836 26.1195 51.3437Z" fill="#F79889"/>
<path d="M22.9923 66.0153L21.2353 58.3163C21.1933 58.0381 21.2613 57.7544 21.4245 57.527C21.5876 57.2997 21.8327 57.1472 22.1061 57.103H22.2214L26.6062 56.5146C26.8819 56.5018 27.1513 56.6008 27.3554 56.7897C27.5594 56.9785 27.6815 57.242 27.6948 57.5222C27.6948 57.5665 27.6948 57.6107 27.6948 57.655L28.4273 66.0153H22.9923Z" fill="#9CE5E5"/>
<path d="M26.2684 66.0153L23.5176 70.5223L31.186 95.8533H32.7714C32.7714 95.8533 29.2087 69.6761 28.3942 66.0153H26.2684Z" fill="#2A4F9A"/>
<path d="M26.2681 66.0153C25.8532 78.3072 21.85 95.8585 21.85 95.8585H20.3311C20.3004 92.0649 20.5565 73.8549 20.8126 72.2641C20.9965 71.0722 21.3278 69.9087 21.7987 68.8012C22.2393 67.7598 22.3596 66.924 23.0051 66.0231L26.2681 66.0153Z" fill="#5686C4"/>
<path d="M31.8516 97.1863H32.8428L32.5483 95.8611H31.3599L31.8516 97.1863Z" fill="#F79889"/>
<path d="M20.6668 97.1863H21.658L21.7194 95.8611H20.5361L20.6668 97.1863Z" fill="#F79889"/>
<path d="M25.966 60.532C25.9418 60.8042 25.9975 61.0776 26.1261 61.3176C26.2547 61.5576 26.4504 61.7534 26.6884 61.8804C26.9264 62.0075 27.1961 62.0599 27.4635 62.0312C27.7308 62.0024 27.9838 61.8938 28.1904 61.719C28.3971 61.5442 28.5481 61.311 28.6245 61.049C28.7008 60.787 28.6991 60.5078 28.6195 60.2468C28.5399 59.9858 28.3859 59.7546 28.1771 59.5825C27.9683 59.4103 27.714 59.305 27.4464 59.2797C27.2682 59.2628 27.0886 59.2819 26.9177 59.3358C26.7468 59.3896 26.588 59.4772 26.4505 59.5936C26.313 59.7099 26.1994 59.8527 26.1163 60.0137C26.0331 60.1748 25.982 60.3509 25.966 60.532Z" fill="#9CE5E5"/>
<path d="M26.4755 56.512L26.0401 59.4541L23.5557 56.8973L26.4755 56.512Z" fill="#F79889"/>
<path d="M24.0988 53.0361C24.0961 53.1892 24.034 53.3349 23.9261 53.4417C23.8182 53.5485 23.6732 53.6076 23.5226 53.6063C23.372 53.6049 23.228 53.5431 23.122 53.4344C23.016 53.3257 22.9565 53.1788 22.9565 53.0257C22.9565 52.8726 23.016 52.7257 23.122 52.617C23.228 52.5082 23.372 52.4465 23.5226 52.4451C23.6732 52.4437 23.8182 52.5029 23.9261 52.6096C24.034 52.7164 24.0961 52.8622 24.0988 53.0153V53.0361Z" fill="#F79889"/>
<path d="M32.9785 96.65L32.4662 96.8739L31.6697 96.65L31.2573 98.0404H35.4834C35.4834 97.3452 34.0184 97.3452 34.0184 97.3452L32.9785 96.65Z" fill="#164767"/>
<path d="M21.7938 96.65L21.2815 96.8739L20.485 96.65L20.0752 98.0404H24.3013C24.3013 97.3452 22.8362 97.3452 22.8362 97.3452L21.7938 96.65Z" fill="#164767"/>
<path d="M31.7107 61.4069L31.7619 61.5449C31.8933 61.9023 31.9541 62.2826 31.9409 62.664C31.9276 63.0453 31.8407 63.4203 31.6849 63.7675C31.5291 64.1147 31.3076 64.4273 31.0329 64.6874C30.7583 64.9476 30.4359 65.1502 30.0843 65.2837L30.0049 65.3124L31.7107 61.4069Z" fill="#4FA0FF"/>
<path d="M29.2266 67.1167L24.4678 66.6741L27.4901 59.9619L32.2489 60.4045L29.2266 67.1167Z" fill="#006CFF"/>
<path d="M30.7788 61.7583C30.8669 61.6137 30.9909 61.4952 31.1384 61.4147C31.2858 61.3343 31.4516 61.2947 31.6188 61.3001C31.6626 61.3008 31.7042 61.3189 31.7349 61.3506C31.7656 61.3822 31.7828 61.4249 31.7828 61.4693C31.7829 61.4928 31.7776 61.516 31.7674 61.537L31.2065 62.8232C31.1885 62.8637 31.1557 62.8954 31.1149 62.9115C31.0742 62.9276 31.0289 62.9267 30.9888 62.9092C30.9786 62.9055 30.9691 62.9003 30.9606 62.8935C30.7966 62.7613 30.6871 62.5717 30.6535 62.3617C30.6199 62.1518 30.6645 61.9366 30.7788 61.7583Z" fill="#F79889"/>
<path d="M31.6622 61.8182L31.8415 61.3938C31.8516 61.3691 31.855 61.342 31.8514 61.3155C31.8478 61.289 31.8373 61.2639 31.821 61.2428L31.6315 61.0007C31.5919 60.9522 31.5355 60.9211 31.474 60.9138C31.4124 60.9065 31.3505 60.9237 31.3011 60.9616C31.2519 61.0007 31.2199 61.058 31.2122 61.1209C31.2046 61.1839 31.2218 61.2474 31.2601 61.2975L31.6622 61.8182Z" fill="#F79889"/>
<path d="M27.3283 62.779C27.3318 62.8539 27.3207 62.9287 27.2956 62.9993C27.2706 63.0698 27.2321 63.1346 27.1823 63.19C27.1326 63.2454 27.0726 63.2902 27.0058 63.322C26.939 63.3538 26.8667 63.3719 26.793 63.3752H26.7674L25.5073 63.3544L24.4649 63.7684L24.3394 62.628L24.9592 62.3676C25.31 62.1699 25.7147 62.094 26.1117 62.1515L26.8545 62.2609C26.9795 62.2799 27.0945 62.3416 27.1805 62.4357C27.2666 62.5298 27.3187 62.6509 27.3283 62.779Z" fill="#F79889"/>
<path d="M25.3486 62.2062L26.0581 62.3807C26.0809 62.3947 26.107 62.4021 26.1337 62.4021C26.1603 62.4021 26.1864 62.3947 26.2092 62.3807L26.5627 62.1567C26.5888 62.1409 26.6117 62.12 26.6298 62.0952C26.648 62.0704 26.6612 62.0421 26.6685 62.0121C26.6759 61.9821 26.6774 61.9509 26.6728 61.9203C26.6683 61.8897 26.6578 61.8604 26.6421 61.8339C26.6267 61.8071 26.6063 61.7836 26.582 61.7649C26.5577 61.7462 26.5299 61.7325 26.5004 61.7248C26.4708 61.717 26.4401 61.7153 26.4099 61.7197C26.3797 61.7242 26.3507 61.7346 26.3245 61.7506L25.3486 62.2062Z" fill="#F79889"/>
<path d="M24.4679 63.8752L19.6809 66.0128L19.5093 63.1461L24.3731 62.5082L24.4679 63.8752Z" fill="#4FA0FF"/>
<path d="M20.2006 64.9739L17.8955 64.2683L21.0279 57.944C21.1628 57.6225 21.4176 57.3685 21.7364 57.2377C22.0552 57.1069 22.412 57.11 22.7286 57.2462C22.7863 57.2701 22.842 57.2989 22.8951 57.3321C23.5712 57.7461 23.8812 59.199 23.456 60.3185C23.0308 61.4381 20.2006 64.9739 20.2006 64.9739Z" fill="#4FA0FF"/>
<path d="M19.1324 66.1325C19.8764 66.1325 20.4796 65.5193 20.4796 64.763C20.4796 64.0066 19.8764 63.3934 19.1324 63.3934C18.3883 63.3934 17.7852 64.0066 17.7852 64.763C17.7852 65.5193 18.3883 66.1325 19.1324 66.1325Z" fill="#4FA0FF"/>
<path d="M91.7057 13.1038L92.6534 15.5278L95.2146 15.6944L93.2399 17.3607L93.8751 19.8889L91.7057 18.4933L89.5363 19.8889L90.1715 17.3607L88.1968 15.6944L90.758 15.5278L91.7057 13.1038Z" fill="#5686C4"/>
<path d="M100.865 13.1038L101.813 15.5278L104.374 15.6944L102.399 17.3607L103.034 19.8889L100.865 18.4933L98.6955 19.8889L99.3307 17.3607L97.356 15.6944L99.9172 15.5278L100.865 13.1038Z" fill="#5686C4"/>
<path d="M110.024 13.1038L110.971 15.5278L113.532 15.6944L111.558 17.3607L112.193 19.8889L110.024 18.4933L107.857 19.8889L108.492 17.3607L106.515 15.6944L109.076 15.5278L110.024 13.1038Z" fill="#5686C4"/>
<path d="M34.6126 26.7443H17.2447C16.8288 26.7443 16.4917 27.087 16.4917 27.5098V42.8297C16.4917 43.2525 16.8288 43.5952 17.2447 43.5952H34.6126C35.0285 43.5952 35.3656 43.2525 35.3656 42.8297V27.5098C35.3656 27.087 35.0285 26.7443 34.6126 26.7443Z" fill="#4FA0FF"/>
<path d="M22.1571 33.6232H20.623C20.2552 33.6232 19.957 33.9263 19.957 34.3001V39.937C19.957 40.3109 20.2552 40.614 20.623 40.614H22.1571C22.5249 40.614 22.8231 40.3109 22.8231 39.937V34.3001C22.8231 33.9263 22.5249 33.6232 22.1571 33.6232Z" fill="white"/>
<path d="M22.2162 34.8209C22.2172 34.9141 22.191 35.0055 22.1409 35.0835C22.0908 35.1616 22.0191 35.2228 21.9348 35.2594C21.8504 35.296 21.7573 35.3064 21.6672 35.2892C21.5771 35.2721 21.494 35.2281 21.4285 35.1629C21.3629 35.0978 21.3179 35.0143 21.299 34.9231C21.2801 34.8319 21.2883 34.737 21.3224 34.6505C21.3566 34.564 21.4152 34.4898 21.4908 34.4371C21.5665 34.3845 21.6558 34.3558 21.7475 34.3548C21.8703 34.3541 21.9883 34.4027 22.0761 34.4899C22.1638 34.5772 22.2142 34.6961 22.2162 34.8209Z" fill="#9CE5E5"/>
<path d="M32.1846 36.193C32.1797 36.0205 32.1235 35.8534 32.0234 35.714C31.9232 35.5746 31.7839 35.4692 31.6237 35.4119C31.7876 35.3148 31.9249 35.1773 32.0229 35.0122C32.1209 34.8471 32.1765 34.6595 32.1846 34.4668C32.1846 33.8393 31.5724 33.3472 30.904 33.3472H28.5476C28.4858 33.3477 28.4247 33.3331 28.3696 33.3047C28.3145 33.2763 28.2669 33.2348 28.2307 33.1838C28.1946 33.1328 28.171 33.0738 28.162 33.0116C28.153 32.9494 28.1587 32.8859 28.1788 32.8265C28.3555 32.3058 28.7064 31.6184 28.7064 31.1367C28.7064 30.5066 28.6219 29.9495 28.1071 29.5303C28.0278 29.4594 27.9327 29.4094 27.83 29.3844C27.7273 29.3594 27.6202 29.3604 27.518 29.3871C27.418 29.4298 27.3292 29.4955 27.2585 29.5791C27.1878 29.6627 27.1372 29.7619 27.1107 29.8687C27.0621 30.0821 27.0287 30.2988 27.0108 30.5171C26.9527 30.9052 26.8101 31.2752 26.5934 31.6002C26.3464 31.9073 26.0644 32.1835 25.7533 32.4229C25.4811 32.7027 25.2676 33.0358 25.1258 33.4019C25.0272 33.6441 24.8602 33.8513 24.646 33.9972C24.4318 34.1432 24.1799 34.2214 23.922 34.2221H23.4712V40.2626H30.0844C30.6145 40.2626 31.1857 39.9111 31.1857 39.406C31.1904 39.2636 31.1615 39.1221 31.1014 38.9934C31.0412 38.8648 30.9515 38.7527 30.8399 38.6665C30.8399 38.6665 31.7005 38.4634 31.7005 37.9375C31.7032 37.7902 31.6706 37.6445 31.6055 37.5129C31.5403 37.3813 31.4446 37.2679 31.3266 37.1824C31.3266 37.1824 32.1846 36.7893 32.1846 36.193Z" fill="white"/>
<path d="M23.6071 14.5071H3.43465C3.01877 14.5071 2.68164 14.8499 2.68164 15.2726V23.4455C2.68164 23.8683 3.01877 24.211 3.43465 24.211H23.6071C24.023 24.211 24.3601 23.8683 24.3601 23.4455V15.2726C24.3601 14.8499 24.023 14.5071 23.6071 14.5071Z" fill="#9CE5E5"/>
<path d="M20.503 17.5872H9.7227C9.58684 17.5872 9.45655 17.5324 9.36048 17.4347C9.26442 17.3371 9.21045 17.2046 9.21045 17.0665C9.21045 16.9284 9.26442 16.796 9.36048 16.6983C9.45655 16.6006 9.58684 16.5458 9.7227 16.5458H20.503C20.6389 16.5458 20.7692 16.6006 20.8652 16.6983C20.9613 16.796 21.0153 16.9284 21.0153 17.0665C21.0153 17.2046 20.9613 17.3371 20.8652 17.4347C20.7692 17.5324 20.6389 17.5872 20.503 17.5872Z" fill="white"/>
<path d="M20.503 19.8681H9.7227C9.58684 19.8681 9.45655 19.8132 9.36048 19.7155C9.26442 19.6179 9.21045 19.4854 9.21045 19.3473C9.21045 19.2092 9.26442 19.0768 9.36048 18.9791C9.45655 18.8815 9.58684 18.8266 9.7227 18.8266H20.503C20.6389 18.8266 20.7692 18.8815 20.8652 18.9791C20.9613 19.0768 21.0153 19.2092 21.0153 19.3473C21.0153 19.4854 20.9613 19.6179 20.8652 19.7155C20.7692 19.8132 20.6389 19.8681 20.503 19.8681Z" fill="white"/>
<path d="M16.8379 22.1619H9.7227C9.58684 22.1619 9.45655 22.107 9.36048 22.0094C9.26442 21.9117 9.21045 21.7793 9.21045 21.6412C9.21045 21.503 9.26442 21.3706 9.36048 21.2729C9.45655 21.1753 9.58684 21.1204 9.7227 21.1204H16.8379C16.9737 21.1204 17.104 21.1753 17.2001 21.2729C17.2961 21.3706 17.3501 21.503 17.3501 21.6412C17.3501 21.7793 17.2961 21.9117 17.2001 22.0094C17.104 22.107 16.9737 22.1619 16.8379 22.1619Z" fill="white"/>
<path d="M7.38164 17.0665C7.38215 17.2014 7.34329 17.3335 7.26997 17.4459C7.19666 17.5584 7.09218 17.6462 6.96976 17.6984C6.84734 17.7505 6.71246 17.7645 6.5822 17.7387C6.45193 17.7129 6.33212 17.6484 6.23791 17.5533C6.14371 17.4583 6.07934 17.337 6.05295 17.2048C6.02656 17.0725 6.03933 16.9353 6.08965 16.8105C6.13998 16.6856 6.22558 16.5788 6.33565 16.5034C6.44573 16.428 6.57531 16.3875 6.70803 16.387C6.8858 16.387 7.05637 16.4584 7.18255 16.5857C7.30873 16.713 7.38029 16.8858 7.38164 17.0665Z" fill="white"/>
<path d="M7.38163 19.3577C7.38062 19.4924 7.3404 19.6238 7.26606 19.7353C7.19171 19.8468 7.08655 19.9334 6.96385 19.9842C6.84115 20.0351 6.70638 20.0478 6.57655 20.0209C6.44672 19.994 6.32763 19.9286 6.2343 19.833C6.14096 19.7374 6.07756 19.6159 6.05208 19.4837C6.0266 19.3515 6.04018 19.2146 6.09112 19.0903C6.14205 18.9659 6.22806 18.8597 6.3383 18.785C6.44854 18.7102 6.57808 18.6704 6.71058 18.6703C6.79914 18.6703 6.88682 18.6882 6.96857 18.7228C7.05032 18.7574 7.12452 18.8081 7.1869 18.872C7.24928 18.9359 7.29861 19.0117 7.33203 19.0951C7.36545 19.1784 7.38231 19.2677 7.38163 19.3577Z" fill="white"/>
<path d="M7.38164 21.6515C7.38215 21.7866 7.34323 21.9187 7.2698 22.0312C7.19637 22.1438 7.09175 22.2316 6.96917 22.2836C6.8466 22.3357 6.7116 22.3495 6.58126 22.3235C6.45092 22.2975 6.33111 22.2327 6.23701 22.1374C6.1429 22.0421 6.07873 21.9206 6.05263 21.7882C6.02653 21.6558 6.03967 21.5185 6.09039 21.3937C6.1411 21.2689 6.22711 21.1622 6.33752 21.0871C6.44792 21.0121 6.57777 20.972 6.71059 20.972C6.88813 20.972 7.05842 21.0435 7.1842 21.1709C7.30997 21.2982 7.38097 21.4711 7.38164 21.6515Z" fill="white"/>
<path d="M74.1047 40.89L72.7088 36.8127L68.8413 38.6014L74.7937 24.4635L80.0545 26.7521L74.1047 40.89Z" fill="#5686C4"/>
<path d="M84.0551 40.89L85.4536 36.8127L89.3185 38.6014L83.3713 24.4635L78.1079 26.7521L84.0551 40.89Z" fill="#5686C4"/>
<path d="M78.5306 14.5983L79.6985 15.7543L81.1661 15.0253L81.9293 16.4885L83.5455 16.2568L83.8247 17.8919L85.4357 18.1783L85.2052 19.8212L86.6472 20.5971L85.93 22.0864L87.0672 23.2789L85.93 24.4713L86.6472 25.9606L85.2052 26.7391L85.4357 28.382L83.8247 28.6658L83.5455 30.3009L81.9293 30.0666L81.1661 31.5351L79.6985 30.8061L78.5306 31.9569L77.3575 30.8061L75.8899 31.5351L75.1266 30.0666L73.5079 30.3009L73.2262 28.6658L71.6203 28.382L71.8508 26.7391L70.4088 25.9606L71.126 24.4713L69.9888 23.2789L71.126 22.0864L70.4088 20.5971L71.8508 19.8212L71.6203 18.1783L73.2262 17.8919L73.5079 16.2568L75.1266 16.4885L75.8899 15.0253L77.3575 15.7543L78.5306 14.5983Z" fill="#164767"/>
<path d="M78.5254 29.1345C81.7067 29.1345 84.2857 26.5128 84.2857 23.2789C84.2857 20.0449 81.7067 17.4232 78.5254 17.4232C75.3441 17.4232 72.7651 20.0449 72.7651 23.2789C72.7651 26.5128 75.3441 29.1345 78.5254 29.1345Z" fill="white"/>
<path d="M77.9413 26.5048L75.252 24.5234L75.9819 23.4403L77.5392 24.5885L80.6665 20.0529L81.8036 20.9069L77.9413 26.5048Z" fill="#2480EF"/>
</svg>
