<svg width="158" height="134" viewBox="0 0 158 134" fill="none" xmlns="http://www.w3.org/2000/svg">
<g clip-path="url(#clip0_4006_5120)">
<path d="M154 105.955H5V106.03H154V105.955Z" fill="#EBEBEB"/>
<path d="M139.071 110.75H129.201V110.825H139.071V110.75Z" fill="#EBEBEB"/>
<path d="M94.8299 110.789H92.2402V110.863H94.8299V110.789Z" fill="#EBEBEB"/>
<path d="M128.899 107.984H110.59V108.059H128.899V107.984Z" fill="#EBEBEB"/>
<path d="M72.0922 109.743H68.3105V109.817H72.0922V109.743Z" fill="#EBEBEB"/>
<path d="M65.657 109.743H54.6816V109.817H65.657V109.743Z" fill="#EBEBEB"/>
<path d="M28.211 108.485H20.6328V108.56H28.211V108.485Z" fill="#EBEBEB"/>
<path d="M52.3172 108.485H30V108.56H52.3172V108.485Z" fill="#EBEBEB"/>
<path d="M75.6261 92.6643H18.0853C17.6345 92.6635 17.2025 92.4839 16.884 92.1649C16.5656 91.8458 16.3867 91.4135 16.3867 90.9627V10.0766C16.3906 9.62839 16.5712 9.19985 16.8893 8.88404C17.2073 8.56823 17.6371 8.39066 18.0853 8.38989H75.6261C76.0774 8.38989 76.5102 8.56917 76.8293 8.88827C77.1485 9.20738 77.3277 9.64019 77.3277 10.0915V90.9627C77.3277 91.414 77.1485 91.8468 76.8293 92.1659C76.5102 92.485 76.0774 92.6643 75.6261 92.6643ZM18.0853 8.44949C17.6543 8.45028 17.2412 8.62205 16.9367 8.92711C16.6322 9.23216 16.4612 9.64556 16.4612 10.0766V90.9627C16.4612 91.3937 16.6322 91.8071 16.9367 92.1122C17.2412 92.4172 17.6543 92.589 18.0853 92.5898H75.6261C76.0574 92.589 76.4708 92.4173 76.7758 92.1124C77.0808 91.8074 77.2524 91.394 77.2532 90.9627V10.0766C77.2524 9.64529 77.0808 9.23189 76.7758 8.92692C76.4708 8.62196 76.0574 8.45028 75.6261 8.44949H18.0853Z" fill="#EBEBEB"/>
<path d="M140.087 92.6643H82.5434C82.0923 92.6635 81.66 92.484 81.3411 92.165C81.0221 91.8461 80.8426 91.4138 80.8418 90.9627V10.0766C80.8465 9.62812 81.0278 9.19958 81.3463 8.88386C81.6648 8.56813 82.0949 8.39065 82.5434 8.38989H140.087C140.535 8.39144 140.964 8.56936 141.281 8.88509C141.599 9.20081 141.779 9.6289 141.783 10.0766V90.9627C141.783 91.413 141.604 91.8449 141.287 92.1638C140.969 92.4827 140.537 92.6627 140.087 92.6643ZM82.5434 8.44949C82.1121 8.45028 81.6987 8.62196 81.3937 8.92692C81.0888 9.23189 80.9171 9.64529 80.9163 10.0766V90.9627C80.9171 91.394 81.0888 91.8074 81.3937 92.1124C81.6987 92.4173 82.1121 92.589 82.5434 92.5898H140.087C140.518 92.589 140.932 92.4173 141.237 92.1124C141.542 91.8074 141.713 91.394 141.714 90.9627V10.0766C141.713 9.64529 141.542 9.23189 141.237 8.92692C140.932 8.62196 140.518 8.45028 140.087 8.44949H82.5434Z" fill="#EBEBEB"/>
<path d="M26.4969 74.0154H66.9355V17.4609L26.4969 17.4609L26.4969 74.0154Z" fill="#E6E6E6"/>
<path d="M25.6005 74.0154H66.0391V17.4609L25.6005 17.4609L25.6005 74.0154Z" fill="#F5F5F5"/>
<path d="M64.4238 72.2037V19.2729L27.2126 19.2729V72.2037H64.4238Z" fill="white"/>
<path d="M27.8926 72.2037L27.8926 19.2729H27.2131L27.2131 72.2037H27.8926Z" fill="#E6E6E6"/>
<path d="M26.2675 39.4446L65.3711 39.4446V37.0129L26.2675 37.0129V39.4446Z" fill="#F5F5F5"/>
<path d="M23.8391 14.4602H68.6941C68.76 14.461 68.8229 14.4877 68.8692 14.5346C68.9155 14.5814 68.9414 14.6446 68.9414 14.7105C68.9414 14.7761 68.9154 14.839 68.869 14.8854C68.8226 14.9318 68.7597 14.9579 68.6941 14.9579H23.8391C23.7735 14.9579 23.7106 14.9318 23.6642 14.8854C23.6179 14.839 23.5918 14.7761 23.5918 14.7105C23.5918 14.6446 23.6178 14.5814 23.6641 14.5346C23.7104 14.4877 23.7733 14.461 23.8391 14.4602Z" fill="#E6E6E6"/>
<path d="M22.3497 14.7104C22.352 14.9556 22.4269 15.1947 22.5649 15.3975C22.7028 15.6003 22.8977 15.7577 23.125 15.8499C23.3522 15.9422 23.6017 15.9651 23.842 15.9158C24.0822 15.8665 24.3025 15.7472 24.4751 15.573C24.6477 15.3987 24.7649 15.1773 24.8119 14.9366C24.8589 14.6958 24.8336 14.4466 24.7392 14.2202C24.6448 13.9938 24.4855 13.8005 24.2815 13.6644C24.0774 13.5284 23.8376 13.4558 23.5923 13.4558C23.4281 13.4558 23.2656 13.4883 23.114 13.5515C22.9625 13.6147 22.8249 13.7073 22.7094 13.824C22.5938 13.9406 22.5026 14.079 22.4408 14.2312C22.3791 14.3833 22.3481 14.5462 22.3497 14.7104Z" fill="#E6E6E6"/>
<path d="M66.5994 16.1021C66.6885 16.1013 66.7737 16.0656 66.8366 16.0026C66.8996 15.9396 66.9353 15.8544 66.9361 15.7654V15.0442C66.9353 14.9554 66.8995 14.8705 66.8364 14.808C66.7734 14.7455 66.6882 14.7104 66.5994 14.7104C66.5109 14.7104 66.426 14.7456 66.3634 14.8082C66.3008 14.8708 66.2656 14.9557 66.2656 15.0442V15.7654C66.2656 15.8542 66.3007 15.9394 66.3632 16.0024C66.4257 16.0655 66.5106 16.1013 66.5994 16.1021Z" fill="#E6E6E6"/>
<path d="M27.5857 16.1021C27.6748 16.1013 27.76 16.0656 27.823 16.0026C27.8859 15.9396 27.9217 15.8544 27.9225 15.7654V15.0442C27.9217 14.9554 27.8858 14.8705 27.8228 14.808C27.7597 14.7455 27.6745 14.7104 27.5857 14.7104C27.4972 14.7104 27.4123 14.7456 27.3497 14.8082C27.2871 14.8708 27.252 14.9557 27.252 15.0442V15.7654C27.2519 15.8542 27.287 15.9394 27.3495 16.0024C27.412 16.0655 27.4969 16.1013 27.5857 16.1021Z" fill="#E6E6E6"/>
<path opacity="0.5" d="M59.0068 60.6382L30.2826 60.6382C28.5952 60.6382 26.977 59.9679 25.7838 58.7747C24.5906 57.5815 23.9203 55.9633 23.9203 54.2759L23.9203 14.7104L65.3691 14.7104V54.2759C65.3691 55.9633 64.6988 57.5815 63.5057 58.7747C62.3125 59.9679 60.6942 60.6382 59.0068 60.6382Z" fill="#E0E0E0"/>
<path d="M61.3673 14.7104C61.3696 14.9558 61.4446 15.195 61.5827 15.3978C61.7208 15.6007 61.9159 15.7581 62.1433 15.8502C62.3707 15.9423 62.6204 15.9651 62.8607 15.9156C63.101 15.866 63.3213 15.7465 63.4938 15.5719C63.6663 15.3973 63.7832 15.1756 63.8299 14.9347C63.8765 14.6938 63.8508 14.4445 63.756 14.2181C63.6611 13.9918 63.5014 13.7987 63.2969 13.663C63.0924 13.5273 62.8523 13.4552 62.607 13.4558C62.4429 13.4558 62.2805 13.4884 62.1291 13.5516C61.9777 13.6148 61.8404 13.7075 61.7251 13.8242C61.6098 13.9409 61.5187 14.0793 61.4573 14.2314C61.3959 14.3835 61.3653 14.5463 61.3673 14.7104Z" fill="#E6E6E6"/>
<path d="M127.588 17.8545H92.9961V52.5387H127.588V17.8545Z" fill="#F0F0F0"/>
<path d="M127.588 52.5386H128.184V17.8544H127.588V52.5386Z" fill="#E0E0E0"/>
<path d="M124.534 34.2861C124.534 26.4208 118.158 20.0447 110.292 20.0447C102.427 20.0447 96.0508 26.4208 96.0508 34.2861V36.1069C96.0508 43.9722 102.427 50.3483 110.292 50.3483C118.158 50.3483 124.534 43.9722 124.534 36.1069V34.2861Z" fill="white"/>
<path d="M115.723 28.7253H104.867C104.504 28.7253 104.211 29.0189 104.211 29.3809V41.0149C104.211 41.3769 104.504 41.6705 104.867 41.6705H115.723C116.085 41.6705 116.378 41.3769 116.378 41.0149V29.3809C116.378 29.0189 116.085 28.7253 115.723 28.7253Z" fill="#F5F5F5"/>
<path d="M60.0918 104.799H68.0723V87.1006H60.0918V104.799Z" fill="#F0F0F0"/>
<path d="M27.1762 105.916H66.5391V104.796H27.1762V105.916Z" fill="#F0F0F0"/>
<path d="M60.0904 87.0977H25.6445V104.796H60.0904V87.0977Z" fill="#F5F5F5"/>
<path d="M56.9537 95.23H28.7838C28.7442 95.23 28.7063 95.2143 28.6784 95.1864C28.6505 95.1584 28.6348 95.1205 28.6348 95.081V89.276C28.6348 89.2364 28.6505 89.1985 28.6784 89.1706C28.7063 89.1427 28.7442 89.127 28.7838 89.127H56.9537C56.993 89.1277 57.0304 89.1437 57.0582 89.1714C57.086 89.1992 57.1019 89.2367 57.1027 89.276V95.081C57.1027 95.1205 57.087 95.1584 57.0591 95.1864C57.0311 95.2143 56.9932 95.23 56.9537 95.23ZM28.9417 94.932H56.8136V89.425H28.9328L28.9417 94.932Z" fill="#F0F0F0"/>
<path d="M56.9537 102.767H28.7838C28.7442 102.767 28.7063 102.751 28.6784 102.723C28.6505 102.695 28.6348 102.657 28.6348 102.618V96.8126C28.6348 96.7731 28.6505 96.7352 28.6784 96.7072C28.7063 96.6793 28.7442 96.6636 28.7838 96.6636H56.9537C56.993 96.6643 57.0304 96.6803 57.0582 96.7081C57.086 96.7358 57.1019 96.7733 57.1027 96.8126V102.618C57.1027 102.657 57.087 102.695 57.0591 102.723C57.0311 102.751 56.9932 102.767 56.9537 102.767ZM28.9417 102.469H56.8136V96.9616H28.9328L28.9417 102.469Z" fill="#F0F0F0"/>
<path d="M39.2762 92.5779H46.455C46.6492 92.5779 46.8066 92.4204 46.8066 92.2262V92.1339C46.8066 91.9397 46.6492 91.7822 46.455 91.7822H39.2762C39.082 91.7822 38.9245 91.9397 38.9245 92.1339V92.2262C38.9245 92.4204 39.082 92.5779 39.2762 92.5779Z" fill="white"/>
<path d="M39.2762 100.111H46.455C46.6492 100.111 46.8066 99.9539 46.8066 99.7597V99.6673C46.8066 99.4731 46.6492 99.3157 46.455 99.3157H39.2762C39.082 99.3157 38.9245 99.4731 38.9245 99.6673V99.7597C38.9245 99.9539 39.082 100.111 39.2762 100.111Z" fill="white"/>
<path d="M41.103 84.1206C41.103 84.1206 41.0077 87.1006 37.3303 87.1006C33.653 87.1006 33.5547 84.1206 33.5547 84.1206H41.103Z" fill="#F5F5F5"/>
<path d="M49.7007 84.1206C49.7007 84.1206 49.6023 87.1006 45.925 87.1006C42.2477 87.1006 42.1523 84.1206 42.1523 84.1206H49.7007Z" fill="#F5F5F5"/>
<path d="M58.312 84.1206C58.312 84.1206 58.2166 87.1006 54.5363 87.1006C50.856 87.1006 50.7637 84.1206 50.7637 84.1206H58.312Z" fill="#F5F5F5"/>
<path d="M131.257 104.137H137.279V64.6492H131.257V104.137Z" fill="#F0F0F0"/>
<path d="M86.0238 105.952H135.691V104.137H86.0238V105.952Z" fill="#F0F0F0"/>
<path d="M131.257 64.6462H84.4355V104.134H131.257V64.6462Z" fill="#F5F5F5"/>
<path d="M128.003 78.9175H87.6895V88.3104H128.003V78.9175Z" fill="#F0F0F0"/>
<path d="M128.003 91.2161H87.6895V100.609H128.003V91.2161Z" fill="#F0F0F0"/>
<path d="M96.2201 79.5642H119.473C119.81 79.5642 120.084 79.2907 120.084 78.9533V78.8878C120.084 78.5504 119.81 78.2769 119.473 78.2769H96.2201C95.8827 78.2769 95.6092 78.5504 95.6092 78.8878V78.9533C95.6092 79.2907 95.8827 79.5642 96.2201 79.5642Z" fill="#F5F5F5"/>
<path d="M96.2201 91.8596H119.473C119.81 91.8596 120.084 91.5861 120.084 91.2487V91.1832C120.084 90.8458 119.81 90.5723 119.473 90.5723H96.2201C95.8827 90.5723 95.6092 90.8458 95.6092 91.1832V91.2487C95.6092 91.5861 95.8827 91.8596 96.2201 91.8596Z" fill="#F5F5F5"/>
<path d="M128.003 66.6221H87.6895V76.015H128.003V66.6221Z" fill="#F0F0F0"/>
<path d="M96.2201 67.2688H119.473C119.81 67.2688 120.084 66.9953 120.084 66.6579V66.5923C120.084 66.2549 119.81 65.9814 119.473 65.9814H96.2201C95.8827 65.9814 95.6092 66.2549 95.6092 66.5923V66.6579C95.6092 66.9953 95.8827 67.2688 96.2201 67.2688Z" fill="#F5F5F5"/>
<path d="M79.4999 119.413C111.411 119.413 137.279 117.903 137.279 116.04C137.279 114.177 111.411 112.666 79.4999 112.666C47.5893 112.666 21.7207 114.177 21.7207 116.04C21.7207 117.903 47.5893 119.413 79.4999 119.413Z" fill="#F5F5F5"/>
<path d="M90.7367 22.7952L90.7031 23.0913L92.2665 23.2686L92.3001 22.9725L90.7367 22.7952Z" fill="#0E53BE"/>
<path d="M83.9555 22.0291L83.9219 22.3252L88.9941 22.9004L89.0277 22.6043L83.9555 22.0291Z" fill="#0E53BE"/>
<path d="M121.529 27.3407L67.9138 21.2605C67.1125 21.1696 66.3892 21.7455 66.2984 22.5468L61.6647 63.406C61.5738 64.2073 62.1498 64.9305 62.9511 65.0214L116.566 71.1017C117.368 71.1925 118.091 70.6166 118.182 69.8153L122.815 28.9562C122.906 28.1549 122.33 27.4316 121.529 27.3407Z" fill="#0E53BE"/>
<path opacity="0.7" d="M62.4477 62.924L66.9504 23.2036C66.9663 23.0633 67.0098 22.9275 67.0785 22.8041C67.1471 22.6807 67.2395 22.572 67.3503 22.4845C67.4611 22.397 67.5882 22.3322 67.7241 22.294C67.8601 22.2558 68.0022 22.2449 68.1424 22.262L121.097 28.2637C121.237 28.2799 121.373 28.3237 121.496 28.3924C121.619 28.4612 121.728 28.5536 121.815 28.6643C121.903 28.775 121.967 28.9019 122.006 29.0377C122.044 29.1735 122.055 29.3155 122.039 29.4557L117.524 69.1612C117.509 69.3017 117.465 69.4377 117.397 69.5613C117.328 69.6849 117.236 69.7937 117.125 69.8813C117.014 69.9689 116.887 70.0336 116.751 70.0717C116.615 70.1097 116.472 70.1203 116.332 70.1029L63.3774 64.0982C63.0993 64.0638 62.8459 63.9214 62.6719 63.7017C62.4979 63.482 62.4174 63.2026 62.4477 62.924Z" fill="#263238"/>
<path d="M113.172 38.053L90.8574 35.5225L90.7328 36.621L113.047 39.1515L113.172 38.053Z" fill="#0E53BE"/>
<path d="M116.592 40.2135L92.9512 37.5325L92.8266 38.631L116.467 41.312L116.592 40.2135Z" fill="#0E53BE"/>
<path d="M112.339 41.5055L92.752 39.2842L92.6274 40.3827L112.215 42.604L112.339 41.5055Z" fill="#0E53BE"/>
<path d="M110.097 43.0265L92.5527 41.0369L92.4282 42.1354L109.972 44.125L110.097 43.0265Z" fill="#0E53BE"/>
<path d="M104.435 45.2715L89.9375 43.6274L89.8129 44.726L104.31 46.37L104.435 45.2715Z" fill="#0E53BE"/>
<path d="M107.199 50.912L91.6328 49.1467L91.5082 50.2453L107.074 52.0105L107.199 50.912Z" fill="#0E53BE"/>
<path d="M104.73 48.8568L91.832 47.394L91.7075 48.4926L104.606 49.9553L104.73 48.8568Z" fill="#0E53BE"/>
<path d="M106.235 47.2527L92.0312 45.6418L91.9067 46.7404L106.111 48.3512L106.235 47.2527Z" fill="#0E53BE"/>
<path d="M102.919 58.6375L88.4219 56.9934L88.2973 58.0919L102.794 59.736L102.919 58.6375Z" fill="#0E53BE"/>
<path d="M105.683 64.2775L90.1172 62.5122L89.9926 63.6107L105.559 65.376L105.683 64.2775Z" fill="#0E53BE"/>
<path d="M103.046 61.7069L90.1953 60.2791L90.0737 61.3736L102.925 62.8015L103.046 61.7069Z" fill="#0E53BE"/>
<path d="M104.718 60.6181L90.5137 59.0073L90.3891 60.1059L104.593 61.7167L104.718 60.6181Z" fill="#0E53BE"/>
<path d="M81.2086 26.1488L69.4355 24.8137L69.311 25.9123L81.084 27.2474L81.2086 26.1488Z" fill="white"/>
<path d="M83.3388 31.7117L70.7012 30.2786L70.5766 31.3771L83.2142 32.8103L83.3388 31.7117Z" fill="white"/>
<path d="M81.3716 29.7165L70.8984 28.5288L70.7739 29.6273L81.247 30.8151L81.3716 29.7165Z" fill="white"/>
<path d="M82.6269 28.0811L71.0938 26.7732L70.9692 27.8717L82.5023 29.1797L82.6269 28.0811Z" fill="white"/>
<path d="M106.603 56.1693L91.0371 54.4041L90.9125 55.5026L106.479 57.2679L106.603 56.1693Z" fill="#0E53BE"/>
<path d="M104.133 54.1141L91.2344 52.6514L91.1098 53.7499L104.008 55.2126L104.133 54.1141Z" fill="#0E53BE"/>
<path d="M105.638 52.51L91.4336 50.8992L91.309 51.9977L105.513 53.6085L105.638 52.51Z" fill="#0E53BE"/>
<path d="M73.6775 114.85L71.7078 114.806L71.4336 110.234L73.4034 110.279L73.6775 114.85Z" fill="#FFC3BD"/>
<path d="M71.6356 114.576L73.7872 114.624C73.8259 114.625 73.8631 114.639 73.8929 114.664C73.9226 114.689 73.9431 114.723 73.9511 114.761L74.3027 116.522C74.3092 116.565 74.3063 116.608 74.2943 116.65C74.2822 116.691 74.2613 116.73 74.233 116.762C74.2046 116.795 74.1695 116.821 74.1301 116.839C74.0907 116.856 74.0479 116.865 74.0047 116.865C73.2299 116.835 72.1095 116.767 71.135 116.743C69.9937 116.719 69.788 116.919 68.453 116.778C67.6484 116.695 67.5083 115.858 67.857 115.819C69.4245 115.643 69.8 115.521 71.135 114.719C71.2844 114.624 71.4584 114.574 71.6356 114.576Z" fill="#263238"/>
<path opacity="0.2" d="M71.4336 110.238L71.5766 112.592L73.5464 112.636L73.4064 110.282L71.4336 110.238Z" fill="black"/>
<path d="M70.5591 49.958C69.9035 51.2424 69.2121 52.4851 68.4731 53.7247C67.7341 54.9644 66.9831 56.1743 66.0891 57.3901C65.9759 57.5421 65.8507 57.6881 65.7315 57.852C65.6808 57.9206 65.5944 58.0189 65.5169 58.1053C65.4395 58.1918 65.359 58.2871 65.2726 58.3676C64.9382 58.7035 64.558 58.9905 64.1432 59.2199C63.3694 59.653 62.5117 59.9152 61.628 59.9887C60.8269 60.0603 60.0196 60.0212 59.2291 59.8725C58.8479 59.8046 58.4708 59.715 58.0997 59.6043C57.723 59.4964 57.3537 59.364 56.9941 59.2079L57.4709 57.703C57.7689 57.7358 58.1087 57.7716 58.4305 57.7895C58.7523 57.8073 59.0861 57.8073 59.4079 57.7895C60.0258 57.7829 60.6407 57.7049 61.2406 57.557C61.7644 57.4365 62.2588 57.2126 62.6949 56.8984C62.8842 56.7581 63.0545 56.5939 63.2015 56.4097C63.2395 56.3656 63.2744 56.3188 63.3058 56.2697C63.3415 56.222 63.3713 56.1832 63.419 56.1087L63.6813 55.7064C64.3816 54.586 65.058 53.3552 65.7285 52.1304L67.74 48.4531L70.5591 49.958Z" fill="#FFC3BD"/>
<path d="M72.3274 48.0239C72.6254 49.8119 68.5398 55.2028 68.5398 55.2028L65.5449 51.5999C66.3961 50.1378 67.3733 48.7528 68.4653 47.4607C70.0179 45.7204 71.9966 46.0512 72.3274 48.0239Z" fill="white"/>
<path opacity="0.2" d="M71.3693 49.5527C70.1773 49.8507 68.1687 51.1172 67.1973 53.5786L68.5472 55.2057C68.5472 55.2057 70.9699 52.0201 71.9474 49.7315C71.8813 49.6456 71.7902 49.5823 71.6867 49.5503C71.5832 49.5183 71.4723 49.5191 71.3693 49.5527Z" fill="black"/>
<path d="M70.2138 46.3344C70.2138 46.3344 67.0728 50.3395 67.2814 61.8989L77.8932 63.818C78.2598 62.2029 78.3909 55.632 81.35 48.2416C80.2175 47.8035 79.0578 47.4392 77.8783 47.1509C76.3916 46.7908 74.8852 46.5182 73.3666 46.3344C72.3172 46.2525 71.2631 46.2525 70.2138 46.3344Z" fill="white"/>
<path opacity="0.2" d="M79.1028 52.7532C78.6498 53.3939 78.3757 55.1372 78.9866 56.3292C79.1296 55.5901 79.2995 54.8153 79.5021 54.0078L79.1028 52.7532Z" fill="black"/>
<path d="M73.3671 46.3345C73.3671 46.3345 72.0946 48.8347 73.5787 50.134C76.1742 49.9135 77.8788 47.154 77.8788 47.154L73.3671 46.3345Z" fill="#263238"/>
<path d="M53.9551 56.7048L53.9879 58.1859L55.2693 59.1127L55.8474 57.0803L53.9551 56.7048Z" fill="#FFC3BD"/>
<path d="M58.1303 57.8581L55.8477 57.0803L55.2695 59.1127C55.2695 59.1127 56.5986 59.6908 57.6535 58.916L58.1303 57.8581Z" fill="#FFC3BD"/>
<path d="M78.3489 41.9895C77.8006 43.3901 77.0377 45.9976 77.8781 47.1509C77.8781 47.1509 76.7218 48.5008 74.1263 48.7213C72.6363 47.422 73.3664 46.3373 73.3664 46.3373C75.056 46.242 75.2289 45.0351 75.1544 43.855L78.3489 41.9895Z" fill="#FFC3BD"/>
<path opacity="0.2" d="M77.0466 42.7495L75.1543 43.8521C75.1768 44.1268 75.1768 44.4029 75.1543 44.6776C75.9947 45.1097 76.6801 44.6567 77.0466 43.7478C77.1216 43.4193 77.1216 43.0781 77.0466 42.7495Z" fill="black"/>
<path d="M74.1587 40.3802C74.2808 41.2742 77.0373 39.817 77.5022 39.51C77.9671 39.2031 77.4337 38.1392 76.3877 37.281C75.3417 36.4228 73.8756 38.2912 74.1587 40.3802Z" fill="#263238"/>
<path d="M79.8158 40.7916C78.9724 42.6064 78.5731 43.712 77.2589 44.2961C75.2862 45.1901 73.3224 43.4289 73.6055 41.3995C73.8588 39.5728 75.1938 36.9116 77.3036 36.8818C77.7694 36.8731 78.2296 36.9838 78.6405 37.2032C79.0514 37.4226 79.3993 37.7436 79.6511 38.1355C79.9029 38.5274 80.0502 38.9772 80.079 39.4421C80.1079 39.907 80.0172 40.3716 79.8158 40.7916Z" fill="#FFC3BD"/>
<path d="M79.0696 42.4902C78.1756 42.6243 78.8074 39.5698 78.9713 39.0393C79.1352 38.5089 80.5537 38.0231 81.3553 39.1138C82.3179 40.4459 81.1556 42.1802 79.0696 42.4902Z" fill="#263238"/>
<path d="M78.8015 36.2769C77.9999 36.1159 78.2294 35.2666 78.8194 35.3113C78.3456 34.7362 75.5414 34.2117 75.3894 36.0712C75.2374 37.9308 78.8522 38.9618 79.8296 39.093L81.2868 39.5012C83.2507 38.5208 81.0723 36.7328 78.8015 36.2769Z" fill="#263238"/>
<path d="M79.9138 42.9878C79.5453 43.3314 79.0555 43.5146 78.5519 43.4973C77.8874 43.4675 77.7593 42.8238 78.1169 42.3053C78.4357 41.8345 79.1718 41.2832 79.7588 41.5663C79.8851 41.6308 79.9934 41.7257 80.0739 41.8425C80.1544 41.9593 80.2046 42.0942 80.2199 42.2352C80.2353 42.3762 80.2154 42.5188 80.1619 42.6501C80.1085 42.7815 80.0232 42.8975 79.9138 42.9878Z" fill="#FFC3BD"/>
<path d="M67.6805 111.155L65.7465 111.537L64.7988 107.073L66.7328 106.691L67.6805 111.155Z" fill="#FFC3BD"/>
<path d="M65.6241 111.328L67.7369 110.911C67.7754 110.904 67.8153 110.91 67.85 110.928C67.8847 110.947 67.912 110.976 67.9276 111.012L68.6458 112.654C68.6615 112.694 68.6684 112.737 68.6661 112.779C68.6639 112.822 68.6525 112.864 68.6327 112.902C68.6129 112.939 68.5852 112.973 68.5515 112.999C68.5177 113.025 68.4788 113.044 68.4372 113.054C67.6713 113.191 66.5628 113.352 65.6062 113.551C64.4857 113.772 64.1162 113.796 62.8139 114.055C62.0183 114.21 61.6398 113.459 61.9587 113.313C63.4069 112.684 64.0447 112.633 65.189 111.57C65.3082 111.45 65.4591 111.366 65.6241 111.328Z" fill="#263238"/>
<path opacity="0.2" d="M64.7988 107.073L65.2875 109.373L67.2216 108.992L66.7329 106.691L64.7988 107.073Z" fill="black"/>
<path d="M64.8967 111.796C64.7717 111.854 64.6306 111.866 64.4974 111.832C64.4528 111.816 64.4129 111.789 64.3816 111.754C64.3503 111.718 64.3286 111.675 64.3186 111.629C64.3085 111.603 64.306 111.575 64.3113 111.547C64.3165 111.52 64.3294 111.495 64.3484 111.474C64.5153 111.292 65.2662 111.441 65.3497 111.459C65.3591 111.461 65.3678 111.466 65.3747 111.473C65.3816 111.48 65.3863 111.488 65.3884 111.498C65.3899 111.507 65.3887 111.516 65.385 111.525C65.3813 111.533 65.3753 111.541 65.3675 111.546C65.2204 111.646 65.0625 111.73 64.8967 111.796ZM64.4735 111.498C64.4535 111.505 64.4352 111.516 64.4199 111.531C64.4199 111.531 64.399 111.558 64.4199 111.593C64.4261 111.625 64.4403 111.654 64.4612 111.679C64.482 111.703 64.5089 111.722 64.5391 111.733C64.7862 111.753 65.0315 111.677 65.2245 111.522C64.9743 111.463 64.715 111.455 64.4616 111.498H64.4735Z" fill="#0E53BE"/>
<path d="M65.3479 111.537H65.324C65.0886 111.501 64.5582 111.239 64.5194 111C64.5139 110.965 64.521 110.928 64.5395 110.897C64.558 110.866 64.5867 110.843 64.6207 110.831C64.6539 110.815 64.69 110.807 64.7265 110.807C64.7631 110.807 64.7992 110.815 64.8323 110.831C65.1303 110.929 65.3628 111.459 65.3747 111.48C65.3792 111.487 65.3816 111.496 65.3816 111.504C65.3816 111.512 65.3792 111.521 65.3747 111.528C65.3672 111.534 65.3576 111.537 65.3479 111.537ZM64.6833 110.902H64.6625C64.6088 110.932 64.6118 110.962 64.6148 110.974C64.6356 111.105 64.9932 111.331 65.2406 111.409C65.1601 111.257 64.9843 110.959 64.8025 110.896C64.7632 110.885 64.7212 110.887 64.6833 110.902Z" fill="#0E53BE"/>
<path d="M67.2825 61.8989C67.2825 61.8989 62.5711 79.8326 61.2093 85.8313C59.7968 92.0744 64.5558 108.944 64.5558 108.944L67.6997 108.324C67.6997 108.324 66.3796 91.1238 66.8296 88.3941C68.6325 81.7845 74.2587 63.1624 74.2587 63.1624L67.2825 61.8989Z" fill="#0E53BE"/>
<path opacity="0.2" d="M67.8778 76.7632C67.6821 79.2606 67.722 81.7709 67.997 84.2609C69.3439 79.5733 71.2154 73.2855 72.5623 68.7947C71.2035 69.3817 68.3814 71.2442 67.8778 76.7632Z" fill="black"/>
<path d="M70.9465 62.5635C70.9465 62.5635 68.479 80.8368 68.6906 86.7432C68.9201 93.2068 70.4488 112.005 70.4488 112.005L74.1351 112.094C74.1351 112.094 74.0784 94.3213 74.4331 88.0216C74.8026 81.1855 77.8005 63.8091 77.8005 63.8091L70.9465 62.5635Z" fill="#0E53BE"/>
<path d="M74.383 112.168L70.4047 112.082L70.0918 110.574L74.4962 110.547L74.383 112.168Z" fill="#263238"/>
<path d="M68.3188 108.283L64.415 109.051L63.7832 107.645L68.1102 106.873L68.3188 108.283Z" fill="#263238"/>
<path d="M76.9061 40.2492C76.8465 40.4012 76.7184 40.4935 76.6081 40.4548C76.4978 40.4161 76.477 40.2611 76.5366 40.1091C76.5962 39.9571 76.7243 39.8677 76.8346 39.9065C76.9448 39.9452 76.9627 40.1002 76.9061 40.2492Z" fill="#263238"/>
<path d="M75.1932 39.5816C75.1336 39.7306 75.0055 39.823 74.8952 39.7843C74.7849 39.7455 74.7641 39.5906 74.8237 39.4416C74.8833 39.2926 75.0114 39.1972 75.1217 39.2359C75.2319 39.2747 75.2528 39.4296 75.1932 39.5816Z" fill="#263238"/>
<path d="M75.5921 39.823C75.2303 40.2156 74.8162 40.5566 74.3613 40.8362C74.4362 40.9504 74.5349 41.0471 74.6506 41.1196C74.7664 41.1921 74.8964 41.2388 75.0318 41.2564L75.5921 39.823Z" fill="#ED847E"/>
<path d="M75.0061 41.9895C74.9996 41.9875 74.9937 41.9842 74.9887 41.9797C74.9836 41.9752 74.9796 41.9697 74.9769 41.9636C74.9741 41.9575 74.9727 41.9508 74.9727 41.9441C74.9727 41.9373 74.9741 41.9307 74.9768 41.9245C74.9796 41.9184 74.9836 41.9129 74.9886 41.9084C74.9937 41.904 74.9996 41.9006 75.006 41.8986C75.0124 41.8965 75.0192 41.8959 75.0259 41.8967C75.0326 41.8975 75.039 41.8997 75.0448 41.9031C75.2285 41.9881 75.4296 42.0289 75.632 42.0221C75.8343 42.0154 76.0323 41.9614 76.21 41.8644C76.2153 41.8605 76.2213 41.8577 76.2277 41.8562C76.2341 41.8547 76.2407 41.8546 76.2472 41.8558C76.2536 41.857 76.2598 41.8595 76.2652 41.8632C76.2706 41.8669 76.2752 41.8717 76.2787 41.8773C76.2822 41.8828 76.2846 41.889 76.2855 41.8955C76.2865 41.902 76.2862 41.9087 76.2845 41.915C76.2828 41.9213 76.2798 41.9273 76.2757 41.9324C76.2716 41.9375 76.2664 41.9418 76.2606 41.9448C76.0706 42.0529 75.8573 42.1133 75.6388 42.1211C75.4204 42.1289 75.2033 42.0838 75.0061 41.9895Z" fill="#263238"/>
<path d="M77.8542 39.9066C77.842 39.899 77.8314 39.8891 77.8232 39.8773C77.815 39.8655 77.8093 39.8521 77.8065 39.838C77.7911 39.7179 77.7474 39.6031 77.6791 39.5031C77.6107 39.4031 77.5196 39.3208 77.4132 39.2629C77.3904 39.2525 77.3726 39.2335 77.3637 39.2101C77.3547 39.1866 77.3554 39.1607 77.3655 39.1377C77.3765 39.1147 77.396 39.0969 77.4199 39.088C77.4438 39.0791 77.4703 39.0798 77.4936 39.09C77.627 39.1617 77.7413 39.2644 77.8268 39.3893C77.9124 39.5143 77.9667 39.6579 77.9853 39.8082C77.9875 39.8208 77.987 39.8336 77.9841 39.846C77.9812 39.8583 77.9758 39.87 77.9683 39.8803C77.9608 39.8906 77.9514 39.8992 77.9405 39.9058C77.9296 39.9124 77.9175 39.9167 77.9049 39.9185C77.8872 39.919 77.8698 39.9149 77.8542 39.9066Z" fill="#263238"/>
<path d="M74.7623 38.5595C74.7496 38.5528 74.7392 38.5424 74.7325 38.5297C74.7255 38.5193 74.7207 38.5075 74.7184 38.4951C74.7161 38.4827 74.7163 38.47 74.7191 38.4577C74.7219 38.4455 74.7272 38.4339 74.7346 38.4237C74.742 38.4135 74.7514 38.405 74.7623 38.3986C74.8896 38.3163 75.0346 38.2656 75.1854 38.2506C75.3362 38.2355 75.4885 38.2567 75.6295 38.3122C75.6525 38.3232 75.6703 38.3427 75.6792 38.3666C75.6881 38.3905 75.6874 38.417 75.6772 38.4403C75.6717 38.4517 75.6641 38.462 75.6547 38.4704C75.6453 38.4788 75.6343 38.4853 75.6224 38.4895C75.6105 38.4936 75.5979 38.4954 75.5853 38.4946C75.5727 38.4938 75.5604 38.4906 75.549 38.485C75.437 38.4423 75.3165 38.4268 75.1973 38.4397C75.0782 38.4527 74.9638 38.4937 74.8636 38.5595C74.8484 38.5691 74.8309 38.5741 74.813 38.5741C74.795 38.5741 74.7775 38.5691 74.7623 38.5595Z" fill="#263238"/>
<path d="M79.8422 47.5979L79.3475 47.4638C79.3238 47.457 79.2984 47.4593 79.2763 47.4703C79.2542 47.4814 79.2371 47.5003 79.2283 47.5234C76.4807 54.7589 75.8281 62.8496 75.8281 62.8496L76.3794 62.9479C77.0045 57.7618 78.1874 52.6583 79.9077 47.7261C79.9128 47.7134 79.9152 47.6998 79.9145 47.6862C79.9139 47.6725 79.9104 47.6592 79.9042 47.647C79.898 47.6349 79.8892 47.6242 79.8785 47.6158C79.8678 47.6073 79.8554 47.6012 79.8422 47.5979Z" fill="#0E53BE"/>
<g opacity="0.99">
<path d="M76.4604 62.9627C76.4647 62.9394 76.4643 62.9155 76.4592 62.8924C76.4542 62.8692 76.4446 62.8473 76.431 62.8279C76.4174 62.8085 76.4001 62.792 76.3801 62.7793C76.3601 62.7666 76.3377 62.7581 76.3144 62.7541L75.9329 62.6826C75.8901 62.6763 75.8464 62.6855 75.8098 62.7085C75.7731 62.7315 75.7458 62.7668 75.7329 62.8081C75.72 62.8495 75.7222 62.894 75.7392 62.9338C75.7562 62.9736 75.7869 63.0061 75.8257 63.0253L75.7422 63.4991C75.7367 63.5297 75.7373 63.561 75.7439 63.5913C75.7506 63.6216 75.7631 63.6503 75.7808 63.6757C75.7985 63.7012 75.8211 63.7229 75.8472 63.7396C75.8733 63.7564 75.9024 63.7678 75.9329 63.7733C75.9635 63.7788 75.9948 63.7782 76.0251 63.7716C76.0554 63.7649 76.0841 63.7524 76.1095 63.7347C76.135 63.717 76.1567 63.6945 76.1734 63.6683C76.1902 63.6422 76.2016 63.6131 76.2071 63.5826L76.2935 63.1088C76.3335 63.1062 76.3716 63.0905 76.4018 63.0641C76.432 63.0377 76.4526 63.0021 76.4604 62.9627Z" fill="#263238"/>
</g>
<path d="M71.4211 46.1794H70.9085C70.8879 46.1797 70.8679 46.1865 70.8513 46.1988C70.8347 46.2111 70.8224 46.2283 70.8162 46.248C68.4083 53.549 68.1699 61.446 68.1699 61.446L68.7212 61.5473C69.3709 53.245 71.2125 47.2433 71.5165 46.2897C71.5181 46.2761 71.5169 46.2622 71.5129 46.2491C71.5089 46.236 71.5022 46.2238 71.4932 46.2134C71.4843 46.203 71.4732 46.1947 71.4608 46.1888C71.4483 46.1829 71.4348 46.1798 71.4211 46.1794Z" fill="#0E53BE"/>
<path opacity="0.99" d="M68.8006 61.5801C68.8068 61.5317 68.7941 61.4828 68.7653 61.4435C68.7365 61.4041 68.6937 61.3773 68.6457 61.3685L68.2642 61.297C68.2411 61.2928 68.2173 61.2933 68.1943 61.2986C68.1714 61.3039 68.1497 61.3138 68.1308 61.3278C68.1118 61.3417 68.0958 61.3594 68.084 61.3798C68.0721 61.4001 68.0644 61.4226 68.0616 61.446C68.0574 61.4865 68.0661 61.5274 68.0864 61.5627C68.1067 61.598 68.1377 61.626 68.1748 61.6427L68.1122 62.1195C68.1043 62.1828 68.1209 62.2468 68.1586 62.2983C68.1962 62.3498 68.2521 62.385 68.3149 62.3966C68.3452 62.4026 68.3763 62.4022 68.4065 62.3955C68.4366 62.3889 68.465 62.376 68.4899 62.3578C68.5148 62.3396 68.5357 62.3165 68.5512 62.2898C68.5667 62.2632 68.5766 62.2336 68.5801 62.2029L68.6427 61.7261C68.682 61.7243 68.7194 61.7087 68.7483 61.682C68.7772 61.6552 68.7957 61.6192 68.8006 61.5801Z" fill="#263238"/>
<path d="M70.8151 114.859C70.6814 114.89 70.5414 114.873 70.4187 114.812C70.379 114.786 70.3461 114.75 70.3227 114.709C70.2994 114.667 70.2863 114.621 70.2846 114.573C70.2808 114.546 70.2846 114.518 70.2957 114.493C70.3067 114.468 70.3246 114.446 70.3472 114.43C70.5528 114.287 71.2412 114.594 71.3306 114.63C71.3391 114.634 71.3463 114.64 71.3515 114.648C71.3568 114.656 71.3598 114.665 71.3604 114.675C71.359 114.684 71.3553 114.693 71.3495 114.7C71.3438 114.707 71.3363 114.713 71.3276 114.716C71.1631 114.784 70.991 114.832 70.8151 114.859ZM70.4634 114.478C70.4421 114.479 70.4215 114.487 70.4038 114.499C70.3943 114.505 70.3869 114.514 70.3827 114.525C70.3784 114.536 70.3775 114.547 70.38 114.558C70.3807 114.591 70.3891 114.623 70.4047 114.651C70.4203 114.68 70.4424 114.704 70.4694 114.722C70.706 114.794 70.9612 114.772 71.1816 114.66C70.9561 114.554 70.7123 114.492 70.4634 114.478Z" fill="#0E53BE"/>
<path d="M71.3196 114.719H71.2957C71.0722 114.633 70.6133 114.252 70.6252 114.022C70.6281 113.986 70.6428 113.952 70.6671 113.926C70.6914 113.9 70.7239 113.882 70.7593 113.876C70.7952 113.867 70.8324 113.866 70.8688 113.872C70.9053 113.878 70.94 113.892 70.9709 113.912C71.2272 114.07 71.3553 114.639 71.3583 114.663C71.3605 114.671 71.3602 114.68 71.3576 114.689C71.355 114.697 71.3501 114.705 71.3434 114.711C71.3402 114.714 71.3365 114.716 71.3324 114.717C71.3283 114.719 71.3239 114.72 71.3196 114.719ZM70.807 113.966H70.7832C70.7236 113.983 70.7236 114.013 70.7206 114.025C70.7206 114.159 71.0186 114.454 71.2421 114.582C71.1957 114.356 71.0837 114.149 70.9202 113.986C70.8864 113.966 70.846 113.958 70.807 113.966Z" fill="#0E53BE"/>
<path d="M72.1875 68.8244L73.8533 70.0015L75.1019 69.0807L73.5047 67.1348L72.1875 68.8244Z" fill="#FFC3BD"/>
<path d="M75.8611 66.78L73.5039 67.1347L75.1012 69.0806C75.1012 69.0806 76.7372 68.6813 76.6478 67.3701L75.8611 66.78Z" fill="#FFC3BD"/>
<path d="M82.8042 51.3259C82.8936 52.8815 82.9412 54.4311 82.9502 55.9926C82.9502 56.7704 82.9502 57.5511 82.9502 58.3379C82.9502 58.7282 82.9353 59.1216 82.9144 59.5299L82.8846 60.1259L82.8697 60.4239C82.8697 60.5639 82.8399 60.7219 82.8191 60.8709C82.7295 61.3911 82.5585 61.8939 82.3125 62.3609C82.0986 62.7645 81.8556 63.1519 81.5853 63.5201C81.0815 64.1934 80.5223 64.8233 79.9136 65.4034C78.7476 66.5168 77.4727 67.5102 76.1081 68.3685L75.1426 67.1169C75.6611 66.5925 76.2035 66.0471 76.7041 65.4869C77.2047 64.9266 77.7024 64.3694 78.1583 63.7972C78.6049 63.2464 79.0122 62.6649 79.3772 62.0569C79.5375 61.7823 79.678 61.4964 79.7973 61.2016C79.8941 60.9715 79.9573 60.7286 79.9851 60.4805C79.9821 60.4358 79.9821 60.391 79.9851 60.3464V60.0722L79.9702 59.512L79.9225 58.3766L79.7973 56.0701C79.7199 54.5384 79.6573 52.9947 79.6156 51.46L82.8042 51.3259Z" fill="#FFC3BD"/>
<path d="M81.3501 48.2415C83.898 49.1891 83.8772 56.0044 83.8772 56.0044L79.5651 56.7971C79.5651 56.7971 78.5221 53.7009 79.0377 51.2632C79.5294 48.9358 79.4131 47.5174 81.3501 48.2415Z" fill="white"/>
<path d="M48.4607 57.0087L36.9102 52.6817L34.8809 40.5174L44.4169 32.677L55.9584 36.998L57.9878 49.1653L48.4607 57.0087ZM37.396 52.2824L48.3564 56.3859L57.3888 48.9359L55.4637 37.3943L44.5033 33.2909L35.4709 40.7409L37.396 52.2824Z" fill="#0E53BE"/>
<path d="M45.9605 34.0665C46.5545 33.2347 46.3617 32.079 45.5299 31.485C44.6982 30.8911 43.5424 31.0839 42.9485 31.9156C42.3545 32.7474 42.5473 33.9031 43.3791 34.4971C44.2108 35.091 45.3666 34.8982 45.9605 34.0665Z" fill="#0E53BE"/>
<path d="M49.9117 57.7723C50.5056 56.9405 50.3128 55.7848 49.4811 55.1908C48.6493 54.5969 47.4936 54.7897 46.8996 55.6214C46.3057 56.4532 46.4985 57.6089 47.3302 58.2029C48.162 58.7968 49.3177 58.604 49.9117 57.7723Z" fill="#0E53BE"/>
<path d="M54.6324 38.7085C54.3345 38.4958 54.1064 38.1994 53.977 37.857C53.8475 37.5146 53.8226 37.1414 53.9052 36.7848C53.9879 36.4282 54.1744 36.1041 54.4413 35.8535C54.7082 35.603 55.0433 35.4372 55.4045 35.3771C55.7656 35.3171 56.1364 35.3655 56.47 35.5162C56.8036 35.6669 57.085 35.9132 57.2786 36.2239C57.4722 36.5346 57.5693 36.8957 57.5576 37.2616C57.546 37.6275 57.4261 37.9817 57.2131 38.2794C56.9276 38.6784 56.4955 38.9477 56.0116 39.0281C55.5276 39.1086 55.0316 38.9937 54.6324 38.7085Z" fill="#0E53BE"/>
<path d="M34.0967 42.1148C33.7986 41.9023 33.5703 41.6062 33.4405 41.264C33.3107 40.9217 33.2854 40.5486 33.3677 40.192C33.4499 39.8353 33.6361 39.511 33.9027 39.2602C34.1693 39.0093 34.5043 38.8432 34.8653 38.7827C35.2263 38.7223 35.5971 38.7703 35.9309 38.9206C36.2646 39.0709 36.5463 39.3168 36.7403 39.6273C36.9342 39.9377 37.0318 40.2987 37.0206 40.6645C37.0094 41.0304 36.89 41.3847 36.6774 41.6827C36.3919 42.0815 35.96 42.3509 35.4763 42.4319C34.9926 42.5129 34.4965 42.3988 34.0967 42.1148Z" fill="#0E53BE"/>
<path d="M56.6103 50.5838C56.3127 50.3711 56.0848 50.0749 55.9555 49.7326C55.8261 49.3904 55.8011 49.0175 55.8836 48.6611C55.9661 48.3046 56.1524 47.9806 56.419 47.73C56.6855 47.4794 57.0204 47.3135 57.3813 47.2531C57.7421 47.1928 58.1128 47.2408 58.4464 47.391C58.78 47.5412 59.0615 47.7869 59.2555 48.0971C59.4495 48.4073 59.5472 48.7681 59.5363 49.1338C59.5253 49.4995 59.4062 49.8537 59.194 50.1517C59.0529 50.3499 58.874 50.5184 58.6678 50.6474C58.4615 50.7764 58.2318 50.8635 57.9918 50.9036C57.7518 50.9437 57.5063 50.9361 57.2692 50.8813C57.0322 50.8264 56.8083 50.7253 56.6103 50.5838Z" fill="#0E53BE"/>
<path d="M36.0777 53.9842C35.7798 53.7714 35.5517 53.475 35.4223 53.1326C35.2928 52.7902 35.2679 52.4171 35.3505 52.0605C35.4332 51.7038 35.6197 51.3797 35.8866 51.1292C36.1535 50.8786 36.4887 50.7128 36.8498 50.6528C37.2109 50.5927 37.5817 50.6411 37.9153 50.7918C38.2489 50.9426 38.5303 51.1888 38.7239 51.4995C38.9175 51.8102 39.0146 52.1713 39.003 52.5372C38.9913 52.9031 38.8714 53.2573 38.6584 53.555C38.5173 53.7529 38.3386 53.921 38.1324 54.0497C37.9263 54.1784 37.6968 54.2651 37.4571 54.305C37.2173 54.3449 36.9721 54.337 36.7354 54.282C36.4987 54.2269 36.2752 54.1257 36.0777 53.9842Z" fill="#0E53BE"/>
<path d="M42.5303 41.7661L44.8636 41.3757L45.5461 45.4673C45.6814 46.1248 45.7146 46.7992 45.6444 47.4669C45.552 47.9673 45.295 48.4225 44.9143 48.7602C44.4408 49.1807 43.8503 49.4468 43.2217 49.5231C42.6232 49.6573 42.0024 49.6573 41.4039 49.5231C40.9641 49.3944 40.5734 49.1358 40.2834 48.781C39.9649 48.3701 39.7437 47.8922 39.6367 47.3834L41.8091 46.707C41.8443 46.9582 41.9156 47.2031 42.0207 47.4341C42.0981 47.58 42.2175 47.6994 42.3634 47.7768C42.4885 47.8301 42.6272 47.8426 42.7598 47.8125C42.874 47.8014 42.9832 47.7595 43.0755 47.6913C43.1679 47.6231 43.24 47.5311 43.2842 47.4251C43.3784 47.0969 43.3856 46.7498 43.3051 46.4179L42.5303 41.7661Z" fill="#263238"/>
<path d="M46.8481 46.2181L49.0414 45.7115C49.1139 46.0021 49.262 46.2684 49.4705 46.4833C49.6177 46.6176 49.7948 46.7147 49.9872 46.7665C50.1795 46.8184 50.3814 46.8234 50.5761 46.7813C50.8545 46.7543 51.1132 46.626 51.3032 46.4208C51.3765 46.3416 51.431 46.2468 51.4625 46.1436C51.4939 46.0404 51.5017 45.9314 51.485 45.8248C51.4661 45.7239 51.4253 45.6285 51.3656 45.5451C51.3059 45.4617 51.2287 45.3924 51.1393 45.342C50.7389 45.1738 50.307 45.0936 49.8728 45.1066C48.814 45.047 48.0352 44.8632 47.5365 44.5553C47.2967 44.4122 47.0919 44.2172 46.9372 43.9846C46.7825 43.7521 46.6818 43.4878 46.6425 43.2113C46.58 42.82 46.6339 42.4189 46.7975 42.058C46.9858 41.6516 47.2908 41.3103 47.6736 41.0776C48.224 40.762 48.8319 40.5593 49.4616 40.4816C50.4251 40.3207 51.189 40.3773 51.7532 40.6515C52.0526 40.8091 52.3142 41.0299 52.52 41.2984C52.7258 41.567 52.8708 41.877 52.9452 42.207L50.7728 42.7017C50.7428 42.5626 50.6845 42.4311 50.6017 42.3154C50.5188 42.1997 50.413 42.1022 50.2909 42.029C50.1689 41.9558 50.0331 41.9085 49.892 41.8899C49.7508 41.8713 49.6074 41.8819 49.4705 41.921C49.2456 41.9387 49.0344 42.0359 48.8745 42.1951C48.8186 42.2551 48.7771 42.3271 48.7533 42.4057C48.7296 42.4842 48.7242 42.5671 48.7375 42.6481C48.7499 42.7113 48.7765 42.771 48.8152 42.8226C48.8539 42.8742 48.9037 42.9164 48.961 42.9461C49.2233 43.0541 49.5059 43.1039 49.7894 43.0921C50.5643 43.1016 51.3353 43.2016 52.087 43.3901C52.5092 43.5076 52.8901 43.7409 53.1866 44.0636C53.444 44.3675 53.6121 44.7367 53.6723 45.1304C53.754 45.6047 53.6918 46.0925 53.4935 46.531C53.2911 46.9911 52.9546 47.3795 52.528 47.6455C51.9899 47.9712 51.3903 48.1822 50.7668 48.2654C49.4854 48.4799 48.5577 48.3806 47.9835 47.9674C47.4067 47.5401 47.0036 46.9189 46.8481 46.2181Z" fill="#263238"/>
</g>
<defs>
<clipPath id="clip0_4006_5120">
<rect width="158" height="134" fill="white"/>
</clipPath>
</defs>
</svg>
