<svg width="158" height="134" viewBox="0 0 158 134" fill="none" xmlns="http://www.w3.org/2000/svg">
<g clip-path="url(#clip0_4009_8741)">
<path d="M156 109.014H3V109.091H156V109.014Z" fill="#EBEBEB"/>
<path d="M140.67 113.938H130.535V114.014H140.67V113.938Z" fill="#EBEBEB"/>
<path d="M104.352 114.77H101.693V114.847H104.352V114.77Z" fill="#EBEBEB"/>
<path d="M130.23 111.098H124.357V111.175H130.23V111.098Z" fill="#EBEBEB"/>
<path d="M32.2689 111.612H19.0527V111.689H32.2689V111.612Z" fill="#EBEBEB"/>
<path d="M36.9331 111.612H34.9961V111.689H36.9331V111.612Z" fill="#EBEBEB"/>
<path d="M71.8965 112.904H43.2305V112.98H71.8965V112.904Z" fill="#EBEBEB"/>
<path d="M75.5211 95.3669H16.4356C15.9727 95.3661 15.5291 95.1816 15.2021 94.854C14.8751 94.5265 14.6914 94.0825 14.6914 93.6196V10.562C14.6954 10.1018 14.8809 9.66178 15.2075 9.33749C15.534 9.01321 15.9754 8.83087 16.4356 8.83008H75.5211C75.9845 8.83008 76.429 9.01416 76.7566 9.34184C77.0843 9.66951 77.2684 10.1139 77.2684 10.5773V93.6196C77.2684 94.083 77.0843 94.5274 76.7566 94.8551C76.429 95.1828 75.9845 95.3669 75.5211 95.3669ZM16.4356 8.89128C15.993 8.89209 15.5688 9.06847 15.2562 9.38171C14.9435 9.69495 14.7679 10.1195 14.7679 10.562V93.6196C14.7679 94.0622 14.9435 94.4867 15.2562 94.7999C15.5688 95.1132 15.993 95.2896 16.4356 95.2904H75.5211C75.964 95.2896 76.3885 95.1133 76.7017 94.8001C77.0148 94.487 77.1911 94.0625 77.1919 93.6196V10.562C77.1911 10.1192 77.0148 9.69468 76.7017 9.38153C76.3885 9.06837 75.964 8.89209 75.5211 8.89128H16.4356Z" fill="#EBEBEB"/>
<path d="M141.713 95.3669H82.6242C82.1611 95.3661 81.7171 95.1817 81.3896 94.8542C81.0621 94.5267 80.8778 94.0828 80.877 93.6196V10.562C80.8818 10.1015 81.0679 9.6615 81.395 9.3373C81.722 9.0131 82.1637 8.83086 82.6242 8.83008H141.713C142.173 8.83167 142.613 9.01437 142.939 9.33857C143.265 9.66277 143.45 10.1024 143.454 10.562V93.6196C143.454 94.082 143.271 94.5255 142.944 94.853C142.618 95.1805 142.175 95.3653 141.713 95.3669ZM82.6242 8.89128C82.1813 8.89209 81.7569 9.06837 81.4437 9.38153C81.1305 9.69468 80.9543 10.1192 80.9535 10.562V93.6196C80.9543 94.0625 81.1305 94.487 81.4437 94.8001C81.7569 95.1133 82.1813 95.2896 82.6242 95.2904H141.713C142.156 95.2896 142.58 95.1133 142.893 94.8001C143.206 94.487 143.383 94.0625 143.384 93.6196V10.562C143.383 10.1192 143.206 9.69468 142.893 9.38153C142.58 9.06837 142.156 8.89209 141.713 8.89128H82.6242Z" fill="#EBEBEB"/>
<path d="M95.1338 76.2756H128.43V16.1099L95.1338 16.1099V76.2756Z" fill="#E6E6E6"/>
<path d="M93.6 76.2756H127.713L127.713 16.1099L93.6 16.1099V76.2756Z" fill="#F0F0F0"/>
<path d="M95.1338 77.7014H128.43V76.2755H95.1338V77.7014Z" fill="#E6E6E6"/>
<path d="M93.0473 77.7014H127.16V76.2755H93.0473V77.7014Z" fill="#F0F0F0"/>
<path d="M125.559 74.1243V18.261L95.7481 18.261V74.1243H125.559Z" fill="#FAFAFA"/>
<path d="M104.182 74.1243L112.572 18.261H118.533L110.139 74.1243H104.182Z" fill="white"/>
<path d="M105.127 74.1243L113.521 18.261H119.478L111.085 74.1243H105.127Z" fill="white"/>
<path d="M111.418 74.1243L119.812 18.261H122.134L113.744 74.1243H111.418Z" fill="white"/>
<path d="M96.0234 74.1243V18.261H95.7511V74.1243H96.0234Z" fill="#E6E6E6"/>
<path opacity="0.6" d="M93.0898 19.8829H126.386L126.582 19.0964H93.2887L93.0898 19.8829Z" fill="#EBEBEB"/>
<path opacity="0.6" d="M93.0898 21.1679H126.386L126.582 20.3845H93.2887L93.0898 21.1679Z" fill="#EBEBEB"/>
<path opacity="0.6" d="M93.0898 22.4562H126.386L126.582 21.6729H93.2887L93.0898 22.4562Z" fill="#EBEBEB"/>
<path opacity="0.6" d="M93.0898 23.7444H126.386L126.582 22.958H93.2887L93.0898 23.7444Z" fill="#EBEBEB"/>
<path opacity="0.6" d="M93.0898 25.0328H126.386L126.582 24.2463H93.2887L93.0898 25.0328Z" fill="#EBEBEB"/>
<path opacity="0.6" d="M93.0898 26.318H126.386L126.582 25.5347H93.2887L93.0898 26.318Z" fill="#EBEBEB"/>
<path d="M135.023 12.5022H87.0059V13.6619H135.023V12.5022Z" fill="#F0F0F0"/>
<path opacity="0.8" d="M134.155 11.5259H131.631V85.8349H134.155V11.5259Z" fill="#FAFAFA"/>
<path opacity="0.8" d="M132.286 11.5259H131.631V85.8349H132.286V11.5259Z" fill="#F0F0F0"/>
<path opacity="0.8" d="M131.63 11.5259H129.105V85.8349H131.63V11.5259Z" fill="#FAFAFA"/>
<path opacity="0.8" d="M129.76 11.5259H129.105V85.8349H129.76V11.5259Z" fill="#F0F0F0"/>
<path opacity="0.8" d="M129.107 11.5259H126.582V85.8349H129.107V11.5259Z" fill="#FAFAFA"/>
<path opacity="0.8" d="M95.1339 11.5259H92.6094V85.8349H95.1339V11.5259Z" fill="#FAFAFA"/>
<path opacity="0.8" d="M93.2642 11.5259H92.6094V85.8349H93.2642V11.5259Z" fill="#F0F0F0"/>
<path opacity="0.8" d="M92.6124 11.5259H90.0879V85.8349H92.6124V11.5259Z" fill="#FAFAFA"/>
<path opacity="0.8" d="M90.7427 11.5259H90.0879V85.8349H90.7427V11.5259Z" fill="#F0F0F0"/>
<path opacity="0.8" d="M90.087 11.5259H87.5625V85.8349H90.087V11.5259Z" fill="#FAFAFA"/>
<path d="M29.1143 76.2756H62.4102L62.4102 16.1099L29.1143 16.1099L29.1143 76.2756Z" fill="#E6E6E6"/>
<path d="M27.5785 76.2756H61.6914L61.6914 16.1099L27.5785 16.1099L27.5785 76.2756Z" fill="#F0F0F0"/>
<path d="M29.1143 77.7014H62.4102V76.2755H29.1143V77.7014Z" fill="#E6E6E6"/>
<path d="M27.0238 77.7014H61.1367V76.2755H27.0238V77.7014Z" fill="#F0F0F0"/>
<path d="M59.5391 74.1243V18.261L29.7285 18.261L29.7285 74.1243H59.5391Z" fill="#FAFAFA"/>
<path d="M38.1621 74.1243L46.5526 18.261H52.5135L44.1199 74.1243H38.1621Z" fill="white"/>
<path d="M39.1074 74.1243L47.4979 18.261H53.4588L45.0652 74.1243H39.1074Z" fill="white"/>
<path d="M45.3984 74.1243L53.792 18.261H56.1146L47.724 74.1243H45.3984Z" fill="white"/>
<path d="M30.0039 74.1214L30.0039 18.2581H29.7316L29.7316 74.1214H30.0039Z" fill="#E6E6E6"/>
<path opacity="0.6" d="M27.0703 19.8829H60.3662L60.562 19.0964H27.2692L27.0703 19.8829Z" fill="#EBEBEB"/>
<path opacity="0.6" d="M27.0703 21.1679H60.3662L60.562 20.3845H27.2692L27.0703 21.1679Z" fill="#EBEBEB"/>
<path opacity="0.6" d="M27.0703 22.4562H60.3662L60.562 21.6729H27.2692L27.0703 22.4562Z" fill="#EBEBEB"/>
<path opacity="0.6" d="M27.0703 23.7444H60.3662L60.562 22.958H27.2692L27.0703 23.7444Z" fill="#EBEBEB"/>
<path opacity="0.6" d="M27.0703 25.0328H60.3662L60.562 24.2463H27.2692L27.0703 25.0328Z" fill="#EBEBEB"/>
<path opacity="0.6" d="M27.0703 26.318H60.3662L60.562 25.5347H27.2692L27.0703 26.318Z" fill="#EBEBEB"/>
<path d="M69.0039 12.5022H20.9863V13.6619H69.0039V12.5022Z" fill="#F0F0F0"/>
<path opacity="0.8" d="M68.1358 11.5259H65.6113V85.8349H68.1358V11.5259Z" fill="#FAFAFA"/>
<path opacity="0.8" d="M66.2662 11.5259H65.6113V85.8349H66.2662V11.5259Z" fill="#F0F0F0"/>
<path opacity="0.8" d="M65.6104 11.5259H63.0859V85.8349H65.6104V11.5259Z" fill="#FAFAFA"/>
<path opacity="0.8" d="M63.7408 11.5259H63.0859V85.8349H63.7408V11.5259Z" fill="#F0F0F0"/>
<path opacity="0.8" d="M63.087 11.5259H60.5625V85.8349H63.087V11.5259Z" fill="#FAFAFA"/>
<path opacity="0.8" d="M29.1143 11.5259H26.5898V85.8349H29.1143V11.5259Z" fill="#FAFAFA"/>
<path opacity="0.8" d="M27.2447 11.5259H26.5898V85.8349H27.2447V11.5259Z" fill="#F0F0F0"/>
<path opacity="0.8" d="M26.589 11.5259H24.0645V85.8349H26.589V11.5259Z" fill="#FAFAFA"/>
<path opacity="0.8" d="M24.7193 11.5259H24.0645V85.8349H24.7193V11.5259Z" fill="#F0F0F0"/>
<path opacity="0.8" d="M24.0655 11.5259H21.541V85.8349H24.0655V11.5259Z" fill="#FAFAFA"/>
<path d="M117.985 106.937H123.129V81.2328H117.985V106.937Z" fill="#F0F0F0"/>
<path d="M77.6572 109.014H121.25V106.937H77.6572V109.014Z" fill="#F0F0F0"/>
<path d="M117.985 81.2327H75.7812V106.937H117.985V81.2327Z" fill="#F5F5F5"/>
<path d="M114.139 83.9561H79.625V92.5057H114.139V83.9561Z" fill="#F0F0F0"/>
<path d="M114.139 94.4641H79.625V103.014H114.139V94.4641Z" fill="#F0F0F0"/>
<path d="M92.7917 85.1341H100.971C101.167 85.1341 101.354 85.0564 101.493 84.9181C101.631 84.7798 101.708 84.5923 101.708 84.3967C101.708 84.2013 101.63 84.0142 101.492 83.8761C101.353 83.738 101.166 83.66 100.971 83.6592H92.7917C92.6929 83.6584 92.5949 83.6773 92.5035 83.7149C92.4122 83.7526 92.3293 83.8081 92.2597 83.8782C92.1901 83.9484 92.1353 84.0317 92.0984 84.1234C92.0615 84.2151 92.0434 84.3132 92.045 84.412C92.049 84.6065 92.1298 84.7915 92.2696 84.9268C92.4095 85.0621 92.5971 85.1366 92.7917 85.1341Z" fill="#F5F5F5"/>
<path d="M92.7935 95.6454H100.973C101.168 95.6446 101.355 95.5666 101.493 95.4285C101.632 95.2904 101.71 95.1033 101.71 94.9079C101.71 94.8111 101.691 94.7152 101.654 94.6257C101.617 94.5362 101.563 94.4549 101.494 94.3865C101.426 94.318 101.345 94.2637 101.255 94.2266C101.166 94.1895 101.07 94.1705 100.973 94.1705H92.7935C92.6959 94.1693 92.599 94.1874 92.5085 94.2239C92.4179 94.2605 92.3356 94.3146 92.2661 94.3832C92.1967 94.4518 92.1415 94.5335 92.1039 94.6236C92.0662 94.7137 92.0469 94.8103 92.0469 94.9079C92.0473 95.0054 92.0669 95.1019 92.1047 95.1918C92.1425 95.2817 92.1976 95.3632 92.267 95.4317C92.3364 95.5003 92.4186 95.5544 92.509 95.5911C92.5993 95.6277 92.696 95.6462 92.7935 95.6454Z" fill="#F5F5F5"/>
<path d="M74.4753 81.2358H117.982V80.2322H74.4753V81.2358Z" fill="#F0F0F0"/>
<path d="M124.494 80.229H117.982V81.2327H124.494V80.229Z" fill="#E6E6E6"/>
<path d="M36.1518 107.31C35.5656 107.308 35.0038 107.075 34.5892 106.66C34.1747 106.246 33.9411 105.684 33.9395 105.098V83.445C33.9411 82.8588 34.1747 82.297 34.5892 81.8824C35.0038 81.4679 35.5656 81.2343 36.1518 81.2327C36.7378 81.2343 37.2993 81.468 37.7134 81.8826C38.1274 82.2973 38.3603 82.8591 38.3612 83.445V105.098C38.3603 105.684 38.1274 106.245 37.7134 106.66C37.2993 107.075 36.7378 107.308 36.1518 107.31Z" fill="#F5F5F5"/>
<path d="M37.4152 106.444C37.0196 106.442 36.6407 106.285 36.361 106.005C36.0813 105.725 35.9235 105.346 35.9219 104.951V83.598C35.9235 83.2025 36.0813 82.8236 36.361 82.5439C36.6407 82.2642 37.0196 82.1063 37.4152 82.1047C37.8112 82.1055 38.1909 82.263 38.4713 82.5428C38.7516 82.8226 38.9099 83.2019 38.9115 83.598V104.945C38.9115 105.342 38.7539 105.723 38.4734 106.004C38.1929 106.285 37.8123 106.443 37.4152 106.444Z" fill="#EBEBEB"/>
<path d="M39.3617 107.31C38.7757 107.308 38.2142 107.075 37.8001 106.66C37.3861 106.245 37.1532 105.684 37.1523 105.098V83.445C37.1532 82.8591 37.3861 82.2973 37.8001 81.8826C38.2142 81.468 38.7757 81.2343 39.3617 81.2327C39.9479 81.2343 40.5097 81.4679 40.9243 81.8824C41.3388 82.297 41.5724 82.8588 41.574 83.445V105.098C41.5724 105.684 41.3388 106.246 40.9243 106.66C40.5097 107.075 39.9479 107.308 39.3617 107.31Z" fill="#F5F5F5"/>
<path d="M40.6378 106.444C40.242 106.443 39.8627 106.286 39.5828 106.006C39.3029 105.726 39.1453 105.346 39.1445 104.951V83.598C39.1453 83.2022 39.3029 82.8229 39.5828 82.543C39.8627 82.2631 40.242 82.1055 40.6378 82.1047C41.0336 82.1055 41.413 82.2631 41.6928 82.543C41.9727 82.8229 42.1303 83.2022 42.1311 83.598V104.945C42.1315 105.141 42.0932 105.336 42.0184 105.517C41.9435 105.699 41.8337 105.864 41.695 106.004C41.5563 106.143 41.3916 106.253 41.2102 106.329C41.0288 106.404 40.8343 106.444 40.6378 106.444Z" fill="#EBEBEB"/>
<path d="M44.785 83.445C44.785 82.2232 43.7951 81.2327 42.5741 81.2327C41.3531 81.2327 40.3633 82.2232 40.3633 83.445V105.098C40.3633 106.319 41.3531 107.31 42.5741 107.31C43.7951 107.31 44.785 106.319 44.785 105.098V83.445Z" fill="#F5F5F5"/>
<path d="M43.8409 106.444C43.4451 106.443 43.0658 106.286 42.7859 106.006C42.5061 105.726 42.3485 105.346 42.3477 104.951V83.598C42.3485 83.2022 42.5061 82.8229 42.7859 82.543C43.0658 82.2631 43.4451 82.1055 43.8409 82.1047C44.2367 82.1055 44.6161 82.2631 44.896 82.543C45.1758 82.8229 45.3334 83.2022 45.3342 83.598V104.945C45.3346 105.141 45.2963 105.336 45.2215 105.517C45.1467 105.699 45.0368 105.864 44.8981 106.004C44.7594 106.143 44.5947 106.253 44.4133 106.329C44.2319 106.404 44.0374 106.444 43.8409 106.444Z" fill="#EBEBEB"/>
<path d="M45.7886 107.31C45.2023 107.308 44.6405 107.075 44.2259 106.66C43.8114 106.246 43.5778 105.684 43.5762 105.098V83.445C43.5778 82.8588 43.8114 82.297 44.2259 81.8824C44.6405 81.4679 45.2023 81.2343 45.7886 81.2327C46.3748 81.2343 46.9366 81.4679 47.3512 81.8824C47.7657 82.297 47.9993 82.8588 48.0009 83.445V105.098C47.9993 105.684 47.7657 106.246 47.3512 106.66C46.9366 107.075 46.3748 107.308 45.7886 107.31Z" fill="#F5F5F5"/>
<path d="M47.0647 106.444C46.6686 106.443 46.289 106.286 46.0086 106.006C45.7282 105.726 45.57 105.347 45.5684 104.951V83.598C45.57 83.2019 45.7282 82.8226 46.0086 82.5428C46.289 82.263 46.6686 82.1055 47.0647 82.1047C47.4602 82.1063 47.8391 82.2642 48.1188 82.5439C48.3985 82.8236 48.5564 83.2025 48.558 83.598V104.945C48.558 105.341 48.4009 105.722 48.121 106.003C47.8411 106.284 47.4613 106.442 47.0647 106.444Z" fill="#EBEBEB"/>
<path d="M49.0014 107.31C48.4152 107.308 47.8534 107.075 47.4388 106.66C47.0243 106.246 46.7907 105.684 46.7891 105.098V83.445C46.7907 82.8588 47.0243 82.297 47.4388 81.8824C47.8534 81.4679 48.4152 81.2343 49.0014 81.2327C49.5877 81.2343 50.1495 81.4679 50.564 81.8824C50.9786 82.297 51.2122 82.8588 51.2138 83.445V105.098C51.2122 105.684 50.9786 106.246 50.564 106.66C50.1495 107.075 49.5877 107.308 49.0014 107.31Z" fill="#F5F5F5"/>
<path d="M50.2678 106.444C49.8717 106.443 49.4921 106.286 49.2117 106.006C48.9314 105.726 48.7731 105.347 48.7715 104.951V83.598C48.7731 83.2019 48.9314 82.8226 49.2117 82.5428C49.4921 82.263 49.8717 82.1055 50.2678 82.1047C50.6634 82.1063 51.0423 82.2642 51.322 82.5439C51.6016 82.8236 51.7595 83.2025 51.7611 83.598V104.945C51.7611 105.341 51.604 105.722 51.3241 106.003C51.0442 106.284 50.6644 106.442 50.2678 106.444Z" fill="#EBEBEB"/>
<path d="M52.2143 107.31C51.6281 107.308 51.0663 107.075 50.6517 106.66C50.2372 106.246 50.0036 105.684 50.002 105.098V83.445C50.0036 82.8588 50.2372 82.297 50.6517 81.8824C51.0663 81.4679 51.6281 81.2343 52.2143 81.2327C52.8003 81.2343 53.3618 81.468 53.7758 81.8826C54.1899 82.2973 54.4228 82.8591 54.4237 83.445V105.098C54.4228 105.684 54.1899 106.245 53.7758 106.66C53.3618 107.075 52.8003 107.308 52.2143 107.31Z" fill="#F5F5F5"/>
<path d="M53.4894 106.444C53.0938 106.442 52.7149 106.285 52.4352 106.005C52.1555 105.725 51.9977 105.346 51.9961 104.951V83.598C51.9977 83.2025 52.1555 82.8236 52.4352 82.5439C52.7149 82.2642 53.0938 82.1063 53.4894 82.1047C53.8855 82.1055 54.2651 82.263 54.5455 82.5428C54.8258 82.8226 54.9841 83.2019 54.9857 83.598V104.945C54.9857 105.342 54.8282 105.723 54.5476 106.004C54.2671 106.285 53.8865 106.443 53.4894 106.444Z" fill="#EBEBEB"/>
<path d="M55.4272 107.31C54.841 107.308 54.2792 107.075 53.8646 106.66C53.4501 106.246 53.2165 105.684 53.2148 105.098V83.445C53.2165 82.8588 53.4501 82.297 53.8646 81.8824C54.2792 81.4679 54.841 81.2343 55.4272 81.2327C56.0132 81.2343 56.5747 81.468 56.9887 81.8826C57.4028 82.2973 57.6357 82.8591 57.6365 83.445V105.098C57.6357 105.684 57.4028 106.245 56.9887 106.66C56.5747 107.075 56.0132 107.308 55.4272 107.31Z" fill="#F5F5F5"/>
<path d="M58.1389 103.43H51.6517C51.3813 103.43 51.1621 103.649 51.1621 103.92C51.1621 104.19 51.3813 104.409 51.6517 104.409H58.1389C58.4093 104.409 58.6285 104.19 58.6285 103.92C58.6285 103.649 58.4093 103.43 58.1389 103.43Z" fill="#F5F5F5"/>
<path d="M58.1378 85.7524H51.6537C51.5894 85.7524 51.5257 85.7397 51.4663 85.7151C51.4069 85.6905 51.3529 85.6545 51.3075 85.609C51.262 85.5635 51.2259 85.5096 51.2013 85.4502C51.1767 85.3908 51.1641 85.3271 51.1641 85.2628C51.1641 85.1985 51.1767 85.1348 51.2013 85.0754C51.2259 85.016 51.262 84.9621 51.3075 84.9166C51.3529 84.8711 51.4069 84.8351 51.4663 84.8105C51.5257 84.7859 51.5894 84.7732 51.6537 84.7732H58.1409C58.2052 84.7732 58.2688 84.7859 58.3282 84.8105C58.3876 84.8351 58.4416 84.8711 58.4871 84.9166C58.5325 84.9621 58.5686 85.016 58.5932 85.0754C58.6178 85.1348 58.6305 85.1985 58.6305 85.2628C58.6305 85.3273 58.6177 85.3913 58.5929 85.4509C58.5681 85.5105 58.5318 85.5646 58.486 85.6101C58.4402 85.6556 58.3859 85.6916 58.3261 85.716C58.2663 85.7404 58.2024 85.7528 58.1378 85.7524Z" fill="#F5F5F5"/>
<path d="M79.5003 122.833C112.268 122.833 138.831 121.283 138.831 119.369C138.831 117.456 112.268 115.906 79.5003 115.906C46.733 115.906 20.1699 117.456 20.1699 119.369C20.1699 121.283 46.733 122.833 79.5003 122.833Z" fill="#F5F5F5"/>
<path d="M128.408 68.0899H55.2737C54.882 68.094 54.4937 68.0166 54.1335 67.8629C53.7732 67.7091 53.4488 67.4823 53.1807 67.1966C52.9127 66.911 52.7068 66.5729 52.5761 66.2036C52.4455 65.8344 52.3929 65.442 52.4217 65.0513L55.1023 21.8809C55.164 21.0626 55.5294 20.2969 56.1267 19.7341C56.724 19.1714 57.5101 18.8522 58.3306 18.8392H131.465C131.856 18.8356 132.245 18.9133 132.605 19.0674C132.965 19.2215 133.29 19.4487 133.558 19.7345C133.826 20.0204 134.032 20.3587 134.162 20.7281C134.293 21.0976 134.345 21.4901 134.317 21.8809L131.636 65.0513C131.573 65.8691 131.208 66.6341 130.611 67.1962C130.013 67.7583 129.228 68.077 128.408 68.0899Z" fill="#0E53BE"/>
<path opacity="0.8" d="M128.408 68.0899H55.2737C54.882 68.094 54.4937 68.0166 54.1335 67.8629C53.7732 67.7091 53.4488 67.4823 53.1807 67.1966C52.9127 66.911 52.7068 66.5729 52.5761 66.2036C52.4455 65.8344 52.3929 65.442 52.4217 65.0513L55.1023 21.8809C55.164 21.0626 55.5294 20.2969 56.1267 19.7341C56.724 19.1714 57.5101 18.8522 58.3306 18.8392H131.465C131.856 18.8356 132.245 18.9133 132.605 19.0674C132.965 19.2215 133.29 19.4487 133.558 19.7345C133.826 20.0204 134.032 20.3587 134.162 20.7281C134.293 21.0976 134.345 21.4901 134.317 21.8809L131.636 65.0513C131.573 65.8691 131.208 66.6341 130.611 67.1962C130.013 67.7583 129.228 68.077 128.408 68.0899Z" fill="white"/>
<path opacity="0.4" d="M64.6459 31.2782H55.9371C55.8261 31.2798 55.716 31.2582 55.6138 31.2149C55.5116 31.1715 55.4196 31.1074 55.3435 31.0265C55.2675 30.9455 55.2092 30.8497 55.1723 30.745C55.1354 30.6403 55.1208 30.529 55.1293 30.4183L55.3772 26.4403C55.3912 26.2065 55.4941 25.9869 55.6648 25.8265C55.8354 25.6661 56.0609 25.577 56.2952 25.5774H65.0039L64.6459 31.2782Z" fill="white"/>
<path d="M131.42 19.6011H67.6522C67.0358 19.6066 66.4442 19.8444 65.9955 20.267C65.5468 20.6896 65.2741 21.2659 65.2317 21.8808L64.6197 31.786H55.9079C55.6737 31.7856 55.4482 31.8747 55.2775 32.0351C55.1068 32.1956 55.004 32.4151 54.9899 32.6489L54.7604 36.3821C54.7514 36.4931 54.7658 36.6047 54.8024 36.7097C54.8391 36.8148 54.8974 36.9111 54.9734 36.9923C55.0495 37.0736 55.1417 37.138 55.2441 37.1815C55.3466 37.2251 55.457 37.2467 55.5682 37.2451H64.277L62.5512 65.0513C62.5286 65.3448 62.5675 65.6397 62.6653 65.9174C62.7631 66.195 62.9177 66.4492 63.1193 66.6637C63.3208 66.8782 63.5649 67.0483 63.8359 67.1632C64.1069 67.2781 64.3989 67.3353 64.6932 67.331H128.461C129.077 67.3255 129.668 67.0877 130.117 66.6651C130.566 66.2425 130.839 65.6662 130.881 65.0513L133.562 21.8808C133.585 21.5872 133.546 21.2921 133.448 21.0142C133.351 20.7364 133.196 20.482 132.995 20.2674C132.793 20.0528 132.549 19.8827 132.277 19.7679C132.006 19.6532 131.714 19.5964 131.42 19.6011Z" fill="white"/>
<path opacity="0.4" d="M63.8945 43.2122H55.198C55.0866 43.2138 54.9761 43.1922 54.8735 43.1487C54.7709 43.1052 54.6785 43.0408 54.6022 42.9596C54.5259 42.8784 54.4674 42.7822 54.4304 42.6771C54.3933 42.572 54.3786 42.4604 54.3871 42.3493L54.6197 38.6161C54.6337 38.3823 54.7366 38.1627 54.9073 38.0023C55.0779 37.8419 55.3035 37.7528 55.5377 37.7532H64.2464L63.8945 43.2122Z" fill="white"/>
<path opacity="0.4" d="M63.5357 49.179H54.8269C54.7155 49.1806 54.605 49.159 54.5024 49.1155C54.3998 49.072 54.3075 49.0076 54.2312 48.9264C54.1549 48.8452 54.0963 48.749 54.0593 48.6439C54.0222 48.5388 54.0075 48.4272 54.016 48.3161L54.2486 44.5798C54.2634 44.3466 54.3666 44.1278 54.5372 43.968C54.7078 43.8082 54.9329 43.7195 55.1666 43.72H63.8753L63.5357 49.179Z" fill="white"/>
<path opacity="0.4" d="M63.1663 55.1462H54.4575C54.3463 55.1473 54.236 55.1254 54.1336 55.0817C54.0312 55.0381 53.939 54.9737 53.8628 54.8926C53.7866 54.8115 53.7281 54.7154 53.6909 54.6106C53.6537 54.5057 53.6386 54.3942 53.6466 54.2833L53.8792 50.547C53.8968 50.3145 54.0007 50.097 54.1706 49.9373C54.3405 49.7776 54.564 49.6872 54.7972 49.6841H63.506L63.1663 55.1462Z" fill="white"/>
<path opacity="0.4" d="M62.7943 61.1101H54.1008C53.9873 61.114 53.8743 61.0937 53.7692 61.0507C53.6641 61.0076 53.5693 60.9427 53.4912 60.8602C53.4131 60.7777 53.3534 60.6796 53.316 60.5724C53.2787 60.4651 53.2646 60.3511 53.2746 60.238L53.5072 56.5048C53.5212 56.271 53.6241 56.0514 53.7948 55.891C53.9654 55.7305 54.191 55.6414 54.4252 55.6418H63.137L62.7943 61.1101Z" fill="white"/>
<path opacity="0.2" d="M55.824 36.5506C55.7754 36.5516 55.7271 36.5424 55.6823 36.5236C55.6374 36.5047 55.5971 36.4766 55.5639 36.441C55.5307 36.4055 55.5054 36.3634 55.4895 36.3174C55.4737 36.2714 55.4678 36.2227 55.4721 36.1742L55.674 32.897C55.6831 32.7854 55.7331 32.6811 55.8145 32.6043C55.8958 32.5275 56.0028 32.4835 56.1147 32.4808H63.4954C63.544 32.4797 63.5923 32.489 63.6371 32.5078C63.6819 32.5267 63.7222 32.5548 63.7555 32.5903C63.7887 32.6259 63.814 32.668 63.8298 32.714C63.8457 32.7599 63.8516 32.8087 63.8473 32.8572L63.6453 36.1375C63.6356 36.2485 63.5852 36.352 63.5039 36.4282C63.4226 36.5044 63.3161 36.548 63.2047 36.5506H55.824Z" fill="#0E53BE"/>
<path opacity="0.3" d="M80.4169 24.742H69.8814C69.6927 24.7433 69.5058 24.7056 69.3324 24.6312C69.159 24.5568 69.0028 24.4473 68.8738 24.3096C68.7447 24.1719 68.6456 24.0091 68.5825 23.8312C68.5195 23.6534 68.4939 23.4644 68.5074 23.2762C68.5372 22.8824 68.7132 22.5139 69.0008 22.2432C69.2885 21.9726 69.667 21.8193 70.0619 21.8135H80.5914C80.7799 21.8118 80.9668 21.8491 81.1401 21.9232C81.3135 21.9972 81.4697 22.1064 81.5988 22.2439C81.7279 22.3813 81.8271 22.544 81.8902 22.7216C81.9533 22.8993 81.9788 23.0882 81.9653 23.2762C81.935 23.6691 81.7598 24.0367 81.4736 24.3075C81.1875 24.5784 80.8109 24.7333 80.4169 24.742Z" fill="#0E53BE"/>
<path d="M130.602 23.2792C130.573 23.6736 130.397 24.0428 130.11 24.3141C129.822 24.5854 129.443 24.7391 129.048 24.7449C128.859 24.7467 128.672 24.7093 128.498 24.635C128.324 24.5608 128.168 24.4513 128.039 24.3136C127.91 24.1758 127.811 24.0127 127.748 23.8347C127.685 23.6566 127.66 23.4675 127.674 23.2792C127.703 22.8851 127.879 22.5162 128.166 22.2454C128.454 21.9746 128.833 21.8216 129.228 21.8165C129.417 21.8143 129.604 21.8513 129.778 21.9252C129.951 21.9991 130.107 22.1083 130.237 22.2458C130.366 22.3833 130.465 22.5462 130.528 22.7241C130.591 22.902 130.616 23.091 130.602 23.2792Z" fill="#0E53BE"/>
<path opacity="0.4" d="M100.776 49.785H69.7075C69.3333 49.789 68.9622 49.7152 68.618 49.5683C68.2737 49.4214 67.9637 49.2046 67.7077 48.9315C67.4516 48.6585 67.2551 48.3353 67.1305 47.9823C67.006 47.6293 66.9561 47.2543 66.9841 46.8811L67.9174 31.78C67.9748 30.9985 68.3232 30.267 68.8937 29.7299C69.4642 29.1929 70.2154 28.8893 70.9989 28.8791H102.076C102.45 28.8746 102.821 28.948 103.165 29.0946C103.509 29.2412 103.819 29.4578 104.075 29.7307C104.331 30.0035 104.527 30.3266 104.651 30.6794C104.776 31.0322 104.825 31.407 104.797 31.78L103.86 46.878C103.802 47.6603 103.453 48.3925 102.883 48.9306C102.312 49.4686 101.56 49.7734 100.776 49.785ZM70.9897 29.0076C70.2404 29.0178 69.5221 29.3085 68.9766 29.8223C68.4311 30.3361 68.0979 31.0357 68.0429 31.783L67.1065 46.8811C67.0793 47.238 67.1267 47.5967 67.2457 47.9343C67.3646 48.2719 67.5525 48.5811 67.7975 48.8422C68.0424 49.1032 68.339 49.3104 68.6683 49.4506C68.9977 49.5908 69.3527 49.6609 69.7106 49.6565H100.785C101.534 49.6463 102.252 49.3556 102.798 48.8418C103.343 48.328 103.677 47.6284 103.732 46.8811L104.671 31.78C104.698 31.4232 104.65 31.0647 104.531 30.7273C104.412 30.3898 104.224 30.0809 103.979 29.8199C103.734 29.559 103.438 29.3517 103.109 29.2114C102.78 29.071 102.425 29.0006 102.067 29.0046L70.9897 29.0076Z" fill="#0E53BE"/>
<path d="M73.4805 38.9219L77.9389 41.8075C78.8325 40.503 80.0201 39.4265 81.4059 38.6649L79.0099 33.9219C76.8022 35.1348 74.9087 36.8471 73.4805 38.9219Z" fill="#0E53BE"/>
<path opacity="0.8" d="M73.4805 38.9219L77.9389 41.8075C78.8325 40.503 80.0201 39.4265 81.4059 38.6649L79.0099 33.9219C76.8022 35.1348 74.9087 36.8471 73.4805 38.9219Z" fill="white"/>
<path d="M70.7949 46.6517H76.254C76.3683 44.9144 76.951 43.2405 77.94 41.8077L73.4816 38.9221C71.9047 41.2089 70.9763 43.8799 70.7949 46.6517Z" fill="#263238"/>
<path d="M86.342 32.0125C83.7728 32.0179 81.2465 32.6726 78.998 33.9158L81.394 38.6649C82.8001 37.8898 84.3785 37.4805 85.984 37.4746C87.1678 37.4596 88.3417 37.6913 89.431 38.155C90.5203 38.6187 91.501 39.3042 92.3108 40.1678C93.1206 41.0314 93.7416 42.0542 94.1343 43.171C94.527 44.2878 94.6828 45.4742 94.5918 46.6546H100.051C100.577 38.567 94.4296 32.0125 86.342 32.0125Z" fill="#0E53BE"/>
<path d="M82.7977 55.3419H66.7939C66.7582 55.342 66.7228 55.3347 66.69 55.3205C66.6572 55.3063 66.6276 55.2855 66.6032 55.2594C66.5788 55.2333 66.5601 55.2024 66.5481 55.1687C66.5362 55.135 66.5313 55.0991 66.5339 55.0635L66.6042 53.9374C66.6111 53.8611 66.6464 53.7902 66.703 53.7386C66.7597 53.6871 66.8336 53.6586 66.9102 53.6589H82.914L82.7977 55.3419Z" fill="#0E53BE"/>
<path opacity="0.2" d="M82.7988 55.3419H102.995C103.071 55.3422 103.145 55.3138 103.202 55.2623C103.259 55.2107 103.294 55.1398 103.301 55.0635L103.371 53.9374C103.374 53.9017 103.369 53.8659 103.357 53.8322C103.345 53.7985 103.326 53.7676 103.302 53.7415C103.277 53.7154 103.248 53.6945 103.215 53.6803C103.182 53.6661 103.147 53.6588 103.111 53.6589H82.9151L82.7988 55.3419Z" fill="#0E53BE"/>
<path d="M93.6671 59.782H66.5188C66.4829 59.7825 66.4473 59.7756 66.4143 59.7615C66.3812 59.7475 66.3515 59.7267 66.327 59.7004C66.3025 59.6742 66.2838 59.6431 66.272 59.6092C66.2602 59.5753 66.2557 59.5393 66.2587 59.5035L66.3291 58.3805C66.336 58.3042 66.3712 58.2333 66.4279 58.1817C66.4846 58.1302 66.5585 58.1017 66.6351 58.1021H93.7834L93.6671 59.782Z" fill="#0E53BE"/>
<path opacity="0.2" d="M93.668 59.782H102.719C102.796 59.7823 102.87 59.7539 102.927 59.7023C102.983 59.6508 103.019 59.5799 103.025 59.5036L103.096 58.3805C103.099 58.3448 103.094 58.3088 103.083 58.2749C103.071 58.2409 103.052 58.2099 103.028 58.1836C103.003 58.1574 102.973 58.1366 102.94 58.1225C102.907 58.1085 102.872 58.1015 102.836 58.1021H93.772L93.668 59.782Z" fill="#0E53BE"/>
<path d="M69.4317 64.216H66.2432C66.2074 64.2161 66.172 64.2088 66.1392 64.1946C66.1064 64.1804 66.0769 64.1595 66.0524 64.1334C66.028 64.1073 66.0093 64.0764 65.9973 64.0427C65.9854 64.009 65.9805 63.9732 65.9831 63.9375L66.0534 62.8114C66.0603 62.7351 66.0956 62.6642 66.1523 62.6126C66.2089 62.5611 66.2828 62.5327 66.3594 62.533H69.548L69.4317 64.216Z" fill="#0E53BE"/>
<path opacity="0.2" d="M69.4316 64.216H102.449C102.526 64.2163 102.6 64.1879 102.656 64.1363C102.713 64.0847 102.748 64.0138 102.755 63.9375L102.825 62.8114C102.828 62.7755 102.823 62.7395 102.811 62.7055C102.799 62.6716 102.78 62.6406 102.755 62.6144C102.73 62.5882 102.7 62.5675 102.667 62.5535C102.634 62.5394 102.598 62.5325 102.562 62.533H69.5357L69.4316 64.216Z" fill="#0E53BE"/>
<path d="M109.723 64.3536C109.707 64.3541 109.691 64.3512 109.676 64.345C109.66 64.3387 109.647 64.3294 109.636 64.3176C109.624 64.3057 109.616 64.2916 109.61 64.2762C109.605 64.2608 109.603 64.2445 109.604 64.2282L111.795 28.9433C111.797 28.9092 111.812 28.8773 111.837 28.854C111.862 28.8307 111.895 28.8178 111.929 28.8179C111.946 28.8178 111.961 28.8211 111.976 28.8275C111.991 28.8339 112.004 28.8433 112.015 28.8551C112.026 28.8669 112.034 28.8808 112.04 28.896C112.045 28.9112 112.047 28.9273 112.046 28.9433L109.855 64.216C109.855 64.2336 109.852 64.2512 109.846 64.2677C109.839 64.2842 109.83 64.2993 109.818 64.3121C109.805 64.3248 109.791 64.3351 109.775 64.3422C109.758 64.3494 109.741 64.3533 109.723 64.3536Z" fill="#0E53BE"/>
<path d="M112.189 38.1877C112.171 38.4145 112.069 38.6266 111.904 38.7826C111.738 38.9387 111.52 39.0276 111.293 39.0322C111.184 39.0334 111.076 39.0119 110.976 38.9692C110.876 38.9264 110.786 38.8634 110.711 38.784C110.637 38.7046 110.579 38.6106 110.543 38.508C110.507 38.4053 110.492 38.2962 110.5 38.1877C110.518 37.9603 110.621 37.7478 110.787 37.5917C110.953 37.4356 111.172 37.3469 111.4 37.3431C111.509 37.3415 111.617 37.3626 111.717 37.4052C111.817 37.4478 111.907 37.5109 111.982 37.5905C112.056 37.67 112.113 37.7642 112.149 37.8671C112.184 37.97 112.198 38.0792 112.189 38.1877Z" fill="white"/>
<path d="M111.287 39.1577C111.162 39.1579 111.038 39.1325 110.923 39.0832C110.808 39.0338 110.704 38.9615 110.618 38.8707C110.532 38.7799 110.466 38.6724 110.423 38.555C110.38 38.4375 110.362 38.3125 110.369 38.1877C110.388 37.9259 110.504 37.6808 110.695 37.5007C110.886 37.3206 111.137 37.2185 111.4 37.2146C111.525 37.2144 111.649 37.2398 111.764 37.2894C111.88 37.3389 111.983 37.4115 112.069 37.5027C112.155 37.5938 112.222 37.7016 112.264 37.8194C112.307 37.9373 112.325 38.0626 112.318 38.1877C112.299 38.4491 112.182 38.6939 111.991 38.8735C111.8 39.0532 111.549 39.1546 111.287 39.1577ZM111.391 37.4686C111.197 37.4712 111.011 37.5465 110.87 37.6797C110.729 37.8128 110.643 37.9941 110.629 38.1877C110.622 38.2798 110.634 38.3724 110.665 38.4595C110.696 38.5466 110.745 38.6263 110.808 38.6936C110.871 38.7609 110.948 38.8144 111.033 38.8505C111.118 38.8867 111.21 38.9048 111.302 38.9037C111.495 38.9012 111.681 38.8263 111.822 38.6938C111.963 38.5612 112.049 38.3807 112.064 38.1877C112.071 38.0953 112.059 38.0024 112.028 37.9149C111.998 37.8275 111.949 37.7474 111.886 37.6797C111.823 37.6121 111.746 37.5583 111.661 37.522C111.575 37.4856 111.483 37.4674 111.391 37.4686Z" fill="#0E53BE"/>
<path d="M111.719 45.7888C111.7 46.0156 111.599 46.2277 111.433 46.3837C111.267 46.5398 111.05 46.6287 110.822 46.6333C110.713 46.6345 110.605 46.613 110.505 46.5703C110.405 46.5275 110.315 46.4645 110.24 46.3851C110.166 46.3057 110.109 46.2117 110.072 46.109C110.036 46.0064 110.021 45.8973 110.029 45.7888C110.046 45.5608 110.147 45.3473 110.313 45.1899C110.479 45.0326 110.698 44.9428 110.926 44.9381C111.036 44.9364 111.144 44.9577 111.245 45.0006C111.346 45.0436 111.437 45.1072 111.511 45.1874C111.586 45.2675 111.643 45.3625 111.679 45.4661C111.714 45.5697 111.728 45.6796 111.719 45.7888Z" fill="white"/>
<path d="M110.816 46.7739C110.691 46.7741 110.567 46.7488 110.452 46.6994C110.337 46.6501 110.234 46.5777 110.148 46.4869C110.062 46.3961 109.995 46.2886 109.952 46.1712C109.909 46.0537 109.891 45.9288 109.898 45.8039C109.917 45.5421 110.034 45.297 110.224 45.1169C110.415 44.9368 110.667 44.8347 110.929 44.8308C111.055 44.8306 111.179 44.856 111.294 44.9056C111.409 44.9551 111.513 45.0277 111.599 45.1189C111.685 45.21 111.751 45.3178 111.794 45.4357C111.837 45.5535 111.855 45.6788 111.847 45.8039C111.828 46.0654 111.711 46.3101 111.52 46.4897C111.33 46.6694 111.078 46.7708 110.816 46.7739ZM110.92 45.0848C110.726 45.0874 110.54 45.1627 110.399 45.2959C110.258 45.4291 110.172 45.6104 110.158 45.8039C110.151 45.8961 110.163 45.9889 110.194 46.0762C110.224 46.1635 110.273 46.2434 110.336 46.3108C110.4 46.3783 110.476 46.4317 110.562 46.4677C110.647 46.5037 110.739 46.5215 110.831 46.5199C111.025 46.5174 111.21 46.4425 111.351 46.31C111.492 46.1774 111.579 45.9969 111.593 45.8039C111.603 45.7103 111.592 45.6157 111.563 45.5264C111.533 45.4371 111.485 45.3551 111.421 45.2857C111.358 45.2164 111.28 45.1613 111.194 45.124C111.107 45.0867 111.014 45.0681 110.92 45.0695V45.0848Z" fill="#0E53BE"/>
<path d="M110.644 49.4851L109.527 51.2324H111.547L110.644 49.4851Z" fill="white"/>
<path d="M111.537 51.364H109.518C109.497 51.364 109.476 51.3583 109.457 51.3475C109.439 51.3368 109.424 51.3213 109.414 51.3028C109.402 51.2833 109.396 51.2611 109.396 51.2385C109.396 51.216 109.402 51.1938 109.414 51.1743L110.534 49.427C110.545 49.4087 110.561 49.3936 110.58 49.3831C110.599 49.3727 110.621 49.3672 110.642 49.3672C110.664 49.3672 110.685 49.3727 110.704 49.3831C110.723 49.3936 110.739 49.4087 110.751 49.427L111.669 51.1743C111.678 51.1948 111.682 51.2172 111.68 51.2396C111.679 51.2619 111.671 51.2835 111.659 51.3024C111.647 51.3212 111.63 51.3367 111.611 51.3475C111.591 51.3583 111.569 51.3639 111.547 51.364H111.537ZM109.753 51.1131H111.323L110.619 49.7422L109.753 51.1131Z" fill="#0E53BE"/>
<path d="M124.926 64.3537C124.91 64.3542 124.894 64.3512 124.879 64.345C124.864 64.3388 124.85 64.3294 124.839 64.3176C124.827 64.3058 124.819 64.2917 124.813 64.2763C124.808 64.2609 124.806 64.2445 124.807 64.2282L126.998 28.9434C127 28.9093 127.016 28.8774 127.041 28.8541C127.066 28.8308 127.098 28.8178 127.133 28.8179C127.149 28.8174 127.165 28.8204 127.18 28.8266C127.195 28.8328 127.209 28.8422 127.22 28.854C127.232 28.8658 127.24 28.8799 127.246 28.8953C127.251 28.9107 127.253 28.9271 127.252 28.9434L125.061 64.216C125.061 64.252 125.047 64.2866 125.022 64.3123C124.997 64.338 124.962 64.3529 124.926 64.3537Z" fill="#0E53BE"/>
<path d="M126.523 52.1932C126.532 52.0848 126.518 51.9758 126.482 51.8732C126.446 51.7705 126.389 51.6765 126.315 51.5971C126.24 51.5176 126.15 51.4545 126.05 51.4117C125.95 51.369 125.843 51.3475 125.734 51.3487C125.506 51.3525 125.287 51.4411 125.121 51.5973C124.955 51.7534 124.852 51.9659 124.834 52.1932C124.826 52.3018 124.841 52.4109 124.877 52.5135C124.913 52.6162 124.97 52.7102 125.045 52.7896C125.119 52.869 125.21 52.932 125.31 52.9747C125.41 53.0175 125.518 53.0389 125.627 53.0378C125.854 53.0332 126.072 52.9443 126.238 52.7882C126.403 52.6321 126.505 52.4201 126.523 52.1932Z" fill="white"/>
<path d="M125.621 53.1632C125.496 53.1634 125.372 53.138 125.257 53.0887C125.142 53.0393 125.038 52.967 124.952 52.8762C124.866 52.7854 124.8 52.6779 124.757 52.5605C124.714 52.443 124.696 52.318 124.703 52.1932C124.722 51.9317 124.838 51.6869 125.029 51.5073C125.22 51.3277 125.472 51.2263 125.734 51.2231C125.859 51.2229 125.983 51.2483 126.098 51.2977C126.213 51.347 126.316 51.4193 126.402 51.5101C126.488 51.601 126.555 51.7084 126.598 51.8259C126.64 51.9433 126.659 52.0683 126.652 52.1932C126.633 52.4546 126.516 52.6994 126.325 52.879C126.134 53.0586 125.883 53.1601 125.621 53.1632ZM125.725 51.4741C125.531 51.4773 125.345 51.5529 125.204 51.6859C125.063 51.819 124.977 51.9999 124.963 52.1932C124.956 52.2855 124.968 52.3782 124.999 52.4654C125.03 52.5527 125.079 52.6326 125.142 52.7001C125.205 52.7677 125.282 52.8214 125.367 52.8579C125.452 52.8944 125.543 52.9129 125.636 52.9123C125.83 52.909 126.015 52.8334 126.156 52.7004C126.297 52.5674 126.383 52.3865 126.398 52.1932C126.405 52.1009 126.392 52.0082 126.361 51.9209C126.331 51.8337 126.282 51.7538 126.219 51.6862C126.156 51.6186 126.079 51.5649 125.994 51.5284C125.909 51.4919 125.817 51.4734 125.725 51.4741Z" fill="#0E53BE"/>
<path d="M127.704 33.1877C127.713 33.079 127.698 32.9697 127.662 32.8669C127.626 32.764 127.569 32.6698 127.494 32.5903C127.42 32.5108 127.329 32.4478 127.229 32.4052C127.129 32.3626 127.021 32.3415 126.912 32.3431C126.683 32.3469 126.465 32.4356 126.299 32.5917C126.132 32.7478 126.03 32.9603 126.012 33.1877C126.004 33.2962 126.018 33.4053 126.055 33.508C126.091 33.6106 126.148 33.7046 126.223 33.784C126.297 33.8634 126.387 33.9264 126.488 33.9692C126.588 34.0119 126.696 34.0334 126.804 34.0322C127.033 34.0284 127.251 33.9398 127.417 33.7836C127.584 33.6275 127.686 33.4151 127.704 33.1877Z" fill="white"/>
<path d="M126.798 34.1577C126.672 34.1607 126.547 34.1372 126.431 34.0888C126.314 34.0404 126.21 33.9681 126.123 33.8767C126.037 33.7853 125.97 33.6767 125.928 33.558C125.886 33.4393 125.87 33.3132 125.88 33.1877C125.899 32.9259 126.015 32.6808 126.206 32.5007C126.397 32.3206 126.649 32.2185 126.911 32.2146C127.036 32.2144 127.16 32.2398 127.275 32.2894C127.391 32.3389 127.494 32.4115 127.58 32.5026C127.666 32.5938 127.733 32.7016 127.776 32.8194C127.818 32.9373 127.836 33.0626 127.829 33.1877C127.809 33.4489 127.692 33.6932 127.502 33.8727C127.311 34.0522 127.06 34.1539 126.798 34.1577ZM126.905 32.4686C126.711 32.4712 126.525 32.5465 126.384 32.6797C126.243 32.8128 126.157 32.9941 126.143 33.1877C126.136 33.2799 126.148 33.3727 126.178 33.46C126.209 33.5473 126.258 33.6272 126.321 33.6946C126.384 33.7621 126.461 33.8155 126.546 33.8515C126.632 33.8875 126.724 33.9053 126.816 33.9037C127.01 33.9012 127.195 33.8263 127.336 33.6938C127.477 33.5612 127.564 33.3807 127.578 33.1877C127.585 33.0953 127.573 33.0024 127.543 32.9149C127.512 32.8275 127.463 32.7474 127.4 32.6797C127.337 32.6121 127.26 32.5583 127.175 32.522C127.089 32.4856 126.998 32.4674 126.905 32.4686Z" fill="#0E53BE"/>
<path d="M126.208 43.6895L125.309 41.9392H127.325L126.208 43.6895Z" fill="white"/>
<path d="M126.198 43.815C126.177 43.815 126.156 43.809 126.137 43.7976C126.119 43.7863 126.104 43.77 126.094 43.7507L125.192 42.0035C125.181 41.9842 125.176 41.9626 125.176 41.9407C125.176 41.9188 125.181 41.8972 125.192 41.878C125.204 41.8586 125.22 41.8425 125.24 41.8313C125.26 41.82 125.282 41.814 125.305 41.8137H127.325C127.347 41.8135 127.368 41.8194 127.387 41.8307C127.406 41.8421 127.421 41.8584 127.432 41.878C127.442 41.8972 127.448 41.9188 127.448 41.9407C127.448 41.9626 127.442 41.9842 127.432 42.0035L126.318 43.7507C126.305 43.7704 126.287 43.7866 126.266 43.7978C126.245 43.809 126.222 43.8149 126.198 43.815ZM125.519 42.0677L126.223 43.4355L127.098 42.0677H125.519Z" fill="#0E53BE"/>
<path d="M117.325 64.3537C117.308 64.3542 117.292 64.3512 117.277 64.345C117.262 64.3388 117.248 64.3295 117.237 64.3176C117.226 64.3058 117.217 64.2917 117.212 64.2763C117.206 64.2609 117.204 64.2445 117.205 64.2283L119.396 28.9434C119.399 28.9093 119.414 28.8774 119.439 28.8541C119.464 28.8308 119.497 28.8179 119.531 28.8179C119.547 28.8174 119.563 28.8204 119.578 28.8266C119.593 28.8328 119.607 28.8422 119.618 28.8541C119.629 28.866 119.637 28.8802 119.642 28.8956C119.647 28.911 119.649 28.9273 119.647 28.9434L117.459 64.216C117.459 64.252 117.445 64.2866 117.42 64.3123C117.395 64.3381 117.361 64.3529 117.325 64.3537Z" fill="#0E53BE"/>
<path d="M119.659 40.348C119.64 40.5754 119.538 40.7879 119.372 40.944C119.206 41.1001 118.987 41.1887 118.759 41.1926C118.65 41.1942 118.542 41.1731 118.442 41.1305C118.342 41.0879 118.251 41.0248 118.177 40.9452C118.103 40.8657 118.046 40.7714 118.01 40.6686C117.974 40.5657 117.96 40.4565 117.969 40.348C117.988 40.1211 118.089 39.9091 118.255 39.7531C118.421 39.597 118.638 39.508 118.866 39.5035C118.975 39.5023 119.083 39.5238 119.183 39.5665C119.283 39.6092 119.373 39.6723 119.448 39.7517C119.522 39.8311 119.579 39.9251 119.616 40.0277C119.652 40.1304 119.667 40.2394 119.659 40.348Z" fill="white"/>
<path d="M118.754 41.3271C118.628 41.3274 118.504 41.3019 118.389 41.2524C118.274 41.2028 118.17 41.1303 118.084 41.0391C117.998 40.9479 117.932 40.8401 117.889 40.7223C117.846 40.6045 117.828 40.4792 117.836 40.3541C117.855 40.0926 117.971 39.8478 118.162 39.6682C118.353 39.4886 118.605 39.3872 118.867 39.384C118.992 39.3838 119.116 39.4092 119.231 39.4585C119.346 39.5079 119.449 39.5802 119.535 39.671C119.621 39.7619 119.688 39.8693 119.73 39.9868C119.773 40.1042 119.792 40.2292 119.785 40.3541C119.766 40.6158 119.649 40.8609 119.458 41.041C119.268 41.2212 119.016 41.3232 118.754 41.3271ZM118.858 39.635C118.664 39.6382 118.478 39.7138 118.337 39.8468C118.196 39.9799 118.11 40.1608 118.096 40.3541C118.089 40.4463 118.101 40.539 118.132 40.6263C118.163 40.7135 118.212 40.7935 118.275 40.861C118.338 40.9286 118.415 40.9823 118.5 41.0188C118.585 41.0553 118.676 41.0738 118.769 41.0732C118.963 41.0699 119.148 40.9943 119.289 40.8613C119.43 40.7282 119.516 40.5473 119.531 40.3541C119.538 40.2617 119.526 40.1688 119.495 40.0813C119.465 39.9939 119.416 39.9137 119.353 39.8461C119.289 39.7784 119.213 39.7247 119.127 39.6884C119.042 39.652 118.95 39.6338 118.858 39.635Z" fill="#0E53BE"/>
<path d="M118.609 57.2574C118.591 57.4843 118.49 57.6964 118.324 57.8524C118.158 58.0085 117.94 58.0974 117.713 58.102C117.604 58.1036 117.496 58.0825 117.395 58.0399C117.295 57.9973 117.205 57.9343 117.13 57.8548C117.055 57.7753 116.998 57.6811 116.962 57.5782C116.926 57.4754 116.912 57.3661 116.92 57.2574C116.939 57.0306 117.04 56.8185 117.206 56.6625C117.372 56.5064 117.589 56.4175 117.817 56.4129C117.926 56.4117 118.034 56.4332 118.134 56.4759C118.234 56.5187 118.324 56.5817 118.399 56.6611C118.473 56.7405 118.53 56.8345 118.567 56.9372C118.603 57.0398 118.618 57.1489 118.609 57.2574Z" fill="white"/>
<path d="M117.705 58.2275C117.58 58.2277 117.456 58.2024 117.341 58.153C117.226 58.1037 117.122 58.0314 117.036 57.9405C116.95 57.8497 116.884 57.7423 116.841 57.6248C116.798 57.5074 116.78 57.3824 116.787 57.2575C116.806 56.9957 116.922 56.7506 117.113 56.5705C117.304 56.3904 117.555 56.2883 117.818 56.2844C117.943 56.2842 118.067 56.3096 118.182 56.3592C118.297 56.4087 118.401 56.4813 118.487 56.5725C118.573 56.6636 118.64 56.7714 118.682 56.8893C118.725 57.0071 118.743 57.1324 118.736 57.2575C118.717 57.519 118.6 57.7637 118.409 57.9434C118.218 58.123 117.967 58.2244 117.705 58.2275ZM117.809 56.5384C117.615 56.541 117.429 56.6163 117.288 56.7495C117.146 56.8827 117.061 57.064 117.047 57.2575C117.04 57.3497 117.052 57.4422 117.083 57.5293C117.114 57.6164 117.163 57.6961 117.226 57.7634C117.289 57.8308 117.366 57.8842 117.451 57.9204C117.536 57.9565 117.628 57.9746 117.72 57.9735C117.913 57.971 118.099 57.8961 118.24 57.7636C118.381 57.6311 118.467 57.4505 118.482 57.2575C118.489 57.1651 118.477 57.0722 118.446 56.9848C118.416 56.8973 118.367 56.8172 118.304 56.7495C118.24 56.6819 118.164 56.6282 118.078 56.5918C117.993 56.5555 117.901 56.5373 117.809 56.5384Z" fill="#0E53BE"/>
<path d="M119.421 30.5928L118.301 32.3431H120.32L119.421 30.5928Z" fill="white"/>
<path d="M120.311 32.4685H118.295C118.273 32.4688 118.251 32.4629 118.232 32.4515C118.213 32.4402 118.198 32.4238 118.188 32.4043C118.177 32.385 118.172 32.3634 118.172 32.3415C118.172 32.3196 118.177 32.2981 118.188 32.2788L119.305 30.5315C119.317 30.5132 119.333 30.4982 119.352 30.4878C119.371 30.4774 119.393 30.4719 119.415 30.4719C119.437 30.4719 119.458 30.4774 119.477 30.4878C119.497 30.4982 119.513 30.5132 119.525 30.5315L120.425 32.2788C120.436 32.2978 120.442 32.3194 120.442 32.3415C120.442 32.3636 120.436 32.3853 120.425 32.4043C120.412 32.4231 120.395 32.4388 120.376 32.4499C120.356 32.4611 120.334 32.4675 120.311 32.4685ZM118.531 32.2145H120.109L119.403 30.862L118.531 32.2145Z" fill="#0E53BE"/>
<path d="M37.1314 39.6779L36.8254 41.1681L36.5194 42.6981C36.3175 43.714 36.1461 44.73 35.99 45.7275C35.9105 46.2263 35.8493 46.719 35.7972 47.2055C35.7452 47.692 35.6993 48.1633 35.6748 48.6192C35.6536 49.0351 35.6536 49.4518 35.6748 49.8677C35.6748 50.2257 35.7544 50.5317 35.7391 50.5654L35.5341 50.2135C35.4423 50.1217 35.274 50.036 35.2464 50.0758C35.2189 50.1156 35.326 50.1859 35.5218 50.238C35.7739 50.2977 36.0311 50.3335 36.2899 50.3451C36.6186 50.3547 36.9475 50.3465 37.2752 50.3206C38.0178 50.2596 38.7564 50.1574 39.4876 50.0146C39.8701 49.9411 40.2587 49.8646 40.6443 49.779L41.7887 49.5311L41.9417 49.4974C42.3 49.4208 42.6738 49.4689 43.001 49.6339C43.3282 49.7988 43.5891 50.0707 43.7406 50.4043C43.8921 50.738 43.9249 51.1134 43.8337 51.4683C43.7425 51.8232 43.5327 52.1362 43.2392 52.3555L42.667 52.7778L42.1039 53.1633C41.7183 53.4081 41.3297 53.6468 40.9258 53.8671C40.0968 54.3244 39.2308 54.7113 38.3371 55.0238C37.849 55.1878 37.3513 55.3217 36.8468 55.4247C36.2741 55.5425 35.6903 55.5979 35.1057 55.5899C34.373 55.5815 33.6477 55.4427 32.9637 55.1799C32.0818 54.8274 31.3179 54.2321 30.7605 53.4632C30.7017 53.3791 30.6485 53.2912 30.6014 53.2L30.5555 53.1113C30.1738 52.3392 29.9107 51.5139 29.7752 50.6633C29.6623 49.9935 29.5969 49.3166 29.5793 48.6376C29.5569 47.9991 29.5569 47.3769 29.5793 46.771C29.6018 46.1651 29.6436 45.5684 29.7048 44.9809C29.8088 43.8058 29.9833 42.6614 30.1822 41.5261C30.2862 40.96 30.3902 40.397 30.5187 39.837C30.5799 39.5555 30.6411 39.274 30.7115 38.9925L30.938 38.1265C31.1496 37.3199 31.6672 36.6276 32.3811 36.1967C33.0949 35.7657 33.9486 35.6301 34.7609 35.8185C35.5732 36.0069 36.28 36.5046 36.7312 37.2058C37.1824 37.907 37.3424 38.7565 37.1773 39.5739L37.1314 39.6779Z" fill="#0E53BE"/>
<path opacity="0.2" d="M37.1314 39.6779L36.8254 41.1681L36.5194 42.6981C36.3175 43.714 36.1461 44.73 35.99 45.7275C35.9105 46.2263 35.8493 46.719 35.7972 47.2055C35.7452 47.692 35.6993 48.1633 35.6748 48.6192C35.6536 49.0351 35.6536 49.4518 35.6748 49.8677C35.6748 50.2257 35.7544 50.5317 35.7391 50.5654L35.5341 50.2135C35.4423 50.1217 35.274 50.036 35.2464 50.0758C35.2189 50.1156 35.326 50.1859 35.5218 50.238C35.7739 50.2977 36.0311 50.3335 36.2899 50.3451C36.6186 50.3547 36.9475 50.3465 37.2752 50.3206C38.0178 50.2596 38.7564 50.1574 39.4876 50.0146C39.8701 49.9411 40.2587 49.8646 40.6443 49.779L41.7887 49.5311L41.9417 49.4974C42.3 49.4208 42.6738 49.4689 43.001 49.6339C43.3282 49.7988 43.5891 50.0707 43.7406 50.4043C43.8921 50.738 43.9249 51.1134 43.8337 51.4683C43.7425 51.8232 43.5327 52.1362 43.2392 52.3555L42.667 52.7778L42.1039 53.1633C41.7183 53.4081 41.3297 53.6468 40.9258 53.8671C40.0968 54.3244 39.2308 54.7113 38.3371 55.0238C37.849 55.1878 37.3513 55.3217 36.8468 55.4247C36.2741 55.5425 35.6903 55.5979 35.1057 55.5899C34.373 55.5815 33.6477 55.4427 32.9637 55.1799C32.0818 54.8274 31.3179 54.2321 30.7605 53.4632C30.7017 53.3791 30.6485 53.2912 30.6014 53.2L30.5555 53.1113C30.1738 52.3392 29.9107 51.5139 29.7752 50.6633C29.6623 49.9935 29.5969 49.3166 29.5793 48.6376C29.5569 47.9991 29.5569 47.3769 29.5793 46.771C29.6018 46.1651 29.6436 45.5684 29.7048 44.9809C29.8088 43.8058 29.9833 42.6614 30.1822 41.5261C30.2862 40.96 30.3902 40.397 30.5187 39.837C30.5799 39.5555 30.6411 39.274 30.7115 38.9925L30.938 38.1265C31.1496 37.3199 31.6672 36.6276 32.3811 36.1967C33.0949 35.7657 33.9486 35.6301 34.7609 35.8185C35.5732 36.0069 36.28 36.5046 36.7312 37.2058C37.1824 37.907 37.3424 38.7565 37.1773 39.5739L37.1314 39.6779Z" fill="black"/>
<path d="M29.3862 117.944C29.3862 117.944 26.4915 115.318 26.5618 114.486L24.1567 113.262L22.7246 115.734L24.0527 116.478L24.4198 116.358L24.6616 116.778C25.8611 117.39 28.4805 118.586 29.3954 118.552C29.4497 118.46 29.4775 118.354 29.4759 118.247C29.4743 118.139 29.4433 118.034 29.3862 117.944Z" fill="#263238"/>
<path d="M29.5949 87.0497C31.3452 74.5037 30.773 66.8935 32.612 60.7154L43.9952 59.7974C43.9952 59.7974 38.9493 79.6874 36.6512 87.9677C34.3532 96.2481 27.0948 115.024 27.0948 115.024L23.9277 113.402C23.9277 113.402 26.5134 96.7499 29.5949 87.0497Z" fill="#263238"/>
<path opacity="0.2" d="M38.8774 69.0723C38.1032 70.8624 36.5916 82.3588 36.5977 88.0993C36.5977 88.0596 36.6222 88.0137 36.6344 87.9708C37.4453 85.0608 38.5989 80.7125 39.7495 76.303L38.8774 69.0723Z" fill="black"/>
<path d="M47.6766 118.353C47.6766 118.353 42.955 117.282 42.7377 116.517H39.742L39.4941 119.372H41.1588L41.4648 119.109L41.8381 119.372C43.1845 119.372 47.0768 119.372 47.9153 118.883C47.9214 118.448 47.6766 118.353 47.6766 118.353Z" fill="#263238"/>
<path d="M39.6797 87.4016C37.1797 70.4155 37.1797 59.8983 37.1797 59.8983L48.3181 59.7178C48.3181 59.7178 46.9809 79.975 46.5157 88.4604C46.0353 97.2823 43.2813 116.701 43.2813 116.701H39.4135C39.4135 116.701 38.4955 98.3105 39.6797 87.4016Z" fill="#263238"/>
<path d="M38.4721 28.0068C37.9427 31.3392 36.9819 33.1262 36.3301 34.7817C37.4531 35.8282 39.8583 37.1226 42.2848 37.0889C44.7114 37.0553 44.2708 35.412 43.619 34.5644C41.8779 33.6862 41.8105 32.7988 42.2359 32.0216L38.4721 28.0068Z" fill="#7F3E3B"/>
<path d="M34.3105 35.2529C34.3105 35.2529 35.8589 33.4322 36.4709 33.1262C37.0829 32.8202 41.7127 33.4322 42.8051 33.6526C43.8975 33.8729 45.2286 35.4886 45.2286 35.4886L34.3105 35.2529Z" fill="#263238"/>
<path d="M46.1457 27.7285C46.0967 27.9488 46.1732 28.1507 46.317 28.1813C46.4608 28.2119 46.623 28.0589 46.6659 27.8386C46.7087 27.6183 46.6383 27.4163 46.4945 27.3857C46.3507 27.3551 46.1885 27.4959 46.1457 27.7285Z" fill="#263238"/>
<path d="M46.0569 28.0315C46.1692 28.7579 46.3813 29.4653 46.6873 30.1337C46.216 30.4122 45.5918 30.1031 45.5918 30.1031L46.0569 28.0315Z" fill="#630F0F"/>
<path d="M46.8983 26.4648C46.8795 26.4752 46.8585 26.4807 46.837 26.4807C46.8156 26.4807 46.7946 26.4752 46.7758 26.4648C46.6263 26.3935 46.4619 26.3591 46.2963 26.3644C46.1307 26.3698 45.9688 26.4147 45.8242 26.4954C45.81 26.505 45.794 26.5118 45.7772 26.5152C45.7603 26.5186 45.743 26.5186 45.7262 26.5151C45.7093 26.5117 45.6934 26.5049 45.6792 26.4952C45.665 26.4855 45.6529 26.4731 45.6436 26.4586C45.6339 26.4442 45.6271 26.428 45.6237 26.4109C45.6202 26.3938 45.6202 26.3763 45.6237 26.3592C45.6271 26.3421 45.6338 26.3259 45.6436 26.3114C45.6533 26.297 45.6658 26.2846 45.6804 26.275C45.861 26.1697 46.0645 26.1096 46.2734 26.1C46.4823 26.0904 46.6904 26.1316 46.8799 26.22C46.8958 26.2269 46.9102 26.237 46.9222 26.2495C46.9342 26.2621 46.9437 26.2769 46.9499 26.2931C46.9562 26.3094 46.9592 26.3267 46.9587 26.344C46.9582 26.3614 46.9543 26.3785 46.9472 26.3944C46.9404 26.4232 46.9229 26.4484 46.8983 26.4648Z" fill="#263238"/>
<path d="M38.8561 25.4947C38.4185 28.2242 38.0207 29.8001 39.0764 31.477C40.6615 33.9984 44.2784 33.4844 45.5238 30.9323C46.6499 28.6373 47.1793 24.5583 44.7741 22.9182C44.2415 22.5548 43.6254 22.3325 42.9834 22.272C42.3415 22.2114 41.6947 22.3147 41.1035 22.5721C40.5123 22.8294 39.9961 23.2325 39.603 23.7437C39.21 24.2548 38.953 24.8573 38.8561 25.4947Z" fill="#7F3E3B"/>
<path d="M43.817 28.1079C46.0263 28.5853 45.3837 25.8558 44.8543 25.5834C46.1824 26.379 47.0637 25.4549 46.9963 24.6226C48.0123 24.4543 47.9602 22.7866 47.2626 22.7346C46.8219 21.5809 44.7625 20.6109 44.38 21.3239C43.2693 20.0326 40.2949 20.2529 40.7264 21.1893C39.5973 20.9689 37.1921 21.0699 37.9969 22.7713C36.2802 22.9916 36.3628 25.9292 37.4828 26.2352C36.3108 26.8839 37.4461 29.0994 37.951 30.4886C38.4559 31.8778 43.4865 30.6416 43.817 28.1079Z" fill="#263238"/>
<path d="M42.5598 27.8294C42.4648 28.411 42.5938 29.0069 42.9208 29.4971C43.3523 30.1091 44.0194 29.7266 44.2795 28.9891C44.512 28.3282 44.5671 27.2143 43.9521 26.8808C43.337 26.5473 42.673 27.0828 42.5598 27.8294Z" fill="#7F3E3B"/>
<path d="M34.4657 34.947C38.2295 34.4849 43.5692 34.5247 47.1127 35.1428C47.9914 35.2978 48.7937 35.7401 49.394 36.4002C49.9943 37.0603 50.3586 37.9009 50.4297 38.7903C50.8704 44.1974 49.6739 53.6466 48.6396 63.1602C40.3011 65.957 31.8372 63.1204 31.8372 63.1204C31.6505 61.2018 32.6848 54.9135 33.3304 51.5567C32.8561 48.0927 31.6536 44.1239 30.9773 39.5186C30.9003 38.9886 30.93 38.4485 31.0645 37.9301C31.1989 37.4117 31.4356 36.9253 31.7605 36.4995C32.0854 36.0737 32.492 35.7171 32.9565 35.4505C33.4211 35.1839 33.9342 35.0127 34.4657 34.947Z" fill="#0E53BE"/>
<path opacity="0.2" d="M45.791 42.5176C46.3602 45.7734 48.1625 49.6535 49.8119 52.2208C50.0383 49.9717 50.228 47.8297 50.3474 45.853L45.791 42.5176Z" fill="black"/>
<path d="M73.3591 34.9745C72.1418 34.2011 70.6671 33.9429 69.2594 34.2568C67.8517 34.5707 66.6264 35.431 65.853 36.6483C65.0795 37.8657 64.8214 39.3404 65.1353 40.7481C65.4492 42.1558 66.3094 43.3811 67.5268 44.1545C66.9821 44.8889 65.3848 47.0462 64.8982 47.8785C64.2862 48.8853 63.9803 49.791 64.4025 50.042C64.8248 50.2929 65.4674 49.5799 66.0641 48.5732C66.5598 47.7439 67.6981 45.3143 68.0806 44.4819C69.3376 45.1391 70.8016 45.279 72.1603 44.872C73.519 44.465 74.6649 43.5432 75.3535 42.3032C76.0422 41.0632 76.2191 39.6032 75.8465 38.2347C75.4739 36.8661 74.5813 35.6973 73.3591 34.9776V34.9745ZM74.6658 42.0829C74.1846 42.8908 73.4747 43.5379 72.6258 43.9423C71.7769 44.3468 70.8271 44.4905 69.8966 44.3553C68.966 44.2201 68.0964 43.8121 67.3978 43.1827C66.6991 42.5534 66.2027 41.731 65.9713 40.8196C65.7399 39.9082 65.7839 38.9486 66.0978 38.0622C66.4117 37.1758 66.9813 36.4024 67.7347 35.8397C68.4881 35.277 69.3914 34.9503 70.3304 34.9008C71.2694 34.8514 72.202 35.0815 73.0103 35.562C73.5477 35.881 74.0168 36.3029 74.391 36.8034C74.7651 37.304 75.0368 37.8734 75.1906 38.4791C75.3443 39.0848 75.3771 39.7149 75.2871 40.3333C75.197 40.9517 74.9859 41.5462 74.6658 42.0829Z" fill="#0E53BE"/>
<path opacity="0.2" d="M74.8892 42.2145C74.3823 43.0672 73.634 43.7506 72.7388 44.178C71.8436 44.6054 70.8417 44.7578 69.8599 44.6157C68.8781 44.4737 67.9604 44.0438 67.223 43.3802C66.4856 42.7166 65.9615 41.8492 65.7171 40.8878C65.4727 39.9264 65.5189 38.914 65.8498 37.9788C66.1808 37.0437 66.7817 36.2276 67.5764 35.6339C68.3712 35.0403 69.3242 34.6956 70.3149 34.6436C71.3055 34.5916 72.2893 34.8345 73.1419 35.3417C73.7081 35.6781 74.2025 36.1227 74.5968 36.6502C74.9911 37.1777 75.2775 37.7777 75.4398 38.416C75.6021 39.0543 75.6369 39.7183 75.5425 40.37C75.448 41.0218 75.226 41.6485 74.8892 42.2145Z" fill="#0E53BE"/>
<path d="M67.0858 46.9759L66.4217 46.3884C66.2986 46.2789 66.1509 46.2006 65.9911 46.1601C65.8314 46.1197 65.6642 46.1182 65.5037 46.1558L63.9737 46.5047C63.6748 46.5732 63.3965 46.7123 63.1623 46.9103C62.9281 47.1084 62.7446 47.3596 62.6273 47.643L62.4805 47.998C63.5117 49.0475 65.3997 49.4239 65.3997 49.4239L65.9291 49.5892C66.0361 49.6266 66.1495 49.6423 66.2627 49.6354C66.3759 49.6285 66.4865 49.5991 66.5882 49.549C66.6899 49.4988 66.7806 49.4289 66.855 49.3434C66.9294 49.2578 66.986 49.1583 67.0215 49.0506L67.3673 48.0133C67.4239 47.8315 67.4275 47.6373 67.3776 47.4536C67.3278 47.2698 67.2265 47.1041 67.0858 46.9759Z" fill="#7F3E3B"/>
<path d="M50.2672 37.6826L50.8792 39.0259L51.5249 40.3968C51.9563 41.3148 52.4123 42.1992 52.8682 43.0651C53.0987 43.4976 53.3354 43.9168 53.5781 44.3228C53.8137 44.7298 54.0555 45.1214 54.3003 45.4825C54.5238 45.8126 54.7638 46.1313 55.0194 46.4372C55.2336 46.7004 55.4539 46.8901 55.46 46.9207L55.0806 46.7647C55.5001 46.9599 55.9528 47.0741 56.4147 47.1013C57.063 47.1575 57.7145 47.1657 58.364 47.1257C59.0616 47.0951 59.7807 47.0217 60.506 46.936C60.8701 46.8901 61.2404 46.8473 61.6106 46.7922L62.7061 46.6453L62.856 46.6239C63.2171 46.5756 63.5838 46.6513 63.8963 46.8384C64.2087 47.0255 64.4485 47.3131 64.5764 47.6541C64.7043 47.9952 64.7127 48.3695 64.6004 48.7159C64.488 49.0624 64.2614 49.3605 63.9576 49.5615L63.4007 49.9287L62.853 50.2592C62.4827 50.4703 62.1094 50.6753 61.7238 50.8712C61.3383 51.067 60.9497 51.2414 60.5488 51.4067C60.1479 51.5719 59.7348 51.7127 59.3248 51.8626C58.4395 52.1564 57.5272 52.3614 56.6014 52.4746C55.4911 52.6231 54.3624 52.5545 53.2782 52.2727C53.1995 52.2505 53.1227 52.2219 53.0487 52.187L52.9019 52.1166C52.1305 51.7461 51.4221 51.2566 50.8027 50.6662C50.3118 50.2072 49.8537 49.7144 49.4318 49.1912C48.6755 48.2579 47.9863 47.2722 47.3694 46.2414C46.7574 45.253 46.2249 44.2494 45.72 43.2426C45.4722 42.7347 45.2243 42.2298 44.9979 41.7126C44.8847 41.4556 44.7684 41.1955 44.6613 40.9354L44.3308 40.1183C44.0143 39.3421 44.0147 38.4727 44.3319 37.6967C44.6491 36.9207 45.2578 36.3 46.0274 35.9676C46.797 35.6353 47.6662 35.6178 48.4486 35.919C49.2309 36.2201 49.864 36.8159 50.2121 37.5785L50.2672 37.6826Z" fill="#0E53BE"/>
<path d="M114.032 107.925C113.561 104.225 115.623 101.242 117.618 98.3532C119.965 94.9566 122.392 91.4468 120.957 86.6273C120.565 85.3077 119.908 84.0821 119.026 83.0257C118.17 85.2214 116.712 87.1307 114.819 88.5337C112.156 90.5166 109.005 91.1408 106.811 90.128C105.571 89.5588 104.057 88.2155 103.827 85.0698C103.601 81.8507 105.47 79.5618 108.824 78.9498C112.178 78.3378 116.251 79.5618 118.922 82.4412C119.597 80.4492 119.79 78.3257 119.485 76.2447L119.791 76.2019C120.114 78.3876 119.896 80.619 119.158 82.7013C120.122 83.8219 120.835 85.1354 121.251 86.5539C122.729 91.5111 120.259 95.0852 117.869 98.5399C115.816 101.511 113.891 104.317 114.335 107.897L114.032 107.925ZM110.565 79.0997C110 79.0987 109.436 79.1478 108.879 79.2466C105.694 79.8249 103.919 82.0006 104.13 85.0392C104.295 87.4107 105.265 89.0723 106.939 89.8403C109.041 90.8073 112.065 90.1953 114.638 88.2797C116.526 86.882 117.971 84.9697 118.8 82.7717C117.754 81.6253 116.483 80.7073 115.066 80.0754C113.649 79.4435 112.117 79.1113 110.565 79.0997Z" fill="#263238"/>
<path d="M119.761 77.273C117.338 75.1096 117.059 72.2546 118.479 71.6518C120.447 70.8164 121.181 74.2926 119.761 77.273Z" fill="#0E53BE"/>
<path d="M117.923 98.182C116.191 95.428 116.087 91.9947 118.202 91.756C120.126 91.5296 120.549 94.7915 117.923 98.182Z" fill="#0E53BE"/>
<path d="M119.817 78.182C119.484 76.1287 120.493 74.5987 121.442 74.871C122.755 75.2474 121.73 77.2701 119.817 78.182Z" fill="#0E53BE"/>
<path d="M115.053 88.1055C113.991 85.8166 114.67 83.696 115.87 83.7022C117.528 83.7144 116.981 86.4164 115.053 88.1055Z" fill="#0E53BE"/>
<path d="M110.977 78.9775C108.792 79.3478 107.152 78.2798 107.436 77.267C107.831 75.8624 109.995 76.9518 110.977 78.9775Z" fill="#0E53BE"/>
<path d="M110.976 78.9775C109.636 78.2615 109.446 77.1966 110.132 76.912C111.096 76.5173 111.554 77.7994 110.976 78.9775Z" fill="#0E53BE"/>
<path d="M121.508 88.0839C120.979 86.6549 121.539 85.7277 122.245 85.9756C123.228 86.3214 122.723 87.5821 121.508 88.0839Z" fill="#0E53BE"/>
<path d="M104.321 87.0834C102.806 87.2486 102.044 86.4714 102.457 85.8594C103.032 84.9842 104.134 85.7829 104.321 87.0834Z" fill="#0E53BE"/>
<path d="M123.738 107.886L123.016 113.198L123.319 113.239L124.041 107.927L123.738 107.886Z" fill="#0E53BE"/>
<path d="M122.816 114.548L122.467 117.116L122.77 117.158L123.119 114.589L122.816 114.548Z" fill="#0E53BE"/>
<path d="M108.264 105.596L110.036 118.552C110.067 118.779 110.179 118.986 110.351 119.136C110.523 119.287 110.744 119.369 110.972 119.369H120.538C120.766 119.369 120.987 119.287 121.159 119.136C121.331 118.986 121.443 118.779 121.474 118.552L123.246 105.596C123.264 105.463 123.253 105.327 123.214 105.198C123.175 105.069 123.109 104.95 123.021 104.849C122.932 104.747 122.823 104.666 122.7 104.61C122.577 104.554 122.444 104.526 122.31 104.525H109.182C109.049 104.528 108.918 104.559 108.798 104.616C108.677 104.673 108.57 104.754 108.483 104.855C108.397 104.956 108.332 105.075 108.295 105.202C108.257 105.33 108.247 105.464 108.264 105.596Z" fill="#0E53BE"/>
</g>
<defs>
<clipPath id="clip0_4009_8741">
<rect width="158" height="134" fill="white"/>
</clipPath>
</defs>
</svg>
