<svg width="158" height="134" viewBox="0 0 158 134" fill="none" xmlns="http://www.w3.org/2000/svg">
<g clip-path="url(#clip0_4006_3651)">
<g opacity="0.2">
<path d="M148.485 121.966C148.485 122.636 117.599 123.179 79.4995 123.179C58.0023 123.179 38.8016 123.006 26.1497 122.735C23.2355 122.673 20.6694 122.605 18.5023 122.533C17.0751 122.486 15.8211 122.436 14.7548 122.385C12.0119 122.255 10.5137 122.114 10.5137 121.966C10.5137 121.778 12.9454 121.6 17.2853 121.441C19.0623 121.376 21.1595 121.314 23.5408 121.256C27.5866 121.158 32.4527 121.07 37.9631 120.997C45.7299 120.894 54.7769 120.819 64.6106 120.781C64.6152 120.781 64.6201 120.781 64.6251 120.781C69.4154 120.762 74.3928 120.752 79.4995 120.752C84.6162 120.752 89.6025 120.762 94.4017 120.781C104.035 120.818 112.912 120.891 120.571 120.991C124.205 121.038 127.565 121.092 130.601 121.151C141.713 121.366 148.485 121.652 148.485 121.966Z" fill="#040C2B"/>
<path d="M131.909 94.1116C131.909 94.1116 128.867 98.206 125.824 103.824C123.149 108.765 121.099 115.38 120.572 120.991C112.913 120.891 104.035 120.818 94.4023 120.781C89.6982 120.733 84.6924 120.707 79.5002 120.707C74.3185 120.707 69.322 120.732 64.6257 120.781C64.6208 120.781 64.6159 120.781 64.6112 120.781C54.7776 120.819 45.7306 120.894 37.9637 120.997C26.5946 106.764 4.56971 82.4643 25.2323 72.4093C25.2323 72.4093 26.7612 71.9366 29.0534 70.9212C36.3081 67.7069 51.2162 59.0575 49.558 42.7494C49.558 42.7494 48.993 39.7063 48.993 35.4719C48.993 25.5706 52.0808 9.15828 72.6952 9.90734C85.1788 10.3616 96.6757 16.8104 103.626 27.1324C110.444 37.2564 121.345 49.7127 130.223 42.6013C132.272 40.9592 134.982 40.3508 137.512 41.0727C143.902 42.8948 151.161 52.3274 131.909 94.1116Z" fill="#ACBCF8"/>
</g>
<path d="M102.121 87.8163C102.046 85.3213 101.708 82.8977 101.133 80.572C101.07 80.3162 101.005 80.0619 100.936 79.8087C100.935 79.8058 100.934 79.8029 100.934 79.8L96.5475 80.5493L92.2654 81.2806L86.1966 71.1335L91.4804 64.0214C88.7856 61.4781 85.6785 59.3841 82.2772 57.8516C81.8716 57.6686 81.4613 57.4935 81.0472 57.3271C79.6807 56.7767 78.2704 56.3152 76.8237 55.9503C76.8223 55.9499 76.8208 55.9496 76.8194 55.9492L76.8191 55.9503L76.8081 55.9805L73.8301 64.3268L66.7982 64.5512L62.1425 64.7L61.7787 63.8517L59.3281 58.1347L58.6425 56.5349C58.6308 56.5386 58.6191 56.5425 58.6074 56.5465C53.777 58.107 49.4346 60.7493 45.847 64.186L51.1685 71.2512L45.5816 80.7334L45.1661 81.4387L41.4525 80.8299L41.0405 80.7625L36.5086 80.0197C36.5064 80.0273 36.5047 80.0352 36.5025 80.0428C35.6757 83.1696 35.2793 86.4701 35.3808 89.8729C35.4536 92.3074 35.7783 94.6737 36.3272 96.9479L36.4944 96.9241L40.8975 96.3009L41.6917 96.1885L45.0146 95.7181L45.3616 96.3369L50.7998 106.034L45.3236 112.99C47.9038 115.569 50.8931 117.723 54.1795 119.344C54.9729 119.736 55.7838 120.097 56.6106 120.424C56.6557 120.442 56.7007 120.46 56.7458 120.478C57.7256 120.862 58.7277 121.2 59.749 121.49L59.754 121.477L60.3253 120.006L61.035 118.179L62.0478 115.572L62.9726 113.192L74.6662 113.152L74.6726 113.168L77.9373 121.412L77.9458 121.433C79.3624 121.022 80.7392 120.519 82.0703 119.931C82.7243 119.642 83.3673 119.332 83.9986 119.003C87.0872 117.391 89.8924 115.306 92.3232 112.844L86.792 105.913L92.5099 95.5585L96.9027 96.1504L101.228 96.7332C101.228 96.7318 101.229 96.7303 101.229 96.7289C101.277 96.5254 101.323 96.3211 101.367 96.1161C101.942 93.4497 102.206 90.6687 102.121 87.8163ZM69.2674 106.109C64.7248 106.248 60.4002 104.585 57.0908 101.423C53.781 98.261 51.8825 93.98 51.7445 89.3686C51.6068 84.7572 53.2459 80.3671 56.3608 77.0075C59.4751 73.6476 63.6922 71.7204 68.2348 71.5802C69.2085 71.5503 70.1723 71.6033 71.118 71.7362C74.5846 72.2225 77.8113 73.7823 80.4114 76.2665C83.7211 79.4283 85.6196 83.709 85.7577 88.3203C85.8953 92.932 84.2563 97.3219 81.1417 100.681C78.4511 103.583 74.9384 105.417 71.1038 105.953C70.4991 106.037 69.8863 106.09 69.2674 106.109Z" fill="#0B2581"/>
<path d="M105.656 79.7979H100.937L99.9785 91.9738L101.221 96.7289H105.94L105.656 79.7979Z" fill="#0B2581"/>
<path d="M81.5263 55.9504H76.8066L77.197 62.1105L84.2587 62.8669L81.5263 55.9504Z" fill="#0B2581"/>
<path d="M58.6383 56.5266H63.3579L61.6191 64.5959L56.1543 58.1477L58.6383 56.5266Z" fill="#0B2581"/>
<path d="M36.4941 80.0142H41.2138L43.3074 87.1828H38.5168L36.4941 80.0142Z" fill="#0B2581"/>
<path d="M36.4941 96.9452H41.0363L44.1236 93.3788L36.4941 91.8298V96.9452Z" fill="#0B2581"/>
<path d="M64.457 121.477H59.7374L56.7456 119.258L56.0469 118.739L56.5895 118.089L60.9439 112.867L62.0475 115.572L63.1114 118.179L64.457 121.477Z" fill="#0B2581"/>
<path d="M77.9427 121.477H82.6624L86.069 115.173L77.5879 116.398L77.9427 121.477Z" fill="#0B2581"/>
<path d="M106.84 87.8164C106.757 85.0487 106.35 82.3689 105.656 79.813C105.655 79.8087 105.653 79.8044 105.652 79.8L101.133 80.572L100.871 80.6167L96.9842 81.2806L96.5466 80.5493L90.9154 71.1335L96.1992 64.0214C92.1201 60.1719 87.0971 57.3513 81.5382 55.9492L81.5318 55.9672L81.0464 57.3271L79.2607 62.3315L78.5489 64.3269L66.8613 64.7001L66.7974 64.5513L63.3613 56.535C63.3588 56.5357 63.3567 56.5364 63.3542 56.5375C61.9699 56.9831 60.6253 57.518 59.3273 58.1348C58.5753 58.4921 57.8387 58.8769 57.119 59.2879C54.7365 60.6492 52.5371 62.2976 50.5658 64.186L55.8873 71.2513L49.8848 81.4387L45.5807 80.7334L41.2273 80.0198C41.2252 80.0273 41.2235 80.0349 41.2213 80.0425C41.1581 80.2813 41.0975 80.5216 41.0396 80.7626C40.5389 82.8365 40.227 84.9834 40.123 87.1827C40.0808 88.0714 40.0726 88.9684 40.0996 89.8729C40.1269 90.7922 40.1904 91.7018 40.2884 92.6002C40.425 93.8564 40.629 95.0913 40.8966 96.3009C40.9434 96.5135 40.9924 96.7253 41.0431 96.9364C41.0442 96.9404 41.0449 96.944 41.046 96.9479L45.3607 96.337L49.7333 95.7181L55.5185 106.035L50.0423 112.99C52.0044 114.951 54.203 116.667 56.5888 118.089C56.8606 118.251 57.1349 118.409 57.4113 118.563C58.356 119.091 59.3279 119.572 60.3244 120.006C61.6498 120.584 63.0185 121.076 64.4241 121.477C64.4386 121.481 64.4532 121.486 64.4677 121.49L65.7537 118.179L67.6913 113.192L74.6717 113.168L79.3849 113.152L80.5034 115.976L82.0694 119.931L82.6645 121.433C82.6723 121.431 82.6801 121.428 82.6879 121.426C88.1971 119.824 93.1091 116.826 97.0419 112.844L91.5107 105.913L96.9017 96.1503L97.2286 95.5585L101.048 96.0732L101.366 96.1161L105.915 96.7289L105.947 96.7332C106.618 93.8795 106.932 90.8896 106.84 87.8164ZM73.9862 106.109C73.0125 106.139 72.0487 106.086 71.103 105.953C67.6364 105.466 64.4093 103.907 61.8096 101.423C58.4998 98.261 56.6013 93.98 56.4633 89.3687C56.3256 84.7573 57.9647 80.3671 61.0797 77.0076C63.7695 74.1055 67.2826 72.2723 71.1172 71.7362C71.7219 71.6516 72.3347 71.5994 72.9535 71.5803C77.4961 71.4405 81.8207 73.1048 85.1301 76.2665C88.4399 79.4283 90.3384 83.709 90.4764 88.3203C90.6141 92.9321 88.975 97.3219 85.8604 100.681C82.7455 104.041 78.5287 105.969 73.9862 106.109Z" fill="#0F31AC"/>
<path d="M99.9223 114.534C99.9223 114.534 99.4627 118.463 99.9223 119.359L96.541 120.014L97.5587 113.569L99.9223 114.534Z" fill="#DB965F"/>
<path d="M99.807 121.845C99.807 121.845 102.58 122.563 104.703 121.986C105.02 121.9 105.218 121.569 105.149 121.233C105.065 120.827 104.713 120.339 103.578 120.145C103.578 120.145 100.526 118.759 99.6763 117.657C99.6763 117.657 97.9181 118.579 96.8693 117.864C96.8693 117.864 96.0716 118.466 95.9416 119.651C95.8469 120.514 96.441 121.293 97.2623 121.397C98.1242 121.506 99.2674 121.672 99.807 121.845Z" fill="#040C2B"/>
<path d="M95.4516 114.086C95.4516 114.086 94.992 118.015 95.4516 118.911L92.0703 119.566L93.088 113.121L95.4516 114.086Z" fill="#DB965F"/>
<path d="M95.3949 121.836C95.3949 121.836 98.1676 122.554 100.291 121.978C100.608 121.892 100.806 121.56 100.736 121.225C100.652 120.819 100.301 120.33 99.1656 120.137C99.1656 120.137 96.1134 118.751 95.2642 117.648C95.2642 117.648 93.4146 118.361 92.3659 117.645C92.3659 117.645 91.6595 118.457 91.5294 119.643C91.4348 120.506 92.0289 121.285 92.8502 121.388C93.7121 121.497 94.8553 121.663 95.3949 121.836Z" fill="#040C2B"/>
<path d="M96.3177 84.8806L98.4781 99.5413L97.165 114.844L97.8418 114.952L100.612 115.396L103.202 100.635C103.466 99.1284 103.587 97.5983 103.564 96.0667L103.369 83.136L96.2129 84.17L96.3177 84.8806Z" fill="#040C2B"/>
<path opacity="0.1" d="M98.4768 99.5413L97.1637 114.844L97.8405 114.952L100.263 99.8894L100.741 84.8806H96.3164L98.4768 99.5413Z" fill="black"/>
<path d="M99.2988 82.7222L99.2849 83.7261L99.2335 87.4095L99.192 90.3898L99.121 95.4647C99.0876 97.8664 98.8488 100.26 98.4077 102.617L98.055 104.473L95.9368 115.619L92.3066 115.395L93.1317 100.077L92.8663 95.0923L92.7169 92.2864C92.5689 90.4319 92.5604 88.9074 92.621 87.6822C92.6441 87.2089 92.6778 86.7799 92.7176 86.394C92.9177 84.4571 93.2751 83.6011 93.2751 83.6011L96.7853 83.0889L99.2988 82.7222Z" fill="#040C2B"/>
<path d="M116.728 76.7694C116.728 76.7694 116.55 78.0461 113.831 78.4942H113.83C113.733 78.5104 113.633 78.5256 113.529 78.5392L104.808 81.3368C104.421 81.4607 104.006 81.2601 103.845 80.87L103.694 80.4611L103.622 80.2601V80.2597L102.863 78.1495L102.062 75.9218L103.279 75.737L103.369 75.7233L103.688 75.675L103.96 75.6336L105.17 75.4499L105.336 76.1404L105.743 77.8289L105.75 77.8588L105.895 78.4596L112.151 76.5155C112.151 76.5155 112.469 75.532 113.467 74.5273C113.69 74.5839 113.789 74.8584 113.658 75.0562L113.274 75.6379C113.316 75.6051 114.862 74.3984 115.893 74.786C115.893 74.786 116.796 75.1952 116.873 76.022C116.894 76.2413 116.857 76.4906 116.728 76.7694Z" fill="#DB965F"/>
<path d="M95.1758 69.3549L95.1907 72.1279L99.2496 72.88L101.607 71.6579L100.587 70.315L100.024 69.5727C99.9109 69.4239 99.8628 69.2324 99.8918 69.0447L100.384 65.8612L96.4292 64.0596L96.7626 66.5895L96.8172 67.0049C96.9366 68.3522 95.1758 69.3549 95.1758 69.3549Z" fill="#C9885B"/>
<path opacity="0.1" d="M96.4277 64.0596L96.8008 66.9266C98.1871 69.4568 99.9413 70.0493 100.586 70.315L100.022 69.5727C99.9094 69.4239 99.8614 69.2324 99.8903 69.0448L100.382 65.8613L96.4277 64.0596Z" fill="black"/>
<path d="M95.8613 64.3414L96.3239 65.5476C96.8292 66.3227 97.3295 66.9183 97.7929 67.3755C99.1087 68.6735 100.129 68.8534 100.129 68.8534C100.566 68.9272 100.922 68.5908 101.209 68.054C102.018 66.5405 102.278 63.4326 102.278 63.4326L97.234 62.8062L95.8613 64.3414Z" fill="#DB965F"/>
<path d="M95.8381 65.283C95.8953 67.2453 96.8228 67.1158 96.8228 67.1158L96.7427 66.1745L96.3995 65.5948C95.8623 64.2162 96.8173 64.3728 96.8173 64.3728C97.5933 64.5922 97.5635 65.5948 97.5635 65.5948H97.8321C98.0111 65.3128 98.0708 64.3415 98.0708 64.3415C99.9615 62.0517 102.168 64.4385 102.168 64.4385C103.94 63.1166 102.494 62.1986 102.494 62.1986C102.747 60.2892 100.902 60.6564 100.902 60.6564C100.902 60.6564 99.6722 59.5549 98.9488 60.2525C98.9488 60.2525 97.8275 60.1791 97.4296 61.354C97.4296 61.354 96.4168 61.1337 96.0913 62.1986C96.0913 62.1986 96.063 62.2337 96.0183 62.2988C95.5317 63.0072 95.4215 63.9115 95.7039 64.7262C95.7751 64.9316 95.834 65.1414 95.8381 65.283Z" fill="black"/>
<path d="M106.038 77.7207L105.742 77.8288L105.66 77.8587L103.943 78.4841L103.593 78.6116L103.113 78.7863L103.161 77.9077L103.278 75.7369L103.279 75.7232L103.522 71.2297C103.522 71.2297 103.591 71.1969 103.713 71.2401C103.728 71.2452 103.743 71.2513 103.759 71.2589C104.122 71.4289 104.862 72.2495 105.668 75.8706C105.79 76.4203 105.914 77.0345 106.038 77.7207Z" fill="white"/>
<path opacity="0.1" d="M101.973 76.0775L103.605 80.5238L103.943 78.5875L103.87 75.7952L103.759 71.5103C103.608 71.4413 103.522 71.4818 103.522 71.4818L103.279 75.8832L101.973 76.0775Z" fill="black"/>
<path d="M104.23 87.2039L103.431 87.2367L103.053 87.2526L99.2336 87.4096L96.706 87.5137L92.6212 87.6823L91.7511 87.718L91.7589 87.1733L91.7653 86.7205L91.7817 85.5685L91.7855 85.3012L91.7738 84.7028L91.7579 83.8786L91.7518 83.5551L91.7359 82.7265L91.6968 80.7002L91.6748 79.5525L91.6251 76.9678C91.6248 76.9477 91.6251 76.9275 91.6262 76.907L91.6369 76.698L91.667 76.0925L91.6943 75.5503L91.8061 73.3201L91.8636 72.172L91.8931 71.5795L94.8714 69.5348L95.0112 69.4389L95.849 68.8633C95.849 68.8633 95.2529 70.0211 97.9963 71.3586C98.217 71.4667 98.4555 71.5229 98.6925 71.5251C98.7489 71.5261 98.805 71.5236 98.8614 71.5186C99.0978 71.4959 99.3295 71.4202 99.5389 71.2891C99.9888 71.0081 100.349 70.4865 99.9874 69.5243L100.926 69.9494L101.029 69.9966L103.607 71.1645C103.648 71.1828 103.684 71.2088 103.715 71.2401C103.785 71.3125 103.826 71.4144 103.823 71.5225L103.802 72.172L103.765 73.3201L103.693 75.5503L103.689 75.6749L103.656 76.698L103.629 77.528L103.594 78.6116L103.564 79.5464V79.5525C103.563 79.5868 103.565 79.6213 103.568 79.6555L103.623 80.2596V80.26L103.664 80.7002L103.845 82.6747L103.927 83.5551L103.951 83.8263L104.032 84.7028L104.097 85.5158L104.163 86.3508L104.188 86.6675L104.23 87.2039Z" fill="white"/>
<path opacity="0.1" d="M98.8066 71.5126L99.2329 87.4706L99.433 87.4703L98.9131 71.4766C98.9131 71.4766 98.8652 71.5135 98.8066 71.5126Z" fill="black"/>
<path opacity="0.1" d="M116.874 76.0219L113.831 78.4942H113.83C113.733 78.5104 113.633 78.5256 113.529 78.5392L104.808 81.3368C104.421 81.4607 104.006 81.2601 103.845 80.87L103.695 80.4611L103.622 80.2601L103.663 80.7003L103.844 82.6747L103.926 83.5552L103.95 83.8264L104.031 84.7029L104.096 85.5159L104.162 86.3509L103.426 86.9486L103.052 87.2526L99.1911 90.3899L97.3493 91.8863L93.0754 95.359L92.8653 95.0924L92.7159 92.2865C92.568 90.432 92.5595 88.9075 92.6201 87.6824L91.75 87.718L91.7578 87.1734L92.7166 86.3941L96.7844 83.089L102.863 78.1495L103.161 77.9078L103.628 77.5281L105.336 76.1404L105.668 75.8706C105.79 76.4203 105.914 77.0345 106.038 77.7208L105.743 77.8289L105.75 77.8588L105.895 78.4596L112.151 76.5155C112.151 76.5155 112.469 75.532 113.467 74.5273C113.69 74.5839 113.789 74.8584 113.658 75.0562L113.274 75.6379C113.316 75.6051 114.862 74.3984 115.893 74.786C115.894 74.786 116.796 75.1952 116.874 76.0219Z" fill="black"/>
<path opacity="0.1" d="M99.3047 71.4044C99.3131 71.4208 99.4466 71.8007 99.9058 71.6892L100.102 72.4968C100.102 72.4968 101.363 71.9087 101.221 70.1076L101.043 69.9995C101.103 70.6449 101.185 71.6566 100.154 72.2867L99.9678 71.469C99.9678 71.469 99.6764 71.813 99.3047 71.4044Z" fill="black"/>
<path opacity="0.1" d="M94.7227 69.5181C95.0706 70.3912 95.8959 71.5552 97.8118 72.6871L98.0906 72.0266C98.0906 72.0266 98.4888 72.0169 98.4888 71.5126C98.3468 71.9089 98.1817 71.9034 98.0287 71.8379L97.8118 72.4669C97.8118 72.4669 95.3134 71.1557 94.8676 69.4219L94.7227 69.5181Z" fill="black"/>
<path opacity="0.1" d="M93.3065 80.5185L92.9527 82.1997L92.1784 85.8788L91.6387 88.4436L91.7838 85.3016L91.7831 85.2595L91.623 76.9377L91.947 75.7781L93.0581 71.8008C94.9034 73.2417 94.227 78.1867 93.3065 80.5185Z" fill="black"/>
<path d="M97.5742 65.5768L97.7536 67.0468C97.7803 67.2654 97.8838 67.4672 98.0455 67.614C99.2376 68.6962 100.13 68.8536 100.13 68.8536C100.567 68.9274 100.923 68.591 101.21 68.0542C99.403 67.8845 97.8603 65.4343 97.8603 65.4343L97.5742 65.5768Z" fill="black"/>
<path d="M89.1239 89.7742L93.1289 94.8535L117.109 75.3682L113.104 70.2889L89.1239 89.7742Z" fill="#829CF8"/>
<path d="M113.546 66.101C110.825 68.312 110.34 72.2865 112.463 74.9786C114.585 77.6707 118.512 78.0607 121.233 75.8497C123.013 74.403 123.836 72.201 123.598 70.0976L119.344 73.5539L115.759 72.1917L115.339 68.4745L119.593 65.0182C117.623 64.3213 115.327 64.6544 113.546 66.101Z" fill="#829CF8"/>
<path d="M85.005 89.2914C87.726 87.0804 91.6524 87.4703 93.775 90.1624C95.8977 92.8545 95.4125 96.829 92.6915 99.04C90.9112 100.487 88.6143 100.82 86.6449 100.123L90.8986 96.6665L90.3745 92.8168L86.8936 91.5871L82.6399 95.0434C82.4014 92.94 83.2246 90.738 85.005 89.2914Z" fill="#829CF8"/>
<path opacity="0.1" d="M93.8723 89.1908L94.7304 90.2791C94.8643 90.449 95.1086 90.4765 95.276 90.3405L112.304 76.5042C112.472 76.3682 112.499 76.1202 112.365 75.9503L111.507 74.8619C111.373 74.692 111.128 74.6645 110.961 74.8005L93.9328 88.6368C93.7653 88.7728 93.7383 89.0208 93.8723 89.1908Z" fill="black"/>
<path opacity="0.1" d="M99.1715 91.0447V91.0501L99.1708 91.0555C99.1154 91.6102 98.7343 92.6593 97.6899 92.6593C97.608 92.6593 97.5225 92.6528 97.4355 92.6398C97.4209 92.6409 97.4021 92.642 97.3794 92.642C97.0405 92.642 95.8479 92.4406 94.7194 89.8552L92.1797 85.8785L92.954 82.1995L96.4057 87.6178C96.6889 87.6433 97.5608 87.7687 98.5934 88.3699L98.6761 88.4182L98.6825 88.5148C98.6917 88.6628 98.6428 88.8029 98.5441 88.9096C98.4497 89.0123 98.3174 89.0709 98.1814 89.0709C98.1747 89.0709 98.1679 89.0709 98.1612 89.0706C98.6346 89.5562 99.2006 90.2983 99.1715 91.0447Z" fill="black"/>
<path d="M90.5739 75.2942L93.4155 76.7089L91.9849 81.0104L96.3049 87.7915C96.3049 87.7915 97.2937 87.8207 98.505 88.5262C98.5204 88.7669 98.3005 88.9475 98.0812 88.8743L97.4368 88.6591C97.4368 88.6591 99.0394 89.8726 98.994 91.0374C98.994 91.0374 98.8296 92.6809 97.4397 92.4582C97.4397 92.4582 96.1372 92.6693 94.8758 89.7693L89.8595 81.9149C89.6146 81.5315 89.5234 81.0627 89.6057 80.6105L90.5739 75.2942Z" fill="#DB965F"/>
<path d="M92.4884 71.2693C92.4884 71.2693 90.6605 71.2202 90.0039 77.8002L93.1674 79.0222C93.1674 79.0222 95.5997 71.6944 92.4884 71.2693Z" fill="white"/>
<path d="M96.6777 64.8122C96.6777 64.8122 96.8197 60.0931 100.901 60.6334C100.901 60.6334 97.5294 60.7055 97.3165 64.9202L96.6777 64.8122Z" fill="#F6471E"/>
<path d="M100.649 67.874C99.51 67.8171 98.6479 67.2226 98.1252 66.7338C97.5605 66.2056 97.268 65.6981 97.2559 65.6767L97.3787 65.6045C97.3902 65.6247 98.5568 67.6252 100.656 67.7301L100.649 67.874Z" fill="#F6471E"/>
<path opacity="0.1" d="M98.3815 65.2985C98.3815 66.0237 97.8006 66.6134 97.0863 66.6134C96.3719 66.6134 95.791 66.0237 95.791 65.2985C95.791 64.6822 96.2108 64.1638 96.7754 64.0222C96.6881 64.4894 96.6782 64.8122 96.6782 64.8122L97.3169 64.9203C97.3333 64.599 97.3677 64.3021 97.4177 64.0273C97.972 64.1764 98.3815 64.6897 98.3815 65.2985Z" fill="black"/>
<path opacity="0.1" d="M97.4173 64.0273C97.3672 64.3021 97.3328 64.5989 97.3165 64.9203L96.6777 64.8122C96.6777 64.8122 96.6877 64.4894 96.775 64.0222C96.8747 63.997 96.9787 63.9836 97.0858 63.9836C97.2005 63.9837 97.3115 63.9988 97.4173 64.0273Z" fill="black"/>
<path d="M97.0866 66.4331C97.7039 66.4331 98.2044 65.925 98.2044 65.2983C98.2044 64.6716 97.7039 64.1636 97.0866 64.1636C96.4692 64.1636 95.9688 64.6716 95.9688 65.2983C95.9688 65.925 96.4692 66.4331 97.0866 66.4331Z" fill="#F6471E"/>
<path opacity="0.1" d="M97.0859 66.145C97.5464 66.145 97.9198 65.766 97.9198 65.2984C97.9198 64.8309 97.5464 64.4519 97.0859 64.4519C96.6253 64.4519 96.252 64.8309 96.252 65.2984C96.252 65.766 96.6253 66.145 97.0859 66.145Z" fill="black"/>
<path d="M97.0872 66.073C97.5086 66.073 97.8501 65.7262 97.8501 65.2984C97.8501 64.8707 97.5086 64.5239 97.0872 64.5239C96.6658 64.5239 96.3242 64.8707 96.3242 65.2984C96.3242 65.7262 96.6658 66.073 97.0872 66.073Z" fill="#B93516"/>
<path d="M101.019 67.9642H100.622C100.531 67.9642 100.457 67.8892 100.457 67.7967V67.7715C100.457 67.679 100.531 67.604 100.622 67.604H101.019C101.111 67.604 101.184 67.679 101.184 67.7715V67.7967C101.184 67.8892 101.111 67.9642 101.019 67.9642Z" fill="#B93516"/>
<path opacity="0.1" d="M65.7549 118.18L64.4689 121.49C64.4543 121.486 64.4397 121.482 64.4252 121.477H59.7542L59.7492 121.49C58.7279 121.2 57.7258 120.862 56.746 120.478V120.425H56.6108C55.784 120.097 54.9732 119.736 54.1797 119.345H56.746V118.883C56.746 118.707 56.8873 118.564 57.0608 118.564H57.7212V118.414C57.7212 118.285 57.8248 118.18 57.9522 118.18H65.7549Z" fill="black"/>
<path d="M104.48 58.3784C104.609 58.173 105.499 56.6785 104.986 55.3148L104.984 55.3094H104.209C101.44 55.3094 99.1875 53.0227 99.1875 50.212C99.1875 47.4012 101.44 45.1145 104.209 45.1145H107.898C110.667 45.1145 112.919 47.4012 112.919 50.2119C112.919 53.0227 110.667 55.3094 107.898 55.3094H107.426L107.424 55.3148C107.072 56.2666 106.277 57.5685 104.48 58.3784Z" fill="white"/>
<path d="M107.898 45.1227C109.238 45.1227 110.496 45.6521 111.443 46.6133C112.39 47.5745 112.912 48.8524 112.912 50.2118C112.912 51.5711 112.39 52.8491 111.443 53.8103C110.496 54.7715 109.238 55.3008 107.898 55.3008H107.432H107.42L107.416 55.3117C107.208 55.8762 106.903 56.3982 106.511 56.8633C105.982 57.4895 105.307 57.9926 104.502 58.3592C104.578 58.2359 104.783 57.8821 104.942 57.4154C105.125 56.8784 105.282 56.0774 104.994 55.3116L104.99 55.3008H104.979H104.209C102.87 55.3008 101.611 54.7714 100.664 53.8103C99.7176 52.8491 99.1962 51.5711 99.1962 50.2118C99.1962 48.8524 99.7176 47.5744 100.664 46.6133C101.611 45.6521 102.87 45.1227 104.209 45.1227H107.898ZM107.898 45.106H104.209C101.432 45.106 99.1797 47.3919 99.1797 50.2118C99.1797 53.0316 101.432 55.3176 104.209 55.3176H104.979C105.533 56.791 104.459 58.3973 104.459 58.3973C106.323 57.5658 107.108 56.1938 107.432 55.3176H107.898C110.676 55.3176 112.928 53.0316 112.928 50.2118C112.928 47.3919 110.676 45.106 107.898 45.106Z" fill="#040C2B"/>
<path d="M103.704 50.289C103.745 49.7408 103.341 49.2624 102.801 49.2205C102.261 49.1785 101.79 49.5889 101.749 50.1371C101.707 50.6852 102.112 51.1636 102.652 51.2056C103.192 51.2475 103.663 50.8372 103.704 50.289Z" fill="#ACBCF8"/>
<path d="M106.993 50.5002C107.15 49.974 106.857 49.4183 106.339 49.259C105.821 49.0996 105.273 49.397 105.116 49.9232C104.959 50.4494 105.252 51.0051 105.771 51.1645C106.289 51.3238 106.836 51.0264 106.993 50.5002Z" fill="#ACBCF8"/>
<path d="M110.37 50.289C110.411 49.7408 110.007 49.2624 109.467 49.2205C108.927 49.1785 108.456 49.5889 108.415 50.1371C108.373 50.6853 108.778 51.1636 109.318 51.2056C109.858 51.2475 110.329 50.8372 110.37 50.289Z" fill="#ACBCF8"/>
<path d="M58.4393 122.347C58.3105 122.347 58.2057 122.24 58.2057 122.11V121.963H57.5459C57.372 121.963 57.2305 121.819 57.2305 121.643V121.182H46.9941L45.7903 121.484L45.7539 121.471H45.5112L45.4603 121.484L44.0312 120.984V120.298L45.367 119.831C45.389 119.809 45.4189 119.796 45.4501 119.796H45.7469C45.7589 119.796 45.7708 119.798 45.7822 119.801L45.7902 119.798L46.9941 120.101H57.2305V119.64C57.2305 119.463 57.3719 119.32 57.5458 119.32H58.2057V119.173C58.2057 119.042 58.3104 118.936 58.4392 118.936H68.7723C69.1158 118.936 69.3952 119.219 69.3952 119.568V121.714C69.3952 122.063 69.1158 122.347 68.7723 122.347H58.4393V122.347Z" fill="black"/>
<path opacity="0.1" d="M57.2978 120.167H57.1465V121.115H57.2978V120.167Z" fill="black"/>
<path d="M45.4638 119.868L44.0977 120.346V120.936L45.4638 121.414L46.6564 121.115H57.2969V120.167H46.6564L45.4638 119.868Z" fill="#FBB5A5"/>
<path d="M57.5462 119.386H58.5075V121.896H57.5462C57.4085 121.896 57.2969 121.782 57.2969 121.643V119.64C57.2969 119.5 57.4085 119.386 57.5462 119.386Z" fill="#B93516"/>
<path opacity="0.1" d="M58.5078 119.386H58.1211V121.896H58.5078V119.386Z" fill="black"/>
<path d="M68.9991 119.568V121.714C68.9991 122.027 68.7497 122.28 68.4422 122.28H58.439C58.3465 122.28 58.2715 122.204 58.2715 122.11V119.173C58.2715 119.079 58.3465 119.002 58.439 119.002H68.4422C68.7497 119.002 68.9991 119.256 68.9991 119.568Z" fill="#B93516"/>
<g opacity="0.1">
<path d="M67.6384 121.486V121.776C67.6384 121.819 67.6046 121.853 67.563 121.853H59.7102C59.6685 121.853 59.6348 121.819 59.6348 121.776V121.486C59.6348 121.443 59.6685 121.409 59.7102 121.409H67.563C67.6046 121.409 67.6384 121.443 67.6384 121.486Z" fill="black"/>
<path d="M67.6384 120.496V120.786C67.6384 120.829 67.6046 120.863 67.563 120.863H59.7102C59.6685 120.863 59.6348 120.829 59.6348 120.786V120.496C59.6348 120.453 59.6685 120.419 59.7102 120.419H67.563C67.6046 120.419 67.6384 120.453 67.6384 120.496Z" fill="black"/>
<path d="M67.6384 119.506V119.796C67.6384 119.839 67.6046 119.873 67.563 119.873H59.7102C59.6685 119.873 59.6348 119.839 59.6348 119.796V119.506C59.6348 119.463 59.6685 119.429 59.7102 119.429H67.563C67.6046 119.429 67.6384 119.463 67.6384 119.506Z" fill="black"/>
</g>
<path d="M45.7475 119.863H45.4507C45.4277 119.863 45.4073 119.878 45.4005 119.901L45.082 120.935L45.445 121.404H45.808L45.8067 119.925C45.8074 119.891 45.7807 119.863 45.7475 119.863Z" fill="#FBB5A5"/>
<path d="M45.7939 119.868L44.4277 120.346V120.936L45.7939 121.414L46.9865 121.115H57.495V120.167H46.9865L45.7939 119.868Z" fill="#FEE9E4"/>
<path d="M57.8763 119.386H58.8376V121.896H57.8763C57.7386 121.896 57.627 121.782 57.627 121.643V119.64C57.627 119.5 57.7386 119.386 57.8763 119.386Z" fill="#F6471E"/>
<path opacity="0.1" d="M58.8379 119.386H58.4512V121.896H58.8379V119.386Z" fill="black"/>
<path d="M69.3291 119.568V121.714C69.3291 122.027 69.0798 122.28 68.7722 122.28H58.7691C58.6766 122.28 58.6016 122.204 58.6016 122.11V119.173C58.6016 119.079 58.6766 119.002 58.7691 119.002H68.7722C69.0798 119.002 69.3291 119.256 69.3291 119.568Z" fill="#F6471E"/>
<g opacity="0.1">
<path d="M67.9685 121.486V121.776C67.9685 121.819 67.9347 121.853 67.8931 121.853H60.0402C59.9986 121.853 59.9648 121.819 59.9648 121.776V121.486C59.9648 121.443 59.9986 121.409 60.0402 121.409H67.8931C67.9347 121.409 67.9685 121.443 67.9685 121.486Z" fill="black"/>
<path d="M67.9685 120.496V120.786C67.9685 120.829 67.9347 120.863 67.8931 120.863H60.0402C59.9986 120.863 59.9648 120.829 59.9648 120.786V120.496C59.9648 120.453 59.9986 120.419 60.0402 120.419H67.8931C67.9347 120.419 67.9685 120.453 67.9685 120.496Z" fill="black"/>
<path d="M67.9685 119.506V119.796C67.9685 119.839 67.9347 119.873 67.8931 119.873H60.0402C59.9986 119.873 59.9648 119.839 59.9648 119.796V119.506C59.9648 119.463 59.9986 119.429 60.0402 119.429H67.8931C67.9347 119.429 67.9685 119.463 67.9685 119.506Z" fill="black"/>
</g>
<path opacity="0.1" d="M57.4896 120.167H57.3906V121.115H57.4896V120.167Z" fill="black"/>
<path d="M145.157 69.8602L138.566 69.9964C137.833 70.0116 137.228 69.4214 137.213 68.6783L137.096 62.839C137.081 62.0959 137.662 61.4812 138.394 61.4661L144.986 61.3299C145.718 61.3147 146.323 61.9049 146.338 62.648L146.455 68.4873C146.47 69.2304 145.889 69.8451 145.157 69.8602Z" fill="#90B0E1"/>
<path d="M144.615 67.0497L144.592 67.4863L144.591 67.495L144.593 67.4957L144.791 67.5642C144.755 67.6952 144.701 67.8178 144.633 67.9285C144.631 67.9305 144.63 67.9325 144.629 67.9345L144.553 67.8967L144.428 67.8345L144.17 68.1847L144.261 68.3166C144.154 68.3893 144.035 68.4444 143.909 68.4786L143.867 68.2731L143.453 68.2646L143.39 68.4974C143.251 68.4704 143.12 68.4183 143.002 68.3455L143.122 68.1395L142.84 67.8145L142.609 67.9557L142.607 67.9569C142.602 67.9485 142.596 67.94 142.591 67.9313C142.502 67.7865 142.438 67.6216 142.408 67.4445L142.611 67.3986L142.634 66.9532L142.425 66.8868C142.462 66.7271 142.525 66.579 142.611 66.4482L142.826 66.5788L143.116 66.259L143.001 66.0623C143.15 65.9694 143.318 65.909 143.496 65.8899L143.542 66.1546L143.956 66.1756L144.022 65.9562C144.059 65.9405 144.285 66.0849 144.395 66.1822L144.262 66.3804L144.539 66.7231L144.718 66.6231C144.772 66.7424 144.809 66.8717 144.827 67.0077L144.615 67.0497ZM143.632 66.3657C143.478 66.3626 143.329 66.4077 143.201 66.4948C143.157 66.5246 143.116 66.5595 143.077 66.599C142.927 66.7538 142.842 66.9618 142.837 67.1849C142.832 67.408 142.908 67.6194 143.052 67.7801C143.195 67.9409 143.388 68.0318 143.596 68.036C143.803 68.0403 144 67.9574 144.15 67.8026C144.3 67.6479 144.386 67.4398 144.391 67.2168C144.396 66.9937 144.319 66.7823 144.176 66.6215C144.161 66.6051 144.146 66.5895 144.131 66.5746C143.993 66.4432 143.818 66.3695 143.632 66.3657Z" fill="white"/>
<path d="M144.257 64.1878L144.231 64.7001L144.231 64.7103L144.233 64.7112L144.449 64.7911C144.41 64.9449 144.351 65.0888 144.275 65.2188C144.274 65.2212 144.273 65.2235 144.271 65.2259L144.188 65.1817L144.051 65.1089L143.768 65.5202L143.868 65.6748C143.751 65.7602 143.621 65.8251 143.483 65.8654L143.438 65.6244L142.984 65.6152L142.916 65.8883C142.763 65.857 142.621 65.796 142.491 65.7108L142.624 65.4689L142.315 65.088L142.063 65.2542L142.06 65.2556C142.054 65.2457 142.048 65.2357 142.043 65.2256C141.945 65.0559 141.876 64.8625 141.844 64.6547L142.066 64.6006L142.092 64.078L141.863 64.0004C141.903 63.813 141.974 63.6391 142.067 63.4856L142.302 63.6384L142.62 63.2628L142.495 63.0322C142.657 62.923 142.841 62.8518 143.036 62.8291L143.086 63.1396L143.539 63.1635L143.611 62.906C143.651 62.8875 143.899 63.0565 144.019 63.1705L143.872 63.4033L144.175 63.8049L144.371 63.6873C144.429 63.8271 144.47 63.9788 144.489 64.1383L144.257 64.1878ZM143.184 63.387C143.015 63.3836 142.852 63.4367 142.712 63.5392C142.664 63.5743 142.619 63.6152 142.577 63.6616C142.412 63.8434 142.319 64.0877 142.313 64.3494C142.307 64.6112 142.39 64.859 142.547 65.0474C142.703 65.2358 142.914 65.3421 143.141 65.3467C143.368 65.3514 143.583 65.2538 143.748 65.072C143.912 64.8902 144.006 64.6459 144.012 64.3842C144.017 64.1225 143.934 63.8746 143.778 63.6862C143.762 63.667 143.746 63.6486 143.729 63.6312C143.579 63.4773 143.388 63.3912 143.184 63.387Z" fill="white"/>
<path d="M142.041 66.0594L142.005 66.7649L142.005 66.779L142.008 66.7801L142.304 66.8902C142.251 67.102 142.17 67.3002 142.066 67.4792C142.064 67.4825 142.062 67.4857 142.06 67.4889L141.946 67.4281L141.758 67.3278L141.369 67.8942L141.507 68.107C141.345 68.2247 141.166 68.3141 140.976 68.3696L140.915 68.0378L140.291 68.025L140.196 68.4012C139.987 68.358 139.791 68.274 139.613 68.1567L139.795 67.8237L139.37 67.2992L139.023 67.528L139.02 67.53C139.012 67.5163 139.004 67.5026 138.996 67.4887C138.862 67.2549 138.768 66.9886 138.723 66.7025L139.028 66.628L139.064 65.9083L138.749 65.8015C138.805 65.5434 138.901 65.304 139.03 65.0925L139.353 65.303L139.79 64.7856L139.618 64.4682C139.841 64.3178 140.094 64.2197 140.362 64.1885L140.431 64.6161L141.053 64.649L141.152 64.2944C141.208 64.2689 141.548 64.5017 141.713 64.6586L141.512 64.9791L141.928 65.5322L142.197 65.3702C142.278 65.5627 142.334 65.7716 142.36 65.9912L142.041 66.0594ZM140.565 64.9568C140.333 64.952 140.109 65.0252 139.917 65.1664C139.851 65.2146 139.789 65.271 139.731 65.335C139.505 65.5853 139.376 65.9217 139.368 66.2821C139.36 66.6425 139.474 66.9838 139.689 67.2432C139.904 67.5026 140.195 67.6489 140.506 67.6553C140.818 67.6617 141.115 67.5274 141.341 67.277C141.567 67.0267 141.696 66.6903 141.704 66.3299C141.712 65.9695 141.598 65.6282 141.383 65.3688C141.361 65.3424 141.338 65.3171 141.314 65.2931C141.108 65.0811 140.845 64.9625 140.565 64.9568Z" fill="white"/>
<path d="M52.889 49.2914L46.298 49.4276C45.5659 49.4427 44.9604 48.8526 44.9455 48.1094L44.8284 42.2702C44.8135 41.527 45.3949 40.9123 46.1269 40.8972L52.7179 40.761C53.45 40.7459 54.0555 41.3361 54.0704 42.0792L54.1875 47.9184C54.2025 48.6616 53.6211 49.2763 52.889 49.2914Z" fill="#90B0E1"/>
<path d="M52.3474 46.4808L52.3241 46.9175L52.3236 46.9262L52.3258 46.9269L52.5231 46.9953C52.4876 47.1263 52.4339 47.2489 52.3651 47.3596C52.3639 47.3617 52.3626 47.3636 52.3614 47.3656L52.2854 47.3279L52.1603 47.2656L51.902 47.6159L51.9937 47.7477C51.8861 47.8204 51.7673 47.8756 51.641 47.9098L51.5999 47.7043L51.1851 47.6958L51.1225 47.9285C50.9833 47.9016 50.8526 47.8494 50.7344 47.7766L50.8548 47.5707L50.5721 47.2456L50.3415 47.3869L50.3395 47.3881C50.334 47.3796 50.3287 47.3711 50.3233 47.3625C50.234 47.2177 50.1708 47.0527 50.1406 46.8756L50.3436 46.8298L50.3667 46.3843L50.1571 46.3179C50.194 46.1582 50.2579 46.0101 50.3432 45.8794L50.5584 46.0099L50.8489 45.6901L50.7338 45.4935C50.8822 45.4006 51.05 45.3401 51.2287 45.321L51.2745 45.5858L51.6888 45.6068L51.754 45.3874C51.7914 45.3717 52.0177 45.516 52.1275 45.6133L51.9941 45.8116L52.2716 46.1543L52.4502 46.0543C52.504 46.1735 52.5414 46.3029 52.5594 46.4388L52.3474 46.4808ZM51.3645 45.7969C51.21 45.7937 51.0613 45.8388 50.9334 45.926C50.8896 45.9558 50.8482 45.9906 50.8099 46.0302C50.6597 46.1849 50.5744 46.393 50.5696 46.6161C50.5647 46.8391 50.6409 47.0505 50.7842 47.2113C50.9275 47.372 51.1207 47.4629 51.3281 47.4672C51.5356 47.4714 51.7326 47.3886 51.8828 47.2338C52.0329 47.079 52.1182 46.871 52.1231 46.6479C52.128 46.4248 52.0518 46.2135 51.9085 46.0527C51.8939 46.0363 51.8788 46.0206 51.8632 46.0058C51.7256 45.8744 51.5508 45.8007 51.3645 45.7969Z" fill="white"/>
<path d="M51.9898 43.6189L51.9636 44.1313L51.963 44.1415L51.9654 44.1423L52.181 44.2223C52.1421 44.3761 52.0831 44.52 52.0076 44.65C52.0063 44.6524 52.0049 44.6547 52.0036 44.657L51.9206 44.6129L51.7839 44.5401L51.5009 44.9514L51.6009 45.1059C51.483 45.1914 51.3531 45.2563 51.2149 45.2966L51.1703 45.0556L50.7168 45.0463L50.6479 45.3195C50.4958 45.2881 50.3529 45.2271 50.2238 45.1419L50.3559 44.9001L50.0473 44.5192L49.7949 44.6853L49.7927 44.6868C49.7867 44.6768 49.7809 44.6669 49.7751 44.6568C49.6776 44.487 49.6088 44.2936 49.5762 44.0859L49.7982 44.0318L49.8242 43.5091L49.5951 43.4316C49.6358 43.2441 49.706 43.0703 49.7995 42.9168L50.0346 43.0696L50.3527 42.6939L50.2272 42.4634C50.3896 42.3541 50.5732 42.2829 50.7686 42.2603L50.8182 42.5708L51.2712 42.5947L51.343 42.3372C51.3839 42.3187 51.631 42.4877 51.751 42.6017L51.6047 42.8344L51.9076 43.2361L52.103 43.1184C52.1616 43.2583 52.2023 43.4099 52.2218 43.5694L51.9898 43.6189ZM50.9162 42.8182C50.7473 42.8147 50.5846 42.8679 50.4447 42.9704C50.3967 43.0054 50.3514 43.0463 50.3094 43.0928C50.1449 43.2746 50.0512 43.5189 50.0455 43.7806C50.0398 44.0423 50.1228 44.2902 50.2792 44.4786C50.4356 44.6669 50.6467 44.7732 50.8735 44.7779C51.1004 44.7825 51.3159 44.685 51.4804 44.5031C51.6449 44.3213 51.7386 44.0771 51.7442 43.8154C51.7499 43.5536 51.667 43.3058 51.5106 43.1174C51.4946 43.0982 51.4781 43.0798 51.4611 43.0624C51.311 42.9085 51.12 42.8223 50.9162 42.8182Z" fill="white"/>
<path d="M49.7738 45.4906L49.7377 46.196L49.737 46.2101L49.7402 46.2113L50.0367 46.3214C49.9831 46.5331 49.902 46.7313 49.7983 46.9103C49.7964 46.9137 49.7945 46.9168 49.7927 46.92L49.6785 46.8592L49.4906 46.7589L49.1015 47.3254L49.239 47.5382C49.077 47.6558 48.8983 47.7453 48.7083 47.8008L48.647 47.4689L48.0234 47.4562L47.9287 47.8323C47.7195 47.7891 47.523 47.7052 47.3456 47.5878L47.5272 47.2548L47.1029 46.7304L46.7558 46.9591L46.7528 46.9611C46.7446 46.9475 46.7365 46.9337 46.7286 46.9198C46.5946 46.6861 46.4999 46.4197 46.4551 46.1336L46.7604 46.0591L46.7961 45.3395L46.4811 45.2327C46.5371 44.9745 46.6336 44.7351 46.7622 44.5237L47.0854 44.7341L47.5228 44.2168L47.3503 43.8993C47.5736 43.7489 47.8261 43.6509 48.0947 43.6196L48.163 44.0472L48.7859 44.0802L48.8845 43.7256C48.9408 43.7001 49.2806 43.9328 49.4455 44.0897L49.2444 44.4103L49.6608 44.9634L49.9295 44.8013C50.0101 44.9939 50.066 45.2028 50.0928 45.4224L49.7738 45.4906ZM48.2976 44.3879C48.0653 44.3832 47.8416 44.4564 47.6492 44.5975C47.5832 44.6458 47.5209 44.7021 47.4632 44.7661C47.237 45.0165 47.1082 45.3528 47.1004 45.7132C47.0925 46.0736 47.2066 46.4149 47.4216 46.6743C47.6366 46.9337 47.9269 47.0801 48.2388 47.0865C48.5508 47.0929 48.8471 46.9585 49.0733 46.7082C49.2994 46.4578 49.4282 46.1215 49.4361 45.7611C49.4439 45.4007 49.3298 45.0594 49.1148 44.8C49.0929 44.7735 49.0702 44.7482 49.0468 44.7243C48.8404 44.5123 48.5777 44.3937 48.2976 44.3879Z" fill="white"/>
<path d="M104.496 31.0289H97.9039C97.1717 31.0289 96.5781 30.4264 96.5781 29.6831V23.8427C96.5781 23.0994 97.1717 22.4968 97.9039 22.4968H104.496C105.229 22.4968 105.822 23.0994 105.822 23.8427V29.6831C105.822 30.4264 105.229 31.0289 104.496 31.0289Z" fill="#90B0E1"/>
<path d="M104.567 28.7831L101.351 26.6611C101.447 26.3641 101.478 26.0376 101.428 25.7031C101.262 24.6062 100.288 23.8411 99.252 23.9944C98.2155 24.1477 97.5092 25.1612 97.6743 26.2581C97.8394 27.3551 98.8135 28.1201 99.8499 27.9669C100.286 27.9023 100.664 27.6848 100.943 27.3731L104.138 29.4798C104.323 29.6087 104.568 29.5572 104.687 29.3648C104.806 29.1724 104.752 28.912 104.567 28.7831ZM99.7955 27.6058C98.9489 27.7309 98.1504 27.1038 98.0155 26.2077C97.8807 25.3116 98.4597 24.4807 99.3063 24.3556C100.153 24.2304 100.951 24.8575 101.086 25.7536C101.221 26.6497 100.642 27.4806 99.7955 27.6058Z" fill="white"/>
<path d="M98.3047 25.3525C98.2848 25.4836 98.2736 25.6145 98.2692 25.7452C98.2657 25.8759 98.27 26.0064 98.2855 26.1352L98.2982 26.2317L98.3176 26.327C98.3225 26.3592 98.3326 26.39 98.3409 26.4213C98.3502 26.4522 98.3565 26.4844 98.3686 26.5144L98.4013 26.6062C98.4133 26.6364 98.4281 26.6653 98.4412 26.6952L98.4611 26.7401L98.4853 26.7826C98.5015 26.8111 98.5173 26.8399 98.5331 26.8693C98.5121 26.8441 98.4912 26.8184 98.4707 26.7923C98.4604 26.7793 98.45 26.7663 98.4402 26.7528L98.4142 26.7103C98.3974 26.6816 98.3793 26.6533 98.3638 26.6237L98.3226 26.5321C98.273 26.4078 98.2373 26.2765 98.223 26.1429C98.2082 26.0094 98.2066 25.8747 98.2204 25.7418C98.2341 25.6092 98.2594 25.4773 98.3047 25.3525Z" fill="white"/>
<path d="M20.0158 89.2184H13.4234C12.6912 89.2184 12.0977 88.6158 12.0977 87.8726V82.0321C12.0977 81.2888 12.6912 80.6863 13.4234 80.6863H20.0158C20.748 80.6863 21.3416 81.2888 21.3416 82.0321V87.8726C21.3416 88.6158 20.748 89.2184 20.0158 89.2184Z" fill="#90B0E1"/>
<path d="M20.0869 86.9725L16.87 84.8505C16.9663 84.5536 16.9974 84.227 16.9471 83.8926C16.782 82.7956 15.8079 82.0306 14.7715 82.1838C13.7351 82.3371 13.0287 83.3506 13.1939 84.4476C13.359 85.5445 14.333 86.3096 15.3694 86.1563C15.8059 86.0918 16.1834 85.8743 16.4624 85.5626L19.6574 87.6693C19.842 87.7982 20.0879 87.7467 20.2065 87.5543C20.3251 87.3619 20.2716 87.1014 20.0869 86.9725ZM15.315 85.7952C14.4684 85.9204 13.6699 85.2933 13.535 84.3972C13.4002 83.5011 13.9792 82.6702 14.8258 82.545C15.6724 82.4198 16.4709 83.047 16.6058 83.9431C16.7407 84.8392 16.1617 85.67 15.315 85.7952Z" fill="white"/>
<path d="M13.8243 83.542C13.8044 83.673 13.7932 83.804 13.7888 83.9346C13.7853 84.0653 13.7896 84.1958 13.8051 84.3247L13.8178 84.4212L13.8372 84.5164C13.8421 84.5486 13.8522 84.5794 13.8605 84.6107C13.8698 84.6417 13.876 84.6738 13.8882 84.7038L13.9209 84.7956C13.9329 84.8258 13.9476 84.8547 13.9608 84.8846L13.9807 84.9295L14.0049 84.972C14.0211 85.0005 14.0369 85.0294 14.0526 85.0587C14.0316 85.0335 14.0108 85.0079 13.9902 84.9818C13.9799 84.9688 13.9696 84.9557 13.9597 84.9423L13.9337 84.8997C13.917 84.871 13.8989 84.8427 13.8834 84.8131L13.8422 84.7215C13.7925 84.5972 13.7569 84.466 13.7425 84.3324C13.7278 84.1989 13.7262 84.0642 13.7399 83.9313C13.7537 83.7986 13.779 83.6667 13.8243 83.542Z" fill="white"/>
</g>
<defs>
<clipPath id="clip0_4006_3651">
<rect width="158" height="134" fill="white"/>
</clipPath>
</defs>
</svg>
