<svg width="45" height="45" viewBox="0 0 45 45" fill="none" xmlns="http://www.w3.org/2000/svg">
<path d="M28.1234 7.03125C25.2505 7.03346 22.435 7.83481 19.9916 9.34569C17.5481 10.8566 15.5732 13.0174 14.2876 15.5865C12.7583 15.3635 11.1993 15.4579 9.70809 15.864C8.21684 16.2701 6.82527 16.9792 5.62017 17.9469C4.41507 18.9146 3.42229 20.1202 2.70376 21.4886C1.98523 22.8569 1.55635 24.3587 1.44389 25.9001C1.33142 27.4416 1.53778 28.9897 2.05009 30.4478C2.5624 31.906 3.36967 33.243 4.42155 34.3754C5.47343 35.5077 6.74735 36.4112 8.16386 37.0295C9.58036 37.6477 11.1091 37.9675 12.6546 37.9688H28.1234C32.2259 37.9688 36.1605 36.339 39.0614 33.4381C41.9624 30.5371 43.5921 26.6026 43.5921 22.5C43.5921 18.3974 41.9624 14.4629 39.0614 11.5619C36.1605 8.66099 32.2259 7.03125 28.1234 7.03125ZM28.1234 35.1562H12.6546C10.4168 35.1562 8.27074 34.2673 6.6884 32.685C5.10606 31.1026 4.21711 28.9565 4.21711 26.7188C4.21711 24.481 5.10606 22.3349 6.6884 20.7525C8.27074 19.1702 10.4168 18.2813 12.6546 18.2812C12.848 18.2812 13.0413 18.2813 13.2329 18.3006C12.8484 19.6672 12.6538 21.0803 12.6546 22.5C12.6546 22.873 12.8028 23.2306 13.0665 23.4944C13.3302 23.7581 13.6879 23.9062 14.0609 23.9062C14.4338 23.9062 14.7915 23.7581 15.0552 23.4944C15.319 23.2306 15.4671 22.873 15.4671 22.5C15.4671 19.9968 16.2094 17.5499 17.6001 15.4686C18.9908 13.3873 20.9674 11.7651 23.28 10.8071C25.5927 9.84923 28.1374 9.59859 30.5925 10.0869C33.0475 10.5753 35.3027 11.7807 37.0727 13.5507C38.8427 15.3207 40.0481 17.5758 40.5364 20.0309C41.0248 22.486 40.7741 25.0307 39.8162 27.3433C38.8583 29.656 37.2361 31.6326 35.1548 33.0233C33.0735 34.414 30.6265 35.1562 28.1234 35.1562ZM34.7433 18.6926C34.874 18.8232 34.9778 18.9783 35.0485 19.149C35.1193 19.3197 35.1557 19.5027 35.1557 19.6875C35.1557 19.8723 35.1193 20.0553 35.0485 20.226C34.9778 20.3967 34.874 20.5518 34.7433 20.6824L26.3058 29.1199C26.1752 29.2507 26.0201 29.3544 25.8494 29.4252C25.6787 29.4959 25.4957 29.5324 25.3109 29.5324C25.1261 29.5324 24.9431 29.4959 24.7724 29.4252C24.6016 29.3544 24.4465 29.2507 24.3159 29.1199L20.0972 24.9012C19.8333 24.6373 19.6851 24.2794 19.6851 23.9062C19.6851 23.5331 19.8333 23.1752 20.0972 22.9113C20.3611 22.6475 20.7189 22.4992 21.0921 22.4992C21.4653 22.4992 21.8232 22.6475 22.087 22.9113L25.3109 26.1369L32.7534 18.6926C32.884 18.5618 33.0391 18.4581 33.2099 18.3873C33.3806 18.3166 33.5636 18.2801 33.7484 18.2801C33.9332 18.2801 34.1162 18.3166 34.2869 18.3873C34.4576 18.4581 34.6127 18.5618 34.7433 18.6926Z" fill="#0E53BE"/>
</svg>
