<svg width="45" height="45" viewBox="0 0 45 45" fill="none" xmlns="http://www.w3.org/2000/svg">
<path d="M39.375 8.43749V16.875C39.375 17.248 39.2268 17.6056 38.9631 17.8694C38.6994 18.1331 38.3417 18.2812 37.9688 18.2812H29.5312C29.1583 18.2812 28.8006 18.1331 28.5369 17.8694C28.2732 17.6056 28.125 17.248 28.125 16.875C28.125 16.502 28.2732 16.1443 28.5369 15.8806C28.8006 15.6169 29.1583 15.4687 29.5312 15.4687H34.5744L32.0027 12.8971C29.3892 10.2716 25.8407 8.79038 22.1361 8.77851H22.057C18.3835 8.7699 14.8542 10.2077 12.2326 12.781C11.9641 13.0317 11.6081 13.1674 11.2408 13.159C10.8735 13.1505 10.5241 12.9987 10.2673 12.736C10.0105 12.4732 9.86674 12.1204 9.86676 11.753C9.86678 11.3856 10.0106 11.0328 10.2674 10.7701C13.4447 7.66475 17.7184 5.93767 22.1611 5.96367C26.6039 5.98967 30.8571 7.76665 33.9979 10.909L36.5625 13.4807V8.43749C36.5625 8.06453 36.7107 7.70685 36.9744 7.44312C37.2381 7.1794 37.5958 7.03124 37.9688 7.03124C38.3417 7.03124 38.6994 7.1794 38.9631 7.44312C39.2268 7.70685 39.375 8.06453 39.375 8.43749ZM32.7674 32.2189C30.1198 34.8051 26.5595 36.2433 22.8585 36.2215C19.1575 36.1998 15.6143 34.72 12.9973 32.1029L10.4256 29.5312H15.4688C15.8417 29.5312 16.1994 29.3831 16.4631 29.1194C16.7268 28.8556 16.875 28.498 16.875 28.125C16.875 27.752 16.7268 27.3943 16.4631 27.1306C16.1994 26.8669 15.8417 26.7187 15.4688 26.7187H7.03125C6.65829 26.7187 6.3006 26.8669 6.03688 27.1306C5.77316 27.3943 5.625 27.752 5.625 28.125V36.5625C5.625 36.9355 5.77316 37.2931 6.03688 37.5569C6.3006 37.8206 6.65829 37.9687 7.03125 37.9687C7.40421 37.9687 7.7619 37.8206 8.02562 37.5569C8.28934 37.2931 8.4375 36.9355 8.4375 36.5625V31.5193L11.0092 34.091C14.1455 37.2431 18.405 39.021 22.8516 39.034H22.9447C27.3535 39.0453 31.5892 37.3193 34.7344 34.2299C34.9912 33.9671 35.135 33.6144 35.135 33.247C35.135 32.8796 34.9913 32.5268 34.7345 32.264C34.4777 32.0013 34.1283 31.8494 33.761 31.841C33.3937 31.8326 33.0377 31.9682 32.7691 32.2189H32.7674Z" fill="#0E53BE"/>
</svg>
