<svg width="45" height="45" viewBox="0 0 45 45" fill="none" xmlns="http://www.w3.org/2000/svg">
<path d="M42.1884 9.84376V18.2813C42.1884 18.6542 42.0403 19.0119 41.7766 19.2756C41.5128 19.5393 41.1551 19.6875 40.7822 19.6875H32.3447C31.9717 19.6875 31.614 19.5393 31.3503 19.2756C31.0866 19.0119 30.9384 18.6542 30.9384 18.2813C30.9384 17.9083 31.0866 17.5506 31.3503 17.2869C31.614 17.0232 31.9717 16.875 32.3447 16.875H37.1611L32.4871 12.593L32.4431 12.5508C30.4886 10.597 28.0016 9.26237 25.293 8.71374C22.5843 8.16511 19.7741 8.42676 17.2132 9.466C14.6524 10.5052 12.4546 12.276 10.8943 14.5571C9.33406 16.8382 8.48051 19.5284 8.4403 22.2918C8.40009 25.0551 9.17502 27.7691 10.6683 30.0946C12.1615 32.4201 14.3069 34.2541 16.8364 35.3674C19.3659 36.4807 22.1673 36.824 24.8908 36.3544C27.6143 35.8848 30.139 34.6231 32.1496 32.727C32.4207 32.4705 32.7825 32.3323 33.1555 32.3427C33.5285 32.3531 33.8821 32.5112 34.1385 32.7823C34.3949 33.0534 34.5332 33.4153 34.5228 33.7883C34.5124 34.1613 34.3543 34.5149 34.0832 34.7713C30.9568 37.7362 26.8096 39.3847 22.5009 39.375H22.2689C19.5052 39.3372 16.793 38.621 14.3709 37.2895C11.9487 35.958 9.8907 34.052 8.37771 31.7388C6.86472 29.4257 5.94308 26.7763 5.69378 24.0236C5.44449 21.2709 5.87518 18.499 6.948 15.9517C8.02082 13.4044 9.70292 11.1596 11.8465 9.41466C13.99 7.66969 16.5294 6.47796 19.2413 5.94421C21.9533 5.41047 24.7549 5.55105 27.3998 6.3536C30.0447 7.15614 32.452 8.59609 34.4101 10.5469L39.3759 15.082V9.84376C39.3759 9.4708 39.5241 9.11311 39.7878 8.84939C40.0515 8.58566 40.4092 8.43751 40.7822 8.43751C41.1551 8.43751 41.5128 8.58566 41.7766 8.84939C42.0403 9.11311 42.1884 9.4708 42.1884 9.84376Z" fill="#0E53BE"/>
</svg>
