<?xml version="1.0" encoding="utf-8"?>
<!-- Generator: Adobe Illustrator 24.1.1, SVG Export Plug-In . SVG Version: 6.00 Build 0)  -->
<svg version="1.1" id="Layer_1" xmlns="http://www.w3.org/2000/svg" xmlns:xlink="http://www.w3.org/1999/xlink" x="0px" y="0px"
	 viewBox="0 0 464 473.6" style="enable-background:new 0 0 464 473.6;" xml:space="preserve">
<style type="text/css">
	.st0{clip-path:url(#SVGID_2_);}
	.st1{fill:#007AFB;}
</style>
<g>
	<defs>
		<rect id="SVGID_1_" width="464" height="473.6"/>
	</defs>
	<clipPath id="SVGID_2_">
		<use xlink:href="#SVGID_1_"  style="overflow:visible;"/>
	</clipPath>
	<g class="st0">
		<path class="st1" d="M444.8,271.9v-46.3c0-17.7-6.6-34.7-18.5-47.8c-11.9-13.1-28.2-21.3-45.8-23v-51.3v-0.7v0
			c0-0.8-0.2-1.6-0.6-2.3c-0.2-0.3-0.4-0.7-0.7-1c-0.3-0.6-0.7-1-1.2-1.4v-0.4C346.8,75.2,291.2,34,246.8,1.4
			C245.5,0.5,244,0,242.4,0H37.3c-9.8,0-19.2,3.9-26.2,10.8C4.2,17.8,0.3,27.2,0.3,37v399.6c0,9.8,3.9,19.2,10.8,26.2
			c6.9,6.9,16.4,10.8,26.2,10.8h306.3c9.8,0,19.2-3.9,26.2-10.8c6.9-6.9,10.8-16.4,10.8-26.2v-21.7h55.3c7.4,0,14.4-3,19.7-8.2
			s8.2-12.3,8.2-19.7v-88.8c0-5.8-1.8-11.5-5.2-16.2C455.1,277.4,450.3,273.8,444.8,271.9L444.8,271.9z M373.7,168.9
			c15,0,29.5,6,40.1,16.6c10.6,10.6,16.6,25.1,16.6,40.1V270H316.1v-44.4c0-15,6-29.4,16.5-40c10.6-10.6,24.9-16.7,39.9-16.8
			L373.7,168.9z M351.5,96.6l-100,0l-1.6-75.1C284.3,46.8,323.2,75.6,351.5,96.6L351.5,96.6z M366.3,436.7L366.3,436.7
			c0,6-2.4,11.7-6.6,15.9c-4.2,4.2-10,6.6-15.9,6.6H37.3c-6,0-11.7-2.4-16-6.7c-4.2-4.2-6.6-10-6.6-16V37c0-6,2.4-11.7,6.6-16
			c4.2-4.2,10-6.6,16-6.7h198.1l1.9,89.6h0c0.2,3.9,3.5,7,7.4,7h121.4v43.9c-17.6,1.7-33.9,9.9-45.8,22.9
			c-11.9,13.1-18.5,30.1-18.5,47.8v46.3c-5.5,1.9-10.2,5.4-13.6,10.1c-3.4,4.7-5.2,10.3-5.2,16.1v88.8c0,7.4,3,14.4,8.2,19.7
			c5.2,5.2,12.3,8.2,19.7,8.2h55.4L366.3,436.7z M449.4,387.1L449.4,387.1c0,7.4-6,13.4-13.5,13.5H310.8c-7.4,0-13.4-6-13.5-13.5
			v-88.8c0-7.4,6-13.4,13.5-13.5h125c7.4,0,13.4,6,13.5,13.5L449.4,387.1z"/>
	</g>
</g>
<path class="st1" d="M392.4,342c5-6.4,6.5-14.8,4.1-22.5c-2.4-7.7-8.5-13.8-16.2-16.2c-7.7-2.4-16.2-0.8-22.5,4.2
	c-5,4.2-8.2,10.2-8.8,16.7c-0.6,6.5,1.4,13,5.5,18l-5.4,24.1l0,0c-0.9,4.2,0.1,8.6,2.7,11.9c2.7,3.3,6.7,5.3,11,5.3h21.4
	c4.2-0.1,8.2-2,10.8-5.4c2.6-3.3,3.6-7.6,2.7-11.7L392.4,342z M362.8,369.4l6.3-27.9c0.7-2.7-0.3-5.6-2.4-7.4
	c-3.3-2.8-4.5-7.4-3.1-11.4c1.5-4.1,5.3-6.8,9.7-6.8c0.7-0.1,1.4-0.1,2.1,0c4.1,0.7,7.4,3.7,8.4,7.7c1,4-0.5,8.3-3.8,10.8
	c-2,1.7-2.9,4.4-2.4,7l6.1,27.8L362.8,369.4z"/>
<path class="st1" d="M84.7,194.6H42.5c-3.3,0.8-5.6,3.8-5.6,7.2s2.3,6.4,5.6,7.2h42.2h0c2.2,0.6,4.6,0.1,6.4-1.3
	c1.8-1.4,2.8-3.6,2.8-5.8c0-2.3-1.1-4.4-2.8-5.8S86.9,194.1,84.7,194.6L84.7,194.6z"/>
<path class="st1" d="M169.2,194.6H127c-3.3,0.8-5.6,3.8-5.6,7.2s2.3,6.4,5.6,7.2h42.2c3.3-0.8,5.6-3.8,5.6-7.2
	S172.5,195.4,169.2,194.6z"/>
<path class="st1" d="M251.5,194.6h-42.2h0c-3.3,0.8-5.6,3.8-5.6,7.2s2.3,6.4,5.6,7.2h42.2h0c3.3-0.8,5.6-3.8,5.6-7.2
	S254.8,195.4,251.5,194.6z"/>
</svg>
