<?xml version="1.0" encoding="utf-8"?>
<!-- Generator: Adobe Illustrator 24.1.1, SVG Export Plug-In . SVG Version: 6.00 Build 0)  -->
<svg version="1.1" id="Layer_1" xmlns="http://www.w3.org/2000/svg" xmlns:xlink="http://www.w3.org/1999/xlink" x="0px" y="0px"
	 viewBox="0 0 189.4 189.4" style="enable-background:new 0 0 189.4 189.4;" xml:space="preserve">
<style type="text/css">
	.st0{fill:#007AFB;}
</style>
<path class="st0" d="M94.7,0C42.5,0,0,42.5,0,94.7c0,52.2,42.5,94.7,94.7,94.7c52.2,0,94.7-42.5,94.7-94.7
	C189.4,42.5,146.9,0,94.7,0z M94.7,175.2c-44.4,0-80.5-36.1-80.5-80.5c0-44.4,36.1-80.5,80.5-80.5c44.4,0,80.5,36.1,80.5,80.5
	C175.2,139.1,139.1,175.2,94.7,175.2z M144.3,58.5c3,2.5,3.4,7,0.8,10L93,130.1c-1.3,1.5-3.3,2.5-5.4,2.5c-1.7,0-3.4-0.6-4.7-1.8
	L45,97.7c-3-2.6-3.3-7.1-0.7-10c2.6-3,7.1-3.3,10-0.7l32.4,28.4l47.4-56C136.8,56.4,141.3,56,144.3,58.5L144.3,58.5z"/>
</svg>
