<svg width="24" height="24" viewBox="0 0 24 24" fill="none" xmlns="http://www.w3.org/2000/svg">
<path d="M7.354 11.107V9.50202C7.354 9.40702 7.354 9.36902 7.478 9.36902C8.541 9.36902 9.405 9.30602 9.834 9.55902C10.264 9.81102 10.282 10.159 10.289 10.263C10.296 10.367 10.293 10.516 10.093 10.879C9.893 11.242 8.998 11.249 8.352 11.249H7.497C7.392 11.249 7.354 11.211 7.354 11.107ZM10.3 12.789C10.399 12.9154 10.4697 13.0617 10.5073 13.2178C10.5448 13.374 10.5484 13.5364 10.5176 13.694C10.4869 13.8517 10.4226 14.0009 10.3292 14.1315C10.2357 14.2621 10.1153 14.3711 9.976 14.451C9.77142 14.5371 9.55195 14.5823 9.33 14.584H7.487C7.392 14.584 7.354 14.584 7.354 14.461V12.561C7.354 12.466 7.354 12.428 7.478 12.428H8.703C9.463 12.428 9.938 12.362 10.3 12.789Z" fill="#0E53BE"/>
<path d="M16.8605 11.6503C16.8083 11.527 16.7289 11.4171 16.6285 11.3287C16.528 11.2403 16.4089 11.1756 16.28 11.1395C16.0224 11.0691 15.7528 11.0542 15.489 11.0957C15.2252 11.1373 14.9732 11.2344 14.7497 11.3805C14.527 11.6056 14.3831 11.8966 14.3395 12.2103C14.3395 12.32 14.3395 12.3405 14.4697 12.3405H16.9005C17.0205 12.3405 17.0205 12.3405 17.0103 12.1897C16.9988 12.0013 16.9484 11.8174 16.8605 11.6503ZM16.8605 11.6503C16.8083 11.527 16.7279 11.4171 16.6274 11.3287C16.5269 11.2403 16.4089 11.1756 16.28 11.1395C16.0224 11.0691 15.7528 11.0542 15.489 11.0957C15.2252 11.1373 14.9732 11.2344 14.7497 11.3805C14.527 11.6056 14.3821 11.8966 14.3385 12.2103C14.3385 12.32 14.3395 12.3405 14.4697 12.3405H16.9005C17.0205 12.3405 17.0205 12.3405 17.0103 12.1897C16.9988 12.0013 16.9464 11.8174 16.8585 11.6503M18 2H6C4.93913 2 3.92172 2.42143 3.17157 3.17157C2.42143 3.92172 2 4.93913 2 6V18C2 19.0609 2.42143 20.0783 3.17157 20.8284C3.92172 21.5786 4.93913 22 6 22H18C19.0609 22 20.0783 21.5786 20.8284 20.8284C21.5786 20.0783 22 19.0609 22 18V6C22 4.93913 21.5786 3.92172 20.8284 3.17157C20.0783 2.42143 19.0609 2 18 2ZM14.08 8.36923C14.08 8.29026 14.08 8.25949 14.1703 8.25949H17.4103V9.10051C17.4103 9.10051 17.4133 9.16 17.36 9.16H14.2205C14.08 9.16 14.08 9.16 14.08 9.02051V8.36923ZM11.08 15.72C9.84923 16.3897 7.78051 16.12 5.33026 16.12V7.82974H9.24C10.24 7.82974 11.4297 8.08 11.7497 9.13949C11.9159 9.60224 11.9058 10.11 11.7213 10.5657C11.5369 11.0215 11.191 11.3933 10.7497 11.6103C11.1565 11.7608 11.5116 12.0246 11.773 12.3707C12.0344 12.7167 12.1912 13.1304 12.2249 13.5627C12.2586 13.9951 12.1677 14.4281 11.9629 14.8104C11.7582 15.1927 11.4483 15.5083 11.0697 15.72H11.08ZM18.5303 13.36H14.5303C14.4205 13.36 14.32 13.4195 14.3395 13.56C14.4595 14.1497 14.7292 14.7703 15.3405 14.8605C15.6633 14.9566 16.0089 14.9418 16.3223 14.8186C16.6357 14.6953 16.8989 14.4707 17.0697 14.1805C17.0697 14.1805 17.12 14.12 17.1497 14.12H18.4503C18.4503 14.12 18.5303 14.12 18.5097 14.1897C18.3726 14.5781 18.1696 14.94 17.9097 15.2595C17.5622 15.5915 17.1427 15.8389 16.684 15.9826C16.2253 16.1263 15.7397 16.1623 15.2648 16.0879C14.7899 16.0135 14.3386 15.8307 13.9458 15.5536C13.553 15.2765 13.2294 14.9127 13 14.4903C12.8589 14.2086 12.771 13.9033 12.7405 13.5897C12.5621 12.8016 12.6985 11.975 13.1205 11.2859C13.5425 10.5969 14.2169 10.0998 15 9.90051C17.2697 9.41026 18.7097 10.9703 18.7097 13.1703C18.7131 13.196 18.7105 13.2221 18.7022 13.2467C18.6938 13.2712 18.6799 13.2935 18.6616 13.3119C18.6433 13.3302 18.621 13.3441 18.5964 13.3524C18.5719 13.3608 18.5457 13.3634 18.52 13.36H18.5303ZM16.2903 11.1395C16.0329 11.0681 15.7631 11.0534 15.4995 11.0964C15.2359 11.1374 15 11.1877 14.76 11.3805C14.52 11.5723 14.3928 11.8964 14.3497 12.2103C14.3497 12.32 14.3497 12.3405 14.48 12.3405H16.9005C17.0205 12.3405 17.0205 12.3405 17.0103 12.1897C16.9988 12.0013 16.9484 11.8174 16.8605 11.6503C16.8083 11.527 16.7289 11.4171 16.6285 11.3287C16.528 11.2403 16.4089 11.1756 16.28 11.1395H16.2903Z" fill="#0E53BE"/>
</svg>
