<svg width="379" height="347" viewBox="0 0 379 347" fill="none" xmlns="http://www.w3.org/2000/svg">
<g clip-path="url(#clip0_492_162)">
<path d="M376.1 296.9L179.1 100L181.9 97.2C185.6 93.5 185.6 87.5 181.9 83.8L171.6 73.5C167.9 69.8 167.9 63.8 171.6 60.1L214.8 16.9C221 11 216.9 0.5 208.3 0.5H170.1C137.2 0.5 106.3 13.3 83 36.6L35.9 83.8C32.4 87.3 31.8 93.1 36.3 97.6L35.5 98.4C31 93.9 25.2 94.5 21.7 98L2.79999 116.9C-0.900006 120.6 -0.900006 126.6 2.79999 130.3L45.4 172.9C49.1 176.6 55.1 176.6 58.8 172.9L77.7 154C81.2 150.5 81.8 144.7 77.3 140.2L78.1 139.4C82.6 143.9 88.4 143.3 91.9 139.8L102.2 129.5C105.9 125.8 111.9 125.8 115.6 129.5L125.9 139.8C129.6 143.5 135.6 143.5 139.3 139.8L141.8 137.3L329.3 343.1C332.9 347.1 339.2 347.2 343 343.4L376.2 310.2C379.8 306.6 379.8 300.6 376.1 296.9ZM42.2 111.8L49.7 104.3L71.4 126L63.9 133.5L42.2 111.8ZM32.9 115.8L20.7 128L16.3 123.6L28.5 111.4L32.9 115.8ZM36.2 119.2L56.5 139.5L44.3 151.7L24 131.4L36.2 119.2ZM59.9 142.9L64.4 147.3L52.2 159.5L47.8 155.1L59.9 142.9ZM49.3 90.5L53.7 86.1L89.6 122L85.2 126.4L49.3 90.5ZM93.1 118.7L57.1 82.7L93.2 46.6C113.8 26 141.1 14.7 170.2 14.7H196.9L161.6 50C152.7 58.9 152.5 73.3 160.8 82.5L124.7 118.6C115.6 110.5 102.2 110.5 93.1 118.7ZM164.1 86L168.6 90.4L132.7 126.3L128.3 121.9L164.1 86ZM260.7 246.8H285.6L295.1 256.3H269.4L260.7 246.8ZM282.2 270.4H306.8L316.3 279.9H290.9L282.2 270.4ZM303.8 294.1H330.5L340 303.6H312.4L303.8 294.1ZM345.7 308.3C347.8 308.3 348.9 305.7 347.4 304.3L333.2 290.1C332.8 289.7 332.2 289.4 331.5 289.4H299.5L295.2 284.7H322.1C324.2 284.7 325.3 282.1 323.8 280.7L309.6 266.5C309.2 266.1 308.6 265.8 307.9 265.8H278L273.7 261.1H300.8C302.9 261.1 304 258.5 302.5 257.1L288.3 242.9C287.9 242.5 287.3 242.2 286.6 242.2H256.4L148.6 123.8L153.2 119.2L175.9 141.9C176.8 142.8 178.3 142.8 179.2 141.9C180.1 141 180.1 139.5 179.2 138.6L156.5 115.9L165.7 106.7L286.9 227.9H268.5L207.6 167C206.7 166.1 205.2 166.1 204.3 167C203.4 167.9 203.4 169.4 204.3 170.3L265.9 231.9C266.3 232.3 266.9 232.6 267.6 232.6H291.7L362.7 303.6L336.4 329.9L316.8 308.3H345.7ZM198.2 157.5C199.1 158.4 199.1 159.9 198.2 160.8C197.3 161.7 195.8 161.7 194.9 160.8L185.4 151.3C184.5 150.4 184.5 148.9 185.4 148C186.3 147.1 187.8 147.1 188.7 148L198.2 157.5Z" fill="#0E53BE"/>
</g>
<defs>
<clipPath id="clip0_492_162">
<rect width="378.9" height="345.7" fill="white" transform="translate(0 0.5)"/>
</clipPath>
</defs>
</svg>
