<?xml version="1.0" encoding="utf-8"?>
<!-- Generator: Adobe Illustrator 24.1.1, SVG Export Plug-In . SVG Version: 6.00 Build 0)  -->
<svg version="1.1" id="Layer_1" xmlns="http://www.w3.org/2000/svg" xmlns:xlink="http://www.w3.org/1999/xlink" x="0px" y="0px"
	 viewBox="0 0 378.9 345.7" style="enable-background:new 0 0 378.9 345.7;" xml:space="preserve">
<style type="text/css">
	.st0{fill:#007AFB;}
</style>
<path class="st0" d="M376.1,296.4l-197-196.9l2.8-2.8c3.7-3.7,3.7-9.7,0-13.4L171.6,73c-3.7-3.7-3.7-9.7,0-13.4l43.2-43.2
	c6.2-5.9,2.1-16.4-6.5-16.4h-38.2c-32.9,0-63.8,12.8-87.1,36.1L35.9,83.3c-3.5,3.5-4.1,9.3,0.4,13.8l-0.8,0.8
	c-4.5-4.5-10.3-3.9-13.8-0.4L2.8,116.4c-3.7,3.7-3.7,9.7,0,13.4l42.6,42.6c3.7,3.7,9.7,3.7,13.4,0l18.9-18.9
	c3.5-3.5,4.1-9.3-0.4-13.8l0.8-0.8c4.5,4.5,10.3,3.9,13.8,0.4l10.3-10.3c3.7-3.7,9.7-3.7,13.4,0l10.3,10.3c3.7,3.7,9.7,3.7,13.4,0
	l2.5-2.5l187.5,205.8c3.6,4,9.9,4.1,13.7,0.3l33.2-33.2C379.8,306.1,379.8,300.1,376.1,296.4L376.1,296.4z M42.2,111.3l7.5-7.5
	l21.7,21.7l-7.5,7.5L42.2,111.3z M32.9,115.3l-12.2,12.2l-4.4-4.4l12.2-12.2L32.9,115.3z M36.2,118.7L56.5,139l-12.2,12.2L24,130.9
	L36.2,118.7z M59.9,142.4l4.5,4.4l-12.2,12.2l-4.4-4.4L59.9,142.4z M49.3,90l4.4-4.4l35.9,35.9l-4.4,4.4L49.3,90z M93.1,118.2
	l-36-36l36.1-36.1c20.6-20.6,47.9-31.9,77-31.9h26.7l-35.3,35.3c-8.9,8.9-9.1,23.3-0.8,32.5l-36.1,36.1
	C115.6,110,102.2,110,93.1,118.2L93.1,118.2z M164.1,85.5l4.5,4.4l-35.9,35.9l-4.4-4.4L164.1,85.5z M260.7,246.3h24.9l9.5,9.5h-25.7
	L260.7,246.3z M282.2,269.9h24.6l9.5,9.5h-25.4L282.2,269.9z M303.8,293.6h26.7l9.5,9.5h-27.6L303.8,293.6z M345.7,307.8
	c2.1,0,3.2-2.6,1.7-4l-14.2-14.2c-0.4-0.4-1-0.7-1.7-0.7h-32l-4.3-4.7l26.9,0c2.1,0,3.2-2.6,1.7-4l-14.2-14.2
	c-0.4-0.4-1-0.7-1.7-0.7h-29.9l-4.3-4.7l27.1,0c2.1,0,3.2-2.6,1.7-4l-14.2-14.2c-0.4-0.4-1-0.7-1.7-0.7h-30.2L148.6,123.3l4.6-4.6
	l22.7,22.7c0.9,0.9,2.4,0.9,3.3,0c0.9-0.9,0.9-2.4,0-3.3l-22.7-22.7l9.2-9.2l121.2,121.2h-18.4l-60.9-60.9c-0.9-0.9-2.4-0.9-3.3,0
	c-0.9,0.9-0.9,2.4,0,3.3l61.6,61.6c0.4,0.4,1,0.7,1.7,0.7h24.1l71,71l-26.3,26.3l-19.6-21.6L345.7,307.8z M198.2,157
	c0.9,0.9,0.9,2.4,0,3.3c-0.9,0.9-2.4,0.9-3.3,0l-9.5-9.5c-0.9-0.9-0.9-2.4,0-3.3s2.4-0.9,3.3,0L198.2,157z"/>
</svg>
