<svg width="46" height="46" viewBox="0 0 46 46" fill="none" xmlns="http://www.w3.org/2000/svg">
<path d="M36.668 6.49219H8.54297C7.79705 6.49219 7.08168 6.7885 6.55423 7.31595C6.02678 7.8434 5.73047 8.55877 5.73047 9.30469V37.4297C5.73047 38.1756 6.02678 38.891 6.55423 39.4184C7.08168 39.9459 7.79705 40.2422 8.54297 40.2422H36.668C37.4139 40.2422 38.1293 39.9459 38.6567 39.4184C39.1842 38.891 39.4805 38.1756 39.4805 37.4297V9.30469C39.4805 8.55877 39.1842 7.8434 38.6567 7.31595C38.1293 6.7885 37.4139 6.49219 36.668 6.49219ZM15.5742 28.9922C15.8523 28.9922 16.1242 29.0747 16.3555 29.2292C16.5867 29.3837 16.767 29.6033 16.8734 29.8603C16.9799 30.1172 17.0077 30.4 16.9534 30.6728C16.8992 30.9456 16.7653 31.1961 16.5686 31.3928C16.3719 31.5895 16.1214 31.7234 15.8486 31.7777C15.5758 31.8319 15.293 31.8041 15.0361 31.6976C14.7791 31.5912 14.5595 31.411 14.405 31.1797C14.2504 30.9485 14.168 30.6766 14.168 30.3984C14.168 30.0255 14.3161 29.6678 14.5799 29.4041C14.8436 29.1403 15.2013 28.9922 15.5742 28.9922ZM8.54297 9.30469H14.168V26.4223C13.2297 26.754 12.4389 27.4067 11.9354 28.2651C11.4318 29.1235 11.2479 30.1323 11.4162 31.1131C11.5845 32.094 12.0941 32.9838 12.855 33.6252C13.6159 34.2667 14.579 34.6185 15.5742 34.6185C16.5694 34.6185 17.5325 34.2667 18.2934 33.6252C19.0543 32.9838 19.5639 32.094 19.7322 31.1131C19.9005 30.1323 19.7166 29.1235 19.2131 28.2651C18.7095 27.4067 17.9187 26.754 16.9805 26.4223V21.1365L25.418 29.574V37.4297H8.54297V9.30469ZM36.668 37.4297H28.2305V28.9922C28.2306 28.8075 28.1944 28.6245 28.1238 28.4538C28.0532 28.2831 27.9497 28.128 27.8191 27.9973L16.9805 17.1604V9.30469H22.6055V13.5234C22.6053 13.7082 22.6416 13.8911 22.7122 14.0618C22.7827 14.2325 22.8862 14.3877 23.0168 14.5184L25.8293 17.3309C25.5569 17.898 25.4163 18.5193 25.418 19.1484C25.418 19.9828 25.6654 20.7985 26.129 21.4922C26.5925 22.186 27.2514 22.7267 28.0223 23.0461C28.7931 23.3654 29.6414 23.4489 30.4598 23.2861C31.2781 23.1233 32.0298 22.7215 32.6198 22.1315C33.2098 21.5415 33.6116 20.7898 33.7744 19.9715C33.9372 19.1531 33.8536 18.3049 33.5343 17.534C33.215 16.7631 32.6743 16.1042 31.9805 15.6407C31.2868 15.1771 30.4711 14.9297 29.6367 14.9297C29.0075 14.9286 28.3861 15.0698 27.8191 15.3428L25.418 12.9416V9.30469H36.668V37.4297ZM29.6367 17.7422C29.9148 17.7422 30.1867 17.8247 30.418 17.9792C30.6492 18.1337 30.8295 18.3533 30.9359 18.6103C31.0424 18.8672 31.0702 19.15 31.0159 19.4228C30.9617 19.6956 30.8278 19.9461 30.6311 20.1428C30.4344 20.3395 30.1839 20.4734 29.9111 20.5277C29.6383 20.5819 29.3555 20.5541 29.0986 20.4476C28.8416 20.3412 28.622 20.161 28.4675 19.9297C28.3129 19.6985 28.2305 19.4266 28.2305 19.1484C28.2305 18.7755 28.3786 18.4178 28.6423 18.1541C28.9061 17.8903 29.2638 17.7422 29.6367 17.7422Z" fill="#0E53BE"/>
</svg>
