<?xml version="1.0" encoding="utf-8"?>
<!-- Generator: Adobe Illustrator 24.1.1, SVG Export Plug-In . SVG Version: 6.00 Build 0)  -->
<svg version="1.1" id="Layer_1" xmlns="http://www.w3.org/2000/svg" xmlns:xlink="http://www.w3.org/1999/xlink" x="0px" y="0px"
	 viewBox="0 0 458.8 458.8" style="enable-background:new 0 0 458.8 458.8;" xml:space="preserve">
<style type="text/css">
	.st0{fill:#007AFB;}
</style>
<g>
	<path class="st0" d="M228.3,214.6c-19.6,0-38.4,7.8-52.3,21.7c-13.9,13.9-21.7,32.7-21.7,52.3s7.8,38.4,21.7,52.3
		c13.9,13.9,32.7,21.7,52.3,21.7s38.4-7.8,52.3-21.7c13.9-13.9,21.7-32.7,21.7-52.3c0-19.6-7.8-38.4-21.7-52.3
		C266.8,222.4,248,214.6,228.3,214.6z M228.3,347.8c-15.7,0-30.8-6.2-41.9-17.3c-11.1-11.1-17.3-26.2-17.3-41.9
		c0-15.7,6.2-30.8,17.3-41.9c11.1-11.1,26.2-17.3,41.9-17.3c15.7,0,30.8,6.2,41.9,17.3c11.1,11.1,17.3,26.2,17.3,41.9
		c0,15.7-6.3,30.7-17.4,41.8C259.1,341.5,244,347.8,228.3,347.8z"/>
	<path class="st0" d="M236.8,252v-7.8H222v7.8c-7.5,1.2-13.8,6.2-16.7,13.2c-3,6.9-2.2,14.9,2.1,21.2c4.3,6.2,11.4,9.9,19,9.6h6.2
		c2.1-0.2,4.1,0.5,5.6,1.9c1.5,1.4,2.4,3.4,2.4,5.5c0,2.1-0.9,4-2.4,5.5c-1.5,1.4-3.6,2.1-5.6,1.9h-6.2c-4.3,0.2-7.8-3.1-8-7.4v-3
		h-14.8v3c0.1,5.2,1.9,10.2,5.3,14.2c3.4,4,8,6.6,13.2,7.6v7.8h14.8v-7.8c7.5-1.2,13.8-6.2,16.7-13.2c3-6.9,2.2-14.9-2.1-21.2
		c-4.3-6.2-11.4-9.9-19-9.6h-6.2c-2.1,0.2-4.1-0.5-5.6-1.9c-1.5-1.4-2.4-3.4-2.4-5.5c0-2.1,0.9-4,2.4-5.5s3.6-2.1,5.6-1.9h6.2
		c4.3-0.2,7.8,3.1,8,7.4v3h14.8l0-3c-0.1-5.2-1.9-10.2-5.3-14.2C246.6,255.6,241.9,252.9,236.8,252L236.8,252z"/>
	<path class="st0" d="M333,177.6H125.8c-5.9,0-11.5,2.3-15.7,6.5c-4.2,4.2-6.5,9.8-6.5,15.7v190.3l-35.9,57.4
		c-1.4,2.3-1.5,5.2-0.2,7.5c1.3,2.4,3.8,3.8,6.5,3.8h310.8c2.7,0,5.2-1.5,6.5-3.8c1.3-2.4,1.2-5.2-0.2-7.5l-35.9-57.4V199.8
		c0-5.9-2.3-11.5-6.5-15.7C344.5,179.9,338.9,177.6,333,177.6L333,177.6z M118.4,199.8c0-4.1,3.3-7.4,7.4-7.4H333
		c4.1,0,7.4,3.3,7.4,7.4v185h-222L118.4,199.8z M371.4,444H87.4l27.7-44.4h228.6L371.4,444z"/>
	<path class="st0" d="M155.4,414.4h148v14.8h-148V414.4z"/>
	<path class="st0" d="M444,0H310.8c-3.9,0-7.7,1.6-10.5,4.3c-2.8,2.8-4.3,6.5-4.3,10.5v103.6c0,3.9,1.6,7.7,4.3,10.5
		s6.5,4.3,10.5,4.3H444c3.9,0,7.7-1.6,10.5-4.3c2.8-2.8,4.3-6.5,4.3-10.5V14.8c0-3.9-1.6-7.7-4.3-10.5C451.7,1.6,447.9,0,444,0z
		 M310.8,118.4V14.8H444l0,103.6H310.8z"/>
	<path class="st0" d="M14.8,133.2H148c3.9,0,7.7-1.6,10.5-4.3c2.8-2.8,4.3-6.5,4.3-10.5V14.8c0-3.9-1.6-7.7-4.3-10.5
		C155.7,1.6,151.9,0,148,0H14.8C10.9,0,7.1,1.6,4.3,4.3C1.6,7.1,0,10.9,0,14.8v103.6c0,3.9,1.6,7.7,4.3,10.5
		C7.1,131.6,10.9,133.2,14.8,133.2L14.8,133.2z M14.8,14.8H148l0,103.6H14.8L14.8,14.8z"/>
	<path class="st0" d="M355.2,59.2H370v44.4h-14.8L355.2,59.2z"/>
	<path class="st0" d="M384.8,44.4h14.8v59.2h-14.8V44.4z"/>
	<path class="st0" d="M414.4,29.6h14.8v74h-14.8V29.6z"/>
	<path class="st0" d="M325.6,74h14.8v29.6h-14.8V74z"/>
	<path class="st0" d="M89.1,72.3L63.6,53.3c-2.2-1.7-5.2-2-7.7-0.7L26.3,67.4l6.6,13.2l25.5-12.8l25.9,19.5c2.5,1.9,5.9,2,8.5,0.2
		L137.3,58l-8.2-12.3L89.1,72.3z"/>
	<path class="st0" d="M399.6,148h14.8v14.8h-14.8V148z"/>
	<path class="st0" d="M370,296h14.8v14.8H370V296z"/>
	<path class="st0" d="M399.6,296h14.8v14.8h-14.8V296z"/>
	<path class="st0" d="M399.6,266.4h14.8v14.8h-14.8V266.4z"/>
	<path class="st0" d="M399.6,236.8h14.8v14.8h-14.8V236.8z"/>
	<path class="st0" d="M399.6,207.2h14.8V222h-14.8V207.2z"/>
	<path class="st0" d="M399.6,177.6h14.8v14.8h-14.8V177.6z"/>
	<path class="st0" d="M44.4,148h14.8v14.8H44.4V148z"/>
	<path class="st0" d="M74,296h14.8v14.8H74V296z"/>
	<path class="st0" d="M44.4,296h14.8v14.8H44.4V296z"/>
	<path class="st0" d="M44.4,266.4h14.8v14.8H44.4V266.4z"/>
	<path class="st0" d="M44.4,236.8h14.8v14.8H44.4V236.8z"/>
	<path class="st0" d="M44.4,207.2h14.8V222H44.4V207.2z"/>
	<path class="st0" d="M44.4,177.6h14.8v14.8H44.4V177.6z"/>
</g>
</svg>
