<svg width="80" height="80" viewBox="0 0 80 80" fill="none" xmlns="http://www.w3.org/2000/svg">
<path d="M7.44246 63.6424C7.77398 63.6424 8.09192 63.5107 8.32634 63.2762C8.56076 63.0418 8.69246 62.7239 8.69246 62.3924V59.5924C8.69246 58.1924 8.17246 56.8549 7.22996 55.8224L6.32496 54.8324C6.21606 54.705 6.08264 54.6007 5.93265 54.5259C5.78266 54.4511 5.61916 54.4073 5.45187 54.3969C5.28458 54.3866 5.11692 54.41 4.95886 54.4657C4.80079 54.5215 4.65556 54.6085 4.5318 54.7215C4.40804 54.8346 4.30827 54.9713 4.23843 55.1237C4.16859 55.2761 4.13011 55.4409 4.12528 55.6085C4.12044 55.776 4.14935 55.9428 4.21028 56.0989C4.27121 56.2551 4.36292 56.3974 4.47996 56.5174L5.38496 57.5074C5.90496 58.0799 6.19496 58.8199 6.19496 59.5924V62.3924C6.19246 63.0824 6.74996 63.6424 7.44246 63.6424Z" fill="#0057B3"/>
<path d="M1.25 63.6422C1.58152 63.6422 1.89946 63.5105 2.13388 63.276C2.3683 63.0416 2.5 62.7237 2.5 62.3922V54.6072C2.5 53.0522 3.4775 51.6421 4.935 51.0971L7.43 50.1596C8.3671 51.2504 9.52848 52.1262 10.8349 52.7272C12.1413 53.3282 13.562 53.6403 15 53.6422C16.4376 53.6401 17.8579 53.3279 19.1639 52.7269C20.4698 52.1259 21.6308 51.2502 22.5675 50.1596L24.7075 50.9622C24.0116 51.6218 23.4571 52.4161 23.0776 53.2967C22.6981 54.1773 22.5016 55.1258 22.5 56.0846V62.3896C22.5 62.7212 22.6317 63.0391 22.8661 63.2735C23.1005 63.508 23.4185 63.6396 23.75 63.6396C24.0815 63.6396 24.3995 63.508 24.6339 63.2735C24.8683 63.0391 25 62.7212 25 62.3896V56.0846C25 54.4697 25.8175 52.9972 27.1875 52.1422L32.745 48.6772C34.635 50.6497 37.2425 51.8496 39.9975 51.8496C42.7525 51.8496 45.3575 50.6497 47.2475 48.6772L52.8075 52.1397C54.18 52.9972 55 54.4721 55 56.0871V62.3922C55 62.7237 55.1317 63.0416 55.3661 63.276C55.6005 63.5105 55.9185 63.6422 56.25 63.6422C56.5815 63.6422 56.8995 63.5105 57.1339 63.276C57.3683 63.0416 57.5 62.7237 57.5 62.3922V56.0871C57.5 54.1096 56.6775 52.2946 55.29 50.9646L57.43 50.1622C58.3671 51.2529 59.5285 52.1287 60.8349 52.7297C62.1413 53.3307 63.562 53.6427 65 53.6446C66.4376 53.6426 67.8579 53.3304 69.1638 52.7294C70.4698 52.1284 71.6308 51.2527 72.5675 50.1622L75.065 51.0997C76.5225 51.6422 77.5 53.0522 77.5 54.6072V62.3922C77.5 62.7237 77.6317 63.0416 77.8661 63.276C78.1005 63.5105 78.4185 63.6422 78.75 63.6422C79.0815 63.6422 79.3995 63.5105 79.6339 63.276C79.8683 63.0416 80 62.7237 80 62.3922V54.6072C79.9963 53.3358 79.6066 52.0955 78.8825 51.0504C78.1584 50.0053 77.1341 49.2048 75.945 48.7547L70 46.5247V43.6446C70.7828 42.9474 71.4098 42.093 71.8402 41.1372C72.2705 40.1813 72.4945 39.1454 72.4975 38.0971V35.7846C72.6359 35.635 72.734 35.4526 72.7825 35.2546L73.9475 29.8496C74.155 28.7146 73.9025 27.5721 73.24 26.6271C72.5775 25.6821 71.585 25.0596 70.4475 24.8696L63.3225 23.6821C62.2748 23.5071 61.1997 23.7355 60.3137 24.3214C59.4277 24.9073 58.7966 25.8071 58.5475 26.8396C57.6635 27.1236 56.9185 27.7295 56.4605 28.5372C56.0025 29.3449 55.8649 30.2952 56.075 31.1996L57.2025 35.3171C57.2609 35.5007 57.362 35.6678 57.4975 35.8046V38.0921C57.4975 40.3021 58.475 42.2696 60 43.6446V46.5196L54.06 48.7496C53.7063 48.8809 53.3657 49.045 53.0425 49.2396C53.0175 49.2546 53.0025 49.2796 52.9775 49.2971L51.6875 48.4947C52.5099 48.1079 53.1843 47.4642 53.6087 46.6605C54.033 45.8568 54.1844 44.9369 54.04 44.0396C53.4356 40.2672 53.1313 36.4527 53.13 32.6321V28.4921C53.126 25.0349 51.7509 21.7205 49.3063 19.2759C46.8617 16.8312 43.5472 15.4561 40.09 15.4521C36.6328 15.4561 33.3183 16.8312 30.8737 19.2759C28.4291 21.7205 27.054 25.0349 27.05 28.4921V32.6346C27.05 36.4396 26.7425 40.2772 26.14 44.0422C25.945 45.2572 26.29 46.4921 27.0875 47.4296C27.455 47.8596 27.905 48.1947 28.395 48.4422L27.015 49.3022C26.99 49.2846 26.975 49.2571 26.9475 49.2396C26.628 49.0476 26.2916 48.8853 25.9425 48.7547L20 46.5247V43.6446C20.7828 42.9474 21.4098 42.093 21.8402 41.1372C22.2705 40.1813 22.4945 39.1454 22.4975 38.0971V35.7846C22.6359 35.635 22.734 35.4526 22.7825 35.2546L23.9475 29.8496C24.155 28.7146 23.9025 27.5721 23.24 26.6271C22.5775 25.6821 21.585 25.0596 20.4475 24.8696L13.325 23.6846C12.7217 23.5842 12.1037 23.6162 11.514 23.7785C10.9243 23.9408 10.3769 24.2296 9.91 24.6246C9.23 25.1996 8.7575 25.9671 8.5475 26.8421C7.66348 27.1261 6.91854 27.732 6.46052 28.5397C6.0025 29.3474 5.86489 30.2977 6.075 31.2021L7.2025 35.3196C7.26089 35.5032 7.36199 35.6703 7.4975 35.8071V38.0946C7.4975 40.3046 8.475 42.2721 10 43.6471V46.5221L4.0575 48.7521C2.86798 49.2026 1.84321 50.0035 1.11871 51.049C0.394213 52.0945 0.00411301 53.3352 0 54.6072L0 62.3922C0 62.7237 0.131696 63.0416 0.366117 63.276C0.600537 63.5105 0.918479 63.6422 1.25 63.6422ZM58.7425 29.6121C58.8542 29.473 58.9958 29.3607 59.1568 29.2837C59.3178 29.2067 59.494 29.1668 59.6725 29.1671C60.3625 29.1671 60.9225 28.5296 60.9225 27.8371C60.9211 27.5884 60.9742 27.3425 61.0781 27.1165C61.182 26.8905 61.3342 26.6901 61.5239 26.5292C61.7136 26.3683 61.9362 26.251 62.1761 26.1854C62.416 26.1199 62.6674 26.1076 62.9125 26.1496L70.0375 27.3371C70.2696 27.3748 70.4917 27.4589 70.6906 27.5843C70.8894 27.7097 71.061 27.874 71.195 28.0671C71.47 28.4571 71.5725 28.9321 71.495 29.3621L70.89 32.1696L70.485 31.6671C70.3681 31.5215 70.2201 31.404 70.0518 31.3231C69.8835 31.2422 69.6992 31.2 69.5125 31.1996H60.4475C60.2604 31.1996 60.0756 31.2416 59.9068 31.3225C59.7381 31.4034 59.5897 31.5212 59.4725 31.6671L58.965 32.2996L58.5 30.6096C58.4641 30.4358 58.4673 30.2561 58.5092 30.0837C58.5511 29.9112 58.6308 29.7501 58.7425 29.6121ZM59.9975 35.0121L61.0475 33.7021H68.915L69.9975 35.0446V38.0996C69.9957 39.1449 69.6652 40.1631 69.0527 41.0102C68.4403 41.8573 67.577 42.4903 66.585 42.8196L66.5325 42.8372C65.53 43.1621 64.4475 43.1621 63.445 42.8296L63.44 42.8272C62.9244 42.6556 62.4404 42.4006 62.0075 42.0722L61.985 42.0646C61.3698 41.6024 60.8701 41.0037 60.5252 40.3158C60.1804 39.6278 59.9997 38.8692 59.9975 38.0996V35.0121ZM61.69 48.5621C61.928 48.4726 62.133 48.3127 62.2777 48.1037C62.4225 47.8946 62.5 47.6464 62.5 47.3922V45.1596C62.6425 45.2121 62.7925 45.2322 62.935 45.2747C63.17 45.3421 63.3975 45.4171 63.6425 45.4621C63.975 45.5246 64.3125 45.5471 64.65 45.5646C64.7675 45.5696 64.8775 45.5996 64.9975 45.5996C65.105 45.5996 65.2025 45.5721 65.31 45.5671C65.665 45.5521 66.0175 45.5246 66.365 45.4596C66.5775 45.4196 66.78 45.3546 66.9875 45.2971C67.1575 45.2496 67.335 45.2222 67.5025 45.1622V47.3922C67.5025 47.6464 67.58 47.8946 67.7248 48.1037C67.8695 48.3127 68.0745 48.4726 68.3125 48.5621L70.015 49.1996C68.6412 50.4434 66.8556 51.1344 65.0025 51.1396C63.1275 51.1396 61.35 50.4272 59.9875 49.1996L61.69 48.5621ZM40 49.3521C38.1 49.3521 36.2875 48.5996 34.9 47.3371L36.235 46.5046C36.4123 46.3914 36.5574 46.2343 36.6563 46.0487C36.7553 45.863 36.8048 45.655 36.8 45.4446H36.8225V42.7596C37.815 43.1146 38.8675 43.3446 39.98 43.3446C41.1025 43.3446 42.165 43.1146 43.165 42.7521V45.4472H43.19C43.19 45.8647 43.3775 46.2722 43.7575 46.5072L45.0975 47.3421C43.7056 48.6198 41.8893 49.336 40 49.3521ZM33.0725 33.9321V32.3546C33.0725 30.3771 34.2475 28.6121 36.0025 27.7521C38.9333 29.4979 42.2786 30.426 45.69 30.4396H45.6925L46.285 30.4571C46.4925 30.4571 46.69 30.4896 46.89 30.5171V33.9321C46.89 37.7421 43.79 40.8421 39.9825 40.8421C36.175 40.8421 33.0725 37.7421 33.0725 33.9321ZM51.5725 44.4371C51.6121 44.6799 51.5983 44.9283 51.5322 45.1651C51.466 45.402 51.349 45.6215 51.1893 45.8086C51.0297 45.9956 50.8311 46.1456 50.6076 46.2481C50.3841 46.3506 50.1409 46.4032 49.895 46.4022H48.325L45.6675 44.7472V41.3772C46.8203 40.5069 47.7561 39.3818 48.4019 38.0898C49.0477 36.7979 49.3859 35.374 49.39 33.9296V31.7896C50.13 32.5621 50.5925 33.6071 50.5925 34.7596C50.5925 34.9621 50.6525 35.1471 50.7375 35.3171C50.8285 38.3714 51.1073 41.4172 51.5725 44.4371ZM29.55 32.6346V28.4921C29.55 22.6796 34.2775 17.9521 40.09 17.9521C45.9025 17.9521 50.63 22.6796 50.63 28.4921V29.5646C49.4294 28.5367 47.903 27.968 46.3225 27.9596L45.73 27.9421C42.1832 27.9514 38.7254 26.8315 35.8575 24.7446C35.725 24.6474 35.5746 24.5774 35.4149 24.5387C35.2552 24.5 35.0894 24.4933 34.9271 24.5191C34.7648 24.545 34.6092 24.6027 34.4694 24.689C34.3296 24.7754 34.2083 24.8886 34.1125 25.0221C34.0075 25.1686 33.9362 25.3364 33.9038 25.5136C33.8714 25.6908 33.8786 25.8731 33.925 26.0471C32.9713 26.7034 32.1782 27.5665 31.6046 28.5721C31.031 29.5776 30.6919 30.6997 30.6125 31.8546C30.6025 31.9196 30.5725 31.9796 30.5725 32.0496V33.9346C30.5725 36.9896 32.06 39.6847 34.3225 41.4046V44.7496L31.665 46.4046H30.2825C30.0367 46.4049 29.7937 46.3518 29.5705 46.2488C29.3473 46.1459 29.1492 45.9956 28.9898 45.8084C28.8305 45.6212 28.7137 45.4016 28.6477 45.1649C28.5817 44.9281 28.568 44.6798 28.6075 44.4371C29.235 40.5421 29.55 36.5696 29.55 32.6346ZM8.7425 29.6121C8.85423 29.473 8.99582 29.3607 9.15681 29.2837C9.31779 29.2067 9.49404 29.1668 9.6725 29.1671C10.3625 29.1671 10.9225 28.5296 10.9225 27.8371C10.9211 27.5884 10.9742 27.3425 11.0781 27.1165C11.182 26.8905 11.3342 26.6901 11.5239 26.5292C11.7136 26.3683 11.9362 26.251 12.1761 26.1854C12.416 26.1199 12.6674 26.1076 12.9125 26.1496L20.0375 27.3371C20.2696 27.3748 20.4917 27.4589 20.6906 27.5843C20.8894 27.7097 21.061 27.874 21.195 28.0671C21.47 28.4571 21.5725 28.9321 21.495 29.3621L20.89 32.1696L20.485 31.6671C20.3685 31.5211 20.2205 31.4033 20.0521 31.3223C19.8838 31.2414 19.6993 31.1994 19.5125 31.1996H10.4475C10.2604 31.1996 10.0756 31.2416 9.90683 31.3225C9.73808 31.4034 9.58965 31.5212 9.4725 31.6671L8.965 32.2996L8.5 30.6096C8.46412 30.4358 8.46727 30.2561 8.5092 30.0837C8.55114 29.9112 8.63082 29.7501 8.7425 29.6121ZM9.9975 35.0121L11.0475 33.7021H18.915L19.9975 35.0446V38.0996C19.9975 39.7246 19.2075 41.1546 18.005 42.0696L17.9975 42.0722C17.569 42.3971 17.0902 42.6496 16.58 42.8196L16.535 42.8347C15.5375 43.1597 14.4625 43.1596 13.4675 42.8372L13.4225 42.8221C12.9124 42.653 12.4336 42.4013 12.005 42.0771L11.9975 42.0746C11.3789 41.6125 10.8764 41.0128 10.5297 40.3229C10.183 39.6329 10.0016 38.8718 10 38.0996L9.9975 35.0121ZM11.69 48.5621C11.928 48.4726 12.133 48.3127 12.2777 48.1037C12.4225 47.8946 12.5 47.6464 12.5 47.3922V45.1622C12.6525 45.2171 12.815 45.2421 12.97 45.2871C13.1925 45.3496 13.41 45.4196 13.6375 45.4621C13.9725 45.5246 14.3125 45.5496 14.6525 45.5646C14.7675 45.5696 14.8775 45.5996 14.995 45.5996C15.1025 45.5996 15.205 45.5721 15.3125 45.5671C15.665 45.5521 16.015 45.5246 16.36 45.4621C16.585 45.4196 16.8 45.3496 17.0175 45.2871C17.1775 45.2421 17.3425 45.2171 17.5 45.1596V47.3922C17.5 47.6464 17.5775 47.8946 17.7223 48.1037C17.867 48.3127 18.072 48.4726 18.31 48.5621L20.0125 49.1996C18.6399 50.4455 16.8537 51.1377 15 51.1422C13.125 51.1422 11.3475 50.4296 9.985 49.2021L11.69 48.5621Z" fill="#0057B3"/>
<path d="M30.42 63.6422C30.7515 63.6422 31.0694 63.5105 31.3039 63.2761C31.5383 63.0416 31.67 62.7237 31.67 62.3922V58.8647C31.6714 57.3639 31.1103 55.9171 30.0975 54.8097C29.874 54.565 29.5626 54.4191 29.2316 54.4041C28.9005 54.3891 28.5771 54.5062 28.3325 54.7297C28.0878 54.9531 27.9419 55.2646 27.9269 55.5956C27.9119 55.9266 28.029 56.25 28.2525 56.4947C28.845 57.1447 29.17 57.9847 29.17 58.8647V62.3922C29.17 62.7237 29.3017 63.0416 29.5361 63.2761C29.7705 63.5105 30.0885 63.6422 30.42 63.6422ZM50.83 62.3922V58.8647C50.83 57.9847 51.155 57.1447 51.75 56.4972C51.9738 56.2522 52.0911 55.9283 52.076 55.5969C52.061 55.2654 51.915 54.9535 51.67 54.7297C51.5487 54.6189 51.4067 54.5331 51.2523 54.4771C51.0978 54.4212 50.9338 54.3962 50.7697 54.4036C50.4382 54.4186 50.1263 54.5647 49.9025 54.8097C48.8896 55.9171 48.3286 57.3639 48.33 58.8647V62.3922C48.33 62.7237 48.4617 63.0416 48.6961 63.2761C48.9305 63.5105 49.2485 63.6422 49.58 63.6422C49.9115 63.6422 50.2294 63.5105 50.4639 63.2761C50.6983 63.0416 50.83 62.7237 50.83 62.3922ZM73.8075 62.3922V59.5922C73.8075 58.8197 74.095 58.0797 74.6175 57.5072L75.5225 56.5172C75.6331 56.396 75.7188 56.2543 75.7747 56.1C75.8305 55.9458 75.8555 55.782 75.848 55.6181C75.8406 55.4542 75.801 55.2934 75.7314 55.1448C75.6618 54.9962 75.5636 54.8628 75.4425 54.7522C75.3213 54.6415 75.1796 54.5558 75.0253 54.5C74.8711 54.4441 74.7073 54.4192 74.5434 54.4266C74.3795 54.4341 74.2187 54.4737 74.0701 54.5433C73.9215 54.6129 73.7881 54.711 73.6775 54.8322L72.7725 55.8222C71.831 56.8519 71.3092 58.1969 71.31 59.5922V62.3922C71.3244 62.7137 71.4622 63.0173 71.6948 63.2397C71.9274 63.4622 72.2369 63.5863 72.5587 63.5863C72.8806 63.5863 73.19 63.4622 73.4226 63.2397C73.6552 63.0173 73.7931 62.7137 73.8075 62.3922Z" fill="#0057B3"/>
</svg>
