<?xml version="1.0" encoding="utf-8"?>
<!-- Generator: Adobe Illustrator 24.1.1, SVG Export Plug-In . SVG Version: 6.00 Build 0)  -->
<svg version="1.1" id="Layer_1" xmlns="http://www.w3.org/2000/svg" xmlns:xlink="http://www.w3.org/1999/xlink" x="0px" y="0px"
	 viewBox="0 0 394.7 321.6" style="enable-background:new 0 0 394.7 321.6;" xml:space="preserve">
<style type="text/css">
	.st0{fill:#007AFB;}
</style>
<path class="st0" d="M323.6,83.9C317.2,36.3,276.4,0,227.5,0c-39.2,0-74.7,24.1-89.6,59.8c-9.7-5.3-20.5-8-31.7-8
	c-37,0-67.1,30.1-67.1,67.1c0,0.7,0,1.4,0,2.1C16.4,126.7,0,147.2,0,171.5c0,28.8,23.4,52.1,52.1,52.1h34.8v77.5
	c0,5.6,2.3,10.7,5.9,14.4c0,0,0,0.1,0.1,0.1c0,0,0,0,0,0c3.7,3.7,8.9,6,14.5,6h193.6c11.3,0,20.5-9.2,20.5-20.5v-77.5h3.2
	c38.5,0,69.9-31.3,69.9-69.9C394.7,114.9,362.7,82.9,323.6,83.9L323.6,83.9z M102.7,178.3l61.4,58.5l-61.4,58.5V178.3z M175.5,247.7
	l14.5,13.9c4,3.8,9.1,5.7,14.2,5.7c5.1,0,10.2-1.9,14.1-5.7l14.6-13.9l61,58.2H114.5L175.5,247.7z M244.4,236.8l61.4-58.5v117.1
	L244.4,236.8z M207.5,250.2c-1.8,1.7-4.7,1.7-6.5,0l-86.5-82.4H294L207.5,250.2z M324.8,207.9h-3.2v-35.4c0-11.3-9.2-20.5-20.5-20.5
	H107.4c-11.3,0-20.5,9.2-20.5,20.5v35.4H52.1c-20,0-36.4-16.3-36.4-36.4c0-18.8,14.1-34.3,32.7-36.2c2.1-0.2,4.1-1.3,5.4-3
	c1.3-1.7,1.9-3.9,1.6-6c-0.4-2.9-0.6-5.2-0.6-7.5c0-28.3,23-51.3,51.3-51.3c11.3,0,22,3.6,31,10.5c2.1,1.6,4.8,2,7.2,1.2
	c2.5-0.8,4.4-2.8,5.1-5.3c10.1-34.3,42.1-58.3,77.9-58.3c43.2,0,78.8,33.8,81,77.1c0.1,2.2,1.1,4.3,2.8,5.7c1.7,1.4,3.9,2,6.1,1.8
	c2.8-0.4,5.1-0.6,7.3-0.6c29.8,0,54.1,24.3,54.1,54.1C378.9,183.6,354.6,207.9,324.8,207.9L324.8,207.9z"/>
</svg>
