<svg width="395" height="322" viewBox="0 0 395 322" fill="none" xmlns="http://www.w3.org/2000/svg">
<g clip-path="url(#clip0_493_336)">
<path d="M323.6 83.9C317.2 36.3 276.4 0 227.5 0C188.3 0 152.8 24.1 137.9 59.8C128.2 54.5 117.4 51.8 106.2 51.8C69.2 51.8 39.1 81.9 39.1 118.9C39.1 119.6 39.1 120.3 39.1 121C16.4 126.7 0 147.2 0 171.5C0 200.3 23.4 223.6 52.1 223.6H86.9V301.1C86.9 306.7 89.2 311.8 92.8 315.5C92.8 315.5 92.8 315.6 92.9 315.6C96.6 319.3 101.8 321.6 107.4 321.6H301C312.3 321.6 321.5 312.4 321.5 301.1V223.6H324.7C363.2 223.6 394.6 192.3 394.6 153.7C394.7 114.9 362.7 82.9 323.6 83.9ZM102.7 178.3L164.1 236.8L102.7 295.3V178.3ZM175.5 247.7L190 261.6C194 265.4 199.1 267.3 204.2 267.3C209.3 267.3 214.4 265.4 218.3 261.6L232.9 247.7L293.9 305.9H114.5L175.5 247.7ZM244.4 236.8L305.8 178.3V295.4L244.4 236.8ZM207.5 250.2C205.7 251.9 202.8 251.9 201 250.2L114.5 167.8H294L207.5 250.2ZM324.8 207.9H321.6V172.5C321.6 161.2 312.4 152 301.1 152H107.4C96.1 152 86.9 161.2 86.9 172.5V207.9H52.1C32.1 207.9 15.7 191.6 15.7 171.5C15.7 152.7 29.8 137.2 48.4 135.3C50.5 135.1 52.5 134 53.8 132.3C55.1 130.6 55.7 128.4 55.4 126.3C55 123.4 54.8 121.1 54.8 118.8C54.8 90.5 77.8 67.5 106.1 67.5C117.4 67.5 128.1 71.1 137.1 78C139.2 79.6 141.9 80 144.3 79.2C146.8 78.4 148.7 76.4 149.4 73.9C159.5 39.6 191.5 15.6 227.3 15.6C270.5 15.6 306.1 49.4 308.3 92.7C308.4 94.9 309.4 97 311.1 98.4C312.8 99.8 315 100.4 317.2 100.2C320 99.8 322.3 99.6 324.5 99.6C354.3 99.6 378.6 123.9 378.6 153.7C378.9 183.6 354.6 207.9 324.8 207.9Z" fill="#0E53BE"/>
</g>
<defs>
<clipPath id="clip0_493_336">
<rect width="394.7" height="321.6" fill="white"/>
</clipPath>
</defs>
</svg>
