<svg width="382" height="389" viewBox="0 0 382 389" fill="none" xmlns="http://www.w3.org/2000/svg">
<g clip-path="url(#clip0_493_1081)">
<path d="M318.3 109.4C316.9 107.5 317.4 105.1 319.2 103.7C321.1 102.3 323.5 102.8 324.9 104.6C326.3 106.5 325.8 108.9 324 110.3C322.1 111.8 319.7 111.3 318.3 109.4ZM307.9 125.5L298.9 132.1C299.4 133 299.4 134 299.8 134.9C300.3 138.7 300.3 142.5 298.9 145.8L307.9 152.4C316 146.7 326.8 145.8 334.9 151.9C340.1 155.7 343.4 160.9 344.4 167.1C345.3 173.3 343.9 179.4 340.6 184.6C336.8 189.8 331.6 193.1 325.4 194.1C324 194.1 322.6 194.6 321.6 194.6C316.9 194.6 312.1 193.2 308.3 190.3C303.1 186.5 299.8 181.3 298.8 175.1C298.3 171.3 298.3 167.5 299.7 164.2L290.7 157.6C286.4 160.4 281.7 162.3 277 162.3C272.3 162.3 267.5 160.9 263.7 158C258.5 154.2 255.2 149 254.2 142.8C253.3 136.6 254.7 130.5 258 125.3C261.8 120.1 267 116.8 273.2 115.8C279.4 114.9 285.5 116.3 290.7 119.6L291.2 120.1L300.2 113.5C299.3 110.2 298.8 106.4 299.3 102.6C300.2 96.4 303.6 91.2 308.8 87.4C319.2 79.8 333.9 82.7 341 93.1C344.8 98.3 345.7 104.5 344.8 110.6C343.9 116.8 340.5 122 335.3 125.8C331.5 128.6 326.8 130.1 322 130.1C320.6 130.1 319.2 130.1 318.2 129.6C314 129.3 310.7 127.9 307.9 125.5ZM314 112.2C315.4 114.1 317.3 115.5 319.7 116C322.1 116.5 324.4 116 326.3 114.6C328.2 113.2 329.6 111.3 330.1 108.9C330.6 106.5 330.1 104.2 328.7 102.3C326.8 99.9 324 98.5 321.6 98.5C319.7 98.5 317.8 99 316.4 99.9C314.5 101.3 313.1 103.2 312.6 105.6C312.1 108 313.1 110.3 314 112.2ZM285.6 137.3C285.1 134.9 283.7 133 281.8 131.6C280.4 130.7 278.5 130.2 276.6 130.2H275.2C272.8 130.7 270.9 132.1 269.5 134C268.1 135.9 267.6 138.3 268.1 140.6C268.6 142.9 270 144.9 271.9 146.3C276.2 149.1 281.4 148.2 284.2 143.9C285.1 142.1 285.6 139.7 285.6 137.3ZM312.6 172.4C313.1 174.8 314.5 176.7 316.4 178.1C318.3 179.5 320.7 180 323 179.5C325.4 179 327.3 177.6 328.7 175.7C330.1 173.8 330.6 171.4 330.1 169.1C329.6 166.7 328.2 164.8 326.3 163.4C324.9 162.5 323 162 321.1 162C318.3 162 315.4 163.4 313.5 165.8C313.1 167.6 312.1 170 312.6 172.4ZM324.9 172.9C326.3 171 325.8 168.6 324 167.2C322.1 165.8 319.7 166.3 318.3 168.1C316.9 170 317.4 172.4 319.2 173.8C321.1 175.2 323.5 174.8 324.9 172.9ZM303.6 228.7C306.4 228.7 309.8 228.7 312.6 228.2V283.1V285V285.9C312.6 286.4 312.6 286.4 312.1 286.8C312.1 287.3 311.6 287.3 311.6 287.7C311.6 288.1 311.1 288.2 311.1 288.6C310.6 289.1 310.6 289.1 310.2 289.5C310.2 289.5 310.2 290 309.7 290L215.9 385.2C215.4 385.7 215 386.1 214.5 386.6C214.5 386.6 214 386.6 214 387.1C213.5 387.1 213.5 387.6 213.1 387.6C212.7 387.6 212.6 387.6 212.2 388.1C211.7 388.1 211.7 388.1 211.3 388.6H209.4H56.9C25.6 388.8 0.5 363.2 0.5 331.5V57.3C0.5 25.6 25.6 0 56.9 0H256.8C285.2 0 308.9 21.8 312.7 49.3C309.9 48.8 307 48.8 304.2 48.8C300.4 48.8 297.1 49.3 293.8 49.3C290.5 31.8 275.3 18.5 256.9 18.5H56.8C36 18.5 19.4 35.6 19.4 56.9V331C19.4 351.8 36.5 369.4 56.8 369.4H199.8V307.4C199.8 288.9 214.5 274.2 233 274.2H294.1V228.7C297 228.7 300.3 228.7 303.6 228.7ZM280.9 293.1H233.1C225.5 293.1 218.9 299.7 218.9 307.3V355.6L280.9 293.1ZM381.7 138.8C381.7 181.9 346.7 216.9 303.6 216.9C260.5 216.9 225.5 181.9 225.5 138.8C225.5 95.7 260.5 60.7 303.6 60.7C346.7 60.6 381.7 95.7 381.7 138.8ZM367.5 138.8C367.5 103.8 338.6 74.9 303.6 74.9C268.6 74.9 239.7 103.8 239.7 138.8C239.7 173.8 268.6 202.7 303.6 202.7C338.6 202.7 367.5 174.3 367.5 138.8ZM180.9 241C182.3 242.4 184.2 242.9 186.1 242.9C188 242.9 189.9 242.4 191.3 241L238.2 194.1L191.3 147.2C188.5 144.4 184.2 144.4 181.4 147.2C178.6 150 178.6 154.3 181.4 157.1L218.3 194L181.4 230.9C178.1 233.5 178.1 238.2 180.9 241ZM132.2 147.3C129.4 144.5 125.1 144.5 122.3 147.3L75.4 194.2L122.3 241.1C123.7 242.5 125.6 243 127.5 243C129.4 243 131.3 242.5 132.7 241.1C135.5 238.3 135.5 234 132.7 231.2L95.8 194.3L132.7 157.4C135 154.9 135 150.1 132.2 147.3ZM163.9 129.8L135.5 255.3C134.6 259.1 136.9 262.9 140.7 263.8H142.1C145.4 263.8 148.3 261.4 149.2 258.1L177.6 132.6C178.5 128.8 176.2 125 172.4 124.1C168.6 123.6 164.8 126 163.9 129.8Z" fill="#0E53BE"/>
</g>
<defs>
<clipPath id="clip0_493_1081">
<rect width="381.2" height="388.8" fill="white" transform="translate(0.5)"/>
</clipPath>
</defs>
</svg>
