<svg width="45" height="45" viewBox="0 0 45 45" fill="none" xmlns="http://www.w3.org/2000/svg">
<path d="M12.1496 16.5499L5.00934 22.5L12.1496 28.4502C12.2956 28.5671 12.4168 28.7119 12.5061 28.8762C12.5954 29.0404 12.6511 29.2209 12.6699 29.4069C12.6887 29.593 12.6701 29.7809 12.6154 29.9597C12.5607 30.1385 12.4708 30.3046 12.3511 30.4482C12.2314 30.5919 12.0843 30.7102 11.9183 30.7963C11.7523 30.8824 11.5708 30.9346 11.3844 30.9497C11.1981 30.9648 11.0105 30.9426 10.8329 30.8844C10.6552 30.8262 10.4909 30.7331 10.3496 30.6106L1.91208 23.5793C1.75376 23.4474 1.62638 23.2822 1.53897 23.0955C1.45156 22.9089 1.40625 22.7053 1.40625 22.4992C1.40625 22.2931 1.45156 22.0895 1.53897 21.9028C1.62638 21.7161 1.75376 21.551 1.91208 21.419L10.3496 14.3877C10.6363 14.149 11.0061 14.034 11.3776 14.068C11.7491 14.1019 12.0919 14.2821 12.3306 14.5688C12.5693 14.8555 12.6844 15.2253 12.6504 15.5968C12.6164 15.9683 12.4363 16.3112 12.1496 16.5499ZM43.0871 21.419L34.6496 14.3877C34.5076 14.2696 34.3438 14.1805 34.1674 14.1256C33.991 14.0708 33.8055 14.0512 33.6216 14.068C33.4376 14.0848 33.2588 14.1377 33.0952 14.2236C32.9317 14.3095 32.7867 14.4268 32.6685 14.5688C32.4298 14.8555 32.3148 15.2253 32.3488 15.5968C32.3827 15.9683 32.5629 16.3112 32.8496 16.5499L39.9898 22.5L32.8496 28.4502C32.7036 28.5671 32.5824 28.7119 32.4931 28.8762C32.4037 29.0404 32.348 29.2209 32.3293 29.4069C32.3105 29.593 32.329 29.7809 32.3837 29.9597C32.4385 30.1385 32.5283 30.3046 32.648 30.4482C32.7677 30.5919 32.9149 30.7102 33.0809 30.7963C33.2468 30.8824 33.4283 30.9346 33.6147 30.9497C33.8011 30.9648 33.9886 30.9426 34.1663 30.8844C34.344 30.8262 34.5083 30.7331 34.6496 30.6106L43.0871 23.5793C43.2454 23.4474 43.3728 23.2822 43.4602 23.0955C43.5476 22.9089 43.5929 22.7053 43.5929 22.4992C43.5929 22.2931 43.5476 22.0895 43.4602 21.9028C43.3728 21.7161 43.2454 21.551 43.0871 21.419ZM28.6045 5.70942C28.4309 5.6464 28.2466 5.61818 28.0621 5.62639C27.8776 5.6346 27.6965 5.67906 27.5292 5.75725C27.3619 5.83543 27.2116 5.94581 27.087 6.08207C26.9623 6.21834 26.8657 6.37782 26.8027 6.55141L15.5527 37.4889C15.4894 37.6626 15.461 37.8471 15.4691 38.0318C15.4771 38.2165 15.5215 38.3977 15.5997 38.5653C15.6779 38.7328 15.7884 38.8832 15.9248 39.008C16.0612 39.1328 16.2209 39.2294 16.3947 39.2924C16.5488 39.3472 16.7111 39.3751 16.8746 39.375C17.1634 39.3751 17.4452 39.2861 17.6817 39.1204C17.9182 38.9547 18.0979 38.7201 18.1965 38.4487L29.4465 7.51118C29.5095 7.33759 29.5377 7.15328 29.5295 6.96879C29.5213 6.78429 29.4768 6.60322 29.3986 6.43591C29.3204 6.2686 29.2101 6.11833 29.0738 5.99368C28.9375 5.86903 28.7781 5.77244 28.6045 5.70942Z" fill="#0E53BE"/>
</svg>
