<?xml version="1.0" encoding="utf-8"?>
<!-- Generator: Adobe Illustrator 24.1.1, SVG Export Plug-In . SVG Version: 6.00 Build 0)  -->
<svg version="1.1" id="Layer_1" xmlns="http://www.w3.org/2000/svg" xmlns:xlink="http://www.w3.org/1999/xlink" x="0px" y="0px"
	 viewBox="0 0 381.2 388.8" style="enable-background:new 0 0 381.2 388.8;" xml:space="preserve">
<style type="text/css">
	.st0{fill:#007AFB;}
</style>
<path class="st0" d="M317.8,109.4c-1.4-1.9-0.9-4.3,0.9-5.7c1.9-1.4,4.3-0.9,5.7,0.9c1.4,1.9,0.9,4.3-0.9,5.7
	C321.6,111.8,319.2,111.3,317.8,109.4L317.8,109.4z M307.4,125.5l-9,6.6c0.5,0.9,0.5,1.9,0.9,2.8c0.5,3.8,0.5,7.6-0.9,10.9l9,6.6
	c8.1-5.7,18.9-6.6,27-0.5c5.2,3.8,8.5,9,9.5,15.2c0.9,6.2-0.5,12.3-3.8,17.5c-3.8,5.2-9,8.5-15.2,9.5c-1.4,0-2.8,0.5-3.8,0.5
	c-4.7,0-9.5-1.4-13.3-4.3c-5.2-3.8-8.5-9-9.5-15.2c-0.5-3.8-0.5-7.6,0.9-10.9l-9-6.6c-4.3,2.8-9,4.7-13.7,4.7
	c-4.7,0-9.5-1.4-13.3-4.3c-5.2-3.8-8.5-9-9.5-15.2c-0.9-6.2,0.5-12.3,3.8-17.5c3.8-5.2,9-8.5,15.2-9.5c6.2-0.9,12.3,0.5,17.5,3.8
	l0.5,0.5l9-6.6c-0.9-3.3-1.4-7.1-0.9-10.9c0.9-6.2,4.3-11.4,9.5-15.2c10.4-7.6,25.1-4.7,32.2,5.7c3.8,5.2,4.7,11.4,3.8,17.5
	c-0.9,6.2-4.3,11.4-9.5,15.2c-3.8,2.8-8.5,4.3-13.3,4.3c-1.4,0-2.8,0-3.8-0.5C313.5,129.3,310.2,127.9,307.4,125.5L307.4,125.5z
	 M313.5,112.2c1.4,1.9,3.3,3.3,5.7,3.8c2.4,0.5,4.7,0,6.6-1.4s3.3-3.3,3.8-5.7c0.5-2.4,0-4.7-1.4-6.6c-1.9-2.4-4.7-3.8-7.1-3.8
	c-1.9,0-3.8,0.5-5.2,1.4c-1.9,1.4-3.3,3.3-3.8,5.7C311.6,108,312.6,110.3,313.5,112.2L313.5,112.2z M285.1,137.3
	c-0.5-2.4-1.9-4.3-3.8-5.7c-1.4-0.9-3.3-1.4-5.2-1.4h-1.4c-2.4,0.5-4.3,1.9-5.7,3.8c-1.4,1.9-1.9,4.3-1.4,6.6s1.9,4.3,3.8,5.7
	c4.3,2.8,9.5,1.9,12.3-2.4C284.6,142.1,285.1,139.7,285.1,137.3L285.1,137.3z M312.1,172.4c0.5,2.4,1.9,4.3,3.8,5.7
	c1.9,1.4,4.3,1.9,6.6,1.4c2.4-0.5,4.3-1.9,5.7-3.8s1.9-4.3,1.4-6.6c-0.5-2.4-1.9-4.3-3.8-5.7c-1.4-0.9-3.3-1.4-5.2-1.4
	c-2.8,0-5.7,1.4-7.6,3.8C312.6,167.6,311.6,170,312.1,172.4L312.1,172.4z M324.4,172.9c1.4-1.9,0.9-4.3-0.9-5.7
	c-1.9-1.4-4.3-0.9-5.7,0.9c-1.4,1.9-0.9,4.3,0.9,5.7C320.6,175.2,323,174.8,324.4,172.9z M303.1,228.7c2.8,0,6.2,0,9-0.5v54.9v1.9
	v0.9c0,0.5,0,0.5-0.5,0.9c0,0.5-0.5,0.5-0.5,0.9s-0.5,0.5-0.5,0.9c-0.5,0.5-0.5,0.5-0.9,0.9c0,0,0,0.5-0.5,0.5l-93.8,95.2
	c-0.5,0.5-0.9,0.9-1.4,1.4c0,0-0.5,0-0.5,0.5c-0.5,0-0.5,0.5-0.9,0.5s-0.5,0-0.9,0.5c-0.5,0-0.5,0-0.9,0.5h-1.9l-152.5,0
	C25.1,388.8,0,363.2,0,331.5V57.3C0,25.6,25.1,0,56.4,0h199.9c28.4,0,52.1,21.8,55.9,49.3c-2.8-0.5-5.7-0.5-8.5-0.5
	c-3.8,0-7.1,0.5-10.4,0.5c-3.3-17.5-18.5-30.8-36.9-30.8H56.3c-20.8,0-37.4,17.1-37.4,38.4V331c0,20.8,17.1,38.4,37.4,38.4h143l0-62
	c0-18.5,14.7-33.2,33.2-33.2h61.1v-45.5C296.5,228.7,299.8,228.7,303.1,228.7L303.1,228.7z M280.4,293.1h-47.8
	c-7.6,0-14.2,6.6-14.2,14.2v48.3L280.4,293.1z M381.2,138.8c0,43.1-35,78.1-78.1,78.1s-78.1-35-78.1-78.1c0-43.1,35-78.1,78.1-78.1
	C346.2,60.6,381.2,95.7,381.2,138.8z M367,138.8c0-35-28.9-63.9-63.9-63.9c-35,0-63.9,28.9-63.9,63.9s28.9,63.9,63.9,63.9
	C338.1,202.7,367,174.3,367,138.8z M180.4,241c1.4,1.4,3.3,1.9,5.2,1.9s3.8-0.5,5.2-1.9l46.9-46.9l-46.9-46.9
	c-2.8-2.8-7.1-2.8-9.9,0s-2.8,7.1,0,9.9l36.9,36.9l-36.9,36.9C177.6,233.5,177.6,238.2,180.4,241L180.4,241z M131.7,147.3
	c-2.8-2.8-7.1-2.8-9.9,0l-46.9,46.9l46.9,46.9c1.4,1.4,3.3,1.9,5.2,1.9s3.8-0.5,5.2-1.9c2.8-2.8,2.8-7.1,0-9.9l-36.9-36.9l36.9-36.9
	C134.5,154.9,134.5,150.1,131.7,147.3L131.7,147.3z M163.4,129.8L135,255.3c-0.9,3.8,1.4,7.6,5.2,8.5h1.4c3.3,0,6.2-2.4,7.1-5.7
	l28.4-125.5c0.9-3.8-1.4-7.6-5.2-8.5C168.1,123.6,164.3,126,163.4,129.8L163.4,129.8z"/>
</svg>
