<?xml version="1.0" encoding="utf-8"?>
<!-- Generator: Adobe Illustrator 24.1.1, SVG Export Plug-In . SVG Version: 6.00 Build 0)  -->
<svg version="1.1" id="Layer_1" xmlns="http://www.w3.org/2000/svg" xmlns:xlink="http://www.w3.org/1999/xlink" x="0px" y="0px"
	 viewBox="0 0 414 426.2" style="enable-background:new 0 0 414 426.2;" xml:space="preserve">
<style type="text/css">
	.st0{fill:#007AFB;}
</style>
<g>
	<path class="st0" d="M406.3,93.2c-3.7-3.7-8.7-5.7-14-5.6c-18.6,0.6-33.3,16.2-32.7,34.9l1,31.1l-5.3,21.2
		c-6.4,0-12.7,2.3-17.6,7.2l-34.6,34.6l-12,2.1c-7.7,1.3-15.1,5.1-20.6,10.7l-23.8,23.8c-7,7-11,16.3-11.2,26.2l-0.9,39.5
		c-11.1,3.7-19.2,14.1-19.3,26.4l-0.6,51.7c-0.1,7.5,2.8,14.6,8.1,20c5.3,5.4,12.3,8.4,19.8,8.5l85.7,0.9h0.3
		c7.4,0,14.4-2.9,19.7-8.1c5.4-5.3,8.4-12.3,8.5-19.8l0.6-51.7c0.1-7.5-2.8-14.6-8-20c-3-3-6.5-5.3-10.4-6.7l0.2-1.2
		c1.3-8.8,5.3-16.7,11.6-23l40.2-40.2c10.3-10.3,16.8-23.8,18.3-38.2l4.3-40.5c0.3-1.5,0.5-3,0.5-4.6l0-0.1c0-0.1,0-0.1,0-0.2
		c0-0.3,0-0.5,0-0.8l-2.1-65.3C411.7,101.2,409.7,96.6,406.3,93.2L406.3,93.2z M343.2,346.6l-0.6,51.7c0,3.7-1.5,7.2-4.2,9.8
		c-2.7,2.6-6.3,3.8-9.9,4l-85.7-0.9c-3.7,0-7.2-1.5-9.8-4.2c-2.6-2.7-4-6.2-4-9.9l0.6-51.7c0.1-7.6,6.3-13.8,13.9-13.8h0.2l85.7,0.9
		c3.7,0,7.2,1.5,9.8,4.2C341.8,339.4,343.2,342.9,343.2,346.6L343.2,346.6z M380.8,245.6l-40.2,40.2c-8.4,8.4-13.8,19.1-15.6,31
		l-0.2,1.5l-75.9-0.8l0.8-37.8c0.1-6.2,2.7-12.1,7.1-16.5l23.8-23.8c3.5-3.5,8.1-5.9,13-6.7l14.2-2.5c0.5-0.1,1-0.2,1.4-0.4
		c0,0,0.1,0,0.1,0c0.9-0.4,1.6-0.9,2.3-1.5c0,0,0,0,0,0l36.2-36.2c4.1-4.1,10.7-4.1,14.8,0c4.1,4.1,4.1,10.7,0,14.8L321,248.4
		c-2.8,2.8-2.8,7.3,0,10c1.4,1.4,3.2,2.1,5,2.1c1.8,0,3.6-0.7,5-2.1l41.5-41.5c9.6-9.6,9.6-25.2,0-34.8c-1.1-1.1-2.4-2.1-3.7-3
		l5.7-23c0-0.1,0-0.2,0-0.2c0.1-0.2,0.1-0.5,0.1-0.7s0-0.5,0-0.7c0-0.1,0-0.2,0-0.2l-1-32.1c-0.3-10.8,8.2-19.9,18.9-20.2
		c1.4,0,2.7,0.5,3.6,1.4c0.6,0.6,1.4,1.7,1.4,3.2l2.1,64.8l-0.5,4.6c0,0.2,0,0.3-0.1,0.5l-4.2,39.6
		C393.9,227.1,388.8,237.6,380.8,245.6L380.8,245.6z"/>
	<path class="st0" d="M338.3,353.1c0,6.7-5.4,12.2-12.2,12.2c-6.7,0-12.2-5.4-12.2-12.2c0-6.7,5.4-12.2,12.2-12.2
		C332.9,340.9,338.3,346.4,338.3,353.1"/>
	<path class="st0" d="M2.1,106L0,171.4c0,0.3,0,0.6,0,0.8v0.1l0,0c0,1.6,0.2,3.1,0.5,4.7l4.3,40.5c1.5,14.4,8,27.9,18.3,38.2
		l40.2,40.2c6.3,6.3,10.3,14.2,11.6,23L75,320c-3.9,1.4-7.4,3.7-10.4,6.7c-5.3,5.4-8.1,12.5-8,20l0.6,51.7
		c0.1,7.5,3.1,14.5,8.5,19.8c5.3,5.2,12.3,8.1,19.7,8.1h0.3l85.7-0.9c7.5-0.1,14.5-3.1,19.8-8.5c5.3-5.4,8.1-12.5,8.1-20l-0.6-51.7
		c-0.1-12.3-8.2-22.7-19.3-26.4l-0.9-39.5c-0.2-9.9-4.2-19.2-11.2-26.2l-23.8-23.8c-5.6-5.6-12.9-9.3-20.6-10.6l-12-2.1L76.2,182
		c-4.8-4.8-11.2-7.2-17.6-7.2l-5.3-21.3l1-31.1c0.6-18.6-14.1-34.2-32.8-34.8c-5.2-0.2-10.3,1.9-14,5.6C4.2,96.6,2.3,101.2,2.1,106
		L2.1,106z M184.4,345.4l0.6,51.7c0,3.7-1.4,7.2-4,9.9c-2.6,2.7-6.1,4.2-9.8,4.2L85.4,412c-3.7-0.1-7.2-1.4-9.9-4
		c-2.7-2.6-4.2-6.1-4.2-9.8l-0.6-51.7c0-3.7,1.4-7.2,4-9.9c2.6-2.7,6.1-4.2,9.8-4.2l85.7-0.9h0.1C178,331.6,184.3,337.7,184.4,345.4
		L184.4,345.4z M17.7,103.3c0.9-0.9,2.1-1.4,3.5-1.4c10.8,0.4,19.3,9.4,18.9,20.2l-1,32.1c0,0.1,0,0.2,0,0.2c0,0.2,0,0.5,0,0.7
		s0.1,0.5,0.1,0.7c0,0.1,0,0.2,0,0.2l5.7,23c-1.3,0.9-2.5,1.9-3.7,3c-9.6,9.6-9.6,25.2,0,34.8l41.5,41.5c1.4,1.4,3.2,2.1,5,2.1
		c1.8,0,3.6-0.7,5-2.1c2.8-2.8,2.8-7.3,0-10l-41.5-41.5c-4.1-4.1-4.1-10.7,0-14.8c4.1-4.1,10.7-4.1,14.8,0l36.2,36.2c0,0,0,0,0,0
		c0.6,0.6,1.4,1.1,2.3,1.5c0,0,0.1,0,0.1,0c0.5,0.2,0.9,0.3,1.4,0.4l14.2,2.5c4.9,0.8,9.5,3.2,12.9,6.7l23.8,23.8
		c4.4,4.4,6.9,10.3,7.1,16.5l0.8,37.8l-75.9,0.8l-0.2-1.5c-1.8-11.8-7.2-22.5-15.6-30.9l-40.2-40.2c-8-8-13-18.5-14.2-29.6
		l-4.2-39.6c0-0.2,0-0.3-0.1-0.5l-0.5-4.6l2.1-64.7C16.3,104.9,17.1,103.9,17.7,103.3L17.7,103.3z"/>
	<path class="st0" d="M99.9,353.1c0,6.7-5.4,12.2-12.2,12.2s-12.2-5.4-12.2-12.2c0-6.7,5.4-12.2,12.2-12.2S99.9,346.4,99.9,353.1"/>
	<path class="st0" d="M207,162.2c28.5,0,51.7-23.2,51.7-51.7S235.5,58.8,207,58.8s-51.7,23.2-51.7,51.7
		C155.3,139,178.5,162.2,207,162.2z M207,73c20.7,0,37.5,16.8,37.5,37.5c0,20.7-16.8,37.5-37.5,37.5c-20.7,0-37.5-16.8-37.5-37.5
		C169.5,89.9,186.3,73,207,73z"/>
	<path class="st0" d="M195.8,221.1h22.4c8.8,0,15.9-7.2,15.9-15.9v-15c10.3-3.5,19.9-9.1,28.2-16.3l13,7.5c2.5,1.4,5.2,2.1,8,2.1
		c1.4,0,2.8-0.2,4.2-0.6c4.1-1.1,7.6-3.7,9.7-7.4l11.2-19.4c4.4-7.6,1.8-17.4-5.8-21.8l-13-7.5c1-5.3,1.6-10.8,1.6-16.3
		c0-5.5-0.5-10.9-1.6-16.3l13-7.5c7.6-4.4,10.2-14.2,5.8-21.8l-11.2-19.4c-4.4-7.6-14.2-10.2-21.8-5.8l-13,7.5
		c-8.3-7.2-17.8-12.8-28.2-16.3l0-15C234.1,7.2,227,0,218.2,0h-22.4c-8.8,0-15.9,7.2-15.9,15.9v15c-10.3,3.5-19.9,9.1-28.2,16.3
		l-13-7.5c-7.6-4.4-17.4-1.8-21.8,5.8L105.6,65c-4.4,7.6-1.8,17.4,5.8,21.8l13,7.5c-1,5.3-1.6,10.8-1.6,16.3
		c0,5.5,0.5,10.9,1.6,16.3l-13,7.5c-7.6,4.4-10.2,14.2-5.8,21.8l11.2,19.4c2.1,3.7,5.6,6.3,9.7,7.4c1.4,0.4,2.8,0.6,4.2,0.6
		c2.8,0,5.5-0.7,7.9-2.1l13-7.5c8.3,7.2,17.8,12.8,28.2,16.3v15C179.8,213.9,187,221.1,195.8,221.1L195.8,221.1z M131.5,169
		c-0.8,0.5-1.9,0.2-2.4-0.6L117.9,149c-0.5-0.8-0.2-1.9,0.6-2.4l16-9.2c0.8-0.5,1.5-1,2.2-1.5c0,0,0,0,0.1-0.1
		c0.1-0.1,0.2-0.2,0.4-0.3c1.3-1.2,2.1-2.7,2.3-4.3c0,0,0-0.1,0-0.1c0.1-0.4,0.1-0.8,0.1-1.3c0-0.1,0-0.2,0-0.3
		c0-0.4-0.1-0.7-0.2-1.1c0,0,0,0,0,0c-1.5-5.8-2.3-11.8-2.3-17.8c0-6.1,0.8-12.1,2.3-17.9c0.2-0.8,0.3-1.7,0.2-2.5
		c-0.2-2-1.3-3.9-2.9-5.1c-0.7-0.5-1.4-1-2.1-1.4l-16-9.2c-0.8-0.5-1.1-1.5-0.6-2.4l11.2-19.4c0.5-0.8,1.6-1.1,2.4-0.6l16,9.2
		c0.8,0.4,1.6,0.8,2.3,1.2c0.2,0.1,0.3,0.1,0.5,0.2c0.7,0.3,1.5,0.4,2.2,0.4c0,0,0.1,0,0.1,0c0.1,0,0.1,0,0.2,0
		c0.8,0,1.7-0.2,2.4-0.5c0,0,0.1,0,0.1,0c0.8-0.3,1.6-0.9,2.3-1.5c8.6-8.6,19.3-14.7,30.9-17.9c0.2,0,0.3-0.1,0.5-0.2
		c0.1,0,0.3-0.1,0.4-0.1c0.7-0.3,1.3-0.7,1.9-1.1c0.1-0.1,0.2-0.1,0.2-0.2c0.6-0.5,1-1.1,1.4-1.8c0-0.1,0.1-0.2,0.1-0.2
		c0.4-0.7,0.6-1.5,0.7-2.3c0,0,0,0,0,0c0.1-0.9,0.2-1.8,0.2-2.7V15.9c0-1,0.8-1.7,1.7-1.7h22.4c1,0,1.7,0.8,1.7,1.7v18.4
		c0,0.9,0.1,1.8,0.2,2.7c0,0,0,0,0,0.1c0,0.3,0.1,0.6,0.2,0.9c0,0.2,0.1,0.3,0.1,0.5c0.1,0.2,0.2,0.4,0.2,0.5
		c0.1,0.2,0.2,0.5,0.3,0.7c0,0,0.1,0.1,0.1,0.1c0.2,0.4,0.4,0.7,0.7,1c0,0,0,0,0,0c0.3,0.3,0.6,0.6,0.9,0.9c0.1,0,0.1,0.1,0.2,0.1
		c0.3,0.2,0.6,0.4,1,0.6c0.1,0,0.1,0.1,0.2,0.1c0.4,0.2,0.7,0.3,1.1,0.4c0,0,0,0,0,0c11.6,3.1,22.3,9.3,30.9,17.9c0,0,0,0,0,0
		c0.7,0.6,1.4,1.2,2.3,1.5c0.1,0,0.1,0,0.2,0.1c0.8,0.3,1.6,0.5,2.4,0.5c0.1,0,0.1,0,0.2,0c0,0,0.1,0,0.1,0c0.7,0,1.5-0.2,2.2-0.4
		c0.2-0.1,0.3-0.1,0.5-0.2c0.8-0.3,1.6-0.7,2.3-1.2l16-9.2c0.8-0.5,1.9-0.2,2.4,0.6L296,72.1c0.5,0.8,0.2,1.9-0.6,2.4l-16,9.2
		c-0.7,0.4-1.4,0.8-2,1.3c-1.6,1.1-2.8,2.9-3,5c-0.1,1,0,2,0.3,3c1.5,5.7,2.2,11.6,2.2,17.6c0,6.1-0.8,12.1-2.3,17.8c0,0,0,0,0,0
		c-0.1,0.4-0.1,0.7-0.2,1.1c0,0.1,0,0.2,0,0.3c0,0.4,0,0.8,0.1,1.3c0,0,0,0.1,0,0.1c0.2,1.6,1,3.1,2.3,4.3c0.1,0.1,0.2,0.2,0.4,0.3
		c0,0,0,0,0.1,0.1c0.7,0.5,1.4,1,2.2,1.5l16,9.2c0.8,0.5,1.1,1.5,0.6,2.4l-11.2,19.4c-0.3,0.5-0.7,0.7-1.1,0.8s-0.8,0.1-1.3-0.2
		l-16-9.2c-0.8-0.5-1.6-0.9-2.4-1.2c0,0,0,0-0.1,0c0,0-0.1,0-0.1,0c-2.7-1.1-5.7-0.4-7.6,1.5c0,0,0,0,0,0
		c-8.6,8.6-19.3,14.7-30.9,17.8c0,0,0,0-0.1,0c-0.2,0.1-0.4,0.1-0.6,0.2c-2.1,0.8-3.6,2.4-4.3,4.4c0,0.1,0,0.2-0.1,0.3
		c-0.1,0.4-0.2,0.7-0.3,1.1c0,0,0,0,0,0c-0.1,0.9-0.2,1.8-0.2,2.7v18.4c0,1-0.8,1.7-1.7,1.7l-22.5,0c-1,0-1.7-0.8-1.7-1.7v-18.4
		c0-0.9-0.1-1.8-0.2-2.7c0,0,0,0,0-0.1c0-0.3-0.1-0.5-0.2-0.8c0-0.2-0.1-0.4-0.1-0.6c-0.1-0.2-0.1-0.3-0.2-0.5
		c-0.1-0.3-0.2-0.6-0.4-0.8c0,0,0-0.1-0.1-0.1c-0.2-0.4-0.5-0.7-0.7-1c0,0-0.1-0.1-0.1-0.1c-0.3-0.3-0.6-0.6-0.9-0.8
		c-0.1-0.1-0.2-0.1-0.3-0.2c-0.3-0.2-0.6-0.4-0.9-0.6c-0.1,0-0.2-0.1-0.3-0.1c-0.3-0.2-0.7-0.3-1.1-0.4c0,0,0,0,0,0
		c-11.6-3.1-22.3-9.3-30.9-17.8c0,0,0,0,0,0c-2-1.9-4.9-2.6-7.6-1.5c0,0-0.1,0-0.1,0c0,0,0,0-0.1,0c-0.8,0.3-1.6,0.7-2.4,1.2
		L131.5,169z"/>
</g>
</svg>
