<svg width="414" height="427" viewBox="0 0 414 427" fill="none" xmlns="http://www.w3.org/2000/svg">
<g clip-path="url(#clip0_493_276)">
<path d="M406.3 93.2C402.6 89.5 397.6 87.5 392.3 87.6C373.7 88.2 359 103.8 359.6 122.5L360.6 153.6L355.3 174.8C348.9 174.8 342.6 177.1 337.7 182L303.1 216.6L291.1 218.7C283.4 220 276 223.8 270.5 229.4L246.7 253.2C239.7 260.2 235.7 269.5 235.5 279.4L234.6 318.9C223.5 322.6 215.4 333 215.3 345.3L214.7 397C214.6 404.5 217.5 411.6 222.8 417C228.1 422.4 235.1 425.4 242.6 425.5L328.3 426.4H328.6C336 426.4 343 423.5 348.3 418.3C353.7 413 356.7 406 356.8 398.5L357.4 346.8C357.5 339.3 354.6 332.2 349.4 326.8C346.4 323.8 342.9 321.5 339 320.1L339.2 318.9C340.5 310.1 344.5 302.2 350.8 295.9L391 255.7C401.3 245.4 407.8 231.9 409.3 217.5L413.6 177C413.9 175.5 414.1 174 414.1 172.4V172.3C414.1 172.2 414.1 172.2 414.1 172.1C414.1 171.8 414.1 171.6 414.1 171.3L412 106C411.7 101.2 409.7 96.6 406.3 93.2ZM343.2 346.6L342.6 398.3C342.6 402 341.1 405.5 338.4 408.1C335.7 410.7 332.1 411.9 328.5 412.1L242.8 411.2C239.1 411.2 235.6 409.7 233 407C230.4 404.3 229 400.8 229 397.1L229.6 345.4C229.7 337.8 235.9 331.6 243.5 331.6H243.7L329.4 332.5C333.1 332.5 336.6 334 339.2 336.7C341.8 339.4 343.2 342.9 343.2 346.6ZM380.8 245.6L340.6 285.8C332.2 294.2 326.8 304.9 325 316.8L324.8 318.3L248.9 317.5L249.7 279.7C249.8 273.5 252.4 267.6 256.8 263.2L280.6 239.4C284.1 235.9 288.7 233.5 293.6 232.7L307.8 230.2C308.3 230.1 308.8 230 309.2 229.8H309.3C310.2 229.4 310.9 228.9 311.6 228.3L347.8 192.1C351.9 188 358.5 188 362.6 192.1C366.7 196.2 366.7 202.8 362.6 206.9L321 248.4C318.2 251.2 318.2 255.7 321 258.4C322.4 259.8 324.2 260.5 326 260.5C327.8 260.5 329.6 259.8 331 258.4L372.5 216.9C382.1 207.3 382.1 191.7 372.5 182.1C371.4 181 370.1 180 368.8 179.1L374.5 156.1C374.5 156 374.5 155.9 374.5 155.9C374.6 155.7 374.6 155.4 374.6 155.2C374.6 155 374.6 154.7 374.6 154.5C374.6 154.4 374.6 154.3 374.6 154.3L373.6 122.2C373.3 111.4 381.8 102.3 392.5 102C393.9 102 395.2 102.5 396.1 103.4C396.7 104 397.5 105.1 397.5 106.6L399.6 171.4L399.1 176C399.1 176.2 399.1 176.3 399 176.5L394.8 216.1C393.9 227.1 388.8 237.6 380.8 245.6Z" fill="#0E53BE"/>
<path d="M338.3 353.1C338.3 359.8 332.9 365.3 326.1 365.3C319.4 365.3 313.9 359.9 313.9 353.1C313.9 346.4 319.3 340.9 326.1 340.9C332.9 340.9 338.3 346.4 338.3 353.1Z" fill="#0E53BE"/>
<path d="M2.1 106L0 171.4C0 171.7 0 172 0 172.2V172.3C0 173.9 0.2 175.4 0.5 177L4.8 217.5C6.3 231.9 12.8 245.4 23.1 255.7L63.3 295.9C69.6 302.2 73.6 310.1 74.9 318.9L75 320C71.1 321.4 67.6 323.7 64.6 326.7C59.3 332.1 56.5 339.2 56.6 346.7L57.2 398.4C57.3 405.9 60.3 412.9 65.7 418.2C71 423.4 78 426.3 85.4 426.3H85.7L171.4 425.4C178.9 425.3 185.9 422.3 191.2 416.9C196.5 411.5 199.3 404.4 199.3 396.9L198.7 345.2C198.6 332.9 190.5 322.5 179.4 318.8L178.5 279.3C178.3 269.4 174.3 260.1 167.3 253.1L143.5 229.3C137.9 223.7 130.6 220 122.9 218.7L110.9 216.6L76.2 182C71.4 177.2 65 174.8 58.6 174.8L53.3 153.5L54.3 122.4C54.9 103.8 40.2 88.2 21.5 87.6C16.3 87.4 11.2 89.5 7.5 93.2C4.2 96.6 2.3 101.2 2.1 106ZM184.4 345.4L185 397.1C185 400.8 183.6 404.3 181 407C178.4 409.7 174.9 411.2 171.2 411.2L85.4 412C81.7 411.9 78.2 410.6 75.5 408C72.8 405.4 71.3 401.9 71.3 398.2L70.7 346.5C70.7 342.8 72.1 339.3 74.7 336.6C77.3 333.9 80.8 332.4 84.5 332.4L170.2 331.5H170.3C178 331.6 184.3 337.7 184.4 345.4ZM17.7 103.3C18.6 102.4 19.8 101.9 21.2 101.9C32 102.3 40.5 111.3 40.1 122.1L39.1 154.2C39.1 154.3 39.1 154.4 39.1 154.4C39.1 154.6 39.1 154.9 39.1 155.1C39.1 155.3 39.2 155.6 39.2 155.8C39.2 155.9 39.2 156 39.2 156L44.9 179C43.6 179.9 42.4 180.9 41.2 182C31.6 191.6 31.6 207.2 41.2 216.8L82.7 258.3C84.1 259.7 85.9 260.4 87.7 260.4C89.5 260.4 91.3 259.7 92.7 258.3C95.5 255.5 95.5 251 92.7 248.3L51.2 206.8C47.1 202.7 47.1 196.1 51.2 192C55.3 187.9 61.9 187.9 66 192L102.2 228.2C102.8 228.8 103.6 229.3 104.5 229.7H104.6C105.1 229.9 105.5 230 106 230.1L120.2 232.6C125.1 233.4 129.7 235.8 133.1 239.3L156.9 263.1C161.3 267.5 163.8 273.4 164 279.6L164.8 317.4L88.9 318.2L88.7 316.7C86.9 304.9 81.5 294.2 73.1 285.8L32.9 245.6C24.9 237.6 19.9 227.1 18.7 216L14.5 176.4C14.5 176.2 14.5 176.1 14.4 175.9L13.9 171.3L16 106.6C16.3 104.9 17.1 103.9 17.7 103.3Z" fill="#0E53BE"/>
<path d="M99.9 353.1C99.9 359.8 94.5 365.3 87.7 365.3C80.9 365.3 75.5 359.9 75.5 353.1C75.5 346.4 80.9 340.9 87.7 340.9C94.5 340.9 99.9 346.4 99.9 353.1Z" fill="#0E53BE"/>
<path d="M207 162.2C235.5 162.2 258.7 139 258.7 110.5C258.7 82 235.5 58.8 207 58.8C178.5 58.8 155.3 82 155.3 110.5C155.3 139 178.5 162.2 207 162.2ZM207 73C227.7 73 244.5 89.8 244.5 110.5C244.5 131.2 227.7 148 207 148C186.3 148 169.5 131.2 169.5 110.5C169.5 89.9 186.3 73 207 73Z" fill="#0E53BE"/>
<path d="M195.8 221.1H218.2C227 221.1 234.1 213.9 234.1 205.2V190.2C244.4 186.7 254 181.1 262.3 173.9L275.3 181.4C277.8 182.8 280.5 183.5 283.3 183.5C284.7 183.5 286.1 183.3 287.5 182.9C291.6 181.8 295.1 179.2 297.2 175.5L308.4 156.1C312.8 148.5 310.2 138.7 302.6 134.3L289.6 126.8C290.6 121.5 291.2 116 291.2 110.5C291.2 105 290.7 99.6 289.6 94.2L302.6 86.7C310.2 82.3 312.8 72.5 308.4 64.9L297.2 45.5C292.8 37.9 283 35.3 275.4 39.7L262.4 47.2C254.1 40 244.6 34.4 234.2 30.9V15.9C234.1 7.2 227 0 218.2 0H195.8C187 0 179.9 7.2 179.9 15.9V30.9C169.6 34.4 160 40 151.7 47.2L138.7 39.7C131.1 35.3 121.3 37.9 116.9 45.5L105.6 65C101.2 72.6 103.8 82.4 111.4 86.8L124.4 94.3C123.4 99.6 122.8 105.1 122.8 110.6C122.8 116.1 123.3 121.5 124.4 126.9L111.4 134.4C103.8 138.8 101.2 148.6 105.6 156.2L116.8 175.6C118.9 179.3 122.4 181.9 126.5 183C127.9 183.4 129.3 183.6 130.7 183.6C133.5 183.6 136.2 182.9 138.6 181.5L151.6 174C159.9 181.2 169.4 186.8 179.8 190.3V205.3C179.8 213.9 187 221.1 195.8 221.1ZM131.5 169C130.7 169.5 129.6 169.2 129.1 168.4L117.9 149C117.4 148.2 117.7 147.1 118.5 146.6L134.5 137.4C135.3 136.9 136 136.4 136.7 135.9C136.7 135.9 136.7 135.9 136.8 135.8C136.9 135.7 137 135.6 137.2 135.5C138.5 134.3 139.3 132.8 139.5 131.2V131.1C139.6 130.7 139.6 130.3 139.6 129.8C139.6 129.7 139.6 129.6 139.6 129.5C139.6 129.1 139.5 128.8 139.4 128.4C137.9 122.6 137.1 116.6 137.1 110.6C137.1 104.5 137.9 98.5 139.4 92.7C139.6 91.9 139.7 91 139.6 90.2C139.4 88.2 138.3 86.3 136.7 85.1C136 84.6 135.3 84.1 134.6 83.7L118.6 74.5C117.8 74 117.5 73 118 72.1L129.2 52.7C129.7 51.9 130.8 51.6 131.6 52.1L147.6 61.3C148.4 61.7 149.2 62.1 149.9 62.5C150.1 62.6 150.2 62.6 150.4 62.7C151.1 63 151.9 63.1 152.6 63.1H152.7C152.8 63.1 152.8 63.1 152.9 63.1C153.7 63.1 154.6 62.9 155.3 62.6H155.4C156.2 62.3 157 61.7 157.7 61.1C166.3 52.5 177 46.4 188.6 43.2C188.8 43.2 188.9 43.1 189.1 43C189.2 43 189.4 42.9 189.5 42.9C190.2 42.6 190.8 42.2 191.4 41.8C191.5 41.7 191.6 41.7 191.6 41.6C192.2 41.1 192.6 40.5 193 39.8C193 39.7 193.1 39.6 193.1 39.6C193.5 38.9 193.7 38.1 193.8 37.3C193.9 36.4 194 35.5 194 34.6V15.9C194 14.9 194.8 14.2 195.7 14.2H218.1C219.1 14.2 219.8 15 219.8 15.9V34.3C219.8 35.2 219.9 36.1 220 37C220 37 220 37 220 37.1C220 37.4 220.1 37.7 220.2 38C220.2 38.2 220.3 38.3 220.3 38.5C220.4 38.7 220.5 38.9 220.5 39C220.6 39.2 220.7 39.5 220.8 39.7L220.9 39.8C221.1 40.2 221.3 40.5 221.6 40.8C221.9 41.1 222.2 41.4 222.5 41.7C222.6 41.7 222.6 41.8 222.7 41.8C223 42 223.3 42.2 223.7 42.4C223.8 42.4 223.8 42.5 223.9 42.5C224.3 42.7 224.6 42.8 225 42.9C236.6 46 247.3 52.2 255.9 60.8C256.6 61.4 257.3 62 258.2 62.3C258.3 62.3 258.3 62.3 258.4 62.4C259.2 62.7 260 62.9 260.8 62.9C260.9 62.9 260.9 62.9 261 62.9H261.1C261.8 62.9 262.6 62.7 263.3 62.5C263.5 62.4 263.6 62.4 263.8 62.3C264.6 62 265.4 61.6 266.1 61.1L282.1 51.9C282.9 51.4 284 51.7 284.5 52.5L296 72.1C296.5 72.9 296.2 74 295.4 74.5L279.4 83.7C278.7 84.1 278 84.5 277.4 85C275.8 86.1 274.6 87.9 274.4 90C274.3 91 274.4 92 274.7 93C276.2 98.7 276.9 104.6 276.9 110.6C276.9 116.7 276.1 122.7 274.6 128.4C274.5 128.8 274.5 129.1 274.4 129.5C274.4 129.6 274.4 129.7 274.4 129.8C274.4 130.2 274.4 130.6 274.5 131.1V131.2C274.7 132.8 275.5 134.3 276.8 135.5C276.9 135.6 277 135.7 277.2 135.8C277.2 135.8 277.2 135.8 277.3 135.9C278 136.4 278.7 136.9 279.5 137.4L295.5 146.6C296.3 147.1 296.6 148.1 296.1 149L284.9 168.4C284.6 168.9 284.2 169.1 283.8 169.2C283.4 169.3 283 169.3 282.5 169L266.5 159.8C265.7 159.3 264.9 158.9 264.1 158.6C264.1 158.6 264.1 158.6 264 158.6H263.9C261.2 157.5 258.2 158.2 256.3 160.1C247.7 168.7 237 174.8 225.4 177.9C225.4 177.9 225.4 177.9 225.3 177.9C225.1 178 224.9 178 224.7 178.1C222.6 178.9 221.1 180.5 220.4 182.5C220.4 182.6 220.4 182.7 220.3 182.8C220.2 183.2 220.1 183.5 220 183.9C219.9 184.8 219.8 185.7 219.8 186.6V205C219.8 206 219 206.7 218.1 206.7H195.6C194.6 206.7 193.9 205.9 193.9 205V186.6C193.9 185.7 193.8 184.8 193.7 183.9C193.7 183.9 193.7 183.9 193.7 183.8C193.7 183.5 193.6 183.3 193.5 183C193.5 182.8 193.4 182.6 193.4 182.4C193.3 182.2 193.3 182.1 193.2 181.9C193.1 181.6 193 181.3 192.8 181.1C192.8 181.1 192.8 181 192.7 181C192.5 180.6 192.2 180.3 192 180L191.9 179.9C191.6 179.6 191.3 179.3 191 179.1C190.9 179 190.8 179 190.7 178.9C190.4 178.7 190.1 178.5 189.8 178.3C189.7 178.3 189.6 178.2 189.5 178.2C189.2 178 188.8 177.9 188.4 177.8C176.8 174.7 166.1 168.5 157.5 160C155.5 158.1 152.6 157.4 149.9 158.5H149.8C149.8 158.5 149.8 158.5 149.7 158.5C148.9 158.8 148.1 159.2 147.3 159.7L131.5 169Z" fill="#0E53BE"/>
</g>
<defs>
<clipPath id="clip0_493_276">
<rect width="414" height="426.2" fill="white"/>
</clipPath>
</defs>
</svg>
