<svg width="398" height="323" viewBox="0 0 398 323" fill="none" xmlns="http://www.w3.org/2000/svg">
<g clip-path="url(#clip0_492_166)">
<path d="M198.9 196.2C197.5 196.2 196.2 195.9 194.9 195.3L5.5 107C2.2 105.4 0 102.1 0 98.4C0 94.7 2.1 91.4 5.5 89.8L194.9 1.4C197.4 0.2 200.4 0.2 202.9 1.4L392.3 89.8C395.6 91.4 397.8 94.7 397.8 98.4C397.8 102.1 395.7 105.4 392.3 107L202.9 195.4C201.7 195.9 200.3 196.2 198.9 196.2ZM31.9 98.4L198.9 176.3L365.9 98.3L198.9 20.4L31.9 98.4ZM202.9 258.5L392.3 170.1C397 167.9 399.1 162.3 396.9 157.5C394.7 152.8 389.1 150.7 384.3 152.9L198.9 239.5L13.5 152.9C8.8 150.7 3.1 152.7 0.9 157.5C-1.3 162.2 0.7 167.9 5.5 170.1L194.9 258.5C196.2 259.1 197.5 259.4 198.9 259.4C200.3 259.4 201.6 259.1 202.9 258.5ZM202.9 321.6L392.3 233.2C397 231 399.1 225.4 396.9 220.6C394.7 215.9 389.1 213.8 384.3 216L198.9 302.5L13.5 216.1C8.8 213.9 3.1 215.9 0.9 220.7C-1.3 225.5 0.7 231.1 5.5 233.3L194.9 321.7C196.2 322.3 197.5 322.6 198.9 322.6C200.3 322.5 201.6 322.2 202.9 321.6Z" fill="#0E53BE"/>
</g>
<defs>
<clipPath id="clip0_492_166">
<rect width="397.8" height="322" fill="white" transform="translate(0 0.5)"/>
</clipPath>
</defs>
</svg>
