<svg width="427" height="427" viewBox="0 0 427 427" fill="none" xmlns="http://www.w3.org/2000/svg">
<g clip-path="url(#clip0_493_338)">
<path d="M0 0V189.4H189.4V0H0ZM236.8 0V189.4H426.2V0H236.8ZM22.3 22.3H167.1V167.2H22.3V22.3ZM259.1 22.3H404V167.2H259.1V22.3ZM0 236.8V426.3H189.4V236.8H0ZM331.5 236.8C279.3 236.8 236.8 279.3 236.8 331.5C236.8 383.7 279.3 426.2 331.5 426.2C383.7 426.2 426.2 383.6 426.2 331.5C426.2 279.4 383.7 236.8 331.5 236.8ZM22.3 259.1H167.1V403.9H22.3V259.1ZM331.5 259.1C371.6 259.1 403.9 291.4 403.9 331.5C403.9 371.6 371.6 403.9 331.5 403.9C291.4 403.9 259.1 371.6 259.1 331.5C259.1 291.4 291.4 259.1 331.5 259.1Z" fill="#0E53BE"/>
</g>
<defs>
<clipPath id="clip0_493_338">
<rect width="426.2" height="426.2" fill="white"/>
</clipPath>
</defs>
</svg>
