<?xml version="1.0" encoding="utf-8"?>
<!-- Generator: Adobe Illustrator 24.1.1, SVG Export Plug-In . SVG Version: 6.00 Build 0)  -->
<svg version="1.1" id="Layer_1" xmlns="http://www.w3.org/2000/svg" xmlns:xlink="http://www.w3.org/1999/xlink" x="0px" y="0px"
	 viewBox="0 0 397.8 322" style="enable-background:new 0 0 397.8 322;" xml:space="preserve">
<style type="text/css">
	.st0{fill:#007AFB;}
</style>
<path class="st0" d="M198.9,195.7c-1.4,0-2.7-0.3-4-0.9L5.5,106.5c-3.3-1.6-5.5-4.9-5.5-8.6s2.1-7,5.5-8.6L194.9,0.9
	c2.5-1.2,5.5-1.2,8,0l189.4,88.4c3.3,1.6,5.5,4.9,5.5,8.6s-2.1,7-5.5,8.6l-189.4,88.4C201.7,195.4,200.3,195.7,198.9,195.7
	L198.9,195.7z M31.9,97.9l167,77.9l167-78l-167-77.9L31.9,97.9z M202.9,258l189.4-88.4c4.7-2.2,6.8-7.8,4.6-12.6
	c-2.2-4.7-7.8-6.8-12.6-4.6L198.9,239L13.5,152.4c-4.7-2.2-10.4-0.2-12.6,4.6c-2.2,4.7-0.2,10.4,4.6,12.6L194.9,258
	c1.3,0.6,2.6,0.9,4,0.9C200.3,258.9,201.6,258.6,202.9,258L202.9,258z M202.9,321.1l189.4-88.4c4.7-2.2,6.8-7.8,4.6-12.6
	c-2.2-4.7-7.8-6.8-12.6-4.6l-185.4,86.5L13.5,215.6c-4.7-2.2-10.4-0.2-12.6,4.6c-2.2,4.8-0.2,10.4,4.6,12.6l189.4,88.4
	c1.3,0.6,2.6,0.9,4,0.9C200.3,322,201.6,321.7,202.9,321.1L202.9,321.1z"/>
</svg>
