<?xml version="1.0" encoding="utf-8"?>
<!-- Generator: Adobe Illustrator 24.1.1, SVG Export Plug-In . SVG Version: 6.00 Build 0)  -->
<svg version="1.1" id="Layer_1" xmlns="http://www.w3.org/2000/svg" xmlns:xlink="http://www.w3.org/1999/xlink" x="0px" y="0px"
	 viewBox="0 0 426.2 426.2" style="enable-background:new 0 0 426.2 426.2;" xml:space="preserve">
<style type="text/css">
	.st0{fill:#007AFB;}
</style>
<path class="st0" d="M0,0v189.4l189.4,0V0L0,0z M236.8,0v189.4h189.4V0L236.8,0z M22.3,22.3h144.8v144.9H22.3L22.3,22.3z
	 M259.1,22.3H404v144.9H259.1V22.3z M0,236.8v189.5h189.4V236.8H0z M331.5,236.8c-52.2,0-94.7,42.5-94.7,94.7s42.5,94.7,94.7,94.7
	s94.7-42.6,94.7-94.7S383.7,236.8,331.5,236.8L331.5,236.8z M22.3,259.1h144.8v144.8H22.3V259.1z M331.5,259.1
	c40.1,0,72.4,32.3,72.4,72.4s-32.3,72.4-72.4,72.4c-40.1,0-72.4-32.3-72.4-72.4S291.4,259.1,331.5,259.1L331.5,259.1z"/>
</svg>
