<?xml version="1.0" encoding="utf-8"?>
<!-- Generator: Adobe Illustrator 24.1.1, SVG Export Plug-In . SVG Version: 6.00 Build 0)  -->
<svg version="1.1" id="Layer_1" xmlns="http://www.w3.org/2000/svg" xmlns:xlink="http://www.w3.org/1999/xlink" x="0px" y="0px"
	 viewBox="0 0 414.4 414.4" style="enable-background:new 0 0 414.4 414.4;" xml:space="preserve">
<style type="text/css">
	.st0{fill:#007AFB;}
</style>
<g>
	<path class="st0" d="M207.2,192.4c-8.2,0-14.8,6.6-14.8,14.8v29.6c0,8.2,6.6,14.8,14.8,14.8S222,245,222,236.8v-29.6
		C222,199,215.4,192.4,207.2,192.4z"/>
	<path class="st0" d="M251.6,192.4c-8.2,0-14.8,6.6-14.8,14.8v29.6c0,8.2,6.6,14.8,14.8,14.8c8.2,0,14.8-6.6,14.8-14.8v-29.6
		C266.4,199,259.8,192.4,251.6,192.4z"/>
	<path class="st0" d="M296,192.4c-8.2,0-14.8,6.6-14.8,14.8v29.6c0,8.2,6.6,14.8,14.8,14.8s14.8-6.6,14.8-14.8v-29.6
		C310.8,199,304.2,192.4,296,192.4z"/>
	<path class="st0" d="M207.2,370c8.2,0,14.8-6.6,14.8-14.8v-29.6c0-8.2-6.6-14.8-14.8-14.8s-14.8,6.6-14.8,14.8v29.6
		C192.4,363.4,199,370,207.2,370z"/>
	<path class="st0" d="M251.6,370c8.2,0,14.8-6.6,14.8-14.8v-29.6c0-8.2-6.6-14.8-14.8-14.8c-8.2,0-14.8,6.6-14.8,14.8v29.6
		C236.8,363.4,243.4,370,251.6,370z"/>
	<path class="st0" d="M296,370c8.2,0,14.8-6.6,14.8-14.8v-29.6c0-8.2-6.6-14.8-14.8-14.8s-14.8,6.6-14.8,14.8v29.6
		C281.2,363.4,287.8,370,296,370z"/>
	<path class="st0" d="M310.8,148H103.6c-24.5,0-44.4,19.9-44.4,44.4V370c0,24.5,19.9,44.4,44.4,44.4h207.2
		c24.5,0,44.4-19.9,44.4-44.4V192.4C355.2,167.9,335.3,148,310.8,148L310.8,148z M88.8,192.4c0-8.2,6.6-14.8,14.8-14.8h207.2
		c8.2,0,14.8,6.6,14.8,14.8v74H88.8L88.8,192.4z M325.6,370c0,8.2-6.6,14.8-14.8,14.8H103.6c-8.2,0-14.8-6.6-14.8-14.8v-74h236.8
		L325.6,370z"/>
	<path class="st0" d="M88.8,59.2c0-4.7-2.2-9-5.9-11.8L23.7,3C17.2-1.9,7.9-0.6,3,5.9c-4.9,6.5-3.6,15.8,3,20.7l43.4,32.6L5.9,91.8
		c-6.5,4.9-7.9,14.2-3,20.7c2.9,3.9,7.3,5.9,11.9,5.9c3.1,0,6.2-1,8.9-3L82.9,71C86.6,68.2,88.8,63.9,88.8,59.2L88.8,59.2z"/>
	<path class="st0" d="M106.6,112.5c2.9,3.9,7.3,5.9,11.9,5.9c3.1,0,6.2-1,8.9-3L186.5,71c3.7-2.8,5.9-7.2,5.9-11.8s-2.2-9-5.9-11.8
		L127.3,3c-6.5-4.9-15.8-3.6-20.7,3c-4.9,6.5-3.6,15.8,3,20.7l43.4,32.6l-43.4,32.6C103,96.7,101.6,105.9,106.6,112.5L106.6,112.5z"
		/>
	<path class="st0" d="M225,112.5c2.9,3.9,7.3,5.9,11.9,5.9c3.1,0,6.2-1,8.9-3L304.9,71c3.7-2.8,5.9-7.2,5.9-11.8s-2.2-9-5.9-11.8
		L245.7,3c-6.5-4.9-15.8-3.6-20.7,3c-4.9,6.5-3.6,15.8,3,20.7l43.4,32.6l-43.4,32.6C221.4,96.7,220,105.9,225,112.5L225,112.5z"/>
	<path class="st0" d="M408.5,47.4L349.3,3c-6.5-4.9-15.8-3.6-20.7,3c-4.9,6.5-3.6,15.8,3,20.7l43.4,32.6l-43.4,32.6
		c-6.5,4.9-7.9,14.2-3,20.7c2.9,3.9,7.3,5.9,11.9,5.9c3.1,0,6.2-1,8.9-3L408.5,71c3.7-2.8,5.9-7.2,5.9-11.8
		C414.4,54.5,412.2,50.2,408.5,47.4L408.5,47.4z"/>
</g>
</svg>
