<?xml version="1.0" encoding="utf-8"?>
<!-- Generator: Adobe Illustrator 24.1.1, SVG Export Plug-In . SVG Version: 6.00 Build 0)  -->
<svg version="1.1" id="Layer_1" xmlns="http://www.w3.org/2000/svg" xmlns:xlink="http://www.w3.org/1999/xlink" x="0px" y="0px"
	 viewBox="0 0 408 473.6" style="enable-background:new 0 0 408 473.6;" xml:space="preserve">
<style type="text/css">
	.st0{clip-path:url(#SVGID_2_);}
	.st1{fill-rule:evenodd;clip-rule:evenodd;fill:#007AFB;}
</style>
<g>
	<defs>
		<rect id="SVGID_1_" width="408" height="473.6"/>
	</defs>
	<clipPath id="SVGID_2_">
		<use xlink:href="#SVGID_1_"  style="overflow:visible;"/>
	</clipPath>
	<g class="st0">
		<path class="st1" d="M41.6,0h320v251.6h-64.5l0.8-0.7c5.4-4.7,6.7-12.4,3.1-18.7l-2.1-3.6h39.8V22.9H64.5v205.8h39.8l-2.1,3.6
			c-3.6,6.2-2.3,13.9,3.1,18.7l0.8,0.7H41.6L41.6,0z M96,109.6h153.8v16.2H96L96,109.6z M96,67.1h211.1v16.2H96L96,67.1z M8.7,385.6
			v-103h106.9l-11.8,10.3c-3.5,3.1-5.3,7.5-5.1,11.9H30.9v81.1c-3.6-1.3-7.5-2-11.6-2C15.6,383.9,12.1,384.5,8.7,385.6L8.7,385.6z
			 M284.6,282.6h109.8V385c-2.8-0.7-5.7-1.1-8.8-1.1c-4.8,0-9.3,1-13.4,2.7v-81.8h-70.7c0.2-4.4-1.6-8.8-5.1-11.9L284.6,282.6z
			 M212.7,375.4v49.2c-3.5-1.5-7.2-2.4-11.1-2.4c-3.9,0-7.6,0.8-11.1,2.4v-49.2H212.7L212.7,375.4z M186.2,180.9h30.7l5.9,29.6
			c7.9,2.7,15.2,6.9,21.4,12.3l28.6-9.7l7.7,13.3l7.7,13.3l-22.7,19.9c0.8,4,1.2,8.1,1.2,12.3c0,4.2-0.4,8.3-1.2,12.3l22.7,19.9
			l-15.3,26.6l-28.6-9.7c-6.2,5.4-13.4,9.6-21.4,12.3l-5.9,29.6h-30.7l-5.9-29.6c-7.9-2.7-15.1-6.9-21.3-12.3l-28.6,9.7l-7.7-13.3
			l-7.7-13.3l22.7-19.9c-0.8-4-1.2-8.1-1.2-12.3c0-4.2,0.4-8.3,1.2-12.3l-22.7-19.9l7.7-13.3l7.7-13.3l28.6,9.7
			c6.2-5.4,13.4-9.6,21.3-12.3L186.2,180.9z M201.6,240.5c17.4,0,31.4,14.1,31.4,31.4c0,17.4-14.1,31.4-31.4,31.4
			c-17.3,0-31.4-14.1-31.4-31.4C170.2,254.6,184.2,240.5,201.6,240.5z M387.1,398c11.4,0,20.6,9.2,20.6,20.6
			c0,11.4-9.2,20.6-20.6,20.6c-11.4,0-20.6-9.2-20.6-20.6S375.8,398,387.1,398z M20.9,398c11.4,0,20.6,9.2,20.6,20.6
			c0,11.4-9.2,20.6-20.6,20.6c-11.4,0-20.6-9.2-20.6-20.6S9.5,398,20.9,398z M201.6,432.4c11.4,0,20.6,9.2,20.6,20.6
			c0,11.4-9.2,20.6-20.6,20.6c-11.4,0-20.6-9.2-20.6-20.6C181,441.6,190.2,432.4,201.6,432.4z"/>
	</g>
</g>
</svg>
