<svg width="80" height="80" viewBox="0 0 80 80" fill="none" xmlns="http://www.w3.org/2000/svg">
<g clip-path="url(#clip0_181_2884)">
<path d="M79.0236 20.9764L65.6902 7.64308C64.3887 6.3413 62.278 6.3413 60.9762 7.64308L47.6429 20.9764C46.6896 21.9297 46.4045 23.3635 46.9202 24.6091C47.4362 25.8546 48.6516 26.6669 49.9998 26.6669H53.3331V66.6669H46.6665V40C46.6665 38.1591 45.174 36.6666 43.3331 36.6666H29.9998C28.1589 36.6666 26.6665 38.1591 26.6665 40V66.6667H20V54.4444C20 52.6035 18.5076 51.1111 16.6667 51.1111H3.33333C1.49244 51.1111 0 52.6035 0 54.4444V70C0 71.8409 1.49244 73.3333 3.33333 73.3333H16.6667H30H43.3333H56.6667H70C71.8409 73.3333 73.3334 71.8409 73.3334 70V26.6666H76.6667C78.0149 26.6666 79.2302 25.8544 79.7462 24.6089C80.2623 23.3635 79.9771 21.9297 79.0236 20.9764ZM6.66667 66.6667V57.7778H13.3333V66.6667H6.66667ZM33.3333 66.6667V43.3333H40V66.6667H33.3333ZM60 66.6667V23.3333C60 21.904 59.1002 20.6846 57.8365 20.2111L63.3334 14.7142L68.8302 20.2111C67.5665 20.6846 66.6667 21.904 66.6667 23.3333V66.6667H60Z" fill="#007BFC"/>
</g>
<defs>
<clipPath id="clip0_181_2884">
<rect width="80" height="80" fill="white"/>
</clipPath>
</defs>
</svg>
