<svg width="451" height="434" viewBox="0 0 451 434" fill="none" xmlns="http://www.w3.org/2000/svg">
<g clip-path="url(#clip0_492_189)">
<path d="M411.5 332.5V294.6C411.5 288 406.8 282.3 400.1 281.3L238.1 260.5V229.2C295.4 222.6 339.9 174.3 339.9 115.1C339.6 51.7 288.4 0.5 224.9 0.5C161.4 0.5 110.3 52.1 110.3 115.1C110.3 173.8 154.8 222.6 211.7 229.2V260.5L49.7 281.3C43.1 282.2 38.3 287.9 38.3 294.6V332.5C16.6 338.2 0 358.1 0 381.7C0 410.1 23.2 433.3 51.6 433.3C80 433.3 103.2 410.1 103.2 381.7C103.2 358 87.1 338.1 64.8 332.4V305.9L212.1 287V332.5C190.3 338.2 173.7 358.1 173.7 381.8C173.7 410.2 196.9 433.4 225.3 433.4C253.7 433.4 276.9 410.2 276.9 381.8C276.9 358.1 260.8 338.2 238.5 332.1V286.6L386 305.5V332C364.2 337.7 347.6 357.6 347.6 381.3C347.6 409.7 370.8 432.9 399.2 432.9C427.6 432.9 450.8 409.7 450.8 381.3C449.9 358.1 433.8 338.6 411.5 332.5ZM76.2 382.2C76.2 395.9 64.8 407.3 51.1 407.3C37.4 407.3 26 395.9 26 382.2C26 368.5 37.4 357.1 51.1 357.1C64.9 357.1 76.2 368.5 76.2 382.2ZM136.4 115.1C136.4 66.3 176.2 26.5 225 26.5C273.8 26.5 313.6 66.3 313.6 115.1C313.6 163.9 273.8 203.7 225 203.7C176.2 203.7 136.4 163.9 136.4 115.1ZM250 382.2C250 395.9 238.6 407.3 224.9 407.3C211.2 407.3 199.8 395.9 199.8 382.2C199.8 368.5 211.2 357.1 224.9 357.1C238.6 357.1 250 368.5 250 382.2ZM398.3 406.8C384.6 406.8 373.2 395.4 373.2 381.7C373.2 368 384.6 356.6 398.3 356.6C412 356.6 423.4 368 423.4 381.7C423.4 395.5 412 406.8 398.3 406.8Z" fill="#0E53BE"/>
<path d="M234.9 175.3V164.4C248.2 161.6 258.1 151.1 259.1 138.4C260 129.9 257.2 121.8 251.5 115.2C245.8 109 237.8 105.3 229.2 105.3H220.2C217.4 105.3 214.5 103.9 212.6 102C210.7 99.6 209.8 97.3 210.2 93.9C210.7 88.7 215.4 84.9 221.1 84.9H231.5C234.3 84.9 237.2 87.3 238.1 90.1C238.6 92 240 92.9 241.9 92.9H253.7C254.6 92.9 256.1 92.4 256.5 91.5C257.4 90.6 257.4 89.6 257.4 88.7C256 76.4 246.5 66.9 234.7 65.5V55C234.7 52.6 232.8 51.2 230.9 51.2H219.1C216.7 51.2 215.3 53.1 215.3 55V65.4C200.1 68.2 189.3 82 191.1 97.6C192.5 112.8 206.3 124.6 221.9 124.6H229.5C232.3 124.6 235.2 126 237.1 127.9C239 130.3 239.9 132.6 239.5 136C239 141.2 234.3 145.5 228.6 145.5H218.2C215.4 145.5 212.5 143.1 211.6 140.3C211.1 138.4 209.7 137.5 207.8 137.5H196C195.1 137.5 193.6 138 193.2 138.9C192.3 139.8 192.3 140.8 192.3 141.7C193.7 154 203.2 163.5 215 164.9V175.3C215 177.7 216.9 179.1 218.8 179.1H230.6C233 179 234.9 177.2 234.9 175.3Z" fill="#0E53BE"/>
</g>
<defs>
<clipPath id="clip0_492_189">
<rect width="450.9" height="432.9" fill="white" transform="translate(0 0.5)"/>
</clipPath>
</defs>
</svg>
