<svg width="45" height="45" viewBox="0 0 45 45" fill="none" xmlns="http://www.w3.org/2000/svg">
<path d="M40.4877 25.952C39.9644 25.5493 39.3553 25.2728 38.7078 25.1438C38.0603 25.0149 37.3917 25.037 36.7541 25.2084L29.3994 26.8994C29.5705 26.1766 29.5758 25.4244 29.4149 24.6993C29.2539 23.9741 28.931 23.2948 28.4701 22.7122C28.0093 22.1296 27.4226 21.6589 26.754 21.3353C26.0854 21.0117 25.3522 20.8437 24.6094 20.8438H15.8098C15.0708 20.8419 14.3388 20.9865 13.656 21.2692C12.9732 21.5519 12.3532 21.9671 11.8318 22.4908L7.85566 26.4688H2.8125C2.06658 26.4688 1.35121 26.7651 0.823762 27.2925C0.296316 27.82 0 28.5353 0 29.2813L0 36.3125C0 37.0584 0.296316 37.7738 0.823762 38.3012C1.35121 38.8287 2.06658 39.125 2.8125 39.125H21.0938C21.2087 39.1251 21.3233 39.1109 21.4348 39.0828L32.6848 36.2703C32.7565 36.2532 32.8265 36.2297 32.8939 36.2L39.7266 33.2926L39.8039 33.2574C40.4606 32.9293 41.0229 32.4394 41.4379 31.8339C41.8529 31.2284 42.1069 30.5272 42.176 29.7963C42.2451 29.0655 42.1271 28.3291 41.8329 27.6566C41.5388 26.984 41.0782 26.3974 40.4947 25.952H40.4877ZM2.8125 29.2813H7.03125V36.3125H2.8125V29.2813ZM38.5717 30.7244L31.892 33.5686L20.918 36.3125H9.84375V28.4568L13.8217 24.4807C14.0819 24.2184 14.3917 24.0104 14.733 23.8689C15.0743 23.7273 15.4403 23.6551 15.8098 23.6563H24.6094C25.1688 23.6563 25.7053 23.8785 26.1009 24.2741C26.4965 24.6697 26.7188 25.2062 26.7188 25.7656C26.7188 26.3251 26.4965 26.8616 26.1009 27.2572C25.7053 27.6528 25.1688 27.875 24.6094 27.875H19.6875C19.3145 27.875 18.9569 28.0232 18.6931 28.2869C18.4294 28.5506 18.2812 28.9083 18.2812 29.2813C18.2812 29.6542 18.4294 30.0119 18.6931 30.2756C18.9569 30.5393 19.3145 30.6875 19.6875 30.6875H25.3125C25.4183 30.6872 25.5238 30.6754 25.6271 30.6523L37.4045 27.9436L37.459 27.9295C37.8185 27.8297 38.2022 27.8664 38.5364 28.0325C38.8705 28.1986 39.1313 28.4824 39.2688 28.8293C39.4062 29.1761 39.4105 29.5616 39.2809 29.9115C39.1512 30.2613 38.8967 30.5509 38.5664 30.7244H38.5717ZM28.8281 18.0313C29.1756 18.0316 29.5224 18.0034 29.8652 17.9469C30.2508 19.0922 30.9563 20.1031 31.8982 20.8602C32.8401 21.6172 33.9791 22.0888 35.1805 22.219C36.382 22.3493 37.5955 22.1328 38.6778 21.5952C39.7601 21.0576 40.6658 20.2213 41.2879 19.1853C41.91 18.1492 42.2224 16.9567 42.1882 15.7487C42.154 14.5408 41.7746 13.3678 41.095 12.3686C40.4153 11.3694 39.4637 10.5857 38.3528 10.1102C37.2418 9.63465 36.0179 9.48716 34.8258 9.68516C34.4545 8.58168 33.786 7.60202 32.8939 6.85399C32.0017 6.10595 30.9205 5.61853 29.7692 5.44538C28.6179 5.27223 27.4411 5.42005 26.3684 5.87258C25.2957 6.3251 24.3686 7.0648 23.6892 8.01025C23.0098 8.95571 22.6043 10.0703 22.5175 11.2313C22.4307 12.3923 22.6659 13.5548 23.1972 14.5907C23.7284 15.6267 24.5352 16.4961 25.5287 17.1031C26.5222 17.7101 27.6639 18.0313 28.8281 18.0313ZM39.375 15.9219C39.375 16.6172 39.1688 17.2969 38.7825 17.8751C38.3962 18.4532 37.8471 18.9038 37.2047 19.1699C36.5624 19.436 35.8555 19.5056 35.1735 19.37C34.4915 19.2343 33.8651 18.8995 33.3735 18.4078C32.8818 17.9161 32.547 17.2897 32.4113 16.6077C32.2757 15.9258 32.3453 15.2189 32.6114 14.5765C32.8775 13.9341 33.3281 13.385 33.9062 12.9987C34.4843 12.6124 35.1641 12.4063 35.8594 12.4063C36.7918 12.4063 37.686 12.7766 38.3453 13.436C39.0046 14.0953 39.375 14.9895 39.375 15.9219ZM28.8281 8.1875C29.5951 8.18789 30.3408 8.43906 30.9518 8.90272C31.5627 9.36638 32.0052 10.0171 32.2119 10.7557C31.4917 11.2624 30.8852 11.914 30.4311 12.6685C29.9771 13.4231 29.6856 14.2642 29.5752 15.1379C29.3297 15.1909 29.0793 15.218 28.8281 15.2188C27.8957 15.2188 27.0015 14.8484 26.3422 14.189C25.6829 13.5297 25.3125 12.6355 25.3125 11.7031C25.3125 10.7707 25.6829 9.87651 26.3422 9.21721C27.0015 8.5579 27.8957 8.1875 28.8281 8.1875Z" fill="#0E53BE"/>
</svg>
