<?xml version="1.0" encoding="utf-8"?>
<!-- Generator: Adobe Illustrator 24.1.1, SVG Export Plug-In . SVG Version: 6.00 Build 0)  -->
<svg version="1.1" id="Layer_1" xmlns="http://www.w3.org/2000/svg" xmlns:xlink="http://www.w3.org/1999/xlink" x="0px" y="0px"
	 viewBox="0 0 450.9 432.9" style="enable-background:new 0 0 450.9 432.9;" xml:space="preserve">
<style type="text/css">
	.st0{fill:#007AFB;}
</style>
<g>
	<path class="st0" d="M411.5,332v-37.9c0-6.6-4.7-12.3-11.4-13.3l-162-20.8v-31.3c57.3-6.6,101.8-54.9,101.8-114.1
		C339.6,51.2,288.4,0,224.9,0S110.3,51.6,110.3,114.6c0,58.7,44.5,107.5,101.4,114.1V260l-162,20.8c-6.6,0.9-11.4,6.6-11.4,13.3V332
		C16.6,337.7,0,357.6,0,381.2c0,28.4,23.2,51.6,51.6,51.6s51.6-23.2,51.6-51.6c0-23.7-16.1-43.6-38.4-49.3v-26.5l147.3-18.9V332
		c-21.8,5.7-38.4,25.6-38.4,49.3c0,28.4,23.2,51.6,51.6,51.6s51.6-23.2,51.6-51.6c0-23.7-16.1-43.6-38.4-49.7v-45.5L386,305v26.5
		c-21.8,5.7-38.4,25.6-38.4,49.3c0,28.4,23.2,51.6,51.6,51.6c28.4,0,51.6-23.2,51.6-51.6C449.9,357.6,433.8,338.1,411.5,332
		L411.5,332z M76.2,381.7c0,13.7-11.4,25.1-25.1,25.1c-13.7,0-25.1-11.4-25.1-25.1s11.4-25.1,25.1-25.1
		C64.9,356.6,76.2,368,76.2,381.7z M136.4,114.6c0-48.8,39.8-88.6,88.6-88.6s88.6,39.8,88.6,88.6c0,48.8-39.8,88.6-88.6,88.6
		C176.2,203.2,136.4,163.4,136.4,114.6L136.4,114.6z M250,381.7c0,13.7-11.4,25.1-25.1,25.1s-25.1-11.4-25.1-25.1
		s11.4-25.1,25.1-25.1S250,368,250,381.7z M398.3,406.3c-13.7,0-25.1-11.4-25.1-25.1c0-13.7,11.4-25.1,25.1-25.1
		s25.1,11.4,25.1,25.1C423.4,395,412,406.3,398.3,406.3z"/>
	<path class="st0" d="M234.9,174.8v-10.9c13.3-2.8,23.2-13.3,24.2-26c0.9-8.5-1.9-16.6-7.6-23.2c-5.7-6.2-13.7-9.9-22.3-9.9h-9
		c-2.8,0-5.7-1.4-7.6-3.3c-1.9-2.4-2.8-4.7-2.4-8.1c0.5-5.2,5.2-9,10.9-9h10.4c2.8,0,5.7,2.4,6.6,5.2c0.5,1.9,1.9,2.8,3.8,2.8h11.8
		c0.9,0,2.4-0.5,2.8-1.4c0.9-0.9,0.9-1.9,0.9-2.8c-1.4-12.3-10.9-21.8-22.7-23.2V54.5c0-2.4-1.9-3.8-3.8-3.8h-11.8
		c-2.4,0-3.8,1.9-3.8,3.8v10.4c-15.2,2.8-26,16.6-24.2,32.2c1.4,15.2,15.2,27,30.8,27h7.6c2.8,0,5.7,1.4,7.6,3.3
		c1.9,2.4,2.8,4.7,2.4,8.1c-0.5,5.2-5.2,9.5-10.9,9.5h-10.4c-2.8,0-5.7-2.4-6.6-5.2c-0.5-1.9-1.9-2.8-3.8-2.8h-11.8
		c-0.9,0-2.4,0.5-2.8,1.4c-0.9,0.9-0.9,1.9-0.9,2.8c1.4,12.3,10.9,21.8,22.7,23.2v10.4c0,2.4,1.9,3.8,3.8,3.8h11.8
		C233,178.5,234.9,176.7,234.9,174.8L234.9,174.8z"/>
</g>
</svg>
