<svg width="45" height="46" viewBox="0 0 45 46" fill="none" xmlns="http://www.w3.org/2000/svg">
<path d="M39.375 13.5234H36.5625V12.1172C36.5625 10.9983 36.118 9.92525 35.3269 9.13408C34.5357 8.34291 33.4626 7.89844 32.3438 7.89844H7.03125C5.91237 7.89844 4.83931 8.34291 4.04814 9.13408C3.25697 9.92525 2.8125 10.9983 2.8125 12.1172V28.9922C2.8125 30.1111 3.25697 31.1841 4.04814 31.9753C4.83931 32.7665 5.91237 33.2109 7.03125 33.2109H26.7188V34.6172C26.7188 35.7361 27.1632 36.8091 27.9544 37.6003C28.7456 38.3915 29.8186 38.8359 30.9375 38.8359H39.375C40.4939 38.8359 41.5669 38.3915 42.3581 37.6003C43.1493 36.8091 43.5938 35.7361 43.5938 34.6172V17.7422C43.5937 16.6233 43.1493 15.5502 42.3581 14.7591C41.5669 13.9679 40.4939 13.5234 39.375 13.5234ZM7.03125 30.3984C6.65829 30.3984 6.3006 30.2503 6.03688 29.9866C5.77316 29.7228 5.625 29.3651 5.625 28.9922V12.1172C5.625 11.7442 5.77316 11.3865 6.03688 11.1228C6.3006 10.8591 6.65829 10.7109 7.03125 10.7109H32.3438C32.7167 10.7109 33.0744 10.8591 33.3381 11.1228C33.6018 11.3865 33.75 11.7442 33.75 12.1172V13.5234H30.9375C29.8186 13.5234 28.7456 13.9679 27.9544 14.7591C27.1632 15.5502 26.7188 16.6233 26.7188 17.7422V30.3984H7.03125ZM40.7812 34.6172C40.7812 34.9901 40.6331 35.3478 40.3694 35.6116C40.1056 35.8753 39.748 36.0234 39.375 36.0234H30.9375C30.5645 36.0234 30.2069 35.8753 29.9431 35.6116C29.6794 35.3478 29.5312 34.9901 29.5312 34.6172V17.7422C29.5312 17.3692 29.6794 17.0115 29.9431 16.7478C30.2069 16.4841 30.5645 16.3359 30.9375 16.3359H39.375C39.748 16.3359 40.1056 16.4841 40.3694 16.7478C40.6331 17.0115 40.7812 17.3692 40.7812 17.7422V34.6172ZM23.9062 37.4297C23.9062 37.8026 23.7581 38.1603 23.4944 38.4241C23.2306 38.6878 22.873 38.8359 22.5 38.8359H15.4688C15.0958 38.8359 14.7381 38.6878 14.4744 38.4241C14.2107 38.1603 14.0625 37.8026 14.0625 37.4297C14.0625 37.0567 14.2107 36.699 14.4744 36.4353C14.7381 36.1716 15.0958 36.0234 15.4688 36.0234H22.5C22.873 36.0234 23.2306 36.1716 23.4944 36.4353C23.7581 36.699 23.9062 37.0567 23.9062 37.4297ZM37.9688 20.5547C37.9688 20.9276 37.8206 21.2853 37.5569 21.5491C37.2931 21.8128 36.9355 21.9609 36.5625 21.9609H33.75C33.377 21.9609 33.0194 21.8128 32.7556 21.5491C32.4919 21.2853 32.3438 20.9276 32.3438 20.5547C32.3438 20.1817 32.4919 19.824 32.7556 19.5603C33.0194 19.2966 33.377 19.1484 33.75 19.1484H36.5625C36.9355 19.1484 37.2931 19.2966 37.5569 19.5603C37.8206 19.824 37.9688 20.1817 37.9688 20.5547Z" fill="#0E53BE"/>
</svg>
