<svg width="436" height="334" viewBox="0 0 436 334" fill="none" xmlns="http://www.w3.org/2000/svg">
<g clip-path="url(#clip0_492_168)">
<path d="M46.4 0.5V107.5H21.3C15.6 107.5 10.2 109.7 6.2 113.7C2.2 117.7 0 123.1 0 128.8V284.1C0 289.8 2.2 295.2 6.2 299.2C10.2 303.2 15.6 305.4 21.3 305.4H107C112.7 305.4 118.1 303.2 122.1 299.2C126.1 295.2 128.3 289.8 128.3 284.1V265.6H170.4V314.9H141V333.8H308.2V314.9H278.8V265.6H323.8V283.6C323.7 289.4 325.9 295 330 299.1C334.1 303.2 339.7 305.5 345.5 305.3H414.2C419.9 305.3 425.3 303.1 429.3 299.1C433.3 295.1 435.5 289.7 435.5 284V145.9C435.5 140.2 433.3 134.8 429.3 130.8C425.3 126.8 419.9 124.6 414.2 124.6H403V0.5H46.4ZM65.4 19.4H384.1V124.5H345.7C340 124.5 334.6 126.7 330.6 130.7C326.6 134.7 324.4 140.1 324.4 145.8V186.5H128.3V128.7C128.3 123 126.1 117.6 122.1 113.6C118.1 109.6 112.7 107.4 107 107.4H65.4V19.4ZM21.3 126.5H107C107.6 126.5 108.2 126.8 108.7 127.2C109.1 127.6 109.4 128.2 109.4 128.9V250.1H18.9V128.8C18.9 127.5 20 126.5 21.3 126.5ZM107 286.5H21.3C20 286.5 18.9 285.4 18.9 284.1V268.9H109.4V284.1C109.4 284.7 109.1 285.3 108.7 285.8C108.3 286.3 107.7 286.5 107 286.5ZM260 315H189.4V265.7H260V315ZM278.9 247.2H128.3V205.5H324.4V246.7L278.9 247.2ZM414.4 286.5H345.7C344.4 286.5 343.3 285.4 343.3 284.1V268.9H416.7V284.1C416.7 284.7 416.4 285.3 416 285.8C415.6 286.3 415 286.5 414.4 286.5ZM416.8 145.9V250.1H343.4V145.9C343.4 144.6 344.5 143.5 345.8 143.5H414.5C415.1 143.5 415.7 143.7 416.2 144.2C416.5 144.7 416.8 145.3 416.8 145.9Z" fill="#0E53BE"/>
</g>
<defs>
<clipPath id="clip0_492_168">
<rect width="435.7" height="333.4" fill="white" transform="translate(0 0.5)"/>
</clipPath>
</defs>
</svg>
