<?xml version="1.0" encoding="utf-8"?>
<!-- Generator: Adobe Illustrator 24.1.1, SVG Export Plug-In . SVG Version: 6.00 Build 0)  -->
<svg version="1.1" id="Layer_1" xmlns="http://www.w3.org/2000/svg" xmlns:xlink="http://www.w3.org/1999/xlink" x="0px" y="0px"
	 viewBox="0 0 435.7 333.4" style="enable-background:new 0 0 435.7 333.4;" xml:space="preserve">
<style type="text/css">
	.st0{fill:#007AFB;}
</style>
<path class="st0" d="M46.4,0v107H21.3c-5.7,0-11.1,2.2-15.1,6.2c-4,4-6.2,9.4-6.2,15.1v155.3c0,5.7,2.2,11.1,6.2,15.1
	c4,4,9.4,6.2,15.1,6.2H107c5.7,0,11.1-2.2,15.1-6.2c4-4,6.2-9.4,6.2-15.1v-18.5h42.1v49.3h-29.4v18.9l167.2,0v-18.9l-29.4,0v-49.3
	h45v18c-0.1,5.8,2.1,11.4,6.2,15.5c4.1,4.1,9.7,6.4,15.5,6.2h68.7c5.7,0,11.1-2.2,15.1-6.2c4-4,6.2-9.4,6.2-15.1V145.4
	c0-5.7-2.2-11.1-6.2-15.1c-4-4-9.4-6.2-15.1-6.2H403V0L46.4,0z M65.4,18.9l318.7,0v105.1h-38.4c-5.7,0-11.1,2.2-15.1,6.2
	c-4,4-6.2,9.4-6.2,15.1v40.7H128.3v-57.8c0-5.7-2.2-11.1-6.2-15.1c-4-4-9.4-6.2-15.1-6.2H65.4L65.4,18.9z M21.3,126H107
	c0.6,0,1.2,0.3,1.7,0.7c0.4,0.4,0.7,1,0.7,1.7v121.2H18.9V128.3C18.9,127,20,126,21.3,126L21.3,126z M107,286H21.3
	c-1.3,0-2.4-1.1-2.4-2.4v-15.2h90.5v15.2c0,0.6-0.3,1.2-0.7,1.7C108.3,285.8,107.7,286,107,286L107,286z M260,314.5h-70.6v-49.3H260
	V314.5z M278.9,246.7H128.3v-41.7h196.1v41.2L278.9,246.7z M414.4,286h-68.7c-1.3,0-2.4-1.1-2.4-2.4v-15.2h73.4v15.2
	c0,0.6-0.3,1.2-0.7,1.7C415.6,285.8,415,286,414.4,286L414.4,286z M416.8,145.4v104.2h-73.4V145.4c0-1.3,1.1-2.4,2.4-2.4h68.7
	c0.6,0,1.2,0.2,1.7,0.7C416.5,144.2,416.8,144.8,416.8,145.4L416.8,145.4z"/>
</svg>
