<svg width="398" height="399" viewBox="0 0 398 399" fill="none" xmlns="http://www.w3.org/2000/svg">
<g clip-path="url(#clip0_492_181)">
<path d="M383.6 327.3H196.9C190.5 302.9 168.5 284.7 142.1 284.7C115.7 284.7 93.6 302.9 87.3 327.3H14.2C6.4 327.3 0 333.6 0 341.5C0 349.3 6.4 355.7 14.2 355.7H87.3C93.7 380.1 115.7 398.3 142.1 398.3C168.5 398.3 190.6 380.1 196.9 355.7H383.6C391.5 355.7 397.8 349.3 397.8 341.5C397.8 333.6 391.5 327.3 383.6 327.3ZM142.1 369.9C126.4 369.9 113.7 357.2 113.7 341.5C113.7 325.8 126.5 313.1 142.1 313.1C157.8 313.1 170.5 325.8 170.5 341.5C170.5 357.2 157.7 369.9 142.1 369.9ZM383.6 185.2H310.5C304.1 160.8 282.1 142.6 255.7 142.6C229.3 142.6 207.2 160.8 200.9 185.2H14.2C6.3 185.2 0 191.6 0 199.4C0 207.2 6.4 213.6 14.2 213.6H200.9C207.3 238 229.3 256.2 255.7 256.2C282.1 256.2 304.2 238 310.5 213.6H383.6C391.5 213.6 397.8 207.2 397.8 199.4C397.8 191.6 391.5 185.2 383.6 185.2ZM255.7 227.8C240 227.8 227.3 215.1 227.3 199.4C227.3 183.7 240.1 171 255.7 171C271.4 171 284.1 183.7 284.1 199.4C284.2 215.1 271.4 227.8 255.7 227.8ZM14.2 71.5H87.3C93.7 95.9 115.7 114.1 142.1 114.1C168.5 114.1 190.6 95.9 196.9 71.5H383.6C391.5 71.5 397.8 65.1 397.8 57.3C397.8 49.5 391.4 43.1 383.6 43.1H196.9C190.5 18.7 168.5 0.5 142.1 0.5C115.7 0.5 93.6 18.7 87.3 43.1H14.2C6.4 43.1 0 49.5 0 57.3C0 65.2 6.4 71.5 14.2 71.5ZM142.1 28.9C157.8 28.9 170.5 41.6 170.5 57.3C170.5 73 157.7 85.7 142.1 85.7C126.4 85.7 113.7 73 113.7 57.3C113.7 41.7 126.4 28.9 142.1 28.9Z" fill="#0E53BE"/>
</g>
<defs>
<clipPath id="clip0_492_181">
<rect width="397.8" height="397.8" fill="white" transform="translate(0 0.5)"/>
</clipPath>
</defs>
</svg>
