<?xml version="1.0" encoding="utf-8"?>
<!-- Generator: Adobe Illustrator 24.1.1, SVG Export Plug-In . SVG Version: 6.00 Build 0)  -->
<svg version="1.1" id="Layer_1" xmlns="http://www.w3.org/2000/svg" xmlns:xlink="http://www.w3.org/1999/xlink" x="0px" y="0px"
	 viewBox="0 0 397.8 397.8" style="enable-background:new 0 0 397.8 397.8;" xml:space="preserve">
<style type="text/css">
	.st0{fill:#007AFB;}
</style>
<path class="st0" d="M383.6,326.8H196.9c-6.4-24.4-28.4-42.6-54.8-42.6s-48.5,18.2-54.8,42.6H14.2C6.4,326.8,0,333.1,0,341
	c0,7.8,6.4,14.2,14.2,14.2h73.1c6.4,24.4,28.4,42.6,54.8,42.6s48.5-18.2,54.8-42.6h186.7c7.9,0,14.2-6.4,14.2-14.2
	C397.8,333.1,391.5,326.8,383.6,326.8L383.6,326.8z M142.1,369.4c-15.7,0-28.4-12.7-28.4-28.4s12.8-28.4,28.4-28.4
	c15.7,0,28.4,12.7,28.4,28.4C170.5,356.7,157.7,369.4,142.1,369.4z M383.6,184.7h-73.1c-6.4-24.4-28.4-42.6-54.8-42.6
	s-48.5,18.2-54.8,42.6H14.2c-7.9,0-14.2,6.4-14.2,14.2s6.4,14.2,14.2,14.2h186.7c6.4,24.4,28.4,42.6,54.8,42.6s48.5-18.2,54.8-42.6
	h73.1c7.9,0,14.2-6.4,14.2-14.2S391.5,184.7,383.6,184.7z M255.7,227.3c-15.7,0-28.4-12.7-28.4-28.4s12.8-28.4,28.4-28.4
	c15.7,0,28.4,12.7,28.4,28.4C284.2,214.6,271.4,227.3,255.7,227.3z M14.2,71h73.1c6.4,24.4,28.4,42.6,54.8,42.6s48.5-18.2,54.8-42.6
	h186.7c7.9,0,14.2-6.4,14.2-14.2c0-7.8-6.4-14.2-14.2-14.2H196.9C190.5,18.2,168.5,0,142.1,0S93.6,18.2,87.3,42.6H14.2
	C6.4,42.6,0,49,0,56.8C0,64.7,6.4,71,14.2,71L14.2,71z M142.1,28.4c15.7,0,28.4,12.7,28.4,28.4s-12.8,28.4-28.4,28.4
	c-15.7,0-28.4-12.7-28.4-28.4C113.7,41.2,126.4,28.4,142.1,28.4L142.1,28.4z"/>
</svg>
