<?xml version="1.0" encoding="utf-8"?>
<!-- Generator: Adobe Illustrator 24.1.1, SVG Export Plug-In . SVG Version: 6.00 Build 0)  -->
<svg version="1.1" id="Layer_1" xmlns="http://www.w3.org/2000/svg" xmlns:xlink="http://www.w3.org/1999/xlink" x="0px" y="0px"
	 viewBox="0 0 449.1 453.9" style="enable-background:new 0 0 449.1 453.9;" xml:space="preserve">
<style type="text/css">
	.st0{fill:#007AFB;}
</style>
<g>
	<path class="st0" d="M14.8,453.9h128.5c8.2,0,14.8-6.6,14.8-14.8V237c0-8.2-6.6-14.8-14.8-14.8l-128.5,0C6.6,222.2,0,228.9,0,237
		l0,202C0,447.2,6.6,453.8,14.8,453.9L14.8,453.9z M29.6,424.3v-31.4h98.9v31.4H29.6z M128.5,251.8v111.4H29.6V251.8H128.5z"/>
	<path class="st0" d="M399.8,239.4v-129h34.5c8.2,0,14.8-6.6,14.8-14.8c0-8.2-6.6-14.8-14.8-14.8h-34.5v-66C399.8,6.6,393.1,0,385,0
		H257.5c-8.2,0-14.8,6.6-14.8,14.8v224.6c0,8.2,6.6,14.8,14.8,14.8H385C393.1,254.2,399.8,247.6,399.8,239.4L399.8,239.4z
		 M272.3,224.6v-195h97.9v51.2h-51.3c-8.2,0-14.8,6.6-14.8,14.8c0,8.2,6.6,14.8,14.8,14.8h51.3v114.2L272.3,224.6z"/>
	<path class="st0" d="M335.5,182.5c0,8.2-6.5,14.8-14.6,14.8s-14.6-6.6-14.6-14.8c0-8.2,6.5-14.8,14.6-14.8S335.5,174.4,335.5,182.5
		"/>
	<path class="st0" d="M306.1,305.9v37.5h-78.8c-8.2,0-14.8,6.6-14.8,14.8s6.6,14.8,14.8,14.8h93.6c8.2,0,14.8-6.6,14.8-14.8l0-52.3
		c0-8.2-6.6-14.8-14.8-14.8C312.7,291.1,306.1,297.7,306.1,305.9L306.1,305.9z"/>
	<path class="st0" d="M59.4,166.9c0,8.2,6.6,14.8,14.8,14.8S89,175.1,89,166.9v-65.7h97.9c8.2,0,14.8-6.6,14.8-14.8
		s-6.6-14.8-14.8-14.8H74.2c-8.2,0-14.8,6.6-14.8,14.8L59.4,166.9z"/>
</g>
</svg>
