<svg width="450" height="455" viewBox="0 0 450 455" fill="none" xmlns="http://www.w3.org/2000/svg">
<g clip-path="url(#clip0_492_137)">
<path d="M14.8 454.4H143.3C151.5 454.4 158.1 447.8 158.1 439.6V237.5C158.1 229.3 151.5 222.7 143.3 222.7H14.8C6.6 222.7 0 229.4 0 237.5V439.5C0 447.7 6.6 454.3 14.8 454.4ZM29.6 424.8V393.4H128.5V424.8H29.6ZM128.5 252.3V363.7H29.6V252.3H128.5Z" fill="#0E53BE"/>
<path d="M399.8 239.9V110.9H434.3C442.5 110.9 449.1 104.3 449.1 96.1C449.1 87.9 442.5 81.3 434.3 81.3H399.8V15.3C399.8 7.1 393.1 0.5 385 0.5H257.5C249.3 0.5 242.7 7.1 242.7 15.3V239.9C242.7 248.1 249.3 254.7 257.5 254.7H385C393.1 254.7 399.8 248.1 399.8 239.9ZM272.3 225.1V30.1H370.2V81.3H318.9C310.7 81.3 304.1 87.9 304.1 96.1C304.1 104.3 310.7 110.9 318.9 110.9H370.2V225.1H272.3Z" fill="#0E53BE"/>
<path d="M335.5 183C335.5 191.2 329 197.8 320.9 197.8C312.8 197.8 306.3 191.2 306.3 183C306.3 174.8 312.8 168.2 320.9 168.2C329 168.2 335.5 174.9 335.5 183Z" fill="#0E53BE"/>
<path d="M306.1 306.4V343.9H227.3C219.1 343.9 212.5 350.5 212.5 358.7C212.5 366.9 219.1 373.5 227.3 373.5H320.9C329.1 373.5 335.7 366.9 335.7 358.7V306.4C335.7 298.2 329.1 291.6 320.9 291.6C312.7 291.6 306.1 298.2 306.1 306.4Z" fill="#0E53BE"/>
<path d="M59.4 167.4C59.4 175.6 66 182.2 74.2 182.2C82.4 182.2 89 175.6 89 167.4V101.7H186.9C195.1 101.7 201.7 95.1 201.7 86.9C201.7 78.7 195.1 72.1 186.9 72.1H74.2C66 72.1 59.4 78.7 59.4 86.9V167.4Z" fill="#0E53BE"/>
</g>
<defs>
<clipPath id="clip0_492_137">
<rect width="449.1" height="453.9" fill="white" transform="translate(0 0.5)"/>
</clipPath>
</defs>
</svg>
