<?xml version="1.0" encoding="utf-8"?>
<!-- Generator: Adobe Illustrator 24.1.1, SVG Export Plug-In . SVG Version: 6.00 Build 0)  -->
<svg version="1.1" id="Layer_1" xmlns="http://www.w3.org/2000/svg" xmlns:xlink="http://www.w3.org/1999/xlink" x="0px" y="0px"
	 viewBox="0 0 359.3 449.9" style="enable-background:new 0 0 359.3 449.9;" xml:space="preserve">
<style type="text/css">
	.st0{fill:#007AFB;}
</style>
<g>
	<path class="st0" d="M287.9,239.2h-97.6c-7.1,0-12.3,5.7-12.3,12.3c0,6.6,5.7,12.3,12.3,12.3h97.6c7.1,0,12.3-5.7,12.3-12.3
		C300.3,244.8,295,239.2,287.9,239.2z"/>
	<path class="st0" d="M287.9,301.2h-97.6c-7.1,0-12.3,5.7-12.3,12.3s5.7,12.3,12.3,12.3h97.6c7.1,0,12.3-5.7,12.3-12.3
		C300.3,306.9,295,301.2,287.9,301.2z"/>
	<path class="st0" d="M287.9,363.2h-97.6c-7.1,0-12.3,5.7-12.3,12.3s5.7,12.3,12.3,12.3h97.6c7.1,0,12.3-5.7,12.3-12.3
		C300.3,368.9,295,363.2,287.9,363.2z"/>
	<path class="st0" d="M146.3,239.2H135c-7.1,0-12.3,5.7-12.3,12.3c0,6.6,5.7,12.3,12.3,12.3h11.4c7.1,0,12.3-5.7,12.3-12.3
		C158.7,244.8,153.4,239.2,146.3,239.2z"/>
	<path class="st0" d="M146.3,301.2H135c-7.1,0-12.3,5.7-12.3,12.3s5.7,12.3,12.3,12.3h11.4c7.1,0,12.3-5.7,12.3-12.3
		S153.4,301.2,146.3,301.2z"/>
	<path class="st0" d="M146.3,363.2H135c-7.1,0-12.3,5.7-12.3,12.3s5.7,12.3,12.3,12.3h11.4c7.1,0,12.3-5.7,12.3-12.3
		S153.4,363.2,146.3,363.2z"/>
	<path class="st0" d="M356.1,170.5l-84.8-84.8c-2.4-2.4-5.7-3.8-9-3.8h-57.3C195.1,35.5,153.4,0,103.7,0C46.9,0,0,46.4,0,103.7
		c0,42.6,26,79.6,63,95.2v238.7c0,7.1,5.7,12.3,12.3,12.3h271.4c7.1,0,12.3-5.7,12.3-12.3l0-258.1
		C359.9,176.2,358.5,172.8,356.1,170.5L356.1,170.5z M264.7,114.1l63,63h-63V114.1z M25.1,103.7c0-43.6,35-78.6,78.6-78.6
		c43.6,0,78.6,35,78.6,78.6c0,43.6-35,78.6-78.6,78.6S25.1,146.8,25.1,103.7z M88.6,424.8V206c5.2,0.9,9.9,1.4,15.6,1.4
		c55.9,0,101.4-44.5,103.2-99.9h32.7v82.9c0,7.1,5.7,12.3,12.3,12.3h82.9v222.6H88.6L88.6,424.8z"/>
	<path class="st0" d="M147.3,72c-4.7-4.7-12.8-4.7-17.5,0l-36.5,36.5L78.1,93.3c-4.7-4.7-12.8-4.7-17.5,0c-4.7,4.7-4.7,12.8,0,17.5
		l23.7,23.7c2.4,2.4,5.7,3.8,9,3.8c3.3,0,6.6-1.4,9-3.8L147.8,89C152,84.8,152,76.7,147.3,72L147.3,72z"/>
</g>
</svg>
