<svg width="360" height="450" viewBox="0 0 360 450" fill="none" xmlns="http://www.w3.org/2000/svg">
<g clip-path="url(#clip0_493_357)">
<path d="M287.9 239.2H190.3C183.2 239.2 178 244.9 178 251.5C178 258.1 183.7 263.8 190.3 263.8H287.9C295 263.8 300.2 258.1 300.2 251.5C300.3 244.8 295 239.2 287.9 239.2Z" fill="#0E53BE"/>
<path d="M287.9 301.2H190.3C183.2 301.2 178 306.9 178 313.5C178 320.1 183.7 325.8 190.3 325.8H287.9C295 325.8 300.2 320.1 300.2 313.5C300.3 306.9 295 301.2 287.9 301.2Z" fill="#0E53BE"/>
<path d="M287.9 363.2H190.3C183.2 363.2 178 368.9 178 375.5C178 382.1 183.7 387.8 190.3 387.8H287.9C295 387.8 300.2 382.1 300.2 375.5C300.3 368.9 295 363.2 287.9 363.2Z" fill="#0E53BE"/>
<path d="M146.3 239.2H135C127.9 239.2 122.7 244.9 122.7 251.5C122.7 258.1 128.4 263.8 135 263.8H146.4C153.5 263.8 158.7 258.1 158.7 251.5C158.7 244.8 153.4 239.2 146.3 239.2Z" fill="#0E53BE"/>
<path d="M146.3 301.2H135C127.9 301.2 122.7 306.9 122.7 313.5C122.7 320.1 128.4 325.8 135 325.8H146.4C153.5 325.8 158.7 320.1 158.7 313.5C158.7 306.9 153.4 301.2 146.3 301.2Z" fill="#0E53BE"/>
<path d="M146.3 363.2H135C127.9 363.2 122.7 368.9 122.7 375.5C122.7 382.1 128.4 387.8 135 387.8H146.4C153.5 387.8 158.7 382.1 158.7 375.5C158.7 368.9 153.4 363.2 146.3 363.2Z" fill="#0E53BE"/>
<path d="M356.1 170.5L271.3 85.7C268.9 83.3 265.6 81.9 262.3 81.9H205C195.1 35.5 153.4 0 103.7 0C46.9 0 0 46.4 0 103.7C0 146.3 26 183.3 63 198.9V437.6C63 444.7 68.7 449.9 75.3 449.9H346.7C353.8 449.9 359 444.2 359 437.6V179.5C359.9 176.2 358.5 172.8 356.1 170.5ZM264.7 114.1L327.7 177.1H264.7V114.1ZM25.1 103.7C25.1 60.1 60.1 25.1 103.7 25.1C147.3 25.1 182.3 60.1 182.3 103.7C182.3 147.3 147.3 182.3 103.7 182.3C60.1 182.3 25.1 146.8 25.1 103.7ZM88.6 424.8V206C93.8 206.9 98.5 207.4 104.2 207.4C160.1 207.4 205.6 162.9 207.4 107.5H240.1V190.4C240.1 197.5 245.8 202.7 252.4 202.7H335.3V425.3H88.6V424.8Z" fill="#0E53BE"/>
<path d="M147.3 72C142.6 67.3 134.5 67.3 129.8 72L93.3 108.5L78.1 93.3C73.4 88.6 65.3 88.6 60.6 93.3C55.9 98 55.9 106.1 60.6 110.8L84.3 134.5C86.7 136.9 90 138.3 93.3 138.3C96.6 138.3 99.9 136.9 102.3 134.5L147.8 89C152 84.8 152 76.7 147.3 72Z" fill="#0E53BE"/>
</g>
<defs>
<clipPath id="clip0_493_357">
<rect width="359.3" height="449.9" fill="white"/>
</clipPath>
</defs>
</svg>
