<svg width="45" height="45" viewBox="0 0 45 45" fill="none" xmlns="http://www.w3.org/2000/svg">
<path d="M23.9062 19.6875H8.4375C8.06454 19.6875 7.70685 19.8357 7.44313 20.0994C7.17941 20.3631 7.03125 20.7208 7.03125 21.0938V36.5625C7.03125 36.9355 7.17941 37.2931 7.44313 37.5569C7.70685 37.8206 8.06454 37.9688 8.4375 37.9688H23.9062C24.2792 37.9688 24.6369 37.8206 24.9006 37.5569C25.1643 37.2931 25.3125 36.9355 25.3125 36.5625V21.0938C25.3125 20.7208 25.1643 20.3631 24.9006 20.0994C24.6369 19.8357 24.2792 19.6875 23.9062 19.6875ZM22.5 35.1562H9.84375V22.5H22.5V35.1562ZM37.9688 32.3438V35.1562C37.9688 35.9022 37.6724 36.6175 37.145 37.145C36.6175 37.6724 35.9022 37.9688 35.1562 37.9688H30.9375C30.5645 37.9688 30.2069 37.8206 29.9431 37.5569C29.6794 37.2931 29.5312 36.9355 29.5312 36.5625C29.5312 36.1895 29.6794 35.8319 29.9431 35.5681C30.2069 35.3044 30.5645 35.1562 30.9375 35.1562H35.1562V32.3438C35.1562 31.9708 35.3044 31.6131 35.5681 31.3494C35.8319 31.0857 36.1895 30.9375 36.5625 30.9375C36.9355 30.9375 37.2931 31.0857 37.5569 31.3494C37.8206 31.6131 37.9688 31.9708 37.9688 32.3438ZM37.9688 19.6875V25.3125C37.9688 25.6855 37.8206 26.0431 37.5569 26.3069C37.2931 26.5706 36.9355 26.7188 36.5625 26.7188C36.1895 26.7188 35.8319 26.5706 35.5681 26.3069C35.3044 26.0431 35.1562 25.6855 35.1562 25.3125V19.6875C35.1562 19.3145 35.3044 18.9569 35.5681 18.6931C35.8319 18.4294 36.1895 18.2812 36.5625 18.2812C36.9355 18.2812 37.2931 18.4294 37.5569 18.6931C37.8206 18.9569 37.9688 19.3145 37.9688 19.6875ZM37.9688 9.84375V12.6562C37.9688 13.0292 37.8206 13.3869 37.5569 13.6506C37.2931 13.9143 36.9355 14.0625 36.5625 14.0625C36.1895 14.0625 35.8319 13.9143 35.5681 13.6506C35.3044 13.3869 35.1562 13.0292 35.1562 12.6562V9.84375H32.3438C31.9708 9.84375 31.6131 9.69559 31.3494 9.43187C31.0857 9.16815 30.9375 8.81046 30.9375 8.4375C30.9375 8.06454 31.0857 7.70685 31.3494 7.44313C31.6131 7.17941 31.9708 7.03125 32.3438 7.03125H35.1562C35.9022 7.03125 36.6175 7.32757 37.145 7.85501C37.6724 8.38246 37.9688 9.09783 37.9688 9.84375ZM26.7188 8.4375C26.7188 8.81046 26.5706 9.16815 26.3069 9.43187C26.0431 9.69559 25.6855 9.84375 25.3125 9.84375H19.6875C19.3145 9.84375 18.9569 9.69559 18.6931 9.43187C18.4294 9.16815 18.2812 8.81046 18.2812 8.4375C18.2812 8.06454 18.4294 7.70685 18.6931 7.44313C18.9569 7.17941 19.3145 7.03125 19.6875 7.03125H25.3125C25.6855 7.03125 26.0431 7.17941 26.3069 7.44313C26.5706 7.70685 26.7188 8.06454 26.7188 8.4375ZM7.03125 14.0625V9.84375C7.03125 9.09783 7.32757 8.38246 7.85501 7.85501C8.38246 7.32757 9.09783 7.03125 9.84375 7.03125H12.6562C13.0292 7.03125 13.3869 7.17941 13.6506 7.44313C13.9143 7.70685 14.0625 8.06454 14.0625 8.4375C14.0625 8.81046 13.9143 9.16815 13.6506 9.43187C13.3869 9.69559 13.0292 9.84375 12.6562 9.84375H9.84375V14.0625C9.84375 14.4355 9.69559 14.7931 9.43187 15.0569C9.16815 15.3206 8.81046 15.4688 8.4375 15.4688C8.06454 15.4688 7.70685 15.3206 7.44313 15.0569C7.17941 14.7931 7.03125 14.4355 7.03125 14.0625Z" fill="#0E53BE"/>
</svg>
