<svg width="343" height="351" viewBox="0 0 343 351" fill="none" xmlns="http://www.w3.org/2000/svg">
<g clip-path="url(#clip0_493_367)">
<path d="M257.4 234.9C240.7 234.9 227.2 248.4 227.2 265.1C227.2 281.8 240.7 295.3 257.4 295.3C274.1 295.3 287.6 281.8 287.6 265.1C287.6 248.4 274.1 234.9 257.4 234.9ZM257.4 279.6C249.4 279.6 243 273.1 243 265.2C243 257.3 249.5 250.8 257.4 250.8C265.3 250.8 271.8 257.3 271.8 265.2C271.8 273.1 265.4 279.6 257.4 279.6Z" fill="#0E53BE"/>
<path d="M321.3 311.7C323.1 313.1 325.4 313.6 327.6 313.2C329.8 312.8 331.7 311.4 332.9 309.4C337.1 302.3 340.2 294.8 342.2 287.1C342.8 284.9 342.4 282.6 341.1 280.7C339.8 278.8 337.8 277.6 335.6 277.3C329.5 276.5 324.9 271.3 324.9 265.1C324.9 258.9 329.5 253.7 335.6 252.9C337.9 252.6 339.9 251.4 341.1 249.5C342.4 247.6 342.8 245.3 342.2 243.1C340.1 235.2 337 227.7 333 220.8C331.9 218.9 329.9 217.5 327.7 217C325.5 216.6 323.2 217.1 321.4 218.5C316.5 222.3 309.6 221.8 305.2 217.4C300.9 213.1 300.4 206.1 304.1 201.2C305.5 199.4 306 197.1 305.6 194.9C305.2 192.7 303.8 190.8 301.8 189.6C298.7 187.8 295.5 186.2 292.3 184.8V7.7C292.3 3.4 288.7 -0.200001 284.4 -0.200001H56.4C54.5 -0.200001 52.6 0.499999 51.1 1.8L2.6 45.4C1 46.9 0 49.1 0 51.3V296.4C0 300.7 3.6 304.3 7.9 304.3H179.1C180 306.1 180.9 307.8 181.9 309.5C183 311.4 185 312.8 187.2 313.3C189.4 313.7 191.7 313.2 193.5 311.8C198.4 308 205.3 308.5 209.7 312.9C214 317.2 214.5 324.2 210.8 329.1C209.4 330.9 208.9 333.2 209.3 335.4C209.7 337.6 211.1 339.5 213.1 340.7C220.2 344.9 227.7 348 235.4 350C236.1 350.2 236.7 350.2 237.4 350.2C239 350.2 240.5 349.7 241.8 348.9C243.7 347.6 244.9 345.6 245.2 343.4C246 337.3 251.2 332.7 257.4 332.7C263.6 332.7 268.8 337.3 269.6 343.4C269.9 345.7 271.1 347.7 273 348.9C274.9 350.2 277.2 350.6 279.4 350C287.3 347.9 294.8 344.8 301.7 340.8C303.6 339.7 305 337.7 305.5 335.5C305.9 333.3 305.4 331 304 329.2C300.2 324.3 300.7 317.4 305.1 313C309.4 308.4 316.4 308 321.3 311.7ZM51.7 22.7V47H24.6L51.7 22.7ZM15.8 288.5V62.8H59.5C63.8 62.8 67.4 59.2 67.4 54.9V15.7H276.4V180.1C275.2 180.3 274 180.7 273 181.4C271.1 182.7 269.9 184.7 269.6 186.9C268.8 193 263.6 197.6 257.4 197.6C251.2 197.6 246 193 245.2 186.9C244.9 184.6 243.7 182.6 241.8 181.4C239.9 180.1 237.6 179.7 235.4 180.3C227.5 182.4 220 185.5 213.1 189.5C211.2 190.6 209.8 192.6 209.3 194.8C208.9 197 209.4 199.3 210.8 201.1C214.6 206 214.1 212.9 209.7 217.3C205.3 221.7 198.4 222.1 193.5 218.3C191.7 216.9 189.4 216.4 187.2 216.8C185 217.2 183.1 218.6 181.9 220.6C177.8 227.5 174.7 235 172.7 242.9C172.1 245.1 172.5 247.4 173.8 249.3C175.1 251.2 177.1 252.4 179.3 252.7C185.4 253.5 190 258.7 190 264.9C190 271.1 185.4 276.3 179.3 277.1C177 277.4 175 278.6 173.8 280.5C172.5 282.4 172.1 284.7 172.7 286.9C172.8 287.3 173 287.8 173.1 288.2H15.7L15.8 288.5ZM293.9 301.6C286.2 309.3 283.8 320.5 287.1 330.4C285.6 331.1 284.1 331.7 282.5 332.3C277.8 323 268.2 316.7 257.4 316.7C246.5 316.7 236.9 323 232.2 332.3C230.7 331.7 229.2 331.1 227.6 330.4C230.9 320.5 228.5 309.3 220.8 301.6C213.1 293.9 201.9 291.6 192 294.8C191.3 293.3 190.7 291.8 190.1 290.2C199.4 285.5 205.7 275.9 205.7 265.1C205.7 254.2 199.4 244.6 190.1 240C190.7 238.5 191.3 236.9 192 235.4C201.9 238.7 213.1 236.3 220.8 228.6C228.5 220.9 230.9 209.7 227.6 199.8C229.1 199.1 230.6 198.5 232.2 197.9C236.9 207.2 246.5 213.5 257.3 213.5C268.2 213.5 277.8 207.2 282.5 197.9C284 198.5 285.5 199.1 287.1 199.8C283.8 209.7 286.2 220.9 293.9 228.6C301.6 236.3 312.8 238.7 322.7 235.4C323.4 236.9 324 238.4 324.6 240C315.3 244.7 309 254.3 309 265.1C309 276 315.3 285.6 324.6 290.3C324 291.8 323.4 293.3 322.7 294.8C312.9 291.6 301.6 293.9 293.9 301.6Z" fill="#0E53BE"/>
<path d="M57.5 96.9H234.9C239.2 96.9 242.8 93.3 242.8 89C242.8 84.7 239.2 81.1 234.9 81.1H57.5C53.2 81.1 49.6 84.7 49.6 89C49.6 93.4 53.1 96.9 57.5 96.9Z" fill="#0E53BE"/>
<path d="M57.5 166.9H234.9C239.2 166.9 242.8 163.3 242.8 159C242.8 154.7 239.2 151.1 234.9 151.1H57.5C53.2 151.1 49.6 154.7 49.6 159C49.6 163.3 53.1 166.9 57.5 166.9Z" fill="#0E53BE"/>
<path d="M145.3 226H57.5C53.2 226 49.6 229.6 49.6 233.9C49.6 238.2 53.2 241.8 57.5 241.8H145.3C149.6 241.8 153.2 238.2 153.2 233.9C153.2 229.6 149.6 226 145.3 226Z" fill="#0E53BE"/>
</g>
<defs>
<clipPath id="clip0_493_367">
<rect width="342.4" height="350.1" fill="white"/>
</clipPath>
</defs>
</svg>
