<?xml version="1.0" encoding="utf-8"?>
<!-- Generator: Adobe Illustrator 24.1.1, SVG Export Plug-In . SVG Version: 6.00 Build 0)  -->
<svg version="1.1" id="Layer_1" xmlns="http://www.w3.org/2000/svg" xmlns:xlink="http://www.w3.org/1999/xlink" x="0px" y="0px"
	 viewBox="0 0 342.4 350.1" style="enable-background:new 0 0 342.4 350.1;" xml:space="preserve">
<style type="text/css">
	.st0{fill:#007AFB;}
</style>
<g>
	<path class="st0" d="M257.4,234.9c-16.7,0-30.2,13.5-30.2,30.2s13.5,30.2,30.2,30.2s30.2-13.5,30.2-30.2S274.1,234.9,257.4,234.9z
		 M257.4,279.6c-8,0-14.4-6.5-14.4-14.4s6.5-14.4,14.4-14.4s14.4,6.5,14.4,14.4S265.4,279.6,257.4,279.6z"/>
	<path class="st0" d="M321.3,311.7c1.8,1.4,4.1,1.9,6.3,1.5c2.2-0.4,4.1-1.8,5.3-3.8c4.2-7.1,7.3-14.6,9.3-22.3
		c0.6-2.2,0.2-4.5-1.1-6.4c-1.3-1.9-3.3-3.1-5.5-3.4c-6.1-0.8-10.7-6-10.7-12.2s4.6-11.4,10.7-12.2c2.3-0.3,4.3-1.5,5.5-3.4
		c1.3-1.9,1.7-4.2,1.1-6.4c-2.1-7.9-5.2-15.4-9.2-22.3c-1.1-1.9-3.1-3.3-5.3-3.8c-2.2-0.4-4.5,0.1-6.3,1.5
		c-4.9,3.8-11.8,3.3-16.2-1.1c-4.3-4.3-4.8-11.3-1.1-16.2c1.4-1.8,1.9-4.1,1.5-6.3c-0.4-2.2-1.8-4.1-3.8-5.3
		c-3.1-1.8-6.3-3.4-9.5-4.8l0-177.1c0-4.3-3.6-7.9-7.9-7.9h-228c-1.9,0-3.8,0.7-5.3,2L2.6,45.4C1,46.9,0,49.1,0,51.3v245.1
		c0,4.3,3.6,7.9,7.9,7.9h171.2c0.9,1.8,1.8,3.5,2.8,5.2c1.1,1.9,3.1,3.3,5.3,3.8c2.2,0.4,4.5-0.1,6.3-1.5c4.9-3.8,11.8-3.3,16.2,1.1
		c4.3,4.3,4.8,11.3,1.1,16.2c-1.4,1.8-1.9,4.1-1.5,6.3c0.4,2.2,1.8,4.1,3.8,5.3c7.1,4.2,14.6,7.3,22.3,9.3c0.7,0.2,1.3,0.2,2,0.2
		c1.6,0,3.1-0.5,4.4-1.3c1.9-1.3,3.1-3.3,3.4-5.5c0.8-6.1,6-10.7,12.2-10.7s11.4,4.6,12.2,10.7c0.3,2.3,1.5,4.3,3.4,5.5
		c1.9,1.3,4.2,1.7,6.4,1.1c7.9-2.1,15.4-5.2,22.3-9.2c1.9-1.1,3.3-3.1,3.8-5.3c0.4-2.2-0.1-4.5-1.5-6.3c-3.8-4.9-3.3-11.8,1.1-16.2
		C309.4,308.4,316.4,308,321.3,311.7L321.3,311.7z M51.7,22.7V47H24.6L51.7,22.7z M15.8,288.5V62.8h43.7c4.3,0,7.9-3.6,7.9-7.9V15.7
		h209v164.4c-1.2,0.2-2.4,0.6-3.4,1.3c-1.9,1.3-3.1,3.3-3.4,5.5c-0.8,6.1-6,10.7-12.2,10.7s-11.4-4.6-12.2-10.7
		c-0.3-2.3-1.5-4.3-3.4-5.5c-1.9-1.3-4.2-1.7-6.4-1.1c-7.9,2.1-15.4,5.2-22.3,9.2c-1.9,1.1-3.3,3.1-3.8,5.3
		c-0.4,2.2,0.1,4.5,1.5,6.3c3.8,4.9,3.3,11.8-1.1,16.2c-4.4,4.4-11.3,4.8-16.2,1c-1.8-1.4-4.1-1.9-6.3-1.5c-2.2,0.4-4.1,1.8-5.3,3.8
		c-4.1,6.9-7.2,14.4-9.2,22.3c-0.6,2.2-0.2,4.5,1.1,6.4c1.3,1.9,3.3,3.1,5.5,3.4c6.1,0.8,10.7,6,10.7,12.2s-4.6,11.4-10.7,12.2
		c-2.3,0.3-4.3,1.5-5.5,3.4c-1.3,1.9-1.7,4.2-1.1,6.4c0.1,0.4,0.3,0.9,0.4,1.3l-157.4,0L15.8,288.5z M293.9,301.6
		c-7.7,7.7-10.1,18.9-6.8,28.8c-1.5,0.7-3,1.3-4.6,1.9c-4.7-9.3-14.3-15.6-25.1-15.6c-10.9,0-20.5,6.3-25.2,15.6
		c-1.5-0.6-3-1.2-4.6-1.9c3.3-9.9,0.9-21.1-6.8-28.8c-7.7-7.7-18.9-10-28.8-6.8c-0.7-1.5-1.3-3-1.9-4.6c9.3-4.7,15.6-14.3,15.6-25.1
		c0-10.9-6.3-20.5-15.6-25.1c0.6-1.5,1.2-3.1,1.9-4.6c9.9,3.3,21.1,0.9,28.8-6.8c7.7-7.7,10.1-18.9,6.8-28.8c1.5-0.7,3-1.3,4.6-1.9
		c4.7,9.3,14.3,15.6,25.1,15.6c10.9,0,20.5-6.3,25.2-15.6c1.5,0.6,3,1.2,4.6,1.9c-3.3,9.9-0.9,21.1,6.8,28.8
		c7.7,7.7,18.9,10.1,28.8,6.8c0.7,1.5,1.3,3,1.9,4.6c-9.3,4.7-15.6,14.3-15.6,25.1c0,10.9,6.3,20.5,15.6,25.2
		c-0.6,1.5-1.2,3-1.9,4.5C312.9,291.6,301.6,293.9,293.9,301.6L293.9,301.6z"/>
	<path class="st0" d="M57.5,96.9h177.4c4.3,0,7.9-3.6,7.9-7.9c0-4.3-3.6-7.9-7.9-7.9l-177.4,0c-4.3,0-7.9,3.6-7.9,7.9
		C49.6,93.4,53.1,96.9,57.5,96.9L57.5,96.9z"/>
	<path class="st0" d="M57.5,166.9h177.4c4.3,0,7.9-3.6,7.9-7.9c0-4.3-3.6-7.9-7.9-7.9l-177.4,0c-4.3,0-7.9,3.6-7.9,7.9
		C49.6,163.3,53.1,166.9,57.5,166.9L57.5,166.9z"/>
	<path class="st0" d="M145.3,226H57.5c-4.3,0-7.9,3.6-7.9,7.9c0,4.3,3.6,7.9,7.9,7.9h87.8c4.3,0,7.9-3.6,7.9-7.9
		C153.2,229.6,149.6,226,145.3,226L145.3,226z"/>
</g>
</svg>
