<?xml version="1.0" encoding="utf-8"?>
<!-- Generator: Adobe Illustrator 24.1.1, SVG Export Plug-In . SVG Version: 6.00 Build 0)  -->
<svg version="1.1" id="Layer_1" xmlns="http://www.w3.org/2000/svg" xmlns:xlink="http://www.w3.org/1999/xlink" x="0px" y="0px"
	 viewBox="0 0 455.4 455.4" style="enable-background:new 0 0 455.4 455.4;" xml:space="preserve">
<style type="text/css">
	.st0{fill:#007AFB;}
</style>
<g>
	<path class="st0" d="M113.4,393c28.1,0,51-22.9,51-51c0-28.1-22.9-51-51-51c-28.1,0-51,22.9-51,51C62.4,370.1,85.3,393,113.4,393z
		 M113.4,309.2c18.1,0,32.8,14.7,32.8,32.8c0,18.1-14.7,32.8-32.8,32.8c-18.1,0-32.8-14.7-32.8-32.8
		C80.6,323.9,95.3,309.2,113.4,309.2z"/>
	<path class="st0" d="M7.8,368.8l15.8,2.3c1.5,4.7,3.4,9.3,5.7,13.7l-9.5,12.8c-2.7,3.6-2.3,8.7,0.9,11.9l25.2,25.2
		c3.2,3.2,8.2,3.6,11.9,0.9l12.8-9.5c4.5,2.3,9,4.2,13.7,5.7l2.3,15.8c0.7,4.5,4.5,7.8,9,7.8h35.7c4.5,0,8.4-3.3,9-7.8l2.3-15.8
		c4.7-1.5,9.3-3.4,13.7-5.6l12.8,9.5c3.6,2.7,8.7,2.3,11.9-0.9l25.2-25.2c3.2-3.2,3.6-8.2,0.9-11.9l-2.2-3h195.6c0.2,0,0.4,0,0.6,0
		c0.4,0,0.8,0.1,1.2,0.1c29.3,0,53.2-23.9,53.2-53.2v-55.9c0-5-4.1-9.1-9.1-9.1h-75.8V9.1c0-5-4.1-9.1-9.1-9.1L78.8,0
		c-5,0-9.1,4.1-9.1,9.1v248.1l-12-8.9c-3.6-2.7-8.7-2.3-11.9,0.9l-25.2,25.2c-3.2,3.2-3.6,8.3-0.9,11.9l9.5,12.8
		c-2.3,4.5-4.2,9-5.7,13.7l-15.8,2.3c-4.5,0.7-7.8,4.5-7.8,9v35.7C0,364.3,3.3,368.2,7.8,368.8L7.8,368.8z M437.2,294.7v45.2
		c0,19.9-16.1,36.1-36,36.5c-17-0.6-30.7-14.5-30.7-31.6v-50.1H437.2z M87.9,18.2h264.4v267.4c0,0,0,0,0,0.1v59.2
		c0,12,4.3,23,11.4,31.7H201.3c0.7-1.8,1.3-3.5,1.9-5.3l15.8-2.3c4.5-0.7,7.8-4.5,7.8-9v-23.3h93.7c5,0,9.1-4.1,9.1-9.1
		c0-5-4.1-9.1-9.1-9.1l-95.8,0c-1.4-1.7-3.4-2.9-5.7-3.2l-15.8-2.3c-1.5-4.6-3.4-9.2-5.7-13.7l9.5-12.8c2.7-3.6,2.3-8.7-0.9-11.9
		l-2.9-2.9h117.2c5,0,9.1-4.1,9.1-9.1c0-5-4.1-9.1-9.1-9.1l-135.4,0l-4.1-4.1c-3.2-3.2-8.2-3.6-11.9-0.9l-12.8,9.5
		c-4.4-2.3-9-4.1-13.7-5.6l-2.3-15.8c-0.7-4.5-4.5-7.8-9-7.8H95.5c-2.7,0-6,1.6-7.6,4.2L87.9,18.2z M18.2,332l13.8-2
		c3.7-0.5,6.6-3.2,7.5-6.8c1.7-7,4.5-13.6,8.4-20.1c1.9-3.2,1.7-7.2-0.5-10.1l-8.3-11.2l14.1-14.1l11.2,8.3
		c6.2,4.6,10.6-0.3,18.1-3.6c4-1.8,8-3.1,12.1-4.2c3.6-0.9,6.3-3.9,6.8-7.5l2-13.8h20l2,13.8c0.5,3.7,3.2,6.6,6.8,7.5
		c7,1.7,13.8,4.5,20.1,8.3c3.1,1.9,7.1,1.7,10.1-0.5l11.2-8.3l1.2,1.2l0,0l12.9,12.9l-8.3,11.2c-2.2,2.9-2.4,6.9-0.5,10
		c3.9,6.6,6.6,13.2,8.3,20.2c0.9,3.6,3.9,6.3,7.5,6.8l13.8,2v20l-13.8,2c-3.7,0.5-6.6,3.2-7.5,6.8c-1.7,6.9-4.4,13.5-8.3,20.2
		c-1.7,2.9-1.4,6.7,0,9.1c0.1,0.2,0.2,0.3,0.3,0.4c0.1,0.1,0.1,0.3,0.2,0.4l8.3,11.2l-14.1,14.1l-11.2-8.3c-3-2.2-6.9-2.4-10.1-0.5
		c-6.4,3.8-13.1,6.6-20.1,8.3c-3.6,0.9-6.3,3.9-6.8,7.5l-2,13.8h-20l-2-13.8c-0.5-3.7-3.2-6.6-6.8-7.5c-7-1.7-13.6-4.4-20.2-8.3
		c-3.1-1.8-7.1-1.6-10,0.5l-11.2,8.3l-14.1-14.1l8.3-11.2c2.2-3,2.4-6.9,0.5-10.1c-3.9-6.5-6.6-13.1-8.4-20.1
		c-0.9-3.6-3.9-6.3-7.5-6.8l-13.8-2L18.2,332z"/>
	<path class="st0" d="M119.8,76.3h127.4c5,0,9.1-4.1,9.1-9.1c0-5-4.1-9.1-9.1-9.1H119.8c-5,0-9.1,4.1-9.1,9.1
		C110.7,72.2,114.8,76.3,119.8,76.3z"/>
	<path class="st0" d="M119.8,141.4h200.6c5,0,9.1-4.1,9.1-9.1c0-5-4.1-9.1-9.1-9.1l-200.6,0c-5,0-9.1,4.1-9.1,9.1
		C110.7,137.3,114.8,141.4,119.8,141.4z"/>
	<path class="st0" d="M119.8,206.5h200.6c5,0,9.1-4.1,9.1-9.1c0-5-4.1-9.1-9.1-9.1l-200.6,0c-5,0-9.1,4.1-9.1,9.1
		C110.7,202.4,114.8,206.5,119.8,206.5z"/>
</g>
</svg>
