<svg width="24" height="24" viewBox="0 0 24 24" fill="none" xmlns="http://www.w3.org/2000/svg">
<mask id="mask0_4336_706" style="mask-type:luminance" maskUnits="userSpaceOnUse" x="2" y="2" width="20" height="20">
<path d="M21 12C21.0015 13.1854 20.768 14.3594 20.3132 15.4541C19.8583 16.5488 19.1911 17.5425 18.35 18.3779C17.5156 19.2106 16.5254 19.8708 15.4359 20.3207C14.3463 20.7706 13.1788 21.0015 12 21C7.02931 21 3.00001 16.9707 3.00001 12C2.99677 9.69229 3.88322 7.47213 5.47501 5.80126C6.31481 4.91496 7.32666 4.20939 8.44862 3.72772C9.57058 3.24605 10.779 2.99843 12 3.00001C13.1788 2.99855 14.3463 3.22938 15.4359 3.6793C16.5254 4.12922 17.5156 4.78941 18.35 5.62216C19.1911 6.45749 19.8583 7.45121 20.3132 8.5459C20.768 9.6406 21.0015 10.8146 21 12Z" fill="white" stroke="white" stroke-width="2" stroke-linecap="round" stroke-linejoin="round"/>
<path d="M21.0001 12C19.687 12 16.0645 11.505 12.8222 12.9284C9.30008 14.475 6.74993 16.8744 5.63843 18.3662" stroke="black" stroke-width="2" stroke-linecap="round" stroke-linejoin="round"/>
<path d="M8.625 3.6543C10.0335 4.95435 13.107 8.2641 14.25 11.55C15.393 14.8359 15.816 18.876 16.077 20.0257" stroke="black" stroke-width="2" stroke-linecap="round" stroke-linejoin="round"/>
<path d="M3.06909 10.875C4.76919 10.9776 9.26964 11.0698 12.1496 9.84C15.0296 8.61015 17.5078 6.348 18.3578 5.63025" stroke="black" stroke-width="2" stroke-linecap="round" stroke-linejoin="round"/>
<path d="M3.67501 15.4259C4.46818 17.3454 5.89842 18.9332 7.72501 19.9218M3.00001 12C2.99677 9.69229 3.88322 7.47213 5.47501 5.80126C6.31481 4.91496 7.32666 4.20939 8.44862 3.72772C9.57058 3.24605 10.779 2.99843 12 3.00001M15.6 3.74881C16.6251 4.19691 17.5577 4.83221 18.35 5.62216C19.1911 6.45749 19.8583 7.45121 20.3132 8.5459C20.768 9.6406 21.0015 10.8146 21 12C21 13.1079 20.7998 14.1695 20.433 15.15M12 21C13.1788 21.0015 14.3463 20.7706 15.4359 20.3207C16.5254 19.8708 17.5156 19.2106 18.35 18.3779" stroke="white" stroke-width="2" stroke-linecap="round" stroke-linejoin="round"/>
</mask>
<g mask="url(#mask0_4336_706)">
<path d="M1.2002 1.19995H22.8002V22.8H1.2002V1.19995Z" fill="#0E53BE"/>
</g>
</svg>
