<svg width="47" height="56" viewBox="0 0 47 56" fill="none" xmlns="http://www.w3.org/2000/svg">
<g clip-path="url(#clip0_492_195)">
<mask id="mask0_492_195" style="mask-type:luminance" maskUnits="userSpaceOnUse" x="0" y="0" width="47" height="56">
<path d="M46.6882 0.5H0V55.5H46.6882V0.5Z" fill="white"/>
</mask>
<g mask="url(#mask0_492_195)">
<path d="M11.57 28.7655C11.5521 28.7118 11.5342 28.6402 11.5253 28.5775C11.4268 27.7315 11.3328 26.7961 11.2478 25.9904C11.1314 24.8088 11.0016 23.4436 10.9076 22.4858C10.8449 21.8368 10.639 21.2191 10.3392 20.7581C10.1377 20.4627 9.91394 20.2433 9.66329 20.1359C9.46187 20.0554 9.2157 20.0464 8.96057 20.1449C8.61145 20.2792 8.22205 20.5611 7.78788 21.0535C7.40295 21.4921 7.10307 22.0785 6.85242 22.7006C6.49882 23.6092 6.28845 24.576 6.20341 25.2385C6.19446 25.2832 6.19446 25.319 6.17655 25.3548L3.76851 39.0243C3.73271 39.2033 3.66109 39.3644 3.55367 39.4898C2.74353 40.5326 2.23328 41.4278 2.08557 42.1529C1.97815 42.6856 2.08557 43.1152 2.43917 43.4509L11.3015 52.3132C11.8654 52.8548 12.5189 53.195 13.3022 53.3382C14.1571 53.4994 15.1552 53.4098 16.3011 53.0965C16.319 53.0965 16.3458 53.0876 16.3637 53.0876C16.7979 52.9712 17.3663 52.8325 17.9124 52.6937C20.2891 52.1163 22.3615 51.6061 24.2816 49.8604L26.7523 47.2823C26.7747 47.2376 26.815 47.2018 26.8508 47.166C26.8866 47.1301 27.1283 46.8884 27.455 46.5796C29.1469 44.928 31.2372 42.887 29.966 41.1011L28.9768 40.1119C28.4979 40.5774 27.9877 41.0295 27.4998 41.4636C27.0522 41.8575 26.6359 42.2201 26.2555 42.605C25.8482 43.0123 25.1902 43.0123 24.7784 42.605C24.3711 42.1932 24.3711 41.5397 24.7784 41.1279C25.1634 40.743 25.6333 40.3268 26.1212 39.8926C27.7952 38.4155 29.7154 36.7281 28.6859 35.2466L27.7057 34.2664C27.652 34.2127 27.6072 34.15 27.5669 34.0873C27.003 34.6647 26.3853 35.2153 25.7766 35.7524C25.329 36.1463 24.9127 36.5088 24.5323 36.8937C24.125 37.301 23.467 37.301 23.0552 36.8937C22.6434 36.4864 22.6479 35.8285 23.0552 35.4167C23.4401 35.0318 23.9101 34.6155 24.398 34.1813C26.072 32.7043 27.9921 31.0169 26.9627 29.5353L25.9825 28.5551C25.9108 28.4835 25.8571 28.4164 25.8124 28.3313L22.9388 31.2048C22.5315 31.6122 21.8736 31.6122 21.4618 31.2048C21.05 30.7975 21.0545 30.1396 21.4618 29.7278L29.1693 22.0069C30.4584 20.7178 30.7538 19.375 30.4136 18.359C30.2883 17.9875 30.0824 17.6563 29.8273 17.4011C29.5721 17.146 29.2409 16.9401 28.8694 16.8148C27.8668 16.4836 26.5285 16.7879 25.2037 18.1128L11.6864 31.6301C11.2791 32.0374 10.6211 32.0374 10.2094 31.6301C9.79757 31.2228 9.80204 30.5648 10.2094 30.153L11.5835 28.7789L11.57 28.7655ZM37.2528 11.381C36.7067 11.9629 35.8026 11.9808 35.2297 11.4437C34.6478 10.8976 34.6299 9.99351 35.167 9.42059L39.1148 5.21771C39.6608 4.63584 40.5695 4.61794 41.1379 5.15504C41.7198 5.70111 41.7377 6.60524 41.2006 7.17816L37.2528 11.381ZM19.6759 11.0856C20.2578 11.6317 20.2757 12.5403 19.7386 13.1087C19.1925 13.6906 18.2839 13.7085 17.7155 13.1714L13.5081 9.22365C12.9307 8.67311 12.9128 7.76898 13.4454 7.20054C13.9915 6.61867 14.9001 6.60076 15.4685 7.13787L19.6759 11.0856ZM28.5069 7.64365C28.5293 8.43141 27.9071 9.09385 27.1238 9.1207C26.3405 9.14756 25.6736 8.52093 25.6468 7.73765L25.4722 1.97715C25.4454 1.19386 26.072 0.526953 26.8553 0.500097C27.643 0.477718 28.3055 1.09987 28.3278 1.88315L28.5069 7.64365ZM34.4106 28.8371C33.8287 28.291 33.8108 27.3824 34.3479 26.814C34.894 26.2321 35.7981 26.2142 36.3711 26.7513L40.5739 30.6991C41.1558 31.2451 41.1737 32.1493 40.6366 32.7222C40.0905 33.3041 39.1864 33.322 38.6135 32.7848L34.4106 28.8371ZM39.549 20.3508C38.7657 20.3776 38.0988 19.751 38.0719 18.9677C38.0495 18.1844 38.6717 17.5175 39.455 17.4907L45.211 17.2982C45.9943 17.2713 46.6612 17.898 46.688 18.6812C46.7149 19.4645 46.0883 20.1314 45.305 20.1583L39.549 20.3508ZM27.2491 26.8945C27.3252 26.9393 27.4013 26.993 27.4729 27.0646L28.4979 28.0896C28.5516 28.1433 28.6053 28.2149 28.6501 28.2776C29.8004 29.8531 29.6214 31.2586 28.8381 32.5387C28.9768 32.5924 29.1156 32.6685 29.223 32.7804L30.248 33.8054C30.3017 33.8591 30.3554 33.9307 30.4002 33.9933C31.6355 35.6942 31.3267 37.1802 30.4002 38.5319C30.4449 38.5543 30.4763 38.5946 30.5255 38.6393L31.5505 39.6643C31.6042 39.718 31.6579 39.7896 31.7027 39.8523C34.0794 43.1018 31.2461 45.859 28.9724 48.0835L28.386 48.6699L25.8482 51.333L25.7676 51.4091C23.4446 53.5173 21.144 54.0812 18.4808 54.7302C18.0332 54.8377 17.5857 54.954 16.959 55.1152C16.9411 55.1152 16.9322 55.1241 16.9143 55.1241C15.473 55.518 14.1661 55.612 12.9934 55.4016C11.8028 55.1868 10.7688 54.6541 9.90499 53.8082L1.03373 44.9414C0.13855 44.0776 -0.170288 43.0123 0.0848388 41.7456C0.277303 40.7341 0.868123 39.6106 1.79016 38.4021L4.16239 25.0012V24.9475C4.26982 24.1821 4.51152 23.0497 4.92778 21.9576C5.24556 21.1385 5.67525 20.3373 6.23474 19.6883C6.9106 18.9229 7.57751 18.453 8.23547 18.2023C9.04561 17.8935 9.81995 17.9338 10.5048 18.2292C11.1448 18.4977 11.6864 18.9856 12.0982 19.6078C12.5995 20.3552 12.9262 21.3086 13.0157 22.3023C13.0874 23.1214 13.2306 24.4731 13.3649 25.7979L13.4723 26.9035L23.7221 16.6447C25.6915 14.6753 27.8221 14.2859 29.5274 14.8454C30.2122 15.0692 30.8164 15.4407 31.3177 15.942C31.8191 16.4433 32.1906 17.0475 32.4143 17.7324C32.9783 19.4332 32.5934 21.5951 30.6598 23.5287L27.2626 26.9259L27.2491 26.8945Z" fill="#0E53BE" stroke="#0E53BE"/>
</g>
</g>
<defs>
<clipPath id="clip0_492_195">
<rect width="47" height="55" fill="white" transform="translate(0 0.5)"/>
</clipPath>
</defs>
</svg>
