<?xml version="1.0" encoding="utf-8"?>
<!-- Generator: Adobe Illustrator 24.1.1, SVG Export Plug-In . SVG Version: 6.00 Build 0)  -->
<svg version="1.1" id="Layer_1" xmlns="http://www.w3.org/2000/svg" xmlns:xlink="http://www.w3.org/1999/xlink" x="0px" y="0px"
	 viewBox="0 0 473.6 473.6" style="enable-background:new 0 0 473.6 473.6;" xml:space="preserve">
<style type="text/css">
	.st0{clip-path:url(#SVGID_2_);}
	.st1{fill:#007AFB;}
	.st2{clip-path:url(#SVGID_4_);}
</style>
<g>
	<defs>
		<rect id="SVGID_1_" x="0" width="236.8" height="229.8"/>
	</defs>
	<clipPath id="SVGID_2_">
		<use xlink:href="#SVGID_1_"  style="overflow:visible;"/>
	</clipPath>
	<g class="st0">
		<path class="st1" d="M31.6,228.9h173.6c8.4,0,16.4-3.3,22.3-9.3c5.9-5.9,9.2-13.9,9.2-22.3V31.6c0-8.4-3.3-16.4-9.2-22.3
			C221.6,3.3,213.6,0,205.2,0H31.6C23.2,0,15.2,3.3,9.2,9.3C3.3,15.2,0,23.2,0,31.6v165.8c0,8.4,3.3,16.4,9.2,22.3
			C15.2,225.6,23.2,228.9,31.6,228.9z M205.2,213.1H31.6c-4.2,0-8.2-1.7-11.2-4.6c-3-3-4.6-7-4.6-11.2V78.9H221v118.4
			c0,4.2-1.7,8.2-4.6,11.2C213.4,211.5,209.4,213.1,205.2,213.1L205.2,213.1z M31.6,15.8h173.7c4.2,0,8.2,1.7,11.2,4.6
			c3,3,4.6,7,4.6,11.2v31.6H15.8V31.6c0-4.2,1.7-8.2,4.6-11.2C23.4,17.4,27.4,15.8,31.6,15.8L31.6,15.8z"/>
	</g>
</g>
<g>
	<defs>
		<rect id="SVGID_3_" x="236.8" y="243.8" width="236.8" height="229.8"/>
	</defs>
	<clipPath id="SVGID_4_">
		<use xlink:href="#SVGID_3_"  style="overflow:visible;"/>
	</clipPath>
	<g class="st2">
		<path class="st1" d="M442,244.7H268.4c-8.4,0-16.4,3.3-22.3,9.2c-5.9,5.9-9.3,14-9.3,22.3V442c0,8.4,3.3,16.4,9.3,22.3
			c5.9,5.9,13.9,9.3,22.3,9.3H442c8.4,0,16.4-3.3,22.3-9.3c5.9-5.9,9.3-13.9,9.3-22.3V276.3c0-8.4-3.3-16.4-9.3-22.3
			C458.4,248,450.4,244.7,442,244.7L442,244.7z M268.4,260.5H442c4.2,0,8.2,1.7,11.2,4.6c3,3,4.6,7,4.6,11.2v31.6l-205.2,0v-31.6
			c0-4.2,1.7-8.2,4.6-11.2C260.2,262.1,264.2,260.5,268.4,260.5L268.4,260.5z M442,457.8H268.4c-4.2,0-8.2-1.7-11.2-4.6
			s-4.6-7-4.6-11.2V323.6h205.2V442c0,4.2-1.7,8.2-4.6,11.2S446.2,457.8,442,457.8L442,457.8z"/>
	</g>
</g>
<path class="st1" d="M39.5,47.4h7.9c4.4,0,7.9-3.5,7.9-7.9s-3.5-7.9-7.9-7.9h-7.9c-4.4,0-7.9,3.5-7.9,7.9S35.1,47.4,39.5,47.4z"/>
<path class="st1" d="M78.9,47.4h7.9c4.4,0,7.9-3.5,7.9-7.9s-3.5-7.9-7.9-7.9h-7.9c-4.4,0-7.9,3.5-7.9,7.9S74.6,47.4,78.9,47.4z"/>
<path class="st1" d="M150,47.4h47.4h0c4.4,0,7.9-3.5,7.9-7.9s-3.5-7.9-7.9-7.9H150c-4.4,0-7.9,3.5-7.9,7.9S145.6,47.4,150,47.4
	L150,47.4z"/>
<path class="st1" d="M47.4,102.6h-7.9c-4.4,0-7.9,3.5-7.9,7.9s3.5,7.9,7.9,7.9h7.9c4.4,0,7.9-3.5,7.9-7.9S51.7,102.6,47.4,102.6z"/>
<path class="st1" d="M47.4,134.2h-7.9c-4.4,0-7.9,3.5-7.9,7.9s3.5,7.9,7.9,7.9h7.9c4.4,0,7.9-3.5,7.9-7.9S51.7,134.2,47.4,134.2z"/>
<path class="st1" d="M47.4,165.7h-7.9c-4.4,0-7.9,3.5-7.9,7.9c0,4.4,3.5,7.9,7.9,7.9h7.9c4.4,0,7.9-3.5,7.9-7.9
	C55.3,169.3,51.7,165.7,47.4,165.7z"/>
<path class="st1" d="M157.9,102.6H150c-4.4,0-7.9,3.5-7.9,7.9s3.5,7.9,7.9,7.9h7.9h0c4.4,0,7.9-3.5,7.9-7.9S162.2,102.6,157.9,102.6
	z"/>
<path class="st1" d="M78.9,118.4h39.5c4.4,0,7.9-3.5,7.9-7.9s-3.5-7.9-7.9-7.9H78.9c-4.4,0-7.9,3.5-7.9,7.9S74.6,118.4,78.9,118.4
	L78.9,118.4z"/>
<path class="st1" d="M197.3,165.7h-7.9c-4.4,0-7.9,3.5-7.9,7.9c0,4.4,3.5,7.9,7.9,7.9h7.9h0c4.4,0,7.9-3.5,7.9-7.9
	C205.2,169.3,201.7,165.7,197.3,165.7z"/>
<path class="st1" d="M157.9,165.7H78.9c-4.4,0-7.9,3.5-7.9,7.9c0,4.4,3.5,7.9,7.9,7.9h78.9c4.4,0,7.9-3.5,7.9-7.9
	C165.8,169.3,162.2,165.7,157.9,165.7z"/>
<path class="st1" d="M78.9,150h63.1c4.4,0,7.9-3.5,7.9-7.9s-3.5-7.9-7.9-7.9H78.9c-4.4,0-7.9,3.5-7.9,7.9S74.6,150,78.9,150z"/>
<path class="st1" d="M276.3,292h7.9c4.4,0,7.9-3.5,7.9-7.9s-3.5-7.9-7.9-7.9h-7.9c-4.4,0-7.9,3.5-7.9,7.9S271.9,292,276.3,292z"/>
<path class="st1" d="M315.7,292h7.9c4.4,0,7.9-3.5,7.9-7.9s-3.5-7.9-7.9-7.9h-7.9c-4.4,0-7.9,3.5-7.9,7.9S311.4,292,315.7,292z"/>
<path class="st1" d="M386.8,292h47.4c4.4,0,7.9-3.5,7.9-7.9s-3.5-7.9-7.9-7.9h-47.4c-4.4,0-7.9,3.5-7.9,7.9S382.4,292,386.8,292z"/>
<path class="st1" d="M284.2,347.3h-7.9c-4.4,0-7.9,3.5-7.9,7.9c0,4.4,3.5,7.9,7.9,7.9h7.9c4.4,0,7.9-3.5,7.9-7.9
	C292,350.8,288.5,347.3,284.2,347.3z"/>
<path class="st1" d="M284.2,378.9h-7.9c-4.4,0-7.9,3.5-7.9,7.9s3.5,7.9,7.9,7.9h7.9c4.4,0,7.9-3.5,7.9-7.9S288.5,378.9,284.2,378.9z
	"/>
<path class="st1" d="M284.2,410.4h-7.9c-4.4,0-7.9,3.5-7.9,7.9c0,4.4,3.5,7.9,7.9,7.9h7.9c4.4,0,7.9-3.5,7.9-7.9
	C292,414,288.5,410.4,284.2,410.4z"/>
<path class="st1" d="M394.7,347.3h-7.9c-4.4,0-7.9,3.5-7.9,7.9c0,4.4,3.5,7.9,7.9,7.9h7.9c4.4,0,7.9-3.5,7.9-7.9
	C402.5,350.8,399,347.3,394.7,347.3z"/>
<path class="st1" d="M315.7,363.1h39.5c4.4,0,7.9-3.5,7.9-7.9c0-4.4-3.5-7.9-7.9-7.9h-39.5c-4.4,0-7.9,3.5-7.9,7.9
	C307.8,359.5,311.4,363.1,315.7,363.1z"/>
<path class="st1" d="M434.1,410.4h-7.9c-4.4,0-7.9,3.5-7.9,7.9c0,4.4,3.5,7.9,7.9,7.9h7.9c4.4,0,7.9-3.5,7.9-7.9
	C442,414,438.5,410.4,434.1,410.4z"/>
<path class="st1" d="M394.7,410.4h-78.9c-4.4,0-7.9,3.5-7.9,7.9c0,4.4,3.5,7.9,7.9,7.9h78.9c4.4,0,7.9-3.5,7.9-7.9
	C402.5,414,399,410.4,394.7,410.4z"/>
<path class="st1" d="M315.7,394.6h63.1c4.4,0,7.9-3.5,7.9-7.9s-3.5-7.9-7.9-7.9h-63.1c-4.4,0-7.9,3.5-7.9,7.9
	S311.4,394.6,315.7,394.6L315.7,394.6z"/>
<path class="st1" d="M380.8,194.1c-1.3,1.6-1.9,3.7-1.7,5.8c0.2,2.1,1.3,4,2.9,5.3l17.4,14c3.4,2.7,8.4,2.2,11.1-1.2l14-17.4h0
	c1.4-1.6,2.1-3.7,1.9-5.8c-0.2-2.1-1.2-4.1-2.9-5.4c-1.7-1.3-3.8-2-5.9-1.7s-4,1.3-5.3,3l-2.1,2.6c-15-72.4-69.3-123-140.9-130.2h0
	c-4.3-0.4-8.2,2.7-8.6,7.1c-0.4,4.3,2.7,8.2,7.1,8.6c76.6,7.7,115.1,63,126.8,116l-2.4-2h0c-1.6-1.3-3.7-1.9-5.8-1.7
	C384,191.4,382.1,192.5,380.8,194.1L380.8,194.1z"/>
<path class="st1" d="M92.8,279.5c1.3-1.6,1.9-3.7,1.7-5.8c-0.2-2.1-1.3-4-2.9-5.3l-17.4-14c-3.4-2.7-8.4-2.2-11.1,1.2l-14,17.4v0
	c-1.4,1.6-2,3.7-1.9,5.8c0.2,2.1,1.2,4.1,2.9,5.4c1.7,1.3,3.8,2,5.9,1.7c2.1-0.3,4-1.3,5.3-3l2.1-2.6c15.1,72.4,69.3,123,141,130.2
	c0.3,0,0.5,0,0.8,0c4.2,0,7.7-3.3,7.9-7.5c0.2-4.2-2.9-7.8-7.1-8.2c-76.6-7.7-115.1-63-126.8-116l2.4,2c1.6,1.3,3.7,1.9,5.8,1.7
	C89.6,282.1,91.5,281.1,92.8,279.5L92.8,279.5z"/>
</svg>
