<svg width="45" height="45" viewBox="0 0 45 45" fill="none" xmlns="http://www.w3.org/2000/svg">
<path d="M40.9564 23.7305C40.5306 22.1398 39.7382 20.6709 38.6427 19.4415C37.5472 18.2121 36.179 17.2562 34.6477 16.6505C33.1165 16.0448 31.4647 15.8061 29.8246 15.9534C28.1845 16.1008 26.6017 16.6301 25.2029 17.4991L28.0839 5.99593C28.1554 5.71013 28.1353 5.40911 28.0265 5.13534C27.9177 4.86158 27.7257 4.6289 27.4775 4.47015C26.2815 3.71491 24.9457 3.20798 23.5498 2.97953C22.1538 2.75107 20.7262 2.80576 19.3518 3.14033C17.9774 3.47491 16.6843 4.08253 15.5496 4.92705C14.4148 5.77156 13.4615 6.83572 12.7464 8.05619C12.0313 9.27666 11.5691 10.6285 11.3871 12.0313C11.2052 13.4341 11.3073 14.8591 11.6873 16.2216C12.0674 17.5841 12.7176 18.8563 13.5993 19.9624C14.4811 21.0684 15.5763 21.9858 16.8199 22.66L5.41695 25.9172C5.13367 25.9979 4.88286 26.1655 4.69994 26.3964C4.51701 26.6272 4.41119 26.9097 4.39742 27.2039C4.2892 29.605 5.00428 31.9709 6.42427 33.9101C7.84425 35.8492 9.88396 37.2452 12.2056 37.8668C13.1011 38.1072 14.0241 38.2296 14.9513 38.2307C16.3642 38.227 17.7619 37.9397 19.0617 37.386C20.3616 36.8323 21.5371 36.0233 22.5186 35.007C23.5001 33.9908 24.2677 32.7879 24.7759 31.4696C25.2841 30.1513 25.5225 28.7444 25.4771 27.3323L33.999 35.5799C34.2109 35.7849 34.4819 35.9182 34.7737 35.9608C35.0655 36.0033 35.3633 35.9531 35.625 35.8172C37.7572 34.7109 39.4479 32.9098 40.4174 30.712C41.3869 28.5141 41.577 26.0511 40.9564 23.7305ZM19.6869 22.5C19.6869 21.9438 19.8518 21.4 20.1609 20.9375C20.4699 20.475 20.9092 20.1145 21.4231 19.9016C21.937 19.6887 22.5025 19.633 23.0481 19.7416C23.5936 19.8501 24.0948 20.118 24.4881 20.5113C24.8814 20.9046 25.1493 21.4058 25.2578 21.9513C25.3664 22.4969 25.3107 23.0624 25.0978 23.5763C24.8849 24.0902 24.5244 24.5295 24.0619 24.8385C23.5994 25.1476 23.0556 25.3125 22.4994 25.3125C21.7535 25.3125 21.0381 25.0162 20.5106 24.4888C19.9832 23.9613 19.6869 23.246 19.6869 22.5ZM14.0619 13.3594C14.0614 12.0561 14.3903 10.7739 15.018 9.63177C15.6456 8.48962 16.5517 7.52459 17.6521 6.82631C18.7525 6.12802 20.0115 5.71911 21.3122 5.63755C22.6129 5.55599 23.9131 5.80443 25.0921 6.35979L22.4589 16.875C21.4514 16.8826 20.4644 17.1606 19.601 17.6801C18.7377 18.1996 18.0297 18.9415 17.5511 19.8282C16.4769 19.1257 15.5952 18.1661 14.9859 17.0364C14.3765 15.9068 14.0589 14.6429 14.0619 13.3594ZM18.808 34.3776C17.6796 35.0296 16.4047 35.3859 15.1018 35.4134C13.7989 35.4409 12.5101 35.1388 11.3552 34.535C10.2003 33.9312 9.21669 33.0454 8.49567 31.9599C7.77466 30.8743 7.33964 29.6241 7.23102 28.3254L17.6566 25.3477C18.1523 26.1921 18.8598 26.8924 19.7091 27.3795C20.5585 27.8666 21.5203 28.1236 22.4994 28.125H22.6593C22.5886 29.4054 22.1993 30.6479 21.5267 31.7398C20.8542 32.8317 19.9197 33.7383 18.808 34.3776ZM37.4707 30.3346C36.9017 31.3216 36.1213 32.1704 35.1855 32.8201L27.3949 25.2809C27.8934 24.4053 28.1469 23.4115 28.1286 22.4041C28.1104 21.3966 27.8211 20.4127 27.2912 19.5557C28.7786 18.8048 30.4687 18.5544 32.11 18.8416C33.7512 19.1288 35.2558 19.9383 36.3998 21.1497C37.5438 22.3611 38.2661 23.9095 38.459 25.5645C38.652 27.2195 38.3053 28.8925 37.4707 30.3346Z" fill="#0E53BE"/>
</svg>
