<?xml version="1.0" encoding="utf-8"?>
<!-- Generator: Adobe Illustrator 24.1.1, SVG Export Plug-In . SVG Version: 6.00 Build 0)  -->
<svg version="1.1" id="Layer_1" xmlns="http://www.w3.org/2000/svg" xmlns:xlink="http://www.w3.org/1999/xlink" x="0px" y="0px"
	 viewBox="0 0 444 371.8" style="enable-background:new 0 0 444 371.8;" xml:space="preserve">
<style type="text/css">
	.st0{fill:#007AFB;}
</style>
<g>
	<path class="st0" d="M438.4,49.5H244.2c-3.1,0-5.6,2.5-5.6,5.6c0,3.1,2.5,5.6,5.6,5.6h188.7V105H277.5c-3.1,0-5.6,2.5-5.6,5.6
		s2.5,5.6,5.6,5.6h155.4v195.2l-336,0v-8.8c0-3.1-2.5-5.6-5.6-5.6s-5.6,2.5-5.6,5.6v14.4c0,3.1,2.5,5.6,5.6,5.6h347.1
		c3.1,0,5.6-2.5,5.6-5.6V55C444,52,441.5,49.5,438.4,49.5L438.4,49.5z"/>
	<path class="st0" d="M422.4,82.8c0-8.8-7.1-15.9-15.8-15.9c-8.7,0-15.8,7.1-15.8,15.9s7.1,15.9,15.8,15.9
		C415.3,98.6,422.4,91.5,422.4,82.8z M401.9,82.8c0-2.6,2.1-4.8,4.7-4.8c2.6,0,4.7,2.2,4.7,4.8s-2.1,4.8-4.7,4.8
		C404,87.5,401.9,85.4,401.9,82.8z"/>
	<path class="st0" d="M382.4,82.8c0-8.8-7.1-15.9-15.8-15.9c-8.7,0-15.8,7.1-15.8,15.9s7.1,15.9,15.8,15.9
		C375.3,98.6,382.4,91.5,382.4,82.8z M361.9,82.8c0-2.6,2.1-4.8,4.7-4.8s4.7,2.2,4.7,4.8s-2.1,4.8-4.7,4.8S361.9,85.4,361.9,82.8z"
		/>
	<path class="st0" d="M342.4,82.8c0-8.8-7.1-15.9-15.8-15.9c-8.7,0-15.8,7.1-15.8,15.9s7.1,15.9,15.8,15.9
		C335.3,98.6,342.4,91.5,342.4,82.8z M321.9,82.8c0-2.6,2.1-4.8,4.7-4.8s4.7,2.2,4.7,4.8s-2.1,4.8-4.7,4.8S321.9,85.4,321.9,82.8z"
		/>
	<path class="st0" d="M264.3,97.5c-0.9-2-2.9-3.4-5.1-3.4h-68.9L248,8.7c1.1-1.7,1.3-3.9,0.3-5.7c-1-1.8-2.8-2.9-4.9-2.9L116.5,0
		c-2.1,0-4,1.2-5,3L86.8,52.2c0,0.1-0.3,0.6-0.4,0.6l-0.1,0.2c0,0,0,0.1-0.1,0.1L32.3,159.9c-0.9,1.7-0.8,3.8,0.2,5.4
		c1,1.6,2.8,2.6,4.7,2.6h70L0.7,363.6c-1.3,2.4-0.6,5.5,1.6,7.1c1,0.7,2.1,1.1,3.3,1.1c1.5,0,2.9-0.6,4-1.7l253.7-266.6
		C264.8,101.9,265.2,99.5,264.3,97.5L264.3,97.5z M30.6,331.9l90.8-166.8c0.9-1.7,0.9-3.8-0.1-5.5s-2.8-2.7-4.8-2.7H46.3l49.9-98.7
		c0,0,0,0,0,0l0.2-0.4c0,0,0-0.1,0-0.1c0-0.1,0.1-0.1,0.1-0.2L120,11.1h113l-57.5,85.2c0,0.1-0.3,0.4-0.3,0.5
		c-1,1.7-1.1,3.9-0.1,5.6c1,1.7,2.8,2.8,4.8,2.8h66.3L30.6,331.9z"/>
	<path class="st0" d="M294.3,228c1.1-1.1,1.7-2.5,1.7-3.9c0-1.4-0.6-2.9-1.7-3.9c-2.1-2.1-5.8-2.1-7.8,0c-1.1,1.1-1.6,2.5-1.6,3.9
		c0,1.4,0.6,2.9,1.6,3.9c1.1,1,2.4,1.6,3.9,1.6C291.8,229.7,293.3,229,294.3,228L294.3,228z"/>
	<path class="st0" d="M273.3,229.7c3.1,0,5.6-2.5,5.6-5.6s-2.5-5.6-5.6-5.6l-95.4,0c-1.5,0-3,0.6-4,1.7L127.7,269
		c-1.5,1.6-1.9,4-1.1,6c0.9,2,2.9,3.4,5.1,3.4h181.9c3.1,0,5.6-2.5,5.6-5.6v-48.7c0-3.1-2.5-5.6-5.6-5.6h-6.2
		c-3.1,0-5.6,2.5-5.6,5.6s2.5,5.6,5.6,5.6h0.6v37.6H144.6l35.7-37.6L273.3,229.7z"/>
	<path class="st0" d="M335.4,272.8c0,3.1,2.5,5.6,5.6,5.6h71.1c3.1,0,5.6-2.5,5.6-5.6v-48.7c0-3.1-2.5-5.6-5.6-5.6h-5.7
		c-3.1,0-5.6,2.5-5.6,5.6s2.5,5.6,5.6,5.6l0.1,37.6h-60v-37.6h25.1c3.1,0,5.6-2.5,5.6-5.6s-2.5-5.6-5.6-5.6H341
		c-3.1,0-5.6,2.5-5.6,5.6L335.4,272.8z"/>
	<path class="st0" d="M386.9,219c-0.7,0.3-1.3,0.7-1.8,1.2c-1.1,1.1-1.7,2.4-1.7,3.9c0,0.7,0.2,1.4,0.4,2.1c0.3,0.7,0.7,1.3,1.2,1.8
		c1,1,2.4,1.6,3.9,1.6c1.4,0,2.9-0.6,3.9-1.6c0.5-0.5,0.9-1.1,1.2-1.8c0.3-0.7,0.4-1.4,0.4-2.1c0-1.4-0.6-2.9-1.6-3.9
		c-0.5-0.5-1.1-0.9-1.8-1.2C389.8,218.4,388.2,218.4,386.9,219L386.9,219z"/>
	<path class="st0" d="M367.9,191.9c-0.3-0.1-0.7-0.2-1.1-0.3c-1.1-0.2-2.2-0.1-3.2,0.3c-0.7,0.3-1.3,0.7-1.8,1.2
		c-1.1,1-1.6,2.4-1.6,3.9c0,1.4,0.6,2.9,1.6,3.9c0.5,0.5,1.1,0.9,1.8,1.2c0.7,0.3,1.4,0.4,2.2,0.4c0.3,0,0.7-0.1,1.1-0.1
		c0.4-0.1,0.7-0.2,1.1-0.3c0.3-0.2,0.7-0.3,0.9-0.5c0.3-0.2,0.6-0.4,0.8-0.7c0.3-0.2,0.5-0.6,0.7-0.8c0.2-0.3,0.3-0.6,0.5-0.9
		c0.1-0.3,0.2-0.7,0.3-1.1c0.1-0.3,0.1-0.7,0.1-1.1c0-1.5-0.6-2.9-1.7-3.9c-0.2-0.3-0.5-0.5-0.8-0.7
		C368.6,192.2,368.2,192.1,367.9,191.9L367.9,191.9z"/>
	<path class="st0" d="M417.6,197v-64.9c0-3.1-2.5-5.6-5.6-5.6H341c-3.1,0-5.6,2.5-5.6,5.6V197c0,3.1,2.5,5.6,5.6,5.6h7.4
		c3.1,0,5.6-2.5,5.6-5.6s-2.5-5.6-5.6-5.6h-1.8v-53.8h60v53.8h-23.4c-3.1,0-5.6,2.5-5.6,5.6s2.5,5.6,5.6,5.6h28.9
		C415.2,202.6,417.6,200.1,417.6,197L417.6,197z"/>
	<path class="st0" d="M318.5,127.5h-67.9c-3.1,0-5.6,2.5-5.6,5.6s2.5,5.6,5.6,5.6h67.9c3.1,0,5.6-2.5,5.6-5.6
		S321.6,127.5,318.5,127.5z"/>
	<path class="st0" d="M318.5,159.2h-95.8c-3.1,0-5.6,2.5-5.6,5.6s2.5,5.6,5.6,5.6h95.8c3.1,0,5.6-2.5,5.6-5.6
		S321.6,159.2,318.5,159.2z"/>
	<path class="st0" d="M324.1,196.6c0-3.1-2.5-5.6-5.6-5.6H191.8c-3.1,0-5.6,2.5-5.6,5.6s2.5,5.6,5.6,5.6h126.7
		C321.6,202.1,324.1,199.7,324.1,196.6z"/>
</g>
</svg>
