<svg width="45" height="45" viewBox="0 0 45 45" fill="none" xmlns="http://www.w3.org/2000/svg">
<path d="M23.9073 14.0623V21.7035L30.2565 25.5127C30.5763 25.7047 30.8067 26.016 30.8971 26.378C30.9874 26.7399 30.9302 27.1229 30.7382 27.4427C30.5461 27.7626 30.2348 27.993 29.8729 28.0833C29.5109 28.1736 29.1279 28.1165 28.8081 27.9244L21.7768 23.7056C21.5687 23.5806 21.3965 23.4038 21.277 23.1925C21.1575 22.9812 21.0947 22.7426 21.0948 22.4998V14.0623C21.0948 13.6893 21.243 13.3316 21.5067 13.0679C21.7704 12.8042 22.1281 12.656 22.5011 12.656C22.874 12.656 23.2317 12.8042 23.4954 13.0679C23.7591 13.3316 23.9073 13.6893 23.9073 14.0623ZM39.3761 9.84353C39.0031 9.84353 38.6454 9.99169 38.3817 10.2554C38.118 10.5191 37.9698 10.8768 37.9698 11.2498V14.4138C36.8536 13.1201 35.7145 11.8738 34.4331 10.5765C32.0879 8.2311 29.1035 6.62877 25.8529 5.96976C22.6023 5.31075 19.2295 5.62428 16.156 6.87118C13.0826 8.11809 10.4447 10.2431 8.57203 12.9806C6.69937 15.7181 5.67495 18.9468 5.62678 22.2632C5.57861 25.5797 6.50883 28.8367 8.3012 31.6275C10.0936 34.4183 12.6686 36.619 15.7046 37.9546C18.7405 39.2902 22.1028 39.7016 25.3712 39.1373C28.6396 38.5729 31.6692 37.058 34.0815 34.7816C34.2159 34.6547 34.3239 34.5025 34.3994 34.3338C34.475 34.1651 34.5165 33.9831 34.5218 33.7983C34.527 33.6136 34.4958 33.4296 34.4299 33.2569C34.364 33.0842 34.2647 32.9261 34.1378 32.7918C34.0108 32.6574 33.8586 32.5494 33.6899 32.4739C33.5212 32.3983 33.3393 32.3568 33.1545 32.3515C32.9697 32.3463 32.7857 32.3775 32.613 32.4434C32.4403 32.5093 32.2823 32.6086 32.1479 32.7355C30.1371 34.6306 27.6125 35.8912 24.8894 36.3601C22.1664 36.8289 19.3655 36.4852 16.8367 35.3718C14.3078 34.2583 12.163 32.4246 10.6701 30.0995C9.1772 27.7744 8.40233 25.0611 8.44227 22.2982C8.48221 19.5354 9.33519 16.8456 10.8947 14.5646C12.4542 12.2837 14.6511 10.5127 17.2111 9.47283C19.7711 8.43297 22.5807 8.17033 25.289 8.71769C27.9974 9.26505 30.4845 10.5982 32.4397 12.5506C33.8706 13.999 35.1239 15.3947 36.3878 16.8748H32.3448C31.9718 16.8748 31.6142 17.0229 31.3504 17.2867C31.0867 17.5504 30.9386 17.9081 30.9386 18.281C30.9386 18.654 31.0867 19.0117 31.3504 19.2754C31.6142 19.5391 31.9718 19.6873 32.3448 19.6873H39.3761C39.749 19.6873 40.1067 19.5391 40.3704 19.2754C40.6341 19.0117 40.7823 18.654 40.7823 18.281V11.2498C40.7823 10.8768 40.6341 10.5191 40.3704 10.2554C40.1067 9.99169 39.749 9.84353 39.3761 9.84353Z" fill="#0E53BE"/>
</svg>
