<svg width="45" height="45" viewBox="0 0 45 45" fill="none" xmlns="http://www.w3.org/2000/svg">
<path d="M26.7178 39.3752C26.7178 39.7482 26.5696 40.1059 26.3059 40.3696C26.0422 40.6333 25.6845 40.7815 25.3115 40.7815H19.6865C19.3136 40.7815 18.9559 40.6333 18.6922 40.3696C18.4284 40.1059 18.2803 39.7482 18.2803 39.3752C18.2803 39.0023 18.4284 38.6446 18.6922 38.3809C18.9559 38.1171 19.3136 37.969 19.6865 37.969H25.3115C25.6845 37.969 26.0422 38.1171 26.3059 38.3809C26.5696 38.6446 26.7178 39.0023 26.7178 39.3752ZM22.499 19.6877C22.9162 19.6877 23.3241 19.564 23.6709 19.3322C24.0178 19.1005 24.2882 18.771 24.4478 18.3856C24.6075 18.0001 24.6493 17.576 24.5679 17.1668C24.4865 16.7577 24.2856 16.3818 23.9906 16.0868C23.6956 15.7918 23.3197 15.5909 22.9106 15.5095C22.5014 15.4281 22.0773 15.4699 21.6918 15.6296C21.3064 15.7892 20.9769 16.0596 20.7452 16.4065C20.5134 16.7533 20.3897 17.1612 20.3897 17.5784C20.3897 18.1378 20.6119 18.6743 21.0075 19.0699C21.4031 19.4655 21.9396 19.6877 22.499 19.6877ZM39.3072 27.3922L37.1346 37.1709C37.0315 37.6353 36.8123 38.0659 36.4976 38.4226C36.1828 38.7792 35.7828 39.0502 35.3348 39.2102C34.8868 39.3701 34.4056 39.4139 33.9362 39.3373C33.4667 39.2607 33.0243 39.0663 32.6504 38.7723L27.8621 35.1565H17.1395L12.3477 38.7723C11.9738 39.0663 11.5314 39.2607 11.0619 39.3373C10.5925 39.4139 10.1112 39.3701 9.66328 39.2102C9.21532 39.0502 8.81525 38.7792 8.50049 38.4226C8.18573 38.0659 7.96657 37.6353 7.86349 37.1709L5.69083 27.3922C5.59867 26.9726 5.60333 26.5375 5.70445 26.1199C5.80557 25.7023 6.00049 25.3133 6.27443 24.9823L11.2947 18.96C11.4632 16.7468 11.9713 14.5727 12.8012 12.5141C15.0688 6.82934 19.1293 3.26274 20.7764 1.9936C21.2694 1.6116 21.8754 1.4043 22.499 1.4043C23.1227 1.4043 23.7287 1.6116 24.2217 1.9936C25.8635 3.26274 29.9293 6.82934 32.1969 12.5141C33.0267 14.5727 33.5348 16.7468 33.7033 18.96L38.7236 24.9823C38.9976 25.3133 39.1925 25.7023 39.2936 26.1199C39.3947 26.5375 39.3994 26.9726 39.3072 27.3922ZM17.477 32.344H27.5211C31.2336 25.7452 31.9279 19.4276 29.5848 13.5565C27.5176 8.37446 23.6399 5.09789 22.499 4.21899C21.3547 5.09789 17.477 8.37446 15.4098 13.5565C13.0701 19.4276 13.7645 25.7452 17.477 32.344ZM14.8402 33.3723C12.9477 29.9329 11.7992 26.5526 11.3949 23.2315L8.43654 26.7823L10.6092 36.5627L10.6408 36.5399L14.8402 33.3723ZM36.5615 26.7823L33.6031 23.2315C33.2024 26.5456 32.0563 29.9258 30.1649 33.3723L34.3572 36.5364L34.3889 36.5592L36.5615 26.7823Z" fill="#0E53BE"/>
</svg>
