<svg width="403" height="305" viewBox="0 0 403 305" fill="none" xmlns="http://www.w3.org/2000/svg">
<g clip-path="url(#clip0_493_212)">
<path d="M220.7 0C217.6 0 214.6 1.3 212.3 3.5C210.1 5.7 208.9 8.7 208.9 11.9C208.9 18.4 214.2 23.7 220.7 23.7H232.2V39.6C174.9 55.2 132.6 107.6 132.6 169.7C132.6 244 193.2 304.6 267.6 304.6C342 304.6 402.6 244.1 402.6 169.7C402.6 107.6 360.3 55.1 303 39.6V23.7H314.5C321 23.7 326.3 18.4 326.3 11.9C326.3 8.8 325.1 5.7 322.9 3.5C320.7 1.3 317.7 0 314.6 0H220.7ZM255.8 23.7H279.3V35.4C275.4 35.1 271.5 34.9 267.6 34.9C263.6 34.9 259.7 35.1 255.8 35.4V23.7ZM57.1 49.3C50.6 49.3 45.3 54.6 45.3 61.1C45.3 64.2 46.5 67.3 48.7 69.5C50.9 71.7 53.9 73 57.1 73H142.6C145.7 73 148.7 71.7 151 69.5C153.2 67.3 154.4 64.3 154.4 61.1C154.4 54.6 149.1 49.3 142.6 49.3H57.1ZM267.6 58.6C329.2 58.6 378.9 108.2 378.9 169.8C378.9 231.4 329.2 281 267.6 281C206 281 156.3 231.3 156.3 169.8C156.3 108.3 206 58.6 267.6 58.6ZM266.4 85.3C263.3 85.3 260.2 86.5 258 88.7C255.8 90.9 254.5 93.9 254.5 97.1V180.4C254.5 183.5 255.8 186.6 258 188.8C260.2 191 263.3 192.3 266.4 192.2H314.7C317.8 192.2 320.9 191 323.1 188.8C325.3 186.6 326.6 183.6 326.6 180.4C326.6 177.2 325.4 174.2 323.1 172C320.8 169.8 317.8 168.5 314.7 168.5H278.3V97.1C278.2 90.6 272.9 85.3 266.4 85.3ZM24.6 103.6C21.5 103.6 18.4 104.9 16.2 107.1C14 109.3 12.7 112.4 12.8 115.5C12.8 122 18.1 127.3 24.6 127.3H110C113.1 127.3 116.2 126.1 118.4 123.9C120.6 121.7 121.9 118.7 121.9 115.5C121.9 112.3 120.7 109.3 118.4 107.1C116.2 104.9 113.1 103.6 110 103.6H24.6ZM11.9 157.8C8.7 157.8 5.7 159 3.5 161.3C1.3 163.5 0 166.6 0 169.7C0 172.8 1.3 175.9 3.5 178.1C5.7 180.3 8.8 181.5 11.9 181.5H97.3C100.4 181.5 103.5 180.3 105.7 178.1C107.9 175.9 109.2 172.9 109.2 169.7C109.2 166.5 108 163.5 105.7 161.3C103.5 159.1 100.4 157.8 97.3 157.8H11.9ZM24.6 212.2C18.1 212.2 12.8 217.5 12.8 224C12.8 227.1 14 230.2 16.2 232.4C18.4 234.6 21.4 235.9 24.6 235.9H110C113.2 235.9 116.2 234.7 118.4 232.4C120.6 230.2 121.9 227.1 121.9 224C121.9 220.9 120.6 217.9 118.4 215.6C116.2 213.4 113.2 212.2 110 212.2H24.6ZM57.1 266.5C54 266.5 50.9 267.8 48.7 270C46.5 272.2 45.2 275.3 45.3 278.4C45.3 284.9 50.6 290.2 57.1 290.2H142.6C149.1 290.2 154.4 284.9 154.4 278.4C154.4 275.3 153.2 272.2 151 270C148.8 267.8 145.8 266.5 142.6 266.5H57.1Z" fill="#0E53BE"/>
</g>
<defs>
<clipPath id="clip0_493_212">
<rect width="402.6" height="304.6" fill="white"/>
</clipPath>
</defs>
</svg>
