<svg width="45" height="45" viewBox="0 0 45 45" fill="none" xmlns="http://www.w3.org/2000/svg">
<path d="M20.1014 28.288L36.9764 11.413C37.1071 11.2824 37.2622 11.1787 37.4329 11.108C37.6036 11.0373 37.7866 11.0009 37.9713 11.0009C38.1561 11.0009 38.3391 11.0373 38.5098 11.108C38.6805 11.1787 38.8356 11.2824 38.9663 11.413C39.0969 11.5437 39.2006 11.6988 39.2713 11.8695C39.342 12.0402 39.3784 12.2232 39.3784 12.4079C39.3784 12.5927 39.342 12.7757 39.2713 12.9464C39.2006 13.1171 39.0969 13.2722 38.9663 13.4029L22.0913 30.2779C21.9606 30.4085 21.8055 30.5122 21.6348 30.5829C21.4641 30.6536 21.2811 30.69 21.0963 30.69C20.9116 30.69 20.7286 30.6536 20.5579 30.5829C20.3872 30.5122 20.2321 30.4085 20.1014 30.2779C19.9708 30.1472 19.8671 29.9921 19.7964 29.8214C19.7257 29.6507 19.6893 29.4677 19.6893 29.2829C19.6893 29.0982 19.7257 28.9152 19.7964 28.7445C19.8671 28.5738 19.9708 28.4187 20.1014 28.288ZM22.5026 16.6267C23.7241 16.6252 24.9377 16.8229 26.0956 17.2121C26.2714 17.2744 26.4578 17.3011 26.644 17.2907C26.8302 17.2803 27.0125 17.2329 27.1803 17.1514C27.348 17.0698 27.4979 16.9557 27.6211 16.8157C27.7443 16.6757 27.8385 16.5126 27.898 16.3358C27.9576 16.1591 27.9814 15.9722 27.9681 15.7862C27.9548 15.6001 27.9046 15.4186 27.8204 15.2522C27.7363 15.0857 27.6199 14.9377 27.478 14.8166C27.336 14.6956 27.1715 14.604 26.9938 14.5472C24.7528 13.7917 22.3575 13.6136 20.0294 14.0293C17.7013 14.445 15.5156 15.4412 13.6746 16.9256C11.8336 18.41 10.3967 20.3347 9.49677 22.5218C8.59687 24.7088 8.26306 27.0874 8.52622 29.4376C8.56426 29.7814 8.72763 30.099 8.9851 30.3299C9.24257 30.5608 9.57609 30.6887 9.92192 30.6892C9.9729 30.6892 10.0256 30.6892 10.0784 30.6804C10.449 30.6393 10.7881 30.4527 11.0211 30.1617C11.2542 29.8706 11.3621 29.4989 11.3211 29.1283C11.2754 28.7126 11.2525 28.2948 11.2526 27.8767C11.2558 24.894 12.4422 22.0344 14.5512 19.9253C16.6603 17.8163 19.5199 16.63 22.5026 16.6267ZM40.035 18.9119C39.9508 18.7475 39.8349 18.6013 39.6942 18.4817C39.5535 18.3621 39.3905 18.2714 39.2148 18.2148C39.039 18.1581 38.8537 18.1367 38.6696 18.1516C38.4855 18.1666 38.3062 18.2176 38.1418 18.3019C37.9775 18.3861 37.8313 18.502 37.7117 18.6427C37.5921 18.7834 37.5014 18.9464 37.4448 19.1221C37.3881 19.2979 37.3667 19.4832 37.3816 19.6673C37.3966 19.8514 37.4476 20.0307 37.5319 20.1951C38.5723 22.2381 39.1867 24.4713 39.3377 26.759C39.4888 29.0467 39.1735 31.3413 38.4108 33.5035L6.57681 33.4912C5.68863 30.9452 5.4219 28.2238 5.79886 25.5538C6.17582 22.8839 7.18554 20.3427 8.74385 18.1421C10.3022 15.9416 12.3639 14.1454 14.7573 12.9033C17.1506 11.6612 19.8062 11.0092 22.5026 11.0017H22.6573C25.2763 11.0182 27.8547 11.6504 30.1842 12.8474C30.349 12.9381 30.5304 12.9948 30.7175 13.0142C30.9046 13.0336 31.0937 13.0152 31.2736 12.9602C31.4535 12.9051 31.6205 12.8146 31.7648 12.6938C31.909 12.5731 32.0276 12.4247 32.1135 12.2573C32.1993 12.0899 32.2508 11.907 32.2647 11.7194C32.2786 11.5318 32.2547 11.3433 32.1945 11.1651C32.1342 10.9869 32.0388 10.8226 31.914 10.6819C31.7891 10.5412 31.6372 10.427 31.4674 10.346C27.9605 8.54977 23.9953 7.8471 20.0847 8.32892C16.1741 8.81074 12.498 10.4549 9.53203 13.0487C6.56602 15.6425 4.44653 19.0666 3.44773 22.878C2.44893 26.6895 2.61677 30.713 3.92954 34.4281C4.12346 34.9785 4.48309 35.4553 4.95901 35.7931C5.43493 36.1308 6.00377 36.3129 6.58735 36.3142H38.4161C38.9993 36.3146 39.5683 36.1336 40.0442 35.7963C40.52 35.459 40.8793 34.9821 41.0721 34.4316C41.9591 31.909 42.3245 29.2325 42.1462 26.5644C41.9679 23.8964 41.2497 21.2923 40.035 18.9101V18.9119Z" fill="#0E53BE"/>
</svg>
