<?xml version="1.0" encoding="utf-8"?>
<!-- Generator: Adobe Illustrator 24.1.1, SVG Export Plug-In . SVG Version: 6.00 Build 0)  -->
<svg version="1.1" id="Layer_1" xmlns="http://www.w3.org/2000/svg" xmlns:xlink="http://www.w3.org/1999/xlink" x="0px" y="0px"
	 viewBox="0 0 402.6 304.6" style="enable-background:new 0 0 402.6 304.6;" xml:space="preserve">
<style type="text/css">
	.st0{fill:#007AFB;}
</style>
<path class="st0" d="M220.7,0c-3.1,0-6.1,1.3-8.4,3.5c-2.2,2.2-3.4,5.2-3.4,8.4c0,6.5,5.3,11.8,11.8,11.8h11.5v15.9
	c-57.3,15.6-99.6,68-99.6,130.1c0,74.3,60.6,134.9,135,134.9c74.4,0,135-60.5,135-134.9c0-62.1-42.3-114.6-99.6-130.1V23.7h11.5
	c6.5,0,11.8-5.3,11.8-11.8c0-3.1-1.2-6.2-3.4-8.4S317.7,0,314.6,0L220.7,0z M255.8,23.7h23.5v11.7c-3.9-0.3-7.8-0.5-11.7-0.5
	c-4,0-7.9,0.2-11.8,0.5V23.7z M57.1,49.3c-6.5,0-11.8,5.3-11.8,11.8c0,3.1,1.2,6.2,3.4,8.4c2.2,2.2,5.2,3.5,8.4,3.5h85.5
	c3.1,0,6.1-1.3,8.4-3.5c2.2-2.2,3.4-5.2,3.4-8.4c0-6.5-5.3-11.8-11.8-11.8L57.1,49.3z M267.6,58.6c61.6,0,111.3,49.6,111.3,111.2
	s-49.7,111.2-111.3,111.2c-61.6,0-111.3-49.7-111.3-111.2S206,58.6,267.6,58.6L267.6,58.6z M266.4,85.3L266.4,85.3
	c-3.1,0-6.2,1.2-8.4,3.4c-2.2,2.2-3.5,5.2-3.5,8.4v83.3c0,3.1,1.3,6.2,3.5,8.4c2.2,2.2,5.3,3.5,8.4,3.4h48.3c3.1,0,6.2-1.2,8.4-3.4
	c2.2-2.2,3.5-5.2,3.5-8.4c0-3.2-1.2-6.2-3.5-8.4s-5.3-3.5-8.4-3.5h-36.4V97.1C278.2,90.6,272.9,85.3,266.4,85.3L266.4,85.3z
	 M24.6,103.6L24.6,103.6c-3.1,0-6.2,1.3-8.4,3.5c-2.2,2.2-3.5,5.3-3.4,8.4c0,6.5,5.3,11.8,11.8,11.8H110c3.1,0,6.2-1.2,8.4-3.4
	s3.5-5.2,3.5-8.4c0-3.2-1.2-6.2-3.5-8.4c-2.2-2.2-5.3-3.5-8.4-3.5L24.6,103.6z M11.9,157.8c-3.2,0-6.2,1.2-8.4,3.5
	c-2.2,2.2-3.5,5.3-3.5,8.4c0,3.1,1.3,6.2,3.5,8.4c2.2,2.2,5.3,3.4,8.4,3.4h85.4c3.1,0,6.2-1.2,8.4-3.4c2.2-2.2,3.5-5.2,3.5-8.4
	c0-3.2-1.2-6.2-3.5-8.4c-2.2-2.2-5.3-3.5-8.4-3.5L11.9,157.8z M24.6,212.2L24.6,212.2c-6.5,0-11.8,5.3-11.8,11.8
	c0,3.1,1.2,6.2,3.4,8.4c2.2,2.2,5.2,3.5,8.4,3.5H110c3.2,0,6.2-1.2,8.4-3.5c2.2-2.2,3.5-5.3,3.5-8.4c0-3.1-1.3-6.1-3.5-8.4
	c-2.2-2.2-5.2-3.4-8.4-3.4L24.6,212.2z M57.1,266.5c-3.1,0-6.2,1.3-8.4,3.5c-2.2,2.2-3.5,5.3-3.4,8.4c0,6.5,5.3,11.8,11.8,11.8h85.5
	c6.5,0,11.8-5.3,11.8-11.8c0-3.1-1.2-6.2-3.4-8.4c-2.2-2.2-5.2-3.5-8.4-3.5H57.1z"/>
</svg>
