<?xml version="1.0" encoding="utf-8"?>
<!-- Generator: Adobe Illustrator 24.1.1, SVG Export Plug-In . SVG Version: 6.00 Build 0)  -->
<svg version="1.1" id="Layer_1" xmlns="http://www.w3.org/2000/svg" xmlns:xlink="http://www.w3.org/1999/xlink" x="0px" y="0px"
	 viewBox="0 0 473.6 325.6" style="enable-background:new 0 0 473.6 325.6;" xml:space="preserve">
<style type="text/css">
	.st0{clip-path:url(#SVGID_2_);}
	.st1{fill:#007AFB;}
	.st2{clip-path:url(#SVGID_4_);}
</style>
<g>
	<defs>
		<rect id="SVGID_1_" x="0" y="28.8" width="100.8" height="268"/>
	</defs>
	<clipPath id="SVGID_2_">
		<use xlink:href="#SVGID_1_"  style="overflow:visible;"/>
	</clipPath>
	<g class="st0">
		<path class="st1" d="M0,49.2v227.3C0,287.2,8.8,296,19.7,296h80.2v-14.8l-80.2,0c-2.7,0-4.9-2.1-4.9-4.8V49.2
			c0-2.6,2.2-4.8,4.9-4.8h80.2V29.6l-80.2,0C8.8,29.6,0,38.4,0,49.2L0,49.2z"/>
	</g>
</g>
<g>
	<defs>
		<rect id="SVGID_3_" x="318.8" y="28.8" width="154.8" height="268"/>
	</defs>
	<clipPath id="SVGID_4_">
		<use xlink:href="#SVGID_3_"  style="overflow:visible;"/>
	</clipPath>
	<g class="st2">
		<path class="st1" d="M453.9,29.6h-80.2v14.8h80.2c2.7,0,4.9,2.1,4.9,4.8V222h-54.9c-12.6,0-22.8,9.7-22.8,21.6v37.6h-43.4
			L319.4,296h72.8l81.4-66V49.2C473.6,38.4,464.7,29.6,453.9,29.6L453.9,29.6z M388.5,279.9v-36.4c0-7.8,6.9-14.2,15.4-14.2h46.9
			L388.5,279.9z"/>
	</g>
</g>
<path class="st1" d="M358.9,23.9c0-13.2-10.8-23.9-24.1-23.9H138.8c-13.3,0-24.1,10.7-24.1,23.9v277.8c0,13.2,10.8,23.9,24.1,23.9
	h120.6l99.5-80.6V23.9z M259,306.9v-44.5c0-10,8.5-18.2,18.9-18.2h58.4L259,306.9z M344.1,236.8h-66.2c-14.5,0-26.3,11.5-26.3,25.6
	v48.4H138.8c-5.1,0-9.3-4.1-9.3-9.1V23.9c0-5,4.2-9.1,9.3-9.1h196c5.1,0,9.3,4.1,9.3,9.1L344.1,236.8z"/>
<path class="st1" d="M277.9,150l-26.4-4l-11.8-25.1c-0.8-1.7-1.8-2.6-2.9-2.6s-2.1,0.9-2.9,2.6L222.1,146l-26.4,4
	c-3.6,0.5-4.4,3.1-1.8,5.8l19.1,19.5l-4.5,27.6c-0.4,2.7,0.5,4.3,2.3,4.3c0.7,0,1.5-0.2,2.4-0.7l23.6-13l23.6,13
	c0.9,0.5,1.7,0.7,2.4,0.7c1.8,0,2.8-1.6,2.3-4.3l-4.5-27.6l19.1-19.5C282.3,153.2,281.5,150.6,277.9,150L277.9,150z M255.3,170.2
	c-1.6,1.7-2.4,4-2,6.4l3.2,19.3l-16.1-8.9c-1.1-0.6-2.3-0.9-3.6-0.9s-2.5,0.3-3.6,0.9l-16.1,8.9l3.2-19.3c0.4-2.3-0.4-4.7-2-6.4
	l-13.7-14l18.6-2.8c2.4-0.4,4.5-1.9,5.6-4.2l8-17l8,17c1.1,2.2,3.1,3.8,5.6,4.2l18.6,2.8L255.3,170.2z"/>
<path class="st1" d="M97.3,153.2l-20.9-3L67,131.4c-0.6-1.3-1.5-1.9-2.3-1.9s-1.7,0.6-2.3,1.9l-9.3,18.8l-20.9,3
	c-2.8,0.4-3.5,2.4-1.4,4.3l15.1,14.6l-3.6,20.7c-0.4,2,0.4,3.2,1.8,3.2c0.5,0,1.2-0.2,1.9-0.5l18.7-9.8l18.7,9.8
	c0.7,0.4,1.3,0.5,1.9,0.5c1.4,0,2.2-1.2,1.8-3.2l-3.6-20.7l15.1-14.6C100.7,155.6,100.1,153.6,97.3,153.2L97.3,153.2z M78.4,166.9
	c-1.8,1.7-2.6,4.2-2.1,6.6l1.9,11l-10-5.2c-1.1-0.6-2.3-0.8-3.4-0.8s-2.4,0.3-3.4,0.8l-10,5.2l1.9-11c0.4-2.4-0.4-4.9-2.1-6.6
	l-8-7.7l11.1-1.6c2.4-0.3,4.5-1.9,5.6-4l5-10.1l5,10.1c1.1,2.2,3.2,3.7,5.6,4l11.1,1.6L78.4,166.9z"/>
<path class="st1" d="M441.4,153.2l-20.9-3l-9.3-18.8c-0.6-1.3-1.5-1.9-2.3-1.9s-1.7,0.6-2.3,1.9l-9.3,18.8l-20.9,3
	c-2.8,0.4-3.5,2.4-1.4,4.3l15.1,14.6l-3.6,20.7c-0.4,2,0.4,3.2,1.8,3.2c0.5,0,1.2-0.2,1.9-0.5l18.7-9.8l18.7,9.8
	c0.7,0.4,1.3,0.5,1.9,0.5c1.4,0,2.2-1.2,1.8-3.2l-3.6-20.7l15.1-14.6C444.8,155.6,444.2,153.6,441.4,153.2L441.4,153.2z
	 M422.5,166.9c-1.8,1.7-2.6,4.2-2.1,6.6l1.9,11l-10-5.2c-1.1-0.6-2.3-0.8-3.4-0.8s-2.4,0.3-3.4,0.8l-10,5.2l1.9-11
	c0.4-2.4-0.4-4.9-2.1-6.6l-8-7.7l11.1-1.6c2.4-0.3,4.5-1.9,5.6-4l5-10.1l5,10.1c1.1,2.2,3.2,3.7,5.6,4l11.1,1.6L422.5,166.9z"/>
</svg>
