<?xml version="1.0" encoding="utf-8"?>
<!-- Generator: Adobe Illustrator 24.1.1, SVG Export Plug-In . SVG Version: 6.00 Build 0)  -->
<svg version="1.1" id="Layer_1" xmlns="http://www.w3.org/2000/svg" xmlns:xlink="http://www.w3.org/1999/xlink" x="0px" y="0px"
	 viewBox="0 0 212.4 468.6" style="enable-background:new 0 0 212.4 468.6;" xml:space="preserve">
<style type="text/css">
	.st0{fill:#007AFB;}
</style>
<g>
	<path class="st0" d="M198.4,70.7H14l0.5,14c1,27.9,5,56.3,15.5,82.3c9,22.4,21.9,43.4,40.9,59.3c12,10,25.4,16.9,37.9,25.4
		c12,8,24.9,16.4,33.4,28.4c7,10,13.5,19.9,17.9,31.4c7.5,18.9,10.5,38.9,11.5,59.3H41.9c4-51.3,19.4-85.7,49.4-110.2
		c-8.5-5-16-10-22.9-15.5c-13.5,12.5-24.4,26.4-32.4,42.4c-13,25.4-19.9,55.8-21.4,96.2l-0.5,14h184.4v-13.5
		c0-27.9-3-56.8-13.5-82.8c-10-25.4-27.9-46.9-49.9-62.8c-7-5-14.5-9.5-21.4-14c-23.4-14.5-43.9-31.4-56.3-56.3
		c-10.5-21.4-15-45.9-16.9-69.3H170c-2,50.8-17.4,84.7-49.9,110.2c8.5,5,16,10,23.4,15.5c14-12,24.9-25.9,32.9-41.4
		c14-25.9,20.4-57.8,20.4-97.7V71.2l1.5,0L198.4,70.7z"/>
	<path class="st0" d="M183.4,419.7l-16.4,8l15,5c-54.3,22.4-109.7,20.9-164-5.5l-8.5,17.9c31.9,15.5,64.3,23.4,96.7,23.4
		c28.4,0,56.8-6,85.2-17.9l-5.5,15.5l16.4-8l10-28.4L183.4,419.7z"/>
	<path class="st0" d="M20.9,17.9l5.5-15.5l-16.4,8L0,38.8l28.4,10l16.4-8l-15-5c54.3-22.4,109.7-20.9,164,5.5l8.5-17.9
		C142.6-6,81.2-7.5,20.9,17.9L20.9,17.9z"/>
</g>
</svg>
