<svg width="213" height="470" viewBox="0 0 213 470" fill="none" xmlns="http://www.w3.org/2000/svg">
<g clip-path="url(#clip0_492_176)">
<path d="M198.4 71.2H14L14.5 85.2C15.5 113.1 19.5 141.5 30 167.5C39 189.9 51.9 210.9 70.9 226.8C82.9 236.8 96.3 243.7 108.8 252.2C120.8 260.2 133.7 268.6 142.2 280.6C149.2 290.6 155.7 300.5 160.1 312C167.6 330.9 170.6 350.9 171.6 371.3H41.9C45.9 320 61.3 285.6 91.3 261.1C82.8 256.1 75.3 251.1 68.4 245.6C54.9 258.1 44 272 36 288C23 313.4 16.1 343.8 14.6 384.2L14.1 398.2H198.5V384.7C198.5 356.8 195.5 327.9 185 301.9C175 276.5 157.1 255 135.1 239.1C128.1 234.1 120.6 229.6 113.7 225.1C90.3 210.6 69.8 193.7 57.4 168.8C46.9 147.4 42.4 122.9 40.5 99.5H170C168 150.3 152.6 184.2 120.1 209.7C128.6 214.7 136.1 219.7 143.5 225.2C157.5 213.2 168.4 199.3 176.4 183.8C190.4 157.9 196.8 126 196.8 86.1V71.7H198.3L198.4 71.2Z" fill="#0E53BE"/>
<path d="M183.4 420.2L167 428.2L182 433.2C127.7 455.6 72.3 454.1 18 427.7L9.5 445.6C41.4 461.1 73.8 469 106.2 469C134.6 469 163 463 191.4 451.1L185.9 466.6L202.3 458.6L212.3 430.2L183.4 420.2Z" fill="#0E53BE"/>
<path d="M20.9 18.4L26.4 2.89997L10 10.9L0 39.3L28.4 49.3L44.8 41.3L29.8 36.3C84.1 13.9 139.5 15.4 193.8 41.8L202.3 23.9C142.6 -5.50003 81.2 -7.00003 20.9 18.4Z" fill="#0E53BE"/>
</g>
<defs>
<clipPath id="clip0_492_176">
<rect width="212.4" height="468.6" fill="white" transform="translate(0 0.5)"/>
</clipPath>
</defs>
</svg>
