<svg width="24" height="24" viewBox="0 0 24 24" fill="none" xmlns="http://www.w3.org/2000/svg">
<path d="M3.08572 7.51C3.93508 5.85353 5.23757 4.46106 6.84775 3.48806C8.45794 2.51507 10.3124 1.99987 12.2041 2C14.9541 2 17.2643 2.991 19.0306 4.605L16.1051 7.473C15.0469 6.482 13.702 5.977 12.2041 5.977C9.54592 5.977 7.29592 7.737 6.4949 10.1C6.29082 10.7 6.17449 11.34 6.17449 12C6.17449 12.66 6.29082 13.3 6.4949 13.9C7.29694 16.264 9.54592 18.023 12.2041 18.023C13.5765 18.023 14.7449 17.668 15.6592 17.068C16.1892 16.726 16.643 16.2822 16.9931 15.7635C17.3431 15.2448 17.5822 14.6619 17.6959 14.05H12.2041V10.182H21.8143C21.9347 10.836 22 11.518 22 12.227C22 15.273 20.8878 17.837 18.9571 19.577C17.2694 21.105 14.9592 22 12.2041 22C10.8639 22.0005 9.53677 21.7422 8.29851 21.2399C7.06026 20.7375 5.93515 20.0009 4.98751 19.0722C4.03987 18.1436 3.28826 17.0409 2.77565 15.8275C2.26303 14.614 1.99946 13.3134 2 12C2 10.386 2.39388 8.86 3.08572 7.51Z" fill="#0E53BE"/>
</svg>
