<svg width="45" height="45" viewBox="0 0 45 45" fill="none" xmlns="http://www.w3.org/2000/svg">
<path d="M40.7812 34.9189V42.1875C40.7812 42.5605 40.6331 42.9181 40.3694 43.1819C40.1056 43.4456 39.748 43.5938 39.375 43.5938C39.002 43.5938 38.6444 43.4456 38.3806 43.1819C38.1169 42.9181 37.9688 42.5605 37.9688 42.1875V34.9189C37.9622 33.1139 37.5843 31.3296 36.8585 29.6769C36.1327 28.0243 35.0746 26.5387 33.75 25.3125V35.5693C33.7497 35.872 33.6519 36.1664 33.4709 36.409C33.29 36.6516 33.0356 36.8293 32.7456 36.9158C32.4555 37.0022 32.1454 36.9928 31.8611 36.889C31.5769 36.7851 31.3337 36.5923 31.1678 36.3393L29.2904 33.4723C29.2764 33.4512 29.2623 33.4283 29.25 33.4055C28.9742 32.9185 28.5163 32.5611 27.977 32.4117C27.4377 32.2624 26.8612 32.3334 26.3742 32.6092C25.8873 32.8849 25.5298 33.3428 25.3805 33.8822C25.2311 34.4215 25.3022 34.998 25.5779 35.485L29.468 41.4246C29.6722 41.7367 29.744 42.1172 29.6677 42.4823C29.5914 42.8474 29.3732 43.1672 29.061 43.3714C28.7489 43.5756 28.3685 43.6474 28.0034 43.5711C27.6383 43.4948 27.3185 43.2766 27.1143 42.9645L23.2014 36.9879L23.1592 36.9211C22.5535 35.8831 22.3485 34.6593 22.5829 33.4806C22.8172 32.3019 23.4748 31.2496 24.4315 30.5223C25.3883 29.795 26.578 29.4428 27.7765 29.5323C28.975 29.6217 30.0993 30.1465 30.9375 31.0078V11.25H28.125C27.752 11.25 27.3944 11.1018 27.1306 10.8381C26.8669 10.5744 26.7188 10.2167 26.7188 9.84375C26.7188 9.47079 26.8669 9.1131 27.1306 8.84938C27.3944 8.58566 27.752 8.4375 28.125 8.4375H30.9375C31.6834 8.4375 32.3988 8.73382 32.9262 9.26126C33.4537 9.78871 33.75 10.5041 33.75 11.25V21.7301C35.9084 23.1886 37.6774 25.1529 38.903 27.4516C40.1285 29.7504 40.7733 32.3139 40.7812 34.9189ZM15.4688 9.84375C15.4688 9.47079 15.3206 9.1131 15.0569 8.84938C14.7931 8.58566 14.4355 8.4375 14.0625 8.4375H11.25C10.5041 8.4375 9.78871 8.73382 9.26126 9.26126C8.73382 9.78871 8.4375 10.5041 8.4375 11.25V35.1562C8.4375 35.5292 8.58566 35.8869 8.84938 36.1506C9.1131 36.4143 9.47079 36.5625 9.84375 36.5625C10.2167 36.5625 10.5744 36.4143 10.8381 36.1506C11.1018 35.8869 11.25 35.5292 11.25 35.1562V11.25H14.0625C14.4355 11.25 14.7931 11.1018 15.0569 10.8381C15.3206 10.5744 15.4688 10.2167 15.4688 9.84375ZM27.7137 17.2863C27.5831 17.1556 27.428 17.0519 27.2573 16.9811C27.0865 16.9103 26.9036 16.8739 26.7188 16.8739C26.5339 16.8739 26.351 16.9103 26.1802 16.9811C26.0095 17.0519 25.8544 17.1556 25.7238 17.2863L22.5 20.5119V2.8125C22.5 2.43954 22.3518 2.08185 22.0881 1.81813C21.8244 1.55441 21.4667 1.40625 21.0938 1.40625C20.7208 1.40625 20.3631 1.55441 20.0994 1.81813C19.8357 2.08185 19.6875 2.43954 19.6875 2.8125V20.5119L16.4637 17.2863C16.1998 17.0225 15.8419 16.8742 15.4688 16.8742C15.0956 16.8742 14.7377 17.0225 14.4738 17.2863C14.21 17.5502 14.0617 17.9081 14.0617 18.2812C14.0617 18.6544 14.21 19.0123 14.4738 19.2762L20.0988 24.9012C20.2294 25.0319 20.3845 25.1356 20.5552 25.2064C20.726 25.2772 20.9089 25.3136 21.0938 25.3136C21.2786 25.3136 21.4615 25.2772 21.6323 25.2064C21.803 25.1356 21.9581 25.0319 22.0887 24.9012L27.7137 19.2762C27.8444 19.1456 27.9481 18.9905 28.0189 18.8198C28.0897 18.649 28.1261 18.4661 28.1261 18.2812C28.1261 18.0964 28.0897 17.9135 28.0189 17.7427C27.9481 17.572 27.8444 17.4169 27.7137 17.2863Z" fill="#0E53BE"/>
</svg>
