<?xml version="1.0" encoding="utf-8"?>
<!-- Generator: Adobe Illustrator 24.1.1, SVG Export Plug-In . SVG Version: 6.00 Build 0)  -->
<svg version="1.1" id="Layer_1" xmlns="http://www.w3.org/2000/svg" xmlns:xlink="http://www.w3.org/1999/xlink" x="0px" y="0px"
	 viewBox="0 0 347.8 449.9" style="enable-background:new 0 0 347.8 449.9;" xml:space="preserve">
<style type="text/css">
	.st0{fill:#007AFB;}
</style>
<g>
	<path class="st0" d="M92.2,306.3H10.5C4.7,306.3,0,311,0,316.8v122.5c0,5.8,4.7,10.5,10.5,10.5h81.7c5.8,0,10.5-4.7,10.5-10.5
		V316.8C102.8,311,98,306.3,92.2,306.3z M81.7,428.8H21.1V327.4h60.6V428.8z"/>
	<path class="st0" d="M337.3,142.9h-81.7c-5.8,0-10.5,4.7-10.5,10.5v285.9c0,5.8,4.7,10.5,10.5,10.5h81.7c5.8,0,10.5-4.7,10.5-10.5
		V153.5C347.8,147.7,343.1,142.9,337.3,142.9L337.3,142.9z M326.7,428.8h-60.6V164h60.6V428.8z"/>
	<path class="st0" d="M214.8,224.6h-81.7c-5.8,0-10.5,4.7-10.5,10.5v204.2c0,5.8,4.7,10.5,10.5,10.5h81.7c5.8,0,10.5-4.7,10.5-10.5
		l0-204.2C225.3,229.3,220.6,224.6,214.8,224.6L214.8,224.6z M204.2,428.8h-60.6V245.7h60.6V428.8z"/>
	<path class="st0" d="M347.8,10.3c0-0.2,0-0.4,0-0.6c0-0.2,0-0.3,0-0.5c0-0.2-0.1-0.4-0.1-0.5c0-0.2-0.1-0.3-0.1-0.5
		c0-0.2-0.1-0.3-0.1-0.5s-0.1-0.3-0.1-0.5c-0.1-0.2-0.1-0.3-0.2-0.5s-0.1-0.3-0.2-0.5s-0.1-0.3-0.2-0.5c-0.1-0.2-0.2-0.3-0.2-0.5
		c-0.1-0.1-0.2-0.3-0.3-0.4c-0.1-0.2-0.2-0.3-0.3-0.4c-0.1-0.1-0.2-0.3-0.3-0.4c-0.1-0.2-0.2-0.3-0.4-0.4c-0.1-0.1-0.1-0.1-0.2-0.2
		c-0.1-0.1-0.1-0.1-0.2-0.2c-0.1-0.1-0.3-0.3-0.4-0.4c-0.1-0.1-0.3-0.2-0.4-0.3s-0.3-0.2-0.4-0.3c-0.1-0.1-0.3-0.2-0.4-0.3
		c-0.1-0.1-0.3-0.2-0.4-0.3c-0.2-0.1-0.3-0.2-0.5-0.3c-0.1-0.1-0.3-0.2-0.4-0.2c-0.2-0.1-0.3-0.2-0.5-0.2c-0.2-0.1-0.3-0.1-0.5-0.2
		c-0.2-0.1-0.3-0.1-0.5-0.2c-0.2-0.1-0.3-0.1-0.5-0.2c-0.2,0-0.3-0.1-0.5-0.1c-0.2,0-0.4-0.1-0.5-0.1c-0.2,0-0.3-0.1-0.5-0.1
		c-0.2,0-0.3,0-0.5,0c-0.2,0-0.4,0-0.6,0c-0.1,0-0.2,0-0.2,0H276c-5.8,0-10.5,4.7-10.5,10.5s4.7,10.5,10.5,10.5h34L184.5,135.2
		v-28.1c0-4.3-2.6-8.1-6.5-9.7c-3.9-1.6-8.5-0.7-11.5,2.3L3.1,262.1c-4.1,4.1-4.1,10.8,0,14.9c2.1,2.1,4.8,3.1,7.5,3.1
		c2.7,0,5.4-1,7.4-3.1l145.4-144.6V159c0,4.2,2.5,8,6.3,9.6c3.8,1.7,8.3,1,11.4-1.8L326.7,34.4v37.4c0,5.8,4.7,10.5,10.5,10.5
		s10.5-4.7,10.5-10.5V10.6C347.8,10.5,347.8,10.4,347.8,10.3L347.8,10.3z"/>
</g>
</svg>
