<?xml version="1.0" encoding="utf-8"?>
<!-- Generator: Adobe Illustrator 24.1.1, SVG Export Plug-In . SVG Version: 6.00 Build 0)  -->
<svg version="1.1" id="Layer_1" xmlns="http://www.w3.org/2000/svg" xmlns:xlink="http://www.w3.org/1999/xlink" x="0px" y="0px"
	 viewBox="0 0 191.1 245.9" style="enable-background:new 0 0 191.1 245.9;" xml:space="preserve">
<style type="text/css">
	.st0{fill:#007AFB;}
</style>
<g>
	<path class="st0" d="M95.6,18C75,18,55.2,26.2,40.7,40.7C26.1,55.3,17.9,75,17.9,95.6c0,20.6,8.2,40.3,22.8,54.9
		s34.3,22.7,54.9,22.7c20.6,0,40.3-8.2,54.9-22.8c14.6-14.6,22.7-34.3,22.7-54.9c0-20.6-8.2-40.3-22.8-54.8
		C135.9,26.2,116.1,18,95.6,18L95.6,18z M95.6,163.7c-18.1,0-35.4-7.2-48.2-20s-20-30.1-20-48.2s7.2-35.4,20-48.2s30.1-20,48.2-20
		s35.4,7.2,48.2,20c12.8,12.8,20,30.1,20,48.2c0,18.1-7.2,35.4-20,48.2C131,156.5,113.6,163.7,95.6,163.7L95.6,163.7z"/>
	<path class="st0" d="M110.8,79.5L100,48.3c-0.7-1.9-2.5-3.2-4.5-3.2c-2,0-3.8,1.3-4.5,3.2L80.3,79.5l-33.2,0.6h0
		c-2,0-3.8,1.4-4.4,3.3c-0.6,1.9,0.1,4,1.7,5.2l26.3,19.8l-5.8,18.9l-3.8,12.4l0,0c-0.6,1.9,0.1,4,1.8,5.2c1.6,1.2,3.8,1.2,5.5,0
		l27-18.9l27,18.9c1.7,1.2,3.9,1.1,5.5,0c1.6-1.2,2.3-3.3,1.8-5.2l-9.5-31.5l26.3-19.8v0c1.6-1.2,2.3-3.3,1.7-5.2
		c-0.6-1.9-2.4-3.2-4.4-3.3L110.8,79.5z M111.8,102.9c-1.6,1.2-2.2,3.3-1.7,5.2l6.6,21.5l-18.5-12.9c-1.6-1.1-3.8-1.1-5.4,0
		l-18.4,12.9L81,108c0.6-1.9-0.1-4-1.7-5.2l-18-13.5l22.5-0.4c2,0,3.7-1.3,4.4-3.2l7.3-21.3l7.3,21.3l0,0c0.7,1.9,2.4,3.1,4.4,3.2
		l22.5,0.4L111.8,102.9z"/>
	<path class="st0" d="M191.1,95.6c0-15.3-3.7-30.5-10.8-44.1c-0.5-1.2-1.5-2.1-2.8-2.6s-2.6-0.3-3.8,0.3c-1.2,0.6-2,1.7-2.4,2.9
		c-0.4,1.3-0.2,2.6,0.5,3.7c11.1,21.4,12.7,46.5,4.4,69.1c-8.3,22.6-25.7,40.8-47.9,50c-20.9,8.5-44.4,8.5-65.4,0
		c-16.3-6.7-30.2-18.3-39.8-33.1c-1.4-2.3-4.4-2.9-6.7-1.5s-2.9,4.4-1.5,6.7c9.7,15,23.3,27,39.4,34.8V241c-0.1,1.5,0.6,2.9,1.8,3.9
		s2.7,1.3,4.2,0.9l35.1-9.5l35.1,9.5h0c1.5,0.4,3,0.1,4.2-0.9c1.2-0.9,1.8-2.4,1.8-3.9v-59.2c16.3-7.7,30.1-19.9,39.7-35.2
		C186,131.3,191.1,113.6,191.1,95.6L191.1,95.6z M127.2,234.7l-30.4-8.3v0c-0.8-0.2-1.7-0.2-2.5,0l-30.4,8.3v-48.4
		c8.7,2.8,17.8,4.4,26.9,4.7v17.7c0,2.6,2.1,4.7,4.7,4.7c2.6,0,4.7-2.1,4.7-4.7v-17.6c9.1-0.3,18.2-1.9,26.9-4.7L127.2,234.7z"/>
	<path class="st0" d="M16.9,130.3c-1.8-4.1-3.3-8.4-4.5-12.8c-0.8-2.4-3.3-3.7-5.7-3.1c-2.4,0.6-3.9,3.1-3.4,5.5
		c1.3,4.9,2.9,9.6,5,14.2c1.1,2.4,3.9,3.5,6.3,2.4C16.8,135.5,17.9,132.7,16.9,130.3L16.9,130.3z"/>
	<path class="st0" d="M5.6,108.7c1.3-0.1,2.4-0.7,3.2-1.7s1.2-2.2,1.1-3.5c0-2.6-0.4-5.3-0.4-7.9c0-23.2,9.4-45.5,26-61.7
		C52.1,17.8,74.6,9,97.8,9.6s45.2,10.6,61,27.6c1.8,1.9,4.8,2,6.7,0.3c1.9-1.8,2-4.8,0.3-6.7c-17.5-19-41.9-30-67.7-30.7
		C72.3-0.7,47.4,9.1,28.9,27.1C10.4,45.1,0,69.8,0,95.6c0,2.9,0,5.8,0.4,8.7c0.2,2.4,2.3,4.3,4.7,4.3L5.6,108.7z"/>
</g>
</svg>
