<?xml version="1.0" encoding="utf-8"?>
<!-- Generator: Adobe Illustrator 24.1.1, SVG Export Plug-In . SVG Version: 6.00 Build 0)  -->
<svg version="1.1" id="Layer_1" xmlns="http://www.w3.org/2000/svg" xmlns:xlink="http://www.w3.org/1999/xlink" x="0px" y="0px"
	 viewBox="0 0 426.2 426.2" style="enable-background:new 0 0 426.2 426.2;" xml:space="preserve">
<style type="text/css">
	.st0{fill:#007AFB;}
</style>
<path class="st0" d="M213.1,0C95.6,0,0,95.6,0,213.1c0,117.5,95.6,213.1,213.1,213.1c117.5,0,213.1-95.6,213.1-213.1
	C426.2,95.6,330.6,0,213.1,0z M198.9,29v23.1c-0.1,3.8,1.4,7.5,4.1,10.2c2.7,2.7,6.3,4.2,10.1,4.2c3.8,0,7.4-1.5,10.1-4.2
	c2.7-2.7,4.1-6.4,4.1-10.2V29c40.4,3.1,77.1,19,106,43.8l-16.4,16.3c-5.6,5.6-5.6,14.6,0,20.1s14.6,5.6,20.1,0l16.3-16.3
	c24.8,28.9,40.9,65.6,44,106h-23.1c-0.5,0-1,0-1.5,0c-3.8,0.2-7.3,1.9-9.8,4.7c-2.5,2.8-3.8,6.5-3.6,10.3c0.2,3.8,1.9,7.3,4.7,9.8
	c2.8,2.5,6.5,3.8,10.3,3.6h23.1c-2,27-9.7,52.4-22.1,74.9c-29.5-34.6-69.8-59.7-115.7-69.9c-0.9-4.5-2.4-8.8-4.4-12.7l55.2-55.2
	c4.2-4.1,5.5-10.4,3.2-15.8c-2.3-5.4-7.7-8.9-13.6-8.7c-3.7,0.1-7.2,1.6-9.8,4.3l-55.2,55.4c-6.5-3.4-13.9-5.5-21.8-5.5
	c-22.8,0-42,16.5-46.3,38.2c-45.9,10.2-86.2,35.3-115.7,69.9c-12.4-22.5-20-47.9-22.1-74.9h23.1c3.8,0.1,7.5-1.4,10.2-4.1
	c2.7-2.7,4.2-6.3,4.2-10.1c0-3.8-1.5-7.4-4.2-10.1c-2.7-2.7-6.4-4.1-10.2-4.1H29c3.1-40.4,19.1-77,44-106l16.3,16.3
	c5.6,5.6,14.6,5.6,20.1,0c5.6-5.6,5.6-14.6,0-20.1L92.9,72.8C121.9,48,158.5,32.1,198.9,29L198.9,29z M213.1,222.6
	c10.6,0,18.9,8.3,18.9,18.9c0,10.6-8.3,18.9-18.9,18.9c-10.6,0-18.9-8.3-18.9-18.9C194.2,230.9,202.5,222.6,213.1,222.6z
	 M169.9,260.9c7.5,16.4,24.1,28,43.2,28c19.1,0,35.8-11.5,43.2-28c41.2,9.9,77,33.6,102.3,66c-33.8,43.2-86.3,70.9-145.5,70.9
	c-59.2,0-111.7-27.7-145.5-70.9C92.9,294.5,128.7,270.8,169.9,260.9L169.9,260.9z"/>
</svg>
