<svg width="348" height="451" viewBox="0 0 348 451" fill="none" xmlns="http://www.w3.org/2000/svg">
<g clip-path="url(#clip0_492_170)">
<path d="M92.2 306.8H10.5C4.7 306.8 0 311.5 0 317.3V439.8C0 445.6 4.7 450.3 10.5 450.3H92.2C98 450.3 102.7 445.6 102.7 439.8V317.3C102.8 311.5 98 306.8 92.2 306.8ZM81.7 429.3H21.1V327.9H81.7V429.3Z" fill="#0E53BE"/>
<path d="M337.3 143.4H255.6C249.8 143.4 245.1 148.1 245.1 153.9V439.8C245.1 445.6 249.8 450.3 255.6 450.3H337.3C343.1 450.3 347.8 445.6 347.8 439.8V154C347.8 148.2 343.1 143.4 337.3 143.4ZM326.7 429.3H266.1V164.5H326.7V429.3Z" fill="#0E53BE"/>
<path d="M214.8 225.1H133.1C127.3 225.1 122.6 229.8 122.6 235.6V439.8C122.6 445.6 127.3 450.3 133.1 450.3H214.8C220.6 450.3 225.3 445.6 225.3 439.8V235.6C225.3 229.8 220.6 225.1 214.8 225.1ZM204.2 429.3H143.6V246.2H204.2V429.3Z" fill="#0E53BE"/>
<path d="M347.8 10.8C347.8 10.6 347.8 10.4 347.8 10.2C347.8 10 347.8 9.9 347.8 9.7C347.8 9.5 347.7 9.3 347.7 9.2C347.7 9 347.6 8.9 347.6 8.7C347.6 8.5 347.5 8.4 347.5 8.2C347.5 8 347.4 7.9 347.4 7.7C347.3 7.5 347.3 7.4 347.2 7.2C347.1 7 347.1 6.9 347 6.7C346.9 6.5 346.9 6.4 346.8 6.2C346.7 6 346.6 5.9 346.6 5.7C346.5 5.6 346.4 5.4 346.3 5.3C346.2 5.1 346.1 5 346 4.9C345.9 4.8 345.8 4.6 345.7 4.5C345.6 4.3 345.5 4.2 345.3 4.1C345.2 4 345.2 4 345.1 3.9C345 3.8 345 3.8 344.9 3.7C344.8 3.6 344.6 3.4 344.5 3.3C344.4 3.2 344.2 3.1 344.1 3C344 2.9 343.8 2.8 343.7 2.7C343.6 2.6 343.4 2.5 343.3 2.4C343.2 2.3 343 2.2 342.9 2.1C342.7 2 342.6 1.9 342.4 1.8C342.3 1.7 342.1 1.6 342 1.6C341.8 1.5 341.7 1.4 341.5 1.4C341.3 1.3 341.2 1.3 341 1.2C340.8 1.1 340.7 1.1 340.5 1C340.3 0.9 340.2 0.9 340 0.8C339.8 0.8 339.7 0.7 339.5 0.7C339.3 0.7 339.1 0.6 339 0.6C338.8 0.6 338.7 0.5 338.5 0.5C338.3 0.5 338.2 0.5 338 0.5C337.8 0.5 337.6 0.5 337.4 0.5C337.3 0.5 337.2 0.5 337.2 0.5H276C270.2 0.5 265.5 5.2 265.5 11C265.5 16.8 270.2 21.5 276 21.5H310L184.5 135.7V107.6C184.5 103.3 181.9 99.5 178 97.9C174.1 96.3 169.5 97.2 166.5 100.2L3.09999 262.6C-1.00001 266.7 -1.00001 273.4 3.09999 277.5C5.19999 279.6 7.89999 280.6 10.6 280.6C13.3 280.6 16 279.6 18 277.5L163.4 132.9V159.5C163.4 163.7 165.9 167.5 169.7 169.1C173.5 170.8 178 170.1 181.1 167.3L326.7 34.9V72.3C326.7 78.1 331.4 82.8 337.2 82.8C343 82.8 347.7 78.1 347.7 72.3V11.1C347.8 11 347.8 10.9 347.8 10.8Z" fill="#0E53BE"/>
</g>
<defs>
<clipPath id="clip0_492_170">
<rect width="347.8" height="449.9" fill="white" transform="translate(0 0.5)"/>
</clipPath>
</defs>
</svg>
