<svg width="192" height="246" viewBox="0 0 192 246" fill="none" xmlns="http://www.w3.org/2000/svg">
<g clip-path="url(#clip0_493_425)">
<path d="M95.6 18C75 18 55.2 26.2 40.7 40.7C26.1 55.3 17.9 75 17.9 95.6C17.9 116.2 26.1 135.9 40.7 150.5C55.3 165.1 75 173.2 95.6 173.2C116.2 173.2 135.9 165 150.5 150.4C165.1 135.8 173.2 116.1 173.2 95.5C173.2 74.9 165 55.2 150.4 40.7C135.9 26.2 116.1 18 95.6 18ZM95.6 163.7C77.5 163.7 60.2 156.5 47.4 143.7C34.6 130.9 27.4 113.6 27.4 95.5C27.4 77.4 34.6 60.1 47.4 47.3C60.2 34.5 77.5 27.3 95.6 27.3C113.7 27.3 131 34.5 143.8 47.3C156.6 60.1 163.8 77.4 163.8 95.5C163.8 113.6 156.6 130.9 143.8 143.7C131 156.5 113.6 163.7 95.6 163.7Z" fill="#0E53BE"/>
<path d="M110.8 79.5L100 48.3C99.3 46.4 97.5 45.1 95.5 45.1C93.5 45.1 91.7 46.4 91 48.3L80.3 79.5L47.1 80.1C45.1 80.1 43.3 81.5 42.7 83.4C42.1 85.3 42.8 87.4 44.4 88.6L70.7 108.4L64.9 127.3L61.1 139.7C60.5 141.6 61.2 143.7 62.9 144.9C64.5 146.1 66.7 146.1 68.4 144.9L95.4 126L122.4 144.9C124.1 146.1 126.3 146 127.9 144.9C129.5 143.7 130.2 141.6 129.7 139.7L120.2 108.2L146.5 88.4C148.1 87.2 148.8 85.1 148.2 83.2C147.6 81.3 145.8 80 143.8 79.9L110.8 79.5ZM111.8 102.9C110.2 104.1 109.6 106.2 110.1 108.1L116.7 129.6L98.2 116.7C96.6 115.6 94.4 115.6 92.8 116.7L74.4 129.6L81 108C81.6 106.1 80.9 104 79.3 102.8L61.3 89.3L83.8 88.9C85.8 88.9 87.5 87.6 88.2 85.7L95.5 64.4L102.8 85.7C103.5 87.6 105.2 88.8 107.2 88.9L129.7 89.3L111.8 102.9Z" fill="#0E53BE"/>
<path d="M191.1 95.6C191.1 80.3 187.4 65.1 180.3 51.5C179.8 50.3 178.8 49.4 177.5 48.9C176.2 48.4 174.9 48.6 173.7 49.2C172.5 49.8 171.7 50.9 171.3 52.1C170.9 53.4 171.1 54.7 171.8 55.8C182.9 77.2 184.5 102.3 176.2 124.9C167.9 147.5 150.5 165.7 128.3 174.9C107.4 183.4 83.9 183.4 62.9 174.9C46.6 168.2 32.7 156.6 23.1 141.8C21.7 139.5 18.7 138.9 16.4 140.3C14.1 141.7 13.5 144.7 14.9 147C24.6 162 38.2 174 54.3 181.8V241C54.2 242.5 54.9 243.9 56.1 244.9C57.3 245.9 58.8 246.2 60.3 245.8L95.4 236.3L130.5 245.8C132 246.2 133.5 245.9 134.7 244.9C135.9 244 136.5 242.5 136.5 241V181.8C152.8 174.1 166.6 161.9 176.2 146.6C186 131.3 191.1 113.6 191.1 95.6ZM127.2 234.7L96.8 226.4C96 226.2 95.1 226.2 94.3 226.4L63.9 234.7V186.3C72.6 189.1 81.7 190.7 90.8 191V208.7C90.8 211.3 92.9 213.4 95.5 213.4C98.1 213.4 100.2 211.3 100.2 208.7V191.1C109.3 190.8 118.4 189.2 127.1 186.4L127.2 234.7Z" fill="#0E53BE"/>
<path d="M16.9 130.3C15.1 126.2 13.6 121.9 12.4 117.5C11.6 115.1 9.1 113.8 6.7 114.4C4.3 115 2.8 117.5 3.3 119.9C4.6 124.8 6.2 129.5 8.3 134.1C9.4 136.5 12.2 137.6 14.6 136.5C16.8 135.5 17.9 132.7 16.9 130.3Z" fill="#0E53BE"/>
<path d="M5.6 108.7C6.9 108.6 8 108 8.8 107C9.6 106 10 104.8 9.9 103.5C9.9 100.9 9.5 98.2 9.5 95.6C9.5 72.4 18.9 50.1 35.5 33.9C52.1 17.8 74.6 9 97.8 9.6C121 10.2 143 20.2 158.8 37.2C160.6 39.1 163.6 39.2 165.5 37.5C167.4 35.7 167.5 32.7 165.8 30.8C148.3 11.8 123.9 0.799999 98.1 0.0999992C72.3 -0.700001 47.4 9.1 28.9 27.1C10.4 45.1 0 69.8 0 95.6C0 98.5 0 101.4 0.4 104.3C0.6 106.7 2.7 108.6 5.1 108.6L5.6 108.7Z" fill="#0E53BE"/>
</g>
<defs>
<clipPath id="clip0_493_425">
<rect width="191.1" height="245.9" fill="white"/>
</clipPath>
</defs>
</svg>
