<svg width="427" height="427" viewBox="0 0 427 427" fill="none" xmlns="http://www.w3.org/2000/svg">
<g clip-path="url(#clip0_492_144)">
<path d="M213.1 0.5C95.6 0.5 0 96.1 0 213.6C0 331.1 95.6 426.7 213.1 426.7C330.6 426.7 426.2 331.1 426.2 213.6C426.2 96.1 330.6 0.5 213.1 0.5ZM198.9 29.5V52.6C198.8 56.4 200.3 60.1 203 62.8C205.7 65.5 209.3 67 213.1 67C216.9 67 220.5 65.5 223.2 62.8C225.9 60.1 227.3 56.4 227.3 52.6V29.5C267.7 32.6 304.4 48.5 333.3 73.3L316.9 89.6C311.3 95.2 311.3 104.2 316.9 109.7C322.5 115.2 331.5 115.3 337 109.7L353.3 93.4C378.1 122.3 394.2 159 397.3 199.4H374.2C373.7 199.4 373.2 199.4 372.7 199.4C368.9 199.6 365.4 201.3 362.9 204.1C360.4 206.9 359.1 210.6 359.3 214.4C359.5 218.2 361.2 221.7 364 224.2C366.8 226.7 370.5 228 374.3 227.8H397.4C395.4 254.8 387.7 280.2 375.3 302.7C345.8 268.1 305.5 243 259.6 232.8C258.7 228.3 257.2 224 255.2 220.1L310.4 164.9C314.6 160.8 315.9 154.5 313.6 149.1C311.3 143.7 305.9 140.2 300 140.4C296.3 140.5 292.8 142 290.2 144.7L235 200.1C228.5 196.7 221.1 194.6 213.2 194.6C190.4 194.6 171.2 211.1 166.9 232.8C121 243 80.7 268.1 51.2 302.7C38.8 280.2 31.2 254.8 29.1 227.8H52.2C56 227.9 59.7 226.4 62.4 223.7C65.1 221 66.6 217.4 66.6 213.6C66.6 209.8 65.1 206.2 62.4 203.5C59.7 200.8 56 199.4 52.2 199.4H29C32.1 159 48.1 122.4 73 93.4L89.3 109.7C94.9 115.3 103.9 115.3 109.4 109.7C115 104.1 115 95.1 109.4 89.6L92.9 73.3C121.9 48.5 158.5 32.6 198.9 29.5ZM213.1 223.1C223.7 223.1 232 231.4 232 242C232 252.6 223.7 260.9 213.1 260.9C202.5 260.9 194.2 252.6 194.2 242C194.2 231.4 202.5 223.1 213.1 223.1ZM169.9 261.4C177.4 277.8 194 289.4 213.1 289.4C232.2 289.4 248.9 277.9 256.3 261.4C297.5 271.3 333.3 295 358.6 327.4C324.8 370.6 272.3 398.3 213.1 398.3C153.9 398.3 101.4 370.6 67.6 327.4C92.9 295 128.7 271.3 169.9 261.4Z" fill="#0E53BE"/>
</g>
<defs>
<clipPath id="clip0_492_144">
<rect width="426.2" height="426.2" fill="white" transform="translate(0 0.5)"/>
</clipPath>
</defs>
</svg>
