<svg width="45" height="45" viewBox="0 0 45 45" fill="none" xmlns="http://www.w3.org/2000/svg">
<path d="M39.375 8.93798V17.3755C39.375 17.7484 39.2268 18.1061 38.9631 18.3698C38.6994 18.6336 38.3417 18.7817 37.9688 18.7817H29.5312C29.1583 18.7817 28.8006 18.6336 28.5369 18.3698C28.2732 18.1061 28.125 17.7484 28.125 17.3755C28.125 17.0025 28.2732 16.6448 28.5369 16.3811C28.8006 16.1174 29.1583 15.9692 29.5312 15.9692H34.5744L32.0027 13.3976C29.3892 10.7721 25.8407 9.29087 22.1361 9.279H22.057C18.3835 9.27039 14.8542 10.7082 12.2326 13.2815C11.9641 13.5322 11.6081 13.6679 11.2408 13.6595C10.8735 13.651 10.5241 13.4992 10.2673 13.2365C10.0105 12.9737 9.86674 12.6209 9.86676 12.2535C9.86678 11.8861 10.0106 11.5333 10.2674 11.2706C13.4447 8.16524 17.7184 6.43816 22.1611 6.46416C26.6039 6.49015 30.8571 8.26713 33.9979 11.4095L36.5625 13.9811V8.93798C36.5625 8.56502 36.7107 8.20733 36.9744 7.94361C37.2381 7.67989 37.5958 7.53173 37.9688 7.53173C38.3417 7.53173 38.6994 7.67989 38.9631 7.94361C39.2268 8.20733 39.375 8.56502 39.375 8.93798ZM32.7674 32.7194C30.1198 35.3056 26.5595 36.7438 22.8585 36.722C19.1575 36.7003 15.6143 35.2205 12.9973 32.6034L10.4256 30.0317H15.4688C15.8417 30.0317 16.1994 29.8836 16.4631 29.6198C16.7268 29.3561 16.875 28.9984 16.875 28.6255C16.875 28.2525 16.7268 27.8948 16.4631 27.6311C16.1994 27.3674 15.8417 27.2192 15.4688 27.2192H7.03125C6.65829 27.2192 6.3006 27.3674 6.03688 27.6311C5.77316 27.8948 5.625 28.2525 5.625 28.6255V37.063C5.625 37.4359 5.77316 37.7936 6.03688 38.0573C6.3006 38.3211 6.65829 38.4692 7.03125 38.4692C7.40421 38.4692 7.7619 38.3211 8.02562 38.0573C8.28934 37.7936 8.4375 37.4359 8.4375 37.063V32.0198L11.0092 34.5915C14.1455 37.7436 18.405 39.5215 22.8516 39.5345H22.9447C27.3535 39.5458 31.5892 37.8198 34.7344 34.7304C34.9912 34.4676 35.135 34.1148 35.135 33.7475C35.135 33.3801 34.9913 33.0273 34.7345 32.7645C34.4777 32.5018 34.1283 32.3499 33.761 32.3415C33.3937 32.3331 33.0377 32.4687 32.7691 32.7194H32.7674Z" fill="#0E53BE"/>
</svg>
