<svg width="45" height="54" viewBox="0 0 45 54" fill="none" xmlns="http://www.w3.org/2000/svg">
<g clip-path="url(#clip0_1113_4515)">
<mask id="mask0_1113_4515" style="mask-type:luminance" maskUnits="userSpaceOnUse" x="0" y="0" width="45" height="54">
<path d="M45 0.482178H0V53.5179H45V0.482178Z" fill="white"/>
</mask>
<g mask="url(#mask0_1113_4515)">
<mask id="mask1_1113_4515" style="mask-type:luminance" maskUnits="userSpaceOnUse" x="0" y="0" width="45" height="54">
<path d="M44.7015 0.482178H0V53.5179H44.7015V0.482178Z" fill="white"/>
</mask>
<g mask="url(#mask1_1113_4515)">
<path d="M11.0771 27.7382C11.06 27.6864 11.0428 27.6174 11.0343 27.5569C10.94 26.7411 10.85 25.8391 10.7686 25.0622C10.6572 23.9228 10.5329 22.6063 10.4429 21.6828C10.3829 21.0569 10.1857 20.4613 9.89868 20.0168C9.70576 19.7319 9.49152 19.5203 9.25154 19.4168C9.05869 19.3392 8.82299 19.3305 8.57872 19.4255C8.24446 19.555 7.87162 19.8268 7.45593 20.3016C7.08738 20.7245 6.80026 21.29 6.56028 21.8899C6.22172 22.766 6.02031 23.6983 5.93888 24.3371C5.93032 24.3802 5.93032 24.4148 5.91317 24.4493L3.6076 37.6306C3.57332 37.8032 3.50475 37.9585 3.4019 38.0795C2.62623 39.085 2.1377 39.9483 1.99627 40.6475C1.89342 41.1611 1.99627 41.5754 2.33482 41.8991L10.82 50.4449C11.3599 50.9671 11.9856 51.2952 12.7356 51.4333C13.5541 51.5887 14.5097 51.5023 15.6069 51.2002C15.624 51.2002 15.6497 51.1916 15.6668 51.1916C16.0825 51.0794 16.6268 50.9456 17.1496 50.8118C19.4252 50.255 21.4094 49.763 23.2478 48.0797L25.6134 45.5937C25.6348 45.5506 25.6734 45.516 25.7077 45.4815C25.7419 45.4469 25.9734 45.2138 26.2862 44.9161C27.9061 43.3234 29.9074 41.3553 28.6903 39.6332L27.7432 38.6794C27.2847 39.1282 26.7962 39.5642 26.329 39.9828C25.9005 40.3626 25.5019 40.7123 25.1377 41.0834C24.7477 41.4762 24.1177 41.4762 23.7234 41.0834C23.3335 40.6863 23.3335 40.0562 23.7234 39.6591C24.0921 39.2879 24.542 38.8866 25.0091 38.4679C26.6119 37.0435 28.4504 35.4164 27.4647 33.9878L26.5262 33.0426C26.4748 32.9908 26.4319 32.9304 26.3933 32.8699C25.8534 33.4267 25.262 33.9576 24.6792 34.4755C24.2506 34.8554 23.852 35.2049 23.4878 35.5761C23.0979 35.9688 22.4679 35.9688 22.0736 35.5761C21.6793 35.1833 21.6836 34.5489 22.0736 34.1518C22.4421 33.7807 22.8921 33.3793 23.3592 32.9606C24.962 31.5363 26.8004 29.9092 25.8148 28.4805L24.8763 27.5353C24.8077 27.4662 24.7562 27.4015 24.7135 27.3195L21.9621 30.0904C21.5722 30.4832 20.9423 30.4832 20.548 30.0904C20.1537 29.6976 20.158 29.0632 20.548 28.6661L27.9275 21.221C29.1617 19.9779 29.4446 18.6831 29.1189 17.7033C28.9989 17.3451 28.8017 17.0257 28.5575 16.7797C28.3132 16.5337 27.9961 16.3351 27.6404 16.2143C26.6804 15.8949 25.3991 16.1884 24.1307 17.4659L11.1886 30.5005C10.7986 30.8932 10.1686 30.8932 9.77441 30.5005C9.3801 30.1077 9.38438 29.4732 9.77441 29.0761L11.09 27.7511L11.0771 27.7382ZM35.667 10.9746C35.1442 11.5357 34.2785 11.5529 33.73 11.035C33.1729 10.5084 33.1557 9.63662 33.67 9.08416L37.4498 5.03138C37.9726 4.47029 38.8426 4.45303 39.3868 4.97095C39.9439 5.49752 39.9611 6.36936 39.4468 6.92181L35.667 10.9746ZM18.8381 10.6897C19.3952 11.2163 19.4124 12.0924 18.8981 12.6405C18.3752 13.2017 17.5053 13.2189 16.9611 12.701L12.9327 8.89425C12.3799 8.36337 12.3628 7.49153 12.8727 6.9434C13.3956 6.38231 14.2655 6.36504 14.8097 6.88296L18.8381 10.6897ZM27.2933 7.37068C27.3147 8.13031 26.719 8.76909 25.969 8.79498C25.2191 8.82088 24.5806 8.21663 24.5549 7.46132L24.3877 1.90656C24.3621 1.15124 24.962 0.508151 25.712 0.482254C26.4662 0.460674 27.1005 1.06061 27.1218 1.81591L27.2933 7.37068ZM32.9458 27.8072C32.3886 27.2806 32.3715 26.4045 32.8857 25.8564C33.4086 25.2953 34.2742 25.278 34.8228 25.7959L38.8468 29.6027C39.4039 30.1292 39.4211 31.0011 38.9068 31.5536C38.384 32.1147 37.5183 32.1319 36.9698 31.6139L32.9458 27.8072ZM37.8655 19.624C37.1155 19.6498 36.477 19.0456 36.4513 18.2903C36.4298 17.535 37.0255 16.8919 37.7755 16.866L43.2866 16.6804C44.0365 16.6545 44.6751 17.2588 44.7007 18.014C44.7265 18.7694 44.1265 19.4124 43.3766 19.4384L37.8655 19.624ZM26.089 25.934C26.1619 25.9772 26.2347 26.029 26.3033 26.098L27.2847 27.0864C27.3361 27.1382 27.3875 27.2072 27.4304 27.2677C28.5317 28.7869 28.3604 30.1422 27.6104 31.3766C27.7432 31.4284 27.8761 31.5018 27.9789 31.6097L28.9603 32.5981C29.0117 32.6499 29.0631 32.7189 29.106 32.7793C30.2888 34.4194 29.9931 35.8524 29.106 37.1558C29.1488 37.1774 29.1789 37.2162 29.226 37.2593L30.2074 38.2477C30.2588 38.2995 30.3102 38.3686 30.3531 38.429C32.6287 41.5625 29.9159 44.2212 27.739 46.3663L27.1775 46.9317L24.7477 49.4997L24.6706 49.5731C22.4464 51.606 20.2437 52.1497 17.6938 52.7756C17.2653 52.8792 16.8368 52.9914 16.2368 53.1468C16.2197 53.1468 16.2111 53.1554 16.194 53.1554C14.814 53.5352 13.5627 53.6259 12.4399 53.423C11.3 53.2159 10.31 52.7022 9.48295 51.8865L0.989191 43.3364C0.132104 42.5034 -0.163592 41.4762 0.080678 40.2547C0.264952 39.2793 0.830631 38.196 1.71343 37.0306L3.98472 24.1083V24.0565C4.08758 23.3185 4.31899 22.2265 4.71754 21.1734C5.02179 20.3836 5.4332 19.611 5.96888 18.9852C6.61598 18.2471 7.25451 17.794 7.88447 17.5522C8.66014 17.2545 9.40153 17.2933 10.0572 17.5782C10.67 17.8371 11.1886 18.3076 11.5828 18.9075C12.0628 19.6282 12.3756 20.5476 12.4613 21.5058C12.5299 22.2957 12.667 23.5991 12.7956 24.8766L12.8985 25.9427L22.7121 16.0503C24.5977 14.1512 26.6376 13.7757 28.2704 14.3152C28.926 14.531 29.5045 14.8893 29.9845 15.3727C30.4645 15.8561 30.8202 16.4387 31.0344 17.0991C31.5744 18.7392 31.2059 20.8239 29.3546 22.6884L26.1019 25.9643L26.089 25.934Z" fill="#0E53BE" stroke="#0E53BE"/>
</g>
</g>
</g>
<defs>
<clipPath id="clip0_1113_4515">
<rect width="45" height="54" fill="white"/>
</clipPath>
</defs>
</svg>
