<svg width="45" height="45" viewBox="0 0 45 45" fill="none" xmlns="http://www.w3.org/2000/svg">
<g clip-path="url(#clip0_1108_4494)">
<path d="M25.3131 27.7171C27.5176 26.3441 29.2149 24.2905 30.1483 21.8669C31.0816 19.4434 31.2003 16.7817 30.4863 14.2847C29.7722 11.7877 28.2644 9.59121 26.1908 8.02749C24.1173 6.46377 21.5908 5.61792 18.9938 5.61792C16.3967 5.61792 13.8703 6.46377 11.7967 8.02749C9.72315 9.59121 8.2153 11.7877 7.50127 14.2847C6.78725 16.7817 6.9059 19.4434 7.83927 21.8669C8.77265 24.2905 10.47 26.3441 12.6744 27.7171C9.04455 28.9054 5.77853 31.1255 3.15236 34.2509C3.02931 34.3916 2.93555 34.5555 2.87656 34.7328C2.81757 34.9102 2.79453 35.0975 2.80879 35.2839C2.82304 35.4703 2.87432 35.652 2.9596 35.8183C3.04489 35.9846 3.16248 36.1323 3.3055 36.2526C3.44852 36.373 3.6141 36.4636 3.79255 36.5192C3.97101 36.5748 4.15876 36.5943 4.34483 36.5765C4.5309 36.5587 4.71156 36.504 4.87623 36.4156C5.04091 36.3271 5.18631 36.2068 5.30392 36.0615C8.83361 31.8498 13.6957 29.5312 18.985 29.5312C24.2742 29.5312 29.1363 31.8498 32.6731 36.0615C32.9132 36.3473 33.2569 36.526 33.6288 36.5583C34.0006 36.5906 34.3701 36.4738 34.6559 36.2337C34.9417 35.9936 35.1204 35.6499 35.1527 35.278C35.185 34.9062 35.0682 34.5367 34.8281 34.2509C32.2002 31.1255 28.9342 28.9054 25.3131 27.7171ZM9.84435 17.5781C9.84435 15.7702 10.3804 14.003 11.3848 12.4998C12.3892 10.9966 13.8168 9.82507 15.487 9.13324C17.1572 8.44141 18.9951 8.26039 20.7682 8.61308C22.5413 8.96578 24.17 9.83634 25.4484 11.1147C26.7267 12.393 27.5973 14.0217 27.95 15.7948C28.3027 17.5679 28.1216 19.4058 27.4298 21.076C26.738 22.7463 25.5664 24.1738 24.0632 25.1782C22.5601 26.1826 20.7928 26.7187 18.985 26.7187C16.5616 26.7159 14.2383 25.752 12.5247 24.0384C10.8111 22.3248 9.84714 20.0015 9.84435 17.5781ZM44.3414 25.149L43.5223 24.6761C43.6184 24.1673 43.6184 23.6451 43.5223 23.1363L44.3414 22.6634C44.5014 22.5711 44.6416 22.4482 44.7541 22.3016C44.8665 22.1551 44.949 21.9879 44.9969 21.8095C45.0447 21.631 45.0569 21.445 45.0328 21.2618C45.0087 21.0787 44.9488 20.9021 44.8565 20.7421C44.7641 20.5822 44.6412 20.4419 44.4947 20.3295C44.3481 20.217 44.1809 20.1345 44.0025 20.0867C43.8241 20.0389 43.638 20.0267 43.4549 20.0508C43.2717 20.0748 43.0951 20.1348 42.9352 20.2271L42.1143 20.7017C41.7214 20.3647 41.2697 20.103 40.7819 19.93V18.9843C40.7819 18.6114 40.6337 18.2537 40.37 17.99C40.1062 17.7262 39.7486 17.5781 39.3756 17.5781C39.0026 17.5781 38.645 17.7262 38.3812 17.99C38.1175 18.2537 37.9694 18.6114 37.9694 18.9843V19.93C37.4815 20.103 37.0298 20.3647 36.6369 20.7017L35.816 20.2271C35.6561 20.1348 35.4795 20.0748 35.2963 20.0508C35.1132 20.0267 34.9271 20.0389 34.7487 20.0867C34.5703 20.1345 34.4031 20.217 34.2565 20.3295C34.11 20.4419 33.9871 20.5822 33.8947 20.7421C33.8024 20.9021 33.7425 21.0787 33.7184 21.2618C33.6943 21.445 33.7065 21.631 33.7543 21.8095C33.8022 21.9879 33.8847 22.1551 33.9971 22.3016C34.1096 22.4482 34.2498 22.5711 34.4098 22.6634L35.2289 23.1363C35.1328 23.6451 35.1328 24.1673 35.2289 24.6761L34.4098 25.149C34.2498 25.2413 34.1096 25.3643 33.9971 25.5108C33.8847 25.6573 33.8022 25.8245 33.7543 26.003C33.7065 26.1814 33.6943 26.3674 33.7184 26.5506C33.7425 26.7337 33.8024 26.9103 33.8947 27.0703C33.9871 27.2302 34.11 27.3705 34.2565 27.4829C34.4031 27.5954 34.5703 27.6779 34.7487 27.7257C34.9271 27.7735 35.1132 27.7857 35.2963 27.7616C35.4795 27.7376 35.6561 27.6776 35.816 27.5853L36.6369 27.1107C37.0298 27.4477 37.4815 27.7094 37.9694 27.8824V28.8281C37.9694 29.201 38.1175 29.5587 38.3812 29.8224C38.645 30.0862 39.0026 30.2343 39.3756 30.2343C39.7486 30.2343 40.1062 30.0862 40.37 29.8224C40.6337 29.5587 40.7819 29.201 40.7819 28.8281V27.8824C41.2697 27.7094 41.7214 27.4477 42.1143 27.1107L42.9352 27.5853C43.1487 27.7092 43.3914 27.7742 43.6383 27.7734C43.948 27.7735 44.249 27.6714 44.4947 27.4829C44.7404 27.2945 44.9171 27.0302 44.9972 26.7311C45.0773 26.4319 45.0565 26.1147 44.9379 25.8287C44.8193 25.5426 44.6097 25.3037 44.3414 25.149ZM37.9694 23.9062C37.9694 23.6281 38.0518 23.3562 38.2063 23.1249C38.3609 22.8937 38.5805 22.7134 38.8375 22.607C39.0944 22.5006 39.3772 22.4727 39.6499 22.527C39.9227 22.5812 40.1733 22.7152 40.37 22.9118C40.5666 23.1085 40.7006 23.3591 40.7548 23.6319C40.8091 23.9046 40.7812 24.1874 40.6748 24.4443C40.5684 24.7013 40.3881 24.9209 40.1569 25.0755C39.9256 25.23 39.6537 25.3125 39.3756 25.3125C39.0026 25.3125 38.645 25.1643 38.3812 24.9006C38.1175 24.6368 37.9694 24.2792 37.9694 23.9062Z" fill="#0E53BE"/>
</g>
<defs>
<clipPath id="clip0_1108_4494">
<rect width="45" height="45" fill="white"/>
</clipPath>
</defs>
</svg>
