<svg width="474" height="474" viewBox="0 0 474 474" fill="none" xmlns="http://www.w3.org/2000/svg">
<g clip-path="url(#clip0_493_215)">
<mask id="mask0_493_215" style="mask-type:luminance" maskUnits="userSpaceOnUse" x="0" y="0" width="474" height="474">
<path d="M473.6 0H0V473.6H473.6V0Z" fill="white"/>
</mask>
<g mask="url(#mask0_493_215)">
<path d="M186.3 -3.01097e-06C181.1 0.399997 176.5 3.4 174.1 8.1C171.7 12.8 172 18.3 174.8 22.7C177.6 27.1 182.5 29.7 187.7 29.6H285.8C289.8 29.7 293.6 28.2 296.5 25.4C299.3 22.6 301 18.8 301 14.8C301 10.8 299.4 7 296.5 4.2C293.7 1.4 289.8 -0.100003 285.8 -3.01097e-06H187.7C187.2 -3.01097e-06 186.8 -3.01097e-06 186.3 -3.01097e-06ZM187.7 57.2C183.8 57.2 180 58.8 177.2 61.6C174.4 64.4 172.9 68.2 172.9 72.1V231.4H104.6C100.8 231.4 97.1 232.8 94.4 235.5C91.6 238.1 90 241.7 89.8 245.5C89.6 249.3 90.9 253 93.4 255.9L225.6 409C228.4 412.3 232.5 414.1 236.8 414.1C241.1 414.1 245.2 412.2 248 409L380.1 255.7C382.6 252.8 383.9 249.1 383.7 245.3C383.5 241.5 381.9 237.9 379.2 235.3C376.5 232.7 372.8 231.2 369 231.2H300.7V72C300.7 68.1 299.2 64.3 296.4 61.5C293.6 58.7 289.8 57.2 285.9 57.2H187.7ZM202.6 86.8H271V246.2C271 250.1 272.6 253.9 275.3 256.6C278.1 259.4 281.8 260.9 285.7 260.9H336.6L236.6 376.7L136.7 260.9H187.5C191.4 260.9 195.2 259.4 198 256.6C200.8 253.8 202.4 250.1 202.4 246.2L202.6 86.8ZM14.5 314.3C10.6 314.4 6.9 316 4.2 318.8C1.5 321.6 0 325.4 0 329.3V427.4C0 452.8 20.9 473.6 46.2 473.6H427.4C452.8 473.6 473.6 452.7 473.6 427.4V329.3C473.6 325.4 472 321.6 469.3 318.8C466.5 316 462.8 314.5 458.8 314.5C454.9 314.5 451.1 316.1 448.3 318.8C445.5 321.6 444 325.3 444 329.3V427.4C444 436.9 436.9 444 427.4 444H46.2C36.7 444 29.6 436.9 29.6 427.4V329.3C29.6 325.3 28.1 321.5 25.2 318.6C22.4 315.8 18.5 314.3 14.5 314.3Z" fill="#0E53BE"/>
</g>
</g>
<defs>
<clipPath id="clip0_493_215">
<rect width="473.6" height="473.6" fill="white"/>
</clipPath>
</defs>
</svg>
