<?xml version="1.0" encoding="utf-8"?>
<!-- Generator: Adobe Illustrator 24.1.1, SVG Export Plug-In . SVG Version: 6.00 Build 0)  -->
<svg version="1.1" id="Layer_1" xmlns="http://www.w3.org/2000/svg" xmlns:xlink="http://www.w3.org/1999/xlink" x="0px" y="0px"
	 viewBox="0 0 473.6 473.6" style="enable-background:new 0 0 473.6 473.6;" xml:space="preserve">
<style type="text/css">
	.st0{clip-path:url(#SVGID_2_);}
	.st1{fill:#007AFB;}
</style>
<g>
	<defs>
		<rect id="SVGID_1_" x="0" y="0" width="473.6" height="473.6"/>
	</defs>
	<clipPath id="SVGID_2_">
		<use xlink:href="#SVGID_1_"  style="overflow:visible;"/>
	</clipPath>
	<g class="st0">
		<path class="st1" d="M186.3,0c-5.2,0.4-9.8,3.4-12.2,8.1c-2.4,4.7-2.1,10.2,0.7,14.6c2.8,4.4,7.7,7,12.9,6.9h98.1
			c4,0.1,7.8-1.4,10.7-4.2c2.8-2.8,4.5-6.6,4.5-10.6c0-4-1.6-7.8-4.5-10.6c-2.8-2.8-6.7-4.3-10.7-4.2h-98.1C187.2,0,186.8,0,186.3,0
			L186.3,0z M187.7,57.2c-3.9,0-7.7,1.6-10.5,4.4c-2.8,2.8-4.3,6.6-4.3,10.5v159.3h-68.3c-3.8,0-7.5,1.4-10.2,4.1
			c-2.8,2.6-4.4,6.2-4.6,10c-0.2,3.8,1.1,7.5,3.6,10.4L225.6,409c2.8,3.3,6.9,5.1,11.2,5.1s8.4-1.9,11.2-5.1l132.1-153.3
			c2.5-2.9,3.8-6.6,3.6-10.4c-0.2-3.8-1.8-7.4-4.5-10c-2.7-2.6-6.4-4.1-10.2-4.1h-68.3V72c0-3.9-1.5-7.7-4.3-10.5
			c-2.8-2.8-6.6-4.3-10.5-4.3L187.7,57.2z M202.6,86.8H271v159.4c0,3.9,1.6,7.7,4.3,10.4c2.8,2.8,6.5,4.3,10.4,4.3h50.9l-100,115.8
			l-99.9-115.8h50.8c3.9,0,7.7-1.5,10.5-4.3c2.8-2.8,4.4-6.5,4.4-10.4L202.6,86.8z M14.5,314.3c-3.9,0.1-7.6,1.7-10.3,4.5
			c-2.7,2.8-4.2,6.6-4.2,10.5v98.1c0,25.4,20.9,46.2,46.2,46.2h381.2c25.4,0,46.2-20.9,46.2-46.2v-98.1h0c0-3.9-1.6-7.7-4.3-10.5
			c-2.8-2.8-6.5-4.3-10.5-4.3c-3.9,0-7.7,1.6-10.5,4.3c-2.8,2.8-4.3,6.5-4.3,10.5v98.1c0,9.5-7.1,16.6-16.6,16.6H46.2
			c-9.5,0-16.6-7.1-16.6-16.6l0-98.1c0-4-1.5-7.8-4.4-10.7C22.4,315.8,18.5,314.3,14.5,314.3L14.5,314.3z"/>
	</g>
</g>
</svg>
