<?xml version="1.0" encoding="utf-8"?>
<!-- Generator: Adobe Illustrator 24.1.1, SVG Export Plug-In . SVG Version: 6.00 Build 0)  -->
<svg version="1.1" id="Layer_1" xmlns="http://www.w3.org/2000/svg" xmlns:xlink="http://www.w3.org/1999/xlink" x="0px" y="0px"
	 viewBox="0 0 388.3 449.9" style="enable-background:new 0 0 388.3 449.9;" xml:space="preserve">
<style type="text/css">
	.st0{fill:#007AFB;}
</style>
<g>
	<path class="st0" d="M388.3,309.7c0-25.6-20.8-46.4-46.4-46.4c-8.1,0-15.6,1.9-22.7,5.7c-8.1-14.7-23.2-25.1-41.2-25.1
		c-8.1,0-15.6,1.9-22.7,5.7c-8.1-14.7-23.2-25.1-41.2-25.1c-6.2,0-11.8,0.9-17.1,3.3l0-90.9c0-12.3-4.7-24.2-13.7-33.2
		c-9-9-20.8-14.2-33.2-13.7c-25.6,0-46.4,20.8-46.4,46.9v208.9L80.5,323c-16.1-15.6-41.2-18-59.7-5.7C10,324.9,2.4,336.7,0.5,349.5
		c-1.9,13.3,1.9,26.5,10.4,36.9l48.8,57.8c2.8,3.3,7.1,5.2,11.4,5.2c3.3,0,6.6-0.9,9.5-3.3c6.2-5.2,7.1-14.7,1.9-20.8L33.6,368
		c-3.3-3.8-4.7-9-3.8-13.7c0.9-5.2,3.3-9.5,7.6-12.3c7.1-4.7,16.6-3.8,22.3,1.9l35,35c6.2,6.2,15.6,8.1,24.2,4.7
		s13.7-11.4,13.7-20.4V136.9c0-9.5,7.6-17.1,17.1-17.1c4.7,0,9,1.9,12.3,5.2c3.3,3.3,5.2,7.6,5.2,12.3v155.8
		c0,8.1,6.6,14.7,14.7,14.7c8.1,0,14.7-6.6,14.7-14.7v-21.3c0-9.5,7.6-17.1,17.1-17.1s17.1,7.6,17.1,17.1v40.3
		c0,8.1,6.6,14.7,14.7,14.7c8.1,0,14.7-6.6,14.7-14.7v-21.3c0-9.5,7.6-17.1,17.1-17.1c9.5,0,17.1,7.6,17.1,17.1V331
		c0,8.1,6.6,14.7,14.7,14.7s14.7-6.6,14.7-14.7v-19.9v-1.4c0-9.5,7.6-17.1,17.1-17.1s17.1,7.6,17.1,17.1v125.5
		c0,8.1,6.6,14.7,14.7,14.7s14.7-6.6,14.7-14.7L388.3,309.7z"/>
	<path class="st0" d="M149.2,69.1c8.1,0,14.7-6.6,14.7-14.7V14.7c0-8.1-6.6-14.7-14.7-14.7s-14.7,6.6-14.7,14.7v39.8
		C134.5,62.5,141.1,69.1,149.2,69.1z"/>
	<path class="st0" d="M81,88.6c2.8,2.8,6.6,4.3,10.4,4.3s7.6-1.4,10.4-4.3c5.7-5.7,5.7-15.2,0-20.8L73.9,39.8
		c-5.7-5.7-15.2-5.7-20.8,0c-5.7,5.7-5.7,15.2,0,20.8L81,88.6z"/>
	<path class="st0" d="M27.9,150.6h39.8c8.1,0,14.7-6.6,14.7-14.7s-6.6-14.7-14.7-14.7H27.9c-8.1,0-14.7,6.6-14.7,14.7
		S19.9,150.6,27.9,150.6L27.9,150.6z"/>
	<path class="st0" d="M216,135.9c0,8.1,6.6,14.7,14.7,14.7h39.8c8.1,0,14.7-6.6,14.7-14.7s-6.6-14.7-14.7-14.7h-39.8
		C222.6,121.2,216,127.9,216,135.9z"/>
	<path class="st0" d="M207,92.8c3.8,0,7.6-1.4,10.4-4.3l27.9-27.9c5.7-5.7,5.7-15.2,0-20.8c-5.7-5.7-15.2-5.7-20.8,0l-27.9,27.9
		c-5.7,5.7-5.7,15.2,0,20.8C199.4,91.4,203.2,92.8,207,92.8z"/>
</g>
</svg>
