<svg width="55" height="55" viewBox="0 0 55 55" fill="none" xmlns="http://www.w3.org/2000/svg">
<path d="M45.8334 4.58325H21.389V12.2221H24.4446V7.63881H45.8334C46.7501 7.63881 47.3612 8.24992 47.3612 9.16658V25.9721C47.3612 26.8888 46.7501 27.4999 45.8334 27.4999H25.9723V38.1944H17.8751L12.2223 42.6249V38.1944H7.639C6.72233 38.1944 6.11122 37.5832 6.11122 36.6666V19.861C6.11122 18.9444 6.72233 18.3333 7.639 18.3333H27.5001V15.2777H7.639C5.04178 15.2777 3.05566 17.2638 3.05566 19.861V36.6666C3.05566 39.2638 5.04178 41.2499 7.639 41.2499H9.16678V49.0416L18.7918 41.2499H29.0279V30.5555H45.8334C48.4307 30.5555 50.4168 28.5694 50.4168 25.9721V9.16658C50.4168 6.56936 48.4307 4.58325 45.8334 4.58325Z" fill="#0E53BE"/>
<path d="M9.47217 34.9861H13.1388L14.0555 32.5417H18.7916L19.7083 34.9861H23.3749L18.1805 21.3889H14.5138L9.47217 34.9861ZM16.3472 25.2084L17.8749 29.9445H14.8194L16.3472 25.2084Z" fill="#0E53BE"/>
<path d="M30.5557 25.9723C32.2362 25.9723 34.5279 25.514 36.6668 24.4445C38.8057 25.514 41.2501 25.9723 42.7779 25.9723V22.9167C42.7779 22.9167 41.2501 22.9167 39.5696 22.3056C41.4029 20.4723 42.7779 17.7223 42.7779 13.7501V12.2223H38.1946V9.16675H35.139V12.2223H30.5557V15.2779H39.5696C39.264 18.0279 38.0418 19.7084 36.6668 20.7779C35.7501 20.014 34.8334 18.9445 34.2223 17.5695H31.014C31.6251 19.5556 32.5418 21.0834 33.764 22.3056C32.2362 22.9167 30.8612 22.9167 30.5557 22.9167V25.9723Z" fill="#0E53BE"/>
</svg>
