<svg width="55" height="55" viewBox="0 0 55 55" fill="none" xmlns="http://www.w3.org/2000/svg">
<path d="M54.8637 5.24487H20.5936C20.5256 5.24487 20.4575 5.30157 20.4575 5.38096V8.59023C20.4575 8.65827 20.5142 8.72632 20.5936 8.72632H54.8637C54.9317 8.72632 54.9998 8.66961 54.9998 8.59023V5.38096C54.9998 5.30157 54.9431 5.24487 54.8637 5.24487Z" fill="#0E53BE"/>
<path d="M8.10849 33.0285C10.4822 33.0285 12.4064 31.1042 12.4064 28.7306C12.4064 26.3569 10.4822 24.4326 8.10849 24.4326C5.7348 24.4326 3.81055 26.3569 3.81055 28.7306C3.81055 31.1042 5.7348 33.0285 8.10849 33.0285Z" fill="#0E53BE"/>
<path d="M8.10822 51.8986C10.4944 51.8986 12.4288 49.9642 12.4288 47.5779C12.4288 45.1917 10.4944 43.2573 8.10822 43.2573C5.722 43.2573 3.7876 45.1917 3.7876 47.5779C3.7876 49.9642 5.722 51.8986 8.10822 51.8986Z" fill="#0E53BE"/>
<path d="M20.5936 14.5325H36.7874C36.8555 14.5325 36.9235 14.4758 36.9235 14.3964V11.1871C36.9235 11.1191 36.8668 11.051 36.7874 11.051H20.5936C20.5256 11.051 20.4575 11.1077 20.4575 11.1871V14.3964C20.4689 14.4758 20.5256 14.5325 20.5936 14.5325Z" fill="#0E53BE"/>
<path d="M54.8637 24.0923H20.5936C20.5256 24.0923 20.4575 24.149 20.4575 24.2284V27.4376C20.4575 27.5057 20.5142 27.5737 20.5936 27.5737H54.8637C54.9317 27.5737 54.9998 27.517 54.9998 27.4376V24.2284C54.9998 24.149 54.9431 24.0923 54.8637 24.0923Z" fill="#0E53BE"/>
<path d="M20.5936 33.3799H36.7874C36.8555 33.3799 36.9235 33.3232 36.9235 33.2438V30.0345C36.9235 29.9665 36.8668 29.8984 36.7874 29.8984H20.5936C20.5256 29.8984 20.4575 29.9551 20.4575 30.0345V33.2438C20.4689 33.3118 20.5256 33.3799 20.5936 33.3799Z" fill="#0E53BE"/>
<path d="M54.8637 42.9285H20.5936C20.5256 42.9285 20.4575 42.9852 20.4575 43.0646V46.2738C20.4575 46.3419 20.5142 46.4099 20.5936 46.4099H54.8637C54.9317 46.4099 54.9998 46.3532 54.9998 46.2738V43.0646C54.9998 42.9852 54.9431 42.9285 54.8637 42.9285Z" fill="#0E53BE"/>
<path d="M36.7874 48.7458H20.5936C20.5256 48.7458 20.4575 48.8025 20.4575 48.8819V52.0912C20.4575 52.1593 20.5142 52.2273 20.5936 52.2273H36.7874C36.8555 52.2273 36.9235 52.1706 36.9235 52.0912V48.8819C36.9235 48.8025 36.8668 48.7458 36.7874 48.7458Z" fill="#0E53BE"/>
<path d="M6.05567 9.81497L3.09588 6.83249L0 9.91703L2.97113 12.8882L6.04433 15.984L9.12887 12.9108L16.2165 5.86857L13.1433 2.77271L6.05567 9.81497Z" fill="#0E53BE"/>
</svg>
