<?xml version="1.0" encoding="utf-8"?>
<!-- Generator: Adobe Illustrator 24.1.1, SVG Export Plug-In . SVG Version: 6.00 Build 0)  -->
<svg version="1.1" id="Layer_1" xmlns="http://www.w3.org/2000/svg" xmlns:xlink="http://www.w3.org/1999/xlink" x="0px" y="0px"
	 viewBox="0 0 428.5 432.7" style="enable-background:new 0 0 428.5 432.7;" xml:space="preserve">
<style type="text/css">
	.st0{fill:#007AFB;}
</style>
<path class="st0" d="M338.7,18.9h66v56.8l-132,0V18.9L338.7,18.9 M89.8,18.9h66v56.8l-132,0V18.9L89.8,18.9 M338.7,136.4l66,0v56.8
	h-132v-56.8L338.7,136.4 M89.8,136.4h66v56.8h-132v-56.8H89.8 M409.5,257.1v26.7H18.9v-26.7H409.5 M209.5,360l20.7,33.8l12.4,20h-66
	l33.2-53.8 M338.9,0.1h-74.5c-7.4,0-10.6,3.2-10.6,10.6l0,73.1c0,7.7,3.1,10.8,10.8,10.8l148.6,0c7.2,0,10.3-3.2,10.4-10.3V10.7
	c0-7.4-3.2-10.6-10.6-10.6L338.9,0.1z M90,0.1H15.3C8,0.1,4.8,3.3,4.7,10.7v73.1c0,7.7,3.1,10.8,10.8,10.8h148.7
	c7.2,0,10.3-3.2,10.4-10.3V10.6C174.6,3.1,171.4,0,164,0L90,0.1z M338.7,117.4h-74.4c-7.4,0-10.6,3.2-10.6,10.6l0,73.2
	c0,7.7,3.1,10.8,10.8,10.8h148.6c7.2,0,10.3-3.2,10.4-10.3V128c0-7.4-3.2-10.6-10.6-10.6H338.7z M89.8,117.4H15.3
	c-7.4,0-10.6,3.2-10.6,10.6v73.2c0,7.7,3.1,10.8,10.8,10.8h148.7c7.2,0,10.3-3.2,10.4-10.3V128c0-7.4-3.2-10.6-10.6-10.6H89.8z
	 M428.5,238.1H0v64.6h428.5V238.1z M209.5,323.8l-66.8,108.9l133.7,0L209.5,323.8z"/>
</svg>
