<svg width="429" height="433" viewBox="0 0 429 433" fill="none" xmlns="http://www.w3.org/2000/svg">
<g clip-path="url(#clip0_493_268)">
<path d="M338.7 18.9H404.7V75.7H272.7V18.9H338.7ZM89.8 18.9H155.8V75.7H23.8V18.9H89.8ZM338.7 136.4H404.7V193.2H272.7V136.4H338.7ZM89.8 136.4H155.8V193.2H23.8V136.4H89.8ZM409.5 257.1V283.8H18.9V257.1H409.5ZM209.5 360L230.2 393.8L242.6 413.8H176.6L209.8 360M338.9 0.1H264.4C257 0.1 253.8 3.3 253.8 10.7V83.8C253.8 91.5 256.9 94.6 264.6 94.6H413.2C420.4 94.6 423.5 91.4 423.6 84.3V10.7C423.6 3.3 420.4 0.1 413 0.1H338.9ZM90 0.1H15.3C8 0.1 4.8 3.3 4.7 10.7V83.8C4.7 91.5 7.8 94.6 15.5 94.6H164.2C171.4 94.6 174.5 91.4 174.6 84.3V10.6C174.6 3.1 171.4 0 164 0L90 0.1ZM338.7 117.4H264.3C256.9 117.4 253.7 120.6 253.7 128V201.2C253.7 208.9 256.8 212 264.5 212H413.1C420.3 212 423.4 208.8 423.5 201.7V128C423.5 120.6 420.3 117.4 412.9 117.4H338.7ZM89.8 117.4H15.3C7.9 117.4 4.7 120.6 4.7 128V201.2C4.7 208.9 7.8 212 15.5 212H164.2C171.4 212 174.5 208.8 174.6 201.7V128C174.6 120.6 171.4 117.4 164 117.4H89.8ZM428.5 238.1H0V302.7H428.5V238.1ZM209.5 323.8L142.7 432.7H276.4L209.5 323.8Z" fill="#0E53BE"/>
</g>
<defs>
<clipPath id="clip0_493_268">
<rect width="428.5" height="432.7" fill="white"/>
</clipPath>
</defs>
</svg>
