<svg width="443" height="437" viewBox="0 0 443 437" fill="none" xmlns="http://www.w3.org/2000/svg">
<g clip-path="url(#clip0_492_146)">
<path d="M238.4 307.8H204.9V274.5C253.8 251.5 287.7 201.8 287.7 144.3C287.6 65 223.1 0.5 143.8 0.5C64.5 0.5 0 65 0 144.3C0 201.8 33.9 251.5 82.8 274.5V307.7H49.3C42.4 307.7 36.4 311.6 33.5 317.8C30.4 324.5 31.6 332 36.6 337L131.2 431.4C135.8 436 140.6 436.9 143.9 436.9C147.2 436.9 152 435.9 156.6 431.4L251.2 337C251.4 336.8 251.6 336.6 251.8 336.4C256.2 331.2 257.2 324 254.3 317.8C251.3 311.6 245.2 307.8 238.4 307.8ZM21.1 144.3C21.1 76.6 76.2 21.6 143.8 21.6C211.5 21.6 266.5 76.7 266.5 144.3C266.5 212 211.4 267 143.8 267C76.1 267.1 21.1 212 21.1 144.3ZM143.8 414.4L58.1 328.9H93.2C99 328.9 103.7 324.2 103.7 318.4V282.5C116.4 286.2 129.8 288.2 143.7 288.2C157.6 288.2 171 286.2 183.7 282.5V318.3C183.7 324.1 188.4 328.8 194.2 328.8H229.3L143.8 414.4ZM143.8 212.7C138 212.7 133.3 208 133.3 202.2V198.1C122.1 195.4 112.9 188.3 108.5 178.7C106.1 173.4 108.4 167.2 113.7 164.7C119 162.3 125.3 164.6 127.7 169.9C130 174.8 136.6 178.3 143.9 178.3C153.1 178.3 160.9 172.9 160.9 166.6C160.9 160.3 153.1 154.9 143.9 154.9C122.9 154.9 105.8 140.2 105.8 122.1C105.8 107.2 117.4 94.5 133.3 90.6V86.5C133.3 80.7 138 76 143.8 76C149.6 76 154.3 80.7 154.3 86.5V90.5C166.8 93.6 176.9 102.1 180.5 113.3C182.3 118.9 179.2 124.8 173.6 126.5C168 128.3 162.1 125.2 160.4 119.6C159 115.1 152.7 110.2 143.8 110.2C134.6 110.2 126.8 115.6 126.8 121.9C126.8 128.3 134.6 133.6 143.8 133.6C164.8 133.6 181.9 148.3 181.9 166.4C181.9 181.3 170.3 194 154.4 197.9V202C154.4 208 149.6 212.7 143.8 212.7ZM253.2 144.3C253.2 84 204.1 34.9 143.8 34.9C83.5 34.9 34.4 84 34.4 144.3C34.4 204.6 83.5 253.7 143.8 253.7C204.1 253.7 253.2 204.6 253.2 144.3ZM55.5 144.3C55.5 95.6 95.1 56 143.8 56C192.5 56 232.1 95.6 232.1 144.3C232.1 193 192.5 232.6 143.8 232.6C95.1 232.6 55.5 193 55.5 144.3ZM441.3 275.4C438.7 269.7 433.1 266.2 426.9 266.2H403V115.2C403 103.5 393.5 93.9 381.7 93.9H324.2C312.5 93.9 302.9 103.4 302.9 115.2V266.2H279C272.7 266.2 267.2 269.7 264.6 275.4C261.8 281.5 262.9 288.4 267.5 293L341.4 366.8C345.5 370.9 350 371.8 352.9 371.8C355.9 371.8 360.3 370.9 364.4 366.8L438.3 293C438.5 292.8 438.7 292.6 438.9 292.4C443.1 287.6 443.9 281.1 441.3 275.4ZM353 348.5L291.7 287.3H313.6C316.4 287.3 319.1 286.2 321.1 284.2C323.1 282.2 324.2 279.5 324.2 276.7V115.2C324.2 115.1 324.3 115 324.4 115H381.9C382 115 382.1 115.1 382.1 115.2V276.8C382.1 282.6 386.8 287.3 392.6 287.3H414.5L353 348.5Z" fill="#0E53BE"/>
</g>
<defs>
<clipPath id="clip0_492_146">
<rect width="442.8" height="436.5" fill="white" transform="translate(0 0.5)"/>
</clipPath>
</defs>
</svg>
