<?xml version="1.0" encoding="utf-8"?>
<!-- Generator: Adobe Illustrator 24.1.1, SVG Export Plug-In . SVG Version: 6.00 Build 0)  -->
<svg version="1.1" id="Layer_1" xmlns="http://www.w3.org/2000/svg" xmlns:xlink="http://www.w3.org/1999/xlink" x="0px" y="0px"
	 viewBox="0 0 442.8 436.5" style="enable-background:new 0 0 442.8 436.5;" xml:space="preserve">
<style type="text/css">
	.st0{fill:#007AFB;}
</style>
<path class="st0" d="M238.4,307.3h-33.5V274c48.9-23,82.8-72.7,82.8-130.2C287.6,64.5,223.1,0,143.8,0C64.5,0,0,64.5,0,143.8
	C0,201.3,33.9,251,82.8,274v33.2H49.3c-6.9,0-12.9,3.9-15.8,10.1c-3.1,6.7-1.9,14.2,3.1,19.2l94.6,94.4c4.6,4.6,9.4,5.5,12.7,5.5
	c3.3,0,8.1-1,12.7-5.5l94.6-94.4c0.2-0.2,0.4-0.4,0.6-0.6c4.4-5.2,5.4-12.4,2.5-18.6C251.3,311.1,245.2,307.3,238.4,307.3
	L238.4,307.3z M21.1,143.8c0-67.7,55.1-122.7,122.7-122.7c67.7,0,122.7,55.1,122.7,122.7c0,67.7-55.1,122.7-122.7,122.7
	C76.1,266.6,21.1,211.5,21.1,143.8L21.1,143.8z M143.8,413.9l-85.7-85.5h35.1c5.8,0,10.5-4.7,10.5-10.5V282
	c12.7,3.7,26.1,5.7,40,5.7s27.3-2,40-5.7v35.8c0,5.8,4.7,10.5,10.5,10.5h35.1L143.8,413.9z M143.8,212.2c-5.8,0-10.5-4.7-10.5-10.5
	v-4.1c-11.2-2.7-20.4-9.8-24.8-19.4c-2.4-5.3-0.1-11.5,5.2-14c5.3-2.4,11.6-0.1,14,5.2c2.3,4.9,8.9,8.4,16.2,8.4
	c9.2,0,17-5.4,17-11.7s-7.8-11.7-17-11.7c-21,0-38.1-14.7-38.1-32.8c0-14.9,11.6-27.6,27.5-31.5v-4.1c0-5.8,4.7-10.5,10.5-10.5
	s10.5,4.7,10.5,10.5V90c12.5,3.1,22.6,11.6,26.2,22.8c1.8,5.6-1.3,11.5-6.9,13.2c-5.6,1.8-11.5-1.3-13.2-6.9
	c-1.4-4.5-7.7-9.4-16.6-9.4c-9.2,0-17,5.4-17,11.7c0,6.4,7.8,11.7,17,11.7c21,0,38.1,14.7,38.1,32.8c0,14.9-11.6,27.6-27.5,31.5v4.1
	C154.4,207.5,149.6,212.2,143.8,212.2L143.8,212.2z M253.2,143.8c0-60.3-49.1-109.4-109.4-109.4S34.4,83.5,34.4,143.8
	s49.1,109.4,109.4,109.4S253.2,204.1,253.2,143.8L253.2,143.8z M55.5,143.8c0-48.7,39.6-88.3,88.3-88.3s88.3,39.6,88.3,88.3
	c0,48.7-39.6,88.3-88.3,88.3S55.5,192.5,55.5,143.8z M441.3,274.9c-2.6-5.7-8.2-9.2-14.4-9.2H403v-151c0-11.7-9.5-21.3-21.3-21.3
	h-57.5c-11.7,0-21.3,9.5-21.3,21.3v151h-23.9c-6.3,0-11.8,3.5-14.4,9.2c-2.8,6.1-1.7,13,2.9,17.6l73.9,73.8c4.1,4.1,8.6,5,11.5,5
	c3,0,7.4-0.9,11.5-5l73.9-73.8c0.2-0.2,0.4-0.4,0.6-0.6C443.1,287.1,443.9,280.6,441.3,274.9L441.3,274.9z M353,348l-61.3-61.2h21.9
	c2.8,0,5.5-1.1,7.5-3.1c2-2,3.1-4.7,3.1-7.5V114.7c0-0.1,0.1-0.2,0.2-0.2h57.5c0.1,0,0.2,0.1,0.2,0.2v161.6
	c0,5.8,4.7,10.5,10.5,10.5h21.9L353,348z"/>
</svg>
