<?xml version="1.0" encoding="utf-8"?>
<!-- Generator: Adobe Illustrator 24.1.1, SVG Export Plug-In . SVG Version: 6.00 Build 0)  -->
<svg version="1.1" id="Layer_1" xmlns="http://www.w3.org/2000/svg" xmlns:xlink="http://www.w3.org/1999/xlink" x="0px" y="0px"
	 viewBox="0 0 296 399.6" style="enable-background:new 0 0 296 399.6;" xml:space="preserve">
<style type="text/css">
	.st0{fill:#007AFB;}
</style>
<g>
	<path class="st0" d="M288.6,118.4h-25.9c-2.7-10.7-7-20.9-12.7-30.5l18.4-18.4c1.4-1.4,2.1-3.3,2.1-5.3c0-2-0.8-3.8-2.1-5.3
		L237,27.7c-2.9-2.9-7.5-2.9-10.4,0L208.2,46c-9.6-5.7-19.8-9.9-30.5-12.7v-26c0-4.1-3.3-7.4-7.4-7.4h-44.4c-4.1,0-7.4,3.3-7.4,7.4
		v26c-10.7,2.7-20.9,7-30.5,12.7L69.7,27.7c-2.9-2.9-7.5-2.9-10.4,0L27.9,59c-1.4,1.4-2.1,3.3-2.1,5.3c0,2,0.8,3.8,2.1,5.3
		l18.4,18.4c-5.7,9.6-9.9,19.8-12.7,30.5H7.4c-4.1,0-7.4,3.3-7.4,7.4v44.4c0,4.1,3.3,7.4,7.4,7.4h25.9c2.7,10.7,7,20.9,12.7,30.5
		l-18.4,18.4c-1.4,1.4-2.1,3.3-2.1,5.3s0.8,3.8,2.1,5.3L59,268.3c2.9,2.9,7.5,2.9,10.4,0L92,245.7c2.9-2.9,2.9-7.5,0-10.4
		s-7.5-2.9-10.4,0l-17.3,17.3l-20.9-20.9l17.3-17.3c2.5-2.5,2.9-6.4,1-9.3c-7.4-11.2-12.5-23.4-15.1-36.3c-0.7-3.5-3.7-5.9-7.3-5.9
		H14.8v-29.6h24.4c3.6,0,6.6-2.4,7.3-5.9c2.7-12.9,7.7-25.2,15.1-36.3c1.9-3,1.6-6.8-1-9.3L43.3,64.3l20.9-20.9l17.3,17.3
		c2.5,2.5,6.4,2.9,9.3,1c11.2-7.4,23.4-12.5,36.4-15.1c3.5-0.7,5.9-3.7,5.9-7.3l0-24.5h29.6v24.4c0,3.6,2.4,6.6,5.9,7.3
		c12.9,2.7,25.2,7.7,36.4,15.1c2.9,1.9,6.8,1.6,9.3-1l17.3-17.3l20.9,20.9l-17.3,17.3c-2.5,2.5-2.9,6.4-1,9.3
		c7.4,11.2,12.5,23.4,15.1,36.3c0.7,3.5,3.7,5.9,7.3,5.9l24.4,0v29.6h-24.4c-3.6,0-6.6,2.4-7.3,5.9c-2.7,12.9-7.7,25.2-15.1,36.3
		c-1.9,3-1.6,6.8,1,9.3l17.3,17.3l-20.9,20.9l-17.3-17.3c-2.9-2.9-7.5-2.9-10.4,0c-2.9,2.9-2.9,7.5,0,10.4l22.6,22.6
		c1.5,1.5,3.3,2.1,5.3,2.1s3.8-0.7,5.3-2.1l31.4-31.4c1.4-1.4,2.1-3.3,2.1-5.3s-0.8-3.8-2.1-5.3L250.1,208
		c5.7-9.6,9.9-19.8,12.7-30.5h25.8c4.1,0,7.4-3.3,7.4-7.4v-44.4C296,121.7,292.7,118.4,288.6,118.4L288.6,118.4z"/>
	<path class="st0" d="M177.6,294.2v-95c18.1-10.5,29.6-30.1,29.6-51.2c0-22.6-13.2-43.7-33.8-53.4c-2.3-1.1-5-1-7.1,0.4
		c-2.1,1.3-3.5,3.7-3.5,6.3v39.3h-29.6v-39.4c0-2.5-1.3-4.9-3.5-6.3c-2.1-1.3-4.8-1.6-7.1-0.4c-20.6,9.8-33.8,30.9-33.8,53.5
		c0,21.1,11.5,40.7,29.6,51.2v95c-18.1,10.5-29.6,30.1-29.6,51.2c0,22.7,13.2,43.7,33.8,53.4c2.3,1.1,5,1,7.1-0.4
		c2.1-1.3,3.5-3.7,3.5-6.2v-39.4h29.6v39.4c0,2.5,1.3,4.9,3.5,6.3c1.2,0.7,2.5,1.1,3.9,1.1c1.1,0,2.1-0.2,3.2-0.7
		c20.6-9.8,33.8-30.7,33.8-53.4C207.2,324.3,195.7,304.7,177.6,294.2L177.6,294.2z M177.6,378.4v-33c0-4.1-3.3-7.4-7.4-7.4h-44.4
		c-4.1,0-7.4,3.3-7.4,7.4v33c-9.3-8.3-14.8-20.3-14.8-33c0-17,10-32.7,25.4-40c2.6-1.3,4.2-3.8,4.2-6.7l0-104c0-2.9-1.6-5.5-4.2-6.7
		c-15.4-7.4-25.4-23.1-25.4-40.1c0-12.7,5.6-24.7,14.8-33v33c0,4.1,3.3,7.4,7.4,7.4h44.4c4.1,0,7.4-3.3,7.4-7.4v-33
		c9.3,8.3,14.8,20.3,14.8,33c0,17-10,32.7-25.4,40c-2.6,1.3-4.2,3.8-4.2,6.7v104c0,2.9,1.6,5.5,4.2,6.7c15.4,7.3,25.4,23.1,25.4,40
		C192.4,358.1,186.8,370.1,177.6,378.4L177.6,378.4z"/>
	<path class="st0" d="M155.4,74V59.2c0-4.1-3.3-7.4-7.4-7.4s-7.4,3.3-7.4,7.4V74c0,4.1,3.3,7.4,7.4,7.4
		C152.1,81.4,155.4,78.1,155.4,74L155.4,74z"/>
	<path class="st0" d="M111,91.3c1.3,0,2.5-0.3,3.7-1c3.6-2.1,4.7-6.6,2.7-10.1L110,67.4c-2.1-3.6-6.6-4.7-10.1-2.7
		c-3.6,2.1-4.7,6.6-2.7,10.1l7.4,12.8C106,90,108.5,91.3,111,91.3L111,91.3z"/>
	<path class="st0" d="M90.3,114.7c2.1-3.6,0.8-8.1-2.7-10.1l-12.8-7.4c-3.6-2.1-8.1-0.8-10.1,2.7c-2.1,3.6-0.8,8.1,2.7,10.1
		l12.8,7.4c1.2,0.7,2.4,1,3.7,1C86.4,118.4,88.9,117.1,90.3,114.7L90.3,114.7z"/>
	<path class="st0" d="M74,140.6H59.2c-4.1,0-7.4,3.3-7.4,7.4s3.3,7.4,7.4,7.4H74c4.1,0,7.4-3.3,7.4-7.4S78.1,140.6,74,140.6z"/>
	<path class="st0" d="M214.6,148c0,4.1,3.3,7.4,7.4,7.4h14.8c4.1,0,7.4-3.3,7.4-7.4s-3.3-7.4-7.4-7.4H222
		C217.9,140.6,214.6,143.9,214.6,148z"/>
	<path class="st0" d="M221.2,97.2l-12.8,7.4c-3.6,2.1-4.7,6.6-2.7,10.1c1.4,2.4,3.8,3.7,6.4,3.7c1.3,0,2.5-0.3,3.7-1l12.8-7.4
		c3.6-2.1,4.7-6.6,2.7-10.1C229.2,96.3,224.7,95.2,221.2,97.2L221.2,97.2z"/>
	<path class="st0" d="M185,91.3c2.6,0,5-1.3,6.4-3.7l7.4-12.8c2.1-3.6,0.8-8.1-2.7-10.1c-3.6-2.1-8.1-0.8-10.1,2.7l-7.4,12.8
		c-2.1,3.6-0.8,8.1,2.7,10.1C182.5,91,183.7,91.3,185,91.3L185,91.3z"/>
</g>
</svg>
