<svg width="297" height="400" viewBox="0 0 297 400" fill="none" xmlns="http://www.w3.org/2000/svg">
<g clip-path="url(#clip0_493_1035)">
<path d="M289.1 118.4H263.2C260.5 107.7 256.2 97.5 250.5 87.9L268.9 69.5C270.3 68.1 271 66.2 271 64.2C271 62.2 270.2 60.4 268.9 58.9L237.5 27.7C234.6 24.8 230 24.8 227.1 27.7L208.7 46C199.1 40.3 188.9 36.1 178.2 33.3V7.29999C178.2 3.19999 174.9 -0.100006 170.8 -0.100006H126.4C122.3 -0.100006 119 3.19999 119 7.29999V33.3C108.3 36 98.1 40.3 88.5 46L70.2 27.7C67.3 24.8 62.7 24.8 59.8 27.7L28.4 59C27 60.4 26.3 62.3 26.3 64.3C26.3 66.3 27.1 68.1 28.4 69.6L46.8 88C41.1 97.6 36.9 107.8 34.1 118.5H7.9C3.8 118.5 0.5 121.8 0.5 125.9V170.3C0.5 174.4 3.8 177.7 7.9 177.7H33.8C36.5 188.4 40.8 198.6 46.5 208.2L28.1 226.6C26.7 228 26 229.9 26 231.9C26 233.9 26.8 235.7 28.1 237.2L59.5 268.3C62.4 271.2 67 271.2 69.9 268.3L92.5 245.7C95.4 242.8 95.4 238.2 92.5 235.3C89.6 232.4 85 232.4 82.1 235.3L64.8 252.6L43.9 231.7L61.2 214.4C63.7 211.9 64.1 208 62.2 205.1C54.8 193.9 49.7 181.7 47.1 168.8C46.4 165.3 43.4 162.9 39.8 162.9H15.3V133.3H39.7C43.3 133.3 46.3 130.9 47 127.4C49.7 114.5 54.7 102.2 62.1 91.1C64 88.1 63.7 84.3 61.1 81.8L43.8 64.3L64.7 43.4L82 60.7C84.5 63.2 88.4 63.6 91.3 61.7C102.5 54.3 114.7 49.2 127.7 46.6C131.2 45.9 133.6 42.9 133.6 39.3V14.8H163.2V39.2C163.2 42.8 165.6 45.8 169.1 46.5C182 49.2 194.3 54.2 205.5 61.6C208.4 63.5 212.3 63.2 214.8 60.6L232.1 43.3L253 64.2L235.7 81.5C233.2 84 232.8 87.9 234.7 90.8C242.1 102 247.2 114.2 249.8 127.1C250.5 130.6 253.5 133 257.1 133H281.5V162.6H257.1C253.5 162.6 250.5 165 249.8 168.5C247.1 181.4 242.1 193.7 234.7 204.8C232.8 207.8 233.1 211.6 235.7 214.1L253 231.4L232.1 252.3L214.8 235C211.9 232.1 207.3 232.1 204.4 235C201.5 237.9 201.5 242.5 204.4 245.4L227 268C228.5 269.5 230.3 270.1 232.3 270.1C234.3 270.1 236.1 269.4 237.6 268L269 236.6C270.4 235.2 271.1 233.3 271.1 231.3C271.1 229.3 270.3 227.5 269 226L250.6 208C256.3 198.4 260.5 188.2 263.3 177.5H289.1C293.2 177.5 296.5 174.2 296.5 170.1V125.7C296.5 121.7 293.2 118.4 289.1 118.4Z" fill="#0E53BE"/>
<path d="M178.1 294.2V199.2C196.2 188.7 207.7 169.1 207.7 148C207.7 125.4 194.5 104.3 173.9 94.6C171.6 93.5 168.9 93.6 166.8 95C164.7 96.3 163.3 98.7 163.3 101.3V140.6H133.7V101.2C133.7 98.7 132.4 96.3 130.2 94.9C128.1 93.6 125.4 93.3 123.1 94.5C102.5 104.3 89.3 125.4 89.3 148C89.3 169.1 100.8 188.7 118.9 199.2V294.2C100.8 304.7 89.3 324.3 89.3 345.4C89.3 368.1 102.5 389.1 123.1 398.8C125.4 399.9 128.1 399.8 130.2 398.4C132.3 397.1 133.7 394.7 133.7 392.2V352.8H163.3V392.2C163.3 394.7 164.6 397.1 166.8 398.5C168 399.2 169.3 399.6 170.7 399.6C171.8 399.6 172.8 399.4 173.9 398.9C194.5 389.1 207.7 368.2 207.7 345.5C207.7 324.3 196.2 304.7 178.1 294.2ZM178.1 378.4V345.4C178.1 341.3 174.8 338 170.7 338H126.3C122.2 338 118.9 341.3 118.9 345.4V378.4C109.6 370.1 104.1 358.1 104.1 345.4C104.1 328.4 114.1 312.7 129.5 305.4C132.1 304.1 133.7 301.6 133.7 298.7V194.7C133.7 191.8 132.1 189.2 129.5 188C114.1 180.6 104.1 164.9 104.1 147.9C104.1 135.2 109.7 123.2 118.9 114.9V147.9C118.9 152 122.2 155.3 126.3 155.3H170.7C174.8 155.3 178.1 152 178.1 147.9V114.9C187.4 123.2 192.9 135.2 192.9 147.9C192.9 164.9 182.9 180.6 167.5 187.9C164.9 189.2 163.3 191.7 163.3 194.6V298.6C163.3 301.5 164.9 304.1 167.5 305.3C182.9 312.6 192.9 328.4 192.9 345.3C192.9 358.1 187.3 370.1 178.1 378.4Z" fill="#0E53BE"/>
<path d="M155.9 74V59.2C155.9 55.1 152.6 51.8 148.5 51.8C144.4 51.8 141.1 55.1 141.1 59.2V74C141.1 78.1 144.4 81.4 148.5 81.4C152.6 81.4 155.9 78.1 155.9 74Z" fill="#0E53BE"/>
<path d="M111.5 91.3C112.8 91.3 114 91 115.2 90.3C118.8 88.2 119.9 83.7 117.9 80.2L110.5 67.4C108.4 63.8 103.9 62.7 100.4 64.7C96.8 66.8 95.7 71.3 97.7 74.8L105.1 87.6C106.5 90 109 91.3 111.5 91.3Z" fill="#0E53BE"/>
<path d="M90.8 114.7C92.9 111.1 91.6 106.6 88.1 104.6L75.3 97.2C71.7 95.1 67.2 96.4 65.2 99.9C63.1 103.5 64.4 108 67.9 110L80.7 117.4C81.9 118.1 83.1 118.4 84.4 118.4C86.9 118.4 89.4 117.1 90.8 114.7Z" fill="#0E53BE"/>
<path d="M74.5 140.6H59.7001C55.6001 140.6 52.3 143.9 52.3 148C52.3 152.1 55.6001 155.4 59.7001 155.4H74.5C78.6 155.4 81.9001 152.1 81.9001 148C81.9001 143.9 78.6 140.6 74.5 140.6Z" fill="#0E53BE"/>
<path d="M215.1 148C215.1 152.1 218.4 155.4 222.5 155.4H237.3C241.4 155.4 244.7 152.1 244.7 148C244.7 143.9 241.4 140.6 237.3 140.6H222.5C218.4 140.6 215.1 143.9 215.1 148Z" fill="#0E53BE"/>
<path d="M221.7 97.2L208.9 104.6C205.3 106.7 204.2 111.2 206.2 114.7C207.6 117.1 210 118.4 212.6 118.4C213.9 118.4 215.1 118.1 216.3 117.4L229.1 110C232.7 107.9 233.8 103.4 231.8 99.9C229.7 96.3 225.2 95.2 221.7 97.2Z" fill="#0E53BE"/>
<path d="M185.5 91.3C188.1 91.3 190.5 90 191.9 87.6L199.3 74.8C201.4 71.2 200.1 66.7 196.6 64.7C193 62.6 188.5 63.9 186.5 67.4L179.1 80.2C177 83.8 178.3 88.3 181.8 90.3C183 91 184.2 91.3 185.5 91.3Z" fill="#0E53BE"/>
</g>
<defs>
<clipPath id="clip0_493_1035">
<rect width="296" height="399.6" fill="white" transform="translate(0.5)"/>
</clipPath>
</defs>
</svg>
