<svg width="332" height="315" viewBox="0 0 332 315" fill="none" xmlns="http://www.w3.org/2000/svg">
<g clip-path="url(#clip0_492_150)">
<path d="M296.6 228.2C316.5 232.2 331.5 249.8 331.5 270.9C331.5 295 312 314.5 287.9 314.5C263.8 314.5 244.3 295 244.3 270.9C244.3 249.8 259.3 232.2 279.2 228.2V209.9H52.3V228.2C72.2 232.2 87.2 249.8 87.2 270.9C87.2 295 67.7 314.5 43.6 314.5C19.5 314.5 0 295 0 270.9C0 249.8 15 232.2 34.9 228.2V192.4H157V148.8H77.2C68.3 148.8 61.1 141 61.1 131.4V17.9C61.1 8.3 68.3 0.5 77.2 0.5H254.4C263.3 0.5 270.5 8.3 270.5 17.9V131.3C270.5 140.9 263.3 148.7 254.4 148.7H174.5V192.3H296.6V228.2ZM78.5 17.9V131.3H253V17.9H78.5ZM43.6 297.1C58.1 297.1 69.8 285.4 69.8 270.9C69.8 256.4 58.1 244.7 43.6 244.7C29.1 244.7 17.4 256.5 17.4 270.9C17.4 285.3 29.2 297.1 43.6 297.1ZM287.9 297.1C302.4 297.1 314.1 285.4 314.1 270.9C314.1 256.4 302.4 244.7 287.9 244.7C273.4 244.7 261.7 256.4 261.7 270.9C261.7 285.4 273.4 297.1 287.9 297.1ZM113.4 44.1H218.1C222.9 44.1 226.8 48 226.8 52.8C226.8 57.6 222.9 61.5 218.1 61.5H113.4C108.6 61.5 104.7 57.6 104.7 52.8C104.7 48 108.6 44.1 113.4 44.1ZM113.4 87.7H218.1C222.9 87.7 226.8 91.6 226.8 96.4C226.8 101.2 222.9 105.1 218.1 105.1H113.4C108.6 105.1 104.7 101.2 104.7 96.4C104.7 91.6 108.6 87.7 113.4 87.7Z" fill="#0E53BE"/>
</g>
<defs>
<clipPath id="clip0_492_150">
<rect width="331.5" height="314.1" fill="white" transform="translate(0 0.5)"/>
</clipPath>
</defs>
</svg>
