<?xml version="1.0" encoding="utf-8"?>
<!-- Generator: Adobe Illustrator 24.1.1, SVG Export Plug-In . SVG Version: 6.00 Build 0)  -->
<svg version="1.1" id="Layer_1" xmlns="http://www.w3.org/2000/svg" xmlns:xlink="http://www.w3.org/1999/xlink" x="0px" y="0px"
	 viewBox="0 0 331.5 314.1" style="enable-background:new 0 0 331.5 314.1;" xml:space="preserve">
<style type="text/css">
	.st0{fill:#007AFB;}
</style>
<path class="st0" d="M296.6,227.7c19.9,4,34.9,21.6,34.9,42.7c0,24.1-19.5,43.6-43.6,43.6c-24.1,0-43.6-19.5-43.6-43.6
	c0-21.1,15-38.7,34.9-42.7v-18.3H52.3v18.3c19.9,4,34.9,21.6,34.9,42.7c0,24.1-19.5,43.6-43.6,43.6S0,294.5,0,270.4
	c0-21.1,15-38.7,34.9-42.7v-35.8H157v-43.6H77.2c-8.9,0-16.1-7.8-16.1-17.4V17.4C61.1,7.8,68.3,0,77.2,0h177.2
	c8.9,0,16.1,7.8,16.1,17.4v113.4c0,9.6-7.2,17.4-16.1,17.4h-79.9v43.6h122.1L296.6,227.7z M78.5,17.4v113.4H253V17.4H78.5z
	 M43.6,296.6c14.5,0,26.2-11.7,26.2-26.2s-11.7-26.2-26.2-26.2S17.4,256,17.4,270.4S29.2,296.6,43.6,296.6L43.6,296.6z M287.9,296.6
	c14.5,0,26.2-11.7,26.2-26.2s-11.7-26.2-26.2-26.2c-14.5,0-26.2,11.7-26.2,26.2S273.4,296.6,287.9,296.6L287.9,296.6z M113.4,43.6
	h104.7c4.8,0,8.7,3.9,8.7,8.7c0,4.8-3.9,8.7-8.7,8.7H113.4c-4.8,0-8.7-3.9-8.7-8.7C104.7,47.5,108.6,43.6,113.4,43.6z M113.4,87.2
	h104.7c4.8,0,8.7,3.9,8.7,8.7c0,4.8-3.9,8.7-8.7,8.7H113.4c-4.8,0-8.7-3.9-8.7-8.7C104.7,91.1,108.6,87.2,113.4,87.2z"/>
</svg>
