<svg width="24" height="24" viewBox="0 0 24 24" fill="none" xmlns="http://www.w3.org/2000/svg">
<path d="M5.50889 2H18.4911C19.4215 2.00059 20.3137 2.37046 20.9716 3.02838C21.6295 3.6863 21.9994 4.57845 22 5.50889V9.24889C21.9094 9.24315 21.8186 9.24018 21.7278 9.24C21.2381 9.23741 20.7542 9.34608 20.3127 9.55781C19.8711 9.76953 19.4835 10.0788 19.1789 10.4622C18.6544 11.1133 18.3367 11.9922 18.2589 12.98C18.2426 13.177 18.2363 13.3741 18.24 13.5711C18.2922 15.8089 19.5011 17.5978 21.6489 17.5978C21.7689 17.5978 21.8859 17.5922 22 17.5811V18.4922C21.9991 19.4225 21.6291 20.3143 20.9712 20.972C20.3133 21.6297 19.4214 21.9994 18.4911 22H5.50889C4.57845 21.9994 3.6863 21.6295 3.02838 20.9716C2.37046 20.3137 2.00059 19.4215 2 18.4911V5.50889C2.00059 4.57845 2.37046 3.6863 3.02838 3.02838C3.6863 2.37046 4.57845 2.00059 5.50889 2ZM22 15.7644V12.7356H20.1633C20.0811 14.1978 20.8811 15.4356 22 15.7644ZM22 12.3122V9.74778C21.9073 9.72257 21.8117 9.7095 21.7156 9.70889C20.81 9.72778 20.2711 10.8111 20.2044 12.3122H22ZM18.33 6.77778L18.3467 6.77444V6.65222H15.1244L12.1356 13.6811L9.14445 6.65222H5.67333V6.77444L5.68889 6.77778C6.27667 6.91111 6.57444 7.10889 6.57444 7.82222V16.1778C6.57444 16.8911 6.27444 17.0889 5.68778 17.2222L5.67222 17.2244V17.3467H8.02778V17.2244L8.01111 17.2222C7.42333 17.0889 7.12444 16.8911 7.12444 16.1778V8.30667L10.9667 17.3478H11.1844L15.1389 8.05445V16.3833C15.0878 16.9478 14.7922 17.1222 14.26 17.2422L14.2444 17.2456V17.3667H18.3467V17.2444L18.33 17.2422C17.7967 17.1222 17.4944 16.9478 17.4444 16.3833L17.4411 7.82222H17.4444C17.4444 7.10889 17.7422 6.91111 18.33 6.77778Z" fill="#0E53BE"/>
</svg>
