<svg width="50" height="50" viewBox="0 0 50 50" fill="none" xmlns="http://www.w3.org/2000/svg">
<path d="M37.5 37.5C44.4036 30.5965 44.4035 19.4037 37.5 12.5001C30.5964 5.59657 19.4035 5.59655 12.5 12.5001C5.59642 19.4036 5.59645 30.5964 12.5 37.5C19.4036 44.4035 30.5965 44.4036 37.5 37.5Z" fill="#072450"/>
<path d="M36.9398 25.1462C36.9401 25.121 36.9406 25.0957 36.9403 25.0704C36.9363 24.4388 36.7033 23.807 36.2364 23.3106L27.337 13.8502C26.3556 12.8069 24.7143 12.7567 23.6711 13.7382C22.6278 14.7196 22.5777 16.3609 23.5591 17.404L28.4983 22.6547H14.1309L17.0959 25.2832L14.1309 27.9115H28.3509L23.6055 33.2088C22.6498 34.2756 22.7399 35.9152 23.8068 36.871C24.3018 37.3145 24.9201 37.5325 25.5363 37.5325C26.2479 37.5325 26.9567 37.2414 27.4688 36.6696L36.2792 26.8347C36.7066 26.3576 36.9241 25.766 36.9394 25.1723C36.9396 25.1636 36.9396 25.1549 36.9398 25.1462Z" fill="white"/>
</svg>
