<svg width="55" height="55" viewBox="0 0 55 55" fill="none" xmlns="http://www.w3.org/2000/svg">
<path d="M25.9531 31.1523C28.0586 31.1523 30.0137 30.5293 31.6572 29.4658L35.793 33.6015C37.1787 34.8369 38.5215 33.9775 38.8975 33.6015C39.7569 32.7422 39.7569 31.3564 38.8975 30.4971L34.7617 26.3613C35.8252 24.7178 36.4483 22.7627 36.4483 20.6572C36.4483 14.8672 31.7539 10.1729 25.9639 10.1729C20.1738 10.1729 15.4795 14.8672 15.4795 20.6572C15.4688 26.458 20.1631 31.1523 25.9531 31.1523ZM25.9531 14.5664C29.3262 14.5664 32.0547 17.2949 32.0547 20.668C32.0547 24.041 29.3262 26.7695 25.9531 26.7695C22.5801 26.7695 19.8516 24.041 19.8516 20.668C19.8516 17.2949 22.5908 14.5664 25.9531 14.5664Z" fill="#007BFC"/>
<path d="M51.627 1.18164H3.37305C2.15918 1.18164 1.18164 2.15918 1.18164 3.37305V41.0459C1.18164 42.2598 2.15918 43.2373 3.37305 43.2373H25.3086V49.4355H22.1074C20.8936 49.4355 19.916 50.4131 19.916 51.627C19.916 52.8408 20.8936 53.8184 22.1074 53.8184H32.9033C34.1172 53.8184 35.0947 52.8408 35.0947 51.627C35.0947 50.4131 34.1172 49.4355 32.9033 49.4355H29.7021V43.2373H51.6377C52.8516 43.2373 53.8291 42.2598 53.8291 41.0459V3.37305C53.8184 2.15918 52.8408 1.18164 51.627 1.18164ZM49.4355 38.8545H5.56445V5.56445H49.4248V38.8545H49.4355Z" fill="#007BFC"/>
</svg>
