<?xml version="1.0" encoding="utf-8"?>
<!-- Generator: Adobe Illustrator 24.1.1, SVG Export Plug-In . SVG Version: 6.00 Build 0)  -->
<svg version="1.1" id="Layer_1" xmlns="http://www.w3.org/2000/svg" xmlns:xlink="http://www.w3.org/1999/xlink" x="0px" y="0px"
	 viewBox="0 0 443.2 443.2" style="enable-background:new 0 0 443.2 443.2;" xml:space="preserve">
<style type="text/css">
	.st0{fill:#007AFB;}
</style>
<path class="st0" d="M103.2,212.1H62c-3-9.7-10.6-17.4-20.3-20.6c-9.7-3.2-20.3-1.6-28.6,4.4C4.9,201.8,0,211.4,0,221.6
	c0,10.2,4.9,19.8,13.2,25.7c8.3,6,18.9,7.6,28.6,4.4c9.7-3.2,17.2-10.9,20.3-20.6h41.2c2.2,24.8,11.9,48.2,27.9,67.3l-28.9,29.4v0
	c-4.5-2.4-9.6-3.7-14.7-3.8c-8.5,0-16.7,3.4-22.7,9.5c-5.8,6-9,14-9,22.3c0,8.4,3.3,16.6,9,22.7c6.2,5.7,14.3,9,22.7,9
	c8.3,0,16.3-3.2,22.3-9c6.1-6,9.5-14.2,9.5-22.7c-0.1-5.1-1.4-10.2-3.8-14.7l29.4-28.9c19,16,42.5,25.8,67.3,27.9v41.2v0
	c-9.7,3-17.4,10.6-20.6,20.3c-3.2,9.7-1.6,20.3,4.4,28.6c6,8.3,15.5,13.2,25.7,13.2c10.2,0,19.8-4.9,25.7-13.2
	c6-8.3,7.6-18.9,4.4-28.6c-3.2-9.7-10.9-17.2-20.6-20.3V340c24.8-2.2,48.2-11.9,67.3-27.9l29.4,28.9h0c-2.4,4.5-3.7,9.6-3.8,14.7
	c0,8.5,3.4,16.7,9.5,22.7c6,5.8,14,9,22.3,9c8.5,0.3,16.7-3,22.7-9c6-6,9.3-14.2,9-22.7c0-8.3-3.2-16.3-9-22.3
	c-6-6.1-14.2-9.5-22.7-9.5c-5.1,0.1-10.2,1.4-14.7,3.8l-28.9-29.4v0c16-19,25.8-42.5,27.9-67.3h41.2h0c3,9.7,10.6,17.4,20.3,20.6
	c9.7,3.2,20.3,1.6,28.6-4.4c8.3-6,13.2-15.5,13.2-25.7c0-10.2-4.9-19.8-13.2-25.7c-8.3-6-18.9-7.6-28.6-4.4
	c-9.7,3.2-17.2,10.9-20.3,20.6H340c-2.2-24.8-11.9-48.2-27.9-67.3l28.9-29.4c4.5,2.4,9.6,3.7,14.7,3.8c8.5,0,16.7-3.4,22.7-9.5
	c5.8-6,9-14,9-22.3c0-8.4-3.3-16.6-9-22.7c-6.2-5.7-14.3-9-22.7-9c-8.3,0-16.3,3.2-22.3,9c-6.1,6-9.5,14.2-9.5,22.7
	c0.1,5.1,1.4,10.2,3.8,14.7l-29.4,28.9h0c-19-16-42.5-25.8-67.3-27.9V62c9.7-3,17.4-10.6,20.6-20.3c3.2-9.7,1.6-20.3-4.4-28.6
	C241.4,4.9,231.8,0,221.6,0c-10.2,0-19.8,4.9-25.7,13.2c-6,8.3-7.6,18.9-4.4,28.6c3.2,9.7,10.9,17.2,20.6,20.3v41.2
	c-24.8,2.2-48.2,11.9-67.3,27.9l-29.4-28.9c2.4-4.5,3.7-9.6,3.8-14.7c0-8.5-3.4-16.7-9.5-22.7c-6-5.8-14-9-22.3-9
	c-8.4,0-16.6,3.3-22.7,9c-5.7,6.2-9,14.3-9,22.7c0,8.3,3.2,16.3,9,22.3c6,6.1,14.2,9.5,22.7,9.5c5.1-0.1,10.2-1.4,14.7-3.8
	l28.9,29.4C115.1,163.9,105.4,187.4,103.2,212.1L103.2,212.1z M31.7,234.4c-5.2,0-9.8-3.1-11.8-7.9c-2-4.8-0.9-10.3,2.8-13.9
	s9.2-4.8,13.9-2.8c4.8,2,7.9,6.6,7.9,11.8c0,3.4-1.3,6.6-3.7,9C38.3,233,35.1,234.4,31.7,234.4L31.7,234.4z M96.6,364.6
	c-2.3,2.5-5.6,3.9-9,3.9c-3.4,0-6.7-1.4-9-3.9c-2.7-2.2-4.1-5.6-3.8-9c-0.2-3.4,1.2-6.7,3.8-9c5.1-4.7,12.9-4.7,18,0
	c2.4,2.4,3.8,5.6,3.8,9C100.4,359,99,362.3,96.6,364.6L96.6,364.6z M221.6,221.1c-7.1,0-13.8-2.8-18.8-7.8c-5-5-7.8-11.8-7.7-18.9
	c0-7.1,2.9-13.8,7.9-18.8c5-4.9,11.8-7.7,18.9-7.6c7.1,0.1,13.8,3,18.7,8s7.6,11.9,7.5,18.9c-0.1,7-3,13.6-7.9,18.4
	C235.2,218.4,228.6,221.1,221.6,221.1L221.6,221.1z M221.6,249.1c11.8,0,23.1,4.7,31.5,13c8.3,8.3,13,19.7,13,31.5v17.1
	c-27.9,14.5-61.1,14.5-89,0v-17.1c0-11.8,4.7-23.1,13-31.5C198.5,253.8,209.8,249.1,221.6,249.1z M221.6,424.3
	c-5.2,0-9.8-3.1-11.8-7.9c-2-4.8-0.9-10.3,2.8-13.9c3.7-3.7,9.2-4.8,13.9-2.8c4.8,2,7.9,6.6,7.9,11.8c0,3.4-1.3,6.6-3.7,9
	C228.3,423,225,424.3,221.6,424.3L221.6,424.3z M355.6,342.8c3.4,0,6.6,1.4,9,3.8c2.6,2.3,3.9,5.6,3.8,9c0.3,3.4-1.1,6.8-3.8,9
	c-2.3,2.5-5.6,3.9-9,3.9c-3.4,0-6.7-1.4-9-3.9c-2.4-2.4-3.8-5.6-3.8-9C342.8,348.6,348.6,342.8,355.6,342.8L355.6,342.8z
	 M411.5,208.8c5.2,0,9.8,3.1,11.8,7.9c2,4.8,0.9,10.3-2.8,13.9s-9.2,4.8-13.9,2.8c-4.8-2-7.9-6.6-7.9-11.8
	C398.7,214.5,404.4,208.8,411.5,208.8L411.5,208.8z M346.6,78.6c5-4.9,13-4.9,18,0c2.7,2.2,4.1,5.6,3.8,9c0.2,3.4-1.2,6.7-3.8,9
	c-5.1,4.7-12.9,4.7-18,0c-2.4-2.4-3.8-5.6-3.8-9C342.8,84.2,344.2,80.9,346.6,78.6z M221.6,18.9c5.2,0,9.8,3.1,11.8,7.9
	c2,4.8,0.9,10.3-2.8,13.9s-9.2,4.8-13.9,2.8c-4.8-2-7.9-6.6-7.9-11.8c0-3.4,1.3-6.6,3.7-9C215,20.3,218.2,18.9,221.6,18.9
	L221.6,18.9z M221.6,121.7c26.5,0.1,51.8,10.7,70.5,29.4c18.7,18.7,29.3,44.1,29.4,70.5c0,29.8-13.4,57.9-36.5,76.7v-4.7
	c0-12.9-4-25.4-11.4-36c-7.4-10.6-17.8-18.7-29.8-23.2c14.2-8.1,23-23,23.2-39.3c0-16.2-8.7-31.3-22.7-39.4s-31.4-8.1-45.5,0
	c-14.1,8.1-22.7,23.1-22.7,39.4c0.2,16.3,9,31.2,23.2,39.3c-12.1,4.5-22.5,12.6-29.8,23.2c-7.4,10.6-11.3,23.1-11.4,36v4.7
	c-23.1-18.8-36.5-47-36.5-76.7c0.1-26.5,10.7-51.8,29.4-70.5C169.8,132.4,195.1,121.8,221.6,121.7z M78.6,96.6
	c-2.6-2.3-3.9-5.6-3.8-9c-0.3-3.4,1.1-6.8,3.8-9c2.3-2.6,5.6-3.9,9-3.8c3.4-0.2,6.7,1.2,9,3.8c2.4,2.3,3.8,5.6,3.8,9
	c0,3.4-1.4,6.6-3.8,9C91.5,101.3,83.7,101.3,78.6,96.6L78.6,96.6z"/>
</svg>
