<svg width="444" height="444" viewBox="0 0 444 444" fill="none" xmlns="http://www.w3.org/2000/svg">
<g clip-path="url(#clip0_492_148)">
<path d="M103.2 212.6H62C59 202.9 51.4 195.2 41.7 192C32 188.8 21.4 190.4 13.1 196.4C4.9 202.3 0 211.9 0 222.1C0 232.3 4.9 241.9 13.2 247.8C21.5 253.8 32.1 255.4 41.8 252.2C51.5 249 59 241.3 62.1 231.6H103.3C105.5 256.4 115.2 279.8 131.2 298.9L102.3 328.3C97.8 325.9 92.7 324.6 87.6 324.5C79.1 324.5 70.9 327.9 64.9 334C59.1 340 55.9 348 55.9 356.3C55.9 364.7 59.2 372.9 64.9 379C71.1 384.7 79.2 388 87.6 388C95.9 388 103.9 384.8 109.9 379C116 373 119.4 364.8 119.4 356.3C119.3 351.2 118 346.1 115.6 341.6L145 312.7C164 328.7 187.5 338.5 212.3 340.6V381.8C202.6 384.8 194.9 392.4 191.7 402.1C188.5 411.8 190.1 422.4 196.1 430.7C202.1 439 211.6 443.9 221.8 443.9C232 443.9 241.6 439 247.5 430.7C253.5 422.4 255.1 411.8 251.9 402.1C248.7 392.4 241 384.9 231.3 381.8V340.5C256.1 338.3 279.5 328.6 298.6 312.6L328 341.5C325.6 346 324.3 351.1 324.2 356.2C324.2 364.7 327.6 372.9 333.7 378.9C339.7 384.7 347.7 387.9 356 387.9C364.5 388.2 372.7 384.9 378.7 378.9C384.7 372.9 388 364.7 387.7 356.2C387.7 347.9 384.5 339.9 378.7 333.9C372.7 327.8 364.5 324.4 356 324.4C350.9 324.5 345.8 325.8 341.3 328.2L312.4 298.8C328.4 279.8 338.2 256.3 340.3 231.5H381.5C384.5 241.2 392.1 248.9 401.8 252.1C411.5 255.3 422.1 253.7 430.4 247.7C438.7 241.7 443.6 232.2 443.6 222C443.6 211.8 438.7 202.2 430.4 196.3C422.1 190.3 411.5 188.7 401.8 191.9C392.1 195.1 384.6 202.8 381.5 212.5H340C337.8 187.7 328.1 164.3 312.1 145.2L341 115.8C345.5 118.2 350.6 119.5 355.7 119.6C364.2 119.6 372.4 116.2 378.4 110.1C384.2 104.1 387.4 96.1 387.4 87.8C387.4 79.4 384.1 71.2 378.4 65.1C372.2 59.4 364.1 56.1 355.7 56.1C347.4 56.1 339.4 59.3 333.4 65.1C327.3 71.1 323.9 79.3 323.9 87.8C324 92.9 325.3 98 327.7 102.5L298.3 131.4C279.3 115.4 255.8 105.6 231 103.5V62.5C240.7 59.5 248.4 51.9 251.6 42.2C254.8 32.5 253.2 21.9 247.2 13.6C241.4 5.4 231.8 0.5 221.6 0.5C211.4 0.5 201.8 5.4 195.9 13.7C189.9 22 188.3 32.6 191.5 42.3C194.7 52 202.4 59.5 212.1 62.6V103.8C187.3 106 163.9 115.7 144.8 131.7L115.4 102.8C117.8 98.3 119.1 93.2 119.2 88.1C119.2 79.6 115.8 71.4 109.7 65.4C103.7 59.6 95.7 56.4 87.4 56.4C79 56.4 70.8 59.7 64.7 65.4C59 71.6 55.7 79.7 55.7 88.1C55.7 96.4 58.9 104.4 64.7 110.4C70.7 116.5 78.9 119.9 87.4 119.9C92.5 119.8 97.6 118.5 102.1 116.1L131 145.5C115.1 164.4 105.4 187.9 103.2 212.6ZM31.7 234.9C26.5 234.9 21.9 231.8 19.9 227C17.9 222.2 19 216.7 22.7 213.1C26.4 209.5 31.9 208.3 36.6 210.3C41.4 212.3 44.5 216.9 44.5 222.1C44.5 225.5 43.2 228.7 40.8 231.1C38.3 233.5 35.1 234.9 31.7 234.9ZM96.6 365.1C94.3 367.6 91 369 87.6 369C84.2 369 80.9 367.6 78.6 365.1C75.9 362.9 74.5 359.5 74.8 356.1C74.6 352.7 76 349.4 78.6 347.1C83.7 342.4 91.5 342.4 96.6 347.1C99 349.5 100.4 352.7 100.4 356.1C100.4 359.5 99 362.8 96.6 365.1ZM221.6 221.6C214.5 221.6 207.8 218.8 202.8 213.8C197.8 208.8 195 202 195.1 194.9C195.1 187.8 198 181.1 203 176.1C208 171.2 214.8 168.4 221.9 168.5C229 168.6 235.7 171.5 240.6 176.5C245.5 181.5 248.2 188.4 248.1 195.4C248 202.4 245.1 209 240.2 213.8C235.2 218.9 228.6 221.6 221.6 221.6ZM221.6 249.6C233.4 249.6 244.7 254.3 253.1 262.6C261.4 270.9 266.1 282.3 266.1 294.1V311.2C238.2 325.7 205 325.7 177.1 311.2V294.1C177.1 282.3 181.8 271 190.1 262.6C198.5 254.3 209.8 249.6 221.6 249.6ZM221.6 424.8C216.4 424.8 211.8 421.7 209.8 416.9C207.8 412.1 208.9 406.6 212.6 403C216.3 399.3 221.8 398.2 226.5 400.2C231.3 402.2 234.4 406.8 234.4 412C234.4 415.4 233.1 418.6 230.7 421C228.3 423.5 225 424.8 221.6 424.8ZM355.6 343.3C359 343.3 362.2 344.7 364.6 347.1C367.2 349.4 368.5 352.7 368.4 356.1C368.7 359.5 367.3 362.9 364.6 365.1C362.3 367.6 359 369 355.6 369C352.2 369 348.9 367.6 346.6 365.1C344.2 362.7 342.8 359.5 342.8 356.1C342.8 349.1 348.6 343.3 355.6 343.3ZM411.5 209.3C416.7 209.3 421.3 212.4 423.3 217.2C425.3 222 424.2 227.5 420.5 231.1C416.8 234.7 411.3 235.9 406.6 233.9C401.8 231.9 398.7 227.3 398.7 222.1C398.7 215 404.4 209.3 411.5 209.3ZM346.6 79.1C351.6 74.2 359.6 74.2 364.6 79.1C367.3 81.3 368.7 84.7 368.4 88.1C368.6 91.5 367.2 94.8 364.6 97.1C359.5 101.8 351.7 101.8 346.6 97.1C344.2 94.7 342.8 91.5 342.8 88.1C342.8 84.7 344.2 81.4 346.6 79.1ZM221.6 19.4C226.8 19.4 231.4 22.5 233.4 27.3C235.4 32.1 234.3 37.6 230.6 41.2C226.9 44.8 221.4 46 216.7 44C211.9 42 208.8 37.4 208.8 32.2C208.8 28.8 210.1 25.6 212.5 23.2C215 20.8 218.2 19.4 221.6 19.4ZM221.6 122.2C248.1 122.3 273.4 132.9 292.1 151.6C310.8 170.3 321.4 195.7 321.5 222.1C321.5 251.9 308.1 280 285 298.8V294.1C285 281.2 281 268.7 273.6 258.1C266.2 247.5 255.8 239.4 243.8 234.9C258 226.8 266.8 211.9 267 195.6C267 179.4 258.3 164.3 244.3 156.2C230.3 148.1 212.9 148.1 198.8 156.2C184.7 164.3 176.1 179.3 176.1 195.6C176.3 211.9 185.1 226.8 199.3 234.9C187.2 239.4 176.8 247.5 169.5 258.1C162.1 268.7 158.2 281.2 158.1 294.1V298.8C135 280 121.6 251.8 121.6 222.1C121.7 195.6 132.3 170.3 151 151.6C169.8 132.9 195.1 122.3 221.6 122.2ZM78.6 97.1C76 94.8 74.7 91.5 74.8 88.1C74.5 84.7 75.9 81.3 78.6 79.1C80.9 76.5 84.2 75.2 87.6 75.3C91 75.1 94.3 76.5 96.6 79.1C99 81.4 100.4 84.7 100.4 88.1C100.4 91.5 99 94.7 96.6 97.1C91.5 101.8 83.7 101.8 78.6 97.1Z" fill="#0E53BE"/>
</g>
<defs>
<clipPath id="clip0_492_148">
<rect width="443.2" height="443.2" fill="white" transform="translate(0 0.5)"/>
</clipPath>
</defs>
</svg>
