<svg width="45" height="45" viewBox="0 0 45 45" fill="none" xmlns="http://www.w3.org/2000/svg">
<path d="M28.125 20.1875H36.5625C37.3084 20.1875 38.0238 19.8912 38.5512 19.3637C39.0787 18.8363 39.375 18.1209 39.375 17.375V8.9375C39.375 8.19158 39.0787 7.47621 38.5512 6.94876C38.0238 6.42132 37.3084 6.125 36.5625 6.125H28.125C27.3791 6.125 26.6637 6.42132 26.1363 6.94876C25.6088 7.47621 25.3125 8.19158 25.3125 8.9375V11.75H22.5C21.3811 11.75 20.3081 12.1945 19.5169 12.9856C18.7257 13.7768 18.2812 14.8499 18.2812 15.9688V21.5938H12.6562V20.1875C12.6562 19.4416 12.3599 18.7262 11.8325 18.1988C11.305 17.6713 10.5897 17.375 9.84375 17.375H4.21875C3.47283 17.375 2.75746 17.6713 2.23001 18.1988C1.70257 18.7262 1.40625 19.4416 1.40625 20.1875V25.8125C1.40625 26.5584 1.70257 27.2738 2.23001 27.8012C2.75746 28.3287 3.47283 28.625 4.21875 28.625H9.84375C10.5897 28.625 11.305 28.3287 11.8325 27.8012C12.3599 27.2738 12.6562 26.5584 12.6562 25.8125V24.4062H18.2812V30.0312C18.2812 31.1501 18.7257 32.2232 19.5169 33.0144C20.3081 33.8055 21.3811 34.25 22.5 34.25H25.3125V37.0625C25.3125 37.8084 25.6088 38.5238 26.1363 39.0512C26.6637 39.5787 27.3791 39.875 28.125 39.875H36.5625C37.3084 39.875 38.0238 39.5787 38.5512 39.0512C39.0787 38.5238 39.375 37.8084 39.375 37.0625V28.625C39.375 27.8791 39.0787 27.1637 38.5512 26.6363C38.0238 26.1088 37.3084 25.8125 36.5625 25.8125H28.125C27.3791 25.8125 26.6637 26.1088 26.1363 26.6363C25.6088 27.1637 25.3125 27.8791 25.3125 28.625V31.4375H22.5C22.127 31.4375 21.7694 31.2893 21.5056 31.0256C21.2419 30.7619 21.0938 30.4042 21.0938 30.0312V15.9688C21.0938 15.5958 21.2419 15.2381 21.5056 14.9744C21.7694 14.7107 22.127 14.5625 22.5 14.5625H25.3125V17.375C25.3125 18.1209 25.6088 18.8363 26.1363 19.3637C26.6637 19.8912 27.3791 20.1875 28.125 20.1875ZM9.84375 25.8125H4.21875V20.1875H9.84375V25.8125ZM28.125 28.625H36.5625V37.0625H28.125V28.625ZM28.125 8.9375H36.5625V17.375H28.125V8.9375Z" fill="#0E53BE"/>
</svg>
