<?xml version="1.0" encoding="utf-8"?>
<!-- Generator: Adobe Illustrator 24.1.1, SVG Export Plug-In . SVG Version: 6.00 Build 0)  -->
<svg version="1.1" id="Layer_1" xmlns="http://www.w3.org/2000/svg" xmlns:xlink="http://www.w3.org/1999/xlink" x="0px" y="0px"
	 viewBox="0 0 438.1 438.1" style="enable-background:new 0 0 438.1 438.1;" xml:space="preserve">
<style type="text/css">
	.st0{fill:#007AFB;}
</style>
<g>
	<path class="st0" d="M427.7,384.2c2.8-5.1,4.5-11,4.5-17.2V262.8c0-14.4-11.7-26-26-26h-2.4c-1.1,0-2.2,0.1-3.3,0.2
		c-3-11-13.1-19.2-25.1-19.2h-4.7c-2.6,0-5.1,0.4-7.5,1.1c-4.7-6.4-12.4-10.6-20.9-10.6h-4.7c-0.8,0-1.6,0-2.4,0.1v-26.1
		c0-15.6-12.7-28.4-28.4-28.4h0c-7.6,0-14.7,2.9-20.1,8.3c-5.4,5.4-8.3,12.5-8.3,20.1v98.8c0,0.9-0.4,1.6-1.3,2.1
		c-0.8,0.4-1.7,0.4-2.4-0.1L270,280c-11.8-7.9-25.4-13-39.5-14.7l-0.8-0.1c-8.1-1-16.2,1.9-21.7,7.9c-5.5,5.9-7.8,14.2-6.2,22.1
		c1.3,6.5,4.9,12.1,10.3,16l15.4,11.2c18.1,13.1,33.5,33.5,43.5,57.4l0.8,1.9c1.4,3,3.2,5.8,5.3,8.3c-3,4.2-4.8,9.4-4.8,14.9v7.1
		c0,14.4,11.7,26,26,26l68.7,0c6.5,0,11.8-5.3,11.8-11.8s-5.3-11.8-11.8-11.8l-68.7,0c-1.3,0-2.4-1.1-2.4-2.4v-7.1
		c0-1.3,1.1-2.4,2.4-2.4H412c1.3,0,2.4,1.1,2.4,2.4v7.1c0,1.3-1.1,2.4-2.4,2.4h-9.5c-6.5,0-11.8,5.3-11.8,11.8
		c0,6.5,5.3,11.8,11.8,11.8h9.5c14.4,0,26-11.7,26-26v-7.1C438.1,396.4,433.9,389,427.7,384.2L427.7,384.2z M304.1,378.9
		c-4.6,0-8.9-2.7-10.6-6.6l-0.7-1.6c-11.6-27.8-29.9-51.7-51.4-67.4L226,292.1c-0.5-0.4-0.9-0.9-1-1.6c0-0.2-0.1-0.7,0.4-1.3
		c0.3-0.3,0.7-0.5,1.2-0.5c0.1,0,0.2,0,0.3,0l0.8,0.1c10.4,1.3,20.6,5.1,29.3,10.9l4.5,3c8,5.4,18.3,5.9,26.8,1.4
		c8.5-4.5,13.8-13.3,13.8-23v-98.8c0-1.7,0.9-2.8,1.4-3.4c0.5-0.5,1.6-1.4,3.3-1.4h0c2.6,0,4.7,2.1,4.7,4.7v63.9
		c0,6.5,5.3,11.8,11.8,11.8s11.8-5.3,11.8-11.8v-11.8c0-1.3,1.1-2.4,2.4-2.4h4.7c1.3,0,2.4,1.1,2.4,2.4v21.3
		c0,6.5,5.3,11.8,11.8,11.8c6.5,0,11.8-5.3,11.8-11.8v-11.8c0-1.3,1.1-2.4,2.4-2.4h4.7c1.3,0,2.4,1.1,2.4,2.4v26
		c0,6.5,5.3,11.8,11.8,11.8c6.5,0,11.8-5.3,11.8-11.8v-7.1c0-1.3,1.1-2.4,2.4-2.4h2.4c1.3,0,2.4,1.1,2.4,2.4l0,104.2
		c0,6.5-5.3,11.8-11.8,11.8L304.1,378.9z"/>
	<path class="st0" d="M230.9,156.9v-53.3c0-18,14.6-32.6,32.6-32.6c18,0,32.6,14.6,32.6,32.6v26.6c0,6.5,5.3,11.8,11.8,11.8
		s11.8-5.3,11.8-11.8v-26.6c0-31-25.2-56.2-56.2-56.2c-31,0-56.2,25.2-56.2,56.2v53.3c0,40.8-33.2,74-74,74s-74-33.2-74-74V40.4
		l15.3,15.3c2.3,2.3,5.3,3.5,8.4,3.5s6.1-1.2,8.4-3.5c4.6-4.6,4.6-12.1,0-16.7L55.7,3.5c-0.6-0.6-1.2-1-1.8-1.5
		c-0.3-0.2-0.6-0.3-0.9-0.5c-0.4-0.2-0.7-0.4-1.1-0.6c-0.4-0.2-0.8-0.3-1.2-0.4c-0.3-0.1-0.7-0.2-1-0.3c-1.5-0.3-3.1-0.3-4.6,0
		c-0.3,0.1-0.7,0.2-1,0.3c-0.4,0.1-0.8,0.2-1.2,0.4c-0.4,0.2-0.7,0.4-1.1,0.6c-0.3,0.2-0.6,0.3-0.9,0.5c-0.7,0.4-1.3,0.9-1.8,1.5
		L3.5,39c-4.6,4.6-4.6,12.1,0,16.7c4.6,4.6,12.1,4.6,16.7,0l15.3-15.3v116.4c0,53.9,43.8,97.7,97.7,97.7
		C187.1,254.5,230.9,210.7,230.9,156.9L230.9,156.9z"/>
</g>
</svg>
