<?xml version="1.0" encoding="utf-8"?>
<!-- Generator: Adobe Illustrator 24.1.1, SVG Export Plug-In . SVG Version: 6.00 Build 0)  -->
<svg version="1.1" id="Layer_1" xmlns="http://www.w3.org/2000/svg" xmlns:xlink="http://www.w3.org/1999/xlink" x="0px" y="0px"
	 viewBox="0 0 465.4 328.3" style="enable-background:new 0 0 465.4 328.3;" xml:space="preserve">
<style type="text/css">
	.st0{fill:#007AFB;}
</style>
<g>
	<path class="st0" d="M383.5,0c2.7,0,4.8,2.1,4.8,4.8v175h0c2.3,0.6,1.1,0.4,3.5,0.7c10.3,1.1,19.3-3,24.7-10.7
		c5.4,3.2,11.6,6.2,16.1,9.7c-3.4,8.1-2.6,18.9,3,26.6c5.8,8.6,15.7,11.6,25.3,10.1c2.4,5.8,3.9,11.8,4.5,18
		c-8.4,3-15.7,10.3-16.7,20.6c-1.1,10.3,3,19.3,10.7,24.7c-3.2,5.4-6.2,11.6-9.7,16.1c-8.1-3.4-18.9-2.6-26.6,3
		c-8.4,6.6-11.6,15.7-10.1,25.3c-5.8,2.4-11.8,3.9-18,4.5c-3-8.4-10.3-15.7-20.6-16.7c-10.3-1.1-19.3,3-24.7,10.7
		c-5.4-3.2-11.6-6.2-16.1-9.6c3.4-8.1,2.6-18.9-3-26.6c-6.6-8.4-15.7-11.6-25.3-10.1c-2.4-5.8-3.9-11.8-4.5-18
		c5.2-1.9,9.9-5.3,12.9-10H4.8c-2.6,0-4.8-2.1-4.8-4.8V4.8C0,2.1,2.1,0,4.8,0L383.5,0z M385.7,204.7c-6.1,0-3.5-0.2-7.8,0.3
		c-3.4,0.5-1.8,0.2-4.8,0.9c-14.7,3.7-24.4,14-29.5,27.9c-1.5,4.6-2,9.4-1.8,14.2c0,2.7,0.6,5.4,1.1,8.1c5.5,22.2,28,35.7,50.2,30.1
		c22.2-5.5,35.7-28,30.1-50.2c-4.2-16.8-18.2-28.4-35-31L385.7,204.7z M384.3,225.4l4,0.6c7.6,2.2,12.7,7.6,15,15
		c2.8,11.1-4,22.3-15.1,25.1c-11.1,2.8-22.3-4-25.1-15.1c-0.5-2.4-0.4-1.4-0.5-3.1c-0.4-3.7,0.2-7.4,1.8-10.8c0.7-1.1,1.4-2.3,2-3.4
		c0,0,0,0,0,0c2.8-3.9,6.9-6.2,11.4-7.7l0.2-0.1C381.5,225.3,379.5,225.6,384.3,225.4L384.3,225.4z M15.2,14.5
		c-2.6,0-4.8,2.1-4.8,4.8V229c0,2.7,2.1,4.8,4.8,4.8h302.5c0.1-8.5-4.3-15.9-10.8-21.1c3.2-5.4,6.2-11.6,9.7-16.1
		c8.1,3.4,18.9,2.6,26.6-3c8.4-6.6,11.6-15.7,10.1-25.3c2.1-0.8,4.3-1.6,6.4-2.2c4.7-1.1,2.4-0.6,6.9-1.7l4.6-0.6
		c1.5,3.8,3.5,7.6,6.7,10.2l0,0V19.3c0-2.6-2.1-4.8-4.8-4.8L15.2,14.5z"/>
	<path class="st0" d="M222.3,256.5c2.6,0,4.8,0.9,4.8,3.6v8.3l44.3,18.9c4.1,2.5,3.6,8.9-1.3,8.9H118.2c-4.8,0-5.4-6.4-1.3-8.9
		l44.3-18.9v-8.3c0-2.7,2.1-3.6,4.8-3.6H222.3z"/>
	<path class="st0" d="M144.5,72.5l1.1,0.3c6.3,2.6,9.8,7.4,9.8,13.8c0,3.8-5.3,8.3-21.5,20.2c-14.4,10.7-7.9,6-19.5,14.3
		c5.6,4.6,11.5,8.9,17.3,13.1c11.1,7.8,18.6,13.2,22.4,16.2c0.7,0.5,1.2,1.3,1.4,2.1c1.5,4.8,1.9,6.2,1.9,7.2c0,0.5-0.1,1-0.3,1.5
		c-0.1,0.2-0.1,0.2-0.4,1c-0.1,0.3-0.3,0.6-0.4,0.8c-3.4,5.2-6.2,7.8-9.8,7.8c-2.9,0-9.3-4.8-27.8-19.5
		c-15.8-12.6-24.8-20.2-27.6-23.2v0c-1.6-1.5-2.3-3.6-2.4-5.8c0-2.8,1.3-5.3,3.8-7.4l48.6-41.6C142.9,72.4,141.9,72.9,144.5,72.5
		L144.5,72.5z"/>
	<path class="st0" d="M223.5,31.1c3.3,0,6,1.9,8.4,5.3c0.9,1.2,1,2.9,0.4,4.2c-2.2,4.9-4.1,9.9-6.1,15L191,166.5
		c-10.4,32.6-18.1,47.7-26.7,47.7c-4.8,0-7.8-3.3-7.8-8.2c0-2.3,0.8-4.7,2.2-7.1c2-3.3,1-1.7,2.8-4.8c8.7-18.4,15.3-37.7,21.6-57.1
		c6.2-20.1,12.2-40.2,18.3-60.3c2.1-6.9,4.1-13.8,5.5-20.8c0.3-4.4,1.1-8.7,1.9-12.9c0-0.2,0.1-0.3,0.1-0.5c1-3.1,3-5.8,5.8-8
		C217.5,32.3,220.5,31.1,223.5,31.1L223.5,31.1z"/>
	<path class="st0" d="M242.6,72.4c2.9,0,9.3,4.8,27.7,19.5c15.7,12.5,24.7,20.1,27.6,23.2v0c1.6,1.5,2.4,3.5,2.5,5.6
		c0,3-1.3,5.6-3.8,7.7L247.8,170c-1.2,1-2.9,1.3-4.4,0.7c-6.3-2.6-9.8-7.4-9.8-13.8c0-3.9,5.6-8.7,21.6-20.5
		c6.5-4.7,13.1-9.4,19.6-14.1c-5.6-4.6-11.5-8.9-17.3-13.1c-11.1-7.8-18.6-13.2-22.4-16.2c-0.7-0.5-1.2-1.3-1.4-2.1
		c-1.5-4.8-1.9-6.2-1.9-7.2c0.1-0.9,0-0.5,0.2-1.3c0-0.8,0.4-1.5,0.7-2.2C236.2,75.1,239.1,72.4,242.6,72.4L242.6,72.4z"/>
</g>
</svg>
