<svg width="379" height="380" viewBox="0 0 379 380" fill="none" xmlns="http://www.w3.org/2000/svg">
<g clip-path="url(#clip0_492_183)">
<path d="M255.7 189.9H161V180.4C161 164.7 173.8 152 189.4 152C194.8 152 200 153.5 204.6 156.4C209.1 159.2 214.9 157.9 217.7 153.5C220.5 149.1 219.2 143.2 214.7 140.4C207.1 135.6 198.4 133.1 189.4 133.1C163.3 133.1 142 154.3 142 180.5V190H123.1C117.9 190 113.6 194.2 113.6 199.5V256.3C113.6 261.5 117.8 265.8 123.1 265.8H255.7C260.9 265.8 265.2 261.6 265.2 256.3V199.5C265.2 194.2 261 189.9 255.7 189.9ZM246.3 246.8H132.6V208.9H246.3V246.8Z" fill="#0E53BE"/>
<path d="M331.5 0.5H47.4C21.3 0.5 0 21.7 0 47.9V332.1C0 358.2 21.3 379.5 47.4 379.5H331.5C357.6 379.5 378.9 358.3 378.9 332.1V48C378.9 21.7 357.6 0.5 331.5 0.5ZM359.9 332C359.9 347.7 347.1 360.4 331.5 360.4H47.3C31.6 360.4 18.9 347.6 18.9 332V47.9C18.9 32.2 31.7 19.5 47.3 19.5H331.5C347.2 19.5 359.9 32.3 359.9 47.9V332Z" fill="#0E53BE"/>
<path d="M85.2 38.4H47.4C42.2 38.4 37.9 42.6 37.9 47.9C37.9 53.1 42.1 57.4 47.4 57.4H85.3C90.5 57.4 94.8 53.2 94.8 47.9C94.7 42.6 90.5 38.4 85.2 38.4Z" fill="#0E53BE"/>
<path d="M123.1 57.3H161C166.2 57.3 170.5 53.1 170.5 47.8C170.5 42.6 166.3 38.3 161 38.3H123.1C117.9 38.3 113.6 42.5 113.6 47.8C113.7 53.1 117.9 57.3 123.1 57.3Z" fill="#0E53BE"/>
</g>
<defs>
<clipPath id="clip0_492_183">
<rect width="378.9" height="378.9" fill="white" transform="translate(0 0.5)"/>
</clipPath>
</defs>
</svg>
