<?xml version="1.0" encoding="utf-8"?>
<!-- Generator: Adobe Illustrator 24.1.1, SVG Export Plug-In . SVG Version: 6.00 Build 0)  -->
<svg version="1.1" id="Layer_1" xmlns="http://www.w3.org/2000/svg" xmlns:xlink="http://www.w3.org/1999/xlink" x="0px" y="0px"
	 viewBox="0 0 378.9 378.9" style="enable-background:new 0 0 378.9 378.9;" xml:space="preserve">
<style type="text/css">
	.st0{fill:#007AFB;}
</style>
<g>
	<path class="st0" d="M255.7,189.4H161l0-9.5c0-15.7,12.8-28.4,28.4-28.4c5.4,0,10.6,1.5,15.2,4.4c4.5,2.8,10.3,1.5,13.1-2.9
		c2.8-4.4,1.5-10.3-3-13.1c-7.6-4.8-16.3-7.3-25.3-7.3c-26.1,0-47.4,21.2-47.4,47.4v9.5l-18.9,0c-5.2,0-9.5,4.2-9.5,9.5v56.8
		c0,5.2,4.2,9.5,9.5,9.5h132.6c5.2,0,9.5-4.2,9.5-9.5v-56.8C265.2,193.7,261,189.4,255.7,189.4L255.7,189.4z M246.3,246.3H132.6
		v-37.9h113.7V246.3z"/>
	<path class="st0" d="M331.5,0H47.4C21.3,0,0,21.2,0,47.4v284.2c0,26.1,21.3,47.4,47.4,47.4h284.1c26.1,0,47.4-21.2,47.4-47.4
		l0-284.1C378.9,21.2,357.6,0,331.5,0L331.5,0z M359.9,331.5c0,15.7-12.8,28.4-28.4,28.4l-284.2,0c-15.7,0-28.4-12.8-28.4-28.4V47.4
		c0-15.7,12.8-28.4,28.4-28.4h284.2c15.7,0,28.4,12.8,28.4,28.4V331.5z"/>
	<path class="st0" d="M85.2,37.9H47.4c-5.2,0-9.5,4.2-9.5,9.5c0,5.2,4.2,9.5,9.5,9.5h37.9c5.2,0,9.5-4.2,9.5-9.5
		C94.7,42.1,90.5,37.9,85.2,37.9z"/>
	<path class="st0" d="M123.1,56.8H161c5.2,0,9.5-4.2,9.5-9.5c0-5.2-4.2-9.5-9.5-9.5h-37.9c-5.2,0-9.5,4.2-9.5,9.5
		C113.7,52.6,117.9,56.8,123.1,56.8z"/>
</g>
</svg>
