<?xml version="1.0" encoding="utf-8"?>
<!-- Generator: Adobe Illustrator 24.1.1, SVG Export Plug-In . SVG Version: 6.00 Build 0)  -->
<svg version="1.1" id="Layer_1" xmlns="http://www.w3.org/2000/svg" xmlns:xlink="http://www.w3.org/1999/xlink" x="0px" y="0px"
	 viewBox="0 0 394.7 423.6" style="enable-background:new 0 0 394.7 423.6;" xml:space="preserve">
<style type="text/css">
	.st0{fill:#007AFB;}
</style>
<g>
	<path class="st0" d="M376.2,0H18.5C8.3,0,0,8.3,0,18.5v386.6c0,10.2,8.3,18.5,18.5,18.5h357.7c10.2,0,18.5-8.3,18.5-18.5V18.5
		C394.7,8.3,386.4,0,376.2,0z M372.5,401.4H22.2V22.2h350.3V401.4z"/>
	<path class="st0" d="M61.7,96.2h264.5c6.1,0,11.1-5,11.1-11.1c0-6.1-5-11.1-11.1-11.1L61.7,74c-6.1,0-11.1,5-11.1,11.1
		C50.6,91.2,55.5,96.2,61.7,96.2L61.7,96.2z"/>
	<path class="st0" d="M61.7,170.2h239.9c6.1,0,11.1-5,11.1-11.1s-5-11.1-11.1-11.1l-239.9,0c-6.1,0-11.1,5-11.1,11.1
		C50.6,165.2,55.5,170.2,61.7,170.2L61.7,170.2z"/>
	<path class="st0" d="M61.7,244.2h264.5c6.1,0,11.1-5,11.1-11.1c0-6.1-5-11.1-11.1-11.1l-264.5,0c-6.1,0-11.1,5-11.1,11.1
		C50.6,239.2,55.5,244.2,61.7,244.2L61.7,244.2z"/>
	<path class="st0" d="M61.7,318.2h177.6c6.1,0,11.1-5,11.1-11.1c0-6.1-5-11.1-11.1-11.1l-177.6,0c-6.1,0-11.1,5-11.1,11.1
		C50.6,313.2,55.5,318.2,61.7,318.2L61.7,318.2z"/>
	<path class="st0" d="M295.4,264.5c-6.1,0-11.1,5-11.1,11.1c0,6.1,5,11.1,11.1,11.1h7.7v40.7h-7.7c-6.1,0-11.1,5-11.1,11.1
		c0,6.1,5,11.1,11.1,11.1H333c6.1,0,11.1-5,11.1-11.1c0-6.1-5-11.1-11.1-11.1h-7.7v-40.7h7.7c6.1,0,11.1-5,11.1-11.1
		c0-6.1-5-11.1-11.1-11.1H295.4z"/>
</g>
</svg>
