<svg xmlns="http://www.w3.org/2000/svg" viewBox="0 0 59.79 59.79"><g id="Layer_2" data-name="Layer 2"><g id="Layer_1-2" data-name="Layer 1"><path d="M44.32,20l5.46-5.46,1.55,3.2a1,1,0,0,0,1,.57,1,1,0,0,0,.91-.63L59.72,1.4A1,1,0,0,0,59.5.3,1,1,0,0,0,58.4.07L42.16,6.61a1,1,0,0,0-.64.91,1,1,0,0,0,.57,1L45.29,10l-5.46,5.46c.39,1,.68,2,.93,2.82,0,.14.1.35.17.57l.56.17C42.34,19.29,43.31,19.57,44.32,20Z" fill="#007bfc"/><path d="M8.14,37.31c-.26-2.45-2.23-21.15-2.53-24.05a18.27,18.27,0,0,0,5.7,3.5c7.17,2.73,11.65,0,14.46-.45a3.76,3.76,0,0,1,3.52,1A9.87,9.87,0,0,1,31,21.18a11.44,11.44,0,0,0,2.48,5.1,11.56,11.56,0,0,0,5.1,2.49,9.85,9.85,0,0,1,3.91,1.73c1.58,1.59,1.11,3.59.26,6.25A17.31,17.31,0,0,0,43,48.48a18.32,18.32,0,0,0,3.5,5.71L22.61,51.67a5.17,5.17,0,0,1-1.47,3,5.85,5.85,0,0,1-.67.56L52.16,58.6c.56.32,1.15.62,1.77.91a3.17,3.17,0,1,0,2.64-5.77,14.12,14.12,0,0,1-7.37-6.9,11.15,11.15,0,0,1-.38-8.16C49.67,36,51.44,30.46,47,26c-1.89-1.9-4.31-2.66-6.59-3.33A11.41,11.41,0,0,1,38,21.8a11,11,0,0,1-.89-2.42c-.61-2.06-1.37-4.63-3.33-6.59A9.75,9.75,0,0,0,25.53,10c-4.41.42-7.11,3.06-12.58.63a14.16,14.16,0,0,1-6.9-7.37A3.17,3.17,0,1,0,.29,5.86c.28.62.58,1.21.9,1.78.18,1.73,3.18,30.21,3.36,31.93a4.55,4.55,0,0,1,.65-.8A5.12,5.12,0,0,1,8.14,37.31Z" fill="#007bfc"/><path d="M4.11,55.8l.56,2.42a1.34,1.34,0,0,0,.59.84,1.37,1.37,0,0,0,1,.16l3.57-.83a1.33,1.33,0,0,0,1-1.6l-.64-2.72,2.31-2.31.11.44a1.34,1.34,0,0,0,.59.84,1.37,1.37,0,0,0,1,.16l3.57-.83a1.33,1.33,0,0,0,1-1.6l-1-4.3,15.6-15.6A10.82,10.82,0,0,1,30.82,29a10.58,10.58,0,0,1-1.89-2.59L13.25,42.06l-4.11-1a1.35,1.35,0,0,0-1.61,1L6.7,45.67a1.35,1.35,0,0,0,1,1.61l.27.06L5.66,49.65l-2.54-.59a1.34,1.34,0,0,0-1.61,1L.68,53.63a1.33,1.33,0,0,0,.17,1,1.36,1.36,0,0,0,.83.6Z" fill="#007bfc"/></g></g></svg>