<svg width="60" height="61" viewBox="0 0 60 61" fill="none" xmlns="http://www.w3.org/2000/svg">
<g clip-path="url(#clip0_498_1513)">
<path d="M44.3201 20.5L49.7801 15.04L51.3301 18.24C51.4177 18.4264 51.5609 18.5813 51.7398 18.6833C51.9188 18.7853 52.125 18.8296 52.3301 18.81C52.5269 18.8062 52.7183 18.7444 52.8802 18.6324C53.0421 18.5203 53.1673 18.3629 53.2401 18.18L59.7201 1.89999C59.7976 1.71566 59.8181 1.51232 59.7788 1.31624C59.7396 1.12015 59.6425 0.940331 59.5001 0.799991C59.3609 0.655858 59.1816 0.556869 58.9854 0.515858C58.7893 0.474848 58.5854 0.493707 58.4001 0.569991L42.1601 7.10999C41.9753 7.18124 41.8158 7.30577 41.7018 7.46778C41.5879 7.62978 41.5246 7.82198 41.5201 8.01999C41.5005 8.22509 41.5447 8.43123 41.6468 8.61022C41.7488 8.78922 41.9036 8.93233 42.0901 9.01999L45.2901 10.5L39.8301 15.96C40.2201 16.96 40.5101 17.96 40.7601 18.78C40.7601 18.92 40.8601 19.13 40.9301 19.35L41.4901 19.52C42.3401 19.79 43.3101 20.07 44.3201 20.5Z" fill="#0E53BE"/>
<path d="M8.14 37.81C7.88 35.36 5.91 16.66 5.61 13.76C7.27842 15.2675 9.2108 16.454 11.31 17.26C18.48 19.99 22.96 17.26 25.77 16.81C26.3933 16.6631 27.0438 16.6779 27.6599 16.8529C28.2759 17.0279 28.837 17.3573 29.29 17.81C30.133 18.9612 30.7164 20.2815 31 21.68C31.3855 23.5612 32.2384 25.3151 33.48 26.78C34.9467 28.0209 36.6995 28.8767 38.58 29.27C39.9943 29.5534 41.3291 30.144 42.49 31C44.07 32.59 43.6 34.59 42.75 37.25C41.4653 41.0699 41.5537 45.2183 43 48.98C43.8059 51.0822 44.9924 53.0179 46.5 54.69L22.61 52.17C22.4655 53.3051 21.9485 54.3602 21.14 55.17C20.9309 55.3731 20.707 55.5603 20.47 55.73L52.16 59.1C52.72 59.42 53.31 59.72 53.93 60.01C54.3089 60.1833 54.7182 60.2804 55.1345 60.2955C55.5509 60.3107 55.9661 60.2437 56.3566 60.0984C56.7471 59.953 57.1051 59.7322 57.4102 59.4486C57.7154 59.1649 57.9616 58.8239 58.135 58.445C58.3083 58.0661 58.4054 57.6568 58.4205 57.2405C58.4357 56.8241 58.3687 56.4088 58.2234 56.0184C58.0781 55.6279 57.8572 55.2699 57.5736 54.9647C57.2899 54.6596 56.9489 54.4133 56.57 54.24C53.3469 52.9269 50.7224 50.4697 49.2 47.34C48.0456 44.766 47.9098 41.8501 48.82 39.18C49.67 36.5 51.44 30.96 47 26.5C45.11 24.6 42.69 23.84 40.41 23.17C39.5765 22.9714 38.7681 22.6796 38 22.3C37.6095 21.531 37.3108 20.7188 37.11 19.88C36.5 17.82 35.74 15.25 33.78 13.29C32.7152 12.2173 31.4156 11.4069 29.9838 10.9227C28.552 10.4385 27.0273 10.2938 25.53 10.5C21.12 10.92 18.42 13.56 12.95 11.13C9.82259 9.60455 7.36634 6.98099 6.05 3.75999C5.90246 3.34791 5.67119 2.97085 5.37075 2.65255C5.0703 2.33426 4.7072 2.08164 4.30432 1.91059C3.90143 1.73954 3.46748 1.65378 3.02982 1.65871C2.59215 1.66364 2.16025 1.75915 1.76132 1.93922C1.36238 2.1193 1.00506 2.38003 0.711861 2.70501C0.418662 3.02999 0.195938 3.41216 0.0577194 3.82746C-0.0804996 4.24275 -0.131219 4.68217 -0.0912425 5.11804C-0.0512664 5.5539 0.0785383 5.97676 0.289995 6.35999C0.569995 6.97999 0.869995 7.56999 1.19 8.13999C1.37 9.86999 4.37 38.35 4.55 40.07C4.73566 39.7796 4.95372 39.5112 5.2 39.27C5.9932 38.4738 7.02632 37.9608 8.14 37.81Z" fill="#0E53BE"/>
<path d="M4.11011 56.3L4.67011 58.72C4.70842 58.8919 4.78025 59.0546 4.88149 59.1987C4.98272 59.3428 5.11139 59.4656 5.26011 59.56C5.56077 59.7391 5.91858 59.7963 6.26011 59.72L9.83011 58.89C10.0011 58.8511 10.1627 58.7788 10.3056 58.6772C10.4486 58.5756 10.57 58.4467 10.663 58.298C10.7559 58.1493 10.8185 57.9837 10.8472 57.8107C10.8759 57.6377 10.8701 57.4607 10.8301 57.29L10.1901 54.57L12.5001 52.26L12.6101 52.7C12.6484 52.8719 12.7202 53.0346 12.8215 53.1787C12.9227 53.3228 13.0514 53.4456 13.2001 53.54C13.5008 53.7191 13.8586 53.7763 14.2001 53.7L17.7701 52.87C17.9411 52.8311 18.1027 52.7588 18.2456 52.6572C18.3886 52.5556 18.51 52.4267 18.603 52.278C18.6959 52.1293 18.7585 51.9637 18.7872 51.7907C18.8159 51.6177 18.8101 51.4407 18.7701 51.27L17.7701 46.97L33.3701 31.37C32.4331 30.8749 31.5739 30.2448 30.8201 29.5C30.0622 28.7377 29.4249 27.8643 28.9301 26.91L13.2501 42.56L9.14011 41.56C8.79419 41.4818 8.43139 41.5428 8.13013 41.7299C7.82886 41.9171 7.61333 42.2152 7.53011 42.56L6.70011 46.17C6.62191 46.5159 6.68296 46.8787 6.87008 47.18C7.05721 47.4812 7.35536 47.6968 7.70011 47.78L7.97011 47.84L5.66011 50.15L3.12011 49.56C2.94873 49.5199 2.77114 49.514 2.59748 49.5425C2.42381 49.5711 2.25747 49.6336 2.10797 49.7265C1.95846 49.8193 1.82871 49.9407 1.72613 50.0838C1.62355 50.2268 1.55014 50.3886 1.51011 50.56L0.68011 54.13C0.602449 54.4727 0.663566 54.8322 0.85011 55.13C1.03802 55.4305 1.33583 55.6458 1.68011 55.73L4.11011 56.3Z" fill="#0E53BE"/>
</g>
<defs>
<clipPath id="clip0_498_1513">
<rect width="59.79" height="59.79" fill="white" transform="translate(0 0.5)"/>
</clipPath>
</defs>
</svg>
