<svg width="55" height="55" viewBox="0 0 55 55" fill="none" xmlns="http://www.w3.org/2000/svg">
<path d="M27.5 3.05566C20.2065 3.05566 13.2118 5.95298 8.05456 11.1102C2.89731 16.2675 0 23.2622 0 30.5557C0 31.366 0.321924 32.1432 0.894952 32.7163C1.46798 33.2893 2.24517 33.6112 3.05556 33.6112C3.86594 33.6112 4.64313 33.2893 5.21616 32.7163C5.78919 32.1432 6.11111 31.366 6.11111 30.5557C6.11111 24.883 8.36458 19.4426 12.3758 15.4314C16.387 11.4202 21.8273 9.16678 27.5 9.16678C33.1727 9.16678 38.613 11.4202 42.6242 15.4314C46.6354 19.4426 48.8889 24.883 48.8889 30.5557C48.8889 31.366 49.2108 32.1432 49.7838 32.7163C50.3569 33.2893 51.1341 33.6112 51.9444 33.6112C52.7548 33.6112 53.532 33.2893 54.1051 32.7163C54.6781 32.1432 55 31.366 55 30.5557C55 23.2622 52.1027 16.2675 46.9454 11.1102C41.7882 5.95298 34.7935 3.05566 27.5 3.05566V3.05566Z" fill="#007BFC"/>
<path d="M27.5001 51.9444C34.2502 51.9444 39.7223 46.4724 39.7223 39.7222C39.7223 32.9721 34.2502 27.5 27.5001 27.5C20.7499 27.5 15.2778 32.9721 15.2778 39.7222C15.2778 46.4724 20.7499 51.9444 27.5001 51.9444Z" fill="#007BFC"/>
<path d="M27.5002 48.889C32.5628 48.889 36.6668 44.7849 36.6668 39.7223C36.6668 34.6597 32.5628 30.5557 27.5002 30.5557C22.4376 30.5557 18.3335 34.6597 18.3335 39.7223C18.3335 44.7849 22.4376 48.889 27.5002 48.889Z" fill="#007BFC" stroke="#007BFC" stroke-width="4" stroke-miterlimit="10"/>
<path d="M27.4999 15.2778C28.3103 15.2778 29.0875 15.5998 29.6605 16.1728C30.2335 16.7458 30.5554 17.523 30.5554 18.3334V32.2744H24.4443V18.3334C24.4443 17.523 24.7663 16.7458 25.3393 16.1728C25.9123 15.5998 26.6895 15.2778 27.4999 15.2778V15.2778Z" fill="#007BFC"/>
</svg>
