<svg width="48" height="48" viewBox="0 0 48 48" fill="none" xmlns="http://www.w3.org/2000/svg">
<g clip-path="url(#clip0_639_3020)">
<path d="M36.75 0H11.25C5.0368 0 0 5.0368 0 11.25V36.75C0 42.9632 5.0368 48 11.25 48H36.75C42.9632 48 48 42.9632 48 36.75V11.25C48 5.0368 42.9632 0 36.75 0Z" fill="white"/>
<path d="M9.21713 18.7959H14.5436C16.107 18.809 17.2399 19.2598 17.9423 20.1474C18.6446 21.035 18.8764 22.2474 18.6379 23.7845C18.5453 24.4869 18.3397 25.1758 18.0217 25.8515C17.7169 26.5273 17.2931 27.1366 16.7498 27.68C16.0871 28.3689 15.3784 28.8061 14.6231 28.9918C13.8679 29.1774 13.086 29.27 12.2779 29.27H9.89288L9.13763 33.0463H6.375L9.21713 18.7959ZM11.5425 21.0616L10.35 27.0241C10.4295 27.0373 10.509 27.044 10.5885 27.044C10.6811 27.044 10.7741 27.044 10.8668 27.044C12.1388 27.0571 13.1989 26.9315 14.0468 26.6664C14.8946 26.3881 15.4646 25.421 15.756 23.7646C15.9945 22.3734 15.756 21.5716 15.0405 21.3598C14.3381 21.1479 13.4572 21.0485 12.3971 21.0616C12.2381 21.0748 12.0859 21.0815 11.94 21.0815C11.8076 21.0815 11.6685 21.0815 11.5226 21.0815L11.5425 21.0616Z" fill="black"/>
<path d="M21.7849 15H24.5276L23.7525 18.7961H26.217C27.5685 18.8228 28.5754 19.101 29.238 19.6309C29.9137 20.1607 30.1125 21.168 29.8342 22.6519L28.5026 29.2703H25.7201L26.9921 22.95C27.1245 22.2874 27.0847 21.8171 26.8729 21.5389C26.661 21.2606 26.2039 21.1215 25.5015 21.1215L23.2954 21.1016L21.6656 29.2703H18.9229L21.7849 15Z" fill="black"/>
<path d="M32.7796 18.7959H38.1061C39.6695 18.809 40.8024 19.2598 41.5048 20.1474C42.2071 21.035 42.4389 22.2474 42.2004 23.7845C42.1077 24.4869 41.9022 25.1758 41.5842 25.8515C41.2794 26.5273 40.8556 27.1366 40.3123 27.68C39.6496 28.3689 38.9409 28.8061 38.1856 28.9918C37.4304 29.1774 36.6485 29.27 35.8404 29.27H33.4554L32.7001 33.0463H29.9375L32.7796 18.7959ZM35.105 21.0616L33.9125 27.0241C33.992 27.0373 34.0715 27.044 34.151 27.044C34.2436 27.044 34.3366 27.044 34.4292 27.044C35.7012 27.0571 36.7614 26.9315 37.6093 26.6664C38.4571 26.3881 39.0271 25.421 39.3185 23.7646C39.557 22.3734 39.3185 21.5716 38.603 21.3598C37.9006 21.1479 37.0197 21.0485 35.9596 21.0616C35.8006 21.0748 35.6484 21.0815 35.5025 21.0815C35.3701 21.0815 35.231 21.0815 35.0851 21.0815L35.105 21.0616Z" fill="black"/>
</g>
<defs>
<clipPath id="clip0_639_3020">
<rect width="48" height="48" fill="white"/>
</clipPath>
</defs>
</svg>
