<svg width="356" height="148" viewBox="0 0 356 148" fill="none" xmlns="http://www.w3.org/2000/svg">
<g clip-path="url(#clip0_493_457)">
<path d="M281.2 148C276.8 148 273.8 146.5 270.8 143.6C264.9 137.7 264.9 128.8 270.8 122.9L319.7 74L270.9 25.2C265 19.3 265 10.4 270.9 4.49995C276.8 -1.40005 285.7 -1.40005 291.6 4.49995L350.8 63.7C353.8 66.7 355.2 69.6 355.2 74.1C355.2 78.6 353.7 81.5 350.8 84.5L291.6 143.7C288.6 146.5 285.6 148 281.2 148Z" fill="#0E53BE"/>
<path d="M74 148C69.6 148 66.6 146.5 63.6 143.6L4.39998 84.4C-1.50002 78.5 -1.50002 69.6 4.39998 63.7L63.6 4.39998C69.5 -1.50002 78.4 -1.50002 84.3 4.39998C90.2 10.3 90.2 19.2 84.3 25.1L35.5 74L84.3 122.8C90.2 128.7 90.2 137.6 84.3 143.5C81.4 146.5 77 148 74 148Z" fill="#0E53BE"/>
<path d="M222 148H133.2C124.3 148 118.4 142.1 118.4 133.2C118.4 124.3 124.3 118.4 133.2 118.4H222C230.9 118.4 236.8 124.3 236.8 133.2C236.8 142.1 229.4 148 222 148Z" fill="#0E53BE"/>
</g>
<defs>
<clipPath id="clip0_493_457">
<rect width="355.2" height="148" fill="white"/>
</clipPath>
</defs>
</svg>
