<?xml version="1.0" encoding="utf-8"?>
<!-- Generator: Adobe Illustrator 24.1.1, SVG Export Plug-In . SVG Version: 6.00 Build 0)  -->
<svg version="1.1" id="Layer_1" xmlns="http://www.w3.org/2000/svg" xmlns:xlink="http://www.w3.org/1999/xlink" x="0px" y="0px"
	 viewBox="0 0 355.2 148" style="enable-background:new 0 0 355.2 148;" xml:space="preserve">
<style type="text/css">
	.st0{fill:#007AFB;}
</style>
<g>
	<path class="st0" d="M281.2,148c-4.4,0-7.4-1.5-10.4-4.4c-5.9-5.9-5.9-14.8,0-20.7L319.7,74l-48.8-48.8c-5.9-5.9-5.9-14.8,0-20.7
		s14.8-5.9,20.7,0l59.2,59.2c3,3,4.4,5.9,4.4,10.4s-1.5,7.4-4.4,10.4l-59.2,59.2C288.6,146.5,285.6,148,281.2,148L281.2,148z"/>
	<path class="st0" d="M74,148c-4.4,0-7.4-1.5-10.4-4.4L4.4,84.4c-5.9-5.9-5.9-14.8,0-20.7L63.6,4.4c5.9-5.9,14.8-5.9,20.7,0
		s5.9,14.8,0,20.7L35.5,74l48.8,48.8c5.9,5.9,5.9,14.8,0,20.7C81.4,146.5,77,148,74,148L74,148z"/>
	<path class="st0" d="M222,148h-88.8c-8.9,0-14.8-5.9-14.8-14.8c0-8.9,5.9-14.8,14.8-14.8H222c8.9,0,14.8,5.9,14.8,14.8
		C236.8,142.1,229.4,148,222,148z"/>
</g>
</svg>
