<svg width="49" height="56" viewBox="0 0 49 56" fill="none" xmlns="http://www.w3.org/2000/svg">
<g clip-path="url(#clip0_492_152)">
<mask id="mask0_492_152" style="mask-type:luminance" maskUnits="userSpaceOnUse" x="0" y="0" width="49" height="56">
<path d="M48.3085 0.5H0V55.5H48.3085V0.5Z" fill="white"/>
</mask>
<g mask="url(#mask0_492_152)">
<path fill-rule="evenodd" clip-rule="evenodd" d="M33.8289 23.7882C39.209 27.1988 44.0698 28.8101 48.2414 28.4297C48.9709 43.1644 43.5282 51.87 33.8826 55.5C24.5683 52.0983 19.0629 43.7731 19.4702 28.2059C24.3669 28.461 29.174 27.4047 33.8289 23.7882ZM8.46395 23.8016C7.83732 23.8016 7.33154 23.2466 7.33154 22.5618C7.33154 21.877 7.83732 21.3219 8.46395 21.3219H15.1465C15.7731 21.3219 16.2789 21.877 16.2789 22.5618C16.2789 23.2466 15.7731 23.8016 15.1465 23.8016H8.46395ZM36.2862 8.01506H40.3414C41.1381 8.01506 41.8632 8.3418 42.3914 8.86548C42.915 9.38916 43.2418 10.1187 43.2418 10.9154V23.5733C42.4272 23.2913 41.5991 22.9646 40.7576 22.6021V10.9154C40.7576 10.8035 40.7129 10.6961 40.6323 10.6245C40.5562 10.5484 40.4533 10.4992 40.3414 10.4992H36.2862V20.3596C35.4716 19.8986 34.648 19.4018 33.8155 18.8736L33.8021 18.8826V3.40039C33.8021 3.28849 33.7573 3.18107 33.6768 3.10946C33.6051 3.03337 33.4977 2.98413 33.3858 2.98413H2.90039C2.78849 2.98413 2.68107 3.02889 2.60946 3.10946C2.52889 3.18555 2.48413 3.28849 2.48413 3.40039V37.8381C2.48413 37.95 2.52889 38.0574 2.60946 38.129C2.68555 38.2051 2.78849 38.2543 2.90039 38.2543H16.0238C16.1938 39.1047 16.3863 39.9328 16.5967 40.734H9.43522V40.7384V45.3531C9.43522 45.465 9.47998 45.5724 9.56055 45.644C9.63664 45.7201 9.73958 45.7694 9.85148 45.7694H18.3244C18.6959 46.6332 19.1032 47.4613 19.5329 48.2535H9.85148C9.05477 48.2535 8.32967 47.9268 7.80151 47.4031C7.27783 46.8794 6.95109 46.1543 6.95109 45.3531V40.7384H2.90039C2.10368 40.7384 1.37858 40.4117 0.850423 39.888C0.326742 39.3599 0 38.6348 0 37.8381V3.40039C0 2.5992 0.326742 1.87858 0.850423 1.35042C1.3741 0.826742 2.0992 0.5 2.90039 0.5H33.3858C34.1825 0.5 34.9076 0.826742 35.4358 1.35042C35.9595 1.8741 36.2862 2.60368 36.2862 3.40039V8.01506ZM8.46395 10.526C7.83732 10.526 7.33154 9.97103 7.33154 9.28621C7.33154 8.6014 7.83732 8.04639 8.46395 8.04639H27.03C27.6567 8.04639 28.1624 8.6014 28.1624 9.28621C28.1624 9.97103 27.6567 10.526 27.03 10.526H8.46395ZM8.46395 17.1638C7.83732 17.1638 7.33154 16.6088 7.33154 15.924C7.33154 15.2392 7.83732 14.6842 8.46395 14.6842H27.03C27.6567 14.6842 28.1624 15.2392 28.1624 15.924C28.1624 16.6088 27.6567 17.1638 27.03 17.1638H8.46395ZM33.9453 28.828C37.6156 31.1555 40.9277 32.2521 43.7744 31.9925C44.2712 42.0409 40.5607 47.976 33.9856 50.4512C33.9453 50.4377 33.905 50.4198 33.8603 50.4064V28.8907L33.9453 28.828ZM33.8334 25.6054C38.5958 28.6222 42.8971 30.0544 46.5898 29.7143C47.2343 42.7571 42.4182 50.4601 33.8826 53.6783C25.638 50.6705 20.7638 43.2987 21.1218 29.5173C25.4635 29.7456 29.7156 28.8101 33.8334 25.6054Z" fill="#0E53BE" stroke="#0E53BE" stroke-width="1.3"/>
</g>
</g>
<defs>
<clipPath id="clip0_492_152">
<rect width="49" height="55" fill="white" transform="translate(0 0.5)"/>
</clipPath>
</defs>
</svg>
