<?xml version="1.0" encoding="UTF-8"?>
<svg xmlns="http://www.w3.org/2000/svg" xmlns:xlink="http://www.w3.org/1999/xlink" width="365pt" height="81.79pt" viewBox="0 0 365 81.79" version="1.1">
<defs>
<clipPath id="clip1">
  <path d="M 93 60 L 365 60 L 365 81.789063 L 93 81.789063 Z M 93 60 "/>
</clipPath>
</defs>
<g id="surface1">
<path style=" stroke:none;fill-rule:nonzero;fill:rgb(29.798889%,30.198669%,30.198669%);fill-opacity:1;" d="M 0 50.300781 L 16.007813 50.300781 L 17.148438 36.582031 L 2.285156 33.152344 L 0 50.300781 "/>
<path style=" stroke:none;fill-rule:nonzero;fill:rgb(29.798889%,30.198669%,30.198669%);fill-opacity:1;" d="M 2.859375 30.863281 L 17.148438 34.292969 L 20.578125 22.289063 L 8.574219 16.003906 L 2.859375 30.863281 "/>
<path style=" stroke:none;fill-rule:nonzero;fill:rgb(29.798889%,30.198669%,30.198669%);fill-opacity:1;" d="M 9.71875 13.714844 L 21.152344 20.003906 L 30.296875 13.714844 L 21.722656 3.996094 L 9.71875 13.714844 "/>
<path style=" stroke:none;fill-rule:nonzero;fill:rgb(29.798889%,30.198669%,30.198669%);fill-opacity:1;" d="M 73.742188 50.300781 L 57.738281 50.300781 L 56.59375 36.582031 L 71.457031 33.152344 L 73.742188 50.300781 "/>
<path style=" stroke:none;fill-rule:nonzero;fill:rgb(29.798889%,30.198669%,30.198669%);fill-opacity:1;" d="M 70.882813 30.863281 L 56.59375 34.292969 L 53.164063 22.289063 L 65.167969 16.003906 L 70.882813 30.863281 "/>
<path style=" stroke:none;fill-rule:nonzero;fill:rgb(29.798889%,30.198669%,30.198669%);fill-opacity:1;" d="M 64.023438 13.714844 L 52.589844 20.003906 L 43.445313 13.714844 L 52.019531 3.996094 L 64.023438 13.714844 "/>
<path style=" stroke:none;fill-rule:nonzero;fill:rgb(29.798889%,30.198669%,30.198669%);fill-opacity:1;" d="M 24.582031 2.28125 L 33.15625 12.570313 L 41.15625 12.570313 L 48.589844 2.28125 L 41.15625 -0.00390625 L 32.953125 -0.00390625 L 24.582031 2.28125 "/>
<path style=" stroke:none;fill-rule:nonzero;fill:rgb(60.798645%,10.598755%,12.199402%);fill-opacity:1;" d="M 0 50.300781 L 16.007813 50.300781 L 17.148438 36.582031 L 2.285156 33.152344 L 0 50.300781 "/>
<path style=" stroke:none;fill-rule:nonzero;fill:rgb(70.599365%,12.199402%,14.099121%);fill-opacity:1;" d="M 2.859375 30.863281 L 17.148438 34.292969 L 20.578125 22.289063 L 8.574219 16.003906 L 2.859375 30.863281 "/>
<path style=" stroke:none;fill-rule:nonzero;fill:rgb(77.598572%,12.5%,14.898682%);fill-opacity:1;" d="M 9.71875 13.714844 L 21.152344 20.003906 L 30.296875 13.714844 L 21.722656 3.996094 L 9.71875 13.714844 "/>
<path style=" stroke:none;fill-rule:nonzero;fill:rgb(60.798645%,10.598755%,12.199402%);fill-opacity:1;" d="M 73.742188 50.300781 L 57.738281 50.300781 L 56.59375 36.582031 L 71.457031 33.152344 L 73.742188 50.300781 "/>
<path style=" stroke:none;fill-rule:nonzero;fill:rgb(70.599365%,12.199402%,14.099121%);fill-opacity:1;" d="M 70.882813 30.863281 L 56.59375 34.292969 L 53.164063 22.289063 L 65.167969 16.003906 L 70.882813 30.863281 "/>
<path style=" stroke:none;fill-rule:nonzero;fill:rgb(77.598572%,12.5%,14.898682%);fill-opacity:1;" d="M 64.023438 13.714844 L 52.589844 20.003906 L 43.445313 13.714844 L 52.019531 3.996094 L 64.023438 13.714844 "/>
<path style=" stroke:none;fill-rule:nonzero;fill:rgb(80.799866%,19.599915%,16.099548%);fill-opacity:1;" d="M 24.582031 2.28125 L 33.15625 12.570313 L 41.15625 12.570313 L 48.589844 2.28125 L 41.15625 -0.00390625 L 32.953125 -0.00390625 L 24.582031 2.28125 "/>
<path style=" stroke:none;fill-rule:nonzero;fill:rgb(60.798645%,10.598755%,12.199402%);fill-opacity:1;" d="M 154.203125 19.644531 L 158.609375 19.644531 C 160.789063 19.710938 162.40625 20.449219 163.46875 21.859375 C 164.527344 23.269531 165.21875 24.949219 165.539063 26.910156 C 165.863281 28.875 166 30.710938 165.96875 32.4375 C 165.996094 34.210938 165.839844 36.058594 165.46875 37.960938 C 165.101563 39.867188 164.359375 41.488281 163.253906 42.820313 C 162.148438 44.15625 160.507813 44.835938 158.324219 44.894531 L 154.203125 44.894531 Z M 99.492188 19.644531 L 101.5625 19.644531 C 104.148438 19.664063 106.007813 20.1875 107.183594 21.242188 C 108.359375 22.296875 108.941406 23.773438 108.925781 25.648438 C 108.921875 27.59375 108.414063 29.242188 107.375 30.601563 C 106.335938 31.960938 104.785156 32.664063 102.753906 32.722656 C 101.96875 32.691406 101.234375 32.582031 100.5625 32.363281 C 99.890625 32.148438 99.535156 32.015625 99.492188 31.984375 Z M 148.035156 14.261719 L 148.035156 50.277344 L 158.324219 50.277344 C 161.699219 50.21875 164.421875 49.335938 166.46875 47.609375 C 168.519531 45.882813 170.003906 43.65625 170.925781 40.941406 C 171.84375 38.222656 172.273438 35.347656 172.257813 32.316406 C 172.285156 29.324219 171.90625 26.480469 171.089844 23.742188 C 170.277344 21.007813 168.886719 18.761719 166.921875 17.003906 C 164.957031 15.242188 162.246094 14.324219 158.824219 14.261719 Z M 122.023438 14.261719 L 122.023438 50.277344 L 142.03125 50.277344 L 142.03125 44.609375 L 128.242188 44.609375 L 128.242188 34.316406 L 138.363281 34.316406 L 138.363281 28.722656 L 128.242188 28.722656 L 128.242188 19.8125 L 141.460938 19.8125 L 141.460938 14.261719 Z M 93.273438 14.261719 L 93.273438 50.277344 L 99.492188 50.277344 L 99.492188 37.414063 L 111.210938 50.277344 L 116.808594 50.277344 L 116.808594 47.753906 L 106.589844 37.128906 C 109.253906 36.792969 111.351563 35.5 112.902344 33.269531 C 114.449219 31.039063 115.25 28.519531 115.28125 25.695313 C 115.332031 22.417969 114.277344 19.707031 112.140625 17.574219 C 110.003906 15.441406 106.488281 14.339844 101.5625 14.261719 L 93.273438 14.261719 "/>
<path style=" stroke:none;fill-rule:nonzero;fill:rgb(80.799866%,19.599915%,16.099548%);fill-opacity:1;" d="M 266.9375 14.261719 L 266.9375 50.277344 L 286.945313 50.277344 L 286.945313 44.609375 L 273.15625 44.609375 L 273.15625 34.316406 L 283.277344 34.316406 L 283.277344 28.722656 L 273.15625 28.722656 L 273.15625 19.8125 L 286.375 19.8125 L 286.375 14.261719 Z M 235.378906 14.261719 L 235.378906 50.277344 L 241.617188 50.277344 L 241.617188 29.816406 C 241.601563 28.570313 241.519531 27.464844 241.402344 26.53125 C 241.285156 25.597656 241.230469 25.125 241.214844 25.078125 L 252.574219 50.277344 L 258.578125 50.277344 L 258.578125 14.261719 L 252.359375 14.261719 C 252.359375 19.941406 252.359375 24.1875 252.359375 27.007813 C 252.359375 29.824219 252.359375 31.792969 252.359375 32.890625 C 252.359375 33.984375 252.359375 34.785156 252.359375 35.292969 C 252.359375 35.804688 252.359375 36.589844 252.359375 37.652344 C 252.347656 37.566406 252.171875 36.949219 251.859375 35.820313 C 251.546875 34.6875 251.164063 33.554688 250.691406 32.4375 L 242.691406 14.261719 Z M 221.253906 14.261719 L 221.253906 50.277344 L 227.421875 50.277344 L 227.421875 14.261719 Z M 179.640625 14.261719 L 179.640625 50.277344 L 185.882813 50.277344 L 185.882813 30.4375 L 185.40625 26.265625 L 193.765625 50.277344 L 198.910156 50.277344 L 207.246094 26.265625 L 206.796875 30.4375 L 206.796875 50.277344 L 213.035156 50.277344 L 213.035156 14.261719 L 205.699219 14.261719 L 197.125 38.675781 C 196.839844 39.535156 196.65625 40.269531 196.527344 40.890625 C 196.402344 41.515625 196.335938 41.839844 196.339844 41.867188 C 196.339844 41.84375 196.273438 41.527344 196.148438 40.917969 C 196.023438 40.304688 195.8125 39.5625 195.527344 38.675781 L 186.953125 14.261719 L 179.640625 14.261719 "/>
<g clip-path="url(#clip1)" clip-rule="nonzero">
<path style=" stroke:none;fill-rule:nonzero;fill:rgb(38.798523%,39.199829%,39.199829%);fill-opacity:1;" d="M 298.832031 76.738281 L 300.214844 76.738281 C 300.570313 76.722656 300.949219 76.765625 301.355469 76.859375 C 301.761719 76.953125 301.988281 77.210938 302.023438 77.644531 C 301.992188 78.386719 301.703125 78.957031 301.140625 79.359375 C 300.582031 79.761719 299.933594 79.972656 299.210938 79.980469 C 298.753906 79.992188 298.351563 79.894531 297.996094 79.667969 C 297.640625 79.445313 297.445313 79.027344 297.425781 78.429688 C 297.484375 77.933594 297.730469 77.527344 298.140625 77.214844 C 298.550781 76.90625 298.773438 76.75 298.832031 76.738281 Z M 289.851563 71.640625 L 289.851563 72.070313 C 289.84375 72.835938 289.632813 73.566406 289.207031 74.261719 C 288.785156 74.960938 288.191406 75.332031 287.421875 75.382813 C 287.0625 75.367188 286.796875 75.234375 286.613281 74.976563 C 286.425781 74.71875 286.328125 74.417969 286.324219 74.070313 C 286.328125 73.902344 286.359375 73.730469 286.398438 73.546875 C 286.433594 73.367188 286.46875 73.191406 286.515625 73.023438 Z M 266.390625 71.640625 L 266.390625 72.070313 C 266.382813 72.835938 266.171875 73.566406 265.746094 74.261719 C 265.324219 74.960938 264.730469 75.332031 263.960938 75.382813 C 263.601563 75.367188 263.335938 75.234375 263.152344 74.976563 C 262.964844 74.71875 262.867188 74.417969 262.863281 74.070313 C 262.867188 73.902344 262.898438 73.730469 262.9375 73.546875 C 262.972656 73.367188 263.007813 73.191406 263.054688 73.023438 Z M 175.28125 67.285156 C 176.136719 67.351563 176.695313 67.796875 176.949219 68.617188 C 177.203125 69.4375 177.308594 70.214844 177.285156 70.953125 C 177.292969 71.402344 177.25 71.972656 177.164063 72.644531 C 177.078125 73.3125 176.902344 73.902344 176.617188 74.429688 C 176.328125 74.957031 175.878906 75.234375 175.28125 75.261719 C 174.308594 75.195313 173.683594 74.738281 173.378906 73.882813 C 173.070313 73.027344 172.921875 72.1875 172.949219 71.378906 L 172.949219 68.472656 C 173.226563 68.195313 173.554688 67.9375 173.949219 67.6875 C 174.34375 67.4375 174.792969 67.300781 175.28125 67.285156 Z M 139.101563 67.285156 C 139.9375 67.347656 140.484375 67.765625 140.746094 68.546875 C 141.007813 69.324219 141.128906 70.078125 141.101563 70.785156 C 141.109375 71.292969 141.054688 71.90625 140.9375 72.617188 C 140.820313 73.332031 140.601563 73.949219 140.269531 74.5 C 139.9375 75.054688 139.453125 75.351563 138.816406 75.382813 C 138.511719 75.375 138.199219 75.316406 137.863281 75.191406 C 137.527344 75.066406 137.21875 74.910156 136.957031 74.738281 L 136.957031 68.472656 C 137.214844 68.226563 137.546875 67.976563 137.960938 67.710938 C 138.371094 67.449219 138.75 67.304688 139.101563 67.285156 Z M 194.289063 67.1875 C 195 67.226563 195.5625 67.640625 195.957031 68.425781 C 196.355469 69.214844 196.546875 70.152344 196.554688 71.238281 C 196.546875 72.332031 196.355469 73.265625 195.957031 74.046875 C 195.5625 74.832031 195 75.25 194.289063 75.285156 C 193.582031 75.25 193.019531 74.832031 192.621094 74.046875 C 192.226563 73.265625 192.035156 72.332031 192.027344 71.238281 C 192.035156 70.152344 192.226563 69.214844 192.621094 68.425781 C 193.019531 67.640625 193.582031 67.226563 194.289063 67.1875 Z M 340.539063 66.902344 C 341.144531 66.921875 341.601563 67.132813 341.921875 67.546875 C 342.238281 67.957031 342.421875 68.453125 342.46875 69.023438 L 338.488281 69.023438 C 338.613281 68.464844 338.835938 67.988281 339.15625 67.570313 C 339.476563 67.152344 339.9375 66.925781 340.539063 66.902344 Z M 310.953125 66.902344 C 311.5625 66.921875 312.019531 67.132813 312.335938 67.546875 C 312.652344 67.957031 312.839844 68.453125 312.882813 69.023438 L 308.90625 69.023438 C 309.03125 68.464844 309.253906 67.988281 309.574219 67.570313 C 309.894531 67.152344 310.355469 66.925781 310.953125 66.902344 Z M 211.726563 66.902344 C 212.332031 66.921875 212.789063 67.132813 213.105469 67.546875 C 213.425781 67.957031 213.609375 68.453125 213.65625 69.023438 L 209.675781 69.023438 C 209.800781 68.464844 210.023438 67.988281 210.34375 67.570313 C 210.664063 67.152344 211.125 66.925781 211.726563 66.902344 Z M 156.179688 66.902344 C 156.785156 66.921875 157.246094 67.132813 157.5625 67.546875 C 157.878906 67.957031 158.0625 68.453125 158.109375 69.023438 L 154.132813 69.023438 C 154.257813 68.464844 154.476563 67.988281 154.800781 67.570313 C 155.117188 67.152344 155.578125 66.925781 156.179688 66.902344 Z M 111.589844 66.902344 C 112.195313 66.921875 112.65625 67.132813 112.972656 67.546875 C 113.289063 67.957031 113.472656 68.453125 113.519531 69.023438 L 109.542969 69.023438 C 109.667969 68.464844 109.890625 67.988281 110.210938 67.570313 C 110.53125 67.152344 110.992188 66.925781 111.589844 66.902344 Z M 299.449219 66.855469 C 300.070313 66.882813 300.492188 67.148438 300.738281 67.617188 C 300.980469 68.085938 301.105469 68.585938 301.09375 69.140625 C 301.105469 69.679688 300.992188 70.179688 300.761719 70.617188 C 300.527344 71.058594 300.105469 71.28125 299.496094 71.308594 C 298.8125 71.285156 298.363281 71.050781 298.140625 70.59375 C 297.917969 70.136719 297.8125 69.59375 297.832031 68.976563 C 297.820313 68.429688 297.949219 67.945313 298.1875 67.523438 C 298.429688 67.101563 298.839844 66.878906 299.449219 66.855469 Z M 201.722656 65.402344 L 201.722656 77.929688 C 201.703125 78.433594 201.535156 78.859375 201.199219 79.191406 C 200.859375 79.527344 200.464844 79.761719 200.03125 79.90625 L 200.554688 81.695313 C 201.332031 81.492188 202.125 81.132813 202.914063 80.597656 C 203.699219 80.066406 204.113281 79.21875 204.175781 78.074219 L 204.175781 65.402344 Z M 128.550781 65.402344 L 128.550781 77.074219 L 131.003906 77.074219 L 131.003906 65.402344 Z M 117.308594 65.402344 L 120.476563 71.046875 L 117.09375 77.074219 L 119.832031 77.074219 L 121.855469 73.121094 L 123.953125 77.074219 L 126.8125 77.074219 L 123.238281 70.902344 C 123.390625 70.648438 123.714844 70.085938 124.214844 69.214844 C 124.71875 68.339844 125.207031 67.492188 125.667969 66.6875 C 126.128906 65.882813 126.375 65.457031 126.40625 65.402344 L 123.667969 65.402344 L 121.882813 68.902344 L 120.117188 65.402344 Z M 353.28125 65.042969 C 352.75 65.054688 352.179688 65.1875 351.589844 65.425781 C 351 65.664063 350.503906 65.9375 350.089844 66.257813 L 350.089844 65.402344 L 347.589844 65.402344 L 347.589844 77.074219 L 350.089844 77.074219 L 350.089844 68.449219 C 350.394531 68.199219 350.832031 67.941406 351.375 67.664063 C 351.917969 67.386719 352.449219 67.234375 352.996094 67.210938 C 353.378906 67.207031 353.632813 67.304688 353.757813 67.496094 C 353.882813 67.691406 353.933594 68.003906 353.925781 68.449219 L 353.925781 77.074219 L 356.425781 77.074219 L 356.425781 68.449219 C 356.460938 67.527344 356.269531 66.726563 355.855469 66.070313 C 355.4375 65.410156 354.578125 65.074219 353.28125 65.042969 Z M 340.703125 65.042969 C 339.085938 65.105469 337.824219 65.734375 336.941406 66.902344 C 336.058594 68.070313 335.617188 69.414063 335.609375 70.953125 C 335.601563 71.960938 335.742188 72.96875 336.035156 73.953125 C 336.328125 74.9375 336.804688 75.75 337.488281 76.40625 C 338.171875 77.0625 339.109375 77.40625 340.277344 77.429688 C 340.964844 77.410156 341.691406 77.21875 342.445313 76.859375 C 343.195313 76.5 343.835938 76.09375 344.371094 75.644531 L 343.539063 74.023438 C 343.117188 74.347656 342.632813 74.648438 342.0625 74.90625 C 341.492188 75.164063 340.9375 75.296875 340.417969 75.308594 C 339.574219 75.234375 338.976563 74.785156 338.632813 73.929688 C 338.285156 73.074219 338.121094 72.265625 338.132813 71.523438 C 338.128906 71.378906 338.136719 71.238281 338.15625 71.09375 L 344.96875 71.09375 C 344.96875 70.832031 344.976563 70.570313 344.96875 70.308594 C 344.960938 70.046875 344.945313 69.785156 344.945313 69.523438 C 344.882813 68.367188 344.449219 67.339844 343.65625 66.449219 C 342.867188 65.558594 341.886719 65.09375 340.703125 65.042969 Z M 323.460938 65.042969 C 322.949219 65.070313 322.40625 65.226563 321.816406 65.496094 C 321.226563 65.769531 320.789063 66.007813 320.53125 66.234375 L 320.53125 65.402344 L 318.027344 65.402344 L 318.027344 77.074219 L 320.53125 77.074219 L 320.53125 68.5 C 320.765625 68.300781 321.15625 68.046875 321.722656 67.734375 C 322.285156 67.421875 322.820313 67.246094 323.316406 67.210938 C 323.714844 67.21875 323.980469 67.371094 324.128906 67.640625 C 324.273438 67.910156 324.347656 68.253906 324.339844 68.6875 L 324.339844 77.074219 L 326.84375 77.074219 L 326.84375 68.285156 C 327.109375 68.074219 327.457031 67.859375 327.890625 67.617188 C 328.320313 67.375 328.800781 67.234375 329.320313 67.210938 C 329.714844 67.207031 329.980469 67.300781 330.128906 67.472656 C 330.277344 67.648438 330.351563 67.933594 330.34375 68.355469 L 330.34375 77.074219 L 332.84375 77.074219 L 332.84375 68.355469 C 332.867188 67.414063 332.644531 66.644531 332.152344 66.019531 C 331.664063 65.398438 330.761719 65.066406 329.460938 65.042969 C 328.863281 65.074219 328.269531 65.25 327.675781 65.570313 C 327.082031 65.886719 326.585938 66.171875 326.199219 66.425781 C 325.949219 66.085938 325.605469 65.78125 325.152344 65.496094 C 324.695313 65.214844 324.125 65.0625 323.460938 65.042969 Z M 311.121094 65.042969 C 309.503906 65.105469 308.242188 65.734375 307.359375 66.902344 C 306.476563 68.070313 306.035156 69.414063 306.023438 70.953125 C 306.015625 71.960938 306.160156 72.96875 306.453125 73.953125 C 306.746094 74.9375 307.222656 75.75 307.90625 76.40625 C 308.589844 77.0625 309.527344 77.40625 310.691406 77.429688 C 311.382813 77.410156 312.109375 77.21875 312.859375 76.859375 C 313.613281 76.5 314.253906 76.09375 314.789063 75.644531 L 313.957031 74.023438 C 313.535156 74.347656 313.050781 74.648438 312.480469 74.90625 C 311.910156 75.164063 311.351563 75.296875 310.835938 75.308594 C 309.988281 75.234375 309.394531 74.785156 309.050781 73.929688 C 308.703125 73.074219 308.535156 72.265625 308.550781 71.523438 C 308.546875 71.378906 308.554688 71.238281 308.574219 71.09375 L 315.386719 71.09375 C 315.386719 70.832031 315.390625 70.570313 315.386719 70.308594 C 315.378906 70.046875 315.363281 69.785156 315.363281 69.523438 C 315.296875 68.367188 314.863281 67.339844 314.074219 66.449219 C 313.285156 65.558594 312.304688 65.09375 311.121094 65.042969 Z M 299.59375 65.042969 C 298.3125 65.058594 297.300781 65.441406 296.546875 66.1875 C 295.789063 66.933594 295.394531 67.945313 295.378906 69.238281 C 295.375 69.929688 295.527344 70.605469 295.855469 71.261719 C 296.179688 71.917969 296.691406 72.402344 297.378906 72.714844 C 296.945313 72.871094 296.566406 73.105469 296.234375 73.429688 C 295.90625 73.753906 295.726563 74.152344 295.710938 74.621094 C 295.726563 75.039063 295.863281 75.414063 296.140625 75.738281 C 296.414063 76.0625 296.746094 76.25 297.117188 76.3125 C 296.640625 76.503906 296.171875 76.820313 295.710938 77.238281 C 295.25 77.660156 295.007813 78.164063 294.972656 78.765625 C 295.023438 79.878906 295.484375 80.664063 296.328125 81.121094 C 297.175781 81.582031 298.101563 81.804688 299.117188 81.789063 C 300.441406 81.785156 301.636719 81.40625 302.714844 80.667969 C 303.789063 79.933594 304.363281 78.863281 304.429688 77.453125 C 304.402344 76.59375 304.101563 75.949219 303.523438 75.5 C 302.945313 75.050781 302.25 74.8125 301.425781 74.808594 L 300.664063 74.808594 C 300.324219 74.832031 299.84375 74.84375 299.234375 74.835938 C 298.628906 74.824219 298.304688 74.65625 298.234375 74.359375 C 298.273438 73.976563 298.460938 73.71875 298.808594 73.570313 C 299.152344 73.425781 299.4375 73.324219 299.664063 73.285156 C 299.808594 73.25 299.9375 73.234375 300.070313 73.214844 C 300.203125 73.195313 300.34375 73.164063 300.476563 73.144531 C 301.445313 72.898438 302.191406 72.449219 302.714844 71.785156 C 303.234375 71.121094 303.492188 70.292969 303.5 69.308594 C 303.496094 69.007813 303.46875 68.703125 303.402344 68.402344 C 303.339844 68.101563 303.253906 67.820313 303.164063 67.546875 L 304.523438 67.546875 L 304.523438 65.402344 L 301.546875 65.402344 C 301.246094 65.273438 300.925781 65.171875 300.59375 65.117188 C 300.261719 65.0625 299.929688 65.042969 299.59375 65.042969 Z M 288.636719 65.042969 C 287.867188 65.058594 287.109375 65.273438 286.375 65.664063 C 285.640625 66.054688 285.035156 66.53125 284.539063 67.117188 L 285.398438 68.617188 C 285.78125 68.246094 286.253906 67.921875 286.804688 67.640625 C 287.351563 67.359375 287.882813 67.203125 288.421875 67.1875 C 288.835938 67.179688 289.171875 67.253906 289.421875 67.425781 C 289.675781 67.597656 289.796875 67.910156 289.804688 68.355469 L 289.804688 69.523438 L 284.683594 71.738281 C 284.507813 72.070313 284.351563 72.453125 284.207031 72.882813 C 284.0625 73.308594 283.976563 73.714844 283.96875 74.097656 C 283.96875 75.140625 284.226563 75.964844 284.753906 76.550781 C 285.28125 77.132813 286.078125 77.421875 287.136719 77.429688 C 287.808594 77.425781 288.378906 77.273438 288.851563 76.976563 C 289.324219 76.683594 289.738281 76.265625 290.089844 75.714844 C 290.195313 76.246094 290.433594 76.65625 290.804688 76.953125 C 291.175781 77.25 291.628906 77.402344 292.160156 77.40625 C 292.460938 77.40625 292.753906 77.351563 293.042969 77.261719 C 293.332031 77.175781 293.601563 77.0625 293.851563 76.90625 L 293.210938 75.644531 C 293.136719 75.679688 293.066406 75.710938 292.996094 75.738281 C 292.925781 75.765625 292.851563 75.785156 292.78125 75.785156 C 292.605469 75.777344 292.488281 75.722656 292.425781 75.597656 C 292.359375 75.46875 292.324219 75.320313 292.328125 75.167969 L 292.328125 68.378906 C 292.308594 67.238281 291.957031 66.398438 291.28125 65.855469 C 290.605469 65.3125 289.726563 65.039063 288.636719 65.042969 Z M 278.179688 65.042969 C 277.648438 65.054688 277.082031 65.1875 276.488281 65.425781 C 275.898438 65.664063 275.402344 65.9375 274.988281 66.257813 L 274.988281 65.402344 L 272.488281 65.402344 L 272.488281 77.074219 L 274.988281 77.074219 L 274.988281 68.449219 C 275.292969 68.199219 275.730469 67.941406 276.273438 67.664063 C 276.820313 67.386719 277.351563 67.234375 277.894531 67.210938 C 278.277344 67.207031 278.53125 67.304688 278.65625 67.496094 C 278.78125 67.691406 278.835938 68.003906 278.824219 68.449219 L 278.824219 77.074219 L 281.324219 77.074219 L 281.324219 68.449219 C 281.359375 67.527344 281.171875 66.726563 280.753906 66.070313 C 280.335938 65.410156 279.476563 65.074219 278.179688 65.042969 Z M 265.175781 65.042969 C 264.40625 65.058594 263.648438 65.273438 262.910156 65.664063 C 262.179688 66.054688 261.570313 66.53125 261.078125 67.117188 L 261.9375 68.617188 C 262.320313 68.246094 262.792969 67.921875 263.339844 67.640625 C 263.886719 67.359375 264.421875 67.203125 264.960938 67.1875 C 265.371094 67.179688 265.710938 67.253906 265.960938 67.425781 C 266.210938 67.597656 266.335938 67.910156 266.34375 68.355469 L 266.34375 69.523438 L 261.222656 71.738281 C 261.046875 72.070313 260.890625 72.453125 260.746094 72.882813 C 260.597656 73.308594 260.515625 73.714844 260.507813 74.097656 C 260.507813 75.140625 260.765625 75.964844 261.292969 76.550781 C 261.820313 77.132813 262.613281 77.421875 263.675781 77.429688 C 264.347656 77.425781 264.917969 77.273438 265.390625 76.976563 C 265.863281 76.683594 266.277344 76.265625 266.628906 75.714844 C 266.730469 76.246094 266.972656 76.65625 267.34375 76.953125 C 267.714844 77.25 268.167969 77.402344 268.699219 77.40625 C 269 77.40625 269.292969 77.351563 269.582031 77.261719 C 269.871094 77.175781 270.140625 77.0625 270.390625 76.90625 L 269.746094 75.644531 C 269.675781 75.679688 269.605469 75.710938 269.535156 75.738281 C 269.464844 75.765625 269.390625 75.785156 269.320313 75.785156 C 269.144531 75.777344 269.027344 75.722656 268.960938 75.597656 C 268.898438 75.46875 268.863281 75.320313 268.867188 75.167969 L 268.867188 68.378906 C 268.847656 67.238281 268.492188 66.398438 267.820313 65.855469 C 267.144531 65.3125 266.265625 65.039063 265.175781 65.042969 Z M 248.476563 65.042969 C 247.96875 65.070313 247.425781 65.226563 246.835938 65.496094 C 246.242188 65.769531 245.808594 66.007813 245.546875 66.234375 L 245.546875 65.402344 L 243.046875 65.402344 L 243.046875 77.074219 L 245.546875 77.074219 L 245.546875 68.5 C 245.785156 68.300781 246.175781 68.046875 246.738281 67.734375 C 247.300781 67.421875 247.839844 67.246094 248.335938 67.210938 C 248.730469 67.21875 248.996094 67.371094 249.144531 67.640625 C 249.292969 67.910156 249.367188 68.253906 249.359375 68.6875 L 249.359375 77.074219 L 251.859375 77.074219 L 251.859375 68.285156 C 252.128906 68.074219 252.476563 67.859375 252.910156 67.617188 C 253.339844 67.375 253.820313 67.234375 254.339844 67.210938 C 254.734375 67.207031 255 67.300781 255.148438 67.472656 C 255.292969 67.648438 255.371094 67.933594 255.363281 68.355469 L 255.363281 77.074219 L 257.863281 77.074219 L 257.863281 68.355469 C 257.886719 67.414063 257.664063 66.644531 257.171875 66.019531 C 256.679688 65.398438 255.777344 65.066406 254.480469 65.042969 C 253.878906 65.074219 253.289063 65.25 252.695313 65.570313 C 252.101563 65.886719 251.601563 66.171875 251.21875 66.425781 C 250.96875 66.085938 250.625 65.78125 250.167969 65.496094 C 249.714844 65.214844 249.144531 65.0625 248.476563 65.042969 Z M 222.800781 65.042969 C 221.691406 65.070313 220.773438 65.40625 220.0625 66.046875 C 219.351563 66.683594 218.828125 67.492188 218.488281 68.449219 C 218.148438 69.410156 217.988281 70.371094 217.988281 71.355469 C 217.988281 72.308594 218.167969 73.242188 218.515625 74.167969 C 218.859375 75.089844 219.386719 75.863281 220.085938 76.476563 C 220.789063 77.089844 221.667969 77.40625 222.730469 77.429688 C 223.390625 77.417969 224.054688 77.253906 224.730469 76.953125 C 225.410156 76.652344 226 76.285156 226.492188 75.835938 L 225.636719 74.121094 C 225.273438 74.410156 224.855469 74.683594 224.351563 74.929688 C 223.847656 75.175781 223.351563 75.296875 222.898438 75.308594 C 222.289063 75.285156 221.820313 75.039063 221.46875 74.546875 C 221.113281 74.058594 220.855469 73.480469 220.703125 72.832031 C 220.558594 72.1875 220.488281 71.613281 220.492188 71.117188 C 220.488281 70.648438 220.570313 70.113281 220.730469 69.5 C 220.886719 68.886719 221.148438 68.34375 221.492188 67.878906 C 221.835938 67.414063 222.273438 67.164063 222.824219 67.140625 C 223.191406 67.144531 223.578125 67.230469 223.96875 67.378906 C 224.355469 67.527344 224.683594 67.707031 224.96875 67.949219 L 226.230469 66.472656 C 225.828125 65.996094 225.296875 65.640625 224.660156 65.402344 C 224.019531 65.164063 223.40625 65.042969 222.800781 65.042969 Z M 211.890625 65.042969 C 210.273438 65.105469 209.011719 65.734375 208.128906 66.902344 C 207.246094 68.070313 206.808594 69.414063 206.796875 70.953125 C 206.789063 71.960938 206.933594 72.96875 207.222656 73.953125 C 207.515625 74.9375 207.992188 75.75 208.675781 76.40625 C 209.359375 77.0625 210.296875 77.40625 211.464844 77.429688 C 212.152344 77.410156 212.878906 77.21875 213.632813 76.859375 C 214.382813 76.5 215.023438 76.09375 215.5625 75.644531 L 214.726563 74.023438 C 214.304688 74.347656 213.820313 74.648438 213.25 74.90625 C 212.679688 75.164063 212.125 75.296875 211.605469 75.308594 C 210.761719 75.234375 210.164063 74.785156 209.820313 73.929688 C 209.476563 73.074219 209.308594 72.265625 209.320313 71.523438 C 209.316406 71.378906 209.324219 71.238281 209.34375 71.09375 L 216.15625 71.09375 C 216.15625 70.832031 216.164063 70.570313 216.15625 70.308594 C 216.148438 70.046875 216.132813 69.785156 216.132813 69.523438 C 216.070313 68.367188 215.636719 67.339844 214.847656 66.449219 C 214.054688 65.558594 213.074219 65.09375 211.890625 65.042969 Z M 194.289063 65.042969 C 192.683594 65.121094 191.480469 65.785156 190.695313 67.046875 C 189.90625 68.308594 189.523438 69.707031 189.527344 71.238281 C 189.523438 72.777344 189.90625 74.171875 190.695313 75.429688 C 191.480469 76.6875 192.683594 77.355469 194.289063 77.429688 C 195.894531 77.355469 197.101563 76.6875 197.886719 75.429688 C 198.671875 74.171875 199.058594 72.777344 199.054688 71.238281 C 199.054688 69.707031 198.671875 68.308594 197.886719 67.046875 C 197.101563 65.785156 195.894531 65.121094 194.289063 65.042969 Z M 186.953125 65.042969 C 186.546875 65.09375 186.148438 65.308594 185.761719 65.664063 C 185.378906 66.019531 185.171875 66.207031 185.144531 66.257813 L 185.144531 65.402344 L 182.617188 65.402344 L 182.617188 77.074219 L 185.121094 77.074219 L 185.121094 68.378906 C 185.144531 68.335938 185.324219 68.160156 185.644531 67.855469 C 185.964844 67.550781 186.285156 67.375 186.621094 67.332031 C 186.925781 67.347656 187.21875 67.421875 187.503906 67.546875 C 187.785156 67.671875 187.933594 67.742188 187.953125 67.761719 L 188.359375 65.402344 C 188.355469 65.386719 188.242188 65.339844 188.003906 65.234375 C 187.761719 65.132813 187.410156 65.058594 186.953125 65.042969 Z M 175.519531 65.042969 C 174.847656 65.078125 174.28125 65.242188 173.828125 65.542969 C 173.378906 65.84375 173.085938 66.082031 172.949219 66.257813 L 172.949219 65.402344 L 170.425781 65.402344 L 170.425781 81.242188 L 172.949219 81.242188 L 172.949219 76.238281 C 173.1875 76.652344 173.53125 76.953125 173.972656 77.144531 C 174.414063 77.335938 174.878906 77.433594 175.378906 77.429688 C 176.574219 77.398438 177.488281 77.042969 178.140625 76.335938 C 178.792969 75.628906 179.25 74.738281 179.5 73.714844 C 179.746094 72.691406 179.867188 71.695313 179.855469 70.714844 C 179.859375 69.339844 179.515625 68.070313 178.808594 66.902344 C 178.101563 65.734375 177.003906 65.117188 175.519531 65.042969 Z M 156.347656 65.042969 C 154.726563 65.105469 153.46875 65.734375 152.585938 66.902344 C 151.699219 68.070313 151.261719 69.414063 151.25 70.953125 C 151.242188 71.960938 151.386719 72.96875 151.679688 73.953125 C 151.972656 74.9375 152.445313 75.75 153.132813 76.40625 C 153.816406 77.0625 154.75 77.40625 155.917969 77.429688 C 156.609375 77.410156 157.332031 77.21875 158.085938 76.859375 C 158.839844 76.5 159.480469 76.09375 160.015625 75.644531 L 159.179688 74.023438 C 158.761719 74.347656 158.273438 74.648438 157.703125 74.90625 C 157.132813 75.164063 156.578125 75.296875 156.0625 75.308594 C 155.214844 75.234375 154.621094 74.785156 154.273438 73.929688 C 153.929688 73.074219 153.761719 72.265625 153.773438 71.523438 C 153.769531 71.378906 153.777344 71.238281 153.796875 71.09375 L 160.609375 71.09375 C 160.609375 70.832031 160.617188 70.570313 160.609375 70.308594 C 160.605469 70.046875 160.589844 69.785156 160.585938 69.523438 C 160.523438 68.367188 160.089844 67.339844 159.300781 66.449219 C 158.511719 65.558594 157.53125 65.09375 156.347656 65.042969 Z M 111.757813 65.042969 C 110.140625 65.105469 108.878906 65.734375 107.996094 66.902344 C 107.109375 68.070313 106.671875 69.414063 106.660156 70.953125 C 106.652344 71.960938 106.796875 72.96875 107.089844 73.953125 C 107.382813 74.9375 107.859375 75.75 108.542969 76.40625 C 109.226563 77.0625 110.160156 77.40625 111.328125 77.429688 C 112.019531 77.410156 112.742188 77.21875 113.496094 76.859375 C 114.25 76.5 114.890625 76.09375 115.425781 75.644531 L 114.59375 74.023438 C 114.171875 74.347656 113.6875 74.648438 113.117188 74.90625 C 112.546875 75.164063 111.988281 75.296875 111.472656 75.308594 C 110.628906 75.234375 110.03125 74.785156 109.6875 73.929688 C 109.339844 73.074219 109.175781 72.265625 109.1875 71.523438 C 109.183594 71.378906 109.1875 71.238281 109.210938 71.09375 L 116.023438 71.09375 C 116.019531 70.832031 116.027344 70.570313 116.023438 70.308594 C 116.015625 70.046875 116 69.785156 115.996094 69.523438 C 115.933594 68.367188 115.503906 67.339844 114.710938 66.449219 C 113.921875 65.558594 112.941406 65.09375 111.757813 65.042969 Z M 360.164063 63.304688 L 360.164063 65.402344 L 358.570313 65.402344 L 358.570313 67.1875 L 360.070313 67.449219 L 360.070313 74.5 C 360.058594 75.308594 360.25 75.988281 360.617188 76.550781 C 360.984375 77.109375 361.589844 77.40625 362.449219 77.429688 C 363.003906 77.433594 363.453125 77.378906 363.785156 77.261719 C 364.117188 77.148438 364.519531 76.964844 365 76.714844 L 364.40625 74.953125 C 364.386719 74.964844 364.257813 75.03125 364 75.121094 C 363.742188 75.210938 363.457031 75.25 363.164063 75.261719 C 362.890625 75.253906 362.730469 75.171875 362.664063 75 C 362.597656 74.828125 362.558594 74.628906 362.570313 74.429688 L 362.570313 67.523438 L 364.644531 67.523438 L 364.644531 65.402344 L 362.523438 65.402344 L 362.523438 63.304688 Z M 228.804688 63.304688 L 228.804688 65.402344 L 227.207031 65.402344 L 227.207031 67.1875 L 228.710938 67.449219 L 228.710938 74.5 C 228.699219 75.308594 228.886719 75.988281 229.257813 76.550781 C 229.625 77.109375 230.230469 77.40625 231.089844 77.429688 C 231.644531 77.433594 232.09375 77.378906 232.425781 77.261719 C 232.757813 77.148438 233.15625 76.964844 233.640625 76.714844 L 233.042969 74.953125 C 233.027344 74.964844 232.898438 75.03125 232.640625 75.121094 C 232.378906 75.210938 232.097656 75.25 231.804688 75.261719 C 231.53125 75.253906 231.371094 75.171875 231.304688 75 C 231.238281 74.828125 231.199219 74.628906 231.210938 74.429688 L 231.210938 67.523438 L 233.28125 67.523438 L 233.28125 65.402344 L 231.160156 65.402344 L 231.160156 63.304688 Z M 202.984375 60.875 C 202.527344 60.886719 202.144531 61.042969 201.816406 61.351563 C 201.488281 61.664063 201.308594 62.054688 201.292969 62.519531 C 201.304688 62.96875 201.464844 63.335938 201.769531 63.617188 C 202.074219 63.894531 202.445313 64.035156 202.890625 64.042969 C 203.34375 64.03125 203.726563 63.878906 204.054688 63.566406 C 204.382813 63.257813 204.566406 62.863281 204.578125 62.402344 C 204.566406 61.953125 204.40625 61.585938 204.105469 61.304688 C 203.800781 61.027344 203.425781 60.882813 202.984375 60.875 Z M 129.835938 60.875 C 129.378906 60.886719 128.996094 61.042969 128.667969 61.351563 C 128.339844 61.664063 128.160156 62.054688 128.144531 62.519531 C 128.15625 62.96875 128.316406 63.335938 128.621094 63.617188 C 128.925781 63.894531 129.300781 64.035156 129.742188 64.042969 C 130.195313 64.03125 130.578125 63.878906 130.90625 63.566406 C 131.234375 63.257813 131.417969 62.863281 131.433594 62.402344 C 131.421875 61.953125 131.261719 61.585938 130.957031 61.304688 C 130.652344 61.027344 130.277344 60.882813 129.835938 60.875 Z M 146.058594 60.519531 L 146.058594 72.191406 C 146.070313 73.550781 146.144531 74.621094 146.296875 75.40625 C 146.449219 76.191406 146.605469 76.75 146.746094 77.074219 L 149.320313 77.074219 C 149.058594 76.207031 148.863281 75.417969 148.726563 74.691406 C 148.585938 73.964844 148.511719 73.125 148.511719 72.191406 L 148.511719 60.519531 Z M 134.457031 60.519531 L 134.457031 75.882813 C 135.058594 76.34375 135.722656 76.71875 136.433594 77 C 137.148438 77.285156 137.882813 77.421875 138.648438 77.429688 C 139.910156 77.402344 140.917969 77.050781 141.652344 76.359375 C 142.382813 75.664063 142.890625 74.785156 143.199219 73.738281 C 143.507813 72.691406 143.660156 71.628906 143.652344 70.546875 C 143.65625 69.171875 143.308594 67.921875 142.601563 66.808594 C 141.898438 65.695313 140.800781 65.109375 139.316406 65.042969 C 138.90625 65.058594 138.472656 65.183594 138.03125 65.425781 C 137.589844 65.667969 137.238281 65.949219 136.957031 66.257813 L 136.957031 60.519531 Z M 101.46875 60.519531 L 101.46875 72.191406 C 101.480469 73.550781 101.554688 74.621094 101.707031 75.40625 C 101.859375 76.191406 102.015625 76.75 102.160156 77.074219 L 104.730469 77.074219 C 104.46875 76.207031 104.273438 75.417969 104.136719 74.691406 C 103.996094 73.964844 103.921875 73.125 103.921875 72.191406 L 103.921875 60.519531 Z M 99.46875 60.257813 C 99.414063 60.234375 99.035156 60.289063 98.324219 60.421875 C 97.613281 60.558594 96.890625 60.902344 96.179688 61.449219 C 95.46875 61.992188 95.09375 62.867188 95.035156 64.066406 L 95.035156 65.402344 L 93.511719 65.402344 L 93.511719 67.1875 L 95.035156 67.449219 L 95.035156 77.074219 L 97.539063 77.074219 L 97.539063 67.496094 L 99.707031 67.496094 L 99.707031 65.402344 L 97.539063 65.402344 L 97.539063 64.1875 C 97.566406 63.539063 97.777344 63.0625 98.15625 62.757813 C 98.535156 62.453125 98.898438 62.269531 99.277344 62.1875 C 99.65625 62.101563 99.867188 62.058594 99.894531 62.066406 L 99.46875 60.257813 "/>
</g>
</g>
</svg>
