<?xml version="1.0" encoding="utf-8"?>
<!-- Generator: Adobe Illustrator 24.1.1, SVG Export Plug-In . SVG Version: 6.00 Build 0)  -->
<svg version="1.1" id="Layer_1" xmlns="http://www.w3.org/2000/svg" xmlns:xlink="http://www.w3.org/1999/xlink" x="0px" y="0px"
	 viewBox="0 0 449.9 355.7" style="enable-background:new 0 0 449.9 355.7;" xml:space="preserve">
<style type="text/css">
	.st0{fill:#007AFB;}
</style>
<g>
	<path class="st0" d="M159.1,99.5c-4.3-4.3-11.4-4.3-16.1,0l-48.3,48.3l-20.4-20.4c-4.3-4.3-11.4-4.3-16.1,0
		c-4.3,4.3-4.3,11.4,0,16.1l27.9,27.9c2.4,2.4,5.2,3.3,8.1,3.3c2.8,0,5.7-0.9,8.1-3.3l56.4-56.4C163.9,110.8,163.9,103.7,159.1,99.5
		L159.1,99.5z"/>
	<path class="st0" d="M439.5,223.5c6.6-5.7,10.4-14.2,10.4-23.7c0-17.5-14.2-31.7-31.7-31.7c-5.2,0-18.9,0-33.2,0.5
		c-14.7,0-30.3,0.5-36.5,0.5c-1.4,0-2.4,0-2.8-0.5c-0.5-0.5-0.5-0.9-0.5-1.4c5.2-21.8,11.4-50.2,13.3-59.7
		c3.3-16.6-6.2-31.3-23.7-36c-17.5-5.2-34.6,2.4-40.7,16.6c-8.5,21.3-36.9,73.4-66.8,91.9c-0.5,0-0.5,0.5-0.9,0.5
		c-4.3-3.3-9.9-5.2-15.6-5.2h-0.9c4.7-12.3,8.1-25.6,8.1-39.8l0-70.1c0-5.7-4.3-10.4-9.9-11.4c-68.2-7.1-88.1-45.9-88.6-47.8
		c-1.9-3.8-5.7-6.2-9.9-6.2s-8.1,2.4-9.9,6.2C98.5,8.1,78.6,46.9,10.9,54C4.3,54.9,0,59.7,0,65.4v70.1c0,82.9,99.5,135,103.7,137.3
		c1.4,0.9,3.3,1.4,5.2,1.4s3.3-0.5,5.2-1.4c1.4-0.9,13.7-7.6,29.4-18.9v65.4c0,14.7,11.8,26.5,26.5,26.5h41.2
		c7.6,0,14.2-2.8,18.9-8.1c13.7,9.5,36.9,18,63,18h109.4c17.5,0,31.7-14.2,31.7-31.7c0-6.6-1.9-12.8-5.2-17.5
		c6.6-5.7,10.4-14.2,10.4-23.7c0-6.6-1.9-12.8-5.2-17.5c6.6-5.7,10.4-14.2,10.4-23.7C444.7,234.4,442.8,228.3,439.5,223.5
		L439.5,223.5z M108.9,249.6c-19.4-11.4-86.2-54.9-86.2-114.1V75.3c47.8-7.1,73.9-29.4,86.7-44c12.8,15.2,38.8,36.9,86.7,44l0,60.1
		c0,14.2-3.8,27.5-9.9,39.8H171c-14.7,0-26.5,11.8-26.5,26.5v23.7C129.8,236.8,116,245.3,108.9,249.6L108.9,249.6z M215.5,319.2
		c0,2.4-1.9,4.3-4.3,4.3H170c-2.4,0-4.3-1.9-4.3-4.3V201.3c0-2.4,1.9-4.3,4.3-4.3h41.2c2.4,0,4.3,1.9,4.3,4.3V319.2z M418.2,209.3
		h-13.3c-6.2,0-10.9,4.7-10.9,10.9s4.7,10.9,10.9,10.9h8.1c5.2,0,9.5,4.3,9.5,9.5c0,5.2-4.3,9.5-9.5,9.5h-12.8
		c-6.2,0-10.9,4.7-10.9,10.9c0,6.2,4.7,10.9,10.9,10.9h8.1c5.2,0,9.5,4.3,9.5,9.5c0,5.2-4.3,9.5-9.5,9.5h-12.8
		c-6.2,0-10.9,4.7-10.9,10.9c0,6.2,4.7,10.9,10.9,10.9h8.1c5.2,0,9.5,4.3,9.5,9.5c0,5.2-4.3,9.5-9.5,9.5l-110.3,0
		c-30.3,0-51.1-13.3-55.4-18V198.4c0-0.9,0.5-1.9,1.4-2.4c37.9-23.2,68.2-83.4,75.8-102.8c1.9-4.3,8.5-5.2,13.7-3.8
		c3.3,0.9,9.5,3.8,8.1,10.9c-1.4,7.1-6.2,27.9-12.8,58.7c-1.4,7.1,0,14.2,4.7,19.9c4.7,5.7,11.4,9,18.5,9c5.2,0,21.8,0,38.4-0.5
		c13.7,0,27.5-0.5,32.7-0.5c5.2,0,9.5,4.3,9.5,9.5C427.6,205.1,423.4,209.3,418.2,209.3L418.2,209.3z"/>
</g>
</svg>
