<svg width="475" height="474" viewBox="0 0 475 474" fill="none" xmlns="http://www.w3.org/2000/svg">
<g clip-path="url(#clip0_493_1084)">
<mask id="mask0_493_1084" style="mask-type:luminance" maskUnits="userSpaceOnUse" x="0" y="0" width="475" height="474">
<path d="M474.1 0H0.5V473.6H474.1V0Z" fill="white"/>
</mask>
<g mask="url(#mask0_493_1084)">
<path d="M237.3 0C106.7 0 0.5 106.2 0.5 236.8C0.5 367.4 106.7 473.6 237.3 473.6C367.9 473.6 474.1 367.4 474.1 236.8C474.1 106.2 367.9 0 237.3 0ZM237.3 444C123.1 444 30.1 351 30.1 236.8C30.1 122.6 123.1 29.6 237.3 29.6C351.5 29.6 444.5 122.6 444.5 236.8C444.5 351 351.5 444 237.3 444ZM339.2 232.5C343.8 256.9 339.6 282.2 327.1 303.7C313.2 327.8 290.8 344.9 264.1 352.1C255.1 354.5 246.1 355.7 237.1 355.7C219.2 355.7 201.4 351 185.4 341.7C135.9 313.1 118.8 249.5 147.4 200C170.2 160.5 215.2 141.7 257.7 150.1L252.1 139.7C248.2 132.5 250.9 123.5 258 119.6C265.2 115.7 274.2 118.4 278.1 125.5L301.1 168C303 171.4 303.4 175.5 302.3 179.3C301.2 183.1 298.6 186.2 295.2 188.1L252.7 211.1C250.5 212.3 248.1 212.9 245.7 212.9C240.4 212.9 235.3 210.1 232.7 205.1C228.8 197.9 231.5 188.9 238.6 185L250.3 178.6C220.4 173.3 189.1 186.7 173.1 214.5C152.7 249.9 164.9 295.3 200.3 315.8C217.4 325.7 237.4 328.3 256.5 323.2C275.6 318.1 291.6 305.8 301.5 288.6C310.4 273.2 313.4 255.1 310.1 237.7C308.5 229.7 313.8 221.9 321.8 220.4C330 219.2 337.6 224.5 339.2 232.5Z" fill="#0E53BE"/>
</g>
</g>
<defs>
<clipPath id="clip0_493_1084">
<rect width="473.6" height="473.6" fill="white" transform="translate(0.5)"/>
</clipPath>
</defs>
</svg>
