<?xml version="1.0" encoding="utf-8"?>
<!-- Generator: Adobe Illustrator 24.1.1, SVG Export Plug-In . SVG Version: 6.00 Build 0)  -->
<svg version="1.1" id="Layer_1" xmlns="http://www.w3.org/2000/svg" xmlns:xlink="http://www.w3.org/1999/xlink" x="0px" y="0px"
	 viewBox="0 0 473.6 473.6" style="enable-background:new 0 0 473.6 473.6;" xml:space="preserve">
<style type="text/css">
	.st0{clip-path:url(#SVGID_2_);}
	.st1{fill:#007AFB;}
</style>
<g>
	<defs>
		<rect id="SVGID_1_" x="0" y="0" width="473.6" height="473.6"/>
	</defs>
	<clipPath id="SVGID_2_">
		<use xlink:href="#SVGID_1_"  style="overflow:visible;"/>
	</clipPath>
	<g class="st0">
		<path class="st1" d="M236.8,0C106.2,0,0,106.2,0,236.8c0,130.6,106.2,236.8,236.8,236.8c130.6,0,236.8-106.2,236.8-236.8
			C473.6,106.2,367.4,0,236.8,0z M236.8,444c-114.2,0-207.2-93-207.2-207.2c0-114.2,93-207.2,207.2-207.2
			c114.2,0,207.2,93,207.2,207.2S351,444,236.8,444z M338.7,232.5c4.6,24.4,0.4,49.7-12.1,71.2c-13.9,24.1-36.3,41.2-63,48.4
			c-9,2.4-18,3.6-27,3.6c-17.9,0-35.7-4.7-51.7-14c-49.5-28.6-66.6-92.2-38-141.7c22.8-39.5,67.8-58.3,110.3-49.9l-5.6-10.4
			c-3.9-7.2-1.2-16.2,5.9-20.1c7.2-3.9,16.2-1.2,20.1,5.9l23,42.5c1.9,3.4,2.3,7.5,1.2,11.3c-1.1,3.8-3.7,6.9-7.1,8.8l-42.5,23
			c-2.2,1.2-4.6,1.8-7,1.8c-5.3,0-10.4-2.8-13-7.8c-3.9-7.2-1.2-16.2,5.9-20.1l11.7-6.4c-29.9-5.3-61.2,8.1-77.2,35.9
			c-20.4,35.4-8.2,80.8,27.2,101.3c17.1,9.9,37.1,12.5,56.2,7.4c19.1-5.1,35.1-17.4,45-34.6c8.9-15.4,11.9-33.5,8.6-50.9
			c-1.6-8,3.7-15.8,11.7-17.3C329.5,219.2,337.1,224.5,338.7,232.5L338.7,232.5z"/>
	</g>
</g>
</svg>
