<?xml version="1.0" encoding="utf-8"?>
<!-- Generator: Adobe Illustrator 24.1.1, SVG Export Plug-In . SVG Version: 6.00 Build 0)  -->
<svg version="1.1" id="Layer_1" xmlns="http://www.w3.org/2000/svg" xmlns:xlink="http://www.w3.org/1999/xlink" x="0px" y="0px"
	 viewBox="0 0 427.7 425.8" style="enable-background:new 0 0 427.7 425.8;" xml:space="preserve">
<style type="text/css">
	.st0{fill:#007AFB;}
</style>
<g>
	<path class="st0" d="M124.8,149.4l100.4,58v115.9c0,4.2,2.2,8.1,5.9,10.3c3.7,2.1,8.2,2.1,11.8,0l106.3-61.4
		c3.7-2.1,5.9-6,5.9-10.3V139.2c0-4.2-2.3-8.1-5.9-10.3L243,67.6c-3.7-2.1-8.2-2.1-11.8,0l-106.3,61.4c-3.7,2.1-5.9,6-5.9,10.3
		C118.9,143.4,121.2,147.3,124.8,149.4L124.8,149.4z M331.6,255.2l-82.7,47.7v-95.4l82.7-47.7V255.2z M237.1,91.5l82.7,47.7
		l-38.1,22l-44.6,25.7l-82.7-47.7L237.1,91.5z"/>
	<path class="st0" d="M76.2,158.6c-3.7,2.1-5.9,6-5.9,10.3v122.8c0,4.2,2.3,8.1,5.9,10.3l106.4,61.4c3.7,2.1,8.2,2.1,11.8,0
		c3.7-2.1,5.9-6,5.9-10.3v-64.5c0-0.2,0-0.3,0-0.5c0-0.8-0.2-1.6-0.3-2.4c-0.1-0.4-0.2-0.7-0.3-1.1v0c-0.1-0.4-0.3-0.8-0.4-1.1
		c-0.2-0.3-0.3-0.6-0.5-0.9c-0.2-0.3-0.4-0.7-0.7-1c-0.2-0.3-0.4-0.5-0.7-0.8l0,0c-0.3-0.3-0.6-0.6-0.9-0.9
		c-0.2-0.2-0.5-0.4-0.8-0.6c-0.4-0.3-0.8-0.6-1.2-0.8c-0.1-0.1-0.2-0.2-0.3-0.2l-52-28.6v-52.8c0-0.2,0-0.3,0-0.5
		c0-0.3-0.1-0.7-0.1-1c-0.1-0.4-0.1-0.9-0.2-1.3c-0.1-0.3-0.2-0.6-0.3-0.9v0c-0.1-0.4-0.3-0.9-0.5-1.3c-0.1-0.3-0.3-0.6-0.5-0.9
		c-0.2-0.4-0.4-0.7-0.7-1.1c-0.2-0.3-0.4-0.6-0.7-0.8c-0.3-0.3-0.5-0.6-0.8-0.9c-0.3-0.2-0.6-0.5-0.8-0.7v0c-0.3-0.3-0.7-0.5-1-0.7
		c-0.1-0.1-0.2-0.2-0.3-0.2l-48.2-27.8C84.4,156.5,79.9,156.5,76.2,158.6L76.2,158.6z M94,250l24.5,13.5v35.5L94,284.8V250z
		 M176.7,295.5v37l-34.5-19.9v-36.1L176.7,295.5z M118.5,203.5v32.9L94,222.9v-33.6L118.5,203.5z"/>
	<path class="st0" d="M212.8,0c-6.5,0-11.8,5.3-11.8,11.8c0,6.5,5.3,11.8,11.8,11.8c33.4-0.3,66.3,8.2,95.4,24.7
		c29.1,16.5,53.2,40.4,70,69.3c16.8,28.9,25.7,61.7,25.7,95.1c0,33.4-8.9,66.3-25.7,95.1c-16.8,28.9-41,52.8-70,69.3
		c-29.1,16.5-62,25-95.4,24.7c-1.6,0-3.2,0.3-4.6,0.9c-1.4-0.7-3-1.1-4.6-1.1c-14.9-0.7-29.6-3.2-43.8-7.3
		c-6.3-1.8-12.9,1.8-14.7,8.1c-1.8,6.3,1.8,12.9,8.1,14.7c16.1,4.7,32.6,7.4,49.3,8.2h0.6c1.6,0,3.2-0.3,4.6-0.9
		c1.6,0.8,3.3,1.2,5.1,1.2c37.6,0.4,74.6-9.3,107.3-27.8c32.7-18.6,59.8-45.5,78.7-78c18.9-32.5,28.9-69.4,28.9-107
		s-10-74.5-28.9-107c-18.9-32.5-46.1-59.4-78.7-78C287.4,9.3,250.4-0.3,212.8,0L212.8,0z"/>
	<path class="st0" d="M111.2,372.6c-12.5-8-24.1-17.4-34.4-28.1c-4.6-4.7-12-4.8-16.7-0.2c-4.7,4.5-4.8,12-0.3,16.7
		c11.6,12,24.6,22.6,38.7,31.6c5.5,3.5,12.8,1.9,16.3-3.6C118.4,383.4,116.8,376.1,111.2,372.6L111.2,372.6z"/>
	<path class="st0" d="M11.8,218.3c6.4,0,11.6-5.1,11.8-11.5c0.5-14.9,2.7-29.6,6.6-44c0.9-3,0.5-6.3-1.1-9c-1.6-2.7-4.1-4.8-7.2-5.6
		s-6.3-0.4-9,1.2c-2.7,1.6-4.7,4.2-5.5,7.2C3,172.8,0.5,189.4,0,206.1c-0.2,6.5,4.9,12,11.5,12.2L11.8,218.3z"/>
	<path class="st0" d="M79,62.4c-4.6-4.6-12.1-4.6-16.7,0c-11.8,11.8-22.2,25-31,39.2c-1.6,2.7-2.2,5.9-1.4,8.9
		c0.7,3.1,2.6,5.7,5.3,7.3c5.6,3.4,12.9,1.7,16.3-3.9c7.8-12.7,17-24.4,27.6-34.9C83.6,74.5,83.6,67,79,62.4L79,62.4z"/>
	<path class="st0" d="M29.5,259.8c-1.6-6.3-8.1-10.2-14.4-8.5c-6.3,1.6-10.2,8.1-8.5,14.4c4.1,16.2,10.2,31.9,18,46.7
		c1.5,2.8,4,4.9,7,5.8c3,0.9,6.3,0.6,9.1-0.8s4.9-4,5.8-7c0.9-3,0.6-6.3-0.9-9.1C38.5,288.2,33.1,274.2,29.5,259.8L29.5,259.8z"/>
</g>
</svg>
