<?xml version="1.0" encoding="utf-8"?>
<!-- Generator: Adobe Illustrator 24.1.1, SVG Export Plug-In . SVG Version: 6.00 Build 0)  -->
<svg version="1.1" id="Layer_1" xmlns="http://www.w3.org/2000/svg" xmlns:xlink="http://www.w3.org/1999/xlink" x="0px" y="0px"
	 viewBox="0 0 353.9 429.2" style="enable-background:new 0 0 353.9 429.2;" xml:space="preserve">
<style type="text/css">
	.st0{fill:#007AFB;}
</style>
<path class="st0" d="M7.4,0c-2,0-3.9,0.8-5.2,2.2S0,5.4,0,7.4v361.5c0,2,0.8,3.8,2.2,5.2s3.3,2.2,5.2,2.2h45.8v45.5
	c0,4.1,3.3,7.4,7.4,7.4h285.8c2,0,3.9-0.8,5.3-2.2c1.4-1.4,2.2-3.3,2.2-5.3V60.3c0-2-0.8-3.9-2.2-5.3c-1.4-1.4-3.3-2.2-5.3-2.2
	h-45.8V7.4c0-4.1-3.3-7.4-7.4-7.4L7.4,0z M14.8,14.8h271v346.6h-271L14.8,14.8z M51.9,61.1L51.9,61.1c-2,0-3.9,0.8-5.3,2.2
	c-1.4,1.4-2.2,3.3-2.2,5.3c0,2,0.8,3.8,2.2,5.2c1.4,1.4,3.3,2.2,5.2,2.1h196.8c4.1,0,7.4-3.3,7.4-7.4c0-2-0.8-3.8-2.1-5.2
	c-1.4-1.4-3.3-2.2-5.2-2.2L51.9,61.1z M300.6,67.7h38.5v346.7h-271v-38.1h225.2c4.1,0,7.4-3.3,7.4-7.4L300.6,67.7z M51.9,124.4
	L51.9,124.4c-2,0-3.9,0.8-5.3,2.2s-2.2,3.3-2.2,5.3c0,2,0.8,3.8,2.2,5.2c1.4,1.4,3.3,2.2,5.2,2.2h196.8c4.1,0,7.4-3.3,7.4-7.4
	c0-2-0.8-3.8-2.1-5.2c-1.4-1.4-3.3-2.2-5.2-2.2H51.9z M91.3,195.1c-4.1,0-7.4,3.3-7.4,7.4v44.2h-32c-2,0-3.9,0.8-5.3,2.2
	c-1.4,1.4-2.2,3.3-2.2,5.3v53.6c0,2,0.8,3.9,2.2,5.3c1.4,1.4,3.3,2.2,5.3,2.2h39.3h0.4H170c2,0,3.9-0.8,5.3-2.2
	c1.4-1.4,2.2-3.3,2.2-5.3v-79.4c0-2-0.8-3.8-2.2-5.2c-1.4-1.4-3.3-2.2-5.2-2.2h-32v-18.5c0-4.1-3.3-7.4-7.4-7.4L91.3,195.1z
	 M209,195.1c-4.1,0-7.4,3.3-7.4,7.4c0,2,0.8,3.8,2.1,5.2c1.4,1.4,3.3,2.2,5.2,2.2h39.7c2,0,3.8-0.8,5.2-2.2c1.4-1.4,2.2-3.3,2.1-5.2
	c0-4.1-3.3-7.4-7.4-7.4H209z M98.7,209.9h24.5v90.5H98.7v-46.3v-0.4V209.9z M138,235.8l24.6,0v64.6H138V235.8z M209,247.7
	c-2,0-3.8,0.8-5.2,2.2c-1.4,1.4-2.2,3.3-2.1,5.2c0,4.1,3.3,7.4,7.4,7.4h39.7c4.1,0,7.4-3.3,7.4-7.4c0-2-0.8-3.8-2.1-5.2
	c-1.4-1.4-3.3-2.2-5.2-2.2H209z M59.3,261.4h24.6v38.9H59.3V261.4z M209,300.3L209,300.3c-4.1,0-7.4,3.3-7.4,7.4
	c0,2,0.8,3.8,2.1,5.2c1.4,1.4,3.3,2.2,5.2,2.2h39.7c2,0,3.8-0.8,5.2-2.2c1.4-1.4,2.2-3.3,2.1-5.2c0-4.1-3.3-7.4-7.4-7.4H209z"/>
</svg>
