<svg width="45" height="45" viewBox="0 0 45 45" fill="none" xmlns="http://www.w3.org/2000/svg">
<path d="M16.8763 36.5625C16.8763 36.9354 16.7282 37.2931 16.4645 37.5568C16.2007 37.8205 15.8431 37.9687 15.4701 37.9687H7.03259C6.29226 37.9683 5.56509 37.773 4.92411 37.4025C4.28314 37.0321 3.75094 36.4995 3.38097 35.8582C3.011 35.217 2.81629 34.4896 2.81641 33.7493C2.81652 33.009 3.01145 32.2817 3.38161 31.6406L9.40915 21.2255L6.93942 21.8847C6.76052 21.9325 6.57396 21.9446 6.3904 21.9203C6.20683 21.8959 6.02985 21.8357 5.86956 21.743C5.54584 21.5558 5.30976 21.2476 5.21325 20.8863C5.11675 20.525 5.16773 20.1401 5.35497 19.8164C5.54221 19.4927 5.85038 19.2566 6.21169 19.1601L11.972 17.6185C12.1505 17.5707 12.3366 17.5585 12.5198 17.5826C12.7029 17.6067 12.8795 17.6667 13.0395 17.759C13.1995 17.8514 13.3397 17.9745 13.4521 18.121C13.5645 18.2676 13.647 18.435 13.6947 18.6134L15.2398 24.3738C15.2886 24.553 15.3014 24.7402 15.2775 24.9244C15.2535 25.1087 15.1933 25.2863 15.1003 25.4471C15.0073 25.608 14.8834 25.7488 14.7356 25.8614C14.5879 25.9741 14.4193 26.0563 14.2396 26.1035C14.1202 26.1346 13.9974 26.1505 13.874 26.1509C13.5646 26.1506 13.264 26.0483 13.0187 25.8599C12.7734 25.6714 12.597 25.4074 12.517 25.1085L11.849 22.6212L5.82146 33.0468C5.69831 33.2601 5.63334 33.502 5.63305 33.7483C5.63275 33.9946 5.69714 34.2366 5.81977 34.4502C5.9424 34.6638 6.11897 34.8414 6.33181 34.9653C6.54466 35.0892 6.78631 35.155 7.03259 35.1562H15.4701C15.8431 35.1562 16.2007 35.3044 16.4645 35.5681C16.7282 35.8318 16.8763 36.1895 16.8763 36.5625ZM41.614 31.6406L37.5465 24.6093C37.3519 24.3032 37.0466 24.0842 36.6943 23.9979C36.342 23.9116 35.97 23.9647 35.6559 24.1463C35.3419 24.3278 35.1102 24.6236 35.0091 24.9719C34.9081 25.3203 34.9455 25.6942 35.1136 26.0156L39.1812 33.0468C39.3044 33.2601 39.3693 33.502 39.3696 33.7483C39.3699 33.9946 39.3055 34.2366 39.1829 34.4502C39.0603 34.6638 38.8837 34.8414 38.6709 34.9653C38.458 35.0892 38.2164 35.155 37.9701 35.1562H25.8957L27.7133 33.3386C27.9771 33.075 28.1255 32.7173 28.1256 32.3443C28.1258 31.9713 27.9778 31.6135 27.7141 31.3497C27.4505 31.0858 27.0928 30.9375 26.7198 30.9373C26.3468 30.9371 25.989 31.0851 25.7252 31.3488L21.5064 35.5675C21.3757 35.6981 21.2719 35.8532 21.2012 36.0239C21.1304 36.1947 21.094 36.3776 21.094 36.5625C21.094 36.7473 21.1304 36.9302 21.2012 37.101C21.2719 37.2717 21.3757 37.4268 21.5064 37.5574L25.7252 41.7761C25.8558 41.9067 26.0109 42.0102 26.1816 42.0808C26.3522 42.1514 26.5351 42.1877 26.7198 42.1876C26.9045 42.1875 27.0874 42.1511 27.258 42.0803C27.4286 42.0096 27.5836 41.9059 27.7141 41.7752C27.8447 41.6446 27.9482 41.4895 28.0188 41.3188C28.0894 41.1482 28.1257 40.9653 28.1256 40.7806C28.1255 40.5959 28.0891 40.413 28.0183 40.2424C27.9476 40.0718 27.8439 39.9168 27.7133 39.7863L25.8957 37.9687H37.9701C38.7104 37.9683 39.4376 37.773 40.0786 37.4025C40.7195 37.0321 41.2517 36.4995 41.6217 35.8582C41.9917 35.217 42.1864 34.4896 42.1863 33.7493C42.1862 33.009 41.9912 32.2817 41.6211 31.6406H41.614ZM22.5013 5.62495C22.7485 5.62247 22.9918 5.68642 23.2057 5.81011C23.4197 5.93379 23.5965 6.11268 23.7177 6.32808L29.7453 16.7431L27.2703 16.0787C26.9145 15.9951 26.5401 16.0534 26.2265 16.2412C25.9129 16.429 25.6848 16.7315 25.5904 17.0845C25.496 17.4376 25.5428 17.8136 25.7209 18.1328C25.8989 18.452 26.1943 18.6893 26.5443 18.7945L32.3064 20.3396C32.4252 20.3708 32.5475 20.3868 32.6703 20.3871C32.9796 20.3868 33.2803 20.2845 33.5256 20.096C33.7709 19.9076 33.9473 19.6435 34.0273 19.3447L35.5724 13.5808C35.6255 13.4009 35.642 13.2121 35.621 13.0257C35.5999 12.8392 35.5418 12.6589 35.4501 12.4953C35.3583 12.3316 35.2347 12.188 35.0866 12.0729C34.9384 11.9578 34.7688 11.8734 34.5875 11.8249C34.4063 11.7763 34.2172 11.7645 34.0314 11.7902C33.8455 11.8158 33.6667 11.8784 33.5054 11.9742C33.3441 12.07 33.2036 12.1971 33.0922 12.3481C32.9807 12.499 32.9007 12.6707 32.8566 12.8531L32.1886 15.3439L26.1523 4.92183C25.7817 4.2817 25.2493 3.75027 24.6085 3.38082C23.9677 3.01137 23.241 2.81689 22.5013 2.81689C21.7617 2.81689 21.035 3.01137 20.3942 3.38082C19.7534 3.75027 19.221 4.2817 18.8504 4.92183L14.7793 11.9531C14.6044 12.2752 14.5621 12.6529 14.6616 13.0057C14.761 13.3585 14.9943 13.6585 15.3117 13.8418C15.6291 14.0252 16.0056 14.0773 16.3608 13.9872C16.7161 13.8971 17.0222 13.6718 17.2138 13.3593L21.2849 6.32808C21.4061 6.11268 21.583 5.93379 21.7969 5.81011C22.0109 5.68642 22.2542 5.62247 22.5013 5.62495Z" fill="#0E53BE"/>
</svg>
