<?xml version="1.0" encoding="utf-8"?>
<!-- Generator: Adobe Illustrator 24.1.1, SVG Export Plug-In . SVG Version: 6.00 Build 0)  -->
<svg version="1.1" id="Layer_1" xmlns="http://www.w3.org/2000/svg" xmlns:xlink="http://www.w3.org/1999/xlink" x="0px" y="0px"
	 viewBox="0 0 332.9 311.3" style="enable-background:new 0 0 332.9 311.3;" xml:space="preserve">
<style type="text/css">
	.st0{fill:#007AFB;}
</style>
<g>
	<path class="st0" d="M220,176.1c-0.5-4.5-2-8.7-4.4-12.6c-3-4.8-6.9-8.8-11.6-12c-6.8-4.6-14.3-7.9-22.3-9.7l-5.2-1.4l-4.7-1.2
		v-34.7c4.4,0,8.6,2,11.4,5.5c3.1,3.7,4.8,8.4,4.7,13.3h27.8c-0.2-6.1-1.7-12.1-4.3-17.6c-2.3-4.8-5.5-9-9.5-12.5
		c-4-3.4-8.7-6.1-13.6-7.9c-5.3-1.9-10.9-3.2-16.5-3.8V66.6h-11.6v15.1c-5.8,0.4-11.5,1.5-17,3.4c-5.3,1.8-10.2,4.5-14.5,8.1
		c-9.1,7.5-14.2,18.7-13.9,30.5c-0.2,5.6,0.9,11.3,3.3,16.4c2.2,4.2,5.2,7.9,8.9,10.9c3.8,3,8.1,5.4,12.6,7.1
		c4.7,1.8,9.5,3.3,14.2,4.7c1.3,0.3,2.5,0.6,3.6,0.9v0c0.9,0.2,1.8,0.5,2.6,0.9v40.9c-5.8-1-11-3.9-15.1-8.2
		c-4.3-4.9-6.4-11.4-5.8-17.9h-27.7c1.3,15.4,6.1,27.1,14.2,35.1c9.4,8.4,21.6,13.2,34.3,13.5v16.7h11.6l0-16.5
		c8.4-0.4,16.6-2.4,24.2-6.1c5.6-2.8,10.7-6.6,15-11.2c5.9-6.5,9.4-14.9,9.9-23.7C220.7,183.4,220.4,179.7,220,176.1L220,176.1z
		 M160.2,136.7c-4.9-0.8-9.5-2.8-13.5-5.7c-2.9-2.6-4.4-6.3-4.2-10.1c-0.1-2.5,0.4-4.9,1.5-7.2c0.9-2,2.3-3.7,4-5.1
		c1.7-1.4,3.6-2.4,5.7-3.1c2.1-0.6,4.3-0.9,6.4-0.9L160.2,136.7z M190.9,194.4c-1.2,2.2-2.8,4.2-4.7,5.8c-2.1,1.6-4.4,2.8-6.9,3.6
		c-2.4,0.8-4.8,1.4-7.3,1.7v-37.7c5.7,1.3,11.2,3.6,16.1,6.9c3.3,2.8,5.1,7.1,4.7,11.5c0.1,2.9-0.5,5.7-1.9,8.2L190.9,194.4z"/>
	<path class="st0" d="M324.9,232.8l-32.4,7.4c-0.7,0.1-1.4,0.1-2.1,0c-1.8,0-3.5-0.5-5-1.4c-2.1-1.3-3.6-3.5-4.2-5.9l-7.4-32.4h0
		c-0.6-2.4-0.1-5,1.2-7.2s3.5-3.6,5.9-4.2c5.1-1.2,10.2,2,11.4,7.1l1.9,8.2v0c13.5-35.6,11.6-75.2-5.3-109.4
		c-16.9-34.1-47.3-59.6-83.8-70.4C168.4,13.8,129,18.8,96.3,38.2L86.6,22l0,0c37.9-22.6,83.6-28.1,125.7-15
		c42.2,13,76.8,43.3,95.3,83.4s19.2,86.1,1.9,126.6l11.2-2.6c2.5-0.8,5.2-0.4,7.5,0.9c2.3,1.3,3.9,3.5,4.5,6.1
		c0.6,2.6,0.1,5.2-1.4,7.4C329.8,230.9,327.5,232.4,324.9,232.8L324.9,232.8z"/>
	<path class="st0" d="M244.9,290.1c-38,22.2-83.6,27.3-125.5,14c-41.9-13.3-76.3-43.7-94.6-83.7C6.5,180.3,5.9,134.5,23.3,94
		l-11.7,2.7h0c-5.1,1.2-10.2-2-11.3-7.1c-1.2-5.1,2-10.2,7.1-11.3l32.4-7.4h0c2.4-0.6,5-0.1,7.2,1.2c2.1,1.4,3.6,3.5,4.2,5.9
		l7.4,32.5l0,0c1.1,5.1-2.1,10.2-7.2,11.3c-0.7,0.1-1.4,0.1-2.1,0c-4.4,0-8.2-3.1-9.2-7.3l-1.8-7.2c-13.4,35.5-11.5,75,5.3,109
		c16.8,34,47,59.5,83.4,70.4s75.6,6.2,108.4-13L244.9,290.1z"/>
</g>
</svg>
