<svg width="334" height="312" viewBox="0 0 334 312" fill="none" xmlns="http://www.w3.org/2000/svg">
<g clip-path="url(#clip0_493_1063)">
<path d="M220.5 176.1C220 171.6 218.5 167.4 216.1 163.5C213.1 158.7 209.2 154.7 204.5 151.5C197.7 146.9 190.2 143.6 182.2 141.8L177 140.4L172.3 139.2V104.5C176.7 104.5 180.9 106.5 183.7 110C186.8 113.7 188.5 118.4 188.4 123.3H216.2C216 117.2 214.5 111.2 211.9 105.7C209.6 100.9 206.4 96.7 202.4 93.2C198.4 89.8 193.7 87.1 188.8 85.3C183.5 83.4 177.9 82.1 172.3 81.5V66.6H160.7V81.7C154.9 82.1 149.2 83.2 143.7 85.1C138.4 86.9 133.5 89.6 129.2 93.2C120.1 100.7 115 111.9 115.3 123.7C115.1 129.3 116.2 135 118.6 140.1C120.8 144.3 123.8 148 127.5 151C131.3 154 135.6 156.4 140.1 158.1C144.8 159.9 149.6 161.4 154.3 162.8C155.6 163.1 156.8 163.4 157.9 163.7C158.8 163.9 159.7 164.2 160.5 164.6V205.5C154.7 204.5 149.5 201.6 145.4 197.3C141.1 192.4 139 185.9 139.6 179.4H111.9C113.2 194.8 118 206.5 126.1 214.5C135.5 222.9 147.7 227.7 160.4 228V244.7H172V228.2C180.4 227.8 188.6 225.8 196.2 222.1C201.8 219.3 206.9 215.5 211.2 210.9C217.1 204.4 220.6 196 221.1 187.2C221.2 183.4 220.9 179.7 220.5 176.1ZM160.7 136.7C155.8 135.9 151.2 133.9 147.2 131C144.3 128.4 142.8 124.7 143 120.9C142.9 118.4 143.4 116 144.5 113.7C145.4 111.7 146.8 110 148.5 108.6C150.2 107.2 152.1 106.2 154.2 105.5C156.3 104.9 158.5 104.6 160.6 104.6L160.7 136.7ZM191.4 194.4C190.2 196.6 188.6 198.6 186.7 200.2C184.6 201.8 182.3 203 179.8 203.8C177.4 204.6 175 205.2 172.5 205.5V167.8C178.2 169.1 183.7 171.4 188.6 174.7C191.9 177.5 193.7 181.8 193.3 186.2C193.4 189.1 192.8 191.9 191.4 194.4Z" fill="#0E53BE"/>
<path d="M325.4 232.8L293 240.2C292.3 240.3 291.6 240.3 290.9 240.2C289.1 240.2 287.4 239.7 285.9 238.8C283.8 237.5 282.3 235.3 281.7 232.9L274.3 200.5C273.7 198.1 274.2 195.5 275.5 193.3C276.8 191.1 279 189.7 281.4 189.1C286.5 187.9 291.6 191.1 292.8 196.2L294.7 204.4C308.2 168.8 306.3 129.2 289.4 95C272.5 60.9 242.1 35.4 205.6 24.6C168.9 13.8 129.5 18.8 96.8 38.2L87.1 22C125 -0.6 170.7 -6.1 212.8 7C255 20 289.6 50.3 308.1 90.4C326.6 130.5 327.3 176.5 310 217L321.2 214.4C323.7 213.6 326.4 214 328.7 215.3C331 216.6 332.6 218.8 333.2 221.4C333.8 224 333.3 226.6 331.8 228.8C330.3 230.9 328 232.4 325.4 232.8Z" fill="#0E53BE"/>
<path d="M245.4 290.1C207.4 312.3 161.8 317.4 119.9 304.1C78 290.8 43.6 260.4 25.3 220.4C6.99998 180.3 6.39998 134.5 23.8 94L12.1 96.7C6.99998 97.9 1.89998 94.7 0.799984 89.6C-0.400016 84.5 2.79998 79.4 7.89998 78.3L40.3 70.9C42.7 70.3 45.3 70.8 47.5 72.1C49.6 73.5 51.1 75.6 51.7 78L59.1 110.5C60.2 115.6 57 120.7 51.9 121.8C51.2 121.9 50.5 121.9 49.8 121.8C45.4 121.8 41.6 118.7 40.6 114.5L38.8 107.3C25.4 142.8 27.3 182.3 44.1 216.3C60.9 250.3 91.1 275.8 127.5 286.7C163.9 297.6 203.1 292.9 235.9 273.7L245.4 290.1Z" fill="#0E53BE"/>
</g>
<defs>
<clipPath id="clip0_493_1063">
<rect width="332.9" height="311.3" fill="white" transform="translate(0.5)"/>
</clipPath>
</defs>
</svg>
