<svg width="45" height="45" viewBox="0 0 45 45" fill="none" xmlns="http://www.w3.org/2000/svg">
<path d="M37.5574 12.1613L30.5262 5.13008C30.3955 4.99953 30.2403 4.89601 30.0696 4.82543C29.8989 4.75486 29.716 4.71861 29.5312 4.71875H15.4688C14.7228 4.71875 14.0075 5.01507 13.48 5.54251C12.9526 6.06996 12.6562 6.78533 12.6562 7.53125V10.3438H9.84375C9.09783 10.3438 8.38246 10.6401 7.85501 11.1675C7.32757 11.695 7.03125 12.4103 7.03125 13.1563V38.4688C7.03125 39.2147 7.32757 39.93 7.85501 40.4575C8.38246 40.9849 9.09783 41.2812 9.84375 41.2812H29.5312C30.2772 41.2812 30.9925 40.9849 31.52 40.4575C32.0474 39.93 32.3438 39.2147 32.3438 38.4688V35.6562H35.1562C35.9022 35.6562 36.6175 35.3599 37.145 34.8325C37.6724 34.305 37.9688 33.5897 37.9688 32.8438V13.1563C37.9689 12.9715 37.9326 12.7886 37.8621 12.6179C37.7915 12.4472 37.688 12.292 37.5574 12.1613ZM29.5312 38.4688H9.84375V13.1563H23.3244L29.5312 19.3631V34.2219C29.5312 34.2324 29.5312 34.2412 29.5312 34.25C29.5312 34.2588 29.5312 34.2676 29.5312 34.2781V38.4688ZM35.1562 32.8438H32.3438V18.7812C32.3439 18.5965 32.3076 18.4136 32.2371 18.2429C32.1665 18.0722 32.063 17.917 31.9324 17.7863L24.9012 10.7551C24.7705 10.6245 24.6153 10.521 24.4446 10.4504C24.2739 10.3799 24.091 10.3436 23.9062 10.3438H15.4688V7.53125H28.9494L35.1562 13.7381V32.8438ZM25.3125 27.2188C25.3125 27.5917 25.1643 27.9494 24.9006 28.2131C24.6369 28.4768 24.2792 28.625 23.9062 28.625H15.4688C15.0958 28.625 14.7381 28.4768 14.4744 28.2131C14.2107 27.9494 14.0625 27.5917 14.0625 27.2188C14.0625 26.8458 14.2107 26.4881 14.4744 26.2244C14.7381 25.9607 15.0958 25.8125 15.4688 25.8125H23.9062C24.2792 25.8125 24.6369 25.9607 24.9006 26.2244C25.1643 26.4881 25.3125 26.8458 25.3125 27.2188ZM25.3125 32.8438C25.3125 33.2167 25.1643 33.5744 24.9006 33.8381C24.6369 34.1018 24.2792 34.25 23.9062 34.25H15.4688C15.0958 34.25 14.7381 34.1018 14.4744 33.8381C14.2107 33.5744 14.0625 33.2167 14.0625 32.8438C14.0625 32.4708 14.2107 32.1131 14.4744 31.8494C14.7381 31.5857 15.0958 31.4375 15.4688 31.4375H23.9062C24.2792 31.4375 24.6369 31.5857 24.9006 31.8494C25.1643 32.1131 25.3125 32.4708 25.3125 32.8438Z" fill="#0E53BE"/>
</svg>
