<svg width="45" height="45" viewBox="0 0 45 45" fill="none" xmlns="http://www.w3.org/2000/svg">
<path d="M22.5 4.21875C18.8843 4.21875 15.3498 5.29093 12.3435 7.2997C9.33715 9.30847 6.994 12.1636 5.61034 15.5041C4.22667 18.8445 3.86464 22.5203 4.57003 26.0665C5.27541 29.6127 7.01653 32.8701 9.57321 35.4268C12.1299 37.9835 15.3873 39.7246 18.9335 40.43C22.4797 41.1354 26.1555 40.7733 29.4959 39.3897C32.8364 38.006 35.6915 35.6629 37.7003 32.6565C39.7091 29.6502 40.7813 26.1157 40.7813 22.5C40.7757 17.6532 38.8478 13.0066 35.4206 9.57937C31.9934 6.15218 27.3468 4.22433 22.5 4.21875ZM37.9688 22.5C37.97 23.9266 37.773 25.3464 37.3834 26.7188H30.6141C31.0453 23.9228 31.0453 21.0772 30.6141 18.2812H37.3834C37.773 19.6536 37.97 21.0734 37.9688 22.5ZM17.9297 29.5312H27.0703C26.1698 32.4819 24.6065 35.1876 22.5 37.4414C20.3943 35.187 18.8311 32.4815 17.9297 29.5312ZM17.2441 26.7188C16.7614 23.927 16.7614 21.073 17.2441 18.2812H27.7699C28.2527 21.073 28.2527 23.927 27.7699 26.7188H17.2441ZM7.03126 22.5C7.03003 21.0734 7.22704 19.6536 7.61661 18.2812H14.3859C13.9547 21.0772 13.9547 23.9228 14.3859 26.7188H7.61661C7.22704 25.3464 7.03003 23.9266 7.03126 22.5ZM27.0703 15.4688H17.9297C18.8302 12.5181 20.3935 9.81243 22.5 7.55859C24.6057 9.81302 26.1689 12.5185 27.0703 15.4688ZM36.269 15.4688H30.0076C29.2185 12.5735 27.8884 9.85373 26.0877 7.45313C28.2634 7.97577 30.3003 8.96269 32.0588 10.3462C33.8174 11.7298 35.256 13.4772 36.276 15.4688H36.269ZM18.9123 7.45313C17.1116 9.85373 15.7816 12.5735 14.9924 15.4688H8.72403C9.74404 13.4772 11.1826 11.7298 12.9412 10.3462C14.6997 8.96269 16.7366 7.97577 18.9123 7.45313ZM8.72403 29.5312H14.9924C15.7816 32.4265 17.1116 35.1463 18.9123 37.5469C16.7366 37.0242 14.6997 36.0373 12.9412 34.6538C11.1826 33.2702 9.74404 31.5228 8.72403 29.5312ZM26.0877 37.5469C27.8884 35.1463 29.2185 32.4265 30.0076 29.5312H36.276C35.256 31.5228 33.8174 33.2702 32.0588 34.6538C30.3003 36.0373 28.2634 37.0242 26.0877 37.5469Z" fill="#0E53BE"/>
</svg>
