<svg width="45" height="45" viewBox="0 0 45 45" fill="none" xmlns="http://www.w3.org/2000/svg">
<path d="M10.2562 17.8697L4.63118 12.2447C4.50044 12.1141 4.39671 11.959 4.32594 11.7883C4.25518 11.6176 4.21875 11.4346 4.21875 11.2498C4.21875 11.065 4.25518 10.882 4.32594 10.7113C4.39671 10.5406 4.50044 10.3855 4.63118 10.2549L10.2562 4.62988C10.5201 4.36601 10.8779 4.21777 11.2511 4.21777C11.6243 4.21777 11.9822 4.36601 12.246 4.62988C12.5099 4.89375 12.6581 5.25164 12.6581 5.62481C12.6581 5.99797 12.5099 6.35586 12.246 6.61973L7.61419 11.2498L12.246 15.8799C12.5099 16.1438 12.6581 16.5016 12.6581 16.8748C12.6581 17.248 12.5099 17.6059 12.246 17.8697C11.9822 18.1336 11.6243 18.2818 11.2511 18.2818C10.8779 18.2818 10.5201 18.1336 10.2562 17.8697ZM17.2874 17.8697C17.418 18.0005 17.5731 18.1042 17.7438 18.175C17.9146 18.2457 18.0976 18.2822 18.2824 18.2822C18.4672 18.2822 18.6502 18.2457 18.8209 18.175C18.9916 18.1042 19.1467 18.0005 19.2773 17.8697L24.9023 12.2447C25.033 12.1141 25.1368 11.959 25.2075 11.7883C25.2783 11.6176 25.3147 11.4346 25.3147 11.2498C25.3147 11.065 25.2783 10.882 25.2075 10.7113C25.1368 10.5406 25.033 10.3855 24.9023 10.2549L19.2773 4.62988C19.0134 4.36601 18.6555 4.21777 18.2824 4.21777C17.9092 4.21777 17.5513 4.36601 17.2874 4.62988C17.0236 4.89375 16.8753 5.25164 16.8753 5.62481C16.8753 5.99797 17.0236 6.35586 17.2874 6.61973L21.9193 11.2498L17.2874 15.8799C17.1567 16.0105 17.053 16.1656 16.9822 16.3363C16.9114 16.507 16.875 16.69 16.875 16.8748C16.875 17.0596 16.9114 17.2426 16.9822 17.4133C17.053 17.584 17.1567 17.7391 17.2874 17.8697ZM35.1574 7.03106H30.9386C30.5656 7.03106 30.208 7.17921 29.9442 7.44294C29.6805 7.70666 29.5324 8.06434 29.5324 8.43731C29.5324 8.81027 29.6805 9.16795 29.9442 9.43167C30.208 9.6954 30.5656 9.84356 30.9386 9.84356H35.1574V35.1561H9.84486V23.9061C9.84486 23.5331 9.6967 23.1754 9.43297 22.9117C9.16925 22.648 8.81157 22.4998 8.43861 22.4998C8.06565 22.4998 7.70796 22.648 7.44424 22.9117C7.18051 23.1754 7.03236 23.5331 7.03236 23.9061V35.1561C7.03236 35.902 7.32867 36.6173 7.85612 37.1448C8.38356 37.6722 9.09894 37.9686 9.84486 37.9686H35.1574C35.9033 37.9686 36.6186 37.6722 37.1461 37.1448C37.6735 36.6173 37.9699 35.902 37.9699 35.1561V9.84356C37.9699 9.09763 37.6735 8.38226 37.1461 7.85482C36.6186 7.32737 35.9033 7.03106 35.1574 7.03106Z" fill="#0E53BE"/>
</svg>
