<?xml version="1.0" encoding="utf-8"?>
<!-- Generator: Adobe Illustrator 24.1.1, SVG Export Plug-In . SVG Version: 6.00 Build 0)  -->
<svg version="1.1" id="Layer_1" xmlns="http://www.w3.org/2000/svg" xmlns:xlink="http://www.w3.org/1999/xlink" x="0px" y="0px"
	 viewBox="0 0 444 370" style="enable-background:new 0 0 444 370;" xml:space="preserve">
<style type="text/css">
	.st0{fill:#007AFB;}
</style>
<g>
	<path class="st0" d="M355.2,164V37c0-9.8-3.9-19.2-10.9-26.1C337.4,3.9,328,0,318.2,0H37c-9.8,0-19.2,3.9-26.1,10.9
		C3.9,17.8,0,27.2,0,37v296c0,9.8,3.9,19.2,10.9,26.1C17.8,366.1,27.2,370,37,370h281.2c2.8,0,5.6-0.4,8.3-1
		c36.6,5,73-9.8,95.7-38.9c22.7-29.1,28.1-68.1,14.3-102.3C422.7,193.5,391.7,169.2,355.2,164L355.2,164z M37,355.2
		c-5.9,0-11.5-2.3-15.7-6.5c-4.2-4.2-6.5-9.8-6.5-15.7V37c0-5.9,2.3-11.5,6.5-15.7c4.2-4.2,9.8-6.5,15.7-6.5h281.2
		c5.9,0,11.5,2.3,15.7,6.5c4.2,4.2,6.5,9.8,6.5,15.7v125.8c-105.5,1.1-142.2,138.6-53.1,192.4L37,355.2z M340.4,355.2
		c-23.5,0-46.1-9.4-62.8-26c-16.6-16.6-26-39.2-26-62.8c4.9-117.8,172.7-117.8,177.6,0c0,23.5-9.4,46.1-26,62.8
		C386.5,345.8,363.9,355.2,340.4,355.2L340.4,355.2z"/>
	<path class="st0" d="M66.6,207.2H51.8h0c-5.9,0-11.5,2.3-15.7,6.5c-4.2,4.2-6.5,9.8-6.5,15.7v44.4c0,5.9,2.3,11.5,6.5,15.7
		c4.2,4.2,9.8,6.5,15.7,6.5h14.8h0c5.9,0,11.5-2.3,15.7-6.5c4.2-4.2,6.5-9.8,6.5-15.7v-44.4c0-5.9-2.3-11.5-6.5-15.7
		C78.1,209.5,72.5,207.2,66.6,207.2z M74,273.8L74,273.8c0,4.1-3.3,7.4-7.4,7.4H51.8h0c-4.1,0-7.4-3.3-7.4-7.4v-44.4
		c0-4.1,3.3-7.4,7.4-7.4h14.8h0c4.1,0,7.4,3.3,7.4,7.4L74,273.8z"/>
	<path class="st0" d="M140.6,155.4h-14.8h0c-5.9,0-11.5,2.3-15.7,6.5c-4.2,4.2-6.5,9.8-6.5,15.7v96.2c0,5.9,2.3,11.5,6.5,15.7
		c4.2,4.2,9.8,6.5,15.7,6.5h14.8h0c5.9,0,11.5-2.3,15.7-6.5c4.2-4.2,6.5-9.8,6.5-15.7v-96.2c0-5.9-2.3-11.5-6.5-15.7
		C152.1,157.7,146.5,155.4,140.6,155.4z M148,273.8L148,273.8c0,4.1-3.3,7.4-7.4,7.4h-14.8h0c-4.1,0-7.4-3.3-7.4-7.4v-96.2
		c0-4.1,3.3-7.4,7.4-7.4h14.8h0c4.1,0,7.4,3.3,7.4,7.4L148,273.8z"/>
	<path class="st0" d="M214.6,96.2h-14.8c-5.9,0-11.5,2.3-15.7,6.5c-4.2,4.2-6.5,9.8-6.5,15.7v155.4c0,5.9,2.3,11.5,6.5,15.7
		c4.2,4.2,9.8,6.5,15.7,6.5h14.8c5.9,0,11.5-2.3,15.7-6.5c4.2-4.2,6.5-9.8,6.5-15.7V118.4c0-5.9-2.3-11.5-6.5-15.7
		C226.1,98.5,220.5,96.2,214.6,96.2L214.6,96.2z M222,273.8c0,4.1-3.3,7.4-7.4,7.4h-14.8c-4.1,0-7.4-3.3-7.4-7.4V118.4
		c0-4.1,3.3-7.4,7.4-7.4h14.8c4.1,0,7.4,3.3,7.4,7.4V273.8z"/>
	<path class="st0" d="M207.3,75.5c0.8,4,4.7,6.5,8.7,5.7c4-0.8,6.6-4.6,5.8-8.6l-7.4-37v0c-0.9-3.9-4.7-6.5-8.7-5.8l-37,7.4l0,0
		c-3.7,0.8-6.2,4.2-5.8,8c0.4,3.7,3.5,6.6,7.2,6.7c0.5,0,1,0,1.5-0.1l20.3-4.1h0c-33,50.1-83.7,86-141.9,100.6
		c-3.6,1-5.9,4.4-5.4,8.1c0.4,3.7,3.5,6.4,7.2,6.5C114,148,168.3,110.1,203.6,56.8L207.3,75.5z"/>
	<path class="st0" d="M395.8,236.8h-85.8c-1.6-6.3-5.2-12-10.4-16c-5.1-4-11.5-6.2-18-6.2c-2-0.1-3.9,0.7-5.4,2.1
		c-1.4,1.4-2.2,3.3-2.2,5.3c0.1,4.1,3.4,7.4,7.6,7.4c3.8,0,7.5,1.5,10.2,4.2c2.7,2.7,4.2,6.4,4.2,10.2v44.7c0,3.6,1.4,7.1,3.8,9.8
		c-4.3,6.4-5,14.5-1.8,21.6c3.2,7,9.8,11.9,17.4,12.9c7.6,1,15.2-2.1,20.1-8.1c4.8-6,6.2-14.1,3.6-21.3h10.1c-2.5,7.1-1.3,15,3.3,21
		c4.6,6,11.9,9.2,19.4,8.5c7.5-0.6,14.2-5.1,17.7-11.8c3.5-6.7,3.4-14.7-0.4-21.2c1.9-1.5,3.3-3.3,4.3-5.5l15.9-37
		c1.9-4.6,1.4-9.8-1.3-13.9C405.3,239.4,400.7,236.8,395.8,236.8L395.8,236.8z M318.2,318.2L318.2,318.2c-4-0.1-7.3-3.4-7.3-7.4
		c0-4,3.3-7.3,7.3-7.4c4,0.1,7.3,3.4,7.3,7.4S322.2,318.1,318.2,318.2L318.2,318.2z M370,318.2L370,318.2c-4-0.1-7.3-3.4-7.3-7.4
		s3.3-7.3,7.3-7.4c4,0.1,7.3,3.4,7.3,7.4S374,318.1,370,318.2L370,318.2z M379.9,288.6l-69.1,0v-37h85L379.9,288.6z"/>
</g>
</svg>
