<?xml version="1.0" encoding="utf-8"?>
<!-- Generator: Adobe Illustrator 24.1.1, SVG Export Plug-In . SVG Version: 6.00 Build 0)  -->
<svg version="1.1" id="Layer_1" xmlns="http://www.w3.org/2000/svg" xmlns:xlink="http://www.w3.org/1999/xlink" x="0px" y="0px"
	 viewBox="0 0 355.2 355.2" style="enable-background:new 0 0 355.2 355.2;" xml:space="preserve">
<style type="text/css">
	.st0{fill:#007AFB;}
</style>
<path class="st0" d="M43.2,355.2h79.3c7.3,0,13.2-5.9,13.2-13.2s-5.9-13.2-13.2-13.2l-77.6,0l284-284v77.6c0,7.3,5.9,13.2,13.2,13.2
	s13.2-5.9,13.2-13.2l0-79.3C355.2,19.4,335.8,0,312,0h-79.3c-7.3,0-13.2,5.9-13.2,13.2s5.9,13.2,13.2,13.2h77.6l-284,284v-77.6
	c0-7.3-5.9-13.2-13.2-13.2S0,225.4,0,232.7V312C0,335.8,19.4,355.2,43.2,355.2L43.2,355.2z"/>
</svg>
