<svg width="45" height="45" viewBox="0 0 45 45" fill="none" xmlns="http://www.w3.org/2000/svg">
<path d="M26.3082 24.3177C26.1776 24.187 26.0225 24.0832 25.8518 24.0125C25.6811 23.9417 25.4981 23.9053 25.3133 23.9053C25.1285 23.9053 24.9455 23.9417 24.7748 24.0125C24.6041 24.0832 24.449 24.187 24.3184 24.3177L21.0945 27.5433L17.4576 23.9064L20.6832 20.6826C20.9471 20.4187 21.0953 20.0608 21.0953 19.6876C21.0953 19.3145 20.9471 18.9566 20.6832 18.6927C20.4193 18.4288 20.0614 18.2806 19.6883 18.2806C19.3151 18.2806 18.9572 18.4288 18.6934 18.6927L15.4695 21.9183L12.2457 18.6927C11.9818 18.4288 11.6239 18.2806 11.2508 18.2806C10.8776 18.2806 10.5197 18.4288 10.2559 18.6927C9.99199 18.9566 9.84375 19.3145 9.84375 19.6876C9.84375 20.0608 9.99199 20.4187 10.2559 20.6826L11.3721 21.797L7.27285 25.8945C6.75039 26.4168 6.33594 27.037 6.05317 27.7195C5.77041 28.402 5.62487 29.1336 5.62487 29.8724C5.62487 30.6112 5.77041 31.3427 6.05317 32.0253C6.33594 32.7078 6.75039 33.328 7.27285 33.8503L8.21856 34.7943L3.22461 39.7865C3.09396 39.9171 2.99031 40.0722 2.9196 40.2429C2.84889 40.4136 2.8125 40.5966 2.8125 40.7814C2.8125 40.9662 2.84889 41.1491 2.9196 41.3198C2.99031 41.4905 3.09396 41.6456 3.22461 41.7763C3.48848 42.0402 3.84636 42.1884 4.21953 42.1884C4.40431 42.1884 4.58727 42.152 4.75798 42.0813C4.92869 42.0106 5.0838 41.907 5.21445 41.7763L10.2066 36.7824L11.1506 37.7281C11.6729 38.2505 12.2931 38.665 12.9756 38.9477C13.6582 39.2305 14.3897 39.376 15.1285 39.376C15.8673 39.376 16.5989 39.2305 17.2814 38.9477C17.9639 38.665 18.5841 38.2505 19.1064 37.7281L23.2039 33.6288L24.3184 34.7451C24.449 34.8757 24.6041 34.9793 24.7748 35.0501C24.9455 35.1208 25.1285 35.1572 25.3133 35.1572C25.4981 35.1572 25.681 35.1208 25.8517 35.0501C26.0224 34.9793 26.1776 34.8757 26.3082 34.7451C26.4389 34.6144 26.5425 34.4593 26.6132 34.2886C26.6839 34.1179 26.7203 33.9349 26.7203 33.7501C26.7203 33.5654 26.6839 33.3824 26.6132 33.2117C26.5425 33.041 26.4389 32.8859 26.3082 32.7552L23.0826 29.5314L26.3082 26.3076C26.439 26.1769 26.5427 26.0219 26.6134 25.8511C26.6842 25.6804 26.7206 25.4974 26.7206 25.3126C26.7206 25.1278 26.6842 24.9448 26.6134 24.7741C26.5427 24.6034 26.439 24.4483 26.3082 24.3177ZM17.1166 35.7435C16.5892 36.2705 15.8741 36.5666 15.1285 36.5666C14.3829 36.5666 13.6678 36.2705 13.1404 35.7435L9.2627 31.8605C8.73565 31.3331 8.43959 30.618 8.43959 29.8724C8.43959 29.1268 8.73565 28.4117 9.2627 27.8843L13.3602 23.7851L21.2158 31.6408L17.1166 35.7435ZM41.777 3.22396C41.6464 3.09321 41.4913 2.98949 41.3205 2.91872C41.1498 2.84795 40.9668 2.81152 40.782 2.81152C40.5972 2.81152 40.4142 2.84795 40.2435 2.91872C40.0728 2.98949 39.9177 3.09321 39.7871 3.22396L34.7949 8.2179L33.851 7.2722C32.7949 6.21918 31.3644 5.62785 29.873 5.62785C28.3817 5.62785 26.9512 6.21918 25.8951 7.2722L21.7977 11.3714L20.6832 10.2552C20.4193 9.99134 20.0614 9.8431 19.6883 9.8431C19.3151 9.8431 18.9572 9.99134 18.6934 10.2552C18.4295 10.5191 18.2813 10.877 18.2812 11.2501C18.2812 11.6233 18.4295 11.9812 18.6934 12.2451L32.7559 26.3076C32.8865 26.4382 33.0416 26.5418 33.2123 26.6126C33.383 26.6833 33.566 26.7197 33.7508 26.7197C33.9356 26.7197 34.1185 26.6833 34.2892 26.6126C34.4599 26.5418 34.6151 26.4382 34.7457 26.3076C34.8764 26.1769 34.98 26.0218 35.0507 25.8511C35.1214 25.6804 35.1578 25.4974 35.1578 25.3126C35.1578 25.1279 35.1214 24.9449 35.0507 24.7742C34.98 24.6035 34.8764 24.4484 34.7457 24.3177L33.6295 23.2033L37.7287 19.1058C38.2512 18.5834 38.6656 17.9633 38.9484 17.2808C39.2312 16.5982 39.3767 15.8667 39.3767 15.1279C39.3767 14.3891 39.2312 13.6575 38.9484 12.975C38.6656 12.2924 38.2512 11.6723 37.7287 11.1499L36.783 10.206L41.777 5.2138C41.9077 5.0832 42.0114 4.92811 42.0822 4.75739C42.153 4.58667 42.1894 4.40368 42.1894 4.21888C42.1894 4.03408 42.153 3.85109 42.0822 3.68037C42.0114 3.50965 41.9077 3.35456 41.777 3.22396ZM35.7389 17.1107L31.6414 21.2152L23.7857 13.3595L27.885 9.26204C28.4124 8.735 29.1274 8.43893 29.873 8.43893C30.6187 8.43893 31.3337 8.735 31.8611 9.26204L35.7389 13.1292C36.0014 13.3906 36.2098 13.7012 36.3519 14.0433C36.4941 14.3854 36.5673 14.7521 36.5673 15.1226C36.5673 15.493 36.4941 15.8598 36.3519 16.2019C36.2098 16.544 36.0014 16.8546 35.7389 17.116V17.1107Z" fill="#0E53BE"/>
</svg>
