<?xml version="1.0" encoding="utf-8"?>
<!-- Generator: Adobe Illustrator 24.1.1, SVG Export Plug-In . SVG Version: 6.00 Build 0)  -->
<svg version="1.1" id="Layer_1" xmlns="http://www.w3.org/2000/svg" xmlns:xlink="http://www.w3.org/1999/xlink" x="0px" y="0px"
	 viewBox="0 0 394.6 394.6" style="enable-background:new 0 0 394.6 394.6;" xml:space="preserve">
<style type="text/css">
	.st0{fill:#007AFB;}
</style>
<g>
	<path class="st0" d="M173.3,51.3h-121c-4.4,0-7.9,3.5-7.9,7.9s3.5,7.9,7.9,7.9h121c4.4,0,7.9-3.5,7.9-7.9
		C181.2,54.8,177.7,51.3,173.3,51.3z"/>
	<path class="st0" d="M272.6,40.8c-4.4,0-7.9,3.5-7.9,7.9v21.7c0,4.4,3.5,7.9,7.9,7.9s7.9-3.5,7.9-7.9V48.7
		C280.5,44.3,277,40.8,272.6,40.8L272.6,40.8z"/>
	<path class="st0" d="M307.5,40.8c-4.4,0-7.9,3.5-7.9,7.9v21.7c0,4.4,3.5,7.9,7.9,7.9s7.9-3.5,7.9-7.9V48.7
		C315.4,44.3,311.9,40.8,307.5,40.8L307.5,40.8z"/>
	<path class="st0" d="M342.4,40.8c-4.4,0-7.9,3.5-7.9,7.9v21.7c0,4.4,3.5,7.9,7.9,7.9s7.9-3.5,7.9-7.9V48.7
		C350.3,44.3,346.7,40.8,342.4,40.8L342.4,40.8z"/>
	<path class="st0" d="M7.9,221h128.3c-4.1,8.7-6.4,18.4-6.4,28.6v34h-4.4c-11.2,0-20.2,9.1-20.2,20.2v70.5
		c0,11.2,9.1,20.2,20.2,20.2h144c11.2,0,20.2-9.1,20.2-20.2v-70.5c0-11.2-9.1-20.2-20.2-20.2h-4.4v-34c0-10.2-2.4-19.9-6.4-28.6
		h128.3c4.4,0,7.9-3.5,7.9-7.9V7.9c0-4.4-3.5-7.9-7.9-7.9H7.9C3.5,0,0,3.5,0,7.9v205.2C0,217.5,3.5,221,7.9,221L7.9,221z
		 M273.8,303.9v70.5c0,2.4-2,4.4-4.4,4.4h-144c-2.4,0-4.4-2-4.4-4.4v-70.5c0-2.4,2-4.4,4.4-4.4h144
		C271.8,299.4,273.8,301.4,273.8,303.9L273.8,303.9z M145.5,283.7v-34c0-28.6,23.2-51.8,51.8-51.8s51.8,23.2,51.8,51.8v34H145.5z
		 M378.9,205.2H248.2C235.8,191,217.6,182,197.3,182s-38.4,9-50.8,23.2H15.8v-86.8h363.1L378.9,205.2z M15.8,15.8h363.1v86.8H15.8
		V15.8z"/>
	<path class="st0" d="M52.3,169.7h121c4.4,0,7.9-3.5,7.9-7.9s-3.5-7.9-7.9-7.9l-121,0c-4.4,0-7.9,3.5-7.9,7.9
		C44.4,166.2,47.9,169.7,52.3,169.7z"/>
	<path class="st0" d="M272.6,180.9c4.4,0,7.9-3.5,7.9-7.9v-21.7c0-4.4-3.5-7.9-7.9-7.9s-7.9,3.5-7.9,7.9V173
		C264.7,177.3,268.3,180.9,272.6,180.9z"/>
	<path class="st0" d="M307.5,180.9c4.4,0,7.9-3.5,7.9-7.9v-21.7c0-4.4-3.5-7.9-7.9-7.9s-7.9,3.5-7.9,7.9V173
		C299.6,177.3,303.1,180.9,307.5,180.9z"/>
	<path class="st0" d="M342.4,180.9c4.4,0,7.9-3.5,7.9-7.9v-21.7c0-4.4-3.5-7.9-7.9-7.9s-7.9,3.5-7.9,7.9V173
		C334.5,177.3,338,180.9,342.4,180.9z"/>
	<path class="st0" d="M197.3,315.2c-13.2,0-23.9,10.7-23.9,23.9c0,13.2,10.7,23.9,23.9,23.9s23.9-10.7,23.9-23.9
		S210.5,315.2,197.3,315.2z M197.3,347.3c-4.5,0-8.1-3.6-8.1-8.1c0-4.5,3.7-8.1,8.1-8.1s8.1,3.6,8.1,8.1S201.8,347.3,197.3,347.3z"
		/>
</g>
</svg>
