<svg width="337" height="392" viewBox="0 0 337 392" fill="none" xmlns="http://www.w3.org/2000/svg">
<g clip-path="url(#clip0_492_158)">
<path d="M336.4 104.8C338.1 79.6 323.5 56.6 300 47.5L189.5 4.50001C175.7 -0.899988 160.5 -0.899988 146.6 4.50001L36.5 47.4C13 56.6 -1.6 79.6 0.100002 104.8C1.7 128.3 4.1 161.6 6.6 194.8C13.4 283.3 94.2 350.2 141.7 382.2C151 388.4 161.4 391.5 171.9 391.5C182.9 391.5 193.8 388.1 203.3 381.3C247.7 349.3 323.1 282.6 329.8 194.8C332.4 161.6 334.8 128.2 336.4 104.8ZM303.6 192.7C297.4 272.8 220.6 336.3 187.9 359.9C178.5 366.7 166.1 366.9 156.4 360.3C121.3 336.7 39 273 32.8 192.7C30.2 159.5 27.9 126.3 26.3 102.9C25.4 89.3 33.3 76.9 46 71.9L156.1 29C163.7 26 172.2 26 179.9 29L290.4 71.9C303.1 76.8 311 89.3 310.1 102.9C308.6 126.4 306.2 159.6 303.6 192.7Z" fill="#0E53BE"/>
<path d="M227.1 136.2L156.7 206.6L128.8 178.7C123.7 173.6 115.3 173.6 110.2 178.7C105.1 183.8 105.1 192.2 110.2 197.3L147.4 234.5C150 237.1 153.3 238.4 156.7 238.4C160.1 238.4 163.4 237.1 166 234.5L245.7 154.8C250.8 149.7 250.8 141.3 245.7 136.2C240.6 131.1 232.2 131.1 227.1 136.2Z" fill="#0E53BE"/>
</g>
<defs>
<clipPath id="clip0_492_158">
<rect width="336.6" height="391" fill="white" transform="translate(0 0.5)"/>
</clipPath>
</defs>
</svg>
