<?xml version="1.0" encoding="utf-8"?>
<!-- Generator: Adobe Illustrator 24.1.1, SVG Export Plug-In . SVG Version: 6.00 Build 0)  -->
<svg version="1.1" id="Layer_1" xmlns="http://www.w3.org/2000/svg" xmlns:xlink="http://www.w3.org/1999/xlink" x="0px" y="0px"
	 viewBox="0 0 336.6 391" style="enable-background:new 0 0 336.6 391;" xml:space="preserve">
<style type="text/css">
	.st0{fill:#007AFB;}
</style>
<g>
	<path class="st0" d="M336.4,104.3c1.7-25.2-12.9-48.2-36.4-57.3L189.5,4c-13.8-5.4-29-5.4-42.9,0L36.5,46.9
		C13,56.1-1.6,79.1,0.1,104.3c1.6,23.5,4,56.8,6.5,90c6.8,88.5,87.6,155.4,135.1,187.4c9.3,6.2,19.7,9.3,30.2,9.3
		c11,0,21.9-3.4,31.4-10.2c44.4-32,119.8-98.7,126.5-186.5C332.4,161.1,334.8,127.7,336.4,104.3L336.4,104.3z M303.6,192.2
		c-6.2,80.1-83,143.6-115.7,167.2c-9.4,6.8-21.8,7-31.5,0.4c-35.1-23.6-117.4-87.3-123.6-167.6c-2.6-33.2-4.9-66.4-6.5-89.8
		c-0.9-13.6,7-26,19.7-31l110.1-42.9c7.6-3,16.1-3,23.8,0l110.5,42.9c12.7,4.9,20.6,17.4,19.7,31
		C308.6,125.9,306.2,159.1,303.6,192.2L303.6,192.2z"/>
	<path class="st0" d="M227.1,135.7l-70.4,70.4l-27.9-27.9c-5.1-5.1-13.5-5.1-18.6,0c-5.1,5.1-5.1,13.5,0,18.6l37.2,37.2
		c2.6,2.6,5.9,3.9,9.3,3.9c3.4,0,6.7-1.3,9.3-3.9l79.7-79.7c5.1-5.1,5.1-13.5,0-18.6S232.2,130.6,227.1,135.7L227.1,135.7z"/>
</g>
</svg>
