<svg width="380" height="341" viewBox="0 0 380 341" fill="none" xmlns="http://www.w3.org/2000/svg">
<g clip-path="url(#clip0_493_1068)">
<path d="M256.2 189.4H237.3V179.9C237.3 153.8 216 132.5 189.9 132.5C163.8 132.5 142.5 153.7 142.5 179.9V189.4H123.6C118.4 189.4 114.1 193.6 114.1 198.9V255.7C114.1 260.9 118.3 265.2 123.6 265.2H256.2C261.4 265.2 265.7 261 265.7 255.7V198.9C265.7 193.7 261.5 189.4 256.2 189.4ZM161.5 180C161.5 164.3 174.3 151.6 189.9 151.6C205.6 151.6 218.3 164.4 218.3 180V189.5H161.5V180ZM246.8 246.3H133.1V208.4H246.8V246.3Z" fill="#0E53BE"/>
<path d="M332 0H47.9C21.8 0 0.5 21.2 0.5 47.4V293.7C0.5 319.7 21.8 341 47.9 341H332C358.1 341 379.4 319.8 379.4 293.6V47.3C379.4 21.2 358.1 0 332 0ZM360.4 293.6C360.4 309.3 347.6 322 332 322H47.9C32.2 322 19.5 309.2 19.5 293.6V75.8H218.4C223.6 75.8 227.9 71.6 227.9 66.3C227.9 61.1 223.7 56.8 218.4 56.8H19.4V47.3C19.4 31.6 32.2 18.9 47.8 18.9H332C347.7 18.9 360.4 31.7 360.4 47.3V293.6Z" fill="#0E53BE"/>
<path d="M275.2 56.8H256.3C251.1 56.8 246.8 61 246.8 66.3C246.8 71.5 251 75.8 256.3 75.8H275.2C280.4 75.8 284.7 71.6 284.7 66.3C284.7 61 280.4 56.8 275.2 56.8Z" fill="#0E53BE"/>
<path d="M332 56.8H313.1C307.9 56.8 303.6 61 303.6 66.3C303.6 71.5 307.8 75.8 313.1 75.8H332C337.2 75.8 341.5 71.6 341.5 66.3C341.5 61 337.2 56.8 332 56.8Z" fill="#0E53BE"/>
</g>
<defs>
<clipPath id="clip0_493_1068">
<rect width="378.9" height="341" fill="white" transform="translate(0.5)"/>
</clipPath>
</defs>
</svg>
