<svg width="395" height="395" viewBox="0 0 395 395" fill="none" xmlns="http://www.w3.org/2000/svg">
<g clip-path="url(#clip0_493_308)">
<path d="M173.3 51.3H52.3C47.9 51.3 44.4 54.8 44.4 59.2C44.4 63.6 47.9 67.1 52.3 67.1H173.3C177.7 67.1 181.2 63.6 181.2 59.2C181.2 54.8 177.7 51.3 173.3 51.3Z" fill="#0E53BE"/>
<path d="M272.6 40.8C268.2 40.8 264.7 44.3 264.7 48.7V70.4C264.7 74.8 268.2 78.3 272.6 78.3C277 78.3 280.5 74.8 280.5 70.4V48.7C280.5 44.3 277 40.8 272.6 40.8Z" fill="#0E53BE"/>
<path d="M307.5 40.8C303.1 40.8 299.6 44.3 299.6 48.7V70.4C299.6 74.8 303.1 78.3 307.5 78.3C311.9 78.3 315.4 74.8 315.4 70.4V48.7C315.4 44.3 311.9 40.8 307.5 40.8Z" fill="#0E53BE"/>
<path d="M342.4 40.8C338 40.8 334.5 44.3 334.5 48.7V70.4C334.5 74.8 338 78.3 342.4 78.3C346.8 78.3 350.3 74.8 350.3 70.4V48.7C350.3 44.3 346.7 40.8 342.4 40.8Z" fill="#0E53BE"/>
<path d="M7.9 221H136.2C132.1 229.7 129.8 239.4 129.8 249.6V283.6H125.4C114.2 283.6 105.2 292.7 105.2 303.8V374.3C105.2 385.5 114.3 394.5 125.4 394.5H269.4C280.6 394.5 289.6 385.4 289.6 374.3V303.8C289.6 292.6 280.5 283.6 269.4 283.6H265V249.6C265 239.4 262.6 229.7 258.6 221H386.9C391.3 221 394.8 217.5 394.8 213.1V7.9C394.8 3.5 391.3 0 386.9 0H7.9C3.5 0 0 3.5 0 7.9V213.1C0 217.5 3.5 221 7.9 221ZM273.8 303.9V374.4C273.8 376.8 271.8 378.8 269.4 378.8H125.4C123 378.8 121 376.8 121 374.4V303.9C121 301.5 123 299.5 125.4 299.5H269.4C271.8 299.4 273.8 301.4 273.8 303.9ZM145.5 283.7V249.7C145.5 221.1 168.7 197.9 197.3 197.9C225.9 197.9 249.1 221.1 249.1 249.7V283.7H145.5ZM378.9 205.2H248.2C235.8 191 217.6 182 197.3 182C177 182 158.9 191 146.5 205.2H15.8V118.4H378.9V205.2ZM15.8 15.8H378.9V102.6H15.8V15.8Z" fill="#0E53BE"/>
<path d="M52.3 169.7H173.3C177.7 169.7 181.2 166.2 181.2 161.8C181.2 157.4 177.7 153.9 173.3 153.9H52.3C47.9 153.9 44.4 157.4 44.4 161.8C44.4 166.2 47.9 169.7 52.3 169.7Z" fill="#0E53BE"/>
<path d="M272.6 180.9C277 180.9 280.5 177.4 280.5 173V151.3C280.5 146.9 277 143.4 272.6 143.4C268.2 143.4 264.7 146.9 264.7 151.3V173C264.7 177.3 268.3 180.9 272.6 180.9Z" fill="#0E53BE"/>
<path d="M307.5 180.9C311.9 180.9 315.4 177.4 315.4 173V151.3C315.4 146.9 311.9 143.4 307.5 143.4C303.1 143.4 299.6 146.9 299.6 151.3V173C299.6 177.3 303.1 180.9 307.5 180.9Z" fill="#0E53BE"/>
<path d="M342.4 180.9C346.8 180.9 350.3 177.4 350.3 173V151.3C350.3 146.9 346.8 143.4 342.4 143.4C338 143.4 334.5 146.9 334.5 151.3V173C334.5 177.3 338 180.9 342.4 180.9Z" fill="#0E53BE"/>
<path d="M197.3 315.2C184.1 315.2 173.4 325.9 173.4 339.1C173.4 352.3 184.1 363 197.3 363C210.5 363 221.2 352.3 221.2 339.1C221.2 325.9 210.5 315.2 197.3 315.2ZM197.3 347.3C192.8 347.3 189.2 343.7 189.2 339.2C189.2 334.7 192.9 331.1 197.3 331.1C201.7 331.1 205.4 334.7 205.4 339.2C205.4 343.7 201.8 347.3 197.3 347.3Z" fill="#0E53BE"/>
</g>
<defs>
<clipPath id="clip0_493_308">
<rect width="394.6" height="394.6" fill="white"/>
</clipPath>
</defs>
</svg>
