<?xml version="1.0" encoding="utf-8"?>
<!-- Generator: Adobe Illustrator 24.1.1, SVG Export Plug-In . SVG Version: 6.00 Build 0)  -->
<svg version="1.1" id="Layer_1" xmlns="http://www.w3.org/2000/svg" xmlns:xlink="http://www.w3.org/1999/xlink" x="0px" y="0px"
	 viewBox="0 0 378.9 341" style="enable-background:new 0 0 378.9 341;" xml:space="preserve">
<style type="text/css">
	.st0{fill:#007AFB;}
</style>
<g>
	<path class="st0" d="M255.7,189.4h-18.9l0-9.5c0-26.1-21.3-47.4-47.4-47.4c-26.1,0-47.4,21.2-47.4,47.4v9.5h-18.9
		c-5.2,0-9.5,4.2-9.5,9.5v56.8c0,5.2,4.2,9.5,9.5,9.5h132.6c5.2,0,9.5-4.2,9.5-9.5v-56.8C265.2,193.7,261,189.4,255.7,189.4
		L255.7,189.4z M161,180c0-15.7,12.8-28.4,28.4-28.4c15.7,0,28.4,12.8,28.4,28.4v9.5H161L161,180z M246.3,246.3H132.6v-37.9h113.7
		V246.3z"/>
	<path class="st0" d="M331.5,0H47.4C21.3,0,0,21.2,0,47.4v246.3C0,319.7,21.3,341,47.4,341h284.1c26.1,0,47.4-21.2,47.4-47.4
		l0-246.3C378.9,21.2,357.6,0,331.5,0L331.5,0z M359.9,293.6c0,15.7-12.8,28.4-28.4,28.4H47.4c-15.7,0-28.4-12.8-28.4-28.4V75.8
		h198.9c5.2,0,9.5-4.2,9.5-9.5c0-5.2-4.2-9.5-9.5-9.5H18.9v-9.5c0-15.7,12.8-28.4,28.4-28.4h284.2c15.7,0,28.4,12.8,28.4,28.4V293.6
		z"/>
	<path class="st0" d="M274.7,56.8h-18.9c-5.2,0-9.5,4.2-9.5,9.5c0,5.2,4.2,9.5,9.5,9.5h18.9c5.2,0,9.5-4.2,9.5-9.5
		S279.9,56.8,274.7,56.8z"/>
	<path class="st0" d="M331.5,56.8h-18.9c-5.2,0-9.5,4.2-9.5,9.5c0,5.2,4.2,9.5,9.5,9.5h18.9c5.2,0,9.5-4.2,9.5-9.5
		S336.7,56.8,331.5,56.8z"/>
</g>
</svg>
