<svg width="55" height="55" viewBox="0 0 55 55" fill="none" xmlns="http://www.w3.org/2000/svg">
<g clip-path="url(#clip0_316_2189)">
<path d="M52.1555 0H4.03047C2.13211 0 0 0.946064 0 2.84453V37.2195C0 39.1179 2.13211 40.9277 4.03047 40.9277H24.8145V44.1504H22.9367C21.9875 44.1504 21.218 45.2246 21.218 46.2988H12.6242C10.7259 46.2988 9.18672 47.6231 9.18672 49.5215C9.18672 51.4198 10.7259 52.7441 12.6242 52.7441H21.218C21.218 53.8184 21.9875 55 22.9367 55H33.2492C34.1984 55 34.968 53.8184 34.968 52.7441H43.5617C45.4601 52.7441 46.9992 51.4198 46.9992 49.5215C46.9992 47.6231 45.4601 46.2988 43.5617 46.2988H34.968C34.968 45.2246 34.1984 44.1504 33.2492 44.1504H31.3672V40.9277H52.1555C54.0538 40.9277 55 39.1179 55 37.2195V2.84453C55 0.946064 54.0537 0 52.1555 0ZM48.5547 33.4082H7.62695V23.6328H48.5547V33.4082ZM48.5547 16.1133H7.62695V6.44531H48.5547V16.1133Z" fill="#007BFC" stroke="#F2F5FE" stroke-width="3"/>
<path d="M32.1191 14.9316C34.0176 14.9316 35.5566 13.3926 35.5566 11.4941C35.5566 9.59566 34.0176 8.05664 32.1191 8.05664C30.2207 8.05664 28.6816 9.59566 28.6816 11.4941C28.6816 13.3926 30.2207 14.9316 32.1191 14.9316Z" fill="#007BFC"/>
<path d="M42.4316 14.9316C44.3301 14.9316 45.8691 13.3926 45.8691 11.4941C45.8691 9.59566 44.3301 8.05664 42.4316 8.05664C40.5332 8.05664 38.9941 9.59566 38.9941 11.4941C38.9941 13.3926 40.5332 14.9316 42.4316 14.9316Z" fill="#007BFC"/>
<path d="M32.1191 32.1191C34.0176 32.1191 35.5566 30.5801 35.5566 28.6816C35.5566 26.7832 34.0176 25.2441 32.1191 25.2441C30.2207 25.2441 28.6816 26.7832 28.6816 28.6816C28.6816 30.5801 30.2207 32.1191 32.1191 32.1191Z" fill="#007BFC"/>
<path d="M42.4316 32.1191C44.3301 32.1191 45.8691 30.5801 45.8691 28.6816C45.8691 26.7832 44.3301 25.2441 42.4316 25.2441C40.5332 25.2441 38.9941 26.7832 38.9941 28.6816C38.9941 30.5801 40.5332 32.1191 42.4316 32.1191Z" fill="#007BFC"/>
</g>
<defs>
<clipPath id="clip0_316_2189">
<rect width="55" height="55" fill="white"/>
</clipPath>
</defs>
</svg>
