<svg width="45" height="45" viewBox="0 0 45 45" fill="none" xmlns="http://www.w3.org/2000/svg">
<path d="M40.5896 30.2344C40.7754 30.5567 40.8258 30.9395 40.73 31.2989C40.6341 31.6583 40.3997 31.9651 40.0781 32.1521L23.2031 41.9959C22.9881 42.1213 22.7436 42.1873 22.4947 42.1873C22.2458 42.1873 22.0014 42.1213 21.7863 41.9959L4.91133 32.1521C4.59438 31.9617 4.36521 31.654 4.27342 31.2959C4.18163 30.9377 4.23461 30.5577 4.4209 30.2383C4.60719 29.9189 4.91178 29.6857 5.26874 29.5892C5.6257 29.4928 6.0063 29.5408 6.32812 29.7228L22.5 39.1535L38.6719 29.7228C38.9942 29.5371 39.377 29.4866 39.7364 29.5825C40.0958 29.6784 40.4026 29.9128 40.5896 30.2344ZM38.6719 21.2853L22.5 30.716L6.32812 21.2853C6.00793 21.1259 5.63902 21.0945 5.29647 21.1975C4.95393 21.3005 4.6635 21.5301 4.48431 21.8397C4.30511 22.1492 4.25061 22.5154 4.3319 22.8638C4.41319 23.2121 4.62416 23.5164 4.92188 23.7146L21.7969 33.5584C22.0119 33.6838 22.2564 33.7498 22.5053 33.7498C22.7542 33.7498 22.9986 33.6838 23.2137 33.5584L40.0887 23.7146C40.2508 23.6229 40.393 23.4999 40.5072 23.3528C40.6213 23.2057 40.7052 23.0374 40.7537 22.8576C40.8023 22.6778 40.8147 22.4902 40.7902 22.3056C40.7657 22.121 40.7048 21.9431 40.611 21.7822C40.5171 21.6214 40.3923 21.4807 40.2437 21.3685C40.0951 21.2563 39.9257 21.1747 39.7453 21.1285C39.5649 21.0822 39.3771 21.0723 39.1928 21.0992C39.0086 21.1262 38.8315 21.1894 38.6719 21.2853ZM4.21875 14.0625C4.21931 13.8162 4.28455 13.5743 4.40795 13.3612C4.53135 13.148 4.70857 12.971 4.92188 12.8478L21.7969 3.00408C22.0119 2.87869 22.2564 2.81262 22.5053 2.81262C22.7542 2.81262 22.9986 2.87869 23.2137 3.00408L40.0887 12.8478C40.301 12.9717 40.4771 13.149 40.5995 13.3621C40.7219 13.5752 40.7863 13.8167 40.7863 14.0625C40.7863 14.3083 40.7219 14.5497 40.5995 14.7628C40.4771 14.976 40.301 15.1533 40.0887 15.2771L23.2137 25.1209C22.9986 25.2463 22.7542 25.3123 22.5053 25.3123C22.2564 25.3123 22.0119 25.2463 21.7969 25.1209L4.92188 15.2771C4.70857 15.154 4.53135 14.977 4.40795 14.7638C4.28455 14.5506 4.21931 14.3088 4.21875 14.0625ZM8.41641 14.0625L22.5 22.2785L36.5836 14.0625L22.5 5.84647L8.41641 14.0625Z" fill="#0E53BE"/>
</svg>
