<svg width="45" height="45" viewBox="0 0 45 45" fill="none" xmlns="http://www.w3.org/2000/svg">
<path d="M43.0318 26.2687C42.884 26.3795 42.7159 26.4602 42.537 26.506C42.3581 26.5518 42.172 26.562 41.9892 26.5359C41.8063 26.5097 41.6305 26.4479 41.4716 26.3538C41.3127 26.2597 41.1738 26.1352 41.063 25.9875C40.2154 24.8482 39.1122 23.9238 37.8421 23.2888C36.572 22.6537 35.1705 22.3257 33.7505 22.3312C33.474 22.3312 33.2036 22.2497 32.9732 22.0968C32.7428 21.9439 32.5625 21.7265 32.455 21.4717C32.382 21.2987 32.3444 21.1128 32.3444 20.925C32.3444 20.7372 32.382 20.5513 32.455 20.3783C32.5625 20.1235 32.7428 19.9061 32.9732 19.7532C33.2036 19.6003 33.474 19.5188 33.7505 19.5187C34.5396 19.5187 35.3128 19.2973 35.9823 18.8799C36.6518 18.4624 37.1909 17.8655 37.5382 17.157C37.8855 16.4485 38.0272 15.6569 37.9471 14.8719C37.8671 14.0869 37.5685 13.3402 37.0853 12.7164C36.6021 12.0926 35.9536 11.6169 35.2136 11.3432C34.4735 11.0695 33.6716 11.0088 32.8988 11.1681C32.126 11.3273 31.4133 11.7001 30.8418 12.244C30.2702 12.788 29.8626 13.4813 29.6654 14.2453C29.6192 14.4242 29.5383 14.5923 29.4271 14.7399C29.316 14.8875 29.1769 15.0118 29.0178 15.1056C28.8586 15.1995 28.6826 15.2611 28.4996 15.2869C28.3167 15.3127 28.1304 15.3022 27.9515 15.2561C27.7726 15.2099 27.6046 15.1289 27.4569 15.0178C27.3093 14.9067 27.185 14.7676 27.0912 14.6084C26.9973 14.4493 26.9357 14.2732 26.9099 14.0903C26.8841 13.9073 26.8946 13.7211 26.9408 13.5422C27.2146 12.4828 27.7318 11.5019 28.4514 10.6776C29.171 9.85325 30.073 9.20825 31.0858 8.79389C32.0985 8.37954 33.194 8.20726 34.285 8.29077C35.376 8.37428 36.4325 8.71128 37.3704 9.27494C38.3082 9.8386 39.1016 10.6134 39.6873 11.5376C40.2731 12.4618 40.635 13.51 40.7444 14.5988C40.8538 15.6875 40.7075 16.7867 40.3173 17.809C39.9271 18.8313 39.3036 19.7484 38.4966 20.4873C40.4088 21.3152 42.0711 22.629 43.3183 24.2982C43.4291 24.4464 43.5096 24.6149 43.5552 24.7941C43.6007 24.9734 43.6105 25.1599 43.5839 25.3429C43.5573 25.526 43.4948 25.702 43.4001 25.8608C43.3053 26.0197 43.1802 26.1583 43.0318 26.2687ZM33.5607 37.0969C33.6624 37.2569 33.7308 37.4359 33.7615 37.6231C33.7923 37.8102 33.7849 38.0016 33.7398 38.1859C33.6947 38.3701 33.6128 38.5432 33.499 38.695C33.3852 38.8467 33.2419 38.9739 33.0777 39.0688C32.9135 39.1637 32.7318 39.2244 32.5435 39.2473C32.3552 39.2701 32.1643 39.2547 31.9821 39.2019C31.8 39.149 31.6304 39.0599 31.4836 38.9398C31.3368 38.8197 31.2158 38.6712 31.1279 38.5031C30.242 37.0031 28.9804 35.76 27.4675 34.8964C25.9545 34.0329 24.2426 33.5787 22.5005 33.5787C20.7585 33.5787 19.0465 34.0329 17.5336 34.8964C16.0207 35.76 14.759 37.0031 13.8732 38.5031C13.7853 38.6712 13.6643 38.8197 13.5175 38.9398C13.3707 39.0599 13.2011 39.149 13.0189 39.2019C12.8368 39.2547 12.6458 39.2701 12.4576 39.2473C12.2693 39.2244 12.0876 39.1637 11.9234 39.0688C11.7592 38.9739 11.6159 38.8467 11.5021 38.695C11.3883 38.5432 11.3064 38.3701 11.2613 38.1859C11.2161 38.0016 11.2087 37.8102 11.2395 37.6231C11.2703 37.4359 11.3386 37.2569 11.4404 37.0969C12.8037 34.7544 14.8825 32.9109 17.3712 31.8375C15.9708 30.7653 14.9416 29.2812 14.4283 27.5938C13.915 25.9065 13.9433 24.1006 14.5094 22.4302C15.0754 20.7598 16.1507 19.3087 17.5841 18.281C19.0174 17.2533 20.7368 16.7006 22.5005 16.7006C24.2643 16.7006 25.9836 17.2533 27.417 18.281C28.8504 19.3087 29.9257 20.7598 30.4917 22.4302C31.0577 24.1006 31.0861 25.9065 30.5728 27.5938C30.0594 29.2812 29.0302 30.7653 27.6298 31.8375C30.1186 32.9109 32.1973 34.7544 33.5607 37.0969ZM22.5005 30.7687C23.6131 30.7687 24.7006 30.4388 25.6256 29.8208C26.5506 29.2027 27.2716 28.3242 27.6974 27.2963C28.1231 26.2685 28.2345 25.1375 28.0175 24.0464C27.8004 22.9552 27.2647 21.9529 26.478 21.1663C25.6913 20.3796 24.6891 19.8439 23.5979 19.6268C22.5068 19.4098 21.3758 19.5212 20.3479 19.9469C19.3201 20.3727 18.4416 21.0936 17.8235 22.0187C17.2054 22.9437 16.8755 24.0312 16.8755 25.1437C16.8755 26.6356 17.4682 28.0663 18.5231 29.1212C19.5779 30.1761 21.0087 30.7687 22.5005 30.7687ZM12.6568 20.925C12.6568 20.552 12.5086 20.1944 12.2449 19.9306C11.9812 19.6669 11.6235 19.5187 11.2505 19.5187C10.4615 19.5187 9.6883 19.2973 9.01876 18.8799C8.34922 18.4624 7.81017 17.8655 7.46285 17.157C7.11553 16.4485 6.97386 15.6569 7.05393 14.8719C7.134 14.0869 7.43259 13.3402 7.9158 12.7164C8.39901 12.0926 9.04746 11.6169 9.7875 11.3432C10.5275 11.0695 11.3295 11.0088 12.1023 11.1681C12.8751 11.3273 13.5878 11.7001 14.1593 12.244C14.7309 12.788 15.1384 13.4813 15.3357 14.2453C15.4289 14.6066 15.6619 14.9161 15.9833 15.1056C16.3047 15.2952 16.6883 15.3493 17.0496 15.2561C17.4109 15.1628 17.7203 14.9299 17.9099 14.6084C18.0994 14.287 18.1535 13.9035 18.0603 13.5422C17.7865 12.4828 17.2692 11.5019 16.5497 10.6776C15.8301 9.85325 14.928 9.20825 13.9153 8.79389C12.9026 8.37954 11.8071 8.20726 10.7161 8.29077C9.62506 8.37428 8.56858 8.71128 7.63072 9.27494C6.69285 9.8386 5.89948 10.6134 5.31373 11.5376C4.72799 12.4618 4.36603 13.51 4.25667 14.5988C4.14731 15.6875 4.29355 16.7867 4.68377 17.809C5.07399 18.8313 5.69742 19.7484 6.50444 20.4873C4.5942 21.316 2.93382 22.6298 1.68803 24.2982C1.46402 24.5966 1.36772 24.9717 1.4203 25.3411C1.47288 25.7105 1.67004 26.0439 1.9684 26.2679C2.26677 26.4919 2.64191 26.5882 3.01129 26.5356C3.38066 26.483 3.71402 26.2859 3.93803 25.9875C4.78563 24.8482 5.88888 23.9238 7.15898 23.2888C8.42907 22.6537 9.83053 22.3257 11.2505 22.3312C11.6235 22.3312 11.9812 22.1831 12.2449 21.9194C12.5086 21.6556 12.6568 21.298 12.6568 20.925Z" fill="#0E53BE"/>
</svg>
