<svg width="45" height="45" viewBox="0 0 45 45" fill="none" xmlns="http://www.w3.org/2000/svg">
<path d="M40.5896 30.2342C40.7754 30.5566 40.8258 30.9393 40.73 31.2988C40.6341 31.6582 40.3997 31.965 40.0781 32.152L23.2031 41.9958C22.9881 42.1212 22.7436 42.1872 22.4947 42.1872C22.2458 42.1872 22.0014 42.1212 21.7863 41.9958L4.91133 32.152C4.59438 31.9616 4.36521 31.6539 4.27342 31.2957C4.18163 30.9375 4.23461 30.5576 4.4209 30.2382C4.60719 29.9188 4.91178 29.6856 5.26874 29.5891C5.6257 29.4926 6.0063 29.5406 6.32812 29.7227L22.5 39.1534L38.6719 29.7227C38.9942 29.537 39.377 29.4865 39.7364 29.5824C40.0958 29.6783 40.4026 29.9127 40.5896 30.2342ZM38.6719 21.2852L22.5 30.7159L6.32812 21.2852C6.00793 21.1258 5.63902 21.0944 5.29647 21.1974C4.95393 21.3003 4.6635 21.53 4.48431 21.8395C4.30511 22.1491 4.25061 22.5153 4.3319 22.8637C4.41319 23.212 4.62416 23.5162 4.92188 23.7145L21.7969 33.5583C22.0119 33.6837 22.2564 33.7497 22.5053 33.7497C22.7542 33.7497 22.9986 33.6837 23.2137 33.5583L40.0887 23.7145C40.2508 23.6228 40.393 23.4998 40.5072 23.3527C40.6213 23.2056 40.7052 23.0373 40.7537 22.8575C40.8023 22.6777 40.8147 22.4901 40.7902 22.3055C40.7657 22.1209 40.7048 21.943 40.611 21.7821C40.5171 21.6212 40.3923 21.4806 40.2437 21.3684C40.0951 21.2562 39.9257 21.1746 39.7453 21.1283C39.5649 21.0821 39.3771 21.0722 39.1928 21.0991C39.0086 21.126 38.8315 21.1893 38.6719 21.2852ZM4.21875 14.0624C4.21931 13.8161 4.28455 13.5742 4.40795 13.3611C4.53135 13.1479 4.70857 12.9709 4.92188 12.8477L21.7969 3.00396C22.0119 2.87857 22.2564 2.8125 22.5053 2.8125C22.7542 2.8125 22.9986 2.87857 23.2137 3.00396L40.0887 12.8477C40.301 12.9716 40.4771 13.1489 40.5995 13.362C40.7219 13.5751 40.7863 13.8166 40.7863 14.0624C40.7863 14.3081 40.7219 14.5496 40.5995 14.7627C40.4771 14.9758 40.301 15.1532 40.0887 15.277L23.2137 25.1208C22.9986 25.2462 22.7542 25.3122 22.5053 25.3122C22.2564 25.3122 22.0119 25.2462 21.7969 25.1208L4.92188 15.277C4.70857 15.1539 4.53135 14.9768 4.40795 14.7637C4.28455 14.5505 4.21931 14.3087 4.21875 14.0624ZM8.41641 14.0624L22.5 22.2784L36.5836 14.0624L22.5 5.84634L8.41641 14.0624Z" fill="#0E53BE"/>
</svg>
