<svg width="45" height="45" viewBox="0 0 45 45" fill="none" xmlns="http://www.w3.org/2000/svg">
<path d="M31.9324 26.2238C32.0632 26.3544 32.1669 26.5095 32.2377 26.6802C32.3084 26.851 32.3449 27.0339 32.3449 27.2188C32.3449 27.4036 32.3084 27.5865 32.2377 27.7573C32.1669 27.928 32.0632 28.0831 31.9324 28.2137L27.7137 32.4324C27.4498 32.6963 27.0919 32.8445 26.7188 32.8445C26.3456 32.8445 25.9877 32.6963 25.7238 32.4324C25.46 32.1686 25.3117 31.8107 25.3117 31.4375C25.3117 31.0643 25.46 30.7064 25.7238 30.4426L28.9494 27.2188L25.7238 23.9949C25.46 23.7311 25.3117 23.3732 25.3117 23C25.3117 22.6268 25.46 22.2689 25.7238 22.0051C25.9877 21.7412 26.3456 21.593 26.7188 21.593C27.0919 21.593 27.4498 21.7412 27.7137 22.0051L31.9324 26.2238ZM19.2762 22.0051C19.1456 21.8743 18.9905 21.7706 18.8198 21.6998C18.649 21.6291 18.4661 21.5926 18.2812 21.5926C18.0964 21.5926 17.9135 21.6291 17.7427 21.6998C17.572 21.7706 17.4169 21.8743 17.2863 22.0051L13.0676 26.2238C12.9368 26.3544 12.8331 26.5095 12.7623 26.6802C12.6916 26.851 12.6551 27.0339 12.6551 27.2188C12.6551 27.4036 12.6916 27.5865 12.7623 27.7573C12.8331 27.928 12.9368 28.0831 13.0676 28.2137L17.2863 32.4324C17.417 32.5631 17.5721 32.6667 17.7428 32.7374C17.9135 32.8081 18.0965 32.8445 18.2812 32.8445C18.466 32.8445 18.649 32.8081 18.8197 32.7374C18.9904 32.6667 19.1455 32.5631 19.2762 32.4324C19.4068 32.3018 19.5105 32.1467 19.5812 31.9759C19.6519 31.8052 19.6883 31.6223 19.6883 31.4375C19.6883 31.2527 19.6519 31.0698 19.5812 30.8991C19.5105 30.7283 19.4068 30.5732 19.2762 30.4426L16.0506 27.2188L19.2762 23.9949C19.4069 23.8643 19.5106 23.7092 19.5814 23.5385C19.6522 23.3678 19.6886 23.1848 19.6886 23C19.6886 22.8152 19.6522 22.6322 19.5814 22.4615C19.5106 22.2908 19.4069 22.1357 19.2762 22.0051ZM37.9688 15.9688V38.4688C37.9688 39.2147 37.6724 39.93 37.145 40.4575C36.6175 40.9849 35.9022 41.2812 35.1562 41.2812H9.84375C9.09783 41.2812 8.38246 40.9849 7.85501 40.4575C7.32757 39.93 7.03125 39.2147 7.03125 38.4688V7.53125C7.03125 6.78533 7.32757 6.06996 7.85501 5.54251C8.38246 5.01507 9.09783 4.71875 9.84375 4.71875H26.7188C26.9035 4.71861 27.0864 4.75486 27.2571 4.82543C27.4278 4.89601 27.583 4.99953 27.7137 5.13008L37.5574 14.9738C37.688 15.1045 37.7915 15.2597 37.8621 15.4304C37.9326 15.6011 37.9689 15.784 37.9688 15.9688ZM28.125 14.5625H33.1682L28.125 9.51934V14.5625ZM35.1562 38.4688V17.375H26.7188C26.3458 17.375 25.9881 17.2268 25.7244 16.9631C25.4607 16.6994 25.3125 16.3417 25.3125 15.9688V7.53125H9.84375V38.4688H35.1562Z" fill="#0E53BE"/>
</svg>
