<?xml version="1.0" encoding="utf-8"?>
<!-- Generator: Adobe Illustrator 24.1.1, SVG Export Plug-In . SVG Version: 6.00 Build 0)  -->
<svg version="1.1" id="Layer_1" xmlns="http://www.w3.org/2000/svg" xmlns:xlink="http://www.w3.org/1999/xlink" x="0px" y="0px"
	 viewBox="0 0 473.6 370" style="enable-background:new 0 0 473.6 370;" xml:space="preserve">
<style type="text/css">
	.st0{clip-path:url(#SVGID_2_);}
	.st1{fill:#007AFB;}
</style>
<g>
	<defs>
		<rect id="SVGID_1_" x="0" y="0" width="473.6" height="370"/>
	</defs>
	<clipPath id="SVGID_2_">
		<use xlink:href="#SVGID_1_"  style="overflow:visible;"/>
	</clipPath>
	<g class="st0">
		<path class="st1" d="M436.6,0H37C16.6,0,0,16.6,0,37v236.8c0,20.4,16.6,37,37,37h162.8v14.8h-22.2c-8.5,0-16.1,4.7-19.9,12.3
			L147,359.3c-1.1,2.3-1,5,0.3,7.2c1.4,2.2,3.7,3.5,6.3,3.5h166.3c2.6,0,4.9-1.3,6.3-3.5c1.4-2.2,1.5-4.9,0.3-7.2l-10.7-21.4
			c-3.8-7.6-11.4-12.3-19.9-12.3h-22.2v-14.8h162.8c20.4,0,37-16.6,37-37V37C473.6,16.6,457,0,436.6,0L436.6,0z M302.6,344.5
			l5.4,10.7H165.6l5.4-10.7c1.3-2.5,3.8-4.1,6.6-4.1H296C298.8,340.4,301.3,342,302.6,344.5L302.6,344.5z M259,325.6h-44.4v-14.8
			H259V325.6z M458.8,273.8c0,12.2-10,22.2-22.2,22.2H37c-12.2,0-22.2-10-22.2-22.2V37c0-12.2,10-22.2,22.2-22.2h399.6
			c12.2,0,22.2,10,22.2,22.2V273.8z"/>
	</g>
</g>
<path class="st1" d="M429.2,29.6H44.4c-8.2,0-14.8,6.6-14.8,14.8v222c0,8.2,6.6,14.8,14.8,14.8h384.8c8.2,0,14.8-6.6,14.8-14.8
	l0-222C444,36.2,437.3,29.6,429.2,29.6L429.2,29.6z M429.2,266.4H44.4v-222h384.8V266.4z"/>
<path class="st1" d="M81.4,133.2c9.6,0,17.8-6.2,20.8-14.8h23.6c4.1,0,7.4-3.3,7.4-7.4c0-4.1-3.3-7.4-7.4-7.4h-23.6
	C99.2,95,91,88.8,81.4,88.8c-12.2,0-22.2,10-22.2,22.2C59.2,123.2,69.2,133.2,81.4,133.2L81.4,133.2z M81.4,103.6
	c4.1,0,7.4,3.3,7.4,7.4c0,4.1-3.3,7.4-7.4,7.4c-4.1,0-7.4-3.3-7.4-7.4C74,106.9,77.3,103.6,81.4,103.6z"/>
<path class="st1" d="M81.4,251.6c9.6,0,17.8-6.2,20.8-14.8l23.6,0c4.1,0,7.4-3.3,7.4-7.4c0-4.1-3.3-7.4-7.4-7.4h-23.6
	c-3.1-8.6-11.2-14.8-20.8-14.8c-12.2,0-22.2,10-22.2,22.2C59.2,241.6,69.2,251.6,81.4,251.6L81.4,251.6z M81.4,222
	c4.1,0,7.4,3.3,7.4,7.4c0,4.1-3.3,7.4-7.4,7.4c-4.1,0-7.4-3.3-7.4-7.4C74,225.3,77.3,222,81.4,222z"/>
<path class="st1" d="M155.4,118.4H185c4.1,0,7.4-3.3,7.4-7.4c0-4.1-3.3-7.4-7.4-7.4h-29.6c-4.1,0-7.4,3.3-7.4,7.4
	C148,115.1,151.3,118.4,155.4,118.4z"/>
<path class="st1" d="M214.6,118.4h23.6c3.1,8.6,11.2,14.8,20.8,14.8c12.2,0,22.2-10,22.2-22.2c0-12.2-10-22.2-22.2-22.2
	c-9.6,0-17.8,6.2-20.8,14.8h-23.6c-4.1,0-7.4,3.3-7.4,7.4C207.2,115.1,210.5,118.4,214.6,118.4L214.6,118.4z M259,103.6
	c4.1,0,7.4,3.3,7.4,7.4c0,4.1-3.3,7.4-7.4,7.4c-4.1,0-7.4-3.3-7.4-7.4C251.6,106.9,254.9,103.6,259,103.6z"/>
<path class="st1" d="M185,222h-29.6c-4.1,0-7.4,3.3-7.4,7.4c0,4.1,3.3,7.4,7.4,7.4H185c4.1,0,7.4-3.3,7.4-7.4S189.1,222,185,222z"/>
<path class="st1" d="M74,155.4V185c0,4.1,3.3,7.4,7.4,7.4c4.1,0,7.4-3.3,7.4-7.4v-29.6c0-4.1-3.3-7.4-7.4-7.4
	C77.3,148,74,151.3,74,155.4z"/>
<path class="st1" d="M259,207.2c-9.6,0-17.8,6.2-20.8,14.8h-23.6c-4.1,0-7.4,3.3-7.4,7.4c0,4.1,3.3,7.4,7.4,7.4h23.6
	c3.1,8.6,11.2,14.8,20.8,14.8c12.2,0,22.2-10,22.2-22.2C281.2,217.2,271.2,207.2,259,207.2L259,207.2z M259,236.8
	c-4.1,0-7.4-3.3-7.4-7.4c0-4.1,3.3-7.4,7.4-7.4c4.1,0,7.4,3.3,7.4,7.4C266.4,233.5,263.1,236.8,259,236.8z"/>
<path class="st1" d="M266.4,185v-29.6c0-4.1-3.3-7.4-7.4-7.4c-4.1,0-7.4,3.3-7.4,7.4V185c0,4.1,3.3,7.4,7.4,7.4
	C263.1,192.4,266.4,189.1,266.4,185z"/>
<path class="st1" d="M236.8,199.8v-59.2c0-4.1-3.3-7.4-7.4-7.4H111c-4.1,0-7.4,3.3-7.4,7.4v59.2c0,4.1,3.3,7.4,7.4,7.4h118.4
	C233.5,207.2,236.8,203.9,236.8,199.8z M222,192.4H118.4V148H222V192.4z"/>
<path class="st1" d="M377.4,148H407c4.1,0,7.4-3.3,7.4-7.4c0-4.1-3.3-7.4-7.4-7.4h-29.6c-4.1,0-7.4,3.3-7.4,7.4
	C370,144.7,373.3,148,377.4,148z"/>
<path class="st1" d="M303.4,177.6H407c4.1,0,7.4-3.3,7.4-7.4c0-4.1-3.3-7.4-7.4-7.4l-103.6,0c-4.1,0-7.4,3.3-7.4,7.4
	C296,174.3,299.3,177.6,303.4,177.6z"/>
<path class="st1" d="M303.4,207.2h44.4c4.1,0,7.4-3.3,7.4-7.4c0-4.1-3.3-7.4-7.4-7.4h-44.4c-4.1,0-7.4,3.3-7.4,7.4
	C296,203.9,299.3,207.2,303.4,207.2z"/>
<path class="st1" d="M325.6,140.6c0,4.1-3.3,7.4-7.4,7.4s-7.4-3.3-7.4-7.4c0-4.1,3.3-7.4,7.4-7.4S325.6,136.5,325.6,140.6"/>
<path class="st1" d="M355.2,140.6c0,4.1-3.3,7.4-7.4,7.4s-7.4-3.3-7.4-7.4c0-4.1,3.3-7.4,7.4-7.4S355.2,136.5,355.2,140.6"/>
<path class="st1" d="M384.8,199.8c0,4.1-3.3,7.4-7.4,7.4c-4.1,0-7.4-3.3-7.4-7.4s3.3-7.4,7.4-7.4
	C381.5,192.4,384.8,195.7,384.8,199.8"/>
<path class="st1" d="M74,66.6c0,4.1-3.3,7.4-7.4,7.4s-7.4-3.3-7.4-7.4s3.3-7.4,7.4-7.4S74,62.5,74,66.6"/>
<path class="st1" d="M103.6,66.6c0,4.1-3.3,7.4-7.4,7.4s-7.4-3.3-7.4-7.4s3.3-7.4,7.4-7.4S103.6,62.5,103.6,66.6"/>
<path class="st1" d="M133.2,66.6c0,4.1-3.3,7.4-7.4,7.4c-4.1,0-7.4-3.3-7.4-7.4s3.3-7.4,7.4-7.4C129.9,59.2,133.2,62.5,133.2,66.6"
	/>
</svg>
