<svg width="475" height="370" viewBox="0 0 475 370" fill="none" xmlns="http://www.w3.org/2000/svg">
<g clip-path="url(#clip0_493_1092)">
<mask id="mask0_493_1092" style="mask-type:luminance" maskUnits="userSpaceOnUse" x="0" y="0" width="475" height="370">
<path d="M474.1 0H0.5V370H474.1V0Z" fill="white"/>
</mask>
<g mask="url(#mask0_493_1092)">
<path d="M437.1 0H37.5C17.1 0 0.5 16.6 0.5 37V273.8C0.5 294.2 17.1 310.8 37.5 310.8H200.3V325.6H178.1C169.6 325.6 162 330.3 158.2 337.9L147.5 359.3C146.4 361.6 146.5 364.3 147.8 366.5C149.2 368.7 151.5 370 154.1 370H320.4C323 370 325.3 368.7 326.7 366.5C328.1 364.3 328.2 361.6 327 359.3L316.3 337.9C312.5 330.3 304.9 325.6 296.4 325.6H274.2V310.8H437C457.4 310.8 474 294.2 474 273.8V37C474.1 16.6 457.5 0 437.1 0ZM303.1 344.5L308.5 355.2H166.1L171.5 344.5C172.8 342 175.3 340.4 178.1 340.4H296.5C299.3 340.4 301.8 342 303.1 344.5ZM259.5 325.6H215.1V310.8H259.5V325.6ZM459.3 273.8C459.3 286 449.3 296 437.1 296H37.5C25.3 296 15.3 286 15.3 273.8V37C15.3 24.8 25.3 14.8 37.5 14.8H437.1C449.3 14.8 459.3 24.8 459.3 37V273.8Z" fill="#0E53BE"/>
</g>
<path d="M429.7 29.6H44.9C36.7 29.6 30.1 36.2 30.1 44.4V266.4C30.1 274.6 36.7 281.2 44.9 281.2H429.7C437.9 281.2 444.5 274.6 444.5 266.4V44.4C444.5 36.2 437.8 29.6 429.7 29.6ZM429.7 266.4H44.9V44.4H429.7V266.4Z" fill="#0E53BE"/>
<path d="M81.9 133.2C91.5 133.2 99.6999 127 102.7 118.4H126.3C130.4 118.4 133.7 115.1 133.7 111C133.7 106.9 130.4 103.6 126.3 103.6H102.7C99.6999 95 91.5 88.8 81.9 88.8C69.7 88.8 59.7 98.8 59.7 111C59.7 123.2 69.7 133.2 81.9 133.2ZM81.9 103.6C86 103.6 89.3 106.9 89.3 111C89.3 115.1 86 118.4 81.9 118.4C77.8 118.4 74.5 115.1 74.5 111C74.5 106.9 77.8 103.6 81.9 103.6Z" fill="#0E53BE"/>
<path d="M81.9 251.6C91.5 251.6 99.6999 245.4 102.7 236.8H126.3C130.4 236.8 133.7 233.5 133.7 229.4C133.7 225.3 130.4 222 126.3 222H102.7C99.5999 213.4 91.5 207.2 81.9 207.2C69.7 207.2 59.7 217.2 59.7 229.4C59.7 241.6 69.7 251.6 81.9 251.6ZM81.9 222C86 222 89.3 225.3 89.3 229.4C89.3 233.5 86 236.8 81.9 236.8C77.8 236.8 74.5 233.5 74.5 229.4C74.5 225.3 77.8 222 81.9 222Z" fill="#0E53BE"/>
<path d="M155.9 118.4H185.5C189.6 118.4 192.9 115.1 192.9 111C192.9 106.9 189.6 103.6 185.5 103.6H155.9C151.8 103.6 148.5 106.9 148.5 111C148.5 115.1 151.8 118.4 155.9 118.4Z" fill="#0E53BE"/>
<path d="M215.1 118.4H238.7C241.8 127 249.9 133.2 259.5 133.2C271.7 133.2 281.7 123.2 281.7 111C281.7 98.8 271.7 88.8 259.5 88.8C249.9 88.8 241.7 95 238.7 103.6H215.1C211 103.6 207.7 106.9 207.7 111C207.7 115.1 211 118.4 215.1 118.4ZM259.5 103.6C263.6 103.6 266.9 106.9 266.9 111C266.9 115.1 263.6 118.4 259.5 118.4C255.4 118.4 252.1 115.1 252.1 111C252.1 106.9 255.4 103.6 259.5 103.6Z" fill="#0E53BE"/>
<path d="M185.5 222H155.9C151.8 222 148.5 225.3 148.5 229.4C148.5 233.5 151.8 236.8 155.9 236.8H185.5C189.6 236.8 192.9 233.5 192.9 229.4C192.9 225.3 189.6 222 185.5 222Z" fill="#0E53BE"/>
<path d="M74.5 155.4V185C74.5 189.1 77.8 192.4 81.9 192.4C86 192.4 89.3 189.1 89.3 185V155.4C89.3 151.3 86 148 81.9 148C77.8 148 74.5 151.3 74.5 155.4Z" fill="#0E53BE"/>
<path d="M259.5 207.2C249.9 207.2 241.7 213.4 238.7 222H215.1C211 222 207.7 225.3 207.7 229.4C207.7 233.5 211 236.8 215.1 236.8H238.7C241.8 245.4 249.9 251.6 259.5 251.6C271.7 251.6 281.7 241.6 281.7 229.4C281.7 217.2 271.7 207.2 259.5 207.2ZM259.5 236.8C255.4 236.8 252.1 233.5 252.1 229.4C252.1 225.3 255.4 222 259.5 222C263.6 222 266.9 225.3 266.9 229.4C266.9 233.5 263.6 236.8 259.5 236.8Z" fill="#0E53BE"/>
<path d="M266.9 185V155.4C266.9 151.3 263.6 148 259.5 148C255.4 148 252.1 151.3 252.1 155.4V185C252.1 189.1 255.4 192.4 259.5 192.4C263.6 192.4 266.9 189.1 266.9 185Z" fill="#0E53BE"/>
<path d="M237.3 199.8V140.6C237.3 136.5 234 133.2 229.9 133.2H111.5C107.4 133.2 104.1 136.5 104.1 140.6V199.8C104.1 203.9 107.4 207.2 111.5 207.2H229.9C234 207.2 237.3 203.9 237.3 199.8ZM222.5 192.4H118.9V148H222.5V192.4Z" fill="#0E53BE"/>
<path d="M377.9 148H407.5C411.6 148 414.9 144.7 414.9 140.6C414.9 136.5 411.6 133.2 407.5 133.2H377.9C373.8 133.2 370.5 136.5 370.5 140.6C370.5 144.7 373.8 148 377.9 148Z" fill="#0E53BE"/>
<path d="M303.9 177.6H407.5C411.6 177.6 414.9 174.3 414.9 170.2C414.9 166.1 411.6 162.8 407.5 162.8H303.9C299.8 162.8 296.5 166.1 296.5 170.2C296.5 174.3 299.8 177.6 303.9 177.6Z" fill="#0E53BE"/>
<path d="M303.9 207.2H348.3C352.4 207.2 355.7 203.9 355.7 199.8C355.7 195.7 352.4 192.4 348.3 192.4H303.9C299.8 192.4 296.5 195.7 296.5 199.8C296.5 203.9 299.8 207.2 303.9 207.2Z" fill="#0E53BE"/>
<path d="M326.1 140.6C326.1 144.7 322.8 148 318.7 148C314.6 148 311.3 144.7 311.3 140.6C311.3 136.5 314.6 133.2 318.7 133.2C322.8 133.2 326.1 136.5 326.1 140.6Z" fill="#0E53BE"/>
<path d="M355.7 140.6C355.7 144.7 352.4 148 348.3 148C344.2 148 340.9 144.7 340.9 140.6C340.9 136.5 344.2 133.2 348.3 133.2C352.4 133.2 355.7 136.5 355.7 140.6Z" fill="#0E53BE"/>
<path d="M385.3 199.8C385.3 203.9 382 207.2 377.9 207.2C373.8 207.2 370.5 203.9 370.5 199.8C370.5 195.7 373.8 192.4 377.9 192.4C382 192.4 385.3 195.7 385.3 199.8Z" fill="#0E53BE"/>
<path d="M74.5 66.6C74.5 70.7 71.1999 74 67.0999 74C62.9999 74 59.7 70.7 59.7 66.6C59.7 62.5 62.9999 59.2 67.0999 59.2C71.1999 59.2 74.5 62.5 74.5 66.6Z" fill="#0E53BE"/>
<path d="M104.1 66.6C104.1 70.7 100.8 74 96.7 74C92.6 74 89.3 70.7 89.3 66.6C89.3 62.5 92.6 59.2 96.7 59.2C100.8 59.2 104.1 62.5 104.1 66.6Z" fill="#0E53BE"/>
<path d="M133.7 66.6C133.7 70.7 130.4 74 126.3 74C122.2 74 118.9 70.7 118.9 66.6C118.9 62.5 122.2 59.2 126.3 59.2C130.4 59.2 133.7 62.5 133.7 66.6Z" fill="#0E53BE"/>
</g>
<defs>
<clipPath id="clip0_493_1092">
<rect width="473.6" height="370" fill="white" transform="translate(0.5)"/>
</clipPath>
</defs>
</svg>
