<svg width="55" height="55" viewBox="0 0 55 55" fill="none" xmlns="http://www.w3.org/2000/svg">
<path d="M29.7915 42.9307H25.3609C24.597 42.9307 23.9859 42.4723 23.8331 41.7084L23.0692 38.9584C22.7637 38.8057 22.7637 38.8057 22.4581 38.6529L20.0137 40.0279C19.4026 40.3334 18.6387 40.3334 18.1803 39.7223L14.972 36.514C14.5137 36.0557 14.3609 35.2918 14.6665 34.6807L16.0415 32.2362C15.8887 31.9307 15.8887 31.9307 15.7359 31.6251L12.9859 30.8612C12.3748 30.7084 11.7637 30.0973 11.7637 29.3334V24.9029C11.7637 24.139 12.222 23.5279 12.9859 23.3751L15.7359 22.6112C15.8887 22.3057 15.8887 22.3057 16.0415 22.0001L14.6665 19.5557C14.3609 18.9446 14.3609 18.1807 14.972 17.7223L18.1803 14.514C18.6387 14.0557 19.4026 13.9029 20.0137 14.2084L22.4581 15.5834C22.7637 15.4307 22.7637 15.4307 23.0692 15.2779L23.8331 12.5279C23.9859 11.9168 24.597 11.3057 25.3609 11.3057H29.7915C30.5553 11.3057 31.1665 11.764 31.3192 12.5279L32.0831 15.2779C32.3887 15.4307 32.3887 15.4307 32.6942 15.5834L35.1387 14.2084C35.7498 13.9029 36.5137 13.9029 36.972 14.514L40.1803 17.7223C40.6387 18.1807 40.7915 18.9446 40.4859 19.5557L39.1109 22.0001C39.2637 22.3057 39.2637 22.3057 39.4165 22.6112L42.1665 23.3751C42.7776 23.5279 43.3887 24.139 43.3887 24.9029V29.3334C43.3887 30.0973 42.9303 30.7084 42.1665 30.8612L39.4165 31.6251C39.2637 31.9307 39.2637 31.9307 39.1109 32.2362L40.4859 34.6807C40.7915 35.2918 40.7915 36.0557 40.1803 36.514L36.972 39.7223C36.5137 40.1807 35.7498 40.3334 35.1387 40.0279L32.6942 38.6529C32.3887 38.8057 32.3887 38.8057 32.0831 38.9584L31.3192 41.7084C31.0137 42.4723 30.4026 42.9307 29.7915 42.9307ZM26.4303 39.8751H28.5692L29.3331 36.6668L30.097 36.3612C30.7081 36.2084 31.1665 35.9029 31.7776 35.7501L32.5415 35.2918L35.4442 36.9723L36.972 35.4446L35.2915 32.5418L35.7498 31.7779C36.0553 31.3196 36.2081 30.7084 36.3609 30.0973L36.6665 29.3334L39.8748 28.5696V26.4307L36.6665 25.6668L36.3609 24.9029C36.2081 24.2918 35.9026 23.8334 35.7498 23.2223L35.2915 22.4584L36.972 19.5557L35.4442 18.0279L32.5415 19.7084L31.7776 19.2501C31.3192 18.9446 30.7081 18.7918 30.097 18.639L29.3331 18.3334L28.5692 15.1251H26.4303L25.6664 18.3334L24.9026 18.639C24.2914 18.7918 23.8331 19.0973 23.222 19.2501L22.4581 19.7084L19.5553 18.0279L18.0276 19.5557L19.7081 22.4584L19.2498 23.2223C18.9442 23.6807 18.7915 24.2918 18.6387 24.9029L18.3331 25.6668L15.1248 26.4307V28.5696L18.3331 29.3334L18.6387 30.0973C18.7915 30.7084 19.097 31.1668 19.2498 31.7779L19.7081 32.5418L18.0276 35.4446L19.5553 36.9723L22.4581 35.2918L23.222 35.7501C23.6803 36.0557 24.2914 36.2084 24.9026 36.3612L25.6664 36.6668L26.4303 39.8751Z" fill="#007BFC"/>
<path d="M27.5001 34.0696C23.8334 34.0696 20.9307 31.1668 20.9307 27.5001C20.9307 23.8334 23.8334 20.9307 27.5001 20.9307C31.1668 20.9307 34.0696 23.8334 34.0696 27.5001C34.0696 31.1668 31.1668 34.0696 27.5001 34.0696ZM27.5001 23.9862C25.514 23.9862 23.9862 25.514 23.9862 27.5001C23.9862 29.4862 25.514 31.014 27.5001 31.014C29.4862 31.014 31.014 29.4862 31.014 27.5001C31.014 25.514 29.4862 23.9862 27.5001 23.9862Z" fill="#007BFC"/>
<path d="M27.5001 3.05566C26.5834 3.05566 25.9723 3.66678 25.9723 4.58344C25.9723 5.50011 26.5834 6.11122 27.5001 6.11122C39.264 6.11122 48.889 15.7362 48.889 27.5001C48.889 39.264 39.264 48.889 27.5001 48.889C15.7362 48.889 6.11122 39.264 6.11122 27.5001C6.11122 23.2223 7.33344 19.0973 9.77789 15.5834V17.4168C9.77789 18.3334 10.389 18.9446 11.3057 18.9446C12.2223 18.9446 12.8334 18.3334 12.8334 17.4168V9.77789H5.19455C4.27789 9.77789 3.66678 10.389 3.66678 11.3057C3.66678 12.2223 4.27789 12.8334 5.19455 12.8334H7.94455C4.73622 16.9584 3.05566 22.1529 3.05566 27.5001C3.05566 40.9445 14.0557 51.9445 27.5001 51.9445C40.9445 51.9445 51.9445 40.9445 51.9445 27.5001C51.9445 14.0557 40.9445 3.05566 27.5001 3.05566Z" fill="#007BFC"/>
</svg>
