<svg width="21" height="24" viewBox="0 0 21 24" fill="none" xmlns="http://www.w3.org/2000/svg">
<path d="M3.375 2H17.625C18.9355 2 20 3.12054 20 4.5V19.5C20 20.8795 18.9355 22 17.625 22H3.375C2.06451 22 1 20.8795 1 19.5V4.5C1 3.12054 2.06451 2 3.375 2ZM12.4891 12.8125C12.769 10.4509 13.5875 9.70982 14.669 9.70982C15.742 9.70982 16.5732 10.6116 16.5732 11.9286C16.5732 13.2455 15.7377 14.1473 14.669 14.1473C13.4857 14.1473 12.7054 13.1875 12.4891 12.8125ZM11.3567 10.9464C11.0089 10.2545 10.7502 9.32589 10.5424 8.46429H7.87478V11.9509C7.87478 13.2187 7.32768 14.1562 6.25469 14.1562C5.1817 14.1562 4.56674 13.2232 4.56674 11.9554L4.57946 8.46875H3.0442V11.9554C3.0442 12.9732 3.35804 13.8973 3.93058 14.5536C4.52009 15.2321 5.32165 15.5893 6.25469 15.5893C8.10804 15.5893 9.40156 14.0938 9.40156 11.9509V9.60714C9.59665 10.3795 10.0547 11.8616 10.9368 13.1652L10.1183 18.0982H11.679L12.2219 14.5982C12.4 14.7545 12.5908 14.8929 12.7902 15.0179C13.3118 15.3661 13.9098 15.5625 14.5248 15.5804H14.669C16.5817 15.5804 18.1 14.0223 18.1 11.9241C18.1 9.82589 16.5775 8.25446 14.669 8.25446C12.7435 8.25446 11.6621 9.58036 11.3567 10.9375V10.9464Z" fill="#0E53BE"/>
</svg>
