<svg width="72" height="72" viewBox="0 0 72 72" fill="none" xmlns="http://www.w3.org/2000/svg">
<path d="M0 11.9997H72V60.0002H0V11.9997Z" fill="#F0F0F0"/>
<path d="M0 17.9991H72V23.9986H0V17.9991ZM0 29.9997H72V35.9991H0V29.9997ZM0 41.9986H72V47.9981H0V41.9986ZM0 53.9991H72V59.9986H0V53.9991Z" fill="#D80027"/>
<path d="M0 11.9997H36V37.8461H0V11.9997Z" fill="#2E52B2"/>
<path d="M14.0373 22.5878L13.4575 24.3714H11.5822L13.0996 25.4732L12.5198 27.2568L14.0373 26.155L15.5538 27.2568L14.9742 25.4732L16.4917 24.3714H14.6161L14.0373 22.5878ZM14.6161 30.8081L14.0373 29.0246L13.4575 30.8081H11.5822L13.0996 31.9101L12.5198 33.6936L14.0373 32.5917L15.5538 33.6936L14.9742 31.9101L16.4917 30.8081H14.6161ZM6.69038 30.8081L6.11142 29.0246L5.53163 30.8081H3.65625L5.17373 31.9101L4.59394 33.6936L6.11142 32.5917L7.62806 33.6936L7.04841 31.9101L8.56561 30.8081H6.69038ZM6.11142 22.5878L5.53163 24.3714H3.65625L5.17373 25.4732L4.59394 27.2568L6.11142 26.155L7.62806 27.2568L7.04841 25.4732L8.56561 24.3714H6.69038L6.11142 22.5878ZM14.0373 16.1508L13.4575 17.9346H11.5822L13.0996 19.0366L12.5198 20.8201L14.0373 19.7182L15.5538 20.8201L14.9742 19.0366L16.4917 17.9346H14.6161L14.0373 16.1508ZM6.11142 16.1508L5.53163 17.9346H3.65625L5.17373 19.0366L4.59394 20.8201L6.11142 19.7182L7.62806 20.8201L7.04841 19.0366L8.56561 17.9346H6.69038L6.11142 16.1508ZM21.9631 22.5878L21.3834 24.3714H19.5081L21.0254 25.4732L20.4459 27.2568L21.9631 26.155L23.4799 27.2568L22.9001 25.4732L24.4176 24.3714H22.5422L21.9631 22.5878ZM22.5422 30.8081L21.9631 29.0246L21.3834 30.8081H19.5081L21.0254 31.9101L20.4459 33.6936L21.9631 32.5917L23.4799 33.6936L22.9001 31.9101L24.4176 30.8081H22.5422ZM30.4681 30.8081L29.8891 29.0246L29.3093 30.8081H27.4341L28.9513 31.9101L28.3717 33.6936L29.8891 32.5917L31.4058 33.6936L30.826 31.9101L32.3435 30.8081H30.4681ZM29.8891 22.5878L29.3093 24.3714H27.4341L28.9513 25.4732L28.3717 27.2568L29.8891 26.155L31.4058 27.2568L30.826 25.4732L32.3435 24.3714H30.4681L29.8891 22.5878ZM21.9631 16.1508L21.3834 17.9346H19.5081L21.0254 19.0366L20.4459 20.8201L21.9631 19.7182L23.4799 20.8201L22.9001 19.0366L24.4176 17.9346H22.5422L21.9631 16.1508ZM29.8891 16.1508L29.3093 17.9346H27.4341L28.9513 19.0366L28.3717 20.8201L29.8891 19.7182L31.4058 20.8201L30.826 19.0366L32.3435 17.9346H30.4681L29.8891 16.1508Z" fill="#F0F0F0"/>
</svg>
