<?xml version="1.0" encoding="utf-8"?>
<!-- Generator: Adobe Illustrator 24.1.1, SVG Export Plug-In . SVG Version: 6.00 Build 0)  -->
<svg version="1.1" id="Layer_1" xmlns="http://www.w3.org/2000/svg" xmlns:xlink="http://www.w3.org/1999/xlink" x="0px" y="0px"
	 viewBox="0 0 440.3 377.9" style="enable-background:new 0 0 440.3 377.9;" xml:space="preserve">
<style type="text/css">
	.st0{fill:#007AFB;}
</style>
<g>
	<path class="st0" d="M438.5,278.5l-89-89v-89c0-15.2-12.3-27.5-27.5-27.5s-27.5,12.3-27.5,27.5V134l-83.8-83.4
		c-10.9-10.9-28.4-10.9-39.3,0c-10.9,10.9-10.9,28.4,0,39.3l54.9,54.9c-4.3,1.4-8.5,3.8-11.8,7.1c-7.1,7.1-9.5,17.1-7.1,26.5
		c-6.2,0.5-11.8,3.3-16.6,8.1c-7.1,7.1-9.5,17.1-7.1,26.5c-6.2,0.5-11.8,3.3-16.6,8.1c-5.2,5.2-8.1,12.3-8.1,19.4
		c0,7.1,2.8,14.2,8.1,19.4l30.8,30.8c21.3,21.3,52.1,29.8,81.5,23.2l62,62c1.4,1.4,3.3,1.9,5.2,1.9c1.9,0,3.8-0.5,5.2-1.9l86.7-87.6
		C440.9,285.6,440.9,281.3,438.5,278.5L438.5,278.5z M346.2,360.4l-59.7-59.7c-1.4-1.4-3.3-1.9-5.2-1.9c-0.5,0-1.4,0-1.9,0.5
		c-25.6,7.1-53,0-71.5-18.5l-30.8-30.8c-5.2-5.2-5.2-13.7,0-18.9c5.2-5.2,13.7-5.2,18.9,0c2.8,2.8,7.1,2.8,9.9,0
		c1.4-1.4,1.9-3.3,1.9-5.2s-0.5-3.8-1.9-5.2l-5.2-5.2c-2.4-2.4-3.8-5.7-3.8-9.5s1.4-7.1,3.8-9.5c5.2-5.2,13.7-5.2,18.9,0
		c2.8,2.8,7.1,2.8,9.9,0c1.4-1.4,1.9-3.3,1.9-5.2s-0.5-3.8-1.9-5.2l-5.2-5.2c-5.2-5.2-5.2-13.7,0-18.9c5.2-5.2,13.7-5.2,18.9,0
		c2.8,2.8,7.1,2.8,9.9,0c2.8-2.8,2.8-7.1,0-9.9l-72-72.4c-5.2-5.2-5.2-13.7,0-18.9c5.2-5.2,13.7-5.2,18.9,0l95.7,95.7
		c1.9,1.9,5.2,2.8,7.6,1.4c2.8-0.9,4.3-3.8,4.3-6.6v-50.7c0-7.6,6.2-13.3,13.3-13.3c7.1,0,13.3,6.2,13.3,13.3v91.9
		c0,1.9,0.9,3.8,1.9,5.2l87.1,86.2L346.2,360.4z"/>
	<path class="st0" d="M191.8,136.4c3.8,0,7.1-3.3,7.1-7.1s-3.3-7.1-7.1-7.1c-29.8,0-54-24.2-54-54c0-29.8,24.6-54,54-54
		s54,24.2,54,54c0,3.8,3.3,7.1,7.1,7.1c3.8,0,7.1-3.3,7.1-7.1C260,30.8,229.2,0,191.8,0c-35,0-63.9,27-67.7,61.1l-86.7,0l8.5-4.3
		c3.3-1.9,4.7-6.2,3.3-9.5c-1.9-3.3-6.2-4.7-9.5-3.3l-36,17.5c-0.5,0-0.9,0.5-1.4,0.9L1.9,63c-0.5,0.5-0.9,0.9-0.9,1.4v0.5
		c-0.5,0.5-0.5,0.9-0.5,1.4v0.5c0,0.5-0.5,0.9-0.5,1.9c0,0.9,0,1.4,0.5,1.9V71c0,0.5,0.5,0.9,0.5,1.4v0.5c0.5,0.5,0.5,0.9,0.9,1.4
		l0.5,0.5c0.5,0.5,0.9,0.5,1.4,0.9l36,17.5c0.9,0.5,1.9,0.9,3.3,0.9c2.8,0,5.2-1.4,6.2-3.8c1.9-3.3,0.5-7.6-3.3-9.5l-8.5-5.7h86.7
		C127.9,109.4,156.8,136.4,191.8,136.4L191.8,136.4z"/>
</g>
</svg>
