<svg width="417" height="420" viewBox="0 0 417 420" fill="none" xmlns="http://www.w3.org/2000/svg">
<g clip-path="url(#clip0_493_1074)">
<path d="M403.7 167.5H318.6C311.5 167.5 305.7 173.3 305.7 180.4V215.8H263.9V180.4C263.9 173.3 258.1 167.5 251 167.5H214.3V127.2H288.9C296.5 127.2 302.8 121 302.8 113.4V13.8C302.8 6.2 296.6 0 288.9 0H125.6C118 0 111.8 6.2 111.8 13.8V113.3C111.8 120.9 118 127.1 125.6 127.1H200.2V167.4H166.1C159 167.4 153.2 173.2 153.2 180.3V215.7H111.3V180.3C111.3 173.2 105.5 167.4 98.4 167.4H13.4C6.3 167.4 0.5 173.2 0.5 180.3V265.4C0.5 272.5 6.3 278.3 13.4 278.3H98.5C105.6 278.3 111.4 272.5 111.4 265.4V230H153.3V265.4C153.3 272.5 159.1 278.3 166.2 278.3H200.3V318H58.1C54.2 318 51 321.2 51 325.1V367.7C51 371.6 54.2 374.8 58.1 374.8C62 374.8 65.2 371.6 65.2 367.7V332.2H200.3V412C200.3 415.9 203.5 419.1 207.4 419.1C211.3 419.1 214.5 415.9 214.5 412V332.1H349.3V367.6C349.3 371.5 352.5 374.7 356.4 374.7C360.3 374.7 363.5 371.5 363.5 367.6V325C363.5 321.1 360.3 317.9 356.4 317.9H214.4V278.2H251.1C258.2 278.2 264 272.4 264 265.3V230H305.8V265.4C305.8 272.5 311.6 278.3 318.7 278.3H403.8C410.9 278.3 416.7 272.5 416.7 265.4V180.3C416.6 173.2 410.8 167.5 403.7 167.5ZM97.1 264.1H14.7V181.7H97.1V264.1ZM288.7 106L220.7 63.6L288.7 21.2V106ZM273.1 14.2L207.4 55.2L141.7 14.2H273.1ZM126 21.2L194 63.6L126 106V21.2ZM141.6 113L207.3 72L273 113H141.6ZM249.8 264.1H167.4V181.7H249.8V264.1ZM402.4 264.1H320V181.7H402.4V264.1Z" fill="#0E53BE"/>
</g>
<defs>
<clipPath id="clip0_493_1074">
<rect width="416.1" height="419.1" fill="white" transform="translate(0.5)"/>
</clipPath>
</defs>
</svg>
