<?xml version="1.0" encoding="utf-8"?>
<!-- Generator: Adobe Illustrator 24.1.1, SVG Export Plug-In . SVG Version: 6.00 Build 0)  -->
<svg version="1.1" id="Layer_1" xmlns="http://www.w3.org/2000/svg" xmlns:xlink="http://www.w3.org/1999/xlink" x="0px" y="0px"
	 viewBox="0 0 416.1 419.1" style="enable-background:new 0 0 416.1 419.1;" xml:space="preserve">
<style type="text/css">
	.st0{fill:#007AFB;}
</style>
<path class="st0" d="M403.2,167.5h-85.1c-7.1,0-12.9,5.8-12.9,12.9v35.4h-41.8v-35.4c0-7.1-5.8-12.9-12.9-12.9h-36.7v-40.3h74.6
	c7.6,0,13.9-6.2,13.9-13.8V13.8c0-7.6-6.2-13.8-13.9-13.8L125.1,0c-7.6,0-13.8,6.2-13.8,13.8v99.5c0,7.6,6.2,13.8,13.8,13.8h74.6
	v40.3h-34.1c-7.1,0-12.9,5.8-12.9,12.9v35.4h-41.9v-35.4c0-7.1-5.8-12.9-12.9-12.9H12.9c-7.1,0-12.9,5.8-12.9,12.9v85.1
	c0,7.1,5.8,12.9,12.9,12.9h85.1c7.1,0,12.9-5.8,12.9-12.9V230h41.9v35.4c0,7.1,5.8,12.9,12.9,12.9h34.1v39.7H57.6
	c-3.9,0-7.1,3.2-7.1,7.1v42.6c0,3.9,3.2,7.1,7.1,7.1s7.1-3.2,7.1-7.1v-35.5h135.1V412c0,3.9,3.2,7.1,7.1,7.1s7.1-3.2,7.1-7.1l0-79.9
	h134.8v35.5c0,3.9,3.2,7.1,7.1,7.1c3.9,0,7.1-3.2,7.1-7.1V325c0-3.9-3.2-7.1-7.1-7.1H213.9v-39.7h36.7c7.1,0,12.9-5.8,12.9-12.9V230
	h41.8v35.4c0,7.1,5.8,12.9,12.9,12.9h85.1c7.1,0,12.9-5.8,12.9-12.9l0-85.1C416.1,173.2,410.3,167.5,403.2,167.5L403.2,167.5z
	 M96.6,264.1H14.2v-82.4h82.4V264.1z M288.2,106l-68-42.4l68-42.4V106z M272.6,14.2l-65.7,41l-65.7-41H272.6z M125.5,21.2l68,42.4
	l-68,42.4V21.2z M141.1,113l65.7-41l65.7,41H141.1z M249.3,264.1h-82.4v-82.4h82.4L249.3,264.1z M401.9,264.1h-82.4v-82.4h82.4
	V264.1z"/>
</svg>
