<svg width="82" height="43" viewBox="0 0 82 43" fill="none" xmlns="http://www.w3.org/2000/svg">
<path d="M18.4096 41.7992C8.8101 41.7992 1 33.8923 1 24.1734C1 14.4547 8.8094 6.54749 18.4096 6.54749C28.0099 6.54749 35.8193 14.4544 35.8193 24.1734C35.82 33.892 28.0099 41.7992 18.4096 41.7992ZM18.4096 9.12824C10.233 9.12824 3.58093 15.8778 3.58093 24.1742C3.58093 32.47 10.233 39.2195 18.4096 39.2195C26.587 39.2195 33.2391 32.47 33.2391 24.1742C33.2391 15.8778 26.587 9.12824 18.4096 9.12824Z" fill="#007BFC" stroke="#007BFC" stroke-width="2"/>
<path d="M63.5903 41.7992C53.9901 41.7992 46.1807 33.8923 46.1807 24.1734C46.1807 14.4547 53.9901 6.54749 63.5903 6.54749C73.1898 6.54749 80.9999 14.4544 80.9999 24.1734C80.9999 33.892 73.1905 41.7992 63.5903 41.7992ZM63.5903 9.12824C55.4137 9.12824 48.7609 15.8771 48.7609 24.1735C48.7616 32.47 55.4137 39.2195 63.5903 39.2195C71.7676 39.2195 78.4197 32.47 78.4197 24.1742C78.4197 15.8778 71.7676 9.12824 63.5903 9.12824Z" fill="#007BFC" stroke="#007BFC" stroke-width="2"/>
<path d="M8.70551 25.4638C7.99303 25.4638 7.41541 24.8855 7.41541 24.1737C7.41541 17.9855 12.3469 12.9504 18.4093 12.9504C19.1217 12.9504 19.6994 13.5287 19.6994 14.2405C19.6994 14.953 19.1211 15.5306 18.4093 15.5306C13.7705 15.5306 9.99634 19.4077 9.99634 24.173C9.99566 24.8862 9.41872 25.4638 8.70556 25.4638L8.70551 25.4638Z" fill="#007BFC" stroke="#007BFC" stroke-width="2"/>
<path d="M53.5515 25.1901C52.839 25.1901 52.2614 24.6118 52.2614 23.9C52.2614 17.7117 57.1929 12.6766 63.2552 12.6766C63.9677 12.6766 64.5453 13.2549 64.5453 13.9667C64.5453 14.6792 63.967 15.2568 63.2552 15.2568C58.6165 15.2568 54.8423 19.1332 54.8423 23.8992C54.8423 24.6117 54.264 25.19 53.5515 25.19L53.5515 25.1901Z" fill="#007BFC" stroke="#007BFC" stroke-width="2"/>
<path d="M34.8305 23.0051L33.8878 20.6027L36.3523 19.6354C39.3527 18.457 42.653 18.472 45.6446 19.677L47.9536 20.6068L46.9891 23.0004L44.6808 22.0707C42.3035 21.1123 39.6804 21.1014 37.2956 22.038L34.8305 23.0051Z" fill="#007BFC" stroke="#007BFC" stroke-width="2"/>
<path d="M59.7698 9.59214H48.5526C47.9409 9.59214 47.413 9.16234 47.289 8.5636C46.7863 6.13943 44.6448 4.37929 42.1974 4.37929H39.3903C37.0179 4.37929 34.9465 6.00384 34.3538 8.32924L34.2796 8.62078C34.1338 9.19226 33.6189 9.59143 33.029 9.59143L22.2306 9.59211V7.01117H32.0596C33.1536 3.90921 36.075 1.79822 39.3902 1.79822H42.1973C45.5036 1.79822 48.4359 3.93571 49.5286 7.01117H59.7697L59.7698 9.59214Z" fill="#007BFC" stroke="#007BFC" stroke-width="2"/>
<path d="M40.9146 16.9073C38.4243 16.9073 36.3986 14.8816 36.3986 12.3913C36.3986 9.90109 38.4243 7.87537 40.9146 7.87537C43.4048 7.87537 45.4306 9.90109 45.4306 12.3913C45.4306 14.8816 43.4048 16.9073 40.9146 16.9073ZM40.9146 10.4554C39.8472 10.4554 38.9793 11.3239 38.9793 12.3906C38.9793 13.458 39.8478 14.3259 40.9146 14.3259C41.9819 14.3259 42.8498 13.4574 42.8498 12.3906C42.8505 11.324 41.982 10.4554 40.9146 10.4554Z" fill="#007BFC" stroke="#007BFC"/>
</svg>
