<svg width="82" height="44" viewBox="0 0 82 44" fill="none" xmlns="http://www.w3.org/2000/svg">
<g clip-path="url(#clip0_498_1519)">
<path d="M18.4096 42.2992C8.8101 42.2992 1 34.3923 1 24.6734C1 14.9547 8.8094 7.04749 18.4096 7.04749C28.0099 7.04749 35.8193 14.9544 35.8193 24.6734C35.82 34.392 28.0099 42.2992 18.4096 42.2992ZM18.4096 9.62823C10.233 9.62823 3.58093 16.3778 3.58093 24.6742C3.58093 32.97 10.233 39.7195 18.4096 39.7195C26.587 39.7195 33.2391 32.97 33.2391 24.6742C33.2391 16.3778 26.587 9.62823 18.4096 9.62823Z" fill="#0E53BE" stroke="#0E53BE" stroke-width="2"/>
<path d="M63.5903 42.2992C53.9901 42.2992 46.1807 34.3923 46.1807 24.6734C46.1807 14.9547 53.9901 7.04749 63.5903 7.04749C73.1898 7.04749 80.9999 14.9544 80.9999 24.6734C80.9999 34.392 73.1905 42.2992 63.5903 42.2992ZM63.5903 9.62823C55.4137 9.62823 48.7609 16.3771 48.7609 24.6735C48.7616 32.97 55.4137 39.7195 63.5903 39.7195C71.7676 39.7195 78.4197 32.97 78.4197 24.6742C78.4197 16.3778 71.7676 9.62823 63.5903 9.62823Z" fill="#0E53BE" stroke="#0E53BE" stroke-width="2"/>
<path d="M8.70563 25.9638C7.99315 25.9638 7.41553 25.3855 7.41553 24.6737C7.41553 18.4855 12.347 13.4504 18.4094 13.4504C19.1218 13.4504 19.6995 14.0287 19.6995 14.7405C19.6995 15.453 19.1212 16.0306 18.4094 16.0306C13.7706 16.0306 9.99646 19.9077 9.99646 24.673C9.99578 25.3862 9.41879 25.9638 8.70563 25.9638Z" fill="#0E53BE" stroke="#0E53BE" stroke-width="2"/>
<path d="M53.5516 25.6901C52.8391 25.6901 52.2615 25.1118 52.2615 24.4C52.2615 18.2117 57.193 13.1766 63.2553 13.1766C63.9678 13.1766 64.5454 13.7549 64.5454 14.4667C64.5454 15.1792 63.9671 15.7568 63.2553 15.7568C58.6166 15.7568 54.8424 19.6332 54.8424 24.3992C54.8424 25.1117 54.2641 25.6901 53.5516 25.6901Z" fill="#0E53BE" stroke="#0E53BE" stroke-width="2"/>
<path d="M34.8304 23.5051L33.8877 21.1027L36.3522 20.1354C39.3526 18.957 42.6529 18.972 45.6445 20.177L47.9535 21.1068L46.989 23.5004L44.6807 22.5707C42.3034 21.6123 39.6803 21.6014 37.2955 22.538L34.8304 23.5051Z" fill="#0E53BE" stroke="#0E53BE" stroke-width="2"/>
<path d="M59.7699 10.0921H48.5527C47.941 10.0921 47.4131 9.66234 47.2891 9.0636C46.7864 6.63943 44.6449 4.87929 42.1975 4.87929H39.3904C37.018 4.87929 34.9466 6.50384 34.3539 8.82924L34.2797 9.12078C34.1339 9.69226 33.619 10.0914 33.0291 10.0914L22.2307 10.0921V7.51117H32.0597C33.1537 4.40921 36.0751 2.29822 39.3903 2.29822H42.1974C45.5037 2.29822 48.436 4.43571 49.5287 7.51117H59.7698L59.7699 10.0921Z" fill="#0E53BE" stroke="#0E53BE" stroke-width="2"/>
<path d="M40.9147 17.4073C38.4244 17.4073 36.3987 15.3816 36.3987 12.8913C36.3987 10.4011 38.4244 8.37537 40.9147 8.37537C43.4049 8.37537 45.4307 10.4011 45.4307 12.8913C45.4307 15.3816 43.4049 17.4073 40.9147 17.4073ZM40.9147 10.9554C39.8473 10.9554 38.9794 11.8239 38.9794 12.8906C38.9794 13.958 39.8479 14.8259 40.9147 14.8259C41.982 14.8259 42.8499 13.9574 42.8499 12.8906C42.8506 11.824 41.9821 10.9554 40.9147 10.9554Z" fill="#0E53BE" stroke="#0E53BE"/>
</g>
<defs>
<clipPath id="clip0_498_1519">
<rect width="82" height="43" fill="white" transform="translate(0 0.5)"/>
</clipPath>
</defs>
</svg>
