<svg width="32" height="32" viewBox="0 0 32 32" fill="none" xmlns="http://www.w3.org/2000/svg">
<path d="M23.9108 16.7633C20.5472 16.7633 17.821 19.5018 17.821 22.88C17.821 26.2585 20.5472 28.9976 23.9108 28.9976C27.2738 28.9976 30 26.2585 30 22.88C30 19.5018 27.2738 16.7633 23.9108 16.7633ZM8.08952 16.7636C4.7265 16.7639 2 19.5018 2 22.8803C2 26.2585 4.7265 28.9973 8.08952 28.9973C11.4528 28.9973 14.1793 26.2585 14.1793 22.8803C14.1793 19.5018 11.4528 16.7636 8.08922 16.7636H8.08952ZM22.0895 9.117C22.0895 12.4952 19.3633 15.2346 16.0003 15.2346C12.6367 15.2346 9.9105 12.4952 9.9105 9.117C9.9105 5.73881 12.6367 3 16.0003 3C19.3633 3 22.0892 5.73881 22.0892 9.117H22.0895Z" fill="url(#paint0_radial_4224_3766)"/>
<defs>
<radialGradient id="paint0_radial_4224_3766" cx="0" cy="0" r="1" gradientUnits="userSpaceOnUse" gradientTransform="translate(16.0038 17.2244) scale(18.564 17.2364)">
<stop stop-color="#FFB900"/>
<stop offset="0.6" stop-color="#F95D8F"/>
<stop offset="0.999" stop-color="#F95353"/>
</radialGradient>
</defs>
</svg>
