<svg width="32" height="32" viewBox="0 0 32 32" fill="none" xmlns="http://www.w3.org/2000/svg">
<path fill-rule="evenodd" clip-rule="evenodd" d="M15.7774 4C9.02241 4 3.55566 9.46675 3.55566 16.2225C3.55566 22.9775 9.02216 28.4443 15.7772 28.4443C22.5329 28.4443 27.9999 22.9777 27.9999 16.2227C27.9999 9.467 22.5327 4 15.7774 4ZM11.5554 10.5332C12.2662 10.5332 12.9332 10.622 13.4664 10.8448C14.0447 11.0665 14.5779 11.378 15.1109 11.8223L13.8659 13.5107C13.5104 13.2442 13.1549 13.0665 12.8444 12.9335C12.5329 12.7998 12.1334 12.756 11.7769 12.756C10.2662 12.756 9.51041 13.911 9.51041 16.2665C9.51041 17.4668 9.68791 18.3115 10.0884 18.7997C10.4889 19.333 11.0222 19.5557 11.7769 19.5557C12.1334 19.5557 12.4889 19.5108 12.7994 19.378C13.1109 19.2443 13.4664 19.0665 13.9109 18.7997L15.1549 20.5783C14.1334 21.4215 12.9774 21.8223 11.6442 21.8223C10.5777 21.8223 9.68816 21.5998 8.88841 21.1553C8.13341 20.711 7.51041 20.045 7.11091 19.2003C6.71091 18.3553 6.48891 17.3777 6.48891 16.2227C6.48891 15.1112 6.71066 14.0888 7.11091 13.2443C7.51041 12.3555 8.13341 11.6885 8.88841 11.2002C9.64416 10.7997 10.5329 10.5332 11.5554 10.5332ZM15.2887 10.9335H18.3552L20.4889 19.7773L22.7554 10.9335H25.7329L22.2667 21.5995C21.8224 22.9775 21.1552 24 20.2227 24.7558C19.2889 25.5108 18.0449 25.9113 16.4892 26.045L16.1777 24C17.2002 23.8662 17.9552 23.6445 18.4442 23.289C18.6219 23.1552 18.9774 22.7558 18.9774 22.7558L15.2887 10.9335Z" fill="#4A4A4C"/>
<path fill-rule="evenodd" clip-rule="evenodd" d="M15.7775 3.77771C8.9025 3.77771 3.3335 9.34671 3.3335 16.2227C3.3335 23.0972 8.9025 28.6665 15.7772 28.6665C22.653 28.6665 28.2222 23.0975 28.2222 16.2227C28.2222 9.34696 22.653 3.77771 15.7775 3.77771ZM15.7775 4.22221C22.413 4.22221 27.7777 9.58671 27.7777 16.2227C27.7777 22.8577 22.4132 28.2222 15.7772 28.2222C9.14225 28.2222 3.77775 22.8575 3.77775 16.2227C3.77775 9.58646 9.14275 4.22221 15.7775 4.22221Z" fill="white"/>
</svg>
