<svg width="32" height="32" viewBox="0 0 32 32" fill="none" xmlns="http://www.w3.org/2000/svg">
<g clip-path="url(#clip0_3670_347)">
<path d="M29.2372 24.4518C27.5215 24.405 26.2112 24.5648 25.091 25.037C24.7727 25.1713 24.2647 25.175 24.2127 25.5738C24.3877 25.757 24.415 26.031 24.554 26.2565C24.8215 26.689 25.273 27.2695 25.676 27.5735C26.1165 27.906 26.5702 28.2613 27.0422 28.549C27.8817 29.0608 28.819 29.3533 29.6272 29.866C30.1037 30.1685 30.577 30.5493 31.0417 30.8903C31.2717 31.059 31.426 31.3213 31.7247 31.427V31.3785C31.5677 31.1785 31.5272 30.904 31.3832 30.6953L30.749 30.061C30.129 29.238 29.3417 28.515 28.505 27.9148C27.8377 27.4358 26.3445 26.7888 26.0662 26.0125L26.0175 25.9638C26.4905 25.9103 27.0442 25.7393 27.481 25.622C28.2145 25.4255 28.87 25.4763 29.6272 25.2808L30.6515 24.988V24.793C30.2687 24.4003 29.9957 23.8803 29.5785 23.5248C28.486 22.5948 27.294 21.6655 26.0665 20.8905C25.3855 20.461 24.5442 20.1818 23.8225 19.8175C23.5797 19.6948 23.1532 19.631 22.993 19.427C22.6137 18.944 22.4075 18.3315 22.1152 17.7688C21.503 16.5895 20.9017 15.3018 20.3592 14.061C19.9892 13.215 19.7475 12.381 19.286 11.622C17.071 7.98027 14.687 5.78252 10.9937 3.62202C10.2077 3.16252 9.26146 2.98127 8.26146 2.74377C7.72521 2.71152 7.18846 2.67877 6.65196 2.64602C6.32421 2.50952 5.98371 2.10877 5.67646 1.91427C4.45296 1.14127 1.31446 -0.539978 0.408462 1.67052C-0.163788 3.06577 1.26371 4.42677 1.77396 5.13402C2.13246 5.62952 2.59121 6.18577 2.84721 6.74352C3.01571 7.11027 3.04471 7.47802 3.18896 7.86577C3.54321 8.82127 3.85196 9.86077 4.31071 10.7435C4.54246 11.1905 4.79796 11.661 5.09121 12.0605C5.27071 12.3058 5.57896 12.4138 5.62746 12.7923C5.32646 13.2138 5.30921 13.8683 5.13996 14.4023C4.37746 16.806 4.66521 19.794 5.77421 21.573C6.11421 22.1195 6.91596 23.2908 8.01796 22.8413C8.98196 22.4488 8.76671 21.2318 9.04246 20.1583C9.10471 19.915 9.06646 19.736 9.18871 19.573V19.6218L10.067 21.3778C10.717 22.4245 11.87 23.5183 12.8475 24.2563C13.3542 24.639 13.7532 25.3005 14.4085 25.5245V25.4755H14.3597C14.2327 25.2778 14.034 25.1958 13.872 25.0368C13.4902 24.6625 13.0657 24.1973 12.7502 23.7685C11.8612 22.5618 11.0757 21.241 10.36 19.8663C10.018 19.2095 9.72071 18.4855 9.43271 17.8173C9.32171 17.5598 9.32321 17.17 9.09171 17.0368C8.77596 17.5263 8.31121 17.9223 8.06721 18.5003C7.67696 19.4243 7.62671 20.5513 7.48196 21.7198C7.39646 21.7503 7.43446 21.7293 7.38421 21.7683C6.70471 21.6045 6.46621 20.9053 6.21346 20.305C5.57496 18.7875 5.45621 16.3445 6.01821 14.5978C6.16371 14.1455 6.82071 12.7225 6.55471 12.3048C6.42771 11.8883 6.00871 11.6473 5.77446 11.329C5.48421 10.9355 5.19471 10.4175 4.99346 9.96302C4.47096 8.78027 4.22696 7.45202 3.67671 6.25602C3.41346 5.68427 2.96871 5.10552 2.60346 4.59752C2.19921 4.03427 1.74621 3.61952 1.43271 2.93877C1.32121 2.69677 1.16996 2.30927 1.33496 2.06052C1.38746 1.89277 1.46196 1.82277 1.62771 1.76802C1.91071 1.54977 2.69871 1.84052 2.99321 1.96277C3.77546 2.28777 4.42846 2.59727 5.09121 3.03627C5.40896 3.24727 5.73096 3.65502 6.11546 3.76802H6.55446C7.24121 3.92577 8.01046 3.81677 8.65221 4.01177C9.78621 4.35627 10.8025 4.89252 11.7252 5.47527C14.5367 7.25077 16.8357 9.77777 18.4082 12.7925C18.6612 13.278 18.7707 13.741 18.9935 14.256C19.443 15.2943 20.0092 16.3625 20.4565 17.378C20.903 18.391 21.338 19.4133 21.969 20.2563C22.3007 20.6993 23.5817 20.937 24.1642 21.1833C24.5722 21.3555 25.241 21.5355 25.6277 21.7683C26.366 22.2138 27.0815 22.744 27.7742 23.232C28.12 23.4758 29.1842 24.011 29.2372 24.4518ZM7.43246 5.86652C7.07471 5.85977 6.82171 5.90552 6.55421 5.96377V6.01252H6.60296C6.77371 6.36302 7.07496 6.58902 7.28571 6.89077C7.44821 7.23252 7.61096 7.57377 7.77371 7.91502L7.82221 7.86677C8.12446 7.65352 8.26271 7.31327 8.26096 6.79327C8.13996 6.66602 8.12221 6.50652 8.01721 6.35452C7.87821 6.15177 7.60846 6.03652 7.43246 5.86652Z" fill="#00618A"/>
</g>
<defs>
<clipPath id="clip0_3670_347">
<rect width="32" height="32" fill="white"/>
</clipPath>
</defs>
</svg>
