<svg width="56" height="56" viewBox="0 0 56 56" fill="none" xmlns="http://www.w3.org/2000/svg">
<path fill-rule="evenodd" clip-rule="evenodd" d="M38.8254 35.3033L40.5521 32.3866H48.7887L51.3321 27.9999L46.2454 19.2499H39.0821L36.6087 14.9099H33.8321V11.9699H38.3588L40.8321 16.3333H44.5421L39.4321 7.58325H29.4688V19.2499H33.5054L35.2087 22.1666H29.4688V27.9999H34.7421L37.1921 23.6366H43.7487L45.4287 26.5533H38.8954L36.4454 30.9166H29.4688V41.1366H37.4021L35.7221 44.0532H29.4688V48.4166H39.4321L47.0854 35.3033H42.2087L40.5054 38.2199H33.8321V35.3033H38.8254Z" fill="#4285F4"/>
<path fill-rule="evenodd" clip-rule="evenodd" d="M17.1727 35.3033L15.446 32.3866H7.20935L4.66602 27.9999L9.75268 19.2499H16.916L19.3893 14.9099H22.166V11.9699H17.6393L15.166 16.3333H11.456L16.566 7.58325H26.5527V19.2499H22.4927L20.7893 22.1666H26.5527V27.9999H21.256L18.806 23.6366H12.2493L10.5693 26.5533H17.1027L19.5527 30.9166H26.5527V41.1366H18.596L20.276 44.0532H26.5527V48.4166H16.566L8.91268 35.3033H13.7893L15.4927 38.2199H22.166V35.3033H17.1727Z" fill="#669DF6"/>
</svg>
