<svg width="56" height="56" viewBox="0 0 56 56" fill="none" xmlns="http://www.w3.org/2000/svg">
<g clip-path="url(#clip0_507_672)">
<path d="M42.875 0H13.125C5.87626 0 0 5.87626 0 13.125V42.875C0 50.1237 5.87626 56 13.125 56H42.875C50.1237 56 56 50.1237 56 42.875V13.125C56 5.87626 50.1237 0 42.875 0Z" fill="white"/>
<path fill-rule="evenodd" clip-rule="evenodd" d="M38.8266 35.303L40.5533 32.3863H48.79L51.3333 27.9997L46.2466 19.2497H39.0833L36.61 14.9097H33.8333V11.9697H38.36L40.8333 16.333H44.5433L39.4333 7.58301H29.47V19.2497H33.5066L35.21 22.1663H29.47V27.9997H34.7433L37.1933 23.6363H43.75L45.43 26.553H38.8966L36.4466 30.9163H29.47V41.1363H37.4033L35.7233 44.053H29.47V48.4163H39.4333L47.0866 35.303H42.21L40.5066 38.2197H33.8333V35.303H38.8266Z" fill="#4285F4"/>
<path fill-rule="evenodd" clip-rule="evenodd" d="M17.1734 35.303L15.4467 32.3863H7.21008L4.66675 27.9997L9.75341 19.2497H16.9167L19.3901 14.9097H22.1667V11.9697H17.6401L15.1667 16.333H11.4567L16.5667 7.58301H26.5534V19.2497H22.4934L20.7901 22.1663H26.5534V27.9997H21.2567L18.8067 23.6363H12.2501L10.5701 26.553H17.1034L19.5534 30.9163H26.5534V41.1363H18.5967L20.2767 44.053H26.5534V48.4163H16.5667L8.91341 35.303H13.7901L15.4934 38.2197H22.1667V35.303H17.1734Z" fill="#669DF6"/>
</g>
<defs>
<clipPath id="clip0_507_672">
<rect width="56" height="56" fill="white"/>
</clipPath>
</defs>
</svg>
