<svg width="56" height="56" viewBox="0 0 56 56" fill="none" xmlns="http://www.w3.org/2000/svg">
<g clip-path="url(#clip0_507_697)">
<path d="M42.875 0H13.125C5.87626 0 0 5.87626 0 13.125V42.875C0 50.1237 5.87626 56 13.125 56H42.875C50.1237 56 56 50.1237 56 42.875V13.125C56 5.87626 50.1237 0 42.875 0Z" fill="white"/>
<mask id="mask0_507_697" style="mask-type:luminance" maskUnits="userSpaceOnUse" x="8" y="3" width="40" height="51">
<path d="M46.2539 13.136L29.7267 3.64049C28.6546 3.02218 27.3321 3.02218 26.2599 3.64049L9.72993 13.136C8.65957 13.7559 8.00073 14.8957 8.00073 16.1285V35.1335C8.00168 36.364 8.66048 37.5009 9.72993 38.1176L17.9991 42.8766V52.5792C18.0006 52.9485 18.1994 53.2892 18.521 53.4732C18.8426 53.6572 19.2384 53.6569 19.5596 53.4722L46.2708 38.126C47.3415 37.5105 48.0007 36.3728 48 35.1419V16.1257C47.9935 14.8909 47.3286 13.7524 46.2539 13.136Z" fill="white"/>
</mask>
<g mask="url(#mask0_507_697)">
<path d="M47.9831 14.1387L27.9975 25.6301L8.00073 14.1387V37.1216L17.9991 42.8631V54.3573L47.9831 37.1216V14.1387Z" fill="#EF6C00"/>
</g>
<mask id="mask1_507_697" style="mask-type:luminance" maskUnits="userSpaceOnUse" x="8" y="3" width="40" height="51">
<path d="M46.2539 13.136L29.7267 3.64049C28.6546 3.02218 27.3321 3.02218 26.2599 3.64049L9.72993 13.136C8.65957 13.7559 8.00073 14.8957 8.00073 16.1285V35.1335C8.00168 36.364 8.66048 37.5009 9.72993 38.1176L17.9991 42.8766V52.5792C18.0006 52.9485 18.1994 53.2892 18.521 53.4732C18.8426 53.6572 19.2384 53.6569 19.5596 53.4722L46.2708 38.126C47.3415 37.5105 48.0007 36.3728 48 35.1419V16.1257C47.9935 14.8909 47.3286 13.7524 46.2539 13.136Z" fill="white"/>
</mask>
<g mask="url(#mask1_507_697)">
<path d="M27.9975 25.6294L8.00073 14.1379L27.9975 2.64648L47.9831 14.1379L27.9975 25.6294Z" fill="#FF9800"/>
</g>
<mask id="mask2_507_697" style="mask-type:luminance" maskUnits="userSpaceOnUse" x="8" y="3" width="40" height="51">
<path d="M46.2539 13.136L29.7267 3.64049C28.6546 3.02218 27.3321 3.02218 26.2599 3.64049L9.72993 13.136C8.65957 13.7559 8.00073 14.8957 8.00073 16.1285V35.1335C8.00168 36.364 8.66048 37.5009 9.72993 38.1176L17.9991 42.8766V52.5792C18.0006 52.9485 18.1994 53.2892 18.521 53.4732C18.8426 53.6572 19.2384 53.6569 19.5596 53.4722L46.2708 38.126C47.3415 37.5105 48.0007 36.3728 48 35.1419V16.1257C47.9935 14.8909 47.3286 13.7524 46.2539 13.136Z" fill="white"/>
</mask>
<g mask="url(#mask2_507_697)">
<path d="M27.6433 25.279L8.12726 14.0619L8.00073 14.1375L27.9975 25.6289L47.9831 14.1375L47.5135 13.8604L27.6433 25.279Z" fill="#FF9800"/>
</g>
<mask id="mask3_507_697" style="mask-type:luminance" maskUnits="userSpaceOnUse" x="8" y="3" width="40" height="51">
<path d="M46.2539 13.136L29.7267 3.64049C28.6546 3.02218 27.3321 3.02218 26.2599 3.64049L9.72993 13.136C8.65957 13.7559 8.00073 14.8957 8.00073 16.1285V35.1335C8.00168 36.364 8.66048 37.5009 9.72993 38.1176L17.9991 42.8766V52.5792C18.0006 52.9485 18.1994 53.2892 18.521 53.4732C18.8426 53.6572 19.2384 53.6569 19.5596 53.4722L46.2708 38.126C47.3415 37.5105 48.0007 36.3728 48 35.1419V16.1257C47.9935 14.8909 47.3286 13.7524 46.2539 13.136Z" fill="white"/>
</mask>
<g mask="url(#mask3_507_697)">
<path d="M27.9975 25.7721V25.6293L8.12726 14.2051L8.00073 14.2807L27.9975 25.7721Z" fill="#FF9800"/>
</g>
</g>
<defs>
<clipPath id="clip0_507_697">
<rect width="56" height="56" fill="white"/>
</clipPath>
</defs>
</svg>
