<svg width="56" height="71" viewBox="0 0 56 71" fill="none" xmlns="http://www.w3.org/2000/svg">
<g clip-path="url(#clip0_507_697)">
<mask id="mask0_507_697" style="mask-type:luminance" maskUnits="userSpaceOnUse" x="0" y="0" width="56" height="71">
<path d="M53.5562 14.032L30.4174 0.737873C28.9163 -0.127793 27.0648 -0.127793 25.5637 0.737873L2.42095 14.032C0.922403 14.8999 0 16.4956 0 18.2217V44.8295C0.00132208 46.5523 0.923682 48.144 2.42095 49.0075L13.9982 55.6702V69.2544C14.0002 69.7714 14.2786 70.2483 14.7289 70.506C15.1792 70.7637 15.7332 70.7631 16.183 70.5046L53.5798 49.0192C55.0789 48.1575 56.0019 46.5647 56.0008 44.8413V18.2178C55.9917 16.4889 55.0609 14.895 53.5562 14.032Z" fill="white"/>
</mask>
<g mask="url(#mask0_507_697)">
<path d="M55.9772 15.4351L27.9965 31.5236L0 15.4351V47.6122L13.9982 55.6506V71.743L55.9772 47.6122V15.4351Z" fill="#EF6C00"/>
</g>
<mask id="mask1_507_697" style="mask-type:luminance" maskUnits="userSpaceOnUse" x="0" y="0" width="56" height="71">
<path d="M53.5562 14.032L30.4174 0.737873C28.9163 -0.127793 27.0648 -0.127793 25.5637 0.737873L2.42095 14.032C0.922403 14.8999 0 16.4956 0 18.2217V44.8295C0.00132208 46.5523 0.923682 48.144 2.42095 49.0075L13.9982 55.6702V69.2544C14.0002 69.7714 14.2786 70.2483 14.7289 70.506C15.1792 70.7637 15.7332 70.7631 16.183 70.5046L53.5798 49.0192C55.0789 48.1575 56.0019 46.5647 56.0008 44.8413V18.2178C55.9917 16.4889 55.0609 14.895 53.5562 14.032Z" fill="white"/>
</mask>
<g mask="url(#mask1_507_697)">
<path d="M27.9965 31.5236L0 15.435L27.9965 -0.653564L55.9772 15.435L27.9965 31.5236Z" fill="#FF9800"/>
</g>
<mask id="mask2_507_697" style="mask-type:luminance" maskUnits="userSpaceOnUse" x="0" y="0" width="56" height="71">
<path d="M53.5562 14.032L30.4174 0.737873C28.9163 -0.127793 27.0648 -0.127793 25.5637 0.737873L2.42095 14.032C0.922403 14.8999 0 16.4956 0 18.2217V44.8295C0.00132208 46.5523 0.923682 48.144 2.42095 49.0075L13.9982 55.6702V69.2544C14.0002 69.7714 14.2786 70.2483 14.7289 70.506C15.1792 70.7637 15.7332 70.7631 16.183 70.5046L53.5798 49.0192C55.0789 48.1575 56.0019 46.5647 56.0008 44.8413V18.2178C55.9917 16.4889 55.0609 14.895 53.5562 14.032Z" fill="white"/>
</mask>
<g mask="url(#mask2_507_697)">
<path d="M27.5005 31.0338L0.177143 15.3293L0 15.4351L27.9965 31.5237L55.9772 15.4351L55.3198 15.0471L27.5005 31.0338Z" fill="#FF9800"/>
</g>
<mask id="mask3_507_697" style="mask-type:luminance" maskUnits="userSpaceOnUse" x="0" y="0" width="56" height="71">
<path d="M53.5562 14.032L30.4174 0.737873C28.9163 -0.127793 27.0648 -0.127793 25.5637 0.737873L2.42095 14.032C0.922403 14.8999 0 16.4956 0 18.2217V44.8295C0.00132208 46.5523 0.923682 48.144 2.42095 49.0075L13.9982 55.6702V69.2544C14.0002 69.7714 14.2786 70.2483 14.7289 70.506C15.1792 70.7637 15.7332 70.7631 16.183 70.5046L53.5798 49.0192C55.0789 48.1575 56.0019 46.5647 56.0008 44.8413V18.2178C55.9917 16.4889 55.0609 14.895 53.5562 14.032Z" fill="white"/>
</mask>
<g mask="url(#mask3_507_697)">
<path d="M27.9965 31.7234V31.5236L0.177143 15.5291L0 15.6349L27.9965 31.7234Z" fill="#FF9800"/>
</g>
</g>
<defs>
<clipPath id="clip0_507_697">
<rect width="56" height="71" fill="white"/>
</clipPath>
</defs>
</svg>
