<svg width="56" height="56" viewBox="0 0 56 56" fill="none" xmlns="http://www.w3.org/2000/svg">
<path d="M1.75 28C1.75 30.4216 2.08994 32.7596 2.66788 35H36.75C40.6157 35 43.75 31.8658 43.75 28C43.75 24.1342 40.6157 21 36.75 21H2.66788C2.06659 23.285 1.75816 25.6372 1.75 28Z" fill="#343741"/>
<path d="M48.8674 13.4085C49.8462 12.5077 50.7568 11.5355 51.5917 10.5C46.4581 4.10331 38.5879 0 29.7508 0C18.6886 0 9.16952 6.43562 4.62695 15.75H42.8933C45.1079 15.7485 47.2405 14.9124 48.8661 13.4085" fill="#FEC514"/>
<path d="M42.892 40.25H4.62695C9.16995 49.5644 18.6873 56 29.7495 56C38.587 56 46.4568 51.8949 51.5904 45.5C50.7559 44.4641 49.8453 43.4919 48.8661 42.5915C47.24 41.0876 45.1069 40.2516 42.892 40.25Z" fill="#00BFB3"/>
</svg>
