<svg width="56" height="56" viewBox="0 0 56 56" fill="none" xmlns="http://www.w3.org/2000/svg">
<g clip-path="url(#clip0_509_763)">
<path d="M42.875 0H13.125C5.87626 0 0 5.87626 0 13.125V42.875C0 50.1237 5.87626 56 13.125 56H42.875C50.1237 56 56 50.1237 56 42.875V13.125C56 5.87626 50.1237 0 42.875 0Z" fill="white"/>
<path d="M4.42017 28C4.42017 30.1621 4.72368 32.2496 5.2397 34.25H35.6702C39.1217 34.25 41.9202 31.4516 41.9202 28C41.9202 24.5484 39.1217 21.75 35.6702 21.75H5.2397C4.70283 23.7902 4.42745 25.8904 4.42017 28Z" fill="#343741"/>
<path d="M46.4884 14.9719C47.3623 14.1676 48.1754 13.2996 48.9208 12.375C44.3373 6.66367 37.3103 3 29.4201 3C19.5431 3 11.0439 8.74609 6.98804 17.0625H41.1544C43.1317 17.0611 45.0359 16.3147 46.4873 14.9719" fill="#FEC514"/>
<path d="M41.1545 38.9375H6.98926C11.0455 47.2539 19.5432 53 29.4201 53C37.3107 53 44.3373 49.3348 48.9209 43.625C48.1758 42.7001 47.3628 41.832 46.4885 41.0281C45.0366 39.6854 43.1321 38.9389 41.1545 38.9375Z" fill="#00BFB3"/>
</g>
<defs>
<clipPath id="clip0_509_763">
<rect width="56" height="56" fill="white"/>
</clipPath>
</defs>
</svg>
