<svg width="56" height="56" viewBox="0 0 56 56" fill="none" xmlns="http://www.w3.org/2000/svg">
<rect width="56" height="56" rx="10" fill="white"/>
<path d="M18.3437 44.4011C16.5157 42.9886 14.5637 41.635 13.2316 39.732C10.4276 36.3735 8.26759 32.4852 6.79157 28.3988C5.89956 25.7406 5.59155 22.8901 4.44354 20.3359C3.23953 18.484 4.64954 16.4555 6.71957 15.863C7.63958 15.6924 9.2636 14.839 7.30558 15.4491C5.54955 16.7125 5.37955 14.3015 7.17957 14.1504C8.40959 13.9895 8.8596 13.0028 8.43959 12.116C7.11957 11.2725 11.6396 10.3446 9.3656 9.08705C6.99957 6.57793 12.6796 6.0973 11.2796 8.94188C10.9456 11.1293 15.2477 8.53971 14.2497 11.0665C15.2637 12.2808 18.0497 11.3411 17.9797 13.0459C19.4597 13.144 19.9657 14.3642 21.3537 14.4584C22.7938 15.096 25.3978 15.5962 25.8858 17.1853C24.4598 18.2957 21.1577 14.8998 20.9997 17.9661C21.4297 22.4978 21.3197 27.1649 23.0078 31.4788C23.8078 34.0919 25.7478 36.1479 27.4958 38.1842C29.1698 40.1774 31.4379 41.5781 33.7499 42.761C35.7779 43.6988 37.964 44.3206 40.176 44.711C41.072 44.0382 42.656 41.5388 44.052 42.5923C44.118 43.7772 41.276 45.07 43.918 44.9386C45.47 44.4796 46.5461 46.1157 47.8241 44.6404C49.0001 46.0078 52.7161 43.7655 51.8781 46.563C50.7461 47.2771 49.0941 46.8455 47.9601 47.8303C46.09 46.9141 44.6 48.6503 42.53 48.4306C40.2289 48.8208 37.8972 49.0111 35.5619 48.9995C31.7379 48.7052 27.8318 48.5797 24.1938 47.2731C22.1458 46.6905 20.1457 45.5448 18.3437 44.4011ZM21.5737 45.7743C23.5738 46.6218 25.5298 47.5164 27.7218 47.7871C31.2019 48.2579 34.7959 48.9917 38.288 48.3246C36.7079 47.6243 35.0719 48.5993 33.4979 47.8244C31.6099 48.2226 29.5838 47.7224 27.6638 47.4772C25.4798 46.5237 23.1238 45.8685 21.0817 44.6286C18.5277 43.7145 22.4018 45.8018 23.0918 45.9725C24.6878 46.8612 21.3377 45.5154 20.8637 45.1466C19.5277 44.4109 19.3557 44.5639 20.7317 45.3113C21.0097 45.4683 21.2837 45.637 21.5718 45.7724L21.5737 45.7743ZM17.7657 43.1338C19.7057 43.8381 17.7577 41.7958 16.8657 41.9135C16.4737 41.2446 15.3637 40.8208 16.1457 40.4618C14.7377 40.9405 14.6717 38.6374 14.0057 38.965C12.5176 38.504 13.4257 36.8659 11.6536 35.8654C11.4916 34.806 9.88961 33.8879 9.3776 32.291C9.1516 31.4749 7.56758 29.1267 8.54159 31.3101C9.3696 33.4131 10.8276 35.2141 12.0416 37.013C12.9816 38.7256 14.0957 40.5168 15.8117 41.584C16.3917 42.1293 16.9477 42.9631 17.7657 43.1338ZM12.1796 37.117C12.2456 36.8306 12.5336 37.7389 12.1796 37.117V37.117ZM20.0877 43.9773C19.4677 43.7419 20.5177 43.789 20.0877 43.9773V43.9773ZM21.1397 44.354C20.6597 44.6443 21.0317 43.8341 21.1397 44.354V44.354ZM22.4598 44.8935C21.4917 44.5247 23.0838 44.305 22.4598 44.8935V44.8935ZM24.7138 46.1294C23.4938 45.9195 25.0958 45.5762 24.7138 46.1294V46.1294ZM20.3797 43.1612C19.1197 43.1534 21.3537 42.5433 20.3797 43.1612V43.1612ZM21.3677 43.6438C21.0157 43.791 21.3397 43.3182 21.3677 43.6438V43.6438ZM26.3078 46.6689C27.1018 47.1593 30.9479 47.7479 28.5378 46.871C28.1378 46.9534 24.0778 45.7449 26.3058 46.6689H26.3078ZM18.4657 40.6776C17.2337 40.3147 18.3857 40.35 18.4657 40.6776V40.6776ZM20.7657 41.992C19.5237 41.6781 21.3657 41.58 20.7657 41.992V41.992ZM22.6978 43.1553C21.3057 42.8356 23.5578 42.8375 22.6978 43.1553V43.1553ZM17.5297 39.6771C18.4617 40.3794 21.2897 39.7674 18.9577 39.2593C17.8977 38.7041 15.5037 38.3254 17.1337 39.5928L17.5297 39.6771ZM24.0098 43.5575C22.3798 43.1848 24.3958 42.9101 24.0098 43.5575V43.5575ZM22.0418 42.0214C24.3218 42.6551 20.1257 40.609 21.4797 41.79L21.7798 41.9234L22.0418 42.0214ZM25.9878 44.2579C24.0378 43.9695 28.1478 44.2775 25.9878 44.2579V44.2579ZM16.6997 38.451C16.1677 38.4863 16.6157 38.0586 16.6997 38.451V38.451ZM29.6398 46.2687C28.9338 46.7984 29.6959 45.5566 29.6398 46.2687V46.2687ZM20.3797 40.6658C19.7077 40.6502 20.2517 40.2911 20.3797 40.6658V40.6658ZM16.9037 38.2058C15.2077 37.6702 18.1437 38.1332 16.9037 38.2058V38.2058ZM12.7836 35.5927C11.4356 34.5451 12.6296 35.01 12.7836 35.5927V35.5927ZM23.5978 42.3314C23.3698 42.0764 23.4898 42.3863 23.5978 42.3314V42.3314ZM30.3299 46.3825C29.9639 46.5296 30.3099 45.996 30.3299 46.3825V46.3825ZM23.0018 41.7272C21.9458 41.5761 23.1218 41.2269 23.0018 41.7272V41.7272ZM17.9897 38.604C16.5097 37.9939 18.9097 38.5059 17.9897 38.604V38.604ZM26.4718 43.7772C25.0718 43.5026 27.9078 43.2181 26.4718 43.7772V43.7772ZM22.0598 40.8405C23.7138 41.0484 20.0897 39.736 21.6978 40.7227L22.0598 40.8405ZM27.8118 44.3089C29.3578 43.4025 28.8478 46.4315 30.4339 44.5639C31.9979 43.4457 29.0838 45.9509 31.0139 44.766C32.4059 43.8498 34.4659 45.1976 35.7659 45.639C36.7019 45.5938 37.6119 46.4335 38.572 45.9234C40.418 45.433 34.9599 45.1976 36.3919 44.3344C34.7019 44.815 33.4519 43.7576 32.6219 42.6963C30.7259 42.2647 28.5338 41.3172 27.5878 39.6712C27.2038 39.0533 28.1478 39.7575 27.2558 38.7492C26.1158 37.7526 25.5438 36.6207 24.7758 35.4102C23.8618 34.9316 23.7558 33.521 23.6618 35.3632C23.6698 34.1998 22.5558 33.4171 22.2858 33.7427C22.2818 32.6225 23.4758 33.1836 22.6378 32.3557C22.4578 31.1944 21.8658 29.982 21.6878 28.6735C21.4117 28.0418 21.6478 26.6901 20.7417 28.1203C20.4117 29.6308 20.6317 26.2624 21.1457 27.3748C21.8198 26.2369 20.9057 26.3743 20.8657 26.5312C21.3057 25.5739 21.1457 24.2163 20.7517 24.7342C20.9857 23.72 21.1217 21.0029 20.4017 21.4855C20.8377 20.4261 21.2297 16.634 19.3337 18.0799C18.5657 18.0897 17.2377 18.3545 16.6077 18.6605C18.5797 19.7258 16.4077 19.0451 15.6077 18.8763C15.5037 19.8612 14.7077 19.4354 13.7157 19.4453C15.3017 19.6375 12.9436 21.0343 12.0336 20.4928C10.8536 21.0461 13.0536 22.4291 12.0576 22.8568C12.1776 23.5003 10.2476 22.6214 10.3976 24.1123C9.2516 23.6395 10.2416 25.8779 10.8156 25.1207C12.7656 25.6386 12.1876 26.8196 12.2356 27.9398C11.9196 28.593 10.6676 26.4037 11.9556 26.5057C10.9416 24.8833 10.8336 25.9172 9.98761 26.6725C9.78761 26.7274 12.1456 27.7456 10.6676 28.2478C11.9676 28.444 12.0036 29.5622 12.2676 30.2684C13.0476 31.0669 12.8876 29.3856 13.8257 30.3469C13.2336 29.4915 10.6916 27.9378 12.7376 28.4361C12.7276 27.5729 12.3676 26.8804 12.9956 26.8981C13.6157 25.7955 12.3456 29.6191 13.7457 28.2164C14.1317 28.0496 14.2257 27.1119 14.9257 28.3047C15.9357 29.2816 15.2897 29.9879 13.8637 29.0953C14.1177 29.9447 15.7717 30.2468 15.4617 31.5769C15.7917 32.7442 16.2517 32.3145 16.6537 32.2478C16.9697 33.3818 17.1477 32.548 17.1637 32.0065C18.6037 32.3106 18.2677 33.1444 18.7197 33.7329C19.7137 34.1724 17.2957 30.7471 19.0037 32.701C20.7997 34.2901 19.6777 34.9571 18.0637 34.702C19.0837 34.6216 19.4137 36.0557 20.6897 36.0047C21.8538 36.5481 22.6398 38.6334 20.6357 37.7644C19.9397 37.1503 17.4757 36.3911 19.4897 37.5603C21.3477 38.4039 22.8198 38.9101 24.6118 39.9675C25.8918 40.866 26.4478 41.8939 26.9318 42.098C25.8558 42.6021 23.6858 41.6938 25.2978 41.4152C24.2918 41.2367 23.1618 40.7384 24.1238 41.9646C24.9438 42.6374 27.0238 42.5649 27.3978 42.6414C27.0798 43.3241 26.5378 43.379 27.4098 43.432C26.4378 43.942 27.7218 44.0185 27.8118 44.3089ZM25.8238 38.8002C25.2318 38.192 25.0778 37.0542 25.7178 38.0449C26.0458 38.1744 26.7678 39.9027 25.8238 38.8002ZM32.2999 42.8356C32.3119 43.1102 32.6699 42.814 32.2999 42.8356V42.8356ZM24.8878 37.3112C24.8678 36.3931 25.1018 38.0174 24.8878 37.3112V37.3112ZM24.2438 36.4618C23.4998 35.0493 25.1838 36.862 24.2438 36.4618V36.4618ZM16.4437 31.1806C16.6597 31.9143 16.8817 31.0629 16.4437 31.1806V31.1806ZM22.6518 34.4804C22.9198 33.4916 22.9678 35.3121 22.6518 34.4804V34.4804ZM18.2677 31.4886C17.9577 30.9433 18.9137 31.9987 18.2677 31.4886V31.4886ZM22.0318 32.6736C21.3277 31.1237 22.5318 31.8261 22.1878 32.9286L22.0318 32.6736ZM15.5397 28.4263C15.2237 27.9162 14.7037 26.4253 14.8717 25.9701C15.0237 26.7117 16.4797 29.162 15.5857 26.9863C14.5977 25.1619 16.7657 27.5788 16.9897 28.0339C17.0897 28.4851 16.3797 27.9103 16.8617 28.9717C15.9817 27.7612 16.3417 29.6387 15.5397 28.4263ZM13.5337 27.0707C13.6137 25.8877 13.9937 27.8809 13.5337 27.0707V27.0707ZM14.4337 27.3748C14.8657 26.4822 15.1657 28.6185 14.4337 27.3748V27.3748ZM12.2656 25.7269C11.5176 25.001 10.9776 24.3281 12.2996 25.2757C12.8096 25.2953 11.1676 23.7494 12.4196 24.7852C13.7397 25.0206 13.0736 26.9079 12.2656 25.7269ZM13.4057 25.6975C13.6357 26.1134 13.8397 25.2757 13.4057 25.6975V25.6975ZM14.1057 25.9191C13.4497 24.7087 14.9057 26.4253 14.1057 25.9191V25.9191ZM12.7116 24.6106C10.5396 22.7155 15.4417 25.6033 13.0656 24.9637L12.7116 24.6106ZM18.9317 28.1575C17.9917 27.6043 18.6857 24.2654 19.0057 26.5489C19.9197 26.2585 18.9557 27.7259 19.6357 27.7142C19.5297 28.6421 19.2237 28.9756 18.9357 28.1575H18.9317ZM21.2317 29.4915C21.3277 28.4851 21.4297 30.1782 21.2317 29.4915V29.4915ZM20.8317 29.1031C20.8457 29.6092 20.9397 28.6715 20.8317 29.1031V29.1031ZM13.1396 23.9887C11.7456 22.0995 17.1937 25.8976 14.0337 24.4674C13.7037 24.3831 13.3056 24.3497 13.1396 23.9887ZM17.5717 26.2938C17.4397 24.7048 17.8657 26.5567 17.5717 26.2938V26.2938ZM20.9357 28.4106C20.9557 29.0089 21.1957 27.5043 20.9357 28.4106V28.4106ZM13.3517 23.2668C14.1817 23.0942 16.7877 24.6969 14.3917 23.7259C14.1277 23.4355 13.5597 23.5689 13.3517 23.2668ZM20.4717 26.749C20.5597 25.1207 20.9677 25.7779 20.4757 26.9805L20.4717 26.749ZM13.9697 22.7018C14.3077 22.2153 13.0696 20.5046 14.1477 22.0878C14.6117 22.4507 15.4917 22.6959 14.7137 22.847C15.9337 23.9044 14.4137 23.1334 13.9697 22.7018ZM20.1197 26.2409C20.3257 27.3257 20.3537 24.3889 20.1197 26.2409V26.2409ZM13.2636 20.9911C13.3997 21.3286 13.5217 20.8832 13.2636 20.9911V20.9911ZM14.8677 21.9289C15.2797 21.0775 15.6277 22.8764 14.8677 21.9289V21.9289ZM19.3937 24.3988C19.3897 24.0711 19.4797 24.8735 19.3937 24.3988V24.3988ZM19.1317 23.8298C18.5037 22.3075 19.7157 24.6342 19.1317 23.8298V23.8298ZM18.7457 22.8293C18.6397 22.2016 19.1057 23.6219 18.7457 22.8293V22.8293ZM19.3737 21.8288C18.9417 21.0833 19.9177 18.5468 20.0257 20.1221C19.5717 21.3482 19.8957 22.0348 20.2117 20.3889C20.7977 19.0941 20.0857 22.9451 19.3717 21.8308L19.3737 21.8288ZM20.0177 18.0563C20.0577 18.329 20.2057 17.8307 20.0177 18.0563V18.0563ZM18.9397 38.8767C18.6837 38.6589 18.9717 39.014 18.9397 38.8767V38.8767ZM21.1597 39.9753C22.3898 40.2892 22.3838 39.7889 21.2697 39.6418C20.6697 39.0925 18.7777 38.5138 20.4697 39.5731C20.5837 39.8517 20.9397 39.8458 21.1577 39.9773L21.1597 39.9753ZM16.7777 37.1229C17.4577 37.6192 19.3377 38.5334 17.7457 37.3112C18.2837 36.6991 16.7177 36.3735 17.2377 35.9654C15.9177 35.1729 16.1977 35.2435 17.1217 35.267C15.5337 34.5726 17.3497 34.6236 17.2617 34.2665C16.6517 34.1488 14.2217 33.2072 15.6537 34.345C14.2017 33.6191 15.3077 34.6157 14.8697 34.5098C13.3837 34.1135 16.1897 35.6182 14.6337 35.2454C15.4837 35.9066 16.9257 36.9404 14.9937 35.9458C14.7377 36.3048 16.3737 36.8482 16.7777 37.1229ZM19.0977 38.4314C17.7157 37.3406 21.9178 39.322 19.0977 38.4314V38.4314ZM30.9779 45.4899C30.5919 45.9607 31.0179 44.9406 30.9779 45.4899V45.4899ZM32.1999 45.994C32.8499 45.3761 32.2259 46.9808 33.2799 45.843C33.2899 45.0289 33.2459 44.5482 32.0679 45.537C31.7439 45.7135 31.5999 46.4649 32.1999 45.994ZM12.8156 34.0527C11.4156 33.2876 12.6156 33.2817 12.8156 34.0527V34.0527ZM14.1197 34.8923C12.3916 34.1782 13.6357 34.1037 14.1197 34.8923V34.8923ZM21.5398 39.2808C22.2638 39.9086 24.8638 39.7438 22.4198 39.3593C22.0558 38.8296 20.1177 38.9591 21.5398 39.2808ZM31.7339 45.4585C30.6539 45.8665 32.8499 44.5404 31.7339 45.4585V45.4585ZM34.0539 47.0201C33.5739 47.1495 34.0599 46.7258 34.0539 47.0201V47.0201ZM34.0559 46.6081C32.8599 46.6846 35.2899 45.3251 34.0559 46.6081V46.6081ZM9.6096 31.42C8.55759 29.9486 8.9556 29.2856 7.93958 28.0849C7.74758 27.1629 6.19956 25.0775 7.13957 27.2885C7.99958 28.5813 8.25559 30.5823 9.6096 31.42ZM33.6699 46.2C32.7379 45.5723 35.9399 44.7601 33.6699 46.2V46.2ZM35.4019 46.867C34.6819 46.6669 36.5419 45.9097 35.4019 46.867V46.867ZM12.4296 32.4244C11.5896 32.3636 12.7556 31.9497 12.4296 32.4244V32.4244ZM35.0399 46.4099C36.1419 45.7135 34.7879 45.8214 34.8399 46.4727L35.0399 46.4099ZM20.0997 37.17C19.5177 37.2092 20.0597 36.6991 20.0997 37.17V37.17ZM21.0197 37.6938C20.5717 37.786 20.7297 37.1111 21.0197 37.6938V37.6938ZM36.8079 46.8827C38.218 45.8822 35.9519 46.6905 36.5119 47.0711L36.8079 46.8827ZM36.2679 46.6277C35.0539 47.0456 37.4159 45.6821 36.2679 46.6277V46.6277ZM39.028 48.4286C38.09 48.2658 39.8 47.9225 39.028 48.4286V48.4286ZM13.1396 32.0811C14.1737 32.3087 17.2717 34.5804 15.4437 32.238C14.5077 31.9673 15.0697 29.7211 14.1137 30.1193C14.7537 31.1689 14.6417 31.6161 13.2936 30.955C11.6036 30.1448 12.3456 31.3552 12.6736 31.6887C12.2256 31.7908 13.2716 32.0732 13.1396 32.0811ZM8.42759 28.4322C8.61159 27.6808 6.72157 24.2987 7.53558 26.7372C7.82758 27.2473 7.79558 28.2164 8.42759 28.4322ZM17.0757 33.6623C16.5437 33.2248 17.0497 33.5995 17.0757 33.6623V33.6623ZM18.3877 33.9605C16.9377 33.6387 18.3877 33.166 18.3877 33.9605V33.9605ZM29.7499 40.9895C28.8938 40.9778 29.5338 40.4442 29.7499 40.9895V40.9895ZM30.2959 41.3799C29.9819 41.4388 30.2159 41.0759 30.2959 41.3799V41.3799ZM34.7999 44.1657C34.2599 44.1264 35.2319 43.8518 34.7999 44.1657V44.1657ZM10.7796 29.0207C9.4516 28.6872 12.0196 28.5499 10.7796 29.0207V29.0207ZM28.7478 40.1283C27.9578 40.3245 28.7338 39.3416 28.7478 40.1283V40.1283ZM10.2876 27.9045C9.5536 27.7279 11.0856 27.6396 10.2876 27.9045V27.9045ZM12.5996 29.0031C12.3556 29.1011 12.5856 28.7421 12.5996 29.0031V29.0031ZM40.78 45.9529C41.804 45.7488 44.136 46.4629 44.512 45.686C43.272 45.6566 40.212 44.8268 40.068 45.8822L40.34 45.9273L40.78 45.9529ZM13.3336 29.1835C12.6996 29.1541 13.3517 28.3851 13.3336 29.1835V29.1835ZM7.25958 25.0481C6.20956 24.8166 6.98357 23.5277 7.25958 25.0481V25.0481ZM8.70759 25.4052C7.38158 24.9657 8.72559 24.9147 8.70759 25.4052V25.4052ZM9.5356 25.8034C9.2956 25.6131 9.3476 26.0427 9.5356 25.8034V25.8034ZM14.7457 29.0796C14.1657 28.9167 14.9897 28.8598 14.7457 29.0796V29.0796ZM8.9856 24.9049C7.30558 24.7323 8.84559 23.7573 8.9856 24.9049V24.9049ZM6.01356 23.0137C5.72556 23.2138 5.97356 22.4841 6.01356 23.0137V23.0137ZM6.45357 22.6861C6.07356 22.7646 6.38356 22.0584 6.45357 22.6861V22.6861ZM8.8936 24.1163C9.92961 23.718 7.01357 23.2923 8.68559 24.0378L8.8936 24.1163ZM41.562 43.9087C40.722 43.7243 42.222 43.3143 41.562 43.9087V43.9087ZM45.51 45.9156C44.842 46.0137 45.774 45.1466 45.51 45.9156V45.9156ZM9.1456 22.8607C8.32559 23.0079 9.2556 22.1152 9.1456 22.8607V22.8607ZM5.67356 20.5811C5.48755 19.5316 5.51355 17.6895 7.29758 18.3133C4.91555 18.7763 8.9456 21.2167 8.43759 19.2903C9.4376 19.3374 10.3976 18.7096 9.86961 19.663C11.8436 19.4472 13.2096 17.7719 15.1177 18.0053C16.6017 17.8131 18.2257 17.6679 19.8257 17.0813C21.1417 16.9871 22.4058 15.5982 21.6858 14.7762C19.8937 14.6271 18.0157 14.8468 16.0317 15.2333C13.8357 15.6806 11.8396 16.532 9.6216 16.8989C7.46158 17.1833 10.0556 17.6836 9.4376 17.7934C8.30959 18.1779 10.7816 18.4369 9.2916 18.841C8.37159 18.6684 7.41158 18.3584 7.80558 17.4089C5.73556 17.6698 3.91553 18.5134 5.55155 20.5792H5.67156L5.67356 20.5811ZM10.6616 18.0897C11.1476 16.3358 13.2616 19.5316 11.4576 18.3212C11.2416 18.1642 10.8876 18.0347 10.6616 18.0857V18.0897ZM10.7556 17.2383C11.1276 17.5247 11.4556 16.7282 10.7556 17.2383V17.2383ZM11.6456 17.2539C11.7096 16.4477 13.6817 17.6816 11.9716 17.5443L11.6456 17.2539ZM12.8616 16.7733C12.9896 17.2245 13.3057 16.2632 12.8616 16.7733V16.7733ZM13.1736 16.5693C13.9137 15.6983 17.3637 16.0141 14.8377 16.4849C14.1617 15.9847 13.6417 16.7792 13.1736 16.5693ZM17.6737 15.8885C17.5637 13.5069 19.9117 16.736 17.6737 15.8885V15.8885ZM18.9537 15.8807C19.4197 14.6801 20.7657 15.4001 19.1697 15.6394C19.2037 15.7669 19.1217 16.2593 18.9537 15.8807ZM8.64359 22.2467C7.16157 21.5208 10.0376 21.409 8.64359 22.2467V22.2467ZM9.6736 22.5292C8.61159 22.3212 10.1636 22.0191 9.6736 22.5292V22.5292ZM6.63357 20.4105C5.69156 20.1829 7.43158 19.8121 6.63357 20.4105V20.4105ZM47.8381 45.6978C47.2301 46.0117 47.8621 45.0014 47.8381 45.6978V45.6978ZM43.652 42.8925C43.112 42.9651 43.772 42.0921 43.652 42.8925V42.8925ZM48.9921 45.9685C50.1061 45.9685 52.3681 45.6292 49.9421 45.6292C49.5621 45.688 47.7261 45.6762 48.9921 45.9685ZM10.5796 22.0348C11.4796 21.976 11.9916 21.0598 10.4056 21.1128C7.94558 20.8636 12.5736 21.9367 10.0896 21.6307C9.75561 21.8465 10.5616 22.0956 10.5796 22.0368V22.0348ZM11.3756 22.4311C11.0956 22.7332 11.2796 21.8622 11.3756 22.4311V22.4311ZM12.3156 19.9651C11.7756 19.8376 12.7096 19.4884 12.3156 19.9651V19.9651ZM9.3156 15.045C10.9276 14.5075 13.1296 13.9052 13.8897 15.3098C13.1156 14.3956 13.5777 13.4971 14.3097 14.8331C15.3417 16.1848 15.8597 14.2191 15.1857 13.7639C15.9517 14.6977 16.8237 15.1372 15.6997 13.8228C16.9197 12.3828 13.2536 14.0131 12.4196 13.9954C12.0196 14.172 8.27559 14.9312 9.3156 15.045ZM10.2596 13.2735C11.1796 12.5928 13.4357 13.6776 11.9876 12.5967C11.8476 12.475 8.8156 13.4167 10.2596 13.2735ZM13.6077 13.4089C14.6837 13.4344 13.1456 11.9924 14.4257 12.6438C14.2157 11.9709 12.9336 11.8453 12.3056 11.5766C11.9536 12.1926 13.0276 13.4167 13.6077 13.4089ZM10.8476 10.4269C10.1956 10.6781 11.2196 9.93258 10.8476 10.4269V10.4269ZM12.2156 10.7487C13.9477 10.5231 11.7756 10.0169 11.8676 10.7291L12.2156 10.7487ZM9.66161 8.7869C8.44159 7.22532 11.9536 9.04978 10.7156 7.41365C9.67161 6.59951 8.66959 8.33176 9.66161 8.7869ZM25.3098 17.0558C25.8698 16.0828 22.9998 15.7453 24.9338 16.7125C25.1138 16.7713 25.0738 17.1245 25.3098 17.0558Z" fill="black"/>
</svg>
