<svg width="56" height="56" viewBox="0 0 56 56" fill="none" xmlns="http://www.w3.org/2000/svg">
<g clip-path="url(#clip0_507_627)">
<path fill-rule="evenodd" clip-rule="evenodd" d="M27.8199 0.00195312C12.457 0.00195312 0 12.8341 0 28.664C0 41.3272 7.97171 52.0709 19.0245 55.8608C20.4154 56.1266 20.9262 55.2392 20.9262 54.4824C20.9262 53.799 20.9004 51.5409 20.8879 49.1457C13.1483 50.8798 11.5157 45.7644 11.5157 45.7644C10.2497 42.4519 8.4265 41.5706 8.4265 41.5706C5.90194 39.7917 8.61667 39.8277 8.61667 39.8277C11.4103 40.0305 12.8808 42.7818 12.8808 42.7818C15.3626 47.1636 19.3894 45.8969 20.9771 45.1645C21.2269 43.3123 21.9475 42.0471 22.7432 41.3317C16.5641 40.608 10.0688 38.1498 10.0688 27.1672C10.0688 24.0384 11.1552 21.4811 12.9346 19.4744C12.646 18.7522 11.6937 15.8368 13.2047 11.889C13.2047 11.889 15.5406 11.1182 20.8558 14.8268C23.0756 14.1919 25.4553 13.8737 27.8195 13.8623C30.1838 13.8737 32.5657 14.1919 34.7888 14.8268C40.0989 11.1186 42.4318 11.8886 42.4318 11.8886C43.9458 15.836 42.9938 18.7514 42.7045 19.4732C44.4883 21.4804 45.5674 24.0373 45.5674 27.1661C45.5674 38.1756 39.0595 40.5989 32.865 41.3086C33.8626 42.1986 34.7519 43.9426 34.7519 46.6169C34.7519 50.4519 34.7203 53.5389 34.7203 54.4824C34.7203 55.2457 35.2204 56.1387 36.6304 55.8577C47.6795 52.0637 55.6402 41.3238 55.6402 28.6644C55.6402 12.8341 43.1829 0.00195312 27.8199 0.00195312Z" fill="black"/>
<path d="M10.5403 41.1527C10.4787 41.2955 10.2613 41.3388 10.0633 41.24C9.86064 41.1466 9.74824 40.9522 9.81347 40.8094C9.87354 40.6632 10.091 40.6226 10.2926 40.7202C10.4946 40.814 10.6095 41.0099 10.5403 41.1527ZM11.664 42.4483C11.5313 42.5751 11.2715 42.5166 11.0964 42.3161C10.9136 42.116 10.8801 41.8483 11.0146 41.72C11.151 41.5935 11.403 41.6528 11.5847 41.8529C11.7672 42.0549 11.8029 42.3199 11.664 42.4483ZM12.7608 44.1C12.5902 44.2226 12.3112 44.1084 12.1387 43.8532C11.968 43.598 11.968 43.2924 12.1424 43.1697C12.3156 43.0474 12.5902 43.1583 12.7652 43.4104C12.9347 43.6698 12.9348 43.9751 12.7608 44.1ZM14.2671 45.6952C14.1145 45.8683 13.7898 45.8216 13.5521 45.5851C13.3088 45.3542 13.241 45.0261 13.3936 44.853C13.5484 44.6794 13.8749 44.7277 14.1145 44.9631C14.3559 45.1932 14.4292 45.5235 14.2671 45.6952ZM16.3402 46.6205C16.2724 46.8445 15.9606 46.9471 15.6451 46.851C15.33 46.753 15.124 46.4903 15.1881 46.2636C15.253 46.0377 15.5677 45.9313 15.8847 46.0335C16.199 46.1311 16.4058 46.3923 16.3402 46.6205ZM18.616 46.7914C18.6234 47.0279 18.3565 47.2243 18.0263 47.2281C17.6931 47.2356 17.4237 47.0443 17.42 46.8119C17.42 46.5727 17.6817 46.379 18.0134 46.3733C18.3451 46.3657 18.616 46.5567 18.616 46.791M20.7352 46.4212C20.7746 46.6513 20.545 46.8882 20.2163 46.9512C19.8934 47.0128 19.5945 46.87 19.5536 46.6418C19.5131 46.4052 19.7471 46.1687 20.0696 46.1075C20.3987 46.0483 20.6932 46.1869 20.7352 46.4212Z" fill="black"/>
</g>
<defs>
<clipPath id="clip0_507_627">
<rect width="56" height="56" fill="white"/>
</clipPath>
</defs>
</svg>
