<svg width="56" height="56" viewBox="0 0 56 56" fill="none" xmlns="http://www.w3.org/2000/svg">
<g clip-path="url(#clip0_507_627)">
<path d="M42.875 0H13.125C5.87626 0 0 5.87626 0 13.125V42.875C0 50.1237 5.87626 56 13.125 56H42.875C50.1237 56 56 50.1237 56 42.875V13.125C56 5.87626 50.1237 0 42.875 0Z" fill="white"/>
<path fill-rule="evenodd" clip-rule="evenodd" d="M27.8199 6.67383C16.1238 6.67383 6.64014 16.4432 6.64014 28.4947C6.64014 38.1354 12.7091 46.3148 21.1238 49.2001C22.1827 49.4024 22.5716 48.7269 22.5716 48.1507C22.5716 47.6304 22.552 45.9113 22.5424 44.0878C16.6502 45.408 15.4072 41.5136 15.4072 41.5136C14.4434 38.9917 13.0554 38.3207 13.0554 38.3207C11.1334 36.9664 13.2002 36.9939 13.2002 36.9939C15.327 37.1482 16.4465 39.2429 16.4465 39.2429C18.3359 42.5788 21.4016 41.6145 22.6103 41.0568C22.8006 39.6467 23.3491 38.6835 23.9549 38.1389C19.2506 37.5879 14.3056 35.7164 14.3056 27.3552C14.3056 24.9732 15.1328 23.0263 16.4875 21.4985C16.2678 20.9487 15.5427 18.7292 16.6931 15.7236C16.6931 15.7236 18.4715 15.1368 22.518 17.9602C24.208 17.4769 26.0197 17.2346 27.8196 17.226C29.6196 17.2346 31.433 17.4769 33.1254 17.9602C37.1681 15.1371 38.9442 15.7234 38.9442 15.7234C40.0968 18.7286 39.372 20.9481 39.1518 21.4976C40.5098 23.0257 41.3313 24.9723 41.3313 27.3543C41.3313 35.7361 36.3768 37.581 31.6608 38.1213C32.4203 38.7989 33.0974 40.1266 33.0974 42.1625C33.0974 45.0822 33.0732 47.4324 33.0732 48.1507C33.0732 48.7318 33.454 49.4117 34.5275 49.1978C42.9394 46.3093 48.9999 38.1328 48.9999 28.495C48.9999 16.4432 39.516 6.67383 27.8199 6.67383Z" fill="black"/>
<path d="M14.6646 38.0026C14.6177 38.1113 14.4522 38.1442 14.3015 38.0691C14.1472 37.998 14.0616 37.8499 14.1113 37.7413C14.157 37.63 14.3226 37.599 14.4761 37.6733C14.6298 37.7447 14.7174 37.8939 14.6646 38.0026ZM15.5201 38.9889C15.4191 39.0855 15.2213 39.041 15.088 38.8883C14.9488 38.736 14.9233 38.5322 15.0257 38.4345C15.1295 38.3382 15.3215 38.3833 15.4598 38.5356C15.5987 38.6894 15.6259 38.8912 15.5201 38.9889ZM16.3551 40.2464C16.2252 40.3398 16.0128 40.2528 15.8815 40.0585C15.7516 39.8643 15.7516 39.6315 15.8843 39.5382C16.0162 39.4451 16.2252 39.5295 16.3585 39.7215C16.4876 39.9189 16.4876 40.1513 16.3551 40.2464ZM17.5019 41.4608C17.3857 41.5927 17.1385 41.5571 16.9576 41.377C16.7724 41.2013 16.7207 40.9515 16.8369 40.8197C16.9547 40.6876 17.2033 40.7243 17.3857 40.9035C17.5695 41.0787 17.6253 41.3302 17.5019 41.4608ZM19.0802 42.1653C19.0286 42.3359 18.7912 42.4139 18.551 42.3408C18.3111 42.2662 18.1543 42.0662 18.2031 41.8936C18.2525 41.7216 18.4921 41.6407 18.7334 41.7184C18.9727 41.7927 19.1301 41.9916 19.0802 42.1653ZM20.8128 42.2954C20.8184 42.4755 20.6153 42.625 20.3639 42.6279C20.1102 42.6336 19.9051 42.4879 19.9023 42.311C19.9023 42.1289 20.1015 41.9815 20.354 41.9771C20.6066 41.9714 20.8128 42.1168 20.8128 42.2951M22.4262 42.0136C22.4562 42.1887 22.2814 42.3691 22.0311 42.4171C21.7853 42.464 21.5578 42.3553 21.5266 42.1815C21.4958 42.0014 21.6739 41.8213 21.9194 41.7748C22.17 41.7297 22.3942 41.8352 22.4262 42.0136Z" fill="black"/>
</g>
<defs>
<clipPath id="clip0_507_627">
<rect width="56" height="56" fill="white"/>
</clipPath>
</defs>
</svg>
