<svg width="56" height="51" viewBox="0 0 56 51" fill="none" xmlns="http://www.w3.org/2000/svg">
<g clip-path="url(#clip0_507_720)">
<mask id="mask0_507_720" style="mask-type:luminance" maskUnits="userSpaceOnUse" x="0" y="0" width="56" height="51">
<path d="M55.3275 22.7926L43.8216 2.59629C42.9412 1.0205 41.3001 0.0327691 39.508 0H16.4918C14.6994 0.0318773 13.0579 1.01985 12.1781 2.59629L0.667828 22.7396C-0.22261 24.3035 -0.22261 26.2271 0.667828 27.7909L12.1738 48.102C13.0445 49.7002 14.6816 50.7207 16.4874 50.791H39.5036C41.3093 50.7285 42.9493 49.7122 43.8216 48.1153L55.3275 27.9189C56.2242 26.33 56.2242 24.3816 55.3275 22.7926Z" fill="white"/>
</mask>
<g mask="url(#mask0_507_720)">
<path d="M55.3275 22.7926L43.8216 2.59629C42.9412 1.0205 41.3001 0.0327691 39.508 0H16.4918C14.6994 0.0318773 13.0579 1.01985 12.1781 2.59629L0.667828 22.7396C-0.22261 24.3035 -0.22261 26.2271 0.667828 27.7909L12.1738 48.102C13.0445 49.7002 14.6816 50.7207 16.4874 50.791H39.5036C41.3093 50.7285 42.9493 49.7122 43.8216 48.1153L55.3275 27.9189C56.2242 26.33 56.2242 24.3816 55.3275 22.7926Z" fill="#4285F4"/>
</g>
<mask id="mask1_507_720" style="mask-type:luminance" maskUnits="userSpaceOnUse" x="0" y="0" width="56" height="51">
<path d="M55.3275 22.7926L43.8216 2.59629C42.9412 1.0205 41.3001 0.0327691 39.508 0H16.4918C14.6994 0.0318773 13.0579 1.01985 12.1781 2.59629L0.667828 22.7396C-0.22261 24.3035 -0.22261 26.2271 0.667828 27.7909L12.1738 48.102C13.0445 49.7002 14.6816 50.7207 16.4874 50.791H39.5036C41.3093 50.7285 42.9493 49.7122 43.8216 48.1153L55.3275 27.9189C56.2242 26.33 56.2242 24.3816 55.3275 22.7926Z" fill="white"/>
</mask>
<g mask="url(#mask1_507_720)">
<path opacity="0.07" d="M40.9428 18.707L39.3565 20.4532L39.7138 30.8293L38.2103 33.0286L37.3387 32.1489H38.1406V28.5509L34.2924 24.667L31.3837 26.1343L21.7366 16.3757L17.0909 18.8873L16.5156 23.7521L18.1456 32.6547L20.5077 34.9903L19.4312 36.5342L33.4853 51.0523H39.3565C41.1552 50.9899 43.1033 49.8002 43.9723 48.2094L53.5489 31.4294L40.9428 18.707Z" fill="black"/>
</g>
<mask id="mask2_507_720" style="mask-type:luminance" maskUnits="userSpaceOnUse" x="0" y="0" width="56" height="51">
<path d="M55.3275 22.7926L43.8216 2.59629C42.9412 1.0205 41.3001 0.0327691 39.508 0H16.4918C14.6994 0.0318773 13.0579 1.01985 12.1781 2.59629L0.667828 22.7396C-0.22261 24.3035 -0.22261 26.2271 0.667828 27.7909L12.1738 48.102C13.0445 49.7002 14.6816 50.7207 16.4874 50.791H39.5036C41.3093 50.7285 42.9493 49.7122 43.8216 48.1153L55.3275 27.9189C56.2242 26.33 56.2242 24.3816 55.3275 22.7926Z" fill="white"/>
</mask>
<g mask="url(#mask2_507_720)">
<path d="M19.4316 36.5341L21.7371 34.2073L18.2811 30.7193V19.8637L21.7371 16.3757L19.4316 14.0488L14.8164 18.7069V31.8761L19.4316 36.5341Z" fill="white"/>
</g>
<mask id="mask3_507_720" style="mask-type:luminance" maskUnits="userSpaceOnUse" x="0" y="0" width="56" height="51">
<path d="M55.3275 22.7926L43.8216 2.59629C42.9412 1.0205 41.3001 0.0327691 39.508 0H16.4918C14.6994 0.0318773 13.0579 1.01985 12.1781 2.59629L0.667828 22.7396C-0.22261 24.3035 -0.22261 26.2271 0.667828 27.7909L12.1738 48.102C13.0445 49.7002 14.6816 50.7207 16.4874 50.791H39.5036C41.3093 50.7285 42.9493 49.7122 43.8216 48.1153L55.3275 27.9189C56.2242 26.33 56.2242 24.3816 55.3275 22.7926Z" fill="white"/>
</mask>
<g mask="url(#mask3_507_720)">
<path d="M23.0015 26.941C23.9041 26.941 24.6358 26.2025 24.6358 25.2915C24.6358 24.3806 23.9041 23.6421 23.0015 23.6421C22.0989 23.6421 21.3672 24.3806 21.3672 25.2915C21.3672 26.2025 22.0989 26.941 23.0015 26.941Z" fill="white"/>
</g>
<mask id="mask4_507_720" style="mask-type:luminance" maskUnits="userSpaceOnUse" x="0" y="0" width="56" height="51">
<path d="M55.3275 22.7926L43.8216 2.59629C42.9412 1.0205 41.3001 0.0327691 39.508 0H16.4918C14.6994 0.0318773 13.0579 1.01985 12.1781 2.59629L0.667828 22.7396C-0.22261 24.3035 -0.22261 26.2271 0.667828 27.7909L12.1738 48.102C13.0445 49.7002 14.6816 50.7207 16.4874 50.791H39.5036C41.3093 50.7285 42.9493 49.7122 43.8216 48.1153L55.3275 27.9189C56.2242 26.33 56.2242 24.3816 55.3275 22.7926Z" fill="white"/>
</mask>
<g mask="url(#mask4_507_720)">
<path d="M27.8901 26.941C28.7927 26.941 29.5244 26.2025 29.5244 25.2915C29.5244 24.3806 28.7927 23.6421 27.8901 23.6421C26.9876 23.6421 26.2559 24.3806 26.2559 25.2915C26.2559 26.2025 26.9876 26.941 27.8901 26.941Z" fill="white"/>
</g>
<mask id="mask5_507_720" style="mask-type:luminance" maskUnits="userSpaceOnUse" x="0" y="0" width="56" height="51">
<path d="M55.3275 22.7926L43.8216 2.59629C42.9412 1.0205 41.3001 0.0327691 39.508 0H16.4918C14.6994 0.0318773 13.0579 1.01985 12.1781 2.59629L0.667828 22.7396C-0.22261 24.3035 -0.22261 26.2271 0.667828 27.7909L12.1738 48.102C13.0445 49.7002 14.6816 50.7207 16.4874 50.791H39.5036C41.3093 50.7285 42.9493 49.7122 43.8216 48.1153L55.3275 27.9189C56.2242 26.33 56.2242 24.3816 55.3275 22.7926Z" fill="white"/>
</mask>
<g mask="url(#mask5_507_720)">
<path d="M32.7808 26.941C33.6834 26.941 34.4151 26.2025 34.4151 25.2915C34.4151 24.3806 33.6834 23.6421 32.7808 23.6421C31.8782 23.6421 31.1465 24.3806 31.1465 25.2915C31.1465 26.2025 31.8782 26.941 32.7808 26.941Z" fill="white"/>
</g>
<mask id="mask6_507_720" style="mask-type:luminance" maskUnits="userSpaceOnUse" x="0" y="0" width="56" height="51">
<path d="M55.3275 22.7926L43.8216 2.59629C42.9412 1.0205 41.3001 0.0327691 39.508 0H16.4918C14.6994 0.0318773 13.0579 1.01985 12.1781 2.59629L0.667828 22.7396C-0.22261 24.3035 -0.22261 26.2271 0.667828 27.7909L12.1738 48.102C13.0445 49.7002 14.6816 50.7207 16.4874 50.791H39.5036C41.3093 50.7285 42.9493 49.7122 43.8216 48.1153L55.3275 27.9189C56.2242 26.33 56.2242 24.3816 55.3275 22.7926Z" fill="white"/>
</mask>
<g mask="url(#mask6_507_720)">
<path d="M36.3269 14.0488L34.0215 16.3757L37.4775 19.8637V30.7193L34.0215 34.2073L36.3269 36.5341L40.9422 31.8761V18.7069L36.3269 14.0488Z" fill="white"/>
</g>
</g>
<defs>
<clipPath id="clip0_507_720">
<rect width="56" height="51" fill="white"/>
</clipPath>
</defs>
</svg>
