<svg width="57" height="56" viewBox="0 0 57 56" fill="none" xmlns="http://www.w3.org/2000/svg">
<g clip-path="url(#clip0_507_720)">
<path d="M43.2727 0H13.2468C5.93077 0 0 5.87626 0 13.125V42.875C0 50.1237 5.93077 56 13.2468 56H43.2727C50.5887 56 56.5195 50.1237 56.5195 42.875V13.125C56.5195 5.87626 50.5887 0 43.2727 0Z" fill="white"/>
<mask id="mask0_507_720" style="mask-type:luminance" maskUnits="userSpaceOnUse" x="5" y="5" width="47" height="42">
<path d="M50.9156 23.7225L41.3766 7.13267C40.6467 5.83827 39.2862 5.02692 37.8004 5H18.7189C17.2329 5.02618 15.872 5.83773 15.1426 7.13267L5.60005 23.679C4.86183 24.9636 4.86183 26.5437 5.60005 27.8282L15.139 44.5124C15.8609 45.8252 17.2181 46.6635 18.7152 46.7212H37.7968C39.2938 46.6698 40.6535 45.835 41.3766 44.5232L50.9156 27.9334C51.6589 26.6282 51.6589 25.0277 50.9156 23.7225Z" fill="white"/>
</mask>
<g mask="url(#mask0_507_720)">
<path d="M50.9156 23.7225L41.3766 7.13267C40.6467 5.83827 39.2862 5.02692 37.8004 5H18.7189C17.2329 5.02618 15.872 5.83773 15.1426 7.13267L5.60005 23.679C4.86183 24.9636 4.86183 26.5437 5.60005 27.8282L15.139 44.5124C15.8609 45.8252 17.2181 46.6635 18.7152 46.7212H37.7968C39.2938 46.6698 40.6535 45.835 41.3766 44.5232L50.9156 27.9334C51.6589 26.6282 51.6589 25.0277 50.9156 23.7225Z" fill="#4285F4"/>
</g>
<mask id="mask1_507_720" style="mask-type:luminance" maskUnits="userSpaceOnUse" x="5" y="5" width="47" height="42">
<path d="M50.9156 23.7225L41.3766 7.13267C40.6467 5.83827 39.2862 5.02692 37.8004 5H18.7189C17.2329 5.02618 15.872 5.83773 15.1426 7.13267L5.60005 23.679C4.86183 24.9636 4.86183 26.5437 5.60005 27.8282L15.139 44.5124C15.8609 45.8252 17.2181 46.6635 18.7152 46.7212H37.7968C39.2938 46.6698 40.6535 45.835 41.3766 44.5232L50.9156 27.9334C51.6589 26.6282 51.6589 25.0277 50.9156 23.7225Z" fill="white"/>
</mask>
<g mask="url(#mask1_507_720)">
<path opacity="0.07" d="M38.9899 20.3661L37.6747 21.8005L37.971 30.3238L36.7245 32.1303L36.0018 31.4077H36.6667V28.4522L33.4763 25.2618L31.0649 26.4671L23.067 18.4512L19.2155 20.5142L18.7385 24.5103L20.0898 31.8232L22.0481 33.7417L21.1557 35.0099L32.8072 46.9355H37.6747C39.166 46.8843 40.781 45.907 41.5014 44.6003L49.4409 30.8167L38.9899 20.3661Z" fill="black"/>
</g>
<mask id="mask2_507_720" style="mask-type:luminance" maskUnits="userSpaceOnUse" x="5" y="5" width="47" height="42">
<path d="M50.9156 23.7225L41.3766 7.13267C40.6467 5.83827 39.2862 5.02692 37.8004 5H18.7189C17.2329 5.02618 15.872 5.83773 15.1426 7.13267L5.60005 23.679C4.86183 24.9636 4.86183 26.5437 5.60005 27.8282L15.139 44.5124C15.8609 45.8252 17.2181 46.6635 18.7152 46.7212H37.7968C39.2938 46.6698 40.6535 45.835 41.3766 44.5232L50.9156 27.9334C51.6589 26.6282 51.6589 25.0277 50.9156 23.7225Z" fill="white"/>
</mask>
<g mask="url(#mask2_507_720)">
<path d="M21.1558 35.0101L23.0672 33.0988L20.202 30.2336V21.3165L23.0672 18.4514L21.1558 16.54L17.3296 20.3663V31.1839L21.1558 35.0101Z" fill="white"/>
</g>
<mask id="mask3_507_720" style="mask-type:luminance" maskUnits="userSpaceOnUse" x="5" y="5" width="47" height="42">
<path d="M50.9156 23.7225L41.3766 7.13267C40.6467 5.83827 39.2862 5.02692 37.8004 5H18.7189C17.2329 5.02618 15.872 5.83773 15.1426 7.13267L5.60005 23.679C4.86183 24.9636 4.86183 26.5437 5.60005 27.8282L15.139 44.5124C15.8609 45.8252 17.2181 46.6635 18.7152 46.7212H37.7968C39.2938 46.6698 40.6535 45.835 41.3766 44.5232L50.9156 27.9334C51.6589 26.6282 51.6589 25.0277 50.9156 23.7225Z" fill="white"/>
</mask>
<g mask="url(#mask3_507_720)">
<path d="M24.1149 27.1307C24.8632 27.1307 25.4698 26.5241 25.4698 25.7758C25.4698 25.0275 24.8632 24.4209 24.1149 24.4209C23.3666 24.4209 22.76 25.0275 22.76 25.7758C22.76 26.5241 23.3666 27.1307 24.1149 27.1307Z" fill="white"/>
</g>
<mask id="mask4_507_720" style="mask-type:luminance" maskUnits="userSpaceOnUse" x="5" y="5" width="47" height="42">
<path d="M50.9156 23.7225L41.3766 7.13267C40.6467 5.83827 39.2862 5.02692 37.8004 5H18.7189C17.2329 5.02618 15.872 5.83773 15.1426 7.13267L5.60005 23.679C4.86183 24.9636 4.86183 26.5437 5.60005 27.8282L15.139 44.5124C15.8609 45.8252 17.2181 46.6635 18.7152 46.7212H37.7968C39.2938 46.6698 40.6535 45.835 41.3766 44.5232L50.9156 27.9334C51.6589 26.6282 51.6589 25.0277 50.9156 23.7225Z" fill="white"/>
</mask>
<g mask="url(#mask4_507_720)">
<path d="M28.1689 27.1307C28.9172 27.1307 29.5238 26.5241 29.5238 25.7758C29.5238 25.0275 28.9172 24.4209 28.1689 24.4209C27.4206 24.4209 26.814 25.0275 26.814 25.7758C26.814 26.5241 27.4206 27.1307 28.1689 27.1307Z" fill="white"/>
</g>
<mask id="mask5_507_720" style="mask-type:luminance" maskUnits="userSpaceOnUse" x="5" y="5" width="47" height="42">
<path d="M50.9156 23.7225L41.3766 7.13267C40.6467 5.83827 39.2862 5.02692 37.8004 5H18.7189C17.2329 5.02618 15.872 5.83773 15.1426 7.13267L5.60005 23.679C4.86183 24.9636 4.86183 26.5437 5.60005 27.8282L15.139 44.5124C15.8609 45.8252 17.2181 46.6635 18.7152 46.7212H37.7968C39.2938 46.6698 40.6535 45.835 41.3766 44.5232L50.9156 27.9334C51.6589 26.6282 51.6589 25.0277 50.9156 23.7225Z" fill="white"/>
</mask>
<g mask="url(#mask5_507_720)">
<path d="M32.2228 27.1307C32.9711 27.1307 33.5777 26.5241 33.5777 25.7758C33.5777 25.0275 32.9711 24.4209 32.2228 24.4209C31.4745 24.4209 30.8679 25.0275 30.8679 25.7758C30.8679 26.5241 31.4745 27.1307 32.2228 27.1307Z" fill="white"/>
</g>
<mask id="mask6_507_720" style="mask-type:luminance" maskUnits="userSpaceOnUse" x="5" y="5" width="47" height="42">
<path d="M50.9156 23.7225L41.3766 7.13267C40.6467 5.83827 39.2862 5.02692 37.8004 5H18.7189C17.2329 5.02618 15.872 5.83773 15.1426 7.13267L5.60005 23.679C4.86183 24.9636 4.86183 26.5437 5.60005 27.8282L15.139 44.5124C15.8609 45.8252 17.2181 46.6635 18.7152 46.7212H37.7968C39.2938 46.6698 40.6535 45.835 41.3766 44.5232L50.9156 27.9334C51.6589 26.6282 51.6589 25.0277 50.9156 23.7225Z" fill="white"/>
</mask>
<g mask="url(#mask6_507_720)">
<path d="M35.1638 16.54L33.2524 18.4514L36.1176 21.3165V30.2336L33.2524 33.0988L35.1638 35.0101L38.99 31.1839V20.3663L35.1638 16.54Z" fill="white"/>
</g>
</g>
<defs>
<clipPath id="clip0_507_720">
<rect width="57" height="56" fill="white"/>
</clipPath>
</defs>
</svg>
