<svg width="56" height="52" viewBox="0 0 56 52" fill="none" xmlns="http://www.w3.org/2000/svg">
<g clip-path="url(#clip0_509_755)">
<path d="M55.8115 38.1722C55.6655 37.6217 55.4289 37.0994 55.1116 36.6263C55.1795 36.377 55.2312 36.1239 55.266 35.8683C55.4912 34.2453 54.928 32.7586 53.8662 31.6098C53.2911 30.9819 52.6747 30.5674 52.0218 30.313C52.4503 28.4817 52.6673 26.6085 52.6684 24.7264C52.6684 23.8677 52.6198 23.0263 52.5382 22.1974C52.4955 21.7835 52.4441 21.3704 52.384 20.9587C52.1969 19.7439 51.9196 18.5445 51.5541 17.371C51.3146 16.6 51.0375 15.8409 50.724 15.0967C50.2538 13.9946 49.7048 12.9278 49.0813 11.9056C48.6721 11.225 48.2267 10.5667 47.7468 9.93359C47.5116 9.61393 47.2666 9.30187 47.0115 8.99769C46.2561 8.08054 45.4355 7.21961 44.5553 6.42114C44.2633 6.15276 43.9628 5.89372 43.6542 5.64413C43.3505 5.39107 43.0399 5.14604 42.7232 4.90949C42.0855 4.43557 41.4264 3.99071 40.7483 3.57681C37.0013 1.30362 32.6072 0 27.9085 0C14.2339 0 3.15071 11.0699 3.15071 24.728C3.15036 26.6324 3.37126 28.5303 3.80901 30.3825C3.22168 30.6372 2.65855 31.034 2.13674 31.6084C1.07519 32.7575 0.511786 34.2382 0.737203 35.8615C0.771192 36.1195 0.822856 36.3748 0.891378 36.6258C0.574326 37.0991 0.337761 37.6217 0.191471 38.1722C-0.134825 39.4109 -0.0274194 40.5279 0.387249 41.5073C-0.0633121 42.7867 0.0492603 44.149 0.636323 45.3339C1.06323 46.1989 1.67422 46.8679 2.42715 47.4662C3.32256 48.1769 4.44339 48.7812 5.79616 49.3605C7.40916 50.0476 9.37727 50.6932 10.2719 50.93C12.5848 51.5283 14.802 51.9074 17.0507 51.9256C20.2538 51.9555 23.011 51.2032 24.9851 49.2785C25.955 49.3972 26.9312 49.4566 27.9082 49.4564C28.9407 49.4542 29.972 49.389 30.9971 49.2619C32.9669 51.1989 35.7339 51.958 38.9479 51.9273C41.1953 51.9096 43.4127 51.5305 45.7186 50.9314C46.62 50.6945 48.5873 50.049 50.2024 49.3621C51.5547 48.7815 52.6752 48.1775 53.5769 47.4675C54.3241 46.8695 54.9346 46.2003 55.3617 45.3353C55.9548 44.1509 56.0616 42.7886 55.6168 41.5086C56.0276 40.5301 56.1342 39.4106 55.8082 38.1735L55.8115 38.1722ZM53.5168 41.4231C53.9712 42.2843 54.0003 43.2574 53.5992 44.1634C52.9912 45.5371 51.481 46.6188 48.547 47.7809C46.7233 48.5036 45.0529 48.9653 45.0393 48.9697C42.6269 49.5946 40.444 49.9118 38.5569 49.9118C35.4299 49.9118 33.1023 49.0501 31.6258 47.3478C29.1299 47.7722 26.5818 47.7866 24.0802 47.3904C22.6026 49.0645 20.2897 49.9118 17.1872 49.9118C15.2982 49.9118 13.1166 49.5946 10.7048 48.9697C10.6898 48.9653 9.02052 48.5036 7.19706 47.7809C4.26311 46.6194 2.75399 45.5382 2.1449 44.1634C1.74383 43.2571 1.77292 42.284 2.22729 41.4231C2.26944 41.3432 2.3143 41.265 2.36243 41.1898C2.08997 40.7813 1.90752 40.3196 1.82649 39.8356C1.74551 39.3517 1.76806 38.8558 1.89262 38.381C2.07317 37.6961 2.44624 37.1263 2.95254 36.717C2.70874 36.3167 2.54875 35.8713 2.48213 35.4074C2.33638 34.3987 2.67138 33.3914 3.42567 32.5693C4.01273 31.9303 4.84289 31.5786 5.76223 31.5786H5.7867C5.09359 29.36 4.74228 27.0485 4.74445 24.7237C4.74445 12.0487 15.0337 1.77184 27.7239 1.77184C40.4168 1.77184 50.7034 12.0487 50.7034 24.7237C50.705 27.0539 50.3512 29.3706 49.654 31.5949C49.765 31.584 49.8737 31.5783 49.9803 31.5783C50.8994 31.5783 51.7298 31.9297 52.3169 32.5688C53.0706 33.3892 53.4064 34.3974 53.2604 35.4069C53.1938 35.8707 53.0339 36.3164 52.79 36.7167C53.2963 37.1257 53.6694 37.6955 53.8499 38.3807C53.9742 38.8555 53.9968 39.3511 53.9157 39.8354C53.8347 40.3193 53.6523 40.7808 53.3801 41.1895C53.4282 41.2639 53.4736 41.3421 53.5152 41.422L53.5168 41.4231Z" fill="white"/>
<path d="M53.3641 41.1867C53.6363 40.778 53.8187 40.3166 53.8998 39.8326C53.9808 39.3483 53.9582 38.8527 53.834 38.378C53.6534 37.693 53.2804 37.1232 52.7741 36.7139C53.0177 36.3136 53.1778 35.8682 53.2445 35.4043C53.3902 34.3957 53.0552 33.3883 52.3009 32.5663C51.7139 31.9272 50.8834 31.5755 49.9644 31.5755C49.8575 31.5755 49.749 31.5809 49.6381 31.5921C50.3344 29.3683 50.6877 27.0511 50.6855 24.7209C50.6855 12.0459 40.3963 1.76904 27.706 1.76904C15.0158 1.76904 4.72658 12.0432 4.72658 24.7209C4.72438 27.0449 5.07572 29.3569 5.76883 31.5758H5.74435C4.82529 31.5758 3.99513 31.9275 3.40807 32.5665C2.65432 33.387 2.31878 34.3949 2.46453 35.4046C2.53107 35.8685 2.69109 36.3139 2.93494 36.7142C2.42864 37.1235 2.05557 37.6933 1.87529 38.3785C1.75081 38.8532 1.72835 39.3492 1.80943 39.8334C1.89052 40.3174 2.07327 40.7791 2.34565 41.1875C2.29697 41.2628 2.25238 41.341 2.21051 41.4208C1.75641 42.282 1.72704 43.2551 2.12812 44.1611C2.73584 45.5346 4.24633 46.6168 7.18028 47.7787C9.004 48.5014 10.6744 48.9631 10.688 48.9674C13.1004 49.5924 15.2833 49.9098 17.1704 49.9098C20.2729 49.9098 22.5869 49.0625 24.0634 47.3881C26.5639 47.7844 29.1129 47.77 31.609 47.3455C33.0847 49.0478 35.4131 49.9098 38.5401 49.9098C40.4288 49.9098 42.6107 49.5924 45.0225 48.9674C45.0372 48.9631 46.7068 48.5014 48.5302 47.7787C51.4642 46.6174 52.9733 45.5351 53.5824 44.1611C53.9835 43.2549 53.9544 42.2818 53.5 41.4208C53.4584 41.3402 53.4127 41.2622 53.3646 41.1875L53.3641 41.1867ZM23.0185 44.7662C22.8913 44.9887 22.755 45.2057 22.6098 45.4167C22.2278 45.9753 21.7253 46.402 21.1423 46.7195C20.0272 47.3265 18.6162 47.5389 17.1832 47.5389C14.9187 47.5389 12.596 47.0096 11.2963 46.6722C11.2324 46.6557 3.32106 44.4235 4.3217 42.5224C4.49029 42.203 4.76791 42.0754 5.11705 42.0754C6.52747 42.0754 9.09515 44.1731 10.1991 44.1731C10.4455 44.1731 10.6195 44.068 10.6905 43.8124C11.1609 42.1272 3.54185 41.4189 4.18357 38.9782C4.29696 38.5463 4.60395 38.3712 5.03602 38.3712C6.90053 38.3709 11.0861 41.6465 11.9617 41.6465C12.0288 41.6465 12.077 41.627 12.1031 41.5857L12.1145 41.5669C12.5251 40.8893 12.2896 40.3967 9.47474 38.6745L9.20446 38.5102C6.10736 36.6376 3.93205 35.5119 5.16926 34.1675C5.31147 34.0122 5.51296 33.9435 5.75795 33.9435C6.04863 33.9435 6.40021 34.0407 6.78742 34.2034C8.42325 34.8924 10.6894 36.7715 11.6384 37.5901C11.9176 37.8329 12.0821 37.9812 12.0821 37.9812C12.0821 37.9812 13.2813 39.2267 14.0065 39.2267C14.1734 39.2267 14.3148 39.1612 14.4108 38.9985C14.9253 38.1327 9.63599 34.129 9.33688 32.4777C9.13485 31.3582 9.47882 30.7914 10.1154 30.7914C10.4177 30.7914 10.787 30.9199 11.1946 31.1782C12.459 31.9799 14.9008 36.1699 15.7954 37.7995C16.095 38.3459 16.6065 38.5768 17.0674 38.5768C17.9818 38.5768 18.6967 37.6688 17.1511 36.5151C14.8282 34.7789 15.6434 31.9416 16.752 31.7678C16.7993 31.7605 16.8471 31.7567 16.8947 31.7564C17.903 31.7564 18.3478 33.4918 18.3478 33.4918C18.3478 33.4918 19.6511 36.7617 21.8909 38.9969C23.9229 41.0254 24.2065 42.6905 23.0229 44.7654L23.0185 44.7662ZM30.2596 45.1492L30.1435 45.163L29.9452 45.1858C29.8411 45.1964 29.737 45.2068 29.6323 45.2165L29.53 45.2258L29.437 45.2336L29.3046 45.2442C29.2559 45.2478 29.2073 45.2516 29.1586 45.2546L29.0128 45.2643L28.9808 45.2662L28.866 45.273L28.8173 45.2755L28.6814 45.2823L28.5234 45.2888L28.3798 45.2937L28.2841 45.2964H28.2357C28.2058 45.2964 28.1762 45.298 28.1463 45.2983H28.0987C28.0688 45.2983 28.0391 45.2983 28.0092 45.2999L27.8877 45.3013H27.7174C27.5839 45.3013 27.451 45.2999 27.318 45.2975L27.2103 45.295C27.1799 45.295 27.1492 45.2934 27.1187 45.2926L27.0048 45.289L26.8628 45.2836L26.7353 45.2782L26.7021 45.2768L26.5806 45.2703C26.5469 45.2684 26.5131 45.2668 26.4797 45.2646L26.4011 45.26C26.3024 45.2537 26.2037 45.2467 26.105 45.2391L26.0017 45.2309L25.8712 45.2198L25.7186 45.2057C25.6335 45.1978 25.5484 45.1891 25.4633 45.1796H25.4592C26.7019 42.4094 26.0735 39.8239 23.5623 37.3199C21.9156 35.6773 20.8187 33.2515 20.593 32.7192C20.133 31.1426 18.9151 29.3895 16.8923 29.3895C16.7212 29.3898 16.5508 29.4033 16.3819 29.43C15.4957 29.569 14.7213 30.0785 14.1688 30.8449C13.5719 30.1032 12.9914 29.5136 12.4666 29.1804C11.6753 28.6796 10.886 28.4254 10.1165 28.4254C9.1566 28.4254 8.29817 28.8192 7.69996 29.5334L7.685 29.5516L7.65129 29.4101L7.64993 29.4042C7.53616 28.918 7.44058 28.4275 7.36333 27.9343C7.36333 27.9308 7.36333 27.9275 7.3617 27.9243L7.34484 27.8127C7.33573 27.7524 7.32684 27.6918 7.31819 27.6315C7.31112 27.5813 7.30405 27.531 7.29753 27.4811C7.291 27.4311 7.28393 27.3808 7.27795 27.3306C7.27142 27.2801 7.26544 27.2298 7.25946 27.1796C7.25372 27.1318 7.2482 27.084 7.24287 27.0362L7.24127 27.024C7.21674 26.8034 7.19572 26.5826 7.17816 26.3616L7.16864 26.2336C7.16592 26.1986 7.16347 26.1633 7.1613 26.1277C7.1613 26.1196 7.16021 26.1112 7.15967 26.1036L7.15072 25.9618C7.14746 25.9105 7.14498 25.8591 7.14226 25.8078C7.13954 25.7567 7.13683 25.7054 7.13465 25.6538L7.12921 25.5194L7.12758 25.4786L7.1235 25.3542L7.12054 25.2489C7.12054 25.2068 7.11861 25.1644 7.11779 25.1223L7.11562 24.9895C7.11507 24.9452 7.11562 24.9012 7.11453 24.857C7.11317 24.8124 7.11453 24.7682 7.11453 24.7236C7.11453 13.3577 16.3406 4.14272 27.7229 4.14272C39.1052 4.14272 48.3312 13.3577 48.3312 24.7236V24.9895C48.3312 25.0338 48.3302 25.0783 48.3291 25.1223C48.3291 25.1593 48.3277 25.1954 48.3266 25.2323C48.3266 25.2652 48.3253 25.2978 48.3239 25.3295C48.3239 25.3711 48.3215 25.4124 48.3201 25.4539V25.4575C48.3166 25.5476 48.3128 25.6378 48.309 25.728L48.3073 25.7578L48.3003 25.8925L48.2937 25.9993C48.2785 26.2521 48.2586 26.505 48.2344 26.7573V26.7608C48.2301 26.8081 48.2252 26.8556 48.22 26.9028C48.2081 27.0128 48.1958 27.1228 48.1836 27.2328L48.1697 27.3434L48.1526 27.4732C48.1466 27.5207 48.1401 27.568 48.1333 27.6152C48.126 27.6682 48.1181 27.7209 48.1105 27.7736L48.0914 27.8979L48.0691 28.0392C48.0615 28.0861 48.0539 28.1329 48.0449 28.1798C48.0357 28.2266 48.0286 28.2733 48.0205 28.3203C48.0041 28.4137 47.9873 28.5068 47.9691 28.6C47.9329 28.7855 47.8951 28.9704 47.8551 29.1551C47.8451 29.201 47.8347 29.2472 47.8241 29.2931C47.2441 28.7301 46.4763 28.4235 45.629 28.4235C44.8603 28.4235 44.0701 28.6774 43.2791 29.1785C42.754 29.5114 42.174 30.1013 41.5766 30.843C41.0233 30.0763 40.2489 29.5671 39.3638 29.4278C39.1949 29.4014 39.0242 29.3879 38.8531 29.3876C36.8304 29.3876 35.6119 31.1401 35.1524 32.7173C34.9243 33.2498 33.8284 35.6748 32.1804 37.3207C29.6712 39.8187 29.0371 42.3939 30.2612 45.1505L30.2596 45.1492ZM51.5341 39.6061L51.526 39.6302C51.5203 39.6457 51.5145 39.6612 51.5083 39.6764C51.4985 39.6995 51.4882 39.722 51.4773 39.7446C51.4509 39.7984 51.421 39.8505 51.3881 39.9005C51.3427 39.9681 51.2929 40.0327 51.2388 40.0936C51.2263 40.1077 51.2144 40.1216 51.2002 40.1354C51.1812 40.1563 51.1608 40.1767 51.1407 40.1971C50.7744 40.5596 50.2164 40.8771 49.5856 41.1688C49.5141 41.2011 49.4417 41.2334 49.3683 41.2657L49.2955 41.2981C49.2468 41.3195 49.1984 41.341 49.1473 41.3619C49.0975 41.3831 49.0475 41.404 48.9974 41.4246L48.8457 41.4874C48.4909 41.6332 48.1273 41.772 47.7725 41.9094L47.621 41.9681L47.4709 42.0267C47.3714 42.0656 47.273 42.1044 47.1759 42.1432L47.0315 42.2014L46.8898 42.2595L46.82 42.2885C46.7737 42.3081 46.728 42.3271 46.6829 42.3467C45.6393 42.7937 44.8888 43.2486 45.0465 43.8132C45.0509 43.8293 45.0558 43.8445 45.0612 43.8591C45.0754 43.901 45.0947 43.9406 45.1186 43.9776C45.1327 43.9998 45.149 44.0207 45.1673 44.0397C45.3527 44.232 45.6901 44.2016 46.1157 44.049C46.1502 44.0365 46.1856 44.0232 46.2212 44.0091C46.2457 43.9998 46.2699 43.99 46.2943 43.9803L46.3311 43.9648C46.4284 43.9235 46.5314 43.8776 46.637 43.8274C46.6633 43.8151 46.69 43.8032 46.7166 43.7891C47.2368 43.5351 47.8266 43.1927 48.4117 42.8811C48.5015 42.8325 48.5915 42.7861 48.6809 42.7399C48.8272 42.6642 48.9749 42.5911 49.1239 42.5213C49.678 42.2611 50.1988 42.0764 50.6178 42.0764C50.8141 42.0764 50.9878 42.1166 51.1322 42.209L51.1564 42.225C51.2296 42.2766 51.2932 42.3399 51.3451 42.4127C51.3571 42.4298 51.3696 42.4474 51.3802 42.4656C51.3916 42.4844 51.4025 42.5036 51.4128 42.5232C51.6198 42.9154 51.4466 43.3219 51.0414 43.7204C50.6523 44.1028 50.047 44.4778 49.3588 44.8252C49.308 44.851 49.2566 44.8768 49.2049 44.9018C47.1571 45.9061 44.4763 46.6625 44.4383 46.672C43.7237 46.8569 42.7018 47.1 41.5505 47.2817L41.38 47.308L41.3523 47.3121C41.0913 47.3512 40.8294 47.3857 40.567 47.4156L40.5428 47.418C40.0656 47.4723 39.5762 47.5117 39.0859 47.5283H39.0786C38.9024 47.5348 38.7264 47.5378 38.5502 47.5378H38.3474C38.0787 47.534 37.8104 47.522 37.5425 47.5014C37.5363 47.5014 37.5297 47.5014 37.5232 47.5C37.4275 47.4927 37.3315 47.4837 37.2361 47.4732C37.0718 47.4555 36.9079 47.4338 36.7445 47.4082C36.6808 47.3977 36.6128 47.3865 36.5473 47.3751C36.5174 47.3697 36.4878 47.3642 36.4581 47.3583L36.4511 47.3569C36.3567 47.339 36.2629 47.3192 36.1694 47.2977C36.1152 47.2855 36.0609 47.2733 36.0073 47.2589L35.9752 47.2505C35.9486 47.2439 35.9225 47.2369 35.8964 47.2298L35.8819 47.226L35.7979 47.2018C35.7675 47.1931 35.7373 47.1842 35.7068 47.1752L35.6959 47.172L35.6168 47.1478C35.5869 47.1386 35.5573 47.1288 35.5276 47.1193C35.5032 47.1111 35.479 47.1027 35.4545 47.0948L35.4009 47.0761C35.3493 47.0582 35.2981 47.0392 35.247 47.0196L35.1986 47.0009L35.1586 46.9848C35.0817 46.9539 35.005 46.9216 34.9292 46.8876L34.8786 46.8634L34.8701 46.8596C34.8522 46.8512 34.8345 46.8428 34.8166 46.8352C34.7815 46.8184 34.7467 46.801 34.7122 46.7833L34.7018 46.7782L34.6518 46.7518C34.5629 46.7056 34.4756 46.6562 34.3902 46.6035L34.3434 46.575C34.3192 46.5603 34.2972 46.5454 34.2741 46.5305L34.2132 46.49C34.1912 46.4753 34.1692 46.4604 34.1477 46.4449L34.1085 46.4172C34.0672 46.3876 34.0267 46.3575 33.9867 46.3262C33.9655 46.3099 33.9446 46.2931 33.9236 46.2776C33.8771 46.2404 33.8317 46.2021 33.7868 46.1627L33.7849 46.1611C33.7412 46.1234 33.6985 46.0843 33.6569 46.0443L33.6547 46.0416C33.6329 46.021 33.6117 46.0003 33.5905 45.9789C33.5696 45.9574 33.5484 45.9362 33.528 45.9148C33.5073 45.8931 33.4866 45.8711 33.4665 45.8485C33.4469 45.8273 33.4279 45.8059 33.4089 45.7841L33.4024 45.7768C33.3042 45.663 33.2123 45.5438 33.1272 45.4197L33.0935 45.37C33.0712 45.3371 33.0491 45.304 33.0274 45.2708L32.9632 45.1723C32.9317 45.1242 32.9009 45.0756 32.871 45.0267C32.8496 44.9919 32.8283 44.9572 32.8074 44.9221C32.7897 44.8923 32.7721 44.8627 32.7552 44.8333C32.7457 44.8173 32.7367 44.801 32.7277 44.7847C32.7188 44.7679 32.7082 44.7508 32.6986 44.7336L32.6834 44.7068C32.6782 44.6978 32.6766 44.6951 32.6739 44.6891C32.6554 44.6568 32.6375 44.6239 32.6201 44.5905C32.6122 44.5761 32.6043 44.5615 32.5959 44.5471L32.5714 44.5004L32.5472 44.4539L32.5004 44.3597C32.4928 44.3442 32.4855 44.3287 32.4781 44.3132C32.4621 44.2798 32.4468 44.247 32.4316 44.2141C32.4256 44.2008 32.4194 44.1875 32.4139 44.1742C32.393 44.1288 32.3732 44.0829 32.3544 44.0365C32.3416 44.0058 32.3299 43.9754 32.3174 43.945C32.2823 43.8553 32.2494 43.7649 32.2193 43.6734C32.2103 43.6462 32.2013 43.6193 32.1934 43.5922C32.1738 43.5305 32.1562 43.4683 32.1404 43.4056C32.1211 43.3325 32.104 43.2587 32.0896 43.1845C32.0803 43.1408 32.0722 43.0968 32.0654 43.0525C32.058 43.0088 32.0518 42.9651 32.0466 42.9216C32.0354 42.835 32.0276 42.7481 32.0229 42.6609C32.0229 42.6465 32.0216 42.6318 32.0213 42.6174C32.0199 42.5886 32.0191 42.5599 32.0189 42.5311C32.0036 41.3709 32.5918 40.2549 33.8488 39.0004C36.0878 36.7661 37.3919 33.4954 37.3919 33.4954C37.3919 33.4954 37.427 33.3582 37.5001 33.161C37.5246 33.0956 37.5501 33.0304 37.577 32.966C37.6078 32.8932 37.6407 32.8213 37.676 32.7507L37.6864 32.73C37.7318 32.6399 37.781 32.5521 37.8346 32.4666C37.8468 32.4468 37.8588 32.4269 37.8729 32.4074C37.9126 32.3482 37.9547 32.2909 37.9991 32.2352C38.0333 32.1926 38.0698 32.1513 38.1081 32.1122C38.2381 31.9785 38.3863 31.8694 38.554 31.811L38.5752 31.8042C38.5894 31.7996 38.6033 31.7952 38.6177 31.7911C38.6345 31.7868 38.6514 31.7827 38.6682 31.7792L38.6759 31.7778C38.7115 31.7708 38.7471 31.7659 38.7833 31.7634H38.7865C38.8053 31.7634 38.8241 31.7615 38.8434 31.7615C38.8915 31.7618 38.9393 31.7656 38.9869 31.7729C39.1887 31.8047 39.3809 31.9248 39.5463 32.11L39.5686 32.1361C39.6224 32.1991 39.6713 32.2664 39.7148 32.337C39.7475 32.3895 39.7782 32.4446 39.8073 32.5024C39.819 32.5269 39.8301 32.5491 39.8413 32.573C39.8467 32.5853 39.8522 32.5972 39.8573 32.6097C39.8682 32.6339 39.8783 32.6583 39.8883 32.6839C39.9451 32.8294 39.9892 32.9796 40.0202 33.1328C40.0531 33.2982 40.0721 33.466 40.0776 33.6347C40.0795 33.7088 40.0795 33.7838 40.0776 33.8598C40.0762 33.8886 40.0749 33.9177 40.0727 33.9467C40.0504 34.2696 39.98 34.5874 39.8636 34.8897C39.8519 34.9196 39.8391 34.95 39.8271 34.9804C39.7687 35.12 39.7007 35.2552 39.624 35.3856C39.5802 35.46 39.5329 35.5339 39.4824 35.6072L39.4514 35.6512C39.3314 35.8185 39.1977 35.9755 39.0514 36.1205C38.9073 36.2647 38.7528 36.3981 38.5894 36.52C38.4254 36.6409 38.2718 36.775 38.1299 36.9209C37.7212 37.3495 37.626 37.7272 37.7179 38.0138C37.7288 38.0461 37.7416 38.0779 37.7562 38.1085C37.7902 38.1751 37.8343 38.2362 37.887 38.2894L37.9014 38.3038C37.9164 38.3182 37.9322 38.3321 37.9482 38.3454L37.9645 38.3587C38.0042 38.3891 38.0461 38.4162 38.0899 38.4399C38.1024 38.4467 38.1141 38.4535 38.1285 38.46C38.1886 38.4899 38.2514 38.5138 38.3161 38.5319L38.3341 38.5366L38.3583 38.5431L38.3795 38.5482L38.402 38.5531L38.4246 38.5577L38.4461 38.5613C38.4621 38.5643 38.4784 38.5667 38.4945 38.5689L38.5103 38.5711L38.5383 38.574L38.5557 38.5757L38.5845 38.5778H38.6011L38.631 38.5792H38.7253L38.7523 38.5778L38.7833 38.5759L38.8211 38.5724L38.8564 38.5681C38.8643 38.5681 38.8724 38.5659 38.8806 38.5645C39.0051 38.5463 39.1264 38.5113 39.2412 38.4602C39.2656 38.4499 39.2898 38.4385 39.3121 38.4266C39.36 38.4027 39.4065 38.3758 39.4511 38.3462C39.5134 38.3054 39.5721 38.2595 39.6273 38.2096L39.6656 38.1732C39.6716 38.1672 39.6779 38.1615 39.6836 38.1553C39.7211 38.1178 39.7564 38.0781 39.7893 38.0366C39.8475 37.9632 39.8992 37.8853 39.9441 37.8033C40.4762 36.837 41.0339 35.8848 41.6166 34.9489L41.6965 34.821L41.7773 34.6928C41.8178 34.6281 41.8583 34.5641 41.8989 34.5008L41.9399 34.437L42.0218 34.3096C42.1316 34.1398 42.2417 33.972 42.3527 33.8058L42.4356 33.6819C42.602 33.4359 42.7682 33.1963 42.9324 32.9685L43.0145 32.856C43.1932 32.6094 43.3794 32.3685 43.5728 32.1333L43.6497 32.0415C43.6622 32.0261 43.6739 32.0111 43.6878 31.9962L43.7631 31.909C43.7756 31.8946 43.7876 31.8805 43.8006 31.8666L43.8735 31.7844L43.9102 31.7447C43.9455 31.7064 43.9814 31.6687 44.0179 31.6312C44.0423 31.607 44.0649 31.5826 44.0886 31.56C44.2264 31.4191 44.3784 31.2928 44.5424 31.1833L44.5802 31.1592L44.6185 31.1347C44.643 31.1195 44.6678 31.1048 44.693 31.091C45.3358 30.7268 45.8683 30.6999 46.1744 31.0057C46.3601 31.1912 46.4627 31.4984 46.4572 31.9256C46.4572 31.9446 46.4572 31.9633 46.4556 31.9829V32.0041C46.4556 32.0233 46.454 32.0432 46.4526 32.063C46.4526 32.0872 46.4496 32.1116 46.4472 32.1358C46.4447 32.1602 46.4436 32.1787 46.4412 32.2002C46.4412 32.2064 46.4398 32.2126 46.439 32.2189C46.4371 32.2379 46.4346 32.2572 46.4322 32.2762C46.4322 32.2822 46.4322 32.2879 46.4298 32.2939C46.427 32.3197 46.4232 32.3455 46.4186 32.371C46.4156 32.3946 46.4118 32.4182 46.4072 32.4419C46.4053 32.4554 46.4026 32.4688 46.4004 32.4823C46.3933 32.5209 46.3841 32.5592 46.3729 32.5967C46.352 32.6667 46.3264 32.7355 46.2962 32.8023C46.2832 32.8313 46.2693 32.8604 46.2552 32.8889C46.2258 32.9478 46.1926 33.0081 46.1562 33.0706C46.138 33.1013 46.1192 33.1331 46.0991 33.1648L46.0686 33.2132C46.0377 33.2618 46.0053 33.3109 45.9716 33.3606C45.9379 33.4103 45.9017 33.4611 45.8628 33.5125C45.8125 33.5809 45.7595 33.6507 45.7035 33.7213L45.6611 33.7748C45.5411 33.9239 45.4182 34.0706 45.2926 34.2148L45.1928 34.3275L45.142 34.3845C45.0726 34.4619 45.003 34.5388 44.9329 34.6151L44.879 34.6732C44.8434 34.7118 44.8062 34.7509 44.7705 34.7897C44.7341 34.8291 44.6971 34.8682 44.6601 34.9073L44.5481 35.0252L44.4347 35.1433C44.3969 35.1827 44.3589 35.2227 44.3205 35.262L44.0897 35.4997C42.9871 36.6292 41.8252 37.7549 41.432 38.4573C41.4059 38.5032 41.3822 38.5501 41.3607 38.5982C41.305 38.7259 41.2816 38.835 41.2974 38.9233C41.3025 38.9524 41.3129 38.9803 41.3278 39.0056C41.3501 39.0439 41.377 39.0792 41.408 39.1107C41.4225 39.1248 41.4374 39.1381 41.4537 39.1501C41.5345 39.2077 41.6324 39.2373 41.7316 39.2343H41.7626L41.7944 39.2321L41.8265 39.2283L41.8529 39.2245C41.8564 39.2242 41.86 39.2234 41.8635 39.2226L41.8877 39.218L41.8942 39.2163L41.9209 39.2106L41.9589 39.2009L41.9929 39.1908C42.0152 39.184 42.0375 39.1764 42.0604 39.168C42.1096 39.1506 42.1577 39.1305 42.2048 39.108C42.2167 39.1023 42.229 39.0968 42.2406 39.0906L42.2768 39.0727C42.3241 39.0488 42.3712 39.023 42.4185 38.995C42.4563 38.9727 42.4938 38.9499 42.5313 38.9258L42.5678 38.9016C42.5797 38.894 42.592 38.8861 42.6039 38.8771L42.6401 38.853L42.6591 38.8397L42.7113 38.8033C42.76 38.7696 42.8054 38.7351 42.8516 38.7001L42.8557 38.6971L42.9286 38.6406C43.0284 38.5618 43.1233 38.4825 43.2089 38.4078L43.266 38.3576L43.2715 38.3527L43.3011 38.3264C43.3713 38.2636 43.4338 38.205 43.486 38.1563L43.5072 38.1357L43.5586 38.0871L43.5893 38.0572L43.5999 38.0463L43.6029 38.0434C43.629 38.0173 43.629 38.0173 43.6551 37.9909L43.6573 37.9888L43.6671 37.9801C43.6701 37.9768 43.6742 37.9736 43.6788 37.9695L43.6826 37.966L43.6929 37.9567L43.7481 37.9081L43.7791 37.8801C43.7944 37.8671 43.811 37.8522 43.8278 37.8361L43.8651 37.8035C43.8716 37.7981 43.8781 37.7919 43.8849 37.7859L43.9238 37.7519L43.9812 37.702L44.0114 37.6756C44.1296 37.5727 44.2738 37.4486 44.4388 37.3087L44.5065 37.2517L44.6185 37.158L44.7327 37.0624C44.8823 36.9385 45.0433 36.8068 45.2135 36.6699L45.3252 36.5803C45.4204 36.5048 45.5183 36.4274 45.6173 36.3497C45.657 36.3185 45.6975 36.2873 45.7388 36.2563C45.8402 36.1781 45.9422 36.1002 46.0445 36.0233C46.2778 35.8473 46.5184 35.671 46.7618 35.4991L46.8664 35.4266C46.9393 35.3761 47.0122 35.3259 47.0853 35.2767L47.1514 35.2319C47.2822 35.1439 47.4141 35.0578 47.5471 34.9736L47.6131 34.9321L47.6787 34.8913C47.7442 34.8508 47.8097 34.8107 47.8744 34.7718L47.9394 34.7333L48.0697 34.6575C48.1124 34.6328 48.1548 34.6086 48.1972 34.5847L48.2228 34.5703L48.3239 34.5152C48.3658 34.4924 48.4079 34.4704 48.4495 34.4489L48.5121 34.4169L48.5724 34.3862C48.7106 34.3169 48.8511 34.2528 48.9942 34.1942C49.0138 34.186 49.0331 34.1781 49.0524 34.1697C49.0907 34.1537 49.1288 34.139 49.1666 34.126C49.2044 34.1132 49.2416 34.0999 49.2783 34.0869C49.3118 34.0757 49.3441 34.0654 49.3757 34.0556L49.3863 34.0524C49.4031 34.0472 49.42 34.0423 49.4369 34.038L49.4417 34.0366C49.476 34.0269 49.5103 34.0179 49.5448 34.0097H49.5475C49.5984 33.9975 49.6479 33.9872 49.6963 33.9791C49.7128 33.9763 49.7292 33.9736 49.7449 33.9715C49.792 33.9644 49.8393 33.9595 49.8866 33.9562C49.9165 33.9541 49.9467 33.9533 49.9766 33.9533H49.9994C50.0299 33.9533 50.0593 33.9552 50.0884 33.9581C50.1017 33.9581 50.115 33.9606 50.1281 33.9625H50.1335C50.1465 33.9638 50.1599 33.966 50.1726 33.9687C50.1854 33.9715 50.1985 33.9734 50.211 33.9763H50.2153C50.2278 33.9791 50.2395 33.9826 50.2526 33.9861C50.3565 34.0141 50.4519 34.0668 50.531 34.1396L50.5381 34.1466L50.552 34.1602L50.5656 34.1746C50.6746 34.2892 50.7649 34.4204 50.8329 34.5632L50.8435 34.5874C50.8666 34.6417 50.8848 34.6979 50.8976 34.7555C50.9329 34.916 50.9234 35.0833 50.8698 35.2387C50.8467 35.3063 50.8184 35.372 50.785 35.435L50.7627 35.4752C50.6779 35.6173 50.5778 35.7495 50.4639 35.8696L50.4394 35.8954C50.3858 35.9521 50.3301 36.0073 50.2727 36.0602C50.2545 36.0773 50.2357 36.0944 50.2167 36.1116L50.1879 36.1376C50.1281 36.1906 50.0669 36.2422 50.0049 36.2927C49.994 36.3014 49.9829 36.3101 49.9722 36.3193C49.929 36.3541 49.8844 36.3894 49.8382 36.4247C49.6789 36.5464 49.5165 36.6637 49.3512 36.7769C49.2539 36.8435 49.1532 36.9106 49.0494 36.9787C48.8558 37.1056 48.6608 37.2297 48.4639 37.3514C48.4071 37.3864 48.35 37.422 48.2918 37.4573C47.757 37.7859 47.1639 38.1373 46.5314 38.5195L46.3678 38.6189C46.1886 38.728 46.0194 38.8323 45.8604 38.9315L45.7802 38.982L45.6284 39.0792C45.5683 39.1172 45.5099 39.1547 45.453 39.1916C45.4101 39.2191 45.3682 39.2462 45.3271 39.2731L45.2461 39.3263C45.2067 39.3521 45.1675 39.3779 45.1284 39.4043L45.0903 39.4285C45.0501 39.4553 45.0109 39.4817 44.9728 39.5078L44.9106 39.5501L44.8374 39.6009L44.77 39.6479C44.6634 39.7226 44.5582 39.7989 44.4538 39.8766L44.4173 39.9043C44.3763 39.9352 44.3366 39.9662 44.2982 39.9963L44.2482 40.0363C44.1639 40.1039 44.0875 40.1688 44.0184 40.2307L43.9847 40.2617C43.9654 40.2793 43.9464 40.297 43.9284 40.3144C43.9156 40.3263 43.9039 40.3385 43.8912 40.3505L43.8735 40.3679C43.8346 40.4067 43.7968 40.4466 43.7601 40.4876L43.7422 40.5083C43.7022 40.5545 43.6674 40.5987 43.6367 40.6419L43.6231 40.6615C43.5877 40.7131 43.5564 40.7677 43.5298 40.8244L43.5205 40.8442L43.5148 40.8581L43.5102 40.87L43.504 40.8866C43.5021 40.8923 43.4982 40.9024 43.4961 40.9111C43.4849 40.9434 43.4768 40.9768 43.4713 41.0107L43.4686 41.0289L43.4664 41.0455L43.4651 41.0615V41.1468C43.4651 41.1539 43.4651 41.1612 43.4667 41.1685C43.467 41.1729 43.4675 41.1772 43.4681 41.1816C43.4681 41.1886 43.47 41.1957 43.4708 41.203L43.476 41.2329V41.2342C43.4779 41.2437 43.4798 41.2533 43.4822 41.2628C43.4847 41.2723 43.4871 41.2829 43.4901 41.2929C43.4988 41.3236 43.5094 41.354 43.5216 41.3836C43.5216 41.3858 43.5235 41.3882 43.5244 41.3904C43.5276 41.3977 43.5306 41.4053 43.5341 41.4127C43.5475 41.4436 43.5624 41.4738 43.5787 41.5034L43.5959 41.5341L43.6138 41.565L43.6326 41.596C43.6358 41.6012 43.6394 41.6058 43.6435 41.6104L43.6497 41.6169L43.6562 41.6229L43.6636 41.6286C43.6685 41.6321 43.6736 41.6351 43.6791 41.6381C43.6845 41.6405 43.6905 41.6433 43.6965 41.6454C43.703 41.6476 43.7095 41.6495 43.7161 41.6511C43.8729 41.6864 44.1954 41.5566 44.6237 41.3307L44.7007 41.2899L44.8309 41.219L44.8948 41.1837C44.9399 41.1593 44.9864 41.1321 45.0335 41.1052L45.1197 41.0566C45.6861 40.731 46.3629 40.3125 47.0622 39.904C47.1275 39.8657 47.1933 39.8277 47.2591 39.7897L47.3912 39.7055C47.4573 39.6675 47.5231 39.63 47.5892 39.593C47.8704 39.4333 48.1553 39.2799 48.4433 39.133L48.5724 39.0675C48.6584 39.0252 48.7435 38.9839 48.8275 38.9437C48.9904 38.8665 49.1549 38.7935 49.321 38.7242L49.4121 38.6873L49.4233 38.6829C49.9056 38.492 50.3431 38.3739 50.6972 38.3739C50.7738 38.3733 50.8503 38.3796 50.9258 38.3926H50.928C50.9525 38.397 50.9745 38.4019 50.9968 38.4076H51.0009C51.0335 38.4154 51.0656 38.4255 51.0966 38.438C51.1214 38.4469 51.1453 38.4575 51.1684 38.47C51.2698 38.5214 51.3566 38.5971 51.4213 38.6906C51.4267 38.6984 51.4319 38.7066 51.4368 38.715C51.4607 38.7514 51.4814 38.7897 51.4982 38.8299C51.5083 38.853 51.5175 38.8769 51.5262 38.9027C51.5349 38.9287 51.5426 38.9537 51.5504 38.9806C51.6081 39.1865 51.6024 39.4043 51.5341 39.6069V39.6061Z" fill="#FF9D00"/>
<path d="M48.3065 24.848V24.7149C48.3065 13.349 39.0832 4.13403 27.7009 4.13403C16.3213 4.13403 7.09254 13.349 7.09254 24.7149L7.09195 24.7595C7.09195 24.7891 7.09195 24.8184 7.09195 24.848C7.09357 24.8923 7.09404 24.9366 7.09363 24.9808L7.09526 25.0786L7.0958 25.1139L7.09716 25.1622C7.09771 25.1883 7.09852 25.2141 7.09852 25.2402L7.10124 25.3458L7.10559 25.4699L7.10695 25.5107L7.11239 25.6391V25.6451L7.12 25.7953V25.7991C7.12272 25.8504 7.12544 25.9018 7.1287 25.9528C7.13142 26.0004 7.13442 26.0476 7.13768 26.0949L7.13849 26.1033C7.14089 26.1438 7.14361 26.1845 7.14665 26.225L7.14747 26.2356C7.15019 26.2747 7.15318 26.314 7.15644 26.3529L7.15698 26.3605L7.16242 26.4284C7.17871 26.6242 7.19774 26.82 7.21952 27.0153L7.22088 27.0275L7.2372 27.1709L7.25596 27.3219C7.26855 27.4224 7.28198 27.5226 7.2962 27.6228C7.30469 27.6834 7.3135 27.7437 7.32258 27.804L7.32394 27.8113C7.34425 27.9476 7.36617 28.084 7.38974 28.2198C7.45737 28.6138 7.53679 29.006 7.62794 29.3955L7.6293 29.4017L7.638 29.4384C7.64616 29.4732 7.65431 29.5079 7.66302 29.5429L7.67797 29.5248C8.27618 28.8105 9.13434 28.4167 10.0945 28.4167C10.864 28.4167 11.6536 28.6706 12.4446 29.1717C12.9694 29.5047 13.5497 30.0945 14.1468 30.8362C14.6993 30.0696 15.4737 29.5603 16.3596 29.4213C16.5288 29.3947 16.6995 29.3811 16.8703 29.3808C18.8925 29.3808 20.1115 31.1336 20.571 32.7105C20.7981 33.2433 21.8939 35.6681 23.5458 37.3112C26.0569 39.8171 26.6864 42.4034 25.4427 45.1709H25.4467C25.5316 45.1801 25.6167 45.1888 25.7021 45.1967C25.7529 45.2016 25.8038 45.2065 25.8546 45.2108L25.8725 45.2125C25.9098 45.216 25.9473 45.2193 25.9848 45.222L26.0882 45.2304C26.1866 45.238 26.2853 45.2448 26.3846 45.2513L26.4629 45.2559L26.5251 45.2595L26.564 45.2616L26.6853 45.2681L26.7185 45.2695L26.8463 45.2749L26.9879 45.2804L27.1021 45.2836L27.1212 45.2844C27.1451 45.2853 27.1696 45.2863 27.1938 45.2863L27.2196 45.2869C27.38 45.2907 27.5402 45.2926 27.7006 45.2926H27.8708L27.9927 45.2912C28.0226 45.2896 28.0522 45.2896 28.0821 45.2896H28.1294L28.1705 45.2888C28.1865 45.2882 28.2029 45.2877 28.2189 45.2877H28.2676L28.363 45.285L28.5066 45.2801L28.6648 45.2733C28.7102 45.2714 28.7554 45.2692 28.8008 45.2668L28.8495 45.2641L28.9215 45.26L28.9642 45.2575L28.996 45.2556L29.142 45.2459C29.1907 45.2429 29.2394 45.2391 29.2881 45.2353L29.4202 45.225L29.5135 45.2171L29.6154 45.2078C29.7201 45.1981 29.8245 45.1878 29.9284 45.1769C29.9948 45.1696 30.0606 45.1622 30.1266 45.1543L30.2427 45.1405C29.0194 42.3839 29.6527 39.8092 32.1538 37.3133C33.8021 35.6683 34.8974 33.2422 35.1258 32.7099C35.5861 31.1334 36.8029 29.3803 38.8265 29.3803C38.9976 29.3805 39.1683 29.3938 39.3372 29.4207C40.2223 29.5598 40.9969 30.0693 41.5503 30.8357C42.1477 30.094 42.7277 29.5041 43.2525 29.1711C44.0435 28.6701 44.8337 28.4161 45.6024 28.4161C46.4496 28.4161 47.2178 28.723 47.7978 29.2858C47.8296 29.144 47.8603 29.0022 47.8897 28.8599C47.9076 28.7711 47.9253 28.682 47.9427 28.5927C47.9639 28.4829 47.984 28.3727 48.0025 28.2624C48.0074 28.2325 48.0126 28.2027 48.0183 28.1725C48.0273 28.1255 48.0352 28.0791 48.0425 28.0318L48.0455 28.0139L48.0648 27.8909L48.0838 27.7662L48.0841 27.7649C48.0917 27.7127 48.0996 27.6603 48.1067 27.6079C48.1124 27.5682 48.1178 27.5286 48.123 27.4887L48.1263 27.4658L48.1431 27.336L48.157 27.2255C48.1654 27.1527 48.1736 27.0799 48.1815 27.0069C48.185 26.9778 48.188 26.9485 48.191 26.9191L48.1937 26.8955C48.1989 26.8469 48.2035 26.7986 48.2078 26.7499L48.2187 26.637C48.2413 26.3866 48.2595 26.1362 48.2736 25.8852V25.8836L48.281 25.7505L48.2823 25.7206L48.2878 25.5943C48.29 25.5468 48.2919 25.4987 48.2935 25.4501V25.4466L48.2948 25.4116C48.2962 25.3817 48.2973 25.3518 48.2973 25.3222L48.2978 25.31C48.2989 25.2823 48.3 25.2535 48.3 25.225L48.3008 25.2005C48.3016 25.172 48.3025 25.1438 48.3025 25.1153L48.303 25.0911C48.3038 25.0547 48.3046 25.0186 48.3046 24.9822L48.3065 24.848ZM22.5916 45.4099C24.2234 43.0194 24.1078 41.2247 21.8686 38.9896C19.6294 36.7544 18.3256 33.4845 18.3256 33.4845C18.3256 33.4845 17.8391 31.5856 16.7297 31.7602C15.6203 31.9345 14.8065 34.7721 17.1292 36.5075C19.4518 38.2443 16.6672 39.4217 15.7731 37.7922C14.8788 36.1621 12.4395 31.972 11.1723 31.1708C9.90685 30.3694 9.01687 30.8186 9.31516 32.4704C9.46336 33.2903 10.8414 34.6895 12.1295 35.9956C13.4357 37.3223 14.6488 38.554 14.3896 38.9885C13.8749 39.8543 12.062 37.9714 12.062 37.9714C12.062 37.9714 6.38448 32.8112 5.14999 34.1556C4.01094 35.3948 5.7675 36.4483 8.47549 38.0719C8.70581 38.2101 8.94291 38.3524 9.18573 38.4991C12.2828 40.372 12.5248 40.866 12.0843 41.5735C11.922 41.8353 10.8852 41.2136 9.60992 40.4488C7.43597 39.1452 4.56863 37.4261 4.16348 38.9649C3.81299 40.2965 5.92195 41.1123 7.83432 41.8518C9.42774 42.4683 10.8852 43.0322 10.6704 43.7975C10.4482 44.5908 9.24392 43.9292 7.92677 43.2057C6.44892 42.3934 4.82967 41.5034 4.29944 42.5077C3.29771 44.4061 11.2088 46.6413 11.274 46.6576C13.83 47.3197 20.3206 48.7227 22.5911 45.402L22.5916 45.4099ZM33.1038 45.4099C31.4718 43.0194 31.5876 41.2247 33.8268 38.9896C36.0661 36.7544 37.3699 33.4845 37.3699 33.4845C37.3699 33.4845 37.8561 31.5856 38.9655 31.7602C40.0749 31.9345 40.889 34.7721 38.566 36.5075C36.2431 38.243 39.028 39.4217 39.9223 37.7922C40.8164 36.1621 43.256 31.972 44.5204 31.1708C45.7848 30.3697 46.6761 30.8186 46.3779 32.4704C46.2297 33.2903 44.8516 34.6898 43.5635 35.9983C42.2575 37.3247 41.0445 38.5564 41.3037 38.9912C41.8181 39.857 43.6326 37.973 43.6326 37.973C43.6326 37.973 49.3102 32.8129 50.5447 34.1572C51.6837 35.3965 49.9269 36.4502 47.2192 38.0735C46.9888 38.2115 46.752 38.3535 46.5092 38.5005C43.4121 40.373 43.1701 40.8673 43.6106 41.5748C43.7729 41.8366 44.8097 41.215 46.0847 40.4504C48.259 39.1468 51.126 37.4277 51.5312 38.9662C51.8817 40.2978 49.7727 41.1139 47.8603 41.8532C46.2669 42.4697 44.8095 43.0332 45.0243 43.7989C45.2464 44.5922 46.4502 43.9303 47.7652 43.2068C49.243 42.3945 50.8623 41.5042 51.3925 42.5088C52.3942 44.4086 44.4832 46.6424 44.4179 46.6587C41.8619 47.3227 35.3713 48.7257 33.1036 45.405L33.1038 45.4099Z" fill="#FFD21E"/>
<path d="M34.412 19.1122C34.7331 19.2258 34.9722 19.5715 35.1995 19.9001C35.5067 20.3447 35.7928 20.7581 36.2317 20.525C36.7497 20.2502 37.1741 19.8282 37.4517 19.3121C37.7294 18.7961 37.8474 18.2098 37.7911 17.6267C37.7492 17.1908 37.6111 16.7695 37.3865 16.3934C37.1619 16.0172 36.8565 15.6954 36.4927 15.4513C36.1286 15.2071 35.7148 15.0469 35.2813 14.9817C34.8476 14.9165 34.4049 14.9483 33.9851 15.0746C33.4236 15.2435 32.9249 15.5748 32.5518 16.0268C32.1791 16.4787 31.9485 17.0308 31.8895 17.6134C31.8307 18.1962 31.9463 18.7834 32.2215 19.3005C32.4249 19.6826 32.8762 19.5025 33.3526 19.3122C33.7262 19.1631 34.1151 19.0077 34.412 19.1122ZM20.4411 19.1125C20.1199 19.226 19.8807 19.5718 19.6533 19.9004C19.3461 20.3447 19.06 20.7583 18.6212 20.5253C18.2342 20.3197 17.8979 20.0308 17.636 19.6796C17.3742 19.3284 17.1936 18.9238 17.1071 18.4944C17.0207 18.0653 17.0305 17.622 17.136 17.1973C17.2417 16.7723 17.4402 16.376 17.7173 16.0368C17.9949 15.6979 18.3441 15.4246 18.74 15.2364C19.1359 15.0482 19.5688 14.9504 20.0071 14.9493C20.4454 14.9484 20.8786 15.0445 21.2753 15.2307C21.672 15.417 22.0225 15.6889 22.3015 16.0265C22.6746 16.4784 22.9052 17.0305 22.9642 17.6134C23.0229 18.1962 22.9073 18.7834 22.6319 19.3005C22.4279 19.6826 21.9766 19.5022 21.5002 19.3119C21.1268 19.1628 20.738 19.0074 20.4411 19.1122V19.1125ZM32.2503 31.8092C34.4645 30.0667 35.2767 27.2221 35.2767 25.4704C35.2767 24.0853 34.3435 24.5212 32.8499 25.2596L32.7658 25.3015C31.3946 25.9796 29.5681 26.8824 27.5668 26.8824C25.5631 26.8824 23.7383 25.9793 22.3679 25.3012C20.8258 24.5383 19.8586 24.0598 19.8586 25.4707C19.8586 27.2781 20.7239 30.2452 23.0998 31.9697C23.4131 31.3342 23.8541 30.7701 24.3958 30.3128C24.9372 29.8554 25.5675 29.5149 26.247 29.312C26.4841 29.2414 26.7283 29.649 26.9784 30.0662C27.2196 30.469 27.466 30.8807 27.7169 30.8807C27.984 30.8807 28.2466 30.4749 28.503 30.0787C28.7709 29.6648 29.0319 29.2612 29.2845 29.3419C30.556 29.7495 31.6195 30.6335 32.2511 31.8084L32.2503 31.8092Z" fill="#32343D"/>
<path d="M32.2358 31.817C31.0827 32.7246 29.5499 33.3332 27.5535 33.3332C25.6781 33.3332 24.2117 32.796 23.0859 31.9783C23.3995 31.343 23.8408 30.7789 24.3822 30.3219C24.9235 29.8645 25.5538 29.5237 26.2331 29.3205C26.6989 29.1817 27.1921 30.8892 27.7028 30.8892C28.2496 30.8892 28.7763 29.1926 29.2706 29.3504C30.5415 29.7583 31.6047 30.6423 32.2372 31.817H32.2358Z" fill="#FF323D"/>
<path d="M15.142 21.5782C14.9316 21.7197 14.6953 21.8183 14.4467 21.8683C14.1981 21.9182 13.9421 21.9188 13.6933 21.8699C13.4444 21.8207 13.2076 21.7232 12.9966 21.5828C12.7856 21.4421 12.6045 21.2615 12.4637 21.0508C12.3227 20.8403 12.2248 20.6037 12.1754 20.3555C12.1261 20.107 12.1264 19.8512 12.1763 19.6027C12.2261 19.3544 12.3246 19.1184 12.4658 18.908C12.6072 18.6977 12.7889 18.5174 13.0002 18.3773C13.4252 18.0956 13.9448 17.9935 14.4448 18.0937C14.9449 18.1939 15.3851 18.4881 15.6684 18.9115C15.9518 19.3352 16.0557 19.8536 15.957 20.3533C15.8582 20.8533 15.5651 21.2939 15.142 21.5782ZM42.7141 21.5782C42.5036 21.7197 42.2673 21.8183 42.0188 21.8683C41.7703 21.9182 41.5141 21.9188 41.2653 21.8699C41.0165 21.8207 40.7797 21.7232 40.5687 21.5828C40.3577 21.4421 40.1766 21.2615 40.0357 21.0508C39.8946 20.8403 39.7967 20.6037 39.7475 20.3555C39.6983 20.107 39.6986 19.8512 39.7483 19.6027C39.7981 19.3544 39.8965 19.1184 40.0379 18.908C40.1793 18.6977 40.361 18.5174 40.5722 18.3773C40.9972 18.0956 41.5169 17.9935 42.0169 18.0937C42.517 18.1939 42.9569 18.4881 43.2405 18.9115C43.5239 19.3352 43.6277 19.8536 43.529 20.3533C43.4303 20.8533 43.1372 21.2939 42.7141 21.5782Z" fill="#FFAD03"/>
</g>
<defs>
<clipPath id="clip0_509_755">
<rect width="56" height="52" fill="white"/>
</clipPath>
</defs>
</svg>
