<svg width="56" height="56" viewBox="0 0 56 56" fill="none" xmlns="http://www.w3.org/2000/svg">
<g clip-path="url(#clip0_509_755)">
<path d="M42.875 0H13.125C5.87626 0 0 5.87626 0 13.125V42.875C0 50.1237 5.87626 56 13.125 56H42.875C50.1237 56 56 50.1237 56 42.875V13.125C56 5.87626 50.1237 0 42.875 0Z" fill="white"/>
<path d="M52.8317 36.8645C52.7013 36.373 52.4901 35.9067 52.2068 35.4843C52.2675 35.2617 52.3136 35.0357 52.3447 34.8075C52.5457 33.3584 52.0429 32.031 51.0948 31.0053C50.5813 30.4446 50.031 30.0746 49.448 29.8474C49.8307 28.2123 50.0244 26.5398 50.0254 24.8594C50.0254 24.0926 49.9819 23.3414 49.9091 22.6013C49.871 22.2318 49.8251 21.8629 49.7714 21.4953C49.6044 20.4107 49.3568 19.3399 49.0305 18.2921C48.8166 17.6036 48.5692 16.9259 48.2893 16.2615C47.8695 15.2774 47.3793 14.3249 46.8226 13.4122C46.4572 12.8045 46.0596 12.2167 45.6311 11.6515C45.421 11.3661 45.2023 11.0875 44.9746 10.8159C44.3001 9.997 43.5674 9.22831 42.7815 8.51539C42.5208 8.27576 42.2525 8.04448 41.977 7.82163C41.7058 7.59568 41.4285 7.37691 41.1457 7.1657C40.5764 6.74255 39.9879 6.34536 39.3824 5.9758C36.0369 3.94617 32.1135 2.78223 27.9183 2.78223C15.7089 2.78223 5.81313 12.6661 5.81313 24.8608C5.81282 26.5612 6.01005 28.2557 6.40091 29.9095C5.8765 30.1369 5.3737 30.4912 4.90781 31.004C3.95999 32.03 3.45695 33.3521 3.65822 34.8014C3.68856 35.0318 3.73469 35.2597 3.79587 35.4838C3.51279 35.9064 3.30157 36.373 3.17096 36.8645C2.87962 37.9705 2.97552 38.9679 3.34576 39.8423C2.94347 40.9846 3.04398 42.201 3.56815 43.259C3.94931 44.0313 4.49484 44.6285 5.1671 45.1627C5.96657 45.7973 6.96731 46.3369 8.17514 46.8541C9.61532 47.4676 11.3726 48.044 12.1713 48.2554C14.2364 48.7896 16.216 49.1282 18.2238 49.1444C21.0838 49.1711 23.5456 48.4994 25.3082 46.7809C26.1742 46.8868 27.0457 46.9399 27.918 46.9397C28.8399 46.9378 29.7607 46.8796 30.676 46.7661C32.4347 48.4955 34.9053 49.1733 37.7749 49.1459C39.7815 49.1301 41.7614 48.7916 43.8202 48.2566C44.625 48.0452 46.3815 47.4688 47.8236 46.8555C49.0309 46.3371 50.0314 45.7978 50.8365 45.1639C51.5037 44.63 52.0487 44.0325 52.4301 43.2602C52.9596 42.2027 53.055 40.9863 52.6578 39.8435C53.0247 38.9698 53.1199 37.9703 52.8288 36.8657L52.8317 36.8645ZM50.7829 39.7671C51.1885 40.536 51.2145 41.4049 50.8564 42.2138C50.3136 43.4403 48.9652 44.4062 46.3456 45.4438C44.7172 46.089 43.2258 46.5013 43.2137 46.5051C41.0597 47.0631 39.1107 47.3463 37.4258 47.3463C34.6338 47.3463 32.5556 46.5769 31.2373 45.057C29.0089 45.436 26.7338 45.4489 24.5002 45.0951C23.1809 46.5898 21.1158 47.3463 18.3457 47.3463C16.6591 47.3463 14.7113 47.0631 12.5578 46.5051C12.5445 46.5013 11.054 46.089 9.42595 45.4438C6.80635 44.4067 5.45892 43.4413 4.91509 42.2138C4.55699 41.4046 4.58297 40.5358 4.98865 39.7671C5.02628 39.6958 5.06634 39.626 5.10931 39.5588C4.86605 39.1941 4.70314 38.7819 4.63079 38.3498C4.55849 37.9177 4.57862 37.4749 4.68984 37.051C4.85104 36.4394 5.18414 35.9307 5.6362 35.5653C5.41852 35.2078 5.27567 34.8102 5.21619 34.396C5.08606 33.4954 5.38516 32.596 6.05863 31.862C6.5828 31.2914 7.32401 30.9774 8.14485 30.9774H8.1667C7.54785 28.9965 7.23418 26.9327 7.23612 24.857C7.23612 13.54 16.4229 4.36422 27.7535 4.36422C39.0865 4.36422 48.2709 13.54 48.2709 24.857C48.2723 26.9375 47.9565 29.0059 47.334 30.9919C47.433 30.9822 47.5301 30.9771 47.6253 30.9771C48.4459 30.9771 49.1873 31.2909 49.7115 31.8615C50.3845 32.594 50.6843 33.4942 50.554 34.3955C50.4945 34.8097 50.3517 35.2076 50.1339 35.565C50.586 35.9302 50.9191 36.439 51.0803 37.0508C51.1913 37.4746 51.2114 37.9172 51.1391 38.3495C51.0667 38.7816 50.9038 39.1936 50.6608 39.5586C50.7038 39.625 50.7443 39.6948 50.7814 39.7661L50.7829 39.7671Z" fill="white"/>
<path d="M50.6468 39.5557C50.8898 39.1907 51.0527 38.7787 51.1251 38.3466C51.1974 37.9143 51.1773 37.4717 51.0663 37.0479C50.9051 36.4363 50.572 35.9276 50.12 35.5621C50.3375 35.2047 50.4805 34.807 50.54 34.3928C50.6701 33.4922 50.371 32.5929 49.6975 31.8588C49.1734 31.2883 48.4319 30.9742 47.6113 30.9742C47.5159 30.9742 47.419 30.9791 47.32 30.989C47.9417 29.0035 48.2571 26.9346 48.2552 24.8541C48.2552 13.5371 39.0684 4.36133 27.7378 4.36133C16.4072 4.36133 7.22044 13.5347 7.22044 24.8541C7.21847 26.929 7.53217 28.9933 8.15102 30.9745H8.12917C7.30857 30.9745 6.56736 31.2885 6.0432 31.8591C5.37021 32.5916 5.07062 33.4915 5.20075 34.3931C5.26016 34.8073 5.40304 35.2049 5.62076 35.5624C5.1687 35.9278 4.83561 36.4365 4.67465 37.0483C4.5635 37.4722 4.54345 37.915 4.61584 38.3474C4.68824 38.7795 4.85141 39.1917 5.09461 39.5564C5.05115 39.6236 5.01133 39.6934 4.97395 39.7647C4.5685 40.5336 4.54228 41.4025 4.90038 42.2114C5.443 43.4377 6.79164 44.404 9.41124 45.4414C11.0396 46.0866 12.531 46.4989 12.5431 46.5027C14.6971 47.0607 16.6461 47.3442 18.331 47.3442C21.1011 47.3442 23.1672 46.5876 24.4855 45.0927C26.7181 45.4465 28.9939 45.4336 31.2226 45.0546C32.5402 46.5745 34.6191 47.3442 37.4111 47.3442C39.0975 47.3442 41.0455 47.0607 43.199 46.5027C43.2121 46.4989 44.7028 46.0866 46.3308 45.4414C48.9504 44.4045 50.2979 43.4382 50.8417 42.2114C51.1998 41.4022 51.1738 40.5334 50.7681 39.7647C50.731 39.6927 50.6902 39.6231 50.6472 39.5564L50.6468 39.5557ZM23.5525 42.7517C23.4389 42.9503 23.3173 43.144 23.1876 43.3324C22.8465 43.8312 22.3979 44.2122 21.8773 44.4957C20.8817 45.0376 19.6219 45.2272 18.3425 45.2272C16.3206 45.2272 14.2467 44.7546 13.0863 44.4535C13.0292 44.4387 5.96551 42.4457 6.85894 40.7482C7.00946 40.4631 7.25734 40.3491 7.56907 40.3491C8.82837 40.3491 11.1209 42.2221 12.1066 42.2221C12.3266 42.2221 12.482 42.1282 12.5453 41.9001C12.9654 40.3954 6.16265 39.763 6.73561 37.5838C6.83685 37.1982 7.11095 37.0418 7.49672 37.0418C9.16147 37.0416 12.8986 39.9662 13.6803 39.9662C13.7403 39.9662 13.7833 39.9488 13.8066 39.9119L13.8168 39.8952C14.1834 39.2902 13.9731 38.8503 11.4599 37.3127L11.2185 37.166C8.45328 35.494 6.51104 34.4889 7.61569 33.2886C7.74266 33.1498 7.92256 33.0885 8.14131 33.0885C8.40084 33.0885 8.71475 33.1753 9.06047 33.3206C10.521 33.9358 12.5444 35.6135 13.3917 36.3444C13.641 36.5612 13.7879 36.6936 13.7879 36.6936C13.7879 36.6936 14.8586 37.8056 15.506 37.8056C15.6551 37.8056 15.7814 37.7472 15.8671 37.6019C16.3264 36.8289 11.6038 33.2541 11.3368 31.7798C11.1564 30.7802 11.4635 30.2742 12.0319 30.2742C12.3018 30.2742 12.6315 30.3889 12.9955 30.6195C14.1244 31.3353 16.3046 35.0764 17.1033 36.5314C17.3708 37.0192 17.8275 37.2254 18.239 37.2254C19.0555 37.2254 19.6938 36.4147 18.3138 35.3846C16.2397 33.8344 16.9676 31.3011 17.9574 31.1459C17.9996 31.1394 18.0424 31.136 18.0849 31.1357C18.9851 31.1357 19.3823 32.6852 19.3823 32.6852C19.3823 32.6852 20.5459 35.6048 22.5457 37.6005C24.36 39.4116 24.6132 40.8983 23.5564 42.751L23.5525 42.7517ZM30.0178 43.0936L29.9141 43.106L29.7371 43.1263C29.6441 43.1358 29.5511 43.145 29.4577 43.1537L29.3664 43.162L29.2833 43.169L29.1651 43.1785C29.1217 43.1816 29.0782 43.185 29.0347 43.1877L28.9046 43.1964L28.876 43.1981L28.7735 43.2042L28.73 43.2063L28.6087 43.2124L28.4676 43.2182L28.3394 43.2226L28.254 43.225H28.2107C28.184 43.225 28.1576 43.2265 28.1309 43.2267H28.0884C28.0617 43.2267 28.0352 43.2267 28.0085 43.2282L27.9 43.2294H27.748C27.6288 43.2294 27.5101 43.2282 27.3914 43.226L27.2952 43.2238C27.268 43.2238 27.2406 43.2224 27.2134 43.2216L27.1117 43.2185L26.9849 43.2136L26.8711 43.2088L26.8415 43.2076L26.7329 43.2017C26.7028 43.2 26.6727 43.1986 26.6429 43.1966L26.5727 43.1925C26.4846 43.1869 26.3964 43.1806 26.3083 43.1739L26.2161 43.1666L26.0995 43.1566L25.9633 43.144C25.8873 43.137 25.8113 43.1292 25.7354 43.1207H25.7317C26.8412 40.6474 26.2802 38.3389 24.0381 36.1031C22.5678 34.6365 21.5884 32.4706 21.3869 31.9954C20.9761 30.5877 19.8887 29.0224 18.0827 29.0224C17.93 29.0227 17.7777 29.0348 17.627 29.0586C16.8358 29.1827 16.1443 29.6376 15.651 30.3219C15.1181 29.6597 14.5997 29.1333 14.1312 28.8357C13.4247 28.3886 12.7199 28.1616 12.0328 28.1616C11.1758 28.1616 10.4094 28.5132 9.87524 29.151L9.86189 29.1672L9.83179 29.0409L9.83057 29.0355C9.72899 28.6015 9.64366 28.1636 9.57468 27.7232C9.57468 27.72 9.57468 27.7171 9.57322 27.7142L9.55817 27.6146C9.55004 27.5607 9.5421 27.5066 9.53438 27.4528C9.52807 27.408 9.52176 27.3631 9.51593 27.3185C9.5101 27.2739 9.50379 27.229 9.49845 27.1841C9.49262 27.139 9.48728 27.0942 9.48194 27.0493C9.47682 27.0066 9.47189 26.964 9.46713 26.9213L9.4657 26.9104C9.4438 26.7135 9.42503 26.5163 9.40935 26.3189L9.40085 26.2047C9.39842 26.1734 9.39624 26.1419 9.3943 26.1102C9.3943 26.1029 9.39332 26.0954 9.39284 26.0886L9.38485 25.962C9.38194 25.9162 9.37973 25.8703 9.3773 25.8245C9.37487 25.7789 9.37244 25.7331 9.3705 25.687L9.36565 25.567L9.36419 25.5306L9.36055 25.4195L9.3579 25.3255C9.3579 25.2879 9.35618 25.25 9.35545 25.2125L9.35351 25.0939C9.35302 25.0544 9.35351 25.0151 9.35254 24.9756C9.35132 24.9358 9.35254 24.8963 9.35254 24.8565C9.35254 14.7083 17.5901 6.48068 27.7529 6.48068C37.9156 6.48068 46.1532 14.7083 46.1532 24.8565V25.0939C46.1532 25.1334 46.1522 25.1732 46.1512 25.2125C46.1512 25.2454 46.15 25.2777 46.1491 25.3107C46.1491 25.34 46.1478 25.3691 46.1466 25.3975C46.1466 25.4346 46.1444 25.4714 46.1432 25.5085V25.5117C46.1401 25.5922 46.1367 25.6727 46.1333 25.7532L46.1318 25.7799L46.1255 25.9002L46.1197 25.9955C46.1061 26.2212 46.0884 26.447 46.0668 26.6722V26.6754C46.0629 26.7176 46.0585 26.76 46.0539 26.8022C46.0432 26.9004 46.0323 26.9986 46.0213 27.0968L46.009 27.1955L45.9937 27.3114C45.9883 27.3539 45.9825 27.3961 45.9764 27.4383C45.9699 27.4856 45.9628 27.5326 45.956 27.5796L45.939 27.6907L45.9191 27.8168C45.9123 27.8587 45.9055 27.9005 45.8975 27.9424C45.8893 27.9841 45.883 28.0258 45.8757 28.0678C45.8611 28.1512 45.8461 28.2344 45.8298 28.3175C45.7975 28.4832 45.7638 28.6483 45.7281 28.8132C45.7191 28.8542 45.7099 28.8954 45.7004 28.9364C45.1825 28.4337 44.4969 28.1599 43.7404 28.1599C43.0541 28.1599 42.3486 28.3866 41.6423 28.834C41.1735 29.1313 40.6557 29.658 40.1223 30.3202C39.6282 29.6357 38.9368 29.181 38.1465 29.0566C37.9958 29.0331 37.8433 29.021 37.6906 29.0208C35.8845 29.0208 34.7966 30.5855 34.3863 31.9937C34.1827 32.4692 33.2042 34.6344 31.7328 36.1038C29.4924 38.3343 28.9262 40.6335 30.0192 43.0948L30.0178 43.0936ZM49.0129 38.1444L49.0056 38.166C49.0005 38.1798 48.9954 38.1936 48.9898 38.2072C48.9811 38.2278 48.9719 38.2479 48.9621 38.2681C48.9386 38.3161 48.9119 38.3626 48.8825 38.4073C48.842 38.4676 48.7975 38.5253 48.7492 38.5797C48.7381 38.5923 48.7274 38.6046 48.7148 38.617C48.6978 38.6357 48.6796 38.6539 48.6616 38.672C48.3346 38.9958 47.8364 39.2792 47.2731 39.5397C47.2093 39.5685 47.1447 39.5974 47.0791 39.6262L47.0141 39.6551C46.9706 39.6743 46.9274 39.6934 46.8818 39.7121C46.8373 39.731 46.7927 39.7497 46.748 39.7681L46.6125 39.8241C46.2957 39.9543 45.9711 40.0782 45.6543 40.2009L45.519 40.2533L45.385 40.3057C45.2962 40.3404 45.2083 40.375 45.1216 40.4097L44.9927 40.4616L44.8662 40.5135L44.8038 40.5395C44.7625 40.5569 44.7217 40.5739 44.6814 40.5913C43.7497 40.9905 43.0796 41.3967 43.2204 41.9008C43.2243 41.9151 43.2286 41.9287 43.2335 41.9418C43.2461 41.9791 43.2634 42.0145 43.2847 42.0475C43.2974 42.0674 43.3119 42.0861 43.3282 42.103C43.4938 42.2747 43.7951 42.2475 44.175 42.1113C44.2058 42.1001 44.2374 42.0882 44.2692 42.0756C44.2911 42.0674 44.3127 42.0586 44.3345 42.0499L44.3673 42.0361C44.4542 41.9992 44.5462 41.9583 44.6404 41.9134C44.664 41.9025 44.6878 41.8918 44.7115 41.8792C45.176 41.6525 45.7026 41.3467 46.225 41.0686C46.3052 41.0252 46.3855 40.9837 46.4654 40.9425C46.596 40.8748 46.7278 40.8096 46.8609 40.7473C47.3557 40.515 47.8206 40.3501 48.1947 40.3501C48.37 40.3501 48.5251 40.386 48.6541 40.4684L48.6757 40.4827C48.741 40.5288 48.7978 40.5853 48.8442 40.6503C48.8548 40.6655 48.866 40.6813 48.8755 40.6976C48.8857 40.7143 48.8954 40.7315 48.9046 40.749C49.0894 41.0991 48.9347 41.4621 48.573 41.8179C48.2256 42.1593 47.6851 42.4942 47.0706 42.8043C47.0252 42.8273 46.9794 42.8504 46.9332 42.8727C45.1049 43.7694 42.7113 44.4447 42.6773 44.4532C42.0393 44.6184 41.1269 44.8354 40.099 44.9976L39.9467 45.0211L39.922 45.0248C39.6889 45.0597 39.4551 45.0905 39.2208 45.1172L39.1992 45.1193C38.7731 45.1678 38.3361 45.203 37.8984 45.2178H37.8919C37.7345 45.2236 37.5774 45.2263 37.4201 45.2263H37.239C36.9991 45.2229 36.7595 45.2122 36.5204 45.1938C36.5148 45.1938 36.509 45.1938 36.5031 45.1926C36.4177 45.186 36.332 45.178 36.2468 45.1686C36.1001 45.1528 35.9537 45.1334 35.8078 45.1106C35.751 45.1012 35.6903 45.0912 35.6318 45.081C35.6051 45.0762 35.5786 45.0713 35.5522 45.066L35.5459 45.0648C35.4616 45.0488 35.3779 45.0311 35.2943 45.0119C35.246 45.001 35.1975 44.9901 35.1496 44.9772L35.121 44.9697C35.0972 44.9639 35.0739 44.9576 35.0506 44.9513L35.0377 44.9479L34.9627 44.9263C34.9355 44.9186 34.9086 44.9106 34.8814 44.9026L34.8717 44.8996L34.801 44.8781C34.7743 44.8698 34.7478 44.8611 34.7214 44.8526C34.6995 44.8453 34.6779 44.8378 34.6561 44.8308L34.6082 44.814C34.5621 44.798 34.5165 44.7811 34.4708 44.7636L34.4276 44.7469L34.3919 44.7326C34.3232 44.7049 34.2548 44.6761 34.187 44.6458L34.1419 44.6242L34.1343 44.6208C34.1183 44.6133 34.1025 44.6058 34.0865 44.599C34.0552 44.5839 34.0241 44.5684 33.9933 44.5526L33.9841 44.548L33.9394 44.5245C33.86 44.4833 33.7821 44.4392 33.7058 44.3921L33.6641 44.3667C33.6425 44.3536 33.6228 44.3402 33.6022 44.3269L33.5478 44.2908C33.5281 44.2777 33.5085 44.2643 33.4893 44.2505L33.4543 44.2258C33.4174 44.1993 33.3812 44.1724 33.3455 44.1445C33.3266 44.13 33.3079 44.115 33.2892 44.1011C33.2477 44.0679 33.2072 44.0337 33.1671 43.9986L33.1654 43.9971C33.1263 43.9634 33.0882 43.9285 33.0511 43.8928L33.0491 43.8904C33.0297 43.872 33.0108 43.8535 32.9918 43.8344C32.9731 43.8152 32.9542 43.7963 32.936 43.7772C32.9175 43.7578 32.8991 43.7381 32.8811 43.718C32.8636 43.6991 32.8466 43.6799 32.8296 43.6605L32.8238 43.654C32.7362 43.5524 32.6541 43.4459 32.5781 43.3351L32.548 43.2907C32.5281 43.2614 32.5084 43.2318 32.489 43.2022L32.4317 43.1142C32.4036 43.0713 32.3761 43.0279 32.3494 42.9842C32.3302 42.9532 32.3113 42.9222 32.2926 42.8909C32.2768 42.8642 32.261 42.8378 32.246 42.8116C32.2375 42.7973 32.2295 42.7827 32.2215 42.7682C32.2135 42.7531 32.204 42.7379 32.1955 42.7226L32.1819 42.6986C32.1773 42.6906 32.1758 42.6881 32.1734 42.6828C32.1569 42.654 32.1409 42.6246 32.1253 42.5948C32.1183 42.5819 32.1113 42.5688 32.1037 42.556L32.0819 42.5143L32.0603 42.4728L32.0185 42.3887C32.0117 42.3749 32.0052 42.361 31.9986 42.3472C31.9843 42.3174 31.9707 42.288 31.9571 42.2587C31.9517 42.2468 31.9462 42.2349 31.9413 42.2231C31.9226 42.1826 31.9049 42.1416 31.8881 42.1001C31.8767 42.0727 31.8663 42.0456 31.8551 42.0184C31.8238 41.9384 31.7944 41.8576 31.7675 41.7759C31.7595 41.7517 31.7515 41.7277 31.7444 41.7034C31.7269 41.6484 31.7111 41.5928 31.6971 41.5368C31.6798 41.4716 31.6645 41.4056 31.6517 41.3394C31.6434 41.3004 31.6361 41.2611 31.6301 41.2216C31.6235 41.1825 31.6179 41.1435 31.6133 41.1047C31.6034 41.0273 31.5963 40.9497 31.5922 40.8719C31.5922 40.8591 31.591 40.846 31.5907 40.8331C31.5895 40.8074 31.5888 40.7817 31.5885 40.756C31.5749 39.7201 32.1001 38.7237 33.2225 37.6036C35.2215 35.6087 36.3859 32.6884 36.3859 32.6884C36.3859 32.6884 36.4172 32.5659 36.4825 32.3899C36.5044 32.3314 36.5272 32.2733 36.5512 32.2158C36.5787 32.1508 36.608 32.0865 36.6396 32.0235L36.6488 32.0051C36.6894 31.9246 36.7333 31.8462 36.7811 31.7698C36.7921 31.7521 36.8027 31.7344 36.8154 31.717C36.8508 31.6641 36.8884 31.613 36.928 31.5632C36.9586 31.5252 36.9911 31.4883 37.0254 31.4534C37.1414 31.3341 37.2737 31.2366 37.4235 31.1845L37.4425 31.1784C37.4551 31.1743 37.4675 31.1704 37.4803 31.1668C37.4954 31.1629 37.5104 31.1593 37.5255 31.1561L37.5323 31.1549C37.5641 31.1486 37.5959 31.1442 37.6282 31.142H37.6311C37.6479 31.142 37.6646 31.1403 37.6818 31.1403C37.7248 31.1406 37.7675 31.144 37.81 31.1505C37.9902 31.1789 38.1618 31.2861 38.3094 31.4515L38.3293 31.4747C38.3774 31.531 38.4211 31.5911 38.46 31.6542C38.4891 31.701 38.5165 31.7502 38.5425 31.8019C38.5529 31.8237 38.5629 31.8436 38.5728 31.8649C38.5777 31.8758 38.5826 31.8865 38.5872 31.8976C38.5969 31.9192 38.6059 31.941 38.6148 31.9638C38.6656 32.0938 38.7049 32.2279 38.7326 32.3647C38.762 32.5123 38.779 32.6622 38.7838 32.8128C38.7855 32.879 38.7855 32.9459 38.7838 33.0138C38.7826 33.0395 38.7814 33.0655 38.7795 33.0914C38.7595 33.3797 38.6967 33.6634 38.5928 33.9333C38.5823 33.96 38.5709 33.9872 38.5602 34.0143C38.508 34.139 38.4473 34.2597 38.3789 34.3761C38.3398 34.4426 38.2975 34.5085 38.2524 34.574L38.2247 34.6133C38.1176 34.7626 37.9982 34.9028 37.8676 35.0323C37.7389 35.1611 37.601 35.2801 37.4551 35.389C37.3087 35.4969 37.1715 35.6167 37.0448 35.7469C36.6799 36.1296 36.5949 36.4669 36.677 36.7227C36.6867 36.7515 36.6981 36.7799 36.7112 36.8073C36.7416 36.8667 36.7809 36.9213 36.828 36.9688L36.8409 36.9817C36.8542 36.9945 36.8683 37.0069 36.8826 37.0188L36.8972 37.0306C36.9326 37.0578 36.97 37.082 37.0091 37.1031C37.0203 37.1092 37.0307 37.1153 37.0436 37.1211C37.0972 37.1478 37.1533 37.1691 37.2111 37.1853L37.2271 37.1895L37.2487 37.1953L37.2677 37.1999L37.2878 37.2043L37.308 37.2084L37.3271 37.2115C37.3415 37.2142 37.356 37.2164 37.3704 37.2183L37.3844 37.2203L37.4094 37.2229L37.425 37.2244L37.4507 37.2263H37.4655L37.4922 37.2275H37.5765L37.6005 37.2263L37.6282 37.2246L37.6619 37.2215L37.6935 37.2176C37.7005 37.2176 37.7078 37.2157 37.7151 37.2144C37.8263 37.1982 37.9346 37.1669 38.037 37.1213C38.0589 37.1121 38.0805 37.1019 38.1004 37.0913C38.1431 37.0699 38.1846 37.0459 38.2245 37.0195C38.2801 36.9831 38.3325 36.9421 38.3818 36.8975L38.416 36.865C38.4214 36.8597 38.4269 36.8546 38.432 36.849C38.4655 36.8156 38.4971 36.7801 38.5265 36.743C38.5784 36.6776 38.6246 36.608 38.6646 36.5348C39.1397 35.672 39.6377 34.8218 40.158 33.9862L40.2293 33.872L40.3014 33.7575C40.3376 33.6998 40.3738 33.6426 40.41 33.5861L40.4466 33.5291L40.5197 33.4154C40.6178 33.2638 40.7161 33.114 40.8152 32.9656L40.8892 32.855C41.0378 32.6353 41.1861 32.4214 41.3328 32.218L41.4061 32.1176C41.5656 31.8974 41.7319 31.6823 41.9045 31.4723L41.9732 31.3903C41.9844 31.3765 41.9948 31.3632 42.0072 31.3499L42.0745 31.272C42.0856 31.2592 42.0963 31.2466 42.108 31.2342L42.173 31.1607L42.2058 31.1253C42.2374 31.0911 42.2694 31.0574 42.302 31.0239C42.3238 31.0024 42.344 30.9805 42.3651 30.9604C42.4882 30.8346 42.6239 30.7218 42.7703 30.6241L42.804 30.6025L42.8383 30.5807C42.8601 30.5671 42.8822 30.554 42.9048 30.5416C43.4787 30.2165 43.9541 30.1925 44.2274 30.4655C44.3933 30.6311 44.4848 30.9054 44.4799 31.2868C44.4799 31.3038 44.4799 31.3205 44.4785 31.338V31.3569C44.4785 31.3741 44.477 31.3918 44.4758 31.4095C44.4758 31.4311 44.4731 31.4529 44.471 31.4745C44.4688 31.4963 44.4678 31.5128 44.4656 31.532C44.4656 31.5375 44.4644 31.5431 44.4637 31.5487C44.462 31.5657 44.4598 31.5829 44.4576 31.5999C44.4576 31.6052 44.4576 31.6103 44.4554 31.6156C44.453 31.6387 44.4496 31.6617 44.4455 31.6845C44.4428 31.7056 44.4394 31.7267 44.4353 31.7478C44.4336 31.7599 44.4311 31.7718 44.4292 31.7839C44.4229 31.8183 44.4146 31.8525 44.4047 31.886C44.386 31.9486 44.3632 32.0099 44.3362 32.0696C44.3246 32.0955 44.3122 32.1215 44.2996 32.1469C44.2733 32.1995 44.2437 32.2534 44.2112 32.3091C44.1949 32.3365 44.1782 32.3649 44.1602 32.3933L44.133 32.4364C44.1053 32.4799 44.0764 32.5237 44.0463 32.5681C44.0162 32.6125 43.9839 32.6578 43.9492 32.7037C43.9043 32.7648 43.857 32.8271 43.807 32.8901L43.7691 32.9379C43.662 33.071 43.5523 33.202 43.4401 33.3307L43.351 33.4314L43.3056 33.4823C43.2437 33.5514 43.1815 33.62 43.1189 33.6882L43.0708 33.7401C43.039 33.7745 43.0058 33.8094 42.974 33.8441C42.9414 33.8793 42.9084 33.9142 42.8754 33.9491L42.7754 34.0543L42.6741 34.1598C42.6404 34.195 42.6064 34.2306 42.5722 34.2658L42.3661 34.478C41.3816 35.4865 40.3442 36.4916 39.9931 37.1187C39.9698 37.1596 39.9487 37.2016 39.9295 37.2445C39.8797 37.3585 39.8589 37.456 39.8729 37.5348C39.8775 37.5607 39.8868 37.5857 39.9001 37.6082C39.92 37.6424 39.9441 37.674 39.9717 37.7021C39.9846 37.7147 39.998 37.7266 40.0125 37.7373C40.0846 37.7887 40.172 37.8151 40.2607 37.8124H40.2883L40.3167 37.8105L40.3454 37.8071L40.3689 37.8037C40.3721 37.8035 40.3753 37.8027 40.3784 37.802L40.4 37.7979L40.4058 37.7964L40.4296 37.7913L40.4636 37.7826L40.494 37.7736C40.5139 37.7676 40.5338 37.7608 40.5542 37.7533C40.5981 37.7377 40.6411 37.7198 40.6831 37.6997C40.6938 37.6946 40.7047 37.6897 40.7151 37.6841L40.7474 37.6681C40.7897 37.6468 40.8317 37.6238 40.8739 37.5988C40.9077 37.5789 40.9412 37.5585 40.9747 37.537L41.0072 37.5154C41.0179 37.5086 41.0288 37.5016 41.0395 37.4936L41.0718 37.472L41.0888 37.4601L41.1354 37.4276C41.1789 37.3975 41.2194 37.3667 41.2607 37.3355L41.2643 37.3328L41.3294 37.2823C41.4185 37.212 41.5032 37.1412 41.5797 37.0745L41.6307 37.0297L41.6355 37.0253L41.662 37.0018C41.7246 36.9458 41.7805 36.8934 41.8271 36.85L41.846 36.8316L41.8919 36.7882L41.9193 36.7615L41.9288 36.7518L41.9315 36.7491C41.9548 36.7258 41.9548 36.7258 41.9781 36.7023L41.98 36.7004L41.9888 36.6926C41.9914 36.6897 41.9951 36.6868 41.9992 36.6832L42.0026 36.68L42.0118 36.6718L42.0611 36.6284L42.0888 36.6034C42.1024 36.5917 42.1172 36.5784 42.1323 36.5641L42.1655 36.535C42.1713 36.5301 42.1772 36.5246 42.1832 36.5192L42.218 36.4889L42.2692 36.4443L42.2961 36.4208C42.4017 36.3289 42.5304 36.2181 42.6778 36.0932L42.7382 36.0423L42.8383 35.9586L42.9402 35.8732C43.0738 35.7627 43.2175 35.6451 43.3695 35.5228L43.4692 35.4428C43.5542 35.3754 43.6416 35.3063 43.73 35.237C43.7654 35.2091 43.8016 35.1812 43.8385 35.1535C43.9291 35.0837 44.0201 35.0141 44.1114 34.9455C44.3197 34.7883 44.5346 34.631 44.7519 34.4775L44.8453 34.4127C44.9104 34.3676 44.9755 34.3228 45.0408 34.2789L45.0998 34.2389C45.2165 34.1603 45.3343 34.0834 45.453 34.0083L45.512 33.9712L45.5705 33.9348C45.629 33.8987 45.6875 33.8628 45.7453 33.8281L45.8033 33.7937L45.9196 33.726C45.9577 33.7039 45.9956 33.6824 46.0335 33.661L46.0563 33.6482L46.1466 33.5989C46.184 33.5786 46.2216 33.5589 46.2588 33.5398L46.3146 33.5112L46.3685 33.4838C46.4919 33.4219 46.6174 33.3647 46.7451 33.3123C46.7626 33.305 46.7798 33.298 46.797 33.2905C46.8313 33.2762 46.8653 33.2631 46.899 33.2515C46.9327 33.2401 46.966 33.2282 46.9988 33.2165C47.0286 33.2066 47.0575 33.1974 47.0857 33.1886L47.0952 33.1857C47.1102 33.1811 47.1253 33.1768 47.1403 33.1729L47.1447 33.1717C47.1753 33.1629 47.2059 33.1549 47.2367 33.1477H47.2391C47.2845 33.1368 47.3287 33.1275 47.3719 33.1203C47.3867 33.1178 47.4013 33.1154 47.4154 33.1135C47.4574 33.1072 47.4996 33.1028 47.5419 33.0999C47.5686 33.098 47.5955 33.0972 47.6222 33.0972H47.6426C47.6698 33.0972 47.696 33.0989 47.722 33.1016C47.7339 33.1016 47.7458 33.1038 47.7575 33.1055H47.7623C47.774 33.1067 47.7859 33.1086 47.7973 33.1111C47.8087 33.1135 47.8204 33.1152 47.8315 33.1178H47.8354C47.8466 33.1203 47.857 33.1234 47.8687 33.1266C47.9614 33.1515 48.0466 33.1986 48.1173 33.2636L48.1236 33.2699L48.136 33.282L48.1481 33.2949C48.2455 33.3972 48.3261 33.5143 48.3868 33.6419L48.3962 33.6634C48.4169 33.7119 48.4331 33.7621 48.4445 33.8135C48.4761 33.9569 48.4676 34.1062 48.4198 34.2449C48.3991 34.3053 48.3739 34.364 48.344 34.4202L48.3241 34.4561C48.2484 34.583 48.159 34.701 48.0573 34.8082L48.0355 34.8313C47.9876 34.8819 47.9379 34.9312 47.8866 34.9785C47.8704 34.9937 47.8536 35.009 47.8366 35.0243L47.8109 35.0476C47.7575 35.0949 47.7028 35.1409 47.6475 35.186C47.6378 35.1938 47.6278 35.2015 47.6184 35.2098C47.5798 35.2408 47.5399 35.2724 47.4987 35.3039C47.3564 35.4125 47.2115 35.5173 47.0638 35.6184C46.9769 35.6778 46.8871 35.7377 46.7944 35.7986C46.6215 35.9118 46.4474 36.0226 46.2717 36.1313C46.2209 36.1625 46.1699 36.1943 46.118 36.2258C45.6404 36.5192 45.1109 36.833 44.5462 37.1742L44.4001 37.2629C44.2401 37.3604 44.0891 37.4535 43.947 37.5421L43.8754 37.5872L43.7399 37.674C43.6863 37.7079 43.6341 37.7414 43.5833 37.7744C43.545 37.7988 43.5076 37.8231 43.4709 37.8471L43.3986 37.8946C43.3634 37.9177 43.3284 37.9407 43.2935 37.9642L43.2595 37.9858C43.2236 38.0098 43.1886 38.0333 43.1546 38.0566L43.099 38.0944L43.0337 38.1398L42.9735 38.1817C42.8783 38.2484 42.7844 38.3166 42.6911 38.3859L42.6586 38.4106C42.6219 38.4383 42.5865 38.4659 42.5523 38.4928L42.5076 38.5285C42.4323 38.5889 42.3641 38.6468 42.3024 38.7021L42.2723 38.7298C42.2551 38.7455 42.2381 38.7613 42.2221 38.7768C42.2107 38.7875 42.2002 38.7984 42.1888 38.8091L42.173 38.8246C42.1383 38.8592 42.1046 38.8949 42.0718 38.9315L42.0558 38.9499C42.0201 38.9912 41.989 39.0307 41.9616 39.0692L41.9494 39.0867C41.9179 39.1328 41.89 39.1815 41.8662 39.2322L41.8579 39.2499L41.8528 39.2623L41.8487 39.2729L41.8431 39.2877C41.8414 39.2928 41.838 39.3018 41.8361 39.3096C41.8261 39.3384 41.8188 39.3682 41.814 39.3985L41.8115 39.4148L41.8096 39.4296L41.8084 39.4439V39.52C41.8084 39.5263 41.8084 39.5329 41.8098 39.5394C41.8101 39.5433 41.8106 39.5472 41.8111 39.5511C41.8111 39.5574 41.8128 39.5637 41.8135 39.5702L41.8181 39.5969V39.5981C41.8198 39.6066 41.8215 39.6151 41.8237 39.6236C41.8259 39.6321 41.828 39.6415 41.8307 39.6505C41.8385 39.6779 41.848 39.7051 41.8589 39.7315C41.8589 39.7334 41.8606 39.7356 41.8613 39.7375C41.8642 39.7441 41.8669 39.7509 41.87 39.7574C41.8819 39.7851 41.8953 39.812 41.9099 39.8384L41.9252 39.8658L41.9412 39.8935L41.9579 39.9211C41.9608 39.9257 41.964 39.9298 41.9676 39.934L41.9732 39.9398L41.9791 39.9451L41.9856 39.9502C41.99 39.9534 41.9946 39.956 41.9995 39.9587C42.0043 39.9609 42.0096 39.9633 42.015 39.9652C42.0208 39.9672 42.0266 39.9689 42.0325 39.9703C42.1726 40.0019 42.4605 39.8859 42.8429 39.6842L42.9116 39.6478L43.0279 39.5845L43.0849 39.553C43.1252 39.5312 43.1667 39.5069 43.2087 39.4829L43.2857 39.4395C43.7914 39.1488 44.3957 38.7751 45.0201 38.4104C45.0784 38.3762 45.1371 38.3423 45.1959 38.3083L45.3139 38.2331C45.3729 38.1992 45.4316 38.1657 45.4906 38.1328C45.7417 37.9902 45.9961 37.8532 46.2532 37.722L46.3685 37.6635C46.4452 37.6257 46.5212 37.5888 46.5963 37.553C46.7417 37.4841 46.8886 37.4189 47.0369 37.357L47.1182 37.3241L47.1282 37.3202C47.5589 37.1497 47.9495 37.0442 48.2656 37.0442C48.3341 37.0437 48.4023 37.0493 48.4698 37.061H48.4717C48.4936 37.0648 48.5132 37.0692 48.5332 37.0743H48.5368C48.5659 37.0813 48.5946 37.0903 48.6223 37.1014C48.6443 37.1094 48.6657 37.1189 48.6864 37.1301C48.7769 37.1759 48.8544 37.2435 48.9121 37.327C48.917 37.334 48.9216 37.3413 48.926 37.3488C48.9473 37.3813 48.9658 37.4155 48.9808 37.4514C48.9898 37.472 48.9981 37.4933 49.0058 37.5163C49.0136 37.5396 49.0204 37.5619 49.0275 37.5859C49.0789 37.7697 49.0738 37.9642 49.0129 38.1451V38.1444Z" fill="#FF9D00"/>
<path d="M46.1309 24.9673V24.8485C46.1309 14.7003 37.8958 6.47266 27.733 6.47266C17.5727 6.47266 9.3327 14.7003 9.3327 24.8485L9.33217 24.8882C9.33217 24.9147 9.33217 24.9409 9.33217 24.9673C9.33362 25.0068 9.33403 25.0463 9.33367 25.0859L9.33512 25.1732L9.33561 25.2047L9.33682 25.2478C9.33731 25.2711 9.33804 25.2942 9.33804 25.3174L9.34046 25.4118L9.34435 25.5226L9.34556 25.559L9.35042 25.6737V25.679L9.35722 25.8131V25.8165C9.35964 25.8623 9.36207 25.9081 9.36498 25.9537C9.36741 25.9962 9.37008 26.0384 9.373 26.0805L9.37372 26.0881C9.37586 26.1242 9.37829 26.1606 9.38101 26.1967L9.38174 26.2062C9.38416 26.2411 9.38683 26.2762 9.38975 26.3109L9.39023 26.3177L9.39509 26.3783C9.40963 26.5532 9.42663 26.728 9.44607 26.9023L9.44729 26.9133L9.46185 27.0413L9.47861 27.1761C9.48985 27.2658 9.50184 27.3553 9.51454 27.4448C9.52211 27.4989 9.52998 27.5527 9.53809 27.6065L9.5393 27.6131C9.55744 27.7348 9.577 27.8565 9.59805 27.9778C9.65843 28.3296 9.72935 28.6798 9.81073 29.0275L9.81194 29.0331L9.81971 29.0658C9.827 29.0969 9.83428 29.1279 9.84205 29.1592L9.8554 29.1429C10.3895 28.5052 11.1557 28.1536 12.013 28.1536C12.7001 28.1536 13.4051 28.3803 14.1113 28.8277C14.5799 29.125 15.098 29.6517 15.6311 30.3139C16.1245 29.6294 16.8159 29.1747 17.6069 29.0506C17.7579 29.0268 17.9104 29.0147 18.0628 29.0144C19.8684 29.0144 20.9568 30.5794 21.3671 31.9873C21.5698 32.4631 22.5482 34.628 24.0231 36.0951C26.2652 38.3325 26.8272 40.6418 25.7167 43.1127H25.7204C25.7961 43.121 25.8721 43.1287 25.9483 43.1358C25.9937 43.1401 26.0391 43.1445 26.0845 43.1484L26.1006 43.1498C26.1338 43.153 26.1673 43.1559 26.2008 43.1583L26.2931 43.1658C26.381 43.1726 26.4691 43.1787 26.5577 43.1845L26.6276 43.1886L26.6832 43.1918L26.718 43.1937L26.8262 43.1995L26.8559 43.2008L26.97 43.2056L27.0964 43.2104L27.1984 43.2134L27.2154 43.2141C27.2368 43.2148 27.2586 43.2158 27.2802 43.2158L27.3033 43.2163C27.4465 43.2197 27.5895 43.2214 27.7328 43.2214H27.8848L27.9935 43.2201C28.0202 43.2187 28.0467 43.2187 28.0734 43.2187H28.1156L28.1523 43.218C28.1666 43.2175 28.1812 43.217 28.1955 43.217H28.239L28.3242 43.2146L28.4524 43.2102L28.5937 43.2041C28.6342 43.2024 28.6745 43.2005 28.7151 43.1983L28.7585 43.1959L28.8229 43.1923L28.861 43.1901L28.8894 43.1884L29.0198 43.1797C29.0632 43.177 29.1067 43.1736 29.1501 43.1702L29.2681 43.161L29.3514 43.1539L29.4424 43.1457C29.5359 43.137 29.6291 43.1278 29.7219 43.1181C29.7811 43.1115 29.8399 43.105 29.8989 43.0979L30.0025 43.0856C28.9103 40.6243 29.4757 38.3255 31.7088 36.097C33.1805 34.6283 34.1584 32.4621 34.3624 31.9869C34.7734 30.5792 35.8598 29.0139 37.6666 29.0139C37.8193 29.0142 37.9718 29.0261 38.1226 29.0501C38.9128 29.1742 39.6045 29.6291 40.0985 30.3134C40.6319 29.6512 41.1498 29.1245 41.6184 28.8272C42.3246 28.3798 43.0301 28.1531 43.7165 28.1531C44.473 28.1531 45.1588 28.4271 45.6767 28.9296C45.7051 28.803 45.7325 28.6764 45.7587 28.5493C45.7748 28.47 45.7905 28.3905 45.8061 28.3107C45.825 28.2128 45.843 28.1143 45.8595 28.0159C45.8639 27.9892 45.8685 27.9625 45.8736 27.9356C45.8816 27.8936 45.8886 27.8522 45.8952 27.81L45.8978 27.794L45.9151 27.6841L45.9321 27.5728L45.9323 27.5716C45.9391 27.5251 45.9462 27.4783 45.9525 27.4315C45.9576 27.3961 45.9624 27.3606 45.967 27.325L45.9699 27.3046L45.985 27.1887L45.9974 27.09C46.0049 27.025 46.0122 26.9601 46.0192 26.8948C46.0224 26.8689 46.0251 26.8427 46.0277 26.8165L46.0302 26.7954C46.0348 26.752 46.0389 26.7088 46.0428 26.6654L46.0525 26.5646C46.0726 26.341 46.0889 26.1174 46.1015 25.8933V25.8919L46.1081 25.7731L46.1093 25.7464L46.1142 25.6336C46.1161 25.5912 46.1178 25.5483 46.1193 25.5049V25.5017L46.1205 25.4704C46.1217 25.4438 46.1227 25.4171 46.1227 25.3907L46.1231 25.3798C46.1241 25.355 46.1251 25.3293 46.1251 25.3039L46.1258 25.282C46.1265 25.2566 46.1273 25.2314 46.1273 25.2059L46.1278 25.1843C46.1285 25.1518 46.1292 25.1196 46.1292 25.0871L46.1309 24.9673ZM23.1712 43.3261C24.6281 41.1917 24.5249 39.5894 22.5256 37.5937C20.5263 35.598 19.3622 32.6784 19.3622 32.6784C19.3622 32.6784 18.9279 30.9829 17.9373 31.1389C16.9468 31.2945 16.2201 33.8281 18.294 35.3776C20.3678 36.9283 17.8815 37.9795 17.0832 36.5245C16.2847 35.0691 14.1067 31.328 12.9754 30.6127C11.8455 29.8971 11.0509 30.2982 11.3172 31.773C11.4495 32.505 12.6799 33.7544 13.83 34.9205C14.9963 36.105 16.0793 37.2047 15.8479 37.5927C15.3884 38.3658 13.7697 36.6846 13.7697 36.6846C13.7697 36.6846 8.70049 32.0773 7.59827 33.2776C6.58127 34.3841 8.14963 35.3247 10.5675 36.7743C10.7731 36.8977 10.9848 37.0248 11.2016 37.1557C13.9669 38.8279 14.183 39.269 13.7897 39.9007C13.6447 40.1345 12.719 39.5794 11.5804 38.8966C9.63933 37.7326 7.07921 36.1977 6.71747 37.5716C6.40452 38.7605 8.28753 39.489 9.995 40.1493C11.4177 40.6997 12.719 41.2031 12.5272 41.8865C12.3288 42.5948 11.2536 42.0041 10.0775 41.3581C8.75803 40.6328 7.31228 39.8382 6.83886 40.7349C5.94445 42.4299 13.0079 44.4256 13.0662 44.4401C15.3483 45.0313 21.1435 46.284 23.1707 43.3191L23.1712 43.3261ZM32.5571 43.3261C31.0999 41.1917 31.2033 39.5894 33.2026 37.5937C35.2019 35.598 36.366 32.6784 36.366 32.6784C36.366 32.6784 36.8001 30.9829 37.7907 31.1389C38.7812 31.2945 39.5081 33.8281 37.434 35.3776C35.36 36.9271 37.8465 37.9795 38.645 36.5245C39.4433 35.0691 41.6215 31.328 42.7504 30.6127C43.8794 29.8973 44.6752 30.2982 44.4089 31.773C44.2766 32.505 43.0461 33.7546 41.8961 34.9229C40.73 36.1072 39.647 37.2069 39.8783 37.5951C40.3377 38.3682 41.9578 36.686 41.9578 36.686C41.9578 36.686 47.027 32.0788 48.1292 33.2791C49.1462 34.3856 47.5776 35.3264 45.16 36.7758C44.9544 36.8989 44.7429 37.0258 44.5261 37.157C41.7609 38.8289 41.5448 39.2702 41.9381 39.9019C42.083 40.1357 43.0088 39.5806 44.1472 38.898C46.0884 37.7341 48.6483 36.1991 49.01 37.5728C49.323 38.7617 47.44 39.4904 45.7325 40.1505C44.3098 40.7009 43.0085 41.2041 43.2003 41.8877C43.3987 42.596 44.4734 42.005 45.6475 41.359C46.967 40.6338 48.4128 39.8389 48.8862 40.7359C49.7806 42.4321 42.7172 44.4265 42.6589 44.4411C40.3768 45.034 34.5816 46.2867 32.5568 43.3218L32.5571 43.3261Z" fill="#FFD21E"/>
<path d="M33.7248 19.8463C34.0115 19.9477 34.2249 20.2564 34.4279 20.5498C34.7022 20.9467 34.9576 21.3158 35.3495 21.1078C35.8119 20.8624 36.1909 20.4855 36.4388 20.0248C36.6867 19.5641 36.7921 19.0405 36.7418 18.5199C36.7044 18.1307 36.5811 17.7546 36.3805 17.4188C36.18 17.0829 35.9074 16.7956 35.5825 16.5776C35.2574 16.3596 34.8879 16.2165 34.5009 16.1583C34.1137 16.1001 33.7185 16.1285 33.3436 16.2413C32.8423 16.3921 32.397 16.6879 32.0639 17.0914C31.7311 17.4949 31.5252 17.9879 31.4725 18.5081C31.4201 19.0284 31.5232 19.5527 31.7689 20.0144C31.9505 20.3556 32.3535 20.1948 32.7789 20.0248C33.1125 19.8917 33.4597 19.753 33.7248 19.8463ZM21.2507 19.8466C20.964 19.9479 20.7503 20.2566 20.5474 20.55C20.273 20.9467 20.0176 21.3161 19.6258 21.108C19.2803 20.9244 18.98 20.6664 18.7462 20.3529C18.5124 20.0394 18.3512 19.678 18.274 19.2947C18.1968 18.9115 18.2055 18.5158 18.2997 18.1365C18.3942 17.757 18.5714 17.4033 18.8188 17.1004C19.0667 16.7978 19.3784 16.5538 19.7319 16.3858C20.0854 16.2177 20.4719 16.1304 20.8632 16.1295C21.2546 16.1286 21.6413 16.2144 21.9956 16.3807C22.3498 16.547 22.6627 16.7898 22.9118 17.0912C23.2449 17.4947 23.4508 17.9877 23.5035 18.508C23.5559 19.0284 23.4527 19.5527 23.2068 20.0144C23.0247 20.3556 22.6217 20.1945 22.1963 20.0246C21.863 19.8914 21.5158 19.7527 21.2507 19.8463V19.8466ZM31.7947 31.1829C33.7716 29.6271 34.4968 27.0873 34.4968 25.5232C34.4968 24.2865 33.6636 24.6757 32.33 25.3351L32.255 25.3724C31.0306 25.9779 29.3999 26.7839 27.613 26.7839C25.824 26.7839 24.1947 25.9777 22.9711 25.3722C21.5942 24.691 20.7307 24.2638 20.7307 25.5235C20.7307 27.1372 21.5032 29.7864 23.6246 31.3262C23.9043 30.7588 24.2981 30.2552 24.7817 29.8468C25.2651 29.4385 25.8279 29.1344 26.4346 28.9532C26.6463 28.8902 26.8643 29.2542 27.0876 29.6266C27.303 29.9863 27.5229 30.3539 27.747 30.3539C27.9854 30.3539 28.22 29.9916 28.4489 29.6378C28.688 29.2682 28.9211 28.9079 29.1467 28.9799C30.2819 29.3439 31.2314 30.1332 31.7954 31.1822L31.7947 31.1829Z" fill="#32343D"/>
<path d="M31.7826 31.1902C30.753 32.0006 29.3844 32.544 27.6019 32.544C25.9275 32.544 24.6181 32.0644 23.613 31.3343C23.893 30.7671 24.287 30.2634 24.7704 29.8553C25.2537 29.447 25.8165 29.1426 26.423 28.9613C26.8389 28.8374 27.2793 30.3619 27.7352 30.3619C28.2234 30.3619 28.6937 28.8471 29.1351 28.9879C30.2698 29.3522 31.2191 30.1415 31.7838 31.1902H31.7826Z" fill="#FF323D"/>
<path d="M16.519 22.048C16.3311 22.1743 16.1201 22.2624 15.8982 22.307C15.6762 22.3516 15.4476 22.3521 15.2254 22.3084C15.0033 22.2645 14.7918 22.1775 14.6034 22.0521C14.415 21.9265 14.2533 21.7653 14.1276 21.5771C14.0017 21.3892 13.9143 21.178 13.8702 20.9563C13.8262 20.7344 13.8265 20.506 13.871 20.2841C13.9155 20.0625 14.0034 19.8518 14.1295 19.6639C14.2558 19.4761 14.4179 19.3152 14.6066 19.19C14.9861 18.9386 15.45 18.8474 15.8965 18.9369C16.343 19.0264 16.736 19.289 16.989 19.667C17.242 20.0453 17.3347 20.5082 17.2466 20.9544C17.1585 21.4008 16.8967 21.7941 16.519 22.048ZM41.1369 22.048C40.949 22.1743 40.738 22.2624 40.5161 22.307C40.2942 22.3516 40.0655 22.3521 39.8434 22.3084C39.6212 22.2645 39.4098 22.1775 39.2214 22.0521C39.033 21.9265 38.8713 21.7653 38.7455 21.5771C38.6195 21.3892 38.5321 21.178 38.4882 20.9563C38.4442 20.7344 38.4445 20.506 38.4889 20.2841C38.5333 20.0625 38.6212 19.8518 38.7474 19.6639C38.8737 19.4761 39.0359 19.3152 39.2245 19.19C39.604 18.9386 40.0679 18.8474 40.5144 18.9369C40.9609 19.0264 41.3537 19.289 41.6069 19.667C41.8599 20.0453 41.9526 20.5082 41.8645 20.9544C41.7764 21.4008 41.5147 21.7941 41.1369 22.048Z" fill="#FFAD03"/>
</g>
<defs>
<clipPath id="clip0_509_755">
<rect width="56" height="56" fill="white"/>
</clipPath>
</defs>
</svg>
