<svg width="56" height="56" viewBox="0 0 56 56" fill="none" xmlns="http://www.w3.org/2000/svg">
<g clip-path="url(#clip0_507_622)">
<path d="M42.875 0H13.125C5.87626 0 0 5.87626 0 13.125V42.875C0 50.1237 5.87626 56 13.125 56H42.875C50.1237 56 56 50.1237 56 42.875V13.125C56 5.87626 50.1237 0 42.875 0Z" fill="white"/>
<path d="M19.6653 50.2541C18.5961 50.2541 17.5863 49.7655 16.9032 48.88L6.50818 35.5972C5.82508 34.7117 5.55778 33.5819 5.82508 32.4827L9.5376 15.9021C9.7752 14.8028 10.488 13.9173 11.4681 13.4288L26.4964 6.03927C26.9716 5.79499 27.5062 5.67285 28.0408 5.67285C28.5754 5.67285 29.11 5.79499 29.5852 6.03927L44.6135 13.3982C45.5936 13.8868 46.3064 14.7723 46.544 15.8716L50.2565 32.4521C50.4941 33.5514 50.2565 34.6812 49.5734 35.5667L39.1783 48.8495C38.4952 49.7045 37.4854 50.2235 36.4162 50.2235L19.6653 50.2541Z" fill="#326DE6"/>
<path d="M28.0111 6.43515C28.4269 6.43515 28.8427 6.52675 29.2288 6.70997L44.2571 14.0689C45.0293 14.4659 45.6233 15.1987 45.8015 16.0537L49.514 32.6343C49.7219 33.5198 49.514 34.4358 48.9497 35.1381L38.5547 48.4209C38.0201 49.1232 37.1885 49.5202 36.3272 49.5202H19.6654C18.8041 49.5202 17.9725 49.1232 17.4379 48.4209L7.04283 35.1381C6.50823 34.4358 6.30033 33.5198 6.47853 32.6343L10.191 16.0537C10.3989 15.1682 10.9633 14.4353 11.7355 14.0689L26.7637 6.67943C27.1498 6.52675 27.5953 6.43515 28.0111 6.43515ZM28.0111 5C27.3874 5 26.7637 5.15268 26.1697 5.42749L11.1415 12.817C9.95345 13.3972 9.12184 14.4659 8.82484 15.7789L5.11232 32.3594C4.81532 33.6725 5.11232 35.016 5.94393 36.0847L16.339 49.3675C17.1409 50.4057 18.3586 50.9858 19.6357 50.9858H36.2975C37.5746 50.9858 38.7923 50.4057 39.5942 49.3675L49.9892 36.0847C50.8208 35.0465 51.1178 33.6725 50.8208 32.3594L47.1083 15.7789C46.8113 14.4659 45.9797 13.3972 44.7917 12.817L29.8228 5.42749C29.2585 5.15268 28.6348 5 28.0111 5Z" fill="white"/>
<path d="M43.0688 31.3214C43.0391 31.3214 43.0391 31.3214 43.0688 31.3214H43.0391C43.0094 31.3214 42.9797 31.3214 42.9797 31.2908C42.9203 31.2908 42.8609 31.2603 42.8015 31.2603C42.5936 31.2297 42.4154 31.1992 42.2372 31.1992C42.1481 31.1992 42.059 31.1992 41.9402 31.1687H41.9105C41.2868 31.1076 40.7819 31.0465 40.3067 30.8939C40.0988 30.8023 40.0394 30.6801 39.98 30.558C39.98 30.5274 39.9503 30.5274 39.9503 30.4969L39.5642 30.3748C39.7424 28.9702 39.683 27.5045 39.3563 26.0693C39.0296 24.6342 38.4653 23.2906 37.6931 22.0692L37.9901 21.7944V21.7333C37.9901 21.5807 38.0198 21.428 38.1386 21.2753C38.495 20.9394 38.9405 20.6646 39.4751 20.3287C39.5642 20.2676 39.6533 20.2371 39.7424 20.176C39.9206 20.0844 40.0691 19.9928 40.2473 19.8707C40.277 19.8402 40.3364 19.8096 40.3958 19.7486C40.4255 19.718 40.4552 19.718 40.4552 19.6875C40.871 19.3211 40.9601 18.7104 40.6631 18.3134C40.5146 18.0997 40.2473 17.9775 39.98 17.9775C39.7424 17.9775 39.5345 18.0691 39.3266 18.2218C39.2969 18.2523 39.2969 18.2523 39.2672 18.2829C39.2078 18.3134 39.1781 18.3745 39.1187 18.405C38.9702 18.5577 38.8514 18.6798 38.7326 18.8325C38.6732 18.8936 38.6138 18.9852 38.5247 19.0462C38.1089 19.5043 37.7228 19.8707 37.3367 20.1455C37.2476 20.2066 37.1585 20.2371 37.0694 20.2371C37.01 20.2371 36.9506 20.2371 36.8912 20.2066H36.8318L36.4754 20.4509C36.0893 20.0234 35.6735 19.6569 35.2577 19.2905C33.4757 17.8554 31.3076 16.9699 29.0504 16.7561L29.0207 16.3592C28.991 16.3286 28.991 16.3286 28.9613 16.2981C28.8722 16.2065 28.7534 16.1149 28.7237 15.9011C28.694 15.4126 28.7534 14.8629 28.8128 14.2522V14.2217C28.8128 14.1301 28.8425 14.008 28.8722 13.9164C28.9019 13.7331 28.9316 13.5499 28.9613 13.3362V13.153V13.0614C28.9613 12.5117 28.5455 12.0537 28.0406 12.0537C27.803 12.0537 27.5654 12.1759 27.3872 12.3591C27.209 12.5423 27.1199 12.7866 27.1199 13.0614V13.1224V13.3056C27.1199 13.5194 27.1496 13.7026 27.209 13.8858C27.2387 13.9774 27.2387 14.069 27.2684 14.1912V14.2217C27.3278 14.8324 27.4169 15.382 27.3575 15.8706C27.3278 16.0843 27.209 16.1759 27.1199 16.2676C27.0902 16.2981 27.0902 16.2981 27.0605 16.3286L27.0308 16.7256C26.4962 16.7866 25.9616 16.8477 25.427 16.9699C23.1401 17.489 21.1204 18.6798 19.5463 20.3898L19.2493 20.176H19.1899C19.1305 20.176 19.0711 20.2066 19.0117 20.2066C18.9226 20.2066 18.8335 20.176 18.7444 20.115C18.3583 19.8402 17.9722 19.4432 17.5564 18.9852C17.497 18.9241 17.4376 18.8325 17.3485 18.7714C17.2297 18.6188 17.1109 18.4966 16.9624 18.3439C16.9327 18.3134 16.8733 18.2829 16.8139 18.2218C16.7842 18.1913 16.7545 18.1913 16.7545 18.1607C16.5763 18.0081 16.3387 17.9164 16.1011 17.9164C15.8338 17.9164 15.5665 18.0386 15.418 18.2523C15.121 18.6493 15.2101 19.26 15.6259 19.6264C15.6556 19.6264 15.6556 19.6569 15.6853 19.6569C15.7447 19.6875 15.7744 19.7486 15.8338 19.7791C16.012 19.9012 16.1605 19.9928 16.3387 20.0844C16.4278 20.115 16.5169 20.176 16.606 20.2371C17.1406 20.573 17.5861 20.8478 17.9425 21.1837C18.091 21.3364 18.091 21.4891 18.091 21.6417V21.7028L18.388 21.9776C18.3286 22.0692 18.2692 22.1303 18.2395 22.2219C16.7545 24.6342 16.1902 27.4739 16.5763 30.2832L16.1902 30.4053C16.1902 30.4358 16.1605 30.4358 16.1605 30.4664C16.1011 30.5885 16.012 30.7107 15.8338 30.8023C15.3883 30.9549 14.8537 31.016 14.23 31.0771H14.2003C14.1112 31.0771 13.9924 31.0771 13.9033 31.1076C13.7251 31.1076 13.5469 31.1381 13.339 31.1687C13.2796 31.1687 13.2202 31.1992 13.1608 31.1992C13.1311 31.1992 13.1014 31.1992 13.0717 31.2297C12.5371 31.3519 12.2104 31.871 12.2995 32.3595C12.3886 32.787 12.7747 33.0619 13.2499 33.0619C13.339 33.0619 13.3984 33.0619 13.4875 33.0313C13.5172 33.0313 13.5469 33.0313 13.5469 33.0008C13.6063 33.0008 13.6657 32.9702 13.7251 32.9702C13.933 32.9092 14.0815 32.8481 14.2597 32.7565C14.3488 32.726 14.4379 32.6649 14.527 32.6344H14.5567C15.121 32.4206 15.6259 32.2374 16.1011 32.1763H16.1605C16.3387 32.1763 16.4575 32.2679 16.5466 32.329C16.5763 32.329 16.5763 32.3595 16.606 32.3595L17.0218 32.2985C17.7346 34.5581 19.1008 36.5734 20.9125 38.0391C21.3283 38.375 21.7441 38.6498 22.1896 38.9246L22.0114 39.3215C22.0114 39.3521 22.0411 39.3521 22.0411 39.3826C22.1005 39.5048 22.1599 39.6574 22.1005 39.8712C21.9223 40.3292 21.655 40.7872 21.3283 41.3063V41.3369C21.2689 41.4285 21.2095 41.4895 21.1501 41.5811C21.0313 41.7338 20.9422 41.8865 20.8234 42.0697C20.7937 42.1002 20.764 42.1613 20.7343 42.2224C20.7343 42.2529 20.7046 42.2834 20.7046 42.2834C20.467 42.8025 20.6452 43.3827 21.0907 43.5965C21.2095 43.6575 21.3283 43.6881 21.4471 43.6881C21.8035 43.6881 22.1599 43.4438 22.3381 43.1079C22.3381 43.0774 22.3678 43.0468 22.3678 43.0468C22.3975 42.9858 22.4272 42.9247 22.4569 42.8941C22.546 42.6804 22.5757 42.5277 22.6351 42.3445C22.6648 42.2529 22.6945 42.1613 22.7242 42.0697C22.9321 41.459 23.0807 40.9704 23.348 40.5429C23.4668 40.3597 23.6153 40.3292 23.7341 40.2681C23.7638 40.2681 23.7638 40.2681 23.7935 40.2376L24.0014 39.8406C25.3082 40.3597 26.7338 40.6346 28.1594 40.6346C29.0207 40.6346 29.9117 40.543 30.7433 40.3292C31.2779 40.2071 31.7828 40.0544 32.2877 39.8712L32.4659 40.2071C32.4956 40.2071 32.4956 40.2071 32.5253 40.2376C32.6738 40.2681 32.7926 40.3292 32.9114 40.5124C33.149 40.9399 33.3272 41.459 33.5351 42.0392V42.0697C33.5648 42.1613 33.5945 42.2529 33.6242 42.3445C33.6836 42.5277 33.7133 42.7109 33.8024 42.8941C33.8321 42.9552 33.8618 42.9858 33.8915 43.0468C33.8915 43.0774 33.9212 43.1079 33.9212 43.1079C34.0994 43.4743 34.4558 43.6881 34.8122 43.6881C34.931 43.6881 35.0498 43.6575 35.1686 43.5965C35.3765 43.4743 35.5547 43.2911 35.6141 43.0468C35.6735 42.8025 35.6735 42.5277 35.5547 42.2834C35.5547 42.2529 35.525 42.2529 35.525 42.2224C35.4953 42.1613 35.4656 42.1002 35.4359 42.0697C35.3468 41.8865 35.228 41.7338 35.1092 41.5811C35.0498 41.4895 34.9904 41.4285 34.931 41.3369V41.3063C34.6043 40.7872 34.3073 40.3292 34.1588 39.8712C34.0994 39.6574 34.1588 39.5353 34.1885 39.3826C34.1885 39.3521 34.2182 39.3521 34.2182 39.3215L34.0697 38.9551C35.6438 38.0085 36.9803 36.665 37.9901 35.0161C38.5247 34.1611 38.9405 33.2145 39.2375 32.2679L39.5939 32.329C39.6236 32.329 39.6236 32.2985 39.6533 32.2985C39.7721 32.2374 39.8612 32.1458 40.0394 32.1458H40.0988C40.574 32.2069 41.0789 32.3901 41.6432 32.6038H41.6729C41.762 32.6344 41.8511 32.6954 41.9402 32.726C42.1184 32.8176 42.2669 32.8786 42.4748 32.9397C42.5342 32.9397 42.5936 32.9702 42.653 32.9702C42.6827 32.9702 42.7124 32.9702 42.7421 33.0008C42.8312 33.0313 42.8906 33.0313 42.9797 33.0313C43.4252 33.0313 43.8114 32.726 43.9302 32.329C43.9302 31.9626 43.6034 31.474 43.0688 31.3214ZM29.3177 29.8251L28.0109 30.4664L26.7041 29.8251L26.3774 28.39L27.2684 27.2296H28.7237L29.6147 28.39L29.3177 29.8251ZM37.0694 26.6495C37.307 27.6877 37.3664 28.7259 37.2773 29.7335L32.7332 28.39C32.3174 28.2678 32.0798 27.8404 32.1689 27.4129C32.1986 27.2907 32.258 27.1686 32.3471 27.077L35.9408 23.7487C36.4457 24.6036 36.8318 25.5808 37.0694 26.6495ZM34.5152 21.9165L30.6245 24.7563C30.2978 24.9701 29.8523 24.909 29.585 24.5731C29.4959 24.4815 29.4662 24.3594 29.4365 24.2372L29.1692 19.26C31.2185 19.5043 33.0896 20.4509 34.5152 21.9165ZM25.9022 19.4127C26.2289 19.3516 26.5259 19.2905 26.8526 19.2295L26.5853 24.1151C26.5556 24.5426 26.2289 24.909 25.7834 24.909C25.6646 24.909 25.5161 24.8784 25.427 24.8174L21.4768 21.9165C22.6945 20.6646 24.2093 19.8096 25.9022 19.4127ZM20.0512 23.7487L23.5856 26.9854C23.9123 27.2602 23.942 27.7793 23.6747 28.1152C23.5856 28.2373 23.4668 28.3289 23.3183 28.3594L18.7147 29.7335C18.5365 27.6571 18.982 25.5502 20.0512 23.7487ZM19.2493 32.0237L23.9717 31.1992C24.3578 31.1687 24.7142 31.4435 24.8033 31.8404C24.833 32.0237 24.833 32.1763 24.7736 32.329L22.9619 36.8177C21.2986 35.7184 19.9621 34.039 19.2493 32.0237ZM30.0899 38.1001C29.4068 38.2528 28.7237 38.3444 28.0109 38.3444C26.9714 38.3444 25.9616 38.1612 25.0112 37.8559L27.3575 33.4893C27.5951 33.2145 27.9812 33.0924 28.3079 33.2756C28.4564 33.3672 28.5752 33.4893 28.6643 33.6115L30.9512 37.8559C30.6839 37.9475 30.3869 38.0085 30.0899 38.1001ZM35.8814 33.8558C35.1389 35.0772 34.1588 36.0543 33.0302 36.8177L31.1591 32.2069C31.07 31.8404 31.2185 31.4435 31.5749 31.2603C31.6937 31.1992 31.8422 31.1687 31.9907 31.1687L36.7427 31.9931C36.5645 32.6649 36.2675 33.2756 35.8814 33.8558Z" fill="white"/>
</g>
<defs>
<clipPath id="clip0_507_622">
<rect width="56" height="56" fill="white"/>
</clipPath>
</defs>
</svg>
