<svg width="56" height="56" viewBox="0 0 56 56" fill="none" xmlns="http://www.w3.org/2000/svg">
<g clip-path="url(#clip0_507_622)">
<path d="M17.9565 55.0858C16.6559 55.0858 15.4275 54.4915 14.5965 53.4143L1.95135 37.2563C1.12039 36.1791 0.795226 34.8048 1.12039 33.4675L5.63652 13.298C5.92555 11.9608 6.79264 10.8836 7.9849 10.2892L26.2662 1.30023C26.8443 1.00307 27.4946 0.854492 28.1449 0.854492C28.7952 0.854492 29.4455 1.00307 30.0236 1.30023L48.3049 10.2521C49.4972 10.8464 50.3643 11.9236 50.6533 13.2608L55.1694 33.4304C55.4585 34.7676 55.1694 36.142 54.3385 37.2192L41.6933 53.3771C40.8623 54.4172 39.6339 55.0486 38.3333 55.0486L17.9565 55.0858Z" fill="#326DE6"/>
<path d="M28.1093 1.78291C28.6151 1.78291 29.1209 1.89434 29.5906 2.11721L47.8719 11.0691C48.8112 11.552 49.5338 12.4434 49.7506 13.4835L54.2667 33.6531C54.5196 34.7303 54.2667 35.8446 53.5803 36.6989L40.9351 52.8569C40.2848 53.7112 39.2732 54.1941 38.2254 54.1941H17.957C16.9093 54.1941 15.8977 53.7112 15.2474 52.8569L2.60221 36.6989C1.95189 35.8446 1.69898 34.7303 1.91576 33.6531L6.43189 13.4835C6.68479 12.4063 7.37124 11.5148 8.3106 11.0691L26.5919 2.08007C27.0616 1.89434 27.6035 1.78291 28.1093 1.78291ZM28.1093 0.0371094C27.3506 0.0371094 26.5919 0.222833 25.8693 0.557135L7.58802 9.54615C6.14285 10.2519 5.13124 11.552 4.76995 13.1492L0.253822 33.3188C-0.107468 34.916 0.253822 36.5504 1.26544 37.8504L13.9106 54.0084C14.8861 55.2713 16.3674 55.977 17.9209 55.977H38.1893C39.7429 55.977 41.2241 55.2713 42.1996 54.0084L54.8448 37.8504C55.8564 36.5875 56.2177 34.916 55.8564 33.3188L51.3403 13.1492C50.979 11.552 49.9674 10.2519 48.5222 9.54615L30.3132 0.557135C29.6267 0.222833 28.868 0.0371094 28.1093 0.0371094Z" fill="white"/>
<path d="M46.4259 32.056C46.3898 32.056 46.3898 32.056 46.4259 32.056H46.3898C46.3537 32.056 46.3175 32.056 46.3175 32.0188C46.2453 32.0188 46.173 31.9817 46.1008 31.9817C45.8479 31.9446 45.6311 31.9074 45.4143 31.9074C45.3059 31.9074 45.1975 31.9074 45.053 31.8703H45.0169C44.2582 31.796 43.644 31.7217 43.0659 31.536C42.813 31.4245 42.7408 31.2759 42.6685 31.1274C42.6685 31.0902 42.6324 31.0902 42.6324 31.0531L42.1627 30.9045C42.3795 29.1958 42.3072 27.4129 41.9098 25.6671C41.5124 23.9213 40.8259 22.2869 39.8866 20.8011L40.2479 20.4668V20.3925C40.2479 20.2068 40.284 20.0211 40.4285 19.8354C40.8621 19.4268 41.404 19.0925 42.0543 18.6839C42.1627 18.6096 42.2711 18.5725 42.3795 18.4982C42.5963 18.3867 42.7769 18.2753 42.9937 18.1267C43.0298 18.0896 43.1021 18.0524 43.1743 17.9781C43.2104 17.941 43.2466 17.941 43.2466 17.9039C43.7524 17.4581 43.8608 16.7152 43.4995 16.2323C43.3188 15.9723 42.9937 15.8237 42.6685 15.8237C42.3795 15.8237 42.1266 15.9352 41.8737 16.1209C41.8375 16.1581 41.8375 16.1581 41.8014 16.1952C41.7292 16.2323 41.693 16.3066 41.6208 16.3438C41.4401 16.5295 41.2956 16.6781 41.1511 16.8638C41.0788 16.9381 41.0066 17.0495 40.8982 17.1238C40.3924 17.681 39.9227 18.1267 39.453 18.461C39.3446 18.5353 39.2363 18.5725 39.1279 18.5725C39.0556 18.5725 38.9834 18.5725 38.9111 18.5353H38.8388L38.4053 18.8325C37.9356 18.3124 37.4298 17.8667 36.924 17.421C34.7563 15.6752 32.1188 14.598 29.373 14.338L29.3369 13.8551C29.3008 13.8179 29.3008 13.8179 29.2646 13.7808C29.1563 13.6694 29.0117 13.5579 28.9756 13.2979C28.9395 12.7036 29.0117 12.035 29.084 11.2921V11.255C29.084 11.1435 29.1201 10.9949 29.1563 10.8835C29.1924 10.6606 29.2285 10.4378 29.2646 10.1778V9.95488V9.84345C29.2646 9.17485 28.7588 8.61768 28.1446 8.61768C27.8556 8.61768 27.5666 8.76625 27.3498 8.98912C27.133 9.21199 27.0246 9.50915 27.0246 9.84345V9.91774V10.1406C27.0246 10.4006 27.0608 10.6235 27.133 10.8464C27.1692 10.9578 27.1692 11.0692 27.2053 11.2178V11.255C27.2776 11.9978 27.3859 12.6664 27.3137 13.2608C27.2776 13.5208 27.133 13.6322 27.0246 13.7436C26.9885 13.7808 26.9885 13.7808 26.9524 13.8179L26.9163 14.3008C26.2659 14.3751 25.6156 14.4494 24.9653 14.598C22.1834 15.2294 19.7266 16.6781 17.8117 18.7582L17.4505 18.4982H17.3782C17.3059 18.4982 17.2337 18.5353 17.1614 18.5353C17.053 18.5353 16.9446 18.4982 16.8363 18.4239C16.3666 18.0896 15.8969 17.6067 15.3911 17.0495C15.3188 16.9752 15.2466 16.8638 15.1382 16.7895C14.9937 16.6038 14.8492 16.4552 14.6685 16.2695C14.6324 16.2323 14.5601 16.1952 14.4879 16.1209C14.4517 16.0838 14.4156 16.0838 14.4156 16.0466C14.1988 15.8609 13.9098 15.7495 13.6208 15.7495C13.2956 15.7495 12.9705 15.898 12.7898 16.1581C12.4285 16.6409 12.5369 17.3838 13.0427 17.8296C13.0788 17.8296 13.0788 17.8667 13.115 17.8667C13.1872 17.9039 13.2234 17.9781 13.2956 18.0153C13.5124 18.1639 13.693 18.2753 13.9098 18.3867C14.0182 18.4239 14.1266 18.4982 14.235 18.5725C14.8853 18.981 15.4272 19.3154 15.8608 19.7239C16.0414 19.9097 16.0414 20.0954 16.0414 20.2811V20.3554L16.4027 20.6897C16.3305 20.8011 16.2582 20.8754 16.2221 20.9869C14.4156 23.9213 13.7292 27.3758 14.1988 30.7931L13.7292 30.9416C13.7292 30.9788 13.693 30.9788 13.693 31.0159C13.6208 31.1645 13.5124 31.3131 13.2956 31.4245C12.7537 31.6103 12.1034 31.6845 11.3446 31.7588H11.3085C11.2001 31.7588 11.0556 31.7588 10.9472 31.796C10.7305 31.796 10.5137 31.8331 10.2608 31.8703C10.1885 31.8703 10.1163 31.9074 10.044 31.9074C10.0079 31.9074 9.97174 31.9074 9.93561 31.9446C9.28529 32.0931 8.88787 32.7246 8.99626 33.3189C9.10465 33.8389 9.57432 34.1732 10.1524 34.1732C10.2608 34.1732 10.333 34.1732 10.4414 34.1361C10.4775 34.1361 10.5137 34.1361 10.5137 34.0989C10.5859 34.0989 10.6582 34.0618 10.7305 34.0618C10.9834 33.9875 11.164 33.9132 11.3808 33.8018C11.4892 33.7646 11.5975 33.6904 11.7059 33.6532H11.7421C12.4285 33.3932 13.0427 33.1703 13.6208 33.096H13.693C13.9098 33.096 14.0543 33.2075 14.1627 33.2818C14.1988 33.2818 14.1988 33.3189 14.235 33.3189L14.7408 33.2446C15.6079 35.9933 17.2698 38.4449 19.4737 40.2278C19.9795 40.6364 20.4853 40.9707 21.0272 41.305L20.8105 41.7879C20.8105 41.825 20.8466 41.825 20.8466 41.8622C20.9188 42.0108 20.9911 42.1965 20.9188 42.4565C20.7021 43.0137 20.3769 43.5708 19.9795 44.2023V44.2394C19.9072 44.3509 19.835 44.4252 19.7627 44.5366C19.6182 44.7223 19.5098 44.9081 19.3653 45.1309C19.3292 45.1681 19.293 45.2424 19.2569 45.3166C19.2569 45.3538 19.2208 45.3909 19.2208 45.3909C18.9317 46.0224 19.1485 46.7281 19.6905 46.9882C19.835 47.0624 19.9795 47.0996 20.124 47.0996C20.5575 47.0996 20.9911 46.8024 21.2079 46.3938C21.2079 46.3567 21.244 46.3195 21.244 46.3195C21.2801 46.2453 21.3163 46.171 21.3524 46.1338C21.4608 45.8738 21.4969 45.6881 21.5692 45.4652C21.6053 45.3538 21.6414 45.2424 21.6775 45.1309C21.9305 44.388 22.1111 43.7937 22.4363 43.2737C22.5808 43.0508 22.7614 43.0137 22.9059 42.9394C22.9421 42.9394 22.9421 42.9394 22.9782 42.9022L23.2311 42.4194C24.8208 43.0508 26.555 43.3851 28.2892 43.3851C29.3369 43.3851 30.4208 43.2737 31.4324 43.0137C32.0827 42.8651 32.6969 42.6794 33.3111 42.4565L33.5279 42.8651C33.564 42.8651 33.564 42.8651 33.6001 42.9022C33.7808 42.9394 33.9253 43.0137 34.0698 43.2365C34.3588 43.7566 34.5756 44.388 34.8285 45.0938V45.1309C34.8646 45.2424 34.9008 45.3538 34.9369 45.4652C35.0092 45.6881 35.0453 45.911 35.1537 46.1338C35.1898 46.2081 35.2259 46.2453 35.2621 46.3195C35.2621 46.3567 35.2982 46.3938 35.2982 46.3938C35.515 46.8396 35.9485 47.0996 36.3821 47.0996C36.5266 47.0996 36.6711 47.0624 36.8156 46.9882C37.0685 46.8396 37.2853 46.6167 37.3575 46.3195C37.4298 46.0224 37.4298 45.6881 37.2853 45.3909C37.2853 45.3538 37.2492 45.3538 37.2492 45.3166C37.213 45.2424 37.1769 45.1681 37.1408 45.1309C37.0324 44.9081 36.8879 44.7223 36.7434 44.5366C36.6711 44.4252 36.5988 44.3509 36.5266 44.2394V44.2023C36.1292 43.5708 35.7679 43.0137 35.5872 42.4565C35.515 42.1965 35.5872 42.0479 35.6234 41.8622C35.6234 41.825 35.6595 41.825 35.6595 41.7879L35.4788 41.3422C37.3937 40.1907 39.0195 38.5563 40.2479 36.5505C40.8982 35.5104 41.404 34.359 41.7653 33.2075L42.1988 33.2818C42.235 33.2818 42.235 33.2446 42.2711 33.2446C42.4156 33.1703 42.524 33.0589 42.7408 33.0589H42.813C43.3911 33.1332 44.0053 33.356 44.6917 33.6161H44.7279C44.8363 33.6532 44.9446 33.7275 45.053 33.7646C45.2698 33.8761 45.4505 33.9504 45.7034 34.0247C45.7756 34.0247 45.8479 34.0618 45.9201 34.0618C45.9563 34.0618 45.9924 34.0618 46.0285 34.0989C46.1369 34.1361 46.2092 34.1361 46.3175 34.1361C46.8595 34.1361 47.3292 33.7646 47.4737 33.2818C47.4737 32.836 47.0763 32.2417 46.4259 32.056ZM29.6982 30.2359L28.1085 31.0159L26.5188 30.2359L26.1214 28.4901L27.2053 27.0786H28.9756L30.0595 28.4901L29.6982 30.2359ZM39.1279 26.3728C39.4169 27.6358 39.4892 28.8987 39.3808 30.1245L33.853 28.4901C33.3472 28.3415 33.0582 27.8215 33.1666 27.3015C33.2027 27.1529 33.275 27.0043 33.3834 26.8929L37.755 22.8441C38.3692 23.8842 38.8388 25.0728 39.1279 26.3728ZM36.0208 20.6154L31.2879 24.0699C30.8905 24.3299 30.3485 24.2556 30.0234 23.847C29.915 23.7356 29.8788 23.587 29.8427 23.4384L29.5175 17.3838C32.0105 17.681 34.2866 18.8325 36.0208 20.6154ZM25.5434 17.5696C25.9408 17.4953 26.3021 17.421 26.6995 17.3467L26.3743 23.2898C26.3382 23.8099 25.9408 24.2556 25.3988 24.2556C25.2543 24.2556 25.0737 24.2185 24.9653 24.1442L20.1601 20.6154C21.6414 19.0925 23.484 18.0524 25.5434 17.5696ZM18.4259 22.8441L22.7253 26.7814C23.1227 27.1157 23.1588 27.7472 22.8337 28.1558C22.7253 28.3044 22.5808 28.4158 22.4001 28.4529L16.8001 30.1245C16.5834 27.5986 17.1253 25.0356 18.4259 22.8441ZM17.4505 32.9103L23.195 31.9074C23.6646 31.8703 24.0982 32.2046 24.2066 32.6874C24.2427 32.9103 24.2427 33.096 24.1705 33.2818L21.9666 38.742C19.9434 37.4048 18.3175 35.3619 17.4505 32.9103ZM30.6376 40.3021C29.8066 40.4878 28.9756 40.5993 28.1085 40.5993C26.844 40.5993 25.6156 40.3764 24.4595 40.0049L27.3137 34.6933C27.6027 34.359 28.0724 34.2104 28.4698 34.4332C28.6505 34.5447 28.795 34.6933 28.9034 34.8418L31.6853 40.0049C31.3601 40.1164 30.9988 40.1907 30.6376 40.3021ZM37.6827 35.139C36.7795 36.6248 35.5872 37.8134 34.2143 38.742L31.9382 33.1332C31.8298 32.6874 32.0105 32.2046 32.444 31.9817C32.5885 31.9074 32.7692 31.8703 32.9498 31.8703L38.7305 32.8732C38.5137 33.6904 38.1524 34.4332 37.6827 35.139Z" fill="white"/>
</g>
<defs>
<clipPath id="clip0_507_622">
<rect width="56" height="56" fill="white"/>
</clipPath>
</defs>
</svg>
