<svg width="56" height="56" viewBox="0 0 56 56" fill="none" xmlns="http://www.w3.org/2000/svg">
<g clip-path="url(#clip0_507_649)">
<path d="M27.7648 1.98926C20.3817 1.98926 14.3967 7.97426 14.3967 15.3574C14.3967 20.2621 17.0382 24.5503 20.9762 26.8761L24.8057 20.378C24.9016 20.2149 24.8467 20.0063 24.6902 19.9002C23.2358 18.9139 22.2803 17.2472 22.2803 15.3572C22.2803 12.3285 24.7359 9.87289 27.7648 9.87289C30.7937 9.87289 33.2493 12.3285 33.2493 15.3574C33.2493 17.2469 32.2938 18.9139 30.8394 19.9004C30.6829 20.0063 30.6278 20.2149 30.7239 20.378L34.5539 26.8764C38.4921 24.5503 41.1336 20.2623 41.1336 15.3574C41.1336 7.97426 35.1479 1.98926 27.7648 1.98926ZM13.3681 27.2747C5.985 27.2747 0 33.2597 0 40.6428C0 48.0259 5.985 54.0109 13.3681 54.0109C20.7877 54.0109 26.9187 47.7121 26.7323 40.2998H19.2064C19.0087 40.2998 18.8533 40.4671 18.8519 40.6647C18.8328 43.6187 16.3683 46.1273 13.3681 46.1273C10.3392 46.1273 7.88363 43.6717 7.88363 40.6428C7.88363 37.6137 10.3392 35.1583 13.3681 35.1583C14.1615 35.1583 14.9151 35.3272 15.5958 35.6301C15.7621 35.7043 15.9612 35.6481 16.0536 35.4913L19.8952 28.9731C17.9648 27.8914 15.7383 27.2747 13.3681 27.2747ZM49.4004 29.0513L45.5817 35.5561C45.486 35.7195 45.5415 35.9281 45.6983 36.034C47.1543 37.018 48.1129 38.6833 48.1164 40.5728C48.1215 43.6015 45.6703 46.0608 42.6412 46.0659C39.6125 46.0713 37.1525 43.6201 37.1474 40.5915C37.1439 38.7019 38.0966 37.0336 39.5493 36.0447C39.7056 35.9381 39.7605 35.729 39.6641 35.5662L35.8225 29.0753C31.8887 31.4082 29.2551 35.7006 29.2635 40.6055C29.2766 47.9884 35.2718 53.9633 42.6552 53.9503C50.0381 53.9377 56.0126 47.9419 56 40.5588C55.9914 35.6537 53.3423 31.3701 49.4004 29.0513Z" fill="black"/>
</g>
<defs>
<clipPath id="clip0_507_649">
<rect width="56" height="56" fill="white"/>
</clipPath>
</defs>
</svg>
