<svg width="56" height="58" viewBox="0 0 56 58" fill="none" xmlns="http://www.w3.org/2000/svg">
<g clip-path="url(#clip0_507_656)">
<path d="M41.8896 42.2229C42.2568 39.1494 42.1467 38.6987 44.4251 39.1966L45.0036 39.2476C46.7555 39.3277 49.0472 38.9645 50.3936 38.336C53.2918 36.9848 55.0104 34.7288 52.1526 35.3216C45.6337 36.6728 45.1855 34.4549 45.1855 34.4549C52.0691 24.1928 54.9467 11.1655 52.4629 7.97759C45.6883 -0.720011 33.9614 3.39289 33.7656 3.49967L33.7032 3.51126C32.4151 3.24274 30.9736 3.0823 29.3543 3.05599C26.4043 3.00729 24.1659 3.83305 22.4679 5.12709C22.4679 5.12709 1.54787 -3.53261 2.52122 16.0175C2.72821 20.1764 8.45428 47.4877 15.2837 39.238C17.7798 36.2216 20.1921 33.6711 20.1921 33.6711C21.3899 34.4707 22.824 34.8786 24.3281 34.7321L24.4444 34.6324C24.408 35.007 24.424 35.3733 24.4909 35.8069C22.7319 37.7821 23.2488 38.1288 19.7313 38.8563C16.1727 39.5932 18.2634 40.9052 19.628 41.2481C21.2829 41.6639 25.1111 42.2529 27.6984 38.6144L27.5954 39.0296C28.2856 39.5844 28.2389 43.017 28.3368 45.4695C28.4348 47.9221 28.5982 50.2109 29.0958 51.5602C29.5933 52.9094 30.1804 56.3851 34.8032 55.3896C38.6666 54.5578 41.6205 53.3605 41.8897 42.2226" fill="black"/>
<path d="M41.8896 42.2229C42.2568 39.1494 42.1467 38.6987 44.4251 39.1966L45.0036 39.2476C46.7555 39.3277 49.0472 38.9645 50.3936 38.336C53.2918 36.9848 55.0104 34.7288 52.1526 35.3216C45.6337 36.6728 45.1855 34.4549 45.1855 34.4549C52.0691 24.1928 54.9467 11.1655 52.4629 7.97759C45.6883 -0.720011 33.9614 3.39289 33.7657 3.49967L33.7032 3.51126C32.4151 3.24274 30.9736 3.0823 29.3543 3.05599C26.4043 3.00729 24.1659 3.83305 22.4679 5.12709C22.4679 5.12709 1.54787 -3.53261 2.52122 16.0175C2.72821 20.1764 8.45428 47.4877 15.2837 39.238C17.7798 36.2216 20.1921 33.6711 20.1921 33.6711C21.3899 34.4707 22.824 34.8786 24.3281 34.7321L24.4444 34.6324C24.408 35.007 24.424 35.3733 24.4909 35.8069C22.7319 37.7821 23.2488 38.1288 19.7313 38.8563C16.1727 39.5932 18.2634 40.9052 19.628 41.2481C21.2829 41.6639 25.1111 42.2529 27.6984 38.6144L27.5954 39.0296C28.2856 39.5844 28.2389 43.017 28.3368 45.4695C28.4348 47.9221 28.5982 50.2109 29.0958 51.5602C29.5933 52.9094 30.1804 56.3851 34.8032 55.3896C38.6666 54.5578 41.6205 53.3605 41.8897 42.2226" stroke="black" stroke-width="3"/>
<path d="M52.1552 35.3208C45.6357 36.672 45.1875 34.4542 45.1875 34.4542C52.0711 24.1914 54.9486 11.1647 52.4653 7.97553C45.6907 -0.721549 33.9638 3.39161 33.7681 3.49839L33.7051 3.50972C32.4171 3.24107 30.9756 3.08102 29.3555 3.05446C26.4055 3.00588 24.1678 3.83151 22.4698 5.12529C22.4698 5.12529 1.54982 -3.53402 2.52318 16.016C2.73016 20.1751 8.4561 47.4862 15.2858 39.2364C17.782 36.22 20.1939 33.6696 20.1939 33.6696C21.3919 34.4692 22.826 34.877 24.3294 34.7305L24.4462 34.6309C24.4099 35.0054 24.4265 35.3717 24.493 35.8054C22.7336 37.7805 23.2506 38.1273 19.7334 38.8547C16.1745 39.5917 18.2652 40.9037 19.6302 41.2466C21.2851 41.6624 25.1136 42.2514 27.7004 38.6129L27.5972 39.0281C28.2866 39.5828 28.7707 42.6367 28.6896 45.4051C28.6084 48.1735 28.5543 50.0741 29.0974 51.5587C29.6406 53.0433 30.182 56.3835 34.8056 55.3881C38.6691 54.5562 40.6712 52.4005 40.9497 48.8046C41.1473 46.2481 41.5946 46.626 41.6229 44.3405L41.9816 43.2584C42.3953 39.793 42.0473 38.675 44.4276 39.195L45.006 39.2461C46.7579 39.3262 49.0508 38.963 50.3965 38.3345C53.2943 36.9833 55.0129 34.7273 52.1557 35.32L52.1552 35.3208Z" fill="#336791"/>
<path d="M27.9786 37.3069C27.799 43.7551 28.0237 50.2482 28.6516 51.827C29.2799 53.405 30.6246 56.4744 35.2486 55.4791C39.1117 54.647 40.5173 53.0366 41.1273 49.4821C41.5765 46.8669 42.4425 39.604 42.5536 38.116M22.4352 4.9819C22.4352 4.9819 1.50097 -3.61503 2.47433 15.935C2.68131 20.0941 8.40764 47.4052 15.2372 39.1567C17.7329 36.1399 19.99 33.7739 19.99 33.7739M33.7435 3.41282C33.0189 3.6411 45.3885 -1.1306 52.4187 7.89477C54.9019 11.0832 52.0243 24.1104 45.1408 34.3734" stroke="white" stroke-linecap="round" stroke-linejoin="round"/>
<path d="M45.1394 34.3728C45.1394 34.3728 45.5879 36.5913 52.1076 35.2392C54.9642 34.6464 53.245 36.9027 50.3479 38.2546C47.9703 39.3633 42.6396 39.6474 42.5525 38.1154C42.3284 34.1624 45.3581 35.3633 45.1395 34.3728C44.9418 33.4808 43.5869 32.6053 42.6907 30.422C41.9082 28.5165 31.9597 13.903 45.4496 16.0739C45.9438 15.9711 41.9313 3.18133 29.307 2.97323C16.6851 2.76526 17.0992 18.569 17.0992 18.569" stroke="white" stroke-linecap="round" stroke-linejoin="bevel"/>
<path d="M24.4441 35.7247C22.6844 37.6997 23.2019 38.0465 19.6845 38.7742C16.1256 39.5112 18.2165 40.823 19.5812 41.1658C21.236 41.5818 25.0645 42.1708 27.6513 38.5314C28.4391 37.4234 27.6467 35.6553 26.5646 35.2046C26.0417 34.987 25.3426 34.7143 24.4441 35.7247Z" stroke="white" stroke-linecap="round" stroke-linejoin="round"/>
<path d="M24.3294 35.6908C24.1521 34.5296 24.7092 33.1477 25.3061 31.5311C26.2033 29.1056 28.2733 26.6796 26.6174 18.9854C25.3831 13.2517 17.1047 17.7921 17.0995 18.5696C17.0944 19.3468 17.4739 22.5102 16.9612 26.194C16.2922 31.001 20.0054 35.0665 24.2813 34.6505" stroke="white" stroke-linecap="round" stroke-linejoin="round"/>
<path d="M22.3593 18.4528C22.322 18.7183 22.8431 19.4269 23.5227 19.5216C24.201 19.6166 24.7817 19.0629 24.8185 18.7976C24.8553 18.5321 24.3348 18.2396 23.655 18.1446C22.9762 18.0494 22.3952 18.1879 22.3593 18.4528Z" fill="white" stroke="white"/>
<path d="M43.0224 17.9112C43.0592 18.1768 42.5387 18.8853 41.859 18.98C41.1801 19.0751 40.5995 18.5213 40.5623 18.2561C40.5264 17.9905 41.047 17.6981 41.726 17.603C42.4051 17.5079 42.9856 17.6464 43.0224 17.9114V17.9112Z" fill="white" stroke="white"/>
<path d="M45.4508 16.0737C45.5627 18.1565 45.0043 19.5752 44.934 21.7924C44.8298 25.0152 46.4632 28.704 44.002 32.3973" stroke="white" stroke-linecap="round" stroke-linejoin="round"/>
</g>
<defs>
<clipPath id="clip0_507_656">
<rect width="56" height="58" fill="white"/>
</clipPath>
</defs>
</svg>
