<svg width="56" height="58" viewBox="0 0 56 58" fill="none" xmlns="http://www.w3.org/2000/svg">
<path d="M42.875 0H13.125C5.87626 0 0 5.87626 0 13.125V42.875C0 50.1237 5.87626 56 13.125 56H42.875C50.1237 56 56 50.1237 56 42.875V13.125C56 5.87626 50.1237 0 42.875 0Z" fill="white"/>
<path d="M39.929 40.3541C40.2442 37.7154 40.1497 37.3285 42.1058 37.7559L42.6024 37.7997C44.1065 37.8685 46.074 37.5567 47.2299 37.0171C49.7182 35.857 51.1937 33.9202 48.7401 34.4291C43.1434 35.5892 42.7586 33.6851 42.7586 33.6851C48.6684 24.8747 51.1389 13.6903 49.0065 10.9533C43.1902 3.48616 33.1223 7.01722 32.9543 7.1089L32.9006 7.11885C31.7948 6.88831 30.5572 6.75057 29.167 6.72799C26.6343 6.68617 24.7125 7.39511 23.2547 8.5061C23.2547 8.5061 5.29419 1.07144 6.12984 17.8559C6.30755 21.4265 11.2236 44.8742 17.0869 37.7915C19.2299 35.2018 21.3009 33.0121 21.3009 33.0121C22.3293 33.6986 23.5605 34.0488 24.8518 33.923L24.9516 33.8374C24.9204 34.159 24.9342 34.4735 24.9916 34.8458C23.4814 36.5415 23.9251 36.8392 20.9053 37.4638C17.8501 38.0965 19.645 39.2229 20.8166 39.5172C22.2374 39.8742 25.524 40.3799 27.7454 37.2561L27.6569 37.6126C28.2494 38.0889 28.2094 41.0359 28.2934 43.1414C28.3775 45.2471 28.5178 47.2121 28.945 48.3706C29.3722 49.5288 29.8762 52.5128 33.845 51.6582C37.1619 50.944 39.6979 49.9161 39.9291 40.3539" fill="black"/>
<path d="M39.929 40.3541C40.2442 37.7154 40.1497 37.3285 42.1058 37.7559L42.6024 37.7997C44.1065 37.8685 46.074 37.5567 47.2299 37.0171C49.7182 35.857 51.1937 33.9202 48.7401 34.4291C43.1434 35.5892 42.7586 33.6851 42.7586 33.6851C48.6684 24.8747 51.1389 13.6903 49.0065 10.9533C43.1902 3.48616 33.1223 7.01722 32.9543 7.1089L32.9006 7.11885C31.7948 6.88831 30.5572 6.75057 29.167 6.72799C26.6343 6.68617 24.7125 7.39511 23.2547 8.5061C23.2547 8.5061 5.29419 1.07144 6.12984 17.8559C6.30755 21.4265 11.2236 44.8742 17.0869 37.7915C19.2299 35.2018 21.3009 33.0121 21.3009 33.0121C22.3293 33.6986 23.5605 34.0488 24.8518 33.923L24.9516 33.8374C24.9204 34.159 24.9342 34.4735 24.9916 34.8458C23.4814 36.5415 23.9251 36.8392 20.9053 37.4638C17.8501 38.0965 19.645 39.2229 20.8166 39.5172C22.2374 39.8742 25.524 40.3799 27.7454 37.2561L27.6569 37.6126C28.2494 38.0889 28.2094 41.0359 28.2934 43.1414C28.3775 45.2471 28.5178 47.2121 28.945 48.3706C29.3722 49.5288 29.8762 52.5128 33.845 51.6582C37.1619 50.944 39.6979 49.9161 39.9291 40.3539" stroke="black" stroke-width="3"/>
<path d="M48.7416 34.4278C43.1444 35.5878 42.7596 33.6837 42.7596 33.6837C48.6694 24.8728 51.1399 13.6889 49.0079 10.9509C43.1917 3.48414 33.1237 7.01543 32.9557 7.10711L32.9016 7.11683C31.7958 6.88618 30.5582 6.74878 29.1673 6.72597C26.6346 6.68427 24.7135 7.3931 23.2557 8.50386C23.2557 8.50386 5.29516 1.06954 6.13082 17.8539C6.30852 21.4247 11.2244 44.8721 17.088 37.7894C19.2311 35.1998 21.3018 33.0101 21.3018 33.0101C22.3302 33.6966 23.5615 34.0467 24.8522 33.921L24.9525 33.8354C24.9213 34.157 24.9356 34.4715 24.9927 34.8438C23.4821 36.5395 23.926 36.8372 20.9064 37.4617C17.851 38.0944 19.6459 39.2209 20.8178 39.5152C22.2386 39.8722 25.5254 40.3779 27.7463 37.2541L27.6578 37.6106C28.2496 38.0868 28.6652 40.7087 28.5956 43.0854C28.5259 45.4622 28.4794 47.094 28.9458 48.3685C29.4121 49.6431 29.8769 52.5108 33.8464 51.6562C37.1634 50.942 38.8822 49.0912 39.1213 46.004C39.291 43.8092 39.675 44.1337 39.6993 42.1714L40.0073 41.2425C40.3624 38.2673 40.0637 37.3075 42.1072 37.7539L42.6038 37.7977C44.1079 37.8665 46.0764 37.5547 47.2318 37.0151C49.7196 35.855 51.1951 33.9182 48.7421 34.4271L48.7416 34.4278Z" fill="#336791"/>
<path d="M27.986 36.1332C27.8319 41.6693 28.0248 47.2439 28.5639 48.5992C29.1033 49.9541 30.2578 52.5892 34.2277 51.7347C37.5443 51.0203 38.751 49.6378 39.2747 46.5861C39.6603 44.3409 40.4039 38.1054 40.4992 36.8279M23.2269 8.38114C23.2269 8.38114 5.25413 1.00038 6.08979 17.7847C6.26749 21.3555 11.1837 44.803 17.0472 37.7214C19.1898 35.1314 21.1276 33.1 21.1276 33.1M32.9355 7.03403C32.3133 7.23002 42.9331 3.13335 48.9688 10.8819C51.1006 13.6193 48.6301 24.8036 42.7205 33.6148" stroke="white" stroke-linecap="round" stroke-linejoin="round"/>
<path d="M42.7195 33.6147C42.7195 33.6147 43.1047 35.5193 48.702 34.3585C51.1545 33.8495 49.6785 35.7866 47.1913 36.9473C45.15 37.8992 40.5734 38.1431 40.4987 36.8277C40.3063 33.434 42.9074 34.465 42.7197 33.6147C42.55 32.8488 41.3867 32.0972 40.6173 30.2228C39.9455 28.5868 31.4043 16.0406 42.9859 17.9044C43.4102 17.8162 39.9653 6.83568 29.1269 6.65702C18.2906 6.47847 18.6461 20.0465 18.6461 20.0465" stroke="white" stroke-linecap="round" stroke-linejoin="bevel"/>
<path d="M24.9514 34.7751C23.4406 36.4707 23.8849 36.7685 20.8651 37.3932C17.8097 38.026 19.6048 39.1522 20.7764 39.4465C22.1971 39.8037 25.484 40.3094 27.7049 37.1848C28.3812 36.2335 27.7009 34.7156 26.7719 34.3286C26.323 34.1418 25.7228 33.9077 24.9514 34.7751Z" stroke="white" stroke-linecap="round" stroke-linejoin="round"/>
<path d="M24.8536 34.7455C24.7014 33.7486 25.1796 32.5622 25.6922 31.1743C26.4624 29.0919 28.2395 27.0091 26.8179 20.4033C25.7583 15.4808 18.6509 19.3789 18.6465 20.0464C18.6421 20.7136 18.9679 23.4295 18.5278 26.5922C17.9534 30.7192 21.1413 34.2095 24.8123 33.8524" stroke="white" stroke-linecap="round" stroke-linejoin="round"/>
<path d="M23.1623 19.9467C23.1302 20.1747 23.5776 20.783 24.161 20.8643C24.7435 20.9459 25.242 20.4705 25.2736 20.2427C25.3052 20.0148 24.8583 19.7637 24.2747 19.6821C23.6919 19.6003 23.1931 19.7193 23.1623 19.9467Z" fill="white" stroke="white"/>
<path d="M40.9014 19.4808C40.933 19.7088 40.4861 20.3171 39.9026 20.3984C39.3198 20.48 38.8213 20.0046 38.7893 19.7769C38.7585 19.5489 39.2055 19.2978 39.7885 19.2162C40.3714 19.1346 40.8698 19.2534 40.9014 19.4809V19.4808Z" fill="white" stroke="white"/>
<path d="M42.9866 17.9043C43.0826 19.6925 42.6033 20.9104 42.5428 22.814C42.4534 25.5809 43.8557 28.7478 41.7427 31.9186" stroke="white" stroke-linecap="round" stroke-linejoin="round"/>
</svg>
