<svg width="56" height="56" viewBox="0 0 56 56" fill="none" xmlns="http://www.w3.org/2000/svg">
<g clip-path="url(#clip0_507_715)">
<path d="M42.875 0H13.125C5.87626 0 0 5.87626 0 13.125V42.875C0 50.1237 5.87626 56 13.125 56H42.875C50.1237 56 56 50.1237 56 42.875V13.125C56 5.87626 50.1237 0 42.875 0Z" fill="white"/>
<path d="M27.8423 6.34375C16.7358 6.34375 17.4294 11.1602 17.4294 11.1602L17.4418 16.15H28.0405V17.6481H13.232C13.232 17.6481 6.125 16.8421 6.125 28.0486C6.125 39.2551 12.3282 38.8579 12.3282 38.8579H16.0303V33.6575C16.0303 33.6575 15.8307 27.4544 22.1344 27.4544H32.6463C32.6463 27.4544 38.5523 27.5498 38.5523 21.7464V12.1507C38.5523 12.1507 39.4489 6.34375 27.8423 6.34375ZM21.9982 9.69916C23.0528 9.69916 23.905 10.5514 23.905 11.6059C23.905 12.6604 23.0528 13.5127 21.9982 13.5127C20.9437 13.5127 20.0914 12.6604 20.0914 11.6059C20.0914 10.5514 20.9437 9.69916 21.9982 9.69916Z" fill="url(#paint0_linear_507_715)"/>
<path d="M28.1578 49.8657C39.2641 49.8657 38.5707 45.0495 38.5707 45.0495L38.5582 40.0596H27.9596V38.5614H42.7681C42.7681 38.5614 49.875 39.3675 49.875 28.1609C49.875 16.9544 43.672 17.3518 43.672 17.3518H39.9698V22.5522C39.9698 22.5522 40.1693 28.7553 33.8656 28.7553H23.3538C23.3538 28.7553 17.4477 28.6597 17.4477 34.4631V44.0588C17.4477 44.0588 16.551 49.8657 28.1578 49.8657ZM34.0019 46.5103C32.9473 46.5103 32.0951 45.6581 32.0951 44.6037C32.0951 43.5491 32.9473 42.6969 34.0019 42.6969C35.0563 42.6969 35.9087 43.5491 35.9087 44.6037C35.9087 45.6581 35.0563 46.5103 34.0019 46.5103Z" fill="url(#paint1_linear_507_715)"/>
</g>
<defs>
<linearGradient id="paint0_linear_507_715" x1="10.3294" y1="10.2585" x2="32.0103" y2="31.7231" gradientUnits="userSpaceOnUse">
<stop stop-color="#387EB8"/>
<stop offset="1" stop-color="#366994"/>
</linearGradient>
<linearGradient id="paint1_linear_507_715" x1="23.6373" y1="24.0417" x2="46.9202" y2="46.0516" gradientUnits="userSpaceOnUse">
<stop stop-color="#FFE052"/>
<stop offset="1" stop-color="#FFC331"/>
</linearGradient>
<clipPath id="clip0_507_715">
<rect width="56" height="56" fill="white"/>
</clipPath>
</defs>
</svg>
