<svg width="56" height="56" viewBox="0 0 56 56" fill="none" xmlns="http://www.w3.org/2000/svg">
<g clip-path="url(#clip0_507_618)">
<path d="M42.875 0H13.125C5.87626 0 0 5.87626 0 13.125V42.875C0 50.1237 5.87626 56 13.125 56H42.875C50.1237 56 56 50.1237 56 42.875V13.125C56 5.87626 50.1237 0 42.875 0Z" fill="white"/>
<path d="M39.5883 19.7783L36.6553 22.7115C41.4549 27.5111 41.4549 35.2439 36.6553 39.9547C31.8555 44.7543 24.1227 44.7543 19.412 39.9547C14.6123 35.1551 14.6123 27.4223 19.412 22.7115L27.0115 15.112L28.0781 14.0454V8.3125L16.6122 19.7783C10.2126 26.1778 10.2126 36.4884 16.6122 42.8879C23.0116 49.2874 33.3222 49.2874 39.5883 42.8879C45.9878 36.4438 45.9878 26.1778 39.5883 19.7783Z" fill="#EE4C2C"/>
<path d="M33.8559 19.0672C35.0339 19.0672 35.9889 18.1121 35.9889 16.934C35.9889 15.7559 35.0339 14.8008 33.8559 14.8008C32.6777 14.8008 31.7227 15.7559 31.7227 16.934C31.7227 18.1121 32.6777 19.0672 33.8559 19.0672Z" fill="#EE4C2C"/>
</g>
<defs>
<clipPath id="clip0_507_618">
<rect width="56" height="56" fill="white"/>
</clipPath>
</defs>
</svg>
