<svg width="56" height="56" viewBox="0 0 56 56" fill="none" xmlns="http://www.w3.org/2000/svg">
<g clip-path="url(#clip0_507_679)">
<path d="M0 0H56V56H0" fill="white"/>
<path d="M28.2197 51.1875C25.7405 51.1875 23.8447 50.3854 22.5322 48.7812C19.8343 47.8333 18.303 47.0312 17.9385 46.375C15.3135 45.6458 13.5635 42.8021 12.6885 37.8438C9.91762 34.0521 10.428 30.6979 14.2197 27.7812C14.001 24.4271 15.3135 22.0938 18.1572 20.7812C16.6989 20.2708 16.0426 19.7604 16.1885 19.25C15.2405 19.1042 14.7301 18.5208 14.6572 17.5C13.6364 17.1354 13.2718 16.5521 13.5635 15.75C12.8343 15.2396 12.6155 14.6562 12.9072 14C12.4697 13.4167 12.4697 12.7604 12.9072 12.0312C12.6885 11.8125 12.4697 9.84375 14.4385 10.0625C14.876 9.47917 15.5322 9.33333 16.4072 9.625C16.626 8.96875 17.7197 8.53125 18.376 9.1875C19.178 8.60417 20.053 8.60417 21.001 9.1875C22.3135 8.75 23.2614 8.89583 23.8447 9.625C24.9385 9.625 26.4697 9.40625 28.2197 13.7812" fill="black"/>
<path d="M13.7812 11.5938L14.875 13.125L13.7812 13.5625L15.5312 14.875H14.4375L16.4062 16.1875H15.0938L17.0625 17.5H15.75L17.7188 18.375L17.0625 18.8125L19.0312 19.25L18.375 19.9062C21.9479 20.6354 24.1354 19.9792 24.9375 17.9375C23.4792 16.3333 20.9271 14.5833 17.2812 12.6875C19.9792 13.4896 22.6771 14.9479 25.375 17.0625C27.6354 15.8229 27.3438 13.7083 24.5 10.7188V11.5938L22.75 10.0625V11.1562L20.7812 9.84375V10.7188L18.8125 9.84375L19.25 10.7188L17.2812 10.0625L17.9375 10.9375L15.3125 10.5L16.1875 11.375" fill="#6CC04A"/>
<path d="M15.0947 29.0937C10.9384 31.0624 13.1259 36.5312 14.4384 37.1874C15.7509 37.8437 17.7197 27.9999 15.0947 29.0937ZM22.7509 21.6562C24.2822 22.0937 16.1884 28.6562 15.9697 27.3437C15.8967 23.1874 18.1572 21.2916 22.7509 21.6562ZM21.6572 35.8749C15.3134 35.2187 17.5009 26.2499 22.9697 26.2499C28.4384 26.2499 27.7822 35.8749 21.6572 35.8749ZM15.9697 37.6249C14.0009 38.9374 16.6259 47.0312 21.6572 45.2812C23.6259 43.7499 19.9072 35.8749 15.9697 37.6249Z" fill="#C51A4A"/>
<path d="M27.7822 51.1875C30.2614 51.1875 32.1572 50.3854 33.4697 48.7812C36.1677 47.8333 37.6989 47.0312 38.0635 46.375C40.6885 45.6458 42.4385 42.8021 43.3135 37.8438C46.0843 34.0521 45.5739 30.6979 41.7822 27.7812C42.001 24.4271 40.6885 22.0938 37.8447 20.7812C39.3031 20.2708 39.9593 19.7604 39.8135 19.25C40.7614 19.1042 41.2718 18.5208 41.3447 17.5C42.3656 17.1354 42.7302 16.5521 42.4385 15.75C43.1677 15.2396 43.3864 14.6562 43.0947 14C43.5322 13.4167 43.5322 12.7604 43.0947 12.0312C43.3135 11.8125 43.5322 9.84375 41.5635 10.0625C41.126 9.47917 40.4697 9.33333 39.5947 9.625C39.376 8.96875 38.2822 8.53125 37.626 9.1875C36.8239 8.60417 35.9489 8.60417 35.001 9.1875C33.6885 8.75 32.7406 8.89583 32.1572 9.625C31.0635 9.625 29.5322 9.40625 27.7822 13.7812" fill="black"/>
<path d="M42.2207 11.5938L41.127 13.125L42.2207 13.5625L40.4707 14.875H41.5645L39.5957 16.1875H40.9082L38.9395 17.5H40.252L38.2832 18.375L38.9395 18.8125L36.9707 19.25L37.627 19.9062C34.054 20.6354 31.8665 19.9792 31.0645 17.9375C32.5228 16.3333 35.0749 14.5833 38.7207 12.6875C36.0228 13.4896 33.3249 14.9479 30.627 17.0625C28.3665 15.8229 28.6582 13.7083 31.502 10.7188V11.5938L33.252 10.0625V11.1562L35.2207 9.84375V10.7188L37.1895 9.84375L36.752 10.7188L38.7207 10.0625L38.0645 10.9375L40.6895 10.5L39.8145 11.375" fill="#6CC04A"/>
<path d="M40.9073 29.0937C45.0636 31.0624 42.8761 36.5312 41.5636 37.1874C40.2511 37.8437 38.2823 27.9999 40.9073 29.0937ZM33.2511 21.6562C31.7198 22.0937 39.8136 28.6562 40.0323 27.3437C40.1052 23.1874 37.8448 21.2916 33.2511 21.6562ZM34.3448 35.8749C40.6886 35.2187 38.5011 26.2499 33.0323 26.2499C27.5636 26.2499 28.2198 35.8749 34.3448 35.8749ZM40.0323 37.6249C42.0011 38.9374 39.3761 47.0312 34.3448 45.2812C32.3761 43.7499 36.0948 35.8749 40.0323 37.6249Z" fill="#C51A4A"/>
<path d="M23.1875 47.25C26.9062 52.5 33.0312 48.3437 32.8125 46.8125C32.5938 45.2812 24.2812 44.8437 23.1875 47.25ZM33.0312 39.5937C33.0312 33.4687 23.1875 33.6875 23.1875 39.5937C23.1875 45.5 32.5938 45.7187 33.0312 39.5937ZM23.625 23.1875C24.7188 19.9062 31.0625 19.9062 32.375 22.9687C33.6875 26.0312 24.2812 27.125 23.625 23.1875Z" fill="#C51A4A"/>
</g>
<defs>
<clipPath id="clip0_507_679">
<rect width="56" height="56" fill="white"/>
</clipPath>
</defs>
</svg>
