<svg width="56" height="56" viewBox="0 0 56 56" fill="none" xmlns="http://www.w3.org/2000/svg">
<g clip-path="url(#clip0_507_679)">
<path d="M42.875 0H13.125C5.87626 0 0 5.87626 0 13.125V42.875C0 50.1237 5.87626 56 13.125 56H42.875C50.1237 56 56 50.1237 56 42.875V13.125C56 5.87626 50.1237 0 42.875 0Z" fill="white"/>
<path d="M28.2187 51.1875C25.7396 51.1875 23.8437 50.3854 22.5312 48.7812C19.8333 47.8333 18.3021 47.0312 17.9375 46.375C15.3125 45.6458 13.5625 42.8021 12.6875 37.8438C9.91664 34.0521 10.4271 30.6979 14.2187 27.7812C14 24.4271 15.3125 22.0938 18.1562 20.7812C16.6979 20.2708 16.0416 19.7604 16.1875 19.25C15.2396 19.1042 14.7291 18.5208 14.6562 17.5C13.6354 17.1354 13.2708 16.5521 13.5625 15.75C12.8333 15.2396 12.6146 14.6562 12.9062 14C12.4687 13.4167 12.4687 12.7604 12.9062 12.0312C12.6875 11.8125 12.4687 9.84375 14.4375 10.0625C14.875 9.47917 15.5312 9.33333 16.4062 9.625C16.625 8.96875 17.7187 8.53125 18.375 9.1875C19.1771 8.60417 20.0521 8.60417 21 9.1875C22.3125 8.75 23.2604 8.89583 23.8437 9.625C24.9375 9.625 26.4687 9.40625 28.2187 13.7812" fill="black"/>
<path d="M13.7812 11.5938L14.875 13.125L13.7812 13.5625L15.5312 14.875H14.4375L16.4062 16.1875H15.0938L17.0625 17.5H15.75L17.7188 18.375L17.0625 18.8125L19.0312 19.25L18.375 19.9062C21.9479 20.6354 24.1354 19.9792 24.9375 17.9375C23.4792 16.3333 20.9271 14.5833 17.2812 12.6875C19.9792 13.4896 22.6771 14.9479 25.375 17.0625C27.6354 15.8229 27.3438 13.7083 24.5 10.7188V11.5938L22.75 10.0625V11.1562L20.7812 9.84375V10.7188L18.8125 9.84375L19.25 10.7188L17.2812 10.0625L17.9375 10.9375L15.3125 10.5L16.1875 11.375" fill="#6CC04A"/>
<path d="M15.0937 29.0939C10.9374 31.0627 13.1249 36.5314 14.4374 37.1877C15.7499 37.8439 17.7187 28.0002 15.0937 29.0939ZM22.7499 21.6564C24.2812 22.0939 16.1874 28.6564 15.9687 27.3439C15.8958 23.1877 18.1562 21.2918 22.7499 21.6564ZM21.6562 35.8752C15.3124 35.2189 17.4999 26.2502 22.9687 26.2502C28.4374 26.2502 27.7812 35.8752 21.6562 35.8752ZM15.9687 37.6252C13.9999 38.9377 16.6249 47.0314 21.6562 45.2814C23.6249 43.7502 19.9062 35.8752 15.9687 37.6252Z" fill="#C51A4A"/>
<path d="M27.7813 51.1875C30.2604 51.1875 32.1563 50.3854 33.4688 48.7812C36.1667 47.8333 37.6979 47.0312 38.0625 46.375C40.6875 45.6458 42.4375 42.8021 43.3125 37.8438C46.0834 34.0521 45.5729 30.6979 41.7813 27.7812C42 24.4271 40.6875 22.0938 37.8438 20.7812C39.3021 20.2708 39.9584 19.7604 39.8125 19.25C40.7604 19.1042 41.2709 18.5208 41.3438 17.5C42.3646 17.1354 42.7292 16.5521 42.4375 15.75C43.1667 15.2396 43.3854 14.6562 43.0938 14C43.5313 13.4167 43.5313 12.7604 43.0938 12.0312C43.3125 11.8125 43.5313 9.84375 41.5625 10.0625C41.125 9.47917 40.4688 9.33333 39.5938 9.625C39.375 8.96875 38.2813 8.53125 37.625 9.1875C36.8229 8.60417 35.9479 8.60417 35 9.1875C33.6875 8.75 32.7396 8.89583 32.1563 9.625C31.0625 9.625 29.5313 9.40625 27.7813 13.7812" fill="black"/>
<path d="M42.2188 11.5938L41.125 13.125L42.2188 13.5625L40.4688 14.875H41.5625L39.5938 16.1875H40.9062L38.9375 17.5H40.25L38.2812 18.375L38.9375 18.8125L36.9688 19.25L37.625 19.9062C34.0521 20.6354 31.8646 19.9792 31.0625 17.9375C32.5208 16.3333 35.0729 14.5833 38.7188 12.6875C36.0208 13.4896 33.3229 14.9479 30.625 17.0625C28.3646 15.8229 28.6562 13.7083 31.5 10.7188V11.5938L33.25 10.0625V11.1562L35.2188 9.84375V10.7188L37.1875 9.84375L36.75 10.7188L38.7188 10.0625L38.0625 10.9375L40.6875 10.5L39.8125 11.375" fill="#6CC04A"/>
<path d="M40.9063 29.0939C45.0626 31.0627 42.8751 36.5314 41.5626 37.1877C40.2501 37.8439 38.2813 28.0002 40.9063 29.0939ZM33.2501 21.6564C31.7188 22.0939 39.8126 28.6564 40.0313 27.3439C40.1042 23.1877 37.8438 21.2918 33.2501 21.6564ZM34.3438 35.8752C40.6876 35.2189 38.5001 26.2502 33.0313 26.2502C27.5626 26.2502 28.2188 35.8752 34.3438 35.8752ZM40.0313 37.6252C42.0001 38.9377 39.3751 47.0314 34.3438 45.2814C32.3751 43.7502 36.0938 35.8752 40.0313 37.6252Z" fill="#C51A4A"/>
<path d="M23.1875 47.2497C26.9062 52.4997 33.0312 48.3435 32.8125 46.8122C32.5938 45.281 24.2812 44.8435 23.1875 47.2497ZM33.0312 39.5935C33.0312 33.4685 23.1875 33.6872 23.1875 39.5935C23.1875 45.4997 32.5938 45.7185 33.0312 39.5935ZM23.625 23.1872C24.7188 19.906 31.0625 19.906 32.375 22.9685C33.6875 26.031 24.2812 27.1247 23.625 23.1872Z" fill="#C51A4A"/>
</g>
<defs>
<clipPath id="clip0_507_679">
<rect width="56" height="56" fill="white"/>
</clipPath>
</defs>
</svg>
