<svg width="56" height="56" viewBox="0 0 56 56" fill="none" xmlns="http://www.w3.org/2000/svg">
<path d="M7.00233 26.1637C5.719 26.012 5.62333 24.29 3.976 24.4417C3.178 24.4417 2.436 24.7753 2.436 25.508C2.436 26.6117 4.13933 26.7143 5.166 26.992C6.916 27.524 8.61 27.8857 8.61 29.7897C8.61 32.2047 6.71767 33.0423 4.214 33.0423C2.121 33.0423 0 32.3003 0 30.3777C0 29.8457 0.513333 29.428 1.008 29.428C1.63567 29.428 1.855 29.694 2.07433 30.1303C2.55967 30.9867 3.101 31.444 4.452 31.444C5.30833 31.444 6.18333 31.1197 6.18333 30.3777C6.18333 29.323 5.11 29.0943 3.997 28.8377C2.02767 28.2847 0.333667 28 0.133 25.8113C-0.077 22.0827 7.69767 21.9403 8.14333 25.2117C8.134 25.802 7.58333 26.1637 7.00233 26.1637ZM16.2493 22.89C18.9817 22.89 20.531 25.1743 20.531 27.9907C20.531 30.8163 19.0283 33.089 16.2493 33.089C14.7093 33.089 13.748 32.4333 13.0527 31.4253V35.154C13.0527 36.2763 12.691 36.82 11.8743 36.82C10.8757 36.82 10.6937 36.183 10.6937 35.154V24.3087C10.6937 23.4243 11.0647 22.8807 11.8743 22.8807C12.635 22.8807 13.0527 23.4803 13.0527 24.3087V24.612C13.825 23.6413 14.7093 22.89 16.2493 22.89ZM15.603 31.15C17.2013 31.15 17.9153 29.6753 17.9153 27.9533C17.9153 26.2687 17.192 24.7567 15.603 24.7567C13.937 24.7567 13.167 26.1263 13.167 27.9533C13.167 29.7313 13.9487 31.15 15.603 31.15ZM22.386 25.5547C22.386 23.5947 24.6423 22.89 26.8287 22.89C29.9017 22.89 31.1687 23.786 31.1687 26.754V29.6077C31.1687 30.2843 31.5863 31.6353 31.5863 32.0437C31.5863 32.662 31.017 33.0517 30.408 33.0517C29.7313 33.0517 29.2273 32.2537 28.8657 31.682C27.867 32.48 26.81 33.0517 25.193 33.0517C23.4057 33.0517 21.9963 31.9947 21.9963 30.254C21.9963 28.714 23.1 27.8297 24.4323 27.524C24.4323 27.5333 28.714 26.516 28.714 26.5067C28.714 25.193 28.2473 24.612 26.8683 24.612C25.6503 24.612 25.032 24.9457 24.556 25.6783C24.1757 26.2313 24.2223 26.5627 23.4897 26.5627C22.8993 26.5533 22.386 26.1543 22.386 25.5547ZM26.04 31.444C27.9137 31.444 28.7047 30.4547 28.7047 28.4853V28.0653C28.2007 28.238 26.1637 28.742 25.613 28.8283C25.0227 28.9427 24.4323 29.379 24.4323 30.0743C24.451 30.835 25.2303 31.444 26.04 31.444ZM39.8067 19.1707C42.4527 19.1707 45.3157 20.7503 45.3157 23.261C45.3206 23.4125 45.2954 23.5635 45.2415 23.7052C45.1876 23.8468 45.1061 23.9764 45.0016 24.0862C44.8972 24.1961 44.7719 24.2841 44.6332 24.3451C44.4944 24.4061 44.3449 24.439 44.1933 24.4417C43.3277 24.4417 43.204 23.975 42.8237 23.3193C42.1867 22.148 41.433 21.3687 39.7973 21.3687C37.2657 21.35 36.134 23.5177 36.134 26.2197C36.134 28.9427 37.0767 30.9027 39.6923 30.9027C41.433 30.9027 42.3943 29.8923 42.889 28.5903C43.0897 27.9907 43.4513 27.4097 44.2027 27.4097C44.793 27.4097 45.3833 28.0093 45.3833 28.6557C45.3833 31.3203 42.6603 33.166 39.865 33.166C36.8013 33.166 35.07 31.871 34.118 29.722C33.5985 28.6087 33.3384 27.392 33.3573 26.1637C33.3363 22.0337 35.7443 19.1707 39.8067 19.1707ZM54.9337 22.89C55.6103 22.89 56 23.3287 56 24.0123C56 24.29 55.7807 24.8407 55.6967 25.137L52.4417 33.6887C51.7183 35.5437 51.177 36.8293 48.713 36.8293C47.5417 36.8293 46.5243 36.7243 46.5243 35.707C46.5243 35.1167 46.97 34.8203 47.5907 34.8203C47.7027 34.8203 47.894 34.8787 48.0083 34.8787C48.188 34.8787 48.3117 34.9347 48.426 34.9347C49.6627 34.9347 49.8353 33.67 50.2717 32.795L47.1333 25.0227C46.9513 24.6027 46.8277 24.318 46.8277 24.0707C46.8277 23.3847 47.362 22.89 48.0737 22.89C48.874 22.89 49.189 23.5177 49.3873 24.2037L51.4617 30.3683L53.536 24.6703C53.8487 23.786 53.879 22.89 54.9337 22.89Z" fill="black"/>
</svg>
