<svg width="56" height="56" viewBox="0 0 56 56" fill="none" xmlns="http://www.w3.org/2000/svg">
<g clip-path="url(#clip0_509_753)">
<path d="M42.875 0H13.125C5.87626 0 0 5.87626 0 13.125V42.875C0 50.1237 5.87626 56 13.125 56H42.875C50.1237 56 56 50.1237 56 42.875V13.125C56 5.87626 50.1237 0 42.875 0Z" fill="white"/>
<path d="M9.25208 26.3362C8.10625 26.1987 8.02083 24.6385 6.55 24.7759C5.8375 24.7759 5.175 25.0782 5.175 25.7421C5.175 26.7421 6.69583 26.8351 7.6125 27.0867C9.175 27.5687 10.6875 27.8964 10.6875 29.6216C10.6875 31.8097 8.99792 32.5687 6.7625 32.5687C4.89375 32.5687 3 31.8964 3 30.1543C3 29.6723 3.45833 29.2939 3.9 29.2939C4.46042 29.2939 4.65625 29.5349 4.85208 29.9302C5.28542 30.7061 5.76875 31.1205 6.975 31.1205C7.73958 31.1205 8.52083 30.8266 8.52083 30.1543C8.52083 29.1987 7.5625 28.9915 6.56875 28.759C4.81042 28.2579 3.29792 28 3.11875 26.0169C2.93125 22.6385 9.87292 22.5095 10.2708 25.4736C10.2625 26.0085 9.77083 26.3362 9.25208 26.3362ZM17.5083 23.37C19.9479 23.37 21.3312 25.4397 21.3312 27.9915C21.3312 30.5518 19.9896 32.611 17.5083 32.611C16.1333 32.611 15.275 32.0169 14.6542 31.1036V34.482C14.6542 35.4989 14.3313 35.9915 13.6021 35.9915C12.7104 35.9915 12.5479 35.4144 12.5479 34.482V24.6554C12.5479 23.8541 12.8792 23.3615 13.6021 23.3615C14.2813 23.3615 14.6542 23.9049 14.6542 24.6554V24.9302C15.3437 24.0507 16.1333 23.37 17.5083 23.37ZM16.9312 30.8541C18.3583 30.8541 18.9958 29.518 18.9958 27.9577C18.9958 26.4313 18.35 25.0613 16.9312 25.0613C15.4437 25.0613 14.7562 26.3023 14.7562 27.9577C14.7562 29.5687 15.4542 30.8541 16.9312 30.8541ZM22.9875 25.7844C22.9875 24.0085 25.0021 23.37 26.9542 23.37C29.6979 23.37 30.8292 24.1818 30.8292 26.871V29.4567C30.8292 30.0698 31.2021 31.2939 31.2021 31.6638C31.2021 32.2241 30.6937 32.5772 30.15 32.5772C29.5458 32.5772 29.0958 31.8541 28.7729 31.3362C27.8812 32.0592 26.9375 32.5772 25.4937 32.5772C23.8979 32.5772 22.6396 31.6194 22.6396 30.0423C22.6396 28.6469 23.625 27.8457 24.8146 27.5687C24.8146 27.5772 28.6375 26.6554 28.6375 26.6469C28.6375 25.4567 28.2208 24.9302 26.9896 24.9302C25.9021 24.9302 25.35 25.2326 24.925 25.8964C24.5854 26.3975 24.6271 26.6977 23.9729 26.6977C23.4458 26.6892 22.9875 26.3277 22.9875 25.7844ZM26.25 31.1205C27.9229 31.1205 28.6292 30.2241 28.6292 28.4397V28.0592C28.1792 28.2156 26.3604 28.6723 25.8687 28.7505C25.3417 28.8541 24.8146 29.2495 24.8146 29.8795C24.8312 30.5687 25.5271 31.1205 26.25 31.1205ZM38.5417 20C40.9042 20 43.4604 21.4313 43.4604 23.7061C43.4649 23.8434 43.4424 23.9802 43.3942 24.1086C43.3461 24.2369 43.2733 24.3543 43.18 24.4539C43.0868 24.5534 42.9749 24.6331 42.851 24.6884C42.7271 24.7437 42.5937 24.7735 42.4583 24.7759C41.6854 24.7759 41.575 24.3531 41.2354 23.759C40.6667 22.6977 39.9937 21.9915 38.5333 21.9915C36.2729 21.9746 35.2625 23.9387 35.2625 26.3869C35.2625 28.8541 36.1042 30.63 38.4396 30.63C39.9937 30.63 40.8521 29.7146 41.2937 28.5349C41.4729 27.9915 41.7958 27.4651 42.4667 27.4651C42.9937 27.4651 43.5208 28.0085 43.5208 28.5941C43.5208 31.0085 41.0896 32.6808 38.5937 32.6808C35.8583 32.6808 34.3125 31.5074 33.4625 29.5603C32.9987 28.5515 32.7665 27.4492 32.7833 26.3362C32.7646 22.5941 34.9146 20 38.5417 20ZM52.0479 23.37C52.6521 23.37 53 23.7674 53 24.3869C53 24.6385 52.8042 25.1374 52.7292 25.4059L49.8229 33.1543C49.1771 34.8351 48.6937 36 46.4938 36C45.4479 36 44.5396 35.9049 44.5396 34.9831C44.5396 34.4482 44.9375 34.1797 45.4917 34.1797C45.5917 34.1797 45.7625 34.2326 45.8646 34.2326C46.025 34.2326 46.1354 34.2833 46.2375 34.2833C47.3417 34.2833 47.4958 33.1374 47.8854 32.3446L45.0833 25.3023C44.9208 24.9218 44.8104 24.6638 44.8104 24.4397C44.8104 23.8182 45.2875 23.37 45.9229 23.37C46.6375 23.37 46.9187 23.9387 47.0958 24.5603L48.9479 30.1459L50.8 24.9831C51.0792 24.1818 51.1062 23.37 52.0479 23.37Z" fill="black"/>
</g>
<defs>
<clipPath id="clip0_509_753">
<rect width="56" height="56" fill="white"/>
</clipPath>
</defs>
</svg>
