<svg width="56" height="56" viewBox="0 0 56 56" fill="none" xmlns="http://www.w3.org/2000/svg">
<g clip-path="url(#clip0_507_612)">
<path d="M42.875 0H13.125C5.87626 0 0 5.87626 0 13.125V42.875C0 50.1237 5.87626 56 13.125 56H42.875C50.1237 56 56 50.1237 56 42.875V13.125C56 5.87626 50.1237 0 42.875 0Z" fill="white"/>
<path d="M29.8497 40.7163C29.8287 40.4536 29.8161 40.2829 29.8161 40.2829C29.8161 40.2829 29.0072 34.9135 28.0444 33.3112C27.892 33.0572 28.061 32.0141 28.486 30.4689C28.7345 30.892 29.7837 32.7018 29.9943 33.285C30.2314 33.9443 30.2813 34.1331 30.2813 34.1331C30.2813 34.1331 29.706 31.2183 28.7619 29.5174C28.9918 28.7595 29.2364 28.006 29.4956 27.2573C29.8535 27.875 30.7095 29.3708 30.8982 29.8897C30.9363 29.9962 30.9683 30.0867 30.9973 30.1698L31.0249 30.0203C30.8086 29.1172 30.384 27.5457 29.8028 26.3848C31.0924 19.7755 35.4908 10.9415 40 7H10.5846C8.61314 7 7 8.58872 7 10.5298V42.4709C7 44.4118 8.61314 46 10.5846 46H29.9585C29.8188 44.3351 29.7721 42.4931 29.8499 40.7163" fill="#0F80CC"/>
<path d="M28.5161 30.3621C28.7653 30.7834 29.8183 32.5869 30.0297 33.1682C30.2678 33.8252 30.3179 34.0133 30.3179 34.0133C30.3179 34.0133 29.7404 31.1087 28.7928 29.4136C29.0005 28.7283 29.2486 27.9709 29.5294 27.1612C29.8576 27.7243 30.6035 29.0176 30.8731 29.6304L30.9035 29.2845C30.6646 28.3871 30.3019 27.2123 29.8376 26.2917C31.0296 20.2275 34.8664 12.2868 39 8H10.548C9.87244 8.00086 9.2248 8.26363 8.74714 8.73067C8.26948 9.19771 8.00079 9.83088 8 10.4913V40C14.4435 37.5823 22.2132 35.3723 28.9003 35.467C28.6518 34.5311 28.3696 33.6848 28.0725 33.1943C27.9197 32.9412 28.0892 31.902 28.5161 30.3621Z" fill="url(#paint0_linear_507_612)"/>
<path d="M46.938 5.99928C44.9163 4.23632 42.4685 4.94465 40.0527 7.04083C39.6941 7.35254 39.3363 7.69792 38.9804 8.06704C34.8477 12.354 31.0118 20.2946 29.8198 26.359C30.2841 27.2795 30.6467 28.4544 30.8856 29.3518C30.9468 29.582 31.002 29.7981 31.0462 29.9819C31.151 30.4171 31.2074 30.699 31.2074 30.699C31.2074 30.699 31.1703 30.562 31.0183 30.131C30.9894 30.0483 30.9571 29.958 30.9188 29.8518C30.9026 29.8078 30.88 29.7545 30.8552 29.6977C30.5855 29.0849 29.8397 27.7915 29.5117 27.2285C29.2516 27.9746 29.006 28.7255 28.7753 29.4808C29.7227 31.1759 30.3 34.0808 30.3 34.0808C30.3 34.0808 30.2499 33.8925 30.012 33.2354C29.8005 32.6542 28.748 30.8507 28.4984 30.429C28.072 31.9689 27.9023 33.0084 28.0553 33.2616C28.3519 33.7521 28.6348 34.5984 28.8828 35.5343C29.4435 37.6426 29.8332 40.2094 29.8332 40.2094C29.8332 40.2094 29.8458 40.3796 29.8669 40.6412C29.789 42.4118 29.8359 44.2475 29.9759 45.9069C30.1618 48.1033 30.5113 49.9902 30.9571 51L31.2598 50.8386C30.6052 48.849 30.3394 46.2418 30.4559 43.2348C30.6318 38.6385 31.7136 33.0959 33.7122 27.3188C37.0888 18.5977 41.7736 11.6006 46.0614 8.25889C42.1534 11.71 36.8641 22.8809 35.2809 27.0179C33.5079 31.6501 32.2517 35.9973 31.4945 40.1621C32.8008 36.2577 37.0247 34.5793 37.0247 34.5793C37.0247 34.5793 39.0963 32.0809 41.5175 28.5116C40.0672 28.8351 37.6858 29.3886 36.8882 29.7164C35.7117 30.199 35.3946 30.3638 35.3946 30.3638C35.3946 30.3638 39.2059 28.0942 42.4756 27.0667C46.9725 20.1413 51.8716 10.3029 46.938 5.99928Z" fill="#003B57"/>
</g>
<defs>
<linearGradient id="paint0_linear_507_612" x1="25.8739" y1="8.65399" x2="25.8739" y2="38.2206" gradientUnits="userSpaceOnUse">
<stop stop-color="#97D9F6"/>
<stop offset="0.92" stop-color="#0F80CC"/>
<stop offset="1" stop-color="#0F80CC"/>
</linearGradient>
<clipPath id="clip0_507_612">
<rect width="56" height="56" fill="white"/>
</clipPath>
</defs>
</svg>
