<svg width="56" height="56" viewBox="0 0 56 56" fill="none" xmlns="http://www.w3.org/2000/svg">
<path d="M30.1704 42.7879C30.1463 42.4817 30.1319 42.2826 30.1319 42.2826C30.1319 42.2826 29.2033 36.0229 28.0982 34.155C27.9232 33.8588 28.1172 32.6427 28.605 30.8413C28.8903 31.3346 30.0947 33.4445 30.3364 34.1243C30.6086 34.893 30.6659 35.1131 30.6659 35.1131C30.6659 35.1131 30.0055 31.715 28.9218 29.7321C29.1856 28.8485 29.4664 27.97 29.764 27.0972C30.1748 27.8173 31.1574 29.5612 31.374 30.166C31.4177 30.2903 31.4545 30.3957 31.4877 30.4926L31.5194 30.3183C31.2712 29.2655 30.7838 27.4334 30.1166 26.08C31.5969 18.3748 36.6458 8.07602 41.8219 3.48096H8.05609C5.79313 3.48096 3.94141 5.33311 3.94141 7.59608V44.8335C3.94141 47.0962 5.79313 48.9477 8.05609 48.9477H30.2953C30.135 47.0067 30.0814 44.8593 30.1706 42.7879" fill="#0F80CC"/>
<path d="M28.6058 30.8419C28.8909 31.3348 30.0951 33.4446 30.3368 34.1245C30.6092 34.8931 30.6664 35.1133 30.6664 35.1133C30.6664 35.1133 30.006 31.7153 28.9222 29.7323C29.1598 28.9306 29.4435 28.0445 29.7646 27.0974C30.14 27.7561 30.993 29.2691 31.3014 29.9859L31.3362 29.5813C31.063 28.5315 30.6482 27.1572 30.1171 26.0802C31.4804 18.986 35.8684 9.69675 40.5957 4.68182H8.05661C7.28399 4.68283 6.54332 4.99023 5.99704 5.53659C5.45076 6.08295 5.14348 6.82366 5.14258 7.59627V42.1167C12.5116 39.2884 21.3975 36.7031 29.0452 36.8138C28.7611 35.719 28.4383 34.729 28.0985 34.1551C27.9237 33.859 28.1176 32.6433 28.6058 30.8419Z" fill="url(#paint0_linear_507_612)"/>
<path d="M49.6983 2.26275C47.3856 0.200374 44.5856 1.029 41.8222 3.48119C41.412 3.84584 41.0027 4.24987 40.5956 4.68169C35.8682 9.69675 31.4803 18.986 30.1168 26.0802C30.648 27.1572 31.0627 28.5316 31.3359 29.5813C31.4059 29.8506 31.4692 30.1035 31.5197 30.3185C31.6396 30.8276 31.7041 31.1574 31.7041 31.1574C31.7041 31.1574 31.6617 30.9971 31.4878 30.4929C31.4547 30.3962 31.4178 30.2905 31.374 30.1663C31.3554 30.1149 31.3296 30.0525 31.3012 29.986C30.9927 29.2692 30.1396 27.7561 29.7644 27.0974C29.4668 27.9703 29.186 28.8487 28.922 29.7323C30.0057 31.7153 30.6661 35.1135 30.6661 35.1135C30.6661 35.1135 30.6088 34.8932 30.3367 34.1246C30.0947 33.4447 28.8908 31.3348 28.6053 30.8416C28.1175 32.643 27.9234 33.859 28.0984 34.1552C28.4377 34.729 28.7612 35.719 29.045 36.8139C29.6863 39.2803 30.1322 42.2831 30.1322 42.2831C30.1322 42.2831 30.1466 42.4821 30.1707 42.7882C30.0816 44.8595 30.1352 47.007 30.2953 48.9482C30.508 51.5176 30.9078 53.725 31.4177 54.9062L31.764 54.7175C31.0153 52.39 30.7112 49.3399 30.8444 45.8222C31.0457 40.4453 32.2831 33.9614 34.5693 27.2031C38.4317 17.0008 43.7907 8.8154 48.6955 4.90612C44.2251 8.94337 38.1747 22.0115 36.3637 26.8511C34.3357 32.27 32.8987 37.3555 32.0324 42.2277C33.5267 37.6602 38.3585 35.6967 38.3585 35.6967C38.3585 35.6967 40.7282 32.774 43.4978 28.5985C41.8388 28.9769 39.1147 29.6244 38.2023 30.0079C36.8565 30.5725 36.4938 30.7652 36.4938 30.7652C36.4938 30.7652 40.8535 28.1102 44.5937 26.9082C49.7376 18.8066 55.3418 7.29728 49.6983 2.26275Z" fill="#003B57"/>
<defs>
<linearGradient id="paint0_linear_507_612" x1="25.5841" y1="5.44688" x2="25.5841" y2="40.0351" gradientUnits="userSpaceOnUse">
<stop stop-color="#97D9F6"/>
<stop offset="0.92" stop-color="#0F80CC"/>
<stop offset="1" stop-color="#0F80CC"/>
</linearGradient>
</defs>
</svg>
