<svg width="56" height="56" viewBox="0 0 56 56" fill="none" xmlns="http://www.w3.org/2000/svg">
<g clip-path="url(#clip0_507_604)">
<path d="M42.875 0H13.125C5.87626 0 0 5.87626 0 13.125V42.875C0 50.1237 5.87626 56 13.125 56H42.875C50.1237 56 56 50.1237 56 42.875V13.125C56 5.87626 50.1237 0 42.875 0Z" fill="white"/>
<path d="M27.1749 50.0938L19.8238 45.6947V19.7553L8.75 26.3504L8.77691 16.5255L27.1749 5.6875V50.0938ZM28.8277 5.6875V50.0938L36.1797 45.6947V33.2021L41.7294 36.5083L41.6964 27.9635L36.1797 24.7161V19.7553L47.25 26.3504L47.2233 16.5255L28.8277 5.6875Z" fill="#FF6F00"/>
</g>
<defs>
<clipPath id="clip0_507_604">
<rect width="56" height="56" fill="white"/>
</clipPath>
</defs>
</svg>
