<svg width="24" height="24" viewBox="0 0 24 24" fill="none" xmlns="http://www.w3.org/2000/svg">
<path d="M21.6333 16.4122L16.2905 17.2631C16.0997 18.5116 15.0608 19.4476 13.817 19.4476H10.183C8.93924 19.4476 7.9017 18.5116 7.70954 17.2631L2.36677 16.4122L2.20281 16.3843C1.79291 16.3138 1.38301 16.1995 1 16.0014V21.7451C1 22.9789 1.96966 24 3.17246 24H20.825C22.0278 24 22.9974 22.9789 22.9974 21.7451L23 16C22.617 16.1981 22.1943 16.3257 21.7703 16.3829L21.6333 16.4122Z" fill="#0E53BE"/>
<path d="M21.5547 4.33532H17.9731V2.42136C17.9731 1.09199 17.145 0 16.129 0H7.87098C6.855 0 6.02694 1.09199 6.02694 2.42136V4.3368L2.44535 4.33532C1.09616 4.33532 0 5.63355 0 7.23146V11.457C0 12.6128 0.467262 13.7048 1.24272 14.3694C1.3492 14.4644 1.45694 14.543 1.56342 14.6232C1.81773 14.7967 2.08456 14.9243 2.35138 15.003C2.43156 15.0341 2.49795 15.0505 2.57813 15.0668H2.632L7.76322 16V14.5445C7.76322 14.497 7.76322 14.4496 7.777 14.4021C7.83087 12.8517 8.91325 11.6172 10.2224 11.6172H13.7764C15.0855 11.6172 16.1678 12.8517 16.2217 14.4021C16.2355 14.4496 16.2355 14.497 16.2355 14.5445V16L21.3667 15.0668C21.7413 15.003 22.1021 14.8605 22.4228 14.6395C22.5431 14.5608 22.6495 14.4807 22.7573 14.3858V14.3694C23.5327 13.6884 24 12.6128 24 11.457V7.23146C24 5.63355 22.9039 4.33532 21.5547 4.33532ZM7.36363 2.42136C7.36363 1.96292 7.59037 1.5831 7.87098 1.5831H16.129C16.4097 1.5831 16.6364 1.96292 16.6364 2.42136V2.75371H7.36363V2.42136Z" fill="#0E53BE"/>
<path d="M10.1606 18H13.8394C14.0884 18 14.3102 17.9104 14.4891 17.7482C14.6136 17.6401 14.7238 17.4965 14.8068 17.3343C14.9313 17.0994 15 16.8122 15 16.4878V13.5325C15 13.2081 14.9313 12.9192 14.8068 12.6674C14.7381 12.5407 14.6551 12.4326 14.5721 12.343C14.4891 12.2535 14.3918 12.1808 14.2959 12.1267C14.1571 12.0372 14.0054 12 13.8394 12H10.1606C9.9946 12 9.84288 12.0355 9.70413 12.1267C9.60687 12.1808 9.51091 12.2535 9.42792 12.343C9.34493 12.4326 9.26194 12.5407 9.19321 12.6674C9.06873 12.9192 9 13.2081 9 13.5325V16.4878C9 16.8122 9.06873 17.1011 9.19321 17.3343C9.29047 17.4965 9.38643 17.6232 9.51091 17.7482C9.69116 17.9088 9.91162 18 10.1606 18Z" fill="#0E53BE"/>
</svg>
