<svg width="24" height="24" viewBox="0 0 24 24" fill="none" xmlns="http://www.w3.org/2000/svg">
<path fill-rule="evenodd" clip-rule="evenodd" d="M13.2232 6.99175C13.7433 7.11771 14.2319 7.3239 14.6768 7.59411L15.4671 6.99074C15.777 6.75406 16.2067 6.7825 16.4819 7.05879L16.9431 7.51995C17.2184 7.79523 17.2469 8.22591 17.0112 8.53471L16.4078 9.32399C16.678 9.76889 16.8842 10.2575 17.0102 10.7776L17.9945 10.9096C18.3805 10.9614 18.665 11.2855 18.665 11.6755V12.3276C18.665 12.7167 18.3805 13.0417 17.9945 13.0935L17.0102 13.2256C16.8842 13.7447 16.678 14.2343 16.4078 14.6792L17.0112 15.4695C17.2479 15.7793 17.2194 16.209 16.9431 16.4842L16.4819 16.9454C16.2066 17.2207 15.7759 17.2491 15.4671 17.0134L14.6778 16.4101C14.2329 16.6803 13.7443 16.8865 13.2242 17.0124L13.0921 17.9967C13.0403 18.3827 12.7163 18.6671 12.3262 18.6671H11.674C11.285 18.6671 10.9599 18.3827 10.9081 17.9967L10.776 17.0124C10.257 16.8865 9.76733 16.6803 9.3224 16.4101L8.53208 17.0134C8.22225 17.2501 7.79254 17.2217 7.51728 16.9454L7.0561 16.4842C6.78081 16.2089 6.75236 15.7783 6.98804 15.4695L7.59144 14.6802C7.3202 14.2353 7.11502 13.7467 6.98905 13.2266L6.0047 13.0946C5.61868 13.0428 5.33426 12.7187 5.33426 12.3287V11.6765C5.33426 11.2875 5.61871 10.9624 6.0047 10.9106L6.98905 10.7786C7.11502 10.2585 7.32122 9.76991 7.59144 9.325L6.98804 8.53572C6.75135 8.22591 6.77979 7.79622 7.0561 7.52097L7.51728 7.05981C7.79257 6.78453 8.22327 6.75608 8.53208 6.99175L9.3224 7.59512C9.76733 7.32492 10.2559 7.11974 10.776 6.99277L10.9081 6.00846C10.9599 5.62245 11.284 5.33805 11.674 5.33805H12.3262C12.7153 5.33805 13.0403 5.62248 13.0921 6.00846L13.2232 6.99175ZM12.3252 22.9609C12.3252 23.1407 12.1799 23.2859 12.0001 23.2859C11.8203 23.2859 11.6751 23.1407 11.6751 22.9609V19.618C11.6751 19.4799 11.7614 19.3621 11.8823 19.3153H12.1169C12.2388 19.3621 12.3242 19.4809 12.3242 19.618L12.3252 22.9609ZM3.29434 17.4116C1.47499 17.4116 0 18.8865 0 20.7058C0 22.5251 1.47499 24 3.29434 24C5.1137 24 6.58869 22.5251 6.58869 20.7058C6.58869 19.9135 6.30832 19.1862 5.84205 18.6174L7.058 17.4015L6.59886 16.9423L5.3829 18.1582C4.81404 17.692 4.08667 17.4116 3.29434 17.4116ZM3.29434 2.60394e-05C1.47499 2.60394e-05 0 1.47495 0 3.29423C0 5.1135 1.47499 6.58843 3.29434 6.58843C4.0867 6.58843 4.81404 6.30808 5.38288 5.84182L6.59883 7.05772L7.05798 6.5986L5.84202 5.3827C6.3083 4.81386 6.58866 4.08756 6.58866 3.29425C6.58866 1.47498 5.1137 2.60394e-05 3.29434 2.60394e-05ZM20.7056 2.60394e-05C18.8863 2.60394e-05 17.4113 1.47495 17.4113 3.29423C17.4113 4.08655 17.6917 4.81385 18.1579 5.38267L16.942 6.59857L17.4011 7.0577L18.6171 5.8418C19.1859 6.30805 19.9123 6.5884 20.7056 6.5884C22.525 6.5884 23.9999 5.11347 23.9999 3.2942C24.001 1.47493 22.526 2.60394e-05 20.7056 2.60394e-05ZM20.7056 17.4116C19.9133 17.4116 19.1859 17.6919 18.6171 18.1582L17.4011 16.9423L16.942 17.4014L18.158 18.6173C17.6917 19.1862 17.4113 19.9135 17.4113 20.7058C17.4113 22.525 18.8863 24 20.7057 24C22.525 24 24 22.525 24 20.7058C24.001 18.8865 22.526 17.4116 20.7056 17.4116ZM1.03917 12.3255C0.859367 12.3255 0.714104 12.1802 0.714104 12.0004C0.714104 11.8206 0.859367 11.6754 1.03917 11.6754H4.38318C4.52134 11.6754 4.63917 11.7617 4.68591 11.8826V12.1172C4.63918 12.2391 4.52033 12.3255 4.38318 12.3255H1.03917ZM11.6748 1.04019C11.6748 0.860395 11.8201 0.715139 11.9999 0.715139C12.1797 0.715139 12.3249 0.860395 12.3249 1.04019V4.38406C12.3249 4.52221 12.2386 4.64004 12.1177 4.68677H11.883C11.7611 4.64005 11.6758 4.5212 11.6758 4.38406L11.6748 1.04019ZM22.9605 11.6754C23.1403 11.6754 23.2856 11.8206 23.2856 12.0004C23.2856 12.1802 23.1403 12.3255 22.9605 12.3255H19.6176C19.4794 12.3255 19.3616 12.2391 19.3148 12.1172V11.8826C19.3616 11.7607 19.4804 11.6754 19.6176 11.6754H22.9605ZM11.9999 9.01799C10.3532 9.01799 9.01732 10.3527 9.01732 12.0004C9.01732 13.6481 10.3521 14.9828 11.9999 14.9828C13.6465 14.9828 14.9824 13.6481 14.9824 12.0004C14.9824 10.3527 13.6466 9.01799 11.9999 9.01799Z" fill="#0E53BE"/>
</svg>
