<svg width="57" height="57" viewBox="0 0 57 57" fill="none" xmlns="http://www.w3.org/2000/svg">
<rect x="0.416504" y="0.287598" width="55.776" height="56" rx="4" fill="white"/>
<path d="M42.0955 8.97786C36.334 4.0044 23.586 1.5406 14.0329 8.68102C5.07064 14.6889 4.62744 25.6699 4.62744 25.6699C6.15394 31.6778 12.2109 37.4393 23.8814 34.6324C22.5027 26.5563 25.205 6.12195 42.0955 8.97805V8.97786Z" fill="#00ACD2"/>
<path d="M36.0941 28.5102C29.7895 33.7423 10.5992 41.7261 4.62743 25.6704C3.20088 33.1468 7.15955 45.5903 18.1198 50.2935C27.8039 55.0511 37.8961 49.5411 37.8961 49.5411C42.3356 45.2152 44.3603 37.2138 36.0941 28.5102Z" fill="#C8E9EB"/>
<path d="M24.707 21.1718C32.3904 24.0157 48.8148 36.3413 37.8962 49.5411C45.0841 47.0382 53.513 37.4616 52.1059 25.6184C51.3842 14.8528 42.0957 8.97834 42.0957 8.97834C36.1297 7.2965 28.1115 9.66129 24.707 21.1718Z" fill="#662D91"/>
</svg>
