<svg width="56" height="56" viewBox="0 0 56 56" fill="none" xmlns="http://www.w3.org/2000/svg">
<g clip-path="url(#clip0_610_865)">
<path d="M39.4097 0H16.5903C7.42771 0 0 7.42771 0 16.5903V39.4097C0 48.5723 7.42771 56 16.5903 56H39.4097C48.5723 56 56 48.5723 56 39.4097V16.5903C56 7.42771 48.5723 0 39.4097 0Z" fill="white"/>
<path d="M41.242 9.54106C35.7105 4.78522 23.4714 2.42923 14.2996 9.25721C5.69504 15.0022 5.26953 25.5027 5.26953 25.5027C6.73509 31.2478 12.5503 36.7571 23.7549 34.073C22.4313 26.3504 25.0257 6.81012 41.242 9.54124V9.54106Z" fill="#00ACD2"/>
<path d="M35.4792 28.2195C29.4263 33.2226 11.002 40.8571 5.26861 25.5039C3.899 32.6531 7.69965 44.5521 18.2224 49.0495C27.52 53.599 37.2093 48.3301 37.2093 48.3301C41.4716 44.1935 43.4155 36.5422 35.4792 28.2195Z" fill="#C8E9EB"/>
<path d="M24.5469 21.2014C31.9236 23.9209 47.6924 35.7072 37.2095 48.3294C44.1106 45.936 52.203 36.7785 50.8521 25.4535C50.1592 15.159 41.2415 9.54156 41.2415 9.54156C35.5136 7.93331 27.8155 10.1946 24.5469 21.2014Z" fill="#662D91"/>
</g>
<defs>
<clipPath id="clip0_610_865">
<rect width="56" height="56" fill="white"/>
</clipPath>
</defs>
</svg>
