<svg width="56" height="56" viewBox="0 0 56 56" fill="none" xmlns="http://www.w3.org/2000/svg">
<g clip-path="url(#clip0_614_591)">
<path d="M42.875 0H13.125C5.87626 0 0 5.87626 0 13.125V42.875C0 50.1237 5.87626 56 13.125 56H42.875C50.1237 56 56 50.1237 56 42.875V13.125C56 5.87626 50.1237 0 42.875 0Z" fill="white"/>
<path fill-rule="evenodd" clip-rule="evenodd" d="M28.2215 4C25.4344 3.99901 22.6744 4.54725 20.0992 5.61338C17.5241 6.67951 15.1842 8.24264 13.2134 10.2134C11.2426 12.1842 9.67951 14.5241 8.61338 17.0992C7.54725 19.6744 6.99901 22.4344 7 25.2215C7 35.5474 14.4023 44.1277 24.1712 46.0446V52.1111C36.8702 50.1957 48.1162 40.1149 48.9559 26.8798C49.4611 18.9152 45.4979 10.7927 38.7909 6.8348C38.4078 6.60414 38.0161 6.38799 37.6167 6.1868C37.2058 5.98169 36.787 5.79286 36.3613 5.62074C36.2273 5.5648 36.0925 5.51092 35.9569 5.45912C35.584 5.3208 35.2081 5.15843 34.8233 5.05318C32.6928 4.35407 30.4632 3.99775 28.2215 4.00075V4Z" fill="#00A818"/>
<path fill-rule="evenodd" clip-rule="evenodd" d="M32.5939 11.8557C32.216 11.8141 31.8335 11.8661 31.4805 12.0073C31.1274 12.1485 30.8145 12.3745 30.5695 12.6654C30.1809 13.1916 29.9381 13.6862 29.678 14.2049C28.9007 16.0189 29.1517 17.9636 30.326 19.3889C32.1399 19.0002 33.6787 17.8418 34.4575 16.0271C34.7134 15.4959 34.8513 14.9155 34.8619 14.3259C34.9371 12.9503 33.8042 11.9805 32.5939 11.8557ZM23.1582 11.9775C21.9749 12.0903 20.8503 13.03 20.8503 14.3259C20.8503 14.8522 20.9954 15.5092 21.2548 16.0271C22.032 17.8411 23.6926 19.0002 25.5066 19.3889C26.544 17.9636 26.8116 16.0196 26.0343 14.2049C25.7749 13.6787 25.5306 13.175 25.1427 12.7871C24.9038 12.4998 24.5979 12.2757 24.252 12.1345C23.906 11.9933 23.5299 11.9394 23.1582 11.9775ZM16.8007 18.2132C14.756 18.3184 13.8434 20.8863 15.5438 22.2229C16.07 22.6116 16.5647 22.8957 17.0834 23.1551C18.8973 23.9324 20.9969 23.6663 22.5523 22.6289C22.1636 20.945 20.8413 19.3964 19.0191 18.6191C18.3711 18.3598 17.8449 18.2132 17.1969 18.2132C17.0518 18.1981 16.9285 18.2057 16.7925 18.2132H16.8007ZM36.7668 26.0703C35.5739 26.0484 34.4022 26.3872 33.4051 27.0423C33.7937 28.7262 35.1145 30.2748 36.9285 31.0521C37.5764 31.3114 38.1027 31.4565 38.7507 31.4565C41.0833 31.5858 42.2252 28.7029 40.4105 27.4069C39.8843 27.0183 39.3904 26.7754 38.8724 26.5168C38.2057 26.2334 37.4908 26.0823 36.7676 26.0711L36.7668 26.0703ZM19.0695 26.1921C18.3568 26.2049 17.6442 26.3447 16.9646 26.6431C16.3166 26.9025 15.8144 27.1874 15.425 27.5753C13.7412 29.0006 14.874 31.7128 17.2067 31.5835C17.8547 31.5835 18.5102 31.437 19.0289 31.1776C20.8428 30.4003 22.1313 28.8472 22.3906 27.1694C21.4089 26.5153 20.2504 26.1771 19.0702 26.1974L19.0695 26.1921ZM25.6291 30.1613C23.8152 30.5499 22.2764 31.7083 21.4991 33.523C21.2397 34.0492 21.0931 34.6657 21.0931 35.1829C20.9631 37.3854 23.9685 38.5694 25.2653 36.884C25.6539 36.3578 25.8967 35.8632 26.1553 35.3445C26.9326 33.6606 26.6665 31.7166 25.6291 30.1613ZM30.4402 30.283C29.4028 31.7083 29.1367 33.6523 29.914 35.467C30.1734 35.9932 30.4154 36.4969 30.8041 36.8848C32.2293 38.4409 35.2273 37.2892 35.089 35.3452C35.089 34.819 34.9424 34.1635 34.683 33.6448C33.9057 31.8309 32.2451 30.6717 30.4312 30.283H30.4402Z" fill="white"/>
</g>
<defs>
<clipPath id="clip0_614_591">
<rect width="56" height="56" fill="white"/>
</clipPath>
</defs>
</svg>
