<svg width="56" height="56" viewBox="0 0 56 56" fill="none" xmlns="http://www.w3.org/2000/svg">
<rect width="56" height="56" rx="4" fill="white"/>
<path d="M38.6294 6.83706C38.246 6.60703 37.8626 6.377 37.4792 6.1853L36.2141 5.61022C36.0607 5.57188 35.9457 5.49521 35.7923 5.45687C35.409 5.30351 35.0639 5.15016 34.6805 5.03514C32.6102 4.34505 30.4249 4 28.1246 4C16.4313 4 7 13.4696 7 25.1629C7 35.476 14.361 44.0256 24.0607 45.9425V52C36.6741 50.0831 47.869 40.0383 48.7125 26.8498C49.2109 18.8754 45.262 10.7476 38.6294 6.83706ZM23.0639 11.9361C23.754 11.8594 24.5208 12.1278 25.0192 12.7412C25.4026 13.1246 25.6326 13.623 25.901 14.1597C26.6677 15.9617 26.3994 17.9169 25.3642 19.3355C23.5623 18.9521 21.9137 17.8019 21.147 16C20.8786 15.5016 20.7252 14.8115 20.7252 14.3131C20.7636 13.0096 21.8754 12.0511 23.0639 11.9361ZM16.738 18.1853H17.1597C17.8115 18.1853 18.3099 18.3387 18.9617 18.607C20.7636 19.3738 22.0671 20.9073 22.4505 22.5942C20.9169 23.6294 18.8083 23.8978 17.0064 23.131C16.508 22.8626 16.0096 22.5942 15.4728 22.2109C13.7859 20.8307 14.7061 18.262 16.738 18.1853ZM17.1597 31.4888C14.8211 31.6038 13.7093 28.9201 15.3962 27.5016C15.7796 27.1182 16.278 26.8498 16.9297 26.5815C17.6198 26.2748 18.3099 26.1597 19.0383 26.1214C20.2268 26.0831 21.377 26.4281 22.3355 27.0799C22.0671 28.7668 20.8019 30.3003 19 31.0671C18.4249 31.3738 17.7732 31.4888 17.1597 31.4888ZM26.0543 35.246C25.7859 35.7444 25.5559 36.2812 25.1725 36.7796C23.869 38.4665 20.8786 37.278 21.0319 35.0927C21.0319 34.5942 21.1853 33.9425 21.4537 33.4441C22.2204 31.6422 23.754 30.492 25.5559 30.1086C26.5527 31.6422 26.8211 33.5974 26.0543 35.246ZM29.5431 14.1597C29.8115 13.6613 30.0415 13.1246 30.4249 12.6262C30.9617 12.0128 31.7284 11.7444 32.4569 11.8211C33.6454 11.9361 34.7955 12.8946 34.7189 14.2748C34.7189 14.7732 34.5655 15.4633 34.2971 15.9617C33.5304 17.7636 31.9968 18.9137 30.1949 19.2971C29.0447 17.9169 28.7764 16 29.5431 14.1597ZM30.6933 36.7796C30.3099 36.3962 30.0799 35.8978 29.8115 35.361C29.0447 33.5591 29.3131 31.6038 30.3482 30.1853C32.1502 30.5687 33.7987 31.7188 34.5655 33.5208C34.8339 34.0192 34.9872 34.7093 34.9872 35.2077C35.0639 37.2013 32.1118 38.3514 30.6933 36.7796ZM38.5911 31.3738C37.9393 31.3738 37.4409 31.2204 36.7891 30.9521C34.9872 30.1853 33.6837 28.6518 33.3003 26.9649C34.2588 26.3131 35.4473 25.9681 36.6358 26.0064C37.3259 26.0064 38.0543 26.1597 38.7444 26.4665C39.2428 26.7348 39.7412 26.9649 40.278 27.3482C42.0415 28.6518 40.8914 31.5272 38.5911 31.3738Z" fill="#00A818"/>
</svg>
