<svg width="56" height="56" viewBox="0 0 56 56" fill="none" xmlns="http://www.w3.org/2000/svg">
<g clip-path="url(#clip0_609_767)">
<mask id="mask0_609_767" style="mask-type:luminance" maskUnits="userSpaceOnUse" x="0" y="0" width="56" height="56">
<path d="M56 0H0V56H56V0Z" fill="white"/>
</mask>
<g mask="url(#mask0_609_767)">
<path d="M42.875 0H13.125C5.87626 0 0 5.87626 0 13.125V42.875C0 50.1237 5.87626 56 13.125 56H42.875C50.1237 56 56 50.1237 56 42.875V13.125C56 5.87626 50.1237 0 42.875 0Z" fill="white"/>
<path d="M22.2813 23.9924C23.8078 23.9924 25.0481 24.8086 25.684 26.2261L25.7317 26.3376L28.2917 25.4657L28.2401 25.3342C27.2502 22.9133 24.9645 21.4121 22.2813 21.4121C20.393 21.4121 18.8586 22.0173 17.5905 23.2635C16.3304 24.5021 15.6943 26.0589 15.6943 27.8905C15.6943 29.7103 16.3343 31.2591 17.5905 32.4935C18.8586 33.7399 20.393 34.345 22.2813 34.345C24.9645 34.345 27.2463 32.84 28.2401 30.423L28.2917 30.2915L25.7277 29.4196L25.684 29.5351C25.1115 30.9327 23.8395 31.7648 22.2813 31.7648C21.2199 31.7648 20.3215 31.3945 19.6139 30.6619C18.8944 29.9212 18.5326 28.9856 18.5326 27.8905C18.5326 26.7876 18.8864 25.8717 19.6139 25.0954C20.3254 24.3625 21.2199 23.9924 22.2813 23.9924Z" fill="#1B1E2E"/>
<path d="M33.396 45.9564L32.6328 43.436C39.5178 41.3415 44.145 35.094 44.145 27.891C44.145 25.904 43.7913 23.9609 43.0915 22.1212L45.5483 21.1855C46.3631 23.3278 46.7765 25.5814 46.7765 27.8949C46.7726 36.2608 41.3981 43.5196 33.396 45.9564Z" fill="url(#paint0_linear_609_767)"/>
<path d="M43.4336 23.1285C41.3307 16.2558 35.0856 11.6409 27.8905 11.6409C26.9125 11.6409 25.9347 11.7285 24.9807 11.8997L24.5156 9.3075C25.6205 9.10842 26.7576 9.00488 27.8905 9.00488C36.2463 9.00488 43.5012 14.3684 45.9459 22.3519L43.4336 23.1285Z" fill="#69D3A7"/>
<path d="M10.2173 34.5484C9.41424 32.4222 9.00879 30.1804 9.00879 27.8908C9.00879 18.1353 16.3192 10.0562 26.0148 9.10059L26.2732 11.7206C17.9292 12.5448 11.6364 19.4971 11.6364 27.8908C11.6364 29.8619 11.9862 31.793 12.6739 33.6207L10.2173 34.5484Z" fill="url(#paint1_linear_609_767)"/>
<path d="M38.3139 21.6514L34.6687 30.905L30.9956 21.6514H27.9902L33.1422 34.2816L29.3896 43.4L32.0172 43.9257L41.1522 21.6514H38.3139Z" fill="#1B1E2E"/>
<path d="M29.8618 42.253L29.3092 43.5948C29.1821 43.9015 28.8918 44.1124 28.5659 44.1244C28.3393 44.1323 28.1168 44.1404 27.8862 44.1404C20.6711 44.1404 14.2472 39.3025 12.2636 32.374L9.73535 33.0987C12.041 41.1459 19.5024 46.7684 27.8823 46.7724H27.8862C28.1485 46.7724 28.4108 46.7684 28.6733 46.7564C30.0208 46.7006 31.2252 45.8525 31.7421 44.5982L32.4894 42.7786L29.8618 42.253Z" fill="url(#paint2_linear_609_767)"/>
</g>
</g>
<defs>
<linearGradient id="paint0_linear_609_767" x1="48.2231" y1="28.0104" x2="31.347" y2="38.919" gradientUnits="userSpaceOnUse">
<stop offset="0.0814251" stop-color="#69D3A7"/>
<stop offset="1" stop-color="#69D3A7" stop-opacity="0"/>
</linearGradient>
<linearGradient id="paint1_linear_609_767" x1="21.6056" y1="9.24378" x2="10.9848" y2="31.7318" gradientUnits="userSpaceOnUse">
<stop stop-color="#69D3A7"/>
<stop offset="0.8232" stop-color="#2AB586"/>
<stop offset="1" stop-color="#1CAE7F"/>
</linearGradient>
<linearGradient id="paint2_linear_609_767" x1="8.98119" y1="36.5368" x2="36.7629" y2="45.2413" gradientUnits="userSpaceOnUse">
<stop offset="0.0773521" stop-color="#1CAE7F"/>
<stop offset="0.1638" stop-color="#1CA379"/>
<stop offset="0.3161" stop-color="#1C8568"/>
<stop offset="0.5165" stop-color="#1B554D"/>
<stop offset="0.7187" stop-color="#1B1E2E"/>
</linearGradient>
<clipPath id="clip0_609_767">
<rect width="56" height="56" fill="white"/>
</clipPath>
</defs>
</svg>
