<svg width="56" height="56" viewBox="0 0 56 56" fill="none" xmlns="http://www.w3.org/2000/svg">
<rect width="56" height="56" rx="4" fill="white"/>
<path fill-rule="evenodd" clip-rule="evenodd" d="M27.6107 7C15.7894 7 6.22266 16.5668 6.22266 28.3893C6.22266 40.2106 15.789 49.7774 27.6103 49.7774C39.4329 49.7774 49.0001 40.2111 49.0001 28.3898C49.0001 16.5673 39.4324 7 27.6107 7ZM20.2222 18.4332C21.466 18.4332 22.6333 18.5885 23.5664 18.9783C24.5784 19.3664 25.5116 19.9115 26.4444 20.6889L24.2656 23.6438C23.6434 23.1774 23.0214 22.8664 22.4779 22.6337C21.9329 22.3996 21.2337 22.323 20.6099 22.323C17.966 22.323 16.6434 24.3443 16.6434 28.4664C16.6434 30.5668 16.9541 32.0451 17.6549 32.8996C18.3559 33.8328 19.289 34.2226 20.6099 34.2226C21.2337 34.2226 21.8559 34.1438 22.3992 33.9115C22.9444 33.6774 23.5664 33.3663 24.3444 32.8996L26.5214 36.0119C24.7337 37.4877 22.7107 38.1889 20.3775 38.1889C18.5112 38.1889 16.9545 37.7996 15.5549 37.0217C14.2337 36.2443 13.1434 35.0788 12.4444 33.6004C11.7444 32.1217 11.3559 30.4111 11.3559 28.3898C11.3559 26.4447 11.7439 24.6553 12.4444 23.1774C13.1434 21.6222 14.2337 20.4548 15.5549 19.6004C16.8775 18.8996 18.4329 18.4332 20.2222 18.4332ZM26.7554 19.1337H32.1218L35.8559 34.6102L39.8222 19.1337H45.0329L38.9669 37.7992C38.1894 40.2107 37.0218 42 35.3899 43.3226C33.7559 44.6438 31.5789 45.3447 28.8563 45.5788L28.3112 42C30.1005 41.7659 31.4218 41.3778 32.2775 40.7558C32.5886 40.5217 33.2107 39.8226 33.2107 39.8226L26.7554 19.1337Z" fill="#4A4A4C"/>
<path fill-rule="evenodd" clip-rule="evenodd" d="M27.611 6.61108C15.5797 6.61108 5.83398 16.3568 5.83398 28.3898C5.83398 40.4202 15.5797 50.1664 27.6106 50.1664C39.6431 50.1664 49.3893 40.4206 49.3893 28.3898C49.3893 16.3573 39.6431 6.61108 27.611 6.61108ZM27.611 7.38897C39.2231 7.38897 48.6114 16.7768 48.6114 28.3898C48.6114 40.0011 39.2236 49.389 27.6106 49.389C15.9993 49.389 6.61143 40.0006 6.61143 28.3898C6.61143 16.7764 16.0002 7.38897 27.611 7.38897Z" fill="white"/>
</svg>
