<svg width="57" height="57" viewBox="0 0 57 57" fill="none" xmlns="http://www.w3.org/2000/svg">
<rect x="0.291016" y="0.287598" width="56" height="56" rx="4" fill="white"/>
<path d="M19.2635 34.0165L22.9712 34.2896V37.4565C22.9712 37.4565 16.0434 44.2796 5.94873 36.201H9.3887L9.76993 33.0891C9.76993 33.0891 13.6957 37.0734 19.2635 34.0165Z" fill="#0D2C40"/>
<path d="M6.70896 19.3867C6.70896 19.3867 -0.825275 26.4014 5.34361 35.3826L8.78713 35.7106L9.11516 32.3806C9.11516 32.3806 5.95004 27.194 10.039 23.0998L6.37206 22.816L6.70896 19.3867Z" fill="#0D2C40"/>
<path d="M7.52816 18.8955C7.52816 18.8955 16.926 12.8365 24.0701 20.1509L20.9032 19.9328L20.5752 23.4791C20.5752 23.4791 16.9721 19.1136 10.9681 22.4986L7.31006 22.3354L7.52816 18.8955Z" fill="#0D2C40"/>
<path d="M21.3945 24.3551L21.6126 20.697L24.9427 21.0251L34.9877 32.2156H31.5495L31.2215 35.3275L21.3945 24.3551Z" fill="#0D2C40"/>
<path d="M20.1938 33.4179L32.9129 19.3867L36.2979 19.7148L36.0798 23.1547L23.5788 37.0742L23.632 33.4711L20.1938 33.4179Z" fill="#02D35F"/>
<path d="M33.4023 18.881L36.9239 19.1683L36.6792 22.5267C36.6792 22.5267 41.8781 19.2091 45.6869 22.7306L49.4106 22.8937L49.7457 19.624C49.7457 19.624 43.9262 13.0632 33.4023 18.881Z" fill="#02D35F"/>
<path d="M46.2186 23.263L49.9423 23.4811L50.2296 20.1919C50.2296 20.1919 58.3773 29.2688 49.5735 37.0743L45.9722 36.8243L46.3002 33.1006C46.3002 33.1006 51.1729 27.6446 46.2186 23.263Z" fill="#02D35F"/>
<path d="M35.8616 33.09L32.1007 32.762L31.8896 36.0796C31.8896 36.0796 38.5639 43.777 48.6356 37.6347L45.1956 37.3563L45.5236 33.794C45.5236 33.794 41.1421 37.3066 35.8616 33.09Z" fill="#02D35F"/>
<path d="M40.6201 27.3555V28.5968C40.6093 28.6451 40.604 28.6944 40.6041 28.7439C40.604 28.794 40.6093 28.844 40.6201 28.8929V30.893H39.6909V27.3467L40.6201 27.3555Z" fill="#0D2C40"/>
<path d="M41.4369 27.3549C41.1309 27.3945 40.845 27.5291 40.6195 27.7397C40.464 27.8603 40.3353 28.012 40.2415 28.1851C40.1478 28.3582 40.0912 28.5489 40.0751 28.7451C40.0888 28.9501 40.1442 29.1502 40.2378 29.3331C40.3314 29.516 40.4613 29.6779 40.6195 29.809C40.8171 29.9974 41.0728 30.1131 41.3447 30.137C42.2083 30.1583 42.6338 29.4153 42.6338 28.7468C42.6338 28.0784 42.1054 27.3159 41.4369 27.3549ZM41.155 29.3604C41.0265 29.3547 40.9038 29.3054 40.8071 29.2206C40.7104 29.1358 40.6455 29.0206 40.623 28.894C40.6123 28.8451 40.6069 28.7952 40.6071 28.7451C40.6069 28.6956 40.6123 28.6462 40.623 28.5979C40.6455 28.4713 40.7104 28.3561 40.8071 28.2713C40.9038 28.1865 41.0265 28.1372 41.155 28.1316C41.3081 28.1458 41.4503 28.2167 41.5539 28.3304C41.6574 28.444 41.7148 28.5922 41.7148 28.746C41.7148 28.8997 41.6574 29.0479 41.5539 29.1616C41.4503 29.2752 41.3081 29.3461 41.155 29.3604ZM44.4815 28.4135C44.3467 28.3709 43.8485 28.2929 43.8485 28.105C43.8485 27.9986 44.0009 27.9862 44.0754 27.9897C44.2882 27.9897 44.6074 28.2433 44.7847 28.1954C44.9425 28.1546 45.0808 27.7468 45.1393 27.6085C44.6915 27.3529 44.1697 27.2578 43.6605 27.3389C43.5347 27.3629 43.4156 27.4139 43.3113 27.4883C43.2071 27.5628 43.1202 27.6589 43.0567 27.7701C42.9931 27.8813 42.9545 28.005 42.9433 28.1326C42.9321 28.2602 42.9488 28.3887 42.992 28.5092C43.2172 29.0926 43.9087 28.8639 44.2581 29.2185C44.4017 29.3675 44.1056 29.4348 44.008 29.4313C43.7081 29.3868 43.4214 29.2779 43.1676 29.1121C43.0807 29.2362 42.8129 29.5324 42.8448 29.6866C42.8768 29.8409 43.2296 29.9562 43.3768 30.0023C43.8697 30.1618 44.6304 30.2221 45.001 29.7735C45.4638 29.2345 45.0595 28.6014 44.4815 28.4135ZM37.2664 26.3726C36.8806 26.3726 36.5035 26.487 36.1828 26.7013C35.862 26.9156 35.612 27.2202 35.4644 27.5766C35.3168 27.933 35.2781 28.3252 35.3534 28.7036C35.4287 29.0819 35.6144 29.4295 35.8872 29.7023C36.16 29.975 36.5075 30.1608 36.8859 30.2361C37.2643 30.3113 37.6564 30.2727 38.0128 30.1251C38.3692 29.9775 38.6739 29.7275 38.8882 29.4067C39.1025 29.0859 39.2169 28.7088 39.2169 28.3231C39.2169 27.8058 39.0114 27.3096 38.6456 26.9438C38.2798 26.5781 37.7837 26.3726 37.2664 26.3726ZM37.2664 29.3178C37.0687 29.3175 36.8755 29.2585 36.7113 29.1484C36.5471 29.0383 36.4192 28.882 36.3437 28.6992C36.2683 28.5164 36.2488 28.3154 36.2875 28.1215C36.3263 27.9277 36.4217 27.7496 36.5617 27.61C36.7016 27.4703 36.8798 27.3752 37.0737 27.3368C37.2677 27.2983 37.4687 27.3182 37.6513 27.394C37.8339 27.4697 37.99 27.5979 38.0998 27.7623C38.2097 27.9267 38.2683 28.12 38.2683 28.3177C38.2683 28.4494 38.2423 28.5797 38.1918 28.7013C38.1413 28.8228 38.0673 28.9332 37.9741 29.0262C37.8809 29.1191 37.7702 29.1927 37.6484 29.2427C37.5267 29.2928 37.3963 29.3183 37.2646 29.3178H37.2664Z" fill="#0D2C40"/>
<path d="M18.7936 27.311H17.6818L18.8574 30.3857H19.3645V29.0753L18.7936 27.311ZM19.9373 27.3163H21.049L19.8717 30.391H19.3645V29.0806L19.9373 27.3163ZM13.396 26.8783C13.0226 26.619 12.5894 26.4591 12.1371 26.4137C11.5377 26.357 10.8958 26.4297 10.3408 26.4297V30.3821H10.3674C10.4738 30.3945 10.5802 30.4052 10.6884 30.4123C11.1145 30.4476 11.5431 30.444 11.9686 30.4016C12.7825 30.3112 13.3056 30.047 13.6265 29.703C13.9109 29.3828 14.0713 28.9715 14.0787 28.5433V28.4494V28.3997C14.0716 27.8376 13.9102 27.272 13.396 26.8783ZM12.4917 29.2934C12.1566 29.4813 11.7487 29.4352 11.3799 29.4352V27.3766C11.7718 27.3766 12.2133 27.3252 12.5573 27.5663C13.1283 27.9688 13.107 28.9458 12.4864 29.2934H12.4917ZM17.1942 29.6019C17.1037 29.5257 16.9885 29.3962 16.8661 29.375C16.6711 29.3484 16.4281 29.6108 16.2118 29.6321C15.8749 29.6658 15.632 29.4335 15.5025 29.1533H17.5523C17.5523 28.5859 17.5045 27.9883 17.0204 27.5982C16.1214 26.8641 14.6461 27.4067 14.4812 28.5646C14.3039 29.7846 15.2632 30.5719 16.4317 30.4194C16.7214 30.3784 16.9934 30.2554 17.2154 30.0647C17.2952 29.9938 17.4123 29.8963 17.3537 29.781C17.3119 29.7121 17.2578 29.6514 17.1942 29.6019ZM16.5399 28.5965H15.4937C15.5163 28.4743 15.581 28.3638 15.6765 28.2843C15.7721 28.2048 15.8925 28.1613 16.0168 28.1613C16.1411 28.1613 16.2615 28.2048 16.357 28.2843C16.4526 28.3638 16.5173 28.4743 16.5399 28.5965Z" fill="#02D35F"/>
</svg>
