<svg width="56" height="56" viewBox="0 0 56 56" fill="none" xmlns="http://www.w3.org/2000/svg">
<rect width="56" height="56" rx="4" fill="white"/>
<path fill-rule="evenodd" clip-rule="evenodd" d="M31.8949 22.7516H36.3862V27.3224H38.6517C39.6851 27.3224 40.7582 27.1237 41.7518 26.8057C42.2288 26.6467 42.7852 26.4082 43.2622 26.13C42.6263 25.2954 42.3083 24.262 42.2288 23.2286C42.1096 21.8375 42.3878 20.0092 43.3417 18.936L43.8186 18.3796L44.3751 18.8168C45.8059 19.9694 46.9585 21.5195 47.197 23.3478C48.9061 22.8311 50.8934 22.9504 52.4037 23.8248L52.9999 24.1825L52.6819 24.8184C51.4101 27.2827 48.7471 28.0776 46.1636 27.9186C42.2685 37.5768 33.8424 42.1476 23.588 42.1476C18.3018 42.1476 13.4529 40.1603 10.6707 35.4703L10.6309 35.3908L10.2335 34.5561C9.27955 32.4894 9.00133 30.2238 9.20006 27.9583L9.27955 27.2827H13.0951V22.7516H17.5864V18.3001H26.5292V13.8088H31.8949V22.7516Z" fill="#3A4D54"/>
<path d="M46.442 24.4608C46.76 22.1158 45.0112 20.2875 43.8983 19.4131C42.6662 20.8439 42.4674 24.6595 44.415 26.2494C43.3021 27.2033 41.0366 28.1174 38.6518 28.1174H9.9554C9.71692 30.5817 10.1541 32.8472 11.1478 34.7947L11.4657 35.3909C11.6645 35.7486 11.9029 36.0666 12.1414 36.4243C13.3338 36.5038 14.4069 36.5435 15.4006 36.5038C17.3481 36.464 18.9379 36.2255 20.1701 35.8281C20.3688 35.7486 20.5278 35.8678 20.6073 36.0268C20.6868 36.2255 20.5675 36.3845 20.4085 36.464C20.2496 36.5038 20.0906 36.5833 19.8918 36.623C18.9379 36.9012 17.9046 37.0602 16.5929 37.1397H16.3545C15.8378 37.1794 15.2813 37.1794 14.6851 37.1794C14.0492 37.1794 13.453 37.1794 12.7376 37.1397C15.1223 39.8424 18.8585 41.4322 23.5485 41.4322C33.4849 41.4322 41.911 37.0205 45.6074 27.1635C48.2703 27.4417 50.8141 26.7661 51.9667 24.5005C50.1781 23.4274 47.7934 23.7851 46.442 24.4608Z" fill="#00AADA"/>
<path d="M46.4421 24.4608C46.76 22.1158 45.0112 20.2875 43.8983 19.4131C42.6662 20.8439 42.4675 24.6595 44.415 26.2494C43.3021 27.2033 41.0366 28.1174 38.6519 28.1174H11.6248C11.5055 31.8933 12.8966 34.755 15.4006 36.464C17.3482 36.4243 18.938 36.1858 20.1701 35.7883C20.3688 35.7089 20.5278 35.8281 20.6073 35.9871C20.6868 36.1858 20.5676 36.3448 20.4086 36.4243C20.2496 36.464 20.0906 36.5435 19.8919 36.5833C18.938 36.8615 17.8251 37.0602 16.5135 37.1397L16.4737 37.1C19.8521 38.8488 24.7409 38.809 30.3848 36.6628C36.6646 34.2383 42.547 29.6278 46.6408 24.3813C46.5613 24.4211 46.4818 24.4211 46.4421 24.4608Z" fill="#28B8EB"/>
<path d="M9.99512 31.0984C10.1541 32.41 10.5516 33.6421 11.1477 34.7947L11.4657 35.3909C11.6644 35.7486 11.9029 36.0666 12.1414 36.4243C13.3338 36.5038 14.4069 36.5436 15.4005 36.5038C17.3481 36.4641 18.9379 36.2256 20.17 35.8281C20.3688 35.7486 20.5277 35.8679 20.6072 36.0269C20.6867 36.2256 20.5675 36.3846 20.4085 36.4641C20.2495 36.5038 20.0905 36.5833 19.8918 36.623C18.9379 36.9013 17.825 37.1 16.5134 37.1795H16.3544C15.8377 37.2192 15.2813 37.2192 14.7249 37.2192C14.0889 37.2192 13.453 37.2192 12.7773 37.1795C15.1621 39.8822 18.9379 41.472 23.6279 41.472C32.1335 41.472 39.5262 38.2526 43.8188 31.1381H9.99512V31.0984Z" fill="#028BB8"/>
<path d="M11.9028 31.0984C12.4195 33.4036 13.6119 35.2319 15.4005 36.4641C17.348 36.4243 18.9378 36.1858 20.17 35.7884C20.3687 35.7089 20.5277 35.8281 20.6072 35.9871C20.6866 36.1858 20.5674 36.3448 20.4084 36.4243C20.2494 36.4641 20.0905 36.5436 19.8917 36.5833C18.9378 36.8615 17.825 37.0603 16.4736 37.1397C19.852 38.8886 24.7407 38.8488 30.3449 36.7025C33.7233 35.3909 37.0222 33.4434 39.9633 31.0984H11.9028Z" fill="#019BC6"/>
<path fill-rule="evenodd" clip-rule="evenodd" d="M13.8501 23.5067H17.7452V27.4018H13.8501V23.5067ZM14.1681 23.8247H14.486V27.0441H14.1681V23.8247ZM14.7245 23.8247H15.0425V27.0441H14.7245V23.8247ZM15.3207 23.8247H15.6387V27.0441H15.3207V23.8247ZM15.9169 23.8247H16.2348V27.0441H15.9169V23.8247ZM16.5131 23.8247H16.831V27.0441H16.5131V23.8247ZM17.1093 23.8247H17.4272V27.0441H17.1093V23.8247ZM18.3016 19.0552H22.1967V22.9503H18.3016V19.0552ZM18.6593 19.3731H18.9773V22.5926H18.6593V19.3731ZM19.2158 19.3731H19.5337V22.5926H19.2158V19.3731ZM19.812 19.3731H20.1299V22.5926H19.812V19.3731ZM20.4082 19.3731H20.7261V22.5926H20.4082V19.3731ZM20.9646 19.3731H21.2826V22.5926H20.9646V19.3731ZM21.5608 19.3731H21.8787V22.5926H21.5608V19.3731Z" fill="#00ACD3"/>
<path fill-rule="evenodd" clip-rule="evenodd" d="M18.3022 23.5066H22.1973V27.4017H18.3022V23.5066ZM18.66 23.8246H18.9779V27.044H18.66V23.8246ZM19.2164 23.8246H19.5344V27.044H19.2164V23.8246ZM19.8126 23.8246H20.1306V27.044H19.8126V23.8246ZM20.4088 23.8246H20.7267V27.044H20.4088V23.8246ZM20.9652 23.8246H21.2832V27.044H20.9652V23.8246ZM21.5614 23.8246H21.8794V27.044H21.5614V23.8246Z" fill="#23C2EE"/>
<path fill-rule="evenodd" clip-rule="evenodd" d="M22.793 23.5066H26.6881V27.4017H22.793V23.5066ZM23.1109 23.8246H23.4289V27.044H23.1109V23.8246ZM23.7071 23.8246H24.0251V27.044H23.7071V23.8246ZM24.3033 23.8246H24.6213V27.044H24.3033V23.8246ZM24.8597 23.8246H25.1777V27.044H24.8597V23.8246ZM25.4559 23.8246H25.7739V27.044H25.4559V23.8246ZM26.0521 23.8246H26.3701V27.044H26.0521V23.8246Z" fill="#00ACD3"/>
<path fill-rule="evenodd" clip-rule="evenodd" d="M22.793 19.0552H26.6881V22.9503H22.793V19.0552ZM23.1109 19.3731H23.4289V22.5926H23.1109V19.3731ZM23.7071 19.3731H24.0251V22.5926H23.7071V19.3731ZM24.3033 19.3731H24.6213V22.5926H24.3033V19.3731ZM24.8597 19.3731H25.1777V22.5926H24.8597V19.3731ZM25.4559 19.3731H25.7739V22.5926H25.4559V19.3731ZM26.0521 19.3731H26.3701V22.5926H26.0521V19.3731ZM27.2842 23.5067H31.1793V27.4018H27.2842V23.5067ZM27.6022 23.8247H27.9202V27.0441H27.6022V23.8247ZM28.1984 23.8247H28.5164V27.0441H28.1984V23.8247ZM28.7548 23.8247H29.0728V27.0441H28.7548V23.8247ZM29.351 23.8247H29.669V27.0441H29.351V23.8247ZM29.9472 23.8247H30.2652V27.0441H29.9472V23.8247ZM30.5434 23.8247H30.8614V27.0441H30.5434V23.8247Z" fill="#23C2EE"/>
<path fill-rule="evenodd" clip-rule="evenodd" d="M27.2847 19.0552H31.1798V22.9503H27.2847V19.0552ZM27.6026 19.3731H27.9206V22.5926H27.6026V19.3731ZM28.1988 19.3731H28.5168V22.5926H28.1988V19.3731ZM28.7553 19.3731H29.0732V22.5926H28.7553V19.3731ZM29.3514 19.3731H29.6694V22.5926H29.3514V19.3731ZM29.9476 19.3731H30.2656V22.5926H29.9476V19.3731ZM30.5438 19.3731H30.8618V22.5926H30.5438V19.3731Z" fill="#00ACD3"/>
<path fill-rule="evenodd" clip-rule="evenodd" d="M27.2847 14.564H31.1798V18.4591H27.2847V14.564ZM27.6026 14.8819H27.9206V18.1013H27.6026V14.8819ZM28.1988 14.8819H28.5168V18.1013H28.1988V14.8819ZM28.7553 14.8819H29.0732V18.1013H28.7553V14.8819ZM29.3514 14.8819H29.6694V18.1013H29.3514V14.8819ZM29.9476 14.8819H30.2656V18.1013H29.9476V14.8819ZM30.5438 14.8819H30.8618V18.1013H30.5438V14.8819Z" fill="#23C2EE"/>
<path fill-rule="evenodd" clip-rule="evenodd" d="M31.7759 23.5066H35.671V27.4017H31.7759V23.5066ZM32.0938 23.8246H32.4118V27.044H32.0938V23.8246ZM32.6503 23.8246H32.9683V27.044H32.6503V23.8246ZM33.2465 23.8246H33.5644V27.044H33.2465V23.8246ZM33.8427 23.8246H34.1606V27.044H33.8427V23.8246ZM34.4388 23.8246H34.7568V27.044H34.4388V23.8246ZM35.035 23.8246H35.353V27.044H35.035V23.8246Z" fill="#00ACD3"/>
<path fill-rule="evenodd" clip-rule="evenodd" d="M21.9589 33.6816C22.5551 33.6816 23.032 34.1586 23.032 34.7548C23.032 35.351 22.5551 35.8279 21.9589 35.8279C21.3627 35.8279 20.8857 35.351 20.8857 34.7548C20.8857 34.1586 21.3627 33.6816 21.9589 33.6816Z" fill="#D4EEF1"/>
<path fill-rule="evenodd" clip-rule="evenodd" d="M21.9587 33.9995C22.0382 33.9995 22.1575 33.9995 22.237 34.0392C22.1575 34.079 22.078 34.1982 22.078 34.3174C22.078 34.4764 22.237 34.6354 22.3959 34.6354C22.5152 34.6354 22.6344 34.5559 22.6742 34.4764C22.7139 34.5559 22.7139 34.6752 22.7139 34.7546C22.7139 35.1918 22.3562 35.5098 21.9587 35.5098C21.5215 35.5098 21.2036 35.1521 21.2036 34.7546C21.2036 34.3572 21.5215 33.9995 21.9587 33.9995ZM3 31.4955H52.8412C51.7681 31.2173 49.4231 30.8596 49.7808 29.4287C47.7935 31.6942 43.0637 31.0185 41.8316 29.9057C40.4803 31.8532 32.6901 31.098 32.1734 29.5877C30.5041 31.575 25.2974 31.575 23.6281 29.5877C23.0716 31.098 15.2814 31.8532 13.9698 29.9057C12.7775 31.0185 8.00797 31.6942 6.02068 29.4287C6.45788 30.8198 4.07314 31.2173 3 31.4955Z" fill="#3A4D54"/>
<path d="M24.8199 41.432C22.157 40.1601 20.7261 38.4511 19.8914 36.583C18.8978 36.8612 17.7054 37.06 16.3541 37.1394C15.8374 37.1792 15.2809 37.1792 14.7245 37.1792C14.0488 37.1792 13.3731 37.1792 12.6577 37.1394C15.0425 39.5242 18.0631 41.3922 23.5878 41.432H24.8199Z" fill="#BFDBE0"/>
<path d="M20.8855 38.2921C20.5278 37.7754 20.1701 37.1792 19.8919 36.583C18.8982 36.8612 17.7058 37.06 16.3545 37.1394C17.2686 37.6164 18.62 38.0933 20.8855 38.2921Z" fill="#D4EEF1"/>
</svg>
