<svg width="56" height="56" viewBox="0 0 56 56" fill="none" xmlns="http://www.w3.org/2000/svg">
<g clip-path="url(#clip0_609_779)">
<path d="M39.4231 0.0244141H16.6004C7.43657 0.0244141 0.0078125 7.45317 0.0078125 16.617V39.4397C0.0078125 48.6036 7.43657 56.0323 16.6004 56.0323H39.4231C48.587 56.0323 56.0157 48.6036 56.0157 39.4397V16.617C56.0157 7.45317 48.587 0.0244141 39.4231 0.0244141Z" fill="white"/>
<path d="M43.1776 25.925C42.7876 25.3484 42.2695 24.8699 41.6637 24.527C41.058 24.184 40.3811 23.986 39.686 23.9483C38.9909 23.9106 38.2966 24.0344 37.6573 24.3098C37.0181 24.5853 36.4513 25.005 36.0013 25.5361C35.6955 25.8653 35.4383 26.2363 35.2372 26.638C35.0382 27.025 34.8838 27.4333 34.7769 27.8551H32.0033C31.9421 27.7527 31.8976 27.6412 31.8715 27.5248C31.4941 26.0429 30.5693 24.9835 29.1669 24.3995C26.4667 23.275 23.5359 24.7666 22.7808 27.6103C22.7312 27.7971 22.7681 28.0085 22.4521 28.052C21.1431 28.2319 19.6656 27.4829 19.0452 26.288C18.627 25.4824 18.6491 25.4124 19.5482 25.2994C23.2803 24.8307 26.3282 21.0411 25.0381 16.6464C24.1033 13.4623 20.6138 11.3958 17.3453 12.0729C14.2641 12.7111 12.0887 15.2802 11.9275 18.471C11.7793 21.4062 13.8095 24.2118 16.7574 25.0838C17.2016 25.2152 17.3019 25.4117 17.2997 25.8381C17.2845 28.8141 17.2709 31.7905 17.3035 34.7662C17.3337 37.5184 19.3525 39.7591 22.0577 40.0492C22.5674 40.1039 22.7399 40.2839 22.8677 40.757C23.3716 42.6229 25.0473 43.9501 26.9986 44.098C27.9345 44.1731 28.8712 43.9627 29.6851 43.4945C30.499 43.0263 31.1518 42.3224 31.5574 41.4756C32.7501 38.919 31.5688 35.9995 28.9502 35.032C26.3566 34.0738 23.5341 35.5592 22.8182 38.2967C22.6957 38.7651 22.49 38.7939 22.0983 38.729C20.0885 38.3964 18.6929 36.795 18.6367 34.7058C18.6141 33.867 18.6313 33.0271 18.6311 32.1877C18.6308 30.8578 18.631 29.528 18.631 28.0449C19.2784 28.5411 19.8234 28.9145 20.4643 29.1317C21.1016 29.3352 21.7709 29.4201 22.4389 29.3823C22.7607 29.3711 22.7338 29.6132 22.7843 29.8029C23.1297 31.0995 23.8576 32.111 25.0307 32.7774C25.6527 33.1357 26.3492 33.3454 27.0657 33.3901C27.7822 33.4349 28.4993 33.3133 29.1611 33.0351C29.8229 32.7568 30.4114 32.3294 30.8806 31.7861C31.3499 31.2428 31.6873 30.5985 31.8664 29.9033C31.8925 29.7888 31.9377 29.6795 32 29.58H34.8199C34.8378 29.7325 34.8698 29.883 34.9155 30.0296C35.498 32.1267 37.4211 33.4636 39.62 33.3889C41.3843 33.329 43.3721 32.2183 43.9801 29.7359C44.1367 29.0809 44.146 28.3993 44.0072 27.7403C43.8684 27.0812 43.5851 26.4612 43.1776 25.925ZM27.3533 36.1017C27.793 36.0974 28.229 36.1808 28.6361 36.347C29.0432 36.5131 29.4131 36.7587 29.7243 37.0693C30.0354 37.38 30.2816 37.7495 30.4484 38.1563C30.6152 38.5631 30.6993 38.9991 30.6958 39.4387C30.6979 40.1014 30.5032 40.7498 30.1364 41.3017C29.7696 41.8537 29.2472 42.2843 28.6355 42.5391C28.0237 42.7939 27.3501 42.8614 26.7 42.733C26.0498 42.6046 25.4524 42.2861 24.9834 41.8179C24.5145 41.3497 24.195 40.7528 24.0656 40.1029C23.9361 39.453 24.0025 38.7792 24.2563 38.1671C24.5101 37.5549 24.9399 37.0318 25.4912 36.6642C26.0425 36.2965 26.6906 36.1007 27.3533 36.1017ZM13.3061 18.6285C13.3186 17.2184 13.8883 15.8704 14.8907 14.8786C15.8932 13.8867 17.2471 13.3315 18.6573 13.334C20.0675 13.3364 21.4195 13.8964 22.4185 14.8917C23.4175 15.887 23.9824 17.237 23.9901 18.6472C23.9943 19.3522 23.859 20.0511 23.5919 20.7036C23.3248 21.3561 22.9311 21.9493 22.4337 22.4489C21.9362 22.9485 21.3447 23.3448 20.6934 23.6147C20.0421 23.8847 19.3437 24.023 18.6387 24.0218C17.9336 24.0206 17.2358 23.8798 16.5854 23.6075C15.935 23.3353 15.3449 22.937 14.8492 22.4357C14.3535 21.9343 13.9619 21.3398 13.6971 20.6863C13.4322 20.0329 13.2993 19.3335 13.3061 18.6285ZM27.3304 32.0506C26.6715 32.0446 26.0292 31.8435 25.4845 31.4727C24.9399 31.1019 24.5173 30.5781 24.2701 29.9674C24.0229 29.3566 23.9622 28.6863 24.0956 28.0411C24.2291 27.3958 24.5507 26.8046 25.0199 26.342C25.4891 25.8795 26.0848 25.5662 26.7319 25.442C27.3789 25.3177 28.0483 25.3879 28.6555 25.6437C29.2627 25.8995 29.7805 26.3295 30.1435 26.8794C30.5065 27.4293 30.6984 28.0744 30.6951 28.7332C30.6934 29.1724 30.6048 29.6069 30.4345 30.0117C30.2643 30.4164 30.0156 30.7836 29.7029 31.0919C29.3901 31.4002 29.0195 31.6436 28.6124 31.8082C28.2052 31.9727 27.7695 32.0551 27.3304 32.0506ZM37.9372 31.7205C37.1934 31.3639 36.6068 30.7462 36.2891 29.985C35.9714 29.2238 35.9449 28.3723 36.2146 27.5929C36.4843 26.8134 37.0314 26.1603 37.7516 25.7582C38.4718 25.3561 39.3147 25.2331 40.1198 25.4124C40.9249 25.5918 41.6358 26.0612 42.1172 26.731C42.5985 27.4008 42.8166 28.2243 42.7298 29.0446C42.643 29.8648 42.2575 30.6245 41.6467 31.1788C41.0359 31.7331 40.2425 32.0434 39.4177 32.0504C39.3865 32.0505 39.3557 32.0491 39.3247 32.0484C38.8449 32.0335 38.373 31.922 37.9372 31.7205Z" fill="#2671E5"/>
<path d="M21.3954 17.5325C20.2985 16.8087 19.1864 16.1081 18.0591 15.4306C17.0649 14.8301 15.9944 15.4362 15.9662 16.5995C15.9496 17.2852 15.9632 17.9716 15.964 18.6577C15.9648 19.3628 15.9515 20.0682 15.9679 20.773C15.9934 21.8664 17.0427 22.4942 17.9802 21.9483C19.132 21.2776 20.2663 20.5769 21.3829 19.8462C22.312 19.2385 22.3142 18.1389 21.3954 17.5325ZM20.482 18.8393C19.5248 19.4309 18.568 20.0231 17.6116 20.616C17.4456 20.7189 17.3174 20.7288 17.317 20.4824C17.3148 19.2106 17.316 17.9387 17.316 16.5465C18.4376 17.2512 19.4643 17.8953 20.4895 18.5417C20.6448 18.6396 20.6403 18.7415 20.482 18.8393Z" fill="#2671E5"/>
<path d="M25.9973 40.0904C26.4033 40.0639 26.6508 39.8345 26.6664 39.4537C26.676 39.3679 26.667 39.281 26.64 39.1991C26.6129 39.1171 26.5685 39.0419 26.5097 38.9787C26.451 38.9155 26.3792 38.8657 26.2994 38.8328C26.2196 38.7998 26.1337 38.7845 26.0474 38.7879C25.6225 38.7716 25.3675 39.0084 25.3614 39.439C25.3556 39.8504 25.6163 40.0401 25.9973 40.0904Z" fill="#2671E5"/>
<path d="M28.7162 40.083C29.1088 40.025 29.3603 39.8143 29.3393 39.4037C29.3188 39 29.0628 38.7704 28.6599 38.7892C28.2605 38.8078 28.0153 39.0554 28.0321 39.4582C28.0488 39.8615 28.3155 40.0595 28.7162 40.083Z" fill="#2671E5"/>
<path d="M41.15 28.3403C41.3031 28.1876 41.4266 28.0234 41.4096 27.7743C41.4177 27.652 41.3871 27.5302 41.3222 27.4262C41.2573 27.3222 41.1613 27.2412 41.0479 27.1947C40.9289 27.1298 40.7917 27.1063 40.658 27.128C40.5242 27.1497 40.4014 27.2153 40.309 27.3144C39.9542 27.633 39.6168 27.9704 39.2981 28.3252C38.9368 28.7497 38.6391 28.949 38.1963 28.3978C37.9359 28.0737 37.5422 28.0802 37.2397 28.3964C36.9555 28.6935 37.0014 29.031 37.2637 29.3208C37.545 29.6314 37.8453 29.9262 38.1515 30.2127C38.5752 30.6092 38.8632 30.61 39.2865 30.1987C39.9157 29.5875 40.5288 28.9597 41.15 28.3403Z" fill="#2671E5"/>
<path d="M29.0223 27.2091C28.9072 27.1377 28.7714 27.107 28.6367 27.1218C28.502 27.1366 28.3761 27.1961 28.2792 27.2908C27.9357 27.5922 27.6087 27.9119 27.2997 28.2486C26.9245 28.6692 26.6036 28.9984 26.1006 28.3686C25.8548 28.0608 25.4697 28.1041 25.189 28.3905C24.9027 28.6827 24.932 29.0186 25.1997 29.3106C25.4954 29.6331 25.8141 29.9346 26.1259 30.2421C26.4985 30.6096 26.8637 30.5733 27.2211 30.2156C27.84 29.596 28.4596 28.977 29.0798 28.3586C29.2458 28.1931 29.388 28.0179 29.3623 27.767C29.3664 27.651 29.3364 27.5363 29.2759 27.4371C29.2155 27.3379 29.1273 27.2587 29.0223 27.2091Z" fill="#2671E5"/>
</g>
<defs>
<clipPath id="clip0_609_779">
<rect width="56" height="56" fill="white"/>
</clipPath>
</defs>
</svg>
