<svg width="56" height="56" viewBox="0 0 56 56" fill="none" xmlns="http://www.w3.org/2000/svg">
<rect width="56" height="56" rx="4" fill="white"/>
<path fill-rule="evenodd" clip-rule="evenodd" d="M27.6076 4C14.019 4 3 15.0165 3 28.6076C3 39.4803 10.0508 48.7039 19.8282 51.9581C21.0576 52.1863 21.5091 51.4243 21.5091 50.7744C21.5091 50.1876 21.4863 48.2491 21.4757 46.1929C14.6298 47.6815 13.1853 43.2895 13.1853 43.2895C12.0659 40.4453 10.453 39.6889 10.453 39.6889C8.21997 38.1617 10.6213 38.1935 10.6213 38.1935C13.0919 38.3666 14.3935 40.7293 14.3935 40.7293C16.5882 44.4904 20.1501 43.4032 21.5543 42.7749C21.7752 41.1844 22.4129 40.0985 23.1166 39.484C17.651 38.8626 11.9049 36.7522 11.9049 27.3232C11.9049 24.6366 12.8666 22.4414 14.4407 20.7178C14.1848 20.0984 13.3425 17.5956 14.6787 14.206C14.6787 14.206 16.7447 13.5447 21.4472 16.7284C23.4104 16.1828 25.516 15.9085 27.6076 15.8992C29.698 15.9085 31.8048 16.182 33.7717 16.7276C38.4685 13.5439 40.532 14.2052 40.532 14.2052C41.8715 17.5943 41.0292 20.0976 40.7737 20.7169C42.3515 22.4406 43.3062 24.6358 43.3062 27.3224C43.3062 36.7737 37.5496 38.8544 32.0701 39.464C32.9531 40.2277 33.7395 41.7256 33.7395 44.021C33.7395 47.3135 33.711 49.9634 33.711 50.7739C33.711 51.4288 34.1544 52.1961 35.4013 51.9544C45.173 48.697 52.2156 39.4762 52.2156 28.6076C52.2152 15.0174 41.1975 4 27.6076 4Z" fill="#181616"/>
<path d="M12.3201 39.3309C12.2659 39.4531 12.0736 39.4898 11.8984 39.4062C11.7191 39.3264 11.6192 39.1597 11.6771 39.0371C11.7301 38.9107 11.9228 38.8761 12.1009 38.9605C12.2802 39.0407 12.382 39.209 12.3197 39.3313L12.3201 39.3309ZM13.3168 40.4429C13.1999 40.5517 12.9705 40.5012 12.8148 40.3288C12.6534 40.1577 12.6233 39.9282 12.7427 39.8178C12.8641 39.7094 13.0866 39.7608 13.248 39.9319C13.4085 40.1055 13.4403 40.3329 13.3172 40.4433L13.3168 40.4429ZM14.2875 41.8598C14.1367 41.9649 13.8898 41.8667 13.7374 41.6479C13.5866 41.4286 13.5866 41.1658 13.7414 41.0611C13.8934 40.9559 14.1367 41.0509 14.2916 41.2677C14.4415 41.4898 14.4415 41.753 14.2875 41.8598ZM15.6163 43.2293C15.4818 43.3781 15.1941 43.3381 14.9839 43.1356C14.7691 42.9372 14.7092 42.6548 14.8441 42.5064C14.981 42.3573 15.2699 42.3989 15.4814 42.6002C15.6962 42.7982 15.761 43.081 15.6171 43.2289L15.6163 43.2293ZM17.45 44.0243C17.3901 44.2171 17.1138 44.3047 16.8347 44.2224C16.5564 44.138 16.3742 43.9127 16.4313 43.7179C16.4883 43.5235 16.7667 43.4327 17.0474 43.5203C17.3257 43.6042 17.5079 43.8283 17.45 44.0243ZM19.4643 44.1715C19.4712 44.3744 19.2348 44.5423 18.9427 44.5463C18.648 44.5533 18.4097 44.3886 18.4068 44.189C18.4068 43.984 18.6383 43.8182 18.9325 43.8125C19.2246 43.8072 19.4647 43.9702 19.4647 44.171L19.4643 44.1715ZM21.3379 43.8528C21.3729 44.0504 21.1696 44.2538 20.8791 44.308C20.5938 44.3609 20.329 44.2379 20.2923 44.0419C20.2572 43.8389 20.4642 43.6356 20.7495 43.583C21.0404 43.5329 21.3012 43.6519 21.3379 43.8528Z" fill="#181616"/>
</svg>
