<svg width="57" height="56" viewBox="0 0 57 56" fill="none" xmlns="http://www.w3.org/2000/svg">
<rect x="0.0629883" width="56" height="56" rx="4" fill="white"/>
<path d="M14.0627 4C8.55174 4 4.06299 8.48875 4.06299 13.9998C4.06299 18.826 7.50586 22.8689 12.0632 23.7985V37.9998C12.0632 42.4135 15.6932 46 20.0627 46H20.1359C20.6241 49.3836 23.5484 52 27.0632 52C30.9175 52 34.063 48.8545 34.063 45.0002C34.063 41.146 30.9175 37.9998 27.0632 37.9998C23.5487 37.9998 20.6245 40.6161 20.1359 43.9998H20.0627C16.7864 43.9998 14.0627 41.3177 14.0627 37.9998V27.9171C14.7099 28.5775 15.4825 29.1019 16.3351 29.4596C17.1877 29.8173 18.1031 30.0011 19.0277 30.0002H20.1359C20.6245 33.3839 23.5484 36.0002 27.0632 36.0002C30.5777 36.0002 33.5016 33.3839 33.9895 30.0002H38.1359C38.6245 33.3839 41.5484 36.0002 45.0632 36.0002C48.9175 36.0002 52.063 32.854 52.063 28.9998C52.063 25.1455 48.9175 22 45.0632 22C41.5484 22 38.6241 24.6164 38.1359 28H33.9899C33.502 24.6164 30.5781 22 27.0632 22C23.5484 22 20.6241 24.6164 20.1359 28H19.0277C16.6154 28 14.6054 26.2791 14.1572 23.998C19.6247 23.947 24.0632 19.4793 24.0632 13.9998C24.0632 8.48875 19.5737 4 14.0627 4ZM14.0627 6.00025C15.1139 5.99817 16.1551 6.20367 17.1266 6.60493C18.0981 7.0062 18.9808 7.59535 19.7241 8.33858C20.4674 9.0818 21.0567 9.96448 21.458 10.936C21.8594 11.9074 22.065 12.9486 22.063 13.9998C22.065 15.0509 21.8594 16.0921 21.458 17.0636C21.0567 18.0352 20.4675 18.9179 19.7242 19.6612C18.9809 20.4045 18.0982 20.9937 17.1266 21.395C16.1551 21.7964 15.1139 22.002 14.0627 22C13.0116 22.002 11.9704 21.7964 10.999 21.395C10.0275 20.9937 9.14479 20.4044 8.40156 19.6611C7.65834 18.9178 7.06919 18.0351 6.66792 17.0636C6.26665 16.0921 6.06116 15.0509 6.06324 13.9998C6.06116 12.9487 6.26666 11.9075 6.66794 10.936C7.06921 9.96454 7.65837 9.08186 8.40161 8.33862C9.14484 7.59539 10.0275 7.00623 10.999 6.60495C11.9705 6.20367 13.0116 5.99817 14.0627 6.00025ZM12.1071 8.82812C11.0642 8.83338 10.063 9.67113 10.063 10.8123V17.2034C10.063 18.7195 11.8289 19.702 13.1174 18.9033L18.2301 15.7326C19.4515 14.9751 19.4579 13.1069 18.2421 12.3408L13.129 9.1195C12.8234 8.92634 12.4686 8.82519 12.1071 8.82812ZM12.0632 10.8123L17.1764 14.0327L12.0632 17.2034V10.8123ZM27.0632 24.0002C27.7204 23.9982 28.3714 24.1261 28.9789 24.3766C29.5864 24.6271 30.1384 24.9953 30.6031 25.4599C31.0677 25.9246 31.4359 26.4766 31.6864 27.0841C31.9369 27.6916 32.0648 28.3426 32.0627 28.9998C32.0648 29.6569 31.9368 30.308 31.6863 30.9155C31.4358 31.523 31.0676 32.075 30.603 32.5397C30.1383 33.0044 29.5864 33.3727 28.9789 33.6233C28.3714 33.8739 27.7204 34.0019 27.0632 34C26.406 34.002 25.7549 33.874 25.1474 33.6234C24.5398 33.3728 23.9878 33.0046 23.5231 32.5399C23.0584 32.0752 22.6902 31.5232 22.4396 30.9156C22.189 30.3081 22.061 29.6569 22.063 28.9998C22.0611 28.3426 22.1891 27.6916 22.4397 27.0841C22.6903 26.4766 23.0586 25.9246 23.5233 25.46C23.988 24.9954 24.54 24.6272 25.1475 24.3767C25.755 24.1261 26.4061 23.9982 27.0632 24.0002ZM45.0632 24.0002C45.7204 23.9982 46.3714 24.1261 46.9789 24.3766C47.5864 24.6271 48.1384 24.9953 48.6031 25.4599C49.0677 25.9246 49.4359 26.4766 49.6864 27.0841C49.9369 27.6916 50.0648 28.3426 50.0627 28.9998C50.0648 29.6569 49.9368 30.308 49.6863 30.9155C49.4358 31.523 49.0676 32.075 48.603 32.5397C48.1383 33.0044 47.5864 33.3727 46.9789 33.6233C46.3714 33.8739 45.7204 34.0019 45.0632 34C44.406 34.002 43.7549 33.874 43.1474 33.6234C42.5398 33.3728 41.9878 33.0046 41.5231 32.5399C41.0584 32.0752 40.6902 31.5232 40.4396 30.9156C40.189 30.3081 40.061 29.6569 40.063 28.9998C40.0611 28.3426 40.1891 27.6916 40.4397 27.0841C40.6903 26.4766 41.0586 25.9246 41.5233 25.46C41.988 24.9954 42.54 24.6272 43.1475 24.3767C43.755 24.1261 44.4061 23.9982 45.0632 24.0002ZM29.1002 26.6069C28.9689 26.6068 28.8387 26.6325 28.7173 26.6827C28.5959 26.7329 28.4856 26.8065 28.3926 26.8994L26.0301 29.2596L25.2452 28.4781C25.0574 28.2909 24.8029 28.186 24.5377 28.1865C24.2725 28.1869 24.0184 28.2926 23.8311 28.4804C23.7384 28.5734 23.665 28.6839 23.615 28.8053C23.5649 28.9268 23.5393 29.0569 23.5396 29.1882C23.5399 29.3196 23.5661 29.4496 23.6166 29.5709C23.6671 29.6921 23.741 29.8022 23.8341 29.8949L25.3244 31.3799C25.5119 31.5667 25.7658 31.6716 26.0306 31.6715C26.2953 31.6715 26.5492 31.5665 26.7366 31.3795L29.806 28.3142C29.8989 28.2214 29.9727 28.1112 30.023 27.9899C30.0733 27.8686 30.0993 27.7385 30.0993 27.6072C30.0994 27.4758 30.0736 27.3457 30.0234 27.2243C29.9732 27.103 29.8996 26.9927 29.8067 26.8998C29.6193 26.7125 29.3652 26.6069 29.1002 26.6069ZM47.1002 26.6069C46.9689 26.6068 46.8387 26.6325 46.7173 26.6827C46.5959 26.7329 46.4856 26.8065 46.3926 26.8994L44.0301 29.2596L43.2452 28.4781C43.0574 28.2909 42.8029 28.186 42.5377 28.1865C42.2725 28.1869 42.0184 28.2926 41.8311 28.4804C41.7384 28.5734 41.665 28.6839 41.615 28.8053C41.5649 28.9268 41.5393 29.0569 41.5396 29.1882C41.5399 29.3196 41.5661 29.4496 41.6166 29.5709C41.6671 29.6921 41.741 29.8022 41.8341 29.8949L43.3244 31.3799C43.5119 31.5667 43.7658 31.6716 44.0306 31.6715C44.2953 31.6715 44.5492 31.5665 44.7366 31.3795L47.806 28.3142C47.8989 28.2214 47.9727 28.1112 48.023 27.9899C48.0733 27.8686 48.0993 27.7385 48.0993 27.6072C48.0994 27.4758 48.0736 27.3457 48.0234 27.2243C47.9732 27.103 47.8996 26.9927 47.8067 26.8998C47.6193 26.7125 47.3652 26.6069 47.1002 26.6069ZM27.0632 40C27.7204 39.9981 28.3714 40.1261 28.9789 40.3767C29.5864 40.6273 30.1383 40.9956 30.603 41.4603C31.0676 41.925 31.4358 42.477 31.6863 43.0845C31.9368 43.692 32.0648 44.3431 32.0627 45.0002C32.0648 45.6574 31.9369 46.3084 31.6864 46.9159C31.4359 47.5234 31.0677 48.0754 30.6031 48.5401C30.1384 49.0047 29.5864 49.3729 28.9789 49.6234C28.3714 49.8739 27.7204 50.0018 27.0632 49.9998C26.4061 50.0018 25.755 49.8739 25.1475 49.6233C24.54 49.3728 23.988 49.0046 23.5233 48.54C23.0586 48.0754 22.6903 47.5234 22.4397 46.9159C22.1891 46.3084 22.0611 45.6574 22.063 45.0002C22.061 44.3431 22.189 43.6919 22.4396 43.0844C22.6902 42.4768 23.0584 41.9248 23.5231 41.4601C23.9878 40.9954 24.5398 40.6272 25.1474 40.3766C25.7549 40.126 26.406 39.998 27.0632 40ZM25.063 43.5002C24.2406 43.5002 23.563 44.1779 23.563 45.0002C23.563 45.8234 24.241 46.5002 25.063 46.5002C25.885 46.5002 26.563 45.8234 26.563 45.0002C26.563 44.1779 25.8854 43.5002 25.063 43.5002ZM29.0627 43.5002C28.2404 43.5002 27.5627 44.1779 27.5627 45.0002C27.5627 45.8234 28.2407 46.5002 29.0627 46.5002C29.8847 46.5002 30.5627 45.8234 30.5627 45.0002C30.5627 44.1779 29.8851 43.5002 29.0627 43.5002ZM25.063 44.5C25.3442 44.5 25.5632 44.7194 25.5632 45.0002C25.5632 45.2826 25.3446 45.4998 25.063 45.4998C24.7817 45.4998 24.5627 45.2822 24.5627 45.0002C24.5627 44.719 24.7821 44.5 25.063 44.5ZM29.0627 44.5C29.344 44.5 29.563 44.7194 29.563 45.0002C29.563 45.2826 29.3444 45.4998 29.0627 45.4998C28.7815 45.4998 28.5632 45.2822 28.5632 45.0002C28.5632 44.719 28.7819 44.5 29.0627 44.5Z" fill="#2088FF"/>
<path d="M45.0622 37.9995C41.5436 37.9995 38.6167 40.6219 38.1333 44.0111C38.1003 44.0081 38.0671 44.0067 38.034 44.007L37.0215 44.0408C36.7565 44.0495 36.5058 44.163 36.3246 44.3565C36.1433 44.5499 36.0462 44.8074 36.0547 45.0724C36.0634 45.3374 36.177 45.5881 36.3706 45.7694C36.5641 45.9507 36.8217 46.0477 37.0867 46.0391L38.0992 46.0065C38.1113 46.006 38.1235 46.0052 38.1356 46.0043C38.6257 49.3856 41.5488 51.9998 45.0622 51.9998C48.9165 51.9998 52.062 48.8543 52.062 45C52.062 41.1458 48.9165 37.9995 45.0622 37.9995ZM45.0622 39.9998C45.7194 39.9978 46.3704 40.1259 46.9779 40.3765C47.5854 40.6271 48.1373 40.9953 48.602 41.46C49.0666 41.9248 49.4348 42.4767 49.6853 43.0843C49.9358 43.6918 50.0637 44.3429 50.0617 45C50.0638 45.6571 49.9359 46.3082 49.6854 46.9157C49.4349 47.5232 49.0667 48.0752 48.602 48.5398C48.1374 49.0045 47.5854 49.3727 46.9779 49.6232C46.3704 49.8737 45.7193 50.0016 45.0622 49.9995C44.4051 50.0015 43.754 49.8736 43.1465 49.6231C42.5389 49.3726 41.987 49.0044 41.5222 48.5398C41.0575 48.0751 40.6893 47.5232 40.4387 46.9157C40.1881 46.3082 40.06 45.6572 40.062 45C40.06 44.3428 40.188 43.6917 40.4385 43.0842C40.6891 42.4766 41.0574 41.9246 41.5221 41.4599C41.9868 40.9952 42.5388 40.6269 43.1464 40.3763C43.7539 40.1258 44.405 39.9978 45.0622 39.9998Z" fill="#79B8FF"/>
</svg>
