<svg width="57" height="56" viewBox="0 0 57 56" fill="none" xmlns="http://www.w3.org/2000/svg">
<g clip-path="url(#clip0_611_588)">
<path d="M43.3672 0H13.6172C6.36845 0 0.492188 5.87626 0.492188 13.125V42.875C0.492188 50.1237 6.36845 56 13.6172 56H43.3672C50.6159 56 56.4922 50.1237 56.4922 42.875V13.125C56.4922 5.87626 50.6159 0 43.3672 0Z" fill="white"/>
<path d="M48.7756 25.4745C48.6981 24.7752 48.6203 23.9203 48.3094 22.9878C48.0762 22.0552 47.6877 21.0451 47.1439 19.9572C46.5999 18.8692 45.9005 17.7813 45.0457 16.6934C44.7348 16.3048 44.3463 15.8386 43.8802 15.45C44.5016 12.9634 43.1032 10.8652 43.1032 10.8652C40.7717 10.7098 39.2175 11.5646 38.6735 12.0309C38.5958 12.0309 38.5182 11.9532 38.3626 11.8754C37.9743 11.72 37.5856 11.5646 37.1195 11.4092C36.6533 11.2538 36.2646 11.1761 35.7984 11.0206C35.3321 10.9429 34.8657 10.8652 34.4774 10.7875C34.3995 10.7875 34.3219 10.7875 34.2442 10.7875C33.2338 7.52375 30.2809 6.125 30.2809 6.125C27.0174 8.22314 26.3957 11.0984 26.3957 11.0984C26.3957 11.0984 26.3957 11.1761 26.3957 11.2538C26.2402 11.3315 26.007 11.3315 25.8517 11.4092C25.6185 11.4869 25.3853 11.5646 25.0744 11.6423C24.8415 11.72 24.6083 11.7977 24.2974 11.9532C23.8313 12.1863 23.2872 12.4194 22.8211 12.6525C22.3547 12.8856 21.8885 13.1965 21.4223 13.5073C21.3445 13.5073 21.3445 13.4296 21.3445 13.4296C16.7597 11.72 12.7189 13.8182 12.7189 13.8182C12.3303 18.6361 14.5062 21.7444 14.9724 22.2884C14.8947 22.5993 14.7393 22.9101 14.6616 23.221C14.3508 24.3088 14.0399 25.4745 13.8845 26.6402C13.8845 26.7956 13.8068 26.9509 13.8068 27.1064C9.61052 29.2044 8.36719 33.4784 8.36719 33.4784C11.8641 37.5193 15.9826 37.7523 15.9826 37.7523C16.5266 38.6851 17.0706 39.5397 17.7699 40.3944C18.0808 40.7052 18.3916 41.0939 18.6247 41.4048C17.3814 45.057 18.7801 48.0878 18.7801 48.0878C22.6656 48.2431 25.23 46.3781 25.774 45.9119C26.1625 46.0672 26.551 46.1449 26.9395 46.3004C28.1052 46.6112 29.3486 46.7668 30.5918 46.8442C30.9026 46.8442 31.2137 46.8442 31.5245 46.8442H31.6798H31.7575H31.9128H32.0683C33.9334 49.4863 37.1195 49.875 37.1195 49.875C39.4507 47.4659 39.5283 45.057 39.5283 44.513C39.5283 44.4353 39.5283 44.4353 39.5283 44.4353V44.3577C39.9945 44.0468 40.4607 43.6583 40.9272 43.2698C41.8596 42.415 42.6366 41.4824 43.3361 40.4723C43.4138 40.3944 43.4914 40.3169 43.4914 40.1614C46.1335 40.3169 47.9209 38.5295 47.9209 38.5295C47.4545 35.8096 45.9003 34.4886 45.5895 34.2556C45.5895 34.2556 45.5895 34.2556 45.512 34.2556C45.512 34.1001 45.512 33.9445 45.512 33.7892C45.512 33.4784 45.512 33.1675 45.512 32.9346V32.5461V32.4682V32.3905C45.512 32.3127 45.512 32.3127 45.512 32.3127V32.1573V31.9244C45.512 31.8465 45.512 31.7688 45.512 31.6912C45.512 31.6135 45.512 31.5357 45.512 31.458V31.2248V30.9916C45.4342 30.681 45.4342 30.3702 45.3565 30.137C45.0457 28.9715 44.6572 27.8834 44.0355 26.8732C43.4138 25.863 42.7144 25.0082 41.8596 24.2312C41.0047 23.4539 40.0724 22.9101 39.0622 22.4437C38.0518 21.9776 37.0416 21.7444 35.9538 21.589C35.4097 21.5113 34.9436 21.5113 34.3995 21.5113H34.2442H34.1666H34.0887H34.011H33.8557C33.7778 21.5113 33.7002 21.5113 33.6225 21.5113C33.3893 21.5113 33.0785 21.589 32.8455 21.589C31.8353 21.7444 30.8249 22.1329 29.9703 22.6769C29.1154 23.221 28.3384 23.8427 27.7167 24.542C27.095 25.2413 26.6287 26.0962 26.3178 26.9509C26.007 27.8058 25.8517 28.6604 25.774 29.5153C25.774 29.7485 25.774 29.9038 25.774 30.137C25.774 30.2146 25.774 30.2146 25.774 30.2925V30.4478C25.774 30.5255 25.774 30.681 25.774 30.7587C25.8517 31.1472 25.9293 31.6135 26.007 32.002C26.2402 32.779 26.6287 33.4784 27.0174 34.1001C27.4835 34.7218 28.0276 35.1881 28.5716 35.5764C29.1154 35.9651 29.7371 36.276 30.3588 36.4313C30.9805 36.5868 31.5245 36.6645 32.146 36.6645C32.2236 36.6645 32.3015 36.6645 32.3792 36.6645H32.4568H32.5347C32.6123 36.6645 32.69 36.6645 32.69 36.6645C32.69 36.6645 32.69 36.6645 32.7677 36.6645H32.8455H32.9232C33.0008 36.6645 33.0785 36.6645 33.1564 36.6645C33.2338 36.6645 33.3117 36.6645 33.3893 36.5868C33.5447 36.5868 33.6225 36.5092 33.7778 36.5092C34.011 36.4313 34.2442 36.3536 34.4774 36.1983C34.7104 36.1204 34.8657 35.9651 35.0989 35.8096C35.1765 35.8096 35.1767 35.7322 35.2544 35.6543C35.4876 35.499 35.4876 35.1881 35.3321 35.0326C35.1768 34.8773 34.9436 34.7994 34.7882 34.9549C34.7104 34.9549 34.7104 35.0326 34.6327 35.0326C34.4774 35.1103 34.3219 35.1881 34.0887 35.2656C33.9334 35.3434 33.7002 35.3434 33.5447 35.4211C33.467 35.4211 33.3117 35.4211 33.2338 35.4211C33.1564 35.4211 33.1564 35.4211 33.0785 35.4211C33.0008 35.4211 33.0008 35.4211 32.9232 35.4211C32.8455 35.4211 32.8455 35.4211 32.7677 35.4211C32.69 35.4211 32.6123 35.4211 32.6123 35.4211H32.5347H32.4568C32.3792 35.4211 32.3792 35.4211 32.3015 35.4211C31.8353 35.3434 31.4466 35.2656 30.9805 35.0326C30.5141 34.8773 30.1256 34.5664 29.7369 34.2556C29.3486 33.9445 29.0377 33.4784 28.8046 33.0899C28.5716 32.7014 28.3384 32.1573 28.2605 31.6135C28.1829 31.3803 28.1829 31.0695 28.1829 30.8363C28.1829 30.7587 28.1829 30.681 28.1829 30.6033V30.5255V30.4478C28.1829 30.2925 28.1829 30.137 28.2605 29.9814C28.4937 28.8159 29.0378 27.7281 29.9703 26.7956C30.2035 26.5624 30.4364 26.4068 30.6696 26.1737C30.9026 26.0183 31.2137 25.863 31.4466 25.7075C31.7575 25.5522 32.0683 25.4745 32.3015 25.3967C32.6123 25.319 32.9232 25.2413 33.2338 25.2413C33.3893 25.2413 33.5447 25.2413 33.7002 25.2413C33.7778 25.2413 33.7778 25.2413 33.7778 25.2413H33.9334H34.011H34.1666C34.4774 25.2413 34.8657 25.319 35.1765 25.3967C35.8761 25.5522 36.4976 25.7854 37.1195 26.1737C38.3626 26.8732 39.3728 27.9613 40.0724 29.2044C40.3832 29.8261 40.6164 30.5255 40.7717 31.2248C40.7717 31.3803 40.8494 31.6135 40.8494 31.7688V31.9244V32.0797C40.8494 32.1573 40.8494 32.1573 40.8494 32.2352C40.8494 32.3127 40.8494 32.3127 40.8494 32.3905V32.5461V32.7014C40.8494 32.779 40.8494 32.9343 40.8494 33.0122C40.8494 33.2454 40.8494 33.4007 40.7717 33.6339C40.7717 33.7892 40.6941 34.0224 40.6941 34.1777C40.6941 34.3332 40.6162 34.5664 40.5385 34.7217C40.4607 35.1102 40.3053 35.499 40.15 35.8096C39.8392 36.5092 39.4507 37.2085 38.9843 37.9078C38.0518 39.1512 36.8086 40.2391 35.3321 40.8608C34.6327 41.1716 33.8557 41.4048 33.0785 41.5601C32.69 41.638 32.3015 41.638 31.9128 41.7154H31.8353H31.7575H31.6019H31.4466H31.369C31.1358 41.7154 30.9805 41.7154 30.7473 41.7154C29.8926 41.638 29.0378 41.4824 28.2605 41.2492C27.4835 41.0163 26.6287 40.7052 25.9293 40.3169C24.453 39.5397 23.1317 38.4519 22.0439 37.1306C21.5 36.5092 21.0337 35.8096 20.7229 35.0326C20.3343 34.2556 20.0235 33.4784 19.7904 32.7014C19.5572 31.9244 19.4018 31.0695 19.4018 30.2925V30.137V30.0593V29.9038V29.4376V29.3598V29.2044V29.1268C19.4018 29.0491 19.4018 28.8936 19.4018 28.8159C19.4018 28.4274 19.4795 27.9613 19.4795 27.5726C19.5572 27.1841 19.6349 26.7177 19.7127 26.3294C19.7904 25.9407 19.8681 25.4745 20.0235 25.0858C20.2566 24.3088 20.5674 23.5318 20.8783 22.7546C21.5777 21.2782 22.4324 19.9572 23.5204 18.9469C23.7534 18.7138 24.0643 18.403 24.3751 18.1698C24.6859 17.9367 24.9968 17.7036 25.3076 17.5482C25.6185 17.315 25.9293 17.1596 26.2402 17.0042C26.3957 16.9265 26.551 16.8488 26.7065 16.7711C26.7842 16.7711 26.8618 16.6934 26.9395 16.6934C27.0172 16.6934 27.095 16.6157 27.1727 16.6157C27.4835 16.4603 27.872 16.3825 28.1829 16.2271C28.2605 16.2271 28.3384 16.1494 28.4161 16.1494C28.4937 16.1494 28.5716 16.0717 28.649 16.0717C28.8046 15.994 29.0377 15.994 29.1931 15.9163C29.2707 15.9163 29.3486 15.8386 29.5039 15.8386C29.5816 15.8386 29.6594 15.8386 29.8148 15.7609C29.8926 15.7609 29.9703 15.7609 30.1256 15.6832H30.2809H30.4364C30.5141 15.6832 30.5918 15.6832 30.7473 15.6055C30.8249 15.6055 30.9805 15.6055 31.0581 15.5278C31.1358 15.5278 31.2913 15.5278 31.369 15.5278C31.4466 15.5278 31.5245 15.5278 31.6019 15.5278H31.7575H31.8353H31.9128C31.9907 15.5278 32.146 15.5278 32.2236 15.5278H32.3792H32.4568C32.5347 15.5278 32.6123 15.5278 32.69 15.5278C33.0785 15.5278 33.3893 15.5278 33.7778 15.5278C34.4774 15.5278 35.1765 15.6054 35.8761 15.7609C37.1971 15.994 38.4405 16.4603 39.6062 17.0042C40.7717 17.5482 41.7819 18.2475 42.6366 19.0246C42.7144 19.1023 42.7144 19.1023 42.7921 19.1801C42.8698 19.2578 42.8697 19.2578 42.9474 19.3355C43.0253 19.4132 43.1806 19.4909 43.2582 19.6463C43.3361 19.8017 43.4914 19.8017 43.5693 19.9572C43.647 20.1126 43.8023 20.1903 43.8802 20.268C44.2684 20.6565 44.5793 21.0451 44.8903 21.5113C45.512 22.2884 46.0561 23.1431 46.4443 23.9203C46.4443 23.998 46.5222 23.998 46.5222 24.0756C46.5222 24.1535 46.5999 24.1535 46.5999 24.2312C46.6775 24.3088 46.6775 24.3865 46.7552 24.542C46.8331 24.6197 46.8331 24.6973 46.9105 24.8528C46.9884 24.9305 46.9884 25.0082 47.066 25.1637C47.2216 25.5522 47.3771 25.863 47.4545 26.1737C47.6101 26.7177 47.7654 27.1841 47.8433 27.5726C47.9209 27.7281 48.0762 27.8834 48.2318 27.8057C48.3871 27.8057 48.5426 27.6504 48.5426 27.4947C48.8534 26.5624 48.8534 26.0183 48.7756 25.4745Z" fill="url(#paint0_linear_611_588)"/>
</g>
<defs>
<linearGradient id="paint0_linear_611_588" x1="28.7195" y1="61.698" x2="28.7195" y2="11.0869" gradientUnits="userSpaceOnUse">
<stop stop-color="#FFF100"/>
<stop offset="1" stop-color="#F05A28"/>
</linearGradient>
<clipPath id="clip0_611_588">
<rect width="56" height="56" fill="white" transform="translate(0.492188)"/>
</clipPath>
</defs>
</svg>
