<svg width="57" height="56" viewBox="0 0 57 56" fill="none" xmlns="http://www.w3.org/2000/svg">
<rect x="0.9375" width="56" height="56" rx="4" fill="white"/>
<path d="M50.9295 25.2516C50.8521 24.4387 50.6973 23.5097 50.465 22.4645C50.2328 21.4194 49.7683 20.3355 49.2263 19.1355C48.6457 17.9742 47.9102 16.7355 46.9424 15.6129C46.5554 15.1484 46.1295 14.7226 45.7037 14.2581C46.4005 11.5871 44.8908 9.22581 44.8908 9.22581C42.2973 9.07097 40.6715 10.0387 40.0908 10.4645C40.0134 10.4258 39.8586 10.3871 39.7812 10.3484C39.3554 10.1935 38.8908 10 38.4263 9.84516C37.9618 9.72903 37.4973 9.53548 37.0328 9.45806C36.5683 9.34194 36.065 9.22581 35.5231 9.14839C35.4457 9.14839 35.3683 9.10968 35.2521 9.10968C34.1683 5.54839 30.9166 4 30.9166 4C27.2005 6.4 26.5037 9.57419 26.5037 9.57419C26.5037 9.57419 26.5037 9.65161 26.465 9.72903C26.2328 9.76774 26.0779 9.84516 25.8844 9.88387C25.6134 9.96129 25.3424 10.0387 25.0715 10.1935L24.2586 10.5419C23.7166 10.8129 23.1747 11.0452 22.6328 11.3548C22.1295 11.6645 21.6263 11.9355 21.1231 12.2839C21.0457 12.2452 21.007 12.2065 21.007 12.2065C16.0134 10.271 11.6005 12.5935 11.6005 12.5935C11.2134 17.9355 13.6134 21.2258 14.0779 21.8452C13.9618 22.1935 13.8457 22.5032 13.7295 22.8129C13.3424 24.0129 13.0715 25.2516 12.9166 26.529C12.8779 26.6839 12.8779 26.9161 12.8392 27.071C8.23277 29.3548 6.87793 34.0387 6.87793 34.0387C10.7102 38.4516 15.2005 38.7226 15.2005 38.7226C15.7424 39.729 16.4392 40.7355 17.1747 41.6258C17.4844 42.0129 17.8328 42.3613 18.1424 42.7484C16.7489 46.7355 18.3747 50.1032 18.3747 50.1032C22.6715 50.2581 25.4973 48.2452 26.0779 47.7419C26.5037 47.8581 26.9295 48.0129 27.3554 48.129C28.6715 48.4774 30.0263 48.671 31.3424 48.7097H33.0844C35.0973 51.6129 38.6586 52 38.6586 52C41.1747 49.329 41.3295 46.7355 41.3295 46.1161V45.8839C41.8328 45.4968 42.336 45.1097 42.8779 44.6839C43.8844 43.7935 44.736 42.7097 45.5102 41.6258C45.5876 41.5484 45.6263 41.3935 45.7424 41.3161C48.607 41.471 50.5812 39.5355 50.5812 39.5355C50.1166 36.5548 48.4134 35.1226 48.065 34.8516L48.0263 34.8129L47.9876 34.7742L47.9489 34.7355C47.9489 34.5806 47.9876 34.3871 47.9876 34.1935C48.0263 33.8452 48.0263 33.5355 48.0263 33.2258V31.9484C48.0263 31.871 48.0263 31.7935 47.9876 31.6774L47.9489 31.4065L47.9102 31.1355C47.8715 30.7871 47.7941 30.4774 47.7554 30.1677C47.4457 28.8903 46.9424 27.6516 46.3231 26.6065C45.6263 25.4839 44.8134 24.5548 43.8844 23.7032C42.9554 22.8903 41.9102 22.1935 40.8263 21.729C39.7037 21.2258 38.6199 20.9161 37.4586 20.8C36.9166 20.7226 36.2973 20.7226 35.7553 20.7226H34.865C34.5554 20.7613 34.2844 20.8 34.0134 20.8387C32.8521 21.071 31.807 21.4968 30.8779 22.0387C29.9489 22.5806 29.136 23.3161 28.4392 24.129C27.7424 24.9419 27.2392 25.7935 26.8908 26.7226C26.5424 27.6129 26.3489 28.5806 26.3102 29.5097V30.5161C26.3102 30.6323 26.3102 30.7484 26.3489 30.8645C26.3876 31.329 26.465 31.7548 26.6199 32.1806C26.8908 33.0323 27.2779 33.8064 27.7812 34.4645C28.2844 35.1226 28.865 35.6645 29.4844 36.0903C30.1424 36.5161 30.7618 36.8258 31.4586 37.0194C32.1554 37.2129 32.7747 37.329 33.3941 37.2903H34.2844C34.3618 37.2903 34.4392 37.2516 34.5166 37.2516C34.5941 37.2516 34.6328 37.2129 34.7489 37.2129C34.865 37.1742 35.0586 37.1355 35.1747 37.0968C35.4457 37.0194 35.6779 36.8645 35.9489 36.7871C36.2199 36.671 36.4134 36.5161 36.607 36.4C36.6457 36.3613 36.7231 36.3226 36.7618 36.2839C36.9941 36.129 37.0328 35.8194 36.8392 35.5871C36.6844 35.4323 36.4134 35.3548 36.1812 35.471C36.1424 35.5097 36.1037 35.5097 36.0263 35.5484C35.8715 35.6258 35.6392 35.7032 35.4844 35.7806C35.2521 35.8194 35.0586 35.8968 34.8263 35.9355C34.7102 35.9355 34.5941 35.9742 34.4779 35.9742H33.7812H33.5102C33.4715 35.9742 33.3941 35.9742 33.3554 35.9355C32.8908 35.8581 32.3876 35.7032 31.9231 35.5097C31.4586 35.2774 30.9941 35.0065 30.607 34.6194C30.1812 34.2323 29.8328 33.8064 29.5231 33.3032C29.2134 32.8 29.0586 32.2194 28.9812 31.6774C28.9424 31.3677 28.9037 31.0968 28.9424 30.7871V30.5161V30.3226C28.9424 30.1677 28.9812 30.0129 29.0199 29.8581C29.2521 28.5806 29.8715 27.3419 30.8392 26.4129C31.1102 26.1419 31.3424 25.9484 31.6521 25.7548C31.9618 25.5226 32.2328 25.3677 32.5424 25.2516C32.8521 25.1355 33.2005 24.9806 33.5102 24.9032C33.8586 24.8258 34.207 24.7484 34.5166 24.7484C34.6715 24.7484 34.865 24.7097 35.0199 24.7097H35.3295H35.4844C35.8715 24.7484 36.2586 24.7871 36.607 24.8645C37.3424 25.0194 38.0392 25.2903 38.736 25.6774C40.0908 26.4516 41.2521 27.6129 41.9489 29.0065C42.2973 29.7032 42.5295 30.4387 42.6844 31.2516C42.7231 31.4839 42.7231 31.6387 42.7618 31.8323V32.8774C42.7618 33.1097 42.7231 33.3032 42.7231 33.5355C42.6844 33.7677 42.6844 33.9613 42.6457 34.1935C42.607 34.4258 42.5683 34.6194 42.5295 34.8516C42.4521 35.2774 42.2586 35.6645 42.1424 36.0903C41.8328 36.9032 41.407 37.6774 40.9037 38.3355C39.8973 39.729 38.465 40.8903 36.9166 41.6258C36.1037 41.9742 35.2908 42.2839 34.4392 42.4C34.0134 42.4774 33.5876 42.5161 33.1618 42.5161H32.5424H32.5037C32.2715 42.5161 32.0392 42.5161 31.807 42.4774C30.8779 42.4 29.9876 42.2064 29.0973 41.9742C28.207 41.7032 27.3553 41.3935 26.5424 40.9677C24.9166 40.1161 23.4844 38.8774 22.3231 37.4839C21.7812 36.7484 21.2392 35.9742 20.8134 35.2C20.3876 34.4258 20.0779 33.5355 19.8457 32.6839C19.5747 31.8323 19.4586 30.9419 19.4199 30.0516V28.6968C19.4199 28.271 19.4586 27.8065 19.536 27.3419C19.5747 26.8774 19.6521 26.4516 19.7683 25.9871C19.8457 25.5226 20.0005 25.0968 20.1166 24.6323C20.3876 23.7419 20.6586 22.8903 21.0457 22.0774C21.8199 20.4516 22.7876 19.0194 23.9489 17.8581C24.2586 17.5484 24.5295 17.3161 24.8779 17.0452C24.9941 16.929 25.3037 16.6581 25.6521 16.4645C26.0005 16.271 26.3489 16.0387 26.736 15.8839C26.8908 15.8065 27.0844 15.729 27.2779 15.6129C27.3554 15.5742 27.4328 15.5355 27.5876 15.4968C27.665 15.4581 27.7424 15.4194 27.8973 15.3806C28.2844 15.2258 28.6715 15.071 29.0586 14.9548C29.136 14.9161 29.2908 14.9161 29.3683 14.8774C29.4457 14.8387 29.6005 14.8387 29.6779 14.8C29.9102 14.7613 30.065 14.7226 30.2586 14.6452C30.336 14.6065 30.4908 14.6065 30.5683 14.5677C30.6457 14.5677 30.8005 14.529 30.8779 14.529C30.9554 14.529 31.1102 14.4903 31.1876 14.4903L31.3424 14.4516L31.4973 14.4129C31.5747 14.4129 31.7295 14.3742 31.807 14.3742C31.9231 14.3742 32.0392 14.3355 32.1554 14.3355C32.2328 14.3355 32.4263 14.2968 32.5037 14.2968C32.5812 14.2968 32.6199 14.2968 32.736 14.2581H33.007C33.1231 14.2581 33.2392 14.2581 33.3554 14.2194H33.5102H35.0973C35.8715 14.2581 36.6457 14.3355 37.3424 14.4903C38.7747 14.7613 40.207 15.2258 41.4457 15.8452C42.6844 16.4258 43.8457 17.2 44.7747 18.0129C44.8134 18.0516 44.8908 18.0903 44.9295 18.1677C44.9683 18.2065 45.0457 18.2452 45.0844 18.3226C45.2005 18.4 45.3166 18.5548 45.4328 18.6323C45.5489 18.7097 45.665 18.8645 45.7812 18.9419C45.8586 19.0581 46.0134 19.1742 46.0908 19.2903C46.5166 19.7161 46.9037 20.1806 47.2521 20.6065C47.9489 21.4968 48.4908 22.3871 48.9166 23.2387C48.9554 23.2774 48.9554 23.3161 48.9941 23.3935C49.0328 23.4323 49.0328 23.471 49.0715 23.5484C49.1102 23.6258 49.1489 23.7806 49.2263 23.8581C49.265 23.9355 49.3037 24.0903 49.3424 24.1677C49.3812 24.2452 49.4199 24.4 49.4586 24.4774C49.6134 24.8645 49.7683 25.2516 49.8844 25.6387C50.1166 26.2194 50.2328 26.7613 50.3489 27.1871C50.3876 27.3419 50.5812 27.4968 50.736 27.4968C50.9683 27.4968 51.0844 27.3419 51.0844 27.1097C50.9683 26.4516 50.9683 25.9097 50.9295 25.2516Z" fill="url(#paint0_linear_4064_13466)"/>
<defs>
<linearGradient id="paint0_linear_4064_13466" x1="28.9421" y1="62.8227" x2="28.9421" y2="19.0172" gradientUnits="userSpaceOnUse">
<stop stop-color="#FCEE1F"/>
<stop offset="1" stop-color="#F15B2A"/>
</linearGradient>
</defs>
</svg>
