<svg width="56" height="56" viewBox="0 0 56 56" fill="none" xmlns="http://www.w3.org/2000/svg">
<rect width="56" height="56" rx="4" fill="white"/>
<path d="M44.8348 27.1299C44.8348 36.6398 37.2977 44.3491 28.0004 44.3491C18.7026 44.3491 11.1655 36.6398 11.1655 27.1299C11.1655 17.6199 18.703 9.90991 28.0004 9.90991C37.2977 9.90991 44.8348 17.6199 44.8348 27.1299Z" fill="#D33833"/>
<path d="M11.8522 31.3944C11.8522 31.3944 10.6335 13.4376 27.1792 12.925L26.0249 11.0012L17.0463 14.0151L14.4813 16.9652L12.2366 21.2623L10.9541 26.2644L11.3385 29.5993" fill="#EF3D3A"/>
<path d="M16.4702 15.383C13.5167 18.4055 11.6889 22.5778 11.6889 27.194C11.6889 31.8091 13.5167 35.9825 16.4702 39.0042C19.4252 42.0256 23.4977 43.8905 28.0003 43.8905C32.5029 43.8905 36.5754 42.0256 39.5304 39.0042C42.4839 35.9825 44.312 31.8091 44.312 27.194C44.312 22.5778 42.4839 18.4051 39.5304 15.383C36.5754 12.3624 32.5029 10.4975 28.0003 10.4972C23.498 10.4975 19.4252 12.362 16.4702 15.3834V15.383ZM15.7228 39.7351C12.5841 36.5247 10.6431 32.0881 10.6431 27.194C10.6431 22.2991 12.5841 17.8629 15.7228 14.6525C18.8615 11.4414 23.2055 9.45129 28.0003 9.45166C32.7958 9.45091 37.1405 11.4414 40.2781 14.6525C43.4176 17.8629 45.3586 22.2995 45.3582 27.194C45.3582 32.0877 43.4176 36.5247 40.2781 39.7351C37.1405 42.9458 32.7958 44.9363 28.0006 44.9363C23.2055 44.9363 18.8608 42.9458 15.7228 39.7351Z" fill="#231F20"/>
<path d="M35.0864 27.2252L32.5211 27.6099L29.0579 27.9947L26.8132 28.0588L24.6326 27.995L22.9653 27.4817L21.4901 25.8785L20.3358 22.6078L20.0793 21.9024L18.54 21.3894L17.6422 19.9142L17.001 17.7977L17.7064 15.9377L19.3736 15.3609L20.7206 16.0022L21.3618 17.4129L22.1317 17.2847L22.3878 16.9641L22.1317 15.4892L22.0672 13.6292L22.452 11.0642L22.437 9.5987L23.6066 7.72933L25.6586 6.25408L29.2503 4.71509L33.2264 5.29221L36.6896 7.79346L38.293 10.3584L39.319 12.2184L39.5755 16.8358L38.8057 20.8123L37.3949 24.3392L36.0483 26.1992" fill="#F0D6B7"/>
<path d="M37.0102 25.3657L35.4716 26.9051V32.8691L34.1291 38.3666L33.4838 38.3842L33.9964 44.5409L36.4331 44.2203L35.8564 38.3201L34.7681 38.3497L37.7167 38.1915C37.7167 38.1915 39.1912 34.4718 39.1912 34.2795C39.1912 34.0871 40.4745 28.8926 40.4745 28.8926L37.5877 25.8787L37.0106 25.365L37.0102 25.3657ZM21.5547 26.3272L19.9515 26.9689L14.8208 30.4961L15.1418 31.5225L16.617 35.883L17.2579 43.1306L17.7068 43.8993L24.1197 46.0807L24.5052 45.6307L23.7353 40.2438V38.7052L32.9059 38.3201L33.6109 37.9353L28.0324 35.3058L29.0584 33.3183L27.5835 33.831L27.006 33.1256L26.2365 29.7907L25.5949 29.5984L24.1842 29.1491L22.9654 28.0594L21.5547 26.3272Z" fill="#335061"/>
<path d="M17.7067 15.9381L19.3739 15.3606L20.7209 16.0022L21.3622 17.413L22.1321 17.2847L22.3244 16.5152L21.9397 15.0403L22.3244 11.5127L22.0034 9.58898L23.1581 8.24198L25.6593 6.25411L24.9536 5.29224L21.4263 7.02361L19.9514 8.17823L19.1174 9.97372L17.8349 11.7051L17.4502 13.7575L17.7067 15.9381Z" fill="#6D6B6D"/>
<path d="M26.2919 5.50788C25.8524 5.50338 25.3383 5.54838 25.3383 5.54838L21.1702 7.15226L19.5663 8.75575L18.8609 10.0382L20.3362 9.91C20.3362 9.91 21.2981 7.537 25.1459 6.38276C27.5508 5.66126 27.0247 5.51576 26.2919 5.50788ZM22.0038 9.589L18.4766 10.4226L17.4502 13.7575L17.7067 15.9377L18.4117 15.4896C18.4117 15.4896 17.0651 10.9994 22.1954 10.3581L22.0038 9.589Z" fill="#DCD9D8"/>
<path d="M30.2447 4.17805C29.7508 4.18682 29.2622 4.28174 28.801 4.45855C24.9535 5.93342 22.1316 8.62666 22.1954 10.358C22.3049 13.307 22.2599 13.3093 22.2599 13.3093C22.2599 13.3093 23.3504 7.66517 28.8662 6.57467C33.4067 5.6773 35.7917 6.76667 36.6898 7.79267C36.6898 7.79267 33.5961 4.11017 30.2451 4.17767L30.2447 4.17805ZM37.1177 8.43429C36.9133 8.43316 35.2753 8.47479 35.215 10.0382C35.215 10.0382 35.215 10.2943 35.3432 10.5508C35.3432 10.5508 36.8185 8.88316 37.7162 9.78091L37.1391 8.43466C37.1391 8.43466 37.1316 8.43429 37.1177 8.43429ZM27.6733 9.18804C27.3583 9.19554 26.9699 9.32716 26.4925 9.65304C25.0817 10.6149 25.21 11.9619 25.4665 12.2184C25.723 12.4749 25.6536 12.9909 25.849 12.6365C26.044 12.2822 25.9799 11.1283 26.6852 10.8077C27.3906 10.487 28.5475 10.1282 28.9952 10.7244C28.9952 10.7244 28.7995 9.16216 27.6733 9.18841V9.18804ZM37.5872 13.1165C37.5872 13.1165 36.5305 13.3393 36.433 14.2708C36.3355 15.2019 37.5876 14.4628 37.7799 14.3986L37.5872 13.1162V13.1165ZM29.8273 13.1807C29.8273 13.1807 28.4166 13.373 28.4166 14.2708C28.4166 15.1685 30.0201 15.1044 30.469 14.7196L29.8273 13.1807ZM18.412 15.4899L16.9375 17.0281L17.194 18.9523L17.9627 20.9398L18.7971 21.197C17.5784 19.7221 18.1555 18.6954 18.412 17.2846C18.6681 15.8735 21.1056 17.3491 21.1056 17.3491L21.0411 16.3865L20.0796 15.6178L18.412 15.4899ZM32.8903 18.4325C32.4681 18.4138 32.3068 19.7956 32.2723 20.1523C32.3886 19.8073 33.4615 19.1135 33.4615 19.1135C33.4615 19.1135 33.4615 18.59 32.938 18.4408C32.9225 18.4362 32.9065 18.4334 32.8903 18.4325ZM32.2723 20.1523C32.2619 20.1786 32.2593 20.2074 32.2648 20.2351C32.2648 20.2351 32.2671 20.2048 32.2723 20.1523ZM21.3044 20.6401L20.4644 21.4539L20.6567 24.2758L22.7091 27.4824C22.7091 27.4824 25.0127 28.0021 24.7611 27.8034C22.0037 25.6227 21.8114 21.5821 21.7472 21.1329C21.6835 20.6844 21.3044 20.6401 21.3044 20.6401ZM28.5208 21.596C28.2677 21.5998 28.1001 21.6815 28.0528 21.7445C27.8927 21.9583 28.2242 23.1215 28.2242 23.1215L28.5448 23.186C28.4811 21.9031 29.2502 21.7745 29.2502 21.7745C28.966 21.638 28.7177 21.593 28.5208 21.596Z" fill="#F7E4CD"/>
<path d="M21.1058 26.2636L14.8208 30.4958L15.5262 32.4845L17.1942 39.6664L17.2579 43.4509L18.1557 43.7712C19.4382 40.6924 16.9377 30.7523 16.9377 30.7523L22.9654 28.0591L21.1058 26.2636ZM23.586 33.5566L23.4143 33.959C23.4143 33.959 23.2864 35.1132 23.2864 35.4338C23.2864 35.7548 23.4143 38.4488 23.4143 38.4488H24.4407V34.6002L23.5857 33.5562L23.586 33.5566ZM23.607 39.0256L20.7214 39.1538L21.5547 39.7313L23.607 40.0519V39.0256ZM37.0102 25.3655L35.7922 26.7121L40.2814 30.0473L40.4096 28.5083L37.0102 25.3659V25.3655ZM35.7278 37.9354L33.4838 38.3839L33.804 40.1802C34.6376 40.5649 36.0487 39.5386 36.0487 39.5386L35.7278 37.9354Z" fill="#49728B"/>
<path d="M22.9653 27.4823V28.0591L23.7806 28.9572L26.3456 30.1114L26.4101 28.1881L24.633 27.9946L22.9653 27.4823ZM41.7374 36.5888L39.685 37.2304L37.7163 38.1915L36.6704 38.0003L35.8559 38.3202L36.5429 43.7081L39.0434 43.002L43.7894 42.7455L44.4948 40.5653L43.2123 36.7815L41.7374 36.5888ZM33.4837 38.3839L29.7449 38.3847L23.7352 38.7049L23.8443 41.6558L24.5051 45.6308L25.8326 51.0191L28.7823 51.66L33.6566 51.2753L33.7203 50.313L33.1428 45.1185L33.4837 38.3839ZM33.9776 37.8717L32.5664 34.2803L31.0912 32.1638C31.0912 32.1638 31.4118 31.266 31.8611 31.266H33.3359L34.7467 31.779L34.6188 34.152L33.9776 37.8717Z" fill="white"/>
<path d="M23.543 28.3801L23.3506 28.637L24.4411 29.4061L26.2362 29.7905L26.1725 29.0217C25.5312 29.2141 23.543 28.3801 23.543 28.3801ZM32.4567 31.1375L30.9822 31.3295L33.4834 37.2297L33.9961 37.2942L34.2526 36.653C34.2526 36.653 32.4563 33.1895 32.4563 32.6765C32.4563 32.6765 32.7773 31.907 33.2262 32.099C33.6754 32.2917 34.6377 32.8047 34.6377 32.8047V31.5864L32.4567 31.1375ZM38.5497 37.8714L37.7161 38.1916L38.4214 41.7188C38.1649 41.6547 36.4977 42.425 36.4977 42.425L36.6889 43.451L37.3954 43.1941L39.6394 42.8738L40.281 43.7075L42.2048 43.7712L43.3594 43.5147L44.3854 41.9761L44.3209 40.8211L43.6159 38.7687C43.8083 40.3077 43.0384 41.7833 43.0384 41.7833C42.7178 41.7833 39.1268 41.5906 39.1268 41.5906C39.1268 41.2058 38.5497 37.8714 38.5497 37.8714ZM33.6109 37.9351L32.6491 38.3202C32.6491 38.3202 32.3288 44.9903 33.2907 49.736C33.2907 49.736 31.3669 50.9543 28.5447 51.2746L33.9316 51.0822L34.5732 50.6974L33.8037 40.1799L33.6109 37.9351ZM35.2872 44.7965C35.0112 44.798 34.6009 44.9937 34.3111 44.9746C34.2687 45.9875 34.4108 47.612 34.4584 48.6747C35.1319 48.6755 35.4203 48.5277 35.9232 48.3582C35.9798 47.1076 35.5268 45.95 35.3967 44.8081C35.361 44.7994 35.3239 44.7955 35.2872 44.7965Z" fill="#DCD9D8"/>
<path d="M35.7917 27.9317C34.9697 27.9699 33.8612 29.018 33.3448 29.2018C33.4116 29.3938 33.5211 29.5457 33.5293 29.7905C33.8912 29.7013 34.3318 29.7624 34.6457 29.9165C34.2827 29.957 33.8815 29.9548 33.6415 30.1276C33.5533 30.3815 33.6621 30.7276 33.6032 31.0801C34.4642 31.3231 35.4478 31.4529 36.5357 31.4848C36.748 31.2099 36.82 30.6849 36.7945 30.1655C36.7645 29.5393 36.5998 28.2515 36.2132 28.0262C36.0857 27.9523 35.944 27.9249 35.7917 27.9317ZM27.3411 28.2122C26.4696 28.2309 26.5604 29.7526 26.6027 30.6841C26.6384 31.4709 27.0482 32.3034 27.2252 32.8265C27.3092 33.0703 27.328 33.3298 27.5365 33.3778C27.9055 33.464 29.1227 32.9776 29.4696 32.7886C30.2027 32.3889 30.772 31.7536 31.3945 31.3273L31.4177 30.7055C31.0435 30.5188 30.6115 30.386 30.0614 30.362C30.4345 30.1745 30.9827 30.1771 31.3225 29.954L31.3322 29.7058C30.712 29.6582 30.4754 29.3818 30.0666 29.1579C29.3976 28.7927 28.3926 28.394 27.5286 28.229C27.4669 28.2169 27.404 28.2112 27.3411 28.2122ZM32.3773 29.5085C32.2116 29.51 32.014 29.5726 31.7886 29.7234C31.7459 30.1955 31.8561 30.3496 31.951 30.8915C33.2608 31.3014 33.2728 29.5025 32.3773 29.5085Z" fill="#D33833"/>
<path d="M35.7088 27.4829L33.272 28.8937L33.143 29.5987V31.0094L34.0408 31.3304C34.0408 31.3304 33.5919 30.6892 33.9129 30.4968C34.2335 30.3044 34.5545 30.4968 34.7469 30.1762C34.9393 29.8552 34.7469 29.6628 34.8107 29.278C34.8748 28.8933 35.1954 28.8295 35.516 28.7654C35.8367 28.7017 36.7348 28.573 36.863 28.8937L36.4783 27.7394L35.7088 27.4829ZM27.6328 27.8692C27.3152 27.8624 27.0257 27.9149 26.8134 28.0593C25.3056 29.0849 26.5209 31.4553 27.2597 32.8495C27.1971 32.048 27.1299 31.2469 27.0579 30.4462C26.9222 28.9537 27.4168 29.2143 28.7109 29.2143C28.9089 29.2143 29.9278 29.4498 30.0009 29.599C30.3508 30.3134 29.4159 30.1544 30.4037 30.6933C31.2377 31.1478 32.7107 30.4169 32.3739 29.4063C32.1853 29.1813 31.3914 29.3362 31.1068 29.1888L29.6038 28.4095C29.1658 28.1819 28.3318 27.8838 27.6328 27.8692ZM27.2593 32.8491C27.2751 33.0486 27.2916 33.2478 27.3069 33.4469L27.5364 33.3783C27.4599 33.2264 27.3643 33.0471 27.2597 32.8495L27.2593 32.8491Z" fill="#EF3D3A"/>
<path d="M29.3371 4.00215C27.9908 4.02765 26.6742 4.25152 25.5769 4.6554C24.7613 4.9554 23.9712 5.22389 23.255 5.64464C21.3383 6.76964 19.3036 7.52264 18.7355 9.78726C17.3352 10.4143 16.913 12.2064 16.9835 14.2861C16.997 14.6915 17.2171 15.1981 17.141 15.5795C17.102 15.773 16.8395 16.0209 16.787 16.1469C16.1157 17.747 16.6538 19.8504 17.4293 20.9877C17.8981 21.6747 18.6743 22.2841 19.6981 22.4457C19.739 23.0589 19.8863 23.5865 20.1695 24.2078C20.3487 24.6008 21.0181 25.3073 20.7717 25.8087C20.648 26.0615 19.5578 26.6101 19.1963 26.8272C17.9757 27.5592 17.0911 28.0081 15.9642 28.8192C15.2352 29.3442 14.0949 29.4117 14.2749 30.6222C14.396 31.439 14.861 32.4515 15.1268 33.2705C15.4148 34.1543 15.8273 34.9639 16.0643 35.8812C16.5912 37.9253 16.7011 39.8513 16.8293 41.8478C16.8796 42.6297 16.7963 43.4569 16.9992 43.8886C17.2085 44.3348 17.984 44.4773 18.5442 44.7376C20.1623 45.4857 21.8791 46.6283 24.0012 46.4014C24.5071 48.1024 24.9852 49.914 25.5923 51.4039C27.7684 52.1862 31.2038 52.0639 33.4662 51.792C34.1539 51.7088 34.8796 51.3694 35.0412 50.7732C34.9928 50.4057 34.9392 50.0419 34.9624 49.6073C35.6697 49.461 36.6323 49.3403 36.7879 48.5573C37.0062 47.4593 36.0945 45.8862 36.3987 44.6813C36.8082 44.5486 37.2454 44.4447 37.1802 43.7982C37.8702 43.4389 38.6888 43.3587 39.5625 43.3924C39.675 43.6099 39.8352 43.8192 39.9792 43.9388C41.2032 44.1848 42.3885 44.2051 43.4048 43.8736C44.5549 43.4978 45.1035 41.1454 44.8407 40.0261C44.6539 39.2329 44.2317 37.9336 43.8717 37.1656C42.8963 35.0806 39.9893 36.3893 38.4334 37.1626C39.1883 35.1769 39.8374 33.1182 40.5034 30.8907C40.7022 30.2232 41.0952 29.2771 41.007 28.5856C40.9245 27.9353 39.9105 27.2521 39.3769 26.7368C39.0803 26.4511 37.6973 25.4011 37.617 25.0081C37.5394 24.6278 38.181 23.7665 38.3873 23.3356C38.6835 22.7191 38.8958 21.9646 39.0417 21.4512C40.1292 17.6277 40.2398 12.3748 38.685 9.23151C38.0963 8.04089 36.45 6.39652 35.4207 5.61764C33.9027 4.47015 31.5799 3.96015 29.3371 4.00215ZM29.5163 5.06715C31.3339 5.04952 33.3552 5.69077 34.7239 6.46289C35.8677 7.10789 36.7114 8.35589 37.5162 9.39426C36.3878 9.05939 35.4274 9.63501 35.6025 10.5658C36.5472 9.69988 38.1608 10.5564 38.6382 11.5138C39.0945 12.4288 39.0915 13.7851 39.1617 15.1456C39.3315 18.4449 38.5579 21.8487 36.9 24.2333C36.4568 24.8701 36.0848 25.5661 35.4616 26.0045C33.9593 27.0593 31.6759 28.0156 29.7207 27.3597C27.1369 26.4927 25.9632 24.7711 24.542 22.7997C24.5806 23.8827 25.3422 24.7715 26.0944 25.5998C26.7488 26.3217 27.5386 27.1373 28.3883 27.4741C27.6796 27.3076 26.5913 27.2555 26.2958 27.8918C24.6421 27.782 23.1053 27.6128 22.3231 26.492C21.7066 25.6085 21.0803 24.1058 20.7995 22.9452C20.7421 22.7067 20.6438 22.199 20.6678 22.0689C20.7601 21.5652 21.6571 21.344 21.3042 20.6401C20.6532 20.6341 20.5066 21.2326 19.9092 21.2919C18.3623 21.4449 17.2711 19.2417 17.3412 17.9124C17.4008 16.7821 18.3563 15.7006 19.6632 15.8435C20.5868 15.9447 20.9007 16.9527 21.08 17.8497C21.6125 17.8782 22.3816 17.8269 22.6336 17.4114C22.5972 16.3977 22.1266 15.5847 22.1588 14.6532C22.2196 12.9028 23.1732 11.3233 22.4375 9.59901C23.225 7.81251 25.5353 6.40252 27.2442 5.55014C27.9061 5.22014 28.6902 5.07615 29.5167 5.0679L29.5163 5.06715ZM24.8146 5.94689C24.8888 5.95889 24.9571 6.01664 25.0231 6.08714C25.0118 6.39127 24.7118 6.38489 24.5093 6.48239C24.1943 6.86977 23.7338 7.05089 23.3506 7.47539C22.9572 7.91039 22.5173 9.07889 21.9961 9.20789C21.7347 9.27314 21.4362 9.16289 21.2086 9.17789C20.6067 9.21576 20.183 9.52401 19.5725 9.61251C20.3607 7.88939 22.8196 6.49514 24.7377 5.95177C24.7626 5.94447 24.7889 5.94281 24.8146 5.94689ZM28.0921 9.68676C27.1032 9.68788 25.9771 10.745 25.6834 11.5516C25.5642 11.8794 25.3759 12.5229 25.8488 12.6373C26.3787 11.4564 27.2472 10.3179 28.9951 10.7248C29.3307 10.1731 28.7307 9.76776 28.2874 9.70101C28.2226 9.69135 28.1576 9.68658 28.0921 9.68676ZM21.8461 9.86676C22.5218 11.5865 21.3612 13.6302 21.7936 15.5109C21.926 16.0869 22.3838 16.9809 21.6526 17.0004C21.6717 15.3616 19.6388 14.3217 18.107 15.2851C18.0046 14.0424 17.8272 12.2953 18.6747 11.363C19.4566 10.502 20.5343 9.96613 21.8461 9.86676ZM37.512 12.7156C37.4562 13.6595 37.8068 14.2276 38.0502 14.8951C37.6294 15.1599 36.8108 14.9949 36.3364 15.2022C36.3027 16.5984 38.4964 15.9102 38.8302 15.1329C38.3314 14.4084 37.9898 13.5391 37.5945 12.719L37.512 12.7153V12.7156ZM29.8902 12.737C29.6307 13.4735 30.3357 14.7237 30.7309 15.356C30.2161 15.8559 29.2902 15.4407 28.6013 15.4085C27.9439 16.4469 29.8849 16.6422 30.7178 16.3962C30.9458 16.3291 31.3403 15.9875 31.3947 15.8337C31.6261 15.1839 31.1596 14.8989 30.9196 14.6649C30.3871 14.1459 30.2648 13.4236 29.8902 12.737ZM33.8461 13.4158C33.7958 13.409 33.7354 13.427 33.6631 13.4795C33.6162 15.2105 34.9024 16.6434 35.8617 17.7995C36.3304 18.3639 36.8952 18.6864 36.375 19.5631C35.5365 19.8819 34.1794 20.795 33.0136 20.5955C32.3948 20.4897 32.5343 19.7874 32.3123 19.4056C31.8856 19.967 32.0528 20.8164 32.4923 21.1981C34.5469 21.4014 35.9453 20.5254 37.1993 19.7195C37.1494 19.4037 37.5788 18.8345 37.4595 18.3597C37.4183 18.1962 37.0463 17.9592 36.8205 17.7121C35.9007 16.709 34.6403 15.2101 34.1393 14.0379C34.0943 13.9329 34.0639 13.4446 33.8461 13.4158ZM19.2286 16.6539C18.7535 16.6464 18.323 16.9595 18.2213 17.6975C18.4321 17.5595 18.602 17.1669 18.9818 17.3536C18.6481 18.005 18.7283 19.2736 19.1825 19.6861C19.1798 18.9129 19.0595 17.591 19.7187 17.6311C20.1803 17.6589 20.2737 18.6474 20.6667 18.8716C20.9378 17.5674 20.021 16.6659 19.2286 16.6539ZM37.9977 20.5389C36.9953 20.9964 36.1864 21.6627 34.8769 21.7884C34.8135 22.0047 34.8406 22.5507 34.8754 22.9096C36.588 22.874 37.4142 21.65 37.9977 20.5389ZM29.7912 21.2592C30.2918 22.5991 32.5486 23.0716 34.4573 22.9764C34.4543 22.5796 34.4562 22.1776 34.3767 21.8521C32.8917 21.8956 30.8836 21.8334 29.7912 21.2592ZM29.5838 22.331C28.6189 22.3321 29.4327 22.8687 29.5962 23.0787C29.9344 23.5137 30.3312 24.2558 30.9492 24.5843C31.9234 25.1018 33.8584 24.8847 34.5604 24.5993C34.8199 24.4943 35.0292 24.203 35.1255 23.957C32.9356 24.0095 30.3394 24.2277 29.5838 22.331ZM36.8723 26.0172C37.6223 26.6213 38.0753 27.1898 38.7945 27.836C39.1845 28.1858 39.9525 28.6051 40.0302 29.171C40.0733 29.4867 39.8798 30.2603 39.8085 30.6155C39.4935 32.1732 38.7848 34.2312 38.1098 35.8636C37.8645 36.4568 37.6298 37.1986 37.3062 37.3268C36.4197 37.6778 35.3438 37.2927 34.5904 37.7618C35.6029 36.0049 36.7054 34.3452 37.6977 32.5673C37.5465 32.2148 37.176 32.0645 37.0684 31.6718C37.7652 30.356 37.4449 26.2707 35.6667 27.1332C35.9153 26.768 36.5682 26.4665 36.8723 26.0172ZM21.2258 26.9472C21.3875 26.8835 22.5672 28.4183 22.7416 28.5428C23.6978 29.2216 24.8851 29.7578 25.9954 30.2877C26.0633 30.7973 26.2204 31.4577 26.4972 32.3412C26.8021 33.317 27.0537 34.694 28.3429 33.9905C28.2203 34.5477 27.5041 34.8934 27.7017 35.5433C27.8254 35.9509 29.1792 36.4546 29.6082 36.6968C30.3998 37.1431 31.1221 37.3898 31.7303 37.6508C28.9666 37.7266 26.3712 37.9516 23.8171 38.2992C23.5111 37.8252 23.6345 37.0947 23.6022 36.3398C23.567 35.5201 23.9078 33.6721 23.5857 33.5573C23.2216 33.428 23.1533 34.166 23.1402 34.3287C23.072 35.1942 23.5523 37.0268 23.0787 38.0629C22.5605 37.9163 22.3051 37.5267 21.8195 37.3497C21.629 37.9497 22.214 37.9786 22.154 38.3596C22.0745 38.8632 21.1201 38.4421 21.1253 39.1909C21.7467 39.2907 22.7 38.9978 23.3641 39.2779C23.5377 41.3153 23.8167 43.2458 24.1223 45.4099C21.4793 45.2727 19.7686 43.9594 17.8205 43.0486C17.6993 38.7398 17.0127 34.2698 15.3125 30.6211C17.096 29.2448 19.0917 27.7891 21.2262 26.9476L21.2258 26.9472ZM35.8815 27.932C36 27.9376 36.1114 27.9672 36.213 28.0265C36.6 28.2522 36.7647 29.54 36.7947 30.1662C36.8198 30.6856 36.7474 31.2098 36.5359 31.4851C35.4477 31.4532 34.4644 31.3238 33.6034 31.0808C33.6623 30.7283 33.5528 30.3815 33.6409 30.1272C33.8806 29.9547 34.2826 29.9577 34.6452 29.9172C34.3317 29.7627 33.8914 29.7016 33.5296 29.7908C33.5209 29.5456 33.4111 29.3941 33.3447 29.2021C33.8798 29.0112 35.0524 27.8911 35.8815 27.932ZM33.9316 27.9796C33.4748 28.2773 33.0859 28.6497 32.6476 28.9677C31.6752 29.0161 31.1446 28.9006 30.4302 28.3422C30.4414 28.2972 30.5134 28.3175 30.5164 28.2623C31.5571 28.7262 32.8808 28.0733 33.9316 27.9796ZM23.6765 27.998C24.2191 28.3748 25.2691 28.2818 26.0682 28.4221C26.1094 28.6782 25.9024 29.0146 25.9062 29.3712C25.2338 29.33 23.1211 28.5612 23.6765 27.998ZM27.3409 28.2128C27.3991 28.2113 27.4613 28.217 27.5284 28.2297C28.3924 28.3947 29.3974 28.793 30.0664 29.1586C30.4752 29.3821 30.7118 29.6581 31.3321 29.7061C31.3294 29.7886 31.3257 29.8711 31.3227 29.9543C30.9829 30.1775 30.4343 30.1748 30.0616 30.3623C30.6113 30.3863 31.0441 30.5187 31.4183 30.7055L31.3939 31.3276C30.7711 31.754 30.2022 32.3888 29.4691 32.7886C29.1222 32.9776 27.9053 33.4643 27.5367 33.3781C27.3278 33.3297 27.3091 33.0706 27.2254 32.8268C27.0481 32.3037 26.6389 31.4716 26.6029 30.6848C26.5606 29.753 26.4694 28.2305 27.3409 28.2128ZM32.3262 29.5115C32.3776 29.5073 32.4263 29.5088 32.4724 29.5156C33.2697 29.633 33.2119 31.2863 31.9504 30.8918C31.8556 30.3503 31.7457 30.1958 31.7881 29.7237C31.9913 29.5883 32.1713 29.5238 32.3262 29.5115ZM33.0522 31.3917C33.5089 31.4405 33.8704 32.0705 34.5222 32.0292C34.4176 33.7287 34.4723 35.4342 33.9979 36.9912C33.1141 35.3704 32.5939 33.4137 31.4498 32.0348C31.5706 31.9066 31.6786 31.7645 31.7971 31.6332C32.3153 31.85 32.6536 31.349 33.0522 31.3917ZM35.6802 31.9325C36.3094 31.9276 36.8247 32.339 37.1078 32.7938C36.2213 34.3126 35.3731 35.8718 34.3216 37.2113C34.7622 35.9146 34.9512 33.7445 35.0179 32.09C35.2246 31.9901 35.4506 31.9363 35.6802 31.9325ZM30.8914 32.5111C31.9414 33.8438 32.5804 35.5579 33.2839 37.2124C31.6219 36.7114 29.9239 35.8984 28.4674 35.0742C28.7532 33.8352 29.8737 33.1932 30.8914 32.5111ZM41.958 36.9091C42.4144 36.9203 42.8678 37.2908 43.0662 37.5912C43.4247 38.1327 43.7595 39.7268 43.9474 40.5732C44.2275 41.8328 43.5979 43.0591 42.5963 43.3021C41.8673 43.4791 40.749 43.5259 40.2717 43.2953C40.8559 42.9762 41.7338 42.9743 42.4099 42.7553C41.4413 42.3383 40.008 42.7313 38.8433 42.6586C38.7027 41.2204 38.5965 39.6612 38.2557 38.5261C38.9355 37.8034 40.578 37.6298 41.5107 37.0332C41.6437 36.9473 41.7998 36.904 41.958 36.9091ZM41.8789 38.2508C40.6853 38.2861 39.7527 38.6022 39.2202 39.3526C40.1888 39.4144 40.8863 38.4496 41.8789 38.2508ZM37.1764 38.5452C37.2608 38.5489 37.344 38.5583 37.4239 38.5763C38.0584 39.6676 38.1949 41.4822 38.1739 42.7992C37.7783 42.8757 37.5214 43.1022 37.0414 43.0872C36.9188 41.5868 36.5704 40.0092 36.4272 38.5797C36.6559 38.5752 36.9225 38.5347 37.1764 38.5452ZM29.8253 38.5613C31.0778 38.5411 32.2928 38.6146 33.3447 38.8336C33.6016 40.5034 33.5059 42.1504 33.6934 43.7873C33.9417 45.9653 33.7557 48.45 34.1809 50.4908C31.8661 51.2082 28.7097 51.1388 26.0907 50.3438C24.9106 46.7277 24.2671 43.2953 23.8231 39.2119C25.5432 38.8902 27.7369 38.5951 29.8253 38.5613ZM35.3843 38.7053C35.7979 40.2004 35.7732 42.1028 35.9764 43.7929C35.3509 43.9302 34.8934 43.9973 34.2203 44.0986C34.0864 42.3428 33.9841 40.6129 34.0081 38.8594C34.4851 38.6997 34.9058 38.7094 35.3843 38.7053ZM40.8165 39.5663C40.344 39.5723 39.9188 39.6751 39.7365 39.9533C40.5578 40.0208 41.5073 39.8896 42.3165 39.8041C41.9475 39.6766 41.352 39.5592 40.8165 39.5663ZM40.6812 40.7813C40.2582 40.7866 39.885 40.8668 39.6934 41.0727C40.5574 41.1451 41.6877 41.1631 42.597 41.1436C42.2284 40.9718 41.3862 40.7723 40.6812 40.7813ZM35.1619 44.8073C35.2504 44.7934 35.3307 44.7904 35.397 44.8081C35.5275 45.9499 35.9802 47.1072 35.9235 48.3578C35.421 48.5273 35.1323 48.6758 34.4584 48.6747C34.4112 47.6119 34.2687 45.9874 34.3114 44.9742C34.5597 44.9907 34.8968 44.8489 35.1619 44.8073Z" fill="#231F20"/>
<path d="M35.6801 31.9322C35.4505 31.936 35.2244 31.9898 35.0175 32.0897C34.9508 33.7442 34.7625 35.9143 34.3215 37.2107C35.3734 35.8715 36.2213 34.3119 37.1078 32.7935C36.8243 32.3387 36.3094 31.9273 35.6801 31.9322ZM30.8914 32.5112C29.8736 33.1937 28.7539 33.8357 28.4678 35.0747C29.9243 35.8989 31.6223 36.7115 33.2843 37.2125C32.5808 35.5588 31.9418 33.8443 30.8914 32.5112Z" fill="#81B0C4"/>
<path d="M33.9315 27.9792C33.4748 28.2774 33.0859 28.6494 32.6475 28.9677C31.6752 29.0157 31.1445 28.9002 30.4302 28.3419C30.4418 28.2969 30.5138 28.3171 30.5164 28.262C31.557 28.7259 32.8804 28.073 33.9315 27.9792Z" fill="#F0D6B7"/>
<path d="M33.6761 32.7729C33.6761 32.8664 33.6389 32.9561 33.5728 33.0222C33.5066 33.0884 33.4169 33.1255 33.3234 33.1255C33.2299 33.1255 33.1401 33.0884 33.074 33.0222C33.0079 32.9561 32.9707 32.8664 32.9707 32.7729C32.9707 32.6793 33.0079 32.5896 33.074 32.5235C33.1401 32.4573 33.2299 32.4202 33.3234 32.4202C33.4169 32.4202 33.5066 32.4573 33.5728 32.5235C33.6389 32.5896 33.6761 32.6793 33.6761 32.7729ZM34.0289 34.4082C34.0289 34.5018 33.9918 34.5916 33.9256 34.6577C33.8594 34.7239 33.7697 34.7611 33.6761 34.7611C33.5825 34.7611 33.4927 34.7239 33.4266 34.6577C33.3604 34.5916 33.3232 34.5018 33.3232 34.4082C33.3232 34.3146 33.3604 34.2249 33.4266 34.1587C33.4927 34.0925 33.5825 34.0554 33.6761 34.0554C33.7697 34.0554 33.8594 34.0925 33.9256 34.1587C33.9918 34.2249 34.0289 34.3146 34.0289 34.4082Z" fill="#1D1919"/>
</svg>
