<svg width="56" height="56" viewBox="0 0 56 56" fill="none" xmlns="http://www.w3.org/2000/svg">
<g clip-path="url(#clip0_609_700)">
<path d="M42.875 0H13.125C5.87626 0 0 5.87626 0 13.125V42.875C0 50.1237 5.87626 56 13.125 56H42.875C50.1237 56 56 50.1237 56 42.875V13.125C56 5.87626 50.1237 0 42.875 0Z" fill="white"/>
<mask id="mask0_609_700" style="mask-type:luminance" maskUnits="userSpaceOnUse" x="12" y="6" width="32" height="44">
<path d="M43.9407 6.125H12.25V49.875H43.9407V6.125Z" fill="white"/>
</mask>
<g mask="url(#mask0_609_700)">
<path fill-rule="evenodd" clip-rule="evenodd" d="M43.4005 27.218C43.4005 35.8819 36.5339 42.9055 28.0635 42.9055C19.5932 42.9055 12.7266 35.8819 12.7266 27.218C12.7266 18.5539 19.5932 11.5303 28.0635 11.5303C36.5339 11.5303 43.4005 18.5539 43.4005 27.218Z" fill="#D33833"/>
<path d="M13.3513 31.1031C13.3513 31.1031 12.241 14.7437 27.3153 14.2762L26.2635 12.5234L18.0839 15.2696L15.7467 17.9571L13.7018 21.8718L12.5332 26.4291L12.8838 29.4673" fill="#EF3D3A"/>
<path d="M17.559 16.516C14.868 19.2693 13.2029 23.0709 13.2029 27.2764C13.2029 31.481 14.868 35.2828 17.559 38.0358C20.2512 40.7886 23.9614 42.4872 28.0632 42.4872C32.1652 42.4872 35.8757 40.7886 38.5676 38.0358C41.2584 35.2828 42.924 31.481 42.924 27.2764C42.924 23.0709 41.2584 19.2693 38.5676 16.516C35.8757 13.7638 32.1652 12.0651 28.0632 12.0648C23.9614 12.0651 20.2512 13.7638 17.559 16.516ZM16.8778 38.7017C14.018 35.777 12.25 31.7349 12.25 27.2764C12.25 22.8169 14.018 18.7754 16.8778 15.8505C19.7369 12.925 23.6948 11.1118 28.0632 11.1123C32.4319 11.1118 36.3899 12.925 39.2486 15.8505C42.1087 18.7754 43.8769 22.8174 43.8767 27.2764C43.8769 31.7349 42.1087 35.777 39.2486 38.7017C36.3899 41.6268 32.4319 43.44 28.0632 43.44C23.6948 43.44 19.7369 41.6268 16.8778 38.7017Z" fill="#231F20"/>
<path fill-rule="evenodd" clip-rule="evenodd" d="M34.5197 27.3048L32.1823 27.6552L29.0273 28.0059L26.9822 28.0641L24.996 28.0059L23.4767 27.5384L22.1327 26.0778L21.0811 23.098L20.8475 22.4551L19.4452 21.9879L18.6272 20.644L18.043 18.716L18.6858 17.0215L20.2047 16.4957L21.4317 17.0801L22.0161 18.3654L22.7172 18.2485L22.9509 17.9565L22.7172 16.6126L22.6586 14.9181L23.0093 12.5811L22.9955 11.2462L24.061 9.543L25.9307 8.19913L29.2025 6.79688L32.825 7.32273L35.9801 9.60136L37.4409 11.9384L38.3756 13.6328L38.6092 17.8396L37.9081 21.4621L36.6227 24.6754L35.3958 26.3699" fill="#F0D6B7"/>
<path fill-rule="evenodd" clip-rule="evenodd" d="M32.533 37.412L24.1779 37.7627V39.1649L24.879 44.0727L24.5285 44.4818L18.6858 42.4951L18.2767 41.794L17.6925 35.1919L16.3489 31.219L16.0566 30.284L20.7307 27.0706L22.1914 26.4863L23.4768 28.0637L24.5869 29.0571L25.8723 29.4661L26.4566 29.6414L27.1577 32.6796L27.6836 33.3223L29.0273 32.8548L28.0924 34.666L33.1757 37.0616L32.533 37.412Z" fill="#335061"/>
<path fill-rule="evenodd" clip-rule="evenodd" d="M18.686 17.0211L20.2049 16.4952L21.4319 17.0796L22.0163 18.3649L22.7174 18.248L22.8926 17.5469L22.5422 16.2032L22.8926 12.9896L22.6004 11.2368L23.6521 10.0098L25.9309 8.19867L25.2882 7.32227L22.0745 8.89978L20.7308 9.95147L19.9713 11.5874L18.8027 13.1649L18.4521 15.0346L18.686 17.0211Z" fill="#6D6B6D"/>
<path fill-rule="evenodd" clip-rule="evenodd" d="M21.081 11.5298C21.081 11.5298 21.9573 9.36812 25.463 8.31643C28.9687 7.26475 25.6382 7.55676 25.6382 7.55676L21.8407 9.01755L20.3799 10.4782L19.7373 11.6468L21.081 11.5298Z" fill="#DCD9D8"/>
<path fill-rule="evenodd" clip-rule="evenodd" d="M19.3285 16.6126C19.3285 16.6126 18.1016 12.5226 22.7758 11.9384L22.6004 11.2373L19.3871 11.997L18.4521 15.0351L18.686 17.0216L19.3285 16.6126Z" fill="#DCD9D8"/>
<path fill-rule="evenodd" clip-rule="evenodd" d="M21.1982 22.0459L21.9632 21.3047C21.9632 21.3047 22.3086 21.3448 22.3668 21.7538C22.4252 22.163 22.6004 25.8437 25.1128 27.8303C25.342 28.0117 23.2433 27.5381 23.2433 27.5381L21.3735 24.6167" fill="#F7E4CD"/>
<path fill-rule="evenodd" clip-rule="evenodd" d="M31.9492 20.9362C31.9492 20.9362 32.0855 19.1652 32.5623 19.3014C33.0392 19.4376 33.0392 19.9145 33.0392 19.9145C33.0392 19.9145 31.8809 20.6639 31.9492 20.9362Z" fill="#F7E4CD"/>
<path d="M36.7979 14.4512C36.7979 14.4512 35.8347 14.6545 35.7461 15.5029C35.6573 16.3514 36.7979 15.6781 36.9731 15.6198" fill="#F7E4CD"/>
<path d="M29.7287 14.5098C29.7287 14.5098 28.4434 14.6851 28.4434 15.5029C28.4434 16.3209 29.9042 16.2626 30.313 15.912" fill="#F7E4CD"/>
<path fill-rule="evenodd" clip-rule="evenodd" d="M21.782 18.3067C21.782 18.3067 19.5617 16.9629 19.3281 18.2484C19.0944 19.5337 18.5684 20.4686 19.6786 21.8123L18.9191 21.5787L18.218 19.7675L17.9844 18.0147L19.3281 16.6123L20.8472 16.7292L21.7236 17.4303L21.782 18.3067Z" fill="#F7E4CD"/>
<path fill-rule="evenodd" clip-rule="evenodd" d="M22.8338 14.6266C22.8338 14.6266 23.8269 9.4851 28.8518 8.49178C32.9886 7.67409 35.1617 8.66706 35.9798 9.60182C35.9798 9.60182 32.2989 5.22 28.7932 6.56369C25.2877 7.90756 22.717 10.3615 22.7754 11.9388C22.8749 14.6256 22.8338 14.6266 22.8338 14.6266Z" fill="#F7E4CD"/>
<path fill-rule="evenodd" clip-rule="evenodd" d="M36.3886 10.1858C36.3886 10.1858 34.6944 10.1275 34.6357 11.6466C34.6357 11.6466 34.6357 11.8803 34.7526 12.1139C34.7526 12.1139 36.0966 10.5948 36.9145 11.4128" fill="#F7E4CD"/>
<path fill-rule="evenodd" clip-rule="evenodd" d="M28.9701 12.2718C28.9701 12.2718 28.6785 9.94004 26.6905 11.2957C25.4052 12.1721 25.5222 13.399 25.7556 13.6327C25.9895 13.8665 25.9258 14.3371 26.1039 14.0141C26.2815 13.691 26.2231 12.6393 26.8658 12.3473C27.5085 12.0552 28.5622 11.7288 28.9701 12.2718Z" fill="#F7E4CD"/>
<path fill-rule="evenodd" clip-rule="evenodd" d="M23.4768 28.0643L17.9847 30.5182C17.9847 30.5182 20.2634 39.5745 19.0947 42.3791L18.2767 42.0871L18.2183 38.6398L16.6994 32.0961L16.0566 30.2846L21.7823 26.4287L23.4768 28.0643Z" fill="#49728B"/>
<path fill-rule="evenodd" clip-rule="evenodd" d="M24.0409 33.0732L24.8201 34.0239V37.5294H23.8851C23.8851 37.5294 23.7686 35.0757 23.7686 34.7834C23.7686 34.4912 23.8851 33.4394 23.8851 33.4394" fill="#49728B"/>
<path fill-rule="evenodd" clip-rule="evenodd" d="M24.0609 38.0557L21.4316 38.1725L22.1913 38.6984L24.0609 38.9904" fill="#49728B"/>
<path fill-rule="evenodd" clip-rule="evenodd" d="M33.0586 37.4705L35.2203 37.4121L35.7462 42.7875L33.5258 43.0795L33.0586 37.4705Z" fill="#335061"/>
<path fill-rule="evenodd" clip-rule="evenodd" d="M33.6426 37.471L36.9146 37.2958C36.9146 37.2958 38.2584 33.9069 38.2584 33.7317C38.2584 33.5564 39.427 28.8238 39.427 28.8238L36.7976 26.0778L36.272 25.6104L34.8695 27.0128V32.4463L33.6426 37.471Z" fill="#335061"/>
<path fill-rule="evenodd" clip-rule="evenodd" d="M35.1033 37.0615L33.0586 37.4706L33.3506 39.1066C34.1101 39.4573 35.3955 38.5223 35.3955 38.5223" fill="#49728B"/>
<path fill-rule="evenodd" clip-rule="evenodd" d="M35.1621 26.8373L39.2521 29.8755L39.3689 28.4734L36.2723 25.6104L35.1621 26.8373Z" fill="#49728B"/>
<path fill-rule="evenodd" clip-rule="evenodd" d="M26.0885 48.9813L24.8788 44.0728L24.2773 40.451L24.1777 37.7627L29.6526 37.4711L33.0588 37.4707L32.749 43.606L33.2749 48.3386L33.2165 49.215L28.7761 49.5656L26.0885 48.9813Z" fill="white"/>
<path fill-rule="evenodd" clip-rule="evenodd" d="M32.2989 37.4122C32.2989 37.4122 32.0068 43.4886 32.8834 47.812C32.8834 47.812 31.1305 48.9224 28.5596 49.2144L33.4674 49.039L34.0517 48.6885L33.3506 39.1066L33.1754 37.0615" fill="#DCD9D8"/>
<path fill-rule="evenodd" clip-rule="evenodd" d="M35.8461 42.3212L38.1248 41.6785L42.4482 41.4449L43.0909 39.4584L41.9223 36.0112L40.5788 35.8359L38.7089 36.4202L36.9151 37.2961L35.9629 37.1213L35.2207 37.4129" fill="white"/>
<path fill-rule="evenodd" clip-rule="evenodd" d="M35.8047 41.1521C35.8047 41.1521 37.3237 40.451 37.5575 40.5094L36.9148 37.2959L37.6743 37.0039C37.6743 37.0039 38.2002 40.0419 38.2002 40.3926C38.2002 40.3926 41.4721 40.5678 41.7641 40.5678C41.7641 40.5678 42.4652 39.224 42.29 37.8216L42.9327 39.6915L42.9911 40.743L42.0563 42.1454L41.0046 42.379L39.252 42.3206L38.6677 41.5611L36.6226 41.8532L35.9799 42.087" fill="#DCD9D8"/>
<path d="M33.509 37.0044L32.2237 33.7325L30.8799 31.8042C30.8799 31.8042 31.1719 30.9863 31.581 30.9863C31.99 30.9863 32.9248 30.9863 32.9248 30.9863L34.2101 31.4538L34.0933 33.6155L33.509 37.0044Z" fill="white"/>
<path fill-rule="evenodd" clip-rule="evenodd" d="M33.7601 35.8938C33.7601 35.8938 32.1241 32.739 32.1241 32.2715C32.1241 32.2715 32.4161 31.5705 32.8252 31.7457C33.2342 31.9209 34.1107 32.3884 34.1107 32.3884V31.2782L32.1241 30.8691L30.7803 31.0444L33.059 36.4197L33.5262 36.4783" fill="#DCD9D8"/>
<path d="M26.6143 28.1814L24.9958 28.0056L23.4766 27.5381V28.0637L24.2188 28.8823L26.5559 29.9341" fill="white"/>
<path fill-rule="evenodd" clip-rule="evenodd" d="M24.0026 28.3574C24.0026 28.3574 25.8138 29.1169 26.3981 28.9417L26.4563 29.6421L24.8205 29.2924L23.8271 28.5913L24.0026 28.3574Z" fill="#DCD9D8"/>
<path fill-rule="evenodd" clip-rule="evenodd" d="M35.8393 31.185C34.8479 31.1559 33.9521 31.0382 33.1681 30.8171C33.2213 30.4955 33.1215 30.1801 33.2016 29.9484C33.4203 29.7911 33.7865 29.7935 34.117 29.7566C33.8314 29.6161 33.43 29.5606 33.1001 29.6417C33.0924 29.4186 32.9925 29.2803 32.9316 29.1058C33.489 28.9067 34.805 27.6025 35.545 28.0343C35.8979 28.2398 36.0477 29.4131 36.0751 29.9836C36.0978 30.457 36.032 30.9343 35.8393 31.185Z" fill="#D33833"/>
<path d="M35.8393 31.185C34.8479 31.1559 33.9521 31.0382 33.1681 30.8171C33.2213 30.4955 33.1215 30.1801 33.2016 29.9484C33.4203 29.7911 33.7865 29.7935 34.117 29.7566C33.8314 29.6161 33.43 29.5606 33.1001 29.6417C33.0924 29.4186 32.9925 29.2803 32.9316 29.1058C33.489 28.9067 34.805 27.6025 35.545 28.0343C35.8979 28.2398 36.0477 29.4131 36.0751 29.9836C36.0978 30.457 36.032 30.9343 35.8393 31.185Z" stroke="#D33833" stroke-width="2.5"/>
<path fill-rule="evenodd" clip-rule="evenodd" d="M31.0991 29.5647C31.0964 29.6397 31.0932 29.7152 31.0903 29.7909C30.7808 29.9943 30.2809 29.9917 29.9412 30.1627C30.4422 30.1846 30.8363 30.3051 31.1774 30.4751C31.1699 30.6641 31.1627 30.8529 31.1553 31.0419C30.5878 31.4302 30.0696 32.0088 29.4016 32.373C29.0857 32.5451 27.9773 32.9885 27.6413 32.9102C27.451 32.866 27.4339 32.63 27.358 32.4078C27.1959 31.9313 26.8232 31.1734 26.7906 30.4565C26.7492 29.5509 26.6578 28.0334 27.6336 28.2198C28.4209 28.3701 29.3366 28.7328 29.946 29.0657C30.3186 29.2694 30.534 29.5211 31.0991 29.5647Z" fill="#D33833"/>
<path d="M31.0991 29.5647C31.0964 29.6397 31.0932 29.7152 31.0903 29.7909C30.7808 29.9943 30.2809 29.9917 29.9412 30.1627C30.4422 30.1846 30.8363 30.3051 31.1774 30.4751C31.1699 30.6641 31.1627 30.8529 31.1553 31.0419C30.5878 31.4302 30.0696 32.0088 29.4016 32.373C29.0857 32.5451 27.9773 32.9885 27.6413 32.9102C27.451 32.866 27.4339 32.63 27.358 32.4078C27.1959 31.9313 26.8232 31.1734 26.7906 30.4565C26.7492 29.5509 26.6578 28.0334 27.6336 28.2198C28.4209 28.3701 29.3366 28.7328 29.946 29.0657C30.3186 29.2694 30.534 29.5211 31.0991 29.5647Z" stroke="#D33833" stroke-width="2.5"/>
<path fill-rule="evenodd" clip-rule="evenodd" d="M31.6623 30.6447C31.5757 30.1514 31.4757 30.0108 31.5144 29.5803C32.8298 28.7033 33.0768 31.0868 31.6623 30.6447Z" fill="#D33833"/>
<path d="M31.6623 30.6447C31.5757 30.1514 31.4757 30.0108 31.5144 29.5803C32.8298 28.7033 33.0768 31.0868 31.6623 30.6447Z" stroke="#D33833" stroke-width="2.5"/>
<path fill-rule="evenodd" clip-rule="evenodd" d="M33.5671 31.0445C33.5671 31.0445 33.1579 30.4603 33.4501 30.285C33.7424 30.1096 34.0346 30.2853 34.2098 29.993C34.3851 29.7008 34.2098 29.5255 34.2682 29.1749C34.3264 28.8244 34.6189 28.7658 34.9109 28.7074C35.203 28.649 36.0211 28.5322 36.1379 28.8244L35.7872 27.7727L35.0861 27.5391L32.8658 28.8244L32.749 29.4671V30.7525" fill="#EF3D3A"/>
<path fill-rule="evenodd" clip-rule="evenodd" d="M27.4326 32.9729C27.3624 32.0609 27.2883 31.1505 27.2056 30.2394C27.0818 28.8792 27.5322 29.1166 28.7112 29.1166C28.8913 29.1166 29.8201 29.3314 29.8866 29.4672C30.2051 30.118 29.3537 29.9734 30.2536 30.4643C31.0131 30.8784 32.3552 30.2127 32.0483 29.292C31.8766 29.0873 31.1534 29.2281 30.8939 29.0936C30.4376 28.8571 29.9811 28.6204 29.5248 28.3838C28.944 28.0825 27.6017 27.6433 26.9827 28.0642C25.4138 29.1312 27.0816 31.7971 27.6413 32.9101" fill="#EF3D3A"/>
<path fill-rule="evenodd" clip-rule="evenodd" d="M28.9695 12.272C27.377 11.9011 26.5858 12.9384 26.103 14.0143C25.672 13.9098 25.8435 13.3237 25.9525 13.025C26.2375 12.2412 27.3862 11.1977 28.3248 11.3392C28.7286 11.4 29.2753 11.7693 28.9695 12.272Z" fill="#231F20"/>
<path fill-rule="evenodd" clip-rule="evenodd" d="M36.7288 14.085C36.754 14.086 36.7793 14.0869 36.8043 14.0879C37.1643 14.8355 37.4756 15.6274 37.9297 16.2874C37.6255 16.9957 35.6267 17.6225 35.6576 16.3506C36.0898 16.1617 36.8362 16.3121 37.2192 16.0707C36.9976 15.4627 36.678 14.9451 36.7288 14.085Z" fill="#231F20"/>
<path fill-rule="evenodd" clip-rule="evenodd" d="M29.7848 14.1045C30.1263 14.7304 30.2374 15.3881 30.7228 15.8612C30.9414 16.0741 31.3664 16.3337 31.1558 16.926C31.1065 17.0657 30.7467 17.3772 30.5389 17.4383C29.7803 17.6624 28.0121 17.4846 28.6108 16.5386C29.2384 16.5679 30.0819 16.9461 30.5509 16.4906C30.1906 15.9148 29.5486 14.7756 29.7848 14.1045Z" fill="#231F20"/>
<path fill-rule="evenodd" clip-rule="evenodd" d="M36.4443 20.466C35.3018 21.1999 34.028 21.9979 32.1559 21.8128C31.7558 21.4651 31.6034 20.6912 31.9921 20.1801C32.1942 20.5279 32.0671 21.1675 32.6308 21.2637C33.6931 21.4455 34.9295 20.6139 35.6933 20.3233C36.1672 19.5246 35.6527 19.2308 35.2259 18.7167C34.352 17.6634 33.1799 16.3579 33.2226 14.7811C33.5756 14.525 33.6063 15.172 33.6568 15.2898C34.1131 16.3576 35.2613 17.7232 36.0993 18.6371C36.3052 18.8622 36.644 19.0781 36.6817 19.2269C36.7904 19.6597 36.3988 20.1782 36.4443 20.466Z" fill="#231F20"/>
<path fill-rule="evenodd" clip-rule="evenodd" d="M21.3823 19.6934C21.0242 19.489 20.9389 18.5888 20.5185 18.5632C19.9177 18.5267 20.0273 19.7311 20.0297 20.4354C19.6161 20.0599 19.5434 18.904 19.8472 18.3103C19.501 18.1403 19.3464 18.4978 19.1543 18.6238C19.4011 16.8307 21.7773 17.7921 21.3823 19.6934Z" fill="#231F20"/>
<path fill-rule="evenodd" clip-rule="evenodd" d="M37.1718 21.2129C36.64 22.2252 35.8877 23.3399 34.3271 23.3723C34.2954 23.0455 34.2711 22.548 34.3289 22.3512C35.5219 22.2365 36.2585 21.6294 37.1718 21.2129Z" fill="#231F20"/>
<path fill-rule="evenodd" clip-rule="evenodd" d="M29.6953 21.8691C30.6906 22.3925 32.5198 22.4487 33.8726 22.4091C33.9452 22.7055 33.9434 23.0717 33.9463 23.4331C32.2072 23.5199 30.1512 23.0896 29.6953 21.8691Z" fill="#231F20"/>
<path fill-rule="evenodd" clip-rule="evenodd" d="M29.5056 22.8457C30.194 24.5738 32.5596 24.3748 34.5544 24.3273C34.4667 24.5515 34.2761 24.8166 34.0397 24.9125C33.4002 25.1725 31.6371 25.3699 30.7497 24.8987C30.187 24.5994 29.8252 23.9233 29.517 23.5271C29.368 23.3357 28.6265 22.8468 29.5056 22.8457Z" fill="#231F20"/>
<path fill-rule="evenodd" clip-rule="evenodd" d="M36.3611 32.3774C35.5535 33.7608 34.7806 35.1816 33.8223 36.4018C34.2241 35.2205 34.396 33.2435 34.4566 31.7363C35.2971 31.343 36.017 31.8249 36.3611 32.3774Z" fill="#81B0C4"/>
<path fill-rule="evenodd" clip-rule="evenodd" d="M40.7069 37.3496C39.8026 37.5305 39.1672 38.4095 38.2852 38.353C38.7699 37.6696 39.6195 37.3813 40.7069 37.3496Z" fill="#231F20"/>
<path fill-rule="evenodd" clip-rule="evenodd" d="M41.1061 38.7649C40.3691 38.8428 39.5033 38.9622 38.7559 38.9005C39.1098 38.36 40.4733 38.5466 41.1061 38.7649Z" fill="#231F20"/>
<path fill-rule="evenodd" clip-rule="evenodd" d="M41.3612 39.9846C40.5328 40.0026 39.5031 39.986 38.7158 39.9199C39.1815 39.4196 40.8239 39.7344 41.3612 39.9846Z" fill="#231F20"/>
<path fill-rule="evenodd" clip-rule="evenodd" d="M34.802 43.3237C34.9208 44.3641 35.3333 45.4183 35.2815 46.5575C34.8236 46.7119 34.5605 46.8471 33.9469 46.8463C33.9036 45.8781 33.7741 44.3978 33.8128 43.4747C34.1145 43.4948 34.5596 43.2592 34.802 43.3237Z" fill="#DCD9D8"/>
<path fill-rule="evenodd" clip-rule="evenodd" d="M33.4672 27.9912C33.0513 28.2627 32.6969 28.6017 32.2975 28.8916C31.4118 28.9353 30.9283 28.8301 30.2773 28.3215C30.2881 28.2806 30.3535 28.299 30.3559 28.2489C31.3042 28.6715 32.5097 28.0767 33.4672 27.9912Z" fill="#F0D6B7"/>
<path fill-rule="evenodd" clip-rule="evenodd" d="M28.4883 34.4555C28.7488 33.3265 29.7697 32.7418 30.6968 32.1201C31.6536 33.3346 32.2357 34.8963 32.8764 36.4032C31.3624 35.9469 29.8152 35.2062 28.4883 34.4555Z" fill="#81B0C4"/>
<path fill-rule="evenodd" clip-rule="evenodd" d="M33.8134 43.4746C33.7747 44.3977 33.9042 45.878 33.9475 46.8462C34.5611 46.847 34.8243 46.7119 35.2821 46.5574C35.334 45.4182 34.9214 44.364 34.8026 43.3236C34.5603 43.2591 34.1151 43.4947 33.8134 43.4746ZM24.258 38.2252C24.6627 41.9453 25.2489 45.0723 26.3239 48.3665C28.7096 49.0908 31.5857 49.154 33.6944 48.5004C33.3073 46.641 33.4766 44.3776 33.2502 42.3935C33.0795 40.9023 33.1666 39.4019 32.9328 37.8805C30.3775 37.3489 26.7658 37.7562 24.258 38.2252ZM33.5369 37.9037C33.5153 39.5014 33.6085 41.0773 33.7305 42.677C34.3439 42.5849 34.7602 42.5235 35.3303 42.3985C35.1452 40.8585 35.1679 39.1256 34.7908 37.7632C34.3551 37.7674 33.9714 37.7582 33.5369 37.9037ZM36.6491 37.6462C36.3579 37.5795 36.0189 37.6436 35.7408 37.649C35.8714 38.9515 36.1888 40.3885 36.3004 41.7556C36.7381 41.7692 36.972 41.5627 37.332 41.4934C37.3513 40.2933 37.227 38.64 36.6491 37.6462ZM41.3612 41.9516C42.2736 41.73 42.8474 40.6127 42.5921 39.4651C42.4208 38.6938 42.1159 37.2417 41.7895 36.7482C41.5482 36.3834 40.8944 35.9056 40.3722 36.2399C39.5228 36.7839 38.0264 36.9418 37.4071 37.6C37.7175 38.6343 37.8139 40.0549 37.9421 41.3652C39.0033 41.4312 40.309 41.0731 41.1914 41.4531C40.5752 41.6528 39.7759 41.6544 39.2435 41.9453C39.6786 42.1553 40.6971 42.1129 41.3612 41.9516ZM32.8772 36.4033C32.2365 34.8963 31.6544 33.3346 30.6976 32.1201C29.7705 32.7418 28.7496 33.3265 28.4891 34.4555C29.816 35.2063 31.3632 35.947 32.8772 36.4033ZM34.4568 31.7365C34.3962 33.2436 34.2243 35.2207 33.8224 36.402C34.7808 35.1818 35.5536 33.761 36.3612 32.3776C36.0169 31.825 35.2972 31.3431 34.4568 31.7365ZM32.6661 31.1001C32.3032 31.0612 31.995 31.5175 31.5229 31.3202C31.4148 31.4398 31.3164 31.5693 31.2062 31.6859C32.2487 32.9424 32.7225 34.725 33.5278 36.2016C33.96 34.7832 33.9101 33.2292 34.0053 31.6813C33.4116 31.719 33.0822 31.1443 32.6661 31.1001ZM31.5148 29.5805C31.4761 30.0107 31.5761 30.1516 31.6627 30.6449C33.0771 31.087 32.8302 28.7035 31.5148 29.5805ZM29.9462 29.0655C29.3367 28.7326 28.421 28.3699 27.6338 28.2196C26.6579 28.033 26.7493 29.5507 26.7907 30.4563C26.8233 31.1732 27.196 31.9311 27.3581 32.4076C27.434 32.6298 27.4511 32.8659 27.6412 32.91C27.9774 32.9884 29.0858 32.545 29.4017 32.3728C30.0698 32.0086 30.588 31.43 31.1554 31.0417C31.1629 30.8527 31.1701 30.6639 31.1775 30.4749C30.8365 30.305 30.4423 30.1844 29.9413 30.1625C30.2811 29.9915 30.7809 29.9941 31.0904 29.7907C31.0933 29.715 31.0966 29.6395 31.0992 29.5645C30.5339 29.521 30.3187 29.2692 29.9462 29.0655ZM24.1243 28.0081C23.6186 28.5217 25.5432 29.2217 26.1561 29.2593C26.1526 28.9345 26.3412 28.628 26.3033 28.3948C25.5755 28.2671 24.6189 28.3515 24.1243 28.0081ZM30.3559 28.2494C30.3535 28.2995 30.2881 28.2811 30.2773 28.322C30.9283 28.8306 31.4116 28.9358 32.2975 28.892C32.6969 28.6022 33.0513 28.2631 33.4672 27.9917C32.5097 28.0772 31.3042 28.672 30.3559 28.2494ZM36.0758 29.9836C36.0484 29.4131 35.8986 28.2397 35.5459 28.0343C34.8057 27.6023 33.4897 28.9067 32.9323 29.1058C32.9931 29.2803 33.0931 29.4186 33.1008 29.6417C33.4306 29.5605 33.832 29.6161 34.1177 29.7565C33.7872 29.7935 33.421 29.7911 33.2023 29.9484C33.1222 30.18 33.2219 30.4955 33.1688 30.817C33.9528 31.0382 34.8486 31.1559 35.8399 31.185C36.0327 30.9343 36.0985 30.457 36.0758 29.9836ZM23.2728 28.5049C23.1139 28.3915 22.0394 26.9933 21.8922 27.0515C19.9476 27.8182 18.1294 29.1443 16.5047 30.3984C18.0538 33.7225 18.6791 37.795 18.7896 41.72C20.5642 42.5501 22.1228 43.7465 24.531 43.8714C24.2523 41.9 23.9979 40.141 23.8398 38.2847C23.2347 38.0297 22.3667 38.2963 21.8004 38.2058C21.7956 37.5233 22.6651 37.907 22.7377 37.448C22.7922 37.1009 22.2591 37.0746 22.4328 36.5282C22.8753 36.689 23.1078 37.0444 23.5799 37.1779C24.0113 36.2342 23.574 34.5645 23.6361 33.7756C23.6479 33.6275 23.71 32.9553 24.0417 33.0732C24.3354 33.1776 24.025 34.8613 24.0572 35.6079C24.0865 36.2956 23.9741 36.9613 24.2525 37.3929C26.5796 37.0761 28.9441 36.8716 31.4619 36.8025C30.908 36.5647 30.25 36.3398 29.5286 35.9332C29.1374 35.7127 27.9046 35.254 27.7917 34.8825C27.6117 34.2906 28.2642 33.9754 28.3758 33.4679C27.2013 34.1086 26.972 32.8538 26.6942 31.965C26.4424 31.16 26.2992 30.5587 26.2375 30.0943C25.2255 29.612 24.1438 29.1235 23.2728 28.5049ZM35.0481 27.2206C36.6681 26.435 36.9602 30.1566 36.3251 31.3556C36.4233 31.7133 36.7609 31.85 36.8987 32.1715C35.9946 33.7912 34.9903 35.303 34.0679 36.9033C34.7541 36.4763 35.7343 36.827 36.5417 36.5072C36.837 36.3906 37.0507 35.7149 37.2741 35.1743C37.8888 33.687 38.5343 31.8119 38.8213 30.3927C38.8863 30.0694 39.0628 29.3648 39.0232 29.0769C38.9525 28.5615 38.2534 28.1796 37.8977 27.8609C37.2426 27.2722 36.83 26.7542 36.1464 26.2038C35.8695 26.6131 35.2747 26.8879 35.0481 27.2206ZM19.5676 12.8532C18.7956 13.7026 18.9572 15.2941 19.0507 16.4264C20.4461 15.5486 22.2982 16.4958 22.2807 17.9889C22.9468 17.9712 22.5297 17.1568 22.4091 16.6322C22.0152 14.9187 23.0726 13.057 22.457 11.49C21.2619 11.5806 20.28 12.0688 19.5676 12.8532ZM25.0914 7.92322C23.3436 8.41858 21.1039 9.68849 20.3857 11.2585C20.9418 11.1776 21.3278 10.8972 21.8765 10.8625C22.0836 10.849 22.3553 10.9494 22.5935 10.8902C23.0684 10.7724 23.4692 9.70776 23.8275 9.31162C24.1766 8.92479 24.5964 8.7595 24.8836 8.40683C25.068 8.31778 25.341 8.32392 25.3513 8.04679C25.2715 7.96126 25.1873 7.89605 25.0914 7.92322ZM34.189 8.38911C32.3749 7.36567 29.3046 6.59582 27.375 7.55777C25.8181 8.33407 23.7133 9.61853 22.9958 11.2462C23.6663 12.8169 22.7974 14.2561 22.7418 15.8508C22.7123 16.6993 23.1413 17.4401 23.1743 18.3638C22.9448 18.7422 22.244 18.7889 21.759 18.7629C21.5957 17.9458 21.3098 17.0273 20.4684 16.9351C19.2777 16.8049 18.4071 17.7903 18.353 18.8201C18.289 20.0311 19.2831 22.0382 20.6922 21.8988C21.2366 21.8451 21.3703 21.2994 21.9633 21.305C22.2849 21.9463 21.4675 22.1478 21.3834 22.6065C21.3615 22.725 21.4512 23.1881 21.5034 23.4051C21.7593 24.4628 22.3299 25.8313 22.8915 26.6363C23.6042 27.6574 25.0046 27.8114 26.5111 27.9116C26.7802 27.3319 27.7714 27.3796 28.4173 27.5312C27.6432 27.2245 26.9237 26.4814 26.3272 25.8236C25.6423 25.0687 24.9484 24.2591 24.9132 23.2728C26.2077 25.0687 27.2772 26.637 29.6312 27.4271C31.4124 28.0245 33.4925 27.1532 34.8613 26.1922C35.4291 25.7928 35.7682 25.1589 36.1718 24.5787C37.6823 22.4061 38.3868 19.3051 38.232 16.2994C38.1681 15.0598 38.1709 13.8244 37.7551 12.9904C37.3204 12.1184 35.8502 11.3382 34.9894 12.127C34.83 11.279 35.7052 10.7545 36.7331 11.0597C36.0001 10.1137 35.2309 8.977 34.189 8.38911ZM37.5685 36.3582C38.986 35.6534 41.6346 34.4614 42.5232 36.3608C42.8511 37.0608 43.2359 38.2443 43.4059 38.967C43.6458 39.9866 43.1455 42.1295 42.0977 42.4718C41.172 42.7739 40.092 42.7555 38.977 42.5315C38.8456 42.4224 38.6994 42.2319 38.5973 42.0335C37.8013 42.0026 37.0558 42.0763 36.4268 42.4036C36.4863 42.9922 36.0882 43.0867 35.7148 43.2081C35.4381 44.3054 36.2685 45.7386 36.0699 46.7392C35.9279 47.4521 35.0509 47.5624 34.4063 47.6958C34.385 48.092 34.4345 48.4227 34.4784 48.7578C34.331 49.301 33.6697 49.6101 33.0434 49.686C30.9822 49.9338 27.8527 50.0452 25.8702 49.3323C25.317 47.9751 24.8812 46.3247 24.4203 44.7753C22.4868 44.9818 20.923 43.941 19.4487 43.2591C18.9383 43.0224 18.2322 42.892 18.0415 42.4858C17.8566 42.0923 17.9323 41.3385 17.8864 40.6265C17.7696 38.8075 17.6697 37.0532 17.1894 35.1907C16.9737 34.3551 16.5978 33.6175 16.3356 32.8123C16.0932 32.0661 15.6697 31.1436 15.5593 30.3995C15.3955 29.2963 16.4341 29.235 17.0983 28.7571C18.125 28.0179 18.9309 27.6091 20.0428 26.9421C20.3721 26.7446 21.3653 26.2445 21.4783 26.0142C21.7028 25.5574 21.0928 24.9136 20.9297 24.5558C20.6717 23.9899 20.5372 23.509 20.5002 22.9506C19.5674 22.8031 18.8603 22.248 18.4332 21.6221C17.7267 20.5862 17.2367 18.6697 17.848 17.2119C17.896 17.097 18.1351 16.8713 18.1703 16.695C18.2399 16.3477 18.0394 15.886 18.0269 15.5167C17.9627 13.6219 18.3475 11.9894 19.6231 11.418C20.1409 9.35509 21.9944 8.66922 23.7404 7.64401C24.3932 7.26084 25.1127 7.01597 25.8558 6.74254C28.5214 5.76149 32.6114 5.94624 34.8238 7.61946C35.7618 8.329 37.2614 9.82713 37.7978 10.9118C39.2144 13.7753 39.1138 18.561 38.123 22.0443C37.9898 22.512 37.7967 23.1995 37.5269 23.7613C37.3388 24.1535 36.7543 24.9384 36.8252 25.2849C36.8983 25.643 38.158 26.5993 38.4282 26.8599C38.9145 27.3291 39.8387 27.9519 39.9135 28.544C39.994 29.174 39.6359 30.0361 39.4543 30.6442C38.848 32.6734 38.2563 34.5491 37.5685 36.3582Z" fill="#231F20"/>
<path fill-rule="evenodd" clip-rule="evenodd" d="M28.111 22.3112C28.1878 22.2088 28.6106 22.0535 29.2021 22.3383C29.2021 22.3383 28.501 22.4551 28.5595 23.6241L28.2672 23.5655C28.2672 23.5655 27.9653 22.5056 28.111 22.3112Z" fill="#F7E4CD"/>
<path fill-rule="evenodd" clip-rule="evenodd" d="M33.2345 32.3587C33.2345 32.5361 33.0905 32.6798 32.9131 32.6798C32.7357 32.6798 32.5918 32.5361 32.5918 32.3587C32.5918 32.1813 32.7357 32.0371 32.9131 32.0371C33.0905 32.0371 33.2345 32.1813 33.2345 32.3587Z" fill="#1D1919"/>
<path fill-rule="evenodd" clip-rule="evenodd" d="M33.5558 33.8489C33.5558 34.0263 33.4118 34.17 33.2342 34.17C33.0568 34.17 32.9131 34.0263 32.9131 33.8489C32.9131 33.6715 33.0568 33.5273 33.2342 33.5273C33.4118 33.5273 33.5558 33.6715 33.5558 33.8489Z" fill="#1D1919"/>
</g>
</g>
<defs>
<clipPath id="clip0_609_700">
<rect width="56" height="56" fill="white"/>
</clipPath>
</defs>
</svg>
