<svg width="57" height="56" viewBox="0 0 57 56" fill="none" xmlns="http://www.w3.org/2000/svg">
<rect x="0.125488" width="56" height="56" rx="4" fill="white"/>
<path d="M47.3854 7H27.165C27.165 12.04 31.2443 16.121 36.2856 16.121H40.0044V19.7199C40.0044 24.7599 44.0854 28.8409 49.1254 28.8409V8.73994C49.125 8.27858 48.9416 7.83623 48.6154 7.51C48.2891 7.18377 47.8468 7.00035 47.3854 7Z" fill="#2684FF"/>
<path d="M37.3658 17.08H17.145C17.145 22.1196 21.2247 26.2006 26.2643 26.2006H29.9848V29.7995C29.9848 34.8395 34.0658 38.9205 39.1058 38.9205V18.8195C39.1051 18.3583 38.9215 17.9161 38.5954 17.59C38.2692 17.2638 37.8271 17.0807 37.3658 17.08Z" fill="url(#paint0_linear_4064_13476)"/>
<path d="M27.3463 27.1592H7.12549C7.12549 32.2009 11.2047 36.2802 16.2465 36.2802H19.9652V39.8808C19.9652 44.9208 24.0462 49.0001 29.0858 49.0001V28.9009C29.0853 28.4395 28.902 27.9971 28.5759 27.6707C28.2498 27.3443 27.8077 27.1601 27.3463 27.1592Z" fill="url(#paint1_linear_4064_13476)"/>
<defs>
<linearGradient id="paint0_linear_4064_13476" x1="38.6849" y1="17.1028" x2="30.0819" y2="25.9735" gradientUnits="userSpaceOnUse">
<stop offset="0.176" stop-color="#0052CC"/>
<stop offset="1" stop-color="#2684FF"/>
</linearGradient>
<linearGradient id="paint1_linear_4064_13476" x1="29.2472" y1="27.2371" x2="19.3002" y2="36.9146" gradientUnits="userSpaceOnUse">
<stop offset="0.176" stop-color="#0052CC"/>
<stop offset="1" stop-color="#2684FF"/>
</linearGradient>
</defs>
</svg>
