<svg width="56" height="56" viewBox="0 0 56 56" fill="none" xmlns="http://www.w3.org/2000/svg">
<g clip-path="url(#clip0_610_1048)">
<path d="M42.875 0H13.125C5.87626 0 0 5.87626 0 13.125V42.875C0 50.1237 5.87626 56 13.125 56H42.875C50.1237 56 56 50.1237 56 42.875V13.125C56 5.87626 50.1237 0 42.875 0Z" fill="white"/>
<path d="M12.2723 19.6076C12.0256 19.752 11.6144 20.1563 11.127 20.7425L11.5763 21.5771C11.8905 21.1324 12.2135 20.7339 12.5366 20.3931C12.5601 20.3671 12.5748 20.3527 12.5748 20.3527C12.563 20.3671 12.5483 20.3787 12.5366 20.3931C12.4309 20.5057 12.1137 20.8696 11.635 21.5944C12.0961 21.5713 12.8038 21.4789 13.3824 21.3807C13.5556 20.4335 13.215 20.0004 13.215 20.0004C13.215 20.0004 12.7803 19.3102 12.2723 19.6076Z" fill="url(#paint0_linear_610_1048)"/>
<path d="M10.7602 26.6133C10.7015 26.6248 10.6427 26.6335 10.584 26.6422C10.6134 26.6393 10.6457 26.6335 10.675 26.6277C10.7044 26.6248 10.7338 26.6191 10.7602 26.6133Z" fill="#BE202E"/>
<path opacity="0.35" d="M10.7602 26.6133C10.7015 26.6248 10.6427 26.6335 10.584 26.6422C10.6134 26.6393 10.6457 26.6335 10.675 26.6277C10.7044 26.6248 10.7338 26.6191 10.7602 26.6133Z" fill="#BE202E"/>
<path d="M10.9124 25.8825C10.9094 25.8825 10.9094 25.8825 10.9124 25.8825C10.9212 25.8825 10.93 25.8796 10.9388 25.8796C10.977 25.8738 11.0151 25.868 11.0504 25.8594C11.0063 25.868 10.9593 25.8738 10.9124 25.8825Z" fill="#BE202E"/>
<path opacity="0.35" d="M10.9124 25.8825C10.9094 25.8825 10.9094 25.8825 10.9124 25.8825C10.9212 25.8825 10.93 25.8796 10.9388 25.8796C10.977 25.8738 11.0151 25.868 11.0504 25.8594C11.0063 25.868 10.9593 25.8738 10.9124 25.8825Z" fill="#BE202E"/>
<path d="M10.2484 23.732C10.3864 23.4808 10.5245 23.2353 10.6625 22.9956C10.8064 22.7473 10.9532 22.5076 11.103 22.2737C11.1118 22.2592 11.1206 22.2448 11.1294 22.2333C11.2763 22.0051 11.4231 21.7857 11.5729 21.5748L11.1236 20.7432C11.0912 20.7836 11.056 20.824 11.0208 20.8673C10.8915 21.0262 10.7565 21.1965 10.6184 21.3785C10.4628 21.5835 10.3042 21.8001 10.1397 22.0282C9.98998 22.239 9.83727 22.4614 9.68456 22.6895C9.55534 22.8859 9.42613 23.0852 9.29691 23.2902C9.29104 23.2988 9.2881 23.3046 9.28223 23.3133L9.86663 24.4482C9.99585 24.2085 10.1221 23.9688 10.2484 23.732Z" fill="url(#paint1_linear_610_1048)"/>
<path d="M7.58511 30.134C7.50876 30.3419 7.42946 30.5556 7.35311 30.7751C7.35311 30.7779 7.35017 30.7808 7.35017 30.7837C7.33843 30.8155 7.32668 30.8444 7.31787 30.8761C7.26501 31.0234 7.22096 31.1562 7.11523 31.4566C7.2885 31.5345 7.42653 31.7367 7.55574 31.9677C7.54106 31.728 7.44121 31.5028 7.25032 31.3295C8.09904 31.3671 8.83322 31.1562 9.20912 30.544C9.24142 30.4892 9.27372 30.4314 9.30309 30.3708C9.12983 30.5845 8.91838 30.6769 8.51605 30.6538C9.10633 30.3939 9.40294 30.1426 9.66431 29.7297C9.72598 29.6315 9.78765 29.5246 9.84932 29.4062C9.33246 29.9289 8.73337 30.0762 8.10197 29.9636L7.62916 30.0156C7.61448 30.056 7.59979 30.0935 7.58511 30.134Z" fill="url(#paint2_linear_610_1048)"/>
<path d="M7.80586 29.091C7.90864 28.8311 8.01436 28.5683 8.12009 28.3026C8.22287 28.0485 8.32859 27.7944 8.43725 27.5374C8.54591 27.2803 8.65751 27.0233 8.7691 26.7663C8.88363 26.5035 9.0011 26.2436 9.12151 25.9837C9.23898 25.7267 9.36232 25.4697 9.48272 25.2156C9.52678 25.1232 9.57083 25.0337 9.61781 24.9412C9.69417 24.7853 9.77346 24.6294 9.85275 24.4734C9.85569 24.4648 9.86156 24.4561 9.8645 24.4474L9.28596 23.3154C9.27715 23.3299 9.26834 23.3472 9.2566 23.3616C9.12151 23.5811 8.98348 23.8035 8.85133 24.0316C8.71624 24.2626 8.58409 24.4965 8.45487 24.7362C8.34621 24.9384 8.24049 25.1405 8.13477 25.3455C8.11421 25.386 8.09365 25.4293 8.0731 25.4697C7.94682 25.7267 7.82935 25.978 7.72656 26.2176C7.6091 26.4891 7.50631 26.749 7.41527 26.9945C7.35654 27.1562 7.30074 27.3121 7.25082 27.4623C7.2097 27.5893 7.17152 27.7193 7.13335 27.8464C7.04525 28.1467 6.97183 28.447 6.91016 28.7473L7.4975 29.888C7.57386 29.683 7.65608 29.4779 7.73537 29.2671C7.75887 29.2094 7.78236 29.1516 7.80586 29.091Z" fill="url(#paint3_linear_610_1048)"/>
<path d="M6.9016 28.7885C6.82818 29.1523 6.77532 29.5162 6.74889 29.8801C6.74889 29.8916 6.74596 29.906 6.74596 29.9176C6.56388 29.6288 6.07051 29.3458 6.07345 29.3487C6.42585 29.8512 6.6931 30.3479 6.73127 30.8359C6.54332 30.8735 6.28489 30.8186 5.98828 30.7117C6.29957 30.9918 6.53158 31.0698 6.62261 31.09C6.33775 31.1074 6.04114 31.3008 5.7416 31.5232C6.17917 31.347 6.53451 31.2777 6.78707 31.3355C6.38474 32.4531 5.98241 33.689 5.58008 35.0001C5.70342 34.9654 5.77684 34.8817 5.81795 34.7719C5.88843 34.5352 6.36712 32.9758 7.11305 30.9283C7.1336 30.8706 7.1571 30.8128 7.17765 30.7522C7.18353 30.7348 7.1894 30.7204 7.19527 30.7031C7.27457 30.4894 7.35679 30.2699 7.44196 30.0447C7.46252 29.9927 7.48014 29.9436 7.50069 29.8916V29.8887L6.91335 28.748C6.90748 28.7625 6.90454 28.774 6.9016 28.7885Z" fill="url(#paint4_linear_610_1048)"/>
<path d="M9.96164 24.5462C9.94402 24.5809 9.92934 24.6127 9.91172 24.6473C9.86179 24.7513 9.80893 24.8552 9.75901 24.9621C9.70321 25.0776 9.64741 25.196 9.58868 25.3173C9.55931 25.3779 9.52994 25.4386 9.50057 25.5021C9.41247 25.6898 9.32437 25.8833 9.23333 26.0825C9.12174 26.328 9.01014 26.5821 8.89561 26.8478C8.78695 27.099 8.67536 27.3618 8.56376 27.6304C8.45804 27.8874 8.34938 28.1502 8.24072 28.4245C8.14381 28.6671 8.0469 28.9183 7.94705 29.1753C7.94118 29.1869 7.93824 29.2013 7.93237 29.2129C7.83545 29.467 7.7356 29.7298 7.63576 29.9984C7.63282 30.0041 7.62988 30.0099 7.62988 30.0157L8.10269 29.9637C8.09388 29.9608 8.08507 29.9608 8.07333 29.9579C8.64011 29.8886 9.39192 29.4728 9.87647 28.9588C10.0997 28.722 10.3023 28.4447 10.4902 28.1184C10.6312 27.8758 10.7604 27.6073 10.8867 27.307C10.9954 27.0471 11.1011 26.7641 11.2009 26.4579C11.0717 26.5244 10.9219 26.5735 10.7575 26.6081C10.7281 26.6139 10.6988 26.6197 10.6694 26.6254C10.64 26.6312 10.6107 26.6341 10.5784 26.6399C11.107 26.4406 11.4388 26.0565 11.6796 25.583C11.5416 25.6754 11.3155 25.7966 11.0453 25.8573C11.01 25.866 10.9719 25.8717 10.9337 25.8775C10.9249 25.8775 10.9161 25.8804 10.9043 25.8804C11.0864 25.8053 11.2421 25.7216 11.3771 25.6205C11.4065 25.6003 11.4329 25.5772 11.4594 25.5541C11.5005 25.5194 11.5387 25.4819 11.5768 25.4443C11.6003 25.4183 11.6238 25.3952 11.6473 25.3693C11.7002 25.3086 11.7501 25.2422 11.7942 25.17C11.8088 25.1469 11.8235 25.1267 11.8353 25.1036C11.8529 25.0689 11.8705 25.0372 11.8852 25.0054C11.9586 24.861 12.0173 24.7311 12.0643 24.6155C12.0878 24.5578 12.1084 24.5058 12.126 24.4567C12.1319 24.4365 12.1407 24.4192 12.1466 24.399C12.1642 24.3441 12.1818 24.295 12.1935 24.2517C12.2112 24.1882 12.2229 24.1362 12.2288 24.0986C12.2112 24.1131 12.1906 24.1275 12.1671 24.1391C12.0085 24.2315 11.7354 24.3181 11.5152 24.3585C11.5122 24.3585 11.5093 24.3585 11.5064 24.3614C11.4858 24.3643 11.4623 24.3672 11.4388 24.373C11.4417 24.3701 11.4476 24.3701 11.4506 24.3672L9.96458 24.526C9.96751 24.5376 9.96458 24.5434 9.96164 24.5462Z" fill="url(#paint5_linear_610_1048)"/>
<path d="M11.6348 21.5946C11.5027 21.7939 11.3588 22.022 11.2031 22.2761C11.1943 22.2906 11.1855 22.3021 11.1797 22.3165C11.0446 22.5389 10.9036 22.7815 10.7538 23.05C10.6246 23.2811 10.4895 23.5265 10.3486 23.7951C10.2252 24.0261 10.1019 24.2716 9.96973 24.5315L11.4557 24.3726C11.8874 24.1763 12.0812 24.0001 12.2692 23.7431C12.3191 23.6738 12.369 23.5987 12.419 23.5207C12.5717 23.2868 12.7214 23.0298 12.8536 22.7728C12.9828 22.5245 13.0973 22.279 13.1825 22.0595C13.2383 21.918 13.2823 21.7881 13.3147 21.6726C13.3411 21.5715 13.3616 21.4762 13.3793 21.3838C12.8037 21.4791 12.0959 21.5715 11.6348 21.5946Z" fill="url(#paint6_linear_610_1048)"/>
<path d="M10.675 26.6309C10.6457 26.6366 10.6163 26.6395 10.584 26.6453C10.6134 26.6395 10.6427 26.6337 10.675 26.6309Z" fill="#BE202E"/>
<path opacity="0.35" d="M10.675 26.6309C10.6457 26.6366 10.6163 26.6395 10.584 26.6453C10.6134 26.6395 10.6427 26.6337 10.675 26.6309Z" fill="#BE202E"/>
<path d="M10.675 26.6309C10.6457 26.6366 10.6163 26.6395 10.584 26.6453C10.6134 26.6395 10.6427 26.6337 10.675 26.6309Z" fill="url(#paint7_linear_610_1048)"/>
<path d="M10.9102 25.8828C10.919 25.8828 10.9278 25.8799 10.9395 25.8799C10.9307 25.8799 10.9219 25.8828 10.9102 25.8828Z" fill="#BE202E"/>
<path opacity="0.35" d="M10.9102 25.8828C10.919 25.8828 10.9278 25.8799 10.9395 25.8799C10.9307 25.8799 10.9219 25.8828 10.9102 25.8828Z" fill="#BE202E"/>
<path d="M10.9102 25.8828C10.919 25.8828 10.9278 25.8799 10.9395 25.8799C10.9307 25.8799 10.9219 25.8828 10.9102 25.8828Z" fill="url(#paint8_linear_610_1048)"/>
<path d="M11.5925 24.3465V24.5576H11.5321V24.3465H11.4561V24.2959H11.6662V24.3465H11.5925Z" fill="#B0AFB0"/>
<path d="M11.9489 24.3926L11.8774 24.5356H11.8416L11.77 24.3926V24.5576H11.7119V24.2959H11.7924L11.8617 24.4388L11.9311 24.2959H12.0116V24.5576H11.9534V24.3926H11.9489Z" fill="#B0AFB0"/>
<path d="M14.0332 34.587C13.7851 34.587 13.5676 34.5739 13.3805 34.5476C13.1935 34.5251 13.0351 34.497 12.9053 34.4632V33.0106C13.0465 33.0406 13.1954 33.0669 13.3519 33.0894C13.5046 33.1119 13.6725 33.1232 13.8557 33.1232C14.0313 33.1232 14.1936 33.1044 14.3424 33.0669C14.4951 33.0293 14.6268 32.9636 14.7375 32.8698C14.852 32.7797 14.9398 32.6577 15.0009 32.5038C15.0658 32.3499 15.0982 32.1566 15.0982 31.9239V23.9346H16.8732V31.8676C16.8732 32.3406 16.8026 32.7478 16.6613 33.0894C16.5239 33.431 16.3292 33.7125 16.0773 33.9339C15.8292 34.1591 15.5315 34.3243 15.1841 34.4294C14.8367 34.5345 14.4531 34.587 14.0332 34.587Z" fill="#D22128"/>
<path d="M17.8242 23.9365V32.1669H19.4111V28.3375C19.4111 28.2324 19.4081 28.1147 19.4042 27.9833C19.4042 27.8519 19.4005 27.7157 19.3928 27.573C19.389 27.4304 19.3845 27.2867 19.3769 27.1403C19.3731 26.9939 19.3663 26.851 19.3587 26.7121C19.3434 26.3893 19.3245 26.0553 19.3016 25.7099H19.3541L21.1918 32.1669H22.8219L24.8033 25.7211H24.8489C24.8374 26.0627 24.8254 26.3901 24.8101 26.7054C24.8063 26.8405 24.7995 26.9798 24.7919 27.1224C24.788 27.265 24.7843 27.405 24.7805 27.5439C24.7766 27.6828 24.7729 27.8146 24.769 27.9385C24.769 28.0623 24.769 28.1727 24.769 28.2703V32.1669H26.4243V23.9365H24.0075L22.0832 30.2298H22.049L20.241 23.9365H17.8242ZM34.443 24.5329L33.9392 25.8602L32.9793 26.4363V27.1627H33.8138V30.1961C33.8138 30.6015 33.8627 30.9393 33.962 31.2095C34.065 31.476 34.2059 31.6893 34.3815 31.8507C34.5571 32.0084 34.7657 32.121 35.0062 32.1848C35.2467 32.2486 35.505 32.279 35.7837 32.279C36.0699 32.279 36.3343 32.2523 36.5748 32.196C36.8191 32.1435 37.0217 32.0746 37.1859 31.992V30.7141C37.0255 30.7704 36.8681 30.8178 36.7116 30.8553C36.5589 30.8928 36.3955 30.9113 36.2237 30.9113C36.0252 30.9113 35.8648 30.8528 35.7426 30.7365C35.6205 30.6201 35.5602 30.4401 35.5602 30.1961V27.1627H37.1175V25.8736H35.5602V24.5329H34.443ZM29.9606 25.7548C29.5254 25.7548 29.1292 25.8244 28.7704 25.9633C28.4154 26.1022 28.1096 26.3088 27.8539 26.5866C27.6019 26.8606 27.4046 27.205 27.2634 27.6179C27.1221 28.0308 27.0513 28.5122 27.0513 29.0639C27.0513 29.6082 27.1289 30.0845 27.2816 30.4899C27.4381 30.8915 27.655 31.2255 27.9337 31.492C28.2123 31.7548 28.5445 31.9503 28.93 32.0817C29.3156 32.213 29.7374 32.279 30.1954 32.279C30.4321 32.279 30.649 32.2708 30.8475 32.2521C31.046 32.237 31.232 32.2111 31.4038 32.1736C31.5756 32.1361 31.7368 32.0894 31.8895 32.0368C32.046 31.9805 32.2019 31.9139 32.3546 31.835V30.5055C32.1866 30.5881 32.0224 30.6615 31.8621 30.7253C31.7018 30.7853 31.5383 30.8364 31.3742 30.8777C31.21 30.919 31.0413 30.9516 30.8657 30.9741C30.694 30.9929 30.5109 31.001 30.3163 31.001C30.0834 31.001 29.8748 30.967 29.6915 30.8957C29.5121 30.8243 29.3562 30.7221 29.2264 30.5907C29.1005 30.4556 29.0026 30.2912 28.93 30.0997C28.8613 29.9046 28.8237 29.6876 28.816 29.4473H32.7194V28.6133C32.7194 28.1554 32.6553 27.751 32.5256 27.3982C32.3996 27.0416 32.2166 26.7409 31.9761 26.4969C31.7394 26.2529 31.4487 26.0692 31.1051 25.9453C30.7654 25.8177 30.3843 25.7548 29.9606 25.7548ZM40.4736 25.7548C40.0384 25.7548 39.6423 25.8244 39.2834 25.9633C38.9284 26.1022 38.6226 26.3088 38.3669 26.5866C38.115 26.8606 37.9176 27.205 37.7764 27.6179C37.6351 28.0308 37.5643 28.5122 37.5643 29.0639C37.5643 29.6082 37.6419 30.0845 37.7946 30.4899C37.9511 30.8915 38.168 31.2255 38.4467 31.492C38.7253 31.7548 39.0575 31.9503 39.443 32.0817C39.8286 32.213 40.2504 32.279 40.7084 32.279C40.9451 32.279 41.162 32.2708 41.3605 32.2521C41.559 32.237 41.745 32.2111 41.9168 32.1736C42.0886 32.1361 42.2498 32.0894 42.4025 32.0368C42.559 31.9805 42.7149 31.9139 42.8676 31.835V30.5055C42.6996 30.5881 42.5354 30.6615 42.3751 30.7253C42.2148 30.7853 42.0513 30.8364 41.8872 30.8777C41.723 30.919 41.5543 30.9516 41.3788 30.9741C41.207 30.9929 41.0239 31.001 40.8293 31.001C40.5964 31.001 40.3878 30.967 40.2046 30.8957C40.0251 30.8243 39.8715 30.7221 39.7417 30.5907C39.6158 30.4556 39.5156 30.2912 39.443 30.0997C39.3743 29.9046 39.3367 29.6876 39.329 29.4473H43.2324V28.6133C43.2324 28.1554 43.1684 27.751 43.0386 27.3982C42.9126 27.0416 42.7296 26.7409 42.4891 26.4969C42.2524 26.2529 41.9617 26.0692 41.6181 25.9453C41.2784 25.8177 40.8973 25.7548 40.4736 25.7548ZM47.0377 25.7548C46.8239 25.7548 46.6333 25.7807 46.4654 25.8332C46.3013 25.882 46.1521 25.9524 46.0185 26.0462C45.8887 26.1363 45.772 26.2489 45.6651 26.3803C45.5582 26.5117 45.458 26.6561 45.3664 26.8175H45.2798L45.0222 25.8736H43.6998V32.1669H45.4462V28.9631C45.4462 28.6665 45.4832 28.4169 45.5557 28.2142C45.632 28.0078 45.7367 27.8426 45.8703 27.7188C46.0077 27.5911 46.1712 27.4993 46.3582 27.443C46.5491 27.3867 46.7555 27.3578 46.9807 27.3578C47.0188 27.3578 47.067 27.3608 47.1243 27.3645C47.1816 27.3645 47.238 27.3682 47.2953 27.3757C47.3564 27.3795 47.4151 27.3862 47.4686 27.3937C47.522 27.4012 47.5634 27.4086 47.594 27.4161V25.8041C47.5711 25.7966 47.5372 25.7922 47.4914 25.7884C47.4494 25.7809 47.4012 25.7742 47.3478 25.7705C47.2981 25.763 47.2454 25.7593 47.1882 25.7593C47.1347 25.7555 47.0835 25.7548 47.0377 25.7548ZM29.972 26.9767C30.1552 26.9767 30.3156 27.01 30.4531 27.0775C30.5905 27.1451 30.7057 27.2377 30.7973 27.3578C30.8889 27.4742 30.9567 27.6134 31.0025 27.7748C31.0483 27.9362 31.0739 28.1125 31.0778 28.3039H28.8502C28.8808 27.846 28.9968 27.5112 29.1991 27.2973C29.4052 27.0833 29.6628 26.9767 29.972 26.9767ZM40.485 26.9767C40.6682 26.9767 40.8286 27.01 40.9661 27.0775C41.1035 27.1451 41.2187 27.2377 41.3104 27.3578C41.402 27.4742 41.4697 27.6134 41.5155 27.7748C41.5613 27.9362 41.587 28.1125 41.5908 28.3039H39.3632C39.3938 27.846 39.5098 27.5112 39.7121 27.2973C39.9182 27.0833 40.1758 26.9767 40.485 26.9767Z" fill="black"/>
<path d="M49.3493 25.7387H48.9611V24.2513H48.5V23.9326H49.8091V24.2513H49.3493V25.7387Z" fill="#4D4D4D"/>
<path d="M50.8305 25.7387L50.4272 24.3218H50.4159C50.4209 24.3975 50.4251 24.4708 50.4285 24.5416C50.4302 24.5721 50.4314 24.6034 50.4323 24.6355C50.4339 24.6677 50.4352 24.6994 50.436 24.7307C50.4377 24.762 50.4385 24.792 50.4385 24.8208C50.4394 24.8497 50.4398 24.8756 50.4398 24.8987V25.7387H50.0918V23.9326H50.622L51.0189 25.3137H51.0265L51.4486 23.9326H51.9788V25.7387H51.6157V24.8838C51.6157 24.8624 51.6157 24.8381 51.6157 24.811C51.6165 24.7838 51.6174 24.755 51.6182 24.7245C51.619 24.694 51.6199 24.6631 51.6207 24.6318C51.6224 24.6005 51.6236 24.5701 51.6245 24.5404C51.6278 24.4712 51.6308 24.3992 51.6333 24.3242H51.6232L51.1885 25.7387H50.8305Z" fill="#4D4D4D"/>
<path d="M15.0742 22.6695L16.328 19.7236H16.5696L17.8233 22.6695H17.508L17.1189 21.7492H15.771L15.387 22.6695H15.0742ZM16.45 20.0637L15.8346 21.5191H17.0502L16.45 20.0637Z" fill="#D22128"/>
<path d="M18.1436 22.6695V19.7236H19.3846C19.8983 19.7236 20.2696 20.1913 20.2696 20.6489C20.2696 21.129 19.9237 21.5817 19.41 21.5817H18.436V22.6695H18.1436ZM18.436 21.3241H19.3948C19.7482 21.3241 19.9771 21.004 19.9771 20.6489C19.9771 20.2788 19.6999 19.9812 19.3693 19.9812H18.436V21.3241Z" fill="#D22128"/>
<path d="M20.1074 22.6695L21.3612 19.7236H21.6028L22.8565 22.6695H22.5361L22.147 21.7492H20.8017L20.4177 22.6695H20.1074ZM21.4832 20.0637L20.8678 21.5191H22.0834L21.4832 20.0637Z" fill="#D22128"/>
<path d="M24.2702 19.7061C24.8017 19.7061 25.1908 19.9711 25.3765 20.3487L25.14 20.4888C24.9492 20.0987 24.5779 19.9661 24.255 19.9661C23.5378 19.9661 23.1462 20.5963 23.1462 21.189C23.1462 21.8392 23.6319 22.4293 24.2677 22.4293C24.6059 22.4293 25.0026 22.2643 25.1908 21.8817L25.435 22.0067C25.2417 22.4468 24.7102 22.6919 24.2499 22.6919C23.4285 22.6919 22.8486 21.9192 22.8486 21.174C22.8486 20.4663 23.3674 19.7061 24.2702 19.7061Z" fill="#D22128"/>
<path d="M28.2086 19.7236V22.6695H27.9136V21.2916H26.1385V22.6695H25.8486V19.7236H26.1385V21.034H27.9136V19.7236H28.2086Z" fill="#D22128"/>
<path d="M30.8963 22.4119V22.6695H28.8848V19.7236H30.8582V19.9812H29.1747V21.044H30.642V21.2891H29.1747V22.4119H30.8963Z" fill="#D22128"/>
</g>
<defs>
<linearGradient id="paint0_linear_610_1048" x1="11.5103" y1="20.8433" x2="14.7952" y2="19.9145" gradientUnits="userSpaceOnUse">
<stop stop-color="#F69923"/>
<stop offset="0.3123" stop-color="#F79A23"/>
<stop offset="0.8383" stop-color="#E97826"/>
</linearGradient>
<linearGradient id="paint1_linear_610_1048" x1="4.30201" y1="35.3769" x2="10.8168" y2="21.1686" gradientUnits="userSpaceOnUse">
<stop offset="0.3233" stop-color="#9E2064"/>
<stop offset="0.6302" stop-color="#C92037"/>
<stop offset="0.7514" stop-color="#CD2335"/>
<stop offset="1" stop-color="#E97826"/>
</linearGradient>
<linearGradient id="paint2_linear_610_1048" x1="6.5515" y1="34.3322" x2="10.4337" y2="25.8654" gradientUnits="userSpaceOnUse">
<stop stop-color="#282662"/>
<stop offset="0.0954839" stop-color="#662E8D"/>
<stop offset="0.7882" stop-color="#9F2064"/>
<stop offset="0.9487" stop-color="#CD2032"/>
</linearGradient>
<linearGradient id="paint3_linear_610_1048" x1="4.54514" y1="34.5215" x2="11.06" y2="20.3131" gradientUnits="userSpaceOnUse">
<stop offset="0.3233" stop-color="#9E2064"/>
<stop offset="0.6302" stop-color="#C92037"/>
<stop offset="0.7514" stop-color="#CD2335"/>
<stop offset="1" stop-color="#E97826"/>
</linearGradient>
<linearGradient id="paint4_linear_610_1048" x1="5.22821" y1="33.5812" x2="8.65194" y2="26.1143" gradientUnits="userSpaceOnUse">
<stop stop-color="#282662"/>
<stop offset="0.0954839" stop-color="#662E8D"/>
<stop offset="0.7882" stop-color="#9F2064"/>
<stop offset="0.9487" stop-color="#CD2032"/>
</linearGradient>
<linearGradient id="paint5_linear_610_1048" x1="6.03198" y1="35.2038" x2="12.5468" y2="20.9954" gradientUnits="userSpaceOnUse">
<stop offset="0.3233" stop-color="#9E2064"/>
<stop offset="0.6302" stop-color="#C92037"/>
<stop offset="0.7514" stop-color="#CD2335"/>
<stop offset="1" stop-color="#E97826"/>
</linearGradient>
<linearGradient id="paint6_linear_610_1048" x1="5.54196" y1="36.0458" x2="12.0568" y2="21.8374" gradientUnits="userSpaceOnUse">
<stop offset="0.3233" stop-color="#9E2064"/>
<stop offset="0.6302" stop-color="#C92037"/>
<stop offset="0.7514" stop-color="#CD2335"/>
<stop offset="1" stop-color="#E97826"/>
</linearGradient>
<linearGradient id="paint7_linear_610_1048" x1="6.47389" y1="35.4061" x2="12.9887" y2="21.1978" gradientUnits="userSpaceOnUse">
<stop offset="0.3233" stop-color="#9E2064"/>
<stop offset="0.6302" stop-color="#C92037"/>
<stop offset="0.7514" stop-color="#CD2335"/>
<stop offset="1" stop-color="#E97826"/>
</linearGradient>
<linearGradient id="paint8_linear_610_1048" x1="6.42349" y1="35.3819" x2="12.9373" y2="21.1744" gradientUnits="userSpaceOnUse">
<stop offset="0.3233" stop-color="#9E2064"/>
<stop offset="0.6302" stop-color="#C92037"/>
<stop offset="0.7514" stop-color="#CD2335"/>
<stop offset="1" stop-color="#E97826"/>
</linearGradient>
<clipPath id="clip0_610_1048">
<rect width="56" height="56" fill="white"/>
</clipPath>
</defs>
</svg>
