<svg width="57" height="57" viewBox="0 0 57 57" fill="none" xmlns="http://www.w3.org/2000/svg">
<rect x="0.353516" y="0.287598" width="56" height="56" rx="4" fill="white"/>
<path d="M11.6583 20.2004C11.4066 20.3262 10.9662 20.7666 10.4629 21.3958L10.9033 22.2766C11.2179 21.8362 11.5954 21.3958 11.9099 21.0183C11.7841 21.1441 11.4695 21.5216 10.9662 22.2766C11.4695 22.2766 12.1616 22.1508 12.7908 22.0249C12.9795 21.0183 12.602 20.5779 12.602 20.5779C12.602 20.5779 12.1616 19.8858 11.6583 20.2004Z" fill="url(#paint0_linear_4064_13529)"/>
<path d="M10.2109 26.8694H10.336C10.336 26.8069 10.2735 26.8069 10.2109 26.8694Z" fill="#BE202E"/>
<path opacity="0.35" d="M10.2109 26.8694H10.336C10.336 26.8069 10.2735 26.8069 10.2109 26.8694Z" fill="#BE202E"/>
<path d="M9.51927 24.5415C9.6451 24.2898 9.83384 24.0382 9.95967 23.7865C10.0855 23.5349 10.2742 23.2832 10.4001 23.0315V22.9686C10.5259 22.717 10.7147 22.4653 10.8405 22.2766L10.4001 21.3958L10.2742 21.5216C10.1484 21.7103 10.0226 21.8991 9.83384 22.0878C9.6451 22.2766 9.51926 22.5282 9.33052 22.7799C9.20469 23.0315 9.01594 23.2203 8.8272 23.472C8.70137 23.6607 8.57554 23.9124 8.44971 24.1011L9.07886 25.2965C9.2676 25.0448 9.39343 24.7932 9.51927 24.5415Z" fill="url(#paint1_linear_4064_13529)"/>
<path d="M6.74941 31.3371C6.6865 31.5887 6.56067 31.7775 6.49775 32.0292C6.49775 32.0921 6.49775 32.0921 6.43484 32.155C6.37192 32.2808 6.30901 32.4696 6.24609 32.7841C6.43484 32.847 6.56067 33.0987 6.6865 33.3504C6.6865 33.0987 6.56067 32.847 6.37192 32.6583C7.25274 32.7212 8.00772 32.4696 8.38521 31.8404C8.44812 31.7775 8.44812 31.7146 8.51104 31.6517C8.32229 31.9033 8.13355 31.9662 7.69314 31.9662C8.32229 31.7146 8.63687 31.4 8.88853 30.9596C8.95145 30.8338 9.01436 30.7708 9.07728 30.645C8.51104 31.2113 7.9448 31.3371 7.25274 31.2113L6.74941 31.2742C6.81233 31.2742 6.74941 31.2742 6.74941 31.3371Z" fill="url(#paint2_linear_4064_13529)"/>
<path d="M7.00281 30.2668C7.12864 30.0152 7.19155 29.7006 7.31739 29.4489C7.44322 29.1973 7.50613 28.8827 7.63196 28.631C7.75779 28.3794 7.88362 28.0648 7.94654 27.8131C8.07237 27.5615 8.1982 27.2469 8.32403 26.9952C8.44986 26.7436 8.57569 26.429 8.70152 26.1773C8.76443 26.0515 8.76443 25.9886 8.82735 25.8628C8.89026 25.674 9.01609 25.5482 9.07901 25.3595L8.44986 24.1641V24.227C8.32403 24.4786 8.13528 24.6674 8.00945 24.919C7.88362 25.1707 7.75779 25.4224 7.56904 25.674C7.44321 25.8628 7.31738 26.1144 7.25447 26.3032C7.25447 26.3661 7.19155 26.3661 7.19155 26.429C7.06572 26.6807 6.93989 26.9952 6.81406 27.2469C6.68823 27.5615 6.5624 27.8131 6.49949 28.0648C6.49949 28.1906 6.43657 28.3794 6.43657 28.5052C6.37366 28.631 6.37366 28.7569 6.31074 28.8827C6.24783 29.1973 6.122 29.5119 6.05908 29.8264L6.68823 31.0218C6.75115 30.8331 6.87698 30.5814 6.93989 30.3927C6.93989 30.3927 6.93989 30.3297 7.00281 30.2668Z" fill="url(#paint3_linear_4064_13529)"/>
<path d="M6.05894 29.8894L5.87019 31.0219V31.0848C5.68145 30.7702 5.17813 30.4556 5.17813 30.4556C5.55562 30.959 5.80728 31.5252 5.87019 32.0285C5.68145 32.0914 5.42979 32.0285 5.11521 31.9027C5.42979 32.2173 5.68145 32.2802 5.80728 32.2802C5.4927 32.2802 5.17813 32.5318 4.86355 32.7206C5.30396 32.5318 5.68145 32.4689 5.93311 32.5318C5.4927 33.7272 5.11521 35.0484 4.6748 36.4326C4.80064 36.3697 4.86355 36.3068 4.92646 36.1809C4.98938 35.9293 5.4927 34.2935 6.24768 32.0914C6.24768 32.0285 6.3106 31.9656 6.3106 31.9027V31.8398C6.37351 31.5881 6.49934 31.3994 6.56226 31.1477C6.56226 31.0848 6.62517 31.0219 6.62517 30.959L6.05894 29.8894Z" fill="url(#paint4_linear_4064_13529)"/>
<path d="M9.20474 25.4224C9.20474 25.4854 9.14183 25.4854 9.14183 25.5483C9.07891 25.6741 9.016 25.7999 8.95308 25.8629L8.76434 26.2403C8.76434 26.3033 8.70142 26.3662 8.70142 26.4291C8.6385 26.6178 8.51268 26.8066 8.44976 27.0582C8.32393 27.3099 8.1981 27.5616 8.07227 27.8761C7.94644 28.1278 7.82061 28.4424 7.75769 28.694C7.63186 28.9457 7.50603 29.2603 7.44312 29.5119C7.31729 29.7636 7.25437 30.0153 7.12854 30.3298V30.3927C7.00271 30.6444 6.9398 30.959 6.81396 31.2106L7.31729 31.1477C7.88352 31.0848 8.70142 30.6444 9.20474 30.0782C9.4564 29.8265 9.64515 29.5119 9.83389 29.1974C9.95972 28.9457 10.0856 28.6311 10.2743 28.3165C10.4001 28.0649 10.526 27.7503 10.5889 27.4357C10.463 27.4986 10.2743 27.5616 10.1485 27.6245H9.95972C10.526 27.4357 10.8405 26.9953 11.0922 26.492C10.9664 26.6178 10.7147 26.7437 10.4001 26.8066H10.2743C10.463 26.7437 10.6518 26.6178 10.7776 26.5549L10.8405 26.492L10.9664 26.3662L11.0293 26.3033C11.0922 26.2403 11.1551 26.1774 11.1551 26.1145C11.1551 26.1145 11.1551 26.0516 11.218 26.0516C11.218 25.9887 11.2809 25.9887 11.2809 25.9258C11.3439 25.7999 11.4068 25.6112 11.4697 25.4854C11.4697 25.4224 11.5326 25.3595 11.5326 25.2966V25.2337C11.5326 25.1708 11.5955 25.1079 11.5955 25.1079C11.5955 25.045 11.5955 24.982 11.6584 24.9191C11.7213 24.8562 11.5955 24.9191 11.5955 24.982C11.4068 25.1079 11.1551 25.1708 10.9035 25.2337L11.3439 25.1708L10.8405 25.2337H10.7776L9.20474 25.4224Z" fill="url(#paint5_linear_4064_13529)"/>
<path d="M10.9648 22.2771C10.839 22.4659 10.6502 22.7176 10.5244 22.9692V23.0321C10.3986 23.2838 10.2098 23.5355 10.084 23.7871C9.95818 24.0388 9.83235 24.2904 9.6436 24.605L9.26611 25.36L10.839 25.1712C11.2794 24.9825 11.4681 24.7938 11.6569 24.4792C11.7198 24.4163 11.7827 24.3534 11.7827 24.2275C11.9715 23.9759 12.0973 23.7242 12.2231 23.4096C12.349 23.158 12.4748 22.9063 12.5377 22.6546C12.6006 22.5288 12.6635 22.3401 12.6635 22.2142C12.6635 22.0884 12.7264 22.0255 12.7264 21.8997C12.2231 22.1513 11.4681 22.2771 10.9648 22.2771Z" fill="url(#paint6_linear_4064_13529)"/>
<path d="M10.9539 25.2189V25.458H10.907V25.2189H10.8101V25.1704H11.0492V25.2173L10.9539 25.2189Z" fill="#B0AFB0"/>
<path d="M11.2885 25.2658L11.1931 25.4096H11.1462L11.0493 25.2658V25.458H11.0024V25.1704H11.0962L11.1931 25.3142L11.2885 25.1704H11.3854V25.458H11.3369L11.2885 25.2658Z" fill="#B0AFB0"/>
<path d="M13.5263 36.0961H12.9011C12.7447 36.0961 12.5884 36.0961 12.4321 35.9398V34.3767C12.5884 34.3767 12.7447 34.3767 12.9011 34.533H13.8389C13.9952 34.533 14.1515 34.3767 14.3078 34.3767L14.6204 34.0641C14.6204 33.9078 14.7767 33.7515 14.7767 33.4389V24.9983H16.6524V33.4389C16.6524 33.9078 16.6524 34.3767 16.4961 34.6893C16.3398 35.0019 16.1835 35.3146 15.8709 35.6272C15.5583 35.9398 15.2457 36.0961 14.9331 36.0961C14.3078 35.9398 13.8389 36.0961 13.5263 36.0961Z" fill="url(#paint7_linear_4064_13529)"/>
<path d="M20.8744 33.4387L18.9987 26.5612V33.4387H17.2793V24.6855H19.7802L21.6559 31.4068L23.6879 24.6855H26.1888V33.4387H24.4694V29.3748V29.0621V28.5932V28.1243V27.6554V26.5612L22.4374 33.4387H20.8744ZM30.0965 27.968C29.7839 27.968 29.4712 28.1243 29.3149 28.2806C29.1586 28.4369 29.0023 28.9058 29.0023 29.3748H31.3469V28.7495C31.3469 28.5932 31.1906 28.4369 31.1906 28.2806L30.878 27.968H30.0965ZM30.2528 33.5951C29.7839 33.5951 29.3149 33.5951 29.0023 33.4387C28.5334 33.2824 28.2208 33.1261 27.9082 32.8135C27.5956 32.5009 27.4393 32.1883 27.2829 31.7194C27.1266 31.2504 26.9703 30.7815 26.9703 30.1563C26.9703 29.5311 26.9703 29.0621 27.1266 28.5932C27.2829 28.1243 27.4393 27.8117 27.7519 27.4991C28.0645 27.1865 28.3771 27.0302 28.6897 26.8738C29.0023 26.7175 29.4712 26.7175 29.9402 26.7175C30.4091 26.7175 30.7217 26.7175 31.1906 26.8738C31.5032 27.0302 31.8159 27.1865 32.1285 27.4991C32.4411 27.8117 32.5974 28.1243 32.7537 28.4369C32.91 28.7495 32.91 29.2185 32.91 29.6874V30.6252H28.846C28.846 30.9378 28.846 31.0941 29.0023 31.2504C29.0023 31.4068 29.1586 31.5631 29.3149 31.7194C29.4712 31.8757 29.6276 32.032 29.7839 32.032C29.9402 32.032 30.2528 32.1883 30.4091 32.1883H31.0343C31.1906 32.1883 31.3469 32.1883 31.5032 32.032C31.6595 32.032 31.8159 31.8757 31.9722 31.8757C32.1285 31.8757 32.2848 31.7194 32.4411 31.7194V33.1261C32.2848 33.2824 32.1285 33.2824 31.9722 33.2824C31.8159 33.2824 31.6595 33.4387 31.5032 33.4387C31.3469 33.4387 31.1906 33.4387 30.878 33.5951H30.2528ZM36.6614 32.1883H37.1303C37.2866 32.1883 37.4429 32.032 37.5992 32.032V33.4387C37.4429 33.5951 37.2866 33.5951 36.974 33.5951C36.6614 33.5951 36.5051 33.7514 36.1925 33.7514C35.8798 33.7514 35.5672 33.7514 35.4109 33.5951C35.2546 33.4387 34.942 33.4387 34.7857 33.2824C34.6294 33.1261 34.4731 32.8135 34.3168 32.6572C34.1605 32.3446 34.1605 32.032 34.1605 31.5631V28.1243H33.2226V27.3428L34.1605 26.7175L34.6294 25.3108H35.7235V26.7175H37.2866V28.1243H35.7235V31.4068C35.7235 31.7194 35.7235 31.8757 35.8798 32.032C36.1925 32.032 36.3488 32.1883 36.6614 32.1883ZM41.038 27.968C40.7254 27.968 40.4127 28.1243 40.2564 28.2806C40.1001 28.4369 39.9438 28.9058 39.9438 29.3748H42.2884V28.7495C42.2884 28.5932 42.1321 28.4369 42.1321 28.2806L41.8195 27.968H41.038ZM41.1943 33.5951C40.7254 33.5951 40.2564 33.5951 39.9438 33.4387C39.6312 33.2824 39.1623 33.1261 38.8497 32.8135C38.5371 32.5009 38.3808 32.1883 38.2244 31.7194C38.0681 31.2504 37.9118 30.7815 37.9118 30.1563C37.9118 29.5311 37.9118 29.0621 38.0681 28.5932C38.2244 28.1243 38.3808 27.8117 38.6934 27.4991C39.006 27.1865 39.3186 27.0302 39.6312 26.8738C39.9438 26.7175 40.4127 26.7175 40.8817 26.7175C41.3506 26.7175 41.6632 26.7175 42.1321 26.8738C42.4447 27.0302 42.7573 27.1865 43.07 27.4991C43.3826 27.8117 43.5389 28.1243 43.6952 28.4369C43.8515 28.7495 43.8515 29.2185 43.8515 29.6874V30.6252H39.7875C39.7875 30.9378 39.7875 31.0941 39.9438 31.2504C39.9438 31.4068 40.1001 31.5631 40.2564 31.7194C40.4127 31.8757 40.5691 32.032 40.7254 32.032C40.8817 32.032 41.1943 32.1883 41.3506 32.1883H41.9758C42.1321 32.1883 42.2884 32.1883 42.4447 32.032C42.601 32.032 42.7574 31.8757 42.9137 31.8757C43.07 31.8757 43.2263 31.7194 43.3826 31.7194V33.1261C43.2263 33.2824 43.07 33.2824 42.9137 33.2824C42.7574 33.2824 42.601 33.4387 42.4447 33.4387C42.2884 33.4387 42.1321 33.4387 41.8195 33.5951H41.1943ZM47.9155 26.7175H48.5407V28.4369H47.9155C47.6029 28.4369 47.4466 28.4369 47.2903 28.5932C47.1339 28.5932 46.9776 28.7495 46.8213 28.9058C46.665 29.0621 46.5087 29.2185 46.5087 29.3748C46.5087 29.5311 46.3524 29.8437 46.3524 30.1563V33.5951H44.4767V26.8738H45.7272L46.0398 27.8117H46.1961C46.3524 27.6554 46.3524 27.4991 46.5087 27.3428L46.8213 27.0302C46.9776 26.8738 47.1339 26.8738 47.2903 26.8738C47.4466 26.7175 47.6029 26.7175 47.9155 26.7175Z" fill="black"/>
<path d="M49.3212 26.7185H48.8522V25.1554H48.3833V24.8428H49.7901V25.1554H49.3212V26.7185Z" fill="url(#paint8_linear_4064_13529)"/>
<path d="M50.8855 26.7174L50.4166 25.1544V26.8737H50.104V24.998H50.7292L51.1981 26.4048L51.6671 24.998H51.9797V26.8737H51.6671V25.9359V25.7796V25.6233V25.3107L51.1981 26.8737H50.8855" fill="url(#paint9_linear_4064_13529)"/>
<path d="M14.5566 23.4626L15.8649 20.3568H16.1369L17.4452 23.4626H17.117L16.7371 22.481H15.3194L14.938 23.4626H14.5566ZM15.9743 20.6835L15.3194 22.209H16.573L15.9743 20.6835ZM17.7719 23.4626V20.3568H19.0802C19.6241 20.3568 20.0055 20.8476 20.0055 21.3369C20.0055 21.8261 19.6241 22.3185 19.1333 22.3185H18.0986V23.4626H17.7719ZM18.0439 21.9918H19.0255C19.4068 21.9918 19.6241 21.6635 19.6241 21.2821C19.6241 20.9008 19.3521 20.5741 18.9708 20.5741H17.9891V21.9918H18.0439ZM19.7882 23.4626L21.095 20.3568H21.3669L22.6752 23.4626H22.347L21.9672 22.481H20.551L20.1696 23.4626H19.7882ZM21.2575 20.6835L20.6042 22.209H21.8577L21.2575 20.6835ZM24.1461 20.3021C24.6916 20.3021 25.1277 20.5741 25.2902 20.9555L25.0183 21.1196C24.7994 20.6835 24.4181 20.5741 24.0914 20.5741C23.3286 20.5741 22.9472 21.229 22.9472 21.8824C22.9472 22.5904 23.438 23.1891 24.0914 23.1891C24.4196 23.1891 24.8542 23.0265 25.073 22.5904L25.345 22.6999C25.1261 23.1891 24.5822 23.4079 24.0914 23.4079C23.2207 23.4079 22.6221 22.5904 22.6221 21.773C22.6752 21.1196 23.2207 20.3021 24.1461 20.3021ZM28.2319 20.3021V23.4079H27.9053V21.9371H26.1077V23.4064H25.7795V20.3037H26.1077V21.6651H27.96V20.3052L28.2319 20.3021ZM31.0658 23.1359V23.4079H28.9947V20.3005H31.0658V20.5725H29.3198V21.7167H30.8454V21.9902H29.3198V23.1875H31.0642L31.0658 23.1359Z" fill="#D22128"/>
<defs>
<linearGradient id="paint0_linear_4064_13529" x1="10.8583" y1="21.5345" x2="12.2394" y2="21.1505" gradientUnits="userSpaceOnUse">
<stop stop-color="#F69923"/>
<stop offset="0.312" stop-color="#F79A23"/>
<stop offset="0.838" stop-color="#E97826"/>
</linearGradient>
<linearGradient id="paint1_linear_4064_13529" x1="3.34197" y1="36.9303" x2="6.15095" y2="30.9061" gradientUnits="userSpaceOnUse">
<stop offset="0.323" stop-color="#9E2064"/>
<stop offset="0.63" stop-color="#C92037"/>
<stop offset="0.751" stop-color="#CD2335"/>
<stop offset="1" stop-color="#E97826"/>
</linearGradient>
<linearGradient id="paint2_linear_4064_13529" x1="5.68691" y1="35.8254" x2="7.36076" y2="32.2356" gradientUnits="userSpaceOnUse">
<stop stop-color="#282662"/>
<stop offset="0.095" stop-color="#662E8D"/>
<stop offset="0.788" stop-color="#9F2064"/>
<stop offset="0.949" stop-color="#CD2032"/>
</linearGradient>
<linearGradient id="paint3_linear_4064_13529" x1="3.59584" y1="36.0249" x2="6.40482" y2="30.0007" gradientUnits="userSpaceOnUse">
<stop offset="0.323" stop-color="#9E2064"/>
<stop offset="0.63" stop-color="#C92037"/>
<stop offset="0.751" stop-color="#CD2335"/>
<stop offset="1" stop-color="#E97826"/>
</linearGradient>
<linearGradient id="paint4_linear_4064_13529" x1="4.30985" y1="35.0291" x2="5.78593" y2="31.8635" gradientUnits="userSpaceOnUse">
<stop stop-color="#282662"/>
<stop offset="0.095" stop-color="#662E8D"/>
<stop offset="0.788" stop-color="#9F2064"/>
<stop offset="0.949" stop-color="#CD2032"/>
</linearGradient>
<linearGradient id="paint5_linear_4064_13529" x1="5.1447" y1="36.7472" x2="7.95368" y2="30.7231" gradientUnits="userSpaceOnUse">
<stop offset="0.323" stop-color="#9E2064"/>
<stop offset="0.63" stop-color="#C92037"/>
<stop offset="0.751" stop-color="#CD2335"/>
<stop offset="1" stop-color="#E97826"/>
</linearGradient>
<linearGradient id="paint6_linear_4064_13529" x1="4.63522" y1="37.6411" x2="7.44399" y2="31.6174" gradientUnits="userSpaceOnUse">
<stop offset="0.323" stop-color="#9E2064"/>
<stop offset="0.63" stop-color="#C92037"/>
<stop offset="0.751" stop-color="#CD2335"/>
<stop offset="1" stop-color="#E97826"/>
</linearGradient>
<linearGradient id="paint7_linear_4064_13529" x1="273.058" y1="-522.862" x2="274.805" y2="-526.609" gradientUnits="userSpaceOnUse">
<stop stop-color="#F69923"/>
<stop offset="0.312" stop-color="#F79A23"/>
<stop offset="0.838" stop-color="#E97826"/>
</linearGradient>
<linearGradient id="paint8_linear_4064_13529" x1="48.3989" y1="25.7306" x2="49.7635" y2="25.7306" gradientUnits="userSpaceOnUse">
<stop offset="0.323" stop-color="#9E2064"/>
<stop offset="0.63" stop-color="#C92037"/>
<stop offset="0.751" stop-color="#CD2335"/>
<stop offset="1" stop-color="#E97826"/>
</linearGradient>
<linearGradient id="paint9_linear_4064_13529" x1="50.0587" y1="25.7296" x2="52.025" y2="25.7296" gradientUnits="userSpaceOnUse">
<stop offset="0.323" stop-color="#9E2064"/>
<stop offset="0.63" stop-color="#C92037"/>
<stop offset="0.751" stop-color="#CD2335"/>
<stop offset="1" stop-color="#E97826"/>
</linearGradient>
</defs>
</svg>
