<svg width="57" height="56" viewBox="0 0 57 56" fill="none" xmlns="http://www.w3.org/2000/svg">
<rect x="0.0629883" width="56" height="56" rx="4" fill="white"/>
<path d="M28.2677 4.00569C22.3262 3.89232 16.6588 5.4601 11.8095 9.9433C1.6616 19.329 1.35954 35.3989 11.1611 45.131C12.9253 46.8828 15.025 48.5034 17.3305 49.4903C17.9327 47.4656 17.8154 45.0211 17.6248 42.6182C17.579 42.5708 17.5316 42.5238 17.4966 42.4714C16.8525 41.5113 17.3305 39.0047 17.3305 37.8644C21.3823 38.5827 24.6825 40.8112 29.0201 39.5168C33.2649 38.2499 35.0342 32.1283 31.2918 29.2303C29.0317 27.4793 25.6788 27.7181 23.0134 28.0392C21.4126 28.2325 19.4139 28.8234 18.3089 27.1209C17.6566 26.1188 18.3298 23.6592 18.4393 22.5255C18.4665 22.2398 18.4964 21.9486 18.5247 21.6617C18.8086 18.1409 19.2795 14.5822 19.2795 11.0595H36.4886V5.08659C33.7258 4.45568 30.9684 4.0581 28.2677 4.00569Z" fill="#DC514A"/>
<path d="M36.3496 5.07568V15.5897H23.8272L23.1765 23.6759C25.9552 23.4581 28.5313 22.9677 31.3081 23.6204C33.2117 24.0688 34.9985 24.9676 36.3205 26.4263C40.0101 30.4921 39.2841 38.1245 35.0482 41.5536C33.8563 42.5188 32.4942 43.1528 31.0561 43.5605C29.7283 43.9848 28.3943 44.1646 27.0556 44.177C26.5761 44.203 26.0961 44.2165 25.6159 44.2174C23.531 44.2174 21.4456 43.9464 19.436 43.3842C18.9251 43.2409 18.1346 43.0417 17.6376 42.6698C17.5324 42.6473 17.4268 42.6228 17.3216 42.5999L17.1597 49.3932C30.0653 56.2366 46.506 48.9145 51.1352 35.4839C55.0485 24.134 48.9882 8.05478 36.3496 5.07568Z" fill="#23A161"/>
</svg>
