<svg width="56" height="56" viewBox="0 0 56 56" fill="none" xmlns="http://www.w3.org/2000/svg">
<g clip-path="url(#clip0_614_594)">
<path d="M43.3672 0.274414H13.6172C6.36845 0.274414 0.492188 6.15068 0.492188 13.3994V43.1494C0.492188 50.3982 6.36845 56.2744 13.6172 56.2744H43.3672C50.6159 56.2744 56.4922 50.3982 56.4922 43.1494V13.3994C56.4922 6.15068 50.6159 0.274414 43.3672 0.274414Z" fill="white"/>
<path d="M46.1958 20.0019C44.2551 19.9645 42.4046 20.4768 40.821 21.9397C37.5084 25.0053 37.4093 30.2518 40.609 33.4299C41.1858 34.0027 41.8712 34.5309 42.6236 34.8526C42.8206 34.1916 42.782 33.3929 42.7195 32.608C42.7048 32.5922 42.6902 32.5776 42.678 32.5601C42.4684 32.2481 42.6236 31.4287 42.6236 31.057C43.948 31.291 45.0237 32.0186 46.4404 31.5965C47.8257 31.1825 48.4046 29.1849 47.1826 28.2371C46.4452 27.6663 45.3492 27.7443 44.4794 27.8496C43.9577 27.9121 43.3037 28.1047 42.9437 27.5485C42.7296 27.2219 42.9498 26.4187 42.9856 26.0482L43.0181 25.7265C43.1107 24.5889 43.2602 23.4413 43.2602 22.3037H48.8799V20.3549C47.9776 20.149 47.0774 20.019 46.1954 20.0023L46.1958 20.0019Z" fill="#DC514A"/>
<path d="M48.7968 20.3818V23.8098H44.7143L44.5031 26.446C45.4086 26.3749 46.2475 26.2149 47.1527 26.4286C47.7734 26.5736 48.3552 26.8665 48.7875 27.3422C49.99 28.6678 49.7519 31.1554 48.3714 32.2742C47.9802 32.5915 47.5325 32.7991 47.0592 32.9319C46.6413 33.0617 46.2062 33.1281 45.7686 33.129C45.6109 33.1371 45.4533 33.1424 45.2969 33.1424C44.616 33.1436 43.9381 33.0523 43.2819 32.871C43.1173 32.8247 42.8606 32.7593 42.6985 32.6394L42.5933 32.6154L42.54 34.8291C46.7464 37.0595 52.1074 34.674 53.6158 30.2957C54.8915 26.5955 52.9162 21.354 48.7968 20.3818Z" fill="#23A161"/>
<path d="M28.367 22.1863C27.8157 22.4016 27.9615 23.8467 28.6822 23.583C29.3144 23.3515 29.1076 21.8971 28.367 22.1863ZM4.87965 22.3041V30.9521C4.87965 31.9751 5.17215 33.5725 4.48639 34.4313C3.84044 35.2422 2.8898 34.9432 2.01635 34.9066C2.01635 35.0895 1.955 35.4076 2.06997 35.5607C2.28326 35.8475 2.98161 35.75 3.28875 35.75C4.28611 35.7484 5.21928 35.2869 5.50691 34.2741C5.87538 32.9724 5.67347 31.4498 5.67347 30.1083V22.3041H4.87965ZM8.48315 22.3041V27.9466C8.48315 29.1008 8.38483 30.3098 8.928 31.3738C10.2179 33.9028 14.7237 33.8601 16.0838 31.4258C16.6733 30.3679 16.5945 29.1154 16.5945 27.9466V22.3041H15.747V27.9999C15.747 29.0277 15.8762 30.1209 15.359 31.0574C14.25 33.0667 10.7078 32.9952 9.66495 30.9521C9.16891 29.9804 9.279 28.8424 9.279 27.7882V22.3041H8.48315ZM30.4312 25.7321H31.5983V30.4768C31.5983 31.2479 31.576 32.1599 32.1842 32.7384C32.9049 33.4254 34.059 33.2414 34.937 33.0602V32.4285C34.3247 32.4545 33.5886 32.71 33.0292 32.3391C32.3938 31.9174 32.3922 31.1012 32.3922 30.4256V25.7317H34.7253V25.0464H32.3922V23.1483C31.5082 23.1516 31.9851 24.361 31.5581 24.8668C31.149 25.3535 30.4328 24.9022 30.4312 25.7321ZM20.0948 26.1542H20.0412L19.9347 25.0468H19.2457V33.0606H20.0412V29.3174C20.0412 28.4411 20.0123 27.5245 20.4551 26.734C21.158 25.4729 23.5687 25.124 24.4612 26.3655C24.9024 26.9814 24.865 27.9093 24.865 28.632V33.0602H25.6073V28.632C25.6073 27.7703 25.6784 26.8311 25.2416 26.0486C24.3377 24.4317 20.9317 24.4801 20.0944 26.1538M28.1517 25.0464V33.0598H28.9471V25.046L28.1517 25.0464Z" fill="#737373"/>
</g>
<defs>
<clipPath id="clip0_614_594">
<rect width="56" height="56" fill="white"/>
</clipPath>
</defs>
</svg>
