<svg width="56" height="56" viewBox="0 0 56 56" fill="none" xmlns="http://www.w3.org/2000/svg">
<g clip-path="url(#clip0_614_615)">
<path d="M42.875 0H13.125C5.87626 0 0 5.87626 0 13.125V42.875C0 50.1237 5.87626 56 13.125 56H42.875C50.1237 56 56 50.1237 56 42.875V13.125C56 5.87626 50.1237 0 42.875 0Z" fill="white"/>
<mask id="mask0_614_615" style="mask-type:luminance" maskUnits="userSpaceOnUse" x="4" y="14" width="48" height="28">
<path d="M52 14H4V41.4774H52V14Z" fill="white"/>
</mask>
<g mask="url(#mask0_614_615)">
<path fill-rule="evenodd" clip-rule="evenodd" d="M-1.09026 41.4718C-0.604811 41.4718 -0.169463 41.2578 0.126706 40.9189L6.9896 34.0562V39.8545C6.9896 40.7468 7.71311 41.4705 8.60563 41.4705C9.05211 41.4705 9.45628 41.2892 9.74889 40.9964L16.6853 34.06V39.8547C16.6853 40.747 17.409 41.4705 18.3013 41.4705C19.1936 41.4705 19.9171 40.747 19.9171 39.8547V30.1588C19.9171 29.2665 19.1936 28.543 18.3013 28.543C17.855 28.543 17.4511 28.7238 17.1587 29.0164L10.2214 35.9535V30.1588C10.2214 29.2665 9.49793 28.543 8.60563 28.543C8.18008 28.543 7.79327 28.7076 7.50467 28.9761L7.50223 28.9786C7.47551 29.0033 7.44989 29.0291 7.42517 29.0556L-2.21971 38.7003C-2.51989 38.9936 -2.70605 39.4031 -2.70605 39.8558C-2.70605 40.7481 -1.98255 41.4718 -1.09026 41.4718Z" fill="#1B1918"/>
<path fill-rule="evenodd" clip-rule="evenodd" d="M30.421 36.6227H25.5731C25.1269 36.6227 24.7653 36.9845 24.7653 37.4306C24.7653 37.8768 25.1269 38.2387 25.5731 38.2387H30.421C30.867 38.2387 31.2289 37.8768 31.2289 37.4306C31.2289 36.9845 30.867 36.6227 30.421 36.6227ZM30.421 33.3908C30.867 33.3908 31.2289 33.029 31.2289 32.5827C31.2289 32.1367 30.867 31.7748 30.421 31.7748H23.1492C22.2569 31.7748 21.5332 31.0511 21.5332 30.1588C21.5332 29.2665 22.2569 28.543 23.1492 28.543H32.8449C33.7372 28.543 34.4609 29.2665 34.4609 30.1588V39.8545C34.4609 40.747 33.7372 41.4705 32.8449 41.4705H23.1492C22.2569 41.4705 21.5332 40.747 21.5332 39.8545V35.0066C21.5332 34.1143 22.2569 33.3908 23.1492 33.3908H30.421Z" fill="#1B1918"/>
<path fill-rule="evenodd" clip-rule="evenodd" d="M18.3019 13.999C19.1942 13.999 19.9177 14.7227 19.9177 15.615V25.3107C19.9177 26.203 19.1942 26.9267 18.3019 26.9267C17.8557 26.9267 17.4517 26.7457 17.1593 26.4533L10.2221 19.5162V25.3107C10.2221 26.203 9.49854 26.9267 8.60625 26.9267C7.71373 26.9267 6.99023 26.203 6.99023 25.3107V15.615C6.99023 14.7227 7.71373 13.9992 8.60625 13.9992C9.05273 13.9992 9.4569 14.1803 9.74951 14.4733L16.6859 21.4097V15.615C16.6859 14.7227 17.4096 13.999 18.3019 13.999Z" fill="#1B1918"/>
<path fill-rule="evenodd" clip-rule="evenodd" d="M47.3889 28.543C48.2812 28.543 49.0048 29.2665 49.0048 30.1588V39.8545C49.0048 40.747 48.2812 41.4705 47.3889 41.4705C46.9428 41.4705 46.5389 41.2897 46.2463 40.9971L39.3092 34.06V39.8547C39.3092 40.747 38.5854 41.4705 37.6931 41.4705C36.8008 41.4705 36.0771 40.747 36.0771 39.8547V30.159C36.0771 29.2667 36.8008 28.543 37.6931 28.543C38.1396 28.543 38.544 28.7243 38.8364 29.0171L45.773 35.9535V30.1588C45.773 29.2665 46.4966 28.543 47.3889 28.543Z" fill="#1B1918"/>
<path fill-rule="evenodd" clip-rule="evenodd" d="M57.0844 14C56.5992 14 56.1638 14.214 55.8675 14.553L49.0048 21.4156V15.6174C49.0048 14.7251 48.2812 14.0014 47.3889 14.0014C46.9424 14.0014 46.5379 14.1826 46.2455 14.4755L39.3092 21.4118V15.6172C39.3092 14.7249 38.5854 14.0014 37.6931 14.0014C36.8008 14.0014 36.0771 14.7249 36.0771 15.6172V25.3131C36.0771 26.2053 36.8008 26.9288 37.6931 26.9288C38.1393 26.9288 38.5434 26.748 38.8358 26.4554L45.773 19.5184V25.3131C45.773 26.2053 46.4966 26.9288 47.3889 26.9288C47.8142 26.9288 48.2011 26.7645 48.4897 26.4957L48.4922 26.4933C48.5187 26.4686 48.5445 26.443 48.5692 26.4162L58.214 16.7716C58.5142 16.4784 58.7005 16.0688 58.7005 15.6161C58.7005 14.7238 57.9767 14 57.0844 14Z" fill="#1B1918"/>
<path fill-rule="evenodd" clip-rule="evenodd" d="M25.5731 18.8468H30.421C30.867 18.8468 31.2289 18.4852 31.2289 18.0389C31.2289 17.5929 30.867 17.231 30.421 17.231H25.5731C25.1269 17.231 24.7653 17.5929 24.7653 18.0389C24.7653 18.4852 25.1269 18.8468 25.5731 18.8468ZM25.5731 22.0789C25.1269 22.0789 24.7653 22.4407 24.7653 22.8868C24.7653 23.333 25.1269 23.6949 25.5731 23.6949H32.8449C33.7372 23.6949 34.4609 24.4184 34.4609 25.3107C34.4609 26.203 33.7372 26.9267 32.8449 26.9267H23.1492C22.2569 26.9267 21.5332 26.203 21.5332 25.3107V15.615C21.5332 14.7227 22.2569 13.999 23.1492 13.999H32.8449C33.7372 13.999 34.4609 14.7227 34.4609 15.615V20.4629C34.4609 21.3552 33.7372 22.0789 32.8449 22.0789H25.5731Z" fill="#1B1918"/>
</g>
</g>
<defs>
<clipPath id="clip0_614_615">
<rect width="56" height="56" fill="white"/>
</clipPath>
</defs>
</svg>
