<svg width="56" height="56" viewBox="0 0 56 56" fill="none" xmlns="http://www.w3.org/2000/svg">
<rect width="56" height="56" rx="4" fill="white"/>
<g clip-path="url(#clip0_4068_357)">
<path fill-rule="evenodd" clip-rule="evenodd" d="M-1.09075 41.472C-0.605296 41.472 -0.169948 41.258 0.126221 40.9191H0.126444L6.98912 34.0564V39.8547C6.98912 40.747 7.71262 41.4707 8.60514 41.4707C9.05162 41.4707 9.45579 41.2894 9.7484 40.9966L16.6848 34.0602V39.8549C16.6848 40.7472 17.4085 41.4707 18.3008 41.4707C19.1931 41.4707 19.9166 40.7472 19.9166 39.8549V30.159C19.9166 29.2667 19.1931 28.5432 18.3008 28.5432C17.8545 28.5432 17.4506 28.724 17.1582 29.0166V29.0164L10.2209 35.9537V30.159C10.2209 29.2667 9.49744 28.5432 8.60514 28.5432C8.17959 28.5432 7.79279 28.7078 7.50419 28.9763L7.50174 28.9788C7.47502 29.0035 7.44941 29.0293 7.42469 29.0558L-2.2202 38.7005L-2.21998 38.7007C-2.52016 38.994 -2.70654 39.4033 -2.70654 39.856C-2.70654 40.7483 -1.98304 41.472 -1.09075 41.472Z" fill="#1B1918"/>
<path fill-rule="evenodd" clip-rule="evenodd" d="M30.4205 36.6229H25.5726C25.1264 36.6229 24.7648 36.9847 24.7648 37.4308C24.7648 37.877 25.1264 38.2389 25.5726 38.2389H30.4205C30.8665 38.2389 31.2284 37.877 31.2284 37.4308C31.2284 36.9847 30.8665 36.6229 30.4205 36.6229ZM30.4205 33.391C30.8665 33.391 31.2284 33.0292 31.2284 32.5829C31.2284 32.1369 30.8665 31.775 30.4205 31.775H23.1487C22.2564 31.775 21.5327 31.0513 21.5327 30.159C21.5327 29.2667 22.2564 28.5432 23.1487 28.5432H32.8444C33.7367 28.5432 34.4604 29.2667 34.4604 30.159V39.8547C34.4604 40.7472 33.7367 41.4707 32.8444 41.4707H23.1487C22.2564 41.4707 21.5327 40.7472 21.5327 39.8547V35.0068C21.5327 34.1145 22.2564 33.391 23.1487 33.391H30.4205Z" fill="#1B1918"/>
<path fill-rule="evenodd" clip-rule="evenodd" d="M18.3009 13.9995C19.1932 13.9995 19.9167 14.7232 19.9167 15.6155V25.3112C19.9167 26.2035 19.1932 26.9272 18.3009 26.9272C17.8547 26.9272 17.4507 26.7462 17.1583 26.4538L10.2211 19.5167V25.3112C10.2211 26.2035 9.49757 26.9272 8.60528 26.9272C7.71276 26.9272 6.98926 26.2035 6.98926 25.3112V15.6155C6.98926 14.7232 7.71276 13.9997 8.60528 13.9997C9.05176 13.9997 9.45593 14.1808 9.74854 14.4738L16.6849 21.4102V15.6155C16.6849 14.7232 17.4086 13.9995 18.3009 13.9995Z" fill="#1B1918"/>
<path fill-rule="evenodd" clip-rule="evenodd" d="M47.3879 28.5432C48.2802 28.5432 49.0039 29.2667 49.0039 30.159V39.8547C49.0039 40.7472 48.2802 41.4707 47.3879 41.4707C46.9418 41.4707 46.5379 41.2899 46.2453 40.9973V40.9975L39.3082 34.0602V39.8549C39.3082 40.7472 38.5845 41.4707 37.6922 41.4707C36.7999 41.4707 36.0762 40.7472 36.0762 39.8549V30.1592C36.0762 29.2669 36.7999 28.5432 37.6922 28.5432C38.1387 28.5432 38.5431 28.7245 38.8355 29.0173L45.7721 35.9537V30.159C45.7721 29.2667 46.4956 28.5432 47.3879 28.5432Z" fill="#1B1918"/>
<path fill-rule="evenodd" clip-rule="evenodd" d="M57.0835 14.0007C56.5983 14.0007 56.1629 14.2147 55.8666 14.5537L49.0039 21.4163V15.6181C49.0039 14.7258 48.2802 14.0021 47.3879 14.0021C46.9414 14.0021 46.537 14.1833 46.2446 14.4762L39.3082 21.4125V15.6179C39.3082 14.7256 38.5845 14.0021 37.6922 14.0021C36.7999 14.0021 36.0762 14.7256 36.0762 15.6179V25.3138C36.0762 26.206 36.7999 26.9295 37.6922 26.9295C38.1384 26.9295 38.5424 26.7487 38.8348 26.4561V26.4563L45.7721 19.5191V25.3138C45.7721 26.206 46.4956 26.9295 47.3879 26.9295C47.8132 26.9295 48.2002 26.7652 48.4888 26.4964L48.4913 26.494C48.5178 26.4693 48.5436 26.4437 48.5683 26.4169L58.213 16.7723V16.772C58.5132 16.4788 58.6995 16.0695 58.6995 15.6168C58.6995 14.7245 57.9758 14.0007 57.0835 14.0007Z" fill="#1B1918"/>
<path fill-rule="evenodd" clip-rule="evenodd" d="M25.5726 18.8473H30.4205C30.8665 18.8473 31.2284 18.4857 31.2284 18.0394C31.2284 17.5934 30.8665 17.2315 30.4205 17.2315H25.5726C25.1264 17.2315 24.7648 17.5934 24.7648 18.0394C24.7648 18.4857 25.1264 18.8473 25.5726 18.8473ZM25.5726 22.0794C25.1264 22.0794 24.7648 22.4412 24.7648 22.8873C24.7648 23.3335 25.1264 23.6954 25.5726 23.6954H32.8444C33.7367 23.6954 34.4604 24.4189 34.4604 25.3112C34.4604 26.2035 33.7367 26.9272 32.8444 26.9272H23.1487C22.2564 26.9272 21.5327 26.2035 21.5327 25.3112V15.6155C21.5327 14.7232 22.2564 13.9995 23.1487 13.9995H32.8444C33.7367 13.9995 34.4604 14.7232 34.4604 15.6155V20.4634C34.4604 21.3557 33.7367 22.0794 32.8444 22.0794H25.5726Z" fill="#1B1918"/>
</g>
<defs>
<clipPath id="clip0_4068_357">
<rect width="48" height="27.4774" fill="white" transform="translate(4 14)"/>
</clipPath>
</defs>
</svg>
