<svg width="57" height="56" viewBox="0 0 57 56" fill="none" xmlns="http://www.w3.org/2000/svg">
<rect x="0.874512" width="56" height="56" rx="4" fill="white"/>
<path d="M47.8689 13.3304C39.7677 2.83971 24.6949 0.90307 14.2038 9.00581C3.71432 17.1085 1.77961 32.1813 9.88235 42.6708C17.9866 53.16 33.0606 55.0935 43.5485 46.9892C54.0338 38.8865 55.9689 23.8183 47.8689 13.3304Z" fill="#F37036"/>
<path d="M39.3456 12.5948C38.5194 12.6608 37.7359 12.9896 37.11 13.5329C36.3773 14.169 35.9097 15.0567 35.7995 16.0206C35.6892 16.9846 35.9443 17.9549 36.5145 18.74C37.0838 19.5254 37.9269 20.0689 38.8773 20.2633C39.8277 20.4577 40.8165 20.2888 41.6484 19.7899H41.6492L41.7095 19.8502C41.9835 19.6931 42.2385 19.505 42.4694 19.2895C43.1816 18.5361 43.5734 17.5356 43.5621 16.499C43.5508 15.4624 43.1375 14.4706 42.4091 13.7329V13.7321L38.989 17.1309L38.9287 17.071L42.3488 13.6706C41.9529 13.2889 41.4805 12.9957 40.9627 12.8104C40.445 12.625 39.8938 12.5518 39.3456 12.5956V12.5948ZM34.8427 18.1584C33.2031 18.1557 30.5259 20.0142 23.9889 26.5512L24.0214 26.5844C23.9859 26.572 23.9499 26.5709 23.9499 26.5709L21.4889 29.0102C21.4257 29.0704 21.3838 29.1495 21.3697 29.2355C21.3556 29.3216 21.37 29.4099 21.4107 29.4871C21.4515 29.5642 21.5163 29.6259 21.5953 29.6629C21.6743 29.6998 21.7632 29.7099 21.8485 29.6916L26.0691 28.7914C26.0877 28.7738 26.1002 28.7508 26.1046 28.7256L26.1982 28.8223L24.7597 30.2493H24.6901L16.1492 38.8574L18.8894 41.4963C18.966 41.5654 19.0627 41.6082 19.1654 41.6186C19.268 41.629 19.3713 41.6063 19.4602 41.554C19.5499 41.502 19.6217 41.424 19.6662 41.3304C19.7107 41.2368 19.7259 41.1319 19.7096 41.0296L19.3094 39.2894C19.2844 39.2544 19.271 39.2125 19.271 39.1695C19.271 39.1265 19.2844 39.0846 19.3094 39.0496C23.0505 37.2662 26.5295 34.9784 29.6492 32.2501L27.8955 30.4956L27.9287 30.4902L26.8885 29.4503L26.955 29.383L27.0254 29.455L26.989 29.4901L29.749 32.3104V32.3093C35.0392 27.2998 38.7941 23.273 37.8177 20.5629C37.7732 20.2389 37.6227 19.9386 37.3896 19.7091V19.7106C37.3304 19.6665 37.268 19.627 37.2028 19.5923C37.1707 19.5583 37.1425 19.5235 37.1085 19.4902L37.0829 19.5157C37.0113 19.472 36.936 19.4344 36.8579 19.4036L36.9696 19.2907C36.2751 18.6719 35.7012 18.1599 34.8427 18.1576V18.1584ZM16.0896 38.9089L14.0899 40.9089V40.9105C14.0182 40.9549 13.9624 41.021 13.9307 41.0992C13.8989 41.1774 13.8928 41.2636 13.9132 41.3455C13.9329 41.4274 13.978 41.5009 14.0419 41.5557C14.1059 41.6105 14.1855 41.6437 14.2694 41.6506L19.1698 41.989L16.0896 38.9089Z" fill="white"/>
<path d="M39.6829 12.2647C38.5605 12.2633 37.4827 12.7036 36.6824 13.4905C36.1129 14.0733 35.7231 14.8075 35.5592 15.6056C35.3953 16.4038 35.4644 17.2322 35.7582 17.9922C33.9248 17.2072 31.4444 18.5761 23.7292 26.2899C23.7237 26.3017 23.719 26.3138 23.7148 26.3262C23.6991 26.3334 23.6837 26.3414 23.6688 26.3502L21.2291 28.8112C21.1121 28.926 21.0353 29.0754 21.01 29.2373C20.9847 29.3992 21.0123 29.5649 21.0887 29.7099C21.1569 29.8246 21.2534 29.9199 21.369 29.9865C21.4846 30.0532 21.6154 30.0889 21.7488 30.0904L21.8699 30.0119L25.1275 29.317L23.5691 30.8898C23.56 30.9104 23.553 30.9319 23.5482 30.954L15.9107 38.6104C15.8802 38.636 15.855 38.6673 15.8364 38.7025L13.8696 40.6708C13.7716 40.7743 13.7046 40.9032 13.6763 41.0429C13.648 41.1826 13.6595 41.3274 13.7095 41.4609C13.7608 41.5935 13.8477 41.7094 13.9607 41.7957C14.0738 41.8821 14.2084 41.9355 14.3499 41.9501L19.2294 42.2904C19.3126 42.2611 19.3835 42.2046 19.4305 42.1299C19.4724 42.0716 19.495 42.0016 19.495 41.9298C19.495 41.8579 19.4724 41.7879 19.4305 41.7296L19.4204 41.72C19.5257 41.6647 19.6185 41.5883 19.6931 41.4957C19.7714 41.394 19.8262 41.2761 19.8533 41.1506C19.8805 41.0252 19.8794 40.8952 19.8501 40.7702L19.4695 39.1511C23.1202 37.4064 26.5408 35.2162 29.6532 32.6307C29.6834 32.6479 29.7156 32.6613 29.7491 32.6706C29.8473 32.6632 29.9393 32.6211 30.0089 32.5515C35.2489 27.59 38.329 24.19 38.329 21.4908C38.3404 21.1164 38.2839 20.743 38.1623 20.3887C38.6345 20.5845 39.1383 20.6932 39.6492 20.7096L39.6434 20.7112C40.3471 20.6897 41.035 20.4972 41.6478 20.1504C41.6483 20.1506 41.6488 20.1507 41.6493 20.1508C41.7286 20.1746 41.814 20.167 41.8879 20.1296C42.1835 19.9555 42.4531 19.7404 42.6884 19.4907C43.0872 19.0994 43.404 18.6326 43.6203 18.1175C43.8366 17.6024 43.9481 17.0493 43.9483 16.4906C43.9482 15.932 43.8367 15.3789 43.6205 14.8638C43.4042 14.3487 43.0875 13.8818 42.6888 13.4905C42.6745 13.4776 42.6593 13.4658 42.6431 13.4553C41.8471 12.691 40.7861 12.2644 39.6825 12.265L39.6829 12.2647ZM39.6492 12.9499C40.4307 12.9546 41.1893 13.2145 41.8094 13.6901L38.6894 16.829C38.6787 16.8409 38.6689 16.8535 38.66 16.8669C38.6038 16.9238 38.5708 16.9996 38.5676 17.0796C38.5676 17.1279 38.5785 17.1755 38.5995 17.2191C38.6204 17.2626 38.6509 17.3008 38.6886 17.3309H38.6894L41.0484 19.6899C40.4026 19.9714 39.687 20.0515 38.995 19.9195C38.3031 19.7875 37.6671 19.4496 37.1704 18.9501C36.1704 17.9446 35.8804 16.4349 36.4152 15.1251C36.95 13.8142 38.225 12.9576 39.6492 12.9499ZM42.4026 14.2771C42.9127 14.8943 43.1909 15.6705 43.1888 16.4713C43.1873 17.4094 42.8135 18.3085 42.1493 18.971C42.0161 19.0962 41.8743 19.2119 41.7247 19.3171L39.8209 17.4427L39.4485 17.0703L39.551 16.9678L42.4022 14.2763L42.4026 14.2771ZM42.2611 15.8986C42.1911 15.8765 42.1154 15.8807 42.0484 15.9106C41.982 15.9449 41.932 16.0041 41.9092 16.0753C41.898 16.1108 41.8939 16.1482 41.8972 16.1853C41.9005 16.2224 41.9112 16.2585 41.9285 16.2915C41.9972 16.4359 42.0243 16.5967 42.0068 16.7557C41.9892 16.9147 41.9277 17.0657 41.8291 17.1917C41.8039 17.2161 41.7842 17.2455 41.7712 17.278C41.7582 17.3105 41.7522 17.3454 41.7537 17.3804C41.7553 17.4516 41.7808 17.5197 41.8291 17.5707C41.8807 17.5904 41.9377 17.5904 41.9892 17.5707C42.0357 17.5823 42.0845 17.581 42.1303 17.5669C42.1761 17.5528 42.2172 17.5264 42.2491 17.4907C42.4136 17.2889 42.5178 17.0447 42.5496 16.7863C42.5814 16.5279 42.5396 16.2657 42.4289 16.03V16.0316C42.3912 15.9681 42.3315 15.9208 42.2611 15.8986ZM34.8065 18.4984C35.2732 18.5139 35.7223 18.6802 36.0865 18.9725C35.6941 19.029 35.3304 19.2108 35.0497 19.4907L26.23 28.271L24.4991 26.5401C29.0731 21.9877 31.8698 19.6098 33.6084 18.8306C33.9665 18.6047 34.3832 18.4894 34.8065 18.4984ZM36.3398 19.6431C36.6359 19.6431 36.92 19.7605 37.1298 19.9695C37.2415 20.0742 37.3296 20.2015 37.3882 20.3429C37.4468 20.4844 37.4746 20.6367 37.4697 20.7897C37.4647 20.9421 37.4282 21.0919 37.3627 21.2296C37.2972 21.3673 37.2039 21.4901 37.0888 21.5902L27.7111 29.7521L26.6991 28.74L35.5497 19.9695C35.7596 19.7606 36.0437 19.643 36.3398 19.6431ZM37.4976 22.2333C36.844 24.825 33.3803 28.3367 29.7684 31.749L28.3078 30.29L37.4976 22.2333ZM23.989 27.0513L24.095 27.1557L25.4535 28.5142L21.7295 29.3108L23.989 27.0513ZM26.2292 29.3097L26.2308 29.3112L26.6825 29.7733C26.6843 29.7843 26.6867 29.7951 26.6894 29.8058L26.7196 29.8105L26.8155 29.9087L27.1326 30.2335L25.0502 30.4887L26.2296 29.3093L26.2292 29.3097ZM27.7246 30.8859L29.1083 32.2688C26.0488 34.8129 22.6913 36.9758 19.1099 38.7098C18.9936 38.7652 18.9001 38.8591 18.8453 38.9757C18.7906 39.0923 18.7779 39.2242 18.8094 39.3491L19.2097 41.0892C19.2244 41.1097 19.2324 41.1342 19.2324 41.1594C19.2324 41.1846 19.2244 41.2092 19.2097 41.2296C19.1877 41.2494 19.1592 41.2603 19.1296 41.2603C19.1001 41.2603 19.0716 41.2494 19.0496 41.2296L16.6899 38.8506L23.9631 31.4706L27.7246 30.8859ZM16.1493 39.3703L16.4853 39.6851L18.2224 41.4222L14.3491 41.1716L16.1493 39.3703Z" fill="#F37036"/>
</svg>
