<svg width="56" height="56" viewBox="0 0 56 56" fill="none" xmlns="http://www.w3.org/2000/svg">
<g clip-path="url(#clip0_610_883)">
<path d="M42.875 0H13.125C5.87626 0 0 5.87626 0 13.125V42.875C0 50.1237 5.87626 56 13.125 56H42.875C50.1237 56 56 50.1237 56 42.875V13.125C56 5.87626 50.1237 0 42.875 0Z" fill="white"/>
<path d="M36.9821 19.3841L25.9264 30.4399L22.8086 27.3223C33.6811 16.4499 34.7554 17.393 36.9821 19.3841Z" fill="#FF6C37"/>
<path d="M25.9265 30.7013C25.8478 30.7013 25.7955 30.6752 25.743 30.6227L22.5991 27.5051C22.4943 27.4003 22.4943 27.2433 22.5991 27.1385C33.6549 16.0825 34.8075 17.1304 37.1394 19.2263C37.1919 19.2788 37.2179 19.3312 37.2179 19.4098C37.2179 19.4884 37.1919 19.5408 37.1394 19.593L26.0836 30.6227C26.0575 30.6752 25.9788 30.7013 25.9265 30.7013ZM23.1755 27.3218L25.9265 30.0726L36.5893 19.4098C34.6507 17.6805 33.3406 17.1566 23.1755 27.3218Z" fill="white"/>
<path d="M29.0968 33.6096L26.084 30.5967L37.1398 19.541C40.1004 22.5275 35.6727 27.3743 29.0968 33.6096Z" fill="#FF6C37"/>
<path d="M29.0963 33.872C29.0176 33.872 28.9655 33.8458 28.913 33.7933L25.9002 30.7805C25.8477 30.7282 25.8477 30.6757 25.8477 30.5971C25.8477 30.5184 25.8739 30.4661 25.9264 30.4136L36.982 19.3579C37.0868 19.2531 37.2441 19.2531 37.3489 19.3579C38.0301 19.9866 38.3969 20.8774 38.3707 21.7943C38.3184 24.7023 35.0172 28.3963 29.3059 33.7933C29.2273 33.8458 29.1486 33.872 29.0963 33.872ZM26.4503 30.5971C28.1268 32.2999 28.8345 32.9813 29.0963 33.2431C33.4978 29.0515 37.768 24.7548 37.7942 21.7943C37.8205 21.1132 37.5587 20.4321 37.1131 19.908L26.4503 30.5971Z" fill="white"/>
<path d="M22.861 27.4007L25.0879 29.6276C25.1402 29.6801 25.1402 29.7323 25.0879 29.7848C25.0616 29.8111 25.0616 29.8111 25.0356 29.8111L20.4244 30.8066C20.1888 30.8329 19.9791 30.6756 19.9267 30.4398C19.9005 30.3087 19.9529 30.1779 20.0315 30.0992L22.7037 27.4269C22.7562 27.3744 22.8348 27.3482 22.861 27.4007Z" fill="#FF6C37"/>
<path d="M20.3462 31.0686C19.9533 31.0686 19.665 30.754 19.665 30.361C19.665 30.1779 19.7437 29.9943 19.8747 29.8633L22.5468 27.191C22.7041 27.06 22.9138 27.06 23.0709 27.191L25.2978 29.4179C25.4548 29.549 25.4548 29.7848 25.2978 29.9418C25.2453 29.9943 25.193 30.0206 25.1143 30.0468L20.5034 31.0424C20.451 31.0424 20.3986 31.0686 20.3462 31.0686ZM22.7828 27.6887L20.2153 30.2562C20.1629 30.3087 20.1367 30.3872 20.1891 30.4657C20.2153 30.5445 20.2937 30.5707 20.3724 30.5445L24.6951 29.6012L22.7828 27.6887Z" fill="white"/>
<path d="M42.8243 13.2534C41.1476 11.6292 38.4491 11.6816 36.8246 13.3845C35.2004 15.0873 35.2529 17.7595 36.9557 19.384C38.3443 20.72 40.4404 20.9559 42.0908 19.9603L39.104 16.9736L42.8243 13.2534Z" fill="#FF6C37"/>
<path d="M39.8898 20.8249C37.4011 20.8249 35.3838 18.8076 35.3838 16.3188C35.3838 13.8298 37.4011 11.8125 39.8898 11.8125C41.0426 11.8125 42.1692 12.258 43.0074 13.0701C43.0599 13.1225 43.0862 13.1749 43.0862 13.2535C43.0862 13.3321 43.0599 13.3845 43.0074 13.4369L39.4707 16.9737L42.2477 19.7507C42.3527 19.8556 42.3527 20.0128 42.2477 20.1176C42.2217 20.1438 42.2217 20.1438 42.1954 20.17C41.5143 20.5891 40.702 20.8249 39.8898 20.8249ZM39.8898 12.3628C37.6892 12.3628 35.9077 14.1443 35.9339 16.345C35.9339 18.5457 37.7152 20.3272 39.9161 20.301C40.5187 20.301 41.1212 20.17 41.6713 19.8818L38.9205 17.1571C38.868 17.1047 38.842 17.0523 38.842 16.9737C38.842 16.8951 38.868 16.8427 38.9205 16.7903L42.4313 13.2797C41.7238 12.6772 40.8331 12.3628 39.8898 12.3628Z" fill="white"/>
<path d="M42.9033 13.3317L42.851 13.2793L39.1045 16.9733L42.0651 19.9338C42.3534 19.7503 42.6412 19.5409 42.8773 19.305C44.5538 17.6544 44.5538 14.9822 42.9033 13.3317Z" fill="#FF6C37"/>
<path d="M42.0914 20.2221C42.0127 20.2221 41.9604 20.1959 41.9079 20.1435L38.9213 17.1569C38.8688 17.1044 38.8428 17.052 38.8428 16.9734C38.8428 16.8948 38.8688 16.8424 38.9213 16.79L42.6414 13.0698C42.7464 12.965 42.9034 12.965 43.0082 13.0698L43.087 13.1222C44.8422 14.8775 44.8422 17.707 43.1132 19.4886C42.8511 19.7505 42.5628 19.9863 42.2485 20.1697C42.17 20.1959 42.1177 20.2221 42.0914 20.2221ZM39.4715 16.9734L42.1177 19.6195C42.3272 19.4886 42.5368 19.3052 42.6939 19.148C44.1873 17.6546 44.2658 15.2182 42.8249 13.6463L39.4715 16.9734Z" fill="white"/>
<path d="M37.4279 19.8553C36.799 19.2266 35.7772 19.2266 35.1485 19.8553L25.2715 29.7322L26.9222 31.3827L37.3754 22.2134C38.0565 21.6368 38.1088 20.615 37.5326 19.9339C37.4801 19.9077 37.4539 19.8815 37.4279 19.8553Z" fill="#FF6C37"/>
<path d="M26.896 31.645C26.8175 31.645 26.765 31.6188 26.7125 31.5665L25.062 29.916C24.9572 29.8113 24.9572 29.654 25.062 29.5492L34.9388 19.6722C35.6725 18.9387 36.8513 18.9387 37.585 19.6722C38.3187 20.4059 38.3187 21.5847 37.585 22.3184C37.559 22.3447 37.5327 22.3707 37.5065 22.397L27.053 31.5665C27.027 31.6188 26.9745 31.645 26.896 31.645ZM25.6384 29.7325L26.9222 31.0164L37.1921 22.0039C37.7683 21.5323 37.8208 20.6678 37.3492 20.0915C36.8775 19.5152 36.013 19.4628 35.4366 19.9342C35.4106 19.9605 35.3844 19.9866 35.3319 20.0128L25.6384 29.7325Z" fill="white"/>
<path d="M17.7002 40.9724C17.5954 41.0246 17.5429 41.1294 17.5691 41.2342L18.0146 43.1207C18.1194 43.3825 17.9622 43.6971 17.674 43.7756C17.4643 43.8542 17.2287 43.7756 17.0977 43.6186L14.2158 40.7628L23.6211 31.3574L26.8698 31.4097L29.0704 33.6105C28.5465 34.0559 25.3764 37.121 17.7002 40.9724Z" fill="#FF6C37"/>
<path d="M17.4902 44.0369C17.2808 44.0369 17.0711 43.9583 16.9401 43.8013L14.0845 40.9455C14.0321 40.8932 14.0059 40.8407 14.0059 40.7622C14.0059 40.6836 14.0321 40.6311 14.0845 40.5786L23.4897 31.1735C23.5422 31.121 23.6208 31.0947 23.6733 31.0947L26.9219 31.1472C27.0005 31.1472 27.0527 31.1735 27.105 31.2258L29.3059 33.4264C29.3584 33.4789 29.3844 33.5574 29.3844 33.6359C29.3844 33.7147 29.3584 33.767 29.2796 33.8195L29.0963 33.9768C26.3193 36.413 22.5465 38.8496 17.8571 41.1813L18.3025 43.0413C18.3809 43.3819 18.2239 43.7488 17.9095 43.9321C17.7522 44.0106 17.6212 44.0369 17.4902 44.0369ZM14.6084 40.7622L17.3069 43.4344C17.3854 43.5654 17.5426 43.6177 17.6736 43.5392C17.8046 43.4607 17.8571 43.3034 17.7784 43.1723L17.3332 41.2861C17.2808 41.0503 17.3854 40.8407 17.595 40.7359C22.2322 38.4043 25.9787 35.9941 28.7295 33.6099L26.7909 31.6711L23.7781 31.6186L14.6084 40.7622Z" fill="white"/>
<path d="M11.9885 43.0148L14.2417 40.7617L17.595 44.1152L12.2505 43.7485C12.0147 43.7223 11.8575 43.5127 11.8837 43.2767C11.8837 43.1719 11.9099 43.0671 11.9885 43.0148Z" fill="#FF6C37"/>
<path d="M17.5951 44.351L12.2244 43.9842C11.8314 43.9579 11.5693 43.6176 11.5956 43.2245C11.6218 43.0672 11.6742 42.9101 11.8052 42.8053L14.0583 40.5522C14.1632 40.4474 14.3204 40.4474 14.425 40.5522L17.7785 43.9057C17.8571 43.9842 17.8833 44.089 17.8309 44.194C17.7785 44.2988 17.6999 44.351 17.5951 44.351ZM14.2417 41.1286L12.172 43.1982C12.0934 43.2507 12.0934 43.3818 12.172 43.434C12.1982 43.4603 12.2244 43.4865 12.2768 43.4865L16.914 43.8009L14.2417 41.1286Z" fill="white"/>
<path d="M22.7035 32.5624C22.5462 32.5624 22.4414 32.4314 22.4414 32.3004C22.4414 32.2218 22.4677 32.1695 22.5202 32.117L25.0614 29.5758C25.1662 29.4708 25.3234 29.4708 25.4282 29.5758L27.0787 31.2263C27.1572 31.3048 27.1835 31.3834 27.1572 31.4884C27.131 31.5669 27.0524 31.6454 26.9479 31.6717L22.756 32.5624C22.7297 32.5624 22.7035 32.5624 22.7035 32.5624ZM25.2447 30.126L23.5157 31.8552L26.345 31.2523L25.2447 30.126Z" fill="white"/>
<path d="M26.8697 31.4094L23.9879 32.0383C23.7784 32.0908 23.5686 31.9598 23.5163 31.7502C23.4901 31.6192 23.5163 31.4881 23.6211 31.3833L25.2191 29.7852L26.8697 31.4094Z" fill="#FF6C37"/>
<path d="M23.9352 32.3004C23.5684 32.3004 23.2803 32.0123 23.2803 31.6454C23.2803 31.4621 23.3588 31.3048 23.4636 31.174L25.0618 29.5758C25.1666 29.4708 25.3238 29.4708 25.4286 29.5758L27.0791 31.2263C27.1576 31.3048 27.1839 31.3834 27.1576 31.4884C27.1314 31.5669 27.0528 31.6454 26.9483 31.6717L24.0662 32.3004C24.014 32.3004 23.9615 32.3004 23.9352 32.3004ZM25.2451 30.126L23.8304 31.5406C23.7781 31.5931 23.7781 31.6454 23.8042 31.6979C23.8304 31.7502 23.8829 31.7764 23.9615 31.7764L26.3716 31.2523L25.2451 30.126Z" fill="white"/>
<path d="M42.9296 15.8469C42.8773 15.6898 42.6938 15.6112 42.5365 15.6636C42.3795 15.7159 42.3009 15.8993 42.3534 16.0565C42.3534 16.0827 42.3795 16.1089 42.3795 16.1351C42.5365 16.4496 42.4845 16.8424 42.2747 17.1307C42.1699 17.2617 42.1962 17.4451 42.3009 17.5499C42.432 17.6546 42.6153 17.6285 42.7201 17.4975C43.1132 16.9997 43.1917 16.3709 42.9296 15.8469Z" fill="white"/>
</g>
<defs>
<clipPath id="clip0_610_883">
<rect width="56" height="56" fill="white"/>
</clipPath>
</defs>
</svg>
