<svg width="56" height="56" viewBox="0 0 56 56" fill="none" xmlns="http://www.w3.org/2000/svg">
<g clip-path="url(#clip0_609_692)">
<mask id="mask0_609_692" style="mask-type:luminance" maskUnits="userSpaceOnUse" x="0" y="0" width="56" height="56">
<path d="M42.875 0H13.125C5.87626 0 0 5.87626 0 13.125V42.875C0 50.1237 5.87626 56 13.125 56H42.875C50.1237 56 56 50.1237 56 42.875V13.125C56 5.87626 50.1237 0 42.875 0Z" fill="white"/>
</mask>
<g mask="url(#mask0_609_692)">
<path d="M42.875 0H13.125C5.87626 0 0 5.87626 0 13.125V42.875C0 50.1237 5.87626 56 13.125 56H42.875C50.1237 56 56 50.1237 56 42.875V13.125C56 5.87626 50.1237 0 42.875 0Z" fill="white"/>
<path fill-rule="evenodd" clip-rule="evenodd" d="M51.1385 -1.3125H56V57.0938H55.5481C55.6623 57.0938 55.7716 57.0485 55.8526 56.968C55.9333 56.8875 55.9786 56.7781 55.9786 56.6643V7.37973C56.0129 7.2795 56.0057 7.16979 55.9589 7.07475C55.9121 6.97972 55.8294 6.90714 55.7287 6.87297C55.6283 6.8388 55.5183 6.84585 55.4232 6.89255C55.3278 6.93927 55.2549 7.02181 55.2208 7.12204L37.1354 27.3752C37.0838 27.431 37.021 27.4754 36.9515 27.5058C36.8819 27.5362 36.8067 27.5518 36.7305 27.5518C36.6546 27.5518 36.5794 27.5362 36.5096 27.5058C36.44 27.4754 36.3775 27.431 36.3258 27.3752L27.0937 17.8757C27.0154 17.7782 26.9727 17.657 26.9727 17.5321C26.9727 17.4072 27.0154 17.286 27.0937 17.1885L30.1422 13.2891C30.1934 13.2181 30.2606 13.1603 30.3384 13.1205C30.4163 13.0806 30.5027 13.0598 30.5902 13.0598C30.6777 13.0598 30.7639 13.0806 30.8418 13.1205C30.9197 13.1603 30.987 13.2181 31.038 13.2891L36.2053 18.9923C36.2569 19.0537 36.3215 19.103 36.3945 19.1369C36.4674 19.1708 36.5468 19.1884 36.6273 19.1884C36.7076 19.1884 36.7872 19.1708 36.86 19.1369C36.9329 19.103 36.9974 19.0537 37.0492 18.9923L51.4487 -0.694081C51.4887 -0.752259 51.5123 -0.820076 51.5174 -0.890481C51.5222 -0.960888 51.508 -1.03131 51.4765 -1.09444C51.4447 -1.15756 51.3966 -1.21108 51.3373 -1.24943C51.2778 -1.28777 51.2094 -1.30955 51.1385 -1.3125ZM0.430605 -1.3125H0V-0.883041C0 -0.996942 0.0453672 -1.10618 0.126121 -1.18671C0.206875 -1.26725 0.3164 -1.3125 0.430605 -1.3125ZM0 56.6643V57.0938H0.430605C0.3164 57.0938 0.206875 57.0485 0.126121 56.968C0.0453672 56.8875 0 56.7781 0 56.6643ZM36.9618 35.665C35.8925 35.6326 34.8502 36.0012 34.0417 36.6977C33.2332 37.394 32.718 38.367 32.5981 39.4236C32.5929 39.4441 32.5924 39.4656 32.5968 39.4861C32.6012 39.5069 32.6104 39.5262 32.6237 39.5428C32.6371 39.5592 32.6539 39.5723 32.6734 39.5813C32.6926 39.59 32.7138 39.5944 32.7351 39.5938H41.2057C41.2252 39.5938 41.2447 39.5898 41.2624 39.5819C41.2803 39.5741 41.2963 39.5625 41.3092 39.548C41.3221 39.5336 41.3319 39.5165 41.3376 39.4979C41.3433 39.4793 41.3451 39.4599 41.3427 39.4406C41.2593 38.365 40.7527 37.3653 39.9326 36.6583C39.1125 35.9516 38.045 35.5946 36.9618 35.665ZM5.71843 47.2507C8.43999 49.6355 11.9868 50.8681 15.6051 50.6863H15.5879C22.1158 50.6863 25.2678 47.3537 25.2678 42.9903C25.2678 37.5178 20.1755 36.2987 16.1592 35.3371C13.5441 34.7108 11.3852 34.1941 11.3852 32.6834C11.3852 31.2403 12.6253 30.2612 14.83 30.2612C17.2301 30.2389 19.5651 31.0393 21.4441 32.5288C21.4996 32.5763 21.5644 32.6117 21.6342 32.6331C21.7041 32.6546 21.7777 32.6616 21.8503 32.6535C21.9229 32.6454 21.9931 32.6226 22.0568 32.5863C22.1202 32.5502 22.1753 32.5012 22.2191 32.4428L24.3377 29.5054C24.4335 29.4061 24.4871 29.2738 24.4871 29.136C24.4871 28.9984 24.4335 28.866 24.3377 28.7667C21.7895 26.7011 18.5768 25.627 15.2951 25.7434C9.57664 25.7434 6.1318 29.076 6.1318 33.0785C6.1318 38.4602 11.0315 39.6207 15.0165 40.5643C17.7476 41.2112 20.0489 41.7561 20.0489 43.4886C20.0489 44.8628 18.671 46.1683 15.8463 46.1683C13.1642 46.1766 10.5789 45.1697 8.6121 43.351C8.55127 43.314 8.48363 43.2897 8.41317 43.279C8.34271 43.2685 8.27085 43.2723 8.20183 43.29C8.13282 43.3075 8.06803 43.3387 8.01128 43.3816C7.95454 43.4247 7.907 43.4785 7.87146 43.54L5.71843 46.5463C5.63244 46.6436 5.58502 46.7688 5.58502 46.8985C5.58502 47.0282 5.63244 47.1533 5.71843 47.2507ZM45.9224 42.5073C45.9458 42.4478 45.9565 42.3841 45.9541 42.3205L45.9368 41.7707C45.9368 35.9128 42.3025 31.9104 36.9458 31.9104C35.7098 31.8889 34.4822 32.1177 33.3371 32.5828C32.1921 33.0479 31.1537 33.7398 30.2844 34.6163C29.4149 35.4931 28.7328 36.5365 28.2791 37.6834C27.8254 38.8303 27.6098 40.0573 27.6448 41.2897C27.5949 42.5526 27.8101 43.8117 28.2765 44.9868C28.7431 46.1617 29.4508 47.2266 30.354 48.113C31.2572 48.9993 32.3363 49.6875 33.5219 50.1336C34.7075 50.5798 35.9734 50.7738 37.2387 50.7034C39.7714 50.7671 42.2542 49.994 44.3006 48.5045C44.3936 48.4302 44.4555 48.3241 44.4747 48.2066C44.4938 48.0891 44.4686 47.969 44.4038 47.8691L42.8538 45.6186C42.8179 45.5634 42.7707 45.5166 42.7153 45.481C42.66 45.4455 42.5976 45.4221 42.5327 45.4123C42.4675 45.4027 42.401 45.4068 42.3375 45.4245C42.2741 45.4422 42.2153 45.4733 42.1647 45.5155C40.8715 46.4229 39.3363 46.9252 37.7554 46.9586C36.5507 47.0577 35.3522 46.7038 34.396 45.9664C33.4397 45.2288 32.7948 44.161 32.5881 42.9732C32.5857 42.9529 32.5874 42.9323 32.5931 42.9126C32.5988 42.8929 32.6082 42.8746 32.6211 42.8586C32.6338 42.8426 32.6497 42.8293 32.6677 42.8194C32.6858 42.8096 32.7055 42.8035 32.7259 42.8015H45.4718C45.5359 42.8039 45.5995 42.793 45.6592 42.7698C45.7188 42.7464 45.773 42.7109 45.8183 42.6659C45.8636 42.6208 45.899 42.5668 45.9224 42.5073Z" fill="#59B943"/>
</g>
</g>
<defs>
<clipPath id="clip0_609_692">
<rect width="56" height="56" fill="white"/>
</clipPath>
</defs>
</svg>
