<svg width="56" height="56" viewBox="0 0 56 56" fill="none" xmlns="http://www.w3.org/2000/svg">
<rect width="56" height="56" rx="4" fill="white"/>
<path d="M35.2851 34.4013C33.4672 34.3626 31.8814 35.7164 31.688 37.5342C31.688 37.6116 31.7267 37.6503 31.804 37.6503H38.7661C38.8435 37.6503 38.8822 37.6116 38.8822 37.5342C38.7275 35.6777 37.1417 34.2853 35.2851 34.4013Z" fill="#CF0A2C"/>
<path d="M50.2152 10.9621L35.3626 27.5939C35.2079 27.7873 34.8985 27.7873 34.7051 27.6326L34.6664 27.5939L27.1628 19.8195C27.0081 19.6648 27.0081 19.4327 27.1241 19.2393L29.6382 16.029C29.7929 15.8356 30.0637 15.7583 30.2571 15.913C30.2957 15.9517 30.3344 15.9517 30.3344 15.9903L34.589 20.6704C34.7438 20.8638 35.0532 20.8638 35.2466 20.7091L35.2853 20.6704L47.1596 4.5415C47.2756 4.38678 47.2369 4.19339 47.0822 4.07736C47.0435 4.03868 46.9662 4.03868 46.8888 4H5.34811C5.15471 4.03868 5 4.19339 5 4.38678V51.6519C5 51.8453 5.15471 52 5.34811 52H50.4472C50.6406 52 50.7953 51.8453 50.7953 51.6519V11.1942C50.7953 11.0008 50.6406 10.8848 50.4859 10.8848C50.3699 10.8461 50.2925 10.8848 50.2152 10.9621ZM17.8026 46.7397C14.8243 46.8558 11.9234 45.8501 9.71878 43.8775C9.56406 43.7228 9.52538 43.4907 9.6801 43.2973L11.4206 40.8219C11.5753 40.6285 11.8461 40.5898 12.0395 40.7059L12.0782 40.7446C13.7027 42.253 15.7913 43.0653 17.996 43.0653C20.3167 43.0653 21.4384 41.9823 21.4384 40.8606C21.4384 37.3409 10.0282 39.7776 10.0282 32.3126C10.0282 29.025 12.8904 26.2788 17.5318 26.2788C20.2006 26.2014 22.8308 27.0911 24.9194 28.7929C25.0741 28.9476 25.1128 29.2184 24.9581 29.3731L23.1402 31.7712C22.9855 31.9645 22.7147 32.0032 22.5214 31.8485C20.9742 30.6108 19.079 29.9533 17.1064 29.9919C15.2885 29.9919 14.2828 30.8042 14.2828 31.9645C14.2828 35.0975 25.6543 33.0089 25.6543 40.3965C25.693 43.9936 23.1015 46.7397 17.8026 46.7397ZM42.6728 39.855C42.6728 40.087 42.4795 40.2417 42.2861 40.2417H31.8815C31.8042 40.2417 31.7655 40.2804 31.7655 40.3578C32.1136 42.3691 33.9315 43.7615 35.9815 43.6454C37.2965 43.6068 38.5342 43.22 39.5786 42.4464C39.7333 42.3304 40.004 42.3304 40.1201 42.5238L40.1587 42.5624L41.4351 44.419C41.5512 44.5737 41.5125 44.8058 41.3578 44.9605C39.6946 46.1982 37.6446 46.8171 35.5947 46.7397C31.108 46.7397 27.743 43.7228 27.743 39.004C27.6269 34.8654 30.8759 31.423 35.0145 31.307H35.3626C39.7333 31.307 42.7502 34.5947 42.7502 39.3908L42.6728 39.855Z" fill="#CF0A2C"/>
</svg>
