<svg width="56" height="56" viewBox="0 0 56 56" fill="none" xmlns="http://www.w3.org/2000/svg">
<g clip-path="url(#clip0_610_905)">
<path d="M42.875 0H13.125C5.87626 0 0 5.87626 0 13.125V42.875C0 50.1237 5.87626 56 13.125 56H42.875C50.1237 56 56 50.1237 56 42.875V13.125C56 5.87626 50.1237 0 42.875 0Z" fill="white"/>
<path d="M8.40335 36.9282C7.27331 36.9125 6.53966 37.2788 6.19679 38.0264C5.69144 39.1282 6.1421 39.9609 7.74924 40.8902C8.65202 41.4123 9.05243 41.862 9.05243 42.3545C9.05243 43.3707 7.81034 43.7315 6.5297 43.0882C6.26946 42.9575 6.04635 42.8499 6.03285 42.8497C5.98736 43.1375 6.00776 43.8286 6.00776 43.8286C6.00776 43.8286 6.39951 43.9904 6.98975 44.1069C8.45479 44.396 9.78511 43.7155 9.91063 42.6129C10.0274 41.5871 9.64701 41.0424 8.21766 40.1913C7.26067 39.6214 6.83875 39.2074 6.89272 38.7171C7.04125 37.3677 8.72393 37.5575 9.65133 38.0661L9.65468 37.1585C9.65468 37.1585 9.13862 36.9384 8.40335 36.9282ZM14.0343 36.9332C13.9665 36.9338 13.8965 36.9361 13.8269 36.9398C12.4385 37.0147 11.5014 37.6209 10.9495 38.8032C10.4813 39.873 10.5333 41.2726 10.9579 42.3445C11.4481 43.3957 12.2453 43.9508 13.5693 44.1632C13.8479 44.2079 14.0388 44.3635 14.5797 44.9914L15.2472 45.7666H16.4617L15.6537 44.9616C15.2093 44.5193 14.8457 44.1325 14.8457 44.1019C14.8457 44.0714 15.0159 43.9963 15.2238 43.9346C15.9066 43.7321 16.4684 43.2118 16.8666 42.4141C17.1851 41.776 17.2342 41.5792 17.2764 40.7809C17.4021 38.4014 16.1386 36.9146 14.0343 36.9332ZM26.4536 36.9415C25.3235 36.9258 24.5882 37.2921 24.2453 38.0396C23.74 39.1415 24.1923 39.9741 25.7995 40.9035C26.7022 41.4255 27.101 41.8736 27.101 42.3661C27.101 43.3823 25.8606 43.7448 24.5799 43.1015C24.3197 42.9708 24.0949 42.8632 24.0814 42.863C24.0359 43.1508 24.058 43.8419 24.058 43.8419C24.058 43.8419 24.448 44.002 25.0383 44.1185C26.5033 44.4075 27.8337 43.7271 27.9592 42.6244C28.0759 41.5987 27.6955 41.054 26.2662 40.2028C25.3092 39.633 24.8873 39.2207 24.9413 38.7303C25.0898 37.3809 26.7725 37.5707 27.6999 38.0794L27.7032 37.1717C27.7032 37.1717 27.1888 36.9517 26.4536 36.9415ZM18.3805 37.016V40.5159V44.0158H20.2458H22.1111V43.6762V43.1876H19.2638V40.1763V37.016H18.8222H18.3805ZM13.9691 37.6769C15.4449 37.6769 16.2855 38.5707 16.3914 40.2525C16.4794 41.6481 16.0064 42.7027 15.0983 43.1379C14.5107 43.4196 13.652 43.4778 13.0908 43.2737C12.5148 43.0643 11.955 42.4705 11.699 41.7979C11.4192 41.0629 11.4595 39.7046 11.7793 39.0947C12.291 38.1189 12.9732 37.6769 13.9691 37.6769ZM43.8404 38.9009C43.668 38.9036 43.4865 38.9243 43.3001 38.9639C42.1234 39.2696 41.4588 40.3841 41.5034 41.5329C41.5041 42.4968 41.6929 42.9732 42.1608 43.4758C43.1189 44.258 43.9898 44.3169 45.1653 43.9015C45.3681 43.8153 45.5836 43.7193 45.5836 43.7193L45.5819 42.9392L45.1653 43.1561C44.2168 43.5634 43.501 43.5643 42.9287 43.0816C42.5616 42.7109 42.4047 42.2762 42.3264 41.7698H44.1014H45.8763V41.0989C45.8763 39.7394 45.0474 38.882 43.8404 38.9009ZM30.8754 38.9125C30.703 38.9152 30.5232 38.9359 30.3367 38.9755C29.1601 39.2812 28.4938 40.3941 28.5384 41.5428C28.5391 42.5067 28.7295 42.9848 29.1975 43.4874C30.1556 44.2696 31.0249 44.3285 32.2004 43.9131C32.4031 43.8269 32.6186 43.7292 32.6186 43.7292V42.9508L32.2004 43.1677C31.2518 43.575 30.5361 43.5759 29.9637 43.0932C29.5967 42.7225 29.4397 42.2862 29.3614 41.7797H31.1381H32.913V41.1105C32.913 39.751 32.0825 38.8936 30.8754 38.9125ZM49.0147 38.949C48.5034 38.949 48.1133 39.1521 47.8537 39.5536L47.6479 39.8732L47.6463 39.4608L47.6446 39.0467H47.203H46.7613V41.5263V44.0059H47.203H47.6446V42.4224C47.6446 40.9735 47.6633 40.8018 47.8654 40.4049C48.1434 39.8591 48.6305 39.5896 49.0984 39.7225L49.4112 39.8119V39.3796V38.949H49.0147ZM36.0497 38.9606C35.5384 38.9606 35.15 39.1637 34.8904 39.5651L34.6829 39.8848L34.6813 39.4707L34.6796 39.0583H34.238H33.7963V41.5379V44.0158H34.238H34.6796V42.4323C34.6796 40.9835 34.6983 40.8118 34.9004 40.4149C35.1784 39.869 35.6655 39.5996 36.1334 39.7324L36.4479 39.8219V39.3912V38.9606H36.0497ZM36.7373 39.0493C37.3286 40.7001 37.9671 42.3846 38.6143 44.0141C38.8945 44.0171 39.1755 44.0161 39.4557 44.0158L40.4444 41.5611L41.4498 39.0509H40.5782C40.5782 39.0509 40.1936 40.0461 39.792 41.1619L39.0626 43.0442L38.3617 41.1486L37.649 39.0493H36.7373ZM43.7885 39.6513C44.0523 39.6523 44.3127 39.7355 44.533 39.903C44.9797 40.2428 45.0549 41.0791 45.0549 41.0791H42.4034C42.4034 41.0791 42.5371 40.2289 43.0224 39.8931C43.2561 39.7313 43.5248 39.6503 43.7885 39.6513ZM30.8236 39.6629C31.0873 39.6639 31.3477 39.7471 31.568 39.9146C32.0147 40.2544 32.0899 41.089 32.0899 41.089H29.4401C29.4401 41.089 29.5738 40.2405 30.059 39.9047C30.2928 39.7429 30.5598 39.6619 30.8236 39.6629Z" fill="black"/>
<path d="M21.435 34.479C21.435 34.4424 21.4248 34.4166 21.4044 34.4003C21.3811 34.3811 21.3413 34.3721 21.2863 34.3721H21.2067V34.588H21.3027C21.3907 34.588 21.435 34.5515 21.435 34.479ZM21.5583 34.9288H21.4498L21.38 34.777C21.3447 34.7011 21.3067 34.6628 21.2658 34.6628H21.2067V34.9288H21.117V34.2957H21.2976C21.3771 34.2957 21.4373 34.3137 21.4788 34.3491C21.5134 34.3794 21.531 34.4194 21.531 34.4683C21.531 34.5116 21.5168 34.5487 21.4884 34.579C21.46 34.61 21.4197 34.6302 21.3686 34.6409V34.6436C21.4044 34.6515 21.4396 34.6903 21.4748 34.76L21.5583 34.9287V34.9288ZM21.7576 34.619C21.7576 34.4936 21.7144 34.3896 21.6287 34.3058C21.5429 34.222 21.4384 34.1804 21.3146 34.1804C21.1869 34.1804 21.0813 34.2226 20.9972 34.3069C20.9126 34.3913 20.8706 34.4953 20.8706 34.619C20.8706 34.7449 20.9143 34.8506 21.0012 34.9349C21.0869 35.0182 21.1914 35.0598 21.3146 35.0598C21.4373 35.0598 21.5418 35.0176 21.6281 34.9333C21.7144 34.8489 21.7576 34.7443 21.7576 34.619ZM21.8178 34.6163C21.8178 34.7557 21.7689 34.8726 21.6718 34.9677C21.5747 35.0627 21.4549 35.1099 21.3124 35.1099C21.1687 35.1099 21.0489 35.0638 20.954 34.9716C20.8592 34.8788 20.8115 34.7619 20.8115 34.6202C20.8115 34.4813 20.8598 34.3644 20.9563 34.2688C21.0529 34.1738 21.1727 34.126 21.3164 34.126C21.4572 34.126 21.5753 34.1715 21.6707 34.2626C21.7689 34.3559 21.8178 34.474 21.8178 34.6163Z" fill="#231F1F"/>
<path d="M8.81242 36.2655H8.51997V34.604C8.51997 34.473 8.52791 34.3128 8.54381 34.1244H8.53697C8.50916 34.2346 8.48417 34.3145 8.46202 34.3639L7.61023 36.2655H7.46712L6.61306 34.378C6.58863 34.3252 6.56366 34.2403 6.5381 34.1244H6.53129C6.54039 34.2234 6.54549 34.3842 6.54549 34.6074V36.2655H6.2627V33.791H6.64998L7.41659 35.5166C7.47451 35.6464 7.51256 35.7454 7.53017 35.8134H7.54211C7.59207 35.6779 7.63183 35.5767 7.66249 35.5098L8.445 33.791H8.81241" fill="#231F1F"/>
<path d="M9.71463 34.498V36.2646H9.42899V34.498H9.71463ZM9.76346 33.8649C9.76346 33.9167 9.74471 33.96 9.70838 33.9959C9.67203 34.0314 9.62718 34.0493 9.57493 34.0493C9.52383 34.0493 9.48009 34.0319 9.44318 33.9976C9.40684 33.9633 9.38867 33.9189 9.38867 33.8649C9.38867 33.8126 9.40683 33.7694 9.44318 33.7345C9.48009 33.6991 9.52383 33.6816 9.57493 33.6816C9.62718 33.6816 9.67203 33.6991 9.70838 33.7345C9.74472 33.7694 9.76346 33.8126 9.76346 33.8649Z" fill="#231F1F"/>
<path d="M11.4957 36.184C11.3588 36.2666 11.1953 36.3082 11.0062 36.3082C10.7506 36.3082 10.5445 36.2245 10.3872 36.0564C10.2339 35.8927 10.1572 35.6825 10.1572 35.425C10.1572 35.1348 10.2413 34.9009 10.4094 34.7227C10.5769 34.5445 10.8029 34.4551 11.0862 34.4551C11.2418 34.4551 11.3793 34.4849 11.4991 34.545V34.8346C11.3668 34.7429 11.2248 34.6968 11.0738 34.6968C10.8926 34.6968 10.745 34.7593 10.6297 34.8846C10.5099 35.0134 10.4502 35.1849 10.4502 35.3991C10.4502 35.6049 10.5048 35.7674 10.6149 35.8871C10.7245 36.0069 10.8716 36.0665 11.0567 36.0665C11.2123 36.0665 11.3588 36.0159 11.4957 35.9147" fill="#231F1F"/>
<path d="M12.8585 34.7845C12.8085 34.7462 12.7358 34.7277 12.6404 34.7277C12.5246 34.7277 12.4269 34.7794 12.348 34.8829C12.2582 34.9987 12.2139 35.1595 12.2139 35.3641V36.2649H11.9277V34.4977H12.2139V34.8621H12.2208C12.2622 34.7333 12.327 34.6338 12.4144 34.5635C12.4956 34.4994 12.5865 34.4668 12.6876 34.4668C12.7631 34.4668 12.8204 34.4752 12.8585 34.491" fill="#231F1F"/>
<path d="M14.4513 35.385C14.4513 35.1585 14.3996 34.9858 14.2962 34.8672C14.1963 34.7536 14.0566 34.6963 13.876 34.6963C13.6983 34.6963 13.5563 34.7542 13.4495 34.8689C13.3365 34.992 13.2803 35.1663 13.2803 35.3918C13.2803 35.6038 13.3343 35.7691 13.4422 35.8877C13.5506 36.0069 13.6949 36.0665 13.876 36.0665C14.0645 36.0665 14.2076 36.0063 14.3065 35.8854C14.403 35.7679 14.4513 35.6015 14.4513 35.385ZM14.7443 35.3749C14.7443 35.6566 14.6636 35.8826 14.5035 36.053C14.3434 36.2228 14.127 36.3082 13.8556 36.3082C13.587 36.3082 13.3746 36.2228 13.2173 36.053C13.064 35.8882 12.9873 35.6712 12.9873 35.4025C12.9873 35.0949 13.0748 34.8576 13.2491 34.6895C13.4104 34.5332 13.6267 34.4551 13.897 34.4551C14.1634 34.4551 14.3712 34.5366 14.52 34.7002C14.6693 34.8633 14.7443 35.0882 14.7443 35.3749Z" fill="#231F1F"/>
<path d="M16.1614 35.7921C16.1614 35.9372 16.1069 36.0575 15.9973 36.1525C15.878 36.2565 15.7145 36.3082 15.5078 36.3082C15.338 36.3082 15.1909 36.2723 15.0654 36.2009V35.8972C15.2046 36.0103 15.359 36.0665 15.5288 36.0665C15.7554 36.0665 15.8684 35.9844 15.8684 35.8197C15.8684 35.7505 15.8434 35.6937 15.7934 35.6487C15.7435 35.6037 15.6463 35.5503 15.501 35.4868C15.3511 35.4221 15.2449 35.3558 15.1818 35.2866C15.1063 35.2051 15.0688 35.0983 15.0688 34.9673C15.0688 34.82 15.1273 34.698 15.2449 34.6007C15.3619 34.5034 15.5129 34.4551 15.698 34.4551C15.8394 34.4551 15.9666 34.4826 16.0796 34.5377V34.8222C15.9621 34.7384 15.8275 34.6963 15.6753 34.6963C15.5799 34.6963 15.5038 34.7193 15.447 34.7654C15.3897 34.8115 15.3613 34.8706 15.3613 34.9431C15.3613 35.0213 15.3851 35.0825 15.4328 35.1258C15.476 35.1663 15.5651 35.2152 15.7014 35.2726C15.8536 35.3361 15.9632 35.4008 16.0308 35.4677C16.1177 35.5531 16.1614 35.6611 16.1614 35.7921Z" fill="#231F1F"/>
<path d="M17.9073 35.385C17.9073 35.1585 17.8556 34.9858 17.7523 34.8672C17.6523 34.7536 17.5121 34.6963 17.3321 34.6963C17.1543 34.6963 17.0123 34.7542 16.905 34.8689C16.7926 34.992 16.7364 35.1663 16.7364 35.3918C16.7364 35.6038 16.7903 35.7691 16.8982 35.8877C17.0067 36.0069 17.1509 36.0665 17.3321 36.0665C17.5206 36.0665 17.6637 36.0063 17.7625 35.8854C17.859 35.7679 17.9073 35.6015 17.9073 35.385ZM18.2003 35.3749C18.2003 35.6566 18.1197 35.8826 17.9596 36.053C17.7994 36.2228 17.5831 36.3082 17.3111 36.3082C17.043 36.3082 16.8306 36.2228 16.6733 36.053C16.52 35.8882 16.4434 35.6712 16.4434 35.4025C16.4434 35.0949 16.5308 34.8576 16.7051 34.6895C16.8664 34.5332 17.0822 34.4551 17.3531 34.4551C17.6194 34.4551 17.8267 34.5366 17.976 34.7002C18.1254 34.8633 18.2003 35.0882 18.2003 35.3749Z" fill="#231F1F"/>
<path d="M19.4598 33.8975C19.4041 33.8666 19.3405 33.8509 19.2696 33.8509C19.0702 33.8509 18.9703 33.9757 18.9703 34.2253V34.498H19.3882V34.7381H18.9703V36.2646H18.6841V34.7381H18.3809V34.498H18.6841V34.2118C18.6841 34.0173 18.7454 33.8649 18.8669 33.7541C18.972 33.6591 19.1003 33.6113 19.2525 33.6113C19.3405 33.6113 19.4098 33.6215 19.4598 33.6423" fill="#231F1F"/>
<path d="M20.587 36.2476C20.5194 36.2859 20.4302 36.3044 20.3184 36.3044C20.0072 36.3044 19.8516 36.1312 19.8516 35.7838V34.738H19.5449V34.4979H19.8516V34.0667C19.9419 34.038 20.0373 34.0076 20.1372 33.9756V34.4979H20.587V34.738H20.1372V35.7354C20.1372 35.8541 20.1576 35.9378 20.1985 35.9879C20.2389 36.0379 20.307 36.0632 20.4024 36.0632C20.4728 36.0632 20.5347 36.0441 20.587 36.0059" fill="#231F1F"/>
<path d="M50.2983 39.2553C50.2983 39.2188 50.2881 39.1929 50.2676 39.1766C50.2444 39.1575 50.2046 39.1485 50.1495 39.1485H50.07V39.3644H50.166C50.254 39.3644 50.2983 39.3279 50.2983 39.2553ZM50.4215 39.7051H50.3131L50.2432 39.5533C50.208 39.4774 50.17 39.4392 50.1291 39.4392H50.07V39.7051H49.9803V39.072H50.1609C50.2404 39.072 50.3006 39.09 50.342 39.1255C50.3767 39.1558 50.3943 39.1957 50.3943 39.2446C50.3943 39.2879 50.3801 39.3251 50.3517 39.3554C50.3233 39.3863 50.283 39.4066 50.2319 39.4173V39.42C50.2677 39.4278 50.3029 39.4666 50.3381 39.5363L50.4215 39.705V39.7051ZM50.6209 39.3953C50.6209 39.2699 50.5777 39.1659 50.492 39.0822C50.4062 38.9984 50.3017 38.9568 50.1779 38.9568C50.0502 38.9568 49.9445 38.9989 49.8605 39.0833C49.7759 39.1676 49.7339 39.2716 49.7339 39.3953C49.7339 39.5213 49.7776 39.627 49.8645 39.7113C49.9502 39.7945 50.0547 39.8361 50.1779 39.8361C50.3006 39.8361 50.4051 39.794 50.4914 39.7096C50.5777 39.6253 50.6209 39.5207 50.6209 39.3953ZM50.6811 39.3926C50.6811 39.5321 50.6322 39.649 50.5351 39.744C50.438 39.839 50.3182 39.8863 50.1757 39.8863C50.032 39.8863 49.9122 39.8402 49.8173 39.748C49.7225 39.6552 49.6748 39.5382 49.6748 39.3966C49.6748 39.2577 49.7231 39.1407 49.8196 39.0452C49.9162 38.9501 50.036 38.9023 50.1796 38.9023C50.3205 38.9023 50.4386 38.9479 50.534 39.039C50.6322 39.1323 50.6811 39.2504 50.6811 39.3926Z" fill="#231F1F"/>
<path d="M36.3014 21.3965L31.3625 22.9912L27.0687 24.869L25.8658 25.1837C25.5609 25.4708 25.2372 25.7623 24.8926 26.0592C24.5137 26.3856 24.1574 26.6814 23.8865 26.8952C23.5848 27.1333 23.1363 27.574 22.907 27.8566C22.5659 28.277 22.2992 28.7252 22.1845 29.07C21.9782 29.6903 22.0787 30.3185 22.4766 30.8983C22.985 31.6389 23.9969 32.3914 25.1738 32.9037C25.7741 33.165 26.7872 33.5018 27.5468 33.6917C28.8127 34.0083 31.2593 34.3522 32.6068 34.4033C32.8801 34.4136 33.2438 34.4126 33.2606 34.4017C33.2901 34.3824 33.4999 33.9891 33.7433 33.4969C34.5714 31.8219 35.1705 30.2517 35.493 28.9107C35.6882 28.0987 35.8404 27.0159 35.939 25.7321C35.9666 25.3724 35.9766 24.173 35.9554 23.7654C35.9208 23.102 35.8618 22.5613 35.7671 22.0307C35.7532 21.9529 35.7481 21.8845 35.7554 21.8783C35.7692 21.8666 35.8158 21.8518 36.4225 21.6772L36.3014 21.3965ZM35.1727 22.0523C35.2176 22.0523 35.337 23.1856 35.368 23.9046C35.3746 24.0573 35.3733 24.1551 35.3641 24.1551C35.3346 24.1551 34.7316 23.8045 34.3041 23.5388C33.9308 23.3067 33.2224 22.8406 33.1098 22.753C33.0743 22.7254 33.078 22.724 33.3832 22.62C33.9024 22.443 35.1335 22.0523 35.1727 22.0523ZM32.6568 22.8698C32.6887 22.8697 32.7756 22.9172 32.9809 23.0446C33.7513 23.5224 34.7944 24.0972 35.2415 24.2905C35.3801 24.3504 35.3959 24.3272 35.0766 24.5418C34.3962 24.9994 33.5502 25.4492 32.5115 25.9061C32.3305 25.9857 32.1771 26.0507 32.1709 26.0507C32.1647 26.0507 32.1849 25.9598 32.2154 25.8481C32.4671 24.9265 32.6091 23.9963 32.613 23.2503C32.615 22.8813 32.6151 22.8794 32.6505 22.8706C32.6522 22.8701 32.6546 22.8698 32.6568 22.8698ZM32.1389 23.0654C32.1612 23.0876 32.1451 23.9144 32.1178 24.1397C32.0525 24.6801 31.9457 25.18 31.7749 25.7483C31.7341 25.8841 31.6959 26.0012 31.6898 26.0082C31.6749 26.0252 31.1643 25.5326 30.9946 25.3377C30.7046 25.0046 30.4751 24.6737 30.308 24.3477C30.223 24.1821 30.0876 23.8549 30.1002 23.8458C30.1576 23.8045 32.1249 23.0515 32.1389 23.0654ZM29.6995 24.0175C29.7041 24.0179 29.7077 24.0192 29.7097 24.0214C29.717 24.0294 29.743 24.0894 29.7675 24.1551C29.8864 24.475 30.1538 24.9502 30.3861 25.2541C30.6397 25.586 30.9703 25.9396 31.2469 26.1745C31.3357 26.2499 31.4186 26.3203 31.4304 26.3307C31.4541 26.3515 31.4621 26.3479 30.8532 26.5766C30.1475 26.8416 29.379 27.107 28.4966 27.3894C28.1603 27.4971 27.8758 27.588 27.8647 27.5921C27.8311 27.6044 27.8414 27.5839 27.9397 27.432C28.3781 26.7542 29.0423 25.4285 29.4136 24.4908C29.478 24.3282 29.5393 24.1653 29.5503 24.1289C29.5665 24.0753 29.5824 24.0572 29.6331 24.0345C29.6612 24.022 29.6857 24.0161 29.6995 24.0175ZM28.952 24.323C28.9619 24.3316 28.7726 24.7274 28.5864 25.0871C28.2253 25.7847 27.8271 26.4712 27.2984 27.309C27.2072 27.4536 27.1231 27.5857 27.1117 27.6021C27.0929 27.6291 27.0852 27.6202 27.0273 27.5062C26.9008 27.257 26.7947 26.9425 26.7399 26.6501C26.6856 26.3607 26.6949 25.8596 26.7602 25.5488C26.8088 25.3179 26.8066 25.323 26.9164 25.2673C27.3912 25.0264 28.9365 24.3095 28.952 24.323ZM35.3906 24.5821V24.7391C35.3898 25.5636 35.3009 26.6926 35.1719 27.5163C35.1493 27.6608 35.1297 27.7801 35.1282 27.7815C35.1267 27.783 35.0215 27.7525 34.8946 27.7135C34.3342 27.5412 33.7267 27.2839 33.1785 26.9865C32.8156 26.7896 32.2906 26.4705 32.3053 26.456C32.3093 26.452 32.4639 26.3709 32.649 26.2758C33.3819 25.8991 34.0821 25.493 34.6908 25.0902C34.9192 24.939 35.2609 24.6944 35.3367 24.6285L35.3906 24.5821ZM26.133 25.6748C26.1482 25.6741 26.1443 25.7027 26.1205 25.8388C26.1039 25.9334 26.0852 26.1122 26.0783 26.2356C26.0483 26.7761 26.1368 27.1748 26.4079 27.7204C26.4833 27.8721 26.5423 27.9986 26.5392 28.0012C26.512 28.0237 24.0433 28.739 23.2671 28.9494C23.037 29.0117 22.8359 29.0667 22.8195 29.0715C22.7926 29.0796 22.7902 29.0738 22.8 29.0112C22.885 28.469 23.3028 27.7572 23.8865 27.1597C24.2746 26.7625 24.5853 26.5272 25.1136 26.2286C25.4928 26.0143 26.0817 25.6926 26.1252 25.6764C26.1281 25.6753 26.1308 25.675 26.133 25.6748ZM31.9561 26.7073C31.9585 26.7045 32.0499 26.753 32.1592 26.8156C32.9566 27.2722 34.0694 27.7005 35.0181 27.9153L35.104 27.9347L34.986 27.9996C34.4905 28.2719 32.8584 28.9443 31.1914 29.5634C30.9481 29.6538 30.7106 29.7424 30.6642 29.7606C30.6177 29.7788 30.5798 29.7913 30.5798 29.7877C30.5798 29.7841 30.6486 29.6531 30.7329 29.4969C31.2009 28.6306 31.668 27.5778 31.9077 26.8473C31.9321 26.7728 31.9538 26.7101 31.9561 26.7073ZM31.3625 26.8999C31.365 26.9024 31.3359 26.98 31.2976 27.0716C30.9723 27.8505 30.5461 28.7002 30.0026 29.6547C29.8643 29.8976 29.7477 30.0959 29.7432 30.0955C29.7388 30.0951 29.6263 30.0292 29.4933 29.9486C28.7016 29.4687 28.0012 28.878 27.5413 28.3036L27.4757 28.2224L27.817 28.1296C29.0346 27.7993 30.0671 27.4462 31.0938 27.0082C31.2392 26.9461 31.3599 26.8974 31.3625 26.8999ZM35.0501 28.1744C35.0518 28.1748 35.0524 28.176 35.0524 28.1775C35.0524 28.2597 34.8641 29.0201 34.7072 29.5704C34.5755 30.032 34.4651 30.3931 34.2604 31.0329C34.17 31.3154 34.0924 31.546 34.0878 31.5448C34.0831 31.5436 34.0615 31.5395 34.0393 31.5356C32.9302 31.3368 31.9369 31.0597 31.0063 30.6895C30.746 30.5859 30.37 30.421 30.3502 30.4018C30.3434 30.3952 30.5683 30.2904 30.8493 30.169C32.5489 29.4348 34.3098 28.5987 34.9118 28.2402C34.9842 28.197 35.0378 28.1719 35.0501 28.1744ZM26.5376 28.4629C26.5467 28.4714 26.0713 29.1453 25.4073 30.0653C25.1766 30.3851 24.9055 30.7621 24.8051 30.9029C24.7047 31.0438 24.5529 31.2667 24.4669 31.3987L24.3099 31.6384L24.1427 31.4992C23.9466 31.3362 23.6033 30.99 23.4475 30.7977C23.1271 30.4022 22.9099 29.9859 22.8242 29.6036C22.7847 29.4271 22.7835 29.3372 22.8211 29.326C22.8754 29.3098 23.8724 29.0774 24.8074 28.8627C25.3268 28.7435 25.9273 28.6039 26.1424 28.5526C26.3574 28.5013 26.5355 28.4609 26.5376 28.4629ZM27.0156 28.6439L27.1359 28.7769C27.6737 29.3701 28.2206 29.8127 28.8879 30.1945C29.0058 30.2619 29.0956 30.3205 29.0879 30.3252C29.0601 30.3422 26.7804 31.1448 25.726 31.5085C25.1314 31.7136 24.643 31.8809 24.6403 31.8805C24.6376 31.8801 24.6039 31.8583 24.5661 31.8318L24.4973 31.783L24.6051 31.6291C24.955 31.1274 25.3945 30.5757 26.3564 29.4296L27.0156 28.6439ZM29.9948 30.7521C29.9974 30.7489 30.1641 30.8074 30.3658 30.882C30.852 31.062 31.2336 31.1794 31.7499 31.3074C32.3841 31.4646 33.3005 31.6217 33.8433 31.667C33.9266 31.674 33.9691 31.6834 33.9558 31.6918C33.9306 31.7076 33.381 31.8893 32.977 32.015C32.3357 32.2147 30.3758 32.7879 28.7778 33.2432C28.4814 33.3276 28.2279 33.399 28.2146 33.4017C28.1788 33.4091 28.0537 33.3766 28.0537 33.36C28.0537 33.3521 28.1433 33.2398 28.2521 33.1109C28.7893 32.4748 29.3229 31.7643 29.7682 31.0924C29.8901 30.9086 29.9921 30.7554 29.9948 30.7521ZM29.3347 30.7707C29.3395 30.7754 29.0748 31.1952 28.6091 31.9215C28.4125 32.2281 28.1895 32.5772 28.1131 32.6972C28.0367 32.8172 27.9247 32.9995 27.8647 33.1032L27.7553 33.2919L27.6999 33.2772C27.5661 33.2413 26.6221 32.9112 26.3728 32.8132C26.0637 32.6917 25.7417 32.5451 25.5042 32.418C25.2074 32.2592 24.8311 32.0235 24.8606 32.0143C24.8691 32.0116 25.3797 31.8732 25.9947 31.7072C27.6308 31.2657 28.5357 31.012 29.1293 30.8287C29.2402 30.7944 29.3326 30.7686 29.3347 30.7707ZM33.9815 31.8495C33.985 31.8488 33.9867 31.8488 33.987 31.8495C34.0025 31.8879 33.3968 33.5488 33.1754 34.0753C33.1258 34.1933 33.1075 34.2219 33.0817 34.2207C33.019 34.218 32.1408 34.0965 31.6093 34.0166C30.6788 33.8767 29.1203 33.6072 28.727 33.5185L28.6356 33.4984L29.1934 33.3739C30.3888 33.1072 30.9628 32.9642 31.5453 32.7877C32.2798 32.565 33.0071 32.2874 33.7417 31.9493C33.8579 31.8959 33.9569 31.8549 33.9815 31.8495Z" fill="url(#paint0_linear_610_905)"/>
<path d="M31.2119 10.0001C31.1293 9.99059 29.8038 10.4634 28.9522 10.806C27.7982 11.2702 26.9022 11.715 26.3495 12.0991C26.1438 12.2421 25.8851 12.4993 25.8473 12.5979C25.8331 12.6349 25.8265 12.678 25.8262 12.7225L26.3276 13.1911L27.5173 13.567L30.3511 14.0681L33.5904 14.6196L33.6232 14.3442C33.6134 14.3427 33.6041 14.3411 33.5943 14.3396L33.1678 14.2731L33.0811 14.1223C32.6408 13.3531 32.1543 12.4013 31.8719 11.7573C31.6532 11.2585 31.4432 10.6839 31.3267 10.2677C31.2575 10.0206 31.2503 10.0046 31.2119 10.0001ZM31.1494 10.1904C31.1527 10.1898 31.1544 10.1898 31.1549 10.1904C31.1575 10.1935 31.1725 10.2967 31.1877 10.4193C31.2514 10.9359 31.3682 11.4369 31.5509 11.9761C31.6886 12.3825 31.6905 12.3586 31.5267 12.3133C31.1458 12.2081 29.4392 11.918 28.2046 11.7488C28.0057 11.7215 27.8402 11.6972 27.8375 11.6946C27.8218 11.6791 28.7278 11.2091 29.1295 11.0241C29.6446 10.7868 31.0473 10.2086 31.1494 10.1904ZM27.5524 11.8447L27.6969 11.8934C28.4895 12.1605 30.4762 12.5363 31.5743 12.6266C31.6982 12.6367 31.8024 12.6477 31.8055 12.6505C31.8087 12.6534 31.7035 12.7091 31.572 12.7743C31.0422 13.037 30.4592 13.3573 30.0559 13.6072C29.9374 13.6806 29.8288 13.7398 29.8145 13.7387C29.8002 13.7376 29.7221 13.7251 29.6403 13.7116L29.4911 13.6876L29.1162 13.3272C28.458 12.6965 27.9441 12.2085 27.7453 12.0241L27.5524 11.8447ZM27.4056 11.9607L27.9305 12.6095C28.2194 12.9664 28.509 13.3206 28.5733 13.3968C28.6376 13.4731 28.6874 13.5377 28.6842 13.5399C28.6693 13.5507 27.9235 13.4069 27.5282 13.3172C27.1224 13.2251 26.9546 13.181 26.7034 13.1014L26.4987 13.0364L26.4995 12.9862C26.5021 12.7369 26.8194 12.3693 27.3579 11.9932L27.4056 11.9607ZM31.8758 12.8446C31.8916 12.8459 31.9082 12.8775 31.9547 12.9784C32.082 13.2546 32.4783 14.003 32.5741 14.1478C32.6057 14.1955 32.6557 14.1987 32.1297 14.1145C30.8655 13.9124 30.4565 13.8447 30.4566 13.8369C30.4566 13.8322 30.4945 13.8076 30.5409 13.782C30.9324 13.5664 31.3274 13.2951 31.679 13.0016C31.7631 12.9315 31.8438 12.8646 31.8586 12.8524C31.8647 12.8473 31.8706 12.8442 31.8758 12.8446Z" fill="url(#paint1_linear_610_905)"/>
<path d="M25.8692 12.5479C25.8692 12.5479 25.7871 12.6766 25.8645 12.868C25.9123 12.9865 26.056 13.1288 26.2144 13.2795C26.2144 13.2795 27.8733 14.8817 28.0766 15.1139C28.9957 16.1643 29.3949 17.1983 29.4318 18.6259C29.4555 19.542 29.277 20.3473 28.8436 21.2832C28.0668 22.9608 26.4301 24.8107 23.9023 26.8678L24.2734 26.7464C24.5119 26.5695 24.8357 26.3806 25.5997 25.9668C27.3591 25.014 29.3348 24.1375 31.7618 23.2345C35.2537 21.9352 40.9975 20.4108 44.2658 19.9151L44.6063 19.8633L44.554 19.7821C44.2552 19.3222 44.0512 19.0386 43.8057 18.738C43.0888 17.8603 42.221 17.1441 41.1577 16.5548C39.6966 15.7448 37.8014 15.1154 35.4057 14.6437C34.9528 14.5546 33.9609 14.3862 33.1538 14.2617C31.444 13.9979 30.3413 13.8197 29.1233 13.6097C28.6865 13.5347 28.0345 13.4263 27.6017 13.3336C27.3761 13.2853 26.9475 13.185 26.6143 13.0714C26.3393 12.9642 25.952 12.8606 25.8692 12.5479ZM26.8307 13.472C26.833 13.47 26.8953 13.489 26.9713 13.5146C27.1113 13.5616 27.296 13.6167 27.5111 13.6762C27.6617 13.7179 27.8273 13.7616 28.0031 13.8061C28.2276 13.863 28.4132 13.9118 28.4156 13.9144C28.4404 13.9421 28.8174 15.1333 28.9459 15.5903C28.995 15.7648 29.0323 15.9101 29.0287 15.9136C29.0252 15.9171 28.9834 15.8529 28.9366 15.7713C28.5005 15.0119 27.8098 14.2397 27.0111 13.6182C26.9116 13.5407 26.8307 13.475 26.8307 13.472ZM28.6686 13.9747C28.6879 13.9734 28.7707 13.9872 28.8694 14.0088C29.5054 14.148 30.641 14.3651 31.3713 14.4867C31.4929 14.507 31.5931 14.5288 31.5931 14.5354C31.5931 14.5421 31.5477 14.5705 31.4923 14.5981C31.3698 14.6591 30.874 14.953 30.7081 15.0629C30.294 15.3373 29.9217 15.6311 29.6505 15.8982C29.5415 16.0055 29.4503 16.093 29.4474 16.093C29.4445 16.093 29.4254 16.0305 29.4052 15.9538C29.2697 15.4393 28.9894 14.6796 28.7382 14.1449C28.6977 14.0588 28.6647 13.983 28.6647 13.9763C28.6647 13.9754 28.6659 13.9749 28.6686 13.9747ZM31.9016 14.5834C31.9229 14.5904 31.9632 14.7147 32.0344 14.9941C32.1709 15.529 32.2345 16.1297 32.2133 16.6855C32.2074 16.8401 32.1975 16.9837 32.1914 17.0049L32.1797 17.0435L31.9868 16.9817C31.5891 16.8558 30.9392 16.6663 30.3824 16.5138C30.066 16.4271 29.8067 16.3497 29.8067 16.3421C29.8067 16.3192 30.2683 15.8622 30.4668 15.6886C30.8458 15.3568 31.8655 14.5715 31.9016 14.5834ZM32.1586 14.6197C32.1701 14.6091 33.7036 14.872 34.4004 15.0041C34.9198 15.1026 35.6713 15.2584 35.7166 15.2771C35.7384 15.2862 35.6607 15.3281 35.4112 15.4395C34.4242 15.8802 33.6931 16.2735 32.9663 16.7551C32.7748 16.8819 32.6158 16.9855 32.6125 16.9855C32.6091 16.9855 32.6063 16.8797 32.6062 16.7504C32.6057 16.0487 32.4642 15.3404 32.2047 14.7419C32.1768 14.6775 32.1558 14.6223 32.1586 14.6197ZM36.1235 15.3962C36.1354 15.408 36.0851 15.7074 36.0415 15.8842C35.9058 16.4347 35.5463 17.2516 35.1026 18.0195C35.0244 18.1549 34.9545 18.2677 34.9464 18.2701C34.9383 18.2726 34.8373 18.22 34.7222 18.1533C34.2884 17.9021 33.7971 17.6644 33.2576 17.4441C33.1072 17.3827 32.9791 17.328 32.9725 17.322C32.9479 17.2991 34.1468 16.5132 34.7824 16.1356C35.2907 15.8335 36.1093 15.3821 36.1235 15.3962ZM36.4071 15.4403C36.4416 15.4403 37.1216 15.6239 37.4733 15.728C38.3492 15.9874 39.3595 16.3528 40.015 16.6476L40.2876 16.7698L40.0954 16.8138C38.4917 17.1786 37.1171 17.5996 35.7931 18.1317C35.6831 18.1759 35.5874 18.2121 35.5807 18.2121C35.5739 18.2121 35.609 18.1279 35.658 18.025C36.056 17.1877 36.313 16.3092 36.3797 15.5633C36.3858 15.4954 36.3982 15.4403 36.4071 15.4403ZM29.6474 16.9786C29.6582 16.9679 30.1758 17.088 30.4582 17.1665C30.8825 17.2845 31.7855 17.5836 31.786 17.6066C31.786 17.611 31.6865 17.6969 31.565 17.7976C31.0768 18.202 30.6059 18.6248 30.0418 19.1642C29.8746 19.324 29.7325 19.4542 29.7255 19.4542C29.7185 19.4542 29.7153 19.4308 29.7192 19.4024C29.8042 18.7815 29.7859 17.9842 29.6677 17.1727C29.6527 17.0698 29.6436 16.9822 29.6474 16.9786ZM40.5469 16.9886C40.5547 16.9963 40.3068 17.38 40.1525 17.5988C39.9273 17.9182 39.6009 18.3374 38.8574 19.2631C38.4668 19.7494 38.0263 20.2997 37.8779 20.4859C37.7295 20.672 37.6049 20.8246 37.6014 20.8246C37.5978 20.8246 37.5499 20.7579 37.4951 20.6769C37.076 20.0569 36.5786 19.5123 35.9853 19.0234C35.8745 18.9322 35.7496 18.8321 35.708 18.8014C35.6663 18.7708 35.6324 18.7424 35.6322 18.738C35.6318 18.7279 36.2655 18.4588 36.7492 18.2639C37.5912 17.9247 38.7421 17.5184 39.6033 17.257C40.0575 17.1191 40.54 16.9818 40.5469 16.9886ZM40.8328 17.0629C40.8464 17.0601 40.9368 17.1034 41.0453 17.165C41.9523 17.6794 42.8412 18.3401 43.5401 19.0195C43.7389 19.2128 44.2253 19.7138 44.2181 19.7179C44.2163 19.719 44.0483 19.7321 43.8447 19.7473C42.2729 19.8643 40.2633 20.1954 38.3286 20.656C38.1972 20.6873 38.0836 20.7132 38.0763 20.7132C38.069 20.7132 38.2128 20.5703 38.3958 20.3962C39.532 19.3146 40.0503 18.6317 40.6602 17.4117C40.751 17.23 40.828 17.0732 40.8312 17.0636C40.8314 17.063 40.8319 17.063 40.8328 17.0629ZM32.525 17.9059C32.5769 17.9174 33.0614 18.1406 33.4271 18.3219C33.7616 18.4877 34.2681 18.7548 34.2934 18.7782C34.2966 18.7812 34.1181 18.8734 33.8966 18.9832C33.1952 19.3306 32.5945 19.6587 31.9673 20.0381C31.7884 20.1463 31.6385 20.2353 31.6337 20.2353C31.6181 20.2353 31.6242 20.2219 31.7243 20.0404C32.0583 19.4347 32.3278 18.7115 32.4828 18.0048C32.4966 17.9418 32.5133 17.9033 32.525 17.9059ZM32.0368 17.9925C32.0469 18.0025 31.9211 18.4598 31.8415 18.704C31.6887 19.1724 31.4304 19.7612 31.1822 20.2044C31.124 20.3084 31.0345 20.4608 30.9838 20.5431L30.8917 20.6924L30.6823 20.4921C30.4391 20.2586 30.2409 20.1136 29.9879 19.9847C29.8885 19.9341 29.8076 19.8872 29.8075 19.8803C29.807 19.8498 30.4439 19.2764 30.9354 18.8649C31.2872 18.5703 32.0278 17.9836 32.0368 17.9925ZM35.0034 19.2005L35.1854 19.3173C35.6029 19.5857 36.0973 19.9467 36.4742 20.2577C36.6855 20.432 37.096 20.796 37.1804 20.8842L37.2257 20.9313L36.9234 21.0149C35.2137 21.4845 33.8928 21.9026 32.3516 22.4634C32.1805 22.5256 32.0328 22.5771 32.0227 22.5771C32.0015 22.5771 31.9803 22.5964 32.3648 22.2461C33.3506 21.3479 34.2215 20.3582 34.8722 19.3954L35.0034 19.2005ZM34.2239 19.3938C34.2328 19.4027 33.7186 20.1157 33.4131 20.5183C33.0475 21.0001 32.3965 21.8054 31.9485 22.3296C31.7614 22.5486 31.601 22.7304 31.5923 22.7333C31.5828 22.7365 31.5769 22.6829 31.5767 22.598C31.5758 22.1507 31.4615 21.6726 31.2596 21.2678C31.1743 21.0968 31.16 21.0554 31.1776 21.0396C31.2478 20.9765 32.3354 20.3625 33.021 19.9986C33.4919 19.7487 34.2149 19.385 34.2239 19.3938ZM29.5091 20.5377C29.5185 20.5377 29.6057 20.5811 29.7028 20.6344C29.9409 20.7649 30.1547 20.9086 30.3433 21.0644C30.3506 21.0704 30.2529 21.1494 30.1262 21.2399C29.7724 21.4926 29.2337 21.8952 28.9217 22.1409C28.5925 22.4002 28.5816 22.4081 28.6187 22.352C28.8652 21.9787 28.9891 21.7674 29.1186 21.4975C29.2336 21.2575 29.3483 20.9726 29.4302 20.7248C29.4643 20.6219 29.4998 20.5377 29.5091 20.5377ZM30.7651 21.5137C30.7821 21.5116 30.8063 21.5429 30.9073 21.6923C31.1201 22.0072 31.2831 22.4271 31.3252 22.7689L31.3338 22.8424L30.8237 23.038C29.9081 23.3898 29.0653 23.7366 28.496 23.9947C28.3367 24.0669 28.0555 24.1999 27.8719 24.2909C27.6883 24.3819 27.5384 24.4534 27.5384 24.4495C27.5384 24.4455 27.6537 24.3597 27.7946 24.2584C28.9119 23.4553 29.8753 22.576 30.6011 21.697C30.6787 21.603 30.7492 21.5214 30.7581 21.516C30.7605 21.5146 30.7627 21.514 30.7651 21.5137ZM30.1856 21.656C30.2003 21.6706 29.7733 22.1488 29.4857 22.4394C28.7658 23.1669 28.0522 23.7372 27.1681 24.2925C27.0575 24.3619 26.9565 24.4248 26.9432 24.4324C26.9189 24.4465 26.951 24.4104 27.3392 23.9916C27.5838 23.7277 27.7711 23.5087 27.9836 23.2352C28.1236 23.0552 28.1503 23.0299 28.3554 22.8834C28.9078 22.4886 30.1709 21.6414 30.1856 21.656Z" fill="url(#paint2_radial_610_905)"/>
<path d="M34.5089 33.791H34.3018V34.4277H34.2174V33.791H34.0098V33.7158H34.5089" fill="#231F1F"/>
<path d="M35.3564 34.4273H35.272V33.9487C35.272 33.9115 35.2745 33.8652 35.2792 33.811H35.2767C35.2688 33.8429 35.2621 33.8658 35.2554 33.8802L35.0101 34.4273H34.9688L34.7229 33.8838C34.7162 33.8688 34.7089 33.8441 34.7016 33.811H34.6998C34.7024 33.8393 34.7034 33.8856 34.7034 33.9499V34.4273H34.6221V33.7148H34.7338L34.9542 34.2121C34.9712 34.2493 34.9822 34.2776 34.987 34.2974H34.9907C35.0052 34.2584 35.0168 34.2289 35.0253 34.2097L35.2506 33.7148H35.3562" fill="#231F1F"/>
</g>
<defs>
<linearGradient id="paint0_linear_610_905" x1="26.7323" y1="33.5727" x2="36.3724" y2="27.8196" gradientUnits="userSpaceOnUse">
<stop stop-color="#909CA9"/>
<stop offset="1" stop-color="#EDEDEE"/>
</linearGradient>
<linearGradient id="paint1_linear_610_905" x1="25.8262" y1="12.3098" x2="33.6232" y2="12.3098" gradientUnits="userSpaceOnUse">
<stop stop-color="#939FAB"/>
<stop offset="1" stop-color="#DCDEE1"/>
</linearGradient>
<radialGradient id="paint2_radial_610_905" cx="0" cy="0" r="1" gradientUnits="userSpaceOnUse" gradientTransform="translate(33.1808 18.8575) rotate(-171.485) scale(10.0572 19.8965)">
<stop stop-color="#EE352C"/>
<stop offset="1" stop-color="#A91D22"/>
</radialGradient>
<clipPath id="clip0_610_905">
<rect width="56" height="56" fill="white"/>
</clipPath>
</defs>
</svg>
