<svg width="56" height="56" viewBox="0 0 56 56" fill="none" xmlns="http://www.w3.org/2000/svg">
<rect width="56" height="56" rx="4" fill="white"/>
<path d="M24.7187 5.55634C24.5949 5.59759 23.9312 5.81134 23.2337 6.04009C19.4837 7.26634 16.8287 8.68759 16.1687 9.81259C15.9174 10.2438 15.8687 10.5926 16.0187 10.9413C16.1837 11.3351 16.4874 11.6313 17.3199 12.2201C17.7099 12.4938 18.3737 13.0676 18.8049 13.4988C20.8674 15.5576 21.8687 18.0813 21.7562 20.9351C21.6287 24.1451 20.1249 27.3551 17.2449 30.5688C16.2399 31.6901 15.2087 32.6238 13.2287 34.2101C11.5787 35.5301 10.6824 36.3851 10.0712 37.2138C8.19994 39.7638 8.69869 42.0363 11.5562 43.9338C14.0762 45.6101 18.5162 47.0051 23.7474 47.7626C25.5024 48.0176 27.4862 48.1788 27.9624 48.1076L28.2962 48.0588L28.8212 47.1138C31.4762 42.3326 32.8187 37.8251 32.9799 33.1601C33.0512 31.0788 32.7887 28.6151 32.3424 27.1751C32.2599 26.9163 32.1999 26.6951 32.2112 26.6876C32.2187 26.6801 32.9612 26.4588 33.8612 26.1888C38.5899 24.7788 43.1649 23.6688 46.9449 23.0126C47.6799 22.8851 48.3099 22.7538 48.3437 22.7201C48.5462 22.5213 47.9574 21.6026 47.0012 20.6163C43.4649 16.9676 37.2174 14.1888 29.8862 13.0076C28.4724 12.7788 28.2999 12.6963 27.7749 12.0026C26.9424 10.9001 26.1587 9.01384 25.0899 5.56384C25.0562 5.45884 25.0224 5.45884 24.7187 5.55634ZM25.2062 6.85384C25.6187 7.97509 25.8699 8.85634 25.8699 9.16759V9.41134L25.5212 9.37009C23.6312 9.15259 20.6162 8.68384 19.9749 8.51134C19.8099 8.46634 19.7162 8.40259 19.7462 8.35384C19.7949 8.27509 20.4362 7.96759 22.3412 7.10134C24.1187 6.29509 24.7937 5.99509 24.8462 5.99134C24.8687 5.99134 25.0299 6.37759 25.2062 6.85384ZM21.2087 9.22009C23.5149 9.70384 25.1949 10.0076 25.5662 10.0076C25.9262 10.0076 25.8849 10.0376 24.1899 11.0726C22.8812 11.8676 22.7312 11.9426 22.4012 11.9426H22.0412L21.0737 10.9601C19.8999 9.77134 19.1049 8.90134 19.1049 8.80384C19.1049 8.76259 19.1274 8.75134 19.1612 8.77009C19.1912 8.78509 20.1174 8.99134 21.2087 9.22009ZM19.5062 10.3113C20.0724 10.9713 20.5112 11.5263 20.4887 11.5526C20.4399 11.6013 18.8237 11.2001 17.8337 10.8963C16.9712 10.6301 16.8662 10.5401 17.0949 10.2476C17.2449 10.0526 18.3587 9.12259 18.4412 9.11884C18.4637 9.11509 18.9399 9.64759 19.5062 10.3113ZM26.8637 11.6801C27.0887 12.2163 27.2612 12.6513 27.2537 12.6588C27.2424 12.6663 24.2124 12.1976 23.9462 12.1451C23.8899 12.1338 24.4037 11.7851 25.0937 11.3651C25.7837 10.9451 26.3724 10.6263 26.4024 10.6601C26.4324 10.6863 26.6387 11.1438 26.8637 11.6801ZM20.2562 12.6963C20.3162 12.7563 21.0399 15.0813 21.0062 15.1113C20.9949 15.1226 20.6499 14.7251 20.2412 14.2188C19.8287 13.7126 19.2099 13.0038 18.8537 12.6326L18.2124 11.9613L19.2137 12.3063C19.7612 12.4976 20.2337 12.6738 20.2562 12.6963ZM23.1512 13.0076C24.4074 13.1876 25.4499 13.3488 25.4687 13.3676C25.4837 13.3863 24.7262 13.9751 23.7812 14.6801C22.8362 15.3813 22.0562 15.9476 22.0449 15.9363C22.0337 15.9251 21.9399 15.6326 21.8349 15.2838C21.7299 14.9351 21.4599 14.2113 21.2387 13.6676C21.0174 13.1238 20.8449 12.6813 20.8524 12.6813C20.8599 12.6813 21.8949 12.8313 23.1512 13.0076ZM26.3087 14.0126C26.5862 14.6613 26.6949 15.2838 26.7399 16.5251C26.7624 17.1926 26.7662 17.7363 26.7437 17.7363C26.7212 17.7363 26.3237 17.5976 25.8624 17.4326C24.9399 17.0988 23.1324 16.5026 22.9187 16.4613C22.8249 16.4426 23.2599 16.0263 24.4037 15.0401C25.2962 14.2713 26.0537 13.6451 26.0874 13.6451C26.1249 13.6488 26.2224 13.8138 26.3087 14.0126ZM29.5487 14.1701C30.9399 14.4551 32.1549 14.7101 32.2524 14.7326C32.3912 14.7663 32.0574 14.9763 30.5874 15.7826C29.5749 16.3376 28.4274 16.9676 28.0374 17.1888C27.6437 17.4101 27.3212 17.5788 27.3137 17.5713C27.3062 17.5638 27.3474 17.3576 27.4037 17.1101C27.6137 16.2101 27.4824 15.0851 27.0624 14.1888C26.9387 13.9301 26.8374 13.7013 26.8374 13.6826C26.8374 13.6188 27.0887 13.6638 29.5487 14.1701ZM33.3399 15.8688C33.2687 16.1838 33.1149 16.7201 32.9912 17.0688C32.7249 17.8338 31.7537 19.8176 31.6224 19.8701C31.5699 19.8926 31.1124 19.6788 30.6137 19.4013C30.1149 19.1238 29.3912 18.7563 29.0124 18.5876L28.3224 18.2801L30.8687 16.6488C32.9799 15.2951 33.4187 15.0401 33.4412 15.1601C33.4562 15.2351 33.4112 15.5538 33.3399 15.8688ZM35.1999 15.2876C37.8399 16.0451 40.6262 17.0688 40.4649 17.2226C40.4312 17.2526 40.0862 17.3688 39.6999 17.4776C37.7087 18.0438 34.9374 19.0001 33.6399 19.5701C33.2387 19.7463 32.8899 19.8776 32.8712 19.8588C32.8524 19.8401 33.0099 19.2551 33.2237 18.5651C33.6399 17.2038 34.1237 15.3663 34.1237 15.1301C34.1237 15.0251 34.1612 14.9913 34.2549 15.0176C34.3224 15.0363 34.7462 15.1563 35.1999 15.2876ZM23.8487 18.0251C24.4524 18.2238 25.1537 18.4901 25.4124 18.6213C25.8812 18.8576 25.8849 18.8613 25.7499 19.0076C25.5099 19.2738 22.8887 21.7151 22.8137 21.7413C22.7762 21.7563 22.7462 21.3851 22.7462 20.8488C22.7424 19.9188 22.6374 18.2426 22.5587 17.8676C22.4987 17.5938 22.5474 17.5976 23.8487 18.0251ZM40.6112 18.5088C40.0337 19.4613 39.0849 20.8188 38.3987 21.6738C37.6974 22.5513 36.2162 24.2013 36.1299 24.2013C36.0962 24.2013 35.8824 23.9351 35.6537 23.6051C34.8099 22.4013 33.8312 21.3588 32.9724 20.7513C32.8899 20.6951 32.8412 20.6313 32.8599 20.6126C32.8787 20.5938 34.2887 20.0763 35.9837 19.4613C39.4187 18.2163 40.9299 17.7101 41.0237 17.7776C41.0312 17.7888 40.8474 18.1151 40.6112 18.5088ZM42.7599 18.3476C45.1299 20.0013 46.7424 21.3401 47.3274 22.1388C47.4737 22.3413 47.5824 22.5138 47.5674 22.5251C47.5524 22.5363 46.7912 22.6226 45.8687 22.7126C42.1899 23.0763 39.5687 23.4438 38.1812 23.7963C37.8099 23.8901 37.4987 23.9613 37.4949 23.9576C37.4874 23.9501 37.7312 23.6501 38.0424 23.2788C39.6474 21.3551 41.0949 19.3526 41.6349 18.3138C41.7774 18.0401 41.9162 17.8151 41.9462 17.8151C41.9724 17.8113 42.3362 18.0513 42.7599 18.3476ZM29.4737 20.3988C29.9274 20.6426 30.2762 20.8676 30.2574 20.9051C30.2237 20.9726 26.2224 23.1626 26.1887 23.1326C26.1812 23.1251 26.3874 22.4688 26.6499 21.6663C26.9124 20.8638 27.1674 19.9938 27.2162 19.7276L27.3062 19.2401L27.9812 19.6001C28.3562 19.7988 29.0199 20.1551 29.4737 20.3988ZM26.1249 20.5263C25.7387 21.8651 24.9549 23.5901 24.5987 23.8901C24.5162 23.9576 24.3549 23.8638 23.8262 23.4363C23.4549 23.1363 23.0762 22.8401 22.9749 22.7726C22.8774 22.7051 22.8062 22.6338 22.8212 22.6151C23.0949 22.3413 26.2824 19.7726 26.2974 19.8138C26.3087 19.8401 26.2299 20.1626 26.1249 20.5263ZM33.3699 22.8551C33.9737 23.2563 35.3087 24.4526 35.2374 24.5276C35.2187 24.5463 33.8612 24.9888 32.2262 25.5026C30.5912 26.0201 28.7687 26.6051 28.1762 26.8038C27.5799 27.0026 27.0924 27.1601 27.0887 27.1526C27.0812 27.1451 27.4974 26.6726 28.0112 26.0988C29.3499 24.6063 30.7262 23.0051 31.2137 22.3751L31.6337 21.8313L32.1849 22.1276C32.4812 22.2926 33.0212 22.6226 33.3699 22.8551ZM30.2724 21.9963C30.2349 22.0451 29.8749 22.5026 29.4699 23.0163C29.0649 23.5263 28.0974 24.7713 27.3099 25.7801L25.8812 27.6176L25.8324 27.3063C25.7424 26.7026 25.4199 25.5288 25.2362 25.1276L25.0524 24.7263L25.9599 24.2726C26.8974 23.8038 28.8512 22.7426 29.7662 22.2101C30.3437 21.8726 30.3812 21.8576 30.2724 21.9963ZM22.6937 24.2163C23.0649 24.4076 23.4137 24.6551 23.4137 24.7338C23.4137 24.8538 20.9949 26.7213 20.9312 26.6501C20.9162 26.6351 21.1337 26.2038 21.4149 25.6901C21.6999 25.1763 21.9849 24.6026 22.0524 24.4076C22.1199 24.2126 22.2249 24.0551 22.2774 24.0551C22.3374 24.0551 22.5249 24.1301 22.6937 24.2163ZM24.7562 26.5151C24.9249 26.8413 25.0974 27.7601 25.0074 27.8426C24.9699 27.8763 23.9724 28.3488 22.7837 28.8926C21.5949 29.4363 20.0537 30.1676 19.3449 30.5201C18.6399 30.8726 18.1037 31.1201 18.1562 31.0751C18.2087 31.0263 18.9849 30.3776 19.8849 29.6276C21.6249 28.1801 23.6087 26.4513 23.9724 26.0688L24.1899 25.8401L24.4037 26.0463C24.5237 26.1588 24.6812 26.3688 24.7562 26.5151ZM22.8024 26.4963C22.6299 26.6501 21.6999 27.4638 20.7399 28.2963C19.7799 29.1251 18.6249 30.1301 18.1749 30.5238C17.2674 31.3151 17.2674 31.3151 18.4262 29.8038C19.3224 28.6338 19.7912 28.1988 21.0774 27.3363C21.7037 26.9163 22.9487 26.2151 23.0687 26.2151C23.0949 26.2113 22.9749 26.3426 22.8024 26.4963ZM31.8137 27.2913C31.8624 27.5351 31.9187 28.3001 31.9449 28.9826L31.9899 30.2276L31.7012 30.0926C30.7037 29.6313 27.9024 28.0526 28.0074 28.0113C28.6187 27.7676 31.6449 26.7626 31.6787 26.7963C31.7049 26.8226 31.7649 27.0438 31.8137 27.2913ZM29.4362 29.5188C30.6024 30.2051 31.5662 30.7751 31.5812 30.7863C31.5962 30.7976 31.4424 30.9251 31.2512 31.0676C30.8799 31.3413 26.9237 33.3851 26.8712 33.3326C26.8562 33.3176 26.9087 32.9763 26.9874 32.5826C27.1487 31.7876 27.2949 29.4176 27.2237 28.6638C27.2012 28.3976 27.2087 28.2101 27.2462 28.2326C27.2874 28.2551 28.2699 28.8326 29.4362 29.5188ZM26.2112 29.0163C26.3012 29.7551 26.1924 31.2401 25.9937 32.0126C25.7574 32.9201 25.6224 33.2988 25.5212 33.3326C25.3824 33.3813 24.5199 32.5938 23.9912 31.9376C23.4587 31.2776 22.7612 30.0326 22.8662 29.9313C22.9299 29.8713 26.0124 28.6001 26.1062 28.5963C26.1362 28.5926 26.1849 28.7838 26.2112 29.0163ZM22.4312 30.8726C22.7574 31.5476 23.5037 32.5226 24.3212 33.3476C24.8462 33.8763 24.9774 34.0488 24.8949 34.1013C24.5274 34.3488 22.8887 35.1176 21.8537 35.5226C20.5974 36.0176 18.9662 36.5801 18.9287 36.5351C18.9137 36.5201 19.2887 35.8376 19.7612 35.0201C20.7849 33.2426 22.0787 30.7301 22.0787 30.5238C22.0787 30.2613 22.1874 30.3663 22.4312 30.8726ZM20.4962 30.9138C20.4774 30.9663 20.3199 31.3563 20.1512 31.7876C19.4237 33.6326 18.0099 36.1376 17.6949 36.1376C17.4512 36.1376 17.0912 34.6788 16.9899 33.2763L16.9374 32.5713L18.6662 31.6976C19.6187 31.2176 20.4249 30.8238 20.4662 30.8238C20.4999 30.8201 20.5149 30.8613 20.4962 30.9138ZM32.0387 32.6201C32.0462 33.6813 31.5999 36.2501 31.3637 36.5088C31.2662 36.6176 30.1674 36.2126 29.1812 35.7026C28.2962 35.2451 26.8412 34.3413 26.8412 34.2513C26.8412 34.2251 27.0624 34.1126 27.3399 33.9963C27.8649 33.7751 30.3062 32.4701 31.3412 31.8588L31.9374 31.5063L31.9899 31.7763C32.0087 31.9226 32.0349 32.3088 32.0387 32.6201ZM15.7524 33.8463C15.8537 34.6863 16.1124 35.7138 16.4349 36.5313C16.5662 36.8651 16.6599 37.1538 16.6449 37.1688C16.5174 37.2851 11.3237 38.7138 10.6374 38.8226L10.3112 38.8751L10.3599 38.6238C10.4312 38.2676 10.9337 37.2401 11.3087 36.6851C11.7737 35.9951 12.9249 34.8401 13.6862 34.3038C14.2524 33.9026 15.6174 33.1076 15.6587 33.1526C15.6624 33.1563 15.7074 33.4676 15.7524 33.8463ZM27.5349 35.6163C29.1399 36.3851 29.7474 36.6513 30.5162 36.9176L31.1049 37.1201L30.7337 37.3076C28.6299 38.3726 24.9099 39.8913 23.9462 40.0788C23.7324 40.1201 23.7024 40.1088 23.7437 40.0038C23.9087 39.5726 26.1287 34.9863 26.1699 34.9863C26.1962 34.9826 26.8149 35.2713 27.5349 35.6163ZM24.7112 35.4438C24.5987 35.9838 23.9874 37.7351 23.6312 38.5301C23.3237 39.2201 22.6112 40.5663 22.4837 40.6938C22.4274 40.7501 21.1599 40.0338 20.5599 39.6063C19.8849 39.1263 18.4074 37.7013 18.4487 37.5701C18.4637 37.5213 19.3637 37.1763 20.4474 36.8013C22.7312 36.0138 24.0099 35.5376 24.3812 35.3463C24.7412 35.1588 24.7712 35.1701 24.7112 35.4438ZM31.0974 37.8626C31.0749 38.0201 30.9474 38.7101 30.8087 39.4076C30.3737 41.5938 29.8449 43.0863 29.5074 43.0863C29.0424 43.0863 25.8587 42.3138 24.8312 41.9501C24.1337 41.7026 23.5299 41.4213 23.3312 41.2451C23.2074 41.1363 23.2712 41.0988 24.1862 40.7238C27.1299 39.5238 30.5237 37.9938 30.8912 37.7013C31.1049 37.5326 31.1387 37.5551 31.0974 37.8626ZM16.2024 38.5301C15.8687 39.1263 15.1824 40.1126 13.8774 41.8751L12.7637 43.3751L12.4299 43.1351C11.9612 42.8013 11.2187 41.9913 10.9074 41.4776C10.5737 40.9263 10.3449 40.2476 10.3187 39.7301L10.2962 39.3288L10.8474 39.2726C11.5937 39.1976 13.6787 38.7663 15.1674 38.3763C15.8424 38.2001 16.4049 38.0651 16.4199 38.0763C16.4312 38.0913 16.3337 38.2938 16.2024 38.5301ZM19.4387 40.0713C19.8099 40.3376 20.3199 40.6751 20.5824 40.8288L21.0587 41.1063L20.8449 41.1963C20.7249 41.2451 18.9962 41.8751 16.9974 42.5988C13.5849 43.8326 13.3599 43.9038 13.2662 43.7763C13.2099 43.7013 13.1724 43.6226 13.1799 43.5963C13.1874 43.5701 14.1099 42.3813 15.2312 40.9451L17.2674 38.3388L18.0174 38.9651C18.4374 39.3138 19.0674 39.8051 19.4387 40.0713ZM20.2787 43.9901C19.5324 45.1038 18.9024 46.0451 18.8799 46.0751C18.8237 46.1501 17.6312 45.8688 16.7387 45.5726C15.8012 45.2576 14.6462 44.6726 14.1962 44.2863L13.8699 44.0051L14.6049 43.8063C17.6162 42.9851 21.5987 41.9313 21.6174 41.9463C21.6324 41.9501 21.0249 42.8763 20.2787 43.9901ZM23.8637 42.3026C25.4574 42.8501 26.9124 43.1613 28.7987 43.3638L29.3199 43.4201L27.9137 43.9263C24.4037 45.1938 21.5612 46.0826 20.1287 46.3601C19.7274 46.4388 19.3599 46.5026 19.3187 46.5026C19.2774 46.5026 19.5662 46.1088 19.9599 45.6326C21.0324 44.3238 22.1949 42.8351 22.5024 42.3776C22.6524 42.1563 22.8024 41.9688 22.8362 41.9688C22.8699 41.9726 23.3274 42.1188 23.8637 42.3026ZM29.0949 45.2576C28.4912 46.8176 28.0487 47.7663 27.8912 47.8263C27.5912 47.9426 23.4474 47.3313 22.1837 46.9901C21.3437 46.7613 20.8074 46.5401 20.9649 46.4838C21.0249 46.4613 21.6249 46.3226 22.3037 46.1688C24.4974 45.6738 27.8424 44.6576 29.2262 44.0651C29.4062 43.9901 29.5637 43.9338 29.5749 43.9451C29.5824 43.9563 29.3687 44.5451 29.0949 45.2576Z" fill="black"/>
</svg>
