<svg width="80" height="80" viewBox="0 0 80 80" fill="none" xmlns="http://www.w3.org/2000/svg">
<g clip-path="url(#clip0_4056_11064)">
<path fill-rule="evenodd" clip-rule="evenodd" d="M73.6859 32.2931H20.3778L71.5808 17.4603C71.9787 17.345 72.3144 17.0758 72.5146 16.7133C72.7148 16.3501 72.7624 15.9229 72.6471 15.5249L69.9676 6.27502C68.8971 2.58057 65.4571 0 61.6021 0C60.7898 0 59.9804 0.115356 59.1955 0.342407L11.1212 14.2688C8.89768 14.9127 7.05503 16.391 5.93137 18.4302C4.80832 20.4694 4.54465 22.8174 5.18857 25.0403L7.80637 34.0771V71.3043C7.80637 76.0992 11.7071 80 16.5014 80H35.2771C36.1401 80 36.8396 79.3005 36.8396 78.4375C36.8396 77.5745 36.1401 76.875 35.2771 76.875H16.502C13.4301 76.875 10.9314 74.3762 10.9314 71.3043V50.0409H18.9361H18.9398H18.9428H31.1792H31.1828H31.1865H43.4228H43.4265H43.4302H55.6665H55.6701H55.6732H72.1234V71.3043C72.1234 74.3762 69.6246 76.875 66.5527 76.875H47.7771C46.9146 76.875 46.2146 77.5745 46.2146 78.4375C46.2146 79.3005 46.9146 80 47.7771 80H66.5527C71.3476 80 75.2484 76.0992 75.2484 71.3043V33.8556C75.2484 32.9926 74.5489 32.2931 73.6859 32.2931ZM46.134 46.9159L52.7728 35.4181H61.4074L54.7693 46.9159H46.134ZM33.8904 46.9159L40.5292 35.4181H49.1638L42.5256 46.9159H33.8904ZM21.6473 46.9159L28.2855 35.4181H36.9208L30.282 46.9159H21.6473ZM27.4566 26.6882L16.3397 16.0107L24.6692 13.598C24.7278 13.6835 24.7961 13.764 24.8742 13.8391L35.9912 24.5166L27.6617 26.9293C27.6031 26.8439 27.5342 26.7627 27.4566 26.6882ZM48.3941 7.02576L59.5111 17.7032L51.1816 20.116C51.123 20.0305 51.0547 19.9493 50.9765 19.8749L39.8596 9.19739L48.1891 6.78467C48.2477 6.87012 48.316 6.95068 48.3941 7.02576ZM36.6339 10.4327L47.7508 21.1096L39.4214 23.5229C39.3628 23.4375 39.2944 23.3563 39.2163 23.2819L28.0993 12.6044L36.4288 10.1917C36.488 10.2765 36.5564 10.3577 36.6339 10.4327ZM60.0653 3.34412C60.567 3.19885 61.084 3.125 61.6021 3.125C64.0747 3.125 66.2799 4.77783 66.9659 7.14478L69.2108 14.8932L62.9419 16.709C62.8827 16.6235 62.8143 16.543 62.7362 16.4679L51.6198 5.79102L60.0653 3.34412ZM8.6688 19.9377C9.38901 18.6298 10.5688 17.6825 11.9909 17.2705L12.9089 17.0044C12.9681 17.0898 13.0365 17.171 13.114 17.2455L24.2309 27.923L10.4352 31.9196L8.19028 24.1711C7.77829 22.7496 7.94858 21.2463 8.6688 19.9377ZM10.9314 35.4181H24.6771L18.0389 46.9159H10.9314V35.4181ZM58.3777 46.9159L65.0158 35.4181H72.1234V46.9159H58.3777Z" fill="black"/>
<path fill-rule="evenodd" clip-rule="evenodd" d="M52.3319 63.2988C52.3319 62.7403 52.0341 62.2246 51.5507 61.9456L37.8232 54.0202C37.3398 53.7413 36.7441 53.7413 36.2607 54.0202C35.7773 54.2992 35.4795 54.8149 35.4795 55.3734V71.2242C35.4795 71.7821 35.7773 72.2978 36.2607 72.5768C36.5024 72.7165 36.7722 72.7867 37.042 72.7867C37.3118 72.7867 37.5815 72.7165 37.8232 72.5768L51.5507 64.6519C52.0341 64.373 52.3319 63.8573 52.3319 63.2988ZM38.6045 68.5179V58.0797L47.6444 63.2988L38.6045 68.5179Z" fill="black"/>
<path fill-rule="evenodd" clip-rule="evenodd" d="M41.5273 76.875C40.6667 76.875 39.9648 77.5769 39.9648 78.4375C39.9648 79.2981 40.6667 80 41.5273 80C42.3885 80 43.0898 79.2981 43.0898 78.4375C43.0898 77.5769 42.3885 76.875 41.5273 76.875Z" fill="black"/>
</g>
<defs>
<clipPath id="clip0_4056_11064">
<rect width="80" height="80" fill="white"/>
</clipPath>
</defs>
</svg>
