<svg width="80" height="80" viewBox="0 0 80 80" fill="none" xmlns="http://www.w3.org/2000/svg">
<path d="M21.25 31.25C19.1821 31.25 17.5 32.9321 17.5 35V57.5C17.5 59.5679 19.1821 61.25 21.25 61.25C23.3179 61.25 25 59.5679 25 57.5V35C25 32.9321 23.3179 31.25 21.25 31.25ZM22.5 57.5C22.5 58.1891 21.9391 58.75 21.25 58.75C20.5609 58.75 20 58.1891 20 57.5V35C20 34.3109 20.5609 33.75 21.25 33.75C21.9391 33.75 22.5 34.3109 22.5 35V57.5ZM11.25 31.25C9.18213 31.25 7.5 32.9321 7.5 35V57.5C7.5 59.5679 9.18213 61.25 11.25 61.25C13.3179 61.25 15 59.5679 15 57.5V35C15 32.9321 13.3179 31.25 11.25 31.25ZM12.5 57.5C12.5 58.1891 11.9391 58.75 11.25 58.75C10.5609 58.75 10 58.1891 10 57.5V35C10 34.3109 10.5609 33.75 11.25 33.75C11.9391 33.75 12.5 34.3109 12.5 35V57.5ZM70 47.5H60C60 43.3643 56.6357 40 52.5 40C48.3643 40 45 43.3643 45 47.5H40V28.7849L44.2542 31.676C44.4666 31.8201 44.7119 31.8921 44.9573 31.8921C45.2014 31.8921 45.4456 31.8207 45.6567 31.6785L71.5625 14.2035C72.6709 13.457 73.4204 12.3236 73.6755 11.0126C73.9307 9.70154 73.6597 8.36975 72.9126 7.26257C71.9824 5.88196 70.4309 5.05798 68.7646 5.05798C67.7661 5.05798 66.8005 5.354 65.9717 5.91309L59.3848 10.3564L47.2009 2.87292C46.7822 2.61658 46.2537 2.62695 45.8472 2.90161L40.6659 6.39648C40.3278 6.62476 40.1221 7.00317 40.1147 7.41089C40.108 7.8186 40.2997 8.20435 40.6299 8.44421L51.0205 15.9979L44.8499 20.1599L38.2202 16.4185C37.652 16.0986 36.9366 16.2665 36.5717 16.8048L35.2498 18.75H30V9.76967C31.4519 9.25201 32.5 7.87743 32.5 6.25C32.5 4.18213 30.8179 2.5 28.75 2.5H13.75C11.6821 2.5 10 4.18213 10 6.25C10 7.87743 11.0481 9.25194 12.5 9.76959V18.75H6.25C4.18213 18.75 2.5 20.4321 2.5 22.5V68.75C2.5 70.8179 4.18213 72.5 6.25 72.5V73.125C6.25 75.5371 8.21289 77.5 10.625 77.5C13.0371 77.5 15 75.5371 15 73.125V72.5H31.25V73.75C31.25 75.8179 32.9321 77.5 35 77.5H70C72.0679 77.5 73.75 75.8179 73.75 73.75V51.25C73.75 49.1821 72.0679 47.5 70 47.5ZM45 50H46.25H58.75H60V75H45V50ZM42.5 75H41.25V50H42.5V75ZM62.5 50H63.75V75H62.5V50ZM52.5 42.5C55.2576 42.5 57.5 44.743 57.5 47.5H47.5C47.5 44.743 49.7424 42.5 52.5 42.5ZM67.3706 7.98584C68.1028 7.48924 69.0559 7.47139 69.8352 7.82997L66.7432 9.91577L65.6993 9.11316L67.3706 7.98584ZM37.9932 19.1614L44.2944 22.7173C44.7046 22.9498 45.2148 22.9309 45.6079 22.6648L53.8989 17.0728C54.2371 16.8445 54.4421 16.4661 54.4495 16.0583C54.4568 15.6506 54.2639 15.2649 53.9343 15.025L43.5437 7.47131L46.5784 5.42419L58.7622 12.9077C59.1809 13.1641 59.7095 13.1537 60.116 12.879L63.5145 10.5868L65.2197 11.8976C65.6677 12.2424 66.2048 12.4164 66.7432 12.4164C67.229 12.4164 67.7173 12.2748 68.1421 11.9891L71.2526 9.89052C71.2668 10.1041 71.2637 10.3195 71.2219 10.5353C71.0937 11.1908 70.719 11.7572 70.1648 12.1307L44.9597 29.1327L35.5585 22.7435L37.9932 19.1614ZM26.25 18.75V10H27.5V18.75H26.25ZM18.75 18.75V10H23.75V18.75H18.75ZM13.75 5H28.75C29.4391 5 30 5.56091 30 6.25C30 6.93909 29.4391 7.5 28.75 7.5H13.75C13.0609 7.5 12.5 6.93909 12.5 6.25C12.5 5.56091 13.0609 5 13.75 5ZM15 10H16.25V18.75H15V10ZM6.25 21.25H9.87366C9.37523 23.6951 7.44507 25.6252 5 26.1237V22.5C5 21.8109 5.56091 21.25 6.25 21.25ZM5 68.75V65.1263C7.44507 65.6248 9.37523 67.5549 9.87366 70H7.5H6.25C5.56091 70 5 69.4391 5 68.75ZM12.5 73.125C12.5 74.1589 11.6589 75 10.625 75C9.59106 75 8.75 74.1589 8.75 73.125V72.5H12.5V73.125ZM13.75 70H12.4002C11.8494 66.1761 8.82385 63.1506 5 62.5998V28.6502C8.82385 28.0994 11.8494 25.0739 12.4002 21.25H33.5509L32.7881 22.3724C32.6019 22.6465 32.5317 22.9834 32.594 23.3093C32.6563 23.6346 32.8455 23.9227 33.1195 24.1089L37.5 27.0859V47.5H35V35C35 32.9321 33.3179 31.25 31.25 31.25C29.1821 31.25 27.5 32.9321 27.5 35V57.5C27.5 59.5679 29.1821 61.25 31.25 61.25V70H13.75ZM32.5 48.4753C31.7384 49.1622 31.25 50.146 31.25 51.25V58.75C30.5609 58.75 30 58.1891 30 57.5V35C30 34.3109 30.5609 33.75 31.25 33.75C31.9391 33.75 32.5 34.3109 32.5 35V48.4753ZM33.75 73.75V51.25C33.75 50.5609 34.3109 50 35 50H37.5H38.75V75H35C34.3109 75 33.75 74.4391 33.75 73.75ZM71.25 73.75C71.25 74.4391 70.6897 75 70 75H66.25V50H70C70.6897 50 71.25 50.5609 71.25 51.25V73.75ZM76.77 15.2155L47.7539 34.787C47.5391 34.9316 47.2961 35.0006 47.0557 35.0006C46.6541 35.0006 46.2598 34.8077 46.0181 34.4495C45.6323 33.8776 45.7837 33.1006 46.355 32.7142L75.3711 13.1427C75.9436 12.7557 76.7212 12.9077 77.1069 13.4802C77.4927 14.0521 77.3413 14.8291 76.77 15.2155Z" fill="black"/>
</svg>
