<svg width="56" height="56" viewBox="0 0 56 56" fill="none" xmlns="http://www.w3.org/2000/svg">
<g clip-path="url(#clip0_552_4098)">
<path d="M42.875 0H13.125C5.87626 0 0 5.87626 0 13.125V42.875C0 50.1237 5.87626 56 13.125 56H42.875C50.1237 56 56 50.1237 56 42.875V13.125C56 5.87626 50.1237 0 42.875 0Z" fill="white"/>
<path d="M10.4688 38.5419L12.0748 39.4691L29.967 8.48002L28.3609 7.55273L10.4688 38.5419Z" fill="#E535AB"/>
<path d="M45.8858 36.0664H10.1016V37.921H45.8858V36.0664Z" fill="#E535AB"/>
<path d="M10.8086 37.108L28.7074 47.4422L29.6347 45.8361L11.7359 35.502L10.8086 37.108Z" fill="#E535AB"/>
<path d="M26.3594 10.1744L44.2582 20.5086L45.1854 18.9026L27.2867 8.56836L26.3594 10.1744Z" fill="#E535AB"/>
<path d="M10.8164 18.8957L11.7437 20.5018L29.6426 10.1676L28.7153 8.56152L10.8164 18.8957Z" fill="#E535AB"/>
<path d="M26.0352 8.4805L43.9272 39.4696L45.5332 38.5423L27.6412 7.55322L26.0352 8.4805Z" fill="#E535AB"/>
<path d="M13.3741 17.6655H11.5195V38.334H13.3741V17.6655Z" fill="#E535AB"/>
<path d="M44.4796 17.6655H42.625V38.334H44.4796V17.6655Z" fill="#E535AB"/>
<path d="M27.582 45.2544L28.3921 46.6574L43.9592 37.6694L43.1492 36.2666L27.582 45.2544Z" fill="#E535AB"/>
<path d="M46.936 38.9377C45.8635 40.8034 43.4726 41.4402 41.6069 40.3677C39.7411 39.2952 39.1044 36.9044 40.1769 35.0387C41.2494 33.1728 43.6404 32.536 45.5061 33.6085C47.383 34.6922 48.0197 37.072 46.936 38.9377Z" fill="#E535AB"/>
<path d="M15.811 20.9616C14.7385 22.8272 12.3476 23.4642 10.4819 22.3917C8.61616 21.3191 7.97936 18.9282 9.05187 17.0625C10.1244 15.1967 12.5152 14.5599 14.381 15.6325C16.2467 16.7161 16.8835 19.0958 15.811 20.9616Z" fill="#E535AB"/>
<path d="M9.06359 38.9377C7.99108 37.072 8.62788 34.6922 10.4936 33.6085C12.3594 32.536 14.739 33.1728 15.8227 35.0387C16.8953 36.9044 16.2584 39.284 14.3927 40.3677C12.5158 41.4402 10.1361 40.8034 9.06359 38.9377Z" fill="#E535AB"/>
<path d="M40.1886 20.9616C39.1161 19.0958 39.7529 16.7161 41.6186 15.6325C43.4845 14.5599 45.8641 15.1967 46.9478 17.0625C48.0203 18.9282 47.3835 21.3079 45.5178 22.3917C43.6521 23.4642 41.2611 22.8272 40.1886 20.9616Z" fill="#E535AB"/>
<path d="M28.0006 49.8749C25.8443 49.8749 24.1016 48.1321 24.1016 45.9759C24.1016 43.8197 25.8443 42.0767 28.0006 42.0767C30.1568 42.0767 31.8996 43.8197 31.8996 45.9759C31.8996 48.1209 30.1568 49.8749 28.0006 49.8749Z" fill="#E535AB"/>
<path d="M28.0006 13.9231C25.8443 13.9231 24.1016 12.1803 24.1016 10.0241C24.1016 7.86785 25.8443 6.125 28.0006 6.125C30.1568 6.125 31.8996 7.86785 31.8996 10.0241C31.8996 12.1803 30.1568 13.9231 28.0006 13.9231Z" fill="#E535AB"/>
</g>
<defs>
<clipPath id="clip0_552_4098">
<rect width="56" height="56" fill="white"/>
</clipPath>
</defs>
</svg>
