<svg width="56" height="56" viewBox="0 0 56 56" fill="none" xmlns="http://www.w3.org/2000/svg">
<g clip-path="url(#clip0_552_4095)">
<path d="M42.875 0H13.125C5.87626 0 0 5.87626 0 13.125V42.875C0 50.1237 5.87626 56 13.125 56H42.875C50.1237 56 56 50.1237 56 42.875V13.125C56 5.87626 50.1237 0 42.875 0Z" fill="white"/>
<path d="M39.9343 34.2559C40.2336 34.0577 40.4186 33.6905 40.4197 33.2925L40.4371 26.8394C40.4382 26.4414 40.6232 26.0742 40.9225 25.876L43.956 23.8666C44.2552 23.6685 44.6233 23.6692 44.922 23.8685C45.2206 24.0678 45.4046 24.4355 45.4046 24.8334V36.5653C45.4046 36.9645 45.2194 37.3332 44.9191 37.5321L33.4709 45.1147C33.1734 45.3116 32.8076 45.3121 32.5097 45.1158L23.5254 39.1902C23.2241 38.9917 23.0381 38.6224 23.038 38.2223V32.3067C23.038 32.3 23.0448 32.2956 23.0506 32.2989C23.0554 32.3023 23.0622 32.2989 23.0622 32.2911V32.2844C23.0622 32.28 23.0641 32.2755 23.068 32.2733L30.4674 27.3713C30.4742 27.3669 30.4713 27.3546 30.4635 27.3546C30.4593 27.3546 30.4558 27.3506 30.4558 27.3457L30.4703 21.5461C30.4717 21.1469 30.2879 20.7773 29.9885 20.5771C29.689 20.3768 29.3196 20.3764 29.0198 20.576L23.5205 24.2301C23.2218 24.4285 22.8542 24.4285 22.5555 24.2301L17.0388 20.567C16.7396 20.3684 16.3714 20.3687 16.0725 20.5678C15.7736 20.767 15.5895 21.1347 15.5892 21.5327V32.0146C15.5895 32.4122 15.4061 32.7798 15.108 32.9796C14.8098 33.1793 14.442 33.1808 14.1426 32.9836L11.0811 30.9653C10.7792 30.7664 10.5932 30.396 10.5938 29.9951L10.6208 11.6742C10.6216 11.2767 10.8058 10.9097 11.1043 10.711C11.4028 10.5122 11.7705 10.5117 12.0694 10.7096L22.5564 17.6555C22.8546 17.853 23.2214 17.853 23.5196 17.6555L34.0037 10.7096C34.3031 10.5114 34.6714 10.5122 34.9701 10.7118C35.2688 10.9114 35.4525 11.2794 35.4523 11.6775V30.003C35.4524 30.402 35.2676 30.7706 34.9678 30.9697L29.4772 34.6161C29.177 34.8156 28.9924 35.1852 28.9932 35.5847C28.994 35.9843 29.1801 36.3528 29.4811 36.5508L32.5097 38.539C32.8075 38.7345 33.1728 38.7336 33.4699 38.5367L39.9343 34.2559ZM40.5696 17.8172C40.5699 18.2187 40.7573 18.589 41.0602 18.7868C41.3632 18.9845 41.735 18.9792 42.0336 18.7729L44.9346 16.7657C45.2259 16.5644 45.4043 16.2017 45.4046 15.8101V11.7199C45.4039 11.3186 45.2164 10.9487 44.9135 10.7512C44.6106 10.5537 44.239 10.5591 43.9405 10.7654L41.0395 12.7726C40.7482 12.9738 40.5699 13.3366 40.5696 13.7282V17.8183V17.8172Z" fill="#007FFF"/>
</g>
<defs>
<clipPath id="clip0_552_4095">
<rect width="56" height="56" fill="white"/>
</clipPath>
</defs>
</svg>
