<svg width="56" height="56" viewBox="0 0 56 56" fill="none" xmlns="http://www.w3.org/2000/svg">
<g clip-path="url(#clip0_552_4122)">
<path d="M42.875 0H13.125C5.87626 0 0 5.87626 0 13.125V42.875C0 50.1237 5.87626 56 13.125 56H42.875C50.1237 56 56 50.1237 56 42.875V13.125C56 5.87626 50.1237 0 42.875 0Z" fill="white"/>
<path d="M28 0C12.5361 0 0 12.5361 0 28C0 43.4639 12.5361 56 28 56C43.4639 56 56 43.4639 56 28C56 12.5361 43.4639 0 28 0ZM28 1.12131C31.6291 1.12131 35.149 1.83181 38.4622 3.23312C41.6627 4.58675 44.5373 6.52509 47.0061 8.99391C49.4749 11.4627 51.4133 14.3373 52.7669 17.5378C54.1682 20.851 54.8787 24.3709 54.8787 28C54.8787 31.6291 54.1682 35.149 52.7669 38.4619C51.4133 41.6627 49.4749 44.5373 47.0061 47.0061C44.5373 49.4749 41.6627 51.4133 38.4622 52.7669C35.149 54.1682 31.6291 54.8787 28 54.8787C24.3709 54.8787 20.851 54.1682 17.5378 52.7669C14.3373 51.4133 11.4627 49.4749 8.99391 47.0061C6.52509 44.5373 4.58675 41.6627 3.23312 38.4619C1.83181 35.149 1.12131 31.6291 1.12131 28C1.12131 24.3709 1.83181 20.851 3.23312 17.5378C4.58675 14.3373 6.52509 11.4627 8.99391 8.99391C11.4627 6.52509 14.3373 4.58675 17.5378 3.23312C20.851 1.83181 24.3709 1.12131 28 1.12131ZM21.1647 37.891V15.9788H24.8557L27.986 26.0704L31.1922 15.9786H34.7141V37.891H32.1678V19.7164L29.5103 28.3598H26.5318L23.828 19.7164V37.891H21.1647Z" fill="#474749"/>
</g>
<defs>
<clipPath id="clip0_552_4122">
<rect width="56" height="56" fill="white"/>
</clipPath>
</defs>
</svg>
