<svg width="56" height="56" viewBox="0 0 56 56" fill="none" xmlns="http://www.w3.org/2000/svg">
<g clip-path="url(#clip0_596_588)">
<path d="M42.875 0H13.125C5.87626 0 0 5.87626 0 13.125V42.875C0 50.1237 5.87626 56 13.125 56H42.875C50.1237 56 56 50.1237 56 42.875V13.125C56 5.87626 50.1237 0 42.875 0Z" fill="white"/>
<path d="M28.0002 32.1454C30.2542 32.1454 32.0812 30.3182 32.0812 28.0644C32.0812 25.8106 30.2542 23.9834 28.0002 23.9834C25.7464 23.9834 23.9192 25.8106 23.9192 28.0644C23.9192 30.3182 25.7464 32.1454 28.0002 32.1454Z" fill="#00D8FF"/>
<path fill-rule="evenodd" clip-rule="evenodd" d="M28.0004 19.7666C33.4797 19.7666 38.5698 20.5528 42.4077 21.8741C47.0319 23.466 49.875 25.8791 49.875 28.0642C49.875 30.3411 46.8619 32.9047 41.8961 34.5499C38.1419 35.7937 33.2017 36.4429 28.0004 36.4429C22.6677 36.4429 17.6179 35.8335 13.8214 34.5361C9.01808 32.8944 6.125 30.2978 6.125 28.0642C6.125 25.8968 8.8396 23.5023 13.3988 21.9129C17.251 20.5699 22.4667 19.7666 27.9996 19.7666H28.0004Z" stroke="#00D8FF" stroke-width="2"/>
<path fill-rule="evenodd" clip-rule="evenodd" d="M20.7772 23.9396C23.5146 19.1932 26.7383 15.1765 29.8004 12.5119C33.4894 9.30138 37.0003 8.04405 38.8929 9.1355C40.8654 10.273 41.5809 14.164 40.5255 19.2875C39.7281 23.161 37.8219 27.7648 35.2234 32.2707C32.5593 36.8902 29.5088 40.9603 26.4885 43.6002C22.6667 46.9409 18.9719 48.1499 17.037 47.0341C15.1595 45.9522 14.4415 42.4038 15.3422 37.6602C16.1032 33.6521 18.0131 28.7326 20.7763 23.9396H20.7772Z" stroke="#00D8FF" stroke-width="2"/>
<path fill-rule="evenodd" clip-rule="evenodd" d="M20.784 32.2823C18.039 27.5412 16.17 22.7413 15.3898 18.7578C14.4508 13.9583 15.1147 10.2887 17.0058 9.19405C18.9763 8.05323 22.7046 9.3766 26.6163 12.8498C29.5738 15.4758 32.6107 19.4258 35.2167 23.9272C37.8885 28.5424 39.8909 33.2182 40.6699 37.153C41.6556 42.1327 40.8578 45.9374 38.9247 47.0563C37.0491 48.1422 33.6167 46.9926 29.9568 43.8431C26.8646 41.1822 23.5562 37.0708 20.784 32.2823Z" stroke="#00D8FF" stroke-width="2"/>
</g>
<defs>
<clipPath id="clip0_596_588">
<rect width="56" height="56" fill="white"/>
</clipPath>
</defs>
</svg>
