<svg width="56" height="56" viewBox="0 0 56 56" fill="none" xmlns="http://www.w3.org/2000/svg">
<g clip-path="url(#clip0_552_4115)">
<path d="M42.875 0H13.125C5.87626 0 0 5.87626 0 13.125V42.875C0 50.1237 5.87626 56 13.125 56H42.875C50.1237 56 56 50.1237 56 42.875V13.125C56 5.87626 50.1237 0 42.875 0Z" fill="white"/>
<path d="M36.4392 36.2249C38.0537 36.0578 39.2785 34.6659 39.2227 32.9958C39.1672 31.3256 37.7753 29.9895 36.1051 29.9895H35.9938C34.2678 30.045 32.9317 31.4925 32.9873 33.2184C33.0431 34.0536 33.3771 34.7773 33.878 35.2784C31.9852 39.0085 29.0902 41.7366 24.7476 44.0192C21.7969 45.578 18.7349 46.1348 15.6728 45.7452C13.1675 45.4111 11.2189 44.2975 9.99412 42.4604C8.21255 39.7324 8.04553 36.7817 9.54872 33.8309C10.6065 31.7152 12.2767 30.1564 13.3345 29.377C13.1119 28.6533 12.7778 27.4283 12.6108 26.5376C4.5381 32.3835 5.3732 40.2891 7.82283 44.0192C9.66006 46.8028 13.3902 48.5288 17.5101 48.5288C18.6235 48.5288 19.737 48.4174 20.8505 48.1389C27.9768 46.7473 33.3771 42.516 36.4392 36.2249Z" fill="#764ABC"/>
<path d="M46.2373 29.321C42.0062 24.3659 35.7708 21.638 28.6446 21.638H27.7538C27.2526 20.6359 26.1948 19.9678 25.0258 19.9678H24.9144C23.1885 20.0234 21.8523 21.471 21.9079 23.1969C21.9637 24.8671 23.3554 26.2032 25.0258 26.2032H25.1371C26.3619 26.1476 27.4198 25.3682 27.8651 24.3104H28.8672C33.0983 24.3104 37.1069 25.5351 40.7257 27.9291C43.5093 29.7664 45.5137 32.1604 46.6271 35.0554C47.5736 37.3936 47.5179 39.6762 46.5158 41.6249C44.957 44.5756 42.3403 46.1902 38.8884 46.1902C36.6615 46.1902 34.546 45.5221 33.4323 45.0209C32.8201 45.5777 31.7066 46.4684 30.9272 47.0251C33.321 48.1386 35.7708 48.7511 38.109 48.7511C43.4537 48.7511 47.4065 45.8004 48.9098 42.8496C50.5244 39.6207 50.413 34.0533 46.2373 29.321Z" fill="#764ABC"/>
<path d="M17.9548 37.1713C18.0104 38.8415 19.4023 40.1776 21.0725 40.1776H21.1838C22.9096 40.1218 24.246 38.6743 24.1902 36.9484C24.1346 35.2783 22.7427 33.9421 21.0725 33.9421H20.9611C20.8498 33.9421 20.6828 33.9421 20.5714 33.9979C18.2888 30.212 17.3424 26.0921 17.6764 21.6382C17.8991 18.2978 19.0126 15.4028 20.9611 13.0088C22.5756 10.9489 25.6934 9.94676 27.809 9.89109C33.7104 9.77974 36.2158 17.1287 36.3827 20.0794C37.1065 20.2464 38.3313 20.6361 39.1665 20.9145C38.4984 11.8953 32.931 7.21875 27.5863 7.21875C22.5756 7.21875 17.9548 10.8375 16.1175 16.1822C13.5565 23.3085 15.2268 30.1562 18.3445 35.5567C18.0661 35.9463 17.8991 36.5588 17.9548 37.1713Z" fill="#764ABC"/>
</g>
<defs>
<clipPath id="clip0_552_4115">
<rect width="56" height="56" fill="white"/>
</clipPath>
</defs>
</svg>
